<svg width="105" height="105" viewBox="0 0 105 105" fill="none" xmlns="http://www.w3.org/2000/svg">
<g clip-path="url(#clip0_924_27394)">
<path d="M54.1988 25.3447C48.3171 25.3447 43.5273 30.117 43.5273 36.004V41.3644C43.5273 47.254 48.3051 52.0236 54.1988 52.0236C60.0805 52.0236 64.8703 47.2513 64.8703 41.3644V36.004C64.8704 30.1144 60.0926 25.3447 54.1988 25.3447ZM59.5346 41.3644C59.5346 44.298 57.1402 46.6878 54.1988 46.6878C51.2495 46.6878 48.863 44.3046 48.863 41.3644V36.004C48.863 33.0704 51.2575 30.6805 54.1988 30.6805C57.1482 30.6805 59.5346 33.0637 59.5346 36.004V41.3644Z" fill="white"/>
<path d="M68.8461 58.3927C68.8283 58.385 68.6812 58.3296 68.4752 58.2534C68.1364 58.1281 67.7526 57.9888 67.3306 57.8391C66.1263 57.4119 64.8527 56.9848 63.5631 56.5853C62.5885 56.2833 61.6414 56.0085 60.7328 55.7673C58.143 55.0795 55.9974 54.6914 54.3327 54.6914C52.6657 54.6914 50.5537 55.0617 48.0337 55.7191C47.0731 55.9697 46.0708 56.2584 45.0394 56.5776C43.7527 56.9761 42.4857 57.4018 41.29 57.8277C40.8709 57.977 40.49 58.1158 40.1541 58.2409C39.9496 58.3169 39.8037 58.3723 39.7228 58.4035C35.9574 59.7131 32.9805 63.9315 32.9805 68.0152V76.0344H38.3163V68.0152C38.3163 66.195 39.8631 64.0031 41.5591 63.4125C41.7032 63.3585 41.8304 63.3103 42.0153 63.2414C42.3283 63.1249 42.6858 62.9946 43.0804 62.854C44.2099 62.4517 45.4077 62.0491 46.6177 61.6746C47.5762 61.3778 48.5026 61.1111 49.3807 60.882C51.4963 60.3301 53.2244 60.0271 54.3327 60.0271C55.4227 60.0271 57.1866 60.3462 59.3633 60.9242C60.1972 61.1457 61.0754 61.4003 61.9838 61.6818C63.1993 62.0585 64.4062 62.4632 65.5468 62.8677C65.9454 63.0092 66.3067 63.1402 66.6235 63.2574C66.8108 63.3267 66.94 63.3754 67.0037 63.3997C68.7669 64.0241 70.2982 66.1965 70.2982 68.0152V76.0344H75.634V68.0152C75.6341 63.9385 72.6805 59.7486 68.8461 58.3927Z" fill="white"/>
</g>
<defs>
<clipPath id="clip0_924_27394">
<rect width="50.6897" height="50.6897" fill="white" transform="translate(28.9648 25.3447)"/>
</clipPath>
</defs>
</svg>
