<svg width="11" height="30" viewBox="0 0 11 30" fill="none" xmlns="http://www.w3.org/2000/svg">
<path d="M7.70002 6.70005C7.70002 4.00005 7.70002 1.80005 5.20002 1.80005C2.70002 1.80005 2.40002 4.00005 2.40002 6.70005L1.90002 13.6C3.40002 12.8 6.60002 11.1001 8.00002 10.4001L7.70002 6.70005Z" fill="#8C8D92"/>
<path d="M8.09998 11.4L1.79998 14.7L1.59998 17.7C3.19998 16.8 6.79998 14.8 8.29998 13.9L8.09998 11.4Z" fill="#8C8D92"/>
<path d="M8.40005 15.0001L1.50005 18.9001L1.30005 21.9001C2.70005 21.1001 7.20004 18.5001 8.60004 17.7001L8.40005 15.0001Z" fill="#8C8D92"/>
<path d="M8.70002 18.7001L1.20002 23.0001L0.900024 26.6001C0.900024 29.3001 9.30003 29.6001 9.30003 26.9001L8.70002 18.7001Z" fill="#8C8D92"/>
<path d="M8.60007 17.6C7.20007 18.4 2.70008 21.1 1.30008 21.8L1.20007 22.9L8.70007 18.6L8.60007 17.6Z" fill="#BBBCC1"/>
<path d="M8.90005 14.7001C8.80005 14.4001 8.70004 14.0001 8.70004 13.7001C8.60004 13.8001 8.50005 13.8001 8.30005 13.9001L8.40005 15.0001L8.90005 14.7001Z" fill="#BBBCC1"/>
<path d="M8.3 13.9C6.7 14.8 3.1 16.9 1.6 17.7L1.5 18.8L8.4 14.9L8.3 13.9Z" fill="#BBBCC1"/>
<path d="M8.6 11.1001L8.7 10.0001C8.7 10.0001 8.4 10.1001 8 10.4001L8.1 11.4001L8.6 11.1001Z" fill="#B46766"/>
<path d="M8.00005 10.3C6.60005 11 3.30005 12.8 1.90005 13.5L1.80005 14.6L8.10004 11.3L8.00005 10.3Z" fill="#BBBCC1"/>
<path d="M1.60002 10.5001C1.70002 10.5001 8.40002 7.00006 8.40002 7.00006L8.20002 8.10006L1.40002 11.5001L1.60002 10.5001Z" fill="#BBBCC1"/>
<path d="M2.10002 7.10005C2.20002 7.10005 8.20002 4.30005 8.20002 4.30005L8.00002 5.30005L1.90002 8.10005L2.10002 7.10005Z" fill="#BBBCC1"/>
<path d="M2.30008 4.40004C2.40008 4.40004 7.40008 2.10004 7.40008 2.10004L7.30008 2.90004L2.20007 5.20004L2.30008 4.40004Z" fill="#BBBCC1"/>
<path d="M5.10002 28.8C7.41962 28.8 9.30003 28.0389 9.30003 27.1C9.30003 26.1611 7.41962 25.4 5.10002 25.4C2.78043 25.4 0.900024 26.1611 0.900024 27.1C0.900024 28.0389 2.78043 28.8 5.10002 28.8Z" fill="#527F3F"/>
<path d="M5.1001 28.3C6.75695 28.3 8.1001 27.7628 8.1001 27.1C8.1001 26.4373 6.75695 25.9 5.1001 25.9C3.44324 25.9 2.1001 26.4373 2.1001 27.1C2.1001 27.7628 3.44324 28.3 5.1001 28.3Z" fill="#79B565"/>
<path d="M0.700073 27.1L2.30008 6.40005C2.30008 3.60005 2.60007 1.30005 5.20007 1.30005C7.80007 1.30005 7.90008 3.60005 7.90008 6.40005L9.60007 27.4001C9.50007 30.2001 0.700073 29.9 0.700073 27.1Z" stroke="#B46766" stroke-miterlimit="10"/>
</svg>
