<svg width="25" height="40" viewBox="0 0 25 40" fill="none" xmlns="http://www.w3.org/2000/svg">
<path d="M9.3428 36.9109C9.04792 38.7641 10.2338 39.255 11.1638 38.0034C12.9613 35.5839 13.7947 32.1197 14.5151 28.9554C14.8486 27.4901 16.3883 22.2624 15.2061 21.3143C14.0329 20.3738 10.1113 23.4147 10.2102 26.5487C10.2638 28.2486 10.3844 29.9398 10.305 31.6679C10.2188 33.5456 9.63225 35.0953 9.3428 36.9109Z" fill="url(#paint0_linear_85_9983)"/>
<path d="M21.8141 13.6013C21.8141 13.6013 20.5067 17.1966 20.5067 21.1186C20.5067 25.0405 20.8333 29.9433 18.5455 33.5386C16.2576 37.1339 15.6039 38.768 15.6039 38.768C15.6039 38.768 13.6427 41.0559 12.6623 38.4414C12.6623 38.4414 14.9502 30.597 13.6427 26.6751C12.3352 22.7531 11.0278 24.0601 10.7011 24.7139C10.3745 25.3676 5.79836 32.8849 5.14463 34.8461C4.4909 36.8073 3.51053 38.768 2.85679 38.768C2.20306 38.768 1.22269 37.1339 0.568963 34.1924C-0.0847694 31.2508 0.56896 27.9825 1.87642 25.6942C3.18389 23.4064 4.49136 13.2742 4.49136 11.6401C4.49136 10.006 20.18 12.9476 21.8141 13.6013Z" fill="url(#paint1_linear_85_9983)"/>
<path d="M14.2599 3.33259C14.5702 3.25909 14.8914 3.0563 15.2643 2.81087C16.2769 2.14352 17.3285 1.49976 18.4967 1.17538C19.6653 0.851009 20.98 0.879135 22.0198 1.50293C22.7512 1.94163 23.2928 2.63665 23.7388 3.36344C24.4365 4.50079 24.9514 5.82234 24.7913 7.14705C24.6089 8.65778 24.0096 10.1454 23.3949 11.5254C23.022 12.3625 22.7112 13.3174 22.0394 13.9725C21.2554 14.7365 19.9375 14.844 18.9045 14.9887C16.6824 15.2995 14.4513 15.021 12.2819 14.506C10.1251 13.9938 7.89625 13.4259 5.79895 12.7118C5.42195 12.5834 5.0454 12.435 4.72965 12.1928C3.84454 11.5127 3.66262 9.96707 3.44985 8.94721C3.12684 7.39702 3.32418 5.79421 3.95841 4.34927C4.77501 2.48877 6.33654 0.846471 8.40981 0.52754C9.89376 0.299344 11.2112 0.603758 12.2097 1.75381C12.5405 2.1349 12.8036 2.57768 13.1611 2.93563C13.5553 3.33032 13.9001 3.41788 14.2599 3.33259Z" fill="url(#paint2_linear_85_9983)"/>
<path d="M15.6671 35.6061C15.6957 35.5481 15.7247 35.4927 15.7542 35.4405C16.1412 34.7591 16.5871 34.1131 16.9592 33.4231C17.9359 31.6116 18.1537 29.6862 18.4799 27.701C18.9939 24.5757 18.9907 21.3996 19.2715 18.2511C19.5138 15.5373 20.0296 12.8212 20.7468 10.1917C21.1325 8.77812 21.0467 7.36404 18.8187 7.06417C16.5908 6.7643 16.114 7.65848 13.886 7.44435C12.5572 7.31642 11.3858 5.85107 10.1206 5.44822C7.44392 4.31405 5.40015 6.28613 5.38109 7.14265C5.35659 8.25096 5.26496 9.36608 5.46321 10.4585C5.67915 11.6503 5.93411 12.7981 5.994 14.0152C6.08745 15.9211 5.88376 17.8424 5.38609 19.6847C4.84441 21.6899 4.23467 23.6806 3.46298 25.6101C2.9526 26.8858 2.19407 28.0213 2.09427 29.4258C2.01851 30.4901 2.02394 31.558 2.02712 32.6246C2.02893 33.2457 1.80483 35.1189 2.61462 35.3217C2.94489 35.4042 3.29694 35.2382 3.52967 34.99C3.7624 34.7414 3.89987 34.4211 4.03642 34.1095C5.6347 30.4547 7.683 26.9969 10.1206 23.8394C10.6976 23.0917 11.3754 22.5278 12.2905 23.1076C13.3892 23.8035 14.3025 25.1269 14.5561 26.3994C15.2266 29.7647 13.8343 32.9082 13.8883 36.2199C13.8978 36.8156 14.273 37.1744 14.8178 36.8696C15.2443 36.6305 15.4475 36.0503 15.6671 35.6061Z" fill="#FCF2D9"/>
<path d="M2.57812 38.7508C2.57812 38.7508 3.92552 30.4674 4.24309 29.0156C4.56066 27.5639 7.44282 12.9569 8.70266 10.8051C9.9625 8.65342 17.9793 10.3388 18.2751 11.8939C18.5709 13.4491 17.7171 24.6605 17.7171 24.6605C17.7171 24.6605 17.2262 28.0357 16.748 31.5875C16.3515 34.534 14.707 39.2371 14.2692 39.7221C14.2692 39.7221 15.843 34.5789 16.1542 31.3175C16.4522 28.1904 16.2567 24.8224 16.1301 24.2758C15.8711 23.1584 14.7628 21.3818 12.4822 20.7862C10.2011 20.1905 8.20907 22.668 7.83434 23.539C7.45961 24.41 5.31602 28.9054 5.28698 29.923L2.57812 38.7508Z" fill="white"/>
<defs>
<linearGradient id="paint0_linear_85_9983" x1="13.2614" y1="20.9467" x2="13.2373" y2="58.0161" gradientUnits="userSpaceOnUse">
<stop offset="0.1599" stop-color="#BFAB8D"/>
<stop offset="0.5078" stop-color="#E7E1D2"/>
<stop offset="0.7297" stop-color="#CCBFA6"/>
</linearGradient>
<linearGradient id="paint1_linear_85_9983" x1="19.9197" y1="25.3881" x2="3.16153" y2="25.4486" gradientUnits="userSpaceOnUse">
<stop stop-color="#BFAB8D"/>
<stop offset="0.5078" stop-color="#E7E1D2"/>
<stop offset="1" stop-color="#CCBFA6"/>
</linearGradient>
<linearGradient id="paint2_linear_85_9983" x1="31.1715" y1="7.7235" x2="-2.86836" y2="7.84646" gradientUnits="userSpaceOnUse">
<stop stop-color="#94938C"/>
<stop offset="0.2614" stop-color="#EDEBE1"/>
<stop offset="0.7687" stop-color="#EDEBE1"/>
<stop offset="1" stop-color="#94938C"/>
</linearGradient>
</defs>
</svg>
