<svg width="20" height="51" viewBox="0 0 20 51" fill="none" xmlns="http://www.w3.org/2000/svg">
<path d="M16.1376 20.7778C15.3346 26.0339 13.9187 31.286 12.0754 36.2658C10.0493 41.7388 7.51786 47.2122 2.59645 50.6419C2.47714 50.7249 2.3492 50.8111 2.20403 50.8183C2.05613 50.8256 1.91686 50.7489 1.79845 50.66C1.12067 50.1533 0.871146 49.2278 0.941011 48.3845C1.01088 47.5406 1.34751 46.7463 1.64148 45.9524C3.43529 41.11 3.87308 35.7808 4.38437 30.6794C4.70829 27.4498 5.47635 23.4911 4.71509 20.2715C3.89758 16.816 15.6313 20.164 16.1376 20.7778Z" fill="url(#paint0_linear_85_9933)"/>
<path d="M5.99897 0.796022C6.72571 0.468444 7.48375 0.460724 8.49628 0.709356C8.77028 0.776505 9.06243 0.880861 9.21122 1.12042C9.90802 2.24017 4.18893 4.3903 3.50529 3.45067C3.10064 2.8917 4.62625 1.77603 4.94561 1.49882C5.30626 1.1853 5.64876 0.953912 5.99897 0.796022Z" fill="#D8D6D0"/>
<path d="M15.9366 0.98268C16.2741 1.0843 16.5308 1.19318 16.6388 1.288C17.185 1.76798 17.7525 2.27881 17.997 2.9634C18.095 3.23787 18.1054 3.60581 17.8559 3.75643C17.7716 3.80724 17.6708 3.82266 17.5729 3.83082C16.4283 3.92473 15.1042 3.18071 14.1361 2.64946C13.7777 2.45303 12.2367 1.74394 12.307 1.18638C12.4141 0.34119 14.7095 0.613846 15.9366 0.98268Z" fill="#D8D6D0"/>
<path d="M17.9545 3.08923C17.9545 3.08923 20.2423 4.72335 18.9349 8.9724C18.2811 14.8556 16.3199 20.7387 16.3199 20.7387C16.3199 20.7387 15.6662 21.7191 11.0904 21.7191C6.51471 21.7191 5.20722 21.0654 4.55348 19.7579C3.89974 18.4504 2.26562 6.03036 2.26562 6.03036C2.26562 6.03036 2.59227 3.08878 3.89975 2.76214C5.20723 2.4355 6.5147 2.10841 6.84134 2.10841C7.16798 2.10841 10.1096 0.147202 11.4171 0.474297C12.725 0.801391 15.9932 3.41587 17.9545 3.08923Z" fill="url(#paint1_linear_85_9933)"/>
<path d="M17.0791 9.62191C17.0791 9.62191 17.6235 7.01875 15.3098 6.49793C12.9961 5.97711 5.73737 6.10731 5.51053 6.19441C5.2837 6.28107 4.73929 6.32463 4.33099 6.97519C3.36014 8.52222 3.84964 10.1863 4.45212 11.7619C5.69381 15.0084 6.17107 18.6037 6.41288 22.0385C6.94548 29.5944 4.91032 36.9548 3.11515 44.2417C2.94185 44.9462 2.60705 45.7692 2.60705 46.5009C2.60705 47.1084 2.01728 49.061 2.19874 49.1477C2.38021 49.2343 3.92269 48.6269 5.19296 46.2841C6.46324 43.9413 12.2248 29.5803 12.8146 27.4109C13.7424 23.9979 14.5944 20.5668 15.4536 17.1379C16.0593 14.7221 16.963 12.1171 17.0791 9.62191Z" fill="#FCF2D9"/>
<path d="M10.7252 9.38515C10.2674 10.033 9.37009 13.6283 9.13781 14.7475C8.80437 16.353 7.99639 25.9516 7.37169 29.2556C6.5678 33.5073 5.42049 38.2704 4.544 42.5248C4.35437 43.4444 1.80568 50.0184 2.09285 49.8419C2.18131 49.8015 5.2372 45.1111 6.0107 42.2299C7.13942 38.0245 8.28265 33.7419 9.45855 29.5727C10.2774 26.6693 12.1102 18.3173 12.4092 16.8466C12.715 15.3427 13.6473 11.3187 13.5266 10.5983C13.3927 9.79618 12.9232 9.0948 12.5498 9.07393C12.0694 9.04762 11.1825 8.73686 10.7252 9.38515Z" fill="white"/>
<defs>
<linearGradient id="paint0_linear_85_9933" x1="12.9095" y1="34.745" x2="2.543" y2="34.7825" gradientUnits="userSpaceOnUse">
<stop stop-color="#BFAB8D"/>
<stop offset="0.5078" stop-color="#E7E1D2"/>
<stop offset="1" stop-color="#CCBFA6"/>
</linearGradient>
<linearGradient id="paint1_linear_85_9933" x1="22.9724" y1="11.0355" x2="-1.15977" y2="11.1227" gradientUnits="userSpaceOnUse">
<stop stop-color="#94938C"/>
<stop offset="0.2296" stop-color="#EDEBE1"/>
<stop offset="0.7988" stop-color="#EDEBE1"/>
<stop offset="1" stop-color="#94938C"/>
</linearGradient>
</defs>
</svg>
