<svg width="19" height="54" viewBox="0 0 19 54" fill="none" xmlns="http://www.w3.org/2000/svg">
<path d="M15.513 21.5791C15.513 21.5791 9.30316 47.0731 4.07323 51.3217C-1.15625 55.5708 1.45826 47.0726 1.45826 47.0726C1.45826 47.0726 3.41948 31.3843 3.41948 28.4427C3.41948 25.5011 2.37967 19.9922 2.37967 19.9922C2.37967 19.9922 12.4516 22.1607 15.513 21.5791Z" fill="url(#paint0_linear_85_9921)"/>
<path d="M15.8369 2.2979C15.8369 2.2979 19.105 3.93196 18.1247 8.50753C17.1443 13.0831 17.471 15.698 17.471 15.698C17.471 15.698 16.8172 23.5421 11.2612 23.8688C5.70521 24.1954 2.10992 20.9273 1.78282 18.9661C1.45619 17.005 1.45618 11.449 1.12909 10.4682C0.801997 9.48742 -0.178371 3.27779 3.09027 2.29744C6.35847 1.31709 8.31965 0.990006 8.31965 0.990006C8.31965 0.990006 11.5883 0.00966027 15.8369 2.2979Z" fill="url(#paint1_linear_85_9921)"/>
<path d="M2.23109 52.4551C2.23109 52.4551 13.0931 25.3689 13.5178 22.5784C13.942 19.7879 18.7045 5.98193 14.7286 5.19527C10.7527 4.40907 8.3061 4.84596 5.94706 4.7584C3.58801 4.67084 2.53912 5.36994 2.80134 6.2437C3.06356 7.11746 2.80136 16.5546 3.84977 19.5257C4.89819 22.4968 3.29312 45.7558 2.59402 47.3287C0.708601 52.4306 1.26978 52.7173 2.23109 52.4551Z" fill="#FCF2D9"/>
<path d="M8.82284 8.12635C8.35238 8.8622 7.54847 12.8617 7.3493 14.1048C7.06394 15.8873 5.91706 26.7735 5.39805 30.4392C4.73024 35.156 4.45712 40.1644 3.70946 44.8881C3.54795 45.9088 1.07903 53.2687 1.38572 53.06C1.48099 53.011 4.09145 47.5788 4.79556 44.3713C5.82313 39.689 6.73186 34.9767 7.81297 30.3316C8.56562 27.097 10.8009 17.8802 11.0549 16.2479C11.3144 14.5784 12.1356 10.1057 11.9664 9.31905C11.7781 8.44392 11.2264 7.69627 10.8149 7.69218C10.2841 7.68719 9.29285 7.3905 8.82284 8.12635Z" fill="white"/>
<defs>
<linearGradient id="paint0_linear_85_9921" x1="2.25361" y1="36.2523" x2="13.8101" y2="36.2941" gradientUnits="userSpaceOnUse">
<stop stop-color="#BFAB8D"/>
<stop offset="0.5078" stop-color="#E7E1D2"/>
<stop offset="1" stop-color="#CCBFA6"/>
</linearGradient>
<linearGradient id="paint1_linear_85_9921" x1="-2.54612" y1="12.2899" x2="21.6206" y2="12.3772" gradientUnits="userSpaceOnUse">
<stop stop-color="#94938C"/>
<stop offset="0.2296" stop-color="#EDEBE1"/>
<stop offset="0.4283" stop-color="#EDEBE1"/>
<stop offset="0.7988" stop-color="#EDEBE1"/>
<stop offset="1" stop-color="#94938C"/>
</linearGradient>
</defs>
</svg>
