<svg width="16" height="66" viewBox="0 0 16 66" fill="none" xmlns="http://www.w3.org/2000/svg">
<path d="M2.31951 24.6992C2.31906 32.2333 0.784296 39.7135 0.434059 47.2421C0.291152 50.3107 0.0547709 53.3785 0.099231 56.4525C0.134164 58.8892 -0.0522785 62.9527 1.46708 65.0278C2.11039 65.9043 4.014 62.0023 4.19592 61.6276C5.3351 59.2816 6.04282 56.7878 6.92295 54.3398C7.89336 51.64 8.88282 48.9234 9.67811 46.1651C10.7393 42.4849 11.344 38.6519 12.02 34.8869C12.1257 34.2971 13.0494 26.7153 13.4323 26.6609C13.4291 26.6609 4.28029 27.967 2.31951 24.6992Z" fill="url(#paint0_linear_85_9888)"/>
<path d="M14.9288 0.660546C14.78 0.524901 14.5174 0.496319 14.031 0.45549C13.287 0.393338 12.514 0.447782 11.7681 0.449143C8.72811 0.455041 5.68809 0.514922 2.64807 0.514922C2.64807 0.514922 -0.293507 1.16865 0.0331329 2.80274C0.359773 4.43683 1.34061 24.701 2.32098 26.0085C3.30136 27.3159 5.58919 31.5649 10.492 30.2575C15.3943 28.95 14.4139 17.5114 14.4139 17.5109C14.2846 15.439 14.8054 13.144 14.9465 11.073C15.1561 7.99809 15.3353 4.89639 15.1593 1.81511C15.1207 1.13961 15.1067 0.823411 14.9288 0.660546Z" fill="url(#paint1_linear_85_9888)"/>
<path d="M13.5612 4.14738C13.5212 4.09339 13.4732 4.04485 13.4155 4.00357C13.2005 3.84932 12.9147 3.85069 12.6502 3.85794C11.2084 3.89696 9.7667 3.93642 8.3254 3.97544C7.03517 4.01037 5.22819 3.72775 3.99739 4.09295C3.11637 4.35472 3.46254 3.95276 3.10913 4.6868C2.86868 5.18629 3.11319 6.43161 3.11365 6.9987C3.11365 9.23892 3.0887 11.4719 3.262 13.7066C3.7506 20.0081 3.48703 26.526 2.9703 32.8891C2.45857 39.1915 1.28401 45.5837 1.23093 51.9052C1.19735 55.8838 -0.304286 61.4354 1.65057 65.1242C3.48611 64.1515 4.13804 60.1334 4.49689 58.2642C4.98821 55.7019 5.18057 53.0892 5.71907 50.536C7.06011 44.1801 8.59805 37.8655 10.3292 31.6044C12.6747 23.1239 13.4292 13.899 13.7458 5.106C13.7581 4.77618 13.7472 4.40007 13.5612 4.14738Z" fill="#FCF2D9"/>
<path d="M10.063 9.24444C10.2767 10.2616 9.77129 15.2111 9.56577 16.7318C9.27089 18.9135 6.90361 32.0413 6.23263 36.5058C5.36929 42.2502 4.51547 48.0027 3.72608 53.7811C3.5555 55.03 2.21535 65.5216 1.98987 65.1763C1.91456 65.0874 1.88281 65.1591 1.88281 64.9236C1.88327 61.1854 2.24667 56.9808 2.596 52.9917C3.10593 47.1689 3.52149 41.38 3.96836 35.5831C4.27958 31.5463 5.08076 20.015 5.35795 18.0193C5.6415 15.9782 6.28119 10.4689 6.69221 9.60374C7.14952 8.6406 7.91213 7.94696 8.30501 8.07853C8.81131 8.2482 9.84932 8.22732 10.063 9.24444Z" fill="white"/>
<defs>
<linearGradient id="paint0_linear_85_9888" x1="12.3514" y1="44.8901" x2="-3.9541" y2="44.949" gradientUnits="userSpaceOnUse">
<stop stop-color="#BFAB8D"/>
<stop offset="0.5078" stop-color="#E7E1D2"/>
<stop offset="1" stop-color="#CCBFA6"/>
</linearGradient>
<linearGradient id="paint1_linear_85_9888" x1="17.4855" y1="15.4416" x2="-2.05753" y2="15.5122" gradientUnits="userSpaceOnUse">
<stop stop-color="#94938C"/>
<stop offset="0.2296" stop-color="#EDEBE1"/>
<stop offset="0.7988" stop-color="#EDEBE1"/>
<stop offset="1" stop-color="#94938C"/>
</linearGradient>
</defs>
</svg>
