<svg width="17" height="64" viewBox="0 0 17 64" fill="none" xmlns="http://www.w3.org/2000/svg">
<path d="M3.14062 23.0352C3.14062 23.0352 11.3118 26.9571 13.5996 23.6889C13.5098 26.9004 13.4545 30.1137 13.4123 33.3261C13.3324 39.4347 13.3002 45.5493 13.4785 51.6565C13.5411 53.8015 13.591 55.9491 13.7961 58.0864C13.9004 59.1752 14.0443 60.2608 14.2498 61.3351C14.3441 61.8296 14.6286 62.4121 14.3995 62.8635C14.0946 63.4637 13.307 63.5998 12.7567 63.3294C11.9823 62.9483 11.4733 62.011 11.089 61.2874C10.1622 59.5417 9.5642 57.6123 9.02342 55.7196C5.7556 44.2799 3.6442 26.5511 3.14062 23.0352Z" fill="url(#paint0_linear_85_9894)"/>
<path d="M1.88064 0.598117C2.65322 0.201607 3.85679 0.44659 4.70332 0.439331C6.27389 0.426175 7.84446 0.430714 9.41458 0.476081C11.1689 0.526893 13.6082 0.326362 15.2305 1.13753C16.7884 1.91648 16.954 3.8623 16.9068 5.39072C16.7199 11.4286 16.3311 17.7828 13.8958 23.3961C13.1827 25.0397 12.1873 26.6983 10.6295 27.6656C8.21555 29.1645 5.45232 28.2957 4.07637 25.8958C2.97488 23.975 2.55117 21.7606 2.32025 19.5884C2.14559 17.9438 2.25491 16.287 2.13832 14.6393C2.01538 12.9031 1.5032 11.2177 1.22329 9.50144C0.780976 6.78757 0.245646 3.95575 1.25685 1.30222C1.3866 0.960148 1.60663 0.738755 1.88064 0.598117Z" fill="url(#paint1_linear_85_9894)"/>
<path d="M3.17252 5.25154C2.68709 6.11804 3.18161 7.84016 3.23424 8.77653C3.36217 11.0562 3.35082 13.3381 3.35082 15.6205C3.35082 17.5432 4.28176 24.9806 4.30444 25.1507C4.32667 25.3208 6.50067 38.3859 6.50067 38.3859C6.50067 38.3859 11.07 61.5447 12.667 63.2486C14.2639 64.9526 12.7999 58.9229 12.534 58.0927C12.2677 57.2625 11.3091 30.249 11.6911 28.2488C12.0731 26.2486 14.6191 19.728 15.0183 14.0917C15.4176 8.45489 14.9294 5.13404 13.7317 4.69716C12.9555 4.41407 11.9905 4.44084 11.1776 4.40182C9.81745 4.3365 8.45146 4.33424 7.09044 4.39866C6.01433 4.44947 3.98731 4.15277 3.24057 5.1472C3.21562 5.18032 3.19294 5.2157 3.17252 5.25154Z" fill="#FCF2D9"/>
<path d="M9.26303 8.27174C9.67495 9.22581 10.1636 14.1771 10.2647 15.7087C10.4094 17.9058 10.6998 31.2418 10.9302 35.7503C11.2265 41.5518 11.1063 47.6532 11.4819 53.4733C11.5631 54.7313 13.4503 63.9743 13.1605 63.6808C13.0688 63.6087 10.8894 56.6807 10.4385 52.702C9.78021 46.8942 9.24307 41.0664 8.52855 35.2962C8.03088 31.2781 6.52291 19.818 6.3977 17.8069C6.26931 15.7504 5.80112 10.2239 6.03158 9.29431C6.28835 8.2595 6.89763 7.42838 7.3091 7.47874C7.83853 7.54406 8.85155 7.31768 9.26303 8.27174Z" fill="white"/>
<defs>
<linearGradient id="paint0_linear_85_9894" x1="15.7799" y1="43.2214" x2="6.54673" y2="43.2548" gradientUnits="userSpaceOnUse">
<stop stop-color="#BFAB8D"/>
<stop offset="0.5078" stop-color="#E7E1D2"/>
<stop offset="1" stop-color="#CCBFA6"/>
</linearGradient>
<linearGradient id="paint1_linear_85_9894" x1="19.6273" y1="14.3379" x2="-2.5654" y2="14.4181" gradientUnits="userSpaceOnUse">
<stop stop-color="#94938C"/>
<stop offset="0.2296" stop-color="#EDEBE1"/>
<stop offset="0.7988" stop-color="#EDEBE1"/>
<stop offset="1" stop-color="#94938C"/>
</linearGradient>
</defs>
</svg>
