<svg width="19" height="67" viewBox="0 0 19 67" fill="none" xmlns="http://www.w3.org/2000/svg">
<path d="M3.02344 27.4652C4.92841 27.4552 6.86288 27.2797 8.76467 27.1272C11.068 26.9426 14.3022 27.0556 16.4054 25.955C16.5978 25.8543 16.6613 25.5118 16.8382 25.3906C17.2406 26.7398 16.8963 28.902 16.8169 30.2834C16.5896 34.2325 16.4149 38.1889 16.453 42.1453C16.4744 44.3292 16.5959 46.4978 16.7924 48.6722C17.0637 51.675 18.0776 54.6065 18.3508 57.6402C18.5422 59.7674 18.51 61.93 18.0949 64.0305C17.9642 64.691 17.7741 66.4036 17.2012 66.5615C16.4453 66.7693 15.3053 65.607 14.9255 65.0948C13.6698 63.4017 13.3477 61.1089 12.7053 59.1473C11.9866 56.9515 11.1446 54.7984 10.2845 52.6549C8.60725 48.4735 6.84336 44.3029 5.76317 39.9165C5.13211 37.3537 4.85128 34.7284 4.25879 32.1561C3.8963 30.5801 3.46894 29.0195 3.02344 27.4652Z" fill="url(#paint0_linear_85_9906)"/>
<path d="M0.832908 8.71367C0.832908 8.71367 -0.14563 3.48382 2.14311 1.85062C4.43185 0.217425 5.41175 0.871607 5.41175 0.871607C6.3581 1.1302 7.30897 1.37246 8.26167 1.60519C9.83044 1.98809 11.524 2.53702 13.1499 2.49483C13.4756 2.48621 13.8023 2.44991 14.1262 2.48258C16.5492 2.72483 16.9426 5.30529 17.3064 7.19572C17.7732 9.61965 18.1021 12.0758 18.2963 14.5369C18.4564 16.5689 18.5345 18.624 18.363 20.6582C18.2387 22.1317 18.0327 23.8149 17.1676 25.0633C15.9585 26.8077 13.7429 27.6002 11.7612 28.0562C9.24613 28.6351 6.60308 28.7712 4.0308 28.6627C2.63215 28.6033 2.24245 25.4866 2.16442 24.4976C1.74932 19.2324 1.3079 13.9721 0.832908 8.71367Z" fill="url(#paint1_linear_85_9906)"/>
<path d="M2.36894 7.18567C2.36894 7.18567 2.14982 4.37928 4.91221 4.64241C7.6746 4.90554 11.3579 6.0896 11.9718 6.13316C12.5856 6.17671 14.1203 5.0371 15.0413 6.22072C15.9622 7.40479 16.8832 13.1487 16.9707 14.815C17.0583 16.4813 17.3214 24.1551 16.532 25.2512C15.7427 26.3472 16.1922 27.3176 16.1922 27.3176C16.1922 27.3176 16.3129 30.9079 16.0938 32.4427C15.8747 33.9775 15.6551 44.4572 15.6551 45.115C15.6551 45.7728 16.3565 50.9909 16.488 51.9554C16.6196 52.9199 17.4525 55.3756 17.5405 56.0334C17.6281 56.6912 18.0228 60.5497 17.6281 61.7338C17.2334 62.9178 17.7157 65.8993 17.0583 66.6447C16.4005 67.3901 14.8657 64.189 14.6466 63.4876C14.4275 62.7862 11.6211 53.9284 11.3579 53.227C11.0948 52.5257 6.40297 39.4147 5.83271 36.2571C5.26245 33.1001 3.99081 26.961 3.99081 26.961C3.99081 26.961 2.10581 7.93105 2.36894 7.18567Z" fill="#FCF2D9"/>
<path d="M9.81741 11.713C10.2842 12.6417 11.06 17.5558 11.2501 19.0787C11.5227 21.2636 12.5889 34.5602 13.0811 39.0479C13.7149 44.8221 13.9494 50.9203 14.663 56.7087C14.8173 57.9599 17.2394 67.0773 16.9327 66.801C16.8375 66.7343 14.2584 59.9452 13.5765 55.9991C12.5811 50.2394 11.706 44.4528 10.6567 38.7339C9.92584 34.7516 7.75367 23.3986 7.51142 21.3984C7.26371 19.3528 6.47433 13.8629 6.65036 12.9216C6.84634 11.8736 7.40616 11.0085 7.8199 11.0348C8.35296 11.0697 9.35059 10.7843 9.81741 11.713Z" fill="white"/>
<defs>
<linearGradient id="paint0_linear_85_9906" x1="7.65137" y1="45.9507" x2="16.7332" y2="45.9873" gradientUnits="userSpaceOnUse">
<stop stop-color="#BFAB8D"/>
<stop offset="0.5078" stop-color="#E7E1D2"/>
<stop offset="1" stop-color="#CCBFA6"/>
</linearGradient>
<linearGradient id="paint1_linear_85_9906" x1="-3.8388" y1="14.6825" x2="22.4886" y2="14.7886" gradientUnits="userSpaceOnUse">
<stop stop-color="#94938C"/>
<stop offset="0.2296" stop-color="#EDEBE1"/>
<stop offset="0.7988" stop-color="#EDEBE1"/>
<stop offset="1" stop-color="#94938C"/>
</linearGradient>
</defs>
</svg>
