<svg width="20" height="51" viewBox="0 0 20 51" fill="none" xmlns="http://www.w3.org/2000/svg">
<path d="M4.02344 20.7309C4.82646 25.9872 6.24241 31.2394 8.08573 36.2193C10.1119 41.6924 12.6434 47.1659 17.565 50.5957C17.6843 50.6787 17.8123 50.7649 17.9574 50.7722C18.1053 50.7794 18.2446 50.7028 18.363 50.6138C19.0408 50.1071 19.2904 49.1816 19.2205 48.3382C19.1506 47.4944 18.814 46.7 18.52 45.9061C16.7261 41.0636 16.2883 35.7343 15.777 30.6328C15.4531 27.4031 14.685 23.4444 15.4463 20.2247C16.2638 16.769 4.5302 20.1171 4.02344 20.7309Z" fill="url(#paint0_linear_85_9926)"/>
<path d="M14.1619 0.749089C13.4351 0.421584 12.677 0.413865 11.6644 0.662442C11.3903 0.729576 11.0982 0.833909 10.9494 1.07341C10.2525 2.19292 15.972 4.34257 16.6557 3.40315C17.0604 2.8443 15.5347 1.72888 15.2153 1.45173C14.8546 1.13828 14.5121 0.906944 14.1619 0.749089Z" fill="#D8D6D0"/>
<path d="M4.22668 0.935803C3.88915 1.03743 3.63235 1.1463 3.52438 1.24112C2.97816 1.7211 2.41062 2.23193 2.16609 2.91651C2.06809 3.19098 2.05768 3.55892 2.3072 3.70954C2.39158 3.76035 2.49228 3.77577 2.59027 3.78393C3.73489 3.87784 5.05917 3.13383 6.0273 2.60258C6.3857 2.40614 7.92681 1.69706 7.85649 1.1395C7.74988 0.294316 5.45386 0.566971 4.22668 0.935803Z" fill="#D8D6D0"/>
<path d="M2.21204 3.04236C2.21204 3.04236 -0.0757592 4.67648 1.23169 8.92553C1.88541 14.8087 3.84656 20.6919 3.84656 20.6919C3.84656 20.6919 4.50029 21.6722 9.0759 21.6722C13.6515 21.6722 14.959 21.0185 15.6127 19.711C16.2664 18.4036 17.9005 5.98349 17.9005 5.98349C17.9005 5.98349 17.5738 3.04191 16.2664 2.71526C14.959 2.38862 13.6515 2.06153 13.3249 2.06153C12.9982 2.06153 10.0567 0.100327 8.74928 0.427422C7.44138 0.754516 4.17276 3.369 2.21204 3.04236Z" fill="url(#paint1_linear_85_9926)"/>
<path d="M3.087 9.575C3.087 9.575 2.54259 6.97186 4.85631 6.45105C7.17002 5.93024 14.4287 6.06043 14.6556 6.14754C14.8824 6.23419 15.4268 6.27775 15.8351 6.92831C16.8059 8.47532 16.3164 10.1394 15.714 11.7149C14.4723 14.9614 13.9955 18.5567 13.7532 21.9914C13.2206 29.5472 15.2558 36.9076 17.0509 44.1944C17.2242 44.8989 17.559 45.7219 17.559 46.4536C17.559 47.0611 18.1488 49.0137 17.9673 49.1003C17.7859 49.187 16.2434 48.5795 14.9731 46.2368C13.7028 43.894 7.94125 29.5332 7.35148 27.3637C6.42373 23.9508 5.57174 20.5197 4.7125 17.0909C4.10685 14.6751 3.20314 12.0702 3.087 9.575Z" fill="#FCF2D9"/>
<path d="M9.43757 9.38515C9.89532 10.033 10.7927 13.6283 11.0249 14.7475C11.3584 16.353 12.1664 25.9516 12.7906 29.2556C13.5945 33.5073 14.7418 38.2704 15.6183 42.5248C15.8079 43.4444 18.3566 50.0184 18.0695 49.8419C17.981 49.8015 14.9251 45.1111 14.1516 42.2299C13.0229 38.0245 11.8797 33.7419 10.7038 29.5727C9.88489 26.6693 8.05208 18.3173 7.75311 16.8466C7.44734 15.3427 6.51504 11.3187 6.63571 10.5983C6.76954 9.79618 7.2391 9.0948 7.61247 9.07393C8.09335 9.04762 8.98027 8.73686 9.43757 9.38515Z" fill="white"/>
<defs>
<linearGradient id="paint0_linear_85_9926" x1="7.25177" y1="34.6985" x2="17.6186" y2="34.736" gradientUnits="userSpaceOnUse">
<stop stop-color="#BFAB8D"/>
<stop offset="0.5078" stop-color="#E7E1D2"/>
<stop offset="1" stop-color="#CCBFA6"/>
</linearGradient>
<linearGradient id="paint1_linear_85_9926" x1="-2.80612" y1="10.9886" x2="21.3255" y2="11.0758" gradientUnits="userSpaceOnUse">
<stop stop-color="#94938C"/>
<stop offset="0.2296" stop-color="#EDEBE1"/>
<stop offset="0.7988" stop-color="#EDEBE1"/>
<stop offset="1" stop-color="#94938C"/>
</linearGradient>
</defs>
</svg>
