<svg width="29" height="51" viewBox="0 0 29 51" fill="none" xmlns="http://www.w3.org/2000/svg">
<path d="M9.1802 0.567398C7.86728 0.656768 6.85378 1.04192 5.77586 1.78229C5.48416 1.9828 5.20787 2.22459 5.26549 2.5113C5.53406 3.8505 15.4095 2.77443 15.3147 1.59992C15.2557 0.902196 12.0442 0.715291 11.3251 0.637716C10.5135 0.549707 9.81216 0.5243 9.1802 0.567398Z" fill="#D8D6D0"/>
<path d="M19.3434 45.9372C20.0188 48.1012 18.4238 48.984 16.9422 47.7019C14.0779 45.2231 12.4203 41.2467 10.9623 37.6042C10.2873 35.9174 7.38898 29.9862 8.91412 28.5526C10.4275 27.1299 16.3598 29.8387 16.6637 33.645C16.8288 35.7097 16.8978 37.7802 17.253 39.8458C17.6395 42.0905 18.6815 43.8167 19.3434 45.9372Z" fill="url(#paint0_linear_85_9940)"/>
<path d="M2.56827 20.6649C2.75609 21.4393 2.92259 22.2273 2.95933 22.3798C3.27463 23.6877 3.5482 25.006 3.76777 26.3335C3.94696 27.4182 4.09032 28.5092 4.19693 29.6035C4.30036 30.6642 4.21008 31.8319 4.41242 32.8717C4.61112 33.8965 4.97676 34.9717 5.32199 35.9616C6.35861 38.9345 7.92872 41.7009 9.79326 44.2296C10.7287 45.4981 11.7404 46.7098 12.8083 47.869C13.4643 48.5812 14.8588 50.6898 16.0179 49.8138C16.453 49.4849 16.6276 48.8983 16.5995 48.3535C16.5714 47.8086 16.3718 47.2896 16.1826 46.7779C14.7254 42.8296 13.34 37.9409 14.1593 33.7051C14.2446 33.2637 14.3779 32.8077 14.6946 32.4888C15.1097 32.071 15.7743 31.9771 16.3423 32.1336C16.9103 32.2901 17.3948 32.6617 17.8176 33.0718C19.2688 34.4804 20.3 36.4606 21.1869 38.2617C21.8583 39.6254 22.3515 41.0785 22.635 42.5724C22.9063 44.0024 22.6758 45.7018 23.2502 47.0437C23.5718 47.7959 24.289 48.4406 25.1065 48.417C25.743 48.3988 26.3065 47.9892 26.7261 47.5101C28.2722 45.7449 28.5684 42.9322 28.6587 40.6815C28.7721 37.8452 28.3683 35.0189 27.9287 32.2248C27.3304 28.4208 26.5614 24.6427 25.7026 20.8895C25.6695 20.7439 25.2023 18.3762 25.1079 18.3789C25.1079 18.3789 2.23348 19.0136 2.02344 19.0195C2.14003 19.0172 2.36639 19.8334 2.56827 20.6649Z" fill="url(#paint1_linear_85_9940)"/>
<path d="M20.4658 0.393286C19.2799 0.32569 18.3146 0.584732 17.2353 1.18674C16.9431 1.34961 16.6583 1.55557 16.6642 1.84456C16.6909 3.19648 25.6748 3.30762 25.7768 2.13853C25.8349 1.44352 22.9986 0.878258 22.3694 0.7163C21.6585 0.534381 21.0365 0.42595 20.4658 0.393286Z" fill="#D8D6D0"/>
<path d="M4.5237 1.44316C3.57054 1.53843 2.67272 1.90545 1.89921 2.71208C0.902499 3.75145 0.403464 5.19322 0.280066 6.62773C0.015576 9.70544 0.542286 13.3657 1.31126 16.3472C1.55533 17.2936 1.57984 19.2825 2.2295 20.0129C4.25105 22.2853 8.69293 21.1797 11.3809 20.9933C14.4595 20.7796 17.7741 20.6775 20.5324 20.0129C22.3584 19.9212 25.7115 20.3255 26.2659 17.9106C26.901 15.1427 27.2921 12.3122 27.4227 9.47543C27.5207 7.35588 27.8301 2.11867 24.7833 1.70992C24.3373 1.65003 23.5847 2.1527 23.1378 2.25432C22.2055 2.46573 21.2959 2.43716 20.3704 2.19127C19.2322 1.88912 18.1751 1.34472 17.084 0.901479C16.8467 0.805301 16.6 0.712297 16.3441 0.719102C15.7611 0.73498 15.3329 1.23992 14.8665 1.59015C12.9034 3.06549 9.38477 2.30014 7.21759 1.73351C6.30798 1.49578 5.39293 1.35651 4.5237 1.44316Z" fill="url(#paint2_linear_85_9940)"/>
<path d="M7.04644 35.5448C7.68202 37.35 8.7935 38.8675 9.80108 40.5261C10.1726 41.1377 13.1704 46.8966 13.879 45.6613C14.0156 45.4231 13.9779 45.1355 13.9312 44.8696C13.1541 40.4295 11.1516 35.8189 13.2702 31.3992C13.5188 30.8811 13.8341 30.378 14.2928 29.9992C15.4723 29.0251 17.2034 29.4625 18.3385 30.2696C21.2338 32.3288 22.328 35.6383 23.473 38.6874C24.0292 40.1687 24.555 41.9017 25.5594 43.1901C26.753 44.7217 27.1486 42.7664 27.2833 41.7216C27.673 38.7006 27.693 35.6365 27.3037 32.6141C27.0392 30.5622 26.7149 28.4962 26.0276 26.5222C25.3965 24.7098 24.1376 23.0485 23.933 21.1254C23.5737 17.7442 27.2833 10.6274 24.5114 8.26017C23.4372 7.78381 22.1969 7.6899 21.0391 7.49664C19.0634 7.16727 17.0388 7.12372 15.0381 7.23396C11.9977 7.40136 7.34722 7.30337 5.19189 9.51366C3.44167 11.3084 3.83362 13.878 4.07315 16.1949C4.39661 19.3252 5.3103 22.681 5.62333 25.8123C5.92274 28.8047 6.04158 31.9604 6.83866 34.8811C6.90081 35.1075 6.97023 35.3284 7.04644 35.5448Z" fill="#FCF2D9"/>
<path d="M26.1345 48.1784C26.1345 48.1784 26.0401 40.071 26.0188 36.9003C25.9975 33.7292 21.3455 16.3943 19.2351 13.5825C17.1251 10.7703 7.74367 14.65 7.57944 16.8761C7.41521 19.1022 9.52113 31.6043 9.52113 31.6043C9.52113 31.6043 10.0991 37.1834 11.3385 42.0816C12.367 46.145 14.6004 49.2481 15.2914 49.8574C15.2914 49.8574 13.0861 46.126 12.127 41.608C11.2074 37.2759 10.9407 32.527 11.0305 31.7408C11.2138 30.1344 12.4809 27.4678 15.5803 26.2674C18.6793 25.067 21.8677 28.2177 22.5323 29.3772C23.1974 30.5368 24.5221 38.7817 24.7258 40.2021L26.1345 48.1784Z" fill="white"/>
<defs>
<linearGradient id="paint0_linear_85_9940" x1="11.5807" y1="27.644" x2="19.3427" y2="71.9361" gradientUnits="userSpaceOnUse">
<stop offset="0.1599" stop-color="#BFAB8D"/>
<stop offset="0.5078" stop-color="#E7E1D2"/>
<stop offset="0.7297" stop-color="#CCBFA6"/>
</linearGradient>
<linearGradient id="paint1_linear_85_9940" x1="4.60994" y1="34.1452" x2="27.1366" y2="34.2266" gradientUnits="userSpaceOnUse">
<stop stop-color="#BFAB8D"/>
<stop offset="0.5078" stop-color="#E7E1D2"/>
<stop offset="1" stop-color="#CCBFA6"/>
</linearGradient>
<linearGradient id="paint2_linear_85_9940" x1="-5.49498" y1="11.0117" x2="33.3508" y2="11.152" gradientUnits="userSpaceOnUse">
<stop stop-color="#94938C"/>
<stop offset="0.2296" stop-color="#EDEBE1"/>
<stop offset="0.7988" stop-color="#EDEBE1"/>
<stop offset="1" stop-color="#94938C"/>
</linearGradient>
</defs>
</svg>
