<svg width="27" height="49" viewBox="0 0 27 49" fill="none" xmlns="http://www.w3.org/2000/svg">
<path d="M15.9483 42.4368C16.1502 44.3939 14.8803 44.839 13.9788 43.4752C12.2361 40.839 11.5637 37.1647 10.9921 33.8107C10.7271 32.2578 9.41681 26.6968 10.709 25.7726C11.9911 24.8558 15.9211 28.2651 15.6375 31.5397C15.4837 33.3162 15.2596 35.0796 15.2432 36.8929C15.2255 38.8632 15.75 40.5191 15.9483 42.4368Z" fill="url(#paint0_linear_85_9956)"/>
<path d="M4.32031 20.1755C5.00578 22.134 5.5583 24.1782 5.87722 26.2288C6.0918 27.6088 6.06005 28.8356 5.85046 30.2016C5.49797 32.4971 5.4726 34.8929 5.57149 37.2084C5.72574 40.8201 7.45825 43.5403 8.84325 46.789C9.35225 47.9826 10.5295 48.6091 11.5965 47.5108C12.9502 46.118 12.585 43.1905 12.639 41.4239C12.7125 39.0059 12.7614 36.571 13.245 34.1916C13.4532 33.1672 13.7459 32.146 14.2807 31.2477C14.8124 30.3545 15.795 29.9189 16.7363 30.5622C17.9898 31.4187 18.2724 33.2951 18.7052 34.6307C19.1112 35.8833 19.4791 37.1481 19.8343 38.4161C20.3361 40.2067 20.8002 42.0087 21.2783 43.8057C21.4766 44.5497 22.1235 46.2972 23.2173 45.5378C23.5865 45.281 23.7689 44.8364 23.9227 44.4141C24.4276 43.0249 24.8309 41.6018 25.2333 40.18C25.7727 38.275 26.269 36.3755 26.3851 34.3916C26.5435 31.6869 25.4778 29.0143 24.957 26.3962C24.4035 23.6139 24.0579 20.7902 23.9254 17.9566C23.9168 17.7702 23.9023 17.5674 23.7762 17.4294C23.6061 17.2434 23.3143 17.258 23.0644 17.2865C19.9927 17.6386 16.9146 17.9249 13.8461 18.3087C11.7697 18.5668 9.69066 18.8399 7.63243 19.2192C6.72557 19.3861 5.02348 19.4728 4.32031 20.1755Z" fill="url(#paint1_linear_85_9956)"/>
<path d="M1.91961 15.9298C1.81708 14.7031 1.8452 13.4601 1.61157 12.2483C1.24683 10.3569 0.291878 8.70921 0.427069 6.70534C0.752797 1.88099 7.49465 1.50808 10.8844 2.84414C12.2939 3.39944 12.8723 2.87499 14.0573 2.12643C15.3411 1.31526 16.8559 0.890625 18.3734 0.890625C20.1087 0.890625 22.0236 1.38422 23.5057 2.2961C25.6982 3.64532 25.6964 5.85879 25.847 8.18204C26.0135 10.7516 25.9545 13.3988 25.1048 15.8559C24.8449 16.6081 24.5006 17.3471 23.9589 17.9301C23.189 18.759 22.2082 18.8683 21.168 19.1078C19.748 19.4349 18.3122 19.7117 16.8809 19.9825C14.0741 20.5138 11.241 20.9461 8.3852 21.0895C7.03102 21.1575 5.62873 21.0201 4.42608 20.3935C2.68448 19.4866 2.0743 17.7808 1.91961 15.9298Z" fill="url(#paint2_linear_85_9956)"/>
<path d="M7.81289 36.2819C7.68223 35.0057 8.05108 33.7541 8.12231 32.3817C8.22121 30.4704 8.41993 28.5342 8.33917 26.6197C8.24481 24.3904 7.85417 22.1733 7.17956 20.0461C6.48953 17.8717 5.47103 15.8338 4.90576 13.6131C4.38222 11.5576 3.92133 8.52846 6.40881 7.61296C8.1246 6.98146 11.4944 8.17459 13.2624 8.08522C15.3638 7.97952 17.5804 5.72979 18.3435 5.36323C22.2905 3.5032 23.4945 12.2236 22.6783 15.059C21.8622 17.8944 23.1937 25.4556 23.4945 27.5606C23.7953 29.6656 25.1273 33.1457 24.9553 34.3915C24.7834 35.6372 22.8072 43.6281 22.8072 43.6281C22.8072 43.6281 21.6045 39.7189 21.2175 36.0669C20.831 32.4153 19.9718 28.9352 17.1363 28.2048C14.8916 27.6269 12.0479 30.4555 11.7662 32.7587C11.2958 36.6072 11.0952 42.3683 10.8579 46.2385C10.2196 46.0185 9.43522 43.9035 9.08862 43.3804C7.9871 41.72 8.02022 38.3039 7.81289 36.2819Z" fill="#FCF2D9"/>
<path d="M22.9529 45.8227C22.9529 45.8227 22.8195 37.884 23.123 35.0704C23.4265 32.2568 21.063 16.4149 19.478 13.707C17.8929 10.9995 9.18154 13.486 8.80955 15.4427C8.43756 17.3993 9.03456 28.6982 9.03456 28.6982C9.03456 28.6982 8.9801 33.7035 9.58164 38.1721C10.0807 41.8794 10.3805 47.435 10.9312 48.0452C10.9312 48.0452 10.7198 41.9357 10.3288 37.8323C9.95362 33.8977 10.1995 29.6605 10.3592 28.9723C10.6849 27.5668 12.0794 25.3312 14.9487 24.5817C17.818 23.8323 20.3245 26.9498 20.7963 28.0454C21.2681 29.141 21.6047 36.5856 21.641 37.8659L22.9529 45.8227Z" fill="white"/>
<defs>
<linearGradient id="paint0_linear_85_9956" x1="12.7564" y1="25.5057" x2="10.6469" y2="64.3111" gradientUnits="userSpaceOnUse">
<stop offset="0.1599" stop-color="#BFAB8D"/>
<stop offset="0.5078" stop-color="#E7E1D2"/>
<stop offset="0.7297" stop-color="#CCBFA6"/>
</linearGradient>
<linearGradient id="paint1_linear_85_9956" x1="6.8471" y1="34.067" x2="24.3408" y2="30.6631" gradientUnits="userSpaceOnUse">
<stop stop-color="#BFAB8D"/>
<stop offset="0.5078" stop-color="#E7E1D2"/>
<stop offset="1" stop-color="#CCBFA6"/>
</linearGradient>
<linearGradient id="paint2_linear_85_9956" x1="-3.65831" y1="14.0137" x2="29.6396" y2="7.5344" gradientUnits="userSpaceOnUse">
<stop stop-color="#94938C"/>
<stop offset="0.2114" stop-color="#EDEBE1"/>
<stop offset="0.847" stop-color="#EDEBE1"/>
<stop offset="1" stop-color="#94938C"/>
</linearGradient>
</defs>
</svg>
