<svg width="19" height="55" viewBox="0 0 19 55" fill="none" xmlns="http://www.w3.org/2000/svg">
<path d="M9.19106 54.2334C9.19106 54.2334 3.89229 55.3291 2.01458 52.5765C0.136873 49.8239 8.55956 52.5729 9.19106 54.2334Z" fill="#D8D6D0"/>
<path d="M9.96875 54.4683C9.96875 54.4683 15.6119 54.8498 17.016 51.1907C18.4201 47.5316 10.3013 52.3502 9.96875 54.4683Z" fill="#D8D6D0"/>
<path d="M12.2216 33.9373C12.3046 33.9781 12.3835 34.0244 12.4579 34.0765C13.8956 35.0809 15.1074 36.7082 16.0215 38.1804C17.4106 40.417 18.4023 42.9752 18.1351 45.6445C17.9527 47.4692 17.7481 49.5674 16.8363 51.206C16.3037 52.1632 15.1064 52.6019 14.1315 52.9413C13.2963 53.2321 12.4534 53.5052 11.6345 53.8404C10.8783 54.1498 10.1361 54.6775 9.28408 54.6094C8.30462 54.5309 7.62049 53.7633 6.83701 53.2652C5.60757 52.484 4.13587 52.0834 2.6796 52.1537C2.42373 52.166 2.16151 52.1918 1.91607 52.117C1.55813 52.0081 1.29637 51.7041 1.08542 51.3956C0.124552 49.992 0.149955 48.6319 0.141789 46.9996C0.133169 45.341 0.165379 43.6725 0.481585 42.0393C1.04459 39.129 2.96723 36.7214 3.978 33.9745C4.03607 33.8161 4.09413 33.6542 4.20074 33.5235C4.38312 33.2999 4.68163 33.2032 4.96925 33.1801C5.50821 33.1365 6.05125 33.22 6.58522 33.2772C7.5978 33.3861 8.58635 33.499 9.60437 33.5689C10.4119 33.6251 11.4703 33.5662 12.2216 33.9373Z" fill="url(#paint0_linear_85_9832)"/>
<path d="M14.3632 35.8512C14.3269 35.8807 14.2834 35.9038 14.2303 35.9183C13.9635 35.9932 13.1415 35.5908 12.8507 35.5146C11.8867 35.2623 10.9117 35.0514 9.93091 34.8758C8.89156 34.6898 7.84177 34.5133 6.78337 34.5047C6.22309 34.5002 5.65964 34.5392 5.11116 34.658C4.62392 34.7637 4.09903 35.0976 3.63765 35.1394C3.30149 33.8287 3.64264 32.3044 3.72067 30.9733C3.80732 29.4935 3.94342 28.0168 4.12806 26.546C4.47421 23.7859 5.16333 21.1287 5.66554 18.4036C6.15459 15.7528 6.29069 12.9505 6.23217 10.2511C6.20449 8.98178 6.12782 7.71014 5.9822 6.44894C5.85835 5.37239 5.54803 4.40879 5.65827 3.29322C5.77033 2.15905 6.30249 0.441471 7.80004 0.906027C8.9274 1.25581 9.62922 2.49568 10.1981 3.43841C11.2819 5.23357 12.0708 7.18933 12.7976 9.15598C13.5235 11.1199 14.1927 13.1179 14.5715 15.1811C14.9022 16.9809 14.8618 18.7424 14.8305 20.5594C14.7815 23.4438 14.7125 26.3278 14.6413 29.2117C14.5955 31.0727 14.7017 33.0139 14.5551 34.9012C14.5288 35.2542 14.5805 35.6734 14.3632 35.8512Z" fill="url(#paint1_linear_85_9832)"/>
<path d="M14.7712 39.3683C14.7182 39.1705 14.6583 38.975 14.5921 38.7817C14.0332 37.1576 13.041 35.7249 12.699 34.0259C12.4717 32.8977 12.5479 31.724 12.6082 30.569C12.8287 26.3721 12.9925 22.0129 12.5815 17.8278C12.1732 13.6704 11.1125 9.64184 10.0301 5.65639C9.68442 4.39067 9.17407 1.3688 8.06352 0.93827C7.96145 0.898801 7.69923 0.861142 7.40934 0.820312C7.32179 6.53196 7.1426 14.0719 6.94027 19.774C6.90398 20.7957 5.56343 29.4167 5.59972 29.9071C5.63601 30.3975 5.16511 33.5437 5.12882 33.9111C5.09253 34.2791 2.55614 38.8144 2.70131 41.7151C2.84603 44.6158 3.08512 46.7018 4.28821 47.865C5.4913 49.0286 7.7015 49.6824 8.82475 49.5191C9.948 49.3557 12.2303 49.6824 12.8101 48.4162C13.4892 46.9323 14.4437 45.8239 14.8348 44.1517C15.1995 42.5911 15.1868 40.9139 14.7712 39.3683Z" fill="#FCF2D9"/>
<path d="M7.87004 42.4975C7.57337 41.6242 7.49172 37.2104 7.51032 35.8485C7.53753 33.895 9.09755 25.3439 9.21322 21.3398C9.36156 16.1875 8.54594 7.89947 8.48424 4.27921C8.42255 0.658945 8.57724 0.745144 8.70108 0.788242C8.82492 0.831341 9.22819 2.1243 9.35203 4.5809C9.47587 7.03751 10.9402 14.8247 11.1643 19.9788C11.3198 23.5682 10.7215 33.0916 10.6898 34.8795C10.6576 36.7078 11.0694 41.0158 10.8 41.822C10.5002 42.7189 9.90228 43.4111 9.5421 43.3372C9.07804 43.2415 8.16671 43.3703 7.87004 42.4975Z" fill="white"/>
<defs>
<linearGradient id="paint0_linear_85_9832" x1="-5.80794" y1="44.297" x2="24.4283" y2="43.3657" gradientUnits="userSpaceOnUse">
<stop stop-color="#94938C"/>
<stop offset="0.2666" stop-color="#EDEBE1"/>
<stop offset="0.7117" stop-color="#EDEBE1"/>
<stop offset="1" stop-color="#94938C"/>
</linearGradient>
<linearGradient id="paint1_linear_85_9832" x1="0.728246" y1="19.4265" x2="15.0877" y2="17.9185" gradientUnits="userSpaceOnUse">
<stop stop-color="#BFAB8D"/>
<stop offset="0.5078" stop-color="#E7E1D2"/>
<stop offset="1" stop-color="#CCBFA6"/>
</linearGradient>
</defs>
</svg>
