<svg width="27" height="75" viewBox="0 0 27 75" fill="none" xmlns="http://www.w3.org/2000/svg">
<path d="M1.02396 69.7746C1.02396 69.7746 -1.26387 42.9738 10.829 39.0514C10.829 39.0514 24.5564 36.7636 25.8634 60.6228C25.9006 61.3033 26.0063 61.9802 26.0354 62.6634C26.098 64.1541 26.044 65.6608 25.7868 67.1324C25.5164 68.6781 25.011 70.2754 23.9603 71.4763C23.4509 72.0583 22.8153 72.5202 22.0939 72.8033C21.4688 73.0487 20.7806 73.1408 20.1246 73.2755C19.3171 73.4416 18.5077 73.5976 17.6938 73.7283C17.2547 73.7986 16.8137 73.8621 16.3723 73.9152C14.7496 74.1107 13.1137 74.1724 11.48 74.2341C8.82654 74.3344 6.07642 74.4664 3.5976 73.3313C2.13136 72.6604 1.02396 71.4559 1.02396 69.7746Z" fill="url(#paint0_linear_85_9789)"/>
<path d="M15.0741 0.364754C14.615 0.31349 14.1632 0.483618 13.7327 0.651021C13.5952 0.704554 13.4713 0.792108 13.3584 0.902803C11.8055 2.42849 11.0315 5.68219 10.2498 7.6679C7.85992 13.7398 6.04344 20.0457 4.99093 26.4892C4.46695 29.6962 4.13213 32.9349 4.00465 36.1822C3.94023 37.8155 3.92799 39.4505 3.96927 41.0846C4.00284 42.422 3.78236 44.3669 4.3381 45.58C5.02223 44.8069 5.50948 43.8774 6.23353 43.1338C8.00375 41.3155 10.2925 40.0153 12.877 40.0139C13.9681 40.0135 15.0401 40.2349 16.0595 40.6073C16.4733 40.7584 16.8779 40.934 17.2722 41.1299C18.4222 41.7016 19.8064 43.4269 21.0299 43.5199C21.2086 41.1277 20.6039 38.4429 20.3762 36.0439C20.3762 29.9538 19.173 23.5222 18.2616 17.5134C17.9876 15.706 17.5752 13.9226 17.6133 12.0898C17.6528 10.1975 17.8651 8.30756 17.7367 6.41395C17.6215 4.71905 17.4092 0.624706 15.0741 0.364754Z" fill="url(#paint1_linear_85_9789)"/>
<path d="M1.07865 69.5481C1.07865 69.5481 -1.20923 42.7473 10.8839 38.8249C10.8839 38.8249 24.6116 36.537 25.9186 60.3963C25.9558 61.0768 26.0615 61.7537 26.0906 62.4369C26.1532 63.9276 26.0992 65.4343 25.8419 66.906C25.5716 68.4516 25.0662 70.049 24.0154 71.2498C23.506 71.8319 22.8704 72.2937 22.149 72.5768C21.5239 72.8223 20.8357 72.9143 20.1796 73.0491C19.3721 73.2151 18.5628 73.3712 17.7489 73.5018C17.3097 73.5722 16.8687 73.6357 16.4273 73.6888C15.1652 73.8407 13.8949 73.912 12.6242 73.965C12.2612 73.98 11.4909 71.1822 11.128 71.1958C8.47442 71.2961 9.43303 64.9815 6.95416 63.8464C6.5876 63.6786 2.94189 72.736 2.63158 72.5024C1.70155 71.8019 1.07865 70.8093 1.07865 69.5481Z" fill="url(#paint2_linear_85_9789)"/>
<path d="M20.2515 67.0897C21.6751 65.9678 22.0685 60.2965 21.9773 58.5467C21.8462 56.037 18.5494 40.8542 17.9959 35.7096C17.2836 29.0897 16.6149 22.4621 16.2325 15.8137C16.1499 14.3769 15.8473 3.20854 14.9839 2.12973C14.7685 1.91378 13.7168 0.945657 13.2582 2.47497C12.3127 5.62613 11.4312 13.48 11.0524 16.5522C10.2304 23.2125 9.02861 29.8215 7.95477 36.4441C7.20712 41.0556 4.69922 54.2169 4.85029 56.5138C5.00454 58.8629 4.89339 65.1857 6.18771 66.2214C7.62812 67.3737 10.4976 68.2633 12.2261 68.1685C14.4518 68.046 18.8274 68.2116 20.2515 67.0897Z" fill="#FCF2D9"/>
<path d="M16.4897 59.4471C17.0369 58.4186 17.1879 53.2191 17.1526 51.615C17.1022 49.314 15.8355 35.3945 15.6232 30.6777C15.3496 24.6085 15.0929 18.5321 14.9459 12.4366C14.9141 11.1191 14.7984 0.0636991 14.3642 0.39397C14.2245 0.476991 14.1869 0.398506 14.1406 0.642579C13.4074 4.5219 13.172 8.9302 12.9556 13.1135C12.6398 19.2199 12.178 25.2791 11.7656 31.3505C11.4784 35.5782 10.5148 47.6449 10.5728 49.7504C10.6323 51.9039 10.5896 57.7009 11.0869 58.6505C11.6403 59.7071 12.7428 60.5227 13.4065 60.4356C14.2617 60.3236 15.9426 60.4756 16.4897 59.4471Z" fill="white"/>
<defs>
<linearGradient id="paint0_linear_85_9789" x1="-4.05085" y1="56.6379" x2="30.9703" y2="56.6558" gradientUnits="userSpaceOnUse">
<stop stop-color="#94938C"/>
<stop offset="0.2296" stop-color="#EDEBE1"/>
<stop offset="0.7876" stop-color="#EDEBE1"/>
<stop offset="1" stop-color="#94938C"/>
</linearGradient>
<linearGradient id="paint1_linear_85_9789" x1="7.67207" y1="22.9329" x2="21.1531" y2="23.1739" gradientUnits="userSpaceOnUse">
<stop stop-color="#BFAB8D"/>
<stop offset="0.5078" stop-color="#E7E1D2"/>
<stop offset="1" stop-color="#CCBFA6"/>
</linearGradient>
<linearGradient id="paint2_linear_85_9789" x1="-3.99641" y1="56.3574" x2="31.0255" y2="56.3753" gradientUnits="userSpaceOnUse">
<stop stop-color="#94938C"/>
<stop offset="0.2296" stop-color="#EDEBE1"/>
<stop offset="0.7876" stop-color="#EDEBE1"/>
<stop offset="1" stop-color="#94938C"/>
</linearGradient>
</defs>
</svg>
