<svg>

	<symbol version="1.1" id="arrow" xmlns="http://www.w3.org/2000/svg" xmlns:xlink="http://www.w3.org/1999/xlink" x="0px" y="0px"
	 viewBox="0 0 7.5 4.3" style="enable-background:new 0 0 7.5 4.3;" xml:space="preserve">
		<style type="text/css">
			.st0{fill:#060518;}
		</style>
		<path class="st0" d="M4.5,4l3-3.3L6.8,0l-3,3.2L0.8,0L0,0.7L3,4C3.4,4.4,4.1,4.4,4.5,4z"/>
	</symbol>
	

	<symbol version="1.1" id="phone" xmlns="http://www.w3.org/2000/svg" xmlns:xlink="http://www.w3.org/1999/xlink" x="0px" y="0px"
	 viewBox="0 0 16 16" style="enable-background:new 0 0 16 16;" xml:space="preserve">
		<style type="text/css">
			.st0{fill:#D73F34;}
		</style>
		<path class="st0" d="M12.6,9.9c-0.3-0.3-0.7-0.5-1.1-0.5c-0.4,0-0.8,0.2-1.2,0.5L9.3,11c-0.1,0-0.2-0.1-0.3-0.1
			c-0.1-0.1-0.2-0.1-0.3-0.2c-1-0.6-1.9-1.5-2.8-2.5C5.5,7.6,5.2,7.1,5,6.7c0.3-0.3,0.5-0.5,0.8-0.8C5.9,5.8,6,5.7,6.1,5.6
			c0.7-0.7,0.7-1.6,0-2.3L5.1,2.4C5,2.3,4.9,2.2,4.8,2.1C4.6,1.8,4.4,1.6,4.2,1.4C3.9,1.1,3.5,0.9,3,0.9c-0.4,0-0.8,0.2-1.1,0.5
			c0,0,0,0,0,0L0.7,2.6C0.3,3,0.1,3.5,0,4.2c-0.1,1,0.2,1.9,0.4,2.5C1,8.1,1.8,9.5,3,11c1.5,1.8,3.3,3.2,5.3,4.1
			c0.8,0.4,1.8,0.8,3,0.9c0.1,0,0.1,0,0.2,0c0.8,0,1.4-0.3,1.9-0.8c0,0,0,0,0,0c0.2-0.2,0.4-0.4,0.6-0.6c0.1-0.1,0.3-0.3,0.4-0.4
			c0.3-0.3,0.5-0.8,0.5-1.2c0-0.4-0.2-0.8-0.5-1.2L12.6,9.9z M13.8,13.5C13.8,13.5,13.8,13.5,13.8,13.5c-0.1,0.1-0.3,0.3-0.4,0.4
			c-0.2,0.2-0.4,0.4-0.7,0.7c-0.3,0.4-0.7,0.5-1.3,0.5c-0.1,0-0.1,0-0.2,0c-1-0.1-1.9-0.5-2.6-0.8c-1.9-0.9-3.6-2.2-5-3.9
			C2.6,9,1.8,7.7,1.3,6.3C1,5.5,0.9,4.8,0.9,4.2c0-0.4,0.2-0.7,0.5-1l1.2-1.2c0.2-0.2,0.3-0.2,0.5-0.2c0.2,0,0.4,0.1,0.5,0.2
			c0,0,0,0,0,0C3.8,2.3,4,2.5,4.2,2.7C4.3,2.8,4.4,2.9,4.5,3l0.9,0.9c0.4,0.4,0.4,0.7,0,1C5.3,5.1,5.2,5.2,5.1,5.3
			C4.8,5.6,4.6,5.8,4.3,6.1c0,0,0,0,0,0C4,6.4,4,6.7,4.1,6.9c0,0,0,0,0,0C4.3,7.5,4.7,8,5.2,8.7l0,0c0.9,1.1,1.9,2,3,2.7
			c0.1,0.1,0.3,0.2,0.4,0.2c0.1,0.1,0.2,0.1,0.3,0.2c0,0,0,0,0,0c0.1,0.1,0.2,0.1,0.3,0.1c0.3,0,0.5-0.2,0.5-0.2l1.2-1.2
			c0.1-0.1,0.3-0.3,0.5-0.3c0.2,0,0.4,0.1,0.5,0.2c0,0,0,0,0,0l1.9,1.9C14.2,12.8,14.2,13.1,13.8,13.5z"/>
		<path class="st0" d="M8.6,3.8C9.5,4,10.3,4.4,11,5c0.6,0.6,1.1,1.4,1.2,2.3c0,0.2,0.2,0.4,0.4,0.4c0,0,0.1,0,0.1,0
			c0.2,0,0.4-0.3,0.4-0.5c-0.2-1.1-0.7-2-1.5-2.8c-0.8-0.8-1.7-1.3-2.8-1.5C8.5,2.9,8.3,3,8.3,3.3C8.2,3.5,8.4,3.8,8.6,3.8z"/>
		<path class="st0" d="M16,7.1c-0.3-1.8-1.1-3.4-2.4-4.6C12.3,1.1,10.7,0.3,8.9,0C8.7,0,8.4,0.1,8.4,0.4c0,0.2,0.1,0.5,0.4,0.5
			c1.6,0.3,3,1,4.2,2.2c1.1,1.1,1.9,2.6,2.2,4.2c0,0.2,0.2,0.4,0.4,0.4c0,0,0.1,0,0.1,0C15.8,7.5,16,7.3,16,7.1z"/>
	</symbol>


	<symbol version="1.1" id="logo" xmlns="http://www.w3.org/2000/svg" xmlns:xlink="http://www.w3.org/1999/xlink" x="0px" y="0px"
	 viewBox="0 0 131 30" style="enable-background:new 0 0 131 30;" xml:space="preserve">
		<style type="text/css">
			.st0{clip-path:url(#SVGID_2_);}
			.st1{fill:#D73F34;}
		</style>
		<g>
			<defs>
				<rect id="SVGID_1_" y="0" width="131" height="30"/>
			</defs>
			<clipPath id="SVGID_2_">
				<use xlink:href="#SVGID_1_"  style="overflow:visible;"/>
			</clipPath>
			<g class="st0">
				<path class="st1" d="M19.8,8.5h2.8v21h-2.8v-4.1c-2,3.1-4.9,4.6-8.7,4.6c-1.5,0-2.9-0.2-4.3-0.8c-1.4-0.5-2.6-1.4-3.6-2.4
					C1.1,24.7,0,22.1,0,19s1.1-5.7,3.2-7.8c1-1,2.2-1.8,3.6-2.4S9.6,8,11.1,8c3.8,0,6.7,1.5,8.7,4.6V8.5z M5.3,24.9
					c1.6,1.5,3.8,2.4,6,2.4c2.3,0,4.4-0.9,6-2.4c1.6-1.6,2.5-3.7,2.5-5.9c0-2.2-0.9-4.3-2.5-5.9c-1.6-1.5-3.8-2.4-6-2.4
					c-2.3,0-4.4,0.9-6,2.4c-1.6,1.6-2.5,3.7-2.5,5.9S3.7,23.3,5.3,24.9z"/>
				<path class="st1" d="M30.9,14c0,0.5,0.1,0.9,0.3,1.3c0.2,0.4,0.6,0.7,1,1c1,0.6,2,1,3.1,1.3c1.2,0.3,2.5,0.6,3.7,1
					c1.2,0.4,2.3,1,3.1,1.9c0.9,0.9,1.3,2,1.3,3.5c0,0.8-0.2,1.7-0.5,2.4c-0.4,0.8-0.9,1.4-1.6,1.9C39.8,29.5,38,30,35.7,30
					c-2.1,0-3.8-0.4-5.3-1.3c-1.4-0.8-2.4-2-3-3.5l2.4-1.4c0.4,1.1,1.2,2,2.2,2.6c1.1,0.6,2.4,1,3.7,0.9c1.4,0,2.6-0.3,3.5-0.8
					c0.9-0.5,1.4-1.4,1.4-2.5c0-1-0.4-1.7-1.3-2.3c-1-0.6-2-1-3.1-1.3c-1.2-0.3-2.5-0.6-3.7-1c-1.2-0.4-2.3-1-3.1-1.9
					c-0.9-0.9-1.3-2-1.3-3.5c0-1.7,0.7-3.1,2.1-4.3C31.5,8.6,33.3,8,35.4,8C37,8,38.6,8.4,40,9.1c1.3,0.7,2.3,1.8,2.9,3.1l-2.4,1.3
					c-0.8-2-2.6-2.9-5.2-2.9c-1.1,0-2.2,0.3-3.2,0.9c-0.4,0.3-0.8,0.6-1,1.1C31,13,30.9,13.5,30.9,14z"/>
				<path class="st1" d="M58.7,11.2h-6.2v12.7c0,1.1,0.2,2,0.7,2.5c0.5,0.5,1.1,0.7,2.1,0.8c0.9,0,2.1,0,3.4-0.1v2.4
					c-3,0.4-5.3,0.2-6.8-0.6c-1.5-0.9-2.3-2.5-2.3-5V11.2h-4.5V8.5h4.5v-5l2.8-0.8v5.9h6.2L58.7,11.2z"/>
				<path class="st1" d="M66.3,3.5C66,3.8,65.6,4,65.1,4c-0.5,0-1-0.1-1.4-0.3c-0.4-0.3-0.7-0.6-0.8-1.1c-0.1-0.4-0.1-0.9,0.1-1.4
					c0.2-0.4,0.5-0.8,0.9-1C64.3,0,64.8-0.1,65.3,0c0.5,0.1,0.9,0.3,1.2,0.7c0.3,0.4,0.5,0.8,0.5,1.3c0,0.3,0,0.5-0.1,0.8
					C66.7,3,66.5,3.3,66.3,3.5z"/>
				<path class="st1" d="M66.3,8.5h-2.8v21h2.8V8.5z"/>
				<path class="st1" d="M74.2,11c2.3-2.2,4.9-3.2,7.8-3c3,0.2,5.6,1.4,7.7,3.5c0.2,0.2,0.5,0.5,0.9,1l-13.4,13
					c1.7,1.3,3.6,1.9,5.6,1.7s3.8-1.1,5.4-2.7c1.2-1.1,1.9-2.3,2.3-3.6c0.4-1.2,0.4-2.5,0-3.7l2.8-0.7c0.4,1.7,0.3,3.5-0.2,5.2
					c-0.6,1.8-1.6,3.5-3,4.8c-2.4,2.3-5.1,3.5-8.1,3.5s-5.7-1.1-8-3.4c-2.3-2.2-3.4-4.8-3.5-7.7C70.7,15.9,71.9,13.3,74.2,11z
					M76.1,12.9c-1.6,1.5-2.4,3.3-2.6,5.3c-0.1,2,0.5,3.8,1.8,5.4l11.3-11.1c-1.8-1.4-3.7-2-5.6-1.8C79.2,10.8,77.5,11.6,76.1,12.9
					L76.1,12.9z"/>
				<path class="st1" d="M100.3,12c1.3-2.5,3.6-3.8,6.8-3.8v2.7c-2,0-3.6,0.6-4.9,1.7c-1.3,1.1-1.9,2.9-1.9,5.3v11.7h-2.8v-21h2.8V12z
					"/>
				<path class="st1" d="M127.7,26.8c-2.2,2.1-4.9,3.2-8,3.2s-5.8-1.1-8-3.2c-2.2-2.1-3.3-4.7-3.3-7.8c0-3.1,1.1-5.7,3.3-7.8
					c2.2-2.1,4.9-3.2,8-3.2s5.8,1.1,8,3.2c2.2,2.1,3.3,4.7,3.3,7.8C131,22.1,129.9,24.7,127.7,26.8z M113.7,24.9
					c1.6,1.5,3.8,2.4,6,2.4c2.3,0,4.4-0.9,6-2.4c1.6-1.6,2.5-3.7,2.5-5.9s-0.9-4.3-2.5-5.9c-1.6-1.5-3.8-2.4-6-2.4
					c-2.3,0-4.4,0.9-6,2.4c-1.6,1.6-2.5,3.7-2.5,5.9S112.1,23.3,113.7,24.9z"/>
			</g>
		</g>
	</symbol>

	<symbol version="1.1" id="user" xmlns="http://www.w3.org/2000/svg" xmlns:xlink="http://www.w3.org/1999/xlink" x="0px" y="0px"
	 viewBox="0 0 15.1 18" style="enable-background:new 0 0 15.1 18;" xml:space="preserve">
		<style type="text/css">
			.st0{fill:#D73F34;}
		</style>
		<path class="st0" d="M7.5,0C5.4,0,3.7,1.7,3.7,3.8v1.9c0,2.1,1.7,3.8,3.8,3.8c2.1,0,3.8-1.7,3.8-3.8V3.8C11.3,1.7,9.6,0,7.5,0z
			M9.4,5.7c0,1-0.9,1.9-1.9,1.9c-1,0-1.9-0.8-1.9-1.9V3.8c0-1,0.9-1.9,1.9-1.9c1,0,1.9,0.8,1.9,1.9V5.7z"/>
		<path class="st0" d="M12.7,11.7c0,0-0.1,0-0.1,0c-0.1,0-0.3-0.1-0.4-0.1c-0.4-0.2-0.9-0.3-1.3-0.4c-0.3-0.1-0.7-0.2-1-0.3
			c-0.9-0.2-1.7-0.4-2.3-0.4c-0.6,0-1.3,0.1-2.2,0.4C5,10.9,4.6,11,4.3,11.1c-0.5,0.1-0.9,0.3-1.3,0.4c-0.1,0.1-0.3,0.1-0.4,0.1
			c-0.1,0-0.1,0-0.2,0.1c-1.3,0.5-2.4,2-2.4,3.4V18h1.9v-2.8c0-0.6,0.5-1.4,1.2-1.6c0.1,0,0.1,0,0.2-0.1c0.1,0,0.2-0.1,0.4-0.1
			C4,13.2,4.4,13,4.8,12.9c0.3-0.1,0.7-0.2,1-0.3c0.8-0.2,1.4-0.3,1.8-0.3c0.4,0,1,0.1,1.8,0.3c0.3,0.1,0.6,0.2,0.9,0.3
			c0.4,0.1,0.9,0.3,1.3,0.4c0.1,0.1,0.3,0.1,0.4,0.1c0.1,0,0.1,0,0.1,0.1c0.6,0.2,1.2,1,1.2,1.6V18h1.9v-2.8
			C15.1,13.7,14.1,12.2,12.7,11.7z"/>
	</symbol>

	<symbol version="1.1" id="email" xmlns="http://www.w3.org/2000/svg" xmlns:xlink="http://www.w3.org/1999/xlink" x="0px" y="0px"
	 viewBox="0 0 16 11.2" style="enable-background:new 0 0 16 11.2;" xml:space="preserve">
		<style type="text/css">
			.st0{fill:#D73F34;}
		</style>
		<path class="st0" d="M2.4,0h11.2C14.9,0,16,1.1,16,2.4v6.4c0,1.3-1.1,2.4-2.4,2.4H2.4C1.1,11.2,0,10.1,0,8.8V2.4C0,1.1,1.1,0,2.4,0z
			M1.6,8.8c0,0.4,0.4,0.8,0.8,0.8h11.2c0.4,0,0.8-0.4,0.8-0.8V2.4c0-0.4-0.4-0.8-0.8-0.8H2.4C2,1.6,1.6,2,1.6,2.4V8.8z"/>
		<path class="st0" d="M3.6,2.5l4.4,3l4.4-3l0.9,1.3L8,7.4L2.8,3.8L3.6,2.5z"/>
	</symbol>

	<symbol version="1.1" id="insta" xmlns="http://www.w3.org/2000/svg" xmlns:xlink="http://www.w3.org/1999/xlink" x="0px" y="0px"
	 viewBox="0 0 19 19" style="enable-background:new 0 0 19 19;" xml:space="preserve">
		<style type="text/css">
			.st0{clip-path:url(#SVGID_2_);}
			.st1{fill:#D73F34;}
		</style>
		<g>
			<defs>
				<rect id="SVGID_1_" width="19" height="19"/>
			</defs>
			<clipPath id="SVGID_2_">
				<use xlink:href="#SVGID_1_"  style="overflow:visible;"/>
			</clipPath>
			<g class="st0">
				<path class="st1" d="M19,5.6c0-1-0.2-1.7-0.4-2.3c-0.2-0.6-0.6-1.2-1.1-1.7c-0.5-0.5-1.1-0.9-1.7-1.1c-0.6-0.2-1.3-0.4-2.3-0.4
					C12.4,0,12.1,0,9.5,0C7,0,6.6,0,5.6,0.1c-1,0-1.7,0.2-2.3,0.4C2.7,0.7,2.1,1.1,1.6,1.6C1.1,2.1,0.8,2.6,0.5,3.3
					C0.3,3.9,0.1,4.6,0.1,5.6C0,6.6,0,6.9,0,9.5c0,2.6,0,2.9,0.1,3.9c0,1,0.2,1.7,0.4,2.3c0.2,0.6,0.6,1.2,1.1,1.7
					c0.5,0.5,1.1,0.9,1.7,1.1c0.6,0.2,1.3,0.4,2.3,0.4C6.6,19,7,19,9.5,19c2.6,0,2.9,0,3.9-0.1c1,0,1.7-0.2,2.3-0.4
					C17,18,18,17,18.5,15.7c0.2-0.6,0.4-1.3,0.4-2.3c0-1,0.1-1.3,0.1-3.9C19,6.9,19,6.6,19,5.6z M17.3,13.3c0,0.9-0.2,1.4-0.3,1.8
					c-0.3,0.8-1,1.5-1.8,1.8c-0.3,0.1-0.8,0.3-1.8,0.3c-1,0-1.3,0.1-3.8,0.1c-2.5,0-2.8,0-3.8-0.1c-0.9,0-1.4-0.2-1.8-0.3
					c-0.4-0.2-0.8-0.4-1.1-0.7c-0.3-0.3-0.6-0.7-0.7-1.1c-0.1-0.3-0.3-0.8-0.3-1.8c0-1-0.1-1.3-0.1-3.8c0-2.5,0-2.8,0.1-3.8
					c0-0.9,0.2-1.4,0.3-1.8c0.2-0.4,0.4-0.8,0.7-1.1c0.3-0.3,0.7-0.6,1.1-0.7C4.3,2,4.8,1.8,5.7,1.8c1,0,1.3-0.1,3.8-0.1
					c2.5,0,2.8,0,3.8,0.1c0.9,0,1.4,0.2,1.8,0.3c0.4,0.2,0.8,0.4,1.1,0.7c0.3,0.3,0.6,0.7,0.7,1.1c0.1,0.3,0.3,0.8,0.3,1.8
					c0,1,0.1,1.3,0.1,3.8C17.3,12,17.3,12.3,17.3,13.3z"/>
				<path class="st1" d="M9.5,4.6c-2.7,0-4.9,2.2-4.9,4.9c0,2.7,2.2,4.9,4.9,4.9c2.7,0,4.9-2.2,4.9-4.9C14.4,6.8,12.2,4.6,9.5,4.6z
					M9.5,12.7c-1.7,0-3.2-1.4-3.2-3.2c0-1.7,1.4-3.2,3.2-3.2c1.7,0,3.2,1.4,3.2,3.2C12.7,11.3,11.3,12.7,9.5,12.7z"/>
				<path class="st1" d="M15.7,4.4c0,0.6-0.5,1.1-1.1,1.1c-0.6,0-1.1-0.5-1.1-1.1c0-0.6,0.5-1.1,1.1-1.1C15.2,3.3,15.7,3.8,15.7,4.4z"
					/>
			</g>
		</g>
	</symbol>


	<symbol version="1.1" id="facebook" xmlns="http://www.w3.org/2000/svg" xmlns:xlink="http://www.w3.org/1999/xlink" x="0px" y="0px"
	 viewBox="0 0 10.8 19" style="enable-background:new 0 0 10.8 19;" xml:space="preserve">
		<style type="text/css">
			.st0{fill:#FFFFFF;}
		</style>
		<path class="st0" d="M6.7,19h-3c-0.5,0-0.9-0.4-0.9-0.9v-6.9H0.9c-0.5,0-0.9-0.4-0.9-0.9V7.4c0-0.5,0.4-0.9,0.9-0.9h1.8V5
			c0-1.5,0.5-2.7,1.3-3.6C4.9,0.5,6.1,0,7.6,0l2.3,0c0.5,0,0.9,0.4,0.9,0.9v2.7c0,0.5-0.4,0.9-0.9,0.9l-1.6,0c-0.5,0-0.6,0.1-0.6,0.1
			c0,0-0.1,0.2-0.1,0.6v1.2h2.2c0.2,0,0.3,0,0.5,0.1c0.3,0.2,0.5,0.5,0.5,0.8l0,2.9c0,0.5-0.4,0.9-0.9,0.9H7.6v6.9
			C7.6,18.6,7.2,19,6.7,19z M3.8,17.9h2.7v-7.2c0-0.3,0.3-0.6,0.6-0.6h2.5l0-2.6H7.1c-0.3,0-0.6-0.3-0.6-0.6V5.3c0-0.4,0-0.9,0.4-1.3
			c0.4-0.4,1-0.5,1.5-0.5l1.4,0V1.1l-2.1,0C5.3,1.1,3.8,2.6,3.8,5v2c0,0.3-0.3,0.6-0.6,0.6H1.1v2.6h2.1c0.3,0,0.6,0.3,0.6,0.6V17.9z
			M9.9,1.1L9.9,1.1L9.9,1.1z"/>
	</symbol>


	<symbol id="play" width="74" height="74" viewBox="0 0 74 74" fill="none" xmlns="http://www.w3.org/2000/svg">
		<path d="M36.831 14.3604C24.4213 14.3604 14.3613 24.4203 14.3613 36.83C14.3613 49.2397 24.4213 59.2997 36.831 59.2997C49.2407 59.2997 59.3007 49.2397 59.3007 36.83C59.3007 24.4203 49.2407 14.3604 36.831 14.3604ZM30.7629 46.1216V27.5384L46.8498 36.83L30.7629 46.1216Z" fill="#D73F34"/>
		<circle cx="37" cy="37" r="36.5" stroke="#D73F34"/>
	</symbol>


	<symbol version="1.1" id="password" xmlns="http://www.w3.org/2000/svg" xmlns:xlink="http://www.w3.org/1999/xlink" x="0px" y="0px"
	 viewBox="0 0 14.7 21" style="enable-background:new 0 0 14.7 21;" xml:space="preserve">
		<style type="text/css">
			.st0{fill:#D73F34;}
		</style>
		<path class="st0" d="M13.1,8.4H1.6C0.7,8.4,0,9.1,0,10v9.5C0,20.3,0.7,21,1.6,21h11.6c0.9,0,1.6-0.7,1.6-1.6V10
			C14.7,9.1,14,8.4,13.1,8.4z M12.6,18.9H2.1v-8.4h10.5V18.9z"/>
		<path class="st0" d="M7.5,0H7.2C4.4,0,2.1,2.3,2.1,5.1v4h2.1v-4c0-1.6,1.3-3,3-3h0.4c1.6,0,3,1.3,3,3v1.2h2.1V5.1
			C12.6,2.3,10.3,0,7.5,0z"/>
	</symbol>

	<symbol version="1.1" id="close" xmlns="http://www.w3.org/2000/svg" xmlns:xlink="http://www.w3.org/1999/xlink" x="0px" y="0px"
	 viewBox="0 0 16 16" style="enable-background:new 0 0 16 16;" xml:space="preserve">
		<style type="text/css">
			.st0{fill:#FFFFFF;}
		</style>
		<path class="st0" d="M14.6,0L0,14.6L1.4,16L16,1.4L14.6,0z"/>
		<path class="st0" d="M1.4,0L0,1.4L14.6,16l1.4-1.4L1.4,0z"/>
	</symbol>

	<symbol version="1.1" id="search" xmlns="http://www.w3.org/2000/svg" xmlns:xlink="http://www.w3.org/1999/xlink" x="0px" y="0px"
	 viewBox="0 0 16 16" style="enable-background:new 0 0 16 16;" xml:space="preserve">
		<style type="text/css">
			.st0{clip-path:url(#SVGID_2_);}
			.st1{fill:#333333;}
		</style>
		<g>
			<defs>
				<rect id="SVGID_1_" width="16" height="16"/>
			</defs>
			<clipPath id="SVGID_2_">
				<use xlink:href="#SVGID_1_"  style="overflow:visible;"/>
			</clipPath>
			<g class="st0">
				<path class="st1" d="M15.9,15.4L11,10.6c1-1.1,1.6-2.6,1.6-4.2C12.7,2.8,9.8,0,6.3,0C2.8,0,0,2.8,0,6.3c0,3.5,2.8,6.3,6.3,6.3
					c1.6,0,3.1-0.6,4.2-1.6l4.9,4.9c0.1,0.1,0.2,0.1,0.2,0.1c0.1,0,0.2,0,0.2-0.1C16,15.8,16,15.6,15.9,15.4z M6.3,12
					c-3.1,0-5.7-2.5-5.7-5.7c0-3.1,2.5-5.7,5.7-5.7c3.1,0,5.7,2.5,5.7,5.7C12,9.5,9.5,12,6.3,12z"/>
			</g>
		</g>
	</symbol>

	<symbol version="1.1" id="plus" xmlns="http://www.w3.org/2000/svg" xmlns:xlink="http://www.w3.org/1999/xlink" x="0px" y="0px"
	 viewBox="0 0 24.4 25.9" style="enable-background:new 0 0 24.4 25.9;" xml:space="preserve">
		<style type="text/css">
			.st0{fill:#D73F34;}
		</style>
		<path class="st0" d="M15.6,9.5h8.8v6.4h-8.8v10H8.8v-10H0V9.5h8.8V0h6.7V9.5z"/>
	</symbol>


	<symbol version="1.1" id="bucket" xmlns="http://www.w3.org/2000/svg" xmlns:xlink="http://www.w3.org/1999/xlink" x="0px" y="0px"
	 viewBox="0 0 104.8 129" style="enable-background:new 0 0 104.8 129;" xml:space="preserve">
		<style type="text/css">
			.st0{fill:#D73F34;}
		</style>
		<path class="st0" d="M70.2,46.7c-1.7,0-3,1.4-3,3v57.1c0,1.7,1.4,3,3,3s3-1.4,3-3V49.8C73.2,48.1,71.9,46.7,70.2,46.7z"/>
		<path class="st0" d="M34.6,46.7c-1.7,0-3,1.4-3,3v57.1c0,1.7,1.4,3,3,3c1.7,0,3-1.4,3-3V49.8C37.6,48.1,36.2,46.7,34.6,46.7z"/>
		<path class="st0" d="M8.6,38.4v74.4c0,4.4,1.6,8.5,4.4,11.5c2.8,3,6.7,4.7,10.8,4.7H81c4.1,0,8-1.7,10.8-4.7c2.8-3,4.4-7.1,4.4-11.5
			V38.4c5.6-1.5,9.2-6.9,8.5-12.6c-0.8-5.7-5.6-10-11.4-10H77.8v-3.8c0-3.2-1.2-6.2-3.5-8.5C72,1.2,69,0,65.8,0H39
			c-3.2,0-6.2,1.2-8.5,3.5C28.2,5.7,27,8.8,27,11.9v3.8H11.5c-5.8,0-10.7,4.3-11.4,10C-0.7,31.5,3,36.9,8.6,38.4z M81,123H23.8
			c-5.2,0-9.2-4.4-9.2-10.1V38.7h75.5v74.2C90.1,118.5,86.1,123,81,123z M33.1,11.9c0-1.6,0.6-3.1,1.7-4.2C35.9,6.6,37.4,6,39,6h26.8
			c1.6,0,3.1,0.6,4.2,1.7c1.1,1.1,1.7,2.6,1.7,4.2v3.8H33.1V11.9z M11.5,21.8h81.7c3,0,5.4,2.4,5.4,5.4s-2.4,5.4-5.4,5.4H11.5
			c-3,0-5.4-2.4-5.4-5.4S8.5,21.8,11.5,21.8z"/>
		<path class="st0" d="M52.4,46.7c-1.7,0-3,1.4-3,3v57.1c0,1.7,1.4,3,3,3c1.7,0,3-1.4,3-3V49.8C55.4,48.1,54.1,46.7,52.4,46.7z"/>
	</symbol>


	<symbol version="1.1" id="view" xmlns="http://www.w3.org/2000/svg" xmlns:xlink="http://www.w3.org/1999/xlink" x="0px" y="0px"
	 viewBox="0 0 19 11.3" style="enable-background:new 0 0 19 11.3;" xml:space="preserve">
		<style type="text/css">
			.st0{fill:#D73F34;}
		</style>
		<path class="st0" d="M9.5,0C5.9,0,2.6,2,0.1,5.2C0,5.5,0,5.8,0.1,6.1c2.4,3.2,5.7,5.2,9.4,5.2c3.6,0,6.9-2,9.4-5.2
			c0.2-0.3,0.2-0.6,0-0.9C16.4,2,13.1,0,9.5,0z M9.8,9.7C7.4,9.8,5.4,7.8,5.5,5.4c0.1-2,1.7-3.6,3.7-3.7c2.4-0.2,4.4,1.8,4.2,4.2
			C13.4,7.9,11.7,9.5,9.8,9.7z M9.6,7.8c-1.3,0.1-2.4-1-2.3-2.3c0.1-1.1,0.9-1.9,2-2c1.3-0.1,2.4,1,2.3,2.3C11.6,6.9,10.7,7.7,9.6,7.8
			z"/>
	</symbol>


	<symbol version="1.1" id="check" xmlns="http://www.w3.org/2000/svg" xmlns:xlink="http://www.w3.org/1999/xlink" x="0px" y="0px"
	 viewBox="0 0 15.1 11" style="enable-background:new 0 0 15.1 11;" xml:space="preserve">
		<style type="text/css">
			.st0{fill:#D73F34;}
		</style>
		<path class="st0" d="M14.7,2.6l-8,8c-0.6,0.6-1.5,0.6-2.1,0L0.4,6.4c-0.6-0.6-0.6-1.5,0-2.1C1,3.7,2,3.7,2.6,4.3l3,3l6.9-6.9
			c0.6-0.6,1.5-0.6,2.1,0C15.3,1,15.3,2,14.7,2.6z"/>
	</symbol>


	<symbol version="1.1" id="file" xmlns="http://www.w3.org/2000/svg" xmlns:xlink="http://www.w3.org/1999/xlink" x="0px" y="0px"
	 viewBox="0 0 18 18" style="enable-background:new 0 0 18 18;" xml:space="preserve">
		<style type="text/css">
			.st0{clip-path:url(#SVGID_2_);}
			.st1{fill:#333333;}
		</style>
		<g>
			<defs>
				<rect id="SVGID_1_" x="0" width="18" height="18"/>
			</defs>
			<clipPath id="SVGID_2_">
				<use xlink:href="#SVGID_1_"  style="overflow:visible;"/>
			</clipPath>
			<g class="st0">
				<path class="st1" d="M16.47,1.89c-1.97-1.93-5.13-1.93-7.1,0L1.1,10.16c-1.5,1.53-1.47,3.98,0.06,5.48c1.51,1.47,3.91,1.47,5.42,0
					l7.49-7.49c0.97-0.97,0.97-2.55,0-3.53c-0.97-0.97-2.55-0.97-3.53,0l-7.16,7.16c-0.25,0.26-0.24,0.67,0.02,0.92
					c0.25,0.24,0.65,0.24,0.91,0l7.16-7.16c0.48-0.46,1.23-0.44,1.68,0.04c0.44,0.46,0.44,1.19,0,1.65l-7.49,7.49
					c-1.01,1-2.64,0.99-3.64-0.03c-0.99-1-0.99-2.61,0-3.61l8.27-8.27c1.47-1.47,3.86-1.47,5.34,0c1.47,1.47,1.47,3.86,0,5.34
					l-8.27,8.27c-0.27,0.23-0.31,0.65-0.07,0.92c0.23,0.27,0.65,0.31,0.92,0.07c0.03-0.02,0.05-0.05,0.07-0.07l8.27-8.27
					C18.51,7.06,18.48,3.85,16.47,1.89z"/>
			</g>
		</g>
	</symbol>


	<symbol version="1.1" id="date" xmlns="http://www.w3.org/2000/svg" xmlns:xlink="http://www.w3.org/1999/xlink" x="0px" y="0px"
	 viewBox="0 0 13 12.56" style="enable-background:new 0 0 13 12.56;" xml:space="preserve">
		<style type="text/css">
			.st0{fill:#333333;}
		</style>
		<path class="st0" d="M12.81,7.59l-0.63-0.63c-0.25-0.25-0.68-0.25-0.93,0l-3.39,3.39l-0.47,1.71l-0.11,0.11
			c-0.09,0.09-0.09,0.22,0,0.31l0,0l0,0c0.04,0.04,0.1,0.06,0.15,0.06c0.06,0,0.11-0.02,0.16-0.06l0.11-0.11l1.71-0.47l3.39-3.39
			C13.06,8.27,13.06,7.85,12.81,7.59z M8.37,10.47l2.26-2.26l0.93,0.93L9.3,11.4L8.37,10.47z M8.17,10.89l0.71,0.71L7.9,11.87
			L8.17,10.89z M12.49,8.21l-0.63,0.63L10.93,7.9l0.63-0.63c0.08-0.08,0.22-0.08,0.31,0l0.63,0.63C12.58,7.99,12.58,8.13,12.49,8.21z"
			/>
		<path class="st0" d="M7.93,7.05h1.98V4.63H7.93H7.49H5.95H5.51H3.97H3.53H1.54v1.98v0.44v1.54v0.44v1.98h1.98h0.44h1.98V9.03V8.59
			V7.05h1.54H7.93z M7.93,5.07h1.54v1.54H7.93V5.07z M3.97,5.07h1.54v1.54H3.97V5.07z M1.98,5.07h1.54v1.54H1.98V5.07z M1.98,7.05
			h1.54v1.54H1.98V7.05z M3.53,10.58H1.98V9.03h1.54V10.58z M5.51,10.58H3.97V9.03h1.54V10.58z M5.51,8.59H3.97V7.05h1.54V8.59z
			M5.95,6.61V5.07h1.54v1.54H5.95z"/>
		<path class="st0" d="M5.73,12.12H0.44V3.53h10.58v2.86c0,0.12,0.1,0.22,0.22,0.22c0.12,0,0.22-0.1,0.22-0.22V3.31V1.1
			c0-0.12-0.1-0.22-0.22-0.22h-1.1V0.22C10.14,0.1,10.04,0,9.92,0H8.37C8.25,0,8.15,0.1,8.15,0.22v0.66H3.31V0.22
			C3.31,0.1,3.21,0,3.08,0H1.54C1.42,0,1.32,0.1,1.32,0.22v0.66h-1.1C0.1,0.88,0,0.98,0,1.1v2.2v9.03c0,0.12,0.1,0.22,0.22,0.22h5.51
			c0.12,0,0.22-0.1,0.22-0.22C5.95,12.22,5.85,12.12,5.73,12.12z M8.59,0.44h1.1V1.1v0.66h-1.1V1.1V0.44z M1.76,0.44h1.1V1.1v0.66
			h-1.1V1.1V0.44z M0.44,1.32h0.88v0.66c0,0.12,0.1,0.22,0.22,0.22h1.54c0.12,0,0.22-0.1,0.22-0.22V1.32h4.85v0.66
			c0,0.12,0.1,0.22,0.22,0.22h1.54c0.12,0,0.22-0.1,0.22-0.22V1.32h0.88v1.76H0.44V1.32z"/>
	</symbol>


	<symbol version="1.1" id="pdf" xmlns="http://www.w3.org/2000/svg" xmlns:xlink="http://www.w3.org/1999/xlink" x="0px" y="0px"
	 viewBox="0 0 20 24" style="enable-background:new 0 0 20 24;" xml:space="preserve">
		<style type="text/css">
			.st0{fill:#D73F34;}
		</style>
		<path class="st0" d="M15,14c0,0.27-0.11,0.52-0.29,0.71C14.52,14.89,14.27,15,14,15H6c-0.27,0-0.52-0.11-0.71-0.29
			C5.11,14.52,5,14.27,5,14s0.11-0.52,0.29-0.71C5.48,13.11,5.73,13,6,13h8c0.27,0,0.52,0.11,0.71,0.29C14.89,13.48,15,13.73,15,14z
			M11,17H6c-0.27,0-0.52,0.11-0.71,0.29C5.11,17.48,5,17.73,5,18c0,0.27,0.11,0.52,0.29,0.71C5.48,18.89,5.73,19,6,19h5
			c0.27,0,0.52-0.11,0.71-0.29C11.89,18.52,12,18.27,12,18c0-0.27-0.11-0.52-0.29-0.71C11.52,17.11,11.27,17,11,17z M20,10.48V19
			c0,1.33-0.53,2.6-1.47,3.53C17.6,23.47,16.33,24,15,24H5c-1.33,0-2.6-0.53-3.53-1.47C0.53,21.6,0,20.33,0,19V5
			c0-1.33,0.53-2.6,1.47-3.53C2.4,0.53,3.67,0,5,0h4.52c0.92,0,1.83,0.18,2.68,0.53c0.85,0.35,1.62,0.87,2.27,1.52l3.48,3.49
			c0.65,0.65,1.17,1.42,1.52,2.27C19.82,8.65,20,9.57,20,10.48z M13.05,3.46C12.74,3.16,12.38,2.9,12,2.68V7
			c0,0.27,0.11,0.52,0.29,0.71C12.48,7.89,12.73,8,13,8h4.32c-0.21-0.38-0.48-0.74-0.78-1.05L13.05,3.46z M18,10.48
			c0-0.16-0.03-0.32-0.05-0.48H13c-0.8,0-1.56-0.32-2.12-0.88C10.32,8.56,10,7.8,10,7V2.05C9.84,2.03,9.68,2,9.52,2H5
			C4.2,2,3.44,2.32,2.88,2.88C2.32,3.44,2,4.2,2,5v14c0,0.8,0.32,1.56,0.88,2.12C3.44,21.68,4.2,22,5,22h10c0.8,0,1.56-0.32,2.12-0.88
			C17.68,20.56,18,19.8,18,19V10.48z"/>
	</symbol>


	<symbol version="1.1" id="delete" xmlns="http://www.w3.org/2000/svg" xmlns:xlink="http://www.w3.org/1999/xlink" x="0px" y="0px"
	 viewBox="0 0 17 17" style="enable-background:new 0 0 17 17;" xml:space="preserve">
		<style type="text/css">
			.st0{clip-path:url(#SVGID_2_);}
			.st1{fill:#FFFFFF;}
		</style>
		<g>
			<g>
				<defs>
					<rect id="SVGID_1_" width="17" height="17"/>
				</defs>
				<clipPath id="SVGID_2_">
					<use xlink:href="#SVGID_1_"  style="overflow:visible;"/>
				</clipPath>
				<g class="st0">
					<path class="st1" d="M10.8,6.2c-0.2,0-0.4,0.2-0.4,0.4v7.5c0,0.2,0.2,0.4,0.4,0.4s0.4-0.2,0.4-0.4V6.6
						C11.2,6.3,11.1,6.2,10.8,6.2z"/>
					<path class="st1" d="M6.1,6.2c-0.2,0-0.4,0.2-0.4,0.4v7.5c0,0.2,0.2,0.4,0.4,0.4s0.4-0.2,0.4-0.4V6.6C6.5,6.3,6.4,6.2,6.1,6.2z"
						/>
					<path class="st1" d="M2.7,5.1v9.8c0,0.6,0.2,1.1,0.6,1.5S4.2,17,4.7,17h7.5c0.5,0,1.1-0.2,1.4-0.6c0.4-0.4,0.6-0.9,0.6-1.5V5.1
						c0.7-0.2,1.2-0.9,1.1-1.7c-0.1-0.8-0.7-1.3-1.5-1.3h-2V1.6c0-0.4-0.2-0.8-0.5-1.1c-0.2-0.3-0.6-0.5-1-0.5H6.7
						C6.3,0,5.9,0.2,5.6,0.5C5.3,0.8,5.1,1.2,5.2,1.6v0.5h-2c-0.8,0-1.4,0.6-1.5,1.3C1.5,4.2,2,4.9,2.7,5.1z M12.3,16.2H4.7
						c-0.7,0-1.2-0.6-1.2-1.3V5.1h10v9.8C13.5,15.6,12.9,16.2,12.3,16.2z M5.9,1.6C5.9,1.4,6,1.2,6.2,1c0.1-0.1,0.3-0.2,0.6-0.2h3.5
						c0.2,0,0.4,0.1,0.6,0.2C11,1.2,11,1.4,11,1.6v0.5H5.9V1.6z M3.1,2.9h10.8c0.4,0,0.7,0.3,0.7,0.7s-0.3,0.7-0.7,0.7H3.1
						C2.7,4.3,2.4,4,2.4,3.6S2.7,2.9,3.1,2.9z"/>
					<path class="st1" d="M8.5,6.2c-0.2,0-0.4,0.2-0.4,0.4v7.5c0,0.2,0.2,0.4,0.4,0.4s0.4-0.2,0.4-0.4V6.6C8.9,6.3,8.7,6.2,8.5,6.2z"
						/>
				</g>
			</g>
		</g>
	</symbol>

	<symbol version="1.1" id="edit" xmlns="http://www.w3.org/2000/svg" xmlns:xlink="http://www.w3.org/1999/xlink" x="0px" y="0px"
	 viewBox="0 0 13 13" style="enable-background:new 0 0 13 13;" xml:space="preserve">
		<style type="text/css">
			.st0{fill:#FFFFFF;}
		</style>
		<path class="st0" d="M12.7,2L11,0.3C10.8,0.1,10.5,0,10.2,0c0,0,0,0,0,0C9.9,0,9.6,0.1,9.4,0.3L1.2,8.6C1.1,8.6,1.1,8.7,1.1,8.8
			L0,12.5c0,0.1,0,0.3,0.1,0.4C0.2,13,0.3,13,0.4,13c0,0,0.1,0,0.1,0l3.7-1.1c0,0,0.2-0.1,0.2-0.1l8.2-8.2C12.9,3.4,13,3.1,13,2.8
			C13,2.5,12.9,2.2,12.7,2z M0.9,12.1l0.7-2.5l1.8,1.8L0.9,12.1z M4.2,11L2,8.8l6.6-6.6l2.2,2.2L4.2,11z M12.1,3l-0.8,0.8L9.2,1.7
			L10,0.9c0.1-0.1,0.2-0.1,0.3-0.1h0c0.1,0,0.2,0,0.3,0.1l1.6,1.6C12.3,2.6,12.3,2.9,12.1,3z"/>
	</symbol>

	<symbol version="1.1" id="save" xmlns="http://www.w3.org/2000/svg" xmlns:xlink="http://www.w3.org/1999/xlink" x="0px" y="0px"
	 viewBox="0 0 16 16" style="enable-background:new 0 0 16 16;" xml:space="preserve">
		<style type="text/css">
			.st0{fill:#D73F34;}
		</style>
		<path class="st0" d="M15.8,3.4l-3.2-3.2c0,0-0.1-0.1-0.2-0.1c-0.1,0-0.1,0-0.2,0h-1.1v4.3c0,0.3-0.1,0.6-0.3,0.8
			c-0.2,0.2-0.5,0.3-0.8,0.3H5.9C5.6,5.3,5.3,5.2,5.1,5C4.9,4.8,4.8,4.5,4.8,4.3V0H1.6C1.2,0,0.8,0.2,0.5,0.5S0,1.2,0,1.6v12.8
			c0,0.4,0.2,0.8,0.5,1.1C0.8,15.8,1.2,16,1.6,16h1.1v-4.8c0-0.4,0.2-0.8,0.5-1.1c0.3-0.3,0.7-0.5,1.1-0.5h7.5c0.4,0,0.8,0.2,1.1,0.5
			c0.3,0.3,0.5,0.7,0.5,1.1V16h1.1c0.4,0,0.8-0.2,1.1-0.5c0.3-0.3,0.5-0.7,0.5-1.1V3.7c0-0.1,0-0.1,0-0.2C15.9,3.5,15.9,3.4,15.8,3.4z
			"/>
		<path class="st0" d="M5.9,0h4.3v4.3H5.9V0z"/>
		<path class="st0" d="M11.7,10.7H4.3c-0.1,0-0.3,0.1-0.4,0.2c-0.1,0.1-0.2,0.2-0.2,0.4V16h8.5v-4.8c0-0.1-0.1-0.3-0.2-0.4
			C12,10.7,11.9,10.7,11.7,10.7z"/>
	</symbol>

</svg>