<svg width="86" height="21" viewBox="0 0 86 21" fill="none" xmlns="http://www.w3.org/2000/svg">
<g clip-path="url(#clip0_924_24087)">
<path d="M13.7485 6.63802H15.5914V20.6442H13.7485V17.9007C12.4691 19.9541 10.5894 20.9804 8.1095 20.9794C7.16051 20.995 6.21848 20.8145 5.34205 20.4489C4.46562 20.0834 3.67355 19.5407 3.01515 18.8547C1.61084 17.4355 0.908691 15.6988 0.908691 13.6445C0.908691 11.5902 1.61084 9.85347 3.01515 8.43428C3.67359 7.74806 4.46558 7.205 5.34193 6.83879C6.21829 6.47259 7.1603 6.29106 8.1095 6.30548C10.5858 6.30548 12.4655 7.33263 13.7485 9.38692V6.63802ZM4.34204 17.5764C5.3828 18.6083 6.78695 19.187 8.25007 19.187C9.71318 19.187 11.1173 18.6083 12.1581 17.5764C13.1779 16.5217 13.7483 15.11 13.7483 13.6404C13.7483 12.1709 13.1779 10.7591 12.1581 9.70446C11.1173 8.67252 9.71318 8.09382 8.25007 8.09382C6.78695 8.09382 5.3828 8.67252 4.34204 9.70446C3.32123 10.7586 2.75018 12.1705 2.75018 13.6404C2.75018 15.1103 3.32123 16.5222 4.34204 17.5764Z" fill="white"/>
<path d="M20.9507 10.3073C20.9459 10.6109 21.0207 10.9104 21.1675 11.1759C21.3143 11.4414 21.5281 11.6635 21.7873 11.82C22.4128 12.2225 23.1016 12.516 23.8245 12.6882C24.624 12.8935 25.4244 13.1207 26.2257 13.3696C27.0015 13.607 27.7032 14.0412 28.2629 14.6303C28.8206 15.2181 29.0999 15.9904 29.1008 16.9471C29.1136 17.5103 28.9923 18.0684 28.7472 18.5751C28.502 19.0819 28.14 19.5227 27.6911 19.8609C26.7504 20.6078 25.5358 20.9812 24.0472 20.9812C22.7081 20.9812 21.5682 20.6823 20.6275 20.0844C19.738 19.5465 19.0475 18.7321 18.6609 17.7648L20.2241 16.8408C20.479 17.5627 20.9778 18.1722 21.6338 18.5635C22.3653 18.9963 23.2039 19.2127 24.0527 19.1877C24.9653 19.1877 25.7286 19.006 26.3425 18.6425C26.9564 18.2791 27.2619 17.714 27.2592 16.9471C27.2592 16.3111 26.9799 15.8069 26.4213 15.4344C25.7954 15.0326 25.1067 14.7392 24.3841 14.5662C23.5837 14.3618 22.7833 14.1346 21.9829 13.8848C21.2072 13.6472 20.5055 13.213 19.9457 12.6241C19.3879 12.0354 19.1086 11.2631 19.1077 10.3073C19.1077 9.16792 19.5604 8.21391 20.4659 7.44525C21.3713 6.6766 22.5112 6.29364 23.8856 6.29636C24.9332 6.27278 25.9669 6.5392 26.8735 7.06638C27.7041 7.55153 28.3675 8.27945 28.7749 9.15292L27.2389 10.0497C26.6956 8.74225 25.5792 8.08852 23.8897 8.08852C23.1593 8.06888 22.4399 8.2692 21.824 8.66365C21.5465 8.83559 21.3195 9.07833 21.1661 9.36708C21.0127 9.65583 20.9383 9.98027 20.9507 10.3073Z" fill="white"/>
<path d="M39.011 8.4303H34.991V16.9182C34.991 17.6841 35.1399 18.2293 35.4378 18.5536C35.7357 18.878 36.1825 19.0461 36.7783 19.0579C37.3731 19.0679 38.1174 19.0538 39.011 19.0156V20.6415C37.058 20.9405 35.5926 20.8001 34.6148 20.2204C33.6369 19.6408 33.1493 18.54 33.1521 16.9182V8.4303H30.2185V6.63814H33.1521V3.27596L34.9937 2.71582V6.63814H39.0138L39.011 8.4303Z" fill="white"/>
<path d="M43.9518 3.27613C43.7321 3.49821 43.4425 3.63694 43.1322 3.66864C42.822 3.70035 42.5104 3.62308 42.2506 3.45001C41.9908 3.27694 41.7988 3.01879 41.7075 2.71958C41.6162 2.42037 41.6311 2.09864 41.7498 1.80924C41.8684 1.51985 42.0834 1.28072 42.3582 1.13264C42.6329 0.984555 42.9503 0.936687 43.2562 0.9972C43.5622 1.05771 43.8377 1.22286 44.0359 1.46447C44.2341 1.70608 44.3426 2.0092 44.343 2.32213C44.3462 2.49954 44.3132 2.67573 44.2459 2.83982C44.1787 3.00391 44.0786 3.15241 43.9518 3.27613Z" fill="white"/>
<path d="M43.9262 6.6377H42.0833V20.6438H43.9262V6.6377Z" fill="white"/>
<path d="M49.0558 8.32285C50.5172 6.85641 52.2148 6.18952 54.1488 6.32217C56.0828 6.45482 57.7538 7.22711 59.1617 8.63904C59.307 8.78486 59.4971 9.00292 59.7348 9.29321L51.0699 17.9883C52.2017 18.8605 53.4186 19.2303 54.7206 19.0976C56.0226 18.965 57.1996 18.3708 58.2517 17.315C59.0014 16.5627 59.4949 15.7573 59.7321 14.8987C59.9678 14.0989 59.9744 13.2488 59.7511 12.4455L61.5669 11.9699C61.8303 13.1092 61.7895 14.2981 61.4488 15.4165C61.0766 16.6284 60.4042 17.7256 59.4944 18.6056C57.9425 20.1638 56.1924 20.943 54.2439 20.943C52.2954 20.943 50.5719 20.1902 49.0735 18.6847C47.604 17.2037 46.8547 15.4861 46.8258 13.5317C46.7968 11.5774 47.5401 9.84108 49.0558 8.32285ZM50.3189 9.59031C49.2921 10.6206 48.7394 11.7891 48.6606 13.0956C48.5818 14.4021 48.9635 15.6105 49.8055 16.7208L57.1679 9.33273C55.9972 8.42416 54.7867 8.0153 53.5363 8.10616C52.3181 8.18323 51.1716 8.7111 50.3189 9.58759V9.59031Z" fill="white"/>
<path d="M65.9769 8.963C66.8325 7.26306 68.3029 6.41309 70.3881 6.41309V8.20661C69.1205 8.20661 68.0688 8.58004 67.2331 9.32689C66.3974 10.0737 65.9787 11.2503 65.9769 12.8567V20.6441H64.1353V6.63796H65.9769V8.963Z" fill="white"/>
<path d="M83.7724 18.8646C82.3491 20.2747 80.6138 20.9798 78.5667 20.9798C76.5195 20.9798 74.7843 20.2747 73.361 18.8646C71.9358 17.4554 71.2237 15.7141 71.2246 13.6408C71.2255 11.5674 71.9376 9.82612 73.361 8.41692C74.7843 7.0059 76.5195 6.30085 78.5667 6.30176C80.6138 6.30267 82.3491 7.00772 83.7724 8.41692C85.1957 9.82612 85.9074 11.5674 85.9074 13.6408C85.9074 15.7141 85.1957 17.4554 83.7724 18.8646ZM74.658 17.5767C75.6987 18.6087 77.1029 19.1874 78.566 19.1874C80.0291 19.1874 81.4333 18.6087 82.474 17.5767C83.4948 16.5226 84.0659 15.1106 84.0659 13.6408C84.0659 12.1709 83.4948 10.7589 82.474 9.70482C81.4333 8.67288 80.0291 8.09417 78.566 8.09417C77.1029 8.09417 75.6987 8.67288 74.658 9.70482C73.6381 10.7594 73.0677 12.1712 73.0677 13.6408C73.0677 15.1103 73.6381 16.5221 74.658 17.5767Z" fill="white"/>
</g>
<defs>
<clipPath id="clip0_924_24087">
<rect width="85" height="20" fill="white" transform="translate(0.908691 0.979492)"/>
</clipPath>
</defs>
</svg>
