<?xml version="1.0" encoding="utf-8"?>
<!-- Generator: Adobe Illustrator 25.3.1, SVG Export Plug-In . SVG Version: 6.00 Build 0)  -->
<svg version="1.1" id="Слой_1" xmlns="http://www.w3.org/2000/svg" xmlns:xlink="http://www.w3.org/1999/xlink" x="0px" y="0px"
	 viewBox="0 0 131 30" style="enable-background:new 0 0 131 30;" xml:space="preserve">
<style type="text/css">
	.st0{clip-path:url(#SVGID_2_);}
	.st1{fill:#D73F34;}
</style>
<g>
	<defs>
		<rect id="SVGID_1_" y="0" width="131" height="30"/>
	</defs>
	<clipPath id="SVGID_2_">
		<use xlink:href="#SVGID_1_"  style="overflow:visible;"/>
	</clipPath>
	<g class="st0">
		<path class="st1" d="M19.8,8.5h2.8v21h-2.8v-4.1c-2,3.1-4.9,4.6-8.7,4.6c-1.5,0-2.9-0.2-4.3-0.8c-1.4-0.5-2.6-1.4-3.6-2.4
			C1.1,24.7,0,22.1,0,19s1.1-5.7,3.2-7.8c1-1,2.2-1.8,3.6-2.4S9.6,8,11.1,8c3.8,0,6.7,1.5,8.7,4.6V8.5z M5.3,24.9
			c1.6,1.5,3.8,2.4,6,2.4c2.3,0,4.4-0.9,6-2.4c1.6-1.6,2.5-3.7,2.5-5.9c0-2.2-0.9-4.3-2.5-5.9c-1.6-1.5-3.8-2.4-6-2.4
			c-2.3,0-4.4,0.9-6,2.4c-1.6,1.6-2.5,3.7-2.5,5.9S3.7,23.3,5.3,24.9z"/>
		<path class="st1" d="M30.9,14c0,0.5,0.1,0.9,0.3,1.3c0.2,0.4,0.6,0.7,1,1c1,0.6,2,1,3.1,1.3c1.2,0.3,2.5,0.6,3.7,1
			c1.2,0.4,2.3,1,3.1,1.9c0.9,0.9,1.3,2,1.3,3.5c0,0.8-0.2,1.7-0.5,2.4c-0.4,0.8-0.9,1.4-1.6,1.9C39.8,29.5,38,30,35.7,30
			c-2.1,0-3.8-0.4-5.3-1.3c-1.4-0.8-2.4-2-3-3.5l2.4-1.4c0.4,1.1,1.2,2,2.2,2.6c1.1,0.6,2.4,1,3.7,0.9c1.4,0,2.6-0.3,3.5-0.8
			c0.9-0.5,1.4-1.4,1.4-2.5c0-1-0.4-1.7-1.3-2.3c-1-0.6-2-1-3.1-1.3c-1.2-0.3-2.5-0.6-3.7-1c-1.2-0.4-2.3-1-3.1-1.9
			c-0.9-0.9-1.3-2-1.3-3.5c0-1.7,0.7-3.1,2.1-4.3C31.5,8.6,33.3,8,35.4,8C37,8,38.6,8.4,40,9.1c1.3,0.7,2.3,1.8,2.9,3.1l-2.4,1.3
			c-0.8-2-2.6-2.9-5.2-2.9c-1.1,0-2.2,0.3-3.2,0.9c-0.4,0.3-0.8,0.6-1,1.1C31,13,30.9,13.5,30.9,14z"/>
		<path class="st1" d="M58.7,11.2h-6.2v12.7c0,1.1,0.2,2,0.7,2.5c0.5,0.5,1.1,0.7,2.1,0.8c0.9,0,2.1,0,3.4-0.1v2.4
			c-3,0.4-5.3,0.2-6.8-0.6c-1.5-0.9-2.3-2.5-2.3-5V11.2h-4.5V8.5h4.5v-5l2.8-0.8v5.9h6.2L58.7,11.2z"/>
		<path class="st1" d="M66.3,3.5C66,3.8,65.6,4,65.1,4c-0.5,0-1-0.1-1.4-0.3c-0.4-0.3-0.7-0.6-0.8-1.1c-0.1-0.4-0.1-0.9,0.1-1.4
			c0.2-0.4,0.5-0.8,0.9-1C64.3,0,64.8-0.1,65.3,0c0.5,0.1,0.9,0.3,1.2,0.7c0.3,0.4,0.5,0.8,0.5,1.3c0,0.3,0,0.5-0.1,0.8
			C66.7,3,66.5,3.3,66.3,3.5z"/>
		<path class="st1" d="M66.3,8.5h-2.8v21h2.8V8.5z"/>
		<path class="st1" d="M74.2,11c2.3-2.2,4.9-3.2,7.8-3c3,0.2,5.6,1.4,7.7,3.5c0.2,0.2,0.5,0.5,0.9,1l-13.4,13
			c1.7,1.3,3.6,1.9,5.6,1.7s3.8-1.1,5.4-2.7c1.2-1.1,1.9-2.3,2.3-3.6c0.4-1.2,0.4-2.5,0-3.7l2.8-0.7c0.4,1.7,0.3,3.5-0.2,5.2
			c-0.6,1.8-1.6,3.5-3,4.8c-2.4,2.3-5.1,3.5-8.1,3.5s-5.7-1.1-8-3.4c-2.3-2.2-3.4-4.8-3.5-7.7C70.7,15.9,71.9,13.3,74.2,11z
			 M76.1,12.9c-1.6,1.5-2.4,3.3-2.6,5.3c-0.1,2,0.5,3.8,1.8,5.4l11.3-11.1c-1.8-1.4-3.7-2-5.6-1.8C79.2,10.8,77.5,11.6,76.1,12.9
			L76.1,12.9z"/>
		<path class="st1" d="M100.3,12c1.3-2.5,3.6-3.8,6.8-3.8v2.7c-2,0-3.6,0.6-4.9,1.7c-1.3,1.1-1.9,2.9-1.9,5.3v11.7h-2.8v-21h2.8V12z
			"/>
		<path class="st1" d="M127.7,26.8c-2.2,2.1-4.9,3.2-8,3.2s-5.8-1.1-8-3.2c-2.2-2.1-3.3-4.7-3.3-7.8c0-3.1,1.1-5.7,3.3-7.8
			c2.2-2.1,4.9-3.2,8-3.2s5.8,1.1,8,3.2c2.2,2.1,3.3,4.7,3.3,7.8C131,22.1,129.9,24.7,127.7,26.8z M113.7,24.9
			c1.6,1.5,3.8,2.4,6,2.4c2.3,0,4.4-0.9,6-2.4c1.6-1.6,2.5-3.7,2.5-5.9s-0.9-4.3-2.5-5.9c-1.6-1.5-3.8-2.4-6-2.4
			c-2.3,0-4.4,0.9-6,2.4c-1.6,1.6-2.5,3.7-2.5,5.9S112.1,23.3,113.7,24.9z"/>
	</g>
</g>
</svg>
