<svg width="25" height="16" viewBox="0 0 25 16" fill="none" xmlns="http://www.w3.org/2000/svg">
<path fill-rule="evenodd" clip-rule="evenodd" d="M17.3069 15.2582C21.302 15.2582 24.5407 12.0581 24.5407 8.11053C24.5407 4.163 21.302 0.962891 17.3069 0.962891C15.5164 0.962891 13.8778 1.60572 12.6146 2.67056C11.3514 1.60597 9.71302 0.963301 7.92268 0.963301C3.92761 0.963301 0.688965 4.16341 0.688965 8.11094C0.688965 12.0585 3.92761 15.2586 7.92268 15.2586C9.71325 15.2586 11.3519 14.6157 12.6151 13.5509C13.8782 14.6155 15.5166 15.2582 17.3069 15.2582Z" fill="#ED0006"/>
<path fill-rule="evenodd" clip-rule="evenodd" d="M12.6147 13.5507C14.1701 12.2397 15.1563 10.2889 15.1563 8.11053C15.1563 5.93215 14.1701 3.98138 12.6147 2.67037C13.8779 1.60565 15.5164 0.962891 17.3069 0.962891C21.302 0.962891 24.5406 4.163 24.5406 8.11053C24.5406 12.0581 21.302 15.2582 17.3069 15.2582C15.5164 15.2582 13.8779 14.6154 12.6147 13.5507Z" fill="#F9A000"/>
<path fill-rule="evenodd" clip-rule="evenodd" d="M12.6148 13.5502C14.1701 12.2392 15.1564 10.2884 15.1564 8.11007C15.1564 5.9317 14.1701 3.98093 12.6148 2.66992C11.0595 3.98093 10.0732 5.9317 10.0732 8.11007C10.0732 10.2884 11.0595 12.2392 12.6148 13.5502Z" fill="#FF5E00"/>
</svg>
