<?xml version="1.0" encoding="utf-8"?>
<!-- Generator: Adobe Illustrator 25.3.1, SVG Export Plug-In . SVG Version: 6.00 Build 0)  -->
<svg version="1.1" id="Слой_1" xmlns="http://www.w3.org/2000/svg" xmlns:xlink="http://www.w3.org/1999/xlink" x="0px" y="0px"
	 viewBox="0 0 16 16" style="enable-background:new 0 0 16 16;" xml:space="preserve">
<style type="text/css">
	.st0{fill:#D73F34;}
</style>
<path class="st0" d="M15.8,3.4l-3.2-3.2c0,0-0.1-0.1-0.2-0.1c-0.1,0-0.1,0-0.2,0h-1.1v4.3c0,0.3-0.1,0.6-0.3,0.8
	c-0.2,0.2-0.5,0.3-0.8,0.3H5.9C5.6,5.3,5.3,5.2,5.1,5C4.9,4.8,4.8,4.5,4.8,4.3V0H1.6C1.2,0,0.8,0.2,0.5,0.5S0,1.2,0,1.6v12.8
	c0,0.4,0.2,0.8,0.5,1.1C0.8,15.8,1.2,16,1.6,16h1.1v-4.8c0-0.4,0.2-0.8,0.5-1.1c0.3-0.3,0.7-0.5,1.1-0.5h7.5c0.4,0,0.8,0.2,1.1,0.5
	c0.3,0.3,0.5,0.7,0.5,1.1V16h1.1c0.4,0,0.8-0.2,1.1-0.5c0.3-0.3,0.5-0.7,0.5-1.1V3.7c0-0.1,0-0.1,0-0.2C15.9,3.5,15.9,3.4,15.8,3.4z
	"/>
<path class="st0" d="M5.9,0h4.3v4.3H5.9V0z"/>
<path class="st0" d="M11.7,10.7H4.3c-0.1,0-0.3,0.1-0.4,0.2c-0.1,0.1-0.2,0.2-0.2,0.4V16h8.5v-4.8c0-0.1-0.1-0.3-0.2-0.4
	C12,10.7,11.9,10.7,11.7,10.7z"/>
</svg>
