<svg width="28" height="10" viewBox="0 0 28 10" fill="none" xmlns="http://www.w3.org/2000/svg">
<path fill-rule="evenodd" clip-rule="evenodd" d="M7.1297 9.89601H4.73672L2.94229 2.84878C2.85712 2.52461 2.67627 2.23802 2.41026 2.10295C1.74639 1.76351 1.01484 1.49336 0.216797 1.35712V1.0858H4.07169C4.60372 1.0858 5.00274 1.49336 5.06924 1.9667L6.0003 7.0501L8.3921 1.0858H10.7186L7.1297 9.89601ZM12.0486 9.89601H9.78867L11.6496 1.0858H13.9096L12.0486 9.89601ZM16.8335 3.5267C16.9 3.05218 17.299 2.78087 17.7645 2.78087C18.4961 2.71274 19.2929 2.84899 19.958 3.18726L20.357 1.29038C19.692 1.01906 18.9604 0.882812 18.2966 0.882812C16.1031 0.882812 14.507 2.10316 14.507 3.79684C14.507 5.08531 15.6376 5.76184 16.4356 6.16941C17.299 6.5758 17.6315 6.84712 17.565 7.25351C17.565 7.86309 16.9 8.13441 16.2361 8.13441C15.4381 8.13441 14.64 7.93121 13.9096 7.59177L13.5106 9.48983C14.3087 9.82809 15.172 9.96434 15.9701 9.96434C18.4296 10.0313 19.958 8.81212 19.958 6.98219C19.958 4.67774 16.8335 4.54267 16.8335 3.5267ZM27.8672 9.89601L26.0727 1.0858H24.1453C23.7462 1.0858 23.3472 1.35712 23.2142 1.76351L19.8914 9.89601H22.2178L22.6822 8.60871H25.5407L25.8067 9.89601H27.8672ZM24.4778 3.45869L25.1416 6.77911H23.2807L24.4778 3.45869Z" fill="#172B85"/>
</svg>
