<svg width="25" height="10" viewBox="0 0 25 10" fill="none" xmlns="http://www.w3.org/2000/svg">
<path d="M19.6084 8.91993C19.7259 8.95214 19.8439 8.98345 19.9618 9.01339C21.1745 9.32097 22.408 9.52512 23.6433 9.71838L24.5683 5.23571C23.3212 5.15269 22.3889 4.69449 21.693 3.84976C20.4722 2.32136 18.1131 1.31331 14.682 0.85375C12.479 0.558413 10.5591 0.59017 10.1313 0.601512C9.76521 0.557052 8.47226 0.442729 6.86855 0.783432C4.7708 1.22939 2.95659 2.27826 1.56248 3.83887L0.640625 5.74155C0.807121 5.89534 0.965449 6.02146 1.11607 6.11854L1.9 6.62302L2.43987 5.86313C3.61531 4.2077 5.21857 3.14567 7.20517 2.70652C8.72949 2.36945 9.92354 2.54093 9.93216 2.5423L10.0256 2.55681L10.12 2.55318C10.1404 2.55228 12.1633 2.48105 14.4502 2.79045C15.9319 2.99097 17.1759 3.29901 18.1544 3.70232C18.3381 5.16494 18.8113 7.17558 19.6084 8.91993Z" fill="#C36264"/>
</svg>
