<svg width="20" height="9" viewBox="0 0 20 9" fill="none" xmlns="http://www.w3.org/2000/svg">
<path d="M4.13769 8.93856C4.18578 8.93765 4.23432 8.93674 4.28241 8.93583C5.03822 7.4351 5.39434 5.71752 5.5377 4.84512C5.58851 4.80656 5.63796 4.76845 5.68696 4.7308C7.77746 3.13071 8.56593 2.57815 9.87793 2.60809C10.5884 2.62397 11.938 3.34847 13.2704 4.22541C13.4701 5.51428 13.9215 7.20328 14.6419 8.71444C16.0414 8.66136 17.4406 8.5974 18.8388 8.52436L19.194 5.22802C18.9331 5.23301 18.6555 5.19762 18.3597 5.12186C17.5907 4.92497 16.9833 4.5203 16.8848 4.4527C16.7047 4.30707 15.6708 3.47959 14.4028 2.63622C12.4362 1.3283 10.9699 0.680916 9.92148 0.657779C7.85775 0.612413 6.59566 1.57918 4.50153 3.18153C4.12907 3.46688 3.70669 3.78989 3.24804 4.13196C2.48315 4.70267 1.35308 4.68452 0.251575 4.44544L0.125 8.94581C1.46105 8.86234 2.80074 8.95852 4.13769 8.93856Z" fill="#C36264"/>
</svg>
