<svg width="22" height="12" viewBox="0 0 22 12" fill="none" xmlns="http://www.w3.org/2000/svg">
<path d="M16.6722 5.4766C16.8364 6.92153 17.2996 8.96983 18.0985 10.7591C19.2241 10.7328 20.3496 10.7441 21.4752 10.7428L21.9805 7.4505C20.7062 7.1529 19.6278 6.18341 19.3257 5.89125C19.1161 5.50337 18.5104 4.48398 17.4289 3.43284C15.6483 1.70255 13.389 0.669101 10.8947 0.444536C8.89043 0.263977 7.34253 0.720821 6.16073 1.84138C5.16357 2.78682 4.59784 4.06434 4.09881 5.19079C3.68824 6.11763 3.30036 6.99321 2.75187 7.54986C2.31318 7.99536 1.80054 8.22128 1.19807 8.23262L0.84375 11.5194C0.865072 11.5181 0.886402 11.5176 0.907724 11.5176C2.3776 11.5276 3.83794 11.3702 5.30056 11.2468C5.61178 10.3485 5.82728 9.41306 5.98516 8.48441C6.07771 7.94137 5.95702 7.56573 5.73427 7.08757C5.56006 6.71375 5.7252 6.33539 5.88262 5.98062C6.84167 3.81573 7.59886 2.10586 10.7201 2.38713C12.7666 2.57132 14.5486 3.37658 16.0162 4.77977C16.2643 5.01749 16.4825 5.2534 16.6722 5.4766Z" fill="#C36264"/>
</svg>
