<svg width="19" height="9" viewBox="0 0 19 9" fill="none" xmlns="http://www.w3.org/2000/svg">
<path d="M14.8423 6.53645C14.9217 6.74922 15.0051 6.96018 15.0932 7.16977C15.2524 7.17476 15.4121 7.17884 15.5713 7.18293C15.9619 7.18202 16.3525 7.17839 16.7436 7.17249C17.1024 7.16705 17.4613 7.16932 17.8201 7.16614C17.9993 7.16478 18.1785 7.16115 18.3577 7.15707C18.433 7.15525 18.5083 7.15571 18.5837 7.15435C18.5923 7.15435 18.6027 7.15389 18.6145 7.15344L18.7973 3.99049C17.4953 3.93559 16.1375 3.49418 15.383 3.17298C14.7719 2.45755 12.5916 0.210094 9.38783 0.299466C7.06053 0.36434 6.06699 1.43363 5.10658 2.46798C4.51591 3.10402 3.90482 3.76229 2.87409 4.26858C2.2385 4.58116 1.58432 4.59205 0.975049 4.4496L0.46875 7.74865C1.31393 7.75772 2.15912 7.74366 3.0043 7.7432C3.28738 7.7432 3.54552 7.8539 3.73969 8.034C4.29407 7.95053 4.85208 7.92648 5.41145 7.93238C6.15683 6.0474 6.35917 4.13929 6.35917 4.13929L6.37957 4.06988C6.37957 4.06988 6.37458 3.96871 6.53563 3.79541C7.37673 2.88989 7.93247 2.29151 9.44182 2.24932C10.5669 2.21802 11.6503 2.62178 12.568 3.25373C13.1746 3.67156 13.6473 4.18964 14.1423 4.7286C14.5392 5.16049 14.6368 5.98434 14.8423 6.53645Z" fill="#C36264"/>
</svg>
