<svg width="20" height="9" viewBox="0 0 20 9" fill="none" xmlns="http://www.w3.org/2000/svg">
<path d="M15.7901 7.93779C16.8213 7.89152 17.8538 7.87655 18.8854 7.86248C19.0016 7.86067 19.1177 7.85976 19.2334 7.8584V2.99877C18.9045 2.96792 18.5728 2.89352 18.2367 2.77466C17.1674 2.39676 16.3508 1.67997 15.9121 1.29481L15.8304 1.22313C14.6904 0.22961 13.7649 0.164283 10.6908 0.432398C7.43805 0.715937 5.84795 2.09371 3.4408 4.1792L3.2734 4.32437C2.64144 4.87149 1.73502 5.03163 0.799562 4.99216L0.617188 8.14693C0.967418 8.10655 1.32671 8.11291 1.6715 8.12289C1.9691 8.13151 2.26626 8.11608 2.56341 8.10293C2.65641 8.07616 2.75215 8.06119 2.84924 8.06073C3.45806 8.05801 4.06733 8.05847 4.67615 8.05983C5.04271 7.83027 5.45145 7.65516 5.86202 7.51135C6.2245 6.27693 6.32749 5.27706 6.32749 5.27706C6.32749 5.27706 6.36695 5.02255 6.38646 4.59021C8.38622 2.86584 8.4139 2.58911 10.8605 2.37589C12.3422 2.24659 13.1406 2.21892 13.6274 2.27427C13.9826 4.09935 14.689 6.33319 15.7901 7.93779Z" fill="#C36264"/>
</svg>
