<svg width="19" height="23" viewBox="0 0 19 23" fill="none" xmlns="http://www.w3.org/2000/svg">
<path d="M16.3405 3.42779C16.2548 3.14026 16.1602 2.8573 16.061 2.5789C16.034 2.51044 16.0114 2.43742 15.9844 2.36896C15.9663 2.32332 15.9348 2.25029 15.9303 2.2366C15.8852 2.13163 15.8401 2.03122 15.7905 1.92625C15.6824 1.70718 15.5606 1.49724 15.4254 1.29643C15.3262 1.20971 15.2361 1.13213 15.1595 1.06367L15.0783 0.990644C13.9469 -0.00886077 13.0273 -0.0727572 9.97109 0.196516C8.49257 0.32887 7.08616 0.753318 5.8195 1.54288C4.58439 2.31419 3.18249 3.31369 2.43872 4.58704C1.85723 5.58654 0.987259 6.75035 0.716797 7.88677C0.811459 7.93241 0.901617 7.92785 1.01431 7.92785C1.31182 7.93697 1.6048 7.91872 1.90231 7.90959C1.99247 7.88221 2.09165 7.86852 2.18631 7.86852C2.79034 7.86395 3.39437 7.86395 4.0029 7.86852C4.36803 7.63575 4.77373 7.46232 5.17942 7.31628C5.54003 6.07488 5.6437 5.06625 5.6437 5.06625C5.6437 5.06625 5.68429 4.81067 5.70232 4.37709C7.69021 2.64279 7.71724 2.36439 10.1469 2.14989C11.6209 2.02209 12.4143 1.99015 12.8966 2.04948C13.2482 3.88419 13.9514 6.13421 15.0468 7.74529C15.8987 7.70878 16.7462 7.69052 17.5981 7.67683C17.5711 7.56273 17.544 7.44407 17.5125 7.32997C17.1744 6.01555 16.7327 4.72395 16.3405 3.42779Z" fill="#C36264"/>
</svg>
