<svg width="26" height="11" viewBox="0 0 26 11" fill="none" xmlns="http://www.w3.org/2000/svg">
<path d="M19.9988 4.04701C20.3862 5.35766 20.9502 6.68555 21.6964 7.74169C22.4618 7.68815 23.2276 7.63825 23.9925 7.58109C24.5359 7.54071 25.0785 7.49535 25.6207 7.44227V2.77674C23.3823 3.18095 22.8764 2.92554 22.8537 2.91284C21.8847 2.37569 19.2784 1.8694 17.2628 1.53958C14.9141 1.15487 12.4879 0.869514 11.3637 0.845469C9.09584 0.797381 6.71954 1.75371 2.89014 4.25661C2.00867 4.83277 1.13218 5.07684 0.234375 4.99291V9.85397C1.00243 9.83446 1.76776 9.76052 2.53445 9.70834C2.84158 9.68748 3.12286 9.82993 3.32248 10.049C4.38043 8.43263 4.84862 6.25865 5.02328 5.21067C7.86188 3.44998 9.68334 2.76131 11.322 2.79625C12.3486 2.81802 14.7145 3.0993 16.9475 3.46495C18.2182 3.67319 19.2262 3.87098 19.9988 4.04701Z" fill="#C36264"/>
</svg>
