<svg width="26" height="24" viewBox="0 0 26 24" fill="none" xmlns="http://www.w3.org/2000/svg">
<path d="M24.5572 5.94812C24.4581 5.62865 24.3499 5.31374 24.2327 5.00339C24.2057 4.93493 24.1786 4.86647 24.1516 4.79801C24.1516 4.79345 24.1471 4.78889 24.1471 4.78432C24.1335 4.75237 24.12 4.72043 24.1065 4.69304C24.0434 4.547 23.9758 4.40095 23.9036 4.25947C23.7639 3.97194 23.6061 3.68898 23.4348 3.41971C23.3402 3.27366 23.2455 3.12762 23.1418 2.98613C23.1283 2.96788 23.0787 2.90398 23.0607 2.88116C23.0066 2.8127 22.9525 2.74425 22.8939 2.67579C22.8894 2.67122 22.8849 2.66666 22.8804 2.6621C21.8842 2.13268 19.3418 1.63065 17.372 1.30661C15.037 0.918675 12.6299 0.631148 11.512 0.608328C9.32124 0.562689 7.03133 1.46635 3.41616 3.83046C3.23134 3.99933 3.05554 4.18645 2.89777 4.37813C2.87523 4.40552 2.85269 4.43746 2.83016 4.46485C2.78508 4.52418 2.74001 4.58807 2.69944 4.6474C2.60478 4.78432 2.51462 4.92124 2.42897 5.06272C2.11344 5.57844 1.84297 6.12612 1.59505 6.67835C1.53194 6.81527 1.47334 6.95219 1.41474 7.08911C1.41024 7.1028 1.40574 7.11192 1.40123 7.11649C1.39672 7.12105 1.39671 7.13018 1.3922 7.13475C1.36516 7.20777 1.33361 7.27623 1.30656 7.34925C1.18486 7.65503 1.06314 7.95625 0.959462 8.27116C0.8062 8.72756 0.684505 9.19308 0.589844 9.66316C1.31108 9.64034 2.02779 9.57188 2.74451 9.52168C3.05104 9.49886 3.33051 9.64491 3.52885 9.86397C4.57914 8.23922 5.04343 6.04853 5.21923 4.99426C8.04105 3.22346 9.84865 2.52974 11.4759 2.56625C12.4947 2.58907 14.8477 2.87204 17.0655 3.23715C18.3276 3.44709 19.3283 3.64334 20.0991 3.82133C20.4823 5.14031 21.0458 6.47754 21.785 7.53637C22.5468 7.4816 23.3041 7.4314 24.0659 7.37663C24.3544 7.35381 24.6474 7.33099 24.9359 7.30817C24.8187 6.85178 24.697 6.39539 24.5572 5.94812Z" fill="#C36264"/>
</svg>
