<svg width="24" height="9" viewBox="0 0 24 9" fill="none" xmlns="http://www.w3.org/2000/svg">
<path d="M23.2524 4.5397L22.9185 0.76562C21.3275 0.974761 19.7061 1.10496 18.7598 1.16031C13.4609 -0.403035 5.12118 2.59572 4.47289 2.83435C4.27781 2.89378 2.91773 3.30254 1.42652 3.62011C1.13436 3.68226 0.865343 3.73534 0.617188 3.7798V8.45804C1.11305 8.41993 1.60935 8.38273 2.1043 8.33283C2.17598 8.32557 2.24721 8.3174 2.31844 8.30878C2.34566 8.3056 2.52577 8.2802 2.39965 8.2988C2.40418 8.29835 2.40826 8.29744 2.41325 8.29699L2.70587 8.25751C2.76349 8.2498 2.82108 8.24209 2.8787 8.23483C3.13638 8.20262 3.39317 8.18039 3.65312 8.18221C3.68987 8.18266 3.7257 8.18493 3.76109 8.18856C4.37218 7.01355 4.73149 5.68839 4.9311 4.73387C5.01321 4.70937 5.06266 4.69394 5.07309 4.69077L5.12482 4.67307C5.20874 4.64177 13.5671 1.57451 18.3156 3.06391C18.7149 3.79386 19.2071 4.51338 19.7878 5.12085C20.6534 4.99246 21.5194 4.86861 22.385 4.74339C22.669 4.66128 22.9567 4.59096 23.2524 4.5397Z" fill="#C36264"/>
</svg>
