<svg width="24" height="20" viewBox="0 0 24 20" fill="none" xmlns="http://www.w3.org/2000/svg">
<path d="M3.10034 8.09365C3.28971 8.07083 3.28971 8.07083 3.10034 8.09365V8.09365Z" fill="#C36264"/>
<path d="M21.2889 3.7077C20.2116 2.60779 19.2199 1.26598 17.7143 0.791334C15.8797 0.211713 13.8017 0.4034 11.9265 0.672673C9.91603 0.960202 7.94616 1.48049 6.00785 2.0875C5.39481 2.27918 4.8539 2.4663 4.331 2.86793C3.02377 3.87656 1.80668 5.31877 1.2928 6.91159C1.18462 7.2402 1.11251 7.57793 1.05391 7.91566C1.05391 7.92022 1.05391 7.92479 1.05391 7.92479C1.0494 7.9613 1.0449 7.99781 1.04039 8.03889C1.03588 8.09822 1.03136 8.16211 1.02686 8.22144C1.4055 8.19406 1.78415 8.16211 2.15829 8.12104C2.23041 8.11191 2.29804 8.10735 2.37016 8.09822C2.39721 8.09365 2.5775 8.07083 2.45129 8.08909C2.4558 8.08909 2.4603 8.08909 2.4648 8.08909L2.7578 8.04801C2.8164 8.03888 2.87051 8.03432 2.92911 8.02519C3.18605 7.99325 3.43848 7.97043 3.69993 7.97043C3.73599 7.97043 3.77205 7.97499 3.80811 7.97499C4.41665 6.79293 4.77274 5.46025 4.97108 4.49726C5.05222 4.47444 5.10181 4.45619 5.11083 4.45619L5.16041 4.43793C5.24606 4.40598 13.5492 1.32075 18.2688 2.81773C18.6654 3.55252 19.1568 4.27363 19.7338 4.8852C20.5136 4.76653 21.2979 4.65244 22.0778 4.53834C21.8208 4.25994 21.5549 3.98154 21.2889 3.7077Z" fill="#C36264"/>
</svg>
