<svg width="25" height="9" viewBox="0 0 25 9" fill="none" xmlns="http://www.w3.org/2000/svg">
<path d="M23.3761 5.71706C23.1452 5.50746 22.8267 5.25432 22.3798 4.94401C21.6594 4.44361 20.7167 3.87562 19.7259 3.34438C18.5917 2.73646 15.7091 1.28246 13.4499 0.916352C10.4883 0.436372 8.24268 1.85363 6.438 2.99233C5.9435 3.30446 5.47622 3.59934 5.03934 3.82708C4.26221 4.23266 2.60906 4.54342 0.921875 4.76526L1.25668 8.54703C1.88319 8.33063 2.5215 8.17185 3.16752 7.99447C3.92469 7.78623 4.65872 7.55259 5.42677 7.41422C5.67992 6.74189 5.82827 6.08498 5.91446 5.57052C5.92354 5.56599 5.93262 5.56145 5.94169 5.55691C6.4498 5.29197 6.94974 4.97622 7.47917 4.64232C9.16363 3.57938 10.9053 2.48014 13.1378 2.84217C14.4629 3.05721 16.5212 3.85566 18.6434 4.97848C20.7226 6.07863 22.0056 7.02589 22.2342 7.33302C22.4796 7.79893 22.9433 8.04981 23.4505 7.98948C23.6701 7.96316 23.9223 7.88468 24.2344 7.63516L23.3761 5.71706Z" fill="#C36264"/>
</svg>
