<svg width="26" height="10" viewBox="0 0 26 10" fill="none" xmlns="http://www.w3.org/2000/svg">
<path d="M22.7899 6.41567C22.3508 6.41294 22.2097 6.26822 22.1566 6.21378C22.114 6.16978 22.0768 6.11716 22.0441 6.05999C21.0206 5.31688 19.9182 4.71123 18.7945 4.14278C18.3073 4.19041 17.6821 4.21491 16.9199 4.17408C14.9882 4.07019 11.7699 3.51263 7.40925 1.44706C7.13024 1.31504 6.77684 1.23882 5.59412 0.995653C4.54434 0.779705 3.03045 0.468943 1.25479 0.0234375L0.632812 2.58078C2.44567 3.03536 3.98814 3.35248 5.06424 3.57342C5.60048 3.68366 6.1544 3.79753 6.3336 3.84925C10.2329 5.69025 13.8318 6.68742 17.0311 6.81354C18.0287 6.85301 18.8408 6.79811 19.4655 6.71509C19.6188 7.15425 19.8615 7.61881 20.2458 8.02258C20.6863 8.48578 21.4825 9.03925 22.7741 9.04741C23.255 9.05059 24.0012 9.25157 24.8646 9.56188L25.4884 6.99591C24.366 6.6112 23.4727 6.41975 22.7899 6.41567Z" fill="#C36264"/>
</svg>
