<svg width="22" height="17" viewBox="0 0 22 17" fill="none" xmlns="http://www.w3.org/2000/svg">
<path d="M11.8771 16.2215C13.2114 16.0709 14.5366 15.7469 15.7943 15.3407C15.019 14.8387 14.2076 14.396 13.3872 13.9761C12.9049 14.0217 12.2828 14.0491 11.5255 14.008C9.60522 13.903 6.40926 13.3417 2.07736 11.2651C1.82042 11.1419 1.49586 11.0688 0.513184 10.8589C0.666445 10.8908 0.995508 12.2874 1.06312 12.4928C1.23892 13.0268 1.38768 13.579 1.82493 13.9669C2.06383 14.1769 2.35683 14.3092 2.64984 14.4325C4.67379 15.2905 6.85101 16.0435 9.07331 16.2626C9.99739 16.3539 10.9395 16.3311 11.8771 16.2215Z" fill="#C36264"/>
</svg>
