<svg width="29" height="8" viewBox="0 0 29 8" fill="none" xmlns="http://www.w3.org/2000/svg">
<path d="M24.584 4.95313C24.1616 5.00712 21.3348 5.06201 17.8538 4.79253C14.8338 4.5589 10.6201 4.02311 7.6418 2.79866C7.3324 2.63126 5.97684 1.90631 4.36541 1.17046C3.27616 0.672789 2.32119 0.283995 1.49098 0L0.867188 2.56594C2.66598 3.21332 4.97242 4.3375 6.44321 5.14185L6.50445 5.17542L6.56887 5.2022C9.88699 6.58452 14.4586 7.17155 17.7096 7.42062C21.1801 7.68647 24.222 7.65426 24.9306 7.56171C25.2853 7.54402 26.5429 7.69962 28.1312 7.93372L28.3816 5.31016C25.2749 4.85468 24.8312 4.91775 24.584 4.95313Z" fill="#C36264"/>
</svg>
