<svg width="28" height="23" viewBox="0 0 28 23" fill="none" xmlns="http://www.w3.org/2000/svg">
<path d="M1.78246 19.2453C1.80951 19.2818 1.84106 19.3183 1.87262 19.3549C1.94925 19.4416 2.02588 19.5283 2.10251 19.615C2.26028 19.7793 2.42256 19.939 2.59385 20.0896C2.66597 20.1535 2.7426 20.2129 2.81472 20.2768C2.83726 20.2905 2.85529 20.3087 2.87783 20.3224C2.91389 20.3498 2.94995 20.3772 2.98602 20.4046C3.31508 20.6373 3.65766 20.8472 4.00926 21.0389C4.19407 21.1393 4.3834 21.2306 4.57723 21.3219C4.67189 21.3675 4.76655 21.4132 4.86572 21.4588C4.88375 21.4679 5.09111 21.5592 5.07308 21.5547C5.86643 21.8924 6.70486 22.1206 7.5478 22.3168C8.6026 22.4401 9.73854 22.5587 10.8925 22.6682C11.2351 22.6819 11.5777 22.6956 11.9203 22.7093C13.4303 22.7687 14.9404 22.8417 16.4505 22.8508C17.2123 22.8554 17.9696 22.8326 18.7269 22.7732C19.101 22.7458 19.4706 22.7093 19.8448 22.6682C19.9575 22.6546 20.0747 22.6409 20.1874 22.6272C20.1874 22.6272 20.2234 22.6226 20.2505 22.6181C20.2775 22.6135 20.3091 22.6089 20.3091 22.6089C20.4939 22.5815 20.6787 22.5542 20.859 22.5222C21.5352 22.4127 22.2113 22.2895 22.8559 22.0476C22.9055 22.0293 22.9551 22.0111 23.0047 21.9882C23.0678 21.9563 23.1309 21.9289 23.194 21.897C23.3337 21.8285 23.469 21.7509 23.6042 21.6688C23.6763 21.6231 23.7394 21.5729 23.8115 21.5273C23.8115 21.5273 23.8161 21.5273 23.8161 21.5227C23.8341 21.509 23.8521 21.4953 23.8656 21.4816C23.9648 21.3949 24.055 21.3082 24.1451 21.2124L21.6794 20.797L21.6073 20.7925C21.463 20.7834 7.32692 20.0121 3.71626 19.0126L3.65766 18.9943L3.59455 18.9852C3.58103 18.9806 2.61188 18.8117 1.34521 18.6018C1.45791 18.7889 1.57962 18.9669 1.70132 19.1449C1.67879 19.1038 1.76894 19.2316 1.78246 19.2453Z" fill="#C36264"/>
</svg>
