<svg width="24" height="20" viewBox="0 0 24 20" fill="none" xmlns="http://www.w3.org/2000/svg">
<path d="M22.9836 8.05245C22.9295 7.8699 22.8844 7.71929 22.8709 7.68734C22.6726 7.13967 22.4652 6.59655 22.2308 6.06257C21.9649 5.45557 21.6673 4.85769 21.3067 4.30089C20.9371 3.72584 20.4728 3.23293 20.0401 2.71264C19.8958 2.53921 19.7471 2.36121 19.5668 2.22886C19.0619 1.84549 18.3001 1.69032 17.6961 1.53058C16.9703 1.33433 16.2356 1.19285 15.4963 1.08787C14.703 0.973776 13.9051 0.896191 13.1072 0.850552C9.82564 0.66343 6.58911 1.00116 5.21427 1.41192C5.01593 1.47125 4.8221 1.52601 4.63277 1.57622C4.61925 1.58534 4.61023 1.58991 4.59671 1.59447C4.38034 1.7177 4.16848 1.84549 3.96113 1.98697C3.86646 2.05087 3.77631 2.1102 3.68616 2.17866C3.64559 2.20604 3.60953 2.23799 3.56896 2.26537C3.55994 2.26994 3.55544 2.2745 3.55093 2.27907C3.54642 2.28363 3.5374 2.28819 3.52839 2.29732C3.1813 2.58485 2.85223 2.8952 2.56825 3.24662C2.55022 3.26488 2.50063 3.33334 2.48711 3.35159C2.46006 3.3881 2.42851 3.42918 2.40147 3.46569C2.33385 3.56153 2.26624 3.65281 2.19862 3.74866C2.06339 3.94491 1.93267 4.14115 1.80645 4.34653C1.55402 4.75729 1.32413 5.18173 1.12128 5.62444C1.09423 5.68377 1.06719 5.7431 1.04465 5.80243C1.03563 5.82525 1.0131 5.88458 1.00408 5.90284C0.963512 6.01237 0.922942 6.12191 0.882373 6.23144C0.846311 6.33641 0.814757 6.44138 0.783203 6.54635C1.72531 6.64676 2.67193 6.79281 3.5915 7.02557C3.73124 7.06208 3.85745 7.13054 3.97014 7.21725C4.70489 5.98499 5.12862 4.49258 5.36302 3.41092C5.50276 3.36985 5.63348 3.33334 5.7597 3.29682C6.77393 2.9956 9.77605 2.63049 12.9945 2.81305C15.1627 2.93627 16.9884 3.27857 18.3632 3.80799C18.4173 4.94441 18.7283 6.75173 19.3279 8.51341C20.0536 8.60013 20.7793 8.69141 21.5051 8.78725C22.1046 8.86484 22.6996 8.94242 23.2991 9.02457C23.2721 9.02001 23.1008 8.44952 22.9836 8.05245Z" fill="#C36264"/>
</svg>
