<svg width="25" height="9" viewBox="0 0 25 9" fill="none" xmlns="http://www.w3.org/2000/svg">
<path d="M19.632 7.71405C20.3624 7.8007 21.0923 7.89189 21.8223 7.9858C22.4765 8.07018 23.1311 8.15593 23.7857 8.24076L24.0316 4.09057C23.685 4.03476 23.3452 3.92225 23.0317 3.76528C22.8888 3.6936 22.7491 3.6124 22.6321 3.50351C22.3957 3.28303 22.251 2.9886 22.0096 2.77038C21.796 2.57712 21.5682 2.3961 21.3319 2.23051C20.8138 1.86802 20.2476 1.57677 19.6637 1.33587C18.423 0.823672 17.0978 0.52697 15.7726 0.335067C14.9756 0.21938 14.1726 0.14407 13.3682 0.0991566C10.0646 -0.0859418 6.80912 0.248868 5.42362 0.657627C3.88343 1.11221 2.61407 1.30683 1.56656 1.23697L0.640625 5.72334C1.70084 5.82541 2.76151 5.97467 3.79496 6.23372C3.93651 6.2691 4.06444 6.33625 4.17514 6.42517C4.91416 5.20161 5.34196 3.7181 5.57515 2.64381C5.71533 2.60479 5.84961 2.56623 5.97573 2.52903C6.99784 2.22733 10.0193 1.86576 13.2589 2.04723C15.4424 2.16972 17.2775 2.50952 18.662 3.03533C18.7169 4.16361 19.03 5.96197 19.632 7.71405Z" fill="#C36264"/>
</svg>
