<svg width="18" height="23" viewBox="0 0 18 23" fill="none" xmlns="http://www.w3.org/2000/svg">
<path d="M14.6575 20.6131L14.0805 20.6588C14.0355 20.6634 9.34746 21.033 4.27631 19.7369L4.25827 19.7323L3.00513 19.4493C3.0502 19.5132 3.08627 19.5863 3.11332 19.6547C3.0412 19.4813 3.14487 19.7232 3.16741 19.7688C3.20347 19.8373 3.23953 19.9103 3.27559 19.9788C3.35222 20.1157 3.43336 20.2435 3.51901 20.3713C3.55507 20.426 3.66776 20.5675 3.56409 20.4397C3.61818 20.5082 3.67227 20.5766 3.73087 20.6405C3.83004 20.7546 3.93372 20.8642 4.04641 20.9691C4.15459 21.0741 4.2718 21.1699 4.389 21.2658C4.26278 21.1608 4.40252 21.2749 4.4521 21.3114C4.51521 21.3571 4.57381 21.3981 4.63692 21.4392C4.85329 21.5853 5.08318 21.7131 5.31307 21.8317C5.9126 21.9778 6.51211 22.1056 7.12065 22.2105C7.42718 22.2197 7.7337 22.2242 8.04473 22.2242C9.10855 22.2288 10.1904 22.2379 11.2542 22.1558C11.4661 22.1375 11.6824 22.1192 11.8943 22.0919C11.9349 22.0873 11.9529 22.0873 11.9529 22.0873C11.9799 22.0827 12.0025 22.0782 12.025 22.0736C12.1242 22.0554 12.2234 22.0417 12.318 22.0188C12.5344 21.9778 12.7463 21.9276 12.9581 21.8637C13.1159 21.818 13.3323 21.7769 13.481 21.6902C13.499 21.6765 13.5216 21.6674 13.5351 21.6583C13.5892 21.6355 13.6388 21.6081 13.6929 21.5807C13.7785 21.5351 13.8642 21.4894 13.9453 21.4392C14.0264 21.389 14.1076 21.3342 14.1887 21.2795C14.2067 21.2658 14.2338 21.2475 14.2563 21.2338C14.2699 21.2201 14.2834 21.2065 14.2924 21.1973C14.378 21.1197 14.4637 21.0376 14.5448 20.9554C14.5719 20.9281 14.5989 20.8961 14.6215 20.8687C14.635 20.855 14.6575 20.8322 14.6756 20.8185C14.7026 20.7866 14.7296 20.7546 14.7567 20.7136L14.6575 20.6131Z" fill="#C36264"/>
</svg>
