<svg width="18" height="25" viewBox="0 0 18 25" fill="none" xmlns="http://www.w3.org/2000/svg">
<path d="M1.99919 21.1922C2.0082 21.2059 2.01722 21.215 2.02173 21.2241C2.33726 21.6349 2.67985 22.0274 3.0585 22.3834C3.22077 22.534 3.38305 22.6846 3.55434 22.8261C3.56336 22.8307 3.56787 22.8398 3.57688 22.8443C3.60843 22.8672 3.63999 22.89 3.67155 22.9174C3.75719 22.9813 3.84284 23.0406 3.933 23.0999C4.25304 23.3099 4.58661 23.4924 4.93821 23.6476C4.95174 23.6522 5.0509 23.6932 5.06442 23.6978C5.1095 23.7161 5.15007 23.7298 5.19515 23.748C5.2808 23.78 5.37095 23.8119 5.4566 23.8393C5.65494 23.9077 5.85778 23.9671 6.06062 24.0173C6.46181 24.1223 6.87201 24.2044 7.28221 24.2683C7.34081 24.2774 7.40392 24.2866 7.46252 24.2957C7.46703 24.2957 7.46703 24.2957 7.47154 24.2957C7.60226 24.3139 7.73298 24.3276 7.8637 24.3459C7.94033 24.355 8.01698 24.3687 8.09361 24.3778C8.11164 24.3824 8.16121 24.387 8.18825 24.3915C8.28742 24.4052 8.38659 24.4144 8.48125 24.428C8.96809 24.4782 9.46393 24.5056 9.95527 24.4828C10.095 24.4782 10.2347 24.46 10.3745 24.4509C10.379 24.4509 10.388 24.4509 10.3925 24.4509C10.397 24.4509 10.4015 24.4509 10.406 24.4463C10.4691 24.4326 10.5368 24.4189 10.5999 24.4052C10.8027 24.355 11.0011 24.2866 11.1949 24.209C11.5194 24.0857 11.835 23.9443 12.1595 23.8347C11.7989 23.748 11.4338 23.6613 11.0732 23.5746C9.89667 23.2962 8.7382 22.9904 7.61578 22.5568C6.20938 22.3606 4.56407 21.9863 2.79706 21.2972L2.67534 21.247L1.96313 21.1283C1.96764 21.1511 1.98566 21.1739 1.99919 21.1922Z" fill="#C36264"/>
</svg>
