<svg width="19" height="30" viewBox="0 0 19 30" fill="none" xmlns="http://www.w3.org/2000/svg">
<path d="M15.2773 28.8546C15.3314 28.8364 15.3855 28.818 15.4396 28.7952C15.4441 28.7952 15.4486 28.7906 15.4576 28.7861C15.4801 28.7724 15.5162 28.7588 15.5252 28.7497C15.5568 28.736 15.5883 28.7176 15.6154 28.6994C15.692 28.6583 15.7641 28.6127 15.8362 28.5625C15.8678 28.5397 15.8994 28.5123 15.9129 28.5032C15.9444 28.4758 15.9805 28.4439 16.012 28.4165C16.1247 28.2111 16.2284 28.0012 16.3231 27.7912C16.3321 27.773 16.3411 27.7547 16.3456 27.7365C16.3456 27.7365 16.3456 27.7318 16.3501 27.7318C16.3636 27.6998 16.3772 27.668 16.3907 27.6361C16.4223 27.5493 16.4538 27.4626 16.4854 27.3713C16.5485 27.1888 16.6071 27.0017 16.6566 26.8145C16.6882 26.6913 16.7198 26.5681 16.7423 26.4449L14.6192 26.8647L14.5921 26.8693C14.5741 26.8739 12.9513 27.2252 10.9634 27.2663C8.4932 27.3165 6.57293 26.8784 5.40994 25.9976L5.22062 25.8561L1.83984 24.8521C1.8714 24.9433 1.90746 25.0346 1.93901 25.1259C1.93901 25.1305 1.94352 25.135 1.94352 25.1396C1.96155 25.1761 1.97958 25.2172 1.99761 25.2537C2.06974 25.4043 2.15088 25.5549 2.23652 25.6964C2.32217 25.8379 2.41682 25.9748 2.51149 26.1117C2.52952 26.1345 2.55206 26.1619 2.57009 26.1847C2.62869 26.2577 2.68729 26.3261 2.7504 26.3946C2.97578 26.6456 3.2237 26.8692 3.48064 27.0837C3.48515 27.0883 3.48966 27.0883 3.49417 27.0928C3.51671 27.1111 3.54376 27.1294 3.56629 27.1476C3.63391 27.1978 3.70153 27.2436 3.76914 27.2938C3.90437 27.3896 4.04411 27.4763 4.18836 27.563C4.45882 27.7228 4.73379 27.8733 5.01777 28.0056C5.0944 28.0421 5.17104 28.0788 5.24767 28.1107C5.2657 28.1198 5.28823 28.129 5.31077 28.1381C5.446 28.1929 5.58124 28.2476 5.72098 28.2978C6.28895 28.5078 6.87495 28.6858 7.46545 28.8181C7.67281 28.8638 7.88467 28.9002 8.09202 28.9321H8.09653C8.15062 28.9367 8.20021 28.9459 8.2543 28.9505C8.35347 28.9596 8.45263 28.9732 8.5518 28.9778C8.96651 29.0143 9.38122 29.0281 9.79593 29.0372C10.6524 29.0463 11.5134 29.0144 12.3698 29.0144C13.055 29.0144 13.7357 29.0646 14.4208 29.0144C14.493 29.0098 14.5651 29.0007 14.6372 28.9915C14.6282 28.9915 14.7499 28.9732 14.795 28.9641C14.9663 28.9458 15.124 28.9048 15.2773 28.8546Z" fill="#C36264"/>
</svg>
