<svg width="18" height="7" viewBox="0 0 18 7" fill="none" xmlns="http://www.w3.org/2000/svg">
<path d="M12.7122 3.72462C12.3216 3.84257 11.2945 3.8775 9.68487 3.58852C8.27987 3.33628 7.26865 2.98877 7.06404 2.86719C6.14718 2.30465 2.02245 0.425576 1.55517 0.213262L1.17182 0.0390625L0.769417 0.117999L0.601562 2.8318L0.849263 2.78327C2.58 3.57491 5.14412 4.77621 5.68852 5.11011C6.42119 5.55969 8.03443 5.9639 9.19355 6.17303C10.4801 6.40576 12.2667 6.60674 13.4721 6.24335C14.1784 6.03059 15.7999 5.81782 17.3664 5.65087L17.531 2.98696C15.7862 3.16571 13.7066 3.4252 12.7122 3.72462Z" fill="#C36264"/>
</svg>
