<svg width="16" height="32" viewBox="0 0 16 32" fill="none" xmlns="http://www.w3.org/2000/svg">
<path d="M15.0004 25.2648C14.9778 24.9225 14.9553 24.5802 14.9237 24.2379C13.9411 24.4889 13.1613 25.0366 12.6384 25.849L12.3544 26.2278L12.4355 26.7253C12.44 26.8257 12.4535 27.4372 11.9892 27.9803C11.4528 28.6056 10.4161 28.9798 8.99167 29.062C7.27426 29.1578 5.95354 28.6604 4.94833 27.5376C4.08738 26.5746 3.66816 25.3743 3.44278 24.7308C3.42475 24.676 3.40221 24.6213 3.38869 24.5711L3.05062 23.6263L2.05894 23.7039C1.95075 23.7131 1.69382 23.7313 1.33771 23.7633C1.33321 23.7724 1.33321 23.7815 1.3287 23.7906C0.679602 25.7988 1.69832 27.8434 3.01455 29.313C3.71774 30.098 4.54715 30.705 5.47573 31.1066C6.41331 31.5128 7.45908 31.7182 8.59049 31.7182C8.7708 31.7182 8.95563 31.7136 9.14495 31.7045C11.3672 31.5767 13.0125 30.883 14.0312 29.6416C15.086 28.3546 15.0995 26.8485 15.0004 25.2648Z" fill="#C36264"/>
</svg>
