<svg width="18" height="9" viewBox="0 0 18 9" fill="none" xmlns="http://www.w3.org/2000/svg">
<path d="M13.6255 2.03881L13.317 2.2788L13.2081 2.66758C13.1845 2.73789 12.9178 3.49914 12.2259 4.25449C11.2946 5.2716 10.0284 5.82505 8.46232 5.8999C6.96522 5.97158 5.81336 5.43445 4.9396 4.25857C4.24322 3.3213 3.99824 2.31735 3.98508 2.26246L3.82267 1.4731L3.02377 1.27031C2.93848 1.24854 2.16406 1.06072 1.21681 1.12242C1.13469 1.12786 1.05349 1.13512 0.973647 1.14374L0.820312 3.84891C1.10567 3.75591 1.42322 3.73505 1.69814 3.74321C1.90411 4.28897 2.23892 5.01164 2.75927 5.73387C4.15838 7.6769 6.17404 8.6432 8.58845 8.52842C11.5096 8.38915 13.2912 7.03088 14.2715 5.91624C14.9493 5.14547 15.3431 4.3865 15.5472 3.91107C15.897 3.72688 16.5312 3.50051 17.4758 3.30089L17.361 0.640625C15.6017 0.969529 14.3455 1.43952 13.6255 2.03881Z" fill="#C36264"/>
</svg>
