<svg width="16" height="32" viewBox="0 0 16 32" fill="none" xmlns="http://www.w3.org/2000/svg">
<path d="M13.5333 24.2608C12.9698 24.4844 12.5146 24.74 12.181 25.0229L11.8745 25.2648L11.7663 25.6573C11.7437 25.7258 11.4778 26.4925 10.7881 27.2547C9.86403 28.277 8.60638 28.8338 7.04671 28.9114C5.55917 28.9845 4.4142 28.4413 3.54421 27.2593C2.85002 26.3145 2.60661 25.3059 2.59759 25.2511L2.43531 24.457L1.64197 24.2516C1.60591 24.2425 1.43912 24.2014 1.1912 24.1649C1.18669 24.2334 1.17315 24.2973 1.15061 24.3612C1.03341 24.6533 0.947768 24.9499 0.88466 25.2603C0.871137 25.3333 0.857622 25.4017 0.848607 25.4748C0.880161 25.2785 0.84409 25.5387 0.839583 25.5797C0.753936 26.4925 0.776479 27.5696 1.18217 28.4094C2.23698 30.591 4.90103 31.6681 7.17292 31.5585C8.8543 31.4764 10.6664 30.8876 11.9872 29.7786C13.7542 28.2862 13.6054 26.3876 13.5333 24.2608Z" fill="#C36264"/>
</svg>
