<svg width="17" height="6" viewBox="0 0 17 6" fill="none" xmlns="http://www.w3.org/2000/svg">
<path d="M13.6835 0.139975L13.1168 0.125L12.7181 0.531945C12.6995 0.550546 10.8408 2.40154 8.479 2.73862C6.29097 3.0512 5.19356 2.05947 5.08831 1.95739C4.85058 1.62938 4.48855 1.4275 4.01129 1.35672C3.22146 1.23968 1.68306 1.40074 0.508973 1.61169C0.455893 1.62122 0.403734 1.63074 0.351562 1.64072L0.46633 4.30108C0.629651 4.2666 0.8007 4.23258 0.98262 4.20037C2.00927 4.01618 2.91387 3.94858 3.36936 3.94812C4.21182 4.70848 6.05507 5.74332 8.85102 5.34408C11.3371 4.98885 13.3119 3.51078 14.1553 2.78218L16.2657 2.82755L16.1519 0.193051L13.6835 0.139975ZM2.92976 3.46224C2.93021 3.46269 2.93066 3.46315 2.93066 3.46405C2.93066 3.4636 2.93021 3.46269 2.92976 3.46224ZM2.93292 3.46631C2.93701 3.47267 2.94109 3.47857 2.94517 3.48447C2.94109 3.47857 2.93701 3.47267 2.93292 3.46631ZM2.94699 3.48718C2.94699 3.48718 2.94743 3.48764 2.94743 3.48809C2.94743 3.48764 2.94699 3.48763 2.94699 3.48718ZM5.12096 2.00503C5.12186 2.00639 5.12279 2.0073 5.12324 2.00866C5.12279 2.00775 5.12186 2.00639 5.12096 2.00503Z" fill="#C36264"/>
</svg>
