<svg width="19" height="30" viewBox="0 0 19 30" fill="none" xmlns="http://www.w3.org/2000/svg">
<path d="M14.8907 28.1928C14.8953 28.1928 14.8998 28.1883 14.9043 28.1883C15.1387 28.0468 15.3731 27.9053 15.5985 27.7501C15.6841 27.6908 15.7697 27.6269 15.8554 27.563C15.8779 27.5493 15.8869 27.5402 15.896 27.5356C15.905 27.5265 15.9185 27.5174 15.9365 27.4991C16.0763 27.3759 16.2115 27.2572 16.3422 27.1203C16.4098 27.0519 16.4729 26.9788 16.5361 26.9013C16.5451 26.8921 16.6127 26.8054 16.6217 26.7917C16.7119 26.6685 16.7975 26.5453 16.8786 26.4175C17.095 26.0752 17.2934 25.7192 17.4872 25.3678C17.6044 24.8475 17.6855 24.3226 17.7576 23.7932L14.8727 25.5777C13.8946 25.847 8.71069 27.2207 4.04523 27.2527L2.71997 27.2253C2.75603 27.3668 2.79659 27.5037 2.84618 27.6406C2.85069 27.6543 2.8597 27.6817 2.86872 27.7091C2.86872 27.7136 2.87324 27.7182 2.88225 27.7319C2.91831 27.8049 2.94986 27.8825 2.99043 27.9555C3.06706 28.1016 3.1482 28.2431 3.23836 28.3754C3.25639 28.3982 3.27443 28.4256 3.29246 28.4484C3.33303 28.4986 3.40965 28.5899 3.41866 28.6036C3.51783 28.7177 3.62151 28.8227 3.72969 28.9231C3.77477 28.9642 3.81984 29.0052 3.86492 29.0417C3.86943 29.0463 3.87844 29.0509 3.88295 29.06C3.92802 29.06 4.20299 29.2836 4.24356 29.311C4.35626 29.3795 4.46895 29.4434 4.58615 29.5027C4.64926 29.5346 4.71238 29.5666 4.77548 29.594C4.77548 29.594 4.77998 29.5985 4.789 29.5985C4.75744 29.5803 4.82958 29.5894 4.86564 29.6305C4.97382 29.6716 5.08651 29.7126 5.19469 29.7492C5.31189 29.7857 5.4291 29.8176 5.5463 29.8496C8.79184 29.667 11.9923 29.0098 13.9261 28.5488C14.2552 28.4302 14.5752 28.3115 14.8907 28.1928Z" fill="#C36264"/>
</svg>
