<svg width="19" height="25" viewBox="0 0 19 25" fill="none" xmlns="http://www.w3.org/2000/svg">
<path d="M14.0782 22.6983C14.0602 22.7119 14.2224 22.5842 14.2585 22.5522C14.3396 22.4838 14.4253 22.4153 14.5064 22.3423C14.7814 22.1049 15.0519 21.8676 15.3223 21.6257C13.2803 21.9772 10.5622 22.4609 7.08681 23.1181L3.61138 22.4062L3.51221 22.4701C3.53024 22.502 3.55277 22.5294 3.57531 22.5613C3.57982 22.5659 3.57983 22.5705 3.58433 22.575C3.58884 22.5796 3.59785 22.5887 3.60236 22.5979C3.64744 22.6481 3.688 22.6983 3.73308 22.7439C3.82323 22.8397 3.91791 22.9356 4.01708 23.0223C4.06666 23.0679 4.12075 23.109 4.17033 23.1501C4.17484 23.1547 4.17934 23.1592 4.18385 23.1592C4.19286 23.1638 4.20189 23.1729 4.21541 23.182C4.32359 23.2596 4.43177 23.3326 4.54446 23.4057C4.73829 23.5243 4.95017 23.6658 5.17105 23.7434C5.19809 23.7525 5.22963 23.7617 5.24315 23.7662C5.30175 23.789 5.35586 23.8073 5.41446 23.8301C5.52264 23.8666 5.63532 23.8986 5.74351 23.9305C5.98242 23.9944 6.22584 24.0492 6.47376 24.0857C6.50531 24.0903 6.69915 24.1176 6.63604 24.1085C6.67661 24.1131 6.71717 24.1176 6.75774 24.1222C6.89297 24.1359 7.0282 24.1496 7.16343 24.1542C7.41586 24.1679 7.66379 24.177 7.91622 24.177C8.47517 24.177 9.02962 24.145 9.58406 24.0903C9.85452 24.0629 10.125 24.0355 10.3954 23.999C10.3954 23.999 10.4405 23.9944 10.4811 23.9899C10.5171 23.9853 10.6073 23.9716 10.6073 23.9716C10.7245 23.9533 10.8417 23.9396 10.9589 23.9214C11.4683 23.8438 11.9776 23.7662 12.469 23.5974C12.5727 23.5608 12.6718 23.5243 12.771 23.4833C12.762 23.4833 12.9558 23.3965 12.9874 23.3828C13.1812 23.287 13.3705 23.1775 13.5508 23.0588C13.7311 22.9584 13.9069 22.8306 14.0782 22.6983Z" fill="#C36264"/>
</svg>
