<svg width="26" height="10" viewBox="0 0 26 10" fill="none" xmlns="http://www.w3.org/2000/svg">
<path d="M25.6639 9.78468C25.7093 9.78332 25.7551 9.78196 25.8005 9.78151L25.8567 7.71778C25.4761 7.17973 24.8564 6.22159 23.9128 4.55028C21.8527 0.901902 16.2377 0.789845 12.5226 0.715898C11.9197 0.703649 11.3499 0.692308 10.8917 0.665995C9.38101 0.578438 7.56499 0.821148 5.90912 1.33152C5.13063 1.57151 4.33672 1.85732 3.6535 2.30963C3.07553 2.69252 2.8301 3.12487 2.55608 3.74639C2.52932 3.80673 2.50165 3.86888 2.45583 3.91651C2.39367 3.98093 2.30476 4.01178 2.21856 4.03583C1.8334 4.14289 1.42963 4.15378 1.03495 4.09027L0.789062 8.24494C1.1461 8.27261 1.52082 8.23995 1.87695 8.23541C2.28797 8.22997 2.69944 8.2218 3.11046 8.21545C3.38447 8.21091 3.62673 8.31163 3.81409 8.47631C3.85402 8.50035 3.89303 8.52622 3.92933 8.55525C4.11215 8.5548 4.29498 8.55343 4.47735 8.55026C4.60347 7.74954 4.65701 6.94973 4.67288 6.25017C4.66789 6.25199 4.66245 6.2538 4.65746 6.25562C4.66926 6.06961 4.67561 5.8827 4.67833 5.6976C4.67606 4.91322 4.63251 4.32164 4.61436 4.10796C4.61164 4.07893 4.60891 4.04944 4.60664 4.02086C4.86251 3.82759 5.5598 3.45649 6.74931 3.11715C8.11393 2.72791 9.58289 2.54417 10.7788 2.61358C11.2742 2.64216 11.8616 2.65396 12.4836 2.66621C15.7559 2.73154 20.7009 2.82998 22.2138 5.50933C23.1166 7.10805 24.2825 9.04611 24.9989 9.74975C25.2207 9.75837 25.4421 9.77107 25.6639 9.78468Z" fill="#C36264"/>
</svg>
