<svg width="26" height="23" viewBox="0 0 26 23" fill="none" xmlns="http://www.w3.org/2000/svg">
<path d="M23.4732 4.39641C23.4597 4.37359 23.4462 4.35077 23.4371 4.32795C21.3906 0.658545 15.8101 0.544446 12.1183 0.471423C11.5188 0.457731 10.9553 0.448605 10.5001 0.421221C8.99899 0.334506 7.19591 0.576393 5.5506 1.09212C4.77528 1.33401 3.98643 1.62154 3.31028 2.07793C2.7378 2.4613 2.49438 2.89944 2.21942 3.5247C2.19237 3.58403 2.16533 3.64792 2.12025 3.69356L2.11574 3.69813C2.10222 3.7392 2.08418 3.78028 2.06615 3.82136C1.86331 4.22298 1.66497 4.62461 1.48015 5.03536C1.43508 5.13577 1.39 5.23618 1.34492 5.34115C1.34041 5.35027 1.34042 5.35484 1.33591 5.3594C1.33591 5.36396 1.3314 5.36853 1.3314 5.37309C1.30886 5.4233 1.29083 5.47806 1.26829 5.52827C1.18715 5.73364 1.11052 5.94359 1.0384 6.15353C0.889647 6.5871 0.763433 7.02524 0.673279 7.47251C0.650741 7.58204 0.632708 7.68701 0.614677 7.79654C0.605662 7.84675 0.601154 7.89239 0.592139 7.94259C0.592139 7.95628 0.587632 7.96997 0.587632 7.98366C0.583124 8.00648 0.583121 8.03387 0.578613 8.05669C0.89866 8.07038 1.23223 8.043 1.54777 8.03843C1.95797 8.03387 2.36366 8.02474 2.77386 8.02018C3.04433 8.01561 3.28774 8.11602 3.47256 8.28489C3.51313 8.30771 3.54919 8.33509 3.58525 8.36247C3.76556 8.36247 3.95037 8.36247 4.13068 8.35791C4.25689 7.55466 4.31099 6.74684 4.32451 6.04399C4.32 6.04399 4.31549 6.04856 4.31099 6.04856C4.32451 5.86144 4.32902 5.67431 4.33352 5.48719C4.33352 4.69763 4.28845 4.10432 4.27042 3.88981C4.26591 3.86243 4.26591 3.83048 4.2614 3.8031C4.51383 3.60685 5.20802 3.23717 6.38903 2.89487C7.74585 2.50237 9.20634 2.31982 10.3919 2.38828C10.8832 2.41566 11.4692 2.42935 12.0868 2.44305C15.3368 2.50694 20.2502 2.60735 21.7558 5.30464C22.6528 6.91114 23.8113 8.86451 24.5235 9.57192C24.6903 9.57648 24.8571 9.58561 25.0238 9.5993C24.5595 7.83762 24.0953 6.0942 23.4732 4.39641Z" fill="#C36264"/>
</svg>
