<svg width="28" height="23" viewBox="0 0 28 23" fill="none" xmlns="http://www.w3.org/2000/svg">
<path d="M23.4751 18.3499C23.1325 18.3591 22.7494 18.4686 21.9831 18.6831C20.5992 19.0756 18.0253 19.8104 14.7753 20.0568C10.8265 20.3535 6.97244 19.8515 3.32121 18.569L2.92906 18.4321L2.30249 18.6146C2.32052 18.6877 2.33403 18.7607 2.32952 18.8383C2.32501 18.9524 2.33403 19.0619 2.33403 19.176C2.34305 19.2216 2.35207 19.2673 2.36108 19.3175C2.53688 20.066 3.09584 20.7232 3.63226 21.2389C3.75397 21.3576 3.88469 21.4671 4.03344 21.5493C4.20473 21.6451 4.39404 21.6953 4.58337 21.7409C9.94752 23.101 15.501 23.0873 20.8697 21.7318C21.5909 21.5493 22.3257 21.3804 23.0334 21.1476C23.8538 20.8784 24.4623 20.3809 25.1069 19.8286C25.3593 19.6141 25.6072 19.3905 25.8416 19.1577C25.9724 19.03 26.0986 18.893 26.2203 18.7561C26.2789 18.6877 26.3375 18.6192 26.3961 18.5507C26.4051 18.5416 26.4096 18.537 26.4141 18.5279C26.4186 18.5234 26.4231 18.5142 26.4276 18.5051C26.5223 18.3682 26.617 18.2267 26.6936 18.0761C26.7071 18.0487 26.7207 18.0213 26.7342 17.9985C26.7522 17.9392 26.7702 17.8844 26.7838 17.8251C25.0618 18.1309 23.7816 18.3408 23.4751 18.3499Z" fill="#C36264"/>
</svg>
