<svg width="30" height="6" viewBox="0 0 30 6" fill="none" xmlns="http://www.w3.org/2000/svg">
<path d="M24.5437 1.44912C24.1971 1.45638 23.8115 1.56525 23.0435 1.78166C21.6516 2.17408 19.0612 2.9045 15.7911 3.14676C11.8193 3.44119 7.93999 2.94305 4.26121 1.66642L3.86698 1.52942L1.68346 2.15775L0.984375 2.37597L1.10187 5.09572L2.4243 4.68244L3.79711 4.28728C13.0065 7.34411 20.7978 5.1479 23.7571 4.31405C24.1105 4.21424 24.5097 4.10173 24.6476 4.07769C25.2528 4.04865 27.2512 3.71112 29.3449 3.33366L29.2301 0.679688C26.8302 1.11567 24.9253 1.43687 24.5437 1.44912Z" fill="#C36264"/>
</svg>
