<svg width="29" height="10" viewBox="0 0 29 10" fill="none" xmlns="http://www.w3.org/2000/svg">
<path d="M25.686 1.75851C23.8137 2.3823 22.0453 2.97116 21.2373 3.32638C19.7693 3.97195 12.8386 6.2666 5.75004 5.70314L5.57176 5.68908L5.39619 5.7231C3.65864 6.05836 1.83627 6.40042 0.234375 6.69167L0.349143 9.34562C2.51858 8.95411 4.79099 8.5195 5.72146 8.3403C9.6974 8.6311 13.5096 8.08352 16.0229 7.56816C19.1387 6.92894 21.4324 6.11552 22.2962 5.73581C22.9926 5.42958 24.7845 4.83255 26.5175 4.25549C27.4938 3.93021 28.3077 3.65711 28.9887 3.42347L28.8703 0.679688C27.8613 1.034 26.645 1.43913 25.686 1.75851Z" fill="#C36264"/>
</svg>
