<svg width="27" height="23" viewBox="0 0 27 23" fill="none" xmlns="http://www.w3.org/2000/svg">
<path d="M22.0025 17.192C20.5421 17.8401 13.6588 20.1495 6.61326 19.5835L6.43747 19.5699L6.26167 19.6018C5.55847 19.7387 4.84174 19.8756 4.13403 20.0126C4.2332 20.081 4.30984 20.1677 4.36393 20.2727C4.42253 20.3959 4.49014 20.5055 4.56226 20.615C4.58029 20.6332 4.59833 20.6606 4.61637 20.6789C4.66595 20.7336 4.71553 20.7839 4.76511 20.8341C4.8192 20.8843 4.86879 20.9345 4.92739 20.9847C4.95895 21.0121 4.9905 21.0394 5.01755 21.0623C5.04008 21.0805 5.09868 21.1261 5.1077 21.1353C5.13475 21.1535 5.1618 21.1718 5.18885 21.1946C5.25196 21.2402 5.31505 21.2813 5.37816 21.327C5.81541 21.6145 6.2797 21.8609 6.7485 22.0891C6.87922 22.153 7.00544 22.2124 7.13616 22.2717C10.8821 22.4771 14.4341 21.9522 16.8142 21.4593C19.911 20.8158 22.1874 19.9989 23.0483 19.6155C23.161 19.5653 23.3008 19.5105 23.463 19.4466C23.4675 19.4421 23.4675 19.4375 23.4675 19.4375C23.5532 19.3234 23.6343 19.2047 23.7155 19.0861C24.0626 18.5703 24.3736 18.0272 24.6531 17.4704C24.7748 17.2194 24.892 16.9684 25.0002 16.7128C24.9911 16.7311 25.0452 16.6079 25.0542 16.5896C25.0813 16.5257 25.1038 16.4664 25.1264 16.4025C25.176 16.2701 25.2255 16.1378 25.2751 16.0009C23.8732 16.4755 22.6381 16.9091 22.0025 17.192Z" fill="#C36264"/>
</svg>
