<svg width="22" height="16" viewBox="0 0 22 16" fill="none" xmlns="http://www.w3.org/2000/svg">
<path d="M13.0054 15.4319C13.2848 15.4091 13.5688 15.3863 13.8483 15.3589C13.961 15.3498 14.0737 15.3361 14.1864 15.3224C14.2134 15.3178 14.3396 15.2995 14.3442 15.2995C14.4253 15.2859 14.5064 15.2722 14.5921 15.2539C14.6236 15.2493 14.6552 15.2402 14.6867 15.2356C14.8671 15.1672 15.0474 15.0987 15.2277 15.0303C15.435 14.9481 15.6424 14.866 15.8497 14.7792C15.8903 14.761 15.9264 14.7473 15.9669 14.729C15.985 14.7199 15.994 14.7199 16.003 14.7154C16.0931 14.6743 16.1833 14.6378 16.2734 14.5967C17.6393 13.9942 18.924 13.2275 20.2853 12.6251C20.6549 11.8857 20.9389 11.0961 21.3672 10.3887C21.3717 10.3796 21.3807 10.3705 21.3852 10.3613C19.2846 11.3517 17.4635 12.0728 16.2689 12.2873C10.0573 13.3872 7.69527 13.9121 7.5961 13.9349L6.96502 14.0764L6.69005 14.6697C6.64948 14.761 6.6044 14.8523 6.55933 14.9436C6.60891 14.9618 6.65849 14.9801 6.71258 14.9983C6.84782 15.044 6.97856 15.0896 7.11379 15.1307C7.4113 15.2174 7.71781 15.2904 8.02433 15.3497C8.16858 15.3771 8.31283 15.4 8.45708 15.4228C8.4706 15.4273 8.48412 15.4273 8.49313 15.4273C8.50215 15.4273 8.51118 15.4273 8.52921 15.4319C8.60133 15.441 8.67796 15.4502 8.75008 15.4593C9.07463 15.4958 9.39468 15.5186 9.71924 15.5323C10.8191 15.5688 11.9145 15.5186 13.0054 15.4319Z" fill="#C36264"/>
</svg>
