<svg width="23" height="13" viewBox="0 0 23 13" fill="none" xmlns="http://www.w3.org/2000/svg">
<path d="M13.6325 4.459C7.38048 5.5528 5.00328 6.07452 4.90529 6.09585L4.27106 6.23602L3.99658 6.82443C3.58284 7.71091 2.99035 8.69583 2.72224 8.94943C2.46546 9.09188 1.74503 9.36227 0.867188 9.67076L0.985588 12.4146C3.13007 11.6792 3.94939 11.3407 4.34181 11.0259C5.01097 10.4883 5.68605 9.31509 6.08664 8.53704C7.1455 8.32064 9.64019 7.82886 14.0861 7.05127C15.7806 6.75502 18.5284 5.65261 22.2925 3.76216L22.1678 0.875C18.6913 2.66972 15.4471 4.14143 13.6325 4.459Z" fill="#C36264"/>
</svg>
