<svg width="20" height="10" viewBox="0 0 20 10" fill="none" xmlns="http://www.w3.org/2000/svg">
<path d="M14.1605 4.27736C14.2988 4.52915 14.5034 4.79409 14.7457 5.05813C14.9335 6.10836 15.2424 7.32147 15.6825 8.48285C15.9438 8.51144 16.2051 8.54501 16.466 8.58175C17.4527 8.72012 18.4258 8.93153 19.4007 9.13432L19.7972 5.94595C19.4788 5.97045 18.678 5.68282 17.6732 4.9937C16.6846 4.31547 16.0237 3.61682 15.8699 3.33782C14.9644 1.69056 12.7019 -0.0211286 9.06762 0.11724C5.54628 0.251071 4.18937 1.88654 2.87738 3.46848C2.67459 3.713 2.465 3.96524 2.24724 4.21385C1.63616 4.90977 1.17931 5.39202 0.853129 5.71821L0.796875 7.78149C1.05047 7.77332 1.30362 7.75064 1.55676 7.7334C1.88612 7.45167 2.55255 6.82243 3.71302 5.5009C3.94893 5.23233 4.1676 4.96875 4.37856 4.71379C5.60481 3.23529 6.49081 2.16691 9.14157 2.06619C12.6874 1.93145 13.9445 3.88449 14.1605 4.27736Z" fill="#C36264"/>
</svg>
