<svg width="18" height="24" viewBox="0 0 18 24" fill="none" xmlns="http://www.w3.org/2000/svg">
<path d="M17.8833 9.65352C17.8833 9.64896 17.8338 9.53486 17.8247 9.51204C17.7977 9.45271 17.7752 9.39338 17.7481 9.33404C17.685 9.188 17.6219 9.04195 17.5543 8.89591C17.419 8.59468 17.2748 8.29346 17.1351 7.99224C16.3057 6.2625 15.6836 4.15396 14.2502 2.7939C12.988 1.59358 11.2751 1.00483 9.57117 0.895295C9.22408 0.872475 8.87248 0.867911 8.52539 0.881603C5.02742 1.01396 3.67962 2.66154 2.37239 4.25436C2.2642 4.38672 2.15151 4.52364 2.03881 4.66056C2.01177 4.70163 1.98472 4.74727 1.95767 4.78835C1.80892 5.03024 1.6782 5.28126 1.56101 5.53684C1.57002 5.52314 1.50691 5.66463 1.5024 5.67376C1.47536 5.75134 1.44831 5.82893 1.42126 5.90652C1.37168 6.05256 1.33111 6.19861 1.28603 6.34465C1.07868 7.07032 0.934434 7.81425 0.803711 8.55817C0.889357 8.55361 0.975001 8.54448 1.06065 8.53992C1.38971 8.25695 2.04783 7.62256 3.2018 6.29445C3.4362 6.02518 3.65257 5.76047 3.86443 5.50489C5.0815 4.01704 5.96501 2.94451 8.5975 2.83954C12.1225 2.70262 13.3712 4.66968 13.583 5.06218C13.7228 5.31777 13.9256 5.58248 14.1645 5.84719C14.3493 6.90146 14.6603 8.1246 15.0931 9.29297C15.3545 9.32035 15.6115 9.35687 15.8729 9.39338C16.5626 9.48922 17.2433 9.62614 17.9284 9.76762C17.9149 9.73111 17.9014 9.69003 17.8833 9.65352Z" fill="#C36264"/>
</svg>
