<svg width="18" height="9" viewBox="0 0 18 9" fill="none" xmlns="http://www.w3.org/2000/svg">
<path d="M12.6365 8.13018C13.3742 8.1946 14.1119 8.26356 14.8514 8.30257C15.7732 8.35111 16.696 8.3552 17.6187 8.33751C17.7344 8.33524 17.8501 8.33252 17.9658 8.3298L17.8569 4.17335C17.2617 4.27678 16.5825 4.31444 16.0917 4.06946C15.5151 3.78184 15.2987 3.14399 14.8436 2.72662C14.3047 2.23168 13.6609 1.85287 13.0036 1.53757C11.4443 0.78994 9.69225 0.356692 7.96378 0.299984C5.15649 0.208345 3.61221 2.16544 2.87047 3.10588C2.75297 3.25468 2.64227 3.39532 2.57377 3.467C2.23488 3.82131 2.21446 3.84217 0.795396 3.95151L0.398438 7.14302C0.428379 7.14665 0.45832 7.15118 0.487808 7.15663C0.515482 7.16207 0.534085 7.1657 0.546787 7.16842C0.646594 7.18022 0.745951 7.19337 0.845303 7.20653C1.00681 7.2283 1.16649 7.25416 1.32664 7.28456C1.60474 7.33718 1.88193 7.39525 2.1623 7.43563C2.25984 7.44969 2.34875 7.48054 2.42905 7.52454C2.68265 7.56991 2.93579 7.61709 3.18803 7.66926C3.252 7.68242 3.31234 7.70283 3.3695 7.72869C3.60359 7.62662 3.8395 7.52999 4.07949 7.44289C4.50367 7.2891 4.99318 7.14392 5.4532 7.16797C6.10239 5.38961 6.2834 3.68521 6.2834 3.68521L6.38774 2.25935L7.90027 2.24892C8.94008 2.28294 10.0171 2.50478 10.9693 2.82053C11.2166 4.40108 11.761 6.4471 12.6365 8.13018Z" fill="#C36264"/>
</svg>
