<svg width="19" height="24" viewBox="0 0 19 24" fill="none" xmlns="http://www.w3.org/2000/svg">
<path d="M17.2335 7.29703C17.0893 6.70372 16.9315 6.11041 16.7872 5.5171C16.377 4.64538 15.9668 3.77823 15.5071 2.9339C15.3989 2.78329 15.2862 2.63725 15.1509 2.51402C14.6145 2.01655 13.9744 1.63318 13.3208 1.31827C11.7702 0.565217 10.0302 0.131643 8.31277 0.0723118C5.53603 -0.018967 4.00342 1.92984 3.26416 2.87914C3.22809 2.92934 3.19654 2.97498 3.16499 3.02518C2.98017 3.31271 2.80888 3.60937 2.65562 3.91515C2.57448 4.07945 2.49785 4.24832 2.42122 4.41718C2.41671 4.43088 2.4122 4.44 2.40769 4.44913C2.40319 4.45826 2.40319 4.46739 2.39868 4.47652C2.36262 4.56323 2.33106 4.64994 2.295 4.73666C2.16879 5.06983 2.0606 5.403 1.96594 5.74529C1.87128 6.08759 1.78563 6.43445 1.71802 6.78131C1.69548 6.88172 1.67745 6.98212 1.65942 7.08709C1.67745 7.09165 1.69998 7.09166 1.71802 7.09622C1.99298 7.15099 2.26796 7.20575 2.54744 7.24683C2.6421 7.26052 2.73225 7.29247 2.81339 7.33811C3.06582 7.38375 3.31825 7.42939 3.56617 7.48415C3.62928 7.49785 3.68788 7.5161 3.74648 7.54349C3.98088 7.44308 4.21528 7.34267 4.44968 7.25596C4.8734 7.10078 5.35573 6.95474 5.81551 6.97756C6.46011 5.18849 6.64042 3.47245 6.64042 3.47245L6.74409 2.03937L8.24516 2.03024C9.27742 2.06675 10.3503 2.28582 11.2924 2.6053C11.5403 4.19355 12.0812 6.25189 12.9512 7.94511C13.6859 8.00901 14.4162 8.07747 15.1509 8.11854C15.9082 8.15962 16.67 8.16875 17.4273 8.15962C17.3687 7.87665 17.3011 7.58456 17.2335 7.29703Z" fill="#C36264"/>
</svg>
