<svg width="21" height="31" viewBox="0 0 21 31" fill="none" xmlns="http://www.w3.org/2000/svg">
<path d="M18.8643 9.1753C18.8057 8.89233 18.7381 8.6185 18.6615 8.34466C17.5797 4.57941 14.546 1.30706 10.5882 0.846105C10.3042 0.814157 10.0203 0.791338 9.73176 0.786774C7.0587 0.718315 5.04376 1.4668 3.73203 3.01854C2.62764 4.32383 2.23999 5.9349 1.956 7.1124C1.90191 7.34059 1.85232 7.5551 1.79372 7.75135C1.69906 9.24832 1.3745 10.7225 1.16264 12.2058C1.15814 12.2286 1.1356 12.3974 1.1356 12.4111C1.12659 12.4842 1.11757 12.5617 1.10855 12.6348C1.09052 12.7808 1.077 12.9269 1.06348 13.0729C1.59989 13.0136 2.14082 12.9679 2.68174 12.936C2.85304 12.5572 2.99728 12.1738 3.11899 11.8041C3.44805 10.8183 3.75007 9.7321 3.80867 8.69152C3.85374 7.87914 3.91234 7.17629 4.15124 6.39129C4.38113 5.64281 4.69217 4.89889 5.20154 4.29645C6.12561 3.2011 7.59061 2.69907 9.67767 2.74927C12.2245 2.81316 14.253 4.0865 15.718 6.52821C16.5068 7.84719 16.9215 9.17986 17.1063 9.88727C17.2641 10.8594 17.4579 11.8269 17.6833 12.7854C17.6878 12.8036 17.6923 12.8219 17.6968 12.8356C17.7645 12.8401 17.8321 12.8493 17.8997 12.8538C18.3685 12.8949 18.8418 12.9269 19.3106 12.9542C19.1979 11.7083 19.1213 10.4121 18.8643 9.1753Z" fill="#C36264"/>
</svg>
