<svg width="22" height="13" viewBox="0 0 22 13" fill="none" xmlns="http://www.w3.org/2000/svg">
<path d="M20.7186 12.1602C20.9468 12.1634 21.175 12.1698 21.4032 12.1711L21.4554 8.9823C21.0049 9.09707 20.5354 9.14471 20.0744 9.1066C20.0309 9.10297 19.9832 9.09662 19.9538 9.06441C19.9329 9.04173 19.9252 9.00997 19.9184 8.97957C19.5827 7.49926 19.0056 6.08745 18.2416 4.77726C16.4292 1.75357 13.7567 0.111291 10.512 0.0278161C7.82407 -0.0411413 5.79209 0.70469 4.47374 2.24489C3.36134 3.54465 2.9721 5.14518 2.68765 6.31428C2.48033 7.16672 2.37054 7.81819 1.42283 8.04729C1.25134 8.08857 1.0599 8.13122 0.859375 8.1657L0.968705 12.3331C1.78213 12.2247 2.59829 12.1475 3.41625 12.0981C3.58773 11.7211 3.73427 11.34 3.85812 10.9721C4.18793 9.99171 4.49279 8.91334 4.55086 7.87989C4.59622 7.07145 4.65702 6.37235 4.89792 5.59386C5.12884 4.84803 5.44414 4.11173 5.95633 3.51379C6.88725 2.42635 8.36121 1.9246 10.4626 1.97813C13.0249 2.04391 15.0696 3.30692 16.5404 5.73313C17.3361 7.04514 17.7526 8.37075 17.9358 9.07394C18.0946 10.0402 18.292 11.002 18.5152 11.9556C18.5193 11.9729 18.5233 11.9901 18.5274 12.0073C18.5959 12.0137 18.6644 12.0201 18.7329 12.026C19.3939 12.084 20.0563 12.1203 20.7186 12.1602Z" fill="#C36264"/>
</svg>
