<svg width="19" height="10" viewBox="0 0 19 10" fill="none" xmlns="http://www.w3.org/2000/svg">
<path d="M17.8728 9.63964C18.1051 9.6342 18.3369 9.63057 18.5691 9.63193L18.9675 4.30051C17.6255 4.12222 16.2337 3.64542 15.4815 3.32831C14.8101 2.57796 12.2083 -0.0124474 8.44512 0.164934C6.62501 0.250676 4.96096 1.09222 3.63262 2.59837C2.96482 3.35599 2.40274 4.24698 1.96132 5.24684C1.83974 5.52222 1.20414 5.73408 0.957347 5.82798C0.792212 5.89059 0.622998 5.94412 0.450605 5.98767L0.398438 9.17055C1.24725 9.16239 2.09651 9.16693 2.94532 9.18099C2.96573 9.11521 2.9857 9.04943 3.00702 8.9841C3.51694 7.41897 3.65803 5.83298 4.63704 4.46746C5.43368 3.35599 6.6976 2.1996 8.53676 2.11341C10.9031 2.00181 12.7436 3.39455 13.6001 4.19707C13.8143 5.7368 14.4036 7.88806 15.4207 9.58339C16.2378 9.60108 17.0553 9.61968 17.8728 9.63964Z" fill="#C36264"/>
</svg>
