<svg width="19" height="30" viewBox="0 0 19 30" fill="none" xmlns="http://www.w3.org/2000/svg">
<path d="M16.8906 7.98261C16.7374 7.47145 16.5661 6.96485 16.3903 6.45825C16.0702 5.5409 15.6916 4.63724 15.1507 3.82486C14.736 3.20416 14.1319 2.77972 13.5144 2.37353C12.0404 1.40597 10.3184 0.849172 8.55141 0.931323C6.74383 1.01804 5.0895 1.86237 3.76875 3.37759C3.10612 4.13977 2.54717 5.0343 2.10993 6.04293C2.10091 6.06119 2.09189 6.07944 2.07837 6.0977C1.85298 6.97854 1.6231 7.85482 1.43377 8.74478C1.38419 8.97754 1.33911 9.21487 1.29854 9.44763C1.28051 9.55717 1.25797 9.67127 1.24444 9.7808C1.23543 9.84926 1.22191 9.91772 1.21289 9.98618C1.83946 9.98618 2.46153 9.99074 3.08809 9.99987C3.10613 9.93141 3.12866 9.86752 3.1512 9.80362C3.65606 8.22906 3.7958 6.63168 4.76947 5.25794C5.56282 4.13977 6.81596 2.97597 8.64608 2.88925C10.9991 2.77515 12.8247 4.17628 13.6767 4.9841C13.8885 6.53127 14.4745 8.69915 15.4842 10.4015C16.1514 10.4152 16.8185 10.4334 17.4857 10.4471C17.4631 10.3285 17.4451 10.2098 17.4226 10.0911C17.2828 9.37917 17.1025 8.67633 16.8906 7.98261Z" fill="#C36264"/>
</svg>
