<svg width="27" height="14" viewBox="0 0 27 14" fill="none" xmlns="http://www.w3.org/2000/svg">
<path d="M4.66923 13.6127C5.73763 11.5507 6.16272 8.8918 6.28476 7.96542C6.52793 7.60793 6.75748 7.22912 6.99203 6.84123C7.619 5.80506 8.2673 4.73395 9.26628 3.95637C10.3855 3.08488 11.8395 2.69155 13.7114 2.75415C16.1988 2.83718 18.2707 3.78443 19.8695 5.56961C20.1689 5.90396 20.4239 6.23876 20.6385 6.55452C20.8235 8.42589 21.5481 11.4618 22.9027 13.5541C24.0047 13.5441 25.1058 13.5206 26.2068 13.4861L26.2449 8.73438C25.123 8.43541 23.9589 7.79937 23.302 7.37293C23.0642 6.80358 22.474 5.5746 21.3811 4.33427C20.0242 2.79453 17.6029 0.931779 13.7758 0.804299C8.4719 0.627823 6.65132 3.63517 5.32252 5.83137C4.79989 6.69515 4.34849 7.44143 3.7941 7.87514C3.14081 8.38687 2.07106 8.44222 0.967729 8.29569L0.570312 13.619C1.93722 13.619 3.30323 13.6167 4.66923 13.6127Z" fill="#C36264"/>
</svg>
