<svg width="26" height="38" viewBox="0 0 26 38" fill="none" xmlns="http://www.w3.org/2000/svg">
<path d="M23.2458 8.16673C23.2368 8.14391 23.2278 8.11653 23.2233 8.09371C22.8672 7.03487 22.457 5.98517 21.916 5.00849C21.5329 4.31933 21.0235 3.77166 20.4466 3.24225C19.2205 2.11952 17.7374 1.3117 16.1372 0.896385C15.3529 0.695572 14.546 0.586036 13.7346 0.558652C8.46517 0.380659 6.65759 3.40655 5.33685 5.61549C4.61111 6.8295 3.93045 8.07089 3.34896 9.36248C3.05596 10.0151 2.7855 10.6769 2.5511 11.3524C2.36178 11.8955 1.87045 12.8767 1.96962 13.4381C2.85763 13.5294 3.79523 13.4472 4.68775 13.4426C5.74705 11.3706 6.17076 8.69158 6.29247 7.76054C6.53588 7.39999 6.76127 7.02118 6.99567 6.62868C7.61773 5.58811 8.26232 4.51102 9.25401 3.72602C10.3674 2.84975 11.8099 2.45269 13.6715 2.51658C16.1417 2.59873 18.2017 3.55259 19.7884 5.35078C20.0859 5.68851 20.3384 6.02625 20.5547 6.34116C20.7396 8.2215 21.4608 11.2793 22.8041 13.3833C23.0971 13.3787 23.3946 13.3787 23.6876 13.3742C23.8408 13.3696 24.517 13.4563 24.6162 13.3468C24.7784 13.1734 24.3096 11.8863 24.2465 11.6308C23.9445 10.4624 23.6244 9.30315 23.2458 8.16673Z" fill="#C36264"/>
</svg>
