<svg width="27" height="14" viewBox="0 0 27 14" fill="none" xmlns="http://www.w3.org/2000/svg">
<path d="M18.1574 5.26846C18.9912 6.11591 19.7344 7.04683 20.4907 7.96232C21.1743 8.78981 21.2637 9.70667 21.6208 10.6893C21.8775 11.3961 22.1688 12.0952 22.5313 12.7553C23.7308 12.8143 24.9294 12.8941 26.1289 12.9467L26.2555 8.44684C25.692 8.3248 25.1363 8.14515 24.64 7.95643C23.2413 7.42519 22.0386 6.71701 21.604 6.44844C21.2955 5.9671 20.4553 4.74312 19.1754 3.52639C16.9855 1.44497 14.5407 0.377498 12.1067 0.440104C10.2462 0.487739 8.6443 1.15599 7.20887 2.48341C6.02524 3.57811 5.15053 4.94364 4.37883 6.14857C3.73915 7.14709 3.13532 8.09071 2.54464 8.5539C1.98117 8.99623 1.12825 8.96901 0.249482 8.73491L0.210938 13.5007C1.40093 13.5057 2.58818 13.5578 3.77681 13.5982C4.70185 12.0054 5.13556 9.89993 5.35605 8.40828C5.29117 8.44548 5.22631 8.48268 5.16189 8.51988C5.73216 8.19188 6.26976 6.79913 6.65447 6.22524C7.2075 5.40002 7.80091 4.59205 8.53268 3.91518C9.61833 2.91122 10.7679 2.4267 12.1507 2.38996C14.4872 2.32871 16.5727 3.6575 18.1574 5.26846Z" fill="#C36264"/>
</svg>
