<svg width="26" height="37" viewBox="0 0 26 37" fill="none" xmlns="http://www.w3.org/2000/svg">
<path d="M23.1967 10.5353C22.9397 9.81416 22.6647 9.09762 22.4033 8.37652C22.2545 7.97033 22.1013 7.55958 21.912 7.17164C21.7497 6.84304 21.5559 6.52813 21.353 6.21778C19.2524 3.04128 15.8942 0.0838415 11.9049 0.184248C10.0567 0.234451 8.46552 0.905351 7.03658 2.23802C5.86007 3.33793 4.99009 4.71168 4.22378 5.92568C3.80907 6.58289 3.40788 7.21272 3.02022 7.70562C2.96612 7.81059 2.91655 7.91556 2.87147 8.02053C2.83992 8.08899 2.81287 8.15745 2.78132 8.22591C2.7723 8.24873 2.71369 8.39021 2.70468 8.41303C2.43872 9.07937 2.15926 9.73658 1.99247 10.4349C1.90232 10.8091 1.8392 11.1879 1.78511 11.5713C1.78962 11.5439 1.76708 11.7173 1.76257 11.7265C1.74905 11.836 1.73553 11.941 1.72201 12.0505C1.69947 12.2376 1.68144 12.4247 1.65891 12.6164C1.63186 12.8629 1.6048 13.1093 1.57324 13.3603C2.25841 13.3786 2.94359 13.406 3.62876 13.4334C4.54832 11.8314 4.97657 9.71376 5.19745 8.21222C5.13434 8.24873 5.06671 8.28524 5.0036 8.32632C5.57157 7.99772 6.10347 6.59658 6.48663 6.01696C7.03657 5.18633 7.62709 4.37395 8.35283 3.69392C9.43017 2.68529 10.5751 2.19695 11.9455 2.16043C14.2669 2.09654 16.3404 3.43377 17.9136 5.05397C18.743 5.90743 19.4823 6.84304 20.2306 7.76496C20.9113 8.59559 20.9969 9.51751 21.353 10.5079C21.61 11.2199 21.8985 11.9227 22.2591 12.5845C22.791 12.6119 23.3274 12.6438 23.8593 12.6712C23.7511 12.6666 23.3003 10.8411 23.2237 10.622C23.2192 10.59 23.2102 10.5626 23.1967 10.5353Z" fill="#C36264"/>
</svg>
