<svg width="25" height="43" viewBox="0 0 25 43" fill="none" xmlns="http://www.w3.org/2000/svg">
<path d="M6.23329 2.96298C5.69978 1.22724 7.31665 0.41063 8.69352 1.3765C11.3552 3.24335 12.7443 6.40816 13.9569 9.31074C14.5186 10.655 17.0079 15.3509 15.4264 16.6153C13.8571 17.8697 8.20038 15.9924 8.12916 12.8888C8.0906 11.2048 8.14595 9.51081 7.92047 7.83722C7.67549 6.01845 6.75637 4.66334 6.23329 2.96298Z" fill="url(#paint0_linear_75_2805)"/>
<path d="M22.0232 26.8862C22.9855 20.5784 22.97 12.9677 20.1664 7.12991C19.5149 5.77299 18.628 4.53175 17.5714 3.46019C17.1567 3.03964 14.6865 0.514532 14.1675 1.13606C13.6381 1.76983 14.1167 3.18617 14.2106 3.89072C14.3676 5.0698 14.5164 6.24979 14.6393 7.43295C14.8884 9.8333 15.5086 12.4342 14.8598 14.8227C14.7169 15.3485 14.3866 15.8684 13.8685 16.0367C13.595 16.1257 13.2969 16.1075 13.0161 16.0467C11.2386 15.6616 9.95247 13.8696 8.85959 12.5548C7.2967 10.6753 6.3998 8.56394 5.61904 6.26612C5.23977 5.1501 4.80606 4.06583 3.8529 3.32227C3.62335 3.14307 1.37451 0.383878 1.02065 0.468713C-0.144368 0.747265 0.258035 3.89026 0.300226 4.60479C0.626868 10.1613 4.70081 20.0222 4.70081 20.0222C4.70081 20.0222 5.68119 26.232 4.70081 28.1932C3.72043 30.1548 20.7162 30.1549 22.0232 26.8862Z" fill="url(#paint1_linear_75_2805)"/>
<path d="M23.0041 27.8673C23.0036 27.8669 20.3892 24.9258 14.5061 24.9258C8.62295 24.9258 4.37394 26.887 3.39357 29.5014C2.41321 32.1159 2.08612 39.3064 5.6814 40.6139C6.81873 41.0276 8.06903 41.1302 9.0943 40.397C9.97123 39.7701 10.3178 38.6178 11.6366 39.0451C12.2114 39.2311 12.6855 39.6344 13.1727 39.9919C15.3149 41.5634 18.9556 43.1934 21.3954 41.3384C24.7307 38.8024 25.9084 31.1351 23.0041 27.8673Z" fill="url(#paint2_linear_75_2805)"/>
<path d="M23.0452 27.8849C23.0448 27.8845 20.4303 24.9434 14.5472 24.9434C8.66401 24.9434 4.41497 26.9046 3.43459 29.519C2.45422 32.134 2.12713 39.3242 5.72244 40.6316C6.85978 41.0454 8.11008 41.1479 9.13537 40.4148C10.0123 39.7878 10.3589 38.6355 11.6777 39.0628C12.2525 39.2489 12.7266 39.6522 13.2138 40.0096C15.3561 41.5812 18.9967 43.2112 21.4365 41.3561C24.7719 38.8201 25.9496 31.1527 23.0452 27.8849Z" fill="url(#paint3_linear_75_2805)"/>
<path d="M4.48199 28.1069C4.61765 27.8715 6.17516 28.8487 6.17516 28.8487L6.40925 29.1349L6.69462 29.5405L7.34113 29.6607L8.03708 29.8331L8.19452 30.2727L8.18907 31.2558L7.52442 31.7149L6.45916 31.7548L6.58257 31.978L6.91739 32.0524L7.9096 32.5265L8.3338 33.3385L7.95224 33.7055L7.82294 34.2032L6.8761 34.4532L7.46907 34.8664L7.46226 35.5801L8.12374 36.2578L7.76987 36.863L8.34786 37.4614L7.86378 38.2666L6.93145 39.0696C6.93145 39.0696 7.24948 41.1959 5.57039 40.6279C4.88986 40.4251 3.93712 39.3123 3.48343 38.1328C2.91451 36.7841 2.86914 34.7884 2.86914 33.6965C2.86914 32.6045 3.0302 28.6967 4.48199 28.1069Z" fill="black"/>
<defs>
<linearGradient id="paint0_linear_75_2805" x1="12.7714" y1="17.5087" x2="5.56062" y2="-17.9111" gradientUnits="userSpaceOnUse">
<stop offset="0.1599" stop-color="#BFAB8D"/>
<stop offset="0.5078" stop-color="#E7E1D2"/>
<stop offset="0.7297" stop-color="#CCBFA6"/>
</linearGradient>
<linearGradient id="paint1_linear_75_2805" x1="27.9701" y1="14.9203" x2="0.877043" y2="15.0182" gradientUnits="userSpaceOnUse">
<stop offset="0.1599" stop-color="#BFAB8D"/>
<stop offset="0.5078" stop-color="#E7E1D2"/>
<stop offset="0.7297" stop-color="#CCBFA6"/>
</linearGradient>
<linearGradient id="paint2_linear_75_2805" x1="29.6236" y1="33.4986" x2="-2.55346" y2="33.6148" gradientUnits="userSpaceOnUse">
<stop stop-color="#94938C"/>
<stop offset="0.2296" stop-color="#EDEBE1"/>
<stop offset="0.7988" stop-color="#EDEBE1"/>
<stop offset="1" stop-color="#94938C"/>
</linearGradient>
<linearGradient id="paint3_linear_75_2805" x1="29.9064" y1="33.5152" x2="-2.65302" y2="33.6329" gradientUnits="userSpaceOnUse">
<stop stop-color="#94938C"/>
<stop offset="0.2296" stop-color="#EDEBE1"/>
<stop offset="0.7988" stop-color="#EDEBE1"/>
<stop offset="1" stop-color="#94938C"/>
</linearGradient>
</defs>
</svg>
