<svg width="20" height="61" viewBox="0 0 20 61" fill="none" xmlns="http://www.w3.org/2000/svg">
<path d="M6.62393 34.7564C6.62393 34.7564 3.35568 36.0639 2.37485 43.5811C2.37485 43.5811 1.39448 51.4255 1.06738 53.7133C0.74074 56.0011 0.740742 58.9427 4.33562 59.9231C7.93095 60.9034 11.1992 60.2497 13.1604 59.5964C15.1216 58.9427 18.0632 56.9815 18.7169 54.6937C19.3707 52.4058 18.717 41.2933 17.7366 39.3321C16.7562 37.3709 14.4683 32.1415 6.62393 34.7564Z" fill="url(#paint0_linear_75_2854)"/>
<path d="M9.89283 3.70575C9.89283 3.70575 2.71843 19.3908 5.65189 35.8979C5.65189 35.8979 16.0542 34.6649 16.5686 37.4885C15.1096 30.6213 14.4087 23.3944 14.6959 16.3844C14.812 13.5403 15.013 10.7004 15.0928 7.85499C15.1446 6.00221 15.4667 3.8854 14.6714 2.15965C14.3375 1.43424 13.7854 0.368117 12.8794 0.283281C11.3419 0.139469 10.3538 2.64599 9.89283 3.70575Z" fill="url(#paint1_linear_75_2854)"/>
<path d="M18.8516 47.258C18.7228 44.9543 18.4887 42.9482 18.4887 42.9482C18.4887 42.9482 18.3526 41.5872 18.2165 41.2697C18.0804 40.9521 17.0751 41.5772 17.0751 41.5772L16.4876 41.8281L16.2031 42.3734L15.5566 42.534L14.8612 42.7645L14.7042 43.3561L14.7114 44.6798L15.3765 45.2995L16.4422 45.3553L16.3193 45.6557L15.9844 45.7555L14.9932 46.392L14.5708 47.4844L14.9532 47.9793L15.0835 48.6499L16.0307 48.9883L15.4387 49.5436L15.4469 50.5044L14.7867 51.4163L15.1415 52.232L14.5645 53.0368L15.0503 54.122L15.984 55.2049C15.984 55.2049 16.6604 57.5358 17.7111 56.457C18.7618 55.3782 18.8526 54.1079 18.9887 53.1552C19.1248 52.2025 18.8516 47.8932 18.8516 47.258Z" fill="black"/>
<defs>
<linearGradient id="paint0_linear_75_2854" x1="-3.5415" y1="47.8805" x2="22.4691" y2="46.5773" gradientUnits="userSpaceOnUse">
<stop stop-color="#94938C"/>
<stop offset="0.1599" stop-color="#D1CFC6"/>
<stop offset="0.2296" stop-color="#EDEBE1"/>
<stop offset="0.7988" stop-color="#EDEBE1"/>
<stop offset="0.9762" stop-color="#9F9E96"/>
<stop offset="1" stop-color="#94938C"/>
</linearGradient>
<linearGradient id="paint1_linear_75_2854" x1="13.9395" y1="18.8959" x2="4.95849" y2="19.0564" gradientUnits="userSpaceOnUse">
<stop stop-color="#BFAB8D"/>
<stop offset="0.5078" stop-color="#E7E1D2"/>
<stop offset="1" stop-color="#CCBFA6"/>
</linearGradient>
</defs>
</svg>
