<svg width="20" height="70" viewBox="0 0 20 70" fill="none" xmlns="http://www.w3.org/2000/svg">
<path d="M3.94922 45.5081C3.94922 45.5081 16.0308 42.4799 17.0348 44.2066L12.1556 9.65396C12.1556 9.65396 8.73586 0.773438 7.42839 0.773438C6.12092 0.773438 4.81345 4.69538 4.81345 4.69538C4.81345 4.69538 4.24047 37.2383 3.94922 45.5081Z" fill="url(#paint0_linear_75_2864)"/>
<path d="M6.2724 42.0116C6.27194 42.0125 -0.918061 51.4905 0.389376 59.3344C0.811276 61.8654 1.67505 64.5107 3.20069 66.598C3.94469 67.616 4.91143 68.5374 6.13041 68.9412C7.7427 69.4752 9.81182 69.056 11.4282 68.6953C12.2239 68.5179 13.0055 68.2734 13.7468 67.9322C18.9294 65.5487 20.2985 59.4033 19.8816 54.1953C19.5886 50.5369 18.478 46.9879 17.0345 43.6353C16.0981 41.4604 13.917 40.8906 11.7399 40.5826C10.1013 40.3503 7.38657 40.5427 6.2724 42.0116Z" fill="url(#paint1_linear_75_2864)"/>
<path d="M19.9171 54.8058C19.7883 52.5021 19.1164 49.3509 18.9803 49.0333C18.8442 48.7158 17.8388 49.3409 17.8388 49.3409L17.2513 49.5918L16.9668 50.1371L16.3203 50.2977L15.6248 50.5282L15.4678 51.1197L15.4751 52.4435L16.1402 53.0632L17.2059 53.119L17.083 53.4194L16.7481 53.5192L15.7568 54.1557L15.3345 55.2481L15.7169 55.743L15.8471 56.4135L16.7944 56.752L16.2024 57.3073L16.2105 58.2681L15.5504 59.18L15.9052 59.9957L15.3281 60.8005L15.814 61.8857L16.7477 62.9686C16.7477 62.9686 17.1265 65.3843 17.9218 64.1054C20.2347 60.3858 19.9171 55.4409 19.9171 54.8058Z" fill="black"/>
<defs>
<linearGradient id="paint0_linear_75_2864" x1="15.3031" y1="23.437" x2="5.40944" y2="23.1323" gradientUnits="userSpaceOnUse">
<stop stop-color="#BFAB8D"/>
<stop offset="0.5078" stop-color="#E7E1D2"/>
<stop offset="1" stop-color="#CCBFA6"/>
</linearGradient>
<linearGradient id="paint1_linear_75_2864" x1="26.2311" y1="54.5431" x2="-6.72076" y2="55.1321" gradientUnits="userSpaceOnUse">
<stop stop-color="#94938C"/>
<stop offset="0.0617" stop-color="#A4A29B"/>
<stop offset="0.1809" stop-color="#CCCAC2"/>
<stop offset="0.2666" stop-color="#EDEBE1"/>
<stop offset="0.7117" stop-color="#EDEBE1"/>
<stop offset="0.7719" stop-color="#E0DED5"/>
<stop offset="0.883" stop-color="#BEBDB4"/>
<stop offset="1" stop-color="#94938C"/>
</linearGradient>
</defs>
</svg>
