<svg width="20" height="58" viewBox="0 0 20 58" fill="none" xmlns="http://www.w3.org/2000/svg">
<path d="M9.97656 56.2736C9.97656 56.2736 15.3226 57.1088 17.0638 54.2674C18.8046 51.4261 10.5264 54.5841 9.97656 56.2736Z" fill="#D8D6D0"/>
<path d="M15.3413 38.3526C15.3413 38.3526 15.0147 27.24 14.0338 24.2984C13.0535 21.3568 12.0726 11.5518 12.3997 8.93682C12.7268 6.32188 12.7264 2.39993 12.7264 2.39993C12.7264 2.39993 13.053 -0.541643 10.1114 1.7462C7.16987 4.03404 3.57457 15.1466 3.90166 19.7223C4.22876 24.298 4.33173 38.0867 4.28001 38.0563C4.22875 38.0259 15.3413 38.3526 15.3413 38.3526Z" fill="url(#paint0_linear_75_2873)"/>
<path d="M4.55659 37.0452C4.55659 37.0452 -2.96067 48.1578 2.59539 54.041C3.27407 54.7596 4.34154 55.265 5.16857 55.7908C6.02237 56.3339 6.93335 57.0879 7.97406 57.2054C9.16766 57.3405 10.0414 56.0916 11.2146 55.848C13.0796 55.4605 14.9047 55.7672 16.4976 54.4951C17.8127 53.4449 18.6103 51.8076 18.8811 50.168C19.2186 48.1224 18.8693 46.0437 18.4619 44.0353C18.2882 43.1792 17.9924 42.3645 17.6462 41.5628C17.2774 40.7081 16.6123 39.8738 16.3229 39.0055C16.3229 39.0064 13.708 31.1624 4.55659 37.0452Z" fill="url(#paint1_linear_75_2873)"/>
<path d="M19.0152 46.5603C18.8886 44.6435 17.8351 42.0608 17.6995 41.7968C17.5638 41.5328 17.0285 41.9483 17.0285 41.9483L16.4405 42.1579L16.1555 42.612L15.509 42.7463L14.8135 42.9387L14.656 43.4309L14.6619 44.5324L15.3266 45.0473L16.3919 45.0927L16.2685 45.3426L15.9337 45.4261L14.9414 45.9569L14.5181 46.8665L14.9001 47.278L15.0294 47.836L15.9768 48.1168L15.3838 48.5795L15.391 49.3789L14.73 50.1383L15.0839 50.817L14.5059 51.4871L14.9909 52.3899L15.9237 53.2899C15.9237 53.2899 16.3003 55.2997 17.0965 54.2349C19.4145 51.1368 19.0143 47.0888 19.0152 46.5603Z" fill="black"/>
<defs>
<linearGradient id="paint0_linear_75_2873" x1="14.4417" y1="19.6614" x2="1.54912" y2="19.2643" gradientUnits="userSpaceOnUse">
<stop stop-color="#BFAB8D"/>
<stop offset="0.5078" stop-color="#E7E1D2"/>
<stop offset="1" stop-color="#CCBFA6"/>
</linearGradient>
<linearGradient id="paint1_linear_75_2873" x1="22.593" y1="46.4417" x2="-4.13326" y2="45.6184" gradientUnits="userSpaceOnUse">
<stop stop-color="#94938C"/>
<stop offset="0.0311" stop-color="#A6A59D"/>
<stop offset="0.0939" stop-color="#C5C3BB"/>
<stop offset="0.1552" stop-color="#DBD9D0"/>
<stop offset="0.2138" stop-color="#E8E7DD"/>
<stop offset="0.2666" stop-color="#EDEBE1"/>
<stop offset="0.7117" stop-color="#EDEBE1"/>
<stop offset="0.7637" stop-color="#E7E5DB"/>
<stop offset="0.835" stop-color="#D5D3CA"/>
<stop offset="0.9175" stop-color="#B8B7AF"/>
<stop offset="1" stop-color="#94938C"/>
</linearGradient>
</defs>
</svg>
