<svg width="19" height="55" viewBox="0 0 19 55" fill="none" xmlns="http://www.w3.org/2000/svg">
<path d="M9.51758 54.2877C9.51758 54.2877 14.8163 55.3832 16.694 52.631C18.5717 49.8789 10.1491 52.6274 9.51758 54.2877Z" fill="#D8D6D0"/>
<path d="M8.73959 54.5249C8.73959 54.5249 3.09641 54.9064 1.69231 51.2473C0.288209 47.5882 8.40706 52.4068 8.73959 54.5249Z" fill="#D8D6D0"/>
<path d="M6.48663 33.9919C6.40361 34.0328 6.32467 34.0791 6.25027 34.1312C4.81256 35.1356 3.60079 36.7629 2.68663 38.2351C1.29746 40.4716 0.305708 43.0299 0.572925 45.6992C0.755304 47.5239 0.959929 49.6221 1.87182 51.2607C2.40444 52.2179 3.60168 52.6566 4.57664 52.996C5.41186 53.2868 6.2548 53.5599 7.07369 53.8951C7.82997 54.2045 8.57219 54.7321 9.4242 54.6641C10.4037 54.5856 11.0878 53.818 11.8713 53.3199C13.1008 52.5387 14.5726 52.1381 16.0289 52.2084C16.2847 52.2207 16.547 52.2465 16.7924 52.1717C17.1504 52.0628 17.4121 51.7588 17.6231 51.4503C18.584 50.0467 18.5586 48.6866 18.5667 47.0543C18.5754 45.3957 18.5432 43.7271 18.2269 42.0939C17.6639 39.1837 15.7412 36.7761 14.7304 34.0291C14.6724 33.8708 14.6143 33.7089 14.5077 33.5782C14.3253 33.3546 14.0268 33.2579 13.7391 33.2348C13.2002 33.1912 12.6571 33.2747 12.1231 33.3319C11.1105 33.4408 10.122 33.5537 9.1039 33.6236C8.29635 33.6794 7.23792 33.6204 6.48663 33.9919Z" fill="url(#paint0_linear_75_2885)"/>
<path d="M4.34358 35.9056C4.37987 35.9351 4.42343 35.9583 4.47651 35.9728C4.74325 36.0476 5.56524 35.6452 5.85602 35.569C6.82001 35.3168 7.79491 35.1058 8.77569 34.9303C9.81499 34.7443 10.8647 34.5678 11.9231 34.5592C12.4833 34.5546 13.0467 34.5936 13.5952 34.7125C14.0824 34.8182 14.6073 35.1521 15.0686 35.1938C15.4048 33.8832 15.0636 32.3589 14.9856 31.0278C14.899 29.548 14.7629 28.0713 14.5782 26.6005C14.2316 23.8404 13.543 21.1833 13.0404 18.4581C12.5514 15.8074 12.4153 13.0051 12.4738 10.3058C12.5015 9.03641 12.5781 7.76478 12.7237 6.50359C12.8476 5.42704 13.1579 4.46346 13.0476 3.34789C12.9356 2.21373 12.4035 0.496161 10.906 0.960714C9.77869 1.31049 9.07689 2.55036 8.50802 3.49308C7.42427 5.28823 6.63539 7.24397 5.90865 9.21061C5.18282 11.1745 4.51369 13.1725 4.1349 15.2357C3.80419 17.0354 3.84457 18.797 3.87587 20.6139C3.92486 23.4983 3.99381 26.3823 4.06504 29.2662C4.11086 31.1272 4.00472 33.0684 4.15125 34.9557C4.17801 35.3086 4.12629 35.7278 4.34358 35.9056Z" fill="url(#paint1_linear_75_2885)"/>
<path d="M18.4327 43.1127C18.3061 41.1959 17.4343 39.6567 17.2987 39.3926C17.1631 39.1286 16.074 39.4834 16.074 39.4834L15.8404 39.8041L15.5555 40.2582L14.9091 40.3925L14.2138 40.5849L14.0564 41.0771L14.0623 42.1786L14.7268 42.6935L15.7918 42.7389L15.6685 42.9888L15.3337 43.0723L14.3417 43.6031L13.9185 44.5127L14.3004 44.9242L14.4297 45.4822L15.3768 45.763L14.784 46.2257L14.7912 47.0251L14.1303 47.7845L14.4841 48.4632L13.9062 49.1333L14.3911 50.0361L15.3237 50.9362C15.3237 50.9362 15.2117 52.8211 16.89 52.186C17.5704 51.9592 17.9002 50.9724 18.1601 50.2806C19.1562 47.6321 18.4322 43.5319 18.4327 43.1127Z" fill="black"/>
<defs>
<linearGradient id="paint0_linear_75_2885" x1="24.5166" y1="44.3515" x2="-5.72055" y2="43.42" gradientUnits="userSpaceOnUse">
<stop stop-color="#94938C"/>
<stop offset="0.2666" stop-color="#EDEBE1"/>
<stop offset="0.7117" stop-color="#EDEBE1"/>
<stop offset="1" stop-color="#94938C"/>
</linearGradient>
<linearGradient id="paint1_linear_75_2885" x1="17.9778" y1="19.4813" x2="3.61902" y2="17.9734" gradientUnits="userSpaceOnUse">
<stop stop-color="#BFAB8D"/>
<stop offset="0.5078" stop-color="#E7E1D2"/>
<stop offset="1" stop-color="#CCBFA6"/>
</linearGradient>
</defs>
</svg>
