<svg width="26" height="51" viewBox="0 0 26 51" fill="none" xmlns="http://www.w3.org/2000/svg">
<path d="M14.6563 2.26502C14.6563 2.26502 15.5623 0.210811 17.396 0.72527C19.2302 1.23973 19.864 6.03364 19.5319 9.56772C19.2003 13.1018 17.6283 24.3146 14.9258 24.5456C12.2233 24.7765 7.28094 18.4256 9.52935 14.8874C11.7782 11.3497 15.4988 5.139 14.6563 2.26502Z" fill="url(#paint0_linear_75_2899)"/>
<path d="M2.83241 32.7156C6.03126 32.4851 9.66111 30.9213 12.8659 30.7947C14.8761 30.7153 16.8872 30.5824 18.8997 30.6468C19.8302 30.6763 21.2139 33.157 22.1162 33.0422C22.7015 32.9678 22.3154 30.5643 22.2914 29.9423C22.271 29.4129 22.2261 28.8857 22.3036 28.3581C22.5822 26.4563 23.6284 24.6507 24.0634 22.749C24.567 20.5491 24.9073 18.3067 25.1164 16.0601C25.3383 13.677 25.4321 11.2427 25.12 8.86272C24.9857 7.83653 24.8025 6.79445 24.3951 5.83676C24.0779 5.09139 23.309 3.62832 22.3263 3.74037C21.9657 3.78166 21.6426 3.98672 21.3727 4.23033C20.8437 4.70805 20.4753 5.34409 20.2317 6.01415C19.7295 7.39647 19.7404 8.88495 19.6437 10.333C19.5439 11.8261 19.137 13.2088 18.8022 14.6578C18.1806 17.3504 17.4466 20.5192 15.6827 22.7263C15.2535 23.2634 14.6084 23.698 13.9238 23.6332C13.5727 23.5996 13.2447 23.4381 12.9579 23.2326C11.9249 22.4918 11.3996 21.2133 11.2204 19.9549C10.8534 17.3762 11.1297 14.5317 11.8188 12.032C12.223 10.5649 12.9697 9.25106 13.4261 7.81657C13.9084 6.29996 14.5626 3.29125 12.4244 2.71373C11.5616 2.48055 10.6429 2.92151 9.9982 3.54031C7.60643 5.83359 5.99088 9.24288 4.60763 12.199C3.75926 14.0114 2.94039 15.885 2.41821 17.8222C2.10427 18.9867 2.13783 20.1472 2.17095 21.3499C2.2635 24.712 2.45904 29.3825 2.83241 32.7156Z" fill="url(#paint1_linear_75_2899)"/>
<path d="M21.7733 34.883C22.0455 34.966 22.4356 35.7055 22.5867 35.9183C23.1851 36.7625 23.7032 37.6712 24.0911 38.6321C25.1363 41.2212 24.9848 44.0607 23.024 46.1816C23.0009 46.2065 22.9773 46.2315 22.9541 46.2564C22.8484 46.3676 22.7382 46.476 22.652 46.6026C22.4102 46.9578 22.3526 47.4028 22.1235 47.7671C21.9075 48.1115 21.5895 48.4336 21.281 48.6935C20.5556 49.306 19.5893 49.7315 18.6243 49.6363C18.2927 49.6036 17.9765 49.4856 17.6648 49.3686C16.3115 48.8605 14.842 48.2812 14.1243 46.9374C14.206 47.0907 13.8335 47.7145 13.7396 47.8415C13.5146 48.1473 13.2388 48.2802 12.8908 48.4145C11.7416 48.8587 10.4908 49.2153 9.38933 49.766C8.62807 50.0591 7.98568 50.3376 7.21126 50.0836C6.76031 49.9357 6.30347 49.8059 5.85751 49.6426C5.02275 49.3373 3.63404 48.8029 3.63404 47.72C3.63404 46.0455 2.23855 41.0225 5.58756 35.9995C8.93521 30.9783 21.7628 34.8798 21.7733 34.883Z" fill="#D8D6D0"/>
<path d="M21.7904 30.7556C22.1093 30.8527 22.5666 31.7192 22.7431 31.9682C23.444 32.9572 24.0505 34.0215 24.5051 35.1466C25.7295 38.1793 25.5517 41.5052 23.2557 43.9885C23.2285 44.0176 23.2008 44.047 23.1736 44.0761C23.0497 44.2063 22.9209 44.3333 22.8197 44.4817C22.5362 44.8981 22.4691 45.4185 22.201 45.8458C21.9478 46.2487 21.5754 46.6261 21.2143 46.931C20.3646 47.6482 19.2327 48.1464 18.1031 48.0352C17.7148 47.9971 17.3446 47.8587 16.9794 47.7217C15.3943 47.127 13.6731 46.4478 12.8325 44.8741C12.9282 45.0533 12.4918 45.7841 12.382 45.9334C12.1185 46.2913 11.795 46.4469 11.3881 46.6044C10.0421 47.1247 8.57722 47.5421 7.28702 48.1872C6.39559 48.5306 5.64343 48.8568 4.73612 48.5592C4.20806 48.3859 3.67274 48.2339 3.15058 48.0429C2.17295 47.6854 0.546599 47.0594 0.546599 45.7909C0.546599 43.8297 -1.08748 37.9466 2.83437 32.0635C6.75441 26.1826 21.7777 30.7519 21.7904 30.7556Z" fill="url(#paint2_linear_75_2899)"/>
<path d="M23.5547 33.2793C23.4191 33.0153 22.3298 33.3701 22.3298 33.3701L22.0961 33.6908L21.8113 34.1449L21.1648 34.2792L20.4693 34.4716L20.3118 34.9638L20.3178 36.0653L20.9824 36.5802L22.0481 36.6256L21.9247 36.8756L21.5899 36.9591L20.5977 37.4894L20.1744 38.399L20.5564 38.8105L20.6857 39.3685L21.6329 39.6493L21.04 40.1121L21.0473 40.9114L20.3862 41.6709L20.7401 42.3496L20.1621 43.0196L20.6471 43.9224L21.5799 44.823C21.5799 44.823 21.3285 46.7865 23.0071 46.1513C23.6876 45.9245 24.2897 44.1665 24.5496 43.4747C25.1176 41.9635 25.2442 40.044 25.1848 38.7565C25.1603 38.2257 25.1517 36.7939 24.7311 35.4901C24.384 34.414 23.6164 33.3987 23.5547 33.2793Z" fill="black"/>
<defs>
<linearGradient id="paint0_linear_75_2899" x1="11.1397" y1="23.5306" x2="29.7015" y2="-21.835" gradientUnits="userSpaceOnUse">
<stop offset="0.1599" stop-color="#BFAB8D"/>
<stop offset="0.5078" stop-color="#E7E1D2"/>
<stop offset="0.7297" stop-color="#CCBFA6"/>
</linearGradient>
<linearGradient id="paint1_linear_75_2899" x1="24.02" y1="17.5301" x2="3.10923" y2="18.4756" gradientUnits="userSpaceOnUse">
<stop offset="0.1599" stop-color="#BFAB8D"/>
<stop offset="0.5078" stop-color="#E7E1D2"/>
<stop offset="0.7297" stop-color="#CCBFA6"/>
</linearGradient>
<linearGradient id="paint2_linear_75_2899" x1="31.0462" y1="41.1952" x2="-3.77547" y2="37.5385" gradientUnits="userSpaceOnUse">
<stop stop-color="#94938C"/>
<stop offset="0.2296" stop-color="#EDEBE1"/>
<stop offset="0.7988" stop-color="#EDEBE1"/>
<stop offset="1" stop-color="#94938C"/>
</linearGradient>
</defs>
</svg>
