<svg width="24" height="42" viewBox="0 0 24 42" fill="none" xmlns="http://www.w3.org/2000/svg">
<path d="M13.7933 3.53872C14.3142 1.79936 16.1126 2.01848 16.7205 3.58636C17.896 6.61732 17.2926 10.0208 16.6883 13.108C16.4084 14.5375 15.8685 19.8254 13.851 19.9978C11.8493 20.1689 8.18895 15.4652 9.85398 12.8448C10.7573 11.4235 11.7449 10.0457 12.4872 8.52908C13.2943 6.8809 13.2834 5.24316 13.7933 3.53872Z" fill="url(#paint0_linear_75_2908)"/>
<path d="M3.33544 26.8383C3.40077 26.8751 3.60945 26.4087 3.79681 26.4291C4.04133 26.4554 4.34619 26.3701 4.59071 26.3452C5.43543 26.2599 6.28149 26.1859 7.12801 26.122C9.47978 25.9446 11.8424 25.8366 14.2015 25.8842C15.8423 25.9174 17.5082 26.0045 19.1173 26.3479C20.1113 26.5598 21.4192 26.8751 22.0271 27.7788C22.0271 27.7788 20.6575 22.2626 21.6383 18.0136C22.6191 13.7645 23.9261 2.32528 21.3112 1.99819C19.6676 1.79268 18.4287 5.61529 18 6.67869C16.8631 9.49868 15.973 12.5128 15.1669 15.4753C15.1442 15.5579 15.121 15.6427 15.0707 15.7121C14.6293 16.3227 13.0968 16.565 12.5052 16.1567C12.0099 15.8146 11.8873 15.1473 11.8066 14.5503C11.6632 13.491 11.5199 12.4316 11.3765 11.3723C11.0359 8.85538 10.6929 6.3221 10.7537 3.77567C10.7704 3.07657 11.5671 -0.483828 9.87176 0.364077C7.02369 1.78814 5.39956 5.72688 4.60883 8.55369C3.54001 12.3731 3.50056 16.4602 3.35312 20.399C3.28552 22.2046 3.19526 24.0351 3.31276 25.8407C3.3359 26.1941 3.24154 26.7861 3.33544 26.8383Z" fill="url(#paint1_linear_75_2908)"/>
<path d="M4.4314 25.6851C5.30834 25.0777 6.48288 25.0051 7.50137 24.8014C9.03523 24.4943 10.5827 24.2384 12.1456 24.144C15.5912 23.9354 19.3807 24.5673 21.6963 27.3705C22.5124 28.3581 23.0863 29.5408 23.3739 30.7884C23.6974 32.193 23.4365 33.1003 22.9892 34.4273C22.5791 35.6435 22.0438 36.9605 21.3823 38.062C20.6651 39.256 19.5177 40.29 18.0751 40.2691C16.5122 40.2464 14.9847 39.6349 13.9408 38.4499C13.8859 38.3877 13.8296 38.322 13.7525 38.2907C13.6604 38.2535 13.5565 38.273 13.4603 38.2952C11.3594 38.7765 9.25346 40.1502 7.31539 41.0789C6.38899 41.5226 5.85954 41.6578 4.92135 41.1651C3.75088 40.5504 2.63623 39.7946 1.76972 38.796C-0.793511 35.8427 0.183686 31.6467 2.05734 28.6013C2.64893 27.64 3.38162 26.5258 4.26809 25.8081C4.32117 25.7641 4.37559 25.7237 4.4314 25.6851Z" fill="url(#paint2_linear_75_2908)"/>
<path d="M21.378 27.0245C21.2423 26.789 20.1531 27.1062 20.1531 27.1062L19.9194 27.3924L19.634 27.798L18.9876 27.9182L18.2917 28.0906L18.1342 28.5302L18.1397 29.5133L18.8043 29.9724L19.8695 30.0124L19.7461 30.2356L19.4113 30.31L18.4192 30.7841L17.995 31.5961L18.3765 31.9631L18.5058 32.4608L19.4526 32.7108L18.8597 33.1241L18.8664 33.8377L18.205 34.5155L18.5589 35.1207L17.9805 35.7191L18.4645 36.5244L19.3968 37.3274C19.3968 37.3274 19.1445 39.0799 20.8231 38.5123C21.5036 38.3096 22.1065 36.7403 22.3669 36.1229C22.9358 34.7741 23.458 33.0461 23.458 31.9541C23.458 30.8621 23.3677 29.3677 21.378 27.0245Z" fill="black"/>
<defs>
<linearGradient id="paint0_linear_75_2908" x1="11.1168" y1="19.2803" x2="24.8039" y2="-14.1724" gradientUnits="userSpaceOnUse">
<stop offset="0.1599" stop-color="#BFAB8D"/>
<stop offset="0.5078" stop-color="#E7E1D2"/>
<stop offset="0.7297" stop-color="#CCBFA6"/>
</linearGradient>
<linearGradient id="paint1_linear_75_2908" x1="22.175" y1="16.2868" x2="4.48632" y2="12.9315" gradientUnits="userSpaceOnUse">
<stop offset="0.1599" stop-color="#BFAB8D"/>
<stop offset="0.5078" stop-color="#E7E1D2"/>
<stop offset="0.7297" stop-color="#CCBFA6"/>
</linearGradient>
<linearGradient id="paint2_linear_75_2908" x1="-5.03936" y1="32.7548" x2="28.2462" y2="32.8393" gradientUnits="userSpaceOnUse">
<stop stop-color="#94938C"/>
<stop offset="0.2296" stop-color="#EDEBE1"/>
<stop offset="0.7988" stop-color="#EDEBE1"/>
<stop offset="1" stop-color="#94938C"/>
</linearGradient>
</defs>
</svg>
