<svg width="24" height="43" viewBox="0 0 24 43" fill="none" xmlns="http://www.w3.org/2000/svg">
<path d="M19.0041 2.98053C19.5376 1.24481 17.9208 0.428217 16.5439 1.39407C13.8824 3.26089 12.4933 6.42565 11.2807 9.32819C10.7191 10.6724 8.22989 15.3683 9.81132 16.6326C11.3805 17.887 17.0371 16.0097 17.1083 12.9062C17.1469 11.2222 17.0915 9.52826 17.317 7.85469C17.5624 6.03641 18.481 4.68131 19.0041 2.98053Z" fill="url(#paint0_linear_75_2920)"/>
<path d="M3.21355 26.9045C2.25133 20.5968 2.26674 12.9861 5.07037 7.14835C5.72183 5.79144 6.60874 4.5502 7.66532 3.47865C8.07997 3.0581 10.5497 0.533004 11.0691 1.15452C11.5985 1.78829 11.12 3.20463 11.0261 3.90918C10.8691 5.08825 10.7203 6.26824 10.5973 7.45139C10.3483 9.85173 9.7281 12.4526 10.3768 14.8411C10.5197 15.3669 10.85 15.8868 11.3681 16.0551C11.6417 16.1441 11.9397 16.1259 12.2205 16.0651C13.998 15.68 15.2841 13.888 16.377 12.5733C17.9398 10.6937 18.8367 8.58238 19.6175 6.28457C19.9967 5.16855 20.4304 4.0843 21.3836 3.34074C21.6131 3.16155 22.0763 2.74598 22.4302 2.83081C23.5947 3.10936 23.1928 6.25236 23.1506 6.96688C22.824 12.5234 20.5357 20.0406 20.5357 20.0406C20.5357 20.0406 19.5553 26.2504 20.5357 28.2116C21.516 30.1727 4.521 30.1727 3.21355 26.9045Z" fill="url(#paint1_linear_75_2920)"/>
<path d="M2.23368 27.8849C2.23368 27.8845 4.84871 24.9434 10.732 24.9434C16.6153 24.9434 20.8645 26.9046 21.8449 29.519C22.8253 32.1335 23.1524 39.3242 19.557 40.6316C18.4196 41.0454 17.1693 41.1479 16.144 40.4148C15.267 39.7878 14.9204 38.6355 13.6015 39.0628C13.0267 39.2489 12.5526 39.6522 12.0654 40.0096C9.9231 41.5812 6.28232 43.2112 3.84243 41.3561C0.506979 38.8201 -0.670771 31.1527 2.23368 27.8849Z" fill="url(#paint2_linear_75_2920)"/>
<path d="M20.7958 28.1069C20.6602 27.8715 19.1028 28.8487 19.1028 28.8487L18.8687 29.1349L18.5833 29.5405L17.9368 29.6607L17.2409 29.8331L17.0835 30.2727L17.0889 31.2558L17.7536 31.7149L18.8187 31.7549L18.6954 31.9781L18.3606 32.0525L17.3684 32.5266L16.9442 33.3386L17.3257 33.7056L17.455 34.2033L18.4018 34.4533L17.8089 34.8666L17.8157 35.5802L17.1543 36.258L17.5081 36.8632L16.9297 37.4615L17.4137 38.2668L18.346 39.0698C18.346 39.0698 18.028 41.1961 19.707 40.6282C20.3875 40.4254 21.3402 39.3125 21.7939 38.133C22.3628 36.7842 22.4081 34.7885 22.4081 33.6966C22.4081 32.6046 22.2475 28.6967 20.7958 28.1069Z" fill="black"/>
<defs>
<linearGradient id="paint0_linear_75_2920" x1="12.4681" y1="17.529" x2="19.6789" y2="-17.8903" gradientUnits="userSpaceOnUse">
<stop offset="0.1599" stop-color="#BFAB8D"/>
<stop offset="0.5078" stop-color="#E7E1D2"/>
<stop offset="0.7297" stop-color="#CCBFA6"/>
</linearGradient>
<linearGradient id="paint1_linear_75_2920" x1="-2.30538" y1="15.2498" x2="22.6319" y2="15.3399" gradientUnits="userSpaceOnUse">
<stop offset="0.1599" stop-color="#BFAB8D"/>
<stop offset="0.5078" stop-color="#E7E1D2"/>
<stop offset="0.7297" stop-color="#CCBFA6"/>
</linearGradient>
<linearGradient id="paint2_linear_75_2920" x1="-4.62763" y1="33.5152" x2="27.9326" y2="33.6329" gradientUnits="userSpaceOnUse">
<stop stop-color="#94938C"/>
<stop offset="0.2296" stop-color="#EDEBE1"/>
<stop offset="0.7988" stop-color="#EDEBE1"/>
<stop offset="1" stop-color="#94938C"/>
</linearGradient>
</defs>
</svg>
