<svg width="25" height="40" viewBox="0 0 25 40" fill="none" xmlns="http://www.w3.org/2000/svg">
<path d="M9.46194 36.8701C9.16706 38.7234 10.353 39.2142 11.283 37.9626C13.0804 35.5431 13.9138 32.0789 14.6343 28.9145C14.9677 27.4491 16.5075 22.2214 15.3252 21.2733C14.152 20.3328 10.2305 23.3738 10.3294 26.5077C10.3829 28.2077 10.5036 29.899 10.4242 31.627C10.3375 33.5043 9.75093 35.0541 9.46194 36.8701Z" fill="url(#paint0_linear_75_3029)"/>
<path d="M21.9314 13.5602C21.9314 13.5602 20.6239 17.1555 20.6239 21.0775C20.6239 24.9994 20.9506 29.9022 18.6627 33.4975C16.3749 37.0928 15.7211 38.7269 15.7211 38.7269C15.7211 38.7269 13.7599 41.0148 12.7796 38.4003C12.7796 38.4003 15.0674 30.556 13.7599 26.634C12.4525 22.7121 11.145 24.0191 10.8184 24.6728C10.4917 25.3265 5.91558 32.8438 5.26184 34.805C4.60811 36.7662 3.62773 38.7269 2.974 38.7269C2.32026 38.7269 1.33988 37.0928 0.68615 34.1512C0.0324157 31.2097 0.686153 27.9415 1.99362 25.6532C3.30109 23.3653 4.60856 13.2331 4.60856 11.599C4.60856 9.96491 20.2968 12.9069 21.9314 13.5602Z" fill="url(#paint1_linear_75_3029)"/>
<path d="M14.3804 3.29148C14.6907 3.21798 15.0119 3.0152 15.3848 2.76977C16.3974 2.10245 17.449 1.45871 18.6172 1.13434C19.7859 0.80998 21.1006 0.838105 22.1404 1.46188C22.8717 1.90057 23.4134 2.59557 23.8593 3.32232C24.5571 4.45964 25.072 5.78113 24.9118 7.1058C24.7294 8.61648 24.1302 10.104 23.5154 11.484C23.1425 12.321 22.8318 13.276 22.1599 13.9311C21.376 14.695 20.0581 14.8025 19.0251 14.9472C16.803 15.258 14.5719 14.9795 12.4024 14.4646C10.2457 13.9524 8.01732 13.3844 5.92003 12.6703C5.54303 12.542 5.16648 12.3936 4.85073 12.1514C3.96563 11.4713 3.78371 9.92573 3.57094 8.90592C3.24793 7.35578 3.44528 5.75301 4.0795 4.30811C4.8961 2.44767 6.45761 0.805442 8.53086 0.486522C10.0148 0.258334 11.3322 0.562738 12.3308 1.71275C12.6615 2.09382 12.9246 2.53659 13.2821 2.89453C13.6754 3.28876 14.0207 3.37676 14.3804 3.29148Z" fill="url(#paint2_linear_75_3029)"/>
<path d="M3.43519 7.40164C3.38982 5.45088 4.32661 3.78547 4.41099 3.61625C4.49537 3.44703 4.66457 3.19343 4.66457 3.19343L5.03112 2.99609L5.39631 3.15215L5.57323 3.49104L5.97517 3.59084L6.4075 3.73421L6.50503 4.10213L6.50049 4.92508L6.08677 5.31025L5.42444 5.34473L5.50066 5.53163L5.70887 5.59379L6.32493 5.98938L6.5876 6.66852L6.34989 6.97611L6.26914 7.39303L5.6803 7.60353L6.04866 7.94877L6.04367 8.54624L6.45423 9.11288L6.23375 9.62008L6.59258 10.1205L6.29046 10.7951L5.71024 11.4683L4.95037 12.2736C4.95037 12.2722 3.66201 11.6207 3.43519 7.40164Z" fill="black"/>
<defs>
<linearGradient id="paint0_linear_75_3029" x1="13.3769" y1="20.9051" x2="13.3526" y2="57.975" gradientUnits="userSpaceOnUse">
<stop offset="0.1599" stop-color="#BFAB8D"/>
<stop offset="0.5078" stop-color="#E7E1D2"/>
<stop offset="0.7297" stop-color="#CCBFA6"/>
</linearGradient>
<linearGradient id="paint1_linear_75_3029" x1="20.0367" y1="25.3473" x2="3.27854" y2="25.4079" gradientUnits="userSpaceOnUse">
<stop stop-color="#BFAB8D"/>
<stop offset="0.5078" stop-color="#E7E1D2"/>
<stop offset="1" stop-color="#CCBFA6"/>
</linearGradient>
<linearGradient id="paint2_linear_75_3029" x1="31.2918" y1="7.68206" x2="-2.74788" y2="7.80504" gradientUnits="userSpaceOnUse">
<stop stop-color="#94938C"/>
<stop offset="0.2614" stop-color="#EDEBE1"/>
<stop offset="0.7687" stop-color="#EDEBE1"/>
<stop offset="1" stop-color="#94938C"/>
</linearGradient>
</defs>
</svg>
