<svg width="27" height="48" viewBox="0 0 27 48" fill="none" xmlns="http://www.w3.org/2000/svg">
<path d="M10.7343 42.0305C10.5324 43.9876 11.8022 44.4327 12.7032 43.0694C14.4458 40.4332 15.1181 36.7589 15.6897 33.4049C15.9547 31.852 17.2649 26.291 15.9728 25.3664C14.6907 24.4495 10.7611 27.8588 11.0446 31.1334C11.1984 32.91 11.4225 34.6734 11.4388 36.4867C11.4574 38.4574 10.9326 40.1133 10.7343 42.0305Z" fill="url(#paint0_linear_75_3013)"/>
<path d="M22.3627 19.7693C21.6772 21.7277 21.1246 23.7719 20.8057 25.8225C20.5911 27.2026 20.6228 28.4293 20.8324 29.7953C21.1849 32.0909 21.2103 34.4867 21.1114 36.8022C20.9572 40.4138 19.2246 43.134 17.8396 46.3827C17.3306 47.5763 16.1537 48.2029 15.0863 47.1045C13.7325 45.7118 14.0977 42.7843 14.0437 41.0177C13.9702 38.5996 13.9212 36.1648 13.4376 33.7853C13.2294 32.7609 12.9368 31.7397 12.4019 30.8415C11.8702 29.9482 10.8876 29.5127 9.9462 30.156C8.69271 31.0125 8.41008 32.8889 7.97728 34.2245C7.57125 35.477 7.20332 36.7419 6.8481 38.0099C6.34634 39.8009 5.88224 41.6025 5.40408 43.3994C5.20582 44.1434 4.55889 45.891 3.4651 45.1315C3.09581 44.8747 2.91343 44.4302 2.75964 44.0078C2.25471 42.6187 1.8514 41.1955 1.449 39.7737C0.909585 37.8688 0.413265 35.9693 0.297126 33.9854C0.138796 31.2806 1.20446 28.6081 1.72527 25.9899C2.27875 23.2076 2.62444 20.384 2.75692 17.5504C2.76554 17.3639 2.78005 17.1611 2.90572 17.0232C3.07585 16.8372 3.36755 16.8517 3.61752 16.8803C6.68931 17.2323 9.76746 17.5186 12.8361 17.9024C14.9125 18.1606 16.9917 18.4337 19.05 18.8129C19.9573 18.9799 21.6599 19.0661 22.3627 19.7693Z" fill="url(#paint1_linear_75_3013)"/>
<path d="M24.7619 15.5234C24.8645 14.2967 24.8363 13.0537 25.07 11.8419C25.4347 9.95058 26.3897 8.30286 26.2545 6.29901C25.9287 1.47473 19.1869 1.10182 15.7971 2.43787C14.3876 2.99315 13.8092 2.46871 12.6242 1.72016C11.3403 0.909006 9.82555 0.484375 8.30805 0.484375C6.57279 0.484375 4.65787 0.977963 3.17576 1.88983C0.983207 3.23904 0.985028 5.45248 0.834412 7.7757C0.667464 10.3453 0.726888 12.9924 1.5766 15.4495C1.83655 16.2017 2.18088 16.9407 2.72255 17.5236C3.49241 18.3525 4.47323 18.4618 5.51348 18.7013C6.93344 19.0284 8.36929 19.3052 9.80059 19.576C12.6074 20.1073 15.4405 20.5396 18.2963 20.683C19.6505 20.751 21.0528 20.6136 22.2554 19.987C23.9971 19.0802 24.6072 17.3748 24.7619 15.5234Z" fill="url(#paint2_linear_75_3013)"/>
<path d="M0.761719 8.73385C0.761719 8.09871 0.807086 6.23868 1.03392 5.14988C1.26075 4.06108 1.57288 3.69995 1.70898 3.42775C1.84508 3.15555 2.11728 2.74725 2.11728 2.74725L2.70705 2.42969L3.29454 2.68057L3.57899 3.22587L4.22547 3.38647L4.92093 3.61694L5.0779 4.20852L5.07064 5.53232L4.40557 6.15202L3.33991 6.20782L3.46285 6.50816L3.79765 6.60796L4.78892 7.24446L5.21128 8.33689L4.82883 8.83183L4.69864 9.50235L3.75138 9.84079L4.34341 10.3961L4.33525 11.3569L4.99534 12.2688L4.64057 13.0845L5.21763 13.8893L4.73175 14.9745L3.7981 16.0574L2.57548 17.353C2.57548 17.353 2.21527 17.2065 1.78292 15.9186C1.35058 14.6311 1.03301 13.7691 0.896911 12.8164C0.760811 11.8637 0.761719 9.36898 0.761719 8.73385Z" fill="black"/>
<defs>
<linearGradient id="paint0_linear_75_3013" x1="13.9152" y1="25.1058" x2="16.0248" y2="63.9112" gradientUnits="userSpaceOnUse">
<stop offset="0.1599" stop-color="#BFAB8D"/>
<stop offset="0.5078" stop-color="#E7E1D2"/>
<stop offset="0.7297" stop-color="#CCBFA6"/>
</linearGradient>
<linearGradient id="paint1_linear_75_3013" x1="19.8359" y1="33.6604" x2="2.34171" y2="30.2562" gradientUnits="userSpaceOnUse">
<stop stop-color="#BFAB8D"/>
<stop offset="0.5078" stop-color="#E7E1D2"/>
<stop offset="1" stop-color="#CCBFA6"/>
</linearGradient>
<linearGradient id="paint2_linear_75_3013" x1="30.34" y1="13.6074" x2="-2.95808" y2="7.12798" gradientUnits="userSpaceOnUse">
<stop stop-color="#94938C"/>
<stop offset="0.2114" stop-color="#EDEBE1"/>
<stop offset="0.847" stop-color="#EDEBE1"/>
<stop offset="1" stop-color="#94938C"/>
</linearGradient>
</defs>
</svg>
