<svg width="29" height="51" viewBox="0 0 29 51" fill="none" xmlns="http://www.w3.org/2000/svg">
<path d="M19.6215 1.1299C20.9344 1.21927 21.9479 1.60442 23.0258 2.34479C23.3176 2.5453 23.5938 2.78709 23.5362 3.0738C23.2677 4.413 13.3922 3.33693 13.487 2.16242C13.546 1.4647 16.7575 1.27779 17.4766 1.20022C18.2882 1.11221 18.9896 1.0868 19.6215 1.1299Z" fill="#D8D6D0"/>
<path d="M9.45654 46.4973C8.78104 48.6613 10.3761 49.5441 11.8578 48.2621C14.7222 45.7833 16.3799 41.8069 17.838 38.1644C18.513 36.4777 21.4115 30.5465 19.8863 29.1129C18.3728 27.6907 12.4403 30.3991 12.1363 34.2053C11.9712 36.2699 11.9022 38.3405 11.547 40.406C11.1605 42.6507 10.1184 44.3769 9.45654 46.4973Z" fill="url(#paint0_linear_75_2996)"/>
<path d="M26.2329 21.2235C26.0451 21.9979 25.8786 22.7859 25.8418 22.9383C25.5265 24.2462 25.253 25.5646 25.0334 26.892C24.8542 27.9767 24.7108 29.0673 24.6042 30.162C24.5008 31.2227 24.5911 32.3904 24.3892 33.4302C24.19 34.455 23.8248 35.5302 23.4796 36.5201C22.4429 39.4929 20.8728 42.2593 19.0082 44.788C18.0727 46.0565 17.0611 47.2682 15.9931 48.4273C15.3371 49.1396 13.9425 51.2482 12.7834 50.3722C12.3484 50.0433 12.1737 49.4567 12.2018 48.9118C12.2299 48.367 12.4296 47.848 12.6187 47.3363C14.0759 43.388 15.4614 38.4994 14.6421 34.2636C14.5568 33.8221 14.4234 33.3662 14.1068 33.0473C13.6917 32.6295 13.027 32.5356 12.4591 32.6921C11.8911 32.8486 11.4065 33.2201 10.9837 33.6303C9.53243 35.0389 8.50124 37.0191 7.61432 38.8201C6.94289 40.1838 6.44975 41.6369 6.1662 43.1308C5.89491 44.5608 6.12538 46.2602 5.55104 47.6021C5.22939 48.3543 4.51213 48.999 3.69462 48.9754C3.05812 48.9572 2.49467 48.5475 2.07502 48.0685C0.52892 46.3033 0.23267 43.4906 0.14239 41.24C0.0289725 38.4037 0.432742 35.5773 0.872346 32.7832C1.47074 28.9793 2.23971 25.2012 3.0985 21.4481C3.13162 21.3024 3.59889 18.9348 3.69325 18.9375C3.69325 18.9375 26.5681 19.5722 26.7782 19.5781C26.6607 19.5758 26.4343 20.3915 26.2329 21.2235Z" fill="url(#paint1_linear_75_2996)"/>
<path d="M8.33335 0.953833C9.51922 0.886237 10.4846 1.14528 11.5639 1.74729C11.856 1.91015 12.1409 2.11611 12.135 2.40509C12.1083 3.75701 3.12444 3.86815 3.02236 2.69907C2.96429 2.00406 5.80057 1.4388 6.4298 1.27684C7.14068 1.09493 7.76265 0.986496 8.33335 0.953833Z" fill="#D8D6D0"/>
<path d="M24.2769 2.00369C25.2301 2.09896 26.1279 2.46597 26.9014 3.27258C27.8981 4.31192 28.3971 5.75366 28.5205 7.18814C28.785 10.2658 28.2583 13.9259 27.4893 16.9074C27.2452 17.8537 27.2207 19.8426 26.5711 20.573C24.5495 22.8454 20.1077 21.7398 17.4197 21.5534C14.3412 21.3397 11.0267 21.2376 8.26839 20.573C6.44239 20.4813 3.08935 20.8856 2.53497 18.4707C1.89984 15.7029 1.50878 12.8725 1.37812 10.0358C1.28013 7.91627 0.970727 2.67919 4.01755 2.27044C4.4635 2.21056 5.21613 2.71321 5.66299 2.81483C6.59528 3.02624 7.50488 2.99766 8.43035 2.75178C9.5686 2.44964 10.6256 1.90525 11.7167 1.46202C11.954 1.36585 12.2008 1.27284 12.4566 1.27965C13.0396 1.29553 13.4679 1.80045 13.9342 2.15068C15.8972 3.62599 19.4159 2.86065 21.583 2.29403C22.4926 2.05631 23.4081 1.91704 24.2769 2.00369Z" fill="url(#paint2_linear_75_2996)"/>
<path d="M1.30078 8.51263C1.30078 7.8775 1.34479 7.02188 1.43689 6.19893C1.53625 5.30838 1.75447 4.52036 1.75447 4.52036C1.75447 4.52036 1.89058 4.11206 2.02669 3.83986C2.1628 3.56766 2.43501 3.15936 2.43501 3.15936L3.02481 2.8418L3.61234 3.09268L3.8968 3.63798L4.54332 3.79857L5.23883 4.02904L5.3958 4.62062L5.38855 5.94442L4.72344 6.56414L3.65771 6.61994L3.78067 6.92026L4.11549 7.02006L5.10681 7.65656L5.52919 8.74899L5.14673 9.24394L5.01652 9.91446L4.06921 10.2529L4.66128 10.8082L4.65312 11.7691L5.31324 12.6809L4.95845 13.4966L5.53555 14.3014L5.04964 15.3866L4.11594 16.4695L2.38873 17.7216L2.10065 16.3307C2.10065 16.3307 1.79893 14.682 1.66283 13.7293C1.52672 12.7766 1.30078 9.14777 1.30078 8.51263Z" fill="black"/>
<defs>
<linearGradient id="paint0_linear_75_2996" x1="17.2129" y1="28.2103" x2="9.45142" y2="72.502" gradientUnits="userSpaceOnUse">
<stop offset="0.1599" stop-color="#BFAB8D"/>
<stop offset="0.5078" stop-color="#E7E1D2"/>
<stop offset="0.7297" stop-color="#CCBFA6"/>
</linearGradient>
<linearGradient id="paint1_linear_75_2996" x1="24.1908" y1="34.7036" x2="1.66369" y2="34.785" gradientUnits="userSpaceOnUse">
<stop stop-color="#BFAB8D"/>
<stop offset="0.5078" stop-color="#E7E1D2"/>
<stop offset="1" stop-color="#CCBFA6"/>
</linearGradient>
<linearGradient id="paint2_linear_75_2996" x1="34.2955" y1="11.5719" x2="-4.54986" y2="11.7123" gradientUnits="userSpaceOnUse">
<stop stop-color="#94938C"/>
<stop offset="0.2296" stop-color="#EDEBE1"/>
<stop offset="0.7988" stop-color="#EDEBE1"/>
<stop offset="1" stop-color="#94938C"/>
</linearGradient>
</defs>
</svg>
