<svg width="24" height="42" viewBox="0 0 24 42" fill="none" xmlns="http://www.w3.org/2000/svg">
<path d="M9.74701 3.53872C9.22619 1.79936 7.42783 2.01848 6.8199 3.58636C5.64443 6.61732 6.24782 10.0208 6.85211 13.108C7.13203 14.5375 7.6719 19.8254 9.6894 19.9978C11.691 20.1689 15.3513 15.4652 13.6863 12.8448C12.783 11.4235 11.7954 10.0457 11.0531 8.52908C10.2461 6.8809 10.2569 5.24316 9.74701 3.53872Z" fill="url(#paint0_linear_75_2914)"/>
<path d="M20.2051 26.8383C20.1398 26.8751 19.9311 26.4087 19.7437 26.4291C19.4992 26.4554 19.1944 26.3701 18.9498 26.3452C18.1051 26.2599 17.259 26.1859 16.4125 26.122C14.0606 25.9446 11.698 25.8366 9.33888 25.8842C7.69797 25.9174 6.0321 26.0045 4.42295 26.3479C3.42896 26.5598 2.12103 26.8751 1.51312 27.7788C1.51312 27.7788 2.88274 22.2626 1.90191 18.0136C0.921537 13.7645 -0.385934 2.32528 2.22901 1.99819C3.87264 1.79268 5.11161 5.61529 5.54032 6.67869C6.67721 9.49868 7.56731 12.5128 8.37347 15.4753C8.39616 15.5579 8.4193 15.6427 8.46966 15.7121C8.91108 16.3227 10.4436 16.565 11.0351 16.1567C11.5306 15.8146 11.653 15.1473 11.7338 14.5503C11.8772 13.491 12.0205 12.4316 12.1639 11.3723C12.5046 8.85538 12.8475 6.3221 12.7868 3.77567C12.77 3.07657 11.9733 -0.483828 13.6687 0.364077C16.5168 1.78814 18.1409 5.72688 18.9317 8.55369C20.0005 12.3731 20.04 16.4602 20.1874 20.399C20.255 22.2046 20.3453 24.0351 20.2278 25.8407C20.2047 26.1941 20.299 26.7861 20.2051 26.8383Z" fill="url(#paint1_linear_75_2914)"/>
<path d="M19.1102 25.6851C18.2332 25.0777 17.0587 25.0051 16.0402 24.8014C14.5063 24.4943 12.9589 24.2384 11.396 24.144C7.95035 23.9354 4.16085 24.5673 1.84532 27.3705C1.02917 28.3581 0.45528 29.5408 0.167653 30.7884C-0.155813 32.193 0.105046 33.1003 0.552364 34.4273C0.962481 35.6435 1.49781 36.9605 2.15926 38.062C2.87651 39.256 4.02384 40.29 5.46651 40.2691C7.0294 40.2464 8.5569 39.6349 9.60079 38.4499C9.65568 38.3877 9.71195 38.322 9.78907 38.2907C9.88117 38.2535 9.98505 38.273 10.0812 38.2952C12.1822 38.7765 14.2881 40.1502 16.2262 41.0789C17.1526 41.5226 17.682 41.6578 18.6202 41.1651C19.7907 40.5504 20.9053 39.7946 21.7718 38.796C24.3346 35.8427 23.3578 31.6467 21.4842 28.6013C20.8926 27.64 20.1599 26.5258 19.2735 25.8081C19.2204 25.7641 19.166 25.7237 19.1102 25.6851Z" fill="url(#paint2_linear_75_2914)"/>
<path d="M2.16296 27.0245C2.2986 26.789 3.38783 27.1062 3.38783 27.1062L3.62146 27.3924L3.90681 27.798L4.55327 27.9182L5.24919 28.0906L5.40661 28.5302L5.40116 29.5133L4.73655 29.9724L3.67137 30.0124L3.79476 30.2356L4.12956 30.31L5.12171 30.7841L5.54588 31.5961L5.16435 31.9631L5.03506 32.4608L4.08828 32.7108L4.68121 33.1241L4.6744 33.8377L5.33583 34.5155L4.98198 35.1207L5.55994 35.7191L5.07589 36.5244L4.14362 37.3274C4.14362 37.3274 4.39586 39.0799 2.71733 38.5123C2.03684 38.3096 1.43393 36.7403 1.17353 36.1229C0.604647 34.7741 0.0820312 33.0461 0.0820312 31.9541C0.0820312 30.8621 0.173675 29.3677 2.16296 27.0245Z" fill="black"/>
<defs>
<linearGradient id="paint0_linear_75_2914" x1="12.4146" y1="19.2658" x2="-1.2728" y2="-14.1866" gradientUnits="userSpaceOnUse">
<stop offset="0.1599" stop-color="#BFAB8D"/>
<stop offset="0.5078" stop-color="#E7E1D2"/>
<stop offset="0.7297" stop-color="#CCBFA6"/>
</linearGradient>
<linearGradient id="paint1_linear_75_2914" x1="1.36517" y1="16.2868" x2="19.0541" y2="12.9313" gradientUnits="userSpaceOnUse">
<stop offset="0.1599" stop-color="#BFAB8D"/>
<stop offset="0.5078" stop-color="#E7E1D2"/>
<stop offset="0.7297" stop-color="#CCBFA6"/>
</linearGradient>
<linearGradient id="paint2_linear_75_2914" x1="28.5815" y1="32.7537" x2="-4.70387" y2="32.8382" gradientUnits="userSpaceOnUse">
<stop stop-color="#94938C"/>
<stop offset="0.2296" stop-color="#EDEBE1"/>
<stop offset="0.7988" stop-color="#EDEBE1"/>
<stop offset="1" stop-color="#94938C"/>
</linearGradient>
</defs>
</svg>
