<svg width="20" height="51" viewBox="0 0 20 51" fill="none" xmlns="http://www.w3.org/2000/svg">
<path d="M16.1083 20.7424C15.3053 25.9986 13.8894 31.2508 12.0462 36.2307C10.0201 41.7037 7.48859 47.1772 2.56717 50.607C2.44786 50.69 2.31993 50.7762 2.17475 50.7835C2.02686 50.7907 1.88757 50.7141 1.76916 50.6251C1.09092 50.1184 0.841863 49.1934 0.911728 48.3495C0.981594 47.5057 1.31821 46.7113 1.61219 45.9174C3.40601 41.075 3.8438 35.7457 4.35509 30.6442C4.67901 27.4146 5.44707 23.4558 4.68581 20.2362C3.8683 16.781 15.6016 20.1286 16.1083 20.7424Z" fill="url(#paint0_linear_75_2981)"/>
<path d="M5.97163 0.76085C6.69837 0.433284 7.45641 0.425575 8.46895 0.674198C8.74295 0.741345 9.0351 0.845686 9.18389 1.08524C9.88069 2.20495 4.16159 4.355 3.47795 3.4154C3.0733 2.85645 4.59891 1.74082 4.91827 1.46362C5.27892 1.15057 5.62187 0.918735 5.97163 0.76085Z" fill="#D8D6D0"/>
<path d="M15.9055 0.947522C16.2431 1.04914 16.4998 1.15802 16.6078 1.25284C17.154 1.73282 17.7216 2.24366 17.9661 2.92824C18.0641 3.20271 18.0745 3.57064 17.825 3.72126C17.7406 3.77207 17.6399 3.78749 17.5419 3.79565C16.3973 3.88956 15.0731 3.14554 14.1049 2.6143C13.7466 2.41786 12.2055 1.70878 12.2758 1.15122C12.3828 0.306035 14.6788 0.57869 15.9055 0.947522Z" fill="#D8D6D0"/>
<path d="M17.9211 3.05409C17.9211 3.05409 20.2089 4.6882 18.9014 8.93725C18.2477 14.8204 16.2865 20.7036 16.2865 20.7036C16.2865 20.7036 15.6328 21.684 11.0571 21.684C6.48144 21.684 5.17399 21.0302 4.52025 19.7228C3.86652 18.4153 2.23242 5.99521 2.23242 5.99521C2.23242 5.99521 2.55905 3.05363 3.86651 2.72699C5.17398 2.40034 6.48145 2.07325 6.80809 2.07325C7.13473 2.07325 10.0763 0.112046 11.3838 0.439141C12.6917 0.766235 15.9603 3.38073 17.9211 3.05409Z" fill="url(#paint1_linear_75_2981)"/>
<path d="M2.93892 11.1157C2.80826 10.0654 2.63587 9.56233 2.39451 6.98729C2.15316 4.41225 2.8314 4.47712 3.1898 4.0543C3.27328 3.69045 4.34939 4.2031 4.34939 4.2031L5.02219 4.35645L5.42958 4.88134L6.14728 4.92716L6.93077 5.03832L7.2116 5.63671L7.45931 7.04491L6.8718 7.83156L5.75032 8.09606L5.93905 8.3914L6.31379 8.43268L7.4897 8.91766L8.14934 9.99695L7.83857 10.5967L7.8295 11.3344L6.88813 11.8765L7.62444 12.3524L7.80092 13.375L8.67786 14.2165L8.45829 15.152L9.22681 15.896L8.92012 17.1427L8.13709 18.4733C8.13709 18.4733 7.93838 22.3581 6.61366 21.4145C4.90967 20.7422 4.60389 20.3475 4.2092 18.1481C3.09861 13.2824 3.06141 11.7908 2.93892 11.1157Z" fill="black"/>
<defs>
<linearGradient id="paint0_linear_75_2981" x1="12.8799" y1="34.71" x2="2.51343" y2="34.7475" gradientUnits="userSpaceOnUse">
<stop stop-color="#BFAB8D"/>
<stop offset="0.5078" stop-color="#E7E1D2"/>
<stop offset="1" stop-color="#CCBFA6"/>
</linearGradient>
<linearGradient id="paint1_linear_75_2981" x1="22.9392" y1="11.0005" x2="-1.19276" y2="11.0877" gradientUnits="userSpaceOnUse">
<stop stop-color="#94938C"/>
<stop offset="0.2296" stop-color="#EDEBE1"/>
<stop offset="0.7988" stop-color="#EDEBE1"/>
<stop offset="1" stop-color="#94938C"/>
</linearGradient>
</defs>
</svg>
