<svg width="19" height="53" viewBox="0 0 19 53" fill="none" xmlns="http://www.w3.org/2000/svg">
<path d="M15.5558 21.4932C15.5558 21.4932 9.346 46.9871 4.11615 51.2357C-1.11325 55.4848 1.50121 46.9867 1.50121 46.9867C1.50121 46.9867 3.46241 31.2983 3.46241 28.3567C3.46241 25.4152 2.42261 19.9062 2.42261 19.9062C2.42261 19.9062 12.4944 22.0752 15.5558 21.4932Z" fill="url(#paint0_linear_75_2969)"/>
<path d="M15.8817 2.20987C15.8817 2.20987 19.1499 3.84394 18.1696 8.41956C17.1892 12.9952 17.5158 15.6101 17.5158 15.6101C17.5158 15.6101 16.8621 23.4543 11.306 23.7809C5.74951 24.1076 2.15466 20.8394 1.82756 18.8782C1.50092 16.9171 1.50092 11.3611 1.17382 10.3803C0.847182 9.39991 -0.133649 3.18977 3.13503 2.20941C6.40325 1.22905 8.36445 0.901961 8.36445 0.901961C8.36445 0.901961 11.6331 -0.0779404 15.8817 2.20987Z" fill="url(#paint1_linear_75_2969)"/>
<path d="M1.27921 10.9471C1.22885 9.89005 0.780179 9.90365 0.734812 7.31776C0.689446 4.73187 1.30008 4.618 1.68932 4.22331C1.80002 3.86718 2.83436 4.45967 2.83436 4.45967L3.49354 4.66382L3.86009 5.21775L4.57235 5.31801L5.34493 5.48813L5.57949 6.10602L5.71966 7.52872L5.0741 8.2682L3.93587 8.44694L4.10145 8.75589L4.47209 8.82574L5.60806 9.39871L6.18376 10.5252L5.82854 11.0995L5.76366 11.834L4.78376 12.3035L5.48193 12.8339L5.5804 13.8669L6.39108 14.7724L6.1012 15.6883L6.81071 16.4881L6.41013 17.7081L5.52821 18.9756C5.52821 18.9756 5.11356 22.7406 3.86463 21.6994C2.61569 20.6582 2.00461 20.293 1.77777 18.0701C1.03966 13.1342 1.34998 11.6294 1.27921 10.9471Z" fill="black"/>
<defs>
<linearGradient id="paint0_linear_75_2969" x1="2.29654" y1="36.1666" x2="13.8529" y2="36.2084" gradientUnits="userSpaceOnUse">
<stop stop-color="#BFAB8D"/>
<stop offset="0.5078" stop-color="#E7E1D2"/>
<stop offset="1" stop-color="#CCBFA6"/>
</linearGradient>
<linearGradient id="paint1_linear_75_2969" x1="-2.50143" y1="12.2022" x2="21.6655" y2="12.2895" gradientUnits="userSpaceOnUse">
<stop stop-color="#94938C"/>
<stop offset="0.2296" stop-color="#EDEBE1"/>
<stop offset="0.4283" stop-color="#EDEBE1"/>
<stop offset="0.7988" stop-color="#EDEBE1"/>
<stop offset="1" stop-color="#94938C"/>
</linearGradient>
</defs>
</svg>
