<svg width="19" height="67" viewBox="0 0 19 67" fill="none" xmlns="http://www.w3.org/2000/svg">
<path d="M15.8071 27.3676C13.9022 27.3576 11.9677 27.182 10.0659 27.0296C7.76263 26.845 4.52841 26.9579 2.42518 25.8573C2.23282 25.7566 2.16931 25.4141 1.99238 25.293C1.58997 26.6422 1.93429 28.8044 2.01369 30.1858C2.24098 34.135 2.41564 38.0914 2.37753 42.0479C2.35621 44.2318 2.23463 46.4004 2.03819 48.5748C1.76689 51.5776 0.752928 54.5092 0.479817 57.5429C0.288367 59.6702 0.320584 61.8328 0.735694 63.9333C0.866352 64.5938 1.05645 66.3064 1.62944 66.4643C2.38526 66.6721 3.52532 65.5098 3.90504 64.9976C5.16081 63.3045 5.48294 61.0117 6.12534 59.05C6.84395 56.8542 7.68595 54.7011 8.54566 52.5575C10.2229 48.3761 11.9868 44.2055 13.067 39.819C13.698 37.2562 13.9789 34.6308 14.5714 32.0585C14.9343 30.4825 15.3616 28.9223 15.8071 27.3676Z" fill="url(#paint0_linear_75_2959)"/>
<path d="M17.9998 8.61791C17.9998 8.61791 18.9784 3.3881 16.6896 1.75491C14.4008 0.121725 13.4209 0.775903 13.4209 0.775903C12.4746 1.03449 11.5237 1.27674 10.571 1.50947C9.00218 1.89236 7.30864 2.4413 5.68269 2.39911C5.35696 2.39049 5.03032 2.3542 4.7064 2.38686C2.28336 2.62912 1.89002 5.20956 1.52618 7.09997C1.05935 9.52389 0.730453 11.9805 0.536283 14.4411C0.376138 16.4731 0.298551 18.5282 0.469584 20.5624C0.593435 22.0359 0.799859 23.719 1.665 24.9675C2.87358 26.7118 5.08974 27.5044 7.07136 27.9603C9.5865 28.5392 12.2296 28.6753 14.8019 28.5668C16.2005 28.5074 16.5902 25.3908 16.6683 24.4018C17.0834 19.137 17.5248 13.8768 17.9998 8.61791Z" fill="url(#paint1_linear_75_2959)"/>
<path d="M0.738534 12.5162C1.01164 10.0397 1.59279 7.09278 1.59279 7.09278C1.59279 7.09278 1.63272 6.50439 2.07913 6.17595C2.24427 5.84161 3.17292 6.58878 3.17292 6.58878L3.79172 6.89363L4.06665 7.49835L4.75439 7.70885L5.49069 7.99829L5.62544 8.64519L5.5406 10.0724L4.78707 10.7016L3.63476 10.6993L3.74999 11.0305L4.10522 11.1575L5.13731 11.9015L5.52926 13.1042L5.08831 13.6154L4.9091 14.3308L3.86795 14.6407L4.47404 15.274L4.40916 16.3097L5.06788 17.3313L4.63781 18.1905L5.21307 19.092L4.62602 20.2338L3.55627 21.3471C3.55627 21.3471 2.79728 24.0459 1.72708 22.8214C0.656875 21.597 0.512608 21.0903 0.421875 19.1849C0.466334 14.1947 0.701333 13.2012 0.738534 12.5162Z" fill="black"/>
<defs>
<linearGradient id="paint0_linear_75_2959" x1="11.1792" y1="45.8536" x2="2.09736" y2="45.8902" gradientUnits="userSpaceOnUse">
<stop stop-color="#BFAB8D"/>
<stop offset="0.5078" stop-color="#E7E1D2"/>
<stop offset="1" stop-color="#CCBFA6"/>
</linearGradient>
<linearGradient id="paint1_linear_75_2959" x1="22.6715" y1="14.587" x2="-3.65613" y2="14.6931" gradientUnits="userSpaceOnUse">
<stop stop-color="#94938C"/>
<stop offset="0.2296" stop-color="#EDEBE1"/>
<stop offset="0.7988" stop-color="#EDEBE1"/>
<stop offset="1" stop-color="#94938C"/>
</linearGradient>
</defs>
</svg>
