<svg width="17" height="64" viewBox="0 0 17 64" fill="none" xmlns="http://www.w3.org/2000/svg">
<path d="M14.5217 23.0879C14.5217 23.0879 6.3506 27.0098 4.06273 23.7416C4.15256 26.9531 4.20792 30.1664 4.25011 33.3788C4.32996 39.4873 4.36217 45.6018 4.18388 51.7089C4.12127 53.8539 4.07137 56.0015 3.86631 58.1387C3.76196 59.2275 3.61815 60.3131 3.41264 61.3873C3.31827 61.8818 3.03381 62.4643 3.26291 62.9157C3.56778 63.5159 4.35535 63.652 4.90565 63.3816C5.68007 63.0006 6.1891 62.0633 6.57336 61.3397C7.50022 59.594 8.09815 57.6646 8.63892 55.7719C11.9072 44.332 14.0181 26.6038 14.5217 23.0879Z" fill="url(#paint0_linear_75_2949)"/>
<path d="M15.7794 0.648894C15.0068 0.252391 13.8032 0.49737 12.9566 0.490111C11.386 0.476955 9.81541 0.481494 8.24524 0.526861C6.49089 0.577671 4.05147 0.377144 2.42914 1.1883C0.871221 1.96724 0.705621 3.91302 0.752803 5.44141C0.939717 11.4788 1.32852 17.8333 3.76384 23.4465C4.47702 25.0901 5.47238 26.7487 7.03029 27.7159C9.44429 29.2148 12.2076 28.346 13.5836 25.9461C14.6851 24.0253 15.1089 21.811 15.3398 19.6388C15.5144 17.9943 15.4051 16.3375 15.5217 14.6898C15.6446 12.9532 16.1568 11.2683 16.4368 9.55206C16.8791 6.83824 17.4144 4.00647 16.4032 1.35298C16.2734 1.01092 16.0534 0.789984 15.7794 0.648894Z" fill="url(#paint1_linear_75_2949)"/>
<path d="M0.867183 8.48643C0.772368 6.18134 0.753768 4.22468 0.753768 4.22468C0.753768 4.22468 0.708402 3.68027 1.07133 3.31734C1.17613 2.98798 2.13019 3.54281 2.13019 3.54281L2.73945 3.73562L3.07562 4.25098L3.73434 4.34807L4.44885 4.51048L4.66206 5.08392L4.78321 6.40228L4.1812 7.08323L3.12597 7.24201L3.27748 7.52918L3.62046 7.59588L4.66888 8.13346L5.19512 9.18009L4.8626 9.70996L4.79816 10.39L3.88813 10.8187L4.53141 11.3141L4.61625 12.2714L5.36163 13.1147L5.08761 13.9613L5.73997 14.7067L5.36163 15.834L4.53731 17.0022C4.53731 17.0022 4.21839 19.5786 3.06835 18.6069C1.91787 17.6351 1.68468 16.9256 1.54858 15.3831C1.13938 12.7509 0.928428 9.11839 0.867183 8.48643Z" fill="black"/>
<defs>
<linearGradient id="paint0_linear_75_2949" x1="1.88258" y1="43.2738" x2="11.1157" y2="43.3071" gradientUnits="userSpaceOnUse">
<stop stop-color="#BFAB8D"/>
<stop offset="0.5078" stop-color="#E7E1D2"/>
<stop offset="1" stop-color="#CCBFA6"/>
</linearGradient>
<linearGradient id="paint1_linear_75_2949" x1="-1.96767" y1="14.3887" x2="20.2257" y2="14.4689" gradientUnits="userSpaceOnUse">
<stop stop-color="#94938C"/>
<stop offset="0.2296" stop-color="#EDEBE1"/>
<stop offset="0.7988" stop-color="#EDEBE1"/>
<stop offset="1" stop-color="#94938C"/>
</linearGradient>
</defs>
</svg>
