<svg width="16" height="66" viewBox="0 0 16 66" fill="none" xmlns="http://www.w3.org/2000/svg">
<path d="M2.37412 24.6777C2.37366 32.2118 0.838936 39.692 0.488713 47.2207C0.345811 50.2893 0.10946 53.357 0.153919 56.4311C0.18885 58.8677 0.00239261 62.9313 1.52169 65.0064C2.16498 65.8829 4.06854 61.9808 4.25046 61.6061C5.38959 59.2602 6.09729 56.7663 6.97739 54.3183C7.94776 51.6185 8.93719 48.9019 9.73245 46.1436C10.7936 42.4635 11.3983 38.6304 12.0742 34.8654C12.1799 34.2756 13.1036 26.6939 13.4865 26.6394C13.4833 26.6394 4.33482 27.946 2.37412 24.6777Z" fill="url(#paint0_linear_75_2939)"/>
<path d="M14.9816 0.637105C14.8328 0.501457 14.5701 0.472886 14.0838 0.432056C13.3398 0.369903 12.5667 0.424337 11.8209 0.425698C8.78084 0.431596 5.74083 0.491478 2.70081 0.491478C2.70081 0.491478 -0.240773 1.14523 0.0858672 2.77935C0.412507 4.41347 1.39334 24.678 2.37372 25.9855C3.35409 27.293 5.64192 31.542 10.5447 30.2346C15.447 28.9271 14.4667 17.4882 14.4667 17.4878C14.3374 15.4159 14.8582 13.1208 14.9993 11.0498C15.2088 7.97478 15.388 4.87303 15.212 1.7917C15.1735 1.11574 15.1594 0.799519 14.9816 0.637105Z" fill="url(#paint1_linear_75_2939)"/>
<path d="M0.409668 6.73542C0.314852 4.43033 0.0467365 2.65241 0.0467365 2.65241C0.0467365 2.65241 0.00137004 2.10801 0.364302 1.74507C0.469099 1.41571 1.42315 1.97055 1.42315 1.97055L2.03243 2.16336L2.3686 2.67872L3.02732 2.77581L3.74185 2.93822L3.95506 3.51165L4.07618 4.83001L3.47417 5.51098L2.41895 5.66976L2.57047 5.95694L2.91344 6.02361L3.96186 6.56121L4.48811 7.60782L4.15557 8.13771L4.09115 8.81777L3.1811 9.24648L3.8244 9.74188L3.90925 10.6991L4.6546 11.5425L4.38059 12.389L5.03297 13.1344L4.6546 14.2618L3.8303 15.43C3.8303 15.43 3.51138 18.0064 2.36134 17.0346C1.2113 16.0628 1.09107 15.356 0.954975 13.8136C0.726327 12.8772 0.471367 7.36738 0.409668 6.73542Z" fill="black"/>
<defs>
<linearGradient id="paint0_linear_75_2939" x1="12.4057" y1="44.8687" x2="-3.89926" y2="44.9276" gradientUnits="userSpaceOnUse">
<stop stop-color="#BFAB8D"/>
<stop offset="0.5078" stop-color="#E7E1D2"/>
<stop offset="1" stop-color="#CCBFA6"/>
</linearGradient>
<linearGradient id="paint1_linear_75_2939" x1="17.5382" y1="15.418" x2="-2.00481" y2="15.4886" gradientUnits="userSpaceOnUse">
<stop stop-color="#94938C"/>
<stop offset="0.2296" stop-color="#EDEBE1"/>
<stop offset="0.7988" stop-color="#EDEBE1"/>
<stop offset="1" stop-color="#94938C"/>
</linearGradient>
</defs>
</svg>
