<svg width="16" height="66" viewBox="0 0 16 66" fill="none" xmlns="http://www.w3.org/2000/svg">
<path d="M13.0151 24.6777C13.0155 32.2118 14.5503 39.692 14.9005 47.2207C15.0434 50.2893 15.2798 53.357 15.2353 56.4311C15.2004 58.8677 15.3869 62.9313 13.8675 65.0064C13.2242 65.8829 11.3206 61.9808 11.1387 61.6061C9.99951 59.2602 9.29178 56.7663 8.41165 54.3183C7.44125 51.6185 6.45178 48.9019 5.65649 46.1436C4.59535 42.4635 3.9906 38.6304 3.31463 34.8654C3.20892 34.2756 2.28524 26.6939 1.90234 26.6394C1.90597 26.6394 11.0543 27.946 13.0151 24.6777Z" fill="url(#paint0_linear_75_2934)"/>
<path d="M0.407396 0.637105C0.556198 0.501457 0.818873 0.472886 1.3052 0.432056C2.04922 0.369903 2.82226 0.424337 3.56809 0.425698C6.60811 0.431596 9.64812 0.491478 12.6881 0.491478C12.6881 0.491478 15.6297 1.14523 15.3031 2.77935C14.9764 4.41347 13.9956 24.678 13.0152 25.9855C12.0349 27.293 9.74702 31.542 4.84425 30.2346C-0.0580748 28.9271 0.92229 17.4882 0.92229 17.4878C1.05158 15.4159 0.530787 13.1208 0.389697 11.0498C0.180103 7.97478 0.00090694 4.87303 0.17693 1.7917C0.215038 1.11574 0.229105 0.799519 0.407396 0.637105Z" fill="url(#paint1_linear_75_2934)"/>
<path d="M14.9792 6.73542C15.0741 4.43033 15.3422 2.65241 15.3422 2.65241C15.3422 2.65241 15.3876 2.10801 15.0246 1.74507C14.9198 1.41571 13.9656 1.97055 13.9656 1.97055L13.3563 2.16336L13.0201 2.67872L12.3613 2.77581L11.6467 2.93822L11.4335 3.51165L11.3123 4.83001L11.9144 5.51098L12.9697 5.66976L12.8182 5.95694L12.4752 6.02361L11.4267 6.56121L10.9004 7.60782L11.2329 8.13771L11.2974 8.81777L12.2075 9.24648L11.5642 9.74188L11.4793 10.6991L10.7339 11.5425L11.0079 12.389L10.3555 13.1344L10.7339 14.2618L11.5583 15.43C11.5583 15.43 11.8772 18.0064 13.0274 17.0346C14.1775 16.0628 14.2978 15.356 14.4339 13.8136C14.6625 12.8772 14.918 7.36738 14.9792 6.73542Z" fill="black"/>
<defs>
<linearGradient id="paint0_linear_75_2934" x1="2.98339" y1="44.8687" x2="19.2889" y2="44.9276" gradientUnits="userSpaceOnUse">
<stop stop-color="#BFAB8D"/>
<stop offset="0.5078" stop-color="#E7E1D2"/>
<stop offset="1" stop-color="#CCBFA6"/>
</linearGradient>
<linearGradient id="paint1_linear_75_2934" x1="-2.1495" y1="15.418" x2="17.3935" y2="15.4886" gradientUnits="userSpaceOnUse">
<stop stop-color="#94938C"/>
<stop offset="0.2296" stop-color="#EDEBE1"/>
<stop offset="0.7988" stop-color="#EDEBE1"/>
<stop offset="1" stop-color="#94938C"/>
</linearGradient>
</defs>
</svg>
