<svg width="17" height="64" viewBox="0 0 17 64" fill="none" xmlns="http://www.w3.org/2000/svg">
<path d="M3.20117 23.0879C3.20117 23.0879 11.3723 27.0098 13.6602 23.7416C13.5704 26.9531 13.515 30.1664 13.4729 33.3788C13.393 39.4873 13.3608 45.6018 13.5391 51.7089C13.6017 53.8539 13.6516 56.0015 13.8567 58.1387C13.961 59.2275 14.1048 60.3131 14.3103 61.3873C14.4047 61.8818 14.6892 62.4643 14.46 62.9157C14.1552 63.5159 13.3676 63.652 12.8173 63.3816C12.0429 63.0006 11.5338 62.0633 11.1496 61.3397C10.2227 59.594 9.62477 57.6646 9.08399 55.7719C5.81616 44.332 3.70521 26.6038 3.20117 23.0879Z" fill="url(#paint0_linear_75_2944)"/>
<path d="M1.94513 0.648894C2.71773 0.252391 3.92134 0.49737 4.76789 0.490111C6.33851 0.476955 7.90911 0.481494 9.47928 0.526861C11.2336 0.577671 13.673 0.377144 15.2954 1.1883C16.8533 1.96724 17.0189 3.91302 16.9717 5.44141C16.7848 11.4788 16.396 17.8333 13.9607 23.4465C13.2475 25.0901 12.2521 26.7487 10.6942 27.7159C8.28023 29.2148 5.51689 28.346 4.1409 25.9461C3.03938 24.0253 2.61565 21.811 2.38473 19.6388C2.21007 17.9943 2.31941 16.3375 2.20282 14.6898C2.07987 12.9532 1.56768 11.2683 1.28776 9.55206C0.845433 6.83824 0.310086 4.00647 1.32132 1.35298C1.45108 1.01092 1.67065 0.789984 1.94513 0.648894Z" fill="url(#paint1_linear_75_2944)"/>
<path d="M16.8572 8.48643C16.952 6.18134 16.9706 4.22468 16.9706 4.22468C16.9706 4.22468 17.016 3.68027 16.653 3.31734C16.5482 2.98798 15.5942 3.54281 15.5942 3.54281L14.9849 3.73562L14.6487 4.25098L13.99 4.34807L13.2755 4.51048L13.0623 5.08392L12.9411 6.40228L13.5432 7.08323L14.5984 7.24201L14.4469 7.52918L14.1039 7.59588L13.0555 8.13346L12.5292 9.18009L12.8618 9.70996L12.9262 10.39L13.8362 10.8187L13.1929 11.3141L13.1081 12.2714L12.3627 13.1147L12.6367 13.9613L11.9844 14.7067L12.3627 15.834L13.187 17.0022C13.187 17.0022 13.506 19.5786 14.656 18.6069C15.8065 17.6351 16.0397 16.9256 16.1758 15.3831C16.585 12.7509 16.7959 9.11839 16.8572 8.48643Z" fill="black"/>
<defs>
<linearGradient id="paint0_linear_75_2944" x1="15.8407" y1="43.2738" x2="6.60748" y2="43.3071" gradientUnits="userSpaceOnUse">
<stop stop-color="#BFAB8D"/>
<stop offset="0.5078" stop-color="#E7E1D2"/>
<stop offset="1" stop-color="#CCBFA6"/>
</linearGradient>
<linearGradient id="paint1_linear_75_2944" x1="19.6921" y1="14.3887" x2="-2.50127" y2="14.4689" gradientUnits="userSpaceOnUse">
<stop stop-color="#94938C"/>
<stop offset="0.2296" stop-color="#EDEBE1"/>
<stop offset="0.7988" stop-color="#EDEBE1"/>
<stop offset="1" stop-color="#94938C"/>
</linearGradient>
</defs>
</svg>
