<svg width="19" height="67" viewBox="0 0 19 67" fill="none" xmlns="http://www.w3.org/2000/svg">
<path d="M3.15039 27.3676C5.05532 27.3576 6.98973 27.182 8.89148 27.0296C11.1947 26.845 14.4289 26.9579 16.5321 25.8573C16.7244 25.7566 16.7879 25.4141 16.9649 25.293C17.3673 26.6422 17.0229 28.8044 16.9435 30.1858C16.7162 34.135 16.5416 38.0914 16.5797 42.0479C16.601 44.2318 16.7222 46.4004 16.919 48.5748C17.1903 51.5776 18.2043 54.5092 18.4774 57.5429C18.6688 59.6702 18.6366 61.8328 18.2215 63.9333C18.0909 64.5938 17.9008 66.3064 17.3278 66.4643C16.572 66.6721 15.4319 65.5098 15.0522 64.9976C13.7965 63.3045 13.4744 61.0117 12.832 59.05C12.1134 56.8542 11.2714 54.7011 10.4113 52.5575C8.73406 48.3761 6.97021 44.2055 5.89004 39.819C5.259 37.2562 4.9782 34.6308 4.38571 32.0585C4.02369 30.4825 3.59589 28.9223 3.15039 27.3676Z" fill="url(#paint0_linear_75_2954)"/>
<path d="M0.955968 8.61791C0.955968 8.61791 -0.0226087 3.3881 2.26617 1.75491C4.55495 0.121725 5.53487 0.775903 5.53487 0.775903C6.48123 1.03449 7.43214 1.27674 8.38485 1.50947C9.95365 1.89236 11.6472 2.4413 13.2732 2.39911C13.5989 2.39049 13.9256 2.3542 14.2495 2.38686C16.6725 2.62912 17.0659 5.20956 17.4297 7.09997C17.8965 9.52389 18.2255 11.9805 18.4196 14.4411C18.5798 16.4731 18.6573 18.5282 18.4863 20.5624C18.362 22.0359 18.1561 23.719 17.2909 24.9675C16.0819 26.7118 13.8661 27.5044 11.8845 27.9603C9.36931 28.5392 6.72622 28.6753 4.15389 28.5668C2.75522 28.5074 2.36553 25.3908 2.2875 24.4018C1.87284 19.137 1.43142 13.8768 0.955968 8.61791Z" fill="url(#paint1_linear_75_2954)"/>
<path d="M18.2189 12.5162C17.9458 10.0397 17.3647 7.09278 17.3647 7.09278C17.3647 7.09278 17.3247 6.50439 16.8783 6.17595C16.7132 5.84161 15.7846 6.58878 15.7846 6.58878L15.1657 6.89363L14.8908 7.49835L14.2031 7.70885L13.4668 7.99829L13.332 8.64519L13.4169 10.0724L14.1704 10.7016L15.3227 10.6993L15.2075 11.0305L14.8523 11.1575L13.8202 11.9015L13.4282 13.1042L13.8696 13.6154L14.0488 14.3308L15.0905 14.6407L14.4843 15.274L14.5492 16.3097L13.8905 17.3313L14.3206 18.1905L13.7453 19.092L14.3324 20.2338L15.4021 21.3471C15.4021 21.3471 16.1611 24.0459 17.2313 22.8214C18.3015 21.597 18.4458 21.0903 18.5365 19.1849C18.4911 14.1947 18.2557 13.2012 18.2189 12.5162Z" fill="black"/>
<defs>
<linearGradient id="paint0_linear_75_2954" x1="7.77855" y1="45.8536" x2="16.8602" y2="45.8902" gradientUnits="userSpaceOnUse">
<stop stop-color="#BFAB8D"/>
<stop offset="0.5078" stop-color="#E7E1D2"/>
<stop offset="1" stop-color="#CCBFA6"/>
</linearGradient>
<linearGradient id="paint1_linear_75_2954" x1="-3.7155" y1="14.587" x2="22.6124" y2="14.6931" gradientUnits="userSpaceOnUse">
<stop stop-color="#94938C"/>
<stop offset="0.2296" stop-color="#EDEBE1"/>
<stop offset="0.7988" stop-color="#EDEBE1"/>
<stop offset="1" stop-color="#94938C"/>
</linearGradient>
</defs>
</svg>
