<svg width="19" height="53" viewBox="0 0 19 53" fill="none" xmlns="http://www.w3.org/2000/svg">
<path d="M3.57227 21.5381C3.57227 21.5381 9.78228 47.0321 15.0123 51.2807C20.2424 55.5293 17.6273 47.0316 17.6273 47.0316C17.6273 47.0316 15.6661 31.3433 15.6661 28.4017C15.6661 25.4601 16.7059 19.9512 16.7059 19.9512C16.7059 19.9512 6.63326 22.1202 3.57227 21.5381Z" fill="url(#paint0_linear_75_2964)"/>
<path d="M3.24475 2.25479C3.24475 2.25479 -0.0234798 3.88887 0.956896 8.46448C1.93727 13.0401 1.61064 15.655 1.61064 15.655C1.61064 15.655 2.26437 23.4992 7.82044 23.8259C13.377 24.1525 16.9718 20.8843 17.2989 18.9232C17.6256 16.962 17.6255 11.406 17.9526 10.4252C18.2793 9.44484 19.2601 3.23469 15.9914 2.25433C12.7228 1.27398 10.762 0.946883 10.762 0.946883C10.762 0.946883 7.4938 -0.0330186 3.24475 2.25479Z" fill="url(#paint1_linear_75_2964)"/>
<path d="M17.848 10.992C17.8983 9.93498 18.347 9.94858 18.3924 7.36268C18.4377 4.77679 17.8271 4.66292 17.4378 4.26823C17.3271 3.91211 16.2928 4.50459 16.2928 4.50459L15.6336 4.70874L15.267 5.26267L14.5548 5.36293L13.7822 5.53306L13.5477 6.15094L13.4075 7.57364L14.053 8.31312L15.1913 8.49186L15.0257 8.8008L14.6551 8.87067L13.5191 9.44364L12.9434 10.5701L13.2986 11.1444L13.3635 11.8789L14.3434 12.3485L13.6452 12.8788L13.5468 13.9118L12.736 14.8173L13.0259 15.7333L12.3164 16.5331L12.717 17.753L13.5989 19.0205C13.5989 19.0205 14.0136 22.7855 15.263 21.7443C16.5119 20.7032 17.123 20.338 17.3498 18.115C18.0875 13.1791 17.7767 11.6743 17.848 10.992Z" fill="black"/>
<defs>
<linearGradient id="paint0_linear_75_2964" x1="16.8318" y1="36.2116" x2="5.27495" y2="36.2533" gradientUnits="userSpaceOnUse">
<stop stop-color="#BFAB8D"/>
<stop offset="0.5078" stop-color="#E7E1D2"/>
<stop offset="1" stop-color="#CCBFA6"/>
</linearGradient>
<linearGradient id="paint1_linear_75_2964" x1="21.6281" y1="12.2471" x2="-2.53878" y2="12.3344" gradientUnits="userSpaceOnUse">
<stop stop-color="#94938C"/>
<stop offset="0.2296" stop-color="#EDEBE1"/>
<stop offset="0.4283" stop-color="#EDEBE1"/>
<stop offset="0.7988" stop-color="#EDEBE1"/>
<stop offset="1" stop-color="#94938C"/>
</linearGradient>
</defs>
</svg>
