<svg width="20" height="51" viewBox="0 0 20 51" fill="none" xmlns="http://www.w3.org/2000/svg">
<path d="M4.01953 20.7424C4.82252 25.9986 6.23838 31.2508 8.08162 36.2307C10.1077 41.7037 12.6391 47.1772 17.5605 50.607C17.6798 50.69 17.8077 50.7762 17.9529 50.7835C18.1008 50.7907 18.2401 50.7141 18.3585 50.6251C19.0367 50.1184 19.2858 49.1934 19.2159 48.3495C19.146 47.5057 18.8094 46.7113 18.5154 45.9174C16.7217 41.075 16.2839 35.7457 15.7726 30.6442C15.4487 27.4146 14.6806 23.4558 15.4419 20.2362C16.2594 16.781 4.52582 20.1286 4.01953 20.7424Z" fill="url(#paint0_linear_75_2974)"/>
<path d="M14.1578 0.76085C13.4311 0.433284 12.673 0.425575 11.6605 0.674198C11.3865 0.741345 11.0943 0.845686 10.9455 1.08524C10.2483 2.20495 15.9679 4.355 16.651 3.4154C17.0557 2.85645 15.5301 1.74082 15.2107 1.46362C14.8505 1.15057 14.5076 0.918735 14.1578 0.76085Z" fill="#D8D6D0"/>
<path d="M4.22265 0.947522C3.88513 1.04914 3.62837 1.15802 3.5204 1.25284C2.97421 1.73282 2.4067 2.24366 2.16219 2.92824C2.0642 3.20271 2.05376 3.57064 2.30326 3.72126C2.38764 3.77207 2.48836 3.78749 2.58635 3.79565C3.7309 3.88956 5.05508 3.14554 6.02317 2.6143C6.38155 2.41786 7.9226 1.70878 7.85228 1.15122C7.74522 0.306035 5.44976 0.57869 4.22265 0.947522Z" fill="#D8D6D0"/>
<path d="M2.20622 3.05409C2.20622 3.05409 -0.0816444 4.6882 1.22584 8.93725C1.87958 14.8204 3.84079 20.7036 3.84079 20.7036C3.84079 20.7036 4.49453 21.684 9.07027 21.684C13.646 21.684 14.9535 21.0302 15.6073 19.7228C16.261 18.4153 17.8951 5.99521 17.8951 5.99521C17.8951 5.99521 17.5685 3.05363 16.261 2.72699C14.9535 2.40034 13.646 2.07325 13.3194 2.07325C12.9927 2.07325 10.0511 0.112046 8.74364 0.439141C7.43571 0.766235 4.16745 3.38073 2.20622 3.05409Z" fill="url(#paint1_linear_75_2974)"/>
<path d="M17.19 11.1157C17.3207 10.0654 17.4931 9.56233 17.7344 6.98729C17.9758 4.41225 17.2976 4.47712 16.9392 4.0543C16.8557 3.69045 15.7796 4.2031 15.7796 4.2031L15.1068 4.35645L14.6995 4.88134L13.9818 4.92716L13.1983 5.03832L12.9175 5.63671L12.6698 7.04491L13.2573 7.83156L14.3787 8.09606L14.19 8.3914L13.8153 8.43268L12.6394 8.91766L11.9798 9.99695L12.2905 10.5967L12.2996 11.3344L13.241 11.8765L12.5047 12.3524L12.3282 13.375L11.4513 14.2165L11.6708 15.152L10.9023 15.896L11.209 17.1427L11.992 18.4733C11.992 18.4733 12.1907 22.3581 13.5154 21.4145C15.2193 20.7422 15.5251 20.3475 15.9198 18.1481C17.0308 13.2824 17.0675 11.7908 17.19 11.1157Z" fill="black"/>
<defs>
<linearGradient id="paint0_linear_75_2974" x1="7.24757" y1="34.71" x2="17.6139" y2="34.7475" gradientUnits="userSpaceOnUse">
<stop stop-color="#BFAB8D"/>
<stop offset="0.5078" stop-color="#E7E1D2"/>
<stop offset="1" stop-color="#CCBFA6"/>
</linearGradient>
<linearGradient id="paint1_linear_75_2974" x1="-2.81179" y1="11.0005" x2="21.3205" y2="11.0877" gradientUnits="userSpaceOnUse">
<stop stop-color="#94938C"/>
<stop offset="0.2296" stop-color="#EDEBE1"/>
<stop offset="0.7988" stop-color="#EDEBE1"/>
<stop offset="1" stop-color="#94938C"/>
</linearGradient>
</defs>
</svg>
