<svg width="26" height="51" viewBox="0 0 26 51" fill="none" xmlns="http://www.w3.org/2000/svg">
<path d="M10.7399 2.25916C10.7399 2.25916 9.83387 0.204952 7.99966 0.719411C6.16546 1.23387 5.53169 6.02777 5.86378 9.56185C6.19541 13.0959 7.76739 24.3088 10.4699 24.5397C13.1725 24.7706 18.1148 18.4197 15.8664 14.8816C13.6175 11.3439 9.89739 5.1336 10.7399 2.25916Z" fill="url(#paint0_linear_75_2800)"/>
<path d="M22.5632 32.7117C19.3644 32.4812 15.7347 30.9174 12.53 30.7908C10.5198 30.7114 8.5087 30.5785 6.49624 30.6429C5.56578 30.6724 4.18165 33.1531 3.27977 33.0383C2.69454 32.9639 3.08061 30.5604 3.10465 29.9384C3.12507 29.409 3.16998 28.8818 3.0924 28.3542C2.81385 26.4524 1.7677 24.6468 1.33264 22.7451C0.829071 20.5452 0.488825 18.3028 0.279685 16.0562C0.0578438 13.6731 -0.0356146 11.2387 0.276053 8.85881C0.410337 7.83262 0.593628 6.79055 1.00102 5.83287C1.31813 5.08749 2.08708 3.62442 3.06972 3.73648C3.43038 3.77776 3.75339 3.98282 4.02332 4.22644C4.55229 4.70415 4.92066 5.34018 5.16428 6.01024C5.66649 7.39256 5.65561 8.88105 5.75224 10.3292C5.85205 11.8222 6.25897 13.2049 6.59378 14.6539C7.2153 17.3464 7.94933 20.5153 9.71317 22.7224C10.1423 23.2595 10.7874 23.6941 11.472 23.6293C11.8232 23.5957 12.1512 23.4342 12.4379 23.2287C13.4709 22.4878 13.9962 21.2094 14.1754 19.9509C14.5424 17.3723 14.2661 14.5278 13.577 12.0281C13.1728 10.561 12.4261 9.24715 11.9697 7.81266C11.4875 6.29605 10.8333 3.28734 12.9714 2.70983C13.8343 2.47664 14.7529 2.9176 15.398 3.5364C17.7898 5.82968 19.4053 9.23899 20.7885 12.1951C21.6368 14.0075 22.4557 15.8811 22.9779 17.8183C23.2918 18.9828 23.2582 20.1433 23.2251 21.346C23.1316 24.7076 22.9366 29.3781 22.5632 32.7117Z" fill="url(#paint1_linear_75_2800)"/>
<path d="M3.62254 34.8771C3.35034 34.9602 2.96019 35.6997 2.80912 35.9124C2.21074 36.7567 1.69265 37.6654 1.30477 38.6263C0.259518 41.2154 0.411043 44.055 2.37179 46.1759C2.39493 46.2008 2.41851 46.2258 2.44165 46.2507C2.54735 46.3619 2.6576 46.4703 2.7438 46.5969C2.9856 46.9521 3.04321 47.3967 3.27231 47.7615C3.48871 48.1058 3.80674 48.4279 4.11478 48.6879C4.84019 49.3003 5.8065 49.7259 6.77145 49.6306C7.10308 49.5979 7.41928 49.48 7.73095 49.3629C9.08424 48.8548 10.5537 48.2755 11.2714 46.9317C11.1897 47.085 11.5622 47.7088 11.6561 47.8359C11.8811 48.1417 12.1569 48.2746 12.5049 48.4089C13.654 48.853 14.9048 49.2096 16.0063 49.7604C16.7675 50.0534 17.4099 50.332 18.1843 50.0779C18.6353 49.93 19.0921 49.8003 19.5381 49.637C20.3728 49.3316 21.7615 48.7972 21.7615 47.7143C21.7615 46.0398 23.157 41.0167 19.808 35.9936C16.4609 30.9724 3.63343 34.874 3.62254 34.8771Z" fill="#D8D6D0"/>
<path d="M3.60585 30.7499C3.28692 30.847 2.82963 31.7135 2.65315 31.9626C1.95224 32.9515 1.34568 34.0158 0.891109 35.1409C-0.333335 38.1737 -0.155496 41.4995 2.14051 43.9829C2.16773 44.0119 2.1954 44.0414 2.22262 44.0704C2.34647 44.2006 2.47532 44.3277 2.57648 44.476C2.86002 44.8925 2.92716 45.4128 3.19528 45.8402C3.44842 46.243 3.82088 46.6205 4.182 46.9253C5.03172 47.6426 6.16362 48.1407 7.29325 48.0295C7.68158 47.9914 8.05178 47.8531 8.41698 47.7161C10.0021 47.1213 11.7233 46.4422 12.5639 44.8684C12.4682 45.0476 12.9046 45.7785 13.0144 45.9277C13.278 46.2857 13.6015 46.4413 14.0084 46.5987C15.3544 47.1191 16.8193 47.5364 18.1095 48.1815C19.001 48.525 19.7532 48.8511 20.6605 48.5535C21.1886 48.3802 21.7239 48.2283 22.2461 48.0373C23.2237 47.6798 24.8506 47.0537 24.8506 45.7853C24.8506 43.8241 26.4847 37.941 22.5627 32.0578C18.6421 26.1765 3.6181 30.7463 3.60585 30.7499Z" fill="url(#paint2_linear_75_2800)"/>
<path d="M1.82461 33.2793C1.96026 33.0153 3.04954 33.3701 3.04954 33.3701L3.28318 33.6908L3.56809 34.1449L4.21458 34.2792L4.91008 34.4716L5.0675 34.9638L5.0616 36.0653L4.39696 36.5803L3.33173 36.6256L3.45513 36.8756L3.78995 36.9591L4.78214 37.4894L5.20542 38.399L4.82342 38.8105L4.69413 39.3685L3.74684 39.6493L4.3398 40.1121L4.33255 40.9114L4.99355 41.6709L4.63969 42.3496L5.21767 43.0197L4.73268 43.9225L3.79993 44.823C3.79993 44.823 4.05126 46.7865 2.37264 46.1513C1.69212 45.9245 1.09009 44.1665 0.830133 43.4747C0.262127 41.9635 0.13555 40.044 0.194982 38.7565C0.219481 38.2257 0.228101 36.7939 0.648662 35.4901C0.995272 34.414 1.76291 33.3987 1.82461 33.2793Z" fill="black"/>
<defs>
<linearGradient id="paint0_linear_75_2800" x1="14.2548" y1="23.5225" x2="-4.30701" y2="-21.8431" gradientUnits="userSpaceOnUse">
<stop offset="0.1599" stop-color="#BFAB8D"/>
<stop offset="0.5078" stop-color="#E7E1D2"/>
<stop offset="0.7297" stop-color="#CCBFA6"/>
</linearGradient>
<linearGradient id="paint1_linear_75_2800" x1="1.37589" y1="17.5261" x2="22.2863" y2="18.4715" gradientUnits="userSpaceOnUse">
<stop offset="0.1599" stop-color="#BFAB8D"/>
<stop offset="0.5078" stop-color="#E7E1D2"/>
<stop offset="0.7297" stop-color="#CCBFA6"/>
</linearGradient>
<linearGradient id="paint2_linear_75_2800" x1="-5.58165" y1="41.1822" x2="30.3373" y2="37.4101" gradientUnits="userSpaceOnUse">
<stop stop-color="#94938C"/>
<stop offset="0.2296" stop-color="#EDEBE1"/>
<stop offset="0.7988" stop-color="#EDEBE1"/>
<stop offset="1" stop-color="#94938C"/>
</linearGradient>
</defs>
</svg>
