<svg width="29" height="50" viewBox="0 0 29 50" fill="none" xmlns="http://www.w3.org/2000/svg">
<path d="M9.1509 0.444351C7.83798 0.533721 6.82449 0.918876 5.74657 1.65924C5.45486 1.85976 5.17857 2.10155 5.23619 2.38826C5.50476 3.72745 15.3802 2.65138 15.2854 1.47687C15.2264 0.779149 12.0149 0.592245 11.2959 0.514669C10.4847 0.42666 9.78286 0.401253 9.1509 0.444351Z" fill="#D8D6D0"/>
<path d="M19.3169 45.8118C19.9925 47.9758 18.3973 48.8586 16.9156 47.5765C14.0511 45.0977 12.3933 41.1214 10.9352 37.4789C10.2601 35.7922 7.36154 29.861 8.88681 28.4274C10.4003 27.0052 16.3331 29.7135 16.637 33.5198C16.8017 35.5844 16.8711 37.6549 17.2264 39.7205C17.6129 41.9652 18.6545 43.6914 19.3169 45.8118Z" fill="url(#paint0_linear_75_2988)"/>
<path d="M2.5405 20.538C2.72831 21.3124 2.89479 22.1004 2.93154 22.2528C3.24684 23.5607 3.52042 24.8791 3.73999 26.2065C3.91919 27.2912 4.06255 28.3818 4.16916 29.4765C4.2726 30.5372 4.18232 31.7049 4.38465 32.7447C4.58382 33.7696 4.94901 34.8447 5.29425 35.8346C6.33088 38.8075 7.90103 41.574 9.76561 44.1027C10.7011 45.3711 11.7128 46.5829 12.7807 47.742C13.4367 48.4543 14.8313 50.5629 15.9904 49.6868C16.4255 49.3579 16.6001 48.7714 16.572 48.2265C16.5439 47.6816 16.3443 47.1627 16.1551 46.6509C14.6979 42.7027 13.3124 37.814 14.1317 33.5781C14.217 33.1367 14.3504 32.6808 14.6671 32.3618C15.0822 31.944 15.7468 31.8501 16.3148 32.0066C16.8828 32.1631 17.3673 32.5347 17.7901 32.9448C19.2414 34.3534 20.2726 36.3337 21.1595 38.1347C21.8309 39.4985 22.3241 40.9515 22.6076 42.4455C22.8789 43.8754 22.6484 45.5748 23.2228 46.9168C23.5444 47.669 24.2617 48.3136 25.0797 48.29C25.7162 48.2719 26.2796 47.8622 26.6993 47.3831C28.2454 45.6179 28.5416 42.8052 28.6319 40.5546C28.7453 37.7183 28.3415 34.8919 27.9019 32.0978C27.3035 28.2938 26.5346 24.5157 25.6758 20.7625C25.6427 20.6169 25.1754 18.2492 25.081 18.252C25.081 18.252 2.20614 18.8866 1.99609 18.8925C2.11269 18.8903 2.33861 19.706 2.5405 20.538Z" fill="url(#paint1_linear_75_2988)"/>
<path d="M20.4404 0.268286C19.2546 0.20069 18.2892 0.459732 17.2099 1.06174C16.9178 1.22461 16.6329 1.43057 16.6388 1.71956C16.6655 3.07148 25.6494 3.18262 25.7514 2.01353C25.8095 1.31852 22.9732 0.753258 22.344 0.5913C21.6336 0.409381 21.0116 0.30095 20.4404 0.268286Z" fill="#D8D6D0"/>
<path d="M4.49634 1.31816C3.54318 1.41343 2.64537 1.78045 1.87186 2.58708C0.875152 3.62645 0.37612 5.06822 0.252722 6.50273C-0.0117669 9.58044 0.514941 13.2407 1.28391 16.2222C1.52798 17.1686 1.55249 19.1575 2.20215 19.8879C4.22369 22.1603 8.66555 21.0547 11.3535 20.8683C14.4321 20.6546 17.7466 20.5525 20.5049 19.8879C22.331 19.7962 25.684 20.2005 26.2384 17.7856C26.8735 15.0177 27.2646 12.1872 27.3953 9.35043C27.4932 7.23088 27.8026 1.99367 24.7558 1.58492C24.3098 1.52503 23.5572 2.0277 23.1103 2.12932C22.1781 2.34073 21.2685 2.31216 20.343 2.06627C19.2047 1.76412 18.1477 1.21972 17.0566 0.776479C16.8193 0.680301 16.5725 0.587297 16.3167 0.594102C15.7337 0.60998 15.3054 1.11492 14.8391 1.46515C12.876 2.94049 9.35739 2.17514 7.19022 1.60851C6.28016 1.37078 5.36511 1.23151 4.49634 1.31816Z" fill="url(#paint2_linear_75_2988)"/>
<path d="M27.4723 7.82709C27.4723 7.19195 27.4283 6.33634 27.3362 5.51338C27.2369 4.62284 27.0187 3.83482 27.0187 3.83482C27.0187 3.83482 26.8826 3.42652 26.7465 3.15432C26.6105 2.88212 26.3383 2.47382 26.3383 2.47382L25.7486 2.15625L25.1612 2.40713L24.8767 2.95244L24.2303 3.11303L23.5349 3.34349L23.378 3.93508L23.3852 5.25887L24.0502 5.87859L25.1158 5.93439L24.9929 6.23471L24.6581 6.33451L23.6669 6.97101L23.2446 8.06344L23.627 8.55839L23.7572 9.22891L24.7044 9.56734L24.1124 10.1226L24.1205 11.0835L23.4605 11.9954L23.8153 12.8111L23.2383 13.6159L23.7241 14.701L24.6576 15.784L26.3846 17.0361L26.6726 15.6451C26.6726 15.6451 26.9743 13.9965 27.1103 13.0438C27.2464 12.0911 27.4723 8.46222 27.4723 7.82709Z" fill="black"/>
<defs>
<linearGradient id="paint0_linear_75_2988" x1="11.5533" y1="27.5188" x2="19.3146" y2="71.8106" gradientUnits="userSpaceOnUse">
<stop offset="0.1599" stop-color="#BFAB8D"/>
<stop offset="0.5078" stop-color="#E7E1D2"/>
<stop offset="0.7297" stop-color="#CCBFA6"/>
</linearGradient>
<linearGradient id="paint1_linear_75_2988" x1="4.58234" y1="34.0182" x2="27.1094" y2="34.0995" gradientUnits="userSpaceOnUse">
<stop stop-color="#BFAB8D"/>
<stop offset="0.5078" stop-color="#E7E1D2"/>
<stop offset="1" stop-color="#CCBFA6"/>
</linearGradient>
<linearGradient id="paint2_linear_75_2988" x1="-5.52258" y1="10.8866" x2="33.323" y2="11.027" gradientUnits="userSpaceOnUse">
<stop stop-color="#94938C"/>
<stop offset="0.2296" stop-color="#EDEBE1"/>
<stop offset="0.7988" stop-color="#EDEBE1"/>
<stop offset="1" stop-color="#94938C"/>
</linearGradient>
</defs>
</svg>
