<svg width="27" height="48" viewBox="0 0 27 48" fill="none" xmlns="http://www.w3.org/2000/svg">
<path d="M15.8678 42.3469C16.0697 44.304 14.7998 44.7491 13.8984 43.3858C12.1559 40.7496 11.4835 37.0753 10.9119 33.7213C10.647 32.1684 9.33679 26.6074 10.6288 25.6828C11.9109 24.7659 15.8405 28.1752 15.557 31.4498C15.4032 33.2264 15.1791 34.9898 15.1628 36.8031C15.1451 38.7738 15.67 40.4297 15.8678 42.3469Z" fill="url(#paint0_linear_75_3004)"/>
<path d="M4.23828 20.0857C4.92377 22.0441 5.47634 24.0884 5.79527 26.1389C6.00985 27.519 5.9781 28.7457 5.76851 30.1117C5.41601 32.4073 5.39059 34.8031 5.48949 37.1186C5.64373 40.7303 7.37628 43.4504 8.76131 46.6992C9.27032 47.8928 10.4476 48.5193 11.5146 47.421C12.8678 46.0282 12.5031 43.1007 12.5571 41.3341C12.6306 38.9161 12.6796 36.4812 13.1632 34.1017C13.3715 33.0773 13.664 32.0561 14.1989 31.1579C14.7306 30.2646 15.7133 29.8291 16.6546 30.4724C17.9081 31.3289 18.1907 33.2053 18.6235 34.5409C19.0295 35.7934 19.3975 37.0583 19.7527 38.3263C20.2544 40.1174 20.7185 41.9189 21.1967 43.7159C21.3949 44.4599 22.0418 46.2074 23.1356 45.4479C23.5049 45.1912 23.6873 44.7466 23.8411 44.3242C24.346 42.9351 24.7493 41.5119 25.1517 40.0901C25.6911 38.1852 26.1874 36.2857 26.3036 34.3018C26.4619 31.597 25.3962 28.9245 24.8754 26.3064C24.322 23.524 23.9763 20.7004 23.8438 17.8668C23.8352 17.6803 23.8207 17.4775 23.6945 17.3396C23.5244 17.1536 23.2327 17.1681 22.9827 17.1967C19.911 17.5487 16.8329 17.835 13.7643 18.2188C11.6879 18.477 9.60874 18.7501 7.55047 19.1293C6.64359 19.2963 4.94146 19.3825 4.23828 20.0857Z" fill="url(#paint1_linear_75_3004)"/>
<path d="M1.83952 15.8398C1.73699 14.6131 1.76514 13.3701 1.5315 12.1583C1.16676 10.267 0.211799 8.61927 0.346991 6.61542C0.672722 1.79113 7.41462 1.41822 10.8044 2.75427C12.2139 3.30956 12.7924 2.78512 13.9774 2.03657C15.2612 1.22541 16.776 0.800781 18.2935 0.800781C20.0288 0.800781 21.9437 1.29437 23.4258 2.20624C25.6184 3.55544 25.6166 5.76888 25.7672 8.09211C25.9341 10.6617 25.8747 13.3088 25.025 15.7659C24.765 16.5181 24.4207 17.2571 23.879 17.84C23.1092 18.6689 22.1283 18.7782 21.0881 19.0178C19.6681 19.3448 18.2322 19.6216 16.8009 19.8924C13.9941 20.4237 11.161 20.856 8.30517 20.9994C6.95098 21.0674 5.54868 20.93 4.34602 20.3035C2.6044 19.3966 1.99422 17.6912 1.83952 15.8398Z" fill="url(#paint2_linear_75_3004)"/>
<path d="M25.8387 9.05025C25.8387 8.41512 25.7933 6.55509 25.5665 5.46629C25.3397 4.37749 25.0275 4.01636 24.8914 3.74416C24.7553 3.47196 24.4831 3.06366 24.4831 3.06366L23.8934 2.74609L23.3059 2.99697L23.0214 3.54228L22.3749 3.70288L21.6795 3.93335L21.5225 4.52493L21.5298 5.84872L22.1948 6.46843L23.2605 6.52423L23.1376 6.82456L22.8028 6.92437L21.8115 7.56086L21.3891 8.65329L21.7716 9.14824L21.9018 9.81876L22.849 10.1572L22.257 10.7125L22.2652 11.6733L21.6051 12.5852L21.9599 13.4009L21.3828 14.2057L21.8687 15.2909L22.8023 16.3738L24.0249 17.6694C24.0249 17.6694 24.3852 17.5229 24.8175 16.235C25.2498 14.9475 25.5674 14.0855 25.7035 13.1328C25.8387 12.1806 25.8387 9.68539 25.8387 9.05025Z" fill="black"/>
<defs>
<linearGradient id="paint0_linear_75_3004" x1="12.6762" y1="25.416" x2="10.5665" y2="64.2213" gradientUnits="userSpaceOnUse">
<stop offset="0.1599" stop-color="#BFAB8D"/>
<stop offset="0.5078" stop-color="#E7E1D2"/>
<stop offset="0.7297" stop-color="#CCBFA6"/>
</linearGradient>
<linearGradient id="paint1_linear_75_3004" x1="6.76519" y1="33.9768" x2="24.2592" y2="30.5727" gradientUnits="userSpaceOnUse">
<stop stop-color="#BFAB8D"/>
<stop offset="0.5078" stop-color="#E7E1D2"/>
<stop offset="1" stop-color="#CCBFA6"/>
</linearGradient>
<linearGradient id="paint2_linear_75_3004" x1="-3.73837" y1="13.9238" x2="29.5599" y2="7.44432" gradientUnits="userSpaceOnUse">
<stop stop-color="#94938C"/>
<stop offset="0.2114" stop-color="#EDEBE1"/>
<stop offset="0.847" stop-color="#EDEBE1"/>
<stop offset="1" stop-color="#94938C"/>
</linearGradient>
</defs>
</svg>
