<svg width="25" height="40" viewBox="0 0 25 40" fill="none" xmlns="http://www.w3.org/2000/svg">
<path d="M15.5449 36.6431C15.8398 38.4963 14.6539 38.9872 13.724 37.7355C11.9266 35.3162 11.0932 31.852 10.3728 28.6877C10.0389 27.2224 8.49967 21.9948 9.68189 21.0467C10.855 20.1062 14.7759 23.1471 14.6775 26.281C14.624 27.9809 14.5033 29.6722 14.5827 31.4002C14.6689 33.2774 15.2555 34.8271 15.5449 36.6431Z" fill="url(#paint0_linear_75_3022)"/>
<path d="M3.07422 13.3337C3.07422 13.3337 4.38168 16.929 4.38168 20.8509C4.38168 24.7729 4.05462 29.6757 6.34288 33.271C8.63069 36.8663 9.28441 38.5004 9.28441 38.5004C9.28441 38.5004 11.2456 40.7882 12.2259 38.1737C12.2259 38.1737 9.93811 30.3294 11.2456 26.4074C12.553 22.4855 13.8605 23.7925 14.1871 24.4462C14.5137 25.1 19.0898 32.6172 19.7436 34.5784C20.3973 36.5396 21.3776 38.5004 22.0314 38.5004C22.6851 38.5004 23.6655 36.8663 24.3192 33.9247C24.9729 30.9831 24.3192 27.7149 23.0117 25.4266C21.7043 23.1388 20.3968 13.0066 20.3968 11.3725C20.3968 9.73835 4.70831 12.6804 3.07422 13.3337Z" fill="url(#paint1_linear_75_3022)"/>
<path d="M10.6252 3.06501C10.3149 2.99152 9.99373 2.78872 9.62082 2.54329C8.60823 1.87594 7.55664 1.23218 6.38845 0.907805C5.2198 0.583431 3.90507 0.611557 2.86527 1.23535C2.13396 1.67405 1.59225 2.36908 1.1463 3.09586C0.448559 4.23321 -0.0663163 5.55475 0.0938279 6.87946C0.276202 8.39019 0.875463 9.87777 1.49018 11.2578C1.86309 12.0949 2.17385 13.0498 2.84573 13.7049C3.62967 14.4689 4.94759 14.5764 5.98059 14.7212C8.20265 15.0319 10.4338 14.7534 12.6032 14.2385C14.7599 13.7263 16.9888 13.1583 19.0861 12.4442C19.4631 12.3158 19.8396 12.1675 20.1554 11.9252C21.0405 11.2451 21.2224 9.69949 21.4352 8.67964C21.7582 7.12944 21.5609 5.52662 20.9266 4.08168C20.11 2.22118 18.5485 0.578892 16.4753 0.259962C14.9913 0.0317658 13.6738 0.33618 12.6753 1.48623C12.3446 1.86732 12.0815 2.3101 11.724 2.66805C11.3297 3.06229 10.9845 3.1503 10.6252 3.06501Z" fill="url(#paint2_linear_75_3022)"/>
<path d="M21.5711 7.1752C21.6165 5.22438 20.6797 3.55893 20.5953 3.38971C20.5105 3.22048 20.3417 2.96687 20.3417 2.96687L19.9751 2.76953L19.6099 2.92559L19.433 3.26449L19.031 3.3643L18.5987 3.50767L18.5012 3.87559L18.5057 4.69857L18.9194 5.08375L19.5818 5.11823L19.5056 5.30514L19.2973 5.36729L18.6813 5.7629L18.4186 6.44206L18.6563 6.74965L18.7371 7.16658L19.3259 7.37709L18.9575 7.72234L18.9625 8.31983L18.5524 8.88648L18.7729 9.39369L18.4141 9.8941L18.7162 10.5687L19.2965 11.242L20.0563 12.0473C20.0559 12.0459 21.3443 11.3944 21.5711 7.1752Z" fill="black"/>
<defs>
<linearGradient id="paint0_linear_75_3022" x1="11.6132" y1="20.6804" x2="11.6373" y2="57.7493" gradientUnits="userSpaceOnUse">
<stop offset="0.1599" stop-color="#BFAB8D"/>
<stop offset="0.5078" stop-color="#E7E1D2"/>
<stop offset="0.7297" stop-color="#CCBFA6"/>
</linearGradient>
<linearGradient id="paint1_linear_75_3022" x1="4.96869" y1="25.1208" x2="21.7267" y2="25.1813" gradientUnits="userSpaceOnUse">
<stop stop-color="#BFAB8D"/>
<stop offset="0.5078" stop-color="#E7E1D2"/>
<stop offset="1" stop-color="#CCBFA6"/>
</linearGradient>
<linearGradient id="paint2_linear_75_3022" x1="-6.28641" y1="7.45574" x2="27.7534" y2="7.57872" gradientUnits="userSpaceOnUse">
<stop stop-color="#94938C"/>
<stop offset="0.2614" stop-color="#EDEBE1"/>
<stop offset="0.7687" stop-color="#EDEBE1"/>
<stop offset="1" stop-color="#94938C"/>
</linearGradient>
</defs>
</svg>
