<svg width="19" height="55" viewBox="0 0 19 55" fill="none" xmlns="http://www.w3.org/2000/svg">
<path d="M9.2363 54.2432C9.2363 54.2432 3.93738 55.3388 2.05962 52.5864C0.181406 49.8336 8.60478 52.5828 9.2363 54.2432Z" fill="#D8D6D0"/>
<path d="M10.0117 54.4804C10.0117 54.4804 15.6549 54.862 17.059 51.2025C18.4631 47.543 10.3443 52.3622 10.0117 54.4804Z" fill="#D8D6D0"/>
<path d="M12.2667 33.947C12.3497 33.9879 12.4286 34.0341 12.503 34.0863C13.9407 35.0907 15.1525 36.718 16.0666 38.1902C17.4558 40.4267 18.4475 42.9849 18.1803 45.6543C17.9979 47.4789 17.7933 49.5771 16.8814 51.2158C16.3488 52.173 15.1515 52.6117 14.1766 52.9511C13.3414 53.2419 12.4985 53.515 11.6796 53.8502C10.9233 54.1596 10.1811 54.6872 9.32912 54.6192C8.34964 54.5407 7.66551 53.7731 6.88201 53.275C5.65256 52.4938 4.18084 52.0932 2.72455 52.1635C2.46868 52.1757 2.20645 52.2016 1.96102 52.1268C1.60307 52.0179 1.34131 51.7139 1.13035 51.4054C0.169473 50.0018 0.194877 48.6417 0.186711 47.0094C0.178091 45.3508 0.210301 43.6822 0.526511 42.049C1.08952 39.1388 3.01219 36.7312 4.02297 33.9842C4.08104 33.8259 4.1391 33.6639 4.24572 33.5333C4.42809 33.3096 4.72661 33.213 5.01424 33.1899C5.5532 33.1463 6.09625 33.2298 6.63022 33.2869C7.64282 33.3958 8.63137 33.5088 9.64942 33.5787C10.457 33.6345 11.5154 33.5755 12.2667 33.947Z" fill="url(#paint0_linear_75_2892)"/>
<path d="M14.41 35.8607C14.3737 35.8902 14.3302 35.9133 14.2771 35.9279C14.0103 36.0027 13.1883 35.6003 12.8975 35.5241C11.9335 35.2719 10.9586 35.0609 9.97773 34.8853C8.93839 34.6993 7.88861 34.5229 6.83022 34.5142C6.26994 34.5097 5.7065 34.5487 5.15802 34.6676C4.67079 34.7733 4.1459 35.1072 3.68453 35.1489C3.34836 33.8383 3.68951 32.314 3.76754 30.9829C3.85419 29.5031 3.99029 28.0264 4.17493 26.5556C4.52153 23.7955 5.21019 21.1384 5.7124 18.4132C6.20145 15.7624 6.33754 12.9601 6.27902 10.2608C6.25135 8.99149 6.17468 7.71986 6.02905 6.45867C5.9052 5.38212 5.59489 4.41854 5.70513 3.30297C5.81719 2.16881 6.34934 0.451239 7.84688 0.915792C8.97423 1.26557 9.67604 2.50544 10.2449 3.44815C11.3287 5.24331 12.1177 7.19905 12.8444 9.16569C13.5703 11.1296 14.2394 13.1275 14.6182 15.1908C14.949 16.9905 14.9086 18.7521 14.8773 20.569C14.8283 23.4534 14.7593 26.3374 14.6881 29.2213C14.6423 31.0823 14.7484 33.0235 14.6019 34.9107C14.5756 35.2637 14.6273 35.6829 14.41 35.8607Z" fill="url(#paint1_linear_75_2892)"/>
<path d="M0.320097 43.0678C0.446667 41.1511 1.31859 39.6117 1.45423 39.3477C1.58988 39.0837 2.6791 39.4384 2.6791 39.4384L2.91274 39.7592L3.19763 40.2133L3.84409 40.3476L4.53954 40.54L4.69696 41.0322L4.69107 42.1337L4.02646 42.6486L2.96128 42.694L3.08467 42.944L3.41947 43.0275L4.41161 43.5583L4.83487 44.4679L4.4529 44.8794L4.3236 45.4374L3.37638 45.7182L3.9693 46.1809L3.96204 46.9803L4.62302 47.7398L4.26917 48.4185L4.84712 49.0886L4.36217 49.9914L3.42945 50.8915C3.42945 50.8915 3.5415 52.7765 1.86298 52.1413C1.1825 51.9145 0.852689 50.9277 0.592744 50.2359C-0.403482 47.5873 0.320551 43.487 0.320097 43.0678Z" fill="black"/>
<defs>
<linearGradient id="paint0_linear_75_2892" x1="-5.76304" y1="44.3065" x2="24.4736" y2="43.3751" gradientUnits="userSpaceOnUse">
<stop stop-color="#94938C"/>
<stop offset="0.2666" stop-color="#EDEBE1"/>
<stop offset="0.7117" stop-color="#EDEBE1"/>
<stop offset="1" stop-color="#94938C"/>
</linearGradient>
<linearGradient id="paint1_linear_75_2892" x1="0.775198" y1="19.4363" x2="15.1346" y2="17.9284" gradientUnits="userSpaceOnUse">
<stop stop-color="#BFAB8D"/>
<stop offset="0.5078" stop-color="#E7E1D2"/>
<stop offset="1" stop-color="#CCBFA6"/>
</linearGradient>
</defs>
</svg>
