<svg width="19" height="58" viewBox="0 0 19 58" fill="none" xmlns="http://www.w3.org/2000/svg">
<path d="M9.48944 56.2736C9.48944 56.2736 4.14336 57.1088 2.40216 54.2674C0.661422 51.4261 8.94004 54.5841 9.48944 56.2736Z" fill="#D8D6D0"/>
<path d="M4.12305 38.3526C4.12305 38.3526 4.44969 27.24 5.43052 24.2984C6.4109 21.3568 7.39172 11.5518 7.06463 8.93682C6.73753 6.32188 6.73799 2.39993 6.73799 2.39993C6.73799 2.39993 6.41135 -0.541643 9.35294 1.7462C12.2945 4.03404 15.8898 15.1466 15.5628 19.7223C15.2361 24.298 15.1327 38.0867 15.1844 38.0563C15.2356 38.0259 4.12305 38.3526 4.12305 38.3526Z" fill="url(#paint0_linear_75_2879)"/>
<path d="M14.9094 37.0452C14.9094 37.0452 22.4266 48.1578 16.8706 54.041C16.1919 54.7596 15.1244 55.265 14.2974 55.7908C13.4436 56.3339 12.5327 57.0879 11.492 57.2054C10.2984 57.3405 9.42462 56.0916 8.25144 55.848C6.38644 55.4605 4.56136 55.7672 2.96855 54.4951C1.65338 53.4449 0.85584 51.8076 0.585004 50.168C0.247479 48.1224 0.596799 46.0437 1.00419 44.0353C1.17794 43.1792 1.47373 42.3645 1.81987 41.5628C2.1887 40.7081 2.85376 39.8738 3.1432 39.0055C3.1432 39.0064 5.75766 31.1624 14.9094 37.0452Z" fill="url(#paint1_linear_75_2879)"/>
<path d="M0.449852 46.5603C0.576422 44.6435 1.62982 42.0608 1.76546 41.7968C1.9011 41.5328 2.43642 41.9483 2.43642 41.9483L3.02436 42.1579L3.30926 42.612L3.95572 42.7463L4.65117 42.9387L4.80859 43.4309L4.8027 44.5324L4.13808 45.0473L3.0729 45.0927L3.1963 45.3426L3.53109 45.4261L4.52325 45.9569L4.94651 46.8665L4.56453 47.278L4.43523 47.836L3.488 48.1168L4.08093 48.5795L4.07367 49.3789L4.73465 50.1383L4.3808 50.817L4.95876 51.4871L4.4738 52.3899L3.54107 53.2899C3.54107 53.2899 3.16454 55.2997 2.36792 54.2349C0.0506336 51.1368 0.450305 47.0888 0.449852 46.5603Z" fill="black"/>
<defs>
<linearGradient id="paint0_linear_75_2879" x1="5.02294" y1="19.6614" x2="17.9156" y2="19.2643" gradientUnits="userSpaceOnUse">
<stop stop-color="#BFAB8D"/>
<stop offset="0.5078" stop-color="#E7E1D2"/>
<stop offset="1" stop-color="#CCBFA6"/>
</linearGradient>
<linearGradient id="paint1_linear_75_2879" x1="-3.12701" y1="46.4417" x2="23.599" y2="45.6184" gradientUnits="userSpaceOnUse">
<stop stop-color="#94938C"/>
<stop offset="0.0311" stop-color="#A6A59D"/>
<stop offset="0.0939" stop-color="#C5C3BB"/>
<stop offset="0.1552" stop-color="#DBD9D0"/>
<stop offset="0.2138" stop-color="#E8E7DD"/>
<stop offset="0.2666" stop-color="#EDEBE1"/>
<stop offset="0.7117" stop-color="#EDEBE1"/>
<stop offset="0.7637" stop-color="#E7E5DB"/>
<stop offset="0.835" stop-color="#D5D3CA"/>
<stop offset="0.9175" stop-color="#B8B7AF"/>
<stop offset="1" stop-color="#94938C"/>
</linearGradient>
</defs>
</svg>
