<svg width="20" height="70" viewBox="0 0 20 70" fill="none" xmlns="http://www.w3.org/2000/svg">
<path d="M16.0309 45.479C16.0309 45.479 3.94928 42.4507 2.94531 44.1774L7.82451 9.62468C7.82451 9.62468 7.67298 0.744141 8.98045 0.744141C10.2879 0.744141 11.5954 4.6661 11.5954 4.6661C11.5954 4.6661 15.7396 37.2091 16.0309 45.479Z" fill="url(#paint0_linear_75_2796)"/>
<path d="M13.707 41.9822C13.7074 41.9831 20.8976 51.4611 19.5901 59.305C19.1682 61.836 18.3044 64.4814 16.7787 66.5687C16.0347 67.5867 15.068 68.5081 13.849 68.9119C12.2366 69.4459 10.1675 69.0267 8.55104 68.666C7.75531 68.4886 6.97363 68.2441 6.23234 67.9029C1.04964 65.5194 -0.319526 59.374 0.097394 54.1659C0.390463 50.5075 1.50105 46.9585 2.94462 43.6058C3.88099 41.431 6.06222 40.8612 8.23937 40.5531C9.87802 40.3213 12.5928 40.5132 13.707 41.9822Z" fill="url(#paint1_linear_75_2796)"/>
<path d="M13.7109 42.0116C13.7113 42.0125 20.9015 51.4905 19.594 59.3344C19.1721 61.8654 18.3083 64.5107 16.7826 66.598C16.0386 67.616 15.0719 68.5374 13.8529 68.9412C12.2405 69.4751 10.1714 69.0559 8.55494 68.6953C7.7592 68.5179 6.97754 68.2734 6.23625 67.9322C1.05355 65.5487 -0.31562 59.4033 0.1013 54.1953C0.39437 50.5369 1.50494 46.9879 2.94851 43.6353C3.88488 41.4604 6.06611 40.8906 8.24326 40.5826C9.88191 40.3503 12.5971 40.5427 13.7109 42.0116Z" fill="url(#paint2_linear_75_2796)"/>
<path d="M0.0655232 54.8059C0.194371 52.5022 0.866281 49.3509 1.00239 49.0333C1.13849 48.7158 2.14388 49.3409 2.14388 49.3409L2.73139 49.5918L3.01586 50.1371L3.66236 50.2977L4.35787 50.5282L4.51485 51.1198L4.50758 52.4436L3.84249 53.0634L2.77676 53.1192L2.89971 53.4195L3.23455 53.5193L4.22584 54.1558L4.64823 55.2483L4.26578 55.7432L4.13557 56.4138L3.18827 56.7522L3.78033 57.3075L3.77215 58.2684L4.43228 59.1803L4.07748 59.996L4.65459 60.8008L4.16869 61.8861L3.23499 62.969C3.23499 62.969 2.85617 65.3848 2.06085 64.1059C-0.25206 60.3862 0.0655232 55.4411 0.0655232 54.8059Z" fill="black"/>
<defs>
<linearGradient id="paint0_linear_75_2796" x1="4.606" y1="23.355" x2="14.2106" y2="23.0591" gradientUnits="userSpaceOnUse">
<stop stop-color="#BFAB8D"/>
<stop offset="0.5078" stop-color="#E7E1D2"/>
<stop offset="1" stop-color="#CCBFA6"/>
</linearGradient>
<linearGradient id="paint1_linear_75_2796" x1="-5.48126" y1="54.5275" x2="26.3233" y2="55.096" gradientUnits="userSpaceOnUse">
<stop stop-color="#94938C"/>
<stop offset="0.2666" stop-color="#EDEBE1"/>
<stop offset="0.7117" stop-color="#EDEBE1"/>
<stop offset="1" stop-color="#94938C"/>
</linearGradient>
<linearGradient id="paint2_linear_75_2796" x1="-6.24798" y1="54.5431" x2="26.7047" y2="55.1321" gradientUnits="userSpaceOnUse">
<stop stop-color="#94938C"/>
<stop offset="0.0617" stop-color="#A4A29B"/>
<stop offset="0.1809" stop-color="#CCCAC2"/>
<stop offset="0.2666" stop-color="#EDEBE1"/>
<stop offset="0.7117" stop-color="#EDEBE1"/>
<stop offset="0.7719" stop-color="#E0DED5"/>
<stop offset="0.883" stop-color="#BEBDB4"/>
<stop offset="1" stop-color="#94938C"/>
</linearGradient>
</defs>
</svg>
