<svg width="20" height="61" viewBox="0 0 20 61" fill="none" xmlns="http://www.w3.org/2000/svg">
<path d="M13.3347 34.7564C13.3347 34.7564 16.6029 36.0639 17.5838 43.5811C17.5838 43.5811 18.5642 51.4255 18.8913 53.7133C19.2179 56.0011 19.2179 58.9427 15.623 59.9231C12.0277 60.9034 8.75944 60.2497 6.79822 59.5964C4.83701 58.9427 1.89541 56.9815 1.24167 54.6937C0.587933 52.4058 1.24167 41.2933 2.22205 39.3321C3.20243 37.3709 5.49029 32.1415 13.3347 34.7564Z" fill="url(#paint0_linear_75_2859)"/>
<path d="M10.0664 3.70575C10.0664 3.70575 17.2408 19.3908 14.3074 35.8979C14.3074 35.8979 3.90509 34.6649 3.39062 37.4885C4.84964 30.6213 5.55057 23.3944 5.26384 16.3844C5.14725 13.5403 4.94673 10.7004 4.86688 7.85499C4.81516 6.00221 4.49306 3.8854 5.28835 2.15965C5.62225 1.43424 6.17437 0.368117 7.08036 0.283281C8.61786 0.139469 9.60552 2.64599 10.0664 3.70575Z" fill="url(#paint1_linear_75_2859)"/>
<path d="M1.10862 47.258C1.23746 44.9543 1.47155 42.9482 1.47155 42.9482C1.47155 42.9482 1.60765 41.5872 1.74375 41.2697C1.87986 40.9521 2.88517 41.5772 2.88517 41.5772L3.47268 41.8281L3.75714 42.3734L4.40362 42.534L5.0991 42.7645L5.25606 43.3561L5.2488 44.6798L4.58371 45.2995L3.51805 45.3553L3.64099 45.6557L3.9758 45.7555L4.96707 46.392L5.38944 47.4844L5.00699 47.9793L4.87678 48.6499L3.92952 48.9883L4.52157 49.5436L4.5134 50.5044L5.17348 51.4163L4.81872 52.232L5.3958 53.0368L4.90992 54.122L3.97626 55.2049C3.97626 55.2049 3.29983 57.5358 2.24913 56.457C1.19843 55.3782 1.10771 54.1079 0.971608 53.1552C0.835507 52.2025 1.10862 47.8932 1.10862 47.258Z" fill="black"/>
<defs>
<linearGradient id="paint0_linear_75_2859" x1="23.5" y1="47.8805" x2="-2.51062" y2="46.5773" gradientUnits="userSpaceOnUse">
<stop stop-color="#94938C"/>
<stop offset="0.1599" stop-color="#D1CFC6"/>
<stop offset="0.2296" stop-color="#EDEBE1"/>
<stop offset="0.7988" stop-color="#EDEBE1"/>
<stop offset="0.9762" stop-color="#9F9E96"/>
<stop offset="1" stop-color="#94938C"/>
</linearGradient>
<linearGradient id="paint1_linear_75_2859" x1="6.02011" y1="18.8959" x2="15.0012" y2="19.0564" gradientUnits="userSpaceOnUse">
<stop stop-color="#BFAB8D"/>
<stop offset="0.5078" stop-color="#E7E1D2"/>
<stop offset="1" stop-color="#CCBFA6"/>
</linearGradient>
</defs>
</svg>
