<svg width="26" height="75" viewBox="0 0 26 75" fill="none" xmlns="http://www.w3.org/2000/svg">
<path d="M13.0028 0.891539C14.5557 2.41722 15.3297 5.67092 16.1113 7.65662C18.5012 13.7285 20.3177 20.0345 21.3702 26.4779C21.8942 29.6849 22.229 32.9236 22.3565 36.171C22.4209 37.8042 22.4331 39.4392 22.3918 41.0733C22.3583 42.4107 22.5787 44.3556 22.023 45.5687C21.3389 44.7956 20.8517 43.8661 20.1276 43.1225C18.3574 41.3042 16.0687 40.004 13.4842 40.0026C12.3931 40.0022 11.3211 40.2236 10.3017 40.596C9.88799 40.7471 9.48333 40.9227 9.08909 41.1187C7.93906 41.6903 6.55493 43.4156 5.3314 43.5086C5.15266 41.1164 5.75737 38.4316 5.98511 36.0326C5.98511 29.9426 7.18824 23.5109 8.09965 17.5021C8.37366 15.6947 8.78605 13.9113 8.74794 12.0785C8.70847 10.1863 8.49615 8.29629 8.62453 6.40268C8.73976 4.70733 8.95207 0.612987 11.2871 0.353036C11.7462 0.301771 12.198 0.471894 12.6286 0.639297C12.7665 0.693283 12.8903 0.780844 13.0028 0.891539Z" fill="url(#paint0_linear_75_2844)"/>
<path d="M25.2871 69.5365C25.2871 69.5365 27.575 42.7356 15.4821 38.8131C15.4821 38.8131 1.75465 36.5253 0.44764 60.3846C0.410439 61.0651 0.304734 61.742 0.275699 62.4252C0.213094 63.916 0.267079 65.4226 0.524307 66.8943C0.79469 68.44 1.30006 70.0373 2.35075 71.2382C2.86021 71.8202 3.4958 72.2821 4.21713 72.5652C4.84228 72.8106 5.5305 72.9027 6.18649 73.0374C6.99402 73.2035 7.80334 73.3595 8.61721 73.4902C9.05636 73.5605 9.49734 73.624 9.93875 73.6771C11.5615 73.8726 13.1974 73.9343 14.8311 73.996C17.4845 74.0963 20.2347 74.2283 22.7135 73.0932C24.1802 72.4223 25.2871 71.2178 25.2871 69.5365Z" fill="url(#paint1_linear_75_2844)"/>
<path d="M0.808695 59.7079C0.875838 57.9799 1.21609 55.0629 1.57449 53.1003L1.79135 51.9172L2.20238 50.0322L3.21315 49.0469L4.30287 49.9088L4.71026 50.6801L5.62804 50.9028L6.61568 51.2244L6.84251 52.0619V53.9391L5.90387 54.8224L4.3936 54.9095L4.57008 55.3346L5.04553 55.4734L6.45599 56.3685L7.06346 57.9146L6.52494 58.6191L6.34576 59.5709L5.0047 60.0581L5.84851 60.8407L5.84444 62.203L6.78718 63.4905L6.2904 64.6501L7.11472 65.787L6.43421 67.3294L5.11857 68.8719L2.26044 68.6904L0.675784 65.933C0.67533 65.933 0.741552 61.4359 0.808695 59.7079Z" fill="black"/>
<defs>
<linearGradient id="paint0_linear_75_2844" x1="18.6893" y1="22.9215" x2="5.20833" y2="23.1625" gradientUnits="userSpaceOnUse">
<stop stop-color="#BFAB8D"/>
<stop offset="0.5078" stop-color="#E7E1D2"/>
<stop offset="1" stop-color="#CCBFA6"/>
</linearGradient>
<linearGradient id="paint1_linear_75_2844" x1="30.3623" y1="56.3996" x2="-4.65884" y2="56.4174" gradientUnits="userSpaceOnUse">
<stop stop-color="#94938C"/>
<stop offset="0.2296" stop-color="#EDEBE1"/>
<stop offset="0.7876" stop-color="#EDEBE1"/>
<stop offset="1" stop-color="#94938C"/>
</linearGradient>
</defs>
</svg>
