<svg width="27" height="75" viewBox="0 0 27 75" fill="none" xmlns="http://www.w3.org/2000/svg">
<path d="M13.249 0.938414C11.6961 2.4641 10.9221 5.7178 10.1405 7.7035C7.75055 13.7754 5.93405 20.0814 4.88154 26.5248C4.35755 29.7318 4.02275 32.9705 3.89527 36.2178C3.83085 37.8511 3.81861 39.4861 3.8599 41.1202C3.89347 42.4576 3.67298 44.4025 4.22872 45.6156C4.91285 44.8425 5.40008 43.913 6.12414 43.1694C7.89435 41.3511 10.1831 40.0509 12.7676 40.0495C13.8587 40.0491 14.9308 40.2705 15.9501 40.6429C16.3639 40.794 16.7686 40.9696 17.1628 41.1655C18.3128 41.7372 19.697 43.4625 20.9205 43.5555C21.0993 41.1633 20.4945 38.4785 20.2668 36.0795C20.2668 29.9894 19.0636 23.5578 18.1522 17.549C17.8782 15.7416 17.4658 13.9582 17.504 12.1254C17.5434 10.2331 17.7557 8.34316 17.6273 6.44956C17.5121 4.7542 17.2998 0.659862 14.9648 0.399911C14.5057 0.348646 14.0538 0.518769 13.6233 0.686172C13.4854 0.740158 13.3615 0.827719 13.249 0.938414Z" fill="url(#paint0_linear_75_2849)"/>
<path d="M0.965372 69.5833C0.965372 69.5833 -1.32251 42.7824 10.7706 38.86C10.7706 38.86 24.4983 36.5722 25.8053 60.4315C25.8425 61.112 25.9482 61.7889 25.9773 62.4721C26.0399 63.9629 25.9859 65.4695 25.7286 66.9412C25.4583 68.4868 24.9529 70.0842 23.9022 71.2851C23.3927 71.8671 22.7571 72.3289 22.0358 72.612C21.4106 72.8575 20.7224 72.9496 20.0664 73.0843C19.2588 73.2503 18.4495 73.4064 17.6356 73.5371C17.1964 73.6074 16.7555 73.6709 16.314 73.724C14.6912 73.9195 13.0553 73.9812 11.4216 74.0429C8.76809 74.1432 6.01793 74.2752 3.53906 73.1401C2.07233 72.4691 0.965372 71.2646 0.965372 69.5833Z" fill="url(#paint1_linear_75_2849)"/>
<path d="M25.8973 59.5263C25.8302 57.7983 25.49 54.8812 25.1316 52.9187L24.9148 51.7355L24.5038 49.8506L23.4931 48.8652L22.4034 49.7272L21.9961 50.4984L21.0784 50.7212L20.0908 51.0428L19.864 51.8803V53.7575L20.8026 54.6408L22.3127 54.7279L22.1362 55.153L21.6608 55.2918L20.2505 56.1869L19.6431 57.7329L20.1815 58.4375L20.3607 59.3893L21.7017 59.8765L20.8579 60.6591L20.862 62.0214L19.9193 63.3089L20.4161 64.4685L19.5918 65.6053L20.2723 67.1478L21.5878 68.6902L24.4457 68.5088L26.0303 65.7514C26.0307 65.7514 25.9645 61.2543 25.8973 59.5263Z" fill="black"/>
<defs>
<linearGradient id="paint0_linear_75_2849" x1="7.56257" y1="22.9684" x2="21.0437" y2="23.2093" gradientUnits="userSpaceOnUse">
<stop stop-color="#BFAB8D"/>
<stop offset="0.5078" stop-color="#E7E1D2"/>
<stop offset="1" stop-color="#CCBFA6"/>
</linearGradient>
<linearGradient id="paint1_linear_75_2849" x1="-4.10978" y1="56.4465" x2="30.912" y2="56.4643" gradientUnits="userSpaceOnUse">
<stop stop-color="#94938C"/>
<stop offset="0.2296" stop-color="#EDEBE1"/>
<stop offset="0.7876" stop-color="#EDEBE1"/>
<stop offset="1" stop-color="#94938C"/>
</linearGradient>
</defs>
</svg>
