<?xml version="1.0" encoding="utf-8"?>
<!-- Generator: Adobe Illustrator 25.3.1, SVG Export Plug-In . SVG Version: 6.00 Build 0)  -->
<svg version="1.1" id="Слой_1" xmlns="http://www.w3.org/2000/svg" xmlns:xlink="http://www.w3.org/1999/xlink" x="0px" y="0px"
	 viewBox="0 0 11.2 35.4" style="enable-background:new 0 0 11.2 35.4;" xml:space="preserve">
<style type="text/css">
	.st0{fill:#B46766;}
</style>
<path class="st0" d="M10.7,28.8c-0.1-0.5-0.1-1-0.2-1.6c-0.7-5.3-0.8-10.7-1-16C9.4,9,9.4,6.8,9.2,4.6c-0.1-1,0-2.6-0.7-3.5
	C7.1-0.7,3.3-0.6,2.6,3.7c-0.4,0.8-0.3,2-0.3,2.9c-0.1,1.8-0.1,3.6-0.1,5.5C2.1,16.5,2.1,21,1,25.2c-0.5,1.9-0.7,3.9-1,5.9
	c0.3,0.2,0.5,0.3,0.5,0.3s6.2,2.3,10.7,4C11,33.1,10.9,31,10.7,28.8z"/>
</svg>
