<?xml version="1.0" encoding="utf-8"?>
<!-- Generator: Adobe Illustrator 25.3.1, SVG Export Plug-In . SVG Version: 6.00 Build 0)  -->
<svg version="1.1" id="Слой_1" xmlns="http://www.w3.org/2000/svg" xmlns:xlink="http://www.w3.org/1999/xlink" x="0px" y="0px"
	 viewBox="0 0 12.1 35.3" style="enable-background:new 0 0 12.1 35.3;" xml:space="preserve">
<style type="text/css">
	.st0{fill:#B46766;}
</style>
<path class="st0" d="M11.6,30.4c-0.4-3.8-0.8-7.5-1.1-11.3c-0.4-4.5-0.7-8.9-1.1-13.4C9.3,4.5,9.2,3.2,9.1,2C9,1,5.6-2.1,3.4,2.5
	C2.9,3.3,3,4.6,2.9,5.4c-0.3,2-0.5,4.1-0.7,6.1c-0.5,5-0.9,10-1.3,15c-0.2,2.9-0.5,5.8-0.9,8.7c0.3,0,0.6,0,0.8,0
	c3.3,0,8.4,0,11.3,0.1C11.9,33.7,11.8,32,11.6,30.4z"/>
</svg>
