<svg width="22" height="37" viewBox="0 0 22 37" fill="none" xmlns="http://www.w3.org/2000/svg">
<path d="M20.3088 33.9534C19.6465 33.9293 18.1104 31.9019 17.7311 31.3584C17.4512 30.9574 15.5363 5.82741 15.2813 2.64131C15.201 1.63507 11.7427 -1.53243 9.47436 3.14034C8.70267 4.45688 6.64212 31.8189 6.61626 32.0389C6.15352 32.1233 3.82665 32.2499 3.40792 32.2458C3.05134 32.2426 2.71428 32.2394 2.43754 32.2562C2.22976 32.2689 2.01699 32.2853 1.81102 32.3007C1.31698 32.3379 0.888263 32.3365 0.504007 32.3052L0.28125 36.3664C3.6039 36.3556 5.9952 36.3483 6.84265 36.3483C11.2886 36.3483 18.7786 36.3937 20.2176 36.4463C20.5674 36.459 20.9939 36.4436 21.4271 36.4145L21.3359 33.7293C21.0138 33.884 20.6568 33.9661 20.3088 33.9534Z" fill="#B46766"/>
</svg>
