<?xml version="1.0" encoding="utf-8"?>
<!-- Generator: Adobe Illustrator 25.3.1, SVG Export Plug-In . SVG Version: 6.00 Build 0)  -->
<svg version="1.1" id="Слой_1" xmlns="http://www.w3.org/2000/svg" xmlns:xlink="http://www.w3.org/1999/xlink" x="0px" y="0px"
	 viewBox="0 0 10.7 37.2" style="enable-background:new 0 0 10.7 37.2;" xml:space="preserve">
<style type="text/css">
	.st0{fill:#B46766;}
</style>
<path class="st0" d="M10,27.1c-0.1-1.6-0.1-3.2-0.2-4.8c-0.1-2.3,0.1-4.6-0.1-6.9c-0.2-3-1.1-12-1.2-14.2C8.4-0.1,4-0.5,2.9,0.7
	C0.9,3.1,0.8,12,0.6,19.6c-0.1,2.9-0.4,5.9-0.5,8.8c-0.2,2.9,0,5.8,0,8.8c2.3-0.3,7.5-0.9,9.3-0.6c0.4,0.1,0.8,0.1,1.3,0.1
	c-0.1,0-0.5-6.2-0.5-6.8C10.1,29,10,28.1,10,27.1z"/>
</svg>
