<svg width="19" height="39" viewBox="0 0 19 39" fill="none" xmlns="http://www.w3.org/2000/svg">
<path d="M17.1544 34.7397C16.7919 34.2983 14.7735 30.8023 14.4737 28.6447C13.8281 23.9996 14.2015 19.2991 13.9746 16.3049C13.7478 13.3107 12.909 4.17888 12.7951 1.9237C12.7298 0.626666 8.1922 0.231976 7.16963 1.42467C5.11997 3.81594 5.08957 12.8158 4.85593 20.524C4.67401 26.5211 4.09105 31.8367 4.13007 32.0018C4.32242 32.8184 1.90438 34.4698 0.8183 34.9053C0.701254 34.952 0.483491 34.9343 0.203125 34.8667L0.331959 38.6598C1.34545 38.6303 2.06816 38.6126 2.33764 38.6126C2.62753 38.6126 2.91787 38.5786 3.20368 38.5029C3.94316 38.3073 11.425 37.3387 13.7024 37.7634C14.8724 37.9816 16.9888 37.8895 18.891 37.6881L18.8125 35.3757C18.1125 35.3771 17.486 35.1439 17.1544 34.7397Z" fill="#B46766"/>
</svg>
