<?xml version="1.0" encoding="utf-8"?>
<!-- Generator: Adobe Illustrator 25.3.1, SVG Export Plug-In . SVG Version: 6.00 Build 0)  -->
<svg version="1.1" id="Слой_1" xmlns="http://www.w3.org/2000/svg" xmlns:xlink="http://www.w3.org/1999/xlink" x="0px" y="0px"
	 viewBox="0 0 11.6 36.8" style="enable-background:new 0 0 11.6 36.8;" xml:space="preserve">
<style type="text/css">
	.st0{fill:#B46766;}
</style>
<path class="st0" d="M11,27.2c-0.2-2.1-0.6-4.1-0.7-6.2c-0.1-1.8-0.1-3.6-0.2-5.4C9.8,11.8,8.8,4.4,8.5,1.9C8.2-0.7,4.7-0.3,3.6,1
	c-1.2,1.3-1.1,9.3-1.5,11.6c-0.4,2.5-0.7,5.1-1,7.6c-0.3,2.4-0.6,5-0.7,7.4c-0.2,2.5-0.1,5-0.3,7.5c0,0.6-0.1,1.1-0.1,1.7
	c0.1,0,0.2-0.1,0.3-0.1l5.2-0.3l6.1-0.6c-0.1-2.5-0.3-5-0.5-7.5C11.1,28,11.1,27.6,11,27.2z M3.1,23.5C4.2,15.4,6.3,2.3,6.4,2.2
	C6.6,1.9,7.3,1.7,7.3,3c0.1,1,1,10.8,1.3,14.7c0,0.5,0.2,3.6,0.6,6.9C8.1,25.5,5.5,26.9,3.1,23.5z"/>
</svg>
