<svg width="26" height="39" viewBox="0 0 26 39" fill="none" xmlns="http://www.w3.org/2000/svg">
<path d="M24.6105 32.5922C22.6588 32.0115 17.3741 29.9854 16.9435 30.0516C15.921 28.9274 15.3666 2.17155 14.6752 1.42527C13.6676 0.337834 11.0912 0.064273 10.0932 1.56137C8.6868 8.4571 7.16747 27.9584 7.23506 28.8267C7.31582 29.8693 4.01403 35.4503 2.87987 36.0854C2.21207 36.4592 1.40998 36.4814 0.742188 36.3698L0.821136 38.6967C3.70509 38.4499 22.0541 36.1607 22.5268 36.0877C22.5345 36.0863 23.7844 35.8939 25.1381 35.6848L25.036 32.6838C24.8904 32.6634 24.7484 32.633 24.6105 32.5922Z" fill="#B46766"/>
</svg>
