<?xml version="1.0" encoding="utf-8"?>
<!-- Generator: Adobe Illustrator 25.3.1, SVG Export Plug-In . SVG Version: 6.00 Build 0)  -->
<svg version="1.1" id="Слой_1" xmlns="http://www.w3.org/2000/svg" xmlns:xlink="http://www.w3.org/1999/xlink" x="0px" y="0px"
	 viewBox="0 0 10.3 31.1" style="enable-background:new 0 0 10.3 31.1;" xml:space="preserve">
<style type="text/css">
	.st0{fill:#B46766;}
</style>
<path class="st0" d="M10.3,24.9C10.1,25,10,25,9.8,25.1c0.1-0.3-0.4-4.6-0.9-9.4v0.1v-0.1C8.3,9.7,7.5,2.9,7.4,1.8
	C7.2-0.9,3.3,0,2.7,0.7C2.1,1.4,2,2.9,1.5,5.4C0.3,12.5,0,25.8,0,28.1c0,0.1,0,0.1,0,0.2c0,0.1,0,0.2,0,0.3c0.1,0.8,0.1,1.6,0.1,2.5
	C0.2,31,0.4,31,0.5,31c3.7-1.4,8.1-3.2,9.8-3.9C10.4,26.3,10.3,25.6,10.3,24.9z"/>
</svg>
