<svg width="24" height="35" viewBox="0 0 24 35" fill="none" xmlns="http://www.w3.org/2000/svg">
<path d="M17.0736 26.1615C17.1408 25.8775 16.7044 21.5155 16.189 16.5982C16.1768 16.6367 16.1654 16.6757 16.1527 16.7139C16.1636 16.6685 16.1754 16.6231 16.1867 16.5778C15.5516 10.5186 14.7967 3.62421 14.7146 2.48006C14.5186 -0.249651 10.541 0.665395 9.90586 1.3459C9.27074 2.0264 9.18001 3.56115 8.72635 6.15476C7.36584 13.9351 7.11497 28.9057 7.18392 29.4732C7.23473 29.8924 4.03372 30.6686 0.65625 31.375L0.756972 34.3347C3.41313 33.4415 6.29838 32.457 7.72831 31.923C12.4323 30.1664 18.3892 27.7039 18.3892 27.7039C19.5923 27.4458 21.6016 26.3239 23.2311 25.3267L23.1708 23.5465C20.9855 24.4911 17.9165 25.8003 17.0736 26.1615Z" fill="#B46766"/>
</svg>
