<?xml version="1.0" encoding="utf-8"?>
<!-- Generator: Adobe Illustrator 25.3.1, SVG Export Plug-In . SVG Version: 6.00 Build 0)  -->
<svg version="1.1" id="Слой_1" xmlns="http://www.w3.org/2000/svg" xmlns:xlink="http://www.w3.org/1999/xlink" x="0px" y="0px"
	 viewBox="0 0 9.9 32.2" style="enable-background:new 0 0 9.9 32.2;" xml:space="preserve">
<style type="text/css">
	.st0{fill:#B46766;}
</style>
<path class="st0" d="M9.9,2.3C8.7,2,3.6,0.8,0,0c0,2.9,0,5.8,0.1,8.7c0.1,2.5,0.2,5,0.2,7.5c0,0.4,0,0.7,0,1.1
	c-0.2,1.5,1.5,13.2,2.1,13.3c0.3,0.1,2.2,4.6,5.3-2c0.9-1.9,1.1-4.1,1.3-6.1c0.3-2.8,0.5-5.5,0.7-8.3c0.1-2.4,0.2-4.7,0.2-7.1
	c0-0.7-0.1-1.5,0-2.2C9.8,4,9.8,3.2,9.9,2.3z"/>
</svg>
