<svg width="23" height="34" viewBox="0 0 23 34" fill="none" xmlns="http://www.w3.org/2000/svg">
<path d="M20.8614 4.84168C19.7403 4.97914 15.871 3.75289 15.871 3.75289C15.871 3.75289 3.93958 0.985534 1.98882 0.622603C1.45349 0.522797 1.04292 0.410291 0.703125 0.296875L0.749854 1.67419C2.37217 2.44633 5.65807 4.00921 5.6177 4.38802C5.36863 6.73845 5.96838 17.7602 5.79916 18.9053C5.57233 20.44 7.33709 32.2675 7.88603 32.3791C8.22946 32.449 10.1594 37.0695 13.2393 30.383C15.3743 25.7479 15.5761 8.29225 15.3715 6.38414C15.2949 5.66735 18.7958 6.08472 22.2836 6.9172L22.216 4.92198C21.5908 4.84078 21.124 4.80947 20.8614 4.84168Z" fill="#B46766"/>
</svg>
