<svg width="25" height="33" viewBox="0 0 25 33" fill="none" xmlns="http://www.w3.org/2000/svg">
<path d="M15.3262 4.09783C12.7403 3.78027 10.2452 3.1905 10.2452 3.1905C10.2452 3.1905 3.99499 1.52871 2.98649 0.786057C2.60088 0.50206 1.59374 0.214432 0.53125 0.0234375L0.608371 2.28905C1.20177 2.41427 1.63774 2.54901 1.81694 2.68103C1.92264 2.75906 8.44909 4.21942 8.29439 5.14127C8.12971 6.12392 9.88223 30.5921 12.0145 32.1345C12.6269 32.5968 14.0605 32.8132 15.2809 31.6355C18.6144 28.419 17.6404 6.84162 17.6853 6.63838C17.7529 6.61479 21.5233 6.80079 24.9108 7.0494L24.8319 4.72934C21.5351 4.4771 16.0557 4.04839 15.3262 4.09783Z" fill="#B46766"/>
</svg>
