<?xml version="1.0" encoding="utf-8"?>
<!-- Generator: Adobe Illustrator 25.3.1, SVG Export Plug-In . SVG Version: 6.00 Build 0)  -->
<svg version="1.1" id="Слой_1" xmlns="http://www.w3.org/2000/svg" xmlns:xlink="http://www.w3.org/1999/xlink" x="0px" y="0px"
	 viewBox="0 0 10.2 29.6" style="enable-background:new 0 0 10.2 29.6;" xml:space="preserve">
<style type="text/css">
	.st0{fill:#B46766;}
</style>
<path class="st0" d="M10.1,4.1c0-0.8,0-1.6,0.1-2.4C8.6,1.6,7.4,1.5,7.1,1.5c-2.6-0.3-5-0.9-5-0.9S1.2,0.4,0,0
	c0.1,0,0.1,1.3,0.1,1.5c0.2,2,0.2,4,0.3,6c0.2,2.4,0.4,4.9,0.6,7.3c0.3,2.6,0.6,5.1,0.9,7.7c0.3,1.8,0.6,3.8,1.2,5.5
	c0.1,0.4,0.3,0.9,0.7,1.2c0.6,0.5,2,0.7,3.2-0.5C10.3,25.5,9.3,4.2,9.4,4C9.5,4.1,9.7,4.1,10.1,4.1z"/>
</svg>
