<svg width="25" height="39" viewBox="0 0 25 39" fill="none" xmlns="http://www.w3.org/2000/svg">
<path d="M18.1098 29.5085C18.1002 29.0571 17.8258 22.1691 17.3839 15.1726C16.977 8.72919 16.4761 2.16373 14.8434 1.10895C13.9052 0.502852 11.3501 1.19968 10.4882 2.19775C10.2278 2.49944 9.54273 7.84499 9.44473 11.5887C9.21881 20.2369 9.09995 31.5808 2.95912 32.8057C2.94823 32.9273 0.773351 32.2836 0.604133 32.2123C0.513853 32.1742 0.421761 32.1329 0.351443 32.0649C0.34736 32.0608 0.299721 32.02 0.217154 31.9479L0.0234375 34.3355C1.4475 34.7937 3.49898 35.3789 3.95491 35.334C4.19989 35.31 23.3818 37.983 24.7442 38.169V38.1681C24.6857 38.1599 24.5927 38.1468 24.4616 38.1282C23.8359 38.0401 24.0278 38.027 24.7528 38.0637L24.9016 36.2332C21.2451 35.3168 18.1279 30.3782 18.1098 29.5085Z" fill="#B46766"/>
</svg>
