<svg width="22" height="33" viewBox="0 0 22 33" fill="none" xmlns="http://www.w3.org/2000/svg">
<path d="M18.6205 4.39308C18.199 4.29055 8.62938 3.31473 7.78011 2.41375C6.57835 1.1385 4.74644 0.936161 3.28427 0.902136C3.08557 0.897599 2.12607 0.825461 0.828125 0.726562L0.907063 3.04661C3.57916 3.24259 6.01263 3.47759 6.20271 3.67901C6.57018 4.06916 7.60001 4.90663 7.56371 5.90197C7.31238 12.8294 8.78861 30.3091 9.55985 31.4433C10.3311 32.5774 11.1853 32.6999 12.1457 32.7135C13.2722 32.7294 14.243 31.7481 14.5048 31.4886C15.7851 30.2202 15.6295 25.3179 16.138 21.0544C16.7468 15.9538 17.005 10.1156 17.3629 7.94346C17.6669 6.09977 19.2874 5.74681 20.1303 5.94733C20.4297 6.01856 20.7967 6.09024 21.19 6.17553L21.1456 4.8667C19.9946 4.65167 18.865 4.45251 18.6205 4.39308Z" fill="#B46766"/>
</svg>
