<?xml version="1.0" encoding="utf-8"?>
<!-- Generator: Adobe Illustrator 25.3.1, SVG Export Plug-In . SVG Version: 6.00 Build 0)  -->
<svg version="1.1" id="Слой_1" xmlns="http://www.w3.org/2000/svg" xmlns:xlink="http://www.w3.org/1999/xlink" x="0px" y="0px"
	 viewBox="0 0 10 30.4" style="enable-background:new 0 0 10 30.4;" xml:space="preserve">
<style type="text/css">
	.st0{fill:#B46766;}
</style>
<path class="st0" d="M10,5.5c0-1.1,0-2.2,0-3.3C7.3,1.9,1.2,1.1,0.5,0.4C0.4,0.2,0.2,0.1,0,0c0.1,0.1,0.1,1.1,0.1,1.3
	c0,0.5,0.1,0.9,0.1,1.4c0.1,3.1,0.1,6.2,0.2,9.2C0.6,15,0.8,18,1.1,21.1c0.2,2.2,0.4,4.5,0.8,6.7C2,28.2,2,28.7,2.2,29.1
	c0.8,1.1,1.6,1.2,2.6,1.3c1.1,0,2.1-1,2.3-1.2c1.3-1.3,1.1-6.1,1.6-10.3C9.3,13.9,9.6,8.1,9.9,6c0-0.1,0-0.2,0.1-0.2
	C10,5.6,10,5.5,10,5.5z"/>
</svg>
