<svg width="19" height="36" viewBox="0 0 19 36" fill="none" xmlns="http://www.w3.org/2000/svg">
<path d="M17.4781 2.61517C15.9742 2.78756 4.62114 1.8521 2.35417 1.31269C1.82519 1.18703 0.981369 1.0228 0.148438 0.867188L0.192907 2.17602C1.57795 2.47589 3.29507 2.9409 3.57907 4.12542C3.8862 5.40794 4.3503 14.3329 4.66787 19.0511C4.98544 23.7692 4.16884 35.0201 8.38794 35.1109C13.5144 34.6572 12.8339 18.5974 12.97 15.5578C13.1061 12.5183 13.3238 7.99928 13.469 7.48256C14.1282 5.13937 16.1411 4.30644 18.1717 4.9883L18.0878 2.52307C17.8864 2.53305 17.6827 2.56345 17.4781 2.61517Z" fill="#B46766"/>
</svg>
