<svg width="20" height="37" viewBox="0 0 20 37" fill="none" xmlns="http://www.w3.org/2000/svg">
<path d="M15.3586 3.99737C15.3518 3.99827 15.345 3.99918 15.3382 3.99964C15.3382 3.99646 15.3378 3.99283 15.3378 3.98966C15.2929 3.25154 3.53063 2.19268 1.95641 1.08573C1.38206 0.681508 0.745569 0.493686 0.0859375 0.527258L0.169859 2.99249C0.284183 3.03106 0.398964 3.07325 0.513288 3.12134C1.20695 3.59815 4.32409 5.96674 4.35902 6.3941C4.89254 15.1299 5.31173 20.9568 5.76539 26.6277C6.21906 32.2986 6.30979 36.1094 9.7123 36.2001C13.1148 36.2908 13.5775 25.7326 13.2963 26.6277C12.8335 28.0994 15.0424 17.1224 15.3636 8.29633C15.3668 8.24098 15.3704 8.18518 15.3736 8.13029C15.3999 7.68524 15.4249 7.26515 15.4888 6.9199C15.5397 6.64543 15.5968 6.52385 15.6231 6.47894C15.6263 6.47849 15.6299 6.47803 15.634 6.47758C16.5831 6.37233 17.9218 6.47122 18.997 6.55107C19.0705 6.55651 19.1418 6.56196 19.2116 6.56695L19.1263 4.05862C17.9577 3.97151 16.5191 3.86807 15.3586 3.99737Z" fill="#B46766"/>
</svg>
