<?xml version="1.0" encoding="utf-8"?>
<!-- Generator: Adobe Illustrator 25.3.1, SVG Export Plug-In . SVG Version: 6.00 Build 0)  -->
<svg version="1.1" id="Слой_1" xmlns="http://www.w3.org/2000/svg" xmlns:xlink="http://www.w3.org/1999/xlink" x="0px" y="0px"
	 viewBox="0 0 10.9 34" style="enable-background:new 0 0 10.9 34;" xml:space="preserve">
<style type="text/css">
	.st0{fill:#B46766;}
</style>
<path class="st0" d="M10.8,2.1C10.6,1.5,3.8,0.8,0,0c0.1,0,0,2.5,0,2.7C0,6.8,0.4,11,0.7,15.1c0.2,3.1,0.5,6.3,0.7,9.4
	c0.4,5.6,0.5,9.4,3.9,9.5c3.4,0.1,3.8-10.3,3.5-9.5c0,0,0,0.1-0.1,0.1c0-0.5,0.1-1,0.2-1.5c0.2-1.3,0.4-2.6,0.6-3.9
	c0.5-3.7,1-7.4,1.2-11.2C10.9,6.1,10.9,4.1,10.8,2.1z"/>
</svg>
