<?xml version="1.0" encoding="utf-8"?>
<!-- Generator: Adobe Illustrator 25.3.1, SVG Export Plug-In . SVG Version: 6.00 Build 0)  -->
<svg version="1.1" id="Слой_1" xmlns="http://www.w3.org/2000/svg" xmlns:xlink="http://www.w3.org/1999/xlink" x="0px" y="0px"
	 viewBox="0 0 10.6 32.5" style="enable-background:new 0 0 10.6 32.5;" xml:space="preserve">
<style type="text/css">
	.st0{fill:#B46766;}
</style>
<path class="st0" d="M10.6,1.2c-0.2,0.1-0.4,0.2-0.6,0.2C9.2,1.3,2.8,0.7,1.1,0.5C0.9,0.3,0.7,0.2,0.4,0.1C0.3,0.1,0.2,0,0.2,0
	c0,1.3-0.1,2.7-0.2,4c-0.1,2.2,0.1,4.4,0.2,6.7c0.1,1.9,0.2,3.9,0.3,5.8c0,0.5,0,0.9,0.1,1.4c0.1,1.8,0.2,3.5,0.3,4.8
	c0,0.6,0.1,1.1,0.1,1.4c0,0.2,0,0.3,0,0.4s0,0.1,0,0.1c0,0.1,0,0.2,0.1,0.3c0.1,0.7,0.2,2.4,0.6,3.9c0.2,0.9,0.5,1.7,0.8,2.2
	c0.6,1.2,1.5,1.5,2,1.5c0.7,0.1,1.4-0.2,1.9-0.8c0.3-0.4,0.6-0.9,0.8-1.6c0.3-1.1,0.5-2.4,0.7-3.6c0.1-0.7,0.2-1.4,0.3-1.9
	c0.6-2.6,0.8-5.4,1-8.1c0.2-2.1,0.4-4.2,0.6-6.2c0.2-1.5,0.3-3.1,0.5-4.6c0.1-0.7,0.1-1.5,0.1-2.2C10.5,3.3,10.5,1.3,10.6,1.2z
	 M5.8,24.1c-0.1,0.6-0.2,1.3-0.3,2.1c-0.1,0.9-0.2,1.9-0.4,2.7C5,29.5,4.8,29.8,4.7,30c-0.2-0.3-0.4-0.9-0.7-2.2
	c-0.3-1.3-0.4-2.6-0.5-3.1c0-0.1,0-0.2,0-0.2c0-0.1,0-0.2,0-0.2C3.4,22.7,3,14.9,2.7,7.6c1.4-0.5,3.3-0.6,5,1
	C7,14.2,6.2,22.4,5.8,24.1z"/>
</svg>
