<svg width="19" height="34" viewBox="0 0 19 34" fill="none" xmlns="http://www.w3.org/2000/svg">
<path d="M16.2804 1.42572C15.5504 1.5287 14.8064 1.67069 14.1881 1.92112L8.99088 1.66798L3.39944 1.37808C3.14992 1.2261 2.8877 1.07413 2.61414 0.918974C1.57206 0.3283 0.745937 0.385455 0.0168947 0.435812C0.013719 0.435812 0.0109882 0.436267 0.0078125 0.436267L0.0926535 2.93143C0.125318 2.92917 0.157533 2.9269 0.188836 2.92463C0.775428 2.8838 0.995006 2.86883 1.38334 3.08931C3.673 4.3877 3.84539 4.76152 3.70657 6.09394L3.69069 6.24684L3.71246 6.39882C4.34578 10.8579 4.94281 18.3711 5.37878 23.8568C5.82882 29.5213 5.96038 31.0125 6.11781 31.5079C6.4204 32.4584 7.41847 33.0667 8.66878 33.0667C8.68511 33.0667 8.70098 33.0667 8.71731 33.0663C9.34655 33.0585 9.94992 32.8993 10.4621 32.6062C11.1181 32.2311 11.5709 31.6681 11.7714 30.9789C12.387 28.8612 12.5195 26.5362 12.6474 24.2873C12.7609 22.2976 12.8679 20.4185 13.2821 18.7231C13.665 17.1571 13.7734 15.0847 13.8787 13.0804C13.9572 11.5869 14.0311 10.176 14.2085 9.10357C14.3673 8.14407 14.7311 6.28132 14.997 4.92077C15.046 4.67125 15.0913 4.43761 15.1322 4.22847C15.3753 4.13411 15.9197 3.97533 17.0344 3.84467C17.4627 3.79431 17.8696 3.76119 18.1872 3.73942L18.1023 1.24425C17.6337 1.27419 16.9645 1.32954 16.2804 1.42572ZM11.3871 12.9498C11.2882 14.8388 11.1857 16.7923 10.8586 18.1306C10.39 20.0483 10.2711 22.1311 10.1564 24.1454C10.0307 26.352 9.91183 28.4361 9.37559 30.2821C9.34565 30.3855 9.2041 30.4559 9.12244 30.4885C8.89016 30.5815 8.63022 30.5829 8.46826 30.5543C8.33942 29.6107 8.09943 26.5897 7.86624 23.659C7.46021 18.5494 6.91536 11.6913 6.32559 7.10335C7.69839 6.41514 9.74623 6.1874 11.697 9.02373C11.5332 10.1683 11.462 11.5225 11.3871 12.9498Z" fill="#B46766"/>
</svg>
