<?xml version="1.0" encoding="utf-8"?>
<!-- Generator: Adobe Illustrator 25.3.1, SVG Export Plug-In . SVG Version: 6.00 Build 0)  -->
<svg version="1.1" id="Слой_1" xmlns="http://www.w3.org/2000/svg" xmlns:xlink="http://www.w3.org/1999/xlink" x="0px" y="0px"
	 viewBox="0 0 11.2 32.2" style="enable-background:new 0 0 11.2 32.2;" xml:space="preserve">
<style type="text/css">
	.st0{fill:#B46766;}
</style>
<path class="st0" d="M11.1,11c0.1-1.4,0.1-2.8,0-4.2c0-0.4-0.1-0.9-0.2-1.3c-0.1-0.6-0.2-1.1-0.2-1.6c0-0.1,0-0.1,0-0.2
	c0-1.1-0.2-2.2-0.2-3.3c0-0.1,0-0.3,0-0.4C10.2,0.2,10,0.3,9.8,0.6L1.2,1C0.9,0.9,0.5,0.8,0,0.7v0.1c0.2,0.9,0.4,1.7,0.5,2.6
	c0.2,1.5,0.8,6.1,1.2,10.9c0.1,1.5,0.2,3.1,0.3,4.6c0.2,4.4,0.4,8.5,1.8,11.9c0.3,0.8,1.2,1.4,2.1,1.4H6c0.6,0,1.4-0.3,2.2-1.3
	c0.6-0.8,1.2-1.9,1.6-3.4c0.7-2.6,1.6-11,1.4-12.8C11,13.6,11.1,12.4,11.1,11z M8.7,15c0.1,1.4-0.6,9.5-1.3,11.9
	C6.8,29,6.2,29.6,6,29.8c-1.1-3-1.3-6.9-1.5-10.9c-0.1-1.5-0.2-3.1-0.3-4.7C4,11.9,3.7,9.5,3.5,7.5c1.8-2,3.7-1.8,5.1-1.1
	c0.1,0.3,0.1,0.5,0.1,0.8c0.1,1.1,0.1,2.4,0,3.8C8.6,12.3,8.5,13.7,8.7,15z"/>
</svg>
