<svg width="18" height="34" viewBox="0 0 18 34" fill="none" xmlns="http://www.w3.org/2000/svg">
<path d="M14.8026 0.681506C13.9765 0.857528 13.4834 1.18145 13.056 1.59656L4.33245 1.97219C3.96089 1.84698 3.5358 1.73401 3.05855 1.62332C2.01829 1.38151 1.01206 1.22863 0.969864 1.22228L0.857356 1.20549L0.743496 1.20913C0.721267 1.21003 0.475384 1.2182 0.101562 1.24224L0.186381 3.73741C0.419112 3.72153 0.604214 3.71246 0.713547 3.70747C1.90306 3.89392 3.14475 4.18382 3.71047 4.3984C3.92596 5.89051 4.5112 10.581 4.93991 15.4497C5.0742 16.974 5.1554 18.5537 5.23389 20.0812C5.46072 24.5003 5.67531 28.6745 7.06444 32.1773C7.39244 33.0043 8.25484 33.561 9.18803 33.561C9.22659 33.561 9.26517 33.5601 9.30373 33.5582C9.87308 33.5301 10.7233 33.2824 11.5399 32.2635C12.1705 31.4764 12.7103 30.3091 13.1436 28.7943C13.8962 26.163 14.7432 17.6863 14.5458 15.7999C14.4279 14.6712 14.4891 13.401 14.5545 12.0558C14.6225 10.6504 14.6928 9.19682 14.5449 7.85397C14.4955 7.40348 14.4107 6.96161 14.329 6.53425C14.0722 5.1914 13.9438 4.33579 14.5136 3.68886C14.9174 3.23066 14.9841 3.19436 15.323 3.12178C15.8061 3.0188 16.3605 3.00655 17.1195 3.08231C17.1408 3.08458 17.1621 3.08594 17.1848 3.0873L17.0995 0.574901C16.4766 0.524544 15.6428 0.502308 14.8026 0.681506ZM12.0638 16.0594C12.2131 17.488 11.441 25.6722 10.7441 28.1074C10.1453 30.2002 9.53192 30.8267 9.28512 31.0023C8.13417 27.921 7.935 24.0471 7.72496 19.9523C7.64556 18.4026 7.56301 16.7998 7.42465 15.2297C7.21687 12.8711 6.96372 10.4675 6.7319 8.44692C8.54838 6.39952 10.5087 6.64495 11.9368 7.31275C11.9894 7.59584 12.0357 7.86758 12.0643 8.12617C12.1904 9.27259 12.1278 10.5651 12.0616 11.9338C11.9949 13.3143 11.9259 14.7411 12.0638 16.0594Z" fill="#B46766"/>
</svg>
