<svg width="18" height="35" viewBox="0 0 18 35" fill="none" xmlns="http://www.w3.org/2000/svg">
<path d="M16.2475 1.03535C15.6814 1.11021 15.1465 1.18052 14.94 1.19141C13.6012 1.26309 12.6354 1.63056 11.9916 2.31287L4.6633 3.02105C4.51722 2.94257 4.34617 2.87316 4.14565 2.81736C3.82943 2.72935 3.42883 2.66855 2.92162 2.63135C2.11135 2.57192 1.2031 2.58598 0.660045 2.59415C0.534829 2.59596 0.39417 2.59823 0.334738 2.59778C0.261242 2.59052 0.183225 2.58372 0.101562 2.57691L0.186849 5.08931C0.292103 5.09521 0.424123 5.0934 0.697238 5.08931C1.95212 5.07026 2.6721 5.10156 3.08132 5.14829C3.44789 8.46414 4.94821 21.8369 5.22949 24.2894C5.31569 25.0411 5.36424 25.9779 5.41551 26.9697C5.60061 30.5568 5.77664 32.8006 7.01065 33.6885C7.95702 34.3699 9.23413 34.4924 10.3434 34.0079C11.1605 33.6513 12.5823 32.6405 12.9243 29.8808C13.3857 26.1649 13.5268 20.2749 13.6516 15.0782C13.7083 12.7177 13.7618 10.4879 13.8399 8.73226C13.878 7.87075 13.7922 7.03419 13.716 6.29607C13.6226 5.38919 13.5169 4.36118 13.79 4.0418C13.9547 3.84899 14.4224 3.71879 15.0725 3.68385C15.376 3.66752 15.8783 3.60129 16.5733 3.50965C16.85 3.47291 17.1472 3.43389 17.4552 3.39487L17.37 0.890625C16.9689 0.940528 16.5883 0.99044 16.2475 1.03535ZM10.4486 29.5728C10.3098 30.692 9.90739 31.475 9.34528 31.7205C9.03224 31.857 8.71784 31.8098 8.52139 31.6964C8.4606 31.5893 8.28729 31.201 8.14529 30.07C8.02507 29.1141 7.96565 27.9578 7.90757 26.8399C7.85449 25.8078 7.80412 24.8333 7.70885 24.004C7.54643 22.59 6.92443 17.0561 6.37911 12.1883L11.0965 17.5048C10.9822 21.9489 10.8238 26.5505 10.4486 29.5728Z" fill="#B46766"/>
</svg>
