<?xml version="1.0" encoding="utf-8"?>
<!-- Generator: Adobe Illustrator 25.3.1, SVG Export Plug-In . SVG Version: 6.00 Build 0)  -->
<svg version="1.1" id="Слой_1" xmlns="http://www.w3.org/2000/svg" xmlns:xlink="http://www.w3.org/1999/xlink" x="0px" y="0px"
	 viewBox="0 0 10.7 33.2" style="enable-background:new 0 0 10.7 33.2;" xml:space="preserve">
<style type="text/css">
	.st0{fill:#B46766;}
</style>
<path class="st0" d="M9.9,0.6c-1.3,0.2-7,0.8-8.4,1C1.2,1.4,0.7,1.3,0.1,1.2c0,0.2,0,0.3,0,0.5C0.2,2.9,0,4.1,0,5.2
	c0,2.8,0.2,5.6,0.2,8.4c0.1,3.5,0.2,7.2,0.3,10.2c0.2,4.6,0.4,5.7,0.6,6.3C1.5,31.3,2,32,2.7,32.5c0.7,0.4,1.4,0.5,2.2,0.6
	c0.2,0,0.3,0,0.5,0.1c0.4,0.1,0.9-0.1,1.2-0.4c0.5-0.4,1-1.2,1.6-4.3c0.3-1.7,0.6-4,0.9-6.8c0.5-5,0.8-10.2,0.8-11.9
	c0-0.3,0-0.6,0-0.9c0-2.7,0.3-5.5,0.7-8.2c0-0.2,0.1-0.5,0.1-0.7C10.5,0.2,10.1,0.4,9.9,0.6z M7.6,9c0,0.3,0,0.6,0,0.8
	c0,1.6-0.3,6.5-0.7,11.3c-0.6,6.6-1.2,8.8-1.5,9.5c-0.6-0.1-1-0.1-1.2-0.3c-0.2-0.1-0.4-0.5-0.7-1.1C3.4,29,3.2,28,3.1,23.6
	C3,20.6,2.9,17,2.8,13.5C2.7,11,2.7,8.6,2.6,6.7C4.1,6.9,7.3,7.2,7.7,7C7.6,7.7,7.6,8.4,7.6,9z"/>
</svg>
