<svg width="19" height="36" viewBox="0 0 19 36" fill="none" xmlns="http://www.w3.org/2000/svg">
<path d="M18.8278 0.838662C16.3739 1.1213 15.228 1.61624 14.665 1.99913C13.3516 2.17289 7.61451 2.8298 6.15824 2.99584C5.63153 2.68916 4.75368 2.53401 3.06876 2.62928C2.19591 2.67873 1.23278 2.78489 0.367188 2.89241L0.452472 5.39665C1.20919 5.30047 2.03486 5.20475 2.81063 5.14713C3.7107 5.08044 4.24739 5.08907 4.55725 5.11402C4.69788 6.74495 4.81403 11.3919 4.9093 15.224C4.99868 18.8052 5.09077 22.508 5.21916 25.5535C5.41651 30.2444 5.61837 31.3686 5.80665 31.8849C6.25305 33.1075 6.74437 33.8252 7.44937 34.2843C8.13486 34.7307 8.86844 34.8251 9.7177 34.9344C9.88783 34.9562 10.0639 34.9789 10.2503 35.0057C10.6999 35.0701 11.149 34.934 11.5147 34.6228C12.0046 34.2063 12.5363 33.3938 13.1016 30.297C13.4196 28.5563 13.7209 26.2517 13.9967 23.448C14.498 18.3547 14.7679 13.1026 14.8011 11.4227C14.8065 11.1419 14.8092 10.852 14.8119 10.5449C14.831 8.41399 14.8573 5.49826 16.06 4.07421C16.2165 3.944 17.0385 3.572 18.9399 3.33836L18.8545 0.835938C18.845 0.836845 18.8364 0.837755 18.8278 0.838662ZM12.3159 10.5222C12.3131 10.8225 12.3104 11.1056 12.3054 11.3733C12.2746 12.9448 12.021 17.9188 11.5487 22.8311C10.9113 29.465 10.2884 31.7211 9.99943 32.4547C9.42736 32.3812 9.01361 32.3258 8.81037 32.1934C8.60531 32.06 8.38301 31.668 8.15074 31.0324C8.07997 30.8197 7.89487 29.8425 7.70841 25.3779C7.58275 22.3665 7.49156 18.7036 7.4031 15.1618C7.33958 12.6072 7.2788 10.1806 7.21075 8.25339C8.74006 8.42487 11.9624 8.75832 12.3585 8.56868C12.3272 9.25281 12.3213 9.91472 12.3159 10.5222Z" fill="#B46766"/>
</svg>
