<?xml version="1.0" encoding="utf-8"?>
<!-- Generator: Adobe Illustrator 25.3.1, SVG Export Plug-In . SVG Version: 6.00 Build 0)  -->
<svg version="1.1" id="Слой_1" xmlns="http://www.w3.org/2000/svg" xmlns:xlink="http://www.w3.org/1999/xlink" x="0px" y="0px"
	 viewBox="0 0 10 34" style="enable-background:new 0 0 10 34;" xml:space="preserve">
<style type="text/css">
	.st0{fill:#B46766;}
</style>
<path class="st0" d="M9.7,4.8c0-0.2-0.1-0.5-0.1-0.7C9.5,2.9,9.5,1.6,9.5,0.4c0-0.1,0-0.2,0-0.4C9,0.2,8.4,0.5,7.9,1.1
	C5.9,1.4,1.8,2,0.3,2.2c-0.1,0-0.2,0-0.3,0c0.1,1,0.1,2,0.1,3c0.2,2.1,0.5,6.6,0.7,10.7c0,0.4,0.1,4.3,0.5,8.4c0.3,2.5,0.6,4.5,1,6
	S3.4,33.8,5,34c0.5,0.1,1.2,0,1.9-0.6c0.6-0.6,1.2-1.5,1.6-2.9c0.3-1,0.6-2.2,0.8-3.6c0.4-2.4,0.5-4.5,0.5-4.7c0,0,0-0.2,0-0.3
	c0.2-4,0.3-8,0.2-12.1c0-1.2-0.1-2.3-0.2-3.5C9.9,5.9,9.8,5.4,9.7,4.8z M7.5,21.9c0,0.3,0,0.3,0,0.4c0,0.3-0.1,2.6-0.5,4.8
	c-0.5,3.2-1.2,4.2-1.5,4.5c-0.3-0.4-1.1-2.1-1.7-8c-0.4-3.9-0.4-7.5-0.4-7.6c0,0-0.2-2.8-0.3-5.7C3,9.1,2.9,8.1,2.9,7.3
	c0.9,0.2,3.6,0.4,4.8,0.5C7.8,11.2,7.8,16.1,7.5,21.9z"/>
</svg>
