<svg width="20" height="36" viewBox="0 0 20 36" fill="none" xmlns="http://www.w3.org/2000/svg">
<path d="M16.0449 1.05835C15.8534 1.11915 15.6611 1.17313 15.4578 1.2303C14.5895 1.47392 13.5379 1.7697 12.7499 2.67976C10.7265 2.96194 6.5478 3.54263 5.00624 3.74315C3.83397 3.61612 2.15903 3.68871 0.851562 3.83752L0.936869 6.33994C1.1197 6.31726 1.31204 6.29594 1.51574 6.27643C2.9525 6.13806 4.08712 6.15984 4.70093 6.21927C4.91551 7.99537 5.26076 13.0646 5.51254 17.6734C5.52026 18.0468 5.60962 22.0413 6.04015 26.1552C6.30373 28.674 6.64262 30.7114 7.04774 32.2107C7.45332 33.7133 8.18055 35.7371 9.80649 35.9657C10.2987 36.0352 11.04 35.9843 11.7713 35.3483C12.426 34.7794 12.9577 33.8285 13.3968 32.4417C13.7076 31.4608 13.9757 30.2464 14.1948 28.8327C14.5645 26.4442 14.6757 24.2303 14.6757 24.0692C14.6757 24.0751 14.6757 24.0842 14.6753 24.0965C14.6762 24.0661 14.6834 23.9295 14.6907 23.7852C15.0386 16.9929 15.0314 11.2187 14.6698 7.52492C14.6317 7.13568 14.5659 6.76548 14.5029 6.40799C14.3395 5.4875 14.2529 4.90137 14.5169 4.47583C14.7964 4.02443 15.2387 3.88379 16.1324 3.63291C16.347 3.57258 16.5684 3.51042 16.7998 3.43693C17.0234 3.36615 17.9339 3.20147 19.1266 3.06311L19.0418 0.5625C17.7566 0.704498 16.5398 0.900932 16.0449 1.05835ZM12.1987 23.6569C12.1842 23.9404 12.181 24.0039 12.1805 24.052C12.1701 24.395 12.0345 26.6529 11.6566 28.8981C11.1103 32.1431 10.4407 33.138 10.1858 33.4107C9.87726 32.9783 9.04026 31.2907 8.45912 25.2719C8.08212 21.3708 8.00726 17.6399 8.0068 17.6027L8.00499 17.5582C8.00362 17.5301 7.84938 14.7137 7.65521 11.7957C7.57219 10.5491 7.49916 9.53648 7.43473 8.71126C8.34343 8.86414 11.0749 9.12546 12.3035 9.23933C12.5317 12.8033 12.4967 17.8386 12.1987 23.6569Z" fill="#B46766"/>
</svg>
