<svg width="20" height="33" viewBox="0 0 20 33" fill="none" xmlns="http://www.w3.org/2000/svg">
<path d="M17.2762 0.790315C17.0181 0.804379 16.6787 0.78306 16.3208 0.760377C15.5382 0.710927 14.6513 0.654669 13.871 0.92687C13.5244 1.04755 12.3943 1.53206 11.6449 2.88308C10.1369 3.09313 7.57091 3.44972 5.70816 3.70332C4.99273 3.39029 3.76601 3.26009 1.42192 3.43293C0.974603 3.46605 0.506439 3.51006 0.046875 3.56133L0.131694 6.06194C0.47648 6.02202 0.84442 5.98391 1.22641 5.95125C2.89953 5.80789 3.8876 5.84599 4.37347 5.91495C4.48054 6.79915 4.63615 8.88739 4.80355 12.6097C4.9587 16.0599 5.04444 19.1643 5.02675 19.5736C5.00361 20.1066 4.97412 22.6408 5.25358 25.3038C5.64873 29.072 6.44627 31.2319 7.76372 32.1011C8.51227 32.5952 9.46498 32.6778 10.3115 32.3212C11.2025 31.946 11.8467 31.1389 12.035 30.1617C12.1357 29.6386 12.2918 27.0364 12.6502 20.7758C12.9795 15.0146 13.5276 5.43361 13.7916 4.15789C14.1332 3.49327 14.635 3.30182 14.693 3.2814C14.997 3.17525 15.6435 3.21653 16.1629 3.2492C16.6406 3.27959 17.1347 3.3109 17.5974 3.26644L17.6954 3.2569L17.7907 3.23242C18.2049 3.12535 18.9657 2.9525 19.8712 2.77511L19.7854 0.25C18.7379 0.449614 17.827 0.6524 17.2762 0.790315ZM10.8215 9.60237C10.6037 12.8683 10.3678 16.994 10.1595 20.6342C9.92 24.8257 9.67185 29.1596 9.58474 29.6944C9.54165 29.9095 9.41552 29.992 9.34385 30.0224C9.3071 30.0379 9.21319 30.0687 9.13879 30.0197C9.0417 29.9558 8.17929 29.273 7.73605 25.0443C7.4752 22.5587 7.50015 20.1465 7.52056 19.6824C7.54778 19.0527 7.42938 15.3426 7.2765 12.0481C7.22432 10.9234 7.17034 9.89317 7.1168 8.99219C8.1439 9.12103 9.76395 9.28026 10.8369 9.38143C10.8314 9.45447 10.8264 9.52797 10.8215 9.60237Z" fill="#B46766"/>
</svg>
