<?xml version="1.0" encoding="utf-8"?>
<!-- Generator: Adobe Illustrator 25.3.1, SVG Export Plug-In . SVG Version: 6.00 Build 0)  -->
<svg version="1.1" id="Слой_1" xmlns="http://www.w3.org/2000/svg" xmlns:xlink="http://www.w3.org/1999/xlink" x="0px" y="0px"
	 viewBox="0 0 10.7 31.4" style="enable-background:new 0 0 10.7 31.4;" xml:space="preserve">
<style type="text/css">
	.st0{fill:#B46766;}
</style>
<path class="st0" d="M10.3,3.9c0-0.1,0-0.2,0-0.3c0.2-1.2,0.3-2.4,0.4-3.6c-0.1,0-0.2,0-0.3,0.1C10.1,0.2,8.9,0.7,8.2,2
	c-1.5,0.2-4,0.6-5.9,0.8C1.8,2.6,1.1,2.5,0,2.5C0,3.3,0,4.1,0,5c0.4,0,0.7,0,0.9,0.1C1,6,1.2,8,1.3,11.7c0.2,3.4,0.2,6.5,0.2,6.9
	c0,0.5-0.1,3,0.2,5.7C2.1,28,2.9,30.2,4.2,31c0.7,0.5,1.7,0.6,2.5,0.2c0.9-0.4,1.5-1.2,1.7-2.1C8.5,28.6,8.7,26,9,19.8
	C9.6,14.6,10,6.4,10.3,3.9z M7.5,8.6c-0.2,3.2-0.4,7.3-0.7,10.9c-0.2,4.1-0.5,8.4-0.6,8.9c0,0.2-0.2,0.3-0.2,0.3s-0.1,0-0.2,0
	c-0.1-0.1-0.9-0.7-1.4-4.9c-0.3-2.5-0.2-4.8-0.2-5.3c0-0.6-0.1-4.3-0.2-7.5C3.9,9.9,3.9,8.9,3.8,8c1,0.1,2.6,0.3,3.7,0.4
	C7.5,8.5,7.5,8.6,7.5,8.6z"/>
</svg>
