<?xml version="1.0" encoding="utf-8"?>
<!-- Generator: Adobe Illustrator 25.3.1, SVG Export Plug-In . SVG Version: 6.00 Build 0)  -->
<svg version="1.1" id="Слой_1" xmlns="http://www.w3.org/2000/svg" xmlns:xlink="http://www.w3.org/1999/xlink" x="0px" y="0px"
	 viewBox="0 0 11.1 30.6" style="enable-background:new 0 0 11.1 30.6;" xml:space="preserve">
<style type="text/css">
	.st0{fill:#B46766;}
</style>
<path class="st0" d="M11.1,0c-0.4,0.1-0.7,0.2-0.8,0.3C9.8,0.5,9.4,0.8,9,1.5c-2,0.3-6.9,1-8.2,1.1C0.6,2.6,0.3,2.5,0,2.5
	c0,1,0,1.9,0.1,2.8c0.3,2.3,0.3,4.8,0.3,7.1c0.1,5.7,0.3,12.1,1.4,15.8c0.3,1.1,1.1,1.9,2.2,2.2c0.8,0.3,1.6,0.3,2.7,0.1
	c0.2,0,1.2-0.2,1.6-0.5c0.6-0.4,0.6-1,0.7-2.8c0.1-1.1,0.1-2.6,0.2-4.4c0.1-3.8,0.3-8.6,0.6-12.7c0.1-1.7,0.4-3.4,0.6-5.1
	C10.6,3.4,10.8,1.7,11.1,0z M7.3,9.4C6.9,13.7,6.7,19,6.6,22.9c-0.1,2-0.1,4.2-0.2,5.3c-0.6,0.1-1.4,0.2-1.9-0.1
	c-0.1-0.1-0.3-0.2-0.4-0.5c-1-3.4-1.1-9.9-1.3-15.1c-0.1-2.3-0.1-4.3-0.2-6C2.9,7,3.1,7.4,3.1,7.4c0,0.1,2.6,0.4,4.3,0.5
	C7.4,8.4,7.4,8.9,7.3,9.4z"/>
</svg>
