<svg width="25" height="34" viewBox="0 0 25 34" fill="none" xmlns="http://www.w3.org/2000/svg">
<path d="M21.5075 1.16251C19.6057 1.64203 17.5619 2.21138 17.0443 2.406C16.5757 2.58203 16.146 2.92137 15.7572 3.6055C13.7325 3.88768 8.73721 4.5827 7.45968 4.74285C6.67257 4.57181 5.37552 4.54459 3.0228 4.87531C2.25883 4.98283 1.48897 5.11394 0.78125 5.24732L0.866999 7.77244C1.57835 7.63317 2.3786 7.49071 3.17025 7.37503C5.28978 7.06517 6.29647 7.09466 6.73516 7.15001C6.93296 9.00007 7.00601 11.8105 7.08268 14.7712C7.23148 20.4983 7.40024 26.9893 8.48178 30.7321C8.80479 31.8504 9.55834 32.6352 10.6603 33.0027C11.4229 33.2568 12.3275 33.2999 13.3496 33.1311C13.557 33.0971 14.6108 32.9106 15.0137 32.6067C15.5803 32.1793 15.6402 31.5551 15.73 29.8139C15.7876 28.6947 15.8339 27.1581 15.8875 25.3793C16.0045 21.4936 16.1497 16.6575 16.5108 12.4815C16.7045 10.2404 16.9431 8.42481 17.2199 7.08558C17.5756 5.36527 17.9103 4.83721 18.0106 4.71018C18.8209 4.43299 22.0541 3.56784 24.2077 3.08196L24.1215 0.546875C23.4723 0.683883 22.6244 0.880778 21.5075 1.16251ZM14.0796 11.6508C13.6717 16.0269 13.5107 21.3888 13.3927 25.3044C13.3319 27.3287 13.2644 29.5703 13.1786 30.6269C12.5866 30.7462 11.7759 30.812 11.2941 30.5724C11.143 30.4971 10.9752 30.3751 10.8781 30.0394C9.88544 26.6042 9.71396 20.0069 9.5765 14.7063C9.51707 12.4266 9.46308 10.3524 9.35828 8.64439C9.65543 9.17563 9.86321 9.55626 9.87273 9.59709C9.89587 9.69735 12.5321 9.96501 14.2356 10.1274C14.1821 10.6051 14.1295 11.1123 14.0796 11.6508Z" fill="#B46766"/>
</svg>
