<svg width="25" height="36" viewBox="0 0 25 36" fill="none" xmlns="http://www.w3.org/2000/svg">
<path d="M21.8425 1.24103C20.2596 1.71647 18.2735 2.52853 16.7478 3.86594C15.8818 4.0524 10.1737 5.28003 8.19437 5.68787C7.028 5.20426 5.22739 5.15027 2.84972 5.24101C2.63196 5.24917 2.38789 5.25916 2.29671 5.2578C2.0912 5.23511 1.6906 5.21742 0.125 5.54905L0.211214 8.08413C1.09723 7.88406 1.80086 7.74796 2.07714 7.74388C2.2459 7.75976 2.44869 7.75341 2.945 7.73436C3.61098 7.70895 4.61766 7.67039 5.56129 7.72165C6.47815 7.77156 6.94678 7.88588 7.16817 7.96437C7.19993 9.94145 7.47667 14.3788 7.75114 18.087C7.91265 20.2664 8.0796 22.2916 8.2216 23.7901C8.46204 26.327 8.56592 26.714 8.64441 26.9186C8.72425 27.267 8.80547 28.6547 8.85946 29.5793C8.908 30.4064 8.9579 31.262 9.02187 31.9329C9.12032 32.9655 9.22285 33.6287 9.79583 34.0139C9.82123 34.0348 9.86977 34.0756 9.90652 34.1069C10.396 34.5229 11.4367 35.4076 12.6589 35.4076C12.8907 35.4076 13.1294 35.3758 13.3721 35.3028C14.3524 35.0079 15.0561 34.1455 15.4626 32.7405C16.5464 28.9954 16.677 25.1874 16.8149 21.1556C16.8449 20.2832 16.8757 19.3809 16.917 18.4772C16.9987 16.6829 16.8413 15.0121 16.702 13.5377C16.4452 10.8152 16.2429 8.66483 17.4859 6.76351C18.3302 5.47192 20.1322 4.35908 22.5588 3.63049C23.296 3.4091 24.07 3.23217 24.8521 3.10152L24.7668 0.585938C23.7765 0.737462 22.7897 0.956581 21.8425 1.24103ZM14.425 18.3642C14.3833 19.2815 14.352 20.1911 14.322 21.0708C14.1896 24.9428 14.0644 28.6003 13.0667 32.0473C12.8844 32.6774 12.6988 32.8698 12.6512 32.9106C12.609 32.907 12.4752 32.8829 12.2307 32.7377C11.9825 32.5908 11.7479 32.3966 11.5683 32.2442C11.4812 31.6535 11.4013 30.2938 11.351 29.4332C11.2335 27.428 11.17 26.5747 11.0017 26.0961C10.744 24.9651 9.88064 13.8416 9.69555 9.06088C10.1832 9.79536 10.5639 10.3779 10.5798 10.4291C10.6052 10.5103 12.4207 10.5752 14.0158 10.6165C14.0185 11.6468 14.1174 12.6984 14.2186 13.7718C14.3561 15.2335 14.4985 16.7437 14.425 18.3642Z" fill="#B46766"/>
</svg>
