<?xml version="1.0" encoding="utf-8"?>
<!-- Generator: Adobe Illustrator 25.3.1, SVG Export Plug-In . SVG Version: 6.00 Build 0)  -->
<svg version="1.1" id="Слой_1" xmlns="http://www.w3.org/2000/svg" xmlns:xlink="http://www.w3.org/1999/xlink" x="0px" y="0px"
	 viewBox="0 0 10 31.4" style="enable-background:new 0 0 10 31.4;" xml:space="preserve">
<style type="text/css">
	.st0{fill:#B46766;}
</style>
<path class="st0" d="M9.9,4.2C9.9,2.8,10,1.4,10,0C9.9,0.1,9.8,0.1,9.7,0.2C8.8,0.4,3.2,1.6,1.3,2C0.9,1.8,0.5,1.7,0,1.7
	c0.1,0.9,0.2,1.7,0.2,2.6h0.1c0,2,0.3,6.3,0.6,10c0.2,2.2,0.3,4.2,0.5,5.6c0.2,2.5,0.3,2.9,0.4,3.1C1.9,23.3,2,24.7,2,25.6
	c0,0.8,0.1,1.7,0.2,2.3c0.1,1,0.2,1.7,0.8,2.1l0.1,0.1c0.5,0.4,1.5,1.3,2.7,1.3c0.2,0,0.5,0,0.7-0.1c1-0.3,1.7-1.1,2.1-2.5
	c1.1-3.7,1.2-7.5,1.3-11.4c0-0.9,0.1-1.8,0.1-2.6c0.1-1.8-0.1-3.4-0.2-4.9C9.5,7.6,9.4,5.8,9.9,4.2z M7.5,14.5
	c0,0.9-0.1,1.8-0.1,2.7C7.3,21,7.1,24.6,6.2,28c-0.2,0.6-0.4,0.8-0.4,0.9c0,0-0.2,0-0.4-0.2c-0.2-0.1-0.5-0.3-0.7-0.5
	c-0.1-0.6-0.2-1.9-0.2-2.8c-0.1-2-0.2-2.8-0.3-3.3C3.9,21,3.1,10,2.9,5.3C3.4,6,3.8,6.6,3.8,6.7s1.8,0.1,3.4,0.2
	c0,1,0.1,2.1,0.2,3.1C7.4,11.4,7.6,12.9,7.5,14.5z"/>
</svg>
