<svg width="28" height="37" viewBox="0 0 28 37" fill="none" xmlns="http://www.w3.org/2000/svg">
<path d="M22.3148 3.79919C22.3148 3.79919 20.9538 4.75188 20.1372 5.08261C19.346 5.40335 6.59433 7.52106 5.79543 7.44303L5.79634 7.4344C5.78318 7.43304 5.77002 7.43168 5.75686 7.43032C5.75641 7.42987 5.75595 7.42896 5.75595 7.42851L5.75279 7.42987C4.20261 7.26383 2.47821 7.32053 0.765625 7.58184L0.850909 10.0974C2.46233 9.8284 4.10596 9.75853 5.52276 9.91459L5.52458 9.89599C11.7825 11.1907 11.0648 15.7442 11.381 18.7248C11.6985 21.719 11.7512 33.9067 13.6493 36.1455C15.067 37.8177 17.9927 36.2657 18.186 35.7372C18.4282 35.0744 21.1439 10.7589 20.6811 8.69877C20.4248 7.55644 21.8153 4.97871 22.2236 4.61578C22.4509 4.4139 24.7174 3.34643 27.7783 1.80215L27.7429 0.757812C24.8744 2.45134 22.8878 3.6345 22.3148 3.79919Z" fill="#B46766"/>
</svg>
