<?xml version="1.0" encoding="utf-8"?>
<!-- Generator: Adobe Illustrator 25.3.1, SVG Export Plug-In . SVG Version: 6.00 Build 0)  -->
<svg version="1.1" id="Слой_1" xmlns="http://www.w3.org/2000/svg" xmlns:xlink="http://www.w3.org/1999/xlink" x="0px" y="0px"
	 viewBox="0 0 10.9 37.4" style="enable-background:new 0 0 10.9 37.4;" xml:space="preserve">
<style type="text/css">
	.st0{fill:#B46766;}
</style>
<path class="st0" d="M0.1,35.9c0,0.4,0,0.9-0.1,1.3c3.4,0.1,8,0.2,10.9,0.2c-0.2,0-1-7.1-1.1-7.7c-0.4-3.2-0.5-6.3-0.7-9.5
	c-0.2-2.6-0.5-5.2-0.7-7.8C8,8.6,7.8,4.8,7.2,1c0-0.1,0-0.3-0.1-0.4C6.7-0.1,3-0.5,2.3,1.5C2,2.4,2,3.5,1.9,4.4c-0.2,2-0.4,4-0.5,6
	c-0.3,3.2-0.5,6.5-0.7,9.7c-0.2,3.4-0.5,6.7-0.4,10C0.4,32,0.3,33.9,0.1,35.9z"/>
</svg>
