<svg width="20" height="39" viewBox="0 0 20 39" fill="none" xmlns="http://www.w3.org/2000/svg">
<path d="M18.4512 36.2541C18.0348 36.1942 17.563 36.1257 17.3017 35.9533C17.2985 35.9506 15.4339 34.586 15.3432 30.0039C15.2524 25.4219 13.0431 2.0635 12.7573 1.55902C12.3562 0.851756 8.5908 0.456159 7.85768 2.46636C7.4276 3.64589 5.68552 28.417 5.54398 29.3688C5.24955 31.3486 3.77468 34.7674 3.36638 35.085C2.95808 35.4026 2.46857 36.1198 1.81937 36.0254C1.70641 36.0091 1.18289 35.8676 0.445679 35.6181L0.296875 38.336C0.784113 38.4004 1.18697 38.4548 1.46143 38.4948C2.20091 38.6018 18.8541 38.8622 19.2343 38.9457C19.2443 38.948 19.2547 38.9498 19.2665 38.9521L19.4049 36.4292C19.095 36.3639 18.7774 36.3008 18.4512 36.2541Z" fill="#B46766"/>
</svg>
