<svg width="19" height="39" viewBox="0 0 19 39" fill="none" xmlns="http://www.w3.org/2000/svg">
<path d="M17.717 36.1481C17.4371 36.1327 16.8483 36.5405 16.3492 35.6332C16.2095 35.4826 14.9233 30.4333 14.9428 28.0116C14.9632 25.4461 14.6312 17.4049 14.0809 10.8176C13.7206 6.50281 13.3831 2.74554 12.5837 1.78967C9.68023 -0.796232 7.95628 0.927702 7.50261 2.60627C7.04893 4.28484 5.78001 23.3955 5.27961 27.6033C4.85679 31.1601 3.93765 31.126 3.64639 34.8166C3.58832 35.5547 2.56348 35.7058 2.56167 35.7072C2.56076 35.7076 2.47365 35.7693 2.13521 35.7512C1.75775 35.7312 1.27686 35.6259 0.767843 35.5143C0.64762 35.488 0.526489 35.4617 0.403997 35.4354L0.265625 37.9582C1.73144 38.2341 16.6636 38.5898 17.5814 38.6401C17.6517 38.6437 17.7216 38.646 17.7924 38.646C18.0773 38.646 18.4252 38.6451 18.8285 38.6451L18.9705 36.0556C18.4847 36.1386 18.0142 36.164 17.717 36.1481Z" fill="#B46766"/>
</svg>
