<?xml version="1.0" encoding="utf-8"?>
<!-- Generator: Adobe Illustrator 25.3.1, SVG Export Plug-In . SVG Version: 6.00 Build 0)  -->
<svg version="1.1" id="Слой_1" xmlns="http://www.w3.org/2000/svg" xmlns:xlink="http://www.w3.org/1999/xlink" x="0px" y="0px"
	 viewBox="0 0 11.7 37.6" style="enable-background:new 0 0 11.7 37.6;" xml:space="preserve">
<style type="text/css">
	.st0{fill:#B46766;}
</style>
<path class="st0" d="M0.1,35.1c0,0.7-0.1,1.4-0.1,2.1c3.9,0.2,9.3,0.3,11.7,0.4c-0.1-0.6-0.3-1.2-0.4-1.8
	c-1.2-6.3-1.1-12.8-1.4-19.2c-0.1-2.1-0.3-4.3-0.4-6.4C9.1,5.9,8.8,2.2,8,1.3C5.1-1.3,3.4,0.4,3,2.1c-0.3,1-0.3,2.1-0.4,3.1
	c-0.2,2-0.3,3.9-0.5,5.9c-0.3,4.3-0.7,8.6-1,12.9C0.6,27.7,0.3,31.4,0.1,35.1z"/>
</svg>
