<svg width="21" height="39" viewBox="0 0 21 39" fill="none" xmlns="http://www.w3.org/2000/svg">
<path d="M20.2092 36.298C19.3291 36.0499 17.1275 33.2812 16.3145 29.8678C14.7879 23.4561 14.8773 14.3451 14.7267 12.4016C14.5116 9.62153 14.4998 4.14487 12.9574 1.60433C11.1159 -0.39316 8.77546 1.08262 8.14849 1.69507C7.52651 2.30207 7.37317 7.23706 6.51529 13.0821C5.64697 18.9993 6.47174 25.3062 5.42649 29.5502C4.93109 31.5622 3.01752 33.8505 2.65913 34.3137C2.35608 34.7057 1.64881 34.9361 0.970128 35.0532L0.828125 37.6427C2.60378 37.6423 5.45643 37.655 8.78362 37.8069C12.3381 37.9698 15.879 38.5791 20.5558 38.6L20.6783 36.3656C20.5154 36.3756 20.3567 36.3557 20.2092 36.298Z" fill="#B46766"/>
</svg>
