<?xml version="1.0" encoding="utf-8"?>
<!-- Generator: Adobe Illustrator 25.3.1, SVG Export Plug-In . SVG Version: 6.00 Build 0)  -->
<svg version="1.1" id="Слой_1" xmlns="http://www.w3.org/2000/svg" xmlns:xlink="http://www.w3.org/1999/xlink" x="0px" y="0px"
	 viewBox="0 0 10.8 37.4" style="enable-background:new 0 0 10.8 37.4;" xml:space="preserve">
<style type="text/css">
	.st0{fill:#B46766;}
</style>
<path class="st0" d="M10.5,35.6C10.2,33.3,10,31,10,28.7c-0.1-3.3-0.6-6.6-0.8-9.9c-0.1-2.3-0.1-4.7-0.3-7v-0.1C8.7,9,8.7,3.5,7.2,1
	C5.4-1,3.1,0.5,2.5,1.1C1.9,1.7,1.7,6.6,0.9,12.3c-0.4,2.6-0.4,5.3-0.5,8c0,2.7-0.3,5.3-0.2,8c0.2,2.8,0,5.6-0.2,8.4
	c1,0,2,0.1,3.1,0.1c2.4,0.1,4.9,0.4,7.7,0.6C10.7,36.8,10.6,36.2,10.5,35.6z"/>
</svg>
