<?xml version="1.0" encoding="utf-8"?>
<!-- Generator: Adobe Illustrator 25.3.1, SVG Export Plug-In . SVG Version: 6.00 Build 0)  -->
<svg version="1.1" id="Слой_1" xmlns="http://www.w3.org/2000/svg" xmlns:xlink="http://www.w3.org/1999/xlink" x="0px" y="0px"
	 viewBox="0 0 10.5 35.2" style="enable-background:new 0 0 10.5 35.2;" xml:space="preserve">
<style type="text/css">
	.st0{fill:#B46766;}
</style>
<path class="st0" d="M10.2,29.2c0-0.8-0.1-1.7-0.2-2.5C9.8,23,9.4,19.3,9.1,15.5c-0.3-4-0.6-7.9-1-11.9C8,2.8,8.1,1.8,7.7,1.1
	c-0.6-1.3-5-2-5.8,1.3C1.6,3.6,1.5,5,1.4,6.2C1.2,8.3,1.1,10.4,1,12.5c-0.3,4.6-0.5,9.3-0.7,13.9C0.1,29.3,0,32.2,0,35.2
	c2.6,0,7.2-0.1,10.5-0.1c0.1-0.1,0-0.8,0-1c0-0.8-0.1-1.5-0.1-2.3C10.3,31,10.3,30.1,10.2,29.2z"/>
</svg>
