<svg width="21" height="36" viewBox="0 0 21 36" fill="none" xmlns="http://www.w3.org/2000/svg">
<path d="M16.686 31.7967C16.2582 31.5077 14.6059 30.0855 14.4603 29.8133C14.1509 29.2367 12.452 2.38641 11.8291 1.09618C11.2062 -0.194045 6.74807 -0.945317 5.93148 2.36645C5.11489 5.67822 4.5705 24.4147 4.0261 30.4484C3.84373 31.4882 2.7994 31.6806 2.16291 32.5008C1.81178 32.9536 1.22293 33.3288 0.677174 33.3628L0.554688 35.5971C1.04056 35.5994 1.53822 35.5953 2.04995 35.5835C2.91236 35.564 17.3891 35.4179 18.5428 35.5753C18.7184 35.5994 19.1698 35.6148 19.848 35.6234L20.0099 32.6673C18.9475 32.8084 17.7335 32.5049 16.686 31.7967Z" fill="#B46766"/>
</svg>
