<?xml version="1.0" encoding="utf-8"?>
<!-- Generator: Adobe Illustrator 25.3.1, SVG Export Plug-In . SVG Version: 6.00 Build 0)  -->
<svg version="1.1" id="Слой_1" xmlns="http://www.w3.org/2000/svg" xmlns:xlink="http://www.w3.org/1999/xlink" x="0px" y="0px"
	 viewBox="0 0 11.5 35.3" style="enable-background:new 0 0 11.5 35.3;" xml:space="preserve">
<style type="text/css">
	.st0{fill:#B46766;}
</style>
<path class="st0" d="M11.5,35.2c0-0.1,0-0.1,0-0.2c-0.6-6.1-0.7-12.3-1.3-18.4C9.8,12.1,9.4,7.5,8.5,3C8.4,2.5,8.4,1.4,7.9,1
	c-1-1.1-4.1-1.5-5.2,0.1C2.2,1.9,2.2,3.3,2,4.3c-0.3,2.1-0.5,4.2-0.7,6.3c-0.5,5-0.9,10.1-1.2,15.1c0,0.8-0.2,9.6-0.1,9.6
	C3.4,35.3,7.4,35.3,11.5,35.2z"/>
</svg>
