<svg width="26" height="37" viewBox="0 0 26 37" fill="none" xmlns="http://www.w3.org/2000/svg">
<path d="M25.4503 33.8101C24.4069 33.7648 23.5903 33.4472 22.6376 33.0843C21.6849 32.7213 18.9366 31.041 18.963 30.4076C19.158 25.7145 16.9215 3.00617 15.9234 1.91737C14.9254 0.828568 11.7498 0.374901 10.7064 2.0081C9.66296 3.6413 8.23984 24.475 7.98443 29.8632C7.96764 30.2207 4.25354 32.2763 2.04922 33.3624C1.73075 33.5193 1.38144 33.621 1.01352 33.6695L0.851562 36.6256C4.67862 36.6755 15.7556 36.514 25.6304 36.4559L25.776 33.7965C25.6508 33.8092 25.5405 33.8142 25.4503 33.8101Z" fill="#B46766"/>
</svg>
