<svg width="21" height="50" viewBox="0 0 21 50" fill="none" xmlns="http://www.w3.org/2000/svg">
<path d="M16 26.2C15.9 25.2 15.6 24.2 15.4 23.2C15.2 22.1 15.1 21.1 15.2 20C15.2 19.8 15.2 19.7 15.3 19.5C14.6 19.4 14 19.4 13.7 19.5C12.5 20.3 7.40001 19.8 6.60001 18.9C6.10001 18.3 6.2 18.2 6.5 18.1L5.5 17.9C5.6 18 5.6 18.2 5.7 18.3C5.7 18.4 5.8 18.5 5.8 18.5C5.9 18.7 6.00001 18.9 6.10001 19.2C6.30001 19.5 6.50001 19.9 6.60001 20.3C6.80001 21 6.70001 21.7 6.60001 22.5C6.30001 29.5 7.80001 46.7 8.60001 47.9C9.40001 49 10.2 49.2 11.2 49.2C12.3 49.2 13.3 48.2 13.6 48C14.9 46.7 14.7 41.8 15.2 37.6C15.6 34.5 15.8 31.5 16 28.4C16 27.8 16.2 27.1 16.1 26.5C16 26.5 16 26.4 16 26.2Z" fill="#C16263"/>
<path d="M10.8999 25.2C13.2195 25.2 15.0999 24.4389 15.0999 23.5C15.0999 22.5611 13.2195 21.8 10.8999 21.8C8.58035 21.8 6.69995 22.5611 6.69995 23.5C6.69995 24.4389 8.58035 25.2 10.8999 25.2Z" fill="#C16263"/>
<path d="M10.9 24.7C12.5569 24.7 13.9 24.1627 13.9 23.5C13.9 22.8372 12.5569 22.3 10.9 22.3C9.24316 22.3 7.90002 22.8372 7.90002 23.5C7.90002 24.1627 9.24316 24.7 10.9 24.7Z" fill="#61B75A"/>
<path d="M8.50008 43.3C8.50008 46.1 8.50008 48.3 11.0001 48.3C13.5001 48.3 13.8001 46.1 13.8001 43.3L14.3001 36.3C12.8001 37.1 9.60007 38.9 8.20007 39.6L8.50008 43.3Z" fill="#8C8D92"/>
<path d="M8.10002 38.5L14.4 35.2L14.6 32.2C13 33.1 9.40002 35.1 7.90002 36L8.10002 38.5Z" fill="#8C8D92"/>
<path d="M7.79998 34.9L14.7 31L14.9 28C13.5 28.8 8.99998 31.4 7.59998 32.2L7.79998 34.9Z" fill="#8C8D92"/>
<path d="M7.50002 31.2L15 26.9L15.3 23.3C15.3 20.6 6.90002 20.3 6.90002 23L7.50002 31.2Z" fill="#8C8D92"/>
<path d="M7.6 32.3C9 31.5 13.5 28.8 14.9 28.1L15 27L7.5 31.3L7.6 32.3Z" fill="#BBBCC1"/>
<path d="M7.30005 35.2C7.40005 35.5 7.50005 35.9 7.50005 36.2C7.60005 36.1 7.70005 36.1 7.90005 36L7.80005 34.9L7.30005 35.2Z" fill="#BBBCC1"/>
<path d="M7.90005 36C9.50005 35.1 13.1 33 14.6 32.2L14.7 31.1L7.80005 35L7.90005 36Z" fill="#BBBCC1"/>
<path d="M8.19997 39.5C9.59997 38.8 12.9 37 14.3 36.3L14.4 35.2L8.09998 38.5L8.19997 39.5Z" fill="#BBBCC1"/>
<path d="M14.5999 39.3C14.4999 39.3 7.79993 42.8 7.79993 42.8L7.99992 41.7L14.7999 38.3L14.5999 39.3Z" fill="#BBBCC1"/>
<path d="M14.1 42.8C14 42.8 8 45.6 8 45.6L8.2 44.6L14.3 41.8L14.1 42.8Z" fill="#BBBCC1"/>
<path d="M13.8999 45.5C13.7999 45.5 8.79993 47.8 8.79993 47.8L8.89993 47L13.9999 44.7L13.8999 45.5Z" fill="#BBBCC1"/>
<path d="M11.1 24.5C13.4196 24.5 15.3 23.7389 15.3 22.8C15.3 21.8611 13.4196 21.1 11.1 21.1C8.78043 21.1 6.90002 21.8611 6.90002 22.8C6.90002 23.7389 8.78043 24.5 11.1 24.5Z" fill="#527F3F"/>
<path d="M11.1 24C12.7568 24 14.1 23.4628 14.1 22.8C14.1 22.1373 12.7568 21.6 11.1 21.6C9.44312 21.6 8.09998 22.1373 8.09998 22.8C8.09998 23.4628 9.44312 24 11.1 24Z" fill="#79B565"/>
<path d="M15.5 22.8L13.9 43.5C13.9 46.3 13.6 48.6 11 48.6C8.39998 48.6 8.29998 46.3 8.29998 43.5L6.59998 22.5C6.69998 19.7 15.5 20 15.5 22.8Z" stroke="#B46766" stroke-miterlimit="10"/>
<path d="M0.49997 12C4.09997 15.6 6.89996 20.5 6.89996 20.5L6.59998 23.5C6.59998 23.5 6.69997 25.1 11 25.1C15.3 25.1 15.1 23.5 15.1 23.5L14.8 20.5C14.8 20.5 15.2 19.3 15.8 17.9C17 16.2 18.5 14.1 20.3 12.2L20.5 10.9H20.4L19.3 10.2C19.3 10.2 18.9 9.99999 18.7 8.99999C18.7 8.99999 18.2 4.89999 17.9 4.09999C17.9 4.09999 17.2 1.79999 14.9 0.999986C14.9 0.999986 14.3 0.89998 12.2 1.39998C12.2 1.39998 10.2 2.09999 7.89996 1.49999C7.89996 1.49999 6.49997 0.899989 4.99997 1.29999C4.99997 1.29999 2.99996 1.89999 2.89996 4.79999L2.49997 9.69998C2.49997 9.69998 2.49997 10.4 1.49997 10.6L0.199967 11H0.0999756L0.49997 12Z" fill="#CDCDCD"/>
<path opacity="0.3" d="M2.19995 10.2C10.5999 14.9 19.1999 10.1 19.1999 10.1L13.6999 17.9H8.09996L2.19995 10.2Z" fill="url(#paint0_linear_163_375)"/>
<defs>
<linearGradient id="paint0_linear_163_375" x1="10.6922" y1="12.9411" x2="10.6492" y2="28.5118" gradientUnits="userSpaceOnUse">
<stop/>
<stop offset="0.2661" stop-color="#C2C2C0"/>
</linearGradient>
</defs>
</svg>
