<svg width="22" height="49" viewBox="0 0 22 49" fill="none" xmlns="http://www.w3.org/2000/svg">
<path d="M10.6 0.799988C8.9 0.799988 8.2 1.79999 8 3.29999C8.8 2.89999 11.1 1.79999 12.2 1.29999C11.8 0.999988 11.3 0.799988 10.6 0.799988Z" fill="#C16263"/>
<path d="M14.1 16.7C12.7 17.5 8.19997 20.2 6.69997 21L6.59998 22L14.2 17.7L14.1 16.7Z" fill="#C16263"/>
<path d="M10.4 14.8C9.8 15.2 9.1 15.6 8.5 15.9C9.1 15.6 9.8 15.2 10.4 14.8Z" fill="#C16263"/>
<path d="M7 16.8C7.4 16.6 7.9 16.3 8.5 15.9C7.9 16.3 7.4 16.6 7 16.8Z" fill="#C16263"/>
<path d="M13.3 7.39996L7.49995 10.3V10.1L7.39996 10.2L7.19995 12.6C8.69995 11.8 12 9.99996 13.4 9.29996L13.3 7.39996Z" fill="#C16263"/>
<path d="M12.7 1.89996L7.89996 3.99996C7.89996 3.89996 7.89996 3.89996 7.89996 3.79996L7.79996 3.89996C7.69996 4.39996 7.69995 4.99996 7.69995 5.59996V5.89996C8.59995 5.49996 11.7 3.99996 13 3.39996C13 2.79996 12.9 2.39996 12.7 1.89996Z" fill="#C16263"/>
<path d="M10.4 14.8C11.7 14 13 13.3 13.8 12.8L13.6 10.2L7.2 13.5L7 16.8C7.4 16.6 7.9 16.3 8.5 15.9C9.1 15.6 9.8 15.2 10.4 14.8Z" fill="#C16263"/>
<path d="M13.2 5.69999C13.2 5.19999 13.2 4.79999 13.2 4.29999L7.7 6.79999L7.5 9.29999C8.8 8.69999 11.9 6.99999 13.2 6.29999V5.69999Z" fill="#C16263"/>
<path d="M14.1 17.7L6.49995 22L6.19995 25.8C6.19995 28.5 14.7 28.8 14.7 26L14.1 17.7Z" fill="#C16263"/>
<path d="M13.9 14L6.89996 17.9L6.69995 21.1C8.19995 20.3 12.7 17.6 14.1 16.8L13.9 14Z" fill="#C16263"/>
<path d="M13.8 12.9C13 13.4 11.7 14.1 10.4 14.9C9.80002 15.3 9.10002 15.7 8.50002 16C7.90002 16.3 7.40002 16.6 7.00002 16.9L6.90002 17.9L13.9 14L13.8 12.9Z" fill="#C16263"/>
<path d="M13.6 10.3L13.5 9.29999C12.1 9.99999 8.79996 11.8 7.29996 12.6L7.19995 13.6L13.6 10.3Z" fill="#C16263"/>
<path d="M13.6 10.3L7.19995 13.6L13.6 10.3Z" fill="#C16263"/>
<path d="M13.3 7.39996V6.39996C12 7.09996 8.8 8.69996 7.6 9.39996L7.5 10.1L13.3 7.29996V7.39996Z" fill="#C16263"/>
<path d="M13.3 7.39999V7.29999L7.5 10.1V10.3L13.3 7.39999Z" fill="#C16263"/>
<path d="M13.1 3.5C11.8 4.1 8.69996 5.6 7.79996 6L7.69995 6.8L13.2 4.3C13.2 4 13.1 3.8 13.1 3.5Z" fill="#C16263"/>
<path d="M12.7 1.89999C12.5 1.59999 12.4 1.39999 12.2 1.29999C11.1 1.79999 8.80002 2.89999 8.00002 3.29999C8.00002 3.49999 7.90002 3.59999 7.90002 3.79999L12.6 1.79999C12.6 1.79999 12.6 1.89999 12.7 1.89999Z" fill="#C16263"/>
<path d="M12.7 1.89999C12.7 1.89999 12.7 1.79999 12.6 1.79999L7.90002 3.79999C7.90002 3.89999 7.90002 3.89999 7.90002 3.99999L12.7 1.89999Z" fill="#C16263"/>
<path d="M16.4 31.7656C16.3 31.3656 16.2 31.0656 16.1 30.6656C15.9 29.7656 16.1 28.8656 16 27.9656C16 27.4656 16 26.9656 15.9 26.3656C15.8 25.1656 15.7 23.8656 15.7 22.6656C15.5 19.7656 15.2 16.9656 14.9 14.0656C14.6 11.4656 14.3 8.8656 14 6.2656C13.9 5.3656 13.7 4.4656 13.5 3.5656C13.4 3.0656 13.3 2.5656 13.1 2.0656C13.1 2.0656 13.1 1.9656 13 1.9656C12 0.865598 8.79999 0.465597 7.79999 2.0656C7.59999 2.4656 7.49998 2.96559 7.39998 3.46559C7.19998 4.36559 7.09999 5.2656 6.99999 6.1656C6.69999 8.7656 6.39998 11.4656 6.19998 14.0656C5.89998 16.9656 5.69999 19.8656 5.49999 22.8656C5.29999 25.2656 5.29998 27.6656 5.09998 30.0656C4.99998 31.0656 4.89999 32.0656 4.49999 33.0656C4.29999 33.5656 4.09998 33.9656 3.89998 34.4656C3.79998 34.6656 3.29998 35.7656 3.09998 35.7656C4.39998 35.7656 5.59998 35.7656 5.89998 35.7656C10.3 35.3656 10.1 35.9656 14.4 36.9656C16.2 37.3656 16.4 35.9656 16.4 35.9656C16.4 35.9656 17.1 35.9656 18 35.9656C17.8 35.4656 17.5 35.0656 17.3 34.5656C17.1 33.6656 16.7 32.6656 16.4 31.7656Z" fill="#C16263"/>
<path d="M10.5001 28C12.8197 28 14.7001 27.2389 14.7001 26.3C14.7001 25.3611 12.8197 24.6 10.5001 24.6C8.18045 24.6 6.30005 25.3611 6.30005 26.3C6.30005 27.2389 8.18045 28 10.5001 28Z" fill="#3F8035"/>
<path d="M13.1 6.90006C13.1 4.20006 13.1 2.00006 10.6 2.00006C8.10005 2.00006 7.80005 4.20006 7.80005 6.90006L7.30005 13.8C8.80005 13 12 11.3001 13.4 10.6001L13.1 6.90006Z" fill="#8C8D92"/>
<path d="M13.5 11.6L7.2 14.9L7 17.9C8.6 17 12.2 15 13.7 14.1L13.5 11.6Z" fill="#8C8D92"/>
<path d="M13.8001 15.2001L6.90007 19.1001L6.70007 22.1001C8.10007 21.3001 12.6001 18.7001 14.0001 17.9001L13.8001 15.2001Z" fill="#8C8D92"/>
<path d="M14.1 18.9001L6.60004 23.2001L6.30005 26.8001C6.30005 29.5001 14.7001 29.8001 14.7001 27.1001L14.1 18.9001Z" fill="#8C8D92"/>
<path d="M14.0001 17.8C12.6001 18.6 8.10011 21.3 6.70011 22L6.6001 23.1L14.1001 18.8L14.0001 17.8Z" fill="#BBBCC1"/>
<path d="M14.3001 14.9001C14.2001 14.6001 14.1001 14.2001 14.1001 13.9001C14.0001 14.0001 13.9001 14.0001 13.7001 14.1001L13.8001 15.2001L14.3001 14.9001Z" fill="#BBBCC1"/>
<path d="M13.7 14.1C12.1 15 8.50002 17.1 7.00002 17.9L6.90002 19L13.8 15.1L13.7 14.1Z" fill="#BBBCC1"/>
<path d="M14 11.3001L14.1 10.2001C14.1 10.2001 13.8 10.3001 13.4 10.6001L13.5 11.6001L14 11.3001Z" fill="#B46766"/>
<path d="M13.4001 10.5C12.0001 11.2 8.70007 13 7.30007 13.7L7.20007 14.8L13.5001 11.5L13.4001 10.5Z" fill="#BBBCC1"/>
<path d="M7.00005 10.7001C7.10005 10.7001 13.8 7.20007 13.8 7.20007L13.6 8.30007L6.80005 11.7001L7.00005 10.7001Z" fill="#BBBCC1"/>
<path d="M7.50005 7.30006C7.60005 7.30006 13.6 4.50006 13.6 4.50006L13.4 5.50006L7.30005 8.30006L7.50005 7.30006Z" fill="#BBBCC1"/>
<path d="M7.70011 4.60005C7.80011 4.60005 12.8001 2.30005 12.8001 2.30005L12.7001 3.10005L7.6001 5.40005L7.70011 4.60005Z" fill="#BBBCC1"/>
<path d="M10.5 29C12.8196 29 14.7001 28.2389 14.7001 27.3C14.7001 26.3611 12.8196 25.6 10.5 25.6C8.18045 25.6 6.30005 26.3611 6.30005 27.3C6.30005 28.2389 8.18045 29 10.5 29Z" fill="#527F3F"/>
<path d="M10.5001 28.5C12.157 28.5 13.5001 27.9628 13.5001 27.3C13.5001 26.6373 12.157 26.1 10.5001 26.1C8.84326 26.1 7.50012 26.6373 7.50012 27.3C7.50012 27.9628 8.84326 28.5 10.5001 28.5Z" fill="#79B565"/>
<path d="M6.1001 27.3L7.7001 6.60006C7.7001 3.80006 8.00009 1.50006 10.6001 1.50006C13.2001 1.50006 13.3001 3.80006 13.3001 6.60006L15.0001 27.6001C14.9001 30.4001 6.1001 30.1 6.1001 27.3Z" stroke="#B46766" stroke-miterlimit="10"/>
<path d="M10.5 27.5C12.1569 27.5 13.5 26.9627 13.5 26.3C13.5 25.6373 12.1569 25.1 10.5 25.1C8.84315 25.1 7.5 25.6373 7.5 26.3C7.5 26.9627 8.84315 27.5 10.5 27.5Z" fill="#61B75A"/>
<path d="M20.9 37.7C17.3 34.1 14.5 29.2 14.5 29.2L14.8 26.2C14.8 26.2 14.7 24.6 10.4 24.6C6.10002 24.6 6.30003 26.2 6.30003 26.2L6.60002 29.2C6.60002 29.2 6.20002 30.4 5.60002 31.8C4.40002 33.5 2.90002 35.6 1.10002 37.5L0.900024 38.8H1.00002L2.10002 39.5C2.10002 39.5 2.50002 39.7 2.70002 40.7C2.70002 40.7 3.20002 44.8 3.50002 45.6C3.50002 45.6 4.20002 47.9 6.50002 48.7C6.50002 48.7 7.10002 48.8 9.20002 48.3C9.20002 48.3 11.2 47.6 13.5 48.2C13.5 48.2 14.9 48.8 16.4 48.4C16.4 48.4 18.4 47.8 18.5 44.9L18.9 40C18.9 40 18.9 39.3 19.9 39.1L21.2 38.7H21.3L20.9 37.7Z" fill="#CDCDCD"/>
<path opacity="0.3" d="M19.1 39.5C10.7 34.8 2.09998 39.6 2.09998 39.6L7.59998 31.8H13.2L19.1 39.5Z" fill="url(#paint0_linear_162_322)"/>
<defs>
<linearGradient id="paint0_linear_162_322" x1="10.6076" y1="36.8132" x2="10.6507" y2="21.2422" gradientUnits="userSpaceOnUse">
<stop/>
<stop offset="0.2661" stop-color="#C2C2C0"/>
</linearGradient>
</defs>
</svg>
