<svg width="8" height="49" viewBox="0 0 8 49" fill="none" xmlns="http://www.w3.org/2000/svg">
<path d="M1.95358 37.4952L2.5252 8.12076C2.5252 4.14936 2.64497 0.929688 3.65074 0.929688C4.65652 0.929688 4.67557 4.14936 4.67557 8.12076L5.31751 37.6962C5.31751 45.0406 5.33611 45.9788 5.33611 47.4759C4.17518 47.4759 3.29416 47.5213 1.95312 47.5213C1.95358 45.6159 1.95358 44.8238 1.95358 37.4952Z" fill="#8C8D92"/>
<path d="M1.92188 30.6126C1.99492 30.5414 5.23092 23.6797 5.23092 23.6797L5.2477 25.3424L1.93866 32.2027L1.92188 30.6126Z" fill="#BBBCC1"/>
<path d="M1.92188 36.8704C1.99492 36.7992 5.23092 29.9375 5.23092 29.9375L5.2477 31.6002L1.93866 38.4605L1.92188 36.8704Z" fill="#BBBCC1"/>
<path d="M1.91406 24.8175C1.98756 24.7486 5.23627 17.9844 5.23627 17.9844L5.24988 19.6475L1.92812 26.4085L1.91406 24.8175Z" fill="#BBBCC1"/>
<path d="M2.03922 18.7539C2.10454 18.7067 5.08469 12.9297 5.08469 12.9297L5.05928 14.5901L2.01562 20.3426L2.03922 18.7539Z" fill="#BBBCC1"/>
<path d="M2.22486 13.7259C2.28111 13.6941 4.94505 8.64844 4.94505 8.64844L4.88063 10.2921L2.16406 15.2987L2.22486 13.7259Z" fill="#BBBCC1"/>
<path d="M2.42697 8.67731C2.47733 8.6569 4.88676 4.53125 4.88676 4.53125L4.81553 5.98253L2.35938 10.066L2.42697 8.67731Z" fill="#BBBCC1"/>
<path d="M2.51719 4.7214C2.55893 4.70416 4.55824 1.28125 4.55824 1.28125L4.49881 2.48528L2.46094 5.87372L2.51719 4.7214Z" fill="#BBBCC1"/>
<path d="M4.77348 42.169H2.50973C1.24447 42.169 0.21875 41.1433 0.21875 39.878V37.7911C0.21875 36.5258 1.24447 35.5 2.50973 35.5H4.77348C6.03874 35.5 7.06446 36.5258 7.06446 37.7911V39.878C7.06446 41.1433 6.03874 42.169 4.77348 42.169Z" fill="#BBBCC1"/>
<path d="M5.24918 48.8846H2.02951C1.52549 48.8846 1.11719 48.4763 1.11719 47.9723V45.8654C1.11719 45.3614 1.52549 44.9531 2.02951 44.9531H5.24918C5.75321 44.9531 6.16151 45.3614 6.16151 45.8654V47.9723C6.16151 48.4758 5.75321 48.8846 5.24918 48.8846Z" fill="#8C8D92"/>
<path d="M3.64816 40.4384C4.48075 40.4384 5.15569 39.7597 5.15569 38.9223C5.15569 38.085 4.48075 37.4062 3.64816 37.4062C2.81557 37.4062 2.14062 38.085 2.14062 38.9223C2.14062 39.7597 2.81557 40.4384 3.64816 40.4384Z" fill="#8C8D92"/>
</svg>
