<svg width="8" height="49" viewBox="0 0 8 49" fill="none" xmlns="http://www.w3.org/2000/svg">
<path d="M5.82785 12.0885L5.25623 41.463C5.25623 45.4344 5.13646 48.6541 4.13068 48.6541C3.12491 48.6541 3.10585 45.4344 3.10585 41.463L2.46391 11.8875C2.46391 4.54314 2.44531 3.60497 2.44531 2.10787C3.60624 2.10787 4.48727 2.0625 5.8283 2.0625C5.82785 3.9679 5.82785 4.76 5.82785 12.0885Z" fill="#8C8D92"/>
<path d="M5.84927 18.9729C5.77623 19.0441 2.54022 25.9059 2.54022 25.9059L2.52344 24.2432L5.83249 17.3828L5.84927 18.9729Z" fill="#BBBCC1"/>
<path d="M5.84927 12.7151C5.77623 12.7863 2.54022 19.648 2.54022 19.648L2.52344 17.9853L5.83249 11.125L5.84927 12.7151Z" fill="#BBBCC1"/>
<path d="M5.85925 24.7707C5.78576 24.8397 2.53705 31.6038 2.53705 31.6038L2.52344 29.9407L5.84519 23.1797L5.85925 24.7707Z" fill="#BBBCC1"/>
<path d="M5.73297 30.8387C5.66764 30.8859 2.6875 36.6629 2.6875 36.6629L2.71291 35.0025L5.75656 29.25L5.73297 30.8387Z" fill="#BBBCC1"/>
<path d="M5.54831 35.8619C5.49205 35.8936 2.82812 40.9391 2.82812 40.9391L2.89254 39.2955L5.6091 34.2891L5.54831 35.8619Z" fill="#BBBCC1"/>
<path d="M5.3504 40.9043C5.30005 40.9247 2.89062 45.0504 2.89062 45.0504L2.96185 43.5991L5.418 39.5156L5.3504 40.9043Z" fill="#BBBCC1"/>
<path d="M5.25199 44.8632C5.21025 44.8805 3.21094 48.3034 3.21094 48.3034L3.27037 47.0994L5.30824 43.7109L5.25199 44.8632Z" fill="#BBBCC1"/>
<path d="M3.00195 7.41406H5.26574C6.53102 7.41406 7.55676 8.43977 7.55676 9.705V11.7918C7.55676 13.057 6.53102 14.0827 5.26574 14.0827H3.00195C1.73668 14.0827 0.710938 13.057 0.710938 11.7918V9.705C0.710938 8.43977 1.73668 7.41406 3.00195 7.41406Z" fill="#BBBCC1"/>
<path d="M2.52951 0.703125H5.74918C6.2532 0.703125 6.6615 1.11139 6.6615 1.61539V3.7221C6.6615 4.22609 6.2532 4.63436 5.74918 4.63436H2.52951C2.02549 4.63436 1.61719 4.22609 1.61719 3.7221V1.61539C1.61719 1.11185 2.02594 0.703125 2.52951 0.703125Z" fill="#8C8D92"/>
<path d="M4.12472 12.1808C4.95731 12.1808 5.63226 11.502 5.63226 10.6646C5.63226 9.82725 4.95731 9.14844 4.12472 9.14844C3.29213 9.14844 2.61719 9.82725 2.61719 10.6646C2.61719 11.502 3.29213 12.1808 4.12472 12.1808Z" fill="#8C8D92"/>
</svg>
