<?xml version="1.0" encoding="utf-8"?>
<!-- Generator: Adobe Illustrator 25.3.1, SVG Export Plug-In . SVG Version: 6.00 Build 0)  -->
<svg version="1.1" id="Слой_1" xmlns="http://www.w3.org/2000/svg" xmlns:xlink="http://www.w3.org/1999/xlink" x="0px" y="0px"
	 viewBox="0 0 24.8 30.7" style="enable-background:new 0 0 24.8 30.7;" xml:space="preserve">
<style type="text/css">
	.st0{fill:#B46766;}
</style>
<path class="st0" d="M24.3,28.9c0-0.3,0.1-0.7,0.1-1c-0.1-0.3,0-0.9,0-1.2s0-0.7,0.1-1c0.1-0.8,0.2-1.7,0.2-2.5
	c0.1-1.7,0.1-3.4,0.1-5.1c-0.1-1.9-0.6-3.7-1.2-5.6c-0.5-1.5-1-3.1-1.6-4.6c-0.5-1.1-1-2.4-1.8-3.3c-1.9-2.1-1.4-1.6-2.3-2.4
	c-2.6-1.5-3.6-1-3.5,0.6c0,0.5-0.2,2.4-0.1,2.9C13.9,5,10.2,1.3,9.4,1.1c-0.8-0.5-2-0.5-2.6,0.5C6.7,1.8,6.7,4.5,6.7,4.8
	C6.5,4.6,4,0.8,3.5,0.5C2.8,0,1.6-0.6,0.7,1.3c-1.1,2-0.7,5.3,0.4,7.9c0.7,1.5,1.9,7.3,3.1,11.6c0.2,0.5,0.4,1,0.5,1.5
	c0,0.1,0.1,0.3,0.1,0.4C6.3,23.5,7.3,24,7.3,24l0.1-1.1C7.3,22.4,4.1,10.2,3,7.8C2.6,6.9,2.1,5.7,1.8,4.6C1.4,3,1.6,2.4,1.7,2.2
	c0-0.1,0.1-0.2,0.5-0.3c0.1,0,1.3,0.3,3.8,5.3c0.7,1.5,1.4,3,1.8,4.1s0.7,1.8,0.7,1.8l2.3-0.9c0-0.1-0.3-0.8-0.7-1.8
	C9.8,9.7,9.5,8.7,9.2,7.8c-1-3.3-0.9-4.6-0.8-5C8.6,2.9,9,3.1,9.7,3.9c0.8,0.9,1.4,1.9,1.8,2.5l0.1,0.1c1.4,2.2,2.6,4.5,3.7,6.8
	l2.3-0.9c-0.6-2-1.1-3.8-1.3-5.5c0-0.2-0.1-0.6-0.2-1c-0.1-0.7-0.3-1.5-0.3-2.2c0-0.3,0-0.6,0-0.8c0.3,0.2,0.7,0.6,1.3,1.1
	c0.8,0.8,1.5,1.6,1.6,1.7l0.1,0.1l0.1,0.1c2.8,2.7,3.5,8.5,3.8,10.7c0.3,2.1,0.1,4.3-0.1,6.5c0,0.3-0.1,0.6-0.1,0.9
	c0,0.5-0.1,0.9-0.2,1.4c-0.1,0.9-0.3,1.8-0.2,2.7c0,0.5,0.2,1.2,0.9,1.9c0.3,0.3,0.8,0.5,1.2,0.7C24.1,30,24.2,29.5,24.3,28.9z"/>
</svg>
