<?xml version="1.0" encoding="utf-8"?>
<!-- Generator: Adobe Illustrator 25.3.1, SVG Export Plug-In . SVG Version: 6.00 Build 0)  -->
<svg version="1.1" id="Слой_1" xmlns="http://www.w3.org/2000/svg" xmlns:xlink="http://www.w3.org/1999/xlink" x="0px" y="0px"
	 viewBox="0 0 25.7 31.1" style="enable-background:new 0 0 25.7 31.1;" xml:space="preserve">
<style type="text/css">
	.st0{fill:#B46766;}
</style>
<path class="st0" d="M24.7,28.2c-0.1,0-0.2-0.1-0.2-0.2c-0.3-0.2-0.1-1-0.1-1.4s0-0.7,0.1-1c0.1-0.8,0.2-1.7,0.2-2.5
	c0.1-1.7,0.1-3.4,0.1-5.1c-0.1-1.9-0.6-3.7-1.1-5.6c-0.5-1.6-1-3.1-1.6-4.6c-0.5-1.1-1-2.4-1.8-3.3c-1.9-2.1-1.4-1.6-2.3-2.4
	c-2.6-1.5-3.6-1-3.6,0.6c0,0.5-0.2,2.4-0.1,2.9C13.8,5,10.1,1.3,9.3,1.1C8.6,0.7,7.3,0.6,6.7,1.6C6.6,1.8,6.7,4.5,6.6,4.8
	c-0.2-0.2-2.7-4-3.2-4.3C2.7,0,1.6-0.6,0.7,1.3c-1.1,2-0.7,5.3,0.4,7.9c0.4,0.9,1,3.4,1.7,6.1l0-5.3l0,5.3c0.5,1.8,0.9,3.8,1.4,5.5
	c-0.4-0.2-0.9-0.5-1.4-0.8l0,1.5c2.5,1.5,4.5,2.5,4.5,2.5l0-1.1C7.1,22.3,4,10.1,2.9,7.7C2.5,6.8,2,5.6,1.7,4.5
	C1.3,2.9,1.5,2.3,1.6,2.1c0-0.1,0.1-0.2,0.5-0.3c0.1,0,1.3,0.3,3.8,5.3c0.7,1.5,1.4,3,1.8,4.1C8.1,12.3,8.4,13,8.4,13l2.3-0.9
	c0-0.1-0.3-0.8-0.7-1.9C9.8,9.5,9.5,8.6,9.2,7.7c-1-3.3-0.9-4.6-0.8-5C8.5,2.7,9,3,9.6,3.7c0.8,0.8,1.4,1.9,1.8,2.5l0.1,0.1
	c1.4,2.2,2.6,4.5,3.7,6.8l2.3-0.9c-0.6-2.1-1.1-3.8-1.3-5.5c0-0.2-0.1-0.6-0.2-1c-0.1-0.7-0.3-1.5-0.3-2.2c0-0.3,0-0.6,0-0.8
	C16,3,16.5,3.4,17,3.9c0.8,0.8,1.5,1.6,1.6,1.7l0.1,0.1l0.1,0.1c2.8,2.7,3.5,8.5,3.8,10.7c0.3,2.1,0.1,4.3-0.1,6.5
	c0,0.3,0,0.6-0.1,0.9c0,0.5-0.1,0.9-0.2,1.4C22,26.1,21.9,27,21.9,28c0,0.5,0.2,1.2,0.9,1.9c0.7,0.7,1.9,1,2.9,1.2l0-2.6
	C25.2,28.3,24.8,28.2,24.7,28.2z"/>
</svg>
