<svg width="27" height="31" viewBox="0 0 27 31" fill="none" xmlns="http://www.w3.org/2000/svg">
<path d="M16.9438 7.55012C16.9157 7.30282 16.859 6.99119 16.7877 6.59668C16.6684 5.93992 16.5204 5.12236 16.4651 4.36958C16.4406 4.03259 16.4397 3.77441 16.4501 3.5792C16.7546 3.81337 17.1734 4.17345 17.7112 4.70385C18.5207 5.50238 19.1678 6.25698 19.2767 6.40871L19.3389 6.49568L19.4151 6.57087C22.1995 9.30889 22.9133 15.0458 23.1819 17.2059C23.4401 19.2804 23.2477 21.5093 23.0621 23.6648C23.0358 23.9706 23.0095 24.2749 22.9845 24.578C22.9469 25.0359 22.8788 25.5074 22.8067 26.007C22.6873 26.8345 22.5639 27.6897 22.5702 28.5638C22.1686 28.0117 21.7897 27.3581 21.4426 26.5872C21.3577 26.8644 21.355 27.4618 21.4412 28.2409C22.5643 28.6802 23.6244 29.2632 24.7252 29.756C25.1704 29.9285 25.6246 30.0771 26.0707 30.247C26.1973 30.295 26.3234 30.3443 26.4501 30.3937V29.1948C25.9486 29.0548 25.4772 28.9103 25.4023 28.8786C25.312 28.8406 25.2199 28.7994 25.1495 28.7314C24.8918 28.4832 25.0501 27.6942 25.0638 27.3613C25.0769 27.027 25.0824 26.6887 25.1159 26.3553C25.199 25.53 25.2707 24.7039 25.3247 23.8764C25.434 22.1982 25.4735 20.5128 25.3878 18.8329C25.2888 16.8975 24.8096 15.1351 24.2388 13.293C23.7614 11.7534 23.2409 10.2238 22.6288 8.7323C22.1682 7.60991 21.6786 6.353 20.8586 5.43489C18.9981 3.35137 19.426 3.86863 18.5443 3.03431C15.975 1.57086 14.9681 2.00206 15.0048 3.66843C15.0148 4.12001 14.8542 6.06539 14.9141 6.52195C14.4834 5.84526 10.7847 2.12843 10.0586 1.94725C9.29672 1.47665 8.01661 1.40373 7.47207 2.40019C7.3736 2.58771 7.40809 5.31079 7.33594 5.61607C7.1694 5.37828 4.67179 1.66462 4.15948 1.31314C3.44069 0.820339 2.30579 0.255976 1.39142 2.08314C0.310516 4.10008 0.654481 7.36215 1.79982 9.919C2.46098 11.3947 3.73474 17.2353 4.85421 21.454C4.43401 21.2203 3.97388 20.9558 3.48607 20.6636L3.71795 22.349C6.09213 23.774 7.9254 24.6391 7.9254 24.6391L7.97803 23.5321C7.84553 23.0176 4.71626 10.9051 3.63264 8.4859C3.23104 7.58908 2.73098 6.41324 2.42876 5.27002C2.01763 3.71417 2.2114 3.10135 2.31395 2.91021C2.35706 2.82958 2.43738 2.67966 2.83807 2.60991C2.90795 2.62168 4.1681 2.91926 6.63575 7.92697C7.3618 9.40038 7.99528 10.8838 8.44271 11.9862C8.83432 13.0484 9.13472 13.7681 9.15605 13.8188L11.4808 12.9138C11.4585 12.8527 11.1967 12.1352 10.7656 11.0713C10.4906 10.3239 10.1716 9.40673 9.88073 8.45012C8.86881 5.12146 8.97363 3.86953 9.06393 3.48725C9.25951 3.55383 9.67971 3.7794 10.3531 4.53717C11.1087 5.38688 11.7934 6.47665 12.1614 7.06185L12.2381 7.18369C13.6008 9.34422 14.851 11.6266 15.955 13.9678L18.2761 13.0697C17.6449 11.0292 17.1457 9.32791 16.9438 7.55012Z" fill="#B46766"/>
</svg>
