<?xml version="1.0" encoding="utf-8"?>
<!-- Generator: Adobe Illustrator 25.3.1, SVG Export Plug-In . SVG Version: 6.00 Build 0)  -->
<svg version="1.1" id="Слой_1" xmlns="http://www.w3.org/2000/svg" xmlns:xlink="http://www.w3.org/1999/xlink" x="0px" y="0px"
	 viewBox="0 0 13.4 40.2" style="enable-background:new 0 0 13.4 40.2;" xml:space="preserve">
<style type="text/css">
	.st0{fill:#B46766;}
</style>
<path class="st0" d="M0.9,38.3c-0.1-1.6-0.3-3.1-0.5-4.7c0-0.2,0-0.4,0-0.4c-0.9-7.4-0.1-13.8,1.4-19.5C2.6,10.5,4.6,4.3,5.2,3
	s2.7-3,3.5-3s1.8-0.4,2.5,1.9c0.4,1.2,0.6,5.6,0.5,6.9c0,0,0,4.8-0.1,7.9c-0.2,5.4,0,11.4,0.9,16.8c0.3,2.2,0.6,4.4,0.9,6.7
	c-0.6-0.3-1.2-0.8-1.7-1.4c-1-1.3-1.3-2.8-1.6-4.1c-1-5.9-0.8-11.9-0.5-17.7c0.1-3,0.3-6.2,0.2-9.3c0-0.4,0-0.9,0-1.4
	c0-1.1,0.1-2.4-0.2-3.2c-0.2-0.6-0.5-1-0.7-1C8.4,2.1,7.3,3,6.8,4C5.4,7,4,11.5,3.2,14.5C1.8,19.9,1.6,26,2.5,33.1
	c0.1,1.1,0.3,2.6-0.4,3.8c-0.3,0.6-0.7,1-1.4,1.5C0.9,38.4,0.9,38.4,0.9,38.3z"/>
</svg>
