<?xml version="1.0" encoding="utf-8"?>
<!-- Generator: Adobe Illustrator 25.3.1, SVG Export Plug-In . SVG Version: 6.00 Build 0)  -->
<svg version="1.1" id="Слой_1" xmlns="http://www.w3.org/2000/svg" xmlns:xlink="http://www.w3.org/1999/xlink" x="0px" y="0px"
	 viewBox="0 0 19 40.5" style="enable-background:new 0 0 19 40.5;" xml:space="preserve">
<style type="text/css">
	.st0{fill:#B46766;}
</style>
<path class="st0" d="M18.1,37.3c-0.3-0.4-0.7-3-0.7-3.2c-1.6-10.5-0.9-17.6-0.8-19.7c0.1-3.1,0.6-6.9,0.3-10.1c-0.1-1-1-4.5-3.5-4.4
	c-1.1,0.3-1.7,0.8-2.7,2.6c-0.8,1.3-3.9,9.5-4.5,12.9C5.5,19.5,4.9,24,4.8,29.3c0,0.5,0.1,4.8,0.1,5.6c0.1,0.8,0,1.2,0,1.4
	c-0.5,0.1-1.3,0.1-1.8,0.1c-0.4,0-0.7,0-1,0c-0.2,0-0.4,0-0.6,0c-0.6,0-1.1,0-1.6,0L0,39c0.6,0,1.3,0,1.8-0.1c0.2,0,0.4,0,0.6,0
	c0.2,0,0.5,0,0.8,0c1.4,0,2.6,0,3.4-0.5c1.3-0.9,1-3.1,0.5-6.6c-0.1-0.8-0.2-1.7-0.2-2c0-4.8,0.6-8.8,1.3-13.4
	c0.6-3.2,1.6-6.6,2.7-10c0.2-0.5,0.7-1.8,1.3-2.9c0.9-1.4,1.4-1.7,1.5-1.7c0,0,0.1,0,0.2,0.2c0.3,0.4,1,1.9,1,2.5
	c0.2,3,0.1,6.1-0.1,9.1c-0.1,2.2-0.2,4.4-0.2,6.7c0,1.2,0,2.4,0,3.5c0,3.7,0,7.6,0.6,11.4c0,0.1,0.1,0.3,0.1,0.5
	c0.1,0.9,0.3,2,0.9,2.9c0.6,0.9,1.6,1.5,2.6,1.8l0-2.5C18.6,37.8,18.2,37.6,18.1,37.3z"/>
</svg>
