<svg width="20" height="42" viewBox="0 0 20 42" fill="none" xmlns="http://www.w3.org/2000/svg">
<path d="M5.86301 30.3381C5.89342 25.5433 6.42207 21.538 7.20621 16.9991C7.75573 13.8194 8.78854 10.464 9.88805 7.01988C10.0605 6.48043 10.5773 5.22398 11.2312 4.15141C12.0743 2.76768 12.6529 2.48595 12.7582 2.48595C12.7782 2.49048 12.8639 2.53487 12.9905 2.67483C13.3204 3.0399 13.9457 4.5654 13.9893 5.11074C14.2316 8.1323 14.0814 11.2137 13.9367 14.1935C13.8314 16.3586 13.7225 18.5975 13.7588 20.8391C13.7778 22.0185 13.7783 23.2093 13.7787 24.3607C13.7801 28.0617 13.7815 31.8886 14.4104 35.7399C14.4345 35.8871 14.4567 36.0434 14.4808 36.2087C14.5184 36.47 14.5588 36.75 14.6123 37.0376C14.2933 36.5575 13.9902 36.008 13.708 35.3816C13.4965 36.0696 13.7946 38.7347 14.694 41.2449C16.1624 41.2776 17.6304 41.3074 19.0993 41.3179L19.1383 38.6052C18.4754 38.5789 17.4489 38.3661 17.0718 37.8271C16.7918 37.4267 16.3734 34.8272 16.3458 34.6565C14.8029 24.2389 15.4709 17.1245 15.5743 14.9989C15.7232 11.9402 16.147 8.1699 15.892 4.9889C15.8117 3.98428 14.8483 0.550087 12.4433 0.640675C11.3065 0.885716 10.7638 1.44646 9.72058 3.22243C8.94871 4.53687 5.80447 12.7043 5.22817 16.0406C4.53161 20.0732 3.90041 24.5523 3.86683 29.81C3.86365 30.3341 3.92219 34.5668 3.99434 35.4342C4.05742 36.1906 4.04018 36.61 4.01477 36.8292C3.55191 36.9135 2.66478 36.9049 2.24594 36.9008C1.88927 36.8976 1.5521 36.8945 1.2753 36.9112C1.13553 36.9198 0.993952 36.9298 0.853734 36.9402L0.798828 40.7639C0.925886 40.7607 1.05295 40.763 1.17956 40.7684C1.45182 40.7603 1.72408 40.768 1.9968 40.7698C2.43969 40.773 2.88304 40.7635 3.32592 40.7526C4.02338 40.7354 4.72039 40.7096 5.41785 40.6919C5.66925 39.8522 5.819 39.0894 5.90068 38.5948C6.83955 37.5988 6.58588 35.5017 6.10805 32.3143C5.98644 31.5054 5.86075 30.6692 5.86301 30.3381Z" fill="#B46766"/>
</svg>
