<?xml version="1.0" encoding="utf-8"?>
<!-- Generator: Adobe Illustrator 25.3.1, SVG Export Plug-In . SVG Version: 6.00 Build 0)  -->
<svg version="1.1" id="Слой_1" xmlns="http://www.w3.org/2000/svg" xmlns:xlink="http://www.w3.org/1999/xlink" x="0px" y="0px"
	 viewBox="0 0 21 50.3" style="enable-background:new 0 0 21 50.3;" xml:space="preserve">
<style type="text/css">
	.st0{fill:#B46766;}
</style>
<path class="st0" d="M20.6,45.7c-0.8-0.6-1.6-1.4-1.9-2.6c-0.3-1.2-0.5-3.1-0.5-4.5c0-1.1-2.2-15.5-2.5-17
	c-0.6-3.8-0.7-7.9-2.1-12.9c-0.3-1.1-1.3-3-2-4.6c-1.1-2.7-1.7-3.6-3-4C8.3,0,7.5-0.3,6.5,0.8C6.1,1.3,5.1,2.4,4.9,3.6
	C4,8.2,4.4,23.1,4.2,25.7C4.1,26.9,3.6,40,3.7,41c0.2,2,0.1,5-0.8,6c-0.4,0.5-1.1,0.8-1.8,0.8c-0.3,0-0.8-0.1-1.2-0.2l0,2.5
	c0.3,0.1,0.7,0.2,1.1,0.2c1.4,0,2.9-0.6,3.8-1.7c1.5-1.9,1.2-4.8,1-7.4c-0.1-0.9-0.1-1.7-0.1-2.3c0-1.4,0.1-3.1,0.1-4.7
	c0-1.6,0.1-3.3,0.1-4.7c0-1,0.1-2,0.2-3.2c0.2-2.7,0.2-6.3,0.2-9.9C6.2,12.1,6.2,8.5,7,4.1c0.1-0.3,0.5-1,1.1-1.7
	c0,0,0.1-0.1,0.1-0.1C8.4,2.5,9.1,3,10,5.3c0.5,1.1,0.9,2.6,1.3,4c1.3,4.9,2.2,9.8,2.8,13.5c0.2,1.6,0.5,3.1,0.8,4.6
	c0.5,2.9,1,5.8,1.4,8.8c0.1,0.9,0.1,1.9,0.1,3c0,3,0,6.3,2.8,8.5c0.5,0.4,1.1,0.8,1.9,1.2l0-2.9C20.9,45.9,20.8,45.8,20.6,45.7z"/>
</svg>
