<svg width="21" height="51" viewBox="0 0 21 51" fill="none" xmlns="http://www.w3.org/2000/svg">
<path d="M17.7948 49.9308C18.0371 49.9317 18.2794 49.9412 18.5222 49.9526C19.1806 49.9784 19.8549 50.0332 20.5093 49.9684L20.5633 46.199C20.2434 46.0156 19.9126 45.7932 19.5872 45.5387C18.7813 44.9082 17.9831 44.1536 17.7208 42.9768C17.4617 41.8164 17.2234 39.8357 17.2216 38.4474C17.2203 37.3576 15.0135 23.0425 14.7712 21.5075C14.1813 17.7721 14.0411 13.6218 12.6861 8.61361C12.383 7.49348 11.3842 5.65092 10.7326 4.06926C9.6317 1.396 9.02863 0.447546 7.73763 0.128676C7.22803 0.00275833 6.47566 -0.269459 5.5141 0.762792C5.07122 1.23838 4.05656 2.39745 3.83512 3.57102C2.96341 8.18784 3.37408 23.0221 3.19983 25.6292C3.11996 26.8232 2.61536 39.862 2.70067 40.8027C2.88082 42.7898 2.7996 45.7334 1.93062 46.8005C1.51223 47.3137 0.813865 47.6308 0.151347 47.6059C0.147262 47.6059 0.142712 47.6054 0.138628 47.6054L0.0996094 50.3217C0.942279 50.3122 1.78313 50.2162 2.62671 50.2071C2.73062 50.2062 2.82956 50.2198 2.92304 50.2461C3.03195 50.2361 3.14084 50.2257 3.24975 50.2153C3.30647 50.1165 3.36092 50.0164 3.41039 49.9127C3.43217 49.867 3.45349 49.8207 3.47391 49.7745C3.45667 49.8153 3.43988 49.8561 3.42264 49.8968C3.47392 49.8167 3.50024 49.7012 3.53292 49.6115C3.59418 49.443 3.64998 49.2722 3.70262 49.101C3.76569 48.8968 3.82697 48.6934 3.88823 48.4905C3.82788 48.514 3.7666 48.5371 3.70353 48.5602C3.75934 48.4991 3.81381 48.4361 3.86645 48.3718C3.89912 48.3315 3.93087 48.2907 3.96173 48.25C4.11283 47.7599 4.27392 47.2752 4.48266 46.8001C4.54892 46.6488 4.66192 46.532 4.79805 46.4459C5.22007 44.7967 5.04263 42.84 4.88063 41.05C4.80213 40.1813 4.72773 39.361 4.74179 38.7251C4.7731 37.3413 4.80351 35.6473 4.83255 34.0086C4.86204 32.373 4.89199 30.6818 4.9233 29.3039C4.94599 28.3047 4.99228 27.3006 5.06987 26.1437C5.24866 23.4687 5.31129 19.8633 5.24095 16.252C5.15882 12.0247 5.16198 8.44194 5.99104 4.05069C6.04504 3.76579 6.4784 3.05467 7.08556 2.40334C7.1264 2.3594 7.15997 2.32906 7.18538 2.30822C7.38005 2.43324 8.02851 2.99262 8.95377 5.26185C9.41345 6.38876 9.88312 7.80964 10.2761 9.26312C11.6002 14.1567 12.4361 19.0013 13.016 22.6751C13.2606 24.2246 13.5274 25.7909 13.7852 27.3051C14.2721 30.165 14.7753 33.1218 15.1433 36.0437C15.2599 36.9699 15.2613 37.9714 15.2627 39.0322C15.2649 40.9196 15.2677 42.9682 15.996 44.7682C16.0981 46.108 16.5137 48.187 17.2825 50.0635C17.4399 49.9788 17.616 49.9299 17.7948 49.9308Z" fill="#B46766"/>
</svg>
