<?xml version="1.0" encoding="utf-8"?>
<!-- Generator: Adobe Illustrator 25.3.1, SVG Export Plug-In . SVG Version: 6.00 Build 0)  -->
<svg version="1.1" id="Слой_1" xmlns="http://www.w3.org/2000/svg" xmlns:xlink="http://www.w3.org/1999/xlink" x="0px" y="0px"
	 viewBox="0 0 15.7 49.1" style="enable-background:new 0 0 15.7 49.1;" xml:space="preserve">
<style type="text/css">
	.st0{fill:#B46766;}
</style>
<path class="st0" d="M15,42.4c-0.2-1.5-0.3-3-0.5-4.5c-0.2-2.2-0.5-4.3-0.9-6.5c-0.5-3.3-1-6.6-1.5-9.8c-0.6-3.7-0.7-7.9-2.1-12.9
	c-0.3-1.1-1.3-3-2-4.6c-1.1-2.7-1.7-3.6-3-4C4.5,0,3.7-0.3,2.8,0.7C2.4,1.2,1.3,2.3,1.1,3.5C0.2,8.1,0.6,23,0.5,25.6
	C0.4,26.8-0.1,39.9,0,40.8c0.1,0.8,0.1,1.6,0.1,2.5c0,1.9,0.2,3.9,0.3,5.8c0.3-0.2,0.6-0.5,0.8-0.8c1.5-1.9,1.2-4.8,1-7.3
	c-0.1-0.9-0.2-1.7-0.1-2.3c0-1.4,0.1-3.1,0.1-4.7s0.1-3.3,0.1-4.7c0-1,0.1-2,0.1-3.2c0.2-2.7,0.2-6.3,0.2-9.9C2.5,12,2.5,8.4,3.4,4
	c0.1-0.3,0.5-1,1.1-1.7l0.1-0.1c0.2,0.1,0.8,0.7,1.8,3c0.5,1.1,0.9,2.6,1.3,4C9,14.1,9.9,19,10.4,22.7c0.2,1.6,0.5,3.1,0.8,4.6
	c0.5,2.9,1,5.8,1.4,8.8c0.1,0.9,0.1,1.9,0.1,3c0,3,0,6.3,2.8,8.5c0.1,0.1,0.2,0.1,0.2,0.2c-0.1-0.1-0.1-0.8-0.1-1
	c-0.1-0.4-0.1-0.9-0.2-1.3c-0.1-0.8-0.2-1.7-0.3-2.5C15,42.8,15,42.6,15,42.4z"/>
</svg>
