<?xml version="1.0" encoding="utf-8"?>
<!-- Generator: Adobe Illustrator 25.3.1, SVG Export Plug-In . SVG Version: 6.00 Build 0)  -->
<svg version="1.1" id="Слой_1" xmlns="http://www.w3.org/2000/svg" xmlns:xlink="http://www.w3.org/1999/xlink" x="0px" y="0px"
	 viewBox="0 0 18 39.7" style="enable-background:new 0 0 18 39.7;" xml:space="preserve">
<style type="text/css">
	.st0{fill:#B46766;}
</style>
<path class="st0" d="M17.1,35.8c-0.4-0.4-0.8-1-1-1.8c0-3.6-0.6-7.3-1.2-10.7c-0.3-1.9-0.9-4.3-1.1-6.2c-0.3-2.7,0.1-12.1,0-14.3
	c-0.1-1.3,0-2.1-1.1-2.5c-1.2-0.4-2.3-0.1-3.3,1.1C5.7,5.6,3.7,9.9,3,16.8C2.5,21.3,3.3,33,3.3,33.4c0.1,0.8-0.3,2.2-0.4,3
	c-0.1,0.7-0.3,0.8-0.4,0.8C2,37.3,1,36.9,0,36.2l0,2.9c0.7,0.3,1.5,0.6,2.3,0.6c0.3,0,0.6,0,0.9-0.1c0.7-0.2,2-0.8,2.3-2.9
	c0.1-1.1,0-2.2-0.2-3.2c0-0.3-0.1-0.7-0.1-0.9c0-0.5-0.1-1-0.1-1.4C4.7,26.6,4.4,22,4.8,17.7c0.3-3.1,0.9-5.7,1.8-8
	c1-2.6,2.3-4.9,4.1-7c0.5-0.5,1-0.6,1.2-0.6c0,0,0.1,0.1,0.1,0.4c0.1,2.1,0,4.4-0.1,6.5c-0.1,2.9-0.3,5.8,0,8.8c0.2,2,0.6,4,1,6
	c0.6,3.3,1.2,6.7,1.2,10.1V34l0,0.1c0.1,1,0.3,2.3,1.2,3.3c0.5,0.6,1.2,1.1,2,1.3c0.3,0.1,0.5,0.1,0.8,0.2l0-2.5
	C17.7,36.2,17.3,36.1,17.1,35.8z"/>
</svg>
