<svg width="20" height="41" viewBox="0 0 20 41" fill="none" xmlns="http://www.w3.org/2000/svg">
<path d="M11.7458 2.84067C11.7648 2.8597 11.822 2.97021 11.8347 3.21707C11.9422 5.34045 11.8252 7.56302 11.7117 9.71222C11.5611 12.5707 11.4054 15.5271 11.7507 18.4295C11.9899 20.4401 12.3534 22.4575 12.7046 24.4083C13.2986 27.7071 13.9126 31.1177 13.9126 34.4817V34.5632L13.9234 34.6443C13.9693 34.9904 14.021 35.3826 14.1077 35.7912C14.2556 37.034 14.6196 38.7022 15.2235 40.2662C15.9827 40.259 16.7419 40.2508 17.5015 40.2449C18.0574 40.2408 18.6137 40.2377 19.1696 40.2404L19.2163 36.9774C19.1601 36.9887 19.1065 36.9978 19.0562 37.0041C18.2058 37.1101 17.4021 36.8701 17.0101 36.3931C16.6475 35.9524 16.1683 35.4261 16.053 34.5655C16.0435 31.0081 15.4364 27.256 14.8278 23.8761C14.483 21.9611 13.9239 19.6076 13.6934 17.6708C13.373 14.9804 13.7619 5.65479 13.648 3.40322C13.5827 2.10827 13.6249 1.27531 12.5589 0.912052C11.3097 0.486289 10.2691 0.853623 9.24633 2.0444C5.60111 6.28936 3.62943 10.5841 2.8934 17.4444C2.4074 21.9742 3.20515 33.5935 3.25642 33.9767C3.36215 34.7657 2.93923 36.1984 2.84984 36.9344C2.76271 37.6505 2.54626 37.708 2.41693 37.742C2.01669 37.848 1.32196 37.6342 0.562786 37.1989L0.508789 40.9601C1.51164 40.9533 2.51087 40.8668 3.51054 40.793C3.61582 40.5556 3.74287 40.3273 3.89307 40.1081C4.23522 39.6076 4.635 39.1225 5.07835 38.6823C5.00529 38.7094 4.93088 38.7362 4.85465 38.7624C5.07791 38.3679 5.25034 37.8688 5.32748 37.2351C5.4559 36.1834 5.3007 35.0261 5.17591 34.0967C5.12962 33.752 5.08607 33.4268 5.06838 33.1849C5.03434 32.7112 4.99848 32.2333 4.96309 31.7527C4.62956 27.2673 4.28515 22.6296 4.7471 18.324C5.07291 15.2897 5.64876 12.6867 6.50822 10.3658C7.48022 7.74103 8.81298 5.46319 10.5827 3.40232C11.0388 2.87147 11.6346 2.77771 11.7458 2.84067Z" fill="#B46766"/>
</svg>
