<?xml version="1.0" encoding="utf-8"?>
<!-- Generator: Adobe Illustrator 25.3.1, SVG Export Plug-In . SVG Version: 6.00 Build 0)  -->
<svg version="1.1" id="Слой_1" xmlns="http://www.w3.org/2000/svg" xmlns:xlink="http://www.w3.org/1999/xlink" x="0px" y="0px"
	 viewBox="0 0 19 39" style="enable-background:new 0 0 19 39;" xml:space="preserve">
<style type="text/css">
	.st0{fill:#B46766;}
</style>
<path class="st0" d="M17.6,33.2c-1.5-3.2-1.2-6.4-2-11c-0.1-1.1-0.8-4.5-0.9-5.6c-0.3-3.9,0.1-9.8,0.1-10.1c0.2-2.2,1-4.7-0.8-6.1
	c-0.6-0.4-1.3-0.7-2.8-0.2c-0.8,0.3-2.1,2-2.1,2C7.7,3.7,4.9,10.7,4.5,13c-0.7,4.3-0.6,15.6-0.4,17.7c0,0.2,0.1,3.1,0.1,3.8
	c0,0.8-0.6,1-0.6,1.1c-0.1,0.1-1.7,0.8-2.5,0.9c-0.4,0-0.8,0-1.2-0.1L0,39c0.5,0.1,1,0.1,1.5,0c1.2-0.2,2.1-0.6,3-1
	c0.1-0.1,0.2-0.1,0.4-0.2c1-0.5,1.5-1.5,1.5-2.9c0-1-0.1-2-0.2-2.8C6,31.8,6,31.6,6,31.4c-0.2-2-0.3-4-0.4-6
	c-0.1-3.6,0-7.8,0.7-11.9c0.4-2.2,0.9-4.1,1.6-5.7c0.8-1.8,1.7-3.3,2.8-4.5c0.1-0.1,0.2-0.2,0.2-0.3c0.2-0.3,0.8-0.9,1-1
	C12.3,2,12.5,2,12.6,2.1c0,0,0.4,0.3,0.5,1.7c0.1,1,0,2.2-0.1,3.1c0,0.4-0.1,0.8-0.1,1c-0.1,3.3,0,7,0.4,11c0.1,1.1,0.1,2.1,0.2,3.3
	c0.2,4,0.4,8.2,2.2,11.9c0.5,1,1.3,2.5,2.8,3.3c0.2,0.1,0.4,0.2,0.6,0.3l0-2.8C18.5,34.5,17.9,34.1,17.6,33.2z"/>
</svg>
