<?xml version="1.0" encoding="utf-8"?>
<!-- Generator: Adobe Illustrator 25.3.1, SVG Export Plug-In . SVG Version: 6.00 Build 0)  -->
<svg version="1.1" id="Слой_1" xmlns="http://www.w3.org/2000/svg" xmlns:xlink="http://www.w3.org/1999/xlink" x="0px" y="0px"
	 viewBox="0 0 13.9 38.5" style="enable-background:new 0 0 13.9 38.5;" xml:space="preserve">
<style type="text/css">
	.st0{fill:#B46766;}
</style>
<path class="st0" d="M0.3,32.6c0-0.6,0.1-1.4,0.1-2.3c0.1-4.6-0.4-8.5-0.1-11.6C1.1,8.1,3.7,5,4.7,3.2C6.3,0.3,8.1,0,8.2,0
	C9,0,10.3-0.3,11,1.7c0.4,1.2,0.2,4,0.2,4c-1.4,9.9,1.7,22.4,1.8,23.4c0.3,1.9,0.4,4.1,0.7,5.8c0,1.2,0.1,2.4,0.2,3.6
	c-0.3-0.1-0.6-0.2-0.9-0.5c-0.8-0.7-1-1.7-1.2-2.3c-0.4-1.9-0.7-4-1-6c-0.1-0.9-0.3-1.8-0.4-2.7c-0.7-4.1-1.1-7.5-1.3-10.7
	c-0.3-3.9-0.2-7.4,0-10.9V5.3C9.2,4.4,9.3,3.4,9,2.7C8.8,2.2,8.7,2,8.6,1.9C8.4,2,7.6,2.6,6.2,5C5.1,7,4.3,9.1,4.3,9.1
	C3.2,12,2.4,15.5,2,18.9c-0.3,3-0.1,6,0,9c0,0.3,0,0.6,0,0.9c0,0.3,0.1,0.8,0.2,1.5c0.2,1.2,0.3,2.7,0.3,4c0,1.9-0.5,3.2-1.5,3.8
	c-0.3,0.2-0.7,0.3-1,0.4C0.2,36.5,0.3,34.6,0.3,32.6z"/>
</svg>
