<svg width="19" height="41" viewBox="0 0 19 41" fill="none" xmlns="http://www.w3.org/2000/svg">
<path d="M14.6478 34.8292C13.9743 34.1344 13.344 33.2067 12.7936 31.9843C12.5345 32.8285 13.0414 36.6477 14.4848 39.5058C15.9002 39.4143 17.3087 39.2304 18.7213 39.104L18.7685 35.8057C18.6687 35.7627 18.5748 35.7169 18.4904 35.6698C17.8519 35.3138 16.9747 34.9034 16.4293 33.7498C14.901 30.5185 15.2041 27.4086 14.3873 22.834C14.3292 21.7342 13.6172 18.353 13.5251 17.2628C13.1997 13.406 13.585 7.53455 13.6159 7.16223C13.7983 4.95415 14.5729 2.4503 12.799 1.09283C12.2454 0.669335 11.5099 0.381266 10.031 0.911658C9.23369 1.19746 7.96265 2.8824 7.89822 2.94989C6.55866 4.35038 3.80285 11.2659 3.40579 13.594C2.68337 17.8321 2.8245 29.1706 3.04276 31.2133C3.06727 31.4407 3.12944 34.2992 3.13352 34.9727C3.13806 35.7151 2.56857 36.0163 2.53771 36.063C2.4279 36.1173 1.05067 36.8081 0.216163 36.977L0.169434 40.2214C0.879146 40.1508 1.59202 40.201 2.30581 40.144C3.14758 40.0765 3.98573 39.9587 4.83203 39.9664C4.97406 39.9678 5.10882 39.9968 5.2327 40.047C5.66515 38.5972 5.79494 37.3801 5.79494 37.3801C5.79494 37.3801 4.7998 38.0369 3.3654 38.435C3.46251 38.3866 3.56144 38.3367 3.66445 38.286C4.62193 37.8127 5.13559 36.8262 5.19186 35.3537C5.22817 34.3957 5.07026 33.3539 4.955 32.593C4.91371 32.3217 4.87831 32.088 4.8597 31.9145C4.6496 29.9483 4.52936 27.9467 4.50213 25.966C4.45312 22.391 4.49578 18.1913 5.18462 14.1506C5.55082 12.0028 6.07537 10.0887 6.74334 8.46217C7.48844 6.64769 8.43594 5.13215 9.5595 3.95723C9.63211 3.88113 9.71197 3.79553 9.79683 3.70358C10.0364 3.44541 10.5973 2.83982 10.8383 2.74108C11.1872 2.61607 11.4146 2.61154 11.4785 2.66091C11.5153 2.68899 11.8379 2.97344 11.9269 4.33362C11.9931 5.35047 11.8965 6.52404 11.8257 7.38146C11.7916 7.79091 11.7626 8.14421 11.7554 8.4205C11.666 11.7469 11.7894 15.4356 12.1225 19.3835C12.2109 20.4347 12.2672 21.5023 12.3267 22.6329C12.5395 26.6713 12.7596 30.8474 14.4976 34.5216C14.5447 34.6204 14.5947 34.7232 14.6478 34.8292Z" fill="#B46766"/>
</svg>
