<svg width="27" height="37" viewBox="0 0 27 37" fill="none" xmlns="http://www.w3.org/2000/svg">
<path d="M24.0931 23.5195C24.0822 23.5485 24.0596 23.6069 24.0269 23.6907C23.8072 24.2569 23.1384 25.9798 22.5925 27.6204C22.2889 28.5326 22.0656 29.2935 21.9277 29.8837C21.1671 29.1676 20.4547 28.1716 19.8421 26.8105C19.5857 27.6457 20.0795 31.3925 21.4875 34.2406C22.5158 33.9928 23.5958 33.9779 24.6436 33.8723C24.7189 33.8646 24.7938 33.8565 24.8686 33.8479C24.9331 33.8402 24.9626 33.8383 24.9608 33.8392C25.1051 33.8216 25.2503 33.7935 25.3928 33.7709C25.626 33.7337 25.8592 33.6943 26.092 33.6554L26.1469 29.8181C25.5089 29.9068 24.8931 29.9933 24.4543 30.0613C23.4324 28.9384 25.4291 23.9561 25.4291 23.9561C25.4291 23.9561 26.8857 18.3967 26.9719 15.2144C27.0559 12.1208 26.5063 9.20611 25.7467 6.24614C25.5321 5.41002 24.703 4.20791 24.1131 3.98144C23.5232 3.75497 22.6442 3.92392 22.0257 4.47968C21.8692 4.62054 21.0651 5.67997 20.9366 5.88379C20.8695 5.33166 20.4565 2.69328 20.256 2.16968C19.8253 1.04549 19.3053 0.992945 18.6224 0.810863C17.9394 0.628781 16.6711 0.720275 15.8997 1.21851C15.1283 1.71674 14.9227 3.01125 14.6745 3.5285C14.4685 3.24723 14.2661 2.62262 13.3131 2.26027C12.3602 1.89792 11.498 2.16968 9.77367 3.70968C7.79655 6.06769 6.35353 9.07611 5.32663 10.8661C1.83253 17.0714 2.30128 22.8111 2.37707 25.3602C2.3993 26.1044 2.80861 30.2909 2.87622 31.1578C2.957 32.1987 2.50639 32.7671 2.42244 32.879C2.1706 33.2142 1.36559 33.0629 0.768875 32.8061L0.72168 36.1003C0.759797 36.0958 0.797915 36.0935 0.836033 36.0935C2.11115 36.0913 3.38037 35.9925 4.64687 35.8616C5.30848 34.0712 5.49272 32.3423 5.49272 32.3423C5.49272 32.3423 5.22091 32.5216 4.75715 32.7495C5.0993 31.2512 4.68499 29.376 4.30744 27.6729C4.11595 26.8083 3.93489 25.9912 3.91991 25.4821C3.85049 23.1426 4.07148 19.294 4.61829 16.7688C5.61887 12.1498 7.72531 8.96695 11.0261 5.03045C11.7381 4.18119 12.3375 3.81431 12.6062 3.86413C12.8276 4.1907 13.0413 5.23518 13.1144 5.59029C13.1407 5.71983 13.1652 5.8394 13.1884 5.94403C13.3272 6.57362 13.2732 7.31644 13.221 8.03435L15.6778 8.4198C15.7976 7.92972 15.8938 7.37396 15.9954 6.78559C16.2341 5.40503 16.5604 3.51854 17.2792 2.78161C17.467 2.65886 17.9948 2.53883 18.2276 2.56419C18.5207 2.7268 18.8869 3.02846 18.9913 3.1743C19.392 4.26091 19.2808 5.69854 19.1728 7.08952C19.127 7.68106 19.0798 8.29298 19.0712 8.8818C19.0634 9.44073 18.9813 10.0658 18.8946 10.7275C18.7503 11.8304 18.6006 12.9709 18.7608 14.0544L19.6978 20.3969L21.2085 14.1658C21.9395 11.1501 22.6002 8.7278 23.2872 6.54282L23.2917 6.52832C23.491 5.89421 23.6298 5.5459 23.7215 5.35476C23.8277 5.44806 23.9715 5.60116 24.1349 5.83623C24.4058 6.22667 24.5678 6.61031 24.6059 6.76023C25.3079 9.49644 25.6246 12.335 25.547 15.1976C25.4676 18.1231 24.9789 20.9232 24.0931 23.5195Z" fill="#B46766"/>
</svg>
