<?xml version="1.0" encoding="utf-8"?>
<!-- Generator: Adobe Illustrator 25.3.1, SVG Export Plug-In . SVG Version: 6.00 Build 0)  -->
<svg version="1.1" id="Слой_1" xmlns="http://www.w3.org/2000/svg" xmlns:xlink="http://www.w3.org/1999/xlink" x="0px" y="0px"
	 viewBox="0 0 27.2 34.8" style="enable-background:new 0 0 27.2 34.8;" xml:space="preserve">
<style type="text/css">
	.st0{fill:#B46766;}
</style>
<path class="st0" d="M24.6,29.4c-1-1.1,1-6.1,1-6.1s1.5-5.6,1.5-8.8c0.1-3.1-0.5-6-1.2-9c-0.2-0.8-1.1-2-1.6-2.3
	c-0.6-0.2-1.5-0.1-2.1,0.5c-0.2,0.1-1,1.2-1.1,1.4c-0.1-0.6-0.5-3.2-0.7-3.7c-0.4-1.1-1-1.2-1.6-1.4c-0.7-0.2-2-0.1-2.7,0.4
	c-0.8,0.5-1,1.8-1.2,2.3c-0.2-0.3-0.4-0.9-1.4-1.3S11.7,1.5,9.9,3c-2,2.4-3.4,5.4-4.5,7.2c-3.5,6.2-3,12-3,14.6
	c0,0.8,0.4,4.9,0.5,5.8c0.1,1-0.4,1.6-0.5,1.7c-0.3,0.4-1.3,0.1-1.9-0.2C0.4,32,0.2,31.9,0,31.7l0,2.8c0.5,0.2,1,0.3,1.5,0.3
	c1.1,0,2.1-0.4,2.8-1.3c1.2-1.6,0.6-4.1,0.1-6.4c-0.2-0.9-0.4-1.7-0.4-2.2c-0.1-2.4,0.1-6.2,0.7-8.8c1-4.6,3.1-7.8,6.4-11.8
	c0.7-0.8,1.3-1.2,1.6-1.2c0.2,0.3,0.4,1.4,0.5,1.7c0,0.1,0.1,0.3,0.1,0.4c0.1,0.6,0.1,1.4,0,2.1l2.5,0.4c0.1-0.5,0.2-1.1,0.3-1.6
	c0.2-1.4,0.6-3.3,1.3-4c0.2-0.1,0.7-0.2,1-0.2C18.7,2,19,2.3,19.2,2.5c0.4,1.1,0.3,2.5,0.2,3.9c0,0.6-0.1,1.2-0.1,1.8
	c0,0.6-0.1,1.2-0.2,1.8c-0.1,1.1-0.3,2.2-0.1,3.3l0.9,6.4l1.5-6.3c0.7-3,1.4-5.5,2.1-7.6v0c0.2-0.6,0.3-1,0.4-1.2
	c0.1,0.1,0.2,0.2,0.4,0.5c0.3,0.4,0.4,0.8,0.5,0.9c0.7,2.8,1,5.6,0.9,8.5c-0.1,2.9-0.6,5.8-1.5,8.4c0,0,0,0.1-0.1,0.2
	c-0.2,0.6-0.9,2.3-1.4,3.9c-0.3,1-0.5,1.7-0.7,2.3c-0.2,1-0.3,1.7,0.2,2.3c0.3,0.4,0.8,0.6,1.3,0.5c0,0,1.1-0.2,2.4-0.4l0-2.5
	C25.5,29.3,25,29.4,24.6,29.4z"/>
</svg>
