<?xml version="1.0" encoding="utf-8"?>
<!-- Generator: Adobe Illustrator 25.3.1, SVG Export Plug-In . SVG Version: 6.00 Build 0)  -->
<svg version="1.1" id="Слой_1" xmlns="http://www.w3.org/2000/svg" xmlns:xlink="http://www.w3.org/1999/xlink" x="0px" y="0px"
	 viewBox="0 0 25.6 34.9" style="enable-background:new 0 0 25.6 34.9;" xml:space="preserve">
<style type="text/css">
	.st0{fill:#B46766;}
</style>
<path class="st0" d="M0.8,31.5c0-0.3-0.1-0.7-0.2-1.1v-0.1c-0.7-3.4-0.7-6.6-0.4-9.6c0.3-3.5,1.4-6.4,3-9.1c1.8-3.4,6.2-9,6.9-9.4
	c0.7-0.4,1.4-0.5,2-0.2C13,2.6,13,3.8,13.3,4.2c0.4-0.8,0.5-3,1-3.5c0.9-0.8,1.7-0.8,2.8-0.4c1.3,0.5,1.8,2.5,2.3,4.7
	c0.5-1,1.6-2.6,3.7-1.6c0.7,0.5,1.1,1.1,1.6,2.6c0.4,1.1,0.4,2.2,0.7,3.7c0.1,0.5,0.4,3.2,0,5.9c-0.5,2.8-2.1,11.8-2.6,14.9
	c0,0.1,0,0.2,0,0.3c0,0,0,0.4,0,0.3c0,0.1,0,0.2,0,0.3c0,0.3-0.1,0.5-0.2,0.8c-0.1,0.5-0.2,1-0.4,1.4c-1.4-0.8-2.1-2.2-1.8-3.7
	c0-0.1,2.4-12.5,3.1-14.6c0.2-0.5,0.1-2.8-0.4-5.7C22.9,8.2,22.6,7,22.3,6c-0.1-0.4-0.3-0.7-0.4-1c-0.3,0.7-0.9,2.1-1.5,4.9
	c-0.2,0.8-0.4,1.6-0.5,2.3c-0.1,1.1-0.3,2.1-0.6,2.9l-2.4-0.6c0-0.1,0.2-1.2,0.5-2.7c0.2-1.4,0.3-3.1,0.2-4.8
	c-0.2-3.5-1-4.7-1.4-4.9c-0.1,0-0.8,0.6-1.5,2.6c-0.3,1-0.6,2-0.7,2.7c0,0.7-0.1,1-0.2,1.2c-0.3,0.6-1,0.9-1.7,0.6
	c-0.2-0.1-0.8-0.5-0.7-1.4c0-0.1,0-0.3,0.1-0.4c0-0.1,0-0.2,0-0.3c0-0.4,0-0.9-0.1-1.6c-0.2-1.1-0.4-1.6-0.6-1.8
	c-0.2,0.1-0.7,0.5-1.6,1.8c-1,1.4-2.3,3.6-4.1,6.9c-1.3,2.4-2.1,5.2-2.4,8.4c-0.2,2.8,0,5.8,0.6,9v0.1c0.2,0.9,0.4,1.9,0,3
	c-0.3,0.8-0.9,1.5-1.7,2C1.2,33.8,1,32.6,0.8,31.5z"/>
</svg>
