<svg width="23" height="30" viewBox="0 0 23 30" fill="none" xmlns="http://www.w3.org/2000/svg">
<path d="M19.9525 22.7412L19.948 22.9672C18.5517 22.3616 17.1872 21.0984 16.1231 18.7341C15.8558 19.6037 16.4026 23.6312 17.9482 26.5124C19.5991 26.0214 21.244 25.5037 22.9039 25.0431L22.9602 21.1324C22.4524 21.2515 21.927 21.3711 21.6193 21.4508C21.7314 19.4701 22.3299 17.0912 22.5722 15.1549C22.9992 11.7452 23.2075 4.10318 22.2092 2.78965C21.671 1.82852 20.3033 2.15554 19.4865 3.06142C19.0255 3.62125 17.8075 6.59435 17.4445 7.99847C17.4899 4.78259 16.4462 2.65377 14.9033 2.56318C13.8142 2.33671 13.1667 4.21732 13.1336 4.28436C12.5083 7.90878 11.6393 9.96151 11.3638 9.9914C10.9554 8.45141 11.2608 0.846995 10.8647 0.796718C10.7417 0.781318 10.5016 0.434366 8.59577 1.20436C6.68988 1.97436 5.02632 5.3995 4.19409 8.31552C2.67891 13.6253 2.18111 19.7314 2.5151 25.482C1.95604 25.568 1.03077 25.6948 0.148167 25.8176L0.0932617 29.6445C0.967698 29.4819 1.84939 29.3668 2.72428 29.2087C3.12906 29.1354 3.53202 29.0566 3.93498 28.9796C4.07792 28.518 4.19001 28.0759 4.27713 27.6846L4.48995 27.652L4.4405 26.8575C4.51401 26.4304 4.54169 26.1677 4.54169 26.1677C4.54169 26.1677 4.49313 26.1994 4.40283 26.2533C4.04571 20.4543 3.84195 14.3795 5.32672 9.17702C6.02419 6.7325 7.38235 3.53202 9.89766 2.1184C9.92035 2.1107 9.94758 2.10209 9.97798 2.09303C9.97526 2.19676 9.96981 2.31678 9.96028 2.45493C9.8904 3.47722 9.64037 4.51173 9.37581 5.60694C8.97376 7.27059 8.55811 8.99131 8.76004 10.8081C8.88211 11.9069 9.45023 12.3567 9.90537 12.5406C10.631 12.8336 11.4446 12.5958 12.0822 11.9042C13.3128 10.5694 13.6817 8.9134 14.0384 7.31226C14.2553 6.33799 14.4604 5.41761 14.8484 4.6372C14.8879 4.55748 14.9274 4.47414 14.9655 4.39261C15.132 4.7305 15.3358 5.26588 15.5386 6.10336C15.8318 7.31407 15.9833 8.60812 16.0264 9.182L16.7321 18.5773L18.4968 9.3215C18.8471 7.48347 19.6612 5.74826 20.851 4.30248C20.9295 4.20691 20.989 4.14168 21.0334 4.09684C21.0353 4.10001 21.0371 4.10273 21.0389 4.1059C21.1592 4.32105 21.1945 4.68385 21.2227 5.06749C21.4695 8.45005 21.062 11.6999 20.6314 15.1409C20.3215 17.6094 20.002 20.1608 19.9525 22.7412Z" fill="#B46766"/>
</svg>
