<?xml version="1.0" encoding="utf-8"?>
<!-- Generator: Adobe Illustrator 25.3.1, SVG Export Plug-In . SVG Version: 6.00 Build 0)  -->
<svg version="1.1" id="Слой_1" xmlns="http://www.w3.org/2000/svg" xmlns:xlink="http://www.w3.org/1999/xlink" x="0px" y="0px"
	 viewBox="0 0 23.1 27.8" style="enable-background:new 0 0 23.1 27.8;" xml:space="preserve">
<style type="text/css">
	.st0{fill:#B46766;}
</style>
<path class="st0" d="M21.8,20.8c0.1-2,0.7-4.4,1-6.3c0.4-3.4,0.6-11.1-0.4-12.4c-0.5-1-1.9-0.6-2.7,0.3c-0.5,0.6-1.7,3.5-2,5
	c0-3.2-1-5.4-2.6-5.5c-1.1-0.2-1.7,1.7-1.8,1.7c-0.6,3.6-1.5,5.7-1.8,5.7c-0.4-1.6-0.1-9.2-0.5-9.2c-0.1,0-0.4-0.4-2.3,0.4
	C6.9,1.3,5.2,4.7,4.4,7.6c-1.5,5.3-2,11.5-1.7,17.2C2.1,25,1,25.1,0,25.3l0,2.5c1.7-0.3,3.6-0.5,3.6-0.5l1.1-0.2l-0.1-1.1
	C4.2,20,4,13.8,5.5,8.5c0.7-2.4,2.1-5.7,4.6-7.1c0,0,0.1,0,0.1,0c0,0.1,0,0.2,0,0.4c-0.1,1-0.3,2.1-0.6,3.2C9.2,6.6,8.8,8.3,9,10.1
	c0.1,1.1,0.7,1.6,1.1,1.7c0.7,0.3,1.5,0.1,2.2-0.6c1.2-1.3,1.6-3,2-4.6c0.2-1,0.4-1.9,0.8-2.7c0-0.1,0.1-0.2,0.1-0.2
	c0.2,0.3,0.4,0.9,0.6,1.7c0.3,1.2,0.4,2.5,0.5,3.1l0.7,9.4l1.8-9.3c0.4-1.8,1.2-3.6,2.4-5c0.1-0.1,0.1-0.2,0.2-0.2c0,0,0,0,0,0
	c0.1,0.2,0.2,0.6,0.2,1c0.2,3.4-0.2,6.7-0.6,10.1c-0.3,2.5-0.6,5-0.7,7.6l0,1.2l1.2,0.1c0.1,0,0.2,0,0.3,0c0.4,0,0.9-0.1,1.3-0.2
	l0-2.7C22.5,20.7,22.1,20.8,21.8,20.8z"/>
</svg>
