<?xml version="1.0" encoding="utf-8"?>
<!-- Generator: Adobe Illustrator 25.3.1, SVG Export Plug-In . SVG Version: 6.00 Build 0)  -->
<svg version="1.1" id="Слой_1" xmlns="http://www.w3.org/2000/svg" xmlns:xlink="http://www.w3.org/1999/xlink" x="0px" y="0px"
	 viewBox="0 0 21.8 30.3" style="enable-background:new 0 0 21.8 30.3;" xml:space="preserve">
<style type="text/css">
	.st0{fill:#B46766;}
</style>
<path class="st0" d="M0.1,25.4c0-1.2,0.2-3.5,0.2-3.9C1.5,7,2.7,3.3,6.2,1.1C7.1,0.5,8-0.6,9,0.3c1,0.4,0.7,6.5,0.7,6.6
	c0.3-0.4,1.5-4.4,2.6-5c0.5-0.3,1-0.3,1.5-0.2c0.9,0.3,1.5,2.1,2,3.5c0.3-0.6,0.9-1.9,1.2-2.3c0.8-1,2.4-1.7,3.8-0.2
	c1.1,1.1,1.1,2.8,0.9,6.8c-0.1,2-0.2,4.1-0.4,6.1c-0.2,2.1-0.8,4.1-0.9,6.2c0,0.5-0.5,6.4-0.7,6.4c-0.7-0.1-1.5-0.3-2-1
	C16.8,26,17.5,24,18,22.9v-0.1c0-1.4,0.1-2.8,0.1-2.8v-0.1v-0.1c0.9-3,1.5-6.8,1.7-10.1C20,6,19.5,4.4,19.2,4
	c-0.4,0.2-1,0.8-1.7,2.6c-0.6,1.6-1,3.2-1,3.3c-0.1,0.6-0.7,1.1-1.3,1c-0.4,0-1.1-0.3-1.2-1.2c0,0,0-0.1,0-0.2
	c-0.2-2.9-0.6-4.2-0.9-4.8c-0.3,0.5-0.8,1.4-1.4,3.4c-0.6,1.8-0.9,3.5-1,3.5L9.9,15L7.2,9.6l0.1-0.4c0.3-1.6,0.7-2.9,1-3.9
	c0.3-1.1,0.6-2,0.5-2.5c0-0.1,0-0.3-1-0.7C7.7,2.1,7.5,2,7.2,2.2C6.8,2.5,5.4,3.7,4.1,8.3C3,12.1,2.4,17.2,2.2,22.9V23
	c0.2,1,0.6,4-0.8,6.1C1.1,29.6,0.6,30,0,30.3C0.1,28.5,0.1,26.9,0.1,25.4z"/>
</svg>
