<?xml version="1.0" encoding="utf-8"?>
<!-- Generator: Adobe Illustrator 25.3.1, SVG Export Plug-In . SVG Version: 6.00 Build 0)  -->
<svg version="1.1" id="Слой_1" xmlns="http://www.w3.org/2000/svg" xmlns:xlink="http://www.w3.org/1999/xlink" x="0px" y="0px"
	 viewBox="0 0 24 26.9" style="enable-background:new 0 0 24 26.9;" xml:space="preserve">
<style type="text/css">
	.st0{fill:#B46766;}
</style>
<path class="st0" d="M22.4,16.1c0.1-0.6,0.7-3,0.9-3.7c0.1-0.4,1.2-6.6,0.5-9.3c-0.4-0.5-1.1-1.3-2.3-0.5c-0.5,0.3-2.1,2.7-2.2,2.8
	c0-0.3,0.6-3.8,0.5-4.1c-0.3-0.7-0.7-1-1.4-1.2c-1.2-0.2-1.5,0.1-2.7,1.1c-1.7,1.5-3,3.8-3.9,5.4c0.2-1.5,1.3-5.8,0.2-6.5
	c-1.1-0.7-4.4,2.1-6.1,4.1c-1.6,2.5-2.4,4.9-3.2,9.2c-0.3,1.5-0.4,7.2-0.3,7.9c0.1,0.9-0.4,1.7-0.4,2.4c0,0,0,0,0,0.1
	c0,0-0.1,0-0.2,0l-0.1,0.1C1.3,24,0.6,24.1,0,24.2l0,2.7c0.8-0.2,1.7-0.5,2.3-0.7l0.1,0c0.1-0.1,0.2-0.1,0.3-0.1
	c0.4-0.1,0.8-0.3,1.1-0.7c0.3-0.4,0.3-0.8,0.3-1.2c0-0.1,0-0.1,0-0.2c0.1-1,0-2-0.1-2.9C4,20.3,3.9,19.6,4,19c0-0.3,0-0.7,0-1
	c0-1.3,0-2.6,0.2-3.9C5,10.2,6,7.3,7.4,5C7.6,4.8,8.2,4,9,3.4c0.6-0.6,1.1-0.9,1.4-1c0,0.2,0,0.5-0.1,1C10.2,4.1,10,4.8,9.9,5.5
	c-0.1,0.4-0.2,0.7-0.2,1L7.6,20.2l3.7-7.8c0.3-0.6,0.5-1.2,0.8-1.8c0.8-1.6,1.5-3.3,2.4-4.9c0.1-0.2,0.2-0.3,0.3-0.5
	c0.7-1.3,1.6-3,2.7-3.5C17.7,1.7,18,1.7,18,1.7c0,0,0,0,0,0.1c0,0.1-0.3,0.7-0.5,1c-0.1,0.2-0.2,0.4-0.4,0.6c-1,1.8-1.5,3.7-1.6,5.4
	c0,0.7,0,1.3,0.1,1.7c0.2,1,0.8,1.4,1.2,1.6c0.3,0.1,1,0.2,1.7-0.4c0.3-0.3,0.7-0.7,1-1.2c0.8-1.2,1.1-2.5,1.5-3.7
	c0.2-0.9,0.5-1.8,0.9-2.5C22,4,22.1,3.9,22.1,3.9c0,0,0.1,0,0.1,0.1C23,5.1,22.4,7.4,22,9.2c-0.2,0.6-0.3,1.2-0.4,1.7
	c-0.1,0.6-0.3,1.3-0.5,2.1c-0.4,1.5-0.9,3.2-0.9,4.4l1.1,0.4c0.8-0.2,1.8-0.6,2.8-1.1l0-1.5C23.4,15.6,22.8,15.9,22.4,16.1z
	 M18.3,7.4c0.1-0.3,0.2-0.7,0.3-1C18.5,6.8,18.4,7.1,18.3,7.4z"/>
</svg>
