<svg width="25" height="29" viewBox="0 0 25 29" fill="none" xmlns="http://www.w3.org/2000/svg">
<path d="M23.0337 16.0261C23.1835 15.3933 23.767 13.0172 23.8959 12.3573C23.983 11.9129 25.0757 5.78963 24.3497 3.11728C23.9921 2.62947 23.2824 1.77885 22.0354 2.66434C21.5748 2.99137 19.9616 5.33669 19.8119 5.47257C19.8328 5.13513 20.4063 1.72313 20.2657 1.35082C20.0056 0.663255 19.551 0.398738 18.9043 0.12788C17.6791 -0.0532959 17.3615 0.263762 16.1816 1.21494C14.5026 2.70964 13.1495 5.03639 12.3245 6.55963C12.5033 5.11249 13.5778 0.746142 12.5636 0.126973C11.4791 -0.535225 8.14972 2.2567 6.47073 4.20434C4.88704 6.72495 4.10018 9.13188 3.24889 13.3537C2.94213 14.8747 2.83958 20.4794 2.93124 21.2349C3.03606 22.0959 2.58047 22.8963 2.52011 23.6432C2.5183 23.664 2.51694 23.6844 2.51513 23.7043C2.46748 23.7206 2.4162 23.7383 2.3622 23.7573L2.23468 23.8026C2.01959 23.8791 1.49956 24.0055 0.959111 24.1328L0.902832 28.0367C2.09128 27.5851 3.30424 27.2037 4.5113 26.806C4.74363 25.8132 4.82079 25.0921 4.82079 25.0921C4.82079 25.0921 4.79582 25.1084 4.74862 25.1374C4.93649 24.7968 4.96281 24.4431 4.98958 24.0712C4.99457 24.0033 5.00004 23.9281 5.00684 23.8443C5.08762 22.8464 4.96871 21.8685 4.85345 20.9224C4.76723 20.2149 4.68601 19.5463 4.69146 18.9113C4.69418 18.5852 4.69373 18.2627 4.69327 17.9506C4.69146 16.614 4.6901 15.3516 4.9474 14.0757C5.73743 10.1582 6.76614 7.28252 8.18466 5.02552C8.32579 4.80086 8.93749 4.06257 9.71209 3.37365C10.3428 2.81245 10.8025 2.53073 11.0875 2.40073C11.0911 2.60773 11.0762 2.91572 11.014 3.36232C10.9142 4.07887 10.7367 4.84888 10.5942 5.46804C10.4999 5.87796 10.4254 6.20181 10.3887 6.44277L8.30037 20.1709L11.9533 12.4071C12.2306 11.8178 12.5069 11.2186 12.7737 10.6393C13.5175 9.02589 14.2862 7.35771 15.1348 5.78465C15.2192 5.62793 15.3058 5.46487 15.3943 5.29729C16.0904 3.98104 16.9572 2.34366 18.1061 1.83773C18.4356 1.69279 18.6706 1.70366 18.7346 1.72585C18.7396 1.73401 18.7482 1.74986 18.7587 1.77658C18.8136 1.92152 18.4696 2.46641 18.3044 2.72821C18.1796 2.92614 18.0503 3.13087 17.9378 3.34511C16.9699 5.18858 16.424 6.9872 16.315 8.69116C16.2724 9.36016 16.3037 9.93766 16.4085 10.4074C16.6386 11.4387 17.2063 11.8278 17.6424 11.9723C17.9673 12.0801 18.6212 12.1747 19.3517 11.5986C19.6857 11.3354 20.0179 10.9473 20.3682 10.4123C21.1623 9.19846 21.4968 7.92388 21.8208 6.69143C22.0576 5.78872 22.2818 4.93629 22.6734 4.17943C22.7447 4.04219 22.8123 3.9439 22.8654 3.87868C22.9171 3.90178 22.9679 3.92714 23.0056 3.94979C23.762 5.10932 23.1676 7.3944 22.6879 9.23832C22.5323 9.8362 22.3853 10.401 22.2841 10.9201C22.1747 11.479 21.9705 12.2001 21.7545 12.9637C21.3162 14.5114 20.8633 16.1121 20.866 17.3935L21.9447 17.7925C22.6044 17.6512 23.4458 17.3034 24.3098 16.8799L24.6383 15.2389C23.998 15.5727 23.4163 15.8626 23.0337 16.0261ZM19.0268 7.40889C19.1026 7.08866 19.1966 6.7639 19.3086 6.43507C19.2202 6.76753 19.1294 7.09319 19.0268 7.40889Z" fill="#B46766"/>
</svg>
