<svg width="25" height="31" viewBox="0 0 25 31" fill="none" xmlns="http://www.w3.org/2000/svg">
<path d="M24.6218 4.265C23.4895 4.2808 22.358 4.32328 21.2257 4.32427C21.1218 4.32427 21.0229 4.30847 20.9294 4.27982C20.3483 5.86297 20.1868 7.38833 20.1868 7.38833C20.1868 7.38833 20.6413 7.08701 21.3677 6.78668C21.2964 6.87411 21.2275 6.96401 21.1626 7.05787C20.6808 7.75781 20.1473 9.0021 20.3392 10.9542C20.7838 15.4735 19.6945 20.5554 17.2719 25.2629C16.7702 26.238 15.9431 27.1197 15.3375 27.6877C15.2345 27.7841 15.1397 27.8665 15.0535 27.9362C15.2626 26.846 15.4854 25.7465 15.7018 24.6775C15.9227 23.5854 16.1514 22.4557 16.3655 21.3393L18.838 8.44195L14.0005 20.5184C13.2937 22.2833 12.5864 24.0482 11.8791 25.8127C11.944 24.677 12.1019 23.5137 12.2666 22.3006C12.6381 19.564 13.0224 16.7346 12.336 13.8953L11.7185 11.3405L10.1692 13.3737C8.75878 15.225 7.7353 17.4271 6.8393 19.5309C6.73042 19.7868 6.57617 20.2131 6.36249 20.8034C5.9805 21.8595 5.45742 23.3053 4.89487 24.6C4.46751 25.5835 4.14949 26.1708 3.93127 26.518C3.91993 26.4919 3.90768 26.4647 3.89543 26.4355C2.96359 24.2419 2.64738 22.0111 2.90053 19.4163C3.13281 17.0354 3.8056 14.6817 4.51832 12.1896C5.26007 9.59584 6.02678 6.91412 6.3017 4.08914C6.42465 2.82608 6.41512 2.91845 5.85937 2.18887C5.00239 1.06313 3.6078 1.20786 2.41147 1.10215C2.12793 1.05276 1.8471 0.999904 1.56855 0.94458L1.22966 2.40227C1.51139 2.43734 1.78677 2.46203 2.04763 2.48475C2.68231 2.54057 3.552 2.61714 3.73801 2.86165C3.81286 2.95995 4.55189 3.2252 4.49881 3.76955C4.24975 6.32877 3.84371 8.76006 3.1378 11.2284C1.67743 16.3365 -0.59818 20.9842 1.86752 26.7882C2.04944 27.217 2.56255 28.8194 3.63684 29.2086C4.18306 29.4067 5.27005 29.1099 6.35886 25.8003C7.07657 24.2641 8.63992 20.9945 8.71795 20.8113C9.08679 19.9454 10.4845 16.5667 10.8502 15.8222C10.7881 17.0033 10.838 20.2561 10.6687 21.5028C10.4419 23.1739 9.65342 25.1107 9.67066 26.8376C9.67701 27.458 10.2105 28.8895 10.7595 29.0111C11.3406 29.1395 12.2316 28.8194 12.7103 28.4677C12.7724 28.7759 14.6238 31.2408 16.9294 29.4556C17.6866 28.7448 18.6093 27.3178 19.2885 25.9979C21.962 20.8029 22.9637 15.8094 22.4642 10.7344C22.3136 9.20216 23.1597 8.21078 24.2013 8.07197C24.3192 8.05617 24.449 8.04924 24.5851 8.05122L24.8995 4.28673C24.8065 4.27833 24.7139 4.27093 24.6218 4.265Z" fill="#B46766"/>
</svg>
