<?xml version="1.0" encoding="utf-8"?>
<!-- Generator: Adobe Illustrator 25.3.1, SVG Export Plug-In . SVG Version: 6.00 Build 0)  -->
<svg version="1.1" id="Слой_1" xmlns="http://www.w3.org/2000/svg" xmlns:xlink="http://www.w3.org/1999/xlink" x="0px" y="0px"
	 viewBox="0 0 26.8 27.4" style="enable-background:new 0 0 26.8 27.4;" xml:space="preserve">
<style type="text/css">
	.st0{fill:#B46766;}
</style>
<path class="st0" d="M25.1,4.6C24,4.8,23,5.3,22.4,6.2c-0.5,0.6-1,1.8-0.8,3.6c0.4,4.2-0.6,8.8-3.1,13.2c-0.5,0.9-1.3,1.7-1.9,2.2
	c-0.1,0.1-0.2,0.2-0.3,0.2c0.2-1,0.4-2,0.7-3c0.2-1,0.4-2.1,0.7-3.1L20,7.4l-4.9,11.1c-0.7,1.6-1.4,3.2-2.1,4.9
	c0.1-1,0.2-2.1,0.4-3.2c0.4-2.5,0.8-5.1,0.1-7.7l-0.6-2.3L11.4,12c-1.4,1.7-2.4,3.7-3.3,5.7c-0.1,0.2-0.3,0.6-0.5,1.2
	c-0.4,1-0.9,2.3-1.5,3.5c-0.4,0.9-0.8,1.4-1,1.8c0,0,0,0,0-0.1c-0.9-2-1.2-4.1-1-6.5c0.2-2.2,0.9-4.4,1.6-6.7C6.4,8.5,7.2,6,7.5,3.4
	C7.6,2.3,7.6,2.4,7,1.7c-0.9-1-2.3-0.9-3.5-1C2.4,0.5,1.4,0.3,0.3,0L0,1.3c0.4,0.1,0.8,0.2,1.2,0.3c0.7,0.2,1.4,0.2,2,0.3
	c0.6,0,1.5,0.1,1.7,0.3c0.1,0.1,0.8,0.3,0.8,0.8C5.4,5.5,5,7.7,4.3,10C2.8,14.7,0.5,19,3,24.3c0.2,0.4,0.7,1.9,1.8,2.2
	c0.6,0.2,1.6-0.1,2.7-3.1C8.2,22,9.8,19,9.9,18.8c0.4-0.8,1.8-3.9,2.1-4.6c-0.1,1.1,0,4.1-0.2,5.2c-0.2,1.5-1,3.3-1,4.9
	c0,0.6,0.5,1.9,1.1,2c0.6,0.1,1.5-0.2,2-0.5c0.1,0.3,1.9,2.5,4.2,0.9c0.8-0.7,1.7-2,2.4-3.2c2.7-4.8,3.7-9.4,3.2-14.1
	c-0.1-1.4,0.7-2.3,1.7-2.4c0.3,0,0.6,0,0.9,0l0.6-2.4C26.3,4.6,25.7,4.5,25.1,4.6z"/>
</svg>
