<?xml version="1.0" encoding="utf-8"?>
<!-- Generator: Adobe Illustrator 25.3.1, SVG Export Plug-In . SVG Version: 6.00 Build 0)  -->
<svg version="1.1" id="Слой_1" xmlns="http://www.w3.org/2000/svg" xmlns:xlink="http://www.w3.org/1999/xlink" x="0px" y="0px"
	 viewBox="0 0 21.7 26.4" style="enable-background:new 0 0 21.7 26.4;" xml:space="preserve">
<style type="text/css">
	.st0{fill:#B46766;}
</style>
<path class="st0" d="M21.6,7.6c0-0.5-0.2-1.1-0.2-1.6c0-0.2-0.3-1.7-0.1-1.8c-0.4,0.2-0.7,0.5-1,0.9c-0.5,0.6-1,1.8-0.8,3.6
	c0.4,4.2-0.6,8.8-3.1,13.2c-0.5,0.9-1.3,1.7-1.9,2.2c-0.1,0.1-0.2,0.2-0.3,0.2c0.2-1,0.4-2,0.6-3c0.2-1,0.5-2,0.7-3.1L18,6.3
	l-4.8,11.1c-0.7,1.6-1.4,3.2-2.1,4.9c0.1-1,0.2-2.1,0.4-3.2c0.4-2.5,0.8-5.1,0.1-7.7L11,9.1L9.4,11C8,12.7,7,14.7,6.1,16.7
	c-0.1,0.2-0.3,0.6-0.5,1.2c-0.4,1-0.9,2.3-1.5,3.5c-0.4,0.9-0.7,1.4-1,1.8c0,0,0,0,0-0.1c-0.9-2-1.2-4.1-1-6.5
	C2.3,14.4,3,12.2,3.7,10c0.7-2.4,1.5-4.9,1.8-7.5c0.1-1.2,0.1-1.1-0.4-1.7C4.8,0.4,4.4,0.2,3.9,0c0.2,0.1-0.4,4.2-0.5,4.6
	c-0.2,1.5-0.6,3-1,4.5c-1.5,4.7-3.7,9-1.3,14.3c0.2,0.4,0.7,1.9,1.8,2.2c0.5,0.2,1.6-0.1,2.7-3.1c0.7-1.4,2.3-4.4,2.4-4.6
	c0.4-0.8,1.8-3.9,2.1-4.6c-0.1,1.1,0,4.1-0.2,5.2c-0.2,1.5-1,3.3-1,4.9c0,0.6,0.5,1.9,1.1,2c0.6,0.1,1.5-0.2,2-0.5
	c0.1,0.3,1.9,2.6,4.2,0.9c0.8-0.7,1.7-2,2.4-3.2c1.3-2.3,2.3-4.8,2.9-7.5C21.8,12.5,21.7,10.1,21.6,7.6z"/>
</svg>
