<?xml version="1.0" encoding="utf-8"?>
<!-- Generator: Adobe Illustrator 25.3.1, SVG Export Plug-In . SVG Version: 6.00 Build 0)  -->
<svg version="1.1" id="Слой_1" xmlns="http://www.w3.org/2000/svg" xmlns:xlink="http://www.w3.org/1999/xlink" x="0px" y="0px"
	 viewBox="0 0 23.5 31.7" style="enable-background:new 0 0 23.5 31.7;" xml:space="preserve">
<style type="text/css">
	.st0{fill:#B46766;}
</style>
<path class="st0" d="M22.2,8.3c0-0.3,0.1-0.5,0.2-0.7c0.3-1.3,0.7-2.5,1.1-3.8c-0.2,0.1-0.4,0.1-0.6,0.2c-1.7,0.7-2.8,2.1-3,3.9
	c-0.2,1.2,0.1,2.4,0.3,3.4c0.1,0.4,0.2,0.8,0.2,1.2c0.5,3.7,0.4,7.6-0.5,11c-0.1,0.6-0.7,2.2-1.4,3.8c-1.1,2.3-1.8,2.5-1.8,2.5
	s-0.1,0-0.3-0.2c-0.1-0.2-0.3-0.9-0.5-2.5c-0.2-1.4-0.2-2.4-0.2-2.7l1-8.5l-3.4,7.9c-0.2,0.4-0.5,1-0.8,1.5c0.1-1.1,0.3-2.2,0.5-3.3
	c0.1-0.6,0.2-1.3,0.3-1.9c0.3-1.7,0.5-4.2-0.4-6.5c-0.6-1.4-1.4-1.6-2-1.6c-1.5,0.1-2.4,2-3.4,5.5c-0.1,0.2-0.1,0.3-0.1,0.4
	c-0.5,1.5-0.9,3-1.3,4.5c-0.4,1.6-0.9,3.2-1.4,4.7c-0.1-0.1-0.3-0.3-0.5-0.6c-0.4-0.5-0.7-1-0.8-1.2c-0.8-1.8-1.7-5.4-1.8-7.2
	c-0.1-2.5,0.6-4.9,1.3-7.4c0.2-0.7,0.4-1.3,0.6-2C4,6.8,4.4,5.1,4.2,3.3C4,1.9,3.3,0.8,2.4,0C2.2,1.6,1.9,3.3,2,4.9
	C2,5,2,5.1,1.9,5.3C1.8,7,1.4,9.2,1.3,9.6c-0.8,2.6-1.5,4.9-1.3,7.8c0.1,2.3,1.9,9.4,2.5,10.1c0.9,1.1,1.6,2.1,2.4,2.1
	c0.4,0,1.3-0.2,1.7-1.5c0.6-1.8,2.8-10,2.9-10.2c0.2-0.6,0.5-1.5,0.9-2.3c0.1-0.2,0.5-0.8,0.6-1c0.3,1.2,0.3,3.3,0,5
	c-0.1,0.6-0.2,1.2-0.3,1.9c-0.2,1.3-0.5,2.7-0.6,4.2c0,0.8,0,1.3,0.1,1.8c0.3,1,0.9,1.3,1.3,1.4c0.1,0,0.2,0,0.4,0
	c0.6,0,1.9-1.2,2.3-2.1c-0.4,2,0.3,3.5,0.5,3.7c1.1,1.3,1.9,1.3,2.5,1.2c1.3-0.3,2-0.9,3.1-3.3c0.8-1.8,1.5-3.8,1.6-4.3
	c0.9-3.8,0.3-12.6,0.2-13C21.7,10.2,22.1,9.1,22.2,8.3z"/>
</svg>
