<svg width="28" height="38" viewBox="0 0 28 38" fill="none" xmlns="http://www.w3.org/2000/svg">
<path d="M24.4313 3.21247C22.8194 5.11867 22.4533 8.57493 22.4533 8.57493C22.4533 8.57493 22.5304 8.52356 22.672 8.44255C21.9556 9.23981 21.482 10.2747 21.3159 11.4582C21.1354 12.7479 21.3903 14.0421 21.6158 15.1842C21.7034 15.6287 21.7864 16.0486 21.8408 16.4452C22.388 20.4211 22.2187 24.6717 21.3649 28.4135C21.2225 29.0373 20.693 30.8571 19.9644 32.5005C18.8729 34.9634 18.1706 35.1965 18.1203 35.2094C18.1017 35.2025 18.0078 35.1615 17.8481 34.9718C17.7623 34.7628 17.545 33.9814 17.3531 32.2935C17.1862 30.825 17.158 29.7145 17.1912 29.395L18.1534 20.1292L14.803 28.7108C14.617 29.1865 14.2967 29.7916 13.9665 30.3266C14.0518 29.147 14.25 27.9674 14.4587 26.729C14.5735 26.0459 14.6923 25.3395 14.7908 24.6317C15.0467 22.7902 15.2785 20.0551 14.3485 17.5448L14.3367 17.5132C13.7836 16.0407 12.9648 15.7685 12.3745 15.7981C10.8584 15.8757 10.0032 17.941 8.95522 21.7247C8.89987 21.9243 8.85224 22.0967 8.82502 22.1856C8.33551 23.784 7.91178 25.4813 7.50166 27.1222C7.07249 28.8392 6.63061 30.6086 6.1157 32.252C5.97642 32.0969 5.80856 31.8895 5.61711 31.6168C5.21425 31.0438 4.91256 30.4812 4.84042 30.3073C4.01429 28.3072 3.12419 24.4425 3.04343 22.5047C2.92911 19.7592 3.62368 17.2045 4.35953 14.4995C4.55461 13.7828 4.75604 13.0413 4.94432 12.2885C5.4615 10.2228 5.86935 8.35166 5.61892 6.3763C5.61802 6.36939 5.61711 6.36248 5.61621 6.35556C5.61711 6.35754 5.61802 6.35951 5.61892 6.36148C5.81809 5.71094 5.5046 3.06379 4.58093 0.719447C4.2688 0.664617 3.95667 0.609291 3.64409 0.555943C3.51434 0.533714 3.38414 0.511989 3.25439 0.490748C3.19678 0.481363 3.13871 0.472469 3.08109 0.463083C3.06385 0.460614 2.98128 0.448259 2.95951 0.444801C2.95089 0.443813 2.94408 0.442835 2.94045 0.442341C2.88283 0.434438 2.82477 0.426524 2.76715 0.419114C2.65146 0.404295 2.53578 0.390472 2.42009 0.378123C1.94374 0.326751 1.46602 0.298593 0.987401 0.301557C0.957459 0.301557 0.927967 0.300072 0.898932 0.298096L0.585449 4.05172C1.64205 4.06802 3.13281 4.66473 3.36373 6.48794C3.54973 7.95452 2.87422 12.5029 2.68322 13.2058C1.92151 16.0071 1.2342 18.5006 1.36758 21.702C1.47147 24.1965 3.24668 31.9557 3.8174 32.7173C4.75105 33.9641 5.37031 35.0241 6.22185 34.9896C6.60657 34.9733 7.48442 34.7539 7.9458 33.3595C8.57505 31.4567 10.7858 22.474 10.8493 22.2453C11.0221 21.621 11.3969 20.6642 11.7113 19.7755C11.787 19.5616 12.2353 18.9027 12.301 18.7382C12.5837 20.0111 12.5932 22.2957 12.3251 24.2256C12.2325 24.892 12.1173 25.5771 12.0057 26.24C11.7589 27.7066 11.5039 29.2231 11.4432 30.7835C11.4114 31.5995 11.4577 32.2338 11.5851 32.7218C11.8673 33.8041 12.5265 34.1172 12.8944 34.2076C13.0192 34.2382 13.1412 34.2526 13.261 34.2526C13.9093 34.2526 15.205 32.9144 15.5226 31.9759C15.1596 34.1493 15.8383 35.7453 16.0216 35.977C17.0963 37.3369 17.8903 37.412 18.4714 37.2613C19.763 36.9269 20.4331 36.2526 21.5564 33.6554C22.3948 31.7166 23.0589 29.5362 23.1896 28.9627C24.1205 24.8831 23.5085 15.2518 23.4164 14.786C23.2186 13.7838 23.577 12.619 23.6886 11.8222C23.8687 10.5379 24.7117 9.99359 25.3069 9.72537C25.7106 9.54359 26.1507 9.45863 26.5948 9.46555L27.0907 3.52565C26.2038 3.41945 25.3178 3.31472 24.4313 3.21247Z" fill="#B46766"/>
</svg>
