<?xml version="1.0" encoding="utf-8"?>
<!-- Generator: Adobe Illustrator 25.3.1, SVG Export Plug-In . SVG Version: 6.00 Build 0)  -->
<svg version="1.1" id="Слой_1" xmlns="http://www.w3.org/2000/svg" xmlns:xlink="http://www.w3.org/1999/xlink" x="0px" y="0px"
	 viewBox="0 0 30.3 32.8" style="enable-background:new 0 0 30.3 32.8;" xml:space="preserve">
<style type="text/css">
	.st0{fill:#B46766;}
</style>
<path class="st0" d="M28.1,5.4c-0.7,0-2,0-2.9,0.9c-0.4,0.5-0.6,1.1-0.7,2c0,0.1,0,0.3,0,0.4l0,0.1l0,0.1c0,0.5-0.1,1-0.1,1.5
	c-0.3,4-0.5,6.7-2.1,10.1c-1.5,3.4-4,6.8-7.1,9.8c-0.6,0.6-0.9,0.8-1.1,0.8c-0.1-0.2-0.3-0.7-0.3-1.2l0-2.4l-2,1.4
	c-0.3,0.2-0.5,0.3-0.6,0.3c0-0.4,0.2-0.9,0.4-1.5c0.1-0.2,0.2-0.5,0.3-0.8c1.3-3.9,2.4-7.7,2.2-12.2l-0.1-2.5L12,13.9
	c-2,1.7-3.6,3.8-4.7,6.2c-1.1,2.4-1.7,4.9-1.8,7.6c0,0.8-0.3,1.5-0.5,1.6c-0.1,0-0.1,0.1-0.2,0.1c-0.1,0.1-0.3,0.2-0.4,0.2
	c-0.6-0.1-1.1-0.3-1.5-0.8c-0.7-0.8-1.2-2.4-1.3-4.6c-0.1-2,0.1-4,0.2-5.4c0-0.1,0-0.2,0-0.3c0.3-3,1.1-6.1,1.9-9.1
	c0.1-0.3,0.2-0.7,0.4-1.1c0.4-1,0.8-2.3,1-3.5C5.4,3.2,5,1.9,4,1.1C3.2,0.5,2.2,0.1,1.2,0L0.7,2.4c0.7,0,1.3,0.3,1.9,0.7
	c0.1,0.1,0.4,0.4,0.2,1.3c-0.2,1-1,4.6-1.1,5c-0.8,3-1.5,8.2-1.5,8.3c-0.5,5.4,0.6,9.7,1.3,11C2,30,2.6,31,3.9,31.1
	c0.6,0,1-0.1,1.9-0.4c0.8-0.3,1.5-1.9,1.5-3.3c0.1-2.4,0.6-4.7,1.6-6.8c0.5-1.1,2.7-4.2,3.5-5.2c-0.3,2.8-0.9,7.2-1.8,9.8
	c-0.1,0.2-1.3,2.6-1.3,3.5c0.1,1.4,0.4,2.1,0.8,2.3c0.5,0.2,1.6,0.1,2.2,0c0.2,0.6,0,1.2,0.5,1.6c0.6,0.5,2.4,0,3.6-1.1
	c3.3-3.2,5.7-6.2,7.3-9.9c1.7-3.8,2.4-7,2.7-11.1c0-0.5,0.3-2.8,0.4-3c0.1,0,1.8,0.1,3,0.3l0.5-2.2C29.5,5.5,28.8,5.4,28.1,5.4z"/>
</svg>
