<svg width="30" height="40" viewBox="0 0 30 40" fill="none" xmlns="http://www.w3.org/2000/svg">
<path d="M27.1492 5.54518C25.3731 7.35061 24.9575 11.0361 24.9448 11.1526C24.7484 11.6086 24.6667 12.1781 24.5855 12.8721C24.5683 13.0203 24.5447 13.2228 24.5315 13.2866L24.5116 13.3809L24.5043 13.4772C24.4603 14.0517 24.4204 14.6015 24.3818 15.133C24.0643 19.5085 23.8547 22.3992 22.3408 26.0748C20.8173 29.774 18.3698 33.4541 15.2635 36.7177C14.6833 37.3272 14.3253 37.5643 14.2133 37.6172C14.0758 37.4374 13.8762 36.8802 13.8784 36.2687L13.8898 33.6734L11.9249 35.1424C11.6704 35.3326 11.4508 35.4403 11.2961 35.4941C11.2762 35.0792 11.498 34.4741 11.7122 33.8887C11.8133 33.6121 11.9181 33.3261 12.0066 33.0372C13.2873 28.8528 14.416 24.6931 14.157 19.8232L14.0127 17.1069L12.1055 18.8649C10.0953 20.7172 8.50925 22.9944 7.39049 25.6327C6.30168 28.2003 5.70828 30.9818 5.62753 33.9001C5.60212 34.8095 5.29544 35.5697 5.10354 35.6734C5.0432 35.706 4.97243 35.7465 4.8944 35.7915C4.78325 35.8552 4.57048 35.9782 4.443 36.0321C3.83417 35.957 3.36598 35.6868 2.97718 35.1879C2.26129 34.2691 1.82395 32.5516 1.71326 30.2201C1.61163 28.0842 1.79492 25.8722 1.91605 24.4086C1.92693 24.2772 1.93737 24.1523 1.9469 24.0332C2.21275 20.7582 3.01484 17.3771 3.8133 14.1945C3.88362 13.9144 4.03696 13.4595 4.19937 12.9773C4.57138 11.8733 5.03413 10.4991 5.23783 9.17976C5.33627 8.54206 5.36258 7.96363 5.31812 7.44547C5.51638 7.77889 5.70692 8.14491 5.88703 8.54749C6.15061 7.68552 5.51547 3.32186 3.75296 0.797221C3.66631 0.782896 3.5792 0.768566 3.49255 0.754735C3.39138 0.738435 3.29067 0.722135 3.1895 0.706822C3.16047 0.702377 3.13143 0.69793 3.1024 0.693484C3.08879 0.691509 3.0711 0.689044 3.04887 0.68608C2.84607 0.6599 2.64374 0.632731 2.44095 0.611491C2.034 0.56901 1.62615 0.544317 1.21694 0.542836C1.17339 0.542836 1.13074 0.539369 1.089 0.533936L0.593599 6.46544C1.32809 6.4768 2.07483 6.7386 2.68774 7.23009C2.79345 7.31505 3.0593 7.62082 2.9046 8.62455C2.73991 9.69447 1.91423 13.617 1.81579 14.0087C0.987836 17.3099 0.284193 22.9188 0.273305 23.0482C-0.225733 28.877 0.908444 33.5696 1.54358 35.0021C2.17872 36.4346 2.69818 37.513 4.03877 37.6201C4.61448 37.6656 5.08222 37.5213 5.89882 37.1756C6.71543 36.8298 7.35375 35.137 7.39594 33.619C7.46671 31.0687 8.03652 28.4932 8.98379 26.259C9.51458 25.0073 11.6641 21.681 12.4317 20.6278C12.1649 23.7097 11.5057 28.3934 10.617 31.2974C10.5512 31.5118 9.29546 34.0873 9.34672 35.1009C9.42294 36.609 9.72463 37.3356 10.1633 37.5707C10.6397 37.8261 11.792 37.7046 12.3863 37.5707C12.6023 38.206 12.3859 38.8891 12.8854 39.2996C13.4978 39.803 15.2943 39.347 16.5147 38.0647C19.8483 34.5625 22.1661 31.3088 23.8188 27.2963C25.5097 23.192 26.1697 19.6849 26.4955 15.1942C26.5322 14.6904 26.8135 12.2048 26.8584 11.9835C26.9237 11.9588 28.0253 12.0176 29.0918 12.1549L29.6022 6.04211C28.7843 5.88157 27.9663 5.7151 27.1492 5.54518Z" fill="#B46766"/>
</svg>
