<svg width="24" height="30" viewBox="0 0 24 30" fill="none" xmlns="http://www.w3.org/2000/svg">
<path d="M14.9335 9.16472C14.5896 7.55859 14.2256 6.29716 13.9329 5.28348C13.6167 4.18736 13.3435 3.24117 13.4138 2.82945C13.4261 2.75879 13.4624 2.54409 14.4153 2.1523C14.5074 2.11425 14.6794 2.0436 15.0374 2.2746C15.4363 2.53187 16.838 3.72989 18.1272 8.3449C19.1932 12.1605 19.8579 17.1876 20.0513 22.8874C20.0458 22.9241 20.0381 22.9726 20.0313 23.0147C19.9242 23.6923 19.666 25.3261 19.9773 26.9657C20 27.021 20.0222 27.0762 20.0454 27.131C20.2754 27.6687 20.5078 28.2063 20.7092 28.7553C21.6889 28.9808 22.6768 29.1724 23.6724 29.3174C23.7668 29.3287 23.8616 29.3396 23.956 29.3504V28.2C23.5081 28.1796 23.0916 28.0256 22.8833 27.7117C22.5334 27.1858 22.2421 26.9435 22.2217 25.9801C22.2035 25.1145 21.9739 22.141 22.0402 21.7225C20.8576 7.22342 19.5934 3.58223 16.1864 1.38547C15.248 0.780347 14.4167 -0.335697 13.373 0.570183C12.3343 0.997305 12.6968 7.02775 12.6923 7.18311C12.3969 6.82438 11.1948 2.78959 10.1176 2.18718C9.63882 1.92085 9.10427 1.8665 8.61237 2.03409C7.7343 2.33348 7.12443 4.085 6.65749 5.50678C6.37932 4.95691 5.73767 3.5922 5.43228 3.19678C4.65632 2.19171 3.07852 1.46247 1.62053 2.97031C0.526012 4.10221 0.498332 5.79213 0.71297 9.71912C0.895843 13.0682 1.05149 17.3435 1.93818 20.4085C1.95406 20.7269 1.79388 24.0764 1.75848 24.4705C1.75258 24.538 1.07781 24.3695 0.450684 24.1942V25.317C0.467473 25.3206 0.484265 25.3243 0.501055 25.3283C0.846382 25.4126 1.19534 25.4746 1.54656 25.5272C2.33115 25.6227 3.13479 25.6979 3.91076 25.8691C3.97565 25.7151 4.0546 25.567 4.14491 25.4302C4.16941 25.3043 4.19164 25.1675 4.21025 25.0181C4.27423 24.5076 4.30872 23.8187 4.3128 22.9712C4.31916 21.5748 4.24292 20.2119 4.23975 20.1544L4.23158 20.0113L4.19119 19.874C3.30224 16.8502 2.67965 13.0759 2.52627 9.778C2.35474 6.0956 2.8353 4.50306 3.1003 4.07095C3.46151 4.22541 4.11223 4.88263 4.81378 6.62871C5.45678 8.22804 5.7826 9.83326 5.79893 9.91615C5.90512 10.5335 6.45419 10.9797 7.08041 10.9538C7.48699 10.9375 8.19761 10.6667 8.28247 9.7549C8.28701 9.70598 8.29291 9.63396 8.30017 9.54202C8.53296 6.65045 8.94045 5.34689 9.21091 4.77754C9.50087 5.2486 9.97235 6.212 10.5809 8.13292C11.1454 9.91433 11.5293 11.5884 11.5333 11.6047L12.3021 14.9737L15.0261 9.59411L14.9335 9.16472Z" fill="#B46766"/>
</svg>
