<?xml version="1.0" encoding="utf-8"?>
<!-- Generator: Adobe Illustrator 25.3.1, SVG Export Plug-In . SVG Version: 6.00 Build 0)  -->
<svg version="1.1" id="Слой_1" xmlns="http://www.w3.org/2000/svg" xmlns:xlink="http://www.w3.org/1999/xlink" x="0px" y="0px"
	 viewBox="0 0 21.8 30.3" style="enable-background:new 0 0 21.8 30.3;" xml:space="preserve">
<style type="text/css">
	.st0{fill:#B46766;}
</style>
<path class="st0" d="M21.7,25.4c0-1.2-0.2-3.5-0.2-3.9C20.3,7,19.1,3.3,15.6,1.1c-0.9-0.6-1.8-1.7-2.8-0.8c-1,0.4-0.7,6.5-0.7,6.6
	c-0.3-0.4-1.5-4.4-2.6-5C9,1.6,8.5,1.6,8,1.7C7.1,2,6.5,3.8,6,5.2C5.7,4.6,5.1,3.3,4.8,2.9C4,1.9,2.4,1.2,1,2.7
	c-1.1,1.1-1.1,2.8-0.9,6.8c0.1,2,0.2,4.1,0.4,6.1c0.2,2.1,0.8,4.1,0.9,6.2c0,0.5,0.5,6.4,0.7,6.4c0.7-0.1,1.5-0.3,2-1
	C5,26,4.3,24,3.8,22.9v-0.1c0-1.4-0.1-2.8-0.1-2.8v-0.1v-0.1C2.8,16.8,2.2,13,2,9.7C1.8,6,2.3,4.4,2.6,4c0.4,0.2,1,0.8,1.7,2.6
	c0.6,1.6,1,3.2,1,3.3c0.1,0.6,0.7,1.1,1.3,1c0.4,0,1.1-0.3,1.2-1.2c0,0,0-0.1,0-0.2C8,6.6,8.4,5.3,8.7,4.7C9,5.2,9.5,6.1,10.1,8.1
	c0.6,1.8,0.9,3.5,1,3.5l0.8,3.4l2.7-5.4l-0.1-0.4c-0.3-1.6-0.7-2.9-1-3.9c-0.3-1.1-0.6-2-0.5-2.5c0-0.1,0-0.3,1-0.7
	c0.1,0,0.3-0.1,0.6,0.1c0.4,0.3,1.8,1.5,3.1,6.1c1.1,3.8,1.7,8.9,1.9,14.6V23c-0.2,1-0.6,4,0.8,6.1c0.3,0.5,0.8,0.9,1.4,1.2
	C21.7,28.5,21.7,26.9,21.7,25.4z"/>
</svg>
