<?xml version="1.0" encoding="utf-8"?>
<!-- Generator: Adobe Illustrator 25.3.1, SVG Export Plug-In . SVG Version: 6.00 Build 0)  -->
<svg version="1.1" id="Слой_1" xmlns="http://www.w3.org/2000/svg" xmlns:xlink="http://www.w3.org/1999/xlink" x="0px" y="0px"
	 viewBox="0 0 23 30.5" style="enable-background:new 0 0 23 30.5;" xml:space="preserve">
<style type="text/css">
	.st0{fill:#B46766;}
</style>
<path class="st0" d="M22.5,27.6c-0.4-0.5-0.6-0.8-0.7-1.7c0-0.9-0.2-3.9-0.2-4.3C20.5,7,19.2,3.4,15.8,1.2c-0.9-0.6-1.8-1.7-2.8-0.8
	c-1,0.4-0.7,6.5-0.7,6.6C12,6.6,10.8,2.6,9.7,2c-0.5-0.3-1-0.3-1.5-0.1c-0.9,0.3-1.5,2.1-2,3.5C6,4.8,5.4,3.4,5,3
	C4.3,2,2.7,1.2,1.2,2.8C0.1,3.9,0.1,5.6,0.3,9.5c0.2,3.4,0.3,7.7,1.2,10.7c0,0.3-0.1,3.7-0.2,4.1c0,0.1-0.7-0.1-1.4-0.3l0,2.6
	c1.1,0.2,2,0.3,2.4,0.2c0.3,0,0.9-0.2,1.3-1.1c0.1-0.2,0.2-0.5,0.2-0.9c0.1-0.5,0.1-1.2,0.1-2.1c0-1.4-0.1-2.8-0.1-2.8l0-0.1l0-0.1
	c-0.9-3-1.5-6.8-1.7-10.1C2,5.9,2.5,4.3,2.7,3.9c0.4,0.2,1,0.8,1.7,2.6c0.6,1.6,1,3.2,1,3.3c0.1,0.6,0.7,1.1,1.3,1
	c0.4,0,1.1-0.3,1.2-1.2c0-0.1,0-0.1,0-0.2c0.2-2.9,0.6-4.2,0.9-4.8C9.1,5.1,9.6,6,10.2,8c0.6,1.8,1,3.5,1,3.5l0.8,3.4l2.7-5.4
	L14.6,9c-0.3-1.6-0.7-2.9-1-3.9C13.3,4,13,3,13.1,2.6c0-0.1,0.1-0.3,1-0.7c0.1,0,0.3-0.1,0.6,0.1c0.4,0.3,1.8,1.5,3.1,6.1
	c1.1,3.8,1.7,8.9,1.9,14.6c0,0,0,0.1,0,0.1c-0.2,1-0.6,4,0.8,6.1c0.5,0.8,1.4,1.3,2.4,1.5c0,0,0.1,0,0.1,0l0-2.6
	C22.8,27.9,22.6,27.8,22.5,27.6z"/>
</svg>
