<?xml version="1.0" encoding="utf-8"?>
<!-- Generator: Adobe Illustrator 25.3.1, SVG Export Plug-In . SVG Version: 6.00 Build 0)  -->
<svg version="1.1" id="Слой_1" xmlns="http://www.w3.org/2000/svg" xmlns:xlink="http://www.w3.org/1999/xlink" x="0px" y="0px"
	 viewBox="0 0 16.3 29.7" style="enable-background:new 0 0 16.3 29.7;" xml:space="preserve">
<style type="text/css">
	.st0{fill:#B46766;}
</style>
<path class="st0" d="M16.3,2.2c-0.3,0.1-0.7,0.2-1,0.4c-1.2,0.8-1.9,2.2-2.3,4.5c-0.6,3.7-1.9,7.6-3.7,11.2
	c-1.8,3.6-4.2,6.9-6.7,9.5c-0.1,0.1-0.3,0.1-0.4,0.1c0,0-0.1-0.2-0.1-0.5v-0.1v-0.1c-0.1-0.4,0.1-1,0.2-1.6c2-6.9,3.1-14,3.4-21.1
	c0.1-1.7-0.3-3-1.2-3.9C4.3,0.4,4,0.2,3.8,0c0,0.1,0,0.3,0,0.4C3.5,7,3,13.5,1.5,19.9c-0.3,1.4-0.7,2.8-1.1,4.2
	c-1.2,4,0.5,5.3,1,5.5c1.1,0.4,2.3-0.2,2.8-0.7c2.8-2.8,4.8-5.7,6.7-9.6c1.2-2.3,2.1-4.7,2.9-7.1c0.5-1.7,0.9-3.4,1.3-5.1
	c0.2-0.8,0.4-1.6,0.6-2.4C15.8,4.4,16.1,2.2,16.3,2.2z"/>
</svg>
