<svg width="19" height="38" viewBox="0 0 19 38" fill="none" xmlns="http://www.w3.org/2000/svg">
<path d="M18.6828 2.77532C18.3475 2.71851 17.9891 2.61923 17.6484 2.60589C17.7169 2.61132 17.7659 2.62564 17.6493 2.60934C17.6067 2.60341 17.5636 2.59749 17.5209 2.59156C17.4352 2.57971 17.3494 2.56835 17.2637 2.55699C17.0922 2.53476 16.9207 2.51401 16.7488 2.49475C16.5873 2.47697 16.4253 2.46067 16.2633 2.44585C13.8389 4.31451 13.3213 9.20177 13.3213 9.20177C13.3213 9.20177 13.7364 8.92663 14.4174 8.62383C13.8471 9.5189 13.4488 10.7385 13.211 12.3088C12.5941 16.3845 11.312 20.6133 9.50318 24.5388C7.68169 28.491 5.35618 32.0614 2.77297 34.8735C2.64141 34.9308 2.44315 34.9664 2.36422 34.9427C2.34199 34.9086 2.25896 34.7589 2.22721 34.3578L2.21904 34.2526L2.19591 34.1504C2.09655 33.7112 2.26758 33.0716 2.43272 32.4531C4.42525 24.9908 5.56714 17.2692 5.82573 9.5026C5.87019 8.16494 5.68191 7.07526 5.25228 6.20342C5.65514 6.728 6.03442 7.36373 6.37785 8.13037C6.63871 7.27779 6.0199 2.9971 4.30003 0.461589C4.2846 0.458625 4.26872 0.45517 4.2533 0.452207C3.83048 0.366751 3.4072 0.281301 2.98166 0.210664C2.92223 0.200785 2.54931 0.119272 2.84873 0.18892C2.73849 0.163234 2.61917 0.158796 2.50712 0.146941C2.27892 0.122243 2.05028 0.105446 1.82072 0.0960612C1.7445 0.0930974 1.671 0.0822244 1.60023 0.0654297L1.09167 6.15649C1.9981 6.27356 2.87958 6.44793 3.07739 6.67664C3.44486 7.10144 3.74882 8.0133 3.71253 9.09705C3.46119 16.6399 2.45586 23.6917 0.491459 30.9302C-0.688087 35.2771 0.957833 36.7259 1.5349 36.9566C2.66228 37.4071 3.86224 36.6898 4.34767 36.1662C7.15997 33.1333 9.09761 29.9566 11.062 25.6942C12.9824 21.5271 14.4877 16.996 15.145 12.6536C15.449 10.6461 16.1622 8.92812 17.0051 9.14645C17.3694 9.2408 17.833 9.33613 18.3235 9.45716L18.8788 2.8094C18.8134 2.79754 18.7481 2.78618 18.6828 2.77532Z" fill="#B46766"/>
</svg>
