<svg width="19" height="39" viewBox="0 0 19 39" fill="none" xmlns="http://www.w3.org/2000/svg">
<path d="M17.8772 4.2034C16.9998 4.00927 16.1129 3.86406 15.2259 3.72772C13.4253 5.89622 13.0152 9.77036 13.0152 9.77036C13.0152 9.77036 13.8699 9.20428 15.1366 8.80269C14.6266 9.21367 14.1816 9.75357 13.8041 10.4214C13.1295 11.6153 12.7557 13.0616 12.4259 14.338C12.2843 14.8868 12.1501 15.405 12.0044 15.8639C11.4187 17.7049 10.9211 19.6051 10.4402 21.4427C9.09368 26.5883 7.82158 31.4489 4.71847 35.3635C4.46487 35.609 3.4482 35.9844 2.81941 36.0773C2.7441 35.8303 2.62841 35.1956 2.74727 33.7893C2.85751 32.4783 3.12336 31.0379 3.29939 30.0851C3.39012 29.5921 3.45591 29.2359 3.48676 28.985C3.73219 26.9785 4.00984 24.9059 4.27841 22.9014C4.54834 20.8885 4.82735 18.8074 5.07461 16.7841C5.12224 16.3929 5.17986 15.9918 5.23521 15.6036C5.48609 13.8475 5.74513 12.0312 5.32322 10.1137C5.18711 9.49424 4.98886 8.91482 4.73708 8.38183C5.19574 8.97755 5.62718 9.70071 6.01824 10.573C6.334 9.54066 5.51285 4.07794 3.24949 1.32312C2.97366 1.26137 2.69873 1.19171 2.42245 1.11663C2.16249 1.04599 1.90254 0.975356 1.64032 0.917068C1.51238 0.888419 1.35677 0.832113 1.22657 0.836558C1.26876 0.842486 1.31095 0.848901 1.35314 0.854829C1.3114 0.849395 1.27012 0.844465 1.22838 0.84002C1.15897 0.83261 1.08955 0.827171 1.01969 0.822232C0.972053 0.818774 0.925333 0.811864 0.879966 0.803467L0.324219 7.45615C1.6562 7.78562 3.18552 8.30626 3.45182 9.51646C3.75896 10.9129 3.32162 15.32 3.27036 15.7404C3.02492 17.7469 2.58622 19.9598 2.31765 21.9643C2.04771 23.9772 1.30052 31.193 1.18347 32.6833C1.01606 34.8103 0.639064 38.0675 2.27228 38.0675C3.90549 38.0675 5.52601 36.6138 5.90165 36.141C9.37314 31.77 10.8898 27.3213 12.253 22.1125C12.7244 20.311 14.2401 15.5621 14.3853 14.9994C14.9923 12.6497 15.955 10.3048 17.6114 10.3923L18.1235 4.25873C18.0414 4.24045 17.9593 4.22168 17.8772 4.2034Z" fill="#B46766"/>
</svg>
