<?xml version="1.0" encoding="utf-8"?>
<!-- Generator: Adobe Illustrator 25.3.1, SVG Export Plug-In . SVG Version: 6.00 Build 0)  -->
<svg version="1.1" id="Слой_1" xmlns="http://www.w3.org/2000/svg" xmlns:xlink="http://www.w3.org/1999/xlink" x="0px" y="0px"
	 viewBox="0 0 20.1 43.3" style="enable-background:new 0 0 20.1 43.3;" xml:space="preserve">
<style type="text/css">
	.st0{fill:#B46766;}
</style>
<path class="st0" d="M16.6,4.3c-0.7,0.4-1.3,1.1-1.5,2.1c-0.2,0.7-0.3,1.4-0.3,2.1c0,0.5-0.1,1-0.2,1.3c-1.7,6.9-3.7,13.1-6.2,19.6
	l0.3,0.1c-0.1,0.4-0.3,0.9-0.5,1.6c-0.5,1.7-1.4,4.3-2.3,6.6c-1,2.4-1.8,3.2-2.1,3.5c-0.4-1.6-1.1-5.9-0.9-7.7
	c0.1-0.7,0.2-1.4,0.3-2.1c1.1-9,2.2-17.5,1.7-26.5C4.6,4.2,4,1.7,2.4,0.6C1.8,0.2,1.2,0,0.6,0L0,2.4c0.3,0,0.6,0,1,0.2
	c0.7,0.5,1.4,1.9,1.4,2.3c0.5,8.8-0.1,15.7-1.2,24.6C1.1,30.2,1.1,33,1,33.7c-0.2,1.7,0.1,4.9,0.3,5.6c0.3,1.1,0.2,3.7,1.9,4
	c0.3,0,3.2-0.4,4.6-4.8c0.8-2.4,1.9-4.9,2.4-6.5c0.2-0.7,0.4-1.5,0.6-1.7l0,0c2.6-6.6,4.6-12.9,6.3-19.8c0.1-0.6,0.2-1.2,0.2-1.7
	c0.1-1.2,0.2-2,0.6-2.2c0,0,0.3-0.2,1.2-0.2c0.3,0,0.6-0.1,0.9-0.1l0.1-2.5C18.7,3.7,17.4,3.8,16.6,4.3z"/>
</svg>
