<svg width="21" height="51" viewBox="0 0 21 51" fill="none" xmlns="http://www.w3.org/2000/svg">
<path d="M18.3612 3.34008C16.8741 5.00622 16.2362 7.93493 16.0025 9.37483C15.7558 9.74481 15.562 10.179 15.4246 10.6759C15.2163 11.4287 15.1574 12.2097 15.1002 12.9654C15.0594 13.5039 15.0213 14.0121 14.9323 14.4063C13.2515 21.8918 11.2785 28.6636 8.72293 35.7178L9.06182 35.8636C8.93388 36.2414 8.76785 36.8174 8.53738 37.6151C7.99479 39.4942 7.17501 42.334 6.21141 44.7445C5.16887 47.3531 4.43846 48.2447 4.08732 48.546C3.67811 46.8073 2.95496 42.1196 3.18225 40.1383C3.26844 39.3865 3.35555 38.6362 3.4422 37.8868C4.57411 28.1118 5.64296 18.8787 5.09492 9.11352C5.05953 8.48471 4.65668 6.67779 3.72801 5.34508C4.82227 6.05787 5.86208 7.24831 6.7109 9.14216C6.98855 8.23475 6.38743 3.9032 4.70023 0.997223C4.10501 0.91325 3.52023 0.769508 2.93136 0.64009C2.62559 0.572911 2.32344 0.490417 2.01948 0.415829C1.87204 0.379769 1.7246 0.345687 1.5758 0.317531C1.56446 0.315061 1.55266 0.313585 1.54087 0.311609C1.49414 0.322971 1.34986 0.291347 1.30813 0.288877C1.24461 0.284925 1.18291 0.275056 1.12303 0.261719L0.61084 6.39327C0.854461 6.40611 1.11259 6.47132 1.38707 6.59679C2.08073 7.11594 2.79345 8.65759 2.82838 9.1229C3.3619 18.6346 2.76532 26.1513 1.64883 35.7969C1.56173 36.5472 1.5082 39.5885 1.422 40.3413C1.2115 42.1774 1.52045 45.6811 1.6942 46.4665C1.95915 47.6648 1.92104 50.4676 3.55425 50.7639C3.85368 50.7639 6.72995 50.3194 8.1817 45.5279C8.95521 42.9746 10.0526 40.2623 10.5862 38.4149C10.8085 37.6443 11.0385 36.8263 11.1306 36.5872L11.0956 36.5704C13.6679 29.4509 15.6587 22.6086 17.3554 15.0519C17.4906 14.4488 17.5391 13.8081 17.5859 13.1882C17.6825 11.9098 17.7791 11.0508 18.2283 10.7624C18.2387 10.7559 18.4932 10.6048 19.4359 10.5085C19.7394 10.4774 20.0502 10.4581 20.3446 10.4452L20.885 3.97483C20.0461 3.75156 19.2073 3.52137 18.3612 3.34008Z" fill="#B46766"/>
</svg>
