<?xml version="1.0" encoding="utf-8"?>
<!-- Generator: Adobe Illustrator 25.3.1, SVG Export Plug-In . SVG Version: 6.00 Build 0)  -->
<svg version="1.1" id="Слой_1" xmlns="http://www.w3.org/2000/svg" xmlns:xlink="http://www.w3.org/1999/xlink" x="0px" y="0px"
	 viewBox="0 0 13.1 39.6" style="enable-background:new 0 0 13.1 39.6;" xml:space="preserve">
<style type="text/css">
	.st0{fill:#B46766;}
</style>
<path class="st0" d="M13.1,1.5c-0.6,0.2-1.2,0.6-1.6,1.2c-0.6,0.7-0.8,1.6-0.9,2C10.2,9.3,9.4,13.9,8.4,19c-0.5,2.8-1.3,6.5-1.7,8
	c-0.2,0.9-1,3.2-1.8,5.5c-1,2.6-1.6,4-1.8,4.5c-0.1,0-0.2,0.1-0.3,0.1V37c0.3-1.1,0.6-4.9,0.9-8.7c0.1-0.8,0.1-1.4,0.1-1.7
	C4.5,19.7,4.3,16,4,10.8C3.9,9,3.8,7,3.7,4.6c0-0.3,0-0.8-0.1-1.4c0-0.6-0.1-1.2-0.1-1.4c0-0.3-0.2-1-1.1-1.4
	c-0.3-0.1-0.6-0.2-1-0.3C1.2,0.1,1,0,0.8,0C0.8,1,1,2.1,1,3.1c0,0.1,0,0.1,0,0.2c0,0,0,0,0,0.1C1,4,1.1,4.5,1.1,4.8
	C1.2,7.2,1.3,9.2,1.4,11c0.3,5.1,0.4,8.8-0.2,15.5c0,0.3-0.1,0.9-0.2,1.7c-0.2,2.4-0.6,7.3-0.9,8.3c-0.2,0.8,0,1.7,0.5,2.4
	c0.2,0.3,0.9,0.9,2.2,0.7C3.4,39.5,4,39.2,4.3,39c0.4-0.3,0.7-0.7,1.3-2.1C6,36.1,6.4,35,6.9,33.7c0.8-2.2,1.8-5,2-6.3
	c0.3-1.5,1.2-5.2,1.7-8.1c0.5-3,1.2-6,1.6-9c0.2-1.5,0.4-3,0.5-4.6C13.1,5.4,13.1,1.5,13.1,1.5z"/>
</svg>
