<svg width="18" height="48" viewBox="0 0 18 48" fill="none" xmlns="http://www.w3.org/2000/svg">
<path d="M14.2589 2.00962C12.8317 4.41225 12.4901 7.91396 12.4901 7.91396C12.4901 7.91396 12.7219 7.74699 13.1229 7.5257C13.0776 7.58201 13.0331 7.63931 12.9895 7.69858C12.4048 8.4988 12.143 9.39486 12.0967 9.91945C11.6494 14.9752 10.8523 19.9281 9.93362 25.4156C9.42233 28.4702 8.59665 32.5084 8.26547 34.1029C8.05587 35.112 7.31366 37.5932 6.46122 40.1366C5.51077 42.972 4.88062 44.5344 4.62248 45.0451C4.52177 45.0965 4.42468 45.138 4.33939 45.1686C4.33894 45.1365 4.34167 45.1054 4.34757 45.0763C4.60072 43.8606 4.94052 39.7449 5.26671 35.6337C5.33294 34.7999 5.38511 34.1414 5.41641 33.7932C6.08739 26.2943 5.90049 22.2196 5.64189 16.5805C5.55297 14.6412 5.45225 12.4436 5.37649 9.8582C5.36878 9.588 5.34519 9.08514 5.31933 8.53042C5.77119 9.17257 6.19673 9.94957 6.58235 10.8846C6.8913 9.78656 6.11053 4.07093 3.95061 1.02515C3.65254 1.0296 3.35357 1.02713 3.05234 1.02219C2.331 1.00984 1.60059 1.11258 0.886056 0.982666L0.346191 7.44519C0.666483 7.43135 0.968165 7.42493 1.22086 7.41999L1.41005 7.41604C1.71718 7.40813 2.33962 7.50742 2.77786 7.61659C2.7892 7.8695 2.80282 8.15254 2.81643 8.442C2.84501 9.04315 2.87404 9.66455 2.88266 9.94512C2.95933 12.5547 3.0605 14.7652 3.14987 16.7159C3.40302 22.2389 3.5863 26.2296 2.93301 33.5294C2.90035 33.8925 2.84773 34.5573 2.78104 35.3995C2.57644 37.9765 2.15134 43.3395 1.91452 44.4751C1.7267 45.3761 1.92814 46.3665 2.45258 47.1242C2.67261 47.4418 3.32318 48.1532 4.60888 47.8933C5.23903 47.7659 5.79342 47.4582 6.06789 47.2858C6.50386 47.0121 6.80056 46.5008 7.39215 45.0056C7.75055 44.0997 8.18879 42.887 8.66016 41.4985C9.46588 39.124 10.4086 36.1015 10.6994 34.7021C11.0342 33.0907 11.8685 29.0081 12.3884 25.9031C13.3166 20.3584 14.1224 15.3491 14.5797 10.1921C14.5946 10.1002 14.7031 9.70061 14.9694 9.35435C15.2398 9.00314 15.5641 8.84754 15.9915 8.86286C16.261 8.87274 16.5001 8.86582 16.7178 8.85347L17.274 2.19535C16.2696 2.10989 15.2652 2.04469 14.2589 2.00962Z" fill="#B46766"/>
</svg>
