<?xml version="1.0" encoding="utf-8"?>
<!-- Generator: Adobe Illustrator 25.3.1, SVG Export Plug-In . SVG Version: 6.00 Build 0)  -->
<svg version="1.1" id="Слой_1" xmlns="http://www.w3.org/2000/svg" xmlns:xlink="http://www.w3.org/1999/xlink" x="0px" y="0px"
	 viewBox="0 0 17 39.8" style="enable-background:new 0 0 17 39.8;" xml:space="preserve">
<style type="text/css">
	.st0{fill:#B46766;}
</style>
<path class="st0" d="M16.6,1.3c-0.3,0-0.5,0-0.8,0c-1.2,0-2.3,0.5-3.1,1.4c-0.6,0.7-0.8,1.6-0.9,2c-0.4,4.7-1.2,9.2-2.2,14.3
	c-0.5,2.8-1.3,6.5-1.7,8C7.7,28,7,30.3,6.1,32.6c-1,2.6-1.6,4-1.8,4.5c-0.1,0-0.2,0.1-0.3,0.1c0,0,0-0.1,0-0.1
	c0.2-1.1,0.6-4.9,0.9-8.7c0.1-0.8,0.1-1.4,0.2-1.7c0.7-6.9,0.5-10.6,0.2-15.8C5.2,9.2,5.1,7.1,5.1,4.8C5,4.5,5,3.9,5,3.3
	c0-0.6-0.1-1.2-0.1-1.4c0-0.3-0.2-1-1.1-1.4c-0.3-0.1-0.6-0.2-1-0.3C2.2,0.1,1.5,0,1,0H0.8C0.6,0,0.4,0,0.1,0L0,2.5
	c0.3,0,0.6,0,0.9,0h0.2c0.3,0,0.9,0.1,1.4,0.2c0,0.2,0,0.5,0,0.8c0,0.5,0.1,1.1,0.1,1.4c0.1,2.4,0.2,4.4,0.3,6.2
	c0.2,5.1,0.4,8.8-0.2,15.5c0,0.3-0.1,0.9-0.1,1.7c-0.2,2.4-0.6,7.3-0.9,8.4c-0.2,0.8,0,1.7,0.5,2.4c0.2,0.3,0.9,1,2.2,0.7
	c0.6-0.1,1.2-0.4,1.5-0.6c0.4-0.2,0.7-0.7,1.3-2.1c0.4-0.8,0.8-2,1.3-3.2c0.8-2.2,1.8-5,2-6.3c0.3-1.5,1.2-5.2,1.7-8.1
	c0.9-5.1,1.7-9.7,2.2-14.5c0-0.1,0.1-0.5,0.4-0.8c0.3-0.3,0.6-0.5,1-0.4c0.4,0,0.8,0,1.1,0c0.1,0,0.1,0,0.2,0L17,1.3
	C16.9,1.3,16.7,1.3,16.6,1.3z"/>
</svg>
