<?xml version="1.0" encoding="utf-8"?>
<!-- Generator: Adobe Illustrator 25.3.1, SVG Export Plug-In . SVG Version: 6.00 Build 0)  -->
<svg version="1.1" id="Слой_1" xmlns="http://www.w3.org/2000/svg" xmlns:xlink="http://www.w3.org/1999/xlink" x="0px" y="0px"
	 viewBox="0 0 17.6 42.1" style="enable-background:new 0 0 17.6 42.1;" xml:space="preserve">
<style type="text/css">
	.st0{fill:#B46766;}
</style>
<path class="st0" d="M15.7,1.2c-0.5,0.1-2.2,0.5-2.4,1.8c-0.1,0.3-0.2,0.8-0.3,1.3c-0.3,1.4-0.6,3.2-0.8,4.2
	c-0.2,0.9-0.3,1.8-0.4,2.9c-0.3,2-0.6,4-1,5.7c-0.6,2.5-1.5,5.3-2.3,7.9c-0.4,1.4-0.8,2.6-1.2,3.9c-0.2,0.8-1,3.3-2,5.8
	c-1,2.5-1.7,3.8-2.2,4.4c-0.2-0.9-0.4-2.3-0.5-4.4c-0.2-2.9-0.2-5.9-0.1-7.8C3.2,20.1,3.8,14.2,4.4,8c0-0.4,0.1-0.8,0.2-1.2
	c0.2-1,0.4-2.1,0.2-3.1C4.7,2.3,4,1.2,2.8,0.5C1.9,0,1.3,0,0.6,0L0.5,2.5c0.4,0,0.7,0,1,0.2c1.1,0.6,1,1.6,0.6,3.7
	C2.1,6.8,2,7.3,1.9,7.8c-0.6,6.2-1.2,12.1-1.8,18.7c-0.2,2.1-0.2,5.3,0.1,8.4c0.1,1.5,0.3,2.8,0.4,3.9c0.3,1.7,0.6,2.3,0.8,2.7
	l0.2,0.2l0.2,0.1c0.5,0.3,1.1,0.3,1.7,0.1c0.9-0.3,2.1-1.4,4.1-6.3c1-2.6,1.9-5.3,2.1-6.1c0.4-1.2,0.8-2.5,1.2-3.9
	c0.8-2.7,1.7-5.5,2.3-8c0.4-1.8,0.7-3.9,1-5.9c0.1-1,0.3-1.9,0.4-2.8c0.1-0.9,0.5-2.7,0.8-4.1c0.1-0.4,0.1-0.7,0.2-1
	c0.2-0.1,0.7-0.2,1.4-0.3c0.2,0,0.3,0,0.5,0l0.1-2.5C17,1,16.3,1,15.7,1.2z"/>
</svg>
