<svg width="18" height="51" viewBox="0 0 18 51" fill="none" xmlns="http://www.w3.org/2000/svg">
<path d="M17.4033 0.73452C16.8353 0.828867 16.2682 0.929642 15.7024 1.03782C15.3817 3.10505 14.8441 5.12782 14.3882 7.16739C14.4834 7.12145 14.5837 7.07553 14.6885 7.02909C14.5637 7.12887 14.4467 7.24199 14.3432 7.36992C14.287 7.62579 14.2316 7.88167 14.1786 8.13853C14.13 8.37267 14.0143 8.56383 13.8601 8.70708C13.8075 9.0005 13.7462 9.33688 13.6809 9.69846C13.3987 11.2554 13.0476 13.1928 12.8929 14.2123C12.7459 15.1785 12.6125 16.2193 12.4714 17.3208C12.1956 19.4705 11.9107 21.6938 11.5055 23.4963C10.8913 26.2324 10.0538 29.212 9.24399 32.0927C8.82933 33.5687 8.43737 34.9627 8.07171 36.3319C7.84941 37.1643 7.05911 39.9117 6.08327 42.5914C5.09336 45.3097 4.37248 46.6953 3.91972 47.3942C3.74006 46.4201 3.53954 44.8439 3.39391 42.6062C3.1893 39.4646 3.1707 36.2114 3.34491 34.1165C3.93967 26.9585 4.51584 20.4975 5.15778 13.7835C5.19635 13.3824 5.26711 12.9393 5.34197 12.4701C5.50438 11.4545 5.68676 10.3095 5.5865 9.20401C5.48034 8.76438 5.38643 8.32129 5.30387 7.87524C5.19408 7.56751 5.05615 7.28052 4.8892 7.01526C4.99718 7.11702 5.10425 7.2247 5.20995 7.33831C5.16186 7.04292 5.11831 6.74605 5.08065 6.44819C5.01578 5.93645 4.95726 5.4242 4.91552 4.90949C4.89828 4.69511 4.88603 4.47974 4.87061 4.26536C4.87015 4.25894 4.8697 4.25253 4.8697 4.2461C4.83976 4.18386 4.84157 3.99418 4.8334 3.93589C4.71409 3.07541 4.59568 2.25148 4.69685 1.39149C3.56721 1.30258 2.43802 1.20725 1.30475 1.23194C1.29296 1.23244 1.28161 1.23194 1.26982 1.23145L0.716797 7.85203C0.838381 7.84511 0.953619 7.83672 1.06295 7.82832C1.64955 7.78386 1.86912 7.76756 2.25746 8.00762C3.3 8.65126 3.24873 9.71921 2.88353 12.0033C2.80459 12.4973 2.72293 13.008 2.67574 13.502C2.03244 20.2283 1.45538 26.7011 0.859256 33.8715C0.669621 36.1531 0.691387 39.643 0.916408 42.9787C1.0262 44.6048 1.17682 46.0679 1.35284 47.2105C1.64365 49.1004 1.94533 49.7455 2.17534 50.0962L2.33187 50.3348L2.56505 50.482C3.09085 50.8134 3.70149 50.8559 4.28491 50.601C5.1428 50.2266 6.38042 49.1068 8.35253 43.729C9.38554 40.9124 10.2294 37.9813 10.4675 37.0897C10.8282 35.7387 11.2174 34.3536 11.6298 32.887C12.4501 29.9692 13.298 26.9521 13.9295 24.1404C14.3641 22.2041 14.6581 19.9121 14.9425 17.6957C15.0818 16.611 15.2129 15.587 15.3545 14.6544C15.5028 13.6763 15.8649 11.6807 16.1289 10.2235C16.2015 9.82195 16.2691 9.45099 16.3253 9.13534C16.519 9.05285 16.8774 8.93875 17.4309 8.85675L17.6047 0.700439C17.538 0.712295 17.4704 0.723159 17.4033 0.73452Z" fill="#B46766"/>
</svg>
