<?xml version="1.0" encoding="utf-8"?>
<!-- Generator: Adobe Illustrator 25.3.1, SVG Export Plug-In . SVG Version: 6.00 Build 0)  -->
<svg version="1.1" id="Слой_1" xmlns="http://www.w3.org/2000/svg" xmlns:xlink="http://www.w3.org/1999/xlink" x="0px" y="0px"
	 viewBox="0 0 15.5 41.6" style="enable-background:new 0 0 15.5 41.6;" xml:space="preserve">
<style type="text/css">
	.st0{fill:#B46766;}
</style>
<path class="st0" d="M0.1,4.4C0,3.2,0,1.9,0,0.7c0.7,0.2,2,0.6,2.2,1.7c0.1,0.3,0.2,0.8,0.3,1.3c0.3,1.4,0.6,3.2,0.8,4.2
	c0.1,0.9,0.3,1.8,0.4,2.9c0.3,2,0.6,4,1,5.7C5.3,19,6.2,21.8,7,24.4c0.4,1.4,0.8,2.6,1.2,3.9c0.2,0.8,1,3.3,2,5.8s1.7,3.8,2.2,4.4
	c0.2-0.9,0.4-2.3,0.5-4.4c0.2-2.9,0.2-5.9,0-7.8c-0.6-6.6-1.2-12.5-1.8-18.7c0-0.4-0.1-0.8-0.2-1.2c-0.2-1-0.4-2.1-0.2-3.2
	c0.2-1.4,0.9-2.4,2.1-3.1C12.9,0.1,12.9,0,13,0c0,1.3,0,2.6,0.2,3.9c0,0.5,0.1,1.2,0.2,2.1c0.1,0.5,0.2,0.9,0.2,1.4
	c0.6,6.2,1.2,12.1,1.8,18.7c0.2,2.1,0.2,5.3-0.1,8.4c-0.1,1.5-0.3,2.8-0.4,3.9c-0.3,1.7-0.6,2.3-0.8,2.7l-0.2,0.2l-0.2,0.1
	c-0.5,0.3-1.1,0.3-1.7,0.1c-0.9-0.3-2.1-1.4-4.1-6.3c-1-2.6-1.9-5.3-2.1-6.1c-0.4-1.2-0.8-2.5-1.2-3.9c-0.8-2.7-1.7-5.5-2.3-8
	c-0.4-1.8-0.7-3.9-1-5.9c-0.1-1-0.3-1.9-0.4-2.8C0.8,7.7,0.5,6.2,0.2,4.9C0.1,4.6,0.1,4.5,0.1,4.4z"/>
</svg>
