<?xml version="1.0" encoding="utf-8"?>
<!-- Generator: Adobe Illustrator 25.3.1, SVG Export Plug-In . SVG Version: 6.00 Build 0)  -->
<svg version="1.1" id="Слой_1" xmlns="http://www.w3.org/2000/svg" xmlns:xlink="http://www.w3.org/1999/xlink" x="0px" y="0px"
	 viewBox="0 0 16.3 42.1" style="enable-background:new 0 0 16.3 42.1;" xml:space="preserve">
<style type="text/css">
	.st0{fill:#B46766;}
</style>
<path class="st0" d="M15.5,0.1c-1.1,0.2-1.9,0.7-2.6,1.4c-1.6,1.8-1.3,4.2-1.1,6c0,0.1,0,0.3,0,0.4c0.1,1.1,0.2,2.2,0.4,3.3
	c0.2,1.4,0.3,2.9,0.5,4.3c0.5,4.9,1,9.7,1,14.6c0,1.4-0.2,6.5-0.3,7.4c-0.1,0.6-0.2,1.1-0.3,1.4c-0.7-1.2-1.8-3.4-2.2-4.4
	C7.4,25.7,5.8,18.4,4,9.2C3.8,8.5,3.8,7.8,3.7,7C3.6,6.2,3.5,5.4,3.3,4.7C3.2,4,3,2.8,3,2.2c0-0.2-0.1-1-1.1-1.3
	C1.6,0.8,1.3,0.7,0.9,0.7c-0.2,0-0.5,0-0.8,0L0,3.2c0.2,0,0.4,0,0.6,0c0.1,0.8,0.3,1.6,0.3,2C1,5.8,1.1,6.5,1.2,7.3
	c0.1,0.8,0.2,1.6,0.3,2.4C3.3,18.8,5,26.5,8.6,35.5c0.4,1,2,4.5,3,5.7c0.5,0.6,1.1,0.9,1.6,0.9c0.2,0,0.3,0,0.5-0.1
	c1.1-0.3,1.7-1.5,2.2-4c0.2-1.2,0.4-6.7,0.4-7.9c0-5-0.5-9.9-1-14.9c-0.2-1.4-0.3-2.9-0.5-4.3c-0.1-1.1-0.3-2.2-0.4-3.3
	c0-0.1,0-0.3-0.1-0.4c-0.2-1.5-0.4-3.1,0.5-4.1c0.3-0.3,0.7-0.5,1.2-0.6L16.1,0C15.9,0,15.7,0.1,15.5,0.1z"/>
</svg>
