<svg width="18" height="51" viewBox="0 0 18 51" fill="none" xmlns="http://www.w3.org/2000/svg">
<path d="M16.4212 21.8506C16.2743 20.3193 16.1014 18.7258 15.934 17.1846C15.807 16.0139 15.6759 14.8037 15.5584 13.6434C15.5438 13.4992 15.528 13.3525 15.5121 13.2028C15.3415 11.5984 15.1482 9.77962 15.9866 8.7428C16.2534 8.41332 16.683 8.16584 17.1966 8.0463L17.0822 0.135986C16.3577 0.164636 15.6328 0.191306 14.9073 0.180933C12.4294 3.03307 11.5275 9.40964 11.856 10.5759C12.4357 9.17105 13.1049 8.12286 13.8194 7.35278C12.5809 9.25058 12.8404 11.6957 13.0337 13.515C13.0491 13.6597 13.0641 13.8015 13.0781 13.9408C13.1966 15.1115 13.3286 16.3271 13.4561 17.5032C13.6221 19.0355 13.794 20.6201 13.9397 22.1331C14.4496 27.4388 14.9092 32.6452 14.9309 38.0022C14.9368 39.4856 14.7649 45.0283 14.5893 46.0434C14.4714 46.7271 14.357 47.223 14.2572 47.5801C13.5395 46.322 12.4743 43.9258 12.0751 42.8302C8.56455 33.1925 6.99168 25.3222 5.1525 15.2557C5.02003 14.532 4.93384 13.7254 4.8422 12.8713C4.75282 12.036 4.66028 11.1721 4.51873 10.3734C4.38535 9.61958 4.1762 8.26365 4.12902 7.61064C4.12584 7.56569 4.11859 7.50147 4.10316 7.42441C5.15523 8.20685 6.15238 9.48027 6.97126 11.465C7.32286 10.2153 6.26309 2.98615 3.36595 0.516335C3.26433 0.551901 3.15816 0.572645 3.05155 0.575608C2.23494 0.598331 1.42107 0.67934 0.604912 0.710954L0.431152 8.85789C0.510998 8.84604 0.594919 8.83467 0.682931 8.82429C1.09849 8.77539 1.46324 8.76354 1.7427 8.76997C1.84931 9.59143 2.00039 10.5038 2.06844 10.8881C2.1923 11.5875 2.27578 12.364 2.3638 13.1865C2.4568 14.0564 2.55341 14.9554 2.70494 15.7862C4.50964 25.6645 6.17462 34.0016 9.75545 43.8319C10.1406 44.889 11.7852 48.7553 12.7891 50.005C13.3004 50.6412 13.8439 50.9613 14.4097 50.9613C14.5612 50.9613 14.7141 50.9386 14.8683 50.8926C15.9326 50.5765 16.5619 49.3174 17.0409 46.5463C17.2764 45.1849 17.4307 39.2835 17.4252 37.9903C17.4039 32.5078 16.938 27.2274 16.4212 21.8506Z" fill="#B46766"/>
</svg>
