<?xml version="1.0" encoding="utf-8"?>
<!-- Generator: Adobe Illustrator 25.3.1, SVG Export Plug-In . SVG Version: 6.00 Build 0)  -->
<svg version="1.1" id="Слой_1" xmlns="http://www.w3.org/2000/svg" xmlns:xlink="http://www.w3.org/1999/xlink" x="0px" y="0px"
	 viewBox="0 0 16.1 40.1" style="enable-background:new 0 0 16.1 40.1;" xml:space="preserve">
<style type="text/css">
	.st0{fill:#B46766;}
</style>
<path class="st0" d="M12,2.6c-0.7,1.4-0.9,3.1-1,4.7c-0.4,8.2-0.6,18.9,0.8,28.6c0.1,0.3,0.1,0.6,0.1,0.9c-0.4-0.5-0.8-1.2-1.1-1.7
	C9,32,8.2,27.8,7.5,24.2l-0.1-0.5c-1.1-5.6-2-10-2.8-15.7c-0.1-0.5-0.1-1-0.1-1.5c0-0.4,0-0.9-0.1-1.3C4.2,3.9,4,2.7,3.2,1.9
	c0,0,0,0,0-0.1C2.9,1.5,2.6,1.4,2.1,1.3c-0.5-0.1-1.2-0.1-2,0L0,3.9c0,0,0,0,0,0c0.4-0.1,0.9-0.1,1.5-0.1C1.6,4,1.7,4.3,1.8,5.3
	c0,0.4,0.1,0.8,0.1,1.2C2,7.1,2,7.7,2.1,8.2C2.9,14,3.8,18.5,4.9,24.1L5,24.7c0.8,3.8,1.6,8.2,3.5,11.7c0.4,0.7,1.4,2.2,2.1,2.9
	c1.1,1.1,2.1,0.9,2.5,0.6c0.7-0.3,1.1-1.1,1.2-2.3c0.1-0.6,0-1.4-0.1-2c-1.4-9.5-1.1-20-0.8-28.1c0.1-1.3,0.2-2.7,0.7-3.7
	c0.3-0.5,0.8-1.1,2-1.3L16,0C14.1,0.2,12.8,1.1,12,2.6z"/>
</svg>
