<svg width="16" height="49" viewBox="0 0 16 49" fill="none" xmlns="http://www.w3.org/2000/svg">
<path d="M12.7906 1.20149C10.7233 4.28629 9.97697 9.80681 10.2805 10.8841C10.7999 9.62552 11.3906 8.6539 12.0217 7.91098C11.3611 9.37262 11.2028 11.1469 11.1334 12.8541C10.7691 21.7587 10.5291 33.3328 11.9159 43.8809C11.9613 44.2261 11.9804 44.5695 11.9813 44.8782C11.5979 44.3116 11.1388 43.5405 10.8907 43.0411C9.16899 39.5814 8.3442 35.0681 7.61651 31.0862L7.51126 30.5113C6.39886 24.44 5.52011 19.6451 4.72301 13.4182C4.65768 12.9094 4.62683 12.3117 4.59643 11.7333C4.57148 11.2586 4.54607 10.7681 4.50115 10.3028C4.38456 9.09156 4.16227 7.746 3.39965 6.94677C3.38468 6.93096 3.3747 6.9191 3.35519 6.89539C3.33206 6.86724 3.30892 6.84057 3.28533 6.81439C4.63137 7.25154 5.55096 7.91345 5.55096 7.91345C5.55096 7.91345 5.12769 3.57448 3.25493 1.24248C2.19652 1.22569 1.13947 1.16296 0.0810547 1.15111L0.194915 9.04611C0.195369 9.04611 0.195825 9.04561 0.196732 9.04561C0.616831 8.9483 1.09046 8.92558 1.7061 8.97547C1.78458 9.14046 1.92022 9.56083 2.01912 10.5868C2.05769 10.9874 2.08083 11.425 2.10487 11.8879C2.13799 12.5206 2.17202 13.1751 2.25141 13.7936C3.05849 20.099 3.94361 24.9285 5.06372 31.0433L5.1685 31.6168C5.93067 35.7873 6.79446 40.5145 8.69579 44.3358C9.05465 45.057 10.0582 46.7794 10.7509 47.4917C11.8946 48.6679 12.8129 48.4219 13.2584 48.1704C13.9375 47.7871 14.3363 46.9583 14.4438 45.7056C14.501 45.0367 14.4792 44.2108 14.3853 43.4961C13.0279 33.1713 13.2661 21.7617 13.6254 12.9751C13.6853 11.5125 13.8096 10.0192 14.3109 9.00166C14.5618 8.49337 14.9732 7.91889 15.9436 7.6393L15.847 0.940186C14.8294 1.04145 13.8114 1.14419 12.7906 1.20149Z" fill="#B46766"/>
</svg>
