<?xml version="1.0" encoding="utf-8"?>
<!-- Generator: Adobe Illustrator 25.3.1, SVG Export Plug-In . SVG Version: 6.00 Build 0)  -->
<svg version="1.1" id="Слой_1" xmlns="http://www.w3.org/2000/svg" xmlns:xlink="http://www.w3.org/1999/xlink" x="0px" y="0px"
	 viewBox="0 0 13.1 39.6" style="enable-background:new 0 0 13.1 39.6;" xml:space="preserve">
<style type="text/css">
	.st0{fill:#B46766;}
</style>
<path class="st0" d="M0,1.5c0.6,0.2,1.2,0.6,1.6,1.2c0.6,0.7,0.8,1.6,0.9,2C2.9,9.3,3.7,13.9,4.7,19c0.5,2.8,1.3,6.5,1.7,8
	c0.2,0.9,1,3.2,1.8,5.5c1,2.6,1.6,4,1.8,4.5c0.1,0,0.2,0.1,0.3,0.1V37c-0.3-1.1-0.6-4.9-0.9-8.7c-0.1-0.8-0.1-1.4-0.1-1.7
	C8.6,19.7,8.8,16,9.1,10.8C9.2,9,9.3,7,9.4,4.6c0-0.3,0-0.8,0.1-1.4c0-0.6,0.1-1.2,0.1-1.4c0-0.3,0.2-1,1.1-1.4
	c0.3-0.1,0.6-0.2,1-0.3c0.2,0,0.4-0.1,0.6-0.1c0,1-0.2,2.1-0.2,3.1c0,0.1,0,0.1,0,0.2c0,0,0,0,0,0.1C12.1,4,12,4.5,12,4.8
	c-0.1,2.4-0.2,4.4-0.3,6.2c-0.3,5.1-0.4,8.8,0.2,15.5c0,0.3,0.1,0.9,0.2,1.7c0.2,2.4,0.6,7.3,0.9,8.3c0.2,0.8,0,1.7-0.5,2.4
	c-0.2,0.3-0.9,0.9-2.2,0.7c-0.6-0.1-1.2-0.4-1.5-0.6c-0.4-0.3-0.7-0.7-1.3-2.1c-0.4-0.8-0.8-1.9-1.3-3.2c-0.8-2.2-1.8-5-2-6.3
	c-0.3-1.5-1.2-5.2-1.7-8.1c-0.5-3-1.2-6-1.6-9c-0.2-1.5-0.4-3-0.5-4.6C0.1,5.4,0.1,1.5,0,1.5z"/>
</svg>
