<svg width="21" height="50" viewBox="0 0 21 50" fill="none" xmlns="http://www.w3.org/2000/svg">
<path d="M18.6869 14.769C18.706 12.4415 18.7327 9.25444 19.9463 7.70932C20.2199 7.36108 20.5424 7.10373 20.8904 6.91504L20.8047 0.972168C20.7579 0.984023 20.7108 0.991926 20.6631 0.996866C20.2739 1.10257 19.881 1.18704 19.4908 1.28879C18.9863 1.42019 18.4882 1.53628 17.9706 1.59358C17.8658 1.60543 17.7651 1.59456 17.6702 1.5674C15.9413 4.72283 15.3248 9.51722 15.6051 10.5135C16.0153 9.52019 16.4698 8.70516 16.9535 8.04078C16.2299 10.1693 16.2085 12.73 16.1922 14.7448C16.1895 15.0713 16.1867 15.3801 16.1818 15.6715C16.1015 20.1226 16.0742 23.8471 16.5111 27.8679C16.7117 29.7159 17.0002 31.5312 17.2792 33.2867C17.4693 34.4816 17.6652 35.717 17.8313 36.9455C18.2818 40.2847 18.3716 42.6937 18.1416 45.2604C18.1112 45.5973 17.9207 46.4691 17.7324 47.0505C17.6512 46.9887 17.5568 46.9063 17.4516 46.7986C17.1249 46.4637 16.8781 46.0749 16.7656 45.8437C16.0933 44.4601 15.5498 42.5643 15.024 40.7307C14.7454 39.7591 14.4823 38.8413 14.2037 38.011C13.8467 36.9475 13.4733 35.9442 13.1122 34.9746C12.6327 33.6868 12.1799 32.4707 11.7644 31.1281C11.2603 29.499 10.8039 28.0981 10.3625 26.7442C9.44701 23.935 8.65625 21.5087 7.79201 18.1097C7.63867 17.5056 7.40095 16.2954 7.14916 15.0136C6.45868 11.4965 6.10936 9.88869 5.76775 9.08452C5.9034 9.17047 5.97688 9.22332 5.97688 9.22332C5.97688 9.22332 5.58355 5.18962 3.87684 2.8107C3.48623 2.80576 3.09608 2.80477 2.70547 2.81317C2.3634 2.82058 2.02133 2.83539 1.68017 2.86059C1.5105 2.87343 1.34036 2.88874 1.17114 2.90702C1.08676 2.9164 1.00238 2.92777 0.917546 2.93715C0.90439 2.93863 0.893503 2.93963 0.884429 2.94061C0.8808 2.94111 0.877614 2.9416 0.873531 2.9421C0.864911 2.94358 0.856764 2.94456 0.848145 2.94555L0.944771 9.63973C1.22786 9.55823 1.55768 9.50142 1.94557 9.4787C2.60203 9.44066 3.08973 9.68122 3.52117 10.2582C3.79065 10.9043 4.38585 13.9362 4.70887 15.5811C4.97971 16.9608 5.21381 18.1522 5.38711 18.8339C6.27449 22.3262 7.07931 24.7945 8.01069 27.6526C8.44894 28.9967 8.9017 30.3867 9.39937 31.995C9.83853 33.4156 10.3271 34.7271 10.7994 35.9956C11.1524 36.9435 11.5176 37.924 11.8596 38.9431C12.1178 39.7132 12.3723 40.6008 12.6422 41.5408C13.2016 43.492 13.78 45.5093 14.5603 47.1147C14.9709 47.9594 16.3297 49.9431 18.0405 49.9431C18.2119 49.9431 18.387 49.9234 18.5653 49.8799C19.4895 49.6561 19.9141 48.5749 20.2076 47.5464C20.4318 46.761 20.5901 45.9183 20.6255 45.5241C20.8001 43.574 20.8981 40.9827 20.3006 36.5503C20.1305 35.2873 19.9313 34.0346 19.7385 32.8229C19.465 31.1029 19.1823 29.3241 18.9895 27.5488C18.5717 23.6999 18.5985 20.0697 18.6769 15.7244C18.6815 15.4186 18.6842 15.103 18.6869 14.769Z" fill="#B46766"/>
</svg>
