<?xml version="1.0" encoding="utf-8"?>
<!-- Generator: Adobe Illustrator 25.3.1, SVG Export Plug-In . SVG Version: 6.00 Build 0)  -->
<svg version="1.1" id="Слой_1" xmlns="http://www.w3.org/2000/svg" xmlns:xlink="http://www.w3.org/1999/xlink" x="0px" y="0px"
	 viewBox="0 0 17.1 42.9" style="enable-background:new 0 0 17.1 42.9;" xml:space="preserve">
<style type="text/css">
	.st0{fill:#B46766;}
</style>
<path class="st0" d="M0.4,4.9C0.3,4.5,0.2,4.2,0.1,3.8c0-0.1,0-0.2-0.1-0.3C0.7,3.6,1.2,3.7,1.7,4C2.4,4.4,3,5.1,3.2,6.1
	c0.2,0.7,0.3,1.4,0.3,2.1c0,0.5,0.1,1,0.2,1.3c1.7,6.9,3.7,13.1,6.2,19.6l-0.3,0.1c0.1,0.3,0.3,0.9,0.5,1.6c0.5,1.7,1.4,4.3,2.3,6.6
	c1,2.4,1.8,3.2,2.1,3.5c0.4-1.6,1.1-5.9,0.9-7.7c-0.1-0.7-0.2-1.4-0.3-2.1c-0.8-6.6-1.7-13.3-1.8-20c0-2.1-0.1-4.2,0.1-6.3
	c0.2-1.9,1-3.8,2.7-4.8C16,0.1,16,1.4,15.9,1.6c-0.1,0.5-0.1,1-0.2,1.5c-0.5,6.2-0.3,12.5,0.3,18.7c0.2,2.4,0.5,4.9,0.8,7.3
	c0.1,0.7,0.1,3.5,0.2,4.2c0.2,1.7-0.1,4.9-0.3,5.6c-0.3,1.1-0.2,3.7-1.9,4c-0.3,0-3.2-0.4-4.6-4.8c-0.8-2.3-1.9-4.8-2.4-6.5
	c-0.2-0.7-0.5-1.5-0.5-1.7C4.7,23.4,2.7,17.1,1,10.1C0.9,9.5,0.8,9,0.8,8.4C0.7,7.6,0.7,7.1,0.5,6.7C0.7,6.1,0.5,5.5,0.4,4.9z"/>
</svg>
