<?xml version="1.0" encoding="utf-8"?>
<!-- Generator: Adobe Illustrator 25.3.1, SVG Export Plug-In . SVG Version: 6.00 Build 0)  -->
<svg version="1.1" id="Слой_1" xmlns="http://www.w3.org/2000/svg" xmlns:xlink="http://www.w3.org/1999/xlink" x="0px" y="0px"
	 viewBox="0 0 20 42.3" style="enable-background:new 0 0 20 42.3;" xml:space="preserve">
<style type="text/css">
	.st0{fill:#B46766;}
</style>
<path class="st0" d="M16.9,1.8c-1.8,2.1-1.8,5.6-1.9,8.1c0,0.3,0,0.6,0,0.8c-0.1,4.1-0.1,7.5,0.3,11.2c0.2,1.7,0.5,3.4,0.8,5
	c0.2,1.1,0.4,2.2,0.6,3.4c0.4,3.1,0.5,5.3,0.3,7.7c0,0.3-0.2,1.1-0.4,1.6c-0.1-0.1-0.2-0.1-0.3-0.2c-0.3-0.3-0.6-0.7-0.7-0.9
	c-0.7-1.3-1.2-3-1.8-4.7c-0.3-0.9-0.5-1.7-0.8-2.5c-0.4-1-0.7-1.9-1.1-2.8c-0.5-1.2-0.9-2.3-1.4-3.5c-0.5-1.5-1-2.8-1.4-4
	c-0.9-2.6-1.7-4.8-2.6-7.9c-0.2-0.6-0.4-1.7-0.6-2.9c-0.8-4-1.2-5.3-1.6-5.9C3.4,3.1,2.1,2.5,0.6,2.5c-0.2,0-0.4,0-0.6,0.1l0.1,2.5
	C0.3,5.1,0.5,5,0.8,5c0.7,0,1.1,0.2,1.6,0.7c0.3,0.6,0.9,3.4,1.2,4.9c0.3,1.3,0.5,2.4,0.7,3c0.9,3.2,1.7,5.5,2.6,8.1
	c0.4,1.2,0.9,2.5,1.4,4c0.4,1.3,0.9,2.5,1.4,3.7c0.3,0.9,0.7,1.8,1.1,2.7c0.3,0.7,0.5,1.5,0.8,2.4c0.6,1.8,1.1,3.6,1.9,5.1
	c0.4,0.8,1.8,2.6,3.5,2.6c0.2,0,0.4,0,0.5-0.1c0.9-0.2,1.4-1.2,1.6-2.1c0.2-0.7,0.4-1.5,0.4-1.9c0.2-1.8,0.3-4.2-0.3-8.3
	c-0.2-1.2-0.4-2.3-0.6-3.4c-0.3-1.6-0.6-3.2-0.8-4.9c-0.4-3.5-0.4-6.9-0.3-10.9c0-0.3,0-0.6,0-0.9c0-2.1,0.1-5.1,1.3-6.5
	C19.2,3,19.6,2.8,20,2.6L19.9,0C18.7,0.3,17.7,0.9,16.9,1.8z"/>
</svg>
