<svg width="19" height="38" viewBox="0 0 19 38" fill="none" xmlns="http://www.w3.org/2000/svg">
<path d="M18.1635 32.4312C17.1141 26.6983 16.5838 20.6393 16.0711 14.78C15.9904 13.8562 15.9065 12.9004 15.8225 11.9658C15.7087 10.6983 15.8747 9.80772 16.3951 8.8929C16.748 8.27298 17.4049 7.76321 18.3513 7.37446L18.2551 0.714844C16.9526 1.21325 15.6606 1.75019 14.3445 2.19921C12.7698 5.34625 12.2127 9.80327 12.4817 10.7596C12.9158 9.70744 13.4004 8.85536 13.9162 8.17023C13.3777 9.38587 13.1989 10.6697 13.3391 12.2306C13.4226 13.1617 13.5061 14.1156 13.5868 15.0378C14.1058 20.9649 14.6421 27.0935 15.7164 32.9622C15.7431 33.1094 15.7753 33.266 15.8094 33.4315C15.8697 33.7254 16.0044 34.3809 16.0289 34.8245C15.5762 34.5928 14.8685 34.1147 14.5804 33.8435C13.3718 32.7049 12.0947 30.5295 10.8875 27.5524C9.94339 25.2248 9.38312 23.2327 9.37767 23.2134L9.36996 23.1877C9.33957 23.0855 6.30767 12.9533 5.97558 11.7554C5.88213 11.419 5.7061 10.89 5.53144 10.3901C6.01596 10.6475 6.30088 10.8525 6.30088 10.8525C6.30088 10.8525 5.88259 6.55892 4.03479 4.21852C2.94462 4.38795 1.84991 4.53416 0.817357 4.97132C0.812821 4.9733 0.808736 4.97478 0.804199 4.97627L0.889949 10.9157C1.51647 10.5763 2.2251 10.4622 2.87476 10.4558C3.12065 11.1172 3.46453 12.1017 3.58657 12.5413C3.9241 13.757 6.82667 23.4589 6.99362 24.0176C7.13834 24.5323 9.44891 32.6022 12.9472 35.8979C13.2516 36.1849 13.8119 36.5978 14.3413 36.9258C15.4124 37.5897 15.9405 37.6663 16.2803 37.6613C17.1999 37.6445 17.7298 37.1748 18.0124 36.7835C18.8236 35.6618 18.4887 34.0302 18.2442 32.8387C18.2138 32.6886 18.1848 32.5473 18.1635 32.4312Z" fill="#B46766"/>
</svg>
