<?xml version="1.0" encoding="utf-8"?>
<!-- Generator: Adobe Illustrator 25.3.1, SVG Export Plug-In . SVG Version: 6.00 Build 0)  -->
<svg version="1.1" id="Слой_1" xmlns="http://www.w3.org/2000/svg" xmlns:xlink="http://www.w3.org/1999/xlink" x="0px" y="0px"
	 viewBox="0 0 17.5 30.4" style="enable-background:new 0 0 17.5 30.4;" xml:space="preserve">
<style type="text/css">
	.st0{fill:#B46766;}
</style>
<path class="st0" d="M13.3,2.6c-0.8,1.3-1.1,2.7-0.9,4.4c0.1,0.9,0.2,1.7,0.2,2.6c0.5,5.5,1.1,11.1,2.1,16.5c0,0.1,0.1,0.3,0.1,0.4
	c0.1,0.3,0.2,0.9,0.2,1.3c-0.5-0.2-1.2-0.6-1.5-0.9c-1.2-1.1-2.5-3.1-3.7-5.8c-1-2.1-1.5-4-1.5-4l0,0C8.4,17,5.3,7.7,5,6.6
	C4.9,6.1,4.6,5.4,4.4,4.8C4.2,4.5,4.1,4.2,4,4C3.8,3.6,3.6,3,2.8,2.9c-1-0.1-2,0-2.8,0.2l0.1,2.6c0.6-0.2,1.2-0.3,1.8-0.3
	C2.1,6,2.5,6.9,2.6,7.3c0.3,1.1,3.2,10,3.4,10.6c0.1,0.5,2.5,7.9,6,10.9c0.3,0.3,0.9,0.6,1.4,1c1.1,0.6,1.6,0.7,1.9,0.7
	c0.9,0,1.5-0.4,1.7-0.8c0.8-1,0.5-2.5,0.2-3.6c0-0.1-0.1-0.3-0.1-0.4c-1-5.3-1.6-10.8-2.1-16.2c-0.1-0.9-0.2-1.7-0.2-2.6
	c-0.1-1.2,0.1-2,0.6-2.8c0.3-0.5,0.9-1,1.7-1.3L17,0C15.3,0.5,14,1.4,13.3,2.6z"/>
</svg>
