<?xml version="1.0" encoding="utf-8"?>
<!-- Generator: Adobe Illustrator 25.3.1, SVG Export Plug-In . SVG Version: 6.00 Build 0)  -->
<svg version="1.1" id="Слой_1" xmlns="http://www.w3.org/2000/svg" xmlns:xlink="http://www.w3.org/1999/xlink" x="0px" y="0px"
	 viewBox="0 0 16.3 29.7" style="enable-background:new 0 0 16.3 29.7;" xml:space="preserve">
<style type="text/css">
	.st0{fill:#B46766;}
</style>
<path class="st0" d="M0,2.2c0.3,0.1,0.7,0.2,1,0.4c1.2,0.8,1.9,2.2,2.3,4.5c0.6,3.7,1.9,7.6,3.7,11.2s4.2,6.9,6.7,9.5
	c0.1,0.1,0.3,0.1,0.4,0.1c0,0,0.1-0.2,0.1-0.5v-0.1v-0.1c0.1-0.4-0.1-1-0.2-1.6c-2-6.9-3.1-14-3.4-21.1c-0.1-1.7,0.3-3,1.2-3.9
	C12,0.4,12.3,0.2,12.5,0c0,0.1,0,0.3,0,0.4c0.3,6.6,0.8,13.1,2.3,19.5c0.3,1.4,0.7,2.8,1.1,4.2c1.2,4-0.5,5.3-1,5.5
	c-1.1,0.4-2.3-0.2-2.8-0.7c-2.8-2.8-4.8-5.7-6.7-9.6c-1.2-2.3-2.1-4.7-2.9-7.1C2,10.5,1.6,8.8,1.2,7.1C1,6.3,0.8,5.5,0.6,4.7
	C0.6,4.4,0.2,2.2,0,2.2z"/>
</svg>
