<svg width="20" height="38" viewBox="0 0 20 38" fill="none" xmlns="http://www.w3.org/2000/svg">
<path d="M17.9105 27.8156L17.906 27.8013C17.1343 25.1917 16.4089 20.9387 15.9153 16.1265C15.453 11.6215 15.4044 8.78571 15.4807 8.04575C15.5401 7.99339 15.673 7.89855 15.942 7.78988C16.2841 7.65206 16.6711 7.56166 16.9823 7.48856C17.2173 7.43373 17.4033 7.39026 17.5676 7.32753C17.6583 7.29295 17.7803 7.27319 17.9196 7.26281L17.828 0.905518C17.4682 0.93071 17.1089 0.957393 16.7505 0.989006C16.3853 1.02111 16.0205 1.05618 15.6562 1.09669C15.4743 1.11694 15.2924 1.13818 15.1109 1.1614C15.0275 1.17227 14.9435 1.18313 14.8601 1.19449C14.8365 1.19795 14.7158 1.22314 14.6958 1.21869C14.4926 1.2513 14.2893 1.28587 14.0865 1.32291C11.9225 4.36671 11.1399 10.0908 11.4493 11.1898C11.9053 10.0853 12.4161 9.20162 12.961 8.4997C12.9505 8.95661 12.956 9.55086 12.985 10.3372C13.0431 11.9244 13.1878 13.9368 13.3929 16.004C14.1206 23.3517 15.135 27.2984 15.5378 28.6558C15.5392 28.6603 15.5474 28.6865 15.5619 28.7314C15.7361 29.2614 16.075 30.321 16.3839 31.462C16.9987 33.7313 16.9551 34.3542 16.9501 34.407C16.9116 34.619 16.8381 34.6955 16.8131 34.7069C16.7941 34.7158 16.7442 34.7024 16.6861 34.6605C14.582 33.1484 12.153 29.8567 11.0202 27.5474C9.63058 24.7145 8.90924 22.5465 7.91161 19.5462L7.8717 19.4262C7.11452 17.1495 6.65041 15.1015 6.15909 12.933C5.97898 12.1387 5.79298 11.3173 5.5852 10.4494L5.56703 10.3728C5.43592 9.82402 5.27897 9.16902 4.93871 8.56194C4.61842 6.94026 3.92113 4.42748 2.52291 3.02314C2.44443 3.04142 2.36638 3.06018 2.28834 3.07945C1.59967 3.25184 0.922791 3.47215 0.256348 3.72753L0.352088 10.3733C0.48456 10.319 0.622482 10.2666 0.765842 10.2172L0.899662 10.1708C1.32475 10.0226 1.85328 9.83834 2.28699 9.8008C2.54513 9.77857 2.69711 9.81512 2.7334 9.86106C2.9253 10.1066 3.03554 10.5679 3.15214 11.0564L3.17119 11.135C3.37489 11.9851 3.55909 12.7977 3.73693 13.5836C4.24459 15.8237 4.72367 17.9393 5.52576 20.3514L5.56568 20.4714C6.59869 23.5779 7.34542 25.8225 8.8194 28.8277C10.0811 31.3998 12.7854 35.1129 15.3119 36.9282C16.0646 37.4691 16.9878 37.5748 17.7817 37.2113C18.621 36.8265 19.2117 35.9897 19.4018 34.9158C19.4966 34.3819 19.5134 33.427 18.7975 30.7661C18.4654 29.5356 18.0993 28.3891 17.9105 27.8156Z" fill="#B46766"/>
</svg>
