<?xml version="1.0" encoding="utf-8"?>
<!-- Generator: Adobe Illustrator 25.3.1, SVG Export Plug-In . SVG Version: 6.00 Build 0)  -->
<svg version="1.1" id="Слой_1" xmlns="http://www.w3.org/2000/svg" xmlns:xlink="http://www.w3.org/1999/xlink" x="0px" y="0px"
	 viewBox="0 0 26.4 35.7" style="enable-background:new 0 0 26.4 35.7;" xml:space="preserve">
<style type="text/css">
	.st0{fill:#B46766;}
</style>
<path class="st0" d="M24.7,32.1c-0.1-0.4,0-1,0.1-1.7v-0.1c0.7-3.4,0.7-6.6,0.4-9.6c-0.3-3.5-1.4-6.4-3-9.1c-1.9-3.4-6.2-9-6.9-9.4
	c-0.7-0.4-1.4-0.5-2-0.2c-0.9,0.6-0.9,1.8-1.2,2.2c-0.4-0.8-0.5-3-1-3.5c-0.9-0.8-1.8-0.8-2.8-0.4C7.2,0.8,6.7,2.8,6.2,5
	C5.7,4,4.6,2.3,2.5,3.3C1.8,3.8,1.4,4.5,0.9,6C0.5,7,0.5,8.1,0.2,9.7c-0.1,0.5-0.4,3.2-0.1,5.9c0.5,2.8,2.1,11.8,2.7,14.9
	C2.9,31,2.6,31.4,2,31.6c-0.5,0.2-1.1,0.2-1.6,0v2.6c0.8,0.1,1.7,0,2.5-0.3c1.7-0.7,2.6-2.2,2.3-3.9c0-0.1-2.4-12.5-3.1-14.7
	C2,14.9,2,12.6,2.5,9.7C2.7,8.3,3,7,3.3,6c0.1-0.4,0.3-0.7,0.4-1C4,5.8,4.5,7.2,5.2,9.9c0.2,0.8,0.4,1.6,0.5,2.3
	c0.1,1.1,0.3,2.1,0.6,2.9l2.4-0.6c0-0.1-0.2-1.2-0.5-2.7C8,10.4,7.9,8.7,8,7c0.2-3.5,1-4.7,1.4-4.9l0,0c0.1,0,0.8,0.6,1.5,2.6
	c0.3,1,0.6,2,0.7,2.7c0,0.7,0.1,1,0.2,1.2c0.3,0.6,1,0.9,1.6,0.6c0.2-0.1,0.8-0.5,0.8-1.4c0-0.1,0-0.2-0.1-0.4c0-0.1,0-0.2,0-0.3
	c0-0.4,0-1,0.1-1.6c0.2-1.1,0.4-1.6,0.6-1.8c0.2,0.1,0.7,0.5,1.6,1.8c1,1.4,2.3,3.6,4.1,6.9c1.3,2.4,2.1,5.2,2.4,8.4
	c0.2,2.8,0,5.8-0.6,9v0.1c-0.2,0.9-0.4,1.9,0,3c0.5,1.5,2,2.5,4.1,2.8l0,0v-2.5C25.9,33.1,24.9,32.8,24.7,32.1z"/>
</svg>
