<svg width="28" height="37" viewBox="0 0 28 37" fill="none" xmlns="http://www.w3.org/2000/svg">
<path d="M25.4954 32.5438C25.3461 32.1298 25.4668 31.5238 25.5948 30.8824L25.6206 30.7529C26.2968 27.3332 26.2845 24.1703 26.0418 21.1927C25.76 17.7399 24.6024 14.8266 23.0922 12.0886C21.248 8.74545 16.9208 3.07509 16.2401 2.71274C15.5594 2.35038 14.808 2.20227 14.2435 2.53156C13.3078 3.13125 13.3123 4.33562 13.0637 4.70567C12.6752 3.87181 12.5817 1.67596 12.1107 1.21803C11.2472 0.378283 10.3628 0.405007 9.34266 0.810388C8.07752 1.31315 7.5407 3.30745 7.07376 5.47567C6.59865 4.50185 5.44015 2.84862 3.39814 3.84509C2.73017 4.31162 2.2587 4.98197 1.76453 6.47214C1.40423 7.55965 1.34206 8.6544 1.08386 10.1862C0.993105 10.7239 0.720837 13.3568 1.03848 16.0745C1.49226 18.8827 3.09365 27.8074 3.67993 30.9173C3.77477 31.4196 3.5202 31.7969 2.92439 32.0388C2.63079 32.1579 2.28502 32.2145 1.95648 32.1996V33.3297C2.02591 33.3365 2.09579 33.3464 2.16522 33.3609C2.56727 33.3713 2.97158 33.3338 3.37227 33.3156C3.61504 33.3048 3.85691 33.2866 4.09832 33.2645C4.62833 33.1716 5.15245 33.0529 5.66886 32.9062C6.12581 32.2019 6.30142 31.3508 6.13307 30.4567C6.10993 30.3335 3.75118 17.9673 3.01061 15.8657C2.84906 15.386 2.8831 13.081 3.36728 10.1677C3.59735 8.78349 3.88459 7.53746 4.19815 6.56409C4.32975 6.15508 4.45227 5.83938 4.55981 5.59615C4.89561 6.32629 5.40974 7.73766 6.06954 10.4336C6.26648 11.2375 6.44436 12.0274 6.59592 12.734C6.73796 13.8238 6.9349 14.818 7.17449 15.6007L9.59632 15.0173C9.58361 14.9457 9.38349 13.8342 9.05813 12.3119C8.87708 10.8906 8.78269 9.19567 8.86301 7.54334C9.03136 4.06386 9.85406 2.83548 10.2652 2.67242C10.2883 2.66337 10.3015 2.66065 10.3065 2.65974C10.4476 2.69326 11.0847 3.21414 11.7618 5.23018C12.093 6.21668 12.3217 7.229 12.4447 7.8912C12.4551 8.61274 12.5482 8.91575 12.6398 9.1155C12.9325 9.75143 13.6577 10.0327 14.2907 9.7555C14.5389 9.6468 15.1079 9.29667 15.0376 8.39125C15.029 8.27982 15.0122 8.13851 14.9877 7.97137C14.9736 7.87671 14.9577 7.7757 14.9396 7.67017C14.9437 7.27656 14.9768 6.72397 15.0716 6.11522C15.2445 5.00643 15.5041 4.48102 15.637 4.30663C15.8199 4.40447 16.315 4.77044 17.2738 6.11885C18.269 7.51798 19.5758 9.69934 21.3873 12.9836C22.7264 15.4114 23.5337 18.2146 23.7869 21.3145C24.0115 24.063 23.8046 27.0759 23.173 30.2701L23.148 30.396C22.9769 31.2543 22.7641 32.3219 23.148 33.3872C23.6789 34.8588 25.1419 35.839 27.2679 36.147C27.3005 36.1515 27.3341 36.1565 27.3686 36.161V33.6377C26.7928 33.5267 25.7432 33.2318 25.4954 32.5438Z" fill="#B46766"/>
</svg>
