<svg width="31" height="40" viewBox="0 0 31 40" fill="none" xmlns="http://www.w3.org/2000/svg">
<path d="M28.6785 11.232C28.5968 10.9489 28.5029 10.6525 28.404 10.3394C28.0619 9.25908 27.6745 8.03455 27.6813 7.03527C27.6872 6.16836 27.9848 5.70947 28.7429 5.39926C29.021 5.28515 29.3308 5.2328 29.6552 5.21798L29.3989 -0.000732422C28.0379 0.261562 26.6773 0.523359 25.319 0.79899C23.9399 3.89416 23.4572 7.91599 23.7112 8.81846C24.1799 7.68284 24.7066 6.78087 25.2687 6.07006C25.2165 6.37039 25.1888 6.68553 25.1866 7.01501C25.1766 8.4796 25.6584 10.0015 26.0454 11.2241C26.1388 11.5195 26.2273 11.7985 26.299 12.0465C27.3837 15.8016 28.007 20.8277 28.1019 26.5809C28.1214 27.7743 27.7516 32.7307 27.1673 34.1518C26.9414 34.7011 26.5507 35.204 26.259 35.3215C26.196 35.3467 26.1561 35.3502 26.0717 35.3067C25.6511 35.0904 25.1471 34.1558 24.9929 33.3071C24.8563 32.5573 24.7361 31.8144 24.6195 31.0962C24.1685 28.3152 23.7425 25.6883 22.4809 22.9369C22.0286 21.9505 21.3113 20.5116 20.3141 19.413C19.8518 18.9037 19.3896 18.5342 18.9409 18.2729V17.9168L18.0204 17.8698C17.2668 17.6451 16.5832 17.6876 16.0406 17.8145L6.70267 20.0003C6.59606 19.3394 6.49852 18.636 6.40506 17.8792C6.37149 17.6066 6.3438 17.0331 6.31477 16.426C6.25942 15.2681 6.19047 13.8268 6.01308 12.5247C5.76356 10.6901 5.35436 9.60535 4.69064 9.02939C4.33178 7.58899 3.71706 5.83988 2.70129 4.68055C2.5602 4.68796 2.41911 4.69635 2.27847 4.70672C2.03168 4.7245 1.78532 4.74773 1.53989 4.77737C1.50631 4.78132 1.26133 4.82133 1.42647 4.7907C1.57663 4.76304 1.38474 4.79762 1.35707 4.80206C1.22777 4.8233 1.09847 4.84751 0.96963 4.87319C0.921995 4.88258 0.874365 4.88899 0.827637 4.89344L0.919722 11.2621C1.24682 11.2379 1.67328 11.267 2.03757 11.2922C2.42274 11.3189 2.81789 11.3461 3.19897 11.3308C3.29697 11.5891 3.44759 12.1226 3.57507 13.1594C3.71298 14.2802 3.77376 15.5482 3.82231 16.5673C3.85678 17.2884 3.88402 17.8585 3.9312 18.2413C4.46064 22.5289 5.1788 25.2368 6.49353 27.8992C7.79512 30.5355 9.64789 33.0982 13.06 37.5083L13.1053 37.5666L13.1561 37.6189C13.6348 38.1124 14.2808 38.634 14.8846 39.0139C15.3533 39.3088 16.4516 39.9998 17.3063 39.2979C17.7586 38.9265 18.0771 38.4236 18.2776 37.8793C18.3343 37.9035 18.3838 37.9252 18.4233 37.943C19.2308 38.3061 20.1381 38.2171 20.791 37.7108C21.4569 37.1941 21.8253 36.2941 21.7768 35.3038C21.7446 34.6483 21.5422 34.0748 21.3798 33.6144L21.3608 33.5601C20.0728 29.9003 19.2789 25.9293 19.0271 21.9376C19.5434 22.6697 19.9576 23.5183 20.2475 24.1501C21.3472 26.5483 21.7246 28.8743 22.1615 31.5679C22.2804 32.3 22.4028 33.0572 22.5444 33.8347C22.7426 34.9254 23.484 36.9798 25.0042 37.7627C25.6888 38.1149 26.4215 38.1519 27.1233 37.8699C28.5111 37.3112 29.2501 35.733 29.4438 35.2623C30.3307 33.1056 30.6093 27.345 30.5961 26.5325C30.4959 20.437 29.8508 15.2889 28.6785 11.232ZM19.0312 34.5327L19.0507 34.5885C19.1559 34.8868 19.2557 35.1704 19.2807 35.3907C19.2326 35.3699 19.1777 35.3462 19.1183 35.3205C18.9005 35.2272 18.2536 34.9496 18.049 34.8118L14.8937 31.6153L16.031 36.1973C16.0587 36.3085 16.0564 36.4537 16.0333 36.5974C15.6949 36.3737 15.2743 36.0511 14.9209 35.6964C9.28178 28.4056 7.64448 25.8389 6.70402 20.0151L16.4639 20.5106C16.5251 22.6865 16.7365 24.8629 17.0954 26.9988C17.5295 29.5817 18.1805 32.1162 19.0312 34.5327Z" fill="#B46766"/>
</svg>
