<?xml version="1.0" encoding="utf-8"?>
<!-- Generator: Adobe Illustrator 25.3.1, SVG Export Plug-In . SVG Version: 6.00 Build 0)  -->
<svg version="1.1" id="Слой_1" xmlns="http://www.w3.org/2000/svg" xmlns:xlink="http://www.w3.org/1999/xlink" x="0px" y="0px"
	 viewBox="0 0 29.6 34.1" style="enable-background:new 0 0 29.6 34.1;" xml:space="preserve">
<style type="text/css">
	.st0{fill:#B46766;}
</style>
<path class="st0" d="M26.9,0.3c-0.9,0.4-1.6,0.9-2.1,1.6c-0.4,0.6-0.6,1.4-0.6,2.2c0,1.4,0.5,2.8,0.9,3.9c0.1,0.3,0.2,0.5,0.2,0.8
	c1.1,3.5,1.7,8.1,1.8,13.4c0,1.1-0.3,5.7-0.9,7c-0.2,0.5-0.6,1-0.9,1.1c-0.1,0-0.1,0-0.2,0c-0.4-0.2-0.9-1.1-1.1-1.8
	c-0.1-0.7-0.3-1.4-0.4-2c-0.4-2.6-0.9-5-2.1-7.5c-0.5-0.9-1.2-2.2-2.2-3.2c-0.5-0.5-0.9-0.8-1.4-1.1v-0.3l-0.9,0
	c-0.8-0.2-1.4-0.2-2-0.1l-9.4,2c-0.1-0.6-0.2-1.3-0.3-2c0-0.2-0.1-0.8-0.1-1.3C5.2,11.7,5.2,10.4,5,9.2C4.8,7.4,4.3,6.4,3.6,5.9
	C3.2,5.6,2.7,5.5,2.2,5.6c-0.3,0-0.6,0-1,0c-0.4,0-0.8,0-1.2,0L0.1,8C0.4,8,0.7,8,1,8c0.4,0,0.8,0,1.2,0c0.1,0.2,0.2,0.7,0.4,1.7
	c0.1,1,0.2,2.2,0.2,3.1c0,0.7,0.1,1.2,0.1,1.5c0.5,4,1.2,6.4,2.6,8.9c1.3,2.4,3.2,4.8,6.6,8.9l0.1,0l0.1,0c0.5,0.5,1.1,0.9,1.7,1.3
	c0.5,0.3,1.6,0.9,2.4,0.3c0.5-0.3,0.8-0.8,1-1.3c0.1,0,0.1,0,0.2,0.1c0.8,0.3,1.7,0.2,2.4-0.2c0.7-0.5,1-1.3,1-2.2
	c0-0.6-0.2-1.1-0.4-1.6l0-0.1c-1.3-3.4-2.1-7-2.3-10.7c0.5,0.7,0.9,1.4,1.2,2c1.1,2.2,1.5,4.4,1.9,6.8c0.1,0.7,0.2,1.4,0.4,2.1
	c0.2,1,0.9,2.9,2.5,3.6c0.7,0.3,1.4,0.4,2.1,0.1c1.4-0.5,2.1-2,2.3-2.4c0.9-2,1.2-7.3,1.1-8c-0.1-4.3-0.5-8.1-1.2-11.3l0.2,5.5
	l-0.2-5.5c-0.2-1-0.5-1.9-0.7-2.8c-0.1-0.3-0.2-0.5-0.3-0.8c-0.3-1-0.7-2.1-0.7-3c0-0.8,0.3-1.2,1.1-1.5c0.1,0,0.2-0.1,0.3-0.1L28,0
	C27.6,0,27.3,0.1,26.9,0.3z M18,29.4L18,29.4c0.1,0.3,0.2,0.6,0.2,0.8c-0.1,0-0.1,0-0.2-0.1c-0.2-0.1-0.9-0.3-1.1-0.5l-3.2-2.9
	L15,31c0,0.1,0,0.2,0,0.4c-0.3-0.2-0.8-0.5-1.1-0.8c-5.7-6.7-7.3-9.1-8.2-14.4l9.8,0.5c0.1,2,0.3,4,0.6,6
	C16.5,24.9,17.2,27.2,18,29.4z"/>
</svg>
