<?xml version="1.0" encoding="utf-8"?>
<!-- Generator: Adobe Illustrator 25.3.1, SVG Export Plug-In . SVG Version: 6.00 Build 0)  -->
<svg version="1.1" id="Слой_1" xmlns="http://www.w3.org/2000/svg" xmlns:xlink="http://www.w3.org/1999/xlink" x="0px" y="0px"
	 viewBox="0 0 23.5 31.7" style="enable-background:new 0 0 23.5 31.7;" xml:space="preserve">
<style type="text/css">
	.st0{fill:#B46766;}
</style>
<path class="st0" d="M1.3,8.3c0-0.3-0.1-0.5-0.2-0.7C0.8,6.3,0.4,5.1,0,3.8C0.2,3.9,0.4,3.9,0.6,4c1.7,0.7,2.8,2.1,3,3.9
	c0.2,1.2-0.1,2.4-0.3,3.4c-0.1,0.4-0.2,0.8-0.2,1.2c-0.5,3.7-0.4,7.6,0.5,11c0.1,0.6,0.7,2.2,1.4,3.8c1.1,2.3,1.8,2.5,1.8,2.5
	s0.1,0,0.3-0.2c0.1-0.2,0.3-0.9,0.5-2.5c0.2-1.4,0.2-2.4,0.2-2.7l-1-8.5l3.4,7.9c0.2,0.4,0.5,1,0.8,1.5c-0.1-1.1-0.3-2.2-0.5-3.3
	c-0.1-0.6-0.2-1.3-0.3-1.9c-0.3-1.7-0.5-4.2,0.4-6.5c0.6-1.4,1.4-1.6,2-1.6c1.5,0.1,2.4,2,3.4,5.5c0.1,0.2,0.1,0.3,0.1,0.4
	c0.5,1.5,0.9,3,1.3,4.5c0.4,1.6,0.9,3.2,1.4,4.7c0.1-0.1,0.3-0.3,0.5-0.6c0.4-0.5,0.7-1,0.8-1.2c0.8-1.8,1.7-5.4,1.8-7.2
	c0.1-2.5-0.6-4.9-1.3-7.4c-0.2-0.7-0.4-1.3-0.6-2c-0.5-1.9-0.9-3.6-0.7-5.4c0.2-1.4,0.9-2.5,1.8-3.3c0.2,1.6,0.5,3.3,0.4,4.9
	c0,0.1,0,0.2,0.1,0.4c0.1,1.7,0.5,3.9,0.6,4.3c0.8,2.6,1.5,4.9,1.3,7.8c-0.1,2.3-1.9,9.4-2.5,10.1c-0.9,1.1-1.6,2.1-2.4,2.1
	c-0.4,0-1.3-0.2-1.7-1.5c-0.6-1.8-2.8-10-2.9-10.2c-0.2-0.6-0.5-1.5-0.9-2.3c-0.1-0.2-0.5-0.8-0.6-1c-0.3,1.2-0.3,3.3,0,5
	c0.1,0.6,0.2,1.2,0.3,1.9c0.2,1.3,0.5,2.7,0.6,4.2c0,0.8,0,1.3-0.1,1.8c-0.3,1-0.9,1.3-1.3,1.4c-0.1,0-0.2,0-0.4,0
	c-0.6,0-1.9-1.2-2.3-2.1c0.4,2-0.3,3.5-0.5,3.7c-1.1,1.3-1.9,1.3-2.5,1.2c-1.3-0.3-2-0.9-3.1-3.3c-0.8-1.8-1.5-3.8-1.6-4.3
	c-0.9-3.8-0.3-12.6-0.2-13C1.7,10.2,1.4,9.1,1.3,8.3z"/>
</svg>
