<svg width="27" height="39" viewBox="0 0 27 39" fill="none" xmlns="http://www.w3.org/2000/svg">
<path d="M25.5574 17.7878C25.2299 16.38 24.9926 15.0102 24.7417 13.5599C24.5507 12.4564 24.3529 11.3154 24.1129 10.1639C24.0961 10.0829 24.0744 9.99253 24.049 9.88781C23.8702 9.14835 23.3961 7.18434 24.2826 6.06502C24.6628 5.58538 25.2839 5.25641 26.1236 5.08254L25.89 0.327148C25.85 0.334064 25.8087 0.339986 25.767 0.345913C25.6214 0.364684 25.4758 0.384946 25.3297 0.405199C25.3297 0.405199 25.3297 0.405199 25.3292 0.405199C25.3251 0.405692 25.321 0.40667 25.3161 0.407164C25.258 0.41655 25.1995 0.424949 25.1409 0.434335C24.8783 0.475828 24.6165 0.520778 24.3552 0.570175C23.8203 0.670449 23.2886 0.788999 22.7605 0.927309C22.697 0.944104 22.6335 0.954485 22.5713 0.959918C22.4942 0.981159 22.4171 1.00239 22.34 1.02412C21.0806 4.06249 20.6437 7.81365 20.8882 8.68155C21.0112 8.38319 21.1387 8.10114 21.2693 7.8344C21.2607 9.02486 21.512 10.0671 21.6359 10.5794C21.6545 10.6569 21.6722 10.73 21.6799 10.7661C21.9099 11.8686 22.1032 12.9845 22.2901 14.0638C22.5373 15.4908 22.7928 16.9658 23.1389 18.4556L23.1879 18.665C23.6702 20.7343 24.019 22.2295 23.7042 24.5422C23.3739 26.9691 21.9684 32.0356 21.556 33.4923C21.5515 33.4815 21.5474 33.4701 21.5429 33.4593C21.5129 33.3832 21.4825 33.3066 21.4512 33.2291C20.7231 31.4444 20.4786 29.4651 20.2195 27.3697C19.8942 24.7388 19.5581 22.0186 18.207 19.5507C18.0691 19.2993 17.6018 18.5682 17.0352 17.9152C16.6773 17.5028 15.5885 16.2471 14.3263 16.5425C13.6794 16.6941 12.8678 17.2612 12.6745 19.1037L12.6605 19.2366L12.6704 19.3699C12.7748 20.7456 12.7548 22.1277 12.734 23.5908C12.7022 25.8018 12.6695 28.0879 13.1005 30.3517L13.1141 30.4224C13.1536 30.6293 13.1876 30.818 13.2158 30.9889C13.2058 30.9672 13.1958 30.9455 13.1858 30.9232C12.8896 30.2677 12.65 29.5238 12.4749 28.981L8.74663 17.4222L10.0437 29.5416C10.1281 30.3285 10.1145 31.8722 9.88535 33.4015C9.66577 34.8685 9.35909 35.605 9.17264 35.9019C8.8469 35.8169 8.67994 35.7191 8.58785 35.5744C8.3837 35.2538 8.02803 34.1039 7.83703 33.4859C7.70819 33.069 7.59703 32.7089 7.49631 32.4358C7.37473 32.1053 7.12974 31.2611 6.89338 30.4451C6.4574 28.941 6.15435 27.914 5.93024 27.387C5.90347 27.3079 5.78735 26.8643 5.8191 25.176C5.84179 23.9682 5.93161 22.4804 6.01871 21.0415C6.12034 19.3625 6.22513 17.6262 6.22513 16.2945C6.22513 16.0189 6.23965 15.7215 6.25507 15.4064C6.32539 13.9699 6.41794 12.0593 5.28557 9.27135C5.10501 8.17228 4.6949 6.25076 3.86876 4.66514C3.84835 4.66613 3.82748 4.6676 3.80707 4.66859C3.18554 4.70218 2.56264 4.70713 1.94157 4.75109C1.7787 4.76245 1.6163 4.77627 1.45434 4.79455C1.39627 4.80097 1.33819 4.80887 1.27967 4.81579C1.26152 4.81875 1.24383 4.82172 1.22568 4.82469C0.94713 4.8731 0.672209 4.93928 0.401367 5.02523L0.656313 10.2193C1.06326 10.201 1.4938 10.242 1.91481 10.2963C2.28001 10.3432 2.6248 10.2627 2.92241 10.1704C3.90052 12.4653 3.83111 13.885 3.76352 15.2616C3.74718 15.5985 3.72993 15.9468 3.72993 16.295C3.72993 17.5373 3.62787 19.2282 3.52897 20.8637C3.28807 24.8529 3.16557 27.3568 3.66461 28.5255C3.83746 28.9301 4.22853 30.2786 4.51389 31.2636C4.78745 32.2071 5.02381 33.0216 5.18033 33.4474C5.25473 33.6499 5.36044 33.9917 5.47249 34.3538C5.85857 35.6036 6.16116 36.5337 6.53862 37.125C7.31757 38.3465 8.55883 38.5629 9.22618 38.6795L9.46934 38.7219L9.70933 38.6602C10.472 38.4646 11.093 37.8466 11.5553 36.8231C11.8566 36.1558 12.1002 35.2973 12.2789 34.2708C12.2862 34.2283 12.2934 34.1859 12.3007 34.1429C12.4055 34.2353 12.5144 34.3202 12.6282 34.3958C13.7624 35.1521 14.5459 34.8927 15.0037 34.542C16.1687 33.6494 15.9006 31.6617 15.5581 29.8691L15.5449 29.8005C15.1702 27.83 15.1992 25.7915 15.2301 23.6333C15.2482 22.3653 15.2668 21.0598 15.1974 19.7528C15.5426 20.1494 15.906 20.6557 16.0644 20.9417C17.1541 22.9319 17.4422 25.2639 17.747 27.7322C18.0179 29.9249 18.2982 32.1922 19.1715 34.3321C19.1988 34.3988 19.2246 34.465 19.2505 34.5307C19.4301 34.9866 19.6538 35.5546 20.1324 36.0496C20.6283 36.5623 21.2902 36.7555 21.9494 36.5791C22.9084 36.3223 23.6243 35.3432 23.8063 34.7628C23.8244 34.7045 25.7552 28.0143 26.173 24.9409C26.5609 22.0892 26.1191 20.1929 25.6069 17.9972L25.5574 17.7878Z" fill="#B46766"/>
</svg>
