<?xml version="1.0" encoding="utf-8"?>
<!-- Generator: Adobe Illustrator 25.3.1, SVG Export Plug-In . SVG Version: 6.00 Build 0)  -->
<svg version="1.1" id="Слой_1" xmlns="http://www.w3.org/2000/svg" xmlns:xlink="http://www.w3.org/1999/xlink" x="0px" y="0px"
	 viewBox="0 0 26.4 33.5" style="enable-background:new 0 0 26.4 33.5;" xml:space="preserve">
<style type="text/css">
	.st0{fill:#B46766;}
</style>
<path class="st0" d="M25.2,0.2c-1.2,0.3-2.1,0.8-2.8,1.6c-1.8,2-1,4.9-0.8,5.8c0,0.1,0,0.1,0,0.2c0.2,1,0.4,2,0.6,3
	c0.2,1.3,0.5,2.7,0.9,4l0,0.2c0.5,1.9,0.8,3.3,0.5,5.4c-0.3,2.2-1.7,6.9-2.1,8.2c0,0,0,0,0,0c0-0.1-0.1-0.1-0.1-0.2
	c-0.7-1.6-1-3.5-1.2-5.4c-0.3-2.4-0.7-4.9-2-7.2c-0.1-0.2-0.6-0.9-1.2-1.5c-0.4-0.4-1.5-1.5-2.7-1.3c-0.7,0.1-1.5,0.7-1.7,2.4l0,0.1
	l0,0.1c0.1,1.3,0.1,2.5,0.1,3.9c0,2-0.1,4.1,0.4,6.2l0,0.1c0,0.2,0.1,0.4,0.1,0.5c0,0,0,0,0-0.1c-0.3-0.6-0.5-1.3-0.7-1.8L8.8,13.9
	l1.3,11.2c0.1,0.7,0.1,2.1-0.2,3.5c-0.2,1.4-0.5,2-0.7,2.3c-0.3-0.1-0.5-0.2-0.6-0.3c-0.2-0.3-0.6-1.4-0.7-1.9
	c-0.1-0.4-0.2-0.7-0.3-1c-0.1-0.3-0.4-1.1-0.6-1.8c-0.4-1.4-0.7-2.3-1-2.8c0-0.1-0.1-0.5-0.1-2c0-1.1,0.1-2.5,0.2-3.8
	c0.1-1.6,0.2-3.1,0.2-4.4c0-0.2,0-0.5,0-0.8c0.1-1.5,0.2-3.5-1.5-6.6C4.5,4.8,4,4.5,3.3,4.6C3,4.6,2.7,4.7,2.4,4.7
	c-0.1,0-0.2,0.1-0.3,0.1C1.5,4.7,0.8,4.7,0,4.8l0.1,2.5c0.6-0.1,1.2-0.1,1.9,0c0.4,0,0.7,0,1-0.1c1,2.1,0.9,3.4,0.8,4.7
	c0,0.3,0,0.6,0,0.9c0,1.1-0.1,2.7-0.2,4.2c-0.2,3.7-0.4,6,0.1,7c0.2,0.4,0.6,1.6,0.9,2.5c0.3,0.9,0.5,1.6,0.7,2
	c0.1,0.2,0.2,0.5,0.3,0.8c0.4,1.1,0.7,2,1.1,2.6c0.8,1.1,2,1.3,2.7,1.4l0.2,0l0.2-0.1c0.8-0.2,1.4-0.8,1.9-1.7
	c0.3-0.6,0.6-1.4,0.7-2.3c0,0,0-0.1,0-0.1c0.1,0.1,0.2,0.2,0.3,0.2c1.1,0.7,1.9,0.5,2.4,0.1c1.2-0.8,0.9-2.6,0.6-4.3l0-0.1
	c-0.4-1.8-0.3-3.7-0.3-5.7c0-1.2,0-2.4,0-3.6c0.3,0.4,0.7,0.8,0.9,1.1c1.1,1.8,1.4,4,1.7,6.2c0.3,2,0.6,4.1,1.4,6.1
	c0,0.1,0,0.1,0.1,0.2c0.2,0.4,0.4,0.9,0.9,1.4c0.5,0.5,1.2,0.6,1.8,0.5c1-0.2,1.7-1.1,1.9-1.7c0,0,2-6.2,2.4-9
	c0.4-2.6-0.1-4.4-0.6-6.4l-0.1-0.2c-0.3-1.3-0.6-2.6-0.8-3.9c-0.2-1-0.4-2.1-0.6-3.1c0-0.1,0-0.2-0.1-0.2c-0.2-0.7-0.6-2.5,0.2-3.5
	c0.4-0.4,1-0.7,1.9-0.9L26.1,0C25.8,0.1,25.5,0.1,25.2,0.2z"/>
</svg>
