<svg width="26" height="31" viewBox="0 0 26 31" fill="none" xmlns="http://www.w3.org/2000/svg">
<path d="M24.3227 14.9338C23.5529 12.8755 22.7893 10.6566 22.3266 8.41354C22.0703 7.16974 21.4283 4.54581 21.1017 3.27633C21.3466 3.17606 22.0281 2.83472 23.0202 2.30816L22.9377 0.625732C21.3389 1.43237 20.2197 1.9456 19.8568 2.05971L18.616 2.44795L19.0148 3.78462C19.483 5.35344 19.8101 6.94005 20.1567 8.62001C20.6212 10.873 21.1017 13.2025 21.9496 15.4703C23.1563 18.6964 23.7493 21.5026 22.7199 24.7089C22.4967 25.4044 22.2762 25.8277 22.0054 26.0816C21.9605 26.1236 21.9205 26.1512 21.8901 26.169C21.7876 26.091 21.5531 25.8554 21.2332 25.189C20.8762 24.4441 20.5777 23.514 20.3145 22.6935C20.1258 22.1062 19.963 21.5989 19.7933 21.2008C18.6963 18.6272 17.3285 15.619 15.5016 12.8226L13.2377 9.358V13.6105C13.2377 15.1868 13.2178 17.0801 13.1851 17.3933C12.9596 19.585 13.3829 22.0079 13.8153 24.2115C13.6583 23.8948 13.4882 23.5377 13.3044 23.1341C12.5218 21.4156 11.9021 19.751 11.8123 19.4571L9.41691 20.2094C9.95542 22.6051 10.5112 25.0793 10.5565 27.5185C10.2099 27.2908 9.95315 26.785 9.55891 25.8988C9.47997 25.722 9.39832 25.5387 9.31349 25.3574C8.96008 24.6071 8.56083 23.8998 8.1743 23.2156C7.70611 22.3863 7.26333 21.6023 6.91537 20.7769C5.37833 17.134 5.35793 12.4863 5.37335 8.33648C6.12236 8.6862 6.5851 9.01914 6.5851 9.01914C6.5851 9.01914 6.26934 5.7822 4.97683 3.39735C4.94235 3.40229 4.90788 3.40674 4.8734 3.41118C4.84573 3.41513 4.81806 3.41958 4.78994 3.42353C4.70964 3.43588 4.62887 3.44823 4.54857 3.46107C4.38797 3.48676 4.22782 3.51344 4.06767 3.5411C3.72334 3.60136 3.38036 3.66755 3.0383 3.74312C2.39862 3.8844 1.76576 4.05828 1.14559 4.28105C1.0603 4.31168 0.975008 4.32798 0.890625 4.33193L1.12382 9.08237C1.78164 8.94603 2.57329 8.90553 3.48789 8.96184C3.39943 13.0879 2.90265 16.6677 4.58849 20.6638C4.99951 21.6384 7.18847 26.0253 7.26514 26.1962C7.5496 26.829 8.39932 28.2708 9.07983 29.2094C9.76034 29.7527 10.8038 30.5925 11.8019 29.9503C12.7999 29.3082 12.3921 27.7522 12.437 26.4432C13.1012 27.3264 14.0162 29.0014 14.66 29.0118C14.9435 29.0172 15.796 29.0236 16.2478 27.6781C16.4901 26.9564 15.6844 23.92 15.5673 23.3312C15.174 21.3494 15.2098 18.7749 15.2951 16.9097C16.0151 18.3432 18.2204 22.7839 18.3801 23.2818C19.3328 25.801 20.1435 29.2094 22.0095 29.2094C23.4158 29.2094 24.3422 25.799 24.5954 25.0107C25.9582 20.7631 25.5517 18.2197 24.3227 14.9338Z" fill="#B46766"/>
</svg>
