<?xml version="1.0" encoding="utf-8"?>
<!-- Generator: Adobe Illustrator 25.3.1, SVG Export Plug-In . SVG Version: 6.00 Build 0)  -->
<svg version="1.1" id="Слой_1" xmlns="http://www.w3.org/2000/svg" xmlns:xlink="http://www.w3.org/1999/xlink" x="0px" y="0px"
	 viewBox="0 0 21.6 26.4" style="enable-background:new 0 0 21.6 26.4;" xml:space="preserve">
<style type="text/css">
	.st0{fill:#B46766;}
</style>
<path class="st0" d="M0.1,7.6c0-0.5,0.2-1.1,0.2-1.6c0-0.2,0.3-1.7,0.1-1.8c0.4,0.2,0.7,0.5,1,0.9c0.5,0.6,1,1.8,0.8,3.6
	c-0.4,4.2,0.6,8.8,3.1,13.2c0.5,0.9,1.3,1.7,1.9,2.2c0.1,0.1,0.2,0.2,0.3,0.2c-0.2-1-0.4-2-0.6-3c-0.2-1-0.5-2-0.7-3.1L3.7,6.3
	l4.8,11.1c0.7,1.6,1.4,3.2,2.1,4.9c-0.1-1-0.2-2.1-0.4-3.2c-0.4-2.5-0.8-5.1-0.1-7.7l0.6-2.3l1.6,1.9c1.4,1.7,2.4,3.7,3.3,5.7
	c0.1,0.2,0.3,0.6,0.5,1.2c0.4,1,0.9,2.3,1.5,3.5c0.4,0.9,0.7,1.4,1,1.8c0,0,0,0,0-0.1c0.9-2,1.2-4.1,1-6.5c-0.2-2.2-0.9-4.4-1.6-6.6
	c-0.7-2.4-1.5-4.9-1.8-7.5c-0.1-1.2-0.1-1.1,0.4-1.7c0.3-0.4,0.7-0.6,1.2-0.8c-0.2,0.1,0.4,4.2,0.5,4.6c0.2,1.5,0.6,3,1,4.5
	c1.5,4.7,3.7,9,1.3,14.3c-0.2,0.4-0.7,1.9-1.8,2.2c-0.5,0.2-1.6-0.1-2.7-3.1c-0.7-1.4-2.3-4.4-2.4-4.6c-0.4-0.8-1.8-3.9-2.1-4.6
	c0.1,1.1,0,4.1,0.2,5.2c0.2,1.5,1,3.3,1,4.9c0,0.6-0.5,1.9-1.1,2c-0.6,0.1-1.5-0.2-2-0.5c-0.1,0.3-1.9,2.6-4.2,0.9
	c-0.8-0.7-1.7-2-2.4-3.2c-1.3-2.3-2.3-4.8-2.9-7.5C-0.1,12.5,0.1,10.1,0.1,7.6z"/>
</svg>
