<svg width="19" height="41" viewBox="0 0 19 41" fill="none" xmlns="http://www.w3.org/2000/svg">
<path d="M13.7954 19.5845C14.0931 22.5372 13.9452 25.5955 13.8018 28.5536C13.7873 28.8489 13.7732 29.1438 13.7592 29.4391C13.7437 29.763 13.6761 30.2857 13.5976 30.8903C13.4438 32.0748 13.2527 33.5486 13.2713 34.8921C13.2918 36.3646 13.5781 37.4371 14.1408 38.1424C14.2333 38.6098 14.3491 39.103 14.4879 39.6054C15.6387 39.787 16.7759 40.0384 17.9289 40.2146C18.1722 40.2417 18.4158 40.2621 18.66 40.2753L18.8483 37.2229C18.7593 37.2039 18.669 37.1844 18.5778 37.164C18.154 37.0712 17.7161 36.9756 17.2605 36.9099C16.8439 36.8501 16.372 36.7817 16.1106 36.6096C16.1079 36.6073 15.5588 35.562 15.4681 30.9873C15.3773 26.4126 15.8751 22.5291 15.5588 19.392C14.742 8.8385 12.15 5.70189 11.1572 3.94675C9.54852 1.10274 7.71707 0.730875 7.70844 0.730875C6.89527 0.739481 5.62832 0.399776 4.89501 2.40675C4.46482 3.5844 4.71349 6.34733 4.71349 6.34733C6.07484 16.2667 3.03995 28.6782 2.89837 29.6284C2.60387 31.6051 2.53399 33.9069 2.17233 35.7431C2.0793 36.2146 1.27429 36.7763 0.624931 36.6821C0.559587 36.6726 0.471103 36.6585 0.367188 36.6381V39.1615C1.10231 39.2589 2.13013 39.286 2.96826 38.6216C3.80594 37.9576 4.00469 36.9493 4.12313 36.3469C4.49568 34.4541 4.80471 32.381 5.1033 30.3758C5.24397 29.4319 5.37646 28.5405 5.51487 27.6726C6.16786 23.574 6.57354 20.1715 6.79272 16.9642C7.05546 13.1129 7.04184 9.56909 6.75142 6.12947L6.74053 5.99947C6.66701 5.13572 6.57491 4.06044 6.81677 3.3996C6.99011 2.92492 7.14122 2.70841 7.21972 2.61828C7.45478 2.73513 8.23937 3.27821 9.57121 5.67834C10.6762 7.67082 11.4816 9.72445 11.5152 9.81096C12.641 12.6985 13.451 16.1693 13.7954 19.5845Z" fill="#B46766"/>
</svg>
