<?xml version="1.0" encoding="utf-8"?>
<!-- Generator: Adobe Illustrator 25.3.1, SVG Export Plug-In . SVG Version: 6.00 Build 0)  -->
<svg version="1.1" id="Слой_1" xmlns="http://www.w3.org/2000/svg" xmlns:xlink="http://www.w3.org/1999/xlink" x="0px" y="0px"
	 viewBox="0 0 13.9 38.5" style="enable-background:new 0 0 13.9 38.5;" xml:space="preserve">
<style type="text/css">
	.st0{fill:#B46766;}
</style>
<path class="st0" d="M13.6,32.6c0-0.6-0.1-1.4-0.1-2.3c-0.1-4.6,0.4-8.5,0.1-11.6C12.8,8.1,10.2,5,9.2,3.2C7.6,0.3,5.8,0,5.7,0
	C4.9,0,3.6-0.3,2.9,1.7c-0.4,1.2-0.2,4-0.2,4C4.1,15.6,1,28.1,0.9,29.1c-0.3,1.9-0.4,4.1-0.7,5.8c0,1.2-0.1,2.4-0.2,3.6
	c0.3-0.1,0.6-0.2,0.9-0.5c0.8-0.7,1-1.7,1.2-2.3c0.4-1.9,0.7-4,1-6c0.1-0.9,0.3-1.8,0.4-2.7c0.7-4.1,1.1-7.5,1.3-10.7
	c0.3-3.9,0.2-7.4,0-10.9V5.3C4.7,4.4,4.6,3.4,4.9,2.7C5.1,2.2,5.2,2,5.3,1.9C5.5,2,6.3,2.6,7.7,5c1.1,2,1.9,4.1,1.9,4.1
	c1.1,2.9,1.9,6.4,2.3,9.8c0.3,3,0.1,6,0,9c0,0.3,0,0.6,0,0.9c0,0.3-0.1,0.8-0.2,1.5c-0.2,1.2-0.3,2.7-0.3,4c0,1.9,0.5,3.2,1.5,3.8
	c0.3,0.2,0.7,0.3,1,0.4C13.7,36.5,13.6,34.6,13.6,32.6z"/>
</svg>
