<?xml version="1.0" encoding="utf-8"?>
<!-- Generator: Adobe Illustrator 25.3.1, SVG Export Plug-In . SVG Version: 6.00 Build 0)  -->
<svg version="1.1" id="Слой_1" xmlns="http://www.w3.org/2000/svg" xmlns:xlink="http://www.w3.org/1999/xlink" x="0px" y="0px"
	 viewBox="0 0 18 39.1" style="enable-background:new 0 0 18 39.1;" xml:space="preserve">
<style type="text/css">
	.st0{fill:#B46766;}
</style>
<path class="st0" d="M17,36.3c-0.4-0.1-0.9-0.1-1.1-0.3c0,0-0.5-1-0.6-5.7s0.4-8.5,0.1-11.6C14.5,8.2,11.9,5,10.9,3.2
	C9.3,0.4,7.4,0,7.4,0C6.6,0,5.4-0.3,4.6,1.7c-0.4,1.2-0.2,4-0.2,4c1.4,10-1.7,22.4-1.8,23.4c-0.3,2-0.4,4.3-0.7,6.1
	c-0.1,0.5-0.9,1-1.5,0.9c-0.1,0-0.2,0-0.3-0.1l0,2.5c0.7,0.1,1.8,0.2,2.7-0.5c0.8-0.7,1-1.7,1.2-2.3c0.4-1.9,0.7-4,1-6
	c0.1-1,0.3-1.8,0.4-2.7c0.6-4.1,1.1-7.5,1.3-10.8c0.3-3.9,0.2-7.4,0-10.9l0-0.1c-0.1-0.9-0.2-2,0.1-2.6C6.7,2.2,6.9,2,6.9,1.9
	C7.2,2,8,2.6,9.3,5c1.1,2,1.9,4.1,1.9,4.2c1.1,2.9,1.9,6.4,2.3,9.8c0.3,3,0.1,6,0,9c0,0.3,0,0.6,0,0.9c0,0.3-0.1,0.9-0.2,1.5
	c-0.1,1.2-0.4,2.7-0.3,4c0,1.9,0.5,3.2,1.5,3.8c0.7,0.5,1.6,0.6,2.2,0.7c0.4,0.1,0.8,0.1,1.1,0.2c0.1,0,0.1,0,0.2,0l0-2.5
	C17.7,36.5,17.4,36.4,17,36.3z"/>
</svg>
