<svg width="19" height="42" viewBox="0 0 19 42" fill="none" xmlns="http://www.w3.org/2000/svg">
<path d="M18.0232 37.752C17.848 37.7887 17.681 37.8055 17.5322 37.7973C17.2522 37.7819 16.6632 38.1891 16.164 37.2832C16.0243 37.1328 15.963 31.9557 15.9825 29.5379C16.0166 25.2989 16.1749 20.7043 15.801 16.4027C15.6463 14.6226 14.8617 10.9692 14.0766 8.43093C12.6854 3.31045 9.31195 1.18389 9.31195 1.18389C9.11774 1.08742 7.02944 0.0664886 6.27163 0.82154C5.90089 1.19114 5.78472 3.589 5.81785 4.67153C5.836 5.26488 5.93039 12.7434 5.86323 13.8209C5.59368 18.1583 4.73014 22.0758 4.22962 26.2768C3.8067 29.8278 3.74952 32.7833 3.45819 36.4679C3.40011 37.2049 2.37502 37.3557 2.37321 37.357C2.3723 37.3575 2.28517 37.4191 1.94665 37.401C1.63672 37.3847 1.25691 37.3109 0.849413 37.223L0.660645 40.2762C1.28868 40.2812 1.91307 40.3532 2.53974 40.3831C3.28666 40.4062 4.03358 40.4189 4.78096 40.4194C5.27739 40.4198 5.73163 40.5738 6.13004 40.8347C6.50396 39.4999 6.61877 38.4219 6.61877 38.4219C6.61877 38.4219 5.19255 39.3631 3.29348 39.6752C3.48906 39.5959 3.67873 39.4918 3.85979 39.3577C4.59219 38.8155 4.99697 37.9345 5.09725 36.6645C5.38449 33.0292 5.81921 29.3821 6.23941 25.8551C6.74402 21.6201 7.26586 17.2406 7.53949 12.8331C7.61209 11.6627 7.59622 10.4189 7.58079 9.21588C7.56899 8.31317 7.55809 7.46028 7.58214 6.64408C7.60074 6.00952 7.58169 5.38536 7.56308 4.78205C7.54312 4.12211 7.52361 3.48573 7.55174 2.86521C7.71601 2.93813 7.90978 3.02872 8.13712 3.14195L8.15754 3.15192C8.71161 3.42685 9.23299 3.78739 9.70719 4.22357C11.0536 5.46282 12.0542 7.18399 12.7657 9.48447C13.4799 11.7945 13.7549 14.277 13.9001 15.9434C14.2636 20.1277 14.2287 24.4514 14.1951 28.6325C14.1756 31.0693 14.1551 33.5895 14.2132 36.0662C14.2164 36.1962 14.2155 36.3293 14.2146 36.4706C14.2101 37.2574 14.2042 38.3345 15.0296 39.2236C15.153 39.3568 15.2901 39.4782 15.4371 39.5887C13.9042 39.0583 12.3777 37.7896 11.2124 35.1997C10.9977 35.899 11.309 38.6402 12.2429 41.1858C12.2838 41.1373 12.3255 41.0906 12.3686 41.0476C12.7816 40.6354 13.5076 40.283 14.107 40.3288C14.9665 40.3945 15.8246 40.4814 16.6822 40.572C17.1628 40.6046 17.6434 40.6422 18.1234 40.6472L18.0232 37.752Z" fill="#B46766"/>
</svg>
