<?xml version="1.0" encoding="utf-8"?>
<!-- Generator: Adobe Illustrator 25.3.1, SVG Export Plug-In . SVG Version: 6.00 Build 0)  -->
<svg version="1.1" id="Слой_1" xmlns="http://www.w3.org/2000/svg" xmlns:xlink="http://www.w3.org/1999/xlink" x="0px" y="0px"
	 viewBox="0 0 18 39.9" style="enable-background:new 0 0 18 39.9;" xml:space="preserve">
<style type="text/css">
	.st0{fill:#B46766;}
</style>
<path class="st0" d="M17.3,37.4c-0.3,0-0.9,0.4-1.4-0.5c-0.1-0.1-0.2-5.3-0.2-7.8c0-4.3,0.2-8.9-0.2-13.2c-0.2-1.8-0.9-5.5-1.7-8
	c-1.4-5.1-4.8-7.3-4.8-7.3C8.9,0.5,6.8-0.5,6,0.3C5.6,0.6,5.5,3.1,5.6,4.1c0,0.6,0.1,8.1,0.1,9.2C5.3,17.7,4.5,21.6,4,25.8
	c-0.4,3.6-0.5,6.5-0.8,10.2C3.1,36.8,2.1,37,2.1,37S2,37,1.7,37c-0.4,0-0.9-0.1-1.4-0.2c-0.1,0-0.2,0-0.3-0.1l0,2.5
	c1.2,0.3,2.5,0.5,3.6-0.3c0.7-0.5,1.1-1.4,1.2-2.7C5.1,32.6,5.6,29,6,25.4c0.5-4.2,1-8.6,1.3-13.1c0.1-1.2,0.1-2.4,0-3.6
	c0-0.9,0-1.8,0-2.6c0-0.6,0-1.3,0-1.9c0-0.7,0-1.3,0-1.9c0.2,0.1,0.4,0.2,0.6,0.3l0,0C8.5,2.9,9,3.3,9.5,3.7c1.4,1.2,2.4,3,3.1,5.3
	c0.7,2.3,1,4.8,1.1,6.5C14,19.7,14,24,14,28.2c0,2.5,0,5,0,7.5c0,0.1,0,0.3,0,0.4c0,0.8,0,1.9,0.8,2.8c0.6,0.6,1.4,1,2.4,1.1
	c0.1,0,0.1,0,0.2,0c0.2,0,0.4,0,0.6,0l0-2.6C17.7,37.4,17.5,37.4,17.3,37.4z"/>
</svg>
