<?xml version="1.0" encoding="utf-8"?>
<!-- Generator: Adobe Illustrator 25.3.1, SVG Export Plug-In . SVG Version: 6.00 Build 0)  -->
<svg version="1.1" id="Слой_1" xmlns="http://www.w3.org/2000/svg" xmlns:xlink="http://www.w3.org/1999/xlink" x="0px" y="0px"
	 viewBox="0 0 12.8 39.6" style="enable-background:new 0 0 12.8 39.6;" xml:space="preserve">
<style type="text/css">
	.st0{fill:#B46766;}
</style>
<path class="st0" d="M12.8,36.8c-0.1-0.4-0.2-5.4-0.2-7.7c0-4.3,0.2-8.9-0.2-13.2c-0.2-1.8-0.9-5.5-1.7-8C9.3,2.8,5.9,0.6,5.9,0.6
	c-0.2-0.1-2.3-1.1-3-0.4C2.5,0.6,2.4,3,2.4,4.1c0,0.6,0.1,8.1,0,9.2c-0.3,4.4-1.1,8.3-1.6,12.5c-0.4,3.4-0.5,6.3-0.7,9.8
	c0,1.2,0,2.4-0.1,3.5c0.2-0.1,0.3-0.2,0.4-0.3c0.7-0.5,1.1-1.4,1.2-2.7c0.3-3.6,0.7-7.3,1.1-10.8c0.5-4.2,1-8.6,1.3-13.1
	C4.1,11,4.1,9.8,4,8.6C4,7.7,4,6.8,4,6c0-0.6,0-1.3,0-1.9c0-0.7,0-1.3,0-1.9c0.2,0.1,0.4,0.2,0.6,0.3c0.6,0.3,1.1,0.6,1.6,1.1
	c1.3,1.2,2.3,3,3.1,5.3c0.7,2.3,1,4.8,1.1,6.5c0.4,4.2,0.3,8.5,0.3,12.7c0,2.4,0,5,0,7.5c0,0.1,0,0.3,0,0.4c0,0.8,0,1.9,0.8,2.8
	c0.3,0.3,0.7,0.6,1.1,0.8v-2.8H12.8z"/>
</svg>
