<?xml version="1.0" encoding="utf-8"?>
<!-- Generator: Adobe Illustrator 25.3.1, SVG Export Plug-In . SVG Version: 6.00 Build 0)  -->
<svg version="1.1" id="Слой_1" xmlns="http://www.w3.org/2000/svg" xmlns:xlink="http://www.w3.org/1999/xlink" x="0px" y="0px"
	 viewBox="0 0 20 50.2" style="enable-background:new 0 0 20 50.2;" xml:space="preserve">
<style type="text/css">
	.st0{fill:#B46766;}
</style>
<path class="st0" d="M19.9,47.7C17.3,47,17,35,16.7,32.1c-0.3-2.9-0.6-6.2-0.8-9.1c-0.4-5.7-2.7-17.7-2.7-17.7
	C12.2,2,11.5,0.1,9.9,0C9.3,0,8.6,0.1,7.9,1.5C7.4,2.8,7.5,6.4,7.4,6.8c-0.2,4.1-0.5,7.7-1.1,11.7C6,20.3,5,27.3,4.9,29.1
	C4.4,33.3,3.5,43,1.7,45.4c-0.4,0.5-1,0.9-1.7,1.1L0,49c1.3-0.2,2.7-1,3.5-2.3c0.6-1,0.9-2,1.2-3.1c1.2-4.3,1.6-8.7,2.1-13
	C7,28.8,7.1,27,7.4,25.2c0.2-1.9,0.5-3.7,0.8-5.6c0.6-4.1,1.3-8.3,1.5-12.5c0-0.4,0-0.9,0-1.4c0-0.9,0-1.8,0.2-2.5
	C10,3.4,10.1,3.7,10.2,4c0.3,0.8,0.6,1.7,0.7,2.1l0,0.1c1.7,5.6,2.2,11.5,2.7,17.1c0.2,3,0.6,6,0.9,9c0.3,2.9,0.6,5.9,0.9,8.9
	c0,0.2,0,0.3,0,0.5c0.2,2.7,0.5,7.1,3.6,8.3c0.3,0.1,0.7,0.2,1,0.2l0-2.5C20,47.7,19.9,47.7,19.9,47.7z"/>
</svg>
