<?xml version="1.0" encoding="utf-8"?>
<!-- Generator: Adobe Illustrator 25.3.1, SVG Export Plug-In . SVG Version: 6.00 Build 0)  -->
<svg version="1.1" id="Слой_1" xmlns="http://www.w3.org/2000/svg" xmlns:xlink="http://www.w3.org/1999/xlink" x="0px" y="0px"
	 viewBox="0 0 14.8 49.5" style="enable-background:new 0 0 14.8 49.5;" xml:space="preserve">
<style type="text/css">
	.st0{fill:#B46766;}
</style>
<path class="st0" d="M14.2,41.7c-0.3-3.2-0.5-6.4-0.9-9.6C13,29.2,12.7,26,12.5,23C12.1,17.3,9.8,5.3,9.8,5.3C8.9,2.1,8.1,0.1,6.5,0
	C5.9,0,5.2,0.1,4.6,1.5C4,2.8,4.1,6.4,4.1,6.8C3.9,10.9,3.6,14.5,3,18.5c-0.3,1.8-1.3,8.8-1.5,10.6c-0.2,1.8-0.3,3.6-0.6,5.4
	c-0.3,2-0.7,4.1-0.8,6.2c0,2,0,4.1-0.1,6.1c0,0,0,0,0.1-0.1c0.6-0.9,0.9-2,1.2-3.1c1.2-4.3,1.6-8.7,2.1-13c0.2-1.8,0.4-3.7,0.6-5.5
	c0.2-1.8,0.5-3.7,0.8-5.6C5.4,15.4,6.1,11.2,6.3,7c0-0.4,0-0.9,0-1.4c0-0.9,0-1.8,0.2-2.5c0.1,0.2,0.2,0.4,0.3,0.7
	c0.3,0.8,0.6,1.7,0.7,2.1V6c1.7,5.6,2.2,11.5,2.6,17.1c0.2,3,0.6,6,0.9,9c0.3,2.9,0.6,5.9,0.9,8.9c0,0.2,0,0.4,0,0.5
	c0.2,2.4,0.5,6.4,2.9,8C14.7,47,14.4,44.3,14.2,41.7z"/>
</svg>
