<svg width="21" height="51" viewBox="0 0 21 51" fill="none" xmlns="http://www.w3.org/2000/svg">
<path d="M20.4448 48.017C20.301 48.0197 20.1608 47.9984 20.0292 47.9472C17.4948 47.2343 17.1704 35.3369 16.8595 32.4232C16.5505 29.5266 16.2733 26.2922 16.0427 23.3191C15.6035 17.6555 13.3654 5.69971 13.3654 5.69971C12.4229 2.4698 11.6492 0.55522 10.0837 0.456932C9.47381 0.418432 8.75458 0.584661 8.14697 1.9856C7.58882 3.27195 7.66914 6.86513 7.64781 7.23971C7.41502 11.3067 7.12596 14.8894 6.51336 18.8803C6.23292 20.7083 5.25004 27.6605 5.06127 29.4791C4.62745 33.657 3.7453 43.2484 1.88481 45.649C1.47323 46.1799 0.686829 46.6129 0.0229492 46.7519L0.123233 49.6462C0.744457 49.6494 1.36659 49.6739 1.98873 49.6879C2.06042 49.1267 2.27506 48.6448 2.59407 48.2281C2.55414 48.2444 2.51374 48.2611 2.47245 48.2774C2.55095 48.2186 2.62674 48.1565 2.70207 48.0935C2.86225 47.9042 3.04467 47.7294 3.24524 47.5663C3.40452 47.3874 3.55245 47.1981 3.6854 46.9974C4.31116 46.0526 4.622 45.0167 4.91015 43.95C6.06593 39.6752 6.52471 35.254 6.9685 30.9783C7.15546 29.1774 7.34877 27.3154 7.59109 25.4991C7.83658 23.6574 8.12473 21.78 8.4038 19.9637C9.02503 15.9153 9.66713 11.7293 9.90718 7.54408C9.93214 7.10428 9.9344 6.63821 9.93667 6.18753C9.94075 5.31789 9.94484 4.42514 10.1059 3.6873C10.1949 3.87935 10.2943 4.11261 10.4032 4.39525C10.7163 5.20873 10.9618 6.05074 11.0938 6.50278L11.136 6.64726C12.7914 12.2619 13.3486 18.1325 13.7775 23.6638C14.0107 26.6726 14.332 29.6856 14.6428 32.5998C14.9518 35.4964 15.2713 38.4912 15.5018 41.4643C15.515 41.6342 15.5277 41.8158 15.5413 42.0069C15.6802 43.9754 15.8889 46.9322 17.2638 48.8078C16.0818 48.1194 14.9514 46.9023 14.0407 44.8795C13.8324 45.558 14.1192 48.1588 14.9891 50.6373C15.1896 50.3062 15.5572 50.0579 15.9347 50.096C17.4617 50.2504 18.9937 50.3605 20.5274 50.4162L20.4448 48.017Z" fill="#B46766"/>
</svg>
