<?xml version="1.0" encoding="utf-8"?>
<!-- Generator: Adobe Illustrator 25.3.1, SVG Export Plug-In . SVG Version: 6.00 Build 0)  -->
<svg version="1.1" id="Слой_1" xmlns="http://www.w3.org/2000/svg" xmlns:xlink="http://www.w3.org/1999/xlink" x="0px" y="0px"
	 viewBox="0 0 19 40.6" style="enable-background:new 0 0 19 40.6;" xml:space="preserve">
<style type="text/css">
	.st0{fill:#B46766;}
</style>
<path class="st0" d="M16.4,36.6c-0.4-0.3-0.7-0.6-0.9-0.8c-0.3-0.6-0.4-2.5-0.4-2.5c0.9-7.4,0.1-13.8-1.4-19.5
	C13,10.5,11,4.3,10.4,3C9.8,1.7,7.7,0,6.9,0S5.1-0.4,4.3,1.9C3.9,3.1,3.7,7.5,3.8,8.8c0,0,0,4.8,0.1,7.9c0.3,5.7,0,11.9-1,17.6
	c-0.2,1-0.4,2.2-1.1,3c-0.4,0.6-1.2,1-1.8,0.8l0,2.5c0.1,0,0.2,0,0.3,0c0.5,0,1-0.1,1.5-0.3c0.8-0.3,1.5-0.9,2.1-1.6
	c1-1.3,1.3-2.8,1.6-4.1c1-6,0.8-12,0.5-17.8c-0.1-3.1-0.3-6.2-0.2-9.3c0-0.4,0-0.9,0-1.4c0-1.1-0.1-2.4,0.2-3.2C6,2.4,6.3,2,6.5,2
	C7,2,8.1,2.9,8.6,3.9c1.4,3,2.8,7.5,3.6,10.5c1.4,5.4,1.6,11.5,0.7,18.6l0,0c-0.1,1.1-0.3,2.6,0.4,3.8c0.3,0.6,0.9,1.2,1.7,1.7
	c1,0.7,2.1,1.1,3.3,1.3c0.2,0,0.5,0,0.7,0.1l0-2.5C18.1,37.4,17.2,37.1,16.4,36.6z"/>
</svg>
