<svg width="20" height="42" viewBox="0 0 20 42" fill="none" xmlns="http://www.w3.org/2000/svg">
<path d="M13.0976 32.9256L13.0922 32.969C12.9524 34.0946 12.7795 35.4919 13.438 36.7543C13.5306 36.7303 13.624 36.7171 13.7121 36.7171C13.9594 36.7171 14.3301 36.8326 14.4907 37.0392C14.9296 37.6031 15.2427 38.1792 15.5154 38.8387C15.7246 39.3451 15.8907 39.8664 16.0726 40.3828C16.1443 40.5866 16.2201 40.789 16.2963 40.9911C16.7401 40.972 17.1821 40.9942 17.6354 41.0105C18.1124 41.0273 18.5925 41.0196 19.0717 41.011L19.1243 37.3494C18.253 37.3096 17.3314 37.0043 16.5123 36.4517C16.0844 36.1632 15.8058 35.891 15.6597 35.6192C15.3502 35.0435 15.2844 33.1126 15.2844 33.1126C16.2024 25.7098 15.3679 19.3509 13.9231 13.6815C13.1054 10.4733 11.1428 4.32556 10.5197 3.0374C9.89668 1.74924 7.84242 0.0479989 7.02561 0.0479989C6.20881 0.0479989 5.25542 -0.342889 4.48444 1.90505C4.07105 3.11033 3.89861 7.45538 3.93991 8.74445C3.94127 8.78929 3.93446 13.5465 4.07604 16.6256C4.3356 22.2661 4.04654 28.4614 3.05231 34.1209C2.86989 35.159 2.62213 36.3357 1.98547 37.1542C1.62245 37.6212 1.00667 38.0053 0.445801 38.0166L0.5293 40.4299C0.581031 40.4348 0.63276 40.4425 0.685398 40.4516C0.699011 40.4543 0.712166 40.4561 0.72578 40.4584C0.768435 40.4534 0.942686 40.4815 0.964014 40.4833C1.11648 40.4942 1.26941 40.4996 1.42234 40.5023C1.7064 40.5073 1.99047 40.5023 2.27454 40.5019C2.49644 40.3184 2.7197 40.1364 2.93479 39.9448C3.06321 39.8306 3.19163 39.7138 3.3087 39.5883C3.32504 39.5706 3.36679 39.5253 3.39901 39.49C3.43531 39.4429 3.46842 39.3922 3.50291 39.3446C3.66627 39.1181 3.82192 38.8862 3.9812 38.6566C3.97847 38.658 3.97621 38.6593 3.97349 38.6602C3.99935 38.6267 4.02431 38.5927 4.04926 38.5592C4.06605 38.5352 4.08285 38.5112 4.09964 38.4872C4.11144 38.4709 4.12324 38.455 4.13504 38.4392C4.98451 37.2208 5.2908 35.8004 5.51043 34.5512C6.55231 28.6213 6.27732 22.6493 6.01141 16.8743C5.87165 13.8337 5.7269 10.6898 5.77953 7.61164C5.78725 7.17546 5.77227 6.72026 5.75684 6.23833C5.721 5.12908 5.68016 3.87172 5.96014 3.05597C6.16933 2.44677 6.44749 2.04411 6.66984 2.03097C7.17672 2.00108 8.27169 2.90469 8.7831 3.96321C10.2307 6.96122 11.622 11.4693 12.3734 14.4189C13.7393 19.7826 13.9766 25.8361 13.0976 32.9256Z" fill="#B46766"/>
</svg>
