<?xml version="1.0" encoding="utf-8"?>
<!-- Generator: Adobe Illustrator 25.3.1, SVG Export Plug-In . SVG Version: 6.00 Build 0)  -->
<svg version="1.1" id="Слой_1" xmlns="http://www.w3.org/2000/svg" xmlns:xlink="http://www.w3.org/1999/xlink" x="0px" y="0px"
	 viewBox="0 0 13.4 40.2" style="enable-background:new 0 0 13.4 40.2;" xml:space="preserve">
<style type="text/css">
	.st0{fill:#B46766;}
</style>
<path class="st0" d="M12.5,38.3c0.1-1.6,0.3-3.1,0.5-4.7c0-0.2,0-0.4,0-0.4c0.9-7.4,0.1-13.8-1.4-19.5C10.8,10.5,8.8,4.3,8.2,3
	C7.6,1.7,5.5,0,4.7,0S2.9-0.4,2.2,1.9C1.8,3.1,1.6,7.5,1.7,8.8c0,0,0,4.8,0.1,7.9c0.2,5.4,0,11.4-0.9,16.8c-0.3,2.2-0.6,4.4-0.9,6.7
	c0.6-0.3,1.2-0.8,1.7-1.4c1-1.3,1.3-2.8,1.6-4.1c1-5.9,0.8-11.9,0.5-17.7c-0.1-3-0.3-6.2-0.2-9.3c0-0.4,0-0.9,0-1.4
	c0-1.1-0.1-2.4,0.2-3.2c0.2-0.6,0.5-1,0.7-1C5,2.1,6.1,3,6.6,4c1.4,3,2.8,7.5,3.6,10.5c1.4,5.4,1.6,11.5,0.7,18.6
	c-0.1,1.1-0.3,2.6,0.4,3.8c0.3,0.6,0.7,1,1.4,1.5C12.5,38.4,12.5,38.4,12.5,38.3z"/>
</svg>
