<?xml version="1.0" encoding="utf-8"?>
<!-- Generator: Adobe Illustrator 25.3.1, SVG Export Plug-In . SVG Version: 6.00 Build 0)  -->
<svg version="1.1" id="Слой_1" xmlns="http://www.w3.org/2000/svg" xmlns:xlink="http://www.w3.org/1999/xlink" x="0px" y="0px"
	 viewBox="0 0 25 49.1" style="enable-background:new 0 0 25 49.1;" xml:space="preserve">
<style type="text/css">
	.st0{fill:#B46766;}
</style>
<path class="st0" d="M25,46.6c-0.6-0.1-1.5-0.4-1.8-0.8c-0.3-0.3-0.3-2.7-0.3-3.3c0.2-4.7,0.1-9.4-0.7-14.2
	c-0.8-4.7-2.3-10.1-3.6-15C18,11,15.5,2.4,13.8,1c-0.9-0.7-2.4-1.3-3.4-0.9C8.8,0.6,8.2,1.6,7.9,3C7.4,4.7,6.8,17.1,6.7,17.8
	c-1.1,6.9-1.7,14.7-2,20.1c0,0.4-0.7,7.2-2.9,8.3c-0.5,0.2-1.1,0.4-1.7,0.3L0,49c1,0,2-0.2,2.9-0.6c1.6-0.8,2.7-2.3,3.3-4.4
	c0.4-1.7,0.5-3.5,0.5-5.1c0-0.4,0-0.8,0-1.1c0.2-5.3,0.7-12.3,1.7-19.2c0.1-0.6,0.2-1.3,0.3-1.9c0.4-2.7,0.8-5,0.7-8.1
	C9.3,7.1,9.3,5.1,9.6,4c0.2-0.8,0.9-1.6,1.6-1.8c0.2-0.1,0.4,0,0.6,0.1c1.2,1,1.9,2.8,2.5,4.4c0.1,0.2,0.2,0.5,0.3,0.7
	c0.9,2.2,1.9,4.7,2.5,6.9c1.3,4.8,2.5,9.6,3.3,14.1s0.6,9.3,0.4,13.9c0,0.6,0,1.3-0.1,1.9c0,1.3,0.2,2.4,0.8,3.2
	c0.7,0.9,1.8,1.5,3.1,1.7c0.1,0,0.2,0,0.4,0L25,46.6C25,46.6,25,46.6,25,46.6z"/>
</svg>
