<svg width="26" height="51" viewBox="0 0 26 51" fill="none" xmlns="http://www.w3.org/2000/svg">
<path d="M25.0269 46.4461C24.3957 46.3628 23.5512 46.0516 23.2835 45.6906C23.0276 45.3455 22.9849 43.0165 23.0112 42.3842C23.2064 37.6985 23.1251 32.9952 22.3306 28.2071C21.5587 23.5563 20.0648 18.1863 18.7457 13.3054C18.1081 10.9469 15.562 2.38411 13.8903 1.03072C13.029 0.333649 11.5406 -0.219843 10.4869 0.124844C8.86056 0.656596 8.34915 1.65986 7.99112 3.02366C7.55322 4.69093 6.86665 17.0843 6.76591 17.7442C5.71314 24.6389 5.07013 32.3846 4.81465 37.7642C4.79786 38.1211 4.07771 44.9292 1.87279 46.0136C1.35367 46.269 0.751955 46.3782 0.123924 46.3497L0.0712891 50.0157C1.68266 50.0841 3.28497 49.9016 4.88726 49.7476C5.45403 48.0803 5.61603 46.558 5.61603 46.558C5.61603 46.558 5.18584 46.8415 4.48385 47.1491C5.28295 46.3229 5.86607 45.211 6.22501 43.8227C6.6629 42.1301 6.72008 40.307 6.77045 38.6986C6.78225 38.3168 6.79359 37.9567 6.80992 37.6197C7.06268 32.3004 7.4856 25.3246 8.52158 18.5437C8.62051 17.8973 8.72125 17.2822 8.81881 16.6875C9.25671 14.0156 9.63516 11.7079 9.48768 8.64872C9.41281 7.09242 9.43459 5.04106 9.72048 3.95128C9.92059 3.18898 10.6498 2.33927 11.2815 2.13318C11.5274 2.05301 11.7012 2.08517 11.9022 2.24777C13.0666 3.19034 13.7886 5.0089 14.4253 6.61321C14.5228 6.8587 14.6145 7.09016 14.7089 7.32116C15.5996 9.50478 16.6007 12.0204 17.201 14.2416C18.5034 19.0596 19.7345 23.7597 20.4873 28.2977C21.0972 31.9724 21.0836 35.7653 20.9556 39.498C21.1399 39.7028 21.2542 39.9763 21.2705 40.2549C21.3309 41.2998 21.4035 42.3443 21.4815 43.3879C21.6476 45.6 21.8369 47.8117 21.9784 50.0262C23.1909 50.0918 24.4057 50.0456 25.6196 50.0176L25.6699 46.5127C25.4762 46.4987 25.2629 46.4774 25.0269 46.4461Z" fill="#B46766"/>
</svg>
