<svg width="27" height="52" viewBox="0 0 27 52" fill="none" xmlns="http://www.w3.org/2000/svg">
<path d="M26.7981 49.7588L26.853 45.9405C26.7845 45.9455 26.716 45.9509 26.6479 45.9559C24.8891 46.0886 23.9552 45.7326 22.9197 45.2738C21.1082 44.4716 21.0455 36.6865 20.8813 33.8728C20.6476 29.8729 20.3268 25.8028 19.5653 21.6887C19.0594 18.9552 18.6591 8.43749 18.1586 5.60933C17.958 4.47517 17.7175 2.84414 16.8426 1.98581C15.6374 0.803187 15.0461 0.66187 14.2561 0.853464C12.7328 1.22261 11.6764 1.94596 10.2628 4.61287C9.14245 6.72629 6.24325 16.522 5.13511 21.5075C4.28201 25.3453 3.49425 29.2247 3.22924 33.5104C2.99418 37.3097 2.69469 41.4962 2.91159 45.8757C2.93065 46.2625 2.66655 46.9709 2.36887 47.2445C2.18101 47.4175 1.73177 47.5878 0.669016 47.5131L0.618652 51.0188C0.63272 51.0175 0.646784 51.0166 0.661305 51.0157C1.10556 50.9935 1.55024 50.998 1.99404 50.9649C2.08162 50.9586 2.16921 50.9509 2.25634 50.9414C2.29491 50.9373 2.33394 50.9323 2.37251 50.9278C2.38022 50.9269 2.38794 50.9255 2.39701 50.9242C2.59849 50.8916 2.80043 50.8599 3.00191 50.8272C3.62404 50.7258 4.24525 50.681 4.86965 50.6547C5.52672 48.8696 5.70961 47.1512 5.70961 47.1512C5.70961 47.1512 5.43869 47.3301 4.97538 47.5575C5.12604 47.0375 5.18594 46.4414 5.15282 45.772C4.94045 41.4858 4.94861 37.6005 5.17777 33.8945C5.43461 29.7402 5.96053 25.9178 6.78505 22.2082C7.87503 17.3047 8.87381 13.5285 9.92885 10.3244C10.0541 9.94442 10.7302 7.94968 11.7562 6.01381C13.2179 3.25586 14.2289 2.82421 14.5039 2.75717C14.6187 2.72909 14.8873 2.66432 15.3556 3.1236C15.7554 3.51585 16.2668 4.64231 16.4084 5.44129C16.8767 8.08827 16.9493 10.743 17.026 13.5539C17.104 16.416 17.1848 19.376 17.7262 22.3002C18.459 26.262 18.6963 30.319 18.9255 34.2429C19.092 37.095 19.2645 40.0446 19.6239 42.9864C19.7854 44.3076 20.0436 45.8118 21.0687 46.9442C21.2566 47.1521 21.458 47.3383 21.674 47.504C21.8261 48.1413 22.018 48.8067 22.2503 49.4625C23.3988 49.5359 24.5456 49.646 25.6923 49.7479C26.0607 49.757 26.4297 49.7628 26.7981 49.7588Z" fill="#B46766"/>
</svg>
