<?xml version="1.0" encoding="utf-8"?>
<!-- Generator: Adobe Illustrator 25.3.1, SVG Export Plug-In . SVG Version: 6.00 Build 0)  -->
<svg version="1.1" id="Слой_1" xmlns="http://www.w3.org/2000/svg" xmlns:xlink="http://www.w3.org/1999/xlink" x="0px" y="0px"
	 viewBox="0 0 19.2 48.5" style="enable-background:new 0 0 19.2 48.5;" xml:space="preserve">
<style type="text/css">
	.st0{fill:#B46766;}
</style>
<path class="st0" d="M0,44.4c0.1-0.8,0.1-1.7,0.1-2C-0.1,37.7,0,33,0.8,28.2c0.8-4.7,2.3-10.1,3.6-14.9C5,10.9,7.6,2.3,9.3,1
	c0.9-0.7,2.4-1.3,3.4-0.9c1.6,0.5,2.1,1.5,2.5,2.9c0.4,1.7,1.1,14.1,1.2,14.8c0.9,6,1.5,12,1.8,18.1c0.2,4,1,7.9,1,11.9
	c0-0.1-0.6-0.5-0.7-0.6c-0.3-0.3-0.5-0.6-0.7-0.9c-0.4-0.7-0.8-1.5-1-2.3c-0.4-1.7-0.5-3.5-0.5-5.1c0-0.4,0-0.7,0-1.1
	c-0.3-5.3-0.7-12.3-1.7-19.1c-0.1-0.6-0.2-1.3-0.3-1.9c-0.4-2.7-0.8-5-0.7-8.1c0.1-1.6,0.1-3.6-0.2-4.7c-0.2-0.8-0.9-1.6-1.6-1.8
	c-0.2-0.1-0.4,0-0.6,0.1C10,3.2,9.3,5.1,8.7,6.7C8.6,6.9,8.5,7.2,8.4,7.4c-0.9,2.2-1.9,4.7-2.5,6.9c-1.3,4.8-2.5,9.5-3.3,14.1
	C1.8,32.9,2,37.7,2.2,42.2c0,0.6,0.1,1.3,0.1,1.9c0,1.3-0.2,2.4-0.8,3.2c-0.4,0.5-0.9,0.9-1.5,1.2C0,47.1,0,45.8,0,44.4z"/>
</svg>
