<?xml version="1.0" encoding="utf-8"?>
<!-- Generator: Adobe Illustrator 25.3.1, SVG Export Plug-In . SVG Version: 6.00 Build 0)  -->
<svg version="1.1" id="icon" xmlns="http://www.w3.org/2000/svg" xmlns:xlink="http://www.w3.org/1999/xlink" x="0px" y="0px"
	 viewBox="0 0 44.2 52" style="enable-background:new 0 0 44.2 52;" xml:space="preserve">
<style type="text/css">
	.st0{fill:#D73F34;}
</style>
<path class="st0" d="M21.9,28c0.1,0,0.1,0,0.2,0c0,0,0,0,0.1,0c0,0,0.1,0,0.1,0c3.2-0.1,5.7-1.2,7.6-3.3c4.1-4.7,3.5-12.7,3.4-13.4
	c-0.3-5.7-3-8.5-5.2-9.8c-1.7-1-3.6-1.5-5.8-1.5h-0.1c0,0,0,0,0,0H22c-1.2,0-3.5,0.2-5.8,1.5c-2.3,1.3-5,4-5.3,9.8
	c-0.1,0.8-0.8,8.8,3.4,13.4C16.2,26.9,18.8,28,21.9,28z M13.8,11.6C13.8,11.5,13.9,11.5,13.8,11.6c0.4-7.8,5.8-8.6,8.2-8.6h0
	c0,0,0.1,0,0.1,0c2.9,0.1,7.9,1.2,8.2,8.5c0,0,0,0.1,0,0.1c0,0.1,0.8,7.4-2.7,11.3c-1.4,1.5-3.2,2.3-5.5,2.3c0,0,0,0-0.1,0
	c0,0,0,0-0.1,0c-2.4,0-4.2-0.8-5.5-2.3C13.1,19,13.8,11.6,13.8,11.6z"/>
<path class="st0" d="M44.2,41.3C44.2,41.3,44.2,41.3,44.2,41.3c0-0.1,0-0.2,0-0.3c-0.1-2.1-0.2-7.1-4.9-8.7c0,0-0.1,0-0.1,0
	c-4.9-1.2-8.9-4-8.9-4.1c-0.7-0.5-1.6-0.3-2,0.4c-0.5,0.7-0.3,1.6,0.4,2c0.2,0.1,4.5,3.1,9.8,4.5c2.5,0.9,2.8,3.6,2.9,6
	c0,0.1,0,0.2,0,0.3c0,1-0.1,2.5-0.2,3.3c-1.7,1-8.6,4.4-19,4.4c-10.4,0-17.2-3.4-19-4.4c-0.2-0.9-0.2-2.4-0.2-3.3c0-0.1,0-0.2,0-0.3
	c0.1-2.5,0.4-5.1,2.9-6c5.4-1.4,9.6-4.4,9.8-4.5c0.7-0.5,0.8-1.4,0.4-2c-0.5-0.7-1.4-0.8-2-0.4c0,0-4.1,2.8-8.9,4.1c0,0-0.1,0-0.1,0
	C0.2,33.9,0.1,38.9,0,41c0,0.1,0,0.2,0,0.3c0,0,0,0,0,0c0,0.6,0,3.4,0.5,4.9c0.1,0.3,0.3,0.5,0.6,0.7c0.3,0.2,8.1,5.1,21,5.1
	c13,0,20.7-4.9,21-5.1c0.2-0.2,0.5-0.4,0.6-0.7C44.2,44.7,44.2,41.9,44.2,41.3z"/>
</svg>
