<?xml version="1.0" encoding="utf-8"?>
<!-- Generator: Adobe Illustrator 25.3.1, SVG Export Plug-In . SVG Version: 6.00 Build 0)  -->
<svg version="1.1" id="icon" xmlns="http://www.w3.org/2000/svg" xmlns:xlink="http://www.w3.org/1999/xlink" x="0px" y="0px"
	 viewBox="0 0 30 28.6" style="enable-background:new 0 0 30 28.6;" xml:space="preserve">
<style type="text/css">
	.st0{fill:#333333;}
</style>
<path class="st0" d="M6.4,10.8c-1.8,0-3.2,1.5-3.2,3.2s1.5,3.2,3.2,3.2c1.8,0,3.2-1.5,3.2-3.2S8.2,10.8,6.4,10.8L6.4,10.8z
	 M6.4,15.5c-0.8,0-1.5-0.7-1.5-1.5s0.7-1.5,1.5-1.5c0.8,0,1.5,0.7,1.5,1.5S7.2,15.5,6.4,15.5z"/>
<path class="st0" d="M12.1,18.4c-1.8,0-3.2,1.5-3.2,3.2c0,1.8,1.5,3.2,3.2,3.2c1.8,0,3.2-1.5,3.2-3.2C15.4,19.9,13.9,18.4,12.1,18.4
	L12.1,18.4z M12.1,23.2c-0.8,0-1.5-0.7-1.5-1.5s0.7-1.5,1.5-1.5c0.8,0,1.5,0.7,1.5,1.5C13.6,22.5,13,23.2,12.1,23.2z"/>
<path class="st0" d="M29.2,18.4C29.2,18.4,29.2,18.4,29.2,18.4l-3.1-2.9c1.7-1.3,2.5-3.6,1.8-5.7c-3.3-10-16-13.2-23.6-5.7
	C-1.4,9.7-1.4,18.7,4,24.3c4.8,5,12.5,5.7,18.1,2c2.6-1.7,1.4-5.8-1.7-5.8c-2.4,0-2.8-3.3-0.5-3.9l5.4,5.7c0,0,0,0,0,0
	c1.1,1.1,2.8,1.1,3.9,0C30.3,21.2,30.3,19.5,29.2,18.4L29.2,18.4z M17.8,21.2c0.7,0.7,1.6,1,2.6,1c1.4,0,1.9,1.8,0.8,2.6
	C16.2,28,9.5,27.4,5.3,23.1C0.5,18.1,0.6,10.3,5.5,5.4c6.7-6.5,17.8-3.8,20.7,5c0.5,1.5-0.1,3.1-1.4,3.9l-4.9-4.6
	c0.3-1.4-0.1-2.9-1.2-4c-1.4-1.4-5.6-2-7.5-2.2c-0.6-0.1-1,0.4-1,1c0.2,1.9,0.9,6.1,2.2,7.5c1.1,1.1,2.6,1.5,4,1.2l2.1,2.2
	C16.4,16.4,15.9,19.4,17.8,21.2L17.8,21.2z M13.8,10.6c-0.7-0.7-1.3-3.2-1.6-5.3c2.1,0.3,4.6,0.9,5.3,1.6c1,1,1,2.7,0,3.7
	C16.4,11.6,14.8,11.6,13.8,10.6z M27.9,21.1c-0.4,0.4-1,0.4-1.4,0c-0.5-0.5-7.9-8.4-8.3-8.8c0.3-0.3,0.7-0.6,0.9-0.9l8.8,8.3
	C28.3,20.1,28.3,20.7,27.9,21.1L27.9,21.1z"/>
</svg>
