<?xml version="1.0" encoding="utf-8"?>
<!-- Generator: Adobe Illustrator 25.3.1, SVG Export Plug-In . SVG Version: 6.00 Build 0)  -->
<svg version="1.1" id="icon" xmlns="http://www.w3.org/2000/svg" xmlns:xlink="http://www.w3.org/1999/xlink" x="0px" y="0px"
	 viewBox="0 0 46 46" style="enable-background:new 0 0 46 46;" xml:space="preserve">
<style type="text/css">
	.st0{fill:#D73F34;}
</style>
<path class="st0" d="M32.3,46h-5.9V34.6c0-1.9-1.5-3.4-3.4-3.4s-3.4,1.5-3.4,3.4V46h-5.9l-0.4-0.3c-2.4-2-4.4-4.5-5.7-7.3
	c-1.3-2.8-2-5.9-2-9.1v-4C2,22.6,0,18.5,0,14c0-3.7,1.5-7.2,4.1-9.8c2.6-2.6,6.1-4.1,9.8-4.2c3.4-0.1,6.5,1.1,9.1,3.2
	c2.6-2.1,5.8-3.2,9.1-3.2c3.7,0.1,7.2,1.5,9.8,4.2C44.5,6.8,46,10.3,46,14c0,4.4-2,8.6-5.5,11.3v4c0,3.1-0.7,6.2-2,9.1
	c-1.3,2.8-3.3,5.3-5.7,7.3L32.3,46z M29.1,43.3h2.2c4.1-3.5,6.4-8.6,6.4-14v-5.4l0.6-0.4c3.1-2.2,5-5.7,4.9-9.5
	c0-6.2-5.1-11.2-11.2-11.3c-3.1,0-5.9,1.1-8.1,3.2L23,6.8l-0.9-0.9c-2.2-2.1-5.1-3.3-8.1-3.2C7.8,2.8,2.7,7.9,2.7,14
	c0,3.8,1.8,7.3,4.9,9.5l0.6,0.4v5.4c0,5.4,2.3,10.5,6.4,14h2.2v-8.7c0-3.4,2.7-6.1,6.1-6.1s6.1,2.7,6.1,6.1V43.3z"/>
</svg>
