<?xml version="1.0" encoding="utf-8"?>
<!-- Generator: Adobe Illustrator 25.3.1, SVG Export Plug-In . SVG Version: 6.00 Build 0)  -->
<svg version="1.1" id="icon" xmlns="http://www.w3.org/2000/svg" xmlns:xlink="http://www.w3.org/1999/xlink" x="0px" y="0px"
	 viewBox="0 0 52 52" style="enable-background:new 0 0 52 52;" xml:space="preserve">
<style type="text/css">
	.st0{fill:#D73F34;}
</style>
<path class="st0" d="M18.7,21.8h14.7c0.8,0,1.5-0.7,1.5-1.5V17c0-3.3-1.9-6.3-4.6-7.8c0.8-1,1.4-2.3,1.4-3.6C31.6,2.5,29.1,0,26,0
	c-3.1,0-5.6,2.5-5.6,5.6c0,1.4,0.5,2.7,1.4,3.6c-2.7,1.5-4.6,4.4-4.6,7.8v3.3C17.1,21.1,17.8,21.8,18.7,21.8z M26,3
	c1.4,0,2.6,1.1,2.6,2.6S27.4,8.2,26,8.2c-1.4,0-2.6-1.1-2.6-2.6S24.6,3,26,3z M20.2,17c0-3.2,2.6-5.8,5.8-5.8s5.8,2.6,5.8,5.8v1.7
	H20.2V17z"/>
<path class="st0" d="M17.7,27c-2.2-2.2-5.7-2.2-7.9,0c0,0,0,0,0,0c-0.1,0.1-0.2,0.2-0.2,0.2v-7.8c0-2.6-2.1-4.8-4.8-4.8H1.5
	c-0.8,0-1.5,0.7-1.5,1.5v19.6c0,0.4,0.2,0.8,0.4,1.1l9.3,9.3v4.3c0,0.8,0.7,1.5,1.5,1.5h11.4c0.8,0,1.5-0.7,1.5-1.5V37.5
	c0-2.6-1-5-2.8-6.8L17.7,27z M21.2,49h-8.4v-3.4c0-0.4-0.2-0.8-0.4-1.1L3,35.2V17.7h1.7c1,0,1.7,0.8,1.7,1.7v11.4
	c0,0.4,0.2,0.8,0.4,1.1l6.5,6.5l0,0c0.6,0.6,1.6,0.6,2.2,0c0.6-0.6,0.6-1.6,0-2.2l-0.1-0.1c0.1,0.1-3.6-3.6-3.6-3.6
	c-1-1-1-2.6,0-3.6c0,0,0,0,0,0c1-1,2.6-1,3.5,0l3.7,3.7c1.3,1.3,1.9,2.9,1.9,4.7L21.2,49L21.2,49z"/>
<path class="st0" d="M50.5,14.7h-3.3c-2.6,0-4.8,2.1-4.8,4.8v7.8c-0.1-0.1-0.1-0.2-0.2-0.2c0,0,0,0,0,0c-2.2-2.2-5.7-2.2-7.9,0
	l-3.7,3.7c-1.8,1.8-2.8,4.3-2.8,6.8v12.9c0,0.8,0.7,1.5,1.5,1.5h11.4c0.8,0,1.5-0.7,1.5-1.5v-4.3l9.3-9.3c0.3-0.3,0.4-0.7,0.4-1.1
	V16.2C52,15.4,51.3,14.7,50.5,14.7z M49,35.2l-9.3,9.3c-0.3,0.3-0.4,0.7-0.4,1.1V49h-8.4V37.5c0-1.8,0.7-3.4,1.9-4.7l3.7-3.7
	c1-1,2.6-1,3.5,0c0,0,0,0,0,0c1,1,1,2.6,0,3.6c0,0-3.7,3.7-3.6,3.6l-0.1,0.1c-0.6,0.6-0.6,1.6,0,2.2c0.6,0.6,1.6,0.6,2.2,0
	c0,0,0,0,0,0L45,32c0.3-0.3,0.4-0.7,0.4-1.1V19.5c0-1,0.8-1.7,1.7-1.7H49V35.2z"/>
</svg>
