<?xml version="1.0" encoding="utf-8"?>
<!-- Generator: Adobe Illustrator 25.3.1, SVG Export Plug-In . SVG Version: 6.00 Build 0)  -->
<svg version="1.1" id="icon" xmlns="http://www.w3.org/2000/svg" xmlns:xlink="http://www.w3.org/1999/xlink" x="0px" y="0px"
	 viewBox="0 0 48 52" style="enable-background:new 0 0 48 52;" xml:space="preserve">
<style type="text/css">
	.st0{fill:#D73F34;}
</style>
<path class="st0" d="M2.7,0v6.9H0v3h2.7v5.8H0v3h2.7v5.8H0v3h2.7v5.8H0v3h2.7v5.8H0v3h2.7V52H48V0H2.7z M44.9,49H5.7v-3.8h2.7v-3
	H5.7v-5.8h2.7v-3H5.7v-5.8h2.7v-3H5.7v-5.8h2.7v-3H5.7V9.9h2.7v-3H5.7V3h39.2V49z"/>
<path class="st0" d="M29.4,11.9h9.9v3h-9.9V11.9z"/>
<path class="st0" d="M29.4,24.5h9.9v3h-9.9V24.5z"/>
<path class="st0" d="M29.4,38.1h9.9v3h-9.9V38.1z"/>
<path class="st0" d="M24.7,10.6l-2.2-2.2l-4.9,4.9L15.3,11l-2.2,2.2l4.4,4.4L24.7,10.6z"/>
<path class="st0" d="M24.7,23.4l-2.2-2.2l-4.9,4.9l-2.3-2.3L13.2,26l4.4,4.4L24.7,23.4z"/>
<path class="st0" d="M24.7,36.2L22.6,34L17.6,39l-2.3-2.3l-2.2,2.2l4.4,4.4L24.7,36.2z"/>
</svg>
