<?xml version="1.0" encoding="utf-8"?>
<!-- Generator: Adobe Illustrator 25.3.1, SVG Export Plug-In . SVG Version: 6.00 Build 0)  -->
<svg version="1.1" id="icon" xmlns="http://www.w3.org/2000/svg" xmlns:xlink="http://www.w3.org/1999/xlink" x="0px" y="0px"
	 viewBox="0 0 41.3 54" style="enable-background:new 0 0 41.3 54;" xml:space="preserve">
<style type="text/css">
	.st0{fill:#D73F34;}
</style>
<path class="st0" d="M36.5,6.4V0H0v49.2h6.4V54h24.5l10.5-10.5V6.4H36.5z M3.2,46.1V3.2h30.2v3.2h-27v39.7H3.2z M9.5,9.5h28.6v31.8
	h-9.5v9.5H9.5V9.5z M35.9,44.5l-4.1,4.1v-4.1H35.9z"/>
<path class="st0" d="M12.7,12.7h22.2v3.2H12.7V12.7z"/>
<path class="st0" d="M12.7,19.1h22.2v3.2H12.7V19.1z"/>
<path class="st0" d="M12.7,25.4h22.2v3.2H12.7V25.4z"/>
<path class="st0" d="M12.7,31.8h22.2v3.2H12.7V31.8z"/>
<path class="st0" d="M12.7,38.1h11.1v3.2H12.7V38.1z"/>
</svg>
