<?xml version="1.0" encoding="utf-8"?>
<!-- Generator: Adobe Illustrator 25.3.1, SVG Export Plug-In . SVG Version: 6.00 Build 0)  -->
<svg version="1.1" id="icon" xmlns="http://www.w3.org/2000/svg" xmlns:xlink="http://www.w3.org/1999/xlink" x="0px" y="0px"
	 viewBox="0 0 41.4 50.5" style="enable-background:new 0 0 41.4 50.5;" xml:space="preserve">
<style type="text/css">
	.st0{fill:#D73F34;}
</style>
<path class="st0" d="M14.8,17.9h3v3h-3V17.9z"/>
<path class="st0" d="M23.7,17.9h3v3h-3V17.9z"/>
<path class="st0" d="M28.1,32.7h-1.5v-1.6c3.5-2,5.9-5.9,5.9-10.2V0H8.9v20.9c0,4.4,2.4,8.2,5.9,10.2v1.6h-1.5C6,32.7,0,38.7,0,46
	v4.4h41.4V46C41.4,38.7,35.4,32.7,28.1,32.7z M29.6,3V12h-7.4V9h3V6h-3V3H29.6z M11.8,3h7.4V6h-3v3h3V12h-7.4V3z M11.8,20.9V15h17.7
	v5.9c0,4.9-4,8.9-8.9,8.9S11.8,25.8,11.8,20.9z M20.7,32.7c1,0,2-0.1,3-0.4v1.2l-3,3l-3-3v-1.2C18.7,32.6,19.7,32.7,20.7,32.7z
	 M3,46c0-4.7,3.1-8.6,7.4-9.9v5.7c-2.5,0.7-4.4,3-4.4,5.7H3V46z M11.8,44.5c1.6,0,3,1.3,3,3H8.9C8.9,45.9,10.2,44.5,11.8,44.5z
	 M13.3,41.8v-6.1h2.3l5,5l5-5h2.3v11.8H17.7C17.7,44.8,15.9,42.4,13.3,41.8z M38.4,47.5H31V36.1c4.3,1.3,7.4,5.2,7.4,9.9V47.5z"/>
</svg>
