<?xml version="1.0" encoding="utf-8"?>
<!-- Generator: Adobe Illustrator 25.3.1, SVG Export Plug-In . SVG Version: 6.00 Build 0)  -->
<svg version="1.1" id="icon" xmlns="http://www.w3.org/2000/svg" xmlns:xlink="http://www.w3.org/1999/xlink" x="0px" y="0px"
	 viewBox="0 0 50 44.1" style="enable-background:new 0 0 50 44.1;" xml:space="preserve">
<style type="text/css">
	.st0{fill:#D73F34;}
</style>
<path class="st0" d="M47.8,34.9c1.4-2.6,2.2-5.5,2.2-8.4c0-9.5-7.6-17.3-17.1-17.6C29.9,3.6,24.2,0,17.6,0C7.9,0,0,7.9,0,17.6
	c0,3,0.7,5.9,2.2,8.4l-1.1,6.4C1,33,1.2,33.5,1.5,33.8c0.3,0.3,0.8,0.5,1.3,0.4l6.4-1.1c2.4,1.3,5.1,2.1,7.9,2.1
	c3.1,5.3,8.8,8.8,15.3,8.8c3,0,5.9-0.7,8.4-2.2l6.4,1.1c0.5,0.1,0.9-0.1,1.3-0.4c0.3-0.3,0.5-0.8,0.4-1.3L47.8,34.9z M9.5,30.1
	c-0.1,0-0.2,0-0.2,0L4.3,31l0.8-4.9c0.1-0.3,0-0.7-0.2-1c-1.3-2.2-2-4.8-2-7.4c0-8.1,6.6-14.7,14.7-14.7c8.1,0,14.7,6.6,14.7,14.7
	c0,8.1-6.6,14.7-14.7,14.7c-2.6,0-5.2-0.7-7.4-2C10,30.2,9.7,30.1,9.5,30.1L9.5,30.1z M44.9,34.9l0.8,4.9L40.8,39
	c-0.3-0.1-0.7,0-1,0.2c-2.2,1.3-4.8,2-7.4,2c-4.9,0-9.3-2.4-11.9-6.1c1.2-0.2,2.4-0.5,3.5-0.9c0.2,0.1,0.5,0.2,0.8,0.2H40
	c0.8,0,1.5-0.7,1.5-1.5c0-0.8-0.7-1.5-1.5-1.5H28.6c1.3-1,2.4-2.2,3.3-3.5h8c0.8,0,1.5-0.7,1.5-1.5S40.8,25,40,25h-6.3
	c0.5-1.1,0.9-2.3,1.2-3.5H40c0.8,0,1.5-0.7,1.5-1.5s-0.7-1.5-1.5-1.5h-4.7c0-0.3,0-0.6,0-0.9c0-2-0.3-4-1-5.8
	c7.2,1,12.7,7.1,12.7,14.6c0,2.6-0.7,5.2-2,7.4C44.9,34.2,44.8,34.5,44.9,34.9L44.9,34.9z"/>
<path class="st0" d="M15.4,13c0-1.2,1-2.2,2.2-2.2c1.2,0,2.2,1,2.2,2.2s-1,2.2-2.2,2.2c-0.8,0-1.5,0.7-1.5,1.5V21
	c0,0.8,0.7,1.5,1.5,1.5c0.8,0,1.5-0.7,1.5-1.5V18c2.1-0.6,3.7-2.6,3.7-4.9c0-2.8-2.3-5.2-5.2-5.2c-2.8,0-5.2,2.3-5.2,5.2
	c0,0.8,0.7,1.5,1.5,1.5S15.4,13.9,15.4,13L15.4,13z"/>
<path class="st0" d="M17.6,24.5c-0.8,0-1.5,0.7-1.5,1.5c0,0.8,0.6,1.5,1.5,1.5c0.8,0,1.5-0.7,1.5-1.5C19.1,25.1,18.5,24.5,17.6,24.5
	z"/>
</svg>
