<?xml version="1.0" encoding="utf-8"?>
<!-- Generator: Adobe Illustrator 25.3.1, SVG Export Plug-In . SVG Version: 6.00 Build 0)  -->
<svg version="1.1" id="icon" xmlns="http://www.w3.org/2000/svg" xmlns:xlink="http://www.w3.org/1999/xlink" x="0px" y="0px"
	 viewBox="0 0 27.4 27" style="enable-background:new 0 0 27.4 27;" xml:space="preserve">
<style type="text/css">
	.st0{clip-path:url(#SVGID_2_);}
	.st1{fill:#FFFFFF;}
	.st2{fill-rule:evenodd;clip-rule:evenodd;fill:#FFFFFF;}
</style>
<g>
	<defs>
		<rect id="SVGID_1_" x="0.2" width="27" height="27"/>
	</defs>
	<clipPath id="SVGID_2_">
		<use xlink:href="#SVGID_1_"  style="overflow:visible;"/>
	</clipPath>
	<g class="st0">
		<path class="st1" d="M0.5,11l12.8-9.4c0.2-0.2,0.6-0.2,0.8,0L26.9,11c0.3,0.2,0.4,0.7,0.2,1c-0.2,0.3-0.7,0.4-1,0.2L13.7,3
			L1.3,12.1c-0.1,0.1-0.3,0.1-0.4,0.1c-0.2,0-0.4-0.1-0.6-0.3C0.1,11.6,0.2,11.2,0.5,11z"/>
		<path class="st2" d="M13.2,1.4L13.2,1.4L0.4,10.8L0.5,11l-0.1-0.2c-0.4,0.3-0.5,0.9-0.2,1.3c0.2,0.2,0.5,0.4,0.7,0.4
			c0.2,0,0.4-0.1,0.5-0.2c0,0,0,0,0,0l12.3-9l12.3,9l0,0c0.4,0.3,1,0.2,1.3-0.2c0.3-0.4,0.2-1-0.2-1.3l0,0L14.2,1.4c0,0,0,0,0,0
			C13.9,1.2,13.5,1.2,13.2,1.4z M14.1,1.6L26.9,11c0.3,0.2,0.4,0.7,0.2,1c-0.2,0.3-0.7,0.4-1,0.2L13.7,3L1.3,12.1
			c-0.1,0.1-0.3,0.1-0.4,0.1c-0.2,0-0.4-0.1-0.6-0.3c-0.2-0.3-0.2-0.8,0.2-1l12.8-9.4C13.5,1.4,13.9,1.4,14.1,1.6z"/>
		<path class="st1" d="M3.9,12.3c0.4,0,0.7,0.3,0.7,0.7v11.2h5.6V18c0-1.9,1.6-3.5,3.5-3.5c1.9,0,3.5,1.6,3.5,3.5v6.1h5.6V13
			c0-0.4,0.3-0.7,0.7-0.7s0.7,0.3,0.7,0.7v11.9c0,0.4-0.3,0.7-0.7,0.7h-7c-0.4,0-0.7-0.3-0.7-0.6c0,0,0,0,0-0.1V18
			c0-1.2-0.9-2.1-2.1-2.1c-1.2,0-2.1,0.9-2.1,2.1v6.8c0,0,0,0,0,0.1c0,0.4-0.3,0.6-0.7,0.6h-7c-0.4,0-0.7-0.3-0.7-0.7V13
			C3.2,12.6,3.5,12.3,3.9,12.3z"/>
	</g>
</g>
</svg>
