<?xml version="1.0" encoding="utf-8"?>
<!-- Generator: Adobe Illustrator 25.3.1, SVG Export Plug-In . SVG Version: 6.00 Build 0)  -->
<svg version="1.1" id="icon" xmlns="http://www.w3.org/2000/svg" xmlns:xlink="http://www.w3.org/1999/xlink" x="0px" y="0px"
	 viewBox="0 0 29 23.4" style="enable-background:new 0 0 29 23.4;" xml:space="preserve">
<style type="text/css">
	.st0{fill:#333333;}
</style>
<path class="st0" d="M26,11.5c-0.3-3.1-2.1-5.8-4.6-7.2c0,0,0-0.1,0-0.1c0-2.3-1.9-4.2-4.2-4.2c-1.9,0-3.6,1.3-4,3.1h-1.6
	c-0.2-0.6-0.5-1.1-0.9-1.5c-0.6-0.6-1.5-1-2.4-1H5.8v4C4.3,5.6,3.2,7,2.5,8.6L0,9.3v6.1l2.5,0.7c0.7,1.6,1.9,3.1,3.4,4v3.4H11
	l0.5-1.9h4.6l0.5,1.9h5.1v-3.4c2.4-1.5,3.9-4,4.2-6.8c0.2,0.1,0.3,0.1,0.5,0.2c0.2,0.1,0.3,0.3,0.5,0.4c0.3,0.3,0.4,0.7,0.4,1.2H29
	C29,13.3,27.7,11.8,26,11.5z M20.1,19.1v2.6H18l-0.5-1.9h-7.1l-0.5,1.9H7.6v-2.6l-0.4-0.2C5.7,18,4.5,16.7,3.9,15l-0.2-0.4l-2-0.5
	v-3.5l2-0.5l0.2-0.4C4.5,8,5.6,6.7,7.1,5.8l0.4-0.2V2.3h0.8C9.2,2.3,10,3,10,4l0,0.8l0.8,0l2.2,0c0.1,0.7,0.4,1.3,0.8,1.9h-1.2v1.7
	c0,0,4.4,0,4.5,0c1.6,0,3-0.9,3.7-2.3c2,1.4,3.4,3.7,3.4,6.3c0,2.7-1.5,5.2-3.8,6.5L20.1,19.1z M19.7,4.2c0,1.4-1.1,2.5-2.5,2.5
	c-1.4,0-2.5-1.1-2.5-2.5c0-1.4,1.1-2.5,2.5-2.5C18.6,1.7,19.7,2.8,19.7,4.2z"/>
<path class="st0" d="M8.3,9.7H6.6v1.7h1.7V9.7z"/>
</svg>
