<svg width="25" height="43" viewBox="0 0 25 43" fill="none" xmlns="http://www.w3.org/2000/svg">
<path d="M6.23329 2.96298C5.69978 1.22724 7.31665 0.410628 8.69352 1.3765C11.3552 3.24335 12.7443 6.40816 13.957 9.31074C14.5186 10.655 17.0079 15.3509 15.4264 16.6153C13.8572 17.8697 8.20039 15.9924 8.12916 12.8888C8.0906 11.2048 8.14595 9.51081 7.92048 7.83722C7.6755 6.01845 6.75637 4.66334 6.23329 2.96298Z" fill="url(#paint0_linear_28_1678)"/>
<path d="M22.0231 26.8862C22.9853 20.5784 22.9699 12.9677 20.1663 7.12991C19.5148 5.77299 18.6279 4.53175 17.5713 3.46019C17.1566 3.03964 14.6864 0.514532 14.1674 1.13606C13.638 1.76983 14.1166 3.18617 14.2105 3.89072C14.3675 5.0698 14.5163 6.24979 14.6392 7.43295C14.8883 9.8333 15.5085 12.4342 14.8597 14.8227C14.7168 15.3485 14.3866 15.8684 13.8685 16.0367C13.5949 16.1257 13.2968 16.1075 13.016 16.0467C11.2386 15.6616 9.95242 13.8696 8.85954 12.5548C7.29666 10.6753 6.39977 8.56394 5.61901 6.26612C5.23974 5.1501 4.80603 4.06583 3.85288 3.32227C3.62333 3.14307 1.37451 0.383878 1.02065 0.468713C-0.144367 0.747265 0.258035 3.89026 0.300226 4.60479C0.626865 10.1613 4.70079 20.0222 4.70079 20.0222C4.70079 20.0222 5.68116 26.232 4.70079 28.1932C3.72041 30.1548 20.7161 30.1549 22.0231 26.8862Z" fill="url(#paint1_linear_28_1678)"/>
<path d="M23.0043 27.8654C23.0038 27.865 20.3893 24.9238 14.5062 24.9238C8.62301 24.9238 4.37396 26.885 3.39358 29.4995C2.4132 32.114 2.08611 39.3047 5.68143 40.6121C6.81877 41.0259 8.06908 41.1284 9.09437 40.3953C9.97131 39.7683 10.3179 38.616 11.6367 39.0434C12.2115 39.2294 12.6856 39.6327 13.1728 39.9902C15.3151 41.5617 18.9557 43.1917 21.3956 41.3367C24.7309 38.8006 25.9087 31.1332 23.0043 27.8654Z" fill="url(#paint2_linear_28_1678)"/>
<path d="M10.6097 33.3659L9.60212 32.6637L9.67471 31.0839L10.5135 30.5736L10.6592 29.0419L12.0451 29.4067V28.3855L12.5555 28.0938L14.3057 28.8233L16.0559 29.771L16.858 28.8233L16.931 30.2818L16.5663 32.5788L17.3688 33.2353L16.3476 33.8918L16.3508 35.2591L14.7934 36.5417L12.1975 36.8779L10.8783 36.0799L8.72656 35.2043L9.45605 34.3291L10.6097 33.3659Z" fill="#ADADAD"/>
<defs>
<linearGradient id="paint0_linear_28_1678" x1="12.7714" y1="17.5087" x2="5.56063" y2="-17.9111" gradientUnits="userSpaceOnUse">
<stop offset="0.1599" stop-color="#BFAB8D"/>
<stop offset="0.5078" stop-color="#E7E1D2"/>
<stop offset="0.7297" stop-color="#CCBFA6"/>
</linearGradient>
<linearGradient id="paint1_linear_28_1678" x1="27.9699" y1="14.9203" x2="0.87704" y2="15.0182" gradientUnits="userSpaceOnUse">
<stop offset="0.1599" stop-color="#BFAB8D"/>
<stop offset="0.5078" stop-color="#E7E1D2"/>
<stop offset="0.7297" stop-color="#CCBFA6"/>
</linearGradient>
<linearGradient id="paint2_linear_28_1678" x1="29.6239" y1="33.4967" x2="-2.55351" y2="33.613" gradientUnits="userSpaceOnUse">
<stop stop-color="#94938C"/>
<stop offset="0.2296" stop-color="#EDEBE1"/>
<stop offset="0.7988" stop-color="#EDEBE1"/>
<stop offset="1" stop-color="#94938C"/>
</linearGradient>
</defs>
</svg>
