<svg width="19" height="61" viewBox="0 0 19 61" fill="none" xmlns="http://www.w3.org/2000/svg">
<path d="M6.61593 34.7855C6.61593 34.7855 3.34779 36.093 2.36699 43.6102C2.36699 43.6102 1.38665 51.4546 1.05957 53.7425C0.732932 56.0303 0.732934 58.9719 4.3277 59.9523C7.92292 60.9326 11.191 60.2789 13.1522 59.6256C15.1134 58.9723 18.0549 57.0107 18.7086 54.7228C19.3623 52.435 18.7086 41.3224 17.7282 39.3612C16.7479 37.4004 14.4596 32.171 6.61593 34.7855Z" fill="url(#paint0_linear_28_1563)"/>
<path d="M9.88306 3.73503C9.88306 3.73503 2.70867 19.4201 5.64212 35.9272C5.64212 35.9272 16.0444 34.6941 16.5589 37.5177C15.0999 30.6506 14.3989 23.4237 14.6861 16.4136C14.8027 13.5696 15.0032 10.7297 15.0831 7.88426C15.1348 6.03149 15.4569 3.91468 14.6616 2.18894C14.3277 1.46352 13.7756 0.397414 12.8696 0.312579C11.3321 0.168767 10.344 2.67481 9.88306 3.73503Z" fill="url(#paint1_linear_28_1563)"/>
<path d="M7.34208 48.9639L6.19294 48.1632L6.27596 46.3621L7.2323 45.78L7.39879 44.0338L8.97845 44.4498V43.2857L9.56051 42.9531L11.5557 43.7843L13.5514 44.8654L14.466 43.7843L14.549 45.4474L14.1335 48.0665L15.0481 48.8151L13.8839 49.5632L13.8876 51.1225L12.1119 52.5847L9.15265 52.9676L7.64831 52.0575L5.19531 51.0599L6.02689 50.0622L7.34208 48.9639Z" fill="#ADADAD"/>
<defs>
<linearGradient id="paint0_linear_28_1563" x1="-3.54926" y1="47.9099" x2="22.4605" y2="46.6068" gradientUnits="userSpaceOnUse">
<stop stop-color="#94938C"/>
<stop offset="0.2296" stop-color="#EDEBE1"/>
<stop offset="0.7988" stop-color="#EDEBE1"/>
<stop offset="1" stop-color="#94938C"/>
</linearGradient>
<linearGradient id="paint1_linear_28_1563" x1="13.9297" y1="18.925" x2="4.94862" y2="19.0856" gradientUnits="userSpaceOnUse">
<stop stop-color="#BFAB8D"/>
<stop offset="0.5078" stop-color="#E7E1D2"/>
<stop offset="1" stop-color="#CCBFA6"/>
</linearGradient>
</defs>
</svg>
