<svg width="20" height="70" viewBox="0 0 20 70" fill="none" xmlns="http://www.w3.org/2000/svg">
<path d="M3.95312 45.5292C3.95312 45.5292 16.0347 42.501 17.0387 44.2281L12.1595 9.67545C12.1595 9.67545 8.73977 0.794922 7.43231 0.794922C6.12484 0.794922 4.81735 4.71687 4.81735 4.71687C4.81735 4.71687 4.24439 37.2598 3.95312 45.5292Z" fill="url(#paint0_linear_28_1567)"/>
<path d="M6.27645 42.0329C6.276 42.0338 -0.914183 51.5118 0.393286 59.3557C0.815197 61.8868 1.67899 64.5321 3.20467 66.6194C3.94869 67.6374 4.91543 68.5589 6.13444 68.9626C7.74677 69.4966 9.81596 69.0774 11.4324 68.7167C12.2281 68.5393 13.0098 68.2948 13.7511 67.9537C18.9338 65.5701 20.3029 59.4247 19.886 54.2166C19.5929 50.5582 18.4824 47.0092 17.0388 43.6566C16.1024 41.4817 13.9212 40.9119 11.744 40.6038C10.1054 40.372 7.3902 40.5644 6.27645 42.0329Z" fill="url(#paint1_linear_28_1567)"/>
<path d="M6.53338 55.9696L5.38429 55.1689L5.46731 53.3678L6.4236 52.7858L6.59009 51.0396L8.16967 51.4556V50.2915L8.7517 49.959L10.7468 50.7901L12.7424 51.8712L13.657 50.7901L13.74 52.4532L13.3244 55.0723L14.239 55.8208L13.0749 56.5689L13.0786 58.1282L11.303 59.5903L8.34386 59.9732L6.83959 59.0632L4.38672 58.0656L5.21825 57.0679L6.53338 55.9696Z" fill="#ADADAD"/>
<defs>
<linearGradient id="paint0_linear_28_1567" x1="15.3071" y1="23.4583" x2="5.4135" y2="23.1535" gradientUnits="userSpaceOnUse">
<stop stop-color="#BFAB8D"/>
<stop offset="0.5078" stop-color="#E7E1D2"/>
<stop offset="1" stop-color="#CCBFA6"/>
</linearGradient>
<linearGradient id="paint1_linear_28_1567" x1="26.2353" y1="54.5647" x2="-6.71735" y2="55.1537" gradientUnits="userSpaceOnUse">
<stop stop-color="#94938C"/>
<stop offset="0.2296" stop-color="#EDEBE1"/>
<stop offset="0.7988" stop-color="#EDEBE1"/>
<stop offset="1" stop-color="#94938C"/>
</linearGradient>
</defs>
</svg>
