<svg width="19" height="58" viewBox="0 0 19 58" fill="none" xmlns="http://www.w3.org/2000/svg">
<path d="M9.96094 56.3029C9.96094 56.3029 15.307 57.1381 17.0482 54.2967C18.789 51.4554 10.5108 54.6134 9.96094 56.3029Z" fill="#D8D6D0"/>
<path d="M15.3238 38.382C15.3238 38.382 14.9972 27.2694 14.0163 24.3278C13.0359 21.3862 12.0551 11.5811 12.3822 8.96614C12.7093 6.3512 12.7088 2.42923 12.7088 2.42923C12.7088 2.42923 13.0355 -0.512352 10.0939 1.7755C7.15233 4.06335 3.55699 15.176 3.88408 19.7516C4.21118 24.3273 4.31418 38.1161 4.26246 38.0857C4.21119 38.0549 15.3238 38.382 15.3238 38.382Z" fill="url(#paint0_linear_28_1571)"/>
<path d="M4.53911 37.0746C4.53911 37.0746 -2.97833 48.1872 2.57785 54.0703C3.25655 54.7889 4.32406 55.2943 5.15111 55.8201C6.00493 56.3631 6.9159 57.1171 7.95663 57.2346C9.15026 57.3698 10.024 56.1208 11.1973 55.8772C13.0623 55.4898 14.8875 55.7965 16.4803 54.5244C17.7955 53.4742 18.5931 51.8369 18.8639 50.1973C19.2015 48.1518 18.8521 46.0731 18.4447 44.0647C18.271 43.2086 17.9752 42.3939 17.629 41.5922C17.2606 40.7375 16.5951 39.9032 16.3057 39.0349C16.3057 39.0358 13.6907 31.1915 4.53911 37.0746Z" fill="url(#paint1_linear_28_1571)"/>
<path d="M7.35759 47.241L6.20851 46.4403L6.29153 44.6392L7.24781 44.0572L7.4143 42.3111L8.99388 42.7271V41.563L9.5759 41.2305L11.571 42.0616L13.5666 43.1426L14.4811 42.0616L14.5642 43.7247L14.1486 46.3436L15.0632 47.0922L13.8991 47.8402L13.9027 49.3995L12.1272 50.8616L9.16807 51.2445L7.6638 50.3344L5.21094 49.3368L6.04247 48.3393L7.35759 47.241Z" fill="#ADADAD"/>
<defs>
<linearGradient id="paint0_linear_28_1571" x1="14.4242" y1="19.6907" x2="1.53153" y2="19.2935" gradientUnits="userSpaceOnUse">
<stop stop-color="#BFAB8D"/>
<stop offset="0.5078" stop-color="#E7E1D2"/>
<stop offset="1" stop-color="#CCBFA6"/>
</linearGradient>
<linearGradient id="paint1_linear_28_1571" x1="22.5759" y1="46.4709" x2="-4.15093" y2="45.6476" gradientUnits="userSpaceOnUse">
<stop stop-color="#94938C"/>
<stop offset="0.2296" stop-color="#EDEBE1"/>
<stop offset="0.7988" stop-color="#EDEBE1"/>
<stop offset="1" stop-color="#94938C"/>
</linearGradient>
</defs>
</svg>
