<svg width="19" height="55" viewBox="0 0 19 55" fill="none" xmlns="http://www.w3.org/2000/svg">
<path d="M9.53125 54.2744C9.53125 54.2744 14.83 55.37 16.7077 52.6177C18.5859 49.8648 10.1627 52.614 9.53125 54.2744Z" fill="#D8D6D0"/>
<path d="M8.75324 54.5115C8.75324 54.5115 3.11008 54.893 1.70598 51.2337C0.301885 47.5744 8.4207 52.3933 8.75324 54.5115Z" fill="#D8D6D0"/>
<path d="M6.49998 33.9783C6.41695 34.0191 6.33802 34.0654 6.26362 34.1176C4.82596 35.1215 3.61421 36.7493 2.70008 38.2214C1.31097 40.458 0.319723 43.0162 0.586477 45.6856C0.768849 47.5102 0.973446 49.6084 1.88531 51.247C2.41791 52.2043 3.61513 52.643 4.59005 52.9823C5.42524 53.2731 6.26815 53.5462 7.08701 53.8815C7.84327 54.1909 8.58546 54.7185 9.43744 54.6504C10.4169 54.572 11.101 53.8044 11.8845 53.3062C13.1139 52.525 14.5856 52.1244 16.0419 52.1948C16.2977 52.207 16.5599 52.2329 16.8049 52.158C17.1629 52.0491 17.4246 51.7452 17.6356 51.4367C18.5964 50.033 18.571 48.6729 18.5792 47.0407C18.5878 45.3821 18.5556 43.7135 18.2394 42.0803C17.6764 39.17 15.7538 36.7624 14.743 34.0155C14.6849 33.8571 14.6269 33.6952 14.5203 33.5645C14.3379 33.3409 14.0394 33.2442 13.7518 33.2211C13.2128 33.1776 12.6698 33.261 12.1358 33.3182C11.1233 33.4271 10.1347 33.54 9.11669 33.6099C8.30962 33.6657 7.25124 33.6072 6.49998 33.9783Z" fill="url(#paint0_linear_28_1576)"/>
<path d="M4.35878 35.892C4.39508 35.9214 4.43861 35.9446 4.49169 35.9591C4.75845 36.034 5.58049 35.6316 5.87129 35.5553C6.83532 35.3031 7.81024 35.0921 8.79105 34.9166C9.8304 34.7306 10.8802 34.5541 11.9386 34.5455C12.4989 34.5409 13.0623 34.58 13.6108 34.6988C14.098 34.8045 14.6229 35.1384 15.0843 35.1802C15.4204 33.8695 15.0793 32.3452 15.0012 31.0142C14.9146 29.5343 14.7785 28.0576 14.5939 26.5868C14.2477 23.8267 13.5586 21.1696 13.0564 18.4444C12.5673 15.7937 12.4313 12.9914 12.4898 10.2921C12.517 9.02273 12.5941 7.75111 12.7397 6.48992C12.8636 5.41337 13.1739 4.4498 13.0637 3.33423C12.9516 2.20007 12.4195 0.482488 10.9219 0.947042C9.79457 1.29682 9.09276 2.53669 8.52386 3.4794C7.44006 5.27456 6.65113 7.23031 5.92436 9.19695C5.1985 11.1609 4.52934 13.1588 4.15054 15.2221C3.81982 17.0218 3.86019 18.7833 3.8915 20.6003C3.94049 23.4847 4.00947 26.3686 4.08069 29.2526C4.12651 31.113 4.02035 33.0547 4.16688 34.942C4.1932 35.2949 4.14148 35.7141 4.35878 35.892Z" fill="url(#paint1_linear_28_1576)"/>
<path d="M6.9124 45.6532L5.76325 44.8525L5.84627 43.0514L6.80261 42.4694L6.9691 40.7232L8.54877 41.1392V39.9751L9.13083 39.6426L11.126 40.4737L13.1217 41.5548L14.0363 40.4737L14.1193 42.1368L13.7038 44.7559L14.6184 45.5044L13.4543 46.2525L13.4579 47.8118L11.6822 49.2739L8.72297 49.6568L7.21862 48.7468L4.76562 47.7492L5.5972 46.7515L6.9124 45.6532Z" fill="#ADADAD"/>
<defs>
<linearGradient id="paint0_linear_28_1576" x1="24.5293" y1="44.3381" x2="-5.70668" y2="43.4067" gradientUnits="userSpaceOnUse">
<stop stop-color="#94938C"/>
<stop offset="0.2296" stop-color="#EDEBE1"/>
<stop offset="0.7988" stop-color="#EDEBE1"/>
<stop offset="1" stop-color="#94938C"/>
</linearGradient>
<linearGradient id="paint1_linear_28_1576" x1="17.9937" y1="19.4674" x2="3.63429" y2="17.9594" gradientUnits="userSpaceOnUse">
<stop stop-color="#BFAB8D"/>
<stop offset="0.5078" stop-color="#E7E1D2"/>
<stop offset="1" stop-color="#CCBFA6"/>
</linearGradient>
</defs>
</svg>
