<svg width="26" height="51" viewBox="0 0 26 51" fill="none" xmlns="http://www.w3.org/2000/svg">
<path d="M14.693 2.25719C14.693 2.25719 15.599 0.203003 17.4332 0.717457C19.2674 1.23191 19.9011 6.02577 19.5691 9.55981C19.2374 13.0938 17.6654 24.3066 14.9629 24.5375C12.2604 24.7684 7.31805 18.4176 9.56646 14.8795C11.8153 11.3418 15.5354 5.1316 14.693 2.25719Z" fill="url(#paint0_linear_28_1582)"/>
<path d="M2.86996 32.7097C6.06875 32.4792 9.69853 30.9155 12.9032 30.7889C14.9134 30.7095 16.9245 30.5766 18.937 30.641C19.8674 30.6705 21.2516 33.1511 22.1535 33.0363C22.7387 32.9619 22.3526 30.5584 22.3286 29.9365C22.3082 29.407 22.2632 28.8799 22.3408 28.3522C22.6194 26.4505 23.6655 24.6449 24.1006 22.7431C24.6042 20.5433 24.9444 18.3008 25.1535 16.0543C25.3754 13.6712 25.4688 11.2368 25.1572 8.85686C25.0229 7.83067 24.8396 6.7886 24.4322 5.83091C24.1151 5.08554 23.3461 3.62247 22.3635 3.73452C22.0028 3.77581 21.6798 3.98087 21.4099 4.22449C20.8809 4.7022 20.5125 5.33823 20.2689 6.00829C19.7667 7.39061 19.7776 8.8791 19.681 10.3272C19.5812 11.8202 19.1742 13.203 18.8394 14.652C18.2179 17.3445 17.4839 20.5134 15.72 22.7204C15.2909 23.2576 14.6457 23.6922 13.9612 23.6273C13.61 23.5937 13.282 23.4322 12.9953 23.2267C11.9623 22.4859 11.437 21.2075 11.2578 19.949C10.8908 17.3704 11.167 14.5259 11.8562 12.0262C12.2604 10.559 13.0071 9.24521 13.4635 7.81072C13.9458 6.29411 14.5999 3.28539 12.4618 2.70787C11.5989 2.47469 10.6803 2.91566 10.0351 3.53446C7.64342 5.82774 6.02793 9.23703 4.6447 12.1931C3.79635 14.0055 2.97747 15.8792 2.4553 17.8163C2.14136 18.9809 2.17495 20.1413 2.20807 21.344C2.30107 24.7057 2.49614 29.3762 2.86996 32.7097Z" fill="url(#paint1_linear_28_1582)"/>
<path opacity="0.85" d="M21.8098 34.8752C22.082 34.9582 22.4722 35.6977 22.6232 35.9104C23.2216 36.7547 23.7397 37.6634 24.1276 38.6243C25.1728 41.2134 25.0213 44.0529 23.0606 46.1738C23.0375 46.1987 23.0139 46.2237 22.9907 46.2486C22.885 46.3598 22.7748 46.4682 22.6886 46.5948C22.4468 46.95 22.3891 47.395 22.16 47.7593C21.9441 48.1037 21.6261 48.4258 21.3176 48.6857C20.5922 49.2982 19.6259 49.7237 18.661 49.6284C18.3293 49.5958 18.0132 49.4778 17.7015 49.3608C16.3482 48.8527 14.8784 48.2733 14.1611 46.9296C14.2428 47.0829 13.8703 47.7067 13.7764 47.8337C13.5514 48.1395 13.2756 48.2724 12.9276 48.4067C11.7785 48.8509 10.5278 49.2074 9.42629 49.7582C8.66505 50.0513 8.02266 50.3298 7.24826 50.0758C6.79732 49.9279 6.34049 49.7981 5.89455 49.6348C5.05981 49.3295 3.67115 48.7951 3.67115 47.7121C3.67115 46.0377 2.27569 41.0147 5.62461 35.9916C8.97217 30.9705 21.7994 34.872 21.8098 34.8752Z" fill="#D8D6D0"/>
<path d="M21.8279 30.748C22.1468 30.845 22.6041 31.7115 22.7806 31.9606C23.4815 32.9496 24.0881 34.0139 24.5426 35.139C25.7671 38.1717 25.5892 41.4975 23.2932 43.9809C23.266 44.0099 23.2384 44.0394 23.2112 44.0685C23.0873 44.1987 22.9585 44.3257 22.8573 44.474C22.5738 44.8905 22.5066 45.4109 22.2385 45.8382C21.9853 46.2411 21.6129 46.6185 21.2518 46.9234C20.402 47.6406 19.2701 48.1387 18.1405 48.0276C17.7522 47.9895 17.382 47.8511 17.0168 47.7141C15.4317 47.1194 13.7105 46.4402 12.8699 44.8665C12.9656 45.0457 12.5291 45.7765 12.4194 45.9258C12.1558 46.2837 11.8323 46.4393 11.4254 46.5967C10.0794 47.1171 8.61447 47.5345 7.32425 48.1796C6.4328 48.523 5.68062 48.8492 4.77329 48.5516C4.24523 48.3783 3.70991 48.2263 3.18775 48.0353C2.2101 47.6778 0.583716 47.0518 0.583716 45.7833C0.583716 43.8221 -1.0504 37.939 2.87153 32.0559C6.7921 26.1746 21.8157 30.7443 21.8279 30.748Z" fill="url(#paint2_linear_28_1582)"/>
<path d="M8.37322 39.7509L7.22414 38.9501L7.30716 37.1491L8.26345 36.567L8.42993 34.8209L10.0095 35.2369V34.0728L10.5915 33.7402L12.5867 34.5714L14.5822 35.6524L15.4968 34.5714L15.5798 36.2345L15.1643 38.8535L16.0788 39.6021L14.9148 40.3502L14.9184 41.9094L13.1428 43.3716L10.1837 43.7545L8.67943 42.8444L6.22656 41.8468L7.0581 40.8492L8.37322 39.7509Z" fill="#ADADAD"/>
<defs>
<linearGradient id="paint0_linear_28_1582" x1="11.1766" y1="23.5229" x2="29.7381" y2="-21.8425" gradientUnits="userSpaceOnUse">
<stop offset="0.1599" stop-color="#BFAB8D"/>
<stop offset="0.5078" stop-color="#E7E1D2"/>
<stop offset="0.7297" stop-color="#CCBFA6"/>
</linearGradient>
<linearGradient id="paint1_linear_28_1582" x1="24.057" y1="17.5241" x2="3.14661" y2="18.4695" gradientUnits="userSpaceOnUse">
<stop offset="0.1599" stop-color="#BFAB8D"/>
<stop offset="0.5078" stop-color="#E7E1D2"/>
<stop offset="0.7297" stop-color="#CCBFA6"/>
</linearGradient>
<linearGradient id="paint2_linear_28_1582" x1="31.0842" y1="41.1874" x2="-3.73812" y2="37.5305" gradientUnits="userSpaceOnUse">
<stop stop-color="#94938C"/>
<stop offset="0.2296" stop-color="#EDEBE1"/>
<stop offset="0.7988" stop-color="#EDEBE1"/>
<stop offset="1" stop-color="#94938C"/>
</linearGradient>
</defs>
</svg>
