<svg width="24" height="43" viewBox="0 0 24 43" fill="none" xmlns="http://www.w3.org/2000/svg">
<path d="M18.9817 2.99422C19.5152 1.25848 17.8983 0.441886 16.5213 1.40774C13.8594 3.27458 12.4702 6.43936 11.2575 9.34193C10.6958 10.6861 8.20634 15.3821 9.78793 16.6464C11.3573 17.9008 17.0144 16.0235 17.0857 12.92C17.1242 11.236 17.0689 9.542 17.2944 7.86842C17.5394 6.05012 18.4586 4.69456 18.9817 2.99422Z" fill="url(#paint0_linear_28_1594)"/>
<path d="M3.18816 26.9182C2.22594 20.6105 2.24135 12.9998 5.045 7.16202C5.69647 5.80511 6.5834 4.56388 7.63999 3.49232C8.05464 3.07177 10.5249 0.546677 11.0439 1.1682C11.5733 1.80197 11.0947 3.21831 11.0008 3.92285C10.8438 5.10192 10.695 6.28191 10.572 7.46507C10.323 9.86541 9.70279 12.4663 10.3515 14.8548C10.4944 15.3806 10.8247 15.9005 11.3428 16.0688C11.6164 16.1577 11.9144 16.1396 12.1953 16.0788C13.9727 15.6936 15.2589 13.9017 16.3518 12.5869C17.9146 10.7074 18.8115 8.59605 19.5923 6.29824C19.9715 5.18223 20.4052 4.09796 21.3584 3.3544C21.5879 3.17521 22.0512 2.75965 22.405 2.84449C23.57 3.12304 23.1676 6.26603 23.1254 6.98056C22.7988 12.537 20.511 20.0543 20.511 20.0543C20.511 20.0543 19.5306 26.264 20.511 28.2252C21.4913 30.1864 4.49518 30.1869 3.18816 26.9182Z" fill="url(#paint1_linear_28_1594)"/>
<path d="M2.20829 27.8986C2.20875 27.8982 4.82331 24.957 10.7066 24.957C16.5899 24.957 20.839 26.9182 21.8194 29.5327C22.7998 32.1477 23.127 39.3379 19.5316 40.6453C18.3942 41.0591 17.1439 41.1616 16.1186 40.4285C15.2416 39.8015 14.895 38.6492 13.5761 39.0766C13.0013 39.2626 12.5272 39.6659 12.04 40.0234C9.89769 41.5949 6.25692 43.2249 3.81704 41.3699C0.481589 38.8334 -0.696159 31.1659 2.20829 27.8986Z" fill="url(#paint2_linear_28_1594)"/>
<path d="M8.62144 33.5924L7.61385 32.8901L7.68642 31.3104L8.52525 30.8001L8.67088 29.2685L10.0568 29.6332V28.612L10.5672 28.3203L12.3174 29.0498L14.0677 29.9975L14.8698 29.0498L14.9428 30.5083L14.5781 32.8053L15.3806 33.4617L14.3594 34.1182L14.3626 35.4855L12.8051 36.768L10.2093 37.1042L8.88956 36.3062L6.73828 35.4306L7.46778 34.5555L8.62144 33.5924Z" fill="#ADADAD"/>
<defs>
<linearGradient id="paint0_linear_28_1594" x1="12.4447" y1="17.5425" x2="19.6549" y2="-17.8773" gradientUnits="userSpaceOnUse">
<stop offset="0.1599" stop-color="#BFAB8D"/>
<stop offset="0.5078" stop-color="#E7E1D2"/>
<stop offset="0.7297" stop-color="#CCBFA6"/>
</linearGradient>
<linearGradient id="paint1_linear_28_1594" x1="-2.3311" y1="15.2636" x2="22.6064" y2="15.3537" gradientUnits="userSpaceOnUse">
<stop offset="0.1599" stop-color="#BFAB8D"/>
<stop offset="0.5078" stop-color="#E7E1D2"/>
<stop offset="0.7297" stop-color="#CCBFA6"/>
</linearGradient>
<linearGradient id="paint2_linear_28_1594" x1="-4.65284" y1="33.5286" x2="27.9074" y2="33.6462" gradientUnits="userSpaceOnUse">
<stop stop-color="#94938C"/>
<stop offset="0.2296" stop-color="#EDEBE1"/>
<stop offset="0.7988" stop-color="#EDEBE1"/>
<stop offset="1" stop-color="#94938C"/>
</linearGradient>
</defs>
</svg>
