<svg width="27" height="48" viewBox="0 0 27 48" fill="none" xmlns="http://www.w3.org/2000/svg">
<path d="M10.7714 42.626C10.5695 44.5831 11.8393 45.0281 12.7403 43.6644C14.4829 41.0282 15.1552 37.354 15.7273 34.0001C15.9922 32.4472 17.3024 26.8862 16.0104 25.9621C14.7283 25.0452 10.7986 28.4545 11.0822 31.729C11.236 33.5056 11.4601 35.2689 11.4764 37.0822C11.4946 39.0525 10.9697 40.7083 10.7714 42.626Z" fill="url(#paint0_linear_28_1605)"/>
<path d="M22.4017 19.7751C21.7162 21.7336 21.1636 23.7778 20.8447 25.8283C20.6301 27.2084 20.6619 28.4351 20.8715 29.8011C21.224 32.0966 21.2494 34.4924 21.1505 36.8079C20.9962 40.4195 19.2637 43.1397 17.8786 46.3884C17.3696 47.582 16.1928 48.2085 15.1253 47.1102C13.7716 45.7174 14.1368 42.7899 14.0828 41.0233C14.0093 38.6053 13.9603 36.1705 13.4767 33.791C13.2685 32.7667 12.9758 31.7455 12.441 30.8472C11.9093 29.9539 10.9266 29.5184 9.98526 30.1617C8.73178 31.0182 8.44913 32.8946 8.01633 34.2302C7.6103 35.4828 7.24238 36.7476 6.88716 38.0156C6.3854 39.8062 5.92129 41.6081 5.44313 43.4051C5.24487 44.1491 4.59794 45.8966 3.50415 45.1372C3.13486 44.8804 2.9525 44.4358 2.7987 44.0134C2.29377 42.6243 1.89045 41.2012 1.48805 39.7794C0.948636 37.8745 0.452328 35.975 0.336189 33.9911C0.177858 31.2864 1.24352 28.6138 1.76434 25.9957C2.31781 23.2134 2.66351 20.3898 2.79598 17.5562C2.8046 17.3698 2.81912 17.167 2.94478 17.0291C3.11491 16.843 3.40661 16.8576 3.65659 16.8862C6.72837 17.2382 9.80651 17.5244 12.8751 17.9082C14.9516 18.1664 17.0307 18.4395 19.089 18.8188C19.9964 18.9857 21.699 19.0724 22.4017 19.7751Z" fill="url(#paint1_linear_28_1605)"/>
<path d="M24.8031 15.5293C24.9056 14.3026 24.8775 13.0595 25.1111 11.8478C25.4759 9.95643 26.4309 8.30871 26.2957 6.30487C25.9699 1.48058 19.228 1.10767 15.8382 2.44371C14.4287 2.999 13.8503 2.47457 12.6653 1.72602C11.3814 0.914866 9.86662 0.490234 8.34911 0.490234C6.61384 0.490234 4.69892 0.983822 3.2168 1.89569C1.02423 3.24489 1.02604 5.45833 0.875426 7.78156C0.708477 10.3511 0.767912 12.9983 1.61763 15.4553C1.87758 16.2075 2.22191 16.9465 2.76359 17.5295C3.53346 18.3583 4.51428 18.4677 5.55454 18.7072C6.97451 19.0343 8.41036 19.311 9.84168 19.5819C12.6485 20.1131 15.4816 20.5455 18.3375 20.6888C19.6917 20.7569 21.0939 20.6194 22.2966 19.9929C24.0387 19.0864 24.6489 17.3807 24.8031 15.5293Z" fill="url(#paint2_linear_28_1605)"/>
<path d="M8.64591 12.1805L7.52898 11.4016L7.60973 9.65043L8.5393 9.08471L8.7008 7.38663L10.2374 7.79085V6.65895L10.8031 6.33594L12.7434 7.14438L14.6837 8.19506L15.5734 7.14438L15.6541 8.76124L15.2499 11.3081L16.1391 12.0358L15.0072 12.763L15.0104 14.2792L13.2842 15.701L10.4066 16.0734L8.94351 15.1888L6.55859 14.2184L7.36702 13.2485L8.64591 12.1805Z" fill="#ADADAD"/>
<defs>
<linearGradient id="paint0_linear_28_1605" x1="13.9614" y1="25.6962" x2="16.071" y2="64.5009" gradientUnits="userSpaceOnUse">
<stop offset="0.1599" stop-color="#BFAB8D"/>
<stop offset="0.5078" stop-color="#E7E1D2"/>
<stop offset="0.7297" stop-color="#CCBFA6"/>
</linearGradient>
<linearGradient id="paint1_linear_28_1605" x1="19.875" y1="33.6665" x2="2.38082" y2="30.2622" gradientUnits="userSpaceOnUse">
<stop stop-color="#BFAB8D"/>
<stop offset="0.5078" stop-color="#E7E1D2"/>
<stop offset="1" stop-color="#CCBFA6"/>
</linearGradient>
<linearGradient id="paint2_linear_28_1605" x1="31.1113" y1="13.7556" x2="-1.57265" y2="7.39561" gradientUnits="userSpaceOnUse">
<stop stop-color="#94938C"/>
<stop offset="0.2525" stop-color="#EDEBE1"/>
<stop offset="0.6733" stop-color="#EDEBE1"/>
<stop offset="0.7762" stop-color="#EAE8DF"/>
<stop offset="0.8387" stop-color="#E2E0D7"/>
<stop offset="0.8905" stop-color="#D4D2C9"/>
<stop offset="0.9364" stop-color="#BFBEB5"/>
<stop offset="0.978" stop-color="#A5A49C"/>
<stop offset="1" stop-color="#94938C"/>
</linearGradient>
</defs>
</svg>
