<svg width="29" height="51" viewBox="0 0 29 51" fill="none" xmlns="http://www.w3.org/2000/svg">
<path d="M19.6039 1.14738C20.9169 1.23675 21.9304 1.62192 23.0083 2.36231C23.3 2.56283 23.5763 2.80464 23.5186 3.09135C23.2501 4.43058 13.3746 3.35448 13.4694 2.17993C13.5284 1.48219 16.7399 1.29483 17.459 1.2177C18.2701 1.13015 18.972 1.10428 19.6039 1.14738Z" fill="#D8D6D0"/>
<path d="M9.44091 46.5149C8.76542 48.6789 10.3605 49.5617 11.8421 48.2797C14.7065 45.8009 16.3641 41.8245 17.8222 38.182C18.4972 36.4953 21.3956 30.5641 19.8704 29.1305C18.357 27.7083 12.4246 30.4167 12.1206 34.2229C11.9555 36.2875 11.8865 38.3581 11.5313 40.4236C11.1453 42.6688 10.1032 44.395 9.44091 46.5149Z" fill="url(#paint0_linear_28_1610)"/>
<path d="M26.2155 21.2411C26.0277 22.0156 25.8612 22.8036 25.8245 22.956C25.5092 24.2639 25.2356 25.5823 25.016 26.9097C24.8368 27.9945 24.6935 29.0856 24.5869 30.1798C24.4834 31.2405 24.5737 32.4082 24.3718 33.4481C24.1727 34.4729 23.8075 35.5481 23.4622 36.538C22.4256 39.5109 20.8555 42.2774 18.9909 44.8062C18.0555 46.0746 17.0438 47.2864 15.9759 48.4455C15.3199 49.1578 13.9253 51.2665 12.7662 50.3904C12.3311 50.0615 12.1565 49.4749 12.1846 48.93C12.2127 48.3852 12.4123 47.8662 12.6015 47.3544C14.0587 43.4061 15.4442 38.5174 14.6248 34.2815C14.5396 33.84 14.4062 33.3841 14.0895 33.0652C13.6744 32.6473 13.0098 32.5534 12.4418 32.7099C11.8738 32.8664 11.3893 33.238 10.9665 33.6481C9.51522 35.0568 8.48404 37.0371 7.59712 38.8381C6.9257 40.2019 6.43257 41.655 6.14903 43.1489C5.87774 44.5789 6.1082 46.2783 5.53386 47.6203C5.21221 48.3725 4.49497 49.0171 3.67701 48.9936C3.04052 48.9754 2.47707 48.5657 2.05743 48.0867C0.511338 46.3214 0.215091 43.5087 0.124811 41.258C0.0113953 38.4216 0.415161 35.5953 0.854762 32.8011C1.45315 28.9971 2.2221 25.2189 3.08089 21.4657C3.114 21.3201 3.58128 18.9524 3.67565 18.9551C3.67565 18.9551 26.5503 19.5898 26.7604 19.5957C26.6438 19.5934 26.4174 20.4096 26.2155 21.2411Z" fill="url(#paint1_linear_28_1610)"/>
<path d="M8.31594 0.971411C9.50184 0.903815 10.4673 1.16286 11.5465 1.76487C11.8387 1.92773 12.1236 2.1337 12.1177 2.42268C12.0909 3.7746 3.10686 3.88575 3.00479 2.71666C2.94672 2.02164 5.78308 1.45637 6.41233 1.29441C7.12278 1.11249 7.74476 1.00407 8.31594 0.971411Z" fill="#D8D6D0"/>
<path d="M24.2613 2.02128C25.2144 2.11655 26.1122 2.48356 26.8857 3.29018C27.8824 4.32953 28.3815 5.77129 28.5049 7.20579C28.7694 10.2835 28.2427 13.9437 27.4737 16.9252C27.2296 17.8715 27.2051 19.8604 26.5555 20.5908C24.5339 22.8632 20.0921 21.7576 17.4041 21.5711C14.3255 21.3575 11.0111 21.2554 8.25277 20.5908C6.42676 20.4991 3.07372 20.9034 2.51934 18.4885C1.88421 15.7207 1.4927 12.8902 1.3625 10.0535C1.26451 7.93392 0.955099 2.69679 4.00192 2.28804C4.44788 2.22816 5.20051 2.73082 5.64737 2.83244C6.57965 3.04385 7.48925 3.01526 8.41473 2.76937C9.55298 2.46723 10.61 1.92283 11.7011 1.4796C11.9383 1.38342 12.1851 1.29042 12.441 1.29723C13.024 1.31311 13.4522 1.81803 13.9186 2.16827C15.8816 3.64359 19.4002 2.87826 21.5674 2.31163C22.4775 2.07346 23.3925 1.93417 24.2613 2.02128Z" fill="url(#paint2_linear_28_1610)"/>
<path d="M10.5483 11.8135L9.43132 11.0345L9.51208 9.28332L10.4416 8.71759L10.6031 7.01946L12.1397 7.4237V6.29177L12.7054 5.96875L14.6458 6.77721L16.5861 7.82792L17.4757 6.77721L17.5565 8.39411L17.1523 10.9411L18.0415 11.6688L16.9096 12.396L16.9127 13.9122L15.1865 15.334L12.3089 15.7065L10.8459 14.8218L8.46094 13.8514L9.26936 12.8814L10.5483 11.8135Z" fill="#ADADAD"/>
<defs>
<linearGradient id="paint0_linear_28_1610" x1="17.1974" y1="28.2282" x2="9.4357" y2="72.5199" gradientUnits="userSpaceOnUse">
<stop offset="0.1599" stop-color="#BFAB8D"/>
<stop offset="0.5078" stop-color="#E7E1D2"/>
<stop offset="0.7297" stop-color="#CCBFA6"/>
</linearGradient>
<linearGradient id="paint1_linear_28_1610" x1="24.1738" y1="34.7218" x2="1.64686" y2="34.8032" gradientUnits="userSpaceOnUse">
<stop stop-color="#BFAB8D"/>
<stop offset="0.5078" stop-color="#E7E1D2"/>
<stop offset="1" stop-color="#CCBFA6"/>
</linearGradient>
<linearGradient id="paint2_linear_28_1610" x1="34.2802" y1="11.5894" x2="-4.56518" y2="11.7298" gradientUnits="userSpaceOnUse">
<stop stop-color="#94938C"/>
<stop offset="0.2296" stop-color="#EDEBE1"/>
<stop offset="0.7988" stop-color="#EDEBE1"/>
<stop offset="1" stop-color="#94938C"/>
</linearGradient>
</defs>
</svg>
