<svg width="24" height="42" viewBox="0 0 24 42" fill="none" xmlns="http://www.w3.org/2000/svg">
<path d="M6.79688 38.9689C6.79688 38.9689 9.24626 42.5572 12.9691 40.1136C16.6919 37.67 8.71681 37.2785 6.79688 38.9689Z" fill="#D8D6D0"/>
<path d="M9.73127 3.52308C9.21047 1.78374 7.41216 2.00286 6.80426 3.57072C5.62882 6.60164 6.23219 10.005 6.83647 13.0922C7.11638 14.5217 7.65623 19.8096 9.67367 19.982C11.6752 20.153 15.3354 15.4494 13.6704 12.8291C12.7672 11.4077 11.7796 10.03 11.0374 8.51337C10.2303 6.86476 10.2412 5.22749 9.73127 3.52308Z" fill="url(#paint0_linear_28_1684)"/>
<path d="M20.1914 26.8225C20.1261 26.8592 19.9174 26.3928 19.73 26.4133C19.4855 26.4396 19.1807 26.3543 18.9361 26.3293C18.0914 26.244 17.2453 26.1701 16.3988 26.1061C14.047 25.9287 11.6843 25.8208 9.32527 25.8684C7.68437 25.9015 6.01853 25.9886 4.40938 26.332C3.41541 26.5439 2.10749 26.8592 1.49958 27.7629C1.49958 27.7629 2.8692 22.2468 1.88838 17.9978C0.907557 13.7488 -0.399449 2.30964 2.21546 1.98255C3.85909 1.77704 5.09804 5.59961 5.52675 6.663C6.66363 9.48297 7.55373 12.4971 8.35989 15.4595C8.38257 15.5421 8.4057 15.6269 8.45606 15.6964C8.89747 16.307 10.4299 16.5492 11.0215 16.1409C11.5169 15.7989 11.6394 15.1315 11.7202 14.5345C11.8635 13.4752 12.0069 12.4159 12.1502 11.3566C12.4909 8.83967 12.8339 6.30642 12.7731 3.76C12.7563 3.06091 11.9597 -0.499446 13.655 0.348451C16.5031 1.7725 18.1273 5.71121 18.918 8.53799C19.9868 12.3574 20.0263 16.4444 20.1737 20.3831C20.2413 22.1887 20.3316 24.0193 20.2141 25.8248C20.191 26.1778 20.2849 26.7698 20.1914 26.8225Z" fill="url(#paint1_linear_28_1684)"/>
<path d="M19.0944 25.6695C18.2175 25.0621 17.043 24.9895 16.0245 24.7858C14.4906 24.4787 12.9432 24.2228 11.3803 24.1284C7.93468 23.9197 4.1452 24.5517 1.82969 27.3549C1.01354 28.3425 0.439652 29.5252 0.152028 30.7728C-0.171437 32.1774 0.0894209 33.0847 0.536736 34.4117C0.946851 35.628 1.48219 36.945 2.14363 38.0465C2.86088 39.2405 4.0082 40.2744 5.45086 40.2536C7.01374 40.2309 8.54123 39.6193 9.58512 38.4344C9.64001 38.3722 9.69627 38.3064 9.77339 38.2751C9.86549 38.2379 9.96938 38.2574 10.0656 38.2797C12.1665 38.761 14.2724 40.1347 16.2105 41.0634C17.1369 41.507 17.6663 41.6422 18.6045 41.1495C19.7749 40.5348 20.8896 39.779 21.7561 38.7805C24.3189 35.8271 23.3421 31.6312 21.4685 28.5857C20.8769 27.6244 20.1442 26.5102 19.2578 25.7925C19.2047 25.7489 19.1502 25.7081 19.0944 25.6695Z" fill="url(#paint2_linear_28_1684)"/>
<path d="M8.97301 32.27L7.96542 31.5677L8.03801 29.9881L8.87684 29.4777L9.02247 27.9462L10.4084 28.3109V27.2897L10.9188 26.998L12.669 27.7275L14.4193 28.6752L15.2214 27.7275L15.2944 29.186L14.9297 31.4829L15.7322 32.1393L14.711 32.7958L14.7142 34.1631L13.1567 35.4455L10.5608 35.7817L9.24159 34.9837L7.08984 34.1082L7.81934 33.2331L8.97301 32.27Z" fill="#ADADAD"/>
<defs>
<linearGradient id="paint0_linear_28_1684" x1="12.3979" y1="19.2485" x2="-1.28953" y2="-14.2033" gradientUnits="userSpaceOnUse">
<stop offset="0.1599" stop-color="#BFAB8D"/>
<stop offset="0.5078" stop-color="#E7E1D2"/>
<stop offset="0.7297" stop-color="#CCBFA6"/>
</linearGradient>
<linearGradient id="paint1_linear_28_1684" x1="1.3515" y1="16.2708" x2="19.0403" y2="12.9154" gradientUnits="userSpaceOnUse">
<stop offset="0.1599" stop-color="#BFAB8D"/>
<stop offset="0.5078" stop-color="#E7E1D2"/>
<stop offset="0.7297" stop-color="#CCBFA6"/>
</linearGradient>
<linearGradient id="paint2_linear_28_1684" x1="28.5656" y1="32.7384" x2="-4.71968" y2="32.8229" gradientUnits="userSpaceOnUse">
<stop stop-color="#94938C"/>
<stop offset="0.2296" stop-color="#EDEBE1"/>
<stop offset="0.7988" stop-color="#EDEBE1"/>
<stop offset="1" stop-color="#94938C"/>
</linearGradient>
</defs>
</svg>
