<svg width="20" height="51" viewBox="0 0 20 51" fill="none" xmlns="http://www.w3.org/2000/svg">
<path d="M16.0948 20.7543C15.2918 26.0105 13.8759 31.2626 12.0326 36.2425C10.0065 41.7155 7.47499 47.189 2.55351 50.6187C2.43419 50.7017 2.30626 50.7879 2.16108 50.7952C2.01318 50.8024 1.87391 50.7258 1.7555 50.6369C1.0777 50.1301 0.828176 49.2051 0.898042 48.3613C0.967908 47.5175 1.30453 46.7231 1.59852 45.9292C3.39235 41.0868 3.83016 35.7575 4.34145 30.6561C4.66538 27.4264 5.43344 23.4677 4.67217 20.2481C3.85465 16.7925 15.5881 20.1405 16.0948 20.7543Z" fill="url(#paint0_linear_28_1617)"/>
<path d="M5.95632 0.772563C6.68314 0.445012 7.44127 0.437292 8.45393 0.685904C8.72797 0.753048 9.02015 0.857395 9.16896 1.09693C9.86584 2.21659 4.14606 4.36655 3.46233 3.427C3.05763 2.86807 4.58342 1.75249 4.90283 1.4753C5.26397 1.16181 5.60651 0.929987 5.95632 0.772563Z" fill="#D8D6D0"/>
<path d="M15.8938 0.959241C16.2313 1.06086 16.4881 1.16974 16.5961 1.26456C17.1423 1.74454 17.7098 2.25538 17.9544 2.93996C18.0523 3.21443 18.0628 3.58236 17.8133 3.73297C17.7289 3.78379 17.6282 3.79921 17.5302 3.80737C16.3856 3.90128 15.0613 3.15726 14.0932 2.62602C13.7348 2.42958 12.1937 1.7205 12.264 1.16294C12.3707 0.317754 14.6667 0.590409 15.8938 0.959241Z" fill="#D8D6D0"/>
<path d="M17.9074 3.06578C17.9074 3.06578 20.1952 4.69987 18.8878 8.94888C18.234 14.832 16.2728 20.7151 16.2728 20.7151C16.2728 20.7151 15.6191 21.6954 11.0434 21.6954C6.46778 21.6954 5.16031 21.0417 4.50658 19.7343C3.85285 18.4268 2.21875 6.00687 2.21875 6.00687C2.21875 6.00687 2.54539 3.06532 3.85285 2.73868C5.16031 2.41204 6.46777 2.08495 6.79441 2.08495C7.12105 2.08495 10.0626 0.123768 11.3701 0.450859C12.678 0.77795 15.9466 3.39287 17.9074 3.06578Z" fill="url(#paint1_linear_28_1617)"/>
<path d="M7.95841 10.6275L6.84148 9.84897L6.92223 8.09778L7.8518 7.53204L8.0133 5.83392L9.54987 6.23815V5.10623L10.1156 4.7832L12.0559 5.59166L13.9962 6.64238L14.8859 5.59166L14.9666 7.20857L14.5624 9.75552L15.4516 10.4832L14.3197 11.2105L14.3229 12.7267L12.5967 14.1485L9.71908 14.5209L8.25601 13.6363L5.87109 12.6659L6.67952 11.6959L7.95841 10.6275Z" fill="#ADADAD"/>
<defs>
<linearGradient id="paint0_linear_28_1617" x1="12.8665" y1="34.7216" x2="2.49986" y2="34.7591" gradientUnits="userSpaceOnUse">
<stop stop-color="#BFAB8D"/>
<stop offset="0.5078" stop-color="#E7E1D2"/>
<stop offset="1" stop-color="#CCBFA6"/>
</linearGradient>
<linearGradient id="paint1_linear_28_1617" x1="22.9256" y1="11.0123" x2="-1.20632" y2="11.0995" gradientUnits="userSpaceOnUse">
<stop stop-color="#94938C"/>
<stop offset="0.2296" stop-color="#EDEBE1"/>
<stop offset="0.7988" stop-color="#EDEBE1"/>
<stop offset="1" stop-color="#94938C"/>
</linearGradient>
</defs>
</svg>
