<svg width="19" height="53" viewBox="0 0 19 53" fill="none" xmlns="http://www.w3.org/2000/svg">
<path d="M15.5323 21.5127C15.5323 21.5127 9.32264 47.0067 4.09284 51.2553C-1.13695 55.504 1.47794 47.0063 1.47794 47.0063C1.47794 47.0063 3.43911 31.3179 3.43911 28.3763C3.43911 25.4347 2.39933 19.9258 2.39933 19.9258C2.39933 19.9258 12.4715 22.0948 15.5323 21.5127Z" fill="url(#paint0_linear_28_1623)"/>
<path d="M15.8603 2.22941C15.8603 2.22941 19.1285 3.8635 18.1481 8.43916C17.1677 13.0148 17.4944 15.6297 17.4944 15.6297C17.4944 15.6297 16.8407 23.4741 11.2846 23.8007C5.72817 24.1273 2.13335 20.8591 1.80626 18.8979C1.47962 16.9367 1.47962 11.3807 1.15253 10.3999C0.825434 9.41909 -0.154934 3.20933 3.11371 2.22896C6.3819 1.24859 8.34309 0.921495 8.34309 0.921495C8.34309 0.921495 11.6113 -0.0584167 15.8603 2.22941Z" fill="url(#paint1_linear_28_1623)"/>
<path d="M7.01311 10.5355L5.89618 9.75704L5.97695 8.00589L6.9065 7.44017L7.068 5.74209L8.60458 6.14632V5.01442L9.17029 4.69141L11.1106 5.49984L13.051 6.55053L13.9406 5.49984L14.0214 7.1167L13.6171 9.66358L14.5063 10.3913L13.3744 11.1185L13.3776 12.6347L11.6514 14.0564L8.77379 14.4289L7.31072 13.5442L4.92578 12.5739L5.73423 11.6039L7.01311 10.5355Z" fill="#ADADAD"/>
<defs>
<linearGradient id="paint0_linear_28_1623" x1="2.27347" y1="36.1863" x2="13.8297" y2="36.228" gradientUnits="userSpaceOnUse">
<stop stop-color="#BFAB8D"/>
<stop offset="0.5078" stop-color="#E7E1D2"/>
<stop offset="1" stop-color="#CCBFA6"/>
</linearGradient>
<linearGradient id="paint1_linear_28_1623" x1="-2.52294" y1="12.222" x2="21.6438" y2="12.3093" gradientUnits="userSpaceOnUse">
<stop stop-color="#94938C"/>
<stop offset="0.2296" stop-color="#EDEBE1"/>
<stop offset="0.4283" stop-color="#EDEBE1"/>
<stop offset="0.7988" stop-color="#EDEBE1"/>
<stop offset="1" stop-color="#94938C"/>
</linearGradient>
</defs>
</svg>
