<svg width="17" height="64" viewBox="0 0 17 64" fill="none" xmlns="http://www.w3.org/2000/svg">
<path d="M14.4944 23.0996C14.4944 23.0996 6.32328 27.0216 4.03539 23.7533C4.12522 26.9649 4.18057 30.1782 4.22276 33.3906C4.3026 39.4992 4.33482 45.6137 4.15652 51.721C4.09392 53.8659 4.04401 56.0136 3.83895 58.1508C3.7346 59.2396 3.59079 60.3252 3.38528 61.3995C3.29091 61.894 3.00647 62.4765 3.23557 62.9279C3.54044 63.5281 4.32802 63.6642 4.87833 63.3934C5.65275 63.0123 6.16176 62.075 6.54602 61.3514C7.47288 59.6057 8.07084 57.6763 8.61162 55.7836C11.8794 44.3444 13.9904 26.6155 14.4944 23.0996Z" fill="url(#paint0_linear_28_1631)"/>
<path d="M15.7517 0.662567C14.9792 0.266062 13.7756 0.511042 12.9291 0.503784C11.3585 0.490627 9.78787 0.495155 8.21773 0.540522C6.46341 0.591333 4.02405 0.390816 2.40174 1.20197C0.843853 1.98092 0.678279 3.92669 0.72546 5.4551C0.91237 11.4929 1.30117 17.847 3.73644 23.4602C4.4496 25.1039 5.44494 26.7625 7.00283 27.7297C9.41678 29.2286 12.18 28.3598 13.556 25.9599C14.6575 24.0391 15.0812 21.8248 15.3121 19.6526C15.4868 18.0081 15.3775 16.3513 15.4941 14.7035C15.617 12.9674 16.1292 11.282 16.4091 9.56577C16.8514 6.85193 17.3868 4.02014 16.3755 1.36665C16.2453 1.02458 16.0258 0.803204 15.7517 0.662567Z" fill="url(#paint1_linear_28_1631)"/>
<path d="M5.85297 10.3461L4.73603 9.56759L4.8168 7.81644L5.74634 7.25073L5.90785 5.55264L7.44442 5.95687V4.82496L8.01013 4.50195L9.95047 5.31039L11.8908 6.36153L12.7804 5.31039L12.8612 6.92727L12.457 9.47414L13.3462 10.2018L12.2143 10.9291L12.2174 12.4452L10.4912 13.867L7.61364 14.2395L6.15056 13.3548L3.76562 12.3844L4.57407 11.4145L5.85297 10.3461Z" fill="#ADADAD"/>
<defs>
<linearGradient id="paint0_linear_28_1631" x1="1.85499" y1="43.286" x2="11.0882" y2="43.3193" gradientUnits="userSpaceOnUse">
<stop stop-color="#BFAB8D"/>
<stop offset="0.5078" stop-color="#E7E1D2"/>
<stop offset="1" stop-color="#CCBFA6"/>
</linearGradient>
<linearGradient id="paint1_linear_28_1631" x1="-1.99522" y1="14.4023" x2="20.1977" y2="14.4824" gradientUnits="userSpaceOnUse">
<stop stop-color="#94938C"/>
<stop offset="0.2296" stop-color="#EDEBE1"/>
<stop offset="0.7988" stop-color="#EDEBE1"/>
<stop offset="1" stop-color="#94938C"/>
</linearGradient>
</defs>
</svg>
