<svg width="16" height="66" viewBox="0 0 16 66" fill="none" xmlns="http://www.w3.org/2000/svg">
<path d="M2.31943 24.7246C2.31898 32.2586 0.78425 39.7387 0.434026 47.2673C0.291123 50.3359 0.0547727 53.4036 0.0992312 56.4776C0.134163 58.9143 -0.0522951 62.9777 1.46701 65.0528C2.11029 65.9293 4.01384 62.0273 4.19575 61.6526C5.33489 59.3067 6.04261 56.8129 6.92271 54.3649C7.89308 51.6651 8.88251 48.9486 9.67777 46.1903C10.7389 42.5101 11.3436 38.6771 12.0196 34.9121C12.1253 34.3224 13.0489 26.7407 13.4318 26.6863C13.4286 26.6863 4.28014 27.9924 2.31943 24.7246Z" fill="url(#paint0_linear_28_1635)"/>
<path d="M14.9288 0.683985C14.78 0.548339 14.5174 0.519757 14.031 0.478927C13.287 0.416775 12.514 0.47122 11.7681 0.472581C8.72811 0.478479 5.6881 0.53836 2.64808 0.53836C2.64808 0.53836 -0.293507 1.1921 0.0331328 2.82621C0.359773 4.46031 1.34061 24.7247 2.32098 26.0321C3.30136 27.3396 5.5892 31.5886 10.492 30.2811C15.3943 28.9737 14.4139 17.535 14.4139 17.5345C14.2846 15.4626 14.8054 13.1675 14.9465 11.0965C15.1561 8.02158 15.3353 4.91987 15.1593 1.83857C15.1207 1.16307 15.1067 0.846398 14.9288 0.683985Z" fill="url(#paint1_linear_28_1635)"/>
<path d="M5.18499 9.97889L4.06805 9.20039L4.14882 7.44924L5.07837 6.88353L5.23988 5.18544L6.77645 5.58967V4.45776L7.34216 4.13477L9.28249 4.94319L11.2228 5.99433L12.1125 4.94319L12.1932 6.56007L11.789 9.10694L12.6782 9.83462L11.5463 10.5619L11.5495 12.078L9.82326 13.4998L6.94567 13.8723L5.48259 12.9876L3.09766 12.0172L3.9061 11.0473L5.18499 9.97889Z" fill="#ADADAD"/>
<defs>
<linearGradient id="paint0_linear_28_1635" x1="12.351" y1="44.9151" x2="-3.9539" y2="44.974" gradientUnits="userSpaceOnUse">
<stop stop-color="#BFAB8D"/>
<stop offset="0.5078" stop-color="#E7E1D2"/>
<stop offset="1" stop-color="#CCBFA6"/>
</linearGradient>
<linearGradient id="paint1_linear_28_1635" x1="17.4856" y1="15.4649" x2="-2.0575" y2="15.5355" gradientUnits="userSpaceOnUse">
<stop stop-color="#94938C"/>
<stop offset="0.2296" stop-color="#EDEBE1"/>
<stop offset="0.7988" stop-color="#EDEBE1"/>
<stop offset="1" stop-color="#94938C"/>
</linearGradient>
</defs>
</svg>
