<svg width="16" height="66" viewBox="0 0 16 66" fill="none" xmlns="http://www.w3.org/2000/svg">
<path d="M13.019 24.7246C13.0194 32.2586 14.5542 39.7387 14.9045 47.2673C15.0474 50.3359 15.2837 53.4036 15.2393 56.4776C15.2043 58.9143 15.3908 62.9777 13.8714 65.0528C13.2281 65.9293 11.3245 62.0273 11.1426 61.6526C10.0034 59.3067 9.29568 56.8129 8.41556 54.3649C7.44515 51.6651 6.45569 48.9486 5.6604 46.1903C4.59926 42.5101 3.99453 38.6771 3.31855 34.9121C3.21285 34.3224 2.28915 26.7407 1.90625 26.6863C1.90988 26.6863 11.0587 27.9924 13.019 24.7246Z" fill="url(#paint0_linear_28_1639)"/>
<path d="M0.411296 0.683985C0.560098 0.548339 0.822771 0.519757 1.3091 0.478927C2.05311 0.416775 2.82614 0.47122 3.57197 0.472581C6.61197 0.478479 9.65198 0.53836 12.692 0.53836C12.692 0.53836 15.6335 1.1921 15.3069 2.82621C14.9803 4.46031 13.9994 24.7247 13.0191 26.0321C12.0387 27.3396 9.75089 31.5886 4.84814 30.2811C-0.0541501 28.9737 0.926209 17.535 0.926209 17.5345C1.0555 15.4626 0.534708 13.1675 0.393619 11.0965C0.184026 8.02158 0.00480952 4.91987 0.180831 1.83857C0.218939 1.16307 0.233006 0.846398 0.411296 0.683985Z" fill="url(#paint1_linear_28_1639)"/>
<path d="M4.3843 9.61562L3.26731 8.83712L3.34808 7.08596L4.27768 6.52025L4.4392 4.82216L5.97586 5.22639V4.09448L6.5416 3.77148L8.48203 4.57991L10.4225 5.63106L11.3121 4.57991L11.3929 6.19679L10.9887 8.74366L11.8779 9.47135L10.7459 10.1986L10.7491 11.7147L9.02282 13.1365L6.14508 13.509L4.68194 12.6243L2.29688 11.654L3.10536 10.684L4.3843 9.61562Z" fill="#ADADAD"/>
<defs>
<linearGradient id="paint0_linear_28_1639" x1="2.98735" y1="44.9151" x2="19.2928" y2="44.974" gradientUnits="userSpaceOnUse">
<stop stop-color="#BFAB8D"/>
<stop offset="0.5078" stop-color="#E7E1D2"/>
<stop offset="1" stop-color="#CCBFA6"/>
</linearGradient>
<linearGradient id="paint1_linear_28_1639" x1="-2.14556" y1="15.4649" x2="17.3974" y2="15.5355" gradientUnits="userSpaceOnUse">
<stop stop-color="#94938C"/>
<stop offset="0.2296" stop-color="#EDEBE1"/>
<stop offset="0.7988" stop-color="#EDEBE1"/>
<stop offset="1" stop-color="#94938C"/>
</linearGradient>
</defs>
</svg>
