<svg width="19" height="67" viewBox="0 0 19 67" fill="none" xmlns="http://www.w3.org/2000/svg">
<path d="M3.19531 27.3656C5.10024 27.3557 7.03465 27.1801 8.9364 27.0276C11.2396 26.843 14.4738 26.956 16.577 25.8554C16.7693 25.7547 16.8329 25.4121 17.0098 25.291C17.4122 26.6402 17.0678 28.8024 16.9884 30.1838C16.7612 34.133 16.5865 38.0895 16.6246 42.0459C16.6459 44.2299 16.7675 46.3984 16.964 48.5728C17.2353 51.5757 18.2492 54.5073 18.5223 57.541C18.7137 59.6682 18.6815 61.8309 18.2664 63.9313C18.1358 64.5919 17.9457 66.3045 17.3727 66.4624C16.6169 66.6701 15.4768 65.5078 15.0971 64.9956C13.8414 63.3026 13.5193 61.0097 12.8769 59.048C12.1583 56.8523 11.3163 54.6992 10.4562 52.5556C8.77898 48.3741 7.01514 44.2036 5.93496 39.817C5.30392 37.2543 5.02312 34.6289 4.43063 32.0566C4.06816 30.4805 3.64081 28.9199 3.19531 27.3656Z" fill="url(#paint0_linear_28_1651)"/>
<path d="M1.00089 8.61407C1.00089 8.61407 0.0223163 3.38421 2.31108 1.75101C4.59985 0.117815 5.57977 0.771998 5.57977 0.771998C6.52613 1.03059 7.47704 1.27285 8.42974 1.50558C9.99854 1.88848 11.6921 2.43741 13.318 2.39522C13.6438 2.3866 13.9704 2.3503 14.2943 2.38297C16.7174 2.62522 17.1107 5.20568 17.4746 7.09611C17.9414 9.52004 18.2703 11.9766 18.4645 14.4373C18.6246 16.4693 18.7026 18.5244 18.5312 20.5586C18.4069 22.0321 18.2009 23.7152 17.3358 24.9637C16.1267 26.7081 13.911 27.5006 11.9293 27.9566C9.41419 28.5354 6.77111 28.6715 4.1988 28.5631C2.80013 28.5037 2.41045 25.387 2.33242 24.398C1.91731 19.1332 1.47588 13.873 1.00089 8.61407Z" fill="url(#paint1_linear_28_1651)"/>
<path d="M6.72405 11.7133L5.60712 10.9348L5.68788 9.18362L6.61743 8.61791L6.77894 6.91983L8.31552 7.32405V6.19216L8.88122 5.86914L10.8216 6.67758L12.7619 7.72827L13.6515 6.67758L13.7323 8.29445L13.3281 10.8413L14.2173 11.569L13.0853 12.2962L13.0885 13.8124L11.3623 15.2342L8.48473 15.6066L7.02166 14.722L4.63672 13.7516L5.44517 12.7817L6.72405 11.7133Z" fill="#ADADAD"/>
<defs>
<linearGradient id="paint0_linear_28_1651" x1="7.82323" y1="45.8513" x2="16.9049" y2="45.8879" gradientUnits="userSpaceOnUse">
<stop stop-color="#BFAB8D"/>
<stop offset="0.5078" stop-color="#E7E1D2"/>
<stop offset="1" stop-color="#CCBFA6"/>
</linearGradient>
<linearGradient id="paint1_linear_28_1651" x1="-3.67081" y1="14.5833" x2="22.657" y2="14.6894" gradientUnits="userSpaceOnUse">
<stop stop-color="#94938C"/>
<stop offset="0.2296" stop-color="#EDEBE1"/>
<stop offset="0.7988" stop-color="#EDEBE1"/>
<stop offset="1" stop-color="#94938C"/>
</linearGradient>
</defs>
</svg>
