<svg width="19" height="53" viewBox="0 0 19 53" fill="none" xmlns="http://www.w3.org/2000/svg">
<path d="M3.62891 21.5596C3.62891 21.5596 9.83871 47.0536 15.0686 51.3022C20.2985 55.5508 17.6835 47.0531 17.6835 47.0531C17.6835 47.0531 15.7223 31.3648 15.7223 28.4232C15.7223 25.4816 16.7621 19.9727 16.7621 19.9727C16.7621 19.9727 6.6898 22.1417 3.62891 21.5596Z" fill="url(#paint0_linear_28_1647)"/>
<path d="M3.2995 2.27629C3.2995 2.27629 0.0311859 3.91038 1.01159 8.48604C1.99199 13.0617 1.66535 15.6766 1.66535 15.6766C1.66535 15.6766 2.31909 23.521 7.87531 23.8476C13.432 24.1742 17.0269 20.906 17.354 18.9448C17.6807 16.9836 17.6807 11.4276 18.0078 10.4468C18.3344 9.46642 19.3153 3.2562 16.0465 2.27583C12.7782 1.29546 10.817 0.96837 10.817 0.96837C10.817 0.96837 7.54866 -0.011542 3.2995 2.27629Z" fill="url(#paint1_linear_28_1647)"/>
<path d="M5.6928 11.2601L4.57587 10.4816L4.65663 8.7305L5.58618 8.16478L5.74769 6.4667L7.28427 6.87093V5.73903L7.84997 5.41602L9.79031 6.22445L11.7306 7.27514L12.6203 6.22445L12.701 7.84131L12.2968 10.3882L13.186 11.1159L12.0541 11.8431L12.0573 13.3593L10.3311 14.781L7.45348 15.1535L5.99041 14.2689L3.60547 13.2985L4.41392 12.3285L5.6928 11.2601Z" fill="#ADADAD"/>
<defs>
<linearGradient id="paint0_linear_28_1647" x1="16.888" y1="36.2332" x2="5.33156" y2="36.2749" gradientUnits="userSpaceOnUse">
<stop stop-color="#BFAB8D"/>
<stop offset="0.5078" stop-color="#E7E1D2"/>
<stop offset="1" stop-color="#CCBFA6"/>
</linearGradient>
<linearGradient id="paint1_linear_28_1647" x1="21.6834" y1="12.2688" x2="-2.48416" y2="12.3562" gradientUnits="userSpaceOnUse">
<stop stop-color="#94938C"/>
<stop offset="0.2296" stop-color="#EDEBE1"/>
<stop offset="0.4283" stop-color="#EDEBE1"/>
<stop offset="0.7988" stop-color="#EDEBE1"/>
<stop offset="1" stop-color="#94938C"/>
</linearGradient>
</defs>
</svg>
