<svg width="20" height="51" viewBox="0 0 20 51" fill="none" xmlns="http://www.w3.org/2000/svg">
<path d="M4.01953 20.7543C4.82253 26.0105 6.23841 31.2626 8.08167 36.2425C10.1078 41.7155 12.6393 47.189 17.5607 50.6187C17.68 50.7017 17.8079 50.7879 17.9531 50.7952C18.101 50.8024 18.2403 50.7258 18.3587 50.6369C19.0364 50.1301 19.286 49.2051 19.2161 48.3613C19.1462 47.5175 18.8096 46.7231 18.5156 45.9292C16.7218 41.0868 16.284 35.7575 15.7727 30.6561C15.4488 27.4264 14.6808 23.4677 15.442 20.2481C16.2595 16.7925 4.52628 20.1405 4.01953 20.7543Z" fill="url(#paint0_linear_28_1655)"/>
<path d="M14.1577 0.772563C13.431 0.445012 12.6729 0.437292 11.6604 0.685904C11.3864 0.753048 11.0943 0.857395 10.9455 1.09693C10.2487 2.21659 15.9677 4.36655 16.6514 3.427C17.056 2.86807 15.5304 1.75249 15.2111 1.4753C14.8504 1.16181 14.5075 0.929987 14.1577 0.772563Z" fill="#D8D6D0"/>
<path d="M4.22293 0.95924C3.88538 1.06086 3.62858 1.16974 3.5206 1.26456C2.97434 1.74454 2.40673 2.25538 2.16219 2.93996C2.06419 3.21443 2.05377 3.58236 2.3033 3.73297C2.38769 3.78379 2.4884 3.79921 2.5864 3.80737C3.7311 3.90128 5.05548 3.15726 6.02368 2.62602C6.38211 2.42958 7.92334 1.7205 7.85302 1.16294C7.74594 0.317753 5.4502 0.590408 4.22293 0.95924Z" fill="#D8D6D0"/>
<path d="M2.2043 3.06578C2.2043 3.06578 -0.083623 4.69987 1.2239 8.94888C1.87766 14.832 3.83894 20.7151 3.83894 20.7151C3.83894 20.7151 4.4927 21.6954 9.06857 21.6954C13.6444 21.6954 14.9519 21.0417 15.6057 19.7343C16.2595 18.4268 17.8936 6.00687 17.8936 6.00687C17.8936 6.00687 17.567 3.06532 16.2595 2.73868C14.952 2.41204 13.6444 2.08495 13.3178 2.08495C12.9911 2.08495 10.0494 0.123768 8.74191 0.450859C7.43393 0.77795 4.16558 3.39287 2.2043 3.06578Z" fill="url(#paint1_linear_28_1655)"/>
<path d="M7.74358 12.0805L6.62665 11.302L6.70741 9.55082L7.63696 8.9851L7.79847 7.28702L9.33505 7.69124V6.55934L9.90076 6.23633L11.8411 7.04476L13.7814 8.09545L14.6711 7.04476L14.7518 8.66163L14.3476 11.2085L15.2368 11.9362L14.1049 12.6634L14.1081 14.1796L12.3819 15.6014L9.50426 15.9738L8.04119 15.0892L5.65625 14.1188L6.4647 13.1488L7.74358 12.0805Z" fill="#ADADAD"/>
<defs>
<linearGradient id="paint0_linear_28_1655" x1="7.24801" y1="34.7216" x2="17.6145" y2="34.7591" gradientUnits="userSpaceOnUse">
<stop stop-color="#BFAB8D"/>
<stop offset="0.5078" stop-color="#E7E1D2"/>
<stop offset="1" stop-color="#CCBFA6"/>
</linearGradient>
<linearGradient id="paint1_linear_28_1655" x1="-2.8139" y1="11.0123" x2="21.3191" y2="11.0995" gradientUnits="userSpaceOnUse">
<stop stop-color="#94938C"/>
<stop offset="0.2296" stop-color="#EDEBE1"/>
<stop offset="0.7988" stop-color="#EDEBE1"/>
<stop offset="1" stop-color="#94938C"/>
</linearGradient>
</defs>
</svg>
