<svg width="29" height="50" viewBox="0 0 29 50" fill="none" xmlns="http://www.w3.org/2000/svg">
<path d="M9.19174 0.463788C7.87888 0.553161 6.86543 0.938326 5.78756 1.67871C5.49586 1.87923 5.21959 2.12104 5.27721 2.40776C5.54577 3.74699 15.4208 2.67088 15.326 1.49634C15.267 0.798596 12.0556 0.611233 11.3366 0.534109C10.525 0.446551 9.82367 0.42069 9.19174 0.463788Z" fill="#D8D6D0"/>
<path d="M19.3556 45.8313C20.0311 47.9953 18.4361 48.8781 16.9544 47.5961C14.0899 45.1173 12.4322 41.1409 10.9742 37.4984C10.2991 35.8117 7.40064 29.8805 8.92586 28.4469C10.4393 27.0247 16.3719 29.7331 16.6758 33.5393C16.841 35.6039 16.9099 37.6745 17.2652 39.74C17.6517 41.9852 18.6937 43.7114 19.3556 45.8313Z" fill="url(#paint0_linear_28_1661)"/>
<path d="M2.57999 20.5575C2.76781 21.3319 2.9343 22.1199 2.97105 22.2723C3.28634 23.5803 3.55991 24.8986 3.77949 26.226C3.95868 27.3107 4.10204 28.4018 4.20865 29.496C4.31208 30.5567 4.2218 31.7244 4.42413 32.7642C4.62284 33.7891 4.98848 34.8643 5.33371 35.8541C6.37032 38.827 7.94044 41.5935 9.80498 44.1222C10.7404 45.3906 11.7521 46.6024 12.82 47.7615C13.476 48.4737 14.8705 50.5824 16.0296 49.7063C16.4647 49.3774 16.6394 48.7909 16.6112 48.246C16.5831 47.7012 16.3835 47.1822 16.1943 46.6704C14.7372 42.7222 13.3517 37.8335 14.171 33.5976C14.2563 33.1562 14.3897 32.7003 14.7063 32.3814C15.1214 31.9635 15.786 31.8696 16.354 32.0261C16.922 32.1826 17.4065 32.5542 17.8293 32.9643C19.2806 34.3729 20.3117 36.3532 21.1986 38.1542C21.8701 39.5179 22.3632 40.971 22.6467 42.465C22.918 43.8949 22.6875 45.5943 23.2619 46.9363C23.5835 47.6884 24.3008 48.3331 25.1183 48.3095C25.7547 48.2914 26.3182 47.8817 26.7378 47.4026C28.2839 45.6374 28.5801 42.8247 28.6704 40.5741C28.7838 37.7378 28.3801 34.9114 27.9405 32.1173C27.3421 28.3134 26.5731 24.5352 25.7144 20.7821C25.6812 20.6364 25.214 18.2688 25.1196 18.2715C25.1196 18.2715 2.2452 18.9062 2.03516 18.9121C2.1522 18.9098 2.37857 19.7259 2.57999 20.5575Z" fill="url(#paint1_linear_28_1661)"/>
<path d="M20.4776 0.287817C19.2917 0.220221 18.3263 0.479264 17.247 1.08128C16.9549 1.24415 16.67 1.45011 16.6759 1.7391C16.7026 3.09102 25.6865 3.20217 25.7885 2.03307C25.8466 1.33805 23.0103 0.772781 22.3811 0.610822C21.6702 0.428902 21.0483 0.320481 20.4776 0.287817Z" fill="#D8D6D0"/>
<path d="M4.5354 1.33768C3.58224 1.43295 2.68443 1.79997 1.91092 2.60659C0.914215 3.64594 0.415182 5.0877 0.291784 6.5222C0.0272957 9.59988 0.554004 13.2601 1.32297 16.2416C1.56705 17.1879 1.59153 19.1768 2.24119 19.9072C4.26273 22.1796 8.70461 21.074 11.3926 20.8876C14.4712 20.6739 17.7857 20.5718 20.544 19.9072C22.37 19.8156 25.7231 20.2198 26.2775 17.8049C26.9126 15.0371 27.3037 12.2066 27.4343 9.36987C27.5323 7.25033 27.8417 2.0132 24.7949 1.60445C24.3489 1.54456 23.5963 2.04723 23.1494 2.14885C22.2171 2.36026 21.3075 2.33167 20.382 2.08578C19.2438 1.78364 18.1867 1.23924 17.0957 0.796008C16.8584 0.699831 16.6116 0.606828 16.3557 0.613633C15.7728 0.629512 15.3445 1.13444 14.8781 1.48467C12.9151 2.96 9.39645 2.19467 7.22928 1.62804C6.31967 1.38986 5.40418 1.25058 4.5354 1.33768Z" fill="url(#paint2_linear_28_1661)"/>
<path d="M11.4273 11.809L10.3103 11.0305L10.3911 9.27933L11.3207 8.71361L11.4822 7.01553L13.0188 7.41975V6.28786L13.5846 5.96484L15.525 6.77328L17.4654 7.82397L18.3551 6.77328L18.4359 8.39014L18.0316 10.937L18.9209 11.6647L17.7889 12.3919L17.7921 13.9081L16.0658 15.3299L13.1881 15.7023L11.7249 14.8177L9.33984 13.8473L10.1483 12.8774L11.4273 11.809Z" fill="#ADADAD"/>
<defs>
<linearGradient id="paint0_linear_28_1661" x1="11.5925" y1="27.5386" x2="19.3539" y2="71.8303" gradientUnits="userSpaceOnUse">
<stop offset="0.1599" stop-color="#BFAB8D"/>
<stop offset="0.5078" stop-color="#E7E1D2"/>
<stop offset="0.7297" stop-color="#CCBFA6"/>
</linearGradient>
<linearGradient id="paint1_linear_28_1661" x1="4.62199" y1="34.0379" x2="27.1486" y2="34.1193" gradientUnits="userSpaceOnUse">
<stop stop-color="#BFAB8D"/>
<stop offset="0.5078" stop-color="#E7E1D2"/>
<stop offset="1" stop-color="#CCBFA6"/>
</linearGradient>
<linearGradient id="paint2_linear_28_1661" x1="-5.48336" y1="10.9058" x2="33.3623" y2="11.0462" gradientUnits="userSpaceOnUse">
<stop stop-color="#94938C"/>
<stop offset="0.2296" stop-color="#EDEBE1"/>
<stop offset="0.7988" stop-color="#EDEBE1"/>
<stop offset="1" stop-color="#94938C"/>
</linearGradient>
</defs>
</svg>
