<svg width="27" height="49" viewBox="0 0 27 49" fill="none" xmlns="http://www.w3.org/2000/svg">
<path d="M15.8421 42.3591C16.044 44.3162 14.7741 44.7613 13.8731 43.3976C12.1305 40.7617 11.4582 37.087 10.8865 33.7331C10.6216 32.1797 9.31138 26.6191 10.6035 25.6945C11.8856 24.7776 15.8154 28.1869 15.5318 31.4615C15.378 33.2381 15.1539 35.0015 15.1375 36.8148C15.1189 38.7856 15.6439 40.4414 15.8421 42.3591Z" fill="url(#paint0_linear_28_1668)"/>
<path d="M4.21484 20.0974C4.90033 22.0558 5.45291 24.1001 5.77183 26.1506C5.98641 27.5307 5.95466 28.7574 5.74507 30.1234C5.39257 32.4189 5.36715 34.8148 5.46605 37.1303C5.6203 40.7419 7.35284 43.4621 8.73788 46.7108C9.24689 47.9044 10.4242 48.5309 11.4912 47.4326C12.8445 46.0398 12.4797 43.1123 12.5337 41.3457C12.6072 38.9277 12.6562 36.4929 13.1398 34.1134C13.348 33.089 13.6406 32.0678 14.1755 31.1695C14.7072 30.2763 15.6898 29.8408 16.6312 30.4841C17.8846 31.3406 18.1673 33.217 18.6 34.5526C19.0061 35.8051 19.374 37.0699 19.7292 38.3379C20.231 40.129 20.6951 41.9305 21.1733 43.7275C21.3715 44.4715 22.0184 46.219 23.1122 45.4596C23.4815 45.2028 23.6639 44.7582 23.8177 44.3359C24.3226 42.9467 24.7259 41.5236 25.1283 40.1018C25.6677 38.1969 26.164 36.2974 26.2801 34.3135C26.4384 31.6087 25.3728 28.9361 24.852 26.318C24.2985 23.5357 23.9528 20.7121 23.8204 17.8785C23.8117 17.692 23.7972 17.4892 23.6716 17.3513C23.5014 17.1653 23.2097 17.1798 22.9598 17.2084C19.888 17.5605 16.8099 17.8467 13.7413 18.2305C11.6649 18.4887 9.58579 18.7618 7.52752 19.141C6.62019 19.308 4.91757 19.3946 4.21484 20.0974Z" fill="url(#paint1_linear_28_1668)"/>
<path d="M1.81415 15.8517C1.71162 14.625 1.73972 13.3819 1.50609 12.1702C1.14135 10.2788 0.186411 8.63108 0.3216 6.62721C0.647325 1.80286 7.3891 1.42995 10.7788 2.76601C12.1883 3.32131 12.7668 2.79686 13.9517 2.0483C15.2355 1.23714 16.7503 0.8125 18.2678 0.8125C20.003 0.8125 21.9179 1.30609 23.4 2.21797C25.5925 3.5672 25.5907 5.78066 25.7413 8.10391C25.9083 10.6735 25.8488 13.3207 24.9991 15.7778C24.7392 16.53 24.3949 17.269 23.8532 17.852C23.0833 18.6808 22.1026 18.7901 21.0623 19.0297C19.6424 19.3568 18.2066 19.6335 16.7753 19.9044C13.9685 20.4356 11.1354 20.868 8.27963 21.0113C6.92547 21.0794 5.52324 20.9419 4.3206 20.3154C2.57856 19.4085 1.96839 17.7027 1.81415 15.8517Z" fill="url(#paint2_linear_28_1668)"/>
<path d="M11.3296 11.7236L10.2126 10.9447L10.2934 9.19348L11.223 8.62775L11.3845 6.92962L12.9211 7.33386V6.20193L13.4869 5.87891L15.4273 6.68736L17.3677 7.73808L18.2574 6.68736L18.3382 8.30427L17.934 10.8512L18.8232 11.5789L17.6912 12.3062L17.6944 13.8224L15.9681 15.2442L13.0903 15.6167L11.6272 14.732L9.24219 13.7616L10.0506 12.7916L11.3296 11.7236Z" fill="#ADADAD"/>
<defs>
<linearGradient id="paint0_linear_28_1668" x1="12.6501" y1="25.428" x2="10.5406" y2="64.2334" gradientUnits="userSpaceOnUse">
<stop offset="0.1599" stop-color="#BFAB8D"/>
<stop offset="0.5078" stop-color="#E7E1D2"/>
<stop offset="0.7297" stop-color="#CCBFA6"/>
</linearGradient>
<linearGradient id="paint1_linear_28_1668" x1="6.74153" y1="33.9888" x2="24.2355" y2="30.5847" gradientUnits="userSpaceOnUse">
<stop stop-color="#BFAB8D"/>
<stop offset="0.5078" stop-color="#E7E1D2"/>
<stop offset="1" stop-color="#CCBFA6"/>
</linearGradient>
<linearGradient id="paint2_linear_28_1668" x1="-3.76392" y1="13.9355" x2="29.5338" y2="7.45634" gradientUnits="userSpaceOnUse">
<stop stop-color="#94938C"/>
<stop offset="0.2114" stop-color="#EDEBE1"/>
<stop offset="0.847" stop-color="#EDEBE1"/>
<stop offset="1" stop-color="#94938C"/>
</linearGradient>
</defs>
</svg>
