<svg width="25" height="40" viewBox="0 0 25 40" fill="none" xmlns="http://www.w3.org/2000/svg">
<path d="M15.5452 36.663C15.8401 38.5163 14.6542 39.0072 13.7241 37.7555C11.9267 35.336 11.0933 31.8718 10.3728 28.7074C10.0394 27.2421 8.49955 22.0144 9.68183 21.0662C10.8551 20.1258 14.7767 23.1667 14.6778 26.3007C14.6242 28.0006 14.5036 29.6919 14.5829 31.4199C14.6691 33.2977 15.2557 34.8474 15.5452 36.663Z" fill="url(#paint0_linear_28_1673)"/>
<path d="M3.07812 13.3533C3.07812 13.3533 4.38561 16.9486 4.38561 20.8706C4.38561 24.7925 4.05894 29.6953 6.34677 33.2907C8.6346 36.886 9.28837 38.5201 9.28837 38.5201C9.28837 38.5201 11.2496 40.808 12.2299 38.1935C12.2299 38.1935 9.94209 30.3491 11.2495 26.4271C12.557 22.5051 13.8645 23.8121 14.1911 24.4659C14.5177 25.1196 19.0939 32.6369 19.7472 34.5982C20.4009 36.5594 21.3812 38.5201 22.035 38.5201C22.6887 38.5201 23.6691 36.886 24.3228 33.9444C24.9765 31.0028 24.3228 27.7346 23.0154 25.4463C21.7079 23.1584 20.4004 13.0262 20.4004 11.392C20.4004 9.75792 4.71222 12.6995 3.07812 13.3533Z" fill="url(#paint1_linear_28_1673)"/>
<path d="M10.6272 3.08454C10.3169 3.01105 9.99565 2.80826 9.62274 2.56282C8.61016 1.89547 7.55856 1.25171 6.39038 0.927336C5.22174 0.602962 3.90705 0.631088 2.86725 1.25488C2.13595 1.69358 1.59424 2.38861 1.14829 3.11539C0.450554 4.25274 -0.0643646 5.57429 0.0957791 6.89901C0.278152 8.40973 0.877456 9.89732 1.49217 11.2774C1.86508 12.1144 2.17584 13.0694 2.84772 13.7245C3.63119 14.4885 4.94957 14.596 5.98257 14.7407C8.20462 15.0515 10.4357 14.7729 12.6051 14.258C14.7619 13.7458 16.9907 13.1778 19.0876 12.4637C19.4646 12.3353 19.8411 12.187 20.1568 11.9447C21.0419 11.2647 21.2239 9.71902 21.4366 8.69917C21.7596 7.14898 21.5623 5.54615 20.9281 4.10121C20.1115 2.24071 18.55 0.598424 16.4767 0.279493C14.9928 0.0512973 13.6753 0.355711 12.6768 1.50577C12.3461 1.88685 12.083 2.32963 11.7255 2.68758C11.3317 3.08227 10.9869 3.16983 10.6272 3.08454Z" fill="url(#paint2_linear_28_1673)"/>
<path d="M9.23983 9.47599L8.36744 8.86807L8.43005 7.50073L9.15637 7.05886L9.2825 5.7328L10.482 6.04854V5.1648L10.9243 4.91211L12.4396 5.54361L13.9548 6.36429L14.649 5.54361L14.7124 6.80616L14.3967 8.79504L15.0913 9.36303L14.2071 9.93147L14.2098 11.1151L12.8615 12.2257L10.6145 12.5165L9.47212 11.8255L7.60938 11.0679L8.24088 10.3103L9.23983 9.47599Z" fill="#ADADAD"/>
<defs>
<linearGradient id="paint0_linear_28_1673" x1="11.6132" y1="20.7001" x2="11.6374" y2="57.7699" gradientUnits="userSpaceOnUse">
<stop offset="0.1599" stop-color="#BFAB8D"/>
<stop offset="0.5078" stop-color="#E7E1D2"/>
<stop offset="0.7297" stop-color="#CCBFA6"/>
</linearGradient>
<linearGradient id="paint1_linear_28_1673" x1="4.97257" y1="25.1401" x2="21.7306" y2="25.2007" gradientUnits="userSpaceOnUse">
<stop stop-color="#BFAB8D"/>
<stop offset="0.5078" stop-color="#E7E1D2"/>
<stop offset="1" stop-color="#CCBFA6"/>
</linearGradient>
<linearGradient id="paint2_linear_28_1673" x1="-6.28443" y1="7.47546" x2="27.7552" y2="7.59843" gradientUnits="userSpaceOnUse">
<stop stop-color="#94938C"/>
<stop offset="0.2614" stop-color="#EDEBE1"/>
<stop offset="0.7687" stop-color="#EDEBE1"/>
<stop offset="1" stop-color="#94938C"/>
</linearGradient>
</defs>
</svg>
