<svg width="19" height="55" viewBox="0 0 19 55" fill="none" xmlns="http://www.w3.org/2000/svg">
<path d="M9.20723 54.2295C9.20723 54.2295 3.90814 55.3251 2.03033 52.5727C0.152061 49.8199 8.5757 52.5691 9.20723 54.2295Z" fill="#D8D6D0"/>
<path d="M9.98438 54.4646C9.98438 54.4646 15.6275 54.8461 17.0315 51.1868C18.4356 47.5275 10.3174 52.3464 9.98438 54.4646Z" fill="#D8D6D0"/>
<path d="M12.2366 33.9334C12.3196 33.9742 12.3986 34.0205 12.473 34.0726C13.9106 35.0766 15.1224 36.7043 16.0365 38.1765C17.4256 40.4131 18.4169 42.9713 18.1501 45.6406C17.9677 47.4653 17.7631 49.5635 16.8513 51.2021C16.3187 52.1593 15.1215 52.598 14.1465 52.9374C13.3114 53.2282 12.4684 53.5013 11.6496 53.8365C10.8933 54.1459 10.1511 54.6736 9.29916 54.6055C8.3197 54.527 7.63558 53.7594 6.85211 53.2613C5.62268 52.4801 4.15101 52.0795 2.69475 52.1498C2.43889 52.1621 2.17667 52.1879 1.93169 52.1131C1.57375 52.0042 1.31199 51.7002 1.10103 51.3917C0.140177 49.9881 0.16558 48.628 0.157414 46.9957C0.148794 45.3371 0.181004 43.6685 0.497206 42.0354C1.0602 39.1251 2.98282 36.7175 3.99358 33.9706C4.05165 33.8122 4.10972 33.6503 4.21633 33.5196C4.3987 33.296 4.69722 33.1993 4.98484 33.1762C5.52379 33.1326 6.06682 33.2161 6.60078 33.2733C7.61335 33.3822 8.60188 33.4951 9.6199 33.565C10.4265 33.6208 11.4849 33.5623 12.2366 33.9334Z" fill="url(#paint0_linear_28_1696)"/>
<path d="M14.3788 35.8472C14.3425 35.8766 14.2989 35.8998 14.2459 35.9143C13.9791 35.9892 13.1571 35.5868 12.8663 35.5105C11.9022 35.2583 10.9273 35.0473 9.94649 34.8718C8.90715 34.6858 7.85738 34.5093 6.79898 34.5007C6.23871 34.4961 5.67525 34.5352 5.12677 34.654C4.63954 34.7597 4.11465 35.0936 3.65328 35.1354C3.31711 33.8247 3.65827 32.3004 3.7363 30.9693C3.82295 29.4895 3.95905 28.0128 4.14369 26.542C4.49029 23.7819 5.17894 21.1248 5.68115 18.3996C6.1702 15.7488 6.3063 12.9465 6.24777 10.2472C6.2201 8.97784 6.14343 7.70621 5.9978 6.44502C5.87395 5.36847 5.56365 4.40489 5.67389 3.28932C5.78595 2.15515 6.31809 0.437565 7.81564 0.90212C8.94299 1.2519 9.64481 2.49177 10.2137 3.43449C11.2975 5.22965 12.0864 7.18541 12.8132 9.15205C13.539 11.116 14.2082 13.1139 14.587 15.1772C14.9177 16.9769 14.8774 18.7385 14.8461 20.5554C14.7971 23.4398 14.7281 26.3238 14.6569 29.2077C14.6111 31.0682 14.7172 33.0099 14.5707 34.8972C14.5444 35.2501 14.5965 35.6693 14.3788 35.8472Z" fill="url(#paint1_linear_28_1696)"/>
<path d="M5.13508 45.6081L3.98637 44.8074L4.06893 43.0064L5.02529 42.4244L5.19179 40.6783L6.77149 41.0943V39.9302L7.35357 39.5977L9.34884 40.4288L11.3446 41.5098L12.2592 40.4288L12.3422 42.0919L11.9266 44.7108L12.8412 45.4593L11.6771 46.2074L11.6807 47.7666L9.90505 49.2288L6.94571 49.6117L5.44131 48.7016L2.98828 47.704L3.81986 46.7064L5.13508 45.6081Z" fill="#ADADAD"/>
<defs>
<linearGradient id="paint0_linear_28_1696" x1="-5.79294" y1="44.2931" x2="24.443" y2="43.3617" gradientUnits="userSpaceOnUse">
<stop stop-color="#94938C"/>
<stop offset="0.2666" stop-color="#EDEBE1"/>
<stop offset="0.7117" stop-color="#EDEBE1"/>
<stop offset="1" stop-color="#94938C"/>
</linearGradient>
<linearGradient id="paint1_linear_28_1696" x1="0.744102" y1="19.4225" x2="15.1035" y2="17.9146" gradientUnits="userSpaceOnUse">
<stop stop-color="#BFAB8D"/>
<stop offset="0.5078" stop-color="#E7E1D2"/>
<stop offset="1" stop-color="#CCBFA6"/>
</linearGradient>
</defs>
</svg>
