<svg width="19" height="58" viewBox="0 0 19 58" fill="none" xmlns="http://www.w3.org/2000/svg">
<path d="M9.35835 56.2579C9.35835 56.2579 4.01244 57.0932 2.2713 54.2518C0.530608 51.4105 8.80897 54.5685 9.35835 56.2579Z" fill="#D8D6D0"/>
<path d="M3.99219 38.3368C3.99219 38.3368 4.31883 27.2243 5.29964 24.2827C6.28 21.3412 7.26081 11.5361 6.93372 8.92117C6.60709 6.30624 6.60709 2.3843 6.60709 2.3843C6.60709 2.3843 6.28045 -0.557264 9.22198 1.73057C12.1635 4.0184 15.7583 15.1309 15.4317 19.7071C15.105 24.2827 15.0016 38.0714 15.0533 38.041C15.1046 38.0097 3.99219 38.3368 3.99219 38.3368Z" fill="url(#paint0_linear_28_1702)"/>
<path d="M14.7766 37.0297C14.7766 37.0297 22.2938 48.1422 16.7378 54.0253C16.0591 54.744 14.9916 55.2493 14.1646 55.7751C13.3108 56.3182 12.4003 57.0722 11.3591 57.1897C10.1656 57.3249 9.2918 56.0759 8.11863 55.8323C6.25362 55.4449 4.42854 55.7515 2.83573 54.4795C1.52057 53.4292 0.723027 51.792 0.452191 50.1524C0.114666 48.1068 0.463986 46.0282 0.871375 44.0198C1.04513 43.1637 1.34093 42.3489 1.68707 41.5473C2.0559 40.6926 2.72096 39.8583 3.0104 38.99C3.0104 38.9909 5.62486 31.1466 14.7766 37.0297Z" fill="url(#paint1_linear_28_1702)"/>
<path d="M6.00997 47.241L4.86132 46.4403L4.94388 44.6392L5.90019 44.0572L6.06668 42.3111L7.64631 42.7271V41.563L8.22836 41.2305L10.2235 42.0616L12.2192 43.1426L13.1337 42.0616L13.2168 43.7247L12.8012 46.3436L13.7158 47.0922L12.5517 47.8402L12.5553 49.3995L10.7797 50.8616L7.82052 51.2445L6.31619 50.3344L3.86328 49.3368L4.69482 48.3393L6.00997 47.241Z" fill="#ADADAD"/>
<defs>
<linearGradient id="paint0_linear_28_1702" x1="4.89203" y1="19.6456" x2="17.7844" y2="19.2485" gradientUnits="userSpaceOnUse">
<stop stop-color="#BFAB8D"/>
<stop offset="0.5078" stop-color="#E7E1D2"/>
<stop offset="1" stop-color="#CCBFA6"/>
</linearGradient>
<linearGradient id="paint1_linear_28_1702" x1="-3.25986" y1="46.426" x2="23.4661" y2="45.6027" gradientUnits="userSpaceOnUse">
<stop stop-color="#94938C"/>
<stop offset="0.0311" stop-color="#A6A59D"/>
<stop offset="0.0939" stop-color="#C5C3BB"/>
<stop offset="0.1552" stop-color="#DBD9D0"/>
<stop offset="0.2138" stop-color="#E8E7DD"/>
<stop offset="0.2666" stop-color="#EDEBE1"/>
<stop offset="0.7117" stop-color="#EDEBE1"/>
<stop offset="0.7637" stop-color="#E7E5DB"/>
<stop offset="0.835" stop-color="#D5D3CA"/>
<stop offset="0.9175" stop-color="#B8B7AF"/>
<stop offset="1" stop-color="#94938C"/>
</linearGradient>
</defs>
</svg>
