<svg width="20" height="70" viewBox="0 0 20 70" fill="none" xmlns="http://www.w3.org/2000/svg">
<path d="M16.0309 45.479C16.0309 45.479 3.94928 42.4507 2.94531 44.1774L7.82451 9.62468C7.82451 9.62468 7.67298 0.744141 8.98045 0.744141C10.2879 0.744141 11.5954 4.6661 11.5954 4.6661C11.5954 4.6661 15.7396 37.2091 16.0309 45.479Z" fill="url(#paint0_linear_28_1707)"/>
<path d="M13.707 41.9822C13.7074 41.9831 20.8976 51.4611 19.5901 59.305C19.1682 61.836 18.3044 64.4814 16.7788 66.5687C16.0347 67.5867 15.068 68.5081 13.849 68.9119C12.2366 69.4459 10.1675 69.0267 8.55105 68.666C7.75532 68.4886 6.97363 68.2441 6.23234 67.9029C1.04964 65.5194 -0.319526 59.374 0.097394 54.1659C0.390463 50.5075 1.50105 46.9585 2.94462 43.6058C3.88099 41.431 6.06223 40.8612 8.23938 40.5531C9.87802 40.3213 12.5928 40.5132 13.707 41.9822Z" fill="url(#paint1_linear_28_1707)"/>
<path d="M6.38114 56.1065L5.232 55.3057L5.31502 53.5046L6.27136 52.9226L6.43785 51.1764L8.01751 51.5924V50.4283L8.59956 50.0957L10.5948 50.9268L12.5905 52.008L13.5051 50.9268L13.5881 52.59L13.1725 55.2091L14.0871 55.9577L12.923 56.7058L12.9266 58.2651L11.151 59.7273L8.19171 60.1102L6.68736 59.2001L4.23438 58.2025L5.06595 57.2048L6.38114 56.1065Z" fill="#ADADAD"/>
<defs>
<linearGradient id="paint0_linear_28_1707" x1="4.606" y1="23.355" x2="14.2106" y2="23.0591" gradientUnits="userSpaceOnUse">
<stop stop-color="#BFAB8D"/>
<stop offset="0.5078" stop-color="#E7E1D2"/>
<stop offset="1" stop-color="#CCBFA6"/>
</linearGradient>
<linearGradient id="paint1_linear_28_1707" x1="-5.48127" y1="54.5275" x2="26.3233" y2="55.096" gradientUnits="userSpaceOnUse">
<stop stop-color="#94938C"/>
<stop offset="0.2296" stop-color="#EDEBE1"/>
<stop offset="0.7988" stop-color="#EDEBE1"/>
<stop offset="1" stop-color="#94938C"/>
</linearGradient>
</defs>
</svg>
