<svg width="20" height="61" viewBox="0 0 20 61" fill="none" xmlns="http://www.w3.org/2000/svg">
<path d="M13.3445 34.7799C13.3445 34.7799 16.6127 36.0873 17.5935 43.6046C17.5935 43.6046 18.5739 51.4489 18.901 53.7367C19.2277 56.0246 19.2277 58.9661 15.6328 59.9465C12.0374 60.9269 8.7692 60.2731 6.80799 59.6199C4.84677 58.9666 1.90518 57.0049 1.25144 54.7171C0.597698 52.4293 1.25143 41.3167 2.23181 39.3555C3.21219 37.3943 5.50006 32.1649 13.3445 34.7799Z" fill="url(#paint0_linear_28_1711)"/>
<path d="M10.074 3.72917C10.074 3.72917 17.2481 19.4142 14.3147 35.9212C14.3147 35.9212 3.91288 34.6881 3.39844 37.5117C4.85739 30.6446 5.55828 23.4178 5.27111 16.4077C5.15453 13.5637 4.95401 10.7238 4.87417 7.87839C4.82245 6.02562 4.50036 3.90882 5.29561 2.18308C5.6295 1.45767 6.1816 0.391555 7.08755 0.306719C8.62499 0.162908 9.61305 2.66896 10.074 3.72917Z" fill="url(#paint1_linear_28_1711)"/>
<path d="M6.79911 49.4619L5.64997 48.6612L5.73299 46.8601L6.68933 46.278L6.85582 44.5318L8.43548 44.9479V43.7837L9.01754 43.4512L11.0128 44.2823L13.0084 45.3634L13.923 44.2823L14.0061 45.9455L13.5905 48.5646L14.5051 49.3131L13.341 50.0612L13.3446 51.6205L11.569 53.0827L8.60968 53.4656L7.10534 52.5556L4.65234 51.5579L5.48392 50.5603L6.79911 49.4619Z" fill="#ADADAD"/>
<defs>
<linearGradient id="paint0_linear_28_1711" x1="24.738" y1="47.9656" x2="-2.92615" y2="46.5796" gradientUnits="userSpaceOnUse">
<stop stop-color="#94938C"/>
<stop offset="0.2296" stop-color="#EDEBE1"/>
<stop offset="0.7988" stop-color="#EDEBE1"/>
<stop offset="1" stop-color="#94938C"/>
</linearGradient>
<linearGradient id="paint1_linear_28_1711" x1="6.02768" y1="18.919" x2="15.0084" y2="19.0795" gradientUnits="userSpaceOnUse">
<stop stop-color="#BFAB8D"/>
<stop offset="0.5078" stop-color="#E7E1D2"/>
<stop offset="1" stop-color="#CCBFA6"/>
</linearGradient>
</defs>
</svg>
