<svg width="26" height="75" viewBox="0 0 26 75" fill="none" xmlns="http://www.w3.org/2000/svg">
<path d="M25.8007 69.7785C25.8007 69.7785 28.0885 42.9777 15.9957 39.0553C15.9957 39.0553 2.26831 36.7675 0.961311 60.6267C0.924111 61.3072 0.818405 61.9841 0.789371 62.6673C0.726766 64.1581 0.780751 65.6647 1.03798 67.1364C1.30836 68.682 1.81375 70.2794 2.86443 71.4802C3.3739 72.0623 4.00948 72.5241 4.73081 72.8072C5.35595 73.0526 6.04415 73.1447 6.70014 73.2799C7.50766 73.446 8.317 73.602 9.13087 73.7327C9.57001 73.803 10.011 73.8665 10.4524 73.9196C12.0751 74.1151 13.7111 74.1768 15.3447 74.2385C17.9982 74.3388 20.7483 74.4708 23.2271 73.3357C24.6933 72.6647 25.8007 71.4598 25.8007 69.7785Z" fill="url(#paint0_linear_28_1715)"/>
<path d="M11.9887 0.368661C12.4478 0.317396 12.8996 0.487518 13.3302 0.654921C13.4676 0.708454 13.5915 0.796013 13.7044 0.906708C15.2573 2.43239 16.0313 5.68562 16.8129 7.67177C19.2028 13.7436 21.0193 20.0496 22.0718 26.493C22.5958 29.7 22.9306 32.9387 23.0581 36.186C23.1225 37.8192 23.1347 39.4543 23.0934 41.0884C23.0599 42.4258 23.2803 44.3706 22.7246 45.5837C22.0405 44.8107 21.5533 43.8811 20.8292 43.1376C19.059 41.3193 16.7703 40.0191 14.1858 40.0177C13.0947 40.0173 12.0227 40.2386 11.0034 40.6111C10.5896 40.7622 10.1849 40.9377 9.79072 41.1337C8.64069 41.7053 7.25655 43.4306 6.03257 43.5236C5.85383 41.1315 6.45857 38.4467 6.6863 36.0477C6.6863 29.9577 7.88941 23.526 8.80082 17.5172C9.07483 15.7098 9.48721 13.9265 9.4491 12.0937C9.40963 10.2014 9.19733 8.31144 9.32572 6.41784C9.4414 4.72249 9.6537 0.628611 11.9887 0.368661Z" fill="url(#paint1_linear_28_1715)"/>
<path d="M8.82073 60.4454L7.32363 59.4019L7.43206 57.0551L8.67783 56.2971L8.89469 54.0215L10.953 54.5636V53.0465L11.7115 52.6133L14.3119 53.6966L16.9119 55.1053L18.1037 53.6966L18.2121 55.8633L17.6704 59.2763L18.8622 60.2512L17.3451 61.2266L17.3497 63.2581L15.036 65.1635L11.1798 65.6625L9.2195 64.4767L6.02344 63.1769L7.10679 61.8767L8.82073 60.4454Z" fill="#ADADAD"/>
<defs>
<linearGradient id="paint0_linear_28_1715" x1="30.8754" y1="56.6419" x2="-4.14564" y2="56.6597" gradientUnits="userSpaceOnUse">
<stop stop-color="#94938C"/>
<stop offset="0.2296" stop-color="#EDEBE1"/>
<stop offset="0.7988" stop-color="#EDEBE1"/>
<stop offset="1" stop-color="#94938C"/>
</linearGradient>
<linearGradient id="paint1_linear_28_1715" x1="19.3908" y1="22.9364" x2="5.90987" y2="23.1774" gradientUnits="userSpaceOnUse">
<stop stop-color="#BFAB8D"/>
<stop offset="0.5078" stop-color="#E7E1D2"/>
<stop offset="1" stop-color="#CCBFA6"/>
</linearGradient>
</defs>
</svg>
