<svg width="26" height="75" viewBox="0 0 26 75" fill="none" xmlns="http://www.w3.org/2000/svg">
<path d="M12.2608 0.934507C10.7078 2.46019 9.93388 5.71344 9.15221 7.69959C6.76228 13.7715 4.94579 20.0775 3.89328 26.5209C3.36929 29.7279 3.03447 32.9666 2.90699 36.2139C2.84257 37.8472 2.83033 39.4822 2.87162 41.1163C2.90519 42.4537 2.6847 44.3986 3.24044 45.6117C3.92458 44.8386 4.41183 43.9091 5.13589 43.1655C6.9061 41.3472 9.19486 40.047 11.7794 40.0456C13.3128 40.0447 14.809 40.483 16.1746 41.1616C17.3246 41.7333 18.7087 43.4586 19.9327 43.5516C20.1115 41.1594 19.5063 38.4746 19.279 36.0756C19.279 29.9855 18.0759 23.5539 17.1645 17.5451C16.8904 15.7377 16.4781 13.9543 16.5162 12.1215C16.5556 10.2292 16.768 8.33927 16.6396 6.44566C16.5243 4.75031 16.312 0.655956 13.977 0.396004C13.5179 0.34474 13.066 0.514868 12.6355 0.682271C12.4976 0.736257 12.3737 0.823812 12.2608 0.934507Z" fill="url(#paint0_linear_28_1559)"/>
<path d="M0.246619 69.5793C0.246619 69.5793 -2.04122 42.7785 10.0517 38.8561C10.0517 38.8561 23.7791 36.5683 25.0861 60.4275C25.0861 60.4275 26.7202 71.5401 20.5104 72.8476C9.72503 75.1358 0.246619 74.8088 0.246619 69.5793Z" fill="url(#paint1_linear_28_1559)"/>
<path d="M9.22688 60.4454L7.72983 59.4019L7.83826 57.0551L9.08398 56.2971L9.30084 54.0215L11.359 54.5636V53.0465L12.1175 52.6133L14.7179 53.6966L17.3177 55.1053L18.5095 53.6966L18.6179 55.8633L18.0762 59.2763L19.268 60.2512L17.751 61.2266L17.7555 63.2581L15.4419 65.1635L11.5859 65.6625L9.62564 64.4767L6.42969 63.1769L7.513 61.8767L9.22688 60.4454Z" fill="#ADADAD"/>
<defs>
<linearGradient id="paint0_linear_28_1559" x1="6.57451" y1="22.9646" x2="20.0556" y2="23.2055" gradientUnits="userSpaceOnUse">
<stop stop-color="#BFAB8D"/>
<stop offset="0.5078" stop-color="#E7E1D2"/>
<stop offset="1" stop-color="#CCBFA6"/>
</linearGradient>
<linearGradient id="paint1_linear_28_1559" x1="-5.69451" y1="56.52" x2="29.8359" y2="56.4696" gradientUnits="userSpaceOnUse">
<stop stop-color="#94938C"/>
<stop offset="0.2296" stop-color="#EDEBE1"/>
<stop offset="0.7988" stop-color="#EDEBE1"/>
<stop offset="1" stop-color="#94938C"/>
</linearGradient>
</defs>
</svg>
