<svg width="26" height="29" viewBox="0 0 26 29" fill="none" xmlns="http://www.w3.org/2000/svg">
<path d="M18.9004 16.8001C18.1004 13.7001 17.9004 7.4001 17.7004 1.6001C17.5004 1.6001 17.3004 1.5001 17.2004 1.4001C17.1004 1.4001 17.1004 1.4001 17.0004 1.4001C16.6004 1.3001 16.2004 1.2001 15.8004 1.1001C14.8004 1.1001 12.6004 1.2001 12.5004 1.4001C13.4004 1.3001 13.5004 1.3001 12.9004 1.4001L12.5004 1.5001C12.3004 1.5001 12.1004 1.6001 11.9004 1.6001C11.3004 1.9001 10.7004 2.1001 10.1004 2.2001C10.0004 5.2001 9.90039 8.4001 9.50039 11.0001C9.60039 11.0001 9.70039 11.0001 9.90039 11.0001C12.1004 11.0001 12.1004 14.4001 9.90039 14.4001C9.50039 14.4001 9.20039 14.3001 8.90039 14.1001C8.20039 16.4001 7.10039 17.6001 5.50039 16.7001C5.40039 16.7001 5.40039 16.6001 5.30039 16.6001C5.30039 16.7001 5.20039 16.7001 5.10039 16.8001C4.80039 17.0001 4.60039 17.2001 4.40039 17.5001L8.50039 19.9001C8.50039 19.9001 16.0004 22.7001 20.5004 24.4001C20.5004 24.3001 20.5004 24.3001 20.5004 24.2001C20.6004 23.5001 20.6004 22.8001 20.6004 22.1001C20.6004 21.6001 20.8004 21.2001 21.1004 20.9001C21.3004 20.7001 21.5004 20.6001 21.8004 20.5001C20.5004 18.9001 19.1004 17.5001 18.9004 16.8001Z" fill="#B46766"/>
<path d="M15.3004 1.00029C14.7004 1.00029 14.1004 0.900293 13.6004 0.800293C12.9004 1.10029 12.1004 1.30029 11.3004 1.30029L10.6004 1.60029L10.4004 4.70029C11.8004 3.90029 14.7004 2.30029 16.5004 1.30029C16.2004 1.20029 15.9004 1.10029 15.6004 1.00029C15.4004 1.00029 15.4004 1.00029 15.3004 1.00029Z" fill="#8C8D92"/>
<path d="M17.1004 2.00049L10.1004 5.90049L9.90039 8.90049C11.3004 8.10049 15.8004 5.50049 17.3004 4.60049L17.1004 2.00049Z" fill="#8C8D92"/>
<path d="M17.5006 5.7002L9.90059 10.0002L9.60059 13.7002C9.60059 16.4002 18.1006 16.7002 18.1006 14.0002L17.5006 5.7002Z" fill="#8C8D92"/>
<path d="M17.3008 4.50049C16.1008 5.20049 14.9008 6.00049 13.6008 6.70049C12.4008 7.40049 11.1008 8.10049 9.90078 8.70049L9.80078 10.0005L17.4008 5.70049C17.4008 5.40049 17.3008 4.90049 17.3008 4.50049Z" fill="#BBBCC1"/>
<path d="M17.6006 8.50049C16.4006 9.20049 15.2006 10.0005 13.9006 10.7005C12.7006 11.4005 11.4006 12.1005 10.2006 12.7005L10.1006 14.0005L17.7006 9.70049C17.7006 9.30049 17.7006 8.90049 17.6006 8.50049Z" fill="#BBBCC1"/>
<path d="M17.1007 0.900391C15.5007 1.80039 11.9007 3.90039 10.3007 4.70039L10.2007 5.80039L17.2007 1.90039L17.1007 0.900391Z" fill="#BBBCC1"/>
<path d="M13.9007 15.9005C16.2203 15.9005 18.1007 15.1394 18.1007 14.2005C18.1007 13.2616 16.2203 12.5005 13.9007 12.5005C11.5811 12.5005 9.70068 13.2616 9.70068 14.2005C9.70068 15.1394 11.5811 15.9005 13.9007 15.9005Z" fill="#527F3F"/>
<path d="M13.9004 15.4005C15.5572 15.4005 16.9004 14.8632 16.9004 14.2005C16.9004 13.5377 15.5572 13.0005 13.9004 13.0005C12.2435 13.0005 10.9004 13.5377 10.9004 14.2005C10.9004 14.8632 12.2435 15.4005 13.9004 15.4005Z" fill="#79B565"/>
<path d="M3.1 10.3001C2.7 10.1001 1 9.2001 1 9.2001C1 9.2001 3.3 8.2001 4.4 6.2001C5.2 4.7001 6.6 4.2001 7.6 3.6001C8.3 3.2001 9.3 2.6001 10.6 2.1001C10.4 5.6001 10.2 9.1001 10 12.6001C9.5 13.1001 9 13.3001 8.6 13.4001C6.8 13.9001 4.6 12.7001 3.1 10.3001Z" fill="#333333"/>
<path d="M23.4001 18.3001C23.6001 18.4001 23.9001 18.4001 24.1001 18.5001C24.5001 18.6001 25.0001 18.6001 25.3001 18.7001C24.7001 16.2001 24.4001 14.2001 24.3001 12.8001C24.2001 11.6001 24.1001 10.3001 23.5001 8.7001C23.1001 7.7001 22.6001 6.9001 22.4001 6.5001C22.0001 5.8001 21.3001 4.8001 20.1001 3.7001C19.5001 3.1001 18.5001 2.3001 17.1001 1.6001C17.3001 5.3001 17.5001 9.0001 17.7001 12.7001C18.1001 12.9001 18.6001 13.2001 19.1001 13.5001C21.3001 15.0001 22.6001 16.9001 23.4001 18.3001Z" fill="#333333"/>
<path d="M22.1002 14.7003C22.1002 14.7003 19.5002 11.8003 13.7002 11.8003C7.90024 11.8003 3.70024 13.7003 2.70024 16.3003C1.70024 18.9003 1.40025 26.0003 5.00025 27.3003C6.10025 27.7003 7.40025 27.8003 8.40025 27.1003C9.30025 26.5003 9.60025 25.3003 10.9002 25.8003C11.5002 26.0003 11.9002 26.4003 12.4002 26.7003C14.5002 28.3003 18.1002 29.9003 20.5002 28.0003C23.8002 25.5003 25.0002 18.0003 22.1002 14.7003Z" fill="url(#paint0_linear_154_8966)"/>
<path d="M25.3002 16.7002C25.3002 16.4002 25.2002 16.1002 25.2002 15.7002C25.2002 15.4002 25.2002 15.2002 25.1002 14.8002C25.0002 13.9002 24.9002 12.9002 24.7002 11.8002C23.8002 7.2002 21.9002 3.8002 19.1002 1.8002C18.2002 1.2002 16.5002 0.200195 15.0002 0.200195C11.1002 0.300195 7.1002 2.3002 4.0002 5.8002C3.8002 6.0002 3.6002 6.3002 3.4002 6.6002C3.0002 7.2002 2.6002 7.7002 2.1002 7.9002C2.0002 7.9002 2.0002 8.0002 1.9002 8.0002C1.5002 8.2002 1.1002 8.5002 0.700195 8.7002C1.2002 8.9002 1.6002 9.0002 2.1002 8.9002C3.1002 8.7002 3.7002 7.9002 4.2002 7.1002C4.4002 6.8002 4.5002 6.6002 4.7002 6.4002C7.6002 3.1002 11.4002 1.2002 15.0002 1.1002C15.0002 1.1002 15.0002 1.1002 15.1002 1.1002C16.4002 1.1002 17.8002 2.0002 18.6002 2.5002C21.9002 4.8002 23.2002 8.8002 23.8002 11.8002C24.0002 12.8002 24.1002 13.8002 24.2002 14.7002C24.2002 15.0002 24.3002 15.3002 24.3002 15.5002C24.4002 16.5002 24.4002 17.1002 24.8002 17.7002C25.0002 17.8002 25.3002 17.9002 25.5002 17.9002C25.4002 17.7002 25.3002 17.2002 25.3002 16.7002Z" fill="#B36766"/>
<defs>
<linearGradient id="paint0_linear_154_8966" x1="28.8825" y1="20.2885" x2="-3.32205" y2="20.4048" gradientUnits="userSpaceOnUse">
<stop stop-color="#94938C"/>
<stop offset="0.2296" stop-color="#EDEBE1"/>
<stop offset="0.7988" stop-color="#EDEBE1"/>
<stop offset="1" stop-color="#94938C"/>
</linearGradient>
</defs>
</svg>
