<svg width="20" height="38" viewBox="0 0 20 38" fill="none" xmlns="http://www.w3.org/2000/svg">
<path d="M13.9003 1.7001C13.7003 1.6001 13.6003 1.6001 13.4003 1.5001C13.0003 1.4001 12.7003 1.2001 12.3003 1.1001C12.2003 1.1001 12.1003 1.1001 12.1003 1.1001C11.5003 1.3001 10.9003 1.3001 10.3003 1.3001C11.8003 2.2001 13.5003 3.1001 14.4003 3.6001L14.3003 1.7001C14.1003 1.7001 14.0003 1.7001 13.9003 1.7001Z" fill="#8C8D92"/>
<path d="M14.5999 4.80029L8.3999 1.30029C8.0999 1.50029 7.89991 1.60029 7.49991 1.80029L7.3999 3.50029C8.8999 4.30029 13.3999 7.00029 14.7999 7.80029L14.5999 4.80029Z" fill="#8C8D92"/>
<path d="M7.2001 4.7002L14.8001 9.0002L15.1001 12.7002C15.1001 15.4002 6.6001 15.7002 6.6001 13.0002L7.2001 4.7002Z" fill="#8C8D92"/>
<path d="M7.4003 3.5C8.6003 4.2 9.80031 5 11.1003 5.7C12.3003 6.4 13.6003 7.1 14.8003 7.7L14.9003 9L7.30029 4.7C7.40029 4.3 7.4003 3.9 7.4003 3.5Z" fill="#BBBCC1"/>
<path d="M6.9003 6.8999C8.1003 7.5999 9.30031 8.3999 10.6003 9.0999C11.8003 9.7999 13.1003 10.4999 14.3003 11.0999L14.4003 12.3999L6.80029 8.0999C6.80029 7.6999 6.9003 7.2999 6.9003 6.8999Z" fill="#BBBCC1"/>
<path d="M10.4002 1.3999C9.90018 1.4999 9.3002 1.5999 8.7002 1.5999L14.5002 4.7999L14.4002 3.6999C13.5002 3.0999 11.9002 2.1999 10.4002 1.3999Z" fill="#BBBCC1"/>
<path d="M10.8001 14.7999C13.1197 14.7999 15.0001 14.0388 15.0001 13.0999C15.0001 12.161 13.1197 11.3999 10.8001 11.3999C8.48048 11.3999 6.6001 12.161 6.6001 13.0999C6.6001 14.0388 8.48048 14.7999 10.8001 14.7999Z" fill="#527F3F"/>
<path d="M10.8003 14.2999C12.4571 14.2999 13.8003 13.7626 13.8003 13.0999C13.8003 12.4372 12.4571 11.8999 10.8003 11.8999C9.14344 11.8999 7.80029 12.4372 7.80029 13.0999C7.80029 13.7626 9.14344 14.2999 10.8003 14.2999Z" fill="#79B565"/>
<path d="M18.5002 7.2C18.4002 6.4 18.1002 5.8 18.0002 5.6C17.8002 5.3 17.7002 5 17.2002 4.4C16.1002 2.9 16.1002 3 16.0002 2.8C15.9002 2.7 15.9002 2.6 15.9002 2.5C15.3002 2.4 14.7002 2.2 14.2002 2C14.2002 5.7 14.2002 9.3 14.3002 13C17.1002 16.2 18.0002 16.8 18.2002 16.6C18.5002 16.4 17.8002 15.1 18.2002 13.1C18.3002 12.5 18.5002 12.1 18.6002 11.8C18.4002 10.7 18.4002 9.9 18.5002 9.3C18.5002 8.5 18.6002 8.1 18.5002 7.2Z" fill="#333333"/>
<path d="M3.6001 17.3004C2.3001 18.3004 1.70009 18.3004 1.50009 18.1004C1.00009 17.8004 1.60009 16.6004 1.50009 14.6004C1.50009 13.4004 1.3001 12.5004 1.1001 11.8004C1.2001 11.0004 1.20008 10.2004 1.30008 9.40039C1.30008 9.30039 1.30008 9.30039 1.30008 9.30039C1.30008 8.70039 1.30008 6.90039 2.30008 5.40039C2.80008 4.70039 3.4001 4.00039 3.6001 3.80039C4.4001 3.00039 5.10008 2.60039 5.30008 2.40039C5.80008 2.10039 6.60009 1.70039 7.50009 1.40039C7.20009 5.20039 6.80009 9.00039 6.50009 12.8004C6.00009 13.1004 5.20009 13.7004 4.50009 14.8004C4.00009 15.8004 3.7001 16.7004 3.6001 17.3004Z" fill="#333333"/>
<path d="M18.6 5.90018C18.1 4.70018 17.3 3.70017 17.3 3.70017L17.2001 3.60018C14.5001 0.400176 10 0.80018 9.80003 0.80018C7.80003 1.00018 6.40003 1.80018 5.80003 2.10018C3.80003 3.20018 2.40005 4.70018 1.60005 6.40018C0.50005 8.70018 0.90005 11.2002 1.10005 13.0002C1.20005 13.6002 1.30006 14.3002 1.20006 14.7002C1.20006 14.8002 1.20006 14.8002 1.20006 14.9002C1.20006 15.1002 1.30003 15.4002 1.30003 15.6002C1.50003 15.6002 1.80004 15.6002 2.00004 15.6002C2.30004 15.0002 2.20004 14.0002 2.00004 12.9002C1.80004 11.1002 1.50004 9.00018 2.40004 6.90018C3.10004 5.40018 4.40006 4.00018 6.20006 3.00018C6.80006 2.70018 8.10003 1.90018 9.80003 1.80018C9.80003 1.80018 14 1.50018 16.3 4.30018C16.3 4.30018 16.3 4.40018 16.4 4.40018C16.4 4.40018 17.1 5.30018 17.6 6.40018C18 7.40018 18.3 9.60018 18.1 12.5002C18.1 13.0002 18 13.4002 18 13.8002C17.9 14.5002 17.9 15.0002 17.9 15.4002C18.2 15.4002 18.5 15.4002 18.9 15.4002C18.9 15.4002 18.9 15.4002 18.9 15.3002C18.9 15.2002 18.9 15.2002 18.9 15.1002C18.9 14.8002 19 14.3002 19 13.9002C19 13.5002 19.1 13.1002 19.1 12.6002C19.5 9.40018 19.1 7.00018 18.6 5.90018Z" fill="#B36766"/>
<path d="M6.49989 11.7004C6.49989 11.7004 3.29987 13.0004 2.29987 20.4004C2.29987 20.4004 1.29989 28.2004 0.999887 30.4004C0.699887 32.7004 0.699899 35.6004 4.1999 36.5004C7.7999 37.5004 10.9999 36.8004 12.8999 36.2004C14.7999 35.6004 17.6999 33.6004 18.3999 31.4004C18.9999 29.1004 18.3999 18.1004 17.3999 16.2004C16.4999 14.3004 14.2999 9.10039 6.49989 11.7004Z" fill="url(#paint0_linear_154_9142)"/>
<defs>
<linearGradient id="paint0_linear_154_9142" x1="-3.53701" y1="24.6693" x2="22.1899" y2="23.3803" gradientUnits="userSpaceOnUse">
<stop stop-color="#94938C"/>
<stop offset="0.1599" stop-color="#D1CFC6"/>
<stop offset="0.2296" stop-color="#EDEBE1"/>
<stop offset="0.7988" stop-color="#EDEBE1"/>
<stop offset="0.9762" stop-color="#9F9E96"/>
<stop offset="1" stop-color="#94938C"/>
</linearGradient>
</defs>
</svg>
