<svg width="20" height="39" viewBox="0 0 20 39" fill="none" xmlns="http://www.w3.org/2000/svg">
<path d="M12.6 0.599998H12.5C11.8 0.599998 11.2 0.5 10.5 0.5C12 1.3 13.5 2.2 14.4 2.7L14.3 1.4C13.6 1.1 13.1 0.899998 12.6 0.599998Z" fill="#8C8D92"/>
<path d="M14.5999 3.7999L9.3999 0.899902C8.7999 1.1999 8.19991 1.2999 7.49991 1.3999L7.3999 2.4999C8.8999 3.2999 13.3999 5.9999 14.7999 6.7999L14.5999 3.7999Z" fill="#8C8D92"/>
<path d="M7.2001 3.7002L14.8001 8.0002L15.1001 11.7002C15.1001 14.4002 6.6001 14.7002 6.6001 12.0002L7.2001 3.7002Z" fill="#8C8D92"/>
<path d="M7.4003 2.5C8.6003 3.2 9.80031 4 11.1003 4.7C12.3003 5.4 13.6003 6.1 14.8003 6.7L14.9003 8L7.30029 3.7C7.40029 3.3 7.4003 2.9 7.4003 2.5Z" fill="#BBBCC1"/>
<path d="M6.9003 5.8999C8.1003 6.5999 9.30031 7.3999 10.6003 8.0999C11.8003 8.7999 13.1003 9.4999 14.3003 10.0999L14.4003 11.3999L6.80029 7.0999C6.80029 6.7999 6.9003 6.3999 6.9003 5.8999Z" fill="#BBBCC1"/>
<path d="M10.6999 0.600098H10.5999C9.99991 0.700098 9.4999 0.700096 8.8999 0.700096L14.4999 3.8001L14.3999 2.7001C13.4999 2.2001 12.0999 1.4001 10.6999 0.600098Z" fill="#BBBCC1"/>
<path d="M10.8001 13.9C13.1197 13.9 15.0001 13.1389 15.0001 12.2C15.0001 11.2611 13.1197 10.5 10.8001 10.5C8.48048 10.5 6.6001 11.2611 6.6001 12.2C6.6001 13.1389 8.48048 13.9 10.8001 13.9Z" fill="#527F3F"/>
<path d="M10.8003 13.4C12.4571 13.4 13.8003 12.8627 13.8003 12.2C13.8003 11.5373 12.4571 11 10.8003 11C9.14344 11 7.80029 11.5373 7.80029 12.2C7.80029 12.8627 9.14344 13.4 10.8003 13.4Z" fill="#79B565"/>
<path d="M18.4002 9.30039C18.5002 8.40039 18.6002 8.00039 18.5002 7.10039C18.4002 6.30039 18.1002 5.70039 18.0002 5.50039C17.8002 5.20039 17.7002 4.90039 17.2002 4.30039C16.1002 2.80039 16.1002 2.90039 16.0002 2.70039C15.8002 2.40039 15.8002 2.10039 15.8002 1.80039C15.2002 1.70039 14.7002 1.60039 14.2002 1.40039C14.2002 5.20039 14.2002 9.00039 14.3002 12.8004C16.0002 16.7004 17.6002 19.4004 18.4002 19.2004C19.2002 19.0004 19.2002 15.8004 18.6002 11.7004C18.3002 10.7004 18.4002 9.90039 18.4002 9.30039Z" fill="#333333"/>
<path d="M2.89991 19.1002C2.39991 20.0002 1.79991 20.5002 1.39991 20.3002C0.899911 20.2002 0.799929 19.4002 0.699929 18.9002C0.399929 17.3002 0.999905 16.3002 1.2999 15.0002C1.4999 14.1002 1.69992 12.7002 1.59992 11.0002C1.09992 10.3002 1.09993 9.9002 1.19993 9.7002C1.29993 9.4002 1.69993 9.1002 1.69993 8.6002C1.69993 8.5002 1.69993 8.5002 1.69993 8.5002C1.69993 7.9002 1.69993 6.1002 2.69993 4.6002C3.19993 3.9002 3.79992 3.2002 3.99992 3.0002C4.79992 2.2002 5.49993 1.8002 5.69993 1.6002C6.39993 1.2002 6.99992 0.900195 7.49992 0.700195C7.29992 4.2002 7.09991 7.6002 6.89991 11.1002C6.49991 11.9002 6.09993 12.6002 5.69993 13.4002C4.69993 15.4002 3.79991 17.3002 2.89991 19.1002Z" fill="#333333"/>
<path d="M19.1001 8.50019C18.7001 6.10019 18.4001 4.60019 17.1001 3.10019C14.4001 0.000187635 10.2001 0.200192 9.7001 0.300192C7.7001 0.500192 6.3001 1.30019 5.7001 1.60019C4.9001 2.10019 2.60009 3.30019 1.50009 6.00019C1.10009 6.90019 1.00009 7.70019 0.900085 8.40019C0.700085 9.60019 0.700079 10.4002 0.800079 11.8002C0.800079 12.4002 0.800085 13.0002 0.900085 13.9002C0.900085 15.8002 0.900104 16.8002 0.700104 17.4002C0.700104 17.8002 0.600098 18.1002 0.600098 18.5002C0.800098 18.5002 1.10008 18.5002 1.30008 18.5002C1.90008 17.7002 2.00009 16.3002 1.90009 13.8002C1.90009 12.9002 1.90008 12.3002 1.80008 11.7002C1.70008 10.3002 1.70009 9.60019 1.90009 8.50019C2.00009 7.90019 2.10009 7.20019 2.50009 6.40019C3.50009 4.10019 5.50008 2.90019 6.30008 2.50019C7.00008 2.10019 8.20009 1.40019 9.90009 1.30019C10.3001 1.30019 14.1001 1.00019 16.4001 3.80019C17.5001 5.10019 17.8001 6.50019 18.2001 8.70019C18.7001 11.3002 18.5001 13.5002 18.5001 15.3002C18.4001 17.4002 18.3001 18.8002 19.4001 19.4002C19.4001 19.4002 19.4001 19.4002 19.5001 19.4002C19.5001 18.9002 19.5001 18.3002 19.5001 17.8002C19.4001 17.2002 19.5001 16.4002 19.5001 15.3002C19.5001 13.5002 19.6001 11.2002 19.1001 8.50019Z" fill="#B36766"/>
<path d="M5.99998 11.7001C5.99998 11.7001 -1.10001 21.1001 0.199992 28.8001C0.599992 31.3001 1.49998 33.9001 2.99998 36.0001C3.69998 37.0001 4.69997 37.9001 5.89997 38.3001C7.49997 38.8001 9.49999 38.4001 11.1 38.1001C11.9 37.9001 12.7 37.7001 13.4 37.3001C18.5 34.9001 19.9 28.9001 19.5 23.7001C19.2 20.1001 18.1 16.6001 16.7 13.3001C15.8 11.1001 13.6 10.6001 11.5 10.3001C9.79998 10.1001 7.09998 10.3001 5.99998 11.7001Z" fill="url(#paint0_linear_154_9122)"/>
<defs>
<linearGradient id="paint0_linear_154_9122" x1="25.7056" y1="24.1341" x2="-6.8879" y2="24.7167" gradientUnits="userSpaceOnUse">
<stop stop-color="#94938C"/>
<stop offset="0.0616806" stop-color="#A4A29B"/>
<stop offset="0.1809" stop-color="#CCCAC2"/>
<stop offset="0.2666" stop-color="#EDEBE1"/>
<stop offset="0.7117" stop-color="#EDEBE1"/>
<stop offset="0.7719" stop-color="#E0DED5"/>
<stop offset="0.883" stop-color="#BEBDB4"/>
<stop offset="1" stop-color="#94938C"/>
</linearGradient>
</defs>
</svg>
