<svg width="19" height="30" viewBox="0 0 19 30" fill="none" xmlns="http://www.w3.org/2000/svg">
<path d="M12.3998 1.49971C12.2998 1.49971 12.2998 1.39971 12.1998 1.39971C12.1998 1.39971 12.1998 1.39971 12.0998 1.39971C11.8998 1.39971 11.6998 1.39971 11.4998 1.39971C10.8998 1.39971 10.3998 1.39971 9.7998 1.19971C9.4998 1.29971 9.1998 1.39971 8.7998 1.49971C10.6998 2.59971 13.0998 3.99971 14.0998 4.49971L13.8998 2.19971C13.4998 1.99971 12.8998 1.69971 12.3998 1.49971Z" fill="#8C8D92"/>
<path d="M14.0998 5.5999L7.59982 1.8999C7.29982 2.0999 6.89982 2.1999 6.49982 2.2999H6.39981L5.7998 9.4999C5.7998 12.1999 14.2998 11.9999 14.2998 9.1999L14.0998 5.5999Z" fill="#8C8D92"/>
<path d="M9.09991 1.49951C8.59991 1.59951 7.9999 1.69951 7.3999 1.69951L14.2999 5.59951L14.1999 4.29951C12.9999 3.69951 11.7999 2.99951 10.4999 2.29951C9.99991 2.09951 9.59991 1.79951 9.09991 1.49951Z" fill="#BBBCC1"/>
<path d="M6.29968 3.59961C7.49968 4.29961 8.69969 5.09961 9.99969 5.79961C11.1997 6.49961 12.4997 7.19961 13.6997 7.79961L13.7997 9.09962L6.19971 4.79961C6.19971 4.39961 6.19968 3.99961 6.29968 3.59961Z" fill="#BBBCC1"/>
<path d="M10.2 11.4996C12.5196 11.4996 14.4 10.7385 14.4 9.79961C14.4 8.86073 12.5196 8.09961 10.2 8.09961C7.88042 8.09961 6 8.86073 6 9.79961C6 10.7385 7.88042 11.4996 10.2 11.4996Z" fill="#527F3F"/>
<path d="M10.1997 10.9996C11.8566 10.9996 13.1997 10.4624 13.1997 9.79961C13.1997 9.13687 11.8566 8.59961 10.1997 8.59961C8.54285 8.59961 7.19971 9.13687 7.19971 9.79961C7.19971 10.4624 8.54285 10.9996 10.1997 10.9996Z" fill="#79B565"/>
<path d="M17.9001 7.89971C17.8001 7.09971 17.5001 6.49971 17.4001 6.29971C17.2001 5.99971 17.1001 5.69971 16.6001 5.09971C15.5001 3.59971 15.5001 3.69971 15.4001 3.49971C15.3001 3.29971 15.2001 3.09971 15.2001 2.79971C14.6001 2.69971 14.1001 2.49971 13.6001 2.19971C13.6001 5.99971 13.6001 9.79972 13.7001 13.5997C15.3001 14.5997 16.9001 14.4997 17.6001 13.6997C17.7001 13.5997 18.0001 13.1997 18.0001 12.3997C17.8001 11.2997 17.8001 10.4997 17.9001 9.8997C17.8001 9.1997 18.0001 8.69971 17.9001 7.89971Z" fill="#333333"/>
<path d="M2.20001 14.8001C1.70001 14.7001 1.20001 14.6001 0.700012 14.5001C0.500012 14.5001 0.2 14.4001 0 14.4001C0.3 14.2001 0.699994 14.0001 0.899994 13.5001C1.39999 12.5001 0.800012 11.8001 0.700012 10.1001C0.700012 9.70011 0.600012 7.8001 1.70001 6.0001C2.20001 5.3001 2.8 4.6001 3 4.4001C3.8 3.6001 4.50001 3.2001 4.70001 3.0001C5.40001 2.6001 6 2.3001 6.5 2.1001C6.3 4.5001 6.09999 7.00009 5.89999 9.40009C5.59999 10.1001 5.29999 10.8001 4.79999 11.6001C3.89999 13.1001 2.90001 14.1001 2.20001 14.8001Z" fill="#333333"/>
<path d="M18.4998 9.2999C18.4998 7.3999 17.7998 5.2999 16.4998 3.7999C13.7998 0.699902 9.59982 0.899898 9.09982 0.999898C7.09982 1.1999 5.69982 1.9999 5.09982 2.2999C4.29982 2.7999 1.99981 3.9999 0.899811 6.6999C0.699811 7.2999 0.299805 7.9999 0.299805 9.0999C0.299805 9.8999 0.399817 10.4999 0.499817 11.0999C0.599817 11.3999 0.599823 11.5999 0.599823 11.7999V11.8999C0.599823 12.1999 0.599829 12.4999 0.699829 12.7999C0.699829 12.9999 0.699805 13.0999 0.799805 13.2999C0.999805 13.1999 1.0998 13.0999 1.2998 12.9999C1.7998 12.3999 1.69982 11.6999 1.49982 10.8999C1.39982 10.3999 1.2998 9.79989 1.2998 9.19989C1.2998 8.29989 1.59981 7.6999 1.89981 7.0999C2.89981 4.7999 4.89983 3.5999 5.69983 3.1999C6.39983 2.7999 7.5998 2.0999 9.2998 1.9999C9.6998 1.9999 13.4998 1.6999 15.7998 4.4999C16.8998 5.7999 17.5998 7.69989 17.5998 9.39989C17.5998 9.99989 17.4998 10.5999 17.3998 11.0999C17.2998 11.9999 17.1998 12.6999 17.3998 13.1999C17.6998 13.1999 17.8998 13.1999 18.1998 13.1999C18.1998 13.0999 18.1998 12.9999 18.1998 12.7999C18.1998 12.6999 18.1998 12.5999 18.2998 12.4999C18.2998 12.1999 18.3998 11.5999 18.3998 11.0999C18.3998 10.5999 18.4998 9.9999 18.4998 9.2999Z" fill="#B36766"/>
<path d="M9.7002 28.2998C9.7002 28.2998 15.0002 29.0998 16.7002 26.2998C18.4002 23.4998 10.2002 26.6998 9.7002 28.2998Z" fill="#D8D6D0"/>
<path d="M4.30005 9.29971C4.30005 9.29971 -3.09995 20.2997 2.40005 26.0997C3.10005 26.7997 4.10005 27.2997 4.90005 27.7997C5.70005 28.2997 6.60007 29.0997 7.70007 29.1997C8.90007 29.2997 9.70005 28.0997 10.9001 27.8997C12.7001 27.4997 14.6001 27.7997 16.1001 26.5997C17.4001 25.5997 18.2001 23.8997 18.5001 22.2997C18.8001 20.2997 18.5001 18.1997 18.1001 16.1997C17.9001 15.3997 17.6 14.4997 17.3 13.7997C16.9 12.9997 16.3001 12.0997 16.0001 11.2997C15.9001 11.2997 13.4 3.49971 4.30005 9.29971Z" fill="url(#paint0_linear_154_9257)"/>
<defs>
<linearGradient id="paint0_linear_154_9257" x1="22.1503" y1="18.6187" x2="-4.28455" y2="17.8044" gradientUnits="userSpaceOnUse">
<stop stop-color="#94938C"/>
<stop offset="0.0310882" stop-color="#A6A59D"/>
<stop offset="0.0939206" stop-color="#C5C3BB"/>
<stop offset="0.1552" stop-color="#DBD9D0"/>
<stop offset="0.2138" stop-color="#E8E7DD"/>
<stop offset="0.2666" stop-color="#EDEBE1"/>
<stop offset="0.7117" stop-color="#EDEBE1"/>
<stop offset="0.7637" stop-color="#E7E5DB"/>
<stop offset="0.835" stop-color="#D5D3CA"/>
<stop offset="0.9175" stop-color="#B8B7AF"/>
<stop offset="1" stop-color="#94938C"/>
</linearGradient>
</defs>
</svg>
