<svg width="21" height="29" viewBox="0 0 21 29" fill="none" xmlns="http://www.w3.org/2000/svg">
<path d="M13 1.2002C12.2 1.1002 11.5 1.0002 10.9 0.700195C10.8 0.700195 10.7 0.700195 10.6 0.700195C10.2 0.800195 9.9 0.900198 9.5 1.0002C11.4 2.1002 14 3.6002 15 4.2002L14.8 1.7002C14.2 1.6002 13.6 1.4002 13 1.2002Z" fill="#8C8D92"/>
<path d="M14.9998 5.30039L8.89981 1.80039C8.79981 1.80039 8.39982 1.70039 7.99982 1.90039C7.59982 2.10039 7.2998 2.40039 7.2998 2.50039L6.7998 9.20039C6.7998 11.9004 15.2998 11.7004 15.2998 8.90039L14.9998 5.30039Z" fill="#8C8D92"/>
<path d="M9.99982 1.2002C9.49982 1.3002 8.8998 1.4002 8.2998 1.5002L15.0998 5.4002L14.9998 4.0002C13.7998 3.4002 12.5998 2.7002 11.2998 2.0002C10.7998 1.7002 10.3998 1.5002 9.99982 1.2002Z" fill="#BBBCC1"/>
<path d="M7.10001 3.2002C8.30001 3.9002 9.49999 4.7002 10.8 5.4002C12 6.1002 13.3 6.8002 14.5 7.4002L14.6 8.7002L7 4.4002C7 4.1002 7.00001 3.6002 7.10001 3.2002Z" fill="#BBBCC1"/>
<path d="M10.9998 11.2003C13.3194 11.2003 15.1998 10.4392 15.1998 9.50029C15.1998 8.56141 13.3194 7.80029 10.9998 7.80029C8.68022 7.80029 6.7998 8.56141 6.7998 9.50029C6.7998 10.4392 8.68022 11.2003 10.9998 11.2003Z" fill="#527F3F"/>
<path d="M11 10.7003C12.6569 10.7003 14 10.163 14 9.50029C14 8.83755 12.6569 8.30029 11 8.30029C9.34315 8.30029 8 8.83755 8 9.50029C8 10.163 9.34315 10.7003 11 10.7003Z" fill="#79B565"/>
<path d="M19.2998 6.0001C19.1998 5.7001 18.9998 5.3001 18.3998 4.5001C17.4998 3.2001 17.1998 3.2001 16.9998 2.7001C16.9998 2.6001 16.8998 2.5001 16.8998 2.5001C15.8998 2.4001 15.0998 2.1001 14.2998 1.6001C14.2998 5.5001 14.2998 9.4001 14.3998 13.3001C15.9998 14.3001 17.5998 14.2001 18.2998 13.4001C18.3998 13.3001 18.6998 12.9001 18.6998 12.1001C19.1998 11.0001 19.2998 10.0001 19.3998 9.3001C19.4998 8.5001 19.4998 7.9001 19.4998 7.6001C19.4998 6.9001 19.4998 6.5001 19.2998 6.0001Z" fill="#333333"/>
<path d="M2.99993 14.4998C2.99993 14.7998 2.89993 15.0998 2.59993 15.1998C2.29993 15.2998 1.89991 15.0998 1.79991 14.5998C1.69991 13.9998 1.69994 13.4998 1.69994 13.1998C1.59994 11.8998 1.59993 10.6998 1.49993 9.7998C1.49993 9.3998 1.39993 7.4998 2.49993 5.6998C2.99993 4.9998 3.59991 4.2998 3.79991 4.0998C4.59991 3.2998 5.29993 2.8998 5.49993 2.6998C6.19993 2.2998 6.79991 1.9998 7.29991 1.7998C7.09991 4.1998 6.89994 6.6998 6.69994 9.0998C6.39994 9.7998 6.09993 10.4998 5.59993 11.2998C4.69993 12.7998 3.79993 13.7998 2.99993 14.4998Z" fill="#333333"/>
<path d="M10.6001 28.2998C10.6001 28.2998 15.8001 29.3998 17.7001 26.6998C19.6001 23.8998 11.2001 26.5998 10.6001 28.2998Z" fill="#D8D6D0"/>
<path d="M9.80016 28.4998C9.80016 28.4998 4.20016 28.8998 2.80016 25.2998C1.40016 21.6998 9.50016 26.3998 9.80016 28.4998Z" fill="#D8D6D0"/>
<path d="M7.6 8.19987C7.6 8.19987 7.49998 8.29988 7.39998 8.29988C5.99998 9.29988 4.79998 10.8999 3.89998 12.3999C2.49998 14.5999 1.49998 17.0999 1.79998 19.7999C1.99998 21.5999 2.2 23.6999 3.1 25.2999C3.6 26.1999 4.79998 26.6999 5.79998 26.9999C6.59998 27.2999 7.49998 27.5999 8.29998 27.8999C8.99998 28.1999 9.8 28.6999 10.6 28.6999C11.6 28.5999 12.2 27.8999 13 27.3999C14.2 26.5999 15.7 26.1999 17.1 26.2999C17.4 26.2999 17.6 26.2999 17.9 26.2999C18.3 26.1999 18.5 25.8999 18.7 25.5999C19.7 24.1999 19.6 22.8999 19.6 21.2999C19.6 19.6999 19.6 17.9999 19.3 16.3999C18.7 13.4999 16.8 11.0999 15.8 8.39988C15.7 8.19988 15.7 8.09988 15.6 7.99988C15.4 7.79988 15.1 7.69987 14.8 7.69987C14 7.59987 13.3 7.79988 13.2 7.79988C12.5 7.99988 11.8 7.99988 10.3 7.99988C9.19998 7.79988 8.5 7.69987 7.6 8.19987Z" fill="url(#paint0_linear_154_9237)"/>
<path d="M19.4999 5.49999C18.1999 1.99999 13.3999 0.199985 9.7999 0.699985C7.9999 0.899985 6.5999 1.69998 5.7999 2.19998C4.4999 2.99998 2.49991 4.09999 1.59991 6.39999C0.999915 7.89999 0.899902 9.29999 0.899902 10.9C0.899902 11.9 1.09992 12.8 1.19992 13.6C1.29992 14.1 1.3999 14.7 1.3999 14.8C1.3999 14.9 1.49991 15 1.49991 15C1.59991 15 1.7999 15 1.8999 15C1.9999 15 2.1999 14.9 2.2999 14.9C2.3999 14.5 2.29991 13.9 2.09991 13.3C1.99991 12.6 1.7999 11.8 1.7999 10.8C1.7999 9.29999 1.7999 8.09999 2.3999 6.69999C3.1999 4.79999 4.89992 3.79999 6.19992 2.99999C7.09992 2.49999 8.1999 1.79999 9.8999 1.59999C13.0999 1.19999 17.2999 2.69999 18.4999 5.79999C18.5999 6.19999 19.0999 7.39999 18.8999 8.99999C18.7999 9.79999 18.5999 10.5 18.3999 11.1C18.1999 11.8 17.9999 12.5 18.1999 12.9C18.2999 12.9 18.3999 12.9 18.5999 12.9C18.6999 12.8 18.6999 12.8 18.7999 12.7C18.8999 12.6 18.9999 12.5 19.1999 12.4C19.1999 12.3 19.1999 12.3 19.2999 12.2C19.3999 12 19.3999 11.7 19.4999 11.4C19.6999 10.8 19.8999 9.99999 19.9999 9.09999C20.1999 7.39999 19.6999 5.99999 19.4999 5.49999Z" fill="#B36766"/>
<defs>
<linearGradient id="paint0_linear_154_9237" x1="25.4375" y1="18.4563" x2="-4.46933" y2="17.535" gradientUnits="userSpaceOnUse">
<stop stop-color="#94938C"/>
<stop offset="0.2666" stop-color="#EDEBE1"/>
<stop offset="0.7117" stop-color="#EDEBE1"/>
<stop offset="1" stop-color="#94938C"/>
</linearGradient>
</defs>
</svg>
