<svg width="26" height="30" viewBox="0 0 26 30" fill="none" xmlns="http://www.w3.org/2000/svg">
<path d="M14.5002 1.1C14.0002 1.1 13.5002 1.1 13.0002 1C12.4002 1.2 11.8002 1.3 11.2002 1.2C10.9002 1.3 10.5002 1.4 10.2002 1.5C12.0002 2.5 14.9002 4.2 16.3002 4.9L16.1002 1.8L14.5002 1.1Z" fill="#8C8D92"/>
<path d="M9.49982 2.2002L16.4998 6.1002L16.6998 9.1002C15.2998 8.3002 10.7998 5.7002 9.2998 4.8002L9.49982 2.2002Z" fill="#8C8D92"/>
<path d="M9.10001 5.8999L16.7 10.1999L17 13.8999C17 16.5999 8.5 16.8999 8.5 14.1999L9.10001 5.8999Z" fill="#8C8D92"/>
<path d="M9.30017 4.7998C10.5002 5.4998 11.7002 6.2998 13.0002 6.9998C14.2002 7.6998 15.5002 8.3998 16.7002 8.9998L16.8002 10.2998L9.2002 5.9998C9.3002 5.5998 9.30017 5.1998 9.30017 4.7998Z" fill="#BBBCC1"/>
<path d="M9.49991 1.1001C11.0999 2.0001 14.6999 4.1001 16.2999 4.9001L16.3999 6.0001L9.3999 2.1001L9.49991 1.1001Z" fill="#BBBCC1"/>
<path d="M12.7 16.1002C15.0196 16.1002 16.9 15.3391 16.9 14.4002C16.9 13.4613 15.0196 12.7002 12.7 12.7002C10.3804 12.7002 8.5 13.4613 8.5 14.4002C8.5 15.3391 10.3804 16.1002 12.7 16.1002Z" fill="#527F3F"/>
<path d="M12.7002 15.6002C14.357 15.6002 15.7002 15.0629 15.7002 14.4002C15.7002 13.7375 14.357 13.2002 12.7002 13.2002C11.0433 13.2002 9.7002 13.7375 9.7002 14.4002C9.7002 15.0629 11.0433 15.6002 12.7002 15.6002Z" fill="#79B565"/>
<path d="M24.2 14.7998C24.2 14.3998 24.2 13.8998 23.9 13.3998C23.8 13.1998 23.7 13.1998 23.6 12.9998C23.2 12.3998 23.4 11.6998 23.4 11.0998C23.3 10.3998 23.2 9.2998 22.8 8.0998C22.6 7.3998 22.5 6.8998 22.2 6.2998C21.2 4.3998 19.6 3.3998 18.8 2.8998C18.2 2.4998 17.3 2.0998 16 1.7998C16.2 5.4998 16.4 9.0998 16.7 12.7998C17.1 13.0998 17.6 13.3998 18.1 13.5998C20.4 14.7998 22.8 14.8998 24.2 14.7998Z" fill="#333333"/>
<path d="M3.19986 18.4998C2.99986 18.5998 2.69985 18.5998 2.49985 18.6998C2.09985 18.7998 1.59983 18.7998 1.29983 18.8998C0.999834 16.9998 0.999852 15.3998 1.09985 14.2998C1.19985 12.8998 1.29983 10.9998 2.29983 8.9998C2.89983 7.5998 3.59983 6.6998 3.79983 6.4998C4.59983 5.4998 5.39985 4.8998 6.59985 3.8998C7.29985 3.2998 8.39985 2.5998 9.59985 1.7998C9.39985 5.4998 9.19985 9.1998 8.99985 12.8998C8.59985 13.0998 8.09985 13.3998 7.59985 13.6998C5.29985 15.1998 3.99986 17.0998 3.19986 18.4998Z" fill="#333333"/>
<path d="M24.0998 11.1C24.0998 10.6 23.9998 10.1 23.8998 9.6C23.6998 8.6 23.2998 7.6 22.8998 6.7C22.7998 6.6 22.7998 6.4 22.6998 6.3C21.2998 3 16.6998 0.7 11.5998 0.5H11.4998C9.99982 0.5 8.29981 1.5 7.39981 2.1C3.69981 4.6 2.0998 6.7 1.2998 9.7C0.999805 11 0.799829 11.9 0.699829 12.4C0.599829 13 0.499811 13.3 0.399811 13.6C0.299811 13.7 0.299805 13.8 0.299805 13.9C0.299805 14 0.299805 14.1 0.299805 14.2C0.299805 14.3 0.299805 14.3 0.299805 14.4C0.299805 14.5 0.299805 14.7 0.299805 14.8H0.399811C0.599811 14.8 0.899823 14.8 1.09982 14.8C1.19982 14.7 1.19983 14.5 1.19983 14.4C1.19983 14.3 1.1998 14.2 1.2998 14.1C1.4998 13.6 1.59983 13.3 1.69983 12.6C1.79983 12 1.9998 11.2 2.2998 9.9C2.9998 7.1 4.49982 5.3 7.99982 2.9C8.79982 2.4 10.1998 1.5 11.4998 1.5C11.4998 1.5 11.4998 1.5 11.5998 1.5C16.2998 1.6 20.5998 3.8 21.7998 6.7C22.6998 8.7 23.0998 10.2 22.9998 11.1C22.9998 11.2 23.0998 12 23.5998 12.6C23.6998 12.6 23.7998 12.6 23.8998 12.6C23.9998 12.6 23.9998 12.6 24.0998 12.6C24.0998 12.1 24.0998 11.6 24.0998 11.1Z" fill="#B36766"/>
<path d="M21.8996 14.1001C22.1996 14.2001 22.5996 14.9001 22.6996 15.1001C23.2996 15.9001 23.7996 16.8001 24.1996 17.8001C25.1996 20.4001 25.0996 23.2001 23.0996 25.3001C23.0996 25.3001 23.0996 25.3001 22.9996 25.4001C22.8996 25.5001 22.7996 25.6001 22.6996 25.7001C22.4996 26.1001 22.3996 26.5001 22.1996 26.9001C21.9996 27.2001 21.6996 27.6001 21.3996 27.8001C20.6996 28.4001 19.6996 28.8001 18.7996 28.7001C18.4996 28.7001 18.1996 28.6001 17.8996 28.4001C16.5996 27.9001 15.0996 27.3001 14.3996 26.0001C14.4996 26.2001 14.0996 26.8001 13.9996 26.9001C13.7996 27.2001 13.4996 27.3001 13.1996 27.5001C12.0996 27.9001 10.7996 28.3001 9.69958 28.8001C8.89958 29.1001 8.29957 29.4001 7.49957 29.1001C7.09957 29.0001 6.59958 28.8001 6.19958 28.7001C5.39958 28.4001 3.99957 27.9001 3.99957 26.8001C3.99957 25.1001 2.59956 20.2001 5.89956 15.2001C9.19956 10.2001 21.8996 14.1001 21.8996 14.1001Z" fill="#D8D6D0"/>
<path d="M21.8996 10C22.1996 10.1 22.6996 11 22.7996 11.2C23.4996 12.2 24.0996 13.2 24.4996 14.3C25.6996 17.3 25.4996 20.6 23.2996 23L23.1996 23.1C23.0996 23.2 22.9996 23.4 22.8996 23.5C22.5996 23.9 22.5996 24.4 22.2996 24.8C21.9996 25.2 21.6996 25.6 21.2996 25.9C20.4996 26.6 19.2996 27.1 18.1996 27C17.7996 27 17.3996 26.8 17.0996 26.7C15.4996 26.1 13.7996 25.4 12.9996 23.9C13.0996 24.1 12.6996 24.8 12.5996 24.9C12.2996 25.3 11.9996 25.4 11.5996 25.6C10.2996 26.1 8.79963 26.5 7.49963 27.2C6.59963 27.5 5.89963 27.9 4.99963 27.6C4.49963 27.4 3.89962 27.3 3.39962 27.1C2.39962 26.7 0.799616 26.1 0.799616 24.9C0.799616 23 -0.800365 17.1 3.09963 11.3C7.09963 5.50002 21.8996 10 21.8996 10Z" fill="url(#paint0_linear_154_9217)"/>
<defs>
<linearGradient id="paint0_linear_154_9217" x1="31.1026" y1="20.3455" x2="-3.34068" y2="16.7285" gradientUnits="userSpaceOnUse">
<stop stop-color="#94938C"/>
<stop offset="0.2296" stop-color="#EDEBE1"/>
<stop offset="0.7988" stop-color="#EDEBE1"/>
<stop offset="1" stop-color="#94938C"/>
</linearGradient>
</defs>
</svg>
