<svg width="25" height="29" viewBox="0 0 25 29" fill="none" xmlns="http://www.w3.org/2000/svg">
<path d="M13.8 0.799713C13.7 0.799713 13.6 0.799713 13.5 0.799713C13 0.799713 12.6 0.799707 12.1 0.699707C11.2 1.09971 10.4 1.19971 9.5 1.29971C11.3 2.29971 14.3 4.09971 15.7 4.79971L15.5 1.69971L13.8 0.799713Z" fill="#8C8D92"/>
<path d="M8.99982 1.99951L15.9998 5.89951L16.1998 8.89951C14.7998 8.09951 10.2998 5.49951 8.7998 4.59951L8.99982 1.99951Z" fill="#8C8D92"/>
<path d="M8.60001 5.7998L16.2 10.0998L16.5 13.7998C16.5 16.4998 8 16.7998 8 14.0998L8.60001 5.7998Z" fill="#8C8D92"/>
<path d="M8.80017 4.59961C10.0002 5.29961 11.2002 6.09961 12.5002 6.79961C13.7002 7.49961 15.0002 8.19961 16.2002 8.79961L16.3002 10.0996L8.7002 5.79961C8.7002 5.49961 8.80017 4.99961 8.80017 4.59961Z" fill="#BBBCC1"/>
<path d="M8.49991 8.49951C9.69991 9.19951 10.8999 9.99951 12.1999 10.6995C13.3999 11.3995 14.6999 12.0995 15.8999 12.6995L15.9999 13.9995L8.3999 9.69951C8.3999 9.29951 8.39991 8.89951 8.49991 8.49951Z" fill="#BBBCC1"/>
<path d="M8.89981 0.899902C10.4998 1.7999 14.0998 3.8999 15.6998 4.6999L15.7998 5.7999L8.7998 1.8999L8.89981 0.899902Z" fill="#BBBCC1"/>
<path d="M12.2 15.9996C14.5196 15.9996 16.4 15.2385 16.4 14.2996C16.4 13.3607 14.5196 12.5996 12.2 12.5996C9.88042 12.5996 8 13.3607 8 14.2996C8 15.2385 9.88042 15.9996 12.2 15.9996Z" fill="#527F3F"/>
<path d="M12.2002 15.4996C13.857 15.4996 15.2002 14.9624 15.2002 14.2996C15.2002 13.6369 13.857 13.0996 12.2002 13.0996C10.5433 13.0996 9.2002 13.6369 9.2002 14.2996C9.2002 14.9624 10.5433 15.4996 12.2002 15.4996Z" fill="#79B565"/>
<path d="M23.7 14.6997C23.7 14.2997 23.7 13.7997 23.4 13.2997C23.3 13.0997 23.2 13.0997 23.1 12.8997C22.7 12.2997 22.9 11.5997 22.9 10.9997C22.8 10.2997 22.7 9.19971 22.3 7.99971C22.1 7.29971 22 6.79971 21.7 6.19971C20.7 4.29971 19.1 3.29971 18.3 2.79971C17.7 2.39971 16.8 1.99971 15.5 1.69971C15.7 5.39971 15.9 8.99971 16.2 12.6997C16.6 12.9997 17.1 13.2997 17.6 13.4997C19.9 14.6997 22.2 14.7997 23.7 14.6997Z" fill="#333333"/>
<path d="M2.69983 18.3997C2.49983 18.4997 2.19982 18.4997 1.99982 18.5997C1.59982 18.6997 1.0998 18.6997 0.799805 18.7997C1.3998 16.2997 1.6998 14.2997 1.7998 12.8997C1.8998 11.6997 1.99982 10.3997 2.59982 8.79971C2.99982 7.79971 3.49983 6.99971 3.69983 6.59971C4.09983 5.89971 4.79982 4.89971 5.99982 3.79971C6.59982 3.19971 7.59982 2.39971 8.99982 1.69971C8.79982 5.39971 8.59981 9.09971 8.39981 12.7997C7.99981 12.9997 7.49982 13.2997 6.99982 13.5997C4.79982 15.0997 3.49983 16.9997 2.69983 18.3997Z" fill="#333333"/>
<path d="M23.6996 12.3999C23.6996 12.2999 23.6996 12.2999 23.6996 12.1999C23.4996 11.8999 23.4996 11.2999 23.4996 10.9999C23.5996 9.79993 23.1996 8.19993 22.2996 6.19993C20.8996 2.89993 16.2996 0.599933 11.1996 0.399933C9.69962 0.299933 7.89961 1.39993 7.09961 1.99993C4.29961 3.89993 2.2996 7.39993 1.4996 11.9999C1.2996 12.8999 1.19961 13.8999 1.09961 14.9999C1.09961 15.0999 1.09961 15.1999 1.09961 15.2999C1.09961 15.3999 1.09961 15.3999 1.09961 15.4999C1.09961 15.7999 1.19959 16.0999 1.29959 16.3999C1.29959 16.3999 1.2996 16.3999 1.3996 16.3999C1.4996 16.3999 1.59962 16.3999 1.69962 16.4999C2.09962 15.9999 2.09962 15.3999 2.19962 14.9999C2.19962 13.9999 2.39961 12.9999 2.59961 12.1999C3.19961 9.19993 4.49959 5.09993 7.79959 2.89993C8.59959 2.39993 10.0996 1.39993 11.3996 1.49993C16.0996 1.59993 20.3996 3.79993 21.5996 6.69993C22.3996 8.59993 22.7996 9.99993 22.6996 10.9999C22.6996 11.1999 22.5996 12.4999 23.3996 13.1999C23.6996 13.3999 23.8996 13.4999 23.9996 13.4999C24.0996 13.4999 24.0996 13.4999 24.1996 13.4999C23.7996 13.1999 23.6996 12.7999 23.6996 12.3999Z" fill="#B36766"/>
<path d="M5.89978 13.3998C6.79978 12.7998 7.89978 12.6998 8.89978 12.4998C10.3998 12.1998 11.8998 11.8998 13.4998 11.7998C16.8998 11.5998 20.6998 12.1998 22.8998 14.9998C23.6998 15.9998 24.2998 17.0998 24.5998 18.3998C24.8998 19.7998 24.6998 20.6998 24.1998 21.9998C23.7998 23.1998 23.2998 24.4998 22.5998 25.5998C21.8998 26.7998 20.7998 27.7998 19.2998 27.7998C17.7998 27.7998 16.1998 27.1998 15.1998 25.9998C15.0998 25.8998 15.0998 25.8998 14.9998 25.7998C14.8998 25.7998 14.7998 25.7998 14.6998 25.7998C12.5998 26.2998 10.4998 27.5998 8.59979 28.5998C7.69979 28.9998 7.1998 29.1998 6.1998 28.6998C4.9998 28.0998 3.89979 27.2998 3.09979 26.3998C0.59979 23.4998 1.49978 19.2998 3.39978 16.2998C3.99978 15.2998 4.69979 14.1998 5.59979 13.4998C5.79979 13.4998 5.79978 13.3998 5.89978 13.3998Z" fill="url(#paint0_linear_154_9200)"/>
<defs>
<linearGradient id="paint0_linear_154_9200" x1="-3.47752" y1="20.3871" x2="29.445" y2="20.4707" gradientUnits="userSpaceOnUse">
<stop stop-color="#94938C"/>
<stop offset="0.2296" stop-color="#EDEBE1"/>
<stop offset="0.7988" stop-color="#EDEBE1"/>
<stop offset="1" stop-color="#94938C"/>
</linearGradient>
</defs>
</svg>
