<svg width="25" height="29" viewBox="0 0 25 29" fill="none" xmlns="http://www.w3.org/2000/svg">
<path d="M14.5 1.2998C14.4 1.2998 14.3 1.1998 14.2 1.1998C14 1.0998 14 1.0998 14.2 1.1998C13.8 0.999799 13.6 0.999803 13.6 0.899803C13.6 0.899803 13.4 0.899803 12.9 0.899803C12.3 0.899803 11.6 0.799805 11 0.799805C10.7 0.799805 10.4 0.799805 10.1 0.799805C10 0.799805 9.90001 0.899802 9.60001 0.999802C9.40001 1.0998 9.2 1.0998 9 1.1998C10.8 2.1998 13.9 3.9998 15.3 4.7998L15.1 1.6998L14.5 1.2998Z" fill="#8C8D92"/>
<path d="M8.70001 2L15.7 5.9L15.9 8.9C14.5 8.1 10 5.5 8.5 4.6L8.70001 2Z" fill="#8C8D92"/>
<path d="M8.2001 5.69971L15.8001 9.99971L16.1001 13.6997C16.1001 16.3997 7.6001 16.6997 7.6001 13.9997L8.2001 5.69971Z" fill="#8C8D92"/>
<path d="M8.4003 4.5C9.6003 5.2 10.8003 6 12.1003 6.7C13.3003 7.4 14.6003 8.1 15.8003 8.7L15.9003 10L8.30029 5.7C8.40029 5.4 8.4003 4.9 8.4003 4.5Z" fill="#BBBCC1"/>
<path d="M8.10001 8.5C9.30001 9.2 10.5 10 11.8 10.7C13 11.4 14.3 12.1 15.5 12.7L15.6 14L8 9.7C8.1 9.3 8.10001 8.9 8.10001 8.5Z" fill="#BBBCC1"/>
<path d="M8.60001 0.899902C10.2 1.7999 13.8 3.8999 15.4 4.6999L15.5 5.7999L8.5 1.8999L8.60001 0.899902Z" fill="#BBBCC1"/>
<path d="M11.8001 15.9C14.1197 15.9 16.0001 15.1389 16.0001 14.2C16.0001 13.2611 14.1197 12.5 11.8001 12.5C9.48048 12.5 7.6001 13.2611 7.6001 14.2C7.6001 15.1389 9.48048 15.9 11.8001 15.9Z" fill="#527F3F"/>
<path d="M11.8003 15.4C13.4571 15.4 14.8003 14.8627 14.8003 14.2C14.8003 13.5373 13.4571 13 11.8003 13C10.1434 13 8.80029 13.5373 8.80029 14.2C8.80029 14.8627 10.1434 15.4 11.8003 15.4Z" fill="#79B565"/>
<path d="M22.6001 10.3001C23.0001 10.1001 24.7001 9.2001 24.7001 9.2001C24.7001 9.2001 22.4001 8.2001 21.3001 6.2001C20.5001 4.7001 19.1001 4.2001 18.1001 3.6001C17.4001 3.2001 16.4001 2.6001 15.1001 2.1001C15.3001 5.6001 15.5001 9.1001 15.7001 12.6001C16.2001 13.1001 16.7001 13.3001 17.1001 13.4001C18.9001 13.9001 21.1001 12.7001 22.6001 10.3001Z" fill="#333333"/>
<path d="M2.30038 18.3001C2.10038 18.4001 1.8004 18.4001 1.6004 18.5001C1.2004 18.6001 0.700391 18.6001 0.400391 18.7001C1.00039 16.2001 1.30039 14.2001 1.40039 12.8001C1.50039 11.6001 1.60041 10.3001 2.20041 8.7001C2.60041 7.7001 3.10038 6.9001 3.30038 6.5001C3.70038 5.8001 4.4004 4.8001 5.6004 3.7001C6.2004 3.1001 7.2004 2.3001 8.6004 1.6001C8.4004 5.3001 8.2004 9.0001 8.0004 12.7001C7.6004 12.9001 7.1004 13.2001 6.6004 13.5001C4.5004 15.0001 3.10038 16.9001 2.30038 18.3001Z" fill="#333333"/>
<path d="M3.70024 14.6998C3.70024 14.6998 6.30023 11.7998 12.1002 11.7998C17.9002 11.7998 22.1002 13.6998 23.1002 16.2998C24.1002 18.8998 24.4002 25.9998 20.8002 27.2998C19.7002 27.6998 18.4002 27.7998 17.4002 27.0998C16.5002 26.4998 16.2002 25.2998 14.9002 25.7998C14.3002 25.9998 13.9002 26.3998 13.4002 26.6998C11.3002 28.2998 7.70021 29.8998 5.30021 27.9998C1.90021 25.4998 0.800235 17.9998 3.70024 14.6998Z" fill="url(#paint0_linear_154_9180)"/>
<path d="M24.4002 8.49993C24.2002 8.29993 24.0002 8.19993 23.7002 8.09993C23.2002 7.99993 22.7002 7.39993 22.3002 6.79993C22.1002 6.49993 21.9002 6.19993 21.7002 5.99993C18.6002 2.49993 14.6002 0.499933 10.7002 0.399933C9.2002 0.299933 7.40019 1.39993 6.60019 1.99993C3.80019 3.89993 1.80018 7.39993 1.00018 11.9999C0.800183 13.0999 0.700189 14.0999 0.600189 14.9999C0.600189 15.2999 0.500183 15.5999 0.500183 15.7999C0.400183 16.6999 0.400195 17.1999 0.200195 17.4999C0.200195 17.6999 0.200195 17.7999 0.200195 17.9999C0.200195 18.2999 0.200195 18.5999 0.200195 18.8999C0.500195 18.6999 0.700177 18.4999 0.900177 18.2999C1.40018 17.5999 1.50018 16.9999 1.50018 15.7999C1.50018 15.5999 1.50019 15.2999 1.60019 14.9999C1.70019 14.1999 1.80018 13.1999 2.00018 12.0999C2.60018 9.09993 3.9002 4.99994 7.2002 2.79994C8.0002 2.29994 9.4002 1.39993 10.7002 1.39993C10.7002 1.39993 10.7002 1.39993 10.8002 1.39993C14.4002 1.49993 18.2002 3.39993 21.1002 6.69993C21.3002 6.89993 21.4002 7.09993 21.6002 7.39993C22.1002 8.19993 22.7002 8.99993 23.7002 9.19993C24.2002 9.29993 24.6002 9.19993 25.0002 9.09993C24.8002 8.89993 24.6002 8.69993 24.4002 8.49993Z" fill="#B36766"/>
<defs>
<linearGradient id="paint0_linear_154_9180" x1="-3.13447" y1="20.288" x2="29.0701" y2="20.4043" gradientUnits="userSpaceOnUse">
<stop stop-color="#94938C"/>
<stop offset="0.2296" stop-color="#EDEBE1"/>
<stop offset="0.7988" stop-color="#EDEBE1"/>
<stop offset="1" stop-color="#94938C"/>
</linearGradient>
</defs>
</svg>
