<svg width="25" height="28" viewBox="0 0 25 28" fill="none" xmlns="http://www.w3.org/2000/svg">
<path d="M9 25.6993V25.8993C10.1 25.9993 11.1 26.3993 11.8 26.8993L16 24.8993L16.2 21.7993C14.7 22.6993 10.8 24.7993 9 25.6993Z" fill="#8C8D92"/>
<path d="M9.0998 24.5997L16.5998 20.6997L16.7998 17.6997C15.2998 18.4997 10.3998 21.0997 8.7998 21.9997L9.0998 24.5997Z" fill="#8C8D92"/>
<path d="M8.5999 20.8995L16.7999 16.5995L17.0999 12.8995C17.0999 10.1995 7.8999 9.8995 7.8999 12.5995L8.5999 20.8995Z" fill="#8C8D92"/>
<path d="M8.8998 21.9995C10.1998 21.2995 11.4998 20.4995 12.8998 19.7995C14.1998 19.0995 15.5998 18.3995 16.7998 17.7995L16.9998 16.4995L8.7998 20.7995C8.7998 21.1995 8.7998 21.5995 8.8998 21.9995Z" fill="#BBBCC1"/>
<path d="M8.7001 18.0996C10.0001 17.3996 11.3001 16.5996 12.7001 15.8996C14.0001 15.1996 15.4001 14.4996 16.6001 13.8996L16.8001 12.5996L8.6001 16.8996C8.6001 17.2996 8.6001 17.6996 8.7001 18.0996Z" fill="#BBBCC1"/>
<path d="M8.9999 25.6993C10.6999 24.7993 14.5999 22.6993 16.2999 21.8993L16.3999 20.7993L8.8999 24.6993L8.9999 25.6993Z" fill="#BBBCC1"/>
<path d="M14.6001 26.6994C15.1001 26.3994 15.5001 26.1994 15.9001 25.9994L16.0001 24.8994L12.6001 26.6994C13.2001 26.6994 13.9001 26.6994 14.6001 26.6994Z" fill="#BBBCC1"/>
<path d="M12.5999 14.0997C14.9195 14.0997 16.7999 13.3386 16.7999 12.3997C16.7999 11.4608 14.9195 10.6997 12.5999 10.6997C10.2803 10.6997 8.3999 11.4608 8.3999 12.3997C8.3999 13.3386 10.2803 14.0997 12.5999 14.0997Z" fill="#527F3F"/>
<path d="M12.6001 13.5997C14.257 13.5997 15.6001 13.0624 15.6001 12.3997C15.6001 11.737 14.257 11.1997 12.6001 11.1997C10.9432 11.1997 9.6001 11.737 9.6001 12.3997C9.6001 13.0624 10.9432 13.5997 12.6001 13.5997Z" fill="#79B565"/>
<path d="M22.5999 15.8998C22.4999 15.9998 22.1999 16.2998 22.1999 16.7998C22.1999 17.1998 22.2999 17.3998 22.3999 17.4998C22.2999 17.8998 22.2999 18.4998 22.1999 19.1998C22.0999 20.7998 22.1999 20.8998 22.0999 21.4998C21.6999 23.6998 18.6999 24.8998 18.2999 25.0998C17.2999 25.4998 16.4999 25.5998 15.8999 25.5998C16.1999 21.8998 16.3999 18.1998 16.6999 14.4998C17.0999 14.3998 17.4999 14.2998 17.8999 14.1998C20.1999 14.0998 21.9999 15.3998 22.5999 15.8998Z" fill="#333333"/>
<path d="M3.1002 9.39999C2.9002 9.29999 2.6002 9.3 2.4002 9.2C2.0002 9.1 1.5002 9.1 1.2002 9C1.8002 11.5 2.1002 13.5 2.2002 14.9C2.3002 16.1 2.4002 17.4 3.0002 19C3.4002 20 3.9002 20.8 4.1002 21.2C4.3002 21.6 5.1002 22.8 6.4002 24C7.1002 24.7 8.1002 25.6 9.5002 26.4C9.3002 22.6 9.1002 18.8 8.9002 14.9C8.8002 13.6 8.7002 12.2 8.7002 10.9C8.6002 10.8 8.5002 10.8 8.4002 10.7C7.7002 10.2 7.2002 9.89999 7.1002 9.89999C6.2002 9.59999 4.9002 9.19999 3.1002 9.39999Z" fill="#333333"/>
<path d="M22.7001 18.0997C22.6001 17.2997 22.6001 16.6997 22.7001 16.3997C22.7001 15.9997 22.6001 15.5997 22.6001 15.2997C22.5001 15.2997 22.4001 15.3997 22.3001 15.4997C21.4001 15.9997 21.6001 17.0997 21.7001 18.2997C21.8001 19.1997 21.9001 20.2997 21.6001 21.2997C20.6001 24.4997 15.8001 26.2997 11.4001 26.3997C11.4001 26.3997 11.4001 26.3997 11.3001 26.3997C10.0001 26.3997 8.6001 25.4997 7.8001 24.9997C4.5001 22.6997 3.2001 18.6997 2.6001 15.6997C2.5001 15.2997 2.5001 14.9997 2.4001 14.4997C2.4001 13.9997 2.3001 13.4997 2.2001 12.7997C2.1001 12.2997 2.1001 12.0997 1.9001 11.7997C1.6001 11.2997 1.2001 10.8997 0.600098 10.6997C0.700098 11.1997 0.800099 11.6997 1.0001 12.1997C1.0001 12.1997 1.0001 12.1997 1.0001 12.2997C1.1001 12.3997 1.1001 12.4997 1.2001 12.9997C1.3001 13.6997 1.4001 14.1997 1.4001 14.6997C1.4001 15.0997 1.5001 15.4997 1.6001 15.8997C2.5001 20.4997 4.4001 23.8997 7.2001 25.7997C8.1001 26.3997 9.7001 27.3997 11.3001 27.3997H11.4001C15.9001 27.2997 21.4001 25.3997 22.5001 21.5997C23.0001 20.2997 22.9001 19.0997 22.7001 18.0997Z" fill="#B36766"/>
<path d="M13.8001 3.09989C14.1001 2.99989 14.4001 2.79989 14.8001 2.59989C15.8001 1.89989 16.8001 1.29989 18.0001 0.999886C19.2001 0.699886 20.5001 0.699889 21.5001 1.29989C22.2001 1.69989 22.8001 2.39989 23.2001 3.09989C23.9001 4.19989 24.4001 5.49989 24.2001 6.79989C24.0001 8.29989 23.4001 9.79989 22.8001 11.0999C22.4001 11.8999 22.1001 12.8999 21.5001 13.4999C20.7001 14.2999 19.4001 14.3999 18.4001 14.4999C16.2001 14.7999 14.0001 14.4999 11.8001 13.9999C9.70014 13.4999 7.50014 12.8999 5.40014 12.1999C5.00014 12.0999 4.70014 11.8999 4.30014 11.6999C3.40014 10.9999 3.20013 9.49989 3.00013 8.49989C2.70013 6.99989 2.90013 5.39989 3.50013 3.99989C4.30013 2.19989 5.90014 0.499883 7.90014 0.199883C9.40014 -0.000116643 10.7001 0.29988 11.7001 1.39988C12.0001 1.79988 12.3001 2.19989 12.6001 2.59989C13.1001 3.09989 13.4001 3.19989 13.8001 3.09989Z" fill="url(#paint0_linear_154_9276)"/>
<defs>
<linearGradient id="paint0_linear_154_9276" x1="30.5017" y1="7.47978" x2="-3.16696" y2="7.60148" gradientUnits="userSpaceOnUse">
<stop stop-color="#94938C"/>
<stop offset="0.2614" stop-color="#EDEBE1"/>
<stop offset="0.7687" stop-color="#EDEBE1"/>
<stop offset="1" stop-color="#94938C"/>
</linearGradient>
</defs>
</svg>
