<svg width="26" height="31" viewBox="0 0 26 31" fill="none" xmlns="http://www.w3.org/2000/svg">
<path d="M11.3 30.0995L15.6 28.0995L15.8 24.9995C14.1 25.8995 10.2 27.8995 8.5 28.7995V29.1995C9.4 29.4995 10.3 29.7995 11.3 30.0995Z" fill="#8C8D92"/>
<path d="M8.5002 27.6998L16.0002 23.7998L16.2002 20.7998C14.7002 21.5998 9.8002 24.1998 8.2002 25.0998L8.5002 27.6998Z" fill="#8C8D92"/>
<path d="M8.00029 23.9996L16.2003 19.6996L16.5003 15.9996C16.5003 13.2996 7.30029 12.9996 7.30029 15.6996L8.00029 23.9996Z" fill="#8C8D92"/>
<path d="M8.3002 25.1997C9.6002 24.4997 10.9002 23.6997 12.3002 22.9997C13.6002 22.2997 15.0002 21.5997 16.2002 20.9997L16.4002 19.6997L8.2002 23.9997C8.2002 24.2997 8.2002 24.7997 8.3002 25.1997Z" fill="#BBBCC1"/>
<path d="M7.3002 21.4995C8.6002 20.7995 9.9002 19.9995 11.3002 19.2995C12.6002 18.5995 14.0002 17.8995 15.2002 17.2995L15.4002 15.9995L7.2002 20.2995C7.3002 20.6995 7.3002 21.0995 7.3002 21.4995Z" fill="#BBBCC1"/>
<path d="M8.40029 28.7994C10.1003 27.8994 14.0003 25.7994 15.7003 24.9994L15.8003 23.8994L8.30029 27.7994L8.40029 28.7994Z" fill="#BBBCC1"/>
<path d="M12.5002 30.1996C12.7002 30.1996 12.9002 30.2996 13.1002 30.2996C14.0002 29.8996 14.7002 29.3996 15.3002 29.1996L15.4002 28.0996L11.2002 30.2996C11.6002 30.1996 12.0002 30.0996 12.5002 30.1996Z" fill="#BBBCC1"/>
<path d="M11.9002 17.1998C14.2198 17.1998 16.1002 16.4387 16.1002 15.4998C16.1002 14.5609 14.2198 13.7998 11.9002 13.7998C9.5806 13.7998 7.7002 14.5609 7.7002 15.4998C7.7002 16.4387 9.5806 17.1998 11.9002 17.1998Z" fill="#527F3F"/>
<path d="M11.9004 16.6998C13.5572 16.6998 14.9004 16.1625 14.9004 15.4998C14.9004 14.8371 13.5572 14.2998 11.9004 14.2998C10.2435 14.2998 8.90039 14.8371 8.90039 15.4998C8.90039 16.1625 10.2435 16.6998 11.9004 16.6998Z" fill="#79B565"/>
<path d="M21.9998 18.9999C21.8998 19.0999 21.5998 19.3999 21.5998 19.8999C21.5998 20.2999 21.6998 20.4999 21.7998 20.5999C21.6998 20.9999 21.6998 21.5999 21.5998 22.2999C21.4998 23.8999 21.5998 23.9999 21.4998 24.5999C21.0998 26.7999 18.0998 27.9999 17.6998 28.1999C16.6998 28.5999 15.8998 28.6999 15.2998 28.6999C15.4998 25.1999 15.6998 21.6999 15.8998 18.1999C16.3998 17.6999 16.8998 17.4999 17.2998 17.3999C18.7998 16.8999 20.5998 17.5999 21.9998 18.9999Z" fill="#333333"/>
<path d="M2.5001 12.5001C2.3001 12.4001 2.0001 12.4001 1.8001 12.3001C1.4001 12.2001 0.900098 12.2001 0.600098 12.1001C1.2001 14.6001 1.5001 16.6001 1.6001 18.0001C1.7001 19.2001 1.8001 20.5001 2.4001 22.1001C2.8001 23.1001 3.3001 23.9001 3.5001 24.3001C3.7001 24.7001 4.5001 25.9001 5.8001 27.1001C6.5001 27.8001 7.5001 28.7001 8.9001 29.5001C8.7001 25.7001 8.5001 21.9001 8.3001 18.0001C8.2001 16.7001 8.1001 15.3001 8.1001 14.0001C8.0001 13.9001 7.9001 13.9001 7.8001 13.8001C7.1001 13.3001 6.6001 13.0001 6.5001 13.0001C5.6001 12.7001 4.3001 12.3001 2.5001 12.5001Z" fill="#333333"/>
<path d="M22.1 21.3002C22 20.6002 22 20.1002 22.1 19.8002C22.1 19.4002 22 18.9002 22 18.5002C21.9 18.5002 21.8 18.6002 21.7 18.6002C20.9 19.2002 21 20.3002 21.1 21.4002C21.2 22.3002 21.3 23.3002 21 24.3002C20 27.5002 15.2 29.3002 10.8 29.4002C9.5 29.5002 8 28.5002 7.2 28.0002C3.9 25.7002 2.6 21.7002 2 18.7002C1.9 18.3002 1.9 18.0002 1.8 17.5002C1.8 17.0002 1.7 16.5002 1.6 15.8002C1.5 15.4002 1.5 15.1002 1.3 14.8002C1.2 14.6002 1 14.4002 0.800003 14.2002H0.699997C0.599997 14.2002 0.6 14.2002 0.5 14.2002C0.4 14.2002 0.300003 14.2002 0.300003 14.2002C0.200003 14.2002 0.1 14.2002 0 14.2002C0.1 14.5002 0.0999969 14.8002 0.199997 15.1002C0.299997 15.2002 0.400002 15.3002 0.400002 15.4002C0.500002 15.5002 0.499998 15.6002 0.599998 16.1002C0.699998 16.8002 0.800003 17.3002 0.800003 17.8002C0.800003 18.2002 0.9 18.6002 1 19.0002C1.9 23.6002 3.8 27.0002 6.6 28.9002C7.5 29.5002 9.1 30.5002 10.7 30.5002H10.8C15.3 30.4002 20.8 28.5002 21.9 24.7002C22.4 23.4002 22.2 22.2002 22.1 21.3002Z" fill="#B36766"/>
<path d="M24.0002 15.3C24.1002 14.1 24.1002 12.9 24.3002 11.7C24.7002 9.8 25.6002 8.2 25.5002 6.2C25.2002 1.4 18.5002 1.09999 15.2002 2.39999C13.8002 2.89999 13.2002 2.4 12.1002 1.7C10.8002 0.899997 9.30019 0.5 7.80019 0.5C6.10019 0.5 4.20018 0.999994 2.70018 1.89999C0.500179 3.19999 0.500184 5.4 0.400184 7.7C0.200184 10.2 0.300181 12.9 1.10018 15.3C1.40018 16 1.70018 16.8 2.20018 17.4C3.00018 18.2 3.90018 18.3 5.00018 18.6C6.40018 18.9 7.80018 19.2 9.20018 19.5C12.0002 20 14.8002 20.5 17.6002 20.6C18.9002 20.7 20.3002 20.5 21.5002 19.9C23.2002 18.8 23.8002 17.1 24.0002 15.3Z" fill="url(#paint0_linear_154_9299)"/>
<defs>
<linearGradient id="paint0_linear_154_9299" x1="29.4851" y1="13.3592" x2="-3.45052" y2="6.95031" gradientUnits="userSpaceOnUse">
<stop stop-color="#94938C"/>
<stop offset="0.2114" stop-color="#EDEBE1"/>
<stop offset="0.847" stop-color="#EDEBE1"/>
<stop offset="1" stop-color="#94938C"/>
</linearGradient>
</defs>
</svg>
