<svg width="28" height="34" viewBox="0 0 28 34" fill="none" xmlns="http://www.w3.org/2000/svg">
<path d="M10.1003 32.8997C10.6003 32.9997 11.2003 33.0997 11.7003 33.1997C11.9003 33.1997 12.0003 33.2997 12.2003 33.2997L16.4003 31.2997L16.6003 28.1997C14.9003 29.0997 11.0003 31.0997 9.30029 31.9997V32.4997C9.60029 32.6997 9.9003 32.7997 10.1003 32.8997Z" fill="#8C8D92"/>
<path d="M9.40009 30.9996L16.9001 27.0996L17.1001 24.0996C15.6001 24.8996 10.7001 27.4996 9.1001 28.3996L9.40009 30.9996Z" fill="#8C8D92"/>
<path d="M8.90019 27.1998L17.1002 22.8998L17.4002 19.1998C17.4002 16.4998 8.2002 16.1998 8.2002 18.8998L8.90019 27.1998Z" fill="#8C8D92"/>
<path d="M9.20009 28.3999C10.5001 27.6999 11.8001 26.8999 13.2001 26.1999C14.5001 25.4999 15.9001 24.7999 17.1001 24.1999L17.3001 22.8999L9.1001 27.1999C9.1001 27.5999 9.20009 27.9999 9.20009 28.3999Z" fill="#BBBCC1"/>
<path d="M8.5004 24.5996C9.8004 23.8996 11.1004 23.0996 12.5004 22.3996C13.8004 21.6996 15.2004 20.9996 16.4004 20.3996L16.6004 19.0996L8.40039 23.3996C8.50039 23.7996 8.5004 24.1996 8.5004 24.5996Z" fill="#BBBCC1"/>
<path d="M9.40028 32.0997C11.1003 31.1997 15.0003 29.0997 16.7003 28.2997L16.8003 27.1997L9.30029 31.0997L9.40028 32.0997Z" fill="#BBBCC1"/>
<path d="M15.6001 32.6998C15.8001 32.5998 16.0001 32.4998 16.2001 32.3998L16.3001 31.2998L12.6001 33.1998C13.6001 32.9998 14.6001 32.7998 15.6001 32.6998Z" fill="#BBBCC1"/>
<path d="M12.9002 20.4C15.2198 20.4 17.1002 19.6389 17.1002 18.7C17.1002 17.7611 15.2198 17 12.9002 17C10.5806 17 8.7002 17.7611 8.7002 18.7C8.7002 19.6389 10.5806 20.4 12.9002 20.4Z" fill="#527F3F"/>
<path d="M12.9004 19.9C14.5572 19.9 15.9004 19.3627 15.9004 18.7C15.9004 18.0373 14.5572 17.5 12.9004 17.5C11.2435 17.5 9.90039 18.0373 9.90039 18.7C9.90039 19.3627 11.2435 19.9 12.9004 19.9Z" fill="#79B565"/>
<path d="M23.2002 21.9C23.1002 22 22.5002 22.5 22.5002 23.2C22.5002 23.5 22.6002 23.8 22.7002 23.9C22.6002 24.3 22.6002 24.9 22.5002 25.6C22.4002 27.2 22.5002 27.3 22.4002 27.9C22.0002 30.1 19.0002 31.3 18.6002 31.5C17.6002 31.9 16.8002 32 16.2002 32C16.4002 28.3 16.6002 24.5 16.9002 20.8C17.3002 20.7 17.8002 20.7 18.3002 20.7C20.4002 20.6 22.1002 21.3 23.2002 21.9Z" fill="#333333"/>
<path d="M3.39999 15.7003C3.19999 15.6003 2.9 15.6003 2.7 15.5003C2.3 15.4003 1.8 15.4003 1.5 15.3003C2.1 17.8003 2.4 19.8003 2.5 21.2003C2.6 22.4003 2.7 23.7003 3.3 25.3003C3.7 26.3003 4.19999 27.1003 4.39999 27.5003C4.59999 27.9003 5.4 29.1003 6.7 30.3003C7.4 31.0003 8.4 31.9003 9.8 32.7003C9.6 28.9003 9.4 25.1003 9.2 21.2003C9.1 19.9003 9 18.5003 9 17.2003C8.9 17.1003 8.8 17.1003 8.7 17.0003C8 16.5003 7.49999 16.2003 7.39999 16.2003C6.49999 16.0003 5.19999 15.6003 3.39999 15.7003Z" fill="#333333"/>
<path d="M23.0003 23.9004C23.0003 23.9004 22.9003 23.9004 23.0003 23.9004C22.9003 23.2004 22.8003 22.5004 22.7003 21.8004C22.7003 21.8004 22.6003 21.8004 22.6003 21.9004C21.8003 22.7004 21.9003 23.7004 22.1003 24.7004C22.2003 25.5004 22.3003 26.5004 22.0003 27.6004C21.0003 30.8004 16.2003 32.6004 11.8003 32.7004C10.5003 32.8004 9.00029 31.8004 8.20029 31.3004C4.90029 29.0004 3.60029 25.0004 3.00029 22.0004C2.90029 21.6004 2.90029 21.3004 2.80029 20.8004C2.80029 20.3004 2.7003 19.8004 2.6003 19.1004V18.9004C2.6003 18.7004 2.50029 18.4004 2.30029 18.1004C2.10029 17.7004 1.80029 17.6004 1.30029 17.4004C1.30029 17.8004 1.30028 18.2004 1.40028 18.6004L1.50029 18.7004C1.60029 18.8004 1.6003 18.9004 1.6003 19.1004C1.6003 19.2004 1.6003 19.2004 1.6003 19.3004C1.7003 20.0004 1.80029 20.5004 1.80029 21.0004C1.80029 21.4004 1.90029 21.8004 2.00029 22.2004C2.90029 26.8004 4.8003 30.2004 7.6003 32.1004C8.5003 32.7004 10.1003 33.7004 11.7003 33.7004H11.8003C16.3003 33.6004 21.8003 31.7004 22.9003 27.9004C23.3003 26.6004 23.1003 25.5004 23.0003 24.6004C23.0003 24.3004 23.0003 24.1004 23.0003 23.9004Z" fill="#B36766"/>
<path d="M18.5999 1.00001C19.8999 1.10001 20.8999 1.50001 21.9999 2.20001C22.2999 2.40001 22.5999 2.6 22.4999 2.9C22.1999 4.2 12.4999 3.20001 12.5999 2.00001C12.6999 1.30001 15.7999 1.10001 16.4999 1.00001C17.2999 1.00001 17.8999 0.900011 18.5999 1.00001Z" fill="#D8D6D0"/>
<path d="M7.39988 0.8002C8.59988 0.7002 9.49989 1.0002 10.5999 1.6002C10.8999 1.8002 11.1999 2.0002 11.1999 2.3002C11.1999 3.6002 2.29988 3.7002 2.19988 2.6002C2.09988 1.9002 4.89989 1.40019 5.59989 1.20019C6.19989 0.900194 6.79988 0.8002 7.39988 0.8002Z" fill="#D8D6D0"/>
<path d="M23.2001 1.8C24.1001 1.9 25.0001 2.30001 25.8001 3.10001C26.8001 4.10001 27.3001 5.6 27.4001 7C27.7001 10 27.1001 13.7 26.4001 16.6C26.2001 17.5 26.1001 19.5 25.5001 20.2C23.5001 22.4 19.1001 21.4 16.4001 21.2C13.4001 21 10.1001 20.9 7.30011 20.2C5.50011 20.1 2.20011 20.5 1.60011 18.1C1.00011 15.4 0.600107 12.6 0.500107 9.8C0.400107 7.7 0.100113 2.50001 3.10011 2.10001C3.50011 2.00001 4.3001 2.50001 4.7001 2.60001C5.6001 2.80001 6.5001 2.8 7.4001 2.5C8.5001 2.2 9.6001 1.7 10.7001 1.2C10.9001 1.1 11.2001 1 11.4001 1C12.0001 1 12.4001 1.49999 12.9001 1.89999C14.8001 3.39999 18.3001 2.6 20.5001 2C21.4001 1.9 22.3001 1.8 23.2001 1.8Z" fill="url(#paint0_linear_154_9326)"/>
<defs>
<linearGradient id="paint0_linear_154_9326" x1="33.0846" y1="11.3071" x2="-5.33729" y2="11.4458" gradientUnits="userSpaceOnUse">
<stop stop-color="#94938C"/>
<stop offset="0.2296" stop-color="#EDEBE1"/>
<stop offset="0.7988" stop-color="#EDEBE1"/>
<stop offset="1" stop-color="#94938C"/>
</linearGradient>
</defs>
</svg>
