<svg width="24" height="29" viewBox="0 0 24 29" fill="none" xmlns="http://www.w3.org/2000/svg">
<path d="M17.6001 16.8998C16.8001 13.7998 16.6001 7.4998 16.4001 1.6998C15.9001 1.6998 15.4001 1.5998 14.9001 1.4998C14.3001 1.3998 13.6001 1.1998 13.0001 0.899803C12.9001 0.899803 12.9001 0.899803 12.8001 0.899803C12.5001 0.899803 12.3001 0.899803 12.0001 0.899803C11.8001 0.999803 11.6001 0.9998 11.5001 1.0998C11.2001 1.1998 11.3001 1.1998 11.5001 1.0998C11.6001 1.0998 11.7001 0.999803 11.9001 0.899803C11.9001 0.899803 12.0001 0.899805 12.0001 0.799805C11.0001 1.2998 9.9001 1.5998 8.8001 1.5998C8.7001 4.7998 8.6001 8.1998 8.2001 10.8998C8.3001 10.8998 8.4001 10.8998 8.6001 10.8998C10.8001 10.8998 10.8001 14.2998 8.6001 14.2998C8.2001 14.2998 7.9001 14.1998 7.6001 13.9998C6.9001 16.2998 5.8001 17.4998 4.2001 16.5998C4.1001 16.5998 4.1001 16.4998 4.0001 16.4998C4.0001 16.5998 3.9001 16.5998 3.8001 16.6998C3.5001 16.8998 3.3001 17.0998 3.1001 17.3998L7.2001 19.7998C7.2001 19.7998 14.7001 22.5998 19.2001 24.2998C19.2001 24.1998 19.2001 24.1998 19.2001 24.0998C19.3001 23.3998 19.3001 22.6998 19.3001 21.9998C19.3001 21.4998 19.5001 21.0998 19.8001 20.7998C20.0001 20.5998 20.2001 20.4998 20.5001 20.3998C19.1001 18.9998 17.7001 17.4998 17.6001 16.8998Z" fill="#B46766"/>
<path d="M14.7004 0.899902C14.3004 0.899902 13.9004 0.899902 13.8004 0.899902C13.3004 0.899902 12.8004 0.899902 12.2004 0.899902C11.6004 1.0999 11.0004 1.0999 10.4004 1.0999L9.10039 1.7999L8.90039 4.8999C10.4004 4.0999 13.8004 2.1999 15.5004 1.1999C15.3004 0.999898 15.0004 0.999902 14.7004 0.899902Z" fill="#8C8D92"/>
<path d="M15.8001 2L8.8001 5.9L8.6001 8.9C10.0001 8.1 14.5001 5.5 16.0001 4.6L15.8001 2Z" fill="#8C8D92"/>
<path d="M16.2003 5.7998L8.60029 10.0998L8.30029 13.7998C8.30029 16.4998 16.8003 16.7998 16.8003 14.0998L16.2003 5.7998Z" fill="#8C8D92"/>
<path d="M16.0005 4.6001C14.8005 5.3001 13.6005 6.1001 12.3005 6.8001C11.1005 7.5001 9.80049 8.2001 8.60049 8.8001L8.50049 10.1001L16.1005 5.8001C16.0005 5.5001 16.0005 5.0001 16.0005 4.6001Z" fill="#BBBCC1"/>
<path d="M16.2002 8.19971C15.0002 8.89971 13.8002 9.69971 12.5002 10.3997C11.3002 11.0997 10.0002 11.7997 8.8002 12.3997L8.7002 13.6997L16.3002 9.39971C16.2002 8.99971 16.2002 8.59971 16.2002 8.19971Z" fill="#BBBCC1"/>
<path d="M15.8004 0.899902C14.2004 1.7999 10.6004 3.8999 9.00039 4.6999L8.90039 5.7999L15.9004 1.8999L15.8004 0.899902Z" fill="#BBBCC1"/>
<path d="M12.6004 16.0001C14.92 16.0001 16.8004 15.239 16.8004 14.3001C16.8004 13.3612 14.92 12.6001 12.6004 12.6001C10.2808 12.6001 8.40039 13.3612 8.40039 14.3001C8.40039 15.239 10.2808 16.0001 12.6004 16.0001Z" fill="#527F3F"/>
<path d="M12.6001 15.5001C14.257 15.5001 15.6001 14.9628 15.6001 14.3001C15.6001 13.6374 14.257 13.1001 12.6001 13.1001C10.9432 13.1001 9.6001 13.6374 9.6001 14.3001C9.6001 14.9628 10.9432 15.5001 12.6001 15.5001Z" fill="#79B565"/>
<path d="M1.1001 14.6997C1.1001 14.2997 1.1001 13.7997 1.4001 13.2997C1.5001 13.0997 1.6001 13.0997 1.7001 12.8997C2.1001 12.2997 1.9001 11.5997 1.9001 10.9997C2.0001 10.2997 2.1001 9.19971 2.5001 7.99971C2.7001 7.29971 2.8001 6.79971 3.1001 6.19971C4.1001 4.29971 5.7001 3.29971 6.5001 2.79971C7.1001 2.39971 8.0001 1.99971 9.3001 1.69971C9.1001 5.39971 8.9001 8.99971 8.6001 12.6997C8.2001 12.9997 7.7001 13.2997 7.2001 13.4997C4.8001 14.6997 2.5001 14.7997 1.1001 14.6997Z" fill="#333333"/>
<path d="M22.0998 18.3997C22.2998 18.4997 22.5998 18.4997 22.7998 18.5997C23.1998 18.6997 23.6998 18.6997 23.9998 18.7997C23.3998 16.2997 23.0998 14.2997 22.9998 12.8997C22.8998 11.6997 22.7998 10.3997 22.1998 8.79971C21.7998 7.79971 21.2998 6.99971 21.0998 6.59971C20.6998 5.89971 19.9998 4.89971 18.7998 3.79971C18.1998 3.19971 17.1998 2.39971 15.7998 1.69971C15.9998 5.39971 16.1998 9.09971 16.3998 12.7997C16.7998 12.9997 17.2998 13.2997 17.7998 13.5997C19.8998 15.0997 21.2998 16.9997 22.0998 18.3997Z" fill="#333333"/>
<path d="M23.7998 14.9999C23.6998 13.8999 23.5998 12.7999 23.3998 11.9999C22.4998 7.39993 20.5998 3.99993 17.7998 1.99993C16.8998 1.39993 15.1998 0.299933 13.6998 0.399933C8.5998 0.499933 3.9998 2.89993 2.5998 6.19993C1.6998 8.19993 1.2998 9.79993 1.3998 10.9999C1.3998 11.1999 1.3998 11.3999 1.3998 11.5999C1.3998 11.9999 1.3998 12.4999 1.2998 12.8999C1.4998 12.8999 1.5998 12.9999 1.7998 12.9999C2.3998 12.2999 2.3998 11.0999 2.3998 10.8999C2.2998 9.89993 2.6998 8.39993 3.4998 6.59993C4.6998 3.69993 8.9998 1.59993 13.6998 1.39993C14.8998 1.39993 16.4998 2.29994 17.2998 2.79994C20.5998 5.09994 21.8998 9.09993 22.4998 12.0999C22.5998 12.8999 22.7998 13.8999 22.8998 14.9999C22.8998 15.3999 22.9998 16.0999 23.4998 16.5999C23.5998 16.6999 23.7998 16.7999 23.8998 16.8999C23.8998 16.3999 23.8998 15.8999 23.9998 15.4999C23.7998 15.3999 23.7998 15.1999 23.7998 14.9999Z" fill="#B36766"/>
<path d="M18.9 13.3998C18 12.7998 16.9 12.6998 15.9 12.4998C14.4 12.1998 12.9 11.8998 11.3 11.7998C7.90004 11.5998 4.10004 12.1998 1.90004 14.9998C1.10004 15.9998 0.500036 17.0998 0.200036 18.3998C-0.0999644 19.7998 0.100037 20.6998 0.600037 21.9998C1.00004 23.1998 1.50004 24.4998 2.20004 25.5998C2.90004 26.7998 4.00004 27.7998 5.50004 27.7998C7.00004 27.7998 8.60004 27.1998 9.60004 25.9998C9.70004 25.8998 9.70004 25.8998 9.80004 25.7998C9.90004 25.7998 10 25.7998 10.1 25.7998C12.2 26.2998 14.3 27.5998 16.2 28.5998C17.1 28.9998 17.6 29.1998 18.6 28.6998C19.8 28.0998 20.9 27.2998 21.7 26.3998C24.2 23.4998 23.3 19.2998 21.4 16.2998C20.8 15.2998 20.1 14.1998 19.2 13.4998C19 13.4998 18.9 13.3998 18.9 13.3998Z" fill="url(#paint0_linear_154_8987)"/>
<defs>
<linearGradient id="paint0_linear_154_8987" x1="28.2513" y1="20.3596" x2="-4.67106" y2="20.4432" gradientUnits="userSpaceOnUse">
<stop stop-color="#94938C"/>
<stop offset="0.2296" stop-color="#EDEBE1"/>
<stop offset="0.7988" stop-color="#EDEBE1"/>
<stop offset="1" stop-color="#94938C"/>
</linearGradient>
</defs>
</svg>
