<svg width="22" height="36" viewBox="0 0 22 36" fill="none" xmlns="http://www.w3.org/2000/svg">
<path d="M10.5 35.5995L14.6 33.5995L14.8 30.4995C13.1 31.3995 9.2 33.3995 7.5 34.2995V34.6995C8.5 35.0995 9.5 35.3995 10.5 35.5995Z" fill="#8C8D92"/>
<path d="M7.59981 33.2999L15.0998 29.3999L15.2998 26.3999C13.7998 27.1999 8.8998 29.7999 7.2998 30.6999L7.59981 33.2999Z" fill="#8C8D92"/>
<path d="M7.09991 29.5997L15.2999 25.2997L15.5999 21.5997C15.5999 18.8997 6.3999 18.5997 6.3999 21.2997L7.09991 29.5997Z" fill="#8C8D92"/>
<path d="M7.29971 30.7998C8.59971 30.0998 9.89971 29.2998 11.2997 28.5998C12.5997 27.8998 13.9997 27.1998 15.1997 26.5998L15.3997 25.2998L7.19971 29.5998C7.29971 29.8998 7.29971 30.2998 7.29971 30.7998Z" fill="#BBBCC1"/>
<path d="M6.70009 26.9995C8.00009 26.2995 9.30009 25.4995 10.7001 24.7995C12.0001 24.0995 13.4001 23.3995 14.6001 22.7995L14.8001 21.4995L6.6001 25.7995C6.6001 26.0995 6.60009 26.5995 6.70009 26.9995Z" fill="#BBBCC1"/>
<path d="M7.49991 34.3995C9.19991 33.4995 13.0999 31.3995 14.7999 30.5995L14.8999 29.4995L7.3999 33.3995L7.49991 34.3995Z" fill="#BBBCC1"/>
<path d="M11.8 35.7996C12 35.7996 12.2 35.7996 12.4 35.7996C13.2 35.3996 13.9 34.9996 14.5 34.6996L14.6 33.5996L11 35.4996C11.2 35.5996 11.5 35.6996 11.8 35.7996Z" fill="#BBBCC1"/>
<path d="M10.9998 22.7999C13.3194 22.7999 15.1998 22.0388 15.1998 21.0999C15.1998 20.161 13.3194 19.3999 10.9998 19.3999C8.68021 19.3999 6.7998 20.161 6.7998 21.0999C6.7998 22.0388 8.68021 22.7999 10.9998 22.7999Z" fill="#527F3F"/>
<path d="M11 22.2999C12.6569 22.2999 14 21.7627 14 21.0999C14 20.4372 12.6569 19.8999 11 19.8999C9.34315 19.8999 8 20.4372 8 21.0999C8 21.7627 9.34315 22.2999 11 22.2999Z" fill="#79B565"/>
<path d="M21.3998 24.1999C20.4998 23.6999 19.5998 23.7999 19.1998 24.1999C19.0998 24.2999 18.9998 24.4999 18.8998 24.7999C18.4998 26.5999 18.7998 27.2999 19.0998 27.6999C19.4998 27.9999 19.8998 27.9999 20.0998 28.3999C20.2998 28.7999 19.9998 29.0999 19.6998 29.8999C19.2998 30.8999 18.5998 32.9999 16.7998 33.6999C16.7998 33.6999 16.7998 33.6999 16.6998 33.6999C15.5998 34.0999 14.7998 34.3999 14.2998 34.5999C14.4998 30.4999 14.7998 26.4999 14.9998 22.3999C15.3998 22.4999 15.8998 22.6999 16.3998 22.7999C18.0998 23.4999 19.7998 23.8999 21.3998 24.1999Z" fill="#333333"/>
<path d="M1.99994 19.0001C1.39994 19.3001 0.599938 19.8001 0.699938 20.1001C0.799938 20.4001 1.99994 20.0001 2.49994 20.6001C2.79994 21.0001 2.69995 21.6001 2.59995 22.2001C2.39995 23.3001 2.49994 24.6001 2.79994 27.0001C2.89994 28.4001 2.99994 29.1001 3.39994 30.1001C3.79994 31.3001 4.39994 32.2001 4.89994 32.7001C5.99994 34.0001 7.19994 34.8001 7.99994 35.1001C7.79994 31.3001 7.59994 27.5001 7.39994 23.6001C7.29994 22.3001 7.19994 20.9001 7.19994 19.6001C7.09994 19.5001 6.99994 19.5001 6.89994 19.4001C6.29994 18.9001 5.69995 18.6001 5.59995 18.6001C4.39995 18.1001 2.29994 18.9001 1.99994 19.0001Z" fill="#333333"/>
<path d="M18.9999 25.1001C18.8999 24.8001 18.8999 24.5001 18.7999 24.1001C18.5999 24.1001 18.3999 24.1001 18.1999 24.0001C17.8999 24.6001 17.9999 25.6001 18.1999 26.7001C18.4999 28.2001 18.7999 30.1001 17.9999 31.6001C16.7999 34.1001 12.8999 35.2001 9.99991 34.9001C9.39991 34.8001 7.8999 34.6001 6.3999 33.5001C3.2999 31.2001 2.99991 26.8001 2.99991 25.9001C2.99991 24.8001 3.09991 23.9001 3.19991 23.0001C3.29991 22.1001 3.39991 21.3001 3.29991 20.8001C2.99991 20.7001 2.69991 20.7001 2.29991 20.6001C2.29991 20.7001 2.29991 20.9001 2.29991 21.0001C2.49991 21.3001 2.39991 22.1001 2.19991 22.9001C2.09991 23.7001 1.8999 24.8001 1.8999 25.9001C1.8999 26.8001 2.19991 31.7001 5.69991 34.3001C7.39991 35.6001 9.19991 35.8001 9.79991 35.9001C10.1999 36.0001 10.5999 36.0001 11.0999 36.0001C14.1999 36.0001 17.5999 34.7001 18.8999 32.1001C19.7999 30.3001 19.3999 28.2001 19.0999 26.6001C19.0999 26.2001 18.9999 25.6001 18.9999 25.1001Z" fill="#B36766"/>
<path d="M18.4 2.09993C18.4 2.09993 21.6 3.69992 20.7 8.19992C19.7 12.6999 20.1 15.2999 20.1 15.2999C20.1 15.2999 19.5 23.0999 14 23.3999C8.49997 23.6999 4.89998 20.4999 4.59998 18.5999C4.29998 16.6999 4.29997 11.1999 3.99997 10.1999C3.69997 9.19992 2.69997 3.09993 5.89997 2.09993C9.09997 1.09993 11.1 0.799924 11.1 0.799924C11.1 0.799924 14.2 -0.100073 18.4 2.09993Z" fill="url(#paint0_linear_154_9386)"/>
<defs>
<linearGradient id="paint0_linear_154_9386" x1="0.179372" y1="12.016" x2="24.083" y2="12.1023" gradientUnits="userSpaceOnUse">
<stop stop-color="#94938C"/>
<stop offset="0.2296" stop-color="#EDEBE1"/>
<stop offset="0.4283" stop-color="#EDEBE1"/>
<stop offset="0.7988" stop-color="#EDEBE1"/>
<stop offset="1" stop-color="#94938C"/>
</linearGradient>
</defs>
</svg>
