<svg width="22" height="40" viewBox="0 0 22 40" fill="none" xmlns="http://www.w3.org/2000/svg">
<path d="M10.6002 39.3993L14.8002 37.3993L15.0002 34.2993C13.3002 35.1993 9.4002 37.1993 7.7002 38.0993L7.8002 38.6993C8.8002 38.9993 9.7002 39.1993 10.6002 39.3993Z" fill="#8C8D92"/>
<path d="M7.90009 36.9996L15.4001 33.0996L15.6001 30.0996C14.1001 30.8996 9.2001 33.4996 7.6001 34.3996L7.90009 36.9996Z" fill="#8C8D92"/>
<path d="M7.40019 33.2994L15.6002 28.9994L15.9002 25.2994C15.9002 22.5994 6.7002 22.2994 6.7002 24.9994L7.40019 33.2994Z" fill="#8C8D92"/>
<path d="M7.60001 34.4995C8.90001 33.7995 10.2 32.9995 11.6 32.2995C12.9 31.5995 14.3 30.8995 15.5 30.2995L15.7 28.9995L7.5 33.2995C7.6 33.5995 7.60001 33.9995 7.60001 34.4995Z" fill="#BBBCC1"/>
<path d="M7.0004 30.6992C8.3004 29.9992 9.6004 29.1992 11.0004 28.4992C12.3004 27.7992 13.7004 27.0992 14.9004 26.4992L15.1004 25.1992L6.90039 29.4992C6.90039 29.7992 6.9004 30.2992 7.0004 30.6992Z" fill="#BBBCC1"/>
<path d="M7.8002 38.0992C9.5002 37.1992 13.4002 35.0992 15.1002 34.2992L15.2002 33.1992L7.7002 37.0992L7.8002 38.0992Z" fill="#BBBCC1"/>
<path d="M10.7002 39.4994C11.3002 39.4994 11.9002 39.5994 12.4002 39.6994C13.3002 39.1994 14.1002 38.7994 14.7002 38.4994L14.8002 37.3994L10.7002 39.4994C10.7002 39.4994 10.6002 39.4994 10.7002 39.4994Z" fill="#BBBCC1"/>
<path d="M11.3001 26.4996C13.6197 26.4996 15.5001 25.7385 15.5001 24.7996C15.5001 23.8607 13.6197 23.0996 11.3001 23.0996C8.9805 23.0996 7.1001 23.8607 7.1001 24.7996C7.1001 25.7385 8.9805 26.4996 11.3001 26.4996Z" fill="#527F3F"/>
<path d="M11.3003 25.9996C12.9571 25.9996 14.3003 25.4623 14.3003 24.7996C14.3003 24.1369 12.9571 23.5996 11.3003 23.5996C9.64344 23.5996 8.30029 24.1369 8.30029 24.7996C8.30029 25.4623 9.64344 25.9996 11.3003 25.9996Z" fill="#79B565"/>
<path d="M19.3001 26.4997C19.2001 26.7997 19.1001 27.1997 19.1001 27.6997C19.1001 28.4997 19.4001 28.9997 19.6001 29.2997C19.7001 29.4997 19.8001 29.7997 19.9001 30.1997C20.2001 31.1997 20.4001 31.6997 20.4001 32.1997C20.4001 32.5997 20.3001 32.9997 20.0001 33.6997C19.6001 34.6997 18.9001 36.7997 17.1001 37.4997C17.1001 37.4997 17.1001 37.4997 17.0001 37.4997C15.9001 37.8997 15.1001 38.1997 14.6001 38.3997C14.8001 34.2997 15.1001 30.2997 15.3001 26.1997C15.7001 26.3997 16.1001 26.4997 16.7001 26.5997C17.8001 26.8997 18.8001 26.6997 19.3001 26.4997Z" fill="#333333"/>
<path d="M2.30023 22.6998C1.70023 22.9998 0.900231 23.4998 1.00023 23.7998C1.10023 24.0998 2.30023 23.6998 2.80023 24.2998C3.10023 24.6998 3.00023 25.2998 2.90023 25.8998C2.70023 26.9998 2.80024 28.2998 3.10024 30.6998C3.20024 32.0998 3.30023 32.7998 3.70023 33.7998C4.10023 34.9998 4.70023 35.8998 5.20023 36.3998C6.30023 37.6998 7.50023 38.4998 8.30023 38.7998C8.10023 34.9998 7.90023 31.1998 7.70023 27.2998C7.60023 25.9998 7.50023 24.5998 7.50023 23.2998C7.40023 23.1998 7.30023 23.1998 7.20023 23.0998C6.60023 22.5998 6.00023 22.2998 5.90023 22.2998C4.70023 21.7998 2.60023 22.5998 2.30023 22.6998Z" fill="#333333"/>
<path d="M20.0003 28.6998C19.9003 28.3998 19.7003 27.8998 19.7003 27.5998C19.6003 27.4998 19.5003 27.3998 19.5003 27.1998C19.4003 26.9998 19.4003 26.8998 19.3003 26.6998C19.1003 26.6998 18.9003 26.7998 18.6003 26.7998C18.5003 27.3998 18.8003 28.0998 19.0003 28.9998C19.4003 30.2998 20.0003 31.8998 19.5003 33.4998C18.6003 36.6998 14.2003 39.1998 10.3003 38.6998C9.80031 38.5998 8.2003 38.3998 6.7003 37.2998C3.5003 34.8998 3.30031 30.1998 3.30031 29.6998C3.30031 28.5998 3.40031 27.6998 3.50031 26.7998C3.60031 25.7998 3.80031 24.8998 3.50031 24.2998H3.4003C3.2003 24.2998 3.1003 24.2998 2.9003 24.2998C2.8003 24.5998 2.8003 24.8998 2.7003 25.1998C2.7003 25.2998 2.7003 25.2998 2.7003 25.3998C2.7003 25.4998 2.7003 25.4998 2.7003 25.5998C2.7003 25.8998 2.60031 26.2998 2.60031 26.6998C2.50031 27.4998 2.3003 28.5998 2.4003 29.6998C2.4003 30.5998 2.7003 35.3998 6.2003 38.0998C7.9003 39.3998 9.70031 39.5998 10.3003 39.6998C10.7003 39.6998 11.0003 39.7998 11.4003 39.7998C15.5003 39.7998 19.6003 37.1998 20.6003 33.7998C21.1003 31.9998 20.4003 30.0998 20.0003 28.6998Z" fill="#B36766"/>
<path d="M21.0005 8.79986C21.0005 8.79986 22.0004 3.59985 19.7004 1.99985C17.4004 0.399853 16.5005 0.999853 16.5005 0.999853C15.6005 1.29985 14.6004 1.49985 13.7004 1.69985C12.1004 2.09985 10.5004 2.59986 8.90045 2.59986C8.60045 2.59986 8.30045 2.59986 7.90045 2.59986C5.50045 2.79986 5.10045 5.39986 4.80045 7.29986C4.30045 9.69986 4.00045 12.0999 3.80045 14.5999C3.60045 16.5999 3.60045 18.5999 3.70045 20.6999C3.80045 22.1999 4.00045 23.7999 4.90045 25.0999C6.10045 26.7999 8.30045 27.5999 10.2004 28.0999C12.7004 28.6999 15.3005 28.7999 17.8005 28.6999C19.2005 28.5999 19.6005 25.5999 19.6005 24.5999C20.1005 19.1999 20.5005 13.9999 21.0005 8.79986Z" fill="url(#paint0_linear_154_9414)"/>
<defs>
<linearGradient id="paint0_linear_154_9414" x1="25.6397" y1="14.6729" x2="-0.400929" y2="14.7777" gradientUnits="userSpaceOnUse">
<stop stop-color="#94938C"/>
<stop offset="0.2296" stop-color="#EDEBE1"/>
<stop offset="0.7988" stop-color="#EDEBE1"/>
<stop offset="1" stop-color="#94938C"/>
</linearGradient>
</defs>
</svg>
