<svg width="19" height="39" viewBox="0 0 19 39" fill="none" xmlns="http://www.w3.org/2000/svg">
<path d="M6.7998 37.0997L6.8998 38.1997C7.6998 38.1997 8.4998 38.2997 9.1998 38.4997L13.8998 36.2997L14.0998 33.1997C12.3998 34.0997 8.4998 36.1997 6.7998 37.0997Z" fill="#8C8D92"/>
<path d="M6.79951 35.9996L14.2995 32.0996L14.4995 29.0996C12.9995 29.8996 8.09951 32.4996 6.49951 33.3996L6.79951 35.9996Z" fill="#8C8D92"/>
<path d="M6.3997 32.1998L14.5997 27.8998L14.8997 24.1998C14.8997 21.4998 5.69971 21.1998 5.69971 23.8998L6.3997 32.1998Z" fill="#8C8D92"/>
<path d="M6.59952 33.3999C7.89952 32.6999 9.19952 31.8999 10.5995 31.1999C11.8995 30.4999 13.2995 29.7999 14.4995 29.1999L14.6995 27.8999L6.49951 32.1999C6.49951 32.5999 6.59952 32.9999 6.59952 33.3999Z" fill="#BBBCC1"/>
<path d="M5.8998 29.5996C7.1998 28.8996 8.4998 28.0996 9.8998 27.3996C11.1998 26.6996 12.5998 25.9996 13.7998 25.3996L13.9998 24.0996L5.7998 28.3996C5.8998 28.7996 5.8998 29.1996 5.8998 29.5996Z" fill="#BBBCC1"/>
<path d="M6.79971 37.0997C8.49971 36.1997 12.3997 34.0997 14.0997 33.2997L14.1997 32.1997L6.69971 36.0997L6.79971 37.0997Z" fill="#BBBCC1"/>
<path d="M11.4996 38.0998C11.9996 37.7998 12.5996 37.5998 13.1996 37.5998C13.2996 37.4998 13.4996 37.4998 13.5996 37.3998L13.6996 36.2998L10.0996 38.1998C10.4996 38.1998 10.9996 38.1998 11.3996 38.2998C11.3996 38.1998 11.4996 38.0998 11.4996 38.0998Z" fill="#BBBCC1"/>
<path d="M10.2996 25.4996C12.6192 25.4996 14.4996 24.7385 14.4996 23.7996C14.4996 22.8607 12.6192 22.0996 10.2996 22.0996C7.98001 22.0996 6.09961 22.8607 6.09961 23.7996C6.09961 24.7385 7.98001 25.4996 10.2996 25.4996Z" fill="#527F3F"/>
<path d="M10.2998 24.9996C11.9567 24.9996 13.2998 24.4623 13.2998 23.7996C13.2998 23.1369 11.9567 22.5996 10.2998 22.5996C8.64295 22.5996 7.2998 23.1369 7.2998 23.7996C7.2998 24.4623 8.64295 24.9996 10.2998 24.9996Z" fill="#79B565"/>
<path d="M16.0997 23.6C15.9997 22.9 15.9997 22.5 16.0997 22.5C16.1997 22.5 16.6997 24.2 17.5997 27.7C17.4997 28 17.4997 28.5 17.4997 29.1C17.5997 30 17.9997 30.3 17.9997 31.1C17.9997 31.5 17.8997 31.9 17.5997 32.6C17.1997 33.6 16.4997 35.7 14.6997 36.4H14.5997C14.1997 36.6 13.8997 36.7 13.6997 36.9C14.0997 32.1 14.4997 27.3 14.9997 22.5C14.9997 22.5 14.4997 23 14.5997 23.3C14.5997 23.7 15.2997 23.9 16.0997 23.6Z" fill="#333333"/>
<path d="M1.29981 22.2998C0.799808 22.2998 0.499799 22.0998 0.399799 22.2998C0.299799 22.4998 0.999799 22.9998 1.3998 23.6998C1.5998 24.0998 1.69981 24.5998 1.59981 26.3998C1.39981 28.7998 1.1998 28.8998 1.1998 30.1998C1.1998 31.3998 1.4998 32.2998 1.6998 32.8998C1.8998 33.6998 2.19981 34.6998 2.79981 35.4998C3.99981 37.2998 5.99981 37.8998 7.09981 38.0998C6.69981 31.9998 6.19981 25.8998 5.79981 19.7998C5.49981 20.6998 5.29981 21.4998 4.99981 22.3998C4.89981 22.2998 4.7998 22.2998 4.6998 22.1998C3.8998 21.6998 3.5998 21.3998 3.3998 21.3998C2.5998 21.2998 2.29981 22.2998 1.29981 22.2998Z" fill="#333333"/>
<path d="M17.4999 26.7999C17.2999 26.1999 17.1 25.5999 17.1 25.0999C16.9 24.7999 16.7999 24.5999 16.6999 24.2999C16.4999 24.2999 16.3999 24.2999 16.1999 24.2999C15.9999 24.9999 16.3 25.9999 16.6 27.0999C17.1 28.6999 17.7 30.5999 17.1 32.4999C16.1 35.6999 11.7 38.1999 7.79995 37.6999C7.09995 37.5999 5.59995 37.3999 4.29995 36.2999C1.49995 33.9999 1.49996 29.2999 1.59996 28.3999C1.59996 27.6999 1.69995 27.0999 1.79995 26.3999C1.99995 25.0999 2.09996 23.8999 1.59996 22.9999C1.39996 22.9999 1.19995 22.9999 0.999949 22.8999C0.999949 23.3999 0.999949 23.9999 0.999949 24.4999C0.999949 24.4999 0.999949 24.4999 0.999949 24.5999C0.999949 25.0999 0.899952 25.5999 0.799952 26.2999C0.699952 26.9999 0.599955 27.5999 0.599955 28.3999C0.599955 29.3999 0.499946 34.4999 3.69995 37.0999C5.19995 38.3999 6.99995 38.5999 7.79995 38.6999C8.19995 38.6999 8.49994 38.7999 8.89994 38.7999C12.8999 38.7999 17.1 36.1999 18.1 32.7999C18.7 30.5999 17.9999 28.4999 17.4999 26.7999Z" fill="#B36766"/>
<path d="M16.6997 0.399901C15.8997 -9.91821e-05 14.6997 0.199904 13.8997 0.199904C12.2997 0.199904 10.7997 0.199904 9.19971 0.199904C7.49971 0.299904 5.0997 0.0999008 3.3997 0.899901C1.8997 1.6999 1.69971 3.59991 1.69971 5.09991C1.89971 11.0999 2.29971 17.3999 4.69971 22.8999C5.39971 24.4999 6.3997 26.1999 7.8997 27.0999C10.2997 28.5999 12.9997 27.6999 14.3997 25.2999C15.4997 23.3999 15.8997 21.1999 16.0997 19.0999C16.2997 17.4999 16.1997 15.7999 16.2997 14.1999C16.3997 12.4999 16.8997 10.7999 17.1997 9.09991C17.5997 6.39991 18.1997 3.59991 17.1997 0.999907C17.1997 0.699907 16.9997 0.499901 16.6997 0.399901Z" fill="url(#paint0_linear_154_9437)"/>
<defs>
<linearGradient id="paint0_linear_154_9437" x1="-0.808993" y1="13.9566" x2="21.1422" y2="14.0359" gradientUnits="userSpaceOnUse">
<stop stop-color="#94938C"/>
<stop offset="0.2296" stop-color="#EDEBE1"/>
<stop offset="0.7988" stop-color="#EDEBE1"/>
<stop offset="1" stop-color="#94938C"/>
</linearGradient>
</defs>
</svg>
