<svg width="19" height="39" viewBox="0 0 19 39" fill="none" xmlns="http://www.w3.org/2000/svg">
<path d="M7.2998 37.3996C8.0998 37.3996 8.89981 37.5996 9.59981 37.7996L13.8998 35.6996L14.0998 32.5996C12.3998 33.4996 8.4998 35.4996 6.7998 36.3996L6.8998 37.2996C6.9998 37.3996 7.0998 37.3996 7.2998 37.3996Z" fill="#8C8D92"/>
<path d="M6.79951 35.4996L14.2995 31.5996L14.4995 28.5996C12.9995 29.3996 8.09951 31.9996 6.49951 32.8996L6.79951 35.4996Z" fill="#8C8D92"/>
<path d="M6.29961 31.6998L14.4996 27.3998L14.7996 23.6998C14.7996 20.9998 5.59961 20.6998 5.59961 23.3998L6.29961 31.6998Z" fill="#8C8D92"/>
<path d="M6.59952 32.8999C7.89952 32.1999 9.19952 31.3999 10.5995 30.6999C11.8995 29.9999 13.2995 29.2999 14.4995 28.6999L14.6995 27.3999L6.49951 31.6999C6.49951 32.0999 6.59952 32.4999 6.59952 32.8999Z" fill="#BBBCC1"/>
<path d="M5.8998 29.0996C7.1998 28.3996 8.4998 27.5996 9.8998 26.8996C11.1998 26.1996 12.5998 25.4996 13.7998 24.8996L13.9998 23.5996L5.7998 27.8996C5.8998 28.2996 5.8998 28.6996 5.8998 29.0996Z" fill="#BBBCC1"/>
<path d="M6.79971 36.5997C8.49971 35.6997 12.3997 33.5997 14.0997 32.7997L14.1997 31.6997L6.69971 35.5997L6.79971 36.5997Z" fill="#BBBCC1"/>
<path d="M10.9996 37.7998C11.0996 37.7998 11.0996 37.7998 11.1996 37.7998C11.5996 37.6998 12.0996 37.5998 12.4996 37.4998H12.5996C12.6996 37.4998 12.6996 37.3998 12.7996 37.3998C13.0996 37.1998 13.4996 36.9998 13.6996 36.8998L13.7996 35.7998L10.0996 37.6998C10.3996 37.6998 10.6996 37.6998 10.9996 37.7998Z" fill="#BBBCC1"/>
<path d="M10.2996 24.9C12.6192 24.9 14.4996 24.1389 14.4996 23.2C14.4996 22.2611 12.6192 21.5 10.2996 21.5C7.98001 21.5 6.09961 22.2611 6.09961 23.2C6.09961 24.1389 7.98001 24.9 10.2996 24.9Z" fill="#527F3F"/>
<path d="M10.2998 24.4C11.9567 24.4 13.2998 23.8627 13.2998 23.2C13.2998 22.5373 11.9567 22 10.2998 22C8.64295 22 7.2998 22.5373 7.2998 23.2C7.2998 23.8627 8.64295 24.4 10.2998 24.4Z" fill="#79B565"/>
<path d="M16.0997 23.1C15.9997 22.4 15.9997 22 16.0997 22C16.1997 22 16.6997 23.7 17.5997 27.2C17.4997 27.5 17.4997 28 17.4997 28.6C17.5997 29.5 17.9997 29.8 17.9997 30.6C17.9997 31 17.8997 31.4 17.5997 32.1C17.1997 33.1 16.4997 35.2 14.6997 35.9H14.5997C14.1997 36.1 13.8997 36.2 13.6997 36.4C14.0997 31.6 14.4997 26.8 14.9997 22C14.9997 22 14.4997 22.5 14.5997 22.8C14.5997 23.2 15.2997 23.4 16.0997 23.1Z" fill="#333333"/>
<path d="M1.29981 21.7002C0.799808 21.7002 0.499799 21.5002 0.399799 21.7002C0.299799 21.9002 0.999799 22.4002 1.3998 23.1002C1.5998 23.5002 1.69981 24.0002 1.59981 25.8002C1.39981 28.2002 1.1998 28.3002 1.1998 29.6002C1.1998 30.8002 1.4998 31.7002 1.6998 32.3002C1.8998 33.1002 2.19981 34.1002 2.79981 34.9002C3.99981 36.7002 5.99981 37.3002 7.09981 37.5002C6.69981 31.4002 6.19981 25.3002 5.79981 19.2002C5.49981 20.1002 5.29981 20.9002 4.99981 21.8002C4.89981 21.7002 4.7998 21.7002 4.6998 21.6002C3.8998 21.1002 3.5998 20.8002 3.3998 20.8002C2.4998 20.8002 2.29981 21.8002 1.29981 21.7002Z" fill="#333333"/>
<path d="M17.5 26.3C17.3 25.5 17 24.7 17 24.2C16.9 23.8 16.9001 23.4 16.8001 22.9C16.6001 22.9 16.5001 22.9 16.3001 22.9C15.6001 23.8 16 25.1 16.5 26.6C17 28.3 17.6 30.2 17 32C16 35.2 11.6 37.7 7.70004 37.2C7.00004 37.1 5.50004 36.9 4.20004 35.8C1.30004 33.4 1.40005 28.8 1.50005 27.9C1.60005 26.9 1.70004 25.9 1.90004 25.1C2.10004 24.1 2.30005 23.2 2.10005 22.5C1.80005 22.5 1.60005 22.5 1.30005 22.5C1.30005 22.7 1.20004 22.8 1.20004 23C1.20004 23.1 1.20004 23.2 1.20004 23.2V23.3C1.20004 23.4 1.20004 23.4 1.20004 23.5C1.20004 23.9 1.10005 24.4 1.00005 24.9C0.800048 25.8 0.600054 26.7 0.600054 27.8C0.500054 28.8 0.500045 33.9 3.70004 36.5C5.20004 37.8 7.00005 38 7.80005 38.1C8.20005 38.1 8.50004 38.2 8.90004 38.2C12.9 38.2 17.0001 35.6 18.1001 32.2C18.7001 30.1 18 28 17.5 26.3Z" fill="#B36766"/>
<path d="M16.7999 0.300105C16.6999 0.200105 16.3999 0.100109 15.8999 0.100109C15.1999 0.000108507 14.3999 0.100109 13.6999 0.100109C10.6999 0.100109 7.69988 0.200099 4.69988 0.200099C4.69988 0.200099 1.79989 0.800102 2.09989 2.5001C2.39989 4.1001 3.39988 24.2001 4.39988 25.5001C5.39988 26.8001 7.59989 31.0001 12.4999 29.7001C17.2999 28.4001 16.3999 17.1001 16.3999 17.1001C16.2999 15.1001 16.7999 12.8001 16.8999 10.7001C17.0999 7.7001 17.2999 4.6001 17.0999 1.5001C16.9999 0.700102 16.9999 0.400105 16.7999 0.300105Z" fill="url(#paint0_linear_154_9465)"/>
<defs>
<linearGradient id="paint0_linear_154_9465" x1="19.3571" y1="14.8871" x2="0.0270933" y2="14.9569" gradientUnits="userSpaceOnUse">
<stop stop-color="#94938C"/>
<stop offset="0.2296" stop-color="#EDEBE1"/>
<stop offset="0.7988" stop-color="#EDEBE1"/>
<stop offset="1" stop-color="#94938C"/>
</linearGradient>
</defs>
</svg>
