<svg width="19" height="40" viewBox="0 0 19 40" fill="none" xmlns="http://www.w3.org/2000/svg">
<path d="M9.29991 38.7998C9.49991 38.7998 9.69991 38.6998 9.99991 38.6998C10.6999 38.4998 11.3999 38.4998 12.0999 38.6998L12.1999 37.5998C10.4999 36.6998 6.5999 34.5998 4.8999 33.7998L5.09991 36.8998L9.29991 38.7998Z" fill="#8C8D92"/>
<path d="M12.0999 36.4L4.59991 32.5L4.3999 29.5C5.8999 30.3 10.7999 32.9 12.3999 33.8L12.0999 36.4Z" fill="#8C8D92"/>
<path d="M12.6001 32.6998L4.40009 28.3998L4.1001 24.6998C4.1001 21.9998 13.3001 21.6998 13.3001 24.3998L12.6001 32.6998Z" fill="#8C8D92"/>
<path d="M12.3002 33.7998C11.0002 33.0998 9.7002 32.2998 8.3002 31.5998C7.0002 30.8998 5.60019 30.1998 4.40019 29.5998L4.2002 28.2998L12.4002 32.5998C12.4002 32.9998 12.4002 33.3998 12.3002 33.7998Z" fill="#BBBCC1"/>
<path d="M12.9999 30.0996C11.6999 29.3996 10.3999 28.5996 8.99991 27.8996C7.69991 27.1996 6.29991 26.4996 5.09991 25.8996L4.8999 24.5996L13.0999 28.8996C13.0999 29.1996 13.0999 29.6996 12.9999 30.0996Z" fill="#BBBCC1"/>
<path d="M12.2003 37.4996C10.5003 36.5996 6.60028 34.4996 4.90028 33.6996L4.80029 32.5996L12.3003 36.4996L12.2003 37.4996Z" fill="#BBBCC1"/>
<path d="M8.7 25.9C11.0196 25.9 12.9 25.1389 12.9 24.2C12.9 23.2611 11.0196 22.5 8.7 22.5C6.3804 22.5 4.5 23.2611 4.5 24.2C4.5 25.1389 6.3804 25.9 8.7 25.9Z" fill="#527F3F"/>
<path d="M8.7002 25.4C10.357 25.4 11.7002 24.8627 11.7002 24.2C11.7002 23.5373 10.357 23 8.7002 23C7.04334 23 5.7002 23.5373 5.7002 24.2C5.7002 24.8627 7.04334 25.4 8.7002 25.4Z" fill="#79B565"/>
<path d="M2.89999 24.1C2.99999 23.4 2.99999 23 2.89999 23C2.79999 23 2.29999 24.7 1.39999 28.2C1.49999 28.5 1.5 29 1.5 29.6C1.4 30.5 1 30.8 1 31.6C1 32 1.09999 32.4 1.39999 33.1C1.79999 34.1 2.5 36.2 4.3 36.9H4.39999C4.79999 37.1 5.1 37.2 5.3 37.4C4.9 32.6 4.5 27.8 4 23C4 23 4.49999 23.5 4.39999 23.8C4.29999 24.1 3.69999 24.4 2.89999 24.1Z" fill="#333333"/>
<path d="M17.6003 22.7002C18.1003 22.7002 18.4003 22.5002 18.5003 22.7002C18.6003 22.9002 17.9003 23.4002 17.5003 24.1002C17.3003 24.5002 17.2003 25.0002 17.3003 26.8002C17.5003 29.2002 17.7003 29.3002 17.7003 30.6002C17.7003 31.8002 17.4003 32.7002 17.2003 33.3002C17.0003 34.1002 16.7003 35.1002 16.1003 35.9002C14.9003 37.7002 12.9003 38.3002 11.8003 38.5002C12.2003 32.4002 12.7003 26.3002 13.1003 20.2002C13.4003 21.1002 13.6003 21.9002 13.9003 22.8002C14.0003 22.7002 14.1003 22.7002 14.2003 22.6002C15.0003 22.1002 15.3003 21.8002 15.5003 21.8002C16.4003 21.7002 16.6003 22.7002 17.6003 22.7002Z" fill="#333333"/>
<path d="M18.0002 25.8999C17.9002 25.2999 17.8002 24.6999 17.8002 24.2999C17.7002 23.9999 17.6002 23.6999 17.4002 23.3999C17.2002 23.3999 17.1002 23.3999 16.9002 23.3999C16.7002 24.0999 16.8002 24.9999 17.0002 26.0999C17.2002 26.8999 17.3002 27.8999 17.4002 28.8999C17.4002 29.7999 17.5002 34.3999 14.7002 36.7999C13.4002 37.8999 11.9002 38.0999 11.1002 38.1999C7.30021 38.6999 2.90019 36.1999 1.90019 32.9999C1.30019 31.1999 1.90019 29.2999 2.40019 27.5999C2.80019 26.1999 3.20021 24.8999 2.60021 23.9999H2.5002C2.4002 23.9999 2.3002 23.9999 2.3002 23.9999C2.2002 24.4999 2.10019 24.9999 1.90019 25.4999C1.80019 25.9999 1.60019 26.6999 1.40019 27.2999C0.900194 28.9999 0.200194 31.1999 0.900194 33.2999C2.00019 36.6999 6.1002 39.2999 10.2002 39.2999C10.6002 39.2999 10.9002 39.2999 11.3002 39.1999C12.1002 39.0999 13.8002 38.8999 15.4002 37.5999C18.6002 34.8999 18.5002 29.8999 18.5002 28.8999C18.4002 27.6999 18.2002 26.6999 18.0002 25.8999Z" fill="#B36766"/>
<path d="M2.10013 1.20001C2.20013 1.10001 2.50013 1.00001 3.00013 1.00001C3.70013 0.900011 4.50012 1.00001 5.20012 1.00001C8.20012 1.00001 11.2001 1.10002 14.2001 1.10002C14.2001 1.10002 17.1001 1.7 16.8001 3.4C16.5001 5.1 15.5001 25.1 14.5001 26.4C13.5001 27.7 11.3001 31.9 6.40012 30.6C1.60012 29.3 2.50013 18 2.50013 18C2.60013 16 2.10013 13.7 2.00013 11.6C1.80013 8.60002 1.60013 5.5 1.80013 2.4C1.90013 1.7 1.90013 1.40001 2.10013 1.20001Z" fill="url(#paint0_linear_154_9684)"/>
<defs>
<linearGradient id="paint0_linear_154_9684" x1="-0.41777" y1="15.8429" x2="18.9122" y2="15.9128" gradientUnits="userSpaceOnUse">
<stop stop-color="#94938C"/>
<stop offset="0.2296" stop-color="#EDEBE1"/>
<stop offset="0.7988" stop-color="#EDEBE1"/>
<stop offset="1" stop-color="#94938C"/>
</linearGradient>
</defs>
</svg>
