<svg width="19" height="39" viewBox="0 0 19 39" fill="none" xmlns="http://www.w3.org/2000/svg">
<path d="M12.0999 38.1998L12.1999 37.0998C10.4999 36.1998 6.5999 34.0998 4.8999 33.2998L5.09991 36.3998L9.7999 38.6998C10.4999 38.2998 11.1999 38.1998 12.0999 38.1998Z" fill="#8C8D92"/>
<path d="M12.0999 35.9L4.59991 32L4.3999 29C5.8999 29.8 10.7999 32.4 12.3999 33.3L12.0999 35.9Z" fill="#8C8D92"/>
<path d="M12.6001 32.1998L4.40009 27.8998L4.1001 24.1998C4.1001 21.4998 13.3001 21.1998 13.3001 23.8998L12.6001 32.1998Z" fill="#8C8D92"/>
<path d="M12.3002 33.3999C11.0002 32.6999 9.70017 31.8999 8.30017 31.1999C7.00017 30.4999 5.60018 29.7999 4.40018 29.1999L4.2002 27.8999L12.4002 32.1999C12.4002 32.4999 12.4002 32.8999 12.3002 33.3999Z" fill="#BBBCC1"/>
<path d="M12.9999 29.5996C11.6999 28.8996 10.3999 28.0996 8.99991 27.3996C7.69991 26.6996 6.29991 25.9996 5.09991 25.3996L4.8999 24.0996L13.0999 28.3996C13.0999 28.7996 12.9999 29.1996 12.9999 29.5996Z" fill="#BBBCC1"/>
<path d="M12.2003 36.9996C10.5003 36.0996 6.6003 33.9996 4.9003 33.1996L4.80029 32.0996L12.3003 35.9996L12.2003 36.9996Z" fill="#BBBCC1"/>
<path d="M5.90018 37.6998C6.30018 37.6998 6.8002 37.7998 7.2002 37.8998C7.4002 37.8998 7.60017 37.8998 7.80017 37.8998C8.00017 37.8998 8.10017 37.8998 8.30017 37.8998L5.2002 36.2998L5.30017 37.3998C5.50017 37.3998 5.70018 37.4998 5.90018 37.6998Z" fill="#BBBCC1"/>
<path d="M8.59991 25.4C10.9195 25.4 12.7999 24.6389 12.7999 23.7C12.7999 22.7611 10.9195 22 8.59991 22C6.28032 22 4.3999 22.7611 4.3999 23.7C4.3999 24.6389 6.28032 25.4 8.59991 25.4Z" fill="#527F3F"/>
<path d="M8.6001 24.9C10.257 24.9 11.6001 24.3627 11.6001 23.7C11.6001 23.0373 10.257 22.5 8.6001 22.5C6.94324 22.5 5.6001 23.0373 5.6001 23.7C5.6001 24.3627 6.94324 24.9 8.6001 24.9Z" fill="#79B565"/>
<path d="M2.89999 23.6C2.99999 22.9 2.99999 22.5 2.89999 22.5C2.79999 22.5 2.29999 24.2 1.39999 27.7C1.49999 28 1.5 28.5 1.5 29.1C1.4 30 1 30.3 1 31.1C1 31.5 1.09999 31.9 1.39999 32.6C1.79999 33.6 2.49999 35.7 4.29999 36.4H4.39999C4.79999 36.6 5.09999 36.7 5.29999 36.9C4.89999 32.1 4.5 27.3 4 22.5C4 22.5 4.49999 23 4.39999 23.3C4.29999 23.6 3.69999 23.9 2.89999 23.6Z" fill="#333333"/>
<path d="M17.6003 22.1997C18.1003 22.1997 18.4003 21.9997 18.5003 22.1997C18.6003 22.3997 17.9003 22.8997 17.5003 23.5997C17.3003 23.9997 17.2003 24.4997 17.3003 26.2997C17.5003 28.6997 17.7003 28.7997 17.7003 30.0997C17.7003 31.2997 17.4003 32.1997 17.2003 32.7997C17.0003 33.5997 16.7003 34.5997 16.1003 35.3997C14.9003 37.1997 12.9003 37.7997 11.8003 37.9997C12.2003 31.8997 12.7003 25.7997 13.1003 19.6997C13.4003 20.5997 13.6003 21.3997 13.9003 22.2997C14.0003 22.1997 14.1003 22.1997 14.2003 22.0997C15.0003 21.5997 15.3003 21.2997 15.5003 21.2997C16.4003 21.1997 16.6003 22.1997 17.6003 22.1997Z" fill="#333333"/>
<path d="M18.2001 26.2996C18.1001 25.6996 18.0001 25.0996 18.0001 24.5996C17.9001 24.0996 17.8001 23.5996 17.7001 23.0996C17.6001 23.0996 17.4001 23.0996 17.3001 23.0996C16.8001 23.9996 17.0001 25.1996 17.1001 26.4996C17.2001 27.0996 17.3001 27.7996 17.3001 28.4996C17.3001 29.0996 17.4001 33.9996 14.6001 36.3996C13.3001 37.4996 11.8001 37.6996 11.0001 37.7996C7.20011 38.2996 2.8001 35.7996 1.8001 32.5996C1.2001 30.6996 1.8001 28.7996 2.3001 27.1996C2.6001 26.1996 2.90012 25.1996 2.70012 24.4996H2.00011C1.90011 24.7996 1.9001 25.0996 1.8001 25.2996C1.8001 25.3996 1.70012 25.4996 1.70012 25.4996C1.60012 25.8996 1.5001 26.3996 1.3001 26.7996C0.800096 28.4996 0.100096 30.5996 0.800096 32.7996C1.8001 36.1996 6.00011 38.7996 10.0001 38.7996C10.4001 38.7996 10.7001 38.7996 11.1001 38.6996C11.9001 38.5996 13.6001 38.3996 15.2001 37.0996C18.4001 34.4996 18.3001 29.3996 18.3001 28.3996C18.4001 27.5996 18.3001 26.8996 18.2001 26.2996Z" fill="#B36766"/>
<path d="M2.20009 0.299803C3.00009 -0.100197 4.20007 0.0998062 5.00007 0.0998062C6.60007 0.0998062 8.10009 0.0998062 9.70009 0.0998062C11.4001 0.199806 13.8001 -0.000196874 15.5001 0.799803C17.0001 1.5998 17.2001 3.4998 17.2001 4.9998C17.0001 10.9998 16.6001 17.2998 14.2001 22.7998C13.5001 24.3998 12.5001 26.0998 11.0001 26.9998C8.60007 28.4998 5.90007 27.5998 4.50007 25.1998C3.40007 23.2998 3.00006 21.0998 2.80006 18.9998C2.60006 17.3998 2.70008 15.6998 2.60008 14.0998C2.50008 12.3998 2.00009 10.6998 1.70009 8.9998C1.30009 6.2998 0.700087 3.49979 1.70009 0.899794C1.70009 0.699794 1.90009 0.499803 2.20009 0.299803Z" fill="url(#paint0_linear_154_9656)"/>
<defs>
<linearGradient id="paint0_linear_154_9656" x1="19.7481" y1="13.9124" x2="-2.20311" y2="13.9917" gradientUnits="userSpaceOnUse">
<stop stop-color="#94938C"/>
<stop offset="0.2296" stop-color="#EDEBE1"/>
<stop offset="0.7988" stop-color="#EDEBE1"/>
<stop offset="1" stop-color="#94938C"/>
</linearGradient>
</defs>
</svg>
