<svg width="21" height="40" viewBox="0 0 21 40" fill="none" xmlns="http://www.w3.org/2000/svg">
<path d="M14.0999 38.8003L14.1999 38.1003C12.4999 37.2003 8.5999 35.1003 6.8999 34.3003L7.09991 37.4003L11.4999 39.5003C12.1999 39.1003 13.0999 38.9003 14.0999 38.8003Z" fill="#8C8D92"/>
<path d="M14.0999 37.0001L6.59991 33.1001L6.3999 30.1001C7.8999 30.9001 12.7999 33.5001 14.3999 34.4001L14.0999 37.0001Z" fill="#8C8D92"/>
<path d="M14.5 33.2003L6.29999 28.9003L6 25.2003C6 22.5003 15.2 22.2003 15.2 24.9003L14.5 33.2003Z" fill="#8C8D92"/>
<path d="M14.3002 34.4004C13.0002 33.7004 11.7002 32.9004 10.3002 32.2004C9.00017 31.5004 7.60018 30.8004 6.40018 30.2004L6.2002 28.9004L14.4002 33.2004C14.4002 33.6004 14.3002 34.0004 14.3002 34.4004Z" fill="#BBBCC1"/>
<path d="M14.9999 30.6001C13.6999 29.9001 12.3999 29.1001 10.9999 28.4001C9.69991 27.7001 8.29991 27.0001 7.09991 26.4001L6.8999 25.1001L15.0999 29.4001C14.9999 29.8001 14.9999 30.2001 14.9999 30.6001Z" fill="#BBBCC1"/>
<path d="M14.1002 38.1002C12.4002 37.2002 8.50017 35.1002 6.80017 34.3002L6.7002 33.2002L14.2002 37.1002L14.1002 38.1002Z" fill="#BBBCC1"/>
<path d="M9.2001 39.4003C9.3001 39.4003 9.40009 39.4003 9.40009 39.4003C9.70009 39.4003 9.9001 39.4003 10.2001 39.4003C10.4001 39.3003 10.7001 39.3003 10.9001 39.2003L7.1001 37.3003L7.2001 38.4003C7.8001 38.6003 8.4001 39.0003 9.2001 39.4003Z" fill="#BBBCC1"/>
<path d="M10.5999 26.5001C12.9195 26.5001 14.7999 25.739 14.7999 24.8001C14.7999 23.8612 12.9195 23.1001 10.5999 23.1001C8.28032 23.1001 6.3999 23.8612 6.3999 24.8001C6.3999 25.739 8.28032 26.5001 10.5999 26.5001Z" fill="#527F3F"/>
<path d="M10.6001 26.0001C12.257 26.0001 13.6001 25.4628 13.6001 24.8001C13.6001 24.1374 12.257 23.6001 10.6001 23.6001C8.94324 23.6001 7.6001 24.1374 7.6001 24.8001C7.6001 25.4628 8.94324 26.0001 10.6001 26.0001Z" fill="#79B565"/>
<path d="M2.60001 26.5002C2.70001 26.8002 2.79999 27.2002 2.79999 27.7002C2.79999 28.5002 2.49999 29.0002 2.29999 29.3002C2.19999 29.5002 2.1 29.8002 2 30.2002C1.7 31.2002 1.5 31.7002 1.5 32.2002C1.5 32.6002 1.59999 33.0002 1.89999 33.7002C2.29999 34.7002 2.99999 36.8002 4.79999 37.5002C4.79999 37.5002 4.79999 37.5002 4.89999 37.5002C5.99999 37.9002 6.79999 38.2002 7.29999 38.4002C7.09999 34.3002 6.80001 30.3002 6.60001 26.2002C6.20001 26.4002 5.80001 26.5002 5.20001 26.6002C4.10001 26.8002 3.10001 26.6002 2.60001 26.5002Z" fill="#333333"/>
<path d="M19.6001 22.7003C20.2001 23.0003 21.0001 23.5003 20.9001 23.8003C20.8001 24.1003 19.6001 23.7003 19.1001 24.3003C18.8001 24.7003 18.9001 25.3003 19.0001 25.9003C19.2001 27.0003 19.1001 28.3003 18.8001 30.7003C18.7001 32.1003 18.6001 32.8003 18.2001 33.8003C17.8001 35.0003 17.2001 35.9003 16.7001 36.4003C15.6001 37.7003 14.4001 38.5003 13.6001 38.8003C13.8001 35.0003 14.0001 31.2003 14.2001 27.3003C14.3001 26.0003 14.4001 24.6003 14.4001 23.3003C14.5001 23.2003 14.6001 23.2003 14.7001 23.1003C15.3001 22.6003 15.9001 22.3003 16.0001 22.3003C17.3001 21.8003 19.3001 22.6003 19.6001 22.7003Z" fill="#333333"/>
<path d="M19.2001 25.5C19.2001 25.4 19.1001 25.3 19.1001 25.2C19.1001 25 19.1001 24.7 19.1001 24.5C18.8001 24.5 18.6001 24.5 18.3001 24.6C18.1001 25.2 18.2001 26 18.4001 26.9C18.5001 27.7 18.7001 28.7 18.6001 29.8C18.6001 30.7 18.3001 35.1 15.2001 37.4C13.7001 38.5 12.1001 38.7 11.6001 38.8C7.70014 39.3 3.30013 36.8 2.40013 33.6C2.00013 32.1 2.50013 30.5 2.90013 29.1C3.20013 28.2 3.50012 27.3 3.30012 26.7C3.20012 26.7 3.10013 26.7 3.00013 26.7H2.90013C2.70013 26.7 2.60013 26.7 2.40013 26.7C2.40013 26.8 2.40013 26.9 2.40013 27C2.50013 27.3 2.20013 28.1 2.00013 28.7C1.50013 30.1 0.900132 31.9 1.50013 33.7C2.50013 37.1 6.60014 39.7 10.7001 39.7C11.1001 39.7 11.4001 39.7 11.8001 39.6C12.4001 39.5 14.2001 39.3 15.9001 38C19.4001 35.4 19.7001 30.6 19.7001 29.6C19.7001 28.5 19.6001 27.4 19.5001 26.6C19.3001 26.3 19.3001 25.9 19.2001 25.5Z" fill="#B36766"/>
<path d="M0.899919 8.70025C0.899919 8.70025 -0.100063 3.50024 2.19994 1.90024C4.49994 0.300243 5.39992 0.900243 5.39992 0.900243C6.29992 1.20024 7.29994 1.40026 8.19994 1.60026C9.79994 2.00026 11.3999 2.50025 12.9999 2.50025C13.2999 2.50025 13.5999 2.50025 13.9999 2.50025C16.3999 2.70025 16.7999 5.30025 17.0999 7.20025C17.5999 9.60025 17.8999 12.0002 18.0999 14.5002C18.2999 16.5002 18.2999 18.5003 18.1999 20.6003C18.0999 22.1003 17.8999 23.7002 16.9999 25.0002C15.7999 26.7002 13.5999 27.5002 11.6999 28.0002C9.19994 28.6002 6.59993 28.7003 4.09993 28.6003C2.69993 28.5003 2.29991 25.5002 2.29991 24.5002C1.79991 19.1002 1.39992 13.9002 0.899919 8.70025Z" fill="url(#paint0_linear_154_9628)"/>
<defs>
<linearGradient id="paint0_linear_154_9628" x1="-3.69992" y1="14.6292" x2="22.3406" y2="14.7341" gradientUnits="userSpaceOnUse">
<stop stop-color="#94938C"/>
<stop offset="0.2296" stop-color="#EDEBE1"/>
<stop offset="0.7988" stop-color="#EDEBE1"/>
<stop offset="1" stop-color="#94938C"/>
</linearGradient>
</defs>
</svg>
