<svg width="22" height="37" viewBox="0 0 22 37" fill="none" xmlns="http://www.w3.org/2000/svg">
<path d="M14.4002 34.9996L14.5002 34.3996C12.8002 33.4996 8.9002 31.3996 7.2002 30.5996L7.40018 33.6996L11.6002 35.6996C12.3002 35.1996 13.3002 34.9996 14.4002 34.9996Z" fill="#8C8D92"/>
<path d="M14.4002 33.2994L6.90018 29.3994L6.7002 26.3994C8.2002 27.1994 13.1002 29.7994 14.7002 30.6994L14.4002 33.2994Z" fill="#8C8D92"/>
<path d="M14.8003 29.4996L6.60031 25.1996L6.30029 21.4996C6.30029 18.7996 15.5003 18.4996 15.5003 21.1996L14.8003 29.4996Z" fill="#8C8D92"/>
<path d="M14.6005 30.6997C13.3005 29.9997 12.0005 29.1997 10.6005 28.4997C9.30049 27.7997 7.9005 27.0997 6.7005 26.4997L6.50049 25.1997L14.7005 29.4997C14.7005 29.8997 14.6005 30.2997 14.6005 30.6997Z" fill="#BBBCC1"/>
<path d="M15.3002 26.8994C14.0002 26.1994 12.7002 25.3994 11.3002 24.6994C10.0002 23.9994 8.60018 23.2994 7.40018 22.6994L7.2002 21.3994L15.4002 25.6994C15.3002 26.0994 15.3002 26.4994 15.3002 26.8994Z" fill="#BBBCC1"/>
<path d="M14.4005 34.3995C12.7005 33.4995 8.80049 31.3995 7.10049 30.5995L7.00049 29.4995L14.5005 33.3995L14.4005 34.3995Z" fill="#BBBCC1"/>
<path d="M9.50049 35.6996C10.0005 35.4996 10.5005 35.3996 11.0005 35.3996L7.50049 33.5996L7.60049 34.6996C8.10049 34.8996 8.70049 35.2996 9.50049 35.6996Z" fill="#BBBCC1"/>
<path d="M10.9002 22.7994C13.2198 22.7994 15.1002 22.0383 15.1002 21.0994C15.1002 20.1605 13.2198 19.3994 10.9002 19.3994C8.58058 19.3994 6.7002 20.1605 6.7002 21.0994C6.7002 22.0383 8.58058 22.7994 10.9002 22.7994Z" fill="#527F3F"/>
<path d="M10.9004 22.2994C12.5572 22.2994 13.9004 21.7622 13.9004 21.0994C13.9004 20.4367 12.5572 19.8994 10.9004 19.8994C9.24354 19.8994 7.90039 20.4367 7.90039 21.0994C7.90039 21.7622 9.24354 22.2994 10.9004 22.2994Z" fill="#79B565"/>
<path d="M0.600098 24.1999C1.5001 23.6999 2.40008 23.7999 2.80008 24.1999C2.90008 24.2999 3.0001 24.4999 3.1001 24.7999C3.5001 26.5999 3.20009 27.2999 2.90009 27.6999C2.50009 27.9999 2.10009 27.9999 1.90009 28.3999C1.70009 28.7999 2.00008 29.0999 2.30008 29.8999C2.70008 30.8999 3.4001 32.9999 5.2001 33.6999C5.2001 33.6999 5.20008 33.6999 5.30008 33.6999C6.40008 34.0999 7.2001 34.3999 7.7001 34.5999C7.5001 30.4999 7.20009 26.4999 7.00009 22.3999C6.60009 22.4999 6.1001 22.6999 5.6001 22.7999C3.8001 23.4999 2.1001 23.8999 0.600098 24.1999Z" fill="#333333"/>
<path d="M19.8999 18.9996C20.4999 19.2996 21.2999 19.7996 21.1999 20.0996C21.0999 20.3996 19.8999 19.9996 19.3999 20.5996C19.0999 20.9996 19.1999 21.5996 19.2999 22.1996C19.4999 23.2996 19.3999 24.5996 19.0999 26.9996C18.9999 28.3996 18.8999 29.0996 18.4999 30.0996C18.0999 31.2996 17.4999 32.1996 16.9999 32.6996C15.8999 33.9996 14.6999 34.7996 13.8999 35.0996C14.0999 31.2996 14.2999 27.4996 14.4999 23.5996C14.5999 22.2996 14.6999 20.8996 14.6999 19.5996C14.7999 19.4996 14.8999 19.4996 14.9999 19.3996C15.5999 18.8996 16.1999 18.5996 16.2999 18.5996C17.4999 18.0996 19.5999 18.8996 19.8999 18.9996Z" fill="#333333"/>
<path d="M19.5001 21.5999C19.4001 21.3999 19.4 21.0999 19.3 20.8999C19.1 20.9999 18.8001 20.9999 18.5001 20.9999C18.4001 21.5999 18.5001 22.2999 18.6001 23.0999C18.7001 23.8999 18.9 24.8999 18.8 25.9999C18.8 26.4999 18.6001 31.1999 15.4001 33.5999C13.9001 34.6999 12.4 34.8999 11.8 34.9999C8.90004 35.3999 5.00004 34.1999 3.80004 31.6999C3.10004 30.1999 3.40006 28.2999 3.60006 26.7999C3.80006 25.5999 4.00006 24.4999 3.50006 23.8999C3.30006 23.8999 3.10005 23.8999 2.90005 23.9999V25.0999C2.90005 25.1999 2.90005 25.2999 2.90005 25.2999C2.90005 25.6999 2.80007 26.1999 2.70007 26.6999C2.40007 28.3999 2.10005 30.3999 2.90005 32.1999C4.10005 34.7999 7.60007 36.0999 10.7001 36.0999C11.1001 36.0999 11.6001 36.0999 12.0001 35.9999C12.6001 35.8999 14.4001 35.6999 16.1001 34.3999C19.6001 31.7999 19.9 26.9999 19.9 25.9999C19.9 24.7999 19.8001 23.7999 19.6001 22.9999C19.6001 22.4999 19.5001 21.9999 19.5001 21.5999Z" fill="#B36766"/>
<path d="M3.60024 2.09983C3.60024 2.09983 0.400223 3.69982 1.30022 8.19982C2.30022 12.6998 1.90023 15.2998 1.90023 15.2998C1.90023 15.2998 2.50024 23.0998 8.00024 23.3998C13.5002 23.6998 17.1002 20.4998 17.4002 18.5998C17.7002 16.6998 17.7002 11.1998 18.0002 10.1998C18.3002 9.19982 19.3002 3.09983 16.1002 2.09983C12.9002 1.09983 10.9002 0.799828 10.9002 0.799828C10.9002 0.799828 7.80024 -0.200169 3.60024 2.09983Z" fill="url(#paint0_linear_154_9600)"/>
<defs>
<linearGradient id="paint0_linear_154_9600" x1="21.7599" y1="11.9718" x2="-2.14358" y2="12.0581" gradientUnits="userSpaceOnUse">
<stop stop-color="#94938C"/>
<stop offset="0.2296" stop-color="#EDEBE1"/>
<stop offset="0.4283" stop-color="#EDEBE1"/>
<stop offset="0.7988" stop-color="#EDEBE1"/>
<stop offset="1" stop-color="#94938C"/>
</linearGradient>
</defs>
</svg>
