<svg width="21" height="34" viewBox="0 0 21 34" fill="none" xmlns="http://www.w3.org/2000/svg">
<path d="M10.0999 33.3999C10.3999 33.3999 10.5999 33.2999 10.8999 33.2999C11.1999 33.2999 11.4999 33.1999 11.7999 33.1999C12.1999 33.0999 12.5999 32.9999 13.0999 32.8999L13.1999 32.1999C11.4999 31.2999 7.5999 29.1999 5.8999 28.3999L6.09991 31.4999L10.0999 33.3999Z" fill="#8C8D92"/>
<path d="M12.9998 31.1002L5.49982 27.2002L5.2998 24.2002C6.7998 25.0002 11.6998 27.6002 13.2998 28.5002L12.9998 31.1002Z" fill="#8C8D92"/>
<path d="M13.5 27.4L5.29999 23.1L5 19.4C5 16.7 14.2 16.4 14.2 19.1L13.5 27.4Z" fill="#8C8D92"/>
<path d="M13.3002 28.6001C12.0002 27.9001 10.7002 27.1001 9.30017 26.4001C8.00017 25.7001 6.60018 25.0001 5.40018 24.4001L5.2002 23.1001L13.4002 27.4001C13.3002 27.7001 13.3002 28.2001 13.3002 28.6001Z" fill="#BBBCC1"/>
<path d="M13.8998 24.7998C12.5998 24.0998 11.2998 23.2998 9.89981 22.5998C8.59981 21.8998 7.19982 21.1998 5.99982 20.5998L5.7998 19.2998L13.9998 23.5998C13.9998 23.9998 13.9998 24.3998 13.8998 24.7998Z" fill="#BBBCC1"/>
<path d="M13.1002 32.1998C11.4002 31.2998 7.50017 29.1998 5.80017 28.3998L5.7002 27.2998L13.2002 31.1998L13.1002 32.1998Z" fill="#BBBCC1"/>
<path d="M7.40018 33.0999C8.20018 33.0999 8.9002 33.1999 9.7002 33.1999L6.2002 31.3999L6.30017 32.4999C6.50017 32.6999 6.90018 32.8999 7.40018 33.0999Z" fill="#BBBCC1"/>
<path d="M9.59991 20.6002C11.9195 20.6002 13.7999 19.8391 13.7999 18.9002C13.7999 17.9613 11.9195 17.2002 9.59991 17.2002C7.28032 17.2002 5.3999 17.9613 5.3999 18.9002C5.3999 19.8391 7.28032 20.6002 9.59991 20.6002Z" fill="#527F3F"/>
<path d="M9.6001 20.1002C11.257 20.1002 12.6001 19.5629 12.6001 18.9002C12.6001 18.2375 11.257 17.7002 9.6001 17.7002C7.94324 17.7002 6.6001 18.2375 6.6001 18.9002C6.6001 19.5629 7.94324 20.1002 9.6001 20.1002Z" fill="#79B565"/>
<path d="M0.20002 21.8002C0.10002 22.2002 1.38432e-05 22.4002 0.100014 22.4002C0.100014 22.4002 0.200008 22.1002 0.500008 21.5002C0.700008 21.4002 1.20002 21.2002 1.70002 21.4002C2.30002 21.6002 2.60002 22.2002 2.70002 22.4002C3.20002 23.4002 2.60001 24.0002 2.60001 25.8002C2.60001 27.5002 3.2 28.7002 3.3 28.9002C3.6 29.4002 3.9 29.8002 4.3 30.3002C5 31.2002 5.8 31.9002 6.3 32.4002C6.1 28.3002 5.80001 24.3002 5.60001 20.2002C5.20001 20.3002 4.70002 20.5002 4.20002 20.6002C2.80002 21.2002 1.50002 21.6002 0.20002 21.8002Z" fill="#333333"/>
<path d="M18.5998 16.7999C18.7998 16.8999 19.4998 17.1999 19.8998 17.8999C20.1998 18.4999 20.2998 19.0999 20.2998 19.2999C20.2998 19.7999 20.1998 20.4999 20.0998 21.3999C19.7998 23.2999 19.6998 24.2999 19.2998 25.4999C18.8998 26.4999 18.3998 27.2999 18.1998 27.6999C17.9998 28.0999 17.1998 29.2999 15.8998 30.4999C15.1998 31.1999 14.1998 32.0999 12.7998 32.8999C12.9998 29.0999 13.1998 25.2999 13.3998 21.3999C13.4998 20.0999 13.5998 18.6999 13.5998 17.3999C13.6998 17.2999 13.7998 17.2999 13.8998 17.1999C14.4998 16.6999 15.0998 16.3999 15.1998 16.3999C16.1998 15.8999 18.2998 16.6999 18.5998 16.7999Z" fill="#333333"/>
<path d="M20.3002 20.0003C20.2002 19.9003 20.2002 19.7003 20.2002 19.6003C20.2002 19.5003 20.2002 19.4003 20.2002 19.3003C19.9002 19.3003 19.6002 19.3003 19.3002 19.3003C19.2002 19.9003 19.3002 20.6003 19.3002 21.4003C19.3002 21.7003 19.4002 22.0003 19.4002 22.3003C19.5002 26.0003 16.9002 29.7003 14.1002 31.5003C13.3002 32.0003 12.1002 32.8003 10.6002 32.9003C7.60021 33.1003 4.30019 30.8003 3.30019 28.0003C2.90019 26.7003 3.00021 25.5003 3.10021 24.4003C3.20021 23.3003 3.30021 22.2003 2.60021 21.6003C2.40021 21.6003 2.30021 21.7003 2.10021 21.7003C2.10021 22.1003 2.10021 22.4003 2.10021 22.8003C2.20021 23.2003 2.10021 23.7003 2.10021 24.4003C2.00021 25.5003 1.9002 27.0003 2.4002 28.4003C3.5002 31.5003 7.00019 34.0003 10.3002 34.0003C10.4002 34.0003 10.5002 34.0003 10.7002 34.0003C12.6002 33.9003 13.9002 33.0003 14.8002 32.4003C17.7002 30.5003 20.6002 26.4003 20.4002 22.3003C20.4002 22.0003 20.4002 21.7003 20.3002 21.4003C20.3002 21.0003 20.3002 20.5003 20.3002 20.0003Z" fill="#B36766"/>
<path d="M13.1999 0.500133C12.4999 0.200133 11.6999 0.200127 10.6999 0.400127C10.3999 0.500127 10.0999 0.600136 9.99989 0.800136C9.29989 1.90014 14.9999 4.00014 15.5999 3.10014C15.9999 2.50014 14.4999 1.40013 14.1999 1.20013C13.8999 0.90013 13.5999 0.600133 13.1999 0.500133Z" fill="#D8D6D0"/>
<path d="M3.40016 0.700194C3.10016 0.800194 2.80017 0.900197 2.70017 1.0002C2.20017 1.5002 1.60016 2.00019 1.40016 2.70019C1.30016 3.00019 1.30016 3.3002 1.50016 3.5002C1.60016 3.6002 1.70015 3.6002 1.80015 3.6002C2.90015 3.7002 4.20017 3.00019 5.20017 2.40019C5.60017 2.20019 7.10016 1.5002 7.00016 1.0002C6.90016 0.000196815 4.60016 0.300194 3.40016 0.700194Z" fill="#D8D6D0"/>
<path d="M1.40006 2.70009C1.40006 2.70009 -0.899943 4.3001 0.400057 8.5001C1.00006 14.3001 3.00006 20.1001 3.00006 20.1001C3.00006 20.1001 3.60008 21.1001 8.20008 21.1001C12.8001 21.1001 14.0001 20.5001 14.7001 19.2001C15.3001 17.9001 17.0001 5.6001 17.0001 5.6001C17.0001 5.6001 16.7001 2.70009 15.4001 2.40009C14.1001 2.10009 12.8001 1.8001 12.5001 1.8001C12.2001 1.8001 9.30006 -0.0999076 8.00006 0.200092C6.60006 0.500092 3.40006 3.10009 1.40006 2.70009Z" fill="url(#paint0_linear_154_9570)"/>
<defs>
<linearGradient id="paint0_linear_154_9570" x1="-3.53584" y1="10.6066" x2="20.3331" y2="10.6928" gradientUnits="userSpaceOnUse">
<stop stop-color="#94938C"/>
<stop offset="0.2296" stop-color="#EDEBE1"/>
<stop offset="0.7988" stop-color="#EDEBE1"/>
<stop offset="1" stop-color="#94938C"/>
</linearGradient>
</defs>
</svg>
