<svg width="26" height="30" viewBox="0 0 26 30" fill="none" xmlns="http://www.w3.org/2000/svg">
<path d="M15.4999 1.2C15.1999 1.1 14.9999 1.1 14.6999 1C14.1999 1 13.6999 1 13.1999 1C12.4999 1.1 11.7999 1.1 11.0999 1.1L9.5999 1.9L9.3999 5C10.8999 4.2 14.0999 2.3 15.7999 1.4C15.7999 1.3 15.5999 1.2 15.4999 1.2Z" fill="#8C8D92"/>
<path d="M16.2 2.2002L9.2 6.1002L9 9.1002C10.4 8.3002 14.9 5.7002 16.4 4.8002L16.2 2.2002Z" fill="#8C8D92"/>
<path d="M16.6998 5.8999L9.0998 10.1999L8.7998 13.8999C8.7998 16.5999 17.2998 16.8999 17.2998 14.1999L16.6998 5.8999Z" fill="#8C8D92"/>
<path d="M16.3999 4.7998C15.1999 5.4998 13.9999 6.2998 12.6999 6.9998C11.4999 7.6998 10.1999 8.3998 8.9999 8.9998L8.8999 10.2998L16.4999 5.9998C16.4999 5.5998 16.4999 5.1998 16.3999 4.7998Z" fill="#BBBCC1"/>
<path d="M16.2999 1.1001C14.6999 2.0001 11.0999 4.1001 9.4999 4.9001L9.3999 6.0001L16.3999 2.1001L16.2999 1.1001Z" fill="#BBBCC1"/>
<path d="M12.9998 16.1002C15.3194 16.1002 17.1998 15.3391 17.1998 14.4002C17.1998 13.4613 15.3194 12.7002 12.9998 12.7002C10.6802 12.7002 8.7998 13.4613 8.7998 14.4002C8.7998 15.3391 10.6802 16.1002 12.9998 16.1002Z" fill="#527F3F"/>
<path d="M13 15.6002C14.6569 15.6002 16 15.0629 16 14.4002C16 13.7375 14.6569 13.2002 13 13.2002C11.3431 13.2002 10 13.7375 10 14.4002C10 15.0629 11.3431 15.6002 13 15.6002Z" fill="#79B565"/>
<path d="M1.5 14.8003C1.5 14.4003 1.5 13.9003 1.8 13.4003C1.9 13.2003 2 13.2003 2.1 13.0003C2.5 12.4003 2.3 11.7003 2.3 11.1003C2.4 10.4003 2.5 9.30029 2.9 8.10029C3.1 7.40029 3.2 6.90029 3.5 6.30029C4.5 4.40029 6.1 3.40029 6.9 2.90029C7.5 2.50029 8.4 2.10029 9.7 1.80029C9.5 5.50029 9.3 9.10029 9 12.8003C8.6 13.1003 8.1 13.4003 7.6 13.6003C5.3 14.8003 3 14.9003 1.5 14.8003Z" fill="#333333"/>
<path d="M22.5001 18.5003C22.7001 18.6003 23.0001 18.6003 23.2001 18.7003C23.6001 18.8003 24.1001 18.8003 24.4001 18.9003C24.7001 17.0003 24.7001 15.4003 24.6001 14.3003C24.5001 12.9003 24.4001 11.0003 23.4001 9.00029C22.8001 7.60029 22.1001 6.70029 21.9001 6.50029C21.1001 5.50029 20.3001 4.90029 19.1001 3.90029C18.4001 3.30029 17.3001 2.60029 16.1001 1.80029C16.3001 5.50029 16.5001 9.20029 16.7001 12.9003C17.1001 13.1003 17.6001 13.4003 18.1001 13.7003C20.4001 15.2003 21.7001 17.1003 22.5001 18.5003Z" fill="#333333"/>
<path d="M25.2 13.7001V13.6001C25.1 13.3001 25 13.0001 24.9 12.5001C24.8 11.9001 24.6 11.1001 24.3 9.8001C23.5 6.8001 21.9 4.7001 18.2 2.2001C17.3 1.6001 15.6 0.600098 14.1 0.600098C8.99997 0.700098 4.39996 3.1001 2.99996 6.4001C1.99996 8.6001 1.59996 10.1001 1.69996 11.1001C1.69996 11.2001 1.69996 11.2001 1.69996 11.3001C1.69996 11.9001 1.69996 12.5001 1.69996 13.1001C1.79996 13.1001 1.79996 13.1001 1.89996 13.0001C2.59996 12.4001 2.79997 11.3001 2.79997 11.1001C2.79997 10.2001 3.19996 8.8001 3.99996 6.8001C5.19996 3.9001 9.49996 1.8001 14.2 1.6001C15.5 1.5001 17 2.5001 17.8 3.0001C21.3 5.4001 22.8 7.2001 23.5 10.0001C23.8 11.3001 24 12.1001 24.1 12.7001C24.2 13.3001 24.3 13.7001 24.5 14.2001C24.6 14.3001 24.6 14.4001 24.6 14.5001C24.6 14.6001 24.6 14.7001 24.7 14.9001C25 14.9001 25.4 14.9001 25.7 14.9001C25.4 14.5001 25.3 14.1001 25.2 13.7001Z" fill="#B36766"/>
<path d="M3.79974 14.1001C3.49974 14.2001 3.09974 14.9001 2.99974 15.1001C2.39974 15.9001 1.89974 16.8001 1.49974 17.8001C0.499741 20.4001 0.599739 23.2001 2.59974 25.3001C2.59974 25.3001 2.59974 25.3001 2.69974 25.4001C2.79974 25.5001 2.89974 25.6001 2.99974 25.7001C3.19974 26.1001 3.29974 26.5001 3.49974 26.9001C3.69974 27.2001 3.99974 27.6001 4.29974 27.8001C4.99974 28.4001 5.99974 28.8001 6.89974 28.7001C7.19974 28.7001 7.49974 28.6001 7.79974 28.4001C9.09974 27.9001 10.5997 27.3001 11.2997 26.0001C11.1997 26.2001 11.5997 26.8001 11.6997 26.9001C11.8997 27.2001 12.1997 27.3001 12.4997 27.5001C13.5997 27.9001 14.8997 28.3001 15.9997 28.8001C16.7997 29.1001 17.3997 29.4001 18.1997 29.1001C18.5997 29.0001 19.0997 28.8001 19.4997 28.7001C20.2997 28.4001 21.6997 27.9001 21.6997 26.8001C21.6997 25.1001 23.0997 20.2001 19.7997 15.2001C16.4997 10.2001 3.79974 14.1001 3.79974 14.1001Z" fill="#D8D6D0"/>
<path d="M3.79994 10C3.49994 10.1 2.99994 11 2.89994 11.2C2.19994 12.2 1.59993 13.2 1.19993 14.3C-6.96182e-05 17.3 0.199935 20.6 2.39994 23L2.49993 23.1C2.59993 23.2 2.69994 23.4 2.79994 23.5C3.09994 23.9 3.09993 24.4 3.39994 24.8C3.69994 25.2 3.99994 25.6 4.39994 25.9C5.19994 26.6 6.39993 27.1 7.49993 27C7.89993 27 8.29993 26.8 8.59993 26.7C10.1999 26.1 11.8999 25.4 12.6999 23.9C12.5999 24.1 12.9999 24.8 13.0999 24.9C13.3999 25.3 13.6999 25.4 14.0999 25.6C15.3999 26.1 16.8999 26.5 18.1999 27.2C19.0999 27.5 19.7999 27.9 20.6999 27.6C21.1999 27.4 21.7999 27.3 22.2999 27.1C23.2999 26.7 24.8999 26.1 24.8999 24.9C24.8999 23 26.4999 17.1 22.5999 11.3C18.6999 5.50002 3.79994 10 3.79994 10Z" fill="url(#paint0_linear_154_9005)"/>
<defs>
<linearGradient id="paint0_linear_154_9005" x1="-5.35507" y1="20.3455" x2="29.0878" y2="16.7285" gradientUnits="userSpaceOnUse">
<stop stop-color="#94938C"/>
<stop offset="0.2296" stop-color="#EDEBE1"/>
<stop offset="0.7988" stop-color="#EDEBE1"/>
<stop offset="1" stop-color="#94938C"/>
</linearGradient>
</defs>
</svg>
