<svg width="28" height="34" viewBox="0 0 28 34" fill="none" xmlns="http://www.w3.org/2000/svg">
<path d="M15.7002 33.2998C16.7002 33.0998 17.6002 32.8998 18.5002 32.5998V32.0998C16.8002 31.1998 12.9002 29.0998 11.2002 28.2998L11.4002 31.3998L15.7002 33.2998Z" fill="#8C8D92"/>
<path d="M18.4998 30.9L10.9998 27L10.7998 24C12.2998 24.8 17.1998 27.4 18.7998 28.3L18.4998 30.9Z" fill="#8C8D92"/>
<path d="M19 27.1998L10.8 22.8998L10.5 19.1998C10.5 16.4998 19.7 16.1998 19.7 18.8998L19 27.1998Z" fill="#8C8D92"/>
<path d="M18.8002 28.3999C17.5002 27.6999 16.2002 26.8999 14.8002 26.1999C13.5002 25.4999 12.1002 24.7999 10.9002 24.1999L10.7002 22.8999L18.9002 27.1999C18.8002 27.4999 18.8002 27.8999 18.8002 28.3999Z" fill="#BBBCC1"/>
<path d="M19.3998 24.5996C18.0998 23.8996 16.7998 23.0996 15.3998 22.3996C14.0998 21.6996 12.6998 20.9996 11.4998 20.3996L11.2998 19.0996L19.4998 23.3996C19.4998 23.7996 19.4998 24.1996 19.3998 24.5996Z" fill="#BBBCC1"/>
<path d="M18.6002 31.9996C16.9002 31.0996 13.0002 28.9996 11.3002 28.1996L11.2002 27.0996L18.7002 30.9996L18.6002 31.9996Z" fill="#BBBCC1"/>
<path d="M13.1001 33.0998C13.3001 33.0998 13.6001 33.0998 13.8001 33.0998C14.4001 33.1998 15.0001 33.1998 15.5001 33.2998L11.6001 31.2998L11.7001 32.3998C12.1001 32.4998 12.6001 32.7998 13.1001 33.0998Z" fill="#BBBCC1"/>
<path d="M15.0999 20.4C17.4195 20.4 19.2999 19.6389 19.2999 18.7C19.2999 17.7611 17.4195 17 15.0999 17C12.7803 17 10.8999 17.7611 10.8999 18.7C10.8999 19.6389 12.7803 20.4 15.0999 20.4Z" fill="#527F3F"/>
<path d="M15.1001 19.9C16.757 19.9 18.1001 19.3627 18.1001 18.7C18.1001 18.0373 16.757 17.5 15.1001 17.5C13.4432 17.5 12.1001 18.0373 12.1001 18.7C12.1001 19.3627 13.4432 19.9 15.1001 19.9Z" fill="#79B565"/>
<path d="M4.7002 21.8003C4.8002 21.9003 5.40018 22.4003 5.40018 23.1003C5.40018 23.4003 5.3002 23.7003 5.2002 23.8003C5.3002 24.2003 5.30018 24.8003 5.40018 25.5003C5.50018 27.1003 5.40018 27.2003 5.50018 27.8003C5.90018 30.0003 8.90017 31.2003 9.30017 31.4003C10.3002 31.8003 11.1002 31.9003 11.7002 31.9003C11.5002 28.2003 11.3002 24.4003 11.0002 20.7003C10.6002 20.6003 10.1002 20.6003 9.60019 20.6003C7.50019 20.5003 5.8002 21.3003 4.7002 21.8003Z" fill="#333333"/>
<path d="M24.6002 15.7003C24.8002 15.6003 25.1002 15.6003 25.3002 15.5003C25.7002 15.4003 26.2002 15.4003 26.5002 15.3003C25.9002 17.8003 25.6002 19.8003 25.5002 21.2003C25.4002 22.4003 25.3002 23.7003 24.7002 25.3003C24.3002 26.3003 23.8002 27.1003 23.6002 27.5003C23.4002 27.9003 22.6002 29.1003 21.3002 30.3003C20.6002 31.0003 19.6002 31.9003 18.2002 32.7003C18.4002 28.9003 18.6002 25.1003 18.8002 21.2003C18.9002 19.9003 19.0002 18.5003 19.0002 17.2003C19.1002 17.1003 19.2002 17.1003 19.3002 17.0003C20.0002 16.5003 20.5002 16.2003 20.6002 16.2003C21.4002 15.9003 22.7002 15.5003 24.6002 15.7003Z" fill="#333333"/>
<path d="M26.5004 17.9003C26.5004 17.7003 26.5004 17.5003 26.5004 17.3003C26.1004 17.5003 25.8004 17.7003 25.5004 18.0003C25.3004 18.3003 25.3004 18.6003 25.2004 18.8003V19.0003C25.1004 19.7003 25.0004 20.3003 25.0004 20.7003C25.0004 21.1003 24.9004 21.5003 24.8004 21.9003C24.2004 24.9003 22.9004 29.0003 19.6004 31.2003C18.8004 31.7003 17.4004 32.6003 16.0004 32.6003C11.7004 32.5003 6.80042 30.7003 5.80042 27.5003C5.50042 26.5003 5.60045 25.5003 5.70045 24.6003C5.80045 23.5003 6.00045 22.6003 5.20045 21.8003C5.10045 21.7003 4.90042 21.6003 4.80042 21.5003C4.80042 22.0003 4.80042 22.4003 4.80042 22.9003C5.00042 23.3003 4.90042 23.8003 4.80042 24.5003C4.70042 25.4003 4.50043 26.5003 4.90043 27.8003C6.00043 31.6003 11.5004 33.5003 16.0004 33.6003H16.1004C17.6004 33.6003 19.3004 32.6003 20.2004 32.0003C23.0004 30.1003 25.0004 26.6003 25.8004 22.1003C25.9004 21.7003 25.9004 21.3003 26.0004 20.9003C26.0004 20.4003 26.1004 19.9003 26.2004 19.2003C26.2004 19.1003 26.2004 19.1003 26.2004 19.0003C26.2004 18.8003 26.2004 18.7003 26.3004 18.6003C26.3004 18.6003 26.3004 18.6003 26.4004 18.5003C26.5004 18.3003 26.5004 18.1003 26.5004 17.9003Z" fill="#B36766"/>
<path d="M9.40008 0.900391C8.10008 1.00039 7.10008 1.4004 6.00008 2.1004C5.70008 2.3004 5.40008 2.5004 5.50008 2.8004C5.80008 4.1004 15.5001 3.10039 15.4001 1.90039C15.3001 1.20039 12.2001 1.00039 11.5001 0.900391C10.7001 0.900391 10.0001 0.900391 9.40008 0.900391Z" fill="#D8D6D0"/>
<path d="M20.5002 0.8002C19.3002 0.7002 18.4002 1.0002 17.3002 1.6002C17.0002 1.8002 16.7002 2.0002 16.7002 2.3002C16.7002 3.6002 25.6002 3.7002 25.7002 2.6002C25.8002 1.9002 23.0002 1.40019 22.3002 1.20019C21.7002 0.900194 21.1002 0.8002 20.5002 0.8002Z" fill="#D8D6D0"/>
<path d="M4.80017 1.8C3.90017 1.9 3.00019 2.30001 2.20019 3.10001C1.20019 4.10001 0.700185 5.6 0.600185 7C0.300185 10 0.900185 13.7 1.60019 16.6C1.80019 17.5 1.90018 19.5 2.50018 20.2C4.50018 22.4 8.90019 21.4 11.6002 21.2C14.6002 21 17.9002 20.9 20.7002 20.2C22.5002 20.1 25.8002 20.5 26.4002 18.1C27.0002 15.4 27.4002 12.6 27.5002 9.8C27.6002 7.7 27.9002 2.50001 24.9002 2.10001C24.5002 2.00001 23.7002 2.50001 23.3002 2.60001C22.4002 2.80001 21.5002 2.8 20.6002 2.5C19.5002 2.2 18.4002 1.7 17.3002 1.2C17.1002 1.1 16.8002 1 16.6002 1C16.0002 1 15.6002 1.49999 15.1002 1.89999C13.2002 3.39999 9.70018 2.6 7.50018 2C6.50018 1.9 5.60017 1.7 4.80017 1.8Z" fill="url(#paint0_linear_154_9540)"/>
<defs>
<linearGradient id="paint0_linear_154_9540" x1="-5.14531" y1="11.263" x2="33.2766" y2="11.4018" gradientUnits="userSpaceOnUse">
<stop stop-color="#94938C"/>
<stop offset="0.2296" stop-color="#EDEBE1"/>
<stop offset="0.7988" stop-color="#EDEBE1"/>
<stop offset="1" stop-color="#94938C"/>
</linearGradient>
</defs>
</svg>
