<svg width="26" height="31" viewBox="0 0 26 31" fill="none" xmlns="http://www.w3.org/2000/svg">
<path d="M14.8997 30.0995C15.3997 29.9995 15.7997 29.8995 16.2997 29.8995C16.5997 29.8995 16.7997 29.8995 17.0997 29.8995C17.1997 29.8995 17.2997 29.7995 17.3997 29.7995L17.4997 28.7995C15.7997 27.8995 11.8997 25.7995 10.1997 24.9995L10.3997 28.0995L14.8997 30.0995Z" fill="#8C8D92"/>
<path d="M17.4998 27.6998L9.99982 23.7998L9.7998 20.7998C11.2998 21.5998 16.1998 24.1998 17.7998 25.0998L17.4998 27.6998Z" fill="#8C8D92"/>
<path d="M17.8999 23.9996L9.69992 19.6996L9.3999 15.9996C9.3999 13.2996 18.5999 12.9996 18.5999 15.6996L17.8999 23.9996Z" fill="#8C8D92"/>
<path d="M17.7001 25.0996C16.4001 24.3996 15.1001 23.5996 13.7001 22.8996C12.4001 22.1996 11.0001 21.4996 9.80008 20.8996L9.6001 19.5996L17.8001 23.8996C17.7001 24.2996 17.7001 24.6996 17.7001 25.0996Z" fill="#BBBCC1"/>
<path d="M18.6 21.4995C17.3 20.7995 16 19.9995 14.6 19.2995C13.3 18.5995 11.9 17.8995 10.7 17.2995L10.5 15.9995L18.7 20.2995C18.7 20.5995 18.6 20.9995 18.6 21.4995Z" fill="#BBBCC1"/>
<path d="M17.5001 28.7994C15.8001 27.8994 11.9001 25.7994 10.2001 24.9994L10.1001 23.8994L17.6001 27.7994L17.5001 28.7994Z" fill="#BBBCC1"/>
<path d="M12.7001 30.1995C13.2001 30.0995 13.7001 29.9995 14.3001 29.8995L10.6001 27.9995L10.7001 29.0995C11.2001 29.3995 11.9001 29.6995 12.7001 30.1995Z" fill="#BBBCC1"/>
<path d="M13.9998 17.1998C16.3194 17.1998 18.1998 16.4387 18.1998 15.4998C18.1998 14.5609 16.3194 13.7998 13.9998 13.7998C11.6802 13.7998 9.7998 14.5609 9.7998 15.4998C9.7998 16.4387 11.6802 17.1998 13.9998 17.1998Z" fill="#527F3F"/>
<path d="M14 16.6998C15.6569 16.6998 17 16.1625 17 15.4998C17 14.8371 15.6569 14.2998 14 14.2998C12.3431 14.2998 11 14.8371 11 15.4998C11 16.1625 12.3431 16.6998 14 16.6998Z" fill="#79B565"/>
<path d="M3.8999 18.9999C3.9999 19.0999 4.2999 19.3999 4.2999 19.8999C4.2999 20.2999 4.19991 20.4999 4.09991 20.5999C4.19991 20.9999 4.1999 21.5999 4.2999 22.2999C4.3999 23.8999 4.2999 23.9999 4.3999 24.5999C4.7999 26.7999 7.79992 27.9999 8.19992 28.1999C9.19992 28.5999 9.99991 28.6999 10.5999 28.6999C10.3999 25.1999 10.1999 21.6999 9.99991 18.1999C9.49991 17.6999 8.99991 17.4999 8.59991 17.3999C7.09991 16.8999 5.2999 17.5999 3.8999 18.9999Z" fill="#333333"/>
<path d="M23.5001 12.5001C23.7001 12.4001 24.0001 12.4001 24.2001 12.3001C24.6001 12.2001 25.1001 12.2001 25.4001 12.1001C24.8001 14.6001 24.5001 16.6001 24.4001 18.0001C24.3001 19.2001 24.2001 20.5001 23.6001 22.1001C23.2001 23.1001 22.7001 23.9001 22.5001 24.3001C22.3001 24.7001 21.5001 25.9001 20.2001 27.1001C19.5001 27.8001 18.5001 28.7001 17.1001 29.5001C17.3001 25.7001 17.5001 21.9001 17.7001 18.0001C17.8001 16.7001 17.9001 15.3001 17.9001 14.0001C18.0001 13.9001 18.1001 13.9001 18.2001 13.8001C18.9001 13.3001 19.4001 13.0001 19.5001 13.0001C20.4001 12.7001 21.7001 12.3001 23.5001 12.5001Z" fill="#333333"/>
<path d="M25.2996 13.8999C24.8996 14.0999 24.5996 14.3999 24.3996 14.7999C24.2996 15.0999 24.1996 15.2999 24.0996 15.7999C23.9996 16.4999 23.8996 17.0999 23.8996 17.4999C23.8996 17.8999 23.7997 18.2999 23.6997 18.6999C23.0997 21.6999 21.7996 25.7999 18.4996 27.9999C17.6996 28.4999 16.1996 29.3999 14.8996 29.3999C10.5996 29.2999 5.69966 27.4999 4.69966 24.2999C4.39966 23.2999 4.49965 22.2999 4.59965 21.3999C4.69965 20.2999 4.89964 19.2999 3.99964 18.5999C3.89964 18.4999 3.79965 18.4999 3.59965 18.3999C3.59965 18.8999 3.59965 19.2999 3.59965 19.7999C3.69965 20.0999 3.59964 20.5999 3.49964 21.1999C3.39964 22.0999 3.19965 23.2999 3.59965 24.4999C4.69965 28.2999 10.1997 30.1999 14.6997 30.2999H14.7996C16.2996 30.2999 17.9996 29.2999 18.8996 28.6999C21.6996 26.7999 23.6996 23.2999 24.4996 18.7999C24.5996 18.3999 24.5997 17.9999 24.6997 17.5999C24.6997 17.0999 24.7996 16.5999 24.8996 15.8999C24.9996 15.5999 24.9996 15.3999 24.9996 15.2999C25.2996 14.8999 25.2996 14.3999 25.2996 13.8999Z" fill="#B36766"/>
<path d="M1.99989 15.1999C1.89989 13.9999 1.8999 12.7999 1.6999 11.5999C1.2999 9.69991 0.399886 8.09991 0.499886 6.09991C0.799886 1.29991 7.49987 0.999912 10.7999 2.29991C12.1999 2.79991 12.7999 2.29991 13.8999 1.59991C15.1999 0.799915 16.6999 0.399902 18.1999 0.399902C19.8999 0.399902 21.7999 0.899912 23.2999 1.79991C25.4999 3.09991 25.4999 5.29991 25.5999 7.59991C25.7999 10.0999 25.6999 12.7999 24.8999 15.1999C24.5999 15.8999 24.2999 16.6999 23.7999 17.2999C22.9999 18.0999 22.0999 18.1999 20.9999 18.4999C19.5999 18.7999 18.1999 19.0999 16.7999 19.3999C13.9999 19.8999 11.1999 20.3999 8.39988 20.4999C7.09988 20.5999 5.69989 20.3999 4.49989 19.7999C2.69989 18.6999 2.09989 16.9999 1.99989 15.1999Z" fill="url(#paint0_linear_154_9513)"/>
<defs>
<linearGradient id="paint0_linear_154_9513" x1="-3.54581" y1="13.315" x2="29.3897" y2="6.9061" gradientUnits="userSpaceOnUse">
<stop stop-color="#94938C"/>
<stop offset="0.2114" stop-color="#EDEBE1"/>
<stop offset="0.847" stop-color="#EDEBE1"/>
<stop offset="1" stop-color="#94938C"/>
</linearGradient>
</defs>
</svg>
