<svg width="24" height="28" viewBox="0 0 24 28" fill="none" xmlns="http://www.w3.org/2000/svg">
<path d="M15.7996 26.3999L15.8996 25.6999C14.1996 24.7999 10.2996 22.6999 8.59961 21.8999L8.79959 24.9999L13.1996 27.0999C13.9996 26.6999 14.8996 26.3999 15.7996 26.3999Z" fill="#8C8D92"/>
<path d="M15.7996 24.5997L8.29959 20.6997L8.09961 17.6997C9.59961 18.4997 14.4996 21.0997 16.0996 21.9997L15.7996 24.5997Z" fill="#8C8D92"/>
<path d="M16.2998 20.7999L8.09982 16.4999L7.7998 12.7999C7.7998 10.0999 16.9998 9.79989 16.9998 12.4999L16.2998 20.7999Z" fill="#8C8D92"/>
<path d="M16.1 22C14.8 21.3 13.5 20.5 12.1 19.8C10.8 19.1 9.40001 18.4 8.20001 17.8L8 16.5L16.2 20.8C16.1 21.2 16.1 21.6 16.1 22Z" fill="#BBBCC1"/>
<path d="M16.2997 18.1001C14.9997 17.4001 13.6997 16.6001 12.2997 15.9001C10.9997 15.2001 9.59969 14.5001 8.39969 13.9001L8.19971 12.6001L16.3997 16.9001C16.2997 17.3001 16.2997 17.7001 16.2997 18.1001Z" fill="#BBBCC1"/>
<path d="M15.9 25.6998C14.2 24.7998 10.3 22.6998 8.60001 21.8998L8.5 20.7998L16 24.6998L15.9 25.6998Z" fill="#BBBCC1"/>
<path d="M10.7 26.7998C11.2 26.6998 11.8 26.5998 12.4 26.5998H12.5L9 24.7998L9.10001 25.8998C9.50001 26.1998 10.1 26.4998 10.7 26.7998Z" fill="#BBBCC1"/>
<path d="M12.3997 14.0001C14.7193 14.0001 16.5997 13.239 16.5997 12.3001C16.5997 11.3612 14.7193 10.6001 12.3997 10.6001C10.0801 10.6001 8.19971 11.3612 8.19971 12.3001C8.19971 13.239 10.0801 14.0001 12.3997 14.0001Z" fill="#527F3F"/>
<path d="M12.3999 13.5001C14.0568 13.5001 15.3999 12.9628 15.3999 12.3001C15.3999 11.6374 14.0568 11.1001 12.3999 11.1001C10.743 11.1001 9.3999 11.6374 9.3999 12.3001C9.3999 12.9628 10.743 13.5001 12.3999 13.5001Z" fill="#79B565"/>
<path d="M2.2998 15.9001C2.3998 16.0001 2.69983 16.3001 2.69983 16.8001C2.69983 17.2001 2.59982 17.4001 2.49982 17.5001C2.59982 17.9001 2.59983 18.5001 2.69983 19.2001C2.79983 20.8001 2.6998 20.9001 2.7998 21.5001C3.1998 23.7001 6.19982 24.9001 6.59982 25.1001C7.59982 25.5001 8.39982 25.6001 8.99982 25.6001C8.69982 21.9001 8.49983 18.2001 8.19983 14.5001C7.79983 14.4001 7.39982 14.3001 6.99982 14.2001C4.69982 14.0001 2.8998 15.4001 2.2998 15.9001Z" fill="#333333"/>
<path d="M21.9 9.29991C22.1 9.19991 22.4 9.19991 22.6 9.09991C23 8.99991 23.5 8.9999 23.8 8.8999C23.2 11.3999 22.9 13.3999 22.8 14.7999C22.7 15.9999 22.6 17.2999 22 18.8999C21.6 19.8999 21.1 20.6999 20.9 21.0999C20.7 21.4999 19.9 22.6999 18.6 23.8999C17.9 24.5999 16.9 25.4999 15.5 26.2999C15.7 22.4999 15.9 18.6999 16.1 14.7999C16.2 13.4999 16.3 12.0999 16.3 10.7999C16.4 10.6999 16.5 10.6999 16.6 10.5999C17.3 10.0999 17.8 9.79991 17.9 9.79991C18.7 9.59991 20 9.19991 21.9 9.29991Z" fill="#333333"/>
<path d="M23.5998 12.6999C23.5998 12.8999 23.5998 12.4999 23.5998 12.4999C23.5998 12.3999 23.5998 12.2999 23.5998 12.1999C23.5998 11.9999 23.5999 11.7999 23.6999 11.5999C23.6999 11.1999 23.7998 10.7999 23.7998 10.3999C23.1998 10.8999 22.9998 11.4999 22.8998 11.7999C22.7998 12.0999 22.6999 12.4999 22.6999 12.6999C22.5999 13.3999 22.4998 13.9999 22.4998 14.3999C22.4998 14.7999 22.3998 15.1999 22.2998 15.5999C21.6998 18.5999 20.3999 22.6999 17.0999 24.8999C16.2999 25.3999 14.7998 26.3999 13.4998 26.2999C9.19984 26.1999 4.29983 24.3999 3.29983 21.1999C2.99983 20.1999 3.09986 19.0999 3.19986 18.1999C3.29986 17.0999 3.49985 15.9999 2.59985 15.3999C2.49985 15.3999 2.49984 15.2999 2.39984 15.2999C2.39984 15.7999 2.29983 16.1999 2.29983 16.6999C2.29983 16.9999 2.29986 17.4999 2.19986 18.0999C2.09986 19.0999 1.89983 20.2999 2.29983 21.4999C3.39983 25.2999 8.89984 27.1999 13.3998 27.2999H13.4998C14.9998 27.2999 16.6999 26.2999 17.5999 25.6999C20.3999 23.7999 22.3999 20.2999 23.1999 15.7999C23.2999 15.3999 23.2998 14.9999 23.3998 14.5999C23.3998 14.1999 23.4998 13.6999 23.5998 12.9999C23.5998 12.8999 23.5998 12.7999 23.5998 12.6999Z" fill="#B36766"/>
<path d="M11.1998 3.09989C10.8998 2.99989 10.5998 2.79989 10.1998 2.59989C9.19983 1.89989 8.19982 1.29989 6.99982 0.999886C5.79982 0.699886 4.49982 0.699889 3.49982 1.29989C2.79982 1.69989 2.19981 2.39989 1.79981 3.09989C1.09981 4.19989 0.59981 5.49989 0.79981 6.79989C0.99981 8.29989 1.59983 9.79989 2.19983 11.0999C2.59983 11.8999 2.89982 12.8999 3.49982 13.4999C4.29982 14.2999 5.59983 14.3999 6.59983 14.4999C8.79983 14.7999 10.9998 14.4999 13.1998 13.9999C15.2998 13.4999 17.4998 12.8999 19.5998 12.1999C19.9998 12.0999 20.2998 11.8999 20.6998 11.6999C21.5998 10.9999 21.7998 9.49989 21.9998 8.49989C22.2998 6.99989 22.0998 5.39989 21.4998 3.99989C20.6998 2.19989 19.0998 0.499883 17.0998 0.199883C15.5998 -0.000116643 14.2998 0.29988 13.2998 1.39988C12.9998 1.79988 12.6998 2.19989 12.3998 2.59989C11.8998 3.09989 11.4998 3.19989 11.1998 3.09989Z" fill="url(#paint0_linear_154_9490)"/>
<defs>
<linearGradient id="paint0_linear_154_9490" x1="-5.56269" y1="7.43578" x2="28.106" y2="7.55738" gradientUnits="userSpaceOnUse">
<stop stop-color="#94938C"/>
<stop offset="0.2614" stop-color="#EDEBE1"/>
<stop offset="0.7687" stop-color="#EDEBE1"/>
<stop offset="1" stop-color="#94938C"/>
</linearGradient>
</defs>
</svg>
