<svg width="20" height="29" viewBox="0 0 20 29" fill="none" xmlns="http://www.w3.org/2000/svg">
<path d="M9.1002 0.899803C8.8002 0.899803 8.4002 0.799805 8.2002 0.799805C7.5002 1.1998 6.70019 1.3998 5.90019 1.4998L5.7002 4.0998C6.6002 3.5998 9.00019 2.1998 10.9002 1.0998C10.3002 1.0998 9.7002 0.999803 9.1002 0.899803Z" fill="#8C8D92"/>
<path d="M12.3 1.59961L5.8 5.29961L5.5 8.99961C5.5 11.6996 14 11.9996 14 9.29961L13.4 2.09961C13 1.89961 12.7 1.69961 12.3 1.59961Z" fill="#8C8D92"/>
<path d="M10.9001 1.09961C10.4001 1.39961 9.90009 1.69961 9.40009 1.99961C8.20009 2.69961 6.90009 3.39961 5.70009 3.99961L5.6001 5.29961L12.2001 1.59961C11.7001 1.49961 11.3001 1.29961 10.9001 1.09961Z" fill="#BBBCC1"/>
<path d="M13.7002 3.19971C12.5002 3.89971 11.3002 4.69971 10.0002 5.39971C8.8002 6.09971 7.5002 6.79971 6.3002 7.39971L6.2002 8.69971L13.8002 4.39971C13.7002 4.09971 13.7002 3.59971 13.7002 3.19971Z" fill="#BBBCC1"/>
<path d="M9.80009 11.1998C12.1197 11.1998 14.0001 10.4387 14.0001 9.4998C14.0001 8.56092 12.1197 7.7998 9.80009 7.7998C7.4805 7.7998 5.6001 8.56092 5.6001 9.4998C5.6001 10.4387 7.4805 11.1998 9.80009 11.1998Z" fill="#527F3F"/>
<path d="M9.7998 10.6998C11.4567 10.6998 12.7998 10.1625 12.7998 9.4998C12.7998 8.83706 11.4567 8.2998 9.7998 8.2998C8.14295 8.2998 6.7998 8.83706 6.7998 9.4998C6.7998 10.1625 8.14295 10.6998 9.7998 10.6998Z" fill="#79B565"/>
<path d="M2.0002 12.2001C1.5002 11.1001 1.4002 10.1001 1.3002 9.4001C1.2002 8.6001 1.2002 8.0001 1.2002 7.7001C1.2002 6.9001 1.20019 6.5001 1.40019 6.0001C1.50019 5.7001 1.7002 5.3001 2.3002 4.5001C3.0002 3.5001 3.3002 3.0001 3.7002 2.7001C4.2002 2.4001 4.40019 2.5001 4.90019 2.1001C5.30019 1.8001 5.4002 1.6001 5.6002 1.6001C5.8002 1.7001 5.8002 2.0001 5.8002 2.3001C5.8002 4.5001 5.8002 6.8001 5.7002 9.0001C4.0002 12.1001 2.9002 13.6001 2.3002 13.4001C2.2002 13.4001 2.1002 13.0001 2.0002 12.2001Z" fill="#333333"/>
<path d="M17.1 14.5998C17.7 14.9998 18.4 14.9998 18.8 14.6998C18.9 14.5998 19 14.4998 19 14.0998C19.1 13.6998 19.1 13.3998 19.1 13.1998C19.2 12.6998 19.2 12.1998 19.3 9.7998C19.3 9.3998 19.4 7.4998 18.3 5.6998C17.8 4.9998 17.2 4.2998 17 4.0998C16.2 3.2998 15.5 2.8998 15.3 2.6998C14.6 2.2998 14 1.9998 13.5 1.7998C13.7 4.1998 13.9 6.6998 14.1 9.0998C14.4 9.7998 14.8 10.5998 15.2 11.2998C15.8 12.5998 16.4 13.5998 17.1 14.5998Z" fill="#333333"/>
<path d="M10.1001 28.2998C10.1001 28.2998 4.90008 29.3998 3.00008 26.6998C1.20008 23.8998 9.50008 26.5998 10.1001 28.2998Z" fill="#D8D6D0"/>
<path d="M10.8999 28.4998C10.8999 28.4998 16.4999 28.8998 17.8999 25.2998C19.2999 21.6998 11.1999 26.3998 10.8999 28.4998Z" fill="#D8D6D0"/>
<path d="M13.0999 8.19987C13.0999 8.19987 13.1999 8.29988 13.2999 8.29988C14.6999 9.29988 15.8999 10.8999 16.7999 12.3999C18.1999 14.5999 19.1999 17.0999 18.8999 19.7999C18.6999 21.5999 18.4999 23.6999 17.5999 25.2999C17.0999 26.1999 15.8999 26.6999 14.8999 26.9999C14.0999 27.2999 13.1999 27.5999 12.3999 27.8999C11.6999 28.1999 10.8999 28.6999 10.0999 28.6999C9.09995 28.5999 8.49994 27.8999 7.69994 27.3999C6.49994 26.5999 4.99995 26.1999 3.59995 26.2999C3.29995 26.2999 3.09994 26.2999 2.79994 26.2999C2.39994 26.1999 2.19994 25.8999 1.99994 25.5999C0.99994 24.1999 1.09995 22.8999 1.09995 21.2999C1.09995 19.6999 1.09993 17.9999 1.39993 16.3999C1.99993 13.4999 3.89993 11.0999 4.89993 8.39988C4.99993 8.19988 4.99995 8.09988 5.09995 7.99988C5.29995 7.79988 5.59993 7.69987 5.89993 7.69987C6.69993 7.59987 7.39994 7.79988 7.49994 7.79988C8.19994 7.99988 8.89993 7.99988 10.3999 7.99988C11.4999 7.79988 12.2999 7.69987 13.0999 8.19987Z" fill="url(#paint0_linear_154_9025)"/>
<path d="M19.3 14.7999C19.2 14.5999 19.4 13.9999 19.4 13.4999C19.5 12.7999 19.7 11.8999 19.7 10.7999C19.7 9.29989 19.6 7.89989 19 6.29989C18.1 4.09989 16.1 2.89989 14.8 2.09989C13.9 1.59989 12.6 0.799887 10.8 0.599887C7.20002 0.0998872 2.50002 1.89989 1.10002 5.39989C0.900025 5.89989 0.500015 7.29989 0.700015 9.09989C0.800015 9.99989 1.00002 10.6999 1.20002 11.3999C1.30002 11.6999 1.40002 12.1999 1.50002 12.3999L1.60002 12.4999C1.60002 12.5999 1.70002 12.7999 1.70002 12.8999H1.80002C2.00002 12.8999 2.20002 12.9999 2.30002 12.9999C2.60002 12.5999 2.40002 11.8999 2.20002 11.0999C2.00002 10.4999 1.80002 9.79989 1.70002 8.99989C1.50002 7.39989 1.90002 6.19989 2.10002 5.79989C3.30002 2.79989 7.50002 1.19989 10.7 1.59989C12.3 1.79989 13.5 2.49989 14.4 2.99989C15.7 3.69989 17.4 4.79989 18.2 6.69989C18.8 8.09989 18.8 9.29989 18.8 10.7999C18.8 11.6999 18.6 12.5999 18.5 13.2999C18.4 13.8999 18.3 14.3999 18.3 14.8999C18.7 14.8999 19.2 14.7999 19.6 14.7999C19.4 14.6999 19.3 14.6999 19.3 14.7999Z" fill="#B36766"/>
<defs>
<linearGradient id="paint0_linear_154_9025" x1="-4.68955" y1="18.4563" x2="25.2171" y2="17.535" gradientUnits="userSpaceOnUse">
<stop stop-color="#94938C"/>
<stop offset="0.2666" stop-color="#EDEBE1"/>
<stop offset="0.7117" stop-color="#EDEBE1"/>
<stop offset="1" stop-color="#94938C"/>
</linearGradient>
</defs>
</svg>
