<svg width="19" height="30" viewBox="0 0 19 30" fill="none" xmlns="http://www.w3.org/2000/svg">
<path d="M9.09961 1.3002C8.29961 1.2002 7.59961 1.4002 8.79961 1.2002C8.39961 1.3002 8.0996 1.3002 7.6996 1.3002C6.7996 1.8002 5.79961 2.0002 4.79961 2.0002L4.59961 4.4002C5.59961 3.9002 7.9996 2.4002 9.8996 1.3002C9.5996 1.4002 9.29961 1.3002 9.09961 1.3002Z" fill="#8C8D92"/>
<path d="M11.0998 1.90039L4.59981 5.60039L4.2998 9.30039C4.2998 12.0004 12.7998 12.3004 12.7998 9.6004L12.1998 2.30039C11.7998 2.20039 11.4998 2.00039 11.0998 1.90039Z" fill="#8C8D92"/>
<path d="M9.60001 1.6001C9.20001 1.9001 8.7 2.1001 8.3 2.4001C7.1 3.1001 5.80001 3.8001 4.60001 4.4001L4.5 5.7001L11.3 1.8001C10.7 1.8001 10.1 1.7001 9.60001 1.6001Z" fill="#BBBCC1"/>
<path d="M12.5 3.6001C11.3 4.3001 10.1 5.1001 8.8 5.8001C7.6 6.5001 6.30001 7.2001 5.10001 7.8001L5 9.10011L12.6 4.8001C12.5 4.4001 12.5 4.0001 12.5 3.6001Z" fill="#BBBCC1"/>
<path d="M8.59991 11.5001C10.9195 11.5001 12.7999 10.739 12.7999 9.8001C12.7999 8.86122 10.9195 8.1001 8.59991 8.1001C6.28032 8.1001 4.3999 8.86122 4.3999 9.8001C4.3999 10.739 6.28032 11.5001 8.59991 11.5001Z" fill="#527F3F"/>
<path d="M8.59961 11.0001C10.2565 11.0001 11.5996 10.4628 11.5996 9.8001C11.5996 9.13736 10.2565 8.6001 8.59961 8.6001C6.94276 8.6001 5.59961 9.13736 5.59961 9.8001C5.59961 10.4628 6.94276 11.0001 8.59961 11.0001Z" fill="#79B565"/>
<path d="M3.50021 3.1001C3.50021 3.2001 3.40021 3.4001 3.30021 3.5001C3.20021 3.7001 3.20022 3.6001 2.10022 5.1001C1.60022 5.7001 1.40021 6.0001 1.30021 6.3001C1.20021 6.5001 1.00021 7.0001 0.800212 7.9001C0.700212 8.8001 0.800203 9.20011 0.900203 10.1001C0.900203 10.7001 1.00021 11.5001 0.800212 12.6001C0.800212 13.4001 1.10021 13.7001 1.20021 13.9001C1.90021 14.7001 3.50022 14.8001 5.10022 13.8001C5.10022 10.1001 5.10021 6.3001 5.20021 2.6001C4.70021 2.8001 4.10021 3.0001 3.50021 3.1001Z" fill="#333333"/>
<path d="M16.5998 14.8001C17.0998 14.7001 17.5998 14.6001 18.0998 14.5001C18.2998 14.5001 18.5998 14.4001 18.7998 14.4001C18.4998 14.2001 18.0998 14.0001 17.8998 13.5001C17.3998 12.5001 17.9998 11.8001 18.0998 10.1001C18.0998 9.70011 18.1998 7.8001 17.0998 6.0001C16.5998 5.3001 15.9998 4.6001 15.7998 4.4001C14.9998 3.6001 14.2998 3.2001 14.0998 3.0001C13.3998 2.6001 12.7998 2.3001 12.2998 2.1001C12.4998 4.5001 12.6998 7.00009 12.8998 9.40009C13.1998 10.1001 13.4998 10.8001 13.9998 11.6001C14.7998 13.1001 15.7998 14.1001 16.5998 14.8001Z" fill="#333333"/>
<path d="M16.9999 7.10007C17.1999 7.60007 17.4999 8.20007 17.5999 9.20007C17.6999 10.0001 17.4999 10.7001 17.3999 11.3001C17.2999 11.9001 17.1999 12.5001 17.3999 12.9001C17.6999 12.9001 17.9999 12.9001 18.2999 12.9001C18.2999 12.7001 18.2999 12.4001 18.2999 12.2001V12.1001C18.2999 11.9001 18.3999 11.7001 18.3999 11.5001C18.4999 10.9001 18.6999 10.0001 18.5999 9.10008C18.4999 8.00008 18.1999 7.20007 17.9999 6.70007C16.8999 4.10007 14.5999 2.80008 13.7999 2.30008C13.0999 1.90008 11.6999 1.10008 9.79991 1.00008C9.29991 1.00008 5.0999 0.700079 2.3999 3.80008C1.0999 5.30008 0.399902 7.40008 0.399902 9.30008C0.399902 10.0001 0.499915 10.6001 0.599915 11.2001C0.699915 11.6001 0.799905 12.3001 0.699905 12.6001C0.699905 12.7001 0.699905 12.7001 0.699905 12.8001C0.999905 12.7001 1.29991 12.7001 1.69991 12.7001C1.69991 12.2001 1.69991 11.7001 1.59991 11.1001C1.49991 10.6001 1.3999 9.90007 1.3999 9.40007C1.3999 7.70007 2.09991 5.80008 3.19991 4.50008C5.49991 1.80008 9.29991 2.00008 9.69991 2.00008C11.4999 2.10008 12.6999 2.90007 13.2999 3.20007C13.9999 3.60007 15.9999 4.80007 16.9999 7.10007Z" fill="#B36766"/>
<path d="M9.09994 28.3003C9.09994 28.3003 3.79994 29.1003 2.09994 26.3003C0.299938 23.5003 8.49994 26.7003 9.09994 28.3003Z" fill="#D8D6D0"/>
<path d="M14.4 9.30019C14.4 9.30019 21.8 20.3002 16.3 26.1002C15.6 26.8002 14.6 27.3002 13.8 27.8002C13 28.3002 12.1 29.1002 11 29.2002C9.8 29.3002 9 28.1002 7.8 27.9002C6 27.5002 4.10001 27.8002 2.60001 26.6002C1.30001 25.6002 0.499996 23.9002 0.199996 22.3002C-0.100004 20.3002 0.200005 18.2002 0.600005 16.2002C0.800005 15.4002 1.09999 14.5002 1.39999 13.8002C1.79999 13.0002 2.4 12.1002 2.7 11.3002C2.8 11.3002 5.39999 3.50019 14.4 9.30019Z" fill="url(#paint0_linear_154_9045)"/>
<defs>
<linearGradient id="paint0_linear_154_9045" x1="-3.4029" y1="18.6192" x2="23.032" y2="17.8049" gradientUnits="userSpaceOnUse">
<stop stop-color="#94938C"/>
<stop offset="0.0310882" stop-color="#A6A59D"/>
<stop offset="0.0939206" stop-color="#C5C3BB"/>
<stop offset="0.1552" stop-color="#DBD9D0"/>
<stop offset="0.2138" stop-color="#E8E7DD"/>
<stop offset="0.2666" stop-color="#EDEBE1"/>
<stop offset="0.7117" stop-color="#EDEBE1"/>
<stop offset="0.7637" stop-color="#E7E5DB"/>
<stop offset="0.835" stop-color="#D5D3CA"/>
<stop offset="0.9175" stop-color="#B8B7AF"/>
<stop offset="1" stop-color="#94938C"/>
</linearGradient>
</defs>
</svg>
