<svg width="21" height="39" viewBox="0 0 21 39" fill="none" xmlns="http://www.w3.org/2000/svg">
<path d="M8.90019 0.799805C7.90019 1.1998 6.8002 1.3998 5.8002 1.3998L5.7002 2.6998C6.5002 2.2998 7.70019 1.4998 8.90019 0.799805C8.90019 0.799805 9.00019 0.799805 8.90019 0.799805Z" fill="#8C8D92"/>
<path d="M11.0998 0.700195L5.4998 3.8002L5.2998 6.8002C6.6998 6.0002 11.1998 3.4002 12.6998 2.5002L12.5998 1.2002C11.9998 1.1002 11.4998 0.900195 11.0998 0.700195Z" fill="#8C8D92"/>
<path d="M12.9 3.7002L5.3 8.0002L5 11.7002C5 14.4002 13.5 14.7002 13.5 12.0002L12.9 3.7002Z" fill="#8C8D92"/>
<path d="M12.7002 2.5C11.5002 3.2 10.3002 4 9.0002 4.7C7.8002 5.4 6.5002 6.1 5.3002 6.7L5.2002 8L12.8002 3.7C12.7002 3.3 12.7002 2.9 12.7002 2.5Z" fill="#BBBCC1"/>
<path d="M13.2002 5.8999C12.0002 6.5999 10.8002 7.3999 9.5002 8.0999C8.3002 8.7999 7.0002 9.4999 5.8002 10.0999L5.7002 11.3999L13.3002 7.0999C13.3002 6.7999 13.2002 6.3999 13.2002 5.8999Z" fill="#BBBCC1"/>
<path d="M9.6001 0.5C8.1001 1.3 6.60009 2.2 5.70009 2.7L5.6001 3.8L11.0001 0.800003C10.5001 0.700003 10.1001 0.6 9.6001 0.5Z" fill="#BBBCC1"/>
<path d="M9.30009 13.9C11.6197 13.9 13.5001 13.1389 13.5001 12.2C13.5001 11.2611 11.6197 10.5 9.30009 10.5C6.9805 10.5 5.1001 11.2611 5.1001 12.2C5.1001 13.1389 6.9805 13.9 9.30009 13.9Z" fill="#527F3F"/>
<path d="M9.2998 13.4C10.9567 13.4 12.2998 12.8627 12.2998 12.2C12.2998 11.5373 10.9567 11 9.2998 11C7.64295 11 6.2998 11.5373 6.2998 12.2C6.2998 12.8627 7.64295 13.4 9.2998 13.4Z" fill="#79B565"/>
<path d="M4.30005 2.29961C4.30005 2.49961 4.20005 2.69961 4.10005 2.79961C4.00005 2.99961 4.00004 2.89961 2.90004 4.39961C2.40004 4.99961 2.20005 5.29961 2.10005 5.59961C2.00005 5.79961 1.80005 6.29961 1.60005 7.19961C1.50005 8.09961 1.60004 8.49961 1.70004 9.39961C1.70004 9.99961 1.80005 10.7996 1.60005 11.8996C1.00005 15.9996 1.00005 19.1996 1.80005 19.3996C2.60005 19.5996 4.30004 16.8996 5.90004 12.9996C5.90004 9.19961 5.90005 5.39961 6.00005 1.59961C5.40005 1.89961 4.90005 2.09961 4.30005 2.29961Z" fill="#333333"/>
<path d="M17.2001 19.0997C17.7001 19.9997 18.3001 20.4997 18.7001 20.2997C19.2001 20.1997 19.3001 19.3997 19.4001 18.8997C19.7001 17.2997 19.1001 16.2997 18.8001 14.9997C18.6001 14.0997 18.4001 12.6997 18.5001 10.9997C19.0001 10.2997 19.0001 9.89971 18.9001 9.69971C18.8001 9.39971 18.4001 9.09971 18.4001 8.59971C18.4001 8.49971 18.4001 8.49971 18.4001 8.49971C18.4001 7.89971 18.4001 6.09971 17.4001 4.59971C16.9001 3.89971 16.3001 3.19971 16.1001 2.99971C15.3001 2.19971 14.6001 1.79971 14.4001 1.59971C13.7001 1.19971 13.1001 0.899707 12.6001 0.699707C12.8001 4.19971 13.0001 7.59971 13.2001 11.0997C13.6001 11.8997 14.0001 12.5997 14.4001 13.3997C15.4001 15.3997 16.3001 17.2997 17.2001 19.0997Z" fill="#333333"/>
<path d="M19.3999 11.6998C19.4999 10.1998 19.4999 9.49979 19.2999 8.29979C19.1999 7.59979 19.0999 6.89979 18.6999 5.89979C17.5999 3.29979 15.2999 1.99979 14.4999 1.49979C13.7999 1.09979 12.3999 0.299783 10.4999 0.199783C9.99991 0.199783 5.79991 -0.100214 3.09991 2.99979C1.79991 4.49979 1.49991 5.99979 1.09991 8.39979C0.599913 11.0998 0.69991 13.5998 0.79991 15.3998C0.79991 16.2998 0.89991 17.1998 0.79991 17.7998C0.79991 18.0998 0.79991 18.4998 0.79991 18.7998C1.09991 18.7998 1.29991 18.6998 1.59991 18.6998C1.99991 17.9998 1.8999 16.8998 1.8999 15.2998C1.7999 13.5998 1.7999 11.1998 2.1999 8.49979C2.5999 6.19979 2.89991 4.89978 3.99991 3.59978C6.29991 0.899785 10.0999 1.09978 10.4999 1.09978C12.1999 1.19978 13.4999 1.89979 14.0999 2.29979C14.8999 2.69979 16.8999 3.89978 17.8999 6.19978C18.2999 6.99978 18.3999 7.69979 18.4999 8.29979C18.6999 9.39979 18.6999 10.0998 18.5999 11.4998C18.5999 12.0998 18.5999 12.6998 18.4999 13.5998C18.3999 16.3998 18.4999 17.8998 19.4999 18.5998C19.4999 17.7998 19.4999 16.8998 19.4999 16.0998C19.4999 15.4998 19.4999 14.6998 19.4999 13.5998C19.2999 12.8998 19.2999 12.2998 19.3999 11.6998Z" fill="#B36766"/>
<path d="M14.0999 11.6996C14.0999 11.6996 21.1999 21.0996 19.8999 28.7996C19.4999 31.2996 18.5999 33.8996 17.0999 35.9996C16.3999 36.9996 15.3999 37.8996 14.1999 38.2996C12.5999 38.7996 10.5999 38.3996 8.9999 38.0996C8.1999 37.8996 7.3999 37.6996 6.6999 37.2996C1.5999 34.8996 0.199911 28.8996 0.599911 23.6996C0.899911 20.0996 1.9999 16.5996 3.3999 13.2996C4.2999 11.0996 6.49991 10.5996 8.59991 10.2996C10.2999 10.0996 12.9999 10.2996 14.0999 11.6996Z" fill="url(#paint0_linear_154_9064)"/>
<defs>
<linearGradient id="paint0_linear_154_9064" x1="-5.62969" y1="24.1336" x2="26.9639" y2="24.7162" gradientUnits="userSpaceOnUse">
<stop stop-color="#94938C"/>
<stop offset="0.0616806" stop-color="#A4A29B"/>
<stop offset="0.1809" stop-color="#CCCAC2"/>
<stop offset="0.2666" stop-color="#EDEBE1"/>
<stop offset="0.7117" stop-color="#EDEBE1"/>
<stop offset="0.7719" stop-color="#E0DED5"/>
<stop offset="0.883" stop-color="#BEBDB4"/>
<stop offset="1" stop-color="#94938C"/>
</linearGradient>
</defs>
</svg>
