<svg width="20" height="38" viewBox="0 0 20 38" fill="none" xmlns="http://www.w3.org/2000/svg">
<path d="M8.3002 1.2998C8.2002 1.2998 7.4002 1.4998 7.1002 1.5998C6.7002 1.6998 6.3002 1.7998 5.8002 1.7998L5.7002 3.6998C6.6002 3.1998 8.30019 2.1998 9.90019 1.2998C9.30019 1.2998 8.8002 1.2998 8.3002 1.2998Z" fill="#8C8D92"/>
<path d="M11.3998 1.49951L5.4998 4.79951L5.2998 7.79951C6.6998 6.99951 11.1998 4.39951 12.6998 3.49951L12.5998 1.89951C12.0998 1.79951 11.6998 1.69951 11.3998 1.49951Z" fill="#8C8D92"/>
<path d="M12.9 4.69971L5.3 8.99971L5 12.6997C5 15.3997 13.5 15.6997 13.5 12.9997L12.9 4.69971Z" fill="#8C8D92"/>
<path d="M12.6001 3.49951C11.4001 4.19951 10.2001 4.99951 8.90009 5.69951C7.70009 6.39951 6.40009 7.09951 5.20009 7.69951L5.1001 8.99951L12.7001 4.69951C12.7001 4.29951 12.7001 3.89951 12.6001 3.49951Z" fill="#BBBCC1"/>
<path d="M13.2002 6.8999C12.0002 7.5999 10.8002 8.3999 9.5002 9.0999C8.3002 9.7999 7.0002 10.4999 5.8002 11.0999L5.7002 12.3999L13.3002 8.0999C13.2002 7.6999 13.2002 7.2999 13.2002 6.8999Z" fill="#BBBCC1"/>
<path d="M10.1001 1.19971C8.5001 2.09971 6.70009 3.09971 5.70009 3.69971L5.6001 4.79971L11.2001 1.69971C10.8001 1.49971 10.5001 1.39971 10.1001 1.19971Z" fill="#BBBCC1"/>
<path d="M9.2 14.7999C11.5196 14.7999 13.4 14.0388 13.4 13.0999C13.4 12.161 11.5196 11.3999 9.2 11.3999C6.8804 11.3999 5 12.161 5 13.0999C5 14.0388 6.8804 14.7999 9.2 14.7999Z" fill="#527F3F"/>
<path d="M9.2002 14.2999C10.857 14.2999 12.2002 13.7626 12.2002 13.0999C12.2002 12.4372 10.857 11.8999 9.2002 11.8999C7.54334 11.8999 6.2002 12.4372 6.2002 13.0999C6.2002 13.7626 7.54334 14.2999 9.2002 14.2999Z" fill="#79B565"/>
<path d="M4.20001 2.5998C4.20001 2.6998 4.10002 2.7998 4.10002 2.8998C4.00002 3.0998 4 2.9998 2.9 4.4998C2.4 5.0998 2.20002 5.3998 2.10002 5.6998C2.00002 5.8998 1.80002 6.3998 1.60002 7.2998C1.50002 8.1998 1.60001 8.5998 1.70001 9.4998C1.70001 10.0998 1.80002 10.8998 1.60002 11.9998C1.70002 12.2998 1.90001 12.6998 2.00001 13.2998C2.40001 15.2998 1.60001 16.5998 2.00001 16.7998C2.30001 16.9998 3.2 16.3998 5.9 13.1998C5.9 9.5998 5.90001 5.9998 6.00001 2.2998C5.40001 2.3998 4.80001 2.4998 4.20001 2.5998Z" fill="#333333"/>
<path d="M16.4 17.2999C17.7 18.2999 18.3 18.2999 18.5 18.0999C19 17.7999 18.4 16.5999 18.5 14.5999C18.5 13.3999 18.7 12.4999 18.9 11.7999C18.8 10.9999 18.8 10.1999 18.7 9.3999C18.7 9.2999 18.7 9.2999 18.7 9.2999C18.7 8.6999 18.7 6.8999 17.7 5.3999C17.2 4.6999 16.6 3.9999 16.4 3.7999C15.6 2.9999 14.9 2.5999 14.7 2.3999C14.2 2.0999 13.4 1.6999 12.5 1.3999C12.8 5.1999 13.2 8.9999 13.5 12.7999C14 13.0999 14.8 13.6999 15.5 14.7999C16.1 15.7999 16.3 16.6999 16.4 17.2999Z" fill="#333333"/>
<path d="M18.5001 6.39988C18.0001 5.19988 16.8001 3.49988 14.3001 2.09988C13.6001 1.69988 12.2001 0.899881 10.3001 0.799881C10.1001 0.799881 5.60005 0.499877 2.90005 3.59988L2.80006 3.69988C2.80006 3.69988 2.00005 4.69988 1.50005 5.89988C1.00005 6.99988 0.700048 9.29988 0.900048 12.4999C0.900048 12.9999 1.00005 13.3999 1.00005 13.7999C1.10005 14.2999 1.10006 14.8999 1.10006 15.1999C1.10006 15.2999 1.10006 15.3999 1.10006 15.3999C1.10006 15.4999 1.10006 15.5999 1.10006 15.7999C1.40006 15.7999 1.70005 15.7999 2.00005 15.7999C2.20005 15.3999 2.10005 14.6999 2.00005 13.6999C2.00005 13.2999 1.90005 12.8999 1.90005 12.3999C1.60005 9.39987 2.00005 7.29988 2.40005 6.29988C2.80005 5.19988 3.60006 4.29988 3.60006 4.29988C3.60006 4.29988 3.60005 4.19988 3.70005 4.19988C6.10005 1.39988 10.2001 1.69988 10.2001 1.69988C12.0001 1.79988 13.2001 2.59988 13.8001 2.89988C16.1001 4.19988 17.1001 5.69988 17.6001 6.79988C18.5001 8.89988 18.3001 11.0999 18.0001 12.7999C17.8001 14.2999 17.7001 15.4999 18.5001 16.0999C18.6001 15.4999 18.7 14.9999 18.9 14.3999C18.9 13.9999 19.0001 13.4999 19.1001 12.8999C19.2001 11.1999 19.5001 8.79988 18.5001 6.39988Z" fill="#B36766"/>
<path d="M13.5999 11.6999C13.5999 11.6999 16.7999 12.9999 17.7999 20.3999C17.7999 20.3999 18.7999 28.1999 19.0999 30.3999C19.3999 32.6999 19.3999 35.5999 15.8999 36.4999C12.2999 37.4999 9.09986 36.7999 7.19986 36.1999C5.29986 35.5999 2.39986 33.5999 1.69986 31.3999C0.999863 29.1999 1.69986 18.0999 2.69986 16.1999C3.49986 14.2999 5.79987 9.0999 13.5999 11.6999Z" fill="url(#paint0_linear_154_9084)"/>
<defs>
<linearGradient id="paint0_linear_154_9084" x1="23.6126" y1="24.6688" x2="-2.11434" y2="23.3798" gradientUnits="userSpaceOnUse">
<stop stop-color="#94938C"/>
<stop offset="0.1599" stop-color="#D1CFC6"/>
<stop offset="0.2296" stop-color="#EDEBE1"/>
<stop offset="0.7988" stop-color="#EDEBE1"/>
<stop offset="0.9762" stop-color="#9F9E96"/>
<stop offset="1" stop-color="#94938C"/>
</linearGradient>
</defs>
</svg>
