<svg width="26" height="46" viewBox="0 0 26 46" fill="none" xmlns="http://www.w3.org/2000/svg">
<path d="M15.8004 1C14.9004 1 13.9004 0.999998 13.0004 1.1C12.5004 1.2 12.0004 1.1 11.6004 1L10.1004 1.8L9.90039 4.9C11.4004 4.1 14.6004 2.2 16.3004 1.3C16.2004 1.2 16.0004 1.1 15.8004 1Z" fill="#8C8D92"/>
<path d="M16.6004 2.1001L9.6004 6.0001L9.40039 9.0001C10.8004 8.2001 15.3004 5.6001 16.8004 4.7001L16.6004 2.1001Z" fill="#8C8D92"/>
<path d="M17.1002 5.8999L9.5002 10.1999L9.2002 13.8999C9.2002 16.5999 17.7002 16.8999 17.7002 14.1999L17.1002 5.8999Z" fill="#8C8D92"/>
<path d="M16.8003 4.7002C15.6003 5.4002 14.4003 6.2002 13.1003 6.9002C11.9003 7.6002 10.6003 8.3002 9.40028 8.9002L9.30029 10.2002L16.9003 5.9002C16.9003 5.5002 16.9003 5.1002 16.8003 4.7002Z" fill="#BBBCC1"/>
<path d="M16.7003 1C15.1003 1.9 11.5003 4 9.90028 4.8L9.80029 5.9L16.8003 2L16.7003 1Z" fill="#BBBCC1"/>
<path d="M13.5003 16.1002C15.8199 16.1002 17.7003 15.3391 17.7003 14.4002C17.7003 13.4613 15.8199 12.7002 13.5003 12.7002C11.1807 12.7002 9.30029 13.4613 9.30029 14.4002C9.30029 15.3391 11.1807 16.1002 13.5003 16.1002Z" fill="#527F3F"/>
<path d="M13.5 15.6002C15.1569 15.6002 16.5 15.0629 16.5 14.4002C16.5 13.7375 15.1569 13.2002 13.5 13.2002C11.8431 13.2002 10.5 13.7375 10.5 14.4002C10.5 15.0629 11.8431 15.6002 13.5 15.6002Z" fill="#79B565"/>
<path d="M1.90015 14.8003C1.90015 14.6003 1.80015 14.0003 2.20015 13.4003C2.30015 13.2003 2.40015 13.2003 2.50015 13.0003C2.90015 12.4003 2.70015 11.7003 2.70015 11.1003C2.80015 10.4003 2.90015 9.30029 3.30015 8.10029C3.50015 7.40029 3.60015 6.90029 3.90015 6.30029C4.90015 4.40029 6.50015 3.40029 7.30015 2.90029C7.90015 2.50029 8.80016 2.10029 10.1002 1.80029C9.90016 5.50029 9.70015 9.10029 9.40015 12.8003C9.10015 12.9003 8.60015 13.2003 8.00015 13.6003C5.70015 15.4003 5.90015 17.6003 3.50015 20.0003C2.90015 20.6003 1.90015 21.6003 1.40015 21.3003C0.500145 20.9003 2.00015 16.5003 1.90015 14.8003Z" fill="#333333"/>
<path d="M22.1002 21.5003C22.6002 21.6003 23.2002 21.7003 23.8002 21.8003C24.5002 22.0003 25.1002 22.2003 25.7002 22.4003C26.2002 19.8003 25.9002 18.5003 25.5002 17.7003C25.3002 17.4003 25.1002 17.1003 25.1002 16.6003C25.1002 15.9003 25.5002 15.3003 25.2002 14.3003C24.3002 11.6003 24.9002 11.0003 24.0002 9.00029C23.4002 7.60029 22.7002 6.70029 22.5002 6.50029C21.7002 5.50029 20.9002 4.90029 19.7002 3.90029C19.0002 3.30029 17.9002 2.60029 16.7002 1.80029C16.9002 5.50029 17.1002 9.20029 17.3002 12.9003C17.8002 13.2003 18.3002 13.4003 18.7002 13.7003C21.8002 16.1003 22.1002 20.2003 22.1002 21.5003Z" fill="#333333"/>
<path d="M25.4003 14.1001C25.3003 12.6001 25.2003 11.8001 25.1003 11.6001C25.0003 11.2001 25.0003 10.9001 25.0003 10.9001C24.9003 10.5001 24.8003 10.2001 24.8003 10.0001V9.80013C24.0003 6.80013 22.4003 4.70013 18.7003 2.20013C17.8003 1.60013 16.1003 0.500129 14.6003 0.600129C9.5003 0.700129 4.90029 3.10013 3.50029 6.40013C2.10029 9.70013 1.8003 13.1001 1.6003 16.2001V16.5001C1.6003 17.1001 1.50028 17.8001 1.40028 18.3001C1.40028 19.0001 1.40029 19.6001 1.30029 20.3001C2.40029 19.7001 2.5003 18.1001 2.6003 16.6001V16.3001C2.8003 13.4001 3.10029 10.0001 4.50029 6.90013C5.70029 4.00013 10.0003 1.90013 14.7003 1.70013C16.0003 1.60013 17.5003 2.60013 18.3003 3.10013C21.8003 5.50013 23.3003 7.30013 24.0003 10.1001V10.3001C24.1003 10.5001 24.1003 10.8001 24.2003 11.2001V11.3001C24.2003 11.4001 24.3003 11.7001 24.3003 11.9001C24.3003 12.1001 24.4003 13.2001 24.5003 14.4001C24.6003 15.9001 24.7003 17.0001 24.8003 17.8001C25.1003 17.8001 25.5003 17.8001 25.8003 17.8001C25.6003 16.5001 25.5003 15.1001 25.4003 14.1001Z" fill="#B36766"/>
<path d="M25.2001 41.0003C25.2001 41.0003 27.5001 14.5003 15.5001 10.6003C15.5001 10.6003 1.90008 8.30026 0.60008 31.9003C0.60008 32.6003 0.500068 33.2003 0.400068 33.9003C0.300068 35.4003 0.40008 36.9003 0.60008 38.3003C0.90008 39.8003 1.40007 41.4003 2.40007 42.6003C2.90007 43.2003 3.50007 43.6003 4.20007 43.9003C4.80007 44.1003 5.50008 44.2003 6.10008 44.4003C6.90008 44.6003 7.70007 44.7003 8.50007 44.8003C8.90007 44.9003 9.40008 44.9003 9.80008 45.0003C11.4001 45.2003 13.0001 45.3003 14.6001 45.3003C17.2001 45.4003 19.9001 45.5003 22.4001 44.4003C24.1001 43.9003 25.2001 42.7003 25.2001 41.0003Z" fill="url(#paint0_linear_154_9104)"/>
<defs>
<linearGradient id="paint0_linear_154_9104" x1="30.186" y1="28.0184" x2="-4.45363" y2="28.036" gradientUnits="userSpaceOnUse">
<stop stop-color="#94938C"/>
<stop offset="0.2296" stop-color="#EDEBE1"/>
<stop offset="0.7876" stop-color="#EDEBE1"/>
<stop offset="1" stop-color="#94938C"/>
</linearGradient>
</defs>
</svg>
