<svg width="26" height="46" viewBox="0 0 26 46" fill="none" xmlns="http://www.w3.org/2000/svg">
<path d="M14.0999 0.899902C13.6999 0.999902 13.3999 0.999899 12.9999 1.0999C12.6999 1.0999 12.4999 1.1999 12.1999 1.1999C11.5999 1.2999 10.9999 1.4999 10.3999 1.6999C12.1999 2.6999 14.8999 4.2999 16.2999 4.9999L16.0999 1.8999L14.0999 0.899902Z" fill="#8C8D92"/>
<path d="M9.3997 2.1001L16.3997 6.0001L16.5997 9.0001C15.1997 8.2001 10.6997 5.6001 9.19971 4.7001L9.3997 2.1001Z" fill="#8C8D92"/>
<path d="M8.99991 5.8999L16.5999 10.1999L16.8999 13.8999C16.8999 16.5999 8.3999 16.8999 8.3999 14.1999L8.99991 5.8999Z" fill="#8C8D92"/>
<path d="M9.20009 4.69971C10.4001 5.39971 11.6001 6.19971 12.9001 6.89971C14.1001 7.59971 15.4001 8.29971 16.6001 8.89971L16.7001 10.1997L9.1001 5.89971C9.2001 5.49971 9.20009 5.09971 9.20009 4.69971Z" fill="#BBBCC1"/>
<path d="M9.3998 1C10.9998 1.9 14.5998 4 16.1998 4.8L16.2998 5.9L9.2998 2L9.3998 1Z" fill="#BBBCC1"/>
<path d="M12.5999 16.0997C14.9195 16.0997 16.7999 15.3386 16.7999 14.3997C16.7999 13.4608 14.9195 12.6997 12.5999 12.6997C10.2803 12.6997 8.3999 13.4608 8.3999 14.3997C8.3999 15.3386 10.2803 16.0997 12.5999 16.0997Z" fill="#527F3F"/>
<path d="M12.6001 15.5997C14.257 15.5997 15.6001 15.0625 15.6001 14.3997C15.6001 13.737 14.257 13.1997 12.6001 13.1997C10.9432 13.1997 9.6001 13.737 9.6001 14.3997C9.6001 15.0625 10.9432 15.5997 12.6001 15.5997Z" fill="#79B565"/>
<path d="M24.0999 14.7998C24.0999 14.5998 24.1999 13.9998 23.7999 13.3998C23.6999 13.1998 23.5999 13.1998 23.4999 12.9998C23.0999 12.3998 23.2999 11.6998 23.2999 11.0998C23.1999 10.3998 23.0999 9.2998 22.6999 8.0998C22.4999 7.3998 22.3999 6.8998 22.0999 6.2998C21.0999 4.3998 19.4999 3.3998 18.6999 2.8998C18.0999 2.4998 17.1999 2.0998 15.8999 1.7998C16.0999 5.4998 16.2999 9.0998 16.5999 12.7998C16.8999 12.8998 17.3999 13.1998 17.9999 13.5998C20.2999 15.3998 20.0999 17.5998 22.4999 19.9998C23.0999 20.5998 24.0999 21.5998 24.5999 21.2998C25.5999 20.8998 23.9999 16.4998 24.0999 14.7998Z" fill="#333333"/>
<path d="M3.99991 21.4998C3.49991 21.5998 2.89991 21.6998 2.29991 21.7998C1.59991 21.9998 0.999902 22.1998 0.399902 22.3998C0.399902 21.5998 0.399902 21.1998 0.399902 21.1998L0.499908 20.4998C0.699908 19.3998 0.299911 15.9998 0.799911 14.2998C1.69991 11.5998 1.09991 10.9998 1.99991 8.9998C2.59991 7.5998 3.29991 6.6998 3.49991 6.4998C4.29991 5.4998 5.09991 4.8998 6.29991 3.8998C6.99991 3.2998 8.09991 2.5998 9.29991 1.7998C9.09991 5.4998 8.89991 9.1998 8.69991 12.8998C8.19991 13.1998 7.69991 13.3998 7.29991 13.6998C4.29991 16.0998 3.99991 20.1998 3.99991 21.4998Z" fill="#333333"/>
<path d="M24.9 18.4C24.8 17.8 24.7 17.1 24.7 16.4V16.1C24.5 13.1 24.2 9.6 22.8 6.3C21.4 3 16.8 0.7 11.7 0.5H11.6C10.1 0.5 8.4 1.5 7.5 2.1C3.8 4.6 2.19999 6.7 1.39999 9.7V9.8C1.29999 10 1.3 10.3 1.2 10.7V10.8C1.2 10.9 1.10001 11.2 1.10001 11.4C1.10001 11.6 1 12.5 0.800003 14.1C0.700003 15.1 0.6 16.4 0.5 17.4C0.8 17.4 1 17.4 1.3 17.4C1.4 17.4 1.5 17.4 1.5 17.4C1.6 16.6 1.7 15.5 1.8 14.1C1.9 12.9 2.00001 11.7 2.10001 11.5C2.20001 11.2 2.2 10.8 2.2 10.8V10.7C2.3 10.3 2.39999 10 2.39999 9.8V9.6C3.09999 6.8 4.60001 5 8.10001 2.6C8.90001 2.1 10.3 1.2 11.6 1.2C11.6 1.2 11.6 1.2 11.7 1.2C16.4 1.3 20.7 3.5 21.9 6.4C23.2 9.5 23.6 12.9 23.8 15.8V16.1C23.9 17.3 24 18.6 24.6 19.4H25.2C24.9 19.3 24.9 18.8 24.9 18.4Z" fill="#B36766"/>
<path d="M0.899757 40.9998C0.899757 40.9998 -1.40023 14.4998 10.5998 10.5998C10.5998 10.5998 24.1998 8.29977 25.4998 31.8998C25.4998 32.5998 25.5998 33.1998 25.6998 33.8998C25.7998 35.3998 25.6998 36.8998 25.4998 38.2998C25.1998 39.7998 24.6998 41.3998 23.6998 42.5998C23.1998 43.1998 22.5998 43.5998 21.8998 43.8998C21.2998 44.0998 20.5998 44.1998 19.9998 44.3998C19.1998 44.5998 18.3998 44.6998 17.5998 44.7998C17.1998 44.8998 16.6998 44.8998 16.2998 44.9998C14.6998 45.1998 13.0998 45.2998 11.4998 45.2998C8.89976 45.3998 6.19976 45.4998 3.69976 44.3998C1.99976 43.8998 0.899757 42.6998 0.899757 40.9998Z" fill="url(#paint0_linear_154_9162)"/>
<defs>
<linearGradient id="paint0_linear_154_9162" x1="-4.10934" y1="28.019" x2="30.5303" y2="28.0366" gradientUnits="userSpaceOnUse">
<stop stop-color="#94938C"/>
<stop offset="0.2296" stop-color="#EDEBE1"/>
<stop offset="0.7876" stop-color="#EDEBE1"/>
<stop offset="1" stop-color="#94938C"/>
</linearGradient>
</defs>
</svg>
