<svg width="25" height="43" viewBox="0 0 25 43" fill="none" xmlns="http://www.w3.org/2000/svg">
<path d="M6.22939 2.95904C5.69588 1.22333 7.31274 0.406732 8.68962 1.37258C11.3513 3.23941 12.7404 6.40417 13.953 9.30671C14.5147 10.6509 17.004 15.3468 15.4225 16.6112C13.8532 17.8655 8.19648 15.9883 8.12525 12.8848C8.08669 11.2008 8.14204 9.50677 7.91657 7.83321C7.67159 6.01447 6.75246 4.65938 6.22939 2.95904Z" fill="url(#paint0_linear_79_6381)"/>
<path d="M18.7278 4.11905C18.7278 4.11905 14.3285 3.00485 14.4886 4.84718C14.6488 6.68951 15.8279 10.626 15.8279 10.626L20.7638 10.3143C20.7638 10.3143 19.9128 6.55296 18.7278 4.11905Z" fill="#B46766"/>
<path d="M22.0187 26.8838C22.9809 20.576 22.7695 19.1406 19.9663 13.3033C19.3149 11.9464 16.9472 11.9473 16.5185 13.3487C16.4572 13.5487 15.5045 12.4322 14.8558 14.8208C14.7129 15.3466 14.3826 15.8665 13.8645 16.0348C13.591 16.1237 13.2929 16.1056 13.0121 16.0448C11.2346 15.6596 9.94849 13.8676 8.85561 12.5529C7.29274 10.6734 6.39584 8.56201 5.61509 6.26418C5.23582 5.14816 4.80212 4.06389 3.84897 3.32033C3.61941 3.14113 1.3706 0.381924 1.01674 0.46676C-0.148272 0.745312 0.254129 3.88832 0.296319 4.60285C0.622958 10.1594 4.69687 20.0203 4.69687 20.0203C4.69687 20.0203 5.67724 26.2301 4.69687 28.1913C3.71605 30.1525 20.7117 30.1525 22.0187 26.8838Z" fill="url(#paint1_linear_79_6381)"/>
<path d="M23.0003 27.8635C22.9998 27.863 20.3853 24.9219 14.5022 24.9219C8.61908 24.9219 4.37004 26.8831 3.38967 29.4976C2.4093 32.1121 2.08221 39.3027 5.67751 40.6102C6.81485 41.0239 8.06515 41.1265 9.09043 40.3933C9.96737 39.7664 10.314 38.6141 11.6328 39.0414C12.2076 39.2274 12.6816 39.6307 13.1689 39.9882C15.3111 41.5597 18.9518 43.1898 21.3916 41.3347C24.7269 38.7987 25.9046 31.1312 23.0003 27.8635Z" fill="url(#paint2_linear_79_6381)"/>
<path d="M6.19814 2.95514C5.66462 1.21942 7.28149 0.402827 8.65837 1.36868C11.32 3.2355 12.7092 6.40026 13.9218 9.3028C14.4835 10.647 16.9727 15.3429 15.3912 16.6072C13.822 17.8616 8.16523 15.9843 8.09401 12.8808C8.05545 11.1968 8.1108 9.50287 7.88532 7.8293C7.64034 6.01057 6.72122 4.65547 6.19814 2.95514Z" fill="url(#paint3_linear_79_6381)"/>
<path d="M22.9691 27.8595C22.9686 27.8591 20.3541 24.918 14.471 24.918C8.58784 24.918 4.3388 26.8792 3.35842 29.4937C2.37805 32.1086 2.05096 39.2988 5.64627 40.6063C6.78361 41.02 8.03391 41.1225 9.0592 40.3894C9.93614 39.7624 10.2827 38.6101 11.6015 39.0375C12.1763 39.2235 12.6504 39.6268 13.1377 39.9843C15.2799 41.5558 18.9206 43.1858 21.3604 41.3308C24.6957 38.7948 25.8734 31.1273 22.9691 27.8595Z" fill="url(#paint4_linear_79_6381)"/>
<path d="M18.5037 5.64146L16.1456 4.8566L14.8354 5.50491L14.3767 5.41871C14.3132 4.90696 14.247 4.3952 14.1789 3.8839C14.085 3.17933 13.6064 1.76293 14.1358 1.12914C14.6548 0.507593 17.125 3.03279 17.5397 3.45335C18.1599 4.08216 18.721 4.77039 19.211 5.50536L18.5037 5.64146Z" fill="url(#paint5_linear_79_6381)"/>
<path d="M2.05399 6.94032C2.0118 6.22625 1.60985 3.0828 2.77441 2.80425C3.12827 2.71942 3.59146 3.13498 3.82102 3.31418C4.77417 4.05774 5.20788 5.14199 5.58715 6.25801C6.36791 8.55582 7.26481 10.6672 8.82769 12.5467C9.92103 13.8619 11.2067 15.6534 12.9842 16.0386C13.2655 16.0994 13.5635 16.1175 13.8366 16.0286C14.3547 15.8603 14.685 15.3399 14.8279 14.8146C15.3523 12.8833 15.047 10.8128 14.7793 8.82212C15.0016 9.11428 15.2017 9.39329 15.2017 9.39329L17.3498 8.43787C17.3498 8.43787 19.8649 9.42731 20.0745 9.35881C20.2841 9.29076 20.0219 8.40339 20.0219 8.40339L20.726 8.48323C22.9335 14.1091 22.8791 21.0493 21.9904 26.8771C20.6829 30.1453 3.68719 30.1453 4.66756 28.1845C5.64794 26.2238 4.66756 20.0136 4.66756 20.0136C4.66756 20.0136 2.38108 12.4968 2.05399 6.94032Z" fill="url(#paint6_linear_79_6381)"/>
<defs>
<linearGradient id="paint0_linear_79_6381" x1="12.7675" y1="17.5046" x2="5.55692" y2="-17.9148" gradientUnits="userSpaceOnUse">
<stop offset="0.1599" stop-color="#BFAB8D"/>
<stop offset="0.5078" stop-color="#E7E1D2"/>
<stop offset="0.7297" stop-color="#CCBFA6"/>
</linearGradient>
<linearGradient id="paint1_linear_79_6381" x1="27.8856" y1="14.9182" x2="0.870858" y2="15.0158" gradientUnits="userSpaceOnUse">
<stop offset="0.1599" stop-color="#BFAB8D"/>
<stop offset="0.5078" stop-color="#E7E1D2"/>
<stop offset="0.7297" stop-color="#CCBFA6"/>
</linearGradient>
<linearGradient id="paint2_linear_79_6381" x1="29.6199" y1="33.4948" x2="-2.55739" y2="33.611" gradientUnits="userSpaceOnUse">
<stop stop-color="#94938C"/>
<stop offset="0.2296" stop-color="#EDEBE1"/>
<stop offset="0.7988" stop-color="#EDEBE1"/>
<stop offset="1" stop-color="#94938C"/>
</linearGradient>
<linearGradient id="paint3_linear_79_6381" x1="12.743" y1="17.4897" x2="5.53248" y2="-17.9296" gradientUnits="userSpaceOnUse">
<stop offset="0.1599" stop-color="#BFAB8D"/>
<stop offset="0.5078" stop-color="#E7E1D2"/>
<stop offset="0.7297" stop-color="#CCBFA6"/>
</linearGradient>
<linearGradient id="paint4_linear_79_6381" x1="29.83" y1="33.49" x2="-2.72934" y2="33.6076" gradientUnits="userSpaceOnUse">
<stop stop-color="#94938C"/>
<stop offset="0.2296" stop-color="#EDEBE1"/>
<stop offset="0.7988" stop-color="#EDEBE1"/>
<stop offset="1" stop-color="#94938C"/>
</linearGradient>
<linearGradient id="paint5_linear_79_6381" x1="20.4839" y1="3.32135" x2="14.0463" y2="3.34459" gradientUnits="userSpaceOnUse">
<stop offset="0.1599" stop-color="#BFAB8D"/>
<stop offset="0.5078" stop-color="#E7E1D2"/>
<stop offset="0.7297" stop-color="#CCBFA6"/>
</linearGradient>
<linearGradient id="paint6_linear_79_6381" x1="27.5135" y1="16.0838" x2="2.57613" y2="16.1739" gradientUnits="userSpaceOnUse">
<stop offset="0.1599" stop-color="#BFAB8D"/>
<stop offset="0.5078" stop-color="#E7E1D2"/>
<stop offset="0.7297" stop-color="#CCBFA6"/>
</linearGradient>
</defs>
</svg>
