<svg width="19" height="61" viewBox="0 0 19 61" fill="none" xmlns="http://www.w3.org/2000/svg">
<path d="M8.11151 6.43599C8.11151 6.43599 13.8634 4.54054 14.4286 6.00364C14.9939 7.46674 15.0937 9.66115 15.0937 9.66115L8.94262 12.1219C8.94262 12.1219 7.47958 8.59729 8.11151 6.43599Z" fill="#B46766"/>
<path d="M9.75606 8.48112L13.0351 6.13017L13.3445 7.61505L15.1594 6.52623C15.2374 5.04135 15.2833 3.49205 14.6748 2.1714C14.3409 1.44598 13.7887 0.379838 12.8826 0.295001C11.3445 0.151186 10.3568 2.65729 9.89581 3.71753C9.89581 3.71753 9.20299 5.2328 8.33594 7.81602L9.75606 8.48112Z" fill="url(#paint0_linear_79_6417)"/>
<path d="M14.7013 16.3974C14.802 13.9413 14.9654 11.4879 15.0593 9.03125L14.8315 9.22451L13.0373 9.90501L12.6662 9.10066L10.3776 10.2761C10.3776 10.2761 9.38768 9.53391 9.26383 9.59561C9.18081 9.63735 8.14738 10.2099 7.47869 10.5805C5.71942 16.6941 3.92478 26.159 5.65774 35.911C5.65774 35.911 16.0596 34.6779 16.574 37.5016C15.1151 30.6349 14.4142 23.4075 14.7013 16.3974Z" fill="url(#paint1_linear_79_6417)"/>
<path d="M6.62768 34.768C6.62768 34.768 3.35955 36.0754 2.37874 43.5927C2.37874 43.5927 1.39837 51.4371 1.07128 53.725C0.744652 56.0128 0.744653 58.9544 4.33943 59.9348C7.93467 60.9152 11.2028 60.2614 13.164 59.6082C15.1251 58.9549 18.0667 56.9932 18.7204 54.7054C19.3741 52.4175 18.7204 41.3049 17.74 39.3437C16.7597 37.3825 14.4719 32.1535 6.62768 34.768Z" fill="url(#paint2_linear_79_6417)"/>
<defs>
<linearGradient id="paint0_linear_79_6417" x1="13.8046" y1="4.33938" x2="8.37978" y2="4.43635" gradientUnits="userSpaceOnUse">
<stop stop-color="#BFAB8D"/>
<stop offset="0.5078" stop-color="#E7E1D2"/>
<stop offset="1" stop-color="#CCBFA6"/>
</linearGradient>
<linearGradient id="paint1_linear_79_6417" x1="14.0231" y1="23.2985" x2="5.04238" y2="23.4591" gradientUnits="userSpaceOnUse">
<stop stop-color="#BFAB8D"/>
<stop offset="0.5078" stop-color="#E7E1D2"/>
<stop offset="1" stop-color="#CCBFA6"/>
</linearGradient>
<linearGradient id="paint2_linear_79_6417" x1="-3.53746" y1="47.8925" x2="22.4725" y2="46.5894" gradientUnits="userSpaceOnUse">
<stop stop-color="#94938C"/>
<stop offset="0.1599" stop-color="#D1CFC6"/>
<stop offset="0.2296" stop-color="#EDEBE1"/>
<stop offset="0.7988" stop-color="#EDEBE1"/>
<stop offset="0.9762" stop-color="#9F9E96"/>
<stop offset="1" stop-color="#94938C"/>
</linearGradient>
</defs>
</svg>
