<svg width="20" height="70" viewBox="0 0 20 70" fill="none" xmlns="http://www.w3.org/2000/svg">
<path d="M4.24894 13.0254C4.24894 13.0254 11.0246 10.793 11.6902 12.5164C12.3562 14.2394 12.4737 16.8244 12.4737 16.8244L5.22799 19.7223C5.22799 19.7223 3.50491 15.5709 4.24894 13.0254Z" fill="#B46766"/>
<path d="M5.76809 13.2584L7.17446 13.4399L8.62619 13.6214L9.89646 12.8501L10.1233 13.9389L11.575 13.2131L12.4325 12.239L12.54 12.3529L12.1598 9.66177C12.1598 9.66177 8.74006 0.78125 7.4326 0.78125C6.12513 0.78125 4.81765 4.7032 4.81765 4.7032C4.81765 4.7032 4.74961 8.56707 4.64844 13.9702L5.76809 13.2584Z" fill="url(#paint0_linear_79_6425)"/>
<path d="M13.1714 16.8246L12.5734 17.1149L11.5299 16.5251C11.5299 16.5251 9.48825 17.4325 9.2614 17.4778C9.03455 17.5232 8.26326 16.3437 8.26326 16.3437L6.04014 17.1603L5.08737 15.7539C5.08737 15.7539 4.89409 15.895 4.60826 16.1046C4.41453 26.323 4.13097 40.4589 3.95312 45.5164C3.95312 45.5164 16.0356 42.4881 17.0396 44.2153L13.1714 16.8246Z" fill="url(#paint1_linear_79_6425)"/>
<path d="M6.27628 42.0192C6.27583 42.0201 -0.914154 51.4983 0.393283 59.3423C0.815183 61.8733 1.67893 64.5187 3.20458 66.606C3.94857 67.6241 4.91532 68.5455 6.13429 68.9492C7.74658 69.4832 9.8157 69.064 11.4321 68.7034C12.2278 68.526 13.0095 68.2814 13.7507 67.9403C18.9333 65.5567 20.3024 59.4112 19.8855 54.2031C19.5925 50.5447 18.4819 46.9956 17.0384 43.6429C16.102 41.468 13.9208 40.8982 11.7437 40.5902C10.1051 40.3583 7.39046 40.5507 6.27628 42.0192Z" fill="url(#paint2_linear_79_6425)"/>
<defs>
<linearGradient id="paint0_linear_79_6425" x1="11.2839" y1="7.5377" x2="5.42527" y2="7.35722" gradientUnits="userSpaceOnUse">
<stop stop-color="#BFAB8D"/>
<stop offset="0.5078" stop-color="#E7E1D2"/>
<stop offset="1" stop-color="#CCBFA6"/>
</linearGradient>
<linearGradient id="paint1_linear_79_6425" x1="15.1007" y1="30.9611" x2="5.31084" y2="30.6595" gradientUnits="userSpaceOnUse">
<stop stop-color="#BFAB8D"/>
<stop offset="0.5078" stop-color="#E7E1D2"/>
<stop offset="1" stop-color="#CCBFA6"/>
</linearGradient>
<linearGradient id="paint2_linear_79_6425" x1="26.235" y1="54.5509" x2="-6.71688" y2="55.1399" gradientUnits="userSpaceOnUse">
<stop stop-color="#94938C"/>
<stop offset="0.0617" stop-color="#A4A29B"/>
<stop offset="0.1809" stop-color="#CCCAC2"/>
<stop offset="0.2666" stop-color="#EDEBE1"/>
<stop offset="0.7117" stop-color="#EDEBE1"/>
<stop offset="0.7719" stop-color="#E0DED5"/>
<stop offset="0.883" stop-color="#BEBDB4"/>
<stop offset="1" stop-color="#94938C"/>
</linearGradient>
</defs>
</svg>
