<svg width="19" height="58" viewBox="0 0 19 58" fill="none" xmlns="http://www.w3.org/2000/svg">
<path d="M4.79715 8.95654C4.79715 8.95654 11.5724 6.05349 12.2379 8.29463C12.9034 10.5358 12.9307 15.6242 12.9307 15.6242L4.53812 17.0305C4.53812 17.0305 4.05317 12.267 4.79715 8.95654Z" fill="#B46766"/>
<path d="M14.0122 24.3122C13.422 22.5415 12.8318 18.2834 12.5265 14.6037L11.4554 15.6077L10.6474 14.4327L9.32541 16.1957L8.59093 14.0657L5.43253 16.1957L5.13855 13.9922L4.4762 14.4699C4.02118 16.5259 3.78529 18.4073 3.8801 19.7365C4.20674 24.3122 4.31017 38.1009 4.25845 38.0706C4.20673 38.0397 15.3192 38.3668 15.3192 38.3668C15.3192 38.3668 14.9926 27.2538 14.0122 24.3122Z" fill="url(#paint0_linear_79_6432)"/>
<path d="M6.23821 9.21953L7.85405 10.101L8.95593 8.26459L10.3513 9.73354L12.1141 8.1176L12.448 8.30133C12.7025 5.73451 12.7025 2.41553 12.7025 2.41553C12.7025 2.41553 13.0291 -0.525999 10.0877 1.76181C8.70006 2.84107 7.16679 5.88513 5.96875 9.27988L6.23821 9.21953Z" fill="url(#paint1_linear_79_6432)"/>
<path d="M9.95312 56.287C9.95312 56.287 15.2992 57.1222 17.0404 54.281C18.7811 51.4399 10.503 54.5977 9.95312 56.287Z" fill="#D8D6D0"/>
<path d="M4.53122 37.059C4.53122 37.059 -2.98608 48.1717 2.57001 54.0548C3.24869 54.7735 4.31619 55.2788 5.14323 55.8046C5.99703 56.3477 6.90799 57.1017 7.94871 57.2192C9.14231 57.3544 10.0161 56.1054 11.1893 55.8618C13.0543 55.4744 14.8794 55.7811 16.4722 54.509C17.7874 53.4587 18.585 51.8214 18.8558 50.1819C19.1933 48.1363 18.844 46.0576 18.4366 44.0492C18.2629 43.1931 17.9671 42.3783 17.6209 41.5767C17.2526 40.722 16.587 39.8877 16.2976 39.0193C16.2976 39.0203 13.6826 31.1759 4.53122 37.059Z" fill="url(#paint2_linear_79_6432)"/>
<defs>
<linearGradient id="paint0_linear_79_6432" x1="14.2153" y1="26.3079" x2="1.32281" y2="25.9108" gradientUnits="userSpaceOnUse">
<stop stop-color="#BFAB8D"/>
<stop offset="0.5078" stop-color="#E7E1D2"/>
<stop offset="1" stop-color="#CCBFA6"/>
</linearGradient>
<linearGradient id="paint1_linear_79_6432" x1="11.8331" y1="5.55633" x2="4.82805" y2="5.34056" gradientUnits="userSpaceOnUse">
<stop stop-color="#BFAB8D"/>
<stop offset="0.5078" stop-color="#E7E1D2"/>
<stop offset="1" stop-color="#CCBFA6"/>
</linearGradient>
<linearGradient id="paint2_linear_79_6432" x1="22.5677" y1="46.4555" x2="-4.15868" y2="45.6322" gradientUnits="userSpaceOnUse">
<stop stop-color="#94938C"/>
<stop offset="0.0311" stop-color="#A6A59D"/>
<stop offset="0.0939" stop-color="#C5C3BB"/>
<stop offset="0.1552" stop-color="#DBD9D0"/>
<stop offset="0.2138" stop-color="#E8E7DD"/>
<stop offset="0.2666" stop-color="#EDEBE1"/>
<stop offset="0.7117" stop-color="#EDEBE1"/>
<stop offset="0.7637" stop-color="#E7E5DB"/>
<stop offset="0.835" stop-color="#D5D3CA"/>
<stop offset="0.9175" stop-color="#B8B7AF"/>
<stop offset="1" stop-color="#94938C"/>
</linearGradient>
</defs>
</svg>
