<svg width="19" height="55" viewBox="0 0 19 55" fill="none" xmlns="http://www.w3.org/2000/svg">
<path d="M5.21122 7.77685C5.21122 7.77685 11.9865 4.8738 12.652 7.11494C13.3175 9.35608 13.3447 14.4445 13.3447 14.4445L4.95218 15.8508C4.95218 15.8508 4.46723 11.0873 5.21122 7.77685Z" fill="#B46766"/>
<path d="M9.51562 54.2686C9.51562 54.2686 14.8144 55.3642 16.6921 52.6118C18.5702 49.8589 10.1471 52.6082 9.51562 54.2686Z" fill="#D8D6D0"/>
<path d="M8.74149 54.5037C8.74149 54.5037 3.09836 54.8852 1.69426 51.2259C0.29017 47.5666 8.40895 52.3855 8.74149 54.5037Z" fill="#D8D6D0"/>
<path d="M6.48842 33.9724C6.4054 34.0132 6.32646 34.0595 6.25206 34.1117C4.81439 35.1161 3.60264 36.7434 2.6885 38.2155C1.29937 40.4521 0.307668 43.0103 0.574877 45.6797C0.757251 47.5043 0.961849 49.6026 1.87372 51.2412C2.40632 52.1984 3.60355 52.6371 4.57848 52.9765C5.41368 53.2673 6.25659 53.5404 7.07546 53.8756C7.83172 54.185 8.57392 54.7126 9.4259 54.6446C10.4054 54.5661 11.0895 53.7985 11.873 53.3004C13.1024 52.5192 14.5741 52.1186 16.0304 52.1889C16.2862 52.2011 16.5485 52.227 16.7934 52.1521C17.1514 52.0433 17.4131 51.7393 17.6241 51.4308C18.585 50.0272 18.5595 48.6671 18.5677 47.0348C18.5763 45.3762 18.5441 43.7076 18.2279 42.0744C17.6649 39.1642 15.7423 36.7566 14.7315 34.0096C14.6734 33.8513 14.6154 33.6893 14.5088 33.5587C14.3264 33.335 14.0279 33.2384 13.7403 33.2152C13.2013 33.1717 12.6583 33.2552 12.1243 33.3123C11.1117 33.4212 10.1232 33.5342 9.10515 33.604C8.29808 33.6598 7.23969 33.6009 6.48842 33.9724Z" fill="url(#paint0_linear_79_6446)"/>
<path d="M6.1733 8.87886L8.21617 8.41657C8.21617 8.41657 8.57865 8.87886 8.67755 8.85572C8.77645 8.83258 11.0498 8.02371 11.0498 8.02371L12.0383 8.57853L12.5051 9.44139C12.5442 8.45332 12.6158 7.46571 12.7288 6.48399C12.8526 5.40746 13.1629 4.44388 13.0527 3.32833C12.9407 2.19418 12.4085 0.476634 10.9109 0.941182C9.78359 1.29095 9.08177 2.5308 8.51287 3.4735C7.50664 5.14024 6.75444 6.94535 6.07031 8.76952L6.1733 8.87886Z" fill="url(#paint1_linear_79_6446)"/>
<path d="M14.99 31.0097C14.9033 29.5298 14.7672 28.0531 14.5826 26.5824C14.2364 23.8222 13.5473 21.1651 13.0451 18.4399C12.6255 16.1648 12.4663 13.779 12.4663 11.4417L11.8733 12.2079L10.5223 11.8613L9.6 12.5545L8.94129 11.1445C8.94129 11.1445 6.86579 12.9474 6.73378 12.9243C6.63034 12.9061 5.2875 12.8167 4.71589 12.7791C4.48724 13.5825 4.28989 14.3941 4.13882 15.2166C3.8081 17.0163 3.84848 18.7779 3.87978 20.5949C3.92877 23.4793 3.99773 26.3632 4.06895 29.2472C4.11477 31.1081 4.00861 33.0494 4.15514 34.9366C4.18236 35.29 4.13066 35.7092 4.34842 35.887C4.38471 35.9165 4.42825 35.9397 4.48132 35.9542C4.74808 36.0291 5.57012 35.6266 5.86092 35.5504C6.82495 35.2982 7.79987 35.0872 8.78069 34.9117C9.82003 34.7257 10.8698 34.5492 11.9282 34.5406C12.4885 34.536 13.0519 34.5751 13.6004 34.6939C14.0876 34.7996 14.6125 35.1335 15.0739 35.1752C15.4092 33.8646 15.068 32.3403 14.99 31.0097Z" fill="url(#paint2_linear_79_6446)"/>
<defs>
<linearGradient id="paint0_linear_79_6446" x1="24.5178" y1="44.3318" x2="-5.71843" y2="43.4004" gradientUnits="userSpaceOnUse">
<stop stop-color="#94938C"/>
<stop offset="0.2666" stop-color="#EDEBE1"/>
<stop offset="0.7117" stop-color="#EDEBE1"/>
<stop offset="1" stop-color="#94938C"/>
</linearGradient>
<linearGradient id="paint1_linear_79_6446" x1="13.5465" y1="5.36794" x2="6.4141" y2="4.61891" gradientUnits="userSpaceOnUse">
<stop stop-color="#BFAB8D"/>
<stop offset="0.5078" stop-color="#E7E1D2"/>
<stop offset="1" stop-color="#CCBFA6"/>
</linearGradient>
<linearGradient id="paint2_linear_79_6446" x1="17.4384" y1="24.6411" x2="3.07907" y2="23.1331" gradientUnits="userSpaceOnUse">
<stop stop-color="#BFAB8D"/>
<stop offset="0.5078" stop-color="#E7E1D2"/>
<stop offset="1" stop-color="#CCBFA6"/>
</linearGradient>
</defs>
</svg>
