<svg width="26" height="51" viewBox="0 0 26 51" fill="none" xmlns="http://www.w3.org/2000/svg">
<path d="M6.47597 8.06142C6.47597 8.06142 13.8026 7.25163 13.7886 9.58937C13.7745 11.9271 12.3223 16.804 12.3223 16.804L3.88281 15.7121C3.88281 15.7116 4.8024 11.013 6.47597 8.06142Z" fill="#B46766"/>
<path d="M14.6894 2.23181C14.6894 2.23181 15.5954 0.177608 17.4291 0.692067C19.2628 1.20653 19.8971 6.00043 19.565 9.5345C19.2333 13.0686 17.6614 24.2814 14.9589 24.5124C12.2564 24.7433 7.31417 18.3924 9.56254 14.8542C11.8118 11.3165 15.5319 5.10625 14.6894 2.23181Z" fill="url(#paint0_linear_79_6462)"/>
<path d="M21.81 34.8498C22.0822 34.9328 22.4723 35.6722 22.6234 35.885C23.2217 36.7293 23.7398 37.638 24.1277 38.5988C25.173 41.1879 25.0214 44.0273 23.0607 46.1482C23.0375 46.1731 23.0139 46.1981 22.9908 46.223C22.8851 46.3342 22.7749 46.4426 22.6887 46.5692C22.4469 46.9244 22.3893 47.3694 22.1602 47.7337C21.9442 48.0781 21.6262 48.4001 21.3177 48.6601C20.5923 49.2725 19.626 49.6981 18.6611 49.6028C18.3294 49.5701 18.0132 49.4522 17.7016 49.3351C16.3483 48.827 14.8789 48.2477 14.1612 46.904C14.2428 47.0573 13.8704 47.6811 13.7765 47.8081C13.5515 48.1139 13.2756 48.2468 12.9277 48.3811C11.7786 48.8252 10.5278 49.1818 9.42631 49.7326C8.66506 50.0256 8.02266 50.3042 7.24826 50.0501C6.79732 49.9022 6.34049 49.7725 5.89454 49.6092C5.0598 49.3038 3.67115 48.7694 3.67115 47.6865C3.67115 46.0121 2.27568 40.9892 5.62462 35.9662C8.9722 30.9451 21.7995 34.8466 21.81 34.8498Z" fill="#D8D6D0"/>
<path d="M21.824 30.7226C22.143 30.8197 22.6003 31.6862 22.7767 31.9352C23.4776 32.9242 24.0842 33.9885 24.5388 35.1136C25.7632 38.1463 25.5854 41.4722 23.2894 43.9555C23.2622 43.9845 23.2345 44.014 23.2072 44.0431C23.0834 44.1733 22.9545 44.3003 22.8534 44.4487C22.5698 44.8651 22.5027 45.3855 22.2346 45.8128C21.9815 46.2157 21.609 46.5931 21.2479 46.898C20.3982 47.6152 19.2663 48.1133 18.1366 48.0022C17.7483 47.9641 17.3781 47.8257 17.0129 47.6887C15.4278 47.094 13.7066 46.4148 12.866 44.8411C12.9617 45.0203 12.5253 45.7511 12.4155 45.9004C12.1519 46.2583 11.8284 46.4139 11.4215 46.5714C10.0755 47.0917 8.61059 47.5091 7.32037 48.1542C6.42891 48.4976 5.67674 48.8238 4.76941 48.5262C4.24134 48.3529 3.70601 48.2009 3.18384 48.0099C2.20619 47.6524 0.579809 47.0264 0.579809 45.7579C0.579809 43.7967 -1.05431 37.9136 2.86763 32.0305C6.78775 26.1492 21.8118 30.7189 21.824 30.7226Z" fill="url(#paint1_linear_79_6462)"/>
<path d="M5.97377 9.93135L6.87032 9.35566L7.43973 9.76939L9.45786 8.73461L9.40613 10.0802L10.7519 9.35566L10.8036 10.9081L12.6666 9.61425L12.6243 9.92364C12.9247 9.2173 13.2337 8.51593 13.4664 7.78328C13.9487 6.2667 14.603 3.25804 12.4646 2.68053C11.6017 2.44735 10.6829 2.88831 10.0382 3.5071C8.29135 5.18201 6.95879 7.45166 5.82812 9.70543L5.97377 9.93135Z" fill="url(#paint2_linear_79_6462)"/>
<path d="M25.1574 8.82762C25.0231 7.80143 24.8399 6.75937 24.4325 5.80168C24.1154 5.05631 23.3464 3.59325 22.3638 3.7053C22.0031 3.74659 21.6801 3.95165 21.4106 4.19526C20.8817 4.67297 20.5133 5.309 20.2697 5.97906C19.7675 7.36138 19.7784 8.84986 19.6817 10.298C19.5819 11.791 19.175 13.1737 18.8402 14.6227C18.2187 17.3152 17.4846 20.4841 15.7208 22.6911C15.2916 23.2283 14.6466 23.6629 13.962 23.598C13.6109 23.5644 13.2829 23.4029 12.9961 23.1974C11.9632 22.4566 11.4378 21.1782 11.2586 19.9197C11.025 18.2783 11.0526 16.5295 11.2804 14.83L11.2767 14.8228L10.2832 14.5805L9.61045 12.9247L7.79944 14.1146C7.79944 14.1146 6.45387 12.8208 6.29872 12.5622C6.17714 12.3594 4.90871 12.6339 4.36749 12.7618C3.62077 14.3877 2.92032 16.0622 2.45532 17.7866C2.14138 18.9511 2.17494 20.1116 2.20806 21.3143C2.30061 24.6764 2.49569 29.3468 2.8695 32.6804C6.06827 32.4499 9.69802 30.8861 12.9027 30.7595C14.9129 30.6802 16.9239 30.5472 18.9364 30.6117C19.8668 30.6411 21.251 33.1218 22.1528 33.007C22.7381 32.9326 22.352 30.5291 22.328 29.9071C22.3075 29.3777 22.2626 28.8505 22.3402 28.3229C22.6187 26.4212 23.6649 24.6156 24.0999 22.7138C24.6035 20.514 24.9437 18.2715 25.1529 16.025C25.3756 13.6419 25.4695 11.2075 25.1574 8.82762Z" fill="url(#paint3_linear_79_6462)"/>
<defs>
<linearGradient id="paint0_linear_79_6462" x1="11.1731" y1="23.4978" x2="29.7352" y2="-21.8677" gradientUnits="userSpaceOnUse">
<stop offset="0.1599" stop-color="#BFAB8D"/>
<stop offset="0.5078" stop-color="#E7E1D2"/>
<stop offset="0.7297" stop-color="#CCBFA6"/>
</linearGradient>
<linearGradient id="paint1_linear_79_6462" x1="31.0803" y1="41.1621" x2="-3.74206" y2="37.5052" gradientUnits="userSpaceOnUse">
<stop stop-color="#94938C"/>
<stop offset="0.2296" stop-color="#EDEBE1"/>
<stop offset="0.7988" stop-color="#EDEBE1"/>
<stop offset="1" stop-color="#94938C"/>
</linearGradient>
<linearGradient id="paint2_linear_79_6462" x1="13.4743" y1="6.66745" x2="6.09646" y2="7.00108" gradientUnits="userSpaceOnUse">
<stop offset="0.1599" stop-color="#BFAB8D"/>
<stop offset="0.5078" stop-color="#E7E1D2"/>
<stop offset="0.7297" stop-color="#CCBFA6"/>
</linearGradient>
<linearGradient id="paint3_linear_79_6462" x1="24.0929" y1="18.2732" x2="3.18265" y2="19.2186" gradientUnits="userSpaceOnUse">
<stop offset="0.1599" stop-color="#BFAB8D"/>
<stop offset="0.5078" stop-color="#E7E1D2"/>
<stop offset="0.7297" stop-color="#CCBFA6"/>
</linearGradient>
</defs>
</svg>
