<svg width="24" height="42" viewBox="0 0 24 42" fill="none" xmlns="http://www.w3.org/2000/svg">
<path d="M6.93018 3.55343C6.93018 3.55343 10.6247 2.22513 10.3952 4.04656C10.1656 5.86798 8.98434 9.80343 8.98434 9.80343L4.92188 9.75715C4.92097 9.7567 5.82281 6.01042 6.93018 3.55343Z" fill="#B46766"/>
<path d="M7.94507 3.63533L9.89994 5.43139L10.7451 3.31822L10.7919 3.41576C10.9203 2.32787 11.4029 -0.454467 9.88315 0.305423C8.07299 1.21049 6.75735 3.1313 5.83594 5.13651L7.94507 3.63533Z" fill="url(#paint0_linear_79_6478)"/>
<path d="M21.6482 17.9568C22.6286 13.7078 23.936 2.26867 21.3212 1.94157C19.6776 1.73606 18.4386 5.55865 18.0099 6.62204C16.8731 9.44202 15.983 12.4562 15.1769 15.4186C15.1542 15.5012 15.1311 15.586 15.0807 15.6554C14.6393 16.266 13.1073 16.5083 12.5153 16.1C12.0199 15.7579 11.8975 15.0906 11.8167 14.4936C11.6734 13.4343 11.53 12.375 11.3866 11.3157C11.1929 9.88525 10.9992 8.44939 10.8785 7.00946L10.7964 7.12424L8.31358 5.96196L7.04566 7.75801L5.61936 7.07116L5.04866 7.1138C4.88444 7.59242 4.74156 8.05788 4.61862 8.49703C3.54982 12.3164 3.51032 16.4035 3.36288 20.3422C3.29529 22.1478 3.20503 23.9783 3.32252 25.7839C3.34566 26.1369 3.2513 26.7289 3.34521 26.7811C3.41053 26.8178 3.61921 26.3515 3.80657 26.3719C4.05109 26.3982 4.35594 26.3129 4.60046 26.2879C5.44516 26.2027 6.2912 26.1287 7.13772 26.0647C9.48945 25.8874 11.8521 25.7794 14.2111 25.827C15.8519 25.8601 17.5177 25.9472 19.1268 26.2907C20.1208 26.5025 21.4287 26.8178 22.0365 27.7215C22.037 27.722 20.6674 22.2059 21.6482 17.9568Z" fill="url(#paint1_linear_79_6478)"/>
<path d="M13.8065 3.48011C14.3273 1.74077 16.1255 1.95989 16.7334 3.52775C17.9087 6.55867 17.3054 9.96206 16.7012 13.0492C16.4213 14.4787 15.8814 19.7666 13.8641 19.939C11.8627 20.11 8.20277 15.4065 9.86761 12.7861C10.7708 11.3648 11.7584 9.987 12.5005 8.4704C13.3075 6.82179 13.2966 5.18452 13.8065 3.48011Z" fill="url(#paint2_linear_79_6478)"/>
<path d="M4.44053 25.6246C5.31747 25.0172 6.49201 24.9446 7.5105 24.7409C9.04436 24.4337 10.5918 24.1779 12.1552 24.0835C15.6008 23.8748 19.3903 24.5068 21.7058 27.31C22.5219 28.2976 23.0958 29.4804 23.3835 30.728C23.7069 32.1325 23.4461 33.0399 22.9987 34.3664C22.5886 35.5827 22.0533 36.8997 21.3918 38.0012C20.6746 39.1953 19.5273 40.2292 18.0846 40.2083C16.5217 40.1856 14.9942 39.5741 13.9503 38.3891C13.8954 38.3269 13.8392 38.2612 13.7621 38.2299C13.67 38.1927 13.5661 38.2122 13.4699 38.2344C11.3694 38.7157 9.26303 40.0894 7.32496 41.0181C6.39857 41.4618 5.86911 41.597 4.93092 41.1043C3.76046 40.4896 2.6458 39.7338 1.7793 38.7352C-0.783481 35.7819 0.193262 31.5859 2.06692 28.5404C2.6585 27.579 3.3912 26.4648 4.27767 25.7471C4.33029 25.704 4.38472 25.6632 4.44053 25.6246Z" fill="url(#paint3_linear_79_6478)"/>
<defs>
<linearGradient id="paint0_linear_79_6478" x1="10.4086" y1="3.09193" x2="6.53717" y2="2.35755" gradientUnits="userSpaceOnUse">
<stop offset="0.1599" stop-color="#BFAB8D"/>
<stop offset="0.5078" stop-color="#E7E1D2"/>
<stop offset="0.7297" stop-color="#CCBFA6"/>
</linearGradient>
<linearGradient id="paint1_linear_79_6478" x1="22.1851" y1="16.2299" x2="4.49667" y2="12.8746" gradientUnits="userSpaceOnUse">
<stop offset="0.1599" stop-color="#BFAB8D"/>
<stop offset="0.5078" stop-color="#E7E1D2"/>
<stop offset="0.7297" stop-color="#CCBFA6"/>
</linearGradient>
<linearGradient id="paint2_linear_79_6478" x1="11.1304" y1="19.2213" x2="24.8183" y2="-14.23" gradientUnits="userSpaceOnUse">
<stop offset="0.1599" stop-color="#BFAB8D"/>
<stop offset="0.5078" stop-color="#E7E1D2"/>
<stop offset="0.7297" stop-color="#CCBFA6"/>
</linearGradient>
<linearGradient id="paint3_linear_79_6478" x1="-5.03004" y1="32.6947" x2="28.2554" y2="32.7792" gradientUnits="userSpaceOnUse">
<stop stop-color="#94938C"/>
<stop offset="0.2296" stop-color="#EDEBE1"/>
<stop offset="0.7988" stop-color="#EDEBE1"/>
<stop offset="1" stop-color="#94938C"/>
</linearGradient>
</defs>
</svg>
