<svg width="24" height="43" viewBox="0 0 24 43" fill="none" xmlns="http://www.w3.org/2000/svg">
<path d="M6.50491 3.75577C6.50491 3.75577 10.9044 2.64155 10.7442 4.48392C10.5841 6.32629 9.40489 10.2628 9.40489 10.2628L4.46875 9.95112C4.46875 9.95112 5.31987 6.18973 6.50491 3.75577Z" fill="#B46766"/>
<path d="M19.0168 2.96688C19.5504 1.23114 17.9334 0.414537 16.5564 1.3804C13.8946 3.24725 12.5053 6.41206 11.2926 9.31464C10.7309 10.6589 8.2415 15.3548 9.8231 16.6192C11.3924 17.8736 17.0496 15.9963 17.1208 12.8927C17.1594 11.2087 17.104 9.51471 17.3295 7.84112C17.5745 6.02236 18.4937 4.66724 19.0168 2.96688Z" fill="url(#paint0_linear_79_6492)"/>
<path d="M2.24373 27.8713C2.24373 27.8708 4.85867 24.9297 10.7418 24.9297C16.625 24.9297 20.874 26.8909 21.8543 29.5054C22.8347 32.1199 23.1618 39.3105 19.5665 40.618C18.4292 41.0318 17.1789 41.1343 16.1536 40.4012C15.2767 39.7742 14.9301 38.6219 13.6113 39.0492C13.0365 39.2352 12.5624 39.6385 12.0751 39.996C9.93292 41.5675 6.29224 43.1976 3.85243 41.3425C0.516618 38.8065 -0.661098 31.1391 2.24373 27.8713Z" fill="url(#paint1_linear_79_6492)"/>
<path d="M6.70733 5.65294L9.06569 4.86811L10.3761 5.51639L10.8347 5.43019C10.8982 4.91846 10.9645 4.40674 11.0326 3.89547C11.1265 3.19094 11.6051 1.77461 11.0757 1.14085C10.5566 0.51934 8.08616 3.04441 7.67146 3.46495C7.05124 4.09372 6.49001 4.78192 6 5.51684L6.70733 5.65294Z" fill="url(#paint2_linear_79_6492)"/>
<path d="M23.1595 6.95203C23.2017 6.23796 23.6037 3.09452 22.4391 2.81597C22.0853 2.73114 21.622 3.14669 21.3925 3.32589C20.4393 4.06945 20.0056 5.1537 19.6264 6.26972C18.8456 8.56753 17.9487 10.6789 16.3858 12.5584C15.2925 13.8736 14.0068 15.6651 12.2293 16.0503C11.9481 16.1111 11.65 16.1292 11.3769 16.0403C10.8588 15.872 10.5285 15.3516 10.3856 14.8263C9.86117 12.895 10.1665 10.8245 10.4342 8.83383C10.2119 9.12599 10.0123 9.405 10.0123 9.405L7.86368 8.44958C7.86368 8.44958 5.34856 9.43902 5.13897 9.37052C4.92938 9.30247 5.19156 8.4151 5.19156 8.4151L4.48749 8.49494C2.27994 14.1208 2.33438 21.061 3.22311 26.8888C4.53058 30.157 21.5263 30.157 20.5459 28.1962C19.5656 26.2355 20.5459 20.0253 20.5459 20.0253C20.5459 20.0253 22.8324 12.5081 23.1595 6.95203Z" fill="url(#paint3_linear_79_6492)"/>
<defs>
<linearGradient id="paint0_linear_79_6492" x1="12.4799" y1="17.5151" x2="19.6903" y2="-17.9049" gradientUnits="userSpaceOnUse">
<stop offset="0.1599" stop-color="#BFAB8D"/>
<stop offset="0.5078" stop-color="#E7E1D2"/>
<stop offset="0.7297" stop-color="#CCBFA6"/>
</linearGradient>
<linearGradient id="paint1_linear_79_6492" x1="-4.61761" y1="33.5016" x2="27.9417" y2="33.6193" gradientUnits="userSpaceOnUse">
<stop stop-color="#94938C"/>
<stop offset="0.2296" stop-color="#EDEBE1"/>
<stop offset="0.7988" stop-color="#EDEBE1"/>
<stop offset="1" stop-color="#94938C"/>
</linearGradient>
<linearGradient id="paint2_linear_79_6492" x1="4.72656" y1="3.33331" x2="11.1648" y2="3.35657" gradientUnits="userSpaceOnUse">
<stop offset="0.1599" stop-color="#BFAB8D"/>
<stop offset="0.5078" stop-color="#E7E1D2"/>
<stop offset="0.7297" stop-color="#CCBFA6"/>
</linearGradient>
<linearGradient id="paint3_linear_79_6492" x1="-2.29998" y1="16.0954" x2="22.6375" y2="16.1855" gradientUnits="userSpaceOnUse">
<stop offset="0.1599" stop-color="#BFAB8D"/>
<stop offset="0.5078" stop-color="#E7E1D2"/>
<stop offset="0.7297" stop-color="#CCBFA6"/>
</linearGradient>
</defs>
</svg>
