<svg width="25" height="40" viewBox="0 0 25 40" fill="none" xmlns="http://www.w3.org/2000/svg">
<path d="M1 33.3445C1 33.3445 1.34751 35.3043 2.20721 35.9431C3.16128 36.6521 4.6543 35.9907 5.04899 34.7114C5.323 33.8232 6.75478 31.7473 7.01292 30.433C7.4616 28.148 6.67176 26.6296 6.67176 26.6296L2.21628 24.3555C2.21628 24.3555 1.142 29.6051 1 33.3445Z" fill="#B46766"/>
<path d="M9.41312 36.9109C9.11823 38.7641 10.3041 39.255 11.2341 38.0033C13.032 35.5839 13.8649 32.1197 14.5853 28.9554C14.9188 27.49 16.4585 22.2624 15.2763 21.3143C14.1031 20.3738 10.1816 23.4148 10.2805 26.5487C10.334 28.2486 10.4547 29.9398 10.3753 31.6679C10.2887 33.5456 9.7021 35.0953 9.41312 36.9109Z" fill="url(#paint0_linear_79_6606)"/>
<path d="M14.3301 3.33259C14.6404 3.25909 14.9616 3.0563 15.3345 2.81087C16.3471 2.14352 17.3987 1.49976 18.5669 1.17538C19.7351 0.851009 21.0502 0.879135 22.09 1.50293C22.8213 1.94163 23.363 2.63665 23.809 3.36344C24.5067 4.50079 25.0216 5.82234 24.8615 7.14705C24.6791 8.65778 24.0798 10.1454 23.4651 11.5254C23.0922 12.3625 22.7814 13.3174 22.1095 13.9725C21.3256 14.7365 20.0077 14.844 18.9747 14.9887C16.7527 15.2995 14.5215 15.021 12.3521 14.506C10.1954 13.9938 7.96653 13.4259 5.86924 12.7118C5.49224 12.5834 5.1157 12.435 4.79995 12.1928C3.91485 11.5127 3.73293 9.96707 3.52016 8.94721C3.19715 7.39702 3.3945 5.79421 4.02872 4.34927C4.84532 2.48877 6.40684 0.846471 8.48008 0.52754C9.96402 0.299344 11.2815 0.603758 12.28 1.75381C12.6107 2.1349 12.8738 2.57768 13.2313 2.93563C13.6255 3.32987 13.9708 3.41788 14.3301 3.33259Z" fill="url(#paint1_linear_79_6606)"/>
<path d="M6.468 31.033L5.15235 30.9876L5.06161 29.4452L4.33574 29.672L3.5645 31.033L2.06738 29.173L0.53125 29.8371C0.768067 28.3151 1.26756 26.8742 1.94217 25.6942C3.24966 23.4064 4.55714 13.2742 4.55714 11.6401C4.55714 10.006 20.2456 12.9476 21.8797 13.6013C21.8797 13.6013 20.5722 17.1966 20.5722 21.1186C20.5722 25.0405 20.8988 29.9433 18.611 33.5386C16.3231 37.1339 15.6694 38.768 15.6694 38.768C15.6694 38.768 13.7081 41.0559 12.7278 38.4414C12.7278 38.4414 15.0156 30.597 13.7081 26.6751C12.4007 22.7531 11.0932 24.0601 10.7665 24.7139C10.5492 25.1485 8.45509 28.615 6.88311 31.4672L6.468 31.033Z" fill="url(#paint2_linear_79_6606)"/>
<path d="M1.88532 35.2509L3.20099 34.6157L4.9776 35.504C4.33973 37.2225 3.50223 38.7668 2.92198 38.7668C2.26823 38.7668 1.28782 37.1327 0.634071 34.1911C0.630896 34.177 0.628176 34.1625 0.625 34.1484L1.88532 35.2509Z" fill="url(#paint3_linear_79_6606)"/>
<defs>
<linearGradient id="paint0_linear_79_6606" x1="13.3292" y1="20.9467" x2="13.305" y2="58.016" gradientUnits="userSpaceOnUse">
<stop offset="0.1599" stop-color="#BFAB8D"/>
<stop offset="0.5078" stop-color="#E7E1D2"/>
<stop offset="0.7297" stop-color="#CCBFA6"/>
</linearGradient>
<linearGradient id="paint1_linear_79_6606" x1="31.2417" y1="7.72326" x2="-2.79792" y2="7.84623" gradientUnits="userSpaceOnUse">
<stop stop-color="#94938C"/>
<stop offset="0.2614" stop-color="#EDEBE1"/>
<stop offset="0.7687" stop-color="#EDEBE1"/>
<stop offset="1" stop-color="#94938C"/>
</linearGradient>
<linearGradient id="paint2_linear_79_6606" x1="19.9992" y1="25.3878" x2="3.36532" y2="25.4479" gradientUnits="userSpaceOnUse">
<stop stop-color="#BFAB8D"/>
<stop offset="0.5078" stop-color="#E7E1D2"/>
<stop offset="1" stop-color="#CCBFA6"/>
</linearGradient>
<linearGradient id="paint3_linear_79_6606" x1="4.59039" y1="36.447" x2="1.21212" y2="36.4592" gradientUnits="userSpaceOnUse">
<stop stop-color="#BFAB8D"/>
<stop offset="0.5078" stop-color="#E7E1D2"/>
<stop offset="1" stop-color="#CCBFA6"/>
</linearGradient>
</defs>
</svg>
