<svg width="29" height="51" viewBox="0 0 29 51" fill="none" xmlns="http://www.w3.org/2000/svg">
<path d="M0.265625 41.8723C0.265625 41.8723 0.725639 43.8489 1.75137 44.5131C2.89006 45.2503 4.62577 44.6256 5.05493 43.3512C5.35299 42.4666 6.97937 40.4201 7.24749 39.1072C7.71385 36.8249 6.74664 35.2797 6.74664 35.2797L1.45558 32.8789C1.45603 32.8794 0.333674 38.1214 0.265625 41.8723Z" fill="#B46766"/>
<path d="M9.46435 46.5422C8.78886 48.7062 10.3839 49.589 11.8655 48.307C14.7299 45.8282 16.3875 41.8518 17.8456 38.2094C18.5206 36.5226 21.419 30.5914 19.8938 29.1579C18.3804 27.7356 12.448 30.444 12.1441 34.2502C11.9789 36.3149 11.91 38.3854 11.5548 40.4509C11.1683 42.6956 10.1262 44.4218 9.46435 46.5422Z" fill="url(#paint0_linear_79_6572)"/>
<path d="M6.8989 40.549L6.12994 39.3187L4.78436 40.2546L3.0881 38.7335L0.572517 39.3182L0.140625 39.4462C0.209582 37.2282 0.531685 35.0193 0.876471 32.8303C1.47486 29.0263 2.24383 25.2482 3.10262 21.495C3.13574 21.3493 3.60302 18.9817 3.69738 18.9844C3.69738 18.9844 26.5722 19.619 26.7822 19.6249C26.6661 19.6218 26.4397 20.4379 26.2378 21.2695C26.05 22.0439 25.8835 22.8319 25.8468 22.9844C25.5315 24.2923 25.2579 25.6107 25.0383 26.9381C24.8591 28.0228 24.7158 29.1139 24.6092 30.2081C24.5057 31.2688 24.596 32.4366 24.3941 33.4764C24.195 34.5012 23.8298 35.5764 23.4845 36.5663C22.4479 39.5392 20.8777 42.3056 19.0132 44.8344C18.0777 46.1029 17.066 47.3146 15.9981 48.4737C15.3421 49.186 13.9475 51.2946 12.7884 50.4186C12.3533 50.0897 12.1787 49.5031 12.2068 48.9582C12.2349 48.4134 12.4346 47.8944 12.6237 47.3826C14.0809 43.4344 15.4664 38.5457 14.6471 34.3098C14.5618 33.8683 14.4284 33.4124 14.1118 33.0935C13.6967 32.6756 13.032 32.5817 12.464 32.7382C11.896 32.8948 11.4115 33.2663 10.9887 33.6764C9.53743 35.0851 8.50625 37.0653 7.61933 38.8664C7.3494 39.4144 7.10895 39.9761 6.8989 40.549Z" fill="url(#paint1_linear_79_6572)"/>
<path d="M1.97625 41.7188L3.96512 42.4791L4.90104 43.1224L6.22256 42.916C6.20442 43.0036 6.18673 43.0916 6.1704 43.1796C5.89911 44.6096 6.12957 46.309 5.55522 47.651C5.23358 48.4032 4.51633 49.0479 3.69837 49.0243C3.06188 49.0062 2.49842 48.5965 2.07878 48.1174C0.803979 46.662 0.379348 44.4943 0.21875 42.5168L1.97625 41.7188Z" fill="url(#paint2_linear_79_6572)"/>
<path d="M19.6274 1.17668C20.9403 1.26605 21.9538 1.65122 23.0317 2.3916C23.3234 2.59212 23.5997 2.83393 23.5421 3.12065C23.2735 4.45988 13.398 3.38377 13.4929 2.20923C13.5518 1.51149 16.7634 1.32458 17.4824 1.247C18.294 1.15944 18.9954 1.13358 19.6274 1.17668Z" fill="#D8D6D0"/>
<path d="M8.33532 0.998755C9.52118 0.931158 10.4866 1.1902 11.5658 1.79222C11.858 1.95508 12.1429 2.16105 12.137 2.45003C12.1102 3.80196 3.12639 3.91311 3.02432 2.74401C2.96625 2.04899 5.80252 1.48373 6.43175 1.32177C7.14264 1.13985 7.76461 1.03142 8.33532 0.998755Z" fill="#D8D6D0"/>
<path d="M24.2847 2.04862C25.2379 2.14389 26.1357 2.51092 26.9092 3.31754C27.9059 4.35689 28.4049 5.79864 28.5283 7.23314C28.7928 10.3108 28.2661 13.971 27.4971 16.9525C27.2531 17.8989 27.2285 19.8877 26.5789 20.6182C24.5574 22.8906 20.1155 21.785 17.4276 21.5985C14.349 21.3848 11.0345 21.2828 8.27621 20.6182C6.4502 20.5265 3.09716 20.9307 2.54278 18.5158C1.90765 15.748 1.51614 12.9176 1.38593 10.0808C1.28794 7.96127 0.978539 2.72414 4.02536 2.31538C4.47131 2.2555 5.22395 2.75816 5.67081 2.85979C6.60309 3.07119 7.51269 3.04262 8.43817 2.79673C9.57642 2.49459 10.6335 1.95018 11.7245 1.50695C11.9618 1.41077 12.2086 1.31777 12.4645 1.32457C13.0474 1.34045 13.4757 1.84539 13.942 2.19562C15.9051 3.67095 19.4237 2.90561 21.5908 2.33898C22.5004 2.10125 23.4159 1.96197 24.2847 2.04862Z" fill="url(#paint3_linear_79_6572)"/>
<defs>
<linearGradient id="paint0_linear_79_6572" x1="17.2206" y1="28.2554" x2="9.45894" y2="72.547" gradientUnits="userSpaceOnUse">
<stop offset="0.1599" stop-color="#BFAB8D"/>
<stop offset="0.5078" stop-color="#E7E1D2"/>
<stop offset="0.7297" stop-color="#CCBFA6"/>
</linearGradient>
<linearGradient id="paint1_linear_79_6572" x1="24.1979" y1="34.7504" x2="1.68506" y2="34.8317" gradientUnits="userSpaceOnUse">
<stop stop-color="#BFAB8D"/>
<stop offset="0.5078" stop-color="#E7E1D2"/>
<stop offset="1" stop-color="#CCBFA6"/>
</linearGradient>
<linearGradient id="paint2_linear_79_6572" x1="5.6385" y1="45.362" x2="0.580004" y2="45.3803" gradientUnits="userSpaceOnUse">
<stop stop-color="#BFAB8D"/>
<stop offset="0.5078" stop-color="#E7E1D2"/>
<stop offset="1" stop-color="#CCBFA6"/>
</linearGradient>
<linearGradient id="paint3_linear_79_6572" x1="34.3034" y1="11.6172" x2="-4.54201" y2="11.7575" gradientUnits="userSpaceOnUse">
<stop stop-color="#94938C"/>
<stop offset="0.2296" stop-color="#EDEBE1"/>
<stop offset="0.7988" stop-color="#EDEBE1"/>
<stop offset="1" stop-color="#94938C"/>
</linearGradient>
</defs>
</svg>
