<svg width="24" height="42" viewBox="0 0 24 42" fill="none" xmlns="http://www.w3.org/2000/svg">
<path d="M6.79688 38.9689C6.79688 38.9689 9.24626 42.5572 12.9691 40.1136C16.6919 37.67 8.71682 37.2785 6.79688 38.9689Z" fill="#D8D6D0"/>
<path d="M16.1161 2.73702C16.1161 2.73702 12.4213 1.40873 12.6509 3.23015C12.8805 5.05157 14.0618 8.98702 14.0618 8.98702L18.1245 8.94075C18.1249 8.9403 17.2235 5.19402 16.1161 2.73702Z" fill="#B46766"/>
<path d="M15.5918 3.72127L13.637 5.51733L12.7918 3.40415L12.7451 3.50169C12.6167 2.4138 12.134 -0.36853 13.6538 0.391361C15.4639 1.29643 16.7795 3.21725 17.7009 5.22245L15.5918 3.72127Z" fill="url(#paint0_linear_79_6485)"/>
<path d="M1.88824 18.039C0.907859 13.79 -0.399603 2.3507 2.21534 2.02361C3.85898 1.81809 5.09795 5.6407 5.52666 6.7041C6.66356 9.52411 7.55365 12.5383 8.35982 15.5007C8.3825 15.5833 8.40563 15.6681 8.45599 15.7376C8.89741 16.3482 10.4299 16.5905 11.0215 16.1822C11.5169 15.8401 11.6394 15.1727 11.7201 14.5757C11.8635 13.5164 12.0069 12.4571 12.1502 11.3978C12.3439 9.96734 12.5377 8.53148 12.6583 7.09154L12.7404 7.20632L15.2234 6.04401L16.4914 7.84009L17.9177 7.15323L18.4884 7.19588C18.6526 7.67451 18.7955 8.13997 18.9185 8.57912C19.9873 12.3986 20.0268 16.4857 20.1742 20.4244C20.2418 22.23 20.3321 24.0606 20.2146 25.8662C20.1915 26.2191 20.2859 26.8112 20.1924 26.8633C20.1271 26.9001 19.9184 26.4337 19.731 26.4541C19.4865 26.4804 19.1816 26.3951 18.9371 26.3702C18.0924 26.2849 17.2463 26.211 16.3997 26.147C14.0479 25.9696 11.6852 25.8616 9.32614 25.9093C7.68522 25.9424 6.01934 26.0295 4.41018 26.3729C3.41619 26.5848 2.10827 26.9001 1.50036 27.8038C1.499 27.8042 2.86861 22.2881 1.88824 18.039Z" fill="url(#paint1_linear_79_6485)"/>
<path d="M9.73139 3.56607C9.21057 1.8267 7.4122 2.04582 6.80428 3.61371C5.62881 6.64467 6.23219 10.0481 6.83649 13.1353C7.11641 14.5648 7.65628 19.8528 9.67377 20.0252C11.6754 20.1962 15.3356 15.4926 13.6706 12.8722C12.7674 11.4508 11.7797 10.073 11.0375 8.55643C10.2304 6.90825 10.2413 5.2705 9.73139 3.56607Z" fill="url(#paint2_linear_79_6485)"/>
<path d="M19.0943 25.7145C18.2174 25.107 17.0429 25.0344 16.0244 24.8307C14.4906 24.5236 12.9431 24.2677 11.3802 24.1733C7.93464 23.9647 4.14518 24.5966 1.82968 27.3999C1.01353 28.3875 0.43965 29.5702 0.152027 30.8178C-0.171436 32.2224 0.0894204 33.1298 0.536734 34.4567C0.946846 35.673 1.48218 36.9901 2.14362 38.0916C2.86086 39.2856 4.00818 40.3196 5.45083 40.2987C7.0137 40.276 8.5412 39.6645 9.58508 38.4795C9.63997 38.4173 9.69622 38.3515 9.77335 38.3202C9.86544 38.283 9.96933 38.3025 10.0655 38.3248C12.1664 38.8061 14.2723 40.1798 16.2104 41.1085C17.1368 41.5522 17.6662 41.6874 18.6044 41.1947C19.7748 40.58 20.8895 39.8242 21.756 38.8256C24.3187 35.8722 23.342 31.6762 21.4684 28.6307C20.8768 27.6693 20.1441 26.5551 19.2577 25.8374C19.2046 25.7934 19.1501 25.7526 19.0943 25.7145Z" fill="url(#paint3_linear_79_6485)"/>
<defs>
<linearGradient id="paint0_linear_79_6485" x1="13.1285" y1="3.17753" x2="16.9998" y2="2.44318" gradientUnits="userSpaceOnUse">
<stop offset="0.1599" stop-color="#BFAB8D"/>
<stop offset="0.5078" stop-color="#E7E1D2"/>
<stop offset="0.7297" stop-color="#CCBFA6"/>
</linearGradient>
<linearGradient id="paint1_linear_79_6485" x1="1.35111" y1="16.3122" x2="19.0401" y2="12.9567" gradientUnits="userSpaceOnUse">
<stop offset="0.1599" stop-color="#BFAB8D"/>
<stop offset="0.5078" stop-color="#E7E1D2"/>
<stop offset="0.7297" stop-color="#CCBFA6"/>
</linearGradient>
<linearGradient id="paint2_linear_79_6485" x1="12.3991" y1="19.2933" x2="-1.28827" y2="-14.1591" gradientUnits="userSpaceOnUse">
<stop offset="0.1599" stop-color="#BFAB8D"/>
<stop offset="0.5078" stop-color="#E7E1D2"/>
<stop offset="0.7297" stop-color="#CCBFA6"/>
</linearGradient>
<linearGradient id="paint3_linear_79_6485" x1="28.5657" y1="32.7831" x2="-4.71937" y2="32.8676" gradientUnits="userSpaceOnUse">
<stop stop-color="#94938C"/>
<stop offset="0.2296" stop-color="#EDEBE1"/>
<stop offset="0.7988" stop-color="#EDEBE1"/>
<stop offset="1" stop-color="#94938C"/>
</linearGradient>
</defs>
</svg>
