<svg width="20" height="51" viewBox="0 0 20 51" fill="none" xmlns="http://www.w3.org/2000/svg">
<path d="M3.75 41.095C3.75 41.095 4.21003 43.0716 5.23579 43.7357C6.37453 44.4729 8.11029 43.8482 8.53947 42.5739C8.83753 41.6893 10.464 39.6428 10.7321 38.3299C11.1985 36.0475 10.2312 34.5023 10.2312 34.5023L4.94 32.1016C4.94045 32.102 3.81805 37.3441 3.75 41.095Z" fill="#B46766"/>
<path d="M10.9816 38.9748L10.7089 38.9358L9.734 37.2404L8.41834 38.3292L7.64709 37.3311L7.10268 38.0116L6.19533 36.6506H4.74357L3.67969 36.828C3.94917 34.7737 4.14108 32.7108 4.34478 30.6838C4.66871 27.4541 5.43678 23.4953 4.67551 20.2755C3.85844 16.8199 15.5919 20.1676 16.0986 20.7819C15.2956 26.0382 13.8797 31.2904 12.0364 36.2704C11.7016 37.1746 11.3527 38.0792 10.9816 38.9748Z" fill="url(#paint0_linear_79_6556)"/>
<path d="M0.902079 48.3885C0.971942 47.5447 1.30856 46.7503 1.60253 45.9563C2.37466 43.8717 2.895 41.6963 3.27879 39.4883L4.60846 39.5532L4.78992 41.0957L5.8787 40.4605L7.37576 42.2299L9.37185 41.141L9.77878 41.6532C8.06305 45.1561 5.84285 48.3563 2.55747 50.6456C2.43816 50.7286 2.31023 50.8148 2.16506 50.822C2.01717 50.8293 1.8779 50.7526 1.7595 50.6637C1.08128 50.1574 0.831762 49.2324 0.902079 48.3885Z" fill="url(#paint1_linear_79_6556)"/>
<path d="M5.96783 0.799929C6.6946 0.472342 7.45268 0.464633 8.46525 0.713272C8.73927 0.780423 9.03143 0.88477 9.18023 1.12433C9.87705 2.24412 4.15772 4.39431 3.47405 3.45465C3.06938 2.89567 4.59505 1.77997 4.91443 1.50274C5.27509 1.18922 5.61761 0.957823 5.96783 0.799929Z" fill="#D8D6D0"/>
<path d="M15.8978 0.986584C16.2354 1.08821 16.4921 1.19708 16.6001 1.2919C17.1463 1.77188 17.7139 2.28271 17.9584 2.96729C18.0564 3.24176 18.0669 3.60969 17.8173 3.7603C17.733 3.81111 17.6322 3.82653 17.5342 3.8347C16.3896 3.92861 15.0653 3.1846 14.0972 2.65336C13.7388 2.45692 12.1976 1.74784 12.268 1.19028C12.3746 0.345098 14.6706 0.617752 15.8978 0.986584Z" fill="#D8D6D0"/>
<path d="M17.9152 3.09318C17.9152 3.09318 20.2031 4.72731 18.8956 8.97641C18.2419 14.8596 16.2807 20.7429 16.2807 20.7429C16.2807 20.7429 15.627 21.7233 11.0513 21.7233C6.4756 21.7233 5.16813 21.0695 4.5144 19.7621C3.86066 18.4546 2.22656 6.03434 2.22656 6.03434C2.22656 6.03434 2.5532 3.09273 3.86067 2.76609C5.16813 2.43944 6.47559 2.11234 6.80223 2.11234C7.12887 2.11234 10.0704 0.151105 11.3779 0.478204C12.6858 0.805302 15.9545 3.41983 17.9152 3.09318Z" fill="url(#paint2_linear_79_6556)"/>
<defs>
<linearGradient id="paint0_linear_79_6556" x1="13.4557" y1="28.8384" x2="5.00727" y2="28.8689" gradientUnits="userSpaceOnUse">
<stop stop-color="#BFAB8D"/>
<stop offset="0.5078" stop-color="#E7E1D2"/>
<stop offset="1" stop-color="#CCBFA6"/>
</linearGradient>
<linearGradient id="paint1_linear_79_6556" x1="7.88236" y1="45.1373" x2="1.84668" y2="45.1591" gradientUnits="userSpaceOnUse">
<stop stop-color="#BFAB8D"/>
<stop offset="0.5078" stop-color="#E7E1D2"/>
<stop offset="1" stop-color="#CCBFA6"/>
</linearGradient>
<linearGradient id="paint2_linear_79_6556" x1="22.9334" y1="11.0396" x2="-1.19851" y2="11.1268" gradientUnits="userSpaceOnUse">
<stop stop-color="#94938C"/>
<stop offset="0.2296" stop-color="#EDEBE1"/>
<stop offset="0.7988" stop-color="#EDEBE1"/>
<stop offset="1" stop-color="#94938C"/>
</linearGradient>
</defs>
</svg>
