<svg width="19" height="53" viewBox="0 0 19 53" fill="none" xmlns="http://www.w3.org/2000/svg">
<path d="M0.945312 47.1262C0.945312 47.1262 1.40534 49.1028 2.43111 49.767C3.56984 50.5042 5.30563 49.8795 5.73481 48.6051C6.03288 47.7205 7.65932 45.674 7.92744 44.3611C8.39382 42.0788 7.42658 40.5336 7.42658 40.5336L2.13531 38.1328C2.13576 38.1333 1.01336 43.3753 0.945312 47.1262Z" fill="#B46766"/>
<path d="M15.9154 2.27043C15.9154 2.27043 19.1837 3.90454 18.2033 8.48022C17.2229 13.0559 17.5495 15.6708 17.5495 15.6708C17.5495 15.6708 16.8958 23.5152 11.3396 23.8418C5.78301 24.1685 2.18808 20.9003 1.86098 18.9391C1.53433 16.9779 1.53432 11.4218 1.20722 10.441C0.880124 9.46013 -0.100269 3.25035 3.16846 2.26998C6.43719 1.2896 8.39797 0.962516 8.39797 0.962516C8.39797 0.962516 11.6667 -0.0174112 15.9154 2.27043Z" fill="url(#paint0_linear_79_6543)"/>
<path d="M7.71487 42.9025L5.0836 43.6737L3.90407 41.9044L2.86063 42.0405L2.25 41.1681C2.81119 36.3888 3.50077 30.1631 3.50077 28.4192C3.50077 25.4776 2.46095 19.9688 2.46095 19.9688C2.46095 19.9688 12.5328 22.1377 15.5937 21.5557C15.5937 21.5557 12.5065 34.2284 8.85266 43.1933L7.71487 42.9025Z" fill="url(#paint1_linear_79_6543)"/>
<path d="M1.53656 47.0504C1.53656 47.0504 1.62683 46.3263 1.76928 45.1613L2.76689 44.9453L4.71767 46.261L6.75918 46.8961L7.15341 46.9678C6.1499 48.9545 5.13323 50.5016 4.15149 51.2996C-1.07841 55.5483 1.53656 47.0504 1.53656 47.0504Z" fill="url(#paint2_linear_79_6543)"/>
<defs>
<linearGradient id="paint0_linear_79_6543" x1="-2.46809" y1="12.2629" x2="21.6993" y2="12.3502" gradientUnits="userSpaceOnUse">
<stop stop-color="#94938C"/>
<stop offset="0.2296" stop-color="#EDEBE1"/>
<stop offset="0.4283" stop-color="#EDEBE1"/>
<stop offset="0.7988" stop-color="#EDEBE1"/>
<stop offset="1" stop-color="#94938C"/>
</linearGradient>
<linearGradient id="paint1_linear_79_6543" x1="3.5526" y1="31.8202" x2="14.057" y2="31.8581" gradientUnits="userSpaceOnUse">
<stop stop-color="#BFAB8D"/>
<stop offset="0.5078" stop-color="#E7E1D2"/>
<stop offset="1" stop-color="#CCBFA6"/>
</linearGradient>
<linearGradient id="paint2_linear_79_6543" x1="1.4884" y1="48.7142" x2="6.44005" y2="48.7321" gradientUnits="userSpaceOnUse">
<stop stop-color="#BFAB8D"/>
<stop offset="0.5078" stop-color="#E7E1D2"/>
<stop offset="1" stop-color="#CCBFA6"/>
</linearGradient>
</defs>
</svg>
