<svg width="19" height="67" viewBox="0 0 19 67" fill="none" xmlns="http://www.w3.org/2000/svg">
<path d="M0.986895 55.6643C0.986895 55.6643 1.64741 57.6713 2.9712 58.3808C4.44061 59.168 6.61001 58.6095 7.10178 57.3447C8.03677 54.9403 8.91689 49.2917 8.91689 49.2917L2.13102 46.6641C2.13102 46.6641 0.922022 51.893 0.986895 55.6643Z" fill="#B46766"/>
<path d="M17.9861 8.54969C17.9861 8.54969 18.9647 3.31978 16.6759 1.68657C14.3872 0.0533577 13.4072 0.707546 13.4072 0.707546C12.4609 0.966138 11.51 1.20839 10.5573 1.44113C8.98851 1.82402 7.29497 2.37297 5.66902 2.33078C5.34329 2.32216 5.01664 2.28586 4.69272 2.31853C2.26968 2.56079 1.87635 5.14126 1.51251 7.0317C1.04568 9.45566 0.716781 11.9123 0.522611 14.373C0.362466 16.405 0.284879 18.4601 0.455912 20.4944C0.580217 21.9679 0.786187 23.651 1.65133 24.8995C2.86036 26.6438 5.07607 27.4364 7.05769 27.8923C9.57283 28.4712 12.2159 28.6073 14.7882 28.4989C16.1869 28.4395 16.5766 25.3223 16.6546 24.3333C17.0697 19.0689 17.5107 13.8086 17.9861 8.54969Z" fill="url(#paint0_linear_79_6533)"/>
<path d="M8.78707 50.1102L8.0612 50.7907L6.88167 49.3389L5.56604 50.4277L5.29384 49.4297L2.98014 48.2501L2.43574 50.6546L1.66406 50.9712C1.82012 50.1533 1.95078 49.3335 2.02518 48.5083C2.22162 46.3339 2.3432 44.1658 2.36452 41.9814C2.40263 38.0245 2.22797 34.0685 2.00068 30.1193C1.92129 28.7379 1.57695 26.5753 1.97935 25.2266C2.15673 25.3481 2.21979 25.6902 2.41215 25.7909C4.5158 26.8915 7.74953 26.7785 10.0528 26.9632C11.9546 27.1156 13.889 27.2912 15.794 27.3012C15.3485 28.8554 14.9207 30.4161 14.5577 31.9921C13.9652 34.5644 13.6844 37.1893 13.0534 39.7525C12.1415 43.4562 10.7419 47.0062 9.31878 50.5384L8.78707 50.1102Z" fill="url(#paint1_linear_79_6533)"/>
<path d="M0.464224 57.4775C0.579915 56.1923 0.828534 54.9257 1.09757 53.6641L1.52585 55.9187L2.79618 57.688L6.15347 55.6465C6.15347 55.6465 6.58992 55.9845 7.04497 56.313C6.7174 57.1976 6.40299 58.0877 6.10946 58.9845C5.46749 60.9461 5.14537 63.2385 3.88911 64.932C3.50937 65.4441 2.36927 66.6064 1.61342 66.3986C1.04041 66.2408 0.849854 64.5282 0.719645 63.8677C0.304974 61.7677 0.272767 59.6047 0.464224 57.4775Z" fill="url(#paint2_linear_79_6533)"/>
<defs>
<linearGradient id="paint0_linear_79_6533" x1="22.6577" y1="14.5189" x2="-3.66992" y2="14.6249" gradientUnits="userSpaceOnUse">
<stop stop-color="#94938C"/>
<stop offset="0.2296" stop-color="#EDEBE1"/>
<stop offset="0.7988" stop-color="#EDEBE1"/>
<stop offset="1" stop-color="#94938C"/>
</linearGradient>
<linearGradient id="paint1_linear_79_6533" x1="11.5402" y1="38.0637" x2="3.24916" y2="38.0936" gradientUnits="userSpaceOnUse">
<stop stop-color="#BFAB8D"/>
<stop offset="0.5078" stop-color="#E7E1D2"/>
<stop offset="1" stop-color="#CCBFA6"/>
</linearGradient>
<linearGradient id="paint2_linear_79_6533" x1="5.03334" y1="60.0307" x2="1.12185" y2="60.0449" gradientUnits="userSpaceOnUse">
<stop stop-color="#BFAB8D"/>
<stop offset="0.5078" stop-color="#E7E1D2"/>
<stop offset="1" stop-color="#CCBFA6"/>
</linearGradient>
</defs>
</svg>
