<svg width="17" height="64" viewBox="0 0 17 64" fill="none" xmlns="http://www.w3.org/2000/svg">
<path d="M3.91406 58.7661C3.91406 58.7661 4.12956 60.7059 4.79282 61.3147C5.52912 61.9907 6.73723 61.2862 7.09063 60.0005C7.76251 57.5561 8.63219 51.9062 8.63219 51.9062L5.16074 49.7812C5.16074 49.7812 4.14316 55.0392 3.91406 58.7661Z" fill="#B46766"/>
<path d="M15.7599 0.69577C14.9873 0.299265 13.7836 0.544245 12.9371 0.536987C11.3665 0.52383 9.79585 0.528359 8.22569 0.573725C6.47133 0.624536 4.03194 0.424019 2.40961 1.23517C0.85169 2.01412 0.68609 3.9599 0.733272 5.4883C0.920186 11.5261 1.30899 17.8802 3.74431 23.4934C4.45748 25.137 5.45284 26.7957 7.01076 27.7629C9.42476 29.2618 12.1881 28.393 13.5641 25.9931C14.6656 24.0723 15.0893 21.858 15.3203 19.6858C15.4949 18.0413 15.3856 16.3845 15.5022 14.7367C15.6251 13.0001 16.1373 11.3152 16.4172 9.59897C16.8596 6.88513 17.3949 4.05335 16.3837 1.39985C16.2539 1.05779 16.0339 0.836407 15.7599 0.69577Z" fill="url(#paint0_linear_79_6523)"/>
<path d="M8.52674 56.1244L7.84759 55.3168L6.66805 55.952L6.12365 54.8178L5.17095 55.7251L4.39971 54.1827L4.07309 54.5175C4.10847 53.5966 4.13342 52.6752 4.16019 51.7542C4.33848 45.6469 4.30627 39.5324 4.22642 33.4238C4.18423 30.2114 4.12934 26.9981 4.03906 23.7866C6.32691 27.0548 14.4979 23.1328 14.4979 23.1328C13.9943 26.6487 11.883 44.3776 8.61474 55.8168C8.58616 55.9193 8.55668 56.0219 8.52674 56.1244Z" fill="url(#paint1_linear_79_6523)"/>
<path d="M3.84634 58.1839C3.87402 57.8977 3.89852 57.6109 3.92075 57.3242L4.31319 57.6763L4.85762 58.5382L5.81037 58.3114L6.67238 59.128L7.35291 59.1734L7.54755 59.1561C7.259 59.9196 6.93462 60.6677 6.55397 61.385C6.1697 62.1085 5.66064 63.0458 4.8862 63.4269C4.33587 63.6977 3.54827 63.5612 3.24339 62.9614C3.01427 62.5105 3.29873 61.9275 3.3931 61.433C3.59862 60.3579 3.74199 59.2727 3.84634 58.1839Z" fill="url(#paint2_linear_79_6523)"/>
<defs>
<linearGradient id="paint0_linear_79_6523" x1="-1.98716" y1="14.4353" x2="20.2062" y2="14.5155" gradientUnits="userSpaceOnUse">
<stop stop-color="#94938C"/>
<stop offset="0.2296" stop-color="#EDEBE1"/>
<stop offset="0.7988" stop-color="#EDEBE1"/>
<stop offset="1" stop-color="#94938C"/>
</linearGradient>
<linearGradient id="paint1_linear_79_6523" x1="2.71094" y1="39.5968" x2="11.3282" y2="39.628" gradientUnits="userSpaceOnUse">
<stop stop-color="#BFAB8D"/>
<stop offset="0.5078" stop-color="#E7E1D2"/>
<stop offset="1" stop-color="#CCBFA6"/>
</linearGradient>
<linearGradient id="paint2_linear_79_6523" x1="2.63119" y1="60.4364" x2="6.24002" y2="60.4495" gradientUnits="userSpaceOnUse">
<stop stop-color="#BFAB8D"/>
<stop offset="0.5078" stop-color="#E7E1D2"/>
<stop offset="1" stop-color="#CCBFA6"/>
</linearGradient>
</defs>
</svg>
