<svg width="16" height="66" viewBox="0 0 16 66" fill="none" xmlns="http://www.w3.org/2000/svg">
<path d="M0.226562 57.6435C0.226562 57.6435 0.731492 59.627 1.82392 60.3016C3.03657 61.0502 4.86938 60.44 5.31261 59.1679C6.15553 56.7493 7.03203 51.1001 7.03203 51.1001L1.40656 48.6484C1.40656 48.6484 0.264671 53.8875 0.226562 57.6435Z" fill="#B46766"/>
<path d="M14.9523 0.672267C14.8035 0.53662 14.5408 0.508039 14.0544 0.467209C13.3104 0.405056 12.5374 0.459501 11.7916 0.460862C8.75154 0.46676 5.71151 0.526642 2.67149 0.526642C2.67149 0.526642 -0.270069 1.18037 0.0565705 2.81448C0.383211 4.44858 1.36402 24.7129 2.3444 26.0204C3.32477 27.3279 5.61261 31.5769 10.5154 30.2694C15.4177 28.962 14.4373 17.5232 14.4373 17.5228C14.308 15.4509 14.8289 13.1558 14.97 11.0848C15.1795 8.00987 15.3587 4.90814 15.1827 1.82684C15.1442 1.15134 15.1301 0.835133 14.9523 0.672267Z" fill="url(#paint0_linear_79_6513)"/>
<path d="M7.12447 53.848C6.88539 53.49 6.73341 53.2609 6.73341 53.2609L5.19094 55.62L4.51044 53.2155L4.32897 54.8034L3.33091 52.6258L1.47087 53.5331L0.148438 53.5699C0.213766 51.4648 0.355773 49.3616 0.453311 47.2579C0.803542 39.7292 2.33875 32.249 2.33875 24.7148C4.2995 27.9827 13.4481 26.6765 13.4513 26.6761C13.0689 26.731 12.1452 34.3128 12.039 34.9021C11.3631 38.6671 10.7579 42.5002 9.69722 46.1804C8.95184 48.7654 8.03544 51.3151 7.12447 53.848Z" fill="url(#paint1_linear_79_6513)"/>
<path d="M1.11082 57.6157L3.15232 56.9352C3.15232 56.9352 4.42258 58.387 4.60405 58.387C4.78552 58.387 5.35623 58.4051 5.54722 58.3961C5.54813 58.3961 5.54994 58.3961 5.5513 58.3956C5.15752 59.4962 4.73198 60.5842 4.21843 61.6422C4.03651 62.0169 2.13293 65.9196 1.48963 65.0426C0.0288262 63.0477 0.144961 59.2163 0.125 56.7578L1.11082 57.6157Z" fill="url(#paint2_linear_79_6513)"/>
<defs>
<linearGradient id="paint0_linear_79_6513" x1="17.509" y1="15.4533" x2="-2.03405" y2="15.5239" gradientUnits="userSpaceOnUse">
<stop stop-color="#94938C"/>
<stop offset="0.2296" stop-color="#EDEBE1"/>
<stop offset="0.7988" stop-color="#EDEBE1"/>
<stop offset="1" stop-color="#94938C"/>
</linearGradient>
<linearGradient id="paint1_linear_79_6513" x1="12.357" y1="40.136" x2="-3.89561" y2="40.1947" gradientUnits="userSpaceOnUse">
<stop stop-color="#BFAB8D"/>
<stop offset="0.5078" stop-color="#E7E1D2"/>
<stop offset="1" stop-color="#CCBFA6"/>
</linearGradient>
<linearGradient id="paint2_linear_79_6513" x1="5.09827" y1="60.9496" x2="-1.47619" y2="60.9733" gradientUnits="userSpaceOnUse">
<stop stop-color="#BFAB8D"/>
<stop offset="0.5078" stop-color="#E7E1D2"/>
<stop offset="1" stop-color="#CCBFA6"/>
</linearGradient>
</defs>
</svg>
