<svg width="16" height="66" viewBox="0 0 16 66" fill="none" xmlns="http://www.w3.org/2000/svg">
<path d="M9.85325 58.8887C9.85325 58.8887 10.9765 60.6 12.229 60.8812C13.6195 61.1938 15.1533 60.0202 15.1583 58.6732C15.1674 56.1123 14.1562 50.4859 14.1562 50.4859L8.03906 50C8.03952 50 8.66648 55.3256 9.85325 58.8887Z" fill="#B46766"/>
<path d="M0.387855 0.672267C0.536653 0.53662 0.799319 0.508039 1.28563 0.467209C2.02962 0.405056 2.80264 0.459501 3.54845 0.460862C6.58837 0.46676 9.62828 0.526642 12.6682 0.526642C12.6682 0.526642 15.6097 1.18037 15.2831 2.81448C14.9564 4.44858 13.9757 24.7129 12.9953 26.0204C12.015 27.3279 9.72718 31.5769 4.82456 30.2694C-0.0776008 28.962 0.902754 17.5232 0.902754 17.5228C1.03205 15.4509 0.511242 13.1558 0.370156 11.0848C0.160569 8.00987 -0.018621 4.90814 0.157396 1.82684C0.195503 1.15134 0.20957 0.835133 0.387855 0.672267Z" fill="url(#paint0_linear_79_6508)"/>
<path d="M8.20968 53.848C8.44876 53.49 8.60072 53.2609 8.60072 53.2609L10.1432 55.62L10.8237 53.2155L11.0052 54.8034L12.0032 52.6258L13.8633 53.5331L15.1857 53.5699C15.1204 51.4648 14.9784 49.3616 14.8808 47.2579C14.5306 39.7292 12.9954 32.249 12.9954 24.7148C11.0347 27.9827 1.88599 26.6765 1.88281 26.6761C2.26525 26.731 3.18894 34.3128 3.2951 34.9021C3.97106 38.6671 4.57624 42.5002 5.63691 46.1804C6.38229 48.7654 7.29826 51.3151 8.20968 53.848Z" fill="url(#paint1_linear_79_6508)"/>
<path d="M14.2295 57.6157L12.188 56.9352C12.188 56.9352 10.9178 58.387 10.7363 58.387C10.5548 58.387 9.98413 58.4051 9.79314 58.3961C9.79223 58.3961 9.79042 58.3961 9.78906 58.3956C10.1828 59.4962 10.6084 60.5842 11.1219 61.6422C11.3038 62.0169 13.2074 65.9196 13.8507 65.0426C15.3115 63.0477 15.1954 59.2163 15.2153 56.7578L14.2295 57.6157Z" fill="url(#paint2_linear_79_6508)"/>
<defs>
<linearGradient id="paint0_linear_79_6508" x1="-2.16895" y1="15.4533" x2="17.3734" y2="15.5239" gradientUnits="userSpaceOnUse">
<stop stop-color="#94938C"/>
<stop offset="0.2296" stop-color="#EDEBE1"/>
<stop offset="0.7988" stop-color="#EDEBE1"/>
<stop offset="1" stop-color="#94938C"/>
</linearGradient>
<linearGradient id="paint1_linear_79_6508" x1="2.97694" y1="40.136" x2="19.2296" y2="40.1947" gradientUnits="userSpaceOnUse">
<stop stop-color="#BFAB8D"/>
<stop offset="0.5078" stop-color="#E7E1D2"/>
<stop offset="1" stop-color="#CCBFA6"/>
</linearGradient>
<linearGradient id="paint2_linear_79_6508" x1="10.2424" y1="60.9496" x2="16.8168" y2="60.9733" gradientUnits="userSpaceOnUse">
<stop stop-color="#BFAB8D"/>
<stop offset="0.5078" stop-color="#E7E1D2"/>
<stop offset="1" stop-color="#CCBFA6"/>
</linearGradient>
</defs>
</svg>
