<svg width="17" height="64" viewBox="0 0 17 64" fill="none" xmlns="http://www.w3.org/2000/svg">
<path d="M9.69562 59.8546C9.69562 59.8546 10.7114 61.5854 11.8048 61.8961C13.0185 62.2409 14.3206 61.1099 14.292 59.7689C14.2376 57.2197 13.224 51.5933 13.224 51.5933L7.90625 50.9609C7.9067 50.9614 8.57953 56.2784 9.69562 59.8546Z" fill="#B46766"/>
<path d="M1.88852 0.69577C2.66115 0.299265 3.86479 0.544245 4.71137 0.536987C6.28204 0.52383 7.85269 0.528359 9.4229 0.573725C11.1773 0.624536 13.6168 0.424019 15.2392 1.23517C16.7971 2.01412 16.9627 3.9599 16.9156 5.4883C16.7286 11.5261 16.3398 17.8802 13.9044 23.4934C13.1912 25.137 12.1958 26.7957 10.6379 27.7629C8.22381 29.2618 5.4604 28.393 4.08436 25.9931C2.98281 24.0723 2.55907 21.858 2.32814 19.6858C2.15347 18.0413 2.26282 16.3845 2.14622 14.7367C2.02327 13.0001 1.51107 11.3152 1.23114 9.59897C0.788795 6.88513 0.253432 4.05335 1.2647 1.39985C1.39491 1.05779 1.61449 0.836407 1.88852 0.69577Z" fill="url(#paint0_linear_79_6518)"/>
<path d="M9.11962 56.1244L9.79875 55.3168L10.9783 55.952L11.5227 54.8178L12.4754 55.7251L13.2466 54.1827L13.5733 54.5175C13.5379 53.5966 13.5129 52.6752 13.4862 51.7542C13.3079 45.6469 13.3401 39.5324 13.4199 33.4238C13.4621 30.2114 13.517 26.9981 13.6073 23.7866C11.3195 27.0548 3.14844 23.1328 3.14844 23.1328C3.65201 26.6487 5.76339 44.3776 9.03161 55.8168C9.06065 55.9193 9.09013 56.0219 9.11962 56.1244Z" fill="url(#paint1_linear_79_6518)"/>
<path d="M13.8023 58.1839C13.7746 57.8977 13.7501 57.6109 13.7279 57.3242L13.3355 57.6763L12.7912 58.5382L11.8385 58.3114L10.9766 59.128L10.2962 59.1734L10.1016 59.1561C10.3901 59.9196 10.7144 60.6677 11.095 61.385C11.4792 62.1085 11.9882 63.0458 12.7626 63.4269C13.3128 63.6977 14.1003 63.5612 14.4052 62.9614C14.6343 62.5105 14.3498 61.9275 14.2555 61.433C14.0504 60.3579 13.9066 59.2727 13.8023 58.1839Z" fill="url(#paint2_linear_79_6518)"/>
<defs>
<linearGradient id="paint0_linear_79_6518" x1="19.6364" y1="14.4353" x2="-2.55759" y2="14.5155" gradientUnits="userSpaceOnUse">
<stop stop-color="#94938C"/>
<stop offset="0.2296" stop-color="#EDEBE1"/>
<stop offset="0.7988" stop-color="#EDEBE1"/>
<stop offset="1" stop-color="#94938C"/>
</linearGradient>
<linearGradient id="paint1_linear_79_6518" x1="14.9358" y1="39.5968" x2="6.31848" y2="39.628" gradientUnits="userSpaceOnUse">
<stop stop-color="#BFAB8D"/>
<stop offset="0.5078" stop-color="#E7E1D2"/>
<stop offset="1" stop-color="#CCBFA6"/>
</linearGradient>
<linearGradient id="paint2_linear_79_6518" x1="15.0177" y1="60.4364" x2="11.4093" y2="60.4495" gradientUnits="userSpaceOnUse">
<stop stop-color="#BFAB8D"/>
<stop offset="0.5078" stop-color="#E7E1D2"/>
<stop offset="1" stop-color="#CCBFA6"/>
</linearGradient>
</defs>
</svg>
