<svg width="19" height="67" viewBox="0 0 19 67" fill="none" xmlns="http://www.w3.org/2000/svg">
<path d="M11.9409 55.9031C11.9409 55.9031 13.1059 57.6066 14.4211 57.8765C15.8806 58.1764 17.5051 56.9864 17.5228 55.6368C17.5569 53.0712 16.5466 47.4444 16.5466 47.4444L10.1172 47.0156C10.1176 47.0161 10.7265 52.3449 11.9409 55.9031Z" fill="#B46766"/>
<path d="M0.989165 8.59656C0.989165 8.59656 0.0106187 3.36665 2.29932 1.73344C4.58803 0.100233 5.56792 0.754421 5.56792 0.754421C6.51425 1.01301 7.46513 1.25527 8.41782 1.488C9.98657 1.8709 11.6801 2.41984 13.306 2.37765C13.6317 2.36903 13.9583 2.33274 14.2823 2.3654C16.7052 2.60766 17.0985 5.18813 17.4624 7.07857C17.9292 9.50253 18.2581 11.9592 18.4523 14.4199C18.6124 16.4518 18.6904 18.507 18.519 20.5412C18.3947 22.0148 18.1887 23.6979 17.3236 24.9464C16.1146 26.6907 13.8989 27.4833 11.9173 27.9392C9.40224 28.5181 6.75923 28.6542 4.18699 28.5458C2.78836 28.4864 2.39866 25.3692 2.32063 24.3802C1.90554 19.1158 1.4646 13.8555 0.989165 8.59656Z" fill="url(#paint0_linear_79_6528)"/>
<path d="M10.1863 50.1571L10.9122 50.8376L12.0917 49.3858L13.4073 50.4746L13.6795 49.4766L15.9931 48.297L16.5375 50.7015L17.3091 51.0181C17.1531 50.2002 17.0224 49.3804 16.948 48.5552C16.7516 46.3807 16.63 44.2127 16.6087 42.0282C16.5706 38.0714 16.7452 34.1154 16.9725 30.1662C17.0519 28.7848 17.3962 26.6222 16.9938 25.2734C16.8164 25.395 16.7534 25.7371 16.561 25.8378C14.4574 26.9384 11.2238 26.8254 8.92064 27.0101C7.01893 27.1625 5.08457 27.3381 3.17969 27.3481C3.62517 28.9023 4.05297 30.4629 4.41589 32.039C5.00836 34.6113 5.28917 37.2362 5.9202 39.7994C6.83204 43.5031 8.23155 47.0531 9.65465 50.5853L10.1863 50.1571Z" fill="url(#paint1_linear_79_6528)"/>
<path d="M18.5099 57.5244C18.3942 56.2392 18.1456 54.9726 17.8766 53.7109L17.4483 55.9656L16.1781 57.7349L12.8211 55.6934C12.8211 55.6934 12.3847 56.0314 11.9297 56.3598C12.2572 57.2445 12.5716 58.1345 12.8651 59.0314C13.507 60.993 13.8291 63.2853 15.0853 64.9788C15.465 65.491 16.605 66.6533 17.3608 66.4455C17.9337 66.2876 18.1242 64.5751 18.2544 63.9146C18.6691 61.8146 18.7013 59.6516 18.5099 57.5244Z" fill="url(#paint2_linear_79_6528)"/>
<defs>
<linearGradient id="paint0_linear_79_6528" x1="-3.68226" y1="14.5658" x2="22.6448" y2="14.6718" gradientUnits="userSpaceOnUse">
<stop stop-color="#94938C"/>
<stop offset="0.2296" stop-color="#EDEBE1"/>
<stop offset="0.7988" stop-color="#EDEBE1"/>
<stop offset="1" stop-color="#94938C"/>
</linearGradient>
<linearGradient id="paint1_linear_79_6528" x1="7.43336" y1="38.1105" x2="15.7241" y2="38.1405" gradientUnits="userSpaceOnUse">
<stop stop-color="#BFAB8D"/>
<stop offset="0.5078" stop-color="#E7E1D2"/>
<stop offset="1" stop-color="#CCBFA6"/>
</linearGradient>
<linearGradient id="paint2_linear_79_6528" x1="13.9412" y1="60.0776" x2="17.8524" y2="60.0917" gradientUnits="userSpaceOnUse">
<stop stop-color="#BFAB8D"/>
<stop offset="0.5078" stop-color="#E7E1D2"/>
<stop offset="1" stop-color="#CCBFA6"/>
</linearGradient>
</defs>
</svg>
