<svg width="19" height="53" viewBox="0 0 19 53" fill="none" xmlns="http://www.w3.org/2000/svg">
<path d="M11.2884 46.9328C11.2884 46.9328 12.409 48.3923 13.712 48.5978C15.1579 48.8255 16.8038 47.749 16.8528 46.5708C16.9463 44.3306 16.0716 39.4433 16.0716 39.4433L9.67969 39.2188C9.67969 39.2188 10.1619 43.8556 11.2884 46.9328Z" fill="#B46766"/>
<path d="M3.3228 2.27043C3.3228 2.27043 0.0546687 3.90454 1.03502 8.48022C2.01536 13.0559 1.68874 15.6708 1.68874 15.6708C1.68874 15.6708 2.34245 23.5152 7.89835 23.8418C13.4547 24.1685 17.0495 20.9003 17.3766 18.9391C17.7036 16.9779 17.7032 11.4218 18.0303 10.441C18.3569 9.46058 19.3377 3.25035 16.0691 2.26998C12.8005 1.2896 10.8398 0.962516 10.8398 0.962516C10.8398 0.962516 7.57173 -0.0174112 3.3228 2.27043Z" fill="url(#paint0_linear_79_6538)"/>
<path d="M11.5273 42.9025L14.1585 43.6737L15.3381 41.9044L16.3815 42.0405L16.9921 41.1681C16.4309 36.3888 15.7414 30.1631 15.7414 28.4192C15.7414 25.4776 16.7812 19.9688 16.7812 19.9688C16.7812 19.9688 6.70933 22.1377 3.64844 21.5557C3.64844 21.5557 6.73563 34.2284 10.3895 43.1933L11.5273 42.9025Z" fill="url(#paint1_linear_79_6538)"/>
<path d="M17.7027 47.0504C17.7027 47.0504 17.6124 46.3263 17.47 45.1613L16.4724 44.9453L14.5216 46.261L12.4802 46.8961L12.0859 46.9678C13.0894 48.9545 14.1061 50.5016 15.0878 51.2996C20.3172 55.5483 17.7027 47.0504 17.7027 47.0504Z" fill="url(#paint2_linear_79_6538)"/>
<defs>
<linearGradient id="paint0_linear_79_6538" x1="21.7057" y1="12.2629" x2="-2.46054" y2="12.3502" gradientUnits="userSpaceOnUse">
<stop stop-color="#94938C"/>
<stop offset="0.2296" stop-color="#EDEBE1"/>
<stop offset="0.4283" stop-color="#EDEBE1"/>
<stop offset="0.7988" stop-color="#EDEBE1"/>
<stop offset="1" stop-color="#94938C"/>
</linearGradient>
<linearGradient id="paint1_linear_79_6538" x1="15.6893" y1="31.8202" x2="5.18497" y2="31.8581" gradientUnits="userSpaceOnUse">
<stop stop-color="#BFAB8D"/>
<stop offset="0.5078" stop-color="#E7E1D2"/>
<stop offset="1" stop-color="#CCBFA6"/>
</linearGradient>
<linearGradient id="paint2_linear_79_6538" x1="17.7507" y1="48.7142" x2="12.7991" y2="48.732" gradientUnits="userSpaceOnUse">
<stop stop-color="#BFAB8D"/>
<stop offset="0.5078" stop-color="#E7E1D2"/>
<stop offset="1" stop-color="#CCBFA6"/>
</linearGradient>
</defs>
</svg>
