<svg width="20" height="51" viewBox="0 0 20 51" fill="none" xmlns="http://www.w3.org/2000/svg">
<path d="M10.5696 42.3547C10.5696 42.3547 11.6901 43.8141 12.993 44.0196C14.4388 44.2474 16.0846 43.1708 16.1336 41.9927C16.2271 39.7525 15.3525 34.8652 15.3525 34.8652L8.96094 34.6406C8.96094 34.6406 9.44317 39.2775 10.5696 42.3547Z" fill="#B46766"/>
<path d="M9.14815 38.9748L9.42082 38.9358L10.3957 37.2404L11.7114 38.3292L12.4826 37.3311L13.027 38.0116L13.9343 36.6506H15.3861L16.4499 36.828C16.1804 34.7737 15.9885 32.7108 15.7848 30.6838C15.4609 27.4541 14.6929 23.4953 15.4541 20.2755C16.2712 16.8199 4.538 20.1676 4.03125 20.7819C4.83424 26.0382 6.25013 31.2904 8.09338 36.2704C8.42864 37.1746 8.77751 38.0792 9.14815 38.9748Z" fill="url(#paint0_linear_79_6548)"/>
<path d="M19.2281 48.3885C19.1582 47.5447 18.8216 46.7503 18.5276 45.9564C17.7555 43.8717 17.2352 41.6968 16.8514 39.4883L15.5218 39.5532L15.3403 41.0957L14.2515 40.4605L12.7545 42.2299L10.7585 41.141L10.3516 41.6532C12.0673 45.1561 14.2874 48.3563 17.5727 50.6456C17.692 50.7286 17.8199 50.8148 17.9651 50.822C18.113 50.8293 18.2523 50.7526 18.3707 50.6637C19.0484 50.1569 19.2979 49.2319 19.2281 48.3885Z" fill="url(#paint1_linear_79_6548)"/>
<path d="M14.1697 0.799929C13.4429 0.472342 12.6848 0.464633 11.6722 0.713272C11.3981 0.780423 11.106 0.88477 10.9572 1.12433C10.2603 2.24412 15.9799 4.39431 16.6636 3.45465C17.0682 2.89567 15.5425 1.77997 15.2231 1.50274C14.8624 1.18922 14.5195 0.957823 14.1697 0.799929Z" fill="#D8D6D0"/>
<path d="M4.23447 0.986584C3.89694 1.08821 3.64016 1.19708 3.53219 1.2919C2.98597 1.77188 2.41843 2.28271 2.1739 2.96729C2.07591 3.24176 2.06549 3.60969 2.31501 3.7603C2.39939 3.81111 2.50009 3.82653 2.59809 3.8347C3.7427 3.92861 5.06698 3.1846 6.03511 2.65336C6.39351 2.45692 7.93463 1.74784 7.86431 1.19028C7.75724 0.345098 5.46165 0.617752 4.23447 0.986584Z" fill="#D8D6D0"/>
<path d="M2.21989 3.09318C2.21989 3.09318 -0.067973 4.72731 1.23951 8.97641C1.89325 14.8596 3.85449 20.7429 3.85449 20.7429C3.85449 20.7429 4.50823 21.7233 9.08397 21.7233C13.6597 21.7233 14.9672 21.0695 15.6209 19.7621C16.2747 18.4546 17.9088 6.03434 17.9088 6.03434C17.9088 6.03434 17.5822 3.09273 16.2747 2.76609C14.9672 2.43944 13.6597 2.11234 13.3331 2.11234C13.0064 2.11234 10.0648 0.151105 8.75732 0.478204C7.44938 0.805302 4.18112 3.41983 2.21989 3.09318Z" fill="url(#paint2_linear_79_6548)"/>
<defs>
<linearGradient id="paint0_linear_79_6548" x1="6.67436" y1="28.8384" x2="15.1226" y2="28.8689" gradientUnits="userSpaceOnUse">
<stop stop-color="#BFAB8D"/>
<stop offset="0.5078" stop-color="#E7E1D2"/>
<stop offset="1" stop-color="#CCBFA6"/>
</linearGradient>
<linearGradient id="paint1_linear_79_6548" x1="12.2477" y1="45.1368" x2="18.2832" y2="45.1587" gradientUnits="userSpaceOnUse">
<stop stop-color="#BFAB8D"/>
<stop offset="0.5078" stop-color="#E7E1D2"/>
<stop offset="1" stop-color="#CCBFA6"/>
</linearGradient>
<linearGradient id="paint2_linear_79_6548" x1="-2.79818" y1="11.0396" x2="21.3342" y2="11.1268" gradientUnits="userSpaceOnUse">
<stop stop-color="#94938C"/>
<stop offset="0.2296" stop-color="#EDEBE1"/>
<stop offset="0.7988" stop-color="#EDEBE1"/>
<stop offset="1" stop-color="#94938C"/>
</linearGradient>
</defs>
</svg>
