<svg width="26" height="51" viewBox="0 0 26 51" fill="none" xmlns="http://www.w3.org/2000/svg">
<path d="M17.7495 6.63281C17.7495 6.63281 10.4032 7.24118 10.8646 9.53265C11.326 11.8246 13.6855 16.3331 13.6855 16.3331L21.7599 13.6451C21.7594 13.6451 19.9575 9.20919 17.7495 6.63281Z" fill="#B46766"/>
<path d="M10.734 2.23181C10.734 2.23181 9.82802 0.177608 7.99381 0.692067C6.15961 1.20653 5.52583 6.00043 5.85792 9.5345C6.18955 13.0686 7.76153 24.2814 10.4641 24.5124C13.1666 24.7433 18.1089 18.3924 15.8605 14.8542C13.6116 11.3165 9.89153 5.10625 10.734 2.23181Z" fill="url(#paint0_linear_79_6470)"/>
<path d="M3.6147 34.8498C3.3425 34.9328 2.95235 35.6722 2.80128 35.885C2.2029 36.7293 1.68483 37.638 1.29695 38.5988C0.25171 41.1879 0.403234 44.0273 2.36396 46.1482C2.3871 46.1731 2.41069 46.1981 2.43382 46.223C2.53953 46.3342 2.64976 46.4426 2.73596 46.5692C2.97776 46.9244 3.03537 47.3694 3.26447 47.7337C3.48087 48.0781 3.79889 48.4001 4.10692 48.6601C4.83233 49.2725 5.79863 49.6981 6.76357 49.6028C7.09519 49.5701 7.41139 49.4522 7.72306 49.3351C9.07633 48.827 10.5457 48.2477 11.2634 46.904C11.1818 47.0573 11.5542 47.6811 11.6481 47.8081C11.8732 48.1139 12.149 48.2468 12.4969 48.3811C13.6461 48.8252 14.8968 49.1818 15.9983 49.7326C16.7595 50.0256 17.4019 50.3042 18.1763 50.0501C18.6273 49.9022 19.0841 49.7725 19.53 49.6092C20.3648 49.3038 21.7534 48.7694 21.7534 47.6865C21.7534 46.0121 23.1489 40.9892 19.8 35.9662C16.4529 30.9451 3.62558 34.8466 3.6147 34.8498Z" fill="#D8D6D0"/>
<path d="M3.59804 30.7226C3.27911 30.8197 2.82182 31.6862 2.64534 31.9352C1.94443 32.9242 1.33787 33.9885 0.883298 35.1136C-0.341148 38.1463 -0.163309 41.4722 2.1327 43.9555C2.15992 43.9845 2.18759 44.014 2.21481 44.0431C2.33866 44.1733 2.46751 44.3003 2.56868 44.4487C2.85222 44.8651 2.91935 45.3855 3.18747 45.8128C3.44062 46.2157 3.81308 46.5931 4.1742 46.898C5.02391 47.6152 6.15582 48.1133 7.28545 48.0022C7.67378 47.9641 8.04398 47.8257 8.40918 47.6887C9.99429 47.094 11.7155 46.4148 12.5561 44.8411C12.4604 45.0203 12.8968 45.7511 13.0066 45.9004C13.2702 46.2583 13.5937 46.4139 14.0006 46.5714C15.3466 47.0917 16.8115 47.5091 18.1018 48.1542C18.9932 48.4976 19.7454 48.8238 20.6527 48.5262C21.1808 48.3529 21.7161 48.2009 22.2383 48.0099C23.2159 47.6524 24.8428 47.0264 24.8428 45.7579C24.8428 43.7967 26.4769 37.9136 22.555 32.0305C18.6344 26.1492 3.61029 30.7189 3.59804 30.7226Z" fill="url(#paint1_linear_79_6470)"/>
<path d="M19.4547 9.93135L18.5582 9.35566L17.9889 9.76939L15.971 8.73461L16.0227 10.0802L14.6771 9.35566L14.6254 10.9081L12.7626 9.61425L12.8048 9.92364C12.5045 9.2173 12.1955 8.51593 11.9628 7.78328C11.4805 6.2667 10.8263 3.25804 12.9645 2.68053C13.8274 2.44735 14.7461 2.88831 15.3907 3.5071C17.1374 5.18201 18.4698 7.45166 19.6003 9.70543L19.4547 9.93135Z" fill="url(#paint2_linear_79_6470)"/>
<path d="M0.270296 8.82762C0.404581 7.80143 0.587861 6.75937 0.995252 5.80168C1.31236 5.05631 2.08132 3.59325 3.06396 3.7053C3.42462 3.74659 3.74763 3.95165 4.01711 4.19526C4.54608 4.67297 4.91446 5.309 5.15808 5.97906C5.66029 7.36138 5.6494 8.84986 5.74603 10.298C5.84584 11.791 6.25278 13.1737 6.58758 14.6227C7.2091 17.3152 7.94313 20.4841 9.70698 22.6911C10.1361 23.2283 10.7812 23.6629 11.4658 23.598C11.817 23.5644 12.145 23.4029 12.4317 23.1974C13.4647 22.4566 13.99 21.1782 14.1692 19.9197C14.4029 18.2783 14.3752 16.5295 14.1474 14.83L14.1511 14.8228L15.1446 14.5805L15.8174 12.9247L17.6284 14.1146C17.6284 14.1146 18.974 12.8208 19.1291 12.5622C19.2507 12.3594 20.5192 12.6339 21.0604 12.7618C21.8071 14.3877 22.5076 16.0622 22.9726 17.7866C23.2865 18.9511 23.253 20.1116 23.2198 21.3143C23.1273 24.6764 22.9322 29.3468 22.5584 32.6804C19.3596 32.4499 15.7298 30.8861 12.5251 30.7595C10.515 30.6802 8.50386 30.5472 6.4914 30.6117C5.56093 30.6411 4.1768 33.1218 3.27492 33.007C2.68969 32.9326 3.07575 30.5291 3.0998 29.9071C3.12021 29.3777 3.16513 28.8505 3.08755 28.3229C2.809 26.4212 1.76285 24.6156 1.32778 22.7138C0.824213 20.514 0.483966 18.2715 0.274826 16.025C0.0520768 13.6419 -0.0418252 11.2075 0.270296 8.82762Z" fill="url(#paint3_linear_79_6470)"/>
<defs>
<linearGradient id="paint0_linear_79_6470" x1="14.2431" y1="23.4858" x2="-4.31868" y2="-21.8798" gradientUnits="userSpaceOnUse">
<stop offset="0.1599" stop-color="#BFAB8D"/>
<stop offset="0.5078" stop-color="#E7E1D2"/>
<stop offset="0.7297" stop-color="#CCBFA6"/>
</linearGradient>
<linearGradient id="paint1_linear_79_6470" x1="-5.65816" y1="41.1621" x2="29.1644" y2="37.5052" gradientUnits="userSpaceOnUse">
<stop stop-color="#94938C"/>
<stop offset="0.2296" stop-color="#EDEBE1"/>
<stop offset="0.7988" stop-color="#EDEBE1"/>
<stop offset="1" stop-color="#94938C"/>
</linearGradient>
<linearGradient id="paint2_linear_79_6470" x1="11.955" y1="6.66745" x2="19.3322" y2="7.00101" gradientUnits="userSpaceOnUse">
<stop offset="0.1599" stop-color="#BFAB8D"/>
<stop offset="0.5078" stop-color="#E7E1D2"/>
<stop offset="0.7297" stop-color="#CCBFA6"/>
</linearGradient>
<linearGradient id="paint3_linear_79_6470" x1="1.33494" y1="18.2732" x2="22.2454" y2="19.2186" gradientUnits="userSpaceOnUse">
<stop offset="0.1599" stop-color="#BFAB8D"/>
<stop offset="0.5078" stop-color="#E7E1D2"/>
<stop offset="0.7297" stop-color="#CCBFA6"/>
</linearGradient>
</defs>
</svg>
