<svg width="29" height="50" viewBox="0 0 29 50" fill="none" xmlns="http://www.w3.org/2000/svg">
<path d="M22.733 42.4394C22.733 42.4394 23.4917 44.054 24.5543 44.4578C25.7341 44.906 27.2387 44.0962 27.4224 42.9398C27.7723 40.7413 27.6343 35.778 27.6343 35.778L22.3251 34.5703C22.3255 34.5703 22.1658 39.2251 22.733 42.4394Z" fill="#B46766"/>
<path d="M19.336 45.8161C20.0115 47.9801 18.4165 48.863 16.9348 47.5809C14.0704 45.102 12.4127 41.1256 10.9546 37.483C10.2796 35.7963 7.38112 29.8649 8.90633 28.4313C10.4197 27.009 16.3523 29.7175 16.6563 33.5238C16.8209 35.5885 16.8903 37.659 17.2455 39.7246C17.6321 41.9694 18.6737 43.6956 19.336 45.8161Z" fill="url(#paint0_linear_79_6564)"/>
<path d="M21.8989 39.8225L22.6679 38.5921L24.0135 39.528L25.7097 38.0069L28.2253 38.5917L28.6572 38.7196C28.5882 36.5016 28.2661 34.2927 27.9214 32.1038C27.323 28.2998 26.554 24.5216 25.6952 20.7684C25.6621 20.6228 25.1948 18.2551 25.1005 18.2578C25.1005 18.2578 2.22567 18.8925 2.01562 18.8984C2.13176 18.8952 2.35814 19.7114 2.56002 20.5429C2.74784 21.3173 2.91434 22.1054 2.95109 22.2578C3.26639 23.5657 3.53994 24.8841 3.75952 26.2115C3.93872 27.2962 4.08207 28.3873 4.18868 29.4816C4.29212 30.5422 4.20185 31.71 4.40373 32.7498C4.60289 33.7746 4.96808 34.8498 5.31332 35.8397C6.34995 38.8126 7.9201 41.5791 9.78467 44.1078C10.7201 45.3763 11.7318 46.588 12.7997 47.7472C13.4557 48.4594 14.8503 50.5681 16.0094 49.692C16.4445 49.3631 16.6192 48.7765 16.591 48.2317C16.5629 47.6868 16.3633 47.1678 16.1741 46.6561C14.7169 42.7078 13.3314 37.8191 14.1508 33.5832C14.2361 33.1418 14.3694 32.6858 14.6861 32.3669C15.1012 31.9491 15.7658 31.8552 16.3338 32.0117C16.9018 32.1682 17.3863 32.5397 17.8091 32.9498C19.2604 34.3585 20.2916 36.3388 21.1785 38.1398C21.4489 38.6879 21.6889 39.2495 21.8989 39.8225Z" fill="url(#paint1_linear_79_6564)"/>
<path d="M26.8251 40.9922L24.8359 41.7525L23.8999 42.3959L22.5781 42.1894C22.5963 42.277 22.614 42.365 22.6303 42.453C22.9016 43.883 22.6711 45.5825 23.2456 46.9245C23.5673 47.6767 24.2846 48.3213 25.1027 48.2977C25.7393 48.2796 26.3029 47.8699 26.7226 47.3909C27.9976 45.9355 28.4223 43.7678 28.5829 41.7902L26.8251 40.9922Z" fill="url(#paint2_linear_79_6564)"/>
<path d="M9.17219 0.450115C7.85934 0.539479 6.84589 0.924608 5.76803 1.66492C5.47633 1.86543 5.20006 2.10721 5.25767 2.3939C5.52623 3.733 15.4012 2.657 15.3064 1.48257C15.2474 0.78489 12.0361 0.597999 11.317 0.520429C10.5059 0.432879 9.80458 0.40702 9.17219 0.450115Z" fill="#D8D6D0"/>
<path d="M20.458 0.272191C19.2721 0.204601 18.3067 0.46362 17.2275 1.06558C16.9353 1.22843 16.6504 1.43437 16.6563 1.72333C16.6831 3.07513 25.6669 3.18627 25.769 2.01728C25.8271 1.32233 22.9908 0.75712 22.3616 0.595177C21.6511 0.413273 21.0292 0.304852 20.458 0.272191Z" fill="#D8D6D0"/>
<path d="M4.51587 1.32205C3.56271 1.41732 2.6649 1.78434 1.89139 2.59096C0.894684 3.6303 0.395651 5.07203 0.272253 6.50651C0.00776432 9.58415 0.534472 13.2443 1.30344 16.2258C1.54751 17.1721 1.572 19.161 2.22165 19.8914C4.2432 22.1638 8.68508 21.0582 11.3731 20.8717C14.4517 20.6581 17.7661 20.556 20.5245 19.8914C22.3505 19.7997 25.7035 20.2039 26.2579 17.7891C26.8931 15.0213 27.2841 12.1909 27.4148 9.35415C27.5128 7.23464 27.8222 1.99756 24.7753 1.58881C24.3294 1.52893 23.5767 2.03159 23.1299 2.13321C22.1976 2.34461 21.288 2.31604 20.3625 2.07015C19.2242 1.76801 18.1672 1.22361 17.0761 0.780381C16.8389 0.684205 16.5921 0.591203 16.3362 0.598008C15.7532 0.613886 15.325 1.11882 14.8586 1.46905C12.8956 2.94436 9.37692 2.17903 7.20975 1.6124C6.29969 1.37468 5.38465 1.2354 4.51587 1.32205Z" fill="url(#paint3_linear_79_6564)"/>
<defs>
<linearGradient id="paint0_linear_79_6564" x1="11.5727" y1="27.5228" x2="19.3346" y2="71.8155" gradientUnits="userSpaceOnUse">
<stop offset="0.1599" stop-color="#BFAB8D"/>
<stop offset="0.5078" stop-color="#E7E1D2"/>
<stop offset="0.7297" stop-color="#CCBFA6"/>
</linearGradient>
<linearGradient id="paint1_linear_79_6564" x1="4.60021" y1="34.0239" x2="27.113" y2="34.1052" gradientUnits="userSpaceOnUse">
<stop stop-color="#BFAB8D"/>
<stop offset="0.5078" stop-color="#E7E1D2"/>
<stop offset="1" stop-color="#CCBFA6"/>
</linearGradient>
<linearGradient id="paint2_linear_79_6564" x1="23.1625" y1="44.6354" x2="28.2218" y2="44.6537" gradientUnits="userSpaceOnUse">
<stop stop-color="#BFAB8D"/>
<stop offset="0.5078" stop-color="#E7E1D2"/>
<stop offset="1" stop-color="#CCBFA6"/>
</linearGradient>
<linearGradient id="paint3_linear_79_6564" x1="-5.50304" y1="10.8905" x2="33.3426" y2="11.0308" gradientUnits="userSpaceOnUse">
<stop stop-color="#94938C"/>
<stop offset="0.2296" stop-color="#EDEBE1"/>
<stop offset="0.7988" stop-color="#EDEBE1"/>
<stop offset="1" stop-color="#94938C"/>
</linearGradient>
</defs>
</svg>
