<svg width="27" height="49" viewBox="0 0 27 49" fill="none" xmlns="http://www.w3.org/2000/svg">
<path d="M20.3658 43.0796C20.3658 43.0796 21.1244 44.6942 22.1869 45.0979C23.3665 45.5461 24.871 44.7364 25.0548 43.58C25.4046 41.3816 25.2666 36.4186 25.2666 36.4186L19.9579 35.2109C19.9583 35.2109 19.7987 39.8655 20.3658 43.0796Z" fill="#B46766"/>
<path d="M15.8386 42.5422C16.0405 44.4994 14.7707 44.9444 13.8692 43.5807C12.1266 40.9444 11.4543 37.2701 10.8826 33.9162C10.6177 32.3633 9.30748 26.8022 10.5996 25.8781C11.8817 24.9612 15.8114 28.3706 15.5279 31.6451C15.3741 33.4217 15.15 35.1851 15.1336 36.9984C15.1159 38.9687 15.6404 40.6246 15.8386 42.5422Z" fill="url(#paint0_linear_79_6580)"/>
<path d="M1.81027 16.0353C1.70774 14.8086 1.73587 13.5655 1.50223 12.3538C1.13748 10.4624 0.182501 8.81469 0.317694 6.81082C0.643426 1.98647 7.38534 1.61354 10.7751 2.94961C12.1847 3.5049 12.7631 2.98046 13.9481 2.2319C15.232 1.42073 16.7467 0.996094 18.2642 0.996094C19.9995 0.996094 21.9144 1.48969 23.3965 2.40157C25.5891 3.75079 25.5873 5.96427 25.7379 8.28752C25.9044 10.8571 25.8454 13.5043 24.9957 15.9614C24.7358 16.7136 24.3914 17.4526 23.8498 18.0356C23.0799 18.8644 22.0991 18.9738 21.0588 19.2133C19.6389 19.5404 18.203 19.8171 16.7717 20.088C13.9649 20.6192 11.1317 21.0516 8.27589 21.1949C6.9217 21.263 5.51944 21.1255 4.31677 20.499C2.57515 19.5926 1.96497 17.8868 1.81027 16.0353Z" fill="url(#paint1_linear_79_6580)"/>
<path d="M24.8478 26.5016C24.2943 23.7193 23.9486 20.8957 23.8161 18.0621C23.8075 17.8756 23.793 17.6728 23.6674 17.5349C23.4972 17.3489 23.2055 17.3634 22.9555 17.392C19.8838 17.7441 16.8056 18.0303 13.737 18.4141C11.6606 18.6723 9.58143 18.9454 7.52315 19.3246C6.61627 19.4916 4.91412 19.5782 4.21094 20.281C4.89643 22.2394 5.44896 24.2837 5.76789 26.3342C5.98248 27.7143 5.95073 28.941 5.74113 30.307C5.38818 32.6025 5.36325 34.9983 5.46215 37.3138C5.6164 40.9255 7.34892 43.6456 8.73396 46.8943C9.24297 48.0879 10.4203 48.7145 11.4873 47.6161C12.8406 46.2234 12.4758 43.2959 12.5298 41.5293C12.6033 39.1113 12.6523 36.6764 13.1359 34.297C13.3441 33.2726 13.6368 32.2514 14.1716 31.3531C14.7033 30.4599 15.686 30.0243 16.6273 30.6676C17.8808 31.5242 18.1635 33.4005 18.5963 34.7361C19.0023 35.9887 19.3702 37.2535 19.7254 38.5215C19.8452 38.9488 19.9627 39.3766 20.0788 39.8049L20.3674 39.4148C20.3674 39.4148 21.0932 39.9138 21.2293 40.0045C21.3654 40.0953 22.182 39.687 22.2274 39.5962C22.2728 39.5055 22.4996 38.7343 22.4996 38.7343L24.2235 38.5982L24.8133 39.1426L25.2216 39.2333L25.379 39.3699C25.8132 37.7698 26.1788 36.1629 26.2764 34.4966C26.4338 31.7927 25.3681 29.1202 24.8478 26.5016Z" fill="url(#paint2_linear_79_6580)"/>
<path d="M24.2193 42.1367L22.8126 43.0893L21.2697 42.7264L20.8672 42.7872C20.9661 43.1619 21.0651 43.5366 21.1649 43.9109C21.3632 44.6548 22.0103 46.4022 23.1044 45.6428C23.4738 45.3861 23.6562 44.9415 23.81 44.5192C24.0859 43.7598 24.3314 42.99 24.5633 42.2161L24.2193 42.1367Z" fill="url(#paint3_linear_79_6580)"/>
<defs>
<linearGradient id="paint0_linear_79_6580" x1="12.6468" y1="25.6111" x2="10.5372" y2="64.4164" gradientUnits="userSpaceOnUse">
<stop offset="0.1599" stop-color="#BFAB8D"/>
<stop offset="0.5078" stop-color="#E7E1D2"/>
<stop offset="0.7297" stop-color="#CCBFA6"/>
</linearGradient>
<linearGradient id="paint1_linear_79_6580" x1="-3.76781" y1="14.1195" x2="29.5305" y2="7.64011" gradientUnits="userSpaceOnUse">
<stop stop-color="#94938C"/>
<stop offset="0.2114" stop-color="#EDEBE1"/>
<stop offset="0.847" stop-color="#EDEBE1"/>
<stop offset="1" stop-color="#94938C"/>
</linearGradient>
<linearGradient id="paint2_linear_79_6580" x1="6.73527" y1="34.1621" x2="24.2294" y2="30.7579" gradientUnits="userSpaceOnUse">
<stop stop-color="#BFAB8D"/>
<stop offset="0.5078" stop-color="#E7E1D2"/>
<stop offset="1" stop-color="#CCBFA6"/>
</linearGradient>
<linearGradient id="paint3_linear_79_6580" x1="21.5187" y1="44.3554" x2="24.51" y2="43.7731" gradientUnits="userSpaceOnUse">
<stop stop-color="#BFAB8D"/>
<stop offset="0.5078" stop-color="#E7E1D2"/>
<stop offset="1" stop-color="#CCBFA6"/>
</linearGradient>
</defs>
</svg>
