<svg width="25" height="40" viewBox="0 0 25 40" fill="none" xmlns="http://www.w3.org/2000/svg">
<path d="M19.7058 35.52C19.7058 35.52 21.0241 36.7667 22.2626 36.7571C23.6372 36.7463 24.9374 35.4275 24.7495 34.267C24.3934 32.0609 22.6237 27.4219 22.6237 27.4219L16.7031 28.2348C16.7036 28.2353 18.0622 32.6924 19.7058 35.52Z" fill="#B46766"/>
<path d="M15.5375 36.6216C15.8324 38.4748 14.6465 38.9657 13.7164 37.7141C11.9189 35.2947 11.0855 31.8305 10.365 28.6662C10.0315 27.2009 8.49173 21.9734 9.67405 21.0252C10.8473 20.0848 14.769 23.1257 14.6701 26.2595C14.6166 27.9594 14.4958 29.6507 14.5752 31.3787C14.6614 33.2564 15.2481 34.8061 15.5375 36.6216Z" fill="url(#paint0_linear_79_6598)"/>
<path d="M10.6154 3.0435C10.3051 2.97001 9.98393 2.76722 9.61102 2.52178C8.59844 1.85444 7.54684 1.21069 6.37866 0.886317C5.21002 0.561944 3.89529 0.59007 2.85549 1.21386C2.12418 1.65256 1.58252 2.34758 1.13657 3.07436C0.438835 4.2117 -0.0760833 5.53324 0.0840603 6.85795C0.266433 8.36866 0.865693 9.85624 1.48041 11.2363C1.85332 12.0733 2.16412 13.0283 2.836 13.6834C3.61948 14.4474 4.93781 14.5549 5.9708 14.6996C8.19285 15.0104 10.424 14.7318 12.5934 14.2169C14.7501 13.7047 16.979 13.1367 19.0758 12.4226C19.4528 12.2943 19.8294 12.1459 20.1451 11.9036C21.0302 11.2236 21.2121 9.67795 21.4249 8.6581C21.7479 7.10791 21.5506 5.50511 20.9164 4.06018C20.0998 2.19968 18.5382 0.557406 16.465 0.238477C14.9811 0.0102822 13.6636 0.314695 12.6651 1.46474C12.3343 1.84583 12.0712 2.2886 11.7137 2.64654C11.3204 3.04123 10.9752 3.12879 10.6154 3.0435Z" fill="url(#paint1_linear_79_6598)"/>
<path d="M18.474 30.7438L19.7896 30.6984L19.8804 29.156L20.6062 29.3828L21.3775 30.7438L22.8746 28.8838L24.4106 29.5479C24.1738 28.0259 23.6744 26.585 22.9998 25.4051C21.6923 23.1172 20.3848 12.9851 20.3848 11.351C20.3848 9.71692 4.69661 12.6585 3.0625 13.3122C3.0625 13.3122 4.36994 16.9075 4.36994 20.8294C4.36994 24.7513 4.04332 29.6541 6.33116 33.2494C8.619 36.8446 9.27272 38.4787 9.27272 38.4787C9.27272 38.4787 11.2339 40.7666 12.2143 38.1521C12.2143 38.1521 9.92643 30.3078 11.2339 26.3859C12.5414 22.464 13.8489 23.771 14.1755 24.4247C14.3928 24.8593 16.4869 28.3257 18.0589 31.1779L18.474 30.7438Z" fill="url(#paint2_linear_79_6598)"/>
<path d="M23.0531 34.9618L21.7375 34.3266L19.9609 35.2149C20.5988 36.9334 21.4367 38.4777 22.0165 38.4777C22.6702 38.4777 23.6506 36.8436 24.3043 33.902C24.3075 33.888 24.3102 33.8734 24.3134 33.8594L23.0531 34.9618Z" fill="url(#paint3_linear_79_6598)"/>
<defs>
<linearGradient id="paint0_linear_79_6598" x1="11.6056" y1="20.6591" x2="11.6297" y2="57.728" gradientUnits="userSpaceOnUse">
<stop offset="0.1599" stop-color="#BFAB8D"/>
<stop offset="0.5078" stop-color="#E7E1D2"/>
<stop offset="0.7297" stop-color="#CCBFA6"/>
</linearGradient>
<linearGradient id="paint1_linear_79_6598" x1="-6.29603" y1="7.43446" x2="27.7436" y2="7.55742" gradientUnits="userSpaceOnUse">
<stop stop-color="#94938C"/>
<stop offset="0.2614" stop-color="#EDEBE1"/>
<stop offset="0.7687" stop-color="#EDEBE1"/>
<stop offset="1" stop-color="#94938C"/>
</linearGradient>
<linearGradient id="paint2_linear_79_6598" x1="4.94266" y1="25.0989" x2="21.5763" y2="25.159" gradientUnits="userSpaceOnUse">
<stop stop-color="#BFAB8D"/>
<stop offset="0.5078" stop-color="#E7E1D2"/>
<stop offset="1" stop-color="#CCBFA6"/>
</linearGradient>
<linearGradient id="paint3_linear_79_6598" x1="20.3478" y1="36.1582" x2="23.726" y2="36.1704" gradientUnits="userSpaceOnUse">
<stop stop-color="#BFAB8D"/>
<stop offset="0.5078" stop-color="#E7E1D2"/>
<stop offset="1" stop-color="#CCBFA6"/>
</linearGradient>
</defs>
</svg>
