<svg width="19" height="55" viewBox="0 0 19 55" fill="none" xmlns="http://www.w3.org/2000/svg">
<path d="M13.5634 8.13619C13.5634 8.13619 6.78796 5.23321 6.12243 7.47429C5.45645 9.71538 5.42969 14.8036 5.42969 14.8036L13.8225 16.21C13.8225 16.21 14.3074 11.4466 13.5634 8.13619Z" fill="#B46766"/>
<path d="M9.21472 54.2217C9.21472 54.2217 3.91579 55.3173 2.03803 52.5649C0.160261 49.8121 8.5832 52.5613 9.21472 54.2217Z" fill="#D8D6D0"/>
<path d="M9.99219 54.4568C9.99219 54.4568 15.6356 54.8383 17.0398 51.179C18.444 47.5197 10.3252 52.3386 9.99219 54.4568Z" fill="#D8D6D0"/>
<path d="M12.2449 33.9255C12.3279 33.9664 12.4068 34.0126 12.4812 34.0648C13.9189 35.0692 15.1306 36.6965 16.0447 38.1687C17.4338 40.4052 18.4255 42.9635 18.1583 45.6328C17.976 47.4575 17.7714 49.5557 16.8595 51.1943C16.3269 52.1516 15.1297 52.5902 14.1548 52.9296C13.3196 53.2204 12.4767 53.4935 11.6578 53.8287C10.9016 54.1381 10.1594 54.6658 9.3074 54.5977C8.32795 54.5192 7.64382 53.7516 6.86035 53.2535C5.63093 52.4723 4.15926 52.0717 2.703 52.142C2.44714 52.1543 2.18492 52.1801 1.93949 52.1053C1.58155 51.9964 1.3198 51.6924 1.10884 51.3839C0.147989 49.9803 0.173392 48.6202 0.165226 46.9879C0.156607 45.3293 0.188816 43.6607 0.505018 42.0276C1.06801 39.1173 2.99063 36.7097 4.00139 33.9627C4.05945 33.8044 4.11752 33.6425 4.22413 33.5118C4.4065 33.2881 4.70501 33.1915 4.99263 33.1684C5.53158 33.1248 6.07462 33.2083 6.60857 33.2655C7.62115 33.3743 8.60966 33.4873 9.62768 33.5572C10.4352 33.613 11.4931 33.554 12.2449 33.9255Z" fill="url(#paint0_linear_79_6454)"/>
<path d="M12.5589 8.83221L10.5161 8.36991C10.5161 8.36991 10.1536 8.83221 10.0547 8.80907C9.9558 8.78594 7.68248 7.97703 7.68248 7.97703L6.69394 8.53187L6.22711 9.39476C6.1881 8.40666 6.11642 7.41902 6.00346 6.43727C5.8796 5.36071 5.56929 4.39711 5.67953 3.28153C5.79159 2.14735 6.32374 0.429748 7.82129 0.894309C8.94865 1.24409 9.65048 2.48397 10.2194 3.4267C11.2256 5.09349 11.9778 6.89865 12.6619 8.72287L12.5589 8.83221Z" fill="url(#paint1_linear_79_6454)"/>
<path d="M3.7444 30.9628C3.83105 29.483 3.96715 28.0063 4.15179 26.5355C4.49795 23.7754 5.18708 21.1182 5.6893 18.3931C6.10894 16.1179 6.26818 13.7321 6.26818 11.3948L6.86112 12.161L8.21216 11.8145L9.13448 12.5077L9.79322 11.0977C9.79322 11.0977 11.8688 12.9005 12.0008 12.8774C12.1042 12.8592 13.4471 12.7699 14.0187 12.7322C14.2474 13.5357 14.4447 14.3473 14.5958 15.1698C14.9265 16.9695 14.8861 18.7311 14.8548 20.548C14.8058 23.4324 14.7369 26.3164 14.6657 29.2003C14.6198 31.0613 14.726 33.0025 14.5795 34.8897C14.5522 35.2432 14.604 35.6623 14.3862 35.8402C14.3499 35.8697 14.3064 35.8928 14.2533 35.9073C13.9865 35.9822 13.1645 35.5798 12.8736 35.5036C11.9096 35.2513 10.9347 35.0404 9.95382 34.8648C8.91445 34.6788 7.86465 34.5023 6.80623 34.4937C6.24595 34.4892 5.68249 34.5282 5.134 34.647C4.64676 34.7527 4.12186 35.0866 3.66047 35.1284C3.32521 33.8177 3.66636 32.2934 3.7444 30.9628Z" fill="url(#paint2_linear_79_6454)"/>
<defs>
<linearGradient id="paint0_linear_79_6454" x1="-5.78463" y1="44.2849" x2="24.4513" y2="43.3536" gradientUnits="userSpaceOnUse">
<stop stop-color="#94938C"/>
<stop offset="0.2666" stop-color="#EDEBE1"/>
<stop offset="0.7117" stop-color="#EDEBE1"/>
<stop offset="1" stop-color="#94938C"/>
</linearGradient>
<linearGradient id="paint1_linear_79_6454" x1="5.1859" y1="5.32119" x2="12.3183" y2="4.57218" gradientUnits="userSpaceOnUse">
<stop stop-color="#BFAB8D"/>
<stop offset="0.5078" stop-color="#E7E1D2"/>
<stop offset="1" stop-color="#CCBFA6"/>
</linearGradient>
<linearGradient id="paint2_linear_79_6454" x1="1.29557" y1="24.5942" x2="15.6552" y2="23.0862" gradientUnits="userSpaceOnUse">
<stop stop-color="#BFAB8D"/>
<stop offset="0.5078" stop-color="#E7E1D2"/>
<stop offset="1" stop-color="#CCBFA6"/>
</linearGradient>
</defs>
</svg>
