<svg width="19" height="58" viewBox="0 0 19 58" fill="none" xmlns="http://www.w3.org/2000/svg">
<path d="M14.704 9.31588C14.704 9.31588 7.92858 6.4129 7.26306 8.65398C6.59708 10.8951 6.57031 15.9833 6.57031 15.9833L14.9631 17.3897C14.9631 17.3897 15.448 12.6262 14.704 9.31588Z" fill="#B46766"/>
<path d="M5.29141 24.3122C5.88163 22.5415 6.47186 18.2834 6.77718 14.6037L7.84829 15.6077L8.65628 14.4327L9.97828 16.1957L10.7128 14.0657L13.8712 16.1957L14.1652 13.9922L14.8276 14.4699C15.2826 16.5259 15.5185 18.4073 15.4237 19.7365C15.0971 24.3122 14.9936 38.1009 15.0453 38.0706C15.0971 38.0397 3.98438 38.3668 3.98438 38.3668C3.98438 38.3668 4.31057 27.2538 5.29141 24.3122Z" fill="url(#paint0_linear_79_6439)"/>
<path d="M13.0617 9.21953L11.4457 10.101L10.3437 8.26459L8.94815 9.73354L7.18515 8.1176L6.85124 8.30133C6.59673 5.73451 6.59672 2.41553 6.59672 2.41553C6.59672 2.41553 6.27008 -0.525999 9.21174 1.76181C10.5996 2.84107 12.133 5.88513 13.3312 9.27988L13.0617 9.21953Z" fill="url(#paint1_linear_79_6439)"/>
<path d="M9.35077 56.287C9.35077 56.287 4.00469 57.1222 2.26349 54.281C0.52275 51.4399 8.80137 54.5977 9.35077 56.287Z" fill="#D8D6D0"/>
<path d="M14.7728 37.059C14.7728 37.059 22.2901 48.1717 16.734 54.0548C16.0554 54.7735 14.9879 55.2788 14.1609 55.8046C13.3071 56.3477 12.3961 57.1017 11.3554 57.2192C10.1618 57.3544 9.28801 56.1054 8.11482 55.8618C6.24979 55.4744 4.42469 55.7811 2.83186 54.509C1.51668 53.4587 0.719126 51.8214 0.448287 50.1819C0.110758 48.1363 0.460082 46.0576 0.867475 44.0492C1.04123 43.1931 1.33702 42.3783 1.68317 41.5767C2.052 40.722 2.71708 39.8877 3.00652 39.0193C3.00652 39.0203 5.621 31.1759 14.7728 37.059Z" fill="url(#paint2_linear_79_6439)"/>
<defs>
<linearGradient id="paint0_linear_79_6439" x1="5.08808" y1="26.3079" x2="17.9808" y2="25.9107" gradientUnits="userSpaceOnUse">
<stop stop-color="#BFAB8D"/>
<stop offset="0.5078" stop-color="#E7E1D2"/>
<stop offset="1" stop-color="#CCBFA6"/>
</linearGradient>
<linearGradient id="paint1_linear_79_6439" x1="7.46595" y1="5.55633" x2="14.4717" y2="5.34052" gradientUnits="userSpaceOnUse">
<stop stop-color="#BFAB8D"/>
<stop offset="0.5078" stop-color="#E7E1D2"/>
<stop offset="1" stop-color="#CCBFA6"/>
</linearGradient>
<linearGradient id="paint2_linear_79_6439" x1="-3.26382" y1="46.4555" x2="23.4625" y2="45.6322" gradientUnits="userSpaceOnUse">
<stop stop-color="#94938C"/>
<stop offset="0.0311" stop-color="#A6A59D"/>
<stop offset="0.0939" stop-color="#C5C3BB"/>
<stop offset="0.1552" stop-color="#DBD9D0"/>
<stop offset="0.2138" stop-color="#E8E7DD"/>
<stop offset="0.2666" stop-color="#EDEBE1"/>
<stop offset="0.7117" stop-color="#EDEBE1"/>
<stop offset="0.7637" stop-color="#E7E5DB"/>
<stop offset="0.835" stop-color="#D5D3CA"/>
<stop offset="0.9175" stop-color="#B8B7AF"/>
<stop offset="1" stop-color="#94938C"/>
</linearGradient>
</defs>
</svg>
