<svg width="20" height="70" viewBox="0 0 20 70" fill="none" xmlns="http://www.w3.org/2000/svg">
<path d="M13.4723 11.3699C13.4723 11.3699 7.57368 8.84344 6.99435 10.7938C6.41457 12.7441 6.3125 15.6698 6.3125 15.6698L12.6198 18.9498C12.6198 18.9498 14.1201 14.2512 13.4723 11.3699Z" fill="#B46766"/>
<path d="M13.7031 41.9802C13.7035 41.9811 20.8937 51.4592 19.5862 59.3031C19.1643 61.8341 18.3005 64.4794 16.7748 66.5667C16.0308 67.5848 15.0641 68.5062 13.8451 68.9099C12.2327 69.4439 10.1636 69.0247 8.54714 68.664C7.75141 68.4867 6.96972 68.2421 6.22843 67.901C1.04573 65.5174 -0.323432 59.372 0.0934878 54.1639C0.386557 50.5055 1.49715 46.9565 2.94072 43.6039C3.87708 41.429 6.05831 40.8592 8.23546 40.5512C9.87411 40.3193 12.5889 40.5112 13.7031 41.9802Z" fill="url(#paint0_linear_79_6375)"/>
<path d="M7.55469 11.4527L8.27012 12.1001L9.35892 11.0113L9.94869 11.9186L11.4458 11.0566L12.3663 10.9355C11.9008 7.15606 11.5837 4.66409 11.5837 4.66409C11.5837 4.66409 10.2762 0.742188 8.96877 0.742188C7.6613 0.742188 7.81282 9.62261 7.81282 9.62261L7.55469 11.4527Z" fill="url(#paint1_linear_79_6375)"/>
<path d="M12.981 15.9496L12.3113 15.9102C12.3113 15.9102 11.0864 16.2277 10.9049 16.3185C10.7235 16.4092 9.54392 16.3185 9.54392 16.3185C9.54392 16.3185 8.86341 15.9102 8.72731 16.0009C8.5912 16.0916 7.09589 16.2481 7.09589 16.2481L6.90082 16.1071L2.9375 44.1746C3.94148 42.4475 16.0233 45.4762 16.0233 45.4762C15.8446 40.3992 14.2136 26.1767 12.981 15.9496Z" fill="url(#paint2_linear_79_6375)"/>
<defs>
<linearGradient id="paint0_linear_79_6375" x1="-5.48517" y1="54.5255" x2="26.3194" y2="55.094" gradientUnits="userSpaceOnUse">
<stop stop-color="#94938C"/>
<stop offset="0.2666" stop-color="#EDEBE1"/>
<stop offset="0.7117" stop-color="#EDEBE1"/>
<stop offset="1" stop-color="#94938C"/>
</linearGradient>
<linearGradient id="paint1_linear_79_6375" x1="11.656" y1="6.51449" x2="8.12518" y2="6.40572" gradientUnits="userSpaceOnUse">
<stop stop-color="#BFAB8D"/>
<stop offset="0.5078" stop-color="#E7E1D2"/>
<stop offset="1" stop-color="#CCBFA6"/>
</linearGradient>
<linearGradient id="paint2_linear_79_6375" x1="14.1621" y1="30.6928" x2="4.49822" y2="30.3951" gradientUnits="userSpaceOnUse">
<stop stop-color="#BFAB8D"/>
<stop offset="0.5078" stop-color="#E7E1D2"/>
<stop offset="1" stop-color="#CCBFA6"/>
</linearGradient>
</defs>
</svg>
