<svg width="20" height="61" viewBox="0 0 20 61" fill="none" xmlns="http://www.w3.org/2000/svg">
<path d="M11.5295 6.29924C11.5295 6.29924 5.77725 4.40385 5.21196 5.8669C4.64667 7.32995 4.54688 9.52428 4.54688 9.52428L10.6984 11.9849C10.6984 11.9849 12.1615 8.46046 11.5295 6.29924Z" fill="#B46766"/>
<path d="M10.2134 8.52396L6.93455 6.17305L6.62514 7.65791L4.81039 6.5691C4.73235 5.08425 4.68654 3.53497 5.29493 2.21435C5.62885 1.48893 6.18099 0.422805 7.087 0.337969C8.625 0.194157 9.61266 2.70023 10.0736 3.76045C10.0736 3.76045 10.7664 5.27569 11.6334 7.85888L10.2134 8.52396Z" fill="url(#paint0_linear_79_6421)"/>
<path d="M5.27118 16.4403C5.17047 13.9842 5.00716 11.5308 4.91325 9.07422L5.14097 9.26748L6.93525 9.94797L7.30636 9.14363L9.59512 10.3191C9.59512 10.3191 10.585 9.57687 10.7089 9.63857C10.7919 9.68031 11.8254 10.2528 12.4941 10.6235C14.2534 16.737 16.0481 26.2018 14.3151 35.9537C14.3151 35.9537 3.9129 34.7207 3.39844 37.5443C4.85744 30.6776 5.55835 23.4503 5.27118 16.4403Z" fill="url(#paint1_linear_79_6421)"/>
<path d="M13.3406 34.8109C13.3406 34.8109 16.6088 36.1184 17.5897 43.6356C17.5897 43.6356 18.57 51.4799 18.8971 53.7678C19.2238 56.0556 19.2238 58.9972 15.6289 59.9775C12.0336 60.9579 8.76531 60.3042 6.80409 59.6509C4.84287 58.9976 1.90127 57.036 1.24753 54.7481C0.593792 52.4603 1.24753 41.3478 2.22791 39.3866C3.20829 37.4258 5.49614 32.1964 13.3406 34.8109Z" fill="url(#paint2_linear_79_6421)"/>
<defs>
<linearGradient id="paint0_linear_79_6421" x1="6.16501" y1="4.38229" x2="11.5895" y2="4.47925" gradientUnits="userSpaceOnUse">
<stop stop-color="#BFAB8D"/>
<stop offset="0.5078" stop-color="#E7E1D2"/>
<stop offset="1" stop-color="#CCBFA6"/>
</linearGradient>
<linearGradient id="paint1_linear_79_6421" x1="5.94941" y1="23.3414" x2="14.9304" y2="23.5019" gradientUnits="userSpaceOnUse">
<stop stop-color="#BFAB8D"/>
<stop offset="0.5078" stop-color="#E7E1D2"/>
<stop offset="1" stop-color="#CCBFA6"/>
</linearGradient>
<linearGradient id="paint2_linear_79_6421" x1="23.5059" y1="47.9353" x2="-2.50476" y2="46.6321" gradientUnits="userSpaceOnUse">
<stop stop-color="#94938C"/>
<stop offset="0.1599" stop-color="#D1CFC6"/>
<stop offset="0.2296" stop-color="#EDEBE1"/>
<stop offset="0.7988" stop-color="#EDEBE1"/>
<stop offset="0.9762" stop-color="#9F9E96"/>
<stop offset="1" stop-color="#94938C"/>
</linearGradient>
</defs>
</svg>
