<svg width="26" height="75" viewBox="0 0 26 75" fill="none" xmlns="http://www.w3.org/2000/svg">
<path d="M18.1363 9.40868C18.1363 9.40868 10.2879 6.8228 9.5167 8.81892C8.74547 10.815 8.60938 13.8092 8.60938 13.8092L17.0022 17.1663C17.0022 17.1663 18.9983 12.3575 18.1363 9.40868Z" fill="#B46766"/>
<path d="M25.3085 69.7826C25.3085 69.7826 27.5963 42.9817 15.5035 39.0592C15.5035 39.0592 1.77612 36.7714 0.469123 60.6307C0.431923 61.3112 0.326218 61.9881 0.297184 62.6713C0.234578 64.1621 0.288563 65.6687 0.54579 67.1404C0.816173 68.686 1.32156 70.2834 2.37225 71.4843C2.88171 72.0663 3.51727 72.5282 4.2386 72.8113C4.86374 73.0567 5.55196 73.1488 6.20795 73.2835C7.01547 73.4496 7.82481 73.6056 8.63868 73.7363C10.2065 73.9876 11.7876 74.175 13.3754 74.2231C14.9609 74.2712 16.4948 74.1115 18.0594 73.8796C18.5331 73.8093 19.0076 73.7422 19.4839 73.6936C20.8721 73.5525 22.5085 73.6442 23.688 72.7863C24.6557 72.084 25.3085 71.0742 25.3085 69.7826Z" fill="url(#paint0_linear_79_6407)"/>
<path d="M22.3781 36.3255C22.2502 33.0781 21.9154 29.8398 21.3918 26.6324C20.5775 21.6479 17.3483 10.9727 17.3483 10.9727L14.3523 15.4948L11.9932 11.9109L8.76538 12.5278C8.76538 12.5278 8.76855 13.0877 8.76946 13.1407C8.80802 14.9736 8.39563 15.8496 8.12116 17.657C7.20975 23.6658 6.00663 30.0975 6.00663 36.1875C5.77888 38.5865 5.17414 41.2714 5.35288 43.6635C6.57642 43.5705 7.96058 41.8452 9.11108 41.2736C9.50532 41.0776 9.90999 40.9021 10.3237 40.751C11.3431 40.3785 12.4151 40.1571 13.5062 40.1576C16.0907 40.159 18.3795 41.4592 20.1497 43.2775C20.8733 44.021 21.361 44.9506 22.0451 45.7236C22.6009 44.5105 22.3804 42.5657 22.414 41.2283C22.4548 39.5941 22.4425 37.9587 22.3781 36.3255Z" fill="url(#paint1_linear_79_6407)"/>
<path d="M16.7078 9.41701C16.3807 8.51195 14.5742 2.57256 13.0213 1.04733C12.9088 0.936638 12.7849 0.849078 12.647 0.795546C12.2165 0.628143 11.7646 0.458021 11.3055 0.509286C8.97048 0.769236 8.75817 4.86357 8.64293 6.55892C8.52044 8.36179 8.6257 9.15842 8.67787 10.9595L11.8989 8.32822L14.0311 11.5492L16.7078 9.41701Z" fill="url(#paint2_linear_79_6407)"/>
<defs>
<linearGradient id="paint0_linear_79_6407" x1="30.3837" y1="56.6081" x2="-4.63738" y2="56.6259" gradientUnits="userSpaceOnUse">
<stop stop-color="#94938C"/>
<stop offset="0.2296" stop-color="#EDEBE1"/>
<stop offset="0.7876" stop-color="#EDEBE1"/>
<stop offset="1" stop-color="#94938C"/>
</linearGradient>
<linearGradient id="paint1_linear_79_6407" x1="9.0125" y1="28.1572" x2="22.4374" y2="28.3972" gradientUnits="userSpaceOnUse">
<stop stop-color="#BFAB8D"/>
<stop offset="0.5078" stop-color="#E7E1D2"/>
<stop offset="1" stop-color="#CCBFA6"/>
</linearGradient>
<linearGradient id="paint2_linear_79_6407" x1="10.2555" y1="5.97977" x2="16.6445" y2="6.09396" gradientUnits="userSpaceOnUse">
<stop stop-color="#BFAB8D"/>
<stop offset="0.5078" stop-color="#E7E1D2"/>
<stop offset="1" stop-color="#CCBFA6"/>
</linearGradient>
</defs>
</svg>
