<svg width="27" height="75" viewBox="0 0 27 75" fill="none" xmlns="http://www.w3.org/2000/svg">
<path d="M1.03178 69.599C1.03178 69.599 -1.25606 42.7981 10.8368 38.8756C10.8368 38.8756 24.5642 36.5878 25.8713 60.4471C25.9085 61.1276 26.0142 61.8045 26.0432 62.4877C26.1058 63.9785 26.0518 65.4851 25.7946 66.9568C25.5242 68.5025 25.0188 70.0998 23.9681 71.3007C23.4587 71.8827 22.8231 72.3446 22.1018 72.6277C21.4766 72.8731 20.7884 72.9652 20.1324 73.0999C19.3249 73.266 18.5155 73.422 17.7017 73.5527C16.1338 73.804 14.5528 73.9914 12.965 74.0395C11.3794 74.0876 9.84557 73.9279 8.28088 73.6961C7.80725 73.6257 7.3327 73.5586 6.85636 73.51C5.46814 73.369 3.83178 73.4606 2.65225 72.6027C1.68459 71.9004 1.03178 70.8906 1.03178 69.599Z" fill="url(#paint0_linear_79_6412)"/>
<path d="M9.09882 8.31885C9.09882 8.31885 16.9476 5.73295 17.7189 7.72908C18.4902 9.72522 18.6263 12.7194 18.6263 12.7194L10.233 16.0766C10.233 16.0766 8.23682 11.2677 9.09882 8.31885Z" fill="#B46766"/>
<path d="M3.95789 36.1419C4.08583 32.8945 4.42063 29.6562 4.94418 26.4488C5.75853 21.4643 8.98782 10.7891 8.98782 10.7891L11.9839 15.3112L14.3431 11.7273L17.571 12.3442C17.571 12.3442 17.5678 12.9041 17.5669 12.9571C17.5283 14.79 17.9407 15.666 18.2152 17.4734C19.1267 23.4822 20.3298 29.9139 20.3298 36.0039C20.5576 38.4029 21.1623 41.0878 20.9836 43.4799C19.76 43.3869 18.3758 41.6616 17.2253 41.09C16.831 40.894 16.4264 40.7185 16.0126 40.5674C14.9932 40.1949 13.9211 39.9735 12.83 39.974C10.2454 39.9754 7.9566 41.2756 6.18635 43.0939C5.46273 43.8374 4.97503 44.767 4.29088 45.54C3.73512 44.3269 3.95562 42.3821 3.92205 41.0447C3.88121 39.4105 3.89347 37.7751 3.95789 36.1419Z" fill="url(#paint1_linear_79_6412)"/>
<path d="M9.625 9.23333C9.95209 8.32827 11.7586 2.38894 13.3115 0.863733C13.424 0.75304 13.5478 0.665481 13.6858 0.611949C14.1163 0.444548 14.5682 0.274428 15.0273 0.325692C17.3623 0.585639 17.5746 4.67993 17.6898 6.37526C17.8123 8.17811 17.7071 8.97474 17.6549 10.7758L14.4339 8.14454L12.3016 11.3655L9.625 9.23333Z" fill="url(#paint2_linear_79_6412)"/>
<defs>
<linearGradient id="paint0_linear_79_6412" x1="-4.04327" y1="56.4245" x2="30.9779" y2="56.4424" gradientUnits="userSpaceOnUse">
<stop stop-color="#94938C"/>
<stop offset="0.2296" stop-color="#EDEBE1"/>
<stop offset="0.7876" stop-color="#EDEBE1"/>
<stop offset="1" stop-color="#94938C"/>
</linearGradient>
<linearGradient id="paint1_linear_79_6412" x1="17.3239" y1="27.9736" x2="3.8987" y2="28.2136" gradientUnits="userSpaceOnUse">
<stop stop-color="#BFAB8D"/>
<stop offset="0.5078" stop-color="#E7E1D2"/>
<stop offset="1" stop-color="#CCBFA6"/>
</linearGradient>
<linearGradient id="paint2_linear_79_6412" x1="16.0773" y1="5.79611" x2="9.68838" y2="5.91031" gradientUnits="userSpaceOnUse">
<stop stop-color="#BFAB8D"/>
<stop offset="0.5078" stop-color="#E7E1D2"/>
<stop offset="1" stop-color="#CCBFA6"/>
</linearGradient>
</defs>
</svg>
