<svg width="765" height="261" viewBox="0 0 765 261" fill="none" xmlns="http://www.w3.org/2000/svg">
<path d="M667.192 1210.31C922.396 1192.27 1114.66 970.764 1096.62 715.56C1078.58 460.355 857.067 268.096 601.863 286.136C346.659 304.176 154.4 525.685 172.44 780.889C190.48 1036.09 411.988 1228.35 667.192 1210.31Z" stroke="black" stroke-opacity="0.15" stroke-miterlimit="10" stroke-linecap="round" style="mix-blend-mode:soft-light"/>
<path d="M636.894 1200.3C892.098 1182.26 1084.36 960.747 1066.32 705.543C1048.28 450.339 826.769 258.079 571.565 276.12C316.36 294.16 124.101 515.668 142.141 770.872C160.181 1026.08 381.69 1218.34 636.894 1200.3Z" stroke="black" stroke-opacity="0.15" stroke-miterlimit="10" stroke-linecap="round" style="mix-blend-mode:soft-light"/>
<path d="M610.207 1189.08C865.411 1171.04 1057.67 949.528 1039.63 694.324C1021.59 439.12 800.082 246.861 544.878 264.901C289.674 282.941 97.4145 504.449 115.455 759.653C133.495 1014.86 355.003 1207.12 610.207 1189.08Z" stroke="black" stroke-opacity="0.15" stroke-miterlimit="10" stroke-linecap="round" style="mix-blend-mode:soft-light"/>
<path d="M587.425 1176.77C842.629 1158.73 1034.89 937.218 1016.85 682.014C998.809 426.81 777.3 234.55 522.096 252.59C266.892 270.63 74.6327 492.139 92.6729 747.343C110.713 1002.55 332.221 1194.81 587.425 1176.77Z" stroke="black" stroke-opacity="0.15" stroke-miterlimit="10" stroke-linecap="round" style="mix-blend-mode:soft-light"/>
<path d="M568.776 1163.49C823.98 1145.45 1016.24 923.94 998.2 668.735C980.159 413.531 758.651 221.272 503.447 239.312C248.243 257.352 55.9836 478.86 74.0237 734.065C92.0638 989.269 313.572 1181.53 568.776 1163.49Z" stroke="black" stroke-opacity="0.15" stroke-miterlimit="10" stroke-linecap="round" style="mix-blend-mode:soft-light"/>
<path d="M554.435 1149.38C809.639 1131.34 1001.9 909.827 983.858 654.623C965.818 399.419 744.31 207.16 489.105 225.2C233.901 243.24 41.642 464.748 59.6821 719.952C77.7223 975.156 299.231 1167.42 554.435 1149.38Z" stroke="black" stroke-opacity="0.15" stroke-miterlimit="10" stroke-linecap="round" style="mix-blend-mode:soft-light"/>
<path d="M544.548 1134.56C799.752 1116.52 992.012 895.009 973.972 639.805C955.931 384.601 734.423 192.341 479.219 210.381C224.015 228.421 31.7555 449.93 49.7957 705.134C67.8358 960.338 289.344 1152.6 544.548 1134.56Z" stroke="black" stroke-opacity="0.15" stroke-miterlimit="10" stroke-linecap="round" style="mix-blend-mode:soft-light"/>
<path d="M539.21 1119.22C794.414 1101.18 986.674 879.67 968.634 624.466C950.594 369.262 729.085 177.002 473.881 195.042C218.677 213.083 26.4176 434.591 44.4578 689.795C62.4979 944.999 284.006 1137.26 539.21 1119.22Z" stroke="black" stroke-opacity="0.15" stroke-miterlimit="10" stroke-linecap="round" style="mix-blend-mode:soft-light"/>
<path d="M538.481 1103.47C793.685 1085.43 985.945 863.919 967.905 608.715C949.865 353.511 728.356 161.251 473.152 179.291C217.948 197.332 25.6886 418.84 43.7288 674.044C61.7689 929.248 283.277 1121.51 538.481 1103.47Z" stroke="black" stroke-opacity="0.15" stroke-miterlimit="10" stroke-linecap="round" style="mix-blend-mode:soft-light"/>
<path d="M542.374 1087.49C797.578 1069.45 989.838 847.94 971.797 592.736C953.757 337.532 732.249 145.273 477.045 163.313C221.841 181.353 29.5815 402.861 47.6216 658.065C65.6617 913.27 287.17 1105.53 542.374 1087.49Z" stroke="black" stroke-opacity="0.15" stroke-miterlimit="10" stroke-linecap="round" style="mix-blend-mode:soft-light"/>
<path d="M550.847 1071.44C806.051 1053.4 998.31 831.891 980.27 576.687C962.23 321.482 740.722 129.223 485.518 147.263C230.314 165.303 38.0541 386.812 56.0942 642.016C74.1344 897.22 295.643 1089.48 550.847 1071.44Z" stroke="black" stroke-opacity="0.15" stroke-miterlimit="10" stroke-linecap="round" style="mix-blend-mode:soft-light"/>
<path d="M563.818 1055.48C819.022 1037.44 1011.28 815.927 993.241 560.723C975.201 305.519 753.693 113.259 498.489 131.299C243.284 149.339 51.0251 370.848 69.0652 626.052C87.1053 881.256 308.614 1073.52 563.818 1055.48Z" stroke="black" stroke-opacity="0.15" stroke-miterlimit="10" stroke-linecap="round" style="mix-blend-mode:soft-light"/>
<path d="M581.139 1039.75C836.343 1021.71 1028.6 800.205 1010.56 545.001C992.522 289.797 771.014 97.5375 515.81 115.578C260.606 133.618 68.3466 355.126 86.3867 610.33C104.427 865.534 325.935 1057.79 581.139 1039.75Z" stroke="black" stroke-opacity="0.15" stroke-miterlimit="10" stroke-linecap="round" style="mix-blend-mode:soft-light"/>
<path d="M602.643 1024.43C857.847 1006.39 1050.11 784.884 1032.07 529.68C1014.03 274.476 792.518 82.2162 537.314 100.256C282.11 118.296 89.8505 339.805 107.891 595.009C125.931 850.213 347.439 1042.47 602.643 1024.43Z" stroke="black" stroke-opacity="0.15" stroke-miterlimit="10" stroke-linecap="round" style="mix-blend-mode:soft-light"/>
<path d="M628.129 1009.67C883.333 991.63 1075.59 770.122 1057.55 514.918C1039.51 259.714 818.004 67.4545 562.8 85.4946C307.596 103.535 115.337 325.043 133.377 580.247C151.417 835.451 372.925 1027.71 628.129 1009.67Z" stroke="black" stroke-opacity="0.15" stroke-miterlimit="10" stroke-linecap="round" style="mix-blend-mode:soft-light"/>
<path d="M657.343 995.626C912.547 977.585 1104.81 756.077 1086.77 500.873C1068.73 245.669 847.218 53.4096 592.014 71.4497C336.81 89.4898 144.55 310.998 162.591 566.202C180.631 821.406 402.139 1013.67 657.343 995.626Z" stroke="black" stroke-opacity="0.15" stroke-miterlimit="10" stroke-linecap="round" style="mix-blend-mode:soft-light"/>
<path d="M689.981 982.406C945.185 964.366 1137.44 742.857 1119.4 487.653C1101.36 232.449 879.856 40.1898 624.652 58.23C369.448 76.2701 177.188 297.778 195.229 552.982C213.269 808.187 434.777 1000.45 689.981 982.406Z" stroke="black" stroke-opacity="0.15" stroke-miterlimit="10" stroke-linecap="round" style="mix-blend-mode:soft-light"/>
<path d="M725.723 970.16C980.927 952.12 1173.19 730.611 1155.15 475.407C1137.11 220.203 915.598 27.9437 660.394 45.9839C405.189 64.024 212.93 285.532 230.97 540.736C249.01 795.941 470.519 988.2 725.723 970.16Z" stroke="black" stroke-opacity="0.15" stroke-miterlimit="10" stroke-linecap="round" style="mix-blend-mode:soft-light"/>
<path d="M764.206 959.018C1019.41 940.978 1211.67 719.47 1193.63 464.266C1175.59 209.062 954.081 16.8021 698.876 34.8423C443.672 52.8824 251.413 274.391 269.453 529.595C287.493 784.799 509.001 977.058 764.206 959.018Z" stroke="black" stroke-opacity="0.15" stroke-miterlimit="10" stroke-linecap="round" style="mix-blend-mode:soft-light"/>
<path d="M805.054 949.088C1060.26 931.047 1252.52 709.539 1234.48 454.335C1216.44 199.131 994.929 6.87147 739.724 24.9116C484.52 42.9517 292.261 264.46 310.301 519.664C328.341 774.868 549.849 967.128 805.054 949.088Z" stroke="black" stroke-opacity="0.15" stroke-miterlimit="10" stroke-linecap="round" style="mix-blend-mode:soft-light"/>
<path d="M847.849 940.463C1103.05 922.423 1295.31 700.915 1277.27 445.711C1259.23 190.507 1037.72 -1.75256 782.52 16.2876C527.316 34.3277 335.057 255.836 353.097 511.04C371.137 766.244 592.645 958.504 847.849 940.463Z" stroke="black" stroke-opacity="0.15" stroke-miterlimit="10" stroke-linecap="round" style="mix-blend-mode:soft-light"/>
<path d="M892.161 933.23C1147.37 915.19 1339.62 693.682 1321.58 438.478C1303.54 183.273 1082.04 -8.98595 826.832 9.05419C571.628 27.0943 379.368 248.603 397.408 503.807C415.449 759.011 636.957 951.27 892.161 933.23Z" stroke="black" stroke-opacity="0.15" stroke-miterlimit="10" stroke-linecap="round" style="mix-blend-mode:soft-light"/>
<path d="M937.564 927.469C1192.77 909.429 1385.03 687.921 1366.99 432.717C1348.95 177.513 1127.44 -14.7467 872.235 3.29345C617.031 21.3336 424.771 242.842 442.811 498.046C460.851 753.25 682.36 945.509 937.564 927.469Z" stroke="black" stroke-opacity="0.15" stroke-miterlimit="10" stroke-linecap="round" style="mix-blend-mode:soft-light"/>
<path d="M983.592 923.235C1238.8 905.195 1431.06 683.687 1413.02 428.482C1394.98 173.278 1173.47 -18.9811 918.263 -0.940931C663.059 17.0992 470.799 238.607 488.839 493.812C506.88 749.016 728.388 941.275 983.592 923.235Z" stroke="black" stroke-opacity="0.15" stroke-miterlimit="10" stroke-linecap="round" style="mix-blend-mode:soft-light"/>
<path d="M1029.8 920.565C1285 902.525 1477.26 681.017 1459.22 425.813C1441.18 170.608 1219.67 -21.651 964.467 -3.61085C709.263 14.4293 517.004 235.938 535.044 491.142C553.084 746.346 774.592 938.605 1029.8 920.565Z" stroke="black" stroke-opacity="0.15" stroke-miterlimit="10" stroke-linecap="round" style="mix-blend-mode:soft-light"/>
<path d="M1075.7 919.481C1330.9 901.441 1523.16 679.933 1505.12 424.729C1487.08 169.524 1265.57 -22.735 1010.37 -4.69484C755.162 13.3453 562.903 234.854 580.943 490.058C598.983 745.262 820.491 937.521 1075.7 919.481Z" stroke="black" stroke-opacity="0.15" stroke-miterlimit="10" stroke-linecap="round" style="mix-blend-mode:soft-light"/>
<path d="M1120.85 920.012C1376.06 901.972 1568.32 680.464 1550.28 425.26C1532.24 170.056 1310.73 -22.2037 1055.52 -4.16359C800.321 13.8766 608.061 235.385 626.102 490.589C644.142 745.793 865.65 938.052 1120.85 920.012Z" stroke="black" stroke-opacity="0.15" stroke-miterlimit="10" stroke-linecap="round" style="mix-blend-mode:soft-light"/>
<path d="M1164.8 972.133C1420 954.093 1612.26 732.585 1594.22 477.381C1576.18 222.177 1354.67 29.9174 1099.47 47.9575C844.267 65.9976 652.007 287.506 670.047 542.71C688.088 797.914 909.596 990.173 1164.8 972.133Z" stroke="black" stroke-opacity="0.15" stroke-miterlimit="10" stroke-linecap="round" style="mix-blend-mode:soft-light"/>
<path d="M1207.1 975.835C1462.31 957.795 1654.57 736.287 1636.53 481.083C1618.49 225.879 1396.98 33.6195 1141.77 51.6597C886.569 69.6998 694.309 291.208 712.349 546.412C730.39 801.616 951.898 993.876 1207.1 975.835Z" stroke="black" stroke-opacity="0.15" stroke-miterlimit="10" stroke-linecap="round" style="mix-blend-mode:soft-light"/>
<path d="M1247.35 981.074C1502.56 963.034 1694.82 741.525 1676.78 486.321C1658.74 231.117 1437.23 38.8578 1182.02 56.8979C926.819 74.9381 734.56 296.446 752.6 551.65C770.64 806.855 992.148 999.114 1247.35 981.074Z" stroke="black" stroke-opacity="0.15" stroke-miterlimit="10" stroke-linecap="round" style="mix-blend-mode:soft-light"/>
<path d="M1285.12 987.805C1540.33 969.765 1732.59 748.257 1714.55 493.053C1696.51 237.849 1475 45.5892 1219.8 63.6294C964.591 81.6695 772.332 303.178 790.372 558.382C808.412 813.586 1029.92 1005.85 1285.12 987.805Z" stroke="black" stroke-opacity="0.15" stroke-miterlimit="10" stroke-linecap="round" style="mix-blend-mode:soft-light"/>
</svg>
