<svg width="828" height="831" viewBox="0 0 828 831" fill="none" xmlns="http://www.w3.org/2000/svg">
<path d="M228.263 852.551C474.019 923.674 730.901 782.105 802.023 536.349C873.146 290.592 731.577 33.7112 485.821 -37.4115C240.065 -108.534 -16.8164 33.0344 -87.9391 278.791C-159.062 524.547 -17.4931 781.428 228.263 852.551Z" stroke="white" stroke-opacity="0.15" stroke-miterlimit="10" stroke-linecap="round" style="mix-blend-mode:soft-light"/>
<path d="M221.662 867.017C467.418 938.139 724.299 796.571 795.422 550.814C866.545 305.058 724.976 48.177 479.22 -22.9457C233.464 -94.0683 -23.4175 47.5003 -94.5402 293.257C-165.663 539.013 -24.0943 795.894 221.662 867.017Z" stroke="white" stroke-opacity="0.15" stroke-miterlimit="10" stroke-linecap="round" style="mix-blend-mode:soft-light"/>
<path d="M210.688 880.065C456.444 951.187 713.325 809.619 784.448 563.862C855.571 318.106 714.002 61.2249 468.246 -9.89778C222.49 -81.0204 -34.3917 60.5481 -105.514 306.304C-176.637 552.061 -35.0683 808.942 210.688 880.065Z" stroke="white" stroke-opacity="0.15" stroke-miterlimit="10" stroke-linecap="round" style="mix-blend-mode:soft-light"/>
<path d="M195.442 891.546C441.198 962.669 698.079 821.1 769.202 575.344C840.325 329.587 698.756 72.7063 453 1.58363C207.243 -69.539 -49.6377 72.0296 -120.76 317.786C-191.883 563.542 -50.3145 820.423 195.442 891.546Z" stroke="white" stroke-opacity="0.15" stroke-miterlimit="10" stroke-linecap="round" style="mix-blend-mode:soft-light"/>
<path d="M176.079 901.348C421.835 972.47 678.716 830.902 749.839 585.145C820.961 339.389 679.393 82.508 433.636 11.3854C187.88 -59.7373 -69.001 81.8313 -140.124 327.588C-211.246 573.344 -69.6778 830.225 176.079 901.348Z" stroke="white" stroke-opacity="0.15" stroke-miterlimit="10" stroke-linecap="round" style="mix-blend-mode:soft-light"/>
<path d="M152.786 909.365C398.542 980.488 655.423 838.919 726.546 593.163C797.669 347.407 656.1 90.5256 410.344 19.403C164.588 -51.7197 -92.2935 89.8489 -163.416 335.605C-234.539 581.361 -92.9702 838.243 152.786 909.365Z" stroke="white" stroke-opacity="0.15" stroke-miterlimit="10" stroke-linecap="round" style="mix-blend-mode:soft-light"/>
<path d="M125.794 915.549C371.551 986.672 628.432 845.103 699.554 599.347C770.677 353.59 629.109 96.7092 383.352 25.5866C137.596 -45.5361 -119.285 96.0325 -190.408 341.789C-261.53 587.545 -119.962 844.426 125.794 915.549Z" stroke="white" stroke-opacity="0.15" stroke-miterlimit="10" stroke-linecap="round" style="mix-blend-mode:soft-light"/>
<path d="M95.3945 919.81C341.151 990.932 598.032 849.364 669.155 603.607C740.277 357.851 598.709 100.97 352.952 29.8473C107.196 -41.2753 -149.685 100.293 -220.808 346.05C-291.93 591.806 -150.362 848.687 95.3945 919.81Z" stroke="white" stroke-opacity="0.15" stroke-miterlimit="10" stroke-linecap="round" style="mix-blend-mode:soft-light"/>
<path d="M61.8774 922.103C307.634 993.225 564.515 851.657 635.637 605.9C706.76 360.144 565.192 103.263 319.435 32.1403C73.679 -38.9824 -183.202 102.586 -254.325 348.342C-325.447 594.099 -183.879 850.98 61.8774 922.103Z" stroke="white" stroke-opacity="0.15" stroke-miterlimit="10" stroke-linecap="round" style="mix-blend-mode:soft-light"/>
<path d="M25.5717 922.426C271.328 993.548 528.209 851.98 599.332 606.224C670.454 360.467 528.886 103.586 283.13 32.4635C37.3733 -38.6591 -219.508 102.909 -290.631 348.666C-361.753 594.422 -220.185 851.303 25.5717 922.426Z" stroke="white" stroke-opacity="0.15" stroke-miterlimit="10" stroke-linecap="round" style="mix-blend-mode:soft-light"/>
<path d="M-13.1539 920.747C232.602 991.87 489.484 850.301 560.606 604.545C631.729 358.789 490.16 101.907 244.404 30.7848C-1.35228 -40.3378 -258.233 101.231 -329.356 346.987C-400.479 592.743 -258.91 849.624 -13.1539 920.747Z" stroke="white" stroke-opacity="0.15" stroke-miterlimit="10" stroke-linecap="round" style="mix-blend-mode:soft-light"/>
<path d="M-53.9146 917.111C191.842 988.234 448.723 846.665 519.845 600.909C590.968 355.153 449.4 98.2717 203.643 27.1491C-42.113 -43.9736 -298.994 97.595 -370.117 343.351C-441.239 589.108 -299.671 845.989 -53.9146 917.111Z" stroke="white" stroke-opacity="0.15" stroke-miterlimit="10" stroke-linecap="round" style="mix-blend-mode:soft-light"/>
<path d="M-96.3204 911.555C149.436 982.677 406.317 841.109 477.44 595.353C548.562 349.596 406.994 92.7151 161.238 21.5924C-84.5188 -49.5302 -341.4 92.0383 -412.523 337.795C-483.645 583.551 -342.077 840.432 -96.3204 911.555Z" stroke="white" stroke-opacity="0.15" stroke-miterlimit="10" stroke-linecap="round" style="mix-blend-mode:soft-light"/>
<path d="M-139.904 904.102C105.852 975.224 362.733 833.656 433.856 587.899C504.978 342.143 363.41 85.2619 117.654 14.1393C-128.103 -56.9833 -384.984 84.5852 -456.107 330.342C-527.229 576.098 -385.661 832.979 -139.904 904.102Z" stroke="white" stroke-opacity="0.15" stroke-miterlimit="10" stroke-linecap="round" style="mix-blend-mode:soft-light"/>
<path d="M-184.259 894.863C61.4974 965.986 318.379 824.417 389.501 578.661C460.624 332.905 319.055 76.0236 73.299 4.90101C-172.457 -66.2216 -429.338 75.3469 -500.461 321.103C-571.584 566.86 -430.015 823.741 -184.259 894.863Z" stroke="white" stroke-opacity="0.15" stroke-miterlimit="10" stroke-linecap="round" style="mix-blend-mode:soft-light"/>
<path d="M-228.94 883.9C16.8163 955.023 273.697 813.454 344.82 567.698C415.943 321.942 274.374 65.0608 28.6179 -6.06187C-217.138 -77.1845 -474.02 64.384 -545.142 310.14C-616.265 555.897 -474.696 812.778 -228.94 883.9Z" stroke="white" stroke-opacity="0.15" stroke-miterlimit="10" stroke-linecap="round" style="mix-blend-mode:soft-light"/>
<path d="M-273.5 871.356C-27.7438 942.478 229.137 800.91 300.26 555.153C371.383 309.397 229.814 52.5158 -15.9422 -18.6068C-261.699 -89.7294 -518.58 51.8391 -589.702 297.595C-660.825 543.352 -519.256 800.233 -273.5 871.356Z" stroke="white" stroke-opacity="0.15" stroke-miterlimit="10" stroke-linecap="round" style="mix-blend-mode:soft-light"/>
<path d="M-317.498 857.322C-71.7418 928.445 185.139 786.876 256.262 541.12C327.385 295.364 185.816 38.4826 -59.9402 -32.64C-305.697 -103.763 -562.578 37.8059 -633.7 283.562C-704.823 529.318 -563.254 786.2 -317.498 857.322Z" stroke="white" stroke-opacity="0.15" stroke-miterlimit="10" stroke-linecap="round" style="mix-blend-mode:soft-light"/>
<path d="M-360.49 841.949C-114.734 913.072 142.148 771.503 213.27 525.747C284.393 279.991 142.824 23.1096 -102.932 -48.0131C-348.688 -119.136 -605.569 22.4328 -676.692 268.189C-747.815 513.945 -606.246 770.827 -360.49 841.949Z" stroke="white" stroke-opacity="0.15" stroke-miterlimit="10" stroke-linecap="round" style="mix-blend-mode:soft-light"/>
<path d="M-402.03 825.413C-156.274 896.536 100.607 754.967 171.73 509.211C242.852 263.455 101.284 6.57347 -144.472 -64.5492C-390.229 -135.672 -647.11 5.89674 -718.233 251.653C-789.355 497.409 -647.787 754.291 -402.03 825.413Z" stroke="white" stroke-opacity="0.15" stroke-miterlimit="10" stroke-linecap="round" style="mix-blend-mode:soft-light"/>
<path d="M-441.729 807.862C-195.973 878.985 60.9084 737.416 132.031 491.66C203.154 245.904 61.5851 -10.9773 -184.171 -82.1C-429.927 -153.223 -686.809 -11.6541 -757.931 234.102C-829.054 479.859 -687.485 736.74 -441.729 807.862Z" stroke="white" stroke-opacity="0.15" stroke-miterlimit="10" stroke-linecap="round" style="mix-blend-mode:soft-light"/>
<path d="M-479.184 789.454C-233.428 860.577 23.4533 719.008 94.576 473.252C165.699 227.496 24.13 -29.3855 -221.626 -100.508C-467.383 -171.631 -724.264 -30.0623 -795.386 215.694C-866.509 461.45 -724.94 718.332 -479.184 789.454Z" stroke="white" stroke-opacity="0.15" stroke-miterlimit="10" stroke-linecap="round" style="mix-blend-mode:soft-light"/>
<path d="M-514.009 770.398C-268.253 841.52 -11.3714 699.952 59.7513 454.195C130.874 208.439 -10.6947 -48.4422 -256.451 -119.565C-502.207 -190.687 -759.088 -49.1189 -830.211 196.637C-901.334 442.394 -759.765 699.275 -514.009 770.398Z" stroke="white" stroke-opacity="0.15" stroke-miterlimit="10" stroke-linecap="round" style="mix-blend-mode:soft-light"/>
<path d="M-545.876 750.868C-300.12 821.991 -43.2386 680.422 27.884 434.666C99.0067 188.91 -42.5618 -67.9715 -288.318 -139.094C-534.074 -210.217 -790.956 -68.6482 -862.078 177.108C-933.201 422.864 -791.632 679.746 -545.876 750.868Z" stroke="white" stroke-opacity="0.15" stroke-miterlimit="10" stroke-linecap="round" style="mix-blend-mode:soft-light"/>
<path d="M-574.445 731.068C-328.689 802.191 -71.8074 660.623 -0.684778 414.866C70.4379 169.11 -71.1307 -87.7713 -316.887 -158.894C-562.643 -230.017 -819.524 -88.448 -890.647 157.308C-961.77 403.065 -820.201 659.946 -574.445 731.068Z" stroke="white" stroke-opacity="0.15" stroke-miterlimit="10" stroke-linecap="round" style="mix-blend-mode:soft-light"/>
<path d="M-599.427 711.213C-353.671 782.336 -96.7894 640.767 -25.6668 395.011C45.4559 149.254 -96.1126 -107.627 -341.869 -178.749C-587.625 -249.872 -844.506 -108.304 -915.629 137.453C-986.752 383.209 -845.183 640.09 -599.427 711.213Z" stroke="white" stroke-opacity="0.15" stroke-miterlimit="10" stroke-linecap="round" style="mix-blend-mode:soft-light"/>
<path d="M-620.604 691.475C-374.847 762.597 -117.966 621.029 -46.8435 375.272C24.2792 129.516 -117.289 -127.365 -363.046 -198.488C-608.802 -269.61 -865.683 -128.042 -936.806 117.715C-1007.93 363.471 -866.36 620.352 -620.604 691.475Z" stroke="white" stroke-opacity="0.15" stroke-miterlimit="10" stroke-linecap="round" style="mix-blend-mode:soft-light"/>
<path d="M-637.738 672.061C-391.982 743.183 -135.101 601.615 -63.9782 355.858C7.14441 110.102 -134.424 -146.779 -380.18 -217.902C-625.937 -289.024 -882.818 -147.456 -953.941 98.3005C-1025.06 344.057 -883.495 600.938 -637.738 672.061Z" stroke="white" stroke-opacity="0.15" stroke-miterlimit="10" stroke-linecap="round" style="mix-blend-mode:soft-light"/>
<path d="M-650.661 653.163C-404.905 724.286 -148.024 582.717 -76.9011 336.961C-5.7785 91.2046 -147.347 -165.677 -393.103 -236.799C-638.86 -307.922 -895.741 -166.353 -966.863 79.403C-1037.99 325.159 -896.418 582.041 -650.661 653.163Z" stroke="white" stroke-opacity="0.15" stroke-miterlimit="10" stroke-linecap="round" style="mix-blend-mode:soft-light"/>
<path d="M-659.253 634.968C-413.496 706.09 -156.615 564.522 -85.4924 318.766C-14.3697 73.0093 -155.938 -183.872 -401.695 -254.994C-647.451 -326.117 -904.332 -184.549 -975.455 61.2077C-1046.58 306.964 -905.009 563.845 -659.253 634.968Z" stroke="white" stroke-opacity="0.15" stroke-miterlimit="10" stroke-linecap="round" style="mix-blend-mode:soft-light"/>
<path d="M-663.419 617.649C-417.663 688.771 -160.782 547.203 -89.659 301.446C-18.5363 55.69 -160.105 -201.191 -405.861 -272.314C-651.617 -343.436 -908.499 -201.868 -979.621 43.8884C-1050.74 289.645 -909.175 546.526 -663.419 617.649Z" stroke="white" stroke-opacity="0.15" stroke-miterlimit="10" stroke-linecap="round" style="mix-blend-mode:soft-light"/>
<path d="M-663.136 601.41C-417.38 672.533 -160.499 530.964 -89.3762 285.208C-18.2535 39.4517 -159.822 -217.429 -405.578 -288.552C-651.335 -359.675 -908.216 -218.106 -979.339 27.6501C-1050.46 273.406 -908.893 530.288 -663.136 601.41Z" stroke="white" stroke-opacity="0.15" stroke-miterlimit="10" stroke-linecap="round" style="mix-blend-mode:soft-light"/>
<path d="M-658.386 586.375C-412.63 657.498 -155.749 515.929 -84.6262 270.173C-13.5035 24.4166 -155.072 -232.465 -400.828 -303.587C-646.585 -374.71 -903.466 -233.141 -974.589 12.615C-1045.71 258.371 -904.143 515.252 -658.386 586.375Z" stroke="white" stroke-opacity="0.15" stroke-miterlimit="10" stroke-linecap="round" style="mix-blend-mode:soft-light"/>
<path d="M-649.219 572.721C-403.463 643.843 -146.582 502.275 -75.4592 256.519C-4.3366 10.7622 -145.905 -246.119 -391.661 -317.242C-637.418 -388.364 -894.299 -246.796 -965.422 -1.03937C-1036.54 244.717 -894.976 501.598 -649.219 572.721Z" stroke="white" stroke-opacity="0.15" stroke-miterlimit="10" stroke-linecap="round" style="mix-blend-mode:soft-light"/>
<path d="M-635.729 560.58C-389.973 631.703 -133.092 490.134 -61.969 244.378C9.15364 -1.37842 -132.415 -258.26 -378.171 -329.382C-623.927 -400.505 -880.809 -258.936 -951.931 -13.18C-1023.05 232.576 -881.485 489.458 -635.729 560.58Z" stroke="white" stroke-opacity="0.15" stroke-miterlimit="10" stroke-linecap="round" style="mix-blend-mode:soft-light"/>
<path d="M-618.046 550.071C-372.29 621.194 -115.409 479.625 -44.2863 233.869C26.8363 -11.8872 -114.732 -268.768 -360.489 -339.891C-606.245 -411.014 -863.126 -269.445 -934.249 -23.6888C-1005.37 222.068 -863.803 478.949 -618.046 550.071Z" stroke="white" stroke-opacity="0.15" stroke-miterlimit="10" stroke-linecap="round" style="mix-blend-mode:soft-light"/>
<path d="M-596.364 541.292C-350.608 612.415 -93.7269 470.846 -22.6042 225.09C48.5184 -20.6665 -93.0502 -277.548 -338.806 -348.67C-584.563 -419.793 -841.444 -278.224 -912.567 -32.4681C-983.689 213.288 -842.121 470.169 -596.364 541.292Z" stroke="white" stroke-opacity="0.15" stroke-miterlimit="10" stroke-linecap="round" style="mix-blend-mode:soft-light"/>
<path d="M-570.894 534.331C-325.138 605.454 -68.2566 463.885 2.866 218.129C73.9886 -27.6274 -67.5799 -284.509 -313.336 -355.631C-559.093 -426.754 -815.974 -285.185 -887.096 -39.429C-958.219 206.327 -816.65 463.208 -570.894 534.331Z" stroke="white" stroke-opacity="0.15" stroke-miterlimit="10" stroke-linecap="round" style="mix-blend-mode:soft-light"/>
<path d="M-541.88 529.271C-296.124 600.393 -39.2425 458.825 31.8801 213.068C103.003 -32.688 -38.5658 -289.569 -284.322 -360.692C-530.078 -431.814 -786.96 -290.246 -858.082 -44.4895C-929.205 201.267 -787.636 458.148 -541.88 529.271Z" stroke="white" stroke-opacity="0.15" stroke-miterlimit="10" stroke-linecap="round" style="mix-blend-mode:soft-light"/>
<path d="M-509.614 526.168C-263.858 597.291 -6.97684 455.722 64.1458 209.966C135.268 -35.7905 -6.30013 -292.672 -252.056 -363.794C-497.813 -434.917 -754.694 -293.348 -825.817 -47.5921C-896.939 198.164 -755.371 455.045 -509.614 526.168Z" stroke="white" stroke-opacity="0.15" stroke-miterlimit="10" stroke-linecap="round" style="mix-blend-mode:soft-light"/>
<path d="M-474.42 525.022C-228.663 596.144 28.2179 454.576 99.3406 208.819C170.463 -36.937 28.8947 -293.818 -216.862 -364.941C-462.618 -436.063 -719.499 -294.495 -790.622 -48.7386C-861.744 197.018 -720.176 453.899 -474.42 525.022Z" stroke="white" stroke-opacity="0.15" stroke-miterlimit="10" stroke-linecap="round" style="mix-blend-mode:soft-light"/>
<path d="M-436.648 525.859C-190.891 596.982 65.9899 455.414 137.113 209.657C208.235 -36.0991 66.6667 -292.98 -179.09 -364.103C-424.846 -435.226 -681.727 -293.657 -752.85 -47.9007C-823.972 197.856 -682.404 454.737 -436.648 525.859Z" stroke="white" stroke-opacity="0.15" stroke-miterlimit="10" stroke-linecap="round" style="mix-blend-mode:soft-light"/>
<path d="M-396.684 528.68C-150.927 599.802 105.954 458.234 177.076 212.478C248.199 -33.2788 106.63 -290.16 -139.126 -361.283C-384.882 -432.405 -641.763 -290.837 -712.886 -45.0804C-784.009 200.676 -642.44 457.557 -396.684 528.68Z" stroke="white" stroke-opacity="0.15" stroke-miterlimit="10" stroke-linecap="round" style="mix-blend-mode:soft-light"/>
<path d="M-354.918 533.453C-109.161 604.576 147.72 463.007 218.843 217.251C289.965 -28.5053 148.397 -285.386 -97.3597 -356.509C-343.116 -427.632 -599.997 -286.063 -671.12 -40.3069C-742.242 205.449 -600.674 462.331 -354.918 533.453Z" stroke="white" stroke-opacity="0.15" stroke-miterlimit="10" stroke-linecap="round" style="mix-blend-mode:soft-light"/>
<path d="M-311.774 540.125C-66.0182 611.248 190.863 469.679 261.986 223.923C333.108 -21.8335 191.54 -278.715 -54.2166 -349.837C-299.973 -420.96 -556.854 -279.391 -627.977 -33.6351C-699.099 212.121 -557.531 469.002 -311.774 540.125Z" stroke="white" stroke-opacity="0.15" stroke-miterlimit="10" stroke-linecap="round" style="mix-blend-mode:soft-light"/>
<path d="M-267.688 548.625C-21.9318 619.748 234.949 478.179 306.072 232.423C377.195 -13.3335 235.626 -270.215 -10.1302 -341.337C-255.886 -412.46 -512.768 -270.891 -583.89 -25.1351C-655.013 220.621 -513.444 477.502 -267.688 548.625Z" stroke="white" stroke-opacity="0.15" stroke-miterlimit="10" stroke-linecap="round" style="mix-blend-mode:soft-light"/>
<path d="M-223.086 558.884C22.6702 630.006 279.551 488.438 350.674 242.682C421.797 -3.07466 280.228 -259.956 34.4719 -331.078C-211.284 -402.201 -468.166 -260.633 -539.288 -14.8763C-610.411 230.88 -468.842 487.761 -223.086 558.884Z" stroke="white" stroke-opacity="0.15" stroke-miterlimit="10" stroke-linecap="round" style="mix-blend-mode:soft-light"/>
<path d="M-178.424 570.791C67.3324 641.914 324.214 500.345 395.336 254.589C466.459 8.83255 324.89 -248.049 79.134 -319.171C-166.622 -390.294 -423.503 -248.725 -494.626 -2.96903C-565.749 242.787 -424.18 499.668 -178.424 570.791Z" stroke="white" stroke-opacity="0.15" stroke-miterlimit="10" stroke-linecap="round" style="mix-blend-mode:soft-light"/>
<path d="M-134.136 584.228C111.621 655.35 368.502 513.782 439.624 268.025C510.747 22.269 369.178 -234.612 123.422 -305.735C-122.334 -376.857 -379.215 -235.289 -450.338 10.4675C-521.461 256.224 -379.892 513.105 -134.136 584.228Z" stroke="white" stroke-opacity="0.15" stroke-miterlimit="10" stroke-linecap="round" style="mix-blend-mode:soft-light"/>
<path d="M-90.6812 599.046C155.075 670.169 411.956 528.6 483.079 282.844C554.202 37.0874 412.633 -219.794 166.877 -290.916C-78.8796 -362.039 -335.761 -220.47 -406.883 25.2859C-478.006 271.042 -336.438 527.923 -90.6812 599.046Z" stroke="white" stroke-opacity="0.15" stroke-miterlimit="10" stroke-linecap="round" style="mix-blend-mode:soft-light"/>
<path d="M-48.4786 615.126C197.278 686.249 454.159 544.68 525.281 298.924C596.404 53.1675 454.836 -203.714 209.079 -274.836C-36.677 -345.959 -293.558 -204.39 -364.681 41.3659C-435.803 287.122 -294.235 544.003 -48.4786 615.126Z" stroke="white" stroke-opacity="0.15" stroke-miterlimit="10" stroke-linecap="round" style="mix-blend-mode:soft-light"/>
<path d="M-7.96346 632.28C237.793 703.403 494.674 561.834 565.797 316.078C636.919 70.3218 495.351 -186.559 249.594 -257.682C3.83812 -328.805 -253.043 -187.236 -324.166 58.5202C-395.288 304.277 -253.72 561.158 -7.96346 632.28Z" stroke="white" stroke-opacity="0.15" stroke-miterlimit="10" stroke-linecap="round" style="mix-blend-mode:soft-light"/>
<path d="M30.4633 650.351C276.22 721.473 533.101 579.905 604.223 334.148C675.346 88.3921 533.778 -168.489 288.021 -239.612C42.2649 -310.734 -214.616 -169.166 -285.739 76.5905C-356.862 322.347 -215.293 579.228 30.4633 650.351Z" stroke="white" stroke-opacity="0.15" stroke-miterlimit="10" stroke-linecap="round" style="mix-blend-mode:soft-light"/>
<path d="M66.435 669.154C312.191 740.277 569.072 598.708 640.195 352.952C711.318 107.196 569.749 -149.685 323.993 -220.808C78.2366 -291.931 -178.645 -150.362 -249.767 95.3943C-320.89 341.151 -179.321 598.032 66.435 669.154Z" stroke="white" stroke-opacity="0.15" stroke-miterlimit="10" stroke-linecap="round" style="mix-blend-mode:soft-light"/>
<path d="M99.5649 688.506C345.321 759.629 602.202 618.06 673.325 372.304C744.448 126.547 602.879 -130.334 357.123 -201.456C111.366 -272.579 -145.515 -131.01 -216.637 114.746C-287.76 360.502 -146.191 617.383 99.5649 688.506Z" stroke="white" stroke-opacity="0.15" stroke-miterlimit="10" stroke-linecap="round" style="mix-blend-mode:soft-light"/>
<path d="M129.544 708.211C375.3 779.334 632.181 637.765 703.304 392.009C774.427 146.252 632.858 -110.629 387.102 -181.751C141.345 -252.874 -115.536 -111.305 -186.658 134.451C-257.781 380.207 -116.212 637.088 129.544 708.211Z" stroke="white" stroke-opacity="0.15" stroke-miterlimit="10" stroke-linecap="round" style="mix-blend-mode:soft-light"/>
<path d="M156.063 728.078C401.82 799.201 658.701 657.632 729.823 411.876C800.946 166.12 659.378 -90.7615 413.621 -161.884C167.865 -233.007 -89.0162 -91.4382 -160.139 154.318C-231.261 400.074 -89.6929 656.955 156.063 728.078Z" stroke="white" stroke-opacity="0.15" stroke-miterlimit="10" stroke-linecap="round" style="mix-blend-mode:soft-light"/>
<path d="M178.848 747.897C424.604 819.019 681.485 677.451 752.608 431.694C823.73 185.938 682.162 -70.9431 436.405 -142.066C190.649 -213.188 -66.232 -71.6199 -137.355 174.136C-208.477 419.893 -66.9087 676.774 178.848 747.897Z" stroke="white" stroke-opacity="0.15" stroke-miterlimit="10" stroke-linecap="round" style="mix-blend-mode:soft-light"/>
<path d="M197.683 767.473C443.439 838.595 700.321 697.027 771.443 451.271C842.566 205.514 700.997 -51.367 455.241 -122.49C209.485 -193.612 -47.3965 -52.0437 -118.519 193.713C-189.642 439.469 -48.0732 696.35 197.683 767.473Z" stroke="white" stroke-opacity="0.15" stroke-miterlimit="10" stroke-linecap="round" style="mix-blend-mode:soft-light"/>
<path d="M212.37 786.599C458.126 857.721 715.007 716.153 786.13 470.396C857.252 224.64 715.684 -32.241 469.927 -103.364C224.171 -174.486 -32.71 -32.9177 -103.833 212.839C-174.955 458.595 -33.3867 715.476 212.37 786.599Z" stroke="white" stroke-opacity="0.15" stroke-miterlimit="10" stroke-linecap="round" style="mix-blend-mode:soft-light"/>
<path d="M222.786 805.122C468.542 876.245 725.423 734.676 796.546 488.92C867.668 243.164 726.1 -13.7176 480.343 -84.8402C234.587 -155.963 -22.294 -14.3943 -93.4166 231.362C-164.539 477.118 -22.9708 733.999 222.786 805.122Z" stroke="white" stroke-opacity="0.15" stroke-miterlimit="10" stroke-linecap="round" style="mix-blend-mode:soft-light"/>
<path d="M228.808 822.827C474.565 893.95 731.446 752.381 802.569 506.625C873.691 260.869 732.123 3.98751 486.366 -67.1351C240.61 -138.258 -16.271 3.31077 -87.3937 249.067C-158.516 494.823 -16.9478 751.704 228.808 822.827Z" stroke="white" stroke-opacity="0.15" stroke-miterlimit="10" stroke-linecap="round" style="mix-blend-mode:soft-light"/>
<path d="M230.365 839.536C476.121 910.659 733.002 769.09 804.125 523.334C875.247 277.578 733.679 20.6965 487.923 -50.4261C242.166 -121.549 -14.7149 20.0198 -85.8375 265.776C-156.96 511.532 -15.3917 768.413 230.365 839.536Z" stroke="white" stroke-opacity="0.15" stroke-miterlimit="10" stroke-linecap="round" style="mix-blend-mode:soft-light"/>
</svg>
