<svg width="64" height="64" viewBox="0 0 64 64" fill="none" xmlns="http://www.w3.org/2000/svg">
<g clip-path="url(#clip0_924_24417)">
<path d="M44 4.00002C41.376 3.99632 38.7921 4.64384 36.48 5.88452C35.1009 6.61874 33.5624 7.00275 32 7.00275C30.4376 7.00275 28.8991 6.61874 27.52 5.88452C25.083 4.58336 22.3504 3.93584 19.5886 4.00507C16.8269 4.07429 14.1302 4.85791 11.7614 6.27953C9.39259 7.70115 7.43257 9.71227 6.07235 12.1168C4.71214 14.5214 3.99816 17.2374 4 20C4.15093 24.8074 5.35264 29.5234 7.5207 33.8168C9.30727 36.9873 10.5569 40.4316 11.2191 44.01L13.4464 56.8169C13.6015 57.7082 14.0661 58.5161 14.7585 59.0984C15.4508 59.6807 16.3264 60 17.2311 60C18.0374 60 18.8232 59.7463 19.4773 59.2749C20.1314 58.8034 20.6205 58.1381 20.8755 57.3732L24.1025 47.6921C24.655 46.0346 25.7151 44.5929 27.1325 43.5713C28.5499 42.5497 30.2528 42 32 42C33.7472 42 35.4501 42.5497 36.8675 43.5713C38.2849 44.5929 39.3449 46.0346 39.8974 47.6921L43.1244 57.3732C43.3794 58.1381 43.8685 58.8034 44.5226 59.2749C45.1767 59.7463 45.9625 60 46.7688 60C47.6735 60 48.5492 59.6807 49.2415 59.0984C49.9339 58.516 50.3985 57.708 50.5535 56.8167L52.7809 44.01C53.4431 40.4317 54.6928 36.9875 56.4793 33.8171C58.6474 29.5236 59.8491 24.8075 60 20C60 15.7566 58.3143 11.6869 55.3137 8.68631C52.3131 5.68573 48.2435 4.00002 44 4.00002Z" fill="white"/>
<path d="M40 27C40 29.1217 39.1571 31.1566 37.6569 32.6569C36.1566 34.1571 34.1217 35 32 35C29.8783 35 27.8434 34.1571 26.3431 32.6569C24.8429 31.1566 24 29.1217 24 27H40Z" fill="#34D64E"/>
<path d="M44 3C41.2117 3.00072 38.4665 3.68864 36.0073 5.0029C34.7726 5.65607 33.3969 5.99752 32 5.99752C30.6031 5.99752 29.2275 5.65607 27.9927 5.0029C25.4033 3.62022 22.4998 2.93204 19.5652 3.00543C16.6306 3.07883 13.7652 3.9113 11.2481 5.4217C8.731 6.9321 6.64819 9.06889 5.20269 11.6238C3.75718 14.1787 2.9983 17.0645 3 20C3.15688 24.9749 4.40065 29.8552 6.644 34.2983C8.37641 37.3726 9.58939 40.7118 10.234 44.1812L12.461 56.9878C12.6457 58.05 13.1797 59.0201 13.9782 59.7444C14.7767 60.4688 15.7942 60.9059 16.8693 60.9864C17.9444 61.067 19.0156 60.7864 19.9132 60.1892C20.8108 59.592 21.4833 58.7123 21.8243 57.6895L25.0514 48.0083C25.5376 46.5499 26.4702 45.2814 27.7174 44.3826C28.9645 43.4837 30.4628 43 32.0001 43C33.5374 43 35.0357 43.4837 36.2828 44.3826C37.53 45.2814 38.4627 46.5499 38.9488 48.0083L42.1758 57.69C42.5167 58.7128 43.1893 59.5925 44.0868 60.1898C44.9843 60.787 46.0555 61.0676 47.1306 60.9871C48.2057 60.9066 49.2232 60.4696 50.0218 59.7453C50.8203 59.021 51.3543 58.0509 51.5391 56.9888L53.7661 44.1817C54.4108 40.7122 55.6238 37.3728 57.3561 34.2984C59.5995 29.8553 60.8433 24.9749 61 20C60.995 15.4929 59.2023 11.1718 56.0153 7.98474C52.8282 4.79771 48.5071 3.00503 44 3ZM55.603 33.3354C53.7643 36.6029 52.4778 40.1517 51.7954 43.8384L49.5684 56.6455C49.46 57.2689 49.1466 57.8383 48.6779 58.2634C48.2092 58.6885 47.612 58.945 46.981 58.9922C46.35 59.0394 45.7213 58.8746 45.1945 58.524C44.6678 58.1734 44.2732 57.6569 44.0732 57.0566L40.8462 47.3755C40.2272 45.5189 39.0398 43.9042 37.4521 42.7599C35.8645 41.6157 33.957 40.9999 32 40.9999C30.043 40.9999 28.1355 41.6157 26.5479 42.7599C24.9602 43.9042 23.7728 45.5189 23.1538 47.3755L19.9268 57.0566C19.7268 57.6569 19.3321 58.1734 18.8054 58.524C18.2786 58.8746 17.6498 59.0393 17.0188 58.992C16.3878 58.9448 15.7906 58.6882 15.3219 58.263C14.8533 57.8379 14.5399 57.2684 14.4316 56.645L12.2046 43.8384C11.5223 40.1518 10.2358 36.6032 8.397 33.3359C6.30526 29.1917 5.1458 24.6399 5 20C4.99833 17.4103 5.6676 14.8644 6.94258 12.6103C8.21757 10.3562 10.0548 8.47086 12.2752 7.13803C14.4955 5.80521 17.0233 5.07035 19.6122 5.00508C22.2011 4.93981 24.7627 5.54635 27.0474 6.7656C28.5735 7.57271 30.2737 7.99462 32 7.99462C33.7264 7.99462 35.4265 7.57271 36.9526 6.7656C39.2373 5.54635 41.7989 4.93981 44.3878 5.00508C46.9767 5.07035 49.5045 5.80521 51.7249 7.13803C53.9452 8.47086 55.7824 10.3562 57.0574 12.6103C58.3324 14.8644 59.0017 17.4103 59 20C58.8543 24.6397 57.6948 29.1914 55.603 33.3354Z" fill="#333333"/>
<path d="M32 36C29.6139 35.9974 27.3262 35.0483 25.639 33.361C23.9517 31.6738 23.0026 29.3861 23 27C23 26.7348 23.1054 26.4804 23.2929 26.2929C23.4804 26.1054 23.7348 26 24 26H40C40.2652 26 40.5196 26.1054 40.7071 26.2929C40.8946 26.4804 41 26.7348 41 27C40.9974 29.3861 40.0483 31.6738 38.361 33.361C36.6738 35.0483 34.3861 35.9974 32 36ZM25.0713 28C25.3119 29.666 26.1448 31.1895 27.4173 32.2914C28.6898 33.3933 30.3167 33.9998 32 33.9998C33.6833 33.9998 35.3102 33.3933 36.5827 32.2914C37.8552 31.1895 38.6881 29.666 38.9287 28H25.0713Z" fill="#333333"/>
<path d="M26.1755 16.4199L21.6911 13.8211C21.2641 13.5736 20.7174 13.7192 20.4699 14.1462C20.2224 14.5732 20.368 15.1199 20.795 15.3674L25.2794 17.9662C25.7064 18.2136 26.2531 18.0681 26.5006 17.6411C26.7481 17.2141 26.6025 16.6674 26.1755 16.4199Z" fill="#333333"/>
<path d="M47.1755 16.4199L42.6911 13.8211C42.2641 13.5736 41.7174 13.7192 41.4699 14.1462C41.2224 14.5732 41.368 15.1199 41.795 15.3674L46.2794 17.9662C46.7064 18.2136 47.2531 18.0681 47.5006 17.6411C47.7481 17.2141 47.6025 16.6674 47.1755 16.4199Z" fill="#333333"/>
<path d="M15.7733 16.4199L20.2576 13.8211C20.6846 13.5736 21.2313 13.7192 21.4788 14.1462C21.7263 14.5732 21.5808 15.1199 21.1537 15.3674L16.6694 17.9662C16.2423 18.2136 15.6956 18.0681 15.4482 17.6411C15.2006 17.2141 15.3462 16.6674 15.7733 16.4199Z" fill="#333333"/>
<path d="M36.7733 16.4199L41.2576 13.8211C41.6846 13.5736 42.2313 13.7192 42.4788 14.1462C42.7263 14.5732 42.5808 15.1199 42.1537 15.3674L37.6694 17.9662C37.2423 18.2136 36.6956 18.0681 36.4482 17.6411C36.2006 17.2141 36.3462 16.6674 36.7733 16.4199Z" fill="#333333"/>
<path d="M37.8662 40.3861H36.8662V41.3861V41.8816C35.3772 40.6334 33.5234 40.0024 31.3448 40.0009C30.1108 39.9832 28.8863 40.2198 27.7472 40.6961C26.6081 41.1723 25.5787 41.8779 24.7225 42.7691C22.9091 44.6053 22 46.8705 22 49.5023C22 52.1341 22.9091 54.3993 24.7226 56.2355C25.5788 57.1266 26.6085 57.8318 27.7479 58.3073C28.8871 58.7826 30.1115 59.018 31.3452 58.9989C33.5246 58.9981 35.3784 58.3688 36.8662 57.1227V57.6106V58.6106H37.8662H40H41V57.6106V41.3861V40.3861H40H37.8662ZM31.5 54.9226C30.0738 54.9226 28.7041 54.3596 27.6867 53.3541C26.6901 52.3207 26.1321 50.9378 26.1321 49.4975C26.1321 48.0573 26.6901 46.6744 27.6867 45.641C28.7041 44.6355 30.0738 44.0725 31.5 44.0725C32.9261 44.0725 34.2957 44.6354 35.3131 45.6408C36.3087 46.6747 36.866 48.0575 36.866 49.4975C36.866 50.9376 36.3087 52.3204 35.3131 53.3543C34.2957 54.3597 32.9261 54.9226 31.5 54.9226Z" fill="#D73F34" stroke="#FCFCFC" stroke-width="2"/>
<path d="M0 13C0.833333 8.83333 5.1 0.3 15.5 -0.5" stroke="black" stroke-width="2" stroke-linecap="round"/>
<path d="M63.5 13C62.6667 8.83333 58.4 0.3 48 -0.5" stroke="black" stroke-width="2" stroke-linecap="round"/>
</g>
<defs>
<clipPath id="clip0_924_24417">
<rect width="64" height="64" fill="white"/>
</clipPath>
</defs>
</svg>
