<svg width="70" height="72" viewBox="0 0 70 72" fill="none" xmlns="http://www.w3.org/2000/svg">
<path d="M50 12.001C47.376 11.9973 44.7921 12.6448 42.48 13.8855C41.1009 14.6197 39.5624 15.0037 38 15.0037C36.4376 15.0037 34.8991 14.6197 33.52 13.8855C31.083 12.5843 28.3504 11.9368 25.5886 12.006C22.8269 12.0753 20.1302 12.8589 17.7614 14.2805C15.3926 15.7021 13.4326 17.7132 12.0724 20.1178C10.7121 22.5224 9.99816 25.2384 10 28.001C10.1509 32.8084 11.3526 37.5244 13.5207 41.8178C15.3073 44.9883 16.5569 48.4325 17.2191 52.011L19.4464 64.8179C19.6015 65.7092 20.0661 66.5171 20.7585 67.0994C21.4508 67.6817 22.3264 68.001 23.2311 68.001C24.0374 68.001 24.8232 67.7473 25.4773 67.2758C26.1314 66.8044 26.6205 66.1391 26.8755 65.3742L30.1025 55.6931C30.655 54.0356 31.7151 52.5939 33.1325 51.5723C34.5499 50.5507 36.2528 50.001 38 50.001C39.7472 50.001 41.4501 50.5507 42.8675 51.5723C44.2849 52.5939 45.3449 54.0356 45.8974 55.6931L49.1244 65.3742C49.3794 66.1391 49.8685 66.8044 50.5226 67.2758C51.1767 67.7473 51.9625 68.001 52.7688 68.001C53.6735 68.001 54.5492 67.6817 55.2415 67.0994C55.9339 66.517 56.3985 65.709 56.5535 64.8177L58.7809 52.011C59.4431 48.4326 60.6928 44.9885 62.4793 41.8181C64.6474 37.5246 65.8491 32.8085 66 28.001C66 23.7575 64.3143 19.6879 61.3137 16.6873C58.3131 13.6867 54.2435 12.001 50 12.001Z" fill="white"/>
<path d="M46 43.001C46 40.8792 45.1571 38.8444 43.6569 37.3441C42.1566 35.8438 40.1217 35.001 38 35.001C35.8783 35.001 33.8434 35.8438 32.3431 37.3441C30.8429 38.8444 30 40.8792 30 43.001H46Z" fill="#D73F34"/>
<path d="M50 11.001C47.2117 11.0017 44.4665 11.6896 42.0073 13.0039C40.7726 13.657 39.3969 13.9985 38 13.9985C36.6031 13.9985 35.2275 13.657 33.9927 13.0039C31.4033 11.6212 28.4998 10.933 25.5652 11.0064C22.6306 11.0798 19.7652 11.9123 17.2481 13.4227C14.731 14.9331 12.6482 17.0699 11.2027 19.6248C9.75718 22.1797 8.9983 25.0655 9 28.001C9.15688 32.9759 10.4006 37.8561 12.644 42.2993C14.3764 45.3736 15.5894 48.7128 16.234 52.1822L18.461 64.9888C18.6457 66.0509 19.1797 67.0211 19.9782 67.7454C20.7767 68.4697 21.7942 68.9068 22.8693 68.9874C23.9444 69.068 25.0156 68.7874 25.9132 68.1902C26.8108 67.593 27.4833 66.7132 27.8243 65.6905L31.0514 56.0093C31.5376 54.5509 32.4702 53.2824 33.7174 52.3835C34.9645 51.4847 36.4628 51.001 38.0001 51.001C39.5374 51.001 41.0357 51.4847 42.2828 52.3835C43.53 53.2824 44.4627 54.5509 44.9488 56.0093L48.1758 65.691C48.5167 66.7137 49.1893 67.5935 50.0868 68.1907C50.9843 68.788 52.0555 69.0686 53.1306 68.9881C54.2057 68.9076 55.2232 68.4706 56.0218 67.7463C56.8203 67.022 57.3543 66.0519 57.5391 64.9898L59.7661 52.1827C60.4108 48.7131 61.6238 45.3738 63.3561 42.2994C65.5995 37.8562 66.8433 32.9759 67 28.001C66.995 23.4938 65.2023 19.1727 62.0153 15.9857C58.8282 12.7987 54.5071 11.006 50 11.001ZM61.603 41.3364C59.7643 44.6039 58.4778 48.1526 57.7954 51.8394L55.5684 64.6465C55.46 65.2699 55.1466 65.8393 54.6779 66.2644C54.2092 66.6895 53.612 66.946 52.981 66.9932C52.35 67.0404 51.7213 66.8756 51.1945 66.525C50.6678 66.1744 50.2732 65.6579 50.0732 65.0576L46.8462 55.3765C46.2272 53.5199 45.0398 51.9051 43.4521 50.7609C41.8645 49.6166 39.957 49.0009 38 49.0009C36.043 49.0009 34.1355 49.6166 32.5479 50.7609C30.9602 51.9051 29.7728 53.5199 29.1538 55.3765L25.9268 65.0576C25.7268 65.6579 25.3321 66.1743 24.8054 66.5249C24.2786 66.8755 23.6498 67.0403 23.0188 66.993C22.3878 66.9457 21.7906 66.6892 21.3219 66.264C20.8533 65.8389 20.5399 65.2694 20.4316 64.646L18.2046 51.8394C17.5223 48.1528 16.2358 44.6042 14.397 41.3369C12.3053 37.1927 11.1458 32.6409 11 28.001C10.9983 25.4113 11.6676 22.8653 12.9426 20.6112C14.2176 18.3572 16.0548 16.4718 18.2752 15.139C20.4955 13.8062 23.0233 13.0713 25.6122 13.0061C28.2011 12.9408 30.7627 13.5473 33.0474 14.7666C34.5735 15.5737 36.2737 15.9956 38 15.9956C39.7264 15.9956 41.4265 15.5737 42.9526 14.7666C45.2373 13.5473 47.7989 12.9408 50.3878 13.0061C52.9767 13.0713 55.5045 13.8062 57.7249 15.139C59.9452 16.4718 61.7824 18.3572 63.0574 20.6112C64.3324 22.8653 65.0017 25.4113 65 28.001C64.8543 32.6407 63.6948 37.1924 61.603 41.3364Z" fill="#333333"/>
<path d="M38 34.001C35.6139 34.0036 33.3262 34.9527 31.639 36.6399C29.9517 38.3272 29.0026 40.6148 29 43.001C29 43.2662 29.1054 43.5205 29.2929 43.7081C29.4804 43.8956 29.7348 44.001 30 44.001H46C46.2652 44.001 46.5196 43.8956 46.7071 43.7081C46.8946 43.5205 47 43.2662 47 43.001C46.9974 40.6148 46.0483 38.3272 44.361 36.6399C42.6738 34.9527 40.3861 34.0036 38 34.001ZM31.0713 42.001C31.3119 40.335 32.1448 38.8115 33.4173 37.7096C34.6898 36.6076 36.3167 36.0011 38 36.0011C39.6833 36.0011 41.3102 36.6076 42.5827 37.7096C43.8552 38.8115 44.6881 40.335 44.9287 42.001H31.0713Z" fill="#333333"/>
<path d="M51.8945 24.5538C51.8358 24.4363 51.7545 24.3316 51.6552 24.2455C51.556 24.1595 51.4408 24.0938 51.3162 24.0523C51.1916 24.0108 51.0601 23.9942 50.9291 24.0035C50.798 24.0128 50.6702 24.0479 50.5527 24.1066L44.5527 27.1066C44.3865 27.1897 44.2468 27.3173 44.1491 27.4753C44.0515 27.6333 43.9998 27.8154 43.9998 28.0011C43.9998 28.1869 44.0515 28.3689 44.1491 28.5269C44.2468 28.6849 44.3865 28.8126 44.5527 28.8956L50.5527 31.8956C50.7899 32.0142 51.0646 32.0338 51.3162 31.9499C51.5679 31.866 51.7759 31.6856 51.8945 31.4484C52.0131 31.2112 52.0327 30.9365 51.9488 30.6849C51.8649 30.4333 51.6845 30.2252 51.4473 30.1066L47.2358 28.0011L51.4473 25.8956C51.5648 25.8369 51.6695 25.7556 51.7556 25.6564C51.8416 25.5571 51.9073 25.4419 51.9488 25.3173C51.9904 25.1927 52.0069 25.0612 51.9976 24.9302C51.9883 24.7992 51.9532 24.6713 51.8945 24.5538Z" fill="#333333"/>
<path d="M32.0001 28.0011C32.0001 27.8154 31.9484 27.6333 31.8508 27.4753C31.7532 27.3173 31.6135 27.1896 31.4474 27.1066L25.4474 24.1066C25.3299 24.0478 25.2021 24.0128 25.071 24.0035C24.94 23.9942 24.8085 24.0108 24.6839 24.0523C24.5593 24.0938 24.4441 24.1595 24.3449 24.2455C24.2456 24.3316 24.1643 24.4363 24.1056 24.5538C24.0469 24.6712 24.0118 24.7991 24.0025 24.9301C23.9932 25.0611 24.0098 25.1927 24.0513 25.3173C24.0928 25.4419 24.1585 25.5571 24.2445 25.6563C24.3306 25.7555 24.4353 25.8368 24.5528 25.8956L28.7643 28.0011L24.5528 30.1066C24.4353 30.1653 24.3306 30.2466 24.2445 30.3458C24.1585 30.4451 24.0928 30.5603 24.0513 30.6849C24.0098 30.8095 23.9932 30.941 24.0025 31.072C24.0118 31.203 24.0469 31.3309 24.1056 31.4484C24.1643 31.5658 24.2456 31.6706 24.3449 31.7566C24.4441 31.8427 24.5593 31.9083 24.6839 31.9499C24.9355 32.0337 25.2102 32.0142 25.4474 31.8956L31.4474 28.8956C31.6135 28.8125 31.7532 28.6848 31.8508 28.5268C31.9484 28.3688 32.0001 28.1868 32.0001 28.0011Z" fill="#333333"/>
<path d="M7.95102 8.26534C8.16572 8.65568 8.63671 8.82885 9.05639 8.67136L9.78627 8.39775L10.6976 10.0593C10.8919 10.4137 11.293 10.5845 11.6715 10.5049C11.7557 10.4872 11.8387 10.457 11.9181 10.4139C12.3546 10.1765 12.5158 9.63297 12.2782 9.19975L10.993 6.85671C10.7787 6.46584 10.3069 6.29183 9.88709 6.44971L9.15627 6.7237L8.07458 4.75737C7.8364 4.32446 7.28949 4.16642 6.85357 4.40417C6.4174 4.64207 6.25691 5.18585 6.49499 5.61878L7.95102 8.26534Z" fill="#333333"/>
<path d="M5.12245 13.739L5.72557 13.1382L7.48785 14.1713C7.72069 14.3078 7.99872 14.3425 8.25819 14.2879C8.50958 14.2351 8.74358 14.0985 8.90225 13.8897C9.22486 13.4654 9.11466 12.9035 8.6561 12.6346L6.17307 11.179C5.75959 10.9367 5.19515 11.0128 4.84902 11.3575L4.24616 11.9581L2.16697 10.7381C1.70851 10.4692 1.07533 10.595 0.752458 11.0191C0.429608 11.4433 0.539516 12.0052 0.998015 12.2743L3.79804 13.9173C4.21148 14.1599 4.77628 14.084 5.12245 13.739Z" fill="#333333"/>
<path d="M15.0551 5.33613L15.7682 5.53807L15.6074 7.44244C15.5655 7.93869 15.9086 8.38933 16.3739 8.44891C16.4642 8.46051 16.5526 8.45649 16.6367 8.43882C16.9849 8.3656 17.2582 8.0582 17.292 7.65844L17.5186 4.97409C17.5564 4.52665 17.2798 4.10784 16.8698 3.99177L16.1574 3.78998L16.3492 1.53771C16.3914 1.04156 16.0486 0.590678 15.5835 0.530625C15.1182 0.470872 14.7069 0.82416 14.6647 1.32038L14.4065 4.35313C14.3682 4.80076 14.6449 5.22002 15.0551 5.33613Z" fill="#333333"/>
</svg>
