<svg width="906" height="428" viewBox="0 0 906 428" fill="none" xmlns="http://www.w3.org/2000/svg">
<path d="M-432.191 859.955C-463.701 1113.85 -283.424 1345.21 -29.5307 1376.72C224.362 1408.23 455.727 1227.96 487.237 974.063C518.747 720.17 338.47 488.805 84.5766 457.295C-169.316 425.785 -400.681 606.062 -432.191 859.955Z" stroke="black" stroke-opacity="0.04" stroke-miterlimit="10" stroke-linecap="round" style="mix-blend-mode:soft-light"/>
<path d="M-423.785 815.078C-455.294 1068.97 -275.017 1300.34 -21.124 1331.85C232.769 1363.36 464.134 1183.08 495.644 929.186C527.154 675.293 346.876 443.928 92.9834 412.418C-160.91 380.908 -392.275 561.185 -423.785 815.078Z" stroke="black" stroke-opacity="0.04" stroke-miterlimit="10" stroke-linecap="round" style="mix-blend-mode:soft-light"/>
<path d="M-414.001 771.452C-445.511 1025.34 -265.234 1256.71 -11.3408 1288.22C242.552 1319.73 473.917 1139.45 505.427 885.559C536.937 631.666 356.66 400.301 102.767 368.791C-151.127 337.281 -382.491 517.558 -414.001 771.452Z" stroke="black" stroke-opacity="0.04" stroke-miterlimit="10" stroke-linecap="round" style="mix-blend-mode:soft-light"/>
<path d="M-402.925 729.483C-434.435 983.376 -254.158 1214.74 -0.264593 1246.25C253.629 1277.76 484.993 1097.48 516.503 843.59C548.013 589.697 367.736 358.332 113.843 326.822C-140.05 295.312 -371.415 475.59 -402.925 729.483Z" stroke="black" stroke-opacity="0.04" stroke-miterlimit="10" stroke-linecap="round" style="mix-blend-mode:soft-light"/>
<path d="M-390.649 689.595C-422.159 943.488 -241.882 1174.85 12.0115 1206.36C265.905 1237.87 497.269 1057.6 528.779 803.702C560.289 549.809 380.012 318.444 126.119 286.935C-127.774 255.425 -359.139 435.702 -390.649 689.595Z" stroke="black" stroke-opacity="0.04" stroke-miterlimit="10" stroke-linecap="round" style="mix-blend-mode:soft-light"/>
<path d="M-377.317 652.203C-408.827 906.096 -228.55 1137.46 25.3433 1168.97C279.236 1200.48 510.601 1020.2 542.111 766.31C573.621 512.417 393.344 281.052 139.451 249.542C-114.443 218.032 -345.807 398.309 -377.317 652.203Z" stroke="black" stroke-opacity="0.04" stroke-miterlimit="10" stroke-linecap="round" style="mix-blend-mode:soft-light"/>
<path d="M-363.053 617.657C-394.563 871.55 -214.286 1102.91 39.6075 1134.42C293.501 1165.93 524.865 985.657 556.375 731.764C587.885 477.871 407.608 246.506 153.715 214.996C-100.178 183.486 -331.543 363.764 -363.053 617.657Z" stroke="black" stroke-opacity="0.04" stroke-miterlimit="10" stroke-linecap="round" style="mix-blend-mode:soft-light"/>
<path d="M-348.002 586.325C-379.512 840.218 -199.235 1071.58 54.658 1103.09C308.551 1134.6 539.916 954.325 571.426 700.432C602.936 446.539 422.658 215.174 168.765 183.664C-85.1278 152.154 -316.493 332.432 -348.002 586.325Z" stroke="black" stroke-opacity="0.04" stroke-miterlimit="10" stroke-linecap="round" style="mix-blend-mode:soft-light"/>
<path d="M-332.332 558.526C-363.841 812.419 -183.564 1043.78 70.329 1075.29C324.222 1106.8 555.587 926.526 587.097 672.633C618.607 418.74 438.329 187.375 184.436 155.865C-69.4568 124.355 -300.822 304.633 -332.332 558.526Z" stroke="black" stroke-opacity="0.04" stroke-miterlimit="10" stroke-linecap="round" style="mix-blend-mode:soft-light"/>
<path d="M-316.177 534.503C-347.687 788.396 -167.41 1019.76 86.4834 1051.27C340.377 1082.78 571.741 902.504 603.251 648.611C634.761 394.718 454.484 163.353 200.591 131.843C-53.3024 100.333 -284.667 280.61 -316.177 534.503Z" stroke="black" stroke-opacity="0.04" stroke-miterlimit="10" stroke-linecap="round" style="mix-blend-mode:soft-light"/>
<path d="M-299.705 514.524C-331.215 768.417 -150.938 999.782 102.956 1031.29C356.849 1062.8 588.214 882.524 619.723 628.631C651.233 374.738 470.956 143.373 217.063 111.863C-36.8302 80.3535 -268.195 260.631 -299.705 514.524Z" stroke="black" stroke-opacity="0.04" stroke-miterlimit="10" stroke-linecap="round" style="mix-blend-mode:soft-light"/>
<path d="M-283.08 498.785C-314.59 752.678 -134.312 984.043 119.581 1015.55C373.474 1047.06 604.839 866.785 636.349 612.892C667.859 358.999 487.581 127.634 233.688 96.1241C-20.205 64.6142 -251.57 244.891 -283.08 498.785Z" stroke="black" stroke-opacity="0.04" stroke-miterlimit="10" stroke-linecap="round" style="mix-blend-mode:soft-light"/>
<path d="M-266.466 487.434C-297.976 741.327 -117.699 972.692 136.194 1004.2C390.087 1035.71 621.452 855.434 652.962 601.541C684.472 347.648 504.195 116.283 250.302 84.7735C-3.59143 53.2636 -234.956 233.541 -266.466 487.434Z" stroke="black" stroke-opacity="0.04" stroke-miterlimit="10" stroke-linecap="round" style="mix-blend-mode:soft-light"/>
<path d="M-250.019 480.59C-281.529 734.483 -101.252 965.848 152.641 997.358C406.534 1028.87 637.899 848.591 669.409 594.698C700.919 340.804 520.642 109.44 266.748 77.9297C12.8553 46.4199 -218.51 226.697 -250.019 480.59Z" stroke="black" stroke-opacity="0.04" stroke-miterlimit="10" stroke-linecap="round" style="mix-blend-mode:soft-light"/>
<path d="M-233.939 478.31C-265.449 732.203 -85.1717 963.568 168.721 995.078C422.615 1026.59 653.979 846.31 685.489 592.417C716.999 338.524 536.722 107.159 282.829 75.6495C28.9357 44.1396 -202.429 224.417 -233.939 478.31Z" stroke="black" stroke-opacity="0.04" stroke-miterlimit="10" stroke-linecap="round" style="mix-blend-mode:soft-light"/>
<path d="M-218.343 480.632C-249.853 734.525 -69.576 965.89 184.317 997.4C438.21 1028.91 669.575 848.633 701.085 594.74C732.595 340.846 552.318 109.482 298.424 77.9717C44.5314 46.4619 -186.833 226.739 -218.343 480.632Z" stroke="black" stroke-opacity="0.04" stroke-miterlimit="10" stroke-linecap="round" style="mix-blend-mode:soft-light"/>
<path d="M-203.416 487.533C-234.925 741.426 -54.6482 972.791 199.245 1004.3C453.138 1035.81 684.503 855.533 716.013 601.64C747.523 347.747 567.245 116.382 313.352 84.8721C59.4592 53.3623 -171.906 233.64 -203.416 487.533Z" stroke="black" stroke-opacity="0.04" stroke-miterlimit="10" stroke-linecap="round" style="mix-blend-mode:soft-light"/>
<path d="M-189.301 498.942C-220.81 752.835 -40.5332 984.2 213.36 1015.71C467.253 1047.22 698.618 866.942 730.128 613.049C761.638 359.156 581.36 127.791 327.467 96.2813C73.5742 64.7714 -157.791 245.049 -189.301 498.942Z" stroke="black" stroke-opacity="0.04" stroke-miterlimit="10" stroke-linecap="round" style="mix-blend-mode:soft-light"/>
<path d="M-176.137 514.747C-207.647 768.641 -27.3701 1000.01 226.523 1031.52C480.416 1063.03 711.781 882.748 743.291 628.855C774.801 374.962 594.523 143.597 340.63 112.087C86.7372 80.5771 -144.628 260.854 -176.137 514.747Z" stroke="black" stroke-opacity="0.04" stroke-miterlimit="10" stroke-linecap="round" style="mix-blend-mode:soft-light"/>
<path d="M-164.051 534.776C-195.561 788.669 -15.2837 1020.03 238.609 1051.54C492.503 1083.05 723.867 902.776 755.377 648.883C786.887 394.99 606.61 163.625 352.717 132.115C98.8236 100.605 -132.541 280.883 -164.051 534.776Z" stroke="black" stroke-opacity="0.04" stroke-miterlimit="10" stroke-linecap="round" style="mix-blend-mode:soft-light"/>
<path d="M-153.164 558.83C-184.674 812.724 -4.39651 1044.09 249.497 1075.6C503.39 1107.11 734.755 926.831 766.264 672.938C797.774 419.045 617.497 187.68 363.604 156.17C109.711 124.66 -121.654 304.937 -153.164 558.83Z" stroke="black" stroke-opacity="0.04" stroke-miterlimit="10" stroke-linecap="round" style="mix-blend-mode:soft-light"/>
<path d="M-143.594 586.685C-175.104 840.578 5.17357 1071.94 259.067 1103.45C512.96 1134.96 744.325 954.685 775.835 700.792C807.344 446.899 627.067 215.534 373.174 184.024C119.281 152.515 -112.084 332.792 -143.594 586.685Z" stroke="black" stroke-opacity="0.04" stroke-miterlimit="10" stroke-linecap="round" style="mix-blend-mode:soft-light"/>
<path d="M-135.447 618.059C-166.956 871.952 13.3208 1103.32 267.214 1134.83C521.107 1166.34 752.472 986.059 783.982 732.166C815.492 478.273 635.214 246.908 381.321 215.398C127.428 183.889 -103.937 364.166 -135.447 618.059Z" stroke="black" stroke-opacity="0.04" stroke-miterlimit="10" stroke-linecap="round" style="mix-blend-mode:soft-light"/>
<path d="M-128.768 652.633C-160.278 906.526 19.999 1137.89 273.892 1169.4C527.785 1200.91 759.15 1020.63 790.66 766.741C822.17 512.847 641.893 281.483 387.999 249.973C134.106 218.463 -97.2585 398.74 -128.768 652.633Z" stroke="black" stroke-opacity="0.04" stroke-miterlimit="10" stroke-linecap="round" style="mix-blend-mode:soft-light"/>
<path d="M-123.644 690.066C-155.154 943.959 25.1235 1175.32 279.017 1206.83C532.91 1238.34 764.275 1058.07 795.784 804.173C827.294 550.28 647.017 318.915 393.124 287.405C139.231 255.895 -92.134 436.173 -123.644 690.066Z" stroke="black" stroke-opacity="0.04" stroke-miterlimit="10" stroke-linecap="round" style="mix-blend-mode:soft-light"/>
<path d="M-120.132 729.975C-151.642 983.868 28.6352 1215.23 282.528 1246.74C536.421 1278.25 767.786 1097.98 799.296 844.082C830.806 590.189 650.529 358.824 396.636 327.314C142.743 295.805 -88.6223 476.082 -120.132 729.975Z" stroke="black" stroke-opacity="0.04" stroke-miterlimit="10" stroke-linecap="round" style="mix-blend-mode:soft-light"/>
<path d="M-118.265 771.971C-149.775 1025.86 30.5027 1257.23 284.396 1288.74C538.289 1320.25 769.654 1139.97 801.164 886.078C832.673 632.185 652.396 400.82 398.503 369.311C144.61 337.801 -86.7549 518.078 -118.265 771.971Z" stroke="black" stroke-opacity="0.04" stroke-miterlimit="10" stroke-linecap="round" style="mix-blend-mode:soft-light"/>
<path d="M-118.055 815.626C-149.565 1069.52 30.7124 1300.88 284.606 1332.39C538.499 1363.9 769.863 1183.63 801.373 929.734C832.883 675.841 652.606 444.476 398.713 412.966C144.82 381.456 -86.5451 561.733 -118.055 815.626Z" stroke="black" stroke-opacity="0.04" stroke-miterlimit="10" stroke-linecap="round" style="mix-blend-mode:soft-light"/>
<path d="M-119.502 860.501C-151.012 1114.39 29.2657 1345.76 283.159 1377.27C537.052 1408.78 768.417 1228.5 799.927 974.609C831.436 720.716 651.159 489.351 397.266 457.841C143.373 426.331 -87.9919 606.608 -119.502 860.501Z" stroke="black" stroke-opacity="0.04" stroke-miterlimit="10" stroke-linecap="round" style="mix-blend-mode:soft-light"/>
</svg>
