<svg width="26" height="43" viewBox="0 0 26 43" fill="none" xmlns="http://www.w3.org/2000/svg">
<path d="M6.23327 2.96332C5.69986 1.22558 7.31642 0.408042 8.69304 1.37501C11.3542 3.24401 12.7431 6.41244 13.9555 9.31835C14.517 10.6641 17.0058 15.3655 15.4246 16.6313C13.8557 17.8871 8.2 16.0077 8.12878 12.9006C8.09023 11.2146 8.14557 9.51865 7.92014 7.84314C7.6752 6.02229 6.75625 4.66563 6.23327 2.96332Z" fill="url(#paint0_linear_63_1008)"/>
<path d="M22.02 26.8842C22.9821 20.5764 22.9667 12.9657 20.1635 7.12795C19.5121 5.77104 18.6254 4.5298 17.5689 3.45824C17.1544 3.03769 14.6845 0.512579 14.1656 1.1341C13.6363 1.76787 14.1148 3.18422 14.2087 3.88877C14.3657 5.06785 14.5144 6.24784 14.6374 7.431C14.8864 9.83135 15.5065 12.4322 14.8578 14.8208C14.7149 15.3466 14.3847 15.8665 13.8667 16.0348C13.5932 16.1237 13.2952 16.1056 13.0144 16.0448C11.2372 15.6596 9.95131 13.8676 8.85861 12.5529C7.29599 10.6734 6.39924 8.56199 5.61861 6.26417C5.2394 5.14815 4.80577 4.06388 3.85277 3.32032C3.62325 3.14112 1.3748 0.381924 1.021 0.46676C-0.143822 0.745311 0.258514 3.88831 0.300698 4.60284C0.627284 10.1593 4.70054 20.0203 4.70054 20.0203C4.70054 20.0203 5.68075 26.23 4.70054 28.1912C3.72033 30.1529 20.7132 30.1529 22.02 26.8842Z" fill="url(#paint1_linear_63_1008)"/>
<path d="M22.9988 27.8613C22.9984 27.8608 20.3865 24.9229 14.5093 24.9229C8.63216 24.9229 4.38743 26.8819 3.40805 29.4936C2.42867 32.1053 2.10191 39.2882 5.69357 40.5942C6.82976 41.0075 8.07879 41.1099 9.10304 40.3776C9.97909 39.7513 10.3253 38.6002 11.6428 39.0271C12.217 39.2129 12.6906 39.6158 13.1774 39.9729C15.3174 41.5427 18.9544 43.171 21.3917 41.3179C24.7237 38.7847 25.9002 31.1255 22.9988 27.8613Z" fill="url(#paint2_linear_63_1008)"/>
<path d="M23.3536 24.5295C23.4901 24.9736 23.6615 25.4008 23.8085 25.8213C24.1532 26.5963 24.1314 26.8415 24.2987 27.3876C24.6829 28.6412 25.3949 29.6964 25.3713 30.9109C25.3541 31.809 24.6031 32.2852 23.7844 32.3933C22.7604 32.5286 22.3686 26.3112 16.49 26.3112C10.6114 26.3112 8.7379 27.5693 5.92696 29.1393C5.27434 29.5039 4.14961 30.4006 3.55685 30.8292C0.981745 32.6907 2.11828 27.0485 2.51239 26.0156C2.88564 25.0381 3.01308 24.0909 3.58497 23.1715C4.11741 22.3148 4.81357 21.5688 5.60587 20.9473C7.26441 19.646 9.31433 18.8887 11.3838 18.5663C15.1838 17.9752 20.0356 18.7593 22.3495 22.1772C22.8198 22.8714 23.0996 23.7023 23.3536 24.5295Z" fill="#E6D59A"/>
<defs>
<linearGradient id="paint0_linear_63_1008" x1="12.7702" y1="17.5258" x2="5.54225" y2="-17.9309" gradientUnits="userSpaceOnUse">
<stop offset="0.1599" stop-color="#BFAB8D"/>
<stop offset="0.5078" stop-color="#E7E1D2"/>
<stop offset="0.7297" stop-color="#CCBFA6"/>
</linearGradient>
<linearGradient id="paint1_linear_63_1008" x1="27.9659" y1="14.9184" x2="0.877417" y2="15.0162" gradientUnits="userSpaceOnUse">
<stop offset="0.1599" stop-color="#BFAB8D"/>
<stop offset="0.5078" stop-color="#E7E1D2"/>
<stop offset="0.7297" stop-color="#CCBFA6"/>
</linearGradient>
<linearGradient id="paint2_linear_63_1008" x1="29.6117" y1="33.4865" x2="-2.53299" y2="33.6026" gradientUnits="userSpaceOnUse">
<stop stop-color="#94938C"/>
<stop offset="0.2296" stop-color="#EDEBE1"/>
<stop offset="0.7988" stop-color="#EDEBE1"/>
<stop offset="1" stop-color="#94938C"/>
</linearGradient>
</defs>
</svg>
