<svg width="20" height="70" viewBox="0 0 20 70" fill="none" xmlns="http://www.w3.org/2000/svg">
<path d="M3.91553 45.4953C3.91553 45.4953 15.9971 42.4681 17.0011 44.1941L12.1219 9.65298C12.1219 9.65298 8.70216 0.775391 7.39469 0.775391C6.08722 0.775391 4.77977 4.69604 4.77977 4.69604C4.77977 4.69604 4.20678 37.2286 3.91553 45.4953Z" fill="url(#paint0_linear_63_941)"/>
<path d="M6.23996 41.9995C6.23951 42.0004 -0.951995 51.4833 0.355719 59.3313C0.777708 61.8636 1.64164 64.5103 3.16761 66.5987C3.91176 67.6172 4.87871 68.5391 6.09794 68.9431C7.71058 69.4773 9.78016 69.0579 11.3969 68.6971C12.1928 68.5196 12.9746 68.2749 13.716 67.9336C18.8997 65.5488 20.2691 59.4002 19.8521 54.1895C19.559 50.5292 18.4482 46.9783 17.0043 43.624C16.0678 41.448 13.8861 40.8779 11.7086 40.5697C10.0696 40.3378 7.35438 40.5302 6.23996 41.9995Z" fill="url(#paint1_linear_63_941)"/>
<path d="M4.01766 39.8676C3.83233 40.8374 2.92255 45.1199 2.88658 47.0201C2.8588 48.4815 3.52998 48.8363 3.93524 47.8478C5.59864 43.7866 7.68553 43.6558 10.4222 43.6308C13.433 43.6031 14.5804 43.5122 16.3436 47.4521C17.9072 49.9375 18.0402 45.7263 17.874 44.5143C17.6928 42.7894 17.5029 41.2113 17.1532 39.7971C14.0149 27.8452 6.0977 30.4513 4.01766 39.8676Z" fill="#E6D59A"/>
<defs>
<linearGradient id="paint0_linear_63_941" x1="15.2692" y1="23.4317" x2="5.37564" y2="23.1268" gradientUnits="userSpaceOnUse">
<stop stop-color="#BFAB8D"/>
<stop offset="0.5078" stop-color="#E7E1D2"/>
<stop offset="1" stop-color="#CCBFA6"/>
</linearGradient>
<linearGradient id="paint1_linear_63_941" x1="26.2028" y1="54.5377" x2="-6.75605" y2="55.1266" gradientUnits="userSpaceOnUse">
<stop stop-color="#94938C"/>
<stop offset="0.0617" stop-color="#A4A29B"/>
<stop offset="0.1809" stop-color="#CCCAC2"/>
<stop offset="0.2666" stop-color="#EDEBE1"/>
<stop offset="0.7117" stop-color="#EDEBE1"/>
<stop offset="0.7719" stop-color="#E0DED5"/>
<stop offset="0.883" stop-color="#BEBDB4"/>
<stop offset="1" stop-color="#94938C"/>
</linearGradient>
</defs>
</svg>
