<svg width="20" height="58" viewBox="0 0 20 58" fill="none" xmlns="http://www.w3.org/2000/svg">
<path d="M9.96045 56.2832C9.96045 56.2832 15.3159 57.1272 17.0602 54.256C18.804 51.3848 10.5113 54.576 9.96045 56.2832Z" fill="#D8D6D0"/>
<path d="M15.2711 38.3436C15.2711 38.3436 14.946 27.2354 13.9699 24.295C12.9943 21.3546 12.0183 11.5534 12.3438 8.93948C12.6688 6.32558 12.6688 2.40518 12.6688 2.40518C12.6688 2.40518 12.9939 -0.535222 10.0666 1.75171C7.13927 4.03865 3.56141 15.1468 3.88691 19.7207C4.21197 24.2946 4.31489 38.0778 4.26343 38.0475C4.21241 38.0171 15.2711 38.3436 15.2711 38.3436Z" fill="url(#paint0_linear_63_948)"/>
<path d="M4.54096 37.0527C4.54096 37.0527 -2.97629 48.1726 2.57976 54.0597C3.25844 54.7787 4.32591 55.2845 5.15294 55.8106C6.00674 56.354 6.91772 57.1085 7.95843 57.2261C9.15202 57.3614 10.0258 56.1116 11.199 55.8678C13.064 55.4801 14.8891 55.787 16.4819 54.5141C17.7971 53.4631 18.5946 51.8248 18.8655 50.1841C19.203 48.1372 18.8537 46.0571 18.4463 44.0474C18.2725 43.1908 17.9767 42.3754 17.6306 41.5733C17.2617 40.718 16.5967 39.8832 16.3072 39.0143C16.3072 39.0152 13.6923 31.1656 4.54096 37.0527Z" fill="url(#paint1_linear_63_948)"/>
<path d="M3.90125 33.4504C3.71811 34.4172 2.81909 38.6863 2.78354 40.5806C2.75609 42.0374 3.41933 42.3916 3.8198 41.4057C5.46352 37.3572 7.52573 37.2268 10.23 37.2018C13.2052 37.1742 14.3391 37.0836 16.0813 41.0113C17.6265 43.4888 17.7579 39.2909 17.5937 38.0827C17.4146 36.3632 17.2269 34.7899 16.8814 33.3802C13.7802 21.466 5.95623 24.064 3.90125 33.4504Z" fill="#E6D59A"/>
<defs>
<linearGradient id="paint0_linear_63_948" x1="14.3758" y1="19.6598" x2="1.54569" y2="19.2663" gradientUnits="userSpaceOnUse">
<stop stop-color="#BFAB8D"/>
<stop offset="0.5078" stop-color="#E7E1D2"/>
<stop offset="1" stop-color="#CCBFA6"/>
</linearGradient>
<linearGradient id="paint1_linear_63_948" x1="22.5773" y1="46.4552" x2="-4.14889" y2="45.6325" gradientUnits="userSpaceOnUse">
<stop stop-color="#94938C"/>
<stop offset="0.0311" stop-color="#A6A59D"/>
<stop offset="0.0939" stop-color="#C5C3BB"/>
<stop offset="0.1552" stop-color="#DBD9D0"/>
<stop offset="0.2138" stop-color="#E8E7DD"/>
<stop offset="0.2666" stop-color="#EDEBE1"/>
<stop offset="0.7117" stop-color="#EDEBE1"/>
<stop offset="0.7637" stop-color="#E7E5DB"/>
<stop offset="0.835" stop-color="#D5D3CA"/>
<stop offset="0.9175" stop-color="#B8B7AF"/>
<stop offset="1" stop-color="#94938C"/>
</linearGradient>
</defs>
</svg>
