<svg width="19" height="55" viewBox="0 0 19 55" fill="none" xmlns="http://www.w3.org/2000/svg">
<path d="M9.50635 54.3223C9.50635 54.3223 14.7946 55.4179 16.6686 52.6655C18.5431 49.9127 10.1366 52.6619 9.50635 54.3223Z" fill="#D8D6D0"/>
<path d="M8.74738 54.5311C8.74738 54.5311 3.08971 54.9153 1.682 51.2304C0.274285 47.5454 8.41353 52.3981 8.74738 54.5311Z" fill="#D8D6D0"/>
<path d="M6.47476 33.9966C6.39174 34.0374 6.3128 34.0836 6.2384 34.1358C4.80073 35.1399 3.58899 36.7666 2.67485 38.2382C1.28573 40.474 0.293995 43.0314 0.561205 45.6998C0.743579 47.5239 0.948199 49.6213 1.86007 51.2594C2.39267 52.2163 3.58989 52.6549 4.56482 52.9941C5.40002 53.2848 6.24293 53.5578 7.0618 53.893C7.81806 54.2022 8.56026 54.7297 9.41225 54.6616C10.3917 54.5832 11.0758 53.8159 11.8593 53.3179C13.0888 52.537 14.5605 52.1365 16.0167 52.2068C16.2726 52.2191 16.5348 52.2449 16.7798 52.1701C17.1377 52.0612 17.3995 51.7574 17.6105 51.449C18.5713 50.0458 18.5459 48.6862 18.5541 47.0545C18.5627 45.3964 18.5305 43.7284 18.2143 42.0958C17.6513 39.1865 15.7287 36.7798 14.7179 34.0338C14.6598 33.8755 14.6017 33.7136 14.4951 33.583C14.3128 33.3594 14.0143 33.2628 13.7266 33.2397C13.1877 33.1961 12.6446 33.2796 12.1107 33.3367C11.0981 33.4455 10.1095 33.5585 9.09152 33.6283C8.2849 33.6841 7.22648 33.6251 6.47476 33.9966Z" fill="url(#paint0_linear_63_960)"/>
<path d="M4.33194 35.9244C4.3682 35.954 4.4117 35.9771 4.46472 35.9916C4.73122 36.0665 5.55246 35.6639 5.84298 35.5877C6.80608 35.3353 7.78005 35.1243 8.75992 34.9487C9.79825 34.7626 10.847 34.586 11.9044 34.5774C12.4641 34.5729 13.027 34.6119 13.575 34.7308C14.0617 34.8366 14.5861 35.1706 15.047 35.2123C15.3829 33.9012 15.042 32.3762 14.9641 31.0446C14.8775 29.5641 14.7416 28.0868 14.5571 26.6154C14.2113 23.8541 13.5228 21.1958 13.0211 18.4695C12.5325 15.8176 12.3966 13.0141 12.4551 10.3137C12.4822 9.04379 12.5593 7.77162 12.7048 6.50989C12.8285 5.43289 13.1385 4.46889 13.0284 3.35285C12.9164 2.2182 12.3848 0.499902 10.8887 0.964653C9.76245 1.31458 9.0613 2.55497 8.49296 3.49808C7.41021 5.294 6.62207 7.25059 5.896 9.21806C5.17085 11.1828 4.50234 13.1816 4.1239 15.2458C3.7935 17.0462 3.83384 18.8085 3.86511 20.6263C3.91406 23.5119 3.98294 26.3971 4.0541 29.2822C4.09988 31.144 3.99382 33.086 4.14021 34.9741C4.1665 35.3272 4.1144 35.7465 4.33194 35.9244Z" fill="url(#paint1_linear_63_960)"/>
<path d="M2.22757 33.0758C2.01512 34.0439 0.972347 38.3188 0.931126 40.2156C0.899417 41.6744 1.66904 42.0285 2.13335 41.0418C4.03996 36.9878 6.4331 36.8572 9.57003 36.8323C13.0218 36.8046 14.3372 36.7139 16.3585 40.6468C18.1509 43.1277 18.3036 38.9241 18.1129 37.7143C17.9049 35.9925 17.6875 34.4171 17.2866 33.0055C13.6881 21.0749 4.61164 23.6764 2.22757 33.0758Z" fill="#E6D59A"/>
<defs>
<linearGradient id="paint0_linear_63_960" x1="24.5045" y1="44.3524" x2="-5.73178" y2="43.4207" gradientUnits="userSpaceOnUse">
<stop stop-color="#94938C"/>
<stop offset="0.2666" stop-color="#EDEBE1"/>
<stop offset="0.7117" stop-color="#EDEBE1"/>
<stop offset="1" stop-color="#94938C"/>
</linearGradient>
<linearGradient id="paint1_linear_63_960" x1="17.9534" y1="19.4929" x2="3.60747" y2="17.9885" gradientUnits="userSpaceOnUse">
<stop stop-color="#BFAB8D"/>
<stop offset="0.5078" stop-color="#E7E1D2"/>
<stop offset="1" stop-color="#CCBFA6"/>
</linearGradient>
</defs>
</svg>
