<svg width="28" height="51" viewBox="0 0 28 51" fill="none" xmlns="http://www.w3.org/2000/svg">
<path d="M16.7309 2.2382C16.7309 2.2382 17.6364 0.18209 19.4691 0.697027C21.3019 1.21196 21.9358 6.01032 21.6039 9.54767C21.2724 13.085 19.7013 24.3083 17.0002 24.5394C14.2991 24.7705 9.35948 18.4138 11.6067 14.8723C13.8543 11.3313 17.5729 5.11531 16.7309 2.2382Z" fill="url(#paint0_linear_63_974)"/>
<path d="M4.91064 32.6956C8.10996 32.4651 11.7403 30.9009 14.9455 30.7743C16.9561 30.6949 18.9675 30.562 20.9803 30.6264C21.9109 30.6559 23.2948 33.1371 24.1973 33.0223C24.7826 32.9479 24.3965 30.5438 24.3724 29.9217C24.352 29.3921 24.3071 28.8648 24.3847 28.3371C24.6633 26.4348 25.7096 24.6288 26.1447 22.7266C26.6484 20.5262 26.9887 18.2832 27.1978 16.0361C27.4197 13.6524 27.5137 11.2174 27.2015 8.83691C27.0672 7.81046 26.8839 6.76813 26.4764 5.8102C26.1593 5.06465 25.3902 3.60121 24.4074 3.7133C24.0466 3.75459 23.7236 3.9597 23.4536 4.20338C22.9246 4.68121 22.5561 5.31741 22.3124 5.98764C21.8101 7.3703 21.821 8.85914 21.7244 10.3076C21.6246 11.801 21.2176 13.1841 20.8827 14.6335C20.2611 17.3266 19.527 20.4963 17.7628 22.7039C17.3336 23.2412 16.6883 23.6759 16.0036 23.611C15.6524 23.5774 15.3244 23.4159 15.0377 23.2103C14.0045 22.4693 13.479 21.1905 13.2998 19.9318C12.9327 17.3525 13.2091 14.5073 13.8983 12.007C14.3026 10.5395 15.0494 9.22534 15.5059 7.79049C15.9882 6.27351 16.6425 3.26406 14.504 2.6864C13.641 2.45316 12.7222 2.89423 12.0774 3.51319C9.68533 5.80703 8.06957 9.21716 6.68612 12.174C5.83763 13.9868 5.01862 15.8609 4.49636 17.7986C4.18237 18.9634 4.21596 20.1242 4.24909 21.3271C4.34165 24.6901 4.53721 29.3617 4.91064 32.6956Z" fill="url(#paint1_linear_63_974)"/>
<path d="M23.823 34.8687C24.0957 34.9517 24.4865 35.6908 24.6378 35.9035C25.2373 36.7474 25.7563 37.6557 26.1448 38.6161C27.1919 41.204 27.0401 44.0423 25.0759 46.1622C25.0527 46.1872 25.0291 46.2121 25.0059 46.2371C24.9 46.3482 24.7896 46.4565 24.7033 46.583C24.461 46.9381 24.4033 47.383 24.1738 47.7471C23.9575 48.0913 23.6389 48.4132 23.3299 48.6731C22.6032 49.2852 21.6353 49.7106 20.6687 49.6154C20.3365 49.5827 20.0197 49.4648 19.7075 49.3478C18.3518 48.8399 16.8799 48.2609 16.1609 46.9177C16.2427 47.071 15.8696 47.6945 15.7756 47.8215C15.5502 48.1271 15.2738 48.26 14.9253 48.3942C13.7741 48.8381 12.5212 49.1945 11.4178 49.7451C10.6552 50.038 10.0117 50.3164 9.23597 50.0625C8.78425 49.9147 8.32662 49.785 7.87989 49.6217C7.0437 49.3165 5.65261 48.7824 5.65261 47.6999C5.65261 46.0262 4.25471 41.0054 7.60948 35.9846C10.9624 30.9657 23.8121 34.8655 23.823 34.8687Z" fill="#D8D6D0"/>
<path d="M23.8947 30.7431C24.2131 30.8402 24.6698 31.7072 24.846 31.9564C25.5459 32.946 26.1516 34.0109 26.6055 35.1366C27.8281 38.1711 27.6505 41.4988 25.3579 43.9836C25.3307 44.0126 25.3031 44.0421 25.2759 44.0712C25.1522 44.2015 25.0236 44.3286 24.9226 44.477C24.6394 44.8937 24.5724 45.4143 24.3047 45.8419C24.0519 46.245 23.68 46.6227 23.3194 46.9277C22.471 47.6454 21.3407 48.1438 20.2128 48.0326C19.825 47.9944 19.4553 47.856 19.0907 47.7189C17.5079 47.1238 15.7893 46.4443 14.9499 44.8696C15.0455 45.0489 14.6097 45.7802 14.5 45.9295C14.2368 46.2877 13.9139 46.4434 13.5075 46.6009C12.1635 47.1215 10.7008 47.5392 9.41245 48.1846C8.52231 48.5283 7.77125 48.8546 6.86526 48.5569C6.33797 48.3835 5.80345 48.2314 5.28205 48.0403C4.30585 47.6826 2.68184 47.0562 2.68184 45.787C2.68184 43.8247 1.05016 37.9382 4.9663 32.0517C8.88064 26.1671 23.8825 30.7394 23.8947 30.7431Z" fill="url(#paint2_linear_63_974)"/>
<path d="M3.09987 29.0112C2.94504 29.5142 2.75026 29.9981 2.58317 30.4748C2.19178 31.3529 2.21674 31.6305 2.0265 32.2491C1.59016 33.6697 0.781966 34.8648 0.808755 36.2409C0.828279 37.2583 1.68099 37.7975 2.61042 37.9205C3.77323 38.0738 4.21818 31.0295 10.8927 31.0295C17.5671 31.0295 19.6944 32.4546 22.8863 34.2335C23.6273 34.6462 24.9041 35.6626 25.5774 36.1479C28.5015 38.257 27.2111 31.865 26.7629 30.6948C26.3389 29.5872 26.1945 28.5141 25.5452 27.4727C24.9404 26.5021 24.1499 25.6566 23.2509 24.9527C21.3675 23.4786 19.0401 22.62 16.6904 22.2554C12.3756 21.5855 6.86664 22.4735 4.23953 26.3465C3.70648 27.1325 3.38864 28.0737 3.09987 29.0112Z" fill="#E6D59A"/>
<defs>
<linearGradient id="paint0_linear_63_974" x1="13.2162" y1="23.5239" x2="31.8146" y2="-21.8647" gradientUnits="userSpaceOnUse">
<stop offset="0.1599" stop-color="#BFAB8D"/>
<stop offset="0.5078" stop-color="#E7E1D2"/>
<stop offset="0.7297" stop-color="#CCBFA6"/>
</linearGradient>
<linearGradient id="paint1_linear_63_974" x1="26.1014" y1="17.5063" x2="5.18753" y2="18.4519" gradientUnits="userSpaceOnUse">
<stop offset="0.1599" stop-color="#BFAB8D"/>
<stop offset="0.5078" stop-color="#E7E1D2"/>
<stop offset="0.7297" stop-color="#CCBFA6"/>
</linearGradient>
<linearGradient id="paint2_linear_63_974" x1="33.1371" y1="41.1886" x2="-1.6354" y2="37.5444" gradientUnits="userSpaceOnUse">
<stop stop-color="#94938C"/>
<stop offset="0.2296" stop-color="#EDEBE1"/>
<stop offset="0.7988" stop-color="#EDEBE1"/>
<stop offset="1" stop-color="#94938C"/>
</linearGradient>
</defs>
</svg>
