<svg width="24" height="42" viewBox="0 0 24 42" fill="none" xmlns="http://www.w3.org/2000/svg">
<path d="M13.822 3.52191C14.3503 1.78145 16.1746 2.00071 16.7913 3.56957C17.9837 6.60243 17.3716 10.008 16.7586 13.0971C16.4746 14.5275 15.927 19.8188 13.8804 19.9913C11.8499 20.1624 8.13688 15.4558 9.82588 12.8338C10.7422 11.4116 11.7441 10.0329 12.497 8.51538C13.3157 6.86572 13.3047 5.2274 13.822 3.52191Z" fill="url(#paint0_linear_63_988)"/>
<path d="M3.30158 26.8269C3.36717 26.8636 3.57668 26.3971 3.76479 26.4175C4.01029 26.4439 4.31636 26.3586 4.56186 26.3336C5.40995 26.2483 6.25938 26.1743 7.10929 26.1103C9.47044 25.9329 11.8425 25.8249 14.211 25.8725C15.8584 25.9057 17.5309 25.9928 19.1464 26.3363C20.1444 26.5482 21.4575 26.8636 22.0678 27.7676C22.0678 27.7676 20.6927 22.25 21.6775 17.9998C22.6622 13.7496 23.9744 2.30729 21.3491 1.98011C19.6989 1.77454 18.4551 5.59816 18.0246 6.66184C16.8832 9.4826 15.9896 12.4976 15.1802 15.4608C15.1574 15.5434 15.1342 15.6283 15.0837 15.6977C14.6405 16.3085 13.1024 16.5508 12.508 16.1424C12.0106 15.8002 11.8876 15.1327 11.8065 14.5355C11.6626 13.4759 11.5187 12.4163 11.3748 11.3567C11.0327 8.83912 10.6884 6.30517 10.7494 3.75805C10.7662 3.05876 11.566 -0.502574 9.86394 0.345557C7.00451 1.77 5.37394 5.7098 4.58005 8.53736C3.50697 12.3578 3.46736 16.446 3.31933 20.3858C3.25146 22.1919 3.16084 24.0229 3.27881 25.829C3.30204 26.182 3.2073 26.7742 3.30158 26.8269Z" fill="url(#paint1_linear_63_988)"/>
<path d="M4.46283 25.6666C5.34117 25.0591 6.51757 24.9866 7.53768 24.7829C9.07396 24.4757 10.6239 24.2199 12.1897 24.1255C15.6408 23.9168 19.4363 24.5488 21.7555 27.352C22.573 28.3396 23.1477 29.5223 23.4358 30.7699C23.7598 32.1744 23.4985 33.0818 23.0505 34.4088C22.6397 35.625 22.1036 36.942 21.4411 38.0435C20.7227 39.2376 19.5735 40.2715 18.1286 40.2506C16.5632 40.2279 15.0333 39.6164 13.9877 38.4314C13.9327 38.3693 13.8764 38.3035 13.7991 38.2722C13.7069 38.235 13.6029 38.2545 13.5065 38.2767C11.4023 38.758 9.29299 40.1318 7.35184 41.0604C6.42398 41.5041 5.89373 41.6393 4.95405 41.1466C3.78218 40.5319 2.66527 39.7761 1.79738 38.7776C-0.769457 35.8242 0.208834 31.6282 2.08546 28.5828C2.67798 27.6214 3.41184 26.5072 4.29971 25.7895C4.35242 25.746 4.40694 25.7052 4.46283 25.6666Z" fill="url(#paint2_linear_63_988)"/>
<path d="M2.34948 23.011C2.21336 23.455 2.0424 23.8823 1.89588 24.3027C1.55218 25.0777 1.57391 25.3229 1.40703 25.8691C1.02399 27.1227 0.313968 28.1778 0.337484 29.3924C0.354669 30.2904 1.10358 30.7667 1.91986 30.8747C2.941 31.01 3.33172 24.7926 9.19356 24.7926C15.0554 24.7926 16.9236 26.0507 19.7265 27.6207C20.3773 27.9853 21.4988 28.882 22.0899 29.3106C24.6577 31.1721 23.5244 25.5299 23.1314 24.497C22.7592 23.5195 22.6322 22.5724 22.0619 21.653C21.531 20.7963 20.8368 20.0498 20.0467 19.4287C18.3929 18.1275 16.3488 17.3702 14.2853 17.0478C10.496 16.4566 5.65804 17.2408 3.35075 20.6587C2.88224 21.3533 2.60273 22.1838 2.34948 23.011Z" fill="#E6D59A"/>
<defs>
<linearGradient id="paint0_linear_63_988" x1="11.1069" y1="19.273" x2="24.669" y2="-14.3305" gradientUnits="userSpaceOnUse">
<stop offset="0.1599" stop-color="#BFAB8D"/>
<stop offset="0.5078" stop-color="#E7E1D2"/>
<stop offset="0.7297" stop-color="#CCBFA6"/>
</linearGradient>
<linearGradient id="paint1_linear_63_988" x1="22.2163" y1="16.2722" x2="4.46166" y2="12.8918" gradientUnits="userSpaceOnUse">
<stop offset="0.1599" stop-color="#BFAB8D"/>
<stop offset="0.5078" stop-color="#E7E1D2"/>
<stop offset="0.7297" stop-color="#CCBFA6"/>
</linearGradient>
<linearGradient id="paint2_linear_63_988" x1="-5.02294" y1="32.7365" x2="28.3154" y2="32.8212" gradientUnits="userSpaceOnUse">
<stop stop-color="#94938C"/>
<stop offset="0.2296" stop-color="#EDEBE1"/>
<stop offset="0.7988" stop-color="#EDEBE1"/>
<stop offset="1" stop-color="#94938C"/>
</linearGradient>
</defs>
</svg>
