<svg width="25" height="43" viewBox="0 0 25 43" fill="none" xmlns="http://www.w3.org/2000/svg">
<path d="M20.044 2.98013C20.5808 1.24561 18.9539 0.429574 17.5684 1.39476C14.8901 3.26031 13.4924 6.42289 12.2722 9.32343C11.707 10.6667 9.20223 15.3594 10.7936 16.6229C12.3726 17.8764 18.0646 16.0004 18.1363 12.899C18.1751 11.2162 18.1194 9.52336 18.3463 7.85095C18.5928 6.03346 19.5176 4.6793 20.044 2.98013Z" fill="url(#paint0_linear_63_1000)"/>
<path d="M4.19245 26.9056C3.2304 20.5979 3.24581 12.9871 6.04896 7.14935C6.70031 5.79243 7.58708 4.5512 8.64348 3.47964C9.05806 3.05909 11.5274 0.533978 12.0467 1.1555C12.5761 1.78927 12.0975 3.20562 12.0036 3.91016C11.8467 5.08924 11.6979 6.26924 11.575 7.4524C11.326 9.85275 10.706 12.4536 11.3546 14.8422C11.4975 15.368 11.8277 15.8879 12.3456 16.0562C12.6192 16.1451 12.9172 16.127 13.1979 16.0662C14.9751 15.681 16.261 13.889 17.3537 12.5743C18.9163 10.6948 19.813 8.58339 20.5936 6.28557C20.9728 5.16955 21.4065 4.08528 22.3595 3.34172C22.589 3.16252 23.0521 2.74696 23.4059 2.8318C24.5707 3.11035 24.1683 6.25336 24.1261 6.96789C23.7991 12.5244 21.5117 20.0417 21.5117 20.0417C21.5117 20.0417 20.5315 26.2514 21.5117 28.2127C22.4924 30.1739 5.49969 30.1738 4.19245 26.9056Z" fill="url(#paint1_linear_63_1000)"/>
<path d="M3.20881 27.8865C3.20881 27.8861 5.81845 24.9443 11.6897 24.9443C17.5609 24.9443 21.8013 26.906 22.7797 29.521C23.7581 32.136 24.0845 39.3282 20.4965 40.636C19.3615 41.0498 18.1137 41.1523 17.0905 40.4191C16.2153 39.792 15.8694 38.6394 14.5533 39.0668C13.9796 39.2529 13.5065 39.6563 13.0203 40.0138C10.8824 41.5857 7.24911 43.2161 4.81424 41.3606C1.48565 38.8241 0.310327 31.155 3.20881 27.8865Z" fill="url(#paint2_linear_63_1000)"/>
<path d="M2.86599 24.5488C2.72918 24.9919 2.5574 25.4182 2.41013 25.8377C2.06469 26.6111 2.08649 26.8558 1.91877 27.4008C1.53378 28.6517 0.820199 29.7046 0.843835 30.9166C0.861107 31.8128 1.61377 32.288 2.43419 32.3959C3.46051 32.5309 3.85326 26.3266 9.74485 26.3266C15.6364 26.3266 17.514 27.582 20.3312 29.1487C20.9853 29.5125 22.1125 30.4074 22.7066 30.835C25.2874 32.6926 24.1483 27.0624 23.7533 26.0316C23.3793 25.0562 23.2516 24.1111 22.6784 23.1936C22.1448 22.3387 21.4471 21.5943 20.653 20.9741C18.9908 19.6756 16.9364 18.9199 14.8624 18.5982C11.0539 18.0083 6.19134 18.7907 3.87235 22.2014C3.401 22.8946 3.12053 23.7233 2.86599 24.5488Z" fill="#E6D59A"/>
<defs>
<linearGradient id="paint0_linear_63_1000" x1="13.4666" y1="17.5182" x2="20.6266" y2="-17.8961" gradientUnits="userSpaceOnUse">
<stop offset="0.1599" stop-color="#BFAB8D"/>
<stop offset="0.5078" stop-color="#E7E1D2"/>
<stop offset="0.7297" stop-color="#CCBFA6"/>
</linearGradient>
<linearGradient id="paint1_linear_63_1000" x1="-1.32548" y1="15.2509" x2="23.6075" y2="15.341" gradientUnits="userSpaceOnUse">
<stop offset="0.1599" stop-color="#BFAB8D"/>
<stop offset="0.5078" stop-color="#E7E1D2"/>
<stop offset="0.7297" stop-color="#CCBFA6"/>
</linearGradient>
<linearGradient id="paint2_linear_63_1000" x1="-3.63834" y1="33.5181" x2="28.855" y2="33.6352" gradientUnits="userSpaceOnUse">
<stop stop-color="#94938C"/>
<stop offset="0.2296" stop-color="#EDEBE1"/>
<stop offset="0.7988" stop-color="#EDEBE1"/>
<stop offset="1" stop-color="#94938C"/>
</linearGradient>
</defs>
</svg>
