<svg width="25" height="40" viewBox="0 0 25 40" fill="none" xmlns="http://www.w3.org/2000/svg">
<path d="M9.36182 36.9412C9.06711 38.7944 10.2523 39.2853 11.1818 38.0336C12.9786 35.6142 13.8111 32.15 14.5311 28.9857C14.8643 27.5203 16.4031 22.2927 15.2216 21.3445C14.0491 20.4041 10.1299 23.445 10.2287 26.579C10.2822 28.2789 10.4028 29.9701 10.3235 31.6981C10.2373 33.5759 9.65109 35.1256 9.36182 36.9412Z" fill="url(#paint0_linear_63_1110)"/>
<path d="M21.8392 13.6319C21.8392 13.6319 20.5312 17.2263 20.5312 21.1472C20.5312 25.0681 20.858 29.9696 18.5694 33.564C16.2807 37.1584 15.6268 38.7921 15.6268 38.7921C15.6268 38.7921 13.6649 41.0793 12.6842 38.4655C12.6842 38.4655 14.9728 30.6232 13.6649 26.7023C12.357 22.7813 11.0491 24.088 10.7223 24.7416C10.3956 25.3951 5.81784 32.9104 5.16388 34.8711C4.50992 36.8318 3.52922 38.7921 2.87526 38.7921C2.2213 38.7921 1.24059 37.1584 0.58663 34.2176C-0.0673291 31.2768 0.586627 28.0094 1.89455 25.7217C3.20246 23.4345 4.51038 13.3049 4.51038 11.6712C4.51038 10.0375 20.2045 12.9783 21.8392 13.6319Z" fill="url(#paint1_linear_63_1110)"/>
<path d="M14.2733 3.38292C14.5834 3.30969 14.9043 3.10762 15.277 2.86305C16.2889 2.19807 17.3398 1.5566 18.5071 1.23338C19.6745 0.910157 20.9888 0.938184 22.0279 1.55977C22.7587 1.99691 23.3 2.68947 23.7457 3.41367C24.4429 4.54698 24.9575 5.86383 24.7974 7.18385C24.6152 8.68921 24.0163 10.1715 23.402 11.5467C23.0294 12.3807 22.7188 13.3323 22.0474 13.9851C21.264 14.7464 19.947 14.8535 18.9147 14.9977C16.6942 15.3074 14.4646 15.0298 12.2966 14.5167C10.1414 14.0063 7.91407 13.4404 5.81821 12.7288C5.44147 12.6009 5.0652 12.4531 4.74966 12.2117C3.86517 11.534 3.68336 9.99385 3.47074 8.97762C3.14795 7.43293 3.34517 5.83581 3.97896 4.39599C4.795 2.54209 6.35544 0.905635 8.42726 0.587837C9.91019 0.36045 11.2267 0.663784 12.2246 1.80976C12.5551 2.18949 12.818 2.63069 13.1752 2.98737C13.5688 3.38066 13.9138 3.46791 14.2733 3.38292Z" fill="url(#paint2_linear_63_1110)"/>
<path d="M4.63397 14.8041C4.52647 14.5147 4.38904 14.2326 4.27201 13.9568C3.99442 13.4408 4.0171 13.2915 3.88511 12.9357C3.58212 12.1194 2.99971 11.3913 3.04008 10.6414C3.06956 10.0872 3.71048 9.87014 4.40264 9.8888C5.26807 9.91155 5.57787 10.226 5.97974 10.7898C7.01799 12.2463 9.03779 13.0909 11.0467 13.4631C13.663 13.9477 17.0059 14.4446 19.4017 13.7648C19.9578 13.6069 20.9212 13.1687 21.4278 12.9648C23.63 12.0798 22.5772 15.4562 22.2275 16.055C21.8964 16.6215 21.773 17.1948 21.2759 17.7049C20.8128 18.18 20.2131 18.57 19.535 18.8721C18.1149 19.5055 16.3745 19.7608 14.6246 19.7449C11.4114 19.7153 7.3346 18.7242 5.4409 16.3658C5.05626 15.8866 4.834 15.3433 4.63397 14.8041Z" fill="#E6D59A"/>
<defs>
<linearGradient id="paint0_linear_63_1110" x1="13.2774" y1="20.9769" x2="13.2533" y2="58.0462" gradientUnits="userSpaceOnUse">
<stop offset="0.1599" stop-color="#BFAB8D"/>
<stop offset="0.5078" stop-color="#E7E1D2"/>
<stop offset="0.7297" stop-color="#CCBFA6"/>
</linearGradient>
<linearGradient id="paint1_linear_63_1110" x1="19.9439" y1="25.4156" x2="3.17998" y2="25.4762" gradientUnits="userSpaceOnUse">
<stop stop-color="#BFAB8D"/>
<stop offset="0.5078" stop-color="#E7E1D2"/>
<stop offset="1" stop-color="#CCBFA6"/>
</linearGradient>
<linearGradient id="paint2_linear_63_1110" x1="31.1731" y1="7.75824" x2="-2.84322" y2="7.88148" gradientUnits="userSpaceOnUse">
<stop stop-color="#94938C"/>
<stop offset="0.2614" stop-color="#EDEBE1"/>
<stop offset="0.7687" stop-color="#EDEBE1"/>
<stop offset="1" stop-color="#94938C"/>
</linearGradient>
</defs>
</svg>
