<svg width="28" height="48" viewBox="0 0 28 48" fill="none" xmlns="http://www.w3.org/2000/svg">
<path d="M11.7333 41.665C11.5313 43.6232 12.8019 44.0686 13.7035 42.704C15.4471 40.0666 16.1199 36.3898 16.6919 33.0338C16.957 31.4795 18.268 25.9156 16.9752 24.9905C15.6923 24.0731 11.7601 27.4844 12.0438 30.7609C12.1977 32.5385 12.422 34.303 12.4383 36.1174C12.4569 38.0893 11.9317 39.7462 11.7333 41.665Z" fill="url(#paint0_linear_63_1093)"/>
<path d="M23.3727 19.3951C22.6869 21.3554 22.134 23.4016 21.8149 25.4542C21.6003 26.8356 21.632 28.0634 21.8417 29.4308C22.1944 31.7285 22.2198 34.1266 22.1209 36.4444C21.9665 40.0595 20.2331 42.7823 18.8474 46.0341C18.3381 47.2289 17.1602 47.856 16.0927 46.7566C14.7383 45.3625 15.1037 42.4322 15.0496 40.6639C14.9761 38.2435 14.9271 35.8064 14.4432 33.4246C14.2349 32.3992 13.9421 31.377 13.407 30.4779C12.875 29.5838 11.8919 29.1479 10.9501 29.7918C9.69594 30.6491 9.41317 32.5273 8.98015 33.8642C8.57392 35.118 8.20581 36.384 7.85041 37.6532C7.3484 39.446 6.88406 41.2493 6.40566 43.048C6.20731 43.7927 5.56005 45.5419 4.46571 44.7817C4.09624 44.5247 3.91377 44.0797 3.7599 43.6569C3.25472 42.2664 2.85121 40.8419 2.4486 39.4188C1.90892 37.512 1.41235 35.6107 1.29616 33.6249C1.13775 30.9175 2.20395 28.2424 2.72502 25.6217C3.27877 22.8367 3.62464 20.0104 3.75718 17.1741C3.7658 16.9874 3.78033 16.7844 3.90606 16.6464C4.07627 16.4602 4.36812 16.4747 4.61821 16.5034C7.69154 16.8557 10.7712 17.1423 13.8414 17.5264C15.9189 17.7848 17.9991 18.0582 20.0584 18.4378C20.9662 18.6049 22.6696 18.6917 23.3727 19.3951Z" fill="url(#paint1_linear_63_1093)"/>
<path d="M25.7896 15.1402C25.8922 13.9117 25.8641 12.6668 26.098 11.4533C26.4631 9.5592 27.4192 7.90906 27.2839 5.90228C26.9578 1.07091 20.208 0.697451 16.8142 2.03546C15.4031 2.59156 14.824 2.06635 13.6376 1.3167C12.3522 0.504356 10.8357 0.0791016 9.31641 0.0791016C7.57911 0.0791016 5.66195 0.573414 4.1781 1.48662C1.98298 2.83781 1.9848 5.0545 1.83401 7.38113C1.66687 9.95447 1.72636 12.6055 2.57707 15.0662C2.83732 15.8195 3.18205 16.5596 3.72436 17.1434C4.49513 17.9734 5.4771 18.0829 6.51857 18.3228C7.94019 18.6504 9.37772 18.9275 10.8107 19.1988C13.6208 19.7308 16.4572 20.1638 19.3164 20.3073C20.6722 20.3755 22.0761 20.2378 23.2802 19.6104C25.0243 18.7022 25.6347 16.9939 25.7896 15.1402Z" fill="url(#paint2_linear_63_1093)"/>
<path d="M2.53885 18.7005C2.40138 18.3139 2.2249 17.9368 2.07519 17.5683C1.71815 16.8799 1.74901 16.6793 1.5807 16.2038C1.19372 15.1124 0.441536 14.1431 0.50142 13.1379C0.545426 12.3946 1.3829 12.0983 2.28479 12.116C3.41306 12.1382 3.81364 12.5566 4.33218 13.3076C5.67186 15.2494 8.29632 16.3608 10.9113 16.84C14.3174 17.4639 18.6699 18.097 21.7997 17.1626C22.5265 16.9457 23.7859 16.349 24.4487 16.0713C27.3281 14.8642 25.9231 19.3985 25.4613 20.204C25.0239 20.9664 24.8579 21.736 24.2046 22.4239C23.5962 23.0652 22.8109 23.5934 21.924 24.005C20.0667 24.8672 17.7952 25.227 15.5142 25.2225C11.3259 25.2143 6.02073 23.926 3.57547 20.7844C3.0787 20.1468 2.79471 19.4207 2.53885 18.7005Z" fill="#E6D59A"/>
<defs>
<linearGradient id="paint0_linear_63_1093" x1="14.9175" y1="24.7294" x2="17.0284" y2="63.5577" gradientUnits="userSpaceOnUse">
<stop offset="0.1599" stop-color="#BFAB8D"/>
<stop offset="0.5078" stop-color="#E7E1D2"/>
<stop offset="0.7297" stop-color="#CCBFA6"/>
</linearGradient>
<linearGradient id="paint1_linear_63_1093" x1="20.8447" y1="33.2999" x2="3.3412" y2="29.8955" gradientUnits="userSpaceOnUse">
<stop stop-color="#BFAB8D"/>
<stop offset="0.5078" stop-color="#E7E1D2"/>
<stop offset="1" stop-color="#CCBFA6"/>
</linearGradient>
<linearGradient id="paint2_linear_63_1093" x1="31.3742" y1="13.2213" x2="-1.96362" y2="6.73603" gradientUnits="userSpaceOnUse">
<stop stop-color="#94938C"/>
<stop offset="0.2114" stop-color="#EDEBE1"/>
<stop offset="0.847" stop-color="#EDEBE1"/>
<stop offset="1" stop-color="#94938C"/>
</linearGradient>
</defs>
</svg>
