<svg width="29" height="51" viewBox="0 0 29 51" fill="none" xmlns="http://www.w3.org/2000/svg">
<path d="M19.6073 1.14714C20.9209 1.23636 21.935 1.62083 23.0135 2.35988C23.3054 2.56004 23.5818 2.80141 23.5242 3.08762C23.2554 4.42443 13.3746 3.35027 13.4694 2.17783C13.5284 1.48135 16.7417 1.29432 17.4612 1.21734C18.2732 1.12994 18.975 1.10458 19.6073 1.14714Z" fill="#D8D6D0"/>
<path d="M9.43923 46.4987C8.76259 48.6607 10.3604 49.5427 11.8445 48.2618C14.7138 45.7853 16.3743 41.8125 17.8348 38.1734C18.511 36.4882 21.4143 30.5624 19.8865 29.1302C18.3706 27.7092 12.428 30.4151 12.1235 34.2179C11.9581 36.2806 11.889 38.3493 11.5332 40.4129C11.1461 42.6556 10.1022 44.3802 9.43923 46.4987Z" fill="url(#paint0_linear_63_1076)"/>
<path d="M26.2287 21.2416C26.0408 22.0162 25.8742 22.8045 25.8374 22.9569C25.5219 24.2652 25.2482 25.5838 25.0285 26.9116C24.8492 27.9965 24.7058 29.0879 24.5991 30.1824C24.4956 31.2433 24.586 32.4113 24.384 33.4513C24.1847 34.4764 23.8193 35.5518 23.4739 36.542C22.4367 39.5156 20.8656 42.2827 19 44.812C18.0641 46.0807 17.0518 47.2928 15.9833 48.4521C15.3269 49.1646 13.9316 51.2737 12.7718 50.3975C12.3365 50.0685 12.1617 49.4818 12.1899 48.9368C12.218 48.3918 12.4178 47.8727 12.607 47.3608C14.065 43.4116 15.4513 38.5218 14.6315 34.2849C14.5462 33.8434 14.4127 33.3873 14.0959 33.0683C13.6806 32.6504 13.0156 32.5565 12.4473 32.713C11.879 32.8696 11.3942 33.2412 10.9711 33.6514C9.51903 35.0604 8.48727 37.0411 7.59986 38.8426C6.92806 40.2066 6.43465 41.6601 6.15095 43.1543C5.87951 44.5846 6.11009 46.2845 5.53543 47.6267C5.2136 48.3791 4.49596 49.0239 3.67755 49.0003C3.0407 48.9822 2.47693 48.5724 2.05706 48.0932C0.510101 46.3276 0.213687 43.5142 0.123357 41.263C0.00987757 38.426 0.41387 35.599 0.853717 32.8042C1.45244 28.9994 2.22182 25.2203 3.08109 21.4663C3.11423 21.3206 3.58177 18.9524 3.67618 18.9551C3.67618 18.9551 26.5637 19.5899 26.7739 19.5958C26.6567 19.594 26.4302 20.4099 26.2287 21.2416Z" fill="url(#paint1_linear_63_1076)"/>
<path d="M8.32354 0.971527C9.51135 0.903184 10.4783 1.16509 11.5594 1.77375C11.852 1.93841 12.1374 2.14665 12.1315 2.43883C12.1046 3.80567 3.10605 3.91805 3.00381 2.73605C2.94565 2.03336 5.78659 1.46184 6.41685 1.2981C7.12891 1.11417 7.75189 1.00455 8.32354 0.971527Z" fill="#D8D6D0"/>
<path d="M24.2771 2.02043C25.2311 2.11572 26.1296 2.4828 26.9037 3.28956C27.9012 4.3291 28.4007 5.77111 28.5242 7.20586C28.7889 10.2841 28.2618 13.9449 27.4922 16.927C27.2479 17.8735 27.2234 19.8627 26.5732 20.5932C24.55 22.8661 20.1045 21.7603 17.4144 21.5738C14.3333 21.3601 11.0161 21.258 8.25553 20.5932C6.42803 20.5016 3.07224 20.9059 2.51741 18.4906C1.88176 15.7223 1.48992 12.8913 1.35961 10.054C1.26154 7.93413 0.951886 2.69607 4.0012 2.28724C4.44752 2.22735 5.20076 2.7301 5.64799 2.83174C6.58104 3.04318 7.49138 3.01459 8.41761 2.76866C9.55679 2.46646 10.6147 1.92197 11.7067 1.47866C11.9441 1.38246 12.1911 1.28944 12.4472 1.29625C13.0306 1.31213 13.4592 1.81715 13.926 2.16744C15.8906 3.64303 19.4121 2.87756 21.5811 2.31082C22.4914 2.07306 23.4076 1.93376 24.2771 2.02043Z" fill="url(#paint2_linear_63_1076)"/>
<path d="M3.08278 20.5105C2.96985 19.9965 2.81565 19.4979 2.68911 19.0093C2.37163 18.1019 2.41925 17.827 2.28092 17.1946C1.96345 15.7429 1.25728 14.4849 1.39698 13.1152C1.50038 12.1027 2.39339 11.6349 3.32859 11.5891C4.49872 11.5319 4.88288 12.0691 5.36318 13.049C6.60451 15.5818 9.24456 16.8879 11.9241 17.3362C15.4141 17.9196 19.8864 18.4422 23.21 16.9315C23.9814 16.5808 25.3361 15.673 26.0464 15.2443C29.1309 13.382 27.3204 19.6481 26.7784 20.7781C26.2654 21.8474 26.0328 22.9049 25.3012 23.8898C24.6196 24.8076 23.7633 25.5856 22.8099 26.2135C20.8139 27.5282 18.426 28.1924 16.0572 28.363C11.7068 28.676 6.29565 27.3377 3.99892 23.2615C3.53178 22.4327 3.29322 21.4686 3.08278 20.5105Z" fill="#E6D59A"/>
<defs>
<linearGradient id="paint0_linear_63_1076" x1="17.2088" y1="28.2283" x2="9.47329" y2="72.4863" gradientUnits="userSpaceOnUse">
<stop offset="0.1599" stop-color="#BFAB8D"/>
<stop offset="0.5078" stop-color="#E7E1D2"/>
<stop offset="0.7297" stop-color="#CCBFA6"/>
</linearGradient>
<linearGradient id="paint1_linear_63_1076" x1="24.1855" y1="34.7255" x2="1.64596" y2="34.8069" gradientUnits="userSpaceOnUse">
<stop stop-color="#BFAB8D"/>
<stop offset="0.5078" stop-color="#E7E1D2"/>
<stop offset="1" stop-color="#CCBFA6"/>
</linearGradient>
<linearGradient id="paint2_linear_63_1076" x1="34.304" y1="11.5905" x2="-4.57322" y2="11.731" gradientUnits="userSpaceOnUse">
<stop stop-color="#94938C"/>
<stop offset="0.2296" stop-color="#EDEBE1"/>
<stop offset="0.7988" stop-color="#EDEBE1"/>
<stop offset="1" stop-color="#94938C"/>
</linearGradient>
</defs>
</svg>
