<svg width="25" height="42" viewBox="0 0 25 42" fill="none" xmlns="http://www.w3.org/2000/svg">
<path d="M10.7172 3.54726C10.1952 1.80826 8.3927 2.02733 7.78337 3.59487C6.60518 6.62518 7.20996 10.0279 7.81565 13.1144C8.09622 14.5436 8.63734 19.8305 10.6595 20.0028C12.6657 20.1738 16.3344 15.4712 14.6656 12.8514C13.7602 11.4303 12.7703 10.0528 12.0264 8.53654C11.217 6.88872 11.2284 5.25132 10.7172 3.54726Z" fill="url(#paint0_linear_63_994)"/>
<path d="M21.1707 26.8545C21.1054 26.8913 20.8966 26.425 20.7092 26.4454C20.4647 26.4717 20.1597 26.3865 19.9152 26.3615C19.0703 26.2763 18.224 26.2023 17.3773 26.1384C15.0251 25.961 12.6619 25.8531 10.3024 25.9007C8.66121 25.9338 6.99502 26.0209 5.38556 26.3642C4.39139 26.5761 3.08322 26.8913 2.4752 27.7947C2.4752 27.7947 3.84507 22.2801 2.86405 18.0322C1.88349 13.7843 0.575778 2.34814 3.19121 2.02114C4.83515 1.81568 6.07435 5.63726 6.50315 6.70036C7.64025 9.5196 8.53052 12.5329 9.33684 15.4946C9.35953 15.5771 9.38266 15.6619 9.43303 15.7313C9.87453 16.3418 11.4073 16.584 11.999 16.1758C12.4945 15.8338 12.617 15.1667 12.6978 14.5698C12.8412 13.5108 12.9845 12.4518 13.1279 11.3927C13.4687 8.87647 13.8118 6.34388 13.7509 3.79813C13.7342 3.09922 12.9374 -0.460195 14.633 0.38748C17.4817 1.81116 19.1061 5.74882 19.897 8.57486C20.9661 12.3932 21.0055 16.4792 21.153 20.4169C21.2206 22.222 21.3109 24.0521 21.1934 25.8572C21.1698 26.2105 21.2642 26.8024 21.1707 26.8545Z" fill="url(#paint1_linear_63_994)"/>
<path d="M20.074 25.6949C19.1976 25.0875 18.0238 25.0149 17.006 24.8112C15.4731 24.504 13.9266 24.2482 12.3647 24.1538C8.92134 23.9451 5.13427 24.5771 2.82023 27.3803C2.0046 28.3679 1.43108 29.5506 1.14364 30.7982C0.820377 32.2028 1.08107 33.1101 1.5281 34.4371C1.93795 35.6533 2.47295 36.9703 3.13397 38.0718C3.85076 39.2659 4.99735 40.2998 6.43909 40.2789C8.00098 40.2562 9.52751 39.6447 10.5707 38.4597C10.6256 38.3976 10.6818 38.3318 10.7589 38.3005C10.8509 38.2633 10.9547 38.2828 11.0509 38.305C13.1504 38.7864 15.255 40.1601 17.1919 41.0887C18.1177 41.5324 18.6468 41.6676 19.5843 41.1749C20.7541 40.5602 21.868 39.8044 22.734 38.8059C25.2951 35.8525 24.319 31.6565 22.4465 28.6111C21.8553 27.6498 21.1231 26.5356 20.2372 25.8179C20.1837 25.7739 20.1293 25.7335 20.074 25.6949Z" fill="url(#paint2_linear_63_994)"/>
<path d="M22.1709 23.0383C22.3075 23.4824 22.479 23.9096 22.626 24.33C22.9707 25.1051 22.949 25.3502 23.1164 25.8964C23.5006 27.15 24.2129 28.2052 24.1893 29.4197C24.1721 30.3178 23.4208 30.794 22.6019 30.9021C21.5775 31.0374 21.1856 24.8199 15.3051 24.8199C9.4247 24.8199 7.55061 26.078 4.73878 27.6481C4.08595 28.0127 2.96086 28.9094 2.36792 29.338C-0.208002 31.1995 0.928885 25.5573 1.32312 24.5244C1.69649 23.5468 1.82398 22.5997 2.39605 21.6803C2.92866 20.8236 3.62503 20.0776 4.41758 19.4561C6.07664 18.1548 8.12722 17.3975 10.1973 17.0751C13.9986 16.484 18.8519 17.2681 21.1665 20.686C21.637 21.3802 21.9169 22.2111 22.1709 23.0383Z" fill="#E6D59A"/>
<defs>
<linearGradient id="paint0_linear_63_994" x1="13.3909" y1="19.2715" x2="-0.268923" y2="-14.1979" gradientUnits="userSpaceOnUse">
<stop offset="0.1599" stop-color="#BFAB8D"/>
<stop offset="0.5078" stop-color="#E7E1D2"/>
<stop offset="0.7297" stop-color="#CCBFA6"/>
</linearGradient>
<linearGradient id="paint1_linear_63_994" x1="2.32687" y1="16.3059" x2="20.0186" y2="12.9484" gradientUnits="userSpaceOnUse">
<stop offset="0.1599" stop-color="#BFAB8D"/>
<stop offset="0.5078" stop-color="#E7E1D2"/>
<stop offset="0.7297" stop-color="#CCBFA6"/>
</linearGradient>
<linearGradient id="paint2_linear_63_994" x1="29.539" y1="32.7636" x2="-3.72507" y2="32.848" gradientUnits="userSpaceOnUse">
<stop stop-color="#94938C"/>
<stop offset="0.2296" stop-color="#EDEBE1"/>
<stop offset="0.7988" stop-color="#EDEBE1"/>
<stop offset="1" stop-color="#94938C"/>
</linearGradient>
</defs>
</svg>
