<svg width="20" height="51" viewBox="0 0 20 51" fill="none" xmlns="http://www.w3.org/2000/svg">
<path d="M16.0804 20.7143C15.2784 25.9705 13.8642 31.2226 12.0232 36.2025C9.99959 41.6756 7.47122 47.149 2.55584 50.5788C2.43667 50.6618 2.30888 50.748 2.16389 50.7552C2.01617 50.7625 1.87707 50.6858 1.7588 50.5969C1.08185 50.0902 0.832644 49.1651 0.902423 48.3213C0.972203 47.4775 1.30841 46.6831 1.60203 45.8892C3.39364 41.0468 3.83089 35.7175 4.34155 30.6161C4.66508 27.3864 5.4322 23.4277 4.67188 20.208C3.85536 16.7525 15.5747 20.1005 16.0804 20.7143Z" fill="url(#paint0_linear_63_1061)"/>
<path d="M5.95825 0.730846C6.6841 0.404168 7.44121 0.39648 8.45251 0.644429C8.72618 0.711394 9.01795 0.815463 9.16657 1.05436C9.86251 2.17104 4.15042 4.31525 3.46761 3.3782C3.06346 2.82077 4.5872 1.70816 4.90617 1.43171C5.26638 1.11906 5.60846 0.88785 5.95825 0.730846Z" fill="#D8D6D0"/>
<path d="M15.9072 0.918429C16.2456 1.02011 16.5031 1.12905 16.6114 1.22392C17.1591 1.70418 17.7282 2.2153 17.9734 2.90028C18.0716 3.17491 18.0821 3.54304 17.8319 3.69375C17.7473 3.74459 17.6463 3.76003 17.548 3.7682C16.4003 3.86216 15.0724 3.11772 14.1017 2.58616C13.7423 2.38961 12.197 1.68012 12.2675 1.12224C12.3744 0.276572 14.6767 0.549384 15.9072 0.918429Z" fill="#D8D6D0"/>
<path d="M17.9065 3.02669C17.9065 3.02669 20.1934 4.66136 18.8865 8.91189C18.233 14.7971 16.2727 20.6823 16.2727 20.6823C16.2727 20.6823 15.6192 21.663 11.0455 21.663C6.47181 21.663 5.16492 21.009 4.51147 19.7011C3.85802 18.3932 2.22461 5.96884 2.22461 5.96884C2.22461 5.96884 2.55111 3.02623 3.85801 2.69948C5.16491 2.37273 6.47181 2.04551 6.79831 2.04551C7.12481 2.04551 10.0651 0.0836252 11.372 0.410833C12.6789 0.737587 15.9462 3.35344 17.9065 3.02669Z" fill="url(#paint1_linear_63_1061)"/>
<path d="M4.8666 23.558C4.72312 22.9248 4.01071 20.1272 4.01025 18.894C4.0098 17.9455 4.59144 17.729 4.92336 18.379C6.28599 21.0488 8.07453 21.178 10.4225 21.2526C13.0056 21.3345 13.9886 21.4177 15.5647 18.899C16.9459 17.32 16.9931 20.0544 16.831 20.8373C16.648 21.9527 16.4601 22.9726 16.1372 23.8824C13.2531 31.5697 6.50076 29.711 4.8666 23.558Z" fill="#E6D59A"/>
<defs>
<linearGradient id="paint0_linear_63_1061" x1="12.8561" y1="34.6817" x2="2.50236" y2="34.719" gradientUnits="userSpaceOnUse">
<stop stop-color="#BFAB8D"/>
<stop offset="0.5078" stop-color="#E7E1D2"/>
<stop offset="1" stop-color="#CCBFA6"/>
</linearGradient>
<linearGradient id="paint1_linear_63_1061" x1="22.9222" y1="10.9757" x2="-1.19936" y2="11.0627" gradientUnits="userSpaceOnUse">
<stop stop-color="#94938C"/>
<stop offset="0.2296" stop-color="#EDEBE1"/>
<stop offset="0.7988" stop-color="#EDEBE1"/>
<stop offset="1" stop-color="#94938C"/>
</linearGradient>
</defs>
</svg>
