<svg width="19" height="53" viewBox="0 0 19 53" fill="none" xmlns="http://www.w3.org/2000/svg">
<path d="M15.4443 21.7345C15.4443 21.7345 9.2251 47.2457 3.98731 51.4972C-1.25001 55.7492 1.36842 47.2453 1.36842 47.2453C1.36842 47.2453 3.33261 31.5463 3.33261 28.6027C3.33261 25.6591 2.29121 20.1465 2.29121 20.1465C2.29121 20.1465 12.3783 22.3165 15.4443 21.7345Z" fill="url(#paint0_linear_63_1049)"/>
<path d="M15.7624 2.42082C15.7624 2.42082 19.0272 4.05597 18.0479 8.63458C17.0685 13.2132 17.3948 15.8298 17.3948 15.8298C17.3948 15.8298 16.7418 23.6792 11.1916 24.006C5.64138 24.3329 2.04988 21.0626 1.72313 19.1001C1.39684 17.1377 1.39683 11.5781 1.07008 10.5966C0.743332 9.61514 -0.236008 3.40137 3.02921 2.42037C6.29443 1.43937 8.25311 1.11206 8.25311 1.11206C8.25311 1.11206 11.5179 0.131515 15.7624 2.42082Z" fill="url(#paint1_linear_63_1049)"/>
<path d="M2.66755 24.3485C2.49867 23.4701 1.66104 19.5887 1.66604 17.8759C1.67012 16.5584 2.36656 16.2558 2.76017 17.157C4.37639 20.8579 6.51426 21.0284 9.32085 21.1206C12.4089 21.222 13.5839 21.3328 15.4802 17.8282C17.1391 15.6287 17.1822 19.426 16.9847 20.5139C16.7604 22.0631 16.5307 23.4805 16.1407 24.7457C12.6559 35.4329 4.59158 32.8844 2.66755 24.3485Z" fill="#E6D59A"/>
<defs>
<linearGradient id="paint0_linear_63_1049" x1="2.16484" y1="36.4176" x2="13.7387" y2="36.4595" gradientUnits="userSpaceOnUse">
<stop stop-color="#BFAB8D"/>
<stop offset="0.5078" stop-color="#E7E1D2"/>
<stop offset="1" stop-color="#CCBFA6"/>
</linearGradient>
<linearGradient id="paint1_linear_63_1049" x1="-2.6014" y1="12.4199" x2="21.54" y2="12.507" gradientUnits="userSpaceOnUse">
<stop stop-color="#94938C"/>
<stop offset="0.2296" stop-color="#EDEBE1"/>
<stop offset="0.4283" stop-color="#EDEBE1"/>
<stop offset="0.7988" stop-color="#EDEBE1"/>
<stop offset="1" stop-color="#94938C"/>
</linearGradient>
</defs>
</svg>
