<svg width="19" height="67" viewBox="0 0 19 67" fill="none" xmlns="http://www.w3.org/2000/svg">
<path d="M15.7164 26.9722C13.8087 26.9622 11.8715 26.7868 9.967 26.6345C7.66041 26.45 4.42156 26.5629 2.31533 25.4633C2.1227 25.3626 2.05909 25.0204 1.88191 24.8994C1.47892 26.2474 1.82374 28.4076 1.90325 29.7878C2.13086 33.7334 2.30578 37.6863 2.26761 41.6392C2.24626 43.8212 2.1245 45.9877 1.92778 48.1602C1.6561 51.1603 0.640686 54.0893 0.367185 57.1202C0.175462 59.2455 0.207725 61.4062 0.623428 63.5048C0.754272 64.1647 0.944642 65.8758 1.51845 66.0335C2.27535 66.2411 3.41704 65.0799 3.79731 64.5681C5.05487 62.8766 5.37743 60.5858 6.02075 58.6259C6.74039 56.4322 7.58363 54.281 8.44502 52.1393C10.1246 47.9617 11.891 43.7948 12.9728 39.4123C13.6047 36.8518 13.886 34.2288 14.4793 31.6589C14.8418 30.0843 15.2703 28.525 15.7164 26.9722Z" fill="url(#paint0_linear_63_1039)"/>
<path d="M17.8876 8.19415C17.8876 8.19415 18.8662 2.96429 16.5774 1.33109C14.2887 -0.302107 13.3088 0.352076 13.3088 0.352076C12.3624 0.610666 11.4115 0.852932 10.4588 1.08566C8.89005 1.46856 7.19651 2.01749 5.57057 1.9753C5.24484 1.96668 4.9182 1.93038 4.59428 1.96305C2.17124 2.20531 1.77791 4.78577 1.41407 6.6762C0.947244 9.10059 0.618344 11.5567 0.424174 14.0174C0.26403 16.0494 0.185989 18.1045 0.357475 20.1387C0.48178 21.6123 0.687749 23.2954 1.55289 24.5439C2.76191 26.2882 4.97762 27.0808 6.95924 27.5367C9.47437 28.1156 12.1174 28.2517 14.6897 28.1432C16.0884 28.0838 16.4781 24.9671 16.5561 23.9781C16.9712 18.7133 17.4122 13.4531 17.8876 8.19415Z" fill="url(#paint1_linear_63_1039)"/>
<path d="M1.60244 28.4457C1.40406 27.4757 0.42803 23.1931 0.399884 21.2954C0.378093 19.836 1.11943 19.4858 1.55933 20.4757C3.36659 24.5423 5.66414 24.6866 8.67715 24.7297C11.9925 24.7773 13.2555 24.8758 15.2202 20.9525C16.9567 18.4809 17.0783 22.6868 16.8877 23.8963C16.6775 25.6175 16.4596 27.1927 16.066 28.6027C12.5391 40.5173 3.83644 37.8624 1.60244 28.4457Z" fill="#E6D59A"/>
<defs>
<linearGradient id="paint0_linear_63_1039" x1="11.0817" y1="45.4411" x2="1.98684" y2="45.4778" gradientUnits="userSpaceOnUse">
<stop stop-color="#BFAB8D"/>
<stop offset="0.5078" stop-color="#E7E1D2"/>
<stop offset="1" stop-color="#CCBFA6"/>
</linearGradient>
<linearGradient id="paint1_linear_63_1039" x1="22.5591" y1="14.1634" x2="-3.76843" y2="14.2695" gradientUnits="userSpaceOnUse">
<stop stop-color="#94938C"/>
<stop offset="0.2296" stop-color="#EDEBE1"/>
<stop offset="0.7988" stop-color="#EDEBE1"/>
<stop offset="1" stop-color="#94938C"/>
</linearGradient>
</defs>
</svg>
