<svg width="17" height="64" viewBox="0 0 17 64" fill="none" xmlns="http://www.w3.org/2000/svg">
<path d="M14.4495 23.0889C14.4495 23.0889 6.28649 27.0051 4.00089 23.7416C4.09063 26.9484 4.14592 30.157 4.18807 33.3647C4.26783 39.4644 4.30001 45.57 4.1219 51.6682C4.05935 53.81 4.0095 55.9545 3.80464 58.0886C3.7004 59.1758 3.55673 60.2599 3.35142 61.3326C3.2567 61.8263 2.97299 62.408 3.20187 62.8587C3.50643 63.458 4.29322 63.5939 4.84298 63.324C5.61663 62.9434 6.12513 62.0075 6.50901 61.285C7.43494 59.5419 8.0323 57.6152 8.57254 55.7253C11.8376 44.3024 13.9464 26.5996 14.4495 23.0889Z" fill="url(#paint0_linear_63_1029)"/>
<path d="M15.6897 0.621431C14.9185 0.225136 13.7171 0.469987 12.8721 0.462732C11.3044 0.449582 9.73666 0.454119 8.16939 0.499462C6.41827 0.550246 3.98337 0.349835 2.36402 1.16056C0.808979 1.9391 0.643684 3.88384 0.690779 5.41144C0.877349 11.4456 1.26544 17.7968 3.69627 23.407C4.40813 25.0498 5.40166 26.7075 6.9567 27.6742C9.36625 29.1723 12.1245 28.304 13.4979 25.9054C14.5974 23.9856 15.0204 21.7724 15.2509 19.6014C15.4252 17.9577 15.3161 16.3018 15.4325 14.655C15.5552 12.9193 16.0664 11.2352 16.3458 9.51993C16.7874 6.80753 17.3217 3.97724 16.3123 1.32515C16.1828 0.983266 15.9632 0.761993 15.6897 0.621431Z" fill="url(#paint1_linear_63_1029)"/>
<path d="M2.85551 24.8302C2.6851 23.8596 1.84623 19.5727 1.82311 17.6734C1.80544 16.2123 2.44581 15.8612 2.82468 16.8518C4.38141 20.9212 6.36414 21.0638 8.96458 21.1046C11.8261 21.1496 12.916 21.2468 14.615 17.3182C16.1156 14.8425 16.2171 19.0531 16.0517 20.264C15.869 21.9875 15.6796 23.5644 15.3388 24.976C12.2847 36.9067 4.7757 34.2561 2.85551 24.8302Z" fill="#E6D59A"/>
<defs>
<linearGradient id="paint0_linear_63_1029" x1="1.82288" y1="43.2454" x2="11.0469" y2="43.2787" gradientUnits="userSpaceOnUse">
<stop stop-color="#BFAB8D"/>
<stop offset="0.5078" stop-color="#E7E1D2"/>
<stop offset="1" stop-color="#CCBFA6"/>
</linearGradient>
<linearGradient id="paint1_linear_63_1029" x1="-2.02472" y1="14.3536" x2="20.1277" y2="14.4336" gradientUnits="userSpaceOnUse">
<stop stop-color="#94938C"/>
<stop offset="0.2296" stop-color="#EDEBE1"/>
<stop offset="0.7988" stop-color="#EDEBE1"/>
<stop offset="1" stop-color="#94938C"/>
</linearGradient>
</defs>
</svg>
