<svg width="16" height="66" viewBox="0 0 16 66" fill="none" xmlns="http://www.w3.org/2000/svg">
<path d="M2.30853 24.9023C2.30808 32.4447 0.777186 39.933 0.427831 47.4698C0.285284 50.5418 0.049498 53.6129 0.0938461 56.6903C0.128691 59.1296 -0.0572819 63.1976 1.45825 65.2749C2.09994 66.1524 3.99876 62.2461 4.18022 61.871C5.31653 59.5225 6.02247 57.0259 6.90038 54.5752C7.86835 51.8725 8.85532 49.153 9.64861 46.3916C10.7071 42.7074 11.3103 38.8702 11.9846 35.1011C12.09 34.5107 13.0114 26.9206 13.3933 26.8661C13.3897 26.8661 4.26392 28.1737 2.30853 24.9023Z" fill="url(#paint0_linear_63_1019)"/>
<path d="M14.922 0.862125C14.7732 0.726245 14.5105 0.697613 14.0242 0.656713C13.2802 0.594453 12.5071 0.648992 11.7613 0.650356C8.72127 0.656263 5.68126 0.716249 2.64124 0.716249C2.64124 0.716249 -0.300343 1.37111 0.0262969 3.00803C0.352937 4.64496 1.33375 24.9443 2.31412 26.254C3.2945 27.5637 5.58235 31.8201 10.4851 30.5104C15.3875 29.2007 14.4071 17.7422 14.4071 17.7417C14.2778 15.6663 14.7986 13.3672 14.9397 11.2926C15.1493 8.21238 15.3285 5.10532 15.1524 2.0187C15.1143 1.34202 15.1003 1.02527 14.922 0.862125Z" fill="url(#paint1_linear_63_1019)"/>
<path d="M1.78959 30.0148C1.61919 29.0442 0.780307 24.7573 0.757194 22.8579C0.73952 21.3969 1.37989 21.0458 1.75876 22.0363C3.31549 26.1057 5.29822 26.2483 7.89866 26.2892C10.7601 26.3342 11.8501 26.4313 13.5491 22.5028C15.0497 20.0271 15.1512 24.2377 14.9857 25.4485C14.8031 27.1721 14.6137 28.749 14.2729 30.1606C11.2188 42.0908 3.70978 39.4402 1.78959 30.0148Z" fill="#E6D59A"/>
<defs>
<linearGradient id="paint0_linear_63_1019" x1="12.3149" y1="45.1152" x2="-3.94958" y2="45.1737" gradientUnits="userSpaceOnUse">
<stop stop-color="#BFAB8D"/>
<stop offset="0.5078" stop-color="#E7E1D2"/>
<stop offset="1" stop-color="#CCBFA6"/>
</linearGradient>
<linearGradient id="paint1_linear_63_1019" x1="17.4788" y1="15.6688" x2="-2.06422" y2="15.7392" gradientUnits="userSpaceOnUse">
<stop stop-color="#94938C"/>
<stop offset="0.2296" stop-color="#EDEBE1"/>
<stop offset="0.7988" stop-color="#EDEBE1"/>
<stop offset="1" stop-color="#94938C"/>
</linearGradient>
</defs>
</svg>
