<svg width="16" height="66" viewBox="0 0 16 66" fill="none" xmlns="http://www.w3.org/2000/svg">
<path d="M13.038 24.7793C13.0384 32.3106 14.5762 39.7879 14.9271 47.3137C15.0703 50.3812 15.3071 53.4478 15.2625 56.5207C15.2275 58.9564 15.4144 63.0184 13.8921 65.0928C13.2475 65.9689 11.3402 62.0684 11.158 61.6938C10.0166 59.3487 9.30751 56.8558 8.42568 54.4087C7.4534 51.7099 6.46203 48.9944 5.6652 46.2371C4.60201 42.5583 3.99609 38.7267 3.31882 34.9631C3.21291 34.3736 2.28745 26.7946 1.90381 26.7402C1.90699 26.7402 11.0734 28.0459 13.038 24.7793Z" fill="url(#paint0_linear_63_1014)"/>
<path d="M0.407884 0.70955C0.556687 0.573803 0.819362 0.5452 1.30569 0.50434C2.04971 0.442142 2.82275 0.496627 3.56858 0.497989C6.6086 0.503891 9.64863 0.563817 12.6887 0.563817C12.6887 0.563817 15.6302 1.21803 15.3036 2.85335C14.9769 4.48866 13.9961 24.768 13.0157 26.0765C12.0354 27.3849 9.74753 31.6371 4.84476 30.3287C-0.0575643 29.0202 0.9228 17.573 0.9228 17.5725C1.0521 15.4991 0.531275 13.2023 0.390185 11.1298C0.180591 8.05257 0.00139522 4.94857 0.177418 1.86498C0.21598 1.18897 0.230047 0.872537 0.407884 0.70955Z" fill="url(#paint1_linear_63_1014)"/>
<path d="M13.5187 29.8613C13.689 28.8942 14.5274 24.6225 14.5505 22.73C14.5682 21.2741 13.9282 20.9243 13.5495 21.9113C11.9936 25.9662 10.0119 26.1083 7.41279 26.149C4.55279 26.1938 3.46389 26.2907 1.76529 22.3761C0.265536 19.9092 0.164064 24.1048 0.329395 25.3113C0.511938 27.0288 0.701274 28.6001 1.0419 30.0066C4.0944 41.8943 11.5995 39.2532 13.5187 29.8613Z" fill="#E6D59A"/>
<defs>
<linearGradient id="paint0_linear_63_1014" x1="2.98663" y1="44.9625" x2="19.3236" y2="45.0217" gradientUnits="userSpaceOnUse">
<stop stop-color="#BFAB8D"/>
<stop offset="0.5078" stop-color="#E7E1D2"/>
<stop offset="1" stop-color="#CCBFA6"/>
</linearGradient>
<linearGradient id="paint1_linear_63_1014" x1="-2.14889" y1="15.5016" x2="17.3941" y2="15.5722" gradientUnits="userSpaceOnUse">
<stop stop-color="#94938C"/>
<stop offset="0.2296" stop-color="#EDEBE1"/>
<stop offset="0.7988" stop-color="#EDEBE1"/>
<stop offset="1" stop-color="#94938C"/>
</linearGradient>
</defs>
</svg>
