<svg width="17" height="64" viewBox="0 0 17 64" fill="none" xmlns="http://www.w3.org/2000/svg">
<path d="M3.229 23.1338C3.229 23.1338 11.4187 27.05 13.7118 23.7866C13.6217 26.9934 13.5663 30.202 13.524 33.4097C13.444 39.5093 13.4117 45.6149 13.5904 51.7132C13.6531 53.855 13.7031 55.9995 13.9087 58.1336C14.0132 59.2208 14.1574 60.3048 14.3634 61.3775C14.4579 61.8713 14.743 62.4529 14.5134 62.9036C14.2078 63.503 13.4185 63.6389 12.8669 63.3689C12.0907 62.9884 11.5806 62.0525 11.1954 61.3299C10.2665 59.5868 9.66716 57.6601 9.12516 55.7702C5.84992 44.3474 3.73418 26.6445 3.229 23.1338Z" fill="url(#paint0_linear_63_1024)"/>
<path d="M1.9724 0.666353C2.74464 0.270058 3.94766 0.514908 4.79382 0.507654C6.36369 0.494504 7.93358 0.499041 9.503 0.544384C11.2565 0.595168 13.6948 0.394757 15.3164 1.20548C16.8735 1.98402 17.039 3.92876 16.9919 5.45636C16.8051 11.4906 16.4165 17.8417 13.9823 23.452C13.2695 25.0947 12.2746 26.7524 10.7174 27.7191C8.30452 29.2173 5.54249 28.349 4.16714 25.9503C3.06614 24.0305 2.64261 21.8173 2.4118 19.6463C2.23722 18.0027 2.34649 16.3468 2.22995 14.6999C2.10706 12.9642 1.59511 11.2802 1.31533 9.56485C0.873203 6.85245 0.338131 4.02216 1.34889 1.37007C1.47858 1.02819 1.69806 0.806915 1.9724 0.666353Z" fill="url(#paint1_linear_63_1024)"/>
<path d="M14.8677 24.8751C15.0387 23.9046 15.8806 19.6177 15.9038 17.7183C15.9216 16.2572 15.2789 15.9061 14.8986 16.8967C13.3362 20.9661 11.3463 21.1087 8.7364 21.1496C5.86453 21.1945 4.7711 21.2917 3.06544 17.3631C1.55946 14.8874 1.45757 19.0981 1.62358 20.3089C1.80688 22.0325 1.99701 23.6094 2.33905 25.0209C5.40423 36.9516 12.9405 34.301 14.8677 24.8751Z" fill="#E6D59A"/>
<defs>
<linearGradient id="paint0_linear_63_1024" x1="15.8972" y1="43.2903" x2="6.64302" y2="43.3239" gradientUnits="userSpaceOnUse">
<stop stop-color="#BFAB8D"/>
<stop offset="0.5078" stop-color="#E7E1D2"/>
<stop offset="1" stop-color="#CCBFA6"/>
</linearGradient>
<linearGradient id="paint1_linear_63_1024" x1="19.711" y1="14.3986" x2="-2.47193" y2="14.4787" gradientUnits="userSpaceOnUse">
<stop stop-color="#94938C"/>
<stop offset="0.2296" stop-color="#EDEBE1"/>
<stop offset="0.7988" stop-color="#EDEBE1"/>
<stop offset="1" stop-color="#94938C"/>
</linearGradient>
</defs>
</svg>
