<svg width="19" height="67" viewBox="0 0 19 67" fill="none" xmlns="http://www.w3.org/2000/svg">
<path d="M3.17334 27.4712C5.076 27.4612 7.00813 27.2858 8.90761 27.1335C11.2081 26.949 14.4384 27.0619 16.5391 25.9623C16.7312 25.8617 16.7947 25.5195 16.9714 25.3984C17.3733 26.7464 17.0294 28.9067 16.9501 30.2868C16.7231 34.2324 16.5486 38.1853 16.5867 42.1382C16.608 44.3202 16.7294 46.4867 16.9256 48.6592C17.1966 51.6593 18.2093 54.5883 18.4821 57.6192C18.6733 59.7445 18.6411 61.9052 18.2265 64.0038C18.096 64.6638 17.9062 66.3748 17.3339 66.5325C16.579 66.7401 15.4403 65.5789 15.061 65.0672C13.8068 63.3756 13.485 61.0848 12.8434 59.125C12.1257 56.9312 11.2847 54.78 10.426 52.6384C8.75082 48.4607 6.9891 44.2939 5.91022 39.9113C5.27992 37.3509 4.99943 34.7279 4.40766 32.1579C4.04516 30.5833 3.61831 29.0241 3.17334 27.4712Z" fill="url(#paint0_linear_63_1034)"/>
<path d="M0.980194 8.69318C0.980194 8.69318 0.000205375 3.46332 2.29228 1.83012C4.58436 0.196916 5.5657 0.8511 5.5657 0.8511C6.51343 1.10969 7.46571 1.35196 8.4198 1.58469C9.99086 1.96758 11.6869 2.51651 13.3152 2.47432C13.6414 2.4657 13.9685 2.42941 14.2929 2.46207C16.7194 2.70433 17.1133 5.28479 17.4777 7.17522C17.9452 9.59961 18.2746 12.0558 18.469 14.5165C18.6294 16.5484 18.7071 18.6035 18.5358 20.6378C18.4113 22.1113 18.2051 23.7944 17.3387 25.0429C16.1284 26.7872 13.909 27.5798 11.9245 28.0357C9.40567 28.6146 6.75877 28.7507 4.18273 28.6423C2.78204 28.5828 2.39177 25.4662 2.31363 24.4772C1.89792 19.2124 1.45633 13.9521 0.980194 8.69318Z" fill="url(#paint1_linear_63_1034)"/>
<path d="M17.2808 28.9165C17.4785 27.9431 18.4511 23.6452 18.4791 21.7408C18.5008 20.2761 17.7621 19.9247 17.3238 20.9181C15.523 24.9993 13.2337 25.144 10.2315 25.1873C6.92802 25.2351 5.6696 25.3339 3.71185 21.3966C1.98163 18.9162 1.86041 23.1371 2.05039 24.3509C2.25983 26.0783 2.47693 27.659 2.86912 29.0741C6.38339 41.0312 15.0548 38.3668 17.2808 28.9165Z" fill="#E6D59A"/>
<defs>
<linearGradient id="paint0_linear_63_1034" x1="7.79583" y1="45.9401" x2="16.8666" y2="45.9767" gradientUnits="userSpaceOnUse">
<stop stop-color="#BFAB8D"/>
<stop offset="0.5078" stop-color="#E7E1D2"/>
<stop offset="1" stop-color="#CCBFA6"/>
</linearGradient>
<linearGradient id="paint1_linear_63_1034" x1="-3.69818" y1="14.6624" x2="22.6677" y2="14.7688" gradientUnits="userSpaceOnUse">
<stop stop-color="#94938C"/>
<stop offset="0.2296" stop-color="#EDEBE1"/>
<stop offset="0.7988" stop-color="#EDEBE1"/>
<stop offset="1" stop-color="#94938C"/>
</linearGradient>
</defs>
</svg>
