<svg width="19" height="53" viewBox="0 0 19 53" fill="none" xmlns="http://www.w3.org/2000/svg">
<path d="M3.65039 21.55C3.65039 21.55 9.84455 47.0147 15.0612 51.2584C20.2775 55.5026 17.6696 47.0142 17.6696 47.0142C17.6696 47.0142 15.7133 31.3439 15.7133 28.4057C15.7133 25.4674 16.7505 19.9648 16.7505 19.9648C16.7505 19.9648 6.70402 22.1309 3.65039 21.55Z" fill="url(#paint0_linear_63_1044)"/>
<path d="M3.27312 2.26653C3.27312 2.26653 -0.00680384 3.89959 0.977086 8.47233C1.96098 13.0451 1.63315 15.6583 1.63315 15.6583C1.63315 15.6583 2.28924 23.4976 7.86523 23.8241C13.4412 24.1505 17.0494 20.8844 17.3777 18.9245C17.7059 16.9645 17.7055 11.412 18.0337 10.4318C18.3616 9.45209 19.3459 3.24582 16.0655 2.26608C12.7851 1.28633 10.8173 0.959448 10.8173 0.959448C10.8173 0.959448 7.5374 -0.0198399 3.27312 2.26653Z" fill="url(#paint1_linear_63_1044)"/>
<path d="M16.433 24.151C16.6028 23.2777 17.4449 19.419 17.4399 17.7163C17.4358 16.4066 16.7356 16.1057 16.3399 17.0016C14.7152 20.6809 12.566 20.8503 9.74452 20.942C6.6401 21.0427 5.45894 21.153 3.55256 17.6689C1.88488 15.4823 1.84152 19.2573 2.04005 20.3389C2.26551 21.879 2.49644 23.288 2.88849 24.5458C6.39135 35.1702 14.4984 32.6367 16.433 24.151Z" fill="#E6D59A"/>
<defs>
<linearGradient id="paint0_linear_63_1044" x1="16.8764" y1="36.2063" x2="5.3491" y2="36.2479" gradientUnits="userSpaceOnUse">
<stop stop-color="#BFAB8D"/>
<stop offset="0.5078" stop-color="#E7E1D2"/>
<stop offset="1" stop-color="#CCBFA6"/>
</linearGradient>
<linearGradient id="paint1_linear_63_1044" x1="21.7223" y1="12.2528" x2="-2.53122" y2="12.3408" gradientUnits="userSpaceOnUse">
<stop stop-color="#94938C"/>
<stop offset="0.2296" stop-color="#EDEBE1"/>
<stop offset="0.4283" stop-color="#EDEBE1"/>
<stop offset="0.7988" stop-color="#EDEBE1"/>
<stop offset="1" stop-color="#94938C"/>
</linearGradient>
</defs>
</svg>
