<svg width="20" height="51" viewBox="0 0 20 51" fill="none" xmlns="http://www.w3.org/2000/svg">
<path d="M4.05322 20.7766C4.8568 26.0304 6.27373 31.2801 8.11832 36.2577C10.1459 41.7282 12.6792 47.1991 17.6041 50.6273C17.7235 50.7103 17.8516 50.7964 17.9968 50.8037C18.1449 50.8109 18.2842 50.7343 18.4027 50.6454C19.081 50.1389 19.3307 49.2143 19.2608 48.3709C19.1909 47.5275 18.854 46.7334 18.5598 45.9399C16.7647 41.0997 16.3266 35.7729 15.8149 30.6738C15.4908 27.4456 14.7222 23.4888 15.484 20.2706C16.3021 16.8171 4.56034 20.1631 4.05322 20.7766Z" fill="url(#paint0_linear_63_1054)"/>
<path d="M14.1698 0.76405C13.4477 0.437371 12.6944 0.429683 11.6882 0.677633C11.416 0.744598 11.1257 0.848668 10.9778 1.08757C10.2854 2.20425 15.9684 4.34848 16.6478 3.41142C17.0499 2.85398 15.5339 1.74137 15.2165 1.46492C14.8582 1.15272 14.5174 0.921508 14.1698 0.76405Z" fill="#D8D6D0"/>
<path d="M4.24314 0.95163C3.90757 1.05331 3.65228 1.16225 3.54493 1.25712C3.00188 1.73738 2.43764 2.2485 2.19453 2.93347C2.09711 3.2081 2.08673 3.57623 2.3348 3.72694C2.41869 3.77777 2.51883 3.79321 2.61625 3.80139C3.75422 3.89535 5.07079 3.15091 6.0333 2.61936C6.38962 2.42281 7.92181 1.71332 7.8519 1.15544C7.74546 0.309777 5.46274 0.582587 4.24314 0.95163Z" fill="#D8D6D0"/>
<path d="M2.24151 3.05988C2.24151 3.05988 -0.0498034 4.69455 1.25965 8.94507C1.91438 14.8303 3.87856 20.7155 3.87856 20.7155C3.87856 20.7155 4.53327 21.6962 9.11591 21.6962C13.6985 21.6962 15.008 21.0422 15.6627 19.7343C16.3175 18.4264 17.954 6.00203 17.954 6.00203C17.954 6.00203 17.6269 3.05943 16.3174 2.73267C15.008 2.40592 13.6985 2.07871 13.3714 2.07871C13.0443 2.07871 10.0982 0.116828 8.78878 0.444036C7.47887 0.771244 4.20523 3.38663 2.24151 3.05988Z" fill="url(#paint1_linear_63_1054)"/>
<path d="M15.2931 23.5715C15.4365 22.9405 16.1488 20.1529 16.1492 18.924C16.1497 17.9789 15.5682 17.7631 15.2364 18.4109C13.8746 21.0712 12.0861 21.1999 9.73884 21.2743C7.15644 21.3558 6.17368 21.4388 4.59809 18.929C3.21724 17.3557 3.17003 20.0803 3.33208 20.8604C3.51501 21.9719 3.70295 22.9881 4.02569 23.8947C6.90905 31.5551 13.6594 29.7026 15.2931 23.5715Z" fill="#E6D59A"/>
<defs>
<linearGradient id="paint0_linear_63_1054" x1="7.2839" y1="34.7377" x2="17.6579" y2="34.7753" gradientUnits="userSpaceOnUse">
<stop stop-color="#BFAB8D"/>
<stop offset="0.5078" stop-color="#E7E1D2"/>
<stop offset="1" stop-color="#CCBFA6"/>
</linearGradient>
<linearGradient id="paint1_linear_63_1054" x1="-2.78427" y1="11.0091" x2="21.3844" y2="11.0965" gradientUnits="userSpaceOnUse">
<stop stop-color="#94938C"/>
<stop offset="0.2296" stop-color="#EDEBE1"/>
<stop offset="0.7988" stop-color="#EDEBE1"/>
<stop offset="1" stop-color="#94938C"/>
</linearGradient>
</defs>
</svg>
