<svg width="27" height="51" viewBox="0 0 27 51" fill="none" xmlns="http://www.w3.org/2000/svg">
<path d="M10.7378 2.22255C10.7378 2.22255 9.83039 0.16771 7.99334 0.682327C6.15629 1.19694 5.52154 5.99232 5.85414 9.52748C6.18675 13.0626 7.7607 24.279 10.4674 24.5099C13.1741 24.7409 18.1241 18.3881 15.8722 14.8488C13.6204 11.31 9.89401 5.09742 10.7378 2.22255Z" fill="url(#paint0_linear_63_981)"/>
<path d="M22.5356 32.6663C19.3393 32.4358 15.7125 30.8716 12.5103 30.745C10.5017 30.6656 8.49224 30.5327 6.48138 30.5971C5.55166 30.6266 4.16862 33.1078 3.26745 32.993C2.68269 32.9186 3.06846 30.5145 3.09248 29.8924C3.11288 29.3628 3.15776 28.8355 3.08024 28.3078C2.80191 26.4055 1.75659 24.5995 1.32187 22.6973C0.818707 20.4969 0.478731 18.2539 0.269758 16.0068C0.0480927 13.6226 -0.0452914 11.1881 0.266128 8.80761C0.400306 7.78116 0.58344 6.73884 0.990507 5.78091C1.30737 5.03536 2.07572 3.57193 3.05758 3.68401C3.41795 3.7253 3.74071 3.93041 4.01042 4.17409C4.53897 4.65192 4.90705 5.28811 5.15048 5.95834C5.65228 7.341 5.6414 8.82985 5.73796 10.2783C5.83768 11.7717 6.2443 13.1548 6.57884 14.6042C7.19986 17.2973 7.93331 20.467 9.69575 22.6746C10.1246 23.2119 10.7692 23.6466 11.4532 23.5817C11.8041 23.5481 12.1318 23.3866 12.4183 23.181C13.4505 22.44 13.9754 21.1612 14.1545 19.9025C14.5212 17.3232 14.2451 14.478 13.5565 11.9777C13.1526 10.5102 12.4065 9.19605 11.9505 7.7612C11.4686 6.24423 10.815 3.23477 12.9514 2.65711C13.8136 2.42387 14.7315 2.86495 15.3761 3.4839C17.7659 5.77774 19.3801 9.18787 20.7623 12.1447C21.6099 13.9575 22.4282 15.8316 22.9499 17.7693C23.2636 18.9341 23.23 20.0949 23.197 21.2978C23.104 24.6603 22.9091 29.332 22.5356 32.6663Z" fill="url(#paint1_linear_63_981)"/>
<path d="M3.61376 34.8403C3.34156 34.9234 2.95141 35.663 2.80034 35.8758C2.20196 36.7203 1.68386 37.6292 1.29598 38.5903C0.250729 41.1799 0.402254 44.02 2.363 46.1414C2.38614 46.1663 2.40973 46.1913 2.43287 46.2163C2.53857 46.3274 2.64882 46.4359 2.73502 46.5625C2.97682 46.9178 3.03443 47.3629 3.26353 47.7273C3.47993 48.0717 3.79796 48.3939 4.106 48.6539C4.83141 49.2665 5.79771 49.6921 6.76266 49.5968C7.09429 49.5641 7.4105 49.4462 7.72217 49.3291C9.07546 48.8209 10.5449 48.2414 11.2626 46.8974C11.1809 47.0507 11.5534 47.6747 11.6473 47.8017C11.8723 48.1076 12.1481 48.2405 12.4961 48.3748C13.6452 48.8191 14.896 49.1757 15.9975 49.7266C16.7587 50.0197 17.4011 50.2983 18.1755 50.0442C18.6265 49.8963 19.0833 49.7665 19.5293 49.6032C20.364 49.2978 21.7527 48.7632 21.7527 47.6801C21.7527 46.0053 23.1482 40.9812 19.7992 35.9571C16.4516 30.9348 3.6242 34.8372 3.61376 34.8403Z" fill="#D8D6D0"/>
<path d="M3.60068 30.7144C3.28138 30.8116 2.82354 31.6789 2.64685 31.9282C1.94511 32.9181 1.33783 33.9834 0.882722 35.1096C-0.343175 38.1452 -0.165125 41.4742 2.1336 43.9599C2.16085 43.989 2.18856 44.0185 2.21581 44.0476C2.33981 44.1779 2.4688 44.305 2.57008 44.4535C2.85396 44.8704 2.92119 45.3912 3.18962 45.819C3.44307 46.2222 3.81597 46.6 4.17752 46.9052C5.02824 47.6231 6.16147 48.1217 7.29244 48.0105C7.68124 47.9723 8.05187 47.8338 8.41751 47.6967C10.0045 47.1014 11.7278 46.4216 12.5694 44.8463C12.4736 45.0257 12.9105 45.7572 13.0204 45.9066C13.2843 46.2649 13.6081 46.4207 14.0156 46.5782C15.3632 47.0991 16.8298 47.5169 18.1216 48.1626C19.0141 48.5063 19.7672 48.8328 20.6756 48.5349C21.2043 48.3615 21.7402 48.2094 22.263 48.0182C23.2418 47.6604 24.8706 47.0337 24.8706 45.764C24.8706 43.801 26.5066 37.9123 22.58 32.0236C18.6548 26.1367 3.6134 30.7108 3.60068 30.7144Z" fill="url(#paint2_linear_63_981)"/>
<path d="M24.3729 28.9793C24.5276 29.4822 24.7223 29.966 24.8893 30.4426C25.2805 31.3205 25.2555 31.598 25.4457 32.2165C25.8818 33.6367 26.6895 34.8316 26.6627 36.2073C26.6432 37.2244 25.791 37.7636 24.8621 37.8865C23.6999 38.0397 23.2552 30.9971 16.5844 30.9971C9.91369 30.9971 7.78766 32.4219 4.59749 34.2003C3.8569 34.613 2.58085 35.6292 1.90787 36.1144C-1.01455 38.2229 0.27512 31.8324 0.723014 30.6625C1.14686 29.5552 1.29117 28.4823 1.94009 27.4411C2.54454 26.4708 3.3346 25.6255 4.23311 24.9218C6.11544 23.448 8.44158 22.5896 10.79 22.2251C15.1024 21.5553 20.6082 22.4432 23.2339 26.3152C23.7671 27.1015 24.0847 28.0424 24.3729 28.9793Z" fill="#E6D59A"/>
<defs>
<linearGradient id="paint0_linear_63_981" x1="14.2529" y1="23.4835" x2="-4.29817" y2="-21.9123" gradientUnits="userSpaceOnUse">
<stop offset="0.1599" stop-color="#BFAB8D"/>
<stop offset="0.5078" stop-color="#E7E1D2"/>
<stop offset="0.7297" stop-color="#CCBFA6"/>
</linearGradient>
<linearGradient id="paint1_linear_63_981" x1="1.36529" y1="17.4769" x2="22.2592" y2="18.4206" gradientUnits="userSpaceOnUse">
<stop offset="0.1599" stop-color="#BFAB8D"/>
<stop offset="0.5078" stop-color="#E7E1D2"/>
<stop offset="0.7297" stop-color="#CCBFA6"/>
</linearGradient>
<linearGradient id="paint2_linear_63_981" x1="-5.66628" y1="41.1637" x2="29.1973" y2="37.5016" gradientUnits="userSpaceOnUse">
<stop stop-color="#94938C"/>
<stop offset="0.2296" stop-color="#EDEBE1"/>
<stop offset="0.7988" stop-color="#EDEBE1"/>
<stop offset="1" stop-color="#94938C"/>
</linearGradient>
</defs>
</svg>
