<svg width="29" height="50" viewBox="0 0 29 50" fill="none" xmlns="http://www.w3.org/2000/svg">
<path d="M9.25267 0.442869C7.93903 0.531311 6.92497 0.912469 5.84646 1.64515C5.55459 1.84359 5.27816 2.08287 5.3358 2.3666C5.60452 3.69189 15.4854 2.627 15.3906 1.46467C15.3315 0.774192 12.1183 0.588779 11.3988 0.512458C10.5867 0.425811 9.88498 0.400668 9.25267 0.442869Z" fill="#D8D6D0"/>
<path d="M19.4024 45.8209C20.0772 47.9861 18.4839 48.8695 17.004 47.5867C14.1429 45.1065 12.4872 41.1279 11.0308 37.4834C10.3565 35.7957 7.46149 29.8612 8.98492 28.4268C10.4966 27.0033 16.4222 29.7137 16.7258 33.522C16.8907 35.5878 16.9596 37.6595 17.3144 39.7262C17.7005 41.9726 18.7413 43.6998 19.4024 45.8209Z" fill="url(#paint0_linear_63_1068)"/>
<path d="M2.64085 20.5652C2.82877 21.3391 2.99537 22.1266 3.03213 22.2789C3.34761 23.5859 3.62131 24.9029 3.84101 26.2298C4.02031 27.3138 4.16374 28.4036 4.27041 29.4975C4.37391 30.5575 4.28358 31.7244 4.48603 32.7635C4.68484 33.7876 5.05071 34.862 5.39615 35.8512C6.43335 38.822 8.00437 41.5865 9.86997 44.1135C10.806 45.381 11.8182 46.5919 12.8867 47.7507C13.5431 48.4624 14.9384 50.5696 16.0982 49.6942C16.5335 49.3655 16.7083 48.7793 16.6801 48.2349C16.652 47.6904 16.4522 47.1718 16.263 46.6604C14.805 42.7149 13.4187 37.8296 14.2385 33.5967C14.3238 33.1556 14.4573 32.7 14.7741 32.3813C15.1895 31.9637 15.8544 31.8699 16.4227 32.0263C16.991 32.1827 17.4758 32.554 17.8989 32.9638C19.351 34.3715 20.3827 36.3503 21.2701 38.1501C21.9419 39.5129 22.4354 40.965 22.7191 42.4578C22.9905 43.8868 22.7599 45.585 23.3346 46.926C23.6564 47.6772 24.374 48.3219 25.192 48.2983C25.8288 48.2802 26.3926 47.8708 26.8125 47.3921C28.3595 45.6281 28.6558 42.8174 28.7462 40.5683C28.8597 37.734 28.4557 34.9096 28.0158 32.1174C27.4171 28.3161 26.6477 24.5406 25.7885 20.7901C25.7553 20.6446 25.2878 18.2785 25.1934 18.2813C25.1934 18.2813 2.30587 18.9155 2.0957 18.9214C2.21236 18.9187 2.43886 19.7342 2.64085 20.5652Z" fill="url(#paint1_linear_63_1068)"/>
<path d="M20.5329 0.238128C19.349 0.169785 18.3851 0.431689 17.3076 1.04035C17.0159 1.20502 16.7315 1.41326 16.7374 1.70544C16.7641 3.07229 25.7335 3.18467 25.8354 2.00266C25.8933 1.29996 23.0616 0.728459 22.4334 0.564712C21.7237 0.380782 21.1032 0.271153 20.5329 0.238128Z" fill="#D8D6D0"/>
<path d="M4.53871 1.31627C3.58504 1.41142 2.68674 1.77797 1.91281 2.58358C0.915565 3.62163 0.416263 5.06158 0.292798 6.49427C0.0281665 9.56809 0.555159 13.2237 1.32454 16.2014C1.56875 17.1466 1.59327 19.133 2.24328 19.8625C4.26592 22.132 8.71017 21.0278 11.3996 20.8416C14.4799 20.6282 17.7962 20.5263 20.556 19.8625C22.383 19.771 25.7378 20.1746 26.2925 17.7628C26.928 14.9985 27.3193 12.1716 27.45 9.33837C27.548 7.2215 27.8576 1.99093 24.8091 1.58268C24.3629 1.52288 23.6099 2.02491 23.1628 2.1264C22.23 2.33755 21.3199 2.309 20.3939 2.06343C19.255 1.76166 18.1974 1.21795 17.1058 0.775271C16.8684 0.679214 16.6214 0.586328 16.3654 0.593125C15.7821 0.608983 15.3537 1.11328 14.887 1.46307C12.9229 2.93655 9.40239 2.17217 7.23404 1.60625C6.32395 1.36837 5.40841 1.22973 4.53871 1.31627Z" fill="url(#paint2_linear_63_1068)"/>
<path d="M25.8059 19.8073C25.919 19.2933 26.0735 18.7947 26.2002 18.3061C26.5183 17.3988 26.4706 17.1239 26.6091 16.4915C26.9271 15.0397 27.6345 13.7817 27.4946 12.4121C27.391 11.3995 26.4964 10.9318 25.5597 10.886C24.3876 10.8288 24.0028 11.3659 23.5217 12.3459C22.2783 14.8787 19.6337 16.1848 16.9497 16.633C13.4539 17.2164 8.974 17.7391 5.64487 16.2283C4.8721 15.8777 3.51509 14.9699 2.80366 14.5412C-0.286058 12.6789 1.52752 18.9449 2.07087 20.075C2.58469 21.1443 2.81774 22.2018 3.55053 23.1867C4.23334 24.1045 5.09107 24.8825 6.04602 25.5104C8.04541 26.8251 10.4373 27.4893 12.8101 27.6598C17.1678 27.9729 22.5881 26.6345 24.8887 22.5584C25.3561 21.7295 25.5956 20.7655 25.8059 19.8073Z" fill="#E6D59A"/>
<defs>
<linearGradient id="paint0_linear_63_1068" x1="11.6485" y1="27.518" x2="19.427" y2="71.83" gradientUnits="userSpaceOnUse">
<stop offset="0.1599" stop-color="#BFAB8D"/>
<stop offset="0.5078" stop-color="#E7E1D2"/>
<stop offset="0.7297" stop-color="#CCBFA6"/>
</linearGradient>
<linearGradient id="paint1_linear_63_1068" x1="4.68369" y1="34.0363" x2="27.2232" y2="34.1179" gradientUnits="userSpaceOnUse">
<stop stop-color="#BFAB8D"/>
<stop offset="0.5078" stop-color="#E7E1D2"/>
<stop offset="1" stop-color="#CCBFA6"/>
</linearGradient>
<linearGradient id="paint2_linear_63_1068" x1="-5.48534" y1="10.8725" x2="33.3813" y2="11.0132" gradientUnits="userSpaceOnUse">
<stop stop-color="#94938C"/>
<stop offset="0.2296" stop-color="#EDEBE1"/>
<stop offset="0.7988" stop-color="#EDEBE1"/>
<stop offset="1" stop-color="#94938C"/>
</linearGradient>
</defs>
</svg>
