<svg width="28" height="49" viewBox="0 0 28 49" fill="none" xmlns="http://www.w3.org/2000/svg">
<path d="M15.8185 42.3882C16.0192 44.3461 14.7571 44.7913 13.8611 43.4271C12.1291 40.7902 11.4608 37.114 10.8926 33.7587C10.6293 32.2052 9.32706 26.642 10.6113 25.717C11.8856 24.7998 15.7915 28.2105 15.5097 31.4863C15.3568 33.2636 15.134 35.0277 15.1178 36.8417C15.0998 38.8133 15.6215 40.4698 15.8185 42.3882Z" fill="url(#paint0_linear_63_1084)"/>
<path d="M4.2251 20.1536C4.91001 22.1144 5.46208 24.1611 5.78074 26.2142C5.99515 27.5959 5.96343 28.8241 5.75401 30.1917C5.4018 32.49 5.3764 34.8887 5.47522 37.207C5.62934 40.823 7.36044 43.5465 8.74432 46.7991C9.25291 47.9941 10.4288 48.6214 11.4953 47.5217C12.8479 46.1273 12.483 43.1963 12.537 41.4276C12.6104 39.0066 12.6594 36.5689 13.1426 34.1865C13.3506 33.1609 13.643 32.1385 14.1774 31.2391C14.7087 30.3448 15.6905 29.9087 16.6311 30.5528C17.8835 31.4104 18.1659 33.289 18.5983 34.6262C19.004 35.8803 19.3716 37.1466 19.7265 38.4161C20.2279 40.2094 20.6916 42.013 21.1694 43.8122C21.3674 44.5571 22.0138 46.3067 23.1067 45.5463C23.4757 45.2893 23.6579 44.8441 23.8116 44.4213C24.3161 43.0305 24.719 41.6056 25.1211 40.1821C25.66 38.2749 26.156 36.3731 26.272 34.3868C26.4302 31.6788 25.3654 29.003 24.845 26.3818C24.292 23.5961 23.9466 20.7691 23.8143 17.932C23.8057 17.7454 23.7911 17.5423 23.6651 17.4042C23.4951 17.218 23.2037 17.2326 22.9539 17.2612C19.8848 17.6136 16.8092 17.9003 13.7432 18.2845C11.6685 18.543 9.59109 18.8164 7.53453 19.1961C6.62841 19.3633 4.92724 19.45 4.2251 20.1536Z" fill="url(#paint1_linear_63_1084)"/>
<path d="M1.82626 15.9164C1.72368 14.6863 1.75182 13.4398 1.51804 12.2247C1.15308 10.3282 0.197567 8.67594 0.332838 6.66658C0.65876 1.82901 7.40463 1.45508 10.7964 2.7948C12.2068 3.35162 12.7855 2.82573 13.9712 2.07513C15.2558 1.26174 16.7715 0.835938 18.2899 0.835938C20.0262 0.835938 21.9422 1.33088 23.4252 2.24526C25.619 3.59818 25.6172 5.81771 25.7679 8.14733C25.9345 10.724 25.8755 13.3784 25.0253 15.8422C24.7652 16.5965 24.4206 17.3375 23.8786 17.9221C23.1083 18.7532 22.1269 18.8628 21.0861 19.103C19.6653 19.431 18.2286 19.7085 16.7964 19.9801C13.988 20.5128 11.1531 20.9464 8.29565 21.0901C6.94067 21.1584 5.5376 21.0205 4.33423 20.3923C2.59114 19.4829 1.9806 17.7724 1.82626 15.9164Z" fill="url(#paint2_linear_63_1084)"/>
<path d="M24.9819 19.4425C25.1193 19.0567 25.2958 18.6805 25.4455 18.3128C25.8024 17.626 25.7715 17.4259 25.9398 16.9514C26.3267 15.8624 27.0786 14.8953 27.0188 13.8924C26.9748 13.1508 26.1376 12.8552 25.2359 12.8728C24.108 12.895 23.7075 13.3125 23.1896 14.0618C21.8503 15.9992 19.2265 17.108 16.6124 17.5861C13.2072 18.2087 8.856 18.8403 5.72706 17.908C5.00049 17.6916 3.74104 17.0962 3.07888 16.8191C0.200283 15.6148 1.60487 20.1388 2.06657 20.9425C2.50378 21.7032 2.66978 22.471 3.32287 23.1574C3.93106 23.7972 4.71611 24.3242 5.60278 24.7349C7.45955 25.5952 9.73086 25.9542 12.0108 25.9497C16.1978 25.9415 21.5015 24.6561 23.946 21.5216C24.4422 20.8855 24.7261 20.161 24.9819 19.4425Z" fill="#E6D59A"/>
<defs>
<linearGradient id="paint0_linear_63_1084" x1="12.646" y1="25.4504" x2="10.5219" y2="64.2696" gradientUnits="userSpaceOnUse">
<stop offset="0.1599" stop-color="#BFAB8D"/>
<stop offset="0.5078" stop-color="#E7E1D2"/>
<stop offset="0.7297" stop-color="#CCBFA6"/>
</linearGradient>
<linearGradient id="paint1_linear_63_1084" x1="6.74966" y1="34.0618" x2="24.2317" y2="30.6669" gradientUnits="userSpaceOnUse">
<stop stop-color="#BFAB8D"/>
<stop offset="0.5078" stop-color="#E7E1D2"/>
<stop offset="1" stop-color="#CCBFA6"/>
</linearGradient>
<linearGradient id="paint2_linear_63_1084" x1="-3.75514" y1="13.9949" x2="29.5678" y2="7.52466" gradientUnits="userSpaceOnUse">
<stop stop-color="#94938C"/>
<stop offset="0.2114" stop-color="#EDEBE1"/>
<stop offset="0.847" stop-color="#EDEBE1"/>
<stop offset="1" stop-color="#94938C"/>
</linearGradient>
</defs>
</svg>
