<svg width="25" height="40" viewBox="0 0 25 40" fill="none" xmlns="http://www.w3.org/2000/svg">
<path d="M15.5508 36.7485C15.8465 38.6072 14.6575 39.0995 13.7251 37.8442C11.9229 35.4176 11.0873 31.9432 10.365 28.7695C10.0307 27.2998 8.48688 22.0568 9.67224 21.1058C10.8485 20.1626 14.7803 23.2125 14.6811 26.3557C14.6275 28.0606 14.5065 29.7569 14.5861 31.49C14.6725 33.3733 15.2606 34.9271 15.5508 36.7485Z" fill="url(#paint0_linear_63_1102)"/>
<path d="M3.06396 13.4232C3.06396 13.4232 4.36942 17.0194 4.36942 20.9424C4.36942 24.8653 4.04326 29.7694 6.32755 33.3656C8.61184 36.9619 9.26455 38.5964 9.26455 38.5964C9.26455 38.5964 11.2227 40.8849 12.2016 38.2697C12.2016 38.2697 9.91729 30.4233 11.2227 26.5003C12.5282 22.5774 13.8336 23.8847 14.1597 24.5386C14.4859 25.1925 19.0549 32.7117 19.7071 34.6735C20.3599 36.6352 21.3387 38.5964 21.9915 38.5964C22.6442 38.5964 23.623 36.9619 24.2757 34.0195C24.9285 31.0772 24.2757 27.8082 22.9703 25.5193C21.6648 23.2308 20.3594 13.096 20.3594 11.4615C20.3594 9.82692 4.69554 12.7697 3.06396 13.4232Z" fill="url(#paint1_linear_63_1102)"/>
<path d="M10.6096 3.12746C10.2994 3.05389 9.97836 2.8509 9.60564 2.60522C8.59358 1.9372 7.54252 1.29279 6.37493 0.968095C5.20689 0.643396 3.89284 0.67155 2.85357 1.29597C2.12264 1.73511 1.58125 2.43083 1.13553 3.15834C0.43815 4.29683 -0.0765047 5.6197 0.083557 6.94575C0.265837 8.45799 0.864833 9.94705 1.47923 11.3285C1.85196 12.1664 2.16255 13.1223 2.83409 13.7781C3.61716 14.5428 4.93482 14.6504 5.96729 14.7953C8.1882 15.1064 10.4182 14.8275 12.5865 14.3121C14.7421 13.7994 16.9698 13.2308 19.0656 12.516C19.4424 12.3875 19.8188 12.239 20.1343 11.9965C21.019 11.3158 21.2008 9.76859 21.4135 8.74772C21.7363 7.19597 21.5391 5.59154 20.9052 4.14515C20.089 2.28279 18.5283 0.638853 16.4561 0.319603C14.9729 0.0911781 13.6562 0.395897 12.6582 1.5471C12.3276 1.92857 12.0646 2.3718 11.7073 2.7301C11.3137 3.12474 10.9691 3.21284 10.6096 3.12746Z" fill="url(#paint2_linear_63_1102)"/>
<path d="M20.2857 14.5803C20.3933 14.2918 20.5309 14.0105 20.6481 13.7356C20.9261 13.2211 20.9034 13.0723 21.0356 12.7176C21.3391 11.9037 21.9223 11.1778 21.8819 10.4302C21.8524 9.87761 21.2105 9.66121 20.5173 9.67981C19.6506 9.70249 19.3403 10.016 18.9379 10.5781C17.8981 12.0303 15.8752 12.8723 13.8633 13.2429C11.2431 13.7261 7.89518 14.2215 5.49577 13.5437C4.93884 13.3863 3.97399 12.9494 3.46658 12.7461C1.26113 11.8638 2.31548 15.23 2.66572 15.827C2.99733 16.3918 3.12087 16.9634 3.61874 17.472C4.08254 17.9456 4.68307 18.3344 5.36219 18.6356C6.78449 19.2671 8.52753 19.5217 10.2801 19.5058C13.4981 19.4763 17.581 18.4882 19.4775 16.1368C19.8627 15.6596 20.0853 15.1174 20.2857 14.5803Z" fill="#E6D59A"/>
<defs>
<linearGradient id="paint0_linear_63_1102" x1="11.6087" y1="20.7385" x2="11.6329" y2="57.9174" gradientUnits="userSpaceOnUse">
<stop offset="0.1599" stop-color="#BFAB8D"/>
<stop offset="0.5078" stop-color="#E7E1D2"/>
<stop offset="0.7297" stop-color="#CCBFA6"/>
</linearGradient>
<linearGradient id="paint1_linear_63_1102" x1="4.95548" y1="25.2134" x2="21.6876" y2="25.2737" gradientUnits="userSpaceOnUse">
<stop stop-color="#BFAB8D"/>
<stop offset="0.5078" stop-color="#E7E1D2"/>
<stop offset="1" stop-color="#CCBFA6"/>
</linearGradient>
<linearGradient id="paint2_linear_63_1102" x1="-6.29338" y1="7.52263" x2="27.7289" y2="7.64535" gradientUnits="userSpaceOnUse">
<stop stop-color="#94938C"/>
<stop offset="0.2614" stop-color="#EDEBE1"/>
<stop offset="0.7687" stop-color="#EDEBE1"/>
<stop offset="1" stop-color="#94938C"/>
</linearGradient>
</defs>
</svg>
