<svg width="19" height="55" viewBox="0 0 19 55" fill="none" xmlns="http://www.w3.org/2000/svg">
<path d="M9.23003 54.2012C9.23003 54.2012 3.94043 55.2968 2.06598 52.5444C0.191067 49.7916 8.59962 52.5408 9.23003 54.2012Z" fill="#D8D6D0"/>
<path d="M10.02 54.4397C10.02 54.4397 15.653 54.819 17.0546 51.181C18.4562 47.543 10.3524 52.3339 10.02 54.4397Z" fill="#D8D6D0"/>
<path d="M12.2743 33.9068C12.3573 33.9477 12.4363 33.994 12.5107 34.0462C13.9483 35.0517 15.1601 36.6807 16.0742 38.1544C17.4634 40.3933 18.4551 42.9541 18.1879 45.6263C18.0055 47.4528 17.8009 49.5532 16.889 51.1935C16.3564 52.1518 15.1592 52.5909 14.1843 52.9306C13.3491 53.2217 12.5061 53.4951 11.6873 53.8307C10.931 54.1404 10.1888 54.6686 9.33682 54.6005C8.35735 54.5219 7.67322 53.7535 6.88974 53.2549C5.6603 52.4728 4.18861 52.0718 2.73234 52.1422C2.47648 52.1545 2.21425 52.1804 1.96882 52.1055C1.61088 51.9965 1.34911 51.6922 1.13815 51.3834C0.177286 49.9783 0.202689 48.6168 0.194523 46.9828C0.185903 45.3225 0.218113 43.6521 0.534319 42.0173C1.09732 39.104 3.01996 36.6939 4.03073 33.9441C4.0888 33.7856 4.14687 33.6234 4.25348 33.4926C4.43585 33.2688 4.73437 33.172 5.022 33.1489C5.56096 33.1053 6.10399 33.1888 6.63795 33.246C7.65054 33.355 8.63908 33.4681 9.65711 33.5381C10.4642 33.5939 11.5226 33.5349 12.2743 33.9068Z" fill="url(#paint0_linear_63_967)"/>
<path d="M14.4342 35.8336C14.3978 35.8631 14.3542 35.8863 14.3011 35.9008C14.0339 35.9757 13.2105 35.5731 12.9192 35.4969C11.9536 35.2445 10.9771 35.0335 9.99464 34.8578C8.95359 34.6718 7.9021 34.4952 6.84197 34.4866C6.28078 34.482 5.7164 34.5211 5.16702 34.64C4.67899 34.7457 4.15324 35.0798 3.69111 35.1215C3.3544 33.8103 3.69611 32.2854 3.77427 30.9537C3.86106 29.4733 3.99738 27.996 4.18233 26.5245C4.52949 23.7633 5.21928 21.105 5.72231 18.3787C6.21216 15.7268 6.34848 12.9233 6.28986 10.2229C6.26214 8.95297 6.18535 7.6808 6.03948 6.41907C5.91543 5.34207 5.60462 4.37807 5.71504 3.26203C5.82728 2.12738 6.3603 0.409082 7.86029 0.873833C8.98949 1.22376 9.69247 2.46414 10.2623 3.40726C11.3479 5.20318 12.1381 7.15977 12.866 9.12724C13.5931 11.092 14.2633 13.0908 14.6428 15.1549C14.974 16.9554 14.9336 18.7177 14.9022 20.5354C14.8532 23.4211 14.7841 26.3062 14.7127 29.1914C14.6669 31.0531 14.7732 32.9952 14.6264 34.8833C14.6 35.2364 14.6519 35.6557 14.4342 35.8336Z" fill="url(#paint1_linear_63_967)"/>
<path d="M16.5211 32.985C16.7342 33.9531 17.7806 38.2279 17.822 40.1248C17.8538 41.5836 17.0815 41.9377 16.6156 40.951C14.7024 36.897 12.3011 36.7664 9.15336 36.7415C5.68974 36.7138 4.36975 36.6231 2.34158 40.556C0.542952 43.0369 0.389772 38.8333 0.581134 37.6235C0.78977 35.9017 1.00795 34.3263 1.41022 32.9147C5.02111 20.984 14.1288 23.5856 16.5211 32.985Z" fill="#E6D59A"/>
<defs>
<linearGradient id="paint0_linear_63_967" x1="-5.75554" y1="44.277" x2="24.4808" y2="43.3466" gradientUnits="userSpaceOnUse">
<stop stop-color="#94938C"/>
<stop offset="0.2666" stop-color="#EDEBE1"/>
<stop offset="0.7117" stop-color="#EDEBE1"/>
<stop offset="1" stop-color="#94938C"/>
</linearGradient>
<linearGradient id="paint1_linear_63_967" x1="0.777076" y1="19.4021" x2="15.1596" y2="17.8899" gradientUnits="userSpaceOnUse">
<stop stop-color="#BFAB8D"/>
<stop offset="0.5078" stop-color="#E7E1D2"/>
<stop offset="1" stop-color="#CCBFA6"/>
</linearGradient>
</defs>
</svg>
