<svg width="19" height="58" viewBox="0 0 19 58" fill="none" xmlns="http://www.w3.org/2000/svg">
<path d="M9.3418 56.2832C9.3418 56.2832 4.00796 57.1272 2.27076 54.256C0.534 51.3848 8.79366 54.576 9.3418 56.2832Z" fill="#D8D6D0"/>
<path d="M3.99268 38.3436C3.99268 38.3436 4.31942 27.2354 5.30057 24.295C6.28126 21.3546 7.2624 11.5534 6.93521 8.93948C6.60846 6.32558 6.60846 2.40518 6.60846 2.40518C6.60846 2.40518 6.28171 -0.535222 9.22424 1.75171C12.1668 4.03865 15.7632 15.1468 15.436 19.7207C15.1093 24.2946 15.0058 38.0778 15.0576 38.0475C15.1088 38.0171 3.99268 38.3436 3.99268 38.3436Z" fill="url(#paint0_linear_63_954)"/>
<path d="M14.7779 37.0527C14.7779 37.0527 22.3103 48.1726 16.7431 54.0597C16.063 54.7787 14.9934 55.2845 14.1647 55.8106C13.3092 56.354 12.3964 57.1085 11.3536 57.2261C10.1576 57.3614 9.28207 56.1116 8.10654 55.8678C6.23777 55.4801 4.40901 55.787 2.81298 54.5141C1.49516 53.4631 0.696016 51.8248 0.424633 50.1841C0.0864275 48.1372 0.436452 46.0571 0.844662 44.0474C1.01877 43.1908 1.31515 42.3754 1.66199 41.5733C2.03156 40.718 2.69798 39.8832 2.988 39.0143C2.988 39.0152 5.60772 31.1656 14.7779 37.0527Z" fill="url(#paint1_linear_63_954)"/>
<path d="M15.4686 33.4504C15.6537 34.4172 16.5621 38.6863 16.5981 40.5806C16.6258 42.0374 15.9556 42.3916 15.5509 41.4057C13.89 37.3572 11.8062 37.2268 9.0736 37.2018C6.06728 37.1742 4.92149 37.0836 3.16098 41.0113C1.59962 43.4888 1.46686 39.2909 1.63282 38.0827C1.81378 36.3632 2.00337 34.7899 2.35256 33.3802C5.48665 21.466 13.3921 24.064 15.4686 33.4504Z" fill="#E6D59A"/>
<defs>
<linearGradient id="paint0_linear_63_954" x1="4.89281" y1="19.6598" x2="17.7895" y2="19.2622" gradientUnits="userSpaceOnUse">
<stop stop-color="#BFAB8D"/>
<stop offset="0.5078" stop-color="#E7E1D2"/>
<stop offset="1" stop-color="#CCBFA6"/>
</linearGradient>
<linearGradient id="paint1_linear_63_954" x1="-3.29491" y1="46.4552" x2="23.4849" y2="45.6292" gradientUnits="userSpaceOnUse">
<stop stop-color="#94938C"/>
<stop offset="0.0311" stop-color="#A6A59D"/>
<stop offset="0.0939" stop-color="#C5C3BB"/>
<stop offset="0.1552" stop-color="#DBD9D0"/>
<stop offset="0.2138" stop-color="#E8E7DD"/>
<stop offset="0.2666" stop-color="#EDEBE1"/>
<stop offset="0.7117" stop-color="#EDEBE1"/>
<stop offset="0.7637" stop-color="#E7E5DB"/>
<stop offset="0.835" stop-color="#D5D3CA"/>
<stop offset="0.9175" stop-color="#B8B7AF"/>
<stop offset="1" stop-color="#94938C"/>
</linearGradient>
</defs>
</svg>
