<svg width="20" height="70" viewBox="0 0 20 70" fill="none" xmlns="http://www.w3.org/2000/svg">
<path d="M16.0299 45.4937C16.0299 45.4937 3.9483 42.4644 2.94434 44.1917L7.82353 9.6276C7.82353 9.6276 7.67201 0.744141 8.97947 0.744141C10.2869 0.744141 11.5944 4.66739 11.5944 4.66739C11.5944 4.66739 15.7386 37.221 16.0299 45.4937Z" fill="url(#paint0_linear_63_828)"/>
<path d="M13.7159 42.0136C13.7164 42.0145 20.9187 51.4876 19.609 59.3274C19.1864 61.8571 18.3212 64.5011 16.7929 66.5873C16.0476 67.6048 15.0792 68.5257 13.8582 68.9293C12.2431 69.463 10.1704 69.044 8.55127 68.6835C7.75419 68.5062 6.97121 68.2618 6.22867 67.9209C1.03721 65.5385 -0.334273 59.3963 0.0833523 54.1909C0.376917 50.5344 1.48938 46.9873 2.93539 43.6364C3.87335 41.4626 6.05826 40.8931 8.23909 40.5852C9.88051 40.3535 12.5998 40.5458 13.7159 42.0136Z" fill="url(#paint1_linear_63_828)"/>
<path d="M15.89 39.8688C16.0751 40.8369 16.9835 45.1117 17.0194 47.0086C17.0472 48.4674 16.377 48.8215 15.9723 47.8348C14.3114 43.7808 12.2276 43.6502 9.49499 43.6253C6.48866 43.5976 5.34288 43.5069 3.58237 47.4398C2.02101 49.9207 1.88825 45.7171 2.0542 44.5072C2.23516 42.7854 2.42477 41.2101 2.77396 39.7985C5.90759 27.8678 13.8131 30.4694 15.89 39.8688Z" fill="#E6D59A"/>
<path d="M13.709 41.9679C13.7095 41.9688 20.901 51.4493 19.5933 59.2952C19.1713 61.8269 18.3074 64.4729 16.7814 66.5607C16.0372 67.579 15.0703 68.5007 13.8511 68.9045C12.2384 69.4386 10.1689 69.0193 8.55215 68.6586C7.75627 68.4811 6.97443 68.2366 6.233 67.8953C1.04934 65.5111 -0.320079 59.3642 0.0969188 54.1547C0.390043 50.4954 1.50084 46.9455 2.94468 43.592C3.88122 41.4166 6.06286 40.8466 8.24041 40.5385C9.87936 40.3066 12.5946 40.4986 13.709 41.9679Z" fill="url(#paint2_linear_63_828)"/>
<defs>
<linearGradient id="paint0_linear_63_828" x1="4.60502" y1="23.3624" x2="14.2097" y2="23.0667" gradientUnits="userSpaceOnUse">
<stop stop-color="#BFAB8D"/>
<stop offset="0.5078" stop-color="#E7E1D2"/>
<stop offset="1" stop-color="#CCBFA6"/>
</linearGradient>
<linearGradient id="paint1_linear_63_828" x1="-6.27677" y1="54.5388" x2="26.7316" y2="55.1301" gradientUnits="userSpaceOnUse">
<stop stop-color="#94938C"/>
<stop offset="0.0617" stop-color="#A4A29B"/>
<stop offset="0.1809" stop-color="#CCCAC2"/>
<stop offset="0.2666" stop-color="#EDEBE1"/>
<stop offset="0.7117" stop-color="#EDEBE1"/>
<stop offset="0.7719" stop-color="#E0DED5"/>
<stop offset="0.883" stop-color="#BEBDB4"/>
<stop offset="1" stop-color="#94938C"/>
</linearGradient>
<linearGradient id="paint2_linear_63_828" x1="-5.48278" y1="54.5164" x2="26.3277" y2="55.085" gradientUnits="userSpaceOnUse">
<stop stop-color="#94938C"/>
<stop offset="0.2666" stop-color="#EDEBE1"/>
<stop offset="0.7117" stop-color="#EDEBE1"/>
<stop offset="1" stop-color="#94938C"/>
</linearGradient>
</defs>
</svg>
