<svg width="20" height="61" viewBox="0 0 20 61" fill="none" xmlns="http://www.w3.org/2000/svg">
<path d="M13.3655 34.8295C13.3655 34.8295 16.6377 36.1366 17.6197 43.6517C17.6197 43.6517 18.6013 51.4939 18.9288 53.7811C19.2559 56.0683 19.2559 59.009 15.6566 59.9891C12.0568 60.9692 8.7846 60.3156 6.82098 59.6625C4.85736 59.0094 1.91216 57.0484 1.25762 54.7612C0.603079 52.474 1.25761 41.3645 2.2392 39.4039C3.22078 37.4432 5.51143 32.2153 13.3655 34.8295Z" fill="url(#paint0_linear_63_936)"/>
<path d="M10.0943 3.78064C10.0943 3.78064 17.2823 19.4688 14.3433 35.9793C14.3433 35.9793 3.92121 34.7459 3.40576 37.5701C4.86755 30.7016 5.5698 23.4732 5.28208 16.4618C5.16526 13.6172 4.96436 10.7767 4.88436 7.9307C4.83254 6.07756 4.50982 3.96033 5.30662 2.23424C5.64116 1.50868 6.19433 0.442354 7.10204 0.357502C8.64291 0.213661 9.63244 2.72021 10.0943 3.78064Z" fill="url(#paint1_linear_63_936)"/>
<path d="M15.803 33.441C15.9877 34.4106 16.8943 38.6921 16.9302 40.5919C16.9579 42.053 16.289 42.4082 15.8851 41.4194C14.2275 37.3591 12.1478 37.2283 9.42061 37.2033C6.42022 37.1756 5.2767 37.0848 3.51967 41.0238C1.96139 43.5086 1.8289 39.2984 1.99452 38.0867C2.17513 36.3622 2.36434 34.7844 2.71284 33.3706C5.84028 21.4212 13.7301 24.0268 15.803 33.441Z" fill="#E6D59A"/>
<defs>
<linearGradient id="paint0_linear_63_936" x1="23.5433" y1="47.9499" x2="-2.49901" y2="46.6432" gradientUnits="userSpaceOnUse">
<stop stop-color="#94938C"/>
<stop offset="0.1599" stop-color="#D1CFC6"/>
<stop offset="0.2296" stop-color="#EDEBE1"/>
<stop offset="0.7988" stop-color="#EDEBE1"/>
<stop offset="0.9762" stop-color="#9F9E96"/>
<stop offset="1" stop-color="#94938C"/>
</linearGradient>
<linearGradient id="paint1_linear_63_936" x1="6.04027" y1="18.9735" x2="15.0384" y2="19.1346" gradientUnits="userSpaceOnUse">
<stop stop-color="#BFAB8D"/>
<stop offset="0.5078" stop-color="#E7E1D2"/>
<stop offset="1" stop-color="#CCBFA6"/>
</linearGradient>
</defs>
</svg>
