<svg width="26" height="75" viewBox="0 0 26 75" fill="none" xmlns="http://www.w3.org/2000/svg">
<path d="M13.0081 0.83969C14.56 2.36512 15.3335 5.61783 16.1146 7.60365C18.503 13.6745 20.3183 19.9795 21.3701 26.4218C21.8938 29.6283 22.2283 32.8665 22.3557 36.1133C22.4201 37.7462 22.4324 39.381 22.3911 41.0148C22.3576 42.352 22.5779 44.2966 22.0225 45.5095C21.3388 44.7365 20.8519 43.8071 20.1283 43.0637C18.3593 41.2457 16.072 39.9457 13.4891 39.9443C12.3988 39.9439 11.3275 40.1652 10.3087 40.5376C9.89526 40.6887 9.49085 40.8642 9.09687 41.0602C7.94758 41.6317 6.56432 43.3567 5.34112 43.4497C5.1625 41.0579 5.7673 38.3735 5.99444 35.9749C5.99444 29.8859 7.19678 23.4553 8.1076 17.4475C8.38144 15.6404 8.79356 13.8573 8.75547 12.0248C8.71603 10.1329 8.50386 8.24322 8.63217 6.34993C8.74732 4.65485 8.9595 0.561185 11.293 0.301276C11.7518 0.25002 12.2034 0.420115 12.6336 0.58749C12.7714 0.641468 12.8952 0.729014 13.0081 0.83969Z" fill="url(#paint0_linear_63_921)"/>
<path d="M25.2818 69.504C25.2818 69.504 27.5683 42.6863 15.4825 38.7614C15.4825 38.7614 1.76305 36.4721 0.456803 60.3464C0.419624 61.0273 0.31398 61.7046 0.284963 62.3883C0.222394 63.88 0.276347 65.3876 0.533425 66.8602C0.803651 68.4068 1.30873 70.0052 2.3588 71.2068C2.86797 71.7892 3.50319 72.2513 4.2241 72.5346C4.84888 72.7802 5.5367 72.8723 6.19231 73.0076C6.99937 73.1738 7.80823 73.3299 8.62163 73.4607C9.06053 73.531 9.50122 73.5946 9.94238 73.6477C11.5642 73.8433 13.1991 73.9051 14.8318 73.9668C17.4838 74.0671 20.2323 74.1992 22.7097 73.0635C24.1755 72.3916 25.2818 71.1864 25.2818 69.504Z" fill="url(#paint1_linear_63_921)"/>
<path d="M4.31487 36.412C4.06168 37.8061 2.82113 43.9621 2.77212 46.693C2.73446 48.7935 3.65013 49.3041 4.20234 47.8828C6.47108 42.0451 9.31791 41.8571 13.0504 41.8208C17.1573 41.7809 18.7223 41.6501 21.1272 47.3136C23.2598 50.8857 23.4413 44.8332 23.2144 43.0905C22.9671 40.611 22.7085 38.3422 22.2316 36.3094C17.9509 19.1302 7.15171 22.8766 4.31487 36.412Z" fill="#E6D59A"/>
<defs>
<linearGradient id="paint0_linear_63_921" x1="18.6907" y1="22.8661" x2="5.21838" y2="23.1068" gradientUnits="userSpaceOnUse">
<stop stop-color="#BFAB8D"/>
<stop offset="0.5078" stop-color="#E7E1D2"/>
<stop offset="1" stop-color="#CCBFA6"/>
</linearGradient>
<linearGradient id="paint1_linear_63_921" x1="30.3538" y1="56.359" x2="-4.64691" y2="56.3768" gradientUnits="userSpaceOnUse">
<stop stop-color="#94938C"/>
<stop offset="0.2296" stop-color="#EDEBE1"/>
<stop offset="0.7876" stop-color="#EDEBE1"/>
<stop offset="1" stop-color="#94938C"/>
</linearGradient>
</defs>
</svg>
