<svg width="27" height="75" viewBox="0 0 27 75" fill="none" xmlns="http://www.w3.org/2000/svg">
<path d="M13.3991 0.884612C11.8455 2.41004 11.0712 5.66275 10.2892 7.64857C7.89823 13.7195 6.08097 20.0244 5.028 26.4668C4.50379 29.6732 4.16883 32.9114 4.0413 36.1582C3.97685 37.7911 3.9646 39.4259 4.0059 41.0597C4.03949 42.3969 3.81891 44.3415 4.37489 45.5544C5.05931 44.7815 5.54675 43.852 6.27112 43.1086C8.04209 41.2906 10.3318 39.9906 12.9175 39.9893C14.009 39.9888 15.0815 40.2102 16.1014 40.5826C16.5153 40.7336 16.9201 40.9091 17.3145 41.1051C18.4651 41.6766 19.8498 43.4016 21.0743 43.4946C21.2531 41.1028 20.6477 38.4185 20.4203 36.0199C20.4203 29.9308 19.2167 23.5003 18.3048 17.4924C18.0307 15.6853 17.6182 13.9023 17.6563 12.0697C17.6958 10.1778 17.9082 8.28815 17.7797 6.39485C17.6645 4.69978 17.4521 0.606107 15.116 0.346198C14.6567 0.294942 14.2046 0.465036 13.7739 0.632412C13.6355 0.68639 13.5116 0.773936 13.3991 0.884612Z" fill="url(#paint0_linear_63_926)"/>
<path d="M1.11078 69.5489C1.11078 69.5489 -1.17573 42.7312 10.9101 38.8064C10.9101 38.8064 24.6295 36.5171 25.9358 60.3913C25.973 61.0723 26.0786 61.7496 26.1076 62.4332C26.1702 63.9249 26.1162 65.4325 25.8592 66.9051C25.5889 68.4517 25.0839 70.0501 24.0338 71.2517C23.5246 71.8341 22.8894 72.2962 22.1685 72.5795C21.5437 72.8251 20.8559 72.9173 20.2003 73.0525C19.3932 73.2187 18.5844 73.3748 17.771 73.5056C17.3321 73.5759 16.8914 73.6395 16.4502 73.6926C14.8284 73.8883 13.1934 73.95 11.5607 74.0117C8.90881 74.1121 6.16029 74.2442 3.68292 73.1084C2.21753 72.4365 1.11078 71.2313 1.11078 69.5489Z" fill="url(#paint1_linear_63_926)"/>
<path d="M22.0969 36.4569C22.3501 37.851 23.5906 44.007 23.6396 46.738C23.6773 48.8384 22.7616 49.3491 22.2094 47.9278C19.9407 42.09 17.0939 41.902 13.3613 41.8657C9.25443 41.8258 7.68945 41.695 5.28458 47.3585C3.15196 50.9306 2.97047 44.8781 3.19734 43.1354C3.44463 40.656 3.70328 38.3871 4.18017 36.3543C8.46038 19.1751 19.2596 22.9215 22.0969 36.4569Z" fill="#E6D59A"/>
<defs>
<linearGradient id="paint0_linear_63_926" x1="7.70998" y1="22.911" x2="21.1969" y2="23.1522" gradientUnits="userSpaceOnUse">
<stop stop-color="#BFAB8D"/>
<stop offset="0.5078" stop-color="#E7E1D2"/>
<stop offset="1" stop-color="#CCBFA6"/>
</linearGradient>
<linearGradient id="paint1_linear_63_926" x1="-3.96106" y1="56.4039" x2="31.0397" y2="56.4217" gradientUnits="userSpaceOnUse">
<stop stop-color="#94938C"/>
<stop offset="0.2296" stop-color="#EDEBE1"/>
<stop offset="0.7876" stop-color="#EDEBE1"/>
<stop offset="1" stop-color="#94938C"/>
</linearGradient>
</defs>
</svg>
