<svg width="23" height="38" viewBox="0 0 23 38" fill="none" xmlns="http://www.w3.org/2000/svg">
<path d="M6.29993 3.06294C5.77198 1.3118 7.38363 0.46448 8.773 1.45303C11.4406 3.34539 12.8299 6.56523 14.0248 9.53086C14.5805 10.8866 17.0814 15.6598 15.4975 16.9591C13.9414 18.2301 8.27283 16.3377 8.18947 13.1744C8.16168 11.4515 8.21725 9.72857 7.96717 8.03392C7.74487 6.1698 6.8001 4.78584 6.29993 3.06294Z" fill="url(#paint0_linear_144_5926)"/>
<path d="M22.0832 27.3812C23.0557 20.9697 23.0279 13.2308 20.2214 7.29956C19.5823 5.9156 18.6931 4.64461 17.6372 3.57133C17.2204 3.14767 14.7473 0.577446 14.2472 1.19882C13.7192 1.84843 14.1916 3.28889 14.3027 3.99499C14.4695 5.18125 14.6084 6.39575 14.7195 7.58201C14.9696 10.011 15.5809 12.666 14.9418 15.095C14.8029 15.6316 14.4695 16.1682 13.9415 16.3377C13.6636 16.4224 13.358 16.4224 13.0801 16.3377C11.3017 15.9423 10.0235 14.1347 8.912 12.7789C7.35592 10.8583 6.43894 8.71177 5.66089 6.39575C5.27187 5.26598 4.85506 4.16445 3.88251 3.40186C3.66021 3.2324 1.40945 0.407981 1.04821 0.492713C-0.118853 0.775155 0.297957 3.96675 0.325744 4.7011C0.659191 10.3499 4.71613 20.3766 4.71613 20.3766C4.71613 20.3766 5.68868 26.6751 4.71613 28.6804C3.77136 30.714 20.7772 30.714 22.0832 27.3812Z" fill="url(#paint1_linear_144_5926)"/>
<path d="M17.8595 29.443C17.5538 31.6178 17.2204 33.8208 16.9147 35.9956C16.9147 35.9956 16.7202 37.4078 15.2197 37.5491C13.7192 37.6903 11.1628 37.6056 10.9961 37.5773C10.0513 37.4361 9.77342 36.9277 9.63448 36.617C9.6067 36.5605 9.6067 36.5323 9.52333 36.1651C9.32882 35.2613 9.27325 34.8659 9.27325 34.8659C9.07874 33.6514 8.88423 32.2392 8.66193 30.7422C8.60636 30.4315 8.57857 30.1773 8.55078 30.0079C8.88423 30.0079 9.18989 30.0361 9.52333 30.0361C9.80121 32.1262 10.0513 34.2163 10.3292 36.2781C10.3292 36.2781 15.9422 32.7476 15.97 32.7193C15.9978 32.6911 16.8314 30.2056 16.8314 30.2056C16.8036 30.0361 16.7758 29.8384 16.748 29.6689C17.137 29.5842 17.4983 29.5277 17.8595 29.443Z" fill="url(#paint2_linear_144_5926)"/>
<path d="M14.0805 37.3231C14.0805 37.3231 16.2201 37.3514 16.4424 36.1369C16.6925 34.8941 17.3594 30.4598 17.3594 30.4598C17.3594 30.4598 17.3038 29.4713 16.1367 28.9911C14.9697 28.5392 13.9415 27.0705 13.886 26.5339C13.8582 25.969 13.886 14.5583 13.886 14.5583C13.886 14.5583 13.8582 13.824 13.1079 13.824V37.3231C13.1357 37.3231 14.0527 37.3231 14.0805 37.3231Z" fill="#564E53"/>
<path d="M12.3018 37.3795C12.3018 37.3795 10.1622 37.4078 9.93993 36.1933C9.68984 34.9505 9.02295 30.5162 9.02295 30.5162C9.02295 30.5162 9.07852 29.5277 10.2456 29.0475C11.4127 28.5956 12.4408 27.1269 12.4964 26.5903C12.5241 26.0254 12.4964 14.6147 12.4964 14.6147C12.4964 14.6147 12.5241 13.8804 13.2744 13.8804V37.3795C13.2744 37.3795 12.3574 37.3795 12.3018 37.3795Z" fill="#544E52"/>
<path d="M14.2191 37.3795C14.2191 37.3795 16.3588 37.4078 16.581 36.1933C16.8311 34.9505 17.498 30.5162 17.498 30.5162C17.498 30.5162 17.4425 29.5277 16.2754 29.0475C15.1083 28.5956 14.0802 27.1269 14.0246 26.5903C13.9968 26.0254 14.0246 14.6147 14.0246 14.6147C14.0246 14.6147 13.9968 13.8804 13.2466 13.8804V37.3795C13.2744 37.3795 14.1913 37.3795 14.2191 37.3795Z" fill="#544E52"/>
<path d="M11.5518 28.8781L11.6907 28.7934C11.9964 28.6522 12.1353 28.2567 11.9686 27.9461L6.13327 15.8293C5.99434 15.5186 5.60532 15.3774 5.29966 15.5469L5.16072 15.6316C4.85506 15.7728 4.71612 16.1682 4.88285 16.4789L10.7182 28.5957C10.8849 28.9064 11.2461 29.0193 11.5518 28.8781Z" fill="#544E52"/>
<path d="M21.3607 13.8522L21.2217 13.7957C20.8883 13.6545 20.527 13.8239 20.4159 14.1628L14.9974 28.2002C14.8584 28.5391 15.0252 28.9063 15.3586 29.0193L15.4975 29.0758C15.831 29.217 16.1922 29.0475 16.3034 28.7086L21.7219 14.6712C21.8608 14.3323 21.6941 13.9651 21.3607 13.8522Z" fill="#544E52"/>
<defs>
<linearGradient id="paint0_linear_144_5926" x1="12.835" y1="17.8312" x2="5.3955" y2="-18.1212" gradientUnits="userSpaceOnUse">
<stop offset="0.1599" stop-color="#C4AB89"/>
<stop offset="0.5078" stop-color="#E8E1D1"/>
<stop offset="0.7297" stop-color="#D0BFA4"/>
</linearGradient>
<linearGradient id="paint1_linear_144_5926" x1="28.0259" y1="15.2183" x2="0.93455" y2="15.3146" gradientUnits="userSpaceOnUse">
<stop offset="0.1599" stop-color="#C4AB89"/>
<stop offset="0.5078" stop-color="#E8E1D1"/>
<stop offset="0.7297" stop-color="#D0BFA4"/>
</linearGradient>
<linearGradient id="paint2_linear_144_5926" x1="17.8604" y1="33.5346" x2="8.54817" y2="33.5346" gradientUnits="userSpaceOnUse">
<stop stop-color="#94938C"/>
<stop offset="0.2296" stop-color="#EDEBE0"/>
<stop offset="0.7876" stop-color="#EDEBE0"/>
<stop offset="1" stop-color="#94938C"/>
</linearGradient>
</defs>
</svg>
