<svg width="13" height="45" viewBox="0 0 13 45" fill="none" xmlns="http://www.w3.org/2000/svg">
<path d="M5.78566 4.01794C5.78566 4.01794 -1.38344 19.9477 1.53422 36.7247C1.53422 36.7247 11.9266 35.482 12.4546 38.3346C10.9819 31.3583 10.2872 24.0148 10.5928 16.8973C10.704 14.0164 10.8985 11.1072 10.9819 8.22632C11.0374 6.33396 11.3431 4.1874 10.5651 2.43626C10.2316 1.70191 9.67586 0.628639 8.78667 0.515662C7.23059 0.374441 6.23025 2.91642 5.78566 4.01794Z" fill="url(#paint0_linear_144_6052)"/>
<path d="M1.75635 36.6965L2.61775 42.9102C2.61775 42.9102 2.81227 44.4354 4.31278 44.5766C5.81329 44.7178 8.36972 44.6331 8.53644 44.6049C8.70316 44.5766 9.64792 44.1812 9.89801 43.5598C10.1203 42.9102 10.8706 37.0072 10.8706 37.0072L10.5649 36.6965L9.14775 43.1926C9.14775 43.1926 3.53473 39.3514 3.50694 39.3232C3.47915 39.2949 2.64554 36.6117 2.64554 36.6117L2.17316 36.5835L1.75635 36.6965Z" fill="url(#paint1_linear_144_6052)"/>
<path d="M7.34169 44.3507C7.34169 44.3507 9.48131 44.3789 9.70361 43.0515C9.9537 41.6957 10.6206 36.8942 10.6206 36.8942C10.6206 36.8942 10.565 35.8209 9.39796 35.3125C8.23089 34.8042 7.20277 33.2507 7.1472 32.6294C7.09162 32.008 7.1472 19.637 7.1472 19.637C7.1472 19.637 7.1194 18.8462 6.36914 18.8462V44.3225C6.39693 44.3507 7.31391 44.3507 7.34169 44.3507Z" fill="#544E52"/>
<path d="M5.4244 44.3507C5.4244 44.3507 3.28478 44.3789 3.06248 43.0515C2.8124 41.6957 2.14551 36.8942 2.14551 36.8942C2.14551 36.8942 2.20107 35.8209 3.36814 35.3125C4.5352 34.8042 5.56334 33.2507 5.61892 32.6294C5.6467 32.008 5.61892 19.637 5.61892 19.637C5.61892 19.637 5.6467 18.8462 6.39696 18.8462V44.3225C6.39696 44.3507 5.47998 44.3507 5.4244 44.3507Z" fill="#544E52"/>
<defs>
<linearGradient id="paint0_linear_144_6052" x1="9.82759" y1="19.446" x2="0.847142" y2="19.6039" gradientUnits="userSpaceOnUse">
<stop stop-color="#C4AB89"/>
<stop offset="0.5078" stop-color="#E8E1D1"/>
<stop offset="1" stop-color="#D0BFA4"/>
</linearGradient>
<linearGradient id="paint1_linear_144_6052" x1="1.76471" y1="40.63" x2="10.8896" y2="40.63" gradientUnits="userSpaceOnUse">
<stop stop-color="#94938C"/>
<stop offset="0.2296" stop-color="#EDEBE0"/>
<stop offset="0.7876" stop-color="#EDEBE0"/>
<stop offset="1" stop-color="#94938C"/>
</linearGradient>
</defs>
</svg>
