<svg width="12" height="43" viewBox="0 0 12 43" fill="none" xmlns="http://www.w3.org/2000/svg">
<path d="M1.05015 35.5309C1.08644 35.5604 1.13 35.5835 1.18307 35.598C1.44982 35.6729 2.2718 35.2705 2.56259 35.1942C3.52658 34.942 4.50148 34.7311 5.48226 34.5555C6.52156 34.3695 7.57128 34.193 8.62964 34.1844C9.18989 34.1798 9.75331 34.2189 10.3018 34.3377C10.789 34.4434 11.3138 34.7773 11.7752 34.8191C12.1113 33.5084 11.7702 31.9841 11.6922 30.653C11.6055 29.1732 11.4694 27.6965 11.2848 26.2257C10.9387 23.4656 10.2496 20.8084 9.74742 18.0832C9.25839 15.4325 9.12229 12.6302 9.18081 9.93083C9.20803 8.66146 9.28516 7.38983 9.43078 6.12863C9.55462 5.05208 9.8649 4.08848 9.75466 2.97291C9.64261 1.83874 9.11049 0.121158 7.61301 0.585714C6.48571 0.935493 5.78393 2.17536 5.21506 3.11808C4.1313 4.91325 3.34242 6.86901 2.61568 8.83567C1.88985 10.7996 1.22072 12.7976 0.841931 14.8608C0.511225 16.6605 0.551601 18.4221 0.582902 20.2391C0.631896 23.1235 0.700846 26.0075 0.772068 28.8914C0.817886 30.7524 0.711729 32.6936 0.858256 34.5809C0.884568 34.9338 0.832851 35.353 1.05015 35.5309Z" fill="url(#paint0_linear_91_12516)"/>
<path d="M1.75781 34.2551L2.60979 40.3737C2.60979 40.3737 2.81167 41.8727 4.31013 42.0165C5.80859 42.1603 8.37407 42.0741 8.54692 42.0455C8.71977 42.0165 9.6711 41.6422 9.90156 41.008C10.132 40.3737 10.8833 34.5626 10.8833 34.5626L10.5902 34.2696L9.18114 40.6623C9.18114 40.6623 3.56113 36.8868 3.53209 36.8578C3.50306 36.8287 2.6674 34.1775 2.6674 34.1775L2.20603 34.1484L1.75781 34.2551Z" fill="url(#paint1_linear_91_12516)"/>
<path d="M7.34376 41.7867C7.34376 41.7867 9.47077 41.828 9.7185 40.5064C9.96622 39.1849 10.6268 34.4567 10.6268 34.4567C10.6268 34.4567 10.5592 33.387 9.4059 32.8997C8.25211 32.4125 7.19903 30.8641 7.15774 30.2653C7.11645 29.6664 7.15774 17.4858 7.15774 17.4858C7.15774 17.4858 7.13598 16.7109 6.38281 16.7109V41.7867C6.38327 41.7867 7.29612 41.7867 7.34376 41.7867Z" fill="#534E52"/>
<path d="M5.42372 41.7867C5.42372 41.7867 3.2967 41.828 3.04897 40.5064C2.80124 39.1849 2.14062 34.4567 2.14062 34.4567C2.14062 34.4567 2.20821 33.387 3.36156 32.8997C4.51537 32.4125 5.56846 30.8641 5.60974 30.2653C5.65103 29.6664 5.60974 17.4858 5.60974 17.4858C5.60974 17.4858 5.6315 16.7109 6.38467 16.7109V41.7867C6.38422 41.7867 5.47136 41.7867 5.42372 41.7867Z" fill="#534E52"/>
<defs>
<linearGradient id="paint0_linear_91_12516" x1="14.6845" y1="19.1062" x2="0.325701" y2="17.5984" gradientUnits="userSpaceOnUse">
<stop stop-color="#BFAB8D"/>
<stop offset="0.5078" stop-color="#E7E1D2"/>
<stop offset="1" stop-color="#CCBFA6"/>
</linearGradient>
<linearGradient id="paint1_linear_91_12516" x1="1.75781" y1="38.1229" x2="10.8832" y2="38.1229" gradientUnits="userSpaceOnUse">
<stop stop-color="#94938C"/>
<stop offset="0.2296" stop-color="#EDEBE1"/>
<stop offset="0.7876" stop-color="#EDEBE1"/>
<stop offset="1" stop-color="#94938C"/>
</linearGradient>
</defs>
</svg>
