<svg width="24" height="41" viewBox="0 0 24 41" fill="none" xmlns="http://www.w3.org/2000/svg">
<path d="M12.5634 2.55475C12.5634 2.55475 13.4803 0.464678 15.3143 1.00132C17.1482 1.53796 17.7873 6.39596 17.4539 9.98297C17.1204 13.57 15.5644 24.9806 12.8412 25.2066C10.1459 25.4325 5.19977 18.9929 7.45052 15.3776C9.67349 11.7623 13.397 5.4639 12.5634 2.55475Z" fill="url(#paint0_linear_144_6583)"/>
<path d="M0.753906 34.5272C2.05991 33.6799 4.28286 32.4936 7.22831 31.957C9.6458 31.5333 11.5353 31.7028 12.7858 31.844C14.5086 32.0135 17.0928 32.4936 20.0382 33.8494C20.0938 33.1433 20.1772 32.0417 20.205 30.686C20.2327 29.8387 20.1772 29.3303 20.205 29.0761C20.4828 27.1555 21.5387 25.3196 21.9555 23.3708C22.4557 21.1395 22.7892 18.8517 23.0115 16.5639C23.2338 14.1349 23.3171 11.6777 23.0115 9.24867C22.8725 8.20363 22.7058 7.1586 22.289 6.17005C21.9833 5.40746 21.2053 3.93876 20.2327 4.05173C19.8715 4.07998 19.5381 4.30593 19.288 4.56013C18.76 5.04028 18.3988 5.6899 18.1487 6.36776C17.6485 7.77997 17.6485 9.27691 17.5652 10.7456C17.454 12.2708 17.065 13.6548 16.7316 15.1517C16.1202 17.8914 15.37 21.1112 13.6194 23.3425C13.2026 23.8792 12.5357 24.3311 11.8688 24.2746C11.5076 24.2463 11.2019 24.0769 10.8962 23.8792C9.86811 23.1166 9.34014 21.8173 9.14563 20.5463C8.7844 17.9196 9.06226 15.0387 9.75694 12.4968C10.1737 10.9998 10.8962 9.67233 11.3686 8.20363C11.841 6.6502 12.5079 3.59983 10.3683 3.0067C9.50687 2.78075 8.58987 3.20441 7.95077 3.85403C5.56107 6.19829 3.94944 9.64409 2.56008 12.6662C1.69867 14.5021 0.892836 16.4227 0.364879 18.3715C-0.0519296 19.925 0.0869997 21.196 0.114787 21.9586C0.198149 26.873 0.559396 32.07 0.753906 34.5272Z" fill="url(#paint1_linear_144_6583)"/>
<path d="M5.2832 32.5782C5.56107 34.6683 5.83895 36.7866 6.11682 38.8767C6.11682 38.8767 6.31132 40.4019 7.81183 40.5431C9.31233 40.6843 11.8688 40.5996 12.0355 40.5713C12.5634 40.4866 13.0358 40.2324 13.2859 39.7523C13.536 39.3003 13.5638 38.7355 13.6193 38.2271C13.7583 37.3515 13.7027 38.1141 14.0639 35.4309C14.2584 33.9622 14.3974 32.5217 14.3974 32.5217C14.3974 32.5217 14.2307 32.4935 14.0084 32.437C13.5638 34.6965 13.1192 36.9278 12.6746 39.1874C12.6746 39.1874 7.06159 35.3462 7.03381 35.3179C7.00602 35.2897 6.17241 32.6065 6.17241 32.6065C6.17241 32.5782 6.20019 32.55 6.20019 32.5217C5.89453 32.5217 5.58886 32.55 5.2832 32.5782Z" fill="url(#paint2_linear_144_6583)"/>
<path d="M10.8685 40.3171C10.8685 40.3171 13.0081 40.3454 13.2304 39.0179C13.4805 37.6622 14.1474 32.8607 14.1474 32.8607C14.1474 32.8607 14.0918 31.7874 12.9248 31.279C11.7577 30.7706 10.7296 29.2172 10.674 28.5958C10.6463 27.9744 10.674 15.6035 10.674 15.6035C10.674 15.6035 10.6462 14.8126 9.896 14.8126V40.2889C9.896 40.3171 10.813 40.3171 10.8685 40.3171Z" fill="#544E52"/>
<path d="M8.92343 40.3171C8.92343 40.3171 6.7838 40.3454 6.5615 39.0179C6.31141 37.6622 5.64453 32.8607 5.64453 32.8607C5.64453 32.8607 5.70011 31.7874 6.86719 31.279C8.03426 30.7706 9.06239 29.2172 9.11797 28.5958C9.17354 27.9744 9.11797 15.6035 9.11797 15.6035C9.11797 15.6035 9.14573 14.8126 9.896 14.8126V40.2889C9.896 40.3171 8.97901 40.3171 8.92343 40.3171Z" fill="#544E52"/>
<path d="M10.6737 32.55L10.5347 32.4652C10.2291 32.324 10.0901 31.9286 10.2569 31.6179L16.1478 19.4447C16.2867 19.134 16.6758 18.9928 16.9814 19.1622L17.1204 19.2469C17.426 19.3882 17.565 19.7836 17.3982 20.0943L11.5073 32.2675C11.3684 32.55 11.0071 32.6912 10.6737 32.55Z" fill="#544E52"/>
<path d="M5.36645 19.4729L5.53317 19.4446C5.86662 19.3599 6.20006 19.5858 6.28342 19.9248L9.36786 33.1431C9.45122 33.482 9.2289 33.8209 8.89545 33.9057L8.72873 33.9339C8.39528 34.0186 8.06185 33.7927 7.97848 33.4537L4.89404 20.2355C4.81068 19.8965 5.033 19.5576 5.36645 19.4729Z" fill="#544E52"/>
<defs>
<linearGradient id="paint0_linear_144_6583" x1="9.13926" y1="24.001" x2="28.2248" y2="-21.8893" gradientUnits="userSpaceOnUse">
<stop offset="0.1599" stop-color="#C4AB89"/>
<stop offset="0.5078" stop-color="#E8E1D1"/>
<stop offset="0.7297" stop-color="#D0BFA4"/>
</linearGradient>
<linearGradient id="paint1_linear_144_6583" x1="21.9237" y1="18.0577" x2="1.0135" y2="18.9879" gradientUnits="userSpaceOnUse">
<stop offset="0.1599" stop-color="#C4AB89"/>
<stop offset="0.5078" stop-color="#E8E1D1"/>
<stop offset="0.7297" stop-color="#D0BFA4"/>
</linearGradient>
<linearGradient id="paint2_linear_144_6583" x1="5.27551" y1="36.5288" x2="14.4339" y2="36.5288" gradientUnits="userSpaceOnUse">
<stop stop-color="#94938C"/>
<stop offset="0.2296" stop-color="#EDEBE0"/>
<stop offset="0.7876" stop-color="#EDEBE0"/>
<stop offset="1" stop-color="#94938C"/>
</linearGradient>
</defs>
</svg>
