<svg width="23" height="39" viewBox="0 0 23 39" fill="none" xmlns="http://www.w3.org/2000/svg">
<path d="M16.581 3.26082C17.109 1.50968 15.4973 0.662356 14.1079 1.6509C11.4403 3.54326 10.051 6.7631 8.8561 9.72874C8.30035 11.0845 5.79951 15.8577 7.38339 17.157C8.93949 18.428 14.6081 16.5356 14.6915 13.3722C14.7192 11.6494 14.6637 9.92645 14.9138 8.2318C15.1361 6.36768 16.0808 4.98372 16.581 3.26082Z" fill="url(#paint0_linear_144_6585)"/>
<path d="M0.797903 27.5791C-0.174652 21.1676 -0.146844 13.4287 2.65967 7.49744C3.29878 6.11347 4.18795 4.84248 5.24387 3.7692C5.66068 3.34554 8.13377 0.775322 8.63394 1.39669C9.16189 2.04631 8.68949 3.48676 8.57834 4.19287C8.41162 5.37912 8.27268 6.59362 8.16153 7.77988C7.91145 10.2089 7.30015 12.8638 7.93925 15.2928C8.07819 15.8295 8.41163 16.3661 8.93959 16.5356C9.21746 16.6203 9.52312 16.6203 9.80099 16.5356C11.5794 16.1402 12.8576 14.3325 13.9691 12.9768C15.5252 11.0562 16.4422 8.90965 17.2202 6.59363C17.6092 5.46386 18.026 4.36233 18.9986 3.59974C19.2209 3.43028 21.4717 0.605857 21.8329 0.690589C23 0.973031 22.5831 4.16462 22.5554 4.89897C22.2219 10.5478 18.165 20.5745 18.165 20.5745C18.165 20.5745 17.1924 26.873 18.165 28.8783C19.1097 30.8836 2.10391 30.8836 0.797903 27.5791Z" fill="url(#paint1_linear_144_6585)"/>
<path d="M4.57666 29.5562C4.91011 32.0416 5.21577 34.5271 5.54922 37.0126C5.54922 37.0126 5.74373 38.5378 7.24425 38.679C8.74477 38.8202 11.3012 38.7355 11.4679 38.7073C11.9959 38.6225 12.4683 38.3683 12.7184 37.8882C12.9685 37.4363 12.9963 36.8714 13.0518 36.363C13.1908 35.4874 13.1352 36.25 13.4964 33.5668C13.552 33.1714 13.5798 32.8325 13.6354 32.55C13.7187 31.8439 13.7465 31.4485 13.8576 30.6577C13.8854 30.46 13.9132 30.3187 13.9132 30.2058C13.6354 30.234 13.3297 30.2623 13.024 30.234C12.9962 30.234 12.9407 30.234 12.9129 30.234C12.6628 32.5783 12.3849 34.9508 12.1348 37.295C12.1348 37.295 6.52175 33.4538 6.49397 33.4256C6.46618 33.3974 5.63256 30.7142 5.63256 30.7142C5.66035 30.4035 5.71593 30.0928 5.74372 29.7821C5.32691 29.6974 4.9379 29.6126 4.57666 29.5562Z" fill="url(#paint2_linear_144_6585)"/>
<path d="M10.245 38.4248C10.245 38.4248 12.3847 38.453 12.607 37.1256C12.857 35.7698 13.524 30.9683 13.524 30.9683C13.524 30.9683 13.4684 29.895 12.3013 29.3866C11.1342 28.8783 10.1061 27.3248 10.0505 26.7034C10.0227 26.0821 10.0505 13.7111 10.0505 13.7111C10.0505 13.7111 10.0227 12.9203 9.27246 12.9203V38.3965C9.30025 38.4248 10.2172 38.4248 10.245 38.4248Z" fill="#544E52"/>
<path d="M8.32772 38.4248C8.32772 38.4248 6.18811 38.453 5.96581 37.1256C5.71573 35.7698 5.04883 30.9683 5.04883 30.9683C5.04883 30.9683 5.10441 29.895 6.27147 29.3866C7.43852 28.8783 8.46664 27.3248 8.52221 26.7034C8.57779 26.0821 8.52221 13.7111 8.52221 13.7111C8.52221 13.7111 8.55001 12.9203 9.30026 12.9203V38.3965C9.30026 38.4248 8.38329 38.4248 8.32772 38.4248Z" fill="#544E52"/>
<path d="M10.0785 30.6576L9.93953 30.5729C9.63387 30.4317 9.49493 30.0363 9.66166 29.7256L15.5526 17.5523C15.6915 17.2416 16.0806 17.1004 16.3862 17.2699L16.5252 17.3546C16.8308 17.4958 16.9698 17.8913 16.803 18.2019L10.9121 30.3752C10.7732 30.6859 10.4119 30.7988 10.0785 30.6576Z" fill="#544E52"/>
<path d="M4.7712 17.5805L4.93792 17.5523C5.27137 17.4676 5.60483 17.6935 5.6882 18.0324L8.77258 31.2507C8.85594 31.5897 8.63363 31.9286 8.30018 32.0133L8.13346 32.0416C7.80001 32.1263 7.46658 31.9003 7.38322 31.5614L4.29883 18.3431C4.21547 18.0042 4.43775 17.6653 4.7712 17.5805Z" fill="#544E52"/>
<defs>
<linearGradient id="paint0_linear_144_6585" x1="9.99476" y1="17.9347" x2="17.4343" y2="-18.0178" gradientUnits="userSpaceOnUse">
<stop offset="0.1599" stop-color="#C4AB89"/>
<stop offset="0.5078" stop-color="#E8E1D1"/>
<stop offset="0.7297" stop-color="#D0BFA4"/>
</linearGradient>
<linearGradient id="paint1_linear_144_6585" x1="-5.14485" y1="15.4062" x2="21.9466" y2="15.5025" gradientUnits="userSpaceOnUse">
<stop offset="0.1599" stop-color="#C4AB89"/>
<stop offset="0.5078" stop-color="#E8E1D1"/>
<stop offset="0.7297" stop-color="#D0BFA4"/>
</linearGradient>
<linearGradient id="paint2_linear_144_6585" x1="4.56385" y1="34.1446" x2="13.8935" y2="34.1446" gradientUnits="userSpaceOnUse">
<stop stop-color="#94938C"/>
<stop offset="0.2296" stop-color="#EDEBE0"/>
<stop offset="0.7876" stop-color="#EDEBE0"/>
<stop offset="1" stop-color="#94938C"/>
</linearGradient>
</defs>
</svg>
