<svg width="23" height="35" viewBox="0 0 23 35" fill="none" xmlns="http://www.w3.org/2000/svg">
<path d="M16.4298 2.63095C16.9633 0.895205 15.3464 0.0785987 13.9696 1.04446C11.3081 2.91132 9.91906 6.07612 8.70647 8.97871C8.14486 10.3229 5.65569 15.0189 7.23709 16.2833C8.80625 17.5377 14.4628 15.6604 14.534 12.5568C14.5725 10.8728 14.5172 9.17878 14.7426 7.50519C14.9876 5.68642 15.9067 4.33131 16.4298 2.63095Z" fill="url(#paint0_linear_91_12706)"/>
<path d="M0.637375 26.5522C-0.324842 20.2444 -0.309431 12.6337 2.4942 6.79592C3.14566 5.439 4.03258 4.19777 5.08915 3.1262C5.5038 2.70566 7.97355 0.180547 8.49299 0.802071C9.02241 1.43584 8.54379 2.85219 8.44988 3.55673C8.29292 4.73581 8.14411 5.9158 8.02117 7.09897C7.7721 9.49932 7.15198 12.1002 7.80071 14.4887C7.94362 15.0145 8.27387 15.5344 8.79195 15.7028C9.06551 15.7917 9.36356 15.7735 9.64438 15.7127C11.4218 15.3276 12.708 13.5356 13.8008 12.2209C15.3637 10.3413 16.2606 8.22996 17.0413 5.93214C17.4206 4.81612 17.8543 3.73185 18.8075 2.98829C19.037 2.80909 21.2858 0.0498932 21.6397 0.134729C22.8042 0.41328 22.4023 3.55628 22.3601 4.27081C22.0334 9.82732 17.9596 19.6882 17.9596 19.6882C17.9596 19.6882 16.9792 25.898 17.9596 27.8592C18.9404 29.8209 1.94483 29.8209 0.637375 26.5522Z" fill="url(#paint1_linear_91_12706)"/>
<path d="M5.64062 27.1214L6.49262 32.7628C6.49262 32.7628 6.69448 34.1446 8.19295 34.2776C9.69186 34.4105 12.2569 34.3306 12.4297 34.3043C12.6026 34.2776 13.5539 33.9323 13.7844 33.3475C14.0149 32.7628 14.7661 27.4054 14.7661 27.4054L14.473 27.135L13.064 33.0291C13.064 33.0291 7.44392 29.5481 7.41489 29.5213C7.38631 29.4946 6.55022 27.0502 6.55022 27.0502L6.08884 27.0234L5.64062 27.1214Z" fill="url(#paint2_linear_91_12706)"/>
<path d="M11.226 34.0637C11.226 34.0637 13.3528 34.1018 13.6005 32.8837C13.8482 31.6656 14.5092 27.3063 14.5092 27.3063C14.5092 27.3063 14.4416 26.3201 13.2884 25.8709C12.1352 25.4218 11.0818 23.9941 11.0405 23.442C10.9992 22.8899 11.0405 11.6598 11.0405 11.6598C11.0405 11.6598 11.0187 10.9453 10.2656 10.9453V34.0637C10.2652 34.0637 11.178 34.0637 11.226 34.0637Z" fill="#534E52"/>
<path d="M9.30665 34.0637C9.30665 34.0637 7.17985 34.1018 6.93215 32.8837C6.68445 31.6656 6.02344 27.3063 6.02344 27.3063C6.02344 27.3063 6.09104 26.3201 7.24427 25.8709C8.39749 25.4218 9.45091 23.9941 9.49219 23.442C9.53347 22.8899 9.49219 11.6598 9.49219 11.6598C9.49219 11.6598 9.51397 10.9453 10.2671 10.9453V34.0637C10.2671 34.0637 9.35428 34.0637 9.30665 34.0637Z" fill="#534E52"/>
<path d="M11.0932 34.1106C11.0932 34.1106 13.22 34.1487 13.4677 32.9306C13.7154 31.7125 14.3764 27.3532 14.3764 27.3532C14.3764 27.3532 14.3088 26.3669 13.1556 25.9178C12.0024 25.4687 10.949 24.041 10.9077 23.4889C10.8664 22.9368 10.9077 11.7067 10.9077 11.7067C10.9077 11.7067 10.8859 10.9922 10.1328 10.9922V34.1106C10.1324 34.1106 11.0451 34.1106 11.0932 34.1106Z" fill="#534E52"/>
<path d="M9.17381 34.1106C9.17381 34.1106 7.04703 34.1487 6.79933 32.9306C6.55163 31.7125 5.89062 27.3532 5.89062 27.3532C5.89062 27.3532 5.95823 26.3669 7.11145 25.9178C8.26467 25.4687 9.31807 24.041 9.35935 23.4889C9.40064 22.9368 9.35935 11.7067 9.35935 11.7067C9.35935 11.7067 9.38113 10.9922 10.1342 10.9922V34.1106C10.1342 34.1106 9.22144 34.1106 9.17381 34.1106Z" fill="#534E52"/>
<path d="M11.7618 25.7221C11.4129 25.5515 11.2682 25.1305 11.4388 24.7817L17.1942 13.0118C17.3647 12.6629 17.7857 12.5182 18.1346 12.6888C18.4834 12.8594 18.6282 13.2804 18.4576 13.6292L12.7022 25.3991C12.5321 25.748 12.1106 25.8927 11.7618 25.7221Z" fill="#534E52"/>
<path d="M2.10316 10.9314C2.46474 10.7898 2.87258 10.9681 3.01458 11.3297L8.3661 24.9845C8.50765 25.3461 8.3298 25.7539 7.96777 25.8959C7.60619 26.0375 7.19834 25.8592 7.05634 25.4976L1.70482 11.8428C1.56328 11.4812 1.74158 11.0734 2.10316 10.9314Z" fill="#534E52"/>
<defs>
<linearGradient id="paint0_linear_91_12706" x1="9.88417" y1="17.1638" x2="17.0953" y2="-18.2559" gradientUnits="userSpaceOnUse">
<stop offset="0.1599" stop-color="#BFAB8D"/>
<stop offset="0.5078" stop-color="#E7E1D2"/>
<stop offset="0.7297" stop-color="#CCBFA6"/>
</linearGradient>
<linearGradient id="paint1_linear_91_12706" x1="-5.30925" y1="14.5864" x2="21.7834" y2="14.6842" gradientUnits="userSpaceOnUse">
<stop offset="0.1599" stop-color="#BFAB8D"/>
<stop offset="0.5078" stop-color="#E7E1D2"/>
<stop offset="0.7297" stop-color="#CCBFA6"/>
</linearGradient>
<linearGradient id="paint2_linear_91_12706" x1="5.64081" y1="30.6875" x2="14.7662" y2="30.6875" gradientUnits="userSpaceOnUse">
<stop stop-color="#94938C"/>
<stop offset="0.2296" stop-color="#EDEBE1"/>
<stop offset="0.7876" stop-color="#EDEBE1"/>
<stop offset="1" stop-color="#94938C"/>
</linearGradient>
</defs>
</svg>
