<svg width="22" height="33" viewBox="0 0 22 33" fill="none" xmlns="http://www.w3.org/2000/svg">
<path d="M9.17874 29.5823C8.88386 31.4355 10.0697 31.9264 10.9997 30.6747C12.7972 28.2554 13.6306 24.7913 14.351 21.6271C14.6844 20.1618 16.2241 14.9343 15.0419 13.9861C13.8687 13.0457 9.94724 16.0866 10.0461 19.2204C10.0997 20.9202 10.2204 22.6115 10.141 24.3395C10.0543 26.2171 9.46772 27.7668 9.17874 29.5823Z" fill="url(#paint0_linear_91_12725)"/>
<path d="M21.65 6.27709C21.65 6.27709 20.3426 9.87244 20.3426 13.7944C20.3426 17.7164 20.6692 22.6192 18.3814 26.2146C16.0936 29.8099 15.4398 31.4441 15.4398 31.4441C15.4398 31.4441 13.4786 33.7319 12.4983 31.1174C12.4983 31.1174 14.7861 23.273 13.4786 19.351C12.1712 15.429 10.8637 16.736 10.5371 17.3898C10.2104 18.0435 5.6343 25.5608 4.98057 27.5221C4.32684 29.4833 3.34646 31.4441 2.69273 31.4441C2.039 31.4441 1.05863 29.81 0.4049 26.8683C-0.248832 23.9267 0.404898 20.6585 1.71236 18.3702C3.01982 16.0823 4.32729 5.95 4.32729 4.31587C4.32729 2.68175 20.0159 5.62335 21.65 6.27709Z" fill="url(#paint1_linear_91_12725)"/>
<path d="M14.0017 0.664185C14.0017 0.664185 15.8205 0.628794 16.0324 1.75889C16.2442 2.88899 16.8095 6.93303 16.8095 6.93303C16.8095 6.93303 16.7519 7.84809 15.7651 8.26457C14.7784 8.68104 13.8779 10.0058 13.8425 10.518C13.8071 11.0302 13.8425 21.4478 13.8425 21.4478C13.8425 21.4478 13.8239 22.1107 13.1797 22.1107V0.664185C13.1801 0.664185 13.9609 0.664185 14.0017 0.664185Z" fill="#534E52"/>
<path d="M12.3548 0.664185C12.3548 0.664185 10.5359 0.628794 10.3241 1.75889C10.1122 2.88899 9.54688 6.93303 9.54688 6.93303C9.54688 6.93303 9.6045 7.84809 10.5913 8.26457C11.5781 8.68104 12.4787 10.0058 12.514 10.518C12.5494 11.0302 12.514 21.4478 12.514 21.4478C12.514 21.4478 12.5327 22.1107 13.1769 22.1107V0.664185C13.1764 0.664185 12.3956 0.664185 12.3548 0.664185Z" fill="#534E52"/>
<path d="M17.6542 18.2836C17.2827 18.397 16.8898 18.1874 16.7764 17.8163L13.8121 8.09613C13.6986 7.72458 13.9082 7.33172 14.2793 7.2183C14.6509 7.10489 15.0438 7.31448 15.1572 7.68558L18.1215 17.4057C18.2349 17.7773 18.0258 18.1701 17.6542 18.2836Z" fill="#534E52"/>
<path d="M8.84188 18.2836C9.21344 18.397 9.60632 18.1874 9.71974 17.8163L12.6841 8.09613C12.7975 7.72458 12.5879 7.33172 12.2168 7.2183C11.8452 7.10489 11.4523 7.31448 11.3389 7.68558L8.37459 17.4057C8.26117 17.7773 8.47032 18.1701 8.84188 18.2836Z" fill="#534E52"/>
<defs>
<linearGradient id="paint0_linear_91_12725" x1="13.0973" y1="13.6186" x2="13.0731" y2="50.687" gradientUnits="userSpaceOnUse">
<stop offset="0.1599" stop-color="#BFAB8D"/>
<stop offset="0.5078" stop-color="#E7E1D2"/>
<stop offset="0.7297" stop-color="#CCBFA6"/>
</linearGradient>
<linearGradient id="paint1_linear_91_12725" x1="19.7557" y1="18.064" x2="2.99763" y2="18.1246" gradientUnits="userSpaceOnUse">
<stop stop-color="#BFAB8D"/>
<stop offset="0.5078" stop-color="#E7E1D2"/>
<stop offset="1" stop-color="#CCBFA6"/>
</linearGradient>
</defs>
</svg>
