<svg width="23" height="37" viewBox="0 0 23 37" fill="none" xmlns="http://www.w3.org/2000/svg">
<path d="M10.5292 30.7299C10.3273 32.687 11.5972 33.132 12.4981 31.7683C14.2407 29.1321 14.913 25.4579 15.4851 22.104C15.75 20.5511 17.0602 14.9902 15.7682 14.0656C14.4861 13.1487 10.5564 16.558 10.84 19.8325C10.9938 21.6091 11.2179 23.3725 11.2342 25.1857C11.2519 27.1569 10.7275 28.8128 10.5292 30.7299Z" fill="url(#paint0_linear_91_12620)"/>
<path d="M22.1595 8.46848C21.474 10.427 20.9215 12.4712 20.6025 14.5218C20.388 15.9019 20.4197 17.1286 20.6293 18.4946C20.9818 20.7901 21.0072 23.186 20.9083 25.5015C20.7541 29.1132 19.0215 31.8334 17.6365 35.0821C17.1274 36.2757 15.9506 36.9022 14.8831 35.8039C13.5294 34.4111 13.8946 31.4836 13.8406 29.717C13.7671 27.2989 13.7181 24.8641 13.2345 22.4846C13.0263 21.4602 12.7337 20.439 12.1988 19.5407C11.6671 18.6475 10.6844 18.2119 9.74308 18.8552C8.48959 19.7118 8.20696 21.5881 7.77416 22.9237C7.36813 24.1763 7.00019 25.4411 6.64497 26.7092C6.14321 28.4998 5.67912 30.3018 5.20095 32.0988C5.00315 32.8428 4.35577 34.5903 3.26197 33.8309C2.89269 33.5741 2.71031 33.1295 2.55652 32.7071C2.05158 31.318 1.64826 29.8948 1.24586 28.473C0.706449 26.5681 0.21014 24.6686 0.0940013 22.6847C-0.064329 19.9799 1.00134 17.3073 1.52215 14.6892C2.07562 11.9068 2.42132 9.08319 2.55379 6.24958C2.56241 6.06312 2.57693 5.86034 2.7026 5.72243C2.87272 5.53642 3.16443 5.55092 3.4144 5.57951C6.48619 5.93155 9.56433 6.21783 12.6329 6.60164C14.7094 6.85977 16.7886 7.13287 18.8468 7.51214C19.7542 7.67909 21.4564 7.76529 22.1595 8.46848Z" fill="url(#paint1_linear_91_12620)"/>
<path d="M13.4999 0.33608C13.4999 0.33608 15.6267 0.294795 15.8744 1.61635C16.1221 2.93791 16.7827 7.6661 16.7827 7.6661C16.7827 7.6661 16.7151 8.73589 15.5618 9.22313C14.4086 9.71038 13.3552 11.2588 13.3139 11.8576C13.2726 12.4565 13.3139 24.6372 13.3139 24.6372C13.3139 24.6372 13.2921 25.4121 12.5391 25.4121V0.33608C12.5395 0.33608 13.4523 0.33608 13.4999 0.33608Z" fill="#534E52"/>
<path d="M11.5796 0.33608C11.5796 0.33608 9.45282 0.294795 9.20511 1.61635C8.95741 2.93791 8.29688 7.6661 8.29688 7.6661C8.29688 7.6661 8.36447 8.73589 9.51769 9.22313C10.6709 9.71038 11.7243 11.2588 11.7656 11.8576C11.8069 12.4565 11.7656 24.6372 11.7656 24.6372C11.7656 24.6372 11.7874 25.4121 12.5405 25.4121V0.33608C12.54 0.33608 11.6272 0.33608 11.5796 0.33608Z" fill="#534E52"/>
<path d="M5.71874 18.3922C6.05491 18.5863 6.48498 18.4711 6.67915 18.1349L11.7602 9.33441C11.9544 8.99825 11.8391 8.56818 11.503 8.37402C11.1668 8.17985 10.7367 8.29508 10.5426 8.6766L5.46151 17.4771C5.26735 17.7679 5.38257 18.198 5.71874 18.3922Z" fill="#534E52"/>
<path d="M19.5811 18.3861C19.2449 18.5802 18.8149 18.465 18.6207 18.1289L13.5396 9.32817C13.3455 8.99201 13.4607 8.56193 13.7969 8.36776C14.133 8.1736 14.5631 8.28882 14.7573 8.62499L19.8383 17.4257C20.0325 17.7618 19.9173 18.1919 19.5811 18.3861Z" fill="#534E52"/>
<defs>
<linearGradient id="paint0_linear_91_12620" x1="13.7114" y1="13.8048" x2="15.8209" y2="52.6095" gradientUnits="userSpaceOnUse">
<stop offset="0.1599" stop-color="#BFAB8D"/>
<stop offset="0.5078" stop-color="#E7E1D2"/>
<stop offset="0.7297" stop-color="#CCBFA6"/>
</linearGradient>
<linearGradient id="paint1_linear_91_12620" x1="19.6327" y1="22.3598" x2="2.1385" y2="18.9556" gradientUnits="userSpaceOnUse">
<stop stop-color="#BFAB8D"/>
<stop offset="0.5078" stop-color="#E7E1D2"/>
<stop offset="1" stop-color="#CCBFA6"/>
</linearGradient>
</defs>
</svg>
