<svg width="23" height="39" viewBox="0 0 23 39" fill="none" xmlns="http://www.w3.org/2000/svg">
<path d="M10.8684 33.0001C10.6739 34.9772 11.9243 35.4291 12.8413 34.0451C14.5919 31.3619 15.2587 27.6337 15.8145 24.2161C16.0924 22.6344 17.3984 16.9856 16.0924 16.0535C14.8142 15.1215 10.8684 18.5955 11.174 21.9283C11.3407 23.736 11.563 25.5154 11.563 27.3795C11.5908 29.3566 11.0907 31.0512 10.8684 33.0001Z" fill="url(#paint0_linear_144_5885)"/>
<path d="M22.511 10.3765C22.3165 11.0261 21.2884 14.2459 20.9549 16.5337C20.8438 17.2963 20.816 17.833 20.816 18.0024C20.7882 18.8498 20.8438 19.6971 20.9827 20.5726C21.3439 22.9169 21.3717 25.3459 21.2606 27.6902C21.0938 31.3619 19.371 34.1298 17.9817 37.4344C17.4815 38.6489 16.2867 39.2703 15.2307 38.1688C13.8692 36.7566 14.2304 33.7909 14.1748 31.9833C14.0915 29.526 14.0637 27.0406 13.5635 24.6398C13.369 23.5948 13.0633 22.5497 12.5354 21.6459C12.0074 20.7421 11.0349 20.2902 10.0901 20.9398C8.83967 21.8154 8.5618 23.7077 8.11721 25.0635C7.7004 26.3345 7.33916 27.6337 6.97793 28.9047C6.47776 30.7123 6.00537 32.5482 5.53299 34.384C5.33848 35.1466 4.69937 36.926 3.58788 36.1352C3.22665 35.881 3.03214 35.4291 2.8932 35.0054C2.39303 33.5932 1.97622 32.1528 1.5872 30.7123C1.05925 28.7635 0.559073 26.8429 0.447924 24.8375C0.281201 22.0978 1.3649 19.3582 1.86508 16.7032C2.36525 14.1612 1.92065 11.817 2.8932 8.11697C2.94878 7.89101 3.00435 7.6933 3.03214 7.58032C3.97691 7.80628 5.42184 8.11697 7.2558 8.39941C9.17312 8.68185 9.61772 8.65361 12.5632 9.02079C13.5079 9.13376 13.7858 9.19024 17.8705 9.75513C19.3433 9.92459 21.1494 10.1788 22.511 10.3765Z" fill="url(#paint1_linear_144_5885)"/>
<path d="M17.5646 9.78336C17.2034 7.10017 16.8422 4.41697 16.4809 1.73378C16.4809 1.73378 16.2864 0.265081 14.8415 0.12386C13.3965 -0.017361 10.8957 0.0673611 10.729 0.0956053C10.5622 0.123849 9.64527 0.491034 9.42297 1.11241C8.86722 2.66583 8.95059 3.82384 8.50599 7.26963C8.42263 7.83451 8.33927 8.28641 8.28369 8.56885C8.81165 8.65358 9.31182 8.71009 9.83978 8.79482C9.92314 6.36582 10.0343 3.90857 10.1177 1.47958C10.1177 1.47958 15.5639 5.17956 15.5917 5.23604C15.6195 5.26429 16.4254 7.86275 16.4254 7.86275C15.814 8.37114 15.2027 8.87954 14.5914 9.38794C15.5917 9.47267 16.5921 9.64214 17.5646 9.78336Z" fill="url(#paint2_linear_144_5885)"/>
<path d="M13.8412 0.265062C13.8412 0.265062 15.9808 0.236811 16.2031 1.56429C16.4532 2.92001 17.1201 7.72151 17.1201 7.72151C17.1201 7.72151 17.0645 8.7948 15.8975 9.3032C14.7304 9.81159 13.7023 11.365 13.6467 11.9864C13.6189 12.6078 13.6467 24.9787 13.6467 24.9787C13.6467 24.9787 13.6189 25.7695 12.8687 25.7695V0.293299C12.8964 0.265055 13.7856 0.265062 13.8412 0.265062Z" fill="#544E52"/>
<path d="M11.9239 0.265062C11.9239 0.265062 9.7843 0.236811 9.562 1.56429C9.3397 2.89176 8.64502 7.72151 8.64502 7.72151C8.64502 7.72151 8.70059 8.7948 9.86766 9.3032C11.0347 9.81159 12.0629 11.365 12.1184 11.9864C12.1462 12.6078 12.1184 24.9787 12.1184 24.9787C12.1184 24.9787 12.1462 25.7695 12.8965 25.7695V0.293299C12.8965 0.265055 11.9795 0.265062 11.9239 0.265062Z" fill="#544E52"/>
<path d="M6.06113 18.6237C6.39457 18.8214 6.83917 18.7084 7.03368 18.3695L12.1187 9.41611C12.3133 9.07718 12.2021 8.62527 11.8687 8.42756C11.5352 8.22986 11.0906 8.34284 10.8961 8.73826L5.81104 17.6917C5.61653 17.9741 5.72768 18.426 6.06113 18.6237Z" fill="#544E52"/>
<path d="M19.9822 18.5674L19.8432 18.6521C19.5376 18.8216 19.1764 18.7368 18.9819 18.4261L13.8134 9.3315C13.6467 9.02082 13.7301 8.65365 14.0357 8.45594L14.1747 8.37121C14.4803 8.20174 14.8416 8.28647 15.0361 8.59716L20.2045 17.6918C20.399 18.0025 20.2878 18.3979 19.9822 18.5674Z" fill="#544E52"/>
<defs>
<linearGradient id="paint0_linear_144_5885" x1="14.0125" y1="15.8242" x2="16.1917" y2="55.2614" gradientUnits="userSpaceOnUse">
<stop offset="0.1599" stop-color="#C4AB89"/>
<stop offset="0.5078" stop-color="#E8E1D1"/>
<stop offset="0.7297" stop-color="#D0BFA4"/>
</linearGradient>
<linearGradient id="paint1_linear_144_5885" x1="19.9428" y1="24.6733" x2="2.40559" y2="21.316" gradientUnits="userSpaceOnUse">
<stop stop-color="#C4AB89"/>
<stop offset="0.5078" stop-color="#E8E1D1"/>
<stop offset="1" stop-color="#D0BFA4"/>
</linearGradient>
<linearGradient id="paint2_linear_144_5885" x1="17.5759" y1="4.89763" x2="8.3117" y2="4.89763" gradientUnits="userSpaceOnUse">
<stop stop-color="#94938C"/>
<stop offset="0.2296" stop-color="#EDEBE0"/>
<stop offset="0.7876" stop-color="#EDEBE0"/>
<stop offset="1" stop-color="#94938C"/>
</linearGradient>
</defs>
</svg>
