<svg width="27" height="41" viewBox="0 0 27 41" fill="none" xmlns="http://www.w3.org/2000/svg">
<path d="M9.37569 36.5244C8.7088 38.7275 10.2927 39.6313 11.7654 38.3038C14.6275 35.7901 16.2947 31.7512 17.7397 28.0512C18.4065 26.3283 21.3242 20.3122 19.7959 18.8435C18.2954 17.4031 12.3489 20.1428 12.0433 24.0122C11.8765 26.1023 11.821 28.2206 11.4597 30.3107C11.0707 32.5985 10.0426 34.3496 9.37569 36.5244Z" fill="url(#paint0_linear_144_5873)"/>
<path d="M26.1593 10.8222C25.937 11.5848 25.8537 12.178 25.7703 12.5734C25.4646 13.9009 25.1868 15.2566 24.9645 16.584C24.7978 17.6856 24.631 18.7871 24.5477 19.9169C24.4365 20.9902 24.5477 22.1764 24.3254 23.2497C24.1309 24.2947 23.7696 25.3962 23.4084 26.3848C22.3803 29.4069 20.7964 32.2313 18.9346 34.8015C17.9899 36.1008 16.9895 37.3153 15.9336 38.5015C15.2667 39.2359 13.8774 41.3824 12.7103 40.4786C12.2657 40.1397 12.099 39.5466 12.1268 38.9817C12.1545 38.4168 12.3491 37.9084 12.5436 37.3718C13.9885 33.3611 15.3779 28.3901 14.572 24.097C14.4887 23.6451 14.3497 23.1932 14.0441 22.8543C13.6273 22.4306 12.9604 22.3459 12.4046 22.4871C11.8489 22.6283 11.3487 23.0237 10.9319 23.4474C9.48697 24.8878 8.45883 26.8932 7.56964 28.729C6.90275 30.113 6.40257 31.5817 6.1247 33.1069C5.84683 34.5473 6.09692 36.2985 5.51339 37.6542C5.17994 38.4168 4.48525 39.0664 3.65164 39.0382C3.01253 39.0099 2.45679 38.6145 2.03998 38.1061C0.483891 36.2985 0.206018 33.4458 0.0948688 31.158C-0.0162803 28.2771 0.372735 25.3962 0.817331 22.5718C1.48423 18.2222 2.09555 16.7535 3.04031 11.0482C3.26261 9.63599 3.45713 8.47797 3.56828 7.68713C6.45815 8.59095 10.2372 9.49476 14.711 9.80545C19.5182 10.1444 23.6307 9.69248 26.7151 9.1276C26.5483 9.55126 26.3538 10.1161 26.1593 10.8222Z" fill="url(#paint1_linear_144_5873)"/>
<path d="M9.76465 9.21238C9.79244 8.90169 9.84801 8.59101 9.8758 8.28033C10.1259 6.2185 10.4038 4.21315 10.7094 2.23606C10.9873 1.78415 11.3763 0.654393 12.4044 0.569661C13.9049 0.42844 16.4614 0.513162 16.6281 0.541406C16.7948 0.56965 17.7396 0.965073 17.9897 1.58645C18.5454 3.16812 18.6566 4.29789 18.9344 7.85666C19.0178 8.76048 19.1012 9.49483 19.1567 9.89025C17.9341 9.91849 16.6837 9.91848 15.461 9.94672C16.0724 7.26352 16.6559 4.60858 17.2672 1.92538C17.2672 1.92538 11.6542 5.76659 11.6264 5.79484C11.5986 5.82308 10.765 8.50628 10.765 8.50628C10.9317 8.81696 11.0984 9.12766 11.2374 9.46659C10.7372 9.4101 10.237 9.32536 9.76465 9.21238Z" fill="url(#paint2_linear_144_5873)"/>
<path d="M15.4335 0.823777C15.4335 0.823777 17.5731 0.795544 17.7954 2.12302C18.0177 3.4505 18.7124 8.28025 18.7124 8.28025C18.7124 8.28025 18.6568 9.35353 17.4897 9.86192C16.3227 10.3703 15.2946 11.9237 15.239 12.5451C15.2112 13.1665 15.239 25.5375 15.239 25.5375C15.239 25.5375 15.2112 26.3283 14.4609 26.3283V0.852032C14.4609 0.823788 15.3779 0.823777 15.4335 0.823777Z" fill="#544E52"/>
<path d="M13.5162 0.823777C13.5162 0.823777 11.3766 0.795544 11.1543 2.12302C10.932 3.4505 10.2373 8.28025 10.2373 8.28025C10.2373 8.28025 10.2929 9.35353 11.4599 9.86192C12.627 10.3703 13.6551 11.9237 13.7107 12.5451C13.7385 13.1665 13.7107 25.5375 13.7107 25.5375C13.7107 25.5375 13.7385 26.3283 14.4887 26.3283V0.852032C14.461 0.823788 13.544 0.823777 13.5162 0.823777Z" fill="#544E52"/>
<path d="M7.15262 19.0414L7.29155 19.1261C7.56943 19.3238 7.95845 19.2391 8.15296 18.9284L13.6548 10.0597C13.8494 9.77726 13.766 9.38185 13.4603 9.18414L13.3214 9.0994C13.0435 8.90169 12.6545 8.98642 12.46 9.29711L6.9581 18.1658C6.79138 18.4765 6.87474 18.8436 7.15262 19.0414Z" fill="#544E52"/>
<path d="M21.4911 18.2223L21.3522 18.307C21.0743 18.5047 20.6853 18.42 20.4908 18.1093L14.9889 9.2406C14.7944 8.95816 14.8778 8.56274 15.1834 8.36503L15.3224 8.28031C15.6002 8.0826 15.9893 8.16733 16.1838 8.47802L21.6856 17.3467C21.8801 17.6291 21.7968 18.0246 21.4911 18.2223Z" fill="#544E52"/>
<defs>
<linearGradient id="paint0_linear_144_5873" x1="17.1095" y1="17.9477" x2="9.09894" y2="62.9211" gradientUnits="userSpaceOnUse">
<stop offset="0.1599" stop-color="#C4AB89"/>
<stop offset="0.5078" stop-color="#E8E1D1"/>
<stop offset="0.7297" stop-color="#D0BFA4"/>
</linearGradient>
<linearGradient id="paint1_linear_144_5873" x1="24.1076" y1="24.1319" x2="1.58187" y2="24.212" gradientUnits="userSpaceOnUse">
<stop stop-color="#C4AB89"/>
<stop offset="0.5078" stop-color="#E8E1D1"/>
<stop offset="1" stop-color="#D0BFA4"/>
</linearGradient>
<linearGradient id="paint2_linear_144_5873" x1="9.75651" y1="5.23958" x2="19.1521" y2="5.23958" gradientUnits="userSpaceOnUse">
<stop stop-color="#94938C"/>
<stop offset="0.2296" stop-color="#EDEBE0"/>
<stop offset="0.7876" stop-color="#EDEBE0"/>
<stop offset="1" stop-color="#94938C"/>
</linearGradient>
</defs>
</svg>
