<svg width="21" height="34" viewBox="0 0 21 34" fill="none" xmlns="http://www.w3.org/2000/svg">
<path d="M9.46565 4.24183C8.94485 2.50249 7.14654 2.72161 6.53863 4.28947C5.3632 7.32039 5.96657 10.7238 6.57084 13.8109C6.85075 15.2404 7.39061 20.5283 9.40804 20.7007C11.4096 20.8718 15.0697 16.1682 13.4048 13.5478C12.5016 12.1265 11.5139 10.7487 10.7717 9.23212C9.96423 7.58397 9.97557 5.94624 9.46565 4.24183Z" fill="url(#paint0_linear_91_12666)"/>
<path d="M19.9259 27.5414C19.8606 27.5782 19.6519 27.1118 19.4646 27.1322C19.22 27.1585 18.9152 27.0732 18.6706 27.0483C17.8259 26.963 16.9798 26.8891 16.1333 26.8251C13.7815 26.6477 11.4188 26.5397 9.05971 26.5874C7.4188 26.6205 5.75293 26.7076 4.14378 27.051C3.14979 27.2629 1.84188 27.5782 1.23396 28.4819C1.23396 28.4819 2.60359 22.9657 1.62276 18.7167C0.641933 14.4676 -0.665083 3.02841 1.94985 2.70131C3.59349 2.4958 4.83245 6.3184 5.26116 7.3818C6.39805 10.2018 7.28814 13.216 8.09431 16.1784C8.11699 16.261 8.14014 16.3458 8.19049 16.4152C8.63191 17.0259 10.1644 17.2681 10.756 16.8598C11.2514 16.5178 11.3739 15.8504 11.4546 15.2534C11.598 14.1941 11.7413 13.1348 11.8847 12.0754C12.2254 9.5585 12.5684 7.02522 12.5076 4.47878C12.4908 3.77968 11.6942 0.219298 13.3895 1.0672C16.2376 2.49127 17.8618 6.43001 18.6525 9.25681C19.7213 13.0762 19.7608 17.1633 19.9082 21.1021C19.9758 22.9077 20.0661 24.7382 19.9486 26.5438C19.9255 26.8972 20.0194 27.4893 19.9259 27.5414Z" fill="url(#paint1_linear_91_12666)"/>
<path d="M14.3677 26.3968L13.5157 31.6984C13.5157 31.6984 13.3138 32.9968 11.8154 33.122C10.3164 33.2467 7.75142 33.1719 7.57857 33.1469C7.40572 33.122 6.45438 32.7972 6.22392 32.2478C5.99345 31.6984 5.24219 26.6631 5.24219 26.6631L5.53525 26.409L6.94434 31.9483C6.94434 31.9483 12.5644 28.6769 12.5934 28.652C12.6224 28.627 13.4581 26.3296 13.4581 26.3296L13.919 26.3047L14.3677 26.3968Z" fill="url(#paint2_linear_91_12666)"/>
<path d="M8.78274 32.9224C8.78274 32.9224 6.65594 32.9582 6.40824 31.8132C6.16054 30.6681 5.5 26.5715 5.5 26.5715C5.5 26.5715 5.56759 25.6446 6.72081 25.2223C7.87403 24.7999 8.92745 23.4584 8.96873 22.9399C9.01002 22.4209 8.96873 11.8667 8.96873 11.8667C8.96873 11.8667 8.99051 11.1953 9.7436 11.1953V32.9224C9.74315 32.9224 8.83037 32.9224 8.78274 32.9224Z" fill="#534E52"/>
<path d="M10.7031 32.9224C10.7031 32.9224 12.8298 32.9582 13.0775 31.8132C13.3252 30.6681 13.9858 26.5715 13.9858 26.5715C13.9858 26.5715 13.9182 25.6446 12.765 25.2223C11.6118 24.7999 10.5583 23.4584 10.5171 22.9399C10.4758 22.4209 10.5171 11.8667 10.5171 11.8667C10.5171 11.8667 10.4953 11.1953 9.74219 11.1953V32.9224C9.74264 32.9224 10.6554 32.9224 10.7031 32.9224Z" fill="#534E52"/>
<path d="M10.0161 27.5391C10.3446 27.3313 10.4421 26.8971 10.2348 26.5691L3.18028 15.4135C2.9725 15.085 2.53833 14.9875 2.21033 15.1948C1.88188 15.4026 1.78433 15.8367 1.99166 16.1647L9.04617 27.3204C9.25395 27.6488 9.68812 27.7464 10.0161 27.5391Z" fill="#534E52"/>
<path d="M16.211 14.6474C15.8607 14.4796 15.4406 14.627 15.2728 14.9772L9.10838 27.8197C8.94052 28.1699 9.08795 28.59 9.43818 28.7579C9.78841 28.9257 10.2085 28.7783 10.3764 28.4281L16.5408 15.5856C16.7086 15.2358 16.5612 14.8157 16.211 14.6474Z" fill="#534E52"/>
<defs>
<linearGradient id="paint0_linear_91_12666" x1="12.1333" y1="19.9694" x2="-1.55414" y2="-13.4824" gradientUnits="userSpaceOnUse">
<stop offset="0.1599" stop-color="#BFAB8D"/>
<stop offset="0.5078" stop-color="#E7E1D2"/>
<stop offset="0.7297" stop-color="#CCBFA6"/>
</linearGradient>
<linearGradient id="paint1_linear_91_12666" x1="1.08573" y1="16.9899" x2="18.7747" y2="13.6345" gradientUnits="userSpaceOnUse">
<stop offset="0.1599" stop-color="#BFAB8D"/>
<stop offset="0.5078" stop-color="#E7E1D2"/>
<stop offset="0.7297" stop-color="#CCBFA6"/>
</linearGradient>
<linearGradient id="paint2_linear_91_12666" x1="14.3677" y1="29.7483" x2="5.24226" y2="29.7483" gradientUnits="userSpaceOnUse">
<stop stop-color="#94938C"/>
<stop offset="0.2296" stop-color="#EDEBE1"/>
<stop offset="0.7876" stop-color="#EDEBE1"/>
<stop offset="1" stop-color="#94938C"/>
</linearGradient>
</defs>
</svg>
