<svg width="16" height="38" viewBox="0 0 16 38" fill="none" xmlns="http://www.w3.org/2000/svg">
<path d="M15.8171 7.50046C15.0141 12.7566 13.5982 18.0087 11.755 22.9886C9.72893 28.4617 7.19749 33.9352 2.27613 37.3649C2.15682 37.4479 2.02889 37.5341 1.88372 37.5414C1.73582 37.5486 1.59654 37.472 1.47813 37.383C0.799906 36.8763 0.550848 35.9513 0.620713 35.1075C0.690577 34.2636 1.02719 33.4693 1.32117 32.6753C3.11496 27.8329 3.55274 22.5037 4.06402 17.4022C4.38794 14.1726 5.15599 10.2138 4.39474 6.99416C3.57724 3.53858 15.3104 6.88665 15.8171 7.50046Z" fill="url(#paint0_linear_91_12592)"/>
<path d="M5.14062 8.05701L5.99261 2.25229C5.99261 2.25229 6.19449 0.830502 7.69296 0.693947C9.19142 0.557392 11.7569 0.639049 11.9298 0.666723C12.1026 0.693943 13.0539 1.04961 13.2844 1.65117C13.5149 2.25274 14.2661 7.76576 14.2661 7.76576L13.9731 8.04385L12.564 1.97918C12.564 1.97918 6.94396 5.56091 6.91492 5.58858C6.88589 5.6158 6.05023 8.13142 6.05023 8.13142L5.58931 8.15865L5.14062 8.05701Z" fill="url(#paint1_linear_91_12592)"/>
<path d="M10.7264 0.914196C10.7264 0.914196 12.8531 0.875182 13.1008 2.12866C13.3485 3.38214 14.009 7.86755 14.009 7.86755C14.009 7.86755 13.9414 8.8824 12.7882 9.34469C11.6346 9.80697 10.5817 11.2759 10.5404 11.8439C10.4992 12.4119 10.5404 23.9673 10.5404 23.9673C10.5404 23.9673 10.5187 24.7022 9.76562 24.7022V0.914196C9.76562 0.914196 10.6784 0.914196 10.7264 0.914196Z" fill="#534E52"/>
<path d="M8.80618 0.914196C8.80618 0.914196 6.67938 0.875182 6.43168 2.12866C6.18398 3.38214 5.52344 7.86755 5.52344 7.86755C5.52344 7.86755 5.59104 8.8824 6.74426 9.34469C7.89749 9.80697 8.9509 11.2759 8.99219 11.8439C9.03347 12.4119 8.99219 23.9673 8.99219 23.9673C8.99219 23.9673 9.01396 24.7022 9.76704 24.7022V0.914196C9.76659 0.914196 8.85381 0.914196 8.80618 0.914196Z" fill="#534E52"/>
<defs>
<linearGradient id="paint0_linear_91_12592" x1="12.5888" y1="21.4679" x2="2.22239" y2="21.5053" gradientUnits="userSpaceOnUse">
<stop stop-color="#BFAB8D"/>
<stop offset="0.5078" stop-color="#E7E1D2"/>
<stop offset="1" stop-color="#CCBFA6"/>
</linearGradient>
<linearGradient id="paint1_linear_91_12592" x1="5.1408" y1="4.38779" x2="14.2662" y2="4.38779" gradientUnits="userSpaceOnUse">
<stop stop-color="#94938C"/>
<stop offset="0.2296" stop-color="#EDEBE1"/>
<stop offset="0.7876" stop-color="#EDEBE1"/>
<stop offset="1" stop-color="#94938C"/>
</linearGradient>
</defs>
</svg>
