<svg width="17" height="41" viewBox="0 0 17 41" fill="none" xmlns="http://www.w3.org/2000/svg">
<path d="M16.1651 9.50546C15.3593 14.8436 13.9421 20.1818 12.1082 25.2375C10.0797 30.8016 7.55108 36.3657 2.63274 39.8397C2.52159 39.9244 2.38266 40.0092 2.24372 40.0092C2.10478 40.0092 1.96585 39.9244 1.82691 39.8397C1.16002 39.3313 0.90993 38.371 0.965505 37.5237C1.04887 36.6764 1.38231 35.8573 1.66019 35.0382C3.46636 30.1237 3.88316 24.7008 4.41112 19.5039C4.74457 16.2276 5.49483 12.1886 4.74457 8.91232C3.91095 5.49477 15.6372 8.88409 16.1651 9.50546Z" fill="url(#paint0_linear_144_5863)"/>
<path d="M5.80029 7.55661C6.07817 5.6925 6.32825 3.85662 6.60612 1.99251C6.60612 1.99251 6.80063 0.552061 8.30114 0.41084C9.80165 0.26962 12.3581 0.354359 12.5248 0.382603C12.9416 0.439092 13.4696 0.806266 13.8864 1.37115C14.192 1.79481 14.2198 2.13373 14.4143 3.68716C14.72 6.22913 14.8034 6.42685 14.8311 7.33066C14.8589 7.72608 14.8867 8.91233 14.8867 8.91233C14.1643 8.65813 13.4418 8.43219 12.7193 8.17799C12.8582 6.00319 13.025 3.85663 13.1639 1.68183C13.1639 1.68183 7.55089 5.32533 7.5231 5.35357C7.49532 5.38182 6.6617 7.95204 6.6617 7.95204C6.71727 7.78257 6.77285 7.58486 6.82842 7.41539C6.49498 7.47188 6.16153 7.52837 5.80029 7.55661Z" fill="url(#paint1_linear_144_5863)"/>
<path d="M11.33 0.63677C11.33 0.63677 13.4696 0.608533 13.6919 1.87952C13.942 3.15051 14.6089 7.72607 14.6089 7.72607C14.6089 7.72607 14.5533 8.7711 13.3862 9.22301C12.2192 9.67492 11.191 11.2001 11.1355 11.765C11.1077 12.3299 11.1355 24.0794 11.1355 24.0794C11.1355 24.0794 11.1077 24.8138 10.3574 24.8138V0.63677C10.3852 0.63677 11.3022 0.63677 11.33 0.63677Z" fill="#544E52"/>
<path d="M9.41267 0.63677C9.41267 0.63677 7.27306 0.608533 7.05076 1.87952C6.80068 3.15051 6.13379 7.72607 6.13379 7.72607C6.13379 7.72607 6.18936 8.7711 7.35642 9.22301C8.52348 9.70316 9.55161 11.1719 9.60718 11.765C9.63497 12.3299 9.60718 24.0794 9.60718 24.0794C9.60718 24.0794 9.63496 24.8138 10.3852 24.8138V0.63677C10.3852 0.63677 9.46824 0.63677 9.41267 0.63677Z" fill="#544E52"/>
<defs>
<linearGradient id="paint0_linear_144_5863" x1="12.9303" y1="23.703" x2="2.56446" y2="23.7415" gradientUnits="userSpaceOnUse">
<stop stop-color="#C4AB89"/>
<stop offset="0.5078" stop-color="#E8E1D1"/>
<stop offset="1" stop-color="#D0BFA4"/>
</linearGradient>
<linearGradient id="paint1_linear_144_5863" x1="5.80359" y1="4.64449" x2="14.8906" y2="4.64306" gradientUnits="userSpaceOnUse">
<stop stop-color="#94938C"/>
<stop offset="0.2296" stop-color="#EDEBE0"/>
<stop offset="0.7876" stop-color="#EDEBE0"/>
<stop offset="1" stop-color="#94938C"/>
</linearGradient>
</defs>
</svg>
