<svg width="16" height="49" viewBox="0 0 16 49" fill="none" xmlns="http://www.w3.org/2000/svg">
<path d="M15.9834 8.04661C14.7608 8.47028 13.7327 8.66798 13.0102 8.78096C11.3986 9.00691 9.73132 8.83744 6.42465 8.52675C5.72998 8.47026 4.95195 8.35729 3.95161 8.01836C3.118 7.73592 2.4511 7.36875 2.03429 7.0863C1.64527 8.47027 1.97871 10.6451 2.06207 12.0573C2.28437 16.068 2.47889 20.0786 2.42332 24.1175C2.39553 26.3488 2.28438 28.5519 2.08987 30.7549C1.812 33.8053 0.811649 36.7992 0.533778 39.8778C0.339268 42.0526 0.367062 44.2274 0.783869 46.374C0.922805 47.0518 1.11732 48.7747 1.67306 48.9442C2.42331 49.1419 3.56259 47.9839 3.95161 47.4473C5.20203 45.7244 5.53548 43.4083 6.17458 41.403C6.89705 39.1717 7.73065 36.9687 8.59205 34.7939C10.2593 30.5572 12.0377 26.2924 13.1214 21.858C13.7327 19.2878 13.5937 18.7794 14.6219 13.9779C15.1498 11.4359 15.65 9.37409 15.9834 8.04661Z" fill="url(#paint0_linear_144_5845)"/>
<path d="M4.31299 8.13136C4.59086 6.01305 4.89652 3.92297 5.17439 1.80466C5.17439 1.80466 5.36891 0.279485 6.86943 0.138264C8.36994 -0.00295674 10.9264 0.0817655 11.0931 0.11001C11.2598 0.138254 12.2046 0.533676 12.4547 1.15505C13.0382 2.79321 12.8715 4.0077 13.4272 7.53823C13.5106 8.04662 13.594 8.44205 13.6218 8.69625C13.0104 8.83747 12.3991 8.97868 11.7878 9.14815C11.76 6.60617 11.76 4.06419 11.7322 1.52222C11.7322 1.52222 6.11916 5.36343 6.09137 5.39167C6.06358 5.41992 5.22997 8.10311 5.22997 8.10311C5.17439 8.18784 5.14661 8.27258 5.09103 8.35731C4.81316 8.27258 4.56307 8.18785 4.31299 8.13136Z" fill="url(#paint1_linear_144_5845)"/>
<path d="M9.89833 0.364183C9.89833 0.364183 12.0379 0.335932 12.2602 1.66341C12.5103 3.01913 13.1772 7.82064 13.1772 7.82064C13.1772 7.82064 13.1217 8.89393 11.9546 9.40232C10.7875 9.91072 9.75939 11.4641 9.70382 12.0855C9.64824 12.7069 9.70382 25.0778 9.70382 25.0778C9.70382 25.0778 9.67604 25.8687 8.92578 25.8687V0.39242C8.95357 0.364176 9.84276 0.364183 9.89833 0.364183Z" fill="#544E52"/>
<path d="M7.98106 0.364183C7.98106 0.364183 5.84144 0.335932 5.61914 1.66341C5.36906 3.01913 4.70215 7.82064 4.70215 7.82064C4.70215 7.82064 4.75773 8.89393 5.9248 9.40232C7.09186 9.91072 8.11999 11.4641 8.17556 12.0855C8.23114 12.7069 8.17556 25.0778 8.17556 25.0778C8.17556 25.0778 8.20336 25.8687 8.95362 25.8687V0.39242C8.95362 0.364176 8.03664 0.364183 7.98106 0.364183Z" fill="#544E52"/>
<defs>
<linearGradient id="paint0_linear_144_5845" x1="11.3133" y1="27.9654" x2="2.1526" y2="28.0032" gradientUnits="userSpaceOnUse">
<stop stop-color="#C4AB89"/>
<stop offset="0.5078" stop-color="#E8E1D1"/>
<stop offset="1" stop-color="#D0BFA4"/>
</linearGradient>
<linearGradient id="paint1_linear_144_5845" x1="4.30571" y1="4.57387" x2="13.6234" y2="4.57241" gradientUnits="userSpaceOnUse">
<stop stop-color="#94938C"/>
<stop offset="0.2296" stop-color="#EDEBE0"/>
<stop offset="0.7876" stop-color="#EDEBE0"/>
<stop offset="1" stop-color="#94938C"/>
</linearGradient>
</defs>
</svg>
