<svg width="13" height="46" viewBox="0 0 13 46" fill="none" xmlns="http://www.w3.org/2000/svg">
<path d="M12.2361 4.78125C12.2361 4.78125 4.06532 8.7032 1.77756 5.43499C1.86738 8.6465 1.92272 11.8598 1.96491 15.0722C2.04475 21.1809 2.07696 27.2954 1.89868 33.4026C1.83607 35.5476 1.78617 37.6952 1.58112 39.8324C1.47678 40.9212 1.33297 42.0069 1.12747 43.0811C1.03311 43.5756 0.748656 44.1581 0.97775 44.6095C1.2826 45.2097 2.07014 45.3458 2.62042 45.075C3.39481 44.6939 3.90382 43.7566 4.28806 43.033C5.21487 41.2873 5.81277 39.3579 6.35353 37.4652C9.62118 26.026 11.732 8.29717 12.2361 4.78125Z" fill="url(#paint0_linear_91_12549)"/>
<path d="M2.16406 8.37335L3.01604 2.25492C3.01604 2.25492 3.21792 0.756054 4.71638 0.612246C6.21529 0.467984 8.78032 0.554626 8.95317 0.583206C9.12602 0.61224 10.0773 0.986509 10.3078 1.62072C10.5383 2.25492 11.2896 8.06578 11.2896 8.06578L10.9965 8.35884L9.58739 1.96641C9.58739 1.96641 3.96738 5.7417 3.93834 5.77074C3.90931 5.79977 3.07365 8.45093 3.07365 8.45093L2.61228 8.47997L2.16406 8.37335Z" fill="url(#paint1_linear_91_12549)"/>
<path d="M7.74992 0.843893C7.74992 0.843893 9.87671 0.802618 10.1244 2.12416C10.3721 3.44571 11.0327 8.17385 11.0327 8.17385C11.0327 8.17385 10.9651 9.24362 9.81185 9.73086C8.65817 10.2181 7.60519 11.7665 7.56391 12.3653C7.52263 12.9642 7.56391 25.1448 7.56391 25.1448C7.56391 25.1448 7.54215 25.9197 6.78906 25.9197V0.843893C6.78952 0.843893 7.70228 0.843893 7.74992 0.843893Z" fill="#534E52"/>
<path d="M5.8296 0.843893C5.8296 0.843893 3.70282 0.802618 3.45512 2.12416C3.20741 3.44571 2.54688 8.17385 2.54688 8.17385C2.54688 8.17385 2.61446 9.24362 3.76768 9.73086C4.92135 10.2181 5.97432 11.7665 6.01561 12.3653C6.05689 12.9642 6.01561 25.1448 6.01561 25.1448C6.01561 25.1448 6.03736 25.9197 6.79045 25.9197V0.843893C6.79 0.843893 5.87723 0.843893 5.8296 0.843893Z" fill="#534E52"/>
<defs>
<linearGradient id="paint0_linear_91_12549" x1="-0.402794" y1="24.9674" x2="8.82997" y2="25.0008" gradientUnits="userSpaceOnUse">
<stop stop-color="#BFAB8D"/>
<stop offset="0.5078" stop-color="#E7E1D2"/>
<stop offset="1" stop-color="#CCBFA6"/>
</linearGradient>
<linearGradient id="paint1_linear_91_12549" x1="2.16406" y1="4.50569" x2="11.2895" y2="4.50569" gradientUnits="userSpaceOnUse">
<stop stop-color="#94938C"/>
<stop offset="0.2296" stop-color="#EDEBE1"/>
<stop offset="0.7876" stop-color="#EDEBE1"/>
<stop offset="1" stop-color="#94938C"/>
</linearGradient>
</defs>
</svg>
