<svg width="12" height="50" viewBox="0 0 12 50" fill="none" xmlns="http://www.w3.org/2000/svg">
<path d="M11.5725 7.90552C11.5725 7.90552 3.40308 11.8879 1.12453 8.58337C1.20789 11.8597 1.26347 15.1078 1.31904 18.3841C1.40241 24.5978 1.43019 30.8115 1.26347 37.0252C1.20789 39.2 1.15232 41.3748 0.957814 43.5496C0.846665 44.6512 0.707719 45.7527 0.513208 46.8542C0.429846 47.3626 0.124187 47.9557 0.374272 48.4076C0.679932 49.029 1.45798 49.1702 2.01373 48.8878C2.79177 48.4924 3.29194 47.5603 3.68096 46.826C4.59794 45.0466 5.20926 43.0977 5.73722 41.1771C8.96054 29.5123 11.0724 11.4925 11.5725 7.90552Z" fill="url(#paint0_linear_144_5836)"/>
<path d="M1.62451 9.12003C1.90238 6.94522 2.20805 4.74217 2.48592 2.56737C2.48592 2.56737 2.68043 1.04217 4.18094 0.900953C5.68144 0.759732 8.23787 0.844471 8.40459 0.872716C8.57131 0.90096 9.51608 1.29638 9.76617 1.91775C10.2386 3.24523 10.2108 4.20554 10.6831 8.04675C10.6831 8.13148 10.7109 8.21621 10.7109 8.2727C10.5998 8.32919 10.4886 8.35743 10.3775 8.41392C9.93288 6.3521 9.48829 4.31852 9.04369 2.25669C9.04369 2.25669 3.43069 6.09789 3.4029 6.12613C3.37511 6.15438 2.5415 8.83759 2.5415 8.83759C2.65265 9.14827 2.76379 9.45896 2.87493 9.76964C3.23617 9.9956 3.43068 10.1086 3.43068 10.1086C3.43068 10.1651 2.81936 9.82613 1.62451 9.12003Z" fill="url(#paint1_linear_144_5836)"/>
<path d="M7.23769 1.12688C7.23769 1.12688 9.3773 1.09863 9.5996 2.4261C9.84968 3.78183 10.5166 8.58334 10.5166 8.58334C10.5166 8.58334 10.461 9.65663 9.29395 10.165C8.12688 10.6734 7.09875 12.2268 7.04317 12.8482C7.01539 13.4696 7.04317 25.8406 7.04317 25.8406C7.04317 25.8406 7.01539 26.6314 6.26514 26.6314V1.15512C6.26514 1.12687 7.18211 1.12688 7.23769 1.12688Z" fill="#544E52"/>
<path d="M5.32041 1.12688C5.32041 1.12688 3.1808 1.09863 2.9585 2.4261C2.70841 3.78183 2.0415 8.58334 2.0415 8.58334C2.0415 8.58334 2.09709 9.65663 3.26415 10.165C4.43122 10.6734 5.45934 12.2268 5.51491 12.8482C5.5427 13.4696 5.51491 25.8406 5.51491 25.8406C5.51491 25.8406 5.54271 26.6314 6.29297 26.6314V1.15512C6.26518 1.12687 5.3482 1.12688 5.32041 1.12688Z" fill="#544E52"/>
<defs>
<linearGradient id="paint0_linear_144_5836" x1="-1.0623" y1="28.4279" x2="8.17022" y2="28.4608" gradientUnits="userSpaceOnUse">
<stop stop-color="#C4AB89"/>
<stop offset="0.5078" stop-color="#E8E1D1"/>
<stop offset="1" stop-color="#D0BFA4"/>
</linearGradient>
<linearGradient id="paint1_linear_144_5836" x1="1.6331" y1="5.49115" x2="10.741" y2="5.49115" gradientUnits="userSpaceOnUse">
<stop stop-color="#94938C"/>
<stop offset="0.2296" stop-color="#EDEBE0"/>
<stop offset="0.7876" stop-color="#EDEBE0"/>
<stop offset="1" stop-color="#94938C"/>
</linearGradient>
</defs>
</svg>
