<svg width="15" height="44" viewBox="0 0 15 44" fill="none" xmlns="http://www.w3.org/2000/svg">
<path d="M3.10076 3.35156C3.10031 10.8856 1.56555 18.3656 1.21531 25.8942C1.0724 28.9628 0.836021 32.0305 0.880481 35.1045C0.915414 37.5411 0.728971 41.6046 2.24833 43.6797C2.89164 44.5562 4.79525 40.6542 4.97717 40.2795C6.11635 37.9336 6.82407 35.4397 7.7042 32.9918C8.67461 30.292 9.66407 27.5755 10.4594 24.8172C11.5205 21.137 12.1253 17.304 12.8012 13.5391C12.9069 12.9493 13.8306 5.36764 14.2135 5.3132C14.2103 5.3132 5.06154 6.61931 3.10076 3.35156Z" fill="url(#paint0_linear_91_12536)"/>
<path d="M3.58594 8.31866L4.43791 2.20024C4.43791 2.20024 4.63979 0.701366 6.13826 0.557558C7.63717 0.413297 10.2022 0.499938 10.3751 0.528518C10.5479 0.557552 11.4992 0.931822 11.7297 1.56603C11.9602 2.20024 12.7114 8.0111 12.7114 8.0111L12.4184 8.30416L11.0093 1.91172C11.0093 1.91172 5.38926 5.68702 5.36022 5.71605C5.33119 5.74508 4.49553 8.39624 4.49553 8.39624L4.03416 8.42528L3.58594 8.31866Z" fill="url(#paint1_linear_91_12536)"/>
<path d="M9.17179 0.789205C9.17179 0.789205 11.2986 0.747931 11.5463 2.06948C11.794 3.39102 12.4545 8.11916 12.4545 8.11916C12.4545 8.11916 12.3869 9.18893 11.2337 9.67618C10.08 10.1634 9.02706 11.7118 8.98578 12.3106C8.9445 12.9095 8.98578 25.0901 8.98578 25.0901C8.98578 25.0901 8.96402 25.865 8.21094 25.865V0.789205C8.21139 0.789205 9.12415 0.789205 9.17179 0.789205Z" fill="#534E52"/>
<path d="M7.25147 0.789205C7.25147 0.789205 5.12469 0.747931 4.87699 2.06948C4.62929 3.39102 3.96875 8.11916 3.96875 8.11916C3.96875 8.11916 4.03633 9.18893 5.18955 9.67618C6.34323 10.1634 7.3962 11.7118 7.43748 12.3106C7.47877 12.9095 7.43748 25.0901 7.43748 25.0901C7.43748 25.0901 7.45924 25.865 8.21233 25.865V0.789205C8.21187 0.789205 7.29911 0.789205 7.25147 0.789205Z" fill="#534E52"/>
<defs>
<linearGradient id="paint0_linear_91_12536" x1="13.1326" y1="23.542" x2="-3.17295" y2="23.6009" gradientUnits="userSpaceOnUse">
<stop stop-color="#BFAB8D"/>
<stop offset="0.5078" stop-color="#E7E1D2"/>
<stop offset="1" stop-color="#CCBFA6"/>
</linearGradient>
<linearGradient id="paint1_linear_91_12536" x1="3.58594" y1="4.45101" x2="12.7114" y2="4.45101" gradientUnits="userSpaceOnUse">
<stop stop-color="#94938C"/>
<stop offset="0.2296" stop-color="#EDEBE1"/>
<stop offset="0.7876" stop-color="#EDEBE1"/>
<stop offset="1" stop-color="#94938C"/>
</linearGradient>
</defs>
</svg>
