<svg width="14" height="50" viewBox="0 0 14 50" fill="none" xmlns="http://www.w3.org/2000/svg">
<path d="M2.43562 8.52075C1.8243 19.31 1.1574 26.4276 0.573871 31.455C0.212636 34.5619 0.184845 37.697 0.24042 40.8038C0.268207 43.2893 0.10149 47.413 1.602 49.5313C2.24111 50.4351 4.15843 46.4527 4.32515 46.0855C5.46443 43.713 6.15911 41.171 7.04831 38.6855C8.02086 35.9458 9.02121 33.1779 9.79925 30.3817C10.2716 28.6871 10.6607 27.0489 12.1334 18.9146C12.578 16.4009 13.1893 13.0398 13.884 9.05738C12.6058 9.42455 10.7718 9.81998 8.54883 9.79174C5.88125 9.70701 3.76941 9.05739 2.43562 8.52075Z" fill="url(#paint0_linear_144_5828)"/>
<path d="M3.43604 8.88789C3.7417 6.68484 4.01957 4.48179 4.32523 2.30699C4.32523 2.30699 4.51975 0.781798 6.02027 0.640577C7.52078 0.499356 10.0772 0.584095 10.2439 0.61234C10.7163 0.697072 11.2165 1.06425 11.6055 1.65738C11.8556 2.0528 11.8278 2.27875 11.9667 3.49325C11.9667 3.54974 12.1057 4.53828 12.3835 6.54362C12.4669 7.19324 12.6059 8.12529 12.8282 9.31155C11.8 9.50926 10.7441 9.70696 9.71597 9.90467C10.105 7.27796 10.494 4.62301 10.883 1.99629C10.883 1.99629 5.27 5.83751 5.24221 5.86575C5.21442 5.894 4.38081 8.57721 4.38081 8.57721C4.46417 8.80316 4.54754 9.0291 4.6309 9.25506C4.24188 9.14208 3.82506 9.00086 3.43604 8.88789Z" fill="url(#paint1_linear_144_5828)"/>
<path d="M9.0492 0.866502C9.0492 0.866502 11.1888 0.838268 11.4111 2.16575C11.6612 3.52147 12.328 8.32298 12.328 8.32298C12.328 8.32298 12.2725 9.39625 11.1054 9.90464C9.93839 10.413 8.91026 11.9665 8.85469 12.5878C8.8269 13.2092 8.85469 25.5802 8.85469 25.5802C8.85469 25.5802 8.82691 26.371 8.07666 26.371V0.894757C8.10445 0.866512 9.02141 0.866502 9.0492 0.866502Z" fill="#544E52"/>
<path d="M7.04841 0.866502C7.04841 0.866502 4.9088 0.838268 4.6865 2.16575C4.43642 3.52147 3.76953 8.32298 3.76953 8.32298C3.76953 8.32298 3.82511 9.39625 4.99217 9.90464C6.15923 10.413 7.18735 11.9665 7.24293 12.5878C7.27071 13.2092 7.24293 25.5802 7.24293 25.5802C7.24293 25.5802 7.27072 26.371 8.10434 26.371V0.894757C8.10434 0.866512 7.10399 0.866502 7.04841 0.866502Z" fill="#544E52"/>
<defs>
<linearGradient id="paint0_linear_144_5828" x1="12.7763" y1="29.0505" x2="-3.94208" y2="29.1099" gradientUnits="userSpaceOnUse">
<stop stop-color="#C4AB89"/>
<stop offset="0.5078" stop-color="#E8E1D1"/>
<stop offset="1" stop-color="#D0BFA4"/>
</linearGradient>
<linearGradient id="paint1_linear_144_5828" x1="3.42967" y1="5.23407" x2="12.8516" y2="5.23407" gradientUnits="userSpaceOnUse">
<stop stop-color="#94938C"/>
<stop offset="0.2296" stop-color="#EDEBE0"/>
<stop offset="0.7876" stop-color="#EDEBE0"/>
<stop offset="1" stop-color="#94938C"/>
</linearGradient>
</defs>
</svg>
