<svg width="15" height="50" viewBox="0 0 15 50" fill="none" xmlns="http://www.w3.org/2000/svg">
<path d="M11.8336 8.52075C12.4449 19.31 13.1118 26.4276 13.6953 31.455C14.0566 34.5619 14.0844 37.697 14.0288 40.8038C14.001 43.2893 14.1677 47.413 12.6672 49.5313C12.0281 50.4351 10.1108 46.4527 9.94407 46.0855C8.80479 43.713 8.11011 41.171 7.22092 38.6855C6.24837 35.9458 5.24802 33.1779 4.46998 30.3817C3.9976 28.6871 3.60857 27.0489 2.13585 18.9146C1.69125 16.4009 1.07993 13.0398 0.385254 9.05738C1.66347 9.42455 3.49743 9.81998 5.7204 9.79174C8.38798 9.70701 10.4998 9.05739 11.8336 8.52075Z" fill="url(#paint0_linear_144_5966)"/>
<path d="M10.8335 8.88789C10.5279 6.68484 10.25 4.48179 9.94432 2.30699C9.94432 2.30699 9.7498 0.781798 8.24928 0.640577C6.74877 0.499356 4.19236 0.584095 4.02563 0.61234C3.55325 0.697072 3.05307 1.06425 2.66405 1.65738C2.41397 2.0528 2.44176 2.27875 2.30282 3.49325C2.30282 3.54974 2.16389 4.53828 1.88601 6.54362C1.80265 7.19324 1.6637 8.12529 1.44141 9.31155C2.46953 9.50926 3.52545 9.70696 4.55358 9.90467C4.16456 7.27796 3.77554 4.62301 3.38651 1.99629C3.38651 1.99629 8.99955 5.83751 9.02734 5.86575C9.05513 5.894 9.88874 8.57721 9.88874 8.57721C9.80538 8.80316 9.72201 9.0291 9.63865 9.25506C10.0277 9.14208 10.4445 9.00086 10.8335 8.88789Z" fill="url(#paint1_linear_144_5966)"/>
<path d="M5.22029 0.866502C5.22029 0.866502 3.08068 0.838268 2.85838 2.16575C2.6083 3.52147 1.94141 8.32298 1.94141 8.32298C1.94141 8.32298 1.99697 9.39625 3.16403 9.90464C4.33109 10.413 5.35923 11.9665 5.4148 12.5878C5.44259 13.2092 5.4148 25.5802 5.4148 25.5802C5.4148 25.5802 5.44259 26.371 6.19284 26.371V0.894757C6.16505 0.866512 5.24808 0.866502 5.22029 0.866502Z" fill="#544E52"/>
<path d="M7.22096 0.866502C7.22096 0.866502 9.36058 0.838268 9.58287 2.16575C9.83296 3.52147 10.4998 8.32298 10.4998 8.32298C10.4998 8.32298 10.4443 9.39625 9.27721 9.90464C8.11014 10.413 7.08203 11.9665 7.02645 12.5878C6.99866 13.2092 7.02645 25.5802 7.02645 25.5802C7.02645 25.5802 6.99865 26.371 6.16504 26.371V0.894757C6.16504 0.866512 7.16539 0.866502 7.22096 0.866502Z" fill="#544E52"/>
<defs>
<linearGradient id="paint0_linear_144_5966" x1="1.49274" y1="29.0505" x2="18.2111" y2="29.1099" gradientUnits="userSpaceOnUse">
<stop stop-color="#C4AB89"/>
<stop offset="0.5078" stop-color="#E8E1D1"/>
<stop offset="1" stop-color="#D0BFA4"/>
</linearGradient>
<linearGradient id="paint1_linear_144_5966" x1="10.8396" y1="5.23407" x2="1.41768" y2="5.23407" gradientUnits="userSpaceOnUse">
<stop stop-color="#94938C"/>
<stop offset="0.2296" stop-color="#EDEBE0"/>
<stop offset="0.7876" stop-color="#EDEBE0"/>
<stop offset="1" stop-color="#94938C"/>
</linearGradient>
</defs>
</svg>
