<svg width="17" height="48" viewBox="0 0 17 48" fill="none" xmlns="http://www.w3.org/2000/svg">
<path d="M0.851562 7.98869C2.75641 7.97871 4.69074 7.80313 6.59242 7.6507C8.89557 7.46605 12.1296 7.57902 14.2327 6.47842C14.425 6.37771 14.4886 6.03519 14.6655 5.91406C15.0679 7.26327 14.7236 9.42546 14.6442 10.8069C14.4169 14.7561 14.2422 18.7125 14.2803 22.669C14.3017 24.8529 14.4232 27.0215 14.6197 29.1959C14.8909 32.1987 15.9048 35.1303 16.1779 38.164C16.3694 40.2913 16.3372 42.4539 15.9221 44.5544C15.7914 45.2149 15.6013 46.9275 15.0284 47.0854C14.2726 47.2932 13.1326 46.1309 12.7529 45.6187C11.4972 43.9256 11.1751 41.6328 10.5328 39.6711C9.8142 37.4753 8.97224 35.3222 8.11213 33.1787C6.43501 28.9972 4.67125 24.8266 3.59113 20.4401C2.96011 17.8773 2.67929 15.2519 2.08683 12.6796C1.72483 11.1036 1.29704 9.54341 0.851562 7.98869Z" fill="url(#paint0_linear_91_12556)"/>
<path d="M12.3828 8.24102L11.5309 2.12222C11.5309 2.12222 11.329 0.623255 9.83066 0.479438C8.33182 0.335168 5.76691 0.421815 5.59408 0.450396C5.42124 0.479432 4.46995 0.853724 4.2395 1.48797C4.00905 2.12222 3.25781 7.93344 3.25781 7.93344L3.55086 8.22651L4.95988 1.83368C4.95988 1.83368 10.5796 5.60921 10.6087 5.63825C10.6377 5.66728 11.4733 8.3186 11.4733 8.3186L11.9346 8.34764L12.3828 8.24102Z" fill="url(#paint1_linear_91_12556)"/>
<path d="M6.79834 0.71108C6.79834 0.71108 4.67156 0.669806 4.42386 1.99135C4.17616 3.31289 3.51562 8.04103 3.51562 8.04103C3.51562 8.04103 3.58321 9.1108 4.73642 9.59805C5.89009 10.0853 6.94306 11.6337 6.98434 12.2325C7.02563 12.8314 6.98434 25.012 6.98434 25.012C6.98434 25.012 7.0061 25.7868 7.75919 25.7868V0.71108C7.75873 0.71108 6.84597 0.71108 6.79834 0.71108Z" fill="#534E52"/>
<path d="M8.71866 0.71108C8.71866 0.71108 10.8454 0.669806 11.0931 1.99135C11.3408 3.31289 12.0014 8.04103 12.0014 8.04103C12.0014 8.04103 11.9338 9.1108 10.7806 9.59805C9.62691 10.0853 8.57394 11.6337 8.53265 12.2325C8.49137 12.8314 8.53265 25.012 8.53265 25.012C8.53265 25.012 8.5109 25.7868 7.75781 25.7868V0.71108C7.75827 0.71108 8.67103 0.71108 8.71866 0.71108Z" fill="#534E52"/>
<defs>
<linearGradient id="paint0_linear_91_12556" x1="5.47964" y1="26.4747" x2="14.5609" y2="26.5113" gradientUnits="userSpaceOnUse">
<stop stop-color="#BFAB8D"/>
<stop offset="0.5078" stop-color="#E7E1D2"/>
<stop offset="1" stop-color="#CCBFA6"/>
</linearGradient>
<linearGradient id="paint1_linear_91_12556" x1="12.3828" y1="4.37312" x2="3.25788" y2="4.37312" gradientUnits="userSpaceOnUse">
<stop stop-color="#94938C"/>
<stop offset="0.2296" stop-color="#EDEBE1"/>
<stop offset="0.7876" stop-color="#EDEBE1"/>
<stop offset="1" stop-color="#94938C"/>
</linearGradient>
</defs>
</svg>
