<svg width="16" height="49" viewBox="0 0 16 49" fill="none" xmlns="http://www.w3.org/2000/svg">
<path d="M0.286133 8.04661C1.50877 8.47028 2.53691 8.66798 3.25938 8.78096C4.87104 9.00691 6.53828 8.83744 9.84497 8.52675C10.5396 8.47026 11.3177 8.35729 12.318 8.01836C13.1516 7.73592 13.8185 7.36875 14.2354 7.0863C14.6244 8.47027 14.2909 10.6451 14.2076 12.0573C13.9853 16.068 13.7908 20.0786 13.8463 24.1175C13.8741 26.3488 13.9853 28.5519 14.1798 30.7549C14.4576 33.8053 15.458 36.7992 15.7359 39.8778C15.9304 42.0526 15.9026 44.2274 15.4858 46.374C15.3468 47.0518 15.1523 48.7747 14.5966 48.9442C13.8463 49.1419 12.707 47.9839 12.318 47.4473C11.0676 45.7244 10.7341 43.4083 10.095 41.403C9.37257 39.1717 8.53897 36.9687 7.67756 34.7939C6.01032 30.5572 4.23192 26.2924 3.14822 21.858C2.5369 19.2878 2.67585 18.7794 1.64772 13.9779C1.11976 11.4359 0.61958 9.37409 0.286133 8.04661Z" fill="url(#paint0_linear_144_5983)"/>
<path d="M11.9567 8.13136C11.6788 6.01305 11.3731 3.92297 11.0953 1.80466C11.0953 1.80466 10.9007 0.279485 9.40024 0.138264C7.89973 -0.00295674 5.34332 0.0817655 5.1766 0.11001C5.00987 0.138254 4.0651 0.533676 3.81502 1.15505C3.23148 2.79321 3.39821 4.0077 2.84246 7.53823C2.7591 8.04662 2.67574 8.44205 2.64795 8.69625C3.25927 8.83747 3.8706 8.97868 4.48192 9.14815C4.5097 6.60617 4.50969 4.06419 4.53748 1.52222C4.53748 1.52222 10.1505 5.36343 10.1783 5.39167C10.2061 5.41992 11.0397 8.10311 11.0397 8.10311C11.0953 8.18784 11.1231 8.27258 11.1786 8.35731C11.4565 8.27258 11.7066 8.18785 11.9567 8.13136Z" fill="url(#paint1_linear_144_5983)"/>
<path d="M6.37164 0.364183C6.37164 0.364183 4.23204 0.335932 4.00974 1.66341C3.75966 3.01913 3.09277 7.82064 3.09277 7.82064C3.09277 7.82064 3.14834 8.89393 4.31539 9.40232C5.48245 9.91072 6.51058 11.4641 6.56616 12.0855C6.62173 12.7069 6.56616 25.0778 6.56616 25.0778C6.56616 25.0778 6.59394 25.8687 7.34419 25.8687V0.39242C7.31641 0.364176 6.42722 0.364183 6.37164 0.364183Z" fill="#544E52"/>
<path d="M8.28897 0.364183C8.28897 0.364183 10.4286 0.335932 10.6509 1.66341C10.8732 2.99089 11.5679 7.82064 11.5679 7.82064C11.5679 7.82064 11.5123 8.89393 10.3452 9.40232C9.17817 9.91072 8.15004 11.4641 8.09447 12.0855C8.03889 12.7069 8.09447 25.0778 8.09447 25.0778C8.09447 25.0778 8.06667 25.8687 7.31641 25.8687V0.39242C7.31641 0.364176 8.23339 0.364183 8.28897 0.364183Z" fill="#544E52"/>
<defs>
<linearGradient id="paint0_linear_144_5983" x1="4.95611" y1="27.9654" x2="14.1168" y2="28.0032" gradientUnits="userSpaceOnUse">
<stop stop-color="#C4AB89"/>
<stop offset="0.5078" stop-color="#E8E1D1"/>
<stop offset="1" stop-color="#D0BFA4"/>
</linearGradient>
<linearGradient id="paint1_linear_144_5983" x1="11.964" y1="4.57385" x2="2.64603" y2="4.57239" gradientUnits="userSpaceOnUse">
<stop stop-color="#94938C"/>
<stop offset="0.2296" stop-color="#EDEBE0"/>
<stop offset="0.7876" stop-color="#EDEBE0"/>
<stop offset="1" stop-color="#94938C"/>
</linearGradient>
</defs>
</svg>
