<svg width="15" height="40" viewBox="0 0 15 40" fill="none" xmlns="http://www.w3.org/2000/svg">
<path d="M0.25 8.15723C0.25 8.15723 6.4598 33.6508 11.6897 37.8994C16.9196 42.148 14.3046 33.6504 14.3046 33.6504C14.3046 33.6504 12.3434 17.9623 12.3434 15.0207C12.3434 12.0791 13.3832 6.57031 13.3832 6.57031C13.3832 6.57031 3.31089 8.73882 0.25 8.15723Z" fill="url(#paint0_linear_91_12570)"/>
<path d="M11.6255 8.36953L10.7735 2.56479C10.7735 2.56479 10.5717 1.143 9.0732 1.00645C7.57473 0.869892 5.00924 0.951549 4.83639 0.979223C4.66354 1.00644 3.71221 1.36211 3.48174 1.96368C3.25128 2.56525 2.5 8.07827 2.5 8.07827L2.79307 8.35637L4.20216 2.29168C4.20216 2.29168 9.8222 5.87342 9.85123 5.90109C9.88027 5.92831 10.7159 8.44394 10.7159 8.44394L11.1773 8.47116L11.6255 8.36953Z" fill="url(#paint1_linear_91_12570)"/>
<path d="M6.04055 1.2267C6.04055 1.2267 3.91376 1.18768 3.66606 2.44115C3.41835 3.69462 2.75781 8.17998 2.75781 8.17998C2.75781 8.17998 2.82539 9.19482 3.97862 9.65711C5.1323 10.1194 6.18527 11.5883 6.22656 12.1563C6.26784 12.7243 6.22656 24.2795 6.22656 24.2795C6.22656 24.2795 6.24831 25.0145 7.0014 25.0145V1.2267C7.00095 1.2267 6.08818 1.2267 6.04055 1.2267Z" fill="#534E52"/>
<path d="M7.96085 1.2267C7.96085 1.2267 10.0876 1.18768 10.3353 2.44115C10.583 3.69462 11.2436 8.17998 11.2436 8.17998C11.2436 8.17998 11.176 9.19482 10.0228 9.65711C8.86911 10.1194 7.81613 11.5883 7.77485 12.1563C7.73356 12.7243 7.77485 24.2795 7.77485 24.2795C7.77485 24.2795 7.75309 25.0145 7 25.0145V1.2267C7.00045 1.2267 7.91322 1.2267 7.96085 1.2267Z" fill="#534E52"/>
<defs>
<linearGradient id="paint0_linear_91_12570" x1="13.5092" y1="22.8302" x2="1.95279" y2="22.8719" gradientUnits="userSpaceOnUse">
<stop stop-color="#BFAB8D"/>
<stop offset="0.5078" stop-color="#E7E1D2"/>
<stop offset="1" stop-color="#CCBFA6"/>
</linearGradient>
<linearGradient id="paint1_linear_91_12570" x1="11.6255" y1="4.7003" x2="2.50007" y2="4.7003" gradientUnits="userSpaceOnUse">
<stop stop-color="#94938C"/>
<stop offset="0.2296" stop-color="#EDEBE1"/>
<stop offset="0.7876" stop-color="#EDEBE1"/>
<stop offset="1" stop-color="#94938C"/>
</linearGradient>
</defs>
</svg>
