<svg width="16" height="41" viewBox="0 0 16 41" fill="none" xmlns="http://www.w3.org/2000/svg">
<path d="M0.652832 9.20025C0.652832 9.20025 6.84936 35.1002 12.0734 39.4215C17.2973 43.7429 14.6854 35.1002 14.6854 35.1002C14.6854 35.1002 12.7403 19.1422 12.7403 16.1766C12.7403 13.1827 13.7684 7.59033 13.7684 7.59033C13.7684 7.59033 3.70942 9.79338 0.652832 9.20025Z" fill="url(#paint0_linear_144_5992)"/>
<path d="M11.9902 7.92922C11.7123 5.98037 11.4345 4.05976 11.1566 2.11091C11.1566 2.11091 10.9621 0.670469 9.46155 0.529249C7.96104 0.388028 5.40462 0.472767 5.2379 0.501011C4.20977 0.670476 3.73738 1.48956 3.65402 2.4781C3.51509 4.14451 3.20942 5.78267 2.93154 7.42083C2.87597 7.81625 2.73704 8.4941 2.57031 9.28493C3.26499 9.25669 3.98747 9.25669 4.68216 9.22844C4.65437 6.7712 4.62657 4.31397 4.59878 1.85673C4.59878 1.85673 10.2118 5.50022 10.2396 5.52847C10.2674 5.55671 11.101 8.12693 11.101 8.12693C11.2399 8.09869 11.4067 8.09868 11.5456 8.07044C11.6845 8.01395 11.8513 7.98571 11.9902 7.92922Z" fill="url(#paint1_linear_144_5992)"/>
<path d="M6.43272 0.755178C6.43272 0.755178 4.29309 0.726941 4.07079 1.99793C3.84849 3.26892 3.15381 7.84448 3.15381 7.84448C3.15381 7.84448 3.20937 8.88951 4.37644 9.34142C5.54351 9.82157 6.57166 11.3185 6.62723 11.8834C6.68281 12.4483 6.62723 24.1979 6.62723 24.1979C6.62723 24.1979 6.65501 24.9322 7.40527 24.9322V0.755178C7.37749 0.755178 6.4605 0.755178 6.43272 0.755178Z" fill="#544E52"/>
<path d="M8.34999 0.755178C8.34999 0.755178 10.4896 0.726941 10.7119 1.99793C10.962 3.26892 11.6289 7.84448 11.6289 7.84448C11.6289 7.84448 11.5733 8.88951 10.4062 9.34142C9.23919 9.82157 8.21107 11.2903 8.1555 11.8834C8.09992 12.4765 8.1555 24.1979 8.1555 24.1979C8.1555 24.1979 8.12769 24.9322 7.37744 24.9322V0.755178C7.37744 0.755178 8.29442 0.755178 8.34999 0.755178Z" fill="#544E52"/>
<defs>
<linearGradient id="paint0_linear_144_5992" x1="13.8954" y1="24.1066" x2="2.33971" y2="24.1459" gradientUnits="userSpaceOnUse">
<stop stop-color="#C4AB89"/>
<stop offset="0.5078" stop-color="#E8E1D1"/>
<stop offset="1" stop-color="#D0BFA4"/>
</linearGradient>
<linearGradient id="paint1_linear_144_5992" x1="12.0006" y1="4.87309" x2="2.55641" y2="4.87161" gradientUnits="userSpaceOnUse">
<stop stop-color="#94938C"/>
<stop offset="0.2296" stop-color="#EDEBE0"/>
<stop offset="0.7876" stop-color="#EDEBE0"/>
<stop offset="1" stop-color="#94938C"/>
</linearGradient>
</defs>
</svg>
