<svg width="16" height="38" viewBox="0 0 16 38" fill="none" xmlns="http://www.w3.org/2000/svg">
<path d="M0.726562 7.35982C1.52955 12.616 2.94541 17.868 4.78865 22.8479C6.81471 28.3209 9.34617 33.7943 14.2675 37.224C14.3868 37.307 14.5148 37.3933 14.6599 37.4005C14.8078 37.4078 14.9471 37.3311 15.0655 37.2422C15.7437 36.7354 15.9928 35.8104 15.9229 34.9666C15.8531 34.1228 15.5164 33.3284 15.2225 32.5345C13.4287 27.6921 12.9909 22.3629 12.4796 17.2615C12.1557 14.0319 11.3877 10.0732 12.1489 6.85353C12.9664 3.39797 1.23285 6.74602 0.726562 7.35982Z" fill="url(#paint0_linear_91_12584)"/>
<path d="M11.3994 7.9164L10.5474 2.11167C10.5474 2.11167 10.3455 0.689878 8.84696 0.553322C7.34842 0.416767 4.7828 0.498424 4.60994 0.526098C4.43709 0.553318 3.4857 0.908983 3.25523 1.51055C3.02475 2.11212 2.27344 7.62515 2.27344 7.62515L2.56652 7.90324L3.97568 1.83856C3.97568 1.83856 9.596 5.42029 9.62504 5.44797C9.65407 5.47519 10.4898 7.99081 10.4898 7.99081L10.9512 8.01804L11.3994 7.9164Z" fill="url(#paint1_linear_91_12584)"/>
<path d="M5.81358 0.773571C5.81358 0.773571 3.68706 0.734557 3.43938 1.98804C3.19171 3.24152 2.53125 7.72692 2.53125 7.72692C2.53125 7.72692 2.59882 8.74178 3.75191 9.20406C4.90544 9.66635 5.95829 11.1353 5.99957 11.7033C6.04085 12.2713 5.99957 23.8266 5.99957 23.8266C5.99957 23.8266 6.02133 24.5616 6.77432 24.5616V0.773571C6.77387 0.773571 5.86121 0.773571 5.81358 0.773571Z" fill="#534E52"/>
<path d="M7.7344 0.773571C7.7344 0.773571 9.86141 0.734557 10.1091 1.98804C10.3569 3.24152 11.0175 7.72692 11.0175 7.72692C11.0175 7.72692 10.9499 8.74178 9.79655 9.20406C8.64275 9.66635 7.58966 11.1353 7.54837 11.7033C7.50708 12.2713 7.54837 23.8266 7.54837 23.8266C7.54837 23.8266 7.52661 24.5616 6.77344 24.5616V0.773571C6.77389 0.773571 7.68676 0.773571 7.7344 0.773571Z" fill="#534E52"/>
<defs>
<linearGradient id="paint0_linear_91_12584" x1="3.9546" y1="21.3271" x2="14.3209" y2="21.3646" gradientUnits="userSpaceOnUse">
<stop stop-color="#BFAB8D"/>
<stop offset="0.5078" stop-color="#E7E1D2"/>
<stop offset="1" stop-color="#CCBFA6"/>
</linearGradient>
<linearGradient id="paint1_linear_91_12584" x1="11.3994" y1="4.24717" x2="2.27351" y2="4.24717" gradientUnits="userSpaceOnUse">
<stop stop-color="#94938C"/>
<stop offset="0.2296" stop-color="#EDEBE1"/>
<stop offset="0.7876" stop-color="#EDEBE1"/>
<stop offset="1" stop-color="#94938C"/>
</linearGradient>
</defs>
</svg>
