<svg width="24" height="41" viewBox="0 0 24 41" fill="none" xmlns="http://www.w3.org/2000/svg">
<path d="M10.8175 2.35687C10.8175 2.35687 9.90052 0.266802 8.06656 0.803441C6.2326 1.34008 5.59349 6.19808 5.92694 9.78509C6.26039 13.3721 7.81647 24.7827 10.5396 25.0087C13.235 25.2347 18.1811 18.795 15.9304 15.1797C13.6796 11.5645 9.95609 5.26602 10.8175 2.35687Z" fill="url(#paint0_linear_144_5900)"/>
<path d="M22.6272 33.3125C19.1538 32.6912 16.2639 32.4087 14.2077 32.2675C12.2625 32.1263 11.29 32.0698 10.373 32.1545C6.39945 32.5782 3.34285 33.6515 3.34285 33.6515C3.34285 33.6515 3.06497 33.4255 3.17612 30.4881C3.20391 29.9515 3.2317 29.4148 3.17612 28.8782C2.89825 26.9576 1.84234 25.1217 1.42553 23.1729C0.925359 20.9416 0.591911 18.6538 0.369613 16.366C0.147315 13.937 0.0639536 11.4798 0.369613 9.05079C0.508549 8.00575 0.675274 6.96072 1.09208 5.97217C1.39774 5.20958 2.17579 3.74088 3.14834 3.85386C3.50957 3.8821 3.84302 4.10806 4.0931 4.36225C4.62106 4.84241 4.9823 5.49202 5.23238 6.16988C5.73255 7.58209 5.73255 9.07904 5.81591 10.5477C5.92706 12.0729 6.31608 13.4569 6.64953 14.9538C7.26084 17.6935 8.0111 20.9133 9.7617 23.1446C10.1785 23.6813 10.8454 24.1332 11.5123 24.0767C11.8735 24.0485 12.1792 23.879 12.4848 23.6813C13.513 22.9187 14.0409 21.6194 14.2354 20.3485C14.5967 17.7218 14.3188 14.8408 13.6241 12.2989C13.2073 10.8019 12.4848 9.47445 12.0125 8.00576C11.5401 6.45233 10.8732 3.40195 13.0128 2.80882C13.8742 2.58287 14.7912 3.00653 15.4303 3.65615C17.82 6.00042 19.4317 9.44621 20.821 12.4683C21.6824 14.3042 22.4883 16.2248 23.0162 18.1737C23.3219 19.3599 23.2941 20.5462 23.2663 21.7607C23.2107 25.1782 22.9884 29.9232 22.6272 33.3125Z" fill="url(#paint1_linear_144_5900)"/>
<path d="M17.5698 32.5216C17.2919 34.6117 17.014 36.73 16.7362 38.82C16.7362 38.82 16.5417 40.3452 15.0411 40.4865C13.5406 40.6277 10.9842 40.5429 10.8175 40.5147C10.2895 40.43 9.81714 40.1758 9.56706 39.6956C9.31697 39.2437 9.28919 38.6788 9.23361 38.1704C9.09468 37.2949 9.15025 38.0575 8.78902 35.3743C8.59451 33.9056 8.45557 32.4651 8.45557 32.4651C8.45557 32.4651 8.6223 32.4369 8.84459 32.3804C9.28919 34.6399 9.73378 36.8712 10.1784 39.1307C10.1784 39.1307 15.7914 35.2895 15.8192 35.2613C15.847 35.233 16.6806 32.5498 16.6806 32.5498C16.6806 32.5216 16.6528 32.4933 16.6528 32.4651C16.9307 32.4933 17.2641 32.5216 17.5698 32.5216Z" fill="url(#paint2_linear_144_5900)"/>
<path d="M11.9845 40.2888C11.9845 40.2888 9.84484 40.317 9.62254 38.9896C9.40024 37.6621 8.70557 32.8323 8.70557 32.8323C8.70557 32.8323 8.76114 31.7591 9.9282 31.2507C11.0953 30.7423 12.1234 29.1888 12.179 28.5675C12.2345 27.9461 12.179 15.5751 12.179 15.5751C12.179 15.5751 12.2068 14.7843 12.957 14.7843V40.2888C12.957 40.2888 12.04 40.2888 11.9845 40.2888Z" fill="#544E52"/>
<path d="M13.9018 40.2888C13.9018 40.2888 16.0414 40.317 16.2637 38.9896C16.486 37.6621 17.1806 32.8323 17.1806 32.8323C17.1806 32.8323 17.1251 31.7591 15.958 31.2507C14.7909 30.7423 13.7628 29.1888 13.7072 28.5675C13.6517 27.9461 13.7072 15.5751 13.7072 15.5751C13.7072 15.5751 13.6795 14.7843 12.9292 14.7843V40.2888C12.957 40.2888 13.8462 40.2888 13.9018 40.2888Z" fill="#544E52"/>
<path d="M12.1513 32.4934L12.2902 32.4087C12.5959 32.2675 12.7348 31.8721 12.5681 31.5614L6.67722 19.3881C6.53828 19.0775 6.14926 18.9362 5.8436 19.1057L5.70466 19.1904C5.39901 19.3316 5.26007 19.7271 5.42679 20.0378L11.3177 32.211C11.4844 32.5217 11.8456 32.6629 12.1513 32.4934Z" fill="#544E52"/>
<path d="M17.4867 19.4446L17.32 19.4163C16.9866 19.3316 16.6531 19.5575 16.5697 19.8965L13.4854 33.1147C13.402 33.4537 13.6243 33.7926 13.9577 33.8773L14.1245 33.9056C14.4579 33.9903 14.7914 33.7644 14.8747 33.4254L17.9591 20.2071C18.0147 19.8682 17.8202 19.501 17.4867 19.4446Z" fill="#544E52"/>
<defs>
<linearGradient id="paint0_linear_144_5900" x1="14.2727" y1="23.8904" x2="-4.81285" y2="-22.0001" gradientUnits="userSpaceOnUse">
<stop offset="0.1599" stop-color="#C4AB89"/>
<stop offset="0.5078" stop-color="#E8E1D1"/>
<stop offset="0.7297" stop-color="#D0BFA4"/>
</linearGradient>
<linearGradient id="paint1_linear_144_5900" x1="1.44209" y1="17.8699" x2="22.3528" y2="18.8" gradientUnits="userSpaceOnUse">
<stop offset="0.1599" stop-color="#C4AB89"/>
<stop offset="0.5078" stop-color="#E8E1D1"/>
<stop offset="0.7297" stop-color="#D0BFA4"/>
</linearGradient>
<linearGradient id="paint2_linear_144_5900" x1="17.5647" y1="36.4919" x2="8.40613" y2="36.4919" gradientUnits="userSpaceOnUse">
<stop stop-color="#94938C"/>
<stop offset="0.2296" stop-color="#EDEBE0"/>
<stop offset="0.7876" stop-color="#EDEBE0"/>
<stop offset="1" stop-color="#94938C"/>
</linearGradient>
</defs>
</svg>
