<svg width="28" height="41" viewBox="0 0 28 41" fill="none" xmlns="http://www.w3.org/2000/svg">
<path d="M17.8929 36.5244C18.5598 38.7275 16.976 39.6313 15.5032 38.3038C12.6412 35.7901 10.9739 31.7512 9.52901 28.0512C8.86212 26.3283 5.94447 20.3122 7.47276 18.8435C8.97326 17.4031 14.9197 20.1428 15.2254 24.0122C15.3921 26.1023 15.4477 28.2206 15.8089 30.3107C16.1979 32.5985 17.226 34.3496 17.8929 36.5244Z" fill="url(#paint0_linear_144_6011)"/>
<path d="M1.10946 10.8222C1.33175 11.5848 1.41512 12.178 1.49848 12.5734C1.80414 13.9009 2.08202 15.2566 2.30432 16.584C2.47104 17.6856 2.63777 18.7871 2.72113 19.9169C2.83228 20.9902 2.72111 22.1764 2.94341 23.2497C3.13792 24.2947 3.49917 25.3962 3.8604 26.3848C4.88853 29.4069 6.47239 32.2313 8.33414 34.8015C9.2789 36.1008 10.2793 37.3153 11.3352 38.5015C12.0021 39.2359 13.3914 41.3824 14.5585 40.4786C15.0031 40.1397 15.1698 39.5466 15.142 38.9817C15.1142 38.4168 14.9197 37.9084 14.7252 37.3718C13.2803 33.3611 11.8909 28.3901 12.6967 24.097C12.7801 23.6451 12.919 23.1932 13.2247 22.8543C13.6415 22.4306 14.3084 22.3459 14.8641 22.4871C15.4199 22.6283 15.9201 23.0237 16.3369 23.4474C17.7818 24.8878 18.8099 26.8932 19.6991 28.729C20.366 30.113 20.8662 31.5817 21.144 33.1069C21.4219 34.5473 21.1719 36.2985 21.7554 37.6542C22.0888 38.4168 22.7835 39.0664 23.6171 39.0382C24.2562 39.0099 24.812 38.6145 25.2288 38.1061C26.7849 36.2985 27.0628 33.4458 27.1739 31.158C27.2851 28.2771 26.896 25.3962 26.4514 22.5718C25.7845 18.2222 25.1732 16.7535 24.2284 11.0482C24.0061 9.63599 23.8116 8.47797 23.7005 7.68713C20.8106 8.59095 17.0315 9.49476 12.5578 9.80545C7.75059 10.1444 3.63809 9.69248 0.553711 9.1276C0.720434 9.55126 0.914945 10.1161 1.10946 10.8222Z" fill="url(#paint1_linear_144_6011)"/>
<path d="M17.5039 9.21238C17.4761 8.90169 17.4205 8.59101 17.3927 8.28033C17.1426 6.2185 16.8648 4.21315 16.5591 2.23606C16.2812 1.78415 15.8922 0.654393 14.8641 0.569661C13.3636 0.42844 10.8072 0.513162 10.6405 0.541406C10.4737 0.56965 9.52898 0.965073 9.2789 1.58645C8.72315 3.16812 8.612 4.29789 8.33413 7.85666C8.25077 8.76048 8.16739 9.49483 8.11182 9.89025C9.33445 9.91849 10.5849 9.91848 11.8075 9.94672C11.1962 7.26352 10.6127 4.60858 10.0014 1.92538C10.0014 1.92538 15.6144 5.76659 15.6422 5.79484C15.6699 5.82308 16.5035 8.50628 16.5035 8.50628C16.3368 8.81696 16.1701 9.12766 16.0311 9.46659C16.5313 9.4101 17.0315 9.32536 17.5039 9.21238Z" fill="url(#paint2_linear_144_6011)"/>
<path d="M11.8355 0.823777C11.8355 0.823777 9.69588 0.795544 9.47359 2.12302C9.22351 3.47874 8.55664 8.28025 8.55664 8.28025C8.55664 8.28025 8.61219 9.35353 9.77924 9.86192C10.9463 10.3703 11.9744 11.9237 12.03 12.5451C12.0578 13.1665 12.03 25.5375 12.03 25.5375C12.03 25.5375 12.0578 26.3283 12.808 26.3283V0.852032C12.808 0.823788 11.891 0.823777 11.8355 0.823777Z" fill="#544E52"/>
<path d="M13.7528 0.823777C13.7528 0.823777 15.8925 0.795544 16.1148 2.12302C16.3371 3.4505 17.0318 8.28025 17.0318 8.28025C17.0318 8.28025 16.9762 9.35353 15.8091 9.86192C14.642 10.3703 13.6139 11.9237 13.5583 12.5451C13.5305 13.1665 13.5583 25.5375 13.5583 25.5375C13.5583 25.5375 13.5305 26.3283 12.7803 26.3283V0.852032C12.8081 0.823788 13.725 0.823777 13.7528 0.823777Z" fill="#544E52"/>
<path d="M20.1161 19.0414L19.9772 19.1261C19.6993 19.3238 19.3103 19.2391 19.1158 18.9284L13.6139 10.0597C13.4194 9.77726 13.5028 9.38185 13.8084 9.18414L13.9473 9.0994C14.2252 8.90169 14.6143 8.98642 14.8088 9.29711L20.3106 18.1658C20.4773 18.4765 20.394 18.8436 20.1161 19.0414Z" fill="#544E52"/>
<path d="M5.77767 18.2223L5.9166 18.307C6.19447 18.5047 6.58348 18.42 6.77798 18.1093L12.2797 9.2406C12.4742 8.95816 12.3909 8.56274 12.0852 8.36503L11.9463 8.28031C11.6684 8.0826 11.2794 8.16733 11.0849 8.47802L5.58314 17.3467C5.38864 17.6291 5.47202 18.0246 5.77767 18.2223Z" fill="#544E52"/>
<defs>
<linearGradient id="paint0_linear_144_6011" x1="10.1644" y1="17.9528" x2="18.175" y2="62.9261" gradientUnits="userSpaceOnUse">
<stop offset="0.1599" stop-color="#C4AB89"/>
<stop offset="0.5078" stop-color="#E8E1D1"/>
<stop offset="0.7297" stop-color="#D0BFA4"/>
</linearGradient>
<linearGradient id="paint1_linear_144_6011" x1="3.16102" y1="24.1319" x2="25.6867" y2="24.212" gradientUnits="userSpaceOnUse">
<stop stop-color="#C4AB89"/>
<stop offset="0.5078" stop-color="#E8E1D1"/>
<stop offset="1" stop-color="#D0BFA4"/>
</linearGradient>
<linearGradient id="paint2_linear_144_6011" x1="17.5117" y1="5.23958" x2="8.11621" y2="5.23958" gradientUnits="userSpaceOnUse">
<stop stop-color="#94938C"/>
<stop offset="0.2296" stop-color="#EDEBE0"/>
<stop offset="0.7876" stop-color="#EDEBE0"/>
<stop offset="1" stop-color="#94938C"/>
</linearGradient>
</defs>
</svg>
