<svg width="27" height="39" viewBox="0 0 27 39" fill="none" xmlns="http://www.w3.org/2000/svg">
<path d="M17.4376 34.1364C18.1131 36.3004 16.518 37.1832 15.0363 35.9012C12.1719 33.4223 10.5142 29.4459 9.05617 25.8034C8.38112 24.1167 5.48268 18.1854 7.00789 16.7518C8.52131 15.3291 14.4538 18.0379 14.7578 21.8442C14.9225 23.9089 14.9919 25.9794 15.3471 28.045C15.7336 30.2897 16.7752 32.0159 17.4376 34.1364Z" fill="url(#paint0_linear_91_12610)"/>
<path d="M0.662024 8.86416C0.849839 9.63858 1.01634 10.4266 1.05308 10.579C1.36838 11.8869 1.64193 13.2053 1.8615 14.5327C2.0407 15.6174 2.18405 16.7085 2.29066 17.8028C2.3941 18.8634 2.30382 20.0312 2.50615 21.071C2.70531 22.0958 3.07052 23.171 3.41575 24.1609C4.45237 27.1338 6.02249 29.9003 7.88704 32.429C8.82249 33.6975 9.83415 34.9092 10.9021 36.0683C11.5581 36.7806 12.9526 38.8892 14.1117 38.0132C14.5468 37.6843 14.7214 37.0977 14.6933 36.5528C14.6652 36.008 14.4656 35.489 14.2764 34.9773C12.8192 31.029 11.4337 26.1403 12.2531 21.9044C12.3383 21.463 12.4717 21.007 12.7884 20.6881C13.2035 20.2703 13.8681 20.1764 14.4361 20.3329C15.0041 20.4894 15.4886 20.861 15.9114 21.2711C17.3626 22.6797 18.3938 24.66 19.2807 26.461C19.9521 27.8247 20.4453 29.2778 20.7288 30.7718C21.0001 32.2017 20.7696 33.9012 21.344 35.2431C21.6656 35.9953 22.3829 36.64 23.2004 36.6164C23.8368 36.5982 24.4003 36.1886 24.8199 35.7095C26.366 33.9443 26.6622 31.1315 26.7525 28.8809C26.8659 26.0445 26.4622 23.2182 26.0226 20.424C25.4242 16.62 24.6552 12.8419 23.7965 9.08872C23.7634 8.94309 23.2961 6.57541 23.2017 6.57813C23.2017 6.57813 0.327232 7.21281 0.117188 7.21871C0.234232 7.21644 0.460144 8.03259 0.662024 8.86416Z" fill="url(#paint1_linear_91_12610)"/>
<path d="M16.9692 8.81087L16.1173 2.69243C16.1173 2.69243 15.9154 1.19355 14.4169 1.04975C12.918 0.905484 10.353 0.992126 10.1801 1.02071C10.0073 1.04974 9.05595 1.42401 8.82549 2.05822C8.59503 2.69243 7.84375 8.5033 7.84375 8.5033L8.13682 8.79636L9.54591 2.40391C9.54591 2.40391 15.1659 6.17921 15.195 6.20825C15.224 6.23728 16.0596 8.88844 16.0596 8.88844L16.5206 8.91748L16.9692 8.81087Z" fill="url(#paint2_linear_91_12610)"/>
<path d="M11.3843 1.28139C11.3843 1.28139 9.25751 1.24012 9.00981 2.56164C8.7621 3.88316 8.10156 8.61121 8.10156 8.61121C8.10156 8.61121 8.16914 9.68096 9.32237 10.1682C10.4756 10.6554 11.529 12.2038 11.5703 12.8026C11.6116 13.4014 11.5703 25.5818 11.5703 25.5818C11.5703 25.5818 11.5921 26.3567 12.3452 26.3567V1.28139C12.3452 1.28139 11.4324 1.28139 11.3843 1.28139Z" fill="#534E52"/>
<path d="M13.3046 1.28139C13.3046 1.28139 15.4314 1.24012 15.6791 2.56164C15.9268 3.88316 16.5874 8.61121 16.5874 8.61121C16.5874 8.61121 16.5198 9.68096 15.3665 10.1682C14.2133 10.6554 13.1599 12.2038 13.1186 12.8026C13.0773 13.4014 13.1186 25.5818 13.1186 25.5818C13.1186 25.5818 13.0968 26.3567 12.3438 26.3567V1.28139C12.3442 1.28139 13.2565 1.28139 13.3046 1.28139Z" fill="#534E52"/>
<path d="M19.5871 19.2543C19.2586 19.4616 18.8244 19.3641 18.6171 19.0356L13.187 10.446C12.9796 10.1175 13.0772 9.68336 13.4057 9.47604C13.7341 9.26871 14.1683 9.36624 14.3756 9.69469L19.8057 18.2843C20.0131 18.6123 19.9151 19.0469 19.5871 19.2543Z" fill="#534E52"/>
<path d="M5.3746 18.4418C5.70307 18.6491 6.13724 18.5516 6.34457 18.2231L11.7748 9.63346C11.9821 9.30501 11.8845 8.87086 11.5561 8.66354C11.2276 8.45621 10.7934 8.55374 10.5861 8.88219L5.15593 17.4719C4.94814 17.7999 5.04613 18.2345 5.3746 18.4418Z" fill="#534E52"/>
<defs>
<linearGradient id="paint0_linear_91_12610" x1="9.68567" y1="15.8536" x2="17.4475" y2="60.1457" gradientUnits="userSpaceOnUse">
<stop offset="0.1599" stop-color="#BFAB8D"/>
<stop offset="0.5078" stop-color="#E7E1D2"/>
<stop offset="0.7297" stop-color="#CCBFA6"/>
</linearGradient>
<linearGradient id="paint1_linear_91_12610" x1="2.70387" y1="22.3446" x2="25.2306" y2="22.4259" gradientUnits="userSpaceOnUse">
<stop stop-color="#BFAB8D"/>
<stop offset="0.5078" stop-color="#E7E1D2"/>
<stop offset="1" stop-color="#CCBFA6"/>
</linearGradient>
<linearGradient id="paint2_linear_91_12610" x1="16.9691" y1="4.9432" x2="7.84372" y2="4.9432" gradientUnits="userSpaceOnUse">
<stop stop-color="#94938C"/>
<stop offset="0.2296" stop-color="#EDEBE1"/>
<stop offset="0.7876" stop-color="#EDEBE1"/>
<stop offset="1" stop-color="#94938C"/>
</linearGradient>
</defs>
</svg>
