<svg width="23" height="39" viewBox="0 0 23 39" fill="none" xmlns="http://www.w3.org/2000/svg">
<path d="M12.4011 33.0001C12.5956 34.9772 11.3452 35.4291 10.4282 34.0451C8.67762 31.3619 8.01071 27.6337 7.45497 24.2161C7.1771 22.6344 5.87111 16.9856 7.1771 16.0535C8.4553 15.1215 12.4011 18.5955 12.0954 21.9283C11.9287 23.736 11.7064 25.5154 11.7064 27.3795C11.6786 29.3566 12.1788 31.0512 12.4011 33.0001Z" fill="url(#paint0_linear_144_6023)"/>
<path d="M0.758301 10.3765C0.952811 11.0261 1.98093 14.2459 2.31438 16.5337C2.42553 17.2963 2.45331 17.833 2.45331 18.0024C2.4811 18.8498 2.42553 19.6971 2.2866 20.5726C1.92536 22.9169 1.89758 25.3459 2.00873 27.6902C2.17545 31.3619 3.89827 34.1298 5.28763 37.4344C5.7878 38.6489 6.98266 39.2703 8.03857 38.1688C9.40015 36.7566 9.03889 33.7909 9.09447 31.9833C9.17783 29.526 9.20564 27.0406 9.70581 24.6398C9.90032 23.5948 10.206 22.5497 10.7339 21.6459C11.2619 20.7421 12.2344 20.2902 13.1792 20.9398C14.4296 21.8154 14.7075 23.7077 15.1521 25.0635C15.5689 26.3345 15.9301 27.6337 16.2914 28.9047C16.7915 30.7123 17.2639 32.5482 17.7363 34.384C17.9308 35.1466 18.5699 36.926 19.6814 36.1352C20.0426 35.881 20.2371 35.4291 20.3761 35.0054C20.8762 33.5932 21.2931 32.1528 21.6821 30.7123C22.2101 28.7635 22.7102 26.8429 22.8214 24.8375C22.9881 22.0978 21.9044 19.3582 21.4042 16.7032C20.9041 14.1612 21.3486 11.817 20.3761 8.11697C20.3205 7.89101 20.2649 7.6933 20.2371 7.58032C19.2924 7.80628 17.8474 8.11697 16.0135 8.39941C14.0962 8.68185 13.6516 8.65361 10.7061 9.02079C9.76137 9.13376 9.48351 9.19024 5.39879 9.75513C3.92606 9.92459 2.11987 10.1788 0.758301 10.3765Z" fill="url(#paint1_linear_144_6023)"/>
<path d="M5.70459 9.78336C6.06582 7.10017 6.42706 4.41697 6.7883 1.73378C6.7883 1.73378 6.98278 0.265081 8.42772 0.12386C9.87266 -0.017361 12.3735 0.0673611 12.5402 0.0956053C12.707 0.123849 13.6239 0.491034 13.8462 1.11241C14.402 2.66583 14.3186 3.82384 14.7632 7.26963C14.8466 7.83451 14.93 8.28641 14.9855 8.56885C14.4576 8.65358 13.9574 8.71009 13.4294 8.79482C13.3461 6.36582 13.2349 3.90857 13.1515 1.47958C13.1515 1.47958 7.70526 5.17956 7.67748 5.23604C7.64969 5.26429 6.84386 7.86275 6.84386 7.86275C7.45518 8.37114 8.06649 8.87954 8.67781 9.38794C7.67747 9.47267 6.67714 9.64214 5.70459 9.78336Z" fill="url(#paint2_linear_144_6023)"/>
<path d="M9.42774 0.265062C9.42774 0.265062 7.28818 0.236811 7.06589 1.56429C6.8436 2.89176 6.14893 7.72151 6.14893 7.72151C6.14893 7.72151 6.20451 8.7948 7.37154 9.3032C8.53857 9.81159 9.56666 11.365 9.62223 11.9864C9.65002 12.6078 9.62223 24.9787 9.62223 24.9787C9.62223 24.9787 9.65003 25.7695 10.4003 25.7695V0.293299C10.3725 0.265055 9.48332 0.265062 9.42774 0.265062Z" fill="#544E52"/>
<path d="M11.3451 0.265062C11.3451 0.265062 13.4847 0.236811 13.707 1.56429C13.9293 2.89176 14.624 7.72151 14.624 7.72151C14.624 7.72151 14.5684 8.7948 13.4014 9.3032C12.2343 9.81159 11.2062 11.365 11.1506 11.9864C11.1228 12.6078 11.1506 24.9787 11.1506 24.9787C11.1506 24.9787 11.1228 25.7695 10.3726 25.7695V0.293299C10.3726 0.265055 11.2895 0.265062 11.3451 0.265062Z" fill="#544E52"/>
<path d="M17.2085 18.6237C16.8751 18.8214 16.4305 18.7084 16.236 18.3695L11.1509 9.41611C10.9564 9.07718 11.0675 8.62527 11.401 8.42756C11.7344 8.22986 12.179 8.34284 12.3735 8.73826L17.4586 17.6917C17.6531 17.9741 17.542 18.426 17.2085 18.6237Z" fill="#544E52"/>
<path d="M3.28682 18.5674L3.42576 18.6521C3.73141 18.8216 4.09267 18.7368 4.28718 18.4261L9.45556 9.3315C9.62228 9.02082 9.53891 8.65365 9.23325 8.45594L9.09432 8.37121C8.78866 8.20174 8.42743 8.28647 8.23293 8.59716L3.06455 17.6918C2.87004 18.0025 2.98116 18.3979 3.28682 18.5674Z" fill="#544E52"/>
<defs>
<linearGradient id="paint0_linear_144_6023" x1="9.26314" y1="15.8279" x2="7.084" y2="55.2651" gradientUnits="userSpaceOnUse">
<stop offset="0.1599" stop-color="#C4AB89"/>
<stop offset="0.5078" stop-color="#E8E1D1"/>
<stop offset="0.7297" stop-color="#D0BFA4"/>
</linearGradient>
<linearGradient id="paint1_linear_144_6023" x1="3.32634" y1="24.6733" x2="20.8636" y2="21.316" gradientUnits="userSpaceOnUse">
<stop stop-color="#C4AB89"/>
<stop offset="0.5078" stop-color="#E8E1D1"/>
<stop offset="1" stop-color="#D0BFA4"/>
</linearGradient>
<linearGradient id="paint2_linear_144_6023" x1="5.69303" y1="4.89763" x2="14.9578" y2="4.89763" gradientUnits="userSpaceOnUse">
<stop stop-color="#94938C"/>
<stop offset="0.2296" stop-color="#EDEBE0"/>
<stop offset="0.7876" stop-color="#EDEBE0"/>
<stop offset="1" stop-color="#94938C"/>
</linearGradient>
</defs>
</svg>
