<svg width="23" height="37" viewBox="0 0 23 37" fill="none" xmlns="http://www.w3.org/2000/svg">
<path d="M11.9081 30.7299C12.1099 32.687 10.8402 33.132 9.93923 31.7683C8.19678 29.1321 7.52447 25.4579 6.95287 22.104C6.68795 20.5511 5.37785 14.9902 6.66983 14.0656C7.95184 13.1487 11.8813 16.558 11.5978 19.8325C11.444 21.6091 11.2199 23.3725 11.2035 25.1857C11.1854 27.1569 11.7098 28.8128 11.9081 30.7299Z" fill="url(#paint0_linear_91_12632)"/>
<path d="M0.28125 8.46848C0.966721 10.427 1.51929 12.4712 1.8382 14.5218C2.05278 15.9019 2.02103 17.1286 1.81145 18.4946C1.45896 20.7901 1.43353 23.186 1.53243 25.5015C1.68667 29.1132 3.41918 31.8334 4.80419 35.0821C5.31319 36.2757 6.49039 36.9022 7.55739 35.8039C8.91064 34.4111 8.54592 31.4836 8.59991 29.717C8.6734 27.2989 8.72241 24.8641 9.206 22.4846C9.41423 21.4602 9.70684 20.439 10.2417 19.5407C10.7734 18.6475 11.756 18.2119 12.6973 18.8552C13.9508 19.7118 14.2334 21.5881 14.6662 22.9237C15.0722 24.1763 15.4401 25.4411 15.7953 26.7092C16.2971 28.4998 16.7612 30.3018 17.2393 32.0988C17.4376 32.8428 18.0844 34.5903 19.1782 33.8309C19.5475 33.5741 19.7299 33.1295 19.8837 32.7071C20.3886 31.318 20.7919 29.8948 21.1943 28.473C21.7336 26.5681 22.2299 24.6686 22.3461 22.6847C22.5044 19.9799 21.4388 17.3073 20.918 14.6892C20.3645 11.9068 20.0188 9.08319 19.8864 6.24958C19.8777 6.06312 19.8632 5.86034 19.7376 5.72243C19.5674 5.53642 19.2758 5.55092 19.0258 5.57951C15.9541 5.93155 12.8761 6.21783 9.80754 6.60164C7.73116 6.85977 5.65208 7.13287 3.59385 7.51214C2.68655 7.67909 0.984414 7.76529 0.28125 8.46848Z" fill="url(#paint1_linear_91_12632)"/>
<path d="M8.94719 0.33608C8.94719 0.33608 6.82016 0.294795 6.57243 1.61635C6.3247 2.93791 5.66406 7.6661 5.66406 7.6661C5.66406 7.6661 5.73167 8.73589 6.88503 9.22313C8.03838 9.71038 9.09147 11.2588 9.13276 11.8576C9.17405 12.4565 9.13276 24.6372 9.13276 24.6372C9.13276 24.6372 9.15454 25.4121 9.90771 25.4121V0.33608C9.90771 0.33608 8.99483 0.33608 8.94719 0.33608Z" fill="#534E52"/>
<path d="M10.8665 0.33608C10.8665 0.33608 12.9931 0.294795 13.2408 1.61635C13.4884 2.93791 14.1489 7.6661 14.1489 7.6661C14.1489 7.6661 14.0813 8.73589 12.9282 9.22313C11.7752 9.71038 10.7223 11.2588 10.681 11.8576C10.6397 12.4565 10.681 24.6372 10.681 24.6372C10.681 24.6372 10.6593 25.4121 9.90625 25.4121V0.33608C9.90625 0.33608 10.8189 0.33608 10.8665 0.33608Z" fill="#534E52"/>
<path d="M16.7224 18.3922C16.3862 18.5863 15.9561 18.4711 15.7619 18.1349L10.6803 9.33441C10.4861 8.99825 10.6013 8.56818 10.9375 8.37402C11.2737 8.17985 11.7039 8.29508 11.898 8.6766L16.9797 17.4771C17.1739 17.7679 17.0586 18.198 16.7224 18.3922Z" fill="#534E52"/>
<path d="M2.85938 18.3861C3.19555 18.5802 3.62564 18.465 3.81981 18.1289L8.90103 9.32817C9.09521 8.99201 8.97997 8.56193 8.6438 8.36776C8.30762 8.1736 7.87754 8.28882 7.68336 8.62499L2.60214 17.4257C2.40797 17.7618 2.5232 18.1919 2.85938 18.3861Z" fill="#534E52"/>
<defs>
<linearGradient id="paint0_linear_91_12632" x1="8.7342" y1="13.8094" x2="6.62449" y2="52.6141" gradientUnits="userSpaceOnUse">
<stop offset="0.1599" stop-color="#BFAB8D"/>
<stop offset="0.5078" stop-color="#E7E1D2"/>
<stop offset="0.7297" stop-color="#CCBFA6"/>
</linearGradient>
<linearGradient id="paint1_linear_91_12632" x1="2.80802" y1="22.3598" x2="20.3017" y2="18.9558" gradientUnits="userSpaceOnUse">
<stop stop-color="#BFAB8D"/>
<stop offset="0.5078" stop-color="#E7E1D2"/>
<stop offset="1" stop-color="#CCBFA6"/>
</linearGradient>
</defs>
</svg>
