<svg width="12" height="43" viewBox="0 0 12 43" fill="none" xmlns="http://www.w3.org/2000/svg">
<path d="M11.1679 35.5777C11.1316 35.6072 11.088 35.6304 11.0349 35.6449C10.7682 35.7197 9.94613 35.3173 9.65534 35.2411C8.6913 34.9889 7.71637 34.7779 6.73555 34.6024C5.69621 34.4164 4.64644 34.2399 3.58804 34.2313C3.02777 34.2267 2.46431 34.2657 1.91584 34.3846C1.4286 34.4903 0.903714 34.8242 0.442338 34.8659C0.106174 33.5553 0.447332 32.031 0.525362 30.6999C0.612012 29.22 0.74811 27.7434 0.932751 26.2726C1.27935 23.5124 1.96802 20.8553 2.47068 18.1301C2.95973 15.4793 3.09582 12.677 3.0373 9.9777C3.00963 8.70834 2.93296 7.4367 2.78733 6.17551C2.66348 5.09895 2.35317 4.13536 2.46341 3.01979C2.57547 1.88562 3.10761 0.168033 4.60515 0.632589C5.73251 0.982368 6.43433 2.22224 7.00322 3.16496C8.08702 4.96012 8.87595 6.91589 9.60272 8.88254C10.3286 10.8465 10.9977 12.8444 11.3765 14.9077C11.7073 16.7074 11.6669 18.469 11.6356 20.286C11.5866 23.1704 11.5176 26.0543 11.4464 28.9383C11.4006 30.7993 11.5067 32.7405 11.3602 34.6278C11.3334 34.9807 11.3852 35.3999 11.1679 35.5777Z" fill="url(#paint0_linear_91_12523)"/>
<path d="M10.4614 34.3019L9.60945 40.4205C9.60945 40.4205 9.40757 41.9194 7.90911 42.0632C6.4102 42.2075 3.84517 42.1208 3.67232 42.0922C3.49947 42.0636 2.54813 41.6889 2.31767 41.0547C2.0872 40.4205 1.33594 34.6095 1.33594 34.6095L1.629 34.3164L3.0381 40.709C3.0381 40.709 8.65811 36.9336 8.68715 36.9046C8.71618 36.8756 9.55184 34.2244 9.55184 34.2244L10.0128 34.1953L10.4614 34.3019Z" fill="url(#paint1_linear_91_12523)"/>
<path d="M4.8763 41.8331C4.8763 41.8331 2.74963 41.8744 2.50194 40.5529C2.25425 39.2313 1.59375 34.5033 1.59375 34.5033C1.59375 34.5033 1.66134 33.4335 2.81449 32.9463C3.9681 32.4591 5.02101 30.9107 5.06229 30.3119C5.10357 29.7131 5.06229 17.5327 5.06229 17.5327C5.06229 17.5327 5.08407 16.7578 5.83711 16.7578V41.8331C5.83666 41.8331 4.92394 41.8331 4.8763 41.8331Z" fill="#534E52"/>
<path d="M6.79685 41.8331C6.79685 41.8331 8.92377 41.8744 9.17148 40.5529C9.4192 39.2313 10.0798 34.5033 10.0798 34.5033C10.0798 34.5033 10.0122 33.4335 8.85889 32.9463C7.70515 32.4591 6.65213 30.9107 6.61085 30.3119C6.56956 29.7131 6.61085 17.5327 6.61085 17.5327C6.61085 17.5327 6.58907 16.7578 5.83594 16.7578V41.8331C5.83639 41.8331 6.74922 41.8331 6.79685 41.8331Z" fill="#534E52"/>
<defs>
<linearGradient id="paint0_linear_91_12523" x1="-2.46708" y1="19.153" x2="11.8923" y2="17.6451" gradientUnits="userSpaceOnUse">
<stop stop-color="#BFAB8D"/>
<stop offset="0.5078" stop-color="#E7E1D2"/>
<stop offset="1" stop-color="#CCBFA6"/>
</linearGradient>
<linearGradient id="paint1_linear_91_12523" x1="10.4614" y1="38.1697" x2="1.33601" y2="38.1697" gradientUnits="userSpaceOnUse">
<stop stop-color="#94938C"/>
<stop offset="0.2296" stop-color="#EDEBE1"/>
<stop offset="0.7876" stop-color="#EDEBE1"/>
<stop offset="1" stop-color="#94938C"/>
</linearGradient>
</defs>
</svg>
