<svg width="12" height="47" viewBox="0 0 12 47" fill="none" xmlns="http://www.w3.org/2000/svg">
<path d="M0.190918 38.9958C0.190918 38.9958 0.524359 27.6981 1.49691 24.7043C2.46946 21.7104 3.4698 11.7402 3.13636 9.08522C2.80291 6.43027 2.80291 2.44784 2.80291 2.44784C2.80291 2.44784 2.46947 -0.546044 5.41491 1.76998C8.36035 4.086 11.9449 15.3837 11.6115 20.044C11.278 24.7043 11.1946 38.7134 11.2224 38.6851C11.2224 38.6851 8.49929 37.7248 6.38746 37.5554C5.16482 37.4424 2.99743 37.5271 0.190918 38.9958Z" fill="url(#paint0_linear_144_5794)"/>
<path d="M10.5558 38.4591C10.2501 40.7187 9.91665 42.9782 9.61099 45.2377C9.61099 45.2377 9.41648 46.7629 7.91597 46.9041C6.41546 47.0454 3.85903 46.9606 3.6923 46.9324C3.52558 46.9041 2.58081 46.5087 2.33073 45.8874C1.7472 44.2492 1.91392 43.0065 1.35817 39.3347C1.3026 38.9675 1.24703 38.6568 1.21924 38.4874C1.55269 38.3744 1.85835 38.2332 2.19179 38.1202C2.49745 40.6057 2.77533 43.0629 3.08099 45.5484C3.08099 45.5484 8.69401 41.7072 8.7218 41.679C8.74958 41.6507 9.5832 38.9675 9.5832 38.9675C9.49984 38.6569 9.38869 38.3744 9.30533 38.0637C9.69435 38.2049 10.1112 38.3179 10.5558 38.4591Z" fill="url(#paint1_linear_144_5794)"/>
<path d="M4.85899 46.6782C4.85899 46.6782 2.71936 46.7064 2.49706 45.379C2.24697 44.0232 1.58008 39.2217 1.58008 39.2217C1.58008 39.2217 1.63565 38.1485 2.80272 37.6401C3.96979 37.1317 4.99793 35.5782 5.0535 34.9569C5.10907 34.3355 5.0535 21.9645 5.0535 21.9645C5.0535 21.9645 5.08128 21.1737 5.83154 21.1737V46.6782C5.83154 46.6782 4.91456 46.6782 4.85899 46.6782Z" fill="#544E52"/>
<path d="M6.77626 46.6782C6.77626 46.6782 8.91588 46.7064 9.13818 45.379C9.38826 44.0232 10.0552 39.2217 10.0552 39.2217C10.0552 39.2217 9.99958 38.1485 8.83252 37.6401C7.66545 37.1317 6.63733 35.5782 6.58176 34.9569C6.55397 34.3355 6.58176 21.9645 6.58176 21.9645C6.58176 21.9645 6.55397 21.1737 5.80371 21.1737V46.6782C5.8315 46.6782 6.72069 46.6782 6.77626 46.6782Z" fill="#544E52"/>
<defs>
<linearGradient id="paint0_linear_144_5794" x1="1.09292" y1="19.9932" x2="13.9851" y2="19.6025" gradientUnits="userSpaceOnUse">
<stop stop-color="#C4AB89"/>
<stop offset="0.5078" stop-color="#E8E1D1"/>
<stop offset="1" stop-color="#D0BFA4"/>
</linearGradient>
<linearGradient id="paint1_linear_144_5794" x1="10.5497" y1="42.5322" x2="1.17608" y2="42.5322" gradientUnits="userSpaceOnUse">
<stop stop-color="#94938C"/>
<stop offset="0.2296" stop-color="#EDEBE0"/>
<stop offset="0.7876" stop-color="#EDEBE0"/>
<stop offset="1" stop-color="#94938C"/>
</linearGradient>
</defs>
</svg>
