<svg width="14" height="49" viewBox="0 0 14 49" fill="none" xmlns="http://www.w3.org/2000/svg">
<path d="M13.7416 45.1489C13.7416 45.1489 1.6602 42.1207 0.65625 43.8473L5.53536 9.29461C5.53536 9.29461 5.38384 0.414062 6.69128 0.414062C7.99873 0.414062 9.30616 4.33602 9.30616 4.33602C9.30616 4.33602 13.4503 36.879 13.7416 45.1489Z" fill="url(#paint0_linear_91_12443)"/>
<path d="M11.7034 41.1222L10.8514 47.2409C10.8514 47.2409 10.6496 48.7399 9.15114 48.8837C7.65272 49.0275 5.08729 48.9413 4.91445 48.9127C4.74161 48.8837 3.7903 48.5094 3.55984 47.8752C3.32938 47.2409 2.57812 41.4298 2.57812 41.4298L2.87118 41.1368L4.28024 47.5295C4.28024 47.5295 9.90013 43.754 9.92916 43.725C9.95819 43.6959 10.7938 41.0447 10.7938 41.0447L11.2552 41.0156L11.7034 41.1222Z" fill="url(#paint1_linear_91_12443)"/>
<path d="M6.11865 48.6536C6.11865 48.6536 3.99188 48.6949 3.74418 47.3734C3.49647 46.0519 2.83594 41.3237 2.83594 41.3237C2.83594 41.3237 2.90352 40.254 4.05673 39.7668C5.2104 39.2795 6.26337 37.7312 6.30466 37.1323C6.34594 36.5335 6.30466 24.353 6.30466 24.353C6.30466 24.353 6.32641 23.5781 7.0795 23.5781V48.6536C7.07904 48.6536 6.16629 48.6536 6.11865 48.6536Z" fill="#534E52"/>
<path d="M8.03898 48.6536C8.03898 48.6536 10.1658 48.6949 10.4135 47.3734C10.6612 46.0519 11.3217 41.3237 11.3217 41.3237C11.3217 41.3237 11.2541 40.254 10.1009 39.7668C8.94723 39.2795 7.89425 37.7312 7.85297 37.1323C7.81169 36.5335 7.85297 24.353 7.85297 24.353C7.85297 24.353 7.83121 23.5781 7.07812 23.5781V48.6536C7.07858 48.6536 7.99134 48.6536 8.03898 48.6536Z" fill="#534E52"/>
<defs>
<linearGradient id="paint0_linear_91_12443" x1="2.3169" y1="23.0249" x2="11.9214" y2="22.7291" gradientUnits="userSpaceOnUse">
<stop stop-color="#BFAB8D"/>
<stop offset="0.5078" stop-color="#E7E1D2"/>
<stop offset="1" stop-color="#CCBFA6"/>
</linearGradient>
<linearGradient id="paint1_linear_91_12443" x1="11.7034" y1="44.9901" x2="2.57819" y2="44.9901" gradientUnits="userSpaceOnUse">
<stop stop-color="#94938C"/>
<stop offset="0.2296" stop-color="#EDEBE1"/>
<stop offset="0.7876" stop-color="#EDEBE1"/>
<stop offset="1" stop-color="#94938C"/>
</linearGradient>
</defs>
</svg>
