<svg width="15" height="54" viewBox="0 0 15 54" fill="none" xmlns="http://www.w3.org/2000/svg">
<path d="M14.091 46.0751C12.7572 45.5102 10.6176 44.8041 7.92219 44.7476C4.55992 44.6628 1.94791 45.6232 0.530762 46.2728C2.30915 34.0713 4.08753 21.8416 5.89371 9.64007C5.89371 9.64007 5.75478 0.601929 7.06078 0.601929C8.36678 0.601929 9.67278 4.58436 9.67278 4.58436C9.67278 4.58436 13.7853 37.6865 14.091 46.0751Z" fill="url(#paint0_linear_144_6582)"/>
<path d="M12.0069 45.369C11.729 47.3461 11.4789 49.3232 11.201 51.3003C11.201 51.3003 11.0065 52.8255 9.50603 52.9667C8.00552 53.1079 5.4491 53.0232 5.28237 52.9949C5.11565 52.9667 4.17088 52.5713 3.92079 51.9499C3.6985 51.3003 2.94824 45.3972 2.94824 45.3972C3.05939 45.3408 3.17054 45.3125 3.28169 45.256C3.75407 47.3743 4.19867 49.4644 4.67105 51.5827C4.67105 51.5827 10.2841 47.7415 10.3119 47.7133C10.3396 47.685 11.1733 45.0018 11.1733 45.0018C11.2566 45.0866 11.3678 45.143 11.4511 45.2278C11.6179 45.256 11.8124 45.3125 12.0069 45.369Z" fill="url(#paint1_linear_144_6582)"/>
<path d="M6.4493 52.5431C6.4493 52.5431 4.30968 52.5713 4.08739 51.2438C3.8373 49.8881 3.17041 45.0866 3.17041 45.0866C3.17041 45.0866 3.22598 44.0133 4.39305 43.5049C5.56011 42.9965 6.58824 41.4431 6.64381 40.8217C6.6716 40.2004 6.64381 27.8294 6.64381 27.8294C6.64381 27.8294 6.6716 27.0386 7.42185 27.0386V52.5148C7.42185 52.5431 6.50487 52.5431 6.4493 52.5431Z" fill="#544E52"/>
<path d="M8.3666 52.5431C8.3666 52.5431 10.5062 52.5713 10.7285 51.2438C10.9786 49.8881 11.6455 45.0866 11.6455 45.0866C11.6455 45.0866 11.5899 44.0133 10.4229 43.5049C9.2558 42.9965 8.22767 41.4431 8.17209 40.8217C8.11652 40.2004 8.17209 27.8294 8.17209 27.8294C8.17209 27.8294 8.1443 27.0386 7.39404 27.0386V52.5148C7.42183 52.5431 8.33881 52.5431 8.3666 52.5431Z" fill="#544E52"/>
<defs>
<linearGradient id="paint0_linear_144_6582" x1="2.23082" y1="23.6092" x2="12.2157" y2="23.3066" gradientUnits="userSpaceOnUse">
<stop stop-color="#C4AB89"/>
<stop offset="0.5078" stop-color="#E8E1D1"/>
<stop offset="1" stop-color="#D0BFA4"/>
</linearGradient>
<linearGradient id="paint1_linear_144_6582" x1="12.0016" y1="49.0276" x2="2.92207" y2="49.0276" gradientUnits="userSpaceOnUse">
<stop stop-color="#94938C"/>
<stop offset="0.2296" stop-color="#EDEBE0"/>
<stop offset="0.7876" stop-color="#EDEBE0"/>
<stop offset="1" stop-color="#94938C"/>
</linearGradient>
</defs>
</svg>
