<svg width="13" height="46" viewBox="0 0 13 46" fill="none" xmlns="http://www.w3.org/2000/svg">
<path d="M7.12257 3.76374C8.31742 6.67289 9.45671 10.034 10.3459 13.8187C12.5967 23.4217 12.291 31.8949 11.5129 37.911C10.2625 37.0636 8.373 36.1033 6.12223 36.1881C2.84333 36.3293 0.231335 39.2949 0.481421 38.0804C1.95415 31.1041 2.64881 23.7606 2.34315 16.6431C2.232 13.7622 2.0375 10.853 1.95414 7.97212C1.89857 6.07976 1.59291 3.9332 2.37095 2.18206C2.7044 1.44772 3.26013 0.374436 4.14933 0.261459C5.67762 0.148482 6.67797 2.69046 7.12257 3.76374Z" fill="url(#paint0_linear_144_5778)"/>
<path d="M11.1518 37.7133C10.8739 39.6621 10.5961 41.611 10.2904 43.5598C10.2904 43.5598 10.0959 45.085 8.59537 45.2262C7.09486 45.3674 4.53845 45.2827 4.37173 45.2544C4.20501 45.2262 3.26023 44.8308 3.01015 44.2094C2.78785 43.5598 2.0376 37.6568 2.0376 37.6568L2.34325 37.3461L3.76041 43.8422C3.76041 43.8422 9.37342 40.001 9.4012 39.9728C9.42899 39.9445 10.2626 37.2614 10.2626 37.2614C10.346 37.2614 10.4571 37.2896 10.5405 37.2896C10.735 37.4308 10.9295 37.572 11.1518 37.7133Z" fill="url(#paint1_linear_144_5778)"/>
<path d="M5.56648 44.859C5.56648 44.859 3.42687 44.8872 3.20457 43.5598C2.95449 42.204 2.2876 37.4025 2.2876 37.4025C2.2876 37.4025 2.34316 36.3293 3.51022 35.8209C4.67728 35.3125 5.70542 33.759 5.76099 33.1377C5.78878 32.5163 5.76099 20.1453 5.76099 20.1453C5.76099 20.1453 5.78878 19.3545 6.53903 19.3545V44.8307C6.51124 44.859 5.59427 44.859 5.56648 44.859Z" fill="#544E52"/>
<path d="M7.48378 44.859C7.48378 44.859 9.6234 44.8872 9.8457 43.5598C10.0958 42.204 10.7627 37.4025 10.7627 37.4025C10.7627 37.4025 10.7071 36.3293 9.54005 35.8209C8.37298 35.3125 7.34486 33.759 7.28929 33.1377C7.2615 32.5163 7.28929 20.1453 7.28929 20.1453C7.28929 20.1453 7.26149 19.3545 6.51123 19.3545V44.8307C6.51123 44.859 7.42821 44.859 7.48378 44.859Z" fill="#544E52"/>
<defs>
<linearGradient id="paint0_linear_144_5778" x1="3.07397" y1="19.3574" x2="12.0903" y2="19.5159" gradientUnits="userSpaceOnUse">
<stop stop-color="#C4AB89"/>
<stop offset="0.5078" stop-color="#E8E1D1"/>
<stop offset="1" stop-color="#D0BFA4"/>
</linearGradient>
<linearGradient id="paint1_linear_144_5778" x1="11.1447" y1="41.287" x2="2.01987" y2="41.287" gradientUnits="userSpaceOnUse">
<stop stop-color="#94938C"/>
<stop offset="0.2296" stop-color="#EDEBE0"/>
<stop offset="0.7876" stop-color="#EDEBE0"/>
<stop offset="1" stop-color="#94938C"/>
</linearGradient>
</defs>
</svg>
