<svg width="12" height="45" viewBox="0 0 12 45" fill="none" xmlns="http://www.w3.org/2000/svg">
<path d="M6.79272 4.35766C6.79272 4.35766 13.9668 20.0427 11.0335 36.5498C11.0335 36.5498 0.631633 35.3167 0.117188 38.1403C1.57614 31.2732 2.27704 24.0463 1.99033 17.0362C1.87374 14.1922 1.67323 11.3523 1.59338 8.50688C1.54167 6.65411 1.21957 4.5373 2.01483 2.81156C2.34872 2.08615 2.90082 1.02004 3.80677 0.935662C5.34375 0.791397 6.33181 3.29744 6.79272 4.35766Z" fill="url(#paint0_linear_91_12488)"/>
<path d="M10.813 36.5207L9.96103 42.6392C9.96103 42.6392 9.75915 44.1381 8.26068 44.2819C6.76222 44.4257 4.19673 44.3395 4.02388 44.3109C3.85104 44.2819 2.8997 43.9076 2.66924 43.2734C2.43878 42.6392 1.6875 36.8283 1.6875 36.8283L1.98057 36.5352L3.38966 42.9277C3.38966 42.9277 9.00968 39.1524 9.03872 39.1233C9.06775 39.0943 9.90341 36.4431 9.90341 36.4431L10.3648 36.4141L10.813 36.5207Z" fill="url(#paint1_linear_91_12488)"/>
<path d="M5.22024 44.0521C5.22024 44.0521 3.09345 44.0934 2.84574 42.7718C2.59804 41.4503 1.9375 36.7222 1.9375 36.7222C1.9375 36.7222 2.00508 35.6525 3.15831 35.1652C4.31198 34.678 5.36496 33.1296 5.40624 32.5308C5.44753 31.9319 5.40624 19.7514 5.40624 19.7514C5.40624 19.7514 5.428 18.9766 6.18109 18.9766V44.0521C6.18064 44.0521 5.26787 44.0521 5.22024 44.0521Z" fill="#534E52"/>
<path d="M7.14054 44.0521C7.14054 44.0521 9.26733 44.0934 9.51503 42.7718C9.76274 41.4503 10.4233 36.7222 10.4233 36.7222C10.4233 36.7222 10.3557 35.6525 9.20247 35.1652C8.04879 34.678 6.99582 33.1296 6.95453 32.5308C6.91325 31.9319 6.95453 19.7514 6.95453 19.7514C6.95453 19.7514 6.93278 18.9766 6.17969 18.9766V44.0521C6.18014 44.0521 7.09291 44.0521 7.14054 44.0521Z" fill="#534E52"/>
<defs>
<linearGradient id="paint0_linear_91_12488" x1="2.74637" y1="19.5474" x2="11.7271" y2="19.7079" gradientUnits="userSpaceOnUse">
<stop stop-color="#BFAB8D"/>
<stop offset="0.5078" stop-color="#E7E1D2"/>
<stop offset="1" stop-color="#CCBFA6"/>
</linearGradient>
<linearGradient id="paint1_linear_91_12488" x1="10.813" y1="40.3884" x2="1.68755" y2="40.3884" gradientUnits="userSpaceOnUse">
<stop stop-color="#94938C"/>
<stop offset="0.2296" stop-color="#EDEBE1"/>
<stop offset="0.7876" stop-color="#EDEBE1"/>
<stop offset="1" stop-color="#94938C"/>
</linearGradient>
</defs>
</svg>
