<svg width="18" height="57" viewBox="0 0 18 57" fill="none" xmlns="http://www.w3.org/2000/svg">
<path d="M8.04689 0.788244C9.60298 2.34167 10.381 5.64625 11.1591 7.65158C13.5488 13.8088 15.355 20.2202 16.4109 26.7729C16.9388 30.021 17.2723 33.3255 17.3834 36.6301C17.439 38.2965 17.4668 39.9629 17.4112 41.6011C17.3834 42.9568 17.6057 44.9339 17.05 46.1766C16.3553 45.3858 15.8273 44.4538 15.1604 43.6912C13.4932 41.7423 11.1035 40.5278 8.51928 40.5278C7.43557 40.5278 6.35187 40.7538 5.32374 41.1209C4.90693 41.2622 4.5179 41.4599 4.10109 41.6576C2.96181 42.2507 1.57244 44.0018 0.349801 44.0866C0.183077 41.6576 0.766617 38.9179 1.0167 36.4889C1.0167 30.3034 2.21155 23.7508 3.12853 17.65C3.40641 15.8142 3.82321 14.0065 3.76764 12.1424C3.73985 10.2218 3.51756 8.3012 3.6565 6.38059C3.76765 4.6577 3.98994 0.505802 6.32407 0.223361C6.79646 0.166872 7.24105 0.336337 7.65786 0.505802C7.7968 0.590535 7.93574 0.675268 8.04689 0.788244Z" fill="url(#paint0_linear_144_5768)"/>
<path d="M1.15576 43.8889C1.62815 47.1369 2.10052 50.4133 2.5729 53.6614C2.5729 53.6614 2.87856 56.0621 5.24047 56.2881C7.60239 56.514 11.6315 56.3728 11.9094 56.3446C12.1873 56.2881 13.6878 55.6949 14.049 54.6781C14.4103 53.6614 15.6051 44.369 15.6051 44.369C15.6051 44.3408 15.6051 44.2843 15.6051 44.256C15.5496 44.1995 15.5218 44.1431 15.4662 44.0583C15.355 43.8889 15.2161 43.7759 15.1049 43.6347C14.3825 47.1369 13.66 50.611 12.9375 54.1133C12.9375 54.1133 4.1012 48.069 4.04563 48.0408C3.99005 47.9843 2.68406 43.7476 2.68406 43.7476C2.43398 43.6064 2.21167 43.4652 1.96158 43.324C1.85043 43.4087 1.73929 43.5217 1.60035 43.6064C1.43363 43.7194 1.2947 43.8041 1.15576 43.8889Z" fill="url(#paint1_linear_144_5768)"/>
<path d="M10.02 55.9209C10.02 55.9209 13.3545 55.9774 13.7435 53.8591C14.1325 51.7407 15.1606 44.1713 15.1606 44.1713C15.1606 44.1713 15.0495 42.4484 13.2433 41.6858C11.4372 40.895 9.76992 38.4377 9.71434 37.4774C9.65877 36.5171 9.71434 17.0286 9.71434 17.0286C9.71434 17.0286 9.68655 15.7859 8.4917 15.7859V55.8926C8.51949 55.9209 9.96442 55.9209 10.02 55.9209Z" fill="#544E52"/>
<path d="M7.01857 55.9209C7.01857 55.9209 3.6841 55.9774 3.29507 53.8591C2.90605 51.7407 1.87793 44.1713 1.87793 44.1713C1.87793 44.1713 1.98909 42.4484 3.79526 41.6858C5.60143 40.895 7.26865 38.4377 7.32423 37.4774C7.3798 36.5171 7.32423 17.0286 7.32423 17.0286C7.32423 17.0286 7.35202 15.7859 8.54687 15.7859V55.8926C8.51909 55.9209 7.07415 55.9209 7.01857 55.9209Z" fill="#544E52"/>
<defs>
<linearGradient id="paint0_linear_144_5768" x1="0.33299" y1="23.228" x2="17.4493" y2="23.228" gradientUnits="userSpaceOnUse">
<stop stop-color="#C4AB89"/>
<stop offset="0.5078" stop-color="#E8E1D1"/>
<stop offset="1" stop-color="#D0BFA4"/>
</linearGradient>
<linearGradient id="paint1_linear_144_5768" x1="1.16838" y1="49.8872" x2="15.5971" y2="49.8872" gradientUnits="userSpaceOnUse">
<stop stop-color="#94938C"/>
<stop offset="0.2296" stop-color="#EDEBE0"/>
<stop offset="0.7876" stop-color="#EDEBE0"/>
<stop offset="1" stop-color="#94938C"/>
</linearGradient>
</defs>
</svg>
