<svg width="19" height="55" viewBox="0 0 19 55" fill="none" xmlns="http://www.w3.org/2000/svg">
<path d="M8.69665 0.579038C10.2495 2.10472 11.0235 5.35797 11.8051 7.34413C14.195 13.416 16.0115 19.722 17.064 26.1654C17.588 29.3724 17.9228 32.6111 18.0502 35.8585C18.1147 37.4917 18.1269 39.1267 18.0856 40.7608C18.0521 42.0982 18.2726 44.0431 17.7168 45.2562C17.0327 44.4831 16.5454 43.5536 15.8214 42.81C14.0512 40.9917 11.7625 39.6915 9.17798 39.6902C8.08692 39.6897 7.01492 39.9111 5.99555 40.2836C5.58181 40.4346 5.17714 40.6102 4.78291 40.8062C3.63288 41.3778 2.24874 43.1031 1.02476 43.1961C0.846015 40.8039 1.45075 38.1191 1.67849 35.7201C1.67849 29.6301 2.8816 23.1984 3.793 17.1896C4.06702 15.3822 4.4794 13.5988 4.44129 11.766C4.40182 9.87377 4.18952 7.9838 4.31791 6.09019C4.43314 4.39484 4.64545 0.300487 6.98044 0.0405354C7.43955 -0.010729 7.89139 0.159399 8.32192 0.326802C8.46028 0.380789 8.58414 0.468344 8.69665 0.579038Z" fill="url(#paint0_linear_91_12470)"/>
<path d="M1.92969 42.2427L3.23624 51.3696C3.23624 51.3696 3.5538 53.7286 5.91287 53.9555C8.27193 54.1823 12.3096 54.0462 12.5818 54.0008C12.854 53.9555 14.3511 53.3657 14.714 52.3676C15.0769 51.3696 16.2596 42.2222 16.2596 42.2222L15.7978 41.7604L13.5798 51.8232C13.5798 51.8232 4.73334 45.8802 4.68797 45.8348C4.6426 45.7894 3.32697 41.6157 3.32697 41.6157L2.6011 41.5703C2.6011 41.5703 2.28355 41.8425 1.92969 42.2427Z" fill="url(#paint1_linear_91_12470)"/>
<path d="M10.6918 53.5938C10.6918 53.5938 14.0389 53.6587 14.4291 51.5791C14.8192 49.499 15.859 42.0571 15.859 42.0571C15.859 42.0571 15.7529 40.3731 13.9373 39.6064C12.1217 38.8397 10.4645 36.4022 10.3991 35.4599C10.3343 34.5177 10.3991 15.3449 10.3991 15.3449C10.3991 15.3449 10.3651 14.125 9.17969 14.125V53.5938C9.17969 53.5938 10.6165 53.5938 10.6918 53.5938Z" fill="#534E52"/>
<path d="M7.66726 53.5934C7.66726 53.5934 4.32011 53.6583 3.92996 51.5787C3.53981 49.4987 2.5 42.0567 2.5 42.0567C2.5 42.0567 2.60615 40.3727 4.42173 39.606C6.2373 38.8393 7.89456 36.4018 7.95989 35.4595C8.02476 34.5173 7.95989 15.3444 7.95989 15.3444C7.95989 15.3444 7.99391 14.125 9.17934 14.125V53.5939C9.17934 53.5934 7.74257 53.5934 7.66726 53.5934Z" fill="#534E52"/>
<defs>
<linearGradient id="paint0_linear_91_12470" x1="0.99243" y1="22.644" x2="18.1095" y2="22.644" gradientUnits="userSpaceOnUse">
<stop stop-color="#BFAB8D"/>
<stop offset="0.5078" stop-color="#E7E1D2"/>
<stop offset="1" stop-color="#CCBFA6"/>
</linearGradient>
<linearGradient id="paint1_linear_91_12470" x1="1.92947" y1="47.8266" x2="16.2594" y2="47.8266" gradientUnits="userSpaceOnUse">
<stop stop-color="#94938C"/>
<stop offset="0.2296" stop-color="#EDEBE1"/>
<stop offset="0.7876" stop-color="#EDEBE1"/>
<stop offset="1" stop-color="#94938C"/>
</linearGradient>
</defs>
</svg>
