<svg width="19" height="57" viewBox="0 0 19 57" fill="none" xmlns="http://www.w3.org/2000/svg">
<path d="M10.3057 0.816565C8.74962 2.36999 7.97159 5.67457 7.19355 7.6799C4.80385 13.8371 2.99767 20.2486 1.94176 26.8012C1.4138 30.0493 1.08036 33.3539 0.969208 36.6584C0.913634 38.3248 0.885853 39.9912 0.941428 41.6294C0.969215 42.9851 0.746914 44.9622 1.30266 46.205C1.99734 45.4141 2.46972 44.4821 3.19218 43.7195C4.97057 41.8836 7.24912 40.5561 9.83333 40.5561C11.3616 40.5561 12.8621 41.008 14.2237 41.6859C15.363 42.279 16.7523 44.0302 17.975 44.1149C18.1417 41.6859 17.5582 38.9462 17.3081 36.5172C17.3081 30.3317 16.1132 23.7791 15.1963 17.6783C14.9184 15.8425 14.5016 14.0348 14.5572 12.1707C14.5849 10.2501 14.8072 8.32952 14.6683 6.40891C14.5571 4.68602 14.3349 0.534123 12.0007 0.251681C11.5284 0.195193 11.0838 0.364658 10.667 0.534123C10.5558 0.618855 10.4169 0.703588 10.3057 0.816565Z" fill="url(#paint0_linear_144_6581)"/>
<path d="M17.4469 43.8889C16.9745 47.1369 16.5022 50.4133 16.0298 53.6613C16.0298 53.6613 15.7241 56.0621 13.3622 56.2881C11.0003 56.514 6.97113 56.3728 6.69326 56.3445C6.41539 56.288 4.91489 55.6949 4.55365 54.6781C4.19242 53.6613 2.99756 44.369 2.99756 44.369C2.99756 44.3408 2.99756 44.2843 2.99756 44.256C3.05313 44.1995 3.08092 44.1431 3.13649 44.0583C3.24764 43.8889 3.38658 43.7759 3.49773 43.6347C4.22019 47.1369 4.94268 50.611 5.66515 54.1132C5.66515 54.1132 14.5015 48.069 14.5571 48.0408C14.6126 47.9843 15.9186 43.7476 15.9186 43.7476C16.1687 43.6064 16.391 43.4652 16.6411 43.324C16.7523 43.4087 16.8634 43.5217 17.0023 43.6064C17.1691 43.7194 17.308 43.8041 17.4469 43.8889Z" fill="url(#paint1_linear_144_6581)"/>
<path d="M8.58302 55.9209C8.58302 55.9209 5.24854 55.9774 4.85952 53.8591C4.4705 51.7407 3.44238 44.1713 3.44238 44.1713C3.44238 44.1713 3.55352 42.4484 5.35969 41.6858C7.16586 40.895 8.83309 38.4377 8.88867 37.4774C8.94424 36.5171 8.88867 17.0286 8.88867 17.0286C8.88867 17.0286 8.91646 15.7859 10.1113 15.7859V55.8926C10.0835 55.9209 8.66638 55.9209 8.58302 55.9209Z" fill="#544E52"/>
<path d="M11.6118 55.9209C11.6118 55.9209 14.9463 55.9774 15.3353 53.8591C15.7243 51.7407 16.7524 44.1713 16.7524 44.1713C16.7524 44.1713 16.6413 42.4484 14.8351 41.6858C13.029 40.895 11.3617 38.4377 11.3061 37.4774C11.2506 36.5171 11.3061 17.0286 11.3061 17.0286C11.3061 17.0286 11.2783 15.7859 10.0835 15.7859V55.8926C10.0835 55.9209 11.5284 55.9209 11.6118 55.9209Z" fill="#544E52"/>
<defs>
<linearGradient id="paint0_linear_144_6581" x1="4.6212" y1="23.2143" x2="18.1016" y2="23.4514" gradientUnits="userSpaceOnUse">
<stop stop-color="#C4AB89"/>
<stop offset="0.5078" stop-color="#E8E1D1"/>
<stop offset="1" stop-color="#D0BFA4"/>
</linearGradient>
<linearGradient id="paint1_linear_144_6581" x1="17.4409" y1="49.8872" x2="3.01215" y2="49.8872" gradientUnits="userSpaceOnUse">
<stop stop-color="#94938C"/>
<stop offset="0.2296" stop-color="#EDEBE0"/>
<stop offset="0.7876" stop-color="#EDEBE0"/>
<stop offset="1" stop-color="#94938C"/>
</linearGradient>
</defs>
</svg>
