<svg width="18" height="55" viewBox="0 0 18 55" fill="none" xmlns="http://www.w3.org/2000/svg">
<path d="M10.038 0.579038C8.48514 2.10472 7.71119 5.35797 6.92952 7.34413C4.5396 13.416 2.72313 19.722 1.67062 26.1654C1.14663 29.3724 0.811817 32.6111 0.684336 35.8585C0.619916 37.4917 0.607676 39.1267 0.64896 40.7608C0.682531 42.0982 0.462044 44.0431 1.01779 45.2562C1.70192 44.4831 2.18914 43.5536 2.9132 42.81C4.6834 40.9917 6.97215 39.6915 9.55669 39.6902C10.6478 39.6897 11.7198 39.9111 12.7392 40.2836C13.1529 40.4346 13.5576 40.6102 13.9518 40.8062C15.1019 41.3778 16.486 43.1031 17.71 43.1961C17.8887 40.8039 17.284 38.1191 17.0563 35.7201C17.0563 29.6301 15.8531 23.1984 14.9417 17.1896C14.6677 15.3822 14.2553 13.5988 14.2934 11.766C14.3329 9.87377 14.5452 7.9838 14.4168 6.09019C14.3016 4.39484 14.0893 0.300487 11.7543 0.0405354C11.2952 -0.010729 10.8433 0.159399 10.4128 0.326802C10.2748 0.380789 10.151 0.468344 10.038 0.579038Z" fill="url(#paint0_linear_91_12476)"/>
<path d="M16.8061 42.2431L15.4996 51.37C15.4996 51.37 15.182 53.7291 12.823 53.9559C10.464 54.1828 6.42652 54.0467 6.15433 54.0013C5.88214 53.9559 4.38509 53.3662 4.02217 52.3681C3.65925 51.37 2.47656 42.2227 2.47656 42.2227L2.93839 41.7609L5.1563 51.8232C5.1563 51.8232 14.0025 45.8802 14.0479 45.8348C14.0932 45.7894 15.4088 41.6157 15.4088 41.6157L16.1347 41.5703C16.1342 41.5708 16.4518 41.843 16.8061 42.2431Z" fill="url(#paint1_linear_91_12476)"/>
<path d="M8.04265 53.5934C8.04265 53.5934 4.69479 53.6583 4.30506 51.5787C3.91488 49.4987 2.875 42.0567 2.875 42.0567C2.875 42.0567 2.98118 40.3727 4.79688 39.606C6.61259 38.8393 8.26994 36.4018 8.33527 35.4595C8.40015 34.5173 8.33527 15.3444 8.33527 15.3444C8.33527 15.3444 8.36929 14.125 9.55481 14.125V53.5939C9.55481 53.5934 8.11842 53.5934 8.04265 53.5934Z" fill="#534E52"/>
<path d="M11.0667 53.5934C11.0667 53.5934 14.4136 53.6583 14.8037 51.5787C15.1938 49.4987 16.2336 42.0567 16.2336 42.0567C16.2336 42.0567 16.1274 40.3727 14.312 39.606C12.4965 38.8393 10.8394 36.4018 10.7741 35.4595C10.7092 34.5173 10.7741 15.3444 10.7741 15.3444C10.7741 15.3444 10.74 14.125 9.55469 14.125V53.5939C9.55469 53.5934 10.9914 53.5934 11.0667 53.5934Z" fill="#534E52"/>
<defs>
<linearGradient id="paint0_linear_91_12476" x1="17.7425" y1="22.644" x2="0.625216" y2="22.644" gradientUnits="userSpaceOnUse">
<stop stop-color="#BFAB8D"/>
<stop offset="0.5078" stop-color="#E7E1D2"/>
<stop offset="1" stop-color="#CCBFA6"/>
</linearGradient>
<linearGradient id="paint1_linear_91_12476" x1="16.806" y1="47.827" x2="2.47646" y2="47.827" gradientUnits="userSpaceOnUse">
<stop stop-color="#94938C"/>
<stop offset="0.2296" stop-color="#EDEBE1"/>
<stop offset="0.7876" stop-color="#EDEBE1"/>
<stop offset="1" stop-color="#94938C"/>
</linearGradient>
</defs>
</svg>
