<svg width="19" height="22" viewBox="0 0 19 22" fill="none" xmlns="http://www.w3.org/2000/svg">
<path d="M9.84375 21.1708C9.84375 21.1708 15.1425 22.2664 17.0202 19.514C18.898 16.7615 10.4752 19.5103 9.84375 21.1708Z" fill="#D9D7D0"/>
<path d="M9.06958 21.4138C9.06958 21.4138 3.42647 21.7953 2.02239 18.136C0.6183 14.4768 8.73705 19.2956 9.06958 21.4138Z" fill="#D9D7D0"/>
<path d="M6.81639 0.878667C6.73337 0.919497 6.65444 0.965771 6.58004 1.01794C5.14241 2.0219 3.93068 3.64965 3.01657 5.1218C1.62748 7.35837 0.635799 9.91659 0.903001 12.586C1.08537 14.4106 1.28996 16.5088 2.20181 18.1474C2.7344 19.1047 3.9316 19.5434 4.9065 19.8827C5.74168 20.1735 6.58457 20.4466 7.40341 20.7819C8.15966 21.0913 8.90184 21.6189 9.7538 21.5508C10.7332 21.4723 11.4173 20.7047 12.2008 20.2066C13.4302 19.4254 14.9019 19.0248 16.3581 19.0951C16.614 19.1074 16.8762 19.1333 17.1216 19.0584C17.4795 18.9495 17.7413 18.6456 17.9522 18.3371C18.9131 16.9334 18.8877 15.5733 18.8958 13.9411C18.9045 12.2825 18.8722 10.6139 18.556 8.98068C17.9931 6.07041 16.0705 3.66281 15.0597 0.915868C15.0017 0.757539 14.9436 0.59558 14.837 0.464924C14.6546 0.241267 14.3561 0.144636 14.0685 0.121499C13.5296 0.0779476 12.9865 0.161423 12.4526 0.218584C11.44 0.327464 10.4515 0.440426 9.43352 0.510291C8.62601 0.566092 7.56764 0.507115 6.81639 0.878667Z" fill="url(#paint0_linear_123_40020)"/>
<defs>
<linearGradient id="paint0_linear_123_40020" x1="24.8454" y1="11.2382" x2="-5.39006" y2="10.3068" gradientUnits="userSpaceOnUse">
<stop stop-color="#94938C"/>
<stop offset="0.2666" stop-color="#EDEBE0"/>
<stop offset="0.7117" stop-color="#EDEBE0"/>
<stop offset="1" stop-color="#94938C"/>
</linearGradient>
</defs>
</svg>
