<svg width="26" height="22" viewBox="0 0 26 22" fill="none" xmlns="http://www.w3.org/2000/svg">
<path d="M22.2476 5.84588C22.5198 5.9289 22.91 6.66838 23.0611 6.88115C23.6595 7.72542 24.1776 8.63412 24.5654 9.59499C25.6107 12.1841 25.4592 15.0236 23.4984 17.1445C23.4753 17.1694 23.4517 17.1944 23.4285 17.2193C23.3228 17.3305 23.2126 17.4389 23.1264 17.5655C22.8846 17.9207 22.827 18.3658 22.5979 18.7301C22.3815 19.0744 22.0635 19.3965 21.7554 19.6564C21.03 20.2689 20.0637 20.6944 19.0987 20.5992C18.7671 20.5665 18.4509 20.4486 18.1392 20.3315C16.7859 19.8234 15.3165 19.2441 14.5988 17.9003C14.6805 18.0536 14.308 18.6774 14.2141 18.8045C13.9891 19.1102 13.7132 19.2432 13.3653 19.3774C12.2161 19.8216 10.9654 20.1782 9.86389 20.7289C9.10264 21.022 8.46023 21.3005 7.68582 21.0465C7.23488 20.8986 6.77804 20.7688 6.33209 20.6055C5.49734 20.3002 4.10865 19.7658 4.10865 18.6829C4.10865 17.0084 2.71317 11.9854 6.06215 6.96235C9.4093 1.94115 22.2372 5.8427 22.2476 5.84588Z" fill="#D9D7D0"/>
<path d="M22.2618 1.71847C22.5807 1.81555 23.038 2.68205 23.2145 2.93111C23.9154 3.9201 24.5219 4.9844 24.9765 6.10949C26.2009 9.14223 26.0231 12.468 23.7271 14.9514C23.6999 14.9804 23.6722 15.0099 23.645 15.039C23.5212 15.1692 23.3923 15.2962 23.2911 15.4445C23.0076 15.861 22.9405 16.3814 22.6723 16.8087C22.4192 17.2116 22.0467 17.589 21.6856 17.8939C20.8359 18.6111 19.7041 19.1092 18.5744 18.9981C18.1861 18.96 17.8159 18.8216 17.4507 18.6846C15.8656 18.0899 14.1444 17.4107 13.3038 15.837C13.3995 16.0162 12.9631 16.747 12.8533 16.8963C12.5897 17.2542 12.2663 17.4098 11.8593 17.5672C10.5133 18.0876 9.04845 18.505 7.75824 19.1501C6.86679 19.4935 6.11462 19.8197 5.2073 19.5221C4.67924 19.3488 4.14393 19.1968 3.62177 19.0058C2.64413 18.6483 1.0173 18.0223 1.0173 16.7538C1.0173 14.7926 -0.616782 8.90951 3.30512 3.02638C7.22565 -2.85447 22.2495 1.71484 22.2618 1.71847Z" fill="url(#paint0_linear_123_40027)"/>
<defs>
<linearGradient id="paint0_linear_123_40027" x1="31.5179" y1="12.1581" x2="-3.30414" y2="8.50126" gradientUnits="userSpaceOnUse">
<stop stop-color="#94938C"/>
<stop offset="0.2296" stop-color="#EDEBE0"/>
<stop offset="0.7988" stop-color="#EDEBE0"/>
<stop offset="1" stop-color="#94938C"/>
</linearGradient>
</defs>
</svg>
