<svg width="24" height="18" viewBox="0 0 24 18" fill="none" xmlns="http://www.w3.org/2000/svg">
<path d="M9.71094 15.0784C9.71094 15.0784 12.1602 18.6665 15.883 16.2231C19.6057 13.7796 11.6308 13.3876 9.71094 15.0784Z" fill="#D9D7D0"/>
<path d="M4.83153 1.59335C5.70845 0.985895 6.88298 0.913307 7.90145 0.709611C9.43528 0.402479 10.9827 0.146612 12.5456 0.0522495C15.9912 -0.156437 19.7806 0.475519 22.0961 3.27872C22.9122 4.26635 23.4861 5.44906 23.7737 6.69664C24.0972 8.10119 23.8363 9.00852 23.389 10.3355C22.9789 11.5518 22.4436 12.8688 21.7822 13.9703C21.0649 15.1643 19.9176 16.1982 18.475 16.1774C16.9126 16.1547 15.3846 15.5431 14.3407 14.3582C14.2859 14.296 14.2296 14.2302 14.1525 14.1989C14.0604 14.1617 13.9565 14.1812 13.8603 14.2035C11.7594 14.6848 9.65351 16.0585 7.71547 16.9871C6.78909 17.4308 6.25967 17.566 5.32149 17.0733C4.15105 16.4586 3.03639 15.7028 2.1699 14.7043C-0.392839 11.7509 0.583887 7.55498 2.45751 4.50952C3.04909 3.5482 3.78177 2.434 4.66823 1.7163C4.7213 1.67274 4.77573 1.63192 4.83153 1.59335Z" fill="url(#paint0_linear_128_40362)"/>
<defs>
<linearGradient id="paint0_linear_128_40362" x1="-4.63887" y1="8.66336" x2="28.6461" y2="8.74786" gradientUnits="userSpaceOnUse">
<stop stop-color="#94938C"/>
<stop offset="0.2296" stop-color="#EDEBE0"/>
<stop offset="0.7988" stop-color="#EDEBE0"/>
<stop offset="1" stop-color="#94938C"/>
</linearGradient>
</defs>
</svg>
