<svg width="23" height="16" viewBox="0 0 23 16" fill="none" xmlns="http://www.w3.org/2000/svg">
<path d="M11.689 3.35992C11.9993 3.28642 12.3205 3.08363 12.6934 2.8382C13.706 2.17085 14.7576 1.52709 15.9258 1.20272C17.0944 0.878346 18.4091 0.906478 19.4489 1.53027C20.1803 1.96897 20.7219 2.66399 21.1679 3.39076C21.8656 4.52811 22.3805 5.84965 22.2204 7.17436C22.038 8.68508 21.4387 10.1727 20.824 11.5527C20.4511 12.3897 20.1403 13.3447 19.4685 13.9998C18.6845 14.7638 17.3666 14.8713 16.3336 15.016C14.1116 15.3268 11.8805 15.0482 9.71103 14.5333C7.55431 14.0211 5.32591 13.4531 3.22861 12.7391C2.85162 12.6107 2.47508 12.4623 2.15932 12.2201C1.27422 11.54 1.09231 9.99437 0.879538 8.97452C0.556528 7.42434 0.753871 5.82153 1.38809 4.37659C2.20469 2.51609 3.76621 0.873814 5.83946 0.554884C7.3234 0.326689 8.64084 0.631097 9.63935 1.78115C9.97007 2.16223 10.2332 2.60501 10.5907 2.96296C10.9845 3.3572 11.3297 3.44475 11.689 3.35992Z" fill="url(#paint0_linear_123_40156)"/>
<defs>
<linearGradient id="paint0_linear_123_40156" x1="28.6007" y1="7.75048" x2="-5.43895" y2="7.87345" gradientUnits="userSpaceOnUse">
<stop stop-color="#94938C"/>
<stop offset="0.2614" stop-color="#EDEBE0"/>
<stop offset="0.7687" stop-color="#EDEBE0"/>
<stop offset="1" stop-color="#94938C"/>
</linearGradient>
</defs>
</svg>
