<svg width="26" height="21" viewBox="0 0 26 21" fill="none" xmlns="http://www.w3.org/2000/svg">
<path d="M24.2211 15.1406C24.3236 13.9139 24.2955 12.6708 24.5291 11.4591C24.8939 9.56775 25.8488 7.92004 25.7136 5.9162C25.3879 1.09191 18.646 0.718999 15.2562 2.05505C13.8467 2.61033 13.2682 2.0859 12.0833 1.33735C10.7994 0.526193 9.28459 0.101562 7.76708 0.101562C6.03181 0.101562 4.11689 0.59515 2.63476 1.50702C0.442197 2.85622 0.444013 5.06966 0.293396 7.39288C0.126447 9.96244 0.185876 12.6096 1.03559 15.0666C1.29554 15.8188 1.63988 16.5578 2.18155 17.1408C2.95142 17.9696 3.93225 18.079 4.9725 18.3185C6.39248 18.6456 7.82833 18.9223 9.25964 19.1932C12.0665 19.7244 14.8996 20.1568 17.7554 20.3001C19.1096 20.3682 20.5119 20.2307 21.7146 19.6042C23.4562 18.6978 24.0664 16.992 24.2211 15.1406Z" fill="url(#paint0_linear_123_40145)"/>
<defs>
<linearGradient id="paint0_linear_123_40145" x1="29.799" y1="13.2248" x2="-3.49927" y2="6.74531" gradientUnits="userSpaceOnUse">
<stop stop-color="#94938C"/>
<stop offset="0.2114" stop-color="#EDEBE0"/>
<stop offset="0.847" stop-color="#EDEBE0"/>
<stop offset="1" stop-color="#94938C"/>
</linearGradient>
</defs>
</svg>
