<svg width="28" height="22" viewBox="0 0 28 22" fill="none" xmlns="http://www.w3.org/2000/svg">
<path d="M19.0101 0.973647C20.323 1.06302 21.3365 1.44816 22.4144 2.18851C22.7061 2.38902 22.9824 2.63082 22.9248 2.91752C22.6562 4.25668 12.7809 3.18063 12.8757 2.00614C12.9347 1.30844 16.1461 1.12154 16.8652 1.04396C17.6763 0.955957 18.3777 0.930551 19.0101 0.973647Z" fill="#D9D7D0"/>
<path d="M7.72602 0.799536C8.9119 0.73194 9.8773 0.990987 10.9566 1.593C11.2487 1.75586 11.5336 1.96183 11.5277 2.25081C11.501 3.60273 2.51702 3.71387 2.41494 2.54478C2.35687 1.84977 5.1932 1.2845 5.82243 1.12254C6.53333 0.940625 7.15531 0.8322 7.72602 0.799536Z" fill="#D9D7D0"/>
<path d="M23.6675 1.8494C24.6207 1.94467 25.5185 2.31169 26.292 3.11831C27.2887 4.15766 27.7877 5.59941 27.9111 7.03391C28.1756 10.1116 27.6489 13.7718 26.8799 16.7533C26.6359 17.6996 26.6114 19.6885 25.9617 20.4189C23.9402 22.6913 19.4983 21.5857 16.8104 21.3993C13.7318 21.1856 10.4173 21.0835 7.65902 20.4189C5.83302 20.3273 2.47997 20.7315 1.92559 18.3166C1.29046 15.5488 0.898948 12.7184 0.768746 9.88157C0.670755 7.76204 0.361357 2.52491 3.40818 2.11616C3.85413 2.05627 4.60676 2.55894 5.05362 2.66056C5.9859 2.87197 6.8955 2.84339 7.82098 2.5975C8.95922 2.29536 10.0163 1.75096 11.1073 1.30773C11.3446 1.21155 11.5914 1.11855 11.8473 1.12535C12.4302 1.14123 12.8585 1.64616 13.3249 1.99639C15.2879 3.47171 18.8065 2.70638 20.9737 2.13975C21.8837 1.90203 22.7988 1.76275 23.6675 1.8494Z" fill="url(#paint0_linear_123_40127)"/>
<defs>
<linearGradient id="paint0_linear_123_40127" x1="33.6863" y1="11.4179" x2="-5.15912" y2="11.5582" gradientUnits="userSpaceOnUse">
<stop stop-color="#94938C"/>
<stop offset="0.2296" stop-color="#EDEBE0"/>
<stop offset="0.7988" stop-color="#EDEBE0"/>
<stop offset="1" stop-color="#94938C"/>
</linearGradient>
</defs>
</svg>
