<svg width="24" height="18" viewBox="0 0 24 18" fill="none" xmlns="http://www.w3.org/2000/svg">
<path d="M7.15625 14.9222C7.15625 14.9222 9.60555 18.5102 13.3283 16.0668C17.051 13.6233 9.07613 13.2314 7.15625 14.9222Z" fill="#D9D7D0"/>
<path d="M19.4538 1.60117C18.5769 0.993708 17.4023 0.92112 16.3838 0.717424C14.85 0.410292 13.3025 0.154424 11.7396 0.060062C8.29405 -0.148624 4.50458 0.483332 2.18906 3.28653C1.37291 4.27417 0.799027 5.45687 0.511403 6.70446C0.187938 8.109 0.448796 9.01634 0.896111 10.3433C1.30623 11.5596 1.84155 12.8766 2.503 13.9781C3.22024 15.1721 4.36757 16.206 5.81023 16.1852C7.37311 16.1625 8.90061 15.5509 9.94449 14.366C9.99939 14.3038 10.0556 14.238 10.1328 14.2067C10.2249 14.1695 10.3287 14.189 10.4249 14.2113C12.5259 14.6926 14.6318 16.0663 16.5698 16.995C17.4962 17.4386 18.0257 17.5738 18.9638 17.0812C20.1343 16.4664 21.249 15.7106 22.1155 14.7121C24.6782 11.7587 23.7015 7.56279 21.8278 4.51733C21.2363 3.55601 20.5036 2.44181 19.6171 1.72411C19.5636 1.6801 19.5091 1.63973 19.4538 1.60117Z" fill="url(#paint0_linear_128_40360)"/>
<defs>
<linearGradient id="paint0_linear_128_40360" x1="28.9253" y1="8.67044" x2="-4.35996" y2="8.75493" gradientUnits="userSpaceOnUse">
<stop stop-color="#94938C"/>
<stop offset="0.2296" stop-color="#EDEBE0"/>
<stop offset="0.7988" stop-color="#EDEBE0"/>
<stop offset="1" stop-color="#94938C"/>
</linearGradient>
</defs>
</svg>
