<svg width="18" height="22" viewBox="0 0 18 22" fill="none" xmlns="http://www.w3.org/2000/svg">
<path d="M4.35845 0.651452C5.08521 0.323918 5.84329 0.316205 6.85586 0.564804C7.12987 0.631944 7.42203 0.736285 7.57083 0.975811C8.26765 2.09541 2.54834 4.24525 1.86467 3.30575C1.46001 2.74685 2.98567 1.63133 3.30505 1.35415C3.66571 1.04068 4.00868 0.808868 4.35845 0.651452Z" fill="#D9D7D0"/>
<path d="M14.2961 0.838134C14.6336 0.939753 14.8904 1.04863 14.9984 1.14344C15.5446 1.62341 16.1121 2.13422 16.3566 2.81878C16.4546 3.09324 16.4651 3.46115 16.2155 3.61176C16.1312 3.66257 16.0305 3.678 15.9325 3.68616C14.7879 3.78007 13.4637 3.03608 12.4955 2.50485C12.1372 2.30842 10.5961 1.59936 10.6664 1.04182C10.7735 0.19667 13.0694 0.469315 14.2961 0.838134Z" fill="#D9D7D0"/>
<path d="M16.3136 2.94861C16.3136 2.94861 18.6015 4.58272 17.294 8.83177C16.6403 14.7149 14.6791 20.5981 14.6791 20.5981C14.6791 20.5981 14.0254 21.5785 9.44969 21.5785C4.87403 21.5785 3.56656 20.9247 2.91283 19.6173C2.2591 18.3098 0.625 5.88973 0.625 5.88973C0.625 5.88973 0.95164 2.94816 2.2591 2.62152C3.56657 2.29488 4.87402 1.96778 5.20066 1.96778C5.5273 1.96778 8.46887 0.00657778 9.77633 0.333672C11.0842 0.660766 14.3529 3.2757 16.3136 2.94861Z" fill="url(#paint0_linear_123_40112)"/>
<defs>
<linearGradient id="paint0_linear_123_40112" x1="21.3318" y1="10.8952" x2="-2.80016" y2="10.9824" gradientUnits="userSpaceOnUse">
<stop stop-color="#94938C"/>
<stop offset="0.2296" stop-color="#EDEBE0"/>
<stop offset="0.7988" stop-color="#EDEBE0"/>
<stop offset="1" stop-color="#94938C"/>
</linearGradient>
</defs>
</svg>
