<svg width="19" height="29" viewBox="0 0 19 29" fill="none" xmlns="http://www.w3.org/2000/svg">
<path d="M18.197 8.24487C18.197 8.24487 19.1756 3.01505 16.8868 1.38186C14.5981 -0.251322 13.6182 0.402857 13.6182 0.402857C12.6718 0.661444 11.7209 0.903702 10.7682 1.13643C9.19944 1.51932 7.5059 2.06825 5.87995 2.02606C5.55422 2.01744 5.22758 1.98115 4.90366 2.01381C2.48062 2.25607 2.08729 4.83651 1.72345 6.72692C1.25662 9.15084 0.92771 11.6074 0.733541 14.0681C0.573396 16.1001 0.49582 18.1551 0.666853 20.1894C0.791158 21.6629 0.997127 23.346 1.86227 24.5944C3.07084 26.3388 5.287 27.1313 7.26862 27.5873C9.78376 28.1661 12.4268 28.3022 14.9991 28.1938C16.3978 28.1344 16.7875 25.0177 16.8655 24.0283C17.2806 18.764 17.722 13.5037 18.197 8.24487Z" fill="url(#paint0_linear_123_40093)"/>
<defs>
<linearGradient id="paint0_linear_123_40093" x1="22.8687" y1="14.2138" x2="-3.45894" y2="14.3198" gradientUnits="userSpaceOnUse">
<stop stop-color="#94938C"/>
<stop offset="0.2296" stop-color="#EDEBE0"/>
<stop offset="0.7988" stop-color="#EDEBE0"/>
<stop offset="1" stop-color="#94938C"/>
</linearGradient>
</defs>
</svg>
