<svg width="17" height="29" viewBox="0 0 17 29" fill="none" xmlns="http://www.w3.org/2000/svg">
<path d="M15.2363 0.617645C14.4637 0.22114 13.2601 0.46612 12.4135 0.458862C10.8429 0.445705 9.27234 0.450245 7.70219 0.495611C5.94785 0.546422 3.50846 0.345905 1.88614 1.15706C0.32824 1.93601 0.162653 3.88178 0.209835 5.41019C0.396747 11.448 0.785546 17.8021 3.22084 23.4153C3.93401 25.059 4.92936 26.7176 6.48726 27.6848C8.90123 29.1837 11.6645 28.3149 13.0405 25.915C14.142 23.9942 14.5657 21.7798 14.7967 19.6077C14.9713 17.9631 14.862 16.3064 14.9786 14.6586C15.1015 12.922 15.6137 11.2371 15.8936 9.52086C16.336 6.80702 16.8713 3.97523 15.8601 1.32174C15.7303 0.979672 15.5107 0.758282 15.2363 0.617645Z" fill="url(#paint0_linear_123_40085)"/>
<defs>
<linearGradient id="paint0_linear_123_40085" x1="-2.51049" y1="14.3571" x2="19.6826" y2="14.4373" gradientUnits="userSpaceOnUse">
<stop stop-color="#94938C"/>
<stop offset="0.2296" stop-color="#EDEBE0"/>
<stop offset="0.7988" stop-color="#EDEBE0"/>
<stop offset="1" stop-color="#94938C"/>
</linearGradient>
</defs>
</svg>
