<svg width="16" height="31" viewBox="0 0 16 31" fill="none" xmlns="http://www.w3.org/2000/svg">
<path d="M15.4288 0.609768C15.28 0.474123 15.0174 0.445541 14.531 0.404712C13.787 0.34256 13.014 0.396993 12.2681 0.398354C9.22811 0.404252 6.18809 0.464144 3.14807 0.464144C3.14807 0.464144 0.206493 1.11787 0.533133 2.75197C0.859773 4.38606 1.84061 24.6503 2.82098 25.9573C3.80136 27.2643 6.08919 31.5138 10.992 30.2063C15.8943 28.8988 14.9139 17.4602 14.9139 17.4597C14.7846 15.3878 15.3054 13.0928 15.4465 11.0218C15.6561 7.94686 15.8353 4.84517 15.6593 1.76389C15.6212 1.08838 15.6071 0.77218 15.4288 0.609768Z" fill="url(#paint0_linear_123_40077)"/>
<defs>
<linearGradient id="paint0_linear_123_40077" x1="17.9859" y1="15.3905" x2="-1.5571" y2="15.4611" gradientUnits="userSpaceOnUse">
<stop stop-color="#94938C"/>
<stop offset="0.2296" stop-color="#EDEBE0"/>
<stop offset="0.7988" stop-color="#EDEBE0"/>
<stop offset="1" stop-color="#94938C"/>
</linearGradient>
</defs>
</svg>
