<svg width="16" height="31" viewBox="0 0 16 31" fill="none" xmlns="http://www.w3.org/2000/svg">
<path d="M0.856615 0.70352C1.00542 0.567874 1.26809 0.539292 1.75442 0.498462C2.49844 0.43631 3.27148 0.490743 4.01731 0.492104C7.05733 0.498002 10.0973 0.557895 13.1374 0.557895C13.1374 0.557895 16.079 1.21163 15.7523 2.84573C15.4257 4.47984 14.4448 24.7442 13.4645 26.0512C12.4841 27.3583 10.1963 31.6077 5.29347 30.3003C0.391144 28.9928 1.37153 17.5541 1.37153 17.5536C1.50083 15.4817 0.980006 13.1866 0.838916 11.1156C0.629321 8.04067 0.450126 4.93895 0.626148 1.85765C0.664256 1.18214 0.678324 0.865933 0.856615 0.70352Z" fill="url(#paint0_linear_123_40072)"/>
<defs>
<linearGradient id="paint0_linear_123_40072" x1="-1.70029" y1="15.4843" x2="17.8428" y2="15.5549" gradientUnits="userSpaceOnUse">
<stop stop-color="#94938C"/>
<stop offset="0.2296" stop-color="#EDEBE0"/>
<stop offset="0.7988" stop-color="#EDEBE0"/>
<stop offset="1" stop-color="#94938C"/>
</linearGradient>
</defs>
</svg>
