<svg width="17" height="29" viewBox="0 0 17 29" fill="none" xmlns="http://www.w3.org/2000/svg">
<path d="M1.44316 0.617645C2.21575 0.22114 3.41933 0.46612 4.26587 0.458862C5.83646 0.445705 7.40703 0.450245 8.97716 0.495611C10.7315 0.546422 13.1708 0.345905 14.7932 1.15706C16.351 1.93601 16.5166 3.88178 16.4695 5.41019C16.2825 11.448 15.8937 17.8021 13.4585 23.4153C12.7453 25.059 11.75 26.7176 10.1921 27.6848C7.77814 29.1837 5.01486 28.3149 3.63889 25.915C2.53739 23.9942 2.11367 21.7798 1.88276 19.6077C1.7081 17.9631 1.81744 16.3064 1.70085 14.6586C1.5779 12.922 1.0657 11.2371 0.785787 9.52086C0.343464 6.80702 -0.19185 3.97523 0.819369 1.32174C0.949117 0.979672 1.16869 0.758282 1.44316 0.617645Z" fill="url(#paint0_linear_123_40081)"/>
<defs>
<linearGradient id="paint0_linear_123_40081" x1="19.1898" y1="14.3571" x2="-3.00316" y2="14.4373" gradientUnits="userSpaceOnUse">
<stop stop-color="#94938C"/>
<stop offset="0.2296" stop-color="#EDEBE0"/>
<stop offset="0.7988" stop-color="#EDEBE0"/>
<stop offset="1" stop-color="#94938C"/>
</linearGradient>
</defs>
</svg>
