<svg width="19" height="29" viewBox="0 0 19 29" fill="none" xmlns="http://www.w3.org/2000/svg">
<path d="M0.434482 8.65119C0.434482 8.65119 -0.544087 3.42133 1.74467 1.78812C4.03343 0.154923 5.01337 0.809108 5.01337 0.809108C5.95972 1.0677 6.9106 1.30996 7.8633 1.54269C9.43209 1.92558 11.1256 2.47452 12.7516 2.43233C13.0773 2.42371 13.404 2.38742 13.7279 2.42008C16.1509 2.66234 16.5443 5.2428 16.9081 7.13323C17.3749 9.55717 17.7038 12.0138 17.898 14.4745C18.0581 16.5064 18.1357 18.5616 17.9647 20.5958C17.8404 22.0693 17.6344 23.7524 16.7693 25.0009C15.5602 26.7453 13.3445 27.5378 11.3629 27.9937C8.84777 28.5726 6.20468 28.7087 3.63238 28.6003C2.23372 28.5409 1.84403 25.4242 1.766 24.4347C1.3509 19.1704 0.909473 13.9101 0.434482 8.65119Z" fill="url(#paint0_linear_123_40089)"/>
<defs>
<linearGradient id="paint0_linear_123_40089" x1="-4.23722" y1="14.6202" x2="22.0904" y2="14.7262" gradientUnits="userSpaceOnUse">
<stop stop-color="#94938C"/>
<stop offset="0.2296" stop-color="#EDEBE0"/>
<stop offset="0.7988" stop-color="#EDEBE0"/>
<stop offset="1" stop-color="#94938C"/>
</linearGradient>
</defs>
</svg>
