<svg width="18" height="22" viewBox="0 0 18 22" fill="none" xmlns="http://www.w3.org/2000/svg">
<path d="M13.7009 0.706149C12.9741 0.378604 12.216 0.37089 11.2034 0.619498C10.9294 0.68664 10.6372 0.790985 10.4884 1.03052C9.79158 2.15016 15.5111 4.30008 16.1948 3.36054C16.5995 2.80162 15.0738 1.68606 14.7544 1.40887C14.3937 1.09539 14.0507 0.863571 13.7009 0.706149Z" fill="#D9D7D0"/>
<path d="M3.76561 0.892822C3.4281 0.99444 3.17134 1.10332 3.06337 1.19813C2.51718 1.67809 1.94967 2.18891 1.70515 2.87347C1.60717 3.14793 1.59673 3.51584 1.84623 3.66645C1.93061 3.71726 2.03131 3.73269 2.1293 3.74085C3.27384 3.83476 4.59805 3.09077 5.56613 2.55954C5.92451 2.36311 7.46554 1.65405 7.39522 1.09651C7.28816 0.251358 4.99227 0.524003 3.76561 0.892822Z" fill="#D9D7D0"/>
<path d="M1.75112 3.00328C1.75112 3.00328 -0.536697 4.63738 0.770746 8.8864C1.42447 14.7695 3.38564 20.6527 3.38564 20.6527C3.38564 20.6527 4.03936 21.633 8.61496 21.633C13.1906 21.633 14.498 20.9793 15.1517 19.6718C15.8054 18.3644 17.4395 5.94438 17.4395 5.94438C17.4395 5.94438 17.1129 3.00283 15.8054 2.67619C14.498 2.34955 13.1906 2.02245 12.8639 2.02245C12.5373 2.02245 9.59575 0.061267 8.28831 0.388359C6.98087 0.715451 3.71228 3.32992 1.75112 3.00328Z" fill="url(#paint0_linear_123_40105)"/>
<defs>
<linearGradient id="paint0_linear_123_40105" x1="-3.26688" y1="10.9494" x2="20.8647" y2="11.0366" gradientUnits="userSpaceOnUse">
<stop stop-color="#94938C"/>
<stop offset="0.2296" stop-color="#EDEBE0"/>
<stop offset="0.7988" stop-color="#EDEBE0"/>
<stop offset="1" stop-color="#94938C"/>
</linearGradient>
</defs>
</svg>
