<svg width="26" height="23" viewBox="0 0 26 23" fill="none" xmlns="http://www.w3.org/2000/svg">
<path d="M4.00536 6.8068C3.73316 6.88982 3.34301 7.6293 3.19194 7.84207C2.59355 8.68634 2.07546 9.59503 1.68758 10.5559C0.64233 13.145 0.793856 15.9844 2.7546 18.1053C2.77774 18.1303 2.80133 18.1552 2.82446 18.1802C2.93017 18.2913 3.04041 18.3998 3.12661 18.5263C3.36841 18.8816 3.42603 19.3266 3.65513 19.6909C3.87153 20.0352 4.18955 20.3573 4.49759 20.6173C5.223 21.2297 6.18931 21.6553 7.15426 21.56C7.48589 21.5273 7.8021 21.4094 8.11377 21.2923C9.46705 20.7842 10.9365 20.2049 11.6542 18.8611C11.5725 19.0145 11.945 19.6383 12.0389 19.7653C12.2639 20.0711 12.5397 20.204 12.8877 20.3383C14.0368 20.7824 15.2876 21.139 16.3891 21.6897C17.1503 21.9828 17.7927 22.2614 18.5672 22.0073C19.0181 21.8594 19.4749 21.7297 19.9209 21.5663C20.7556 21.261 22.1443 20.7266 22.1443 19.6437C22.1443 17.9692 23.5398 12.9463 20.1908 7.92327C16.8432 2.90211 4.01579 6.80363 4.00536 6.8068Z" fill="#D9D7D0"/>
<path d="M3.98866 2.67974C3.66974 2.77682 3.21244 3.64333 3.03596 3.89239C2.33505 4.88139 1.7285 5.94569 1.27392 7.07079C0.0494764 10.1036 0.227315 13.4294 2.52332 15.9128C2.55054 15.9418 2.57821 15.9713 2.60543 16.0003C2.72928 16.1305 2.85813 16.2576 2.9593 16.4059C3.24284 16.8224 3.30998 17.3427 3.5781 17.7701C3.83124 18.1729 4.2037 18.5504 4.56482 18.8552C5.41454 19.5725 6.54644 20.0706 7.67607 19.9595C8.06441 19.9214 8.4346 19.783 8.7998 19.646C10.3849 19.0512 12.1061 18.3721 12.9468 16.7983C12.851 16.9775 13.2875 17.7084 13.3973 17.8576C13.6608 18.2156 13.9843 18.3712 14.3912 18.5286C15.7373 19.049 17.2022 19.4663 18.4924 20.1115C19.3838 20.4549 20.136 20.7811 21.0434 20.4835C21.5714 20.3102 22.1068 20.1582 22.6289 19.9672C23.6066 19.6097 25.2334 18.9836 25.2334 17.7152C25.2334 15.754 26.8675 9.87082 22.9456 3.98766C19.025 -1.89368 4.00091 2.67566 3.98866 2.67974Z" fill="url(#paint0_linear_123_40039)"/>
<defs>
<linearGradient id="paint0_linear_123_40039" x1="-5.26766" y1="13.1191" x2="29.5549" y2="9.46219" gradientUnits="userSpaceOnUse">
<stop stop-color="#94938C"/>
<stop offset="0.2296" stop-color="#EDEBE0"/>
<stop offset="0.7988" stop-color="#EDEBE0"/>
<stop offset="1" stop-color="#94938C"/>
</linearGradient>
</defs>
</svg>
