<svg width="29" height="22" viewBox="0 0 29 22" fill="none" xmlns="http://www.w3.org/2000/svg">
<path d="M9.7817 0.465835C8.4688 0.555208 7.45532 0.940372 6.37742 1.68075C6.08571 1.88127 5.80943 2.12308 5.86705 2.4098C6.13562 3.74902 16.0109 2.67292 15.9166 1.49838C15.8576 0.800641 12.6461 0.613733 11.9271 0.536156C11.1155 0.448145 10.4141 0.422737 9.7817 0.465835Z" fill="#D9D7D0"/>
<path d="M21.0674 0.291724C19.8815 0.224125 18.9161 0.483184 17.8369 1.08522C17.5447 1.2481 17.2598 1.45407 17.2657 1.74307C17.2925 3.09505 26.2763 3.2062 26.3784 2.03705C26.4364 1.34201 23.6002 0.776713 22.9709 0.614747C22.2601 0.432819 21.6381 0.324389 21.0674 0.291724Z" fill="#D9D7D0"/>
<path d="M5.12525 1.34159C4.17209 1.43685 3.27428 1.80387 2.50077 2.61049C1.50406 3.64983 1.00503 5.09157 0.881628 6.52606C0.617139 9.60372 1.14385 13.2639 1.91282 16.2454C2.15689 17.1917 2.18138 19.1806 2.83103 19.911C4.85258 22.1834 9.29446 21.0778 11.9825 20.8913C15.0611 20.6777 18.3755 20.5756 21.1339 19.911C22.9599 19.8193 26.313 20.2235 26.8673 17.8087C27.5025 15.0409 27.894 12.2105 28.0242 9.37371C28.1222 7.25419 28.4316 2.01709 25.3847 1.60834C24.9388 1.54846 24.1861 2.05112 23.7393 2.15274C22.807 2.36414 21.8974 2.33556 20.9719 2.08968C19.8336 1.78754 18.7766 1.24314 17.6855 0.799913C17.4483 0.703736 17.2015 0.610734 16.9456 0.617539C16.3626 0.633418 15.9344 1.13834 15.468 1.48857C13.505 2.96389 9.98631 2.19856 7.81913 1.63193C6.90907 1.39421 5.99403 1.25494 5.12525 1.34159Z" fill="url(#paint0_linear_123_40119)"/>
<defs>
<linearGradient id="paint0_linear_123_40119" x1="-4.89363" y1="10.91" x2="33.952" y2="11.0503" gradientUnits="userSpaceOnUse">
<stop stop-color="#94938C"/>
<stop offset="0.2296" stop-color="#EDEBE0"/>
<stop offset="0.7988" stop-color="#EDEBE0"/>
<stop offset="1" stop-color="#94938C"/>
</linearGradient>
</defs>
</svg>
