<svg width="27" height="22" viewBox="0 0 27 22" fill="none" xmlns="http://www.w3.org/2000/svg">
<path d="M2.36494 15.9923C2.26241 14.7656 2.29054 13.5225 2.0569 12.3108C1.69215 10.4194 0.737189 8.77169 0.872382 6.76783C1.19811 1.94349 7.94006 1.57057 11.3299 2.90663C12.7394 3.46193 13.3179 2.93748 14.5028 2.18892C15.7867 1.37776 17.3015 0.953125 18.819 0.953125C20.5543 0.953125 22.4692 1.44672 23.9514 2.3586C26.1439 3.70781 26.1421 5.92127 26.2927 8.24452C26.4592 10.8141 26.4003 13.4613 25.5505 15.9184C25.2906 16.6706 24.9462 17.4096 24.4046 17.9925C23.6342 18.8214 22.6539 18.9307 21.6136 19.1703C20.1936 19.4974 18.7578 19.7741 17.3264 20.045C14.5196 20.5762 11.6865 21.0086 8.83061 21.1519C7.47642 21.22 6.07413 21.0825 4.87146 20.456C3.12983 19.5495 2.51964 17.8437 2.36494 15.9923Z" fill="url(#paint0_linear_123_40135)"/>
<defs>
<linearGradient id="paint0_linear_123_40135" x1="-3.21315" y1="14.0765" x2="30.0853" y2="7.597" gradientUnits="userSpaceOnUse">
<stop stop-color="#94938C"/>
<stop offset="0.2114" stop-color="#EDEBE0"/>
<stop offset="0.847" stop-color="#EDEBE0"/>
<stop offset="1" stop-color="#94938C"/>
</linearGradient>
</defs>
</svg>
