<svg width="23" height="15" viewBox="0 0 23 15" fill="none" xmlns="http://www.w3.org/2000/svg">
<path d="M11.1235 3.13335C10.8132 3.05986 10.492 2.85707 10.1191 2.61164C9.10645 1.94429 8.05483 1.30053 6.88662 0.976157C5.71795 0.651784 4.40319 0.679915 3.36337 1.30371C2.63204 1.74241 2.09037 2.43742 1.64441 3.1642C0.946656 4.30155 0.431726 5.62309 0.591873 6.9478C0.774251 8.45852 1.37357 9.9461 1.9883 11.3262C2.36122 12.1632 2.67198 13.1181 3.34387 13.7732C4.12783 14.5372 5.44576 14.6448 6.47878 14.7895C8.70088 15.1002 10.9321 14.8217 13.1015 14.3068C15.2583 13.7946 17.4872 13.2266 19.5845 12.5125C19.9615 12.3841 20.3381 12.2358 20.6538 11.9935C21.539 11.3135 21.7209 9.76781 21.9337 8.74796C22.2567 7.19777 22.0593 5.59496 21.4251 4.15003C20.6085 2.28953 19.0469 0.647251 16.9736 0.328322C15.4897 0.100126 14.1722 0.404534 13.1737 1.55458C12.8429 1.93567 12.5798 2.37845 12.2223 2.73639C11.828 3.13063 11.4828 3.21819 11.1235 3.13335Z" fill="url(#paint0_linear_123_40148)"/>
<defs>
<linearGradient id="paint0_linear_123_40148" x1="-5.7886" y1="7.52391" x2="28.2518" y2="7.64689" gradientUnits="userSpaceOnUse">
<stop stop-color="#94938C"/>
<stop offset="0.2614" stop-color="#EDEBE0"/>
<stop offset="0.7687" stop-color="#EDEBE0"/>
<stop offset="1" stop-color="#94938C"/>
</linearGradient>
</defs>
</svg>
