<svg width="19" height="22" viewBox="0 0 19 22" fill="none" xmlns="http://www.w3.org/2000/svg">
<path d="M9.60535 21.1163C9.60535 21.1163 4.30641 22.2119 2.42865 19.4595C0.550886 16.7066 8.97383 19.4558 9.60535 21.1163Z" fill="#D9D7D0"/>
<path d="M10.3828 21.3592C10.3828 21.3592 16.0259 21.7408 17.43 18.0814C18.834 14.422 10.7158 19.241 10.3828 21.3592Z" fill="#D9D7D0"/>
<path d="M12.6358 0.823984C12.7188 0.864814 12.7978 0.911088 12.8722 0.96326C14.3098 1.96723 15.5216 3.59499 16.4358 5.06714C17.8249 7.30372 18.8166 9.86195 18.5494 12.5313C18.367 14.356 18.1624 16.4542 17.2506 18.0928C16.7179 19.0501 15.5207 19.4888 14.5458 19.8281C13.7105 20.1189 12.8676 20.392 12.0487 20.7273C11.2925 21.0367 10.5503 21.5643 9.69826 21.4963C8.71879 21.4178 8.03465 20.6502 7.25116 20.152C6.0217 19.3708 4.54998 18.9702 3.09369 19.0406C2.83782 19.0528 2.5756 19.0787 2.33016 19.0038C1.97221 18.8949 1.71044 18.591 1.49949 18.2825C0.538608 16.8788 0.564017 15.5187 0.555851 13.8864C0.547232 12.2278 0.579442 10.5592 0.895652 8.92604C1.45866 6.01576 3.38133 3.60814 4.39211 0.861185C4.45018 0.702855 4.50825 0.540895 4.61486 0.410239C4.79724 0.186581 5.09575 0.0899491 5.38338 0.066812C5.92234 0.0232599 6.46539 0.106735 6.99937 0.163898C8.01196 0.272778 9.00052 0.385741 10.0186 0.455606C10.8261 0.511407 11.8841 0.45243 12.6358 0.823984Z" fill="url(#paint0_linear_123_40014)"/>
<defs>
<linearGradient id="paint0_linear_123_40014" x1="-5.39415" y1="11.1835" x2="24.8425" y2="10.2521" gradientUnits="userSpaceOnUse">
<stop stop-color="#94938C"/>
<stop offset="0.2666" stop-color="#EDEBE0"/>
<stop offset="0.7117" stop-color="#EDEBE0"/>
<stop offset="1" stop-color="#94938C"/>
</linearGradient>
</defs>
</svg>
