<svg width="21" height="29" viewBox="0 0 21 29" fill="none" xmlns="http://www.w3.org/2000/svg">
<path d="M14.0624 1.80828C14.0629 1.80919 21.2531 11.2872 19.9456 19.1311C19.5237 21.6621 18.6599 24.3074 17.1342 26.3947C16.3902 27.4127 15.4234 28.3341 14.2044 28.7379C12.5921 29.2719 10.5229 28.8527 8.90651 28.492C8.11078 28.3146 7.3291 28.0701 6.58781 27.7289C1.40511 25.3454 0.0359422 19.2 0.452863 13.9919C0.745932 10.3336 1.85651 6.78454 3.30008 3.43195C4.23645 1.25708 6.41768 0.687274 8.59484 0.379235C10.2335 0.147412 12.9482 0.339766 14.0624 1.80828Z" fill="url(#paint0_linear_123_40003)"/>
<defs>
<linearGradient id="paint0_linear_123_40003" x1="-5.89666" y1="14.3399" x2="27.0561" y2="14.9289" gradientUnits="userSpaceOnUse">
<stop stop-color="#94938C"/>
<stop offset="0.0637" stop-color="#A3A19A"/>
<stop offset="0.1868" stop-color="#CDCAC1"/>
<stop offset="0.2666" stop-color="#EDEBE0"/>
<stop offset="0.7117" stop-color="#EDEBE0"/>
<stop offset="0.7738" stop-color="#DFDCD2"/>
<stop offset="0.8879" stop-color="#BCB9B0"/>
<stop offset="1" stop-color="#94938C"/>
</linearGradient>
</defs>
</svg>
