<svg width="26" height="37" viewBox="0 0 26 37" fill="none" xmlns="http://www.w3.org/2000/svg">
<path d="M25.6057 31.5169C25.6057 31.5169 27.8936 4.71603 15.8006 0.793618C15.8006 0.793618 2.07302 -1.49423 0.766001 22.3651C0.7288 23.0456 0.623094 23.7224 0.594059 24.4056C0.531453 25.8964 0.585438 27.403 0.842669 28.8747C1.11306 30.4204 1.61844 32.0177 2.66914 33.2186C3.17861 33.8006 3.81421 34.2625 4.53554 34.5456C5.16069 34.791 5.84891 34.8831 6.50491 35.0178C7.31244 35.1839 8.12179 35.3399 8.93567 35.4706C9.37482 35.5409 9.81578 35.6044 10.2572 35.6575C11.88 35.853 13.5159 35.9147 15.1496 35.9764C17.8031 36.0767 20.5532 36.2087 23.0321 35.0736C24.4988 34.4027 25.6057 33.1982 25.6057 31.5169Z" fill="url(#paint0_linear_123_39983)"/>
<defs>
<linearGradient id="paint0_linear_123_39983" x1="30.681" y1="18.3803" x2="-4.34045" y2="18.3981" gradientUnits="userSpaceOnUse">
<stop stop-color="#94938C"/>
<stop offset="0.2296" stop-color="#EDEBE0"/>
<stop offset="0.7876" stop-color="#EDEBE0"/>
<stop offset="1" stop-color="#94938C"/>
</linearGradient>
</defs>
</svg>
