<svg width="26" height="36" viewBox="0 0 26 36" fill="none" xmlns="http://www.w3.org/2000/svg">
<path d="M0.422404 31.47C0.422404 31.47 -1.86548 4.66915 10.2276 0.746743C10.2276 0.746743 23.9553 -1.5411 25.2624 22.3181C25.2996 22.9986 25.4053 23.6755 25.4343 24.3587C25.4969 25.8495 25.4429 27.3561 25.1857 28.8278C24.9153 30.3734 24.4099 31.9708 23.3592 33.1717C22.8497 33.7537 22.2141 34.2156 21.4928 34.4986C20.8676 34.7441 20.1794 34.8362 19.5234 34.9709C18.7159 35.137 17.9065 35.293 17.0926 35.4237C16.6535 35.494 16.2125 35.5575 15.7711 35.6106C14.1483 35.8061 12.5123 35.8678 10.8787 35.9295C8.22513 36.0298 5.47496 36.1618 2.99609 35.0267C1.52937 34.3557 0.422404 33.1512 0.422404 31.47Z" fill="url(#paint0_linear_123_39987)"/>
<defs>
<linearGradient id="paint0_linear_123_39987" x1="-4.65269" y1="18.3334" x2="30.3692" y2="18.3512" gradientUnits="userSpaceOnUse">
<stop stop-color="#94938C"/>
<stop offset="0.2296" stop-color="#EDEBE0"/>
<stop offset="0.7876" stop-color="#EDEBE0"/>
<stop offset="1" stop-color="#94938C"/>
</linearGradient>
</defs>
</svg>
