<svg width="20" height="70" viewBox="0 0 20 70" fill="none" xmlns="http://www.w3.org/2000/svg">
<path d="M3.92969 45.4769C3.92969 45.4769 16.0113 42.4487 17.0152 44.1753L12.1361 9.62271C12.1361 9.62271 8.7163 0.742188 7.40883 0.742188C6.10137 0.742188 4.79391 4.66415 4.79391 4.66415C4.79391 4.66415 4.22094 37.207 3.92969 45.4769Z" fill="url(#paint0_linear_83_8177)"/>
<path d="M6.253 41.9802C6.25255 41.9811 -0.937622 51.4592 0.369849 59.3031C0.791761 61.8341 1.65553 64.4794 3.18122 66.5667C3.92523 67.5848 4.892 68.5062 6.11101 68.9099C7.72334 69.4439 9.79249 69.0247 11.4089 68.664C12.2046 68.4867 12.9863 68.2421 13.7276 67.901C18.9103 65.5174 20.2795 59.372 19.8626 54.1639C19.5695 50.5051 18.4589 46.9565 17.0153 43.6039C16.079 41.429 13.8977 40.8592 11.7206 40.5512C10.0819 40.3193 7.36721 40.5112 6.253 41.9802Z" fill="url(#paint1_linear_83_8177)"/>
<path d="M4.21272 24.1706L4.03714 15.8966C4.03714 15.8966 4.01084 2.21129 4.62102 1.6687C5.2312 1.12612 8.06889 0.398438 8.06889 0.398438L9.79282 2.8936L12.7417 9.83471L14.1077 21.2204L14.9193 27.3009L16.6432 39.0962C16.6432 39.0962 13.409 27.8897 9.61135 27.6184C5.81371 27.3472 4.03125 36.0113 4.03125 36.0113L4.21272 24.1706Z" fill="#B46766"/>
<defs>
<linearGradient id="paint0_linear_83_8177" x1="15.2838" y1="23.4058" x2="5.39021" y2="23.101" gradientUnits="userSpaceOnUse">
<stop stop-color="#BFAB8D"/>
<stop offset="0.5078" stop-color="#E7E1D2"/>
<stop offset="1" stop-color="#CCBFA6"/>
</linearGradient>
<linearGradient id="paint1_linear_83_8177" x1="26.2121" y1="54.5118" x2="-6.74066" y2="55.1008" gradientUnits="userSpaceOnUse">
<stop stop-color="#94938C"/>
<stop offset="0.0617" stop-color="#A4A29B"/>
<stop offset="0.1809" stop-color="#CCCAC2"/>
<stop offset="0.2666" stop-color="#EDEBE1"/>
<stop offset="0.7117" stop-color="#EDEBE1"/>
<stop offset="0.7719" stop-color="#E0DED5"/>
<stop offset="0.883" stop-color="#BEBDB4"/>
<stop offset="1" stop-color="#94938C"/>
</linearGradient>
</defs>
</svg>
