<svg width="19" height="55" viewBox="0 0 19 55" fill="none" xmlns="http://www.w3.org/2000/svg">
<path d="M9.53906 54.2803C9.53906 54.2803 14.8378 55.3759 16.7155 52.6235C18.5932 49.8707 10.1706 52.6199 9.53906 54.2803Z" fill="#D8D6D0"/>
<path d="M8.75681 54.5154C8.75681 54.5154 3.11392 54.8969 1.70989 51.2376C0.305856 47.5783 8.42383 52.3972 8.75681 54.5154Z" fill="#D8D6D0"/>
<path d="M6.5039 33.9841C6.42088 34.025 6.34194 34.0712 6.26754 34.1234C4.82989 35.1278 3.61816 36.7551 2.70403 38.2272C1.31492 40.4638 0.323628 43.022 0.590382 45.6914C0.772754 47.5161 0.977395 49.6142 1.88926 51.2529C2.42186 52.2101 3.61903 52.6488 4.59395 52.9882C5.42915 53.279 6.27205 53.552 7.09091 53.8873C7.84717 54.1967 8.58939 54.7243 9.44137 54.6563C10.4208 54.5778 11.1049 53.8102 11.8884 53.3121C13.1178 52.5309 14.5895 52.1303 16.0458 52.2006C16.3017 52.2128 16.5639 52.2387 16.8093 52.1638C17.1672 52.055 17.429 51.751 17.6399 51.4425C18.6008 50.0389 18.5754 48.6788 18.5836 47.0465C18.5922 45.3879 18.56 43.7193 18.2438 42.0861C17.6808 39.1759 15.7582 36.7683 14.7474 34.0213C14.6893 33.863 14.6313 33.701 14.5246 33.5704C14.3423 33.3467 14.0438 33.2501 13.7562 33.227C13.2172 33.1834 12.6742 33.2669 12.1402 33.3241C11.1276 33.4329 10.1391 33.5459 9.12105 33.6158C8.31354 33.6716 7.25562 33.6126 6.5039 33.9841Z" fill="url(#paint0_linear_83_8056)"/>
<path d="M4.36316 35.8982C4.39945 35.9277 4.44299 35.9508 4.49606 35.9653C4.76282 36.0402 5.58486 35.6378 5.87566 35.5616C6.8397 35.3093 7.81459 35.0984 8.79541 34.9228C9.83476 34.7368 10.8846 34.5603 11.943 34.5517C12.5032 34.5471 13.0667 34.5862 13.6151 34.705C14.1024 34.8107 14.6273 35.1446 15.0887 35.1864C15.4248 33.8757 15.0837 32.3514 15.0056 31.0203C14.919 29.5404 14.7829 28.0638 14.5982 26.593C14.2521 23.8328 13.563 21.1757 13.0608 18.4505C12.5717 15.7997 12.4356 12.9974 12.4941 10.298C12.5218 9.02867 12.5985 7.75703 12.7437 6.49583C12.8675 5.41927 13.1778 4.45567 13.0676 3.3401C12.9555 2.20592 12.4234 0.488345 10.9258 0.952903C9.79846 1.30268 9.09667 2.54255 8.52778 3.48528C7.44398 5.28045 6.65506 7.23621 5.92829 9.20287C5.20243 11.1668 4.53325 13.1648 4.15444 15.2281C3.82372 17.0278 3.8641 18.7894 3.8954 20.6063C3.9444 23.4908 4.01335 26.3747 4.08458 29.2587C4.1304 31.1197 4.02426 33.0609 4.17079 34.9482C4.19756 35.3011 4.1454 35.7203 4.36316 35.8982Z" fill="url(#paint1_linear_83_8056)"/>
<path d="M13.8149 20.0226L12.5052 11.6299C12.5052 11.6299 13.5282 2.21136 12.9407 1.66878C12.3532 1.1262 12.1577 0.719253 11.6028 0.685228C11.048 0.651203 10.265 1.15976 10.265 1.15976L9.51459 1.87202L7.44088 4.5069L5.56361 8.54451L3.77344 16.4383V23.7876L3.99168 34.3126C3.99168 34.3126 5.22656 24.3765 8.88176 24.1052C12.537 23.8339 15.3873 32.0896 15.3873 32.0896L13.8149 20.0226Z" fill="#B46766"/>
<defs>
<linearGradient id="paint0_linear_83_8056" x1="24.5334" y1="44.3436" x2="-5.70261" y2="43.4122" gradientUnits="userSpaceOnUse">
<stop stop-color="#94938C"/>
<stop offset="0.2666" stop-color="#EDEBE1"/>
<stop offset="0.7117" stop-color="#EDEBE1"/>
<stop offset="1" stop-color="#94938C"/>
</linearGradient>
<linearGradient id="paint1_linear_83_8056" x1="17.9978" y1="19.4736" x2="3.63834" y2="17.9656" gradientUnits="userSpaceOnUse">
<stop stop-color="#BFAB8D"/>
<stop offset="0.5078" stop-color="#E7E1D2"/>
<stop offset="1" stop-color="#CCBFA6"/>
</linearGradient>
</defs>
</svg>
