<svg width="26" height="51" viewBox="0 0 26 51" fill="none" xmlns="http://www.w3.org/2000/svg">
<path d="M14.6584 2.25523C14.6584 2.25523 15.5644 0.20105 17.3981 0.715504C19.2319 1.22996 19.8662 6.02383 19.5341 9.55786C19.2024 13.0919 17.6305 24.3046 14.9279 24.5356C12.2253 24.7665 7.28286 18.4156 9.53131 14.8775C11.7802 11.3398 15.5009 5.12965 14.6584 2.25523Z" fill="url(#paint0_linear_83_8067)"/>
<path d="M2.8387 32.7059C6.0375 32.4755 9.66728 30.9117 12.872 30.7851C14.8822 30.7057 16.8933 30.5728 18.9057 30.6372C19.8362 30.6667 21.2199 33.1473 22.1222 33.0326C22.7075 32.9582 22.3214 30.5546 22.2973 29.9326C22.2769 29.4032 22.232 28.8761 22.3096 28.3484C22.5881 26.4467 23.6343 24.6411 24.0694 22.7393C24.5729 20.5394 24.9132 18.297 25.1223 16.0504C25.3442 13.6668 25.4381 11.2329 25.126 8.85298C24.9917 7.82678 24.8084 6.7847 24.401 5.82701C24.0839 5.08163 23.3149 3.61856 22.3323 3.73061C21.9716 3.77189 21.6486 3.97697 21.3786 4.22059C20.8497 4.6983 20.4813 5.33433 20.2377 6.0044C19.7355 7.38672 19.7464 8.87522 19.6498 10.3233C19.55 11.8163 19.143 13.1991 18.8082 14.6481C18.1867 17.3407 17.4526 20.5095 15.6888 22.7166C15.2596 23.2537 14.6145 23.6884 13.9299 23.6235C13.5788 23.5899 13.2508 23.4284 12.9641 23.2229C11.9311 22.4821 11.4058 21.2036 11.2266 19.9452C10.8595 17.3665 11.1358 14.522 11.8249 12.0223C12.2291 10.5551 12.9758 9.24132 13.4322 7.80682C13.9145 6.29021 14.5687 3.28149 12.4306 2.70397C11.5677 2.47078 10.649 2.91176 10.0039 3.53056C7.61219 5.82385 5.99667 9.23315 4.61345 12.1893C3.76509 14.0017 2.94624 15.8753 2.42407 17.8125C2.11013 18.977 2.14369 20.1375 2.17681 21.3402C2.26981 24.7019 2.46534 29.3724 2.8387 32.7059Z" fill="url(#paint1_linear_83_8067)"/>
<path d="M21.7789 34.8733C22.0511 34.9564 22.4412 35.6958 22.5923 35.9086C23.1907 36.7529 23.7088 37.6616 24.0967 38.6225C25.1419 41.2116 24.9904 44.0511 23.0296 46.1715C23.0065 46.1965 22.9829 46.2215 22.9598 46.2464C22.854 46.3576 22.7438 46.466 22.6576 46.5926C22.4158 46.9478 22.3582 47.3928 22.1291 47.7571C21.9127 48.1015 21.5947 48.4236 21.2866 48.6835C20.5612 49.296 19.5949 49.7215 18.63 49.6263C18.2983 49.5936 17.9821 49.4756 17.6705 49.3586C16.3172 48.8505 14.8477 48.2711 14.13 46.9274C14.2117 47.0807 13.8393 47.7045 13.7453 47.8315C13.5203 48.1373 13.2445 48.2702 12.8965 48.4045C11.7474 48.8487 10.4966 49.2052 9.3951 49.756C8.63385 50.0491 7.99147 50.3276 7.21706 50.0736C6.76611 49.9257 6.30928 49.7959 5.86332 49.6326C5.02858 49.3273 3.63991 48.7929 3.63991 47.7099C3.63991 46.0354 2.24441 41.0124 5.59338 35.9894C8.94099 30.9686 21.7685 34.8702 21.7789 34.8733Z" fill="#D8D6D0"/>
<path d="M21.7932 30.746C22.1122 30.8431 22.5695 31.7096 22.7459 31.9587C23.4469 32.9477 24.0534 34.012 24.508 35.1371C25.7324 38.1699 25.5546 41.4957 23.2586 43.9791C23.2314 44.0081 23.2037 44.0376 23.1765 44.0666C23.0526 44.1968 22.9238 44.3239 22.8226 44.4722C22.539 44.8887 22.4719 45.4091 22.2038 45.8364C21.9507 46.2393 21.5782 46.6167 21.2171 46.9216C20.3674 47.6388 19.2355 48.137 18.1058 48.0258C17.7175 47.9877 17.3473 47.8494 16.9821 47.7123C15.397 47.1176 13.6758 46.4384 12.8352 44.8647C12.9309 45.0443 12.4944 45.7747 12.3847 45.924C12.1211 46.2819 11.7981 46.4375 11.3907 46.5949C10.0447 47.1153 8.57979 47.5327 7.28956 48.1778C6.39811 48.5212 5.64596 48.8474 4.73863 48.5498C4.21056 48.3765 3.67523 48.2245 3.15306 48.0335C2.17541 47.676 0.548559 47.05 0.548559 45.7815C0.548559 43.8203 -1.08556 37.9371 2.83638 32.054C6.75695 26.1726 21.781 30.7424 21.7932 30.746Z" fill="url(#paint2_linear_83_8067)"/>
<path d="M1.75539 23.9529C1.75539 23.9529 1.42378 15.0715 5.96049 8.58407C10.4972 2.09664 11.586 2.23274 11.586 2.23274C11.586 2.23274 14.1266 3.00397 14.1719 4.45571C14.1719 4.45571 14.3679 0.190796 16.2661 0.531046C18.1643 0.87175 18.6683 0.419434 18.9155 1.91608C19.1628 3.41227 19.8791 6.5521 19.8791 6.5521C19.8791 6.5521 20.7728 3.55337 22.3271 3.73256C23.8814 3.91176 24.7697 6.00498 24.7565 6.25132C24.7434 6.49766 25.6702 12.1726 25.4792 13.055C25.2878 13.9373 25.1921 18.9295 24.8772 19.8586C24.561 20.7877 23.0185 28.001 23.0185 28.001C23.0185 28.001 20.7955 23.6004 12.5841 23.5097C4.37264 23.419 2.19502 28.1825 2.19502 28.1825L1.75539 23.9529Z" fill="#B46766"/>
<defs>
<linearGradient id="paint0_linear_83_8067" x1="11.1281" y1="23.5161" x2="29.6894" y2="-21.8495" gradientUnits="userSpaceOnUse">
<stop offset="0.1599" stop-color="#BFAB8D"/>
<stop offset="0.5078" stop-color="#E7E1D2"/>
<stop offset="0.7297" stop-color="#CCBFA6"/>
</linearGradient>
<linearGradient id="paint1_linear_83_8067" x1="24.026" y1="17.5203" x2="3.11551" y2="18.4657" gradientUnits="userSpaceOnUse">
<stop offset="0.1599" stop-color="#BFAB8D"/>
<stop offset="0.5078" stop-color="#E7E1D2"/>
<stop offset="0.7297" stop-color="#CCBFA6"/>
</linearGradient>
<linearGradient id="paint2_linear_83_8067" x1="31.0493" y1="41.1856" x2="-3.77314" y2="37.5287" gradientUnits="userSpaceOnUse">
<stop stop-color="#94938C"/>
<stop offset="0.2296" stop-color="#EDEBE1"/>
<stop offset="0.7988" stop-color="#EDEBE1"/>
<stop offset="1" stop-color="#94938C"/>
</linearGradient>
</defs>
</svg>
