<svg width="24" height="43" viewBox="0 0 24 43" fill="none" xmlns="http://www.w3.org/2000/svg">
<path d="M19.0012 2.95907C19.5347 1.22332 17.9177 0.406725 16.5407 1.37259C13.8789 3.23945 12.4897 6.40427 11.277 9.30686C10.7153 10.6511 8.22588 15.347 9.80747 16.6114C11.3768 17.8658 17.0339 15.9885 17.1052 12.885C17.1437 11.2009 17.0884 9.50693 17.3138 7.83334C17.5588 6.01457 18.4781 4.65943 19.0012 2.95907Z" fill="url(#paint0_linear_83_8085)"/>
<path d="M3.2077 26.8831C2.24544 20.5753 2.2609 12.9646 5.06464 7.12687C5.71612 5.76995 6.60308 4.52872 7.6597 3.45716C8.07436 3.03662 10.5442 0.511519 11.0636 1.13304C11.5931 1.76681 11.1144 3.18316 11.0205 3.8877C10.8635 5.06678 10.7148 6.24674 10.5918 7.4299C10.3428 9.83024 9.72256 12.4311 10.3713 14.8197C10.5142 15.3455 10.8445 15.8654 11.3626 16.0337C11.6362 16.1226 11.9342 16.1044 12.2151 16.0436C13.9926 15.6585 15.2788 13.8665 16.3717 12.5518C17.9346 10.6723 18.8316 8.5609 19.6123 6.26309C19.9916 5.14707 20.4253 4.06281 21.3785 3.31925C21.6081 3.14005 22.0713 2.72451 22.4252 2.80934C23.5902 3.08789 23.1878 6.23088 23.1456 6.9454C22.8189 12.5019 20.5306 20.0191 20.5306 20.0191C20.5306 20.0191 19.5502 26.2289 20.5306 28.1901C21.511 30.1513 4.51475 30.1517 3.2077 26.8831Z" fill="url(#paint1_linear_83_8085)"/>
<path d="M2.22775 27.8634C2.22775 27.863 4.84262 24.9219 10.7257 24.9219C16.6087 24.9219 20.8577 26.8831 21.8381 29.4975C22.8184 32.1125 23.1455 39.3026 19.5503 40.6101C18.413 41.0238 17.1627 41.1263 16.1374 40.3932C15.2605 39.7662 14.9139 38.6139 13.5951 39.0413C13.0203 39.2273 12.5462 39.6306 12.059 39.9881C9.91683 41.5596 6.27621 43.1896 3.83643 41.3345C0.501123 38.7986 -0.676576 31.1312 2.22775 27.8634Z" fill="url(#paint2_linear_83_8085)"/>
<path d="M2.28955 22.4688C2.28955 22.4688 2.15345 8.31448 6.41798 4.41296L8.86781 1.82708L10.5918 0.919747L11.3176 0.874381C11.3176 0.874381 11.4991 1.23731 11.5445 1.37341C11.5898 1.50951 11.4537 4.86663 11.4537 4.86663L10.3286 10.4984L12.3611 6.09152L13.8128 3.86857L16.3988 1.05585L17.3515 0.738281L18.4857 0.919747L19.0755 1.46414L19.2569 2.09927L18.4857 5.41102L17.4876 9.9023L17.5783 10.6282L18.9847 7.31641L19.8921 5.00273L21.4799 3.05197C21.4799 3.05197 22.2906 2.54704 22.7016 2.73168C23.1131 2.91587 23.6122 4.59443 23.3853 6.13689C23.2846 6.82237 23.0646 8.94552 22.7048 11.2179C22.2552 14.0588 21.6614 17.0702 21.6614 17.0702L21.117 17.7961L20.255 21.4254C20.255 21.4254 9.41222 18.7488 2.28955 22.4688Z" fill="#B46766"/>
<defs>
<linearGradient id="paint0_linear_83_8085" x1="12.453" y1="17.5047" x2="19.6633" y2="-17.9154" gradientUnits="userSpaceOnUse">
<stop offset="0.1599" stop-color="#BFAB8D"/>
<stop offset="0.5078" stop-color="#E7E1D2"/>
<stop offset="0.7297" stop-color="#CCBFA6"/>
</linearGradient>
<linearGradient id="paint1_linear_83_8085" x1="-2.31167" y1="15.2284" x2="22.6266" y2="15.3185" gradientUnits="userSpaceOnUse">
<stop offset="0.1599" stop-color="#BFAB8D"/>
<stop offset="0.5078" stop-color="#E7E1D2"/>
<stop offset="0.7297" stop-color="#CCBFA6"/>
</linearGradient>
<linearGradient id="paint2_linear_83_8085" x1="-4.63303" y1="33.4938" x2="27.9258" y2="33.6114" gradientUnits="userSpaceOnUse">
<stop stop-color="#94938C"/>
<stop offset="0.2296" stop-color="#EDEBE1"/>
<stop offset="0.7988" stop-color="#EDEBE1"/>
<stop offset="1" stop-color="#94938C"/>
</linearGradient>
</defs>
</svg>
