<svg width="25" height="40" viewBox="0 0 25 40" fill="none" xmlns="http://www.w3.org/2000/svg">
<path d="M9.49905 36.8758C9.20417 38.729 10.3901 39.2199 11.3201 37.9682C13.1175 35.5488 13.9509 32.0846 14.6713 28.9202C15.0047 27.4549 16.5445 22.2273 15.3622 21.2791C14.189 20.3387 10.2676 23.3796 10.3665 26.5135C10.42 28.2134 10.5407 29.9047 10.4613 31.6327C10.3751 33.5104 9.78849 35.0602 9.49905 36.8758Z" fill="url(#paint0_linear_83_8151)"/>
<path d="M21.9704 13.5661C21.9704 13.5661 20.6629 17.1614 20.6629 21.0833C20.6629 25.0053 20.9896 29.908 18.7017 33.5033C16.4139 37.0986 15.7602 38.7327 15.7602 38.7327C15.7602 38.7327 13.799 41.0205 12.8186 38.4061C12.8186 38.4061 15.1064 30.5617 13.799 26.6398C12.4915 22.7179 11.184 24.0249 10.8574 24.6786C10.5308 25.3324 5.95463 32.8496 5.3009 34.8108C4.64717 36.772 3.66679 38.7327 3.01306 38.7327C2.35932 38.7327 1.37894 37.0986 0.72521 34.157C0.0714772 31.2155 0.725224 27.9473 2.03269 25.659C3.34016 23.3712 4.64761 13.239 4.64761 11.6049C4.64761 9.97083 20.3363 12.9124 21.9704 13.5661Z" fill="url(#paint1_linear_83_8151)"/>
<path d="M3.79582 17.7852C3.79582 17.7852 4.80341 21.0143 10.9279 21.0143C17.0524 21.0143 20.8632 18.6553 20.8632 18.6553C20.8632 18.6553 20.9131 23.3466 20.8654 23.7907C20.8178 24.2353 21.09 31.0856 19.2753 33.3085C17.4607 35.5315 16.6894 38.1627 16.6894 38.1627L15.646 39.3422L14.4211 39.932L13.4144 39.6408L12.3796 38.4349L11.6991 38.2988L10.2928 38.934L9.24933 37.9813L9.48569 36.2995L10.4629 31.6327L10.3681 26.5136L9.97519 27.048L8.6278 28.487L6.09908 33.3639L4.51851 37.3375L3.57034 38.7824L2.6671 38.8278C2.6671 38.8278 1.54246 37.7481 1.17681 36.2088C0.811154 34.6691 -1.09969 31.1673 2.03332 25.6598L3.79582 17.7852Z" fill="#B46766"/>
<path d="M14.416 3.29738C14.7264 3.22388 15.0475 3.0211 15.4204 2.77567C16.433 2.10833 17.4846 1.46455 18.6528 1.14018C19.821 0.815814 21.1362 0.843973 22.176 1.46776C22.9073 1.90645 23.449 2.60145 23.8949 3.32821C24.5927 4.46554 25.1076 5.78703 24.9474 7.11172C24.765 8.62241 24.1658 10.11 23.551 11.49C23.1781 12.327 22.8674 13.282 22.1955 13.9371C21.412 14.701 20.0937 14.8086 19.0607 14.9533C16.8386 15.264 14.6075 14.9855 12.4381 14.4705C10.2813 13.9584 8.05249 13.3904 5.95519 12.6763C5.5782 12.5479 5.20164 12.3996 4.88589 12.1574C4.00079 11.4773 3.81887 9.9317 3.6061 8.91187C3.28309 7.36171 3.48043 5.7589 4.11466 4.31399C4.93125 2.45353 6.49278 0.81131 8.56603 0.492386C10.05 0.264195 11.3674 0.568569 12.3659 1.7186C12.6966 2.09968 12.9598 2.54248 13.3173 2.90042C13.7115 3.29511 14.0563 3.38266 14.416 3.29738Z" fill="url(#paint2_linear_83_8151)"/>
<defs>
<linearGradient id="paint0_linear_83_8151" x1="13.432" y1="20.9079" x2="13.4079" y2="57.9773" gradientUnits="userSpaceOnUse">
<stop offset="0.1599" stop-color="#BFAB8D"/>
<stop offset="0.5078" stop-color="#E7E1D2"/>
<stop offset="0.7297" stop-color="#CCBFA6"/>
</linearGradient>
<linearGradient id="paint1_linear_83_8151" x1="20.0759" y1="25.3529" x2="3.31777" y2="25.4134" gradientUnits="userSpaceOnUse">
<stop stop-color="#BFAB8D"/>
<stop offset="0.5078" stop-color="#E7E1D2"/>
<stop offset="1" stop-color="#CCBFA6"/>
</linearGradient>
<linearGradient id="paint2_linear_83_8151" x1="30.8433" y1="7.68997" x2="-1.49775" y2="7.80684" gradientUnits="userSpaceOnUse">
<stop stop-color="#94938C"/>
<stop offset="0.2614" stop-color="#EDEBE1"/>
<stop offset="0.7687" stop-color="#EDEBE1"/>
<stop offset="1" stop-color="#94938C"/>
</linearGradient>
</defs>
</svg>
