<svg width="20" height="51" viewBox="0 0 20 51" fill="none" xmlns="http://www.w3.org/2000/svg">
<path d="M16.1298 20.7271C15.3268 25.9834 13.9109 31.2355 12.0676 36.2155C10.0415 41.6885 7.51006 47.162 2.58865 50.5918C2.46933 50.6748 2.3414 50.761 2.19623 50.7683C2.04833 50.7755 1.90906 50.6989 1.79065 50.6099C1.11287 50.1032 0.863333 49.1782 0.933198 48.3343C1.00306 47.4905 1.33971 46.6961 1.63368 45.9022C3.42749 41.0597 3.86528 35.7304 4.37657 30.6289C4.70049 27.3993 5.46855 23.4405 4.70729 20.2208C3.88978 16.7652 15.623 20.1129 16.1298 20.7271Z" fill="url(#paint0_linear_83_8125)"/>
<path d="M5.9912 0.745219C6.71795 0.417668 7.47598 0.409949 8.48853 0.65856C8.76253 0.725704 9.05469 0.830029 9.20349 1.06957C9.90075 2.18923 4.18113 4.33919 3.49748 3.39964C3.09283 2.84071 4.61845 1.72511 4.93782 1.44792C5.29847 1.13443 5.64144 0.902643 5.9912 0.745219Z" fill="#D8D6D0"/>
<path d="M15.929 0.931904C16.2665 1.03352 16.5233 1.14238 16.6313 1.23719C17.1775 1.71716 17.745 2.22796 17.9895 2.91253C18.0875 3.18699 18.098 3.55492 17.8484 3.70554C17.7641 3.75635 17.6633 3.77176 17.5653 3.77992C16.4208 3.87383 15.0965 3.12983 14.1284 2.5986C13.77 2.40217 12.2289 1.6931 12.2992 1.13556C12.4063 0.290402 14.7023 0.563083 15.929 0.931904Z" fill="#D8D6D0"/>
<path d="M17.9465 3.03844C17.9465 3.03844 20.2343 4.67254 18.9269 8.92159C18.2731 14.8048 16.3119 20.6879 16.3119 20.6879C16.3119 20.6879 15.6582 21.6683 11.0825 21.6683C6.50685 21.6683 5.19937 21.0146 4.54564 19.7071C3.8919 18.3996 2.25781 5.97958 2.25781 5.97958C2.25781 5.97958 2.58445 3.03799 3.89192 2.71135C5.19939 2.38425 6.50685 2.05761 6.83348 2.05761C7.16012 2.05761 10.1017 0.0964214 11.4092 0.423516C12.7166 0.750611 15.9857 3.36554 17.9465 3.03844Z" fill="url(#paint1_linear_83_8125)"/>
<path d="M4.74254 25.2188C4.74254 25.2188 5.37767 31.2072 8.37187 32.6135C11.3661 34.0199 15.2222 26.1715 15.2222 26.1715C15.2222 26.1715 11.5929 38.6927 11.3207 39.1917C11.0485 39.6907 7.19233 46.8587 6.64793 47.4484C6.10353 48.0382 3.563 50.6241 3.563 50.6241L1.56687 50.8963L0.704904 49.8075L0.523438 47.6299L3.20007 37.4678L4.74254 25.2188Z" fill="#B46766"/>
<defs>
<linearGradient id="paint0_linear_83_8125" x1="12.9014" y1="34.6945" x2="2.5349" y2="34.7319" gradientUnits="userSpaceOnUse">
<stop stop-color="#BFAB8D"/>
<stop offset="0.5078" stop-color="#E7E1D2"/>
<stop offset="1" stop-color="#CCBFA6"/>
</linearGradient>
<linearGradient id="paint1_linear_83_8125" x1="23.9136" y1="10.9816" x2="-0.126606" y2="11.0684" gradientUnits="userSpaceOnUse">
<stop stop-color="#94938C"/>
<stop offset="0.2717" stop-color="#EDEBE1"/>
<stop offset="0.7988" stop-color="#EDEBE1"/>
<stop offset="1" stop-color="#94938C"/>
</linearGradient>
</defs>
</svg>
