<svg width="20" height="68" viewBox="0 0 20 68" fill="none" xmlns="http://www.w3.org/2000/svg">
<path d="M16.8523 27.3384C14.9474 27.3275 13.0129 27.151 11.1112 26.9981C8.80793 26.8126 5.57376 26.9241 3.47103 25.8226C3.27867 25.7219 3.21561 25.3794 3.03823 25.2578C2.63492 26.6066 2.97834 28.7692 3.05728 30.1511C3.28275 34.1003 3.45606 38.0567 3.41614 42.0136C3.39391 44.1976 3.27142 46.3657 3.07407 48.5401C2.80142 51.5429 1.78611 54.4736 1.5121 57.5073C1.31974 59.6341 1.35105 61.7972 1.76524 63.8977C1.89545 64.5583 2.08509 66.2709 2.65806 66.4287C3.41387 66.637 4.55438 65.4751 4.9341 64.9634C6.19075 63.2707 6.51375 60.9783 7.15659 59.0167C7.8761 56.8209 8.71902 54.6687 9.57962 52.5251C11.2586 48.3446 13.0243 44.1744 14.1063 39.7884C14.7387 37.2256 15.0204 34.6007 15.6138 32.0288C15.9776 30.4528 16.4059 28.8926 16.8523 27.3384Z" fill="url(#paint0_linear_83_8111)"/>
<path d="M19.053 8.59017C19.053 8.59017 20.0334 3.36079 17.7456 1.72669C15.4577 0.092593 14.4774 0.746351 14.4774 0.746351C13.5311 1.00449 12.5802 1.24627 11.6271 1.47855C10.0583 1.86099 8.36433 2.40899 6.73841 2.3659C6.41268 2.35728 6.0865 2.32102 5.76213 2.35323C3.33914 2.59457 2.94446 5.17499 2.57971 7.06495C2.11199 9.48888 1.78172 11.945 1.58665 14.4057C1.4256 16.4377 1.34711 18.4928 1.51769 20.527C1.64109 22.0005 1.8466 23.6836 2.71127 24.9325C3.91937 26.6773 6.13505 27.4712 8.11618 27.9276C10.6308 28.5074 13.2738 28.6444 15.8465 28.5373C17.2452 28.4788 17.6362 25.3617 17.7147 24.3727C18.1321 19.1089 18.5753 13.8486 19.053 8.59017Z" fill="url(#paint1_linear_83_8111)"/>
<path d="M16.0587 34.923C16.0587 34.923 10.7322 42.2061 7.16685 41.8641C5.02736 41.659 4.39948 38.4162 3.07342 32.6719L3.25397 39.1747L2.35798 49.3949L0.90625 57.4248L0.996983 64.366L1.90432 67.088L3.71898 66.9972L6.30488 64.0938L9.20835 55.5194L13.9265 42.3177L16.0587 34.923Z" fill="#B46766"/>
<defs>
<linearGradient id="paint0_linear_83_8111" x1="12.2164" y1="45.8222" x2="3.13472" y2="45.855" gradientUnits="userSpaceOnUse">
<stop stop-color="#BFAB8D"/>
<stop offset="0.5078" stop-color="#E7E1D2"/>
<stop offset="1" stop-color="#CCBFA6"/>
</linearGradient>
<linearGradient id="paint1_linear_83_8111" x1="23.0679" y1="14.5633" x2="-0.899141" y2="14.65" gradientUnits="userSpaceOnUse">
<stop stop-color="#94938C"/>
<stop offset="0.2296" stop-color="#EDEBE1"/>
<stop offset="0.7988" stop-color="#EDEBE1"/>
<stop offset="1" stop-color="#94938C"/>
</linearGradient>
</defs>
</svg>
