<svg width="17" height="65" viewBox="0 0 17 65" fill="none" xmlns="http://www.w3.org/2000/svg">
<path d="M14.5101 23.0938C14.5101 23.0938 6.33891 27.0157 4.05102 23.7474C4.14085 26.959 4.19619 30.1723 4.23838 33.3847C4.31823 39.4934 4.35044 45.6079 4.17215 51.7152C4.10954 53.8601 4.05964 56.0078 3.85458 58.1451C3.75023 59.2339 3.60642 60.3195 3.4009 61.3937C3.30654 61.8882 3.02209 62.4708 3.2512 62.9222C3.55607 63.5224 4.34364 63.6585 4.89395 63.3876C5.66838 63.0065 6.17741 62.0693 6.56168 61.3457C7.48853 59.6 8.08647 57.6705 8.62725 55.7778C11.8951 44.3385 14.0065 26.6097 14.5101 23.0938Z" fill="url(#paint0_linear_83_8105)"/>
<path d="M15.7672 0.656707C14.9947 0.260203 13.7911 0.505183 12.9445 0.497924C11.374 0.484768 9.8034 0.489285 8.23328 0.534651C6.47898 0.585462 4.03966 0.384945 2.41737 1.1961C0.859499 1.97504 0.693904 3.92081 0.741085 5.44921C0.927993 11.4866 1.31678 17.8411 3.75203 23.4543C4.46519 25.0979 5.46052 26.7565 7.01839 27.7237C9.43232 29.2226 12.1956 28.3539 13.5715 25.954C14.673 24.0332 15.0967 21.8188 15.3276 19.6467C15.5023 18.0021 15.393 16.3453 15.5095 14.6976C15.6325 12.961 16.1447 11.2761 16.4246 9.55988C16.8669 6.84606 17.4022 4.01426 16.391 1.36077C16.2608 1.01871 16.0412 0.797343 15.7672 0.656707Z" fill="url(#paint1_linear_83_8105)"/>
<path d="M13.3212 33.219C13.3212 33.219 11.0302 37.1886 8.21743 37.3701C5.4047 37.5515 3.95297 31.6992 3.95297 31.6992L4.19659 44.9381L3.7715 54.8816L2.8188 60.7793L2.77344 63.1383L3.72614 64.091L5.58617 63.7735L8.1267 59.8266L10.6219 50.2996L13.8883 33.3324L13.3212 33.219Z" fill="#B46766"/>
<defs>
<linearGradient id="paint0_linear_83_8105" x1="1.87065" y1="43.28" x2="11.1039" y2="43.3134" gradientUnits="userSpaceOnUse">
<stop stop-color="#BFAB8D"/>
<stop offset="0.5078" stop-color="#E7E1D2"/>
<stop offset="1" stop-color="#CCBFA6"/>
</linearGradient>
<linearGradient id="paint1_linear_83_8105" x1="-2.54672" y1="14.3308" x2="19.7696" y2="14.5084" gradientUnits="userSpaceOnUse">
<stop stop-color="#94938C"/>
<stop offset="0.2296" stop-color="#EDEBE1"/>
<stop offset="0.7988" stop-color="#EDEBE1"/>
<stop offset="1" stop-color="#94938C"/>
</linearGradient>
</defs>
</svg>
