<svg width="17" height="66" viewBox="0 0 17 66" fill="none" xmlns="http://www.w3.org/2000/svg">
<path d="M3.38201 24.6719C3.38156 32.206 1.8468 39.6861 1.49656 47.2148C1.35365 50.2834 1.11727 53.3511 1.16173 56.4252C1.19666 58.8619 1.01022 62.9254 2.52958 65.0001C3.17289 65.8766 5.0765 61.9745 5.25842 61.5998C6.3976 59.2539 7.10532 56.76 7.98545 54.312C8.95586 51.6122 9.94532 48.8956 10.7406 46.1373C11.8018 42.4571 12.4065 38.6241 13.0825 34.8591C13.1882 34.2693 14.1119 26.6876 14.4948 26.6331C14.4911 26.6331 5.34279 27.9397 3.38201 24.6719Z" fill="url(#paint0_linear_83_8229)"/>
<path d="M15.9913 0.629284C15.8425 0.493639 15.5798 0.465079 15.0935 0.42425C14.3495 0.362098 13.5765 0.416509 12.8306 0.41787C9.79061 0.423768 6.75059 0.483217 3.71057 0.483217C3.71057 0.483217 0.768993 1.13693 1.09563 2.77103C1.42227 4.40512 2.40309 24.6694 3.38346 25.9764C4.36383 27.2834 6.65169 31.5328 11.5545 30.2254C16.4568 28.9179 15.4764 17.4793 15.4764 17.4788C15.3471 15.4069 15.8679 13.1123 16.009 11.0409C16.2186 7.96593 16.3978 4.86423 16.2218 1.78249C16.1837 1.10835 16.1696 0.791696 15.9913 0.629284Z" fill="url(#paint1_linear_83_8229)"/>
<path d="M2.74613 30.1523C2.74613 30.1523 2.88223 39.1349 6.82913 39.4525C10.776 39.7701 13.9517 32.1031 13.9517 32.1031L12.8175 38.772L9.50576 52.3367L5.69496 62.0451L3.83493 64.9032L2.5193 65.4476L0.75 61.6822L1.1583 50.0683L2.74613 30.1523Z" fill="#B46766"/>
<defs>
<linearGradient id="paint0_linear_83_8229" x1="13.4137" y1="44.8625" x2="-2.89182" y2="44.9214" gradientUnits="userSpaceOnUse">
<stop stop-color="#BFAB8D"/>
<stop offset="0.5078" stop-color="#E7E1D2"/>
<stop offset="1" stop-color="#CCBFA6"/>
</linearGradient>
<linearGradient id="paint1_linear_83_8229" x1="18.6691" y1="15.4096" x2="-0.511136" y2="15.4789" gradientUnits="userSpaceOnUse">
<stop stop-color="#94938C"/>
<stop offset="0.2296" stop-color="#EDEBE1"/>
<stop offset="0.7988" stop-color="#EDEBE1"/>
<stop offset="1" stop-color="#94938C"/>
</linearGradient>
</defs>
</svg>
