<svg width="16" height="66" viewBox="0 0 16 66" fill="none" xmlns="http://www.w3.org/2000/svg">
<path d="M12.9873 24.6719C12.9878 32.206 14.5225 39.6861 14.8728 47.2148C15.0157 50.2834 15.252 53.3511 15.2076 56.4252C15.1726 58.8619 15.3591 62.9254 13.8398 65.0001C13.1965 65.8766 11.293 61.9745 11.111 61.5998C9.9719 59.2539 9.26418 56.76 8.38408 54.312C7.41371 51.6122 6.4243 48.8956 5.62904 46.1373C4.56839 42.4571 3.96318 38.6241 3.28723 34.8591C3.18153 34.2693 2.25789 26.6876 1.875 26.6331C1.87863 26.6331 11.0271 27.9397 12.9873 24.6719Z" fill="url(#paint0_linear_83_8097)"/>
<path d="M0.380052 0.629284C0.528854 0.493639 0.791528 0.465079 1.27786 0.42425C2.02187 0.362098 2.79491 0.416509 3.54074 0.41787C6.58076 0.423768 9.62076 0.483217 12.6608 0.483217C12.6608 0.483217 15.6024 1.13693 15.2757 2.77103C14.9486 4.40512 13.9682 24.6694 12.9879 25.9764C12.0075 27.2834 9.71969 31.5328 4.81692 30.2254C-0.0853961 28.9179 0.894967 17.4793 0.894967 17.4788C1.02426 15.4069 0.503443 13.1123 0.362352 11.0409C0.152759 7.96593 -0.0264367 4.86423 0.149586 1.78249C0.187694 1.10835 0.202215 0.791696 0.380052 0.629284Z" fill="url(#paint1_linear_83_8097)"/>
<path d="M13.463 30.1523C13.463 30.1523 13.3269 39.1349 9.38014 39.4525C5.43337 39.7701 2.25781 32.1031 2.25781 32.1031L3.39194 38.772L6.70359 52.3367L10.5143 62.0451L12.3742 64.9032L13.6898 65.4476L15.4591 61.6822L15.4137 49.7508L13.463 30.1523Z" fill="#B46766"/>
<defs>
<linearGradient id="paint0_linear_83_8097" x1="2.95611" y1="44.8625" x2="19.2611" y2="44.9214" gradientUnits="userSpaceOnUse">
<stop stop-color="#BFAB8D"/>
<stop offset="0.5078" stop-color="#E7E1D2"/>
<stop offset="1" stop-color="#CCBFA6"/>
</linearGradient>
<linearGradient id="paint1_linear_83_8097" x1="-2.17677" y1="15.4101" x2="17.3662" y2="15.4807" gradientUnits="userSpaceOnUse">
<stop stop-color="#94938C"/>
<stop offset="0.2296" stop-color="#EDEBE1"/>
<stop offset="0.7988" stop-color="#EDEBE1"/>
<stop offset="1" stop-color="#94938C"/>
</linearGradient>
</defs>
</svg>
