<svg width="20" height="68" viewBox="0 0 20 68" fill="none" xmlns="http://www.w3.org/2000/svg">
<path d="M3.13281 27.3402C5.0378 27.3303 6.97227 27.1547 8.87409 27.0023C11.1774 26.8176 14.4117 26.9306 16.5149 25.83C16.7073 25.7293 16.7708 25.3868 16.9477 25.2656C17.3501 26.6148 17.0058 28.777 16.9264 30.1584C16.6991 34.1076 16.5244 38.0641 16.5625 42.0206C16.5839 44.2045 16.7055 46.3731 16.9019 48.5475C17.1732 51.5503 18.1872 54.4819 18.4603 57.5156C18.6517 59.6429 18.6195 61.8055 18.2044 63.906C18.0738 64.5665 17.8837 66.2791 17.3107 66.437C16.5548 66.6448 15.4147 65.4825 15.035 64.9703C13.7792 63.2772 13.4571 60.9844 12.8147 59.0227C12.0961 56.8269 11.2541 54.6738 10.3939 52.5302C8.71666 48.3487 6.95276 44.1782 5.87255 39.7917C5.24149 37.2289 4.96065 34.6035 4.36815 32.0312C4.00612 30.4551 3.57832 28.8945 3.13281 27.3402Z" fill="url(#paint0_linear_83_8108)"/>
<path d="M0.942295 8.58864C0.942295 8.58864 -0.0362764 3.35882 2.25249 1.72562C4.54125 0.0924249 5.52122 0.746607 5.52122 0.746607C6.46757 1.0052 7.41843 1.24745 8.37114 1.48018C9.93993 1.86308 11.6335 2.41198 13.2594 2.36979C13.5852 2.36117 13.9118 2.3249 14.2358 2.35756C16.6588 2.59982 17.0521 5.18026 17.416 7.07068C17.8828 9.49462 18.2117 11.9512 18.4059 14.4119C18.566 16.4439 18.6441 18.499 18.4726 20.5332C18.3483 22.0067 18.1423 23.6898 17.2772 24.9383C16.0681 26.6827 13.8524 27.4752 11.8708 27.9312C9.35563 28.51 6.71253 28.6461 4.14023 28.5377C2.74156 28.4783 2.35187 25.3616 2.27384 24.3726C1.85919 19.1073 1.41774 13.8471 0.942295 8.58864Z" fill="url(#paint1_linear_83_8108)"/>
<path d="M4.00781 34.923C4.00781 34.923 9.33448 42.2061 12.9 41.8641C15.0395 41.659 15.6674 38.4162 16.9936 32.6719L16.813 39.1747L17.709 49.3949L19.1608 57.4248L19.07 64.366L18.1627 67.088L16.3479 66.9972L13.762 64.0938L10.8584 55.5194L6.14011 42.3177L4.00781 34.923Z" fill="#B46766"/>
<defs>
<linearGradient id="paint0_linear_83_8108" x1="7.76107" y1="45.826" x2="16.843" y2="45.8626" gradientUnits="userSpaceOnUse">
<stop stop-color="#BFAB8D"/>
<stop offset="0.5078" stop-color="#E7E1D2"/>
<stop offset="1" stop-color="#CCBFA6"/>
</linearGradient>
<linearGradient id="paint1_linear_83_8108" x1="-3.72916" y1="14.5576" x2="22.5986" y2="14.6636" gradientUnits="userSpaceOnUse">
<stop stop-color="#94938C"/>
<stop offset="0.2296" stop-color="#EDEBE1"/>
<stop offset="0.7988" stop-color="#EDEBE1"/>
<stop offset="1" stop-color="#94938C"/>
</linearGradient>
</defs>
</svg>
