<svg width="19" height="54" viewBox="0 0 19 54" fill="none" xmlns="http://www.w3.org/2000/svg">
<path d="M3.51562 21.5049C3.51562 21.5049 9.7255 46.9985 14.9554 51.247C20.1849 55.496 17.57 46.998 17.57 46.998C17.57 46.998 15.6087 31.3099 15.6087 28.3683C15.6087 25.4268 16.6486 19.918 16.6486 19.918C16.6486 19.918 6.57655 22.0869 3.51562 21.5049Z" fill="url(#paint0_linear_83_8114)"/>
<path d="M3.19008 2.21965C3.19008 2.21965 -0.0781791 3.85374 0.902212 8.4294C1.8826 13.0051 1.55597 15.62 1.55597 15.62C1.55597 15.62 2.20971 23.4643 7.76586 23.7909C13.3225 24.1175 16.9174 20.8494 17.2445 18.8882C17.5716 16.927 17.5711 11.3709 17.8982 10.3901C18.2249 9.40976 19.2057 3.19953 15.937 2.21916C12.6687 1.23879 10.7075 0.911729 10.7075 0.911729C10.7075 0.911729 7.4392 -0.0681825 3.19008 2.21965Z" fill="url(#paint1_linear_83_8114)"/>
<path d="M5.42969 29.8447C5.42969 29.8447 8.74145 34.7897 11.7357 34.0638C14.7299 33.338 16.1127 27.125 16.1127 27.125L17.3611 39.4171L18.3138 47.1294L18.7675 51.1217L18.3592 53.1178L16.0909 52.4373L12.3254 48.6719L8.69609 41.7762L5.42969 29.8447Z" fill="#B46766"/>
<defs>
<linearGradient id="paint0_linear_83_8114" x1="16.7748" y1="36.1781" x2="5.21823" y2="36.2199" gradientUnits="userSpaceOnUse">
<stop stop-color="#BFAB8D"/>
<stop offset="0.5078" stop-color="#E7E1D2"/>
<stop offset="1" stop-color="#CCBFA6"/>
</linearGradient>
<linearGradient id="paint1_linear_83_8114" x1="21.5737" y1="12.2121" x2="-2.5936" y2="12.2994" gradientUnits="userSpaceOnUse">
<stop stop-color="#94938C"/>
<stop offset="0.2296" stop-color="#EDEBE1"/>
<stop offset="0.4283" stop-color="#EDEBE1"/>
<stop offset="0.7988" stop-color="#EDEBE1"/>
<stop offset="1" stop-color="#94938C"/>
</linearGradient>
</defs>
</svg>
