<svg width="27" height="51" viewBox="0 0 27 51" fill="none" xmlns="http://www.w3.org/2000/svg">
<path d="M11.7339 2.27088C11.7339 2.27088 10.8279 0.21667 8.99377 0.73113C7.1596 1.24559 6.52583 6.03948 6.85791 9.57356C7.18954 13.1076 8.7615 24.3205 11.464 24.5514C14.1665 24.7823 19.1087 18.4314 16.8603 14.8933C14.6115 11.3556 10.8914 5.14532 11.7339 2.27088Z" fill="url(#paint0_linear_83_8189)"/>
<path d="M23.5575 32.7217C20.3587 32.4912 16.7289 30.9274 13.5242 30.8008C11.514 30.7214 9.50289 30.5885 7.49042 30.6529C6.55995 30.6824 5.17581 33.1631 4.27392 33.0483C3.68869 32.9739 4.07477 30.5704 4.09881 29.9484C4.11923 29.4189 4.16414 28.8918 4.08656 28.3642C3.80801 26.4624 2.76185 24.6568 2.32679 22.755C1.82322 20.5551 1.48297 18.3127 1.27383 16.0661C1.05198 13.683 0.958525 11.2486 1.27019 8.86863C1.40448 7.84243 1.58776 6.80034 1.99515 5.84265C2.31227 5.09727 3.08124 3.63418 4.06388 3.74624C4.42455 3.78752 4.74756 3.9926 5.01749 4.23622C5.54647 4.71393 5.91484 5.34997 6.15846 6.02004C6.66067 7.40237 6.64978 8.89087 6.74641 10.339C6.84622 11.832 7.25317 13.2148 7.58798 14.6638C8.2095 17.3563 8.94352 20.5252 10.7074 22.7323C11.1366 23.2695 11.7817 23.7041 12.4662 23.6392C12.8174 23.6056 13.1454 23.4441 13.4321 23.2386C14.4651 22.4978 14.9904 21.2193 15.1696 19.9608C15.5367 17.3822 15.2604 14.5377 14.5713 12.038C14.167 10.5708 13.4203 9.25697 12.9639 7.82247C12.4817 6.30585 11.8275 3.29711 13.9656 2.71959C14.8285 2.48641 15.7472 2.92738 16.3918 3.54619C18.7836 5.83949 20.3991 9.24881 21.7823 12.2049C22.6307 14.0173 23.4495 15.891 23.9717 17.8281C24.2856 18.9927 24.2521 20.1532 24.219 21.3559C24.126 24.7176 23.9309 29.3881 23.5575 32.7217Z" fill="url(#paint1_linear_83_8189)"/>
<path d="M4.61474 34.8889C4.34254 34.972 3.95238 35.7115 3.80131 35.9242C3.20293 36.7685 2.68484 37.6772 2.29695 38.6381C1.25171 41.2272 1.40323 44.0667 3.36397 46.1871C3.38756 46.2121 3.4107 46.237 3.43384 46.262C3.53954 46.3731 3.64979 46.4816 3.73599 46.6081C3.97779 46.9634 4.0354 47.4084 4.2645 47.7727C4.4809 48.117 4.79891 48.4391 5.10695 48.6991C5.83236 49.3115 6.79867 49.7371 7.76362 49.6418C8.09525 49.6092 8.41147 49.4912 8.72314 49.3741C10.0764 48.866 11.5463 48.2867 12.2635 46.9429C12.1819 47.0963 12.5543 47.7201 12.6482 47.8471C12.8733 48.1529 13.1491 48.2858 13.4971 48.4201C14.6462 48.8642 15.8969 49.2208 16.9984 49.7716C17.7597 50.0646 18.4021 50.3432 19.1765 50.0891C19.6274 49.9412 20.0843 49.8115 20.5302 49.6482C21.365 49.3428 22.7536 48.8084 22.7536 47.7255C22.7536 46.051 24.1491 41.028 20.8002 36.005C17.453 30.9842 4.62563 34.8858 4.61474 34.8889Z" fill="#D8D6D0"/>
<path d="M4.59806 30.7617C4.27913 30.8587 3.82183 31.7253 3.64535 31.9743C2.94443 32.9633 2.33789 34.0276 1.88331 35.1527C0.658857 38.1855 0.836675 41.5114 3.13269 43.9948C3.15991 44.0238 3.18759 44.0533 3.21481 44.0823C3.33866 44.2125 3.46752 44.3396 3.56868 44.4879C3.85223 44.9044 3.91935 45.4248 4.18747 45.8521C4.44062 46.255 4.81308 46.6324 5.1742 46.9373C6.02392 47.6546 7.15583 48.1527 8.28547 48.0415C8.67381 48.0034 9.044 47.865 9.40921 47.728C10.9943 47.1333 12.7156 46.4541 13.5562 44.8803C13.4605 45.0595 13.8969 45.7904 14.0067 45.9397C14.2703 46.2976 14.5937 46.4532 15.0007 46.6107C16.3467 47.1306 17.8116 47.5484 19.1018 48.1935C19.9933 48.5369 20.7455 48.8631 21.6528 48.5655C22.1809 48.3922 22.7162 48.2402 23.2384 48.0492C24.2161 47.6917 25.8429 47.0657 25.8429 45.7972C25.8429 43.836 27.477 37.9528 23.5551 32.0696C19.6345 26.1882 4.61031 30.758 4.59806 30.7617Z" fill="url(#paint2_linear_83_8189)"/>
<path d="M24.585 23.863C24.585 23.863 24.9166 14.9816 20.38 8.4942C15.8433 2.00679 14.7545 2.14289 14.7545 2.14289C14.7545 2.14289 12.214 2.91412 12.1686 4.36585C12.1686 4.36585 11.9726 0.100954 10.0745 0.441202C8.17634 0.781904 7.67232 0.329591 7.42507 1.82623C7.17782 3.32242 6.46194 6.46223 6.46194 6.46223C6.46194 6.46223 5.56821 3.46351 4.01395 3.64271C2.46014 3.82145 1.57142 5.91511 1.58458 6.16145C1.59773 6.40734 0.670882 12.0827 0.861876 12.9651C1.05332 13.8474 1.14905 18.8396 1.46389 19.7687C1.77919 20.6978 3.32167 27.911 3.32167 27.911C3.32167 27.911 5.54463 23.5105 13.756 23.4198C21.9674 23.329 24.145 28.0925 24.145 28.0925L24.585 23.863Z" fill="#B46766"/>
<defs>
<linearGradient id="paint0_linear_83_8189" x1="15.2572" y1="23.5211" x2="-3.30495" y2="-21.8443" gradientUnits="userSpaceOnUse">
<stop offset="0.1599" stop-color="#BFAB8D"/>
<stop offset="0.5078" stop-color="#E7E1D2"/>
<stop offset="0.7297" stop-color="#CCBFA6"/>
</linearGradient>
<linearGradient id="paint1_linear_83_8189" x1="2.37003" y1="17.5359" x2="23.2806" y2="18.4814" gradientUnits="userSpaceOnUse">
<stop offset="0.1599" stop-color="#BFAB8D"/>
<stop offset="0.5078" stop-color="#E7E1D2"/>
<stop offset="0.7297" stop-color="#CCBFA6"/>
</linearGradient>
<linearGradient id="paint2_linear_83_8189" x1="-4.6582" y1="41.2013" x2="30.1645" y2="37.5443" gradientUnits="userSpaceOnUse">
<stop stop-color="#94938C"/>
<stop offset="0.2296" stop-color="#EDEBE1"/>
<stop offset="0.7988" stop-color="#EDEBE1"/>
<stop offset="1" stop-color="#94938C"/>
</linearGradient>
</defs>
</svg>
