<svg width="29" height="51" viewBox="0 0 29 51" fill="none" xmlns="http://www.w3.org/2000/svg">
<path d="M9.09426 0.434493C7.78134 0.523862 6.76784 0.90902 5.68993 1.64937C5.39822 1.84988 5.12193 2.09169 5.17955 2.37839C5.44812 3.71756 15.3236 2.64147 15.2288 1.46698C15.1698 0.769274 11.9582 0.582373 11.2392 0.5048C10.4276 0.417246 9.72622 0.391397 9.09426 0.434493Z" fill="#D8D6D0"/>
<path d="M19.2578 45.8006C19.9328 47.9646 18.3382 48.8474 16.8565 47.5653C13.9921 45.0865 12.3344 41.11 10.8763 37.4675C10.2012 35.7807 7.30275 29.8495 8.82843 28.4159C10.3419 26.9931 16.2745 29.702 16.5784 33.5083C16.7431 35.573 16.8125 37.6435 17.1678 39.7091C17.5534 41.9539 18.5954 43.6801 19.2578 45.8006Z" fill="url(#paint0_linear_83_8157)"/>
<path d="M2.48234 20.5282C2.67015 21.3027 2.83665 22.0907 2.8734 22.2431C3.18869 23.551 3.46222 24.8689 3.68179 26.1968C3.86099 27.2815 4.00434 28.3726 4.11095 29.4668C4.21439 30.5275 4.12411 31.6952 4.32644 32.7351C4.5256 33.7599 4.89083 34.8351 5.23607 35.825C6.27268 38.7979 7.84278 41.5643 9.70733 44.0931C10.6428 45.3615 11.6544 46.5733 12.7224 47.7324C13.3783 48.4447 14.7729 50.5533 15.932 49.6773C16.3671 49.3484 16.5417 48.7618 16.5136 48.2169C16.4855 47.672 16.2859 47.1531 16.0967 46.6413C14.6395 42.6931 13.2541 37.8044 14.0734 33.568C14.1587 33.1266 14.292 32.6706 14.6087 32.3517C15.0238 31.9339 15.6884 31.8395 16.2564 31.9965C16.8244 32.153 17.3089 32.5246 17.7317 32.9347C19.1829 34.3433 20.2141 36.3236 21.101 38.1246C21.7725 39.4883 22.2656 40.9415 22.5491 42.4358C22.8204 43.8658 22.5899 45.5653 23.1643 46.9072C23.4859 47.6594 24.2031 48.304 25.0206 48.2804C25.6571 48.2623 26.2206 47.8526 26.6402 47.3735C28.1863 45.6083 28.4825 42.7956 28.5728 40.545C28.6862 37.7086 28.2825 34.8823 27.8429 32.0881C27.2445 28.2841 26.4756 24.506 25.6168 20.7528C25.5837 20.6072 25.1164 18.2395 25.022 18.2422C25.022 18.2422 2.14754 18.8769 1.9375 18.8828C2.05409 18.8805 2.28046 19.6967 2.48234 20.5282Z" fill="url(#paint1_linear_83_8157)"/>
<path d="M20.3799 0.256568C19.194 0.188966 18.2286 0.448041 17.1494 1.0501C16.8572 1.21298 16.5723 1.41896 16.5782 1.70797C16.605 3.06 25.5888 3.17114 25.6909 2.00195C25.749 1.30688 22.9127 0.741581 22.2835 0.579609C21.573 0.397674 20.9511 0.289234 20.3799 0.256568Z" fill="#D8D6D0"/>
<path d="M4.43776 1.30643C3.4846 1.4017 2.5868 1.76871 1.81329 2.57533C0.816581 3.61468 0.317525 5.05646 0.194126 6.49096C-0.0703632 9.56863 0.456369 13.2288 1.22534 16.2103C1.46941 17.1567 1.49392 19.1456 2.14358 19.876C4.16513 22.1484 8.607 21.0428 11.295 20.8563C14.3736 20.6427 17.6881 20.5406 20.4464 19.876C22.2724 19.7843 25.6255 20.1885 26.1799 17.7737C26.815 15.0058 27.2061 12.1754 27.3368 9.3386C27.4347 7.21907 27.7442 1.98194 24.6973 1.57319C24.2514 1.5133 23.4987 2.01596 23.0518 2.11759C22.1195 2.32899 21.2099 2.30043 20.2844 2.05454C19.1462 1.7524 18.0892 1.20801 16.9981 0.76478C16.7608 0.668603 16.514 0.575578 16.2581 0.582383C15.6752 0.598261 15.2469 1.1032 14.7805 1.45343C12.8175 2.92876 9.29883 2.16343 7.13164 1.5968C6.22204 1.35908 5.30699 1.21978 4.43776 1.30643Z" fill="url(#paint2_linear_83_8157)"/>
<path d="M3.62907 29.4873C3.62907 29.4873 3.62907 34.2508 5.67057 38.0162C7.71207 41.7816 10.2526 45.8646 10.2526 45.8646L13.7005 49.993L16.2864 50.2198L17.103 48.8588L19.1862 48.402L20.0518 47.4071L18.3732 40.7836L17.1483 33.2981C17.1483 33.2981 19.3259 35.521 19.9611 36.7459C20.5962 37.9708 21.4128 40.7382 21.5489 40.965C21.685 41.1919 22.3201 44.8666 22.3201 44.8666L23.4543 47.9515L25.3143 48.9496L27.9456 46.8173L28.6261 44.3222C28.6261 44.3222 28.8983 34.6591 28.8983 34.523C28.8983 34.3869 27.4262 27.5007 27.4262 27.5007L26.0402 21.8203C26.0402 21.8203 20.9365 26.4078 15.1068 27.1736C9.27722 27.9394 2.99394 25.4723 3.03931 25.5404C3.13004 25.6765 3.62907 29.4873 3.62907 29.4873Z" fill="#B46766"/>
<defs>
<linearGradient id="paint0_linear_83_8157" x1="11.5034" y1="27.5022" x2="19.2652" y2="71.7947" gradientUnits="userSpaceOnUse">
<stop offset="0.1599" stop-color="#BFAB8D"/>
<stop offset="0.5078" stop-color="#E7E1D2"/>
<stop offset="0.7297" stop-color="#CCBFA6"/>
</linearGradient>
<linearGradient id="paint1_linear_83_8157" x1="4.52405" y1="34.0086" x2="27.0508" y2="34.09" gradientUnits="userSpaceOnUse">
<stop stop-color="#BFAB8D"/>
<stop offset="0.5078" stop-color="#E7E1D2"/>
<stop offset="1" stop-color="#CCBFA6"/>
</linearGradient>
<linearGradient id="paint2_linear_83_8157" x1="-5.58087" y1="10.875" x2="33.2649" y2="11.0153" gradientUnits="userSpaceOnUse">
<stop stop-color="#94938C"/>
<stop offset="0.2296" stop-color="#EDEBE1"/>
<stop offset="0.7988" stop-color="#EDEBE1"/>
<stop offset="1" stop-color="#94938C"/>
</linearGradient>
</defs>
</svg>
