<svg width="27" height="49" viewBox="0 0 27 49" fill="none" xmlns="http://www.w3.org/2000/svg">
<path d="M15.8624 42.3394C16.0643 44.2965 14.7944 44.7416 13.8929 43.3779C12.1502 40.7416 11.4778 37.0674 10.9061 33.7135C10.6412 32.1601 9.33087 26.5995 10.623 25.675C11.9052 24.7581 15.8352 28.1674 15.5516 31.442C15.3978 33.2185 15.1737 34.9819 15.1573 36.7952C15.1396 38.7664 15.6641 40.4222 15.8624 42.3394Z" fill="url(#paint0_linear_83_8141)"/>
<path d="M4.23438 20.0778C4.91989 22.0363 5.47249 24.0806 5.79143 26.1312C6.00602 27.5113 5.97427 28.738 5.76467 30.104C5.41216 32.3995 5.38673 34.7954 5.48564 37.1109C5.63989 40.7226 7.37251 43.4428 8.75761 46.6915C9.26664 47.8852 10.444 48.5116 11.511 47.4133C12.8648 46.0205 12.4996 43.093 12.5536 41.3264C12.6271 38.9083 12.6761 36.4735 13.1597 34.094C13.3679 33.0696 13.6606 32.0484 14.1955 31.1501C14.7272 30.2569 15.7099 29.8213 16.6513 30.4646C17.9048 31.3212 18.1874 33.1976 18.6202 34.5332C19.0263 35.7858 19.3942 37.0506 19.7495 38.3186C20.2512 40.1097 20.7154 41.9112 21.1935 43.7082C21.3918 44.4522 22.0388 46.1998 23.1326 45.4403C23.5019 45.1835 23.6843 44.7389 23.8381 44.3166C24.343 42.9274 24.7463 41.5042 25.1487 40.0824C25.6882 38.1775 26.1845 36.278 26.3006 34.2941C26.459 31.5893 25.3933 28.9167 24.8724 26.2986C24.319 23.5162 23.9732 20.6926 23.8408 17.859C23.8321 17.6725 23.8176 17.4697 23.6915 17.3318C23.5214 17.1458 23.2297 17.1603 22.9797 17.1889C19.9078 17.5409 16.8296 17.8272 13.7608 18.211C11.6843 18.4692 9.60511 18.7423 7.54675 19.1215C6.63984 19.2885 4.93713 19.3751 4.23438 20.0778Z" fill="url(#paint1_linear_83_8141)"/>
<path d="M1.83374 15.8322C1.73121 14.6055 1.75933 13.3624 1.52569 12.1506C1.16094 10.2593 0.205936 8.61155 0.341132 6.60768C0.66687 1.78333 7.40892 1.4104 10.7988 2.74646C12.2083 3.30176 12.7868 2.7773 13.9718 2.02874C15.2557 1.21757 16.7705 0.792969 18.288 0.792969C20.0233 0.792969 21.9383 1.28654 23.4205 2.19842C25.6131 3.54764 25.6113 5.76112 25.7619 8.08437C25.9284 10.654 25.8694 13.3011 25.0197 15.7582C24.7597 16.5104 24.4154 17.2495 23.8737 17.8324C23.1038 18.6613 22.123 18.7706 21.0827 19.0102C19.6627 19.3373 18.2268 19.614 16.7955 19.8848C13.9886 20.4161 11.1554 20.8484 8.29949 20.9918C6.94527 21.0598 5.54298 20.9224 4.34029 20.2959C2.59863 19.3894 1.98844 17.6836 1.83374 15.8322Z" fill="url(#paint2_linear_83_8141)"/>
<path d="M5.12048 23.8669C5.12048 23.8669 9.7026 27.4055 15.3282 26.725C20.9538 26.0445 24.2656 21.5078 24.2656 21.5078L25.7627 28.2674C25.7627 28.2674 26.5793 32.4865 26.6247 33.1217C26.6701 33.7568 26.2618 37.6583 26.2618 37.6583L24.9915 43.556L23.4944 45.7336H21.4982L19.4566 39.2008L18.4154 34.1578L17.7231 32.0207L16.5985 30.808L15.7819 30.8987L15.8726 32.668L15.6911 35.4354L15.6004 37.4769L16.0087 39.2915L16.1902 41.8774L16.417 43.1477L16.1448 44.0097L14.953 44.2429L13.4681 43.556L12.5521 41.328L13.0598 44.1911L12.7422 46.0058L12.1978 47.0492L11.109 48.0927L9.4304 47.9566L7.47959 45.6429L5.89173 41.5145L4.98438 36.4788L5.12048 23.8669Z" fill="#B46766"/>
<defs>
<linearGradient id="paint0_linear_83_8141" x1="12.6738" y1="25.4094" x2="10.5644" y2="64.2144" gradientUnits="userSpaceOnUse">
<stop offset="0.1599" stop-color="#BFAB8D"/>
<stop offset="0.5078" stop-color="#E7E1D2"/>
<stop offset="0.7297" stop-color="#CCBFA6"/>
</linearGradient>
<linearGradient id="paint1_linear_83_8141" x1="6.7613" y1="33.9693" x2="24.256" y2="30.5649" gradientUnits="userSpaceOnUse">
<stop stop-color="#BFAB8D"/>
<stop offset="0.5078" stop-color="#E7E1D2"/>
<stop offset="1" stop-color="#CCBFA6"/>
</linearGradient>
<linearGradient id="paint2_linear_83_8141" x1="-3.74443" y1="13.9163" x2="29.5545" y2="7.43662" gradientUnits="userSpaceOnUse">
<stop stop-color="#94938C"/>
<stop offset="0.2114" stop-color="#EDEBE1"/>
<stop offset="0.847" stop-color="#EDEBE1"/>
<stop offset="1" stop-color="#94938C"/>
</linearGradient>
</defs>
</svg>
