<svg width="20" height="70" viewBox="0 0 20 70" fill="none" xmlns="http://www.w3.org/2000/svg">
<path d="M16.0231 45.4769C16.0231 45.4769 3.94147 42.4487 2.9375 44.1753L7.8167 9.62271C7.8167 9.62271 7.66518 0.742188 8.97265 0.742188C10.2801 0.742188 11.5876 4.66415 11.5876 4.66415C11.5876 4.66415 15.7318 37.207 16.0231 45.4769Z" fill="url(#paint0_linear_83_8045)"/>
<path d="M13.7031 41.9802C13.7035 41.9811 20.8937 51.4592 19.5862 59.3031C19.1643 61.8341 18.3005 64.4794 16.7749 66.5667C16.0308 67.5848 15.0641 68.5062 13.8451 68.9099C12.2327 69.4439 10.1636 69.0247 8.54715 68.664C7.75141 68.4867 6.96973 68.2421 6.22843 67.901C1.04574 65.5174 -0.323433 59.372 0.0934878 54.1639C0.386557 50.5051 1.49715 46.9565 2.94072 43.6039C3.87709 41.429 6.05832 40.8592 8.23547 40.5512C9.87412 40.3193 12.5889 40.5112 13.7031 41.9802Z" fill="url(#paint1_linear_83_8045)"/>
<path d="M14.452 24.2594L12.7734 8.19959C12.7734 8.19959 10.707 1.16592 10.0968 0.623338C9.48663 0.080752 8.00994 1.25847 8.00994 1.25847L7.14798 9.69669L5.78199 21.0824L5.06111 28.2063L3.60938 38.9129C3.60938 38.9129 6.48063 27.7518 10.2783 27.4805C14.0759 27.2092 15.8584 35.8733 15.8584 35.8733L14.452 24.2594Z" fill="#B46766"/>
<defs>
<linearGradient id="paint0_linear_83_8045" x1="4.59816" y1="23.353" x2="14.2028" y2="23.0571" gradientUnits="userSpaceOnUse">
<stop stop-color="#BFAB8D"/>
<stop offset="0.5078" stop-color="#E7E1D2"/>
<stop offset="1" stop-color="#CCBFA6"/>
</linearGradient>
<linearGradient id="paint1_linear_83_8045" x1="-5.48519" y1="54.5255" x2="26.3194" y2="55.094" gradientUnits="userSpaceOnUse">
<stop stop-color="#94938C"/>
<stop offset="0.2666" stop-color="#EDEBE1"/>
<stop offset="0.7117" stop-color="#EDEBE1"/>
<stop offset="1" stop-color="#94938C"/>
</linearGradient>
</defs>
</svg>
