<svg width="20" height="62" viewBox="0 0 20 62" fill="none" xmlns="http://www.w3.org/2000/svg">
<path d="M13.3406 35.7759C13.3406 35.7759 16.6088 37.0833 17.5896 44.6006C17.5896 44.6006 18.57 52.4449 18.8971 54.7328C19.2238 57.0206 19.2238 59.9622 15.6289 60.9425C12.0335 61.9229 8.7653 61.2692 6.80408 60.6159C4.84286 59.9626 1.90127 58.001 1.24753 55.7131C0.593792 53.4253 1.24752 42.3128 2.22791 40.3516C3.20829 38.3908 5.49615 33.161 13.3406 35.7759Z" fill="url(#paint0_linear_83_8174)"/>
<path d="M10.074 4.72528C10.074 4.72528 17.2481 20.4104 14.3147 36.9175C14.3147 36.9175 3.91288 35.6845 3.39844 38.5081C4.85739 31.6409 5.55828 24.414 5.27112 17.4039C5.15453 14.5599 4.95401 11.7199 4.87417 8.87452C4.82245 7.02174 4.50036 4.90495 5.29562 3.1792C5.62951 2.45378 6.18161 1.38765 7.08755 1.30281C8.62499 1.159 9.61306 3.66506 10.074 4.72528Z" fill="url(#paint1_linear_83_8174)"/>
<path d="M4.75054 19.4807L4.30277 11.8419C4.30277 11.8419 4.23109 3.283 4.84128 2.74042C5.45146 2.19783 6.2608 0.823681 6.83741 0.789656C7.41402 0.755631 9.51405 2.19602 9.51405 2.19602L11.7284 8.11181L14.3733 17.1652L15.1849 23.2461L15.6386 35.1775C15.6386 35.1775 13.6746 23.8349 9.87698 23.5636C6.07933 23.2924 4.29688 31.9565 4.29688 31.9565L4.75054 19.4807Z" fill="#B46766"/>
<defs>
<linearGradient id="paint0_linear_83_8174" x1="24.7341" y1="48.9617" x2="-2.93006" y2="47.5756" gradientUnits="userSpaceOnUse">
<stop stop-color="#94938C"/>
<stop offset="0.2296" stop-color="#EDEBE1"/>
<stop offset="0.7988" stop-color="#EDEBE1"/>
<stop offset="1" stop-color="#94938C"/>
</linearGradient>
<linearGradient id="paint1_linear_83_8174" x1="6.02769" y1="19.9152" x2="15.0084" y2="20.0757" gradientUnits="userSpaceOnUse">
<stop stop-color="#BFAB8D"/>
<stop offset="0.5078" stop-color="#E7E1D2"/>
<stop offset="1" stop-color="#CCBFA6"/>
</linearGradient>
</defs>
</svg>
