<svg width="26" height="76" viewBox="0 0 26 76" fill="none" xmlns="http://www.w3.org/2000/svg">
<path d="M12.2565 1.93058C10.7037 3.45627 9.92977 6.70952 9.14812 8.69567C6.75827 14.7675 4.94182 21.0735 3.88934 27.5169C3.36537 30.7239 3.03056 33.9627 2.90308 37.21C2.83867 38.8432 2.82643 40.4782 2.86771 42.1123C2.90128 43.4497 2.6808 45.3946 3.23652 46.6077C3.92064 45.8347 4.40787 44.9051 5.13191 44.1615C6.90206 42.3432 9.19073 41.043 11.7752 41.0417C13.3085 41.0408 14.8047 41.479 16.1702 42.1577C17.3203 42.7293 18.7043 44.4546 19.9278 44.5476C20.1066 42.1554 19.5019 39.4706 19.2741 37.0716C19.2741 30.9816 18.071 24.55 17.1596 18.5411C16.8856 16.7337 16.4733 14.9504 16.5114 13.1176C16.5508 11.2253 16.7631 9.33533 16.6347 7.44173C16.5195 5.74638 16.3072 1.65205 13.9723 1.3921C13.5132 1.34083 13.0613 1.51094 12.6308 1.67834C12.4933 1.73233 12.3695 1.81989 12.2565 1.93058Z" fill="url(#paint0_linear_83_8228)"/>
<path d="M0.242713 70.5754C0.242713 70.5754 -2.04512 43.7746 10.0478 39.8522C10.0478 39.8522 23.7752 37.5644 25.0822 61.4236C25.0822 61.4236 26.7163 72.5362 20.5066 73.8436C9.72113 76.1315 0.242713 75.8048 0.242713 70.5754Z" fill="url(#paint1_linear_83_8228)"/>
<path d="M19.3962 27.5377L17.7751 16.5912C17.7751 16.5912 16.7771 2.98117 15.9604 2.25531C15.1438 1.52944 14.8716 0.985038 14.1003 0.939672C13.3291 0.894305 12.2403 1.57481 12.2403 1.57481L11.1968 2.52751L7.83957 11.6008L4.30088 23.7137L3.03057 32.5149L2.30469 41.0892C2.30469 41.0892 6.66001 23.124 11.7412 22.761C16.8224 22.3981 19.9074 37.9589 19.9074 37.9589L19.3962 27.5377Z" fill="#B46766"/>
<defs>
<linearGradient id="paint0_linear_83_8228" x1="6.57048" y1="23.9607" x2="20.0512" y2="24.2016" gradientUnits="userSpaceOnUse">
<stop stop-color="#BFAB8D"/>
<stop offset="0.5078" stop-color="#E7E1D2"/>
<stop offset="1" stop-color="#CCBFA6"/>
</linearGradient>
<linearGradient id="paint1_linear_83_8228" x1="-5.69842" y1="57.5161" x2="29.8321" y2="57.4656" gradientUnits="userSpaceOnUse">
<stop stop-color="#94938C"/>
<stop offset="0.2296" stop-color="#EDEBE1"/>
<stop offset="0.7988" stop-color="#EDEBE1"/>
<stop offset="1" stop-color="#94938C"/>
</linearGradient>
</defs>
</svg>
