<svg width="17" height="9" viewBox="0 0 17 9" fill="none" xmlns="http://www.w3.org/2000/svg">
<path d="M6.81001 8.86996C8.00001 8.86996 8.97001 7.89998 8.97001 6.70998V2.65997C8.97001 1.46997 8.00001 0.499969 6.81001 0.499969H2.76001C1.57001 0.499969 0.600006 1.46997 0.600006 2.65997V6.70998C0.600006 7.89998 1.57001 8.86996 2.76001 8.86996" fill="#D6D8D5"/>
<path d="M6.83001 3.65996H6.89001C7.43001 3.65996 7.87001 3.21995 7.87001 2.67995V2.61996C7.87001 2.07996 7.43001 1.63995 6.89001 1.63995H6.83001C6.29001 1.63995 5.85001 2.07996 5.85001 2.61996V2.67995C5.85001 3.21995 6.29001 3.65996 6.83001 3.65996Z" fill="#7C7B79"/>
<path d="M3.06001 3.71996H3.12002C3.66002 3.71996 4.10001 3.27995 4.10001 2.73995V2.67995C4.10001 2.13995 3.66002 1.69995 3.12002 1.69995H3.06001C2.52001 1.69995 2.08002 2.13995 2.08002 2.67995V2.73995C2.08002 3.27995 2.52001 3.71996 3.06001 3.71996Z" fill="#7C7B79"/>
<path d="M3.18002 7.36997H3.24001C3.78001 7.36997 4.22002 6.92998 4.22002 6.38998V6.32998C4.22002 5.78998 3.78001 5.34998 3.24001 5.34998H3.18002C2.64002 5.34998 2.20001 5.78998 2.20001 6.32998V6.38998C2.20001 6.92998 2.64002 7.36997 3.18002 7.36997Z" fill="#7C7B79"/>
<path d="M6.86001 7.30997H6.92001C7.46001 7.30997 7.90001 6.86998 7.90001 6.32998V6.26998C7.90001 5.72998 7.46001 5.28998 6.92001 5.28998H6.86001C6.32001 5.28998 5.88 5.72998 5.88 6.26998V6.32998C5.88 6.86998 6.32001 7.30997 6.86001 7.30997Z" fill="#7C7B79"/>
<path d="M5.52 4.26C5.43 4.11 5.27 4 5.08 4H5.05C4.76 4 4.53 4.23 4.53 4.52V4.55C4.53 4.84 4.76 5.07 5.05 5.07H5.08C5.22 5.07 5.34 5.01 5.43 4.93L16.35 6.52L16.38 5.84L5.52 4.26Z" fill="#7C7B79"/>
</svg>
