<svg width="19" height="9" viewBox="0 0 19 9" fill="none" xmlns="http://www.w3.org/2000/svg">
<path d="M8.10999 8.56999C6.91999 8.56999 5.95001 7.59999 5.95001 6.40999V2.35999C5.95001 1.16999 6.91999 0.199982 8.10999 0.199982H12.16C13.35 0.199982 14.32 1.16999 14.32 2.35999V6.40999C14.32 7.59999 13.35 8.56999 12.16 8.56999" fill="#D6D8D5"/>
<path d="M8.09 3.36H8.03C7.49 3.36 7.04999 2.92 7.04999 2.38V2.32001C7.04999 1.78001 7.49 1.34 8.03 1.34H8.09C8.63 1.34 9.07001 1.78001 9.07001 2.32001V2.38C9.07001 2.92 8.63 3.36 8.09 3.36Z" fill="#7C7B79"/>
<path d="M11.86 3.42H11.8C11.26 3.42 10.82 2.98 10.82 2.44V2.38C10.82 1.84 11.26 1.39999 11.8 1.39999H11.86C12.4 1.39999 12.84 1.84 12.84 2.38V2.44C12.84 2.99 12.4 3.42 11.86 3.42Z" fill="#7C7B79"/>
<path d="M11.74 7.06999H11.68C11.14 7.06999 10.7 6.62998 10.7 6.08998V6.02998C10.7 5.48998 11.14 5.04999 11.68 5.04999H11.74C12.28 5.04999 12.72 5.48998 12.72 6.02998V6.08998C12.72 6.62998 12.28 7.06999 11.74 7.06999Z" fill="#7C7B79"/>
<path d="M8.06 7.00998H8C7.46 7.00998 7.01999 6.56998 7.01999 6.02998V5.96999C7.01999 5.42999 7.46 4.98999 8 4.98999H8.06C8.6 4.98999 9.04001 5.42999 9.04001 5.96999V6.02998C9.04001 6.56998 8.6 7.00998 8.06 7.00998Z" fill="#7C7B79"/>
<path d="M10.27 3.89998C10.17 3.77998 10.03 3.69998 9.87 3.69998H9.84C9.64 3.69998 9.48001 3.80999 9.39001 3.96999L0.470001 4.07999V4.74998L9.51001 4.63998C9.60001 4.71998 9.71 4.76999 9.84 4.76999H9.87C10.03 4.76999 10.17 4.68999 10.26 4.57999L18.46 3.25998V2.57999L10.27 3.89998Z" fill="#7C7B79"/>
</svg>
