<svg width="21" height="9" viewBox="0 0 21 9" fill="none" xmlns="http://www.w3.org/2000/svg">
<path d="M8.42999 8.69C7.23999 8.69 6.26999 7.72 6.26999 6.53V2.48C6.26999 1.29 7.23999 0.320007 8.42999 0.320007H12.48C13.67 0.320007 14.64 1.29 14.64 2.48V6.53C14.64 7.72 13.67 8.69 12.48 8.69" fill="#D6D8D5"/>
<path d="M8.42001 3.46999H8.35999C7.81999 3.46999 7.38 3.02999 7.38 2.48999V2.42998C7.38 1.88998 7.81999 1.44998 8.35999 1.44998H8.42001C8.96001 1.44998 9.39999 1.88998 9.39999 2.42998V2.48999C9.38999 3.03999 8.95001 3.46999 8.42001 3.46999Z" fill="#7C7B79"/>
<path d="M12.19 3.53998H12.13C11.59 3.53998 11.15 3.09998 11.15 2.55998V2.49998C11.15 1.95998 11.59 1.51999 12.13 1.51999H12.19C12.73 1.51999 13.17 1.95998 13.17 2.49998V2.55998C13.16 3.09998 12.72 3.53998 12.19 3.53998Z" fill="#7C7B79"/>
<path d="M12.06 7.17999H12C11.46 7.17999 11.02 6.74 11.02 6.2V6.14C11.02 5.6 11.46 5.16 12 5.16H12.06C12.6 5.16 13.04 5.6 13.04 6.14V6.2C13.04 6.75 12.6 7.17999 12.06 7.17999Z" fill="#7C7B79"/>
<path d="M8.38 7.12H8.32001C7.78001 7.12 7.34 6.68 7.34 6.14V6.08C7.34 5.54 7.78001 5.10001 8.32001 5.10001H8.38C8.92 5.10001 9.35999 5.54 9.35999 6.08V6.14C9.35999 6.69 8.92 7.12 8.38 7.12Z" fill="#7C7B79"/>
<path d="M10.58 3.99998C10.48 3.88998 10.35 3.81999 10.19 3.81999H10.16C9.96 3.81999 9.79999 3.92998 9.70999 4.08998L0.459991 5.57999V6.25998L9.81 4.74998C9.9 4.82998 10.02 4.88998 10.15 4.88998H10.18C10.35 4.88998 10.5 4.79998 10.6 4.66998L20.45 4.27998V3.60999L10.58 3.99998Z" fill="#7C7B79"/>
</svg>
