<svg width="20" height="9" viewBox="0 0 20 9" fill="none" xmlns="http://www.w3.org/2000/svg">
<path d="M7.70999 8.85002C6.51999 8.85002 5.54999 7.88002 5.54999 6.69002V2.64001C5.54999 1.45001 6.51999 0.480011 7.70999 0.480011H11.76C12.95 0.480011 13.92 1.45001 13.92 2.64001V6.69002C13.92 7.88002 12.95 8.85002 11.76 8.85002" fill="#D6D8D5"/>
<path d="M7.70001 3.64H7.64001C7.10001 3.64 6.66 3.2 6.66 2.66V2.60001C6.66 2.06001 7.10001 1.62 7.64001 1.62H7.70001C8.24001 1.62 8.67999 2.06001 8.67999 2.60001V2.66C8.66999 3.21 8.24001 3.64 7.70001 3.64Z" fill="#7C7B79"/>
<path d="M11.47 3.7H11.41C10.87 3.7 10.43 3.26 10.43 2.72V2.66C10.43 2.12 10.87 1.67999 11.41 1.67999H11.47C12.01 1.67999 12.45 2.12 12.45 2.66V2.72C12.44 3.27 12.01 3.7 11.47 3.7Z" fill="#7C7B79"/>
<path d="M11.35 7.35002H11.29C10.75 7.35002 10.31 6.91001 10.31 6.37001V6.31001C10.31 5.77001 10.75 5.33002 11.29 5.33002H11.35C11.89 5.33002 12.33 5.77001 12.33 6.31001V6.37001C12.32 6.91001 11.88 7.35002 11.35 7.35002Z" fill="#7C7B79"/>
<path d="M7.67001 7.29001H7.60999C7.06999 7.29001 6.63 6.85001 6.63 6.31001V6.25002C6.63 5.71002 7.06999 5.27002 7.60999 5.27002H7.67001C8.21001 5.27002 8.64999 5.71002 8.64999 6.25002V6.31001C8.63999 6.86001 8.20001 7.29001 7.67001 7.29001Z" fill="#7C7B79"/>
<path d="M9.89001 4.20001C9.80001 4.07001 9.65001 3.99002 9.48001 3.99002H9.45001C9.25001 3.99002 9.08 4.11002 9 4.27002L0.470001 4.61002V5.28001L9.12 4.94002C9.21 5.01002 9.32001 5.06001 9.45001 5.06001H9.48001C9.63001 5.06001 9.76999 4.99002 9.87 4.88002L19.47 3.82002V3.14001L9.89001 4.20001Z" fill="#7C7B79"/>
</svg>
