<svg width="19" height="9" viewBox="0 0 19 9" fill="none" xmlns="http://www.w3.org/2000/svg">
<path d="M7.44 8.82002C6.25 8.82002 5.28 7.85002 5.28 6.66002V2.61002C5.28 1.42002 6.25 0.450012 7.44 0.450012H11.49C12.68 0.450012 13.65 1.42002 13.65 2.61002V6.66002C13.65 7.85002 12.68 8.82002 11.49 8.82002" fill="#D6D8D5"/>
<path d="M7.42001 3.60002H7.35999C6.81999 3.60002 6.38 3.16001 6.38 2.62001V2.56001C6.38 2.02001 6.81999 1.58002 7.35999 1.58002H7.42001C7.96001 1.58002 8.39999 2.02001 8.39999 2.56001V2.62001C8.39999 3.17001 7.96001 3.60002 7.42001 3.60002Z" fill="#7C7B79"/>
<path d="M11.19 3.67H11.13C10.59 3.67 10.15 3.23 10.15 2.69V2.63C10.15 2.09 10.59 1.64999 11.13 1.64999H11.19C11.73 1.64999 12.17 2.09 12.17 2.63V2.69C12.17 3.23 11.73 3.67 11.19 3.67Z" fill="#7C7B79"/>
<path d="M11.07 7.31001H11.01C10.47 7.31001 10.03 6.87002 10.03 6.33002V6.27002C10.03 5.73002 10.47 5.29001 11.01 5.29001H11.07C11.61 5.29001 12.05 5.73002 12.05 6.27002V6.33002C12.05 6.88002 11.61 7.31001 11.07 7.31001Z" fill="#7C7B79"/>
<path d="M7.39001 7.25002H7.32999C6.78999 7.25002 6.35001 6.81002 6.35001 6.27002V6.21002C6.35001 5.67002 6.78999 5.23001 7.32999 5.23001H7.39001C7.93001 5.23001 8.37 5.67002 8.37 6.21002V6.27002C8.37 6.82002 7.93001 7.25002 7.39001 7.25002Z" fill="#7C7B79"/>
<path d="M9.57999 4.11002C9.48999 4.01002 9.35001 3.94002 9.20001 3.94002H9.17001C8.97001 3.94002 8.78999 4.06001 8.70999 4.23001L0.470001 5.14001V5.82002L8.85999 4.90001C8.94999 4.97001 9.05999 5.02002 9.17999 5.02002H9.20999C9.38999 5.02002 9.53 4.93001 9.63 4.79001L18.47 3.14001V2.46002L9.57999 4.11002Z" fill="#7C7B79"/>
</svg>
