<svg width="26" height="9" viewBox="0 0 26 9" fill="none" xmlns="http://www.w3.org/2000/svg">
<path d="M10.96 8.81C9.76999 8.81 8.79999 7.83999 8.79999 6.64999V2.60001C8.79999 1.41001 9.76999 0.440002 10.96 0.440002H15.01C16.2 0.440002 17.17 1.41001 17.17 2.60001V6.64999C17.17 7.83999 16.2 8.81 15.01 8.81" fill="#D6D8D5"/>
<path d="M10.95 3.59999H10.89C10.35 3.59999 9.91 3.15998 9.91 2.61998V2.55998C9.91 2.01998 10.35 1.57999 10.89 1.57999H10.95C11.49 1.57999 11.93 2.01998 11.93 2.55998V2.61998C11.92 3.15998 11.49 3.59999 10.95 3.59999Z" fill="#7C7B79"/>
<path d="M14.72 3.65999H14.66C14.12 3.65999 13.68 3.21998 13.68 2.67998V2.61998C13.68 2.07998 14.12 1.63998 14.66 1.63998H14.72C15.26 1.63998 15.7 2.07998 15.7 2.61998V2.67998C15.69 3.21998 15.26 3.65999 14.72 3.65999Z" fill="#7C7B79"/>
<path d="M14.6 7.30998H14.54C14 7.30998 13.56 6.86999 13.56 6.32999V6.26999C13.56 5.72999 14 5.28998 14.54 5.28998H14.6C15.14 5.28998 15.58 5.72999 15.58 6.26999V6.32999C15.57 6.86999 15.14 7.30998 14.6 7.30998Z" fill="#7C7B79"/>
<path d="M10.92 7.24998H10.86C10.32 7.24998 9.88 6.80999 9.88 6.26999V6.20999C9.88 5.66999 10.32 5.22998 10.86 5.22998H10.92C11.46 5.22998 11.9 5.66999 11.9 6.20999V6.26999C11.89 6.80999 11.45 7.24998 10.92 7.24998Z" fill="#7C7B79"/>
<path d="M13.12 4.12999C13.02 4.01999 12.89 3.94998 12.73 3.94998H12.7C12.48 3.94998 12.3 4.07999 12.22 4.26999L0.470001 6.45999V7.13998L12.41 4.90999C12.49 4.96999 12.59 5.00998 12.71 5.00998H12.74C12.91 5.00998 13.06 4.91999 13.15 4.79999L25.48 3.95999V3.28998L13.12 4.12999Z" fill="#7C7B79"/>
</svg>
