<svg width="24" height="10" viewBox="0 0 24 10" fill="none" xmlns="http://www.w3.org/2000/svg">
<path d="M10.54 9.15998C9.35001 9.15998 8.38 8.18998 8.38 6.99998V2.94997C8.38 1.75997 9.35001 0.789978 10.54 0.789978H14.59C15.78 0.789978 16.75 1.75997 16.75 2.94997V6.99998C16.75 8.18998 15.78 9.15998 14.59 9.15998" fill="#D6D8D5"/>
<path d="M10.53 3.94999H10.47C9.93 3.94999 9.48999 3.50999 9.48999 2.96999V2.91C9.48999 2.37 9.93 1.92999 10.47 1.92999H10.53C11.07 1.92999 11.51 2.37 11.51 2.91V2.96999C11.51 3.51999 11.07 3.94999 10.53 3.94999Z" fill="#7C7B79"/>
<path d="M14.3 4.00999H14.24C13.7 4.00999 13.26 3.56999 13.26 3.02999V2.96999C13.26 2.42999 13.7 1.98999 14.24 1.98999H14.3C14.84 1.98999 15.28 2.42999 15.28 2.96999V3.02999C15.28 3.57999 14.84 4.00999 14.3 4.00999Z" fill="#7C7B79"/>
<path d="M14.18 7.65999H14.12C13.58 7.65999 13.14 7.21998 13.14 6.67998V6.61998C13.14 6.07998 13.58 5.63998 14.12 5.63998H14.18C14.72 5.63998 15.16 6.07998 15.16 6.61998V6.67998C15.16 7.21998 14.72 7.65999 14.18 7.65999Z" fill="#7C7B79"/>
<path d="M10.5 7.59999H10.44C9.89997 7.59999 9.45996 7.15998 9.45996 6.61998V6.55998C9.45996 6.01998 9.89997 5.57999 10.44 5.57999H10.5C11.04 5.57999 11.48 6.01998 11.48 6.55998V6.61998C11.47 7.16998 11.04 7.59999 10.5 7.59999Z" fill="#7C7B79"/>
<path d="M12.63 4.41998C12.54 4.34998 12.43 4.29999 12.31 4.29999H12.28C12.11 4.29999 11.97 4.38998 11.87 4.50998L0.459961 5.28998V5.95999L11.88 5.17998C11.98 5.28998 12.11 5.36998 12.27 5.36998H12.3C12.51 5.36998 12.68 5.24999 12.76 5.07999L23.61 3.46999L23.52 2.79999L12.63 4.41998Z" fill="#7C7B79"/>
</svg>
