<svg width="17" height="9" viewBox="0 0 17 9" fill="none" xmlns="http://www.w3.org/2000/svg">
<path d="M10.14 8.81999C8.94998 8.81999 7.97998 7.84999 7.97998 6.65999V2.60999C7.97998 1.41999 8.94998 0.449982 10.14 0.449982H14.19C15.38 0.449982 16.35 1.41999 16.35 2.60999V6.65999C16.35 7.84999 15.38 8.81999 14.19 8.81999" fill="#D6D8D5"/>
<path d="M10.13 3.61H10.07C9.52998 3.61 9.08997 3.17 9.08997 2.63V2.57C9.08997 2.03 9.52998 1.59 10.07 1.59H10.13C10.67 1.59 11.11 2.03 11.11 2.57V2.63C11.11 3.18 10.67 3.61 10.13 3.61Z" fill="#7C7B79"/>
<path d="M13.9 3.66999H13.84C13.3 3.66999 12.86 3.22999 12.86 2.68999V2.62999C12.86 2.08999 13.3 1.64999 13.84 1.64999H13.9C14.44 1.64999 14.88 2.08999 14.88 2.62999V2.68999C14.88 3.23999 14.44 3.66999 13.9 3.66999Z" fill="#7C7B79"/>
<path d="M13.78 7.31999H13.72C13.18 7.31999 12.74 6.87998 12.74 6.33998V6.27998C12.74 5.73998 13.18 5.29999 13.72 5.29999H13.78C14.32 5.29999 14.76 5.73998 14.76 6.27998V6.33998C14.76 6.88998 14.32 7.31999 13.78 7.31999Z" fill="#7C7B79"/>
<path d="M10.1 7.25999H10.04C9.50001 7.25999 9.06 6.81999 9.06 6.27999V6.21999C9.06 5.67999 9.50001 5.23999 10.04 5.23999H10.1C10.64 5.23999 11.08 5.67999 11.08 6.21999V6.27999C11.07 6.82999 10.64 7.25999 10.1 7.25999Z" fill="#7C7B79"/>
<path d="M11.91 3.95999H11.88C11.71 3.95999 11.56 4.04999 11.46 4.17999L0.530029 5.8L0.620026 6.46999L11.49 4.85999C11.59 4.96999 11.72 5.02999 11.87 5.02999H11.9C12.19 5.02999 12.42 4.79999 12.42 4.50999V4.48C12.43 4.19 12.2 3.95999 11.91 3.95999Z" fill="#7C7B79"/>
</svg>
