<svg width="16" height="9" viewBox="0 0 16 9" fill="none" xmlns="http://www.w3.org/2000/svg">
<path d="M6.08999 8.06003C7.10999 8.06003 7.93999 7.23004 7.93999 6.21004V2.76003C7.93999 1.74003 7.10999 0.910034 6.08999 0.910034H2.63999C1.61999 0.910034 0.789993 1.74003 0.789993 2.76003V6.21004C0.789993 7.23004 1.61999 8.06003 2.63999 8.06003" fill="#D6D8D5"/>
<path d="M6.11 3.61003H6.16C6.62 3.61003 6.98999 3.24003 6.98999 2.78003V2.73003C6.98999 2.27003 6.62 1.90002 6.16 1.90002H6.11C5.65 1.90002 5.27999 2.27003 5.27999 2.73003V2.78003C5.26999 3.24003 5.65 3.61003 6.11 3.61003Z" fill="#7C7B79"/>
<path d="M2.89 3.67001H2.94C3.4 3.67001 3.77 3.30001 3.77 2.84001V2.79001C3.77 2.33001 3.4 1.96002 2.94 1.96002H2.89C2.43 1.96002 2.06 2.33001 2.06 2.79001V2.84001C2.06 3.29001 2.43 3.67001 2.89 3.67001Z" fill="#7C7B79"/>
<path d="M2.99 6.78H3.04C3.5 6.78 3.87 6.41 3.87 5.95V5.89999C3.87 5.43999 3.5 5.07001 3.04 5.07001H2.99C2.53 5.07001 2.16 5.43999 2.16 5.89999V5.95C2.16 6.41 2.53 6.78 2.99 6.78Z" fill="#7C7B79"/>
<path d="M6.12998 6.73001H6.17999C6.63999 6.73001 7.00999 6.36001 7.00999 5.90001V5.85002C7.00999 5.39002 6.63999 5.02002 6.17999 5.02002H6.12998C5.66998 5.02002 5.29999 5.39002 5.29999 5.85002V5.90001C5.29999 6.35001 5.66998 6.73001 6.12998 6.73001Z" fill="#7C7B79"/>
<path d="M4.95998 4.09003C4.87998 3.98003 4.75999 3.91003 4.60999 3.91003H4.57999C4.32999 3.91003 4.13998 4.11004 4.13998 4.35004V4.38004C4.13998 4.63004 4.33999 4.82004 4.57999 4.82004H4.60999C4.68999 4.82004 4.76999 4.79003 4.82999 4.75003L15.16 6.71004L15.23 6.04002L4.95998 4.09003Z" fill="#7C7B79"/>
</svg>
