<svg width="27" height="9" viewBox="0 0 27 9" fill="none" xmlns="http://www.w3.org/2000/svg">
<path d="M16.24 8.40999C17.43 8.40999 18.4 7.43998 18.4 6.24998V2.19998C18.4 1.00998 17.43 0.039978 16.24 0.039978H12.19C11 0.039978 10.03 1.00998 10.03 2.19998V6.24998C10.03 7.43998 11 8.40999 12.19 8.40999" fill="#D6D8D5"/>
<path d="M16.25 3.2H16.31C16.85 3.2 17.29 2.76 17.29 2.22V2.16C17.29 1.62 16.85 1.17999 16.31 1.17999H16.25C15.71 1.17999 15.27 1.62 15.27 2.16V2.22C15.28 2.76 15.71 3.2 16.25 3.2Z" fill="#7C7B79"/>
<path d="M12.48 3.25998H12.54C13.08 3.25998 13.52 2.81998 13.52 2.27998V2.21999C13.52 1.67999 13.08 1.23999 12.54 1.23999H12.48C11.94 1.23999 11.5 1.67999 11.5 2.21999V2.27998C11.5 2.81998 11.94 3.25998 12.48 3.25998Z" fill="#7C7B79"/>
<path d="M12.6 6.91002H12.66C13.2 6.91002 13.64 6.47001 13.64 5.93001V5.87001C13.64 5.33001 13.2 4.89001 12.66 4.89001H12.6C12.06 4.89001 11.62 5.33001 11.62 5.87001V5.93001C11.63 6.47001 12.06 6.91002 12.6 6.91002Z" fill="#7C7B79"/>
<path d="M16.28 6.85002H16.34C16.88 6.85002 17.32 6.41001 17.32 5.87001V5.81001C17.32 5.27001 16.88 4.83002 16.34 4.83002H16.28C15.74 4.83002 15.3 5.27001 15.3 5.81001V5.87001C15.31 6.41001 15.74 6.85002 16.28 6.85002Z" fill="#7C7B79"/>
<path d="M14.93 3.77998C14.84 3.63998 14.68 3.53998 14.5 3.53998H14.47C14.34 3.53998 14.23 3.58998 14.14 3.66998L0.239983 1.03998L0.169983 1.70999L14.01 4.32999C14.1 4.49999 14.27 4.60999 14.47 4.60999H14.5C14.65 4.60999 14.78 4.54998 14.87 4.44998L26.13 5.49998L26.15 4.82999L14.93 3.77998Z" fill="#7C7B79"/>
</svg>
