<svg width="29" height="9" viewBox="0 0 29 9" fill="none" xmlns="http://www.w3.org/2000/svg">
<path d="M16.08 8.82996C17.27 8.82996 18.24 7.85995 18.24 6.66995V2.61995C18.24 1.42995 17.27 0.459961 16.08 0.459961H12.03C10.84 0.459961 9.87 1.42995 9.87 2.61995V6.66995C9.87 7.85995 10.84 8.82996 12.03 8.82996" fill="#D6D8D5"/>
<path d="M16.1 3.61996H16.16C16.7 3.61996 17.14 3.17997 17.14 2.63997V2.57997C17.14 2.03997 16.7 1.59998 16.16 1.59998H16.1C15.56 1.59998 15.12 2.03997 15.12 2.57997V2.63997C15.12 3.17997 15.56 3.61996 16.1 3.61996Z" fill="#7C7B79"/>
<path d="M12.32 3.67996H12.38C12.92 3.67996 13.36 3.23997 13.36 2.69997V2.63997C13.36 2.09997 12.92 1.65997 12.38 1.65997H12.32C11.78 1.65997 11.34 2.09997 11.34 2.63997V2.69997C11.35 3.24997 11.79 3.67996 12.32 3.67996Z" fill="#7C7B79"/>
<path d="M12.45 7.32994H12.51C13.05 7.32994 13.49 6.88995 13.49 6.34995V6.28993C13.49 5.74993 13.05 5.30994 12.51 5.30994H12.45C11.91 5.30994 11.47 5.74993 11.47 6.28993V6.34995C11.47 6.88995 11.91 7.32994 12.45 7.32994Z" fill="#7C7B79"/>
<path d="M16.13 7.27H16.19C16.73 7.27 17.17 6.82999 17.17 6.28999V6.23C17.17 5.69 16.73 5.25 16.19 5.25H16.13C15.59 5.25 15.15 5.69 15.15 6.23V6.28999C15.15 6.82999 15.59 7.27 16.13 7.27Z" fill="#7C7B79"/>
<path d="M14.77 4.18996C14.68 4.04996 14.53 3.95996 14.35 3.95996H14.32C14.17 3.95996 14.04 4.01995 13.95 4.11995L0.160019 2.82996L0.140015 3.49995L13.9 4.78995C13.99 4.92995 14.15 5.02995 14.33 5.02995H14.36C14.51 5.02995 14.65 4.95995 14.74 4.85995L28.14 5.80995L28.16 5.13995L14.77 4.18996Z" fill="#7C7B79"/>
</svg>
