<svg width="24" height="10" viewBox="0 0 24 10" fill="none" xmlns="http://www.w3.org/2000/svg">
<path d="M13.78 9.21001C14.97 9.21001 15.94 8.24 15.94 7.05V3C15.94 1.81 14.97 0.839996 13.78 0.839996H9.73001C8.54001 0.839996 7.57001 1.81 7.57001 3V7.05C7.57001 8.24 8.54001 9.21001 9.73001 9.21001" fill="#D6D8D5"/>
<path d="M13.8 4.00001H13.86C14.4 4.00001 14.84 3.56001 14.84 3.02001V2.96001C14.84 2.42001 14.4 1.98001 13.86 1.98001H13.8C13.26 1.98001 12.82 2.42001 12.82 2.96001V3.02001C12.82 3.56001 13.26 4.00001 13.8 4.00001Z" fill="#7C7B79"/>
<path d="M10.02 4.06001H10.08C10.62 4.06001 11.06 3.62001 11.06 3.08001V3.02001C11.06 2.48001 10.62 2.04001 10.08 2.04001H10.02C9.48 2.04001 9.04001 2.48001 9.04001 3.02001V3.08001C9.05001 3.62001 9.49 4.06001 10.02 4.06001Z" fill="#7C7B79"/>
<path d="M10.15 7.71001H10.21C10.75 7.71001 11.19 7.27 11.19 6.73V6.67C11.19 6.13 10.75 5.69 10.21 5.69H10.15C9.61002 5.69 9.17001 6.13 9.17001 6.67V6.73C9.17001 7.27 9.61002 7.71001 10.15 7.71001Z" fill="#7C7B79"/>
<path d="M13.83 7.64999H13.89C14.43 7.64999 14.87 7.21 14.87 6.67V6.61C14.87 6.07 14.43 5.63 13.89 5.63H13.83C13.29 5.63 12.85 6.07 12.85 6.61V6.67C12.85 7.21 13.29 7.64999 13.83 7.64999Z" fill="#7C7B79"/>
<path d="M12.46 4.57001C12.37 4.44001 12.22 4.34 12.04 4.34H12.01C11.87 4.34 11.75 4.4 11.66 4.48L0.380005 2.84L0.350006 3.52L11.57 5.14999C11.66 5.29999 11.82 5.41 12.01 5.41H12.04C12.19 5.41 12.33 5.34001 12.42 5.24001L23.46 5.95L23.49 5.28L12.46 4.57001Z" fill="#7C7B79"/>
</svg>
