<svg width="18" height="9" viewBox="0 0 18 9" fill="none" xmlns="http://www.w3.org/2000/svg">
<path d="M10.1 8.39001C11.29 8.39001 12.26 7.42001 12.26 6.23001V2.18001C12.26 0.990008 11.29 0.0200195 10.1 0.0200195H6.05002C4.86002 0.0200195 3.89001 0.990008 3.89001 2.18001V6.23001C3.89001 7.42001 4.86002 8.39001 6.05002 8.39001" fill="#D6D8D5"/>
<path d="M10.11 3.18002H10.17C10.71 3.18002 11.15 2.74003 11.15 2.20003V2.14003C11.15 1.60003 10.71 1.16003 10.17 1.16003H10.11C9.57 1.16003 9.13 1.60003 9.13 2.14003V2.20003C9.14 2.74003 9.57 3.18002 10.11 3.18002Z" fill="#7C7B79"/>
<path d="M6.33998 3.24004H6.39998C6.93998 3.24004 7.37999 2.80002 7.37999 2.26003V2.20003C7.37999 1.66003 6.93998 1.22003 6.39998 1.22003H6.33998C5.79998 1.22003 5.35999 1.66003 5.35999 2.20003V2.26003C5.36999 2.80002 5.79998 3.24004 6.33998 3.24004Z" fill="#7C7B79"/>
<path d="M6.45999 6.89H6.51999C7.05999 6.89 7.49998 6.45 7.49998 5.91V5.85001C7.49998 5.31001 7.05999 4.87 6.51999 4.87H6.45999C5.91999 4.87 5.47998 5.31001 5.47998 5.85001V5.91C5.48998 6.45 5.91999 6.89 6.45999 6.89Z" fill="#7C7B79"/>
<path d="M10.14 6.83H10.2C10.74 6.83 11.18 6.39001 11.18 5.85001V5.78999C11.18 5.24999 10.74 4.81 10.2 4.81H10.14C9.6 4.81 9.16 5.24999 9.16 5.78999V5.85001C9.17 6.39001 9.6 6.83 10.14 6.83Z" fill="#7C7B79"/>
<path d="M8.78 3.74002C8.69 3.61002 8.54 3.52002 8.37 3.52002H8.34C8.19 3.52002 8.05001 3.59002 7.96001 3.69002L0.149994 3.14001L0.130005 3.81001L7.92 4.36002C8.01 4.50002 8.16 4.59001 8.34 4.59001H8.37C8.52999 4.59001 8.65999 4.52002 8.75999 4.41002L17.17 4.85002L17.19 4.18001L8.78 3.74002Z" fill="#7C7B79"/>
</svg>
