<svg width="18" height="10" viewBox="0 0 18 10" fill="none" xmlns="http://www.w3.org/2000/svg">
<path d="M11.5 9.33997C12.69 9.33997 13.66 8.36996 13.66 7.17996V3.12997C13.66 1.93997 12.69 0.969971 11.5 0.969971H7.45001C6.26001 0.969971 5.29001 1.93997 5.29001 3.12997V7.17996C5.29001 8.36996 6.26001 9.33997 7.45001 9.33997" fill="#D6D8D5"/>
<path d="M11.51 4.12999H11.57C12.11 4.12999 12.55 3.68998 12.55 3.14998V3.08998C12.55 2.54998 12.11 2.10999 11.57 2.10999H11.51C10.97 2.10999 10.53 2.54998 10.53 3.08998V3.14998C10.54 3.68998 10.97 4.12999 11.51 4.12999Z" fill="#7C7B79"/>
<path d="M7.74002 4.18999H7.80002C8.34002 4.18999 8.78001 3.74999 8.78001 3.20999V3.14998C8.78001 2.60998 8.34002 2.16998 7.80002 2.16998H7.74002C7.20002 2.16998 6.76001 2.60998 6.76001 3.14998V3.20999C6.77001 3.74999 7.20002 4.18999 7.74002 4.18999Z" fill="#7C7B79"/>
<path d="M7.86 7.84H7.92C8.46 7.84 8.89999 7.4 8.89999 6.86V6.8C8.89999 6.26 8.46 5.82001 7.92 5.82001H7.86C7.32 5.82001 6.88 6.26 6.88 6.8V6.86C6.89 7.4 7.32 7.84 7.86 7.84Z" fill="#7C7B79"/>
<path d="M11.54 7.78001H11.6C12.14 7.78001 12.58 7.34002 12.58 6.80002V6.74002C12.58 6.20002 12.14 5.76001 11.6 5.76001H11.54C11 5.76001 10.56 6.20002 10.56 6.74002V6.80002C10.57 7.34002 11 7.78001 11.54 7.78001Z" fill="#7C7B79"/>
<path d="M10.2 4.74001C10.11 4.59001 9.94999 4.48 9.75999 4.48H9.73C9.57 4.48 9.44 4.55 9.34 4.66L0.169998 4.19L0.149994 4.86L9.31 5.33C9.4 5.46 9.55 5.55 9.72 5.55H9.75C9.89 5.55 10.01 5.49 10.1 5.41L17.85 6.53999L17.98 5.88L10.2 4.74001Z" fill="#7C7B79"/>
</svg>
