<svg width="19" height="9" viewBox="0 0 19 9" fill="none" xmlns="http://www.w3.org/2000/svg">
<path d="M11.43 8.81C12.62 8.81 13.59 7.83999 13.59 6.64999V2.60001C13.59 1.41001 12.62 0.440002 11.43 0.440002H7.38C6.19 0.440002 5.22 1.41001 5.22 2.60001V6.64999C5.22 7.83999 6.19 8.81 7.38 8.81" fill="#D6D8D5"/>
<path d="M11.45 3.60002H11.51C12.05 3.60002 12.49 3.16001 12.49 2.62001V2.56001C12.49 2.02001 12.05 1.58002 11.51 1.58002H11.45C10.91 1.58002 10.47 2.02001 10.47 2.56001V2.62001C10.47 3.16001 10.91 3.60002 11.45 3.60002Z" fill="#7C7B79"/>
<path d="M7.68001 3.66002H7.74002C8.28002 3.66002 8.72002 3.22001 8.72002 2.68001V2.62001C8.72002 2.08001 8.28002 1.64001 7.74002 1.64001H7.68001C7.14001 1.64001 6.70001 2.08001 6.70001 2.62001V2.68001C6.70001 3.22001 7.14001 3.66002 7.68001 3.66002Z" fill="#7C7B79"/>
<path d="M7.8 7.30998H7.86C8.4 7.30998 8.84 6.86999 8.84 6.32999V6.26999C8.84 5.72999 8.4 5.28998 7.86 5.28998H7.8C7.26 5.28998 6.82001 5.72999 6.82001 6.26999V6.32999C6.82001 6.86999 7.26 7.30998 7.8 7.30998Z" fill="#7C7B79"/>
<path d="M11.48 7.24998H11.54C12.08 7.24998 12.52 6.80999 12.52 6.26999V6.20999C12.52 5.66999 12.08 5.22998 11.54 5.22998H11.48C10.94 5.22998 10.5 5.66999 10.5 6.20999V6.26999C10.5 6.80999 10.94 7.24998 11.48 7.24998Z" fill="#7C7B79"/>
<path d="M10.08 4.12C9.97999 4.01 9.84999 3.94 9.68999 3.94H9.65999C9.51999 3.94 9.39998 4 9.30998 4.08L0.98999 2.87L0.859985 3.53L9.21999 4.75C9.30999 4.9 9.46999 5.00999 9.65999 5.00999H9.68999C9.85999 5.00999 10.01 4.91999 10.11 4.78999L18.07 4.36L18.09 3.67999L10.08 4.12Z" fill="#7C7B79"/>
</svg>
