<svg width="18" height="9" viewBox="0 0 18 9" fill="none" xmlns="http://www.w3.org/2000/svg">
<path d="M11.55 8.82996C12.74 8.82996 13.71 7.85995 13.71 6.66995V2.61995C13.71 1.42995 12.74 0.459961 11.55 0.459961H7.5C6.31 0.459961 5.34 1.42995 5.34 2.61995V6.66995C5.34 7.85995 6.31 8.82996 7.5 8.82996" fill="#D6D8D5"/>
<path d="M11.56 3.61996H11.62C12.16 3.61996 12.6 3.17997 12.6 2.63997V2.57997C12.6 2.03997 12.16 1.59998 11.62 1.59998H11.56C11.02 1.59998 10.58 2.03997 10.58 2.57997V2.63997C10.59 3.17997 11.02 3.61996 11.56 3.61996Z" fill="#7C7B79"/>
<path d="M7.78999 3.67996H7.85001C8.39001 3.67996 8.83 3.23997 8.83 2.69997V2.63997C8.83 2.09997 8.39001 1.65997 7.85001 1.65997H7.78999C7.24999 1.65997 6.81 2.09997 6.81 2.63997V2.69997C6.82 3.23997 7.24999 3.67996 7.78999 3.67996Z" fill="#7C7B79"/>
<path d="M9.78001 5.03996H9.81001C10.1 5.03996 10.33 4.80997 10.33 4.51997V4.48997C10.33 4.19997 10.1 3.96997 9.81001 3.96997H9.78001C9.49001 3.96997 9.26001 4.19997 9.26001 4.48997V4.51997C9.26001 4.79997 9.49001 5.03996 9.78001 5.03996Z" fill="#7C7B79"/>
<path d="M7.91 7.32994H7.97C8.51 7.32994 8.95 6.88995 8.95 6.34995V6.28993C8.95 5.74993 8.51 5.30994 7.97 5.30994H7.91C7.37 5.30994 6.92999 5.74993 6.92999 6.28993V6.34995C6.93999 6.88995 7.37 7.32994 7.91 7.32994Z" fill="#7C7B79"/>
<path d="M11.59 7.27H11.65C12.19 7.27 12.63 6.82999 12.63 6.28999V6.23C12.63 5.69 12.19 5.25 11.65 5.25H11.59C11.05 5.25 10.61 5.69 10.61 6.23V6.28999C10.62 6.82999 11.05 7.27 11.59 7.27Z" fill="#7C7B79"/>
<path d="M9.84 4.16997L9.81 4.15997L0.0899963 4.68997L0.0700073 5.35997L9.78999 4.83997L17.13 5.69997L17.15 5.02997L9.84 4.16997Z" fill="#7C7B79"/>
</svg>
