<svg width="17" height="9" viewBox="0 0 17 9" fill="none" xmlns="http://www.w3.org/2000/svg">
<path d="M11.31 8.81C12.5 8.81 13.47 7.83999 13.47 6.64999V2.60001C13.47 1.41001 12.5 0.440002 11.31 0.440002H7.26003C6.07002 0.440002 5.10004 1.41001 5.10004 2.60001V6.64999C5.10004 7.83999 6.07002 8.81 7.26003 8.81" fill="#D6D8D5"/>
<path d="M11.32 3.60002H11.38C11.92 3.60002 12.36 3.16001 12.36 2.62001V2.56001C12.36 2.02001 11.92 1.58002 11.38 1.58002H11.32C10.78 1.58002 10.34 2.02001 10.34 2.56001V2.62001C10.35 3.16001 10.78 3.60002 11.32 3.60002Z" fill="#7C7B79"/>
<path d="M7.55 3.66002H7.61C8.15 3.66002 8.59 3.22001 8.59 2.68001V2.62001C8.59 2.08001 8.15 1.64001 7.61 1.64001H7.55C7.01 1.64001 6.57001 2.08001 6.57001 2.62001V2.68001C6.58001 3.22001 7.01 3.66002 7.55 3.66002Z" fill="#7C7B79"/>
<path d="M7.67 7.30998H7.73C8.27 7.30998 8.71001 6.86999 8.71001 6.32999V6.26999C8.71001 5.72999 8.27 5.28998 7.73 5.28998H7.67C7.13 5.28998 6.69 5.72999 6.69 6.26999V6.32999C6.7 6.86999 7.13 7.30998 7.67 7.30998Z" fill="#7C7B79"/>
<path d="M11.35 7.24998H11.41C11.95 7.24998 12.39 6.80999 12.39 6.26999V6.20999C12.39 5.66999 11.95 5.22998 11.41 5.22998H11.35C10.81 5.22998 10.37 5.66999 10.37 6.20999V6.26999C10.38 6.80999 10.81 7.24998 11.35 7.24998Z" fill="#7C7B79"/>
<path d="M9.97 4.14001C9.87 4.02001 9.73001 3.94002 9.57001 3.94002H9.53999C9.39999 3.94002 9.27 4.00001 9.17 4.09001L0.139999 3.02002L0.119995 3.70001L9.10001 4.76001C9.19001 4.91001 9.35 5.01001 9.53 5.01001H9.56C9.72 5.01001 9.86001 4.93001 9.96001 4.81001H16.11L16.13 4.14001H9.97Z" fill="#7C7B79"/>
</svg>
