<svg width="17" height="9" viewBox="0 0 17 9" fill="none" xmlns="http://www.w3.org/2000/svg">
<path d="M5.73 8.90002C4.54 8.90002 3.57001 7.93004 3.57001 6.74004V2.69003C3.57001 1.50003 4.54 0.530029 5.73 0.530029H9.78C10.97 0.530029 11.94 1.50003 11.94 2.69003V6.74004C11.94 7.93004 10.97 8.90002 9.78 8.90002" fill="#D6D8D5"/>
<path d="M5.70999 3.69005H5.64998C5.10998 3.69005 4.66998 3.25005 4.66998 2.71005V2.65004C4.66998 2.11004 5.10998 1.67004 5.64998 1.67004H5.70999C6.24999 1.67004 6.68999 2.11004 6.68999 2.65004V2.71005C6.68999 3.25005 6.24999 3.69005 5.70999 3.69005Z" fill="#7C7B79"/>
<path d="M9.48 3.75005H9.42C8.88 3.75005 8.44 3.31005 8.44 2.77005V2.71005C8.44 2.17005 8.88 1.73004 9.42 1.73004H9.48C10.02 1.73004 10.46 2.17005 10.46 2.71005V2.77005C10.46 3.31005 10.02 3.75005 9.48 3.75005Z" fill="#7C7B79"/>
<path d="M9.36 7.39999H9.3C8.76 7.39999 8.32001 6.96 8.32001 6.42V6.36C8.32001 5.82 8.76 5.38 9.3 5.38H9.36C9.9 5.38 10.34 5.82 10.34 6.36V6.42C10.34 6.96 9.9 7.39999 9.36 7.39999Z" fill="#7C7B79"/>
<path d="M5.68001 7.34006H5.62001C5.08001 7.34006 4.64001 6.90006 4.64001 6.36006V6.30006C4.64001 5.76006 5.08001 5.32007 5.62001 5.32007H5.68001C6.22001 5.32007 6.66002 5.76006 6.66002 6.30006V6.36006C6.66002 6.90006 6.22001 7.34006 5.68001 7.34006Z" fill="#7C7B79"/>
<path d="M7.75 4.11006C7.67 4.07006 7.59 4.04005 7.5 4.04005H7.47C7.35 4.04005 7.25 4.09005 7.16 4.15005H0.149994L0.130005 4.82007H7C7.09 4.99007 7.26001 5.11006 7.46001 5.11006H7.49001C7.72001 5.11006 7.9 4.96006 7.98 4.76006L16.12 3.75006L16.14 3.07007L7.75 4.11006Z" fill="#7C7B79"/>
</svg>
