<svg width="18" height="9" viewBox="0 0 18 9" fill="none" xmlns="http://www.w3.org/2000/svg">
<path d="M5.85999 8.82996C4.66999 8.82996 3.70001 7.85995 3.70001 6.66995V2.61995C3.70001 1.42995 4.66999 0.459961 5.85999 0.459961H9.91C11.1 0.459961 12.07 1.42995 12.07 2.61995V6.66995C12.07 7.85995 11.1 8.82996 9.91 8.82996" fill="#D6D8D5"/>
<path d="M5.84 3.61996H5.78C5.24 3.61996 4.79999 3.17997 4.79999 2.63997V2.57997C4.79999 2.03997 5.24 1.59998 5.78 1.59998H5.84C6.38 1.59998 6.82001 2.03997 6.82001 2.57997V2.63997C6.82001 3.17997 6.38 3.61996 5.84 3.61996Z" fill="#7C7B79"/>
<path d="M9.60999 3.67996H9.54999C9.00999 3.67996 8.57001 3.23997 8.57001 2.69997V2.63997C8.57001 2.09997 9.00999 1.65997 9.54999 1.65997H9.60999C10.15 1.65997 10.59 2.09997 10.59 2.63997V2.69997C10.59 3.23997 10.15 3.67996 9.60999 3.67996Z" fill="#7C7B79"/>
<path d="M9.48999 7.32994H9.42999C8.88999 7.32994 8.45001 6.88995 8.45001 6.34995V6.28993C8.45001 5.74993 8.88999 5.30994 9.42999 5.30994H9.48999C10.03 5.30994 10.47 5.74993 10.47 6.28993V6.34995C10.47 6.88995 10.03 7.32994 9.48999 7.32994Z" fill="#7C7B79"/>
<path d="M5.81 7.27H5.75C5.21 7.27 4.76999 6.82999 4.76999 6.28999V6.23C4.76999 5.69 5.21 5.25 5.75 5.25H5.81C6.35 5.25 6.79001 5.69 6.79001 6.23V6.28999C6.79001 6.82999 6.35 7.27 5.81 7.27Z" fill="#7C7B79"/>
<path d="M8.06 4.20996C7.97 4.05996 7.81 3.95996 7.63 3.95996H7.60001C7.42001 3.95996 7.26999 4.04996 7.17999 4.18996L0.149994 5.05995L0.130005 5.73996L7.22 4.85995C7.32 4.95995 7.45001 5.02995 7.60001 5.02995H7.63C7.77 5.02995 7.9 4.96996 8 4.87996L17.1 5.64995L17.12 4.97995L8.06 4.20996Z" fill="#7C7B79"/>
</svg>
