<svg width="19" height="9" viewBox="0 0 19 9" fill="none" xmlns="http://www.w3.org/2000/svg">
<path d="M7.06 8.39001C5.87 8.39001 4.89999 7.42001 4.89999 6.23001V2.18001C4.89999 0.990008 5.87 0.0200195 7.06 0.0200195H11.11C12.3 0.0200195 13.27 0.990008 13.27 2.18001V6.23001C13.27 7.42001 12.3 8.39001 11.11 8.39001" fill="#D6D8D5"/>
<path d="M7.04001 3.18002H6.98001C6.44001 3.18002 6 2.74003 6 2.20003V2.14003C6 1.60003 6.44001 1.16003 6.98001 1.16003H7.04001C7.58001 1.16003 8.01999 1.60003 8.01999 2.14003V2.20003C8.01999 2.74003 7.58001 3.18002 7.04001 3.18002Z" fill="#7C7B79"/>
<path d="M10.81 3.24004H10.75C10.21 3.24004 9.76999 2.80002 9.76999 2.26003V2.20003C9.76999 1.66003 10.21 1.22003 10.75 1.22003H10.81C11.35 1.22003 11.79 1.66003 11.79 2.20003V2.26003C11.79 2.81002 11.35 3.24004 10.81 3.24004Z" fill="#7C7B79"/>
<path d="M10.69 6.89H10.63C10.09 6.89 9.64999 6.45 9.64999 5.91V5.85001C9.64999 5.31001 10.09 4.87 10.63 4.87H10.69C11.23 4.87 11.67 5.31001 11.67 5.85001V5.91C11.67 6.45 11.23 6.89 10.69 6.89Z" fill="#7C7B79"/>
<path d="M7.01001 6.83H6.95001C6.41001 6.83 5.97 6.39001 5.97 5.85001V5.78999C5.97 5.24999 6.41001 4.81 6.95001 4.81H7.01001C7.55001 4.81 7.98999 5.24999 7.98999 5.78999V5.85001C7.98999 6.39001 7.55001 6.83 7.01001 6.83Z" fill="#7C7B79"/>
<path d="M9.14001 3.64998C9.05001 3.57998 8.94001 3.52998 8.82001 3.52998H8.79001C8.65001 3.52998 8.51999 3.58998 8.42999 3.67998L0.119995 2.97998L0.100006 3.64998L8.35999 4.34999C8.44999 4.49999 8.60999 4.59999 8.79999 4.59999H8.82999C9.03999 4.59999 9.21001 4.47998 9.29001 4.30998L18.37 2.72998L18.39 2.03998L9.14001 3.64998Z" fill="#7C7B79"/>
</svg>
