<svg width="19" height="10" viewBox="0 0 19 10" fill="none" xmlns="http://www.w3.org/2000/svg">
<path d="M6.51001 9.29994C5.32001 9.29994 4.35001 8.32994 4.35001 7.13994V3.08994C4.35001 1.89994 5.32001 0.929932 6.51001 0.929932H10.56C11.75 0.929932 12.72 1.89994 12.72 3.08994V7.13994C12.72 8.32994 11.75 9.29994 10.56 9.29994" fill="#D6D8D5"/>
<path d="M6.5 4.07994H6.44C5.9 4.07994 5.45999 3.63995 5.45999 3.09995V3.03993C5.45999 2.49993 5.9 2.05994 6.44 2.05994H6.5C7.04 2.05994 7.48001 2.49993 7.48001 3.03993V3.09995C7.47001 3.64995 7.03 4.07994 6.5 4.07994Z" fill="#7C7B79"/>
<path d="M10.27 4.14999H10.21C9.66999 4.14999 9.23001 3.71 9.23001 3.17V3.11C9.23001 2.57 9.66999 2.13 10.21 2.13H10.27C10.81 2.13 11.25 2.57 11.25 3.11V3.17C11.24 3.71 10.8 4.14999 10.27 4.14999Z" fill="#7C7B79"/>
<path d="M10.14 7.78995H10.08C9.53999 7.78995 9.10001 7.34995 9.10001 6.80995V6.74995C9.10001 6.20995 9.53999 5.76996 10.08 5.76996H10.14C10.68 5.76996 11.12 6.20995 11.12 6.74995V6.80995C11.12 7.35995 10.68 7.78995 10.14 7.78995Z" fill="#7C7B79"/>
<path d="M6.45999 7.72995H6.39999C5.85999 7.72995 5.42001 7.28995 5.42001 6.74995V6.68996C5.42001 6.14996 5.85999 5.70996 6.39999 5.70996H6.45999C6.99999 5.70996 7.44 6.14996 7.44 6.68996V6.74995C7.44 7.29995 6.99999 7.72995 6.45999 7.72995Z" fill="#7C7B79"/>
<path d="M8.69 4.63998C8.6 4.50998 8.45 4.42998 8.28 4.42998H8.25C8.03 4.42998 7.84999 4.55998 7.76999 4.74998L0.390015 6.03998L0.369995 6.72998L7.95999 5.40999C8.03999 5.46999 8.14 5.50998 8.25 5.50998H8.28C8.44 5.50998 8.57001 5.43999 8.67001 5.32999L18.09 4.90999L18.11 4.23999L8.69 4.63998Z" fill="#7C7B79"/>
</svg>
