<svg width="18" height="9" viewBox="0 0 18 9" fill="none" xmlns="http://www.w3.org/2000/svg">
<path d="M6.76001 8.47998C5.57001 8.47998 4.60001 7.50999 4.60001 6.31999V2.26999C4.60001 1.07999 5.57001 0.109985 6.76001 0.109985H10.81C12 0.109985 12.97 1.07999 12.97 2.26999V6.31999C12.97 7.50999 12 8.47998 10.81 8.47998" fill="#D6D8D5"/>
<path d="M6.75 3.27H6.69C6.15 3.27 5.70999 2.82999 5.70999 2.28999V2.23C5.70999 1.69 6.15 1.25 6.69 1.25H6.75C7.29 1.25 7.73001 1.69 7.73001 2.23V2.28999C7.72001 2.82999 7.29 3.27 6.75 3.27Z" fill="#7C7B79"/>
<path d="M10.52 3.33H10.46C9.91999 3.33 9.48001 2.89001 9.48001 2.35001V2.28999C9.48001 1.74999 9.91999 1.31 10.46 1.31H10.52C11.06 1.31 11.5 1.74999 11.5 2.28999V2.35001C11.49 2.89001 11.06 3.33 10.52 3.33Z" fill="#7C7B79"/>
<path d="M10.4 6.96996H10.34C9.8 6.96996 9.35999 6.52996 9.35999 5.98996V5.92995C9.35999 5.38995 9.8 4.94995 10.34 4.94995H10.4C10.94 4.94995 11.38 5.38995 11.38 5.92995V5.99995C11.37 6.53995 10.93 6.96996 10.4 6.96996Z" fill="#7C7B79"/>
<path d="M6.72 6.91997H6.66C6.12 6.91997 5.67999 6.47997 5.67999 5.93997V5.87997C5.67999 5.33997 6.12 4.89996 6.66 4.89996H6.72C7.26 4.89996 7.70001 5.33997 7.70001 5.87997V5.93997C7.69001 6.47997 7.25 6.91997 6.72 6.91997Z" fill="#7C7B79"/>
<path d="M8.95001 3.83998C8.86001 3.70998 8.71 3.60999 8.53 3.60999H8.5C8.31 3.60999 8.16 3.70999 8.06 3.85999L0.109985 4.21999L0.0899963 4.88998L8.13 4.52998C8.22001 4.61998 8.34999 4.67998 8.48999 4.67998H8.51999C8.66999 4.67998 8.80999 4.60998 8.89999 4.50998L17.03 4.31999L17.05 3.64998L8.95001 3.83998Z" fill="#7C7B79"/>
</svg>
