<svg width="26" height="9" viewBox="0 0 26 9" fill="none" xmlns="http://www.w3.org/2000/svg">
<path d="M15.22 8.78C16.41 8.78 17.38 7.81 17.38 6.62V2.57001C17.38 1.38001 16.41 0.410004 15.22 0.410004H11.17C9.98001 0.410004 9.01001 1.38001 9.01001 2.57001V6.62C9.01001 7.81 9.98001 8.78 11.17 8.78" fill="#D6D8D5"/>
<path d="M15.23 3.56999H15.29C15.83 3.56999 16.27 3.12998 16.27 2.58998V2.52998C16.27 1.98998 15.83 1.54999 15.29 1.54999H15.23C14.69 1.54999 14.25 1.98998 14.25 2.52998V2.58998C14.26 3.12998 14.7 3.56999 15.23 3.56999Z" fill="#7C7B79"/>
<path d="M11.46 3.62999H11.52C12.06 3.62999 12.5 3.18998 12.5 2.64998V2.58998C12.5 2.04998 12.06 1.60999 11.52 1.60999H11.46C10.92 1.60999 10.48 2.04998 10.48 2.58998V2.64998C10.49 3.18998 10.93 3.62999 11.46 3.62999Z" fill="#7C7B79"/>
<path d="M11.59 7.28001H11.65C12.19 7.28001 12.63 6.84002 12.63 6.30002V6.24002C12.63 5.70002 12.19 5.26001 11.65 5.26001H11.59C11.05 5.26001 10.61 5.70002 10.61 6.24002V6.30002C10.61 6.84002 11.05 7.28001 11.59 7.28001Z" fill="#7C7B79"/>
<path d="M15.27 7.22002H15.33C15.87 7.22002 16.31 6.78002 16.31 6.24002V6.18001C16.31 5.64001 15.87 5.20001 15.33 5.20001H15.27C14.73 5.20001 14.29 5.64001 14.29 6.18001V6.24002C14.29 6.78002 14.73 7.22002 15.27 7.22002Z" fill="#7C7B79"/>
<path d="M13.94 4.18999C13.85 4.01999 13.68 3.90999 13.48 3.90999H13.45C13.3 3.90999 13.16 3.97999 13.07 4.07999L0.5 3.26999L0.470001 3.93999L13.03 4.74998C13.12 4.87998 13.27 4.97998 13.45 4.97998H13.48C13.61 4.97998 13.72 4.92999 13.81 4.84999L25.41 7.00998L25.44 6.32999L13.94 4.18999Z" fill="#7C7B79"/>
</svg>
