<svg width="30" height="9" viewBox="0 0 30 9" fill="none" xmlns="http://www.w3.org/2000/svg">
<path d="M12.63 9C11.44 9 10.47 8.03 10.47 6.84V2.78999C10.47 1.59999 11.44 0.630005 12.63 0.630005H16.68C17.87 0.630005 18.84 1.59999 18.84 2.78999V6.84C18.84 8.03 17.87 9 16.68 9" fill="#D6D8D5"/>
<path d="M12.61 3.79001H12.55C12.01 3.79001 11.57 3.35001 11.57 2.81001V2.75002C11.57 2.21002 12.01 1.77002 12.55 1.77002H12.61C13.15 1.77002 13.59 2.21002 13.59 2.75002V2.81001C13.59 3.35001 13.15 3.79001 12.61 3.79001Z" fill="#7C7B79"/>
<path d="M16.38 3.85002H16.32C15.78 3.85002 15.34 3.41001 15.34 2.87001V2.81001C15.34 2.27001 15.78 1.83002 16.32 1.83002H16.38C16.92 1.83002 17.36 2.27001 17.36 2.81001V2.87001C17.36 3.41001 16.92 3.85002 16.38 3.85002Z" fill="#7C7B79"/>
<path d="M16.26 7.49998H16.2C15.66 7.49998 15.22 7.05999 15.22 6.51999V6.45999C15.22 5.91999 15.66 5.47998 16.2 5.47998H16.26C16.8 5.47998 17.24 5.91999 17.24 6.45999V6.51999C17.24 7.05999 16.8 7.49998 16.26 7.49998Z" fill="#7C7B79"/>
<path d="M12.58 7.43999H12.52C11.98 7.43999 11.54 6.99999 11.54 6.45999V6.39998C11.54 5.85998 11.98 5.41998 12.52 5.41998H12.58C13.12 5.41998 13.56 5.85998 13.56 6.39998V6.45999C13.56 6.99999 13.12 7.43999 12.58 7.43999Z" fill="#7C7B79"/>
<path d="M14.75 4.28001C14.66 4.19001 14.53 4.13002 14.39 4.13002H14.36C14.2 4.13002 14.06 4.21002 13.97 4.32002L0.0700073 4.65001L0.0499878 5.32002L13.96 4.99002C14.06 5.11002 14.2 5.20001 14.37 5.20001H14.4C14.59 5.20001 14.75 5.09002 14.84 4.94002L29.04 3.69002L29.06 3.01001L14.75 4.28001Z" fill="#7C7B79"/>
</svg>
