<svg width="26" height="9" viewBox="0 0 26 9" fill="none" xmlns="http://www.w3.org/2000/svg">
<path d="M9.23996 8.72998C8.04996 8.72998 7.07996 7.75999 7.07996 6.56999V2.51999C7.07996 1.32999 8.04996 0.359985 9.23996 0.359985H13.29C14.48 0.359985 15.45 1.32999 15.45 2.51999V6.56999C15.45 7.75999 14.48 8.72998 13.29 8.72998" fill="#D6D8D5"/>
<path d="M9.23001 3.52H9.17001C8.63001 3.52 8.19 3.07999 8.19 2.53999V2.48C8.19 1.94 8.63001 1.5 9.17001 1.5H9.23001C9.77001 1.5 10.21 1.94 10.21 2.48V2.53999C10.2 3.07999 9.76001 3.52 9.23001 3.52Z" fill="#7C7B79"/>
<path d="M13 3.58H12.94C12.4 3.58 11.96 3.14001 11.96 2.60001V2.53999C11.96 1.99999 12.4 1.56 12.94 1.56H13C13.54 1.56 13.98 1.99999 13.98 2.53999V2.60001C13.97 3.14001 13.53 3.58 13 3.58Z" fill="#7C7B79"/>
<path d="M12.87 7.23001H12.81C12.27 7.23001 11.83 6.79002 11.83 6.25002V6.19002C11.83 5.65002 12.27 5.21002 12.81 5.21002H12.87C13.41 5.21002 13.85 5.65002 13.85 6.19002V6.25002C13.85 6.79002 13.41 7.23001 12.87 7.23001Z" fill="#7C7B79"/>
<path d="M9.19003 7.17003H9.13004C8.59004 7.17003 8.15002 6.73003 8.15002 6.19003V6.13004C8.15002 5.59004 8.59004 5.15002 9.13004 5.15002H9.19003C9.73003 5.15002 10.17 5.59004 10.17 6.13004V6.19003C10.17 6.73003 9.73003 7.17003 9.19003 7.17003Z" fill="#7C7B79"/>
<path d="M11.31 3.97003C11.22 3.91003 11.12 3.86003 11.01 3.86003H10.98C10.8 3.86003 10.65 3.96004 10.55 4.10004L0.0499878 5.02003L0.0299988 5.70003L10.6 4.77003C10.69 4.87003 10.83 4.93002 10.97 4.93002H11C11.21 4.93002 11.4 4.80003 11.48 4.62003L25.01 1.36003L25.03 0.660034L11.31 3.97003Z" fill="#7C7B79"/>
</svg>
