<svg width="14" height="8" viewBox="0 0 14 8" fill="none" xmlns="http://www.w3.org/2000/svg">
<path d="M8.62997 7.23997C7.60997 7.23997 6.77997 6.40997 6.77997 5.38997V1.93997C6.77997 0.919972 7.60997 0.0899658 8.62997 0.0899658H12.08C13.1 0.0899658 13.93 0.919972 13.93 1.93997V5.38997C13.93 6.40997 13.1 7.23997 12.08 7.23997" fill="#D6D8D5"/>
<path d="M8.62 2.79001H8.57001C8.11001 2.79001 7.73999 2.42002 7.73999 1.96002V1.91002C7.73999 1.45002 8.11001 1.08002 8.57001 1.08002H8.62C9.08 1.08002 9.45001 1.45002 9.45001 1.91002V1.96002C9.45001 2.42002 9.08 2.79001 8.62 2.79001Z" fill="#7C7B79"/>
<path d="M11.84 2.85002H11.79C11.33 2.85002 10.96 2.48002 10.96 2.02002V1.97002C10.96 1.51002 11.33 1.14001 11.79 1.14001H11.84C12.3 1.14001 12.67 1.51002 12.67 1.97002V2.02002C12.67 2.47002 12.3 2.85002 11.84 2.85002Z" fill="#7C7B79"/>
<path d="M11.73 5.96001H11.68C11.22 5.96001 10.85 5.59 10.85 5.13V5.08C10.85 4.62 11.22 4.25 11.68 4.25H11.73C12.19 4.25 12.56 4.62 12.56 5.08V5.13C12.56 5.59 12.19 5.96001 11.73 5.96001Z" fill="#7C7B79"/>
<path d="M8.58997 5.91002H8.53998C8.07998 5.91002 7.70996 5.54002 7.70996 5.08002V5.03001C7.70996 4.57001 8.07998 4.20001 8.53998 4.20001H8.58997C9.04997 4.20001 9.41998 4.57001 9.41998 5.03001V5.08002C9.41998 5.53002 9.04997 5.91002 8.58997 5.91002Z" fill="#7C7B79"/>
<path d="M10.14 3.08997H10.11C9.93999 3.08997 9.79 3.18997 9.72 3.33997L0.0299988 5.66997L0.0100098 6.36996L9.95999 3.97997C10.01 3.99997 10.06 4.00996 10.12 4.00996H10.15C10.4 4.00996 10.59 3.80998 10.59 3.56998V3.53996C10.58 3.28996 10.38 3.08997 10.14 3.08997Z" fill="#7C7B79"/>
</svg>
