<svg width="19" height="9" viewBox="0 0 19 9" fill="none" xmlns="http://www.w3.org/2000/svg">
<path d="M11.11 8.66002C12.3 8.66002 13.27 7.69002 13.27 6.50002V2.45001C13.27 1.26001 12.3 0.290009 11.11 0.290009H7.05997C5.86997 0.290009 4.89996 1.26001 4.89996 2.45001V6.50002C4.89996 7.69002 5.86997 8.66002 7.05997 8.66002" fill="#D6D8D5"/>
<path d="M11.13 3.45H11.19C11.73 3.45 12.17 3.01 12.17 2.47V2.41C12.17 1.87 11.73 1.42999 11.19 1.42999H11.13C10.59 1.42999 10.15 1.87 10.15 2.41V2.47C10.15 3.01 10.59 3.45 11.13 3.45Z" fill="#7C7B79"/>
<path d="M7.35997 3.51001H7.41997C7.95997 3.51001 8.39996 3.07001 8.39996 2.53001V2.47002C8.39996 1.93002 7.95997 1.49002 7.41997 1.49002H7.35997C6.81997 1.49002 6.37997 1.93002 6.37997 2.47002V2.53001C6.37997 3.08001 6.81997 3.51001 7.35997 3.51001Z" fill="#7C7B79"/>
<path d="M7.47997 7.16002H7.53996C8.07996 7.16002 8.51997 6.72001 8.51997 6.18001V6.12001C8.51997 5.58001 8.07996 5.14001 7.53996 5.14001H7.47997C6.93997 5.14001 6.49997 5.58001 6.49997 6.12001V6.18001C6.49997 6.72001 6.93997 7.16002 7.47997 7.16002Z" fill="#7C7B79"/>
<path d="M11.16 7.10002H11.22C11.76 7.10002 12.2 6.66001 12.2 6.12001V6.06001C12.2 5.52001 11.76 5.08002 11.22 5.08002H11.16C10.62 5.08002 10.18 5.52001 10.18 6.06001V6.12001C10.18 6.66001 10.62 7.10002 11.16 7.10002Z" fill="#7C7B79"/>
<path d="M9.81 4.05C9.72 3.9 9.56 3.8 9.38 3.8H9.35001C9.22001 3.8 9.11 3.84999 9.02 3.92999L0.460007 2.34L0.429993 3.02L8.89999 4.59C8.98999 4.76 9.16 4.87 9.36 4.87H9.39C9.53 4.87 9.65999 4.81 9.75999 4.72L18.3 5.74001L18.33 5.07001L9.81 4.05Z" fill="#7C7B79"/>
</svg>
