<svg width="19" height="9" viewBox="0 0 19 9" fill="none" xmlns="http://www.w3.org/2000/svg">
<path d="M11.43 8.85002C12.62 8.85002 13.59 7.88002 13.59 6.69002V2.64001C13.59 1.45001 12.62 0.480011 11.43 0.480011H7.38C6.19 0.480011 5.22 1.45001 5.22 2.64001V6.69002C5.22 7.88002 6.19 8.85002 7.38 8.85002" fill="#D6D8D5"/>
<path d="M11.45 3.64H11.51C12.05 3.64 12.49 3.2 12.49 2.66V2.60001C12.49 2.06001 12.05 1.62 11.51 1.62H11.45C10.91 1.62 10.47 2.06001 10.47 2.60001V2.66C10.47 3.21 10.91 3.64 11.45 3.64Z" fill="#7C7B79"/>
<path d="M7.68001 3.7H7.74002C8.28002 3.7 8.72002 3.26 8.72002 2.72V2.66C8.72002 2.12 8.28002 1.67999 7.74002 1.67999H7.68001C7.14001 1.67999 6.70001 2.12 6.70001 2.66V2.72C6.70001 3.27 7.14001 3.7 7.68001 3.7Z" fill="#7C7B79"/>
<path d="M7.8 7.35002H7.86C8.4 7.35002 8.84 6.91001 8.84 6.37001V6.31001C8.84 5.77001 8.4 5.33002 7.86 5.33002H7.8C7.26 5.33002 6.82001 5.77001 6.82001 6.31001V6.37001C6.82001 6.91001 7.26 7.35002 7.8 7.35002Z" fill="#7C7B79"/>
<path d="M11.48 7.29001H11.54C12.08 7.29001 12.52 6.85001 12.52 6.31001V6.25002C12.52 5.71002 12.08 5.27002 11.54 5.27002H11.48C10.94 5.27002 10.5 5.71002 10.5 6.25002V6.31001C10.5 6.86001 10.94 7.29001 11.48 7.29001Z" fill="#7C7B79"/>
<path d="M10.11 4.2C10.02 4.07 9.86998 3.98 9.69998 3.98H9.66998C9.52998 3.98 9.39999 4.04 9.29999 4.13L0.319992 3.06L0.289978 3.73L9.23999 4.8C9.32999 4.95 9.48998 5.05 9.66998 5.05H9.69998C9.85998 5.05 9.98998 4.98 10.09 4.87L18.27 5.17L18.3 4.5L10.11 4.2Z" fill="#7C7B79"/>
</svg>
