<svg width="21" height="9" viewBox="0 0 21 9" fill="none" xmlns="http://www.w3.org/2000/svg">
<path d="M12.26 8.55C13.45 8.55 14.42 7.58 14.42 6.39V2.34C14.42 1.15 13.45 0.179993 12.26 0.179993H8.21002C7.02002 0.179993 6.05002 1.15 6.05002 2.34V6.39C6.05002 7.58 7.02002 8.55 8.21002 8.55" fill="#D6D8D5"/>
<path d="M12.27 3.34H12.33C12.87 3.34 13.31 2.9 13.31 2.36V2.3C13.31 1.76 12.87 1.32001 12.33 1.32001H12.27C11.73 1.32001 11.29 1.76 11.29 2.3V2.36C11.3 2.9 11.73 3.34 12.27 3.34Z" fill="#7C7B79"/>
<path d="M8.50002 3.39999H8.56001C9.10001 3.39999 9.54001 2.96 9.54001 2.42V2.36C9.54001 1.82 9.10001 1.38 8.56001 1.38H8.50002C7.96002 1.38 7.52002 1.82 7.52002 2.36V2.42C7.53002 2.97 7.96002 3.39999 8.50002 3.39999Z" fill="#7C7B79"/>
<path d="M8.62001 7.05H8.68001C9.22001 7.05 9.66002 6.61001 9.66002 6.07001V6.00999C9.66002 5.46999 9.22001 5.03 8.68001 5.03H8.62001C8.08001 5.03 7.64001 5.46999 7.64001 6.00999V6.07001C7.65001 6.61001 8.09001 7.05 8.62001 7.05Z" fill="#7C7B79"/>
<path d="M12.31 6.99001H12.37C12.91 6.99001 13.35 6.54999 13.35 6.00999V5.95C13.35 5.41 12.91 4.97 12.37 4.97H12.31C11.77 4.97 11.33 5.41 11.33 5.95V6.00999C11.33 6.54999 11.77 6.99001 12.31 6.99001Z" fill="#7C7B79"/>
<path d="M10.97 3.95C10.88 3.79 10.72 3.67999 10.52 3.67999H10.49C10.33 3.67999 10.2 3.75 10.1 3.86L0.300018 3.5L0.27002 4.17L10.09 4.53C10.18 4.66 10.33 4.75 10.5 4.75H10.53C10.66 4.75 10.78 4.7 10.88 4.61L20.23 6.08L20.26 5.39999L10.97 3.95Z" fill="#7C7B79"/>
</svg>
