<svg width="19" height="9" viewBox="0 0 19 9" fill="none" xmlns="http://www.w3.org/2000/svg">
<path d="M10.61 8.44C11.8 8.44 12.77 7.47 12.77 6.28V2.23C12.77 1.04 11.8 0.0700073 10.61 0.0700073H6.56C5.37 0.0700073 4.39999 1.04 4.39999 2.23V6.28C4.39999 7.47 5.37 8.44 6.56 8.44" fill="#D6D8D5"/>
<path d="M10.62 3.23001H10.68C11.22 3.23001 11.66 2.79002 11.66 2.25002V2.19002C11.66 1.65002 11.22 1.21002 10.68 1.21002H10.62C10.08 1.21002 9.64001 1.65002 9.64001 2.19002V2.25002C9.65001 2.79002 10.08 3.23001 10.62 3.23001Z" fill="#7C7B79"/>
<path d="M6.85001 3.29001H6.91C7.45 3.29001 7.89 2.85001 7.89 2.31001V2.25002C7.89 1.71002 7.45 1.27002 6.91 1.27002H6.85001C6.31001 1.27002 5.87 1.71002 5.87 2.25002V2.31001C5.88 2.85001 6.31001 3.29001 6.85001 3.29001Z" fill="#7C7B79"/>
<path d="M6.96999 6.92999H7.02998C7.56998 6.92999 8.00998 6.49 8.00998 5.95V5.89C8.00998 5.35 7.56998 4.91 7.02998 4.91H6.96999C6.42999 4.91 5.98999 5.35 5.98999 5.89V5.95C5.99999 6.5 6.42999 6.92999 6.96999 6.92999Z" fill="#7C7B79"/>
<path d="M10.65 6.87H10.71C11.25 6.87 11.69 6.43 11.69 5.89V5.83C11.69 5.29 11.25 4.85001 10.71 4.85001H10.65C10.11 4.85001 9.66998 5.29 9.66998 5.83V5.89C9.67998 6.44 10.12 6.87 10.65 6.87Z" fill="#7C7B79"/>
<path d="M9.28 3.78C9.18 3.66 9.04 3.57001 8.87 3.57001H8.84C8.71 3.57001 8.58001 3.62001 8.49001 3.71001L0.25 2.41L0.220001 3.09L8.39 4.38C8.48 4.54 8.64 4.64999 8.84 4.64999H8.87C9.02999 4.64999 9.16999 4.57001 9.25999 4.46001L18.24 4.66L18.27 3.99001L9.28 3.78Z" fill="#7C7B79"/>
</svg>
