<svg width="26" height="13" viewBox="0 0 26 13" fill="none" xmlns="http://www.w3.org/2000/svg">
<path d="M13.09 12.87H12.74C9.48001 12.87 6.84 10.23 6.84 6.97V6.62C6.84 3.36 9.48001 0.720001 12.74 0.720001H13.09C16.35 0.720001 18.99 3.36 18.99 6.62V6.97C19 10.23 16.35 12.87 13.09 12.87Z" fill="#D6D8D5"/>
<path d="M9.95 5.3H9.86C9.08 5.3 8.44 4.67 8.44 3.88V3.78999C8.44 3.00999 9.07 2.37 9.86 2.37H9.95C10.73 2.37 11.37 2.99999 11.37 3.78999V3.88C11.37 4.67 10.74 5.3 9.95 5.3Z" fill="#7C7B79"/>
<path d="M15.43 5.38998H15.34C14.56 5.38998 13.92 4.75999 13.92 3.96999V3.87999C13.92 3.09999 14.55 2.45999 15.34 2.45999H15.43C16.21 2.45999 16.85 3.08999 16.85 3.87999V3.96999C16.85 4.75999 16.21 5.38998 15.43 5.38998Z" fill="#7C7B79"/>
<path d="M15.25 10.69H15.16C14.38 10.69 13.74 10.06 13.74 9.26999V9.18999C13.74 8.40999 14.37 7.76999 15.16 7.76999H15.25C16.03 7.76999 16.67 8.39999 16.67 9.18999V9.26999C16.67 10.05 16.04 10.69 15.25 10.69Z" fill="#7C7B79"/>
<path d="M9.91 10.6H9.82001C9.04001 10.6 8.39999 9.96998 8.39999 9.17998V9.08998C8.39999 8.30998 9.03001 7.66998 9.82001 7.66998H9.91C10.69 7.66998 11.33 8.29998 11.33 9.08998V9.17998C11.33 9.96998 10.69 10.6 9.91 10.6Z" fill="#7C7B79"/>
<path d="M13.22 6.23999C13.1 5.97999 12.84 5.79999 12.54 5.79999H12.49C12.19 5.79999 11.94 5.97998 11.82 6.22998L0.269989 5.97998L0.23999 6.64998L11.8 6.89998C11.92 7.16998 12.18 7.35999 12.49 7.35999H12.54C12.84 7.35999 13.1 7.17998 13.22 6.91998H25.47V6.24998H13.22V6.23999Z" fill="#7C7B79"/>
</svg>
