<svg width="27" height="13" viewBox="0 0 27 13" fill="none" xmlns="http://www.w3.org/2000/svg">
<path d="M13.04 12.91H13.39C16.65 12.91 19.29 10.27 19.29 7.01001V6.66002C19.29 3.40002 16.65 0.76001 13.39 0.76001H13.04C9.78001 0.76001 7.14001 3.40002 7.14001 6.66002V7.01001C7.14001 10.27 9.78001 12.91 13.04 12.91Z" fill="#D6D8D5"/>
<path d="M16.18 5.34999H16.26C17.04 5.34999 17.68 4.71998 17.68 3.92998V3.83998C17.68 3.05998 17.05 2.41998 16.26 2.41998H16.18C15.4 2.41998 14.76 3.04998 14.76 3.83998V3.92998C14.76 4.70998 15.4 5.34999 16.18 5.34999Z" fill="#7C7B79"/>
<path d="M10.71 5.44002H10.8C11.58 5.44002 12.22 4.81002 12.22 4.02002V3.94002C12.22 3.16002 11.59 2.52002 10.8 2.52002H10.71C9.92999 2.52002 9.28998 3.15002 9.28998 3.94002V4.02002C9.28998 4.80002 9.91999 5.44002 10.71 5.44002Z" fill="#7C7B79"/>
<path d="M10.88 10.73H10.97C11.75 10.73 12.39 10.1 12.39 9.30998V9.21999C12.39 8.43999 11.76 7.79999 10.97 7.79999H10.88C10.1 7.79999 9.46002 8.42999 9.46002 9.21999V9.30998C9.47002 10.1 10.1 10.73 10.88 10.73Z" fill="#7C7B79"/>
<path d="M16.23 10.64H16.31C17.09 10.64 17.73 10.01 17.73 9.22002V9.13002C17.73 8.35002 17.1 7.71002 16.31 7.71002H16.23C15.45 7.71002 14.81 8.34002 14.81 9.13002V9.22002C14.81 10.01 15.44 10.64 16.23 10.64Z" fill="#7C7B79"/>
<path d="M14.29 6.23C14.16 6 13.92 5.84 13.64 5.84H13.59C13.3 5.84 13.07 6.00001 12.94 6.24001H0.470001V6.91H12.89C13 7.19 13.27 7.39999 13.59 7.39999H13.64C13.97 7.39999 14.24 7.18999 14.34 6.89999L26.47 6.75V6.08L14.29 6.23Z" fill="#7C7B79"/>
</svg>
