<svg width="25" height="42" viewBox="0 0 25 42" fill="none" xmlns="http://www.w3.org/2000/svg">
<path d="M6.32314 2.59969C5.78962 0.863953 7.40652 0.0473526 8.78343 1.01321C11.4452 2.88005 12.8343 6.04484 14.047 8.94741C14.6086 10.2916 17.098 14.9875 15.5164 16.2519C13.9472 17.5063 8.29028 15.629 8.21905 12.5255C8.18049 10.8415 8.23584 9.14747 8.01036 7.47389C7.76538 5.65514 6.84623 4.30003 6.32314 2.59969Z" fill="url(#paint0_linear_120_38935)"/>
<path d="M22.113 26.5209C23.0752 20.2132 23.0598 12.6024 20.2561 6.76467C19.6046 5.40775 18.7177 4.16652 17.6611 3.09495C17.2465 2.67441 14.7763 0.149297 14.2573 0.770821C13.7279 1.40459 14.2065 2.82094 14.3004 3.52548C14.4574 4.70456 14.6062 5.88455 14.7291 7.06772C14.9782 9.46807 15.5983 12.0689 14.9496 14.4575C14.8067 14.9833 14.4764 15.5032 13.9583 15.6715C13.6848 15.7604 13.3867 15.7423 13.1059 15.6815C11.3284 15.2963 10.0423 13.5043 8.94939 12.1896C7.38651 10.3101 6.48961 8.1987 5.70885 5.90088C5.32959 4.78486 4.89588 3.7006 3.94273 2.95704C3.71317 2.77784 1.46435 0.0186432 1.11049 0.103479C-0.054523 0.38203 0.347879 3.52503 0.39007 4.23956C0.716709 9.79607 4.79063 19.657 4.79063 19.657C4.79063 19.657 5.771 25.8668 4.79063 27.828C3.81026 29.7896 20.806 29.7896 22.113 26.5209Z" fill="url(#paint1_linear_120_38935)"/>
<path d="M23.0941 27.5041C23.0937 27.5036 20.4792 24.5625 14.596 24.5625C8.71286 24.5625 4.4638 26.5237 3.48342 29.1382C2.50305 31.7527 2.17595 38.9433 5.77127 40.2508C6.90862 40.6646 8.15893 40.7671 9.18422 40.034C10.0612 39.407 10.4078 38.2547 11.7266 38.682C12.3014 38.868 12.7754 39.2714 13.2627 39.6288C15.4049 41.2004 19.0456 42.8304 21.4854 40.9753C24.8208 38.4393 25.9985 30.7719 23.0941 27.5041Z" fill="url(#paint2_linear_120_38935)"/>
<defs>
<linearGradient id="paint0_linear_120_38935" x1="12.8605" y1="17.1448" x2="5.64995" y2="-18.2749" gradientUnits="userSpaceOnUse">
<stop offset="0.1599" stop-color="#BFAB8D"/>
<stop offset="0.5078" stop-color="#E7E1D2"/>
<stop offset="0.7297" stop-color="#CCBFA6"/>
</linearGradient>
<linearGradient id="paint1_linear_120_38935" x1="28.0598" y1="14.5551" x2="0.966883" y2="14.653" gradientUnits="userSpaceOnUse">
<stop offset="0.1599" stop-color="#BFAB8D"/>
<stop offset="0.5078" stop-color="#E7E1D2"/>
<stop offset="0.7297" stop-color="#CCBFA6"/>
</linearGradient>
<linearGradient id="paint2_linear_120_38935" x1="29.7138" y1="33.1354" x2="-2.46367" y2="33.2516" gradientUnits="userSpaceOnUse">
<stop stop-color="#94938C"/>
<stop offset="0.2296" stop-color="#EDEBE1"/>
<stop offset="0.7988" stop-color="#EDEBE1"/>
<stop offset="1" stop-color="#94938C"/>
</linearGradient>
</defs>
</svg>
