<svg width="19" height="57" viewBox="0 0 19 57" fill="none" xmlns="http://www.w3.org/2000/svg">
<path d="M5.71362 30.397C5.71362 30.397 2.44546 31.7045 1.46465 39.2217C1.46465 39.2217 0.484309 47.0661 0.157222 49.3539C-0.169411 51.6417 -0.169409 54.5833 3.42537 55.5637C7.02061 56.5441 10.2888 55.8903 12.2499 55.237C14.2111 54.5833 17.1526 52.6221 17.8063 50.3343C18.46 48.0464 17.8063 36.9339 16.826 34.9727C15.8456 33.0115 13.5578 27.7821 5.71362 30.397Z" fill="url(#paint0_linear_120_39010)"/>
<path d="M7.47019 2.23521C7.47019 2.23521 1.80801 15.0327 4.74185 31.5399C4.74185 31.5399 15.1439 30.3068 15.6584 33.1305C14.1994 26.2633 14.0216 15.3294 13.7856 12.0263C13.5493 8.72267 13.1519 6.48699 13.2317 3.64159C13.2834 1.78881 11.9615 0.919577 10.2375 0.375175C8.51362 -0.169227 7.93112 1.17499 7.47019 2.23521Z" fill="url(#paint1_linear_120_39010)"/>
<defs>
<linearGradient id="paint0_linear_120_39010" x1="-4.45154" y1="43.5211" x2="21.5584" y2="42.218" gradientUnits="userSpaceOnUse">
<stop stop-color="#94938C"/>
<stop offset="0.1599" stop-color="#D1CFC6"/>
<stop offset="0.2296" stop-color="#EDEBE1"/>
<stop offset="0.7988" stop-color="#EDEBE1"/>
<stop offset="0.9762" stop-color="#9F9E96"/>
<stop offset="1" stop-color="#94938C"/>
</linearGradient>
<linearGradient id="paint1_linear_120_39010" x1="13.0442" y1="16.6817" x2="3.97337" y2="16.8438" gradientUnits="userSpaceOnUse">
<stop stop-color="#BFAB8D"/>
<stop offset="0.5078" stop-color="#E7E1D2"/>
<stop offset="1" stop-color="#CCBFA6"/>
</linearGradient>
</defs>
</svg>
