<svg width="21" height="70" viewBox="0 0 21 70" fill="none" xmlns="http://www.w3.org/2000/svg">
<path d="M4.02344 45.719C4.02344 45.719 16.1046 42.6908 17.1085 44.4174L12.2295 9.86488C12.2295 9.86488 8.8099 0.984375 7.50248 0.984375C6.19506 0.984375 4.88765 4.90631 4.88765 4.90631C4.88765 4.90631 4.31468 37.4491 4.02344 45.719Z" fill="url(#paint0_linear_120_39025)"/>
<path d="M6.34684 42.2224C6.34593 42.2233 -0.843874 51.7013 0.463609 59.5452C0.885524 62.0762 1.74933 64.7215 3.27502 66.8088C4.01905 67.8269 4.9858 68.7482 6.20482 69.152C7.81717 69.686 9.88638 69.2668 11.5028 68.9061C12.2986 68.7287 13.0802 68.4842 13.8215 68.1431C19.0043 65.7595 20.3735 59.6141 19.9565 54.406C19.6635 50.7477 18.5529 47.1987 17.1093 43.8461C16.1729 41.6712 13.9917 41.1014 11.8145 40.7934C10.1758 40.5615 7.46105 40.7534 6.34684 42.2224Z" fill="url(#paint1_linear_120_39025)"/>
<defs>
<linearGradient id="paint0_linear_120_39025" x1="15.3771" y1="23.6479" x2="5.48389" y2="23.3432" gradientUnits="userSpaceOnUse">
<stop stop-color="#BFAB8D"/>
<stop offset="0.5078" stop-color="#E7E1D2"/>
<stop offset="1" stop-color="#CCBFA6"/>
</linearGradient>
<linearGradient id="paint1_linear_120_39025" x1="26.3061" y1="54.7539" x2="-6.64694" y2="55.3429" gradientUnits="userSpaceOnUse">
<stop stop-color="#94938C"/>
<stop offset="0.0617" stop-color="#A4A29B"/>
<stop offset="0.1809" stop-color="#CCCAC2"/>
<stop offset="0.2666" stop-color="#EDEBE1"/>
<stop offset="0.7117" stop-color="#EDEBE1"/>
<stop offset="0.7719" stop-color="#E0DED5"/>
<stop offset="0.883" stop-color="#BEBDB4"/>
<stop offset="1" stop-color="#94938C"/>
</linearGradient>
</defs>
</svg>
