<svg width="19" height="45" viewBox="0 0 19 45" fill="none" xmlns="http://www.w3.org/2000/svg">
<path d="M9.625 43.7491C9.625 43.7491 14.9241 44.8447 16.8019 42.0923C18.6798 39.3394 10.2565 42.0886 9.625 43.7491Z" fill="#D8D6D0"/>
<path d="M8.85104 43.9841C8.85104 43.9841 3.20778 44.3657 1.80365 40.7064C0.399523 37.0471 8.51805 41.8659 8.85104 43.9841Z" fill="#D8D6D0"/>
<path d="M6.59781 23.449C6.51479 23.4898 6.43585 23.5361 6.36145 23.5883C4.92378 24.5927 3.71202 26.22 2.79788 27.6921C1.40875 29.9287 0.417042 32.4869 0.684252 35.1563C0.866627 36.9809 1.07123 39.0791 1.9831 40.7178C2.5157 41.675 3.71294 42.1137 4.68787 42.453C5.52307 42.7438 6.36598 43.0169 7.18485 43.3522C7.94112 43.6616 8.68332 44.1892 9.53531 44.1212C10.5148 44.0427 11.1989 43.2751 11.9824 42.7769C13.2118 41.9957 14.6835 41.5951 16.1398 41.6655C16.3957 41.6777 16.6579 41.7036 16.9033 41.6287C17.2612 41.5198 17.523 41.2159 17.734 40.9074C18.6948 39.5038 18.6694 38.1437 18.6776 36.5114C18.6862 34.8528 18.654 33.1842 18.3378 31.551C17.7748 28.6407 15.8522 26.2331 14.8414 23.4862C14.7833 23.3279 14.7253 23.1659 14.6186 23.0352C14.4363 22.8116 14.1378 22.7149 13.8501 22.6918C13.3112 22.6483 12.7681 22.7317 12.2342 22.7889C11.2216 22.8978 10.233 23.0107 9.21501 23.0806C8.40749 23.1364 7.34954 23.0774 6.59781 23.449Z" fill="url(#paint0_linear_120_38904)"/>
<path d="M4.45855 25.3646C4.49484 25.3941 4.5384 25.4173 4.59148 25.4318C4.85824 25.5066 5.68028 25.1042 5.97108 25.028C6.93512 24.7758 7.91004 24.5648 8.89086 24.3893C9.93021 24.2033 10.98 24.0268 12.0384 24.0182C12.5987 24.0136 13.1621 24.0527 13.7106 24.1715C14.1978 24.2772 14.7227 24.6111 15.1841 24.6529C15.5203 23.3422 15.1791 21.8179 15.1011 20.4869C15.0144 19.007 14.8783 17.5303 14.6937 16.0596C14.3475 13.2995 13.6584 10.6424 13.1558 7.91721C12.6667 5.26646 11.4495 0.68718 8.81827 0.823279C6.18702 0.959378 5.32596 5.2533 4.59919 7.21993C3.87333 9.18384 4.10788 15.8414 4.17911 18.7248C4.22493 20.5858 4.11877 22.527 4.2653 24.4142C4.29252 24.7676 4.24079 25.1868 4.45855 25.3646Z" fill="url(#paint1_linear_120_38904)"/>
<defs>
<linearGradient id="paint0_linear_120_38904" x1="24.6275" y1="33.8084" x2="-5.60883" y2="32.8771" gradientUnits="userSpaceOnUse">
<stop stop-color="#94938C"/>
<stop offset="0.2666" stop-color="#EDEBE1"/>
<stop offset="0.7117" stop-color="#EDEBE1"/>
<stop offset="1" stop-color="#94938C"/>
</linearGradient>
<linearGradient id="paint1_linear_120_38904" x1="17.489" y1="14.2484" x2="3.68305" y2="12.7985" gradientUnits="userSpaceOnUse">
<stop stop-color="#BFAB8D"/>
<stop offset="0.5078" stop-color="#E7E1D2"/>
<stop offset="1" stop-color="#CCBFA6"/>
</linearGradient>
</defs>
</svg>
