<svg width="26" height="44" viewBox="0 0 26 44" fill="none" xmlns="http://www.w3.org/2000/svg">
<path d="M19.6194 2.74662C19.2877 6.28067 17.7158 17.4934 15.0134 17.7244C12.311 17.9553 7.36891 11.6044 9.61721 8.06629C10.4057 6.82597 11.3747 5.2572 12.2647 3.61856C12.8853 2.47669 19.951 -0.786969 19.6194 2.74662Z" fill="url(#paint0_linear_120_38910)"/>
<path d="M2.92326 25.897C6.122 25.6666 9.75172 24.1028 12.9564 23.9762C14.9665 23.8968 16.9776 23.7639 18.99 23.8283C19.9205 23.8578 21.3041 26.3385 22.2065 26.2237C22.7917 26.1493 22.4056 23.7458 22.3815 23.1238C22.3611 22.5943 22.3162 22.0672 22.3938 21.5396C22.6724 19.6378 23.7185 17.8322 24.1536 15.9304C24.6571 13.7306 24.9974 11.4881 25.2065 9.24157C25.4283 6.85846 25.5222 4.42409 25.2101 2.04415C25.0758 1.01796 19.8256 2.15712 19.7349 3.51449C19.6351 5.0075 19.2282 6.39028 18.8934 7.83929C18.2719 10.5318 17.5379 13.7007 15.774 15.9078C15.3449 16.4449 14.6998 16.8795 14.0152 16.8146C13.6641 16.7811 13.3361 16.6196 13.0494 16.414C12.0164 15.6732 11.491 14.3948 11.3119 13.1363C10.9448 10.5577 11.2211 7.71317 11.9102 5.21347C12.3144 3.74631 13.0612 2.43249 13.5175 0.998C13.9998 -0.518608 6.08255 2.42433 4.69935 5.37996C3.85101 7.19236 3.03214 9.066 2.50998 11.0032C2.19605 12.1677 2.22964 13.3282 2.26275 14.5309C2.35439 17.893 2.5499 22.5635 2.92326 25.897Z" fill="url(#paint1_linear_120_38910)"/>
<path d="M21.8648 28.0646C22.137 28.1476 22.5272 28.8871 22.6782 29.0999C23.2766 29.9442 23.7947 30.8529 24.1826 31.8137C25.2279 34.4028 25.0763 37.2423 23.1156 39.3632C23.0924 39.3882 23.0688 39.4131 23.0457 39.4381C22.94 39.5492 22.8298 39.6576 22.7436 39.7842C22.5018 40.1394 22.4441 40.584 22.215 40.9488C21.9986 41.2931 21.6806 41.6152 21.3726 41.8752C20.6472 42.4876 19.6809 42.9132 18.7159 42.8179C18.3843 42.7852 18.0681 42.6673 17.7564 42.5502C16.4031 42.0421 14.9337 41.4628 14.216 40.119C14.2976 40.2724 13.9252 40.8962 13.8313 41.0232C13.6063 41.329 13.3304 41.4619 12.9825 41.5962C11.8333 42.0403 10.5826 42.3969 9.48106 42.9476C8.71981 43.2407 8.07741 43.5193 7.303 43.2652C6.85205 43.1173 6.39522 42.9876 5.94926 42.8242C5.11451 42.5189 3.72585 41.9845 3.72585 40.9016C3.72585 39.2271 2.33035 34.2041 5.67932 29.1811C9.02693 24.1599 21.8544 28.0614 21.8648 28.0646Z" fill="#D8D6D0"/>
<path d="M21.8792 23.9374C22.1981 24.0345 22.6554 24.901 22.8319 25.1501C23.5328 26.1391 24.1393 27.2034 24.5939 28.3285C25.8184 31.3613 25.6405 34.6871 23.3445 37.1705C23.3173 37.1996 23.2896 37.2291 23.2624 37.2581C23.1386 37.3883 23.0097 37.5153 22.9085 37.6637C22.625 38.0802 22.5579 38.6005 22.2897 39.0279C22.0366 39.4307 21.6641 39.8082 21.303 40.113C20.4533 40.8303 19.3214 41.3284 18.1918 41.2173C17.8034 41.1792 17.4333 41.0408 17.0681 40.9038C15.483 40.309 13.7618 39.6299 12.9211 38.0561C13.0168 38.2353 12.5804 38.9662 12.4706 39.1154C12.207 39.4734 11.8836 39.629 11.4766 39.7864C10.1306 40.3068 8.66572 40.7241 7.3755 41.3693C6.48405 41.7127 5.73187 42.0389 4.82454 41.7413C4.29648 41.568 3.76114 41.416 3.23897 41.225C2.26132 40.8675 0.634497 40.2414 0.634497 38.973C0.634497 37.0118 -0.999619 31.1286 2.92232 25.2454C6.84289 19.364 21.8669 23.9338 21.8792 23.9374Z" fill="url(#paint2_linear_120_38910)"/>
<defs>
<linearGradient id="paint0_linear_120_38910" x1="11.254" y1="16.6478" x2="24.7652" y2="-16.3728" gradientUnits="userSpaceOnUse">
<stop offset="0.1599" stop-color="#BFAB8D"/>
<stop offset="0.5078" stop-color="#E7E1D2"/>
<stop offset="0.7297" stop-color="#CCBFA6"/>
</linearGradient>
<linearGradient id="paint1_linear_120_38910" x1="24.2184" y1="13.1056" x2="3.30832" y2="14.051" gradientUnits="userSpaceOnUse">
<stop offset="0.1599" stop-color="#BFAB8D"/>
<stop offset="0.5078" stop-color="#E7E1D2"/>
<stop offset="0.7297" stop-color="#CCBFA6"/>
</linearGradient>
<linearGradient id="paint2_linear_120_38910" x1="31.1352" y1="34.377" x2="-3.6872" y2="30.7202" gradientUnits="userSpaceOnUse">
<stop stop-color="#94938C"/>
<stop offset="0.2296" stop-color="#EDEBE1"/>
<stop offset="0.7988" stop-color="#EDEBE1"/>
<stop offset="1" stop-color="#94938C"/>
</linearGradient>
</defs>
</svg>
