<svg width="24" height="42" viewBox="0 0 24 42" fill="none" xmlns="http://www.w3.org/2000/svg">
<path d="M9.4375 39.3517C9.4375 39.3517 11.8866 42.9398 15.6091 40.4963C19.3316 38.0528 11.3573 37.6613 9.4375 39.3517Z" fill="#D8D6D0"/>
<path d="M13.8695 3.7731C14.3904 2.03373 16.1888 2.25286 16.7968 3.82074C17.9723 6.8517 17.3689 10.2551 16.7646 13.3423C16.4846 14.7718 15.9447 20.0598 13.9272 20.2322C11.9255 20.4032 8.26511 15.6996 9.93016 13.0792C10.8335 11.6579 11.8212 10.2801 12.5634 8.76346C13.3705 7.11528 13.3596 5.47799 13.8695 3.7731Z" fill="url(#paint0_linear_120_38917)"/>
<path d="M3.41552 27.0727C3.48085 27.1094 3.68954 26.6431 3.87691 26.6635C4.12144 26.6898 4.42631 26.6045 4.67084 26.5795C5.51558 26.4943 6.36167 26.4203 7.20823 26.3563C9.56008 26.179 11.9228 26.071 14.2819 26.1186C15.9229 26.1517 17.5888 26.2388 19.198 26.5823C20.192 26.7941 21.4999 27.1094 22.1078 28.0131C22.1078 28.0131 20.7382 22.497 21.719 18.2479C22.6994 13.9989 24.0069 2.55966 21.3919 2.23256C19.7483 2.02705 18.5093 5.84965 18.0806 6.91305C16.9437 9.73305 16.0535 12.7472 15.2474 15.7097C15.2247 15.7922 15.2015 15.8771 15.1512 15.9465C14.7097 16.5571 13.1772 16.7994 12.5856 16.3911C12.0902 16.049 11.9678 15.3817 11.887 14.7846C11.7437 13.7253 11.6003 12.666 11.4569 11.6067C11.1162 9.08975 10.7732 6.55647 10.834 4.01003C10.8508 3.31093 11.6475 -0.249452 9.95207 0.598452C7.1039 2.02252 5.47976 5.96126 4.689 8.78806C3.62015 12.6075 3.58065 16.6946 3.4332 20.6333C3.3656 22.4389 3.27534 24.2695 3.39284 26.0751C3.41598 26.428 3.32161 27.0201 3.41552 27.0727Z" fill="url(#paint1_linear_120_38917)"/>
<path d="M4.51075 25.9215C5.38767 25.314 6.5622 25.2414 7.58066 25.0377C9.11448 24.7306 10.6619 24.4747 12.2252 24.3804C15.6708 24.1717 19.4602 24.8037 21.7756 27.6069C22.5918 28.5945 23.1657 29.7772 23.4533 31.0248C23.7768 32.4293 23.5159 33.3367 23.0686 34.6636C22.6585 35.8799 22.1231 37.1969 21.4617 38.2984C20.7445 39.4925 19.5972 40.5264 18.1546 40.5055C16.5917 40.4828 15.0642 39.8713 14.0203 38.6863C13.9654 38.6242 13.9092 38.5584 13.8321 38.5271C13.74 38.4899 13.6361 38.5094 13.5399 38.5316C11.4395 39.013 9.33316 40.3866 7.39512 41.3153C6.46875 41.759 5.9393 41.8942 5.00114 41.4015C3.83069 40.7868 2.71607 40.031 1.84958 39.0324C-0.713147 36.0791 0.263575 31.8831 2.13719 28.8377C2.72876 27.8763 3.4614 26.7621 4.34785 26.0444C4.40047 26.0009 4.45495 25.96 4.51075 25.9215Z" fill="url(#paint2_linear_120_38917)"/>
<defs>
<linearGradient id="paint0_linear_120_38917" x1="11.1942" y1="19.5155" x2="24.8813" y2="-13.9372" gradientUnits="userSpaceOnUse">
<stop offset="0.1599" stop-color="#BFAB8D"/>
<stop offset="0.5078" stop-color="#E7E1D2"/>
<stop offset="0.7297" stop-color="#CCBFA6"/>
</linearGradient>
<linearGradient id="paint1_linear_120_38917" x1="22.2558" y1="16.5209" x2="4.56656" y2="13.1653" gradientUnits="userSpaceOnUse">
<stop offset="0.1599" stop-color="#BFAB8D"/>
<stop offset="0.5078" stop-color="#E7E1D2"/>
<stop offset="0.7297" stop-color="#CCBFA6"/>
</linearGradient>
<linearGradient id="paint2_linear_120_38917" x1="-4.95969" y1="32.9913" x2="28.3251" y2="33.0758" gradientUnits="userSpaceOnUse">
<stop stop-color="#94938C"/>
<stop offset="0.2296" stop-color="#EDEBE1"/>
<stop offset="0.7988" stop-color="#EDEBE1"/>
<stop offset="1" stop-color="#94938C"/>
</linearGradient>
</defs>
</svg>
