<svg width="24" height="42" viewBox="0 0 24 42" fill="none" xmlns="http://www.w3.org/2000/svg">
<path d="M19.0871 2.14656C19.6207 0.410828 18.0037 -0.405772 16.6267 0.560086C13.9648 2.42693 12.5756 5.59171 11.3629 8.49428C10.8012 9.83849 8.31182 14.5344 9.89341 15.7988C11.4627 17.0532 17.1199 15.1759 17.1911 12.0724C17.2297 10.3883 17.1743 8.69434 17.3998 7.02076C17.6448 5.20201 18.564 3.84691 19.0871 2.14656Z" fill="url(#paint0_linear_120_38929)"/>
<path d="M3.29363 26.0667C2.33138 19.7589 2.34683 12.1482 5.15058 6.31045C5.80206 4.95354 6.68901 3.71231 7.74563 2.64076C8.1603 2.22021 10.6301 -0.304887 11.1496 0.316634C11.679 0.950404 11.2004 2.36674 11.1065 3.07129C10.9495 4.25036 10.8007 5.43035 10.6778 6.6135C10.4287 9.01384 9.8085 11.6147 10.4573 14.0032C10.6002 14.529 10.9304 15.0489 11.4485 15.2173C11.7221 15.3062 12.0202 15.288 12.301 15.2272C14.0785 14.8421 15.3647 13.0501 16.4576 11.7354C18.0205 9.85584 18.9175 7.74449 19.6983 5.44667C20.0776 4.33066 20.5113 3.2464 21.4644 2.50284C21.694 2.32364 22.1572 1.90809 22.5111 1.99292C23.6761 2.27147 23.2737 5.41447 23.2315 6.12899C22.9049 11.6855 20.6165 19.2027 20.6165 19.2027C20.6165 19.2027 19.6361 25.4125 20.6165 27.3737C21.5974 29.3353 4.60069 29.3353 3.29363 26.0667Z" fill="url(#paint1_linear_120_38929)"/>
<path d="M2.31369 27.0509C2.31369 27.0505 4.92856 24.1094 10.8116 24.1094C16.6947 24.1094 20.9437 26.0706 21.924 28.685C22.9044 31.2995 23.2315 38.4901 19.6362 39.7976C18.4989 40.2113 17.2486 40.3139 16.2233 39.5807C15.3464 38.9538 14.9998 37.8015 13.681 38.2288C13.1062 38.4148 12.6322 38.8181 12.145 39.1756C10.0028 40.7471 6.36215 42.3771 3.92237 40.5221C0.587061 37.9861 -0.590638 30.3187 2.31369 27.0509Z" fill="url(#paint2_linear_120_38929)"/>
<defs>
<linearGradient id="paint0_linear_120_38929" x1="12.5512" y1="16.6942" x2="19.7614" y2="-18.7256" gradientUnits="userSpaceOnUse">
<stop offset="0.1599" stop-color="#BFAB8D"/>
<stop offset="0.5078" stop-color="#E7E1D2"/>
<stop offset="0.7297" stop-color="#CCBFA6"/>
</linearGradient>
<linearGradient id="paint1_linear_120_38929" x1="-2.22573" y1="14.412" x2="22.7125" y2="14.5021" gradientUnits="userSpaceOnUse">
<stop offset="0.1599" stop-color="#BFAB8D"/>
<stop offset="0.5078" stop-color="#E7E1D2"/>
<stop offset="0.7297" stop-color="#CCBFA6"/>
</linearGradient>
<linearGradient id="paint2_linear_120_38929" x1="-4.54709" y1="32.6813" x2="28.0117" y2="32.799" gradientUnits="userSpaceOnUse">
<stop stop-color="#94938C"/>
<stop offset="0.2296" stop-color="#EDEBE1"/>
<stop offset="0.7988" stop-color="#EDEBE1"/>
<stop offset="1" stop-color="#94938C"/>
</linearGradient>
</defs>
</svg>
