<svg width="26" height="40" viewBox="0 0 26 40" fill="none" xmlns="http://www.w3.org/2000/svg">
<path d="M9.58499 37.0984C9.29011 38.9516 10.476 39.4425 11.406 38.1908C13.2034 35.7714 14.0368 32.3072 14.7572 29.1429C15.0907 27.6775 16.6304 22.4499 15.4481 21.5018C14.275 20.5613 10.3535 23.6022 10.4524 26.7362C10.5059 28.4361 10.6266 30.1273 10.5472 31.8554C10.461 33.7331 9.87443 35.2828 9.58499 37.0984Z" fill="url(#paint0_linear_120_38987)"/>
<path d="M22.0565 13.7925C22.0565 13.7925 20.749 17.3878 20.749 21.3097C20.749 25.2317 21.0757 30.1345 18.7878 33.7298C16.5 37.3251 15.8462 38.9592 15.8462 38.9592C15.8462 38.9592 13.885 41.2471 12.9046 38.6326C12.9046 38.6326 15.1925 30.7882 13.885 26.8663C12.5775 22.9443 11.2701 24.2513 10.9434 24.9051C10.6168 25.5588 6.0406 33.0761 5.38686 35.0373C4.73313 36.9985 3.75275 38.9592 3.09901 38.9592C2.44527 38.9592 1.46489 37.3251 0.811152 34.3835C0.157413 31.442 0.811155 28.1737 2.11863 25.8859C3.42611 23.5981 4.73358 13.4658 4.73358 11.8317C4.73404 10.1972 20.4224 13.1387 22.0565 13.7925Z" fill="url(#paint1_linear_120_38987)"/>
<path d="M14.502 3.52393C14.8123 3.45043 15.1335 3.24765 15.5065 3.00222C16.519 2.33488 17.5706 1.69115 18.7388 1.36678C19.9075 1.04242 21.2222 1.07053 22.262 1.69431C22.9933 2.133 23.535 2.82802 23.981 3.55478C24.6787 4.69211 25.1936 6.01362 25.0335 7.3383C24.8511 8.84899 24.2518 10.3365 23.6371 11.7166C23.2642 12.5536 22.9534 13.5085 22.2815 14.1636C21.4976 14.9276 20.1797 15.0351 19.1467 15.1798C16.9246 15.4906 14.6935 15.212 12.524 14.6971C10.3673 14.1849 8.13843 13.617 6.04113 12.9029C5.66413 12.7745 5.28759 12.6261 4.97183 12.3839C4.08673 11.7039 3.90481 10.1583 3.69204 9.13843C3.36903 7.58828 3.56637 5.98549 4.2006 4.54059C5.0172 2.68013 6.57873 1.03787 8.65199 0.718944C10.1359 0.490753 11.4534 0.795171 12.4519 1.9452C12.7826 2.32627 13.0458 2.76904 13.4032 3.12697C13.7975 3.52166 14.1423 3.60921 14.502 3.52393Z" fill="url(#paint2_linear_120_38987)"/>
<defs>
<linearGradient id="paint0_linear_120_38987" x1="13.5132" y1="21.1358" x2="13.489" y2="58.2052" gradientUnits="userSpaceOnUse">
<stop offset="0.1599" stop-color="#BFAB8D"/>
<stop offset="0.5078" stop-color="#E7E1D2"/>
<stop offset="0.7297" stop-color="#CCBFA6"/>
</linearGradient>
<linearGradient id="paint1_linear_120_38987" x1="20.162" y1="25.5794" x2="3.40371" y2="25.6399" gradientUnits="userSpaceOnUse">
<stop stop-color="#BFAB8D"/>
<stop offset="0.5078" stop-color="#E7E1D2"/>
<stop offset="1" stop-color="#CCBFA6"/>
</linearGradient>
<linearGradient id="paint2_linear_120_38987" x1="30.9293" y1="7.91655" x2="-1.41184" y2="8.03337" gradientUnits="userSpaceOnUse">
<stop stop-color="#94938C"/>
<stop offset="0.2614" stop-color="#EDEBE1"/>
<stop offset="0.7687" stop-color="#EDEBE1"/>
<stop offset="1" stop-color="#94938C"/>
</linearGradient>
</defs>
</svg>
