<svg width="27" height="45" viewBox="0 0 27 45" fill="none" xmlns="http://www.w3.org/2000/svg">
<path d="M10.9433 42.269C10.7414 44.2261 12.0112 44.6711 12.9122 43.3074C14.6547 40.6716 15.3271 36.997 15.8987 33.6431C16.1636 32.0897 17.4738 26.5292 16.1818 25.6047C14.8997 24.6878 10.9701 28.0971 11.2536 31.3716C11.4074 33.1481 11.6315 34.9115 11.6478 36.7248C11.666 38.696 11.1415 40.3518 10.9433 42.269Z" fill="url(#paint0_linear_120_39029)"/>
<path d="M22.5738 20.0075C21.8883 21.966 21.3358 24.0103 21.0168 26.0608C20.8023 27.4409 20.834 28.6676 21.0436 30.0336C21.3961 32.3291 21.4215 34.725 21.3226 37.0405C21.2174 39.5003 20.3804 41.5468 19.4195 43.6282C18.9695 44.6027 14.2455 44.6599 14.2477 43.1119C14.2486 42.4364 14.2709 41.7927 14.2545 41.256C14.181 38.8379 14.132 36.4031 13.6484 34.0236C13.4402 32.9992 13.1476 31.978 12.6127 31.0798C12.081 30.1865 11.0984 29.751 10.157 30.3943C8.90357 31.2508 8.62093 33.1271 8.18814 34.4627C7.78211 35.7153 7.41419 36.9801 7.05897 38.2481C6.71192 39.4871 6.38301 40.7311 6.05456 41.9755C5.90848 42.5299 2.5423 43.0053 2.34903 42.3779C2.10769 41.593 1.88358 40.8023 1.65992 40.012C1.12052 38.1071 0.624201 36.2075 0.508063 34.2237C0.349735 31.5189 1.4154 28.8463 1.93621 26.2282C2.48968 23.4459 2.83537 20.6222 2.96784 17.7886C2.97646 17.6022 2.99097 17.3994 3.11663 17.2615C3.28675 17.0755 3.57847 17.09 3.82844 17.1186C6.90019 17.4706 9.9783 17.7569 13.0469 18.1407C15.1233 18.3988 17.2024 18.6719 19.2607 19.0512C20.1689 19.2181 21.8711 19.3048 22.5738 20.0075Z" fill="url(#paint1_linear_120_39029)"/>
<path d="M24.9711 15.7656C25.0736 14.5389 25.0455 13.2959 25.2791 12.0841C25.6439 10.1928 26.5988 8.54505 26.4636 6.54121C26.1379 1.71691 19.396 1.34401 16.0062 2.68005C14.5967 3.23534 14.0182 2.71091 12.8333 1.96236C11.5494 1.15121 10.0346 0.726562 8.51708 0.726562C6.78181 0.726562 4.86689 1.22015 3.38477 2.13202C1.1922 3.48123 1.19401 5.69468 1.04339 8.01791C0.876446 10.5875 0.935881 13.2346 1.7856 15.6917C2.04555 16.4439 2.38988 17.1829 2.93156 17.7658C3.70143 18.5947 4.68224 18.704 5.7225 18.9436C7.14247 19.2707 8.57832 19.5474 10.0096 19.8182C12.8165 20.3495 15.6496 20.7818 18.5054 20.9252C19.8596 20.9932 21.2619 20.8558 22.4646 20.2293C24.2062 19.3228 24.8164 17.617 24.9711 15.7656Z" fill="url(#paint2_linear_120_39029)"/>
<defs>
<linearGradient id="paint0_linear_120_39029" x1="14.1302" y1="25.3413" x2="16.2398" y2="64.146" gradientUnits="userSpaceOnUse">
<stop offset="0.1599" stop-color="#BFAB8D"/>
<stop offset="0.5078" stop-color="#E7E1D2"/>
<stop offset="0.7297" stop-color="#CCBFA6"/>
</linearGradient>
<linearGradient id="paint1_linear_120_39029" x1="20.2974" y1="32.6141" x2="2.80333" y2="29.21" gradientUnits="userSpaceOnUse">
<stop stop-color="#BFAB8D"/>
<stop offset="0.5078" stop-color="#E7E1D2"/>
<stop offset="1" stop-color="#CCBFA6"/>
</linearGradient>
<linearGradient id="paint2_linear_120_39029" x1="30.549" y1="13.8497" x2="-2.7493" y2="7.37024" gradientUnits="userSpaceOnUse">
<stop stop-color="#94938C"/>
<stop offset="0.2114" stop-color="#EDEBE1"/>
<stop offset="0.847" stop-color="#EDEBE1"/>
<stop offset="1" stop-color="#94938C"/>
</linearGradient>
</defs>
</svg>
