<svg width="29" height="45" viewBox="0 0 29 45" fill="none" xmlns="http://www.w3.org/2000/svg">
<path d="M19.6272 0.364276C20.9401 0.453648 21.9536 0.838823 23.0315 1.57921C23.3232 1.77973 23.5995 2.02152 23.5418 2.30824C23.2733 3.64746 13.3981 2.57137 13.4929 1.39683C13.5518 0.699093 16.7633 0.512162 17.4823 0.434585C18.2935 0.346574 18.9948 0.321177 19.6272 0.364276Z" fill="#D8D6D0"/>
<path d="M15.0291 43.5045C16.1465 41.5778 17.0252 39.4351 17.8409 37.3968C18.516 35.7101 21.4145 29.7789 19.8892 28.3454C18.3758 26.9231 12.4432 29.6315 12.1393 33.4377C11.9741 35.5023 11.9052 37.5728 11.55 39.6384C11.1634 41.8831 14.1495 45.0206 15.0291 43.5045Z" fill="url(#paint0_linear_120_39036)"/>
<path d="M26.2351 20.457C26.0472 21.2314 25.8807 22.0194 25.844 22.1718C25.5287 23.4797 25.2551 24.798 25.0356 26.1255C24.8564 27.2102 24.713 28.3008 24.6064 29.3955C24.503 30.4561 24.5932 31.6238 24.3914 32.6636C24.1922 33.6885 23.827 34.7636 23.4818 35.7535C22.4451 38.7264 20.875 41.4928 19.0104 44.0215C18.075 45.2899 13.8677 42.9794 14.2982 41.0487C14.8635 38.5154 15.1085 35.9014 14.6439 33.4975C14.5586 33.056 14.4253 32.6001 14.1086 32.2812C13.6935 31.8634 13.0289 31.7695 12.4609 31.926C11.8929 32.0825 11.4084 32.454 10.9856 32.8642C9.53429 34.2728 8.50311 36.253 7.6162 38.054C6.94477 39.4177 6.45164 40.8708 6.1681 42.3647C5.89681 43.7947 0.234622 42.7249 0.144343 40.4743C0.0309264 37.638 0.434692 34.8117 0.874293 32.0176C1.47268 28.2137 2.24163 24.4356 3.10042 20.6824C3.13353 20.5368 3.60081 18.1692 3.69518 18.1719C3.69518 18.1719 26.5699 18.8066 26.7799 18.8125C26.6629 18.8093 26.4369 19.6254 26.2351 20.457Z" fill="url(#paint1_linear_120_39036)"/>
<path d="M8.33532 0.19016C9.52119 0.122571 10.4866 0.381578 11.5658 0.983535C11.858 1.14639 12.1429 1.35233 12.137 1.64129C12.1102 2.99308 3.12639 3.10422 3.02432 1.93523C2.96625 1.24028 5.80254 0.675088 6.43176 0.513145C7.14265 0.331242 7.76462 0.222821 8.33532 0.19016Z" fill="#D8D6D0"/>
<path d="M24.2771 1.24003C25.2303 1.3353 26.1281 1.70232 26.9016 2.50895C27.8983 3.5483 28.3973 4.99005 28.5207 6.42455C28.7852 9.50223 28.2585 13.1624 27.4895 16.1439C27.2455 17.0903 27.221 19.0791 26.5713 19.8095C24.5498 22.082 20.1079 20.9764 17.4199 20.7899C14.3413 20.5762 11.0268 20.4742 8.26846 19.8095C6.44244 19.7179 3.08936 20.1221 2.53498 17.7072C1.89984 14.9394 1.50878 12.109 1.37812 9.2722C1.28013 7.15267 0.970724 1.91553 4.01757 1.50678C4.46353 1.4469 5.21617 1.94956 5.66303 2.05118C6.59532 2.26259 7.50493 2.23402 8.43041 1.98814C9.56867 1.68599 10.6257 1.14159 11.7168 0.698352C11.9541 0.602175 12.2009 0.509172 12.4567 0.515977C13.0397 0.531855 13.468 1.0368 13.9343 1.38703C15.8974 2.86235 19.416 2.097 21.5832 1.53037C22.4933 1.29265 23.4083 1.15338 24.2771 1.24003Z" fill="url(#paint2_linear_120_39036)"/>
<defs>
<linearGradient id="paint0_linear_120_39036" x1="17.2051" y1="27.4943" x2="11.1918" y2="61.8102" gradientUnits="userSpaceOnUse">
<stop offset="0.1599" stop-color="#BFAB8D"/>
<stop offset="0.5078" stop-color="#E7E1D2"/>
<stop offset="0.7297" stop-color="#CCBFA6"/>
</linearGradient>
<linearGradient id="paint1_linear_120_39036" x1="24.1834" y1="31.2304" x2="1.65651" y2="31.3118" gradientUnits="userSpaceOnUse">
<stop stop-color="#BFAB8D"/>
<stop offset="0.5078" stop-color="#E7E1D2"/>
<stop offset="1" stop-color="#CCBFA6"/>
</linearGradient>
<linearGradient id="paint2_linear_120_39036" x1="34.296" y1="10.8085" x2="-4.54971" y2="10.9488" gradientUnits="userSpaceOnUse">
<stop stop-color="#94938C"/>
<stop offset="0.2296" stop-color="#EDEBE1"/>
<stop offset="0.7988" stop-color="#EDEBE1"/>
<stop offset="1" stop-color="#94938C"/>
</linearGradient>
</defs>
</svg>
