<svg width="24" height="43" viewBox="0 0 24 43" fill="none" xmlns="http://www.w3.org/2000/svg">
<path d="M6.88281 39.6095C6.88281 39.6095 9.3322 43.1975 13.055 40.7541C16.7779 38.3107 8.80276 37.9191 6.88281 39.6095Z" fill="#D8D6D0"/>
<path d="M9.84066 4.17934C9.31986 2.43999 7.52154 2.65911 6.91363 4.22698C5.7382 7.25792 6.34157 10.6613 6.94584 13.7485C7.22575 15.178 7.76561 20.466 9.78304 20.6383C11.7846 20.8094 15.4447 16.1058 13.7798 13.4854C12.8766 12.0641 11.8889 10.6863 11.1467 9.16967C10.3392 7.5215 10.3506 5.88422 9.84066 4.17934Z" fill="url(#paint0_linear_120_38923)"/>
<path d="M20.3008 27.4789C20.2355 27.5157 20.0268 27.0493 19.8394 27.0697C19.5949 27.096 19.2901 27.0108 19.0455 26.9858C18.2008 26.9005 17.3547 26.8266 16.5082 26.7626C14.1564 26.5852 11.7937 26.4772 9.43459 26.5249C7.79368 26.558 6.12781 26.6451 4.51865 26.9885C3.52466 27.2004 2.21674 27.5157 1.60883 28.4194C1.60883 28.4194 2.97844 22.9033 1.99762 18.6542C1.01724 14.4051 -0.29023 2.96591 2.32471 2.63881C3.96834 2.4333 5.20731 6.25591 5.63602 7.3193C6.77291 10.1393 7.66302 13.1535 8.46919 16.1159C8.49187 16.1985 8.515 16.2833 8.56536 16.3527C9.00678 16.9634 10.5393 17.2056 11.1308 16.7973C11.6263 16.4553 11.7487 15.7879 11.8295 15.1909C11.9729 14.1316 12.1162 13.0723 12.2596 12.013C12.6003 9.496 12.9433 6.96272 12.8825 4.41628C12.8657 3.71718 12.069 0.156797 13.7644 1.0047C16.6125 2.42877 18.2366 6.36751 19.0274 9.19432C20.0962 13.0137 20.1357 17.1008 20.2831 21.0396C20.3507 22.8452 20.441 24.6757 20.3235 26.4813C20.3004 26.8343 20.3943 27.4263 20.3008 27.4789Z" fill="url(#paint1_linear_120_38923)"/>
<path d="M19.2038 26.3277C18.3269 25.7203 17.1523 25.6477 16.1339 25.444C14.6 25.1369 13.0525 24.881 11.4897 24.7866C8.04406 24.5779 4.25458 25.2099 1.93906 28.0131C1.12292 29.0007 0.549028 30.1834 0.261403 31.431C-0.0620617 32.8356 0.198796 33.7429 0.646111 35.0699C1.05623 36.2862 1.59156 37.6032 2.25301 38.7047C2.97025 39.8987 4.11757 40.9326 5.56023 40.9118C7.12312 40.8891 8.65062 40.2775 9.69451 39.0926C9.7494 39.0304 9.80565 38.9646 9.88277 38.9333C9.97487 38.8961 10.0788 38.9156 10.1749 38.9379C12.2759 39.4192 14.3818 40.7929 16.3198 41.7216C17.2462 42.1652 17.7757 42.3004 18.7138 41.8078C19.8843 41.193 20.999 40.4372 21.8655 39.4387C24.4282 36.4853 23.4515 32.2894 21.5779 29.2439C20.9863 28.2826 20.2536 27.1684 19.3671 26.4507C19.3136 26.4071 19.2592 26.3663 19.2038 26.3277Z" fill="url(#paint2_linear_120_38923)"/>
<defs>
<linearGradient id="paint0_linear_120_38923" x1="12.5138" y1="19.9188" x2="-1.17369" y2="-13.5332" gradientUnits="userSpaceOnUse">
<stop offset="0.1599" stop-color="#BFAB8D"/>
<stop offset="0.5078" stop-color="#E7E1D2"/>
<stop offset="0.7297" stop-color="#CCBFA6"/>
</linearGradient>
<linearGradient id="paint1_linear_120_38923" x1="1.4606" y1="16.9271" x2="19.1496" y2="13.5717" gradientUnits="userSpaceOnUse">
<stop offset="0.1599" stop-color="#BFAB8D"/>
<stop offset="0.5078" stop-color="#E7E1D2"/>
<stop offset="0.7297" stop-color="#CCBFA6"/>
</linearGradient>
<linearGradient id="paint2_linear_120_38923" x1="28.0912" y1="33.398" x2="-3.69111" y2="33.4787" gradientUnits="userSpaceOnUse">
<stop stop-color="#94938C"/>
<stop offset="0.2296" stop-color="#EDEBE1"/>
<stop offset="0.7988" stop-color="#EDEBE1"/>
<stop offset="1" stop-color="#94938C"/>
</linearGradient>
</defs>
</svg>
