<svg width="19" height="47" viewBox="0 0 19 47" fill="none" xmlns="http://www.w3.org/2000/svg">
<path d="M15.2513 20.9535C14.4483 26.2097 13.0324 31.4618 11.1891 36.4417C10.0277 39.5788 8.70027 42.7163 6.85199 45.4687C5.47554 47.5184 0.460612 46.9227 0.754594 46.1288C2.54842 41.2864 2.98622 35.9572 3.49751 30.8557C3.82144 27.6261 4.58951 23.6674 3.82824 20.4477C3.01117 16.9917 14.7446 20.3393 15.2513 20.9535Z" fill="url(#paint0_linear_120_38971)"/>
<path d="M5.11636 0.963938C5.84316 0.636411 6.60126 0.628714 7.61388 0.877308C7.8879 0.944446 8.18007 1.04879 8.32888 1.28831C9.02573 2.40789 3.30618 4.55767 2.62249 3.61819C2.2178 3.05931 3.74353 1.94381 4.06292 1.66663C4.4236 1.35317 4.76658 1.12135 5.11636 0.963938Z" fill="#D8D6D0"/>
<path d="M15.0462 1.15066C15.3837 1.25228 15.6405 1.36117 15.7484 1.45599C16.2946 1.93599 16.8622 2.44685 17.1067 3.13146C17.2047 3.40594 17.2151 3.77388 16.9656 3.9245C16.8812 3.97532 16.7805 3.99075 16.6825 3.99891C15.5379 4.09283 14.2137 3.34878 13.2456 2.81751C12.8872 2.62107 11.3461 1.91195 11.4164 1.35437C11.5235 0.509153 13.8195 0.781808 15.0462 1.15066Z" fill="#D8D6D0"/>
<path d="M17.0637 3.2611C17.0637 3.2611 19.3515 4.89522 18.044 9.14428C17.3903 15.0274 15.4291 20.9106 15.4291 20.9106C15.4291 20.9106 14.7754 21.891 10.1997 21.891C5.62402 21.891 4.31657 21.2372 3.66283 19.9298C3.0091 18.6223 1.375 6.20224 1.375 6.20224C1.375 6.20224 1.70163 3.26065 3.00909 2.93401C4.31656 2.60737 5.62403 2.28029 5.95067 2.28029C6.27731 2.28029 9.21888 0.319077 10.5263 0.646172C11.8343 0.973267 15.1025 3.58819 17.0637 3.2611Z" fill="url(#paint1_linear_120_38971)"/>
<defs>
<linearGradient id="paint0_linear_120_38971" x1="12.1673" y1="32.8585" x2="2.28077" y2="32.8942" gradientUnits="userSpaceOnUse">
<stop stop-color="#BFAB8D"/>
<stop offset="0.5078" stop-color="#E7E1D2"/>
<stop offset="1" stop-color="#CCBFA6"/>
</linearGradient>
<linearGradient id="paint1_linear_120_38971" x1="22.0817" y1="11.2077" x2="-2.05021" y2="11.2948" gradientUnits="userSpaceOnUse">
<stop stop-color="#94938C"/>
<stop offset="0.2296" stop-color="#EDEBE1"/>
<stop offset="0.7988" stop-color="#EDEBE1"/>
<stop offset="1" stop-color="#94938C"/>
</linearGradient>
</defs>
</svg>
