<svg width="19" height="49" viewBox="0 0 19 49" fill="none" xmlns="http://www.w3.org/2000/svg">
<path d="M15.8736 27.5668C13.9686 27.5568 12.0341 27.3812 10.1323 27.2288C7.82901 27.0442 4.59475 27.1571 2.4915 26.0565C2.29914 25.9558 2.23562 25.6133 2.05869 25.4922C1.65628 26.8414 2.00063 29.0035 2.08002 30.3849C2.30731 34.334 2.48198 38.2904 2.44387 42.2468C2.42255 44.4307 2.67115 43.8664 2.47471 46.0408C2.20341 49.0435 10.2149 48.8099 10.9644 46.817C11.8023 44.5881 12.5631 42.3325 13.1334 40.017C13.7645 37.4543 14.0453 34.829 14.6378 32.2567C15.0003 30.6816 15.4281 29.121 15.8736 27.5668Z" fill="url(#paint0_linear_120_38956)"/>
<path d="M18.0644 8.81525C18.0644 8.81525 19.0429 3.58538 16.7542 1.95218C14.4654 0.318987 13.4855 0.97317 13.4855 0.97317C12.5392 1.23176 11.5883 1.47401 10.6356 1.70674C9.0668 2.08964 7.37326 2.63859 5.74732 2.5964C5.42159 2.58778 5.09495 2.55148 4.77103 2.58415C2.348 2.82641 1.95466 5.40684 1.59082 7.29727C1.124 9.7212 0.795101 12.1778 0.600932 14.6385C0.440787 16.6705 0.362747 18.7256 0.534233 20.7598C0.658538 22.2333 0.864506 23.9164 1.72965 25.1649C2.93867 26.9092 5.15437 27.7018 7.13599 28.1577C9.65111 28.7366 12.2942 28.8727 14.8665 28.7643C16.2651 28.7049 16.6548 25.5882 16.7328 24.5992C17.1479 19.3339 17.5894 14.0737 18.0644 8.81525Z" fill="url(#paint1_linear_120_38956)"/>
<defs>
<linearGradient id="paint0_linear_120_38956" x1="11.6815" y1="36.8708" x2="3.51322" y2="36.9037" gradientUnits="userSpaceOnUse">
<stop stop-color="#BFAB8D"/>
<stop offset="0.5078" stop-color="#E7E1D2"/>
<stop offset="1" stop-color="#CCBFA6"/>
</linearGradient>
<linearGradient id="paint1_linear_120_38956" x1="22.7362" y1="14.7842" x2="-3.59134" y2="14.8902" gradientUnits="userSpaceOnUse">
<stop stop-color="#94938C"/>
<stop offset="0.2296" stop-color="#EDEBE1"/>
<stop offset="0.7988" stop-color="#EDEBE1"/>
<stop offset="1" stop-color="#94938C"/>
</linearGradient>
</defs>
</svg>
