<svg width="18" height="46" viewBox="0 0 18 46" fill="none" xmlns="http://www.w3.org/2000/svg">
<path d="M14.5916 23.3203C14.5916 23.3203 6.42065 27.2423 4.13281 23.9741C4.22264 27.1856 4.27798 30.3989 4.32017 33.6113C4.33923 35.0567 4.3551 36.5021 4.36645 37.9479C4.40319 42.613 10.1425 48.2497 10.9569 43.8102C13.4974 33.7383 14.2555 25.6676 14.5916 23.3203Z" fill="url(#paint0_linear_120_38950)"/>
<path d="M15.8455 0.883268C15.0729 0.486767 13.8693 0.731745 13.0228 0.724486C11.4522 0.71133 9.88162 0.715869 8.31148 0.761235C6.55716 0.812046 4.1178 0.61153 2.49549 1.42268C0.937603 2.20162 0.772029 4.14738 0.81921 5.67577C1.00612 11.7136 1.39492 18.0676 3.83019 23.6807C4.54335 25.3244 5.53869 26.983 7.09658 27.9502C9.51053 29.4491 12.2738 28.5803 13.6498 26.1804C14.7513 24.2596 15.175 22.0453 15.4059 19.8732C15.5806 18.2286 15.4712 16.5718 15.5878 14.9241C15.7108 13.1875 16.223 11.5026 16.5029 9.7864C16.9452 7.07259 17.4805 4.24083 16.4693 1.58735C16.3395 1.24529 16.1195 1.0239 15.8455 0.883268Z" fill="url(#paint1_linear_120_38950)"/>
<defs>
<linearGradient id="paint0_linear_120_38950" x1="2.82389" y1="34.3386" x2="11.4412" y2="34.3697" gradientUnits="userSpaceOnUse">
<stop stop-color="#BFAB8D"/>
<stop offset="0.5078" stop-color="#E7E1D2"/>
<stop offset="1" stop-color="#CCBFA6"/>
</linearGradient>
<linearGradient id="paint1_linear_120_38950" x1="-1.90116" y1="14.6227" x2="20.2918" y2="14.7029" gradientUnits="userSpaceOnUse">
<stop stop-color="#94938C"/>
<stop offset="0.2296" stop-color="#EDEBE1"/>
<stop offset="0.7988" stop-color="#EDEBE1"/>
<stop offset="1" stop-color="#94938C"/>
</linearGradient>
</defs>
</svg>
