<svg width="16" height="45" viewBox="0 0 16 45" fill="none" xmlns="http://www.w3.org/2000/svg">
<path d="M2.47048 24.8906C2.47048 29.176 1.97372 33.4436 1.48105 37.7126C1.10724 40.9495 9.36968 46.1957 10.1649 43.4374C10.7366 41.4549 11.8589 36.8143 12.171 35.0773C12.2767 34.4875 13.2004 26.9058 13.5833 26.8514C13.5796 26.8518 4.43119 28.1584 2.47048 24.8906Z" fill="url(#paint0_linear_120_38944)"/>
<path d="M15.0773 0.851936C14.9285 0.716289 14.6658 0.687729 14.1794 0.646899C13.4354 0.584747 12.6624 0.639181 11.9166 0.640542C8.87654 0.64644 5.83653 0.70631 2.79651 0.70631C2.79651 0.70631 -0.14507 1.36005 0.18157 2.99416C0.50821 4.62827 1.48902 24.8927 2.4694 26.1997C3.44977 27.5071 5.73763 31.7562 10.6404 30.4487C15.5427 29.1412 14.5623 17.7025 14.5623 17.702C14.433 15.6301 14.9539 13.3355 15.095 11.264C15.3045 8.1891 15.4837 5.08739 15.3077 2.00608C15.2692 1.33057 15.2551 1.01435 15.0773 0.851936Z" fill="url(#paint1_linear_120_38944)"/>
<defs>
<linearGradient id="paint0_linear_120_38944" x1="12.5739" y1="34.5265" x2="-2.16728" y2="34.5798" gradientUnits="userSpaceOnUse">
<stop stop-color="#BFAB8D"/>
<stop offset="0.5078" stop-color="#E7E1D2"/>
<stop offset="1" stop-color="#CCBFA6"/>
</linearGradient>
<linearGradient id="paint1_linear_120_38944" x1="17.634" y1="15.6328" x2="-1.90901" y2="15.7034" gradientUnits="userSpaceOnUse">
<stop stop-color="#94938C"/>
<stop offset="0.2296" stop-color="#EDEBE1"/>
<stop offset="0.7988" stop-color="#EDEBE1"/>
<stop offset="1" stop-color="#94938C"/>
</linearGradient>
</defs>
</svg>
