<svg width="16" height="45" viewBox="0 0 16 45" fill="none" xmlns="http://www.w3.org/2000/svg">
<path d="M13.082 24.8906C13.082 29.176 13.5787 33.4436 14.0714 37.7126C14.4452 40.9495 6.18248 46.1957 5.38719 43.4374C4.81556 41.4549 3.69316 36.8143 3.38103 35.0773C3.27533 34.4875 2.35165 26.9058 1.96875 26.8514C1.97283 26.8518 11.1216 28.1584 13.082 24.8906Z" fill="url(#paint0_linear_120_38941)"/>
<path d="M0.473802 0.851936C0.622604 0.716289 0.885279 0.687729 1.37161 0.646899C2.11562 0.584747 2.88866 0.639181 3.63449 0.640542C6.67451 0.64644 9.71454 0.70631 12.7546 0.70631C12.7546 0.70631 15.6961 1.36005 15.3695 2.99416C15.0428 4.62827 14.062 24.8927 13.0816 26.1997C12.1013 27.5071 9.81344 31.7562 4.91067 30.4487C0.0083538 29.1412 0.988717 17.7025 0.988717 17.702C1.11801 15.6301 0.597193 13.3355 0.456103 11.264C0.246509 8.1891 0.0673133 5.08739 0.243336 2.00608C0.281444 1.33057 0.295965 1.01435 0.473802 0.851936Z" fill="url(#paint1_linear_120_38941)"/>
<defs>
<linearGradient id="paint0_linear_120_38941" x1="2.97852" y1="34.5265" x2="17.7203" y2="34.5798" gradientUnits="userSpaceOnUse">
<stop stop-color="#BFAB8D"/>
<stop offset="0.5078" stop-color="#E7E1D2"/>
<stop offset="1" stop-color="#CCBFA6"/>
</linearGradient>
<linearGradient id="paint1_linear_120_38941" x1="-2.08301" y1="15.6328" x2="17.46" y2="15.7034" gradientUnits="userSpaceOnUse">
<stop stop-color="#94938C"/>
<stop offset="0.2296" stop-color="#EDEBE1"/>
<stop offset="0.7988" stop-color="#EDEBE1"/>
<stop offset="1" stop-color="#94938C"/>
</linearGradient>
</defs>
</svg>
