<svg width="18" height="46" viewBox="0 0 18 46" fill="none" xmlns="http://www.w3.org/2000/svg">
<path d="M3.3125 23.3203C3.3125 23.3203 11.4835 27.2423 13.7713 23.9741C13.6815 27.1856 13.6261 30.3989 13.5839 33.6113C13.5649 35.0567 13.549 36.5021 13.5377 37.9479C13.5009 42.613 7.7616 48.2497 6.94727 43.8102C4.40675 33.7383 3.64867 25.6676 3.3125 23.3203Z" fill="url(#paint0_linear_120_38947)"/>
<path d="M2.05253 0.883268C2.82512 0.486767 4.02868 0.731745 4.87522 0.724486C6.44581 0.71133 8.0164 0.715869 9.58653 0.761235C11.3409 0.812046 13.7802 0.61153 15.4025 1.42268C16.9604 2.20162 17.126 4.14738 17.0788 5.67577C16.8919 11.7136 16.5031 18.0676 14.0678 23.6807C13.3547 25.3244 12.3593 26.983 10.8014 27.9502C8.38749 29.4491 5.62423 28.5803 4.24826 26.1804C3.14677 24.2596 2.72305 22.0453 2.49213 19.8732C2.31747 18.2286 2.42679 16.5718 2.3102 14.9241C2.18726 13.1875 1.67507 11.5026 1.39516 9.7864C0.952839 7.07259 0.417525 4.24083 1.42874 1.58735C1.55849 1.24529 1.77807 1.0239 2.05253 0.883268Z" fill="url(#paint1_linear_120_38947)"/>
<defs>
<linearGradient id="paint0_linear_120_38947" x1="15.0802" y1="34.3386" x2="6.46292" y2="34.3697" gradientUnits="userSpaceOnUse">
<stop stop-color="#BFAB8D"/>
<stop offset="0.5078" stop-color="#E7E1D2"/>
<stop offset="1" stop-color="#CCBFA6"/>
</linearGradient>
<linearGradient id="paint1_linear_120_38947" x1="19.7991" y1="14.6227" x2="-2.39375" y2="14.7029" gradientUnits="userSpaceOnUse">
<stop stop-color="#94938C"/>
<stop offset="0.2296" stop-color="#EDEBE1"/>
<stop offset="0.7988" stop-color="#EDEBE1"/>
<stop offset="1" stop-color="#94938C"/>
</linearGradient>
</defs>
</svg>
