<svg width="19" height="49" viewBox="0 0 19 49" fill="none" xmlns="http://www.w3.org/2000/svg">
<path d="M3.21875 27.5668C5.12374 27.5568 7.05823 27.3812 8.96005 27.2288C11.2634 27.0442 14.4976 27.1571 16.6009 26.0565C16.7932 25.9558 16.8568 25.6133 17.0337 25.4922C17.4361 26.8414 17.0918 29.0035 17.0124 30.3849C16.7851 34.334 16.6104 38.2904 16.6485 42.2468C16.6698 44.4307 16.4212 43.8664 16.6177 46.0408C16.889 49.0435 8.87747 48.8099 8.12799 46.817C7.29005 44.5881 6.52923 42.3325 5.95896 40.017C5.32789 37.4543 5.04708 34.829 4.45458 32.2567C4.09209 30.6816 3.66426 29.121 3.21875 27.5668Z" fill="url(#paint0_linear_120_38953)"/>
<path d="M1.02822 8.81525C1.02822 8.81525 0.0497002 3.58538 2.33839 1.95218C4.62707 0.318987 5.60696 0.97317 5.60696 0.97317C6.55328 1.23176 7.50413 1.47401 8.4568 1.70674C10.0255 2.08964 11.719 2.63859 13.3449 2.5964C13.6707 2.58778 13.9973 2.55148 14.3212 2.58415C16.7442 2.82641 17.1375 5.40684 17.5013 7.29727C17.9681 9.7212 18.297 12.1778 18.4912 14.6385C18.6513 16.6705 18.7289 18.7256 18.5579 20.7598C18.434 22.2333 18.2276 23.9164 17.3625 25.1649C16.154 26.9092 13.9379 27.7018 11.9563 28.1577C9.44124 28.7366 6.79825 28.8727 4.22604 28.7643C2.82742 28.7049 2.43772 25.5882 2.3597 24.5992C1.94506 19.3339 1.50365 14.0737 1.02822 8.81525Z" fill="url(#paint1_linear_120_38953)"/>
<defs>
<linearGradient id="paint0_linear_120_38953" x1="7.4109" y1="36.8708" x2="15.5791" y2="36.9037" gradientUnits="userSpaceOnUse">
<stop stop-color="#BFAB8D"/>
<stop offset="0.5078" stop-color="#E7E1D2"/>
<stop offset="1" stop-color="#CCBFA6"/>
</linearGradient>
<linearGradient id="paint1_linear_120_38953" x1="-3.64307" y1="14.7842" x2="22.6838" y2="14.8902" gradientUnits="userSpaceOnUse">
<stop stop-color="#94938C"/>
<stop offset="0.2296" stop-color="#EDEBE1"/>
<stop offset="0.7988" stop-color="#EDEBE1"/>
<stop offset="1" stop-color="#94938C"/>
</linearGradient>
</defs>
</svg>
