<svg width="19" height="47" viewBox="0 0 19 47" fill="none" xmlns="http://www.w3.org/2000/svg">
<path d="M4.09375 20.9535C4.89674 26.2097 6.31264 31.4618 8.15589 36.4417C9.31728 39.5788 10.6447 42.7163 12.493 45.4687C13.8694 47.5184 18.8842 46.9227 18.5903 46.1288C16.7965 41.2864 16.3587 35.9572 15.8474 30.8557C15.5235 27.6261 14.7554 23.6674 15.5167 20.4477C16.3342 16.9917 4.6005 20.3393 4.09375 20.9535Z" fill="url(#paint0_linear_120_38966)"/>
<path d="M14.232 0.963938C13.5053 0.636411 12.7473 0.628714 11.7347 0.877308C11.4607 0.944446 11.1685 1.04879 11.0197 1.28831C10.3225 2.40789 16.0421 4.55767 16.7253 3.61819C17.13 3.05931 15.6043 1.94381 15.285 1.66663C14.9248 1.35317 14.5818 1.12135 14.232 0.963938Z" fill="#D8D6D0"/>
<path d="M4.29685 1.15066C3.95934 1.25228 3.70258 1.36117 3.59461 1.45599C3.04842 1.93599 2.48092 2.44685 2.2364 3.13146C2.13842 3.40594 2.12798 3.77388 2.37748 3.9245C2.46186 3.97532 2.56258 3.99075 2.66057 3.99891C3.80511 4.09283 5.12929 3.34878 6.09736 2.81751C6.45574 2.62107 7.99679 1.91195 7.92647 1.35437C7.81941 0.509153 5.52396 0.781808 4.29685 1.15066Z" fill="#D8D6D0"/>
<path d="M2.28231 3.2611C2.28231 3.2611 -0.00542126 4.89522 1.30199 9.14428C1.95569 15.0274 3.91681 20.9106 3.91681 20.9106C3.91681 20.9106 4.57052 21.891 9.146 21.891C13.7215 21.891 15.0289 21.2372 15.6826 19.9298C16.3363 18.6223 17.9703 6.20224 17.9703 6.20224C17.9703 6.20224 17.6437 3.26065 16.3363 2.93401C15.0289 2.60737 13.7215 2.28029 13.3948 2.28029C13.0682 2.28029 10.1268 0.319077 8.81937 0.646172C7.5115 0.973267 4.24343 3.58819 2.28231 3.2611Z" fill="url(#paint1_linear_120_38966)"/>
<defs>
<linearGradient id="paint0_linear_120_38966" x1="7.17787" y1="32.8585" x2="17.0642" y2="32.8942" gradientUnits="userSpaceOnUse">
<stop stop-color="#BFAB8D"/>
<stop offset="0.5078" stop-color="#E7E1D2"/>
<stop offset="1" stop-color="#CCBFA6"/>
</linearGradient>
<linearGradient id="paint1_linear_120_38966" x1="-2.73545" y1="11.2077" x2="21.3955" y2="11.2948" gradientUnits="userSpaceOnUse">
<stop stop-color="#94938C"/>
<stop offset="0.2296" stop-color="#EDEBE1"/>
<stop offset="0.7988" stop-color="#EDEBE1"/>
<stop offset="1" stop-color="#94938C"/>
</linearGradient>
</defs>
</svg>
