<svg width="26" height="44" viewBox="0 0 26 44" fill="none" xmlns="http://www.w3.org/2000/svg">
<path d="M6.09728 2.48882C6.42891 6.02289 8.00086 17.2357 10.7034 17.4667C13.4059 17.6976 18.3482 11.3467 16.0998 7.80853C15.3113 6.5682 14.3423 4.99942 13.4522 3.36077C12.8315 2.21889 5.76519 -1.04479 6.09728 2.48882Z" fill="url(#paint0_linear_120_39061)"/>
<path d="M22.7995 25.6391C19.6007 25.4087 15.971 23.8449 12.7663 23.7183C10.7561 23.6389 8.74502 23.506 6.73257 23.5704C5.8021 23.5999 4.41797 26.0805 3.51609 25.9657C2.93086 25.8913 3.31693 23.4878 3.34098 22.8659C3.36139 22.3364 3.40631 21.8093 3.32873 21.2817C3.05018 19.3799 2.00403 17.5743 1.56897 15.6726C1.0654 13.4727 0.725152 11.2303 0.516013 8.98373C0.294172 6.60063 0.200714 4.16626 0.512381 1.78634C0.646665 0.760149 5.89692 1.8993 5.98766 3.25667C6.08746 4.74968 6.49439 6.13244 6.82919 7.58145C7.45071 10.2739 8.18474 13.4428 9.94859 15.6499C10.3778 16.187 11.0229 16.6216 11.7074 16.5568C12.0586 16.5232 12.3866 16.3617 12.6733 16.1562C13.7063 15.4153 14.2316 14.1369 14.4108 12.8784C14.7778 10.2998 14.5016 7.45533 13.8124 4.95564C13.4082 3.48849 12.6615 2.17467 12.2051 0.740185C11.7229 -0.776416 19.6402 2.16651 21.0234 5.12213C21.8718 6.93452 22.6906 8.80816 23.2128 10.7453C23.5267 11.9099 23.4932 13.0703 23.4601 14.273C23.3684 17.6351 23.1733 22.3056 22.7995 25.6391Z" fill="url(#paint1_linear_120_39061)"/>
<path d="M3.85693 27.8068C3.58473 27.8899 3.19458 28.6293 3.0435 28.8421C2.44512 29.6864 1.92703 30.5951 1.53915 31.556C0.493896 34.1451 0.645411 36.9846 2.60616 39.1055C2.6293 39.1305 2.65289 39.1554 2.67603 39.1804C2.78173 39.2915 2.89198 39.3999 2.97818 39.5265C3.21998 39.8817 3.2776 40.3268 3.5067 40.6911C3.7231 41.0354 4.04112 41.3575 4.34916 41.6175C5.07458 42.23 6.04089 42.6555 7.00584 42.5602C7.33747 42.5276 7.65368 42.4096 7.96535 42.2926C9.31864 41.7845 10.7881 41.2051 11.5058 39.8613C11.4241 40.0147 11.7966 40.6385 11.8905 40.7655C12.1155 41.0713 12.3913 41.2042 12.7393 41.3385C13.8884 41.7826 15.1392 42.1392 16.2407 42.69C17.002 42.9831 17.6443 43.2616 18.4188 43.0076C18.8697 42.8597 19.3266 42.7299 19.7725 42.5666C20.6073 42.2613 21.9959 41.7268 21.9959 40.6439C21.9959 38.9694 23.3914 33.9464 20.0424 28.9233C16.6948 23.9021 3.86736 27.8037 3.85693 27.8068Z" fill="#D8D6D0"/>
<path d="M3.84022 23.6796C3.52129 23.7767 3.064 24.6432 2.88752 24.8923C2.18661 25.8812 1.58006 26.9455 1.12548 28.0706C-0.0989598 31.1034 0.0788788 34.4292 2.37488 36.9126C2.4021 36.9416 2.42978 36.9711 2.457 37.0001C2.58085 37.1303 2.70968 37.2573 2.81085 37.4057C3.09439 37.8222 3.16154 38.3425 3.42965 38.7699C3.6828 39.1727 4.05526 39.5502 4.41637 39.855C5.26609 40.5723 6.39799 41.0704 7.52762 40.9593C7.91595 40.9212 8.28614 40.7828 8.65134 40.6458C10.2364 40.051 11.9577 39.3719 12.7983 37.7981C12.7026 37.9773 13.139 38.7082 13.2488 38.8574C13.5124 39.2154 13.8358 39.371 14.2428 39.5284C15.5888 40.0488 17.0537 40.4661 18.3439 41.1112C19.2354 41.4547 19.9875 41.7808 20.8949 41.4832C21.4229 41.3099 21.9583 41.158 22.4804 40.967C23.4581 40.6095 25.0849 39.9834 25.0849 38.715C25.0849 36.7538 26.719 30.8706 22.7971 24.9875C18.8765 19.1062 3.85292 23.676 3.84022 23.6796Z" fill="url(#paint2_linear_120_39061)"/>
<defs>
<linearGradient id="paint0_linear_120_39061" x1="14.4555" y1="16.3782" x2="0.944459" y2="-16.6429" gradientUnits="userSpaceOnUse">
<stop offset="0.1599" stop-color="#BFAB8D"/>
<stop offset="0.5078" stop-color="#E7E1D2"/>
<stop offset="0.7297" stop-color="#CCBFA6"/>
</linearGradient>
<linearGradient id="paint1_linear_120_39061" x1="1.50427" y1="12.8476" x2="22.4146" y2="13.7931" gradientUnits="userSpaceOnUse">
<stop offset="0.1599" stop-color="#BFAB8D"/>
<stop offset="0.5078" stop-color="#E7E1D2"/>
<stop offset="0.7297" stop-color="#CCBFA6"/>
</linearGradient>
<linearGradient id="paint2_linear_120_39061" x1="-5.41566" y1="34.119" x2="29.4068" y2="30.4621" gradientUnits="userSpaceOnUse">
<stop stop-color="#94938C"/>
<stop offset="0.2296" stop-color="#EDEBE1"/>
<stop offset="0.7988" stop-color="#EDEBE1"/>
<stop offset="1" stop-color="#94938C"/>
</linearGradient>
</defs>
</svg>
