<svg width="29" height="45" viewBox="0 0 29 45" fill="none" xmlns="http://www.w3.org/2000/svg">
<path d="M9.188 0.653332C7.87508 0.7427 6.86159 1.12786 5.78368 1.86821C5.49197 2.06872 5.21568 2.31051 5.2733 2.59721C5.54187 3.93637 15.4173 2.86033 15.3225 1.68584C15.2635 0.988134 12.052 0.801234 11.333 0.72366C10.5213 0.635653 9.81996 0.610236 9.188 0.653332Z" fill="#D8D6D0"/>
<path d="M13.7822 43.7939C12.6648 41.8672 11.786 39.7245 10.9703 37.6862C10.2953 35.9995 7.39671 30.0682 8.92197 28.6346C10.4354 27.2119 16.3682 29.9208 16.6721 33.727C16.8373 35.7917 16.9062 37.8622 17.2615 39.9278C17.6475 42.1725 14.6614 45.3101 13.7822 43.7939Z" fill="url(#paint0_linear_120_38991)"/>
<path d="M2.57612 20.7461C2.76394 21.5205 2.93042 22.3085 2.96716 22.4609C3.28246 23.7689 3.55604 25.0872 3.77562 26.4147C3.95481 27.4994 4.09817 28.59 4.20478 29.6847C4.30822 30.7454 4.21793 31.9131 4.41981 32.9529C4.61897 33.9778 4.98419 35.053 5.32943 36.0429C6.36606 39.0158 7.93621 41.7823 9.80079 44.311C10.7363 45.5795 14.9436 43.2689 14.513 41.3381C13.9478 38.8048 13.7028 36.1908 14.1674 33.7868C14.2526 33.3454 14.386 32.8894 14.7027 32.5705C15.1178 32.1527 15.7824 32.0588 16.3504 32.2153C16.9184 32.3718 17.4029 32.7434 17.8257 33.1535C19.277 34.5621 20.3082 36.5424 21.1951 38.3434C21.8666 39.7072 22.3597 41.1603 22.6432 42.6542C22.9145 44.0842 28.5768 43.0144 28.6671 40.7638C28.7805 37.9274 28.3767 35.1011 27.9371 32.3069C27.3387 28.5029 26.5697 24.7248 25.7109 20.9716C25.6778 20.8259 25.2106 18.4582 25.1162 18.4609C25.1162 18.4609 2.2413 19.0956 2.03125 19.1015C2.14784 19.0983 2.37424 19.9145 2.57612 20.7461Z" fill="url(#paint1_linear_120_38991)"/>
<path d="M20.4739 0.479224C19.2879 0.411622 18.3225 0.670698 17.2431 1.27277C16.951 1.43565 16.6661 1.64163 16.672 1.93064C16.6987 3.28268 25.6831 3.39384 25.7852 2.22464C25.8432 1.52956 23.0068 0.964241 22.3775 0.802268C21.6671 0.620332 21.0451 0.511891 20.4739 0.479224Z" fill="#D8D6D0"/>
<path d="M4.53151 1.52908C3.57835 1.62435 2.68055 1.99137 1.90704 2.79799C0.910331 3.83732 0.411275 5.27907 0.287876 6.71355C0.0233868 9.79119 0.550119 13.4513 1.31909 16.4328C1.56316 17.3791 1.58765 19.368 2.23731 20.0984C4.25886 22.3708 8.70075 21.2652 11.3887 21.0788C14.4674 20.8651 17.7819 20.763 20.5402 20.0984C22.3662 20.0068 25.7193 20.411 26.2736 17.9961C26.9088 15.2283 27.2998 12.3979 27.4305 9.56118C27.5285 7.44167 27.8379 2.2046 24.7911 1.79585C24.3451 1.73597 23.5925 2.23863 23.1456 2.34025C22.2133 2.55165 21.3037 2.52307 20.3782 2.27718C19.24 1.97504 18.1829 1.43064 17.0918 0.987412C16.8546 0.891236 16.6078 0.798234 16.3519 0.805039C15.7689 0.820918 15.3406 1.32585 14.8743 1.67608C12.9112 3.15139 9.3926 2.38607 7.22542 1.81944C6.31581 1.58172 5.40074 1.44243 4.53151 1.52908Z" fill="url(#paint2_linear_120_38991)"/>
<defs>
<linearGradient id="paint0_linear_120_38991" x1="11.5994" y1="27.7777" x2="17.6128" y2="62.0942" gradientUnits="userSpaceOnUse">
<stop offset="0.1599" stop-color="#BFAB8D"/>
<stop offset="0.5078" stop-color="#E7E1D2"/>
<stop offset="0.7297" stop-color="#CCBFA6"/>
</linearGradient>
<linearGradient id="paint1_linear_120_38991" x1="4.62764" y1="31.5198" x2="27.1547" y2="31.6011" gradientUnits="userSpaceOnUse">
<stop stop-color="#BFAB8D"/>
<stop offset="0.5078" stop-color="#E7E1D2"/>
<stop offset="1" stop-color="#CCBFA6"/>
</linearGradient>
<linearGradient id="paint2_linear_120_38991" x1="-5.4871" y1="11.0975" x2="33.3586" y2="11.2378" gradientUnits="userSpaceOnUse">
<stop stop-color="#94938C"/>
<stop offset="0.2296" stop-color="#EDEBE1"/>
<stop offset="0.7988" stop-color="#EDEBE1"/>
<stop offset="1" stop-color="#94938C"/>
</linearGradient>
</defs>
</svg>
