<svg width="27" height="44" viewBox="0 0 27 44" fill="none" xmlns="http://www.w3.org/2000/svg">
<path d="M15.9552 41.558C16.1571 43.5152 14.8873 43.9602 13.986 42.597C12.2436 39.9607 11.5713 36.2864 10.9997 32.9323C10.7348 31.3794 9.42474 25.8183 10.7167 24.8937C11.9986 23.9768 15.928 27.3862 15.6445 30.6608C15.4907 32.4374 15.2666 34.2008 15.2503 36.0142C15.2326 37.9849 15.757 39.6408 15.9552 41.558Z" fill="url(#paint0_linear_120_38977)"/>
<path d="M4.32812 19.2966C5.01361 21.255 5.56619 23.2993 5.88511 25.3498C6.09969 26.7299 6.06794 27.9566 5.85835 29.3225C5.50586 31.6181 5.48043 34.0139 5.57933 36.3294C5.68458 38.7896 6.52159 40.8356 7.4829 42.917C7.93293 43.8915 12.6569 43.9487 12.6547 42.4008C12.6537 41.7253 12.6315 41.0815 12.6479 40.5448C12.7214 38.1268 12.7703 35.692 13.2539 33.3125C13.4622 32.2882 13.7548 31.2669 14.2897 30.3687C14.8214 29.4754 15.804 29.0399 16.7453 29.6832C17.9988 30.5397 18.2815 32.4161 18.7142 33.7517C19.1203 35.0042 19.4882 36.269 19.8434 37.537C20.1905 38.776 20.5194 40.0199 20.8478 41.2643C20.9939 41.8187 24.3601 42.2942 24.5533 41.6667C24.7947 40.8819 25.0188 40.0912 25.2425 39.3009C25.7819 37.396 26.2782 35.4964 26.3943 33.5126C26.5526 30.8078 25.487 28.1353 24.9662 25.5172C24.4127 22.7349 24.067 19.9113 23.9346 17.0777C23.9259 16.8912 23.9114 16.6885 23.7853 16.5506C23.6152 16.3646 23.3235 16.379 23.0735 16.4076C20.0017 16.7597 16.9236 17.0459 13.855 17.4297C11.7786 17.6879 9.69951 17.961 7.64124 18.3402C6.73346 18.5072 5.03085 18.5938 4.32812 19.2966Z" fill="url(#paint1_linear_120_38977)"/>
<path d="M1.92746 15.0542C1.82493 13.8275 1.85306 12.5844 1.61942 11.3727C1.25467 9.48136 0.299689 7.83363 0.434881 5.82979C0.760613 1.00551 7.50253 0.632602 10.8923 1.96865C12.3019 2.52393 12.8803 1.99949 14.0653 1.2514C15.3492 0.440245 16.8639 0.015625 18.3814 0.015625C20.1167 0.015625 22.0316 0.509213 23.5138 1.42108C25.7063 2.77028 25.7045 4.98371 25.8551 7.30693C26.0216 9.87649 25.9627 12.5232 25.1129 14.9807C24.853 15.7329 24.5087 16.4719 23.967 17.0549C23.1971 17.8837 22.2163 17.993 21.1761 18.2326C19.7561 18.5597 18.3202 18.8364 16.8889 19.1072C14.0821 19.6385 11.2489 20.0708 8.39309 20.2142C7.03889 20.2822 5.63663 20.1448 4.43396 19.5182C2.69234 18.6114 2.08216 16.9056 1.92746 15.0542Z" fill="url(#paint2_linear_120_38977)"/>
<defs>
<linearGradient id="paint0_linear_120_38977" x1="12.7639" y1="24.6273" x2="10.6541" y2="63.4331" gradientUnits="userSpaceOnUse">
<stop offset="0.1599" stop-color="#BFAB8D"/>
<stop offset="0.5078" stop-color="#E7E1D2"/>
<stop offset="0.7297" stop-color="#CCBFA6"/>
</linearGradient>
<linearGradient id="paint1_linear_120_38977" x1="6.60493" y1="31.9031" x2="24.0989" y2="28.4989" gradientUnits="userSpaceOnUse">
<stop stop-color="#BFAB8D"/>
<stop offset="0.5078" stop-color="#E7E1D2"/>
<stop offset="1" stop-color="#CCBFA6"/>
</linearGradient>
<linearGradient id="paint2_linear_120_38977" x1="-3.65058" y1="13.1383" x2="29.6477" y2="6.65882" gradientUnits="userSpaceOnUse">
<stop stop-color="#94938C"/>
<stop offset="0.2114" stop-color="#EDEBE1"/>
<stop offset="0.847" stop-color="#EDEBE1"/>
<stop offset="1" stop-color="#94938C"/>
</linearGradient>
</defs>
</svg>
