<svg width="25" height="40" viewBox="0 0 25 40" fill="none" xmlns="http://www.w3.org/2000/svg">
<path d="M15.6386 36.7703C15.9335 38.6235 14.7477 39.1144 13.8177 37.8627C12.0203 35.4433 11.187 31.9791 10.4666 28.8148C10.1327 27.3494 8.59343 22.1218 9.77564 21.1736C10.9488 20.2332 14.8697 23.2741 14.7712 26.4081C14.7177 28.108 14.597 29.7992 14.6764 31.5273C14.7626 33.405 15.3492 34.9543 15.6386 36.7703Z" fill="url(#paint0_linear_120_38983)"/>
<path d="M3.16406 13.4644C3.16406 13.4644 4.47154 17.0597 4.47154 20.9817C4.47154 24.9036 4.14442 29.8065 6.43271 33.4018C8.72054 36.9971 9.37431 38.6312 9.37431 38.6312C9.37431 38.6312 11.3355 40.9191 12.3159 38.3046C12.3159 38.3046 10.028 30.4602 11.3355 26.5382C12.6429 22.6162 13.9504 23.9233 14.277 24.577C14.6037 25.2307 19.1798 32.748 19.8335 34.7093C20.4873 36.6705 21.4676 38.6312 22.1214 38.6312C22.7751 38.6312 23.7555 36.9971 24.4092 34.0555C25.0629 31.1139 24.4092 27.8457 23.1017 25.5574C21.7943 23.2695 20.4873 13.1373 20.4873 11.5031C20.4868 9.86948 4.79816 12.8111 3.16406 13.4644Z" fill="url(#paint1_linear_120_38983)"/>
<path d="M10.717 3.19579C10.4067 3.1223 10.0855 2.91951 9.71258 2.67408C8.7 2.00675 7.64841 1.36301 6.48022 1.03864C5.31158 0.714273 3.9969 0.742409 2.9571 1.36619C2.22579 1.80489 1.68409 2.49988 1.23813 3.22665C0.540397 4.36398 0.0254792 5.68549 0.185623 7.01019C0.367996 8.52088 0.967299 10.0085 1.58202 11.3885C1.95493 12.2255 2.26568 13.1805 2.93756 13.8355C3.72149 14.5995 5.03941 14.707 6.07241 14.8517C8.29446 15.1625 10.5256 14.8839 12.695 14.369C14.8517 13.8569 17.0806 13.2889 19.1779 12.5748C19.5549 12.4464 19.9314 12.2981 20.2472 12.0558C21.1323 11.3758 21.3142 9.83016 21.527 8.81033C21.85 7.26016 21.6526 5.65737 21.0184 4.21246C20.2018 2.35199 18.6403 0.709746 16.567 0.390821C15.0831 0.162629 13.7656 0.467027 12.7671 1.61706C12.4364 1.99814 12.1733 2.4409 11.8158 2.79884C11.4216 3.19307 11.0768 3.28108 10.717 3.19579Z" fill="url(#paint2_linear_120_38983)"/>
<defs>
<linearGradient id="paint0_linear_120_38983" x1="11.708" y1="20.8078" x2="11.7321" y2="57.8772" gradientUnits="userSpaceOnUse">
<stop offset="0.1599" stop-color="#BFAB8D"/>
<stop offset="0.5078" stop-color="#E7E1D2"/>
<stop offset="0.7297" stop-color="#CCBFA6"/>
</linearGradient>
<linearGradient id="paint1_linear_120_38983" x1="5.05859" y1="25.2515" x2="21.8167" y2="25.3121" gradientUnits="userSpaceOnUse">
<stop stop-color="#BFAB8D"/>
<stop offset="0.5078" stop-color="#E7E1D2"/>
<stop offset="1" stop-color="#CCBFA6"/>
</linearGradient>
<linearGradient id="paint2_linear_120_38983" x1="-6.19451" y1="7.58648" x2="27.8452" y2="7.70947" gradientUnits="userSpaceOnUse">
<stop stop-color="#94938C"/>
<stop offset="0.2614" stop-color="#EDEBE1"/>
<stop offset="0.7687" stop-color="#EDEBE1"/>
<stop offset="1" stop-color="#94938C"/>
</linearGradient>
</defs>
</svg>
