<svg width="19" height="45" viewBox="0 0 19 45" fill="none" xmlns="http://www.w3.org/2000/svg">
<path d="M9.16794 43.6397C9.16794 43.6397 3.86902 44.7353 1.99126 41.9829C0.113046 39.23 8.53642 41.9793 9.16794 43.6397Z" fill="#D8D6D0"/>
<path d="M9.94531 43.8745C9.94531 43.8745 15.5888 44.256 16.9929 40.5969C18.3971 36.9378 10.2783 41.7564 9.94531 43.8745Z" fill="#D8D6D0"/>
<path d="M12.1981 23.3396C12.2812 23.3804 12.3601 23.4267 12.4345 23.4789C13.8722 24.4833 15.0839 26.1106 15.9981 27.5828C17.3872 29.8194 18.3789 32.3776 18.1117 35.047C17.9293 36.8716 17.7247 38.9698 16.8128 40.6085C16.2802 41.5657 15.083 42.0044 14.1081 42.3438C13.2729 42.6346 12.43 42.9077 11.6111 43.2429C10.8548 43.5523 10.1126 44.0799 9.26065 44.0119C8.28118 43.9334 7.59705 43.1658 6.81357 42.6677C5.58413 41.8865 4.11243 41.4859 2.65616 41.5562C2.40029 41.5684 2.13808 41.5943 1.89265 41.5194C1.5347 41.4106 1.27294 41.1066 1.06198 40.7981C0.101114 39.3945 0.126517 38.0344 0.118351 36.4021C0.109732 34.7435 0.141942 33.0749 0.458147 31.4417C1.02115 28.5314 2.94379 26.1238 3.95456 23.3768C4.01263 23.2185 4.0707 23.0565 4.17731 22.9259C4.35968 22.7022 4.6582 22.6056 4.94583 22.5824C5.48478 22.5389 6.02782 22.6224 6.56178 22.6795C7.57437 22.7884 8.56291 22.9014 9.58094 22.9712C10.388 23.027 11.4464 22.9681 12.1981 23.3396Z" fill="url(#paint0_linear_120_39046)"/>
<path d="M14.3396 25.256C14.3033 25.2855 14.2597 25.3086 14.2067 25.3231C13.9399 25.398 13.1179 24.9956 12.8271 24.9194C11.8631 24.6671 10.8882 24.4562 9.90735 24.2806C8.86802 24.0946 7.81826 23.9181 6.75988 23.9095C6.19961 23.905 5.63616 23.944 5.08769 24.0628C4.60046 24.1685 4.07558 24.5024 3.61421 24.5442C3.27805 23.2335 3.61921 21.7092 3.69723 20.3781C3.78388 18.8983 3.91998 17.4216 4.10462 15.9508C4.45121 13.1907 5.13986 10.5335 5.64206 7.80836C6.1311 5.15758 7.34827 0.577803 9.97948 0.713904C12.6107 0.850004 13.4717 5.14397 14.1985 7.11062C14.9243 9.07455 14.6898 15.7321 14.6186 18.6161C14.5728 20.4766 14.6789 22.4183 14.5324 24.3055C14.5052 24.6589 14.5569 25.0781 14.3396 25.256Z" fill="url(#paint1_linear_120_39046)"/>
<defs>
<linearGradient id="paint0_linear_120_39046" x1="-5.83171" y1="33.6992" x2="24.4046" y2="32.7678" gradientUnits="userSpaceOnUse">
<stop stop-color="#94938C"/>
<stop offset="0.2666" stop-color="#EDEBE1"/>
<stop offset="0.7117" stop-color="#EDEBE1"/>
<stop offset="1" stop-color="#94938C"/>
</linearGradient>
<linearGradient id="paint1_linear_120_39046" x1="1.3092" y1="14.1396" x2="15.1149" y2="12.6899" gradientUnits="userSpaceOnUse">
<stop stop-color="#BFAB8D"/>
<stop offset="0.5078" stop-color="#E7E1D2"/>
<stop offset="1" stop-color="#CCBFA6"/>
</linearGradient>
</defs>
</svg>
