<svg width="20" height="49" viewBox="0 0 20 49" fill="none" xmlns="http://www.w3.org/2000/svg">
<path d="M9.82735 47.6465C9.82735 47.6465 4.48133 48.4817 2.74016 45.6404C0.998983 42.7991 9.27796 45.9575 9.82735 47.6465Z" fill="#D8D6D0"/>
<path d="M4.46094 29.7267C4.46094 29.7267 4.78758 18.6142 5.76839 15.6726C6.4938 13.4964 7.21919 7.56334 7.41517 3.56472C7.44103 3.0362 13.7909 0.578243 13.9361 1.00197C15.2086 4.7066 16.0674 8.75693 15.9 11.0969C15.5734 15.6726 15.4699 29.4613 15.5216 29.4309C15.5734 29.4001 4.46094 29.7267 4.46094 29.7267Z" fill="url(#paint0_linear_120_39056)"/>
<path d="M15.2497 28.4224C15.2497 28.4224 22.7672 39.5348 17.211 45.4179C16.5323 46.1365 15.4648 46.6419 14.6377 47.1677C13.7839 47.7107 12.8729 48.4647 11.8322 48.5822C10.6385 48.7174 9.76476 47.4685 8.59155 47.2249C6.72648 46.8374 4.90134 47.1441 3.30848 45.872C1.99326 44.8218 1.1957 43.1845 0.924852 41.545C0.587316 39.4994 0.936647 37.4208 1.34405 35.4124C1.51781 34.5563 1.81361 33.742 2.15976 32.9399C2.5286 32.0852 3.19369 31.251 3.48314 30.3826C3.48314 30.3831 6.09767 22.5393 15.2497 28.4224Z" fill="url(#paint1_linear_120_39056)"/>
<defs>
<linearGradient id="paint0_linear_120_39056" x1="5.49751" y1="15.4741" x2="18.3899" y2="15.0769" gradientUnits="userSpaceOnUse">
<stop stop-color="#BFAB8D"/>
<stop offset="0.5078" stop-color="#E7E1D2"/>
<stop offset="1" stop-color="#CCBFA6"/>
</linearGradient>
<linearGradient id="paint1_linear_120_39056" x1="-2.7873" y1="37.8184" x2="23.9396" y2="36.995" gradientUnits="userSpaceOnUse">
<stop stop-color="#94938C"/>
<stop offset="0.0311" stop-color="#A6A59D"/>
<stop offset="0.0939" stop-color="#C5C3BB"/>
<stop offset="0.1552" stop-color="#DBD9D0"/>
<stop offset="0.2138" stop-color="#E8E7DD"/>
<stop offset="0.2666" stop-color="#EDEBE1"/>
<stop offset="0.7117" stop-color="#EDEBE1"/>
<stop offset="0.7637" stop-color="#E7E5DB"/>
<stop offset="0.835" stop-color="#D5D3CA"/>
<stop offset="0.9175" stop-color="#B8B7AF"/>
<stop offset="1" stop-color="#94938C"/>
</linearGradient>
</defs>
</svg>
