<svg width="26" height="66" viewBox="0 0 26 66" fill="none" xmlns="http://www.w3.org/2000/svg">
<path d="M16.7944 0.796566C19.1843 6.86842 20.4256 11.3615 21.478 17.8049C22.002 21.0119 22.3368 24.2506 22.4643 27.4979C22.5287 29.1311 22.541 30.7661 22.4997 32.4002C22.4661 33.7376 22.6866 35.6825 22.1309 36.8956C21.4468 36.1226 20.9595 35.193 20.2355 34.4495C18.4653 32.6312 16.1765 31.331 13.592 31.3296C12.501 31.3291 11.429 31.5505 10.4096 31.923C9.99585 32.0741 9.59119 32.2496 9.19695 32.4456C8.04692 33.0172 6.6628 34.7425 5.43882 34.8355C5.26008 32.4434 5.8648 29.7586 6.09253 27.3596C6.09253 21.2696 7.29566 14.838 8.20707 8.82917C8.48108 7.02176 8.89345 6.30361 8.85489 4.4708C8.81588 2.57902 16.0128 -1.18958 16.7944 0.796566Z" fill="url(#paint0_linear_120_39018)"/>
<path d="M25.3946 60.8605C25.3946 60.8605 27.6824 34.0598 15.5895 30.1374C15.5895 30.1374 1.86207 27.8495 0.555062 51.7087C0.517861 52.3892 0.412156 53.0661 0.383121 53.7493C0.320515 55.24 0.374501 56.7466 0.631728 58.2183C0.902113 59.764 1.40751 61.3613 2.45819 62.5622C2.96766 63.1442 3.60325 63.6061 4.32458 63.8892C4.94973 64.1346 5.63792 64.2267 6.29392 64.3614C7.10144 64.5275 7.91078 64.6835 8.72466 64.8142C9.1638 64.8845 9.60476 64.948 10.0462 65.0011C11.6689 65.1966 13.3049 65.2583 14.9385 65.32C17.592 65.4203 20.3421 65.5523 22.8209 64.4172C24.2872 63.7462 25.3946 62.5418 25.3946 60.8605Z" fill="url(#paint1_linear_120_39018)"/>
<defs>
<linearGradient id="paint0_linear_120_39018" x1="18.8744" y1="18.5653" x2="5.39346" y2="18.8063" gradientUnits="userSpaceOnUse">
<stop stop-color="#BFAB8D"/>
<stop offset="0.5078" stop-color="#E7E1D2"/>
<stop offset="1" stop-color="#CCBFA6"/>
</linearGradient>
<linearGradient id="paint1_linear_120_39018" x1="30.4694" y1="47.7237" x2="-4.5518" y2="47.7415" gradientUnits="userSpaceOnUse">
<stop stop-color="#94938C"/>
<stop offset="0.2296" stop-color="#EDEBE1"/>
<stop offset="0.7876" stop-color="#EDEBE1"/>
<stop offset="1" stop-color="#94938C"/>
</linearGradient>
</defs>
</svg>
