<svg width="27" height="66" viewBox="0 0 27 66" fill="none" xmlns="http://www.w3.org/2000/svg">
<path d="M9.65147 0.890316C7.26141 6.96217 6.0201 11.4553 4.96753 17.8987C4.44352 21.1056 4.1087 24.3444 3.98121 27.5917C3.91679 29.2249 3.90455 30.8599 3.94584 32.494C3.97941 33.8314 3.75891 35.7763 4.31468 36.9894C4.99885 36.2163 5.48611 35.2868 6.2102 34.5432C7.98051 32.7249 10.2694 31.4247 12.8541 31.4233C13.9452 31.4229 15.0173 31.6443 16.0367 32.0167C16.4505 32.1678 16.8552 32.3434 17.2495 32.5394C18.3996 33.111 19.7838 34.8363 21.0074 34.9293C21.1861 32.5371 20.5814 29.8523 20.3536 27.4533C20.3536 21.3633 19.1504 14.9317 18.239 8.92291C17.9649 7.11551 17.5525 6.39736 17.5911 4.56455C17.6306 2.67277 10.4332 -1.09583 9.65147 0.890316Z" fill="url(#paint0_linear_120_39014)"/>
<path d="M1.05521 60.9544C1.05521 60.9544 -1.23262 34.1535 10.8603 30.2311C10.8603 30.2311 24.5877 27.9433 25.8947 51.8026C25.9319 52.4831 26.0376 53.16 26.0666 53.8432C26.1293 55.3339 26.0753 56.8406 25.818 58.3123C25.5477 59.8579 25.0423 61.4553 23.9916 62.6561C23.4821 63.2382 22.8465 63.7 22.1252 63.9831C21.5001 64.2286 20.8119 64.3206 20.1559 64.4554C19.3483 64.6214 18.539 64.7775 17.7251 64.9081C17.286 64.9785 16.845 65.042 16.4036 65.0951C14.7808 65.2906 13.1449 65.3523 11.5113 65.414C8.85779 65.5143 6.10768 65.6463 3.62885 64.5112C2.16215 63.8402 1.05521 62.6357 1.05521 60.9544Z" fill="url(#paint1_linear_120_39014)"/>
<defs>
<linearGradient id="paint0_linear_120_39014" x1="7.57156" y1="18.6591" x2="21.0534" y2="18.9001" gradientUnits="userSpaceOnUse">
<stop stop-color="#BFAB8D"/>
<stop offset="0.5078" stop-color="#E7E1D2"/>
<stop offset="1" stop-color="#CCBFA6"/>
</linearGradient>
<linearGradient id="paint1_linear_120_39014" x1="-4.01984" y1="47.8176" x2="31.0013" y2="47.8354" gradientUnits="userSpaceOnUse">
<stop stop-color="#94938C"/>
<stop offset="0.2296" stop-color="#EDEBE1"/>
<stop offset="0.7876" stop-color="#EDEBE1"/>
<stop offset="1" stop-color="#94938C"/>
</linearGradient>
</defs>
</svg>
