<svg width="25" height="43" viewBox="0 0 25 43" fill="none" xmlns="http://www.w3.org/2000/svg">
<path d="M6.22939 2.95908C5.69588 1.22333 7.31273 0.406724 8.68959 1.37259C11.3512 3.23945 12.7403 6.40425 13.953 9.30684C14.5146 10.6511 17.0038 15.347 15.4224 16.6114C13.8532 17.8658 8.19645 15.9885 8.12523 12.8849C8.08667 11.2009 8.14202 9.50691 7.91655 7.83331C7.67157 6.01455 6.75246 4.65943 6.22939 2.95908Z" fill="url(#paint0_linear_83_9359)"/>
<path d="M22.0191 26.8842C22.9813 20.5764 22.9659 12.9657 20.1623 7.12795C19.5108 5.77104 18.6239 4.5298 17.5673 3.45824C17.1527 3.03769 14.6825 0.512579 14.1635 1.1341C13.634 1.76787 14.1126 3.18422 14.2066 3.88877C14.3635 5.06785 14.5123 6.24784 14.6353 7.431C14.8843 9.83135 15.5045 12.4322 14.8558 14.8208C14.7128 15.3466 14.3826 15.8665 13.8645 16.0348C13.5909 16.1237 13.2929 16.1056 13.0121 16.0448C11.2346 15.6596 9.94847 13.8676 8.85559 12.5529C7.29272 10.6734 6.39583 8.56199 5.61507 6.26417C5.23581 5.14815 4.8021 4.06388 3.84896 3.32032C3.6194 3.14112 1.3706 0.381924 1.01674 0.46676C-0.148271 0.745311 0.254128 3.88831 0.296319 4.60284C0.622957 10.1593 4.69686 20.0203 4.69686 20.0203C4.69686 20.0203 5.67722 26.23 4.69686 28.1912C3.71649 30.1529 20.7121 30.1529 22.0191 26.8842Z" fill="url(#paint1_linear_83_9359)"/>
<path d="M23.0004 27.8634C22.9999 27.863 20.3854 24.9219 14.5023 24.9219C8.61911 24.9219 4.37005 26.8831 3.38967 29.4975C2.4093 32.112 2.0822 39.3025 5.67752 40.61C6.81487 41.0237 8.06518 41.1262 9.09047 40.3931C9.96741 39.7662 10.314 38.6139 11.6328 39.0412C12.2076 39.2272 12.6817 39.6305 13.1689 39.988C15.3112 41.5595 18.9518 43.1895 21.3917 41.3345C24.727 38.7985 25.9048 31.1312 23.0004 27.8634Z" fill="url(#paint2_linear_83_9359)"/>
<path d="M22.9926 27.883C22.9922 27.8825 20.3777 24.9414 14.4945 24.9414C8.61131 24.9414 4.36224 26.9026 3.38186 29.5171C2.40148 32.1321 2.07439 39.3223 5.66972 40.6297C6.80707 41.0435 8.05738 41.146 9.08267 40.4129C9.95961 39.7859 10.3062 38.6336 11.625 39.0609C12.1998 39.247 12.6739 39.6503 13.1612 40.0078C15.3034 41.5793 18.9441 43.2093 21.3839 41.3542C24.7193 38.8182 25.8975 31.1503 22.9926 27.883Z" fill="url(#paint3_linear_83_9359)"/>
<path d="M24.1551 36.6403C24.1551 36.6403 23.784 38.2649 23.0622 39.3809C22.3405 40.4969 21.9453 41.1924 20.7594 41.7291C19.5735 42.2657 17.7425 42.42 15.7319 41.4129C13.7212 40.4057 12.3602 39.3959 12.3602 39.3959C12.3602 39.3959 11.1761 38.3978 10.0919 39.3623C9.00761 40.3268 8.9078 41.3371 6.32416 40.7804C3.74052 40.2243 3.20837 37.5744 3.20837 37.5744C3.20837 37.5744 2.95114 36.5128 2.93753 36.4402C2.92392 36.3676 7.41523 37.774 7.41523 37.774L18.8023 38.5452L24.1551 36.6403Z" fill="#CECECE"/>
<defs>
<linearGradient id="paint0_linear_83_9359" x1="12.7674" y1="17.5048" x2="5.55655" y2="-17.915" gradientUnits="userSpaceOnUse">
<stop offset="0.1599" stop-color="#BFAB8D"/>
<stop offset="0.5078" stop-color="#E7E1D2"/>
<stop offset="0.7297" stop-color="#CCBFA6"/>
</linearGradient>
<linearGradient id="paint1_linear_83_9359" x1="27.9659" y1="14.9184" x2="0.87313" y2="15.0163" gradientUnits="userSpaceOnUse">
<stop offset="0.1599" stop-color="#BFAB8D"/>
<stop offset="0.5078" stop-color="#E7E1D2"/>
<stop offset="0.7297" stop-color="#CCBFA6"/>
</linearGradient>
<linearGradient id="paint2_linear_83_9359" x1="29.62" y1="33.4946" x2="-2.55742" y2="33.6109" gradientUnits="userSpaceOnUse">
<stop stop-color="#94938C"/>
<stop offset="0.2296" stop-color="#EDEBE1"/>
<stop offset="0.7988" stop-color="#EDEBE1"/>
<stop offset="1" stop-color="#94938C"/>
</linearGradient>
<linearGradient id="paint3_linear_83_9359" x1="29.8539" y1="33.5133" x2="-2.70568" y2="33.6309" gradientUnits="userSpaceOnUse">
<stop stop-color="#94938C"/>
<stop offset="0.2296" stop-color="#EDEBE1"/>
<stop offset="0.7988" stop-color="#EDEBE1"/>
<stop offset="1" stop-color="#94938C"/>
</linearGradient>
</defs>
</svg>
