<svg width="20" height="70" viewBox="0 0 20 70" fill="none" xmlns="http://www.w3.org/2000/svg">
<path d="M3.96094 45.5272C3.96094 45.5272 16.0421 42.499 17.046 44.2261L12.167 9.6735C12.167 9.6735 8.7474 0.792969 7.43998 0.792969C6.13256 0.792969 4.82515 4.71492 4.82515 4.71492C4.82515 4.71492 4.25218 37.2573 3.96094 45.5272Z" fill="url(#paint0_linear_83_9452)"/>
<path d="M6.28424 42.0309C6.28379 42.0319 -0.90637 51.5099 0.401099 59.3538C0.82301 61.8848 1.68678 64.5301 3.21246 66.6175C3.95648 67.6355 4.92325 68.5569 6.14225 68.9607C7.75458 69.4946 9.82377 69.0754 11.4402 68.7148C12.2359 68.5374 13.0176 68.2929 13.7589 67.9517C18.9416 65.5681 20.3107 59.4228 19.8938 54.2146C19.6007 50.5563 18.4902 47.0072 17.0466 43.6546C16.1102 41.4797 13.929 40.9099 11.7518 40.6019C10.1132 40.3701 7.39845 40.5624 6.28424 42.0309Z" fill="url(#paint1_linear_83_9452)"/>
<path d="M0.695312 60.4062L5.64028 64.2171L14.5775 63.6273L19.4318 60.5877C19.4318 60.5877 19.0235 62.9468 17.6171 64.8068C16.2107 66.6669 12.1277 70.2508 6.81982 69.1167C6.81982 69.1167 5.05052 68.8898 3.50805 67.0298C0.695312 63.9902 0.695312 60.4062 0.695312 60.4062Z" fill="#CECECE"/>
<defs>
<linearGradient id="paint0_linear_83_9452" x1="15.3142" y1="23.4563" x2="5.42101" y2="23.1515" gradientUnits="userSpaceOnUse">
<stop stop-color="#BFAB8D"/>
<stop offset="0.5078" stop-color="#E7E1D2"/>
<stop offset="1" stop-color="#CCBFA6"/>
</linearGradient>
<linearGradient id="paint1_linear_83_9452" x1="26.2433" y1="54.5626" x2="-6.70933" y2="55.1516" gradientUnits="userSpaceOnUse">
<stop stop-color="#94938C"/>
<stop offset="0.0617" stop-color="#A4A29B"/>
<stop offset="0.1809" stop-color="#CCCAC2"/>
<stop offset="0.2666" stop-color="#EDEBE1"/>
<stop offset="0.7117" stop-color="#EDEBE1"/>
<stop offset="0.7719" stop-color="#E0DED5"/>
<stop offset="0.883" stop-color="#BEBDB4"/>
<stop offset="1" stop-color="#94938C"/>
</linearGradient>
</defs>
</svg>
