<svg width="20" height="58" viewBox="0 0 20 58" fill="none" xmlns="http://www.w3.org/2000/svg">
<path d="M15.336 38.3488C15.336 38.3488 15.0094 27.2362 14.0285 24.2946C13.0476 21.353 12.0672 11.5479 12.3943 8.93294C12.7209 6.31799 12.7209 2.39603 12.7209 2.39603C12.7209 2.39603 13.0476 -0.545554 10.1059 1.74229C7.16419 4.03014 3.56869 15.1427 3.8958 19.7184C4.22291 24.2941 4.32591 38.0829 4.27419 38.0525C4.22293 38.0221 15.336 38.3488 15.336 38.3488Z" fill="url(#paint0_linear_83_9461)"/>
<path d="M4.54674 37.0393C4.54674 37.0393 -2.97036 48.152 2.58558 54.0352C3.26425 54.7538 4.33171 55.2592 5.15873 55.785C6.01251 56.328 6.92345 57.082 7.96414 57.1995C9.15771 57.3347 10.0315 56.0858 11.2046 55.8422C13.0696 55.4547 14.8947 55.7614 16.4875 54.4893C17.8026 53.4391 18.6001 51.8018 18.871 50.1622C19.2085 48.1166 18.8592 46.0379 18.4518 44.0295C18.278 43.1734 17.9823 42.3591 17.6361 41.557C17.2677 40.7023 16.6022 39.868 16.3128 38.9996C16.3128 39.0005 13.6979 31.1566 4.54674 37.0393Z" fill="url(#paint1_linear_83_9461)"/>
<path d="M4.85443 53.2695L14.3362 52.7252L18.9182 49.2773C18.9182 49.2773 19.2358 51.1827 17.5572 53.3603C16.223 55.2203 11.7752 58.865 6.73896 57.7308C6.73896 57.7308 5.06038 57.504 3.59684 55.644C2.61555 54.587 1.17969 51.9539 1.17969 51.9539L4.85443 53.2695Z" fill="#CECECE"/>
<defs>
<linearGradient id="paint0_linear_83_9461" x1="14.4363" y1="19.6576" x2="1.54313" y2="19.2604" gradientUnits="userSpaceOnUse">
<stop stop-color="#BFAB8D"/>
<stop offset="0.5078" stop-color="#E7E1D2"/>
<stop offset="1" stop-color="#CCBFA6"/>
</linearGradient>
<linearGradient id="paint1_linear_83_9461" x1="22.5827" y1="46.4359" x2="-4.14294" y2="45.6126" gradientUnits="userSpaceOnUse">
<stop stop-color="#94938C"/>
<stop offset="0.0311" stop-color="#A6A59D"/>
<stop offset="0.0939" stop-color="#C5C3BB"/>
<stop offset="0.1552" stop-color="#DBD9D0"/>
<stop offset="0.2138" stop-color="#E8E7DD"/>
<stop offset="0.2666" stop-color="#EDEBE1"/>
<stop offset="0.7117" stop-color="#EDEBE1"/>
<stop offset="0.7637" stop-color="#E7E5DB"/>
<stop offset="0.835" stop-color="#D5D3CA"/>
<stop offset="0.9175" stop-color="#B8B7AF"/>
<stop offset="1" stop-color="#94938C"/>
</linearGradient>
</defs>
</svg>
