<svg width="20" height="51" viewBox="0 0 20 51" fill="none" xmlns="http://www.w3.org/2000/svg">
<path d="M16.1139 20.6646C15.3109 25.9208 13.895 31.173 12.0518 36.1529C10.0257 41.6259 7.49432 47.0994 2.573 50.5291C2.45368 50.6122 2.32574 50.6984 2.18057 50.7056C2.03268 50.7129 1.89341 50.6362 1.775 50.5473C1.09723 50.0405 0.847709 49.1155 0.917573 48.2717C0.987437 47.4279 1.32406 46.6335 1.61804 45.8396C3.41181 40.9971 3.8496 35.6679 4.36087 30.5664C4.68479 27.3367 5.45284 23.378 4.69159 20.1583C3.8741 16.7027 15.6076 20.0503 16.1139 20.6646Z" fill="url(#paint0_linear_83_9570)"/>
<path d="M5.97564 0.682739C6.70241 0.355163 7.46048 0.347443 8.47305 0.596074C8.74706 0.663223 9.03922 0.767578 9.18802 1.00714C9.88485 2.12688 4.16553 4.277 3.48186 3.33738C3.07719 2.77841 4.60286 1.66275 4.92224 1.38553C5.2829 1.07202 5.62541 0.840175 5.97564 0.682739Z" fill="#D8D6D0"/>
<path d="M15.9133 0.869399C16.2508 0.971021 16.5076 1.0799 16.6156 1.17472C17.1618 1.6547 17.7293 2.16553 17.9738 2.85012C18.0718 3.12459 18.0822 3.49253 17.8327 3.64315C17.7483 3.69396 17.6476 3.70938 17.5496 3.71754C16.4051 3.81145 15.0808 3.06743 14.1127 2.53618C13.7543 2.33974 12.2133 1.63066 12.2836 1.0731C12.3902 0.227908 14.6862 0.500565 15.9133 0.869399Z" fill="#D8D6D0"/>
<path d="M17.9308 2.97592C17.9308 2.97592 20.2187 4.61002 18.9112 8.85903C18.2575 14.7421 16.2963 20.6252 16.2963 20.6252C16.2963 20.6252 15.6426 21.6056 11.0669 21.6056C6.49122 21.6056 5.18375 20.9518 4.53002 19.6444C3.87629 18.3369 2.24219 5.91702 2.24219 5.91702C2.24219 5.91702 2.56883 2.97547 3.87629 2.64883C5.18375 2.3222 6.49121 1.99511 6.81785 1.99511C7.14449 1.99511 10.0861 0.0339244 11.3935 0.361015C12.7014 0.688106 15.9697 3.30301 17.9308 2.97592Z" fill="url(#paint1_linear_83_9570)"/>
<path d="M18.405 3.46641C18.405 3.46641 18.0334 3.00458 17.9304 2.97782C17.9304 2.97782 17.225 3.24231 15.462 2.43888C15.462 2.43888 13.7485 1.55606 13.2001 1.22716C12.6516 0.898255 11.5932 0.358398 11.2398 0.33889C10.7956 0.319837 10.4794 0.39923 10.4794 0.39923C10.4794 0.39923 9.48135 0.638308 8.84486 1.00033L8.03733 1.40408L7.01748 1.93849C7.01748 1.93849 6.88683 2.02151 6.68631 2.01017C6.48578 1.99883 4.16891 2.57089 4.16891 2.57089C4.16891 2.57089 3.4435 2.59811 2.96851 3.45507C2.49352 4.31203 2.24219 5.91934 2.24219 5.91934L7.39992 3.58255H14.3864L19.2343 5.44663C19.2343 5.44663 19.0528 4.22175 18.405 3.46641Z" fill="#CECECE"/>
<defs>
<linearGradient id="paint0_linear_83_9570" x1="12.8858" y1="34.6319" x2="2.51946" y2="34.6694" gradientUnits="userSpaceOnUse">
<stop stop-color="#BFAB8D"/>
<stop offset="0.5078" stop-color="#E7E1D2"/>
<stop offset="1" stop-color="#CCBFA6"/>
</linearGradient>
<linearGradient id="paint1_linear_83_9570" x1="22.9487" y1="10.9224" x2="-1.18324" y2="11.0096" gradientUnits="userSpaceOnUse">
<stop stop-color="#94938C"/>
<stop offset="0.2296" stop-color="#EDEBE1"/>
<stop offset="0.7988" stop-color="#EDEBE1"/>
<stop offset="1" stop-color="#94938C"/>
</linearGradient>
</defs>
</svg>
