<svg width="19" height="53" viewBox="0 0 19 53" fill="none" xmlns="http://www.w3.org/2000/svg">
<path d="M15.4811 21.7276C15.4811 21.7276 9.27149 47.2215 4.04181 51.4701C-1.18742 55.7192 1.42699 47.2211 1.42699 47.2211C1.42699 47.2211 3.38811 31.5327 3.38811 28.5911C3.38811 25.6495 2.34835 20.1406 2.34835 20.1406C2.34835 20.1406 12.4203 22.3096 15.4811 21.7276Z" fill="url(#paint0_linear_83_9558)"/>
<path d="M15.8055 2.44597C15.8055 2.44597 19.0738 4.08009 18.0934 8.6558C17.113 13.2315 17.4397 15.8465 17.4397 15.8465C17.4397 15.8465 16.7859 23.6909 11.2299 24.0175C5.67333 24.3441 2.07846 21.0759 1.75137 19.1147C1.42473 17.1535 1.42474 11.5974 1.09765 10.617C0.77101 9.63663 -0.209821 3.42635 3.05885 2.44597C6.32708 1.46559 8.28828 1.13849 8.28828 1.13849C8.28828 1.13849 11.5565 0.158118 15.8055 2.44597Z" fill="url(#paint1_linear_83_9558)"/>
<path d="M18.2064 6.02304C18.2064 6.02304 17.9519 3.37412 15.1355 2.12972C15.1355 2.12972 12.9688 1.00055 11.1015 0.965616C9.23418 0.930684 9.20015 0.876704 7.62955 1.26685C6.05895 1.65655 3.65588 2.29032 3.65588 2.29032C3.65588 2.29032 2.03902 2.4677 1.50823 3.69531C1.50823 3.69531 0.770112 4.85532 0.805952 6.0235L5.15161 3.69802L13.1362 3.51656L18.2064 6.02304Z" fill="#CECECE"/>
<defs>
<linearGradient id="paint0_linear_83_9558" x1="2.22235" y1="36.401" x2="13.7783" y2="36.4428" gradientUnits="userSpaceOnUse">
<stop stop-color="#BFAB8D"/>
<stop offset="0.5078" stop-color="#E7E1D2"/>
<stop offset="1" stop-color="#CCBFA6"/>
</linearGradient>
<linearGradient id="paint1_linear_83_9558" x1="-2.578" y1="12.4386" x2="21.5889" y2="12.5259" gradientUnits="userSpaceOnUse">
<stop stop-color="#94938C"/>
<stop offset="0.2296" stop-color="#EDEBE1"/>
<stop offset="0.4283" stop-color="#EDEBE1"/>
<stop offset="0.7988" stop-color="#EDEBE1"/>
<stop offset="1" stop-color="#94938C"/>
</linearGradient>
</defs>
</svg>
