<svg width="18" height="67" viewBox="0 0 18 67" fill="none" xmlns="http://www.w3.org/2000/svg">
<path d="M15.5724 27.016C13.6675 27.0061 11.7331 26.8305 9.83133 26.678C7.52808 26.4934 4.29393 26.6064 2.19075 25.5058C1.99839 25.4051 1.93488 25.0625 1.75795 24.9414C1.35555 26.2906 1.69987 28.4528 1.77926 29.8342C2.00655 33.7834 2.18121 37.7399 2.1431 41.6963C2.12178 43.8803 2.0002 46.0488 1.80376 48.2232C1.53247 51.2261 0.518551 54.1577 0.245447 57.1913C0.0540009 59.3186 0.086195 61.4813 0.501296 63.5817C0.631951 64.2423 0.822045 65.9549 1.39502 66.1128C2.15082 66.3205 3.29088 65.1582 3.6706 64.646C4.92634 62.953 5.24843 60.6601 5.89082 58.6984C6.60942 56.5027 7.45141 54.3496 8.31156 52.206C9.98875 48.0245 11.7526 43.854 12.8328 39.4674C13.4638 36.9047 13.7446 34.2793 14.3371 31.707C14.6991 30.1305 15.1269 28.5703 15.5724 27.016Z" fill="url(#paint0_linear_83_9548)"/>
<path d="M17.7675 8.26453C17.7675 8.26453 18.7461 3.03462 16.4573 1.40141C14.1686 -0.231799 13.1886 0.42239 13.1886 0.42239C12.2423 0.680981 11.2914 0.923238 10.3387 1.15597C8.76993 1.53887 7.0764 2.08781 5.45045 2.04562C5.12472 2.037 4.79808 2.00071 4.47416 2.03337C2.05113 2.27563 1.65779 4.8561 1.29395 6.74654C0.827127 9.1705 0.498226 11.6271 0.304057 14.0878C0.143912 16.1198 0.065872 18.1749 0.237358 20.2092C0.361663 21.6827 0.567632 23.3658 1.43278 24.6143C2.6418 26.3587 4.8575 27.1513 6.83912 27.6072C9.35425 28.1861 11.9973 28.3222 14.5696 28.2138C15.9683 28.1543 16.358 25.0371 16.436 24.0481C16.8506 18.7838 17.2921 13.5235 17.7675 8.26453Z" fill="url(#paint1_linear_83_9548)"/>
<path d="M17.9833 5.18545C17.9592 5.1782 17.8898 4.2364 17.878 4.16881C17.7528 3.46609 17.526 2.76429 17.1308 2.16547C16.8713 1.77215 16.5256 1.42057 16.1169 1.18194C15.5775 0.855767 15.0226 0.52641 14.4048 0.373528C13.7655 0.215656 13.1962 0.417079 12.5914 0.589468C11.8524 0.799964 10.9687 0.978708 10.2142 1.1824C8.93216 1.52854 7.56254 1.9654 6.46104 2.02755C5.35999 2.0897 4.0362 1.88057 3.33709 2.37097C2.63799 2.86092 2.17434 3.55728 1.90713 4.25228C1.90713 4.25228 1.52787 5.43314 1.51562 5.75751L5.31418 3.76823L14.2061 2.95166C14.2065 2.95166 17.9824 5.18545 17.9833 5.18545Z" fill="#CECECE"/>
<defs>
<linearGradient id="paint0_linear_83_9548" x1="10.9442" y1="45.5017" x2="1.8626" y2="45.5383" gradientUnits="userSpaceOnUse">
<stop stop-color="#BFAB8D"/>
<stop offset="0.5078" stop-color="#E7E1D2"/>
<stop offset="1" stop-color="#CCBFA6"/>
</linearGradient>
<linearGradient id="paint1_linear_83_9548" x1="22.4389" y1="14.2338" x2="-3.88869" y2="14.3399" gradientUnits="userSpaceOnUse">
<stop stop-color="#94938C"/>
<stop offset="0.2296" stop-color="#EDEBE1"/>
<stop offset="0.7988" stop-color="#EDEBE1"/>
<stop offset="1" stop-color="#94938C"/>
</linearGradient>
</defs>
</svg>
