<svg width="19" height="53" viewBox="0 0 19 53" fill="none" xmlns="http://www.w3.org/2000/svg">
<path d="M3.63281 21.544C3.63281 21.544 9.8427 47.038 15.0727 51.2866C20.3026 55.5352 17.6877 47.0375 17.6877 47.0375C17.6877 47.0375 15.7264 31.3491 15.7264 28.4075C15.7264 25.4659 16.7662 19.957 16.7662 19.957C16.7662 19.957 6.69376 22.126 3.63281 21.544Z" fill="url(#paint0_linear_83_9553)"/>
<path d="M3.30723 2.26238C3.30723 2.26238 0.0390275 3.89649 1.01939 8.47221C1.99976 13.0479 1.67313 15.6629 1.67313 15.6629C1.67313 15.6629 2.32685 23.5073 7.88287 23.8339C13.4393 24.1606 17.0342 20.8923 17.3612 18.9311C17.6879 16.9699 17.6879 11.4138 18.015 10.4334C18.3421 9.45304 19.3224 3.24276 16.0538 2.26238C12.7852 1.282 10.8244 0.954901 10.8244 0.954901C10.8244 0.954901 7.55624 -0.0254764 3.30723 2.26238Z" fill="url(#paint1_linear_83_9553)"/>
<path d="M0.90625 5.83945C0.90625 5.83945 1.16076 3.19052 3.97721 1.94613C3.97721 1.94613 6.14398 0.816954 8.01133 0.782022C9.87868 0.74709 9.91272 0.69311 11.4834 1.08326C13.054 1.47296 15.4571 2.10673 15.4571 2.10673C15.4571 2.10673 17.074 2.28411 17.6049 3.51172C17.6049 3.51172 18.343 4.67172 18.3071 5.8399L13.9613 3.51443L5.97657 3.33297L0.90625 5.83945Z" fill="#CECECE"/>
<defs>
<linearGradient id="paint0_linear_83_9553" x1="16.8922" y1="36.2174" x2="5.33556" y2="36.2592" gradientUnits="userSpaceOnUse">
<stop stop-color="#BFAB8D"/>
<stop offset="0.5078" stop-color="#E7E1D2"/>
<stop offset="1" stop-color="#CCBFA6"/>
</linearGradient>
<linearGradient id="paint1_linear_83_9553" x1="21.6905" y1="12.255" x2="-2.47616" y2="12.3423" gradientUnits="userSpaceOnUse">
<stop stop-color="#94938C"/>
<stop offset="0.2296" stop-color="#EDEBE1"/>
<stop offset="0.4283" stop-color="#EDEBE1"/>
<stop offset="0.7988" stop-color="#EDEBE1"/>
<stop offset="1" stop-color="#94938C"/>
</linearGradient>
</defs>
</svg>
