<svg width="20" height="51" viewBox="0 0 20 51" fill="none" xmlns="http://www.w3.org/2000/svg">
<path d="M4.07031 20.7544C4.87328 26.0106 6.28914 31.2626 8.13234 36.2425C10.1584 41.7154 12.6897 47.1888 17.611 50.6185C17.7303 50.7015 17.8583 50.7877 18.0034 50.795C18.1513 50.8023 18.2906 50.7256 18.409 50.6367C19.0867 50.1299 19.3362 49.2049 19.2664 48.3611C19.1965 47.5173 18.8599 46.7229 18.5659 45.929C16.7722 41.0866 16.3344 35.7575 15.8232 30.6561C15.4992 27.4264 14.7312 23.4678 15.4924 20.2482C16.3099 16.7926 4.57704 20.1402 4.07031 20.7544Z" fill="url(#paint0_linear_83_9563)"/>
<path d="M14.2088 0.772563C13.482 0.445012 12.7238 0.437292 11.7112 0.685904C11.4372 0.753048 11.145 0.857395 10.9962 1.09693C10.2994 2.21659 16.0189 4.36655 16.7026 3.427C17.1073 2.86807 15.5816 1.75249 15.2622 1.4753C14.9015 1.16181 14.559 0.929987 14.2088 0.772563Z" fill="#D8D6D0"/>
<path d="M4.2736 0.959241C3.93606 1.06086 3.67928 1.16974 3.5713 1.26456C3.02506 1.74454 2.45751 2.25537 2.21297 2.93995C2.11498 3.21442 2.10454 3.58236 2.35406 3.73297C2.43845 3.78379 2.53918 3.79921 2.63717 3.80737C3.78182 3.90128 5.10611 3.15726 6.07427 2.62602C6.43269 2.42958 7.97384 1.7205 7.90352 1.16294C7.79691 0.317754 5.50082 0.590409 4.2736 0.959241Z" fill="#D8D6D0"/>
<path d="M2.25891 3.06577C2.25891 3.06577 -0.0288847 4.69987 1.27856 8.94888C1.93229 14.832 3.89346 20.7151 3.89346 20.7151C3.89346 20.7151 4.54719 21.6954 9.1228 21.6954C13.6984 21.6954 15.0059 21.0417 15.6596 19.7343C16.3133 18.4268 17.9474 6.00687 17.9474 6.00687C17.9474 6.00687 17.6208 3.06532 16.3133 2.73868C15.0059 2.41204 13.6984 2.08495 13.3718 2.08495C13.0451 2.08495 10.1036 0.123768 8.79615 0.450859C7.48825 0.77795 4.21963 3.39286 2.25891 3.06577Z" fill="url(#paint1_linear_83_9563)"/>
<path d="M1.7824 3.55625C1.7824 3.55625 2.15394 3.09443 2.25692 3.06766C2.25692 3.06766 2.96235 3.33215 4.72525 2.52872C4.72525 2.52872 6.4387 1.6459 6.98717 1.317C7.53564 0.988098 8.59401 0.448241 8.94741 0.428734C9.39153 0.40968 9.70774 0.489074 9.70774 0.489074C9.70774 0.489074 10.7058 0.728152 11.3422 1.09017L12.1498 1.49392L13.1696 2.02833C13.1696 2.02833 13.3002 2.11136 13.5007 2.10002C13.7013 2.08867 16.0181 2.66073 16.0181 2.66073C16.0181 2.66073 16.7435 2.68795 17.2184 3.54491C17.6934 4.40232 17.9447 6.00919 17.9447 6.00919L12.7871 3.67239H5.80087L0.953125 5.53648C0.953125 5.53648 1.13458 4.31159 1.7824 3.55625Z" fill="#CECECE"/>
<defs>
<linearGradient id="paint0_linear_83_9563" x1="7.2985" y1="34.7215" x2="17.6646" y2="34.759" gradientUnits="userSpaceOnUse">
<stop stop-color="#BFAB8D"/>
<stop offset="0.5078" stop-color="#E7E1D2"/>
<stop offset="1" stop-color="#CCBFA6"/>
</linearGradient>
<linearGradient id="paint1_linear_83_9563" x1="-2.75921" y1="11.0123" x2="21.3724" y2="11.0994" gradientUnits="userSpaceOnUse">
<stop stop-color="#94938C"/>
<stop offset="0.2296" stop-color="#EDEBE1"/>
<stop offset="0.7988" stop-color="#EDEBE1"/>
<stop offset="1" stop-color="#94938C"/>
</linearGradient>
</defs>
</svg>
