<svg width="19" height="58" viewBox="0 0 19 58" fill="none" xmlns="http://www.w3.org/2000/svg">
<path d="M4 38.3488C4 38.3488 4.32664 27.2362 5.30747 24.2946C6.2883 21.353 7.26868 11.5479 6.94158 8.93294C6.61494 6.31799 6.61495 2.39603 6.61495 2.39603C6.61495 2.39603 6.2883 -0.545554 9.22988 1.74229C12.1715 4.03014 15.7668 15.1427 15.4397 19.7184C15.113 24.2941 15.0096 38.0829 15.0613 38.0525C15.1126 38.0221 4 38.3488 4 38.3488Z" fill="url(#paint0_linear_83_9466)"/>
<path d="M14.7883 37.0393C14.7883 37.0393 22.3055 48.152 16.7495 54.0352C16.0708 54.7538 15.0033 55.2592 14.1763 55.785C13.3225 56.328 12.4116 57.082 11.3709 57.1995C10.1773 57.3347 9.30352 56.0858 8.13035 55.8422C6.26535 55.4547 4.44026 55.7614 2.84745 54.4893C1.53229 53.4391 0.734747 51.8018 0.46391 50.1622C0.126385 48.1166 0.475705 46.0379 0.883094 44.0295C1.05685 43.1734 1.35263 42.3591 1.69878 41.557C2.06761 40.7023 2.73268 39.868 3.02212 38.9996C3.02212 39.0005 5.63658 31.1566 14.7883 37.0393Z" fill="url(#paint1_linear_83_9466)"/>
<path d="M14.4862 53.2695L5.00444 52.7252L0.422368 49.2773C0.422368 49.2773 0.104799 51.1827 1.78338 53.3603C3.11762 55.2203 7.56541 58.865 12.6016 57.7308C12.6016 57.7308 14.2802 57.504 15.7437 55.644C16.725 54.587 18.1609 51.9539 18.1609 51.9539L14.4862 53.2695Z" fill="#CECECE"/>
<defs>
<linearGradient id="paint0_linear_83_9466" x1="4.89981" y1="19.6576" x2="17.7924" y2="19.2605" gradientUnits="userSpaceOnUse">
<stop stop-color="#BFAB8D"/>
<stop offset="0.5078" stop-color="#E7E1D2"/>
<stop offset="1" stop-color="#CCBFA6"/>
</linearGradient>
<linearGradient id="paint1_linear_83_9466" x1="-3.24819" y1="46.4359" x2="23.4778" y2="45.6126" gradientUnits="userSpaceOnUse">
<stop stop-color="#94938C"/>
<stop offset="0.0311" stop-color="#A6A59D"/>
<stop offset="0.0939" stop-color="#C5C3BB"/>
<stop offset="0.1552" stop-color="#DBD9D0"/>
<stop offset="0.2138" stop-color="#E8E7DD"/>
<stop offset="0.2666" stop-color="#EDEBE1"/>
<stop offset="0.7117" stop-color="#EDEBE1"/>
<stop offset="0.7637" stop-color="#E7E5DB"/>
<stop offset="0.835" stop-color="#D5D3CA"/>
<stop offset="0.9175" stop-color="#B8B7AF"/>
<stop offset="1" stop-color="#94938C"/>
</linearGradient>
</defs>
</svg>
