<svg width="26" height="42" viewBox="0 0 26 42" fill="none" xmlns="http://www.w3.org/2000/svg">
<path d="M6.44398 2.74362C5.91077 1.00313 7.53053 0.188221 8.90884 1.15404C11.5749 3.02532 12.9633 6.18436 14.1706 9.09188C14.734 10.44 17.2189 15.1283 15.6394 16.3959C14.0699 17.6535 8.41587 15.7722 8.34544 12.6735C8.3052 10.9934 8.36556 9.2931 8.13417 7.62304C7.88265 5.792 6.96713 4.44387 6.44398 2.74362Z" fill="url(#paint0_linear_78_5514)"/>
<path d="M22.231 26.6593C23.1968 20.3512 23.1767 12.7454 20.3697 6.90016C19.7158 5.54197 18.8305 4.30451 17.7741 3.22802C17.3616 2.80548 14.8867 0.280256 14.3736 0.904016C13.8404 1.53784 14.3233 2.95639 14.4138 3.66063C14.5748 4.83773 14.7157 6.01483 14.8464 7.20198C15.098 9.60648 15.7117 12.2021 15.0678 14.5966C14.9269 15.1197 14.5949 15.6429 14.0718 15.8139C13.8001 15.9044 13.4983 15.8843 13.2166 15.824C11.4359 15.4416 10.1582 13.6508 9.06157 12.3329C7.50217 10.4516 6.60678 8.33883 5.82205 6.045C5.43974 4.92827 5.00714 3.84173 4.05138 3.09724C3.81998 2.91615 1.57646 0.159524 1.21428 0.240009C0.047242 0.521708 0.449666 3.66064 0.489909 4.37494C0.81185 9.92842 4.88641 19.7878 4.88641 19.7878C4.88641 19.7878 5.86229 25.9953 4.88641 27.9571C3.93064 29.929 20.9231 29.929 22.231 26.6593Z" fill="url(#paint1_linear_78_5514)"/>
<path d="M23.2172 27.6447C23.2172 27.6447 20.6015 24.707 14.716 24.707C8.83053 24.707 4.58493 26.6689 3.59899 29.2846C2.6231 31.9004 2.29111 39.0938 5.88276 40.4016C7.01961 40.8141 8.26713 40.9147 9.29332 40.1803C10.1686 39.5566 10.5207 38.3996 11.8387 38.8322C12.4121 39.0233 12.885 39.4258 13.3779 39.7779C15.5209 41.3473 19.1628 42.9772 21.5975 41.126C24.9376 38.5807 26.1147 30.9144 23.2172 27.6447Z" fill="url(#paint2_linear_78_5514)"/>
<path d="M23.229 27.6565C23.229 27.6565 20.6132 24.7188 14.7277 24.7188C8.84225 24.7188 4.59665 26.6806 3.61071 29.2963C2.63483 31.9121 2.30282 39.1055 5.89447 40.4134C7.03132 40.8259 8.27884 40.9265 9.30503 40.192C10.1803 39.5683 10.5324 38.4113 11.8504 38.8439C12.4238 39.0351 12.8967 39.4375 13.3897 39.7896C15.5326 41.3591 19.1745 42.9889 21.6092 41.1377C24.9594 38.5924 26.1365 30.9262 23.229 27.6565Z" fill="url(#paint3_linear_78_5514)"/>
<path d="M24.6647 32.5557V35.4632C25.711 31.9722 24.725 30.3926 24.051 28.954C22.8437 26.3684 20.731 24.8291 17.7832 24.3864C17.3908 24.3261 16.9884 24.2858 16.5357 24.2557C14.3626 24.1047 12.1593 24.2556 10.0164 24.7184C9.83529 24.7587 9.64413 24.7989 9.45298 24.8392C7.81309 25.1712 5.96194 25.5434 4.80497 27.0927C4.22145 27.8674 3.71841 28.9037 3.35623 30.0908C3.28581 30.3323 3.19526 30.5637 3.10471 30.8152C2.83308 31.5697 2.78277 33.2499 2.99405 34.3364L3.17514 32.8877C3.14496 32.1834 3.41659 31.7911 3.67817 31.0667C3.76872 30.8152 3.85926 30.5637 3.93975 30.3021C4.28181 29.1954 4.7446 28.2296 5.28787 27.5153C6.304 26.1571 7.96401 25.8251 9.57371 25.5032C9.76486 25.4629 9.95601 25.4227 10.1472 25.3824C12.2498 24.9398 14.3928 24.7889 16.5156 24.9398C16.9482 24.97 17.3405 25.0102 17.7228 25.0706C19.0508 25.2718 20.1978 25.7044 21.1435 26.3583C22.1495 27.0626 22.9544 28.0385 23.5379 29.2759C24.1616 30.6442 24.4534 30.9661 24.6647 32.5557Z" fill="#D34031"/>
<path d="M24.3947 37.3246V32.576C24.2338 31.3587 24.0225 30.9361 23.61 30.1011C23.5094 29.8898 23.3887 29.6584 23.2679 29.3868C22.7146 28.1996 21.9399 27.2539 20.964 26.5799C20.0586 25.946 18.9419 25.5336 17.6541 25.3424C17.2818 25.282 16.8995 25.2418 16.4669 25.2116C14.3643 25.0607 12.2515 25.2116 10.179 25.6543C9.98787 25.6945 9.79672 25.7348 9.60557 25.775C8.04617 26.0869 6.42641 26.4189 5.4807 27.6865C4.96761 28.3807 4.51488 29.3163 4.18288 30.3928C4.10239 30.6544 4.01185 30.916 3.91125 31.1675C3.84082 31.3486 3.78045 31.5196 3.72009 31.6605C3.539 32.0931 3.40821 32.405 3.42833 32.8778V32.8979L3.0259 36.1073L2.70396 34.3869C2.48263 33.2199 2.543 31.4995 2.83476 30.7148C2.9253 30.4633 3.00579 30.2319 3.08627 30.0005C3.46858 28.7831 3.98167 27.7167 4.57524 26.9219C5.79258 25.2921 7.70411 24.9098 9.38423 24.5677C9.57539 24.5275 9.76654 24.4872 9.94764 24.4571C12.1207 23.9943 14.3441 23.8333 16.5474 23.9943C17.0001 24.0245 17.4126 24.0748 17.8151 24.1351C20.8634 24.5879 23.0466 26.1774 24.2941 28.8536C24.3444 28.9642 24.3947 29.0749 24.4551 29.1856C25.109 30.5437 25.9139 32.2339 24.9279 35.554L24.3947 37.3246ZM14.9075 24.4671C13.2878 24.4671 11.668 24.6382 10.0784 24.9802C9.88727 25.0205 9.70618 25.0607 9.51503 25.1009C7.92544 25.4229 6.12458 25.7851 5.02797 27.2439C4.46457 27.9984 3.98167 29.0045 3.61949 30.1614C3.539 30.4029 3.45852 30.6444 3.36797 30.9059C3.31767 31.0468 3.26736 31.2379 3.23718 31.4492C3.29754 31.2983 3.3579 31.1474 3.41827 30.9764C3.50881 30.7349 3.59936 30.4733 3.67985 30.2319C4.03197 29.095 4.51488 28.099 5.06821 27.3646C6.1447 25.9259 7.85501 25.5838 9.52508 25.2418C9.71623 25.2015 9.90739 25.1613 10.0885 25.1211C12.2113 24.6683 14.3844 24.5174 16.5374 24.6683C16.98 24.6985 17.3825 24.7388 17.7648 24.7991C19.133 25.0003 20.3202 25.4531 21.296 26.1271C22.3424 26.8515 23.1774 27.8777 23.781 29.1554C23.9118 29.427 24.0225 29.6584 24.1231 29.8596C24.3746 30.3627 24.5557 30.7349 24.6965 31.2178C24.5255 30.5236 24.2438 29.9502 23.9923 29.4069C23.942 29.2962 23.8816 29.1755 23.8313 29.0648C22.6643 26.5698 20.622 25.0808 17.7648 24.6583C17.3825 24.5979 16.98 24.5577 16.5374 24.5275C15.984 24.4872 15.4408 24.4671 14.9075 24.4671Z" fill="#D34031"/>
<defs>
<linearGradient id="paint0_linear_78_5514" x1="13.0178" y1="17.2122" x2="5.8072" y2="-18.2069" gradientUnits="userSpaceOnUse">
<stop offset="0.1599" stop-color="#BFAB8D"/>
<stop offset="0.5078" stop-color="#E7E1D2"/>
<stop offset="0.7297" stop-color="#CCBFA6"/>
</linearGradient>
<linearGradient id="paint1_linear_78_5514" x1="28.1782" y1="14.6981" x2="1.0857" y2="14.7959" gradientUnits="userSpaceOnUse">
<stop offset="0.1599" stop-color="#BFAB8D"/>
<stop offset="0.5078" stop-color="#E7E1D2"/>
<stop offset="0.7297" stop-color="#CCBFA6"/>
</linearGradient>
<linearGradient id="paint2_linear_78_5514" x1="29.8322" y1="33.2748" x2="-2.34474" y2="33.3911" gradientUnits="userSpaceOnUse">
<stop stop-color="#94938C"/>
<stop offset="0.2296" stop-color="#EDEBE1"/>
<stop offset="0.7988" stop-color="#EDEBE1"/>
<stop offset="1" stop-color="#94938C"/>
</linearGradient>
<linearGradient id="paint3_linear_78_5514" x1="30.0927" y1="33.291" x2="-2.46633" y2="33.4086" gradientUnits="userSpaceOnUse">
<stop stop-color="#94938C"/>
<stop offset="0.2296" stop-color="#EDEBE1"/>
<stop offset="0.7988" stop-color="#EDEBE1"/>
<stop offset="1" stop-color="#94938C"/>
</linearGradient>
</defs>
</svg>
