<svg width="19" height="61" viewBox="0 0 19 61" fill="none" xmlns="http://www.w3.org/2000/svg">
<path d="M5.83707 34.6199C5.83707 34.6199 2.56736 35.9278 1.59148 43.4431C1.59148 43.4431 0.61561 51.2904 0.283609 53.5741C-0.0383318 55.8579 -0.0383317 58.8057 3.55332 59.7815C7.14497 60.7574 10.4147 60.1035 12.3765 59.4596C14.3383 58.8057 17.276 56.8438 17.93 54.5601C18.5839 52.2763 17.93 41.1593 16.9541 39.1975C15.9681 37.2357 13.6844 32.0041 5.83707 34.6199Z" fill="url(#paint0_linear_78_5624)"/>
<path d="M9.10799 3.57166C9.10799 3.57166 1.93473 19.2562 4.86239 35.7657C4.86239 35.7657 15.2651 34.5283 15.7782 37.3553C14.3194 30.4839 13.6152 23.2603 13.9069 16.2481C14.0277 13.4009 14.2289 10.5638 14.2993 7.71664C14.3496 5.86548 14.6715 3.74269 13.8767 2.02231C13.5447 1.29795 12.9914 0.23152 12.0859 0.151035C10.5567 0.000124843 9.57078 2.51529 9.10799 3.57166Z" fill="url(#paint1_linear_78_5624)"/>
<path d="M1.82295 42.0954C1.55131 42.679 2.56743 38.5943 2.90949 37.87C3.26161 37.1456 4.10669 35.6264 4.72039 35.3749C6.15907 34.7914 8.84529 34.892 10.8775 35.1033C12.0546 35.224 13.1512 35.4152 14.0366 35.6566C15.0426 35.9282 15.7167 36.2502 16.0286 36.6023C16.7328 37.387 17.6886 39.5501 17.6483 42.5482C16.8133 42.9204 15.8173 37.7392 15.3344 37.1959C14.8716 36.6828 13.0707 36.2099 10.7568 35.9685C8.2718 35.717 6.14901 35.888 5.04234 36.3307C3.825 37.0148 3.95581 38.3629 1.82295 42.0954Z" fill="#D34031"/>
<path d="M17.5683 42.8283C17.4979 42.8283 17.4275 42.8082 17.3571 42.778C16.8138 42.5265 16.3812 41.2186 15.7977 39.2467C15.5663 38.4821 15.2846 37.5163 15.1437 37.3654C14.8117 36.9931 13.3127 36.4901 10.7371 36.2285C8.42319 35.9871 6.29033 36.1179 5.16353 36.5706C4.55989 36.9227 4.32852 37.466 3.86573 38.5525C3.49349 39.4178 2.99045 40.5949 2.06487 42.2146C2.03468 42.275 1.96426 42.4058 1.81335 42.4158C1.71274 42.4259 1.6222 42.3756 1.56183 42.2951C1.49141 42.1844 1.43105 42.104 1.94414 40.1421C2.05481 39.6995 2.45722 38.2004 2.67855 37.7376C2.7691 37.5565 3.08098 36.9026 3.50353 36.2788C3.93614 35.6249 4.30839 35.2426 4.64039 35.1118C5.33458 34.8301 7.06501 34.4176 10.9283 34.82C12.1255 34.9408 13.2322 35.1319 14.1276 35.3834C15.194 35.6752 15.8983 36.0072 16.2504 36.4096C16.6729 36.8825 17.0955 37.6974 17.3973 38.6531C17.7695 39.8302 17.9607 41.1784 17.9406 42.5365V42.7076L17.7796 42.778C17.7092 42.8082 17.6388 42.8283 17.5683 42.8283ZM8.54393 35.5645C9.25824 35.5645 10.0128 35.6048 10.7874 35.6853C11.713 35.7758 14.7916 36.1581 15.5461 37.0032C15.7574 37.2346 15.9687 37.9187 16.3208 39.0958C16.5321 39.8101 16.7735 40.615 17.015 41.2387C17.176 41.6512 17.2967 41.8927 17.3873 42.0536C17.3269 39.1964 16.3711 37.3654 15.8379 36.7819C15.6468 36.5605 15.1638 36.2386 13.9767 35.9166C13.1014 35.6752 12.0249 35.4941 10.8579 35.3734C9.24816 35.2124 6.33058 35.0212 4.83155 35.6349C4.39894 35.806 3.64438 36.9831 3.16147 37.9992C3.0005 38.3312 2.69869 39.3976 2.44718 40.3735C2.8496 39.5586 3.1313 38.8946 3.3627 38.3614C3.86573 37.1944 4.13735 36.5505 4.91202 36.1078L4.93216 36.0977L4.95227 36.0877C5.75712 35.7356 7.04489 35.5645 8.54393 35.5645Z" fill="#D34031"/>
<defs>
<linearGradient id="paint0_linear_78_5624" x1="-4.32557" y1="47.746" x2="21.6845" y2="46.4428" gradientUnits="userSpaceOnUse">
<stop stop-color="#94938C"/>
<stop offset="0.1599" stop-color="#D1CFC6"/>
<stop offset="0.2296" stop-color="#EDEBE1"/>
<stop offset="0.7988" stop-color="#EDEBE1"/>
<stop offset="0.9762" stop-color="#9F9E96"/>
<stop offset="1" stop-color="#94938C"/>
</linearGradient>
<linearGradient id="paint1_linear_78_5624" x1="13.1556" y1="18.7611" x2="4.17474" y2="18.9216" gradientUnits="userSpaceOnUse">
<stop stop-color="#BFAB8D"/>
<stop offset="0.5078" stop-color="#E7E1D2"/>
<stop offset="1" stop-color="#CCBFA6"/>
</linearGradient>
</defs>
</svg>
