<svg width="24" height="42" viewBox="0 0 24 42" fill="none" xmlns="http://www.w3.org/2000/svg">
<path d="M19.2094 2.75534C19.7426 1.01485 18.1228 0.199938 16.7445 1.16576C14.0785 3.03704 12.6901 6.19609 11.4828 9.10362C10.9194 10.4517 8.43444 15.14 10.014 16.4076C11.5834 17.6652 17.2375 15.7839 17.3079 12.6852C17.3482 11.0051 17.2878 9.30483 17.5192 7.63476C17.7707 5.81378 18.6862 4.45559 19.2094 2.75534Z" fill="url(#paint0_linear_78_5691)"/>
<path d="M3.4119 26.678C2.44608 20.37 2.46621 12.7641 5.27313 6.9189C5.92707 5.56072 6.81239 4.32325 7.86876 3.24676C8.28125 2.82421 10.7562 0.29899 11.2693 0.92275C11.8025 1.55657 11.3196 2.97513 11.229 3.67937C11.068 4.85647 10.9272 6.03355 10.7964 7.22071C10.5449 9.62521 9.9312 12.2209 10.5751 14.6153C10.7159 15.1384 11.048 15.6616 11.5711 15.8326C11.8427 15.9232 12.1445 15.9031 12.4262 15.8427C14.207 15.4604 15.4847 13.6696 16.5813 12.3516C18.1407 10.4703 19.0361 8.35757 19.8208 6.06374C20.2031 4.94701 20.6357 3.86046 21.5915 3.11597C21.8229 2.93488 22.2857 2.52239 22.6378 2.60288C23.8049 2.88457 23.4024 6.0235 23.3622 6.7378C23.0402 12.2913 20.7464 19.8066 20.7464 19.8066C20.7464 19.8066 19.7705 26.014 20.7464 27.9758C21.7223 29.9477 4.71979 29.9477 3.4119 26.678Z" fill="url(#paint1_linear_78_5691)"/>
<path d="M2.43657 27.6526C2.43657 27.6526 5.05235 24.7148 10.9378 24.7148C16.8233 24.7148 21.0689 26.6767 22.0548 29.2924C23.0307 31.9082 23.3627 39.1016 19.7711 40.4095C18.6342 40.8219 17.3867 40.9226 16.3605 40.1881C15.4852 39.5644 15.1331 38.4074 13.8152 38.84C13.2417 39.0312 12.7688 39.4336 12.2759 39.7857C10.133 41.3552 6.49102 42.985 4.05635 41.1338C0.706152 38.5885 -0.470959 30.9223 2.43657 27.6526Z" fill="url(#paint2_linear_78_5691)"/>
<path d="M0.996144 32.5557V35.4632C-0.0501613 31.9722 0.935766 30.3926 1.60983 28.954C2.8171 26.3684 4.92985 24.8291 7.87761 24.3864C8.26998 24.3261 8.67239 24.2858 9.12512 24.2557C11.3083 24.1047 13.5015 24.2556 15.6444 24.7184C15.8255 24.7587 16.0167 24.7989 16.2078 24.8392C17.8477 25.1712 19.6988 25.5434 20.8558 27.0927C21.4393 27.8674 21.9424 28.9037 22.3046 30.0908C22.375 30.3323 22.4655 30.5637 22.5561 30.8152C22.8277 31.5697 22.878 33.2499 22.6668 34.3364L22.4856 32.8877C22.5158 32.1834 22.2442 31.7911 21.9826 31.0667C21.8921 30.8152 21.8015 30.5637 21.7211 30.3021C21.379 29.1954 20.9162 28.2296 20.3729 27.5153C19.3568 26.1571 17.6968 25.8251 16.0871 25.5032C15.8959 25.4629 15.7048 25.4227 15.5136 25.3824C13.411 24.9398 11.2681 24.7889 9.14526 24.9398C8.71266 24.97 8.32028 25.0102 7.93797 25.0706C6.60997 25.2718 5.46307 25.7044 4.51737 26.3583C3.5113 27.0626 2.70645 28.0385 2.12293 29.2759C1.50923 30.6442 1.20742 30.9661 0.996144 32.5557Z" fill="#D34031"/>
<path d="M1.26818 37.3226L0.734969 35.5419C-0.261036 32.2118 0.553879 30.5317 1.20782 29.1735C1.25812 29.0628 1.31849 28.9522 1.3688 28.8415C2.61632 26.1654 4.79948 24.5758 7.84786 24.1231C8.25029 24.0627 8.66278 24.0225 9.11551 23.9822C11.3188 23.8313 13.5422 23.9822 15.7153 24.445C15.8964 24.4853 16.0775 24.5255 16.2787 24.5557C17.9689 24.8977 19.8804 25.28 21.0877 26.9099C21.6913 27.7147 22.2044 28.7811 22.5766 29.9884C22.6471 30.2198 22.7376 30.4613 22.8282 30.7027C23.1099 31.4875 23.1702 33.2078 22.959 34.3749L22.637 36.0952L22.2346 32.8859V32.8658C22.2547 32.3929 22.1239 32.081 21.9428 31.6484C21.8825 31.4975 21.8121 31.3366 21.7517 31.1555C21.6611 30.9039 21.5706 30.6424 21.48 30.3808C21.148 29.3043 20.6953 28.3687 20.1822 27.6745C19.2365 26.4068 17.6168 26.0748 16.0574 25.763C15.8662 25.7227 15.675 25.6825 15.4839 25.6422C13.4114 25.1996 11.2886 25.0487 9.19599 25.1996C8.77344 25.2297 8.38108 25.27 8.00883 25.3303C6.72107 25.5215 5.61439 25.944 4.69887 26.5678C3.73305 27.2419 2.95837 28.1876 2.39497 29.3747C2.26418 29.6464 2.15352 29.8878 2.05291 30.089C1.64043 30.9241 1.42915 31.3466 1.26818 32.5639V37.3226V37.3226ZM10.7654 24.5959C12.3852 24.5959 14.005 24.7669 15.5946 25.109C15.7757 25.1492 15.9769 25.1895 16.158 25.2297C17.818 25.5617 19.5383 25.9139 20.6148 27.3525C21.1682 28.087 21.6511 29.083 22.0032 30.2198C22.0837 30.4713 22.1742 30.7228 22.2648 30.9643C22.3251 31.1353 22.3855 31.2862 22.4459 31.4372C22.4157 31.2259 22.3654 31.0448 22.3151 30.8939C22.2245 30.6424 22.134 30.4009 22.0636 30.1494C21.7014 28.9924 21.2185 27.9863 20.6551 27.2318C19.5685 25.773 17.7576 25.4108 16.168 25.0889C15.9769 25.0486 15.7857 25.0084 15.6046 24.9682C13.4818 24.5154 11.3087 24.3645 9.15573 24.5154C8.71306 24.5456 8.31064 24.5859 7.92833 24.6462C5.07111 25.0788 3.02879 26.5577 1.86176 29.0528C1.81145 29.1635 1.75109 29.2741 1.70078 29.3948C1.43921 29.9381 1.16759 30.5116 0.996556 31.2058C1.13741 30.7229 1.32857 30.3506 1.57002 29.8476C1.67063 29.6464 1.78129 29.415 1.91208 29.1433C2.50566 27.8656 3.34069 26.8495 4.39706 26.1151C5.37295 25.441 6.56008 24.9883 7.92833 24.7871C8.31064 24.7267 8.71306 24.6865 9.15573 24.6563C9.68895 24.616 10.2222 24.5959 10.7654 24.5959Z" fill="#D34031"/>
<defs>
<linearGradient id="paint0_linear_78_5691" x1="12.6648" y1="17.2845" x2="19.8753" y2="-18.1346" gradientUnits="userSpaceOnUse">
<stop offset="0.1599" stop-color="#BFAB8D"/>
<stop offset="0.5078" stop-color="#E7E1D2"/>
<stop offset="0.7297" stop-color="#CCBFA6"/>
</linearGradient>
<linearGradient id="paint1_linear_78_5691" x1="-2.10264" y1="15.0233" x2="22.8345" y2="15.1133" gradientUnits="userSpaceOnUse">
<stop offset="0.1599" stop-color="#BFAB8D"/>
<stop offset="0.5078" stop-color="#E7E1D2"/>
<stop offset="0.7297" stop-color="#CCBFA6"/>
</linearGradient>
<linearGradient id="paint2_linear_78_5691" x1="-4.42458" y1="33.2871" x2="28.1343" y2="33.4047" gradientUnits="userSpaceOnUse">
<stop stop-color="#94938C"/>
<stop offset="0.2296" stop-color="#EDEBE1"/>
<stop offset="0.7988" stop-color="#EDEBE1"/>
<stop offset="1" stop-color="#94938C"/>
</linearGradient>
</defs>
</svg>
