<svg width="27" height="49" viewBox="0 0 27 49" fill="none" xmlns="http://www.w3.org/2000/svg">
<path d="M10.9432 42.4505C10.742 44.4123 12.0096 44.855 12.9151 43.4867C14.6556 40.8509 15.3296 37.1787 15.9031 33.8185C16.1647 32.2691 17.4826 26.7056 16.1848 25.78C14.9071 24.8645 10.9734 28.275 11.2551 31.5448C11.406 33.3255 11.6374 35.0861 11.6474 36.897C11.6575 38.8689 11.1343 40.5289 10.9432 42.4505Z" fill="url(#paint0_linear_78_5809)"/>
<path d="M22.5637 20.1842C21.8796 22.146 21.3263 24.1883 21.0043 26.2407C20.7931 27.619 20.8232 28.8464 21.0345 30.2146C21.3866 32.5085 21.4168 34.9029 21.3162 37.2169C21.1653 40.8286 19.4248 43.545 18.0465 46.7946C17.5334 47.9918 16.3563 48.6156 15.2899 47.519C13.9317 46.1306 14.304 43.2029 14.2436 41.4323C14.1732 39.0177 14.1229 36.583 13.6399 34.1987C13.4287 33.1725 13.1369 32.1563 12.6037 31.2509C12.0705 30.3555 11.0845 29.9229 10.1489 30.5668C8.89133 31.4219 8.60962 33.3033 8.17701 34.6313C7.77459 35.8888 7.40235 37.1464 7.05023 38.4141C6.54719 40.2049 6.0844 42.0057 5.60149 43.8066C5.40028 44.5511 4.7564 46.3016 3.65979 45.537C3.28754 45.2754 3.10646 44.8328 2.95555 44.4102C2.45251 43.0218 2.05008 41.5932 1.64766 40.1747C1.10438 38.2732 0.611414 36.3718 0.500747 34.3898C0.339776 31.6835 1.4062 29.0174 1.92936 26.3916C2.48269 23.6048 2.82475 20.7878 2.9656 17.9507C2.97566 17.7596 2.98572 17.5584 3.11651 17.4276C3.28754 17.2465 3.5793 17.2565 3.83082 17.2867C6.89931 17.6388 9.97787 17.9205 13.0464 18.3129C15.1189 18.5745 17.2014 18.8461 19.2638 19.2184C20.1592 19.3894 21.8696 19.4799 22.5637 20.1842Z" fill="url(#paint1_linear_78_5809)"/>
<path d="M24.9676 15.9391C25.0682 14.7117 25.038 13.4743 25.2795 12.2569C25.6417 10.3655 26.5974 8.71556 26.4666 6.71349C26.1447 1.89444 19.4041 1.51214 16.0136 2.85021C14.6051 3.40354 14.0216 2.88038 12.8445 2.13589C11.5568 1.32098 10.0477 0.898438 8.52851 0.898438C6.79808 0.898438 4.87649 1.39142 3.39758 2.30694C1.20436 3.65507 1.20436 5.8684 1.05345 8.19241C0.88242 10.7579 0.942782 13.4038 1.79794 15.8687C2.05951 16.6232 2.40158 17.3577 2.94485 17.9412C3.71952 18.7662 4.6954 18.8768 5.73165 19.1183C7.1502 19.4503 8.58887 19.7219 10.0175 19.9936C12.8244 20.5268 15.6615 20.9594 18.5087 21.1002C19.8669 21.1707 21.2653 21.0298 22.4726 20.406C24.203 19.5006 24.8167 17.7903 24.9676 15.9391Z" fill="url(#paint2_linear_78_5809)"/>
<path d="M8.28863 20.0636C5.86401 19.621 4.55613 19.299 3.78146 18.957C2.93637 18.5847 2.65467 18.1521 2.29249 17.6189C2.19188 17.468 2.08122 17.307 1.95043 17.1259C0.793453 15.5464 0.541935 12.2063 0.652603 11.6328H1.01479C0.924241 12.1057 1.50776 15.3854 2.4937 16.7235C2.63455 16.9147 2.74522 17.0857 2.84582 17.2366C3.49977 18.2125 3.71104 18.5445 8.3993 19.3996C13.8522 20.3956 18.1883 20.8786 19.9791 20.6975C21.7095 20.5164 22.1321 20.3856 23.5003 19.1381C24.768 17.9811 24.9591 15.7979 24.9591 15.7577H25.1905C25.2006 15.8985 25.4622 18.2628 23.9631 19.6411C22.5345 20.949 22.0214 21.1703 20.0495 21.3715C19.7779 21.4017 19.456 21.4118 19.0837 21.4118C16.9005 21.4118 13.0775 20.9389 8.28863 20.0636Z" fill="#D34031"/>
<path d="M19.0927 21.6839C16.8794 21.6839 13.0161 21.2009 8.23728 20.3257C5.79254 19.883 4.46454 19.551 3.66975 19.1989C2.75423 18.7964 2.43228 18.3135 2.0701 17.7602C1.96949 17.6093 1.86889 17.4584 1.7381 17.2773C0.530826 15.6273 0.269245 12.2067 0.389973 11.5729L0.430216 11.3516H1.34574L1.28537 11.6735C1.20488 12.0759 1.77834 15.2652 2.71398 16.5529C2.85483 16.7441 2.97556 16.9252 3.07616 17.0761C3.6798 17.9815 3.88102 18.2834 8.44855 19.1184C13.8813 20.1144 18.1772 20.5973 19.9479 20.4162C21.628 20.2452 22.0002 20.1345 23.3182 18.9272C24.4651 17.8809 24.6764 15.8688 24.6864 15.7481L24.6764 15.4764H25.451L25.4611 15.738C25.4611 15.7481 25.4611 15.7581 25.4611 15.7682C25.5215 16.573 25.5114 18.5751 24.1432 19.8327C22.6743 21.1808 22.1008 21.4323 20.0787 21.6335C19.807 21.6738 19.465 21.6839 19.0927 21.6839ZM8.33788 19.7924C13.0865 20.6577 16.9096 21.1406 19.0927 21.1406C19.4549 21.1406 19.7668 21.1305 20.0284 21.1003C21.9399 20.9092 22.4027 20.708 23.781 19.4403C24.3343 18.9373 24.6261 18.2834 24.787 17.6596C24.5556 18.2532 24.2035 18.8769 23.6904 19.3397C22.2719 20.6375 21.799 20.7884 20.0082 20.9695C18.1873 21.1506 13.831 20.6677 8.34795 19.6617C3.74017 18.8166 3.35786 18.4946 2.61337 17.388C2.51277 17.237 2.4021 17.066 2.26125 16.8849C1.74816 16.1807 1.33567 14.9835 1.06403 13.8969C1.25519 14.9835 1.59725 16.2109 2.15059 16.9654C2.28137 17.1465 2.39205 17.3075 2.49265 17.4684C2.84477 17.9916 3.09629 18.3739 3.8609 18.716C4.64563 19.0379 5.93339 19.3598 8.33788 19.7924ZM24.6965 15.7581C24.6965 15.7682 24.6965 15.7682 24.6965 15.7581V15.7581Z" fill="#D34031"/>
<defs>
<linearGradient id="paint0_linear_78_5809" x1="13.9119" y1="25.6435" x2="16.0225" y2="64.4482" gradientUnits="userSpaceOnUse">
<stop offset="0.1599" stop-color="#BFAB8D"/>
<stop offset="0.5078" stop-color="#E7E1D2"/>
<stop offset="0.7297" stop-color="#CCBFA6"/>
</linearGradient>
<linearGradient id="paint1_linear_78_5809" x1="20.041" y1="34.0747" x2="2.54738" y2="30.6706" gradientUnits="userSpaceOnUse">
<stop stop-color="#BFAB8D"/>
<stop offset="0.5078" stop-color="#E7E1D2"/>
<stop offset="1" stop-color="#CCBFA6"/>
</linearGradient>
<linearGradient id="paint2_linear_78_5809" x1="30.5451" y1="14.0229" x2="-2.75269" y2="7.54341" gradientUnits="userSpaceOnUse">
<stop stop-color="#94938C"/>
<stop offset="0.2114" stop-color="#EDEBE1"/>
<stop offset="0.847" stop-color="#EDEBE1"/>
<stop offset="1" stop-color="#94938C"/>
</linearGradient>
</defs>
</svg>
