<svg width="29" height="51" viewBox="0 0 29 51" fill="none" xmlns="http://www.w3.org/2000/svg">
<path d="M19.8134 0.918555C21.1213 1.0091 22.1374 1.39141 23.2139 2.1359C23.5057 2.33711 23.7773 2.57857 23.727 2.86027C23.4554 4.19833 13.5859 3.12184 13.6764 1.94475C13.7368 1.25056 16.9461 1.05942 17.6705 0.978932C18.4753 0.898447 19.1796 0.878313 19.8134 0.918555Z" fill="#D8D6D0"/>
<path d="M9.6438 46.2856C8.96974 48.4487 10.5593 49.334 12.0483 48.0463C14.9156 45.5713 16.5655 41.5873 18.0243 37.9454C18.6984 36.2552 21.5958 30.3294 20.0767 28.8908C18.5676 27.4722 12.6318 30.1785 12.33 33.9815C12.169 36.0439 12.0986 38.1164 11.7364 40.1788C11.3541 42.4425 10.3078 44.1729 9.6438 46.2856Z" fill="url(#paint0_linear_78_5790)"/>
<path d="M26.4245 21.0109C26.2333 21.7856 26.0723 22.5703 26.0321 22.7212C25.7202 24.0291 25.4385 25.3471 25.2272 26.6751C25.0462 27.7616 24.9053 28.8482 24.7946 29.9448C24.694 31.0011 24.7846 32.1682 24.5834 33.2145C24.3821 34.2407 24.02 35.3172 23.6779 36.3031C22.6417 39.271 21.0722 42.0377 19.211 44.573C18.2753 45.8406 17.2592 47.0579 16.1928 48.2149C15.5388 48.9292 14.1404 51.0319 12.9834 50.1566C12.5508 49.8246 12.3697 49.2411 12.3999 48.6978C12.4301 48.1545 12.6313 47.6314 12.8124 47.1183C14.2712 43.1745 15.6596 38.285 14.8346 34.0495C14.7541 33.6068 14.6133 33.1541 14.3014 32.8322C13.8889 32.4096 13.2249 32.3191 12.6514 32.4801C12.078 32.641 11.5951 33.0032 11.1725 33.4157C9.72379 34.8242 8.68754 36.8061 7.8022 38.607C7.12814 39.9752 6.63516 41.424 6.35346 42.9129C6.08183 44.3416 6.31322 46.0418 5.73976 47.3799C5.41782 48.1344 4.70353 48.7783 3.87855 48.7582C3.24473 48.7381 2.68133 48.3256 2.25878 47.8527C0.709441 46.0921 0.417684 43.2751 0.327138 41.0215C0.216471 38.1844 0.6189 35.3574 1.06157 32.5605C1.65515 28.7576 2.42981 24.9748 3.28496 21.2222C3.31515 21.0813 3.78801 18.707 3.87855 18.707C3.87855 18.707 26.7565 19.3409 26.9677 19.3509C26.847 19.371 26.6257 20.1859 26.4245 21.0109Z" fill="url(#paint1_linear_78_5790)"/>
<path d="M8.51611 0.749473C9.70326 0.679049 10.6691 0.940633 11.7456 1.54427C12.0373 1.70524 12.319 1.91651 12.319 2.1982C12.2888 3.54633 3.30468 3.657 3.20407 2.48997C3.14371 1.79579 5.98083 1.23239 6.61465 1.07142C7.32895 0.890329 7.95271 0.779655 8.51611 0.749473Z" fill="#D8D6D0"/>
<path d="M24.4638 1.83451C25.4195 1.92505 26.3149 2.29731 27.0896 3.10216C28.0856 4.13841 28.5886 5.58714 28.7094 7.01575C28.9709 10.0943 28.4478 13.7564 27.6731 16.7343C27.4317 17.68 27.4015 19.672 26.7576 20.3964C24.7354 22.6701 20.2987 21.5634 17.6024 21.3723C14.5239 21.161 11.2139 21.0604 8.44722 20.3964C6.61618 20.3058 3.26599 20.7083 2.71266 18.2937C2.07884 15.527 1.68647 12.7 1.55568 9.86291C1.45507 7.74012 1.1432 2.50858 4.19157 2.0961C4.63424 2.03573 5.38879 2.53876 5.84152 2.63936C6.77716 2.85064 7.68262 2.82046 8.6082 2.579C9.74505 2.27718 10.8014 1.73391 11.898 1.29124C12.1395 1.19063 12.3809 1.10008 12.6425 1.11014C13.226 1.13026 13.6586 1.63331 14.1214 1.98543C16.0832 3.46434 19.6045 2.69973 21.7675 2.12628C22.683 1.89488 23.5985 1.75402 24.4638 1.83451Z" fill="url(#paint2_linear_78_5790)"/>
<path d="M23.2957 22.035C24.181 22.035 25.1066 21.8942 25.9417 21.2906C27.2093 20.375 26.9779 20.3449 27.2496 19.5702C26.9276 19.8016 26.9779 19.9324 25.5392 20.7372C24.6539 21.2302 23.7686 21.4012 22.521 21.3208C19.7343 21.1397 16.8066 20.9083 13.3155 20.6165C12.7622 20.5662 12.2089 20.5259 11.6656 20.4756C9.17056 20.2744 6.59503 20.0632 4.06981 19.6306C3.33539 19.5098 2.93297 18.7955 2.79212 17.4072C2.73176 16.7935 2.67139 16.1798 2.60097 15.5661C2.17842 13.3125 1.776 14.399 1.92691 15.6365C1.98727 16.2502 2.05769 16.8639 2.11805 17.4776C2.17842 18.1114 2.36956 20.033 3.95914 20.3046C6.51455 20.7372 9.1102 20.9586 11.6153 21.1598C12.1586 21.2 12.7119 21.2503 13.2552 21.3006C16.7563 21.6024 19.6839 21.8238 22.4808 22.0149C22.7424 22.025 23.014 22.035 23.2957 22.035Z" fill="#D34031"/>
<path d="M23.2954 22.3075C22.9836 22.3075 22.6918 22.2874 22.4604 22.2773C19.6636 22.0963 16.7359 21.8649 13.2348 21.563C12.6915 21.5127 12.1281 21.4725 11.5949 21.4222C9.07975 21.2109 6.47404 20.9996 3.90858 20.567C3.13391 20.4362 2.5705 19.9533 2.21838 19.1284C1.94674 18.4945 1.87632 17.8205 1.84614 17.4985C1.78577 16.8949 1.72541 16.3013 1.66505 15.6977V15.6574C1.64493 15.4864 1.49401 14.0678 2.07753 13.9773C2.39947 13.927 2.55038 14.2992 2.60069 14.42C2.70129 14.6614 2.79184 15.0236 2.88238 15.5065V15.5266C2.94275 16.1403 3.01318 16.754 3.07354 17.3677C3.23451 19.0177 3.7476 19.2893 4.11984 19.3497C6.635 19.7823 9.21053 19.9936 11.6955 20.1948H11.7358C12.2589 20.235 12.8122 20.2853 13.3455 20.3256C16.8365 20.6274 19.7642 20.8487 22.551 21.0298C23.7482 21.1103 24.5832 20.9493 25.4182 20.4765C26.4545 19.893 26.6959 19.6817 26.867 19.5207C26.9374 19.4604 26.9978 19.4 27.0984 19.3296L27.8026 18.8265L27.5109 19.6414C27.4605 19.7823 27.4304 19.893 27.4002 19.9936C27.2493 20.5268 27.1487 20.728 26.1024 21.4926C25.1164 22.227 24.0299 22.3075 23.2954 22.3075ZM2.17814 14.8928C2.16808 15.084 2.16808 15.3254 2.19826 15.5971V15.6373C2.25862 16.2409 2.31899 16.8446 2.37935 17.4382C2.40953 17.74 2.4699 18.3537 2.71136 18.907C2.99305 19.561 3.40554 19.9231 3.99912 20.0238C6.54446 20.4564 9.13004 20.6676 11.6351 20.8789C12.1784 20.9192 12.7318 20.9695 13.2851 21.0198C16.7862 21.3216 19.7139 21.5429 22.5007 21.7341C22.7119 21.7441 23.0037 21.7642 23.2954 21.7642C24.6737 21.7642 25.378 21.3719 25.7905 21.0701C26.1829 20.7884 26.4142 20.6073 26.5651 20.4564C26.3539 20.5972 26.0722 20.7582 25.6798 20.9795C24.7442 21.5027 23.8186 21.6838 22.5107 21.5932C19.7239 21.4121 16.7963 21.1807 13.2952 20.8789C12.7619 20.8286 12.2086 20.7884 11.6855 20.7481H11.6452C9.14012 20.5469 6.55453 20.3256 4.01924 19.893C2.87233 19.7018 2.62081 18.3939 2.5202 17.4281C2.45984 16.8144 2.39947 16.2108 2.32905 15.5971C2.27874 15.2852 2.22845 15.0538 2.17814 14.8928Z" fill="#D34031"/>
<defs>
<linearGradient id="paint0_linear_78_5790" x1="17.2494" y1="28.1759" x2="9.48736" y2="72.4672" gradientUnits="userSpaceOnUse">
<stop offset="0.1599" stop-color="#BFAB8D"/>
<stop offset="0.5078" stop-color="#E7E1D2"/>
<stop offset="0.7297" stop-color="#CCBFA6"/>
</linearGradient>
<linearGradient id="paint1_linear_78_5790" x1="24.3777" y1="34.494" x2="1.85082" y2="34.5754" gradientUnits="userSpaceOnUse">
<stop stop-color="#BFAB8D"/>
<stop offset="0.5078" stop-color="#E7E1D2"/>
<stop offset="1" stop-color="#CCBFA6"/>
</linearGradient>
<linearGradient id="paint2_linear_78_5790" x1="34.4837" y1="11.406" x2="-4.36128" y2="11.5463" gradientUnits="userSpaceOnUse">
<stop stop-color="#94938C"/>
<stop offset="0.2296" stop-color="#EDEBE1"/>
<stop offset="0.7988" stop-color="#EDEBE1"/>
<stop offset="1" stop-color="#94938C"/>
</linearGradient>
</defs>
</svg>
