<svg width="25" height="42" viewBox="0 0 25 42" fill="none" xmlns="http://www.w3.org/2000/svg">
<path d="M8.01172 38.7457C8.01172 38.7457 10.4565 42.3373 14.1789 39.8926C17.9013 37.4479 9.92324 37.0555 8.01172 38.7457Z" fill="#D8D6D0"/>
<path d="M10.9363 3.33535C10.4132 1.59486 8.62236 1.8162 8.00866 3.38566C6.83156 6.41391 7.4352 9.82447 8.03884 12.903C8.32054 14.3316 8.85375 19.6235 10.8759 19.7946C12.878 19.9656 16.5401 15.2572 14.87 12.6414C13.9646 11.2229 12.9786 9.84459 12.2341 8.32544C11.4393 6.67549 11.4494 5.0356 10.9363 3.33535Z" fill="url(#paint0_linear_78_5686)"/>
<path d="M21.3973 26.6342C21.3268 26.6744 21.1256 26.2016 20.9345 26.2217C20.693 26.2519 20.3811 26.1613 20.1397 26.1412C19.2946 26.0607 18.4495 25.9802 17.6044 25.9199C15.2502 25.7388 12.886 25.6382 10.5318 25.6784C8.89189 25.7086 7.22182 25.7991 5.61212 26.1412C4.61612 26.3525 3.30823 26.6644 2.70459 27.5698C2.70459 27.5698 4.07284 22.0566 3.09696 17.8009C2.12108 13.5453 0.813191 2.11639 3.4189 1.78439C5.05878 1.58318 6.3063 5.40622 6.72885 6.46259C7.8657 9.27957 8.75104 12.2978 9.56595 15.2556C9.58607 15.3361 9.61625 15.4266 9.66656 15.4971C10.1092 16.1108 11.6384 16.3522 12.232 15.9397C12.725 15.5976 12.8457 14.9337 12.9262 14.33C13.0671 13.2736 13.2079 12.2072 13.3588 11.1508C13.7009 8.63569 14.0429 6.1004 13.9826 3.55506C13.9625 2.86088 13.1677 -0.700591 14.8679 0.144503C17.7151 1.57311 19.3449 5.50683 20.1296 8.33387C21.1961 12.1569 21.2363 16.2415 21.3872 20.1752C21.4576 21.9761 21.5482 23.8071 21.4275 25.6181C21.3973 25.9903 21.4878 26.5738 21.3973 26.6342Z" fill="url(#paint1_linear_78_5686)"/>
<path d="M20.3022 25.479C19.4269 24.8753 18.2498 24.7948 17.2337 24.5936C15.7045 24.2817 14.1551 24.0302 12.5857 23.9397C9.14494 23.7284 5.35208 24.3622 3.03814 27.1691C2.22323 28.1551 1.64977 29.3423 1.35801 30.5898C1.03607 31.9983 1.29765 32.9037 1.74031 34.2317C2.1528 35.4491 2.68601 36.767 3.35001 37.8636C4.06432 39.0608 5.21123 40.087 6.65997 40.0669C8.21937 40.0468 9.74858 39.4331 10.7949 38.2459C10.8452 38.1856 10.9056 38.1151 10.986 38.085C11.0766 38.0447 11.1772 38.0648 11.2778 38.085C13.3805 38.5679 15.4831 39.9361 17.4249 40.8718C18.3504 41.3144 18.8836 41.4553 19.8193 40.9623C20.9863 40.3486 22.1031 39.594 22.9683 38.598C25.5337 35.6402 24.5578 31.4449 22.6765 28.4066C22.0829 27.4408 21.3485 26.3341 20.4632 25.6097C20.4129 25.5594 20.3525 25.5192 20.3022 25.479Z" fill="url(#paint2_linear_78_5686)"/>
<path d="M24.1357 33.1124L24.5281 34.6919C24.8601 32.056 24.0351 29.6918 23.3409 28.243C22.0934 25.6575 19.9103 24.1182 16.8518 23.6755C16.4494 23.6151 16.0268 23.5749 15.5641 23.5447C13.3105 23.3938 11.0468 23.5447 8.82342 24.0075C8.63227 24.0477 8.44112 24.088 8.2399 24.1282C6.54972 24.4602 4.70862 24.591 3.5114 26.1303C2.90776 26.905 1.4389 28.9573 1.25781 31.3115C1.25781 31.3115 3.36049 27.5187 3.91382 26.8044C4.96013 25.4462 6.6805 25.1142 8.35057 24.7922C8.54172 24.752 8.74293 24.7117 8.94415 24.6715C11.1172 24.2288 16.4595 24.6614 16.8518 24.7218C18.2301 24.923 19.3368 24.9834 20.3127 25.6474C21.359 26.3516 22.184 27.3275 22.7876 28.565C23.4415 29.9433 23.9144 31.5127 24.1357 33.1124Z" fill="#D34031"/>
<path d="M24.6097 36.1713L23.8652 33.1631V33.1531C23.6439 31.5836 23.1912 30.0443 22.5372 28.6862C21.9638 27.499 21.1589 26.5533 20.1629 25.8792C19.3782 25.346 18.4929 25.2353 17.3661 25.0744C17.185 25.0542 17.0039 25.0241 16.8127 24.9939C16.5109 24.9536 11.1385 24.5009 8.9956 24.9436C8.79439 24.9838 8.58312 25.0241 8.40202 25.0643C6.78226 25.3762 5.11219 25.7082 4.12625 26.9758C3.59303 27.67 1.51048 31.4126 1.49036 31.4428L0.886719 32.5293L0.987324 31.2818C1.07787 30.0946 1.55072 28.2032 3.29121 25.9497C4.39788 24.521 5.98747 24.2393 7.52675 23.9576C7.73802 23.9174 7.95935 23.8772 8.18069 23.8369C8.3819 23.7967 8.57306 23.7564 8.76421 23.7262C11.0077 23.2635 13.3016 23.1126 15.5853 23.2635C16.0582 23.2936 16.4807 23.344 16.8932 23.4043C20.0422 23.857 22.2958 25.4466 23.5835 28.1227C24.328 29.662 25.1429 32.0464 24.8009 34.7225L24.6097 36.1713ZM11.8327 24.2092C14.1467 24.2092 16.6719 24.4305 16.8832 24.4607C17.0743 24.4909 17.2554 24.511 17.4365 24.5412C18.5834 24.6921 19.5693 24.8329 20.4547 25.4265C21.5412 26.1509 22.4064 27.177 23.0201 28.4547C23.5634 29.5916 23.986 30.8492 24.2375 32.1369C24.0463 30.6379 23.5534 29.33 23.0805 28.3743C21.8732 25.8792 19.7605 24.3902 16.8027 23.9576C16.4002 23.8973 15.9878 23.857 15.535 23.8269C13.3116 23.676 11.058 23.8269 8.86481 24.2796C8.67366 24.3198 8.48251 24.3601 8.28129 24.4003C8.05996 24.4406 7.83862 24.4808 7.61729 24.521C6.10819 24.7927 4.68964 25.0442 3.71376 26.3018C2.13424 28.3541 1.80224 28.7767 1.6312 30.0745C2.30527 28.8874 3.31133 27.1267 3.68358 26.6438C4.79025 25.2052 6.57098 24.8631 8.28129 24.5311C8.46239 24.4909 8.67366 24.4506 8.86481 24.4104C9.61936 24.2595 10.7059 24.2092 11.8327 24.2092Z" fill="#D34031"/>
<defs>
<linearGradient id="paint0_linear_78_5686" x1="13.4293" y1="18.7626" x2="-0.257972" y2="-14.6889" gradientUnits="userSpaceOnUse">
<stop offset="0.1599" stop-color="#BFAB8D"/>
<stop offset="0.5078" stop-color="#E7E1D2"/>
<stop offset="0.7297" stop-color="#CCBFA6"/>
</linearGradient>
<linearGradient id="paint1_linear_78_5686" x1="2.55449" y1="16.0785" x2="20.2431" y2="12.7231" gradientUnits="userSpaceOnUse">
<stop offset="0.1599" stop-color="#BFAB8D"/>
<stop offset="0.5078" stop-color="#E7E1D2"/>
<stop offset="0.7297" stop-color="#CCBFA6"/>
</linearGradient>
<linearGradient id="paint2_linear_78_5686" x1="29.7782" y1="32.521" x2="-3.50691" y2="32.6055" gradientUnits="userSpaceOnUse">
<stop stop-color="#94938C"/>
<stop offset="0.2296" stop-color="#EDEBE1"/>
<stop offset="0.7988" stop-color="#EDEBE1"/>
<stop offset="1" stop-color="#94938C"/>
</linearGradient>
</defs>
</svg>
