<svg width="19" height="53" viewBox="0 0 19 53" fill="none" xmlns="http://www.w3.org/2000/svg">
<path d="M15.7009 21.4763C15.7009 21.4763 9.49343 46.97 4.2619 51.2156C-0.969644 55.4612 1.64613 46.97 1.64613 46.97C1.64613 46.97 3.60796 31.2854 3.60796 28.3377C3.60796 25.3899 2.57171 19.8867 2.57171 19.8867C2.57171 19.8867 12.6424 22.0598 15.7009 21.4763Z" fill="url(#paint0_linear_78_5759)"/>
<path d="M16.0309 2.19089C16.0309 2.19089 19.3007 3.82071 18.3147 8.3983C17.3388 12.9759 17.6608 15.5917 17.6608 15.5917C17.6608 15.5917 17.0068 23.439 11.4534 23.7609C5.89991 24.0829 2.29819 20.8232 1.97625 18.8614C1.65431 16.8996 1.65431 11.3461 1.32231 10.3601C1.00037 9.38424 0.0144259 3.16677 3.28413 2.19089C6.55384 1.21501 8.51566 0.883002 8.51566 0.883002C8.51566 0.883002 11.7753 -0.0928771 16.0309 2.19089Z" fill="url(#paint1_linear_78_5759)"/>
<path d="M6.12151 23.1268C3.41519 22.2214 2.40913 21.0946 1.98658 19.1931C1.84573 18.5593 1.93628 18.6901 2.03689 18.4688C2.16768 19.2032 2.73107 19.7565 3.12344 20.3702C3.84781 21.5071 4.89411 22 6.34284 22.4829C9.3711 23.4991 11.5542 24.0423 14.2706 22.3924C14.7737 22.0906 15.3672 21.5875 15.7395 21.1046C16.0011 21.4366 15.9206 21.7887 15.7395 21.9195C15.3874 22.3924 15.1157 22.6741 14.6328 22.9759C13.2646 23.8109 12.007 24.1228 10.7494 24.1228C9.27048 24.1228 7.79157 23.6902 6.12151 23.1268Z" fill="#D34031"/>
<path d="M10.7278 24.3944C9.15834 24.3944 7.609 23.9215 6.02948 23.3883C3.35335 22.4929 2.1863 21.3762 1.71345 19.2534C1.60279 18.7604 1.60279 18.6296 1.73358 18.4385C1.7537 18.4184 1.76375 18.3982 1.77381 18.3681L2.12594 17.4727L2.28692 18.4184C2.3674 18.8811 2.65915 19.2836 2.97103 19.6961C3.09176 19.8671 3.22255 20.0381 3.34327 20.2192C4.00728 21.2555 4.93287 21.7182 6.42185 22.2213C7.80016 22.6841 9.14828 23.1066 10.426 23.1569C11.7238 23.2173 12.8908 22.8953 14.1182 22.1508C14.6515 21.8289 15.1947 21.346 15.5066 20.9335L15.7179 20.6518L15.9392 20.9335C16.1102 21.1549 16.1907 21.4164 16.1606 21.6579C16.1404 21.839 16.0499 21.9999 15.9292 22.1106C15.5871 22.5633 15.2953 22.8853 14.7621 23.2072C13.4241 24.0121 12.1464 24.3944 10.7278 24.3944ZM6.20051 22.8652C7.73979 23.3783 9.23883 23.841 10.7278 23.841C12.0357 23.841 13.2228 23.4889 14.4704 22.7243C14.9432 22.4326 15.1847 22.171 15.4965 21.7484C15.1746 22.0704 14.7822 22.3822 14.3999 22.6136C13.082 23.4185 11.8043 23.7606 10.3958 23.7002C9.03761 23.6398 7.6593 23.2072 6.24075 22.7344C4.67129 22.2112 3.62498 21.678 2.88049 20.511C2.76983 20.35 2.65915 20.189 2.52836 20.018C2.5183 19.9979 2.49819 19.9778 2.48813 19.9576C3.0314 21.3561 4.09783 22.1609 6.20051 22.8652Z" fill="#D34031"/>
<defs>
<linearGradient id="paint0_linear_78_5759" x1="2.44283" y1="36.1469" x2="13.9991" y2="36.1887" gradientUnits="userSpaceOnUse">
<stop stop-color="#BFAB8D"/>
<stop offset="0.5078" stop-color="#E7E1D2"/>
<stop offset="1" stop-color="#CCBFA6"/>
</linearGradient>
<linearGradient id="paint1_linear_78_5759" x1="-2.35606" y1="12.1837" x2="21.8104" y2="12.2711" gradientUnits="userSpaceOnUse">
<stop stop-color="#94938C"/>
<stop offset="0.2296" stop-color="#EDEBE1"/>
<stop offset="0.4283" stop-color="#EDEBE1"/>
<stop offset="0.7988" stop-color="#EDEBE1"/>
<stop offset="1" stop-color="#94938C"/>
</linearGradient>
</defs>
</svg>
