<svg width="20" height="67" viewBox="0 0 20 67" fill="none" xmlns="http://www.w3.org/2000/svg">
<path d="M16.8089 27.5943C14.9075 27.5842 12.9657 27.4132 11.0643 27.2522C8.76039 27.0711 5.53092 27.1818 3.42825 26.0751C3.2371 25.9745 3.17672 25.6324 2.99563 25.5117C2.59321 26.8598 2.93527 29.0229 3.01576 30.4012C3.24715 34.355 3.41818 38.3088 3.37794 42.2627C3.35782 44.4458 3.2371 46.6189 3.03588 48.792C2.76425 51.7901 1.74812 54.7278 1.47648 57.7561C1.28533 59.8789 1.31551 62.0419 1.728 64.1446C1.85879 64.8086 2.04994 66.5189 2.62339 66.6798C3.37794 66.8911 4.51479 65.7241 4.89709 65.211C6.15468 63.5208 6.47662 61.227 7.12051 59.2652C7.83481 57.0719 8.67991 54.919 9.54512 52.776C11.2253 48.5908 12.9859 44.4257 14.0623 40.0393C14.6962 37.4738 14.9779 34.848 15.5714 32.2825C15.9336 30.7131 16.3562 29.1537 16.8089 27.5943Z" fill="url(#paint0_linear_78_5747)"/>
<path d="M19.0039 8.84967C19.0039 8.84967 19.9798 3.61814 17.6961 1.98831C15.4123 0.358488 14.4263 1.01243 14.4263 1.01243C13.4806 1.27401 12.5249 1.51546 11.5792 1.74685C10.0097 2.12916 8.31953 2.6825 6.68971 2.63219C6.36777 2.62213 6.03577 2.59196 5.71383 2.62214C3.28921 2.86359 2.89686 5.44917 2.53467 7.33051C2.07188 9.75513 1.73987 12.2099 1.54872 14.6748C1.38775 16.707 1.30727 18.7594 1.4783 20.7917C1.59903 22.2605 1.81031 23.9507 2.67552 25.1982C3.8828 26.9387 6.09614 27.7335 8.07808 28.1862C10.5932 28.7698 13.2392 28.9005 15.8047 28.7899C17.2031 28.7295 17.5954 25.6107 17.6759 24.6248C18.0884 19.3631 18.5311 14.1013 19.0039 8.84967Z" fill="url(#paint1_linear_78_5747)"/>
<path d="M14.2742 29.2608C15.1898 29.2608 15.884 29.1199 16.4473 28.8282C17.1315 28.466 17.6144 27.8925 17.8961 27.0575C18.1778 26.2527 18.0973 25.7899 18.1074 24.7637C18.1074 24.2606 17.6244 24.814 17.6244 24.814C17.6244 24.814 17.554 25.971 17.2522 26.8362C16.8196 28.0837 15.9544 28.5867 14.234 28.5767C12.0508 28.5666 9.84756 28.295 7.67446 27.7517C5.82329 27.2889 4.09286 26.7456 3.22765 25.1057C2.53346 23.7878 1.74872 21.6751 1.42678 20.3672C0.974051 20.8803 1.28593 21.9769 1.26581 21.9568C1.55757 23.3552 2.00024 24.2405 2.624 25.4277C3.62001 27.3191 5.50135 27.9227 7.51348 28.4157C9.73689 28.969 12.0005 29.2507 14.234 29.2608C14.2541 29.2608 14.2642 29.2608 14.2742 29.2608Z" fill="#D34031"/>
<path d="M14.2731 29.5339H14.2429C11.9893 29.5239 9.70553 29.2422 7.45195 28.6788C5.37945 28.1657 3.43775 27.5419 2.39144 25.5499C1.72743 24.2823 1.29481 23.417 1.01312 22.0085L0.832031 21.1333L0.922574 21.2138C0.922574 20.7711 1.02318 20.419 1.23445 20.1775L1.57651 19.7852L1.69725 20.2982C2.01919 21.6262 2.81398 23.7289 3.46792 24.9765C4.28283 26.5157 5.9529 27.0389 7.7437 27.4916C9.89668 28.0248 12.0799 28.2965 14.2429 28.3065C15.8325 28.3166 16.6071 27.8739 16.9995 26.7471C17.2812 25.9221 17.3617 24.8054 17.3617 24.7954L17.3718 24.7048L17.4321 24.6344C17.6132 24.4332 17.8748 24.2118 18.1364 24.3124C18.2571 24.3527 18.3879 24.4734 18.3879 24.7752C18.3879 24.9865 18.3879 25.1777 18.3879 25.3487C18.3979 26.0026 18.3979 26.4654 18.1665 27.1495C17.8547 28.055 17.3416 28.6788 16.587 29.0711C15.9633 29.3931 15.2389 29.5339 14.2731 29.5339ZM1.54633 21.908C1.81797 23.236 2.23046 24.071 2.87434 25.2984C3.82005 27.0892 5.64102 27.6727 7.58273 28.1556C9.78601 28.6989 12.0295 28.9806 14.2429 28.9906H14.2731C15.1484 28.9906 15.8023 28.8599 16.3254 28.5882C16.9492 28.2663 17.3818 27.7331 17.6434 26.9685C17.8345 26.4051 17.8446 26.0227 17.8446 25.4392C17.7842 25.8618 17.6836 26.4252 17.5227 26.9181C17.0599 28.2663 16.084 28.8397 14.2831 28.8397C14.2731 28.8397 14.263 28.8397 14.2529 28.8397C12.0497 28.8297 9.81619 28.548 7.63303 28.0047C5.72151 27.5318 3.92066 26.9584 3.00514 25.2179C2.49204 24.242 1.89846 22.7631 1.49604 21.5156C1.5061 21.6162 1.52621 21.7168 1.54633 21.8375C1.53627 21.8677 1.54633 21.8878 1.54633 21.908Z" fill="#D34031"/>
<defs>
<linearGradient id="paint0_linear_78_5747" x1="12.178" y1="46.0821" x2="3.0965" y2="46.1187" gradientUnits="userSpaceOnUse">
<stop stop-color="#BFAB8D"/>
<stop offset="0.5078" stop-color="#E7E1D2"/>
<stop offset="1" stop-color="#CCBFA6"/>
</linearGradient>
<linearGradient id="paint1_linear_78_5747" x1="23.6728" y1="14.8141" x2="-2.65433" y2="14.9201" gradientUnits="userSpaceOnUse">
<stop stop-color="#94938C"/>
<stop offset="0.2296" stop-color="#EDEBE1"/>
<stop offset="0.7988" stop-color="#EDEBE1"/>
<stop offset="1" stop-color="#94938C"/>
</linearGradient>
</defs>
</svg>
