<svg width="18" height="64" viewBox="0 0 18 64" fill="none" xmlns="http://www.w3.org/2000/svg">
<path d="M14.7185 22.8164C14.7185 22.8164 6.54924 26.7401 4.25541 23.4704C4.34596 26.6797 4.39626 29.8991 4.44657 33.1085C4.52705 39.2153 4.55724 45.3321 4.37615 51.4389C4.31579 53.5819 4.26548 55.7348 4.0542 57.8677C3.9536 58.9542 3.80269 60.0408 3.60148 61.1173C3.51093 61.6103 3.21917 62.1938 3.45056 62.6465C3.75238 63.2501 4.54717 63.3809 5.09045 63.1093C5.86512 62.727 6.37821 61.7914 6.76051 61.067C7.68609 59.3164 8.28973 57.3949 8.82295 55.5035C12.1027 44.0645 14.2154 26.3376 14.7185 22.8164Z" fill="url(#paint0_linear_78_5735)"/>
<path d="M15.9772 0.38158C15.2025 -0.0107857 14.0053 0.230666 13.1502 0.220605C11.5807 0.210545 10.0112 0.210538 8.44177 0.260841C6.69122 0.311145 4.24648 0.109935 2.62671 0.924848C1.06731 1.69952 0.906346 3.65128 0.946589 5.1805C1.13774 11.2169 1.52004 17.5752 3.95471 23.1891C4.66902 24.8289 5.66502 26.4889 7.22442 27.4548C9.63898 28.9538 12.4057 28.0886 13.7739 25.6841C14.8705 23.7625 15.3031 21.5492 15.5345 19.3761C15.7056 17.7362 15.6049 16.0762 15.7156 14.4262C15.8363 12.6857 16.3494 11.0056 16.6311 9.28524C17.0738 6.56887 17.607 3.74183 16.601 1.08582C16.4702 0.74376 16.2488 0.522429 15.9772 0.38158Z" fill="url(#paint1_linear_78_5735)"/>
<path d="M10.0707 28.5795C10.9762 28.5795 12.0929 28.5091 12.8676 27.9759C13.6523 27.4427 14.1654 26.5976 14.5377 25.7525C15.2117 24.2534 15.594 22.3922 15.2721 21.4365C15.0105 21.9093 14.8797 22.6035 14.6383 23.5693C14.3264 24.7866 13.8636 25.5412 13.099 26.5372C12.6765 27.0805 12.0929 27.6137 11.439 27.8551C10.7247 28.1167 9.93995 28.1167 9.19546 27.9658C8.27994 27.7747 7.35436 27.4527 6.62999 26.839C5.81508 26.1549 5.2215 25.2394 4.69835 24.3239C4.13495 23.3379 3.65204 22.3218 3.24961 21.2654C3.01822 20.6618 3.11883 20.9535 2.93773 20.3398C2.69628 21.3761 3.23955 23.2876 3.81301 24.2434C3.96392 24.4949 4.1249 24.7363 4.29593 24.9778C4.52732 25.2997 4.75872 25.6217 4.99012 25.9537C6.16721 27.6338 8.91376 28.5795 10.0707 28.5795Z" fill="#D34031"/>
<path d="M10.0717 28.8528C8.89457 28.8528 6.02729 27.9172 4.77977 26.1264C4.6691 25.9654 4.54838 25.8045 4.43771 25.6435C4.32705 25.4825 4.20632 25.3215 4.09565 25.1606C3.92462 24.9091 3.75359 24.6575 3.60268 24.406C3.03928 23.4804 2.42558 21.4583 2.68715 20.3013L2.91854 19.2852L3.21031 20.2812C3.25055 20.4019 3.27068 20.4924 3.2908 20.5528C3.3411 20.7339 3.3411 20.7339 3.41152 20.9049C3.4417 20.9653 3.47189 21.0558 3.52219 21.1866C3.92462 22.2229 4.40752 23.239 4.96086 24.2048C5.43371 25.0298 6.01722 25.9654 6.83214 26.6395C7.42571 27.1425 8.22051 27.4846 9.27688 27.7059C10.0415 27.8669 10.7659 27.8267 11.3695 27.6053C11.9027 27.4142 12.456 26.9614 12.9088 26.3779C13.6633 25.392 14.106 24.6777 14.3977 23.5106C14.448 23.3094 14.4984 23.1183 14.5386 22.9372C14.6996 22.2531 14.8304 21.7198 15.0517 21.3174L15.3535 20.7741L15.5547 21.3677C15.927 22.4845 15.4239 24.4865 14.8102 25.8749C14.3173 26.9715 13.7438 27.7361 13.0396 28.2089C12.1744 28.7824 11.0073 28.8528 10.0717 28.8528ZM15.0618 23.0277C15.0618 23.0378 15.0517 23.0579 15.0517 23.068C15.0115 23.249 14.9612 23.4402 14.9108 23.6515C14.5889 24.899 14.106 25.6938 13.3213 26.72C13.0194 27.1123 12.3957 27.8166 11.5405 28.1285C11.3695 28.1888 11.1884 28.2391 11.0073 28.2794C11.621 28.219 12.2448 28.0882 12.7176 27.7663C13.3313 27.3538 13.8444 26.6596 14.2971 25.6636C14.6795 24.7783 14.9511 23.8326 15.0618 23.0277ZM3.31091 22.1223C3.46182 22.8064 3.71334 23.5509 4.06546 24.1243C4.21637 24.3658 4.36728 24.6072 4.53831 24.8487C4.64898 25.0097 4.76972 25.1706 4.88038 25.3316C4.99105 25.4926 5.11177 25.6535 5.2325 25.8246C5.46389 26.1566 5.76572 26.4584 6.10778 26.73C5.42366 26.0459 4.91057 25.2209 4.48802 24.4865C4.04535 23.7219 3.65297 22.9271 3.31091 22.1223Z" fill="#D34031"/>
<defs>
<linearGradient id="paint0_linear_78_5735" x1="2.07678" y1="43.003" x2="11.3097" y2="43.0364" gradientUnits="userSpaceOnUse">
<stop stop-color="#BFAB8D"/>
<stop offset="0.5078" stop-color="#E7E1D2"/>
<stop offset="1" stop-color="#CCBFA6"/>
</linearGradient>
<linearGradient id="paint1_linear_78_5735" x1="-1.77311" y1="14.1197" x2="20.4196" y2="14.1998" gradientUnits="userSpaceOnUse">
<stop stop-color="#94938C"/>
<stop offset="0.2296" stop-color="#EDEBE1"/>
<stop offset="0.7988" stop-color="#EDEBE1"/>
<stop offset="1" stop-color="#94938C"/>
</linearGradient>
</defs>
</svg>
