<svg width="16" height="65" viewBox="0 0 16 65" fill="none" xmlns="http://www.w3.org/2000/svg">
<path d="M2.54434 24.5195C2.54434 32.055 1.00507 39.53 0.663003 47.0654C0.522154 50.1339 0.280696 53.2024 0.331 56.2709C0.361182 58.7056 0.18009 62.7701 1.69925 64.8426C2.34313 65.7179 4.24459 61.8143 4.42568 61.4421C5.56254 59.098 6.27685 56.6029 7.15213 54.1582C8.11795 51.4619 9.11396 48.7456 9.90875 45.9789C10.9651 42.2967 11.5788 38.4636 12.2529 34.7009C12.3636 34.1073 13.2791 26.5317 13.6614 26.4713C13.6513 26.4814 4.49611 27.7892 2.54434 24.5195Z" fill="url(#paint0_linear_78_5719)"/>
<path d="M15.151 0.48483C15.0001 0.354041 14.7385 0.323862 14.2556 0.28362C13.5111 0.223256 12.7365 0.273549 11.992 0.273549C8.95367 0.28361 5.91536 0.343981 2.86699 0.343981C2.86699 0.343981 -0.0707261 0.997927 0.251214 2.62775C0.573155 4.25758 1.5591 24.5298 2.53498 25.8377C3.51087 27.1455 5.80469 31.3911 10.7042 30.0832C15.6037 28.7754 14.6279 17.3364 14.6279 17.3364C14.4971 15.2639 15.0202 12.9701 15.1611 10.8976C15.3724 7.81903 15.5534 4.72036 15.3724 1.6418C15.3422 0.957674 15.322 0.6458 15.151 0.48483Z" fill="url(#paint1_linear_78_5719)"/>
<path d="M10.1697 30.6761C11.0047 30.6761 11.7592 30.3844 12.3931 29.821C15.3207 27.2153 14.9384 20.867 14.9183 20.5451L14.6466 19.6799C14.6466 19.7603 14.6265 26.9134 11.9403 29.3179C11.2964 29.8914 10.552 30.1027 9.66662 29.9618C6.73898 29.5091 5.00854 28.6841 3.86163 27.175C2.61411 25.5351 1.72877 22.9496 1.5678 18.875L1.38672 19.9213C1.54769 24.1468 1.98029 25.837 3.31836 27.5976C4.57594 29.2475 6.44722 30.163 9.55595 30.6459C9.76723 30.6661 9.96844 30.6761 10.1697 30.6761Z" fill="#D34031"/>
<path d="M10.1695 30.9474C9.95826 30.9474 9.74699 30.9273 9.52565 30.8971C6.33643 30.4042 4.41484 29.4685 3.10695 27.7482C1.7387 25.9473 1.28597 24.1867 1.125 19.921V19.8908L1.74877 16.2891L1.84937 18.8545C1.99022 22.4965 2.74477 25.2431 4.08283 27.0037C5.17945 28.4423 6.85958 29.2472 9.71681 29.6798C10.5217 29.8005 11.1957 29.6094 11.7692 29.0963C13.0972 27.9192 13.7411 25.4543 14.0429 23.6032C14.385 21.5105 14.385 19.6896 14.385 19.6694L14.3145 17.6674L15.1999 20.4743V20.5146C15.1999 20.5246 15.1999 20.5447 15.1999 20.5648C15.2703 22.1645 15.3005 27.5872 12.574 30.0118C11.8798 30.6356 11.075 30.9474 10.1695 30.9474ZM2.05058 24.0257C2.33228 25.4644 2.78502 26.4202 3.53957 27.4162C4.75691 29.0057 6.56782 29.8911 9.60614 30.3539C10.6021 30.5048 11.4875 30.2533 12.2118 29.6094C13.3487 28.5933 14.1133 26.8628 14.4654 24.4684C14.4956 24.2571 14.5258 24.0458 14.5459 23.8245C14.0831 26.5811 13.2582 28.4926 12.1213 29.5088C11.4171 30.1426 10.5921 30.374 9.62627 30.2231C6.62819 29.7603 4.83739 28.8951 3.65023 27.3357C2.96611 26.4403 2.43288 25.3437 2.05058 24.0257Z" fill="#D34031"/>
<defs>
<linearGradient id="paint0_linear_78_5719" x1="12.5718" y1="44.7116" x2="-3.73331" y2="44.7705" gradientUnits="userSpaceOnUse">
<stop stop-color="#BFAB8D"/>
<stop offset="0.5078" stop-color="#E7E1D2"/>
<stop offset="1" stop-color="#CCBFA6"/>
</linearGradient>
<linearGradient id="paint1_linear_78_5719" x1="17.7056" y1="15.262" x2="-1.83707" y2="15.3326" gradientUnits="userSpaceOnUse">
<stop stop-color="#94938C"/>
<stop offset="0.2296" stop-color="#EDEBE1"/>
<stop offset="0.7988" stop-color="#EDEBE1"/>
<stop offset="1" stop-color="#94938C"/>
</linearGradient>
</defs>
</svg>
