<svg width="16" height="66" viewBox="0 0 16 66" fill="none" xmlns="http://www.w3.org/2000/svg">
<path d="M13.1951 24.5703C13.1951 32.1057 14.7344 39.5808 15.0765 47.1162C15.2173 50.1847 15.4588 53.2532 15.4085 56.3217C15.3783 58.7564 15.5594 62.8209 14.0402 64.8934C13.3964 65.7687 11.4949 61.8651 11.3138 61.4929C10.1769 59.1487 9.46264 56.6537 8.58737 54.209C7.62155 51.5127 6.62554 48.7964 5.83074 46.0297C4.77438 42.3475 4.16067 38.5144 3.48661 34.7517C3.37594 34.1581 2.46043 26.5824 2.07812 26.5221C2.08819 26.5321 11.2333 27.83 13.1951 24.5703Z" fill="url(#paint0_linear_78_5711)"/>
<path d="M0.588577 0.523887C0.739487 0.393099 1.00106 0.36292 1.48397 0.322677C2.22846 0.262313 3.00313 0.312622 3.74762 0.312622C6.78594 0.322683 9.82424 0.383039 12.8726 0.383039C12.8726 0.383039 15.8103 1.03698 15.4884 2.66681C15.1665 4.29663 14.1805 24.5688 13.2046 25.8767C12.2287 27.1846 9.93492 31.4302 5.03538 30.1223C0.135846 28.8144 1.11172 17.3755 1.11172 17.3755C1.24251 15.303 0.719356 13.0092 0.578507 10.9367C0.367233 7.8581 0.18615 4.75943 0.367242 1.68087C0.397424 1.00681 0.407486 0.684857 0.588577 0.523887Z" fill="url(#paint1_linear_78_5711)"/>
<path d="M5.56725 30.7298C4.73222 30.7298 3.97766 30.438 3.34384 29.8746C0.416187 27.2689 0.818613 20.5283 0.828674 20.1963L1.06008 19.2305C1.06008 19.311 1.10032 26.9671 3.79658 29.3615C4.44046 29.935 5.18495 30.1463 6.07028 30.0054C8.99794 29.5527 10.7284 28.7277 11.8753 27.2186C13.1228 25.5787 14.0584 23.7075 14.2194 19.6329L14.3502 19.9649C14.1892 24.1904 13.7566 25.8805 12.4186 27.6412C11.161 29.2911 9.2897 30.2066 6.18095 30.6895C5.95962 30.7097 5.7584 30.7298 5.56725 30.7298Z" fill="#D34031"/>
<path d="M5.56835 30.9995C4.66289 30.9995 3.84798 30.6876 3.16386 30.0739C1.9264 28.9673 1.11148 27.0658 0.739236 24.4098C0.558145 23.1019 0.487727 21.623 0.558152 20.2346V20.1642L0.799598 19.1682L1.43342 16.5625L1.34288 19.2386C1.34288 19.2487 1.35294 21.1904 1.70507 23.4239C2.01695 25.3857 2.66082 27.9813 3.98882 29.1584C4.57234 29.6715 5.23635 29.8627 6.0412 29.7419C8.88837 29.2993 10.5785 28.5045 11.6752 27.0658C12.973 25.3555 13.808 23.5144 13.9589 19.631L14.0092 18.3231L14.633 19.9228V19.9831C14.462 24.2488 14.0193 25.9994 12.651 27.8103C11.3432 29.5307 9.42159 30.4663 6.23236 30.9593C5.9909 30.9794 5.77963 30.9995 5.56835 30.9995ZM1.22214 23.937C1.24226 24.0677 1.25233 24.1985 1.27245 24.3293C1.61451 26.8143 2.39924 28.6655 3.51597 29.6615C4.10955 30.1846 4.79369 30.4562 5.5583 30.4562C5.73939 30.4562 5.93054 30.4462 6.12169 30.416C9.16001 29.9532 10.981 29.0679 12.1883 27.4783C12.7215 26.7741 13.1038 26.0899 13.3855 25.2448C12.973 26.1704 12.48 26.8747 12.0776 27.3978C10.8904 28.9572 9.09964 29.8224 6.10157 30.2852C5.12568 30.4361 4.31077 30.2047 3.60653 29.5709C2.50992 28.5749 1.70505 26.6835 1.22214 23.937Z" fill="#D34031"/>
<defs>
<linearGradient id="paint0_linear_78_5711" x1="3.16518" y1="44.7575" x2="19.4702" y2="44.8164" gradientUnits="userSpaceOnUse">
<stop stop-color="#BFAB8D"/>
<stop offset="0.5078" stop-color="#E7E1D2"/>
<stop offset="1" stop-color="#CCBFA6"/>
</linearGradient>
<linearGradient id="paint1_linear_78_5711" x1="-1.96864" y1="15.3062" x2="17.5742" y2="15.3767" gradientUnits="userSpaceOnUse">
<stop stop-color="#94938C"/>
<stop offset="0.2296" stop-color="#EDEBE1"/>
<stop offset="0.7988" stop-color="#EDEBE1"/>
<stop offset="1" stop-color="#94938C"/>
</linearGradient>
</defs>
</svg>
