<svg width="18" height="64" viewBox="0 0 18 64" fill="none" xmlns="http://www.w3.org/2000/svg">
<path d="M3.4375 22.9062C3.4375 22.9062 11.6067 26.8299 13.9006 23.5602C13.81 26.7695 13.7597 29.9889 13.7094 33.1983C13.6289 39.3051 13.5988 45.422 13.7798 51.5288C13.8402 53.6717 13.8905 55.8247 14.1018 57.9575C14.2024 59.0441 14.3533 60.1306 14.5545 61.2071C14.6451 61.7001 14.9368 62.2836 14.7054 62.7363C14.4036 63.34 13.6088 63.4708 13.0656 63.1991C12.2909 62.8168 11.7778 61.8812 11.3955 61.1568C10.4699 59.4063 9.86627 57.4847 9.33306 55.5933C6.05329 44.1543 3.94053 26.4275 3.4375 22.9062Z" fill="url(#paint0_linear_78_5727)"/>
<path d="M2.17803 0.471423C2.9527 0.0790582 4.14992 0.32051 5.00507 0.310449C6.57453 0.300389 8.14399 0.300397 9.71345 0.3507C11.464 0.401003 13.9088 0.199779 15.5285 1.01469C17.0879 1.78936 17.2489 3.74113 17.2087 5.27035C17.0175 11.3067 16.6352 17.665 14.2005 23.2789C13.4862 24.9188 12.4902 26.5788 10.9308 27.5446C8.51626 29.0436 5.74957 28.1784 4.38132 25.7739C3.2847 23.8523 2.8521 21.639 2.6207 19.4659C2.44967 17.826 2.55028 16.166 2.43962 14.5161C2.31889 12.7756 1.80579 11.0954 1.52409 9.37508C1.08142 6.65871 0.548209 3.83167 1.55427 1.17566C1.68506 0.833603 1.90639 0.612272 2.17803 0.471423Z" fill="url(#paint1_linear_78_5727)"/>
<path d="M8.10485 28.5795C7.19939 28.5795 6.08266 28.5091 5.30799 27.9759C4.52326 27.4427 4.01017 26.5976 3.63792 25.7525C2.96386 24.2534 2.4407 21.3057 2.75258 20.3499C3.01416 20.8227 3.3864 22.1306 3.62785 23.0965C3.93973 24.3138 4.31198 25.5412 5.07659 26.5372C5.49913 27.0805 6.08264 27.6137 6.73658 27.8551C7.45089 28.1167 8.23563 28.1167 8.98012 27.9658C9.89564 27.7747 10.8212 27.4527 11.5456 26.839C12.3605 26.1549 12.9541 25.2394 13.4772 24.3239C14.0406 23.3379 14.5235 22.3218 14.926 21.2654C15.1574 20.6618 15.0567 20.9535 15.2378 20.3398C15.4793 21.3761 14.936 23.2876 14.3626 24.2434C14.2117 24.4949 14.0507 24.7363 13.8796 24.9778C13.6482 25.2997 13.4168 25.6217 13.1855 25.9537C12.0184 27.6338 9.27188 28.5795 8.10485 28.5795Z" fill="#D34031"/>
<path d="M8.10366 28.8528C7.17808 28.8528 6.00096 28.7824 5.15586 28.2089C4.46168 27.7361 3.87818 26.9715 3.38521 25.8749C2.71114 24.3658 2.14773 21.3174 2.48979 20.2711L2.69102 19.6775L2.99283 20.2208C3.30471 20.7943 3.72725 22.3738 3.89828 23.0277C4.17998 24.1344 4.54218 25.392 5.29673 26.3779C5.7394 26.9614 6.30279 27.4142 6.83601 27.6053C7.43965 27.8267 8.164 27.8669 8.92861 27.7059C9.97492 27.4846 10.7798 27.1425 11.3734 26.6395C12.1782 25.9654 12.7718 25.0298 13.2446 24.2048C13.798 23.239 14.2809 22.2229 14.6833 21.1866C14.7336 21.0558 14.7638 20.9753 14.794 20.9049C14.8644 20.7339 14.8644 20.7339 14.9147 20.5528C14.9348 20.4924 14.9549 20.4019 14.9952 20.2812L15.287 19.2852L15.5184 20.3013C15.79 21.4683 15.1662 23.4804 14.6028 24.406C14.4519 24.6575 14.2809 24.9091 14.1099 25.1606C13.9992 25.3215 13.8785 25.4926 13.7678 25.6435C13.6571 25.8045 13.5364 25.9654 13.4257 26.1264C12.138 27.9172 9.28075 28.8528 8.10366 28.8528ZM2.95261 21.6897C3.04315 22.9171 3.41539 24.6173 3.88824 25.6535C4.34097 26.6596 4.85407 27.3437 5.46777 27.7562C5.94062 28.0782 6.56436 28.219 7.17806 28.2693C6.99697 28.2291 6.81588 28.1788 6.64485 28.1184C5.78969 27.8065 5.16595 27.1023 4.86413 26.7099C4.04921 25.6435 3.6669 24.3255 3.37514 23.1686C3.24435 22.6957 3.09346 22.1625 2.95261 21.6897ZM14.8644 22.1223C14.5224 22.9271 14.13 23.7219 13.6974 24.4765C13.2748 25.2109 12.7617 26.0459 12.0776 26.72C12.4197 26.4483 12.7114 26.1465 12.9529 25.8145C13.0635 25.6536 13.1843 25.4825 13.305 25.3215C13.4157 25.1606 13.5364 24.9996 13.6471 24.8386C13.8181 24.5972 13.969 24.3557 14.1199 24.1143C14.462 23.5509 14.7236 22.8064 14.8644 22.1223Z" fill="#D34031"/>
<defs>
<linearGradient id="paint0_linear_78_5727" x1="16.0792" y1="43.093" x2="6.84635" y2="43.1263" gradientUnits="userSpaceOnUse">
<stop stop-color="#BFAB8D"/>
<stop offset="0.5078" stop-color="#E7E1D2"/>
<stop offset="1" stop-color="#CCBFA6"/>
</linearGradient>
<linearGradient id="paint1_linear_78_5727" x1="19.9285" y1="14.2096" x2="-2.26425" y2="14.2898" gradientUnits="userSpaceOnUse">
<stop stop-color="#94938C"/>
<stop offset="0.2296" stop-color="#EDEBE1"/>
<stop offset="0.7988" stop-color="#EDEBE1"/>
<stop offset="1" stop-color="#94938C"/>
</linearGradient>
</defs>
</svg>
