<svg width="20" height="67" viewBox="0 0 20 67" fill="none" xmlns="http://www.w3.org/2000/svg">
<path d="M3.37109 27.2271C5.27256 27.217 7.21425 27.046 9.11572 26.885C11.4196 26.7039 14.6491 26.8146 16.7517 25.7079C16.9429 25.6073 17.0033 25.2653 17.1843 25.1445C17.5868 26.4927 17.2447 28.6557 17.1642 30.034C16.9328 33.9878 16.7618 37.9417 16.802 41.8955C16.8222 44.0787 16.9429 46.2518 17.1441 48.4249C17.4158 51.4229 18.4319 54.3606 18.7035 57.3889C18.8947 59.5117 18.8645 61.6747 18.452 63.7774C18.3212 64.4414 18.13 66.1517 17.5566 66.3127C16.802 66.524 15.6652 65.3569 15.2829 64.8438C14.0253 63.1537 13.7034 60.8598 13.0595 58.898C12.3452 56.7048 11.5001 54.5518 10.6349 52.4089C8.95476 48.2236 7.19412 44.0585 6.11763 39.6721C5.48381 37.1066 5.20211 34.4808 4.60853 31.9154C4.23629 30.3459 3.81376 28.7865 3.37109 27.2271Z" fill="url(#paint0_linear_78_5739)"/>
<path d="M1.16817 8.48248C1.16817 8.48248 0.192271 3.25095 2.47604 1.62112C4.7598 -0.00869973 5.74575 0.645241 5.74575 0.645241C6.69145 0.906818 7.64723 1.14827 8.59293 1.37966C10.1624 1.76197 11.8526 2.31531 13.4824 2.26501C13.8043 2.25494 14.1363 2.22475 14.4583 2.25493C16.8829 2.49639 17.2753 5.08198 17.6374 6.96332C18.1002 9.38794 18.4322 11.8427 18.6234 14.3076C18.7843 16.3398 18.8648 18.3922 18.6938 20.4245C18.5731 21.8933 18.3618 23.5835 17.4966 24.831C16.2893 26.5715 14.076 27.3663 12.094 27.819C9.57885 28.4026 6.93291 28.5333 4.36744 28.4227C2.96901 28.3623 2.57663 25.2435 2.49615 24.2576C2.09372 18.9959 1.65108 13.7341 1.16817 8.48248Z" fill="url(#paint1_linear_78_5739)"/>
<path d="M5.9263 28.9457C5.01078 28.9457 4.31659 28.8048 3.75319 28.5131C3.06907 28.1509 2.58619 27.5774 2.30449 26.7424C2.02279 25.9376 2.10325 25.4747 2.09319 24.4486C2.09319 23.9455 2.45539 23.4526 2.45539 23.4526C2.45539 23.4526 2.64653 25.6458 2.94835 26.5211C3.38096 27.7686 4.24618 28.2716 5.96655 28.2616C8.14971 28.2515 10.353 27.9799 12.5261 27.4366C14.3773 26.9738 16.1077 26.4305 16.9729 24.7906C17.6671 23.4727 18.3412 22.3157 18.6531 21.0078C19.1058 21.5209 18.9046 21.6618 18.9247 21.6416C18.6329 23.0401 18.1902 23.9254 17.5665 25.1126C16.5705 27.004 14.6892 27.6076 12.677 28.1006C10.4536 28.6539 8.18995 28.9356 5.95648 28.9457C5.94642 28.9457 5.93636 28.9457 5.9263 28.9457Z" fill="#D34031"/>
<path d="M5.92821 29.2188C4.96239 29.2188 4.22798 29.0679 3.62435 28.756C2.8698 28.3636 2.3567 27.7399 2.04482 26.8344C1.81343 26.1503 1.81342 25.6774 1.82348 25.0336C1.82348 24.8625 1.82348 24.6714 1.82348 24.4601C1.82348 23.8766 2.22591 23.3232 2.23597 23.3031L2.66857 22.7096L2.72894 23.4339C2.72894 23.454 2.92009 25.607 3.20179 26.432C3.58409 27.5487 4.34869 27.9914 5.92821 27.9914C5.93827 27.9914 5.94833 27.9914 5.95839 27.9914C8.12143 27.9813 10.3046 27.7097 12.4576 27.1765C14.2484 26.7338 15.9184 26.2006 16.7334 24.6613C16.8239 24.4903 16.9144 24.3193 17.005 24.1583C17.5885 23.0717 18.1318 22.0456 18.4034 20.9389L18.5241 20.4258L18.8662 20.8181C18.9567 20.9188 19.0272 21.0194 19.0775 21.1099L19.3793 20.8181L19.2284 21.5325C19.2284 21.623 19.2083 21.6934 19.1881 21.7437C18.8964 23.112 18.4738 23.9772 17.8199 25.2348C16.7736 27.2268 14.8319 27.8505 12.7594 28.3636C10.5159 28.917 8.2321 29.2087 5.96846 29.2188H5.92821ZM2.3567 25.0336C2.34664 25.6774 2.34664 26.0597 2.54785 26.6533C2.80943 27.4179 3.24203 27.9411 3.86579 28.2731C4.38895 28.5447 5.04289 28.6755 5.91817 28.6755H5.94835C8.16169 28.6655 10.4052 28.3838 12.6085 27.8405C14.5502 27.3576 16.3812 26.7741 17.3169 24.9833C17.7998 24.0678 18.1519 23.3635 18.4135 22.5184C18.1418 23.1522 17.8098 23.776 17.4678 24.4199C17.3772 24.5808 17.2867 24.7519 17.2062 24.9229C16.2907 26.6634 14.4999 27.2368 12.5783 27.7097C10.3851 28.253 8.16167 28.5347 5.95839 28.5447C5.94833 28.5447 5.93827 28.5447 5.92821 28.5447C4.12736 28.5447 3.15147 27.9713 2.68868 26.6231C2.5579 26.2308 2.44724 25.6171 2.3567 25.0336Z" fill="#D34031"/>
<defs>
<linearGradient id="paint0_linear_78_5739" x1="7.99421" y1="45.7163" x2="17.0758" y2="45.7528" gradientUnits="userSpaceOnUse">
<stop stop-color="#BFAB8D"/>
<stop offset="0.5078" stop-color="#E7E1D2"/>
<stop offset="1" stop-color="#CCBFA6"/>
</linearGradient>
<linearGradient id="paint1_linear_78_5739" x1="-3.49831" y1="14.4482" x2="22.8288" y2="14.5542" gradientUnits="userSpaceOnUse">
<stop stop-color="#94938C"/>
<stop offset="0.2296" stop-color="#EDEBE1"/>
<stop offset="0.7988" stop-color="#EDEBE1"/>
<stop offset="1" stop-color="#94938C"/>
</linearGradient>
</defs>
</svg>
