<svg width="18" height="53" viewBox="0 0 18 53" fill="none" xmlns="http://www.w3.org/2000/svg">
<path d="M2.84766 21.3357C2.84766 21.3357 9.05508 46.8293 14.2866 51.0749C19.5182 55.3205 16.9024 46.8293 16.9024 46.8293C16.9024 46.8293 14.9406 31.1448 14.9406 28.197C14.9406 25.2493 15.9768 19.7461 15.9768 19.7461C15.9768 19.7461 5.9061 21.9192 2.84766 21.3357Z" fill="url(#paint0_linear_78_5751)"/>
<path d="M2.52765 2.05762C2.52765 2.05762 -0.742049 3.68746 0.243894 8.26505C1.21978 12.8426 0.89783 15.4584 0.89783 15.4584C0.89783 15.4584 1.55175 23.3057 7.10523 23.6276C12.6587 23.9496 16.2604 20.6899 16.5824 18.7281C16.9043 16.7663 16.9043 11.2128 17.2363 10.2269C17.5582 9.25099 18.5442 3.03351 15.2745 2.05762C12.0048 1.08174 10.043 0.749752 10.043 0.749752C10.043 0.749752 6.77324 -0.236203 2.52765 2.05762Z" fill="url(#paint1_linear_78_5751)"/>
<path d="M7.89959 24.1189C6.64202 24.1189 5.38445 23.797 4.01621 22.972C3.52324 22.6702 3.2516 22.3885 2.90954 21.9156C2.72845 21.7748 2.64796 21.4327 2.90954 21.1007C3.27172 21.5836 3.87535 22.0867 4.37838 22.3885C7.09474 24.0384 9.2779 23.4952 12.3061 22.479C13.7549 21.9961 14.8012 21.5032 15.5256 20.3663C15.9179 19.7425 16.4914 19.1993 16.6121 18.4648C16.7026 18.6962 16.7932 18.5655 16.6624 19.1892C16.2398 21.0907 15.2338 22.2175 12.5275 23.1229C10.8474 23.6863 9.36844 24.1189 7.89959 24.1189Z" fill="#D34031"/>
<path d="M7.89818 24.3905C6.48969 24.3905 5.21199 24.0082 3.87392 23.2033C3.34071 22.8713 3.04894 22.5594 2.70688 22.1067C2.58615 21.996 2.49563 21.8351 2.47551 21.654C2.44533 21.4125 2.51575 21.151 2.69684 20.9296L2.91818 20.6479L3.12944 20.9296C3.44132 21.3522 3.9846 21.825 4.51782 22.147C5.74522 22.8914 6.91223 23.2134 8.21006 23.153C9.49782 23.0927 10.8359 22.6802 12.2142 22.2174C13.7032 21.7143 14.6288 21.2516 15.2928 20.2153C15.4034 20.0342 15.5342 19.8632 15.665 19.6922C15.9769 19.2696 16.2686 18.8772 16.3491 18.4145L16.5101 17.4688L16.8622 18.3641C16.8723 18.3943 16.8823 18.4145 16.9025 18.4346C17.0232 18.6257 17.0332 18.7666 16.9226 19.2495C16.4497 21.3622 15.2827 22.489 12.6066 23.3844C11.017 23.9176 9.46764 24.3905 7.89818 24.3905ZM3.12944 21.7546C3.44132 22.1771 3.68277 22.4488 4.15562 22.7305C5.40314 23.485 6.5903 23.8472 7.89818 23.8472C9.38715 23.8472 10.8862 23.3844 12.4255 22.8713C14.5281 22.1671 15.5946 21.3622 16.1379 19.9638C16.1278 19.9839 16.1077 20.004 16.0976 20.0242C15.9769 20.1952 15.8562 20.3562 15.7455 20.5171C15.001 21.6842 13.9547 22.2174 12.3852 22.7405C10.9667 23.2134 9.58838 23.646 8.2302 23.7064C6.82171 23.7667 5.55406 23.4247 4.22605 22.6198C3.84375 22.3783 3.45138 22.0765 3.12944 21.7546Z" fill="#D34031"/>
<defs>
<linearGradient id="paint0_linear_78_5751" x1="16.108" y1="36.011" x2="4.55173" y2="36.0528" gradientUnits="userSpaceOnUse">
<stop stop-color="#BFAB8D"/>
<stop offset="0.5078" stop-color="#E7E1D2"/>
<stop offset="1" stop-color="#CCBFA6"/>
</linearGradient>
<linearGradient id="paint1_linear_78_5751" x1="20.907" y1="12.0451" x2="-3.25952" y2="12.1325" gradientUnits="userSpaceOnUse">
<stop stop-color="#94938C"/>
<stop offset="0.2296" stop-color="#EDEBE1"/>
<stop offset="0.4283" stop-color="#EDEBE1"/>
<stop offset="0.7988" stop-color="#EDEBE1"/>
<stop offset="1" stop-color="#94938C"/>
</linearGradient>
</defs>
</svg>
