<svg width="27" height="50" viewBox="0 0 27 50" fill="none" xmlns="http://www.w3.org/2000/svg">
<path d="M11.9304 1.99272C11.9304 1.99272 11.0249 -0.0596509 9.19387 0.453442C7.36283 0.966535 6.72902 5.76547 7.06102 9.29676C7.39302 12.828 8.96248 24.0457 11.6688 24.2771C14.3751 24.5085 19.3149 18.1602 17.0613 14.6188C14.8077 11.0775 11.0853 4.87006 11.9304 1.99272Z" fill="url(#paint0_linear_78_5676)"/>
<path d="M23.7513 32.4461C20.552 32.2147 16.9201 30.6553 13.7209 30.5245C11.7087 30.444 9.69661 30.3132 7.68448 30.3736C6.7589 30.4038 5.37053 32.8787 4.46508 32.768C3.88156 32.6976 4.26386 30.2931 4.29405 29.6693C4.31417 29.1361 4.35441 28.613 4.28398 28.0898C4.00229 26.1883 2.95598 24.3774 2.52337 22.476C2.02034 20.2727 1.67828 18.0292 1.467 15.7856C1.24567 13.4013 1.15512 10.9666 1.467 8.59226C1.59779 7.56608 1.78894 6.51977 2.19137 5.56401C2.51331 4.81952 3.27792 3.35067 4.26387 3.4714C4.62605 3.51164 4.94799 3.71286 5.21962 3.96437C5.75284 4.43722 6.11502 5.08109 6.35647 5.7451C6.85951 7.1234 6.84945 8.61239 6.93999 10.0611C7.0406 11.5501 7.44303 12.9385 7.78509 14.3872C8.40885 17.0835 9.14328 20.2525 10.9039 22.4558C11.3365 22.989 11.9804 23.4317 12.6645 23.3613C13.0166 23.3311 13.3486 23.1701 13.6303 22.9589C14.6666 22.2144 15.1897 20.9367 15.3708 19.6791C15.733 17.1036 15.4614 14.2564 14.7772 11.7614C14.3748 10.2925 13.6303 8.98463 13.1675 7.54596C12.6846 6.0268 12.0307 3.01867 14.1736 2.44521C15.0388 2.21382 15.9543 2.65649 16.5982 3.27019C18.9926 5.56401 20.6023 8.97457 21.9907 11.9324C22.8358 13.7433 23.6608 15.6146 24.1839 17.5563C24.4958 18.7233 24.4656 19.8803 24.4355 21.0876C24.3248 24.4378 24.1336 29.1059 23.7513 32.4461Z" fill="url(#paint1_linear_78_5676)"/>
<path d="M4.81725 34.6084C4.54561 34.6889 4.15325 35.4334 4.00234 35.6446C3.40876 36.4897 2.88561 37.3952 2.49324 38.361C1.44693 40.9466 1.59784 43.7938 3.55967 45.9065C3.57979 45.9266 3.60997 45.9568 3.63009 45.9769C3.74076 46.0876 3.84137 46.1983 3.93191 46.319C4.17337 46.6711 4.23373 47.1238 4.46513 47.486C4.6764 47.8281 4.99834 48.15 5.31022 48.4116C6.03458 49.0253 7.00041 49.4479 7.96624 49.3573C8.29824 49.3271 8.61011 49.2064 8.92199 49.0857C10.2802 48.5826 11.749 47.9991 12.4633 46.651C12.3829 46.8019 12.7551 47.4257 12.8456 47.5565C13.067 47.8583 13.3487 47.9991 13.6907 48.1299C14.8377 48.5726 16.0952 48.9348 17.1918 49.478C17.9564 49.7698 18.5903 50.0515 19.3649 49.8C19.8177 49.6491 20.2704 49.5183 20.7231 49.3573C21.5582 49.0555 22.9465 48.5223 22.9465 47.4357C22.9465 45.7657 24.345 40.7353 20.9948 35.7151C17.6546 30.7049 4.82731 34.6084 4.81725 34.6084Z" fill="#D8D6D0"/>
<path d="M4.7963 30.4834C4.47436 30.584 4.02162 31.4492 3.84053 31.7007C3.13629 32.6867 2.53265 33.7531 2.07992 34.8799C0.85252 37.9082 1.03362 41.2382 3.32744 43.7232C3.35763 43.7534 3.37774 43.7836 3.40792 43.8138C3.52865 43.9446 3.65945 44.0753 3.76005 44.2162C4.04175 44.6287 4.11217 45.1518 4.38381 45.5844C4.63532 45.9869 5.00757 46.3692 5.36976 46.671C6.21485 47.3853 7.3517 47.8883 8.47849 47.7777C8.87086 47.7374 9.23304 47.5966 9.60529 47.4658C11.1949 46.8722 12.9152 46.1881 13.7503 44.6186C13.6497 44.7997 14.0923 45.5241 14.203 45.675C14.4646 46.0372 14.7865 46.1881 15.199 46.349C16.5471 46.8722 18.0059 47.2847 19.3037 47.9286C20.1991 48.2706 20.9436 48.6026 21.8591 48.3008C22.3823 48.1298 22.9256 47.9789 23.4487 47.7877C24.4246 47.4255 26.0545 46.8018 26.0545 45.5341C26.0545 43.5723 27.6843 37.6868 23.7707 31.8114C19.837 25.9058 4.80636 30.4733 4.7963 30.4834Z" fill="url(#paint2_linear_78_5676)"/>
<path d="M25.9358 38.0421L26.3584 39.6216C26.7206 36.9857 25.8352 34.6215 25.0807 33.1727C23.7326 30.5871 21.3784 29.0479 18.0885 28.6052C17.6559 28.5448 17.2032 28.5046 16.7002 28.4744C14.2756 28.3235 11.8308 28.4744 9.43639 28.9372C9.23517 28.9774 9.0239 29.0177 8.81262 29.0579C6.99164 29.3899 4.91915 29.7622 3.63139 31.3115C2.9875 32.0862 2.42411 33.1224 2.01162 34.3096C1.93114 34.551 1.83053 34.7824 1.72992 35.0339C1.4281 35.7885 1.0961 37.2674 1.3275 38.354L1.59914 37.358C1.56896 36.6537 2.07199 36.0098 2.36375 35.2855C2.46436 35.0339 2.56496 34.7824 2.6555 34.5208C3.03781 33.4142 3.56097 32.4484 4.15454 31.734C5.28134 30.3759 7.14256 30.0439 8.93335 29.7219C9.14463 29.6817 9.3559 29.6414 9.56717 29.6012C11.9113 29.1585 14.2957 29.0076 16.67 29.1585C17.1529 29.1887 17.5956 29.229 18.0081 29.2893C19.487 29.4905 20.7747 29.9231 21.821 30.5771C22.9478 31.2813 23.8432 32.2572 24.4871 33.4947C25.1914 34.873 25.6944 36.4424 25.9358 38.0421Z" fill="#D34031"/>
<path d="M26.437 40.9881L25.6624 38.0906V38.0705C25.431 36.501 24.938 34.9617 24.2237 33.6035C23.5999 32.4164 22.7347 31.4707 21.6582 30.7866C20.6421 30.1527 19.3946 29.7302 17.9559 29.539C17.5434 29.4787 17.1108 29.4384 16.638 29.4082C14.2938 29.2573 11.9296 29.4082 9.60556 29.8509C9.39428 29.8912 9.18301 29.9314 8.97174 29.9716C7.22118 30.2835 5.41026 30.6155 4.3539 31.8932C3.78044 32.5874 3.2774 33.513 2.90516 34.5995C2.81461 34.8611 2.71401 35.1227 2.60335 35.3742C2.5128 35.6056 2.39207 35.8269 2.28141 36.0483C2.05001 36.4909 1.83874 36.9135 1.85886 37.336V37.3763L1.27534 39.5091L1.04394 38.4025C0.792426 37.2153 1.16467 35.676 1.46649 34.9215C1.56709 34.67 1.65764 34.4386 1.73813 34.2072C2.16068 32.9898 2.73413 31.9234 3.40819 31.1185C4.75632 29.4988 6.87912 29.1165 8.7504 28.7744C8.97174 28.7342 9.17294 28.6939 9.37416 28.6638C11.7887 28.201 14.2636 28.0501 16.7084 28.201C17.2114 28.2311 17.6742 28.2814 18.1169 28.3418C21.4972 28.7945 23.9219 30.3841 25.3102 33.0502C26.1151 34.5895 26.9904 36.9839 26.6181 39.66L26.437 40.9881ZM14.8773 28.8247C15.481 28.8247 16.0746 28.8448 16.6782 28.8851C17.1712 28.9153 17.6138 28.9555 18.0364 29.0159C19.5555 29.2171 20.8735 29.6698 21.96 30.3439C23.1271 31.0683 24.0526 32.0844 24.7167 33.3621C25.3807 34.6398 25.8736 36.0885 26.1352 37.5674C25.9843 35.8571 25.3907 34.3681 24.8374 33.3017C23.5295 30.7966 21.2558 29.3076 18.0565 28.8851C17.6239 28.8247 17.1812 28.7845 16.6882 28.7543C14.2837 28.6034 11.8591 28.7543 9.48482 29.207C9.27355 29.2473 9.07234 29.2875 8.85101 29.3278C7.07027 29.6497 5.04808 30.0119 3.83075 31.4807C3.20699 32.2353 2.66371 33.2414 2.26128 34.3983C2.18079 34.6398 2.08019 34.8812 1.97958 35.1428C1.88904 35.3541 1.79849 35.6559 1.718 35.998C1.74819 35.9376 1.77837 35.8772 1.80855 35.8169C1.90916 35.6157 2.01983 35.4044 2.11038 35.1931C2.21098 34.9517 2.31158 34.6901 2.40213 34.4486C2.79449 33.3118 3.32771 32.3158 3.95147 31.5813C5.13863 30.1527 7.05015 29.8107 8.89125 29.4686C9.10252 29.4284 9.31379 29.3881 9.52507 29.3479C11.2756 28.9958 13.0765 28.8247 14.8773 28.8247Z" fill="#D34031"/>
<defs>
<linearGradient id="paint0_linear_78_5676" x1="15.291" y1="22.9912" x2="-3.27061" y2="-22.3737" gradientUnits="userSpaceOnUse">
<stop offset="0.1599" stop-color="#BFAB8D"/>
<stop offset="0.5078" stop-color="#E7E1D2"/>
<stop offset="0.7297" stop-color="#CCBFA6"/>
</linearGradient>
<linearGradient id="paint1_linear_78_5676" x1="2.56784" y1="17.2574" x2="23.4781" y2="18.2028" gradientUnits="userSpaceOnUse">
<stop offset="0.1599" stop-color="#BFAB8D"/>
<stop offset="0.5078" stop-color="#E7E1D2"/>
<stop offset="0.7297" stop-color="#CCBFA6"/>
</linearGradient>
<linearGradient id="paint2_linear_78_5676" x1="-4.45819" y1="40.9202" x2="30.3635" y2="37.2633" gradientUnits="userSpaceOnUse">
<stop stop-color="#94938C"/>
<stop offset="0.2296" stop-color="#EDEBE1"/>
<stop offset="0.7988" stop-color="#EDEBE1"/>
<stop offset="1" stop-color="#94938C"/>
</linearGradient>
</defs>
</svg>
