<svg width="29" height="50" viewBox="0 0 29 50" fill="none" xmlns="http://www.w3.org/2000/svg">
<path d="M9.45091 0.182088C8.14302 0.272633 7.12689 0.654929 6.0504 1.39942C5.75864 1.60063 5.48699 1.84209 5.5373 2.12378C5.80893 3.46185 15.6785 2.38537 15.5879 1.20828C15.5275 0.514093 12.3182 0.322934 11.5938 0.242449C10.789 0.172025 10.0847 0.141845 9.45091 0.182088Z" fill="#D8D6D0"/>
<path d="M19.6215 45.5552C20.2955 47.7182 18.706 48.6035 17.217 47.3158C14.3497 44.8408 12.6998 40.8568 11.241 37.2149C10.5669 35.5247 7.66945 29.599 9.1886 28.1603C10.6977 26.7417 16.6335 29.4481 16.9353 33.251C17.0963 35.3134 17.1667 37.3859 17.5289 39.4483C17.9112 41.7019 18.9575 43.4324 19.6215 45.5552Z" fill="url(#paint0_linear_78_5779)"/>
<path d="M2.84016 20.2844C3.03131 21.059 3.1923 21.8437 3.23254 21.9947C3.54442 23.3025 3.8261 24.6205 4.03738 25.9485C4.21847 27.0351 4.35931 28.1216 4.46998 29.2182C4.57059 30.2746 4.48006 31.4416 4.68127 32.4879C4.88249 33.5141 5.24466 34.5906 5.58673 35.5765C6.62297 38.5444 8.19244 41.3111 10.0537 43.8464C10.9893 45.114 12.0054 46.3314 13.0719 47.4884C13.7258 48.2027 15.1242 50.3053 16.2812 49.4301C16.7138 49.0981 16.8949 48.5145 16.8647 47.9713C16.8345 47.428 16.6333 46.9048 16.4522 46.3917C14.9934 42.448 13.605 37.5585 14.43 33.323C14.5105 32.8803 14.6514 32.4276 14.9633 32.1056C15.3757 31.6831 16.0397 31.5925 16.6132 31.7535C17.1866 31.9145 17.6696 32.2766 18.0921 32.6891C19.5408 34.0976 20.5771 36.0796 21.4624 37.8804C22.1365 39.2487 22.6295 40.6974 22.9112 42.1864C23.1828 43.615 22.9514 45.3153 23.5248 46.6533C23.8468 47.4079 24.5611 48.0518 25.3861 48.0316C26.0199 48.0115 26.5833 47.599 27.0058 47.1262C28.5552 45.3656 28.8469 42.5486 28.9375 40.295C29.0481 37.4579 28.6457 34.6308 28.203 31.834C27.6095 28.031 26.8348 24.2483 25.9796 20.4956C25.9495 20.3548 25.4766 17.9805 25.3861 17.9805C25.3861 17.9805 2.50815 18.6143 2.29688 18.6243C2.4176 18.6344 2.63895 19.4493 2.84016 20.2844Z" fill="url(#paint1_linear_78_5779)"/>
<path d="M20.7365 0.0111921C19.5494 -0.0592324 18.5835 0.202338 17.5071 0.805977C17.2153 0.966947 16.9336 1.17823 16.9336 1.45993C16.9638 2.80805 25.9479 2.91872 26.0485 1.75168C26.1089 1.0575 23.2718 0.494095 22.638 0.333125C21.9337 0.152033 21.31 0.0413741 20.7365 0.0111921Z" fill="#D8D6D0"/>
<path d="M4.80198 1.10795C3.84622 1.19849 2.9508 1.57073 2.17613 2.37558C1.18013 3.41183 0.677109 4.86056 0.556381 6.28918C0.294804 9.36773 0.817957 13.0298 1.59263 16.0078C1.83408 16.9535 1.86427 18.9455 2.50815 19.6698C4.53034 21.9435 8.96706 20.8369 11.6633 20.6457C14.7419 20.4345 18.0518 20.3338 20.8185 19.6698C22.6496 19.5793 25.9998 19.9817 26.5531 17.5672C27.1869 14.8005 27.5793 11.9734 27.7101 9.13634C27.8107 7.01354 28.1226 1.782 25.0742 1.36952C24.6315 1.30915 23.8769 1.8122 23.4242 1.9128C22.4886 2.12408 21.5831 2.0939 20.6575 1.85244C19.5207 1.55062 18.4643 1.00735 17.3677 0.564678C17.1263 0.464072 16.8848 0.373518 16.6232 0.383579C16.0397 0.4037 15.6071 0.906728 15.1443 1.25885C13.1825 2.73777 9.66126 1.97316 7.49822 1.3997C6.5827 1.15824 5.66719 1.0174 4.80198 1.10795Z" fill="url(#paint2_linear_78_5779)"/>
<path d="M5.98898 21.3311C5.10365 21.3311 4.17806 21.1902 3.34303 20.5866C2.07539 19.6711 2.30679 19.6409 2.03516 18.8662C2.3571 19.0976 2.30678 19.2284 3.74545 20.0333C4.63078 20.5262 5.51612 20.6973 6.76364 20.6168C9.55044 20.4357 12.4781 20.2043 15.9692 19.9125C16.5225 19.8622 17.0758 19.822 17.6191 19.7717C20.1141 19.5705 22.6896 19.3592 25.2149 18.9266C25.9493 18.8059 26.3517 18.0916 26.4926 16.7032C26.5529 16.0895 26.6133 15.4758 26.6837 14.8621C26.9252 12.4677 28.1224 10.033 27.3578 14.9325C27.2974 15.5462 27.227 16.1599 27.1666 16.7736C27.1063 17.4074 26.9151 19.329 25.3255 19.6007C22.7701 20.0333 20.1745 20.2546 17.6694 20.4558C17.1261 20.4961 16.5728 20.5464 16.0295 20.5967C12.5284 20.8985 9.60075 21.1198 6.80389 21.311C6.54232 21.321 6.26062 21.3311 5.98898 21.3311Z" fill="#D34031"/>
<path d="M5.98765 21.6009C5.25323 21.6009 4.16667 21.5204 3.18072 20.8061C2.12435 20.0516 2.03383 19.8403 1.88292 19.3071C1.85274 19.2065 1.82254 19.0958 1.77224 18.955L1.48047 18.1401L2.18473 18.6431C2.27527 18.7135 2.34571 18.7739 2.41613 18.8342C2.58716 18.9952 2.82859 19.2165 3.86484 19.79C4.69987 20.2629 5.53491 20.4138 6.73213 20.3433C9.51893 20.1622 12.4365 19.9409 15.9376 19.6391C16.4809 19.5888 17.0242 19.5485 17.5473 19.5083H17.5876C20.0726 19.3071 22.6481 19.0958 25.1633 18.6632C25.5355 18.6029 26.0486 18.3212 26.2096 16.6813C26.2699 16.0676 26.3303 15.4539 26.4007 14.8402C26.4611 14.2164 26.6019 13.5222 26.773 12.9488C27.0547 11.983 27.2659 11.8924 27.3565 11.8522C27.4671 11.8019 27.5879 11.822 27.6885 11.8924C27.8193 11.993 27.8998 12.1942 27.8696 12.8482C27.8495 13.3512 27.7589 14.0655 27.6181 14.971V15.0011C27.5577 15.6048 27.4973 16.1984 27.437 16.802C27.4068 17.1239 27.3364 17.798 27.0647 18.4318C26.7126 19.2568 26.1391 19.7397 25.3745 19.8705C22.8091 20.3132 20.2134 20.5244 17.6982 20.7257C17.155 20.7659 16.6017 20.8162 16.0584 20.8665C12.5573 21.1683 9.61955 21.3897 6.83275 21.5808C6.59129 21.5909 6.29953 21.6009 5.98765 21.6009ZM2.71794 19.7598C2.86885 19.9107 3.10023 20.0918 3.4926 20.3735C4.34776 20.9872 5.32365 21.0677 5.98765 21.0677C6.27941 21.0677 6.57118 21.0476 6.78245 21.0375C9.56926 20.8564 12.4969 20.6251 15.998 20.3232C16.5514 20.2729 17.1047 20.2327 17.6379 20.1824C20.143 19.9812 22.7286 19.7598 25.2739 19.3272C26.6523 19.0958 26.8233 17.3151 26.8836 16.7416C26.944 16.138 27.0044 15.5344 27.0647 14.9408L27.0748 14.8905C27.2056 14.0353 27.276 13.4518 27.3062 13.0594C27.1653 13.5323 27.0144 14.1862 26.944 14.8905C26.8836 15.5042 26.8132 16.1179 26.7528 16.7316C26.6522 17.6974 26.4007 19.0053 25.2538 19.1964C22.7185 19.629 20.1329 19.8403 17.6278 20.0516H17.5876C17.0644 20.0918 16.5111 20.1421 15.9779 20.1824C12.4768 20.4842 9.54911 20.7055 6.76231 20.8967C5.44437 20.9872 4.52885 20.8061 3.59321 20.283C3.22097 20.0616 2.93927 19.8906 2.71794 19.7598Z" fill="#D34031"/>
<defs>
<linearGradient id="paint0_linear_78_5779" x1="11.8521" y1="27.2917" x2="19.6135" y2="71.5831" gradientUnits="userSpaceOnUse">
<stop offset="0.1599" stop-color="#BFAB8D"/>
<stop offset="0.5078" stop-color="#E7E1D2"/>
<stop offset="0.7297" stop-color="#CCBFA6"/>
</linearGradient>
<linearGradient id="paint1_linear_78_5779" x1="4.88437" y1="33.76" x2="27.4111" y2="33.8414" gradientUnits="userSpaceOnUse">
<stop stop-color="#BFAB8D"/>
<stop offset="0.5078" stop-color="#E7E1D2"/>
<stop offset="1" stop-color="#CCBFA6"/>
</linearGradient>
<linearGradient id="paint2_linear_78_5779" x1="-5.22054" y1="10.672" x2="33.6244" y2="10.8123" gradientUnits="userSpaceOnUse">
<stop stop-color="#94938C"/>
<stop offset="0.2296" stop-color="#EDEBE1"/>
<stop offset="0.7988" stop-color="#EDEBE1"/>
<stop offset="1" stop-color="#94938C"/>
</linearGradient>
</defs>
</svg>
