<svg width="25" height="40" viewBox="0 0 25 40" fill="none" xmlns="http://www.w3.org/2000/svg">
<path d="M15.7941 36.6467C16.0859 38.4979 14.8987 38.9909 13.9732 37.7433C12.1723 35.3288 11.3474 31.8579 10.623 28.6988C10.291 27.23 8.7517 22.0085 9.9288 21.0628C11.1059 20.1272 15.0195 23.1655 14.9289 26.2943C14.8786 27.9946 14.7579 29.6848 14.8384 31.4152C14.9189 33.2764 15.5024 34.8258 15.7941 36.6467Z" fill="url(#paint0_linear_78_5821)"/>
<path d="M3.32031 13.3357C3.32031 13.3357 4.62819 16.9274 4.62819 20.851C4.62819 24.7747 4.30626 29.6742 6.59002 33.2658C8.87379 36.8575 9.52775 38.4974 9.52775 38.4974C9.52775 38.4974 11.4896 40.7812 12.4654 38.1754C12.4654 38.1754 10.1817 30.3281 11.4896 26.4045C12.7974 22.4808 14.1053 23.7887 14.4273 24.4426C14.7492 25.0966 19.3268 32.6119 19.9808 34.5737C20.6347 36.5356 21.6106 38.4974 22.2645 38.4974C22.9185 38.4974 23.8944 36.8675 24.5483 33.9198C25.2022 30.9821 24.5483 27.7124 23.2404 25.4185C21.9325 23.1247 20.6246 13.0037 20.6246 11.3638C20.6246 9.72392 4.9602 12.6818 3.32031 13.3357Z" fill="url(#paint1_linear_78_5821)"/>
<path d="M10.8753 3.06409C10.5634 2.99366 10.2415 2.79246 9.86924 2.54094C8.85311 1.87694 7.80678 1.23305 6.63975 0.90105C5.47271 0.579109 4.15477 0.609293 3.11852 1.23305C2.38409 1.67572 1.84083 2.3699 1.39816 3.09427C0.703974 4.23112 0.180833 5.54908 0.341803 6.87708C0.522895 8.38618 1.12652 9.87515 1.74022 11.2535C2.11246 12.0885 2.42435 13.0443 3.09841 13.6982C3.88314 14.4628 5.20108 14.5735 6.23733 14.7143C8.46073 15.0262 10.6942 14.7445 12.8572 14.2314C15.0102 13.7183 17.2437 13.1549 19.3363 12.4406C19.7086 12.3098 20.0909 12.1589 20.4027 11.9175C21.2881 11.2333 21.4692 9.69407 21.6804 8.66788C22.0024 7.11854 21.8011 5.51889 21.1673 4.07015C20.3524 2.20893 18.793 0.569039 16.7205 0.247098C15.2316 0.0157032 13.9237 0.327585 12.9176 1.4745C12.5856 1.8568 12.324 2.29947 11.9618 2.65159C11.5795 3.06408 11.2274 3.15463 10.8753 3.06409Z" fill="url(#paint2_linear_78_5821)"/>
<path d="M6.62765 15.0711C6.32584 15.0711 6.06426 15.061 5.84293 15.0409C4.23323 14.89 3.82073 14.719 2.65369 13.7431C2.56315 13.6727 1.98969 12.4956 3.02593 13.3709C4.14266 14.3065 4.48474 14.4071 5.90329 14.5379C7.37214 14.6787 10.9034 14.3065 15.3502 13.562C19.1732 12.9181 19.3543 12.6767 19.8775 11.9422C19.958 11.8316 20.0586 11.7008 20.1693 11.5599C20.9741 10.5539 21.4973 7.20368 21.4168 6.85156L21.6985 7.14331C21.789 7.56586 21.5576 10.6847 20.622 11.8618C20.5113 11.9925 20.4308 12.1133 20.3503 12.2239C20.0586 12.6264 19.8272 12.9483 19.133 13.23C18.4992 13.4916 17.4328 13.733 15.4508 14.065C11.5372 14.719 8.40839 15.0711 6.62765 15.0711Z" fill="#D34031"/>
<path d="M6.62809 15.3413C6.31621 15.3413 6.04458 15.3313 5.81319 15.3112C4.15318 15.1602 3.68033 14.9691 2.47305 13.953C2.35232 13.8524 2.10079 13.3594 2.14103 13.0777C2.16115 12.9469 2.24164 12.8362 2.36237 12.796C2.56358 12.7256 2.79498 12.8262 3.18735 13.1582C4.25377 14.0536 4.54552 14.1341 5.91377 14.2649C7.35244 14.3956 10.8636 14.0335 15.2903 13.299C19.0027 12.6753 19.1636 12.4539 19.6466 11.7899C19.727 11.6692 19.8276 11.5384 19.9484 11.3976C20.6828 10.472 21.1959 7.27273 21.1456 6.91055L20.9443 5.96484L21.9404 7.02121L21.9605 7.09163C22.0611 7.55442 21.8398 10.7738 20.8236 12.0314C20.723 12.1622 20.6425 12.2729 20.552 12.3835C20.2401 12.8061 19.9785 13.1683 19.224 13.4801C18.5701 13.7518 17.4835 13.9932 15.4814 14.3252C11.588 14.9792 8.43901 15.3413 6.62809 15.3413ZM20.8739 10.7939C20.7733 11.0555 20.6627 11.2869 20.552 11.4781C20.6727 11.2869 20.7733 11.0555 20.8739 10.7939Z" fill="#D34031"/>
<defs>
<linearGradient id="paint0_linear_78_5821" x1="11.892" y1="20.6877" x2="11.916" y2="57.7564" gradientUnits="userSpaceOnUse">
<stop offset="0.1599" stop-color="#BFAB8D"/>
<stop offset="0.5078" stop-color="#E7E1D2"/>
<stop offset="0.7297" stop-color="#CCBFA6"/>
</linearGradient>
<linearGradient id="paint1_linear_78_5821" x1="5.21614" y1="25.1204" x2="21.9741" y2="25.1809" gradientUnits="userSpaceOnUse">
<stop stop-color="#BFAB8D"/>
<stop offset="0.5078" stop-color="#E7E1D2"/>
<stop offset="1" stop-color="#CCBFA6"/>
</linearGradient>
<linearGradient id="paint2_linear_78_5821" x1="-6.03956" y1="7.45576" x2="27.9998" y2="7.5788" gradientUnits="userSpaceOnUse">
<stop stop-color="#94938C"/>
<stop offset="0.2614" stop-color="#EDEBE1"/>
<stop offset="0.7687" stop-color="#EDEBE1"/>
<stop offset="1" stop-color="#94938C"/>
</linearGradient>
</defs>
</svg>
