<svg width="20" height="58" viewBox="0 0 20 58" fill="none" xmlns="http://www.w3.org/2000/svg">
<path d="M9.57263 56.0601C9.57263 56.0601 4.23045 56.8952 2.48996 54.0581C0.749475 51.2109 9.02936 54.3699 9.57263 56.0601Z" fill="#D8D6D0"/>
<path d="M4.21094 38.1402C4.21094 38.1402 4.53288 27.0232 5.51882 24.0855C6.4947 21.1478 7.48064 11.3387 7.14864 8.7229C6.8267 6.10713 6.82671 2.18348 6.82671 2.18348C6.82671 2.18348 6.50476 -0.754227 9.44247 1.52954C12.3802 3.81331 15.9819 14.9303 15.6499 19.5079C15.328 24.0855 15.2173 37.8686 15.2676 37.8384C15.3279 37.8082 4.21094 38.1402 4.21094 38.1402Z" fill="url(#paint0_linear_78_5645)"/>
<path d="M14.9956 36.8333C14.9956 36.8333 22.5109 47.9504 16.9574 53.8258C16.2833 54.5401 15.2069 55.0532 14.3819 55.5763C13.5267 56.1196 12.6213 56.8741 11.575 56.9949C10.3778 57.1257 9.51254 55.8781 8.33545 55.6367C6.47423 55.2443 4.64319 55.5562 3.05361 54.2886C1.73566 53.2422 0.940875 51.6024 0.669237 49.9625C0.327175 47.9202 0.679296 45.8376 1.09178 43.8255C1.26281 42.9703 1.56463 42.1554 1.90669 41.3506C2.27894 40.4954 2.94293 39.6604 3.23469 38.7952C3.23469 38.7952 5.85046 30.9479 14.9956 36.8333Z" fill="url(#paint1_linear_78_5645)"/>
<path d="M1.35547 42.8053C1.62711 42.3928 2.66336 40.431 3.18651 39.5658C3.37767 39.2539 3.54869 38.932 3.70966 38.6301C3.99135 38.107 4.28311 37.5738 4.63523 37.0909C5.23887 36.2659 5.91294 35.6723 6.63731 35.3202C7.49246 34.9077 8.39792 34.8976 9.26314 34.9379C10.3396 34.9983 11.2551 35.1492 12.0701 35.4107C12.4121 35.5214 12.7341 35.6522 13.0359 35.8031C13.72 36.1351 14.3337 36.618 14.877 37.2317C15.7925 38.278 16.4163 39.6563 16.9092 40.8636C17.4726 42.2319 17.9958 42.8456 18.4183 44.2138C18.4183 44.2138 18.0763 42.0206 17.5028 40.6221C16.9897 39.3646 16.3358 37.9259 15.3599 36.8092C14.7663 36.125 14.0822 35.6019 13.3176 35.2296C12.9856 35.0687 12.6335 34.9278 12.2612 34.8071C11.396 34.5254 10.4302 34.3644 9.29332 34.3041C8.34762 34.2538 7.34155 34.2739 6.36567 34.7467C5.54069 35.1492 4.78615 35.8031 4.12215 36.7186C3.7499 37.2317 3.44808 37.7951 3.15632 38.3283C2.99535 38.6301 2.82432 38.942 2.64323 39.2438C2.41184 39.606 1.53656 41.1252 1.35547 42.8053Z" fill="#D34031"/>
<path d="M18.1563 44.286C17.9249 43.5214 17.6432 42.9882 17.3514 42.4147C17.1301 41.9821 16.8987 41.5395 16.6572 40.9559C16.1743 39.7688 15.5606 38.4206 14.6652 37.4045C14.1521 36.821 13.5585 36.3582 12.9147 36.0363C12.6229 35.8954 12.311 35.7646 11.979 35.664C11.1943 35.4125 10.2989 35.2616 9.24251 35.2012C8.41754 35.161 7.55232 35.1711 6.75753 35.5534C6.07341 35.8854 5.42953 36.4488 4.85607 37.2435C4.51401 37.7063 4.23231 38.2396 3.95062 38.7526C3.77959 39.0645 3.60856 39.3865 3.4174 39.7084C3.16589 40.1209 2.79364 40.795 2.44152 41.4489C2.05921 42.1431 1.72721 42.7367 1.58636 42.958L0.972656 43.8836L1.09339 42.7769C1.27449 41.1471 2.07934 39.6682 2.41134 39.1048C2.58237 38.813 2.7534 38.5011 2.91437 38.1993C3.20613 37.656 3.51801 37.0926 3.90031 36.5594C4.5945 35.6137 5.37923 34.9195 6.24444 34.507C7.28069 34.004 8.32699 33.9839 9.30288 34.0342C10.4599 34.0946 11.4559 34.2656 12.3412 34.5473C12.7235 34.668 13.0857 34.8189 13.4278 34.99C14.2225 35.3823 14.9368 35.9357 15.5505 36.6399C16.5566 37.7868 17.2206 39.2456 17.7438 40.5233C18.3172 41.9318 18.6593 44.0848 18.6794 44.1753L18.1563 44.286ZM8.66907 34.6479C8.87028 34.6479 9.08155 34.658 9.28277 34.668C10.3794 34.7284 11.3251 34.8793 12.1601 35.1509C12.5122 35.2616 12.8442 35.4025 13.1662 35.5534C13.8805 35.9055 14.5244 36.4085 15.0878 37.0524C16.0335 38.1289 16.6673 39.5273 17.1703 40.7648C17.3011 41.0968 17.442 41.3785 17.5627 41.6401C17.4721 41.3181 17.3615 41.0062 17.2508 40.7245C16.7478 39.4871 16.1039 38.0786 15.1481 36.992C14.5747 36.3381 13.9207 35.825 13.1964 35.4729C12.8744 35.3119 12.5323 35.1811 12.1802 35.0604C11.3351 34.7887 10.3894 34.6278 9.28277 34.5674C8.37731 34.5171 7.41149 34.5372 6.48591 34.99C5.70117 35.3723 4.98686 36.0061 4.34298 36.8713C3.9808 37.3743 3.67898 37.9176 3.39728 38.4508C3.23631 38.7527 3.06527 39.0746 2.87412 39.3764C2.70309 39.6581 2.41133 40.1913 2.14975 40.8453C2.45157 40.302 2.74333 39.7688 2.95461 39.4167C3.1357 39.1148 3.30673 38.7929 3.47776 38.4911C3.75946 37.9579 4.06128 37.4146 4.42347 36.9216C5.04723 36.0665 5.76153 35.4427 6.52614 35.0705C7.22033 34.7385 7.95476 34.6479 8.66907 34.6479Z" fill="#D34031"/>
<defs>
<linearGradient id="paint0_linear_78_5645" x1="5.11167" y1="19.4488" x2="18.0041" y2="19.0517" gradientUnits="userSpaceOnUse">
<stop stop-color="#BFAB8D"/>
<stop offset="0.5078" stop-color="#E7E1D2"/>
<stop offset="1" stop-color="#CCBFA6"/>
</linearGradient>
<linearGradient id="paint1_linear_78_5645" x1="-3.03922" y1="46.2295" x2="23.6869" y2="45.4062" gradientUnits="userSpaceOnUse">
<stop stop-color="#94938C"/>
<stop offset="0.0311" stop-color="#A6A59D"/>
<stop offset="0.0939" stop-color="#C5C3BB"/>
<stop offset="0.1552" stop-color="#DBD9D0"/>
<stop offset="0.2138" stop-color="#E8E7DD"/>
<stop offset="0.2666" stop-color="#EDEBE1"/>
<stop offset="0.7117" stop-color="#EDEBE1"/>
<stop offset="0.7637" stop-color="#E7E5DB"/>
<stop offset="0.835" stop-color="#D5D3CA"/>
<stop offset="0.9175" stop-color="#B8B7AF"/>
<stop offset="1" stop-color="#94938C"/>
</linearGradient>
</defs>
</svg>
