<svg width="19" height="61" viewBox="0 0 19 61" fill="none" xmlns="http://www.w3.org/2000/svg">
<path d="M12.5242 34.53C12.5242 34.53 15.7939 35.8379 16.7698 43.3532C16.7698 43.3532 17.7457 51.2005 18.0777 53.4843C18.3996 55.7681 18.3996 58.7158 14.808 59.6917C11.2163 60.6676 7.9466 60.0137 5.98477 59.3698C4.02295 58.7259 1.08525 56.754 0.43131 54.4702C-0.222632 52.1865 0.431311 41.0695 1.40719 39.1076C2.39314 37.1458 4.68695 31.9143 12.5242 34.53Z" fill="url(#paint0_linear_78_5632)"/>
<path d="M9.26397 3.48181C9.26397 3.48181 16.4372 19.1664 13.5096 35.6759C13.5096 35.6759 3.10684 34.4384 2.59375 37.2655C4.05254 30.394 4.75679 23.1705 4.46503 16.1582C4.3443 13.3111 4.14309 10.474 4.07267 7.62679C4.02236 5.77563 3.70042 3.65284 4.49521 1.93247C4.82721 1.2081 5.38055 0.141676 6.28601 0.0611908C7.81523 -0.0897189 8.80118 2.42544 9.26397 3.48181Z" fill="url(#paint1_linear_78_5632)"/>
<path d="M16.5727 42.0017C16.8443 42.5852 15.8282 38.5006 15.4862 37.7762C15.134 37.0518 14.2889 35.5327 13.6752 35.2812C12.2366 34.6976 9.55038 34.7982 7.51813 35.0095C6.34104 35.1302 5.24443 35.3214 4.35909 35.5629C3.35303 35.8345 2.67897 36.1564 2.36709 36.5086C1.66284 37.2933 0.707081 39.4563 0.747324 42.4544C1.58236 42.8266 2.57836 37.6454 3.06127 37.1021C3.52406 36.589 5.32491 36.1162 7.63885 35.8747C10.1238 35.6232 12.2466 35.7943 13.3533 36.2369C14.5706 36.921 14.4399 38.2692 16.5727 42.0017Z" fill="#D34031"/>
<path d="M0.828468 42.7357C0.758044 42.7357 0.697668 42.7256 0.627243 42.6955L0.466284 42.625V42.454C0.446163 41.0857 0.637309 39.7477 1.00955 38.5706C1.31137 37.6249 1.72386 36.7999 2.15647 36.3271C2.51865 35.9246 3.21284 35.5926 4.27926 35.3009C5.18472 35.0594 6.2914 34.8582 7.47856 34.7375C11.3318 34.3451 13.0723 34.7475 13.7665 35.0292C14.0985 35.16 14.4707 35.5423 14.9033 36.1963C15.3158 36.82 15.6377 37.474 15.7283 37.6551C15.9496 38.1179 16.342 39.6068 16.4627 40.0596C16.9657 42.0214 16.9154 42.1019 16.845 42.2125C16.7847 42.293 16.6941 42.3433 16.5935 42.3333C16.4325 42.3232 16.3621 42.1924 16.342 42.1321C15.4164 40.5022 14.9134 39.3251 14.5411 38.47C14.0783 37.3834 13.8469 36.8301 13.2433 36.488C12.1266 36.0454 9.99371 35.9146 7.6697 36.146C5.09417 36.4076 3.59515 36.9106 3.26314 37.2828C3.12229 37.4337 2.84059 38.3996 2.60919 39.1642C2.01561 41.1361 1.59308 42.4439 1.0498 42.6955C0.969319 42.7156 0.898893 42.7357 0.828468 42.7357ZM10.4263 35.1097C9.35989 35.1097 8.30353 35.1902 7.53892 35.2707C6.37188 35.3914 5.29539 35.5826 4.42011 35.814C3.23296 36.1359 2.75005 36.4679 2.5589 36.6792C2.03575 37.2627 1.06992 39.0937 1.00955 41.951C1.1001 41.8 1.23088 41.5485 1.38179 41.136C1.62325 40.5022 1.86471 39.6974 2.07598 38.9931C2.4281 37.816 2.63938 37.142 2.85065 36.9005C3.6052 36.0554 6.68376 35.6832 7.60934 35.5826C10.0239 35.3311 12.2574 35.482 13.4546 35.9649L13.4747 35.9749L13.4948 35.985C14.2695 36.4277 14.5411 37.0716 15.0442 38.2386C15.2756 38.7718 15.5573 39.4358 15.9597 40.2507C15.7082 39.2748 15.4064 38.2084 15.2454 37.8764C14.7625 36.8603 14.0079 35.6932 13.5753 35.5122C12.7805 35.2103 11.6034 35.1097 10.4263 35.1097Z" fill="#D34031"/>
<defs>
<linearGradient id="paint0_linear_78_5632" x1="22.6944" y1="47.656" x2="-3.31578" y2="46.3528" gradientUnits="userSpaceOnUse">
<stop stop-color="#94938C"/>
<stop offset="0.1599" stop-color="#D1CFC6"/>
<stop offset="0.2296" stop-color="#EDEBE1"/>
<stop offset="0.7988" stop-color="#EDEBE1"/>
<stop offset="0.9762" stop-color="#9F9E96"/>
<stop offset="1" stop-color="#94938C"/>
</linearGradient>
<linearGradient id="paint1_linear_78_5632" x1="5.21385" y1="18.6711" x2="14.1946" y2="18.8315" gradientUnits="userSpaceOnUse">
<stop stop-color="#BFAB8D"/>
<stop offset="0.5078" stop-color="#E7E1D2"/>
<stop offset="1" stop-color="#CCBFA6"/>
</linearGradient>
</defs>
</svg>
