<svg width="26" height="74" viewBox="0 0 26 74" fill="none" xmlns="http://www.w3.org/2000/svg">
<path d="M12.6441 0.667161C11.0948 2.19638 10.3201 5.44597 9.5354 7.42792C7.14097 13.5045 5.33004 19.8025 4.27368 26.2514C3.75052 29.4607 3.41853 32.7003 3.28774 35.9398C3.22737 37.5696 3.20726 39.2095 3.2475 40.8393C3.27768 42.1774 3.05634 44.1191 3.61974 45.3364C4.30386 44.5618 4.78678 43.6362 5.51115 42.8917C7.28182 41.0707 9.56557 39.7729 12.1512 39.7729C13.2377 39.7729 14.3142 39.9942 15.3303 40.3665C15.7428 40.5174 16.1452 40.6884 16.5477 40.8896C17.6946 41.4631 19.083 43.1835 20.3104 43.2841C20.4914 40.8896 19.8878 38.2034 19.6564 35.809C19.6564 29.7223 18.4491 23.2835 17.5437 17.2773C17.272 15.4664 16.8595 13.6856 16.8998 11.8546C16.94 9.9632 17.1513 8.0718 17.0205 6.1804C16.9098 4.48015 16.6885 0.395525 14.3544 0.133948C13.8917 0.0836452 13.4389 0.254675 13.0164 0.415645C12.8755 0.465949 12.7548 0.556494 12.6441 0.667161Z" fill="url(#paint0_linear_78_5616)"/>
<path d="M0.35915 69.3115C0.35915 69.3115 -1.92462 42.51 10.1683 38.5863C10.1683 38.5863 23.891 36.3026 25.1989 60.1564C25.2391 60.8405 25.3397 61.5145 25.3699 62.1987C25.4303 63.6876 25.38 65.1967 25.1184 66.6656C24.8468 68.2149 24.3437 69.8045 23.2874 71.0118C22.7743 71.5953 22.1404 72.0581 21.4161 72.3398C20.7923 72.5812 20.0981 72.6819 19.4442 72.8126C18.6393 72.9736 17.8244 73.1346 17.0095 73.2654C16.5669 73.3358 16.1343 73.3962 15.6916 73.4565C14.0718 73.6477 12.4319 73.7181 10.8021 73.7785C8.14609 73.8791 5.39954 74.0099 2.91456 72.873C1.46583 72.1989 0.35915 70.9917 0.35915 69.3115Z" fill="url(#paint1_linear_78_5616)"/>
<path d="M1.64852 50.5269C1.69883 50.6175 3.86187 44.0579 5.38103 42.3275C6.24624 41.3415 7.2523 40.5769 8.34891 40.0638C9.53607 39.5105 10.8842 39.2288 12.343 39.2288C13.8521 39.2288 15.2405 39.5206 16.4679 40.084C17.5947 40.6071 18.6208 41.3818 19.5162 42.3878C21.0153 44.078 24.1944 53.0119 24.1944 53.0119L23.1481 46.7039C23.1481 46.7039 22.2125 43.3034 20.5625 41.4522C18.4196 39.0377 15.6529 37.8203 12.3329 37.8203C9.09341 37.8203 6.39716 39.0175 4.3146 41.3918C1.82962 44.1786 1.60828 50.4364 1.64852 50.5269Z" fill="#D34031"/>
<defs>
<linearGradient id="paint0_linear_78_5616" x1="6.95676" y1="22.6963" x2="20.4377" y2="22.9372" gradientUnits="userSpaceOnUse">
<stop stop-color="#BFAB8D"/>
<stop offset="0.5078" stop-color="#E7E1D2"/>
<stop offset="1" stop-color="#CCBFA6"/>
</linearGradient>
<linearGradient id="paint1_linear_78_5616" x1="-4.71625" y1="56.1748" x2="30.3047" y2="56.1928" gradientUnits="userSpaceOnUse">
<stop stop-color="#94938C"/>
<stop offset="0.2296" stop-color="#EDEBE1"/>
<stop offset="0.7876" stop-color="#EDEBE1"/>
<stop offset="1" stop-color="#94938C"/>
</linearGradient>
</defs>
</svg>
