<svg width="17" height="64" viewBox="0 0 17 64" fill="none" xmlns="http://www.w3.org/2000/svg">
<path d="M2.93164 22.7625C2.93164 22.7625 11.1031 26.6844 13.3911 23.4161C13.3008 26.6277 13.2459 29.841 13.2037 33.0534C13.1239 39.1621 13.0917 45.2766 13.27 51.3839C13.3326 53.5288 13.3825 55.6765 13.5876 57.8138C13.6919 58.9026 13.8357 59.9882 14.0413 61.0624C14.1356 61.5569 14.4201 62.1395 14.191 62.5909C13.8861 63.1911 13.0985 63.3272 12.5481 63.0563C11.7737 62.6752 11.2647 61.738 10.8804 61.0144C9.95348 59.2687 9.35549 57.3392 8.81469 55.4465C5.54628 44.0072 3.43524 26.2784 2.93164 22.7625Z" fill="url(#paint0_linear_4_371)"/>
<path d="M1.67557 0.324919C2.44817 -0.0715837 3.65178 0.173395 4.49833 0.166137C6.06893 0.15298 7.63951 0.157498 9.20965 0.202864C10.964 0.253675 13.4034 0.0531583 15.0257 0.864311C16.5836 1.64325 16.7492 3.58902 16.702 5.11742C16.5151 11.1548 16.1263 17.5093 13.691 23.1225C12.9778 24.7661 11.9825 26.4247 10.4246 27.3919C8.01062 28.8908 5.24732 28.0221 3.87134 25.6222C2.76984 23.7014 2.34611 21.487 2.1152 19.3149C1.94053 17.6703 2.04988 16.0136 1.93329 14.3658C1.81034 12.6292 1.29815 10.9443 1.01824 9.22809C0.575914 6.51427 0.0405516 3.68247 1.05178 1.02899C1.18153 0.686923 1.4011 0.465556 1.67557 0.324919Z" fill="url(#paint1_linear_4_371)"/>
<defs>
<linearGradient id="paint0_linear_4_371" x1="15.5713" y1="42.9487" x2="6.33771" y2="42.9821" gradientUnits="userSpaceOnUse">
<stop stop-color="#BFAB8D"/>
<stop offset="0.5078" stop-color="#E7E1D2"/>
<stop offset="1" stop-color="#CCBFA6"/>
</linearGradient>
<linearGradient id="paint1_linear_4_371" x1="19.4224" y1="14.0644" x2="-2.77073" y2="14.1446" gradientUnits="userSpaceOnUse">
<stop stop-color="#94938C"/>
<stop offset="0.2296" stop-color="#EDEBE1"/>
<stop offset="0.7988" stop-color="#EDEBE1"/>
<stop offset="1" stop-color="#94938C"/>
</linearGradient>
</defs>
</svg>
