<svg width="27" height="74" viewBox="0 0 27 74" fill="none" xmlns="http://www.w3.org/2000/svg">
<path d="M25.9974 69.2451C25.9974 69.2451 28.2852 42.4443 16.1922 38.5219C16.1922 38.5219 2.4647 36.234 1.15768 60.0933C1.15768 60.0933 -0.47644 71.2058 5.73337 72.5133C16.5189 74.8012 25.9974 74.4745 25.9974 69.2451Z" fill="url(#paint0_linear_31_262)"/>
<path d="M13.7138 0.600018C15.2667 2.1257 16.0406 5.37895 16.8222 7.3651C19.2121 13.437 21.0286 19.743 22.0811 26.1864C22.6051 29.3934 22.9399 32.6321 23.0674 35.8794C23.1318 37.5126 23.1441 39.1476 23.1028 40.7817C23.0692 42.1191 23.2897 44.064 22.7339 45.2771C22.0498 44.5041 21.5626 43.5745 20.8385 42.831C19.0683 41.0127 16.7796 39.7125 14.1951 39.7111C12.6617 39.7102 11.1656 40.1484 9.80003 40.8271C8.64999 41.3987 7.26586 43.124 6.04234 43.217C5.86359 40.8248 6.46831 38.14 6.69605 35.7411C6.69605 29.651 7.89918 23.2194 8.81059 17.2106C9.0846 15.4032 9.49698 13.6198 9.45887 11.787C9.4194 9.89476 9.20708 8.00477 9.33547 6.11116C9.4507 4.41581 9.66301 0.321484 11.998 0.0615324C12.4571 0.0102681 12.909 0.180374 13.3395 0.347777C13.4774 0.401763 13.6013 0.489323 13.7138 0.600018Z" fill="url(#paint1_linear_31_262)"/>
<defs>
<linearGradient id="paint0_linear_31_262" x1="31.0723" y1="56.1555" x2="-3.94751" y2="56.1733" gradientUnits="userSpaceOnUse">
<stop stop-color="#94938C"/>
<stop offset="0.2296" stop-color="#EDEBE1"/>
<stop offset="0.7876" stop-color="#EDEBE1"/>
<stop offset="1" stop-color="#94938C"/>
</linearGradient>
<linearGradient id="paint1_linear_31_262" x1="19.4001" y1="22.6301" x2="5.91918" y2="22.8711" gradientUnits="userSpaceOnUse">
<stop stop-color="#BFAB8D"/>
<stop offset="0.5078" stop-color="#E7E1D2"/>
<stop offset="1" stop-color="#CCBFA6"/>
</linearGradient>
</defs>
</svg>
