<svg width="26" height="74" viewBox="0 0 26 74" fill="none" xmlns="http://www.w3.org/2000/svg">
<path d="M12.9702 0.600018C11.4173 2.1257 10.6433 5.37895 9.86168 7.3651C7.47176 13.437 5.65526 19.743 4.60275 26.1864C4.07876 29.3934 3.74395 32.6321 3.61647 35.8794C3.55204 37.5126 3.53981 39.1476 3.58109 40.7817C3.61466 42.1191 3.39417 44.064 3.94992 45.2771C4.63405 44.5041 5.1213 43.5745 5.84535 42.831C7.61556 41.0127 9.90429 39.7125 12.4888 39.7111C14.0222 39.7102 15.5185 40.1484 16.884 40.8271C18.034 41.3987 19.4181 43.124 20.6417 43.217C20.8204 40.8248 20.2157 38.14 19.988 35.7411C19.988 29.651 18.7848 23.2194 17.8734 17.2106C17.5994 15.4032 17.187 13.6198 17.2251 11.787C17.2646 9.89476 17.4769 8.00477 17.3485 6.11116C17.2333 4.41581 17.021 0.321484 14.686 0.0615324C14.2269 0.0102681 13.775 0.180374 13.3445 0.347777C13.207 0.401763 13.0831 0.489323 12.9702 0.600018Z" fill="url(#paint0_linear_31_263)"/>
<path d="M0.956095 69.2451C0.956095 69.2451 -1.33178 42.4443 10.7613 38.5219C10.7613 38.5219 24.489 36.234 25.7961 60.0933C25.7961 60.0933 27.4302 71.2058 21.2203 72.5133C10.4347 74.8012 0.956095 74.4745 0.956095 69.2451Z" fill="url(#paint1_linear_31_263)"/>
<defs>
<linearGradient id="paint0_linear_31_263" x1="7.28396" y1="22.6301" x2="20.765" y2="22.8711" gradientUnits="userSpaceOnUse">
<stop stop-color="#BFAB8D"/>
<stop offset="0.5078" stop-color="#E7E1D2"/>
<stop offset="1" stop-color="#CCBFA6"/>
</linearGradient>
<linearGradient id="paint1_linear_31_263" x1="-4.98515" y1="56.1857" x2="30.546" y2="56.1353" gradientUnits="userSpaceOnUse">
<stop stop-color="#94938C"/>
<stop offset="0.2296" stop-color="#EDEBE1"/>
<stop offset="0.7988" stop-color="#EDEBE1"/>
<stop offset="1" stop-color="#94938C"/>
</linearGradient>
</defs>
</svg>
