<svg width="25" height="60" viewBox="0 0 25 60" fill="none" xmlns="http://www.w3.org/2000/svg">
<path d="M6.22939 2.96689C5.69588 1.23114 7.31273 0.414536 8.68959 1.3804C11.3512 3.24726 12.7403 6.41206 13.953 9.31465C14.5146 10.6589 17.0038 15.3548 15.4224 16.6192C13.8532 17.8736 8.19645 15.9963 8.12523 12.8928C8.08667 11.2087 8.14202 9.51472 7.91655 7.84113C7.67157 6.02236 6.75246 4.66725 6.22939 2.96689Z" fill="url(#paint0_linear_91_11675)"/>
<path d="M22.0191 26.888C22.9813 20.5803 22.9659 12.9696 20.1623 7.13183C19.5108 5.77492 18.6239 4.53369 17.5673 3.46213C17.1527 3.04158 14.6825 0.516485 14.1635 1.13801C13.634 1.77178 14.1126 3.18812 14.2066 3.89266C14.3635 5.07173 14.5123 6.25172 14.6353 7.43488C14.8843 9.83522 15.5045 12.4361 14.8558 14.8246C14.7128 15.3504 14.3826 15.8703 13.8645 16.0386C13.5909 16.1275 13.2929 16.1094 13.0121 16.0486C11.2346 15.6634 9.94847 13.8715 8.85559 12.5567C7.29272 10.6772 6.39583 8.56586 5.61507 6.26805C5.23581 5.15204 4.8021 4.06777 3.84896 3.32421C3.6194 3.14502 1.3706 0.385831 1.01674 0.470666C-0.148271 0.749217 0.254128 3.8922 0.296319 4.60673C0.622957 10.1632 4.69686 20.0241 4.69686 20.0241C4.69686 20.0241 5.67722 26.2338 4.69686 28.195C3.71649 30.1567 20.7121 30.1567 22.0191 26.888Z" fill="url(#paint1_linear_91_11675)"/>
<path d="M23.0004 27.8713C22.9999 27.8708 20.3854 24.9297 14.5023 24.9297C8.61911 24.9297 4.37005 26.8909 3.38967 29.5054C2.4093 32.1199 2.0822 39.3105 5.67752 40.618C6.81487 41.0318 8.06518 41.1343 9.09047 40.4012C9.96741 39.7742 10.314 38.6219 11.6328 39.0492C12.2076 39.2352 12.6817 39.6385 13.1689 39.996C15.3112 41.5675 18.9518 43.1976 21.3917 41.3425C24.727 38.8065 25.9048 31.139 23.0004 27.8713Z" fill="url(#paint2_linear_91_11675)"/>
<path d="M7.81545 26.5903C7.81545 26.5903 7.76283 25.5813 7.8903 24.894C7.8903 24.894 7.99555 24.6114 8.3553 24.5891C8.71505 24.5664 8.89516 24.5442 8.9623 24.3192C9.02989 24.0942 9.36696 24.2067 9.38964 24.2965C9.41232 24.3863 9.47947 24.5438 9.59198 24.4766C9.70448 24.4095 9.63689 24.7915 9.59198 24.8364C9.54706 24.8813 9.57655 24.9838 9.57655 24.9838C9.57655 24.9838 7.80683 26.4846 7.81545 26.5903Z" fill="#FDFBDC"/>
<path d="M21.6486 25.6085C21.6486 25.6085 19.6983 24.0192 18.1399 23.5741C18.1399 23.5741 17.4785 23.1513 17.7026 22.9267C17.9267 22.7017 18.8227 22.9199 19.2432 22.4848C19.6638 22.0497 19.608 21.9821 19.8884 22.1168C20.1687 22.2516 21.1214 22.1168 21.1214 22.1168C21.1214 22.1168 21.738 21.9594 21.5139 21.8247C21.2897 21.6899 21.9707 21.6641 21.9707 21.6641C21.9707 21.6641 22.1758 25.3893 21.6486 25.6085Z" fill="#FDFBDC"/>
<path d="M8.36615 22.2028C8.51405 22.0567 8.26136 21.5145 9.06344 21.1701C9.86553 20.8258 10.1305 20.3235 10.7479 20.4197C11.3649 20.5159 12.0976 20.3784 12.4809 20.3784C12.8643 20.3784 13.3529 20.275 13.562 20.5504C13.7712 20.8258 14.12 21.3421 13.8759 21.4106C13.6319 21.4796 13.0389 22.0299 13.004 22.1679C12.9691 22.3053 13.004 22.5462 12.5159 22.3398C12.0277 22.1334 11.888 21.8924 11.4697 22.0644C11.0514 22.2364 11.0963 22.5308 10.6554 22.3493C10.2144 22.1679 9.76118 22.1334 9.2381 22.3743C8.71502 22.6157 7.87801 22.6846 8.36615 22.2028Z" fill="#FDFBDC"/>
<path d="M6.65713 25.448C6.51829 25.3228 6.04507 25.5777 5.69436 24.8763C5.34364 24.175 4.87904 23.9631 4.93304 23.4042C4.98703 22.8452 4.82551 22.1956 4.80509 21.8512C4.78513 21.5069 4.66671 21.0746 4.90309 20.8722C5.13902 20.6699 5.58411 20.3301 5.65851 20.5456C5.73292 20.7611 6.25786 21.2642 6.38354 21.2882C6.50876 21.3123 6.72336 21.2683 6.56366 21.7174C6.40395 22.1661 6.19525 22.304 6.37129 22.6706C6.54733 23.0372 6.80912 22.9809 6.66938 23.3865C6.52963 23.7916 6.52238 24.2004 6.76602 24.6568C7.00966 25.1131 7.11492 25.8604 6.65713 25.448Z" fill="#FDFBDC"/>
<path d="M16.9838 20.8817C16.9883 21.0188 17.3644 21.144 17.1721 21.6843C16.9797 22.2247 17.1045 22.5795 16.7815 22.8313C16.4585 23.0831 16.1971 23.4959 16.0252 23.6797C15.8533 23.8634 15.685 24.1438 15.4577 24.1188C15.2304 24.0939 14.8239 24.0267 14.8997 23.8784C14.9754 23.7305 14.9741 23.1965 14.9228 23.1175C14.8715 23.0381 14.7391 22.9456 15.058 22.8059C15.3769 22.6661 15.5561 22.7083 15.66 22.4302C15.7639 22.1516 15.601 22.04 15.8868 21.9112C16.1726 21.7823 16.3922 21.5809 16.5097 21.2216C16.6272 20.8613 16.9688 20.4294 16.9838 20.8817Z" fill="#FDFBDC"/>
<path d="M21.2878 17.9089C21.2928 18.0595 21.7061 18.197 21.4947 18.7904C21.2833 19.3839 21.4207 19.7736 21.0655 20.0499C20.7107 20.3262 20.4236 20.7799 20.2349 20.9818C20.0461 21.1836 19.861 21.4917 19.6111 21.4645C19.3616 21.4373 18.9147 21.3633 18.9982 21.2004C19.0816 21.0376 19.0798 20.4514 19.0236 20.3647C18.9673 20.2781 18.8217 20.176 19.1719 20.0222C19.5221 19.8684 19.719 19.9151 19.8334 19.6093C19.9477 19.3036 19.7685 19.1806 20.0824 19.0391C20.3963 18.8975 20.6377 18.6766 20.7665 18.2814C20.8963 17.8862 21.2715 17.4117 21.2878 17.9089Z" fill="#FDFBDC"/>
<path d="M10.0343 24.6325C10.0897 24.5236 9.85011 24.265 10.2312 23.9261C10.6128 23.5872 10.6672 23.2569 11.0274 23.1993C11.3872 23.1417 11.7678 22.9316 11.9806 22.8617C12.1934 22.7923 12.4452 22.6457 12.6117 22.7623C12.7782 22.8789 13.0663 23.1058 12.9438 23.1888C12.8213 23.2719 12.5936 23.6884 12.5995 23.7723C12.6054 23.8558 12.6689 23.9851 12.3604 23.9574C12.0519 23.9297 11.9303 23.8199 11.7297 23.9923C11.5292 24.1648 11.6086 24.3222 11.3305 24.3C11.0524 24.2777 10.7951 24.3408 10.5492 24.5708C10.3038 24.8013 9.85238 24.9919 10.0343 24.6325Z" fill="#FDFBDC"/>
<path d="M13.1219 59.0802H11.7155V38.6407C10.9642 38.0473 9.61368 36.6945 8.46092 35.0613C7.2941 33.4081 5.80563 30.9819 6.09008 28.5924C6.33778 26.5096 7.89611 24.8039 10.4117 23.6143C10.4117 23.6143 12.0331 22.7692 15.4233 22.4911C16.2567 22.4226 16.7521 22.9034 16.7521 22.9034C16.7521 22.9034 15.8175 23.4787 15.7418 23.5359C14.3554 23.6075 12.8125 23.9392 11.1226 24.5294C10.0193 25.0561 7.4361 26.6671 7.45107 28.6296C7.19747 30.7601 8.62515 33.0379 9.7026 34.5641C10.9357 36.3107 12.3887 37.6826 12.8928 38.0287L13.1223 38.1861V59.0802H13.1219Z" fill="#7F898F"/>
<defs>
<linearGradient id="paint0_linear_91_11675" x1="12.7674" y1="17.5127" x2="5.55655" y2="-17.9072" gradientUnits="userSpaceOnUse">
<stop offset="0.1599" stop-color="#BFAB8D"/>
<stop offset="0.5078" stop-color="#E7E1D2"/>
<stop offset="0.7297" stop-color="#CCBFA6"/>
</linearGradient>
<linearGradient id="paint1_linear_91_11675" x1="27.9659" y1="14.9222" x2="0.87313" y2="15.0201" gradientUnits="userSpaceOnUse">
<stop offset="0.1599" stop-color="#BFAB8D"/>
<stop offset="0.5078" stop-color="#E7E1D2"/>
<stop offset="0.7297" stop-color="#CCBFA6"/>
</linearGradient>
<linearGradient id="paint2_linear_91_11675" x1="29.62" y1="33.5026" x2="-2.55742" y2="33.6188" gradientUnits="userSpaceOnUse">
<stop stop-color="#94938C"/>
<stop offset="0.2296" stop-color="#EDEBE1"/>
<stop offset="0.7988" stop-color="#EDEBE1"/>
<stop offset="1" stop-color="#94938C"/>
</linearGradient>
</defs>
</svg>
