<svg width="19" height="70" viewBox="0 0 19 70" fill="none" xmlns="http://www.w3.org/2000/svg">
<path d="M6.62002 34.7564C6.62002 34.7564 3.35178 36.0639 2.37094 43.5811C2.37094 43.5811 1.39057 51.4254 1.06348 53.7133C0.736834 56.0011 0.736836 58.9427 4.33171 59.9231C7.92705 60.9034 11.1953 60.2497 13.1565 59.5964C15.1177 58.9427 18.0593 56.9815 18.713 54.6937C19.3668 52.4058 18.713 41.2933 17.7327 39.3321C16.7523 37.3709 14.4644 32.1415 6.62002 34.7564Z" fill="url(#paint0_linear_91_11770)"/>
<path d="M9.89087 3.70966C9.89087 3.70966 2.71648 19.3947 5.64993 35.9018C5.64993 35.9018 16.0522 34.6688 16.5667 37.4924C15.1077 30.6252 14.4067 23.3983 14.6939 16.3883C14.8101 13.5442 15.011 10.7043 15.0909 7.85889C15.1426 6.00612 15.4647 3.88931 14.6694 2.16356C14.3355 1.43814 13.7834 0.372023 12.8774 0.287187C11.3399 0.143375 10.3518 2.64989 9.89087 3.70966Z" fill="url(#paint1_linear_91_11770)"/>
<path d="M16.2592 36.8012C16.2592 36.8012 16.3118 35.7923 16.1843 35.1049C16.1843 35.1049 16.0796 34.8223 15.7195 34.8001C15.3599 34.7774 15.1799 34.7552 15.1128 34.5301C15.0452 34.3051 14.7083 34.4176 14.6856 34.5075C14.663 34.5973 14.5959 34.7547 14.4834 34.6876C14.3709 34.6204 14.4385 35.0024 14.4834 35.0473C14.5283 35.0922 14.4988 35.1948 14.4988 35.1948C14.4988 35.1948 16.2678 36.6955 16.2592 36.8012Z" fill="#FDFBDC"/>
<path d="M5.55122 35.9127C5.55122 35.9127 6.33367 34.3236 6.95872 33.8786C6.95872 33.8786 7.22405 33.4558 7.13424 33.2312C7.04443 33.0062 6.68519 33.2244 6.51601 32.7894C6.34727 32.3543 6.3695 32.2867 6.25701 32.4215C6.14452 32.5562 5.7626 32.4215 5.7626 32.4215C5.7626 32.4215 5.51538 32.2641 5.60519 32.1293C5.695 31.9946 5.42194 31.9688 5.42194 31.9688C5.42194 31.9688 5.33985 35.6936 5.55122 35.9127Z" fill="#FDFBDC"/>
<path d="M14.8513 31.7809C14.7034 31.6348 14.9561 31.0926 14.1539 30.7483C13.3518 30.4039 13.0869 29.9016 12.4694 29.9978C11.8524 30.094 11.1197 29.9565 10.7363 29.9565C10.3529 29.9565 9.86434 29.8531 9.65519 30.1285C9.44604 30.4039 9.09713 30.9202 9.34122 30.9887C9.5853 31.0577 10.1783 31.608 10.2132 31.746C10.2482 31.8839 10.2132 32.1244 10.7014 31.9179C11.1895 31.7115 11.3293 31.4706 11.7476 31.6425C12.1659 31.8145 12.121 32.1089 12.562 31.9275C13.0029 31.746 13.4562 31.7115 13.9797 31.9524C14.5024 32.1938 15.3394 32.2628 14.8513 31.7809Z" fill="#FDFBDC"/>
<path d="M7.10239 31.0927C7.09785 31.2297 6.72174 31.3549 6.91411 31.8953C7.10648 32.4356 6.98171 32.7904 7.30474 33.0422C7.62777 33.294 7.88912 33.7069 8.06107 33.8906C8.23302 34.0744 8.40133 34.3547 8.62863 34.3298C8.85593 34.3048 9.26243 34.2377 9.18667 34.0893C9.1109 33.9414 9.11227 33.4074 9.16354 33.3285C9.21481 33.2491 9.34729 33.1565 9.02834 33.0168C8.70939 32.8771 8.53018 32.9192 8.42628 32.6411C8.32239 32.3626 8.48526 32.251 8.19944 32.1221C7.91361 31.9933 7.69402 31.7918 7.57651 31.4325C7.459 31.0723 7.11736 30.6403 7.10239 31.0927Z" fill="#FDFBDC"/>
<path d="M14.0484 34.8431C13.993 34.7342 14.2326 34.4756 13.8515 34.1368C13.4699 33.7979 13.4155 33.4677 13.0553 33.4101C12.6955 33.3525 12.3148 33.1425 12.1021 33.0726C11.8893 33.0032 11.6375 32.8567 11.471 32.9733C11.3045 33.0899 11.0164 33.3167 11.1389 33.3997C11.2614 33.4827 11.4891 33.8991 11.4832 33.983C11.4773 34.0665 11.4138 34.1958 11.7223 34.1681C12.0308 34.1404 12.1524 34.0306 12.3529 34.203C12.5535 34.3754 12.4741 34.5328 12.7522 34.5106C13.0299 34.4883 13.2875 34.5514 13.5334 34.7814C13.7793 35.0114 14.2303 35.2023 14.0484 34.8431Z" fill="#FDFBDC"/>
<path d="M10.513 69.4318H11.9194V48.9923C12.6706 48.3989 14.0212 47.046 15.174 45.4128C16.3408 43.7597 17.8293 41.3335 17.5448 38.944C17.2971 36.8612 15.7388 35.1554 13.2232 33.9659C13.2232 33.9659 11.6018 33.1207 8.21159 32.8426C7.37821 32.7741 6.88281 33.255 6.88281 33.255C6.88281 33.255 7.81736 33.8303 7.89312 33.8874C9.27952 33.9591 10.8224 34.2907 12.5123 34.8809C13.6156 35.4077 16.1988 37.0186 16.1838 38.9812C16.4374 41.1116 15.0097 43.3895 13.9323 44.9156C12.6992 46.6622 11.2461 48.0341 10.7421 48.3803L10.5126 48.5377V69.4318H10.513Z" fill="#7F898F"/>
<defs>
<linearGradient id="paint0_linear_91_11770" x1="-3.54541" y1="47.8804" x2="22.4652" y2="46.5773" gradientUnits="userSpaceOnUse">
<stop stop-color="#94938C"/>
<stop offset="0.1599" stop-color="#D1CFC6"/>
<stop offset="0.2296" stop-color="#EDEBE1"/>
<stop offset="0.7988" stop-color="#EDEBE1"/>
<stop offset="0.9762" stop-color="#9F9E96"/>
<stop offset="1" stop-color="#94938C"/>
</linearGradient>
<linearGradient id="paint1_linear_91_11770" x1="13.9376" y1="18.8998" x2="4.95653" y2="19.0603" gradientUnits="userSpaceOnUse">
<stop stop-color="#BFAB8D"/>
<stop offset="0.5078" stop-color="#E7E1D2"/>
<stop offset="1" stop-color="#CCBFA6"/>
</linearGradient>
</defs>
</svg>
