<svg width="20" height="75" viewBox="0 0 20 75" fill="none" xmlns="http://www.w3.org/2000/svg">
<path d="M3.92969 45.4846C3.92969 45.4846 16.0113 42.4564 17.0153 44.183L12.1361 9.6305C12.1361 9.6305 8.71633 0.75 7.40886 0.75C6.10139 0.75 4.79394 4.67194 4.79394 4.67194C4.79394 4.67194 4.22094 37.2147 3.92969 45.4846Z" fill="url(#paint0_linear_91_11752)"/>
<path d="M6.25294 41.988C6.25203 41.9889 -0.937595 51.4669 0.369855 59.3107C0.79176 61.8417 1.65554 64.487 3.1812 66.5743C3.9252 67.5924 4.89194 68.5138 6.11092 68.9175C7.72323 69.4515 9.79239 69.0323 11.4088 68.6716C12.2045 68.4943 12.9862 68.2497 13.7274 67.9086C18.9101 65.525 20.2792 59.3797 19.8623 54.1716C19.5692 50.5133 18.4587 46.9643 17.0151 43.6117C16.0788 41.4368 13.8976 40.867 11.7205 40.559C10.0818 40.3272 7.36713 40.5191 6.25294 41.988Z" fill="url(#paint1_linear_91_11752)"/>
<path d="M15.8148 41.9028C15.8148 41.9028 15.8674 40.8938 15.7399 40.2065C15.7399 40.2065 15.6351 39.9239 15.2749 39.9016C14.9151 39.8789 14.735 39.8567 14.6678 39.6317C14.6002 39.4067 14.2631 39.5192 14.2405 39.609C14.2178 39.6988 14.1506 39.8563 14.0381 39.7891C13.9256 39.722 13.9932 40.104 14.0381 40.1489C14.083 40.1938 14.0535 40.2963 14.0535 40.2963C14.0535 40.2963 15.8234 41.7971 15.8148 41.9028Z" fill="#FDFBDC"/>
<path d="M5.10595 41.0143C5.10595 41.0143 5.88862 39.4251 6.51384 38.9801C6.51384 38.9801 6.77925 38.5573 6.68941 38.3328C6.59958 38.1078 6.24024 38.326 6.071 37.8909C5.90222 37.4559 5.92445 37.3883 5.81193 37.523C5.69941 37.6578 5.31739 37.523 5.31739 37.523C5.31739 37.523 5.0701 37.3656 5.15994 37.2309C5.24977 37.0962 4.97663 37.0703 4.97663 37.0703C4.97663 37.0703 4.89451 40.7951 5.10595 41.0143Z" fill="#FDFBDC"/>
<path d="M14.4055 36.8823C14.2576 36.7362 14.5103 36.1941 13.7082 35.8497C12.9062 35.5054 12.6413 35.0032 12.0238 35.0994C11.4069 35.1956 10.6742 35.0581 10.2909 35.0581C9.90754 35.0581 9.41898 34.9547 9.20985 35.23C9.00071 35.5054 8.65184 36.0217 8.8959 36.0902C9.13996 36.1591 9.7329 36.7094 9.76783 36.8473C9.80276 36.9853 9.76782 37.2257 10.2559 37.0193C10.7441 36.8129 10.8838 36.572 11.3021 36.7439C11.7203 36.9158 11.6754 37.2103 12.1164 37.0288C12.5573 36.8473 13.0105 36.8129 13.534 37.0538C14.0567 37.2951 14.8936 37.3641 14.4055 36.8823Z" fill="#FDFBDC"/>
<path d="M6.65703 36.1942C6.65249 36.3313 6.27646 36.4565 6.46879 36.9968C6.66112 37.5372 6.53637 37.892 6.85933 38.1438C7.1823 38.3955 7.44359 38.8084 7.61551 38.9922C7.78742 39.1759 7.9557 39.4563 8.18295 39.4313C8.41021 39.4064 8.81663 39.3392 8.74088 39.1909C8.66512 39.043 8.6665 38.509 8.71775 38.43C8.76901 38.3506 8.90146 38.2581 8.58258 38.1184C8.2637 37.9786 8.08452 38.0208 7.98065 37.7427C7.87677 37.4641 8.03962 37.3525 7.75385 37.2237C7.46808 37.0948 7.24854 36.8934 7.13105 36.5341C7.01357 36.1738 6.672 35.7419 6.65703 36.1942Z" fill="#FDFBDC"/>
<path d="M13.6021 39.9446C13.5468 39.8358 13.7863 39.5772 13.4053 39.2384C13.0239 38.8995 12.9694 38.5693 12.6093 38.5117C12.2497 38.4541 11.8691 38.244 11.6564 38.1742C11.4437 38.1048 11.192 37.9583 11.0255 38.0748C10.8591 38.1914 10.5711 38.4182 10.6936 38.5012C10.816 38.5842 11.0437 39.0007 11.0378 39.0846C11.0319 39.168 10.9684 39.2973 11.2768 39.2697C11.5852 39.242 11.7068 39.1322 11.9072 39.3046C12.1077 39.477 12.0283 39.6344 12.3064 39.6121C12.5839 39.5899 12.8415 39.653 13.0874 39.8829C13.3332 40.1129 13.784 40.3039 13.6021 39.9446Z" fill="#FDFBDC"/>
<path d="M10.521 74.393H11.9274V53.9533C12.6787 53.3599 14.0293 52.0071 15.1821 50.3739C16.349 48.7207 17.8375 46.2945 17.5531 43.905C17.3054 41.8222 15.747 40.1164 13.2313 38.9268C13.2313 38.9268 11.6098 38.0817 8.21946 37.8036C7.38605 37.7351 6.89062 38.2159 6.89062 38.2159C6.89062 38.2159 7.82521 38.7912 7.90098 38.8484C9.28743 38.92 10.8304 39.2517 12.5204 39.8419C13.6237 40.3686 16.207 41.9796 16.192 43.9422C16.4456 46.0726 15.0179 48.3505 13.9404 49.8766C12.7073 51.6233 11.2541 52.9952 10.7501 53.3413L10.5206 53.4987V74.393H10.521Z" fill="#7F898F"/>
<defs>
<linearGradient id="paint0_linear_91_11752" x1="15.2838" y1="23.4136" x2="5.39019" y2="23.1088" gradientUnits="userSpaceOnUse">
<stop stop-color="#BFAB8D"/>
<stop offset="0.5078" stop-color="#E7E1D2"/>
<stop offset="1" stop-color="#CCBFA6"/>
</linearGradient>
<linearGradient id="paint1_linear_91_11752" x1="26.2117" y1="54.5195" x2="-6.74052" y2="55.1084" gradientUnits="userSpaceOnUse">
<stop stop-color="#94938C"/>
<stop offset="0.0617" stop-color="#A4A29B"/>
<stop offset="0.1809" stop-color="#CCCAC2"/>
<stop offset="0.2666" stop-color="#EDEBE1"/>
<stop offset="0.7117" stop-color="#EDEBE1"/>
<stop offset="0.7719" stop-color="#E0DED5"/>
<stop offset="0.883" stop-color="#BEBDB4"/>
<stop offset="1" stop-color="#94938C"/>
</linearGradient>
</defs>
</svg>
