<svg width="20" height="70" viewBox="0 0 20 70" fill="none" xmlns="http://www.w3.org/2000/svg">
<path d="M9.97656 56.2793C9.97656 56.2793 15.3226 57.1145 17.0638 54.2732C18.8049 51.4319 10.5264 54.5903 9.97656 56.2793Z" fill="#D8D6D0"/>
<path d="M15.3433 38.3606C15.3433 38.3606 15.0167 27.248 14.0358 24.3064C13.055 21.3648 12.0746 11.5596 12.4017 8.94468C12.7284 6.32973 12.7284 2.40775 12.7284 2.40775C12.7284 2.40775 13.055 -0.53384 10.1134 1.75402C7.17184 4.04187 3.57652 15.1545 3.90361 19.7302C4.23026 24.3059 4.33369 38.0948 4.28197 38.0644C4.2307 38.034 15.3433 38.3606 15.3433 38.3606Z" fill="url(#paint0_linear_91_11632)"/>
<path d="M4.55465 37.0552C4.55465 37.0552 -2.96264 48.1678 2.59344 54.0509C3.27213 54.7696 4.33963 55.2749 5.16666 55.8007C6.02047 56.3438 6.93143 57.0978 7.97215 57.2153C9.16575 57.3505 10.0395 56.1015 11.2127 55.8579C13.0777 55.4705 14.9028 55.7771 16.4957 54.5051C17.8109 53.4548 18.6084 51.8175 18.8793 50.178C19.2168 48.1324 18.8675 46.0537 18.4601 44.0453C18.2863 43.1892 17.9905 42.3749 17.6444 41.5728C17.2755 40.7181 16.6105 39.8838 16.321 39.0155C16.321 39.016 13.7061 31.172 4.55465 37.0552Z" fill="url(#paint1_linear_91_11632)"/>
<path d="M15.2362 37.1216C15.2362 37.1216 15.2888 36.1126 15.1614 35.4253C15.1614 35.4253 15.0566 35.1426 14.6964 35.1204C14.3368 35.0977 14.1567 35.0755 14.0895 34.8504C14.022 34.6254 13.685 34.7379 13.6623 34.8278C13.6396 34.9176 13.5725 35.075 13.46 35.0079C13.3475 34.9407 13.4151 35.3227 13.46 35.3676C13.5049 35.4126 13.4754 35.5151 13.4754 35.5151C13.4754 35.5151 15.2448 37.0158 15.2362 37.1216Z" fill="#FDFBDC"/>
<path d="M4.52001 36.2335C4.52001 36.2335 5.30267 34.6442 5.92788 34.1991C5.92788 34.1991 6.19328 33.7763 6.10345 33.5517C6.01361 33.3267 5.65428 33.5449 5.48505 33.1098C5.31627 32.6747 5.3385 32.6071 5.22598 32.7418C5.11346 32.8766 4.73144 32.7418 4.73144 32.7418C4.73144 32.7418 4.48416 32.5844 4.574 32.4497C4.66383 32.3149 4.3907 32.2891 4.3907 32.2891C4.3907 32.2891 4.30858 36.0143 4.52001 36.2335Z" fill="#FDFBDC"/>
<path d="M13.8278 32.101C13.6799 31.9549 13.9326 31.4128 13.1305 31.0685C12.3284 30.7242 12.0634 30.222 11.446 30.3181C10.8289 30.4143 10.0962 30.2768 9.71287 30.2768C9.3295 30.2768 8.8409 30.1734 8.63175 30.4488C8.4226 30.7242 8.0737 31.2404 8.31778 31.3089C8.56186 31.3779 9.15484 31.9282 9.18978 32.0661C9.22471 32.204 9.18976 32.4444 9.67793 32.238C10.1661 32.0316 10.3058 31.7907 10.7241 31.9627C11.1424 32.1346 11.0975 32.429 11.5385 32.2476C11.9795 32.0661 12.4327 32.0316 12.9563 32.2725C13.4789 32.5138 14.316 32.5828 13.8278 32.101Z" fill="#FDFBDC"/>
<path d="M6.07114 31.413C6.0666 31.55 5.69049 31.6752 5.88286 32.2155C6.07523 32.7558 5.95046 33.1106 6.27349 33.3624C6.59652 33.6141 6.85787 34.027 7.02982 34.2107C7.20177 34.3944 7.37008 34.6748 7.59738 34.6499C7.82468 34.6249 8.23118 34.5578 8.15542 34.4094C8.07965 34.2615 8.08102 33.7276 8.13229 33.6486C8.18356 33.5692 8.31604 33.4767 7.99709 33.337C7.67814 33.1972 7.49893 33.2394 7.39503 32.9613C7.29114 32.6828 7.45401 32.5712 7.16819 32.4423C6.88236 32.3135 6.66277 32.1121 6.54526 31.7528C6.42775 31.3926 6.08611 30.9607 6.07114 31.413Z" fill="#FDFBDC"/>
<path d="M13.0171 35.1638C12.9618 35.0549 13.2013 34.7963 12.8202 34.4574C12.4387 34.1185 12.3842 33.7882 12.024 33.7305C11.6642 33.6729 11.2836 33.4628 11.0708 33.393C10.858 33.3236 10.6062 33.177 10.4397 33.2936C10.2732 33.4102 9.98513 33.6371 10.1076 33.7201C10.2301 33.8031 10.4579 34.2196 10.452 34.3036C10.4461 34.3871 10.3826 34.5164 10.6911 34.4887C10.9996 34.461 11.1212 34.3512 11.3217 34.5236C11.5222 34.696 11.4428 34.8535 11.721 34.8312C11.9986 34.809 12.2563 34.8721 12.5022 35.1021C12.7481 35.3321 13.1991 35.5232 13.0171 35.1638Z" fill="#FDFBDC"/>
<path d="M9.9349 69.6115H11.3413V49.172C12.0925 48.5786 13.4431 47.2257 14.5958 45.5925C15.7627 43.9394 17.2511 41.5131 16.9667 39.1237C16.719 37.0409 15.1607 35.3351 12.6451 34.1456C12.6451 34.1456 11.0237 33.3004 7.63347 33.0223C6.80009 32.9538 6.30469 33.4347 6.30469 33.4347C6.30469 33.4347 7.23923 34.0099 7.315 34.0671C8.70139 34.1388 10.2443 34.4704 11.9342 35.0606C13.0375 35.5873 15.6207 37.1983 15.6057 39.1609C15.8593 41.2913 14.4316 43.5692 13.3542 45.0953C12.1211 46.8419 10.668 48.2138 10.164 48.56L9.93446 48.7174V69.6115H9.9349Z" fill="#7F898F"/>
<defs>
<linearGradient id="paint0_linear_91_11632" x1="14.4437" y1="19.6695" x2="1.55112" y2="19.2723" gradientUnits="userSpaceOnUse">
<stop stop-color="#BFAB8D"/>
<stop offset="0.5078" stop-color="#E7E1D2"/>
<stop offset="1" stop-color="#CCBFA6"/>
</linearGradient>
<linearGradient id="paint1_linear_91_11632" x1="22.5912" y1="46.4513" x2="-4.13517" y2="45.628" gradientUnits="userSpaceOnUse">
<stop stop-color="#94938C"/>
<stop offset="0.0311" stop-color="#A6A59D"/>
<stop offset="0.0939" stop-color="#C5C3BB"/>
<stop offset="0.1552" stop-color="#DBD9D0"/>
<stop offset="0.2138" stop-color="#E8E7DD"/>
<stop offset="0.2666" stop-color="#EDEBE1"/>
<stop offset="0.7117" stop-color="#EDEBE1"/>
<stop offset="0.7637" stop-color="#E7E5DB"/>
<stop offset="0.835" stop-color="#D5D3CA"/>
<stop offset="0.9175" stop-color="#B8B7AF"/>
<stop offset="1" stop-color="#94938C"/>
</linearGradient>
</defs>
</svg>
