<svg width="19" height="70" viewBox="0 0 19 70" fill="none" xmlns="http://www.w3.org/2000/svg">
<path d="M9.53906 54.2881C9.53906 54.2881 14.8378 55.3837 16.7156 52.6313C18.5933 49.8785 10.1706 52.6277 9.53906 54.2881Z" fill="#D8D6D0"/>
<path d="M8.75681 54.5234C8.75681 54.5234 3.11392 54.905 1.70989 51.2455C0.305856 47.586 8.42383 52.4051 8.75681 54.5234Z" fill="#D8D6D0"/>
<path d="M6.5039 33.9959C6.42088 34.0367 6.34195 34.083 6.26755 34.1351C4.82991 35.1395 3.61819 36.7668 2.70407 38.239C1.31498 40.4756 0.323299 43.0338 0.590501 45.7031C0.772871 47.5278 0.977464 49.626 1.88931 51.2646C2.4219 52.2219 3.6191 52.6606 4.59401 52.9999C5.42919 53.2907 6.27208 53.5638 7.09093 53.8991C7.84717 54.2085 8.58935 54.7361 9.44131 54.668C10.4208 54.5895 11.1049 53.8219 11.8883 53.3238C13.1177 52.5426 14.5894 52.142 16.0456 52.2123C16.3015 52.2246 16.5637 52.2504 16.8091 52.1756C17.167 52.0667 17.4288 51.7628 17.6398 51.4543C18.6006 50.0506 18.5752 48.6905 18.5834 47.0582C18.592 45.3996 18.5598 43.7311 18.2436 42.0979C17.6806 39.1876 15.758 36.78 14.7473 34.0331C14.6892 33.8747 14.6311 33.7128 14.5245 33.5821C14.3421 33.3584 14.0436 33.2618 13.756 33.2387C13.2171 33.1951 12.674 33.2786 12.1401 33.3358C11.1275 33.4446 10.139 33.5576 9.12103 33.6275C8.31353 33.6833 7.2556 33.6243 6.5039 33.9959Z" fill="url(#paint0_linear_91_11640)"/>
<path d="M4.36314 35.9059C4.39943 35.9354 4.44299 35.9585 4.49607 35.973C4.76282 36.0479 5.58488 35.6455 5.87568 35.5693C6.83972 35.317 7.81464 35.1061 8.79547 34.9305C9.83482 34.7445 10.8846 34.568 11.943 34.5594C12.5033 34.5549 13.0667 34.5939 13.6152 34.7127C14.1025 34.8184 14.6273 35.1523 15.0887 35.1941C15.4249 33.8834 15.0838 32.3591 15.0057 31.028C14.9191 29.5482 14.7829 28.0715 14.5983 26.6007C14.2522 23.8406 13.563 21.1834 13.0604 18.4583C12.5713 15.8075 12.4352 13.0052 12.4938 10.3058C12.5214 9.03646 12.5981 7.76484 12.7437 6.50364C12.8676 5.42709 13.1779 4.46349 13.0676 3.34792C12.9556 2.21375 12.4234 0.496158 10.9259 0.960714C9.79852 1.31049 9.09671 2.55037 8.52781 3.49309C7.444 5.28826 6.65506 7.24402 5.92829 9.21068C5.20242 11.1746 4.53326 13.1726 4.15445 15.2358C3.82372 17.0355 3.8641 18.7971 3.8954 20.6141C3.9444 23.4985 4.01335 26.3825 4.08458 29.2664C4.1304 31.1274 4.02426 33.0686 4.17079 34.9559C4.19711 35.3088 4.14538 35.728 4.36314 35.9059Z" fill="url(#paint1_linear_91_11640)"/>
<path d="M14.9242 36.6684C14.9242 36.6684 14.9768 35.6594 14.8493 34.9721C14.8493 34.9721 14.7445 34.6895 14.3843 34.6673C14.0245 34.6446 13.8444 34.6223 13.7772 34.3973C13.7096 34.1723 13.3725 34.2848 13.3498 34.3746C13.3272 34.4645 13.26 34.6219 13.1475 34.5547C13.035 34.4876 13.1026 34.8696 13.1475 34.9145C13.1924 34.9594 13.1629 35.062 13.1629 35.062C13.1629 35.062 14.9328 36.5627 14.9242 36.6684Z" fill="#FDFBDC"/>
<path d="M4.21528 35.7799C4.21528 35.7799 4.99774 34.1908 5.62278 33.7458C5.62278 33.7458 5.88812 33.323 5.79831 33.0984C5.70849 32.8734 5.34926 33.0916 5.18007 32.6566C5.01133 32.2215 5.03356 32.1539 4.92107 32.2887C4.80858 32.4234 4.42666 32.2887 4.42666 32.2887C4.42666 32.2887 4.17944 32.1313 4.26926 31.9965C4.35907 31.8618 4.086 31.8359 4.086 31.8359C4.086 31.8359 4.00391 35.5608 4.21528 35.7799Z" fill="#FDFBDC"/>
<path d="M13.5149 31.6477C13.367 31.5016 13.6197 30.9596 12.8176 30.6153C12.0156 30.271 11.7506 29.7688 11.1332 29.865C10.5162 29.9612 9.78359 29.8237 9.40026 29.8237C9.01692 29.8237 8.52835 29.7203 8.31922 29.9956C8.11009 30.271 7.76121 30.7872 8.00527 30.8557C8.24934 30.9246 8.84227 31.4749 8.8772 31.6128C8.91214 31.7507 8.87719 31.9911 9.36532 31.7847C9.85345 31.5783 9.99318 31.3374 10.4114 31.5093C10.8297 31.6813 10.7848 31.9757 11.2258 31.7942C11.6667 31.6128 12.1199 31.5783 12.6434 31.8192C13.166 32.0605 14.003 32.1294 13.5149 31.6477Z" fill="#FDFBDC"/>
<path d="M5.7664 30.9599C5.76187 31.0969 5.38584 31.2221 5.57816 31.7624C5.77049 32.3028 5.64574 32.6576 5.96871 32.9094C6.29167 33.1612 6.55297 33.574 6.72488 33.7578C6.8968 33.9415 7.06507 34.2219 7.29233 34.197C7.51958 34.172 7.926 34.1049 7.85025 33.9565C7.7745 33.8086 7.77587 33.2746 7.82713 33.1957C7.87839 33.1163 8.01084 33.0237 7.69196 32.884C7.37307 32.7442 7.1939 32.7864 7.09002 32.5083C6.98615 32.2298 7.14899 32.1181 6.86322 31.9893C6.57745 31.8604 6.35791 31.659 6.24043 31.2997C6.12294 30.9394 5.78137 30.5075 5.7664 30.9599Z" fill="#FDFBDC"/>
<path d="M12.7124 34.7105C12.6571 34.6016 12.8966 34.343 12.5155 34.0041C12.134 33.6652 12.0795 33.335 11.7193 33.2774C11.3595 33.2197 10.9789 33.0097 10.7661 32.9398C10.5533 32.8704 10.3015 32.7239 10.135 32.8405C9.96852 32.9571 9.68044 33.1839 9.80293 33.2669C9.92543 33.3499 10.1532 33.7664 10.1473 33.8503C10.1414 33.9338 10.0779 34.0631 10.3864 34.0354C10.6949 34.0077 10.8165 33.898 11.017 34.0704C11.2175 34.2427 11.1381 34.4002 11.4162 34.3779C11.6939 34.3557 11.9516 34.4188 12.1975 34.6488C12.4434 34.8788 12.8944 35.0698 12.7124 34.7105Z" fill="#FDFBDC"/>
<path d="M9.63022 69.1584H11.0366V48.7188C11.7879 48.1254 13.1384 46.7726 14.2912 45.1394C15.458 43.4862 16.9465 41.06 16.662 38.6706C16.4143 36.5878 14.856 34.882 12.3404 33.6925C12.3404 33.6925 10.719 32.8473 7.32879 32.5692C6.4954 32.5007 6 32.9816 6 32.9816C6 32.9816 6.93455 33.5568 7.01031 33.614C8.39671 33.6857 9.93962 34.0173 11.6295 34.6075C12.7328 35.1342 15.316 36.7452 15.301 38.7078C15.5546 40.8382 14.127 43.116 13.0495 44.6422C11.8164 46.3888 10.3633 47.7607 9.85932 48.1068L9.62978 48.2643V69.1584H9.63022Z" fill="#7F898F"/>
<defs>
<linearGradient id="paint0_linear_91_11640" x1="24.5331" y1="44.3553" x2="-5.70241" y2="43.424" gradientUnits="userSpaceOnUse">
<stop stop-color="#94938C"/>
<stop offset="0.2666" stop-color="#EDEBE1"/>
<stop offset="0.7117" stop-color="#EDEBE1"/>
<stop offset="1" stop-color="#94938C"/>
</linearGradient>
<linearGradient id="paint1_linear_91_11640" x1="17.9978" y1="19.4813" x2="3.63835" y2="17.9733" gradientUnits="userSpaceOnUse">
<stop stop-color="#BFAB8D"/>
<stop offset="0.5078" stop-color="#E7E1D2"/>
<stop offset="1" stop-color="#CCBFA6"/>
</linearGradient>
</defs>
</svg>
