<svg width="26" height="64" viewBox="0 0 26 64" fill="none" xmlns="http://www.w3.org/2000/svg">
<path d="M14.6584 2.26306C14.6584 2.26306 15.5644 0.208858 17.3981 0.723317C19.2319 1.23778 19.8662 6.03168 19.5341 9.56575C19.2024 13.0998 17.6305 24.3127 14.9279 24.5436C12.2253 24.7745 7.28286 18.4236 9.53131 14.8855C11.7798 11.3473 15.5009 5.1375 14.6584 2.26306Z" fill="url(#paint0_linear_91_11651)"/>
<path d="M2.83824 32.7136C6.03705 32.4832 9.66684 30.9194 12.8715 30.7928C14.8817 30.7134 16.8928 30.5805 18.9053 30.6449C19.8358 30.6744 21.2195 33.155 22.1218 33.0403C22.7071 32.9658 22.321 30.5623 22.2969 29.9404C22.2765 29.4109 22.2316 28.8838 22.3092 28.3562C22.5877 26.4544 23.6339 24.6488 24.069 22.747C24.5725 20.5472 24.9128 18.3047 25.1219 16.0582C25.3438 13.6751 25.4377 11.2407 25.1256 8.86077C24.9913 7.83458 24.808 6.79251 24.4006 5.83482C24.0835 5.08945 23.3145 3.62638 22.3319 3.73843C21.9712 3.77972 21.6482 3.98477 21.3782 4.22839C20.8493 4.7061 20.4809 5.34213 20.2373 6.0122C19.7351 7.39452 19.746 8.88301 19.6493 10.3311C19.5495 11.8241 19.1426 13.2069 18.8078 14.6559C18.1862 17.3484 17.4522 20.5173 15.6884 22.7243C15.2592 23.2615 14.6141 23.6961 13.9295 23.6312C13.5784 23.5977 13.2504 23.4361 12.9637 23.2306C11.9307 22.4898 11.4053 21.2114 11.2261 19.9529C10.8591 17.3743 11.1354 14.5298 11.8245 12.0301C12.2287 10.5629 12.9754 9.2491 13.4318 7.81461C13.9141 6.29801 14.5683 3.2893 12.4301 2.71178C11.5673 2.4786 10.6486 2.91956 10.0039 3.53836C7.61219 5.83164 5.99669 9.24094 4.61346 12.197C3.7651 14.0094 2.94622 15.8831 2.42405 17.8202C2.11011 18.9848 2.1437 20.1453 2.17682 21.3479C2.26937 24.7096 2.46488 29.3801 2.83824 32.7136Z" fill="url(#paint1_linear_91_11651)"/>
<path d="M21.7789 34.8849C22.0511 34.968 22.4412 35.7074 22.5923 35.9202C23.1907 36.7645 23.7088 37.6732 24.0967 38.634C25.1419 41.2231 24.9904 44.0626 23.0296 46.1835C23.0065 46.2085 22.9829 46.2334 22.9598 46.2584C22.854 46.3695 22.7438 46.478 22.6576 46.6045C22.4158 46.9598 22.3582 47.4043 22.1291 47.7691C21.9127 48.1134 21.5947 48.4355 21.2866 48.6955C20.5612 49.3079 19.5949 49.7335 18.63 49.6382C18.2983 49.6055 17.9821 49.4876 17.6705 49.3705C16.3172 48.8624 14.8477 48.2831 14.13 46.9393C14.2117 47.0927 13.8393 47.7165 13.7453 47.8435C13.5203 48.1493 13.2445 48.2822 12.8965 48.4165C11.7474 48.8606 10.4966 49.2172 9.39513 49.768C8.63387 50.061 7.99147 50.3396 7.21706 50.0855C6.76611 49.9376 6.30928 49.8079 5.86332 49.6446C5.02858 49.3392 3.63991 48.8048 3.63991 47.7219C3.63991 46.0474 2.24441 41.0244 5.59338 36.0014C8.94099 30.9802 21.7685 34.8818 21.7789 34.8849Z" fill="#D8D6D0"/>
<path d="M21.7932 30.7499C22.1121 30.847 22.5694 31.7135 22.7459 31.9626C23.4468 32.9516 24.0534 34.0159 24.5079 35.141C25.7324 38.1738 25.5545 41.4996 23.2585 43.983C23.2313 44.0121 23.2037 44.0416 23.1765 44.0706C23.0526 44.2008 22.9237 44.3278 22.8226 44.4762C22.539 44.8926 22.4719 45.413 22.2038 45.8404C21.9506 46.2432 21.5782 46.6207 21.2171 46.9255C20.3673 47.6428 19.2354 48.1409 18.1058 48.0298C17.7175 47.9917 17.3473 47.8533 16.9821 47.7163C15.397 47.1215 13.6758 46.4424 12.8352 44.8686C12.9309 45.0478 12.4945 45.7787 12.3847 45.9279C12.1211 46.2859 11.7976 46.4415 11.3907 46.5989C10.0447 47.1193 8.57978 47.5366 7.28955 48.1817C6.3981 48.5252 5.64593 48.8514 4.7386 48.5538C4.21053 48.3805 3.6752 48.2285 3.15303 48.0375C2.17539 47.68 0.548559 47.0539 0.548559 45.7855C0.548559 43.8242 -1.08555 37.9411 2.83638 32.0579C6.75694 26.1765 21.781 30.7463 21.7932 30.7499Z" fill="url(#paint2_linear_91_11651)"/>
<path d="M18.1896 30.6218C18.1896 30.6218 18.2422 29.6127 18.1148 28.9253C18.1148 28.9253 18.0095 28.6427 17.6498 28.6204C17.29 28.5982 17.1099 28.5755 17.0428 28.3505C16.9752 28.1254 16.6381 28.2379 16.6154 28.3278C16.5928 28.4176 16.5256 28.575 16.4131 28.5079C16.3006 28.4403 16.3682 28.8228 16.4131 28.8677C16.458 28.9126 16.4285 29.0152 16.4285 29.0152C16.4285 29.0152 18.1982 30.5161 18.1896 30.6218Z" fill="#FDFBDC"/>
<path d="M3.90826 29.6475C3.90826 29.6475 5.85869 28.0582 7.41713 27.6132C7.41713 27.6132 8.07862 27.1903 7.8545 26.9658C7.63037 26.7412 6.73433 26.9589 6.31375 26.5239C5.89318 26.0888 5.94897 26.0212 5.66859 26.1559C5.38821 26.2907 4.43546 26.1559 4.43546 26.1559C4.43546 26.1559 3.8189 25.9985 4.04302 25.8637C4.26715 25.729 3.58614 25.7031 3.58614 25.7031C3.58614 25.7031 3.38107 29.4284 3.90826 29.6475Z" fill="#FDFBDC"/>
<path d="M17.6478 26.2417C17.4999 26.0956 17.7526 25.5534 16.9505 25.2091C16.1484 24.8648 15.8835 24.3626 15.2661 24.4588C14.6486 24.5549 13.9164 24.4175 13.5331 24.4175C13.1493 24.4175 12.6612 24.314 12.452 24.5894C12.2429 24.8648 11.894 25.381 12.1381 25.4496C12.3822 25.5185 12.9751 26.0688 13.01 26.2067C13.0449 26.3442 13.01 26.5851 13.4982 26.3787C13.9863 26.1722 14.126 25.9313 14.5443 26.1033C14.9626 26.2752 14.9177 26.5696 15.3586 26.3882C15.7996 26.2067 16.2528 26.1722 16.7763 26.4131C17.2989 26.6545 18.1359 26.7234 17.6478 26.2417Z" fill="#FDFBDC"/>
<path d="M19.3489 29.4792C19.4877 29.354 19.9609 29.609 20.3115 28.9076C20.6622 28.2062 21.1268 27.9943 21.0728 27.4354C21.0188 26.8765 21.1803 26.2268 21.2007 25.8825C21.2206 25.5382 21.339 25.1058 21.1027 24.9035C20.8668 24.7011 20.4218 24.3613 20.3474 24.5768C20.273 24.7923 19.7481 25.2954 19.6224 25.3195C19.4972 25.3435 19.2826 25.2995 19.4423 25.7487C19.602 26.1974 19.8107 26.3353 19.6347 26.7018C19.4587 27.0684 19.1969 27.0121 19.3366 27.4177C19.4763 27.8229 19.4836 28.2316 19.24 28.688C18.9964 29.1444 18.8907 29.8916 19.3489 29.4792Z" fill="#FDFBDC"/>
<path d="M9.02422 24.913C9.01968 25.05 8.64365 25.1752 8.83598 25.7156C9.0283 26.2559 8.90356 26.6107 9.22652 26.8625C9.54948 27.1143 9.81075 27.5272 9.98267 27.7109C10.1546 27.8947 10.3229 28.175 10.5501 28.1501C10.7774 28.1251 11.1838 28.058 11.1081 27.9096C11.0323 27.7617 11.0337 27.2277 11.0849 27.1488C11.1362 27.0694 11.2686 26.9768 10.9497 26.8371C10.6309 26.6974 10.4517 26.7396 10.3478 26.4614C10.2439 26.1829 10.4068 26.0713 10.121 25.9424C9.83524 25.8136 9.6157 25.6121 9.49821 25.2528C9.38028 24.8926 9.03918 24.4607 9.02422 24.913Z" fill="#FDFBDC"/>
<path d="M4.72019 21.9402C4.7152 22.0908 4.30186 22.2283 4.51329 22.8217C4.72472 23.4151 4.58725 23.8048 4.9425 24.0811C5.29731 24.3574 5.58451 24.8111 5.77326 25.013C5.96201 25.2149 6.14712 25.5229 6.39712 25.4957C6.64666 25.4685 7.09359 25.3945 7.0101 25.2317C6.92662 25.0688 6.92843 24.4826 6.98469 24.396C7.04095 24.3093 7.18659 24.2072 6.83632 24.0534C6.48606 23.8996 6.28914 23.9464 6.1748 23.6406C6.06047 23.3348 6.23967 23.2119 5.9257 23.0703C5.61173 22.9288 5.37037 22.7078 5.24152 22.3127C5.11176 21.9175 4.73652 21.4429 4.72019 21.9402Z" fill="#FDFBDC"/>
<path d="M15.9775 28.6638C15.9222 28.5549 16.1622 28.2963 15.7806 27.9574C15.3991 27.6184 15.3446 27.2881 14.9849 27.2305C14.6251 27.1729 14.2445 26.9628 14.0317 26.893C13.8189 26.8235 13.5676 26.677 13.4006 26.7936C13.2341 26.9102 12.9461 27.1371 13.0686 27.2201C13.1911 27.3031 13.4188 27.7196 13.4129 27.8035C13.407 27.887 13.3435 28.0163 13.652 27.9887C13.9605 27.961 14.0821 27.8512 14.2826 28.0236C14.4831 28.196 14.4037 28.3534 14.6818 28.3312C14.9599 28.309 15.2171 28.372 15.463 28.6021C15.708 28.8326 16.1594 29.0231 15.9775 28.6638Z" fill="#FDFBDC"/>
<path d="M12.8882 63.1193H14.2946V42.6798C15.0459 42.0864 16.3965 40.7335 17.5493 39.1003C18.7162 37.4472 20.2048 35.021 19.9203 32.6315C19.6726 30.5487 18.1141 28.8429 15.5985 27.6534C15.5985 27.6534 13.977 26.8082 10.5867 26.5301C9.75324 26.4616 9.25781 26.9425 9.25781 26.9425C9.25781 26.9425 10.1924 27.5178 10.2682 27.5749C11.6546 27.6466 13.1976 27.9782 14.8876 28.5684C15.9909 29.0952 18.5742 30.7061 18.5592 32.6687C18.8129 34.7991 17.3851 37.077 16.3076 38.6031C15.0745 40.3497 13.6213 41.7216 13.1173 42.0678L12.8877 42.2252V63.1193H12.8882Z" fill="#7F898F"/>
<defs>
<linearGradient id="paint0_linear_91_11651" x1="11.1417" y1="23.529" x2="29.7033" y2="-21.8369" gradientUnits="userSpaceOnUse">
<stop offset="0.1599" stop-color="#BFAB8D"/>
<stop offset="0.5078" stop-color="#E7E1D2"/>
<stop offset="0.7297" stop-color="#CCBFA6"/>
</linearGradient>
<linearGradient id="paint1_linear_91_11651" x1="24.0256" y1="17.528" x2="3.11506" y2="18.4735" gradientUnits="userSpaceOnUse">
<stop offset="0.1599" stop-color="#BFAB8D"/>
<stop offset="0.5078" stop-color="#E7E1D2"/>
<stop offset="0.7297" stop-color="#CCBFA6"/>
</linearGradient>
<linearGradient id="paint2_linear_91_11651" x1="31.0492" y1="41.1895" x2="-3.77314" y2="37.5327" gradientUnits="userSpaceOnUse">
<stop stop-color="#94938C"/>
<stop offset="0.2296" stop-color="#EDEBE1"/>
<stop offset="0.7988" stop-color="#EDEBE1"/>
<stop offset="1" stop-color="#94938C"/>
</linearGradient>
</defs>
</svg>
