<svg width="24" height="59" viewBox="0 0 24 59" fill="none" xmlns="http://www.w3.org/2000/svg">
<path d="M9.35156 39.1251C9.35156 39.1251 11.801 42.7129 15.524 40.2696C19.247 37.8263 11.2716 37.4348 9.35156 39.1251Z" fill="#D8D6D0"/>
<path d="M13.7909 3.54654C14.3116 1.80717 16.1099 2.02629 16.7177 3.59417C17.8931 6.62514 17.2898 10.0286 16.6855 13.1158C16.4056 14.5453 15.8658 19.8333 13.8485 20.0057C11.8471 20.1767 8.18715 15.473 9.85198 12.8527C10.7552 11.4313 11.7427 10.0535 12.4849 8.5369C13.2919 6.88872 13.281 5.25143 13.7909 3.54654Z" fill="url(#paint0_linear_91_11661)"/>
<path d="M3.32958 26.8461C3.39491 26.8829 3.60358 26.4165 3.79094 26.4369C4.03546 26.4632 4.34032 26.3779 4.58483 26.353C5.42953 26.2677 6.27558 26.1937 7.1221 26.1298C9.47383 25.9524 11.8364 25.8444 14.1954 25.8921C15.8363 25.9252 17.5021 26.0123 19.1112 26.3557C20.1052 26.5676 21.413 26.8829 22.0209 27.7866C22.0209 27.7866 20.6514 22.2704 21.6322 18.0214C22.6125 13.7723 23.92 2.3331 21.3051 2.006C19.6615 1.80049 18.4226 5.62309 17.9939 6.68649C16.857 9.50649 15.967 12.5207 15.1608 15.4831C15.1381 15.5657 15.115 15.6505 15.0646 15.7199C14.6232 16.3306 13.0908 16.5728 12.4992 16.1645C12.0039 15.8225 11.8814 15.1551 11.8006 14.5581C11.6573 13.4988 11.5139 12.4394 11.3706 11.3801C11.0299 8.86318 10.6869 6.32991 10.7477 3.78347C10.7645 3.08437 11.5611 -0.476015 9.86581 0.37189C7.01778 1.79595 5.39371 5.7347 4.603 8.5615C3.53419 12.3809 3.4947 16.468 3.34726 20.4068C3.27966 22.2124 3.1894 24.0429 3.3069 25.8485C3.33004 26.2015 3.23568 26.7935 3.32958 26.8461Z" fill="url(#paint1_linear_91_11661)"/>
<path d="M4.4249 25.6949C5.30184 25.0875 6.47639 25.0149 7.49488 24.8112C9.02873 24.504 10.5762 24.2482 12.1395 24.1538C15.5852 23.9451 19.3746 24.5771 21.6902 27.3803C22.5063 28.368 23.0802 29.5507 23.3678 30.7983C23.6913 32.2028 23.4304 33.1102 22.9831 34.4372C22.573 35.6534 22.0377 36.9704 21.3762 38.0719C20.659 39.266 19.5117 40.2999 18.069 40.2791C16.5061 40.2564 14.9786 39.6448 13.9347 38.4598C13.8798 38.3977 13.8236 38.3319 13.7464 38.3006C13.6543 38.2634 13.5504 38.2829 13.4542 38.3051C11.3538 38.7865 9.24741 40.1602 7.30933 41.0889C6.38294 41.5325 5.85349 41.6677 4.9153 41.1751C3.74483 40.5603 2.63018 39.8045 1.76367 38.806C-0.799106 35.8526 0.177637 31.6566 2.05129 28.6111C2.64287 27.6498 3.37553 26.5356 4.262 25.8179C4.31462 25.7743 4.3691 25.7335 4.4249 25.6949Z" fill="url(#paint2_linear_91_11661)"/>
<path d="M18.0563 25.9416C18.0563 25.9416 18.1089 24.9327 17.9815 24.2455C17.9815 24.2455 17.8763 23.9629 17.5166 23.9407C17.157 23.9184 16.9769 23.8957 16.9098 23.6707C16.8422 23.4457 16.5052 23.5582 16.4825 23.6481C16.4599 23.7379 16.3927 23.8953 16.2803 23.8282C16.1678 23.7606 16.2354 24.143 16.2803 24.1879C16.3252 24.2328 16.2957 24.3353 16.2957 24.3353C16.2957 24.3353 18.0649 25.8359 18.0563 25.9416Z" fill="#FDFBDC"/>
<path d="M3.77545 24.9674C3.77545 24.9674 5.72594 23.3783 7.28443 22.9332C7.28443 22.9332 7.94597 22.5105 7.72184 22.2859C7.4977 22.0614 6.60163 22.2791 6.18104 21.8441C5.76045 21.409 5.81623 21.3414 5.53583 21.4762C5.25544 21.6109 4.30267 21.4762 4.30267 21.4762C4.30267 21.4762 3.6861 21.3188 3.91023 21.184C4.13437 21.0493 3.45333 21.0234 3.45333 21.0234C3.45333 21.0234 3.24824 24.7483 3.77545 24.9674Z" fill="#FDFBDC"/>
<path d="M17.5149 21.5622C17.367 21.4161 17.6196 20.8739 16.8176 20.5295C16.0155 20.1852 15.7506 19.6829 15.1332 19.7791C14.5158 19.8753 13.7836 19.7378 13.4003 19.7378C13.0165 19.7378 12.5283 19.6343 12.3192 19.9097C12.1101 20.1851 11.7612 20.7015 12.0053 20.77C12.2493 20.8389 12.8422 21.3893 12.8772 21.5272C12.9121 21.6652 12.8772 21.9056 13.3653 21.6992C13.8535 21.4927 13.9932 21.2518 14.4114 21.4238C14.8297 21.5957 14.7848 21.8902 15.2257 21.7087C15.6667 21.5272 16.1199 21.4927 16.643 21.7337C17.166 21.975 18.003 22.044 17.5149 21.5622Z" fill="#FDFBDC"/>
<path d="M19.2235 24.7993C19.3623 24.6741 19.8352 24.929 20.1857 24.2277C20.5363 23.5263 21.0006 23.3145 20.9467 22.7556C20.8927 22.1967 21.0541 21.5471 21.0745 21.2027C21.0945 20.8584 21.2128 20.4261 20.9766 20.2238C20.7408 20.0214 20.2959 19.6817 20.2216 19.8971C20.1472 20.1126 19.6226 20.6157 19.4969 20.6398C19.3718 20.6638 19.1573 20.6198 19.3174 21.0689C19.477 21.5176 19.6856 21.6555 19.5096 22.022C19.3337 22.3886 19.0721 22.3323 19.2117 22.7379C19.3514 23.143 19.3586 23.5517 19.1151 24.0081C18.8712 24.4645 18.766 25.2117 19.2235 24.7993Z" fill="#FDFBDC"/>
<path d="M8.89936 20.2333C8.89482 20.3703 8.51858 20.4955 8.711 21.0357C8.90342 21.576 8.77864 21.9308 9.10176 22.1825C9.42489 22.4343 9.68629 22.8471 9.85829 23.0308C10.0303 23.2145 10.1986 23.4949 10.426 23.4699C10.6534 23.445 11.06 23.3778 10.9842 23.2295C10.9084 23.0816 10.9098 22.5477 10.9611 22.4688C11.0124 22.3894 11.1449 22.2968 10.8258 22.1571C10.5068 22.0174 10.3275 22.0596 10.2236 21.7815C10.1197 21.503 10.2826 21.3914 9.99669 21.2626C9.71078 21.1337 9.49111 20.9323 9.37357 20.573C9.25557 20.2129 8.91433 19.781 8.89936 20.2333Z" fill="#FDFBDC"/>
<path d="M4.59528 17.2605C4.59029 17.4111 4.17682 17.5485 4.3883 18.1419C4.59979 18.7353 4.46228 19.125 4.81763 19.4013C5.17253 19.6776 5.45984 20.1312 5.64863 20.3331C5.83743 20.535 6.02259 20.843 6.27266 20.8158C6.52227 20.7886 6.96928 20.7146 6.88578 20.5518C6.80227 20.3889 6.80411 19.8028 6.86038 19.7161C6.91666 19.6295 7.06232 19.5274 6.71196 19.3736C6.36159 19.2198 6.16463 19.2666 6.05026 18.9608C5.93589 18.655 6.11515 18.5321 5.80109 18.3905C5.48704 18.249 5.24564 18.0281 5.11675 17.6329C4.98695 17.2378 4.61162 16.7633 4.59528 17.2605Z" fill="#FDFBDC"/>
<path d="M15.8456 23.9839C15.7902 23.875 16.0297 23.6164 15.6486 23.2775C15.267 22.9387 15.2126 22.6084 14.8523 22.5508C14.4925 22.4932 14.1118 22.2831 13.899 22.2133C13.6862 22.1439 13.4344 21.9973 13.2679 22.1139C13.1014 22.2305 12.8132 22.4573 12.9357 22.5403C13.0587 22.6234 13.2861 23.0398 13.2802 23.1237C13.2743 23.2072 13.2107 23.3365 13.5193 23.3088C13.8278 23.2812 13.9494 23.1714 14.15 23.3438C14.3505 23.5162 14.2711 23.6736 14.5492 23.6514C14.8269 23.6291 15.0846 23.6922 15.3306 23.9222C15.576 24.1526 16.0275 24.3432 15.8456 23.9839Z" fill="#FDFBDC"/>
<path d="M12.7633 58.4396H14.1698V38.0001C14.9211 37.4067 16.2718 36.0539 17.4247 34.4206C18.5916 32.7675 20.0802 30.3413 19.7957 27.9518C19.548 25.869 17.9895 24.1632 15.4738 22.9737C15.4738 22.9737 13.8522 22.1285 10.4617 21.8504C9.62821 21.7819 9.13281 22.2628 9.13281 22.2628C9.13281 22.2628 10.0674 22.8381 10.1432 22.8952C11.5297 22.9669 13.0728 23.2985 14.7628 23.8888C15.8667 24.4155 18.4496 26.0264 18.4346 27.989C18.6882 30.1194 17.2604 32.3973 16.1829 33.9234C14.9497 35.6701 13.4965 37.0419 12.9924 37.3881L12.7629 37.5455V58.4396H12.7633Z" fill="#7F898F"/>
<defs>
<linearGradient id="paint0_linear_91_11661" x1="11.1147" y1="19.2883" x2="24.803" y2="-14.1633" gradientUnits="userSpaceOnUse">
<stop offset="0.1599" stop-color="#BFAB8D"/>
<stop offset="0.5078" stop-color="#E7E1D2"/>
<stop offset="0.7297" stop-color="#CCBFA6"/>
</linearGradient>
<linearGradient id="paint1_linear_91_11661" x1="22.169" y1="16.2943" x2="4.4805" y2="12.939" gradientUnits="userSpaceOnUse">
<stop offset="0.1599" stop-color="#BFAB8D"/>
<stop offset="0.5078" stop-color="#E7E1D2"/>
<stop offset="0.7297" stop-color="#CCBFA6"/>
</linearGradient>
<linearGradient id="paint2_linear_91_11661" x1="-5.04574" y1="32.7648" x2="28.2397" y2="32.8493" gradientUnits="userSpaceOnUse">
<stop stop-color="#94938C"/>
<stop offset="0.2296" stop-color="#EDEBE1"/>
<stop offset="0.7988" stop-color="#EDEBE1"/>
<stop offset="1" stop-color="#94938C"/>
</linearGradient>
</defs>
</svg>
