<svg width="24" height="60" viewBox="0 0 24 60" fill="none" xmlns="http://www.w3.org/2000/svg">
<path d="M19.0002 2.96686C19.5337 1.23114 17.9169 0.414545 16.54 1.3804C13.8785 3.24722 12.4894 6.41198 11.2768 9.31452C10.7152 10.6587 8.22599 15.3546 9.80742 16.619C11.3766 17.8733 17.0332 15.9961 17.1044 12.8926C17.1429 11.2086 17.0876 9.51459 17.3131 7.84102C17.558 6.02228 18.4771 4.66719 19.0002 2.96686Z" fill="url(#paint0_linear_91_11669)"/>
<path d="M3.20767 26.887C2.24546 20.5792 2.26091 12.9685 5.06453 7.13077C5.71598 5.77386 6.60289 4.53263 7.65947 3.46107C8.07411 3.04052 10.5438 0.515426 11.0632 1.13695C11.5927 1.77072 11.114 3.18706 11.0201 3.8916C10.8632 5.07067 10.7144 6.25066 10.5915 7.43382C10.3424 9.83416 9.72223 12.435 10.371 14.8236C10.5139 15.3494 10.8441 15.8693 11.3622 16.0376C11.6357 16.1265 11.9338 16.1083 12.2146 16.0475C13.9921 15.6624 15.2782 13.8704 16.371 12.5557C17.9339 10.6762 18.8308 8.5648 19.6116 6.26699C19.9908 5.15098 20.4245 4.06671 21.3776 3.32315C21.6072 3.14396 22.0704 2.7284 22.4243 2.81324C23.5893 3.09179 23.1868 6.23478 23.1447 6.9493C22.818 12.5058 20.5297 20.023 20.5297 20.023C20.5297 20.023 19.5494 26.2328 20.5297 28.194C21.5105 30.1556 4.51466 30.1556 3.20767 26.887Z" fill="url(#paint1_linear_91_11669)"/>
<path d="M2.22783 27.8712C2.22783 27.8708 4.8428 24.9297 10.7261 24.9297C16.6094 24.9297 20.8586 26.8909 21.839 29.5053C22.8194 32.1198 23.1465 39.3103 19.5511 40.6178C18.4137 41.0315 17.1634 41.1341 16.1381 40.4009C15.2611 39.774 14.9145 38.6217 13.5956 39.049C13.0208 39.235 12.5468 39.6383 12.0595 39.9958C9.91724 41.5673 6.27646 43.1973 3.83657 41.3423C0.50112 38.8063 -0.67663 31.139 2.22783 27.8712Z" fill="url(#paint2_linear_91_11669)"/>
<path d="M17.1437 26.5903C17.1437 26.5903 17.1963 25.5813 17.0688 24.894C17.0688 24.894 16.9635 24.6114 16.6035 24.5891C16.2436 24.5669 16.0634 24.5442 15.9963 24.3192C15.9286 24.0942 15.5914 24.2067 15.5687 24.2965C15.546 24.3863 15.4788 24.5438 15.3663 24.4766C15.2537 24.409 15.3213 24.7915 15.3663 24.8364C15.4112 24.8813 15.3817 24.9838 15.3817 24.9838C15.3817 24.9838 17.1523 26.4846 17.1437 26.5903Z" fill="#FDFBDC"/>
<path d="M3.31443 25.6085C3.31443 25.6085 5.26448 24.0192 6.82263 23.5741C6.82263 23.5741 7.48402 23.1513 7.25993 22.9267C7.03585 22.7021 6.13993 22.9199 5.71944 22.4848C5.29894 22.0497 5.35475 21.9821 5.07442 22.1168C4.79409 22.2516 3.84153 22.1168 3.84153 22.1168C3.84153 22.1168 3.22506 21.9594 3.44914 21.8247C3.67322 21.6899 2.99239 21.6641 2.99239 21.6641C2.99239 21.6641 2.78734 25.3893 3.31443 25.6085Z" fill="#FDFBDC"/>
<path d="M16.6018 22.2028C16.4539 22.0567 16.7066 21.5145 15.9044 21.1701C15.1022 20.8258 14.8372 20.3235 14.2197 20.4197C13.6022 20.5159 12.8699 20.3784 12.4865 20.3784C12.1026 20.3784 11.6144 20.275 11.4052 20.5504C11.196 20.8258 10.8471 21.3421 11.0912 21.4106C11.3353 21.4796 11.9284 22.0299 11.9633 22.1679C11.9982 22.3058 11.9633 22.5462 12.4515 22.3398C12.9397 22.1334 13.0795 21.8924 13.4978 22.0644C13.9162 22.2364 13.8713 22.5308 14.3123 22.3493C14.7533 22.1679 15.2066 22.1334 15.7302 22.3743C16.2529 22.6157 17.09 22.6846 16.6018 22.2028Z" fill="#FDFBDC"/>
<path d="M18.3021 25.448C18.4409 25.3228 18.9142 25.5777 19.2649 24.8763C19.6157 24.175 20.0804 23.9631 20.0264 23.4042C19.9724 22.8452 20.1339 22.1956 20.1543 21.8512C20.1743 21.5069 20.2927 21.0746 20.0563 20.8722C19.8203 20.6699 19.3752 20.3301 19.3008 20.5456C19.2264 20.7611 18.7013 21.2642 18.5757 21.2882C18.4504 21.3123 18.2358 21.2683 18.3955 21.7174C18.5553 22.1661 18.764 22.304 18.5879 22.6706C18.4119 23.0372 18.15 22.9809 18.2898 23.3865C18.4296 23.7916 18.4368 24.2004 18.1932 24.6568C17.9495 25.1131 17.8438 25.8604 18.3021 25.448Z" fill="#FDFBDC"/>
<path d="M7.98517 20.8817C7.98063 21.0188 7.60457 21.144 7.79692 21.6843C7.98928 22.2247 7.86449 22.5795 8.1875 22.8313C8.51051 23.0831 8.77186 23.4959 8.94379 23.6797C9.11573 23.8634 9.28403 24.1438 9.51131 24.1188C9.7386 24.0939 10.1451 24.0267 10.0693 23.8784C9.99355 23.7305 9.99492 23.1965 10.0462 23.1175C10.0974 23.0381 10.2299 22.9456 9.91097 22.8059C9.59205 22.6661 9.41287 22.7083 9.30898 22.4302C9.20509 22.1516 9.36796 22.04 9.08215 21.9112C8.79634 21.7823 8.57675 21.5809 8.45925 21.2216C8.3413 20.8613 8.00014 20.4294 7.98517 20.8817Z" fill="#FDFBDC"/>
<path d="M3.68108 17.9089C3.67609 18.0595 3.26283 18.197 3.47421 18.7904C3.68559 19.3839 3.54815 19.7736 3.90332 20.0499C4.25804 20.3262 4.5452 20.7799 4.7339 20.9818C4.9226 21.1836 5.10767 21.4917 5.35761 21.4645C5.6071 21.4373 6.05389 21.3633 5.97042 21.2004C5.88696 21.0376 5.88876 20.4514 5.94456 20.3647C6.00035 20.2781 6.14643 20.176 5.79625 20.0222C5.44606 19.8684 5.24919 19.9151 5.13488 19.6093C5.02057 19.3036 5.19974 19.1806 4.88584 19.0391C4.57195 18.8975 4.33062 18.6766 4.2018 18.2814C4.07252 17.8862 3.69741 17.4117 3.68108 17.9089Z" fill="#FDFBDC"/>
<path d="M14.9311 24.6325C14.8757 24.5236 15.1158 24.265 14.7342 23.9261C14.3526 23.5872 14.2981 23.2569 13.9383 23.1993C13.5785 23.1417 13.1978 22.9316 12.985 22.8617C12.7722 22.7923 12.5208 22.6457 12.3538 22.7623C12.1873 22.8789 11.8992 23.1058 12.0217 23.1888C12.1442 23.2719 12.372 23.6884 12.3661 23.7723C12.3602 23.8558 12.2967 23.9851 12.6052 23.9574C12.9138 23.9297 13.0354 23.8199 13.2359 23.9923C13.4365 24.1648 13.3571 24.3222 13.6352 24.3C13.9134 24.2777 14.1706 24.3408 14.4166 24.5708C14.6616 24.8013 15.1131 24.9919 14.9311 24.6325Z" fill="#FDFBDC"/>
<path d="M11.8493 59.0802H13.2558V38.6407C14.0071 38.0473 15.3578 36.6945 16.5106 35.0613C17.6776 33.4081 19.1662 30.9819 18.8817 28.5924C18.634 26.5096 17.0755 24.8039 14.5597 23.6143C14.5597 23.6143 12.9382 22.7692 9.54765 22.4911C8.7142 22.4226 8.21875 22.9034 8.21875 22.9034C8.21875 22.9034 9.1534 23.4787 9.22917 23.5359C10.6157 23.6075 12.1587 23.9392 13.8488 24.5294C14.9522 25.0561 17.5356 26.6671 17.5206 28.6296C17.7742 30.7601 16.3464 33.0379 15.2689 34.5641C14.0357 36.3107 12.5825 37.6826 12.0784 38.0287L11.8488 38.1861V59.0802H11.8493Z" fill="#7F898F"/>
<defs>
<linearGradient id="paint0_linear_91_11669" x1="12.464" y1="17.515" x2="19.6748" y2="-17.9043" gradientUnits="userSpaceOnUse">
<stop offset="0.1599" stop-color="#BFAB8D"/>
<stop offset="0.5078" stop-color="#E7E1D2"/>
<stop offset="0.7297" stop-color="#CCBFA6"/>
</linearGradient>
<linearGradient id="paint1_linear_91_11669" x1="-2.31144" y1="15.2323" x2="22.6257" y2="15.3224" gradientUnits="userSpaceOnUse">
<stop offset="0.1599" stop-color="#BFAB8D"/>
<stop offset="0.5078" stop-color="#E7E1D2"/>
<stop offset="0.7297" stop-color="#CCBFA6"/>
</linearGradient>
<linearGradient id="paint2_linear_91_11669" x1="-4.63326" y1="33.5016" x2="27.927" y2="33.6192" gradientUnits="userSpaceOnUse">
<stop stop-color="#94938C"/>
<stop offset="0.2296" stop-color="#EDEBE1"/>
<stop offset="0.7988" stop-color="#EDEBE1"/>
<stop offset="1" stop-color="#94938C"/>
</linearGradient>
</defs>
</svg>
