<svg width="25" height="54" viewBox="0 0 25 54" fill="none" xmlns="http://www.w3.org/2000/svg">
<path d="M9.49905 50.8797C9.20417 52.7329 10.39 53.2238 11.3201 51.9721C13.1175 49.5527 13.9509 46.0885 14.6713 42.9241C15.0047 41.4588 16.5445 36.2312 15.3622 35.283C14.189 34.3426 10.2676 37.3835 10.3665 40.5174C10.42 42.2173 10.5407 43.9086 10.4613 45.6366C10.3751 47.5143 9.78849 49.0641 9.49905 50.8797Z" fill="url(#paint0_linear_91_11735)"/>
<path d="M21.9703 27.5737C21.9703 27.5737 20.6629 31.169 20.6629 35.0909C20.6629 39.0128 20.9895 43.9156 18.7017 47.5109C16.4139 51.1062 15.7601 52.7403 15.7601 52.7403C15.7601 52.7403 13.7989 55.0281 12.8186 52.4136C12.8186 52.4136 15.1064 44.5693 13.7989 40.6474C12.4915 36.7255 11.184 38.0325 10.8574 38.6862C10.5307 39.3399 5.9546 46.8571 5.30087 48.8183C4.64714 50.7795 3.66678 52.7403 3.01305 52.7403C2.35931 52.7403 1.37894 51.1062 0.725211 48.1646C0.0714803 45.2231 0.725214 41.9549 2.03268 39.667C3.34014 37.3792 4.6476 27.2471 4.6476 25.613C4.64805 23.9784 20.3362 26.92 21.9703 27.5737Z" fill="url(#paint1_linear_91_11735)"/>
<path d="M14.416 17.3052C14.7263 17.2318 15.0475 17.029 15.4204 16.7835C16.433 16.1162 17.4846 15.4724 18.6528 15.148C19.821 14.8237 21.1362 14.8518 22.176 15.4756C22.9073 15.9143 23.4489 16.6093 23.8949 17.3361C24.5926 18.4734 25.1075 19.795 24.9474 21.1197C24.765 22.6304 24.1657 24.118 23.551 25.4981C23.1781 26.3351 22.8673 27.2901 22.1955 27.9452C21.4115 28.7092 20.0936 28.8167 19.0606 28.9614C16.8386 29.2722 14.6075 28.9936 12.4381 28.4787C10.2813 27.9665 8.05247 27.3985 5.95518 26.6844C5.57818 26.556 5.20164 26.4077 4.88589 26.1654C4.00079 25.4854 3.81887 23.9397 3.6061 22.9199C3.28309 21.3697 3.48043 19.7669 4.11466 18.3219C4.93125 16.4614 6.49277 14.8191 8.56602 14.5002C10.05 14.272 11.3674 14.5764 12.3659 15.7265C12.6966 16.1076 12.9598 16.5503 13.3173 16.9083C13.7115 17.303 14.0563 17.3905 14.416 17.3052Z" fill="url(#paint2_linear_91_11735)"/>
<path d="M8.43577 28.5234C8.43577 28.5234 8.32961 30.5591 8.58685 31.9455C8.58685 31.9455 8.79872 32.5158 9.52462 32.5612C10.2505 32.6065 10.6135 32.6519 10.7496 33.1056C10.8857 33.5593 11.5662 33.3324 11.6116 33.1509C11.657 32.9695 11.7931 32.6519 12.0199 32.788C12.2468 32.9241 12.1107 32.1529 12.0199 32.0621C11.9292 31.9714 11.9891 31.765 11.9891 31.765C11.9891 31.765 8.41853 28.7362 8.43577 28.5234Z" fill="#FDFBDC"/>
<path d="M9.66057 36.4647C9.85293 36.6571 9.52447 37.3721 10.5679 37.8258C11.6114 38.2795 11.9562 38.9419 12.7592 38.8148C13.5622 38.6878 14.5149 38.8693 15.0139 38.8693C15.5129 38.8693 16.1481 39.0054 16.4203 38.6424C16.6925 38.2795 17.1462 37.599 16.8286 37.5082C16.511 37.4175 15.7398 36.6916 15.6944 36.5101C15.649 36.3286 15.6944 36.011 15.0593 36.2833C14.4241 36.5555 14.2427 36.8731 13.6982 36.6462C13.1538 36.4194 13.2124 36.0315 12.6389 36.2706C12.065 36.5101 11.4753 36.5555 10.7948 36.2379C10.1142 35.9203 9.02543 35.8296 9.66057 36.4647Z" fill="#FDFBDC"/>
<path d="M17.6087 33.5451C17.4785 33.4053 17.7271 32.9126 17.0072 32.5678C16.2873 32.2235 16.0623 31.7503 15.4966 31.8188C14.9304 31.8873 14.2676 31.7358 13.9179 31.7235C13.5681 31.7108 13.1263 31.5992 12.9262 31.8469C12.7262 32.0946 12.3909 32.5596 12.6114 32.6313C12.8319 32.703 13.3536 33.2316 13.3808 33.3599C13.408 33.4883 13.3681 33.7098 13.8204 33.5351C14.2726 33.3604 14.4078 33.1426 14.7834 33.315C15.1591 33.4879 15.1082 33.7583 15.5165 33.605C15.9248 33.4516 16.3394 33.4348 16.808 33.6748C17.2771 33.9148 18.0379 34.0065 17.6087 33.5451Z" fill="#FDFBDC"/>
<path d="M18.7423 35.2325C18.8811 35.1018 19.3756 35.3473 19.7158 34.6255C20.056 33.9036 20.5274 33.6759 20.4557 33.1101C20.3836 32.5444 20.531 31.8806 20.5419 31.5304C20.5523 31.1806 20.6612 30.7383 20.4126 30.5396C20.164 30.3408 19.6968 30.0083 19.6264 30.2292C19.5561 30.4497 19.0308 30.9751 18.9029 31.0032C18.7745 31.0313 18.5531 30.9928 18.7305 31.4437C18.9079 31.8947 19.1265 32.029 18.956 32.4056C18.7854 32.7821 18.5146 32.7331 18.6702 33.1405C18.8258 33.5479 18.8448 33.9622 18.608 34.4326C18.3712 34.9031 18.2837 35.6644 18.7423 35.2325Z" fill="#FDFBDC"/>
<path d="M4.27273 30.4078C4.28997 30.6346 3.69295 30.9096 4.10804 31.7652C4.52359 32.6209 4.38205 33.2284 4.96047 33.585C5.53888 33.9411 6.04472 34.5745 6.36137 34.8463C6.67802 35.1176 7.00692 35.5495 7.37711 35.4674C7.74729 35.3853 8.4051 35.2002 8.25312 34.9697C8.10115 34.7392 8.00634 33.859 8.0762 33.7193C8.14606 33.5796 8.34748 33.4026 7.79674 33.2298C7.246 33.0569 6.95793 33.1599 6.73564 32.7198C6.51335 32.2797 6.76195 32.0656 6.26746 31.9054C5.77297 31.7453 5.37421 31.4531 5.11517 30.8814C4.85659 30.3089 4.21511 29.6592 4.27273 30.4078Z" fill="#FDFBDC"/>
<path d="M12.3196 33.5799C12.37 33.6788 12.1522 33.9138 12.4988 34.2218C12.8454 34.5294 12.8949 34.8296 13.222 34.8818C13.5491 34.934 13.8948 35.125 14.088 35.1885C14.2813 35.2515 14.5099 35.3849 14.6614 35.2787C14.813 35.1726 15.0747 34.9667 14.9631 34.8914C14.8515 34.8161 14.6451 34.4373 14.6506 34.3615C14.656 34.2853 14.7136 34.1683 14.4332 34.1932C14.1529 34.2182 14.0426 34.318 13.8603 34.1615C13.6784 34.0045 13.75 33.8621 13.4978 33.882C13.2456 33.902 13.0115 33.8448 12.7878 33.6357C12.5642 33.4266 12.1541 33.2538 12.3196 33.5799Z" fill="#FDFBDC"/>
<path d="M13.3329 0.898438H11.9265V21.338C11.1752 21.9314 9.82466 23.2842 8.67189 24.9174C7.50505 26.5706 6.01657 28.9968 6.30102 31.3863C6.54872 33.469 8.10707 35.1748 10.6227 36.3643C10.6227 36.3643 12.2441 37.2095 15.6343 37.4876C16.4677 37.5561 16.9631 37.0753 16.9631 37.0753C16.9631 37.0753 16.0286 36.5 15.9528 36.4429C14.5664 36.3712 13.0235 36.0395 11.3336 35.4493C10.2302 34.9226 7.64705 33.3116 7.66202 31.3491C7.40842 29.2186 8.83611 26.9408 9.91357 25.4146C11.1466 23.668 12.5997 22.2961 13.1038 21.95L13.3333 21.7926V0.898438H13.3329Z" fill="#7F898F"/>
<defs>
<linearGradient id="paint0_linear_91_11735" x1="13.4283" y1="34.9167" x2="13.4041" y2="71.9861" gradientUnits="userSpaceOnUse">
<stop offset="0.1599" stop-color="#BFAB8D"/>
<stop offset="0.5078" stop-color="#E7E1D2"/>
<stop offset="0.7297" stop-color="#CCBFA6"/>
</linearGradient>
<linearGradient id="paint1_linear_91_11735" x1="20.0758" y1="39.3605" x2="3.31774" y2="39.421" gradientUnits="userSpaceOnUse">
<stop stop-color="#BFAB8D"/>
<stop offset="0.5078" stop-color="#E7E1D2"/>
<stop offset="1" stop-color="#CCBFA6"/>
</linearGradient>
<linearGradient id="paint2_linear_91_11735" x1="30.8432" y1="21.698" x2="-1.49774" y2="21.8148" gradientUnits="userSpaceOnUse">
<stop stop-color="#94938C"/>
<stop offset="0.2614" stop-color="#EDEBE1"/>
<stop offset="0.7687" stop-color="#EDEBE1"/>
<stop offset="1" stop-color="#94938C"/>
</linearGradient>
</defs>
</svg>
