<svg width="27" height="57" viewBox="0 0 27 57" fill="none" xmlns="http://www.w3.org/2000/svg">
<path d="M10.7714 51.6279C10.5695 53.585 11.8393 54.03 12.7403 52.6663C14.4829 50.0301 15.1552 46.3559 15.7273 43.002C15.9922 41.4491 17.3024 35.8881 16.0104 34.964C14.7283 34.0472 10.7986 37.4564 11.0822 40.731C11.236 42.5075 11.4601 44.2709 11.4764 46.0842C11.4946 48.0544 10.9697 49.7103 10.7714 51.6279Z" fill="url(#paint0_linear_91_11720)"/>
<path d="M22.4017 28.7732C21.7162 30.7316 21.1636 32.7759 20.8447 34.8264C20.6301 36.2065 20.6619 37.4332 20.8715 38.7992C21.224 41.0948 21.2494 43.4906 21.1505 45.8061C20.9962 49.4178 19.2637 52.1379 17.8786 55.3867C17.3696 56.5803 16.1928 57.2068 15.1253 56.1085C13.7716 54.7157 14.1368 51.7882 14.0828 50.0216C14.0093 47.6035 13.9603 45.1687 13.4767 42.7892C13.2685 41.7648 12.9758 40.7436 12.441 39.8454C11.9093 38.9521 10.9266 38.5166 9.98526 39.1599C8.73178 40.0164 8.44913 41.8928 8.01633 43.2284C7.6103 44.4809 7.24238 45.7458 6.88716 47.0138C6.3854 48.8044 5.92129 50.6064 5.44313 52.4033C5.24487 53.1473 4.59794 54.8949 3.50415 54.1354C3.13486 53.8787 2.9525 53.4341 2.7987 53.0117C2.29377 51.6226 1.89045 50.1994 1.48805 48.7776C0.948636 46.8727 0.452328 44.9732 0.336189 42.9893C0.177858 40.2845 1.24352 37.612 1.76434 34.9938C2.31781 32.2115 2.66351 29.3879 2.79598 26.5543C2.8046 26.3678 2.81912 26.165 2.94478 26.0271C3.11491 25.8411 3.40661 25.8556 3.65659 25.8842C6.72837 26.2362 9.80651 26.5225 12.8751 26.9063C14.9516 27.1644 17.0307 27.4376 19.089 27.8168C19.9964 27.9838 21.699 28.0704 22.4017 28.7732Z" fill="url(#paint1_linear_91_11720)"/>
<path d="M24.7992 24.5312C24.9017 23.3045 24.8736 22.0615 25.1072 20.8497C25.472 18.9584 26.427 17.3107 26.2918 15.3068C25.966 10.4825 19.2241 10.1096 15.8343 11.4457C14.4248 12.001 13.8464 11.4765 12.6614 10.728C11.3775 9.91682 9.86272 9.49219 8.34521 9.49219C6.60993 9.49219 4.69502 9.98578 3.21289 10.8976C1.02033 12.2468 1.02214 14.4603 0.87152 16.7835C0.704571 19.3531 0.764006 22.0002 1.61372 24.4573C1.87367 25.2095 2.218 25.9485 2.75968 26.5314C3.52955 27.3603 4.51038 27.4696 5.55063 27.7091C6.97061 28.0362 8.40646 28.313 9.83777 28.5838C12.6446 29.1151 15.4777 29.5474 18.3336 29.6908C19.6878 29.7588 21.09 29.6213 22.2927 28.9948C24.0348 28.0884 24.645 26.3826 24.7992 24.5312Z" fill="url(#paint2_linear_91_11720)"/>
<path d="M8.56077 28.6016C8.56077 28.6016 8.45462 30.6372 8.71183 32.0237C8.71183 32.0237 8.92368 32.5939 9.64952 32.6393C10.3753 32.6847 10.7383 32.73 10.8744 33.1837C11.0105 33.6374 11.6909 33.4106 11.7363 33.2291C11.7817 33.0476 11.9177 32.73 12.1446 32.8661C12.3714 33.0022 12.2353 32.231 12.1446 32.1403C12.0538 32.0495 12.1137 31.8431 12.1137 31.8431C12.1137 31.8431 8.54353 28.8143 8.56077 28.6016Z" fill="#FDFBDC"/>
<path d="M9.78557 36.5429C9.97792 36.7353 9.64947 37.4504 10.6929 37.9041C11.7363 38.3578 12.0811 39.0202 12.8841 38.8932C13.6871 38.7662 14.6398 38.9477 15.1388 38.9477C15.6378 38.9477 16.273 39.0838 16.5452 38.7208C16.8174 38.3578 17.271 37.6772 16.9535 37.5865C16.6359 37.4957 15.8647 36.7698 15.8193 36.5883C15.7739 36.4068 15.8193 36.0892 15.1842 36.3614C14.549 36.6336 14.3676 36.9513 13.8232 36.7244C13.2788 36.4975 13.3373 36.1096 12.7639 36.3487C12.19 36.5883 11.6002 36.6336 10.9197 36.316C10.2392 35.9984 9.15044 35.9077 9.78557 36.5429Z" fill="#FDFBDC"/>
<path d="M17.7417 33.6232C17.6115 33.4834 17.8601 32.9907 17.1401 32.6459C16.4202 32.3016 16.1951 31.8284 15.6294 31.8969C15.0633 31.9654 14.4005 31.8139 14.0507 31.8016C13.701 31.7889 13.2591 31.6773 13.0591 31.925C12.859 32.1728 12.5237 32.6378 12.7442 32.7094C12.9647 32.7811 13.4864 33.3097 13.5136 33.4381C13.5408 33.5665 13.5009 33.7879 13.9532 33.6132C14.4055 33.4385 14.5407 33.2208 14.9163 33.3932C15.2919 33.566 15.2411 33.8364 15.6494 33.6831C16.0577 33.5297 16.4723 33.5129 16.941 33.7529C17.41 33.9929 18.1708 34.0846 17.7417 33.6232Z" fill="#FDFBDC"/>
<path d="M18.8751 35.3101C19.0139 35.1794 19.5084 35.4249 19.8486 34.7031C20.1889 33.9814 20.6602 33.7536 20.5885 33.188C20.5164 32.6223 20.6638 31.9586 20.6747 31.6084C20.6851 31.2586 20.794 30.8164 20.5454 30.6177C20.2968 30.419 19.8296 30.0864 19.7593 30.3074C19.6889 30.5278 19.1636 31.0531 19.0357 31.0813C18.9073 31.1094 18.6859 31.0708 18.8633 31.5217C19.0407 31.9727 19.2593 32.1069 19.0888 32.4835C18.9182 32.86 18.6474 32.811 18.803 33.2184C18.9586 33.6257 18.9776 34.0399 18.7408 34.5103C18.504 34.9807 18.4165 35.7419 18.8751 35.3101Z" fill="#FDFBDC"/>
<path d="M3.08524 30.439C3.10248 30.6659 2.50544 30.9408 2.92055 31.7964C3.33611 32.6521 3.19457 33.2595 3.773 33.6161C4.35143 33.9723 4.85728 34.6056 5.17394 34.8774C5.4906 35.1487 5.81951 35.5806 6.1897 35.4984C6.5599 35.4163 7.21772 35.2312 7.06574 35.0007C6.91376 34.7703 6.81895 33.8901 6.88882 33.7504C6.95868 33.6107 7.16011 33.4337 6.60935 33.2609C6.05859 33.088 5.77052 33.191 5.54822 32.751C5.32592 32.3109 5.57453 32.0967 5.08003 31.9366C4.58552 31.7764 4.18675 31.4843 3.92771 30.9127C3.66911 30.3401 3.02762 29.6904 3.08524 30.439Z" fill="#FDFBDC"/>
<path d="M12.4446 33.6581C12.495 33.7569 12.2772 33.9919 12.6238 34.2999C12.9704 34.6075 13.0199 34.9078 13.3469 34.9599C13.674 35.0121 14.0197 35.2031 14.2129 35.2666C14.4062 35.3297 14.6348 35.463 14.7863 35.3569C14.9378 35.2507 15.1996 35.0448 15.088 34.9695C14.9764 34.8942 14.77 34.5154 14.7754 34.4396C14.7809 34.3634 14.8385 34.2464 14.5581 34.2714C14.2778 34.2963 14.1676 34.3961 13.9852 34.2396C13.8033 34.0826 13.875 33.9402 13.6227 33.9602C13.3705 33.9801 13.1364 33.923 12.9128 33.7138C12.6891 33.5047 12.2791 33.3319 12.4446 33.6581Z" fill="#FDFBDC"/>
<path d="M13.4656 0.976562H12.0592V21.416C11.308 22.0094 9.95743 23.3622 8.80467 24.9954C7.63785 26.6485 6.14938 29.0747 6.43383 31.4642C6.68153 33.5469 8.23986 35.2527 10.7554 36.4422C10.7554 36.4422 12.3768 37.2874 15.767 37.5655C16.6004 37.634 17.0958 37.1531 17.0958 37.1531C17.0958 37.1531 16.1613 36.5779 16.0855 36.5207C14.6991 36.4491 13.1562 36.1174 11.4663 35.5272C10.363 35.0005 7.77985 33.3895 7.79482 31.427C7.54122 29.2966 8.96889 27.0187 10.0463 25.4926C11.2794 23.746 12.7325 22.3741 13.2365 22.028L13.4661 21.8705V0.976562H13.4656Z" fill="#7F898F"/>
<defs>
<linearGradient id="paint0_linear_91_11720" x1="13.9614" y1="34.6981" x2="16.071" y2="73.5028" gradientUnits="userSpaceOnUse">
<stop offset="0.1599" stop-color="#BFAB8D"/>
<stop offset="0.5078" stop-color="#E7E1D2"/>
<stop offset="0.7297" stop-color="#CCBFA6"/>
</linearGradient>
<linearGradient id="paint1_linear_91_11720" x1="19.875" y1="42.6646" x2="2.38081" y2="39.2604" gradientUnits="userSpaceOnUse">
<stop stop-color="#BFAB8D"/>
<stop offset="0.5078" stop-color="#E7E1D2"/>
<stop offset="1" stop-color="#CCBFA6"/>
</linearGradient>
<linearGradient id="paint2_linear_91_11720" x1="31.1074" y1="22.7575" x2="-1.57655" y2="16.3976" gradientUnits="userSpaceOnUse">
<stop stop-color="#94938C"/>
<stop offset="0.2525" stop-color="#EDEBE1"/>
<stop offset="0.6733" stop-color="#EDEBE1"/>
<stop offset="0.7762" stop-color="#EAE8DF"/>
<stop offset="0.8387" stop-color="#E2E0D7"/>
<stop offset="0.8905" stop-color="#D4D2C9"/>
<stop offset="0.9364" stop-color="#BFBEB5"/>
<stop offset="0.978" stop-color="#A5A49C"/>
<stop offset="1" stop-color="#94938C"/>
</linearGradient>
</defs>
</svg>
