<svg width="29" height="58" viewBox="0 0 29 58" fill="none" xmlns="http://www.w3.org/2000/svg">
<path d="M19.5413 8.1298C20.8542 8.21918 21.8676 8.60434 22.9455 9.34473C23.2372 9.54525 23.5135 9.78706 23.4559 10.0738C23.1873 11.413 13.3121 10.3369 13.4069 9.16235C13.4659 8.46461 16.6773 8.2777 17.3964 8.20012C18.208 8.11257 18.9093 8.08671 19.5413 8.1298Z" fill="#D8D6D0"/>
<path d="M10.1899 8.1298C11.5028 8.21918 12.5163 8.60434 13.5942 9.34473C13.8859 9.54525 14.1622 9.78706 14.1046 10.0738C13.836 11.413 3.96055 10.3369 4.05537 9.16235C4.11434 8.46461 7.32586 8.2777 8.04493 8.20012C8.85654 8.11257 9.55791 8.08671 10.1899 8.1298Z" fill="#D8D6D0"/>
<path d="M9.37061 53.4958C8.69509 55.6598 10.2902 56.5426 11.7719 55.2605C14.6364 52.7817 16.2941 48.8053 17.7522 45.1628C18.4272 43.476 21.3258 37.5448 19.8005 36.1112C18.2871 34.6885 12.3544 37.3973 12.0504 41.2036C11.8853 43.2682 11.8163 45.3388 11.4611 47.4044C11.0746 49.6496 10.0325 51.3758 9.37061 53.4958Z" fill="url(#paint0_linear_91_11714)"/>
<path d="M26.1496 28.2235C25.9618 28.998 25.7953 29.786 25.7585 29.9384C25.4432 31.2463 25.1696 32.5647 24.9501 33.8921C24.7709 34.9768 24.6275 36.0679 24.5209 37.1621C24.4175 38.2228 24.5077 39.3906 24.3059 40.4304C24.1067 41.4552 23.7415 42.5304 23.3962 43.5203C22.3596 46.4932 20.7894 49.2596 18.9248 51.7884C17.9894 53.0568 16.9777 54.2686 15.9097 55.4277C15.2537 56.14 13.8591 58.2486 12.7 57.3726C12.2649 57.0437 12.0903 56.4571 12.1184 55.9122C12.1465 55.3674 12.3461 54.8484 12.5353 54.3366C13.9925 50.3884 15.378 45.4997 14.5587 41.2638C14.4734 40.8223 14.34 40.3664 14.0234 40.0475C13.6082 39.6296 12.9436 39.5357 12.3756 39.6922C11.8076 39.8488 11.3231 40.2203 10.9003 40.6304C9.44898 42.0391 8.41778 44.0193 7.53085 45.8204C6.85941 47.1841 6.36626 48.6372 6.08272 50.1311C5.81142 51.5611 6.04189 53.2605 5.46755 54.6025C5.14589 55.3547 4.42863 55.9993 3.61065 55.9757C2.97415 55.9576 2.41069 55.5479 1.99105 55.0689C0.444928 53.3036 0.148687 50.4909 0.0584058 48.2402C-0.0550124 45.4039 0.348749 42.5776 0.788358 39.7834C1.38675 35.9794 2.15573 32.2013 3.01453 28.4481C3.04765 28.3025 3.51494 25.9348 3.6093 25.9375C3.6093 25.9375 26.4844 26.5722 26.6944 26.5781C26.5774 26.5758 26.351 27.392 26.1496 28.2235Z" fill="url(#paint1_linear_91_11714)"/>
<path d="M24.191 9.00565C25.1441 9.10092 26.0419 9.46794 26.8154 10.2746C27.8121 11.3139 28.3112 12.7557 28.4345 14.1902C28.699 17.2678 28.1723 20.928 27.4034 23.9095C27.1593 24.8559 27.1348 26.8448 26.4851 27.5752C24.4636 29.8476 20.0218 28.742 17.3338 28.5555C14.2552 28.3419 10.9407 28.2398 8.18246 27.5752C6.35645 27.4835 3.00341 27.8878 2.44903 25.4729C1.8139 22.7051 1.42239 19.8746 1.29218 17.0378C1.19419 14.9183 0.884789 9.68117 3.93161 9.27242C4.37756 9.21253 5.1302 9.71519 5.57706 9.81682C6.50934 10.0282 7.41894 9.99964 8.34442 9.75375C9.48267 9.45161 10.5397 8.90721 11.6308 8.46398C11.868 8.3678 12.1148 8.2748 12.3707 8.2816C12.9537 8.29748 13.3819 8.80241 13.8483 9.15264C15.8113 10.628 19.3299 9.86263 21.4971 9.296C22.4067 9.05782 23.3222 8.91855 24.191 9.00565Z" fill="url(#paint2_linear_91_11714)"/>
<path d="M9.51389 27.6406C9.51389 27.6406 9.40773 29.6761 9.66498 31.0624C9.66498 31.0624 9.87686 31.6326 10.6028 31.678C11.3287 31.7233 11.6917 31.7687 11.8278 32.2223C11.9639 32.6759 12.6445 32.4491 12.6898 32.2677C12.7352 32.0862 12.8713 31.7687 13.0982 31.9048C13.325 32.0409 13.1889 31.2697 13.0982 31.179C13.0074 31.0882 13.0673 30.8818 13.0673 30.8818C13.0673 30.8818 9.49665 27.8534 9.51389 27.6406Z" fill="#FDFBDC"/>
<path d="M10.7387 35.5819C10.931 35.7742 10.6026 36.4892 11.646 36.9428C12.6895 37.3965 13.0342 38.0588 13.8372 37.9318C14.6402 37.8048 15.5929 37.9862 16.0919 37.9862C16.591 37.9862 17.2261 38.1223 17.4983 37.7594C17.7705 37.3965 18.2242 36.716 17.9066 36.6253C17.589 36.5346 16.8178 35.8087 16.7724 35.6273C16.7271 35.4458 16.7724 35.1282 16.1373 35.4004C15.5022 35.6726 15.3207 35.9902 14.7763 35.7633C14.2319 35.5365 14.2904 35.1487 13.717 35.3877C13.1431 35.6273 12.5534 35.6726 11.8729 35.3551C11.1924 35.0375 10.1036 34.9468 10.7387 35.5819Z" fill="#FDFBDC"/>
<path d="M18.6948 32.662C18.5646 32.5223 18.8132 32.0297 18.0932 31.6849C17.3733 31.3406 17.1483 30.8675 16.5826 30.936C16.0164 31.0045 15.3536 30.8529 15.0039 30.8407C14.6541 30.828 14.2122 30.7164 14.0122 30.9641C13.8121 31.2118 13.4769 31.6767 13.6973 31.7484C13.9178 31.8201 14.4395 32.3486 14.4667 32.4769C14.494 32.6053 14.454 32.8267 14.9063 32.6521C15.3586 32.4774 15.4938 32.2597 15.8694 32.432C16.245 32.6049 16.1942 32.8752 16.6025 32.7219C17.0108 32.5686 17.4255 32.5518 17.8941 32.7918C18.3632 33.0317 19.1239 33.1234 18.6948 32.662Z" fill="#FDFBDC"/>
<path d="M19.4298 34.564C19.6203 34.5522 19.8431 35.0571 20.5662 34.72C21.2893 34.383 21.7974 34.5095 22.1041 34.0286C22.4107 33.5477 22.9488 33.1317 23.1806 32.8695C23.4124 32.6073 23.7794 32.3369 23.715 32.0252C23.651 31.7136 23.5045 31.1592 23.309 31.2835C23.1139 31.4082 22.374 31.4758 22.2574 31.4155C22.1408 31.3552 21.9952 31.1837 21.8432 31.6437C21.6908 32.1037 21.7734 32.3469 21.4014 32.5274C21.0294 32.708 20.8529 32.497 20.7118 32.9094C20.5707 33.3223 20.3208 33.653 19.8376 33.8626C19.355 34.0727 18.8011 34.6021 19.4298 34.564Z" fill="#FDFBDC"/>
<path d="M4.03836 29.4781C4.0556 29.7049 3.45856 29.9798 3.87367 30.8354C4.28923 31.691 4.14769 32.2985 4.72612 32.655C5.30454 33.0112 5.81039 33.6445 6.12705 33.9162C6.44371 34.1875 6.77262 34.6194 7.14281 34.5373C7.513 34.4552 8.17083 34.2701 8.01885 34.0396C7.86687 33.8092 7.77206 32.929 7.84192 32.7893C7.91178 32.6496 8.11321 32.4727 7.56245 32.2998C7.0117 32.127 6.72362 32.23 6.50133 31.7899C6.27903 31.3499 6.52764 31.1357 6.03314 30.9756C5.53864 30.8154 5.13987 30.5233 4.88082 29.9517C4.62223 29.3792 3.98074 28.7295 4.03836 29.4781Z" fill="#FDFBDC"/>
<path d="M13.3978 32.6971C13.4481 32.796 13.2303 33.031 13.577 33.3391C13.9236 33.6467 13.9731 33.947 14.3002 33.9992C14.6274 34.0514 14.9731 34.2424 15.1664 34.3059C15.3597 34.369 15.5883 34.5023 15.7399 34.3962C15.8914 34.29 16.1532 34.084 16.0416 34.0087C15.93 33.9334 15.7235 33.5546 15.729 33.4788C15.7344 33.4026 15.7921 33.2856 15.5117 33.3105C15.2313 33.3355 15.121 33.4353 14.9386 33.2787C14.7567 33.1218 14.8284 32.9793 14.5761 32.9993C14.3238 33.0193 14.0897 32.9621 13.866 32.7529C13.6423 32.5438 13.2322 32.3709 13.3978 32.6971Z" fill="#FDFBDC"/>
<path d="M14.4187 0.015625H13.0124V20.4552C12.2611 21.0486 10.9106 22.4014 9.7578 24.0346C8.59098 25.6878 7.10251 28.114 7.38696 30.5034C7.63466 32.5862 9.19299 34.292 11.7086 35.4815C11.7086 35.4815 13.3299 36.3267 16.7202 36.6048C17.5535 36.6733 18.049 36.1925 18.049 36.1925C18.049 36.1925 17.1144 35.6172 17.0386 35.56C15.6522 35.4884 14.1093 35.1567 12.4194 34.5665C11.3161 34.0398 8.73298 32.4288 8.74795 30.4662C8.49435 28.3358 9.92202 26.058 10.9995 24.5318C12.2325 22.7852 13.6856 21.4133 14.1896 21.0672L14.4192 20.9097V0.015625H14.4187Z" fill="#7F898F"/>
<defs>
<linearGradient id="paint0_linear_91_11714" x1="17.1322" y1="35.2042" x2="9.37064" y2="79.4964" gradientUnits="userSpaceOnUse">
<stop offset="0.1599" stop-color="#BFAB8D"/>
<stop offset="0.5078" stop-color="#E7E1D2"/>
<stop offset="0.7297" stop-color="#CCBFA6"/>
</linearGradient>
<linearGradient id="paint1_linear_91_11714" x1="24.1075" y1="41.7041" x2="1.58018" y2="41.7855" gradientUnits="userSpaceOnUse">
<stop stop-color="#BFAB8D"/>
<stop offset="0.5078" stop-color="#E7E1D2"/>
<stop offset="1" stop-color="#CCBFA6"/>
</linearGradient>
<linearGradient id="paint2_linear_91_11714" x1="35.6044" y1="18.5688" x2="-3.14931" y2="18.7088" gradientUnits="userSpaceOnUse">
<stop stop-color="#94938C"/>
<stop offset="0.2296" stop-color="#EDEBE1"/>
<stop offset="0.8411" stop-color="#EDEBE1"/>
<stop offset="1" stop-color="#94938C"/>
</linearGradient>
</defs>
</svg>
