<svg width="24" height="58" viewBox="0 0 24 58" fill="none" xmlns="http://www.w3.org/2000/svg">
<path d="M6.79688 38.9688C6.79688 38.9688 9.24626 42.5568 12.9691 40.1134C16.6919 37.67 8.71682 37.2785 6.79688 38.9688Z" fill="#D8D6D0"/>
<path d="M9.75472 3.54654C9.23392 1.80717 7.4356 2.02629 6.8277 3.59417C5.65226 6.62514 6.25563 10.0286 6.85991 13.1158C7.13981 14.5453 7.67967 19.8333 9.69711 20.0057C11.6987 20.1767 15.3588 15.473 13.6939 12.8527C12.7906 11.4313 11.803 10.0535 11.0608 8.5369C10.2533 6.88872 10.2646 5.25143 9.75472 3.54654Z" fill="url(#paint0_linear_91_11665)"/>
<path d="M20.2149 26.8461C20.1496 26.8829 19.9409 26.4165 19.7535 26.4369C19.509 26.4632 19.2041 26.3779 18.9596 26.353C18.1149 26.2677 17.2688 26.1937 16.4222 26.1298C14.0704 25.9524 11.7077 25.8444 9.34866 25.8921C7.70774 25.9252 6.04187 26.0123 4.43271 26.3557C3.43873 26.5676 2.13081 26.8829 1.52289 27.7866C1.52289 27.7866 2.89251 22.2704 1.91168 18.0214C0.931303 13.7723 -0.376168 2.3331 2.23877 2.006C3.88241 1.80049 5.12137 5.62309 5.55009 6.68649C6.68698 9.50649 7.57708 12.5207 8.38325 15.4831C8.40593 15.5657 8.42907 15.6505 8.47942 15.7199C8.92084 16.3306 10.4533 16.5728 11.0449 16.1645C11.5403 15.8225 11.6628 15.1551 11.7436 14.5581C11.8869 13.4988 12.0303 12.4394 12.1736 11.3801C12.5143 8.86318 12.8573 6.32991 12.7965 3.78347C12.7797 3.08437 11.9831 -0.476015 13.6785 0.37189C16.5266 1.79595 18.1507 5.7347 18.9415 8.5615C20.0103 12.3809 20.0498 16.468 20.1972 20.4068C20.2648 22.2124 20.3551 24.0429 20.2376 25.8485C20.2144 26.2015 20.3083 26.7935 20.2149 26.8461Z" fill="url(#paint1_linear_91_11665)"/>
<path d="M19.1179 25.6949C18.2409 25.0875 17.0664 25.0149 16.0479 24.8112C14.5141 24.504 12.9666 24.2482 11.4037 24.1538C7.95812 23.9451 4.16864 24.5771 1.85312 27.3803C1.03698 28.368 0.46309 29.5507 0.175465 30.7983C-0.147999 32.2028 0.112858 33.1102 0.560174 34.4372C0.970288 35.6534 1.50562 36.9704 2.16707 38.0719C2.88432 39.266 4.03163 40.2999 5.47429 40.2791C7.03718 40.2564 8.56468 39.6448 9.60857 38.4598C9.66346 38.3977 9.71971 38.3319 9.79683 38.3006C9.88893 38.2634 9.99281 38.2829 10.089 38.3051C12.1899 38.7865 14.2958 40.1602 16.2339 41.0889C17.1603 41.5325 17.6897 41.6677 18.6279 41.1751C19.7984 40.5603 20.913 39.8045 21.7795 38.806C24.3423 35.8526 23.3656 31.6566 21.4919 28.6111C20.9003 27.6498 20.1677 26.5356 19.2812 25.8179C19.2277 25.7743 19.1732 25.7335 19.1179 25.6949Z" fill="url(#paint2_linear_91_11665)"/>
<path d="M5.41702 25.3559C5.41702 25.3559 5.36438 24.3469 5.49187 23.6596C5.49187 23.6596 5.59668 23.377 5.95692 23.3548C6.31716 23.3325 6.49683 23.3098 6.56398 23.0848C6.63113 22.8598 6.96868 22.9723 6.99136 23.0621C7.01405 23.152 7.0812 23.3094 7.19371 23.2422C7.30623 23.1746 7.23863 23.5571 7.19371 23.602C7.1488 23.6469 7.1783 23.7495 7.1783 23.7495C7.1783 23.7495 5.4084 25.2502 5.41702 25.3559Z" fill="#FDFBDC"/>
<path d="M19.6956 24.3819C19.6956 24.3819 17.7452 22.7926 16.1868 22.3475C16.1868 22.3475 15.5254 21.9247 15.7495 21.7001C15.9736 21.4751 16.8696 21.6933 17.2902 21.2582C17.7107 20.8231 17.6549 20.7555 17.9353 20.8903C18.2157 21.025 19.1684 20.8903 19.1684 20.8903C19.1684 20.8903 19.785 20.7329 19.5608 20.5981C19.3367 20.4634 20.0177 20.4375 20.0177 20.4375C20.0177 20.4375 20.2228 24.1628 19.6956 24.3819Z" fill="#FDFBDC"/>
<path d="M5.95991 20.9684C6.1078 20.8223 5.85512 20.2801 6.65718 19.9358C7.45924 19.5914 7.72417 19.0891 8.3416 19.1853C8.95903 19.2815 9.69123 19.144 10.0746 19.144C10.4579 19.144 10.9465 19.0406 11.1556 19.316C11.3648 19.5914 11.7136 20.1077 11.4696 20.1762C11.2255 20.2452 10.6326 20.7955 10.5976 20.9335C10.5627 21.071 10.5976 21.3119 10.1095 21.1054C9.62136 20.899 9.48164 20.6581 9.06336 20.83C8.64509 21.002 8.69001 21.2964 8.24905 21.115C7.8081 20.9335 7.3549 20.899 6.83138 21.1399C6.30877 21.3813 5.47177 21.4503 5.95991 20.9684Z" fill="#FDFBDC"/>
<path d="M4.25842 24.2134C4.11961 24.0881 3.64646 24.3431 3.29579 23.6417C2.94512 22.9404 2.48058 22.7286 2.53457 22.1697C2.58855 21.6108 2.42706 20.9611 2.40665 20.6168C2.38669 20.2725 2.26828 19.8402 2.50463 19.6378C2.74053 19.4355 3.18556 19.0957 3.25996 19.3112C3.33436 19.5267 3.85922 20.0298 3.98488 20.0538C4.11009 20.0779 4.32466 20.0339 4.16498 20.483C4.0053 20.9316 3.79662 21.0696 3.97263 21.4361C4.1491 21.8027 4.41039 21.7464 4.27067 22.152C4.13095 22.5575 4.1237 22.9658 4.3673 23.4222C4.61091 23.8785 4.71615 24.6257 4.25842 24.2134Z" fill="#FDFBDC"/>
<path d="M14.5774 19.6474C14.582 19.7844 14.9581 19.9096 14.7657 20.4499C14.5734 20.9903 14.6981 21.3451 14.3751 21.5969C14.0521 21.8487 13.7908 22.2615 13.6189 22.4453C13.447 22.629 13.2787 22.9094 13.0514 22.8845C12.8241 22.8595 12.4176 22.7924 12.4934 22.644C12.5692 22.4961 12.5678 21.9621 12.5165 21.8832C12.4653 21.8038 12.3328 21.7112 12.6517 21.5715C12.9706 21.4317 13.1498 21.4739 13.2537 21.1958C13.3576 20.9173 13.1947 20.8056 13.4805 20.6768C13.7663 20.5479 13.9859 20.3465 14.1034 19.9872C14.2209 19.6269 14.5625 19.195 14.5774 19.6474Z" fill="#FDFBDC"/>
<path d="M18.8814 16.6745C18.8864 16.8251 19.2997 16.9626 19.0883 17.556C18.8769 18.1494 19.0143 18.5391 18.6591 18.8154C18.3044 19.0916 18.0173 19.5453 17.8285 19.7472C17.6398 19.949 17.4547 20.2571 17.2048 20.2299C16.9553 20.2026 16.5085 20.1287 16.5919 19.9658C16.6754 19.803 16.6736 19.2168 16.6173 19.1302C16.5611 19.0435 16.4154 18.9415 16.7657 18.7877C17.1159 18.6339 17.3127 18.6806 17.4271 18.3748C17.5414 18.0691 17.3622 17.9461 17.6761 17.8046C17.99 17.6631 18.2314 17.4421 18.3602 17.047C18.4899 16.6519 18.8651 16.1773 18.8814 16.6745Z" fill="#FDFBDC"/>
<path d="M7.62806 23.3977C7.6834 23.2889 7.44389 23.0303 7.82494 22.6915C8.20644 22.3526 8.26087 22.0224 8.62105 21.9648C8.98078 21.9072 9.36138 21.6972 9.57413 21.6273C9.78688 21.5579 10.0387 21.4114 10.2051 21.528C10.3716 21.6445 10.6597 21.8713 10.5372 21.9544C10.4147 22.0374 10.187 22.4538 10.1929 22.5377C10.1988 22.6211 10.2623 22.7504 9.95382 22.7228C9.64535 22.6951 9.52377 22.5853 9.32327 22.7577C9.12276 22.9301 9.20216 23.0875 8.92408 23.0652C8.64601 23.043 8.3888 23.1061 8.14293 23.336C7.89752 23.5665 7.44615 23.757 7.62806 23.3977Z" fill="#FDFBDC"/>
<path d="M10.7156 57.8461H9.30925V37.4064C8.55799 36.813 7.20743 35.4602 6.05467 33.827C4.88785 32.1738 3.39938 29.7476 3.68383 27.3581C3.93153 25.2753 5.48986 23.5695 8.00542 22.38C8.00542 22.38 9.62681 21.5348 13.017 21.2567C13.8504 21.1882 14.3458 21.6691 14.3458 21.6691C14.3458 21.6691 13.4113 22.2443 13.3355 22.3015C11.9491 22.3732 10.4062 22.7048 8.71631 23.295C7.613 23.8217 5.02985 25.4327 5.04482 27.3953C4.79122 29.5257 6.21889 31.8036 7.29634 33.3298C8.5294 35.0764 9.98248 36.4483 10.4865 36.7944L10.7161 36.9519V57.8461H10.7156Z" fill="#7F898F"/>
<defs>
<linearGradient id="paint0_linear_91_11665" x1="12.4291" y1="19.2854" x2="-1.25862" y2="-14.1668" gradientUnits="userSpaceOnUse">
<stop offset="0.1599" stop-color="#BFAB8D"/>
<stop offset="0.5078" stop-color="#E7E1D2"/>
<stop offset="0.7297" stop-color="#CCBFA6"/>
</linearGradient>
<linearGradient id="paint1_linear_91_11665" x1="1.37466" y1="16.2943" x2="19.0636" y2="12.9388" gradientUnits="userSpaceOnUse">
<stop offset="0.1599" stop-color="#BFAB8D"/>
<stop offset="0.5078" stop-color="#E7E1D2"/>
<stop offset="0.7297" stop-color="#CCBFA6"/>
</linearGradient>
<linearGradient id="paint2_linear_91_11665" x1="28.0053" y1="32.7652" x2="-3.77704" y2="32.8459" gradientUnits="userSpaceOnUse">
<stop stop-color="#94938C"/>
<stop offset="0.2296" stop-color="#EDEBE1"/>
<stop offset="0.7988" stop-color="#EDEBE1"/>
<stop offset="1" stop-color="#94938C"/>
</linearGradient>
</defs>
</svg>
