<svg width="20" height="58" viewBox="0 0 20 58" fill="none" xmlns="http://www.w3.org/2000/svg">
<path d="M16.1296 27.7349C15.3266 32.9911 13.9107 38.2433 12.0675 43.2232C10.0414 48.6962 7.50999 54.1697 2.58863 57.5995C2.46932 57.6825 2.34139 57.7687 2.19622 57.776C2.04832 57.7832 1.90904 57.7066 1.79063 57.6176C1.11241 57.1109 0.863348 56.1854 0.933213 55.342C1.00308 54.4982 1.33969 53.7038 1.63367 52.9099C3.42746 48.0675 3.86524 42.7382 4.37652 37.6367C4.70044 34.407 5.46849 30.4483 4.70724 27.2286C3.88974 23.7731 15.6229 27.1207 16.1296 27.7349Z" fill="url(#paint0_linear_91_11709)"/>
<path d="M5.99136 7.7452C6.71816 7.41766 7.47626 7.40996 8.48888 7.65856C8.7629 7.7257 9.05507 7.83003 9.20388 8.06956C9.90073 9.18917 4.18118 11.339 3.49749 10.3995C3.0928 9.84062 4.61853 8.72509 4.93792 8.44791C5.2986 8.13444 5.64158 7.90262 5.99136 7.7452Z" fill="#D8D6D0"/>
<path d="M15.929 7.93187C16.2665 8.03349 16.5233 8.14236 16.6312 8.23717C17.1775 8.71711 17.745 9.22792 17.9895 9.91245C18.0875 10.1869 18.0979 10.5548 17.8484 10.7054C17.764 10.7562 17.6633 10.7716 17.5653 10.7798C16.4208 10.8737 15.0965 10.1297 14.1284 9.59853C13.77 9.40211 12.2289 8.69307 12.2992 8.13555C12.4063 7.29043 14.7023 7.56307 15.929 7.93187Z" fill="#D8D6D0"/>
<path d="M17.9465 10.0423C17.9465 10.0423 20.2343 11.6764 18.9269 15.9254C18.2731 21.8085 16.3119 27.6916 16.3119 27.6916C16.3119 27.6916 15.6582 28.672 11.0825 28.672C6.50685 28.672 5.19939 28.0183 4.54566 26.7108C3.89193 25.4034 2.25781 12.9834 2.25781 12.9834C2.25781 12.9834 2.58445 10.0419 3.89192 9.71524C5.19938 9.3886 6.50685 9.06152 6.83349 9.06152C7.16013 9.06152 10.1017 7.10033 11.4092 7.42742C12.7171 7.75451 15.9858 10.3694 17.9465 10.0423Z" fill="url(#paint1_linear_91_11709)"/>
<path d="M5.65452 28.1406C5.65452 28.1406 5.54837 30.1762 5.80558 31.5626C5.80558 31.5626 6.01743 32.1328 6.74327 32.1782C7.46911 32.2235 7.83203 32.2689 7.96812 32.7225C8.10422 33.1762 8.78469 32.9494 8.83006 32.7679C8.87542 32.5864 9.01152 32.2689 9.23834 32.405C9.46517 32.5411 9.32907 31.7699 9.23834 31.6791C9.14761 31.5884 9.2075 31.382 9.2075 31.382C9.2075 31.382 5.63728 28.3534 5.65452 28.1406Z" fill="#FDFBDC"/>
<path d="M6.87933 36.0741C7.07169 36.2664 6.74322 36.9814 7.78668 37.435C8.83015 37.8887 9.17495 38.551 9.97796 38.424C10.781 38.297 11.7337 38.4784 12.2327 38.4784C12.7318 38.4784 13.3669 38.6145 13.6392 38.2516C13.9114 37.8887 14.365 37.2082 14.0475 37.1175C13.7299 37.0267 12.9586 36.3009 12.9133 36.1194C12.8679 35.938 12.9133 35.6204 12.2781 35.8926C11.643 36.1648 11.4615 36.4824 10.9171 36.2555C10.3727 36.0287 10.4312 35.6408 9.85773 35.8799C9.28382 36.1194 8.69404 36.1648 8.01352 35.8472C7.333 35.5297 6.24417 35.439 6.87933 36.0741Z" fill="#FDFBDC"/>
<path d="M14.8276 33.1624C14.6974 33.0227 14.946 32.5299 14.226 32.1851C13.5061 31.8407 13.2811 31.3675 12.7154 31.436C12.1492 31.5045 11.4864 31.3529 11.1367 31.3407C10.7869 31.328 10.345 31.2164 10.145 31.4641C9.94493 31.7119 9.60968 32.1769 9.83016 32.2486C10.0506 32.3203 10.5723 32.8489 10.5995 32.9773C10.6268 33.1057 10.5868 33.3272 11.0391 33.1525C11.4914 32.9778 11.6266 32.76 12.0022 32.9324C12.3779 33.1053 12.327 33.3757 12.7353 33.2223C13.1436 33.069 13.5583 33.0522 14.0269 33.2922C14.496 33.5322 15.2567 33.6239 14.8276 33.1624Z" fill="#FDFBDC"/>
<path d="M9.53839 33.1893C9.58874 33.2882 9.37099 33.5232 9.71758 33.8313C10.0642 34.1389 10.1136 34.4392 10.4407 34.4914C10.7678 34.5436 11.1134 34.7346 11.3067 34.7981C11.4999 34.8611 11.7286 34.9945 11.8801 34.8883C12.0316 34.7822 12.2933 34.5762 12.1818 34.5009C12.0702 34.4256 11.8637 34.0468 11.8692 33.971C11.8746 33.8948 11.9322 33.7778 11.6519 33.8027C11.3715 33.8277 11.2613 33.9275 11.079 33.7709C10.897 33.614 10.9687 33.4715 10.7165 33.4915C10.4643 33.5114 10.2302 33.4543 10.0065 33.2451C9.78289 33.036 9.37281 32.8631 9.53839 33.1893Z" fill="#FDFBDC"/>
<path d="M10.5517 0.507812H9.14531V20.9472C8.39403 21.5406 7.04345 22.8934 5.89066 24.5266C4.72382 26.1798 3.23532 28.606 3.51977 30.9954C3.76748 33.0782 5.32584 34.784 7.84146 35.9735C7.84146 35.9735 9.46288 36.8187 12.8532 37.0968C13.6866 37.1653 14.182 36.6844 14.182 36.6844C14.182 36.6844 13.2474 36.1092 13.1717 36.052C11.7852 35.9803 10.2423 35.6487 8.55236 35.0584C7.44903 34.5317 4.86582 32.9208 4.88079 30.9582C4.62719 28.8278 6.05489 26.55 7.13236 25.0238C8.36545 23.2772 9.81856 21.9053 10.3226 21.5592L10.5522 21.4018V0.507812H10.5517Z" fill="#7F898F"/>
<defs>
<linearGradient id="paint0_linear_91_11709" x1="12.9013" y1="41.7022" x2="2.5349" y2="41.7397" gradientUnits="userSpaceOnUse">
<stop stop-color="#BFAB8D"/>
<stop offset="0.5078" stop-color="#E7E1D2"/>
<stop offset="1" stop-color="#CCBFA6"/>
</linearGradient>
<linearGradient id="paint1_linear_91_11709" x1="23.9136" y1="17.9854" x2="-0.126629" y2="18.0722" gradientUnits="userSpaceOnUse">
<stop stop-color="#94938C"/>
<stop offset="0.2717" stop-color="#EDEBE1"/>
<stop offset="0.7988" stop-color="#EDEBE1"/>
<stop offset="1" stop-color="#94938C"/>
</linearGradient>
</defs>
</svg>
