<svg width="19" height="59" viewBox="0 0 19 59" fill="none" xmlns="http://www.w3.org/2000/svg">
<path d="M15.5521 27.5088C15.5521 27.5088 9.34222 53.0028 4.11228 57.2514C-1.1172 61.5004 1.49733 53.0023 1.49733 53.0023C1.49733 53.0023 3.45855 37.314 3.45855 34.3724C3.45855 31.4308 2.41874 25.9219 2.41874 25.9219C2.41874 25.9219 12.4912 28.0909 15.5521 27.5088Z" fill="url(#paint0_linear_91_11701)"/>
<path d="M15.8759 8.22747C15.8759 8.22747 19.1441 9.86158 18.1637 14.4373C17.1834 19.013 17.51 21.628 17.51 21.628C17.51 21.628 16.8563 29.4723 11.3003 29.799C5.74379 30.1256 2.14898 26.8574 1.82189 24.8962C1.49525 22.935 1.49524 17.3789 1.16815 16.398C0.84106 15.4172 -0.139308 9.2074 3.12934 8.22702C6.39753 7.24664 8.35872 6.91954 8.35872 6.91954C8.35872 6.91954 11.6274 5.93962 15.8759 8.22747Z" fill="url(#paint1_linear_91_11701)"/>
<path d="M4.07639 28.1328C4.07639 28.1328 3.97024 30.1686 4.22746 31.5551C4.22746 31.5551 4.43931 32.1254 5.16515 32.1707C5.89099 32.2161 6.25391 32.2615 6.39 32.7152C6.52609 33.1689 7.20657 32.942 7.25193 32.7606C7.2973 32.5791 7.43339 32.2615 7.66022 32.3976C7.88704 32.5337 7.75095 31.7624 7.66022 31.6717C7.56949 31.5809 7.62936 31.3745 7.62936 31.3745C7.62936 31.3745 4.05915 28.3456 4.07639 28.1328Z" fill="#FDFBDC"/>
<path d="M5.3012 36.0741C5.49356 36.2664 5.1651 36.9814 6.20856 37.435C7.25202 37.8887 7.59681 38.551 8.39982 38.424C9.20284 38.297 10.1556 38.4785 10.6546 38.4785C11.1537 38.4785 11.7888 38.6145 12.061 38.2516C12.3332 37.8887 12.7869 37.2082 12.4693 37.1175C12.1518 37.0268 11.3805 36.3009 11.3351 36.1194C11.2898 35.938 11.3351 35.6204 10.7 35.8926C10.0648 36.1648 9.88336 36.4824 9.33895 36.2555C8.79453 36.0287 8.85305 35.6408 8.2796 35.8799C7.7057 36.1195 7.11592 36.1648 6.4354 35.8472C5.75488 35.5297 4.66605 35.439 5.3012 36.0741Z" fill="#FDFBDC"/>
<path d="M13.2497 33.1542C13.1195 33.0145 13.3681 32.5219 12.6481 32.1771C11.9281 31.8323 11.7031 31.3596 11.1374 31.4281C10.5712 31.4966 9.90838 31.3451 9.5586 31.3329C9.20882 31.3202 8.76695 31.2086 8.56688 31.4563C8.36681 31.704 8.03155 32.1689 8.25204 32.2406C8.47252 32.3123 8.99424 32.8408 9.02146 32.9691C9.04868 33.0975 9.00876 33.3189 9.46107 33.1443C9.91292 32.9696 10.0486 32.7519 10.4242 32.9242C10.7999 33.0971 10.749 33.3674 11.1574 33.2141C11.5657 33.0608 11.9803 33.044 12.4489 33.284C12.918 33.5239 13.6788 33.6156 13.2497 33.1542Z" fill="#FDFBDC"/>
<path d="M7.95248 33.1815C8.00284 33.2804 7.78508 33.5154 8.13165 33.8235C8.47823 34.1315 8.5277 34.4314 8.85477 34.4836C9.18184 34.5362 9.5275 34.7268 9.72075 34.7903C9.914 34.8533 10.1426 34.9867 10.2937 34.8805C10.4452 34.7744 10.7069 34.5684 10.5953 34.4931C10.4837 34.4178 10.2774 34.039 10.2828 33.9632C10.2882 33.887 10.3459 33.7699 10.0655 33.7949C9.78517 33.8198 9.67492 33.9196 9.49256 33.7631C9.31065 33.6061 9.38234 33.4637 9.13011 33.4837C8.87789 33.5036 8.64382 33.4465 8.42018 33.2373C8.19654 33.0282 7.78691 32.8553 7.95248 33.1815Z" fill="#FDFBDC"/>
<path d="M8.97358 0.507812H7.56719V20.9475C6.81591 21.5409 5.46531 22.8937 4.31253 24.5269C3.14568 26.1801 1.65719 28.6063 1.94164 30.9958C2.18935 33.0786 3.74771 34.7844 6.26332 35.9739C6.26332 35.9739 7.88476 36.8191 11.2751 37.0972C12.1085 37.1658 12.6039 36.6849 12.6039 36.6849C12.6039 36.6849 11.6693 36.1096 11.5935 36.0525C10.2071 35.9808 8.66418 35.6491 6.97425 35.0589C5.87091 34.5322 3.28769 32.9212 3.30266 30.9586C3.04906 28.8282 4.47676 26.5503 5.55424 25.0242C6.78732 23.2775 8.24045 21.9056 8.74448 21.5595L8.97402 21.4021V0.507812H8.97358Z" fill="#7F898F"/>
<defs>
<linearGradient id="paint0_linear_91_11701" x1="2.29267" y1="42.1822" x2="13.8492" y2="42.224" gradientUnits="userSpaceOnUse">
<stop stop-color="#BFAB8D"/>
<stop offset="0.5078" stop-color="#E7E1D2"/>
<stop offset="1" stop-color="#CCBFA6"/>
</linearGradient>
<linearGradient id="paint1_linear_91_11701" x1="-2.37085" y1="18.2205" x2="21.132" y2="18.3054" gradientUnits="userSpaceOnUse">
<stop stop-color="#94938C"/>
<stop offset="0.2296" stop-color="#EDEBE1"/>
<stop offset="0.7988" stop-color="#EDEBE1"/>
<stop offset="1" stop-color="#94938C"/>
</linearGradient>
</defs>
</svg>
