<svg width="19" height="68" viewBox="0 0 19 68" fill="none" xmlns="http://www.w3.org/2000/svg">
<path d="M15.8523 28.3461C13.9474 28.3352 12.013 28.1592 10.1112 28.0059C7.80793 27.8203 4.57377 27.9319 2.47103 26.8304C2.27868 26.7297 2.21561 26.3872 2.03823 26.2656C1.63492 27.6144 1.97834 29.777 2.05728 31.1584C2.28275 35.1075 2.45606 39.0639 2.41614 43.0208C2.39391 45.2047 2.27142 47.3728 2.07407 49.5472C1.80142 52.55 0.786109 55.4806 0.512095 58.5143C0.319741 60.641 0.351048 62.8041 0.765244 64.9046C0.895446 65.5651 1.08509 67.2777 1.65807 67.4356C2.41387 67.6438 3.55438 66.482 3.9341 65.9702C5.19075 64.2776 5.51375 61.9852 6.1566 60.0236C6.87611 57.8279 7.71903 55.6757 8.57963 53.5321C10.2586 49.3516 12.0243 45.1816 13.1063 40.7955C13.7387 38.2328 14.0204 35.6079 14.6138 33.0361C14.9777 31.4605 15.4059 29.9004 15.8523 28.3461Z" fill="url(#paint0_linear_91_11695)"/>
<path d="M18.0535 9.59798C18.0535 9.59798 19.0339 4.36861 16.746 2.73452C14.4581 1.10043 13.4777 1.75415 13.4777 1.75415C12.5314 2.01228 11.5805 2.25409 10.6273 2.48637C9.05853 2.86881 7.36451 3.41683 5.73855 3.37373C5.41281 3.36511 5.08662 3.32882 4.76225 3.36103C2.33919 3.60238 1.9445 6.18281 1.57975 8.07277C1.11201 10.4967 0.78173 12.9528 0.586652 15.4135C0.425598 17.4455 0.347112 19.5005 0.517693 21.5348C0.641091 23.0083 0.846607 24.6913 1.71131 25.9403C2.91943 27.6851 5.13517 28.479 7.11636 28.9354C9.63106 29.5151 12.2741 29.6522 14.8469 29.5451C16.2456 29.4866 16.6367 26.3694 16.7151 25.3805C17.1325 20.1166 17.5758 14.8564 18.0535 9.59798Z" fill="url(#paint1_linear_91_11695)"/>
<path d="M3.95139 27.8984C3.95139 27.8984 3.84524 29.934 4.10246 31.3204C4.10246 31.3204 4.31431 31.8906 5.04014 31.936C5.76597 31.9813 6.12889 32.0267 6.26498 32.4804C6.40107 32.934 7.08154 32.7072 7.12691 32.5257C7.17227 32.3443 7.30836 32.0267 7.53519 32.1628C7.76201 32.2989 7.62592 31.5277 7.53519 31.437C7.44446 31.3462 7.50433 31.1398 7.50433 31.1398C7.50433 31.1398 3.93415 28.1112 3.95139 27.8984Z" fill="#FDFBDC"/>
<path d="M5.17618 35.8319C5.36852 36.0242 5.04009 36.7392 6.08345 37.1929C7.12681 37.6465 7.47157 38.3088 8.2745 38.1818C9.07743 38.0548 10.0301 38.2363 10.5291 38.2363C11.0281 38.2363 11.6632 38.3724 11.9353 38.0094C12.2075 37.6465 12.6612 36.966 12.3436 36.8753C12.0261 36.7846 11.2549 36.0587 11.2095 35.8773C11.1642 35.6958 11.2095 35.3782 10.5744 35.6504C9.93935 35.9226 9.7579 36.2402 9.21353 36.0134C8.66917 35.7865 8.72769 35.3987 8.15429 35.6377C7.58044 35.8773 6.99072 35.9226 6.31027 35.6051C5.62982 35.2875 4.54109 35.1968 5.17618 35.8319Z" fill="#FDFBDC"/>
<path d="M13.1247 32.9198C12.9945 32.7801 13.2431 32.2875 12.5231 31.9427C11.8032 31.5979 11.5781 31.1253 11.0124 31.1938C10.4462 31.2623 9.78339 31.1107 9.43361 31.0985C9.08383 31.0858 8.64195 30.9742 8.44188 31.2219C8.24181 31.4696 7.90655 31.9345 8.12704 32.0062C8.34752 32.0779 8.86925 32.6064 8.89647 32.7348C8.92369 32.8631 8.88376 33.0845 9.33607 32.9099C9.78793 32.7352 9.92358 32.5175 10.2992 32.6899C10.6749 32.8627 10.6241 33.1331 11.0324 32.9797C11.4407 32.8264 11.8553 32.8096 12.324 33.0496C12.7931 33.2895 13.5539 33.3812 13.1247 32.9198Z" fill="#FDFBDC"/>
<path d="M7.82749 32.9471C7.87786 33.046 7.66004 33.281 8.00671 33.5891C8.35339 33.8971 8.40287 34.197 8.73003 34.2492C9.05719 34.3018 9.40294 34.4924 9.59625 34.5559C9.78955 34.619 10.0182 34.7523 10.1693 34.6462C10.3209 34.54 10.5827 34.334 10.4711 34.2587C10.3595 34.1834 10.153 33.8046 10.1585 33.7288C10.1639 33.6526 10.2215 33.5356 9.94111 33.5605C9.66068 33.5855 9.5504 33.6853 9.36799 33.5287C9.18603 33.3718 9.25774 33.2293 9.00545 33.2493C8.75316 33.2693 8.51902 33.2121 8.29532 33.0029C8.07162 32.7938 7.66187 32.6209 7.82749 32.9471Z" fill="#FDFBDC"/>
<path d="M8.84842 0.265625H7.44207V20.7052C6.6908 21.2986 5.34024 22.6514 4.18748 24.2846C3.02066 25.9378 1.5322 28.364 1.81664 30.7534C2.06434 32.8362 3.62267 34.542 6.13823 35.7315C6.13823 35.7315 7.75963 36.5767 11.1499 36.8548C11.9832 36.9233 12.4786 36.4424 12.4786 36.4424C12.4786 36.4424 11.5441 35.8672 11.4683 35.81C10.0819 35.7383 8.53903 35.4067 6.84914 34.8165C5.74583 34.2898 3.16266 32.6788 3.17763 30.7162C2.92404 28.5858 4.35171 26.3079 5.42916 24.7818C6.66222 23.0352 8.11531 21.6633 8.61933 21.3171L8.84887 21.1597V0.265625H8.84842Z" fill="#7F898F"/>
<defs>
<linearGradient id="paint0_linear_91_11695" x1="11.2164" y1="46.8297" x2="2.13472" y2="46.8625" gradientUnits="userSpaceOnUse">
<stop stop-color="#BFAB8D"/>
<stop offset="0.5078" stop-color="#E7E1D2"/>
<stop offset="1" stop-color="#CCBFA6"/>
</linearGradient>
<linearGradient id="paint1_linear_91_11695" x1="22.0685" y1="15.5711" x2="-1.8992" y2="15.6577" gradientUnits="userSpaceOnUse">
<stop stop-color="#94938C"/>
<stop offset="0.2296" stop-color="#EDEBE1"/>
<stop offset="0.7988" stop-color="#EDEBE1"/>
<stop offset="1" stop-color="#94938C"/>
</linearGradient>
</defs>
</svg>
