<svg width="17" height="66" viewBox="0 0 17 66" fill="none" xmlns="http://www.w3.org/2000/svg">
<path d="M14.5101 25.1016C14.5101 25.1016 6.33891 29.0235 4.05102 25.7553C4.14085 28.9668 4.19619 32.1801 4.23838 35.3926C4.31823 41.5012 4.35044 47.6157 4.17215 53.7229C4.10954 55.8679 4.05964 58.0155 3.85458 60.1528C3.75023 61.2416 3.60642 62.3272 3.4009 63.4015C3.30654 63.896 3.02209 64.4785 3.2512 64.9299C3.55607 65.5301 4.34364 65.6662 4.89395 65.3953C5.66838 65.0143 6.17741 64.077 6.56168 63.3534C7.48853 61.6077 8.08647 59.6782 8.62725 57.7855C11.8951 46.3463 14.0065 28.6175 14.5101 25.1016Z" fill="url(#paint0_linear_91_11689)"/>
<path d="M15.7677 2.66452C14.9951 2.26802 13.7915 2.513 12.9449 2.50574C11.3743 2.49258 9.80367 2.49712 8.2335 2.54249C6.47915 2.5933 4.03975 2.39277 2.41742 3.20392C0.859502 3.98287 0.693903 5.92865 0.741085 7.45705C0.927998 13.4949 1.3168 19.8489 3.75212 25.4622C4.4653 27.1058 5.46066 28.7644 7.01857 29.7316C9.43257 31.2305 12.1959 30.3618 13.5719 27.9619C14.6734 26.041 15.0971 23.8267 15.3281 21.6546C15.5027 20.01 15.3934 18.3532 15.51 16.7055C15.6329 14.9689 16.1451 13.2839 16.425 11.5677C16.8674 8.85388 17.4027 6.02211 16.3915 3.36861C16.2613 3.02655 16.0417 2.80516 15.7677 2.66452Z" fill="url(#paint1_linear_91_11689)"/>
<path d="M4.18577 27.7109C4.18577 27.7109 4.0796 29.7467 4.33686 31.1332C4.33686 31.1332 4.54873 31.7035 5.27466 31.7489C6.00059 31.7942 6.36355 31.8396 6.49966 32.2933C6.63577 32.747 7.31633 32.5202 7.3617 32.3387C7.40707 32.1572 7.54318 31.8396 7.77003 31.9757C7.99689 32.1118 7.86078 31.3405 7.77003 31.2498C7.67929 31.1591 7.73917 30.9526 7.73917 30.9526C7.73917 30.9526 4.16853 27.9237 4.18577 27.7109Z" fill="#FDFBDC"/>
<path d="M5.41058 35.6522C5.60295 35.8446 5.27447 36.5595 6.31797 37.0132C7.36146 37.4668 7.70626 38.1292 8.5093 38.0021C9.31234 37.8751 10.2651 38.0566 10.7642 38.0566C11.2632 38.0566 11.8984 38.1927 12.1706 37.8297C12.4428 37.4668 12.8965 36.7863 12.5789 36.6956C12.2614 36.6049 11.4901 35.879 11.4447 35.6976C11.3993 35.5161 11.4447 35.1985 10.8095 35.4707C10.1744 35.7429 9.99288 36.0605 9.44845 35.8337C8.90402 35.6068 8.96254 35.219 8.38907 35.458C7.81515 35.6976 7.22535 35.7429 6.54481 35.4254C5.86427 35.1078 4.77541 35.0171 5.41058 35.6522Z" fill="#FDFBDC"/>
<path d="M13.3591 32.7324C13.2289 32.5926 13.4775 32.1 12.7575 31.7552C12.0375 31.4104 11.8125 30.9378 11.2468 31.0063C10.6806 31.0748 10.0178 30.9232 9.66798 30.911C9.3182 30.8983 8.87633 30.7867 8.67626 31.0344C8.47619 31.2821 8.14093 31.747 8.36141 31.8187C8.5819 31.8904 9.10362 32.4189 9.13084 32.5473C9.15806 32.6756 9.11813 32.897 9.57044 32.7224C10.0223 32.5477 10.158 32.33 10.5336 32.5024C10.9092 32.6752 10.8584 32.9456 11.2667 32.7922C11.675 32.6389 12.0897 32.6221 12.5583 32.8621C13.0274 33.1021 13.7882 33.1937 13.3591 32.7324Z" fill="#FDFBDC"/>
<path d="M8.06967 32.7596C8.12002 32.8585 7.90228 33.0935 8.24882 33.4016C8.59537 33.7096 8.64483 34.0095 8.97187 34.0617C9.29892 34.1143 9.64455 34.3049 9.83778 34.3684C10.031 34.4315 10.2596 34.5648 10.4107 34.4587C10.5622 34.3525 10.8239 34.1465 10.7123 34.0712C10.6007 33.9959 10.3943 33.6171 10.3998 33.5413C10.4052 33.4651 10.4628 33.3481 10.1825 33.373C9.9022 33.398 9.79196 33.4978 9.60961 33.3412C9.42772 33.1843 9.4994 33.0418 9.2472 33.0618C8.995 33.0818 8.76095 33.0246 8.53733 32.8154C8.3137 32.6063 7.9041 32.4334 8.06967 32.7596Z" fill="#FDFBDC"/>
<path d="M9.08312 0.0859375H7.6767V20.5256C6.9254 21.119 5.57477 22.4719 4.42196 24.1051C3.25509 25.7582 1.76656 28.1845 2.05102 30.5739C2.29873 32.6567 3.85713 34.3625 6.3728 35.5521C6.3728 35.5521 7.99428 36.3973 11.3847 36.6754C12.2181 36.7439 12.7135 36.263 12.7135 36.263C12.7135 36.263 11.7789 35.6877 11.7031 35.6306C10.3167 35.5589 8.77372 35.2272 7.08374 34.637C5.98039 34.1103 3.3971 32.4993 3.41207 30.5368C3.15846 28.4063 4.5862 26.1284 5.6637 24.6023C6.89681 22.8557 8.34998 21.4838 8.85402 21.1376L9.08356 20.9802V0.0859375H9.08312Z" fill="#7F898F"/>
<defs>
<linearGradient id="paint0_linear_91_11689" x1="1.87065" y1="45.2878" x2="11.1039" y2="45.3211" gradientUnits="userSpaceOnUse">
<stop stop-color="#BFAB8D"/>
<stop offset="0.5078" stop-color="#E7E1D2"/>
<stop offset="1" stop-color="#CCBFA6"/>
</linearGradient>
<linearGradient id="paint1_linear_91_11689" x1="-2.54684" y1="16.3386" x2="19.7702" y2="16.5163" gradientUnits="userSpaceOnUse">
<stop stop-color="#94938C"/>
<stop offset="0.2296" stop-color="#EDEBE1"/>
<stop offset="0.7988" stop-color="#EDEBE1"/>
<stop offset="1" stop-color="#94938C"/>
</linearGradient>
</defs>
</svg>
