<svg width="16" height="67" viewBox="0 0 16 67" fill="none" xmlns="http://www.w3.org/2000/svg">
<path d="M2.38201 25.6719C2.38155 33.2059 0.846795 40.6859 0.496559 48.2145C0.353652 51.2831 0.117271 54.3508 0.161731 57.4248C0.196664 59.8615 0.0102216 63.9249 1.52957 66C2.17288 66.8765 4.07649 62.9745 4.25842 62.5998C5.39759 60.2539 6.10532 57.7601 6.98544 55.3121C7.95585 52.6123 8.94531 49.8958 9.7406 47.1375C10.8017 43.4574 11.4065 39.6244 12.0825 35.8594C12.1882 35.2696 13.1119 27.688 13.4948 27.6335C13.4911 27.6331 4.34278 28.9396 2.38201 25.6719Z" fill="url(#paint0_linear_103_36982)"/>
<path d="M14.9913 1.63321C14.8425 1.49756 14.5799 1.46898 14.0935 1.42815C13.3495 1.36599 12.5765 1.42044 11.8306 1.4218C8.79061 1.4277 5.7506 1.48758 2.71058 1.48758C2.71058 1.48758 -0.231007 2.14131 0.0956329 3.77543C0.422273 5.40955 1.40309 25.6741 2.38346 26.9811C3.36384 28.2886 5.6517 32.5376 10.5545 31.2301C15.4568 29.9227 14.4764 18.4838 14.4764 18.4834C14.3471 16.4115 14.8679 14.1168 15.009 12.0454C15.2186 8.9704 15.3978 5.86866 15.2218 2.78734C15.1837 2.11228 15.1696 1.79562 14.9913 1.63321Z" fill="url(#paint1_linear_103_36982)"/>
<path d="M2.4592 27.9766C2.4592 27.9766 2.35305 30.0123 2.61027 31.3988C2.61027 31.3988 2.82212 31.9691 3.54796 32.0145C4.27379 32.0599 4.63671 32.1052 4.7728 32.5589C4.9089 33.0126 5.58937 32.7858 5.63473 32.6043C5.6801 32.4228 5.81619 32.1052 6.04301 32.2413C6.26984 32.3775 6.13374 31.6062 6.04301 31.5154C5.95229 31.4247 6.01216 31.2183 6.01216 31.2183C6.01216 31.2183 2.44151 28.1893 2.4592 27.9766Z" fill="#FDFBDC"/>
<path d="M4.55121 35.9178C4.74357 36.1102 4.4151 36.8251 5.4586 37.2788C6.50209 37.7324 6.84689 38.3948 7.64993 38.2677C8.45297 38.1407 9.40574 38.3222 9.9048 38.3222C10.4039 38.3222 11.039 38.4583 11.3113 38.0954C11.5835 37.7324 12.0372 37.052 11.7196 36.9612C11.402 36.8705 10.6307 36.1447 10.5853 35.9632C10.54 35.7817 10.5853 35.4642 9.95017 35.7364C9.315 36.0086 9.13352 36.3261 8.58909 36.0993C8.04465 35.8725 8.10318 35.4846 7.52971 35.7237C6.95578 35.9632 6.36598 36.0086 5.68544 35.691C5.0049 35.3734 3.91603 35.2827 4.55121 35.9178Z" fill="#FDFBDC"/>
<path d="M12.1793 32.9978C12.0491 32.8581 12.2977 32.3655 11.5778 32.0207C10.8578 31.6764 10.6328 31.2032 10.0671 31.2717C9.50087 31.3402 8.83805 31.1887 8.48827 31.1764C8.1385 31.1642 7.69663 31.0522 7.49656 31.2999C7.2965 31.5475 6.96124 32.0125 7.18172 32.0842C7.4022 32.1559 7.92392 32.6844 7.95114 32.8128C7.97836 32.9411 7.93843 33.1625 8.39074 32.9879C8.84305 32.8132 8.97824 32.5955 9.35388 32.7679C9.72951 32.9407 9.67871 33.2111 10.087 33.0577C10.4953 32.9044 10.9099 32.8876 11.3786 33.1276C11.8477 33.3676 12.6085 33.4592 12.1793 32.9978Z" fill="#FDFBDC"/>
<path d="M6.34308 33.0253C6.39343 33.1242 6.17567 33.3592 6.52226 33.6672C6.86885 33.9748 6.91832 34.2751 7.2454 34.3273C7.57248 34.3799 7.91816 34.5705 8.11141 34.634C8.30467 34.6971 8.5333 34.8304 8.68437 34.7243C8.83589 34.6181 9.09764 34.4122 8.98604 34.3369C8.87445 34.2616 8.66805 33.8827 8.67349 33.807C8.67894 33.7307 8.73655 33.6137 8.45619 33.6386C8.17584 33.6636 8.06558 33.7634 7.88321 33.6069C7.7013 33.4499 7.77299 33.3075 7.52076 33.3274C7.26853 33.3474 7.03445 33.2902 6.8108 33.0811C6.5876 32.8719 6.1775 32.6991 6.34308 33.0253Z" fill="#FDFBDC"/>
<path d="M7.36372 0.351562H5.95743V20.791C5.2062 21.3844 3.85572 22.7372 2.70301 24.3704C1.53624 26.0235 0.0478335 28.4497 0.332267 30.8392C0.579955 32.9219 2.13823 34.6277 4.65367 35.8172C4.65367 35.8172 6.27497 36.6624 9.66504 36.9405C10.4984 37.009 10.9938 36.5281 10.9938 36.5281C10.9938 36.5281 10.0593 35.9529 9.9835 35.8957C8.59717 35.8241 7.05434 35.4924 5.36452 34.9022C4.26127 34.3755 1.67822 32.7645 1.69319 30.802C1.43961 28.6716 2.86721 26.3937 3.94461 24.8676C5.17761 23.121 6.63064 21.7491 7.13464 21.4029L7.36418 21.2455V0.351562H7.36372Z" fill="#7F898F"/>
<defs>
<linearGradient id="paint0_linear_103_36982" x1="12.4137" y1="45.8622" x2="-3.89181" y2="45.9211" gradientUnits="userSpaceOnUse">
<stop stop-color="#BFAB8D"/>
<stop offset="0.5078" stop-color="#E7E1D2"/>
<stop offset="1" stop-color="#CCBFA6"/>
</linearGradient>
<linearGradient id="paint1_linear_103_36982" x1="17.6691" y1="16.4138" x2="-1.51114" y2="16.483" gradientUnits="userSpaceOnUse">
<stop stop-color="#94938C"/>
<stop offset="0.2296" stop-color="#EDEBE1"/>
<stop offset="0.7988" stop-color="#EDEBE1"/>
<stop offset="1" stop-color="#94938C"/>
</linearGradient>
</defs>
</svg>
