<svg width="16" height="66" viewBox="0 0 16 66" fill="none" xmlns="http://www.w3.org/2000/svg">
<path d="M12.9874 24.6719C12.9878 32.2059 14.5225 39.6859 14.8728 47.2145C15.0157 50.2831 15.252 53.3508 15.2076 56.4248C15.1726 58.8615 15.3591 62.9249 13.8398 65C13.1965 65.8765 11.293 61.9745 11.111 61.5998C9.9719 59.2539 9.26418 56.7601 8.38408 54.3121C7.41371 51.6123 6.42428 48.8958 5.62902 46.1375C4.56791 42.4574 3.96318 38.6244 3.28723 34.8594C3.18153 34.2696 2.25789 26.688 1.875 26.6335C1.87863 26.6331 11.0271 27.9396 12.9874 24.6719Z" fill="url(#paint0_linear_91_11681)"/>
<path d="M0.380052 0.633206C0.528855 0.497559 0.791529 0.468977 1.27786 0.428146C2.02187 0.365994 2.79492 0.420439 3.54074 0.4218C6.58076 0.427698 9.6208 0.48758 12.6608 0.48758C12.6608 0.48758 15.6024 1.14131 15.2757 2.77543C14.9491 4.40955 13.9683 24.6741 12.9879 25.9811C12.0075 27.2886 9.7197 31.5376 4.81693 30.2301C-0.0853964 28.9227 0.894968 17.4838 0.894968 17.4834C1.02426 15.4115 0.503443 13.1168 0.362353 11.0454C0.152759 7.9704 -0.0264368 4.86866 0.149586 1.78734C0.187694 1.11228 0.202215 0.795619 0.380052 0.633206Z" fill="url(#paint1_linear_91_11681)"/>
<path d="M13.0131 27.6562C13.0131 27.6562 13.1192 29.6918 12.862 31.0782C12.862 31.0782 12.6501 31.6484 11.9242 31.6938C11.1983 31.7391 10.8353 31.7845 10.6992 32.2382C10.5631 32.6918 9.88254 32.465 9.83717 32.2835C9.7918 32.1021 9.65568 31.7845 9.42883 31.9206C9.20198 32.0567 9.33809 31.2855 9.42883 31.1948C9.51957 31.104 9.45969 30.8976 9.45969 30.8976C9.45969 30.8976 13.0303 27.869 13.0131 27.6562Z" fill="#FDFBDC"/>
<path d="M10.9244 35.5975C10.7321 35.7899 11.0605 36.5048 10.0172 36.9585C8.9738 37.4121 8.62905 38.0745 7.82611 37.9474C7.02317 37.8204 6.07053 38.0019 5.57153 38.0019C5.07253 38.0019 4.43744 38.138 4.16526 37.7751C3.89308 37.4121 3.43944 36.7317 3.75699 36.6409C4.07453 36.5502 4.84571 35.8243 4.89108 35.6429C4.93644 35.4614 4.89108 35.1439 5.52617 35.4161C6.16126 35.6882 6.34271 36.0058 6.88707 35.779C7.43144 35.5521 7.37292 35.1643 7.94632 35.4034C8.52017 35.6429 9.10989 35.6882 9.79034 35.3707C10.4708 35.0531 11.5595 34.9624 10.9244 35.5975Z" fill="#FDFBDC"/>
<path d="M3.29077 32.6781C3.42098 32.5383 3.17234 32.0456 3.89238 31.7007C4.61243 31.3559 4.83746 30.8831 5.40325 30.9516C5.96948 31.0201 6.63238 30.8686 6.98219 30.8563C7.332 30.8436 7.77392 30.732 7.97401 30.9797C8.17409 31.2275 8.50939 31.6925 8.28888 31.7642C8.06838 31.8359 7.54661 32.3645 7.51938 32.4929C7.49216 32.6214 7.53209 32.8428 7.07973 32.6681C6.62783 32.4934 6.49217 32.2756 6.1165 32.448C5.74082 32.6209 5.79163 32.8913 5.38329 32.738C4.97494 32.5846 4.56026 32.5678 4.09157 32.8078C3.62243 33.0479 2.86155 33.1395 3.29077 32.6781Z" fill="#FDFBDC"/>
<path d="M9.1305 32.7049C9.08015 32.8038 9.29789 33.0389 8.95134 33.3469C8.60479 33.6549 8.55533 33.9548 8.22829 34.007C7.90125 34.0596 7.55561 34.2502 7.36238 34.3137C7.16915 34.3768 6.94054 34.5101 6.7895 34.404C6.638 34.2978 6.37628 34.0918 6.48786 34.0165C6.59944 33.9412 6.80582 33.5624 6.80037 33.4866C6.79493 33.4104 6.73732 33.2934 7.01765 33.3183C7.29797 33.3433 7.40821 33.4431 7.59055 33.2866C7.77245 33.1296 7.70077 32.9871 7.95297 33.0071C8.20516 33.0271 8.43922 32.9699 8.66284 32.7607C8.88646 32.5516 9.29606 32.3788 9.1305 32.7049Z" fill="#FDFBDC"/>
<path d="M8.11459 0.03125H9.52094V20.4706C10.2722 21.064 11.6228 22.4169 12.7755 24.0501C13.9424 25.7032 15.4308 28.1294 15.1464 30.5189C14.8987 32.6016 13.3403 34.3074 10.8248 35.4969C10.8248 35.4969 9.20338 36.3421 5.81316 36.6202C4.97978 36.6887 4.48438 36.2078 4.48438 36.2078C4.48438 36.2078 5.41892 35.6326 5.49468 35.5754C6.88108 35.5037 8.42398 35.1721 10.1139 34.5819C11.2172 34.0552 13.8004 32.4442 13.7854 30.4817C14.039 28.3513 12.6113 26.0734 11.5339 24.5473C10.3008 22.8007 8.8477 21.4288 8.34368 21.0826L8.11415 20.9252V0.03125H8.11459Z" fill="#7F898F"/>
<defs>
<linearGradient id="paint0_linear_91_11681" x1="2.95611" y1="44.8622" x2="19.261" y2="44.9211" gradientUnits="userSpaceOnUse">
<stop stop-color="#BFAB8D"/>
<stop offset="0.5078" stop-color="#E7E1D2"/>
<stop offset="1" stop-color="#CCBFA6"/>
</linearGradient>
<linearGradient id="paint1_linear_91_11681" x1="-2.17677" y1="15.4142" x2="17.3663" y2="15.4848" gradientUnits="userSpaceOnUse">
<stop stop-color="#94938C"/>
<stop offset="0.2296" stop-color="#EDEBE1"/>
<stop offset="0.7988" stop-color="#EDEBE1"/>
<stop offset="1" stop-color="#94938C"/>
</linearGradient>
</defs>
</svg>
