<svg width="17" height="66" viewBox="0 0 17 66" fill="none" xmlns="http://www.w3.org/2000/svg">
<path d="M3.22656 25.1016C3.22656 25.1016 11.3971 29.0235 13.6849 25.7553C13.595 28.9668 13.5397 32.1801 13.4975 35.3926C13.4177 41.5012 13.3855 47.6157 13.5637 53.7229C13.6264 55.8679 13.6763 58.0155 13.8813 60.1528C13.9856 61.2416 14.1294 62.3272 14.3349 63.4015C14.4298 63.896 14.7137 64.4785 14.4846 64.9299C14.1798 65.5301 13.3923 65.6662 12.842 65.3953C12.0676 65.0143 11.5586 64.077 11.1744 63.3534C10.2476 61.6077 9.6497 59.6782 9.10896 57.7855C5.84091 46.3463 3.73011 28.6175 3.22656 25.1016Z" fill="url(#paint0_linear_91_11686)"/>
<path d="M1.96659 2.66452C2.73919 2.26802 3.94275 2.513 4.78928 2.50574C6.35987 2.49258 7.93046 2.49712 9.5006 2.54249C11.2549 2.5933 13.6943 2.39277 15.3166 3.20392C16.8745 3.98287 17.04 5.92865 16.9929 7.45705C16.806 13.4949 16.4172 19.8489 13.9819 25.4622C13.2687 27.1058 12.2734 28.7644 10.7155 29.7316C8.30155 31.2305 5.53829 30.3618 4.16233 27.9619C3.06083 26.041 2.63711 23.8267 2.40619 21.6546C2.23153 20.01 2.34085 18.3532 2.22426 16.7055C2.10132 14.9689 1.58914 13.2839 1.30922 11.5677C0.866901 8.85388 0.331588 6.02211 1.34281 3.36861C1.47255 3.02655 1.69213 2.80516 1.96659 2.66452Z" fill="url(#paint1_linear_91_11686)"/>
<path d="M13.5829 27.7109C13.5829 27.7109 13.6891 29.7467 13.4319 31.1332C13.4319 31.1332 13.22 31.7035 12.4942 31.7489C11.7684 31.7942 11.4054 31.8396 11.2693 32.2933C11.1332 32.747 10.4528 32.5202 10.4074 32.3387C10.362 32.1572 10.226 31.8396 9.99913 31.9757C9.77231 32.1118 9.9084 31.3405 9.99913 31.2498C10.0899 31.1591 10.03 30.9526 10.03 30.9526C10.03 30.9526 13.6006 27.9237 13.5829 27.7109Z" fill="#FDFBDC"/>
<path d="M12.3629 35.6522C12.1705 35.8446 12.499 36.5595 11.4555 37.0132C10.412 37.4668 10.0672 38.1292 9.26414 38.0021C8.4611 37.8751 7.50834 38.0566 7.00927 38.0566C6.51021 38.0566 5.87504 38.1927 5.60282 37.8297C5.33061 37.4668 4.87691 36.7863 5.1945 36.6956C5.51209 36.6049 6.28336 35.879 6.32873 35.6976C6.3741 35.5161 6.32873 35.1985 6.9639 35.4707C7.59908 35.7429 7.78055 36.0605 8.32498 35.8337C8.86942 35.6068 8.81089 35.219 9.38436 35.458C9.95829 35.6976 10.5481 35.7429 11.2286 35.4254C11.9092 35.1078 12.998 35.0171 12.3629 35.6522Z" fill="#FDFBDC"/>
<path d="M4.40794 32.7322C4.53814 32.5925 4.28954 32.0998 5.00951 31.7551C5.72949 31.4107 5.9545 30.9376 6.52022 31.0061C7.0864 31.0746 7.74922 30.9231 8.099 30.9108C8.44878 30.8986 8.89065 30.7865 9.09071 31.0342C9.29078 31.2819 9.62604 31.7469 9.40556 31.8186C9.18507 31.8902 8.66336 32.4187 8.63614 32.5471C8.60892 32.6755 8.64884 32.8969 8.19654 32.7223C7.74423 32.5476 7.60904 32.3298 7.2334 32.5022C6.85776 32.6751 6.90856 32.9454 6.50026 32.7921C6.09196 32.6388 5.67732 32.622 5.20868 32.862C4.73959 33.1019 3.97877 33.1936 4.40794 32.7322Z" fill="#FDFBDC"/>
<path d="M9.70156 32.7596C9.6512 32.8585 9.869 33.0935 9.52235 33.4016C9.17571 33.7092 9.12623 34.0095 8.7991 34.0617C8.47197 34.1143 8.12624 34.3049 7.93295 34.3684C7.73966 34.4315 7.51099 34.5648 7.3599 34.4587C7.20836 34.3525 6.94656 34.1465 7.05818 34.0712C7.1698 33.9959 7.37622 33.6171 7.37078 33.5413C7.36534 33.4651 7.30771 33.3481 7.58812 33.373C7.86852 33.398 7.97879 33.4978 8.16118 33.3412C8.34313 33.1843 8.27143 33.0418 8.5237 33.0618C8.77597 33.0818 9.01008 33.0246 9.23377 32.8154C9.457 32.6063 9.86717 32.4334 9.70156 32.7596Z" fill="#FDFBDC"/>
<path d="M8.68505 0.0859375H10.0915V20.5256C10.8428 21.119 12.1934 22.4719 13.3462 24.1051C14.513 25.7582 16.0016 28.1845 15.7171 30.5739C15.4694 32.6567 13.911 34.3625 11.3953 35.5521C11.3953 35.5521 9.77388 36.3973 6.38352 36.6754C5.55011 36.7439 5.05469 36.263 5.05469 36.263C5.05469 36.263 5.98927 35.6877 6.06504 35.6306C7.45149 35.5589 8.99445 35.2272 10.6844 34.637C11.7878 34.1103 14.371 32.4993 14.3561 30.5368C14.6097 28.4063 13.1819 26.1284 12.1044 24.6023C10.8713 22.8557 9.41819 21.4838 8.91415 21.1376L8.68458 20.9802V0.0859375H8.68505Z" fill="#7F898F"/>
<defs>
<linearGradient id="paint0_linear_91_11686" x1="15.8648" y1="45.2878" x2="6.63223" y2="45.3211" gradientUnits="userSpaceOnUse">
<stop stop-color="#BFAB8D"/>
<stop offset="0.5078" stop-color="#E7E1D2"/>
<stop offset="1" stop-color="#CCBFA6"/>
</linearGradient>
<linearGradient id="paint1_linear_91_11686" x1="19.7132" y1="16.4041" x2="-2.47969" y2="16.4842" gradientUnits="userSpaceOnUse">
<stop stop-color="#94938C"/>
<stop offset="0.2296" stop-color="#EDEBE1"/>
<stop offset="0.7988" stop-color="#EDEBE1"/>
<stop offset="1" stop-color="#94938C"/>
</linearGradient>
</defs>
</svg>
