<svg width="19" height="69" viewBox="0 0 19 69" fill="none" xmlns="http://www.w3.org/2000/svg">
<path d="M3.13281 29.3403C5.03778 29.3303 6.97225 29.1547 8.87404 29.0023C11.1773 28.8176 14.4116 28.9306 16.5148 27.83C16.7071 27.7293 16.7707 27.3868 16.9476 27.2656C17.35 28.6148 17.0057 30.777 16.9263 32.1584C16.699 36.1076 16.5243 40.0641 16.5624 44.0205C16.5837 46.2045 16.7053 48.373 16.9018 50.5474C17.1731 53.5503 18.187 56.4819 18.4601 59.5156C18.6516 61.6428 18.6194 63.8055 18.2042 65.9059C18.0736 66.5665 17.8835 68.2791 17.3105 68.437C16.5547 68.6447 15.4146 67.4824 15.0349 66.9703C13.7791 65.2772 13.457 62.9848 12.8146 61.0227C12.096 58.8269 11.254 56.6738 10.3943 54.5302C8.71706 50.3487 6.95318 46.1782 5.87299 41.7916C5.24193 39.2289 4.96112 36.6035 4.36863 34.0312C4.00614 32.4551 3.57832 30.8945 3.13281 29.3403Z" fill="url(#paint0_linear_91_11692)"/>
<path d="M0.942289 10.5887C0.942289 10.5887 -0.0362781 5.35882 2.25253 3.72562C4.54134 2.09242 5.52127 2.74661 5.52127 2.74661C6.46765 3.0052 7.41855 3.24746 8.37127 3.48019C9.94009 3.86309 11.6337 4.41202 13.2597 4.36983C13.5854 4.36121 13.912 4.32492 14.236 4.35759C16.6591 4.59985 17.0524 7.1803 17.4163 9.07074C17.8831 11.4947 18.212 13.9513 18.4062 16.412C18.5664 18.444 18.6439 20.4991 18.4729 22.5333C18.349 24.0068 18.1426 25.6899 17.2774 26.9384C16.0688 28.6828 13.8526 29.4753 11.871 29.9313C9.35576 30.5102 6.71263 30.6463 4.14028 30.5378C2.74159 30.4784 2.35187 27.3617 2.27384 26.3727C1.85918 21.1075 1.41774 15.8472 0.942289 10.5887Z" fill="url(#paint1_linear_91_11692)"/>
<path d="M14.7626 28.5312C14.7626 28.5312 14.8688 30.5668 14.6116 31.9532C14.6116 31.9532 14.3997 32.5234 13.6739 32.5688C12.948 32.6141 12.5851 32.6595 12.449 33.1132C12.3129 33.5668 11.6325 33.34 11.5871 33.1585C11.5417 32.9771 11.4056 32.6595 11.1788 32.7956C10.952 32.9317 11.0881 32.1605 11.1788 32.0698C11.2695 31.979 11.2097 31.7726 11.2097 31.7726C11.2097 31.7726 14.7799 28.744 14.7626 28.5312Z" fill="#FDFBDC"/>
<path d="M13.5425 36.4725C13.3502 36.6649 13.6787 37.3798 12.6352 37.8335C11.5917 38.2871 11.2469 38.9494 10.4438 38.8224C9.64079 38.6954 8.68802 38.8769 8.18896 38.8769C7.6899 38.8769 7.05473 39.013 6.78251 38.65C6.5103 38.2871 6.0566 37.6066 6.37419 37.5159C6.69177 37.4252 7.46305 36.6993 7.50842 36.5179C7.55379 36.3364 7.50842 36.0189 8.14359 36.2911C8.77876 36.5632 8.96024 36.8808 9.50467 36.654C10.0491 36.4271 9.99058 36.0393 10.5641 36.2784C11.138 36.5179 11.7278 36.5632 12.4083 36.2457C13.0889 35.9281 14.1777 35.8374 13.5425 36.4725Z" fill="#FDFBDC"/>
<path d="M5.58763 33.5526C5.71783 33.4129 5.46921 32.9203 6.18919 32.5755C6.90918 32.2308 7.13419 31.7581 7.69992 31.8266C8.26611 31.8951 8.92894 31.7436 9.27873 31.7313C9.62851 31.7186 10.0704 31.607 10.2705 31.8547C10.4705 32.1024 10.8058 32.5673 10.5853 32.639C10.3648 32.7107 9.84309 33.2392 9.81587 33.3676C9.78865 33.4959 9.82858 33.7173 9.37626 33.5427C8.9244 33.368 8.78876 33.1503 8.41311 33.3227C8.03747 33.4955 8.08827 33.7659 7.67996 33.6125C7.27166 33.4592 6.85701 33.4424 6.38836 33.6824C5.91926 33.9224 5.15845 34.014 5.58763 33.5526Z" fill="#FDFBDC"/>
<path d="M10.881 33.5799C10.8307 33.6789 11.0484 33.9139 10.7018 34.2219C10.3552 34.53 10.3057 34.8298 9.97863 34.882C9.65152 34.9346 9.30582 35.1252 9.11256 35.1887C8.91929 35.2518 8.69064 35.3851 8.53956 35.279C8.38803 35.1728 8.12626 34.9669 8.23787 34.8916C8.34947 34.8162 8.55588 34.4374 8.55044 34.3616C8.54499 34.2854 8.48738 34.1684 8.76775 34.1933C9.04813 34.2183 9.15839 34.3181 9.34077 34.1616C9.5227 34.0046 9.451 33.8621 9.70325 33.8821C9.9555 33.9021 10.1896 33.8449 10.4133 33.6358C10.6369 33.4266 11.0466 33.2538 10.881 33.5799Z" fill="#FDFBDC"/>
<path d="M9.86459 0.90625H11.2709V21.3459C12.0222 21.9393 13.3728 23.2922 14.5255 24.9254C15.6924 26.5786 17.1808 29.0048 16.8964 31.3943C16.6487 33.4771 15.0903 35.1829 12.5748 36.3724C12.5748 36.3724 10.9534 37.2176 7.56316 37.4957C6.72978 37.5642 6.23438 37.0833 6.23438 37.0833C6.23438 37.0833 7.16892 36.5081 7.24468 36.4509C8.63108 36.3792 10.174 36.0476 11.8639 35.4573C12.9672 34.9306 15.5504 33.3196 15.5354 31.3571C15.789 29.2266 14.3613 26.9487 13.2839 25.4226C12.0508 23.676 10.5977 22.3041 10.0937 21.9579L9.86415 21.8005V0.90625H9.86459Z" fill="#7F898F"/>
<defs>
<linearGradient id="paint0_linear_91_11692" x1="7.76105" y1="47.826" x2="16.8429" y2="47.8626" gradientUnits="userSpaceOnUse">
<stop stop-color="#BFAB8D"/>
<stop offset="0.5078" stop-color="#E7E1D2"/>
<stop offset="1" stop-color="#CCBFA6"/>
</linearGradient>
<linearGradient id="paint1_linear_91_11692" x1="-3.72926" y1="16.5576" x2="22.599" y2="16.6637" gradientUnits="userSpaceOnUse">
<stop stop-color="#94938C"/>
<stop offset="0.2296" stop-color="#EDEBE1"/>
<stop offset="0.7988" stop-color="#EDEBE1"/>
<stop offset="1" stop-color="#94938C"/>
</linearGradient>
</defs>
</svg>
