<svg width="20" height="59" viewBox="0 0 20 59" fill="none" xmlns="http://www.w3.org/2000/svg">
<path d="M4 28.7349C4.80301 33.9911 6.21894 39.2433 8.06224 44.2232C10.0884 49.6962 12.6199 55.1697 17.5414 58.5995C17.6607 58.6825 17.7887 58.7687 17.9338 58.776C18.0817 58.7832 18.221 58.7066 18.3394 58.6176C19.0177 58.1109 19.2668 57.1854 19.1969 56.342C19.127 55.4982 18.7904 54.7038 18.4964 53.9099C16.7026 49.0675 16.2648 43.7382 15.7535 38.6367C15.4295 35.407 14.6615 31.4483 15.4227 28.2286C16.2407 24.7731 4.50676 28.1207 4 28.7349Z" fill="url(#paint0_linear_91_11704)"/>
<path d="M14.1385 8.7452C13.4117 8.41766 12.6536 8.40996 11.641 8.65856C11.367 8.7257 11.0748 8.83003 10.926 9.06956C10.2287 10.1892 15.9487 12.339 16.632 11.3995C17.0367 10.8406 15.5109 9.72509 15.1915 9.44791C14.8313 9.13444 14.4883 8.90262 14.1385 8.7452Z" fill="#D8D6D0"/>
<path d="M4.2031 8.93187C3.86559 9.03349 3.60883 9.14236 3.50086 9.23717C2.95467 9.71711 2.38717 10.2279 2.14265 10.9125C2.04467 11.1869 2.03423 11.5548 2.28373 11.7054C2.36811 11.7562 2.46883 11.7716 2.56682 11.7798C3.71136 11.8737 5.03554 11.1297 6.00361 10.5985C6.36199 10.4021 7.90304 9.69307 7.83272 9.13555C7.72566 8.29043 5.43021 8.56307 4.2031 8.93187Z" fill="#D8D6D0"/>
<path d="M2.1886 11.0423C2.1886 11.0423 -0.0991971 12.6764 1.20825 16.9254C1.86197 22.8085 3.82315 28.6916 3.82315 28.6916C3.82315 28.6916 4.47687 29.672 9.05249 29.672C13.6281 29.672 14.9355 29.0183 15.5893 27.7108C16.243 26.4034 17.8771 13.9834 17.8771 13.9834C17.8771 13.9834 17.5504 11.0419 16.243 10.7152C14.9355 10.3886 13.6281 10.0615 13.3014 10.0615C12.9748 10.0615 10.0333 8.10033 8.72584 8.42742C7.41794 8.75451 4.14977 11.3694 2.1886 11.0423Z" fill="url(#paint1_linear_91_11704)"/>
<path d="M14.3329 28.2734C14.3329 28.2734 14.4391 30.309 14.1819 31.6954C14.1819 31.6954 13.97 32.2656 13.2442 32.311C12.5184 32.3563 12.1554 32.4017 12.0193 32.8553C11.8832 33.309 11.2028 33.0822 11.1574 32.9007C11.112 32.7192 10.976 32.4017 10.7491 32.5378C10.5223 32.6739 10.6584 31.9027 10.7491 31.8119C10.8399 31.7212 10.78 31.5148 10.78 31.5148C10.78 31.5148 14.3502 28.4862 14.3329 28.2734Z" fill="#FDFBDC"/>
<path d="M13.1046 36.2147C12.9122 36.407 13.2407 37.122 12.1973 37.5756C11.1538 38.0293 10.8091 38.6916 10.0061 38.5646C9.20308 38.4376 8.25038 38.619 7.75134 38.619C7.25231 38.619 6.61718 38.7551 6.34498 38.3922C6.07278 38.0293 5.61911 37.3488 5.93668 37.2581C6.25425 37.1674 7.02548 36.4415 7.07084 36.2601C7.11621 36.0786 7.07084 35.761 7.70598 36.0332C8.34111 36.3054 8.52258 36.623 9.06697 36.3962C9.61137 36.1693 9.55285 35.7815 10.1263 36.0205C10.7002 36.2601 11.2899 36.3054 11.9704 35.9879C12.6509 35.6703 13.7397 35.5796 13.1046 36.2147Z" fill="#FDFBDC"/>
<path d="M5.15794 33.2949C5.28815 33.1551 5.03952 32.6625 5.7595 32.3177C6.47948 31.9729 6.70449 31.5003 7.27022 31.5688C7.83641 31.6373 8.49924 31.4857 8.84902 31.4735C9.1988 31.4608 9.64067 31.3492 9.84074 31.5969C10.0408 31.8446 10.3761 32.3095 10.1556 32.3812C9.9351 32.4529 9.41338 32.9814 9.38616 33.1098C9.35894 33.2381 9.39887 33.4595 8.94655 33.2849C8.4947 33.1102 8.35905 32.8925 7.98341 33.0649C7.60777 33.2377 7.65857 33.5081 7.25026 33.3547C6.84196 33.2014 6.42731 33.1846 5.95867 33.4246C5.48957 33.6646 4.72877 33.7562 5.15794 33.2949Z" fill="#FDFBDC"/>
<path d="M10.4508 33.3299C10.4005 33.4289 10.6182 33.6639 10.2717 33.9719C9.92511 34.28 9.87564 34.5798 9.5486 34.632C9.22156 34.6846 8.87593 34.8752 8.6827 34.9387C8.48946 35.0018 8.26086 35.1351 8.10981 35.029C7.95831 34.9228 7.69659 34.7169 7.80817 34.6416C7.91976 34.5662 8.12613 34.1874 8.12068 34.1116C8.11524 34.0354 8.05764 33.9184 8.33796 33.9433C8.61828 33.9683 8.72852 34.0681 8.91087 33.9116C9.09276 33.7546 9.02108 33.6121 9.27328 33.6321C9.52548 33.6521 9.75953 33.5949 9.98315 33.3858C10.2068 33.1766 10.6164 33.0038 10.4508 33.3299Z" fill="#FDFBDC"/>
<path d="M9.4349 0.648438H10.8413V21.088C11.5925 21.6814 12.9431 23.0342 14.0958 24.6674C15.2627 26.3206 16.7511 28.7468 16.4667 31.1362C16.219 33.219 14.6607 34.9248 12.1451 36.1143C12.1451 36.1143 10.5237 36.9595 7.13347 37.2376C6.30009 37.3061 5.80469 36.8252 5.80469 36.8252C5.80469 36.8252 6.73923 36.25 6.815 36.1928C8.20139 36.1212 9.74429 35.7895 11.4342 35.1993C12.5375 34.6726 15.1207 33.0616 15.1057 31.099C15.3593 28.9686 13.9316 26.6908 12.8542 25.1646C11.6211 23.418 10.168 22.0461 9.66399 21.7L9.43446 21.5425V0.648438H9.4349Z" fill="#7F898F"/>
<defs>
<linearGradient id="paint0_linear_91_11704" x1="7.22858" y1="42.7022" x2="17.5953" y2="42.7397" gradientUnits="userSpaceOnUse">
<stop stop-color="#BFAB8D"/>
<stop offset="0.5078" stop-color="#E7E1D2"/>
<stop offset="1" stop-color="#CCBFA6"/>
</linearGradient>
<linearGradient id="paint1_linear_91_11704" x1="-2.8293" y1="18.9888" x2="21.3023" y2="19.076" gradientUnits="userSpaceOnUse">
<stop stop-color="#94938C"/>
<stop offset="0.2296" stop-color="#EDEBE1"/>
<stop offset="0.7988" stop-color="#EDEBE1"/>
<stop offset="1" stop-color="#94938C"/>
</linearGradient>
</defs>
</svg>
