<svg width="26" height="63" viewBox="0 0 26 63" fill="none" xmlns="http://www.w3.org/2000/svg">
<path d="M10.7339 2.26306C10.7339 2.26306 9.82792 0.208858 7.99376 0.723317C6.15959 1.23778 5.52583 6.03168 5.85792 9.56575C6.18954 13.0998 7.76149 24.3127 10.464 24.5436C13.1664 24.7745 18.1087 18.4236 15.8603 14.8855C13.6115 11.3478 9.89144 5.1375 10.7339 2.26306Z" fill="url(#paint0_linear_91_11656)"/>
<path d="M22.5573 32.7136C19.3586 32.4832 15.7288 30.9194 12.5241 30.7928C10.5139 30.7134 8.50284 30.5805 6.49038 30.6449C5.55992 30.6744 4.1758 33.155 3.27391 33.0403C2.68869 32.9658 3.07475 30.5623 3.09879 29.9404C3.11921 29.4109 3.16412 28.8838 3.08654 28.3562C2.80799 26.4544 1.76184 24.6488 1.32678 22.747C0.823211 20.5472 0.482965 18.3047 0.273826 16.0582C0.0519844 13.6751 -0.0414739 11.2407 0.270193 8.86077C0.404478 7.83458 0.587768 6.79251 0.995158 5.83482C1.31227 5.08945 2.08122 3.62638 3.06386 3.73843C3.42452 3.77972 3.74753 3.98477 4.01746 4.22839C4.54643 4.7061 4.9148 5.34213 5.15842 6.0122C5.66063 7.39452 5.64975 8.88301 5.74638 10.3311C5.84619 11.8241 6.25311 13.2069 6.58792 14.6559C7.20944 17.3484 7.94347 20.5173 9.70731 22.7243C10.1365 23.2615 10.7816 23.6961 11.4662 23.6312C11.8173 23.5977 12.1453 23.4361 12.432 23.2306C13.465 22.4898 13.9904 21.2114 14.1696 19.9529C14.5366 17.3743 14.2603 14.5298 13.5712 12.0301C13.167 10.5629 12.4202 9.2491 11.9638 7.81461C11.4816 6.29801 10.8274 3.2893 12.9655 2.71178C13.8284 2.4786 14.7471 2.91956 15.3922 3.53836C17.7839 5.83164 19.3994 9.24094 20.7826 12.197C21.631 14.0094 22.4498 15.8831 22.972 17.8202C23.2859 18.9848 23.2524 20.1453 23.2192 21.3479C23.1258 24.7096 22.9307 29.3801 22.5573 32.7136Z" fill="url(#paint1_linear_91_11656)"/>
<path d="M3.61473 34.8849C3.34253 34.968 2.95238 35.7074 2.80131 35.9202C2.20292 36.7645 1.68484 37.6732 1.29695 38.634C0.251705 41.2231 0.403231 44.0626 2.36398 46.1835C2.38712 46.2085 2.4107 46.2334 2.43383 46.2584C2.53954 46.3695 2.64979 46.478 2.73598 46.6045C2.97779 46.9598 3.0354 47.4043 3.2645 47.7691C3.4809 48.1134 3.79892 48.4355 4.10696 48.6955C4.83237 49.3079 5.79869 49.7335 6.76364 49.6382C7.09527 49.6055 7.41147 49.4876 7.72314 49.3705C9.07642 48.8624 10.5459 48.2831 11.2636 46.9393C11.1819 47.0927 11.5544 47.7165 11.6483 47.8435C11.8733 48.1493 12.1491 48.2822 12.4971 48.4165C13.6462 48.8606 14.897 49.2172 15.9985 49.768C16.7597 50.061 17.4021 50.3396 18.1765 50.0855C18.6275 49.9376 19.0843 49.8079 19.5303 49.6446C20.365 49.3392 21.7537 48.8048 21.7537 47.7219C21.7537 46.0474 23.1492 41.0244 19.8002 36.0014C16.453 30.9802 3.62562 34.8818 3.61473 34.8849Z" fill="#D8D6D0"/>
<path d="M3.59803 30.7499C3.27911 30.847 2.82181 31.7135 2.64534 31.9626C1.94442 32.9516 1.33787 34.0159 0.883296 35.141C-0.341147 38.1738 -0.163309 41.4996 2.13269 43.983C2.15991 44.0121 2.18759 44.0416 2.21481 44.0706C2.33866 44.2008 2.4675 44.3278 2.56867 44.4762C2.85221 44.8926 2.91935 45.413 3.18746 45.8404C3.44061 46.2432 3.81307 46.6207 4.17419 46.9255C5.0239 47.6428 6.1558 48.1409 7.28543 48.0298C7.67377 47.9917 8.04396 47.8533 8.40916 47.7163C9.99427 47.1215 11.7155 46.4424 12.5561 44.8686C12.4604 45.0478 12.8968 45.7787 13.0066 45.9279C13.2702 46.2859 13.5936 46.4415 14.0006 46.5989C15.3466 47.1193 16.8115 47.5366 18.1017 48.1817C18.9932 48.5252 19.7453 48.8514 20.6527 48.5538C21.1807 48.3805 21.7161 48.2285 22.2382 48.0375C23.2159 47.68 24.8427 47.0539 24.8427 45.7855C24.8427 43.8242 26.4768 37.9411 22.5549 32.0579C18.6343 26.1765 3.61028 30.7463 3.59803 30.7499Z" fill="url(#paint2_linear_91_11656)"/>
<path d="M6.87014 30.4885C6.87014 30.4885 6.81751 29.4796 6.945 28.7924C6.945 28.7924 7.0498 28.5098 7.41004 28.4875C7.77028 28.4653 7.94995 28.4426 8.01709 28.2176C8.08424 27.9926 8.42179 28.1051 8.44448 28.1949C8.46716 28.2848 8.53431 28.4422 8.64682 28.375C8.75934 28.3074 8.69174 28.6899 8.64682 28.7348C8.60191 28.7797 8.63141 28.8822 8.63141 28.8822C8.63141 28.8822 6.86152 30.3828 6.87014 30.4885Z" fill="#FDFBDC"/>
<path d="M21.1483 29.5142C21.1483 29.5142 19.1981 27.9251 17.6399 27.4801C17.6399 27.4801 16.9785 27.0573 17.2026 26.8328C17.4267 26.6078 18.3226 26.826 18.7431 26.3909C19.1636 25.9559 19.1078 25.8883 19.3882 26.023C19.6685 26.1578 20.6211 26.023 20.6211 26.023C20.6211 26.023 21.2376 25.8656 21.0135 25.7309C20.7894 25.5962 21.4703 25.5703 21.4703 25.5703C21.4703 25.5703 21.6754 29.2951 21.1483 29.5142Z" fill="#FDFBDC"/>
<path d="M7.41304 26.1012C7.56093 25.9551 7.30824 25.4129 8.11034 25.0686C8.91244 24.7242 9.17738 24.222 9.79483 24.3181C10.4123 24.4143 11.1445 24.2768 11.5279 24.2768C11.9112 24.2768 12.3998 24.1734 12.609 24.4488C12.8181 24.7242 13.167 25.2405 12.9229 25.309C12.6788 25.378 12.0859 25.9284 12.051 26.0663C12.016 26.2038 12.051 26.4447 11.5628 26.2382C11.0746 26.0318 10.9349 25.7909 10.5166 25.9628C10.0983 26.1348 10.1433 26.4293 9.70228 26.2478C9.26131 26.0663 8.80809 26.0318 8.28454 26.2727C7.76191 26.5141 6.92488 26.5831 7.41304 26.1012Z" fill="#FDFBDC"/>
<path d="M5.71155 29.3462C5.57273 29.221 5.09958 29.4759 4.74891 28.7746C4.39824 28.0732 3.93371 27.8614 3.98769 27.3025C4.04168 26.7436 3.88019 26.0939 3.85977 25.7496C3.83981 25.4053 3.72141 24.973 3.95776 24.7706C4.19365 24.5683 4.63869 24.2285 4.71308 24.444C4.78748 24.6595 5.31235 25.1626 5.43801 25.1866C5.56322 25.2107 5.77779 25.1667 5.61811 25.6158C5.45842 26.0645 5.24975 26.2024 5.42576 26.5689C5.60223 26.9355 5.86352 26.8792 5.7238 27.2848C5.58407 27.6903 5.57682 28.0986 5.82043 28.555C6.06404 29.0114 6.16928 29.7585 5.71155 29.3462Z" fill="#FDFBDC"/>
<path d="M16.0306 24.7801C16.0351 24.9171 16.4112 25.0423 16.2188 25.5826C16.0265 26.1229 16.1512 26.4776 15.8282 26.7294C15.5052 26.9812 15.2439 27.394 15.072 27.5777C14.9001 27.7614 14.7318 28.0417 14.5045 28.0168C14.2772 27.9918 13.8708 27.9247 13.9465 27.7764C14.0223 27.6285 14.0209 27.0946 13.9697 27.0156C13.9184 26.9362 13.7859 26.8437 14.1048 26.704C14.4238 26.5643 14.6029 26.6065 14.7068 26.3284C14.8107 26.0499 14.6479 25.9383 14.9337 25.8094C15.2194 25.6806 15.439 25.4792 15.5565 25.1199C15.674 24.7597 16.0156 24.3279 16.0306 24.7801Z" fill="#FDFBDC"/>
<path d="M20.3346 21.8073C20.3396 21.958 20.7528 22.0954 20.5414 22.6888C20.33 23.2822 20.4675 23.6719 20.1123 23.9482C19.7575 24.2244 19.4704 24.6781 19.2817 24.88C19.093 25.0819 18.9079 25.3899 18.6579 25.3627C18.4084 25.3355 17.9616 25.2615 18.045 25.0986C18.1285 24.9358 18.1267 24.3497 18.0704 24.263C18.0142 24.1764 17.8686 24.0743 18.2188 23.9205C18.569 23.7667 18.7659 23.8134 18.8802 23.5077C18.9945 23.2019 18.8153 23.079 19.1292 22.9374C19.4432 22.7959 19.6845 22.5749 19.8133 22.1798C19.9431 21.7847 20.3182 21.3101 20.3346 21.8073Z" fill="#FDFBDC"/>
<path d="M9.08118 28.5308C9.13652 28.4219 8.89701 28.1633 9.27806 27.8244C9.65956 27.4855 9.71399 27.1553 10.0742 27.0977C10.4339 27.04 10.8145 26.83 11.0273 26.7601C11.24 26.6907 11.4918 26.5442 11.6583 26.6608C11.8247 26.7774 12.1128 27.0042 11.9903 27.0872C11.8678 27.1702 11.6401 27.5867 11.646 27.6706C11.6519 27.7541 11.7154 27.8834 11.4069 27.8557C11.0985 27.828 10.9769 27.7183 10.7764 27.8906C10.5759 28.063 10.6553 28.2205 10.3772 28.1982C10.0991 28.176 9.84192 28.2391 9.59606 28.4691C9.35064 28.6995 8.89927 28.8901 9.08118 28.5308Z" fill="#FDFBDC"/>
<path d="M12.1608 62.9787H10.7544V42.5391C10.0032 41.9457 8.65267 40.5929 7.49993 38.9597C6.33314 37.3066 4.8447 34.8803 5.12914 32.4909C5.37684 30.4081 6.93514 28.7023 9.45064 27.5128C9.45064 27.5128 11.072 26.6676 14.4621 26.3895C15.2955 26.321 15.7909 26.8019 15.7909 26.8019C15.7909 26.8019 14.8564 27.3771 14.7806 27.4343C13.3942 27.506 11.8514 27.8376 10.1615 28.4278C9.05823 28.9545 6.47513 30.5655 6.4901 32.5281C6.23651 34.6585 7.66415 36.9364 8.74158 38.4625C9.9746 40.2091 11.4277 41.581 11.9317 41.9271L12.1612 42.0846V62.9787H12.1608Z" fill="#7F898F"/>
<defs>
<linearGradient id="paint0_linear_91_11656" x1="14.2488" y1="23.5264" x2="-4.31334" y2="-21.8389" gradientUnits="userSpaceOnUse">
<stop offset="0.1599" stop-color="#BFAB8D"/>
<stop offset="0.5078" stop-color="#E7E1D2"/>
<stop offset="0.7297" stop-color="#CCBFA6"/>
</linearGradient>
<linearGradient id="paint1_linear_91_11656" x1="1.37003" y1="17.528" x2="22.2804" y2="18.4735" gradientUnits="userSpaceOnUse">
<stop offset="0.1599" stop-color="#BFAB8D"/>
<stop offset="0.5078" stop-color="#E7E1D2"/>
<stop offset="0.7297" stop-color="#CCBFA6"/>
</linearGradient>
<linearGradient id="paint2_linear_91_11656" x1="-5.58946" y1="41.1823" x2="30.3295" y2="37.4103" gradientUnits="userSpaceOnUse">
<stop stop-color="#94938C"/>
<stop offset="0.2296" stop-color="#EDEBE1"/>
<stop offset="0.7988" stop-color="#EDEBE1"/>
<stop offset="1" stop-color="#94938C"/>
</linearGradient>
</defs>
</svg>
