<svg width="29" height="58" viewBox="0 0 29 58" fill="none" xmlns="http://www.w3.org/2000/svg">
<path d="M9.09445 8.43459C7.78147 8.52396 6.76792 8.90911 5.68995 9.64948C5.39823 9.84999 5.12193 10.0918 5.17955 10.3785C5.44814 11.7177 15.3241 10.6416 15.2293 9.46711C15.1703 8.76938 11.9586 8.58248 11.2395 8.5049C10.4279 8.41689 9.72644 8.39149 9.09445 8.43459Z" fill="#D8D6D0"/>
<path d="M19.2584 53.8004C19.9339 55.9643 18.3387 56.8472 16.857 55.5651C13.9925 53.0863 12.3347 49.1099 10.8766 45.4674C10.2015 43.7807 7.30294 37.8494 8.82822 36.4159C10.3417 34.9932 16.2745 37.702 16.5785 41.5083C16.7436 43.5729 16.8126 45.6434 17.1678 47.709C17.5539 49.9537 18.596 51.6799 19.2584 53.8004Z" fill="url(#paint0_linear_91_11741)"/>
<path d="M2.48281 28.5278C2.67063 29.3022 2.83711 30.0902 2.87386 30.2426C3.18916 31.5506 3.46273 32.8689 3.68231 34.1964C3.86151 35.2811 4.00486 36.3717 4.11148 37.4664C4.21491 38.5271 4.12462 39.6948 4.3265 40.7346C4.52566 41.7595 4.89088 42.8347 5.23612 43.8246C6.27276 46.7975 7.84291 49.5639 9.70748 52.0927C10.6429 53.3611 11.6546 54.5729 12.7226 55.7325C13.3786 56.4447 14.7731 58.5534 15.9323 57.6773C16.3673 57.3484 16.542 56.7618 16.5139 56.217C16.4857 55.6721 16.2861 55.1531 16.0969 54.6414C14.6398 50.6931 13.2543 45.8044 14.0736 41.5685C14.1589 41.1271 14.2923 40.6711 14.6089 40.3522C15.024 39.9344 15.6886 39.8404 16.2566 39.997C16.8246 40.1535 17.3092 40.525 17.732 40.9352C19.1833 42.3438 20.2144 44.3241 21.1014 46.1251C21.7728 47.4888 22.2659 48.942 22.5495 50.4359C22.8208 51.8658 22.5903 53.5653 23.1647 54.9072C23.4863 55.659 24.2035 56.3041 25.0211 56.2805C25.6576 56.2624 26.221 55.8527 26.6407 55.3736C28.1868 53.6084 28.483 50.7956 28.5733 48.545C28.6867 45.7086 28.2829 42.8823 27.8433 40.0881C27.2449 36.2841 26.476 32.506 25.6172 28.7528C25.5841 28.6072 25.1168 26.2395 25.0224 26.2422C25.0224 26.2422 2.14755 26.8769 1.9375 26.8828C2.05455 26.8801 2.28093 27.6962 2.48281 28.5278Z" fill="url(#paint1_linear_91_11741)"/>
<path d="M20.3799 8.26047C19.194 8.19287 18.2286 8.45194 17.1494 9.054C16.8572 9.21688 16.5723 9.42287 16.5782 9.71188C16.605 11.0639 25.5889 11.1751 25.6909 10.0059C25.749 9.3108 22.9127 8.74549 22.2835 8.58352C21.573 8.40158 20.9511 8.29314 20.3799 8.26047Z" fill="#D8D6D0"/>
<path d="M4.43776 9.31033C3.4846 9.4056 2.5868 9.77261 1.81329 10.5792C0.816581 11.6186 0.317525 13.0603 0.194126 14.4948C-0.0703632 17.5724 0.456369 21.2326 1.22534 24.214C1.46941 25.1604 1.4939 27.1492 2.14356 27.8796C4.16511 30.152 8.607 29.0464 11.295 28.86C14.3736 28.6463 17.6881 28.5442 20.4464 27.8796C22.2724 27.788 25.6255 28.1922 26.1799 25.7773C26.815 23.0096 27.2061 20.1792 27.3368 17.3424C27.4347 15.2229 27.7442 9.98583 24.6973 9.57708C24.2514 9.5172 23.4987 10.0199 23.0518 10.1215C22.1196 10.3329 21.2099 10.3043 20.2845 10.0584C19.1462 9.75628 18.0892 9.21189 16.9981 8.76866C16.7608 8.67249 16.514 8.57948 16.2581 8.58629C15.6752 8.60217 15.2469 9.10709 14.7805 9.45732C12.8175 10.9326 9.29885 10.1673 7.13167 9.60067C6.22206 9.36295 5.30699 9.22368 4.43776 9.31033Z" fill="url(#paint2_linear_91_11741)"/>
<path d="M18.8486 28.2266C18.8486 28.2266 18.9547 30.262 18.6975 31.6483C18.6975 31.6483 18.4856 32.2185 17.7598 32.2639C17.034 32.3093 16.6711 32.3546 16.535 32.8083C16.3989 33.2619 15.7184 33.0351 15.673 32.8536C15.6277 32.6722 15.4916 32.3546 15.2648 32.4907C15.0379 32.6268 15.174 31.8556 15.2648 31.7649C15.3555 31.6742 15.2956 31.4678 15.2956 31.4678C15.2956 31.4678 18.8658 28.4393 18.8486 28.2266Z" fill="#FDFBDC"/>
<path d="M17.628 36.1677C17.4357 36.3601 17.7641 37.0749 16.7207 37.5285C15.6773 37.9821 15.3325 38.6443 14.5295 38.5173C13.7265 38.3903 12.7738 38.5717 12.2748 38.5717C11.7757 38.5717 11.1406 38.7078 10.8684 38.3449C10.5962 37.9821 10.1426 37.3017 10.4601 37.211C10.7777 37.1203 11.5489 36.3945 11.5943 36.2131C11.6396 36.0317 11.5943 35.7142 12.2294 35.9863C12.8645 36.2585 13.046 36.576 13.5904 36.3492C14.1348 36.1224 14.0763 35.7346 14.6497 35.9736C15.2236 36.2131 15.8134 36.2585 16.4938 35.941C17.1743 35.6235 18.2631 35.5327 17.628 36.1677Z" fill="#FDFBDC"/>
<path d="M9.67352 33.2475C9.80372 33.1079 9.5551 32.6153 10.2751 32.2706C10.995 31.9259 11.2201 31.4534 11.7858 31.5219C12.352 31.5903 13.0148 31.4389 13.3646 31.4266C13.7143 31.4139 14.1562 31.3024 14.3563 31.55C14.5563 31.7976 14.8916 32.2625 14.6711 32.3341C14.4506 32.4058 13.9285 32.9342 13.9017 33.0625C13.8749 33.1909 13.9144 33.4122 13.4621 33.2376C13.0102 33.063 12.8746 32.8453 12.499 33.0176C12.1233 33.1904 12.1741 33.4607 11.7658 33.3074C11.3575 33.1541 10.9429 33.1373 10.4742 33.3773C10.0056 33.6172 9.24435 33.7088 9.67352 33.2475Z" fill="#FDFBDC"/>
<path d="M8.94138 35.1499C8.75083 35.1381 8.52808 35.6431 7.80491 35.306C7.08175 34.9689 6.57361 35.0955 6.26692 34.6146C5.96023 34.1337 5.42216 33.7177 5.19033 33.4555C4.9585 33.1932 4.59148 32.9229 4.65591 32.6112C4.71988 32.2995 4.8664 31.7451 5.06194 31.8694C5.25702 31.9942 5.99698 32.0618 6.11358 32.0014C6.23018 31.9411 6.3758 31.7696 6.52778 32.2296C6.68022 32.6897 6.59766 32.9328 6.96968 33.1134C7.3417 33.2939 7.51817 33.083 7.65926 33.4954C7.80036 33.9082 8.05034 34.239 8.53351 34.4486C9.01668 34.6581 9.57018 35.188 8.94138 35.1499Z" fill="#FDFBDC"/>
<path d="M24.3311 30.064C24.3139 30.2909 24.9109 30.5658 24.4958 31.4214C24.0807 32.2771 24.2217 32.8845 23.6433 33.2411C23.0649 33.5973 22.559 34.2306 22.2424 34.5024C21.9257 34.7737 21.5968 35.2056 21.2266 35.1235C20.8564 35.0413 20.1985 34.8562 20.3505 34.6258C20.5025 34.3953 20.5973 33.5151 20.5275 33.3754C20.4576 33.2357 20.2562 33.0587 20.8069 32.8859C21.3581 32.713 21.6458 32.816 21.8681 32.376C22.0904 31.9359 21.8418 31.7218 22.3363 31.5616C22.8303 31.4015 23.2296 31.1093 23.4886 30.5377C23.7472 29.9651 24.3887 29.3154 24.3311 30.064Z" fill="#FDFBDC"/>
<path d="M14.9664 33.2831C14.9161 33.382 15.1338 33.617 14.7873 33.925C14.4407 34.2331 14.3913 34.533 14.0642 34.5851C13.7372 34.6378 13.3916 34.8283 13.1983 34.8918C13.0051 34.9549 12.7765 35.0883 12.6254 34.9821C12.4739 34.8759 12.2122 34.67 12.3238 34.5947C12.4354 34.5194 12.6418 34.1405 12.6363 34.0648C12.6309 33.9885 12.5733 33.8715 12.8536 33.8965C13.1339 33.9214 13.2441 34.0212 13.4265 33.8647C13.6084 33.7077 13.5367 33.5653 13.7889 33.5852C14.0411 33.6052 14.2752 33.548 14.4988 33.3389C14.7224 33.1297 15.132 32.9569 14.9664 33.2831Z" fill="#FDFBDC"/>
<path d="M13.9505 0.601562H15.3569V21.0411C16.1081 21.6345 17.4587 22.9873 18.6115 24.6205C19.7783 26.2737 21.2668 28.6999 20.9823 31.0894C20.7346 33.1722 19.1763 34.8779 16.6607 36.0675C16.6607 36.0675 15.0393 36.9127 11.6491 37.1908C10.8157 37.2593 10.3203 36.7784 10.3203 36.7784C10.3203 36.7784 11.2549 36.2031 11.3306 36.146C12.717 36.0743 14.2599 35.7426 15.9498 35.1524C17.0531 34.6257 19.6363 33.0147 19.6213 31.0522C19.8749 28.9218 18.4472 26.6439 17.3698 25.1177C16.1367 23.3711 14.6836 21.9992 14.1796 21.6531L13.9501 21.4957V0.601562H13.9505Z" fill="#7F898F"/>
<defs>
<linearGradient id="paint0_linear_91_11741" x1="11.4946" y1="35.5074" x2="19.256" y2="79.7995" gradientUnits="userSpaceOnUse">
<stop offset="0.1599" stop-color="#BFAB8D"/>
<stop offset="0.5078" stop-color="#E7E1D2"/>
<stop offset="0.7297" stop-color="#CCBFA6"/>
</linearGradient>
<linearGradient id="paint1_linear_91_11741" x1="4.52455" y1="42.0082" x2="27.0516" y2="42.0896" gradientUnits="userSpaceOnUse">
<stop stop-color="#BFAB8D"/>
<stop offset="0.5078" stop-color="#E7E1D2"/>
<stop offset="1" stop-color="#CCBFA6"/>
</linearGradient>
<linearGradient id="paint2_linear_91_11741" x1="-5.58085" y1="18.8787" x2="33.2649" y2="19.0191" gradientUnits="userSpaceOnUse">
<stop stop-color="#94938C"/>
<stop offset="0.2296" stop-color="#EDEBE1"/>
<stop offset="0.7988" stop-color="#EDEBE1"/>
<stop offset="1" stop-color="#94938C"/>
</linearGradient>
</defs>
</svg>
