<svg width="27" height="56" viewBox="0 0 27 56" fill="none" xmlns="http://www.w3.org/2000/svg">
<path d="M15.8619 50.3393C16.0638 52.2964 14.794 52.7415 13.8925 51.3782C12.15 48.7419 11.4777 45.0676 10.9061 41.7136C10.6411 40.1607 9.33094 34.5996 10.623 33.675C11.905 32.7581 15.8347 36.1675 15.5512 39.4421C15.3974 41.2186 15.1732 42.9821 15.1569 44.7954C15.1392 46.7662 15.6636 48.4221 15.8619 50.3393Z" fill="url(#paint0_linear_91_11725)"/>
<path d="M4.23438 28.0778C4.91986 30.0363 5.47244 32.0805 5.79136 34.131C6.00594 35.5111 5.9742 36.7378 5.7646 38.1037C5.41211 40.3993 5.38668 42.7951 5.48558 45.1106C5.63983 48.7222 7.37237 51.4423 8.75741 54.691C9.26642 55.8846 10.4437 56.5111 11.5107 55.4128C12.8644 54.02 12.4992 51.0926 12.5532 49.326C12.6267 46.908 12.6757 44.4732 13.1593 42.0937C13.3675 41.0693 13.6602 40.0481 14.195 39.1499C14.7267 38.2566 15.7094 37.8211 16.6507 38.4644C17.9042 39.3209 18.1868 41.1973 18.6196 42.5328C19.0256 43.7854 19.3936 45.0502 19.7488 46.3182C20.2505 48.1088 20.7146 49.9108 21.1928 51.7077C21.391 52.4517 22.038 54.1992 23.1318 53.4398C23.501 53.183 23.6834 52.7384 23.8372 52.3161C24.3421 50.927 24.7454 49.5038 25.1478 48.0821C25.6872 46.1771 26.1835 44.2776 26.2996 42.2938C26.458 39.589 25.3923 36.9165 24.8715 34.2984C24.3181 31.5161 23.9724 28.6925 23.8399 25.8589C23.8313 25.6725 23.8168 25.4697 23.6906 25.3318C23.5205 25.1458 23.2288 25.1603 22.9789 25.1889C19.9071 25.5409 16.829 25.8272 13.7604 26.211C11.684 26.4691 9.60488 26.7422 7.5466 27.1215C6.63973 27.2884 4.9371 27.3751 4.23438 28.0778Z" fill="url(#paint1_linear_91_11725)"/>
<path d="M1.83368 23.8361C1.73115 22.6094 1.75928 21.3663 1.52565 20.1546C1.16091 18.2632 0.205941 16.6155 0.341131 14.6116C0.666857 9.78725 7.40865 9.41433 10.7984 10.7504C12.2079 11.3057 12.7863 10.7812 13.9713 10.0327C15.2551 9.22151 16.7699 8.79688 18.2874 8.79688C20.0226 8.79688 21.9375 9.29047 23.4196 10.2023C25.6121 11.5516 25.6103 13.765 25.7609 16.0883C25.9274 18.6579 25.8684 21.3051 25.0187 23.7622C24.7588 24.5143 24.4145 25.2534 23.8728 25.8363C23.1029 26.6652 22.1221 26.7745 21.0819 27.0141C19.662 27.3412 18.2261 27.6179 16.7948 27.8888C13.9881 28.42 11.155 28.8524 8.29918 28.9957C6.94502 29.0638 5.54278 28.9263 4.34014 28.2998C2.59855 27.3933 1.98838 25.6875 1.83368 23.8361Z" fill="url(#paint2_linear_91_11725)"/>
<path d="M17.872 27.8281C17.872 27.8281 17.9782 29.8636 17.721 31.2499C17.721 31.2499 17.5091 31.8201 16.7833 31.8655C16.0574 31.9108 15.6945 31.9562 15.5584 32.4098C15.4223 32.8634 14.7418 32.6366 14.6965 32.4552C14.6511 32.2737 14.515 31.9562 14.2882 32.0923C14.0614 32.2284 14.1975 31.4572 14.2882 31.3665C14.3789 31.2757 14.319 31.0693 14.319 31.0693C14.319 31.0693 17.8893 28.0409 17.872 27.8281Z" fill="#FDFBDC"/>
<path d="M16.6441 35.7694C16.4517 35.9617 16.7802 36.6767 15.7367 37.1304C14.6932 37.584 14.3484 38.2463 13.5454 38.1193C12.7424 37.9923 11.7896 38.1738 11.2905 38.1738C10.7915 38.1738 10.1563 38.3099 9.88407 37.9469C9.61186 37.584 9.15816 36.9035 9.47575 36.8128C9.79334 36.7221 10.5646 35.9962 10.61 35.8148C10.6554 35.6333 10.61 35.3157 11.2452 35.5879C11.8803 35.8601 12.0618 36.1777 12.6062 35.9509C13.1507 35.724 13.0921 35.3362 13.6656 35.5752C14.2395 35.8148 14.8293 35.8601 15.5099 35.5426C16.1904 35.225 17.2793 35.1343 16.6441 35.7694Z" fill="#FDFBDC"/>
<path d="M8.69701 32.8496C8.82721 32.7099 8.57859 32.2172 9.29856 31.8723C10.0185 31.528 10.2436 31.0548 10.8093 31.1233C11.3755 31.1918 12.0383 31.0403 12.388 31.028C12.7378 31.0158 13.1797 30.9037 13.3798 31.1514C13.5799 31.3992 13.9151 31.8642 13.6947 31.9359C13.4742 32.0075 12.9524 32.5361 12.9252 32.6645C12.898 32.7929 12.9379 33.0143 12.4856 32.8396C12.0333 32.665 11.8981 32.4472 11.5224 32.6196C11.1468 32.7925 11.1976 33.0629 10.7893 32.9095C10.381 32.7562 9.96635 32.7394 9.49771 32.9794C9.02861 33.2194 8.26783 33.311 8.69701 32.8496Z" fill="#FDFBDC"/>
<path d="M7.55913 34.537C7.42029 34.4064 6.92574 34.6518 6.58545 33.93C6.24516 33.2082 5.77372 32.9805 5.8454 32.4147C5.91709 31.849 5.76966 31.1853 5.75922 30.8351C5.74879 30.4853 5.63988 30.043 5.88852 29.8442C6.13715 29.6455 6.60493 29.313 6.67526 29.5339C6.74559 29.7544 7.271 30.2798 7.39895 30.3079C7.5269 30.336 7.74876 30.2975 7.57136 30.7484C7.39395 31.1994 7.17527 31.3337 7.34587 31.7102C7.51647 32.0872 7.78733 32.0378 7.63171 32.4452C7.47608 32.8526 7.45703 33.2668 7.69387 33.7372C7.93117 34.2072 8.01784 34.9689 7.55913 34.537Z" fill="#FDFBDC"/>
<path d="M23.3467 29.6656C23.3295 29.8924 23.9265 30.1673 23.5114 31.023C23.0958 31.8786 23.2374 32.4861 22.6589 32.8427C22.0805 33.1988 21.5747 33.8322 21.258 34.1039C20.9413 34.3752 20.6124 34.8071 20.2422 34.725C19.872 34.6429 19.2142 34.4578 19.3661 34.2273C19.5181 33.9969 19.6129 33.1167 19.5431 32.977C19.4732 32.8372 19.2718 32.6603 19.8225 32.4875C20.3733 32.3146 20.6614 32.4176 20.8837 31.9775C21.106 31.5375 20.8574 31.3233 21.3519 31.1632C21.8464 31.003 22.2452 30.7109 22.5042 30.1392C22.7628 29.5667 23.4043 28.917 23.3467 29.6656Z" fill="#FDFBDC"/>
<path d="M13.9902 32.8846C13.9398 32.9835 14.1576 33.2185 13.811 33.5266C13.4644 33.8342 13.415 34.1345 13.0879 34.1867C12.7608 34.2389 12.4151 34.4299 12.2219 34.4934C12.0286 34.5564 11.8 34.6898 11.6489 34.5836C11.4974 34.4775 11.2356 34.2715 11.3472 34.1962C11.4588 34.1209 11.6652 33.7421 11.6598 33.6663C11.6543 33.5901 11.5967 33.4731 11.8771 33.498C12.1574 33.523 12.2677 33.6228 12.45 33.4662C12.6319 33.3093 12.5603 33.1668 12.8125 33.1868C13.0647 33.2068 13.2988 33.1496 13.522 32.9404C13.7456 32.7313 14.1558 32.5584 13.9902 32.8846Z" fill="#FDFBDC"/>
<path d="M12.9739 0.203125H14.3803V20.6427C15.1316 21.2361 16.4821 22.5889 17.6349 24.2221C18.8017 25.8753 20.2902 28.3015 20.0057 30.6909C19.758 32.7737 18.1997 34.4795 15.6841 35.669C15.6841 35.669 14.0627 36.5142 10.6725 36.7923C9.83911 36.8608 9.34375 36.3799 9.34375 36.3799C9.34375 36.3799 10.2783 35.8047 10.354 35.7475C11.7404 35.6758 13.2834 35.3442 14.9732 34.754C16.077 34.2273 18.6597 32.6163 18.6447 30.6537C18.8983 28.5233 17.4707 26.2454 16.3932 24.7193C15.1601 22.9727 13.707 21.6008 13.203 21.2547L12.9735 21.0972V0.203125H12.9739Z" fill="#7F898F"/>
<defs>
<linearGradient id="paint0_linear_91_11725" x1="12.6702" y1="33.4084" x2="10.5605" y2="72.2141" gradientUnits="userSpaceOnUse">
<stop offset="0.1599" stop-color="#BFAB8D"/>
<stop offset="0.5078" stop-color="#E7E1D2"/>
<stop offset="0.7297" stop-color="#CCBFA6"/>
</linearGradient>
<linearGradient id="paint1_linear_91_11725" x1="6.76118" y1="41.969" x2="24.2552" y2="38.5649" gradientUnits="userSpaceOnUse">
<stop stop-color="#BFAB8D"/>
<stop offset="0.5078" stop-color="#E7E1D2"/>
<stop offset="1" stop-color="#CCBFA6"/>
</linearGradient>
<linearGradient id="paint2_linear_91_11725" x1="-3.74425" y1="21.9202" x2="29.5535" y2="15.441" gradientUnits="userSpaceOnUse">
<stop stop-color="#94938C"/>
<stop offset="0.2114" stop-color="#EDEBE1"/>
<stop offset="0.847" stop-color="#EDEBE1"/>
<stop offset="1" stop-color="#94938C"/>
</linearGradient>
</defs>
</svg>
