<svg width="25" height="55" viewBox="0 0 25 55" fill="none" xmlns="http://www.w3.org/2000/svg">
<path d="M15.5449 51.5515C15.8397 53.4048 14.6539 53.8956 13.7239 52.644C11.9266 50.2246 11.0932 46.7604 10.3728 43.596C10.0389 42.1307 8.49968 36.9031 9.68189 35.9549C10.855 35.0144 14.7759 38.0554 14.6775 41.1893C14.6239 42.8892 14.5033 44.5805 14.5827 46.3085C14.6689 48.1862 15.2554 49.7355 15.5449 51.5515Z" fill="url(#paint0_linear_91_11731)"/>
<path d="M3.07031 28.2458C3.07031 28.2458 4.37779 31.8411 4.37779 35.7631C4.37779 39.6851 4.05067 44.5879 6.33896 48.1833C8.62679 51.7786 9.28056 53.4127 9.28056 53.4127C9.28056 53.4127 11.2417 55.7006 12.2221 53.0861C12.2221 53.0861 9.93427 45.2417 11.2417 41.3197C12.5492 37.3977 13.8566 38.7047 14.1833 39.3585C14.5099 40.0122 19.0861 47.5295 19.7398 49.4907C20.3935 51.4519 21.3739 53.4127 22.0276 53.4127C22.6813 53.4127 23.6617 51.7786 24.3154 48.837C24.9692 45.8954 24.3155 42.6271 23.008 40.3388C21.7005 38.051 20.3935 27.9187 20.3935 26.2846C20.3935 24.6505 4.70441 27.5925 3.07031 28.2458Z" fill="url(#paint1_linear_91_11731)"/>
<path d="M10.6233 17.9771C10.313 17.9036 9.99176 17.7008 9.61884 17.4554C8.60626 16.788 7.55467 16.1443 6.38648 15.8199C5.21784 15.4955 3.90315 15.5237 2.86335 16.1475C2.13204 16.5862 1.59034 17.2812 1.14439 18.008C0.446648 19.1453 -0.068271 20.4669 0.0918728 21.7916C0.274246 23.3023 0.873551 24.7899 1.48827 26.17C1.86118 27.007 2.17194 27.962 2.84381 28.6171C3.62775 29.381 4.94567 29.4886 5.97867 29.6333C8.20072 29.944 10.4318 29.6655 12.6013 29.1506C14.758 28.6384 16.9869 28.0704 19.0841 27.3563C19.4611 27.2279 19.8377 27.0796 20.1534 26.8373C21.0385 26.1573 21.2205 24.6116 21.4332 23.5917C21.7562 22.0416 21.5589 20.4387 20.9247 18.9938C20.1081 17.1333 18.5466 15.491 16.4733 15.1721C14.9894 14.9439 13.6719 15.2483 12.6734 16.3983C12.3427 16.7794 12.0795 17.2222 11.7221 17.5802C11.3278 17.9744 10.983 18.0624 10.6233 17.9771Z" fill="url(#paint2_linear_91_11731)"/>
<path d="M16.3252 28.2969C16.3252 28.2969 16.4313 30.3324 16.1741 31.7188C16.1741 31.7188 15.9622 32.289 15.2364 32.3344C14.5106 32.3798 14.1476 32.4251 14.0115 32.8788C13.8754 33.3325 13.195 33.1056 13.1496 32.9242C13.1042 32.7427 12.9681 32.4251 12.7413 32.5612C12.5145 32.6973 12.6506 31.9261 12.7413 31.8354C12.832 31.7447 12.7722 31.5382 12.7722 31.5382C12.7722 31.5382 16.3424 28.5096 16.3252 28.2969Z" fill="#FDFBDC"/>
<path d="M15.0968 36.2382C14.9044 36.4305 15.2329 37.1456 14.1894 37.5993C13.146 38.0529 12.8012 38.7153 11.9982 38.5883C11.1953 38.4613 10.2426 38.6427 9.74352 38.6427C9.24449 38.6427 8.60936 38.7788 8.33717 38.4159C8.06497 38.0529 7.6113 37.3724 7.92887 37.2817C8.24643 37.1909 9.01766 36.465 9.06303 36.2835C9.10839 36.1021 9.06303 35.7845 9.69816 36.0567C10.3333 36.3289 10.5148 36.6465 11.0591 36.4197C11.6035 36.1928 11.545 35.8049 12.1184 36.044C12.6923 36.2836 13.2821 36.3289 13.9626 36.0113C14.6431 35.6937 15.7319 35.603 15.0968 36.2382Z" fill="#FDFBDC"/>
<path d="M7.15012 33.3183C7.28031 33.1785 7.03171 32.6858 7.75162 32.3411C8.47153 31.9967 8.69652 31.5235 9.26219 31.592C9.82832 31.6606 10.4911 31.509 10.8408 31.4968C11.1906 31.4845 11.6324 31.3725 11.8325 31.6202C12.0325 31.8679 12.3678 32.3329 12.1473 32.4046C11.9268 32.4762 11.4052 33.0048 11.3779 33.1332C11.3507 33.2616 11.3906 33.483 10.9384 33.3083C10.4861 33.1336 10.3509 32.9159 9.97529 33.0883C9.59968 33.2611 9.65052 33.5315 9.24226 33.3782C8.83399 33.2248 8.41934 33.208 7.95075 33.448C7.48169 33.688 6.72099 33.7797 7.15012 33.3183Z" fill="#FDFBDC"/>
<path d="M6.01225 35.0056C5.87342 34.875 5.37886 35.1204 5.03857 34.3986C4.69828 33.6769 4.22684 33.4491 4.29853 32.8834C4.37022 32.3177 4.22278 31.654 4.21235 31.3038C4.20191 30.954 4.093 30.5117 4.34164 30.313C4.59028 30.1143 5.05806 29.7817 5.12839 30.0027C5.19871 30.2232 5.72413 30.7485 5.85208 30.7766C5.98048 30.8047 6.20189 30.7662 6.02448 31.2171C5.84708 31.6681 5.6284 31.8023 5.799 32.1789C5.9696 32.5559 6.24046 32.5064 6.08483 32.9138C5.92921 33.3212 5.91016 33.7354 6.147 34.2058C6.38429 34.6758 6.47097 35.4375 6.01225 35.0056Z" fill="#FDFBDC"/>
<path d="M20.4873 30.1812C20.4701 30.408 21.0671 30.683 20.652 31.5386C20.2365 32.3942 20.378 33.0021 19.7996 33.3583C19.2211 33.7144 18.7153 34.3477 18.3986 34.6195C18.0819 34.8908 17.753 35.3227 17.3828 35.2406C17.0126 35.1585 16.3548 34.9733 16.5068 34.7429C16.6588 34.5124 16.7535 33.6323 16.6837 33.4926C16.6138 33.3528 16.4124 33.1759 16.9632 33.003C17.5139 32.8302 17.802 32.9332 18.0243 32.4931C18.2466 32.0531 17.998 31.8389 18.4925 31.6788C18.9865 31.5186 19.3858 31.2265 19.6448 30.6548C19.9034 30.0823 20.545 29.4326 20.4873 30.1812Z" fill="#FDFBDC"/>
<path d="M12.4438 33.3534C12.3934 33.4523 12.6112 33.6872 12.2645 33.9952C11.9179 34.3028 11.8684 34.6031 11.5413 34.6553C11.2142 34.7074 10.8684 34.8984 10.6752 34.9619C10.4819 35.025 10.2532 35.1583 10.1021 35.0522C9.95053 34.946 9.68875 34.7401 9.80037 34.6648C9.91199 34.5895 10.1184 34.2107 10.113 34.135C10.1075 34.0587 10.0499 33.9417 10.3303 33.9667C10.6107 33.9916 10.721 34.0914 10.9034 33.9349C11.0853 33.7779 11.0136 33.6355 11.2659 33.6555C11.5182 33.6754 11.7523 33.6183 11.9755 33.4092C12.1992 33.2 12.6094 33.0272 12.4438 33.3534Z" fill="#FDFBDC"/>
<path d="M11.4271 0.671875H12.8334V21.1115C13.5847 21.7049 14.9352 23.0578 16.088 24.691C17.2548 26.3442 18.7433 28.7704 18.4588 31.1599C18.2111 33.2427 16.6528 34.9485 14.1372 36.138C14.1372 36.138 12.5158 36.9832 9.12561 37.2613C8.29223 37.3298 7.79688 36.8489 7.79688 36.8489C7.79688 36.8489 8.7314 36.2737 8.80716 36.2165C10.1935 36.1448 11.7365 35.8132 13.4264 35.2229C14.5301 34.6962 17.1128 33.0853 17.0978 31.1227C17.3514 28.9922 15.9238 26.7144 14.8463 25.1882C13.6133 23.4416 12.1602 22.0697 11.6561 21.7235L11.4266 21.5661V0.671875H11.4271Z" fill="#7F898F"/>
<defs>
<linearGradient id="paint0_linear_91_11731" x1="11.6132" y1="35.5886" x2="11.6374" y2="72.658" gradientUnits="userSpaceOnUse">
<stop offset="0.1599" stop-color="#BFAB8D"/>
<stop offset="0.5078" stop-color="#E7E1D2"/>
<stop offset="0.7297" stop-color="#CCBFA6"/>
</linearGradient>
<linearGradient id="paint1_linear_91_11731" x1="4.96484" y1="40.033" x2="21.7229" y2="40.0935" gradientUnits="userSpaceOnUse">
<stop stop-color="#BFAB8D"/>
<stop offset="0.5078" stop-color="#E7E1D2"/>
<stop offset="1" stop-color="#CCBFA6"/>
</linearGradient>
<linearGradient id="paint2_linear_91_11731" x1="-6.28827" y1="22.3679" x2="27.7515" y2="22.4909" gradientUnits="userSpaceOnUse">
<stop stop-color="#94938C"/>
<stop offset="0.2614" stop-color="#EDEBE1"/>
<stop offset="0.7687" stop-color="#EDEBE1"/>
<stop offset="1" stop-color="#94938C"/>
</linearGradient>
</defs>
</svg>
