<svg width="19" height="70" viewBox="0 0 19 70" fill="none" xmlns="http://www.w3.org/2000/svg">
<path d="M9.26161 54.2879C9.26161 54.2879 3.96268 55.3835 2.08491 52.6311C0.207147 49.8787 8.62964 52.6275 9.26161 54.2879Z" fill="#D8D6D0"/>
<path d="M10.0391 54.5234C10.0391 54.5234 15.6823 54.905 17.0865 51.2455C18.4906 47.586 10.3721 52.4051 10.0391 54.5234Z" fill="#D8D6D0"/>
<path d="M12.2919 33.9959C12.3749 34.0367 12.4538 34.083 12.5282 34.1351C13.9659 35.1395 15.1777 36.7668 16.0918 38.239C17.4809 40.4756 18.4726 43.0338 18.2054 45.7031C18.0231 47.5278 17.8185 49.626 16.9066 51.2646C16.374 52.2219 15.1767 52.6606 14.2018 52.9999C13.3666 53.2907 12.5237 53.5638 11.7048 53.8991C10.9486 54.2085 10.2064 54.7361 9.35439 54.668C8.37493 54.5895 7.6908 53.8219 6.90732 53.3238C5.67788 52.5426 4.20618 52.142 2.74991 52.2123C2.49404 52.2246 2.23182 52.2504 1.98639 52.1756C1.62844 52.0667 1.36669 51.7628 1.15573 51.4543C0.194864 50.0506 0.220267 48.6905 0.212101 47.0582C0.203482 45.3996 0.235692 43.7311 0.551897 42.0979C1.1149 39.1876 3.03754 36.78 4.04831 34.0331C4.10638 33.8747 4.16444 33.7128 4.27106 33.5821C4.45343 33.3584 4.75194 33.2618 5.03957 33.2387C5.57852 33.1951 6.12157 33.2786 6.65553 33.3358C7.66812 33.4446 8.65666 33.5576 9.67469 33.6275C10.4822 33.6833 11.5406 33.6243 12.2919 33.9959Z" fill="url(#paint0_linear_91_11646)"/>
<path d="M14.4335 35.9059C14.3972 35.9354 14.3537 35.9585 14.3006 35.973C14.0338 36.0479 13.2118 35.6455 12.921 35.5693C11.9569 35.317 10.982 35.1061 10.0012 34.9305C8.96186 34.7445 7.91207 34.568 6.85367 34.5594C6.2934 34.5549 5.72995 34.5939 5.18147 34.7127C4.69423 34.8184 4.16934 35.1523 3.70797 35.1941C3.3718 33.8834 3.71295 32.3591 3.79098 31.028C3.87763 29.5482 4.01373 28.0715 4.19837 26.6007C4.54452 23.8406 5.23364 21.1834 5.73585 18.4583C6.2249 15.8075 6.361 13.0052 6.30247 10.3058C6.2748 9.03646 6.19813 7.76484 6.0525 6.50364C5.92865 5.42709 5.61834 4.46349 5.72858 3.34792C5.84064 2.21375 6.37279 0.496158 7.87034 0.960714C8.9977 1.31049 9.69951 2.55037 10.2684 3.49309C11.3522 5.28826 12.1411 7.24402 12.8679 9.21068C13.5938 11.1746 14.2629 13.1726 14.6417 15.2358C14.9725 17.0355 14.9321 18.7971 14.9008 20.6141C14.8518 23.4985 14.7828 26.3825 14.7116 29.2664C14.6658 31.1274 14.7719 33.0686 14.6254 34.9559C14.5991 35.3088 14.6508 35.728 14.4335 35.9059Z" fill="url(#paint1_linear_91_11646)"/>
<path d="M3.79201 36.6684C3.79201 36.6684 3.73939 35.6594 3.86685 34.9721C3.86685 34.9721 3.97163 34.6895 4.33178 34.6673C4.69193 34.645 4.87155 34.6223 4.93868 34.3973C5.00581 34.1723 5.34328 34.2848 5.36596 34.3746C5.38864 34.4645 5.45577 34.6219 5.56826 34.5547C5.68075 34.4871 5.61316 34.8696 5.56826 34.9145C5.52335 34.9594 5.55284 35.062 5.55284 35.062C5.55284 35.062 3.78339 36.5627 3.79201 36.6684Z" fill="#FDFBDC"/>
<path d="M14.508 35.7799C14.508 35.7799 13.7255 34.1908 13.1004 33.7458C13.1004 33.7458 12.835 33.323 12.9248 33.0984C13.0146 32.8734 13.3739 33.0916 13.5431 32.6566C13.7123 32.2215 13.6896 32.1539 13.8021 32.2887C13.9146 32.4234 14.2971 32.2887 14.2971 32.2887C14.2971 32.2887 14.5443 32.1313 14.4545 31.9965C14.3646 31.8618 14.6377 31.8359 14.6377 31.8359C14.6377 31.8359 14.7194 35.5608 14.508 35.7799Z" fill="#FDFBDC"/>
<path d="M5.2021 31.6477C5.35 31.5016 5.0973 30.9596 5.8994 30.6153C6.7015 30.271 6.96644 29.7688 7.58389 29.865C8.20089 29.9612 8.93357 29.8237 9.31692 29.8237C9.70028 29.8237 10.1889 29.7203 10.398 29.9956C10.6072 30.271 10.956 30.7872 10.712 30.8557C10.4679 30.9246 9.87494 31.4749 9.84001 31.6128C9.80508 31.7502 9.84001 31.9911 9.35186 31.7847C8.8637 31.5783 8.72397 31.3374 8.30568 31.5093C7.88739 31.6813 7.93231 31.9757 7.49134 31.7942C7.05037 31.6128 6.59715 31.5783 6.07361 31.8192C5.55097 32.0605 4.71394 32.1294 5.2021 31.6477Z" fill="#FDFBDC"/>
<path d="M12.9602 30.9599C12.9648 31.0969 13.3409 31.2221 13.1485 31.7624C12.9562 32.3028 13.0809 32.6576 12.7579 32.9094C12.4349 33.1612 12.1736 33.574 12.0017 33.7578C11.8298 33.9415 11.6615 34.2219 11.4342 34.197C11.2069 34.172 10.8005 34.1049 10.8762 33.9565C10.952 33.8086 10.9506 33.2746 10.8993 33.1957C10.8481 33.1163 10.7156 33.0237 11.0345 32.884C11.3534 32.7442 11.5326 32.7864 11.6365 32.5083C11.7404 32.2298 11.5775 32.1181 11.8633 31.9893C12.1491 31.8604 12.3687 31.659 12.4862 31.2997C12.6037 30.9394 12.9453 30.5075 12.9602 30.9599Z" fill="#FDFBDC"/>
<path d="M6.0109 34.7107C6.06625 34.6018 5.82672 34.3432 6.20779 34.0042C6.58931 33.6653 6.64374 33.335 7.00394 33.2774C7.36369 33.2198 7.74431 33.0097 7.95707 32.9398C8.16984 32.8704 8.42162 32.7239 8.58811 32.8405C8.75461 32.9571 9.04267 33.1839 8.92018 33.267C8.79769 33.35 8.56997 33.7665 8.57586 33.8504C8.58176 33.9339 8.64527 34.0632 8.33679 34.0355C8.0283 34.0079 7.90672 33.8981 7.7062 34.0705C7.50569 34.2429 7.58508 34.4003 7.30699 34.3781C7.0289 34.3559 6.77168 34.4189 6.5258 34.649C6.27992 34.8794 5.82898 35.07 6.0109 34.7107Z" fill="#FDFBDC"/>
<path d="M9.09076 69.1584H7.68438V48.7188C6.93309 48.1254 5.58251 46.7726 4.42973 45.1394C3.26288 43.4862 1.77438 41.06 2.05883 38.6706C2.30654 36.5878 3.8649 34.882 6.38052 33.6925C6.38052 33.6925 8.00195 32.8473 11.3922 32.5692C12.2256 32.5007 12.7211 32.9816 12.7211 32.9816C12.7211 32.9816 11.7865 33.5568 11.7107 33.614C10.3243 33.6857 8.78135 34.0173 7.09142 34.6075C5.98809 35.1342 3.40488 36.7452 3.41985 38.7078C3.16625 40.8382 4.59395 43.116 5.67142 44.6422C6.90451 46.3888 8.35763 47.7607 8.86166 48.1068L9.09122 48.2643V69.1584H9.09076Z" fill="#7F898F"/>
<defs>
<linearGradient id="paint0_linear_91_11646" x1="-5.76908" y1="44.3563" x2="24.6906" y2="43.418" gradientUnits="userSpaceOnUse">
<stop stop-color="#94938C"/>
<stop offset="0.2666" stop-color="#EDEBE1"/>
<stop offset="0.7117" stop-color="#EDEBE1"/>
<stop offset="1" stop-color="#94938C"/>
</linearGradient>
<linearGradient id="paint1_linear_91_11646" x1="0.798566" y1="19.4813" x2="15.158" y2="17.9734" gradientUnits="userSpaceOnUse">
<stop stop-color="#BFAB8D"/>
<stop offset="0.5078" stop-color="#E7E1D2"/>
<stop offset="1" stop-color="#CCBFA6"/>
</linearGradient>
</defs>
</svg>
