<svg width="19" height="70" viewBox="0 0 19 70" fill="none" xmlns="http://www.w3.org/2000/svg">
<path d="M9.50656 56.2793C9.50656 56.2793 4.1609 57.1145 2.41984 54.2732C0.678781 51.4319 8.95675 54.5903 9.50656 56.2793Z" fill="#D8D6D0"/>
<path d="M4.14062 38.3606C4.14062 38.3606 4.46727 27.248 5.4481 24.3064C6.42847 21.3648 7.40931 11.5596 7.08221 8.94468C6.75557 6.32973 6.75556 2.40775 6.75556 2.40775C6.75556 2.40775 6.42893 -0.53384 9.37051 1.75402C12.3121 4.04187 15.9074 15.1545 15.5803 19.7302C15.2532 24.3059 15.1502 38.0948 15.2019 38.0644C15.2532 38.034 4.14062 38.3606 4.14062 38.3606Z" fill="url(#paint0_linear_91_11636)"/>
<path d="M14.929 37.0552C14.929 37.0552 22.4463 48.1678 16.8902 54.0509C16.2116 54.7696 15.1441 55.2749 14.317 55.8007C13.4632 56.3438 12.5523 57.0978 11.5116 57.2153C10.318 57.3505 9.44422 56.1015 8.27104 55.8579C6.40602 55.4705 4.58092 55.7771 2.9881 54.5051C1.67292 53.4548 0.875375 51.8175 0.604536 50.178C0.267009 48.1324 0.616331 46.0537 1.02372 44.0453C1.19748 43.1892 1.49327 42.3749 1.83941 41.5728C2.20824 40.7181 2.87331 39.8838 3.16275 39.0155C3.16275 39.016 5.77768 31.172 14.929 37.0552Z" fill="url(#paint1_linear_91_11636)"/>
<path d="M4.38576 37.1216C4.38576 37.1216 4.33314 36.1126 4.4606 35.4253C4.4606 35.4253 4.56538 35.1426 4.92553 35.1204C5.28568 35.0982 5.4653 35.0755 5.53243 34.8504C5.59956 34.6254 5.93703 34.7379 5.95971 34.8278C5.98239 34.9176 6.04952 35.075 6.16201 35.0079C6.2745 34.9403 6.20691 35.3227 6.16201 35.3676C6.1171 35.4126 6.14659 35.5151 6.14659 35.5151C6.14659 35.5151 4.37714 37.0158 4.38576 37.1216Z" fill="#FDFBDC"/>
<path d="M15.094 36.2335C15.094 36.2335 14.3114 34.6442 13.6863 34.1991C13.6863 34.1991 13.4209 33.7763 13.5107 33.5517C13.6006 33.3267 13.9599 33.5449 14.1291 33.1098C14.2978 32.6747 14.2756 32.6071 14.3881 32.7418C14.5006 32.8766 14.8826 32.7418 14.8826 32.7418C14.8826 32.7418 15.1298 32.5844 15.04 32.4497C14.9502 32.3149 15.2233 32.2891 15.2233 32.2891C15.2233 32.2891 15.3054 36.0143 15.094 36.2335Z" fill="#FDFBDC"/>
<path d="M5.79585 32.101C5.94375 31.9549 5.69106 31.4128 6.49315 31.0685C7.29525 30.7242 7.56019 30.222 8.17765 30.3181C8.79464 30.4143 9.52733 30.2768 9.91068 30.2768C10.294 30.2768 10.7827 30.1734 10.9918 30.4488C11.2009 30.7242 11.5498 31.2404 11.3057 31.3089C11.0617 31.3779 10.4687 31.9282 10.4338 32.0661C10.3988 32.2035 10.4338 32.4444 9.94562 32.238C9.45746 32.0316 9.31773 31.7907 8.89944 31.9627C8.48115 32.1346 8.52607 32.429 8.08509 32.2476C7.64412 32.0661 7.1909 32.0316 6.66736 32.2725C6.14472 32.5138 5.30769 32.5828 5.79585 32.101Z" fill="#FDFBDC"/>
<path d="M13.5462 31.413C13.5508 31.55 13.9268 31.6752 13.7345 32.2155C13.5421 32.7558 13.6669 33.1106 13.3439 33.3624C13.0209 33.6141 12.7596 34.027 12.5877 34.2107C12.4157 34.3944 12.2474 34.6748 12.0201 34.6499C11.7929 34.6249 11.3864 34.5578 11.4622 34.4094C11.5379 34.2615 11.5366 33.7276 11.4853 33.6486C11.434 33.5692 11.3016 33.4767 11.6205 33.337C11.9394 33.1972 12.1186 33.2394 12.2225 32.9613C12.3264 32.6828 12.1635 32.5712 12.4493 32.4423C12.7351 32.3135 12.9547 32.1121 13.0722 31.7528C13.1896 31.3926 13.5313 30.9607 13.5462 31.413Z" fill="#FDFBDC"/>
<path d="M6.59684 35.1638C6.65218 35.0549 6.41266 34.7963 6.79373 34.4574C7.17525 34.1184 7.22968 33.7881 7.58988 33.7305C7.94963 33.6729 8.33025 33.4628 8.54301 33.393C8.75578 33.3235 9.00756 33.177 9.17405 33.2936C9.34054 33.4102 9.62861 33.6371 9.50612 33.7201C9.38363 33.8031 9.1559 34.2196 9.1618 34.3035C9.1677 34.387 9.23121 34.5163 8.92273 34.4887C8.61424 34.461 8.49265 34.3512 8.29214 34.5236C8.09162 34.696 8.17102 34.8534 7.89293 34.8312C7.61484 34.809 7.35762 34.872 7.11174 35.1021C6.86586 35.3326 6.41492 35.5231 6.59684 35.1638Z" fill="#FDFBDC"/>
<path d="M9.68452 69.6115H8.27813V49.172C7.52685 48.5786 6.17627 47.2257 5.02348 45.5925C3.85663 43.9394 2.36813 41.5131 2.65258 39.1237C2.90029 37.0409 4.45866 35.3351 6.97428 34.1456C6.97428 34.1456 8.59571 33.3004 11.986 33.0223C12.8194 32.9538 13.3148 33.4347 13.3148 33.4347C13.3148 33.4347 12.3803 34.0099 12.3045 34.0671C10.9181 34.1388 9.37511 34.4704 7.68518 35.0606C6.58185 35.5873 3.99863 37.1983 4.0136 39.1609C3.76 41.2913 5.1877 43.5692 6.26518 45.0953C7.49826 46.8419 8.95138 48.2138 9.45542 48.56L9.68498 48.7174V69.6115H9.68452Z" fill="#7F898F"/>
<defs>
<linearGradient id="paint0_linear_91_11636" x1="5.04025" y1="19.6695" x2="17.9329" y2="19.2723" gradientUnits="userSpaceOnUse">
<stop stop-color="#BFAB8D"/>
<stop offset="0.5078" stop-color="#E7E1D2"/>
<stop offset="1" stop-color="#CCBFA6"/>
</linearGradient>
<linearGradient id="paint1_linear_91_11636" x1="-6.06098" y1="46.5423" x2="25.8275" y2="45.56" gradientUnits="userSpaceOnUse">
<stop stop-color="#94938C"/>
<stop offset="0.2666" stop-color="#EDEBE1"/>
<stop offset="0.7117" stop-color="#EDEBE1"/>
<stop offset="1" stop-color="#94938C"/>
</linearGradient>
</defs>
</svg>
