<svg width="20" height="76" viewBox="0 0 20 76" fill="none" xmlns="http://www.w3.org/2000/svg">
<path d="M16.0233 45.4846C16.0233 45.4846 3.94148 42.4564 2.9375 44.183L7.81679 9.6305C7.81679 9.6305 7.66526 0.75 8.97275 0.75C10.2802 0.75 11.5877 4.67194 11.5877 4.67194C11.5877 4.67194 15.732 37.2147 16.0233 45.4846Z" fill="url(#paint0_linear_91_11629)"/>
<path d="M13.7031 41.988C13.7035 41.9889 20.8937 51.4669 19.5862 59.3107C19.1643 61.8417 18.3005 64.487 16.7748 66.5743C16.0308 67.5924 15.0641 68.5138 13.8451 68.9175C12.2327 69.4515 10.1636 69.0323 8.54714 68.6716C7.75141 68.4943 6.96972 68.2497 6.22843 67.9086C1.04573 65.525 -0.323432 59.3797 0.0934878 54.1716C0.386557 50.5133 1.49715 46.9643 2.94072 43.6117C3.87708 41.4368 6.05831 40.867 8.23546 40.559C9.87411 40.3272 12.5889 40.5191 13.7031 41.988Z" fill="url(#paint1_linear_91_11629)"/>
<path d="M4.48733 42.8952C4.48733 42.8952 4.4347 41.8861 4.56217 41.1988C4.56217 41.1988 4.66696 40.9161 5.02715 40.8939C5.38689 40.8712 5.56698 40.8489 5.63412 40.6239C5.70171 40.3989 6.03876 40.5114 6.06144 40.6012C6.08412 40.691 6.15126 40.8485 6.26376 40.7813C6.37626 40.7137 6.30867 41.0962 6.26376 41.1411C6.21885 41.1861 6.24834 41.2886 6.24834 41.2886C6.24834 41.2886 4.47871 42.7895 4.48733 42.8952Z" fill="#FDFBDC"/>
<path d="M15.1958 42.0147C15.1958 42.0147 14.4131 40.4254 13.7879 39.9804C13.7879 39.9804 13.5225 39.5575 13.6123 39.3329C13.7022 39.1079 14.0615 39.3261 14.2307 38.891C14.3995 38.4559 14.3773 38.3884 14.4898 38.5231C14.6023 38.6578 14.9844 38.5231 14.9844 38.5231C14.9844 38.5231 15.2316 38.3657 15.1418 38.2309C15.052 38.0962 15.3251 38.0703 15.3251 38.0703C15.3251 38.0703 15.4072 41.7956 15.1958 42.0147Z" fill="#FDFBDC"/>
<path d="M5.89741 37.8743C6.04531 37.7282 5.79261 37.1861 6.59471 36.8418C7.39682 36.4976 7.66176 35.9954 8.27922 36.0916C8.89667 36.1877 9.62892 36.0503 10.0123 36.0503C10.3961 36.0503 10.8842 35.9469 11.0934 36.2222C11.3025 36.4975 11.6514 37.0138 11.4073 37.0822C11.1633 37.1512 10.5703 37.7014 10.5354 37.8393C10.5004 37.9768 10.5354 38.2176 10.0472 38.0113C9.55905 37.8049 9.41932 37.564 9.00102 37.7359C8.58273 37.9078 8.62764 38.2022 8.18666 38.0208C7.74569 37.8393 7.29248 37.8048 6.76939 38.0457C6.24629 38.287 5.40925 38.356 5.89741 37.8743Z" fill="#FDFBDC"/>
<path d="M13.648 37.1864C13.6526 37.3234 14.0287 37.4487 13.8363 37.989C13.6439 38.5294 13.7687 38.8841 13.4457 39.1359C13.1226 39.3877 12.8613 39.8006 12.6893 39.9844C12.5174 40.1681 12.3491 40.4485 12.1218 40.4235C11.8945 40.3986 11.488 40.3314 11.5637 40.1831C11.6395 40.0352 11.6381 39.5012 11.5869 39.4222C11.5356 39.3428 11.4031 39.2503 11.7221 39.1105C12.041 38.9708 12.2202 39.013 12.3241 38.7349C12.428 38.4563 12.2651 38.3447 12.551 38.2158C12.8368 38.087 13.0564 37.8856 13.1739 37.5262C13.2914 37.166 13.633 36.7341 13.648 37.1864Z" fill="#FDFBDC"/>
<path d="M6.6984 40.9372C6.75375 40.8283 6.5142 40.5697 6.8953 40.2308C7.27685 39.8919 7.33131 39.5616 7.69154 39.504C8.05132 39.4463 8.43196 39.2363 8.64474 39.1664C8.85752 39.097 9.10887 38.9504 9.27583 39.067C9.44233 39.1836 9.73042 39.4105 9.60792 39.4935C9.48543 39.5766 9.25768 39.993 9.26358 40.077C9.26948 40.1605 9.33299 40.2898 9.02448 40.2621C8.71597 40.2344 8.59439 40.1246 8.39385 40.297C8.19332 40.4694 8.27271 40.6269 7.99459 40.6047C7.71648 40.5824 7.45925 40.6455 7.21335 40.8755C6.96745 41.106 6.51647 41.2966 6.6984 40.9372Z" fill="#FDFBDC"/>
<path d="M9.78592 75.3927H8.37957V54.9532C7.6283 54.3598 6.27774 53.007 5.12498 51.3738C3.95816 49.7206 2.4697 47.2944 2.75414 44.9049C3.00184 42.8221 4.56017 41.1164 7.07573 39.9268C7.07573 39.9268 8.69713 39.0817 12.0874 38.8036C12.9207 38.7351 13.4161 39.2159 13.4161 39.2159C13.4161 39.2159 12.4816 39.7912 12.4058 39.8484C11.0194 39.92 9.47653 40.2517 7.78664 40.8419C6.68333 41.3686 4.10016 42.9796 4.11513 44.9421C3.86154 47.0726 5.28921 49.3504 6.36666 50.8766C7.59972 52.6232 9.05281 53.9951 9.55683 54.3412L9.78637 54.4986V75.3927H9.78592Z" fill="#7F898F"/>
<defs>
<linearGradient id="paint0_linear_91_11629" x1="4.59821" y1="23.3607" x2="14.203" y2="23.0649" gradientUnits="userSpaceOnUse">
<stop stop-color="#BFAB8D"/>
<stop offset="0.5078" stop-color="#E7E1D2"/>
<stop offset="1" stop-color="#CCBFA6"/>
</linearGradient>
<linearGradient id="paint1_linear_91_11629" x1="-5.48517" y1="54.5332" x2="26.3194" y2="55.1017" gradientUnits="userSpaceOnUse">
<stop stop-color="#94938C"/>
<stop offset="0.2666" stop-color="#EDEBE1"/>
<stop offset="0.7117" stop-color="#EDEBE1"/>
<stop offset="1" stop-color="#94938C"/>
</linearGradient>
</defs>
</svg>
