<svg width="20" height="70" viewBox="0 0 20 70" fill="none" xmlns="http://www.w3.org/2000/svg">
<path d="M13.3327 34.7564C13.3327 34.7564 16.601 36.0639 17.5818 43.581C17.5818 43.581 18.5622 51.4253 18.8893 53.7131C19.2159 56.0009 19.2159 58.9425 15.6211 59.9228C12.0257 60.9032 8.75748 60.2495 6.79627 59.5962C4.83505 58.9425 1.89346 56.9813 1.23972 54.6935C0.58598 52.4057 1.23971 41.2932 2.22009 39.332C3.20047 37.3709 5.48834 32.1415 13.3327 34.7564Z" fill="url(#paint0_linear_91_12017)"/>
<path d="M10.0665 3.70965C10.0665 3.70965 17.2409 19.3947 14.3074 35.9017C14.3074 35.9017 3.90509 34.6687 3.39062 37.4923C4.84964 30.6251 5.55057 23.3983 5.26385 16.3882C5.14725 13.5442 4.94673 10.7043 4.86688 7.85887C4.81516 6.0061 4.49306 3.88929 5.28835 2.16355C5.62225 1.43814 6.17437 0.372023 7.08036 0.287187C8.61786 0.143375 9.60553 2.64988 10.0665 3.70965Z" fill="url(#paint1_linear_91_12017)"/>
<path d="M3.69045 36.8012C3.69045 36.8012 3.63782 35.7923 3.76531 35.1049C3.76531 35.1049 3.87012 34.8223 4.23036 34.8001C4.59014 34.7774 4.77026 34.7552 4.83741 34.5301C4.90501 34.3051 5.24213 34.4176 5.26482 34.5075C5.2875 34.5973 5.35465 34.7547 5.46717 34.6876C5.57969 34.6204 5.51208 35.0024 5.46717 35.0473C5.42225 35.0922 5.45173 35.1948 5.45173 35.1948C5.45173 35.1948 3.68183 36.6955 3.69045 36.8012Z" fill="#FDFBDC"/>
<path d="M14.4067 35.9127C14.4067 35.9127 13.6241 34.3236 12.9988 33.8786C12.9988 33.8786 12.7334 33.4558 12.8233 33.2312C12.9131 33.0062 13.2724 33.2244 13.4417 32.7894C13.6105 32.3543 13.5882 32.2867 13.7007 32.4215C13.8133 32.5562 14.1953 32.4215 14.1953 32.4215C14.1953 32.4215 14.4426 32.2641 14.3527 32.1293C14.2629 31.9946 14.536 31.9688 14.536 31.9688C14.536 31.9688 14.6182 35.6936 14.4067 35.9127Z" fill="#FDFBDC"/>
<path d="M5.10059 31.7809C5.2485 31.6348 4.99579 31.0926 5.79793 30.7483C6.60006 30.4039 6.86501 29.9016 7.48249 29.9978C8.09997 30.094 8.83224 29.9565 9.21562 29.9565C9.59899 29.9565 10.0876 29.8531 10.2968 30.1285C10.5059 30.4039 10.8548 30.9202 10.6107 30.9887C10.3666 31.0577 9.77365 31.608 9.73872 31.746C9.70378 31.8839 9.73873 32.1244 9.25055 31.9179C8.76238 31.7115 8.62263 31.4706 8.20433 31.6425C7.78602 31.8145 7.83093 32.1089 7.38994 31.9275C6.94894 31.746 6.4957 31.7115 5.97214 31.9524C5.44903 32.1938 4.61241 32.2628 5.10059 31.7809Z" fill="#FDFBDC"/>
<path d="M12.859 31.0927C12.8635 31.2297 13.2396 31.3549 13.0472 31.8953C12.8549 32.4356 12.9796 32.7904 12.6566 33.0422C12.3336 33.294 12.0722 33.7069 11.9003 33.8906C11.7283 34.0744 11.56 34.3547 11.3327 34.3298C11.1054 34.3048 10.6989 34.2377 10.7746 34.0893C10.8504 33.9414 10.8491 33.4074 10.7978 33.3285C10.7465 33.2491 10.614 33.1565 10.933 33.0168C11.2519 32.8771 11.4312 32.9192 11.5351 32.6411C11.639 32.3626 11.4761 32.251 11.7619 32.1221C12.0477 31.9933 12.2673 31.7918 12.3848 31.4325C12.5023 31.0723 12.844 30.6403 12.859 31.0927Z" fill="#FDFBDC"/>
<path d="M5.90949 34.8431C5.96484 34.7342 5.72529 34.4756 6.10639 34.1368C6.48794 33.7979 6.5424 33.4677 6.90263 33.4101C7.2624 33.3525 7.64304 33.1425 7.85582 33.0726C8.0686 33.0032 8.3204 32.8567 8.48691 32.9733C8.65341 33.0899 8.94149 33.3167 8.819 33.3997C8.6965 33.4827 8.46876 33.8991 8.47466 33.983C8.48055 34.0665 8.54407 34.1958 8.23556 34.1681C7.92705 34.1404 7.80547 34.0306 7.60494 34.203C7.40441 34.3754 7.48379 34.5328 7.20568 34.5106C6.92802 34.4883 6.67034 34.5514 6.42444 34.7814C6.17854 35.0114 5.72711 35.2023 5.90949 34.8431Z" fill="#FDFBDC"/>
<path d="M9.44216 69.4318H8.03581V48.9923C7.28454 48.3989 5.93398 47.046 4.78122 45.4128C3.6144 43.7597 2.12595 41.3335 2.41039 38.944C2.65809 36.8612 4.21641 35.1554 6.73197 33.9659C6.73197 33.9659 8.35337 33.1207 11.7436 32.8426C12.577 32.7741 13.0724 33.255 13.0724 33.255C13.0724 33.255 12.1378 33.8303 12.0621 33.8874C10.6757 33.9591 9.13277 34.2907 7.44288 34.8809C6.33957 35.4077 3.75641 37.0186 3.77138 38.9812C3.51778 41.1116 4.94546 43.3895 6.0229 44.9156C7.25596 46.6622 8.70905 48.0341 9.21307 48.3803L9.44261 48.5377V69.4318H9.44216Z" fill="#7F898F"/>
<defs>
<linearGradient id="paint0_linear_91_12017" x1="23.4981" y1="47.8803" x2="-2.51258" y2="46.5771" gradientUnits="userSpaceOnUse">
<stop stop-color="#94938C"/>
<stop offset="0.1599" stop-color="#D1CFC6"/>
<stop offset="0.2296" stop-color="#EDEBE1"/>
<stop offset="0.7988" stop-color="#EDEBE1"/>
<stop offset="0.9762" stop-color="#9F9E96"/>
<stop offset="1" stop-color="#94938C"/>
</linearGradient>
<linearGradient id="paint1_linear_91_12017" x1="6.02009" y1="18.8997" x2="15.0011" y2="19.0603" gradientUnits="userSpaceOnUse">
<stop stop-color="#BFAB8D"/>
<stop offset="0.5078" stop-color="#E7E1D2"/>
<stop offset="1" stop-color="#CCBFA6"/>
</linearGradient>
</defs>
</svg>
