<svg width="26" height="75" viewBox="0 0 26 75" fill="none" xmlns="http://www.w3.org/2000/svg">
<path d="M13.0009 0.891539C14.5538 2.41722 15.3277 5.67092 16.1094 7.65663C18.4993 13.7285 20.3157 20.0345 21.3682 26.4779C21.8922 29.6849 22.227 32.9236 22.3545 36.171C22.4189 37.8042 22.4312 39.4392 22.3899 41.0733C22.3563 42.4107 22.5768 44.3556 22.021 45.5687C21.3369 44.7956 20.8497 43.8661 20.1256 43.1225C18.3555 41.3042 16.0667 40.004 13.4822 40.0027C12.3912 40.0022 11.3192 40.2236 10.2998 40.5961C9.88604 40.7471 9.48137 40.9227 9.08714 41.1187C7.9371 41.6903 6.55297 43.4156 5.32945 43.5086C5.1507 41.1164 5.75542 38.4316 5.98316 36.0326C5.98316 29.9426 7.18629 23.5109 8.0977 17.5021C8.37171 15.6947 8.78409 13.9113 8.74598 12.0785C8.70651 10.1863 8.49419 8.29629 8.62258 6.40268C8.73781 4.70733 8.95012 0.612987 11.2851 0.353036C11.7442 0.301771 12.1961 0.471894 12.6266 0.639297C12.7645 0.693283 12.8884 0.780844 13.0009 0.891539Z" fill="url(#paint0_linear_103_36967)"/>
<path d="M25.2852 69.5404C25.2852 69.5404 27.573 42.7395 15.4801 38.8171C15.4801 38.8171 1.75269 36.5292 0.445687 60.3885C0.408486 61.069 0.302781 61.7459 0.273746 62.4291C0.21114 63.9199 0.265126 65.4265 0.522354 66.8982C0.792738 68.4439 1.29811 70.0412 2.3488 71.2421C2.85826 71.8241 3.49385 72.286 4.21518 72.5691C4.84033 72.8145 5.52855 72.9066 6.18455 73.0413C6.99207 73.2074 7.80139 73.3634 8.61526 73.4941C9.05441 73.5644 9.49539 73.6279 9.9368 73.681C11.5596 73.8765 13.1955 73.9382 14.8291 73.9999C17.4826 74.1002 20.2327 74.2322 22.7115 73.0971C24.1782 72.4262 25.2852 71.2217 25.2852 69.5404Z" fill="url(#paint1_linear_103_36967)"/>
<path d="M5.30295 43.6286C5.30295 43.6286 5.1968 41.5931 5.45402 40.2067C5.45402 40.2067 5.66587 39.6365 6.39171 39.5911C7.11754 39.5457 7.48046 39.5004 7.61655 39.0467C7.75265 38.5931 8.43312 38.8199 8.47848 39.0014C8.52385 39.1828 8.65994 39.5004 8.88676 39.3643C9.11359 39.2282 8.97749 39.9994 8.88676 40.0901C8.79604 40.1809 8.85591 40.3873 8.85591 40.3873C8.85591 40.3873 5.28571 43.4159 5.30295 43.6286Z" fill="#FDFBDC"/>
<path d="M22.1531 45.3247C22.1531 45.3247 20.5744 42.1187 19.3133 41.2205C19.3133 41.2205 18.778 40.3676 18.9594 39.914C19.1409 39.4603 19.8658 39.9008 20.2065 39.0226C20.5472 38.1447 20.5018 38.0086 20.7287 38.2808C20.9555 38.553 21.7267 38.2808 21.7267 38.2808C21.7267 38.2808 22.2257 37.9633 22.0443 37.6911C21.8628 37.4189 22.414 37.3672 22.414 37.3672C22.414 37.3672 22.58 44.8828 22.1531 45.3247Z" fill="#FDFBDC"/>
<path d="M7.39494 35.6952C7.5873 35.5028 7.25884 34.7878 8.30227 34.3341C9.3457 33.8804 9.69048 33.218 10.4935 33.3451C11.2965 33.4721 12.2492 33.2906 12.7482 33.2906C13.2472 33.2906 13.8823 33.1545 14.1545 33.5175C14.4267 33.8804 14.8804 34.561 14.5628 34.6517C14.2453 34.7424 13.4741 35.4683 13.4287 35.6498C13.3833 35.8313 13.4287 36.1489 12.7936 35.8767C12.1584 35.6045 11.977 35.2869 11.4326 35.5137C10.8882 35.7406 10.9467 36.1285 10.3732 35.8894C9.79936 35.6498 9.2096 35.6045 8.52911 35.922C7.84861 36.2396 6.75981 36.3304 7.39494 35.6952Z" fill="#FDFBDC"/>
<path d="M18.7492 36.3904C18.619 36.5301 18.8676 37.0229 18.1477 37.3677C17.4278 37.7125 17.2028 38.1853 16.6371 38.1168C16.0714 38.0483 15.4082 38.1998 15.0585 38.2121C14.7087 38.2248 14.2669 38.3364 14.0668 38.0887C13.8668 37.8409 13.5316 37.3759 13.752 37.3042C13.9725 37.2325 14.4942 36.7039 14.5214 36.576C14.5486 36.4476 14.5087 36.2261 14.9609 36.4008C15.4128 36.5755 15.5484 36.7933 15.924 36.6209C16.2996 36.448 16.2488 36.1776 16.6571 36.3309C17.0653 36.4843 17.4799 36.5011 17.9485 36.2611C18.4171 36.0211 19.1783 35.929 18.7492 36.3904Z" fill="#FDFBDC"/>
<path d="M9.18683 38.5822C9.23718 38.4833 9.01942 38.2484 9.36601 37.9404C9.7126 37.6324 9.76207 37.3325 10.0891 37.2804C10.4162 37.2277 10.7619 37.0372 10.9552 36.9737C11.1484 36.9107 11.3771 36.7773 11.5281 36.8834C11.6796 36.9896 11.9414 37.1955 11.8298 37.2708C11.7182 37.3461 11.5118 37.7249 11.5172 37.8007C11.5227 37.8769 11.5803 37.9939 11.2999 37.9689C11.0196 37.944 10.9093 37.8442 10.727 38.0007C10.545 38.1572 10.6167 38.3001 10.3645 38.2801C10.1123 38.2602 9.8782 38.3173 9.65455 38.5264C9.43135 38.7356 9.02125 38.9084 9.18683 38.5822Z" fill="#FDFBDC"/>
<path d="M10.2075 71.2599H8.80118V50.8204C8.04995 50.227 6.69945 48.8742 5.54674 47.241C4.37997 45.5878 2.89158 43.1616 3.17602 40.7721C3.42371 38.6893 4.98196 36.9835 7.49741 35.794C7.49741 35.794 9.11873 34.9488 12.5088 34.6707C13.3421 34.6022 13.8375 35.0831 13.8375 35.0831C13.8375 35.0831 12.903 35.6584 12.8273 35.7155C11.4409 35.7872 9.8981 36.1188 8.20828 36.7091C7.10502 37.2358 4.52197 38.8468 4.53694 40.8093C4.28336 42.9397 5.71097 45.2176 6.78837 46.7437C8.02137 48.4904 9.4744 49.8623 9.9784 50.2084L10.2079 50.3658V71.2599H10.2075Z" fill="#7F898F"/>
<defs>
<linearGradient id="paint0_linear_103_36967" x1="18.6873" y1="22.9215" x2="5.20638" y2="23.1625" gradientUnits="userSpaceOnUse">
<stop stop-color="#BFAB8D"/>
<stop offset="0.5078" stop-color="#E7E1D2"/>
<stop offset="1" stop-color="#CCBFA6"/>
</linearGradient>
<linearGradient id="paint1_linear_103_36967" x1="30.3604" y1="56.4035" x2="-4.6608" y2="56.4213" gradientUnits="userSpaceOnUse">
<stop stop-color="#94938C"/>
<stop offset="0.2296" stop-color="#EDEBE1"/>
<stop offset="0.7876" stop-color="#EDEBE1"/>
<stop offset="1" stop-color="#94938C"/>
</linearGradient>
</defs>
</svg>
