<svg width="26" height="75" viewBox="0 0 26 75" fill="none" xmlns="http://www.w3.org/2000/svg">
<path d="M13.2412 0.938412C11.6883 2.46409 10.9143 5.71778 10.1327 7.70348C7.74273 13.7753 5.92623 20.0813 4.87372 26.5247C4.34974 29.7317 4.01494 32.9704 3.88746 36.2178C3.82304 37.851 3.8108 39.486 3.85208 41.1201C3.88566 42.4575 3.66517 44.4023 4.22091 45.6154C4.90504 44.8424 5.39227 43.9128 6.11632 43.1693C7.88653 41.351 10.1753 40.0508 12.7598 40.0494C13.8509 40.049 14.9229 40.2704 15.9423 40.6428C16.3561 40.7939 16.7607 40.9694 17.155 41.1654C18.305 41.737 19.6891 43.4624 20.9127 43.5554C21.0914 41.1632 20.4867 38.4784 20.259 36.0794C20.259 29.9894 19.0558 23.5578 18.1444 17.5489C17.8704 15.7415 17.458 13.9582 17.4961 12.1254C17.5356 10.2331 17.7479 8.34314 17.6195 6.44954C17.5043 4.75419 17.292 0.659861 14.9569 0.399911C14.4978 0.348646 14.046 0.518768 13.6155 0.686171C13.4775 0.740157 13.3537 0.827718 13.2412 0.938412Z" fill="url(#paint0_linear_91_11903)"/>
<path d="M0.961463 69.5873C0.961463 69.5873 -1.32637 42.7863 10.7665 38.8639C10.7665 38.8639 24.4939 36.5761 25.8009 60.4354C25.8381 61.1159 25.9438 61.7928 25.9729 62.476C26.0355 63.9668 25.9815 65.4734 25.7243 66.9451C25.4539 68.4907 24.9485 70.0881 23.8978 71.289C23.3884 71.871 22.7528 72.3329 22.0314 72.6159C21.4063 72.8614 20.7181 72.9535 20.0621 73.0882C19.2546 73.2542 18.4452 73.4103 17.6314 73.541C17.1922 73.6113 16.7512 73.6748 16.3098 73.7279C14.6871 73.9234 13.0512 73.9851 11.4175 74.0468C8.76403 74.1471 6.01392 74.2791 3.5351 73.144C2.0684 72.473 0.961463 71.2685 0.961463 69.5873Z" fill="url(#paint1_linear_91_11903)"/>
<path d="M20.9423 43.6755C20.9423 43.6755 21.0485 41.64 20.7912 40.2536C20.7912 40.2536 20.5794 39.6834 19.8536 39.638C19.1277 39.5926 18.7648 39.5473 18.6287 39.0936C18.4926 38.6399 17.8122 38.8668 17.7668 39.0482C17.7214 39.2297 17.5853 39.5473 17.3585 39.4112C17.1317 39.2751 17.2678 40.0463 17.3585 40.137C17.4492 40.2277 17.3894 40.4342 17.3894 40.4342C17.3894 40.4342 20.9596 43.4628 20.9423 43.6755Z" fill="#FDFBDC"/>
<path d="M4.0972 45.3716C4.0972 45.3716 5.67601 42.1656 6.93725 41.2674C6.93725 41.2674 7.47259 40.4145 7.29111 39.9609C7.10964 39.5072 6.38467 39.9477 6.04395 39.0694C5.70324 38.1916 5.74859 38.0555 5.52175 38.3277C5.29491 38.5999 4.52365 38.3277 4.52365 38.3277C4.52365 38.3277 4.0246 38.0102 4.20608 37.738C4.38755 37.4658 3.83633 37.4141 3.83633 37.4141C3.83633 37.4141 3.67074 44.9297 4.0972 45.3716Z" fill="#FDFBDC"/>
<path d="M18.8624 35.7419C18.6701 35.5495 18.9985 34.8346 17.9551 34.3809C16.9116 33.9272 16.5669 33.2649 15.7639 33.3919C14.9609 33.519 14.0082 33.3375 13.5092 33.3375C13.0101 33.3375 12.375 33.2014 12.1028 33.5643C11.8306 33.9272 11.3769 34.6077 11.6945 34.6985C12.0121 34.7892 12.7833 35.515 12.8287 35.6965C12.874 35.878 12.8287 36.1955 13.4638 35.9233C14.0989 35.6511 14.2804 35.3336 14.8248 35.5604C15.3692 35.7872 15.3107 36.1751 15.8841 35.936C16.458 35.6965 17.0477 35.6511 17.7282 35.9687C18.4087 36.2862 19.4975 36.377 18.8624 35.7419Z" fill="#FDFBDC"/>
<path d="M7.50166 36.4372C7.63187 36.5769 7.38323 37.0696 8.10327 37.4143C8.82331 37.7591 9.04836 38.2318 9.61414 38.1633C10.1799 38.0948 10.8432 38.2463 11.193 38.2585C11.5429 38.2708 11.9848 38.3828 12.1849 38.1352C12.3849 37.8875 12.7202 37.4225 12.4997 37.3508C12.2792 37.2791 11.757 36.7507 11.7302 36.6227C11.7035 36.4948 11.7429 36.273 11.2906 36.4476C10.8387 36.6223 10.703 36.84 10.3274 36.6676C9.95169 36.4953 10.0025 36.2244 9.59416 36.3778C9.18582 36.5311 8.77114 36.5479 8.30245 36.3079C7.83377 36.0679 7.07244 35.9759 7.50166 36.4372Z" fill="#FDFBDC"/>
<path d="M17.0605 38.6291C17.0101 38.5302 17.2279 38.2953 16.8813 37.9872C16.5347 37.6792 16.4853 37.3794 16.1582 37.3272C15.8311 37.2746 15.4854 37.0841 15.2922 37.0206C15.0989 36.9575 14.8703 36.8242 14.7192 36.9303C14.5677 37.0365 14.306 37.2424 14.4176 37.3177C14.5291 37.393 14.7356 37.7718 14.7301 37.8475C14.7247 37.9237 14.667 38.0408 14.9474 38.0158C15.2278 37.9909 15.338 37.8911 15.5204 38.0476C15.7023 38.2041 15.6306 38.347 15.8828 38.327C16.1351 38.307 16.3691 38.3642 16.5928 38.5733C16.816 38.7824 17.2261 38.9553 17.0605 38.6291Z" fill="#FDFBDC"/>
<path d="M16.0443 71.3068H17.4506V50.8673C18.2019 50.2739 19.5525 48.921 20.7052 47.2878C21.872 45.6347 23.3605 43.2085 23.0761 40.819C22.8284 38.7362 21.27 37.0304 18.7545 35.8409C18.7545 35.8409 17.1331 34.9957 13.7428 34.7176C12.9095 34.6491 12.4141 35.13 12.4141 35.13C12.4141 35.13 13.3486 35.7053 13.4244 35.7624C14.8108 35.8341 16.3537 36.1657 18.0436 36.7559C19.1469 37.2827 21.73 38.8936 21.7151 40.8562C21.9687 42.9866 20.541 45.2645 19.4635 46.7906C18.2305 48.5372 16.7774 49.9091 16.2734 50.2553L16.0438 50.4127V71.3068H16.0443Z" fill="#7F898F"/>
<defs>
<linearGradient id="paint0_linear_91_11903" x1="7.55476" y1="22.9683" x2="21.0358" y2="23.2093" gradientUnits="userSpaceOnUse">
<stop stop-color="#BFAB8D"/>
<stop offset="0.5078" stop-color="#E7E1D2"/>
<stop offset="1" stop-color="#CCBFA6"/>
</linearGradient>
<linearGradient id="paint1_linear_91_11903" x1="-4.11359" y1="56.4504" x2="30.9075" y2="56.4683" gradientUnits="userSpaceOnUse">
<stop stop-color="#94938C"/>
<stop offset="0.2296" stop-color="#EDEBE1"/>
<stop offset="0.7876" stop-color="#EDEBE1"/>
<stop offset="1" stop-color="#94938C"/>
</linearGradient>
</defs>
</svg>
