<svg width="667" height="247" viewBox="0 0 667 247" fill="none" xmlns="http://www.w3.org/2000/svg">
<path d="M0.5 202.792V203.292H1H114.731V239.565V240.065H115.231H176.246H176.746V239.565V203.292H203.313H203.813V202.792V153.148V152.648H203.313H176.746V4.21763V3.71763H176.246H95.5044H95.2295L95.0822 3.94974L0.577824 152.88L0.5 153.003V153.148V202.792ZM463.187 202.792V203.292H463.687H577.418V239.565V240.065H577.918H638.933H639.433V239.565V203.292H666H666.5V202.792V153.148V152.648H666H639.433V4.21763V3.71763H638.933H558.192H557.917L557.769 3.94974L463.265 152.88L463.187 153.003V153.148V202.792ZM116.107 152.648H64.35V151.454L115.048 70.9089H116.107V152.648ZM332.367 246.5C364.436 246.557 390.475 235.072 408.502 213.759C426.52 192.455 436.49 161.387 436.547 122.351C436.604 83.5438 426.634 53.0757 408.583 32.3025C390.525 11.5205 364.43 0.5 332.367 0.5C300.249 0.5 274.239 11.4626 256.237 32.2167C238.244 52.9612 228.303 83.4288 228.188 122.349C228.073 161.214 238.014 192.226 256.061 213.543C274.116 234.871 300.24 246.442 332.367 246.5ZM332.367 193.558C321.56 193.558 312.253 188.131 305.649 176.53C299.03 164.903 295.135 147.076 295.249 122.353C295.364 98.203 299.259 80.8366 305.819 69.525C312.363 58.2424 321.555 52.9821 332.367 52.9821C343.181 52.9821 352.401 58.2428 358.959 69.5254C365.534 80.8366 369.428 98.2025 369.486 122.352C369.543 147.076 365.648 164.903 359.042 176.531C352.453 188.131 343.174 193.558 332.367 193.558ZM578.795 152.648H527.037V151.454L577.736 70.9089H578.795V152.648Z" stroke="#D73F34" stroke-opacity="0.1"/>
<path d="M61 188.551H154.618V218.72H204.623V188.551H226.805V147.824H204.623V25.6398H138.451L61 147.824V188.551ZM155.746 147.824H112.509V146.315L154.242 79.9437H155.746V147.824Z" fill="#D73F34" fill-opacity="0.05"/>
<path d="M332.572 224C384.926 224.094 417.448 186.477 417.542 122.557C417.636 59.014 384.926 23 332.572 23C280.123 23 247.789 58.8255 247.601 122.557C247.413 186.195 280.123 223.906 332.572 224ZM332.572 181.386C314.525 181.386 301.554 163.191 301.742 122.557C301.93 82.8663 314.525 65.2364 332.572 65.2364C350.619 65.2364 363.308 82.8663 363.402 122.557C363.496 163.191 350.619 181.386 332.572 181.386Z" fill="#D73F34" fill-opacity="0.05"/>
<path d="M440.195 188.551H533.813V218.72H583.817V188.551H606V147.824H583.817V25.6398H517.646L440.195 147.824V188.551ZM534.941 147.824H491.703V146.315L533.437 79.9437H534.941V147.824Z" fill="#D73F34" fill-opacity="0.05"/>
<path d="M127.262 172.273H198.001V195H235.785V172.273H252.546V141.591H235.785V49.5455H185.785L127.262 141.591V172.273ZM198.853 141.591H166.183V140.455L197.717 90.4545H198.853V141.591ZM332.464 198.977C372.024 199.048 396.598 170.71 396.669 122.557C396.74 74.6875 372.024 47.5568 332.464 47.5568C292.834 47.5568 268.402 74.5455 268.26 122.557C268.118 170.497 292.834 198.906 332.464 198.977ZM332.464 166.875C318.828 166.875 309.027 153.168 309.169 122.557C309.311 92.6562 318.828 79.375 332.464 79.375C346.101 79.375 355.689 92.6562 355.76 122.557C355.831 153.168 346.101 166.875 332.464 166.875ZM413.786 172.273H484.524V195H522.308V172.273H539.07V141.591H522.308V49.5455H472.308L413.786 141.591V172.273ZM485.376 141.591H452.706V140.455L484.24 90.4545H485.376V141.591Z" fill="#D73F34"/>
<mask id="mask0_1034_17525" style="mask-type:alpha" maskUnits="userSpaceOnUse" x="127" y="47" width="413" height="153">
<path d="M127.262 172.273H198.001V195H235.785V172.273H252.546V141.591H235.785V49.5455H185.785L127.262 141.591V172.273ZM198.853 141.591H166.183V140.455L197.717 90.4545H198.853V141.591ZM332.464 198.977C372.024 199.048 396.598 170.71 396.669 122.557C396.74 74.6875 372.024 47.5568 332.464 47.5568C292.834 47.5568 268.402 74.5455 268.26 122.557C268.118 170.497 292.834 198.906 332.464 198.977ZM332.464 166.875C318.828 166.875 309.027 153.168 309.169 122.557C309.311 92.6562 318.828 79.375 332.464 79.375C346.101 79.375 355.689 92.6562 355.76 122.557C355.831 153.168 346.101 166.875 332.464 166.875ZM413.786 172.273H484.524V195H522.308V172.273H539.07V141.591H522.308V49.5455H472.308L413.786 141.591V172.273ZM485.376 141.591H452.706V140.455L484.24 90.4545H485.376V141.591Z" fill="#D73F34"/>
</mask>
<g mask="url(#mask0_1034_17525)">
<mask id="mask1_1034_17525" style="mask-type:alpha" maskUnits="userSpaceOnUse" x="-273" y="-306" width="1475" height="1002">
<rect x="-272.84" y="140.919" width="1356.4" height="586.762" transform="rotate(-19.2055 -272.84 140.919)" fill="url(#paint0_linear_1034_17525)"/>
</mask>
<g mask="url(#mask1_1034_17525)">
<path d="M77.4547 656.368C257.843 646.709 396.247 492.646 386.589 312.257C376.93 131.868 222.867 -6.53557 42.478 3.12297C-137.911 12.7815 -276.315 166.845 -266.656 347.234C-256.998 527.622 -102.934 666.026 77.4547 656.368Z" stroke="white" stroke-opacity="0.15" stroke-miterlimit="10" stroke-linecap="round" style="mix-blend-mode:soft-light"/>
<path d="M76.4156 667.546C256.804 657.887 395.208 503.823 385.55 323.435C375.891 143.046 221.828 4.64216 41.4389 14.3007C-138.95 23.9593 -277.354 178.023 -267.695 358.412C-258.037 538.8 -103.973 677.204 76.4156 667.546Z" stroke="white" stroke-opacity="0.15" stroke-miterlimit="10" stroke-linecap="round" style="mix-blend-mode:soft-light"/>
<path d="M72.1305 678.796C252.519 669.137 390.923 515.073 381.265 334.685C371.606 154.296 217.542 15.8922 37.1538 25.5507C-143.235 35.2093 -281.639 189.273 -271.98 369.662C-262.322 550.05 -108.258 688.454 72.1305 678.796Z" stroke="white" stroke-opacity="0.15" stroke-miterlimit="10" stroke-linecap="round" style="mix-blend-mode:soft-light"/>
<path d="M64.6304 689.993C245.019 680.334 383.423 526.271 373.765 345.882C364.106 165.493 210.042 27.0894 29.6537 36.748C-150.735 46.4065 -289.139 200.47 -279.48 380.859C-269.822 561.247 -115.758 699.651 64.6304 689.993Z" stroke="white" stroke-opacity="0.15" stroke-miterlimit="10" stroke-linecap="round" style="mix-blend-mode:soft-light"/>
<path d="M53.9937 701.025C234.382 691.367 372.786 537.303 363.128 356.914C353.469 176.526 199.406 38.1217 19.017 47.7802C-161.372 57.4388 -299.776 211.502 -290.117 391.891C-280.459 572.28 -126.395 710.684 53.9937 701.025Z" stroke="white" stroke-opacity="0.15" stroke-miterlimit="10" stroke-linecap="round" style="mix-blend-mode:soft-light"/>
<path d="M40.3257 711.782C220.714 702.123 359.118 548.06 349.46 367.671C339.801 187.283 185.738 48.8785 5.34905 58.537C-175.04 68.1956 -313.444 222.259 -303.785 402.648C-294.127 583.036 -140.063 721.44 40.3257 711.782Z" stroke="white" stroke-opacity="0.15" stroke-miterlimit="10" stroke-linecap="round" style="mix-blend-mode:soft-light"/>
<path d="M23.7632 722.175C204.152 712.516 342.556 558.452 332.897 378.064C323.239 197.675 169.175 59.2711 -11.2135 68.9296C-191.602 78.5882 -330.006 232.652 -320.348 413.04C-310.689 593.429 -156.625 731.833 23.7632 722.175Z" stroke="white" stroke-opacity="0.15" stroke-miterlimit="10" stroke-linecap="round" style="mix-blend-mode:soft-light"/>
<path d="M4.482 732.077C184.871 722.418 323.275 568.355 313.616 387.966C303.958 207.577 149.894 69.1734 -30.4947 78.832C-210.883 88.4905 -349.287 242.554 -339.629 422.943C-329.97 603.331 -175.907 741.735 4.482 732.077Z" stroke="white" stroke-opacity="0.15" stroke-miterlimit="10" stroke-linecap="round" style="mix-blend-mode:soft-light"/>
<path d="M-17.3344 741.39C163.054 731.732 301.458 577.668 291.8 397.28C282.141 216.891 128.078 78.4869 -52.3111 88.1454C-232.7 97.804 -371.104 251.868 -361.445 432.256C-351.787 612.645 -197.723 751.049 -17.3344 741.39Z" stroke="white" stroke-opacity="0.15" stroke-miterlimit="10" stroke-linecap="round" style="mix-blend-mode:soft-light"/>
<path d="M-41.4673 750.04C138.921 740.381 277.325 586.318 267.667 405.929C258.008 225.54 103.945 87.1363 -76.444 96.7949C-256.833 106.453 -395.237 260.517 -385.578 440.906C-375.92 621.294 -221.856 759.698 -41.4673 750.04Z" stroke="white" stroke-opacity="0.15" stroke-miterlimit="10" stroke-linecap="round" style="mix-blend-mode:soft-light"/>
<path d="M-67.6782 757.916C112.71 748.257 251.114 594.194 241.456 413.805C231.797 233.416 77.7337 95.0123 -102.655 104.671C-283.043 114.329 -421.448 268.393 -411.789 448.782C-402.13 629.17 -248.067 767.574 -67.6782 757.916Z" stroke="white" stroke-opacity="0.15" stroke-miterlimit="10" stroke-linecap="round" style="mix-blend-mode:soft-light"/>
<path d="M-95.7016 764.958C84.687 755.299 223.091 601.236 213.432 420.847C203.774 240.458 49.7103 102.054 -130.678 111.713C-311.067 121.371 -449.471 275.435 -439.812 455.824C-430.154 636.212 -276.09 774.616 -95.7016 764.958Z" stroke="white" stroke-opacity="0.15" stroke-miterlimit="10" stroke-linecap="round" style="mix-blend-mode:soft-light"/>
<path d="M-125.268 771.102C55.1206 761.444 193.525 607.38 183.866 426.991C174.208 246.603 20.1439 108.199 -160.245 117.857C-340.633 127.516 -479.037 281.58 -469.379 461.968C-459.72 642.357 -305.657 780.761 -125.268 771.102Z" stroke="white" stroke-opacity="0.15" stroke-miterlimit="10" stroke-linecap="round" style="mix-blend-mode:soft-light"/>
<path d="M-156.061 776.257C24.3276 766.598 162.732 612.534 153.073 432.146C143.415 251.757 -10.6491 113.353 -191.038 123.012C-371.426 132.67 -509.83 286.734 -500.172 467.122C-490.513 647.511 -336.45 785.915 -156.061 776.257Z" stroke="white" stroke-opacity="0.15" stroke-miterlimit="10" stroke-linecap="round" style="mix-blend-mode:soft-light"/>
<path d="M-187.784 780.399C-7.3951 770.741 131.009 616.677 121.35 436.288C111.692 255.9 -42.3718 117.496 -222.76 127.154C-403.149 136.813 -541.553 290.876 -531.894 471.265C-522.236 651.654 -368.172 790.058 -187.784 780.399Z" stroke="white" stroke-opacity="0.15" stroke-miterlimit="10" stroke-linecap="round" style="mix-blend-mode:soft-light"/>
<path d="M-194.096 561.415C-13.7076 551.756 124.696 397.693 115.038 217.304C105.379 36.9154 -48.6843 -101.489 -229.073 -91.8301C-409.461 -82.1716 -547.866 71.8921 -538.207 252.281C-528.548 432.669 -374.485 571.073 -194.096 561.415Z" stroke="white" stroke-opacity="0.15" stroke-miterlimit="10" stroke-linecap="round" style="mix-blend-mode:soft-light"/>
<path d="M-162.221 562.335C18.1675 552.676 156.571 398.612 146.913 218.224C137.254 37.8353 -16.8092 -100.569 -197.198 -90.9102C-377.586 -81.2517 -515.991 72.812 -506.332 253.201C-496.673 433.589 -342.61 571.993 -162.221 562.335Z" stroke="white" stroke-opacity="0.15" stroke-miterlimit="10" stroke-linecap="round" style="mix-blend-mode:soft-light"/>
<path d="M-131.221 564.361C49.1674 554.703 187.571 400.639 177.913 220.25C168.254 39.8617 14.1907 -98.5424 -166.198 -88.8839C-346.586 -79.2253 -484.991 74.8384 -475.332 255.227C-465.673 435.616 -311.61 574.02 -131.221 564.361Z" stroke="white" stroke-opacity="0.15" stroke-miterlimit="10" stroke-linecap="round" style="mix-blend-mode:soft-light"/>
<path d="M-101.401 567.485C78.9878 557.827 217.392 403.763 207.733 223.374C198.075 42.9857 44.0111 -95.4184 -136.378 -85.7598C-316.766 -76.1013 -455.17 77.9624 -445.512 258.351C-435.853 438.74 -281.789 577.144 -101.401 567.485Z" stroke="white" stroke-opacity="0.15" stroke-miterlimit="10" stroke-linecap="round" style="mix-blend-mode:soft-light"/>
<path d="M-73.0493 571.669C107.339 562.01 245.743 407.946 236.085 227.558C226.426 47.1693 72.3627 -91.2348 -108.026 -81.5762C-288.415 -71.9177 -426.819 82.146 -417.16 262.535C-407.502 442.923 -253.438 581.327 -73.0493 571.669Z" stroke="white" stroke-opacity="0.15" stroke-miterlimit="10" stroke-linecap="round" style="mix-blend-mode:soft-light"/>
<path d="M-46.4633 576.877C133.925 567.218 272.329 413.155 262.671 232.766C253.012 52.3773 98.9486 -86.0268 -81.44 -76.3682C-261.829 -66.7097 -400.233 87.354 -390.574 267.743C-380.916 448.131 -226.852 586.535 -46.4633 576.877Z" stroke="white" stroke-opacity="0.15" stroke-miterlimit="10" stroke-linecap="round" style="mix-blend-mode:soft-light"/>
<path d="M-21.893 583.051C158.496 573.393 296.9 419.329 287.241 238.941C277.583 58.5521 123.519 -79.852 -56.8697 -70.1934C-237.258 -60.5349 -375.662 93.5288 -366.004 273.917C-356.345 454.306 -202.282 592.71 -21.893 583.051Z" stroke="white" stroke-opacity="0.15" stroke-miterlimit="10" stroke-linecap="round" style="mix-blend-mode:soft-light"/>
<path d="M0.403872 590.139C180.792 580.481 319.196 426.417 309.538 246.029C299.879 65.64 145.816 -72.7641 -34.5728 -63.1055C-214.961 -53.447 -353.366 100.617 -343.707 281.005C-334.048 461.394 -179.985 599.798 0.403872 590.139Z" stroke="white" stroke-opacity="0.15" stroke-miterlimit="10" stroke-linecap="round" style="mix-blend-mode:soft-light"/>
<path d="M20.1968 598.062C200.585 588.404 338.989 434.34 329.331 253.951C319.672 73.5628 165.609 -64.8412 -14.7799 -55.1827C-195.168 -45.5241 -333.573 108.54 -323.914 288.928C-314.255 469.317 -160.192 607.721 20.1968 598.062Z" stroke="white" stroke-opacity="0.15" stroke-miterlimit="10" stroke-linecap="round" style="mix-blend-mode:soft-light"/>
<path d="M37.3062 606.74C217.695 597.081 356.099 443.018 346.44 262.629C336.782 82.2406 182.718 -56.1635 2.32948 -46.505C-178.059 -36.8464 -316.463 117.217 -306.805 297.606C-297.146 477.995 -143.082 616.399 37.3062 606.74Z" stroke="white" stroke-opacity="0.15" stroke-miterlimit="10" stroke-linecap="round" style="mix-blend-mode:soft-light"/>
<path d="M51.5406 616.082C231.929 606.423 370.333 452.36 360.675 271.971C351.016 91.5824 196.953 -46.8217 16.5639 -37.1632C-163.825 -27.5046 -302.229 126.559 -292.57 306.948C-282.912 487.336 -128.848 625.74 51.5406 616.082Z" stroke="white" stroke-opacity="0.15" stroke-miterlimit="10" stroke-linecap="round" style="mix-blend-mode:soft-light"/>
<path d="M62.7866 626.014C243.175 616.356 381.579 462.292 371.921 281.904C362.262 101.515 208.198 -36.8891 27.8099 -27.2305C-152.579 -17.572 -290.983 136.492 -281.324 316.88C-271.666 497.269 -117.602 635.673 62.7866 626.014Z" stroke="white" stroke-opacity="0.15" stroke-miterlimit="10" stroke-linecap="round" style="mix-blend-mode:soft-light"/>
<path d="M70.9155 636.422C251.304 626.763 389.708 472.699 380.05 292.311C370.391 111.922 216.327 -26.4819 35.9388 -16.8233C-144.45 -7.16476 -282.854 146.899 -273.195 327.287C-263.537 507.676 -109.473 646.08 70.9155 636.422Z" stroke="white" stroke-opacity="0.15" stroke-miterlimit="10" stroke-linecap="round" style="mix-blend-mode:soft-light"/>
<path d="M75.8335 647.201C256.222 637.542 394.626 483.479 384.968 303.09C375.309 122.702 221.245 -15.7026 40.8568 -6.04401C-139.532 3.61454 -277.936 157.678 -268.277 338.067C-258.619 518.455 -104.555 656.859 75.8335 647.201Z" stroke="white" stroke-opacity="0.15" stroke-miterlimit="10" stroke-linecap="round" style="mix-blend-mode:soft-light"/>
</g>
</g>
<defs>
<linearGradient id="paint0_linear_1034_17525" x1="405.714" y1="316.767" x2="405.458" y2="727.681" gradientUnits="userSpaceOnUse">
<stop stop-color="#D73F33"/>
<stop offset="1" stop-color="#EA7771"/>
</linearGradient>
</defs>
</svg>
