<svg width="20" height="24" viewBox="0 0 20 24" fill="none" xmlns="http://www.w3.org/2000/svg">
<path opacity="0.84" d="M4.55465 3.0552C4.55465 3.0552 -2.96264 14.1678 2.59344 20.0509C3.27213 20.7695 4.33963 21.2749 5.16666 21.8007C6.02047 22.3438 6.93143 23.0978 7.97215 23.2153C9.16575 23.3505 10.0395 22.1015 11.2127 21.8579C13.0777 21.4705 14.9028 21.7771 16.4957 20.5051C17.8109 19.4548 18.6084 17.8175 18.8793 16.178C19.2168 14.1324 18.8675 12.0537 18.4601 10.0453C18.2863 9.18923 17.9905 8.3749 17.6444 7.57281C17.2755 6.71811 16.6105 5.88382 16.321 5.0155C16.321 5.01595 13.7061 -2.82795 4.55465 3.0552Z" fill="#C0EAFF"/>
</svg>
