<svg width="19" height="25" viewBox="0 0 19 25" fill="none" xmlns="http://www.w3.org/2000/svg">
<path opacity="0.83" d="M7.73086 24.1112C8.91638 24.2481 9.78635 22.993 10.9493 22.7466C12.802 22.3586 14.6141 22.6644 16.1963 21.3865C17.5035 20.3277 18.2968 18.6846 18.5628 17.0325C18.8963 14.9742 18.5492 12.8839 18.1481 10.8621C17.9768 9.99948 17.6793 9.18253 17.3367 8.37472C16.9716 7.5167 16.3089 6.67693 16.0205 5.80066C16.0205 5.80066 13.424 -2.09039 4.32757 3.82904C4.32757 3.82904 -3.14165 15.0107 2.38025 20.9255C3.0564 21.6466 4.11571 22.1578 4.9361 22.6872C5.79256 23.2349 6.6986 23.9925 7.73086 24.1112Z" fill="#C0EAFF"/>
</svg>
