<svg width="19" height="22" viewBox="0 0 19 22" fill="none" xmlns="http://www.w3.org/2000/svg">
<path opacity="0.84" d="M6.5039 0.98804C6.42088 1.02887 6.34195 1.07515 6.26755 1.12732C4.82991 2.13173 3.61819 3.75903 2.70407 5.23118C1.31498 7.46775 0.323299 10.026 0.590501 12.6953C0.772871 14.52 0.977464 16.6182 1.88931 18.2568C2.4219 19.214 3.6191 19.6527 4.59401 19.9921C5.42919 20.2829 6.27208 20.556 7.09093 20.8913C7.84717 21.2007 8.58935 21.7283 9.44131 21.6602C10.4208 21.5817 11.1049 20.8141 11.8883 20.316C13.1177 19.5348 14.5894 19.1342 16.0456 19.2045C16.3015 19.2168 16.5637 19.2426 16.8091 19.1678C17.167 19.0589 17.4288 18.7549 17.6398 18.4465C18.6006 17.0428 18.5752 15.6827 18.5834 14.0504C18.592 12.3918 18.5598 10.7232 18.2436 9.09005C17.6806 6.17978 15.758 3.77219 14.7473 1.02524C14.6892 0.866915 14.6311 0.704948 14.5245 0.574292C14.3421 0.350635 14.0436 0.254012 13.756 0.230875C13.2171 0.187323 12.674 0.270793 12.1401 0.327955C11.1275 0.436834 10.139 0.549794 9.12103 0.619658C8.31353 0.675459 7.2556 0.616488 6.5039 0.98804Z" fill="#C0EAFF"/>
</svg>
