<svg width="19" height="23" viewBox="0 0 19 23" fill="none" xmlns="http://www.w3.org/2000/svg">
<path opacity="0.83" d="M6.11699 1.64787C6.03585 1.68895 5.95473 1.73459 5.8826 1.78936C4.45367 2.79798 3.25011 4.43643 2.33956 5.91971C0.960212 8.16973 -0.0269743 10.7438 0.238978 13.4274C0.419286 15.2621 0.622136 17.3752 1.52818 19.0228C2.05558 19.9857 3.24561 20.4284 4.21476 20.7662C5.04417 21.0583 5.8826 21.3321 6.69398 21.6698C7.44677 21.9802 8.18151 22.5142 9.02895 22.4457C10.0026 22.3681 10.6833 21.5922 11.4586 21.0948C12.6802 20.3098 14.1407 19.9036 15.5876 19.9766C15.8401 19.9903 16.1015 20.0131 16.3449 19.9401C16.701 19.8306 16.9625 19.5248 17.1698 19.2144C18.1255 17.8042 18.0984 16.435 18.1074 14.792C18.1164 13.1216 18.0849 11.4466 17.7693 9.80362C17.2104 6.87357 15.2991 4.45469 14.2939 1.68895C14.2353 1.52921 14.1767 1.36491 14.073 1.23712C13.8927 1.01349 13.5952 0.913081 13.3113 0.890261C12.7748 0.844622 12.2384 0.931335 11.7065 0.986102C10.7013 1.09564 9.71862 1.20974 8.7089 1.2782C7.91555 1.33296 6.86076 1.27363 6.11699 1.64787Z" fill="#C0EAFF"/>
</svg>
