<svg width="26" height="20" viewBox="0 0 26 20" fill="none" xmlns="http://www.w3.org/2000/svg">
<path opacity="0.84" d="M21.7932 1.74991C22.1121 1.847 22.5694 2.7135 22.7459 2.96256C23.4468 3.95155 24.0534 5.01585 24.5079 6.14094C25.7324 9.17369 25.5545 12.4995 23.2585 14.9829C23.2313 15.0119 23.2037 15.0414 23.1765 15.0704C23.0526 15.2006 22.9237 15.3277 22.8226 15.476C22.539 15.8925 22.4719 16.4128 22.2038 16.8402C21.9506 17.243 21.5782 17.6205 21.2171 17.9253C20.3673 18.6426 19.2354 19.1407 18.1058 19.0296C17.7175 18.9914 17.3473 18.8531 16.9821 18.7161C15.397 18.1213 13.6758 17.4422 12.8352 15.8684C12.9309 16.0476 12.4945 16.7785 12.3847 16.9277C12.1211 17.2857 11.7976 17.4413 11.3907 17.5987C10.0447 18.1191 8.57978 18.5364 7.28955 19.1815C6.3981 19.525 5.64593 19.8511 4.7386 19.5535C4.21053 19.3802 3.6752 19.2283 3.15303 19.0373C2.17539 18.6798 0.548559 18.0537 0.548559 16.7853C0.548559 14.8241 -1.08555 8.94096 2.83638 3.05783C6.75694 -2.82348 21.781 1.74628 21.7932 1.74991Z" fill="#C0EAFF"/>
</svg>
