<svg width="26" height="24" viewBox="0 0 26 24" fill="none" xmlns="http://www.w3.org/2000/svg">
<path opacity="0.83" d="M22.344 3.49726C22.6595 3.5931 23.1148 4.46481 23.2906 4.71583C23.9893 5.71077 24.5888 6.78329 25.0396 7.91515C26.2566 10.9639 26.0808 14.3138 23.8 16.8103C23.7729 16.8377 23.7459 16.8696 23.7188 16.897C23.5971 17.0293 23.4664 17.1571 23.3672 17.3032C23.0877 17.7231 23.0201 18.2479 22.7542 18.6769C22.5017 19.0831 22.1321 19.4619 21.776 19.7677C20.9331 20.4888 19.8061 20.9908 18.6837 20.8767C18.2961 20.8402 17.9309 20.6987 17.5658 20.5618C15.9926 19.9639 14.2797 19.2794 13.4458 17.6957C13.5404 17.8782 13.1077 18.613 12.9995 18.7591C12.7381 19.1196 12.418 19.2748 12.0123 19.4345C10.6736 19.9594 9.21759 20.3793 7.9374 21.0273C7.04939 21.3742 6.30561 21.7028 5.40407 21.4016C4.88118 21.2282 4.34928 21.073 3.8309 20.8813C2.86174 20.5207 1.24349 19.8909 1.24349 18.6176C1.24349 16.646 -0.379286 10.7265 3.51536 4.80711C7.40549 -1.10776 22.3305 3.49269 22.344 3.49726Z" fill="#C0EAFF"/>
</svg>
