<svg width="24" height="20" viewBox="0 0 24 20" fill="none" xmlns="http://www.w3.org/2000/svg">
<path opacity="0.83" d="M4.86733 3.35621C5.73731 2.74464 6.90478 2.67162 7.91901 2.46624C9.4426 2.1559 10.9797 1.90031 12.5349 1.80447C15.9607 1.59453 19.7246 2.22892 22.0235 5.04944C22.8349 6.04438 23.4029 7.231 23.6914 8.48609C24.0114 9.90091 23.7545 10.8137 23.3082 12.1464C22.9025 13.3695 22.3706 14.6931 21.7125 15.8021C21.0003 17.0024 19.8598 18.043 18.4264 18.0202C16.8757 17.9973 15.3567 17.3812 14.3199 16.19C14.2658 16.1261 14.2072 16.0622 14.1306 16.0303C14.0404 15.9938 13.9368 16.012 13.8421 16.0348C11.7551 16.5186 9.66348 17.9015 7.7387 18.8371C6.81914 19.2844 6.29175 19.4213 5.35866 18.9238C4.19569 18.3077 3.0868 17.5455 2.22584 16.5414C-0.320997 13.5703 0.648143 9.34867 2.50981 6.28627C3.09581 5.31871 3.82606 4.20054 4.70505 3.47488C4.75914 3.4338 4.81324 3.39272 4.86733 3.35621Z" fill="#C0EAFF"/>
</svg>
