<svg width="24" height="18" viewBox="0 0 24 18" fill="none" xmlns="http://www.w3.org/2000/svg">
<path opacity="0.84" d="M4.4249 1.69491C5.30184 1.08745 6.47639 1.01486 7.49488 0.81117C9.02873 0.50404 10.5762 0.248174 12.1395 0.153812C15.5852 -0.0548737 19.3746 0.577085 21.6902 3.38027C22.5063 4.3679 23.0802 5.55059 23.3678 6.79817C23.6913 8.20271 23.4304 9.11005 22.9831 10.437C22.573 11.6533 22.0377 12.9703 21.3762 14.0718C20.659 15.2658 19.5117 16.2997 18.069 16.2788C16.5061 16.2562 14.9786 15.6446 13.9347 14.4596C13.8798 14.3975 13.8236 14.3317 13.7464 14.3004C13.6543 14.2632 13.5504 14.2827 13.4542 14.305C11.3538 14.7863 9.24741 16.16 7.30933 17.0886C6.38294 17.5323 5.85349 17.6675 4.9153 17.1748C3.74483 16.5601 2.63018 15.8043 1.76367 14.8058C-0.799106 11.8524 0.177637 7.6565 2.05129 4.61106C2.64287 3.64974 3.37553 2.53555 4.262 1.81786C4.31462 1.77431 4.3691 1.73347 4.4249 1.69491Z" fill="#C0EAFF"/>
</svg>
