<svg width="22" height="17" viewBox="0 0 22 17" fill="none" xmlns="http://www.w3.org/2000/svg">
<path opacity="0.83" d="M11.2956 3.1276C11.6021 3.05458 11.9221 2.8492 12.2918 2.60275C13.297 1.93185 14.3428 1.28378 15.5058 0.959736C16.6687 0.631132 17.9715 0.663083 19.0082 1.28834C19.734 1.73104 20.2749 2.42933 20.7166 3.15956C21.4108 4.3051 21.9202 5.6332 21.7624 6.96587C21.5821 8.48566 20.9871 9.98263 20.3741 11.3701C20.0044 12.2098 19.6934 13.1728 19.0263 13.83C18.2464 14.5968 16.9392 14.7063 15.9115 14.8524C13.7027 15.1673 11.4849 14.8843 9.33022 14.3686C7.18907 13.8528 4.97129 13.2824 2.88873 12.5613C2.51459 12.4335 2.14046 12.2829 1.82492 12.041C0.945919 11.3564 0.765611 9.80008 0.553749 8.77776C0.233703 7.21689 0.427534 5.60582 1.05861 4.15449C1.87 2.28328 3.42064 0.631135 5.48065 0.311659C6.95467 0.0834625 8.26641 0.389246 9.2581 1.54392C9.58716 1.92729 9.84861 2.37456 10.2047 2.73054C10.5969 3.12761 10.9395 3.21432 11.2956 3.1276Z" fill="#C0EAFF"/>
</svg>
