<svg width="22" height="16" viewBox="0 0 22 16" fill="none" xmlns="http://www.w3.org/2000/svg">
<path opacity="0.84" d="M11.416 3.30515C11.7263 3.23166 12.0475 3.02888 12.4204 2.78345C13.433 2.11612 14.4845 1.47238 15.6527 1.14802C16.8209 0.823652 18.1361 0.851778 19.1759 1.47555C19.9072 1.91424 20.4488 2.60924 20.8948 3.336C21.5925 4.47331 22.1074 5.79482 21.9473 7.11949C21.7649 8.63017 21.1656 10.1177 20.5509 11.4977C20.178 12.3347 19.8672 13.2897 19.1954 13.9447C18.4114 14.7087 17.0936 14.8162 16.0606 14.9609C13.8385 15.2717 11.6074 14.9931 9.438 14.4782C7.28129 13.9661 5.05244 13.3981 2.95516 12.684C2.57817 12.5556 2.20163 12.4073 1.88588 12.1651C1.00078 11.485 0.818867 9.93942 0.606099 8.9196C0.283092 7.36946 0.480433 5.76668 1.11465 4.32179C1.93124 2.46135 3.49276 0.819114 5.56599 0.500194C7.04992 0.272005 8.36736 0.57641 9.36587 1.72643C9.69659 2.1075 9.95971 2.55027 10.3172 2.9082C10.7114 3.30288 11.0562 3.39044 11.416 3.30515Z" fill="#C0EAFF"/>
</svg>
