<svg width="27" height="21" viewBox="0 0 27 21" fill="none" xmlns="http://www.w3.org/2000/svg">
<path opacity="0.84" d="M24.7992 15.5312C24.9017 14.3045 24.8736 13.0614 25.1072 11.8497C25.472 9.95837 26.427 8.31066 26.2918 6.30682C25.966 1.48254 19.2241 1.10962 15.8343 2.44566C14.4248 3.00095 13.8464 2.47652 12.6614 1.72797C11.3775 0.916818 9.86272 0.492188 8.34521 0.492188C6.60994 0.492188 4.69502 0.985775 3.21289 1.89764C1.02033 3.24685 1.02214 5.46028 0.87152 7.7835C0.704571 10.3531 0.764006 13.0002 1.61372 15.4573C1.87367 16.2094 2.218 16.9485 2.75968 17.5314C3.52955 18.3603 4.51038 18.4696 5.55063 18.7091C6.97061 19.0362 8.40646 19.313 9.83777 19.5838C12.6446 20.1151 15.4777 20.5474 18.3336 20.6907C19.6878 20.7588 21.09 20.6213 22.2927 19.9948C24.0348 19.0884 24.645 17.3826 24.7992 15.5312Z" fill="#C0EAFF"/>
</svg>
