<svg width="27" height="23" viewBox="0 0 27 23" fill="none" xmlns="http://www.w3.org/2000/svg">
<path opacity="0.83" d="M24.5955 15.997C24.6992 14.7647 24.6676 13.5142 24.902 12.2956C25.2626 10.3924 26.2138 8.73567 26.0785 6.7184C25.754 1.86689 19.0555 1.48808 15.6883 2.83446C14.2864 3.39126 13.7139 2.8664 12.5374 2.11335C11.2617 1.2964 9.75618 0.871948 8.25061 0.871948C6.52868 0.871948 4.62193 1.36942 3.15242 2.28678C0.975207 3.64228 0.975208 5.8695 0.826455 8.20625C0.65967 10.7895 0.718266 13.4548 1.56571 15.9285C1.82265 16.6861 2.16524 17.43 2.70616 18.0142C3.47247 18.8494 4.44613 18.959 5.47839 19.2009C6.88929 19.5295 8.31372 19.8079 9.73815 20.0817C12.5284 20.6157 15.3412 21.0493 18.1811 21.1953C19.5289 21.2638 20.9217 21.1269 22.1163 20.497C23.8382 19.5751 24.4422 17.8591 24.5955 15.997Z" fill="#C0EAFF"/>
</svg>
