<svg width="28" height="21" viewBox="0 0 28 21" fill="none" xmlns="http://www.w3.org/2000/svg">
<path opacity="0.84" d="M23.1988 1.00565C24.1519 1.10092 25.0497 1.46794 25.8232 2.27456C26.8199 3.31391 27.319 4.75567 27.4424 6.19016C27.7068 9.26784 27.1801 12.928 26.4112 15.9095C26.1671 16.8559 26.1426 18.8448 25.493 19.5752C23.4714 21.8476 19.0296 20.742 16.3416 20.5555C13.263 20.3418 9.94855 20.2398 7.19027 19.5752C5.36426 19.4835 2.01122 19.8877 1.45684 17.4729C0.821713 14.705 0.430199 11.8746 0.299997 9.03783C0.202005 6.9183 -0.107398 1.68117 2.93942 1.27241C3.38537 1.21253 4.13801 1.71519 4.58487 1.81682C5.51715 2.02822 6.42675 1.99964 7.35223 1.75375C8.49048 1.45161 9.54751 0.90721 10.6386 0.463977C10.8758 0.3678 11.1226 0.274797 11.3785 0.281602C11.9615 0.29748 12.3897 0.802409 12.8561 1.15264C14.8191 2.62797 18.3377 1.86263 20.5049 1.296C21.4145 1.05782 22.33 0.918549 23.1988 1.00565Z" fill="#C0EAFF"/>
</svg>
