<svg width="28" height="23" viewBox="0 0 28 23" fill="none" xmlns="http://www.w3.org/2000/svg">
<path opacity="0.83" d="M22.8874 1.63313C23.834 1.72897 24.7265 2.09865 25.4973 2.91103C26.489 3.95617 26.9849 5.4075 27.1066 6.8497C27.3681 9.94405 26.8451 13.6271 26.0833 16.6256C25.8399 17.5795 25.8174 19.5785 25.1728 20.3133C23.1624 22.5998 18.7493 21.4862 16.0808 21.2991C13.02 21.0846 9.72942 20.9796 6.98874 20.3133C5.17213 20.222 1.84094 20.6282 1.291 18.2002C0.659925 15.4162 0.272263 12.5683 0.14154 9.71585C0.0423704 7.5845 -0.264155 2.31316 2.76502 1.9024C3.20677 1.84307 3.95505 2.34967 4.40132 2.45007C5.32539 2.66458 6.23144 2.63263 7.15101 2.38618C8.28245 2.0804 9.33274 1.53272 10.4146 1.09002C10.649 0.994179 10.8969 0.898337 11.1493 0.907465C11.7263 0.921156 12.1546 1.43232 12.6188 1.78374C14.5707 3.26702 18.0642 2.50028 20.2188 1.92979C21.1159 1.68333 22.0219 1.54185 22.8874 1.63313Z" fill="#C0EAFF"/>
</svg>
