<svg width="24" height="20" viewBox="0 0 24 20" fill="none" xmlns="http://www.w3.org/2000/svg">
<path opacity="0.83" d="M19.1567 3.36525C18.2867 2.75368 17.1192 2.68066 16.105 2.47528C14.5814 2.16493 13.0442 1.90935 11.4891 1.8135C8.06324 1.60356 4.29931 2.23795 2.00039 5.05847C1.18901 6.05342 0.621037 7.24005 0.332545 8.49513C0.0124983 9.90996 0.269437 10.8227 0.715699 12.1554C1.12139 13.3786 1.6533 14.7021 2.31142 15.8111C3.02364 17.0115 4.16409 18.0521 5.59753 18.0292C7.14818 18.0064 8.66727 17.3903 9.70404 16.1991C9.75813 16.1352 9.81673 16.0713 9.89336 16.0393C9.98351 16.0028 10.0872 16.0211 10.1819 16.0439C12.2689 16.5277 14.3605 17.9106 16.2853 18.8462C17.2048 19.2934 17.7322 19.4304 18.6653 18.9329C19.8283 18.3168 20.9372 17.5546 21.7982 16.5505C24.345 13.5794 23.3759 9.35772 21.5142 6.29531C20.9282 5.32775 20.1979 4.20958 19.3189 3.48391C19.2649 3.4474 19.2108 3.40632 19.1567 3.36525Z" fill="#C0EAFF"/>
</svg>
