<svg width="24" height="18" viewBox="0 0 24 18" fill="none" xmlns="http://www.w3.org/2000/svg">
<path opacity="0.84" d="M19.1179 1.69491C18.2409 1.08745 17.0664 1.01486 16.0479 0.81117C14.5141 0.50404 12.9666 0.248174 11.4037 0.153812C7.95812 -0.0548737 4.16864 0.577085 1.85312 3.38027C1.03698 4.3679 0.46309 5.55059 0.175465 6.79817C-0.147999 8.20271 0.112858 9.11005 0.560174 10.437C0.970288 11.6533 1.50562 12.9703 2.16707 14.0718C2.88432 15.2658 4.03163 16.2997 5.47429 16.2788C7.03718 16.2562 8.56468 15.6446 9.60857 14.4596C9.66346 14.3975 9.71971 14.3317 9.79683 14.3004C9.88893 14.2632 9.99281 14.2827 10.089 14.305C12.1899 14.7863 14.2958 16.16 16.2339 17.0886C17.1603 17.5323 17.6897 17.6675 18.6279 17.1748C19.7984 16.5601 20.913 15.8043 21.7795 14.8058C24.3423 11.8524 23.3656 7.6565 21.4919 4.61106C20.9003 3.64974 20.1677 2.53555 19.2812 1.81786C19.2277 1.77431 19.1732 1.73347 19.1179 1.69491Z" fill="#C0EAFF"/>
</svg>
