<svg width="19" height="29" viewBox="0 0 19 29" fill="none" xmlns="http://www.w3.org/2000/svg">
<path opacity="0.84" d="M18.0535 8.59811C18.0535 8.59811 19.0339 3.36866 16.746 1.73454C14.4581 0.100417 13.4777 0.754152 13.4777 0.754152C12.5314 1.01229 11.5805 1.2541 10.6273 1.48638C9.05853 1.86883 7.36451 2.41686 5.73855 2.37376C5.41281 2.36514 5.08662 2.32885 4.76225 2.36106C2.33919 2.60241 1.9445 5.18288 1.57975 7.07288C1.11201 9.49684 0.78173 11.953 0.586652 14.4137C0.425598 16.4457 0.347112 18.5008 0.517693 20.5351C0.641091 22.0086 0.846607 23.6917 1.71131 24.9407C2.91943 26.6855 5.13517 27.4794 7.11636 27.9358C9.63106 28.5156 12.2741 28.6526 14.8469 28.5456C16.2456 28.487 16.6367 25.3699 16.7151 24.3809C17.1325 19.1169 17.5758 13.8566 18.0535 8.59811Z" fill="#C0EAFF"/>
</svg>
