<svg width="19" height="30" viewBox="0 0 19 30" fill="none" xmlns="http://www.w3.org/2000/svg">
<path opacity="0.83" d="M18.0495 8.09776C18.0495 8.09776 19.0231 2.83555 16.7468 1.19253C14.4704 -0.450484 13.4967 0.206723 13.4967 0.206723C12.5546 0.466867 11.6125 0.708754 10.6659 0.946078C9.10624 1.32945 7.42487 1.88168 5.81112 1.84061C5.48657 1.83148 5.16202 1.79497 4.84197 1.82692C2.43487 2.06881 2.0427 4.66568 1.68208 6.56884C1.21779 9.00598 0.893236 11.4796 0.699405 13.9533C0.541636 15.9979 0.465006 18.0654 0.63179 20.11C0.753497 21.5933 0.960853 23.2865 1.81731 24.5416C3.01636 26.2987 5.22061 27.0928 7.19047 27.5538C9.68772 28.138 12.3157 28.2749 14.8716 28.1654C16.2599 28.106 16.6476 24.9706 16.7242 23.9757C17.1389 18.677 17.5762 13.3874 18.0495 8.09776Z" fill="#C0EAFF"/>
</svg>
