<svg width="17" height="29" viewBox="0 0 17 29" fill="none" xmlns="http://www.w3.org/2000/svg">
<path opacity="0.84" d="M15.7677 0.656709C14.9951 0.260201 13.7915 0.505183 12.9449 0.497925C11.3743 0.484768 9.80367 0.489308 8.2335 0.534675C6.47914 0.585486 4.03975 0.384956 2.41742 1.19612C0.859502 1.97507 0.693903 3.92086 0.741085 5.44928C0.927998 11.4872 1.3168 17.8413 3.75212 23.4545C4.4653 25.0982 5.46066 26.7568 7.01857 27.7241C9.43257 29.223 12.1959 28.3542 13.5719 25.9543C14.6734 24.0334 15.0971 21.8191 15.3281 19.6469C15.5027 18.0024 15.3934 16.3455 15.51 14.6978C15.6329 12.9612 16.1451 11.2762 16.425 9.55998C16.8674 6.84613 17.4027 4.01433 16.3915 1.36081C16.2613 1.01874 16.0417 0.797347 15.7677 0.656709Z" fill="#C0EAFF"/>
</svg>
