<svg width="17" height="29" viewBox="0 0 17 29" fill="none" xmlns="http://www.w3.org/2000/svg">
<path opacity="0.83" d="M14.9889 0.442604C14.2226 0.0455434 13.0236 0.291995 12.1851 0.282867C10.6255 0.269175 9.06581 0.273742 7.50614 0.319381C5.76166 0.369584 3.34102 0.168776 1.72727 0.985718C0.181123 1.77071 0.0143417 3.72863 0.0639265 5.26211C0.248742 11.3367 0.636401 17.7262 3.05704 23.3763C3.76475 25.0284 4.75645 26.6988 6.30259 27.671C8.70069 29.1771 11.4459 28.3053 12.8162 25.891C13.9116 23.9605 14.3308 21.7333 14.5607 19.5472C14.7365 17.895 14.6238 16.2246 14.741 14.5679C14.8627 12.82 15.3721 11.1267 15.6516 9.39701C16.0888 6.66779 16.6252 3.81991 15.62 1.15001C15.4803 0.807718 15.2594 0.584086 14.9889 0.442604Z" fill="#C0EAFF"/>
</svg>
