<svg width="16" height="32" viewBox="0 0 16 32" fill="none" xmlns="http://www.w3.org/2000/svg">
<path opacity="0.83" d="M15.0637 0.446091C14.9149 0.309173 14.6535 0.281789 14.1711 0.240713C13.4319 0.176818 12.6656 0.231581 11.9218 0.236145C8.90164 0.240709 5.8815 0.300036 2.86135 0.300036C2.86135 0.300036 -0.059634 0.957252 0.264919 2.60028C0.589473 4.2433 1.56314 24.6305 2.5368 25.9449C3.51046 27.2593 5.78234 31.5357 10.6551 30.2213C15.528 28.9069 14.5543 17.3966 14.5543 17.3966C14.4236 15.3109 14.9419 13.0015 15.0817 10.9204C15.289 7.826 15.4693 4.70426 15.2936 1.60533C15.2575 0.925302 15.2395 0.610394 15.0637 0.446091Z" fill="#C0EAFF"/>
</svg>
