<svg width="16" height="31" viewBox="0 0 16 31" fill="none" xmlns="http://www.w3.org/2000/svg">
<path opacity="0.84" d="M14.9913 0.633202C14.8425 0.497557 14.5799 0.468975 14.0935 0.428146C13.3495 0.365994 12.5765 0.420439 11.8306 0.421799C8.79061 0.427697 5.7506 0.487578 2.71058 0.487578C2.71058 0.487578 -0.231007 1.1413 0.0956329 2.77539C0.422273 4.40949 1.40309 24.6737 2.38346 25.9807C3.36384 27.2881 5.6517 31.5371 10.5545 30.2297C15.4568 28.9222 14.4764 17.4836 14.4764 17.4831C14.3471 15.4113 14.8679 13.1166 15.009 11.0452C15.2186 7.97028 15.3978 4.86859 15.2218 1.78732C15.1837 1.11227 15.1696 0.795613 14.9913 0.633202Z" fill="#C0EAFF"/>
</svg>
