<svg width="16" height="32" viewBox="0 0 16 32" fill="none" xmlns="http://www.w3.org/2000/svg">
<path opacity="0.83" d="M0.488061 0.537399C0.636815 0.400481 0.898254 0.373097 1.38058 0.332022C2.11985 0.268127 2.88615 0.322889 3.62993 0.327453C6.6501 0.332017 9.67027 0.391344 12.6904 0.391344C12.6904 0.391344 15.6114 1.04856 15.2869 2.69157C14.9623 4.33459 13.9887 24.7217 13.015 26.0361C12.0413 27.3505 9.76944 31.6269 4.8966 30.3125C0.023757 28.9981 0.997424 17.4879 0.997424 17.4879C1.12815 15.4021 0.609774 13.0928 0.470034 11.0116C0.262679 7.91728 0.082362 4.79555 0.258163 1.69663C0.298732 1.01661 0.31226 0.701701 0.488061 0.537399Z" fill="#C0EAFF"/>
</svg>
