<svg width="16" height="31" viewBox="0 0 16 31" fill="none" xmlns="http://www.w3.org/2000/svg">
<path opacity="0.84" d="M0.380052 0.633202C0.528855 0.497557 0.791529 0.468975 1.27786 0.428146C2.02187 0.365994 2.79492 0.420439 3.54074 0.421799C6.58076 0.427697 9.6208 0.487578 12.6608 0.487578C12.6608 0.487578 15.6024 1.1413 15.2757 2.77539C14.9491 4.40949 13.9683 24.6737 12.9879 25.9807C12.0075 27.2881 9.7197 31.5371 4.81693 30.2297C-0.0853964 28.9222 0.894968 17.4836 0.894968 17.4831C1.02426 15.4113 0.503443 13.1166 0.362353 11.0452C0.152759 7.97028 -0.0264368 4.86859 0.149586 1.78732C0.187694 1.11227 0.202215 0.795613 0.380052 0.633202Z" fill="#C0EAFF"/>
</svg>
