<svg width="17" height="30" viewBox="0 0 17 30" fill="none" xmlns="http://www.w3.org/2000/svg">
<path opacity="0.83" d="M1.97292 0.442604C2.73924 0.0455434 3.9383 0.291995 4.77674 0.282867C6.33642 0.269175 7.89609 0.273742 9.45577 0.319381C11.2003 0.369584 13.6209 0.168776 15.2347 0.985718C16.7809 1.77071 16.9476 3.72863 16.898 5.26211C16.7132 11.3367 16.3256 17.7262 13.9049 23.3763C13.1972 25.0284 12.2055 26.6988 10.6593 27.671C8.26122 29.1771 5.51601 28.3053 4.14566 25.891C3.05028 23.9605 2.63105 21.7333 2.40115 19.5472C2.22535 17.895 2.33805 16.2246 2.22085 14.5679C2.09914 12.82 1.58978 11.1267 1.3103 9.39701C0.873044 6.66779 0.336609 3.81991 1.34184 1.15001C1.48158 0.807718 1.69795 0.584086 1.97292 0.442604Z" fill="#C0EAFF"/>
</svg>
