<svg width="17" height="29" viewBox="0 0 17 29" fill="none" xmlns="http://www.w3.org/2000/svg">
<path opacity="0.84" d="M1.96659 0.656709C2.73919 0.260201 3.94275 0.505183 4.78928 0.497925C6.35987 0.484768 7.93046 0.489308 9.5006 0.534675C11.2549 0.585486 13.6943 0.384956 15.3166 1.19612C16.8745 1.97507 17.04 3.92086 16.9929 5.44928C16.806 11.4872 16.4172 17.8413 13.9819 23.4545C13.2687 25.0982 12.2734 26.7568 10.7155 27.7241C8.30155 29.223 5.53829 28.3542 4.16233 25.9543C3.06083 24.0334 2.63711 21.8191 2.40619 19.6469C2.23153 18.0024 2.34085 16.3455 2.22426 14.6978C2.10132 12.9612 1.58914 11.2762 1.30922 9.55998C0.866901 6.84613 0.331588 4.01433 1.34281 1.36081C1.47255 1.01874 1.69213 0.797347 1.96659 0.656709Z" fill="#C0EAFF"/>
</svg>
