<svg width="19" height="30" viewBox="0 0 19 30" fill="none" xmlns="http://www.w3.org/2000/svg">
<path opacity="0.83" d="M0.862719 8.50853C0.862719 8.50853 -0.110926 3.24632 2.16546 1.6033C4.43734 -0.0397179 5.4155 0.61749 5.4155 0.61749C6.3576 0.877634 7.29973 1.11952 8.24634 1.35685C9.80601 1.74022 11.4874 2.29245 13.1011 2.25138C13.4257 2.24225 13.7502 2.20574 14.0703 2.23769C16.4774 2.47958 16.8696 5.07645 17.2302 6.97961C17.6945 9.41675 18.019 11.8904 18.2129 14.3641C18.3706 16.4087 18.4473 18.4762 18.2805 20.5208C18.1588 22.0041 17.9514 23.6973 17.0949 24.9524C15.8959 26.7095 13.6916 27.5036 11.7218 27.9646C9.22452 28.5488 6.59651 28.6857 4.04065 28.5761C2.65228 28.5168 2.26463 25.3814 2.188 24.3865C1.77329 19.0877 1.33603 13.7981 0.862719 8.50853Z" fill="#C0EAFF"/>
</svg>
