<svg width="19" height="29" viewBox="0 0 19 29" fill="none" xmlns="http://www.w3.org/2000/svg">
<path opacity="0.84" d="M0.942289 8.58865C0.942289 8.58865 -0.0362782 3.3588 2.25253 1.72561C4.54134 0.0924205 5.52127 0.746611 5.52127 0.746611C6.46765 1.0052 7.41855 1.24745 8.37127 1.48018C9.94009 1.86307 11.6337 2.412 13.2597 2.36981C13.5854 2.36119 13.912 2.32491 14.236 2.35757C16.6591 2.59983 17.0524 5.18026 17.4163 7.07068C17.8831 9.49461 18.212 11.9512 18.4062 14.4119C18.5664 16.4438 18.6439 18.4989 18.4729 20.5331C18.349 22.0066 18.1426 23.6897 17.2774 24.9382C16.0688 26.6826 13.8526 27.4751 11.871 27.9311C9.35576 28.5099 6.71263 28.646 4.14028 28.5376C2.74159 28.4782 2.35187 25.3615 2.27384 24.3725C1.85918 19.1073 1.41774 13.8471 0.942289 8.58865Z" fill="#C0EAFF"/>
</svg>
