<svg width="26" height="23" viewBox="0 0 26 23" fill="none" xmlns="http://www.w3.org/2000/svg">
<path opacity="0.83" d="M3.63926 3.4517C3.32372 3.54754 2.86844 4.41926 2.69264 4.67027C1.99394 5.66521 1.39442 6.73774 0.943653 7.8696C-0.273427 10.9183 -0.0976263 14.2683 2.18327 16.7647C2.21032 16.7921 2.23736 16.8241 2.26441 16.8515C2.38611 16.9838 2.51684 17.1116 2.61601 17.2577C2.89549 17.6775 2.9631 18.2024 3.22906 18.6314C3.48149 19.0376 3.85112 19.4164 4.20722 19.7222C5.05017 20.4433 6.1771 20.9453 7.29951 20.8312C7.68718 20.7947 8.0523 20.6532 8.41742 20.5163C9.99061 19.9184 11.7035 19.2338 12.5375 17.6502C12.4428 17.8327 12.8755 18.5675 12.9837 18.7136C13.2452 19.0741 13.5652 19.2293 13.9709 19.389C15.3097 19.9139 16.7657 20.3338 18.0459 20.9818C18.9339 21.3287 19.6777 21.6573 20.5792 21.3561C21.1021 21.1826 21.634 21.0275 22.1524 20.8358C23.1215 20.4752 24.7398 19.8454 24.7398 18.5721C24.7398 16.6004 26.3626 10.681 22.4679 4.76155C18.5778 -1.14877 3.65278 3.44713 3.63926 3.4517Z" fill="#C0EAFF"/>
</svg>
