<svg width="26" height="20" viewBox="0 0 26 20" fill="none" xmlns="http://www.w3.org/2000/svg">
<path opacity="0.84" d="M3.60585 1.74991C3.28692 1.847 2.82963 2.7135 2.65315 2.96256C1.95224 3.95155 1.34568 5.01585 0.891109 6.14094C-0.333335 9.17369 -0.155496 12.4995 2.14051 14.9829C2.16773 15.0119 2.1954 15.0414 2.22262 15.0704C2.34647 15.2006 2.47532 15.3277 2.57648 15.476C2.86002 15.8925 2.92716 16.4128 3.19528 16.8402C3.44842 17.243 3.82088 17.6205 4.182 17.9253C5.03172 18.6426 6.16362 19.1407 7.29325 19.0296C7.68158 18.9914 8.05178 18.8531 8.41698 18.7161C10.0021 18.1213 11.7233 17.4422 12.5639 15.8684C12.4682 16.0476 12.9046 16.7785 13.0144 16.9277C13.278 17.2857 13.6015 17.4413 14.0084 17.5987C15.3544 18.1191 16.8193 18.5364 18.1095 19.1815C19.001 19.525 19.7532 19.8511 20.6605 19.5535C21.1886 19.3802 21.7239 19.2283 22.2461 19.0373C23.2237 18.6798 24.8506 18.0537 24.8506 16.7853C24.8506 14.8241 26.4847 8.94096 22.5627 3.05783C18.6421 -2.82348 3.6181 1.74628 3.60585 1.74991Z" fill="#C0EAFF"/>
</svg>
