<svg width="28" height="22" viewBox="0 0 28 22" fill="none" xmlns="http://www.w3.org/2000/svg">
<path opacity="0.84" d="M4.43776 1.31033C3.4846 1.4056 2.5868 1.77261 1.81329 2.57922C0.816581 3.61857 0.317525 5.06031 0.194126 6.49479C-0.0703632 9.57243 0.456369 13.2326 1.22534 16.214C1.46941 17.1604 1.4939 19.1492 2.14356 19.8796C4.16511 22.152 8.607 21.0465 11.295 20.86C14.3736 20.6463 17.6881 20.5443 20.4464 19.8796C22.2724 19.788 25.6255 20.1922 26.1799 17.7774C26.815 15.0096 27.2061 12.1792 27.3368 9.34243C27.4347 7.22292 27.7442 1.98583 24.6973 1.57708C24.2514 1.5172 23.4987 2.01986 23.0518 2.12148C22.1196 2.33288 21.2099 2.30431 20.2845 2.05842C19.1462 1.75628 18.0892 1.21189 16.9981 0.768663C16.7608 0.672486 16.514 0.579484 16.2581 0.586289C15.6752 0.602168 15.2469 1.10709 14.7805 1.45732C12.8175 2.93263 9.29885 2.1673 7.13167 1.60067C6.22206 1.36295 5.30699 1.22368 4.43776 1.31033Z" fill="#C0EAFF"/>
</svg>
