<svg width="28" height="23" viewBox="0 0 28 23" fill="none" xmlns="http://www.w3.org/2000/svg">
<path opacity="0.83" d="M5.17403 1.13936C4.22742 1.2352 3.33491 1.60488 2.5641 2.41726C1.57241 3.4624 1.07656 4.91373 0.954853 6.35593C0.693409 9.45027 1.21631 13.1334 1.9781 16.1319C2.22152 17.0857 2.24406 19.0847 2.88866 19.8195C4.89908 22.106 9.31207 20.9924 11.9806 20.8053C15.0413 20.5908 18.3319 20.4859 21.0726 19.8195C22.8892 19.7282 26.2203 20.1344 26.7703 17.7064C27.4013 14.9224 27.789 12.0745 27.9197 9.22208C28.0189 7.09072 28.3254 1.81938 25.2962 1.40863C24.8545 1.3493 24.1062 1.85589 23.66 1.9563C22.7359 2.1708 21.8299 2.13886 20.9103 1.8924C19.7789 1.58662 18.7286 1.03895 17.6467 0.596247C17.4124 0.500405 17.1644 0.404562 16.912 0.41369C16.335 0.427382 15.9068 0.938545 15.4425 1.28997C13.4907 2.77324 9.99724 2.0065 7.84258 1.43601C6.94555 1.18956 6.035 1.04808 5.17403 1.13936Z" fill="#C0EAFF"/>
</svg>
