<svg width="26" height="22" viewBox="0 0 26 22" fill="none" xmlns="http://www.w3.org/2000/svg">
<path opacity="0.84" d="M1.83368 15.8361C1.73115 14.6094 1.75928 13.3663 1.52565 12.1546C1.16091 10.2632 0.205941 8.61547 0.341131 6.6116C0.666857 1.78725 7.40865 1.41433 10.7984 2.75039C12.2079 3.30568 12.7863 2.78124 13.9713 2.03268C15.2551 1.22151 16.7699 0.796875 18.2874 0.796875C20.0226 0.796875 21.9375 1.29047 23.4196 2.20235C25.6121 3.55157 25.6103 5.76504 25.7609 8.08829C25.9274 10.6579 25.8684 13.3051 25.0187 15.7622C24.7588 16.5143 24.4145 17.2534 23.8728 17.8363C23.1029 18.6652 22.1221 18.7745 21.0819 19.0141C19.662 19.3412 18.2261 19.6179 16.7948 19.8888C13.9881 20.42 11.155 20.8524 8.29918 20.9957C6.94502 21.0638 5.54278 20.9263 4.34014 20.2998C2.59855 19.3933 1.98838 17.6875 1.83368 15.8361Z" fill="#C0EAFF"/>
</svg>
