<svg width="27" height="23" viewBox="0 0 27 23" fill="none" xmlns="http://www.w3.org/2000/svg">
<path opacity="0.83" d="M2.25879 15.8502C2.15512 14.6179 2.18666 13.3674 1.95226 12.1489C1.59165 10.2457 0.640527 8.58899 0.775757 6.57174C1.10031 1.72028 7.79869 1.34147 11.1659 2.68783C12.5678 3.24463 13.1403 2.71978 14.3168 1.96673C15.5924 1.14979 17.098 0.725342 18.6035 0.725342C20.3255 0.725342 22.2322 1.22281 23.7017 2.14016C25.8789 3.49565 25.8789 5.72284 26.0277 8.05958C26.1945 10.6428 26.1359 13.3081 25.2884 15.7817C25.0315 16.5394 24.6889 17.2833 24.148 17.8675C23.3817 18.7027 22.408 18.8122 21.3758 19.0541C19.9649 19.3827 18.5404 19.6611 17.116 19.9349C14.3258 20.4689 11.513 20.9025 8.67318 21.0485C7.32539 21.117 5.93254 20.98 4.73801 20.3502C3.01608 19.4283 2.41205 17.7123 2.25879 15.8502Z" fill="#C0EAFF"/>
</svg>
