<svg width="22" height="16" viewBox="0 0 22 16" fill="none" xmlns="http://www.w3.org/2000/svg">
<path opacity="0.83" d="M10.7919 2.89933C10.4854 2.82631 10.1654 2.62093 9.79577 2.37448C8.79057 1.70358 7.74479 1.0555 6.58182 0.731464C5.41884 0.402861 4.11615 0.434812 3.07939 1.06007C2.35366 1.50277 1.81273 2.20105 1.37098 2.93128C0.676806 4.07683 0.167456 5.40493 0.325223 6.7376C0.505529 8.25739 1.10053 9.75436 1.71357 11.1418C2.08319 11.9816 2.39422 12.9446 3.06135 13.6018C3.84117 14.3685 5.14839 14.478 6.17613 14.6241C8.38487 14.939 10.6026 14.656 12.7573 14.1403C14.8984 13.6246 17.1162 13.0541 19.1987 12.333C19.5728 12.2052 19.947 12.0546 20.2625 11.8127C21.1415 11.1281 21.3218 9.5718 21.5337 8.54948C21.8537 6.98862 21.6599 5.37755 21.0288 3.92622C20.2174 2.055 18.6668 0.402863 16.6068 0.0833876C15.1328 -0.144809 13.8211 0.160975 12.8294 1.31565C12.5003 1.69902 12.2389 2.14629 11.8828 2.50227C11.4951 2.89933 11.1526 2.98605 10.7919 2.89933Z" fill="#C0EAFF"/>
</svg>
