<svg width="22" height="15" viewBox="0 0 22 15" fill="none" xmlns="http://www.w3.org/2000/svg">
<path opacity="0.84" d="M10.6233 2.97712C10.313 2.90363 9.99176 2.70083 9.61884 2.4554C8.60626 1.78805 7.55467 1.14429 6.38648 0.819914C5.21784 0.49554 3.90315 0.523666 2.86335 1.14746C2.13204 1.58616 1.59034 2.28119 1.14439 3.00797C0.446648 4.14532 -0.068271 5.46687 0.0918728 6.79158C0.274246 8.30231 0.873551 9.78989 1.48827 11.17C1.86118 12.007 2.17194 12.962 2.84381 13.6171C3.62775 14.381 4.94567 14.4886 5.97867 14.6333C8.20072 14.944 10.4318 14.6655 12.6013 14.1506C14.758 13.6384 16.9869 13.0704 19.0841 12.3563C19.4611 12.2279 19.8377 12.0796 20.1534 11.8373C21.0385 11.1573 21.2205 9.6116 21.4332 8.59175C21.7562 7.04155 21.5589 5.43873 20.9247 3.99379C20.1081 2.13329 18.5466 0.491002 16.4733 0.172071C14.9894 -0.0561248 13.6719 0.248289 12.6734 1.39834C12.3427 1.77943 12.0795 2.22221 11.7221 2.58016C11.3278 2.9744 10.983 3.06241 10.6233 2.97712Z" fill="#C0EAFF"/>
</svg>
