<svg width="19" height="22" viewBox="0 0 19 22" fill="none" xmlns="http://www.w3.org/2000/svg">
<path opacity="0.84" d="M12.2919 0.98804C12.3749 1.02887 12.4538 1.07515 12.5282 1.12732C13.9659 2.13173 15.1777 3.75903 16.0918 5.23118C17.4809 7.46775 18.4726 10.026 18.2054 12.6953C18.0231 14.52 17.8185 16.6182 16.9066 18.2568C16.374 19.214 15.1767 19.6527 14.2018 19.9921C13.3666 20.2829 12.5237 20.556 11.7048 20.8913C10.9486 21.2007 10.2064 21.7283 9.3544 21.6602C8.37493 21.5817 7.6908 20.8141 6.90732 20.316C5.67788 19.5348 4.20618 19.1342 2.74991 19.2045C2.49404 19.2168 2.23182 19.2426 1.98639 19.1678C1.62844 19.0589 1.36669 18.7549 1.15573 18.4465C0.194864 17.0428 0.220267 15.6827 0.212101 14.0504C0.203482 12.3918 0.235692 10.7232 0.551897 9.09005C1.1149 6.17978 3.03754 3.77219 4.04831 1.02524C4.10638 0.866915 4.16444 0.704948 4.27106 0.574292C4.45343 0.350635 4.75194 0.254012 5.03957 0.230875C5.57852 0.187323 6.12157 0.270793 6.65553 0.327955C7.66812 0.436834 8.65666 0.549794 9.67469 0.619658C10.4822 0.675459 11.5406 0.616488 12.2919 0.98804Z" fill="#C0EAFF"/>
</svg>
