<svg width="18" height="24" viewBox="0 0 18 24" fill="none" xmlns="http://www.w3.org/2000/svg">
<path opacity="0.83" d="M12.0731 2.60222C12.1542 2.6433 12.2354 2.68894 12.3075 2.74371C13.7365 3.75234 14.94 5.3908 15.8506 6.87408C17.2299 9.12411 18.2171 11.6982 17.9512 14.3818C17.7709 16.2165 17.568 18.3296 16.662 19.9772C16.1346 20.9402 14.9445 21.3829 13.9754 21.7206C13.1459 22.0127 12.3075 22.2865 11.4961 22.6243C10.7433 22.9346 10.0086 23.4686 9.16111 23.4001C8.18745 23.3226 7.50679 22.5467 6.73146 22.0492C5.50987 21.2642 4.04936 20.858 2.60238 20.931C2.34995 20.9447 2.0885 20.9676 1.84508 20.8945C1.48897 20.785 1.22753 20.4792 1.02017 20.1689C0.0645363 18.7586 0.091586 17.3894 0.0825705 15.7464C0.0735551 14.076 0.105109 12.401 0.420649 10.758C0.979607 7.82795 2.89087 5.40905 3.89609 2.6433C3.9547 2.48356 4.0133 2.31926 4.11698 2.19147C4.29729 1.96783 4.59479 1.86743 4.87878 1.84461C5.4152 1.79897 5.95162 1.88568 6.48353 1.94045C7.48875 2.04998 8.47144 2.16408 9.48117 2.23254C10.2745 2.28731 11.3248 2.22798 12.0731 2.60222Z" fill="#C0EAFF"/>
</svg>
