<svg width="19" height="24" viewBox="0 0 19 24" fill="none" xmlns="http://www.w3.org/2000/svg">
<path opacity="0.84" d="M14.929 3.0552C14.929 3.0552 22.4463 14.1678 16.8902 20.0509C16.2116 20.7695 15.1441 21.2749 14.317 21.8007C13.4632 22.3438 12.5523 23.0978 11.5116 23.2153C10.318 23.3505 9.44422 22.1015 8.27104 21.8579C6.40602 21.4705 4.58092 21.7771 2.9881 20.5051C1.67292 19.4548 0.875375 17.8175 0.604536 16.178C0.267009 14.1324 0.616331 12.0537 1.02372 10.0453C1.19748 9.18923 1.49327 8.3749 1.83941 7.57281C2.20824 6.71811 2.87331 5.88382 3.16275 5.0155C3.16275 5.01595 5.77768 -2.82795 14.929 3.0552Z" fill="#C0EAFF"/>
</svg>
