<svg width="19" height="24" viewBox="0 0 19 24" fill="none" xmlns="http://www.w3.org/2000/svg">
<path opacity="0.83" d="M11.1706 23.5995C9.98513 23.7364 9.11514 22.4813 7.95216 22.2348C6.0995 21.8469 4.28742 22.1527 2.70523 20.8748C1.398 19.8159 0.604651 18.1729 0.338698 16.5208C0.00513063 14.4625 0.352219 12.3722 0.753402 10.3503C0.924694 9.48776 1.2222 8.67081 1.56478 7.863C1.92991 7.00498 2.59253 6.16522 2.88102 5.28894C2.88102 5.28894 5.47745 -2.60211 14.5739 3.31732C14.5739 3.31732 22.0432 14.499 16.5213 20.4138C15.8451 21.1349 14.7858 21.6461 13.9654 22.1755C13.1089 22.7232 12.2074 23.4808 11.1706 23.5995Z" fill="#C0EAFF"/>
</svg>
