<svg width="26" height="37" viewBox="0 0 26 37" fill="none" xmlns="http://www.w3.org/2000/svg">
<path opacity="0.83" d="M25.2852 31.5404C25.2852 31.5404 27.573 4.73947 15.4801 0.817055C15.4801 0.817055 1.75269 -1.47079 0.445687 22.3885C0.408486 23.069 0.302781 23.7459 0.273746 24.4291C0.21114 25.9199 0.265126 27.4265 0.522353 28.8982C0.792737 30.4439 1.29811 32.0412 2.3488 33.2421C2.85826 33.8241 3.49385 34.286 4.21518 34.5691C4.84033 34.8145 5.52854 34.9066 6.18454 35.0413C6.99206 35.2074 7.80138 35.3634 8.61526 35.4941C9.0544 35.5644 9.49538 35.6279 9.9368 35.681C11.5596 35.8765 13.1955 35.9382 14.8291 35.9999C17.4826 36.1002 20.2327 36.2322 22.7115 35.0971C24.1782 34.4262 25.2852 33.2217 25.2852 31.5404Z" fill="#C0EAFF"/>
</svg>
