<svg width="26" height="38" viewBox="0 0 26 38" fill="none" xmlns="http://www.w3.org/2000/svg">
<path opacity="0.83" d="M25.4906 32.4607C25.4906 32.4607 27.7625 5.4969 15.7495 1.55365C15.7495 1.55365 2.10925 -0.74658 0.811038 23.2552C0.774977 23.9398 0.66679 24.6198 0.639744 25.309C0.576636 26.8105 0.630729 28.3257 0.887666 29.8045C1.15813 31.3608 1.65848 32.9673 2.70426 34.1722C3.20912 34.7563 3.84019 35.2219 4.55691 35.5048C5.17897 35.7513 5.86415 35.8426 6.51326 35.9795C7.31562 36.1483 8.11798 36.3035 8.92937 36.4359C9.36661 36.5089 9.80386 36.5682 10.2411 36.623C11.8549 36.8192 13.4776 36.8831 15.1004 36.9425C17.7374 37.0429 20.469 37.1752 22.9347 36.0342C24.3907 35.3633 25.4906 34.1493 25.4906 32.4607Z" fill="#C0EAFF"/>
</svg>
