<svg width="26" height="37" viewBox="0 0 26 37" fill="none" xmlns="http://www.w3.org/2000/svg">
<path opacity="0.83" d="M0.961463 31.5872C0.961463 31.5872 -1.32637 4.78635 10.7665 0.86393C10.7665 0.86393 24.494 -1.42392 25.801 22.4354C25.8382 23.1159 25.9439 23.7928 25.9729 24.476C26.0355 25.9668 25.9815 27.4734 25.7243 28.9451C25.4539 30.4907 24.9485 32.0881 23.8979 33.289C23.3884 33.871 22.7528 34.3328 22.0315 34.6159C21.4063 34.8614 20.7181 34.9535 20.0621 35.0882C19.2546 35.2542 18.4453 35.4103 17.6314 35.541C17.1922 35.6113 16.7513 35.6748 16.3098 35.7279C14.6871 35.9234 13.0512 35.9851 11.4175 36.0468C8.76405 36.1471 6.01393 36.2791 3.5351 35.144C2.0684 34.473 0.961463 33.2685 0.961463 31.5872Z" fill="#C0EAFF"/>
</svg>
