<svg width="26" height="37" viewBox="0 0 26 37" fill="none" xmlns="http://www.w3.org/2000/svg">
<path opacity="0.83" d="M0.292931 32.4148C0.292931 32.4148 -1.97895 5.451 10.0341 1.50775C10.0341 1.50775 23.6744 -0.792477 24.9726 23.2093C25.0087 23.8939 25.1169 24.5739 25.1439 25.2631C25.207 26.7646 25.1529 28.2798 24.896 29.7586C24.6255 31.3149 24.1252 32.9214 23.0794 34.1263C22.5745 34.7104 21.9434 35.176 21.2267 35.4589C20.6047 35.7054 19.9195 35.7967 19.2704 35.9336C18.468 36.1024 17.6656 36.2576 16.8542 36.39C16.417 36.463 15.9798 36.5223 15.5425 36.5771C13.9288 36.7733 12.306 36.8372 10.6832 36.8966C8.04619 36.997 5.31453 37.1293 2.84881 35.9883C1.39282 35.3174 0.292931 34.1034 0.292931 32.4148Z" fill="#C0EAFF"/>
</svg>
