<svg width="22" height="49" viewBox="0 0 22 49" fill="none" xmlns="http://www.w3.org/2000/svg">
<path d="M10.6 0.799988C8.9 0.799988 8.2 1.79999 8 3.29999C8.8 2.89999 11.1 1.79999 12.2 1.29999C11.8 0.999988 11.3 0.799988 10.6 0.799988Z" fill="#C16263"/>
<path d="M14.1 16.7C12.7 17.5 8.19997 20.2 6.69997 21L6.59998 22L14.2 17.7L14.1 16.7Z" fill="#C16263"/>
<path d="M10.4 14.8C9.8 15.2 9.1 15.6 8.5 15.9C9.1 15.6 9.8 15.2 10.4 14.8Z" fill="#C16263"/>
<path d="M7 16.8C7.4 16.6 7.9 16.3 8.5 15.9C7.9 16.3 7.4 16.6 7 16.8Z" fill="#C16263"/>
<path d="M13.3 7.39999L7.49998 10.3V10.1L7.39999 10.2L7.19998 12.6C8.69998 11.8 12 9.99999 13.4 9.29999L13.3 7.39999Z" fill="#C16263"/>
<path d="M12.7 1.89999L7.89999 3.99999C7.89999 3.89999 7.89999 3.89999 7.89999 3.79999L7.79999 3.89999C7.69999 4.39999 7.69998 4.99999 7.69998 5.59999V5.89999C8.59998 5.49999 11.7 3.99999 13 3.39999C13 2.79999 12.9 2.39999 12.7 1.89999Z" fill="#C16263"/>
<path d="M10.4 14.8C11.7 14 13 13.3 13.8 12.8L13.6 10.2L7.2 13.5L7 16.8C7.4 16.6 7.9 16.3 8.5 15.9C9.1 15.6 9.8 15.2 10.4 14.8Z" fill="#C16263"/>
<path d="M13.2 5.69999C13.2 5.19999 13.2 4.79999 13.2 4.29999L7.7 6.79999L7.5 9.29999C8.8 8.69999 11.9 6.99999 13.2 6.29999V5.69999Z" fill="#C16263"/>
<path d="M14.1 17.7L6.49998 22L6.19998 25.8C6.19998 28.5 14.7 28.8 14.7 26L14.1 17.7Z" fill="#C16263"/>
<path d="M13.9 14L6.89999 17.9L6.69998 21.1C8.19998 20.3 12.7 17.6 14.1 16.8L13.9 14Z" fill="#C16263"/>
<path d="M13.8 12.9C13 13.4 11.7 14.1 10.4 14.9C9.79999 15.3 9.09999 15.7 8.49999 16C7.89999 16.3 7.39999 16.6 6.99999 16.9L6.89999 17.9L13.9 14L13.8 12.9Z" fill="#C16263"/>
<path d="M13.6 10.3L13.5 9.29999C12.1 9.99999 8.79999 11.8 7.29999 12.6L7.19998 13.6L13.6 10.3Z" fill="#C16263"/>
<path d="M13.6 10.3L7.19998 13.6L13.6 10.3Z" fill="#C16263"/>
<path d="M13.3 7.39999V6.39999C12 7.09999 8.8 8.69999 7.6 9.39999L7.5 10.1L13.3 7.29999V7.39999Z" fill="#C16263"/>
<path d="M13.3 7.39999V7.29999L7.5 10.1V10.3L13.3 7.39999Z" fill="#C16263"/>
<path d="M13.1 3.49998C11.8 4.09998 8.69999 5.59998 7.79999 5.99998L7.69998 6.79998L13.2 4.29998C13.2 3.99998 13.1 3.79998 13.1 3.49998Z" fill="#C16263"/>
<path d="M12.7 1.89999C12.5 1.59999 12.4 1.39999 12.2 1.29999C11.1 1.79999 8.79999 2.89999 7.99999 3.29999C7.99999 3.49999 7.89999 3.59999 7.89999 3.79999L12.6 1.79999C12.6 1.79999 12.6 1.89999 12.7 1.89999Z" fill="#C16263"/>
<path d="M12.7 1.89999C12.7 1.89999 12.7 1.79999 12.6 1.79999L7.89999 3.79999C7.89999 3.89999 7.89999 3.89999 7.89999 3.99999L12.7 1.89999Z" fill="#C16263"/>
<path d="M10.5 28C12.8196 28 14.7 27.2389 14.7 26.3C14.7 25.3611 12.8196 24.6 10.5 24.6C8.18039 24.6 6.29999 25.3611 6.29999 26.3C6.29999 27.2389 8.18039 28 10.5 28Z" fill="#3F8035"/>
<path d="M10.5 27.5C12.1569 27.5 13.5 26.9627 13.5 26.3C13.5 25.6373 12.1569 25.1 10.5 25.1C8.84315 25.1 7.5 25.6373 7.5 26.3C7.5 26.9627 8.84315 27.5 10.5 27.5Z" fill="#61B75A"/>
<path d="M20.9 37.7C17.3 34.1 14.5 29.2 14.5 29.2L14.8 26.2C14.8 26.2 14.7 24.6 10.4 24.6C6.09999 24.6 6.3 26.2 6.3 26.2L6.59999 29.2C6.59999 29.2 6.19999 30.4 5.59999 31.8C4.39999 33.5 2.89999 35.6 1.09999 37.5L0.899994 38.8H0.999992L2.09999 39.5C2.09999 39.5 2.49999 39.7 2.69999 40.7C2.69999 40.7 3.19999 44.8 3.49999 45.6C3.49999 45.6 4.19999 47.9 6.49999 48.7C6.49999 48.7 7.09999 48.8 9.19999 48.3C9.19999 48.3 11.2 47.6 13.5 48.2C13.5 48.2 14.9 48.8 16.4 48.4C16.4 48.4 18.4 47.8 18.5 44.9L18.9 40C18.9 40 18.9 39.3 19.9 39.1L21.2 38.7H21.3L20.9 37.7Z" fill="#CDCDCD"/>
<path opacity="0.3" d="M19.1 39.5C10.7 34.8 2.09998 39.6 2.09998 39.6L7.59998 31.8H13.2L19.1 39.5Z" fill="url(#paint0_linear_32_208)"/>
<defs>
<linearGradient id="paint0_linear_32_208" x1="10.6076" y1="36.8132" x2="10.6507" y2="21.2422" gradientUnits="userSpaceOnUse">
<stop/>
<stop offset="0.2661" stop-color="#C2C2C0"/>
</linearGradient>
</defs>
</svg>
