<svg width="21" height="49" viewBox="0 0 21 49" fill="none" xmlns="http://www.w3.org/2000/svg">
<path d="M5.96875 25.4743L7.48218 5.357C7.48173 2.61867 7.78296 0.398891 10.3135 0.398438C12.8441 0.397984 12.8926 2.61777 12.8931 5.35609L14.5113 25.747C14.5122 28.4853 5.9692 28.2127 5.96875 25.4743Z" fill="#8C8D92"/>
<path d="M5.91406 20.8671C6.09825 20.8177 14.2402 16.0859 14.2402 16.0859L14.2829 17.2324L5.95716 21.9636L5.91406 20.8671Z" fill="#BBBCC1"/>
<path d="M5.89844 16.8688C6.08308 16.8212 14.2577 12.1562 14.2577 12.1562L14.2926 13.3026L5.93382 17.9653L5.89844 16.8688Z" fill="#BBBCC1"/>
<path d="M6.1996 12.6886C6.36428 12.656 13.8624 8.67188 13.8624 8.67188L13.7989 9.81648L6.14062 13.7838L6.1996 12.6886Z" fill="#BBBCC1"/>
<path d="M6.66942 9.2206C6.81141 9.19882 13.5138 5.71875 13.5138 5.71875L13.3518 6.85201L6.51562 10.3049L6.66942 9.2206Z" fill="#BBBCC1"/>
<path d="M7.17839 5.74272C7.30542 5.72866 13.3673 2.88281 13.3673 2.88281L13.1877 3.88314L7.00781 6.69951L7.17839 5.74272Z" fill="#BBBCC1"/>
<path d="M7.41453 3.0133C7.51978 3.00151 12.5501 0.640625 12.5501 0.640625L12.4013 1.47083L7.27344 3.80768L7.41453 3.0133Z" fill="#BBBCC1"/>
<path d="M10.2287 27.6924C12.5814 27.6924 14.4886 26.9341 14.4886 25.9986C14.4886 25.0631 12.5814 24.3047 10.2287 24.3047C7.87599 24.3047 5.96875 25.0631 5.96875 25.9986C5.96875 26.9341 7.87599 27.6924 10.2287 27.6924Z" fill="#527F3F"/>
<path d="M10.2257 27.1962C11.8863 27.1962 13.2326 26.6608 13.2326 26.0004C13.2326 25.34 11.8863 24.8047 10.2257 24.8047C8.56499 24.8047 7.21875 25.34 7.21875 26.0004C7.21875 26.6608 8.56499 27.1962 10.2257 27.1962Z" fill="#79B565"/>
<path d="M20.6215 37.4517C17.033 33.8233 14.2022 28.9187 14.2022 28.9187L14.5029 25.9223C14.5029 25.9223 14.3668 24.2891 10.1024 24.2891C5.83796 24.2891 5.97406 25.9223 5.97406 25.9223L6.26713 28.9591C6.26713 28.9591 5.87334 30.15 5.2863 31.6039C4.1222 33.2889 2.62511 35.4515 0.764636 37.3324L0.546875 38.6566L0.672087 38.6639L1.78583 39.3258C1.78583 39.3258 2.20003 39.5249 2.35972 40.4822C2.35972 40.4822 2.87826 44.5892 3.11734 45.4262C3.11734 45.4262 3.79511 47.739 6.10789 48.5361C6.10789 48.5361 6.6659 48.6558 8.77952 48.1373C8.77952 48.1373 10.7734 47.4196 13.0857 48.0575C13.0857 48.0575 14.4812 48.6155 15.9964 48.2566C15.9964 48.2566 18.0297 47.6986 18.1096 44.7874L18.5083 39.8829C18.5083 39.8829 18.4684 39.2051 19.505 39.0055L20.7807 38.5995L20.8538 38.5668L20.6215 37.4517Z" fill="#CECECE"/>
<path opacity="0.3" d="M18.8679 39.2585C10.4918 34.5299 1.78906 39.322 1.78906 39.322L7.33835 31.4531H12.9276L18.8679 39.2585Z" fill="url(#paint0_linear_114_38780)"/>
<defs>
<linearGradient id="paint0_linear_114_38780" x1="10.3361" y1="36.5348" x2="10.3793" y2="20.9156" gradientUnits="userSpaceOnUse">
<stop/>
<stop offset="0.2661" stop-color="#C3C3C1"/>
</linearGradient>
</defs>
</svg>
