<svg width="21" height="49" viewBox="0 0 21 49" fill="none" xmlns="http://www.w3.org/2000/svg">
<path d="M15.4337 23.3358L13.9203 43.4533C13.9207 46.1917 13.6195 48.4115 11.0889 48.4119C8.55833 48.4124 8.50978 46.1926 8.50933 43.4542L6.89063 23.0631C6.89017 20.3248 15.4333 20.5974 15.4337 23.3358Z" fill="#8C8D92"/>
<path d="M15.4861 27.9403C15.3019 27.9897 7.15983 32.7214 7.15983 32.7214L7.11719 31.575L15.443 26.8438L15.4861 27.9403Z" fill="#BBBCC1"/>
<path d="M15.5037 31.9403C15.319 31.9879 7.14431 36.653 7.14431 36.653L7.10938 35.5066L15.4683 30.8438L15.5037 31.9403Z" fill="#BBBCC1"/>
<path d="M15.2021 36.1186C15.0374 36.1513 7.53906 40.1354 7.53906 40.1354L7.60258 38.9908L15.261 35.0234L15.2021 36.1186Z" fill="#BBBCC1"/>
<path d="M14.7352 39.5843C14.5932 39.606 7.89062 43.0861 7.89062 43.0861L8.05259 41.9529L14.889 38.5L14.7352 39.5843Z" fill="#BBBCC1"/>
<path d="M14.2202 43.0662C14.0932 43.0802 8.03125 45.9261 8.03125 45.9261L8.21091 44.9257L14.3908 42.1094L14.2202 43.0662Z" fill="#BBBCC1"/>
<path d="M13.9872 45.7944C13.8819 45.8062 8.85156 48.1671 8.85156 48.1671L9.00037 47.3369L14.1283 45L13.9872 45.7944Z" fill="#BBBCC1"/>
<path d="M11.1741 24.5052C13.5269 24.5052 15.4342 23.7468 15.4342 22.8112C15.4342 21.8756 13.5269 21.1172 11.1741 21.1172C8.82136 21.1172 6.91406 21.8756 6.91406 22.8112C6.91406 23.7468 8.82136 24.5052 11.1741 24.5052Z" fill="#527F3F"/>
<path d="M11.1709 24.0089C12.8315 24.0089 14.1777 23.4735 14.1777 22.8131C14.1777 22.1526 12.8315 21.6172 11.1709 21.6172C9.51027 21.6172 8.16406 22.1526 8.16406 22.8131C8.16406 23.4735 9.51027 24.0089 11.1709 24.0089Z" fill="#79B565"/>
<path d="M0.779608 11.3616C4.36813 14.9901 7.19903 19.8947 7.19903 19.8947L6.89825 22.8916C6.89825 22.8916 7.03435 24.5248 11.2988 24.5248C15.5633 24.5248 15.4272 22.8916 15.4272 22.8916L15.1342 19.8548C15.1342 19.8548 15.5279 18.6639 16.115 17.2099C17.2791 15.5249 18.7762 13.3623 20.6367 11.4814L20.8545 10.1571L20.7293 10.1499L19.6155 9.48797C19.6155 9.48797 19.2013 9.28881 19.0416 8.33157C19.0416 8.33157 18.5231 4.2245 18.284 3.38748C18.284 3.38748 17.6062 1.07468 15.2934 0.277583C15.2934 0.277583 14.7354 0.157816 12.6217 0.676359C12.6217 0.676359 10.6279 1.39406 8.31551 0.756205C8.31551 0.756205 6.92002 0.198198 5.40476 0.55705C5.40476 0.55705 3.37143 1.11506 3.29158 4.02625L2.8928 8.93086C2.8928 8.93086 2.93273 9.60865 1.89609 9.80826L0.619915 10.2143L0.546875 10.247L0.779608 11.3616Z" fill="#CECECE"/>
<path opacity="0.3" d="M2.53906 9.5479C10.9152 14.2765 19.6179 9.48438 19.6179 9.48438L14.0686 17.3532H8.47941L2.53906 9.5479Z" fill="url(#paint0_linear_145_45611)"/>
<defs>
<linearGradient id="paint0_linear_145_45611" x1="11.0708" y1="12.2718" x2="11.0277" y2="27.8911" gradientUnits="userSpaceOnUse">
<stop/>
<stop offset="0.2661" stop-color="#C3C3C1"/>
</linearGradient>
</defs>
</svg>
