<svg width="21" height="50" viewBox="0 0 21 50" fill="none" xmlns="http://www.w3.org/2000/svg">
<path d="M16 26.2C15.9 25.2 15.6 24.2 15.4 23.2C15.2 22.1 15.1 21.1 15.2 20C15.2 19.8 15.2 19.7 15.3 19.5C14.6 19.4 14 19.4 13.7 19.5C12.5 20.3 7.40001 19.8 6.60001 18.9C6.10001 18.3 6.2 18.2 6.5 18.1L5.5 17.9C5.6 18 5.6 18.2 5.7 18.3C5.7 18.4 5.8 18.5 5.8 18.5C5.9 18.7 6.00001 18.9 6.10001 19.2C6.30001 19.5 6.50001 19.9 6.60001 20.3C6.80001 21 6.70001 21.7 6.60001 22.5C6.30001 29.5 7.80001 46.7 8.60001 47.9C9.40001 49 10.2 49.2 11.2 49.2C12.3 49.2 13.3 48.2 13.6 48C14.9 46.7 14.7 41.8 15.2 37.6C15.6 34.5 15.8 31.5 16 28.4C16 27.8 16.2 27.1 16.1 26.5C16 26.5 16 26.4 16 26.2Z" fill="#C16263"/>
<path d="M10.9 25.2C13.2196 25.2 15.1 24.4389 15.1 23.5C15.1 22.5611 13.2196 21.8 10.9 21.8C8.58041 21.8 6.70001 22.5611 6.70001 23.5C6.70001 24.4389 8.58041 25.2 10.9 25.2Z" fill="#C16263"/>
<path d="M10.9 24.7C12.5569 24.7 13.9 24.1627 13.9 23.5C13.9 22.8372 12.5569 22.3 10.9 22.3C9.24315 22.3 7.90001 22.8372 7.90001 23.5C7.90001 24.1627 9.24315 24.7 10.9 24.7Z" fill="#61B75A"/>
<path d="M0.5 12C4.1 15.6 6.89999 20.5 6.89999 20.5L6.60001 23.5C6.60001 23.5 6.7 25.1 11 25.1C15.3 25.1 15.1 23.5 15.1 23.5L14.8 20.5C14.8 20.5 15.2 19.3 15.8 17.9C17 16.2 18.5 14.1 20.3 12.2L20.5 10.9H20.4L19.3 10.2C19.3 10.2 18.9 9.99999 18.7 8.99999C18.7 8.99999 18.2 4.89999 17.9 4.09999C17.9 4.09999 17.2 1.79999 14.9 0.999986C14.9 0.999986 14.3 0.89998 12.2 1.39998C12.2 1.39998 10.2 2.09999 7.89999 1.49999C7.89999 1.49999 6.5 0.899989 5 1.29999C5 1.29999 2.99999 1.89999 2.89999 4.79999L2.5 9.69998C2.5 9.69998 2.5 10.4 1.5 10.6L0.199997 11H0.100006L0.5 12Z" fill="#CDCDCD"/>
<path opacity="0.3" d="M2.20001 10.2C10.6 14.9 19.2 10.1 19.2 10.1L13.7 17.9H8.10002L2.20001 10.2Z" fill="url(#paint0_linear_32_86)"/>
<defs>
<linearGradient id="paint0_linear_32_86" x1="10.6923" y1="12.9411" x2="10.6493" y2="28.5118" gradientUnits="userSpaceOnUse">
<stop/>
<stop offset="0.2661" stop-color="#C2C2C0"/>
</linearGradient>
</defs>
</svg>
