<svg width="22" height="15" viewBox="0 0 22 15" fill="none" xmlns="http://www.w3.org/2000/svg">
<path d="M12.3743 0H9.62442V5.95795H0V8.70778H9.62442V14.6657H12.3743V8.70778H21.9987V5.95795H12.3743V0Z" fill="#D80027"/>
<path d="M16.9194 9.88379L21.9987 12.7056V9.88379H16.9194Z" fill="#0052B4"/>
<path d="M13.3904 9.88379L21.9986 14.6661V13.3138L15.8246 9.88379H13.3904Z" fill="#0052B4"/>
<path d="M19.7056 14.666L13.3904 11.1572V14.666H19.7056Z" fill="#0052B4"/>
<path d="M13.3904 9.88379L21.9986 14.6661V13.3138L15.8246 9.88379H13.3904Z" fill="#F0F0F0"/>
<path d="M13.3904 9.88379L21.9986 14.6661V13.3138L15.8246 9.88379H13.3904Z" fill="#D80027"/>
<path d="M3.88161 9.88379L0 12.0403V9.88379H3.88161Z" fill="#0052B4"/>
<path d="M8.60815 10.4922V14.6664H1.09521L8.60815 10.4922Z" fill="#0052B4"/>
<path d="M6.17394 9.88379L0 13.3138V14.6661L8.60819 9.88379H6.17394Z" fill="#D80027"/>
<path d="M5.07925 4.78278L0 1.96094V4.78278H5.07925Z" fill="#0052B4"/>
<path d="M8.60819 4.78231L0 0V1.35232L6.17394 4.78231H8.60819Z" fill="#0052B4"/>
<path d="M2.29297 0L8.60822 3.50879V0H2.29297Z" fill="#0052B4"/>
<path d="M8.60819 4.78231L0 0V1.35232L6.17394 4.78231H8.60819Z" fill="#F0F0F0"/>
<path d="M8.60819 4.78231L0 0V1.35232L6.17394 4.78231H8.60819Z" fill="#D80027"/>
<path d="M18.1172 4.78245L21.9988 2.62598V4.78245H18.1172Z" fill="#0052B4"/>
<path d="M13.3904 4.17421V0H20.9033L13.3904 4.17421Z" fill="#0052B4"/>
<path d="M15.8246 4.78231L21.9986 1.35232V0L13.3904 4.78231H15.8246Z" fill="#D80027"/>
</svg>
