<?xml version="1.0" standalone="no"?>
<!DOCTYPE svg PUBLIC "-//W3C//DTD SVG 20010904//EN"
 "http://www.w3.org/TR/2001/REC-SVG-20010904/DTD/svg10.dtd">
<svg version="1.0" xmlns="http://www.w3.org/2000/svg"
 width="734.000000pt" height="734.000000pt" viewBox="0 0 734.000000 734.000000"
 preserveAspectRatio="xMidYMid meet">
<metadata>
Created by potrace 1.14, written by Peter Selinger 2001-2017
</metadata>
<g transform="translate(0.000000,734.000000) scale(0.100000,-0.100000)"
fill="#000000" stroke="none">
<path d="M3487 7204 c-1 -1 -60 -5 -132 -8 -71 -4 -146 -8 -165 -10 -130 -15
-155 -18 -169 -21 -34 -6 -107 -18 -121 -20 -8 -1 -26 -5 -40 -9 -14 -4 -38
-9 -55 -11 -16 -2 -30 -4 -30 -5 0 -1 -9 -3 -20 -6 -23 -4 -175 -43 -190 -48
-5 -2 -17 -6 -25 -9 -8 -3 -42 -13 -75 -23 -63 -18 -219 -75 -270 -98 -16 -8
-63 -28 -103 -46 -99 -42 -295 -145 -362 -189 -14 -9 -37 -23 -52 -31 -16 -7
-28 -17 -28 -22 0 -4 -5 -8 -10 -8 -13 0 -103 -61 -207 -140 -80 -61 -87 -67
-168 -135 -54 -45 -329 -317 -390 -385 -96 -107 -258 -320 -310 -407 -5 -9
-18 -26 -28 -37 -9 -11 -17 -24 -17 -30 0 -5 -6 -17 -14 -25 -7 -9 -30 -47
-51 -86 -21 -38 -50 -92 -65 -120 -37 -66 -134 -287 -159 -361 -11 -32 -25
-72 -32 -89 -7 -16 -13 -34 -14 -40 -2 -5 -10 -35 -19 -66 -19 -65 -17 -57
-56 -219 -16 -69 -32 -141 -35 -160 -3 -20 -7 -45 -9 -55 -4 -22 -17 -113 -22
-160 -26 -216 -34 -507 -20 -695 4 -47 9 -110 11 -140 2 -30 6 -68 8 -85 3
-16 8 -55 11 -85 4 -30 9 -62 11 -70 2 -8 7 -35 10 -60 18 -135 114 -470 185
-650 65 -165 237 -499 261 -508 5 -2 9 -8 9 -14 0 -9 136 -216 150 -228 3 -3
27 -33 53 -67 26 -34 53 -68 60 -75 6 -7 37 -43 67 -78 30 -36 126 -136 215
-223 172 -170 166 -164 240 -223 27 -21 61 -49 75 -61 44 -38 232 -167 338
-231 108 -66 352 -192 371 -192 6 0 11 -4 11 -8 0 -5 6 -9 13 -9 6 -1 44 -15
82 -31 97 -40 304 -113 340 -119 17 -3 36 -10 43 -15 6 -6 12 -8 12 -5 0 3 15
1 33 -4 43 -13 60 -18 150 -38 26 -6 64 -14 85 -17 20 -3 44 -7 52 -9 8 -3 32
-7 54 -11 21 -3 47 -7 56 -9 10 -2 51 -7 92 -10 40 -4 87 -10 103 -12 43 -7
685 -10 685 -4 0 3 17 6 38 7 20 0 66 4 102 8 36 5 76 9 90 11 62 7 119 17
290 51 44 9 184 45 200 51 8 3 21 7 29 9 24 5 176 55 206 69 17 7 41 16 53 20
13 4 49 19 80 33 32 14 59 26 62 27 29 5 332 173 338 187 2 5 8 8 13 8 11 0
72 42 77 53 2 4 8 7 13 7 13 0 150 104 244 184 116 100 266 252 370 377 35 42
139 176 155 199 8 13 24 35 36 49 11 14 31 43 43 64 12 20 24 37 26 37 2 0 3
-295 1 -655 l-2 -655 25 -1 c14 0 221 -2 459 -3 l432 -2 1 335 c0 185 2 662 4
1061 3 667 10 2057 20 4135 2 451 4 890 5 975 1 85 1 175 1 200 l-1 45 -454 2
c-337 1 -455 -2 -458 -10 -2 -7 -4 -218 -3 -469 0 -255 -4 -458 -9 -458 -5 0
-4 -6 0 -12 11 -15 11 -78 1 -95 -4 -6 -4 -14 1 -16 9 -6 7 -70 -2 -86 -4 -5
-2 -12 3 -15 6 -4 6 -18 1 -35 -4 -16 -6 -32 -3 -35 7 -6 9 -86 3 -86 -3 0
-13 12 -22 28 -55 90 -163 235 -276 372 -41 50 -299 311 -347 351 -202 169
-395 297 -605 401 -119 59 -231 108 -245 108 -8 0 -17 5 -20 10 -3 6 -16 10
-29 10 -12 0 -26 4 -31 9 -21 19 -346 110 -452 127 -21 3 -41 8 -44 10 -8 5
-200 34 -264 40 -27 2 -68 6 -90 9 -82 9 -482 24 -488 19z m453 -877 c19 -3
62 -8 95 -12 33 -4 69 -9 80 -12 11 -2 31 -6 45 -8 121 -16 422 -102 545 -155
311 -134 482 -234 715 -418 162 -128 359 -340 481 -517 18 -27 37 -51 42 -53
4 -2 7 -8 7 -14 0 -5 13 -28 29 -51 35 -51 123 -214 121 -223 -1 -4 2 -10 7
-13 41 -28 201 -482 229 -651 3 -14 7 -36 9 -50 11 -54 13 -69 19 -116 3 -27
9 -69 13 -94 3 -25 7 -137 7 -250 1 -252 -8 -352 -48 -550 -8 -41 -17 -87 -20
-102 -3 -15 -8 -32 -11 -38 -4 -6 -8 -23 -10 -38 -2 -15 -8 -38 -13 -52 -5
-14 -11 -29 -12 -35 -1 -5 -7 -21 -12 -35 -5 -14 -11 -32 -13 -40 -14 -62
-193 -454 -215 -470 -4 -3 -15 -21 -25 -40 -17 -34 -162 -250 -175 -260 -3 -3
-34 -39 -68 -82 -67 -83 -201 -219 -276 -283 -27 -22 -53 -44 -60 -50 -79 -69
-340 -245 -362 -245 -7 0 -14 -4 -16 -8 -5 -13 -215 -117 -323 -160 -147 -59
-305 -110 -395 -128 -14 -3 -41 -9 -60 -14 -19 -5 -51 -11 -70 -14 -19 -3 -46
-7 -60 -10 -14 -4 -45 -9 -70 -12 -25 -3 -53 -8 -63 -10 -123 -23 -521 -23
-687 0 -94 13 -186 30 -315 56 -54 12 -269 77 -314 96 -20 9 -56 22 -80 31
-51 17 -281 129 -361 174 -163 94 -383 260 -530 401 -91 88 -310 353 -310 376
0 6 -3 12 -8 14 -25 11 -185 295 -250 443 -54 126 -122 329 -147 440 -3 11 -8
34 -12 50 -9 39 -8 33 -17 88 -4 27 -9 59 -12 70 -22 108 -29 224 -27 432 1
186 6 273 18 335 2 14 7 45 10 70 3 25 8 53 11 63 3 10 7 31 9 47 2 16 9 48
15 72 7 24 14 52 17 63 13 59 43 158 54 180 6 12 11 27 13 35 2 8 8 29 15 45
6 17 17 44 23 60 54 143 152 330 265 502 46 70 34 54 139 187 92 116 234 262
324 336 30 25 57 47 60 51 3 3 32 25 65 50 33 24 62 47 65 50 3 3 10 8 15 10
6 2 42 25 80 50 187 123 437 242 665 315 30 10 60 19 65 20 6 1 37 10 70 19
68 18 88 23 130 30 17 3 38 8 48 11 20 6 31 8 112 18 28 4 57 9 65 11 8 3 46
7 85 10 38 4 71 8 73 9 4 5 450 -2 492 -7z"/>
</g>
</svg>
