<svg width="19" height="17" viewBox="0 0 19 17" fill="none" xmlns="http://www.w3.org/2000/svg">
<path d="M9.14374 10.0681L0.363739 10.1681L0.34375 10.8481L9.18375 10.7381H9.20374L18.3337 9.26813L18.3537 8.57812L9.14374 10.0681Z" fill="#7C7B79"/>
<path opacity="0.6" d="M7.09651 0.436175C7.09651 0.436175 5.11652 1.22618 4.51652 5.79618C4.51652 5.79618 3.91652 10.5562 3.72652 11.9462C3.53652 13.3362 3.52653 15.1162 5.70653 15.7162C7.88653 16.3162 9.87651 15.9162 11.0665 15.5162C12.2565 15.1162 14.0465 13.9262 14.4365 12.5362C14.8265 11.1462 14.4365 4.40617 13.8365 3.21617C13.2465 2.02617 11.8565 -1.15382 7.09651 0.436175Z" fill="white"/>
</svg>
