<svg width="21" height="18" viewBox="0 0 21 18" fill="none" xmlns="http://www.w3.org/2000/svg">
<path d="M9.66812 11.0784H9.64813L0.348114 12.5784L0.328125 13.2684L9.70813 11.7584L20.4081 11.3284L20.4281 10.6484L9.66812 11.0784Z" fill="#7C7B79"/>
<path opacity="0.6" d="M8.09828 1.70445C8.09828 1.70445 3.9183 7.21445 4.6783 11.7644C4.9283 13.2344 5.4283 14.7744 6.3083 15.9844C6.7383 16.5744 7.29829 17.1144 8.00829 17.3444C8.94829 17.6544 10.1483 17.4144 11.0883 17.2044C11.5483 17.1044 12.0083 16.9544 12.4383 16.7644C15.4483 15.3844 16.2483 11.8144 15.9983 8.78443C15.8283 6.65443 15.1783 4.59444 14.3483 2.65444C13.8083 1.39444 12.5383 1.06444 11.2683 0.88444C10.3283 0.73444 8.74828 0.844448 8.09828 1.70445Z" fill="white"/>
</svg>
