<svg width="20" height="15" viewBox="0 0 20 15" fill="none" xmlns="http://www.w3.org/2000/svg">
<path d="M9.05627 8.31187L0.42627 8.65187L0.40625 9.33188L9.09625 8.99188H9.11627L19.3963 7.86188L19.4062 7.17188L9.05627 8.31187Z" fill="#7C7B79"/>
<path opacity="0.6" d="M7.8292 1.04197C7.8292 1.04197 4.24921 5.76198 4.89921 9.67198C5.10921 10.932 5.5392 12.252 6.2992 13.292C6.6692 13.802 7.14919 14.262 7.75919 14.462C8.55919 14.732 9.58921 14.522 10.3992 14.342C10.7992 14.252 11.1892 14.132 11.5592 13.962C14.1392 12.772 14.8292 9.71198 14.6192 7.11198C14.4692 5.29198 13.9192 3.52199 13.1992 1.85199C12.7292 0.771985 11.6492 0.481981 10.5592 0.331981C9.73921 0.211981 8.3792 0.311973 7.8292 1.04197Z" fill="white"/>
</svg>
