<svg width="27" height="10" viewBox="0 0 27 10" fill="none" xmlns="http://www.w3.org/2000/svg">
<path d="M3.92719 4.90625L0.487183 4.40625L0.367188 5.07625L3.84718 5.58624H3.85719L26.5772 7.04625L26.6572 6.37625L3.92719 4.90625Z" fill="#7C7B79"/>
<path opacity="0.6" d="M6.30756 1.68389C6.30756 1.68389 12.7276 -0.186114 17.3376 1.43389C18.8276 1.95389 20.3376 2.69388 21.4576 3.63388C21.9976 4.09388 22.4676 4.64388 22.5876 5.22388C22.7576 6.00388 22.2976 6.84388 21.9276 7.50388C21.7476 7.82388 21.5176 8.13388 21.2376 8.41388C19.2976 10.3639 15.4476 10.1339 12.3476 9.25388C10.1676 8.63388 8.12756 7.67389 6.24756 6.59389C5.02756 5.89389 4.88756 4.86389 4.91756 3.87389C4.92756 3.13389 5.30756 1.97389 6.30756 1.68389Z" fill="white"/>
</svg>
