<svg width="29" height="11" viewBox="0 0 29 11" fill="none" xmlns="http://www.w3.org/2000/svg">
<path d="M23.6581 6.41281L2.59813 2.50281H2.57812L0.658127 2.38281L0.578125 3.05281L2.49812 3.17281L23.5381 7.08281L23.5481 7.0928L28.2081 7.64281L28.2381 6.96281L23.6581 6.41281Z" fill="#7C7B79"/>
<path opacity="0.6" d="M6.04975 1.85576C6.04975 1.85576 12.4697 -0.0142393 17.0797 1.60576C18.5697 2.12576 20.0797 2.86576 21.1997 3.80576C21.7397 4.26576 22.2097 4.81575 22.3297 5.39575C22.4997 6.17575 22.0397 7.01575 21.6697 7.67575C21.4897 7.99575 21.2597 8.30576 20.9797 8.58576C19.0397 10.5358 15.1897 10.3058 12.0897 9.42575C9.90974 8.80575 7.86975 7.84575 5.98975 6.76575C4.76975 6.06575 4.62975 5.03575 4.65975 4.04575C4.67975 3.30575 5.05975 2.14576 6.04975 1.85576Z" fill="white"/>
</svg>
