<svg width="24" height="10" viewBox="0 0 24 10" fill="none" xmlns="http://www.w3.org/2000/svg">
<path d="M11.9309 5.5428L0.530937 3.88281L0.460938 4.56281L11.8509 6.21281L11.8609 6.22281L23.5209 6.97281L23.6009 6.2928L11.9309 5.5428Z" fill="#7C7B79"/>
<path opacity="0.6" d="M5.15912 1.76201C5.15912 1.76201 11.5791 -0.107989 16.1891 1.51201C17.6791 2.03201 19.1891 2.77202 20.3091 3.71202C20.8491 4.17202 21.3191 4.72202 21.4391 5.30202C21.6091 6.08202 21.1491 6.92202 20.7791 7.58202C20.5991 7.90202 20.3691 8.21202 20.0891 8.49202C18.1491 10.442 14.2991 10.212 11.1991 9.33202C9.01912 8.71202 6.97912 7.75201 5.09912 6.67201C3.87912 5.97201 3.73912 4.94201 3.76912 3.95201C3.78912 3.21201 4.16912 2.05201 5.15912 1.76201Z" fill="white"/>
</svg>
