<svg width="19" height="16" viewBox="0 0 19 16" fill="none" xmlns="http://www.w3.org/2000/svg">
<path d="M4.05502 9.67499L0.125 9.83499L0.154999 10.515L4.095 10.355H4.11502L18.175 8.80499L18.135 8.125L4.05502 9.67499Z" fill="#7C7B79"/>
<path opacity="0.6" d="M7.04014 1.63574C7.04014 1.63574 3.46014 6.35574 4.11014 10.2657C4.32014 11.5257 4.75014 12.8457 5.51014 13.8857C5.88014 14.3957 6.36013 14.8557 6.97013 15.0557C7.77013 15.3257 8.80015 15.1157 9.61015 14.9357C10.0101 14.8457 10.4001 14.7257 10.7701 14.5557C13.3501 13.3657 14.0401 10.3057 13.8301 7.70574C13.6801 5.88574 13.1301 4.11573 12.4101 2.44573C11.9401 1.36573 10.8601 1.07573 9.77015 0.925729C8.95015 0.805729 7.59014 0.905736 7.04014 1.63574Z" fill="white"/>
</svg>
