<svg width="29" height="10" viewBox="0 0 29 10" fill="none" xmlns="http://www.w3.org/2000/svg">
<path d="M26.7906 1.53531H26.7706L4.95062 5.60532L0.140625 6.13531L0.180634 6.81531L5.04062 6.28531H5.05063L26.8506 2.20531L28.1906 2.11531L28.1606 1.44531L26.7906 1.53531Z" fill="#7C7B79"/>
<path opacity="0.6" d="M22.043 1.03545C22.043 1.03545 15.623 -0.834552 11.013 0.785448C9.52298 1.30545 8.01298 2.04545 6.89298 2.98545C6.35298 3.44545 5.88298 3.99546 5.76298 4.57546C5.59298 5.35546 6.05298 6.19546 6.42298 6.85546C6.60298 7.17546 6.83298 7.48544 7.11298 7.76544C9.05298 9.71544 12.903 9.48546 16.003 8.60546C18.183 7.98546 20.223 7.02545 22.103 5.94545C23.323 5.24545 23.463 4.21545 23.433 3.22545C23.413 2.48545 23.033 1.32545 22.043 1.03545Z" fill="white"/>
</svg>
