<svg width="27" height="10" viewBox="0 0 27 10" fill="none" xmlns="http://www.w3.org/2000/svg">
<path d="M23.3041 3.86313L0.164062 5.44313L0.194061 6.11313L23.3641 4.53313H23.3741L26.1941 4.11313L26.0641 3.45312L23.3041 3.86313Z" fill="#7C7B79"/>
<path opacity="0.6" d="M20.3164 1.41045C20.3164 1.41045 13.8964 -0.459552 9.28642 1.16045C7.79642 1.68045 6.28642 2.42045 5.16642 3.36045C4.62642 3.82045 4.15642 4.37044 4.03642 4.95044C3.86642 5.73044 4.32642 6.57044 4.69642 7.23044C4.87642 7.55044 5.10642 7.86044 5.38642 8.14044C7.32642 10.0904 11.1764 9.86044 14.2764 8.98044C16.4564 8.36044 18.4964 7.40045 20.3764 6.32045C21.5964 5.62045 21.7364 4.59045 21.7064 3.60045C21.6964 2.86045 21.3164 1.70045 20.3164 1.41045Z" fill="white"/>
</svg>
