<svg width="20" height="15" viewBox="0 0 20 15" fill="none" xmlns="http://www.w3.org/2000/svg">
<path d="M9.65562 8.03937L0.585617 6.35938L0.515625 7.02937L9.53561 8.70938H9.54562L19.3156 9.87938L19.3856 9.20938L9.65562 8.03937Z" fill="#7C7B79"/>
<path opacity="0.6" d="M11.2159 0.95725C11.2159 0.95725 14.7959 5.67724 14.1459 9.58724C13.9359 10.8472 13.5059 12.1673 12.7459 13.2073C12.3759 13.7173 11.8959 14.1772 11.2859 14.3772C10.4859 14.6472 9.45592 14.4372 8.64592 14.2572C8.24592 14.1672 7.85593 14.0472 7.48593 13.8772C4.90594 12.6872 4.21594 9.62724 4.42594 7.02724C4.57594 5.20724 5.12594 3.43725 5.84594 1.76725C6.31594 0.687248 7.39593 0.397244 8.48593 0.247244C9.30593 0.127244 10.6559 0.21725 11.2159 0.95725Z" fill="white"/>
</svg>
