<svg width="21" height="18" viewBox="0 0 21 18" fill="none" xmlns="http://www.w3.org/2000/svg">
<path d="M10.0875 10.9516L0.457504 10.6016L0.4375 11.2716L10.0275 11.6316L20.4075 13.2616L20.4275 12.5816L10.0875 10.9516Z" fill="#7C7B79"/>
<path opacity="0.6" d="M12.6851 1.6185C12.6851 1.6185 16.8651 7.12849 16.1051 11.6785C15.8551 13.1485 15.355 14.6885 14.475 15.8985C14.045 16.4885 13.485 17.0285 12.775 17.2585C11.835 17.5685 10.635 17.3285 9.69505 17.1185C9.23505 17.0185 8.77506 16.8685 8.34506 16.6785C5.33506 15.2985 4.53504 11.7285 4.78504 8.6985C4.95504 6.5685 5.60505 4.50851 6.43505 2.56851C6.97505 1.30851 8.24505 0.978505 9.51505 0.798505C10.4651 0.648505 12.0451 0.758497 12.6851 1.6185Z" fill="white"/>
</svg>
