<svg width="19" height="17" viewBox="0 0 19 17" fill="none" xmlns="http://www.w3.org/2000/svg">
<path d="M8.58624 10.8659L0.426254 9.58594L0.40625 10.2659L8.50624 11.5459H8.52625L18.3362 11.7559L18.3562 11.0759L8.58624 10.8659Z" fill="#7C7B79"/>
<path opacity="0.6" d="M11.7588 1.29959C11.7588 1.29959 13.7388 2.08959 14.3388 6.65959C14.3388 6.65959 14.9388 11.4196 15.1288 12.8096C15.3288 14.1996 15.3288 15.9796 13.1488 16.5796C10.9688 17.1796 8.97882 16.7796 7.78882 16.3796C6.59882 15.9796 4.80882 14.7896 4.41882 13.3996C4.01882 12.0096 4.41883 5.26959 5.01883 4.07959C5.60883 2.88959 6.99882 -0.280407 11.7588 1.29959Z" fill="white"/>
</svg>
