<svg width="27" height="25" viewBox="0 0 27 25" fill="none" xmlns="http://www.w3.org/2000/svg">
<path d="M12.6559 14.3419H0.345947L0.335938 15.0219H12.6659L26.336 14.8519L26.3559 14.1719L12.6559 14.3419Z" fill="#7C7B79"/>
<path opacity="0.6" d="M4.8488 21.1625C4.8488 21.1625 3.32879 3.35249 11.3688 0.742491C11.3688 0.742491 20.4888 -0.777507 21.3588 15.0725C21.3788 15.5225 21.4588 15.9725 21.4688 16.4325C21.5088 17.4225 21.4788 18.4225 21.2988 19.4025C21.1188 20.4325 20.7788 21.4925 20.0888 22.2925C19.7488 22.6825 19.3288 22.9825 18.8488 23.1725C18.4288 23.3325 17.9788 23.3925 17.5388 23.4825C16.9988 23.5925 16.4688 23.6925 15.9188 23.7825C15.6288 23.8325 15.3388 23.8725 15.0388 23.9025C13.9588 24.0325 12.8688 24.0725 11.7888 24.1125C10.0288 24.1825 8.1988 24.2625 6.5488 23.5125C5.5888 23.0825 4.8488 22.2825 4.8488 21.1625Z" fill="white"/>
</svg>
