<svg width="25" height="43" viewBox="0 0 25 43" fill="none" xmlns="http://www.w3.org/2000/svg">
<path d="M6.20595 2.9669C5.67244 1.23114 7.2893 0.414533 8.66618 1.3804C11.3278 3.24727 12.717 6.4121 13.9296 9.31471C14.4912 10.6589 16.9805 15.3549 15.399 16.6193C13.8298 17.8737 8.17304 15.9964 8.10182 12.8928C8.06325 11.2088 8.1186 9.51478 7.89313 7.84117C7.64815 6.02285 6.72903 4.66727 6.20595 2.9669Z" fill="url(#paint0_linear_82_7853)"/>
<path d="M22.0191 26.8842C22.9813 20.5764 22.9659 12.9657 20.1623 7.12795C19.5108 5.77104 18.6239 4.5298 17.5673 3.45824C17.1527 3.03769 14.6825 0.512579 14.1635 1.1341C13.634 1.76787 14.1126 3.18422 14.2066 3.88877C14.3635 5.06785 14.5123 6.24784 14.6353 7.431C14.8843 9.83135 15.5045 12.4322 14.8558 14.8208C14.7128 15.3466 14.3826 15.8665 13.8645 16.0348C13.5909 16.1237 13.2929 16.1056 13.0121 16.0448C11.2346 15.6596 9.94847 13.8676 8.85559 12.5529C7.29272 10.6734 6.39583 8.56199 5.61507 6.26417C5.23581 5.14815 4.8021 4.06388 3.84896 3.32032C3.6194 3.14112 1.3706 0.381924 1.01674 0.46676C-0.148271 0.745311 0.254128 3.88831 0.296319 4.60284C0.622957 10.1593 4.69686 20.0203 4.69686 20.0203C4.69686 20.0203 5.67722 26.23 4.69686 28.1912C3.71649 30.1529 20.7121 30.1529 22.0191 26.8842Z" fill="url(#paint1_linear_82_7853)"/>
<path d="M22.9769 27.8713C22.9765 27.8708 20.362 24.9297 14.4788 24.9297C8.59567 24.9297 4.34661 26.8909 3.36624 29.5054C2.38586 32.1199 2.05876 39.3105 5.65408 40.618C6.79143 41.0317 8.04174 41.1342 9.06702 40.4011C9.94397 39.7741 10.2906 38.6218 11.6094 39.0492C12.1842 39.2352 12.6583 39.6385 13.1455 39.996C15.2877 41.5675 18.9284 43.1975 21.3682 41.3425C24.7036 38.8065 25.8813 31.1386 22.9769 27.8713Z" fill="url(#paint2_linear_82_7853)"/>
<path d="M15.0865 31.1543L15.3242 29.9812L14.2095 28.9168L13.2745 29.1214L12.1408 28.1406L11.4099 29.3301L10.7226 28.6106L10.1664 28.749L9.42379 30.4412L8.82858 32.2876L7.625 32.1592L8.55547 33.2362L10.3588 34.6099L10.2354 35.6125L11.3968 35.3875L12.3155 36.3534L14.2762 36.2086L16.3318 34.6984L16.7242 33.2476L17.6515 31.1825L16.5482 31.0568L15.0865 31.1543Z" fill="black"/>
<defs>
<linearGradient id="paint0_linear_82_7853" x1="12.7504" y1="17.5025" x2="5.53954" y2="-17.9175" gradientUnits="userSpaceOnUse">
<stop offset="0.1599" stop-color="#BFAB8D"/>
<stop offset="0.5078" stop-color="#E7E1D2"/>
<stop offset="0.7297" stop-color="#CCBFA6"/>
</linearGradient>
<linearGradient id="paint1_linear_82_7853" x1="27.9659" y1="14.9184" x2="0.87313" y2="15.0163" gradientUnits="userSpaceOnUse">
<stop offset="0.1599" stop-color="#BFAB8D"/>
<stop offset="0.5078" stop-color="#E7E1D2"/>
<stop offset="0.7297" stop-color="#CCBFA6"/>
</linearGradient>
<linearGradient id="paint2_linear_82_7853" x1="29.8378" y1="33.5014" x2="-2.72163" y2="33.619" gradientUnits="userSpaceOnUse">
<stop stop-color="#94938C"/>
<stop offset="0.2296" stop-color="#EDEBE1"/>
<stop offset="0.7988" stop-color="#EDEBE1"/>
<stop offset="1" stop-color="#94938C"/>
</linearGradient>
</defs>
</svg>
