<svg width="20" height="61" viewBox="0 0 20 61" fill="none" xmlns="http://www.w3.org/2000/svg">
<path d="M6.65893 34.7523C6.65893 34.7523 3.3908 36.0598 2.40999 43.5771C2.40999 43.5771 1.42962 51.4215 1.10253 53.7093C0.775902 55.9972 0.775903 58.9387 4.37068 59.9191C7.96592 60.8995 11.2341 60.2458 13.1952 59.5925C15.1564 58.9387 18.0979 56.9775 18.7516 54.6897C19.4053 52.4018 18.7516 41.2892 17.7713 39.328C16.7909 37.3673 14.5031 32.1378 6.65893 34.7523Z" fill="url(#paint0_linear_82_7774)"/>
<path d="M9.92974 3.70141C9.92974 3.70141 2.75563 19.3864 5.68897 35.8935C5.68897 35.8935 16.0908 34.6604 16.6053 37.484C15.1463 30.6169 14.4454 23.39 14.7326 16.38C14.8487 13.536 15.0497 10.696 15.1295 7.85062C15.1812 5.99786 15.5034 3.88105 14.7081 2.15531C14.3742 1.4299 13.8221 0.363794 12.9162 0.279412C11.3783 0.135147 10.3907 2.64119 9.92974 3.70141Z" fill="url(#paint1_linear_82_7774)"/>
<path d="M11.9214 45.1674L13.6014 44.8675L15.0817 46.4907L14.7591 47.8159L16.1201 49.4636L14.4007 50.4666L15.4038 51.4697L15.1892 52.2577L12.753 53.2608L10.1027 54.0488L10.2456 55.7682L8.74123 54.4067L6.84263 51.7923L5.40995 51.9352L5.76834 50.2874L4.42188 48.9473L4.69179 46.1573L6.91204 43.2774L8.9921 42.7652L11.965 41.5117L12.1083 43.0878L11.9214 45.1674Z" fill="black"/>
<defs>
<linearGradient id="paint0_linear_82_7774" x1="-3.50613" y1="47.8767" x2="22.5038" y2="46.5736" gradientUnits="userSpaceOnUse">
<stop stop-color="#94938C"/>
<stop offset="0.1599" stop-color="#D1CFC6"/>
<stop offset="0.2296" stop-color="#EDEBE1"/>
<stop offset="0.7988" stop-color="#EDEBE1"/>
<stop offset="0.9762" stop-color="#9F9E96"/>
<stop offset="1" stop-color="#94938C"/>
</linearGradient>
<linearGradient id="paint1_linear_82_7774" x1="13.9759" y1="18.8913" x2="4.99525" y2="19.0519" gradientUnits="userSpaceOnUse">
<stop stop-color="#BFAB8D"/>
<stop offset="0.5078" stop-color="#E7E1D2"/>
<stop offset="1" stop-color="#CCBFA6"/>
</linearGradient>
</defs>
</svg>
