<svg width="20" height="70" viewBox="0 0 20 70" fill="none" xmlns="http://www.w3.org/2000/svg">
<path d="M3.92969 45.5044C3.92969 45.5044 16.0113 42.4761 17.0153 44.2028L12.1361 9.65008C12.1361 9.65008 8.71634 0.769531 7.40887 0.769531C6.10141 0.769531 4.79394 4.69149 4.79394 4.69149C4.79394 4.69149 4.22094 37.2345 3.92969 45.5044Z" fill="url(#paint0_linear_82_7784)"/>
<path d="M6.25301 42.0075C6.25255 42.0084 -0.937619 51.4864 0.369849 59.3304C0.791759 61.8614 1.65555 64.5067 3.18123 66.594C3.92524 67.6121 4.89201 68.5335 6.11101 68.9372C7.72335 69.4712 9.79251 69.052 11.4089 68.6913C12.2047 68.5139 12.9863 68.2694 13.7276 67.9283C18.9103 65.5447 20.2795 59.3993 19.8626 54.1912C19.5695 50.5328 18.4589 46.9838 17.0153 43.6312C16.079 41.4563 13.8977 40.8865 11.7206 40.5785C10.082 40.3466 7.36676 40.539 6.25301 42.0075Z" fill="url(#paint1_linear_82_7784)"/>
<path d="M12.0696 52.6756L13.7495 52.3752L15.2292 53.9984L14.9072 55.324L16.2681 56.9717L14.5488 57.9748L15.5518 58.9774L15.3368 59.7654L12.9011 60.7684L10.2504 61.5564L10.3938 63.2758L8.8895 61.9148L6.99098 59.2999L5.55837 59.4433L5.91629 57.7956L4.57031 56.455L4.84024 53.6655L7.05993 50.7856L9.14038 50.2734L12.1131 49.0195L12.2565 50.5955L12.0696 52.6756Z" fill="black"/>
<defs>
<linearGradient id="paint0_linear_82_7784" x1="15.2836" y1="23.4333" x2="5.38996" y2="23.1286" gradientUnits="userSpaceOnUse">
<stop stop-color="#BFAB8D"/>
<stop offset="0.5078" stop-color="#E7E1D2"/>
<stop offset="1" stop-color="#CCBFA6"/>
</linearGradient>
<linearGradient id="paint1_linear_82_7784" x1="26.2118" y1="54.5392" x2="-6.74086" y2="55.1282" gradientUnits="userSpaceOnUse">
<stop stop-color="#94938C"/>
<stop offset="0.0617" stop-color="#A4A29B"/>
<stop offset="0.1809" stop-color="#CCCAC2"/>
<stop offset="0.2666" stop-color="#EDEBE1"/>
<stop offset="0.7117" stop-color="#EDEBE1"/>
<stop offset="0.7719" stop-color="#E0DED5"/>
<stop offset="0.883" stop-color="#BEBDB4"/>
<stop offset="1" stop-color="#94938C"/>
</linearGradient>
</defs>
</svg>
