<svg width="20" height="58" viewBox="0 0 20 58" fill="none" xmlns="http://www.w3.org/2000/svg">
<path d="M9.97656 56.2678C9.97656 56.2678 15.3226 57.1031 17.0638 54.2616C18.8046 51.4201 10.5264 54.5787 9.97656 56.2678Z" fill="#D8D6D0"/>
<path d="M15.3433 38.3488C15.3433 38.3488 15.0166 27.2362 14.0358 24.2946C13.0554 21.353 12.0746 11.5479 12.4017 8.93294C12.7283 6.31799 12.7283 2.39603 12.7283 2.39603C12.7283 2.39603 13.055 -0.545554 10.1134 1.74229C7.17182 4.03014 3.57652 15.1427 3.90361 19.7184C4.23025 24.2941 4.33368 38.0829 4.28197 38.0525C4.23025 38.0221 15.3433 38.3488 15.3433 38.3488Z" fill="url(#paint0_linear_82_7793)"/>
<path d="M4.55453 37.0396C4.55453 37.0396 -2.96253 48.1521 2.59338 54.0353C3.27205 54.7539 4.33948 55.2593 5.1665 55.7851C6.02028 56.3281 6.93123 57.0821 7.97192 57.1996C9.16548 57.3348 10.0392 56.0859 11.2124 55.8422C13.0773 55.4548 14.9024 55.7615 16.4952 54.4894C17.8103 53.4392 18.6079 51.8019 18.8787 50.1623C19.2162 48.1167 18.8669 46.038 18.4595 44.0297C18.2857 43.1736 17.99 42.3588 17.6438 41.5572C17.2755 40.7025 16.6099 39.8682 16.3205 38.9999C16.3205 39.0003 13.7057 31.1564 4.55453 37.0396Z" fill="url(#paint1_linear_82_7793)"/>
<path d="M11.7624 43.8441L13.1252 43.601L14.3256 44.9175L14.0643 45.9927L15.1685 47.3293L13.7735 48.1427L14.5874 48.9562L14.4127 49.5954L12.437 50.4088L10.2871 51.048L10.4033 52.4426L9.18288 51.3389L7.64314 49.2179L6.48087 49.3341L6.77165 47.9975L5.67969 46.9101L5.89835 44.6471L7.69894 42.3112L9.38658 41.8956L11.7978 40.8789L11.9144 42.1574L11.7624 43.8441Z" fill="black"/>
<defs>
<linearGradient id="paint0_linear_82_7793" x1="14.4436" y1="19.6573" x2="1.55107" y2="19.2602" gradientUnits="userSpaceOnUse">
<stop stop-color="#BFAB8D"/>
<stop offset="0.5078" stop-color="#E7E1D2"/>
<stop offset="1" stop-color="#CCBFA6"/>
</linearGradient>
<linearGradient id="paint1_linear_82_7793" x1="22.5904" y1="46.4357" x2="-4.13509" y2="45.6125" gradientUnits="userSpaceOnUse">
<stop stop-color="#94938C"/>
<stop offset="0.0311" stop-color="#A6A59D"/>
<stop offset="0.0939" stop-color="#C5C3BB"/>
<stop offset="0.1552" stop-color="#DBD9D0"/>
<stop offset="0.2138" stop-color="#E8E7DD"/>
<stop offset="0.2666" stop-color="#EDEBE1"/>
<stop offset="0.7117" stop-color="#EDEBE1"/>
<stop offset="0.7637" stop-color="#E7E5DB"/>
<stop offset="0.835" stop-color="#D5D3CA"/>
<stop offset="0.9175" stop-color="#B8B7AF"/>
<stop offset="1" stop-color="#94938C"/>
</linearGradient>
</defs>
</svg>
