<svg width="19" height="55" viewBox="0 0 19 55" fill="none" xmlns="http://www.w3.org/2000/svg">
<path d="M9.52344 54.2565C9.52344 54.2565 14.8222 55.3521 16.6999 52.5998C18.5776 49.8475 10.1549 52.5962 9.52344 54.2565Z" fill="#D8D6D0"/>
<path d="M8.74963 54.492C8.74963 54.492 3.10632 54.8735 1.70218 51.2142C0.297587 47.5549 8.41663 52.3738 8.74963 54.492Z" fill="#D8D6D0"/>
<path d="M6.49624 33.9607C6.41321 34.0015 6.33428 34.0478 6.25988 34.1C4.82221 35.1044 3.61047 36.7317 2.69634 38.2038C1.30721 40.4404 0.31548 42.9986 0.582689 45.668C0.765063 47.4926 0.969661 49.5908 1.88153 51.2295C2.41414 52.1867 3.61137 52.6254 4.5863 52.9647C5.4215 53.2555 6.26441 53.5287 7.08328 53.8639C7.83954 54.1733 8.58174 54.7009 9.43373 54.6329C10.4132 54.5544 11.0973 53.7868 11.8808 53.2887C13.1102 52.5075 14.5819 52.1069 16.0382 52.1772C16.2941 52.1894 16.5563 52.2153 16.8017 52.1404C17.1597 52.0316 17.4214 51.7276 17.6324 51.4191C18.5933 50.0155 18.5678 48.6554 18.576 47.0231C18.5846 45.3645 18.5524 43.6959 18.2362 42.0627C17.6732 39.1524 15.7506 36.7448 14.7398 33.9979C14.6817 33.8396 14.6237 33.6776 14.5171 33.5469C14.3347 33.3233 14.0362 33.2267 13.7485 33.2035C13.2096 33.16 12.6666 33.2434 12.1326 33.3006C11.12 33.4095 10.1315 33.5225 9.11344 33.5923C8.30591 33.6481 7.24751 33.5891 6.49624 33.9607Z" fill="url(#paint0_linear_82_7805)"/>
<path d="M4.35532 35.8744C4.39161 35.9039 4.43517 35.927 4.48825 35.9415C4.75501 36.0164 5.57703 35.614 5.86783 35.5378C6.83186 35.2855 7.8068 35.0746 8.78762 34.899C9.82696 34.713 10.8767 34.5365 11.9351 34.5279C12.4954 34.5234 13.0588 34.5624 13.6073 34.6812C14.0946 34.7869 14.6194 35.1208 15.0808 35.1626C15.417 33.8519 15.0758 32.3276 14.9978 30.9966C14.9112 29.5167 14.7751 28.04 14.5904 26.5693C14.2438 23.8092 13.5552 21.152 13.0525 18.4269C12.5634 15.7761 12.4274 12.9738 12.4859 10.2745C12.5136 9.00516 12.5902 7.73354 12.7358 6.47235C12.8597 5.3958 13.17 4.43222 13.0598 3.31665C12.9477 2.18249 12.4156 0.46491 10.918 0.929463C9.79067 1.27924 9.08883 2.51911 8.51994 3.46183C7.43614 5.25698 6.64723 7.21273 5.92046 9.17937C5.1946 11.1433 4.52544 13.1412 4.14663 15.2045C3.81591 17.0042 3.85629 18.7658 3.88759 20.5827C3.93659 23.4671 4.00554 26.3511 4.07676 29.235C4.12258 31.0959 4.01642 33.0372 4.16296 34.9244C4.18972 35.2774 4.13802 35.6965 4.35532 35.8744Z" fill="url(#paint1_linear_82_7805)"/>
<path d="M11.1456 41.766L12.5084 41.5228L13.7089 42.8394L13.4476 43.9146L14.5518 45.2512L13.1568 46.0646L13.9707 46.878L13.796 47.5173L11.8202 48.3307L9.67017 48.9699L9.7863 50.3645L8.56588 49.2607L7.02606 47.1398L5.8637 47.2559L6.15452 45.9194L5.0625 44.832L5.28117 42.569L7.08186 40.233L8.76959 39.8175L11.1809 38.8008L11.2975 40.0792L11.1456 41.766Z" fill="black"/>
<defs>
<linearGradient id="paint0_linear_82_7805" x1="24.5258" y1="44.3201" x2="-5.71052" y2="43.3887" gradientUnits="userSpaceOnUse">
<stop stop-color="#94938C"/>
<stop offset="0.2666" stop-color="#EDEBE1"/>
<stop offset="0.7117" stop-color="#EDEBE1"/>
<stop offset="1" stop-color="#94938C"/>
</linearGradient>
<linearGradient id="paint1_linear_82_7805" x1="17.9902" y1="19.4499" x2="3.63085" y2="17.9419" gradientUnits="userSpaceOnUse">
<stop stop-color="#BFAB8D"/>
<stop offset="0.5078" stop-color="#E7E1D2"/>
<stop offset="1" stop-color="#CCBFA6"/>
</linearGradient>
</defs>
</svg>
