<svg width="24" height="42" viewBox="0 0 24 42" fill="none" xmlns="http://www.w3.org/2000/svg">
<path d="M9.35156 39.1173C9.35156 39.1173 11.801 42.7051 15.524 40.2618C19.247 37.8185 11.2716 37.427 9.35156 39.1173Z" fill="#D8D6D0"/>
<path d="M13.7836 3.53871C14.3044 1.79936 16.1028 2.01849 16.7108 3.58634C17.8863 6.61727 17.2829 10.0206 16.6786 13.1078C16.3986 14.5373 15.8588 19.8252 13.8412 19.9976C11.8396 20.1686 8.17919 15.4651 9.84422 12.8447C10.7475 11.4234 11.7352 10.0456 12.4774 8.529C13.285 6.88039 13.2736 5.24312 13.7836 3.53871Z" fill="url(#paint0_linear_82_7833)"/>
<path d="M3.32177 26.8383C3.38755 26.8751 3.59578 26.4087 3.78314 26.4291C4.02766 26.4554 4.33252 26.3701 4.57704 26.3452C5.42176 26.2599 6.26782 26.1859 7.11435 26.122C9.46612 25.9446 11.8288 25.8366 14.1878 25.8842C15.8287 25.9174 17.4945 26.0045 19.1037 26.3479C20.0976 26.5598 21.4055 26.8751 22.0134 27.7788C22.0134 27.7788 20.6439 22.2626 21.6247 18.0136C22.6055 13.7645 23.9125 2.32528 21.2976 1.99819C19.654 1.79268 18.415 5.61528 17.9863 6.67868C16.8494 9.49867 15.9594 12.5128 15.1532 15.4753C15.1305 15.5579 15.1074 15.6427 15.057 15.7121C14.6156 16.3227 13.0832 16.565 12.4916 16.1567C11.9962 15.8146 11.8737 15.1473 11.7929 14.5503C11.6496 13.4909 11.5062 12.4316 11.3629 11.3723C11.0222 8.85537 10.6792 6.32209 10.74 3.77566C10.7568 3.07655 11.5534 -0.483827 9.8581 0.364077C7.01003 1.78814 5.38594 5.72688 4.59521 8.55369C3.52639 12.3731 3.48689 16.4602 3.33945 20.399C3.27185 22.2046 3.18159 24.0351 3.29909 25.8407C3.32223 26.1936 3.22832 26.7857 3.32177 26.8383Z" fill="url(#paint1_linear_82_7833)"/>
<path d="M4.41764 25.6871C5.29457 25.0796 6.46915 25.0071 7.48762 24.8034C9.02145 24.4962 10.5689 24.2404 12.1317 24.146C15.5773 23.9373 19.3668 24.5693 21.6822 27.3725C22.4984 28.3601 23.0722 29.5428 23.3599 30.7904C23.6833 32.1949 23.4225 33.1022 22.9752 34.4292C22.5651 35.6455 22.0298 36.9624 21.3683 38.0639C20.6511 39.258 19.5037 40.2919 18.0611 40.271C16.4982 40.2483 14.9708 39.6368 13.9269 38.4518C13.872 38.3897 13.8157 38.3239 13.7386 38.2926C13.6465 38.2554 13.5426 38.2749 13.4465 38.2971C11.3455 38.7785 9.23964 40.1522 7.30159 41.0808C6.37521 41.5245 5.84581 41.6597 4.90763 41.167C3.73718 40.5523 2.6225 39.7965 1.75601 38.798C-0.807185 35.8446 0.170041 31.6487 2.04367 28.6032C2.63524 27.6419 3.36789 26.5277 4.25434 25.81C4.30787 25.7665 4.3623 25.7257 4.41764 25.6871Z" fill="url(#paint2_linear_82_7833)"/>
<path d="M14.4265 28.9852L15.7893 28.7415L16.9897 30.0585L16.7284 31.1333L17.8326 32.4698L16.4376 33.2832L17.2515 34.0971L17.0768 34.7363L15.1011 35.5497L12.9512 36.1889L13.0673 37.5835L11.8469 36.4793L10.3072 34.3584L9.14493 34.4745L9.43574 33.138L8.34375 32.051L8.56287 29.7881L10.363 27.4522L12.0507 27.0366L14.4619 26.0195L14.5785 27.298L14.4265 28.9852Z" fill="black"/>
<defs>
<linearGradient id="paint0_linear_82_7833" x1="11.1074" y1="19.2798" x2="24.7942" y2="-14.1726" gradientUnits="userSpaceOnUse">
<stop offset="0.1599" stop-color="#BFAB8D"/>
<stop offset="0.5078" stop-color="#E7E1D2"/>
<stop offset="0.7297" stop-color="#CCBFA6"/>
</linearGradient>
<linearGradient id="paint1_linear_82_7833" x1="22.1617" y1="16.2865" x2="4.47305" y2="12.9311" gradientUnits="userSpaceOnUse">
<stop offset="0.1599" stop-color="#BFAB8D"/>
<stop offset="0.5078" stop-color="#E7E1D2"/>
<stop offset="0.7297" stop-color="#CCBFA6"/>
</linearGradient>
<linearGradient id="paint2_linear_82_7833" x1="-5.05256" y1="32.7569" x2="28.2325" y2="32.8414" gradientUnits="userSpaceOnUse">
<stop stop-color="#94938C"/>
<stop offset="0.2296" stop-color="#EDEBE1"/>
<stop offset="0.7988" stop-color="#EDEBE1"/>
<stop offset="1" stop-color="#94938C"/>
</linearGradient>
</defs>
</svg>
