<svg width="24" height="42" viewBox="0 0 24 42" fill="none" xmlns="http://www.w3.org/2000/svg">
<path d="M18.9846 2.01376C19.5181 0.278017 17.9013 -0.538588 16.5245 0.427276C13.8629 2.29413 12.4738 5.45894 11.2612 8.36152C10.6995 9.70574 8.21036 14.4017 9.79179 15.6661C11.361 16.9205 17.0176 15.0432 17.0888 11.9396C17.1273 10.2556 17.072 8.56159 17.2975 6.888C17.5425 5.06969 18.4615 3.71411 18.9846 2.01376Z" fill="url(#paint0_linear_82_7845)"/>
<path d="M3.19207 25.9379C2.22984 19.6301 2.24525 12.0194 5.04891 6.18158C5.70037 4.82466 6.5873 3.58342 7.64388 2.51186C8.05854 2.09131 10.5283 -0.433795 11.0478 0.187728C11.5772 0.821501 11.0986 2.23785 11.0046 2.94239C10.8477 4.12147 10.6989 5.30146 10.5759 6.48463C10.3269 8.88498 9.70673 11.4859 10.3555 13.8744C10.4984 14.4002 10.8286 14.9201 11.3467 15.0884C11.6203 15.1773 11.9183 15.1592 12.1992 15.0984C13.9766 14.7132 15.2628 12.9212 16.3556 11.6065C17.9185 9.72698 18.8154 7.61562 19.5962 5.3178C19.9754 4.20178 20.4091 3.11752 21.3623 2.37396C21.5918 2.19476 22.055 1.77919 22.4089 1.86402C23.5739 2.14258 23.1715 5.28559 23.1293 6.00011C22.8022 11.5566 20.5144 19.0739 20.5144 19.0739C20.5144 19.0739 19.534 25.2837 20.5144 27.2449C21.4952 29.2061 4.49953 29.2061 3.19207 25.9379Z" fill="url(#paint1_linear_82_7845)"/>
<path d="M2.21218 26.9181C2.21218 26.9177 4.82716 23.9766 10.7104 23.9766C16.5936 23.9766 20.8427 25.9378 21.8231 28.5522C22.8035 31.1667 23.1306 38.3574 19.5352 39.6648C18.3978 40.0786 17.1475 40.1811 16.1222 39.448C15.2453 38.821 14.8987 37.6687 13.5799 38.0961C13.0051 38.2821 12.531 38.6854 12.0437 39.0428C9.90147 40.6144 6.26075 42.2444 3.8209 40.3893C0.485496 37.8533 -0.692236 30.1854 2.21218 26.9181Z" fill="url(#paint2_linear_82_7845)"/>
<path d="M10.1041 30.1973L9.86636 29.0241L10.981 27.9598L11.9161 28.1644L13.0498 27.1836L13.7806 28.3731L14.4679 27.6536L15.0241 27.792L15.7668 29.4841L16.362 31.3306L17.5655 31.2022L16.6351 32.2792L14.8317 33.6529L14.9552 34.6555L13.7938 34.4305L12.8751 35.3963L10.9144 35.2516L8.85877 33.7413L8.46637 32.2905L7.53906 30.2254L8.64239 30.0998L10.1041 30.1973Z" fill="black"/>
<defs>
<linearGradient id="paint0_linear_82_7845" x1="12.4484" y1="16.5623" x2="19.6593" y2="-18.8574" gradientUnits="userSpaceOnUse">
<stop offset="0.1599" stop-color="#BFAB8D"/>
<stop offset="0.5078" stop-color="#E7E1D2"/>
<stop offset="0.7297" stop-color="#CCBFA6"/>
</linearGradient>
<linearGradient id="paint1_linear_82_7845" x1="-2.32711" y1="14.2829" x2="22.6103" y2="14.373" gradientUnits="userSpaceOnUse">
<stop offset="0.1599" stop-color="#BFAB8D"/>
<stop offset="0.5078" stop-color="#E7E1D2"/>
<stop offset="0.7297" stop-color="#CCBFA6"/>
</linearGradient>
<linearGradient id="paint2_linear_82_7845" x1="-4.64883" y1="32.5483" x2="27.911" y2="32.6659" gradientUnits="userSpaceOnUse">
<stop stop-color="#94938C"/>
<stop offset="0.2296" stop-color="#EDEBE1"/>
<stop offset="0.7988" stop-color="#EDEBE1"/>
<stop offset="1" stop-color="#94938C"/>
</linearGradient>
</defs>
</svg>
