<svg width="25" height="40" viewBox="0 0 25 40" fill="none" xmlns="http://www.w3.org/2000/svg">
<path d="M9.36624 36.9187C9.07136 38.7719 10.2572 39.2628 11.1873 38.0111C12.9851 35.5917 13.818 32.1275 14.5385 28.9632C14.8719 27.4979 16.4116 22.2702 15.2294 21.3221C14.0562 20.3816 10.1348 23.4226 10.2337 26.5565C10.2872 28.2564 10.4079 29.9477 10.3285 31.6757C10.2418 33.5534 9.65522 35.1031 9.36624 36.9187Z" fill="url(#paint0_linear_82_7954)"/>
<path d="M21.8376 13.6091C21.8376 13.6091 20.5302 17.2044 20.5302 21.1263C20.5302 25.0483 20.8568 29.951 18.569 33.5463C16.2811 37.1416 15.6274 38.7758 15.6274 38.7758C15.6274 38.7758 13.6662 41.0636 12.6858 38.4491C12.6858 38.4491 14.9736 30.6048 13.6662 26.6828C12.3587 22.7609 11.0512 24.0679 10.7246 24.7216C10.398 25.3753 5.82183 32.8926 5.16809 34.8538C4.51436 36.815 3.53398 38.7758 2.88025 38.7758C2.22651 38.7758 1.24613 37.1417 0.5924 34.2001C-0.0613343 31.2585 0.592403 27.9903 1.89987 25.702C3.20734 23.4137 4.51481 13.282 4.51481 11.6479C4.51481 10.0137 20.2035 12.9558 21.8376 13.6091Z" fill="url(#paint1_linear_82_7954)"/>
<path d="M14.2832 3.34039C14.5935 3.26689 14.9147 3.0641 15.2876 2.81867C16.3002 2.15132 17.3518 1.50756 18.52 1.18318C19.6882 0.85881 21.0034 0.886948 22.0432 1.51074C22.7745 1.94944 23.3162 2.64446 23.7621 3.37124C24.4598 4.50859 24.9748 5.83013 24.8146 7.15484C24.6322 8.66556 24.0329 10.1531 23.4182 11.5332C23.0453 12.3702 22.7346 13.3252 22.0627 13.9803C21.2787 14.7443 19.9608 14.8518 18.9278 14.9965C16.7058 15.3073 14.4747 15.0287 12.3052 14.5138C10.1485 14.0016 7.91966 13.4336 5.82237 12.7196C5.44537 12.5912 5.06883 12.4428 4.75308 12.2006C3.86798 11.5205 3.68606 9.97485 3.47329 8.955C3.15028 7.40481 3.34762 5.802 3.98185 4.35707C4.79844 2.49657 6.35995 0.854284 8.4332 0.535354C9.91714 0.307158 11.2346 0.61156 12.2331 1.76161C12.5638 2.1427 12.827 2.58548 13.1845 2.94342C13.5787 3.33766 13.9239 3.42568 14.2832 3.34039Z" fill="url(#paint2_linear_82_7954)"/>
<path d="M12.853 7.20368L11.9212 7.03763L11.1001 7.93817L11.2788 8.67311L10.5234 9.5877L11.4775 10.1439L10.9208 10.7005L11.0402 11.1374L12.3916 11.6941L13.8624 12.1314L13.783 13.085L14.6173 12.3301L15.6707 10.8793L16.4656 10.9587L16.2669 10.0445L17.014 9.30099L16.8639 7.75307L15.6326 6.15525L14.4785 5.87126L12.829 5.17578L12.7496 6.05L12.853 7.20368Z" fill="black"/>
<defs>
<linearGradient id="paint0_linear_82_7954" x1="13.2835" y1="20.9547" x2="13.2593" y2="58.0241" gradientUnits="userSpaceOnUse">
<stop offset="0.1599" stop-color="#BFAB8D"/>
<stop offset="0.5078" stop-color="#E7E1D2"/>
<stop offset="0.7297" stop-color="#CCBFA6"/>
</linearGradient>
<linearGradient id="paint1_linear_82_7954" x1="19.9432" y1="25.3961" x2="3.18503" y2="25.4567" gradientUnits="userSpaceOnUse">
<stop stop-color="#BFAB8D"/>
<stop offset="0.5078" stop-color="#E7E1D2"/>
<stop offset="1" stop-color="#CCBFA6"/>
</linearGradient>
<linearGradient id="paint2_linear_82_7954" x1="31.1949" y1="7.73112" x2="-2.84484" y2="7.85409" gradientUnits="userSpaceOnUse">
<stop stop-color="#94938C"/>
<stop offset="0.2614" stop-color="#EDEBE1"/>
<stop offset="0.7687" stop-color="#EDEBE1"/>
<stop offset="1" stop-color="#94938C"/>
</linearGradient>
</defs>
</svg>
