<svg width="27" height="48" viewBox="0 0 27 48" fill="none" xmlns="http://www.w3.org/2000/svg">
<path d="M10.7714 42.0849C10.5695 44.042 11.8393 44.4871 12.7403 43.1238C14.4829 40.4876 15.1552 36.8134 15.7268 33.4595C15.9918 31.9066 17.302 26.3456 16.0099 25.4211C14.7278 24.5042 10.7982 27.9135 11.0817 31.188C11.2355 32.9645 11.4596 34.7279 11.4759 36.5412C11.4945 38.5119 10.9697 40.1678 10.7714 42.0849Z" fill="url(#paint0_linear_82_7937)"/>
<path d="M22.4017 19.8239C21.7162 21.7824 21.1637 23.8266 20.8447 25.8772C20.6302 27.2573 20.6619 28.484 20.8715 29.85C21.224 32.1455 21.2494 34.5413 21.1505 36.8568C20.9963 40.4685 19.2637 43.1887 17.8786 46.4374C17.3696 47.631 16.1928 48.2575 15.1253 47.1592C13.7716 45.7664 14.1368 42.8389 14.0828 41.0723C14.0093 38.6543 13.9603 36.2194 13.4767 33.84C13.2685 32.8156 12.9759 31.7944 12.441 30.8961C11.9093 30.0028 10.9266 29.5673 9.98526 30.2106C8.73178 31.0671 8.44915 32.9435 8.01635 34.2791C7.61031 35.5317 7.24238 36.7965 6.88716 38.0645C6.3854 39.8551 5.92131 41.6571 5.44314 43.4541C5.24489 44.1981 4.59794 45.9456 3.50415 45.1862C3.13486 44.9294 2.9525 44.4848 2.7987 44.0624C2.29377 42.6733 1.89045 41.2502 1.48805 39.8284C0.948637 37.9234 0.452328 36.0239 0.336189 34.04C0.177858 31.3353 1.24353 28.6627 1.76434 26.0446C2.31781 23.2623 2.66351 20.4386 2.79598 17.605C2.8046 17.4186 2.81912 17.2158 2.94478 17.0779C3.11491 16.8919 3.40662 16.9064 3.65659 16.935C6.72838 17.287 9.80652 17.5733 12.8751 17.9571C14.9516 18.2152 17.0307 18.4883 19.089 18.8676C19.9964 19.0345 21.699 19.1212 22.4017 19.8239Z" fill="url(#paint1_linear_82_7937)"/>
<path d="M24.7992 15.5782C24.9017 14.3515 24.8736 13.1085 25.1073 11.8967C25.472 10.0054 26.427 8.35763 26.2918 6.35376C25.966 1.52942 19.2241 1.15651 15.8343 2.49257C14.4248 3.04787 13.8464 2.52342 12.6614 1.77486C11.3775 0.963698 9.86272 0.539062 8.34521 0.539062C6.60994 0.539062 4.69502 1.03266 3.21289 1.94453C1.02033 3.29375 1.02214 5.50721 0.87152 7.83046C0.704571 10.4001 0.764006 13.0472 1.61372 15.5043C1.87367 16.2565 2.218 16.9955 2.75968 17.5785C3.52955 18.4074 4.51038 18.5167 5.55063 18.7562C6.97061 19.0833 8.40646 19.3601 9.83777 19.6309C12.6446 20.1621 15.4777 20.5945 18.3336 20.7379C19.6878 20.8059 21.09 20.6684 22.2927 20.0419C24.0348 19.135 24.645 17.4297 24.7992 15.5782Z" fill="url(#paint2_linear_82_7937)"/>
<path d="M11.8547 8.5843L10.3653 8.31845L9.0533 9.75748L9.33912 10.932L8.13281 12.3928L9.65668 13.282L8.76749 14.1707L8.95803 14.8694L11.1175 15.7586L13.467 16.4572L13.34 17.9811L14.6733 16.7748L16.3564 14.4566L17.6262 14.5836L17.3087 13.1232L18.5023 11.9351L18.2627 9.46214L16.2952 6.90935L14.451 6.45523L11.8157 5.34375L11.6887 6.74105L11.8547 8.5843Z" fill="black"/>
<defs>
<linearGradient id="paint0_linear_82_7937" x1="13.9537" y1="25.1599" x2="16.0632" y2="63.9646" gradientUnits="userSpaceOnUse">
<stop offset="0.1599" stop-color="#BFAB8D"/>
<stop offset="0.5078" stop-color="#E7E1D2"/>
<stop offset="0.7297" stop-color="#CCBFA6"/>
</linearGradient>
<linearGradient id="paint1_linear_82_7937" x1="19.875" y1="33.7152" x2="2.38085" y2="30.311" gradientUnits="userSpaceOnUse">
<stop stop-color="#BFAB8D"/>
<stop offset="0.5078" stop-color="#E7E1D2"/>
<stop offset="1" stop-color="#CCBFA6"/>
</linearGradient>
<linearGradient id="paint2_linear_82_7937" x1="30.3774" y1="13.6623" x2="-2.92093" y2="7.1829" gradientUnits="userSpaceOnUse">
<stop stop-color="#94938C"/>
<stop offset="0.2114" stop-color="#EDEBE1"/>
<stop offset="0.847" stop-color="#EDEBE1"/>
<stop offset="1" stop-color="#94938C"/>
</linearGradient>
</defs>
</svg>
