<svg width="29" height="51" viewBox="0 0 29 51" fill="none" xmlns="http://www.w3.org/2000/svg">
<path d="M19.6349 1.12599C20.9478 1.21537 21.9612 1.60056 23.0391 2.34099C23.3308 2.54152 23.607 2.78334 23.5494 3.07007C23.2809 4.40938 13.4059 3.33322 13.5007 2.1586C13.5597 1.46082 16.771 1.2739 17.4901 1.19632C18.3012 1.1083 19.003 1.08289 19.6349 1.12599Z" fill="#D8D6D0"/>
<path d="M9.46436 46.4957C8.78884 48.6597 10.384 49.5425 11.8656 48.2604C14.7301 45.7816 16.3878 41.8052 17.8459 38.1627C18.521 36.476 21.4195 30.5448 19.8943 29.1112C18.3808 27.6885 12.4482 30.3973 12.1442 34.2036C11.9791 36.2682 11.9101 38.3387 11.5549 40.4043C11.1688 42.649 10.1267 44.3752 9.46436 46.4957Z" fill="url(#paint0_linear_82_7920)"/>
<path d="M26.2429 21.2231C26.055 21.9975 25.8886 22.7855 25.8518 22.9379C25.5365 24.2459 25.2629 25.5638 25.0434 26.8917C24.8642 27.9764 24.7208 29.067 24.6142 30.1617C24.5108 31.2224 24.6011 32.3901 24.3992 33.4299C24.2 34.4548 23.8348 35.53 23.4896 36.5199C22.4529 39.4928 20.8828 42.2592 19.0182 44.788C18.0828 46.0564 17.0711 47.2682 16.0032 48.4278C15.3472 49.14 13.9526 51.2487 12.7935 50.3726C12.3585 50.0437 12.1838 49.4571 12.2119 48.9123C12.24 48.3674 12.4397 47.8484 12.6288 47.3367C14.086 43.3884 15.4715 38.4997 14.6522 34.2638C14.5669 33.8224 14.4335 33.3664 14.1169 33.0475C13.7018 32.6297 13.0371 32.5358 12.4692 32.6923C11.9012 32.8488 11.4166 33.2204 10.9938 33.6305C9.54256 35.0391 8.51138 37.0194 7.62447 38.8204C6.95304 40.1842 6.4599 41.6373 6.17636 43.1312C5.90507 44.5612 6.13554 46.2606 5.5612 47.6026C5.23955 48.3543 4.5223 48.9994 3.70434 48.9758C3.06785 48.9577 2.5044 48.548 2.08476 48.0689C0.538671 46.3037 0.242435 43.4909 0.152155 41.2403C0.0387393 38.404 0.442494 35.5776 0.882095 32.7835C1.48048 28.9794 2.24944 25.2013 3.10823 21.4481C3.14135 21.3025 3.60863 18.9348 3.70299 18.9375C3.70299 18.9375 26.5777 19.5722 26.7877 19.5781C26.6711 19.5754 26.4447 20.3915 26.2429 21.2231Z" fill="url(#paint1_linear_82_7920)"/>
<path d="M8.34313 0.95188C9.529 0.884284 10.4944 1.14332 11.5736 1.74533C11.8658 1.9082 12.1507 2.11416 12.1448 2.40314C12.118 3.75505 3.1342 3.8662 3.03213 2.69711C2.97406 2.0021 5.81034 1.43685 6.43957 1.27489C7.15 1.09297 7.77197 0.984543 8.34313 0.95188Z" fill="#D8D6D0"/>
<path d="M24.2847 2.00175C25.2379 2.09702 26.1357 2.46403 26.9092 3.27065C27.9059 4.31001 28.4049 5.75176 28.5283 7.18626C28.7928 10.2639 28.2661 13.9241 27.4971 16.9056C27.253 17.852 27.2285 19.8409 26.5789 20.5713C24.5574 22.8437 20.1155 21.7381 17.4275 21.5516C14.349 21.338 11.0345 21.2359 8.2762 20.5713C6.4502 20.4796 3.09716 20.8838 2.54278 18.469C1.90765 15.7011 1.51614 12.8707 1.38593 10.0339C1.28794 7.9144 0.97854 2.67725 4.02536 2.2685C4.47131 2.20861 5.22394 2.71128 5.6708 2.8129C6.60309 3.02431 7.51269 2.99573 8.43816 2.74984C9.57641 2.4477 10.6334 1.9033 11.7245 1.46007C11.9618 1.36389 12.2086 1.27089 12.4644 1.2777C13.0474 1.29357 13.4757 1.7985 13.942 2.14873C15.905 3.62406 19.4237 2.85872 21.5908 2.29209C22.5009 2.05437 23.4159 1.9151 24.2847 2.00175Z" fill="url(#paint2_linear_82_7920)"/>
<path d="M18.6556 13.1023L20.1931 12.0307L20.0819 9.62075L18.8021 8.8418L18.5798 6.50537L16.4657 7.06158V5.50411L15.6868 5.05859L13.0165 6.17146L10.3462 7.61777L9.12225 6.17146L9.01109 8.39674L9.56729 11.9018L8.34375 12.9031L9.90119 13.9044L9.89665 15.9908L12.273 17.9475L16.233 18.4602L18.2459 17.2425L21.5282 15.9073L20.4154 14.5722L18.6556 13.1023Z" fill="black"/>
<defs>
<linearGradient id="paint0_linear_82_7920" x1="17.2213" y1="28.2085" x2="9.45978" y2="72.5006" gradientUnits="userSpaceOnUse">
<stop offset="0.1599" stop-color="#BFAB8D"/>
<stop offset="0.5078" stop-color="#E7E1D2"/>
<stop offset="0.7297" stop-color="#CCBFA6"/>
</linearGradient>
<linearGradient id="paint1_linear_82_7920" x1="24.2011" y1="34.7035" x2="1.67417" y2="34.7849" gradientUnits="userSpaceOnUse">
<stop stop-color="#BFAB8D"/>
<stop offset="0.5078" stop-color="#E7E1D2"/>
<stop offset="1" stop-color="#CCBFA6"/>
</linearGradient>
<linearGradient id="paint2_linear_82_7920" x1="34.3036" y1="11.5702" x2="-4.54176" y2="11.7106" gradientUnits="userSpaceOnUse">
<stop stop-color="#94938C"/>
<stop offset="0.2296" stop-color="#EDEBE1"/>
<stop offset="0.7988" stop-color="#EDEBE1"/>
<stop offset="1" stop-color="#94938C"/>
</linearGradient>
</defs>
</svg>
