<svg width="25" height="42" viewBox="0 0 25 42" fill="none" xmlns="http://www.w3.org/2000/svg">
<path d="M7.79688 38.9689C7.79688 38.9689 10.2463 42.5572 13.9691 40.1136C17.6919 37.67 9.71682 37.2785 7.79688 38.9689Z" fill="#D8D6D0"/>
<path d="M10.6922 3.53871C10.1714 1.79936 8.3731 2.01849 7.7652 3.58634C6.58976 6.61727 7.19313 10.0206 7.7974 13.1078C8.07731 14.5373 8.61717 19.8252 10.6346 19.9976C12.6361 20.1686 16.2963 15.4651 14.6314 12.8447C13.7281 11.4234 12.7405 10.0456 11.9983 8.529C11.1912 6.88039 11.2021 5.24312 10.6922 3.53871Z" fill="url(#paint0_linear_82_7839)"/>
<path d="M21.1525 26.8383C21.0872 26.8751 20.8785 26.4087 20.6911 26.4291C20.4466 26.4554 20.1417 26.3701 19.8972 26.3452C19.0525 26.2599 18.2064 26.1859 17.3598 26.122C15.008 25.9446 12.6453 25.8366 10.2863 25.8842C8.64537 25.9174 6.9795 26.0045 5.37034 26.3479C4.37636 26.5598 3.06844 26.8751 2.46053 27.7788C2.46053 27.7788 3.83015 22.2626 2.84932 18.0136C1.8685 13.7645 0.561479 2.32528 3.17641 1.99819C4.82005 1.79268 6.05901 5.61528 6.48773 6.67868C7.62462 9.49867 8.51471 12.5128 9.32087 15.4753C9.34356 15.5579 9.3667 15.6427 9.41706 15.7121C9.85848 16.3227 11.391 16.565 11.9825 16.1567C12.4779 15.8146 12.6004 15.1473 12.6812 14.5503C12.8245 13.4909 12.9679 12.4316 13.1113 11.3723C13.452 8.85537 13.7949 6.32209 13.7341 3.77566C13.7174 3.07655 12.9207 -0.483827 14.6161 0.364077C17.4642 1.78814 19.0883 5.72688 19.8791 8.55369C20.9479 12.3731 20.9874 16.4602 21.1348 20.399C21.2024 22.2046 21.2927 24.0351 21.1752 25.8407C21.1521 26.1936 21.2464 26.7857 21.1525 26.8383Z" fill="url(#paint1_linear_82_7839)"/>
<path d="M20.0559 25.6871C19.179 25.0796 18.0044 25.0071 16.9859 24.8034C15.4521 24.4962 13.9046 24.2404 12.3413 24.146C8.89566 23.9373 5.10616 24.5693 2.79063 27.3725C1.97448 28.3601 1.40059 29.5428 1.11297 30.7904C0.7895 32.1949 1.05036 33.1022 1.49768 34.4292C1.90779 35.6455 2.44312 36.9624 3.10457 38.0639C3.82182 39.258 4.96915 40.2919 6.41181 40.271C7.9747 40.2483 9.50221 39.6368 10.5461 38.4518C10.601 38.3897 10.6573 38.3239 10.7344 38.2926C10.8265 38.2554 10.9304 38.2749 11.0265 38.2971C13.1275 38.7785 15.2334 40.1522 17.1715 41.0808C18.0979 41.5245 18.6273 41.6597 19.5655 41.167C20.736 40.5523 21.8506 39.7965 22.7171 38.798C25.2799 35.8446 24.3032 31.6487 22.4295 28.6032C21.8379 27.6419 21.1053 26.5277 20.2188 25.81C20.1662 25.7665 20.1117 25.7257 20.0559 25.6871Z" fill="url(#paint2_linear_82_7839)"/>
<path d="M10.0463 28.9852L8.68394 28.7415L7.48309 30.0585L7.74485 31.1333L6.64062 32.4698L8.0352 33.2832L7.22177 34.0971L7.39599 34.7363L9.3717 35.5497L11.5221 36.1889L11.4055 37.5835L12.6258 36.4793L14.1661 34.3584L15.3279 34.4745L15.0375 33.138L16.1295 32.051L15.9104 29.7881L14.1098 27.4522L12.4226 27.0366L10.0109 26.0195L9.89478 27.298L10.0463 28.9852Z" fill="black"/>
<defs>
<linearGradient id="paint0_linear_82_7839" x1="13.3623" y1="19.2696" x2="-0.325077" y2="-14.1822" gradientUnits="userSpaceOnUse">
<stop offset="0.1599" stop-color="#BFAB8D"/>
<stop offset="0.5078" stop-color="#E7E1D2"/>
<stop offset="0.7297" stop-color="#CCBFA6"/>
</linearGradient>
<linearGradient id="paint1_linear_82_7839" x1="2.31252" y1="16.2865" x2="20.0015" y2="12.931" gradientUnits="userSpaceOnUse">
<stop offset="0.1599" stop-color="#BFAB8D"/>
<stop offset="0.5078" stop-color="#E7E1D2"/>
<stop offset="0.7297" stop-color="#CCBFA6"/>
</linearGradient>
<linearGradient id="paint2_linear_82_7839" x1="29.5275" y1="32.7558" x2="-3.75789" y2="32.8403" gradientUnits="userSpaceOnUse">
<stop stop-color="#94938C"/>
<stop offset="0.2296" stop-color="#EDEBE1"/>
<stop offset="0.7988" stop-color="#EDEBE1"/>
<stop offset="1" stop-color="#94938C"/>
</linearGradient>
</defs>
</svg>
