<svg width="20" height="51" viewBox="0 0 20 51" fill="none" xmlns="http://www.w3.org/2000/svg">
<path d="M16.0829 20.7076C15.2799 25.9638 13.864 31.216 12.0208 36.1959C9.99468 41.669 7.4632 47.1425 2.54178 50.5723C2.42247 50.6553 2.29454 50.7415 2.14936 50.7487C2.00146 50.756 1.86218 50.6793 1.74377 50.5904C1.06553 50.0836 0.816473 49.1586 0.886338 48.3148C0.956203 47.471 1.29282 46.6766 1.5868 45.8827C3.38062 41.0402 3.81841 35.7109 4.32969 30.6094C4.65362 27.3797 5.42168 23.421 4.66042 20.2013C3.84291 16.7457 15.5767 20.0933 16.0829 20.7076Z" fill="url(#paint0_linear_82_7906)"/>
<path d="M5.94439 0.725708C6.67116 0.398132 7.42923 0.390412 8.4418 0.639043C8.71581 0.706191 9.00797 0.810547 9.15677 1.0501C9.8536 2.16985 4.13428 4.31997 3.45061 3.38035C3.04594 2.82138 4.57161 1.70571 4.89099 1.4285C5.25165 1.11544 5.59462 0.883598 5.94439 0.725708Z" fill="#D8D6D0"/>
<path d="M15.8821 0.9127C16.2196 1.01432 16.4764 1.1232 16.5844 1.21801C17.1306 1.69799 17.6981 2.20881 17.9427 2.89338C18.0406 3.16785 18.0511 3.53577 17.8016 3.68639C17.7172 3.7372 17.6165 3.75262 17.5185 3.76079C16.3739 3.85469 15.0496 3.11069 14.0815 2.57945C13.7231 2.38302 12.182 1.67394 12.2523 1.11639C12.3594 0.270769 14.6549 0.54342 15.8821 0.9127Z" fill="#D8D6D0"/>
<path d="M17.8996 3.01892C17.8996 3.01892 20.1874 4.65304 18.88 8.9021C18.2262 14.7853 16.265 20.6684 16.265 20.6684C16.265 20.6684 15.6113 21.6488 11.0356 21.6488C6.45996 21.6488 5.15251 20.9951 4.49878 19.6876C3.84505 18.3801 2.21094 5.96005 2.21094 5.96005C2.21094 5.96005 2.53758 3.01847 3.84504 2.69183C5.1525 2.36519 6.45997 2.0381 6.78661 2.0381C7.11325 2.0381 10.0548 0.0768898 11.3623 0.403984C12.6702 0.731079 15.9384 3.34556 17.8996 3.01892Z" fill="url(#paint1_linear_82_7906)"/>
<path d="M9.63625 7.8877L8.21585 7.6341L6.96421 9.00644L7.23686 10.1274L6.08594 11.5207L7.5399 12.3686L6.69202 13.2165L6.87348 13.8829L8.93308 14.7308L11.1741 15.3972L11.053 16.8508L12.3251 15.6998L13.9301 13.4891L15.1418 13.6102L14.8388 12.217L15.977 11.0838L15.7488 8.72471L13.872 6.28989L12.1132 5.85663L9.5995 4.79688L9.47837 6.12929L9.63625 7.8877Z" fill="black"/>
<defs>
<linearGradient id="paint0_linear_82_7906" x1="12.8548" y1="34.6748" x2="2.48833" y2="34.7123" gradientUnits="userSpaceOnUse">
<stop stop-color="#BFAB8D"/>
<stop offset="0.5078" stop-color="#E7E1D2"/>
<stop offset="1" stop-color="#CCBFA6"/>
</linearGradient>
<linearGradient id="paint1_linear_82_7906" x1="22.9175" y1="10.9654" x2="-1.21442" y2="11.0526" gradientUnits="userSpaceOnUse">
<stop stop-color="#94938C"/>
<stop offset="0.2296" stop-color="#EDEBE1"/>
<stop offset="0.7988" stop-color="#EDEBE1"/>
<stop offset="1" stop-color="#94938C"/>
</linearGradient>
</defs>
</svg>
