<svg width="19" height="53" viewBox="0 0 19 53" fill="none" xmlns="http://www.w3.org/2000/svg">
<path d="M15.5284 21.6846C15.5284 21.6846 9.31864 47.1786 4.0888 51.4272C-1.14059 55.6763 1.47387 47.1781 1.47387 47.1781C1.47387 47.1781 3.43506 31.4898 3.43506 28.5482C3.43506 25.6066 2.39527 20.0977 2.39527 20.0977C2.39527 20.0977 12.4675 22.2667 15.5284 21.6846Z" fill="url(#paint0_linear_82_7895)"/>
<path d="M15.8526 2.39935C15.8526 2.39935 19.1209 4.03347 18.1405 8.60918C17.1601 13.1849 17.4868 15.7998 17.4868 15.7998C17.4868 15.7998 16.833 23.6442 11.2769 23.9709C5.72027 24.2975 2.12538 21.0293 1.79828 19.0681C1.47164 17.1069 1.47163 11.5508 1.14453 10.5699C0.817886 9.58955 -0.162958 3.37928 3.10576 2.3989C6.37402 1.41852 8.33526 1.09142 8.33526 1.09142C8.33526 1.09142 11.6035 0.111497 15.8526 2.39935Z" fill="url(#paint1_linear_82_7895)"/>
<path d="M8.38633 8.98926L6.96591 8.73567L5.7147 10.1085L5.9869 11.229L4.83594 12.6222L6.28993 13.4701L5.44203 14.318L5.6235 14.9845L7.68314 15.8324L9.92428 16.4988L9.80313 17.9523L11.0752 16.8019L12.6803 14.5907L13.892 14.7118L13.589 13.3186L14.7272 12.1854L14.499 9.82629L12.6222 7.39145L10.8634 6.95865L8.3496 5.89844L8.22845 7.23085L8.38633 8.98926Z" fill="black"/>
<defs>
<linearGradient id="paint0_linear_82_7895" x1="2.26935" y1="36.358" x2="13.8257" y2="36.3998" gradientUnits="userSpaceOnUse">
<stop stop-color="#BFAB8D"/>
<stop offset="0.5078" stop-color="#E7E1D2"/>
<stop offset="1" stop-color="#CCBFA6"/>
</linearGradient>
<linearGradient id="paint1_linear_82_7895" x1="-2.53107" y1="12.3919" x2="21.6362" y2="12.4792" gradientUnits="userSpaceOnUse">
<stop stop-color="#94938C"/>
<stop offset="0.2296" stop-color="#EDEBE1"/>
<stop offset="0.4283" stop-color="#EDEBE1"/>
<stop offset="0.7988" stop-color="#EDEBE1"/>
<stop offset="1" stop-color="#94938C"/>
</linearGradient>
</defs>
</svg>
