<svg width="19" height="67" viewBox="0 0 19 67" fill="none" xmlns="http://www.w3.org/2000/svg">
<path d="M15.7603 27.3207C13.8553 27.3107 11.9208 27.1352 10.019 26.9827C7.71575 26.7981 4.48151 26.911 2.37828 25.8104C2.18593 25.7097 2.12243 25.3672 1.9455 25.2461C1.54309 26.5953 1.88742 28.7575 1.96681 30.1389C2.1941 34.088 2.36876 38.0444 2.33066 42.0008C2.30933 44.1847 2.18775 46.3532 1.99131 48.5276C1.72001 51.5304 0.706052 54.462 0.432942 57.4957C0.241492 59.6229 0.273709 61.7855 0.688819 63.886C0.819477 64.5465 1.00957 66.2591 1.58256 66.4169C2.33838 66.6247 3.47844 65.4624 3.85817 64.9503C5.11393 63.2572 5.43603 60.9648 6.07843 59.0027C6.79705 56.807 7.63908 54.6539 8.49924 52.5104C10.1765 48.3289 11.9403 44.1584 13.0205 39.7719C13.6516 37.2092 13.9324 34.5838 14.5249 32.0116C14.8869 30.4355 15.3147 28.8749 15.7603 27.3207Z" fill="url(#paint0_linear_82_7885)"/>
<path d="M17.955 8.56915C17.955 8.56915 18.9336 3.33929 16.6448 1.70609C14.3561 0.0728928 13.3761 0.727076 13.3761 0.727076C12.4298 0.985666 11.4789 1.22792 10.5262 1.46065C8.95743 1.84355 7.26389 2.39249 5.63795 2.3503C5.31222 2.34168 4.98558 2.30538 4.66166 2.33805C2.23862 2.5803 1.84529 5.16075 1.48145 7.05118C1.01463 9.47512 0.685726 11.9317 0.491557 14.3924C0.331412 16.4244 0.253372 18.4795 0.424858 20.5137C0.549163 21.9872 0.755132 23.6703 1.62027 24.9188C2.8293 26.6632 5.045 27.4558 7.02662 27.9117C9.54174 28.4906 12.1848 28.6266 14.7571 28.5182C16.1557 28.4588 16.5455 25.3421 16.6235 24.3531C17.0381 19.0883 17.4796 13.828 17.955 8.56915Z" fill="url(#paint1_linear_82_7885)"/>
<path d="M7.96445 12.0049L6.54401 11.7513L5.29235 13.1236L5.56502 14.2442L4.41406 15.6374L5.86805 16.4858L5.01971 17.3337L5.20162 18.0001L7.26126 18.848L9.50237 19.5145L9.38125 20.968L10.6533 19.817L12.2584 17.6063L13.4697 17.7275L13.1671 16.3342L14.3053 15.201L14.0772 12.8419L12.1999 10.4071L10.441 9.97382L7.92725 8.91406L7.80613 10.2465L7.96445 12.0049Z" fill="black"/>
<defs>
<linearGradient id="paint0_linear_82_7885" x1="11.132" y1="45.8062" x2="2.0502" y2="45.8428" gradientUnits="userSpaceOnUse">
<stop stop-color="#BFAB8D"/>
<stop offset="0.5078" stop-color="#E7E1D2"/>
<stop offset="1" stop-color="#CCBFA6"/>
</linearGradient>
<linearGradient id="paint1_linear_82_7885" x1="22.6264" y1="14.5385" x2="-3.70112" y2="14.6445" gradientUnits="userSpaceOnUse">
<stop stop-color="#94938C"/>
<stop offset="0.2296" stop-color="#EDEBE1"/>
<stop offset="0.7988" stop-color="#EDEBE1"/>
<stop offset="1" stop-color="#94938C"/>
</linearGradient>
</defs>
</svg>
