<svg width="17" height="64" viewBox="0 0 17 64" fill="none" xmlns="http://www.w3.org/2000/svg">
<path d="M14.4861 23.1094C14.4861 23.1094 6.31533 27.0314 4.02755 23.7631C4.11737 26.9747 4.17271 30.188 4.2149 33.4005C4.29474 39.5092 4.32695 45.6238 4.14867 51.7311C4.08606 53.8761 4.03616 56.0237 3.83111 58.161C3.72677 59.2498 3.58296 60.3354 3.37745 61.4097C3.28309 61.9042 2.99866 62.4867 3.22776 62.9382C3.53261 63.5384 4.32016 63.6745 4.87044 63.4036C5.64483 63.0225 6.15385 62.0852 6.53809 61.3616C7.46491 59.6159 8.06282 57.6864 8.60358 55.7937C11.8717 44.3544 13.9826 26.6253 14.4861 23.1094Z" fill="url(#paint0_linear_82_7875)"/>
<path d="M15.7442 0.672333C14.9716 0.275827 13.768 0.520808 12.9215 0.513549C11.3508 0.500393 9.78023 0.504932 8.21006 0.550299C6.45571 0.60111 4.01632 0.400592 2.39398 1.21175C0.836065 1.9907 0.670465 3.93649 0.717647 5.4649C0.904561 11.5028 1.29336 17.8568 3.72868 23.4701C4.44186 25.1137 5.43722 26.7723 6.99513 27.7396C9.40913 29.2385 12.1725 28.3697 13.5485 25.9698C14.65 24.049 15.0737 21.8346 15.3046 19.6625C15.4793 18.0179 15.3699 16.3611 15.4865 14.7134C15.6095 12.9772 16.1217 11.2918 16.4016 9.57558C16.8439 6.86174 17.3793 4.02994 16.368 1.37643C16.2383 1.03436 16.0183 0.812971 15.7442 0.672333Z" fill="url(#paint1_linear_82_7875)"/>
<path d="M7.25351 7.29435L5.8331 7.04075L4.58142 8.41306L4.85408 9.5336L3.70312 10.9268L5.15712 11.7747L4.30877 12.623L4.49068 13.289L6.55033 14.1373L8.79146 14.8033L8.67031 16.2573L9.94239 15.1063L11.5475 12.8957L12.7588 13.0168L12.4562 11.6236L13.5944 10.4899L13.3662 8.13134L11.489 5.69656L9.73009 5.26333L7.21632 4.20312L7.09519 5.53597L7.25351 7.29435Z" fill="black"/>
<defs>
<linearGradient id="paint0_linear_82_7875" x1="1.84745" y1="43.2959" x2="11.0803" y2="43.3292" gradientUnits="userSpaceOnUse">
<stop stop-color="#BFAB8D"/>
<stop offset="0.5078" stop-color="#E7E1D2"/>
<stop offset="1" stop-color="#CCBFA6"/>
</linearGradient>
<linearGradient id="paint1_linear_82_7875" x1="-2.00285" y1="14.412" x2="20.1905" y2="14.4921" gradientUnits="userSpaceOnUse">
<stop stop-color="#94938C"/>
<stop offset="0.2296" stop-color="#EDEBE1"/>
<stop offset="0.7988" stop-color="#EDEBE1"/>
<stop offset="1" stop-color="#94938C"/>
</linearGradient>
</defs>
</svg>
