<svg width="16" height="66" viewBox="0 0 16 66" fill="none" xmlns="http://www.w3.org/2000/svg">
<path d="M2.32734 24.7266C2.32689 32.2606 0.792107 39.7406 0.441871 47.2692C0.298964 50.3378 0.0625834 53.4055 0.107043 56.4795C0.141976 58.9162 -0.0444659 62.9796 1.47489 65.0547C2.1182 65.9312 4.02181 62.0292 4.20373 61.6545C5.3429 59.3086 6.05063 56.8148 6.93076 54.3668C7.90116 51.667 8.89062 48.9505 9.68591 46.1922C10.7471 42.5121 11.3518 38.679 12.0278 34.9141C12.1335 34.3243 13.0572 26.7426 13.4401 26.6882C13.4364 26.6882 4.28812 27.9943 2.32734 24.7266Z" fill="url(#paint0_linear_82_7865)"/>
<path d="M14.9366 0.683987C14.7878 0.54834 14.5252 0.519758 14.0388 0.478928C13.2948 0.416775 12.5218 0.47122 11.7759 0.472581C8.73593 0.478479 5.69591 0.538361 2.65589 0.538361C2.65589 0.538361 -0.285695 1.1921 0.0409454 2.82621C0.367586 4.46033 1.34842 24.7248 2.3288 26.0323C3.30917 27.3398 5.59701 31.5889 10.4998 30.2814C15.4021 28.9739 14.4217 17.5351 14.4217 17.5346C14.2924 15.4627 14.8133 13.1676 14.9543 11.0966C15.1639 8.02165 15.3431 4.9199 15.1671 1.83857C15.129 1.16306 15.1149 0.846854 14.9366 0.683987Z" fill="url(#paint1_linear_82_7865)"/>
<path d="M6.53476 6.64167L5.11433 6.38807L3.86267 7.76044L4.13531 8.88147L2.98438 10.2742L4.43837 11.1226L3.59 11.9705L3.77194 12.637L5.83158 13.4849L8.07269 14.1514L7.95157 15.6049L9.22365 14.454L10.8287 12.2432L12.04 12.3643L11.7374 10.9711L12.8757 9.83782L12.6475 7.47871L10.7702 5.04381L9.01133 4.61056L6.49757 3.55078L6.37645 4.88321L6.53476 6.64167Z" fill="black"/>
<defs>
<linearGradient id="paint0_linear_82_7865" x1="12.359" y1="44.9171" x2="-3.94646" y2="44.976" gradientUnits="userSpaceOnUse">
<stop stop-color="#BFAB8D"/>
<stop offset="0.5078" stop-color="#E7E1D2"/>
<stop offset="1" stop-color="#CCBFA6"/>
</linearGradient>
<linearGradient id="paint1_linear_82_7865" x1="17.4936" y1="15.4652" x2="-2.04947" y2="15.5358" gradientUnits="userSpaceOnUse">
<stop stop-color="#94938C"/>
<stop offset="0.2296" stop-color="#EDEBE1"/>
<stop offset="0.7988" stop-color="#EDEBE1"/>
<stop offset="1" stop-color="#94938C"/>
</linearGradient>
</defs>
</svg>
