<svg width="16" height="66" viewBox="0 0 16 66" fill="none" xmlns="http://www.w3.org/2000/svg">
<path d="M13.0342 24.7266C13.0346 32.2606 14.5694 39.7406 14.9196 47.2692C15.0625 50.3378 15.2989 53.4055 15.2544 56.4795C15.2195 58.9162 15.4059 62.9796 13.8866 65.0547C13.2433 65.9312 11.3398 62.0292 11.1579 61.6545C10.0187 59.3086 9.31104 56.8148 8.43094 54.3668C7.46057 51.667 6.47115 48.9505 5.67589 46.1922C4.61478 42.5121 4.01005 38.679 3.3341 34.9141C3.2284 34.3243 2.30476 26.7426 1.92188 26.6882C1.92505 26.6882 11.0735 27.9943 13.0342 24.7266Z" fill="url(#paint0_linear_82_7860)"/>
<path d="M0.426921 0.683987C0.575723 0.54834 0.838396 0.519758 1.32472 0.478928C2.06873 0.416775 2.84177 0.47122 3.58759 0.472581C6.62759 0.478479 9.66761 0.538361 12.7076 0.538361C12.7076 0.538361 15.6492 1.1921 15.3225 2.82621C14.9959 4.46033 14.0151 24.7248 13.0347 26.0323C12.0543 27.3398 9.76651 31.5889 4.86377 30.2814C-0.0385249 28.9739 0.941834 17.5351 0.941834 17.5346C1.07113 15.4627 0.550333 13.1676 0.409244 11.0966C0.199651 8.02165 0.0204345 4.9199 0.196456 1.83857C0.235017 1.16306 0.249085 0.846854 0.426921 0.683987Z" fill="url(#paint1_linear_82_7860)"/>
<path d="M8.82527 6.64167L10.2457 6.38807L11.4969 7.76044L11.2247 8.88147L12.3752 10.2742L10.9217 11.1226L11.7696 11.9705L11.5881 12.637L9.52846 13.4849L7.28735 14.1514L7.40847 15.6049L6.13639 14.454L4.53132 12.2432L3.31958 12.3643L3.62262 10.9711L2.48438 9.83782L2.71256 7.47871L4.58938 5.04381L6.34825 4.61056L8.86202 3.55078L8.98315 4.88321L8.82527 6.64167Z" fill="black"/>
<defs>
<linearGradient id="paint0_linear_82_7860" x1="3.00266" y1="44.9171" x2="19.3076" y2="44.976" gradientUnits="userSpaceOnUse">
<stop stop-color="#BFAB8D"/>
<stop offset="0.5078" stop-color="#E7E1D2"/>
<stop offset="1" stop-color="#CCBFA6"/>
</linearGradient>
<linearGradient id="paint1_linear_82_7860" x1="-2.12973" y1="15.4652" x2="17.4132" y2="15.5358" gradientUnits="userSpaceOnUse">
<stop stop-color="#94938C"/>
<stop offset="0.2296" stop-color="#EDEBE1"/>
<stop offset="0.7988" stop-color="#EDEBE1"/>
<stop offset="1" stop-color="#94938C"/>
</linearGradient>
</defs>
</svg>
