<svg width="17" height="64" viewBox="0 0 17 64" fill="none" xmlns="http://www.w3.org/2000/svg">
<path d="M3.21875 23.1094C3.21875 23.1094 11.3897 27.0314 13.6775 23.7631C13.5877 26.9747 13.5323 30.188 13.4901 33.4005C13.4103 39.5092 13.3781 45.6238 13.5564 51.7311C13.619 53.8761 13.6689 56.0237 13.8739 58.161C13.9783 59.2498 14.1221 60.3354 14.3276 61.4097C14.4224 61.9042 14.7064 62.4867 14.4773 62.9382C14.1724 63.5384 13.3849 63.6745 12.8346 63.4036C12.0602 63.0225 11.5512 62.0852 11.1669 61.3616C10.2401 59.6159 9.64216 57.6864 9.1014 55.7937C5.83366 44.3544 3.72277 26.6253 3.21875 23.1094Z" fill="url(#paint0_linear_82_7870)"/>
<path d="M1.95878 0.672333C2.73137 0.275827 3.93496 0.520808 4.7815 0.513549C6.35208 0.500393 7.92265 0.504932 9.49279 0.550299C11.2471 0.60111 13.6865 0.400592 15.3088 1.21175C16.8667 1.9907 17.0323 3.93649 16.9851 5.4649C16.7982 11.5028 16.4094 17.8568 13.9741 23.4701C13.2609 25.1137 12.2656 26.7723 10.7077 27.7396C8.29376 29.2385 5.53048 28.3697 4.15452 25.9698C3.05302 24.049 2.6293 21.8346 2.39838 19.6625C2.22372 18.0179 2.33306 16.3611 2.21647 14.7134C2.09353 12.9772 1.58132 11.2918 1.30141 9.57558C0.859089 6.86174 0.323775 4.02994 1.33499 1.37643C1.46474 1.03436 1.68432 0.812971 1.95878 0.672333Z" fill="url(#paint1_linear_82_7870)"/>
<path d="M10.4503 7.29435L11.8707 7.04075L13.1219 8.41306L12.8497 9.5336L14.0007 10.9268L12.5467 11.7747L13.3946 12.623L13.2131 13.289L11.1535 14.1373L8.91234 14.8033L9.03347 16.2573L7.76139 15.1063L6.15632 12.8957L4.94458 13.0168L5.24764 11.6236L4.10938 10.4899L4.33758 8.13134L6.21438 5.69656L7.97325 5.26333L10.487 4.20312L10.6081 5.53597L10.4503 7.29435Z" fill="black"/>
<defs>
<linearGradient id="paint0_linear_82_7870" x1="15.8579" y1="43.2959" x2="6.62494" y2="43.3292" gradientUnits="userSpaceOnUse">
<stop stop-color="#BFAB8D"/>
<stop offset="0.5078" stop-color="#E7E1D2"/>
<stop offset="1" stop-color="#CCBFA6"/>
</linearGradient>
<linearGradient id="paint1_linear_82_7870" x1="19.7054" y1="14.412" x2="-2.48758" y2="14.4921" gradientUnits="userSpaceOnUse">
<stop stop-color="#94938C"/>
<stop offset="0.2296" stop-color="#EDEBE1"/>
<stop offset="0.7988" stop-color="#EDEBE1"/>
<stop offset="1" stop-color="#94938C"/>
</linearGradient>
</defs>
</svg>
