<svg width="19" height="67" viewBox="0 0 19 67" fill="none" xmlns="http://www.w3.org/2000/svg">
<path d="M3.19531 27.3207C5.10028 27.3107 7.03475 27.1352 8.93654 26.9827C11.2398 26.7981 14.4741 26.911 16.5773 25.8104C16.7696 25.7097 16.8332 25.3672 17.0101 25.2461C17.4125 26.5953 17.0682 28.7575 16.9888 30.1389C16.7615 34.088 16.5868 38.0444 16.6249 42.0008C16.6462 44.1847 16.7678 46.3532 16.9643 48.5276C17.2356 51.5304 18.2495 54.462 18.5226 57.4957C18.7141 59.6229 18.6819 61.7855 18.2667 63.886C18.1361 64.5465 17.946 66.2591 17.373 66.4169C16.6172 66.6247 15.4771 65.4624 15.0974 64.9503C13.8416 63.2572 13.5195 60.9648 12.8771 59.0027C12.1585 56.807 11.3165 54.6539 10.4563 52.5104C8.77912 48.3289 7.01524 44.1584 5.93504 39.7719C5.30399 37.2092 5.02316 34.5838 4.43066 32.0116C4.06818 30.4355 3.64082 28.8749 3.19531 27.3207Z" fill="url(#paint0_linear_82_7880)"/>
<path d="M1.00479 8.56915C1.00479 8.56915 0.0262437 3.33929 2.31495 1.70609C4.60365 0.0728928 5.58355 0.727076 5.58355 0.727076C6.52988 0.985666 7.48076 1.22792 8.43344 1.46065C10.0022 1.84355 11.6957 2.39249 13.3216 2.3503C13.6473 2.34168 13.974 2.30538 14.2979 2.33805C16.7209 2.5803 17.1142 5.16075 17.478 7.05118C17.9448 9.47512 18.2737 11.9317 18.4679 14.3924C18.628 16.4244 18.7061 18.4795 18.5346 20.5137C18.4103 21.9872 18.2043 23.6703 17.3392 24.9188C16.1302 26.6632 13.9145 27.4558 11.9329 27.9117C9.41786 28.4906 6.77486 28.6266 4.20261 28.5182C2.80399 28.4588 2.41429 25.3421 2.33626 24.3531C1.92116 19.0883 1.47977 13.828 1.00479 8.56915Z" fill="url(#paint1_linear_82_7880)"/>
<path d="M10.9971 12.0049L12.4176 11.7513L13.6688 13.1236L13.3961 14.2442L14.5471 15.6374L13.0935 16.4858L13.9414 17.3337L13.76 18.0001L11.7003 18.848L9.45922 19.5145L9.58035 20.968L8.30827 19.817L6.70273 17.6063L5.49146 17.7275L5.79449 16.3342L4.65625 15.201L4.88446 12.8419L6.76126 10.4071L8.52012 9.97382L11.0339 8.91406L11.155 10.2465L10.9971 12.0049Z" fill="black"/>
<defs>
<linearGradient id="paint0_linear_82_7880" x1="7.8233" y1="45.8062" x2="16.9051" y2="45.8427" gradientUnits="userSpaceOnUse">
<stop stop-color="#BFAB8D"/>
<stop offset="0.5078" stop-color="#E7E1D2"/>
<stop offset="1" stop-color="#CCBFA6"/>
</linearGradient>
<linearGradient id="paint1_linear_82_7880" x1="-3.66678" y1="14.5385" x2="22.6602" y2="14.6445" gradientUnits="userSpaceOnUse">
<stop stop-color="#94938C"/>
<stop offset="0.2296" stop-color="#EDEBE1"/>
<stop offset="0.7988" stop-color="#EDEBE1"/>
<stop offset="1" stop-color="#94938C"/>
</linearGradient>
</defs>
</svg>
