<svg width="19" height="53" viewBox="0 0 19 53" fill="none" xmlns="http://www.w3.org/2000/svg">
<path d="M3.63281 21.6377C3.63281 21.6377 9.84259 47.1313 15.0724 51.3799C20.3019 55.6289 17.6874 47.1309 17.6874 47.1309C17.6874 47.1309 15.7262 31.4427 15.7262 28.5012C15.7262 25.5596 16.766 20.0508 16.766 20.0508C16.766 20.0508 6.69369 22.2197 3.63281 21.6377Z" fill="url(#paint0_linear_82_7890)"/>
<path d="M3.30738 2.35249C3.30738 2.35249 0.0389773 3.98663 1.01941 8.56239C1.99983 13.1381 1.67318 15.7531 1.67318 15.7531C1.67318 15.7531 2.32695 23.5976 7.88332 23.9242C13.4401 24.2509 17.0352 20.9826 17.3623 19.0214C17.689 17.0602 17.689 11.504 18.0161 10.5232C18.3427 9.54276 19.3236 3.33243 16.0548 2.35204C12.7864 1.37165 10.825 1.04455 10.825 1.04455C10.825 1.04455 7.55621 0.0646138 3.30738 2.35249Z" fill="url(#paint1_linear_82_7890)"/>
<path d="M10.7709 8.94245L12.1914 8.68885L13.4431 10.0617L13.1705 11.1823L14.3215 12.5755L12.8674 13.4234L13.7158 14.2713L13.5339 14.9378L11.4741 15.7857L9.23288 16.4522L9.35401 17.9057L8.08189 16.7552L6.47672 14.544L5.26538 14.6651L5.56799 13.2719L4.42969 12.1386L4.65788 9.77949L6.53525 7.34461L8.2942 6.9118L10.8081 5.85156L10.9292 7.184L10.7709 8.94245Z" fill="black"/>
<defs>
<linearGradient id="paint0_linear_82_7890" x1="16.892" y1="36.3109" x2="5.33563" y2="36.3527" gradientUnits="userSpaceOnUse">
<stop stop-color="#BFAB8D"/>
<stop offset="0.5078" stop-color="#E7E1D2"/>
<stop offset="1" stop-color="#CCBFA6"/>
</linearGradient>
<linearGradient id="paint1_linear_82_7890" x1="21.6915" y1="12.3452" x2="-2.47673" y2="12.4325" gradientUnits="userSpaceOnUse">
<stop stop-color="#94938C"/>
<stop offset="0.2296" stop-color="#EDEBE1"/>
<stop offset="0.4283" stop-color="#EDEBE1"/>
<stop offset="0.7988" stop-color="#EDEBE1"/>
<stop offset="1" stop-color="#94938C"/>
</linearGradient>
</defs>
</svg>
