<svg width="20" height="51" viewBox="0 0 20 51" fill="none" xmlns="http://www.w3.org/2000/svg">
<path d="M3.99219 20.7545C4.79518 26.0107 6.21108 31.2628 8.05434 36.2428C10.0804 41.7158 12.6119 47.1894 17.5333 50.6191C17.6526 50.7022 17.7805 50.7883 17.9257 50.7956C18.0736 50.8028 18.2129 50.7262 18.3313 50.6373C19.0091 50.1305 19.2586 49.2055 19.1887 48.3617C19.1189 47.5178 18.7822 46.7235 18.4883 45.9295C16.6945 41.0871 16.2567 35.7578 15.7454 30.6563C15.4215 27.4266 14.6534 23.4679 15.4147 20.2482C16.2322 16.7926 4.49894 20.1402 3.99219 20.7545Z" fill="url(#paint0_linear_82_7900)"/>
<path d="M14.1306 0.772564C13.4038 0.445012 12.6457 0.437292 11.6331 0.685905C11.3591 0.753049 11.0669 0.857397 10.9181 1.09694C10.2213 2.2166 15.9408 4.36657 16.6245 3.42701C17.0292 2.86808 15.5035 1.7525 15.1841 1.4753C14.8234 1.16227 14.4804 0.930442 14.1306 0.772564Z" fill="#D8D6D0"/>
<path d="M4.19547 0.959577C3.85793 1.0612 3.60115 1.17008 3.49317 1.26489C2.94694 1.74487 2.37938 2.25569 2.13485 2.94027C2.03685 3.21473 2.02641 3.58266 2.27594 3.73328C2.36032 3.78409 2.46105 3.79951 2.55904 3.80768C3.70369 3.90158 5.02798 3.15758 5.99613 2.62634C6.35454 2.4299 7.89572 1.72082 7.8254 1.16327C7.71833 0.317643 5.42223 0.590295 4.19547 0.959577Z" fill="#D8D6D0"/>
<path d="M2.18079 3.0658C2.18079 3.0658 -0.107009 4.69992 1.20044 8.94897C1.85416 14.8321 3.81531 20.7153 3.81531 20.7153C3.81531 20.7153 4.46904 21.6957 9.04465 21.6957C13.6203 21.6957 14.9277 21.0419 15.5814 19.7345C16.2352 18.427 17.8692 6.00693 17.8692 6.00693C17.8692 6.00693 17.5426 3.06534 16.2352 2.7387C14.9277 2.41206 13.6203 2.08497 13.2936 2.08497C12.967 2.08497 10.0255 0.123765 8.71803 0.450859C7.41013 0.777954 4.14151 3.39244 2.18079 3.0658Z" fill="url(#paint1_linear_82_7900)"/>
<path d="M10.4429 7.93458L11.8633 7.68097L13.1145 9.05331L12.8419 10.1743L13.9928 11.5675L12.5393 12.4154L13.3872 13.2634L13.2053 13.9298L11.1461 14.7777L8.90497 15.4441L9.0261 16.8977L7.75402 15.7467L6.14851 13.536L4.93721 13.6571L5.24027 12.2639L4.10156 11.1307L4.33021 8.77159L6.20701 6.33676L7.96587 5.90351L10.4796 4.84375L10.6008 6.17616L10.4429 7.93458Z" fill="black"/>
<defs>
<linearGradient id="paint0_linear_82_7900" x1="7.22057" y1="34.7217" x2="17.5871" y2="34.7591" gradientUnits="userSpaceOnUse">
<stop stop-color="#BFAB8D"/>
<stop offset="0.5078" stop-color="#E7E1D2"/>
<stop offset="1" stop-color="#CCBFA6"/>
</linearGradient>
<linearGradient id="paint1_linear_82_7900" x1="-2.83723" y1="11.0122" x2="21.2943" y2="11.0994" gradientUnits="userSpaceOnUse">
<stop stop-color="#94938C"/>
<stop offset="0.2296" stop-color="#EDEBE1"/>
<stop offset="0.7988" stop-color="#EDEBE1"/>
<stop offset="1" stop-color="#94938C"/>
</linearGradient>
</defs>
</svg>
