<svg width="26" height="51" viewBox="0 0 26 51" fill="none" xmlns="http://www.w3.org/2000/svg">
<path d="M10.7261 2.23572C10.7261 2.23572 9.82009 0.181514 7.98594 0.695974C6.15178 1.21043 5.51802 6.00434 5.8501 9.53841C6.18173 13.0725 7.75366 24.2853 10.4561 24.5163C13.1586 24.7472 18.1008 18.3963 15.8524 14.8581C13.6041 11.3204 9.88361 5.10971 10.7261 2.23572Z" fill="url(#paint0_linear_82_7826)"/>
<path d="M22.5498 32.6861C19.3509 32.4557 15.7211 30.8919 12.5164 30.7653C10.5062 30.6859 8.49511 30.553 6.48264 30.6174C5.55216 30.6469 4.16801 33.1276 3.26612 33.0128C2.68089 32.9384 3.06697 30.5349 3.09101 29.9129C3.11142 29.3835 3.15634 28.8563 3.07876 28.3287C2.80021 26.4269 1.75405 24.6214 1.31898 22.7196C0.815406 20.5198 0.475157 18.2773 0.266016 16.0308C0.0441717 13.6477 -0.0492875 11.2133 0.262383 8.8334C0.396669 7.80721 0.57995 6.76515 0.987344 5.80746C1.30446 5.06209 2.07343 3.59903 3.05608 3.71108C3.41674 3.75237 3.73976 3.95743 4.00969 4.20104C4.53867 4.67875 4.90704 5.31478 5.15066 5.98484C5.65287 7.36716 5.64198 8.85563 5.73861 10.3037C5.83842 11.7967 6.24536 13.1795 6.58017 14.6285C7.2017 17.321 7.93573 20.4898 9.69959 22.6969C10.1288 23.2341 10.7739 23.6687 11.4585 23.6038C11.8096 23.5702 12.1376 23.4087 12.4243 23.2032C13.4573 22.4624 13.9827 21.1839 14.1619 19.9255C14.5289 17.3469 14.2526 14.5024 13.5635 12.0027C13.1593 10.5356 12.4125 9.22173 11.9561 7.78725C11.4739 6.27065 10.8197 3.26195 12.9578 2.68444C13.8207 2.45125 14.7394 2.89221 15.3845 3.51101C17.7763 5.80428 19.3918 9.21357 20.775 12.1696C21.6234 13.982 22.4422 15.8557 22.9644 17.7928C23.2783 18.9574 23.2448 20.1178 23.2117 21.3205C23.1187 24.6822 22.9231 29.3526 22.5498 32.6861Z" fill="url(#paint1_linear_82_7826)"/>
<path d="M3.60696 34.8537C3.33476 34.9367 2.9446 35.6762 2.79353 35.889C2.19514 36.7332 1.67704 37.6419 1.28915 38.6028C0.243889 41.1919 0.395416 44.0314 2.35618 46.1523C2.37932 46.1772 2.40291 46.2022 2.42605 46.2271C2.53176 46.3383 2.64201 46.4467 2.7282 46.5733C2.97001 46.9285 3.02762 47.3735 3.25673 47.7378C3.47313 48.0822 3.79115 48.4043 4.0992 48.6642C4.82462 49.2767 5.79093 49.7022 6.75589 49.607C7.08752 49.5743 7.40374 49.4563 7.71541 49.3393C9.06871 48.8312 10.5382 48.2518 11.2559 46.9081C11.1742 47.0614 11.5467 47.6852 11.6406 47.8122C11.8656 48.118 12.1414 48.2509 12.4894 48.3852C13.6385 48.8294 14.8893 49.186 15.9908 49.7367C16.7521 50.0298 17.3945 50.3083 18.1689 50.0543C18.6199 49.9064 19.0767 49.7766 19.5227 49.6133C20.3574 49.308 21.7461 48.7736 21.7461 47.6907C21.7461 46.0162 23.1416 40.9932 19.7926 35.9702C16.445 30.949 3.61739 34.8505 3.60696 34.8537Z" fill="#D8D6D0"/>
<path d="M3.59023 30.7265C3.2713 30.8236 2.81401 31.6901 2.63753 31.9392C1.93662 32.9282 1.33006 33.9925 0.875485 35.1176C-0.348961 38.1504 -0.171122 41.4762 2.12489 43.9596C2.15211 43.9886 2.17978 44.0181 2.207 44.0472C2.33085 44.1774 2.45969 44.3044 2.56085 44.4527C2.84439 44.8692 2.91154 45.3896 3.17966 45.8169C3.43281 46.2198 3.80527 46.5972 4.16639 46.9021C5.0161 47.6194 6.14801 48.1175 7.27764 48.0063C7.66597 47.9682 8.03616 47.8299 8.40136 47.6929C9.98647 47.0981 11.7077 46.4189 12.5483 44.8452C12.4526 45.0244 12.889 45.7552 12.9988 45.9045C13.2624 46.2624 13.5859 46.418 13.9928 46.5755C15.3388 47.0958 16.8037 47.5132 18.094 48.1583C18.9854 48.5017 19.7376 48.8279 20.6449 48.5303C21.173 48.357 21.7083 48.205 22.2305 48.0141C23.2081 47.6566 24.835 47.0305 24.835 45.762C24.835 43.8008 26.4691 37.9176 22.5471 32.0344C18.6266 26.1531 3.60248 30.7229 3.59023 30.7265Z" fill="url(#paint2_linear_82_7826)"/>
<path d="M11.3588 35.2582L9.99644 35.015L8.79604 36.3316L9.05735 37.4068L7.95312 38.7433L9.3477 39.5568L8.53427 40.3702L8.70849 41.0094L10.6842 41.8229L12.8346 42.4621L12.7184 43.8572L13.9383 42.7529L15.4786 40.632L16.6408 40.7481L16.35 39.4116L17.442 38.3241L17.2229 36.0612L15.4223 33.7252L13.7351 33.3101L11.3234 32.293L11.2073 33.5714L11.3588 35.2582Z" fill="black"/>
<defs>
<linearGradient id="paint0_linear_82_7826" x1="14.2383" y1="23.4946" x2="-4.3238" y2="-21.8707" gradientUnits="userSpaceOnUse">
<stop offset="0.1599" stop-color="#BFAB8D"/>
<stop offset="0.5078" stop-color="#E7E1D2"/>
<stop offset="0.7297" stop-color="#CCBFA6"/>
</linearGradient>
<linearGradient id="paint1_linear_82_7826" x1="1.36236" y1="17.5005" x2="22.2729" y2="18.446" gradientUnits="userSpaceOnUse">
<stop offset="0.1599" stop-color="#BFAB8D"/>
<stop offset="0.5078" stop-color="#E7E1D2"/>
<stop offset="0.7297" stop-color="#CCBFA6"/>
</linearGradient>
<linearGradient id="paint2_linear_82_7826" x1="-5.66587" y1="41.166" x2="29.1567" y2="37.5091" gradientUnits="userSpaceOnUse">
<stop stop-color="#94938C"/>
<stop offset="0.2296" stop-color="#EDEBE1"/>
<stop offset="0.7988" stop-color="#EDEBE1"/>
<stop offset="1" stop-color="#94938C"/>
</linearGradient>
</defs>
</svg>
