<svg width="29" height="50" viewBox="0 0 29 50" fill="none" xmlns="http://www.w3.org/2000/svg">
<path d="M9.20356 0.442398C7.89067 0.531768 6.87719 0.916922 5.79929 1.65729C5.50759 1.8578 5.23131 2.09959 5.28892 2.3863C5.55749 3.7255 15.4328 2.64943 15.3384 1.47492C15.2794 0.777196 12.068 0.590291 11.3489 0.512716C10.5369 0.424707 9.83551 0.3993 9.20356 0.442398Z" fill="#D8D6D0"/>
<path d="M19.3673 45.8121C20.0428 47.9761 18.4477 48.8589 16.966 47.5769C14.1016 45.098 12.4439 41.1216 10.9859 37.4791C10.3108 35.7924 7.41237 29.8612 8.93758 28.4276C10.451 27.0049 16.3835 29.7137 16.6875 33.52C16.8526 35.5846 16.9216 37.6551 17.2768 39.7207C17.6633 41.9654 18.7054 43.6916 19.3673 45.8121Z" fill="url(#paint0_linear_82_7912)"/>
<path d="M2.59172 20.5395C2.77954 21.3139 2.94604 22.1019 2.98279 22.2544C3.29809 23.5623 3.57164 24.8802 3.79121 26.2081C3.97041 27.2929 4.11377 28.3835 4.22038 29.4782C4.32382 30.5389 4.23355 31.7066 4.43543 32.7464C4.63459 33.7713 4.99979 34.8465 5.34503 35.8364C6.38166 38.8093 7.9518 41.5758 9.81638 44.1046C10.7518 45.3731 11.7635 46.5848 12.8315 47.7444C13.4875 48.4567 14.882 50.5653 16.0412 49.6893C16.4762 49.3604 16.6509 48.7738 16.6228 48.2289C16.5946 47.6841 16.395 47.1651 16.2059 46.6533C14.7487 42.705 13.3632 37.8163 14.1825 33.5803C14.2678 33.1389 14.4011 32.6829 14.7178 32.364C15.1329 31.9462 15.7976 31.8523 16.3655 32.0088C16.9335 32.1653 17.418 32.5369 17.8408 32.947C19.2921 34.3556 20.3233 36.3359 21.2102 38.137C21.8817 39.5007 22.3748 40.9538 22.6584 42.4478C22.9297 43.8778 22.6992 45.5772 23.2735 46.9192C23.5952 47.6709 24.3124 48.316 25.1304 48.2924C25.7669 48.2743 26.3304 47.8646 26.75 47.3855C28.2961 45.6203 28.5923 42.8075 28.6826 40.5569C28.796 37.7205 28.3923 34.8941 27.9527 32.1C27.3543 28.2959 26.5853 24.5178 25.7265 20.7645C25.6934 20.6189 25.2261 18.2512 25.1318 18.2539C25.1318 18.2539 2.25692 18.8886 2.04688 18.8945C2.16347 18.8918 2.38984 19.7079 2.59172 20.5395Z" fill="url(#paint1_linear_82_7912)"/>
<path d="M20.4893 0.268287C19.3034 0.200685 18.338 0.45975 17.2587 1.06182C16.9666 1.2247 16.6817 1.43068 16.6876 1.71969C16.7144 3.07173 25.6982 3.18288 25.8003 2.01369C25.8583 1.31861 23.022 0.753302 22.3928 0.59133C21.6819 0.409394 21.06 0.300954 20.4893 0.268287Z" fill="#D8D6D0"/>
<path d="M4.54712 1.31817C3.59397 1.41344 2.69615 1.78047 1.92265 2.58711C0.925934 3.62648 0.426901 5.06827 0.303503 6.5028C0.0390141 9.58055 0.565723 13.2408 1.33469 16.2224C1.57877 17.1688 1.60327 19.1577 2.25293 19.8881C4.27448 22.1606 8.71634 21.055 11.4043 20.8685C14.4829 20.6548 17.7974 20.5527 20.5557 19.8881C22.3818 19.7965 25.7348 20.2007 26.2892 17.7858C26.9243 15.0179 27.3159 12.1874 27.4461 9.35054C27.5441 7.23095 27.8535 1.99369 24.8066 1.58493C24.3607 1.52504 23.608 2.02772 23.1612 2.12934C22.2289 2.34075 21.3193 2.31218 20.3938 2.06628C19.2555 1.76413 18.1985 1.21972 17.1074 0.776481C16.8701 0.680302 16.6233 0.587297 16.3675 0.594102C15.7845 0.609981 15.3562 1.11492 14.8899 1.46516C12.9268 2.94052 9.40818 2.17516 7.24101 1.60852C6.3314 1.37079 5.41635 1.23152 4.54712 1.31817Z" fill="url(#paint2_linear_82_7912)"/>
<path d="M10.1772 12.4185L8.63979 11.3469L8.75094 8.93708L10.0302 8.15813L10.253 5.82175L12.367 6.37795V4.8205L13.1459 4.375L15.8161 5.48785L18.4863 6.93413L19.7098 5.48785L19.8214 7.71308L19.2647 11.2181L20.4887 12.2193L18.9313 13.2206L18.9358 15.307L16.5596 17.2637L12.5997 17.7763L10.5869 16.5587L7.30469 15.2235L8.41704 13.8884L10.1772 12.4185Z" fill="black"/>
<defs>
<linearGradient id="paint0_linear_82_7912" x1="11.6043" y1="27.5191" x2="19.3659" y2="71.8111" gradientUnits="userSpaceOnUse">
<stop offset="0.1599" stop-color="#BFAB8D"/>
<stop offset="0.5078" stop-color="#E7E1D2"/>
<stop offset="0.7297" stop-color="#CCBFA6"/>
</linearGradient>
<linearGradient id="paint1_linear_82_7912" x1="4.63341" y1="34.02" x2="27.1605" y2="34.1014" gradientUnits="userSpaceOnUse">
<stop stop-color="#BFAB8D"/>
<stop offset="0.5078" stop-color="#E7E1D2"/>
<stop offset="1" stop-color="#CCBFA6"/>
</linearGradient>
<linearGradient id="paint2_linear_82_7912" x1="-5.47152" y1="10.8869" x2="33.3741" y2="11.0272" gradientUnits="userSpaceOnUse">
<stop stop-color="#94938C"/>
<stop offset="0.2296" stop-color="#EDEBE1"/>
<stop offset="0.7988" stop-color="#EDEBE1"/>
<stop offset="1" stop-color="#94938C"/>
</linearGradient>
</defs>
</svg>
