<svg width="27" height="48" viewBox="0 0 27 48" fill="none" xmlns="http://www.w3.org/2000/svg">
<path d="M15.8628 42.3549C16.0647 44.312 14.7947 44.7571 13.8936 43.3938C12.1508 40.7575 11.4784 37.0832 10.9062 33.7292C10.6412 32.1763 9.33082 26.6152 10.6231 25.6906C11.9053 24.7737 15.8356 28.1831 15.552 31.4577C15.3982 33.2342 15.174 34.9977 15.1577 36.811C15.14 38.7818 15.665 40.4377 15.8628 42.3549Z" fill="url(#paint0_linear_82_7928)"/>
<path d="M4.23438 20.0934C4.91986 22.0519 5.47244 24.0962 5.79136 26.1467C6.00595 27.5268 5.97415 28.7535 5.76456 30.1195C5.41161 32.415 5.38668 34.8109 5.48558 37.1264C5.63983 40.738 7.37238 43.4582 8.75741 46.7069C9.26642 47.9005 10.4432 48.527 11.5107 47.4287C12.864 46.0359 12.4992 43.1084 12.5532 41.3419C12.6267 38.9238 12.6757 36.489 13.1593 34.1095C13.3675 33.0851 13.6601 32.0639 14.195 31.1656C14.7267 30.2724 15.7093 29.8369 16.6507 30.4802C17.9042 31.3367 18.1868 33.2131 18.6196 34.5487C19.0256 35.8012 19.3935 37.0661 19.7488 38.3341C20.2505 40.1247 20.7146 41.9266 21.1928 43.7236C21.391 44.4676 22.038 46.2152 23.1317 45.4557C23.501 45.1989 23.6834 44.7543 23.8372 44.332C24.3421 42.9428 24.7454 41.5197 25.1478 40.0979C25.6872 38.193 26.1835 36.2935 26.2997 34.3096C26.458 31.6048 25.3924 28.9322 24.8716 26.3141C24.3181 23.5318 23.9724 20.7082 23.8399 17.8746C23.8313 17.6881 23.8168 17.4853 23.6907 17.3474C23.5205 17.1614 23.2288 17.1759 22.9788 17.2045C19.9071 17.5566 16.829 17.8428 13.7604 18.2266C11.684 18.4847 9.60484 18.7578 7.54656 19.1371C6.63924 19.3041 4.9371 19.3907 4.23438 20.0934Z" fill="url(#paint1_linear_82_7928)"/>
<path d="M1.83372 15.8476C1.73119 14.6209 1.75933 13.3779 1.52569 12.1661C1.16094 10.2748 0.205936 8.62707 0.341132 6.62323C0.66687 1.79894 7.40894 1.42604 10.7988 2.76208C12.2084 3.31737 12.7868 2.79293 13.9718 2.04438C15.2557 1.23322 16.7705 0.808594 18.2881 0.808594C20.0234 0.808594 21.9383 1.30218 23.4205 2.21405C25.6131 3.56325 25.6113 5.77669 25.7619 8.09992C25.9284 10.6695 25.8694 13.3166 25.0197 15.7737C24.7597 16.5259 24.4154 17.2649 23.8737 17.8478C23.1038 18.6767 22.123 18.786 21.0827 19.0256C19.6627 19.3527 18.2268 19.6294 16.7955 19.9002C13.9886 20.4315 11.1554 20.8638 8.29951 21.0072C6.94529 21.0752 5.54296 20.9378 4.34027 20.3112C2.59816 19.4044 1.98797 17.699 1.83372 15.8476Z" fill="url(#paint2_linear_82_7928)"/>
<path d="M14.7804 8.85377L16.2693 8.58792L17.5813 10.0269L17.2959 11.2014L18.5022 12.6622L16.9784 13.5514L17.8671 14.4401L17.6766 15.1387L15.5176 16.0279L13.1681 16.7266L13.2951 18.2504L11.9613 17.0441L10.2786 14.7259L9.00838 14.8529L9.32595 13.3926L8.13281 12.2045L8.37187 9.73159L10.3399 7.17886L12.1836 6.72474L14.8189 5.61328L14.946 7.01055L14.7804 8.85377Z" fill="black"/>
<defs>
<linearGradient id="paint0_linear_82_7928" x1="12.6708" y1="25.4239" x2="10.5614" y2="64.2296" gradientUnits="userSpaceOnUse">
<stop offset="0.1599" stop-color="#BFAB8D"/>
<stop offset="0.5078" stop-color="#E7E1D2"/>
<stop offset="0.7297" stop-color="#CCBFA6"/>
</linearGradient>
<linearGradient id="paint1_linear_82_7928" x1="6.7609" y1="33.9848" x2="24.2549" y2="30.5806" gradientUnits="userSpaceOnUse">
<stop stop-color="#BFAB8D"/>
<stop offset="0.5078" stop-color="#E7E1D2"/>
<stop offset="1" stop-color="#CCBFA6"/>
</linearGradient>
<linearGradient id="paint2_linear_82_7928" x1="-3.7447" y1="13.9317" x2="29.5542" y2="7.45196" gradientUnits="userSpaceOnUse">
<stop stop-color="#94938C"/>
<stop offset="0.2114" stop-color="#EDEBE1"/>
<stop offset="0.847" stop-color="#EDEBE1"/>
<stop offset="1" stop-color="#94938C"/>
</linearGradient>
</defs>
</svg>
