<svg width="25" height="40" viewBox="0 0 25 40" fill="none" xmlns="http://www.w3.org/2000/svg">
<path d="M15.5297 36.6922C15.8246 38.5454 14.6386 39.0363 13.7086 37.7846C11.9111 35.3652 11.0776 31.901 10.3572 28.7366C10.0237 27.2713 8.48392 22.0437 9.66623 21.0955C10.8395 20.1551 14.7611 23.196 14.6622 26.3299C14.6087 28.0298 14.488 29.7211 14.5674 31.4491C14.6536 33.3269 15.2402 34.8766 15.5297 36.6922Z" fill="url(#paint0_linear_82_7946)"/>
<path d="M3.05469 13.3825C3.05469 13.3825 4.36211 16.9778 4.36211 20.8998C4.36211 24.8218 4.03549 29.7246 6.32331 33.32C8.61112 36.9153 9.26484 38.5494 9.26484 38.5494C9.26484 38.5494 11.226 40.8373 12.2064 38.2228C12.2064 38.2228 9.91859 30.3784 11.226 26.4564C12.5335 22.5344 13.8409 23.8414 14.1676 24.4952C14.4947 25.1489 19.0703 32.6662 19.724 34.6274C20.3777 36.5886 21.3581 38.5494 22.0118 38.5494C22.6656 38.5494 23.6459 36.9153 24.2996 33.9737C24.9534 31.0321 24.2996 27.7639 22.9922 25.4755C21.6847 23.1877 20.3773 13.0554 20.3773 11.4213C20.3773 9.78717 4.68878 12.7292 3.05469 13.3825Z" fill="url(#paint1_linear_82_7946)"/>
<path d="M10.6076 3.11378C10.2973 3.04028 9.97612 2.8375 9.60321 2.59207C8.59063 1.92473 7.53903 1.28098 6.37085 0.95661C5.20221 0.632242 3.88748 0.660379 2.84768 1.28416C2.11637 1.72286 1.57471 2.41787 1.12876 3.14463C0.431022 4.28197 -0.0838958 5.60348 0.0762478 6.92818C0.258621 8.43887 0.857924 9.92643 1.47264 11.3065C1.84555 12.1435 2.15631 13.0984 2.82818 13.7535C3.61212 14.5175 4.93 14.625 5.96299 14.7697C8.18504 15.0805 10.4162 14.8019 12.5856 14.287C14.7423 13.7748 16.9712 13.2069 19.068 12.4928C19.445 12.3644 19.8216 12.2161 20.1373 11.9738C21.0224 11.2938 21.2043 9.74814 21.4171 8.72831C21.7401 7.17814 21.5428 5.57536 20.9085 4.13044C20.0919 2.26997 18.5304 0.627715 16.4572 0.30879C14.9732 0.0805979 13.6558 0.384996 12.6573 1.53503C12.3266 1.91611 12.0634 2.35888 11.7059 2.71682C11.3121 3.11106 10.9674 3.19907 10.6076 3.11378Z" fill="url(#paint2_linear_82_7946)"/>
<path d="M12.0434 6.97706L12.9752 6.81101L13.7963 7.71152L13.6176 8.44644L14.373 9.361L13.4189 9.91718L13.9756 10.4738L13.8562 10.9107L12.5048 11.4673L11.034 11.9046L11.1138 12.8582L10.2791 12.1033L9.22565 10.6526L8.4308 10.7319L8.62955 9.81783L7.88281 9.0743L8.03251 7.52643L9.26375 5.92866L10.4183 5.64467L12.0674 4.94922L12.1473 5.82341L12.0434 6.97706Z" fill="black"/>
<defs>
<linearGradient id="paint0_linear_82_7946" x1="11.5977" y1="20.7297" x2="11.6219" y2="57.7991" gradientUnits="userSpaceOnUse">
<stop offset="0.1599" stop-color="#BFAB8D"/>
<stop offset="0.5078" stop-color="#E7E1D2"/>
<stop offset="0.7297" stop-color="#CCBFA6"/>
</linearGradient>
<linearGradient id="paint1_linear_82_7946" x1="4.94918" y1="25.1697" x2="21.7071" y2="25.2302" gradientUnits="userSpaceOnUse">
<stop stop-color="#BFAB8D"/>
<stop offset="0.5078" stop-color="#E7E1D2"/>
<stop offset="1" stop-color="#CCBFA6"/>
</linearGradient>
<linearGradient id="paint2_linear_82_7946" x1="-6.30389" y1="7.50444" x2="27.7358" y2="7.62741" gradientUnits="userSpaceOnUse">
<stop stop-color="#94938C"/>
<stop offset="0.2614" stop-color="#EDEBE1"/>
<stop offset="0.7687" stop-color="#EDEBE1"/>
<stop offset="1" stop-color="#94938C"/>
</linearGradient>
</defs>
</svg>
