<svg width="19" height="55" viewBox="0 0 19 55" fill="none" xmlns="http://www.w3.org/2000/svg">
<path d="M9.22253 54.2138C9.22253 54.2138 3.9236 55.3094 2.04584 52.5571C0.168074 49.8043 8.59102 52.5534 9.22253 54.2138Z" fill="#D8D6D0"/>
<path d="M10 54.4487C10 54.4487 15.6433 54.8302 17.0474 51.1711C18.4515 47.512 10.333 52.3307 10 54.4487Z" fill="#D8D6D0"/>
<path d="M12.2528 33.9177C12.3358 33.9586 12.4148 34.0048 12.4892 34.057C13.9269 35.0614 15.1386 36.6887 16.0527 38.1609C17.4419 40.3974 18.4336 42.9556 18.1664 45.625C17.984 47.4497 17.7794 49.5479 16.8675 51.1865C16.3349 52.1437 15.1377 52.5824 14.1628 52.9218C13.3276 53.2126 12.4847 53.4857 11.6658 53.8209C10.9095 54.1303 10.1673 54.6579 9.31533 54.5899C8.33587 54.5114 7.65174 53.7438 6.86826 53.2457C5.63882 52.4645 4.16712 52.0639 2.71085 52.1342C2.45498 52.1465 2.19277 52.1723 1.94733 52.0975C1.58939 51.9886 1.32762 51.6846 1.11667 51.3761C0.155802 49.9725 0.181205 48.6124 0.173039 46.9801C0.164419 45.3215 0.196629 43.6529 0.512835 42.0197C1.07584 39.1095 2.99848 36.7019 4.00925 33.9549C4.06732 33.7966 4.12538 33.6346 4.23199 33.504C4.41437 33.2803 4.71289 33.1837 5.00051 33.1606C5.53947 33.117 6.0825 33.2005 6.61647 33.2576C7.62905 33.3665 8.6176 33.4795 9.63563 33.5493C10.4432 33.6051 11.5011 33.5462 12.2528 33.9177Z" fill="url(#paint0_linear_82_7812)"/>
<path d="M14.3946 35.8318C14.3583 35.8613 14.3148 35.8844 14.2617 35.8989C13.995 35.9738 13.1729 35.5714 12.8821 35.4951C11.918 35.2429 10.9431 35.0319 9.96225 34.8564C8.92289 34.6704 7.87309 34.4939 6.81468 34.4853C6.25439 34.4807 5.69092 34.5198 5.14243 34.6386C4.65519 34.7443 4.13029 35.0782 3.6689 35.12C3.33273 33.8093 3.6739 32.285 3.75193 30.9539C3.83858 29.474 3.97468 27.9974 4.15933 26.5266C4.50593 23.7664 5.1946 21.1093 5.69682 18.3841C6.18588 15.7333 6.32198 12.931 6.26346 10.2316C6.23578 8.96227 6.15911 7.69064 6.01348 6.42944C5.88963 5.35288 5.57932 4.38928 5.68956 3.27371C5.80162 2.13954 6.33378 0.421938 7.83135 0.886495C8.95873 1.23627 9.66056 2.47616 10.2295 3.41888C11.3133 5.21405 12.1022 7.16983 12.829 9.13648C13.5549 11.1004 14.2241 13.0984 14.6029 15.1617C14.9336 16.9614 14.8932 18.723 14.8619 20.5399C14.8129 23.4244 14.744 26.3083 14.6727 29.1923C14.6269 31.0533 14.7331 32.9945 14.5865 34.8818C14.5602 35.2347 14.6119 35.6539 14.3946 35.8318Z" fill="url(#paint1_linear_82_7812)"/>
<path d="M7.60135 41.723L6.23857 41.4798L5.0382 42.7964L5.2995 43.8715L4.19531 45.208L5.58985 46.0215L4.77644 46.8349L4.95064 47.4741L6.92631 48.2875L9.07664 48.9268L8.9605 50.3213L10.1804 49.2175L11.7205 47.0967L12.8828 47.2128L12.592 45.8763L13.684 44.7889L13.4648 42.526L11.6643 40.19L9.97715 39.7745L7.56551 38.7578L7.44938 40.0363L7.60135 41.723Z" fill="black"/>
<defs>
<linearGradient id="paint0_linear_82_7812" x1="-5.77678" y1="44.2771" x2="24.4595" y2="43.3457" gradientUnits="userSpaceOnUse">
<stop stop-color="#94938C"/>
<stop offset="0.2666" stop-color="#EDEBE1"/>
<stop offset="0.7117" stop-color="#EDEBE1"/>
<stop offset="1" stop-color="#94938C"/>
</linearGradient>
<linearGradient id="paint1_linear_82_7812" x1="0.759365" y1="19.4071" x2="15.1191" y2="17.8991" gradientUnits="userSpaceOnUse">
<stop stop-color="#BFAB8D"/>
<stop offset="0.5078" stop-color="#E7E1D2"/>
<stop offset="1" stop-color="#CCBFA6"/>
</linearGradient>
</defs>
</svg>
