<svg width="19" height="58" viewBox="0 0 19 58" fill="none" xmlns="http://www.w3.org/2000/svg">
<path d="M9.36641 56.2678C9.36641 56.2678 4.02032 57.1031 2.27912 54.2616C0.538372 51.4201 8.81701 54.5787 9.36641 56.2678Z" fill="#D8D6D0"/>
<path d="M4 38.3488C4 38.3488 4.32663 27.2362 5.30742 24.2946C6.28776 21.353 7.26855 11.5479 6.94146 8.93294C6.61484 6.31799 6.61483 2.39603 6.61483 2.39603C6.61483 2.39603 6.28821 -0.545554 9.22967 1.74229C12.1711 4.03014 15.7663 15.1427 15.4392 19.7184C15.1126 24.2941 15.0091 38.0829 15.0609 38.0525C15.1121 38.0217 4 38.3488 4 38.3488Z" fill="url(#paint0_linear_82_7799)"/>
<path d="M14.7885 37.0396C14.7885 37.0396 22.3058 48.1521 16.7497 54.0353C16.071 54.7539 15.0035 55.2593 14.1765 55.7851C13.3227 56.3281 12.4117 57.0821 11.371 57.1996C10.1774 57.3348 9.30364 56.0859 8.13045 55.8422C6.26542 55.4548 4.44032 55.7615 2.84749 54.4894C1.5323 53.4392 0.734752 51.8019 0.463912 50.1623C0.126382 48.1167 0.475707 46.038 0.883101 44.0297C1.05686 43.1736 1.35265 42.3588 1.6988 41.5572C2.06763 40.7025 2.7327 39.8682 3.02214 38.9999C3.02214 39.0003 5.63664 31.1564 14.7885 37.0396Z" fill="url(#paint1_linear_82_7799)"/>
<path d="M7.58544 43.8441L6.22304 43.601L5.02216 44.9175L5.28393 45.9927L4.17969 47.3293L5.57429 48.1427L4.76084 48.9562L4.93506 49.5954L6.91083 50.4088L9.0608 51.048L8.94466 52.4426L10.1651 51.3389L11.7048 49.2179L12.8672 49.3341L12.5768 47.9975L13.6688 46.9101L13.4497 44.6471L11.649 42.3112L9.96181 41.8956L7.55005 40.8789L7.43392 42.1574L7.58544 43.8441Z" fill="black"/>
<defs>
<linearGradient id="paint0_linear_82_7799" x1="4.89979" y1="19.6573" x2="17.7919" y2="19.2602" gradientUnits="userSpaceOnUse">
<stop stop-color="#BFAB8D"/>
<stop offset="0.5078" stop-color="#E7E1D2"/>
<stop offset="1" stop-color="#CCBFA6"/>
</linearGradient>
<linearGradient id="paint1_linear_82_7799" x1="-3.24822" y1="46.4357" x2="23.4781" y2="45.6124" gradientUnits="userSpaceOnUse">
<stop stop-color="#94938C"/>
<stop offset="0.0311" stop-color="#A6A59D"/>
<stop offset="0.0939" stop-color="#C5C3BB"/>
<stop offset="0.1552" stop-color="#DBD9D0"/>
<stop offset="0.2138" stop-color="#E8E7DD"/>
<stop offset="0.2666" stop-color="#EDEBE1"/>
<stop offset="0.7117" stop-color="#EDEBE1"/>
<stop offset="0.7637" stop-color="#E7E5DB"/>
<stop offset="0.835" stop-color="#D5D3CA"/>
<stop offset="0.9175" stop-color="#B8B7AF"/>
<stop offset="1" stop-color="#94938C"/>
</linearGradient>
</defs>
</svg>
