<svg width="20" height="70" viewBox="0 0 20 70" fill="none" xmlns="http://www.w3.org/2000/svg">
<path d="M13.7421 41.9645C13.7426 41.9654 20.9327 51.4435 19.6253 59.2874C19.2034 61.8184 18.3396 64.4637 16.8139 66.5511C16.0699 67.5691 15.1031 68.4905 13.8841 68.8943C12.2718 69.4282 10.2026 69.009 8.5862 68.6484C7.79047 68.471 7.00878 68.2265 6.26749 67.8853C1.0848 65.5017 -0.28437 59.3563 0.13255 54.1482C0.425619 50.4899 1.53621 46.9408 2.97978 43.5882C3.91615 41.4133 6.09738 40.8435 8.27453 40.5355C9.91363 40.3037 12.6284 40.496 13.7421 41.9645Z" fill="url(#paint0_linear_82_7686)"/>
<path d="M7.92526 52.6326L6.24532 52.3323L4.76548 53.9555L5.08756 55.2811L3.72656 56.9288L5.44598 57.9318L4.4429 58.9344L4.65795 59.7224L7.09368 60.7254L9.74446 61.5134L9.6011 63.2328L11.1055 61.8718L13.004 59.2569L14.4367 59.4003L14.0788 57.7526L15.4248 56.412L15.1549 53.6225L12.9351 50.7427L10.8546 50.2305L7.88171 48.9766L7.73834 50.5526L7.92526 52.6326Z" fill="black"/>
<path d="M16.0233 45.477C16.0233 45.477 3.94148 42.4488 2.9375 44.1754L7.81679 9.62273C7.81679 9.62273 7.66526 0.742188 8.97275 0.742188C10.2802 0.742188 11.5877 4.66414 11.5877 4.66414C11.5877 4.66414 15.732 37.2071 16.0233 45.477Z" fill="url(#paint1_linear_82_7686)"/>
<defs>
<linearGradient id="paint0_linear_82_7686" x1="-6.21667" y1="54.4962" x2="26.736" y2="55.0852" gradientUnits="userSpaceOnUse">
<stop stop-color="#94938C"/>
<stop offset="0.0617" stop-color="#A4A29B"/>
<stop offset="0.1809" stop-color="#CCCAC2"/>
<stop offset="0.2666" stop-color="#EDEBE1"/>
<stop offset="0.7117" stop-color="#EDEBE1"/>
<stop offset="0.7719" stop-color="#E0DED5"/>
<stop offset="0.883" stop-color="#BEBDB4"/>
<stop offset="1" stop-color="#94938C"/>
</linearGradient>
<linearGradient id="paint1_linear_82_7686" x1="4.59821" y1="23.353" x2="14.203" y2="23.0572" gradientUnits="userSpaceOnUse">
<stop stop-color="#BFAB8D"/>
<stop offset="0.5078" stop-color="#E7E1D2"/>
<stop offset="1" stop-color="#CCBFA6"/>
</linearGradient>
</defs>
</svg>
