<svg width="20" height="61" viewBox="0 0 20 61" fill="none" xmlns="http://www.w3.org/2000/svg">
<path d="M13.3249 34.7523C13.3249 34.7523 16.5932 36.0598 17.574 43.5771C17.574 43.5771 18.5544 51.4215 18.8815 53.7093C19.2082 55.9972 19.2082 58.9387 15.6133 59.9191C12.0179 60.8995 8.74969 60.2458 6.78847 59.5925C4.82725 58.9387 1.88565 56.9775 1.23191 54.6897C0.578166 52.4018 1.2319 41.2892 2.21228 39.328C3.19267 37.3673 5.48052 32.1378 13.3249 34.7523Z" fill="url(#paint0_linear_82_7779)"/>
<path d="M10.0586 3.70141C10.0586 3.70141 17.233 19.3864 14.2996 35.8935C14.2996 35.8935 3.89728 34.6604 3.38281 37.484C4.84182 30.6169 5.54276 23.39 5.25559 16.38C5.13945 13.536 4.93847 10.696 4.85862 7.85062C4.8069 5.99786 4.4848 3.88105 5.28009 2.15531C5.61399 1.4299 6.16611 0.363794 7.0721 0.279412C8.60959 0.135147 9.59724 2.64119 10.0586 3.70141Z" fill="url(#paint1_linear_82_7779)"/>
<path d="M8.06586 45.1674L6.38595 44.8675L4.90608 46.4907L5.22819 47.8159L3.86719 49.4636L5.58658 50.4666L4.58353 51.4697L4.79856 52.2577L7.23429 53.2608L9.88507 54.0488L9.74171 55.7682L11.2461 54.4067L13.1447 51.7923L14.5774 51.9352L14.219 50.2874L15.5654 48.9473L15.2955 46.1573L13.0757 43.2774L10.9952 42.7652L8.02231 41.5117L7.87897 43.0878L8.06586 45.1674Z" fill="black"/>
<defs>
<linearGradient id="paint0_linear_82_7779" x1="23.4904" y1="47.8767" x2="-2.52031" y2="46.5735" gradientUnits="userSpaceOnUse">
<stop stop-color="#94938C"/>
<stop offset="0.1599" stop-color="#D1CFC6"/>
<stop offset="0.2296" stop-color="#EDEBE1"/>
<stop offset="0.7988" stop-color="#EDEBE1"/>
<stop offset="0.9762" stop-color="#9F9E96"/>
<stop offset="1" stop-color="#94938C"/>
</linearGradient>
<linearGradient id="paint1_linear_82_7779" x1="6.01192" y1="18.8913" x2="14.993" y2="19.0519" gradientUnits="userSpaceOnUse">
<stop stop-color="#BFAB8D"/>
<stop offset="0.5078" stop-color="#E7E1D2"/>
<stop offset="1" stop-color="#CCBFA6"/>
</linearGradient>
</defs>
</svg>
