<svg width="26" height="75" viewBox="0 0 26 75" fill="none" xmlns="http://www.w3.org/2000/svg">
<path d="M13.0166 0.844664C14.5695 2.37035 15.3434 5.62359 16.1251 7.60975C18.515 13.6816 20.3315 19.9876 21.384 26.431C21.908 29.638 22.2428 32.8767 22.3703 36.1241C22.4347 37.7573 22.447 39.3923 22.4057 41.0264C22.3721 42.3638 22.5926 44.3087 22.0369 45.5218C21.3527 44.7488 20.8655 43.8192 20.1414 43.0756C18.3712 41.2573 16.0825 39.9571 13.4979 39.9558C12.4069 39.9553 11.3348 40.1767 10.3154 40.5492C9.90169 40.7002 9.49702 40.8758 9.10278 41.0718C7.95274 41.6434 6.56861 43.3687 5.34507 43.4617C5.16633 41.0695 5.77105 38.3847 5.99879 35.9857C5.99879 29.8957 7.20193 23.4641 8.11335 17.4552C8.38737 15.6478 8.79973 13.8645 8.76162 12.0316C8.72216 10.1394 8.50985 8.24943 8.63824 6.35582C8.75347 4.66046 8.96578 0.566112 11.3008 0.306161C11.7599 0.254896 12.2118 0.425019 12.6423 0.592422C12.7802 0.646408 12.9041 0.733969 13.0166 0.844664Z" fill="url(#paint0_linear_82_7764)"/>
<path d="M25.2994 69.4895C25.2994 69.4895 27.5873 42.6887 15.4944 38.7663C15.4944 38.7663 1.76693 36.4784 0.459918 60.3377C0.459918 60.3377 -1.17417 71.4503 5.0356 72.7578C6.38298 73.0436 7.71039 73.2885 9.00106 73.4882C10.8398 73.7726 12.6962 73.9681 14.5535 74.0788C16.7265 74.2081 18.9858 74.1337 21.1071 73.6007C22.4772 73.2563 23.9638 72.6498 24.7596 71.4117C25.128 70.8387 25.2994 70.1682 25.2994 69.4895Z" fill="url(#paint1_linear_82_7764)"/>
<path d="M10.5564 60.766L8.88279 59.5996L9.00392 56.977L10.3967 56.1291L10.6389 53.5859L12.9395 54.1916V52.4962L13.7874 52.0117L16.694 53.223L19.6002 54.7972L20.9326 53.223L21.0533 55.6446L20.4481 59.4594L21.7801 60.5496L20.0847 61.6393L20.0897 63.9098L17.5034 66.0398L13.1931 66.5978L11.0019 65.2722L7.42969 63.8191L8.64054 62.366L10.5564 60.766Z" fill="black"/>
<defs>
<linearGradient id="paint0_linear_82_7764" x1="18.703" y1="22.8747" x2="5.22194" y2="23.1157" gradientUnits="userSpaceOnUse">
<stop stop-color="#BFAB8D"/>
<stop offset="0.5078" stop-color="#E7E1D2"/>
<stop offset="1" stop-color="#CCBFA6"/>
</linearGradient>
<linearGradient id="paint1_linear_82_7764" x1="30.3743" y1="56.4132" x2="-4.64519" y2="56.431" gradientUnits="userSpaceOnUse">
<stop stop-color="#94938C"/>
<stop offset="0.2296" stop-color="#EDEBE1"/>
<stop offset="0.7876" stop-color="#EDEBE1"/>
<stop offset="1" stop-color="#94938C"/>
</linearGradient>
</defs>
</svg>
