<svg width="27" height="75" viewBox="0 0 27 75" fill="none" xmlns="http://www.w3.org/2000/svg">
<path d="M13.3507 0.79779C11.7978 2.32348 11.0238 5.57673 10.2421 7.56289C7.85216 13.6348 6.03565 19.9408 4.98313 26.3842C4.45913 29.5912 4.12433 32.83 3.99685 36.0773C3.93243 37.7105 3.92017 39.3456 3.96145 40.9797C3.99502 42.3171 3.77456 44.2619 4.33031 45.4751C5.01445 44.702 5.50169 43.7724 6.22575 43.0289C7.99599 41.2106 10.2848 39.9104 12.8694 39.909C13.9604 39.9085 15.0325 40.1299 16.0519 40.5024C16.4656 40.6535 16.8703 40.829 17.2646 41.025C18.4146 41.5967 19.7988 43.322 21.0223 43.415C21.2011 41.0228 20.5963 38.3379 20.3686 35.9389C20.3686 29.8489 19.1655 23.4172 18.254 17.4084C17.98 15.601 17.5676 13.8176 17.6057 11.9848C17.6452 10.0925 17.8575 8.20257 17.7291 6.30896C17.6139 4.6136 17.4016 0.519238 15.0665 0.259286C14.6074 0.208021 14.1555 0.378144 13.725 0.545548C13.5875 0.599534 13.4637 0.687095 13.3507 0.79779Z" fill="url(#paint0_linear_82_7769)"/>
<path d="M1.07084 69.4425C1.07084 69.4425 -1.21701 42.6418 10.876 38.7194C10.876 38.7194 24.6035 36.4316 25.9105 60.2907C25.9105 60.2907 27.5446 71.4032 21.3348 72.7107C19.9874 72.9965 18.66 73.2414 17.3693 73.441C15.5306 73.7255 13.6742 73.921 11.8169 74.0317C9.6438 74.161 7.38454 74.0866 5.26319 73.5536C3.89311 73.2092 2.40643 72.6027 1.6107 71.3646C1.24232 70.7916 1.07084 70.1211 1.07084 69.4425Z" fill="url(#paint1_linear_82_7769)"/>
<path d="M15.8096 60.7191L17.4832 59.5528L17.3625 56.9301L15.9698 56.0823L15.7275 53.539L13.4265 54.1447V52.4493L12.5786 51.9648L9.67245 53.1761L6.7658 54.7503L5.43384 53.1761L5.31271 55.5978L5.91836 59.4126L4.58594 60.5027L6.28174 61.5924L6.27675 63.863L8.86265 65.9929L13.1729 66.5509L15.3641 65.2253L18.9368 63.7722L17.7255 62.3192L15.8096 60.7191Z" fill="black"/>
<defs>
<linearGradient id="paint0_linear_82_7769" x1="7.66439" y1="22.8279" x2="21.1457" y2="23.0689" gradientUnits="userSpaceOnUse">
<stop stop-color="#BFAB8D"/>
<stop offset="0.5078" stop-color="#E7E1D2"/>
<stop offset="1" stop-color="#CCBFA6"/>
</linearGradient>
<linearGradient id="paint1_linear_82_7769" x1="-4.00386" y1="56.3662" x2="31.0159" y2="56.3841" gradientUnits="userSpaceOnUse">
<stop stop-color="#94938C"/>
<stop offset="0.2296" stop-color="#EDEBE1"/>
<stop offset="0.7876" stop-color="#EDEBE1"/>
<stop offset="1" stop-color="#94938C"/>
</linearGradient>
</defs>
</svg>
