<svg width="25" height="43" viewBox="0 0 25 43" fill="none" xmlns="http://www.w3.org/2000/svg">
<path d="M6.23329 2.96103C5.69978 1.22528 7.31665 0.408677 8.69352 1.37454C11.3552 3.2414 12.7443 6.4062 13.9569 9.30879C14.5186 10.653 17.0079 15.349 15.4264 16.6133C13.8571 17.8677 8.20038 15.9905 8.12916 12.8869C8.0906 11.2029 8.14595 9.50886 7.92047 7.83527C7.67549 6.0165 6.75637 4.66139 6.23329 2.96103Z" fill="url(#paint0_linear_65_2030)"/>
<path d="M22.0231 26.8842C22.9853 20.5764 22.9699 12.9657 20.1663 7.12795C19.5148 5.77104 18.6279 4.5298 17.5713 3.45824C17.1567 3.03769 14.6864 0.512579 14.1674 1.1341C13.638 1.76787 14.1166 3.18422 14.2105 3.88877C14.3675 5.06785 14.5163 6.24784 14.6393 7.431C14.8883 9.83135 15.5085 12.4322 14.8597 14.8208C14.7168 15.3466 14.3866 15.8665 13.8685 16.0348C13.5949 16.1237 13.2969 16.1056 13.016 16.0448C11.2386 15.6596 9.95242 13.8676 8.85954 12.5529C7.29666 10.6734 6.39977 8.56199 5.61901 6.26417C5.23974 5.14815 4.80604 4.06388 3.85288 3.32032C3.62333 3.14112 1.37451 0.381924 1.02065 0.46676C-0.144367 0.745311 0.258035 3.88831 0.300226 4.60284C0.626866 10.1593 4.70079 20.0203 4.70079 20.0203C4.70079 20.0203 5.68116 26.23 4.70079 28.1912C3.72042 30.1529 20.7161 30.1529 22.0231 26.8842Z" fill="url(#paint1_linear_65_2030)"/>
<path d="M23.0043 27.8644C23.0038 27.8639 20.3893 24.9229 14.5062 24.9229C8.62301 24.9229 4.37396 26.884 3.39358 29.4985C2.4132 32.1129 2.08611 39.3035 5.68143 40.611C6.81877 41.0247 8.06908 41.1272 9.09437 40.3941C9.97131 39.7671 10.3179 38.6148 11.6367 39.0422C12.2115 39.2282 12.6856 39.6315 13.1728 39.989C15.3151 41.5605 18.9557 43.1905 21.3956 41.3355C24.7309 38.7995 25.9087 31.1321 23.0043 27.8644Z" fill="url(#paint2_linear_65_2030)"/>
<path d="M23.0217 27.8752C23.0217 27.8747 20.4068 24.9336 14.5237 24.9336C8.64054 24.9336 4.39152 26.8948 3.41115 29.5093C2.43078 32.1242 2.10369 39.3144 5.69898 40.6219C6.83632 41.0356 8.08662 41.1381 9.1119 40.405C9.98883 39.7781 10.3354 38.6257 11.6542 39.0531C12.229 39.2391 12.7031 39.6424 13.1903 39.9999C15.3325 41.5714 18.9732 43.2014 21.413 41.3464C24.7483 38.8104 25.9261 31.1425 23.0217 27.8752Z" fill="url(#paint3_linear_65_2030)"/>
<path d="M23.0591 25.7826C23.3113 29.6056 24.1179 28.6466 23.8757 29.3212C23.8757 29.3212 20.5335 27.0006 17.5039 27.1358C14.4743 27.271 4.14105 29.0943 3.77811 29.0036C3.41518 28.9129 4.77619 28.0963 4.91229 24.9206C5.04839 21.7449 4.77119 20.706 4.82155 20.6561C5.12324 20.3567 13.1332 23.0383 16.5902 23.0696C21.1995 23.1118 22.3404 20.8313 22.56 20.7922C22.7791 20.7532 22.8068 21.9595 23.0591 25.7826Z" fill="#725741"/>
<defs>
<linearGradient id="paint0_linear_65_2030" x1="12.7714" y1="17.5068" x2="5.56062" y2="-17.9131" gradientUnits="userSpaceOnUse">
<stop offset="0.1599" stop-color="#BFAB8D"/>
<stop offset="0.5078" stop-color="#E7E1D2"/>
<stop offset="0.7297" stop-color="#CCBFA6"/>
</linearGradient>
<linearGradient id="paint1_linear_65_2030" x1="27.9699" y1="14.9184" x2="0.87704" y2="15.0163" gradientUnits="userSpaceOnUse">
<stop offset="0.1599" stop-color="#BFAB8D"/>
<stop offset="0.5078" stop-color="#E7E1D2"/>
<stop offset="0.7297" stop-color="#CCBFA6"/>
</linearGradient>
<linearGradient id="paint2_linear_65_2030" x1="29.6239" y1="33.4956" x2="-2.55351" y2="33.6119" gradientUnits="userSpaceOnUse">
<stop stop-color="#94938C"/>
<stop offset="0.2296" stop-color="#EDEBE1"/>
<stop offset="0.7988" stop-color="#EDEBE1"/>
<stop offset="1" stop-color="#94938C"/>
</linearGradient>
<linearGradient id="paint3_linear_65_2030" x1="29.8826" y1="33.5052" x2="-2.67656" y2="33.6228" gradientUnits="userSpaceOnUse">
<stop stop-color="#94938C"/>
<stop offset="0.2296" stop-color="#EDEBE1"/>
<stop offset="0.7988" stop-color="#EDEBE1"/>
<stop offset="1" stop-color="#94938C"/>
</linearGradient>
</defs>
</svg>
