<svg width="19" height="61" viewBox="0 0 19 61" fill="none" xmlns="http://www.w3.org/2000/svg">
<path d="M6.64053 34.8443C6.64053 34.8443 3.37231 36.1518 2.39147 43.669C2.39147 43.669 1.41108 51.5133 1.08398 53.8012C0.757342 56.089 0.757343 59.0306 4.35222 60.011C7.94755 60.9913 11.2158 60.3376 13.177 59.6843C15.1382 59.0306 18.0798 57.0694 18.7335 54.7816C19.3873 52.4937 18.7336 41.3812 17.7532 39.42C16.7728 37.4588 14.4849 32.2294 6.64053 34.8443Z" fill="url(#paint0_linear_65_2135)"/>
<path d="M9.90903 3.7942C9.90903 3.7942 2.73521 19.4793 5.66843 35.9864C5.66843 35.9864 16.0699 34.7534 16.5843 37.577C15.1254 30.7098 14.4245 23.4829 14.7112 16.4728C14.8278 13.6288 15.0283 10.7888 15.1082 7.94344C15.1599 6.09066 15.4819 3.97384 14.6867 2.24809C14.3528 1.52268 13.8008 0.456567 12.8949 0.372185C11.3579 0.227919 10.3699 2.73443 9.90903 3.7942Z" fill="url(#paint1_linear_65_2135)"/>
<path d="M4.48339 34.0061C4.12273 36.1407 2.77894 40.2668 3.0339 40.9949C3.0339 40.9949 6.7209 35.8471 9.91067 35.9928C13.1004 36.1388 17.2597 38.855 18.2773 41.4486C18.2773 41.4486 18.1997 40.9037 17.9597 40.0422C17.3772 37.9503 16.2167 33.8378 15.6333 30.0143C15.4273 28.6646 15.1624 27.6289 15.0562 27.5209C14.7386 27.1979 14.5118 31.5681 10.8725 31.6021C6.01998 31.6475 5.34763 29.4717 5.07543 28.3829C4.74016 24.9808 4.84406 31.8716 4.48339 34.0061Z" fill="#725741"/>
<defs>
<linearGradient id="paint0_linear_65_2135" x1="-3.52476" y1="47.9683" x2="22.4859" y2="46.6652" gradientUnits="userSpaceOnUse">
<stop stop-color="#94938C"/>
<stop offset="0.1599" stop-color="#D1CFC6"/>
<stop offset="0.2296" stop-color="#EDEBE1"/>
<stop offset="0.7988" stop-color="#EDEBE1"/>
<stop offset="0.9762" stop-color="#9F9E96"/>
<stop offset="1" stop-color="#94938C"/>
</linearGradient>
<linearGradient id="paint1_linear_65_2135" x1="13.9551" y1="18.9844" x2="4.97478" y2="19.1449" gradientUnits="userSpaceOnUse">
<stop stop-color="#BFAB8D"/>
<stop offset="0.5078" stop-color="#E7E1D2"/>
<stop offset="1" stop-color="#CCBFA6"/>
</linearGradient>
</defs>
</svg>
