<svg width="20" height="70" viewBox="0 0 20 70" fill="none" xmlns="http://www.w3.org/2000/svg">
<path d="M3.90039 45.7022C3.90039 45.7022 15.9815 42.6739 16.9855 44.401L12.1065 9.84833C12.1065 9.84833 8.68685 0.967773 7.37943 0.967773C6.07201 0.967773 4.76461 4.88974 4.76461 4.88974C4.76461 4.88974 4.19163 37.4322 3.90039 45.7022Z" fill="url(#paint0_linear_65_2145)"/>
<path d="M6.2237 42.2058C6.22325 42.2067 -0.966919 51.6847 0.340553 59.5286C0.762464 62.0596 1.62624 64.705 3.15192 66.7923C3.89594 67.8104 4.86271 68.7318 6.08171 69.1355C7.69405 69.6695 9.76324 69.2503 11.3797 68.8896C12.1754 68.7122 12.9571 68.4677 13.6984 68.1266C18.8811 65.743 20.2502 59.5976 19.8333 54.3895C19.5402 50.7311 18.4296 47.182 16.9861 43.8294C16.0497 41.6545 13.8685 41.0847 11.6913 40.7767C10.0527 40.5449 7.33791 40.7372 6.2237 42.2058Z" fill="url(#paint1_linear_65_2145)"/>
<path d="M4.08235 40.4378C3.81015 44.5661 2.74814 46.8925 3.0099 47.6207C3.0099 47.6207 6.79163 42.4729 10.063 42.6186C13.3344 42.7646 17.6006 45.6014 18.6445 48.195C18.6445 48.195 18.5646 47.5295 18.3188 46.6675C17.7213 44.5757 16.5309 40.4632 15.9325 36.6397C15.7211 35.29 15.6231 33.9667 15.5142 33.8592C15.1885 33.5362 14.782 38.1935 11.0493 38.2275C6.07258 38.2729 4.63311 35.7646 4.3541 34.6758C4.01023 31.2737 4.35455 36.3094 4.08235 40.4378Z" fill="#725741"/>
<defs>
<linearGradient id="paint0_linear_65_2145" x1="15.2538" y1="23.6312" x2="5.36059" y2="23.3265" gradientUnits="userSpaceOnUse">
<stop stop-color="#BFAB8D"/>
<stop offset="0.5078" stop-color="#E7E1D2"/>
<stop offset="1" stop-color="#CCBFA6"/>
</linearGradient>
<linearGradient id="paint1_linear_65_2145" x1="26.183" y1="54.7375" x2="-6.76976" y2="55.3265" gradientUnits="userSpaceOnUse">
<stop stop-color="#94938C"/>
<stop offset="0.0617" stop-color="#A4A29B"/>
<stop offset="0.1809" stop-color="#CCCAC2"/>
<stop offset="0.2666" stop-color="#EDEBE1"/>
<stop offset="0.7117" stop-color="#EDEBE1"/>
<stop offset="0.7719" stop-color="#E0DED5"/>
<stop offset="0.883" stop-color="#BEBDB4"/>
<stop offset="1" stop-color="#94938C"/>
</linearGradient>
</defs>
</svg>
