<svg width="20" height="58" viewBox="0 0 20 58" fill="none" xmlns="http://www.w3.org/2000/svg">
<path d="M9.99414 56.2833C9.99414 56.2833 15.3401 57.1186 17.0812 54.2772C18.8219 51.4359 10.5435 54.5939 9.99414 56.2833Z" fill="#D8D6D0"/>
<path d="M15.3594 38.3624C15.3594 38.3624 15.0328 27.2498 14.0519 24.3083C13.071 21.3667 12.0906 11.5616 12.4177 8.94661C12.7444 6.33166 12.7444 2.4097 12.7444 2.4097C12.7444 2.4097 13.071 -0.531882 10.1293 1.75597C7.1876 4.04382 3.59213 15.1564 3.91924 19.7321C4.2459 24.3078 4.34933 38.0966 4.29761 38.0662C4.24634 38.0358 15.3594 38.3624 15.3594 38.3624Z" fill="url(#paint0_linear_65_2154)"/>
<path d="M4.57406 37.0551C4.57406 37.0551 -2.943 48.1678 2.61291 54.0509C3.29158 54.7695 4.35902 55.2749 5.18603 55.8007C6.03981 56.3438 6.95076 57.0978 7.99145 57.2153C9.18501 57.3505 10.0587 56.1015 11.2319 55.8579C13.0969 55.4705 14.9219 55.7771 16.5147 54.5051C17.8299 53.4548 18.6274 51.8175 18.8982 50.178C19.2357 48.1324 18.8864 46.0537 18.479 44.0453C18.3053 43.1892 18.0095 42.3749 17.6634 41.5728C17.2945 40.7181 16.6295 39.8838 16.34 39.0154C16.3396 39.0164 13.7252 31.172 4.57406 37.0551Z" fill="url(#paint1_linear_65_2154)"/>
<path d="M4.04968 34.0401C3.79745 37.8631 2.81438 40.0176 3.05663 40.6922C3.05663 40.6922 6.55882 35.9246 9.58831 36.0598C12.6178 36.195 16.5687 38.8222 17.5354 41.2244C17.5354 41.2244 17.4614 40.6078 17.2337 39.8098C16.6807 37.8727 15.5783 34.0641 15.024 30.5232C14.8284 29.2734 14.7373 28.048 14.6365 27.9482C14.3349 27.6488 13.9588 31.9623 10.502 31.994C5.89287 32.0362 4.56002 29.713 4.30189 28.7045C3.98298 25.5533 4.30191 30.217 4.04968 34.0401Z" fill="#725741"/>
<defs>
<linearGradient id="paint0_linear_65_2154" x1="14.4596" y1="19.6712" x2="1.56648" y2="19.274" gradientUnits="userSpaceOnUse">
<stop stop-color="#BFAB8D"/>
<stop offset="0.5078" stop-color="#E7E1D2"/>
<stop offset="1" stop-color="#CCBFA6"/>
</linearGradient>
<linearGradient id="paint1_linear_65_2154" x1="22.6099" y1="46.4516" x2="-4.11567" y2="45.6283" gradientUnits="userSpaceOnUse">
<stop stop-color="#94938C"/>
<stop offset="0.0311" stop-color="#A6A59D"/>
<stop offset="0.0939" stop-color="#C5C3BB"/>
<stop offset="0.1552" stop-color="#DBD9D0"/>
<stop offset="0.2138" stop-color="#E8E7DD"/>
<stop offset="0.2666" stop-color="#EDEBE1"/>
<stop offset="0.7117" stop-color="#EDEBE1"/>
<stop offset="0.7637" stop-color="#E7E5DB"/>
<stop offset="0.835" stop-color="#D5D3CA"/>
<stop offset="0.9175" stop-color="#B8B7AF"/>
<stop offset="1" stop-color="#94938C"/>
</linearGradient>
</defs>
</svg>
