<svg width="26" height="51" viewBox="0 0 26 51" fill="none" xmlns="http://www.w3.org/2000/svg">
<path d="M14.7112 2.24549C14.7112 2.24549 15.6172 0.19128 17.4513 0.705739C19.2854 1.2202 19.9192 6.0141 19.5871 9.54818C19.2555 13.0823 17.6836 24.2951 14.9812 24.526C12.2788 24.7569 7.33668 18.406 9.58499 14.8679C11.8333 11.3302 15.5537 5.11947 14.7112 2.24549Z" fill="url(#paint0_linear_65_2180)"/>
<path d="M2.88708 32.697C6.08586 32.4665 9.71562 30.9028 12.9203 30.7762C14.9305 30.6968 16.9415 30.5639 18.954 30.6283C19.8845 30.6578 21.2686 33.1384 22.1705 33.0236C22.7557 32.9492 22.3696 30.5457 22.3456 29.9238C22.3252 29.3943 22.2803 28.8672 22.3578 28.3395C22.6364 26.4378 23.6825 24.6322 24.1176 22.7304C24.6212 20.5306 24.9614 18.2881 25.1705 16.0416C25.3924 13.6585 25.4858 11.2241 25.1742 8.84417C25.0399 7.81798 24.8566 6.77591 24.4492 5.81822C24.1321 5.07284 23.3631 3.60977 22.3805 3.72183C22.0199 3.76311 21.6969 3.96817 21.4274 4.21179C20.8984 4.6895 20.53 5.32553 20.2864 5.9956C19.7842 7.37792 19.7951 8.8664 19.6985 10.3145C19.5986 11.8075 19.1917 13.1903 18.8569 14.6393C18.2354 17.3318 17.5014 20.5007 15.7375 22.7077C15.3084 23.2449 14.6632 23.6795 13.9787 23.6146C13.6275 23.5811 13.2996 23.4195 13.0128 23.214C11.9799 22.4732 11.4545 21.1948 11.2753 19.9363C10.9083 17.3577 11.1846 14.5132 11.8737 12.0135C12.2779 10.5463 13.0246 9.2325 13.481 7.79801C13.9633 6.28141 14.6174 3.27269 12.4793 2.69518C11.6165 2.46199 10.6978 2.90296 10.0527 3.52176C7.66099 5.81504 6.04548 9.22434 4.66226 12.1804C3.81391 13.9928 2.99506 15.8665 2.4729 17.8036C2.15896 18.9682 2.19252 20.1287 2.22564 21.3313C2.31819 24.693 2.51327 29.3635 2.88708 32.697Z" fill="url(#paint1_linear_65_2180)"/>
<path d="M21.8269 34.8634C22.0991 34.9465 22.4892 35.686 22.6403 35.8987C23.2387 36.743 23.7568 37.6517 24.1447 38.6126C25.1899 41.2016 25.0384 44.0416 23.0776 46.162C23.0545 46.187 23.0309 46.2119 23.0078 46.2369C22.9021 46.348 22.7918 46.4565 22.7056 46.583C22.4638 46.9383 22.4062 47.3833 22.1771 47.7476C21.9611 48.0919 21.6427 48.414 21.3346 48.674C20.6092 49.2864 19.6429 49.712 18.6779 49.6167C18.3463 49.584 18.0301 49.4661 17.7184 49.3491C16.3651 48.8409 14.8957 48.2616 14.178 46.9178C14.2597 47.0712 13.8872 47.695 13.7933 47.822C13.5682 48.1278 13.2924 48.2607 12.9444 48.395C11.7953 48.8391 10.5445 49.1957 9.44303 49.7465C8.68177 50.0395 8.03936 50.3181 7.26495 50.064C6.814 49.9161 6.35716 49.7864 5.9112 49.6231C5.07645 49.3177 3.68775 48.7833 3.68775 47.7004C3.68775 46.0259 2.29227 41.0029 5.64126 35.9799C8.98889 30.9587 21.8164 34.8603 21.8269 34.8634Z" fill="#D8D6D0"/>
<path d="M21.8442 30.7363C22.1632 30.8333 22.6205 31.6999 22.7969 31.9489C23.4979 32.9379 24.1044 34.0022 24.559 35.1273C25.7834 38.1601 25.6056 41.486 23.3096 43.9694C23.2824 43.9984 23.2547 44.0279 23.2275 44.0569C23.1036 44.1871 22.9748 44.3142 22.8736 44.4625C22.5901 44.879 22.5229 45.3993 22.2548 45.8267C22.0017 46.2295 21.6292 46.607 21.2681 46.9119C20.4183 47.6291 19.2864 48.1272 18.1568 48.0161C17.7685 47.978 17.3983 47.8396 17.0331 47.7026C15.448 47.1079 13.7267 46.4287 12.8861 44.8549C12.9818 45.0341 12.5454 45.765 12.4356 45.9143C12.172 46.2722 11.8485 46.4278 11.4416 46.5852C10.0956 47.1056 8.63066 47.523 7.34043 48.1681C6.44897 48.5115 5.69678 48.8377 4.78944 48.5401C4.26137 48.3668 3.72603 48.2148 3.20386 48.0238C2.2262 47.6663 0.599335 47.0403 0.599335 45.7718C0.599335 43.8106 -1.03478 37.9274 2.8872 32.0442C6.80781 26.1628 21.8315 30.7326 21.8442 30.7363Z" fill="url(#paint2_linear_65_2180)"/>
<path d="M2.28321 26.715C2.03098 30.538 2.44925 31.6658 2.69151 32.3404C2.69151 32.3404 5.4856 29.6194 8.51513 29.7545C11.5447 29.8897 21.5497 29.2129 22.5164 31.6146C22.5164 31.6146 22.1426 29.4392 22.6071 27.214C23.5598 24.5374 24.1546 22.7273 24.1042 22.6774C23.8025 22.378 12.8857 25.6566 9.42879 25.6884C4.81961 25.7306 2.50278 22.4443 2.28321 22.4052C2.0641 22.3662 2.53545 22.892 2.28321 26.715Z" fill="#725741"/>
<defs>
<linearGradient id="paint0_linear_65_2180" x1="11.1947" y1="23.5113" x2="29.7571" y2="-21.8538" gradientUnits="userSpaceOnUse">
<stop offset="0.1599" stop-color="#BFAB8D"/>
<stop offset="0.5078" stop-color="#E7E1D2"/>
<stop offset="0.7297" stop-color="#CCBFA6"/>
</linearGradient>
<linearGradient id="paint1_linear_65_2180" x1="24.0741" y1="17.5113" x2="3.16382" y2="18.4567" gradientUnits="userSpaceOnUse">
<stop offset="0.1599" stop-color="#BFAB8D"/>
<stop offset="0.5078" stop-color="#E7E1D2"/>
<stop offset="0.7297" stop-color="#CCBFA6"/>
</linearGradient>
<linearGradient id="paint2_linear_65_2180" x1="31.1003" y1="41.1757" x2="-3.72247" y2="37.5188" gradientUnits="userSpaceOnUse">
<stop stop-color="#94938C"/>
<stop offset="0.2296" stop-color="#EDEBE1"/>
<stop offset="0.7988" stop-color="#EDEBE1"/>
<stop offset="1" stop-color="#94938C"/>
</linearGradient>
</defs>
</svg>
