<svg width="24" height="42" viewBox="0 0 24 42" fill="none" xmlns="http://www.w3.org/2000/svg">
<path d="M13.8022 3.51529C14.323 1.77592 16.1214 1.99504 16.7293 3.56292C17.9048 6.59389 17.3014 9.99731 16.6971 13.0845C16.4172 14.514 15.8773 19.802 13.8598 19.9744C11.8581 20.1454 8.19774 15.4418 9.86278 12.8214C10.7661 11.4001 11.7538 10.0223 12.496 8.50564C13.3031 6.85746 13.2922 5.21972 13.8022 3.51529Z" fill="url(#paint0_linear_65_2194)"/>
<path d="M3.34436 26.8139C3.41014 26.8506 3.61837 26.3843 3.80574 26.4047C4.05027 26.431 4.35514 26.3457 4.59966 26.3208C5.4444 26.2355 6.29053 26.1615 7.13708 26.0976C9.48891 25.9202 11.8516 25.8122 14.2107 25.8598C15.8516 25.8929 17.5175 25.9801 19.1267 26.3235C20.1207 26.5353 21.4286 26.8506 22.0365 27.7543C22.0365 27.7543 20.6669 22.2382 21.6477 17.9892C22.6281 13.7401 23.9356 2.30087 21.3206 1.97377C19.677 1.76826 18.438 5.59087 18.0093 6.65427C16.8724 9.47427 15.9823 12.4884 15.1761 15.4509C15.1534 15.5335 15.1303 15.6183 15.0799 15.6877C14.6385 16.2983 13.106 16.5406 12.5144 16.1323C12.019 15.7902 11.8965 15.1229 11.8158 14.5259C11.6724 13.4665 11.529 12.4072 11.3857 11.3479C11.045 8.83097 10.702 6.29769 10.7628 3.75125C10.7796 3.05215 11.5762 -0.508242 9.88086 0.339663C7.03271 1.76373 5.40859 5.70247 4.61739 8.52927C3.54854 12.3487 3.50904 16.4358 3.36159 20.3745C3.294 22.1801 3.20418 24.0107 3.32168 25.8163C3.34481 26.1692 3.25045 26.7617 3.34436 26.8139Z" fill="url(#paint1_linear_65_2194)"/>
<path d="M4.43969 25.6617C5.31663 25.0543 6.49116 24.9817 7.50964 24.778C9.04348 24.4708 10.5909 24.215 12.1542 24.1206C15.5998 23.9119 19.3893 24.5439 21.7048 27.3471C22.5209 28.3347 23.0948 29.5175 23.3824 30.7651C23.7059 32.1696 23.445 33.077 22.9977 34.404C22.5876 35.6202 22.0523 36.9372 21.3908 38.0388C20.6736 39.2328 19.5263 40.2667 18.0836 40.2459C16.5208 40.2232 14.9933 39.6116 13.9494 38.4266C13.8945 38.3645 13.8382 38.2987 13.7611 38.2674C13.669 38.2302 13.5651 38.2497 13.4685 38.2719C11.368 38.7533 9.26169 40.127 7.32409 41.0557C6.39771 41.4994 5.86826 41.6346 4.93009 41.1419C3.75963 40.5271 2.64499 39.7713 1.77849 38.7728C-0.78471 35.8194 0.192476 31.6234 2.06611 28.5779C2.65769 27.6166 3.39038 26.5024 4.27684 25.7847C4.32946 25.7407 4.38389 25.7003 4.43969 25.6617Z" fill="url(#paint2_linear_65_2194)"/>
<path d="M3.30693 21.878C3.06559 25.701 3.04561 26.1747 3.27742 26.8493C3.27742 26.8493 8.77024 24.2189 11.67 24.3541C14.5697 24.4893 21.9225 27.8927 22.0133 27.6659C22.104 27.439 21.4017 25.1512 21.3328 22.5394C21.2761 20.3995 21.7628 18.0708 21.7411 18.0481C21.4525 17.7487 13.4538 20.82 10.1457 20.8513C5.73488 20.8935 3.75966 17.5427 3.54962 17.5037C3.33957 17.4647 3.54827 18.0544 3.30693 21.878Z" fill="#725741"/>
<defs>
<linearGradient id="paint0_linear_65_2194" x1="11.1256" y1="19.2568" x2="24.8127" y2="-14.1959" gradientUnits="userSpaceOnUse">
<stop offset="0.1599" stop-color="#BFAB8D"/>
<stop offset="0.5078" stop-color="#E7E1D2"/>
<stop offset="0.7297" stop-color="#CCBFA6"/>
</linearGradient>
<linearGradient id="paint1_linear_65_2194" x1="22.1845" y1="16.2623" x2="4.49537" y2="12.9068" gradientUnits="userSpaceOnUse">
<stop offset="0.1599" stop-color="#BFAB8D"/>
<stop offset="0.5078" stop-color="#E7E1D2"/>
<stop offset="0.7297" stop-color="#CCBFA6"/>
</linearGradient>
<linearGradient id="paint2_linear_65_2194" x1="-5.0309" y1="32.7314" x2="28.2543" y2="32.8159" gradientUnits="userSpaceOnUse">
<stop stop-color="#94938C"/>
<stop offset="0.2296" stop-color="#EDEBE1"/>
<stop offset="0.7988" stop-color="#EDEBE1"/>
<stop offset="1" stop-color="#94938C"/>
</linearGradient>
</defs>
</svg>
