<svg width="24" height="43" viewBox="0 0 24 43" fill="none" xmlns="http://www.w3.org/2000/svg">
<path d="M19.0108 2.95122C19.5444 1.21551 17.9274 0.398924 16.5505 1.36477C13.8887 3.23158 12.4995 6.39631 11.2868 9.29884C10.7251 10.643 8.23565 15.3389 9.81722 16.6032C11.3865 17.8576 17.0436 15.9804 17.1149 12.8769C17.1534 11.1929 17.0981 9.4989 17.3235 7.82535C17.5685 6.00707 18.4877 4.65154 19.0108 2.95122Z" fill="url(#paint0_linear_65_2206)"/>
<path d="M3.2194 26.8744C2.25719 20.5666 2.2726 12.9559 5.07622 7.1181C5.72768 5.76118 6.6146 4.51995 7.67117 3.44839C8.08582 3.02784 10.556 0.502727 11.075 1.12425C11.6044 1.75803 11.1258 3.17437 11.0319 3.87892C10.8749 5.058 10.7261 6.238 10.6032 7.42116C10.3541 9.82152 9.73399 12.4224 10.3827 14.8109C10.5256 15.3367 10.8559 15.8567 11.374 16.025C11.6475 16.1139 11.9456 16.0957 12.2264 16.0349C14.0038 15.6498 15.29 13.8578 16.3828 12.5431C17.9457 10.6635 18.8426 8.55216 19.6233 6.25433C20.0026 5.13831 20.4363 4.05403 21.3894 3.31047C21.619 3.13127 22.0822 2.71572 22.436 2.80055C23.6006 3.0791 23.1986 6.22211 23.1564 6.93664C22.8298 12.4932 20.5415 20.0104 20.5415 20.0104C20.5415 20.0104 19.5612 26.2202 20.5415 28.1814C21.5224 30.1431 4.52686 30.1431 3.2194 26.8744Z" fill="url(#paint1_linear_65_2206)"/>
<path d="M2.23952 27.8557C2.23997 27.8552 4.8545 24.9141 10.7377 24.9141C16.6209 24.9141 20.8701 26.8753 21.8504 29.4898C22.8308 32.1043 23.1579 39.2949 19.5625 40.6024C18.4252 41.0161 17.1749 41.1187 16.1496 40.3855C15.2726 39.7586 14.926 38.6062 13.6072 39.0336C13.0324 39.2196 12.5583 39.6229 12.0711 39.9804C9.92881 41.5519 6.28809 43.182 3.84824 41.3269C0.51284 38.7909 -0.664892 31.123 2.23952 27.8557Z" fill="url(#paint2_linear_65_2206)"/>
<path d="M2.20226 25.763C1.95002 29.5861 1.1434 28.627 1.38566 29.3016C1.38566 29.3016 4.72779 26.9811 7.75738 27.1163C10.787 27.2515 21.1202 29.0748 21.4831 28.9841C21.8461 28.8933 20.485 28.0767 20.3489 24.9011C20.2128 21.7254 20.49 20.6865 20.4397 20.6366C20.138 20.3372 12.128 23.0188 8.67109 23.0501C4.06183 23.0923 2.92087 20.8117 2.70129 20.7727C2.48172 20.7337 2.4545 21.94 2.20226 25.763Z" fill="#725741"/>
<defs>
<linearGradient id="paint0_linear_65_2206" x1="12.4738" y1="17.4993" x2="19.6839" y2="-17.92" gradientUnits="userSpaceOnUse">
<stop offset="0.1599" stop-color="#BFAB8D"/>
<stop offset="0.5078" stop-color="#E7E1D2"/>
<stop offset="0.7297" stop-color="#CCBFA6"/>
</linearGradient>
<linearGradient id="paint1_linear_65_2206" x1="-2.29949" y1="15.2198" x2="22.6377" y2="15.3099" gradientUnits="userSpaceOnUse">
<stop offset="0.1599" stop-color="#BFAB8D"/>
<stop offset="0.5078" stop-color="#E7E1D2"/>
<stop offset="0.7297" stop-color="#CCBFA6"/>
</linearGradient>
<linearGradient id="paint2_linear_65_2206" x1="-4.62167" y1="33.4857" x2="27.9381" y2="33.6033" gradientUnits="userSpaceOnUse">
<stop stop-color="#94938C"/>
<stop offset="0.2296" stop-color="#EDEBE1"/>
<stop offset="0.7988" stop-color="#EDEBE1"/>
<stop offset="1" stop-color="#94938C"/>
</linearGradient>
</defs>
</svg>
