<svg width="25" height="40" viewBox="0 0 25 40" fill="none" xmlns="http://www.w3.org/2000/svg">
<path d="M9.40628 36.7584C9.1114 38.6116 10.2973 39.1024 11.2273 37.8508C13.0252 35.4314 13.8581 31.9672 14.5785 28.803C14.912 27.3376 16.4517 22.1101 15.2694 21.1619C14.0963 20.2215 10.1748 23.2624 10.2737 26.3963C10.3272 28.0961 10.4479 29.7874 10.3685 31.5154C10.2818 33.3931 9.69526 34.9428 9.40628 36.7584Z" fill="url(#paint0_linear_65_2314)"/>
<path d="M21.8758 13.4499C21.8758 13.4499 20.5683 17.0453 20.5683 20.9673C20.5683 24.8893 20.8949 29.7921 18.6071 33.3874C16.3192 36.9828 15.6655 38.6169 15.6655 38.6169C15.6655 38.6169 13.7043 40.9048 12.7239 38.2903C12.7239 38.2903 15.0118 30.4458 13.7043 26.5238C12.3968 22.6019 11.0893 23.9089 10.7627 24.5626C10.4361 25.2164 5.85991 32.7337 5.20618 34.6949C4.55244 36.6561 3.57207 38.6169 2.91833 38.6169C2.2646 38.6169 1.28422 36.9828 0.630488 34.0412C-0.0232481 31.0996 0.630485 27.8313 1.93796 25.543C3.24543 23.2547 4.5529 13.1228 4.5529 11.4887C4.5529 9.8546 20.2417 12.7962 21.8758 13.4499Z" fill="url(#paint1_linear_65_2314)"/>
<path d="M14.3252 3.1812C14.6355 3.1077 14.9567 2.90491 15.3296 2.65948C16.3422 1.99213 17.3938 1.34839 18.562 1.02401C19.7306 0.69964 21.0454 0.727766 22.0852 1.35156C22.8165 1.79026 23.3582 2.48528 23.8041 3.21206C24.5018 4.3494 25.0168 5.67094 24.8566 6.99565C24.6742 8.50636 24.0749 9.99395 23.4602 11.374C23.0873 12.211 22.7765 13.166 22.1047 13.8211C21.3207 14.5851 20.0028 14.6926 18.9698 14.8373C16.7478 15.1481 14.5167 14.8695 12.3472 14.3546C10.1905 13.8424 7.96165 13.2744 5.86435 12.5604C5.48735 12.432 5.11082 12.2836 4.79507 12.0414C3.90997 11.3613 3.72805 9.81565 3.51528 8.7958C3.19227 7.24562 3.38961 5.64281 4.02384 4.19788C4.84044 2.33738 6.40195 0.695102 8.4752 0.376173C9.95914 0.147977 11.2766 0.45239 12.2751 1.60244C12.6058 1.98352 12.8689 2.42629 13.2264 2.78424C13.6207 3.17893 13.9659 3.26649 14.3252 3.1812Z" fill="url(#paint2_linear_65_2314)"/>
<path d="M13.5288 13.772C18.5246 14.4308 21.2661 13.9022 23.1022 12.505C23.1022 12.505 20.803 20.4304 20.5072 20.1069C20.014 19.5684 19.4977 18.2519 14.7632 17.5206C7.18832 16.3502 4.26532 18.6384 3.75675 17.7819C3.20055 16.8456 3.79032 13.2644 4.18638 11.2139C4.8687 11.6539 8.533 13.1138 13.5288 13.772Z" fill="#725741"/>
<defs>
<linearGradient id="paint0_linear_65_2314" x1="13.3228" y1="20.7943" x2="13.2987" y2="57.8632" gradientUnits="userSpaceOnUse">
<stop offset="0.1599" stop-color="#BFAB8D"/>
<stop offset="0.5078" stop-color="#E7E1D2"/>
<stop offset="0.7297" stop-color="#CCBFA6"/>
</linearGradient>
<linearGradient id="paint1_linear_65_2314" x1="19.9814" y1="25.237" x2="3.22315" y2="25.2975" gradientUnits="userSpaceOnUse">
<stop stop-color="#BFAB8D"/>
<stop offset="0.5078" stop-color="#E7E1D2"/>
<stop offset="1" stop-color="#CCBFA6"/>
</linearGradient>
<linearGradient id="paint2_linear_65_2314" x1="31.2369" y1="7.5722" x2="-2.80283" y2="7.69517" gradientUnits="userSpaceOnUse">
<stop stop-color="#94938C"/>
<stop offset="0.2614" stop-color="#EDEBE1"/>
<stop offset="0.7687" stop-color="#EDEBE1"/>
<stop offset="1" stop-color="#94938C"/>
</linearGradient>
</defs>
</svg>
