<svg width="29" height="51" viewBox="0 0 29 51" fill="none" xmlns="http://www.w3.org/2000/svg">
<path d="M19.6528 1.18068C20.9657 1.27005 21.9792 1.65519 23.0571 2.39554C23.3488 2.59606 23.6251 2.83785 23.5675 3.12456C23.2989 4.46372 13.4234 3.38767 13.5183 2.21318C13.5772 1.51547 16.7887 1.32857 17.5078 1.251C18.3194 1.16299 19.0208 1.13758 19.6528 1.18068Z" fill="#D8D6D0"/>
<path d="M9.48779 46.5485C8.81229 48.7125 10.4074 49.5953 11.889 48.3133C14.7534 45.8344 16.4111 41.858 17.8692 38.2155C18.5442 36.5288 21.4427 30.5975 19.9175 29.1639C18.4041 27.7412 12.4715 30.4501 12.1676 34.2563C12.0024 36.321 11.9335 38.3915 11.5783 40.4571C11.1917 42.7018 10.1497 44.4281 9.48779 46.5485Z" fill="url(#paint0_linear_65_2282)"/>
<path d="M26.2624 21.2753C26.0746 22.0497 25.9081 22.8377 25.8713 22.9902C25.556 24.2981 25.2825 25.6164 25.0629 26.9439C24.8837 28.0286 24.7403 29.1197 24.6337 30.2139C24.5303 31.2746 24.6206 32.4423 24.4187 33.4821C24.2195 34.507 23.8543 35.5822 23.5091 36.5721C22.4725 39.5449 20.9023 42.3114 19.0378 44.8402C18.1023 46.1086 17.0906 47.3204 16.0227 48.4795C15.3667 49.1917 13.9722 51.3004 12.813 50.4244C12.378 50.0955 12.2033 49.5089 12.2314 48.964C12.2596 48.4192 12.4592 47.9002 12.6484 47.3884C14.1055 43.4402 15.491 38.5514 14.6717 34.3155C14.5864 33.8741 14.453 33.4182 14.1364 33.0992C13.7213 32.6814 13.0567 32.5875 12.4887 32.744C11.9207 32.9005 11.4362 33.2721 11.0134 33.6822C9.56209 35.0908 8.53091 37.0711 7.64399 38.8722C6.97257 40.2359 6.47944 41.689 6.1959 43.1829C5.92461 44.6129 6.15507 46.3123 5.58073 47.6543C5.25908 48.4064 4.54184 49.0511 3.72388 49.0275C3.08739 49.0094 2.52393 48.5997 2.10429 48.1206C0.558202 46.3554 0.261966 43.5427 0.171687 41.292C0.0582706 38.4557 0.462025 35.6294 0.901626 32.8352C1.50001 29.0312 2.26897 25.253 3.12776 21.4999C3.16088 21.3542 3.62816 18.9865 3.72252 18.9893C3.72252 18.9893 26.5972 19.6239 26.8072 19.6298C26.6906 19.6276 26.4643 20.4437 26.2624 21.2753Z" fill="url(#paint1_linear_65_2282)"/>
<path d="M8.36364 1.00462C9.54951 0.937013 10.5149 1.19608 11.5942 1.79815C11.8863 1.96103 12.1712 2.16701 12.1653 2.45602C12.1385 3.80807 3.15471 3.91923 3.05264 2.75003C2.99457 2.05495 5.83085 1.48962 6.46008 1.32765C7.17051 1.14571 7.79248 1.03728 8.36364 1.00462Z" fill="#D8D6D0"/>
<path d="M24.3072 2.05448C25.2603 2.14975 26.1581 2.51677 26.9316 3.32339C27.9283 4.36274 28.4274 5.8045 28.5508 7.239C28.8152 10.3167 28.2885 13.9769 27.5196 16.9584C27.2755 17.9047 27.251 19.8936 26.6013 20.624C24.5798 22.8964 20.138 21.7908 17.45 21.6044C14.3714 21.3907 11.057 21.2886 8.29866 20.624C6.47266 20.5324 3.11962 20.9366 2.56524 18.5217C1.93011 15.7539 1.53905 12.9235 1.4084 10.0867C1.3104 7.96714 1.001 2.73 4.04782 2.32124C4.49377 2.26136 5.2464 2.76402 5.69327 2.86565C6.62555 3.07705 7.53515 3.04847 8.46063 2.80258C9.59887 2.50044 10.6559 1.95604 11.747 1.51281C11.9842 1.41663 12.231 1.32363 12.4869 1.33043C13.0699 1.34631 13.4981 1.85124 13.9645 2.20147C15.9275 3.6768 19.4461 2.91147 21.6133 2.34484C22.5229 2.10711 23.4379 1.96783 24.3072 2.05448Z" fill="url(#paint2_linear_65_2282)"/>
<path d="M14.7598 20.9032C20.9192 21.737 24.3476 21.4281 26.5551 20.0867C26.5551 20.0867 24.8879 28.9959 24.5136 28.6606C23.8894 28.1022 22.2453 25.6117 16.4048 24.7134C7.06015 23.2763 3.30107 25.6829 2.64688 24.8046C1.9319 23.8442 2.20093 20.2727 2.61649 18.2249C2.77572 17.4423 8.60034 20.0694 14.7598 20.9032Z" fill="#725741"/>
<defs>
<linearGradient id="paint0_linear_65_2282" x1="17.2442" y1="28.2612" x2="9.4825" y2="72.5534" gradientUnits="userSpaceOnUse">
<stop offset="0.1599" stop-color="#BFAB8D"/>
<stop offset="0.5078" stop-color="#E7E1D2"/>
<stop offset="0.7297" stop-color="#CCBFA6"/>
</linearGradient>
<linearGradient id="paint1_linear_65_2282" x1="24.2207" y1="34.7557" x2="1.69379" y2="34.837" gradientUnits="userSpaceOnUse">
<stop stop-color="#BFAB8D"/>
<stop offset="0.5078" stop-color="#E7E1D2"/>
<stop offset="1" stop-color="#CCBFA6"/>
</linearGradient>
<linearGradient id="paint2_linear_65_2282" x1="34.3257" y1="11.6229" x2="-4.51968" y2="11.7633" gradientUnits="userSpaceOnUse">
<stop stop-color="#94938C"/>
<stop offset="0.2296" stop-color="#EDEBE1"/>
<stop offset="0.7988" stop-color="#EDEBE1"/>
<stop offset="1" stop-color="#94938C"/>
</linearGradient>
</defs>
</svg>
