<svg width="24" height="42" viewBox="0 0 24 42" fill="none" xmlns="http://www.w3.org/2000/svg">
<path d="M9.75764 3.56019C9.23684 1.82085 7.43853 2.03997 6.83063 3.60783C5.65519 6.63875 6.25856 10.0421 6.86283 13.1293C7.14274 14.5588 7.6826 19.8467 9.70003 20.0191C11.7016 20.1901 15.3617 15.4865 13.6968 12.8662C12.7935 11.4449 11.8059 10.0671 11.0637 8.55048C10.2567 6.90233 10.2676 5.2646 9.75764 3.56019Z" fill="url(#paint0_linear_65_2200)"/>
<path d="M20.2159 26.8588C20.1505 26.8956 19.9419 26.4292 19.7545 26.4496C19.51 26.4759 19.2051 26.3906 18.9606 26.3657C18.1158 26.2804 17.2698 26.2064 16.4232 26.1425C14.0714 25.9651 11.7087 25.8571 9.34962 25.9048C7.70871 25.9379 6.04285 26.025 4.43369 26.3684C3.4397 26.5803 2.13177 26.8956 1.52386 27.7993C1.52386 27.7993 2.89348 22.2831 1.91266 18.0341C0.93228 13.785 -0.375192 2.34579 2.23975 2.0187C3.88338 1.81319 5.12235 5.6358 5.55107 6.69919C6.68796 9.51919 7.57805 12.5334 8.38422 15.4958C8.4069 15.5784 8.43004 15.6632 8.4804 15.7326C8.92182 16.3433 10.4543 16.5855 11.0459 16.1772C11.5413 15.8352 11.6638 15.1678 11.7445 14.5708C11.8879 13.5115 12.0313 12.4522 12.1746 11.3928C12.5153 8.87589 12.8583 6.34261 12.7975 3.79617C12.7807 3.09707 11.9841 -0.46332 13.6794 0.384585C16.5275 1.80865 18.1517 5.74739 18.9424 8.57419C20.0113 12.3936 20.0507 16.4807 20.1982 20.4195C20.2658 22.2251 20.356 24.0556 20.2385 25.8612C20.215 26.2142 20.3093 26.8066 20.2159 26.8588Z" fill="url(#paint1_linear_65_2200)"/>
<path d="M19.1197 25.7066C18.2428 25.0992 17.0682 25.0266 16.0498 24.8229C14.5159 24.5158 12.9685 24.2599 11.4056 24.1655C7.96003 23.9568 4.17057 24.5888 1.85507 27.392C1.03893 28.3796 0.465041 29.5623 0.177418 30.8099C-0.146045 32.2144 0.114811 33.1218 0.562124 34.4487C0.972236 35.665 1.50756 36.982 2.169 38.0835C2.88624 39.2775 4.03357 40.3114 5.47622 40.2906C7.03909 40.2679 8.56657 39.6563 9.61046 38.4714C9.66535 38.4092 9.72161 38.3434 9.79873 38.3121C9.89083 38.2749 9.99471 38.2945 10.0909 38.3167C12.1918 38.798 14.2977 40.1717 16.2358 41.1004C17.1622 41.544 17.6916 41.6792 18.6298 41.1866C19.8002 40.5718 20.9149 39.816 21.7814 38.8175C24.3441 35.8642 23.3674 31.6682 21.4937 28.6228C20.9022 27.6615 20.1695 26.5473 19.283 25.8296C19.23 25.7856 19.1755 25.7452 19.1197 25.7066Z" fill="url(#paint2_linear_65_2200)"/>
<path d="M20.252 21.9229C20.4933 25.746 20.5133 26.2196 20.2815 26.8942C20.2815 26.8942 14.7885 24.2638 11.8887 24.399C8.98889 24.5342 1.63592 27.9376 1.54519 27.7108C1.45445 27.484 2.15672 25.1961 2.22568 22.5843C2.28239 20.4444 1.79561 18.1157 1.81738 18.093C2.10591 17.7936 10.1049 20.8649 13.413 20.8962C17.824 20.9384 19.7992 17.5876 20.0093 17.5486C20.2193 17.5096 20.0106 18.0994 20.252 21.9229Z" fill="#725741"/>
<defs>
<linearGradient id="paint0_linear_65_2200" x1="12.4255" y1="19.2875" x2="-1.26193" y2="-14.1644" gradientUnits="userSpaceOnUse">
<stop offset="0.1599" stop-color="#BFAB8D"/>
<stop offset="0.5078" stop-color="#E7E1D2"/>
<stop offset="0.7297" stop-color="#CCBFA6"/>
</linearGradient>
<linearGradient id="paint1_linear_65_2200" x1="1.37551" y1="16.3072" x2="19.0645" y2="12.9518" gradientUnits="userSpaceOnUse">
<stop offset="0.1599" stop-color="#BFAB8D"/>
<stop offset="0.5078" stop-color="#E7E1D2"/>
<stop offset="0.7297" stop-color="#CCBFA6"/>
</linearGradient>
<linearGradient id="paint2_linear_65_2200" x1="28.5911" y1="32.7751" x2="-4.69398" y2="32.8596" gradientUnits="userSpaceOnUse">
<stop stop-color="#94938C"/>
<stop offset="0.2296" stop-color="#EDEBE1"/>
<stop offset="0.7988" stop-color="#EDEBE1"/>
<stop offset="1" stop-color="#94938C"/>
</linearGradient>
</defs>
</svg>
