<svg width="20" height="51" viewBox="0 0 20 51" fill="none" xmlns="http://www.w3.org/2000/svg">
<path d="M16.0748 20.7503C15.2719 26.0064 13.856 31.2585 12.0127 36.2384C9.98669 41.7115 7.45526 47.185 2.53393 50.6147C2.41461 50.6977 2.28668 50.7839 2.14151 50.7911C1.99362 50.7984 1.85433 50.7217 1.73593 50.6328C1.05816 50.1261 0.808647 49.2011 0.878511 48.3572C0.948375 47.5134 1.28499 46.719 1.57896 45.9251C3.37275 41.0827 3.81053 35.7535 4.32181 30.652C4.64572 27.4223 5.41377 23.4636 4.65253 20.244C3.83457 16.7888 15.5681 20.1365 16.0748 20.7503Z" fill="url(#paint0_linear_65_2267)"/>
<path d="M5.93755 0.766729C6.66432 0.439138 7.42239 0.431429 8.43497 0.680071C8.70898 0.747223 9.00114 0.851583 9.14994 1.09115C9.84676 2.21095 4.12744 4.36116 3.44377 3.42149C3.03911 2.8625 4.56477 1.74678 4.88415 1.46955C5.24481 1.15648 5.58778 0.924626 5.93755 0.766729Z" fill="#D8D6D0"/>
<path d="M15.8723 0.953381C16.2099 1.055 16.4666 1.16388 16.5746 1.2587C17.1208 1.73868 17.6883 2.24951 17.9329 2.93409C18.0309 3.20856 18.0413 3.57649 17.7918 3.7271C17.7074 3.77792 17.6067 3.79335 17.5087 3.80151C16.3641 3.89542 15.0399 3.1514 14.0717 2.62016C13.7133 2.42372 12.1722 1.71464 12.2426 1.15708C12.3496 0.311894 14.6452 0.584549 15.8723 0.953381Z" fill="#D8D6D0"/>
<path d="M17.8891 3.06093C17.8891 3.06093 20.1769 4.69504 18.8695 8.94409C18.2157 14.8273 16.2545 20.7104 16.2545 20.7104C16.2545 20.7104 15.6007 21.6908 11.025 21.6908C6.44928 21.6908 5.14181 21.0371 4.48807 19.7296C3.83433 18.4221 2.2002 6.00206 2.2002 6.00206C2.2002 6.00206 2.52684 3.06047 3.83432 2.73383C5.1418 2.40719 6.44929 2.08009 6.77593 2.08009C7.10257 2.08009 10.0442 0.118882 11.3517 0.445977C12.6596 0.773071 15.9278 3.38757 17.8891 3.06093Z" fill="url(#paint1_linear_65_2267)"/>
<path d="M4.06827 22.1513C4.06827 22.1513 3.58738 17.8465 3.93443 17.4287C3.93443 17.4287 6.67818 21.3565 10.1628 21.787C13.6473 22.218 15.6697 19.9492 17.0239 18.4789C17.0239 18.4789 16.9976 23.148 15.5876 26.4203C15.0591 27.6474 14.5746 28.1442 14.3813 27.8361C14.0588 27.323 14.3591 24.9522 11.0619 24.4373C5.78628 23.613 5.54584 25.507 5.43333 25.8192C5.32082 26.1313 4.98693 26.3046 4.66755 25.4762C4.18395 24.2254 4.06827 22.1513 4.06827 22.1513Z" fill="#725741"/>
<defs>
<linearGradient id="paint0_linear_65_2267" x1="12.8464" y1="34.7178" x2="2.48008" y2="34.7553" gradientUnits="userSpaceOnUse">
<stop stop-color="#BFAB8D"/>
<stop offset="0.5078" stop-color="#E7E1D2"/>
<stop offset="1" stop-color="#CCBFA6"/>
</linearGradient>
<linearGradient id="paint1_linear_65_2267" x1="22.9071" y1="11.0074" x2="-1.22515" y2="11.0946" gradientUnits="userSpaceOnUse">
<stop stop-color="#94938C"/>
<stop offset="0.2296" stop-color="#EDEBE1"/>
<stop offset="0.7988" stop-color="#EDEBE1"/>
<stop offset="1" stop-color="#94938C"/>
</linearGradient>
</defs>
</svg>
