<svg width="19" height="53" viewBox="0 0 19 53" fill="none" xmlns="http://www.w3.org/2000/svg">
<path d="M15.5265 21.6719C15.5265 21.6719 9.31669 47.1658 4.08685 51.4144C-1.14255 55.6635 1.47192 47.1654 1.47192 47.1654C1.47192 47.1654 3.43311 31.477 3.43311 28.5355C3.43311 25.5939 2.39331 20.085 2.39331 20.085C2.39331 20.085 12.4651 22.254 15.5265 21.6719Z" fill="url(#paint0_linear_65_2255)"/>
<path d="M15.8534 2.38861C15.8534 2.38861 19.1216 4.02272 18.1413 8.59843C17.1609 13.1741 17.4875 15.7891 17.4875 15.7891C17.4875 15.7891 16.8338 23.6335 11.2778 23.9601C5.72133 24.2868 2.12649 21.0185 1.7994 19.0573C1.47277 17.0961 1.47278 11.54 1.14569 10.5592C0.818599 9.57835 -0.161768 3.36853 3.10687 2.38815C6.37506 1.40778 8.33625 1.08068 8.33625 1.08068C8.33625 1.08068 11.6044 0.100755 15.8534 2.38861Z" fill="url(#paint1_linear_65_2255)"/>
<path d="M2.15277 24.0706C2.15277 24.0706 1.5993 19.7549 1.9645 19.3398C1.9645 19.3398 4.92239 23.2998 8.63474 23.7648C12.3471 24.2299 14.4775 21.9774 15.9043 20.5185C15.9043 20.5185 15.9215 25.1943 14.4526 28.4575C13.9018 29.6815 13.3914 30.1742 13.1823 29.8639C12.8339 29.3471 13.1306 26.9754 9.61648 26.4278C3.9942 25.5514 3.75694 27.4459 3.6399 27.7575C3.52285 28.0692 3.16944 28.2393 2.82148 27.4068C2.29614 26.1488 2.15277 24.0706 2.15277 24.0706Z" fill="#725741"/>
<defs>
<linearGradient id="paint0_linear_65_2255" x1="2.2671" y1="36.3453" x2="13.8235" y2="36.387" gradientUnits="userSpaceOnUse">
<stop stop-color="#BFAB8D"/>
<stop offset="0.5078" stop-color="#E7E1D2"/>
<stop offset="1" stop-color="#CCBFA6"/>
</linearGradient>
<linearGradient id="paint1_linear_65_2255" x1="-2.52968" y1="12.3811" x2="21.637" y2="12.4684" gradientUnits="userSpaceOnUse">
<stop stop-color="#94938C"/>
<stop offset="0.2296" stop-color="#EDEBE1"/>
<stop offset="0.4283" stop-color="#EDEBE1"/>
<stop offset="0.7988" stop-color="#EDEBE1"/>
<stop offset="1" stop-color="#94938C"/>
</linearGradient>
</defs>
</svg>
