<svg width="18" height="66" viewBox="0 0 18 66" fill="none" xmlns="http://www.w3.org/2000/svg">
<path d="M15.5714 26.8344C13.6665 26.8244 11.7321 26.6489 9.83034 26.4964C7.5271 26.3118 4.29294 26.4247 2.18977 25.3241C1.99741 25.2234 1.9339 24.8809 1.75697 24.7598C1.35457 26.109 1.69891 28.2712 1.7783 29.6526C2.00559 33.6018 2.18025 37.5582 2.14214 41.5147C2.12082 43.6986 1.99969 45.8672 1.8028 48.0416C1.53151 51.0444 0.517574 53.976 0.24447 57.0097C0.0530245 59.137 0.0852185 61.2996 0.500319 63.4001C0.630974 64.0606 0.821067 65.7732 1.39404 65.9311C2.14984 66.1389 3.2899 64.9766 3.66962 64.4644C4.92535 62.7713 5.24745 60.4789 5.88984 58.5168C6.60844 56.321 7.45043 54.1679 8.31057 52.0243C9.98776 47.8429 11.7516 43.6723 12.8318 39.2858C13.4628 36.723 13.7436 34.0976 14.3361 31.5253C14.6986 29.9488 15.1259 28.3887 15.5714 26.8344Z" fill="url(#paint0_linear_65_2245)"/>
<path d="M17.7655 8.0838C17.7655 8.0838 18.7441 2.85394 16.4553 1.22074C14.1666 -0.412459 13.1866 0.241725 13.1866 0.241725C12.2403 0.500315 11.2894 0.74257 10.3367 0.975301C8.76787 1.3582 7.07431 1.90714 5.44835 1.86495C5.12261 1.85633 4.79597 1.82003 4.47204 1.8527C2.04898 2.09495 1.65567 4.67541 1.29182 6.56584C0.824993 8.98978 0.496066 11.4464 0.301895 13.9071C0.141748 15.9391 0.0641828 17.9942 0.235217 20.0284C0.359523 21.5019 0.565473 23.185 1.43063 24.4335C2.63966 26.1779 4.85541 26.9704 6.83705 27.4264C9.35221 28.0052 11.9953 28.1413 14.5676 28.0329C15.9663 27.9735 16.356 24.8568 16.434 23.8678C16.8491 18.603 17.2905 13.3427 17.7655 8.0838Z" fill="url(#paint1_linear_65_2245)"/>
<path d="M0.677705 26.699C0.677705 26.699 0.0334911 21.6746 0.458579 21.1914C0.458579 21.1914 3.90238 25.8016 8.22404 26.3429C12.5457 26.8845 14.8113 24.3335 16.4722 22.635C16.4722 22.635 16.9971 28.1004 15.2872 31.8994C14.6462 33.324 14.4679 33.7078 14.2247 33.3467C13.8191 32.7451 13.458 30.0802 9.36729 29.4428C2.8222 28.4225 2.54546 30.6278 2.40936 30.9908C2.27326 31.3537 1.86178 31.5515 1.45665 30.5824C0.844198 29.1184 0.677705 26.699 0.677705 26.699Z" fill="#725741"/>
<defs>
<linearGradient id="paint0_linear_65_2245" x1="10.9435" y1="45.32" x2="1.86187" y2="45.3566" gradientUnits="userSpaceOnUse">
<stop stop-color="#BFAB8D"/>
<stop offset="0.5078" stop-color="#E7E1D2"/>
<stop offset="1" stop-color="#CCBFA6"/>
</linearGradient>
<linearGradient id="paint1_linear_65_2245" x1="22.4372" y1="14.053" x2="-3.89064" y2="14.159" gradientUnits="userSpaceOnUse">
<stop stop-color="#94938C"/>
<stop offset="0.2296" stop-color="#EDEBE1"/>
<stop offset="0.7988" stop-color="#EDEBE1"/>
<stop offset="1" stop-color="#94938C"/>
</linearGradient>
</defs>
</svg>
