<svg width="17" height="64" viewBox="0 0 17 64" fill="none" xmlns="http://www.w3.org/2000/svg">
<path d="M14.4104 23.0684C14.4104 23.0684 6.2393 26.9903 3.95141 23.7221C4.04124 26.9336 4.09658 30.1469 4.13877 33.3594C4.21862 39.468 4.25083 45.5825 4.07254 51.6897C4.00993 53.8347 3.96003 55.9823 3.75497 58.1196C3.65062 59.2084 3.50681 60.294 3.30129 61.3683C3.20693 61.8628 2.92248 62.4453 3.15159 62.8967C3.45646 63.4969 4.24404 63.633 4.79434 63.3626C5.56877 62.9815 6.07778 62.0442 6.46204 61.3206C7.3889 59.5749 7.98686 57.6455 8.52764 55.7528C11.7955 44.3127 13.9064 26.5843 14.4104 23.0684Z" fill="url(#paint0_linear_65_2235)"/>
<path d="M15.6671 0.630343C14.8945 0.233833 13.6909 0.478817 12.8443 0.471558C11.2737 0.458401 9.70308 0.462941 8.13291 0.508308C6.37856 0.559119 3.93917 0.3586 2.31683 1.16977C0.758917 1.94872 0.593317 3.89452 0.640499 5.42295C0.827412 11.4604 1.21622 17.815 3.65154 23.4283C4.36471 25.072 5.36007 26.7306 6.91799 27.6978C9.33198 29.1967 12.0953 28.328 13.4713 25.928C14.5728 24.0072 14.9966 21.7928 15.2275 19.6206C15.4021 17.9761 15.2928 16.3192 15.4094 14.6715C15.5323 12.9349 16.0445 11.2499 16.3244 9.53367C16.7668 6.8198 17.3021 3.98798 16.2909 1.33444C16.1611 0.992829 15.9416 0.771435 15.6671 0.630343Z" fill="url(#paint1_linear_65_2235)"/>
<path d="M2.62109 26.8207C2.62109 26.8207 2.69233 21.9593 3.03575 21.4639C3.03575 21.4639 5.12714 25.8149 8.42529 26.2023C11.723 26.5897 13.5513 23.973 14.8855 22.2251C14.8855 22.2251 15.0969 27.6431 13.6515 31.482C13.1094 32.9215 12.9597 33.3093 12.7855 32.9587C12.4951 32.3743 12.3114 29.7363 9.19426 29.2455C4.20666 28.4602 5.02054 28.202 4.24931 31.1962C3.52662 33.6441 2.62109 26.8207 2.62109 26.8207Z" fill="#725741"/>
<defs>
<linearGradient id="paint0_linear_65_2235" x1="1.77097" y1="43.2545" x2="11.0042" y2="43.2878" gradientUnits="userSpaceOnUse">
<stop stop-color="#BFAB8D"/>
<stop offset="0.5078" stop-color="#E7E1D2"/>
<stop offset="1" stop-color="#CCBFA6"/>
</linearGradient>
<linearGradient id="paint1_linear_65_2235" x1="-2.07982" y1="14.3704" x2="20.1135" y2="14.4506" gradientUnits="userSpaceOnUse">
<stop stop-color="#94938C"/>
<stop offset="0.2296" stop-color="#EDEBE1"/>
<stop offset="0.7988" stop-color="#EDEBE1"/>
<stop offset="1" stop-color="#94938C"/>
</linearGradient>
</defs>
</svg>
