<svg width="16" height="66" viewBox="0 0 16 66" fill="none" xmlns="http://www.w3.org/2000/svg">
<path d="M2.35564 24.8105C2.35519 32.3446 0.820406 39.8246 0.47017 47.3532C0.327263 50.4218 0.0909042 53.4895 0.135364 56.5635C0.170297 59.0002 -0.0161673 63.0637 1.50319 65.1387C2.14649 66.0152 4.0501 62.1132 4.23203 61.7385C5.3712 59.3926 6.07895 56.8988 6.95908 54.4508C7.92948 51.7511 8.91894 49.0345 9.71423 46.2762C10.7754 42.5961 11.3801 38.763 12.0561 34.9981C12.1618 34.4083 13.0855 26.8266 13.4684 26.7722C13.4652 26.7718 4.31642 28.0783 2.35564 24.8105Z" fill="url(#paint0_linear_65_2225)"/>
<path d="M14.963 0.769926C14.8142 0.63428 14.5515 0.605698 14.0652 0.564868C13.3212 0.502716 12.5481 0.55715 11.8023 0.558511C8.7623 0.564408 5.72227 0.624301 2.68225 0.624301C2.68225 0.624301 -0.259327 1.27802 0.0673125 2.91213C0.393952 4.54624 1.37479 24.8106 2.35516 26.1176C3.33553 27.4251 5.62337 31.6742 10.5261 30.3667C15.4285 29.0592 14.4481 17.6205 14.4481 17.62C14.3188 15.5481 14.8396 13.253 14.9807 11.182C15.1903 8.10707 15.3695 5.00536 15.1935 1.92405C15.1554 1.249 15.1413 0.932339 14.963 0.769926Z" fill="url(#paint1_linear_65_2225)"/>
<path d="M1.57108 29.9189C1.57108 29.9189 1.63187 25.0555 1.97938 24.5605C1.97938 24.5605 4.11529 28.9186 7.46795 29.3142C10.8202 29.7098 12.6716 27.0966 14.0231 25.3513C14.0231 25.3513 14.2508 30.7719 12.7914 34.6091C12.2442 36.0481 12.0927 36.4355 11.9149 36.0844C11.6186 35.4991 11.1568 33.1909 7.98786 32.6923C2.91758 31.8943 3.52188 32.092 2.02475 33.7706C1.29706 36.2178 1.57108 29.9189 1.57108 29.9189Z" fill="#725741"/>
<defs>
<linearGradient id="paint0_linear_65_2225" x1="12.3874" y1="45.0009" x2="-3.91813" y2="45.0598" gradientUnits="userSpaceOnUse">
<stop stop-color="#BFAB8D"/>
<stop offset="0.5078" stop-color="#E7E1D2"/>
<stop offset="1" stop-color="#CCBFA6"/>
</linearGradient>
<linearGradient id="paint1_linear_65_2225" x1="17.52" y1="15.5508" x2="-2.02309" y2="15.6214" gradientUnits="userSpaceOnUse">
<stop stop-color="#94938C"/>
<stop offset="0.2296" stop-color="#EDEBE1"/>
<stop offset="0.7988" stop-color="#EDEBE1"/>
<stop offset="1" stop-color="#94938C"/>
</linearGradient>
</defs>
</svg>
