<svg width="16" height="66" viewBox="0 0 16 66" fill="none" xmlns="http://www.w3.org/2000/svg">
<path d="M12.9663 24.7197C12.9667 32.2538 14.5015 39.734 14.8518 47.2627C14.9947 50.3313 15.231 53.399 15.1866 56.4731C15.1516 58.9098 15.3381 62.9733 13.8187 65.0484C13.1754 65.9249 11.2718 62.0229 11.0899 61.6481C9.95072 59.3022 9.24297 56.8084 8.36284 54.3603C7.39243 51.6605 6.40296 48.944 5.60767 46.1856C4.54653 42.5055 3.9418 38.6724 3.26582 34.9074C3.16012 34.3176 2.23642 26.7359 1.85352 26.6814C1.85669 26.681 11.0055 27.9875 12.9663 24.7197Z" fill="url(#paint0_linear_65_2220)"/>
<path d="M0.358562 0.679106C0.507364 0.54346 0.770037 0.514878 1.25637 0.474048C2.00037 0.411896 2.77341 0.466329 3.51924 0.46769C6.55924 0.473588 9.59926 0.533481 12.6393 0.533481C12.6393 0.533481 15.5808 1.1872 15.2542 2.82131C14.9276 4.45542 13.9467 24.7198 12.9664 26.0268C11.986 27.3343 9.69816 31.5833 4.79541 30.2759C-0.106884 28.9684 0.873475 17.5296 0.873475 17.5292C1.00277 15.4573 0.481974 13.1622 0.340885 11.0912C0.131292 8.01625 -0.047925 4.91454 0.128097 1.83323C0.166205 1.15818 0.180272 0.841519 0.358562 0.679106Z" fill="url(#paint1_linear_65_2220)"/>
<path d="M13.751 29.8281C13.751 29.8281 13.6902 24.9647 13.3427 24.4697C13.3427 24.4697 11.2068 28.8277 7.85416 29.2234C4.50196 29.619 2.65052 27.0058 1.29902 25.2605C1.29902 25.2605 1.07127 30.681 2.53074 34.5182C3.07788 35.9573 3.2294 36.3447 3.40724 35.9936C3.70349 35.4083 4.16533 33.1001 7.33425 32.6015C12.4045 31.8034 11.8002 32.0012 13.2974 33.6798C14.0251 36.127 13.751 29.8281 13.751 29.8281Z" fill="#725741"/>
<defs>
<linearGradient id="paint0_linear_65_2220" x1="2.9344" y1="44.9104" x2="19.2399" y2="44.9693" gradientUnits="userSpaceOnUse">
<stop stop-color="#BFAB8D"/>
<stop offset="0.5078" stop-color="#E7E1D2"/>
<stop offset="1" stop-color="#CCBFA6"/>
</linearGradient>
<linearGradient id="paint1_linear_65_2220" x1="-2.19851" y1="15.46" x2="17.3444" y2="15.5306" gradientUnits="userSpaceOnUse">
<stop stop-color="#94938C"/>
<stop offset="0.2296" stop-color="#EDEBE1"/>
<stop offset="0.7988" stop-color="#EDEBE1"/>
<stop offset="1" stop-color="#94938C"/>
</linearGradient>
</defs>
</svg>
