<svg width="18" height="64" viewBox="0 0 18 64" fill="none" xmlns="http://www.w3.org/2000/svg">
<path d="M3.22559 23.0684C3.22559 23.0684 11.3963 26.9903 13.6841 23.7221C13.5943 26.9336 13.5389 30.1469 13.4967 33.3594C13.4169 39.468 13.3847 45.5825 13.563 51.6897C13.6256 53.8347 13.6755 55.9823 13.8805 58.1196C13.9849 59.2084 14.1287 60.294 14.3342 61.3683C14.4285 61.8628 14.713 62.4453 14.4839 62.8967C14.179 63.4969 13.3915 63.633 12.8412 63.3626C12.0668 62.9815 11.5578 62.0442 11.1736 61.3206C10.2468 59.5749 9.64886 57.6455 9.1081 55.7528C5.83998 44.3127 3.72914 26.5843 3.22559 23.0684Z" fill="url(#paint0_linear_65_2230)"/>
<path d="M1.96856 0.630343C2.74117 0.233833 3.94478 0.478817 4.79133 0.471558C6.36195 0.458401 7.93255 0.462941 9.50271 0.508308C11.2571 0.559119 13.6965 0.3586 15.3188 1.16977C16.8767 1.94872 17.0423 3.89452 16.9952 5.42295C16.8082 11.4604 16.4194 17.815 13.9841 23.4283C13.2709 25.072 12.2756 26.7306 10.7177 27.6978C8.30367 29.1967 5.54033 28.328 4.16434 25.928C3.06282 24.0072 2.63909 21.7928 2.40817 19.6206C2.23351 17.9761 2.34285 16.3192 2.22626 14.6715C2.10331 12.9349 1.59112 11.2499 1.3112 9.53367C0.86887 6.8198 0.333524 3.98798 1.34476 1.33444C1.47451 0.992829 1.69454 0.771435 1.96856 0.630343Z" fill="url(#paint1_linear_65_2230)"/>
<path d="M15.0135 26.8207C15.0135 26.8207 14.9423 21.9593 14.5989 21.4639C14.5989 21.4639 12.5077 25.8149 9.20978 26.2023C5.91189 26.5897 4.08421 23.973 2.75009 22.2251C2.75009 22.2251 2.53868 27.6431 3.98395 31.482C4.52604 32.9215 4.67575 33.3093 4.84994 32.9587C5.14027 32.3743 5.32397 29.7363 8.44086 29.2455C13.4281 28.4602 12.6143 28.202 13.3854 31.1962C14.1081 33.6441 15.0135 26.8207 15.0135 26.8207Z" fill="#725741"/>
<defs>
<linearGradient id="paint0_linear_65_2230" x1="15.8642" y1="43.2545" x2="6.63142" y2="43.2878" gradientUnits="userSpaceOnUse">
<stop stop-color="#BFAB8D"/>
<stop offset="0.5078" stop-color="#E7E1D2"/>
<stop offset="1" stop-color="#CCBFA6"/>
</linearGradient>
<linearGradient id="paint1_linear_65_2230" x1="19.7157" y1="14.3704" x2="-2.4777" y2="14.4506" gradientUnits="userSpaceOnUse">
<stop stop-color="#94938C"/>
<stop offset="0.2296" stop-color="#EDEBE1"/>
<stop offset="0.7988" stop-color="#EDEBE1"/>
<stop offset="1" stop-color="#94938C"/>
</linearGradient>
</defs>
</svg>
