<svg width="19" height="67" viewBox="0 0 19 67" fill="none" xmlns="http://www.w3.org/2000/svg">
<path d="M3.1416 27.4692C5.04657 27.4592 6.98102 27.2836 8.88281 27.1312C11.1861 26.9465 14.4203 27.0595 16.5236 25.9589C16.7159 25.8582 16.7794 25.5157 16.9564 25.3945C17.3588 26.7437 17.0144 28.9059 16.935 30.2874C16.7078 34.2365 16.5331 38.193 16.5712 42.1494C16.5925 44.3334 16.7141 46.5019 16.9105 48.6764C17.1818 51.6792 18.1958 54.6108 18.4689 57.6445C18.6604 59.7717 18.6281 61.9344 18.213 64.0349C18.0824 64.6954 17.8923 66.408 17.3193 66.5659C16.5635 66.7737 15.4234 65.6114 15.0437 65.0992C13.7879 63.4061 13.4658 61.1137 12.8234 59.1516C12.1048 56.9558 11.2628 54.8027 10.4031 52.6591C8.72585 48.4776 6.96197 44.3071 5.88178 39.9205C5.25072 37.3578 4.96989 34.7324 4.37739 32.1601C4.01491 30.5836 3.58711 29.0234 3.1416 27.4692Z" fill="url(#paint0_linear_65_2240)"/>
<path d="M0.948153 8.71857C0.948153 8.71857 -0.0304127 3.48871 2.25834 1.85551C4.54709 0.222306 5.52703 0.87649 5.52703 0.87649C6.47338 1.13508 7.42426 1.37734 8.37696 1.61007C9.94574 1.99296 11.6393 2.5419 13.2652 2.49971C13.591 2.49109 13.9176 2.4548 14.2415 2.48746C16.6646 2.72972 17.0579 5.31017 17.4217 7.2006C17.8886 9.62454 18.2175 12.0812 18.4116 14.5419C18.5718 16.5738 18.6494 18.6289 18.4783 20.6632C18.3545 22.1367 18.148 23.8198 17.2829 25.0683C16.0743 26.8126 13.8582 27.6052 11.8766 28.0611C9.36142 28.64 6.71836 28.7761 4.14607 28.6677C2.74741 28.6082 2.3577 25.4915 2.27967 24.5025C1.86457 19.2377 1.4236 13.9775 0.948153 8.71857Z" fill="url(#paint1_linear_65_2240)"/>
<path d="M18.036 27.3338C18.036 27.3338 18.6802 22.3093 18.2551 21.8262C18.2551 21.8262 14.8114 26.4364 10.4899 26.9776C6.16837 27.5193 3.90281 24.9683 2.24197 23.2698C2.24197 23.2698 1.71709 28.7352 3.42692 32.5342C4.06794 33.9587 4.24622 34.3426 4.48938 33.9815C4.89495 33.3799 5.25606 30.715 9.34668 30.0776C15.8916 29.0573 16.1683 31.2626 16.3044 31.6255C16.4405 31.9885 16.852 32.1863 17.2571 31.2172C17.8691 29.7532 18.036 27.3338 18.036 27.3338Z" fill="#725741"/>
<defs>
<linearGradient id="paint0_linear_65_2240" x1="7.76979" y1="45.9547" x2="16.8516" y2="45.9913" gradientUnits="userSpaceOnUse">
<stop stop-color="#BFAB8D"/>
<stop offset="0.5078" stop-color="#E7E1D2"/>
<stop offset="1" stop-color="#CCBFA6"/>
</linearGradient>
<linearGradient id="paint1_linear_65_2240" x1="-3.72332" y1="14.6878" x2="22.6043" y2="14.7938" gradientUnits="userSpaceOnUse">
<stop stop-color="#94938C"/>
<stop offset="0.2296" stop-color="#EDEBE1"/>
<stop offset="0.7988" stop-color="#EDEBE1"/>
<stop offset="1" stop-color="#94938C"/>
</linearGradient>
</defs>
</svg>
