<svg width="19" height="53" viewBox="0 0 19 53" fill="none" xmlns="http://www.w3.org/2000/svg">
<path d="M3.68066 21.627C3.68066 21.627 9.89055 47.1206 15.1205 51.3691C20.3505 55.6177 17.7355 47.1201 17.7355 47.1201C17.7355 47.1201 15.7743 31.432 15.7743 28.4904C15.7743 25.5489 16.8141 20.04 16.8141 20.04C16.8141 20.04 6.74206 22.209 3.68066 21.627Z" fill="url(#paint0_linear_65_2250)"/>
<path d="M3.35412 2.34272C3.35412 2.34272 0.0858962 3.97685 1.06627 8.5526C2.04665 13.1284 1.72001 15.7433 1.72001 15.7433C1.72001 15.7433 2.37374 23.5878 7.9298 23.9145C13.4863 24.2411 17.0812 20.9728 17.4083 19.0116C17.7354 17.0504 17.7349 11.4942 18.062 10.5134C18.3887 9.53299 19.3695 3.32266 16.1008 2.34227C12.8326 1.36188 10.8714 1.03478 10.8714 1.03478C10.8714 1.03478 7.60317 0.0548486 3.35412 2.34272Z" fill="url(#paint1_linear_65_2250)"/>
<path d="M17.0552 24.0247C17.0552 24.0247 17.6087 19.709 17.2435 19.2939C17.2435 19.2939 14.2856 23.2539 10.5733 23.719C6.86092 24.184 4.7305 21.9315 3.30372 20.4726C3.30372 20.4726 3.28648 25.1484 4.75545 28.4116C5.3062 29.6356 5.81657 30.1283 6.02571 29.818C6.37413 29.3012 6.07744 26.9295 9.59153 26.3819C15.2138 25.5055 15.4511 27.4 15.5681 27.7116C15.6852 28.0233 16.0386 28.1934 16.3865 27.3609C16.9119 26.1029 17.0552 24.0247 17.0552 24.0247Z" fill="#725741"/>
<defs>
<linearGradient id="paint0_linear_65_2250" x1="16.9403" y1="36.3001" x2="5.38366" y2="36.3419" gradientUnits="userSpaceOnUse">
<stop stop-color="#BFAB8D"/>
<stop offset="0.5078" stop-color="#E7E1D2"/>
<stop offset="1" stop-color="#CCBFA6"/>
</linearGradient>
<linearGradient id="paint1_linear_65_2250" x1="21.7374" y1="12.3353" x2="-2.42955" y2="12.4226" gradientUnits="userSpaceOnUse">
<stop stop-color="#94938C"/>
<stop offset="0.2296" stop-color="#EDEBE1"/>
<stop offset="0.4283" stop-color="#EDEBE1"/>
<stop offset="0.7988" stop-color="#EDEBE1"/>
<stop offset="1" stop-color="#94938C"/>
</linearGradient>
</defs>
</svg>
