<svg width="20" height="51" viewBox="0 0 20 51" fill="none" xmlns="http://www.w3.org/2000/svg">
<path d="M4.0332 20.7503C4.8362 26.0064 6.2521 31.2585 8.09537 36.2384C10.1215 41.7115 12.6529 47.185 17.5743 50.6147C17.6937 50.6977 17.8216 50.7839 17.9668 50.7911C18.1147 50.7984 18.2539 50.7217 18.3723 50.6328C19.0501 50.1261 19.2997 49.2011 19.2298 48.3572C19.1599 47.5134 18.8233 46.719 18.5293 45.9251C16.7355 41.0827 16.2977 35.7535 15.7864 30.652C15.4625 27.4223 14.6944 23.4636 15.4557 20.244C16.2732 16.7888 4.53995 20.1365 4.0332 20.7503Z" fill="url(#paint0_linear_65_2260)"/>
<path d="M14.1705 0.766729C13.4438 0.439138 12.6857 0.431429 11.6732 0.680071C11.3992 0.747223 11.107 0.851583 10.9582 1.09115C10.261 2.21095 15.9805 4.36116 16.6637 3.42149C17.0684 2.8625 15.5428 1.74678 15.2234 1.46955C14.8632 1.15648 14.5203 0.924626 14.1705 0.766729Z" fill="#D8D6D0"/>
<path d="M4.23534 0.953381C3.89783 1.055 3.64106 1.16388 3.5331 1.2587C2.98691 1.73868 2.4194 2.24951 2.17488 2.93409C2.07689 3.20856 2.06645 3.57649 2.31596 3.7271C2.40034 3.77792 2.50106 3.79335 2.59905 3.80151C3.7436 3.89542 5.06778 3.1514 6.03586 2.62016C6.39424 2.42372 7.93529 1.71464 7.86498 1.15708C7.75792 0.311894 5.462 0.584549 4.23534 0.953381Z" fill="#D8D6D0"/>
<path d="M2.21985 3.06093C2.21985 3.06093 -0.0679467 4.69504 1.2395 8.94409C1.89322 14.8273 3.85438 20.7104 3.85438 20.7104C3.85438 20.7104 4.5081 21.6908 9.08371 21.6908C13.6593 21.6908 14.9668 21.0371 15.6205 19.7296C16.2742 18.4221 17.9083 6.00206 17.9083 6.00206C17.9083 6.00206 17.5817 3.06047 16.2742 2.73383C14.9668 2.40719 13.6593 2.08009 13.3327 2.08009C13.0061 2.08009 10.0645 0.118882 8.75709 0.445977C7.44919 0.773071 4.18102 3.38757 2.21985 3.06093Z" fill="url(#paint1_linear_65_2260)"/>
<path d="M16.0406 22.1513C16.0406 22.1513 16.5215 17.8465 16.1745 17.4287C16.1745 17.4287 13.4307 21.3565 9.94616 21.787C6.46158 22.218 4.43914 19.9492 3.08496 18.4789C3.08496 18.4789 3.11128 23.148 4.52126 26.4203C5.04978 27.6474 5.53428 28.1442 5.72754 27.8361C6.0501 27.323 5.75022 24.9522 9.04699 24.4373C14.3226 23.613 14.5631 25.507 14.6756 25.8192C14.7881 26.1317 15.122 26.3046 15.4414 25.4762C15.9245 24.2254 16.0406 22.1513 16.0406 22.1513Z" fill="#725741"/>
<defs>
<linearGradient id="paint0_linear_65_2260" x1="7.26162" y1="34.7178" x2="17.6281" y2="34.7553" gradientUnits="userSpaceOnUse">
<stop stop-color="#BFAB8D"/>
<stop offset="0.5078" stop-color="#E7E1D2"/>
<stop offset="1" stop-color="#CCBFA6"/>
</linearGradient>
<linearGradient id="paint1_linear_65_2260" x1="-2.79813" y1="11.0074" x2="21.3335" y2="11.0945" gradientUnits="userSpaceOnUse">
<stop stop-color="#94938C"/>
<stop offset="0.2296" stop-color="#EDEBE1"/>
<stop offset="0.7988" stop-color="#EDEBE1"/>
<stop offset="1" stop-color="#94938C"/>
</linearGradient>
</defs>
</svg>
