<svg width="26" height="51" viewBox="0 0 26 51" fill="none" xmlns="http://www.w3.org/2000/svg">
<path d="M10.7301 2.20056C10.7301 2.20056 9.82409 0.146358 7.9899 0.660817C6.1557 1.17528 5.52192 5.96918 5.85401 9.50325C6.18564 13.0373 7.75762 24.2502 10.4601 24.4811C13.1627 24.712 18.105 18.3611 15.8566 14.823C13.6082 11.2853 9.88761 5.07455 10.7301 2.20056Z" fill="url(#paint0_linear_65_2187)"/>
<path d="M22.5536 32.6521C19.3548 32.4216 15.725 30.8578 12.5203 30.7313C10.5101 30.6519 8.49899 30.5189 6.48652 30.5834C5.55605 30.6129 4.17191 33.0935 3.27002 32.9787C2.68479 32.9043 3.07086 30.5008 3.09491 29.8788C3.11532 29.3494 3.16024 28.8222 3.08266 28.2946C2.80411 26.3929 1.75795 24.5873 1.32288 22.6855C0.819311 20.4857 0.479062 18.2432 0.269921 15.9967C0.048078 13.6136 -0.045381 11.1792 0.266288 8.79925C0.400574 7.77305 0.583855 6.73098 0.991248 5.7733C1.30836 5.02792 2.07733 3.56485 3.05998 3.67691C3.42064 3.71819 3.74365 3.92325 4.01358 4.16687C4.54256 4.64458 4.91093 5.28061 5.15455 5.95068C5.65676 7.333 5.64587 8.82148 5.7425 10.2696C5.84231 11.7626 6.24925 13.1454 6.58406 14.5944C7.20558 17.2869 7.93962 20.4557 9.70348 22.6628C10.1326 23.2 10.7778 23.6346 11.4623 23.5697C11.8135 23.5361 12.1415 23.3746 12.4282 23.1691C13.4612 22.4283 13.9866 21.1498 14.1658 19.8914C14.5328 17.3127 14.2565 14.4683 13.5674 11.9686C13.1631 10.5014 12.4164 9.18758 11.96 7.75309C11.4778 6.23648 10.8236 3.22777 12.9617 2.65026C13.8246 2.41707 14.7433 2.85803 15.3884 3.47683C17.7801 5.77012 19.3956 9.17942 20.7789 12.1355C21.6272 13.9479 22.4461 15.8215 22.9682 17.7587C23.2822 18.9233 23.2486 20.0837 23.2155 21.2864C23.1225 24.6481 22.9274 29.3186 22.5536 32.6521Z" fill="url(#paint1_linear_65_2187)"/>
<path d="M3.61376 34.8185C3.34156 34.9015 2.95141 35.641 2.80034 35.8538C2.20196 36.6981 1.68386 37.6068 1.29598 38.5676C0.250729 41.1567 0.402254 43.9967 2.363 46.1171C2.38614 46.1421 2.40973 46.167 2.43287 46.192C2.53857 46.3031 2.64881 46.4115 2.73501 46.5381C2.97681 46.8933 3.03443 47.3384 3.26353 47.7027C3.47993 48.047 3.79796 48.3691 4.106 48.6291C4.83141 49.2415 5.79771 49.6671 6.76266 49.5718C7.09429 49.5391 7.4105 49.4212 7.72217 49.3041C9.07546 48.796 10.5449 48.2167 11.2626 46.8729C11.1809 47.0263 11.5534 47.6501 11.6473 47.7771C11.8723 48.0829 12.1481 48.2158 12.4961 48.3501C13.6452 48.7942 14.896 49.1508 15.9975 49.7015C16.7588 49.9946 17.4011 50.2732 18.1756 50.0191C18.6265 49.8712 19.0833 49.7415 19.5293 49.5781C20.364 49.2728 21.7527 48.7384 21.7527 47.6555C21.7527 45.981 23.1482 40.958 19.7992 35.935C16.4516 30.9138 3.6242 34.8154 3.61376 34.8185Z" fill="#D8D6D0"/>
<path d="M3.59706 30.6913C3.27813 30.7884 2.82083 31.6549 2.64436 31.904C1.94344 32.893 1.3369 33.9573 0.882321 35.0823C-0.342125 38.1151 -0.164286 41.4409 2.13172 43.9243C2.15894 43.9533 2.18661 43.9828 2.21383 44.0118C2.33768 44.142 2.46652 44.2691 2.56769 44.4174C2.85123 44.8339 2.91838 45.3542 3.1865 45.7816C3.43964 46.1844 3.8121 46.5619 4.17322 46.8667C5.02294 47.584 6.15483 48.0821 7.28446 47.9709C7.6728 47.9328 8.04299 47.7945 8.40819 47.6575C9.99331 47.0627 11.7145 46.3836 12.5552 44.8098C12.4594 44.989 12.8959 45.7199 13.0057 45.8691C13.2692 46.2271 13.5927 46.3827 13.9996 46.5401C15.3457 47.0605 16.8106 47.4778 18.1008 48.1229C18.9922 48.4664 19.7444 48.7925 20.6518 48.4949C21.1798 48.3216 21.7152 48.1697 22.2373 47.9787C23.215 47.6212 24.8418 46.9951 24.8418 45.7267C24.8418 43.7655 26.4759 37.8824 22.554 31.9992C18.6334 26.1179 3.60976 30.6877 3.59706 30.6913Z" fill="url(#paint2_linear_65_2187)"/>
<path d="M23.1584 26.6701C23.4107 30.4931 22.9924 31.6209 22.7501 32.2955C22.7501 32.2955 19.956 29.5744 16.9264 29.7096C13.8968 29.8448 3.89156 29.168 2.92479 31.5696C2.92479 31.5696 3.29862 29.3943 2.83406 27.1691C1.88135 24.4925 1.28659 22.6824 1.33695 22.6325C1.63864 22.3331 12.5557 25.6117 16.0127 25.6435C20.622 25.6856 22.9389 22.3993 23.1584 22.3603C23.378 22.3213 22.9062 22.8471 23.1584 26.6701Z" fill="#725741"/>
<defs>
<linearGradient id="paint0_linear_65_2187" x1="14.2396" y1="23.4547" x2="-4.32225" y2="-21.9109" gradientUnits="userSpaceOnUse">
<stop offset="0.1599" stop-color="#BFAB8D"/>
<stop offset="0.5078" stop-color="#E7E1D2"/>
<stop offset="0.7297" stop-color="#CCBFA6"/>
</linearGradient>
<linearGradient id="paint1_linear_65_2187" x1="1.36631" y1="17.4664" x2="22.2768" y2="18.4118" gradientUnits="userSpaceOnUse">
<stop offset="0.1599" stop-color="#BFAB8D"/>
<stop offset="0.5078" stop-color="#E7E1D2"/>
<stop offset="0.7297" stop-color="#CCBFA6"/>
</linearGradient>
<linearGradient id="paint2_linear_65_2187" x1="-5.65896" y1="41.1307" x2="29.1636" y2="37.4738" gradientUnits="userSpaceOnUse">
<stop stop-color="#94938C"/>
<stop offset="0.2296" stop-color="#EDEBE1"/>
<stop offset="0.7988" stop-color="#EDEBE1"/>
<stop offset="1" stop-color="#94938C"/>
</linearGradient>
</defs>
</svg>
