<svg width="29" height="50" viewBox="0 0 29 50" fill="none" xmlns="http://www.w3.org/2000/svg">
<path d="M9.30227 0.425503C7.98935 0.514882 6.97585 0.900075 5.89794 1.64051C5.60623 1.84105 5.32994 2.08287 5.38756 2.36961C5.65613 3.70894 15.5316 2.63276 15.4368 1.45813C15.3778 0.760334 12.1663 0.573411 11.4472 0.495828C10.6361 0.408264 9.93423 0.382855 9.30227 0.425503Z" fill="#D8D6D0"/>
<path d="M19.4669 45.7936C20.1424 47.9576 18.5473 48.8404 17.0657 47.5584C14.2012 45.0795 12.5435 41.1031 11.0855 37.4606C10.4104 35.7739 7.51197 29.8426 9.03719 28.409C10.5506 26.9863 16.4832 29.6952 16.7871 33.5014C16.9518 35.5661 17.0212 37.6366 17.3764 39.7022C17.7625 41.9474 18.8045 43.6736 19.4669 45.7936Z" fill="url(#paint0_linear_65_2274)"/>
<path d="M2.6923 20.5199C2.88011 21.2943 3.04661 22.0824 3.08336 22.2348C3.39865 23.5427 3.67222 24.8611 3.89179 26.1885C4.07099 27.2732 4.21434 28.3638 4.32095 29.4585C4.42439 30.5192 4.33411 31.6869 4.53644 32.7267C4.7356 33.7515 5.10079 34.8267 5.44602 35.8166C6.48263 38.7894 8.05275 41.5559 9.9173 44.0846C10.8527 45.3531 11.8644 46.5648 12.9323 47.7244C13.5883 48.4366 14.9829 50.5452 16.142 49.6692C16.577 49.3403 16.7517 48.7537 16.7235 48.2089C16.6954 47.664 16.4958 47.145 16.3066 46.6333C14.8495 42.6851 13.464 37.7964 14.2833 33.5605C14.3686 33.1191 14.502 32.6632 14.8186 32.3442C15.2337 31.9264 15.8983 31.8325 16.4663 31.989C17.0343 32.1455 17.5188 32.5171 17.9416 32.9272C19.3929 34.3358 20.4241 36.3161 21.311 38.1171C21.9824 39.4808 22.4755 40.9339 22.759 42.4278C23.0303 43.8578 22.7999 45.5572 23.3742 46.8991C23.6959 47.6509 24.4131 48.296 25.2306 48.2724C25.8671 48.2542 26.4305 47.8446 26.8502 47.3655C28.3962 45.6003 28.6925 42.7876 28.7828 40.537C28.8962 37.7006 28.4924 34.8743 28.0528 32.0802C27.4544 28.2762 26.6855 24.4981 25.8267 20.7449C25.7936 20.5993 25.3268 18.2317 25.232 18.2344C25.232 18.2344 2.35751 18.8691 2.14746 18.875C2.26451 18.8722 2.49042 19.6884 2.6923 20.5199Z" fill="url(#paint1_linear_65_2274)"/>
<path d="M20.5918 0.249732C19.4059 0.18213 18.4405 0.441195 17.3613 1.04326C17.0691 1.20614 16.7842 1.41212 16.7901 1.70113C16.8169 3.05317 25.8007 3.16433 25.9028 1.99513C25.9609 1.30006 23.1246 0.734737 22.4953 0.572764C21.7849 0.390829 21.163 0.282399 20.5918 0.249732Z" fill="#D8D6D0"/>
<path d="M4.64771 1.29959C3.69455 1.39486 2.79673 1.76187 2.02323 2.56848C1.02652 3.60782 0.527487 5.04956 0.404089 6.48404C0.1396 9.56169 0.666308 13.2218 1.43528 16.2033C1.67935 17.1496 1.70384 19.1385 2.35349 19.8689C4.37504 22.1413 8.81691 21.0357 11.5049 20.8493C14.5835 20.6356 17.898 20.5335 20.6563 19.8689C22.4823 19.7773 25.8354 20.1815 26.3898 17.7666C27.0249 14.9988 27.416 12.1684 27.5466 9.33168C27.6446 7.21217 27.954 1.9751 24.9072 1.56635C24.4612 1.50647 23.7086 2.00912 23.2617 2.11074C22.3294 2.32215 21.4198 2.29356 20.4943 2.04768C19.3561 1.74554 18.299 1.20115 17.208 0.75792C16.9707 0.661744 16.7239 0.568742 16.468 0.575547C15.8851 0.591425 15.4568 1.09635 14.9904 1.44658C13.0274 2.92189 9.50876 2.15656 7.34158 1.58994C6.43153 1.35177 5.51648 1.21294 4.64771 1.29959Z" fill="url(#paint2_linear_65_2274)"/>
<path d="M14.195 20.1483C8.03542 20.9822 4.607 20.6732 2.39941 19.3318C2.39941 19.3318 4.06667 28.241 4.44095 27.9057C5.06521 27.3473 6.70931 24.8568 12.5499 23.9586C21.8947 22.5214 25.6539 24.928 26.3081 24.0497C27.0231 23.0894 26.754 19.5178 26.338 17.47C26.1792 16.6875 20.354 19.3145 14.195 20.1483Z" fill="#725741"/>
<defs>
<linearGradient id="paint0_linear_65_2274" x1="11.7036" y1="27.5007" x2="19.4653" y2="71.7929" gradientUnits="userSpaceOnUse">
<stop offset="0.1599" stop-color="#BFAB8D"/>
<stop offset="0.5078" stop-color="#E7E1D2"/>
<stop offset="0.7297" stop-color="#CCBFA6"/>
</linearGradient>
<linearGradient id="paint1_linear_65_2274" x1="4.7341" y1="34.0005" x2="27.2608" y2="34.0819" gradientUnits="userSpaceOnUse">
<stop stop-color="#BFAB8D"/>
<stop offset="0.5078" stop-color="#E7E1D2"/>
<stop offset="1" stop-color="#CCBFA6"/>
</linearGradient>
<linearGradient id="paint2_linear_65_2274" x1="-5.37125" y1="10.8677" x2="33.4744" y2="11.0081" gradientUnits="userSpaceOnUse">
<stop stop-color="#94938C"/>
<stop offset="0.2296" stop-color="#EDEBE1"/>
<stop offset="0.7988" stop-color="#EDEBE1"/>
<stop offset="1" stop-color="#94938C"/>
</linearGradient>
</defs>
</svg>
