<svg width="27" height="49" viewBox="0 0 27 49" fill="none" xmlns="http://www.w3.org/2000/svg">
<path d="M15.8848 42.4289C16.0867 44.3861 14.8169 44.8311 13.916 43.4674C12.1735 40.8311 11.5011 37.1569 10.9295 33.8029C10.6646 32.25 9.35437 26.6889 10.6464 25.7648C11.9285 24.848 15.8581 28.2573 15.5745 31.5319C15.4208 33.3084 15.1967 35.0718 15.1803 36.8851C15.1622 38.8554 15.6866 40.5113 15.8848 42.4289Z" fill="url(#paint0_linear_65_2290)"/>
<path d="M4.25586 20.1667C4.94137 22.1252 5.49393 24.1694 5.81287 26.22C6.02746 27.6 5.99571 28.8268 5.78611 30.1927C5.43314 32.4883 5.40822 34.8841 5.50712 37.1997C5.66137 40.8113 7.39395 43.5315 8.77905 46.7802C9.28808 47.9738 10.4654 48.6003 11.5325 47.502C12.8858 46.1092 12.521 43.1817 12.575 41.4151C12.6485 38.9971 12.6975 36.5622 13.1811 34.1828C13.3894 33.1584 13.682 32.1372 14.2169 31.2389C14.7486 30.3456 15.7313 29.9101 16.6727 30.5534C17.9262 31.4099 18.2089 33.2863 18.6417 34.6219C19.0477 35.8745 19.4157 37.1393 19.7709 38.4073C20.2727 40.1984 20.7368 41.9999 21.215 43.7969C21.4132 44.5409 22.0602 46.2884 23.154 45.529C23.5233 45.2722 23.7057 44.8276 23.8595 44.4053C24.3644 43.0161 24.7678 41.593 25.1702 40.1712C25.7096 38.2662 26.206 36.3667 26.3221 34.3828C26.4804 31.678 25.4147 29.0055 24.8939 26.3874C24.3404 23.605 23.9947 20.7814 23.8622 17.9478C23.8536 17.7613 23.8391 17.5586 23.7134 17.4207C23.5433 17.2347 23.2516 17.2492 23.0016 17.2778C19.9297 17.6298 16.8514 17.9161 13.7827 18.2999C11.7062 18.558 9.627 18.8311 7.56863 19.2104C6.66127 19.3773 4.95907 19.464 4.25586 20.1667Z" fill="url(#paint1_linear_65_2290)"/>
<path d="M1.85616 15.9219C1.75363 14.6951 1.78175 13.4521 1.54811 12.2403C1.18337 10.349 0.228399 8.7013 0.363593 6.69745C0.689326 1.87316 7.4313 1.50024 10.8211 2.83629C12.2307 3.39158 12.8091 2.86715 13.994 2.1186C15.2779 1.30744 16.7928 0.882812 18.3103 0.882812C20.0456 0.882812 21.9605 1.3764 23.4426 2.28827C25.6352 3.63747 25.6334 5.85091 25.784 8.17414C25.9505 10.7437 25.8915 13.3909 25.0418 15.8479C24.7818 16.6001 24.4375 17.3391 23.8958 17.9221C23.1255 18.7509 22.1451 18.8602 21.1049 19.0998C19.6849 19.4269 18.249 19.7036 16.8177 19.9745C14.0108 20.5057 11.1777 20.938 8.32182 21.0814C6.96762 21.1495 5.56535 21.012 4.36267 20.3855C2.62104 19.4786 2.01086 17.7728 1.85616 15.9219Z" fill="url(#paint2_linear_65_2290)"/>
<path d="M13.7825 20.4277C8.18116 21.1777 5.12395 20.6968 3.09473 19.3285C3.09473 19.3285 5.52544 27.2341 5.86206 26.9048C6.42323 26.3558 7.02478 25.0266 12.3344 24.2086C20.8301 22.8993 24.0588 25.1418 24.6436 24.2735C25.2824 23.3249 24.6872 19.7445 24.2807 17.6953C23.5094 18.149 19.3834 19.6778 13.7825 20.4277Z" fill="#725741"/>
<defs>
<linearGradient id="paint0_linear_65_2290" x1="12.6932" y1="25.4979" x2="10.5835" y2="64.3032" gradientUnits="userSpaceOnUse">
<stop offset="0.1599" stop-color="#BFAB8D"/>
<stop offset="0.5078" stop-color="#E7E1D2"/>
<stop offset="0.7297" stop-color="#CCBFA6"/>
</linearGradient>
<linearGradient id="paint1_linear_65_2290" x1="6.78281" y1="34.0582" x2="24.2775" y2="30.6538" gradientUnits="userSpaceOnUse">
<stop stop-color="#BFAB8D"/>
<stop offset="0.5078" stop-color="#E7E1D2"/>
<stop offset="1" stop-color="#CCBFA6"/>
</linearGradient>
<linearGradient id="paint2_linear_65_2290" x1="-3.72187" y1="14.0057" x2="29.5766" y2="7.5261" gradientUnits="userSpaceOnUse">
<stop stop-color="#94938C"/>
<stop offset="0.2114" stop-color="#EDEBE1"/>
<stop offset="0.847" stop-color="#EDEBE1"/>
<stop offset="1" stop-color="#94938C"/>
</linearGradient>
</defs>
</svg>
