<svg width="25" height="40" viewBox="0 0 25 40" fill="none" xmlns="http://www.w3.org/2000/svg">
<path d="M15.6321 36.9255C15.927 38.7788 14.7411 39.2696 13.8111 38.018C12.0131 35.5986 11.1802 32.1344 10.4597 28.97C10.1263 27.5047 8.58647 22.2771 9.76876 21.3289C10.942 20.3885 14.8636 23.4294 14.7647 26.5633C14.7111 28.2632 14.5905 29.9545 14.6699 31.6825C14.7561 33.5602 15.3427 35.11 15.6321 36.9255Z" fill="url(#paint0_linear_65_2308)"/>
<path d="M3.16211 13.6169C3.16211 13.6169 4.46957 17.2122 4.46957 21.1342C4.46957 25.0561 4.14296 29.9589 6.43077 33.5542C8.71858 37.1495 9.3723 38.7836 9.3723 38.7836C9.3723 38.7836 11.3335 41.0714 12.3138 38.4569C12.3138 38.4569 10.026 30.6126 11.3335 26.6907C12.6409 22.7687 13.9484 24.0757 14.275 24.7295C14.6021 25.3832 19.1777 32.9004 19.8314 34.8616C20.4852 36.8228 21.4655 38.7836 22.1192 38.7836C22.773 38.7836 23.7534 37.1495 24.4071 34.2079C25.0608 31.2663 24.4071 27.9981 23.0996 25.7098C21.7922 23.422 20.4852 13.2898 20.4852 11.6557C20.4852 10.0216 4.7962 12.9632 3.16211 13.6169Z" fill="url(#paint1_linear_65_2308)"/>
<path d="M10.7131 3.34817C10.4028 3.27468 10.0816 3.07189 9.70871 2.82646C8.69612 2.15912 7.64453 1.51537 6.47634 1.191C5.30769 0.866628 3.99296 0.894753 2.95316 1.51854C2.22185 1.95723 1.68014 2.65225 1.23419 3.37901C0.53645 4.51635 0.0215744 5.83787 0.181719 7.16256C0.364092 8.67326 0.963353 10.1608 1.57807 11.5409C1.95098 12.3779 2.26174 13.3328 2.93362 13.9879C3.71756 14.7519 5.03548 14.8594 6.06848 15.0041C8.29054 15.3149 10.5216 15.0364 12.6911 14.5214C14.8478 14.0093 17.0767 13.4413 19.1735 12.7272C19.5505 12.5988 19.927 12.4505 20.2428 12.2082C21.1279 11.5282 21.3098 9.98254 21.5226 8.96271C21.8456 7.41254 21.6483 5.80974 21.014 4.36482C20.1974 2.50435 18.6359 0.86209 16.5627 0.543164C15.0787 0.314971 13.7613 0.619381 12.7628 1.76942C12.432 2.1505 12.1689 2.59327 11.8114 2.95121C11.4177 3.34545 11.0729 3.433 10.7131 3.34817Z" fill="url(#paint2_linear_65_2308)"/>
<path d="M11.5089 13.9381C6.51308 14.5968 3.77154 14.0683 1.93555 12.671C1.93555 12.671 4.23475 20.5964 4.53054 20.273C5.02368 19.7345 5.53997 18.4179 10.2745 17.6866C17.8494 16.5162 20.7723 18.8045 21.2809 17.948C21.8371 17.0116 21.2473 13.4304 20.8513 11.3799C20.1694 11.8204 16.5047 13.2798 11.5089 13.9381Z" fill="#725741"/>
<defs>
<linearGradient id="paint0_linear_65_2308" x1="11.7002" y1="20.963" x2="11.7243" y2="58.0323" gradientUnits="userSpaceOnUse">
<stop offset="0.1599" stop-color="#BFAB8D"/>
<stop offset="0.5078" stop-color="#E7E1D2"/>
<stop offset="0.7297" stop-color="#CCBFA6"/>
</linearGradient>
<linearGradient id="paint1_linear_65_2308" x1="5.05657" y1="25.4039" x2="21.8145" y2="25.4644" gradientUnits="userSpaceOnUse">
<stop stop-color="#BFAB8D"/>
<stop offset="0.5078" stop-color="#E7E1D2"/>
<stop offset="1" stop-color="#CCBFA6"/>
</linearGradient>
<linearGradient id="paint2_linear_65_2308" x1="-6.19847" y1="7.73872" x2="27.8412" y2="7.86169" gradientUnits="userSpaceOnUse">
<stop stop-color="#94938C"/>
<stop offset="0.2614" stop-color="#EDEBE1"/>
<stop offset="0.7687" stop-color="#EDEBE1"/>
<stop offset="1" stop-color="#94938C"/>
</linearGradient>
</defs>
</svg>
