<svg width="19" height="55" viewBox="0 0 19 55" fill="none" xmlns="http://www.w3.org/2000/svg">
<path d="M9.27145 54.1324C9.27145 54.1324 3.97254 55.2279 2.09478 52.4759C0.216562 49.7234 8.63994 52.4722 9.27145 54.1324Z" fill="#D8D6D0"/>
<path d="M10.0488 54.3689C10.0488 54.3689 15.6922 54.7504 17.0963 51.0911C18.5004 47.4318 10.3814 52.2507 10.0488 54.3689Z" fill="#D8D6D0"/>
<path d="M12.3025 33.8376C12.3855 33.8785 12.4645 33.9248 12.5389 33.9769C13.9765 34.9813 15.1883 36.6086 16.1024 38.0808C17.4915 40.3174 18.4828 42.8756 18.216 45.5449C18.0336 47.3696 17.829 49.4678 16.9172 51.1064C16.3846 52.0637 15.1874 52.5024 14.2124 52.8417C13.3772 53.1325 12.5343 53.4056 11.7155 53.7409C10.9592 54.0503 10.217 54.5779 9.36506 54.5098C8.3856 54.4313 7.70147 53.6637 6.91799 53.1656C5.68857 52.3844 4.21689 51.9838 2.76063 52.0541C2.50476 52.0664 2.24254 52.0922 1.99711 52.0174C1.63917 51.9085 1.37742 51.6046 1.16646 51.2961C0.205606 49.8924 0.231009 48.5323 0.222843 46.9C0.214224 45.2414 0.246433 43.5729 0.562636 41.9397C1.12563 39.0294 3.04826 36.6218 4.05902 33.8749C4.11709 33.7165 4.17515 33.5546 4.28176 33.4239C4.46414 33.2003 4.76264 33.1036 5.05027 33.0805C5.58922 33.0369 6.13226 33.1204 6.66622 33.1776C7.67879 33.2864 8.66732 33.3994 9.68534 33.4693C10.4929 33.5251 11.5513 33.4661 12.3025 33.8376Z" fill="url(#paint0_linear_65_2173)"/>
<path d="M14.4451 35.7504C14.4088 35.7798 14.3653 35.803 14.3122 35.8175C14.0455 35.8924 13.2234 35.49 12.9326 35.4137C11.9686 35.1615 10.9937 34.9505 10.0129 34.775C8.97354 34.589 7.92376 34.4125 6.86537 34.4039C6.3051 34.3993 5.74166 34.4384 5.19318 34.5572C4.70595 34.6629 4.18105 34.9968 3.71968 35.0386C3.38352 33.7279 3.72467 32.2036 3.8027 30.8726C3.88935 29.3927 4.02545 27.916 4.21009 26.4452C4.55623 23.6851 5.24535 21.028 5.74755 18.3029C6.2366 15.6521 6.3727 12.8498 6.31418 10.1505C6.2865 8.88113 6.20983 7.60951 6.06421 6.34832C5.94036 5.27177 5.63005 4.30818 5.74029 3.19262C5.85234 2.05846 6.38449 0.340887 7.88202 0.80544C9.00937 1.15522 9.71119 2.39508 10.2801 3.33779C11.3639 5.13294 12.1528 7.0887 12.8796 9.05534C13.6054 11.0193 14.2746 13.0172 14.6534 15.0805C14.9841 16.8802 14.9437 18.6417 14.9124 20.4587C14.8634 23.3431 14.7945 26.227 14.7232 29.111C14.6774 30.9719 14.7836 32.9131 14.637 34.8004C14.6107 35.1533 14.6624 35.5725 14.4451 35.7504Z" fill="url(#paint1_linear_65_2173)"/>
<path d="M14.8722 33.4619C15.1245 37.2849 17.3384 39.3336 17.0961 40.0082C17.0961 40.0082 12.363 35.3468 9.33337 35.482C6.30377 35.6172 2.09372 37.8334 1.12695 40.235C1.12695 40.235 3.34313 33.4864 3.89751 29.9451C4.09304 28.6953 4.18423 27.4699 4.28495 27.3701C4.58664 27.0707 4.96318 31.3841 8.41968 31.4159C13.029 31.4581 14.3618 29.1349 14.62 28.1264C14.9389 24.9753 14.62 29.6384 14.8722 33.4619Z" fill="#725741"/>
<defs>
<linearGradient id="paint0_linear_65_2173" x1="-5.72675" y1="44.1971" x2="24.5093" y2="43.2658" gradientUnits="userSpaceOnUse">
<stop stop-color="#94938C"/>
<stop offset="0.2666" stop-color="#EDEBE1"/>
<stop offset="0.7117" stop-color="#EDEBE1"/>
<stop offset="1" stop-color="#94938C"/>
</linearGradient>
<linearGradient id="paint1_linear_65_2173" x1="0.810398" y1="19.3259" x2="15.1697" y2="17.818" gradientUnits="userSpaceOnUse">
<stop stop-color="#BFAB8D"/>
<stop offset="0.5078" stop-color="#E7E1D2"/>
<stop offset="1" stop-color="#CCBFA6"/>
</linearGradient>
</defs>
</svg>
