<svg width="19" height="58" viewBox="0 0 19 58" fill="none" xmlns="http://www.w3.org/2000/svg">
<path d="M9.34686 56.2833C9.34686 56.2833 4.00078 57.1186 2.25959 54.2772C0.518844 51.4359 8.79746 54.5939 9.34686 56.2833Z" fill="#D8D6D0"/>
<path d="M3.98145 38.3624C3.98145 38.3624 4.30809 27.2498 5.28892 24.3083C6.26975 21.3667 7.25013 11.5616 6.92303 8.94661C6.59639 6.33166 6.5964 2.4097 6.5964 2.4097C6.5964 2.4097 6.26975 -0.531882 9.21134 1.75597C12.1529 4.04382 15.7482 15.1564 15.4212 19.7321C15.0941 24.3078 14.9911 38.0966 15.0428 38.0662C15.0941 38.0358 3.98145 38.3624 3.98145 38.3624Z" fill="url(#paint0_linear_65_2160)"/>
<path d="M14.7668 37.0551C14.7668 37.0551 22.284 48.1678 16.728 54.0509C16.0493 54.7695 14.9818 55.2749 14.1548 55.8007C13.301 56.3438 12.3901 57.0978 11.3494 57.2153C10.1558 57.3505 9.28203 56.1015 8.10886 55.8579C6.24386 55.4705 4.41878 55.7771 2.82597 54.5051C1.5108 53.4548 0.713262 51.8175 0.442426 50.178C0.104901 48.1324 0.45422 46.0537 0.861609 44.0453C1.03536 43.1892 1.33115 42.3749 1.67729 41.5728C2.04612 40.7181 2.7112 39.8838 3.00063 39.0154C3.00063 39.0164 5.61555 31.172 14.7668 37.0551Z" fill="url(#paint1_linear_65_2160)"/>
<path d="M15.2916 34.0401C15.5438 37.8631 16.5269 40.0176 16.2846 40.6922C16.2846 40.6922 12.7824 35.9246 9.75286 36.0598C6.72332 36.195 2.77241 38.8222 1.80566 41.2244C1.80566 41.2244 1.87962 40.6078 2.10735 39.8098C2.66036 37.8727 3.76275 34.0641 4.31712 30.5232C4.51265 29.2734 4.60384 28.048 4.70455 27.9482C5.00623 27.6488 5.38277 31.9623 8.83919 31.994C13.4484 32.0362 14.7812 29.713 15.0393 28.7045C15.3583 25.5533 15.0393 30.217 15.2916 34.0401Z" fill="#725741"/>
<defs>
<linearGradient id="paint0_linear_65_2160" x1="4.88116" y1="19.6712" x2="17.7738" y2="19.2741" gradientUnits="userSpaceOnUse">
<stop stop-color="#BFAB8D"/>
<stop offset="0.5078" stop-color="#E7E1D2"/>
<stop offset="1" stop-color="#CCBFA6"/>
</linearGradient>
<linearGradient id="paint1_linear_65_2160" x1="-3.26931" y1="46.4516" x2="23.4567" y2="45.6283" gradientUnits="userSpaceOnUse">
<stop stop-color="#94938C"/>
<stop offset="0.0311" stop-color="#A6A59D"/>
<stop offset="0.0939" stop-color="#C5C3BB"/>
<stop offset="0.1552" stop-color="#DBD9D0"/>
<stop offset="0.2138" stop-color="#E8E7DD"/>
<stop offset="0.2666" stop-color="#EDEBE1"/>
<stop offset="0.7117" stop-color="#EDEBE1"/>
<stop offset="0.7637" stop-color="#E7E5DB"/>
<stop offset="0.835" stop-color="#D5D3CA"/>
<stop offset="0.9175" stop-color="#B8B7AF"/>
<stop offset="1" stop-color="#94938C"/>
</linearGradient>
</defs>
</svg>
