<svg width="21" height="70" viewBox="0 0 21 70" fill="none" xmlns="http://www.w3.org/2000/svg">
<path d="M17.0299 45.479C17.0299 45.479 4.9483 42.4507 3.94434 44.1774L8.82353 9.62468C8.82353 9.62468 8.67201 0.744141 9.97947 0.744141C11.2869 0.744141 12.5944 4.6661 12.5944 4.6661C12.5944 4.6661 16.7386 37.2091 17.0299 45.479Z" fill="url(#paint0_linear_65_2026)"/>
<path d="M14.706 41.9822C14.7064 41.9831 21.8966 51.4611 20.5891 59.305C20.1672 61.836 19.3035 64.4814 17.7778 66.5687C17.0338 67.5867 16.067 68.5081 14.848 68.9119C13.2357 69.4459 11.1665 69.0267 9.55007 68.666C8.75434 68.4886 7.97265 68.2441 7.23136 67.9029C2.04866 65.5194 0.679497 59.374 1.09642 54.1659C1.38949 50.5075 2.50008 46.9585 3.94364 43.6058C4.88001 41.431 7.06124 40.8612 9.23839 40.5531C10.877 40.3213 13.5918 40.5132 14.706 41.9822Z" fill="url(#paint1_linear_65_2026)"/>
<path d="M14.6621 42.07C14.6625 42.0709 21.8527 51.549 20.5452 59.3929C20.1233 61.9239 19.2595 64.5693 17.7338 66.6566C16.9898 67.6746 16.0231 68.596 14.8041 68.9998C13.1917 69.5337 11.1225 69.1146 9.50613 68.7539C8.7104 68.5765 7.92871 68.332 7.18742 67.9908C2.00472 65.6072 0.635552 59.4619 1.05247 54.2537C1.34554 50.5954 2.45613 47.0463 3.8997 43.6937C4.83607 41.5188 7.0173 40.949 9.19445 40.641C10.8331 40.4091 13.5483 40.6015 14.6621 42.07Z" fill="url(#paint2_linear_65_2026)"/>
<path d="M16.8043 40.3018C17.0765 44.4302 18.1386 46.7566 17.8768 47.4847C17.8768 47.4847 14.095 42.3369 10.8237 42.4826C7.5523 42.6287 3.28607 45.4655 2.24219 48.0591C2.24219 48.0591 2.32202 47.3936 2.5679 46.5316C3.16538 44.4397 4.3558 40.3272 4.95418 36.5036C5.16559 35.154 5.26359 33.8306 5.37247 33.7231C5.6982 33.4001 6.10467 38.0575 9.83742 38.0915C14.8141 38.1369 15.398 36.055 15.6774 34.9661C16.0208 31.5645 16.5321 36.1734 16.8043 40.3018Z" fill="#725741"/>
<defs>
<linearGradient id="paint0_linear_65_2026" x1="5.60502" y1="23.355" x2="15.2097" y2="23.0591" gradientUnits="userSpaceOnUse">
<stop stop-color="#BFAB8D"/>
<stop offset="0.5078" stop-color="#E7E1D2"/>
<stop offset="1" stop-color="#CCBFA6"/>
</linearGradient>
<linearGradient id="paint1_linear_65_2026" x1="-4.48224" y1="54.5275" x2="27.3223" y2="55.096" gradientUnits="userSpaceOnUse">
<stop stop-color="#94938C"/>
<stop offset="0.2666" stop-color="#EDEBE1"/>
<stop offset="0.7117" stop-color="#EDEBE1"/>
<stop offset="1" stop-color="#94938C"/>
</linearGradient>
<linearGradient id="paint2_linear_65_2026" x1="-5.2968" y1="54.6018" x2="27.6559" y2="55.1908" gradientUnits="userSpaceOnUse">
<stop stop-color="#94938C"/>
<stop offset="0.0617" stop-color="#A4A29B"/>
<stop offset="0.1809" stop-color="#CCCAC2"/>
<stop offset="0.2666" stop-color="#EDEBE1"/>
<stop offset="0.7117" stop-color="#EDEBE1"/>
<stop offset="0.7719" stop-color="#E0DED5"/>
<stop offset="0.883" stop-color="#BEBDB4"/>
<stop offset="1" stop-color="#94938C"/>
</linearGradient>
</defs>
</svg>
