<svg width="19" height="61" viewBox="0 0 19 61" fill="none" xmlns="http://www.w3.org/2000/svg">
<path d="M13.3063 34.7535C13.3063 34.7535 16.5745 36.061 17.5554 43.5782C17.5554 43.5782 18.5357 51.4225 18.8628 53.7104C19.1895 55.9982 19.1895 58.9398 15.5946 59.9201C11.9993 60.9005 8.73107 60.2468 6.76987 59.5935C4.80866 58.9398 1.86708 56.9786 1.21335 54.6907C0.55961 52.4029 1.21336 41.2904 2.19374 39.3292C3.17411 37.368 5.46195 32.1386 13.3063 34.7535Z" fill="url(#paint0_linear_65_2140)"/>
<path d="M10.0381 3.70337C10.0381 3.70337 17.2125 19.3885 14.2791 35.8956C14.2791 35.8956 3.87677 34.6625 3.3623 37.4862C4.82132 30.619 5.52226 23.3921 5.23508 16.382C5.11894 13.538 4.91796 10.698 4.83812 7.85262C4.7864 5.99984 4.46429 3.88302 5.25958 2.15727C5.59349 1.43186 6.14561 0.365747 7.05159 0.281365C8.58909 0.137098 9.57718 2.64361 10.0381 3.70337Z" fill="url(#paint1_linear_65_2140)"/>
<path d="M15.4634 33.9152C15.824 36.0497 17.1677 40.1757 16.9128 40.9039C16.9128 40.9039 13.2259 35.7562 10.0363 35.9018C6.84659 36.0479 2.68747 38.7639 1.66992 41.3575C1.66992 41.3575 1.7475 40.8127 1.98748 39.9512C2.56998 37.8593 3.73044 33.7469 4.31385 29.9234C4.51981 28.5738 4.78473 27.5381 4.89088 27.4301C5.20844 27.1071 5.43528 31.4772 9.07451 31.5112C13.9268 31.5566 14.5991 29.3808 14.8713 28.292C15.207 24.89 15.1027 31.7807 15.4634 33.9152Z" fill="#725741"/>
<defs>
<linearGradient id="paint0_linear_65_2140" x1="23.4717" y1="47.8775" x2="-2.53883" y2="46.5744" gradientUnits="userSpaceOnUse">
<stop stop-color="#94938C"/>
<stop offset="0.1599" stop-color="#D1CFC6"/>
<stop offset="0.2296" stop-color="#EDEBE1"/>
<stop offset="0.7988" stop-color="#EDEBE1"/>
<stop offset="0.9762" stop-color="#9F9E96"/>
<stop offset="1" stop-color="#94938C"/>
</linearGradient>
<linearGradient id="paint1_linear_65_2140" x1="5.99142" y1="18.8935" x2="14.9724" y2="19.0541" gradientUnits="userSpaceOnUse">
<stop stop-color="#BFAB8D"/>
<stop offset="0.5078" stop-color="#E7E1D2"/>
<stop offset="1" stop-color="#CCBFA6"/>
</linearGradient>
</defs>
</svg>
