<svg width="26" height="74" viewBox="0 0 26 74" fill="none" xmlns="http://www.w3.org/2000/svg">
<path d="M13.0044 0.812435C14.5573 2.33811 15.3312 5.59181 16.1129 7.57751C18.5028 13.6494 20.3193 19.9553 21.3718 26.3987C21.8958 29.6057 22.2306 32.8444 22.3581 36.0918C22.4225 37.725 22.4348 39.36 22.3935 40.9941C22.3599 42.3315 22.5804 44.2764 22.0247 45.4895C21.3405 44.7164 20.8533 43.7869 20.1292 43.0433C18.359 41.225 16.0702 39.9248 13.4857 39.9234C12.3946 39.923 11.3226 40.1444 10.3032 40.5168C9.88946 40.6679 9.48479 40.8435 9.09055 41.0395C7.9405 41.6111 6.55636 43.3364 5.33236 43.4294C5.15361 41.0372 5.75879 38.3524 5.98608 35.9534C5.98608 29.8634 7.18923 23.4318 8.10065 17.423C8.37466 15.6156 8.78705 13.8322 8.74894 11.9994C8.70947 10.1072 8.49715 8.21717 8.62554 6.32357C8.74077 4.62822 8.95308 0.533885 11.2881 0.273934C11.7472 0.22267 12.1991 0.392797 12.6296 0.5602C12.7675 0.614186 12.8914 0.701741 13.0044 0.812435Z" fill="url(#paint0_linear_65_2125)"/>
<path d="M25.2881 69.4572C25.2881 69.4572 27.5759 42.6564 15.4831 38.734C15.4831 38.734 1.75562 36.4462 0.448617 60.3054C0.411416 60.9859 0.30571 61.6627 0.276676 62.346C0.21407 63.8367 0.268055 65.3433 0.525283 66.815C0.795667 68.3607 1.30106 69.958 2.35175 71.1589C2.86121 71.7409 3.49678 72.2027 4.21811 72.4858C4.84326 72.7313 5.53148 72.8234 6.18748 72.9581C6.995 73.1241 7.80434 73.2802 8.61821 73.4108C9.05736 73.4812 9.49832 73.5447 9.93973 73.5978C11.5625 73.7933 13.1984 73.855 14.832 73.9167C17.4855 74.0169 20.2356 74.149 22.7145 73.0139C24.1812 72.3429 25.2881 71.1384 25.2881 69.4572Z" fill="url(#paint1_linear_65_2125)"/>
<path d="M5.83274 36.7631C5.83274 36.7631 4.83466 42.9766 5.21393 43.7047C5.21393 43.7047 9.15949 38.6041 13.9008 38.7497C18.6425 38.8958 20.6681 42.7443 22.1811 45.3379C22.1811 45.3379 23.6328 38.1699 22.4079 32.7712C21.183 27.3726 22.544 34.3137 15.3307 34.3591C8.1174 34.4044 8.07203 33.2249 6.66566 31.2288C6.16663 27.8262 5.83274 36.7631 5.83274 36.7631Z" fill="#725741"/>
<defs>
<linearGradient id="paint0_linear_65_2125" x1="18.6907" y1="22.8424" x2="5.20953" y2="23.0834" gradientUnits="userSpaceOnUse">
<stop stop-color="#BFAB8D"/>
<stop offset="0.5078" stop-color="#E7E1D2"/>
<stop offset="1" stop-color="#CCBFA6"/>
</linearGradient>
<linearGradient id="paint1_linear_65_2125" x1="30.3631" y1="56.3205" x2="-4.65808" y2="56.3383" gradientUnits="userSpaceOnUse">
<stop stop-color="#94938C"/>
<stop offset="0.2296" stop-color="#EDEBE1"/>
<stop offset="0.7876" stop-color="#EDEBE1"/>
<stop offset="1" stop-color="#94938C"/>
</linearGradient>
</defs>
</svg>
