<svg width="27" height="75" viewBox="0 0 27 75" fill="none" xmlns="http://www.w3.org/2000/svg">
<path d="M13.3857 0.903256C11.8328 2.42893 11.0589 5.68263 10.2772 7.66833C7.88728 13.7402 6.07079 20.0461 5.01828 26.4896C4.49429 29.6965 4.15947 32.9353 4.03199 36.1826C3.96757 37.8158 3.95533 39.4508 3.99662 41.0849C4.03019 42.4223 3.8097 44.3672 4.36544 45.5803C5.04958 44.8072 5.53683 43.8777 6.26088 43.1341C8.0311 41.3158 10.3199 40.0156 12.9044 40.0143C13.9955 40.0138 15.0675 40.2352 16.0869 40.6077C16.5006 40.7587 16.9053 40.9343 17.2995 41.1303C18.4496 41.7019 19.8337 43.4272 21.0577 43.5202C21.2365 41.128 20.6313 38.4432 20.404 36.0442C20.404 29.9542 19.2009 23.5226 18.2894 17.5138C18.0154 15.7064 17.603 13.923 17.6412 12.0902C17.6806 10.198 17.8929 8.30799 17.7646 6.41439C17.6493 4.71904 17.437 0.624705 15.102 0.364754C14.6429 0.31349 14.191 0.483617 13.7605 0.65102C13.6221 0.705006 13.4983 0.792561 13.3857 0.903256Z" fill="url(#paint0_linear_65_2130)"/>
<path d="M1.10209 69.5482C1.10209 69.5482 -1.18575 42.7473 10.9071 38.8249C10.9071 38.8249 24.6346 36.537 25.9416 60.3963C25.9788 61.0768 26.0845 61.7537 26.1135 62.4369C26.1761 63.9277 26.1221 65.4343 25.8649 66.906C25.5945 68.4517 25.0892 70.049 24.0385 71.2499C23.529 71.8319 22.8934 72.2938 22.1721 72.5769C21.5469 72.8223 20.8587 72.9144 20.2027 73.0491C19.3952 73.2152 18.5859 73.3712 17.772 73.5019C17.3329 73.5722 16.8919 73.6357 16.4505 73.6888C14.8277 73.8843 13.1918 73.946 11.5582 74.0077C8.90467 74.108 6.15455 74.24 3.67573 73.1049C2.20948 72.434 1.10209 71.2295 1.10209 69.5482Z" fill="url(#paint1_linear_65_2130)"/>
<path d="M20.5576 36.8539C20.5576 36.8539 21.5557 43.0674 21.1764 43.7955C21.1764 43.7955 17.2309 38.6949 12.4896 38.8405C7.74788 38.9866 5.72226 42.8351 4.20928 45.4287C4.20928 45.4287 2.75754 38.2607 3.98244 32.8621C5.20735 27.4634 3.84634 34.4045 11.0597 34.4499C18.273 34.4953 18.3183 33.3157 19.7247 31.3196C20.2237 27.917 20.5576 36.8539 20.5576 36.8539Z" fill="#725741"/>
<defs>
<linearGradient id="paint0_linear_65_2130" x1="7.6991" y1="22.9333" x2="21.1802" y2="23.1742" gradientUnits="userSpaceOnUse">
<stop stop-color="#BFAB8D"/>
<stop offset="0.5078" stop-color="#E7E1D2"/>
<stop offset="1" stop-color="#CCBFA6"/>
</linearGradient>
<linearGradient id="paint1_linear_65_2130" x1="-3.97272" y1="56.4114" x2="31.0485" y2="56.4293" gradientUnits="userSpaceOnUse">
<stop stop-color="#94938C"/>
<stop offset="0.2296" stop-color="#EDEBE1"/>
<stop offset="0.7876" stop-color="#EDEBE1"/>
<stop offset="1" stop-color="#94938C"/>
</linearGradient>
</defs>
</svg>
