<svg width="26" height="43" viewBox="0 0 26 43" fill="none" xmlns="http://www.w3.org/2000/svg">
<path d="M6.23305 2.96103C5.69954 1.22528 7.3164 0.408677 8.69328 1.37454C11.3549 3.2414 12.7441 6.4062 13.9567 9.30879C14.5183 10.653 17.0076 15.349 15.4261 16.6133C13.8569 17.8677 8.20014 15.9905 8.12891 12.8869C8.09035 11.2029 8.1457 9.50886 7.92023 7.83527C7.67525 6.0165 6.75613 4.66139 6.23305 2.96103Z" fill="url(#paint0_linear_50_263)"/>
<path d="M22.0235 26.8847C22.9857 20.5769 22.9703 12.9662 20.1666 7.12844C19.5151 5.77152 18.6282 4.53029 17.5716 3.45872C17.157 3.03818 14.6867 0.513067 14.1677 1.13459C13.6383 1.76836 14.1169 3.18471 14.2108 3.88925C14.3678 5.06833 14.5166 6.24832 14.6395 7.43149C14.8886 9.83184 15.5088 12.4327 14.86 14.8213C14.7171 15.3471 14.3868 15.867 13.8687 16.0353C13.5952 16.1242 13.2971 16.106 13.0163 16.0453C11.2388 15.6601 9.95265 13.8681 8.85976 12.5534C7.29686 10.6738 6.39996 8.56248 5.61919 6.26466C5.23992 5.14864 4.80621 4.06437 3.85304 3.32081C3.62349 3.14161 1.37464 0.382413 1.02078 0.467248C-0.144248 0.7458 0.258158 3.8888 0.300349 4.60332C0.626992 10.1598 4.70096 20.0207 4.70096 20.0207C4.70096 20.0207 5.68134 26.2305 4.70096 28.1917C3.72057 30.1534 20.7164 30.1534 22.0235 26.8847Z" fill="url(#paint1_linear_50_263)"/>
<path d="M23.0043 27.8649C23.0038 27.8644 20.3893 24.9233 14.5062 24.9233C8.62301 24.9233 4.37396 26.8845 3.39358 29.499C2.4132 32.1134 2.08611 39.304 5.68143 40.6114C6.81877 41.0252 8.06908 41.1277 9.09437 40.3946C9.97131 39.7676 10.3179 38.6153 11.6367 39.0427C12.2115 39.2287 12.6856 39.632 13.1728 39.9895C15.3151 41.561 18.9557 43.191 21.3956 41.3359C24.7309 38.8 25.9087 31.1326 23.0043 27.8649Z" fill="url(#paint2_linear_50_263)"/>
<path d="M23.0106 27.8532C23.0101 27.8528 20.3956 24.9116 14.5125 24.9116C8.62934 24.9116 4.3803 26.8728 3.39993 29.4873C2.41955 32.1018 2.09246 39.2925 5.68777 40.5999C6.82511 41.0137 8.07542 41.1162 9.1007 40.3831C9.97764 39.7561 10.3242 38.6038 11.643 39.0312C12.2178 39.2172 12.6919 39.6205 13.1792 39.978C15.3214 41.5495 18.9621 43.1795 21.4019 41.3244C24.7372 38.7884 25.915 31.1205 23.0106 27.8532Z" fill="url(#paint3_linear_50_263)"/>
<path d="M23.3604 24.5242C23.497 24.9679 23.6685 25.3948 23.8155 25.8149C24.1602 26.5893 24.1385 26.8343 24.3059 27.3801C24.6901 28.6327 25.4024 29.687 25.3788 30.9006C25.3616 31.7979 24.6103 32.2738 23.7914 32.3818C22.767 32.517 22.3751 26.3044 16.4946 26.3044C10.6142 26.3044 8.74008 27.5615 5.92824 29.1303C5.27541 29.4946 4.15032 30.3906 3.55737 30.8189C0.981446 32.6789 2.11834 27.0412 2.51258 26.0091C2.88595 25.0323 3.01342 24.086 3.5855 23.1673C4.11811 22.3112 4.81449 21.5658 5.60705 20.9448C7.26611 19.6445 9.31669 18.8878 11.3868 18.5657C15.1881 17.975 20.0414 18.7585 22.356 22.1738C22.8265 22.8674 23.1064 23.6976 23.3604 24.5242Z" fill="#F7EECB"/>
<defs>
<linearGradient id="paint0_linear_50_263" x1="12.7712" y1="17.5068" x2="5.56037" y2="-17.9131" gradientUnits="userSpaceOnUse">
<stop offset="0.1599" stop-color="#BFAB8D"/>
<stop offset="0.5078" stop-color="#E7E1D2"/>
<stop offset="0.7297" stop-color="#CCBFA6"/>
</linearGradient>
<linearGradient id="paint1_linear_50_263" x1="27.9703" y1="14.9189" x2="0.877169" y2="15.0168" gradientUnits="userSpaceOnUse">
<stop offset="0.1599" stop-color="#BFAB8D"/>
<stop offset="0.5078" stop-color="#E7E1D2"/>
<stop offset="0.7297" stop-color="#CCBFA6"/>
</linearGradient>
<linearGradient id="paint2_linear_50_263" x1="29.6239" y1="33.4961" x2="-2.55351" y2="33.6124" gradientUnits="userSpaceOnUse">
<stop stop-color="#94938C"/>
<stop offset="0.2296" stop-color="#EDEBE1"/>
<stop offset="0.7988" stop-color="#EDEBE1"/>
<stop offset="1" stop-color="#94938C"/>
</linearGradient>
<linearGradient id="paint3_linear_50_263" x1="29.8715" y1="33.4835" x2="-2.68784" y2="33.6011" gradientUnits="userSpaceOnUse">
<stop stop-color="#94938C"/>
<stop offset="0.2296" stop-color="#EDEBE1"/>
<stop offset="0.7988" stop-color="#EDEBE1"/>
<stop offset="1" stop-color="#94938C"/>
</linearGradient>
</defs>
</svg>
