<svg width="19" height="61" viewBox="0 0 19 61" fill="none" xmlns="http://www.w3.org/2000/svg">
<path d="M6.63941 34.8297C6.63941 34.8297 3.37127 36.1371 2.39046 43.6544C2.39046 43.6544 1.41009 51.4987 1.083 53.7865C0.75637 56.0744 0.756372 59.0159 4.35116 59.9963C7.9464 60.9767 11.2146 60.3229 13.1757 59.6697C15.1369 59.0159 18.0784 57.0547 18.7321 54.7669C19.3858 52.4791 18.7321 41.3665 17.7518 39.4053C16.7714 37.4441 14.4836 32.2147 6.63941 34.8297Z" fill="url(#paint0_linear_50_186)"/>
<path d="M9.90783 3.77997C9.90783 3.77997 2.73345 19.4651 5.6669 35.9722C5.6669 35.9722 16.0692 34.7391 16.5836 37.5628C15.1246 30.6956 14.4237 23.4687 14.7108 16.4586C14.827 13.6146 15.028 10.7746 15.1078 7.92921C15.1595 6.07643 15.4817 3.95961 14.6864 2.23386C14.3525 1.50845 13.8003 0.442337 12.8944 0.357501C11.3564 0.213688 10.3688 2.71974 9.90783 3.77997Z" fill="url(#paint1_linear_50_186)"/>
<path d="M4.19022 33.4315C4.00559 34.4001 3.09917 38.6769 3.06333 40.5746C3.03566 42.034 3.70436 42.3888 4.10811 41.4012C5.76531 37.3453 7.8444 37.2147 10.5709 37.1897C13.5704 37.1621 14.7136 37.0713 16.4702 41.006C18.028 43.488 18.1605 39.2825 17.9949 38.0721C17.8143 36.3495 17.6252 34.7735 17.2768 33.3612C14.1502 21.4251 6.26251 24.0278 4.19022 33.4315Z" fill="#F7EECB"/>
<defs>
<linearGradient id="paint0_linear_50_186" x1="-3.52569" y1="47.9538" x2="22.4843" y2="46.6507" gradientUnits="userSpaceOnUse">
<stop stop-color="#94938C"/>
<stop offset="0.1599" stop-color="#D1CFC6"/>
<stop offset="0.2296" stop-color="#EDEBE1"/>
<stop offset="0.7988" stop-color="#EDEBE1"/>
<stop offset="0.9762" stop-color="#9F9E96"/>
<stop offset="1" stop-color="#94938C"/>
</linearGradient>
<linearGradient id="paint1_linear_50_186" x1="13.9542" y1="18.9698" x2="4.97313" y2="19.1303" gradientUnits="userSpaceOnUse">
<stop stop-color="#BFAB8D"/>
<stop offset="0.5078" stop-color="#E7E1D2"/>
<stop offset="1" stop-color="#CCBFA6"/>
</linearGradient>
</defs>
</svg>
