<svg width="20" height="70" viewBox="0 0 20 70" fill="none" xmlns="http://www.w3.org/2000/svg">
<path d="M3.91541 45.5105C3.91541 45.5105 15.997 42.4823 17.0009 44.2089L12.1218 9.65639C12.1218 9.65639 8.70203 0.775879 7.39457 0.775879C6.0871 0.775879 4.77965 4.69782 4.77965 4.69782C4.77965 4.69782 4.20666 37.2411 3.91541 45.5105Z" fill="url(#paint0_linear_50_196)"/>
<path d="M6.23859 42.0139C6.23813 42.0148 -0.952024 51.4928 0.355445 59.3367C0.777355 61.8678 1.64113 64.5131 3.16681 66.6004C3.91082 67.6185 4.87759 68.5399 6.0966 68.9436C7.70893 69.4776 9.77812 69.0584 11.3945 68.6977C12.1903 68.5204 12.9719 68.2758 13.7132 67.9347C18.8959 65.5511 20.2651 59.4057 19.8482 54.1976C19.5551 50.5392 18.4445 46.9902 17.0009 43.6375C16.0646 41.4627 13.8833 40.8928 11.7062 40.5848C10.0675 40.353 7.35279 40.5453 6.23859 42.0139Z" fill="url(#paint1_linear_50_196)"/>
<path d="M4.07186 39.8725C3.88721 40.841 2.98077 45.1178 2.94492 47.0155C2.91725 48.475 3.58597 48.8293 3.98974 47.8421C5.64704 43.7863 7.72628 43.6556 10.4529 43.6307C13.4526 43.603 14.5959 43.5123 16.3525 47.447C17.9105 49.929 18.043 45.7235 17.8774 44.5131C17.6968 42.7905 17.5076 41.2144 17.1592 39.8021C14.0324 27.866 6.14427 30.4687 4.07186 39.8725Z" fill="#F7EECB"/>
<defs>
<linearGradient id="paint0_linear_50_196" x1="15.2691" y1="23.4396" x2="5.37551" y2="23.1349" gradientUnits="userSpaceOnUse">
<stop stop-color="#BFAB8D"/>
<stop offset="0.5078" stop-color="#E7E1D2"/>
<stop offset="1" stop-color="#CCBFA6"/>
</linearGradient>
<linearGradient id="paint1_linear_50_196" x1="26.1977" y1="54.5456" x2="-6.75499" y2="55.1346" gradientUnits="userSpaceOnUse">
<stop stop-color="#94938C"/>
<stop offset="0.0617" stop-color="#A4A29B"/>
<stop offset="0.1809" stop-color="#CCCAC2"/>
<stop offset="0.2666" stop-color="#EDEBE1"/>
<stop offset="0.7117" stop-color="#EDEBE1"/>
<stop offset="0.7719" stop-color="#E0DED5"/>
<stop offset="0.883" stop-color="#BEBDB4"/>
<stop offset="1" stop-color="#94938C"/>
</linearGradient>
</defs>
</svg>
