<svg width="19" height="58" viewBox="0 0 19 58" fill="none" xmlns="http://www.w3.org/2000/svg">
<path d="M9.96033 56.2797C9.96033 56.2797 15.3064 57.1149 17.0476 54.2734C18.7884 51.4318 10.5102 54.5901 9.96033 56.2797Z" fill="#D8D6D0"/>
<path d="M15.3259 38.3583C15.3259 38.3583 14.9992 27.2458 14.0185 24.3042C13.0381 21.3626 12.0573 11.5576 12.3844 8.94265C12.711 6.32772 12.711 2.40578 12.711 2.40578C12.711 2.40578 13.0377 -0.535779 10.0962 1.75205C7.15473 4.03989 3.55956 15.1524 3.88665 19.7281C4.21327 24.3037 4.3167 38.0925 4.26498 38.0621C4.21372 38.0317 15.3259 38.3583 15.3259 38.3583Z" fill="url(#paint0_linear_50_203)"/>
<path d="M4.54083 37.0507C4.54083 37.0507 -2.97641 48.1634 2.57964 54.0465C3.25832 54.7652 4.32578 55.2705 5.15282 55.7963C6.00662 56.3394 6.91759 57.0934 7.95831 57.2109C9.1519 57.3461 10.0256 56.0971 11.1988 55.8535C13.0639 55.4661 14.889 55.7728 16.4818 54.5007C17.797 53.4504 18.5945 51.8131 18.8653 50.1736C19.2029 48.128 18.8535 46.0493 18.4461 44.0409C18.2724 43.1848 17.9766 42.37 17.6305 41.5684C17.2616 40.7137 16.5966 39.8794 16.3071 39.011C16.3071 39.012 13.6922 31.1676 4.54083 37.0507Z" fill="url(#paint1_linear_50_203)"/>
<path d="M3.85166 33.4647C3.66703 34.4333 2.76067 38.7099 2.72483 40.6076C2.69716 42.067 3.36581 42.4218 3.76955 41.4341C5.42669 37.3784 7.50573 37.2478 10.2321 37.2228C13.2315 37.1951 14.3747 37.1044 16.1312 41.039C17.689 43.521 17.8214 39.3155 17.6559 38.1052C17.4753 36.3826 17.2861 34.8066 16.9377 33.3944C13.8113 21.459 5.92342 24.0617 3.85166 33.4647Z" fill="#F7EECB"/>
<defs>
<linearGradient id="paint0_linear_50_203" x1="14.4263" y1="19.6671" x2="1.53421" y2="19.27" gradientUnits="userSpaceOnUse">
<stop stop-color="#BFAB8D"/>
<stop offset="0.5078" stop-color="#E7E1D2"/>
<stop offset="1" stop-color="#CCBFA6"/>
</linearGradient>
<linearGradient id="paint1_linear_50_203" x1="22.5772" y1="46.4471" x2="-4.14898" y2="45.6239" gradientUnits="userSpaceOnUse">
<stop stop-color="#94938C"/>
<stop offset="0.0311" stop-color="#A6A59D"/>
<stop offset="0.0939" stop-color="#C5C3BB"/>
<stop offset="0.1552" stop-color="#DBD9D0"/>
<stop offset="0.2138" stop-color="#E8E7DD"/>
<stop offset="0.2666" stop-color="#EDEBE1"/>
<stop offset="0.7117" stop-color="#EDEBE1"/>
<stop offset="0.7637" stop-color="#E7E5DB"/>
<stop offset="0.835" stop-color="#D5D3CA"/>
<stop offset="0.9175" stop-color="#B8B7AF"/>
<stop offset="1" stop-color="#94938C"/>
</linearGradient>
</defs>
</svg>
