<svg width="19" height="55" viewBox="0 0 19 55" fill="none" xmlns="http://www.w3.org/2000/svg">
<path d="M9.5061 54.292C9.5061 54.292 14.8049 55.3876 16.6825 52.6352C18.5607 49.8824 10.1376 52.6316 9.5061 54.292Z" fill="#D8D6D0"/>
<path d="M8.72922 54.5278C8.72922 54.5278 3.08595 54.9094 1.68182 51.2499C0.277696 47.5904 8.39622 52.4095 8.72922 54.5278Z" fill="#D8D6D0"/>
<path d="M6.47476 33.9959C6.39174 34.0367 6.3128 34.083 6.2384 34.1351C4.80073 35.1395 3.58899 36.7668 2.67485 38.239C1.28573 40.4756 0.293995 43.0338 0.561205 45.7031C0.743579 47.5278 0.948199 49.626 1.86007 51.2646C2.39267 52.2219 3.58989 52.6606 4.56482 52.9999C5.40002 53.2907 6.24293 53.5638 7.0618 53.8991C7.81806 54.2085 8.56026 54.7361 9.41225 54.668C10.3917 54.5895 11.0758 53.8219 11.8593 53.3238C13.0888 52.5426 14.5605 52.142 16.0167 52.2123C16.2726 52.2246 16.5348 52.2504 16.7798 52.1756C17.1377 52.0667 17.3995 51.7628 17.6105 51.4543C18.5713 50.0506 18.5459 48.6905 18.5541 47.0582C18.5627 45.3996 18.5305 43.7311 18.2143 42.0979C17.6513 39.1876 15.7287 36.78 14.7179 34.0331C14.6598 33.8747 14.6017 33.7128 14.4951 33.5821C14.3128 33.3585 14.0143 33.2618 13.7266 33.2387C13.1877 33.1951 12.6446 33.2786 12.1107 33.3358C11.0981 33.4446 10.1095 33.5576 9.09152 33.6275C8.2849 33.6833 7.22648 33.6243 6.47476 33.9959Z" fill="url(#paint0_linear_50_215)"/>
<path d="M4.33254 35.9093C4.36883 35.9388 4.41237 35.9619 4.46545 35.9764C4.7322 36.0513 5.55424 35.6489 5.84504 35.5727C6.80908 35.3204 7.78399 35.1095 8.76481 34.9339C9.80415 34.7479 10.8539 34.5714 11.9123 34.5628C12.4726 34.5583 13.0361 34.5973 13.5845 34.7161C14.0718 34.8219 14.5967 35.1557 15.058 35.1975C15.3942 33.8868 15.053 32.3625 14.975 31.0314C14.8884 29.5516 14.7523 28.0749 14.5676 26.6041C14.2215 23.844 13.5324 21.1868 13.0301 18.4617C12.5411 15.8109 12.405 13.0086 12.4635 10.3092C12.4908 9.03988 12.5679 7.76825 12.7135 6.50705C12.8373 5.43049 13.1477 4.4669 13.0374 3.35133C12.9254 2.21716 12.3932 0.499576 10.8957 0.964132C9.76832 1.31391 9.06649 2.55378 8.4976 3.4965C7.4138 5.29167 6.62488 7.24743 5.89812 9.21408C5.17226 11.178 4.5031 13.176 4.12429 15.2393C3.79357 17.039 3.83395 18.8006 3.86525 20.6175C3.91425 23.5019 3.9832 26.3859 4.05443 29.2699C4.10025 31.1308 3.99408 33.072 4.14062 34.9593C4.16693 35.3123 4.11478 35.7314 4.33254 35.9093Z" fill="url(#paint1_linear_50_215)"/>
<path d="M2.22927 33.0789C2.0165 34.0475 0.972166 38.3242 0.930883 40.2218C0.899127 41.6813 1.6699 42.0356 2.1349 41.0484C4.04437 36.9926 6.44108 36.862 9.58269 36.837C13.0396 36.8094 14.357 36.7186 16.3813 40.6533C18.1764 43.1353 18.3293 38.9298 18.1383 37.7194C17.9301 35.9969 17.7123 34.4208 17.3108 33.0086C13.7069 21.0726 4.61689 23.6753 2.22927 33.0789Z" fill="#F7EECB"/>
<defs>
<linearGradient id="paint0_linear_50_215" x1="24.5045" y1="44.3553" x2="-5.73179" y2="43.4239" gradientUnits="userSpaceOnUse">
<stop stop-color="#94938C"/>
<stop offset="0.2666" stop-color="#EDEBE1"/>
<stop offset="0.7117" stop-color="#EDEBE1"/>
<stop offset="1" stop-color="#94938C"/>
</linearGradient>
<linearGradient id="paint1_linear_50_215" x1="17.9672" y1="19.4847" x2="3.6078" y2="17.9767" gradientUnits="userSpaceOnUse">
<stop stop-color="#BFAB8D"/>
<stop offset="0.5078" stop-color="#E7E1D2"/>
<stop offset="1" stop-color="#CCBFA6"/>
</linearGradient>
</defs>
</svg>
