<svg width="28" height="51" viewBox="0 0 28 51" fill="none" xmlns="http://www.w3.org/2000/svg">
<path d="M16.7338 2.25184C16.7338 2.25184 17.6398 0.197625 19.4735 0.712087C21.3072 1.22655 21.9414 6.02049 21.6093 9.55458C21.2777 13.0887 19.7058 24.3016 17.0033 24.5325C14.3008 24.7634 9.35862 18.4125 11.607 14.8743C13.8558 11.3366 17.5763 5.12629 16.7338 2.25184Z" fill="url(#paint0_linear_50_229)"/>
<path d="M4.91089 32.704C8.10963 32.4735 11.7393 30.9097 14.944 30.7831C16.9541 30.7037 18.9652 30.5708 20.9776 30.6352C21.9081 30.6647 23.2917 33.1454 24.194 33.0306C24.7793 32.9562 24.3932 30.5527 24.3692 29.9307C24.3488 29.4013 24.3038 28.8741 24.3814 28.3465C24.6599 26.4447 25.7061 24.6391 26.1411 22.7373C26.6447 20.5375 26.9849 18.295 27.1941 16.0485C27.4159 13.6653 27.5098 11.231 27.1977 8.85103C27.0634 7.82483 26.8802 6.78275 26.4728 5.82505C26.1557 5.07968 25.3867 3.6166 24.4041 3.72866C24.0434 3.76994 23.7204 3.975 23.4505 4.21862C22.9215 4.69633 22.5532 5.33238 22.3095 6.00245C21.8073 7.38477 21.8182 8.87325 21.7216 10.3214C21.6218 11.8144 21.2149 13.1972 20.8801 14.6462C20.2586 17.3387 19.5246 20.5076 17.7607 22.7146C17.3316 23.2518 16.6865 23.6864 16.0019 23.6215C15.6508 23.588 15.3228 23.4265 15.0361 23.2209C14.0031 22.4801 13.4777 21.2017 13.2985 19.9432C12.9315 17.3646 13.2078 14.5201 13.8969 12.0203C14.3011 10.5532 15.0479 9.23936 15.5042 7.80487C15.9865 6.28826 16.6406 3.27953 14.5026 2.70201C13.6397 2.46883 12.721 2.90979 12.0764 3.5286C9.68471 5.82189 8.06924 9.23119 6.68604 12.1873C5.8377 13.9997 5.01884 15.8733 4.49668 17.8105C4.18275 18.9751 4.21633 20.1356 4.24945 21.3382C4.34199 24.7004 4.53752 29.3709 4.91089 32.704Z" fill="url(#paint1_linear_50_229)"/>
<path d="M23.8508 34.8703C24.123 34.9533 24.5131 35.6928 24.6642 35.9055C25.2626 36.7498 25.7807 37.6585 26.1686 38.6194C27.2139 41.2084 27.0623 44.0479 25.1015 46.1688C25.0784 46.1937 25.0548 46.2187 25.0317 46.2437C24.926 46.3548 24.8157 46.4632 24.7295 46.5898C24.4877 46.945 24.4301 47.3901 24.201 47.7544C23.9851 48.0987 23.667 48.4208 23.3585 48.6807C22.6331 49.2932 21.6668 49.7187 20.7018 49.6235C20.3702 49.5908 20.054 49.4728 19.7423 49.3558C18.389 48.8477 16.9195 48.2684 16.2018 46.9246C16.2835 47.0779 15.9111 47.7017 15.8171 47.8288C15.5921 48.1345 15.3163 48.2674 14.9683 48.4017C13.8191 48.8459 12.5684 49.2025 11.4669 49.7532C10.7056 50.0463 10.0632 50.3248 9.28877 50.0708C8.83782 49.9229 8.38098 49.7931 7.93502 49.6298C7.10026 49.3245 5.71156 48.7901 5.71156 47.7072C5.71156 46.0327 4.31606 41.0097 7.66508 35.9867C11.0123 30.9656 23.8399 34.8671 23.8508 34.8703Z" fill="#D8D6D0"/>
<path d="M23.8671 30.7426C24.186 30.8397 24.6433 31.7062 24.8197 31.9553C25.5206 32.9443 26.1272 34.0086 26.5818 35.1337C27.8062 38.1664 27.6284 41.4923 25.3324 43.9757C25.3052 44.0047 25.2775 44.0342 25.2503 44.0632C25.1264 44.1934 24.9976 44.3205 24.8964 44.4688C24.6129 44.8853 24.5458 45.4056 24.2777 45.833C24.0245 46.2359 23.6521 46.6133 23.2909 46.9182C22.4412 47.6354 21.3093 48.1336 20.1797 48.0224C19.7914 47.9843 19.4212 47.8459 19.056 47.7089C17.4709 47.1142 15.7497 46.435 14.9091 44.8612C15.0048 45.0404 14.5684 45.7713 14.4586 45.9206C14.195 46.2785 13.8715 46.4341 13.4646 46.5915C12.1186 47.1119 10.6537 47.5293 9.36351 48.1744C8.47207 48.5178 7.7199 48.844 6.81258 48.5464C6.28451 48.3731 5.74921 48.2211 5.22704 48.0301C4.2494 47.6726 2.62301 47.0466 2.62301 45.7781C2.62301 43.8169 0.98893 37.9337 4.91083 32.0505C8.83092 26.1692 23.8548 30.739 23.8671 30.7426Z" fill="url(#paint2_linear_50_229)"/>
<path d="M3.09793 29.0128C2.94323 29.5159 2.74862 29.9999 2.58167 30.4767C2.19061 31.355 2.21555 31.6327 2.02547 32.2515C1.5895 33.6724 0.781989 34.8678 0.808755 36.2442C0.828262 37.2618 1.68025 37.8012 2.60889 37.9241C3.77072 38.0775 4.2153 31.0316 10.8841 31.0316C17.553 31.0316 19.6784 32.457 22.8676 34.2363C23.608 34.6491 24.8837 35.6658 25.5565 36.1512C28.478 38.2607 27.1888 31.8672 26.741 30.6968C26.3173 29.5889 26.173 28.5156 25.5243 27.4739C24.92 26.5031 24.1301 25.6575 23.2319 24.9534C21.3501 23.479 19.0247 22.6202 16.677 22.2554C12.3658 21.5854 6.86152 22.4736 4.23663 26.3475C3.70403 27.1337 3.38646 28.075 3.09793 29.0128Z" fill="#F7EECB"/>
<defs>
<linearGradient id="paint0_linear_50_229" x1="13.2173" y1="23.5179" x2="31.7796" y2="-21.8476" gradientUnits="userSpaceOnUse">
<stop offset="0.1599" stop-color="#BFAB8D"/>
<stop offset="0.5078" stop-color="#E7E1D2"/>
<stop offset="0.7297" stop-color="#CCBFA6"/>
</linearGradient>
<linearGradient id="paint1_linear_50_229" x1="26.0978" y1="17.5184" x2="5.18773" y2="18.4638" gradientUnits="userSpaceOnUse">
<stop offset="0.1599" stop-color="#BFAB8D"/>
<stop offset="0.5078" stop-color="#E7E1D2"/>
<stop offset="0.7297" stop-color="#CCBFA6"/>
</linearGradient>
<linearGradient id="paint2_linear_50_229" x1="33.1231" y1="41.1822" x2="-1.69904" y2="37.5254" gradientUnits="userSpaceOnUse">
<stop stop-color="#94938C"/>
<stop offset="0.2296" stop-color="#EDEBE1"/>
<stop offset="0.7988" stop-color="#EDEBE1"/>
<stop offset="1" stop-color="#94938C"/>
</linearGradient>
</defs>
</svg>
