<svg width="24" height="42" viewBox="0 0 24 42" fill="none" xmlns="http://www.w3.org/2000/svg">
<path d="M13.8184 3.52017C14.3393 1.7808 16.1379 1.99993 16.7459 3.56781C17.9215 6.59877 17.318 10.0022 16.7136 13.0894C16.4337 14.5189 15.8938 19.8069 13.8761 19.9793C11.8743 20.1503 8.21364 15.4467 9.87879 12.8263C10.7821 11.4049 11.7699 10.0271 12.5122 8.51053C13.3194 6.86189 13.3085 5.2246 13.8184 3.52017Z" fill="url(#paint0_linear_50_243)"/>
<path d="M3.36011 26.8193C3.42544 26.856 3.63413 26.3896 3.8215 26.4101C4.06603 26.4364 4.3709 26.3511 4.61544 26.3261C5.46019 26.2408 6.3063 26.1669 7.15287 26.1029C9.50475 25.9255 11.8675 25.8176 14.2267 25.8652C15.8676 25.8983 17.5336 25.9854 19.1428 26.3288C20.1368 26.5407 21.4447 26.856 22.0527 27.7597C22.0527 27.7597 20.683 22.2436 21.6639 17.9945C22.6447 13.7455 23.9518 2.30624 21.3367 1.97915C19.6931 1.77363 18.4541 5.59624 18.0254 6.65963C16.8884 9.47963 15.9983 12.4938 15.1921 15.4563C15.1694 15.5388 15.1463 15.6237 15.0959 15.6931C14.6545 16.3037 13.1224 16.546 12.5304 16.1377C12.0349 15.7956 11.9124 15.1282 11.8317 14.5312C11.6883 13.4719 11.545 12.4126 11.4016 11.3533C11.0609 8.83633 10.7179 6.30305 10.7787 3.75661C10.7955 3.05751 11.5921 -0.50287 9.89671 0.345035C7.0485 1.7691 5.42433 5.70784 4.63356 8.53464C3.56469 12.3541 3.52523 16.4412 3.37778 20.3799C3.31018 22.1855 3.21992 24.0161 3.33742 25.8217C3.36056 26.1746 3.26619 26.7666 3.36011 26.8193Z" fill="url(#paint1_linear_50_243)"/>
<path d="M4.45618 25.6666C5.33313 25.0591 6.50769 24.9866 7.52618 24.7829C9.06005 24.4757 10.6075 24.2199 12.1709 24.1255C15.6165 23.9168 19.4061 24.5488 21.7216 27.352C22.5378 28.3396 23.1116 29.5223 23.3993 30.7699C23.7227 32.1744 23.4619 33.0818 23.0146 34.4088C22.6045 35.625 22.0691 36.942 21.4077 38.0435C20.6904 39.2376 19.5431 40.2715 18.1004 40.2506C16.5375 40.2279 15.01 39.6164 13.9661 38.4314C13.9112 38.3693 13.8549 38.3035 13.7778 38.2722C13.6857 38.235 13.5818 38.2545 13.4856 38.2767C11.3847 38.758 9.27872 40.1318 7.34064 41.0604C6.41424 41.5041 5.88482 41.6393 4.94663 41.1466C3.77661 40.5319 2.66145 39.7761 1.79493 38.7776C-0.767863 35.8242 0.208887 31.6282 2.08255 28.5828C2.67414 27.6214 3.40684 26.5072 4.29332 25.7895C4.34595 25.746 4.40038 25.7052 4.45618 25.6666Z" fill="url(#paint2_linear_50_243)"/>
<path d="M2.35605 23.0052C2.2195 23.4489 2.04801 23.8758 1.90102 24.2959C1.55625 25.0703 1.57804 25.3153 1.41064 25.861C1.0264 27.1136 0.31414 28.1679 0.33773 29.3815C0.354969 30.2789 1.10623 30.7548 1.92508 30.8627C2.94943 30.9979 3.34139 24.7854 9.22166 24.7854C15.1019 24.7854 16.976 26.0425 19.7878 27.6113C20.4406 27.9756 21.5656 28.8716 22.1585 29.2998C24.7344 31.1599 23.5976 25.5221 23.2033 24.49C22.83 23.5133 22.7025 22.5669 22.1305 21.6483C21.5979 20.7922 20.9015 20.0463 20.1089 19.4257C18.4499 18.1255 16.3994 17.3688 14.3294 17.0467C10.5282 16.456 5.67502 17.2395 3.36047 20.6547C2.89049 21.3488 2.6101 22.1786 2.35605 23.0052Z" fill="#F7EECB"/>
<defs>
<linearGradient id="paint0_linear_50_243" x1="11.1417" y1="19.2614" x2="24.8281" y2="-14.1919" gradientUnits="userSpaceOnUse">
<stop offset="0.1599" stop-color="#BFAB8D"/>
<stop offset="0.5078" stop-color="#E7E1D2"/>
<stop offset="0.7297" stop-color="#CCBFA6"/>
</linearGradient>
<linearGradient id="paint1_linear_50_243" x1="22.2006" y1="16.2674" x2="4.51111" y2="12.9118" gradientUnits="userSpaceOnUse">
<stop offset="0.1599" stop-color="#BFAB8D"/>
<stop offset="0.5078" stop-color="#E7E1D2"/>
<stop offset="0.7297" stop-color="#CCBFA6"/>
</linearGradient>
<linearGradient id="paint2_linear_50_243" x1="-5.01464" y1="32.7365" x2="28.2711" y2="32.821" gradientUnits="userSpaceOnUse">
<stop stop-color="#94938C"/>
<stop offset="0.2296" stop-color="#EDEBE1"/>
<stop offset="0.7988" stop-color="#EDEBE1"/>
<stop offset="1" stop-color="#94938C"/>
</linearGradient>
</defs>
</svg>
