<svg width="25" height="43" viewBox="0 0 25 43" fill="none" xmlns="http://www.w3.org/2000/svg">
<path d="M19.9836 2.98198C20.5171 1.24627 18.9002 0.429685 17.5232 1.39553C14.8614 3.26234 13.4722 6.42708 12.2595 9.3296C11.6979 10.6738 9.20844 15.3696 10.79 16.634C12.3593 17.8884 18.0164 16.0111 18.0876 12.9076C18.1262 11.2236 18.0708 9.52966 18.2963 7.85611C18.5413 6.03738 19.4605 4.6823 19.9836 2.98198Z" fill="url(#paint0_linear_50_255)"/>
<path d="M4.19231 26.9056C3.23009 20.5979 3.2455 12.9871 6.04915 7.14935C6.70062 5.79243 7.58754 4.5512 8.64413 3.47964C9.05878 3.05909 11.5285 0.533978 12.048 1.1555C12.5774 1.78927 12.0988 3.20562 12.0049 3.91016C11.8479 5.08924 11.6991 6.26924 11.5762 7.4524C11.3271 9.85275 10.707 12.4536 11.3557 14.8422C11.4986 15.368 11.8289 15.8879 12.347 16.0562C12.6205 16.1451 12.9186 16.127 13.1994 16.0662C14.9769 15.681 16.263 13.889 17.3559 12.5743C18.9188 10.6948 19.8156 8.58339 20.5964 6.28557C20.9757 5.16955 21.4094 4.08528 22.3626 3.34172C22.5921 3.16252 23.0553 2.74696 23.4091 2.8318C24.5741 3.11035 24.1717 6.25336 24.1296 6.96789C23.8025 12.5244 21.5146 20.0417 21.5146 20.0417C21.5146 20.0417 20.5343 26.2514 21.5146 28.2127C22.4955 30.1739 5.49978 30.1738 4.19231 26.9056Z" fill="url(#paint1_linear_50_255)"/>
<path d="M3.21188 27.8859C3.21188 27.8854 5.82679 24.9443 11.7098 24.9443C17.5929 24.9443 21.8419 26.9055 22.8222 29.52C23.8026 32.1344 24.1297 39.3249 20.5345 40.6324C19.3971 41.0461 18.1468 41.1487 17.1216 40.4156C16.2446 39.7886 15.898 38.6363 14.5792 39.0636C14.0045 39.2496 13.5304 39.6529 13.0431 40.0104C10.901 41.5819 7.26034 43.2119 4.82056 41.3569C1.48525 38.8209 0.307556 31.1536 3.21188 27.8859Z" fill="url(#paint2_linear_50_255)"/>
<path d="M2.8622 24.5568C2.72564 25.0005 2.55418 25.4274 2.40719 25.8475C2.0624 26.6219 2.08415 26.8669 1.91675 27.4126C1.53248 28.6652 0.820242 29.7195 0.843833 30.9331C0.861073 31.8304 1.61232 32.3063 2.4312 32.4143C3.4556 32.5494 3.84761 26.337 9.72813 26.337C15.6087 26.337 17.4827 27.5941 20.2946 29.1629C20.9475 29.5272 22.0726 30.4231 22.6656 30.8514C25.2415 32.7114 24.1046 27.0737 23.7103 26.0417C23.337 25.0649 23.2095 24.1186 22.6374 23.1999C22.1048 22.3439 21.4084 21.5985 20.6158 20.9774C18.9567 19.6772 16.9062 18.9205 14.836 18.5984C11.0347 18.0078 6.1813 18.7912 3.86666 22.2064C3.3962 22.9005 3.11625 23.7303 2.8622 24.5568Z" fill="#F7EECB"/>
<defs>
<linearGradient id="paint0_linear_50_255" x1="13.4466" y1="17.53" x2="20.6567" y2="-17.8893" gradientUnits="userSpaceOnUse">
<stop offset="0.1599" stop-color="#BFAB8D"/>
<stop offset="0.5078" stop-color="#E7E1D2"/>
<stop offset="0.7297" stop-color="#CCBFA6"/>
</linearGradient>
<linearGradient id="paint1_linear_50_255" x1="-1.3266" y1="15.2509" x2="23.6108" y2="15.341" gradientUnits="userSpaceOnUse">
<stop offset="0.1599" stop-color="#BFAB8D"/>
<stop offset="0.5078" stop-color="#E7E1D2"/>
<stop offset="0.7297" stop-color="#CCBFA6"/>
</linearGradient>
<linearGradient id="paint2_linear_50_255" x1="-3.64907" y1="33.5162" x2="28.9098" y2="33.6338" gradientUnits="userSpaceOnUse">
<stop stop-color="#94938C"/>
<stop offset="0.2296" stop-color="#EDEBE1"/>
<stop offset="0.7988" stop-color="#EDEBE1"/>
<stop offset="1" stop-color="#94938C"/>
</linearGradient>
</defs>
</svg>
