<svg width="28" height="48" viewBox="0 0 28 48" fill="none" xmlns="http://www.w3.org/2000/svg">
<path d="M11.7332 41.6545C11.5313 43.6116 12.8011 44.0567 13.7021 42.693C15.4447 40.0572 16.117 36.3824 16.6886 33.0285C16.9536 31.4751 18.2638 25.9145 16.9717 24.9899C15.6896 24.073 11.76 27.4824 12.0435 30.7569C12.1973 32.5335 12.4214 34.2969 12.4377 36.1102C12.4563 38.081 11.9315 39.7369 11.7332 41.6545Z" fill="url(#paint0_linear_50_348)"/>
<path d="M23.3617 19.3928C22.6762 21.3513 22.1236 23.3955 21.8047 25.4461C21.5901 26.8262 21.6219 28.0529 21.8315 29.4189C22.184 31.7145 22.2094 34.1103 22.1105 36.4258C21.9562 40.0375 20.2237 42.7577 18.8386 46.0065C18.3296 47.2001 17.1523 47.8266 16.0853 46.7282C14.7315 45.3355 15.0967 42.4079 15.0428 40.6413C14.9693 38.2233 14.9203 35.7884 14.4367 33.4089C14.2284 32.3846 13.9358 31.3633 13.4009 30.4651C12.8692 29.5718 11.8866 29.1363 10.9452 29.7796C9.69174 30.6361 9.40911 32.5125 8.97631 33.8481C8.57027 35.1007 8.20235 36.3655 7.84713 37.6335C7.34537 39.4246 6.88127 41.2261 6.4031 43.0231C6.20485 43.7671 5.55792 45.5147 4.46412 44.7552C4.09483 44.4985 3.91246 44.0539 3.75866 43.6315C3.25373 42.2424 2.85042 40.8192 2.44802 39.3974C1.90861 37.4924 1.41229 35.5929 1.29615 33.609C1.13782 30.9042 2.20349 28.2317 2.7243 25.6135C3.27777 22.8312 3.62347 20.0075 3.75594 17.1739C3.76456 16.9874 3.77908 16.7846 3.90474 16.6467C4.07487 16.4607 4.36658 16.4752 4.61655 16.5038C7.68834 16.8559 10.7665 17.1421 13.8351 17.5259C15.9115 17.7841 17.9907 18.0572 20.049 18.4364C20.9563 18.6034 22.659 18.6901 23.3617 19.3928Z" fill="url(#paint1_linear_50_348)"/>
<path d="M25.7616 15.1476C25.8642 13.9209 25.836 12.6778 26.0697 11.4661C26.4344 9.57472 27.3894 7.92698 27.2542 5.92311C26.9285 1.09876 20.1865 0.725849 16.7966 2.06191C15.3871 2.61721 14.8087 2.09276 13.6237 1.3442C12.3398 0.533035 10.825 0.108398 9.30746 0.108398C7.57216 0.108398 5.65721 0.601993 4.17507 1.51387C1.98248 2.8631 1.9843 5.07656 1.83368 7.39982C1.66673 9.96942 1.72615 12.6166 2.57588 15.0737C2.83583 15.8259 3.18017 16.5649 3.72185 17.1479C4.49173 17.9767 5.47257 18.0861 6.51284 18.3256C7.93283 18.6527 9.3687 18.9295 10.8 19.2003C13.6069 19.7315 16.4401 20.1639 19.2959 20.3072C20.6501 20.3753 22.0524 20.2378 23.2551 19.6113C24.9972 18.7044 25.6069 16.9986 25.7616 15.1476Z" fill="url(#paint2_linear_50_348)"/>
<path d="M2.53872 18.6992C2.40126 18.3127 2.22478 17.9357 2.07507 17.5673C1.71803 16.8791 1.74888 16.6785 1.58057 16.2031C1.1936 15.112 0.441414 14.143 0.501298 13.1381C0.545304 12.395 1.38278 12.0988 2.28467 12.1165C3.41294 12.1387 3.81352 12.557 4.33206 13.3078C5.67174 15.249 8.2962 16.3601 10.9111 16.8391C14.3173 17.4629 18.6697 18.0958 21.7996 17.1617C22.5264 16.9449 23.7858 16.3483 24.4486 16.0706C27.328 14.8639 25.923 19.3969 25.4611 20.2022C25.0238 20.9644 24.8578 21.7338 24.2045 22.4215C23.5961 23.0626 22.8108 23.5906 21.9239 24.0021C20.0666 24.8641 17.7951 25.2238 15.5141 25.2193C11.3258 25.2111 6.02061 23.9232 3.57535 20.7824C3.07858 20.145 2.79459 19.4192 2.53872 18.6992Z" fill="#F7EECB"/>
<defs>
<linearGradient id="paint0_linear_50_348" x1="14.9154" y1="24.729" x2="17.025" y2="63.5343" gradientUnits="userSpaceOnUse">
<stop offset="0.1599" stop-color="#BFAB8D"/>
<stop offset="0.5078" stop-color="#E7E1D2"/>
<stop offset="0.7297" stop-color="#CCBFA6"/>
</linearGradient>
<linearGradient id="paint1_linear_50_348" x1="20.835" y1="33.2844" x2="3.34075" y2="29.8802" gradientUnits="userSpaceOnUse">
<stop stop-color="#BFAB8D"/>
<stop offset="0.5078" stop-color="#E7E1D2"/>
<stop offset="1" stop-color="#CCBFA6"/>
</linearGradient>
<linearGradient id="paint2_linear_50_348" x1="31.3399" y1="13.2315" x2="-1.95884" y2="6.75189" gradientUnits="userSpaceOnUse">
<stop stop-color="#94938C"/>
<stop offset="0.2114" stop-color="#EDEBE1"/>
<stop offset="0.847" stop-color="#EDEBE1"/>
<stop offset="1" stop-color="#94938C"/>
</linearGradient>
</defs>
</svg>
