<svg width="25" height="42" viewBox="0 0 25 42" fill="none" xmlns="http://www.w3.org/2000/svg">
<path d="M7.79858 38.9689C7.79858 38.9689 10.2479 42.5572 13.9706 40.1136C17.6933 37.67 9.71846 37.2785 7.79858 38.9689Z" fill="#D8D6D0"/>
<path d="M10.7089 3.54751C10.1881 1.80815 8.38983 2.02727 7.78192 3.59514C6.60648 6.62608 7.20985 10.0295 7.81413 13.1167C8.09404 14.5462 8.6339 19.8341 10.6513 20.0065C12.6529 20.1775 16.313 15.4739 14.6481 12.8536C13.7448 11.4322 12.7572 10.0544 12.015 8.53784C11.2075 6.88967 11.2189 5.25193 10.7089 3.54751Z" fill="url(#paint0_linear_50_249)"/>
<path d="M21.1667 26.8465C21.1013 26.8832 20.8927 26.4169 20.7053 26.4373C20.4608 26.4636 20.1559 26.3783 19.9114 26.3534C19.0666 26.2681 18.2206 26.1941 17.374 26.1301C15.0222 25.9528 12.6595 25.8448 10.3004 25.8924C8.65952 25.9255 6.99365 26.0127 5.38449 26.3561C4.39051 26.5679 3.08259 26.8832 2.47468 27.7869C2.47468 27.7869 3.84429 22.2708 2.86346 18.0218C1.88309 13.7727 0.575614 2.33356 3.19055 2.00647C4.83419 1.80096 6.07316 5.62356 6.50187 6.68695C7.63876 9.50693 8.52887 12.5211 9.33503 15.4835C9.35772 15.5661 9.38085 15.6509 9.43121 15.7203C9.87262 16.331 11.4051 16.5732 11.9967 16.1649C12.4921 15.8229 12.6146 15.1555 12.6953 14.5585C12.8387 13.4992 12.9821 12.4399 13.1254 11.3806C13.4661 8.86364 13.8091 6.33037 13.7483 3.78394C13.7315 3.08484 12.9349 -0.475524 14.6302 0.372378C17.4784 1.79643 19.1025 5.73515 19.8932 8.56194C20.9621 12.3814 21.0015 16.4684 21.149 20.4072C21.2166 22.2127 21.3069 24.0433 21.1894 25.8489C21.1658 26.2023 21.2601 26.7943 21.1667 26.8465Z" fill="url(#paint1_linear_50_249)"/>
<path d="M20.071 25.6939C19.1941 25.0865 18.0196 25.0139 17.0011 24.8102C15.4672 24.5031 13.9198 24.2472 12.3569 24.1528C8.91133 23.9441 5.12187 24.5761 2.80636 27.3793C1.99022 28.3669 1.41633 29.5497 1.12871 30.7972C0.805249 32.2018 1.0661 33.1091 1.51342 34.4361C1.92353 35.6524 2.45886 36.9694 3.12031 38.0709C3.83755 39.2649 4.98486 40.2988 6.42751 40.278C7.99039 40.2553 9.51788 39.6437 10.5618 38.4587C10.6167 38.3966 10.6729 38.3308 10.75 38.2995C10.8421 38.2623 10.946 38.2818 11.0422 38.3041C13.1431 38.7854 15.249 40.1591 17.1871 41.0878C18.1135 41.5314 18.6429 41.6666 19.5811 41.1739C20.7515 40.5592 21.8662 39.8034 22.7327 38.8049C25.2954 35.8515 24.3187 31.6556 22.4451 28.6101C21.8535 27.6488 21.1208 26.5346 20.2343 25.8169C20.1808 25.7729 20.1264 25.7325 20.071 25.6939Z" fill="url(#paint2_linear_50_249)"/>
<path d="M22.1708 23.033C22.3073 23.4767 22.4788 23.9036 22.6258 24.3237C22.9706 25.0981 22.9488 25.3431 23.1162 25.8889C23.5005 27.1414 24.2128 28.1958 24.1892 29.4093C24.1719 30.3067 23.4206 30.7826 22.6018 30.8906C21.5774 31.0258 21.1854 24.8132 15.305 24.8132C9.4245 24.8132 7.5504 26.0703 4.73856 27.6391C4.08573 28.0034 2.96063 28.8994 2.36768 29.3277C-0.208251 31.1877 0.928642 25.55 1.32288 24.5179C1.69625 23.5411 1.82374 22.5948 2.39581 21.6761C2.92842 20.82 3.6248 20.0746 4.41736 19.4535C6.07642 18.1533 8.12701 17.3966 10.1971 17.0745C13.9984 16.4838 18.8518 17.2673 21.1664 20.6825C21.6368 21.3762 21.9167 22.2064 22.1708 23.033Z" fill="#F7EECB"/>
<defs>
<linearGradient id="paint0_linear_50_249" x1="13.3764" y1="19.275" x2="-0.311159" y2="-14.177" gradientUnits="userSpaceOnUse">
<stop offset="0.1599" stop-color="#BFAB8D"/>
<stop offset="0.5078" stop-color="#E7E1D2"/>
<stop offset="0.7297" stop-color="#CCBFA6"/>
</linearGradient>
<linearGradient id="paint1_linear_50_249" x1="2.32638" y1="16.2951" x2="20.0153" y2="12.9396" gradientUnits="userSpaceOnUse">
<stop offset="0.1599" stop-color="#BFAB8D"/>
<stop offset="0.5078" stop-color="#E7E1D2"/>
<stop offset="0.7297" stop-color="#CCBFA6"/>
</linearGradient>
<linearGradient id="paint2_linear_50_249" x1="29.542" y1="32.7626" x2="-3.74307" y2="32.8471" gradientUnits="userSpaceOnUse">
<stop stop-color="#94938C"/>
<stop offset="0.2296" stop-color="#EDEBE1"/>
<stop offset="0.7988" stop-color="#EDEBE1"/>
<stop offset="1" stop-color="#94938C"/>
</linearGradient>
</defs>
</svg>
