<svg width="20" height="51" viewBox="0 0 20 51" fill="none" xmlns="http://www.w3.org/2000/svg">
<path d="M16.099 20.7153C15.296 25.9715 13.8801 31.2236 12.0368 36.2035C10.0108 41.6765 7.47928 47.15 2.55788 50.5797C2.43856 50.6628 2.31062 50.7489 2.16545 50.7562C2.01755 50.7635 1.87828 50.6868 1.75987 50.5979C1.08209 50.0911 0.832572 49.1661 0.902437 48.3223C0.972302 47.4785 1.30892 46.6841 1.6029 45.8902C3.39671 41.0477 3.8345 35.7185 4.34578 30.617C4.6697 27.3874 5.43777 23.4287 4.67651 20.209C3.859 16.7534 15.5927 20.1015 16.099 20.7153Z" fill="url(#paint0_linear_50_316)"/>
<path d="M5.96197 0.732021C6.68873 0.40448 7.4468 0.396772 8.45938 0.645376C8.73339 0.712518 9.02554 0.816861 9.17434 1.05639C9.87116 2.17602 4.15186 4.32589 3.46819 3.38637C3.06352 2.82746 4.58919 1.71192 4.90856 1.43474C5.26923 1.12126 5.61174 0.88944 5.96197 0.732021Z" fill="#D8D6D0"/>
<path d="M15.8972 0.919202C16.2347 1.02082 16.4915 1.1297 16.5995 1.22452C17.1457 1.7045 17.7132 2.21533 17.9577 2.89991C18.0557 3.17438 18.0661 3.54231 17.8166 3.69292C17.7322 3.74374 17.6315 3.75917 17.5335 3.76733C16.3889 3.86124 15.0647 3.11722 14.0966 2.58598C13.7382 2.38954 12.1972 1.68046 12.2675 1.1229C12.3741 0.277715 14.67 0.55037 15.8972 0.919202Z" fill="#D8D6D0"/>
<path d="M17.913 3.02626C17.913 3.02626 20.2009 4.66037 18.8934 8.90943C18.2397 14.7926 16.2785 20.6758 16.2785 20.6758C16.2785 20.6758 15.6247 21.6561 11.0491 21.6561C6.4734 21.6561 5.16594 21.0024 4.51221 19.6949C3.85848 18.3875 2.22437 5.96739 2.22437 5.96739C2.22437 5.96739 2.55101 3.02581 3.85847 2.69917C5.16593 2.37252 6.4734 2.04542 6.80004 2.04542C7.12668 2.04542 10.0682 0.0842138 11.3757 0.411309C12.6832 0.73795 15.9518 3.3529 17.913 3.02626Z" fill="url(#paint1_linear_50_316)"/>
<path d="M4.86562 23.5441C4.72226 22.9126 4.01046 20.1225 4.01001 18.8925C4.00956 17.9466 4.5907 17.7307 4.92233 18.379C6.28379 21.0416 8.0708 21.1705 10.4167 21.2449C12.9977 21.3265 13.9798 21.4095 15.5545 18.8975C16.9346 17.3228 16.9818 20.0499 16.8198 20.8307C16.637 21.9431 16.4492 22.9602 16.1266 23.8676C13.2449 31.5342 6.49838 29.6805 4.86562 23.5441Z" fill="#F7EECB"/>
<defs>
<linearGradient id="paint0_linear_50_316" x1="12.8708" y1="34.6827" x2="2.50434" y2="34.7201" gradientUnits="userSpaceOnUse">
<stop stop-color="#BFAB8D"/>
<stop offset="0.5078" stop-color="#E7E1D2"/>
<stop offset="1" stop-color="#CCBFA6"/>
</linearGradient>
<linearGradient id="paint1_linear_50_316" x1="22.9309" y1="10.9725" x2="-1.20108" y2="11.0597" gradientUnits="userSpaceOnUse">
<stop stop-color="#94938C"/>
<stop offset="0.2296" stop-color="#EDEBE1"/>
<stop offset="0.7988" stop-color="#EDEBE1"/>
<stop offset="1" stop-color="#94938C"/>
</linearGradient>
</defs>
</svg>
