<svg width="19" height="53" viewBox="0 0 19 53" fill="none" xmlns="http://www.w3.org/2000/svg">
<path d="M15.4514 21.7334C15.4514 21.7334 9.24152 47.2274 4.01159 51.476C-1.2179 55.7251 1.39661 47.2269 1.39661 47.2269C1.39661 47.2269 3.35786 31.5386 3.35786 28.597C3.35786 25.6554 2.31802 20.1465 2.31802 20.1465C2.31802 20.1465 12.39 22.315 15.4514 21.7334Z" fill="url(#paint0_linear_50_304)"/>
<path d="M15.778 2.44915C15.778 2.44915 19.0462 4.08326 18.0658 8.65897C17.0854 13.2347 17.4121 15.8496 17.4121 15.8496C17.4121 15.8496 16.7584 23.694 11.2023 24.0206C5.64634 24.3473 2.05108 21.0791 1.72398 19.1178C1.39735 17.1566 1.39734 11.6006 1.07025 10.6197C0.743159 9.6389 -0.237207 3.42908 3.03143 2.4487C6.30007 1.46832 8.2608 1.14122 8.2608 1.14122C8.2608 1.14122 11.529 0.161302 15.778 2.44915Z" fill="url(#paint1_linear_50_304)"/>
<path d="M2.69589 24.3355C2.52712 23.4585 1.6901 19.5837 1.69509 17.8738C1.69917 16.5586 2.39511 16.2564 2.78844 17.1561C4.4035 20.8508 6.53984 21.0209 9.34442 21.113C12.4303 21.2142 13.6044 21.3249 15.4994 17.8262C17.1571 15.6304 17.2001 19.4213 17.0028 20.5074C16.7787 22.0539 16.5491 23.4689 16.1594 24.732C12.6771 35.401 4.61854 32.8568 2.69589 24.3355Z" fill="#F7EECB"/>
<defs>
<linearGradient id="paint0_linear_50_304" x1="2.19184" y1="36.4066" x2="13.7484" y2="36.4483" gradientUnits="userSpaceOnUse">
<stop stop-color="#BFAB8D"/>
<stop offset="0.5078" stop-color="#E7E1D2"/>
<stop offset="1" stop-color="#CCBFA6"/>
</linearGradient>
<linearGradient id="paint1_linear_50_304" x1="-2.60508" y1="12.4419" x2="21.5616" y2="12.5292" gradientUnits="userSpaceOnUse">
<stop stop-color="#94938C"/>
<stop offset="0.2296" stop-color="#EDEBE1"/>
<stop offset="0.4283" stop-color="#EDEBE1"/>
<stop offset="0.7988" stop-color="#EDEBE1"/>
<stop offset="1" stop-color="#94938C"/>
</linearGradient>
</defs>
</svg>
