<svg width="19" height="67" viewBox="0 0 19 67" fill="none" xmlns="http://www.w3.org/2000/svg">
<path d="M15.6941 26.9452C13.7891 26.9352 11.8547 26.7597 9.95289 26.6072C7.6496 26.4226 4.41537 26.5355 2.31214 25.435C2.11979 25.3342 2.05627 24.9917 1.87934 24.8706C1.47693 26.2198 1.82126 28.382 1.90065 29.7634C2.12794 33.7125 2.3026 37.6689 2.2645 41.6253C2.24317 43.8092 2.12159 45.9777 1.92515 48.1522C1.65385 51.1549 0.639891 54.0865 0.36678 57.1202C0.17533 59.2474 0.207547 61.41 0.622657 63.5105C0.753315 64.171 0.943413 65.8836 1.5164 66.0415C2.27222 66.2492 3.41228 65.0869 3.79201 64.5748C5.04777 62.8817 5.36988 60.5889 6.01228 58.6273C6.73089 56.4315 7.57293 54.2784 8.43309 52.1349C10.1103 47.9534 11.8742 43.7829 12.9544 39.3964C13.5854 36.8337 13.8663 34.2084 14.4588 31.6361C14.8208 30.0601 15.2486 28.4995 15.6941 26.9452Z" fill="url(#paint0_linear_50_294)"/>
<path d="M17.8874 8.19464C17.8874 8.19464 18.866 2.96478 16.5772 1.33158C14.2885 -0.301619 13.3085 0.352565 13.3085 0.352565C12.3622 0.611155 11.4113 0.85342 10.4586 1.08615C8.88981 1.46905 7.19627 2.01798 5.57033 1.97579C5.24459 1.96717 4.91795 1.93087 4.59403 1.96354C2.171 2.20579 1.77766 4.78626 1.41382 6.67668C0.947 9.10108 0.618099 11.5572 0.42393 14.0179C0.263785 16.0499 0.185745 18.105 0.357231 20.1392C0.481536 21.6127 0.687505 23.2959 1.55265 24.5443C2.76167 26.2887 4.97738 27.0813 6.95899 27.5372C9.47412 28.1161 12.1172 28.2522 14.6895 28.1437C16.0881 28.0843 16.4778 24.9676 16.5559 23.9786C16.971 18.7138 17.4119 13.4535 17.8874 8.19464Z" fill="url(#paint1_linear_50_294)"/>
<path d="M1.60115 28.4169C1.4029 27.4469 0.427523 23.1643 0.399395 21.2666C0.377619 19.8072 1.11846 19.457 1.55807 20.4469C3.36413 24.5135 5.66015 24.6578 8.67115 24.7009C11.9843 24.7485 13.2464 24.847 15.2099 20.9237C16.9452 18.4521 17.0667 22.658 16.8762 23.8675C16.6662 25.5887 16.4484 27.1639 16.0551 28.5738C12.5305 40.4885 3.83366 37.8336 1.60115 28.4169Z" fill="#F7EECB"/>
<defs>
<linearGradient id="paint0_linear_50_294" x1="11.066" y1="45.4307" x2="1.98412" y2="45.4672" gradientUnits="userSpaceOnUse">
<stop stop-color="#BFAB8D"/>
<stop offset="0.5078" stop-color="#E7E1D2"/>
<stop offset="1" stop-color="#CCBFA6"/>
</linearGradient>
<linearGradient id="paint1_linear_50_294" x1="22.5589" y1="14.1639" x2="-3.76867" y2="14.27" gradientUnits="userSpaceOnUse">
<stop stop-color="#94938C"/>
<stop offset="0.2296" stop-color="#EDEBE1"/>
<stop offset="0.7988" stop-color="#EDEBE1"/>
<stop offset="1" stop-color="#94938C"/>
</linearGradient>
</defs>
</svg>
