<svg width="17" height="64" viewBox="0 0 17 64" fill="none" xmlns="http://www.w3.org/2000/svg">
<path d="M14.4604 23.0591C14.4604 23.0591 6.28945 26.981 4.00163 23.7128C4.09146 26.9243 4.1468 30.1376 4.18899 33.3499C4.26883 39.4585 4.30105 45.5729 4.12276 51.6801C4.06015 53.825 4.01025 55.9727 3.80519 58.1099C3.70085 59.1987 3.55704 60.2843 3.35153 61.3585C3.25671 61.853 2.97273 62.4355 3.20183 62.8869C3.50669 63.4871 4.29425 63.6232 4.84454 63.3528C5.61894 62.9718 6.12794 62.0345 6.51219 61.3109C7.43903 59.5652 8.03697 57.6358 8.57773 55.7431C11.8459 44.3036 13.9568 26.575 14.4604 23.0591Z" fill="url(#paint0_linear_50_284)"/>
<path d="M15.7169 0.62155C14.9443 0.225047 13.7408 0.470026 12.8942 0.462768C11.3237 0.449611 9.7531 0.454151 8.18298 0.499517C6.42868 0.550328 3.98936 0.349811 2.36707 1.16096C0.809206 1.93991 0.643611 3.88567 0.690792 5.41407C0.877699 11.4514 1.26649 17.8059 3.70174 23.4191C4.41489 25.0627 5.41022 26.7213 6.96809 27.6885C9.38202 29.1874 12.1452 28.3187 13.5212 25.9188C14.6227 23.998 15.0464 21.7836 15.2773 19.6115C15.452 17.967 15.3427 16.3102 15.4592 14.6625C15.5822 12.9258 16.0944 11.2409 16.3743 9.52472C16.8166 6.8109 17.3519 3.97912 16.3407 1.32564C16.211 0.983576 15.9909 0.762186 15.7169 0.62155Z" fill="url(#paint1_linear_50_284)"/>
<path d="M2.85657 24.8506C2.68599 23.8811 1.84625 19.5989 1.82311 17.7016C1.80542 16.2422 2.44645 15.8915 2.82571 16.8809C4.38404 20.9458 6.36882 21.0883 8.97193 21.1291C11.8364 21.174 12.9274 21.2711 14.6282 17.3469C16.1303 14.8739 16.2319 19.0799 16.0663 20.2894C15.8835 22.011 15.6939 23.5862 15.3527 24.9962C12.2955 36.9137 4.77874 34.2661 2.85657 24.8506Z" fill="#F7EECB"/>
<defs>
<linearGradient id="paint0_linear_50_284" x1="1.82151" y1="43.245" x2="11.0545" y2="43.2784" gradientUnits="userSpaceOnUse">
<stop stop-color="#BFAB8D"/>
<stop offset="0.5078" stop-color="#E7E1D2"/>
<stop offset="1" stop-color="#CCBFA6"/>
</linearGradient>
<linearGradient id="paint1_linear_50_284" x1="-2.02964" y1="14.361" x2="20.163" y2="14.4411" gradientUnits="userSpaceOnUse">
<stop stop-color="#94938C"/>
<stop offset="0.2296" stop-color="#EDEBE1"/>
<stop offset="0.7988" stop-color="#EDEBE1"/>
<stop offset="1" stop-color="#94938C"/>
</linearGradient>
</defs>
</svg>
