<svg width="16" height="66" viewBox="0 0 16 66" fill="none" xmlns="http://www.w3.org/2000/svg">
<path d="M2.31406 24.9316C2.3136 32.4658 0.778899 39.9459 0.428676 47.4745C0.285774 50.5432 0.0494012 53.6109 0.0938597 56.685C0.128791 59.1216 -0.0576443 63.1852 1.46165 65.2603C2.10494 66.1367 4.00848 62.2347 4.1904 61.86C5.32953 59.5141 6.03723 57.0202 6.91733 54.5722C7.8877 51.8724 8.87713 49.1558 9.67239 46.3975C10.7335 42.7173 11.3382 38.8843 12.0142 35.1193C12.1199 34.5295 13.0435 26.9477 13.4264 26.8933C13.4228 26.8933 4.27431 28.1994 2.31406 24.9316Z" fill="url(#paint0_linear_50_274)"/>
<path d="M14.922 0.89102C14.7732 0.755372 14.5105 0.72679 14.0242 0.685959C13.2802 0.623806 12.5071 0.678252 11.7613 0.679613C8.72127 0.68551 5.68126 0.745393 2.64124 0.745393C2.64124 0.745393 -0.300343 1.39913 0.0262969 3.03326C0.352937 4.66739 1.33375 24.932 2.31412 26.2395C3.2945 27.547 5.58235 31.7961 10.4851 30.4886C15.3875 29.1812 14.4071 17.7422 14.4071 17.7418C14.2778 15.6699 14.7986 13.3747 14.9397 11.3037C15.1493 8.22871 15.3285 5.12696 15.1524 2.04562C15.1143 1.3701 15.1003 1.05389 14.922 0.89102Z" fill="url(#paint1_linear_50_274)"/>
<path d="M1.79065 30.0347C1.62007 29.0652 0.780331 24.783 0.757195 22.8857C0.739502 21.4262 1.38053 21.0756 1.75979 22.065C3.31813 26.1299 5.3029 26.2723 7.90602 26.3132C10.7704 26.3581 11.8615 26.4552 13.5623 22.5309C15.0644 20.058 15.166 24.264 15.0004 25.4734C14.8176 27.1951 14.6279 28.7703 14.2868 30.1803C11.2295 42.0973 3.71282 39.4497 1.79065 30.0347Z" fill="#F7EECB"/>
<defs>
<linearGradient id="paint0_linear_50_274" x1="12.3453" y1="45.1225" x2="-3.95963" y2="45.1814" gradientUnits="userSpaceOnUse">
<stop stop-color="#BFAB8D"/>
<stop offset="0.5078" stop-color="#E7E1D2"/>
<stop offset="1" stop-color="#CCBFA6"/>
</linearGradient>
<linearGradient id="paint1_linear_50_274" x1="17.4788" y1="15.6724" x2="-2.06422" y2="15.743" gradientUnits="userSpaceOnUse">
<stop stop-color="#94938C"/>
<stop offset="0.2296" stop-color="#EDEBE1"/>
<stop offset="0.7988" stop-color="#EDEBE1"/>
<stop offset="1" stop-color="#94938C"/>
</linearGradient>
</defs>
</svg>
