<svg width="16" height="66" viewBox="0 0 16 66" fill="none" xmlns="http://www.w3.org/2000/svg">
<path d="M13.0163 24.751C13.0168 32.285 14.5515 39.765 14.9018 47.2936C15.0447 50.3622 15.281 53.4299 15.2366 56.5039C15.2017 58.9406 15.3881 63.004 13.8688 65.0791C13.2254 65.9556 11.3218 62.0536 11.1399 61.6789C10.0007 59.333 9.29301 56.8392 8.41288 54.3912C7.44247 51.6914 6.45301 48.9749 5.65772 46.2166C4.59658 42.5365 3.99182 38.7035 3.31585 34.9385C3.21014 34.3487 2.28647 26.7671 1.90356 26.7126C1.90674 26.7126 11.0555 28.0187 13.0163 24.751Z" fill="url(#paint0_linear_50_269)"/>
<path d="M0.407762 0.709866C0.556565 0.574219 0.819239 0.545637 1.30557 0.504807C2.04958 0.442654 2.82263 0.497099 3.56845 0.49846C6.60847 0.504358 9.64851 0.56424 12.6885 0.56424C12.6885 0.56424 15.6301 1.21797 15.3034 2.85209C14.9768 4.48621 13.996 24.7507 13.0156 26.0582C12.0352 27.3657 9.74741 31.6148 4.84464 30.3073C-0.0576864 28.9998 0.922678 17.561 0.922678 17.5605C1.05197 15.4886 0.531153 13.1935 0.390063 11.1225C0.180469 8.04751 0.00127315 4.94578 0.177296 1.86445C0.215857 1.18894 0.229925 0.872733 0.407762 0.709866Z" fill="url(#paint1_linear_50_269)"/>
<path d="M13.5389 29.8537C13.7095 28.8843 14.5492 24.6022 14.5724 22.705C14.5901 21.2456 13.949 20.8949 13.5698 21.8843C12.0114 25.9491 10.0267 26.0915 7.42358 26.1324C4.55917 26.1773 3.46858 26.2744 1.76735 22.3502C0.265284 19.8773 0.163655 24.0832 0.329241 25.2927C0.512066 27.0143 0.701695 28.5894 1.04285 29.9994C4.10007 41.9161 11.6168 39.2685 13.5389 29.8537Z" fill="#F7EECB"/>
<defs>
<linearGradient id="paint0_linear_50_269" x1="2.9843" y1="44.9416" x2="19.2898" y2="45.0005" gradientUnits="userSpaceOnUse">
<stop stop-color="#BFAB8D"/>
<stop offset="0.5078" stop-color="#E7E1D2"/>
<stop offset="1" stop-color="#CCBFA6"/>
</linearGradient>
<linearGradient id="paint1_linear_50_269" x1="-2.14902" y1="15.4911" x2="17.394" y2="15.5617" gradientUnits="userSpaceOnUse">
<stop stop-color="#94938C"/>
<stop offset="0.2296" stop-color="#EDEBE1"/>
<stop offset="0.7988" stop-color="#EDEBE1"/>
<stop offset="1" stop-color="#94938C"/>
</linearGradient>
</defs>
</svg>
