<svg width="18" height="64" viewBox="0 0 18 64" fill="none" xmlns="http://www.w3.org/2000/svg">
<path d="M3.22913 23.1045C3.22913 23.1045 11.4003 27.0264 13.6882 23.7582C13.5983 26.9697 13.543 30.183 13.5008 33.3953C13.421 39.5039 13.3888 45.6184 13.567 51.7255C13.6297 53.8705 13.6796 56.0181 13.8846 58.1553C13.989 59.2441 14.1328 60.3297 14.3383 61.4039C14.4327 61.8984 14.7171 62.4809 14.488 62.9323C14.1831 63.5325 13.3956 63.6686 12.8452 63.3982C12.0708 63.0172 11.5618 62.0799 11.1775 61.3563C10.2507 59.6106 9.65272 57.6812 9.11194 55.7885C5.84411 44.349 3.73316 26.6204 3.22913 23.1045Z" fill="url(#paint0_linear_50_279)"/>
<path d="M1.97294 0.66696C2.74554 0.270457 3.9491 0.515436 4.79564 0.508178C6.36623 0.495021 7.93682 0.499561 9.50696 0.544927C11.2613 0.595738 13.7007 0.395221 15.323 1.20637C16.8808 1.98532 17.0464 3.93108 16.9992 5.45948C16.8123 11.4969 16.4236 17.8513 13.9883 23.4645C13.2751 25.1081 12.2798 26.7667 10.7219 27.734C8.30793 29.2329 5.54465 28.3641 4.16868 25.9642C3.06718 24.0434 2.64346 21.8291 2.41254 19.6569C2.23788 18.0124 2.3472 16.3556 2.23061 14.7079C2.10767 12.9713 1.59548 11.2863 1.31557 9.57013C0.873249 6.85631 0.337934 4.02453 1.34915 1.37105C1.4789 1.02899 1.69848 0.807596 1.97294 0.66696Z" fill="url(#paint1_linear_50_279)"/>
<path d="M14.8338 24.896C15.0044 23.9265 15.8441 19.6443 15.8673 17.747C15.885 16.2876 15.244 15.9369 14.8647 16.9263C13.3063 20.9912 11.3214 21.1337 8.71826 21.1745C5.85375 21.2194 4.76312 21.3165 3.06184 17.3923C1.55972 14.9193 1.45808 19.1253 1.62368 20.3348C1.80651 22.0565 1.99614 23.6316 2.33731 25.0416C5.39463 36.9591 12.9116 34.3115 14.8338 24.896Z" fill="#F7EECB"/>
<defs>
<linearGradient id="paint0_linear_50_279" x1="15.8687" y1="43.2904" x2="6.63542" y2="43.3238" gradientUnits="userSpaceOnUse">
<stop stop-color="#BFAB8D"/>
<stop offset="0.5078" stop-color="#E7E1D2"/>
<stop offset="1" stop-color="#CCBFA6"/>
</linearGradient>
<linearGradient id="paint1_linear_50_279" x1="19.7195" y1="14.4064" x2="-2.4734" y2="14.4865" gradientUnits="userSpaceOnUse">
<stop stop-color="#94938C"/>
<stop offset="0.2296" stop-color="#EDEBE1"/>
<stop offset="0.7988" stop-color="#EDEBE1"/>
<stop offset="1" stop-color="#94938C"/>
</linearGradient>
</defs>
</svg>
