<svg width="19" height="67" viewBox="0 0 19 67" fill="none" xmlns="http://www.w3.org/2000/svg">
<path d="M3.1731 27.4442C5.07803 27.4342 7.01246 27.2587 8.91421 27.1063C11.2175 26.9216 14.4516 27.0346 16.5548 25.934C16.7472 25.8333 16.8107 25.4908 16.9876 25.3696C17.39 26.7188 17.0457 28.881 16.9663 30.2624C16.739 34.2115 16.5643 38.1679 16.6024 42.1243C16.6237 44.3083 16.7453 46.4768 16.9418 48.6512C17.2131 51.654 18.227 54.5856 18.5001 57.6192C18.6915 59.7464 18.6594 61.909 18.2442 64.0095C18.1136 64.67 17.9235 66.3826 17.3505 66.5405C16.5947 66.7483 15.4547 65.586 15.0749 65.0738C13.8192 63.3807 13.4971 61.0879 12.8547 59.1263C12.1361 56.9305 11.2941 54.7774 10.4344 52.6339C8.75723 48.4525 6.99341 44.2819 5.91324 39.8955C5.28219 37.3327 5.00137 34.7074 4.40888 32.1351C4.04595 30.5591 3.61859 28.9985 3.1731 27.4442Z" fill="url(#paint0_linear_50_289)"/>
<path d="M0.979649 8.69366C0.979649 8.69366 0.00107423 3.4638 2.28985 1.8306C4.57862 0.197404 5.55854 0.851588 5.55854 0.851588C6.5049 1.11018 7.45581 1.35244 8.40852 1.58517C9.97732 1.96807 11.6709 2.517 13.2968 2.47481C13.6226 2.46619 13.9492 2.42989 14.2731 2.46256C16.6962 2.70482 17.0895 5.28528 17.4534 7.17571C17.9202 9.6001 18.2491 12.0563 18.4433 14.5169C18.6034 16.5489 18.681 18.604 18.51 20.6383C18.3857 22.1118 18.1797 23.7949 17.3146 25.0434C16.106 26.7877 13.8898 27.5803 11.9081 28.0362C9.39297 28.6151 6.74989 28.7512 4.17757 28.6427C2.7789 28.5833 2.38919 25.4666 2.31116 24.4777C1.89605 19.2129 1.4551 13.9526 0.979649 8.69366Z" fill="url(#paint1_linear_50_289)"/>
<path d="M17.2658 28.9156C17.4641 27.9457 18.4395 23.6629 18.4676 21.7652C18.4894 20.3057 17.7485 19.9555 17.3089 20.9454C15.5029 25.0122 13.207 25.1565 10.1961 25.1996C6.88302 25.2472 5.62096 25.3456 3.65753 21.4222C1.9223 18.9506 1.80072 23.1566 1.99126 24.3662C2.2013 26.0874 2.41904 27.6626 2.81236 29.0726C6.33681 40.9876 15.0334 38.3327 17.2658 28.9156Z" fill="#F7EECB"/>
<defs>
<linearGradient id="paint0_linear_50_289" x1="7.8011" y1="45.9297" x2="16.8827" y2="45.9663" gradientUnits="userSpaceOnUse">
<stop stop-color="#BFAB8D"/>
<stop offset="0.5078" stop-color="#E7E1D2"/>
<stop offset="1" stop-color="#CCBFA6"/>
</linearGradient>
<linearGradient id="paint1_linear_50_289" x1="-3.69198" y1="14.6629" x2="22.6358" y2="14.769" gradientUnits="userSpaceOnUse">
<stop stop-color="#94938C"/>
<stop offset="0.2296" stop-color="#EDEBE1"/>
<stop offset="0.7988" stop-color="#EDEBE1"/>
<stop offset="1" stop-color="#94938C"/>
</linearGradient>
</defs>
</svg>
