<svg width="19" height="53" viewBox="0 0 19 53" fill="none" xmlns="http://www.w3.org/2000/svg">
<path d="M3.65015 21.5518C3.65015 21.5518 9.85983 47.0453 15.0896 51.2939C20.3189 55.5429 17.7045 47.0449 17.7045 47.0449C17.7045 47.0449 15.7433 31.3568 15.7433 28.4152C15.7433 25.4737 16.7831 19.9648 16.7831 19.9648C16.7831 19.9648 6.71143 22.1333 3.65015 21.5518Z" fill="url(#paint0_linear_50_299)"/>
<path d="M3.32304 2.26799C3.32304 2.26799 0.0547476 3.90208 1.03515 8.47774C2.01555 13.0534 1.68889 15.6683 1.68889 15.6683C1.68889 15.6683 2.34265 23.5126 7.89887 23.8393C13.4551 24.1659 17.0505 20.8977 17.3776 18.9365C17.7047 16.9753 17.7042 11.4193 18.0313 10.4385C18.358 9.45812 19.3388 3.2479 16.0701 2.26753C12.8013 1.28716 10.8405 0.960069 10.8405 0.960069C10.8405 0.960069 7.5722 -0.0198425 3.32304 2.26799Z" fill="url(#paint1_linear_50_299)"/>
<path d="M16.4061 24.1539C16.5748 23.277 17.4119 19.4024 17.4069 17.6926C17.4028 16.3774 16.7069 16.0753 16.3135 16.9749C14.6984 20.6694 12.562 20.8396 9.75725 20.9317C6.67126 21.0328 5.49712 21.1435 3.60206 17.6449C1.94428 15.4493 1.90117 19.24 2.09852 20.326C2.32265 21.8725 2.55221 23.2874 2.94193 24.5504C6.42399 35.2189 14.4829 32.6749 16.4061 24.1539Z" fill="#F7EECB"/>
<defs>
<linearGradient id="paint0_linear_50_299" x1="16.9093" y1="36.2247" x2="5.35312" y2="36.2664" gradientUnits="userSpaceOnUse">
<stop stop-color="#BFAB8D"/>
<stop offset="0.5078" stop-color="#E7E1D2"/>
<stop offset="1" stop-color="#CCBFA6"/>
</linearGradient>
<linearGradient id="paint1_linear_50_299" x1="21.7068" y1="12.2606" x2="-2.46072" y2="12.3479" gradientUnits="userSpaceOnUse">
<stop stop-color="#94938C"/>
<stop offset="0.2296" stop-color="#EDEBE1"/>
<stop offset="0.4283" stop-color="#EDEBE1"/>
<stop offset="0.7988" stop-color="#EDEBE1"/>
<stop offset="1" stop-color="#94938C"/>
</linearGradient>
</defs>
</svg>
