<svg width="20" height="51" viewBox="0 0 20 51" fill="none" xmlns="http://www.w3.org/2000/svg">
<path d="M4.05322 20.7483C4.85622 26.0044 6.27212 31.2565 8.11538 36.2364C10.1415 41.7094 12.6729 47.1829 17.5943 50.6126C17.7137 50.6956 17.8416 50.7818 17.9868 50.7891C18.1347 50.7963 18.2739 50.7197 18.3923 50.6308C19.0701 50.124 19.3196 49.199 19.2498 48.3552C19.1799 47.5114 18.8433 46.717 18.5493 45.9231C16.7555 41.0806 16.3177 35.7515 15.8064 30.65C15.4825 27.4203 14.7145 23.4617 15.4757 20.242C16.2932 16.7869 4.55997 20.1345 4.05322 20.7483Z" fill="url(#paint0_linear_50_309)"/>
<path d="M14.1909 0.764734C13.4642 0.437196 12.7062 0.429487 11.6938 0.67809C11.4198 0.745231 11.1277 0.849574 10.9789 1.0891C10.2822 2.20872 16.0008 4.35859 16.6844 3.41907C17.089 2.86017 15.5635 1.74463 15.2442 1.46745C14.8836 1.15442 14.5406 0.922606 14.1909 0.764734Z" fill="#D8D6D0"/>
<path d="M4.25536 0.951428C3.91785 1.05305 3.66108 1.16193 3.55312 1.25675C3.00693 1.73673 2.43942 2.24755 2.1949 2.93214C2.09691 3.20661 2.08647 3.57453 2.33598 3.72515C2.42036 3.77596 2.52108 3.79139 2.61906 3.79956C3.76362 3.89347 5.0878 3.14945 6.05588 2.6182C6.41426 2.42177 7.95531 1.71268 7.885 1.15512C7.77794 0.309941 5.48202 0.582596 4.25536 0.951428Z" fill="#D8D6D0"/>
<path d="M2.23987 3.05896C2.23987 3.05896 -0.0479272 4.69307 1.25952 8.94212C1.91324 14.8253 3.87442 20.7085 3.87442 20.7085C3.87442 20.7085 4.52812 21.6888 9.10373 21.6888C13.6793 21.6888 14.9868 21.0351 15.6405 19.7276C16.2942 18.4202 17.9283 6.00009 17.9283 6.00009C17.9283 6.00009 17.6017 3.05851 16.2942 2.73187C14.9868 2.40523 13.6793 2.07814 13.3527 2.07814C13.0261 2.07814 10.0846 0.116929 8.77711 0.444023C7.46921 0.771118 4.20059 3.3856 2.23987 3.05896Z" fill="url(#paint1_linear_50_309)"/>
<path d="M15.2865 23.5766C15.4298 22.9451 16.1416 20.1551 16.1421 18.9252C16.1425 17.9794 15.5614 17.7634 15.2297 18.4117C13.8687 21.0742 12.0813 21.2031 9.73537 21.2775C7.15445 21.3591 6.17226 21.4422 4.59757 18.9302C3.21751 17.3556 3.17033 20.0825 3.33229 20.8633C3.51511 21.9757 3.70295 22.9928 4.0255 23.9001C6.90721 31.567 13.6537 29.7129 15.2865 23.5766Z" fill="#F7EECB"/>
<defs>
<linearGradient id="paint0_linear_50_309" x1="7.28156" y1="34.7158" x2="17.648" y2="34.7533" gradientUnits="userSpaceOnUse">
<stop stop-color="#BFAB8D"/>
<stop offset="0.5078" stop-color="#E7E1D2"/>
<stop offset="1" stop-color="#CCBFA6"/>
</linearGradient>
<linearGradient id="paint1_linear_50_309" x1="-2.7782" y1="11.0054" x2="21.3534" y2="11.0926" gradientUnits="userSpaceOnUse">
<stop stop-color="#94938C"/>
<stop offset="0.2296" stop-color="#EDEBE1"/>
<stop offset="0.7988" stop-color="#EDEBE1"/>
<stop offset="1" stop-color="#94938C"/>
</linearGradient>
</defs>
</svg>
