<svg width="27" height="51" viewBox="0 0 27 51" fill="none" xmlns="http://www.w3.org/2000/svg">
<path d="M10.7301 2.22205C10.7301 2.22205 9.82409 0.167842 7.98989 0.682302C6.1557 1.19676 5.52192 5.99066 5.85401 9.52474C6.1861 13.0588 7.75761 24.2717 10.4601 24.5026C13.1627 24.7335 18.105 18.3826 15.8566 14.8444C13.6082 11.3067 9.88761 5.09603 10.7301 2.22205Z" fill="url(#paint0_linear_50_236)"/>
<path d="M22.5533 32.6737C19.3545 32.4432 15.7248 30.8794 12.5201 30.7529C10.5099 30.6735 8.49881 30.5405 6.48635 30.605C5.55589 30.6345 4.17175 33.1151 3.26987 33.0003C2.68464 32.9259 3.07072 30.5224 3.09476 29.9004C3.11518 29.371 3.16009 28.8438 3.08251 28.3162C2.80396 26.4144 1.75781 24.6088 1.32275 22.7071C0.819183 20.5072 0.478937 18.2648 0.269798 16.0182C0.0479561 13.6346 -0.0455022 11.2007 0.266165 8.82075C0.400449 7.79455 0.583729 6.75248 0.991119 5.79479C1.30823 5.04942 2.07719 3.58634 3.05983 3.6984C3.42049 3.73968 3.7435 3.94474 4.01343 4.18836C4.5424 4.66607 4.91077 5.3021 5.15439 5.97217C5.6566 7.3545 5.64571 8.84299 5.74234 10.2911C5.84214 11.7841 6.24908 13.1669 6.58389 14.6159C7.20541 17.3084 7.93943 20.4773 9.70328 22.6844C10.1324 23.2215 10.7776 23.6561 11.4621 23.5913C11.8133 23.5577 12.1413 23.3962 12.428 23.1907C13.461 22.4498 13.9863 21.1714 14.1655 19.9129C14.5325 17.3343 14.2562 14.4898 13.5671 11.9901C13.1629 10.5229 12.4162 9.2091 11.9598 7.7746C11.4776 6.25799 10.8234 3.24926 12.9615 2.67174C13.8244 2.43856 14.743 2.87953 15.3881 3.49833C17.7799 5.79162 19.3954 9.20093 20.7786 12.157C21.6269 13.9694 22.4458 15.8431 22.968 17.7802C23.2819 18.9448 23.2483 20.1053 23.2152 21.3079C23.1222 24.6696 22.9271 29.3401 22.5533 32.6737Z" fill="url(#paint1_linear_50_236)"/>
<path d="M3.61376 34.84C3.34156 34.923 2.95141 35.6625 2.80034 35.8753C2.20196 36.7196 1.68386 37.6283 1.29598 38.5891C0.250729 41.1782 0.402254 44.0177 2.363 46.1386C2.38614 46.1636 2.40973 46.1885 2.43287 46.2135C2.53857 46.3246 2.64882 46.433 2.73502 46.5596C2.97682 46.9148 3.03443 47.3599 3.26353 47.7242C3.47993 48.0685 3.79796 48.3906 4.106 48.6506C4.83141 49.263 5.79771 49.6885 6.76266 49.5933C7.09429 49.5606 7.4105 49.4427 7.72217 49.3256C9.07546 48.8175 10.5449 48.2382 11.2626 46.8944C11.1809 47.0477 11.5534 47.6715 11.6473 47.7986C11.8723 48.1043 12.1481 48.2373 12.4961 48.3715C13.6452 48.8157 14.896 49.1723 15.9975 49.723C16.7587 50.0161 17.4011 50.2946 18.1755 50.0406C18.6265 49.8927 19.0833 49.763 19.5293 49.5996C20.364 49.2943 21.7527 48.7599 21.7527 47.677C21.7527 46.0025 23.1482 40.9795 19.7992 35.9565C16.4516 30.9353 3.6242 34.8368 3.61376 34.84Z" fill="#D8D6D0"/>
<path d="M3.59661 30.7128C3.27768 30.8099 2.82038 31.6764 2.6439 31.9255C1.94298 32.9145 1.33642 33.9788 0.88184 35.1039C-0.342618 38.1367 -0.164777 41.4625 2.13125 43.9459C2.15847 43.975 2.18615 44.0045 2.21337 44.0335C2.33722 44.1637 2.46606 44.2907 2.56722 44.4391C2.85077 44.8555 2.91792 45.3759 3.18604 45.8033C3.43919 46.2061 3.81165 46.5836 4.17277 46.8884C5.0225 47.6057 6.1544 48.1038 7.28404 47.9927C7.67238 47.9546 8.04258 47.8162 8.40778 47.6792C9.99291 47.0844 11.7141 46.4053 12.5548 44.8315C12.4591 45.0107 12.8955 45.7416 13.0053 45.8908C13.2689 46.2488 13.5923 46.4044 13.9993 46.5618C15.3453 47.0821 16.8102 47.4995 18.1005 48.1446C18.9919 48.4881 19.7441 48.8143 20.6515 48.5166C21.1795 48.3433 21.7149 48.1914 22.237 48.0004C23.2147 47.6429 24.8416 47.0168 24.8416 45.7484C24.8416 43.7871 26.4757 37.9039 22.5537 32.0208C18.6331 26.1394 3.60931 30.7092 3.59661 30.7128Z" fill="url(#paint2_linear_50_236)"/>
<path d="M24.3659 28.9825C24.5206 29.4856 24.7153 29.9697 24.8822 30.4465C25.2733 31.3248 25.2483 31.6024 25.4384 32.2212C25.8744 33.6421 26.6819 34.8375 26.6551 36.2139C26.6356 37.2315 25.7836 37.7709 24.855 37.8938C23.6931 38.0472 23.2485 31.0013 16.5796 31.0013C9.91072 31.0013 7.78528 32.4267 4.59599 34.206C3.85561 34.6188 2.5799 35.6355 1.90712 36.1209C-1.0145 38.2304 0.274814 31.8369 0.722584 30.6665C1.14631 29.5586 1.29058 28.4853 1.93932 27.4437C2.54361 26.4728 3.33345 25.6272 4.23171 24.9231C6.11352 23.4487 8.43902 22.5899 10.7868 22.2251C15.098 21.5551 20.6023 22.4434 23.2272 26.3172C23.7603 27.1039 24.0778 28.0452 24.3659 28.9825Z" fill="#F7EECB"/>
<defs>
<linearGradient id="paint0_linear_50_236" x1="14.2398" y1="23.4765" x2="-4.3221" y2="-21.8892" gradientUnits="userSpaceOnUse">
<stop offset="0.1599" stop-color="#BFAB8D"/>
<stop offset="0.5078" stop-color="#E7E1D2"/>
<stop offset="0.7297" stop-color="#CCBFA6"/>
</linearGradient>
<linearGradient id="paint1_linear_50_236" x1="1.3662" y1="17.4879" x2="22.2766" y2="18.4334" gradientUnits="userSpaceOnUse">
<stop offset="0.1599" stop-color="#BFAB8D"/>
<stop offset="0.5078" stop-color="#E7E1D2"/>
<stop offset="0.7297" stop-color="#CCBFA6"/>
</linearGradient>
<linearGradient id="paint2_linear_50_236" x1="-5.65948" y1="41.1523" x2="29.1634" y2="37.4953" gradientUnits="userSpaceOnUse">
<stop stop-color="#94938C"/>
<stop offset="0.2296" stop-color="#EDEBE1"/>
<stop offset="0.7988" stop-color="#EDEBE1"/>
<stop offset="1" stop-color="#94938C"/>
</linearGradient>
</defs>
</svg>
