<svg width="29" height="50" viewBox="0 0 29 50" fill="none" xmlns="http://www.w3.org/2000/svg">
<path d="M9.25021 0.443077C7.93735 0.532442 6.9239 0.917573 5.84603 1.65789C5.55434 1.85839 5.27806 2.10017 5.33568 2.38686C5.60424 3.72597 15.4792 2.64997 15.3844 1.47553C15.3254 0.777855 12.1141 0.590508 11.395 0.513392C10.5835 0.425842 9.88214 0.400437 9.25021 0.443077Z" fill="#D8D6D0"/>
<path d="M19.4151 45.8107C20.0906 47.9747 18.4956 48.8575 17.0139 47.5755C14.1495 45.0966 12.4918 41.1202 11.0337 37.4777C10.3587 35.791 7.46022 29.8597 8.98543 28.4261C10.4989 27.0034 16.4314 29.7123 16.7353 33.5185C16.9005 35.5832 16.9694 37.6537 17.3247 39.7193C17.7112 41.9645 18.7532 43.6907 19.4151 45.8107Z" fill="url(#paint0_linear_50_323)"/>
<path d="M2.63994 20.5375C2.82776 21.3119 2.99426 22.0999 3.03101 22.2524C3.34631 23.5603 3.61986 24.8782 3.83944 26.2061C4.01863 27.2908 4.16199 28.3814 4.2686 29.4761C4.37204 30.5367 4.28176 31.7045 4.4841 32.7443C4.6828 33.7691 5.04847 34.8443 5.39372 35.8342C6.43035 38.807 8.0005 41.5735 9.86508 44.1022C10.8005 45.3706 11.8122 46.5824 12.8802 47.7419C13.5362 48.4542 14.9307 50.5628 16.0899 49.6868C16.5249 49.3579 16.6996 48.7713 16.6715 48.2265C16.6433 47.6816 16.4437 47.1626 16.2545 46.6509C14.7974 42.7026 13.4118 37.814 14.2312 33.5781C14.3165 33.1367 14.4499 32.6807 14.7665 32.3618C15.1816 31.944 15.8462 31.8501 16.4142 32.0066C16.9822 32.1631 17.4667 32.5347 17.8896 32.9448C19.3408 34.3534 20.372 36.3336 21.259 38.1347C21.9304 39.4984 22.4235 40.9515 22.7071 42.4454C22.9784 43.8754 22.7479 45.5748 23.3222 46.9167C23.6439 47.6684 24.3611 48.3136 25.1787 48.29C25.8151 48.2718 26.3786 47.8622 26.7983 47.3831C28.3444 45.6179 28.6406 42.8052 28.7309 40.5546C28.8443 37.7182 28.4405 34.8919 28.0009 32.0978C27.4025 28.2938 26.6336 24.5157 25.7748 20.7625C25.7417 20.6169 25.2744 18.2492 25.18 18.252C25.18 18.252 2.30514 18.8866 2.09509 18.8925C2.21169 18.8898 2.43806 19.706 2.63994 20.5375Z" fill="url(#paint1_linear_50_323)"/>
<path d="M20.5392 0.26731C19.3532 0.199708 18.3877 0.458773 17.3084 1.06084C17.0162 1.22372 16.7313 1.4297 16.7372 1.71871C16.7639 3.07075 25.7487 3.18191 25.8508 2.01271C25.9088 1.31764 23.0723 0.752326 22.443 0.590353C21.732 0.408418 21.1104 0.299977 20.5392 0.26731Z" fill="#D8D6D0"/>
<path d="M4.59563 1.31668C3.64249 1.41195 2.74469 1.77896 1.9712 2.58557C0.974506 3.62491 0.475482 5.06665 0.352086 6.50113C0.0876016 9.57877 0.614301 13.2389 1.38326 16.2204C1.62733 17.1667 1.65183 19.1556 2.30148 19.886C4.32299 22.1584 8.76477 21.0528 11.4527 20.8663C14.5313 20.6527 17.8457 20.5506 20.604 19.886C22.43 19.7943 25.783 20.1985 26.3373 17.7837C26.9725 15.0159 27.3635 12.1855 27.4942 9.34877C27.5922 7.22926 27.9015 1.99218 24.8548 1.58343C24.4088 1.52354 23.6562 2.0262 23.2093 2.12782C22.2771 2.33923 21.3675 2.31065 20.442 2.06477C19.3038 1.76263 18.2467 1.21824 17.1557 0.77501C16.9184 0.678834 16.6716 0.585832 16.4158 0.592637C15.8328 0.608515 15.4046 1.11344 14.9382 1.46367C12.9752 2.93897 9.4566 2.17364 7.28946 1.60702C6.37987 1.36885 5.46485 1.23003 4.59563 1.31668Z" fill="url(#paint2_linear_50_323)"/>
<path d="M25.7709 19.8068C25.8838 19.2928 26.038 18.7942 26.1646 18.3056C26.4822 17.3983 26.4345 17.1234 26.5729 16.491C26.8905 15.0392 27.5968 13.7812 27.4571 12.4116C27.3537 11.399 26.4604 10.9313 25.5249 10.8855C24.3545 10.8283 23.9702 11.3655 23.4898 12.3454C22.2481 14.8782 19.6074 16.1843 16.9271 16.6325C13.4362 17.2159 8.9626 17.7386 5.63815 16.2279C4.86647 15.8772 3.51138 14.9694 2.80094 14.5407C-0.284427 12.6784 1.5266 18.9444 2.06919 20.0745C2.58228 21.1438 2.815 22.2013 3.54676 23.1862C4.22862 24.104 5.08514 24.882 6.03874 25.5099C8.03532 26.8246 10.4239 27.4888 12.7933 27.6594C17.1449 27.9724 22.5575 26.6341 24.8549 22.5579C25.3217 21.729 25.5608 20.765 25.7709 19.8068Z" fill="#F7EECB"/>
<defs>
<linearGradient id="paint0_linear_50_323" x1="11.6521" y1="27.5178" x2="19.4138" y2="71.81" gradientUnits="userSpaceOnUse">
<stop offset="0.1599" stop-color="#BFAB8D"/>
<stop offset="0.5078" stop-color="#E7E1D2"/>
<stop offset="0.7297" stop-color="#CCBFA6"/>
</linearGradient>
<linearGradient id="paint1_linear_50_323" x1="4.68165" y1="34.018" x2="27.2087" y2="34.0994" gradientUnits="userSpaceOnUse">
<stop stop-color="#BFAB8D"/>
<stop offset="0.5078" stop-color="#E7E1D2"/>
<stop offset="1" stop-color="#CCBFA6"/>
</linearGradient>
<linearGradient id="paint2_linear_50_323" x1="-5.42284" y1="10.8848" x2="33.4221" y2="11.0251" gradientUnits="userSpaceOnUse">
<stop stop-color="#94938C"/>
<stop offset="0.2296" stop-color="#EDEBE1"/>
<stop offset="0.7988" stop-color="#EDEBE1"/>
<stop offset="1" stop-color="#94938C"/>
</linearGradient>
</defs>
</svg>
