<svg width="28" height="49" viewBox="0 0 28 49" fill="none" xmlns="http://www.w3.org/2000/svg">
<path d="M15.8531 42.4113C16.0549 44.3685 14.7852 44.8135 13.8838 43.4498C12.1413 40.814 11.469 37.1393 10.8975 33.7853C10.6325 32.2324 9.32243 26.6713 10.6144 25.7467C11.8964 24.8299 15.8259 28.2392 15.5423 31.5138C15.3886 33.2903 15.1644 35.0538 15.1481 36.8671C15.13 38.8378 15.6548 40.4937 15.8531 42.4113Z" fill="url(#paint0_linear_50_339)"/>
<path d="M4.2251 20.1496C4.91058 22.1081 5.46311 24.1524 5.78204 26.203C5.99662 27.5831 5.96487 28.8098 5.75528 30.1758C5.40278 32.4714 5.37736 34.8672 5.47626 37.1827C5.63051 40.7944 7.36305 43.5146 8.74809 46.7633C9.2571 47.957 10.4339 48.5835 11.5014 47.4851C12.8551 46.0924 12.4899 43.1648 12.5439 41.3982C12.6174 38.9802 12.6664 36.5453 13.15 34.1658C13.3582 33.1414 13.6508 32.1202 14.1857 31.2219C14.7174 30.3287 15.7 29.8932 16.6414 30.5365C17.8949 31.393 18.1775 33.2694 18.6103 34.605C19.0163 35.8575 19.3842 37.1224 19.7395 38.3904C20.2412 40.1815 20.7053 41.983 21.1835 43.78C21.3817 44.524 22.0287 46.2716 23.1224 45.5121C23.4917 45.2553 23.6741 44.8107 23.8279 44.3884C24.3328 42.9992 24.7361 41.5761 25.1385 40.1543C25.6779 38.2493 26.1742 36.3498 26.2904 34.3659C26.4487 31.6611 25.383 28.9885 24.8622 26.3704C24.3087 23.588 23.963 20.7644 23.8306 17.9307C23.822 17.7443 23.8074 17.5415 23.6813 17.4036C23.5112 17.2176 23.2195 17.2321 22.9695 17.2607C19.8978 17.6127 16.8197 17.899 13.7511 18.2828C11.6747 18.5409 9.59555 18.814 7.53728 19.1933C6.63041 19.3603 4.92782 19.4469 4.2251 20.1496Z" fill="url(#paint1_linear_50_339)"/>
<path d="M1.82515 15.9046C1.72262 14.6779 1.75075 13.4348 1.51711 12.223C1.15236 10.3317 0.197394 8.68389 0.332587 6.68C0.658321 1.85561 7.4003 1.48269 10.7901 2.81877C12.1997 3.37407 12.7781 2.84962 13.963 2.10105C15.2469 1.28988 16.7617 0.865234 18.2793 0.865234C20.0146 0.865234 21.9295 1.35883 23.4116 2.27072C25.6042 3.61996 25.6024 5.83344 25.753 8.15672C25.9195 10.7263 25.8605 13.3735 25.0108 15.8307C24.7508 16.5829 24.4065 17.3219 23.8648 17.9049C23.0949 18.7337 22.1141 18.8431 21.0738 19.0826C19.6539 19.4097 18.218 19.6865 16.7867 19.9573C13.9798 20.4886 11.1467 20.9209 8.29081 21.0643C6.93661 21.1323 5.53434 20.9949 4.33167 20.3683C2.58958 19.4614 1.9794 17.7556 1.82515 15.9046Z" fill="url(#paint2_linear_50_339)"/>
<path d="M25.0473 19.4559C25.1847 19.0694 25.3612 18.6924 25.511 18.324C25.868 17.6358 25.8371 17.4353 26.0054 16.9599C26.3924 15.8688 27.1446 14.8998 27.0847 13.8949C27.0407 13.1519 26.2032 12.8556 25.3014 12.8733C24.1731 12.8955 23.7725 13.3138 23.2544 14.0646C21.9147 16.0058 19.2903 17.1168 16.6753 17.5959C13.2692 18.2197 8.91675 18.8525 5.78691 17.9184C5.06014 17.7016 3.80033 17.105 3.13797 16.8274C0.258558 15.6207 1.66355 20.1536 2.12538 20.9589C2.56271 21.721 2.72876 22.4904 3.38204 23.1782C3.99041 23.8192 4.77568 24.3473 5.6626 24.7587C7.5199 25.6207 9.79186 25.9804 12.0724 25.9759C16.2607 25.9677 21.5659 24.6798 24.0111 21.5391C24.5074 20.9017 24.7914 20.1759 25.0473 19.4559Z" fill="#F7EECB"/>
<defs>
<linearGradient id="paint0_linear_50_339" x1="12.6614" y1="25.4803" x2="10.5517" y2="64.2856" gradientUnits="userSpaceOnUse">
<stop offset="0.1599" stop-color="#BFAB8D"/>
<stop offset="0.5078" stop-color="#E7E1D2"/>
<stop offset="0.7297" stop-color="#CCBFA6"/>
</linearGradient>
<linearGradient id="paint1_linear_50_339" x1="6.75177" y1="34.0412" x2="24.2458" y2="30.6372" gradientUnits="userSpaceOnUse">
<stop stop-color="#BFAB8D"/>
<stop offset="0.5078" stop-color="#E7E1D2"/>
<stop offset="1" stop-color="#CCBFA6"/>
</linearGradient>
<linearGradient id="paint2_linear_50_339" x1="-3.75304" y1="13.9884" x2="29.5455" y2="7.50896" gradientUnits="userSpaceOnUse">
<stop stop-color="#94938C"/>
<stop offset="0.2114" stop-color="#EDEBE1"/>
<stop offset="0.847" stop-color="#EDEBE1"/>
<stop offset="1" stop-color="#94938C"/>
</linearGradient>
</defs>
</svg>
