<svg width="25" height="40" viewBox="0 0 25 40" fill="none" xmlns="http://www.w3.org/2000/svg">
<path d="M15.5343 36.732C15.8292 38.5853 14.6433 39.0762 13.7132 37.8245C11.9158 35.405 11.0824 31.9407 10.3619 28.7763C10.0285 27.311 8.4887 22.0833 9.67097 21.1351C10.8442 20.1946 14.7657 23.2356 14.6668 26.3696C14.6133 28.0695 14.4926 29.7608 14.572 31.4889C14.6582 33.3667 15.2448 34.916 15.5343 36.732Z" fill="url(#paint0_linear_50_357)"/>
<path d="M3.06421 13.423C3.06421 13.423 4.37167 17.0183 4.37167 20.9403C4.37167 24.8623 4.04502 29.765 6.33283 33.3604C8.62064 36.9557 9.27436 38.5898 9.27436 38.5898C9.27436 38.5898 11.2356 40.8776 12.2159 38.2632C12.2159 38.2632 9.9281 30.4188 11.2356 26.4968C12.543 22.5749 13.8504 23.8819 14.1771 24.5356C14.5037 25.1893 19.0798 32.7066 19.7331 34.6678C20.3868 36.629 21.3672 38.5898 22.0209 38.5898C22.6746 38.5898 23.655 36.9557 24.3087 34.0141C24.9624 31.0725 24.3087 27.8043 23.0012 25.516C21.6938 23.2282 20.3863 13.0959 20.3863 11.4618C20.3863 9.8277 4.6983 12.7697 3.06421 13.423Z" fill="url(#paint1_linear_50_357)"/>
<path d="M10.615 3.15387C10.3047 3.08038 9.98344 2.87759 9.61053 2.63215C8.59795 1.96481 7.54636 1.32105 6.37817 0.996671C5.20953 0.672297 3.8948 0.700424 2.855 1.32422C2.12369 1.76292 1.58204 2.45794 1.13608 3.18472C0.438347 4.32207 -0.0765716 5.64362 0.083572 6.96834C0.265945 8.47906 0.865249 9.96663 1.47996 11.3467C1.85288 12.1837 2.16363 13.1387 2.83551 13.7938C3.61899 14.5578 4.93732 14.6653 5.97031 14.81C8.19236 15.1208 10.4235 14.8422 12.5929 14.3273C14.7497 13.8151 16.9785 13.2471 19.0753 12.533C19.4523 12.4047 19.8289 12.2563 20.1446 12.0141C21.0297 11.334 21.2116 9.78835 21.4244 8.76849C21.7474 7.2183 21.5501 5.61548 20.9159 4.17055C20.0993 2.31004 18.5377 0.667759 16.4645 0.348829C14.9806 0.120633 13.6631 0.425047 12.6646 1.5751C12.3339 1.95618 12.0708 2.39897 11.7133 2.75691C11.3195 3.15115 10.9747 3.23916 10.615 3.15387Z" fill="url(#paint2_linear_50_357)"/>
<path d="M20.262 14.5803C20.3695 14.2918 20.507 14.0105 20.624 13.7356C20.9017 13.2211 20.879 13.0723 21.011 12.7176C21.3141 11.9037 21.8966 11.1778 21.8562 10.4302C21.8267 9.87761 21.1857 9.66121 20.4934 9.67981C19.6278 9.70249 19.3179 10.016 18.916 10.5781C17.8775 12.0303 15.8573 12.8723 13.848 13.2429C11.2312 13.7261 7.88765 14.2215 5.49136 13.5437C4.93516 13.3863 3.97156 12.9494 3.46481 12.7461C1.26223 11.8638 2.31521 15.23 2.66499 15.827C2.99617 16.3918 3.11955 16.9634 3.61677 17.472C4.07997 17.9456 4.67972 18.3344 5.35796 18.6356C6.7784 19.2671 8.51918 19.5217 10.2694 19.5058C13.4833 19.4763 17.5608 18.4882 19.4549 16.1368C19.8396 15.6596 20.0619 15.1174 20.262 14.5803Z" fill="#F7EECB"/>
<defs>
<linearGradient id="paint0_linear_50_357" x1="11.6023" y1="20.7688" x2="11.6265" y2="57.839" gradientUnits="userSpaceOnUse">
<stop offset="0.1599" stop-color="#BFAB8D"/>
<stop offset="0.5078" stop-color="#E7E1D2"/>
<stop offset="0.7297" stop-color="#CCBFA6"/>
</linearGradient>
<linearGradient id="paint1_linear_50_357" x1="4.95864" y1="25.2102" x2="21.7166" y2="25.2707" gradientUnits="userSpaceOnUse">
<stop stop-color="#BFAB8D"/>
<stop offset="0.5078" stop-color="#E7E1D2"/>
<stop offset="1" stop-color="#CCBFA6"/>
</linearGradient>
<linearGradient id="paint2_linear_50_357" x1="-6.29663" y1="7.54464" x2="27.743" y2="7.66761" gradientUnits="userSpaceOnUse">
<stop stop-color="#94938C"/>
<stop offset="0.2614" stop-color="#EDEBE1"/>
<stop offset="0.7687" stop-color="#EDEBE1"/>
<stop offset="1" stop-color="#94938C"/>
</linearGradient>
</defs>
</svg>
