<svg width="19" height="55" viewBox="0 0 19 55" fill="none" xmlns="http://www.w3.org/2000/svg">
<path d="M9.24252 54.2012C9.24252 54.2012 3.94378 55.2968 2.06608 52.5444C0.187928 49.7916 8.61103 52.5408 9.24252 54.2012Z" fill="#D8D6D0"/>
<path d="M10.0198 54.4375C10.0198 54.4375 15.6629 54.819 17.0669 51.1599C18.471 47.5008 10.3528 52.3194 10.0198 54.4375Z" fill="#D8D6D0"/>
<path d="M12.2741 33.9055C12.3571 33.9464 12.436 33.9926 12.5104 34.0448C13.9481 35.0492 15.1598 36.6765 16.074 38.1487C17.4631 40.3853 18.4548 42.9436 18.1876 45.613C18.0052 47.4376 17.8006 49.5358 16.8888 51.1745C16.3562 52.1317 15.1589 52.5704 14.184 52.9098C13.3488 53.2006 12.5059 53.4737 11.687 53.809C10.9308 54.1184 10.1886 54.646 9.33657 54.5779C8.35711 54.4994 7.67298 53.7318 6.8895 53.2337C5.66006 52.4525 4.18837 52.0519 2.7321 52.1222C2.47623 52.1345 2.21401 52.1603 1.96858 52.0855C1.61063 51.9766 1.34886 51.6726 1.13791 51.3641C0.177042 49.9605 0.202445 48.6004 0.194279 46.9681C0.185659 45.3094 0.217869 43.6408 0.534075 42.0076C1.09708 39.0973 3.01972 36.6897 4.03049 33.9427C4.08856 33.7844 4.14662 33.6224 4.25323 33.4918C4.43561 33.2681 4.73413 33.1715 5.02176 33.1484C5.56071 33.1048 6.10374 33.1883 6.63771 33.2454C7.6503 33.3543 8.63884 33.4673 9.65687 33.5372C10.4639 33.593 11.5223 33.534 12.2741 33.9055Z" fill="url(#paint0_linear_50_222)"/>
<path d="M14.4165 35.8189C14.3802 35.8484 14.3366 35.8716 14.2835 35.8861C14.0168 35.9609 13.1947 35.5585 12.9039 35.4823C11.9399 35.2301 10.9649 35.0191 9.98409 34.8436C8.94473 34.6576 7.89494 34.4811 6.83652 34.4725C6.27624 34.4679 5.71277 34.5069 5.16428 34.6258C4.67704 34.7315 4.15214 35.0654 3.69075 35.1071C3.35458 33.7965 3.69575 32.2722 3.77378 30.9411C3.86043 29.4612 3.99653 27.9846 4.18118 26.5138C4.52778 23.7536 5.21645 21.0965 5.71867 18.3713C6.20773 15.7205 6.34383 12.9182 6.2853 10.2189C6.25763 8.94955 6.18096 7.67791 6.03533 6.41672C5.91148 5.34016 5.60117 4.37657 5.71141 3.261C5.82347 2.12683 6.35563 0.409244 7.8532 0.8738C8.98057 1.22358 9.68241 2.46345 10.2513 3.40617C11.3351 5.20133 12.1241 7.1571 12.8508 9.12375C13.5767 11.0877 14.2459 13.0856 14.6247 15.1489C14.9554 16.9486 14.9151 18.7102 14.8838 20.5272C14.8348 23.4116 14.7658 26.2955 14.6946 29.1795C14.6488 31.0405 14.7549 32.9817 14.6084 34.869C14.5821 35.2219 14.6338 35.6411 14.4165 35.8189Z" fill="url(#paint1_linear_50_222)"/>
<path d="M16.5195 32.9886C16.7323 33.9571 17.7766 38.2338 17.8179 40.1315C17.8497 41.5909 17.0789 41.9453 16.6139 40.9581C14.7044 36.9023 12.3076 36.7717 9.1659 36.7467C5.7089 36.719 4.39144 36.6283 2.36715 40.5629C0.571957 43.0449 0.41907 38.8395 0.610067 37.6291C0.818303 35.9065 1.03607 34.3305 1.43757 32.9182C5.04155 20.9823 14.1318 23.585 16.5195 32.9886Z" fill="#F7EECB"/>
<defs>
<linearGradient id="paint0_linear_50_222" x1="-5.75579" y1="44.265" x2="24.4805" y2="43.3337" gradientUnits="userSpaceOnUse">
<stop stop-color="#94938C"/>
<stop offset="0.2666" stop-color="#EDEBE1"/>
<stop offset="0.7117" stop-color="#EDEBE1"/>
<stop offset="1" stop-color="#94938C"/>
</linearGradient>
<linearGradient id="paint1_linear_50_222" x1="0.781427" y1="19.3943" x2="15.1411" y2="17.8863" gradientUnits="userSpaceOnUse">
<stop stop-color="#BFAB8D"/>
<stop offset="0.5078" stop-color="#E7E1D2"/>
<stop offset="1" stop-color="#CCBFA6"/>
</linearGradient>
</defs>
</svg>
