<svg width="19" height="58" viewBox="0 0 19 58" fill="none" xmlns="http://www.w3.org/2000/svg">
<path d="M9.35834 56.2797C9.35834 56.2797 4.01244 57.1149 2.2713 54.2734C0.530612 51.4318 8.80896 54.5901 9.35834 56.2797Z" fill="#D8D6D0"/>
<path d="M3.99255 38.3583C3.99255 38.3583 4.3192 27.2458 5.30003 24.3042C6.2804 21.3626 7.26123 11.5576 6.93414 8.94265C6.6075 6.32772 6.6075 2.40578 6.6075 2.40578C6.6075 2.40578 6.28086 -0.535779 9.22244 1.75205C12.164 4.03989 15.7593 15.1524 15.4322 19.7281C15.1056 24.3037 15.0022 38.0925 15.0539 38.0621C15.1052 38.0317 3.99255 38.3583 3.99255 38.3583Z" fill="url(#paint0_linear_50_209)"/>
<path d="M14.7784 37.0507C14.7784 37.0507 22.2958 48.1634 16.7396 54.0465C16.061 54.7652 14.9935 55.2705 14.1664 55.7963C13.3126 56.3394 12.4016 57.0934 11.3609 57.2109C10.1673 57.3461 9.2935 56.0971 8.1203 55.8535C6.25524 55.4661 4.43011 55.7728 2.83726 54.5007C1.52206 53.4504 0.724503 51.8131 0.45366 50.1736C0.116126 48.128 0.465455 46.0493 0.872854 44.0409C1.04661 43.1848 1.34241 42.37 1.68856 41.5684C2.0574 40.7137 2.72249 39.8794 3.01193 39.011C3.01193 39.012 5.62645 31.1676 14.7784 37.0507Z" fill="url(#paint1_linear_50_209)"/>
<path d="M15.4676 33.4647C15.6522 34.4333 16.5587 38.7099 16.5945 40.6076C16.6222 42.067 15.9534 42.4218 15.5497 41.4341C13.8924 37.3784 11.8132 37.2478 9.08662 37.2228C6.08693 37.1951 4.94366 37.1044 3.18703 41.039C1.62911 43.521 1.49665 39.3155 1.66224 38.1052C1.8428 36.3826 2.03197 34.8066 2.3804 33.3944C5.50758 21.459 13.3956 24.0617 15.4676 33.4647Z" fill="#F7EECB"/>
<defs>
<linearGradient id="paint0_linear_50_209" x1="4.8924" y1="19.6671" x2="17.785" y2="19.27" gradientUnits="userSpaceOnUse">
<stop stop-color="#BFAB8D"/>
<stop offset="0.5078" stop-color="#E7E1D2"/>
<stop offset="1" stop-color="#CCBFA6"/>
</linearGradient>
<linearGradient id="paint1_linear_50_209" x1="-3.2585" y1="46.4471" x2="23.4681" y2="45.6238" gradientUnits="userSpaceOnUse">
<stop stop-color="#94938C"/>
<stop offset="0.0311" stop-color="#A6A59D"/>
<stop offset="0.0939" stop-color="#C5C3BB"/>
<stop offset="0.1552" stop-color="#DBD9D0"/>
<stop offset="0.2138" stop-color="#E8E7DD"/>
<stop offset="0.2666" stop-color="#EDEBE1"/>
<stop offset="0.7117" stop-color="#EDEBE1"/>
<stop offset="0.7637" stop-color="#E7E5DB"/>
<stop offset="0.835" stop-color="#D5D3CA"/>
<stop offset="0.9175" stop-color="#B8B7AF"/>
<stop offset="1" stop-color="#94938C"/>
</linearGradient>
</defs>
</svg>
