<svg width="20" height="70" viewBox="0 0 20 70" fill="none" xmlns="http://www.w3.org/2000/svg">
<path d="M16.0301 45.479C16.0301 45.479 3.94854 42.4507 2.94458 44.1774L7.82378 9.62468C7.82378 9.62468 7.67225 0.744141 8.97972 0.744141C10.2872 0.744141 11.5946 4.6661 11.5946 4.6661C11.5946 4.6661 15.7389 37.2091 16.0301 45.479Z" fill="url(#paint0_linear_50_83)"/>
<path d="M13.7065 41.9822C13.7069 41.9831 20.8971 51.4611 19.5896 59.305C19.1677 61.836 18.3039 64.4814 16.7783 66.5687C16.0342 67.5867 15.0675 68.5081 13.8485 68.9119C12.2361 69.4459 10.167 69.0267 8.55056 68.666C7.75482 68.4886 6.97314 68.2441 6.23185 67.9029C1.04915 65.5194 -0.320014 59.374 0.0969058 54.1659C0.389975 50.5075 1.50056 46.9585 2.94413 43.6058C3.8805 41.431 6.06173 40.8612 8.23888 40.5531C9.87753 40.3213 12.5923 40.5132 13.7065 41.9822Z" fill="url(#paint1_linear_50_83)"/>
<path d="M13.7223 42.0143C13.7227 42.0152 20.913 51.4932 19.6055 59.3371C19.1836 61.8681 18.3198 64.5134 16.7941 66.6007C16.0501 67.6187 15.0833 68.5401 13.8643 68.9439C12.2519 69.4778 10.1827 69.0586 8.56626 68.698C7.77052 68.5206 6.98885 68.2761 6.24755 67.9349C1.06479 65.5514 -0.304394 59.406 0.112532 54.1979C0.405604 50.5396 1.51621 46.9906 2.95979 43.638C3.89618 41.4631 6.07743 40.8933 8.25461 40.5853C9.89327 40.3535 12.6081 40.5458 13.7223 42.0143Z" fill="url(#paint2_linear_50_83)"/>
<path d="M15.8886 39.8723C16.0732 40.8409 16.9797 45.1176 17.0155 47.0153C17.0432 48.4747 16.3745 48.829 15.9707 47.8419C14.3134 43.7861 12.2342 43.6554 9.50765 43.6305C6.50795 43.6028 5.36468 43.5121 3.60805 47.4467C2.05013 49.9287 1.91767 45.7233 2.08326 44.5129C2.26382 42.7903 2.45301 41.2143 2.80143 39.802C5.92816 27.8661 13.8162 30.4688 15.8886 39.8723Z" fill="#F7EECB"/>
<defs>
<linearGradient id="paint0_linear_50_83" x1="4.60526" y1="23.355" x2="14.2099" y2="23.0591" gradientUnits="userSpaceOnUse">
<stop stop-color="#BFAB8D"/>
<stop offset="0.5078" stop-color="#E7E1D2"/>
<stop offset="1" stop-color="#CCBFA6"/>
</linearGradient>
<linearGradient id="paint1_linear_50_83" x1="-5.48175" y1="54.5275" x2="26.3228" y2="55.096" gradientUnits="userSpaceOnUse">
<stop stop-color="#94938C"/>
<stop offset="0.2666" stop-color="#EDEBE1"/>
<stop offset="0.7117" stop-color="#EDEBE1"/>
<stop offset="1" stop-color="#94938C"/>
</linearGradient>
<linearGradient id="paint2_linear_50_83" x1="-6.23694" y1="54.546" x2="26.7162" y2="55.135" gradientUnits="userSpaceOnUse">
<stop stop-color="#94938C"/>
<stop offset="0.0617" stop-color="#A4A29B"/>
<stop offset="0.1809" stop-color="#CCCAC2"/>
<stop offset="0.2666" stop-color="#EDEBE1"/>
<stop offset="0.7117" stop-color="#EDEBE1"/>
<stop offset="0.7719" stop-color="#E0DED5"/>
<stop offset="0.883" stop-color="#BEBDB4"/>
<stop offset="1" stop-color="#94938C"/>
</linearGradient>
</defs>
</svg>
