<svg width="20" height="61" viewBox="0 0 20 61" fill="none" xmlns="http://www.w3.org/2000/svg">
<path d="M13.35 34.8297C13.35 34.8297 16.6182 36.1371 17.5991 43.6544C17.5991 43.6544 18.5795 51.4987 18.9066 53.7865C19.2332 56.0744 19.2332 59.0159 15.6383 59.9963C12.043 60.9767 8.77472 60.3229 6.8135 59.6697C4.85228 59.0164 1.91067 57.0547 1.25693 54.7669C0.603191 52.4791 1.25693 41.3665 2.23731 39.4053C3.21769 37.4441 5.50555 32.2147 13.35 34.8297Z" fill="url(#paint0_linear_50_191)"/>
<path d="M10.0813 3.77997C10.0813 3.77997 17.2557 19.4651 14.3223 35.9722C14.3223 35.9722 3.91998 34.7391 3.40552 37.5628C4.86453 30.6956 5.56545 23.4687 5.27828 16.4586C5.16168 13.6146 4.96116 10.7746 4.88131 7.92921C4.82959 6.07643 4.50748 3.95961 5.30278 2.23386C5.63668 1.50845 6.1888 0.442337 7.09479 0.357501C8.63275 0.213688 9.6204 2.71974 10.0813 3.77997Z" fill="url(#paint1_linear_50_191)"/>
<path d="M15.7992 33.4315C15.9839 34.4001 16.8903 38.6769 16.9261 40.5746C16.9538 42.034 16.2851 42.3888 15.8814 41.4012C14.2241 37.3453 12.1449 37.2147 9.41841 37.1897C6.41876 37.1621 5.27552 37.0713 3.51892 41.006C1.96102 43.488 1.82856 39.2825 1.99415 38.0721C2.1747 36.3495 2.36387 34.7735 2.71228 33.3612C5.83896 21.4251 13.7269 24.0278 15.7992 33.4315Z" fill="#F7EECB"/>
<defs>
<linearGradient id="paint0_linear_50_191" x1="23.5154" y1="47.9538" x2="-2.49531" y2="46.6506" gradientUnits="userSpaceOnUse">
<stop stop-color="#94938C"/>
<stop offset="0.1599" stop-color="#D1CFC6"/>
<stop offset="0.2296" stop-color="#EDEBE1"/>
<stop offset="0.7988" stop-color="#EDEBE1"/>
<stop offset="0.9762" stop-color="#9F9E96"/>
<stop offset="1" stop-color="#94938C"/>
</linearGradient>
<linearGradient id="paint1_linear_50_191" x1="6.03504" y1="18.9698" x2="15.0161" y2="19.1303" gradientUnits="userSpaceOnUse">
<stop stop-color="#BFAB8D"/>
<stop offset="0.5078" stop-color="#E7E1D2"/>
<stop offset="1" stop-color="#CCBFA6"/>
</linearGradient>
</defs>
</svg>
