<svg width="27" height="75" viewBox="0 0 27 75" fill="none" xmlns="http://www.w3.org/2000/svg">
<path d="M13.3946 0.884701C11.8417 2.41038 11.0678 5.66361 10.2861 7.64976C7.89618 13.7216 6.0797 20.0276 5.02719 26.471C4.5032 29.678 4.16838 32.9167 4.0409 36.164C3.97648 37.7972 3.96424 39.4323 4.00553 41.0664C4.0391 42.4038 3.81861 44.3486 4.37435 45.5617C5.05849 44.7887 5.54572 43.8591 6.26977 43.1156C8.03998 41.2973 10.3287 39.9971 12.9133 39.9957C14.0044 39.9952 15.0764 40.2166 16.0958 40.5891C16.5095 40.7402 16.9142 40.9157 17.3084 41.1117C18.4585 41.6833 19.8426 43.4086 21.0666 43.5016C21.2454 41.1095 20.6402 38.4247 20.4129 36.0257C20.4129 29.9357 19.2098 23.504 18.2983 17.4952C18.0243 15.6878 17.6119 13.9045 17.65 12.0717C17.6895 10.1794 17.9018 8.28944 17.7734 6.39584C17.6582 4.70049 17.4459 0.60615 15.1109 0.3462C14.6518 0.294935 14.1999 0.465057 13.7694 0.63246C13.631 0.686446 13.5071 0.774007 13.3946 0.884701Z" fill="url(#paint0_linear_50_181)"/>
<path d="M1.11063 69.5302C1.11063 69.5302 -1.1772 42.7292 10.9157 38.8068C10.9157 38.8068 24.6431 36.5189 25.9501 60.3783C25.9873 61.0588 26.093 61.7357 26.1221 62.4189C26.1847 63.9097 26.1307 65.4163 25.8735 66.888C25.6031 68.4337 25.0977 70.031 24.047 71.2319C23.5376 71.8139 22.902 72.2758 22.1806 72.5589C21.5555 72.8043 20.8673 72.8964 20.2113 73.0316C19.4038 73.1976 18.5944 73.3537 17.7805 73.4844C17.3414 73.5547 16.9004 73.6182 16.459 73.6713C14.8363 73.8668 13.2003 73.9285 11.5667 73.9902C8.91322 74.0905 6.1631 74.2225 3.68427 73.0874C2.21803 72.416 1.11063 71.2115 1.11063 69.5302Z" fill="url(#paint1_linear_50_181)"/>
<path d="M22.0932 36.4498C22.3464 37.843 23.5867 43.9952 23.6357 46.7245C23.6734 48.8236 22.7579 49.334 22.2057 47.9135C19.9374 42.0794 17.0911 41.8915 13.3592 41.8552C9.25309 41.8153 7.68839 41.6847 5.28395 47.3446C3.15172 50.9146 2.97025 44.8658 3.19708 43.1242C3.44433 40.6462 3.70293 38.3788 4.17973 36.3473C8.45918 19.1786 19.2565 22.9227 22.0932 36.4498Z" fill="#F7EECB"/>
<defs>
<linearGradient id="paint0_linear_50_181" x1="7.70802" y1="22.9147" x2="21.1891" y2="23.1557" gradientUnits="userSpaceOnUse">
<stop stop-color="#BFAB8D"/>
<stop offset="0.5078" stop-color="#E7E1D2"/>
<stop offset="1" stop-color="#CCBFA6"/>
</linearGradient>
<linearGradient id="paint1_linear_50_181" x1="-3.96417" y1="56.3934" x2="31.057" y2="56.4112" gradientUnits="userSpaceOnUse">
<stop stop-color="#94938C"/>
<stop offset="0.2296" stop-color="#EDEBE1"/>
<stop offset="0.7876" stop-color="#EDEBE1"/>
<stop offset="1" stop-color="#94938C"/>
</linearGradient>
</defs>
</svg>
