<svg width="25" height="43" viewBox="0 0 25 43" fill="none" xmlns="http://www.w3.org/2000/svg">
<path d="M6.44374 2.86393C5.91177 1.12752 7.52774 0.314517 8.90282 1.27808C11.5626 3.14497 12.9578 6.30665 14.1622 9.20736C14.7243 10.5523 17.2135 15.2497 15.6277 16.5144C14.0619 17.769 8.40097 15.8921 8.33071 12.7906C8.29056 11.1044 8.35078 9.4081 8.11992 7.74195C7.88907 5.92524 6.96566 4.5602 6.44374 2.86393Z" fill="url(#paint0_linear_79_6151)"/>
<path d="M22.2316 26.793C23.1952 20.4898 23.1751 12.8716 20.3748 7.0401C19.7224 5.6851 18.8391 4.4405 17.7752 3.36653C17.3637 2.94497 14.8945 0.425671 14.3726 1.03793C13.8407 1.67027 14.3224 3.08549 14.4128 3.78809C14.5734 4.96242 14.7139 6.1468 14.8444 7.33118C15.0953 9.73003 15.7176 12.3296 15.0652 14.7184C14.9247 15.2404 14.5934 15.7623 14.0715 15.9329C13.8005 16.0233 13.4994 16.0032 13.2184 15.943C11.4418 15.5616 10.1571 13.7649 9.06301 12.4501C7.49723 10.5731 6.60393 8.45532 5.82104 6.15683C5.43963 5.04272 5.00804 3.95872 4.05452 3.21597C3.82366 3.03531 1.57536 0.275117 1.22407 0.36545C0.0597655 0.646488 0.461247 3.78809 0.501395 4.50072C0.832618 10.0613 4.89763 19.9177 4.89763 19.9177C4.89763 19.9177 5.88126 26.1306 4.89763 28.0878C3.93407 30.0551 20.9268 30.0551 22.2316 26.793Z" fill="url(#paint1_linear_79_6151)"/>
<path d="M23.2137 27.7651C23.2137 27.7651 20.594 24.8242 14.7123 24.8242C8.8306 24.8242 4.58491 26.7814 3.60128 29.4011C2.61765 32.0208 2.29647 39.2073 5.88974 40.5121C7.02393 40.9237 8.27855 41.024 9.30233 40.2913C10.1756 39.669 10.5269 38.5148 11.8417 38.9363C12.4138 39.127 12.8856 39.5285 13.3774 39.8798C15.5153 41.4556 19.1587 43.0816 21.5977 41.2248C24.9401 38.7055 26.1144 31.0372 23.2137 27.7651Z" fill="url(#paint2_linear_79_6151)"/>
<path d="M6.45546 2.85611C5.92349 1.1197 7.53946 0.306707 8.91453 1.27026C11.5744 3.13716 12.9695 6.29883 14.174 9.19954C14.736 10.5445 17.2252 15.2418 15.6394 16.5065C14.0736 17.7612 8.41268 15.8842 8.34242 12.7828C8.30227 11.0965 8.3625 9.40028 8.13164 7.73413C7.90079 5.90738 6.97738 4.55238 6.45546 2.85611Z" fill="url(#paint3_linear_79_6151)"/>
<path d="M22.2419 26.7763C23.2055 20.473 23.1854 12.8549 20.3851 7.02333C19.7326 5.66832 18.8494 4.42373 17.7855 3.34976C17.3739 2.92821 14.9048 0.408903 14.3829 1.02116C13.8509 1.6535 14.3327 3.06872 14.423 3.77132C14.5836 4.94566 14.7242 6.13003 14.8546 7.3144C15.1056 9.71326 15.7279 12.3129 15.0754 14.7017C14.9349 15.2236 14.6037 15.7455 14.0818 15.9162C13.8108 16.0065 13.5097 15.9864 13.2286 15.9262C11.4521 15.5448 10.1673 13.7482 9.07329 12.4333C7.50751 10.5564 6.6142 8.43855 5.83131 6.14007C5.4499 5.02595 5.01832 3.94195 4.0648 3.19921C3.83394 3.01854 3.37224 2.60702 3.02094 2.68731C1.85664 2.96835 2.25812 6.10996 2.29827 6.82259C2.62949 12.3831 4.91794 19.9009 4.91794 19.9009C4.91794 19.9009 5.90158 26.1138 4.91794 28.0711C3.93431 30.0283 20.9371 30.0484 22.2419 26.7763Z" fill="url(#paint4_linear_79_6151)"/>
<path d="M23.2254 27.7612C23.2254 27.7612 20.6057 24.8203 14.724 24.8203C8.84231 24.8203 4.59663 26.7776 3.613 29.3972C2.62937 32.0169 2.30818 39.2034 5.90145 40.5082C7.03564 40.9198 8.29027 41.0201 9.31405 40.2874C10.1873 39.6651 10.5386 38.5109 11.8534 38.9324C12.4255 39.1231 12.8973 39.5246 13.3891 39.8759C15.527 41.4517 19.1704 43.0777 21.6095 41.2209C24.9518 38.7016 26.1261 31.0333 23.2254 27.7612Z" fill="url(#paint5_linear_79_6151)"/>
<path d="M13.3781 36.7309C12.7358 36.7309 12.0934 36.7008 11.4611 36.6406C9.61424 36.4599 7.79753 36.0183 6.05108 35.3257L6.57301 36.1688L5.88045 36.5904L4.7563 34.7436L4.23438 34.5027L4.55556 34.4123L4.50537 34.322L7.29568 33.6094L7.51649 34.3923L6.64327 34.6532C8.22913 35.2554 9.86517 35.6469 11.5414 35.8075C13.1874 35.9681 14.8536 35.9179 16.5197 35.6469C17.9049 35.4261 19.1093 35.0748 19.9825 34.7636L19.6714 34.7034L19.8019 33.9004L22.3814 34.2618L22.3111 34.3722L22.6423 34.4324L22.0803 34.7235L20.9361 36.4699L20.2535 36.0183L20.6751 35.3759C19.832 35.7071 18.4469 36.1688 16.6703 36.4499C15.5662 36.6406 14.4621 36.7309 13.3781 36.7309Z" fill="#FF0000"/>
<defs>
<linearGradient id="paint0_linear_79_6151" x1="13.0218" y1="17.3345" x2="5.81117" y2="-18.0849" gradientUnits="userSpaceOnUse">
<stop offset="0.1599" stop-color="#BFAB8D"/>
<stop offset="0.5078" stop-color="#E7E1D2"/>
<stop offset="0.7297" stop-color="#CCBFA6"/>
</linearGradient>
<linearGradient id="paint1_linear_79_6151" x1="28.179" y1="14.8232" x2="1.08635" y2="14.9211" gradientUnits="userSpaceOnUse">
<stop offset="0.1599" stop-color="#BFAB8D"/>
<stop offset="0.5078" stop-color="#E7E1D2"/>
<stop offset="0.7297" stop-color="#CCBFA6"/>
</linearGradient>
<linearGradient id="paint2_linear_79_6151" x1="29.831" y1="33.3991" x2="-2.34598" y2="33.5153" gradientUnits="userSpaceOnUse">
<stop stop-color="#94938C"/>
<stop offset="0.2296" stop-color="#EDEBE1"/>
<stop offset="0.7988" stop-color="#EDEBE1"/>
<stop offset="1" stop-color="#94938C"/>
</linearGradient>
<linearGradient id="paint3_linear_79_6151" x1="13.1755" y1="17.0943" x2="5.9652" y2="-18.3249" gradientUnits="userSpaceOnUse">
<stop offset="0.1599" stop-color="#BFAB8D"/>
<stop offset="0.5078" stop-color="#E7E1D2"/>
<stop offset="0.7297" stop-color="#CCBFA6"/>
</linearGradient>
<linearGradient id="paint4_linear_79_6151" x1="27.7615" y1="15.1262" x2="2.82421" y2="15.2163" gradientUnits="userSpaceOnUse">
<stop offset="0.1599" stop-color="#BFAB8D"/>
<stop offset="0.5078" stop-color="#E7E1D2"/>
<stop offset="0.7297" stop-color="#CCBFA6"/>
</linearGradient>
<linearGradient id="paint5_linear_79_6151" x1="30.0838" y1="33.3928" x2="-2.47528" y2="33.5104" gradientUnits="userSpaceOnUse">
<stop stop-color="#94938C"/>
<stop offset="0.2296" stop-color="#EDEBE1"/>
<stop offset="0.7988" stop-color="#EDEBE1"/>
<stop offset="1" stop-color="#94938C"/>
</linearGradient>
</defs>
</svg>
