<svg width="19" height="61" viewBox="0 0 19 61" fill="none" xmlns="http://www.w3.org/2000/svg">
<path d="M5.78826 34.6914C5.78826 34.6914 2.51616 35.9963 1.54256 43.514C1.54256 43.514 0.558938 51.363 0.237752 53.6414C-0.093472 55.9299 -0.093462 58.8707 3.50985 59.8544C7.10313 60.838 10.3752 60.1856 12.3324 59.5231C14.2897 58.8607 17.2305 56.9035 17.893 54.6251C18.5554 52.3466 17.893 41.2256 16.9093 39.2683C15.9257 37.3111 13.6373 32.0818 5.78826 34.6914Z" fill="url(#paint0_linear_79_6072)"/>
<path d="M9.05839 3.64853C9.05839 3.64853 1.88189 19.3365 4.81271 35.8374C4.81271 35.8374 15.2111 34.6028 15.733 37.4233C14.2777 30.5579 13.5751 23.3312 13.8561 16.3153C13.9766 13.4748 14.1773 10.6343 14.2576 7.78381C14.3078 5.92695 14.6289 3.81916 13.836 2.09278C13.5048 1.37011 12.9528 0.306191 12.0394 0.215857C10.5037 0.0853753 9.5201 2.5846 9.05839 3.64853Z" fill="url(#paint1_linear_79_6072)"/>
<path d="M9.42289 54.7892C8.46937 54.7892 7.49577 54.7089 6.54225 54.5583C5.07684 54.3174 3.92259 53.9561 3.16981 53.665L3.45084 54.0966L2.7683 54.5483L1.76459 53.0226L1.15234 52.7115L1.51366 52.6412L1.45344 52.5409L3.7921 52.2096L3.92259 53.0126L3.84227 53.0327C4.54487 53.2736 5.51846 53.5546 6.6928 53.7453C8.14818 53.9762 9.60357 54.0264 11.0389 53.8858C12.4541 53.7453 13.8392 53.4241 15.1741 52.9323L14.5519 52.7516L14.7727 51.9688L17.2819 52.6111L17.2317 52.6914L17.583 52.7918L17.0109 53.0527L16.0273 54.6487L15.3347 54.2271L15.7061 53.6148C14.2206 54.197 12.6749 54.5684 11.0991 54.7189C10.5571 54.7691 9.98496 54.7892 9.42289 54.7892Z" fill="#FF0000"/>
<defs>
<linearGradient id="paint0_linear_79_6072" x1="-4.37499" y1="47.8191" x2="21.6353" y2="46.516" gradientUnits="userSpaceOnUse">
<stop stop-color="#94938C"/>
<stop offset="0.1599" stop-color="#D1CFC6"/>
<stop offset="0.2296" stop-color="#EDEBE1"/>
<stop offset="0.7988" stop-color="#EDEBE1"/>
<stop offset="0.9762" stop-color="#9F9E96"/>
<stop offset="1" stop-color="#94938C"/>
</linearGradient>
<linearGradient id="paint1_linear_79_6072" x1="13.1031" y1="18.8369" x2="4.12226" y2="18.9974" gradientUnits="userSpaceOnUse">
<stop stop-color="#BFAB8D"/>
<stop offset="0.5078" stop-color="#E7E1D2"/>
<stop offset="1" stop-color="#CCBFA6"/>
</linearGradient>
</defs>
</svg>
