<svg width="21" height="70" viewBox="0 0 21 70" fill="none" xmlns="http://www.w3.org/2000/svg">
<path d="M4.1875 45.325C4.1875 45.325 16.2721 42.2939 17.2758 44.0202L12.3978 9.47265C12.3978 9.47265 8.97518 0.589844 7.67036 0.589844C6.36555 0.589844 5.0507 4.51434 5.0507 4.51434C5.0507 4.51434 4.47858 37.0545 4.1875 45.325Z" fill="url(#paint0_linear_79_6082)"/>
<path d="M6.51667 41.8329C6.51667 41.8329 -0.669881 51.3079 0.634937 59.1569C1.05649 61.6863 1.9197 64.336 3.44533 66.4237C4.18807 67.4375 5.15162 68.3609 6.37614 68.7624C7.9921 69.2943 10.0597 68.8728 11.6757 68.5215C12.4686 68.3408 13.2516 68.0999 13.9943 67.7587C19.1734 65.3799 20.5485 59.2272 20.1269 54.0179C19.8358 50.3544 18.7217 46.8113 17.2764 43.4589C16.343 41.2809 14.1549 40.7188 11.9768 40.4077C10.3408 40.1668 7.63078 40.3575 6.51667 41.8329Z" fill="url(#paint1_linear_79_6082)"/>
<path d="M10.4506 61.8656C9.45691 61.8656 8.46327 61.7853 7.4696 61.6247C5.9239 61.3737 4.70939 60.9823 3.93654 60.6912L4.25773 61.183L3.57522 61.6347L2.5414 60.0589L1.94922 59.7477L2.30049 59.6775L2.23026 59.5771L4.63915 59.2358L4.76963 60.0388L4.6291 60.0689C5.41199 60.3399 6.45584 60.631 7.64022 60.8217C9.14578 61.0626 10.6614 61.1128 12.1469 60.9622C13.6223 60.8217 15.0777 60.4804 16.4829 59.9485L15.7903 59.7477L16.0111 58.9648L18.5907 59.6273L18.5405 59.7076L18.8817 59.808L18.3197 60.0589L17.3059 61.725L16.6134 61.3035L17.0249 60.631C15.4691 61.2433 13.8632 61.6247 12.2071 61.7853C11.6149 61.8354 11.0327 61.8656 10.4506 61.8656Z" fill="#FF0000"/>
<defs>
<linearGradient id="paint0_linear_79_6082" x1="15.5462" y1="23.2546" x2="5.65261" y2="22.9499" gradientUnits="userSpaceOnUse">
<stop stop-color="#BFAB8D"/>
<stop offset="0.5078" stop-color="#E7E1D2"/>
<stop offset="1" stop-color="#CCBFA6"/>
</linearGradient>
<linearGradient id="paint1_linear_79_6082" x1="26.4753" y1="54.3614" x2="-6.47723" y2="54.9504" gradientUnits="userSpaceOnUse">
<stop stop-color="#94938C"/>
<stop offset="0.0617" stop-color="#A4A29B"/>
<stop offset="0.1809" stop-color="#CCCAC2"/>
<stop offset="0.2666" stop-color="#EDEBE1"/>
<stop offset="0.7117" stop-color="#EDEBE1"/>
<stop offset="0.7719" stop-color="#E0DED5"/>
<stop offset="0.883" stop-color="#BEBDB4"/>
<stop offset="1" stop-color="#94938C"/>
</linearGradient>
</defs>
</svg>
