<svg width="20" height="58" viewBox="0 0 20 58" fill="none" xmlns="http://www.w3.org/2000/svg">
<path d="M10.168 56.174C10.168 56.174 15.5177 57.0071 17.2541 54.1666C19.0006 51.3261 10.72 54.4878 10.168 56.174Z" fill="#D8D6D0"/>
<path d="M15.5366 38.2559C15.5366 38.2559 15.2053 27.1449 14.2317 24.204C13.2481 21.2632 12.2745 11.457 12.5957 8.84732C12.9169 6.23768 12.9269 2.31319 12.9269 2.31319C12.9269 2.31319 13.2582 -0.627672 10.3073 1.66078C7.3664 3.94923 3.77313 15.0603 4.09431 19.6372C4.42553 24.2141 4.52588 38.005 4.47569 37.9749C4.42551 37.9247 15.5366 38.2559 15.5366 38.2559Z" fill="url(#paint0_linear_79_6091)"/>
<path d="M4.74863 36.9502C4.74863 36.9502 -2.76915 48.0612 2.79139 53.9429C3.47391 54.6656 4.53783 55.1675 5.36087 55.6894C6.21402 56.2314 7.1274 56.9842 8.16122 57.1046C9.35563 57.2351 10.2289 55.9905 11.4032 55.7496C13.2701 55.3582 15.0968 55.6693 16.6827 54.3946C17.9975 53.3407 18.8005 51.7047 19.0615 50.0686C19.4027 48.0211 19.0514 45.9434 18.6399 43.936C18.4693 43.0828 18.1682 42.2698 17.8269 41.4669C17.4555 40.6137 16.7931 39.7806 16.502 38.9074C16.5121 38.9074 13.9024 31.0584 4.74863 36.9502Z" fill="url(#paint1_linear_79_6091)"/>
<path d="M10.0772 52.0458C9.06344 52.0458 8.04971 51.9655 7.04601 51.8049C5.46015 51.5439 4.21555 51.1424 3.43266 50.8413L3.77392 51.3532L3.0914 51.8049L2.0375 50.199L1.44531 49.8978L1.79662 49.8376L1.72635 49.7373L4.16535 49.396L4.29583 50.199L4.12522 50.2291C4.91815 50.5101 5.9921 50.8112 7.21662 51.0019C8.75229 51.2428 10.298 51.293 11.8036 51.1525C13.3192 51.0019 14.8046 50.6607 16.2399 50.1187L15.5173 49.9079L15.7381 49.125L18.3477 49.7975L18.2975 49.8778L18.6388 49.9781L18.0868 50.2291L17.0529 51.9253L16.3604 51.5038L16.792 50.8012C15.2061 51.4235 13.5601 51.8249 11.8738 51.9855C11.2616 52.0157 10.6694 52.0458 10.0772 52.0458Z" fill="#FF0000"/>
<defs>
<linearGradient id="paint0_linear_79_6091" x1="14.6335" y1="19.563" x2="1.74102" y2="19.1659" gradientUnits="userSpaceOnUse">
<stop stop-color="#BFAB8D"/>
<stop offset="0.5078" stop-color="#E7E1D2"/>
<stop offset="1" stop-color="#CCBFA6"/>
</linearGradient>
<linearGradient id="paint1_linear_79_6091" x1="22.7858" y1="46.342" x2="-3.94017" y2="45.5187" gradientUnits="userSpaceOnUse">
<stop stop-color="#94938C"/>
<stop offset="0.0311" stop-color="#A6A59D"/>
<stop offset="0.0939" stop-color="#C5C3BB"/>
<stop offset="0.1552" stop-color="#DBD9D0"/>
<stop offset="0.2138" stop-color="#E8E7DD"/>
<stop offset="0.2666" stop-color="#EDEBE1"/>
<stop offset="0.7117" stop-color="#EDEBE1"/>
<stop offset="0.7637" stop-color="#E7E5DB"/>
<stop offset="0.835" stop-color="#D5D3CA"/>
<stop offset="0.9175" stop-color="#B8B7AF"/>
<stop offset="1" stop-color="#94938C"/>
</linearGradient>
</defs>
</svg>
