<svg width="19" height="55" viewBox="0 0 19 55" fill="none" xmlns="http://www.w3.org/2000/svg">
<path d="M9.70312 54.1039C9.70312 54.1039 15.0027 55.198 16.8796 52.4478C18.7566 49.6977 10.3355 52.4378 9.70312 54.1039Z" fill="#D8D6D0"/>
<path d="M8.92017 54.3329C8.92017 54.3329 3.27936 54.7143 1.87417 51.0508C0.468984 47.3973 8.58894 52.2151 8.92017 54.3329Z" fill="#D8D6D0"/>
<path d="M6.67066 33.8082C6.59036 33.8484 6.51005 33.8986 6.42975 33.9487C4.99445 34.9525 3.77998 36.5785 2.8666 38.0539C1.48149 40.2922 0.487805 42.8516 0.748768 45.5215C0.929435 47.3482 1.14022 49.446 2.04356 51.082C2.57552 52.0355 3.76993 52.4772 4.74353 52.8184C5.57661 53.1095 6.41971 53.3805 7.24275 53.7218C7.99553 54.0329 8.73827 54.5548 9.59142 54.4946C10.575 54.4143 11.2576 53.6515 12.0405 53.1497C13.265 52.3668 14.7404 51.9653 16.1958 52.0355C16.4467 52.0456 16.7178 52.0757 16.9586 51.9954C17.32 51.885 17.5809 51.5839 17.7917 51.2727C18.7553 49.8675 18.7252 48.5125 18.7352 46.8765C18.7452 45.2204 18.7151 43.5542 18.3939 41.9182C17.8319 39.0074 15.9047 36.5985 14.901 33.8584C14.8408 33.6978 14.7806 33.5372 14.6802 33.4068C14.4995 33.1859 14.1984 33.0856 13.9074 33.0655C13.3654 33.0253 12.8234 33.1056 12.2914 33.1659C11.2776 33.2763 10.294 33.3867 9.27025 33.4569C8.47733 33.4971 7.42344 33.4369 6.67066 33.8082Z" fill="url(#paint0_linear_79_6103)"/>
<path d="M4.5242 35.7153C4.56435 35.7454 4.60451 35.7655 4.65469 35.7856C4.92569 35.8558 5.73869 35.4544 6.02976 35.3841C6.99332 35.1332 7.96692 34.9224 8.95055 34.7417C9.9944 34.551 11.0382 34.3804 12.1022 34.3703C12.6642 34.3703 13.2263 34.4005 13.7784 34.5209C14.2702 34.6313 14.7921 34.9625 15.2538 35.0027C15.5951 33.6878 15.2538 32.1722 15.1735 30.8373C15.0832 29.3619 14.9527 27.8764 14.762 26.411C14.4107 23.6508 13.7282 20.9909 13.2263 18.2709C12.7345 15.6211 12.6041 12.8208 12.6643 10.1208C12.6944 8.85613 12.7646 7.58143 12.9152 6.31676C13.0356 5.24279 13.3468 4.27923 13.2364 3.16511C13.126 2.03092 12.594 0.314589 11.0985 0.776294C9.97431 1.12759 9.27174 2.36215 8.69962 3.30564C7.61562 5.10227 6.8227 7.0595 6.10003 9.02676C5.37736 10.994 4.70486 12.9914 4.32345 15.049C3.99223 16.8456 4.0324 18.6122 4.06251 20.4289C4.11269 23.3095 4.18296 26.2002 4.25322 29.0808C4.3034 30.9377 4.19299 32.8849 4.34355 34.7718C4.36362 35.1231 4.31343 35.5447 4.5242 35.7153Z" fill="url(#paint1_linear_79_6103)"/>
<path d="M9.76263 49.0229C8.78903 49.0229 7.80541 48.9426 6.82177 48.7821C5.31622 48.5412 4.12179 48.1598 3.35898 47.8687L3.66011 48.3304L2.97756 48.7821L1.95379 47.2263L1.35156 46.9152L1.70287 46.8449L1.64265 46.7445L4.02143 46.4133L4.15191 47.2163L4.04149 47.2364C4.76416 47.4873 5.76788 47.7783 6.97232 47.9691C8.45781 48.2099 9.94331 48.2501 11.4087 48.1096C12.8541 47.9691 14.2793 47.6378 15.6544 47.1259L14.9919 46.9352L15.2127 46.1523L17.7622 46.8048L17.712 46.885L18.0533 46.9854L17.4912 47.2364L16.4875 48.8724L15.7949 48.4508L16.1863 47.8085C14.6607 48.4007 13.0849 48.7821 11.4689 48.9427C10.9169 49.0029 10.3347 49.0229 9.76263 49.0229Z" fill="#FF0000"/>
<defs>
<linearGradient id="paint0_linear_79_6103" x1="24.698" y1="44.1658" x2="-5.53815" y2="43.2343" gradientUnits="userSpaceOnUse">
<stop stop-color="#94938C"/>
<stop offset="0.2666" stop-color="#EDEBE1"/>
<stop offset="0.7117" stop-color="#EDEBE1"/>
<stop offset="1" stop-color="#94938C"/>
</linearGradient>
<linearGradient id="paint1_linear_79_6103" x1="18.1624" y1="19.2951" x2="3.80295" y2="17.7871" gradientUnits="userSpaceOnUse">
<stop stop-color="#BFAB8D"/>
<stop offset="0.5078" stop-color="#E7E1D2"/>
<stop offset="1" stop-color="#CCBFA6"/>
</linearGradient>
</defs>
</svg>
