<svg width="26" height="51" viewBox="0 0 26 51" fill="none" xmlns="http://www.w3.org/2000/svg">
<path d="M14.941 2.17907C14.941 2.17907 15.8443 0.121478 17.6811 0.643405C19.5179 1.16533 20.1502 5.95301 19.819 9.48606C19.4878 13.0191 17.912 24.2305 15.212 24.4614C12.512 24.6922 7.56372 18.3387 9.81203 14.8057C12.0603 11.2626 15.7841 5.04968 14.941 2.17907Z" fill="url(#paint0_linear_79_6117)"/>
<path d="M3.11837 32.6311C6.3202 32.4003 9.94358 30.8345 13.1554 30.714C15.1629 30.6338 17.1803 30.5033 19.1877 30.5635C20.1212 30.5936 21.5063 33.0728 22.3996 32.9624C22.9817 32.8921 22.6003 30.4832 22.5702 29.8609C22.5502 29.3289 22.51 28.807 22.5803 28.275C22.8613 26.378 23.9052 24.5714 24.3368 22.6643C24.8386 20.4662 25.1799 18.2179 25.3906 15.9796C25.6115 13.6009 25.7018 11.1618 25.3906 8.78307C25.2602 7.75928 25.0695 6.71543 24.668 5.76191C24.3468 5.01916 23.584 3.55376 22.6003 3.66416C22.239 3.70431 21.9178 3.91509 21.6468 4.15598C21.1148 4.63776 20.7535 5.27009 20.5026 5.94257C20.0007 7.32769 20.0108 8.81318 19.9104 10.2585C19.81 11.754 19.4086 13.1291 19.0673 14.5845C18.445 17.2744 17.7123 20.4461 15.9458 22.6543C15.5142 23.1963 14.8718 23.6279 14.1893 23.5576C13.838 23.5275 13.5068 23.3669 13.2257 23.1561C12.1919 22.4134 11.67 21.1387 11.4893 19.874C11.1179 17.2945 11.399 14.454 12.0915 11.9548C12.493 10.4894 13.2458 9.17451 13.6975 7.73921C14.1792 6.22361 14.8316 3.21249 12.6938 2.64038C11.8306 2.40953 10.9172 2.85116 10.2648 3.46342C7.87594 5.75187 6.25998 9.16447 4.87486 12.1254C4.02171 13.9421 3.20871 15.809 2.68678 17.7462C2.37564 18.9105 2.40575 20.0748 2.43586 21.2692C2.5563 24.6215 2.747 29.2988 3.11837 32.6311Z" fill="url(#paint1_linear_79_6117)"/>
<path d="M22.0582 34.798C22.3292 34.8783 22.7206 35.6211 22.8712 35.8319C23.4734 36.675 23.9853 37.5883 24.3768 38.5419C25.4206 41.1314 25.2701 43.9719 23.3128 46.0897C23.2928 46.1098 23.2627 46.1399 23.2426 46.16C23.1322 46.2704 23.0318 46.3808 22.9415 46.5012C22.7006 46.8525 22.6404 47.3042 22.4095 47.6655C22.1887 48.0068 21.8775 48.328 21.5664 48.5889C20.8437 49.2012 19.8701 49.6228 18.9066 49.5324C18.5754 49.5023 18.2542 49.3819 17.943 49.2614C16.588 48.7495 15.1226 48.1774 14.3999 46.8325C14.4802 46.983 14.1089 47.6053 14.0185 47.7358C13.7977 48.0369 13.5167 48.1774 13.1654 48.3079C12.0212 48.7495 10.7665 49.1109 9.66242 49.6629C8.8996 49.954 8.25725 50.235 7.48439 49.9841C7.03273 49.8335 6.58105 49.7031 6.12938 49.5425C5.29631 49.2413 3.90115 48.6994 3.90115 47.6153C3.90115 45.9392 2.50601 40.9206 5.85839 35.8921C9.22081 30.8936 22.0482 34.788 22.0582 34.798Z" fill="#D8D6D0"/>
<path d="M22.0783 30.6641C22.3995 30.7645 22.8512 31.6277 23.0318 31.8786C23.7344 32.8723 24.3367 33.9362 24.7984 35.0604C26.0229 38.0915 25.8422 41.4138 23.5538 43.903C23.5237 43.9331 23.5036 43.9632 23.4735 43.9933C23.353 44.1238 23.2225 44.2543 23.1222 44.3948C22.8411 44.8064 22.7709 45.3283 22.4999 45.7599C22.2489 46.1614 21.8776 46.5428 21.5163 46.8439C20.6631 47.5565 19.539 48.0584 18.4048 47.9479C18.0133 47.9078 17.642 47.7673 17.2806 47.6368C15.6948 47.0446 13.9784 46.3621 13.1353 44.7863C13.2357 44.9669 12.794 45.6996 12.6836 45.8502C12.4227 46.2115 12.1015 46.3621 11.69 46.5227C10.345 47.0446 8.8796 47.4561 7.58482 48.1085C6.69152 48.4498 5.93873 48.781 5.0354 48.4799C4.50343 48.3093 3.97148 48.1587 3.44956 47.968C2.47596 47.6067 0.849933 46.9844 0.849933 45.7197C0.849933 43.7625 -0.786109 37.8707 3.13838 31.989C7.0428 26.0973 22.0683 30.6641 22.0783 30.6641Z" fill="url(#paint2_linear_79_6117)"/>
<path d="M13.1566 41.8171C11.8819 41.8171 10.5971 41.7167 9.32242 41.506C7.0942 41.1446 5.3879 40.5524 4.43438 40.171L5.05667 41.1145L4.37416 41.5662L3.01915 39.4986L2.52734 39.2476L2.81843 39.1974L2.73811 39.077L5.6589 38.6655L5.78939 39.4684L5.17714 39.5889C6.221 39.9803 7.73657 40.432 9.48302 40.713C11.4402 41.0242 13.4075 41.0944 15.3346 40.9037C17.3722 40.703 19.3695 40.2212 21.2967 39.4684L20.0721 39.1071L20.293 38.3242L23.4646 39.1372L23.4044 39.2376L23.6855 39.3179L23.2238 39.5287L21.8888 41.7067L21.1963 41.2852L21.919 40.1108C19.8212 40.974 17.6331 41.516 15.4049 41.7268C14.6621 41.777 13.9094 41.8171 13.1566 41.8171Z" fill="#FF0000"/>
<defs>
<linearGradient id="paint0_linear_79_6117" x1="11.4217" y1="23.4432" x2="29.9834" y2="-21.9218" gradientUnits="userSpaceOnUse">
<stop offset="0.1599" stop-color="#BFAB8D"/>
<stop offset="0.5078" stop-color="#E7E1D2"/>
<stop offset="0.7297" stop-color="#CCBFA6"/>
</linearGradient>
<linearGradient id="paint1_linear_79_6117" x1="24.3076" y1="17.4434" x2="3.39731" y2="18.3889" gradientUnits="userSpaceOnUse">
<stop offset="0.1599" stop-color="#BFAB8D"/>
<stop offset="0.5078" stop-color="#E7E1D2"/>
<stop offset="0.7297" stop-color="#CCBFA6"/>
</linearGradient>
<linearGradient id="paint2_linear_79_6117" x1="31.3332" y1="41.1075" x2="-3.48909" y2="37.4506" gradientUnits="userSpaceOnUse">
<stop stop-color="#94938C"/>
<stop offset="0.2296" stop-color="#EDEBE1"/>
<stop offset="0.7988" stop-color="#EDEBE1"/>
<stop offset="1" stop-color="#94938C"/>
</linearGradient>
</defs>
</svg>
