<svg width="24" height="43" viewBox="0 0 24 43" fill="none" xmlns="http://www.w3.org/2000/svg">
<path d="M19.1774 2.94597C19.7093 1.20955 18.0933 0.396549 16.7183 1.36011C14.0584 3.227 12.6633 6.38868 11.4589 9.28939C10.8968 10.6344 8.40759 15.3317 9.99345 16.5964C11.5592 17.851 17.2201 15.9741 17.2904 12.8726C17.3305 11.1864 17.2703 9.49014 17.5012 7.82398C17.742 5.99724 18.6554 4.64223 19.1774 2.94597Z" fill="url(#paint0_linear_79_6143)"/>
<path d="M3.38711 26.8661C2.42355 20.5628 2.44364 12.9447 5.24398 7.11318C5.89639 5.75817 6.77964 4.51357 7.84357 3.43961C8.25509 3.01805 10.7242 0.498747 11.2462 1.11101C11.7781 1.74334 11.2963 3.15857 11.206 3.86116C11.0454 5.0355 10.9049 6.21988 10.7744 7.40425C10.5235 9.80311 9.90118 12.4027 10.5536 14.7915C10.6941 15.3135 11.0253 15.8354 11.5473 16.006C11.8183 16.0963 12.1194 16.0763 12.4004 16.0161C14.177 15.6347 15.4617 13.838 16.5557 12.5232C18.1215 10.6462 19.0148 8.5284 19.7977 6.22991C20.1791 5.1158 20.6107 4.03179 21.5643 3.28905C21.7951 3.10838 22.2568 2.69687 22.6081 2.77717C23.7724 3.0582 23.3709 6.1998 23.3308 6.91243C22.9995 12.473 20.7111 19.9907 20.7111 19.9907C20.7111 19.9907 19.7275 26.2037 20.7111 28.1609C21.6947 30.1382 4.69193 30.1382 3.38711 26.8661Z" fill="url(#paint1_linear_79_6143)"/>
<path d="M2.40536 27.851C2.40536 27.851 5.02504 24.9102 10.9068 24.9102C16.7885 24.9102 21.0341 26.8674 22.0178 29.4871C23.0014 32.1067 23.3226 39.2933 19.7293 40.5981C18.5951 41.0096 17.3405 41.11 16.3167 40.3773C15.4435 39.755 15.0922 38.6007 13.7773 39.0223C13.2052 39.213 12.7335 39.6144 12.2417 39.9657C10.1038 41.5416 6.46032 43.1676 4.02132 41.3107C0.678973 38.7914 -0.495349 31.1231 2.40536 27.851Z" fill="url(#paint2_linear_79_6143)"/>
<path d="M12.2503 36.8202C11.1562 36.8202 10.0622 36.7299 8.96812 36.5592C7.19157 36.2682 5.80646 35.8165 4.96335 35.4853L5.38492 36.1276L4.70238 36.5793L3.55817 34.8329L2.99609 34.5418L3.3273 34.4816L3.25704 34.3712L5.83657 34.0098L5.96705 34.8128L5.65591 34.873C6.52913 35.1842 7.73359 35.5355 9.1187 35.7563C10.7849 36.0273 12.451 36.0775 14.0971 35.9169C15.7733 35.7563 17.4093 35.3648 18.9952 34.7626L18.1219 34.5016L18.3427 33.7188L21.133 34.4314L21.0829 34.5217L21.4041 34.612L20.8821 34.8529L19.758 36.6998L19.0654 36.2782L19.5873 35.4351C17.8509 36.1276 16.0342 36.5693 14.1774 36.7499C13.535 36.7901 12.8926 36.8202 12.2503 36.8202Z" fill="#FF0000"/>
<defs>
<linearGradient id="paint0_linear_79_6143" x1="12.635" y1="17.4707" x2="19.8456" y2="-17.9487" gradientUnits="userSpaceOnUse">
<stop offset="0.1599" stop-color="#BFAB8D"/>
<stop offset="0.5078" stop-color="#E7E1D2"/>
<stop offset="0.7297" stop-color="#CCBFA6"/>
</linearGradient>
<linearGradient id="paint1_linear_79_6143" x1="-2.13116" y1="15.2164" x2="22.8061" y2="15.3065" gradientUnits="userSpaceOnUse">
<stop offset="0.1599" stop-color="#BFAB8D"/>
<stop offset="0.5078" stop-color="#E7E1D2"/>
<stop offset="0.7297" stop-color="#CCBFA6"/>
</linearGradient>
<linearGradient id="paint2_linear_79_6143" x1="-4.45176" y1="33.483" x2="28.1074" y2="33.6006" gradientUnits="userSpaceOnUse">
<stop stop-color="#94938C"/>
<stop offset="0.2296" stop-color="#EDEBE1"/>
<stop offset="0.7988" stop-color="#EDEBE1"/>
<stop offset="1" stop-color="#94938C"/>
</linearGradient>
</defs>
</svg>
