<svg width="25" height="40" viewBox="0 0 25 40" fill="none" xmlns="http://www.w3.org/2000/svg">
<path d="M9.50193 36.8481C9.21086 38.705 10.3952 39.1968 11.3186 37.9422C13.1153 35.5232 13.9483 32.0604 14.671 28.8988C15.0022 27.4334 16.5479 22.204 15.3636 21.2606C14.1892 20.3171 10.2647 23.3583 10.3651 26.4999C10.4153 28.1962 10.5357 29.8924 10.4554 31.6188C10.3852 33.4857 9.793 35.0314 9.50193 36.8481Z" fill="url(#paint0_linear_79_6254)"/>
<path d="M21.9788 13.5448C21.9788 13.5448 20.6739 17.138 20.6739 21.0625C20.6739 24.987 21.0052 29.8851 18.7167 33.4784C16.4283 37.0717 15.7758 38.7077 15.7758 38.7077C15.7758 38.7077 13.8186 40.9962 12.835 38.3765C12.835 38.3765 15.1234 30.5275 13.8186 26.613C12.5138 22.6885 11.1989 23.9934 10.8778 24.6558C10.5566 25.3183 5.97966 32.826 5.31722 34.7832C4.66481 36.7405 3.68118 38.7077 3.02877 38.7077C2.37636 38.7077 1.39273 37.0717 0.740318 34.1308C0.0879085 31.1899 0.740321 27.9179 2.04514 25.6294C3.34996 23.341 4.66481 13.2135 4.66481 11.5775C4.66481 9.94146 20.3427 12.8924 21.9788 13.5448Z" fill="url(#paint1_linear_79_6254)"/>
<path d="M14.4222 3.27604C14.7334 3.20578 15.0546 2.99502 15.4259 2.75413C16.4397 2.09168 17.4936 1.43927 18.6579 1.11808C19.8222 0.796898 21.137 0.816974 22.1809 1.44931C22.9136 1.89094 23.4556 2.5835 23.8972 3.30617C24.5998 4.44036 25.1117 5.76524 24.9511 7.09013C24.7705 8.60572 24.1682 10.0912 23.556 11.4663C23.1846 12.2994 22.8734 13.2629 22.201 13.9153C21.4181 14.6781 20.1032 14.7885 19.0694 14.9291C16.8512 15.2402 14.6129 14.9592 12.4449 14.4473C10.287 13.9354 8.05874 13.3633 5.96099 12.6507C5.57959 12.5202 5.20821 12.3696 4.88702 12.1287C4.00376 11.4462 3.82309 9.90051 3.60228 8.88677C3.28109 7.34106 3.4718 5.73513 4.11417 4.2898C4.92717 2.43294 6.49295 0.786867 8.56059 0.465681C10.0461 0.234829 11.3609 0.545979 12.3646 1.6902C12.6959 2.07161 12.9568 2.51323 13.3182 2.87457C13.7196 3.26601 14.0609 3.35634 14.4222 3.27604Z" fill="url(#paint2_linear_79_6254)"/>
<path d="M19.1574 10.614L19.0369 9.81106L20.131 9.63039C18.7458 8.56646 17.2403 7.7635 15.6444 7.25161C14.1589 6.76983 12.5831 6.53897 10.9872 6.55905C9.42141 6.57912 8.11659 6.84008 7.28352 7.0609L7.78537 7.28172L7.47422 8.0345L5.19581 7.16128L5.28614 7.05087L5.10547 6.97057L5.45677 6.83005L6.93221 4.95312L7.57458 5.45498L6.9021 6.30812C7.76529 6.06723 9.18052 5.76613 10.937 5.73601C12.6333 5.71594 14.2994 5.95683 15.8752 6.46872C17.5815 7.02075 19.1875 7.8739 20.673 9.01812L20.3317 7.73338L21.1246 7.52261L21.767 9.92147L22.028 10.1423L21.8373 10.1724L21.8674 10.2828L19.1574 10.614Z" fill="#FF0000"/>
<defs>
<linearGradient id="paint0_linear_79_6254" x1="13.1165" y1="20.8488" x2="13.0914" y2="57.9177" gradientUnits="userSpaceOnUse">
<stop offset="0.1599" stop-color="#BFAB8D"/>
<stop offset="0.5078" stop-color="#E7E1D2"/>
<stop offset="0.7297" stop-color="#CCBFA6"/>
</linearGradient>
<linearGradient id="paint1_linear_79_6254" x1="20.0807" y1="25.328" x2="3.32255" y2="25.3885" gradientUnits="userSpaceOnUse">
<stop stop-color="#BFAB8D"/>
<stop offset="0.5078" stop-color="#E7E1D2"/>
<stop offset="1" stop-color="#CCBFA6"/>
</linearGradient>
<linearGradient id="paint2_linear_79_6254" x1="31.3371" y1="7.66214" x2="-2.7022" y2="7.7851" gradientUnits="userSpaceOnUse">
<stop stop-color="#94938C"/>
<stop offset="0.2614" stop-color="#EDEBE1"/>
<stop offset="0.7687" stop-color="#EDEBE1"/>
<stop offset="1" stop-color="#94938C"/>
</linearGradient>
</defs>
</svg>
