<svg width="27" height="48" viewBox="0 0 27 48" fill="none" xmlns="http://www.w3.org/2000/svg">
<path d="M10.9119 41.5918C10.7111 43.549 11.9758 43.9907 12.8791 42.6256C14.6256 39.9859 15.2981 36.3123 15.8702 32.9599C16.1312 31.4042 17.446 25.8437 16.1512 24.9202C14.8665 24.0069 10.942 27.4094 11.223 30.6915C11.3736 32.4681 11.6044 34.2346 11.6145 36.0413C11.6345 38.0186 11.1126 39.6747 10.9119 41.5918Z" fill="url(#paint0_linear_79_6238)"/>
<path d="M22.5443 19.328C21.8618 21.2852 21.3098 23.3328 20.9886 25.3803C20.7778 26.7554 20.8079 27.99 21.0187 29.355C21.37 31.6535 21.4001 34.0423 21.2997 36.3609C21.1492 39.9742 19.4128 42.6943 18.0276 45.9463C17.5158 47.1407 16.3414 47.763 15.2775 46.669C13.9225 45.2738 14.2838 42.353 14.2336 40.5865C14.1634 38.1676 14.1132 35.7386 13.6314 33.3498C13.4206 32.326 13.1296 31.3022 12.5976 30.4089C12.0656 29.5156 11.082 29.084 10.1385 29.7264C8.88388 30.5795 8.60284 32.4565 8.17125 33.7914C7.76976 35.046 7.3984 36.3107 7.0471 37.5754C6.54525 39.362 6.08354 41.1687 5.60176 42.9653C5.40102 43.708 4.75865 45.4545 3.66461 44.7017C3.29323 44.4407 3.11257 43.9991 2.96201 43.5776C2.46016 42.1924 2.05867 40.7672 1.64715 39.3419C1.10515 37.4349 0.613341 35.5379 0.492896 33.5505C0.332303 30.8505 1.39623 28.1706 1.91816 25.551C2.4702 22.7707 2.82149 19.9402 2.95197 17.1098C2.96201 16.9191 2.97205 16.7183 3.10253 16.5778C3.27316 16.3871 3.56424 16.4072 3.81516 16.4373C6.8865 16.7886 9.96788 17.0797 13.0292 17.4611C15.1069 17.7221 17.1845 17.9931 19.2421 18.3745C20.1354 18.5351 21.8317 18.6254 22.5443 19.328Z" fill="url(#paint1_linear_79_6238)"/>
<path d="M24.9442 15.0824C25.0446 13.8579 25.0145 12.6133 25.2554 11.3988C25.6167 9.51183 26.5703 7.85572 26.4398 5.85835C26.1186 1.03052 19.3737 0.659139 15.9812 1.99407C14.576 2.54611 13.9938 2.02417 12.8094 1.28143C11.5247 0.468428 10.0091 0.046875 8.4935 0.046875C6.75708 0.046875 4.84001 0.538701 3.36456 1.45207C1.17649 2.79704 1.17648 5.01523 1.02593 7.3338C0.855297 9.90329 0.915518 12.5531 1.76867 15.0122C2.02963 15.7649 2.37089 16.5077 2.91289 17.0898C3.68575 17.9229 4.65934 18.0233 5.70319 18.2642C7.11842 18.5954 8.56376 18.8664 9.98902 19.1374C12.7994 19.6694 15.6299 20.101 18.4804 20.2415C19.8354 20.3117 21.2406 20.1712 22.435 19.5489C24.1714 18.6355 24.7837 16.9292 24.9442 15.0824Z" fill="url(#paint2_linear_79_6238)"/>
<path d="M19.4842 8.98936L19.2132 8.21651L20.5482 7.71465C18.7013 6.76113 16.7642 6.14887 14.7969 5.90798C13.0003 5.68716 11.1735 5.76747 9.35682 6.13884C7.48993 6.52025 6.02452 7.15259 5.1513 7.58418L5.94423 7.77487L5.77359 8.57784L3.10374 8.09607L3.17399 7.95555L3.02344 7.91539L3.2844 7.74476L4.55911 5.27565L5.28178 5.64702L4.61933 6.94181C5.51263 6.4801 7.10852 5.7775 9.19623 5.3459C11.1033 4.95446 13.0204 4.87417 14.8973 5.10502C16.985 5.36599 19.0326 6.00836 20.9998 7.03214L20.247 5.47639L20.9797 5.12509L22.2344 7.73473L22.4753 7.87525L22.3247 7.93547L22.3749 8.04588L19.4842 8.98936Z" fill="#FF0000"/>
<defs>
<linearGradient id="paint0_linear_79_6238" x1="13.8896" y1="24.7801" x2="15.9995" y2="63.5849" gradientUnits="userSpaceOnUse">
<stop offset="0.1599" stop-color="#BFAB8D"/>
<stop offset="0.5078" stop-color="#E7E1D2"/>
<stop offset="0.7297" stop-color="#CCBFA6"/>
</linearGradient>
<linearGradient id="paint1_linear_79_6238" x1="20.0129" y1="33.2173" x2="2.51908" y2="29.8131" gradientUnits="userSpaceOnUse">
<stop stop-color="#BFAB8D"/>
<stop offset="0.5078" stop-color="#E7E1D2"/>
<stop offset="1" stop-color="#CCBFA6"/>
</linearGradient>
<linearGradient id="paint2_linear_79_6238" x1="30.5185" y1="13.1649" x2="-2.77923" y2="6.68541" gradientUnits="userSpaceOnUse">
<stop stop-color="#94938C"/>
<stop offset="0.2114" stop-color="#EDEBE1"/>
<stop offset="0.847" stop-color="#EDEBE1"/>
<stop offset="1" stop-color="#94938C"/>
</linearGradient>
</defs>
</svg>
