<svg width="29" height="51" viewBox="0 0 29 51" fill="none" xmlns="http://www.w3.org/2000/svg">
<path d="M19.7975 1.02808C21.1123 1.11841 22.1261 1.49983 23.2 2.24257C23.4911 2.44331 23.7722 2.6842 23.7119 2.97527C23.4409 4.3102 13.5645 3.23623 13.6648 2.0619C13.725 1.3593 16.9369 1.17864 17.6495 1.09835C18.4625 1.00801 19.1651 0.977895 19.7975 1.02808Z" fill="#D8D6D0"/>
<path d="M9.63105 46.3949C8.95856 48.5629 10.5545 49.4462 12.0299 48.1614C14.8905 45.6823 16.5566 41.7076 18.012 38.0641C18.6845 36.3779 21.5852 30.446 20.0596 29.0107C18.544 27.5854 12.6121 30.2954 12.3109 34.0995C12.1503 36.1671 12.0801 38.2348 11.7188 40.3024C11.3373 42.5407 10.2935 44.267 9.63105 46.3949Z" fill="url(#paint0_linear_79_6221)"/>
<path d="M26.4112 21.1216C26.2205 21.8945 26.0599 22.6874 26.0198 22.838C25.7086 24.1428 25.4276 25.4677 25.2067 26.7926C25.0261 27.8766 24.8856 28.9706 24.7752 30.0647C24.6748 31.1286 24.7651 32.2929 24.5644 33.3367C24.3636 34.3605 24.0023 35.4345 23.651 36.4281C22.6172 39.3991 21.0414 42.1693 19.1845 44.6987C18.2511 45.9633 17.2373 47.1778 16.1734 48.3421C15.521 49.0548 14.1258 51.1626 12.9615 50.2893C12.5299 49.9581 12.3493 49.376 12.3794 48.834C12.4095 48.292 12.6102 47.77 12.8009 47.2581C14.2563 43.3136 15.6414 38.4255 14.8284 34.1899C14.7381 33.7483 14.6076 33.2966 14.2965 32.9754C13.8849 32.5538 13.2125 32.4635 12.6504 32.6241C12.0883 32.7847 11.5965 33.1561 11.1749 33.5575C9.71956 34.9627 8.69578 36.9501 7.80248 38.7467C7.12999 40.1117 6.63818 41.5671 6.35714 43.0526C6.08614 44.4779 6.31699 46.1842 5.74488 47.5191C5.42369 48.2719 4.70103 48.9143 3.88803 48.8942C3.25569 48.8741 2.68358 48.4626 2.27206 47.9909C0.726353 46.2243 0.425241 43.4139 0.334907 41.1656C0.2245 38.3252 0.625978 35.5047 1.06761 32.7044C1.66983 28.9003 2.43266 25.1264 3.29585 21.3725C3.32596 21.232 3.79769 18.8633 3.88803 18.8633C3.88803 18.8633 26.7625 19.4956 26.9733 19.5057C26.8328 19.4655 26.6119 20.2885 26.4112 21.1216Z" fill="url(#paint1_linear_79_6221)"/>
<path d="M8.50586 0.847103C9.69024 0.776844 10.6538 1.0378 11.7378 1.64002C12.0289 1.80062 12.3099 2.0114 12.3099 2.30247C12.2798 3.65748 3.29663 3.76788 3.19626 2.59354C3.13603 1.90098 5.97652 1.32887 6.60886 1.16828C7.31145 0.987614 7.93375 0.877215 8.50586 0.847103Z" fill="#D8D6D0"/>
<path d="M24.4522 1.8992C25.4057 1.98953 26.299 2.36092 27.0718 3.16388C28.0655 4.20774 28.5674 5.64303 28.6878 7.07834C28.9488 10.1597 28.4269 13.8132 27.654 16.7942C27.4131 17.7377 27.383 19.7251 26.7406 20.4578C24.7232 22.7261 20.2768 21.6221 17.5868 21.4414C14.5054 21.2306 11.1932 21.1302 8.43302 20.4578C6.60628 20.3674 3.25389 20.7689 2.70185 18.36C2.06952 15.5898 1.67808 12.7593 1.5476 9.92886C1.44722 7.81104 1.13608 2.5717 4.18735 2.16017C4.62898 2.09995 5.38176 2.6018 5.83343 2.70217C6.76687 2.91295 7.68024 2.88284 8.60365 2.64195C9.73784 2.34084 10.8018 1.79884 11.8858 1.35721C12.1267 1.25684 12.3675 1.16651 12.6285 1.17655C13.2107 1.19662 13.6423 1.69847 14.104 2.04977C16.0712 3.52522 19.5842 2.7624 21.7522 2.19029C22.6656 1.9494 23.5789 1.80887 24.4522 1.8992Z" fill="url(#paint2_linear_79_6221)"/>
<path d="M21.0212 10.5918L20.7602 9.81892L22.1152 9.33715C20.2082 8.41374 18.2208 7.82156 16.1933 7.59071C14.3365 7.3699 12.4395 7.45019 10.5525 7.82156C8.64549 8.19293 7.13992 8.79515 6.23659 9.21671L7.01948 9.39737L6.85888 10.2003L4.08866 9.72859L4.16896 9.58808L3.98828 9.54793L4.2894 9.36726L5.60425 6.95837L6.31689 7.34982L5.63436 8.59442C6.54773 8.14275 8.20386 7.45019 10.3819 7.01859C12.3492 6.63718 14.3265 6.55688 16.2736 6.7777C18.4417 7.02862 20.5595 7.67099 22.597 8.6747L21.8342 7.16914L22.5669 6.79778L23.8617 9.33715L24.1427 9.48771L23.9721 9.54793L24.0323 9.65834L21.0212 10.5918Z" fill="#FF0000"/>
<defs>
<linearGradient id="paint0_linear_79_6221" x1="17.2573" y1="28.2234" x2="9.49599" y2="72.5152" gradientUnits="userSpaceOnUse">
<stop offset="0.1599" stop-color="#BFAB8D"/>
<stop offset="0.5078" stop-color="#E7E1D2"/>
<stop offset="0.7297" stop-color="#CCBFA6"/>
</linearGradient>
<linearGradient id="paint1_linear_79_6221" x1="24.3641" y1="34.5983" x2="1.83736" y2="34.6797" gradientUnits="userSpaceOnUse">
<stop stop-color="#BFAB8D"/>
<stop offset="0.5078" stop-color="#E7E1D2"/>
<stop offset="1" stop-color="#CCBFA6"/>
</linearGradient>
<linearGradient id="paint2_linear_79_6221" x1="34.4673" y1="11.4641" x2="-4.37778" y2="11.6045" gradientUnits="userSpaceOnUse">
<stop stop-color="#94938C"/>
<stop offset="0.2296" stop-color="#EDEBE1"/>
<stop offset="0.7988" stop-color="#EDEBE1"/>
<stop offset="1" stop-color="#94938C"/>
</linearGradient>
</defs>
</svg>
