<svg width="24" height="42" viewBox="0 0 24 42" fill="none" xmlns="http://www.w3.org/2000/svg">
<path d="M7.00781 38.8761C7.00781 38.8761 9.45686 42.4593 13.1806 40.0203C16.9044 37.5813 8.92489 37.1898 7.00781 38.8761Z" fill="#D8D6D0"/>
<path d="M9.9379 3.41062C9.41598 1.67421 7.61934 1.89503 7.00708 3.46081C5.83275 6.492 6.43497 9.89457 7.03719 12.986C7.31823 14.4113 7.86023 19.7008 9.87768 19.8714C11.8751 20.042 15.5386 15.3347 13.8724 12.715C12.9691 11.2897 11.9855 9.91464 11.2427 8.39904C10.4297 6.75296 10.4498 5.11692 9.9379 3.41062Z" fill="url(#paint0_linear_79_6137)"/>
<path d="M20.3995 26.7062C20.3293 26.7464 20.1285 26.2746 19.9378 26.2947C19.6969 26.3248 19.3858 26.2345 19.1449 26.2144C18.3018 26.1341 17.4587 26.0538 16.6055 25.9936C14.2569 25.8129 11.8881 25.7126 9.5294 25.7527C7.89336 25.7828 6.2272 25.8731 4.61123 26.2144C3.61756 26.4252 2.31274 26.7464 1.70048 27.6497C1.70048 27.6497 3.06552 22.1293 2.09193 17.8836C1.1083 13.638 -0.196521 2.19571 2.42315 1.86449C4.06923 1.66374 5.30379 5.47783 5.73539 6.54176C6.86958 9.36218 7.76288 12.3733 8.56584 15.3342C8.58591 15.4145 8.61602 15.5049 8.66621 15.5751C9.10784 16.1874 10.6435 16.4283 11.2357 16.0167C11.7275 15.6755 11.858 15.003 11.9383 14.4108C12.0788 13.3469 12.2294 12.293 12.3699 11.2291C12.7111 8.70977 13.0524 6.18043 12.9922 3.63101C12.9721 2.92842 12.1792 -0.624705 13.8754 0.218408C16.726 1.64367 18.352 5.5782 19.1349 8.40866C20.1988 12.2328 20.2389 16.3179 20.3895 20.2524C20.4598 22.0591 20.5501 23.8858 20.4297 25.6925C20.3995 26.0638 20.4899 26.656 20.3995 26.7062Z" fill="url(#paint1_linear_79_6137)"/>
<path d="M19.3037 25.5517C18.4305 24.9394 17.2562 24.8692 16.2324 24.6685C14.6967 24.3573 13.151 24.1064 11.5852 24.006C8.14253 23.7952 4.34852 24.4276 2.02996 27.2279C1.21696 28.2115 0.634808 29.3959 0.35377 30.6505C0.0325842 32.0557 0.293545 32.9591 0.735176 34.294C1.1467 35.5085 1.67866 36.8233 2.3411 37.9274C3.05374 39.1218 4.208 40.1556 5.65334 40.1356C7.21912 40.1155 8.74476 39.5032 9.78861 38.3189C9.8388 38.2586 9.89901 38.1884 9.97931 38.1583C10.0696 38.1181 10.1801 38.1382 10.2704 38.1583C12.3681 38.64 14.4759 40.0151 16.4131 40.9385C17.3365 41.3802 17.8684 41.5207 18.8119 41.0289C19.9863 40.4166 21.1004 39.6538 21.9636 38.6601C24.523 35.7092 23.5494 31.5137 21.6725 28.4625C21.0803 27.4989 20.3476 26.3848 19.4643 25.6722C19.4041 25.632 19.3539 25.5919 19.3037 25.5517Z" fill="url(#paint2_linear_79_6137)"/>
<path d="M11.1947 34.8072C10.5021 34.8072 9.81959 34.7771 9.13707 34.7069C7.12965 34.5162 5.16239 34.0244 3.27542 33.2615L3.87764 34.2452L3.18509 34.6667L1.9706 32.6894L1.46875 32.4686L1.76986 32.3783L1.70964 32.2879L4.66054 31.5352L4.88135 32.318L3.85757 32.6192C5.58394 33.2916 7.38058 33.7132 9.21736 33.8939C10.9839 34.0645 12.7805 34.0043 14.5671 33.7132C16.173 33.4522 17.4779 33.0508 18.3511 32.7296L17.9195 32.6493L18.05 31.8463L20.77 32.2277L20.6998 32.3381L21.0109 32.3983L20.4789 32.6694L19.2444 34.5463L18.5619 34.0946L19.0637 33.3218C18.1805 33.6731 16.6548 34.1849 14.6976 34.5061C13.5333 34.7069 12.359 34.8072 11.1947 34.8072Z" fill="#FF0000"/>
<defs>
<linearGradient id="paint0_linear_79_6137" x1="12.4252" y1="18.8386" x2="-1.26222" y2="-14.6132" gradientUnits="userSpaceOnUse">
<stop offset="0.1599" stop-color="#BFAB8D"/>
<stop offset="0.5078" stop-color="#E7E1D2"/>
<stop offset="0.7297" stop-color="#CCBFA6"/>
</linearGradient>
<linearGradient id="paint1_linear_79_6137" x1="1.55645" y1="16.1548" x2="19.2453" y2="12.7994" gradientUnits="userSpaceOnUse">
<stop offset="0.1599" stop-color="#BFAB8D"/>
<stop offset="0.5078" stop-color="#E7E1D2"/>
<stop offset="0.7297" stop-color="#CCBFA6"/>
</linearGradient>
<linearGradient id="paint2_linear_79_6137" x1="28.7773" y1="32.5963" x2="-4.50768" y2="32.6808" gradientUnits="userSpaceOnUse">
<stop stop-color="#94938C"/>
<stop offset="0.2296" stop-color="#EDEBE1"/>
<stop offset="0.7988" stop-color="#EDEBE1"/>
<stop offset="1" stop-color="#94938C"/>
</linearGradient>
</defs>
</svg>
