<svg width="19" height="51" viewBox="0 0 19 51" fill="none" xmlns="http://www.w3.org/2000/svg">
<path d="M15.2408 20.5577C14.4378 25.8171 13.0226 31.0665 11.1758 36.0449C9.14827 41.5151 6.61893 46.9954 1.70076 50.418C1.58032 50.4983 1.44984 50.5886 1.30932 50.5987C1.15876 50.6087 1.01824 50.5284 0.907828 50.4381C0.225307 49.9262 -0.015573 49.0028 0.0546864 48.1597C0.124946 47.3165 0.456166 46.5236 0.757278 45.7307C2.55391 40.8928 2.9855 35.5631 3.49739 30.4543C3.81858 27.2223 4.59143 23.2677 3.82862 20.0458C3.00558 16.5931 14.7389 19.9455 15.2408 20.5577Z" fill="url(#paint0_linear_79_6206)"/>
<path d="M5.10289 0.577464C5.82555 0.246242 6.58836 0.24623 7.6021 0.487119C7.8731 0.557378 8.16418 0.657752 8.31474 0.898641C9.00729 2.02279 3.29621 4.17072 2.61369 3.22724C2.21221 2.66517 3.73784 1.55105 4.05903 1.28005C4.41032 0.968905 4.75159 0.738056 5.10289 0.577464Z" fill="#D8D6D0"/>
<path d="M15.0398 0.766967C15.381 0.867338 15.632 0.977748 15.7424 1.06808C16.2844 1.54986 16.8565 2.06175 17.0974 2.74427C17.1977 3.01527 17.2078 3.38665 16.9569 3.5372C16.8766 3.58739 16.7762 3.60745 16.6758 3.60745C15.5316 3.69779 14.2067 2.95505 13.2431 2.42309C12.8818 2.22235 11.3461 1.51975 11.4164 0.957674C11.5168 0.124599 13.8153 0.395597 15.0398 0.766967Z" fill="#D8D6D0"/>
<path d="M17.059 2.87404C17.059 2.87404 19.3475 4.51008 18.0427 8.75576C17.3903 14.6375 15.423 20.5192 15.423 20.5192C15.423 20.5192 14.7706 21.5028 10.1937 21.5028C5.61677 21.5028 4.31195 20.8504 3.65954 19.5456C3.00713 18.2408 1.37109 5.81489 1.37109 5.81489C1.37109 5.81489 1.70231 2.87403 3.00713 2.54281C4.31194 2.21159 5.62681 1.89041 5.94799 1.89041C6.26918 1.89041 9.22007 -0.0668268 10.5249 0.25436C11.8297 0.585583 15.1018 3.19522 17.059 2.87404Z" fill="url(#paint1_linear_79_6206)"/>
<path d="M14.3794 8.39354L14.0482 7.65079L14.8612 7.25935C13.6668 6.47645 12.4322 5.98464 11.1776 5.7839C10.0133 5.60323 8.82893 5.66345 7.65459 5.9746C6.49029 6.28575 5.56688 6.77757 4.99477 7.13891L5.39625 7.25935L5.18548 8.05228L3.30853 7.62068L3.35872 7.49021L3.23828 7.45005L3.43902 7.27942L4.28213 5.19171L5.04496 5.49283L4.70369 6.35602C5.33602 5.97461 6.27951 5.49283 7.45385 5.18168C8.7386 4.84042 10.0434 4.77015 11.3181 4.9709C12.6129 5.18167 13.8876 5.66345 15.1021 6.42627L14.6906 5.33223L15.4534 5.05119L16.2764 7.25935L16.4571 7.38983L16.3467 7.44002L16.3868 7.54038L14.3794 8.39354Z" fill="#FF0000"/>
<defs>
<linearGradient id="paint0_linear_79_6206" x1="12.0148" y1="34.5247" x2="1.64847" y2="34.5622" gradientUnits="userSpaceOnUse">
<stop stop-color="#BFAB8D"/>
<stop offset="0.5078" stop-color="#E7E1D2"/>
<stop offset="1" stop-color="#CCBFA6"/>
</linearGradient>
<linearGradient id="paint1_linear_79_6206" x1="22.0765" y1="10.8165" x2="-2.05536" y2="10.9037" gradientUnits="userSpaceOnUse">
<stop stop-color="#94938C"/>
<stop offset="0.2296" stop-color="#EDEBE1"/>
<stop offset="0.7988" stop-color="#EDEBE1"/>
<stop offset="1" stop-color="#94938C"/>
</linearGradient>
</defs>
</svg>
