<svg width="19" height="53" viewBox="0 0 19 53" fill="none" xmlns="http://www.w3.org/2000/svg">
<path d="M15.6701 21.6327C15.6701 21.6327 9.45718 47.1269 4.22786 51.3726C-1.00145 55.6182 1.60819 47.1269 1.60819 47.1269C1.60819 47.1269 3.56541 31.4389 3.56541 28.4981C3.56541 25.5572 2.52156 20.0469 2.52156 20.0469C2.52156 20.0469 12.6088 22.2149 15.6701 21.6327Z" fill="url(#paint0_linear_79_6194)"/>
<path d="M16.0026 2.35095C16.0026 2.35095 19.2747 3.98699 18.291 8.56389C17.3074 13.1408 17.6386 15.7504 17.6386 15.7504C17.6386 15.7504 16.9862 23.5994 11.4257 23.9206C5.86514 24.2518 2.27187 20.9797 1.95069 19.0225C1.61946 17.0653 1.61947 11.5047 1.29828 10.5211C0.967061 9.53748 -0.00653729 3.33458 3.25551 2.35095C6.51755 1.36732 8.48482 1.04613 8.48482 1.04613C8.48482 1.04613 11.7569 0.0624981 16.0026 2.35095Z" fill="url(#paint1_linear_79_6194)"/>
<path d="M14.286 7.49039L13.9648 6.73761L14.7778 6.36622C13.5633 5.61344 12.3087 5.13167 11.024 4.93093C9.82956 4.75026 8.61507 4.81047 7.40059 5.11159C6.20618 5.4127 5.25265 5.89448 4.65042 6.24578L5.0519 6.36622L4.85116 7.15916L2.92405 6.73761L2.97424 6.61715L2.84375 6.57701L3.06457 6.39633L3.92775 4.34877L4.68053 4.65992L4.32923 5.50303C4.9716 5.12162 5.95525 4.64989 7.17977 4.33874C8.50466 4.00752 9.82956 3.93725 11.1344 4.12796C12.4693 4.3287 13.7842 4.82052 15.0388 5.5733L14.6172 4.50937L15.38 4.20825L16.2232 6.36622L16.4339 6.51679L16.3035 6.57701L16.3436 6.67737L14.286 7.49039Z" fill="#FF0000"/>
<defs>
<linearGradient id="paint0_linear_79_6194" x1="2.41487" y1="36.3061" x2="13.9711" y2="36.3479" gradientUnits="userSpaceOnUse">
<stop stop-color="#BFAB8D"/>
<stop offset="0.5078" stop-color="#E7E1D2"/>
<stop offset="1" stop-color="#CCBFA6"/>
</linearGradient>
<linearGradient id="paint1_linear_79_6194" x1="-2.3812" y1="12.3413" x2="21.7857" y2="12.4287" gradientUnits="userSpaceOnUse">
<stop stop-color="#94938C"/>
<stop offset="0.2296" stop-color="#EDEBE1"/>
<stop offset="0.4283" stop-color="#EDEBE1"/>
<stop offset="0.7988" stop-color="#EDEBE1"/>
<stop offset="1" stop-color="#94938C"/>
</linearGradient>
</defs>
</svg>
