<svg width="19" height="67" viewBox="0 0 19 67" fill="none" xmlns="http://www.w3.org/2000/svg">
<path d="M15.756 26.9175C13.8489 26.9075 11.9118 26.7368 10.0147 26.5763C7.71626 26.3956 4.47428 26.506 2.37653 25.4019C2.18583 25.3015 2.12561 24.9603 1.94495 24.8398C1.54346 26.1848 1.88471 28.3528 1.96501 29.7279C2.19586 33.6725 2.36649 37.6371 2.32635 41.5917C2.30627 43.7798 2.18583 45.9478 1.98509 48.1158C1.71409 51.1169 0.700341 54.0477 0.42934 57.0789C0.238636 59.2067 0.268747 61.3647 0.680267 63.4725C0.810749 64.1349 1.00145 65.8413 1.57357 66.0019C2.32635 66.2126 3.47058 65.0483 3.85198 64.5364C5.10662 62.8402 5.42781 60.5517 6.07018 58.5844C6.79285 56.3863 7.62592 54.2384 8.48911 52.0905C10.1653 47.905 11.9318 43.7396 13.0058 39.3534C13.6381 36.794 13.9192 34.1643 14.5113 31.5948C14.8827 30.029 15.3043 28.4733 15.756 26.9175Z" fill="url(#paint0_linear_79_6184)"/>
<path d="M17.9448 8.16883C17.9448 8.16883 18.9184 2.93951 16.6299 1.30347C14.3414 -0.332574 13.3578 0.31984 13.3578 0.31984C12.4143 0.580803 11.4608 0.821688 10.5073 1.05254C8.94151 1.43395 7.24523 1.986 5.61923 1.94585C5.29804 1.93582 4.96681 1.9057 4.64563 1.93581C2.22669 2.1767 1.82521 4.75622 1.46388 6.65322C0.992134 9.08219 0.670957 11.5313 0.470216 13.9903C0.309623 16.0178 0.229319 18.0754 0.399949 20.1129C0.520394 21.5884 0.731175 23.2646 1.59436 24.5192C2.79881 26.2657 5.01701 27.0586 7.00435 27.5102C9.52365 28.0924 12.1634 28.2229 14.7329 28.1125C16.128 28.0523 16.5195 24.9408 16.5998 23.9471C17.0314 18.6877 17.473 13.4283 17.9448 8.16883Z" fill="url(#paint1_linear_79_6184)"/>
<path d="M14.4638 9.16217L14.1325 8.41944L15.0359 7.98784C13.7612 7.14472 12.4363 6.61276 11.0913 6.39195C9.85675 6.1912 8.59207 6.26147 7.33744 6.58265C6.05269 6.92391 5.02891 7.46592 4.41664 7.85736L4.89842 8.00791L4.68765 8.80084L2.72038 8.34917L2.77056 8.2187L2.66016 8.18857L2.84083 8.03802L3.73413 5.80979L4.49694 6.11091L4.09547 7.10458C4.76795 6.69306 5.79173 6.16109 7.08651 5.81983C8.45155 5.45849 9.83667 5.37821 11.1816 5.59902C12.5768 5.81984 13.9519 6.3518 15.2667 7.19491L14.805 5.96036L15.5678 5.67931L16.4511 8.02799L16.6117 8.14843L16.5113 8.19862L16.5515 8.30903L14.4638 9.16217Z" fill="#FF0000"/>
<defs>
<linearGradient id="paint0_linear_79_6184" x1="11.1243" y1="45.4031" x2="2.04258" y2="45.4397" gradientUnits="userSpaceOnUse">
<stop stop-color="#BFAB8D"/>
<stop offset="0.5078" stop-color="#E7E1D2"/>
<stop offset="1" stop-color="#CCBFA6"/>
</linearGradient>
<linearGradient id="paint1_linear_79_6184" x1="22.6179" y1="14.1371" x2="-3.70936" y2="14.2432" gradientUnits="userSpaceOnUse">
<stop stop-color="#94938C"/>
<stop offset="0.2296" stop-color="#EDEBE1"/>
<stop offset="0.7988" stop-color="#EDEBE1"/>
<stop offset="1" stop-color="#94938C"/>
</linearGradient>
</defs>
</svg>
