<svg width="18" height="64" viewBox="0 0 18 64" fill="none" xmlns="http://www.w3.org/2000/svg">
<path d="M14.708 22.957C14.708 22.957 6.53786 26.8815 4.24942 23.6094C4.33975 26.8213 4.38994 30.0332 4.44012 33.245C4.52042 39.3576 4.55052 45.4702 4.36986 51.5727C4.30963 53.7206 4.25946 55.8686 4.04868 58.0065C3.94831 59.0905 3.79776 60.1845 3.59701 61.2585C3.50668 61.7503 3.2156 62.3324 3.44645 62.7841C3.74756 63.3863 4.54049 63.5168 5.09253 63.2458C5.86538 62.8644 6.37727 61.931 6.75868 61.2083C7.68209 59.4618 8.28431 57.5347 8.82631 55.6377C12.0884 44.1955 14.1961 26.47 14.708 22.957Z" fill="url(#paint0_linear_79_6174)"/>
<path d="M15.9642 0.514053C15.1913 0.112571 13.9869 0.363494 13.1438 0.353457C11.578 0.34342 10.0022 0.343413 8.4364 0.393598C6.67991 0.443784 4.24091 0.243046 2.62495 1.05605C1.0692 1.83894 0.898558 3.7761 0.948744 5.31177C1.13945 11.3541 1.52086 17.7076 3.95986 23.3183C4.67249 24.9643 5.66616 26.6205 7.22191 27.584C9.64084 29.0795 12.401 28.2163 13.7761 25.8175C14.8802 23.9004 15.3018 21.6822 15.5326 19.5142C15.7032 17.8681 15.6029 16.212 15.7133 14.5659C15.8337 12.8295 16.3456 11.1433 16.6266 9.42696C17.0683 6.71695 17.6002 3.8865 16.5965 1.22668C16.456 0.875379 16.2352 0.654572 15.9642 0.514053Z" fill="url(#paint1_linear_79_6174)"/>
<path d="M13.4554 6.70859L13.074 5.98592L13.9472 5.4941C12.7327 4.63091 11.468 4.08891 10.1933 3.89821C9.03908 3.71754 7.87477 3.81791 6.72051 4.17924C5.49598 4.57069 4.54248 5.18295 3.99044 5.60451L4.48224 5.7651L4.27147 6.54799L2.42464 6.1164L2.47483 5.97589L2.39453 5.95581L2.52502 5.83535L3.30791 3.48668L4.08077 3.74766L3.72946 4.80154C4.35176 4.35991 5.27518 3.80787 6.44952 3.42646C7.72422 3.01495 9.02904 2.90455 10.3037 3.10529C11.6086 3.30603 12.8833 3.81792 14.1178 4.64096L13.6561 3.35621L14.429 3.07516L15.3123 5.51418L15.4327 5.60451L15.3624 5.64466L15.4026 5.75507L13.4554 6.70859Z" fill="#FF0000"/>
<defs>
<linearGradient id="paint0_linear_79_6174" x1="2.06485" y1="43.1411" x2="11.2977" y2="43.1744" gradientUnits="userSpaceOnUse">
<stop stop-color="#BFAB8D"/>
<stop offset="0.5078" stop-color="#E7E1D2"/>
<stop offset="1" stop-color="#CCBFA6"/>
</linearGradient>
<linearGradient id="paint1_linear_79_6174" x1="-1.78485" y1="14.257" x2="20.4081" y2="14.3372" gradientUnits="userSpaceOnUse">
<stop stop-color="#94938C"/>
<stop offset="0.2296" stop-color="#EDEBE1"/>
<stop offset="0.7988" stop-color="#EDEBE1"/>
<stop offset="1" stop-color="#94938C"/>
</linearGradient>
</defs>
</svg>
