<svg width="16" height="66" viewBox="0 0 16 66" fill="none" xmlns="http://www.w3.org/2000/svg">
<path d="M2.53356 24.582C2.53356 32.1199 0.997881 39.5975 0.646584 47.1253C0.506065 50.1966 0.265173 53.2579 0.315359 56.3393C0.34547 58.7783 0.164803 62.8433 1.6804 64.911C2.32277 65.7842 4.22982 61.8898 4.41048 61.5084C5.54467 59.1597 6.2573 56.6705 7.14056 54.2215C8.11416 51.5215 9.0978 48.8015 9.89073 46.0513C10.9547 42.3677 11.5569 38.5335 12.2294 34.7696C12.3398 34.1775 13.2632 26.5995 13.6446 26.5393C13.6446 26.5493 4.50082 27.8541 2.53356 24.582Z" fill="url(#paint0_linear_79_6164)"/>
<path d="M15.1383 0.542877C14.9877 0.402358 14.7268 0.382287 14.245 0.342139C13.5022 0.281917 12.7294 0.332107 11.9866 0.332107C8.9454 0.342144 5.90417 0.402359 2.86294 0.402359C2.86294 0.402359 -0.0779203 1.05477 0.243266 2.69081C0.574489 4.32685 1.54808 24.5917 2.53172 25.8965C3.51535 27.2013 5.8038 31.457 10.7019 30.1422C15.6 28.8374 14.6264 17.3951 14.6264 17.3951C14.4959 15.3275 15.0178 13.029 15.1584 10.9614C15.3691 7.89001 15.5498 4.78856 15.3691 1.70718C15.339 1.02466 15.3189 0.70347 15.1383 0.542877Z" fill="url(#paint1_linear_79_6164)"/>
<path d="M11.7254 6.97856L11.354 6.25589L12.0666 5.86445C10.1094 4.36893 8.04178 3.93734 5.93399 4.56968C4.91021 4.88083 4.0972 5.38268 3.60539 5.74401L3.95669 5.86445L3.7158 6.64734L2.06972 6.2057L2.10988 6.07523L2.01953 6.04512L2.1701 5.90461L2.89277 3.8169L3.66562 4.08789L3.38457 4.89085C3.92657 4.51948 4.70947 4.08789 5.65296 3.79682C7.24885 3.305 9.62763 3.15445 12.2072 4.96112L11.8759 3.93734L12.6488 3.68641L13.3614 5.88453L13.4919 5.99494L13.4116 6.03508L13.4417 6.13545L11.7254 6.97856Z" fill="#FF0000"/>
<defs>
<linearGradient id="paint0_linear_79_6164" x1="12.5684" y1="44.7748" x2="-3.7367" y2="44.8337" gradientUnits="userSpaceOnUse">
<stop stop-color="#BFAB8D"/>
<stop offset="0.5078" stop-color="#E7E1D2"/>
<stop offset="1" stop-color="#CCBFA6"/>
</linearGradient>
<linearGradient id="paint1_linear_79_6164" x1="17.6997" y1="15.3245" x2="-1.84314" y2="15.395" gradientUnits="userSpaceOnUse">
<stop stop-color="#94938C"/>
<stop offset="0.2296" stop-color="#EDEBE1"/>
<stop offset="0.7988" stop-color="#EDEBE1"/>
<stop offset="1" stop-color="#94938C"/>
</linearGradient>
</defs>
</svg>
