<svg width="16" height="66" viewBox="0 0 16 66" fill="none" xmlns="http://www.w3.org/2000/svg">
<path d="M13.1931 24.6719C13.1931 32.2097 14.7288 39.6873 15.0801 47.2151C15.2206 50.2865 15.4614 53.3478 15.4113 56.4292C15.3812 58.8682 15.5618 62.9332 14.0462 65.0008C13.4039 65.874 11.4968 61.9797 11.3162 61.5983C10.182 59.2496 9.46933 56.7604 8.58607 54.3113C7.61247 51.6114 6.62883 48.8913 5.8359 46.1412C4.77197 42.4576 4.16975 38.6234 3.49726 34.8595C3.38685 34.2673 2.46344 26.6893 2.08203 26.6291C2.08203 26.6391 11.2359 27.944 13.1931 24.6719Z" fill="url(#paint0_linear_79_6159)"/>
<path d="M0.586197 0.632736C0.736753 0.492217 0.997716 0.472131 1.47949 0.431983C2.22224 0.37176 2.99509 0.421951 3.73783 0.421951C6.77906 0.431988 9.82029 0.492218 12.8615 0.492218C12.8615 0.492218 15.8024 1.14463 15.4812 2.78067C15.16 4.41671 14.1764 24.6815 13.1927 25.9863C12.2091 27.2912 9.92066 31.5469 5.02258 30.232C0.12449 28.9272 1.09808 17.485 1.09808 17.485C1.22856 15.4173 0.706637 13.1188 0.566119 11.0512C0.35534 7.97985 0.174682 4.8784 0.355349 1.79702C0.395497 1.1145 0.40553 0.793329 0.586197 0.632736Z" fill="url(#paint1_linear_79_6159)"/>
<path d="M3.9992 7.06842L2.27283 6.22531L2.30294 6.12495L2.22266 6.08479L2.35313 5.97438L3.06577 3.77626L3.83861 4.02718L3.5074 5.05097C6.08692 3.2443 8.4657 3.39485 10.0616 3.88667C11.0051 4.17774 11.788 4.60935 12.33 4.98072L12.0489 4.17775L12.8218 3.90674L13.5445 5.99446L13.695 6.13498L13.6047 6.16509L13.6448 6.29558L11.9987 6.73721L11.7579 5.9543L12.1091 5.83386C11.6173 5.47253 10.8043 4.97068 9.78056 4.65953C7.66274 4.01715 5.60514 4.45878 3.64792 5.9543L4.36054 6.34575L3.9992 7.06842Z" fill="#FF0000"/>
<defs>
<linearGradient id="paint0_linear_79_6159" x1="3.16272" y1="44.865" x2="19.4678" y2="44.924" gradientUnits="userSpaceOnUse">
<stop stop-color="#BFAB8D"/>
<stop offset="0.5078" stop-color="#E7E1D2"/>
<stop offset="1" stop-color="#CCBFA6"/>
</linearGradient>
<linearGradient id="paint1_linear_79_6159" x1="-1.97084" y1="15.4147" x2="17.572" y2="15.4853" gradientUnits="userSpaceOnUse">
<stop stop-color="#94938C"/>
<stop offset="0.2296" stop-color="#EDEBE1"/>
<stop offset="0.7988" stop-color="#EDEBE1"/>
<stop offset="1" stop-color="#94938C"/>
</linearGradient>
</defs>
</svg>
