<svg width="18" height="64" viewBox="0 0 18 64" fill="none" xmlns="http://www.w3.org/2000/svg">
<path d="M3.42578 22.9453C3.42578 22.9453 11.596 26.8698 13.8844 23.5977C13.7941 26.8096 13.7439 30.0214 13.6937 33.2333C13.6134 39.3459 13.5833 45.4585 13.7639 51.561C13.8242 53.7089 13.8744 55.8568 14.0851 57.9947C14.1855 59.0787 14.3361 60.1728 14.5368 61.2468C14.6272 61.7386 14.9182 62.3207 14.6874 62.7724C14.3863 63.3746 13.5933 63.5051 13.0413 63.2341C12.2684 62.8527 11.7566 61.9192 11.3751 61.1966C10.4517 59.4501 9.84949 57.523 9.30749 55.626C6.0354 44.1938 3.92763 26.4583 3.42578 22.9453Z" fill="url(#paint0_linear_79_6169)"/>
<path d="M2.16183 0.514053C2.93469 0.112571 4.13913 0.363494 4.98225 0.353457C6.54803 0.34342 8.12386 0.343413 9.68964 0.393598C11.4461 0.443784 13.8851 0.243046 15.5011 1.05605C17.0569 1.83894 17.2275 3.7761 17.1773 5.31177C16.9866 11.3541 16.6052 17.7076 14.1662 23.3183C13.4536 24.9643 12.4599 26.6205 10.9042 27.584C8.48521 29.0795 5.72502 28.2163 4.34994 25.8175C3.24586 23.9004 2.8243 21.6822 2.59345 19.5142C2.42282 17.8681 2.52317 16.212 2.41276 14.5659C2.29232 12.8295 1.78042 11.1433 1.49938 9.42696C1.05775 6.71695 0.525785 3.8865 1.52949 1.22668C1.67001 0.875379 1.89083 0.654572 2.16183 0.514053Z" fill="url(#paint1_linear_79_6169)"/>
<path d="M4.67989 6.70691L2.75277 5.74335L2.79292 5.63294L2.72266 5.5928L2.84313 5.50247L3.72636 3.06345L4.49923 3.34449L4.03751 4.62923C5.27206 3.80619 6.55682 3.29431 7.8516 3.09356C9.13635 2.89282 10.4311 3.00324 11.7058 3.41476C12.8701 3.78613 13.8036 4.3482 14.4259 4.78983L14.0746 3.73594L14.8474 3.47498L15.6303 5.82364L15.7608 5.94408L15.6805 5.96416L15.7307 6.10468L13.8839 6.53628L13.6731 5.75339L14.1649 5.5928C13.6129 5.17124 12.6594 4.55898 11.4348 4.16754C10.2806 3.79617 9.11626 3.70583 7.962 3.8865C6.68729 4.08724 5.43267 4.6192 4.20815 5.48239L5.08137 5.97421L4.67989 6.70691Z" fill="#FF0000"/>
<defs>
<linearGradient id="paint0_linear_79_6169" x1="16.0605" y1="43.1329" x2="6.82754" y2="43.1663" gradientUnits="userSpaceOnUse">
<stop stop-color="#BFAB8D"/>
<stop offset="0.5078" stop-color="#E7E1D2"/>
<stop offset="1" stop-color="#CCBFA6"/>
</linearGradient>
<linearGradient id="paint1_linear_79_6169" x1="19.9124" y1="14.2506" x2="-2.28049" y2="14.3307" gradientUnits="userSpaceOnUse">
<stop stop-color="#94938C"/>
<stop offset="0.2296" stop-color="#EDEBE1"/>
<stop offset="0.7988" stop-color="#EDEBE1"/>
<stop offset="1" stop-color="#94938C"/>
</linearGradient>
</defs>
</svg>
