<svg width="19" height="67" viewBox="0 0 19 67" fill="none" xmlns="http://www.w3.org/2000/svg">
<path d="M3.36719 27.3277C5.27423 27.3176 7.21138 27.147 9.10839 26.9864C11.4069 26.8058 14.6488 26.9162 16.7466 25.8121C16.9373 25.7117 16.9975 25.3704 17.1782 25.25C17.5796 26.595 17.2384 28.763 17.1581 30.1381C16.9272 34.0826 16.7566 38.0473 16.7968 42.0019C16.8169 44.1899 16.9373 46.3579 17.138 48.5259C17.409 51.527 18.4228 54.4579 18.6938 57.489C18.8845 59.6169 18.8544 61.7749 18.4428 63.8826C18.3124 64.5451 18.1217 66.2514 17.5496 66.412C16.7968 66.6228 15.6525 65.4585 15.2711 64.9466C14.0165 63.2503 13.6953 60.9619 13.0529 58.9946C12.3303 56.7965 11.4972 54.6486 10.634 52.5006C8.95782 48.3152 7.1913 44.1498 6.11733 39.7636C5.485 37.2041 5.20396 34.5744 4.61177 32.005C4.2404 30.4392 3.80882 28.8834 3.36719 27.3277Z" fill="url(#paint0_linear_79_6179)"/>
<path d="M1.1706 8.57897C1.1706 8.57897 0.197006 3.34967 2.48545 1.71362C4.7739 0.0775823 5.75754 0.729996 5.75754 0.729996C6.70102 0.990959 7.65454 1.23184 8.60806 1.4627C10.1738 1.84411 11.8701 2.39614 13.4961 2.356C13.8173 2.34596 14.1485 2.31585 14.4697 2.34596C16.8886 2.58685 17.2901 5.16638 17.6514 7.06338C18.1232 9.49235 18.4444 11.9414 18.6451 14.4005C18.8057 16.428 18.886 18.4856 18.7154 20.5231C18.5949 21.9985 18.3842 23.6747 17.521 24.9294C16.3165 26.6758 14.0983 27.4687 12.111 27.9204C9.59168 28.5025 6.95193 28.633 4.38244 28.5226C2.98729 28.4624 2.59586 25.3509 2.51556 24.3572C2.08397 19.0978 1.64234 13.8384 1.1706 8.57897Z" fill="url(#paint1_linear_79_6179)"/>
<path d="M4.6619 9.5746L2.56413 8.69133L2.60428 8.58092L2.50391 8.53075L2.6645 8.41029L3.54777 6.06162L4.3106 6.34266L3.84887 7.57721C5.16373 6.74414 6.53882 6.21217 7.93397 5.98132C9.28898 5.77054 10.6641 5.8408 12.0291 6.20214C13.3239 6.5434 14.3477 7.07536 15.0201 7.48688L14.6187 6.49322L15.3815 6.19211L16.2748 8.42034L16.4555 8.57089L16.3451 8.601L16.3952 8.73149L14.428 9.18315L14.2172 8.39023L14.699 8.23967C14.0867 7.84822 13.0629 7.29619 11.7782 6.96497C10.5236 6.63374 9.25886 6.57352 8.0243 6.77426C6.67933 6.99507 5.35444 7.52704 4.07974 8.37015L4.98307 8.80174L4.6619 9.5746Z" fill="#FF0000"/>
<defs>
<linearGradient id="paint0_linear_79_6179" x1="7.99192" y1="45.8101" x2="17.0735" y2="45.8467" gradientUnits="userSpaceOnUse">
<stop stop-color="#BFAB8D"/>
<stop offset="0.5078" stop-color="#E7E1D2"/>
<stop offset="1" stop-color="#CCBFA6"/>
</linearGradient>
<linearGradient id="paint1_linear_79_6179" x1="-3.49955" y1="14.544" x2="22.8278" y2="14.6501" gradientUnits="userSpaceOnUse">
<stop stop-color="#94938C"/>
<stop offset="0.2296" stop-color="#EDEBE1"/>
<stop offset="0.7988" stop-color="#EDEBE1"/>
<stop offset="1" stop-color="#94938C"/>
</linearGradient>
</defs>
</svg>
