<svg width="18" height="53" viewBox="0 0 18 53" fill="none" xmlns="http://www.w3.org/2000/svg">
<path d="M2.87109 21.4062C2.87109 21.4062 9.08404 46.9003 14.3134 51.146C19.5427 55.3917 16.933 46.9003 16.933 46.9003C16.933 46.9003 14.9758 31.2124 14.9758 28.2715C14.9758 25.3307 16.0197 19.8203 16.0197 19.8203C16.0197 19.8203 5.9324 21.9883 2.87109 21.4062Z" fill="url(#paint0_linear_79_6189)"/>
<path d="M2.55097 2.12439C2.55097 2.12439 -0.721113 3.76043 0.26252 8.33733C1.24615 12.9142 0.914923 15.5239 0.914923 15.5239C0.914923 15.5239 1.56734 23.3729 7.12787 23.6941C12.6884 24.0253 16.2817 20.7532 16.6029 18.796C16.9341 16.8387 16.9341 11.2782 17.2553 10.2946C17.5865 9.31093 18.5601 3.10802 15.2981 2.12439C12.026 1.14075 10.0688 0.819564 10.0688 0.819564C10.0688 0.819564 6.79665 -0.164065 2.55097 2.12439Z" fill="url(#paint1_linear_79_6189)"/>
<path d="M4.26681 7.26523L2.21924 6.4422L2.25939 6.34182L2.12891 6.2816L2.33968 6.13105L3.18279 3.97307L3.94562 4.27418L3.52405 5.33811C4.77868 4.58533 6.09356 4.09351 7.42849 3.89277C8.73332 3.69203 10.0683 3.7623 11.3831 4.10356C12.6076 4.41471 13.5812 4.88645 14.2336 5.26786L13.8823 4.42473L14.6351 4.11359L15.4983 6.16116L15.7191 6.34182L15.5887 6.38198L15.6388 6.50242L13.7117 6.92397L13.511 6.13105L13.9125 6.01059C13.3102 5.64926 12.3567 5.16749 11.1623 4.87642C9.94781 4.5753 8.7333 4.51507 7.53889 4.69574C6.25414 4.89648 4.99951 5.37827 3.78502 6.13105L4.59802 6.50242L4.26681 7.26523Z" fill="#FF0000"/>
<defs>
<linearGradient id="paint0_linear_79_6189" x1="16.1327" y1="36.0837" x2="4.57629" y2="36.1253" gradientUnits="userSpaceOnUse">
<stop stop-color="#BFAB8D"/>
<stop offset="0.5078" stop-color="#E7E1D2"/>
<stop offset="1" stop-color="#CCBFA6"/>
</linearGradient>
<linearGradient id="paint1_linear_79_6189" x1="20.9309" y1="12.1188" x2="-3.2358" y2="12.2061" gradientUnits="userSpaceOnUse">
<stop stop-color="#94938C"/>
<stop offset="0.2296" stop-color="#EDEBE1"/>
<stop offset="0.4283" stop-color="#EDEBE1"/>
<stop offset="0.7988" stop-color="#EDEBE1"/>
<stop offset="1" stop-color="#94938C"/>
</linearGradient>
</defs>
</svg>
