<svg width="19" height="51" viewBox="0 0 19 51" fill="none" xmlns="http://www.w3.org/2000/svg">
<path d="M3.28906 20.6476C4.09203 25.907 5.50724 31.1564 7.35407 36.1348C9.38155 41.605 11.9109 47.0852 16.8291 50.5078C16.9495 50.5881 17.08 50.6785 17.2205 50.6885C17.3711 50.6985 17.5116 50.6182 17.622 50.5279C18.3045 50.016 18.5454 49.0926 18.4752 48.2495C18.4049 47.4064 18.0737 46.6134 17.7726 45.8205C15.9759 40.9826 15.5443 35.653 15.0324 30.5441C14.7112 27.3122 13.9384 23.3576 14.7012 20.1357C15.5343 16.6829 3.80095 20.0353 3.28906 20.6476Z" fill="url(#paint0_linear_79_6199)"/>
<path d="M13.4263 0.6673C12.7036 0.336077 11.9407 0.33608 10.927 0.57697C10.656 0.647229 10.3649 0.747588 10.2144 0.988478C9.52182 2.11263 15.2329 4.26057 15.9154 3.31708C16.3169 2.75501 14.7913 1.64089 14.4701 1.36989C14.1188 1.05874 13.7775 0.827893 13.4263 0.6673Z" fill="#D8D6D0"/>
<path d="M3.50267 0.856818C3.16141 0.957188 2.9105 1.06758 2.80009 1.15792C2.25809 1.63969 1.68597 2.1516 1.44508 2.83411C1.34471 3.10511 1.33466 3.47648 1.58558 3.62703C1.66588 3.67722 1.76625 3.6973 1.86662 3.6973C3.01085 3.78763 4.33576 3.04488 5.29932 2.51292C5.66066 2.31218 7.19634 1.60958 7.12608 1.04751C7.02571 0.214436 4.7272 0.485449 3.50267 0.856818Z" fill="#D8D6D0"/>
<path d="M1.48336 2.96388C1.48336 2.96388 -0.80507 4.59992 0.499748 8.8456C1.15216 14.7273 3.11941 20.609 3.11941 20.609C3.11941 20.609 3.77184 21.5927 8.34874 21.5927C12.9256 21.5927 14.2304 20.9403 14.8828 19.6354C15.5353 18.3306 17.1713 5.90475 17.1713 5.90475C17.1713 5.90475 16.8401 2.96388 15.5352 2.63265C14.2304 2.30143 12.9156 1.98025 12.5944 1.98025C12.2632 1.98025 9.32232 0.0230172 8.0175 0.344203C6.71268 0.675426 3.44059 3.28506 1.48336 2.96388Z" fill="url(#paint1_linear_79_6199)"/>
<path d="M4.15357 8.49289L2.1562 7.64976L2.19636 7.5494L2.08594 7.49921L2.2666 7.36873L3.08964 5.16057L3.85247 5.44161L3.44095 6.53565C4.66547 5.77283 5.93012 5.28101 7.2249 5.08027C8.49961 4.87953 9.80443 4.9498 11.0892 5.29106C12.2635 5.60221 13.207 6.08398 13.8393 6.46539L13.4981 5.6022L14.2609 5.30109L15.104 7.3888L15.3047 7.55943L15.1843 7.59959L15.2345 7.73006L13.3576 8.16166L13.1468 7.36873L13.5483 7.24829C12.9661 6.88695 12.0327 6.3851 10.8583 6.07395C9.68401 5.7628 8.49963 5.70257 7.34537 5.89327C6.09074 6.09401 4.8662 6.58583 3.68183 7.36873L4.49482 7.76017L4.15357 8.49289Z" fill="#FF0000"/>
<defs>
<linearGradient id="paint0_linear_79_6199" x1="6.5218" y1="34.6149" x2="16.8882" y2="34.6525" gradientUnits="userSpaceOnUse">
<stop stop-color="#BFAB8D"/>
<stop offset="0.5078" stop-color="#E7E1D2"/>
<stop offset="1" stop-color="#CCBFA6"/>
</linearGradient>
<linearGradient id="paint1_linear_79_6199" x1="-3.53736" y1="10.9067" x2="20.5944" y2="10.9939" gradientUnits="userSpaceOnUse">
<stop stop-color="#94938C"/>
<stop offset="0.2296" stop-color="#EDEBE1"/>
<stop offset="0.7988" stop-color="#EDEBE1"/>
<stop offset="1" stop-color="#94938C"/>
</linearGradient>
</defs>
</svg>
