<svg width="26" height="51" viewBox="0 0 26 51" fill="none" xmlns="http://www.w3.org/2000/svg">
<path d="M10.9661 2.12048C10.9661 2.12048 10.0628 0.0628843 8.22601 0.584812C6.38922 1.0967 5.75689 5.89442 6.08811 9.42746C6.41934 12.9605 7.99516 24.1719 10.6951 24.4028C13.3951 24.6336 18.3434 18.2801 16.0951 14.7471C13.8468 11.2141 10.123 4.99108 10.9661 2.12048Z" fill="url(#paint0_linear_79_6124)"/>
<path d="M22.7896 32.5725C19.5877 32.3417 15.9644 30.7759 12.7525 30.6555C10.7451 30.5752 8.72763 30.4447 6.72022 30.5049C5.78677 30.535 4.40166 33.0142 3.50836 32.9038C2.92621 32.8335 3.30762 30.4246 3.33773 29.8023C3.35781 29.2703 3.39795 28.7484 3.32769 28.2164C3.04665 26.3194 2.0028 24.5128 1.57121 22.6057C1.06935 20.4076 0.728089 18.1593 0.517311 15.921C0.296495 13.5423 0.206162 11.1033 0.517311 8.72447C0.647793 7.70069 0.838498 6.65683 1.23998 5.70331C1.56117 4.96057 2.32399 3.49515 3.30762 3.60556C3.66896 3.64571 3.99014 3.85649 4.26114 4.09738C4.7931 4.57916 5.15444 5.2115 5.40537 5.88398C5.90722 7.26909 5.89719 8.75458 5.99756 10.1999C6.09793 11.6954 6.49941 13.0705 6.84067 14.5259C7.46296 17.2158 8.19567 20.3875 9.96219 22.5957C10.3938 23.1377 11.0362 23.5693 11.7187 23.499C12.07 23.4689 12.4012 23.3083 12.6822 23.0975C13.7161 22.3548 14.238 21.0801 14.4187 19.8154C14.79 17.2359 14.509 14.3954 13.8164 11.8962C13.4149 10.4308 12.6622 9.11592 12.2105 7.68062C11.7287 6.16502 11.0763 3.1539 13.2142 2.58179C14.0774 2.35093 14.9908 2.79256 15.6432 3.40482C18.032 5.69327 19.648 9.10587 21.0331 12.0668C21.8862 13.8835 22.6992 15.7504 23.2212 17.6876C23.5323 18.8519 23.5022 20.0162 23.4721 21.2106C23.3516 24.573 23.1609 29.2402 22.7896 32.5725Z" fill="url(#paint1_linear_79_6124)"/>
<path d="M3.84936 34.7405C3.57836 34.8208 3.18691 35.5636 3.03636 35.7744C2.43413 36.6175 1.92224 37.5309 1.5308 38.4844C0.48694 41.0739 0.637502 43.9144 2.59473 46.0322C2.61481 46.0523 2.64492 46.0824 2.66499 46.1025C2.7754 46.2129 2.87576 46.3233 2.9661 46.4438C3.20699 46.7951 3.26721 47.2467 3.49806 47.6081C3.71888 47.9493 4.03003 48.2705 4.34118 48.5315C5.06385 49.1437 6.03745 49.5653 7.00101 49.475C7.33223 49.4448 7.65341 49.3244 7.96456 49.204C9.31957 48.6921 10.785 48.12 11.5076 46.775C11.4273 46.9255 11.7987 47.5478 11.8891 47.6783C12.1099 47.9794 12.3909 48.12 12.7422 48.2504C13.8864 48.6921 15.1411 49.0534 16.2451 49.6054C17.008 49.8965 17.6503 50.1775 18.4232 49.9266C18.8749 49.7761 19.3265 49.6456 19.7782 49.485C20.6113 49.1839 22.0064 48.6419 22.0064 47.5579C22.0064 45.8817 23.4016 40.8632 20.0492 35.8346C16.6868 30.8361 3.8594 34.7405 3.84936 34.7405Z" fill="#D8D6D0"/>
<path d="M3.82945 30.6166C3.50827 30.717 3.0566 31.5802 2.87594 31.8311C2.17334 32.8248 1.57111 33.8887 1.10941 35.0128C-0.115112 38.044 0.0655529 41.3663 2.354 43.8555C2.38412 43.8856 2.40419 43.9157 2.4343 43.9458C2.55475 44.0763 2.68523 44.2068 2.7856 44.3473C3.06664 44.7588 3.1369 45.2808 3.4079 45.7124C3.65883 46.1138 4.03019 46.4953 4.39153 46.7964C5.24468 47.509 6.36883 48.0108 7.50302 47.9004C7.89447 47.8603 8.26584 47.7198 8.62717 47.5893C10.213 46.9971 11.9294 46.3146 12.7725 44.7388C12.6721 44.9194 13.1137 45.6521 13.2241 45.8027C13.4851 46.164 13.8063 46.3146 14.2178 46.4752C15.5628 46.9971 17.0282 47.4086 18.323 48.061C19.2163 48.4023 19.9691 48.7335 20.8724 48.4324C21.4044 48.2618 21.9363 48.1112 22.4582 47.9205C23.4318 47.5592 25.0578 46.9369 25.0578 45.6722C25.0578 43.715 26.6939 37.8232 22.7694 31.9415C18.865 26.0397 3.83949 30.6066 3.82945 30.6166Z" fill="url(#paint2_linear_79_6124)"/>
<path d="M12.7532 41.7551C12.0004 41.7551 11.2577 41.715 10.515 41.6447C8.28673 41.4239 6.09864 40.8819 4.00089 40.0288L4.72356 41.2031L4.031 41.6247L2.69608 39.4466L2.23438 39.2359L2.51541 39.1556L2.45518 39.0552L5.6269 38.2422L5.84772 39.0251L4.62319 39.3864C6.55031 40.1492 8.55772 40.631 10.6053 40.8217C12.5424 41.0124 14.5097 40.9422 16.4669 40.631C18.3037 40.3299 19.7892 39.8682 20.7427 39.5068L20.1305 39.3964L20.2609 38.5935L23.1817 39.005L23.1014 39.1255L23.3925 39.1756L22.9007 39.4266L21.5457 41.4942L20.8632 41.0425L21.4855 40.099C20.5319 40.4805 18.8357 41.0726 16.5974 41.434C15.3127 41.6548 14.0279 41.7551 12.7532 41.7551Z" fill="#FF0000"/>
<defs>
<linearGradient id="paint0_linear_79_6124" x1="14.3322" y1="23.1377" x2="-4.22997" y2="-22.2272" gradientUnits="userSpaceOnUse">
<stop offset="0.1599" stop-color="#BFAB8D"/>
<stop offset="0.5078" stop-color="#E7E1D2"/>
<stop offset="0.7297" stop-color="#CCBFA6"/>
</linearGradient>
<linearGradient id="paint1_linear_79_6124" x1="1.59981" y1="17.387" x2="22.51" y2="18.3325" gradientUnits="userSpaceOnUse">
<stop offset="0.1599" stop-color="#BFAB8D"/>
<stop offset="0.5078" stop-color="#E7E1D2"/>
<stop offset="0.7297" stop-color="#CCBFA6"/>
</linearGradient>
<linearGradient id="paint2_linear_79_6124" x1="-5.42623" y1="41.052" x2="29.3962" y2="37.3951" gradientUnits="userSpaceOnUse">
<stop stop-color="#94938C"/>
<stop offset="0.2296" stop-color="#EDEBE1"/>
<stop offset="0.7988" stop-color="#EDEBE1"/>
<stop offset="1" stop-color="#94938C"/>
</linearGradient>
</defs>
</svg>
