<svg width="29" height="50" viewBox="0 0 29 50" fill="none" xmlns="http://www.w3.org/2000/svg">
<path d="M9.45782 0.380989C8.14297 0.471322 7.12924 0.852722 6.05527 1.59546C5.7642 1.7962 5.48315 2.03711 5.54337 2.32818C5.81437 3.66311 15.6909 2.58914 15.5905 1.4148C15.5303 0.71221 12.3184 0.531537 11.6058 0.45124C10.7928 0.370944 10.0902 0.340841 9.45782 0.380989Z" fill="#D8D6D0"/>
<path d="M19.6239 45.7504C20.2963 47.9184 18.7005 48.8016 17.225 47.5169C14.3645 45.0377 12.6983 41.063 11.2429 37.4196C10.5704 35.7334 7.66975 29.8015 9.19538 28.3662C10.711 26.9409 16.6429 29.6509 16.944 33.455C17.1046 35.5226 17.1748 37.5902 17.5362 39.6579C17.9176 41.9062 18.9614 43.6325 19.6239 45.7504Z" fill="url(#paint0_linear_79_6213)"/>
<path d="M2.85114 20.4771C3.04184 21.2499 3.20242 22.0429 3.24257 22.1934C3.55371 23.4983 3.83475 24.8231 4.05557 26.148C4.23623 27.232 4.37678 28.3261 4.48718 29.4201C4.58755 30.484 4.49721 31.6484 4.69795 32.6922C4.89869 33.716 5.26003 34.7899 5.61133 35.7836C6.64515 38.7546 8.22095 41.5248 10.0778 44.0542C11.0113 45.3188 12.025 46.5333 13.0889 47.6976C13.7413 48.4102 15.1365 50.518 16.3008 49.6448C16.7324 49.3136 16.9131 48.7314 16.8829 48.1894C16.8528 47.6474 16.6521 47.1255 16.4614 46.6136C15.006 42.669 13.6209 37.781 14.4339 33.5453C14.5243 33.1037 14.6547 32.6521 14.9659 32.3309C15.3774 31.9093 16.0499 31.819 16.6119 31.9796C17.1841 32.1402 17.6658 32.5115 18.0874 32.913C19.5428 34.3182 20.5666 36.3055 21.4599 38.1022C22.1324 39.4672 22.6241 40.9226 22.9052 42.4081C23.1762 43.8333 22.9453 45.5396 23.5175 46.8746C23.8386 47.6273 24.5613 48.2697 25.3743 48.2496C26.0067 48.2296 26.5788 47.818 26.9903 47.3463C28.536 45.5798 28.8371 42.7694 28.9274 40.5211C29.0378 37.6806 28.6364 34.8602 28.1947 32.0599C27.5925 28.2558 26.8297 24.4819 25.9665 20.728C25.9364 20.5875 25.4647 18.2188 25.3743 18.2188C25.3743 18.2188 2.49984 18.8511 2.28906 18.8611C2.41954 18.831 2.64036 19.644 2.85114 20.4771Z" fill="url(#paint1_linear_79_6213)"/>
<path d="M20.7493 0.210385C19.565 0.140125 18.6014 0.401082 17.5174 1.00331C17.2263 1.1639 16.9453 1.37468 16.9453 1.66575C16.9754 3.02076 25.9586 3.13116 26.0589 1.95682C26.1192 1.26427 23.2787 0.692155 22.6463 0.531563C21.9438 0.350895 21.3214 0.240496 20.7493 0.210385Z" fill="#D8D6D0"/>
<path d="M4.79968 1.25468C3.84616 1.34502 2.95284 1.71638 2.17999 2.51935C1.18632 3.5632 0.684479 4.99851 0.564034 6.43382C0.30307 9.5152 0.824997 13.1687 1.59785 16.1497C1.83874 17.0932 1.86885 19.0805 2.51123 19.8132C4.52868 22.0816 8.97509 20.9775 11.665 20.7969C14.7464 20.5861 18.0586 20.4857 20.8188 19.8132C22.6456 19.7229 25.9979 20.1244 26.55 17.7155C27.1823 14.9452 27.5738 12.1148 27.7043 9.28434C27.8046 7.16652 28.1158 1.92716 25.0645 1.51564C24.6229 1.45542 23.8701 1.95728 23.4184 2.05765C22.485 2.26843 21.5716 2.23832 20.6482 1.99743C19.514 1.69632 18.4501 1.15432 17.3661 0.71269C17.1252 0.612319 16.8843 0.521977 16.6233 0.532014C16.0412 0.552089 15.6096 1.05394 15.1479 1.40523C13.1806 2.88068 9.66766 2.11787 7.49965 1.54575C6.58628 1.30486 5.6729 1.17439 4.79968 1.25468Z" fill="url(#paint2_linear_79_6213)"/>
<path d="M8.23089 9.95816L5.21977 9.02472L5.27999 8.91431L5.10938 8.85409L5.39041 8.70353L6.6852 6.16416L7.41789 6.53553L6.65509 8.04108C8.68258 7.03738 10.8104 6.39501 12.9784 6.14408C14.9256 5.91323 16.9029 5.99353 18.8702 6.38498C21.0482 6.80653 22.7044 7.50913 23.6177 7.9608L22.9352 6.7162L23.6478 6.32476L24.9627 8.73364L25.2638 8.91431L25.0831 8.95446L25.1634 9.09497L22.3932 9.56672L22.2326 8.76375L23.0155 8.58309C22.1021 8.1515 20.5865 7.54927 18.6594 7.1779C16.7825 6.81656 14.8855 6.74632 13.0286 6.95709C11.0112 7.19798 9.02384 7.78012 7.12684 8.70353L8.48182 9.1853L8.23089 9.95816Z" fill="#FF0000"/>
<defs>
<linearGradient id="paint0_linear_79_6213" x1="11.8681" y1="27.4674" x2="19.6296" y2="71.759" gradientUnits="userSpaceOnUse">
<stop offset="0.1599" stop-color="#BFAB8D"/>
<stop offset="0.5078" stop-color="#E7E1D2"/>
<stop offset="0.7297" stop-color="#CCBFA6"/>
</linearGradient>
<linearGradient id="paint1_linear_79_6213" x1="4.88806" y1="33.9598" x2="27.4148" y2="34.0411" gradientUnits="userSpaceOnUse">
<stop stop-color="#BFAB8D"/>
<stop offset="0.5078" stop-color="#E7E1D2"/>
<stop offset="1" stop-color="#CCBFA6"/>
</linearGradient>
<linearGradient id="paint2_linear_79_6213" x1="-5.21551" y1="10.8256" x2="33.6296" y2="10.966" gradientUnits="userSpaceOnUse">
<stop stop-color="#94938C"/>
<stop offset="0.2296" stop-color="#EDEBE1"/>
<stop offset="0.7988" stop-color="#EDEBE1"/>
<stop offset="1" stop-color="#94938C"/>
</linearGradient>
</defs>
</svg>
