<svg width="27" height="49" viewBox="0 0 27 49" fill="none" xmlns="http://www.w3.org/2000/svg">
<path d="M16.1132 42.377C16.3139 44.3342 15.0493 44.7758 14.1459 43.4108C12.3995 40.771 11.727 37.0975 11.1549 33.7451C10.8939 32.1894 9.57908 26.6288 10.8739 25.7054C12.1586 24.792 16.0831 28.1946 15.802 31.4767C15.6515 33.2533 15.4206 35.0198 15.4106 36.8265C15.3905 38.8038 15.9124 40.4599 16.1132 42.377Z" fill="url(#paint0_linear_79_6229)"/>
<path d="M4.48047 20.1131C5.16299 22.0704 5.71505 24.1179 6.03623 26.1655C6.24701 27.5406 6.2169 28.7751 6.00612 30.1402C5.65482 32.4386 5.62471 34.8275 5.72508 37.146C5.87564 40.7594 7.61203 43.4794 8.99714 46.7314C9.50903 47.9259 10.6834 48.5481 11.7473 47.4541C13.1023 46.0589 12.741 43.1382 12.7912 41.3716C12.8614 38.9527 12.9116 36.5237 13.3934 34.1349C13.6042 33.1111 13.8952 32.0874 14.4272 31.1941C14.9592 30.3008 15.9428 29.8692 16.8863 30.5115C18.1409 31.3647 18.4219 33.2416 18.8535 34.5766C19.255 35.8312 19.6264 37.0958 19.9777 38.3605C20.4795 40.1471 20.9412 41.9538 21.423 43.7504C21.6238 44.4932 22.2661 46.2396 23.3602 45.4868C23.7315 45.2259 23.9122 44.7842 24.0628 44.3627C24.5646 42.9776 24.9661 41.5523 25.3776 40.1271C25.9196 38.22 26.4114 36.323 26.5319 34.3357C26.6925 31.6357 25.6286 28.9558 25.1066 26.3361C24.5546 23.5559 24.2033 20.7254 24.0728 17.8949C24.0628 17.7042 24.0527 17.5035 23.9222 17.363C23.7516 17.1723 23.4605 17.1924 23.2096 17.2225C20.1383 17.5738 17.0569 17.8648 13.9956 18.2463C11.9179 18.5072 9.84027 18.7782 7.78267 19.1596C6.88937 19.3303 5.18306 19.4106 4.48047 20.1131Z" fill="url(#paint1_linear_79_6229)"/>
<path d="M2.08194 15.8676C1.98156 14.6431 2.01168 13.3984 1.77079 12.184C1.40945 10.297 0.45591 8.64088 0.586392 6.6435C0.907578 1.81567 7.6525 1.44429 11.045 2.77923C12.4502 3.33126 13.0324 2.80935 14.2167 2.0666C15.5015 1.2536 17.0171 0.832031 18.5327 0.832031C20.2691 0.832031 22.1862 1.32386 23.6616 2.23723C25.8497 3.5822 25.8497 5.80039 26.0003 8.11895C26.1709 10.6884 26.1107 13.3382 25.2575 15.7973C24.9966 16.5501 24.6553 17.2928 24.1133 17.875C23.3404 18.7081 22.3668 18.8084 21.323 19.0493C19.9078 19.3805 18.4624 19.6515 17.0372 19.9225C14.2268 20.4545 11.3963 20.8861 8.54581 21.0266C7.19081 21.0969 5.78561 20.9564 4.5912 20.3341C2.84475 19.4307 2.23249 17.7244 2.08194 15.8676Z" fill="url(#paint2_linear_79_6229)"/>
<path d="M7.53232 9.77673L4.6316 8.82322L4.6818 8.71281L4.53125 8.65259L4.77213 8.51207L6.02676 5.90244L6.75948 6.25374L6.0067 7.80947C7.96393 6.78569 10.0115 6.13329 12.1092 5.88236C13.9962 5.65151 15.9133 5.73181 17.8103 6.12326C19.898 6.55485 21.4939 7.25744 22.3872 7.71914L21.7247 6.42437L22.4474 6.05299L23.7221 8.52211L23.9831 8.69273L23.8325 8.73289L23.9028 8.87341L21.2329 9.35518L21.0623 8.55221L21.8452 8.36151C20.972 7.91988 19.4865 7.29759 17.6095 6.90614C15.7928 6.53477 13.9661 6.46451 12.1795 6.68533C10.2223 6.92622 8.29513 7.53848 6.45835 8.492L7.7933 8.99385L7.53232 9.77673Z" fill="#FF0000"/>
<defs>
<linearGradient id="paint0_linear_79_6229" x1="12.9274" y1="25.4537" x2="10.8179" y2="64.2586" gradientUnits="userSpaceOnUse">
<stop offset="0.1599" stop-color="#BFAB8D"/>
<stop offset="0.5078" stop-color="#E7E1D2"/>
<stop offset="0.7297" stop-color="#CCBFA6"/>
</linearGradient>
<linearGradient id="paint1_linear_79_6229" x1="7.0076" y1="34.0068" x2="24.5016" y2="30.6027" gradientUnits="userSpaceOnUse">
<stop stop-color="#BFAB8D"/>
<stop offset="0.5078" stop-color="#E7E1D2"/>
<stop offset="1" stop-color="#CCBFA6"/>
</linearGradient>
<linearGradient id="paint2_linear_79_6229" x1="-3.49679" y1="13.9545" x2="29.8013" y2="7.47497" gradientUnits="userSpaceOnUse">
<stop stop-color="#94938C"/>
<stop offset="0.2114" stop-color="#EDEBE1"/>
<stop offset="0.847" stop-color="#EDEBE1"/>
<stop offset="1" stop-color="#94938C"/>
</linearGradient>
</defs>
</svg>
