<svg width="25" height="40" viewBox="0 0 25 40" fill="none" xmlns="http://www.w3.org/2000/svg">
<path d="M15.7664 36.6177C16.0575 38.4745 14.8731 38.9663 13.9497 37.7117C12.1531 35.2928 11.32 31.83 10.5973 28.6683C10.2661 27.2029 8.72039 21.9736 9.90476 21.0301C11.0791 20.0866 15.0036 23.1278 14.9032 26.2694C14.8531 27.9657 14.7326 29.662 14.8129 31.3884C14.8932 33.2552 15.4753 34.8009 15.7664 36.6177Z" fill="url(#paint0_linear_79_6247)"/>
<path d="M3.30078 13.3143C3.30078 13.3143 4.60559 16.9076 4.60559 20.8321C4.60559 24.7566 4.27438 29.6546 6.56283 33.2479C8.85128 36.8412 9.50368 38.4772 9.50368 38.4772C9.50368 38.4772 11.4609 40.7657 12.4445 38.146C12.4445 38.146 10.1561 30.297 11.4609 26.3826C12.7657 22.4681 14.0806 23.7629 14.4018 24.4253C14.733 25.0777 19.2999 32.5955 19.9623 34.5527C20.6147 36.51 21.5984 38.4772 22.2508 38.4772C22.9032 38.4772 23.8868 36.8412 24.5392 33.9003C25.1916 30.9595 24.5392 27.6874 23.2344 25.3989C21.9296 23.1105 20.6147 12.9831 20.6147 11.347C20.6147 9.711 4.93682 12.6619 3.30078 13.3143Z" fill="url(#paint1_linear_79_6247)"/>
<path d="M10.8476 3.0456C10.5364 2.97534 10.2152 2.76455 9.84388 2.52366C8.83013 1.86122 7.77624 1.20882 6.61194 0.887631C5.44764 0.566445 4.1328 0.586521 3.08895 1.21886C2.35624 1.66049 1.81422 2.35304 1.37258 3.07571C0.669989 4.2099 0.158111 5.53479 0.318704 6.85969C0.499371 8.37529 1.10158 9.86077 1.71384 11.2359C2.08521 12.0689 2.39637 13.0325 3.06885 13.6849C3.85174 14.4477 5.1666 14.5581 6.20042 14.6986C8.41861 15.0098 10.6569 14.7288 12.8249 14.2169C14.9829 13.705 17.2111 13.1329 19.3088 12.4202C19.6902 12.2897 20.0616 12.1392 20.3828 11.8983C21.2661 11.2158 21.4467 9.67006 21.6676 8.65632C21.9887 7.11061 21.7981 5.50469 21.1557 4.05935C20.3427 2.20249 18.7769 0.556399 16.7092 0.235212C15.2237 0.0043597 13.9089 0.31551 12.9052 1.45974C12.574 1.84115 12.313 2.28278 11.9517 2.64412C11.5502 3.0456 11.2089 3.12589 10.8476 3.0456Z" fill="url(#paint2_linear_79_6247)"/>
<path d="M6.11057 10.3819L3.4106 10.0406L3.44071 9.9302L3.25 9.90009L3.51097 9.67928L4.15336 7.28042L4.94627 7.49121L4.60501 8.77595C6.0905 7.63172 7.69643 6.77857 9.40273 6.22653C10.9785 5.72467 12.6447 5.47375 14.341 5.49383C16.0874 5.5139 17.5127 5.82506 18.3759 6.06595L17.7034 5.21279L18.3458 4.71094L19.8212 6.58786L20.1725 6.72838L19.9919 6.80868L20.0822 6.91909L17.8038 7.79231L17.4926 7.03953L17.9945 6.81872C17.1614 6.59791 15.8666 6.33695 14.2908 6.31687C12.6848 6.2968 11.1191 6.52764 9.63359 7.00942C8.0377 7.52131 6.53214 8.32428 5.14702 9.38821L6.24106 9.56887L6.11057 10.3819Z" fill="#FF0000"/>
<defs>
<linearGradient id="paint0_linear_79_6247" x1="11.8489" y1="20.656" x2="11.8731" y2="57.725" gradientUnits="userSpaceOnUse">
<stop offset="0.1599" stop-color="#BFAB8D"/>
<stop offset="0.5078" stop-color="#E7E1D2"/>
<stop offset="0.7297" stop-color="#CCBFA6"/>
</linearGradient>
<linearGradient id="paint1_linear_79_6247" x1="5.19407" y1="25.1015" x2="21.9521" y2="25.1621" gradientUnits="userSpaceOnUse">
<stop stop-color="#BFAB8D"/>
<stop offset="0.5078" stop-color="#E7E1D2"/>
<stop offset="1" stop-color="#CCBFA6"/>
</linearGradient>
<linearGradient id="paint2_linear_79_6247" x1="-6.06227" y1="7.43571" x2="27.9774" y2="7.55867" gradientUnits="userSpaceOnUse">
<stop stop-color="#94938C"/>
<stop offset="0.2614" stop-color="#EDEBE1"/>
<stop offset="0.7687" stop-color="#EDEBE1"/>
<stop offset="1" stop-color="#94938C"/>
</linearGradient>
</defs>
</svg>
