<svg width="19" height="55" viewBox="0 0 19 55" fill="none" xmlns="http://www.w3.org/2000/svg">
<path d="M9.46439 54.0746C9.46439 54.0746 4.16479 55.1686 2.28785 52.4185C0.410914 49.6684 8.83205 52.4185 9.46439 54.0746Z" fill="#D8D6D0"/>
<path d="M10.2383 54.3134C10.2383 54.3134 15.8791 54.6948 17.2843 51.0312C18.6895 47.3777 10.5695 52.1955 10.2383 54.3134Z" fill="#D8D6D0"/>
<path d="M12.4958 33.777C12.5761 33.8171 12.6564 33.8673 12.7367 33.9175C14.172 34.9212 15.3865 36.5472 16.2999 38.0227C17.685 40.2609 18.6786 42.8204 18.4177 45.4902C18.237 47.317 18.0262 49.4147 17.1229 51.0508C16.5909 52.0043 15.3965 52.4459 14.4229 52.7872C13.5898 53.0783 12.7467 53.3493 11.9237 53.6905C11.1709 54.0017 10.4282 54.5236 9.57502 54.4634C8.59138 54.3831 7.90886 53.6203 7.12597 53.1184C5.90145 52.3355 4.426 51.934 2.97062 52.0043C2.7197 52.0143 2.44869 52.0445 2.2078 51.9642C1.84646 51.8537 1.58551 51.5526 1.37473 51.2415C0.411175 49.8363 0.441283 48.4813 0.431246 46.8452C0.421209 45.1891 0.451317 43.523 0.772503 41.8869C1.33458 38.9762 3.26169 36.5673 4.2654 33.8272C4.32562 33.6666 4.38585 33.506 4.48622 33.3755C4.66688 33.1547 4.968 33.0543 5.25907 33.0342C5.80108 32.9941 6.34308 33.0744 6.87504 33.1346C7.88879 33.245 8.87241 33.3554 9.8962 33.4257C10.6791 33.4658 11.743 33.4056 12.4958 33.777Z" fill="url(#paint0_linear_79_6110)"/>
<path d="M14.6324 35.6958C14.5922 35.7259 14.5521 35.746 14.5019 35.766C14.2309 35.8363 13.4179 35.4348 13.1268 35.3646C12.1633 35.1136 11.1897 34.9028 10.206 34.7222C9.16218 34.5315 8.11832 34.3609 7.0544 34.3508C6.49232 34.3508 5.93025 34.3809 5.37821 34.5014C4.8864 34.6118 4.36447 34.943 3.90276 34.9831C3.5615 33.6683 3.90277 32.1527 3.98306 30.8178C4.0734 29.3423 4.20388 27.8568 4.39458 26.3914C4.74588 23.6312 5.4284 20.9714 5.93025 18.2514C6.42207 15.6016 6.55255 12.8012 6.49232 10.1013C6.46221 8.8366 6.39195 7.56189 6.2414 6.29722C6.12095 5.22325 5.80981 4.2597 5.92022 3.14558C6.03063 2.01139 6.56258 0.295058 8.0581 0.756763C9.18225 1.10806 9.88484 2.34262 10.457 3.2861C11.541 5.08273 12.3339 7.03997 13.0566 9.00723C13.7792 10.9745 14.4517 12.9719 14.8331 15.0295C15.1643 16.8261 15.1242 18.5926 15.0941 20.4093C15.0439 23.29 14.9736 26.1806 14.9034 29.0613C14.8532 30.9181 14.9636 32.8653 14.813 34.7523C14.803 35.1036 14.8532 35.5151 14.6324 35.6958Z" fill="url(#paint1_linear_79_6110)"/>
<path d="M9.39439 49.0034C8.82228 49.0034 8.24014 48.9733 7.67806 48.9231C6.06209 48.7625 4.47623 48.3912 2.96063 47.7889L3.35209 48.4313L2.65953 48.8529L1.65582 47.2168L1.09375 46.9659L1.43501 46.8655L1.38482 46.7852L3.93423 46.1328L4.15504 46.9157L3.49261 47.1064C4.86769 47.6183 6.28291 47.9495 7.73828 48.0901C9.20369 48.2306 10.6892 48.1904 12.1747 47.9495C13.3791 47.7588 14.3828 47.4677 15.1055 47.2168L14.9951 47.1968L15.1256 46.3938L17.5043 46.725L17.4441 46.8254L17.7954 46.8956L17.1932 47.2068L16.1694 48.7625L15.4869 48.3109L15.788 47.8492C15.0252 48.1402 13.8308 48.5216 12.3252 48.7625C11.3617 48.9231 10.378 49.0034 9.39439 49.0034Z" fill="#FF0000"/>
<defs>
<linearGradient id="paint0_linear_79_6110" x1="-5.5372" y1="44.1404" x2="24.6988" y2="43.209" gradientUnits="userSpaceOnUse">
<stop stop-color="#94938C"/>
<stop offset="0.2666" stop-color="#EDEBE1"/>
<stop offset="0.7117" stop-color="#EDEBE1"/>
<stop offset="1" stop-color="#94938C"/>
</linearGradient>
<linearGradient id="paint1_linear_79_6110" x1="0.998642" y1="19.2714" x2="15.3581" y2="17.7635" gradientUnits="userSpaceOnUse">
<stop stop-color="#BFAB8D"/>
<stop offset="0.5078" stop-color="#E7E1D2"/>
<stop offset="1" stop-color="#CCBFA6"/>
</linearGradient>
</defs>
</svg>
