<svg width="19" height="58" viewBox="0 0 19 58" fill="none" xmlns="http://www.w3.org/2000/svg">
<path d="M9.55943 56.174C9.55943 56.174 4.20968 57.0071 2.47327 54.1666C0.736858 51.3261 9.01743 54.4878 9.55943 56.174Z" fill="#D8D6D0"/>
<path d="M4.19922 38.2559C4.19922 38.2559 4.53043 27.1449 5.50403 24.204C6.48766 21.2632 7.46126 11.457 7.14007 8.84732C6.80885 6.22765 6.80885 2.31319 6.80885 2.31319C6.80885 2.31319 6.47762 -0.627672 9.42852 1.66078C12.3694 3.94923 15.9627 15.0603 15.6415 19.6372C15.3102 24.2141 15.2099 38.005 15.2601 37.9749C15.3102 37.9247 4.19922 38.2559 4.19922 38.2559Z" fill="url(#paint0_linear_79_6097)"/>
<path d="M14.9779 36.9502C14.9779 36.9502 22.4956 48.0612 16.9351 53.9429C16.2526 54.6656 15.1886 55.1675 14.3656 55.6894C13.5124 56.2314 12.5991 56.9842 11.5653 57.1046C10.3709 57.2351 9.49763 55.9905 8.32329 55.7496C6.4564 55.3582 4.62964 55.6693 3.04379 54.3946C1.72893 53.3407 0.925971 51.7047 0.665007 50.0686C0.323747 48.0211 0.675043 45.9434 1.08656 43.936C1.25719 43.0828 1.5583 42.2698 1.89956 41.4669C2.27093 40.6137 2.93339 39.7806 3.22446 38.9074C3.21443 38.9074 5.83409 31.0584 14.9779 36.9502Z" fill="url(#paint1_linear_79_6097)"/>
<path d="M9.65872 52.0485C9.06654 52.0485 8.47436 52.0184 7.88217 51.9582C6.19595 51.7976 4.54986 51.3961 2.964 50.7738L3.39561 51.4764L2.70305 51.898L1.66923 50.2017L1.11719 49.9508L1.45844 49.8504L1.40827 49.7701L4.0179 49.0977L4.23872 49.8805L3.51605 50.0913C4.95135 50.6333 6.43683 50.9746 7.95243 51.1251C9.46802 51.2757 11.0137 51.2255 12.5394 50.9746C13.7639 50.7738 14.8278 50.4727 15.6308 50.2017L15.4602 50.1716L15.5906 49.3686L18.0296 49.7099L17.9594 49.8103L18.3107 49.8705L17.7185 50.1716L16.6646 51.7775L15.9821 51.3259L16.3233 50.814C15.5404 51.1151 14.2858 51.5166 12.71 51.7775C11.6762 51.9682 10.6624 52.0485 9.65872 52.0485Z" fill="#FF0000"/>
<defs>
<linearGradient id="paint0_linear_79_6097" x1="5.09774" y1="19.563" x2="17.9902" y2="19.1659" gradientUnits="userSpaceOnUse">
<stop stop-color="#BFAB8D"/>
<stop offset="0.5078" stop-color="#E7E1D2"/>
<stop offset="1" stop-color="#CCBFA6"/>
</linearGradient>
<linearGradient id="paint1_linear_79_6097" x1="-3.05393" y1="46.342" x2="23.6722" y2="45.5187" gradientUnits="userSpaceOnUse">
<stop stop-color="#94938C"/>
<stop offset="0.0311" stop-color="#A6A59D"/>
<stop offset="0.0939" stop-color="#C5C3BB"/>
<stop offset="0.1552" stop-color="#DBD9D0"/>
<stop offset="0.2138" stop-color="#E8E7DD"/>
<stop offset="0.2666" stop-color="#EDEBE1"/>
<stop offset="0.7117" stop-color="#EDEBE1"/>
<stop offset="0.7637" stop-color="#E7E5DB"/>
<stop offset="0.835" stop-color="#D5D3CA"/>
<stop offset="0.9175" stop-color="#B8B7AF"/>
<stop offset="1" stop-color="#94938C"/>
</linearGradient>
</defs>
</svg>
