<svg width="20" height="69" viewBox="0 0 20 69" fill="none" xmlns="http://www.w3.org/2000/svg">
<path d="M16.2368 45.3875C16.2368 45.3875 4.15214 42.3563 3.14844 44.0827L8.02645 9.53514C8.02645 9.53514 7.87591 0.652344 9.18073 0.652344C10.4855 0.652344 11.8004 4.57683 11.8004 4.57683C11.8004 4.57683 15.9457 37.117 16.2368 45.3875Z" fill="url(#paint0_linear_79_5983)"/>
<path d="M13.9159 41.747C13.9159 41.747 21.1024 51.222 19.7976 59.071C19.376 61.6003 18.5128 64.2501 16.9872 66.3378C16.2445 67.3515 15.2809 68.2749 14.0564 68.6764C12.4404 69.2084 10.3728 68.7868 8.75682 68.4355C7.96389 68.2549 7.18099 68.014 6.43825 67.6727C1.25912 65.2939 -0.115956 59.1412 0.3056 53.932C0.596675 50.2685 1.7108 46.7254 3.15614 43.373C4.08958 41.1949 6.27766 40.6329 8.45571 40.3217C10.0817 40.0808 12.8018 40.2715 13.9159 41.747Z" fill="url(#paint1_linear_79_5983)"/>
<path d="M9.97188 61.7796C9.38973 61.7796 8.80757 61.7495 8.22542 61.6993C6.57935 61.5387 4.96339 61.1473 3.40764 60.545L3.81915 61.2175L3.12661 61.6391L2.11285 59.9729L1.55078 59.722L1.89204 59.6216L1.84185 59.5413L4.42138 58.8789L4.6422 59.6618L3.94964 59.8625C5.35483 60.3845 6.80017 60.7257 8.28566 60.8763C9.77114 61.0268 11.2867 60.9766 12.7923 60.7358C13.9767 60.545 15.0205 60.254 15.8034 59.983L15.6629 59.9529L15.7934 59.1499L18.2023 59.4912L18.132 59.5915L18.4833 59.6618L17.8911 59.9729L16.8573 61.5488L16.1748 61.0971L16.496 60.6053C15.7231 60.8964 14.5086 61.2878 12.9629 61.5387C11.9693 61.6993 10.9655 61.7796 9.97188 61.7796Z" fill="#FF0000"/>
<defs>
<linearGradient id="paint0_linear_79_5983" x1="4.81449" y1="23.2594" x2="14.4191" y2="22.9635" gradientUnits="userSpaceOnUse">
<stop stop-color="#BFAB8D"/>
<stop offset="0.5078" stop-color="#E7E1D2"/>
<stop offset="1" stop-color="#CCBFA6"/>
</linearGradient>
<linearGradient id="paint1_linear_79_5983" x1="-6.04786" y1="54.2751" x2="26.9044" y2="54.864" gradientUnits="userSpaceOnUse">
<stop stop-color="#94938C"/>
<stop offset="0.0617" stop-color="#A4A29B"/>
<stop offset="0.1809" stop-color="#CCCAC2"/>
<stop offset="0.2666" stop-color="#EDEBE1"/>
<stop offset="0.7117" stop-color="#EDEBE1"/>
<stop offset="0.7719" stop-color="#E0DED5"/>
<stop offset="0.883" stop-color="#BEBDB4"/>
<stop offset="1" stop-color="#94938C"/>
</linearGradient>
</defs>
</svg>
