<svg width="19" height="61" viewBox="0 0 19 61" fill="none" xmlns="http://www.w3.org/2000/svg">
<path d="M12.5474 34.6532C12.5474 34.6532 15.8194 35.958 16.793 43.4757C16.793 43.4757 17.7767 51.3247 18.0979 53.6031C18.4291 55.8916 18.4291 58.8324 14.8258 59.8161C11.2325 60.7997 7.96041 60.1473 6.00318 59.4848C4.04596 58.8324 1.1051 56.8652 0.442656 54.5868C-0.21979 52.3084 0.442652 41.1873 1.42628 39.2301C2.41995 37.2628 4.70841 32.0335 12.5474 34.6532Z" fill="url(#paint0_linear_79_6077)"/>
<path d="M9.28403 3.59773C9.28403 3.59773 16.4605 19.2857 13.5297 35.7866C13.5297 35.7866 3.1313 34.552 2.60938 37.3725C4.06475 30.5071 4.76735 23.2804 4.48632 16.2645C4.36587 13.424 4.16512 10.5835 4.08482 7.73301C4.03464 5.87615 3.71345 3.76837 4.50638 2.04199C4.8376 1.31932 5.38965 0.255391 6.30302 0.165057C7.82865 0.0345753 8.82232 2.54384 9.28403 3.59773Z" fill="url(#paint1_linear_79_6077)"/>
<path d="M8.91235 54.7484C8.35028 54.7484 7.78821 54.7183 7.22614 54.6681C5.65032 54.5176 4.10461 54.1462 2.61913 53.564L2.99049 54.1763L2.29794 54.5979L1.31431 53.002L0.742188 52.741L1.09349 52.6406L1.0433 52.5603L3.55257 51.918L3.77338 52.7009L3.15109 52.8815C4.48602 53.3834 5.87113 53.7046 7.28636 53.8351C8.72166 53.9756 10.177 53.9254 11.6324 53.6945C12.7967 53.5038 13.7803 53.2228 14.4829 52.9819L14.4026 52.9618L14.5331 52.1588L16.8718 52.4901L16.8115 52.5905L17.1729 52.6607L16.5606 52.9719L15.5569 54.4975L14.8744 54.0458L15.1554 53.6142C14.4026 53.8953 13.2484 54.2666 11.783 54.5075C10.8395 54.6681 9.87591 54.7484 8.91235 54.7484Z" fill="#FF0000"/>
<defs>
<linearGradient id="paint0_linear_79_6077" x1="22.7147" y1="47.7756" x2="-3.29555" y2="46.4725" gradientUnits="userSpaceOnUse">
<stop stop-color="#94938C"/>
<stop offset="0.1599" stop-color="#D1CFC6"/>
<stop offset="0.2296" stop-color="#EDEBE1"/>
<stop offset="0.7988" stop-color="#EDEBE1"/>
<stop offset="0.9762" stop-color="#9F9E96"/>
<stop offset="1" stop-color="#94938C"/>
</linearGradient>
<linearGradient id="paint1_linear_79_6077" x1="5.23326" y1="18.7909" x2="14.2142" y2="18.9514" gradientUnits="userSpaceOnUse">
<stop stop-color="#BFAB8D"/>
<stop offset="0.5078" stop-color="#E7E1D2"/>
<stop offset="1" stop-color="#CCBFA6"/>
</linearGradient>
</defs>
</svg>
