<svg width="26" height="74" viewBox="0 0 26 74" fill="none" xmlns="http://www.w3.org/2000/svg">
<path d="M13.2329 0.816537C14.7886 2.34217 15.5615 5.59418 16.3444 7.58152C18.7332 13.6539 20.5499 19.9572 21.6038 26.401C22.1257 29.6129 22.467 32.8448 22.5874 36.0968C22.6476 37.7329 22.6677 39.3689 22.6276 40.9949C22.5975 42.3298 22.8183 44.277 22.2562 45.4915C21.5737 44.7187 21.0819 43.7852 20.3592 43.0425C18.5927 41.2258 16.3042 39.9209 13.7147 39.9209C12.6206 39.9209 11.5567 40.1418 10.5329 40.5131C10.1214 40.6637 9.70988 40.8444 9.31843 41.0351C8.16417 41.6072 6.78909 43.3335 5.56457 43.4239C5.3839 41.0351 5.98612 38.3451 6.21697 35.9463C6.21697 29.8538 7.42142 23.42 8.33479 17.4178C8.60579 15.6112 9.01732 13.8246 8.98721 11.9978C8.94706 10.1008 8.73627 8.21385 8.86675 6.32688C8.97716 4.63062 9.19798 0.535498 11.5266 0.274535C11.9883 0.224349 12.4399 0.39498 12.8715 0.56561C13.002 0.615796 13.1225 0.706129 13.2329 0.816537Z" fill="url(#paint0_linear_79_6067)"/>
<path d="M25.5196 69.4585C25.5196 69.4585 27.8081 42.6596 15.7134 38.7351C15.7134 38.7351 1.98273 36.4466 0.677909 60.3047C0.637761 60.9872 0.537392 61.6597 0.507281 62.3422C0.447058 63.8378 0.497244 65.3433 0.758207 66.8087C1.02921 68.3544 1.53105 69.9503 2.58495 71.1548C3.09684 71.7369 3.72917 72.1986 4.45184 72.4797C5.07414 72.7206 5.7667 72.8209 6.41911 72.9514C7.22208 73.122 8.03508 73.2726 8.84808 73.4031C9.28971 73.4734 9.73133 73.5336 10.173 73.5938C11.799 73.7845 13.435 73.8548 15.061 73.915C17.7108 74.0154 20.461 74.1458 22.9401 73.0117C24.4156 72.3392 25.5196 71.1347 25.5196 69.4585Z" fill="url(#paint1_linear_79_6067)"/>
<path d="M13.2131 69.1371C12.3499 69.1371 11.4967 69.0969 10.6436 69.0166C8.02392 68.7657 5.45443 68.1133 3.00539 67.0895L3.9288 68.5951L3.23624 69.0166L1.69054 66.4974L1.28906 66.3167L1.52994 66.2464L1.45969 66.136L5.02285 65.2227L5.24365 66.0055L3.66784 66.4673C5.92618 67.3706 8.28489 67.9527 10.6938 68.1836C12.922 68.4044 15.1904 68.3241 17.4387 67.9628C19.5766 67.6215 21.3933 67.0494 22.5977 66.5877L21.6743 66.4171L21.8048 65.6141L25.0668 66.0758L24.9765 66.2163L25.2274 66.2665L24.8059 66.4773L23.2401 68.8661L22.5576 68.4144L23.3806 67.1698C22.3368 67.6115 20.3093 68.3442 17.5993 68.7758C16.1439 69.0167 14.6785 69.1371 13.2131 69.1371Z" fill="#FF0000"/>
<defs>
<linearGradient id="paint0_linear_79_6067" x1="18.922" y1="22.8423" x2="5.44101" y2="23.0833" gradientUnits="userSpaceOnUse">
<stop stop-color="#BFAB8D"/>
<stop offset="0.5078" stop-color="#E7E1D2"/>
<stop offset="1" stop-color="#CCBFA6"/>
</linearGradient>
<linearGradient id="paint1_linear_79_6067" x1="30.5964" y1="56.3179" x2="-4.42473" y2="56.3358" gradientUnits="userSpaceOnUse">
<stop stop-color="#94938C"/>
<stop offset="0.2296" stop-color="#EDEBE1"/>
<stop offset="0.7876" stop-color="#EDEBE1"/>
<stop offset="1" stop-color="#94938C"/>
</linearGradient>
</defs>
</svg>
