<svg width="26" height="74" viewBox="0 0 26 74" fill="none" xmlns="http://www.w3.org/2000/svg">
<path d="M12.5562 0.765756C11.0005 2.29139 10.2276 5.5434 9.44474 7.53074C7.05591 13.6032 5.23919 19.9064 4.1853 26.3502C3.66337 29.5621 3.32211 32.794 3.20167 36.046C3.14144 37.6821 3.12136 39.3181 3.16151 40.9441C3.19162 42.279 2.97082 44.2262 3.53289 45.4407C4.21541 44.6679 4.70723 43.7344 5.4299 42.9917C7.19643 41.175 9.48488 39.8702 12.0744 39.8702C13.1685 39.8702 14.2324 40.091 15.2562 40.4623C15.6677 40.6129 16.0792 40.7936 16.4707 40.9843C17.6249 41.5564 19 43.2828 20.2246 43.3731C20.4052 40.9843 19.803 38.2943 19.5721 35.8955C19.5721 29.803 18.3677 23.3692 17.4543 17.3671C17.1833 15.5604 16.7718 13.7738 16.8019 11.947C16.8421 10.05 17.0528 8.16307 16.9224 6.2761C16.812 4.57984 16.5911 0.484717 14.2625 0.223753C13.8008 0.173568 13.3492 0.344199 12.9176 0.514829C12.7971 0.565014 12.6666 0.655348 12.5562 0.765756Z" fill="url(#paint0_linear_79_6062)"/>
<path d="M0.270136 69.4077C0.270136 69.4077 -2.01833 42.6088 10.0763 38.6843C10.0763 38.6843 23.8071 36.3958 25.1119 60.2539C25.152 60.9365 25.2524 61.609 25.2825 62.2915C25.3427 63.787 25.2925 65.2926 25.0316 66.758C24.7606 68.3037 24.2587 69.8996 23.2048 71.104C22.6929 71.6862 22.0606 72.1479 21.3379 72.4289C20.7156 72.6698 20.0231 72.7702 19.3707 72.9007C18.5677 73.0713 17.7547 73.2218 16.9417 73.3523C16.5001 73.4226 16.0584 73.4828 15.6168 73.543C13.9908 73.7337 12.3548 73.804 10.7288 73.8642C8.07897 73.9646 5.32881 74.0951 2.84965 72.9609C1.38424 72.2984 0.270136 71.094 0.270136 69.4077Z" fill="url(#paint1_linear_79_6062)"/>
<path d="M12.5752 69.0997C11.1098 69.0997 9.64436 68.9793 8.17894 68.7484C5.46894 68.3068 3.44145 67.5741 2.3976 67.1425L3.22065 68.3871L2.53812 68.8388L0.972336 66.4499L0.550781 66.2392L0.801708 66.189L0.711378 66.0485L3.97343 65.5868L4.1039 66.3897L3.18049 66.5604C4.38494 67.0221 6.20165 67.5942 8.33954 67.9354C10.5878 68.2968 12.8562 68.367 15.0845 68.1562C17.4934 67.9254 19.8521 67.3433 22.1104 66.4399L20.5346 65.9782L20.7554 65.1953L24.3186 66.1087L24.2483 66.2191L24.4892 66.2893L24.0877 66.47L22.542 68.9893L21.8494 68.5678L22.7728 67.0622C20.3238 68.086 17.7543 68.7384 15.1346 68.9893C14.2915 69.0596 13.4384 69.0997 12.5752 69.0997Z" fill="#FF0000"/>
<defs>
<linearGradient id="paint0_linear_79_6062" x1="6.87152" y1="22.7963" x2="20.3524" y2="23.0373" gradientUnits="userSpaceOnUse">
<stop stop-color="#BFAB8D"/>
<stop offset="0.5078" stop-color="#E7E1D2"/>
<stop offset="1" stop-color="#CCBFA6"/>
</linearGradient>
<linearGradient id="paint1_linear_79_6062" x1="-4.80129" y1="56.273" x2="30.2197" y2="56.2909" gradientUnits="userSpaceOnUse">
<stop stop-color="#94938C"/>
<stop offset="0.2296" stop-color="#EDEBE1"/>
<stop offset="0.7876" stop-color="#EDEBE1"/>
<stop offset="1" stop-color="#94938C"/>
</linearGradient>
</defs>
</svg>
