<svg width="19" height="61" viewBox="0 0 19 61" fill="none" xmlns="http://www.w3.org/2000/svg">
<path d="M6.61987 34.8814C6.61987 34.8814 3.35171 36.1889 2.3709 43.7061C2.3709 43.7061 1.39056 51.5505 1.06347 53.8383C0.736839 56.1261 0.736841 59.0677 4.33162 60.0481C7.92686 61.0284 11.195 60.3747 13.1562 59.7214C15.1173 59.0681 18.0588 57.1065 18.7126 54.8187C19.3663 52.5308 18.7126 41.4183 17.7322 39.4571C16.7514 37.4959 14.4636 32.2665 6.61987 34.8814Z" fill="url(#paint0_linear_83_8419)"/>
<path d="M9.89087 3.83076C9.89087 3.83076 2.71648 19.5159 5.64993 36.023C5.64993 36.023 16.0522 34.7899 16.5667 37.6136C15.1077 30.7464 14.4067 23.5195 14.6939 16.5094C14.8101 13.6654 15.011 10.8254 15.0909 7.98C15.1426 6.12722 15.4647 4.01041 14.6694 2.28466C14.3355 1.55924 13.7834 0.493118 12.8774 0.408282C11.3399 0.264469 10.3518 2.77054 9.89087 3.83076Z" fill="url(#paint1_linear_83_8419)"/>
<defs>
<linearGradient id="paint0_linear_83_8419" x1="0.164355" y1="48.1745" x2="43.7062" y2="44.3456" gradientUnits="userSpaceOnUse">
<stop stop-color="#FCFCFC"/>
<stop offset="1" stop-color="#CDCAC5"/>
</linearGradient>
<linearGradient id="paint1_linear_83_8419" x1="13.9375" y1="19.0206" x2="4.95642" y2="19.1811" gradientUnits="userSpaceOnUse">
<stop stop-color="#BFAB8D"/>
<stop offset="0.5078" stop-color="#E7E1D2"/>
<stop offset="1" stop-color="#CCBFA6"/>
</linearGradient>
</defs>
</svg>
