<svg width="20" height="70" viewBox="0 0 20 70" fill="none" xmlns="http://www.w3.org/2000/svg">
<path d="M3.94531 45.6448C3.94531 45.6448 16.0269 42.6165 17.0309 44.3432L12.1517 9.79066C12.1517 9.79066 8.73195 0.910156 7.42448 0.910156C6.11701 0.910156 4.80954 4.83209 4.80954 4.83209C4.80954 4.83209 4.23657 37.3749 3.94531 45.6448Z" fill="url(#paint0_linear_83_8425)"/>
<path d="M6.26849 42.1481C6.26804 42.149 -0.921967 51.6271 0.38547 59.471C0.80737 62.002 1.67114 64.6474 3.19679 66.7347C3.94078 67.7527 4.90753 68.6741 6.1265 69.0779C7.7388 69.6119 9.80791 69.1927 11.4243 68.832C12.22 68.6546 13.0017 68.4101 13.7429 68.0689C18.9255 65.6854 20.2946 59.54 19.8777 54.3319C19.5847 50.6735 18.4741 47.1244 17.0306 43.7718C16.0942 41.5969 13.9131 41.0271 11.736 40.7191C10.0974 40.4873 7.38267 40.6796 6.26849 42.1481Z" fill="url(#paint1_linear_83_8425)"/>
<defs>
<linearGradient id="paint0_linear_83_8425" x1="15.2992" y1="23.5736" x2="5.40555" y2="23.2688" gradientUnits="userSpaceOnUse">
<stop stop-color="#BFAB8D"/>
<stop offset="0.5078" stop-color="#E7E1D2"/>
<stop offset="1" stop-color="#CCBFA6"/>
</linearGradient>
<linearGradient id="paint1_linear_83_8425" x1="26.2272" y1="54.68" x2="-18.4279" y2="55.4781" gradientUnits="userSpaceOnUse">
<stop stop-color="#FCFCFC"/>
<stop offset="1" stop-color="#CDCAC5"/>
</linearGradient>
</defs>
</svg>
