<svg width="20" height="58" viewBox="0 0 20 58" fill="none" xmlns="http://www.w3.org/2000/svg">
<path d="M10.0156 56.2716C10.0156 56.2716 15.3622 57.1069 17.1036 54.2655C18.8445 51.4241 10.5651 54.5822 10.0156 56.2716Z" fill="#D8D6D0"/>
<path d="M15.3824 38.3488C15.3824 38.3488 15.0557 27.2362 14.0749 24.2946C13.0945 21.353 12.1137 11.5479 12.4408 8.93293C12.7674 6.31799 12.7674 2.39603 12.7674 2.39603C12.7674 2.39603 13.0941 -0.545554 10.1525 1.74229C7.2109 4.03014 3.61558 15.1427 3.94268 19.7184C4.26932 24.2941 4.37275 38.0829 4.32103 38.0525C4.26976 38.0221 15.3824 38.3488 15.3824 38.3488Z" fill="url(#paint0_linear_83_8430)"/>
<path d="M4.5937 37.0435C4.5937 37.0435 -2.92356 48.1561 2.6325 54.0392C3.31118 54.7578 4.37865 55.2632 5.20568 55.789C6.05948 56.3321 6.97046 57.086 8.01117 57.2035C9.20477 57.3387 10.0785 56.0898 11.2517 55.8462C13.1167 55.4587 14.9418 55.7654 16.5347 54.4933C17.8498 53.4431 18.6474 51.8058 18.9182 50.1663C19.2558 48.1207 18.9064 46.042 18.499 44.0336C18.3253 43.1775 18.0295 42.3627 17.6833 41.5611C17.3145 40.7064 16.6494 39.8721 16.36 39.0038C16.3595 39.0042 13.7451 31.1603 4.5937 37.0435Z" fill="url(#paint1_linear_83_8430)"/>
<defs>
<linearGradient id="paint0_linear_83_8430" x1="14.4826" y1="19.6576" x2="1.59001" y2="19.2605" gradientUnits="userSpaceOnUse">
<stop stop-color="#BFAB8D"/>
<stop offset="0.5078" stop-color="#E7E1D2"/>
<stop offset="1" stop-color="#CCBFA6"/>
</linearGradient>
<linearGradient id="paint1_linear_83_8430" x1="22.63" y1="46.4395" x2="-14.979" y2="45.281" gradientUnits="userSpaceOnUse">
<stop stop-color="#FCFCFC"/>
<stop offset="1" stop-color="#CDCAC5"/>
</linearGradient>
</defs>
</svg>
