<svg width="19" height="55" viewBox="0 0 19 55" fill="none" xmlns="http://www.w3.org/2000/svg">
<path d="M9.53906 54.3311C9.53906 54.3311 14.8381 55.4267 16.716 52.6743C18.5938 49.9214 10.1706 52.6707 9.53906 54.3311Z" fill="#D8D6D0"/>
<path d="M8.75778 54.5659C8.75778 54.5659 3.11413 54.9474 1.70991 51.2883C0.305692 47.6292 8.42476 52.4479 8.75778 54.5659Z" fill="#D8D6D0"/>
<path d="M6.50403 34.0349C6.421 34.0758 6.34207 34.122 6.26767 34.1742C4.83 35.1782 3.61826 36.8059 2.70413 38.278C1.315 40.5146 0.323293 43.0728 0.590502 45.7422C0.772876 47.5668 0.977474 49.665 1.88934 51.3037C2.42195 52.2609 3.61918 52.6996 4.59411 53.0389C5.42931 53.3297 6.27222 53.6028 7.09109 53.9381C7.84735 54.2475 8.58953 54.7751 9.44151 54.7071C10.421 54.6286 11.1051 53.861 11.8886 53.3629C13.118 52.5816 14.5897 52.1811 16.046 52.2514C16.3019 52.2636 16.5641 52.2895 16.8095 52.2146C17.1675 52.1058 17.4292 51.8018 17.6402 51.4933C18.601 50.0897 18.5756 48.7296 18.5838 47.0973C18.5924 45.4387 18.5602 43.7701 18.244 42.1369C17.681 39.2267 15.7584 36.8191 14.7476 34.0721C14.6895 33.9138 14.6315 33.7518 14.5249 33.6212C14.3425 33.3975 14.044 33.3009 13.7564 33.2777C13.2174 33.2342 12.6744 33.3177 12.1404 33.3748C11.1278 33.4837 10.1393 33.5967 9.12125 33.6665C8.31372 33.7223 7.25575 33.6638 6.50403 34.0349Z" fill="url(#paint0_linear_83_8438)"/>
<path d="M4.3627 35.9486C4.39899 35.9781 4.44253 36.0012 4.49561 36.0157C4.76238 36.0906 5.58445 35.6882 5.87525 35.612C6.83932 35.3597 7.81427 35.1488 8.79512 34.9732C9.83404 34.7872 10.8843 34.6107 11.9427 34.6021C12.503 34.5976 13.0665 34.6366 13.615 34.7555C14.1022 34.8612 14.6272 35.1951 15.0885 35.2368C15.4247 33.9262 15.0835 32.4018 15.0055 31.0708C14.9189 29.5909 14.7828 28.1143 14.5981 26.6435C14.252 23.8834 13.5628 21.2263 13.0606 18.5011C12.5715 15.8503 12.4354 13.048 12.494 10.3487C12.5212 9.07937 12.5983 7.80775 12.7439 6.54656C12.8678 5.47001 13.1781 4.50643 13.0679 3.39086C12.9558 2.2567 12.4236 0.53913 10.926 1.00368C9.79866 1.35346 9.09683 2.59333 8.52792 3.53604C7.44408 5.3312 6.65512 7.28695 5.92833 9.25359C5.20245 11.2175 4.53329 13.2154 4.15447 15.2787C3.82374 17.0784 3.8641 18.84 3.8954 20.6569C3.9444 23.5413 4.01337 26.4253 4.0846 29.3092C4.13042 31.1701 4.02426 33.1114 4.1708 34.9986C4.19711 35.3516 4.14493 35.7708 4.3627 35.9486Z" fill="url(#paint1_linear_83_8438)"/>
<defs>
<linearGradient id="paint0_linear_83_8438" x1="24.5337" y1="44.3947" x2="-20.0257" y2="43.0221" gradientUnits="userSpaceOnUse">
<stop stop-color="#FCFCFC"/>
<stop offset="1" stop-color="#CDCAC5"/>
</linearGradient>
<linearGradient id="paint1_linear_83_8438" x1="17.9978" y1="19.524" x2="3.63793" y2="18.016" gradientUnits="userSpaceOnUse">
<stop stop-color="#BFAB8D"/>
<stop offset="0.5078" stop-color="#E7E1D2"/>
<stop offset="1" stop-color="#CCBFA6"/>
</linearGradient>
</defs>
</svg>
