<svg width="26" height="51" viewBox="0 0 26 51" fill="none" xmlns="http://www.w3.org/2000/svg">
<path d="M14.7441 2.21619C14.7441 2.21619 15.6501 0.161983 17.4838 0.676442C19.3175 1.1909 19.9517 5.98482 19.6197 9.51889C19.288 13.053 17.7161 24.2658 15.0136 24.4967C12.3111 24.7277 7.36886 18.3768 9.61723 14.8386C11.8656 11.3004 15.5866 5.09017 14.7441 2.21619Z" fill="url(#paint0_linear_83_8448)"/>
<path d="M2.9242 32.6667C6.12307 32.4363 9.75295 30.8725 12.9577 30.7459C14.968 30.6665 16.9791 30.5336 18.9916 30.598C19.9221 30.6275 21.3059 33.1082 22.2082 32.9934C22.7935 32.919 22.4074 30.5154 22.3833 29.8935C22.3629 29.364 22.318 28.8369 22.3956 28.3093C22.6741 26.4075 23.7203 24.6019 24.1554 22.7001C24.659 20.5003 24.9992 18.2579 25.2084 16.0113C25.4302 13.6282 25.5241 11.1938 25.212 8.81389C25.0777 7.7877 24.8944 6.74562 24.487 5.78793C24.1699 5.04256 23.4009 3.57949 22.4183 3.69155C22.0576 3.73283 21.7345 3.93789 21.4646 4.18151C20.9356 4.65922 20.5673 5.29526 20.3236 5.96532C19.8214 7.34764 19.8323 8.83612 19.7357 10.2842C19.6359 11.7772 19.2289 13.16 18.8941 14.609C18.2725 17.3015 17.5385 20.4704 15.7746 22.6775C15.3454 23.2146 14.7003 23.6492 14.0157 23.5843C13.6646 23.5508 13.3366 23.3893 13.0498 23.1838C12.0168 22.4429 11.4914 21.1645 11.3122 19.906C10.9452 17.3274 11.2215 14.4829 11.9106 11.9832C12.3149 10.516 13.0616 9.20223 13.518 7.76774C14.0003 6.25113 14.6545 3.24242 12.5163 2.6649C11.6534 2.43172 10.7347 2.87268 10.09 3.49148C7.69825 5.78476 6.08271 9.19407 4.69945 12.1502C3.85108 13.9625 3.03218 15.8362 2.51 17.7733C2.19605 18.9379 2.22964 20.0984 2.26276 21.301C2.35531 24.6632 2.55037 29.3337 2.9242 32.6667Z" fill="url(#paint1_linear_83_8448)"/>
<path d="M21.8655 34.8342C22.1377 34.9172 22.5278 35.6567 22.6789 35.8694C23.2773 36.7137 23.7954 37.6224 24.1833 38.5833C25.2286 41.1724 25.0771 44.0119 23.1163 46.1329C23.0931 46.1578 23.0695 46.1828 23.0464 46.2077C22.9407 46.3189 22.8305 46.4273 22.7443 46.5539C22.5025 46.9091 22.4448 47.3541 22.2157 47.7184C21.9993 48.0628 21.6813 48.3849 21.3732 48.6448C20.6478 49.2573 19.6814 49.6828 18.7165 49.5876C18.3848 49.5549 18.0686 49.4369 17.7569 49.3199C16.4036 48.8118 14.9341 48.2324 14.2164 46.8887C14.298 47.042 13.9256 47.6658 13.8317 47.7928C13.6066 48.0986 13.3308 48.2315 12.9828 48.3658C11.8336 48.81 10.5828 49.1666 9.48127 49.7173C8.71999 50.0104 8.07756 50.2889 7.30313 50.0349C6.85216 49.887 6.39531 49.7572 5.94934 49.5939C5.11456 49.2886 3.72585 48.7542 3.72585 47.6713C3.72585 45.9968 2.33032 40.9737 5.67941 35.9507C9.02714 30.9294 21.855 34.831 21.8655 34.8342Z" fill="#D8D6D0"/>
<path d="M21.879 30.7071C22.198 30.8042 22.6552 31.6707 22.8317 31.9197C23.5326 32.9087 24.1392 33.973 24.5937 35.0981C25.8182 38.1309 25.6403 41.4567 23.3443 43.9401C23.3171 43.9691 23.2894 43.9986 23.2622 44.0276C23.1384 44.1578 23.0095 44.2849 22.9084 44.4332C22.6248 44.8497 22.5577 45.37 22.2896 45.7974C22.0364 46.2002 21.664 46.5777 21.3029 46.8826C20.4532 47.5998 19.3213 48.0979 18.1917 47.9868C17.8033 47.9487 17.4331 47.8103 17.0679 47.6733C15.4828 47.0785 13.7616 46.3994 12.921 44.8256C13.0167 45.0048 12.5803 45.7357 12.4705 45.8849C12.207 46.2429 11.8835 46.3985 11.4766 46.5559C10.1305 47.0763 8.66567 47.4936 7.37546 48.1387C6.48401 48.4822 5.73184 48.8084 4.82452 48.5108C4.29646 48.3375 3.76113 48.1855 3.23896 47.9945C2.26132 47.637 0.634485 47.0109 0.634485 45.7425C0.634485 43.7813 -0.999596 37.8981 2.92231 32.015C6.84285 26.1337 21.8668 30.703 21.879 30.7071Z" fill="url(#paint2_linear_83_8448)"/>
<defs>
<linearGradient id="paint0_linear_83_8448" x1="11.2278" y1="23.4819" x2="29.7898" y2="-21.8835" gradientUnits="userSpaceOnUse">
<stop offset="0.1599" stop-color="#BFAB8D"/>
<stop offset="0.5078" stop-color="#E7E1D2"/>
<stop offset="0.7297" stop-color="#CCBFA6"/>
</linearGradient>
<linearGradient id="paint1_linear_83_8448" x1="24.1118" y1="17.4814" x2="3.2008" y2="18.4269" gradientUnits="userSpaceOnUse">
<stop offset="0.1599" stop-color="#BFAB8D"/>
<stop offset="0.5078" stop-color="#E7E1D2"/>
<stop offset="0.7297" stop-color="#CCBFA6"/>
</linearGradient>
<linearGradient id="paint2_linear_83_8448" x1="31.1352" y1="41.1464" x2="-18.8477" y2="35.8975" gradientUnits="userSpaceOnUse">
<stop stop-color="#FCFCFC"/>
<stop offset="1" stop-color="#CDCAC5"/>
</linearGradient>
</defs>
</svg>
