<svg width="24" height="42" viewBox="0 0 24 42" fill="none" xmlns="http://www.w3.org/2000/svg">
<path d="M13.7909 3.49966C14.3116 1.76029 16.1098 1.97942 16.7177 3.5473C17.8931 6.57826 17.2897 9.98168 16.6855 13.0689C16.4056 14.4984 15.8658 19.7864 13.8485 19.9588C11.8471 20.1298 8.18715 15.4262 9.85198 12.8058C10.7552 11.3844 11.7427 10.0066 12.4848 8.49002C13.2919 6.84184 13.281 5.20455 13.7909 3.49966Z" fill="url(#paint0_linear_83_8458)"/>
<path d="M3.32991 26.7993C3.39569 26.836 3.60391 26.3696 3.79127 26.39C4.03579 26.4164 4.34065 26.3311 4.58517 26.3061C5.42987 26.2208 6.27592 26.1469 7.12244 26.0829C9.47419 25.9055 11.8368 25.7976 14.1958 25.8452C15.8367 25.8783 17.5025 25.9654 19.1116 26.3088C20.1056 26.5207 21.4135 26.836 22.0214 27.7397C22.0214 27.7397 20.6518 22.2236 21.6326 17.9745C22.6134 13.7255 23.9203 2.28622 21.3055 1.95913C19.6619 1.75362 18.423 5.57622 17.9943 6.63961C16.8574 9.45961 15.9674 12.4738 15.1612 15.4362C15.1385 15.5188 15.1154 15.6036 15.065 15.6731C14.6236 16.2837 13.0912 16.5259 12.4996 16.1176C12.0042 15.7756 11.8817 15.1082 11.801 14.5112C11.6576 13.4519 11.5143 12.3926 11.3709 11.3333C11.0302 8.81631 10.6873 6.28303 10.748 3.73659C10.7648 3.03749 11.5615 -0.52289 9.86617 0.325015C7.01812 1.74908 5.39402 5.68782 4.60284 8.51463C3.53403 12.3341 3.49458 16.4211 3.34714 20.3599C3.27955 22.1655 3.18928 23.996 3.30723 25.8016C3.33036 26.155 3.23646 26.7471 3.32991 26.7993Z" fill="url(#paint1_linear_83_8458)"/>
<path d="M4.42498 25.648C5.30195 25.0406 6.47652 24.968 7.49503 24.7643C9.02892 24.4572 10.5765 24.2013 12.1398 24.1069C15.5855 23.8983 19.3751 24.5302 21.6907 27.3334C22.5069 28.3211 23.0808 29.5038 23.3684 30.7513C23.6919 32.1559 23.431 33.0632 22.9837 34.3902C22.5736 35.6065 22.0382 36.9235 21.3767 38.025C20.6595 39.219 19.5121 40.2529 18.0694 40.2321C16.5065 40.2094 14.9789 39.5978 13.935 38.4129C13.8801 38.3507 13.8239 38.2849 13.7468 38.2536C13.6547 38.2164 13.5508 38.2359 13.4541 38.2582C11.3536 38.7395 9.24715 40.1132 7.30948 41.0419C6.38307 41.4855 5.85365 41.6207 4.91544 41.128C3.74494 40.5133 2.63022 39.7575 1.76369 38.759C-0.799147 35.8056 0.177663 31.6097 2.05136 28.5642C2.64296 27.6029 3.37563 26.4887 4.26212 25.771C4.31475 25.7274 4.36918 25.6866 4.42498 25.648Z" fill="url(#paint2_linear_83_8458)"/>
<defs>
<linearGradient id="paint0_linear_83_8458" x1="11.1148" y1="19.2414" x2="24.8031" y2="-14.2102" gradientUnits="userSpaceOnUse">
<stop offset="0.1599" stop-color="#BFAB8D"/>
<stop offset="0.5078" stop-color="#E7E1D2"/>
<stop offset="0.7297" stop-color="#CCBFA6"/>
</linearGradient>
<linearGradient id="paint1_linear_83_8458" x1="22.1695" y1="16.2478" x2="4.48099" y2="12.8926" gradientUnits="userSpaceOnUse">
<stop offset="0.1599" stop-color="#BFAB8D"/>
<stop offset="0.5078" stop-color="#E7E1D2"/>
<stop offset="0.7297" stop-color="#CCBFA6"/>
</linearGradient>
<linearGradient id="paint2_linear_83_8458" x1="-5.04577" y1="32.7179" x2="49.4166" y2="32.8561" gradientUnits="userSpaceOnUse">
<stop stop-color="#FCFCFC"/>
<stop offset="1" stop-color="#CDCAC5"/>
</linearGradient>
</defs>
</svg>
