<svg width="24" height="43" viewBox="0 0 24 43" fill="none" xmlns="http://www.w3.org/2000/svg">
<path d="M18.9221 2.93954C19.4556 1.2038 17.8388 0.387192 16.462 1.35306C13.8004 3.21991 12.4113 6.38472 11.1987 9.28731C10.637 10.6315 8.14786 15.3275 9.72929 16.5919C11.2985 17.8463 16.9551 15.969 17.0263 12.8654C17.0648 11.1814 17.0095 9.48738 17.235 7.81378C17.48 5.99502 18.399 4.6399 18.9221 2.93954Z" fill="url(#paint0_linear_83_8466)"/>
<path d="M3.12957 26.8635C2.16734 20.5558 2.18275 12.9451 4.98641 7.10732C5.63788 5.75041 6.5248 4.50919 7.58139 3.43763C7.99604 3.01709 10.4658 0.491988 10.9852 1.11351C11.5146 1.74728 11.0361 3.16362 10.9422 3.86816C10.7852 5.04724 10.6364 6.22722 10.5134 7.41038C10.2644 9.81072 9.64419 12.4116 10.2929 14.8001C10.4358 15.3259 10.7661 15.8458 11.2842 16.0141C11.5578 16.103 11.8558 16.0849 12.1367 16.0241C13.9141 15.6389 15.2002 13.847 16.2931 12.5323C17.856 10.6527 18.7529 8.54137 19.5337 6.24355C19.913 5.12754 20.3466 4.04327 21.2998 3.29972C21.5294 3.12052 21.9926 2.70496 22.3464 2.7898C23.5114 3.06835 23.109 6.21133 23.0668 6.92586C22.7402 12.4823 20.4519 19.9996 20.4519 19.9996C20.4519 19.9996 19.4715 26.2093 20.4519 28.1705C21.4327 30.1322 4.43704 30.1322 3.12957 26.8635Z" fill="url(#paint1_linear_83_8466)"/>
<path d="M2.14963 27.8439C2.14963 27.8435 4.76454 24.9023 10.6476 24.9023C16.5307 24.9023 20.7796 26.8636 21.76 29.4781C22.7403 32.0926 23.0674 39.2832 19.4722 40.5907C18.3348 41.0044 17.0846 41.107 16.0593 40.3738C15.1824 39.7469 14.8358 38.5945 13.517 39.0219C12.9422 39.2079 12.4681 39.6112 11.9809 39.9687C9.83871 41.5402 6.19809 43.1702 3.75831 41.3152C0.422998 38.7792 -0.754701 31.1117 2.14963 27.8439Z" fill="url(#paint2_linear_83_8466)"/>
<defs>
<linearGradient id="paint0_linear_83_8466" x1="12.3857" y1="17.4879" x2="19.5967" y2="-17.9319" gradientUnits="userSpaceOnUse">
<stop offset="0.1599" stop-color="#BFAB8D"/>
<stop offset="0.5078" stop-color="#E7E1D2"/>
<stop offset="0.7297" stop-color="#CCBFA6"/>
</linearGradient>
<linearGradient id="paint1_linear_83_8466" x1="-2.38937" y1="15.2089" x2="22.5481" y2="15.299" gradientUnits="userSpaceOnUse">
<stop offset="0.1599" stop-color="#BFAB8D"/>
<stop offset="0.5078" stop-color="#E7E1D2"/>
<stop offset="0.7297" stop-color="#CCBFA6"/>
</linearGradient>
<linearGradient id="paint2_linear_83_8466" x1="-4.71135" y1="33.4744" x2="34.6119" y2="33.6164" gradientUnits="userSpaceOnUse">
<stop stop-color="#FCFCFC"/>
<stop offset="1" stop-color="#CDCAC5"/>
</linearGradient>
</defs>
</svg>
