<svg width="25" height="40" viewBox="0 0 25 40" fill="none" xmlns="http://www.w3.org/2000/svg">
<path d="M9.35843 36.7548C9.06355 38.6081 10.2494 39.0989 11.1794 37.8472C12.9773 35.4278 13.8102 31.9636 14.5307 28.7992C14.8641 27.3338 16.4038 22.1062 15.2216 21.158C14.0484 20.2176 10.1269 23.2585 10.2258 26.3925C10.2794 28.0924 10.4 29.7837 10.3206 31.5117C10.2345 33.3895 9.64787 34.9392 9.35843 36.7548Z" fill="url(#paint0_linear_83_8544)"/>
<path d="M21.83 13.445C21.83 13.445 20.5225 17.0404 20.5225 20.9623C20.5225 24.8843 20.8491 29.7871 18.5613 33.3824C16.2734 36.9777 15.6197 38.6118 15.6197 38.6118C15.6197 38.6118 13.6585 40.8996 12.6781 38.2852C12.6781 38.2852 14.9659 30.4408 13.6585 26.5188C12.351 22.5969 11.0435 23.9039 10.7169 24.5576C10.3902 25.2114 5.81406 32.7286 5.16032 34.6898C4.50658 36.651 3.52619 38.6118 2.87245 38.6118C2.21871 38.6118 1.23833 36.9777 0.584591 34.0361C-0.0691488 31.0945 0.584588 27.8263 1.89207 25.538C3.19955 23.2497 4.50702 13.1179 4.50702 11.4838C4.50702 9.84973 20.1959 12.7913 21.83 13.445Z" fill="url(#paint1_linear_83_8544)"/>
<path d="M14.2754 3.17629C14.5857 3.1028 14.9069 2.90001 15.2798 2.65458C16.2924 1.98724 17.344 1.34349 18.5122 1.01912C19.6808 0.694753 20.9956 0.722878 22.0354 1.34667C22.7667 1.78536 23.3083 2.48037 23.7543 3.20714C24.452 4.34447 24.9669 5.66599 24.8068 6.99069C24.6244 8.50139 24.0251 9.98895 23.4104 11.369C23.0375 12.206 22.7267 13.161 22.0549 13.8161C21.2709 14.58 19.953 14.6875 18.92 14.8323C16.698 15.143 14.4669 14.8645 12.2974 14.3496C10.1407 13.8374 7.91185 13.2694 5.81456 12.5553C5.43756 12.4269 5.06101 12.2786 4.74526 12.0363C3.86016 11.3563 3.67824 9.81067 3.46548 8.79083C3.14247 7.24066 3.33981 5.63787 3.97403 4.19295C4.79063 2.33248 6.35214 0.690215 8.42539 0.371289C9.90933 0.143096 11.2268 0.447506 12.2253 1.59754C12.556 1.97862 12.8191 2.4214 13.1766 2.77934C13.5709 3.17403 13.9157 3.26158 14.2754 3.17629Z" fill="url(#paint2_linear_83_8544)"/>
<defs>
<linearGradient id="paint0_linear_83_8544" x1="13.2768" y1="20.7905" x2="13.2527" y2="57.8602" gradientUnits="userSpaceOnUse">
<stop offset="0.1599" stop-color="#BFAB8D"/>
<stop offset="0.5078" stop-color="#E7E1D2"/>
<stop offset="0.7297" stop-color="#CCBFA6"/>
</linearGradient>
<linearGradient id="paint1_linear_83_8544" x1="19.9355" y1="25.232" x2="3.17714" y2="25.2925" gradientUnits="userSpaceOnUse">
<stop stop-color="#BFAB8D"/>
<stop offset="0.5078" stop-color="#E7E1D2"/>
<stop offset="1" stop-color="#CCBFA6"/>
</linearGradient>
<linearGradient id="paint2_linear_83_8544" x1="31.1869" y1="7.56722" x2="-15.907" y2="7.73735" gradientUnits="userSpaceOnUse">
<stop stop-color="#FCFCFC"/>
<stop offset="1" stop-color="#CDCAC5"/>
</linearGradient>
</defs>
</svg>
