<svg width="27" height="48" viewBox="0 0 27 48" fill="none" xmlns="http://www.w3.org/2000/svg">
<path d="M10.8183 42.0581C10.6164 44.0151 11.8862 44.4602 12.7872 43.0965C14.5297 40.4602 15.2021 36.7861 15.7741 33.4321C16.0391 31.8793 17.3493 26.3183 16.0572 25.3937C14.7752 24.4769 10.8455 27.8861 11.129 31.1607C11.2828 32.9372 11.507 34.7006 11.5233 36.5139C11.5414 38.485 11.0165 40.1409 10.8183 42.0581Z" fill="url(#paint0_linear_83_8530)"/>
<path d="M22.4484 19.7966C21.7629 21.7551 21.2103 23.7993 20.8914 25.8499C20.6768 27.2299 20.7086 28.4566 20.9182 29.8226C21.2707 32.1181 21.2961 34.514 21.1972 36.8295C21.0429 40.4411 19.3104 43.1613 17.9253 46.41C17.4163 47.6036 16.2395 48.2301 15.172 47.1318C13.8183 45.739 14.1835 42.8115 14.1295 41.0449C14.056 38.6269 14.007 36.1921 13.5234 33.8126C13.3152 32.7882 13.0226 31.767 12.4877 30.8688C11.956 29.9755 10.9734 29.54 10.032 30.1833C8.77857 31.0398 8.49593 32.9161 8.06314 34.2517C7.65711 35.5043 7.28919 36.7691 6.93397 38.0371C6.43222 39.8277 5.96812 41.6297 5.48996 43.4267C5.29171 44.1707 4.64478 45.9182 3.551 45.1588C3.18172 44.902 2.99934 44.4574 2.84555 44.035C2.34062 42.6459 1.93732 41.2228 1.53492 39.801C0.995516 37.896 0.499202 35.9965 0.383064 34.0126C0.224735 31.3079 1.29039 28.6354 1.8112 26.0173C2.36467 23.2349 2.71036 20.4113 2.84283 17.5777C2.85145 17.3912 2.86596 17.1885 2.99163 17.0506C3.16175 16.8646 3.45347 16.879 3.70344 16.9076C6.77519 17.2597 9.8533 17.546 12.9219 17.9298C14.9983 18.1879 17.0774 18.461 19.1357 18.8403C20.043 19.0072 21.7456 19.0939 22.4484 19.7966Z" fill="url(#paint1_linear_83_8530)"/>
<path d="M24.8463 15.551C24.9488 14.3242 24.9207 13.0812 25.1543 11.8694C25.5191 9.97805 26.4741 8.33031 26.3389 6.32644C26.0131 1.50209 19.2712 1.12917 15.8813 2.46523C14.4718 3.02053 13.8933 2.49608 12.7084 1.74752C11.4245 0.936356 9.90968 0.511719 8.39215 0.511719C6.65687 0.511719 4.74193 1.00531 3.25979 1.91719C1.0672 3.26642 1.06901 5.47988 0.918396 7.80314C0.751445 10.3727 0.810881 13.0199 1.6606 15.477C1.92056 16.2292 2.26488 16.9682 2.80656 17.5512C3.57644 18.38 4.55728 18.4894 5.59754 18.7289C7.01753 19.056 8.45339 19.3328 9.88472 19.6036C12.6916 20.1349 15.5247 20.5672 18.3806 20.7106C19.7348 20.7786 21.1371 20.6412 22.3398 20.0146C24.0819 19.1078 24.6921 17.4024 24.8463 15.551Z" fill="url(#paint2_linear_83_8530)"/>
<defs>
<linearGradient id="paint0_linear_83_8530" x1="14.0006" y1="25.133" x2="16.1101" y2="63.9376" gradientUnits="userSpaceOnUse">
<stop offset="0.1599" stop-color="#BFAB8D"/>
<stop offset="0.5078" stop-color="#E7E1D2"/>
<stop offset="0.7297" stop-color="#CCBFA6"/>
</linearGradient>
<linearGradient id="paint1_linear_83_8530" x1="19.9217" y1="33.6879" x2="2.42765" y2="30.2837" gradientUnits="userSpaceOnUse">
<stop stop-color="#BFAB8D"/>
<stop offset="0.5078" stop-color="#E7E1D2"/>
<stop offset="1" stop-color="#CCBFA6"/>
</linearGradient>
<linearGradient id="paint2_linear_83_8530" x1="30.5808" y1="11.8348" x2="-14.0728" y2="8.64532" gradientUnits="userSpaceOnUse">
<stop stop-color="#FCFCFC"/>
<stop offset="1" stop-color="#CDCAC5"/>
</linearGradient>
</defs>
</svg>
