<svg width="29" height="51" viewBox="0 0 29 51" fill="none" xmlns="http://www.w3.org/2000/svg">
<path d="M19.6664 1.15695C20.9794 1.24632 21.9929 1.63147 23.0708 2.37184C23.3625 2.57236 23.6388 2.81416 23.5811 3.10087C23.3126 4.44007 13.4371 3.36399 13.5319 2.18947C13.5909 1.49175 16.8024 1.30484 17.5215 1.22727C18.3326 1.13971 19.0345 1.1143 19.6664 1.15695Z" fill="#D8D6D0"/>
<path d="M9.49561 46.5266C8.82009 48.6905 10.4152 49.5734 11.8969 48.2913C14.7614 45.8125 16.4191 41.8362 17.8772 38.1938C18.5522 36.5071 21.4508 30.576 19.9255 29.1424C18.4121 27.7197 12.4794 30.4285 12.1754 34.2347C12.0103 36.2993 11.9413 38.3698 11.5861 40.4353C11.2001 42.68 10.158 44.4062 9.49561 46.5266Z" fill="url(#paint0_linear_83_8516)"/>
<path d="M26.2743 21.2543C26.0865 22.0287 25.92 22.8167 25.8833 22.9692C25.568 24.2771 25.2944 25.595 25.0749 26.9228C24.8957 28.0076 24.7523 29.0982 24.6457 30.1929C24.5422 31.2535 24.6325 32.4213 24.4306 33.4611C24.2315 34.4859 23.8663 35.5611 23.521 36.551C22.4844 39.5238 20.9142 42.2903 19.0497 44.819C18.1142 46.0874 17.1025 47.2992 16.0346 48.4587C15.3786 49.171 13.984 51.2796 12.8249 50.4036C12.3898 50.0747 12.2151 49.4881 12.2433 48.9433C12.2714 48.3984 12.471 47.8794 12.6602 47.3677C14.1174 43.4194 15.5029 38.5308 14.6836 34.2949C14.5983 33.8535 14.4649 33.3975 14.1482 33.0786C13.7331 32.6608 13.0685 32.5669 12.5005 32.7234C11.9325 32.8799 11.448 33.2515 11.0252 33.6616C9.5739 35.0702 8.54271 37.0504 7.65578 38.8515C6.98435 40.2152 6.49122 41.6683 6.20768 43.1622C5.93638 44.5922 6.16684 46.2916 5.5925 47.6335C5.27085 48.3852 4.5536 49.0304 3.73563 49.0068C3.09914 48.9886 2.53567 48.579 2.11603 48.0999C0.569925 46.3347 0.273686 43.522 0.183406 41.2713C0.0699885 38.435 0.473747 35.6087 0.913352 32.8146C1.51174 29.0106 2.28071 25.2325 3.13951 21.4793C3.17263 21.3337 3.63991 18.966 3.73427 18.9688C3.73427 18.9688 26.6092 19.6034 26.8192 19.6093C26.7026 19.6071 26.4762 20.4228 26.2743 21.2543Z" fill="url(#paint1_linear_83_8516)"/>
<path d="M8.37452 0.98313C9.56042 0.915534 10.5258 1.17458 11.6051 1.77659C11.8973 1.93945 12.1822 2.14542 12.1763 2.4344C12.1495 3.78632 3.16546 3.89747 3.06338 2.72837C3.00531 2.03336 5.84166 1.46809 6.4709 1.30613C7.18136 1.12421 7.80335 1.01579 8.37452 0.98313Z" fill="#D8D6D0"/>
<path d="M24.3158 2.03299C25.2689 2.12826 26.1667 2.49527 26.9402 3.30188C27.9369 4.34122 28.4359 5.78296 28.5593 7.21744C28.8238 10.2951 28.2971 13.9552 27.5281 16.9367C27.2841 17.883 27.2596 19.8719 26.6099 20.6023C24.5884 22.8747 20.1466 21.7691 17.4587 21.5826C14.3801 21.369 11.0657 21.2669 8.30739 20.6023C6.4814 20.5106 3.1284 20.9149 2.57402 18.5C1.9389 15.7322 1.54739 12.9018 1.41718 10.0651C1.31919 7.94557 1.00979 2.7085 4.05658 2.29975C4.50253 2.23986 5.25516 2.74252 5.70202 2.84414C6.63429 3.05555 7.54388 3.02696 8.46935 2.78108C9.60759 2.47894 10.6646 1.93455 11.7557 1.49132C11.9929 1.39514 12.2397 1.30214 12.4956 1.30895C13.0786 1.32482 13.5068 1.82975 13.9732 2.17997C15.9362 3.65528 19.4548 2.88996 21.6219 2.32334C22.5315 2.08562 23.4465 1.94634 24.3158 2.03299Z" fill="url(#paint2_linear_83_8516)"/>
<defs>
<linearGradient id="paint0_linear_83_8516" x1="17.2527" y1="28.2395" x2="9.49152" y2="72.5307" gradientUnits="userSpaceOnUse">
<stop offset="0.1599" stop-color="#BFAB8D"/>
<stop offset="0.5078" stop-color="#E7E1D2"/>
<stop offset="0.7297" stop-color="#CCBFA6"/>
</linearGradient>
<linearGradient id="paint1_linear_83_8516" x1="24.2326" y1="34.7349" x2="1.70548" y2="34.8163" gradientUnits="userSpaceOnUse">
<stop stop-color="#BFAB8D"/>
<stop offset="0.5078" stop-color="#E7E1D2"/>
<stop offset="1" stop-color="#CCBFA6"/>
</linearGradient>
<linearGradient id="paint2_linear_83_8516" x1="34.3317" y1="11.4569" x2="-16.17" y2="12.072" gradientUnits="userSpaceOnUse">
<stop stop-color="#FCFCFC"/>
<stop offset="1" stop-color="#CDCAC5"/>
</linearGradient>
</defs>
</svg>
