<svg width="24" height="42" viewBox="0 0 24 42" fill="none" xmlns="http://www.w3.org/2000/svg">
<path d="M9.78597 3.53482C9.26517 1.79545 7.46685 2.01457 6.85895 3.58245C5.68351 6.61342 6.28688 10.0168 6.89116 13.1041C7.17106 14.5336 7.71092 19.8215 9.72836 19.9939C11.7299 20.165 15.39 15.4613 13.7251 12.8409C12.8219 11.4196 11.8343 10.0418 11.0921 8.52517C10.285 6.877 10.2959 5.23925 9.78597 3.53482Z" fill="url(#paint0_linear_83_8462)"/>
<path d="M20.2462 26.8344C20.1808 26.8712 19.9722 26.4048 19.7848 26.4252C19.5403 26.4515 19.2354 26.3662 18.9909 26.3413C18.1461 26.256 17.3 26.182 16.4535 26.1181C14.1017 25.9407 11.739 25.8327 9.37991 25.8803C7.739 25.9135 6.07312 26.0006 4.46396 26.344C3.46997 26.5558 2.16205 26.8711 1.55414 27.7749C1.55414 27.7749 2.92375 22.2587 1.94292 18.0097C0.962547 13.7606 -0.344915 2.32138 2.27003 1.99428C3.91367 1.78877 5.15263 5.61138 5.58135 6.67478C6.71824 9.49478 7.60834 12.5089 8.41451 15.4714C8.43719 15.554 8.46032 15.6388 8.51068 15.7082C8.9521 16.3188 10.4846 16.5611 11.0762 16.1528C11.5716 15.8107 11.6941 15.1434 11.7748 14.5464C11.9182 13.4871 12.0615 12.4277 12.2049 11.3684C12.5456 8.85148 12.8886 6.3182 12.8278 3.77176C12.811 3.07266 12.0144 -0.487734 13.7097 0.360171C16.5578 1.78423 18.182 5.72298 18.9727 8.54978C20.0416 12.3692 20.081 16.4563 20.2285 20.395C20.2961 22.2006 20.3864 24.0312 20.2689 25.8368C20.2457 26.1902 20.3401 26.7822 20.2462 26.8344Z" fill="url(#paint1_linear_83_8462)"/>
<path d="M19.1492 25.6832C18.2723 25.0757 17.0977 25.0031 16.0792 24.7995C14.5454 24.4923 12.9979 24.2365 11.435 24.1421C7.98941 23.9334 4.19991 24.5654 1.88438 27.3685C1.06823 28.3562 0.494342 29.5389 0.206716 30.7865C-0.11675 32.191 0.144109 33.0983 0.591426 34.4253C1.00154 35.6416 1.53688 36.9586 2.19833 38.06C2.91558 39.2541 4.0629 40.288 5.50557 40.2671C7.06846 40.2444 8.59597 39.6329 9.63986 38.4479C9.69476 38.3858 9.75101 38.32 9.82813 38.2887C9.92023 38.2515 10.0241 38.271 10.1203 38.2932C12.2212 38.7746 14.3272 40.1483 16.2652 41.0769C17.1916 41.5206 17.7211 41.6558 18.6592 41.1631C19.8297 40.5484 20.9444 39.7926 21.8109 38.7941C24.3737 35.8407 23.3969 31.6448 21.5233 28.5993C20.9317 27.638 20.199 26.5238 19.3125 25.8061C19.2595 25.7621 19.205 25.7218 19.1492 25.6832Z" fill="url(#paint2_linear_83_8462)"/>
<defs>
<linearGradient id="paint0_linear_83_8462" x1="12.4537" y1="19.2624" x2="-1.23396" y2="-14.1898" gradientUnits="userSpaceOnUse">
<stop offset="0.1599" stop-color="#BFAB8D"/>
<stop offset="0.5078" stop-color="#E7E1D2"/>
<stop offset="0.7297" stop-color="#CCBFA6"/>
</linearGradient>
<linearGradient id="paint1_linear_83_8462" x1="1.4062" y1="16.2829" x2="19.0952" y2="12.9275" gradientUnits="userSpaceOnUse">
<stop offset="0.1599" stop-color="#BFAB8D"/>
<stop offset="0.5078" stop-color="#E7E1D2"/>
<stop offset="0.7297" stop-color="#CCBFA6"/>
</linearGradient>
<linearGradient id="paint2_linear_83_8462" x1="28.6207" y1="32.7518" x2="-25.8403" y2="32.89" gradientUnits="userSpaceOnUse">
<stop stop-color="#FCFCFC"/>
<stop offset="1" stop-color="#CDCAC5"/>
</linearGradient>
</defs>
</svg>
