<svg width="20" height="51" viewBox="0 0 20 51" fill="none" xmlns="http://www.w3.org/2000/svg">
<path d="M16.0517 20.7153C15.2487 25.9714 13.8328 31.2235 11.9895 36.2034C9.96344 41.6763 7.43196 47.1498 2.51053 50.5795C2.39122 50.6625 2.26329 50.7487 2.11811 50.756C1.97022 50.7632 1.83093 50.6866 1.71252 50.5976C1.03428 50.0909 0.785222 49.1659 0.855088 48.3221C0.924953 47.4783 1.26157 46.6839 1.55555 45.89C3.34937 41.0476 3.78716 35.7184 4.29845 30.617C4.62237 27.3873 5.39044 23.4286 4.62918 20.209C3.81166 16.7534 15.545 20.1015 16.0517 20.7153Z" fill="url(#paint0_linear_83_8505)"/>
<path d="M5.91303 0.733525C6.63977 0.405935 7.39781 0.398226 8.41034 0.646867C8.68434 0.714019 8.97649 0.818378 9.12528 1.05794C9.82208 2.17774 4.103 4.32794 3.41936 3.38827C3.01471 2.82928 4.54031 1.71357 4.85967 1.43634C5.22032 1.12282 5.56327 0.890967 5.91303 0.733525Z" fill="#D8D6D0"/>
<path d="M15.8508 0.920178C16.1884 1.0218 16.4451 1.13068 16.5531 1.2255C17.0993 1.70548 17.6669 2.2163 17.9114 2.90089C18.0094 3.17536 18.0198 3.54328 17.7703 3.6939C17.6859 3.74471 17.5852 3.76014 17.4872 3.76831C16.3426 3.86222 15.0184 3.1182 14.0503 2.58695C13.6919 2.39052 12.1508 1.68143 12.2211 1.12387C12.3281 0.278691 14.6237 0.551346 15.8508 0.920178Z" fill="#D8D6D0"/>
<path d="M17.8683 3.02678C17.8683 3.02678 20.1562 4.6609 18.8487 8.91001C18.195 14.7932 16.2338 20.6765 16.2338 20.6765C16.2338 20.6765 15.58 21.6569 11.0044 21.6569C6.4287 21.6569 5.12125 21.0031 4.46752 19.6956C3.81379 18.3882 2.17969 5.96794 2.17969 5.96794C2.17969 5.96794 2.50632 3.02632 3.81378 2.69968C5.12124 2.37303 6.42871 2.04593 6.75534 2.04593C7.08198 2.04593 10.0236 0.0846989 11.331 0.411797C12.6389 0.738442 15.9071 3.35342 17.8683 3.02678Z" fill="url(#paint1_linear_83_8505)"/>
<defs>
<linearGradient id="paint0_linear_83_8505" x1="12.8232" y1="34.6825" x2="2.4567" y2="34.72" gradientUnits="userSpaceOnUse">
<stop stop-color="#BFAB8D"/>
<stop offset="0.5078" stop-color="#E7E1D2"/>
<stop offset="1" stop-color="#CCBFA6"/>
</linearGradient>
<linearGradient id="paint1_linear_83_8505" x1="22.8863" y1="10.9731" x2="-12.1616" y2="11.0997" gradientUnits="userSpaceOnUse">
<stop stop-color="#FCFCFC"/>
<stop offset="1" stop-color="#CDCAC5"/>
</linearGradient>
</defs>
</svg>
