<svg width="19" height="53" viewBox="0 0 19 53" fill="none" xmlns="http://www.w3.org/2000/svg">
<path d="M15.5128 21.6729C15.5128 21.6729 9.30302 47.1668 4.07317 51.4154C-1.15622 55.6645 1.45824 47.1664 1.45824 47.1664C1.45824 47.1664 3.41944 31.478 3.41944 28.5364C3.41944 25.5948 2.37964 20.0859 2.37964 20.0859C2.37964 20.0859 12.4519 22.2549 15.5128 21.6729Z" fill="url(#paint0_linear_83_8497)"/>
<path d="M15.8368 2.3876C15.8368 2.3876 19.105 4.02168 18.1246 8.59729C17.1443 13.1729 17.4709 15.7878 17.4709 15.7878C17.4709 15.7878 16.8172 23.632 11.2611 23.9587C5.70461 24.2853 2.10974 21.0171 1.78264 19.056C1.456 17.0948 1.45599 11.5388 1.1289 10.558C0.80226 9.57764 -0.178571 3.3675 3.0901 2.38715C6.35833 1.40679 8.31953 1.0797 8.31953 1.0797C8.31953 1.0797 11.5878 0.0997945 15.8368 2.3876Z" fill="url(#paint1_linear_83_8497)"/>
<defs>
<linearGradient id="paint0_linear_83_8497" x1="2.25366" y1="36.3464" x2="13.81" y2="36.3881" gradientUnits="userSpaceOnUse">
<stop stop-color="#BFAB8D"/>
<stop offset="0.5078" stop-color="#E7E1D2"/>
<stop offset="1" stop-color="#CCBFA6"/>
</linearGradient>
<linearGradient id="paint1_linear_83_8497" x1="-2.54672" y1="12.3801" x2="26.6206" y2="12.4854" gradientUnits="userSpaceOnUse">
<stop stop-color="#FCFCFC"/>
<stop offset="1" stop-color="#CDCAC5"/>
</linearGradient>
</defs>
</svg>
