<svg width="18" height="67" viewBox="0 0 18 67" fill="none" xmlns="http://www.w3.org/2000/svg">
<path d="M15.5259 26.8871C13.6209 26.8771 11.6865 26.7016 9.78466 26.5491C7.48137 26.3645 4.24713 26.4775 2.14391 25.3769C1.95155 25.2762 1.88803 24.9336 1.7111 24.8125C1.30869 26.1617 1.65304 28.3239 1.73243 29.7053C1.95972 33.6544 2.13439 37.6108 2.09628 41.5672C2.07496 43.7511 1.95337 45.9197 1.75693 48.0941C1.48564 51.0969 0.471677 54.0284 0.198567 57.0621C0.00711729 59.1893 0.0393342 61.3519 0.454444 63.4524C0.585101 64.1129 0.775176 65.8255 1.34816 65.9834C2.10398 66.1911 3.24406 65.0289 3.62379 64.5167C4.87955 62.8236 5.20165 60.5308 5.84405 58.5691C6.56267 56.3734 7.40469 54.2203 8.2644 52.0768C9.94162 47.8953 11.7055 43.7248 12.7857 39.3384C13.4167 36.7756 13.6976 34.1503 14.2901 31.578C14.653 30.002 15.0804 28.4414 15.5259 26.8871Z" fill="url(#paint0_linear_83_8491)"/>
<path d="M17.7205 8.13565C17.7205 8.13565 18.6991 2.90572 16.4103 1.2725C14.1215 -0.360713 13.1416 0.293489 13.1416 0.293489C12.1953 0.552081 11.2444 0.794339 10.2917 1.02707C8.72288 1.40997 7.02934 1.95891 5.40339 1.91672C5.07766 1.9081 4.75102 1.8718 4.4271 1.90447C2.00406 2.14673 1.61072 4.72722 1.24688 6.61767C0.780057 9.04163 0.451156 11.4978 0.256986 13.959C0.0968409 15.991 0.0192539 18.0461 0.190287 20.0804C0.314138 21.5539 0.520562 23.237 1.38571 24.4855C2.59428 26.2299 4.81044 27.0224 6.79207 27.4784C9.3072 28.0573 11.9503 28.1934 14.5226 28.0849C15.9212 28.0255 16.3109 24.9088 16.389 23.9198C16.8041 18.6549 17.2455 13.3946 17.7205 8.13565Z" fill="url(#paint1_linear_83_8491)"/>
<defs>
<linearGradient id="paint0_linear_83_8491" x1="10.8979" y1="45.3727" x2="1.81606" y2="45.4093" gradientUnits="userSpaceOnUse">
<stop stop-color="#BFAB8D"/>
<stop offset="0.5078" stop-color="#E7E1D2"/>
<stop offset="1" stop-color="#CCBFA6"/>
</linearGradient>
<linearGradient id="paint1_linear_83_8491" x1="22.4789" y1="14.1043" x2="-15.5894" y2="14.2576" gradientUnits="userSpaceOnUse">
<stop stop-color="#FCFCFC"/>
<stop offset="1" stop-color="#CDCAC5"/>
</linearGradient>
</defs>
</svg>
