<svg width="17" height="64" viewBox="0 0 17 64" fill="none" xmlns="http://www.w3.org/2000/svg">
<path d="M14.4161 23.0859C14.4161 23.0859 6.24515 27.0079 3.95732 23.7397C4.04715 26.9512 4.10249 30.1646 4.14468 33.377C4.22452 39.4857 4.25674 45.6003 4.07845 51.7076C4.01584 53.8526 3.96594 56.0003 3.76088 58.1375C3.65654 59.2263 3.51273 60.312 3.30722 61.3863C3.2124 61.8808 2.92842 62.4633 3.15752 62.9147C3.46238 63.5149 4.24994 63.651 4.80023 63.3806C5.57463 62.9995 6.08363 62.0622 6.46789 61.3386C7.39472 59.5929 7.99266 57.6634 8.53343 55.7707C11.8016 44.3309 13.9125 26.6019 14.4161 23.0859Z" fill="url(#paint0_linear_83_8485)"/>
<path d="M15.6736 0.648898C14.901 0.252388 13.6975 0.497371 12.8509 0.490113C11.2803 0.476956 9.70974 0.481484 8.13961 0.526852C6.38529 0.577663 3.94592 0.377143 2.32361 1.18831C0.765728 1.96727 0.600154 3.91308 0.647335 5.4415C0.834245 11.4794 1.22304 17.8336 3.65832 23.4469C4.37148 25.0905 5.36682 26.7491 6.9247 27.7164C9.33866 29.2153 12.1019 28.3465 13.4779 25.9466C14.5794 24.0257 15.0031 21.8114 15.234 19.6392C15.4087 17.9946 15.2994 16.3378 15.416 14.6901C15.5389 12.9534 16.0511 11.2685 16.331 9.55222C16.7733 6.83835 17.3086 4.00653 16.2974 1.353C16.1677 1.01093 15.9476 0.789536 15.6736 0.648898Z" fill="url(#paint1_linear_83_8485)"/>
<defs>
<linearGradient id="paint0_linear_83_8485" x1="1.77722" y1="43.2725" x2="11.0102" y2="43.3059" gradientUnits="userSpaceOnUse">
<stop stop-color="#BFAB8D"/>
<stop offset="0.5078" stop-color="#E7E1D2"/>
<stop offset="1" stop-color="#CCBFA6"/>
</linearGradient>
<linearGradient id="paint1_linear_83_8485" x1="-2.07308" y1="14.3888" x2="26.9181" y2="14.4935" gradientUnits="userSpaceOnUse">
<stop stop-color="#FCFCFC"/>
<stop offset="1" stop-color="#CDCAC5"/>
</linearGradient>
</defs>
</svg>
