<svg width="16" height="66" viewBox="0 0 16 66" fill="none" xmlns="http://www.w3.org/2000/svg">
<path d="M2.35849 24.6055C2.35804 32.1395 0.823312 39.6195 0.473088 47.1481C0.330186 50.2167 0.0938352 53.2844 0.138294 56.3584C0.173225 58.795 -0.0132326 62.8585 1.50607 64.9336C2.14936 65.8101 4.0529 61.9081 4.23482 61.5334C5.37395 59.1875 6.08165 56.6937 6.96175 54.2457C7.93212 51.5459 8.92157 48.8294 9.71684 46.0711C10.7779 42.391 11.3827 38.5579 12.0586 34.793C12.1643 34.2032 13.088 26.6215 13.4709 26.5671C13.4677 26.5671 4.3192 27.8732 2.35849 24.6055Z" fill="url(#paint0_linear_83_8479)"/>
<path d="M14.9679 0.566791C14.8191 0.431144 14.5564 0.402573 14.0701 0.361743C13.3261 0.299591 12.553 0.354025 11.8072 0.355386C8.76718 0.361283 5.72716 0.421165 2.68714 0.421165C2.68714 0.421165 -0.254445 1.07491 0.0721954 2.70902C0.398836 4.34313 1.37967 24.6076 2.36005 25.9146C3.34042 27.2216 5.62826 31.4711 10.531 30.1636C15.4334 28.8561 14.453 17.4174 14.453 17.4169C14.3237 15.345 14.8445 13.0504 14.9856 10.9789C15.1952 7.90396 15.3744 4.80224 15.1984 1.72093C15.1603 1.04587 15.1462 0.729658 14.9679 0.566791Z" fill="url(#paint1_linear_83_8479)"/>
<defs>
<linearGradient id="paint0_linear_83_8479" x1="12.3899" y1="44.7961" x2="-3.91506" y2="44.855" gradientUnits="userSpaceOnUse">
<stop stop-color="#BFAB8D"/>
<stop offset="0.5078" stop-color="#E7E1D2"/>
<stop offset="1" stop-color="#CCBFA6"/>
</linearGradient>
<linearGradient id="paint1_linear_83_8479" x1="17.5249" y1="15.348" x2="-11.2341" y2="15.4519" gradientUnits="userSpaceOnUse">
<stop stop-color="#FCFCFC"/>
<stop offset="1" stop-color="#CDCAC5"/>
</linearGradient>
</defs>
</svg>
