<svg width="16" height="66" viewBox="0 0 16 66" fill="none" xmlns="http://www.w3.org/2000/svg">
<path d="M12.9717 24.7461C12.9722 32.2801 14.5069 39.7601 14.8571 47.2887C15 50.3573 15.2364 53.425 15.1919 56.499C15.157 58.9357 15.3434 62.9992 13.8241 65.0742C13.1808 65.9507 11.2773 62.0487 11.0954 61.674C9.95624 59.3281 9.24854 56.8343 8.36844 54.3863C7.39807 51.6866 6.40865 48.97 5.61339 46.2117C4.55228 42.5316 3.94755 38.6986 3.2716 34.9336C3.1659 34.3438 2.24226 26.7622 1.85938 26.7077C1.86255 26.7077 11.011 28.0138 12.9717 24.7461Z" fill="url(#paint0_linear_83_8476)"/>
<path d="M0.364436 0.703509C0.513243 0.567863 0.775926 0.539292 1.26227 0.498462C2.00631 0.43631 2.77937 0.490743 3.52522 0.492104C6.56534 0.498002 9.60546 0.557884 12.6456 0.557884C12.6456 0.557884 15.5872 1.21161 15.2606 2.84572C14.9339 4.47983 13.9531 24.7442 12.9727 26.0517C11.9923 27.3592 9.70434 31.6082 4.80142 30.3007C-0.101048 28.9933 0.879368 17.5545 0.879368 17.5541C1.00867 15.4822 0.487831 13.1875 0.346736 11.1161C0.137136 8.04113 -0.042065 4.93941 0.133963 1.8581C0.172072 1.18259 0.18614 0.866376 0.364436 0.703509Z" fill="url(#paint1_linear_83_8476)"/>
<defs>
<linearGradient id="paint0_linear_83_8476" x1="2.94022" y1="44.9367" x2="19.2451" y2="44.9956" gradientUnits="userSpaceOnUse">
<stop stop-color="#BFAB8D"/>
<stop offset="0.5078" stop-color="#E7E1D2"/>
<stop offset="1" stop-color="#CCBFA6"/>
</linearGradient>
<linearGradient id="paint1_linear_83_8476" x1="-2.19273" y1="15.4847" x2="26.5671" y2="15.5886" gradientUnits="userSpaceOnUse">
<stop stop-color="#FCFCFC"/>
<stop offset="1" stop-color="#CDCAC5"/>
</linearGradient>
</defs>
</svg>
