<svg width="18" height="64" viewBox="0 0 18 64" fill="none" xmlns="http://www.w3.org/2000/svg">
<path d="M3.28125 23.0859C3.28125 23.0859 11.4521 27.0079 13.7398 23.7397C13.65 26.9512 13.5947 30.1646 13.5525 33.377C13.4726 39.4857 13.4404 45.6003 13.6187 51.7076C13.6813 53.8526 13.7312 56.0003 13.9363 58.1375C14.0406 59.2263 14.1844 60.312 14.3899 61.3863C14.4843 61.8808 14.7687 62.4633 14.5396 62.9147C14.2348 63.5149 13.4472 63.651 12.897 63.3806C12.1226 62.9995 11.6135 62.0622 11.2293 61.3386C10.3025 59.5929 9.70457 57.6634 9.16381 55.7707C5.89612 44.3309 3.78526 26.6019 3.28125 23.0859Z" fill="url(#paint0_linear_83_8482)"/>
<path d="M2.02132 0.648898C2.79393 0.252388 3.99753 0.497371 4.84409 0.490113C6.41473 0.476956 7.98537 0.481484 9.55555 0.526852C11.3099 0.577663 13.7494 0.377143 15.3717 1.18831C16.9296 1.96727 17.0952 3.91308 17.048 5.4415C16.8611 11.4794 16.4723 17.8336 14.037 23.4469C13.3238 25.0905 12.3284 26.7491 10.7705 27.7164C8.35646 29.2153 5.59312 28.3465 4.21712 25.9466C3.11559 24.0257 2.69185 21.8114 2.46093 19.6392C2.28626 17.9946 2.39559 16.3378 2.27899 14.6901C2.15605 12.9534 1.64385 11.2685 1.36393 9.55222C0.921592 6.83835 0.386262 4.00653 1.39751 1.353C1.52726 1.01093 1.74684 0.789536 2.02132 0.648898Z" fill="url(#paint1_linear_83_8482)"/>
<defs>
<linearGradient id="paint0_linear_83_8482" x1="15.9203" y1="43.2725" x2="6.68742" y2="43.3059" gradientUnits="userSpaceOnUse">
<stop stop-color="#BFAB8D"/>
<stop offset="0.5078" stop-color="#E7E1D2"/>
<stop offset="1" stop-color="#CCBFA6"/>
</linearGradient>
<linearGradient id="paint1_linear_83_8482" x1="19.7684" y1="14.3888" x2="-9.2236" y2="14.4935" gradientUnits="userSpaceOnUse">
<stop stop-color="#FCFCFC"/>
<stop offset="1" stop-color="#CDCAC5"/>
</linearGradient>
</defs>
</svg>
