<svg width="19" height="67" viewBox="0 0 19 67" fill="none" xmlns="http://www.w3.org/2000/svg">
<path d="M3.09375 27.4301C4.99872 27.4201 6.93319 27.2445 8.83498 27.0921C11.1383 26.9075 14.3725 27.0204 16.4757 25.9198C16.6681 25.8191 16.7316 25.4766 16.9085 25.3555C17.3109 26.7047 16.9666 28.8668 16.8872 30.2482C16.6599 34.1974 16.4852 38.1538 16.5233 42.1102C16.5447 44.2941 16.6663 46.4626 16.8627 48.637C17.134 51.6398 18.148 54.5714 18.4211 57.605C18.6125 59.7323 18.5803 61.8949 18.1652 63.9953C18.0345 64.6559 17.8445 66.3684 17.2715 66.5263C16.5156 66.7341 15.3756 65.5718 14.9958 65.0596C13.7401 63.3666 13.418 61.0738 12.7756 59.1121C12.057 56.9164 11.2149 54.7633 10.3548 52.6197C8.67756 48.4383 6.91367 44.2678 5.83348 39.8813C5.20242 37.3186 4.92159 34.6932 4.3291 32.121C3.96707 30.5449 3.53926 28.9843 3.09375 27.4301Z" fill="url(#paint0_linear_83_8488)"/>
<path d="M0.903227 8.67862C0.903227 8.67862 -0.0753401 3.44869 2.21347 1.81547C4.50227 0.182255 5.48221 0.836457 5.48221 0.836457C6.42858 1.09505 7.37948 1.33731 8.3322 1.57004C9.90102 1.95294 11.5946 2.50188 13.2206 2.45968C13.5463 2.45106 13.873 2.41477 14.1969 2.44743C16.62 2.6897 17.0133 5.27019 17.3772 7.16063C17.844 9.5846 18.173 12.0408 18.3671 14.5019C18.5273 16.5339 18.6053 18.5891 18.4338 20.6233C18.3095 22.0969 18.1035 23.78 17.2384 25.0285C16.0293 26.7729 13.8135 27.5654 11.8319 28.0214C9.31669 28.6002 6.67357 28.7363 4.10121 28.6279C2.70252 28.5685 2.31281 25.4518 2.23478 24.4628C1.82011 19.1979 1.37868 13.9376 0.903227 8.67862Z" fill="url(#paint1_linear_83_8488)"/>
<defs>
<linearGradient id="paint0_linear_83_8488" x1="7.72196" y1="45.9156" x2="16.8038" y2="45.9522" gradientUnits="userSpaceOnUse">
<stop stop-color="#BFAB8D"/>
<stop offset="0.5078" stop-color="#E7E1D2"/>
<stop offset="1" stop-color="#CCBFA6"/>
</linearGradient>
<linearGradient id="paint1_linear_83_8488" x1="-3.85504" y1="14.6473" x2="34.2141" y2="14.8006" gradientUnits="userSpaceOnUse">
<stop stop-color="#FCFCFC"/>
<stop offset="1" stop-color="#CDCAC5"/>
</linearGradient>
</defs>
</svg>
