<svg width="19" height="53" viewBox="0 0 19 53" fill="none" xmlns="http://www.w3.org/2000/svg">
<path d="M3.71094 21.6729C3.71094 21.6729 9.92071 47.1668 15.1506 51.4154C20.3799 55.6645 17.7655 47.1664 17.7655 47.1664C17.7655 47.1664 15.8043 31.478 15.8043 28.5364C15.8043 25.5948 16.8441 20.0859 16.8441 20.0859C16.8441 20.0859 6.77181 22.2549 3.71094 21.6729Z" fill="url(#paint0_linear_83_8494)"/>
<path d="M3.38535 2.3876C3.38535 2.3876 0.117146 4.02168 1.09752 8.59729C2.0779 13.1729 1.75124 15.7878 1.75124 15.7878C1.75124 15.7878 2.40497 23.632 7.96104 23.9587C13.5176 24.2853 17.1124 21.0171 17.4395 19.056C17.7662 17.0948 17.7662 11.5388 18.0933 10.558C18.4199 9.57764 19.4007 3.3675 16.1321 2.38715C12.8638 1.40679 10.9026 1.0797 10.9026 1.0797C10.9026 1.0797 7.63441 0.0997945 3.38535 2.3876Z" fill="url(#paint1_linear_83_8494)"/>
<defs>
<linearGradient id="paint0_linear_83_8494" x1="16.97" y1="36.3464" x2="5.41368" y2="36.3881" gradientUnits="userSpaceOnUse">
<stop stop-color="#BFAB8D"/>
<stop offset="0.5078" stop-color="#E7E1D2"/>
<stop offset="1" stop-color="#CCBFA6"/>
</linearGradient>
<linearGradient id="paint1_linear_83_8494" x1="21.7689" y1="12.3801" x2="-7.39843" y2="12.4854" gradientUnits="userSpaceOnUse">
<stop stop-color="#FCFCFC"/>
<stop offset="1" stop-color="#CDCAC5"/>
</linearGradient>
</defs>
</svg>
