<svg width="20" height="51" viewBox="0 0 20 51" fill="none" xmlns="http://www.w3.org/2000/svg">
<path d="M4.03125 20.8207C4.83424 26.0769 6.2501 31.3289 8.09334 36.3088C10.1194 41.7818 12.6509 47.2552 17.5722 50.6849C17.6915 50.7679 17.8194 50.8541 17.9646 50.8614C18.1125 50.8686 18.2518 50.792 18.3702 50.703C19.0484 50.1963 19.2975 49.2708 19.2276 48.4275C19.1578 47.5836 18.8211 46.7893 18.5272 45.9954C16.7334 41.153 16.2956 35.8238 15.7843 30.7224C15.4604 27.4928 14.6923 23.5341 15.4536 20.3145C16.2711 16.8589 4.53799 20.2069 4.03125 20.8207Z" fill="url(#paint0_linear_83_8500)"/>
<path d="M14.1698 0.83899C13.443 0.511413 12.6849 0.503692 11.6722 0.752325C11.3982 0.819474 11.1061 0.92383 10.9573 1.16339C10.2599 2.28314 15.98 4.43327 16.6632 3.49364C17.0679 2.93467 15.5422 1.819 15.2228 1.54179C14.8626 1.22827 14.5196 0.996881 14.1698 0.83899Z" fill="#D8D6D0"/>
<path d="M4.2343 1.02565C3.8968 1.12727 3.64005 1.23615 3.53208 1.33096C2.98591 1.81095 2.4184 2.32178 2.17389 3.00637C2.07591 3.28084 2.06549 3.64876 2.31499 3.79938C2.39936 3.85019 2.50006 3.86561 2.59804 3.87378C3.74255 3.96769 5.06671 3.22367 6.03476 2.69242C6.39313 2.49599 7.9341 1.7869 7.86379 1.22934C7.75673 0.38416 5.46137 0.656815 4.2343 1.02565Z" fill="#D8D6D0"/>
<path d="M2.21985 3.13221C2.21985 3.13221 -0.0679472 4.76632 1.2395 9.01538C1.89322 14.8985 3.8544 20.7817 3.8544 20.7817C3.8544 20.7817 4.50812 21.7621 9.08374 21.7621C13.6593 21.7621 14.9668 21.1084 15.6205 19.8009C16.2742 18.4934 17.9083 6.07334 17.9083 6.07334C17.9083 6.07334 17.5817 3.13175 16.2742 2.80511C14.9668 2.47847 13.6594 2.15138 13.3327 2.15138C13.0061 2.15138 10.0645 0.190171 8.75709 0.517266C7.44919 0.84436 4.18102 3.45885 2.21985 3.13221Z" fill="url(#paint1_linear_83_8500)"/>
<defs>
<linearGradient id="paint0_linear_83_8500" x1="7.25969" y1="34.788" x2="17.626" y2="34.8255" gradientUnits="userSpaceOnUse">
<stop stop-color="#BFAB8D"/>
<stop offset="0.5078" stop-color="#E7E1D2"/>
<stop offset="1" stop-color="#CCBFA6"/>
</linearGradient>
<linearGradient id="paint1_linear_83_8500" x1="-2.79808" y1="11.0785" x2="32.2495" y2="11.2051" gradientUnits="userSpaceOnUse">
<stop stop-color="#FCFCFC"/>
<stop offset="1" stop-color="#CDCAC5"/>
</linearGradient>
</defs>
</svg>
