<svg width="26" height="51" viewBox="0 0 26 51" fill="none" xmlns="http://www.w3.org/2000/svg">
<path d="M10.7104 2.20056C10.7104 2.20056 9.80449 0.146358 7.97033 0.660817C6.13617 1.17528 5.5024 5.96918 5.83448 9.50325C6.1661 13.0373 7.73805 24.2502 10.4405 24.4811C13.143 24.712 18.0852 18.3611 15.8368 14.823C13.5885 11.2848 9.86799 5.07455 10.7104 2.20056Z" fill="url(#paint0_linear_83_8453)"/>
<path d="M22.534 32.6513C19.3352 32.4209 15.7054 30.8571 12.5007 30.7305C10.4905 30.6511 8.47942 30.5182 6.46696 30.5826C5.53649 30.6121 4.15237 33.0928 3.25048 32.978C2.66525 32.9036 3.05131 30.5 3.07536 29.8781C3.09577 29.3486 3.14069 28.8215 3.06311 28.2939C2.78456 26.3921 1.7384 24.5865 1.30334 22.6847C0.79977 20.4848 0.459523 18.2423 0.250383 15.9958C0.0285405 13.6127 -0.064907 11.1783 0.246761 8.79832C0.381046 7.77212 0.564326 6.73004 0.971718 5.77234C1.28883 5.02697 2.05779 3.56388 3.04043 3.67594C3.40109 3.71722 3.7241 3.92227 3.99403 4.16589C4.52301 4.64361 4.89139 5.27966 5.13501 5.94973C5.63721 7.33206 5.62632 8.82054 5.72296 10.2687C5.82276 11.7617 6.2297 13.1445 6.56451 14.5935C7.18603 17.286 7.92005 20.4549 9.6839 22.662C10.1131 23.1991 10.7582 23.6338 11.4428 23.5689C11.7939 23.5353 12.1219 23.3738 12.4086 23.1683C13.4416 22.4275 13.967 21.149 14.1462 19.8905C14.5132 17.3119 14.2369 14.4674 13.5478 11.9677C13.1436 10.5005 12.3968 9.18666 11.9404 7.75215C11.4582 6.23554 10.804 3.2268 12.9421 2.64928C13.805 2.41609 14.7237 2.85706 15.3688 3.47586C17.7605 5.76916 19.376 9.17849 20.7592 12.1346C21.6076 13.947 22.4265 15.8207 22.9486 17.7578C23.2626 18.9224 23.229 20.0829 23.1959 21.2856C23.1029 24.6477 22.9073 29.3182 22.534 32.6513Z" fill="url(#paint1_linear_83_8453)"/>
<path d="M3.59132 34.8185C3.31912 34.9015 2.92897 35.641 2.77789 35.8538C2.1795 36.6981 1.66141 37.6067 1.27352 38.5676C0.228263 41.1567 0.379791 43.9966 2.34056 46.1171C2.3637 46.142 2.38729 46.167 2.41043 46.1919C2.51613 46.3031 2.62637 46.4115 2.71257 46.538C2.95437 46.8933 3.01199 47.3383 3.24109 47.7026C3.45749 48.0469 3.77552 48.369 4.08356 48.629C4.80898 49.2414 5.77531 49.667 6.74027 49.5717C7.0719 49.539 7.3881 49.4211 7.69978 49.304C9.05308 48.7959 10.5225 48.2166 11.2402 46.8729C11.1586 47.0262 11.531 47.65 11.6249 47.777C11.85 48.0828 12.1258 48.2157 12.4738 48.35C13.6229 48.7941 14.8737 49.1507 15.9752 49.7015C16.7365 49.9945 17.3789 50.2731 18.1533 50.019C18.6042 49.8711 19.0611 49.7414 19.507 49.5781C20.3418 49.2727 21.7305 48.7383 21.7305 47.6554C21.7305 45.981 23.126 40.958 19.777 35.935C16.4293 30.9138 3.60176 34.8154 3.59132 34.8185Z" fill="#D8D6D0"/>
<path d="M3.57463 30.6913C3.2557 30.7884 2.7984 31.6549 2.62192 31.904C1.921 32.8929 1.31444 33.9572 0.859866 35.0823C-0.364589 38.1151 -0.186749 41.4409 2.10927 43.9242C2.13649 43.9532 2.16417 43.9827 2.19139 44.0118C2.31524 44.142 2.44409 44.269 2.54526 44.4173C2.8288 44.8338 2.89594 45.3541 3.16406 45.7815C3.4172 46.1843 3.78967 46.5618 4.15079 46.8667C5.00051 47.5839 6.13242 48.082 7.26206 47.9709C7.6504 47.9328 8.0206 47.7944 8.3858 47.6574C9.97092 47.0626 11.6921 46.3835 12.5328 44.8097C12.4371 44.9889 12.8735 45.7198 12.9833 45.869C13.2469 46.227 13.5703 46.3826 13.9773 46.54C15.3233 47.0604 16.7882 47.4777 18.0785 48.1228C18.9699 48.4663 19.7221 48.7925 20.6294 48.4948C21.1575 48.3216 21.6928 48.1696 22.215 47.9786C23.1927 47.6211 24.8195 46.995 24.8195 45.7266C24.8195 43.7654 26.4537 37.8823 22.5317 31.9992C18.6111 26.1179 3.58733 30.6877 3.57463 30.6913Z" fill="url(#paint2_linear_83_8453)"/>
<defs>
<linearGradient id="paint0_linear_83_8453" x1="14.2199" y1="23.4547" x2="-4.34223" y2="-21.9106" gradientUnits="userSpaceOnUse">
<stop offset="0.1599" stop-color="#BFAB8D"/>
<stop offset="0.5078" stop-color="#E7E1D2"/>
<stop offset="0.7297" stop-color="#CCBFA6"/>
</linearGradient>
<linearGradient id="paint1_linear_83_8453" x1="1.34675" y1="17.4659" x2="22.2572" y2="18.4114" gradientUnits="userSpaceOnUse">
<stop offset="0.1599" stop-color="#BFAB8D"/>
<stop offset="0.5078" stop-color="#E7E1D2"/>
<stop offset="0.7297" stop-color="#CCBFA6"/>
</linearGradient>
<linearGradient id="paint2_linear_83_8453" x1="-5.68149" y1="41.1306" x2="44.3023" y2="35.8814" gradientUnits="userSpaceOnUse">
<stop stop-color="#FCFCFC"/>
<stop offset="1" stop-color="#CDCAC5"/>
</linearGradient>
</defs>
</svg>
