<svg width="29" height="50" viewBox="0 0 29 50" fill="none" xmlns="http://www.w3.org/2000/svg">
<path d="M9.30519 0.368085C7.99227 0.457458 6.97878 0.842623 5.90086 1.58301C5.60916 1.78353 5.33287 2.02534 5.39049 2.31206C5.65906 3.65128 15.5345 2.57518 15.4397 1.40063C15.3807 0.702893 12.1692 0.515983 11.4501 0.438406C10.6385 0.350848 9.93715 0.324987 9.30519 0.368085Z" fill="#D8D6D0"/>
<path d="M19.4688 45.738C20.1443 47.902 18.5493 48.7848 17.0676 47.5028C14.2032 45.0239 12.5455 41.0474 11.0874 37.4049C10.4124 35.7181 7.51393 29.7868 9.03914 28.3532C10.5526 26.9309 16.4851 29.6394 16.7891 33.4457C16.9542 35.5104 17.0231 37.5809 17.3784 39.6465C17.7649 41.8917 18.807 43.618 19.4688 45.738Z" fill="url(#paint0_linear_83_8510)"/>
<path d="M2.69375 20.4657C2.88157 21.2401 3.04807 22.0281 3.08482 22.1806C3.40012 23.4885 3.67367 24.8068 3.89325 26.1342C4.07244 27.2189 4.2158 28.3096 4.32241 29.4042C4.42585 30.4649 4.33558 31.6326 4.53746 32.6724C4.73662 33.6973 5.10182 34.7724 5.44706 35.7623C6.48369 38.7352 8.05384 41.5016 9.91842 44.0304C10.8539 45.2988 11.8656 46.5106 12.9335 47.6697C13.5895 48.3819 14.9841 50.4906 16.1432 49.6145C16.5783 49.2856 16.7529 48.699 16.7248 48.1542C16.6967 47.6093 16.4971 47.0904 16.3079 46.5786C14.8507 42.6304 13.4652 37.7417 14.2845 33.5058C14.3698 33.0644 14.5032 32.6085 14.8199 32.2896C15.235 31.8717 15.8996 31.7778 16.4676 31.9343C17.0356 32.0908 17.5201 32.4624 17.9429 32.8725C19.3942 34.2811 20.4254 36.2614 21.3123 38.0624C21.9837 39.4261 22.4769 40.8792 22.7604 42.3731C23.0317 43.8031 22.8012 45.5025 23.3756 46.8445C23.6972 47.5962 24.4145 48.2413 25.232 48.2177C25.8685 48.1996 26.432 47.7899 26.8516 47.3108C28.3977 45.5456 28.6939 42.7329 28.7842 40.4823C28.8976 37.646 28.4939 34.8196 28.0543 32.0255C27.4559 28.2216 26.6869 24.4434 25.8281 20.6903C25.795 20.5446 25.3277 18.177 25.2334 18.1797C25.2334 18.1797 2.35849 18.8144 2.14844 18.8203C2.26594 18.818 2.49232 19.6341 2.69375 20.4657Z" fill="url(#paint1_linear_83_8510)"/>
<path d="M20.5908 0.194066C19.405 0.126477 18.4396 0.385494 17.3603 0.987449C17.0681 1.1503 16.7833 1.35624 16.7892 1.6452C16.8159 2.99699 25.7998 3.10813 25.9019 1.93914C25.9599 1.2442 23.1236 0.678981 22.4944 0.517038C21.7835 0.335137 21.1615 0.226727 20.5908 0.194066Z" fill="#D8D6D0"/>
<path d="M4.64863 1.24393C3.69548 1.3392 2.79768 1.70622 2.02418 2.51284C1.02749 3.55219 0.528461 4.99395 0.405065 6.42845C0.140579 9.50613 0.667281 13.1663 1.43624 16.1478C1.68031 17.0942 1.70482 19.083 2.35446 19.8135C4.37599 22.0859 8.81779 20.9803 11.5057 20.7938C14.5843 20.5801 17.8988 20.4781 20.657 19.8135C22.483 19.7218 25.836 20.126 26.3904 17.7112C27.0255 14.9433 27.4166 12.1129 27.5473 9.27612C27.6453 7.15658 27.9547 1.91945 24.9079 1.5107C24.4619 1.45081 23.7093 1.95348 23.2624 2.0551C22.3302 2.26651 21.4206 2.23792 20.4951 1.99203C19.3568 1.68989 18.2998 1.14549 17.2088 0.702258C16.9715 0.606081 16.7247 0.513078 16.4688 0.519883C15.8859 0.535762 15.4576 1.04069 14.9912 1.39092C13.0282 2.86625 9.50964 2.10092 7.3425 1.53429C6.4329 1.29611 5.51739 1.15728 4.64863 1.24393Z" fill="url(#paint2_linear_83_8510)"/>
<defs>
<linearGradient id="paint0_linear_83_8510" x1="11.7057" y1="27.4448" x2="19.4676" y2="71.7375" gradientUnits="userSpaceOnUse">
<stop offset="0.1599" stop-color="#BFAB8D"/>
<stop offset="0.5078" stop-color="#E7E1D2"/>
<stop offset="0.7297" stop-color="#CCBFA6"/>
</linearGradient>
<linearGradient id="paint1_linear_83_8510" x1="4.73581" y1="33.9462" x2="27.2629" y2="34.0275" gradientUnits="userSpaceOnUse">
<stop stop-color="#BFAB8D"/>
<stop offset="0.5078" stop-color="#E7E1D2"/>
<stop offset="1" stop-color="#CCBFA6"/>
</linearGradient>
<linearGradient id="paint2_linear_83_8510" x1="-5.36751" y1="10.6678" x2="45.1344" y2="11.283" gradientUnits="userSpaceOnUse">
<stop stop-color="#FCFCFC"/>
<stop offset="1" stop-color="#CDCAC5"/>
</linearGradient>
</defs>
</svg>
