<svg width="27" height="49" viewBox="0 0 27 49" fill="none" xmlns="http://www.w3.org/2000/svg">
<path d="M15.9085 42.4647C16.1104 44.4219 14.8405 44.8669 13.9395 43.5032C12.1969 40.8669 11.5246 37.1926 10.9529 33.8386C10.688 32.2857 9.3778 26.7246 10.6699 25.8C11.952 24.8831 15.8817 28.2925 15.5982 31.5671C15.4444 33.3436 15.2203 35.1071 15.2039 36.9204C15.1858 38.8916 15.7107 40.5475 15.9085 42.4647Z" fill="url(#paint0_linear_83_8522)"/>
<path d="M4.28125 20.2028C4.96675 22.1613 5.51929 24.2055 5.83823 26.256C6.05281 27.6361 6.02106 28.8628 5.81147 30.2287C5.45851 32.5243 5.43354 34.9201 5.53244 37.2356C5.68669 40.8472 7.41927 43.5673 8.80434 46.816C9.31336 48.0096 10.4907 48.6361 11.5577 47.5378C12.911 46.145 12.5462 43.2176 12.6002 41.451C12.6737 39.033 12.7227 36.5982 13.2063 34.2187C13.4146 33.1943 13.7072 32.1731 14.2421 31.2749C14.7738 30.3816 15.7564 29.9461 16.6978 30.5894C17.9513 31.4459 18.234 33.3223 18.6668 34.6578C19.0728 35.9104 19.4407 37.1752 19.7959 38.4432C20.2977 40.2338 20.7618 42.0358 21.24 43.8327C21.4382 44.5767 22.0852 46.3242 23.179 45.5648C23.5483 45.308 23.7307 44.8634 23.8845 44.4411C24.3894 43.052 24.7927 41.6288 25.1951 40.2071C25.7345 38.3021 26.2309 36.4026 26.347 34.4188C26.5053 31.714 25.4396 29.0415 24.9188 26.4234C24.3653 23.6411 24.0196 20.8175 23.8872 17.9839C23.8785 17.7975 23.8641 17.5947 23.7384 17.4568C23.5683 17.2708 23.2765 17.2853 23.0266 17.3139C19.9547 17.6659 16.8765 17.9522 13.8079 18.336C11.7314 18.5941 9.65227 18.8672 7.59395 19.2465C6.68615 19.4134 4.98399 19.5001 4.28125 20.2028Z" fill="url(#paint1_linear_83_8522)"/>
<path d="M1.8806 15.957C1.77807 14.7303 1.8062 13.4873 1.57255 12.2755C1.2078 10.3842 0.252811 8.73647 0.388007 6.73262C0.713747 1.90833 7.45586 1.53541 10.8457 2.87146C12.2553 3.42675 12.8337 2.90231 14.0187 2.15376C15.3026 1.3426 16.8175 0.917969 18.3351 0.917969C20.0704 0.917969 21.9853 1.41156 23.4675 2.32343C25.6601 3.67263 25.6583 5.88607 25.8089 8.2093C25.9754 10.7789 25.9165 13.426 25.0667 15.8831C24.8068 16.6353 24.4624 17.3743 23.9207 17.9572C23.1508 18.7861 22.17 18.8954 21.1297 19.135C19.7097 19.4621 18.2738 19.7388 16.8424 20.0096C14.0355 20.5409 11.2023 20.9732 8.34639 21.1166C6.99217 21.1846 5.58987 21.0472 4.38717 20.4207C2.64505 19.5138 2.03485 17.8084 1.8806 15.957Z" fill="url(#paint2_linear_83_8522)"/>
<defs>
<linearGradient id="paint0_linear_83_8522" x1="12.7168" y1="25.5338" x2="10.6073" y2="64.3394" gradientUnits="userSpaceOnUse">
<stop offset="0.1599" stop-color="#BFAB8D"/>
<stop offset="0.5078" stop-color="#E7E1D2"/>
<stop offset="0.7297" stop-color="#CCBFA6"/>
</linearGradient>
<linearGradient id="paint1_linear_83_8522" x1="6.8078" y1="34.094" x2="24.3021" y2="30.6897" gradientUnits="userSpaceOnUse">
<stop stop-color="#BFAB8D"/>
<stop offset="0.5078" stop-color="#E7E1D2"/>
<stop offset="1" stop-color="#CCBFA6"/>
</linearGradient>
<linearGradient id="paint2_linear_83_8522" x1="-3.85414" y1="12.2409" x2="40.8001" y2="9.05129" gradientUnits="userSpaceOnUse">
<stop stop-color="#FCFCFC"/>
<stop offset="1" stop-color="#CDCAC5"/>
</linearGradient>
</defs>
</svg>
