<svg width="25" height="40" viewBox="0 0 25 40" fill="none" xmlns="http://www.w3.org/2000/svg">
<path d="M15.5917 36.9966C15.8866 38.8498 14.7008 39.3407 13.7708 38.089C11.9734 35.6697 11.1401 32.2055 10.4197 29.0412C10.0858 27.5759 8.54655 22.3484 9.72876 21.4002C10.9019 20.4598 14.8228 23.5006 14.7244 26.6345C14.6708 28.3344 14.5502 30.0257 14.6295 31.7537C14.7157 33.6314 15.3023 35.1811 15.5917 36.9966Z" fill="url(#paint0_linear_83_8538)"/>
<path d="M3.11719 13.687C3.11719 13.687 4.42466 17.2823 4.42466 21.2042C4.42466 25.1261 4.09755 30.0289 6.38583 33.6241C8.67367 37.2194 9.32739 38.8535 9.32739 38.8535C9.32739 38.8535 11.2886 41.1413 12.269 38.5269C12.269 38.5269 9.98114 30.6826 11.2886 26.7607C12.5961 22.8387 13.9035 24.1457 14.2302 24.7995C14.5568 25.4532 19.1329 32.9704 19.7867 34.9316C20.4404 36.8928 21.4208 38.8535 22.0745 38.8535C22.7282 38.8535 23.7086 37.2194 24.3623 34.2779C25.016 31.3363 24.3623 28.0681 23.0549 25.7803C21.7474 23.4925 20.4404 13.3603 20.4404 11.7263C20.44 10.0917 4.75129 13.0333 3.11719 13.687Z" fill="url(#paint1_linear_83_8538)"/>
<path d="M10.6702 3.4185C10.3598 3.34501 10.0386 3.14222 9.66571 2.89678C8.65313 2.22944 7.60154 1.58569 6.43335 1.26132C5.26471 0.936945 3.94998 0.965071 2.91018 1.58887C2.17887 2.02756 1.63721 2.72258 1.19126 3.44936C0.493523 4.58671 -0.0213959 5.90824 0.138748 7.23295C0.321121 8.74367 0.920425 10.2312 1.53514 11.6113C1.90805 12.4483 2.21881 13.4033 2.89069 14.0584C3.67462 14.8224 4.99254 14.9299 6.02554 15.0746C8.24759 15.3854 10.4787 15.1068 12.6481 14.5919C14.8048 14.0797 17.0337 13.5117 19.131 12.7977C19.508 12.6693 19.8845 12.5209 20.2003 12.2787C21.0854 11.5986 21.2673 10.053 21.4801 9.03311C21.8031 7.48292 21.6057 5.88012 20.9715 4.43518C20.1549 2.57469 18.5934 0.932407 16.5201 0.613477C15.0362 0.385282 13.7188 0.689695 12.7202 1.83975C12.3895 2.22083 12.1264 2.6636 11.7689 3.02154C11.3751 3.41623 11.0299 3.50379 10.6702 3.4185Z" fill="url(#paint2_linear_83_8538)"/>
<defs>
<linearGradient id="paint0_linear_83_8538" x1="11.6601" y1="21.0342" x2="11.6843" y2="58.103" gradientUnits="userSpaceOnUse">
<stop offset="0.1599" stop-color="#BFAB8D"/>
<stop offset="0.5078" stop-color="#E7E1D2"/>
<stop offset="0.7297" stop-color="#CCBFA6"/>
</linearGradient>
<linearGradient id="paint1_linear_83_8538" x1="5.01176" y1="25.4738" x2="21.7699" y2="25.5343" gradientUnits="userSpaceOnUse">
<stop stop-color="#BFAB8D"/>
<stop offset="0.5078" stop-color="#E7E1D2"/>
<stop offset="1" stop-color="#CCBFA6"/>
</linearGradient>
<linearGradient id="paint2_linear_83_8538" x1="-6.24133" y1="7.80946" x2="40.8526" y2="7.97958" gradientUnits="userSpaceOnUse">
<stop stop-color="#FCFCFC"/>
<stop offset="1" stop-color="#CDCAC5"/>
</linearGradient>
</defs>
</svg>
