<svg width="19" height="55" viewBox="0 0 19 55" fill="none" xmlns="http://www.w3.org/2000/svg">
<path d="M9.25378 54.1669C9.25378 54.1669 3.95485 55.2625 2.07709 52.5102C0.199324 49.7574 8.62227 52.5066 9.25378 54.1669Z" fill="#D8D6D0"/>
<path d="M10.0312 54.4019C10.0312 54.4019 15.6743 54.7834 17.0784 51.1243C18.4825 47.4652 10.3642 52.2838 10.0312 54.4019Z" fill="#D8D6D0"/>
<path d="M12.2841 33.8709C12.3671 33.9117 12.446 33.958 12.5204 34.0101C13.9581 35.0145 15.1698 36.6418 16.084 38.114C17.4731 40.3506 18.4648 42.9088 18.1976 45.5781C18.0152 47.4028 17.8106 49.501 16.8988 51.1396C16.3662 52.0968 15.1689 52.5355 14.194 52.8749C13.3588 53.1657 12.5159 53.4388 11.697 53.7741C10.9408 54.0835 10.1986 54.6111 9.34658 54.543C8.36711 54.4645 7.68298 53.6969 6.8995 53.1988C5.67007 52.4176 4.19837 52.017 2.7421 52.0873C2.48623 52.0996 2.22402 52.1254 1.97858 52.0506C1.62064 51.9417 1.35887 51.6377 1.14792 51.3293C0.187052 49.9256 0.212455 48.5655 0.204289 46.9332C0.195669 45.2746 0.227879 43.6061 0.544085 41.9729C1.10708 39.0626 3.02973 36.655 4.0405 33.9081C4.09856 33.7497 4.15663 33.5878 4.26324 33.4571C4.44562 33.2334 4.74413 33.1368 5.03175 33.1137C5.57071 33.0701 6.11375 33.1536 6.64772 33.2108C7.6603 33.3196 8.64884 33.4326 9.66687 33.5025C10.4744 33.5583 11.5323 33.4993 12.2841 33.8709Z" fill="url(#paint0_linear_83_8443)"/>
<path d="M14.4257 35.7848C14.3894 35.8143 14.3459 35.8374 14.2928 35.8519C14.026 35.9268 13.204 35.5244 12.9132 35.4482C11.9492 35.1959 10.9742 34.985 9.99341 34.8094C8.95406 34.6234 7.90427 34.4469 6.84587 34.4383C6.28559 34.4338 5.72214 34.4728 5.17366 34.5916C4.68642 34.6973 4.16153 35.0312 3.70015 35.073C3.36399 33.7623 3.70514 32.238 3.78317 30.9069C3.86982 29.4271 4.00593 27.9504 4.19057 26.4796C4.53717 23.7195 5.22583 21.0623 5.72804 18.3372C6.21709 15.6864 6.35319 12.8841 6.29467 10.1847C6.26699 8.91537 6.19032 7.64375 6.0447 6.38255C5.92085 5.30599 5.61054 4.3424 5.72078 3.22683C5.83284 2.09266 6.36499 0.375064 7.86254 0.83962C8.9899 1.1894 9.69172 2.42928 10.2606 3.372C11.3444 5.16716 12.1333 7.12293 12.8601 9.08958C13.586 11.0535 14.2552 13.0515 14.634 15.1148C14.9647 16.9145 14.9243 18.6761 14.893 20.493C14.844 23.3774 14.7751 26.2614 14.7038 29.1454C14.658 31.0063 14.7642 32.9475 14.6176 34.8348C14.5913 35.1878 14.643 35.6069 14.4257 35.7848Z" fill="url(#paint1_linear_83_8443)"/>
<defs>
<linearGradient id="paint0_linear_83_8443" x1="-5.7455" y1="44.2302" x2="38.814" y2="42.8576" gradientUnits="userSpaceOnUse">
<stop stop-color="#FCFCFC"/>
<stop offset="1" stop-color="#CDCAC5"/>
</linearGradient>
<linearGradient id="paint1_linear_83_8443" x1="0.790678" y1="19.3602" x2="15.1502" y2="17.8522" gradientUnits="userSpaceOnUse">
<stop stop-color="#BFAB8D"/>
<stop offset="0.5078" stop-color="#E7E1D2"/>
<stop offset="1" stop-color="#CCBFA6"/>
</linearGradient>
</defs>
</svg>
