<svg width="19" height="58" viewBox="0 0 19 58" fill="none" xmlns="http://www.w3.org/2000/svg">
<path d="M9.41328 56.2716C9.41328 56.2716 4.06719 57.1069 2.32599 54.2655C0.585247 51.4241 8.86389 54.5822 9.41328 56.2716Z" fill="#D8D6D0"/>
<path d="M4.04688 38.3488C4.04688 38.3488 4.37351 27.2362 5.35432 24.2946C6.33468 21.353 7.31549 11.5479 6.9884 8.93293C6.66131 6.31799 6.66177 2.39603 6.66177 2.39603C6.66177 2.39603 6.33513 -0.545554 9.27665 1.74229C12.2182 4.03014 15.8134 15.1427 15.4863 19.7184C15.1597 24.2941 15.0563 38.0829 15.108 38.0525C15.1593 38.0221 4.04688 38.3488 4.04688 38.3488Z" fill="url(#paint0_linear_83_8434)"/>
<path d="M14.8352 37.0435C14.8352 37.0435 22.3524 48.1561 16.7964 54.0392C16.1177 54.7578 15.0502 55.2632 14.2232 55.789C13.3694 56.3321 12.4584 57.086 11.4177 57.2035C10.2242 57.3387 9.35039 56.0898 8.17722 55.8462C6.31222 55.4587 4.48714 55.7654 2.89433 54.4933C1.57916 53.4431 0.781621 51.8058 0.510785 50.1663C0.17326 48.1207 0.52258 46.042 0.929968 44.0336C1.10372 43.1775 1.39951 42.3627 1.74565 41.5611C2.11448 40.7064 2.77956 39.8721 3.06899 39.0038C3.06899 39.0042 5.68391 31.1603 14.8352 37.0435Z" fill="url(#paint1_linear_83_8434)"/>
<defs>
<linearGradient id="paint0_linear_83_8434" x1="4.94659" y1="19.6576" x2="17.8389" y2="19.2605" gradientUnits="userSpaceOnUse">
<stop stop-color="#BFAB8D"/>
<stop offset="0.5078" stop-color="#E7E1D2"/>
<stop offset="1" stop-color="#CCBFA6"/>
</linearGradient>
<linearGradient id="paint1_linear_83_8434" x1="-3.20093" y1="46.4395" x2="34.4076" y2="45.281" gradientUnits="userSpaceOnUse">
<stop stop-color="#FCFCFC"/>
<stop offset="1" stop-color="#CDCAC5"/>
</linearGradient>
</defs>
</svg>
