<svg width="20" height="70" viewBox="0 0 20 70" fill="none" xmlns="http://www.w3.org/2000/svg">
<path d="M16.0306 45.477C16.0306 45.477 3.94926 42.4488 2.94531 44.1754L7.82442 9.62273C7.82442 9.62273 7.6729 0.742188 8.98035 0.742188C10.2878 0.742188 11.5952 4.66414 11.5952 4.66414C11.5952 4.66414 15.7394 37.2071 16.0306 45.477Z" fill="url(#paint0_linear_83_8310)"/>
<path d="M13.7029 41.9216C13.7033 41.9225 20.8934 51.4005 19.586 59.2445C19.1641 61.7755 18.3003 64.4208 16.7746 66.5081C16.0306 67.5262 15.0639 68.4476 13.8449 68.8513C12.2326 69.3853 10.1634 68.9661 8.54702 68.6055C7.75129 68.4281 6.96964 68.1835 6.22836 67.8424C1.04572 65.4588 -0.323428 59.3134 0.093487 54.1053C0.386553 50.4469 1.49711 46.8979 2.94066 43.5453C3.87702 41.3704 6.05822 40.8006 8.23535 40.4925C9.87397 40.2607 12.5891 40.453 13.7029 41.9216Z" fill="url(#paint1_linear_83_8310)"/>
<defs>
<linearGradient id="paint0_linear_83_8310" x1="4.60597" y1="23.353" x2="14.2104" y2="23.0572" gradientUnits="userSpaceOnUse">
<stop stop-color="#BFAB8D"/>
<stop offset="0.5078" stop-color="#E7E1D2"/>
<stop offset="1" stop-color="#CCBFA6"/>
</linearGradient>
<linearGradient id="paint1_linear_83_8310" x1="-6.25572" y1="54.4534" x2="38.3999" y2="55.2516" gradientUnits="userSpaceOnUse">
<stop stop-color="#FCFCFC"/>
<stop offset="1" stop-color="#CDCAC5"/>
</linearGradient>
</defs>
</svg>
