<svg width="20" height="61" viewBox="0 0 20 61" fill="none" xmlns="http://www.w3.org/2000/svg">
<path d="M13.3324 34.7447C13.3324 34.7447 16.6005 36.0522 17.5814 43.5695C17.5814 43.5695 18.5617 51.4139 18.8888 53.7017C19.2154 55.9896 19.2154 58.9312 15.6207 59.9116C12.0254 60.892 8.75727 60.2382 6.79611 59.5849C4.83495 58.9316 1.89343 56.97 1.23971 54.6821C0.585991 52.3943 1.23971 41.2816 2.22006 39.3204C3.20087 37.3592 5.48867 32.1297 13.3324 34.7447Z" fill="url(#paint0_linear_83_8422)"/>
<path d="M10.0664 3.69403C10.0664 3.69403 17.2408 19.3791 14.3074 35.8862C14.3074 35.8862 3.90509 34.6531 3.39062 37.4767C4.84964 30.6096 5.55055 23.3827 5.26382 16.3726C5.14723 13.5286 4.94671 10.6886 4.86686 7.84325C4.81514 5.99048 4.49303 3.87368 5.28832 2.14793C5.62223 1.42252 6.17435 0.356399 7.08034 0.271563C8.61738 0.127751 9.6055 2.63381 10.0664 3.69403Z" fill="url(#paint1_linear_83_8422)"/>
<defs>
<linearGradient id="paint0_linear_83_8422" x1="19.788" y1="48.038" x2="-23.7539" y2="44.2091" gradientUnits="userSpaceOnUse">
<stop stop-color="#FCFCFC"/>
<stop offset="1" stop-color="#CDCAC5"/>
</linearGradient>
<linearGradient id="paint1_linear_83_8422" x1="6.01997" y1="18.8838" x2="15.001" y2="19.0444" gradientUnits="userSpaceOnUse">
<stop stop-color="#BFAB8D"/>
<stop offset="0.5078" stop-color="#E7E1D2"/>
<stop offset="1" stop-color="#CCBFA6"/>
</linearGradient>
</defs>
</svg>
