<svg width="26" height="75" viewBox="0 0 26 75" fill="none" xmlns="http://www.w3.org/2000/svg">
<path d="M13.025 0.840759C14.5779 2.36645 15.3519 5.6197 16.1336 7.60586C18.5235 13.6778 20.34 19.9838 21.3926 26.4272C21.9166 29.6342 22.2514 32.8729 22.3789 36.1203C22.4433 37.7535 22.4555 39.3885 22.4142 41.0226C22.3807 42.3601 22.6012 44.3049 22.0454 45.518C21.3613 44.745 20.874 43.8154 20.15 43.0719C18.3797 41.2536 16.0909 39.9533 13.5063 39.952C12.4153 39.9515 11.3432 40.1729 10.3238 40.5454C9.91006 40.6965 9.50539 40.872 9.11114 41.068C7.96108 41.6396 6.5769 43.3649 5.35288 43.4579C5.17414 41.0657 5.77889 38.3809 6.00664 35.9819C6.00664 29.8919 7.20978 23.4602 8.12121 17.4514C8.39523 15.644 8.80762 13.8606 8.76951 12.0278C8.73004 10.1355 8.51773 8.24554 8.64612 6.35193C8.76136 4.65657 8.97368 0.562206 11.3087 0.302254C11.7679 0.25099 12.2197 0.421118 12.6502 0.588522C12.7886 0.642962 12.9125 0.730517 13.025 0.840759Z" fill="url(#paint0_linear_83_8409)"/>
<path d="M25.3086 69.4853C25.3086 69.4853 27.5964 42.6847 15.5036 38.7624C15.5036 38.7624 1.77613 36.4745 0.469124 60.3336C0.431924 61.0141 0.326218 61.6909 0.297184 62.3742C0.234578 63.8649 0.288563 65.3715 0.545791 66.8432C0.816175 68.3888 1.32155 69.9862 2.37223 71.187C2.8817 71.7691 3.51729 72.2309 4.23861 72.514C4.86376 72.7594 5.55198 72.8515 6.20798 72.9862C7.0155 73.1523 7.82484 73.3083 8.63872 73.439C9.07786 73.5093 9.51882 73.5728 9.96024 73.6259C11.583 73.8214 13.2189 73.8831 14.8525 73.9448C17.506 74.0451 20.2561 74.1771 22.735 73.042C24.2017 72.3715 25.3086 71.1666 25.3086 69.4853Z" fill="url(#paint1_linear_83_8409)"/>
<path d="M25.2617 69.3957C25.2617 69.3957 27.5496 42.5949 15.4567 38.6725C15.4567 38.6725 1.72926 36.3847 0.422249 60.2439C0.385049 60.9244 0.279343 61.6012 0.250309 62.2845C0.187703 63.7752 0.241688 65.2818 0.498916 66.7535C0.7693 68.2992 1.27467 69.8965 2.32536 71.0974C2.83482 71.6794 3.47042 72.1413 4.19174 72.4244C4.81689 72.6698 5.50511 72.7619 6.16111 72.8966C6.96863 73.0627 7.77797 73.2187 8.59185 73.3494C9.03099 73.4197 9.47195 73.4832 9.91337 73.5363C11.5361 73.7318 13.172 73.7935 14.8057 73.8552C17.4592 73.9555 20.2093 74.0875 22.6881 72.9524C24.1548 72.2819 25.2617 71.077 25.2617 69.3957Z" fill="url(#paint2_linear_83_8409)"/>
<defs>
<linearGradient id="paint0_linear_83_8409" x1="18.7116" y1="22.8711" x2="5.23033" y2="23.1121" gradientUnits="userSpaceOnUse">
<stop stop-color="#BFAB8D"/>
<stop offset="0.5078" stop-color="#E7E1D2"/>
<stop offset="1" stop-color="#CCBFA6"/>
</linearGradient>
<linearGradient id="paint1_linear_83_8409" x1="30.3839" y1="56.3489" x2="-4.6373" y2="56.3668" gradientUnits="userSpaceOnUse">
<stop stop-color="#94938C"/>
<stop offset="0.2296" stop-color="#EDEBE1"/>
<stop offset="0.7876" stop-color="#EDEBE1"/>
<stop offset="1" stop-color="#94938C"/>
</linearGradient>
<linearGradient id="paint2_linear_83_8409" x1="0.226677" y1="56.2666" x2="55.3597" y2="56.2666" gradientUnits="userSpaceOnUse">
<stop stop-color="#FCFCFC"/>
<stop offset="1" stop-color="#CDCAC5"/>
</linearGradient>
</defs>
</svg>
