<svg width="27" height="75" viewBox="0 0 27 75" fill="none" xmlns="http://www.w3.org/2000/svg">
<path d="M13.3817 0.840759C11.8288 2.36645 11.0549 5.6197 10.2732 7.60586C7.88331 13.6778 6.06685 19.9838 5.01435 26.4272C4.49037 29.6342 4.15558 32.8729 4.0281 36.1203C3.96368 37.7535 3.95142 39.3885 3.9927 41.0226C4.02627 42.3601 3.80581 44.3049 4.36155 45.518C5.04567 44.745 5.53289 43.8154 6.25694 43.0719C8.02713 41.2536 10.3158 39.9533 12.9004 39.952C13.9914 39.9515 15.0634 40.1729 16.0828 40.5454C16.4965 40.6965 16.9012 40.872 17.2954 41.068C18.4455 41.6396 19.8296 43.3649 21.0531 43.4579C21.2319 41.0657 20.6271 38.3809 20.3994 35.9819C20.3994 29.8919 19.1963 23.4602 18.2849 17.4514C18.0109 15.644 17.5985 13.8606 17.6366 12.0278C17.6761 10.1355 17.8884 8.24554 17.76 6.35193C17.6448 4.65657 17.4325 0.562206 15.0975 0.302254C14.6383 0.25099 14.1865 0.421118 13.756 0.588522C13.618 0.642962 13.4942 0.730517 13.3817 0.840759Z" fill="url(#paint0_linear_83_8414)"/>
<path d="M1.10209 69.4853C1.10209 69.4853 -1.18575 42.6847 10.9071 38.7624C10.9071 38.7624 24.6346 36.4745 25.9416 60.3336C25.9788 61.0141 26.0845 61.6909 26.1135 62.3742C26.1761 63.8649 26.1221 65.3715 25.8649 66.8432C25.5945 68.3888 25.0891 69.9862 24.0385 71.187C23.529 71.7691 22.8934 72.2309 22.1721 72.514C21.5469 72.7594 20.8587 72.8515 20.2027 72.9862C19.3952 73.1523 18.5859 73.3083 17.772 73.439C17.3328 73.5093 16.8919 73.5728 16.4505 73.6259C14.8277 73.8214 13.1918 73.8831 11.5581 73.9448C8.90466 74.0451 6.15455 74.1771 3.67573 73.042C2.20903 72.3715 1.10209 71.1666 1.10209 69.4853Z" fill="url(#paint1_linear_83_8414)"/>
<path d="M1.14896 69.3957C1.14896 69.3957 -1.13887 42.5949 10.954 38.6725C10.954 38.6725 24.6814 36.3847 25.9885 60.2439C26.0257 60.9244 26.1314 61.6012 26.1604 62.2845C26.223 63.7752 26.169 65.2818 25.9118 66.7535C25.6414 68.2992 25.136 69.8965 24.0853 71.0974C23.5759 71.6794 22.9403 72.1413 22.219 72.4244C21.5938 72.6698 20.9056 72.7619 20.2496 72.8966C19.4421 73.0627 18.6328 73.2187 17.8189 73.3494C17.3797 73.4197 16.9388 73.4832 16.4973 73.5363C14.8746 73.7318 13.2387 73.7935 11.605 73.8552C8.95154 73.9555 6.20143 74.0875 3.7226 72.9524C2.2559 72.2819 1.14896 71.077 1.14896 69.3957Z" fill="url(#paint2_linear_83_8414)"/>
<defs>
<linearGradient id="paint0_linear_83_8414" x1="7.69534" y1="22.8711" x2="21.1763" y2="23.1121" gradientUnits="userSpaceOnUse">
<stop stop-color="#BFAB8D"/>
<stop offset="0.5078" stop-color="#E7E1D2"/>
<stop offset="1" stop-color="#CCBFA6"/>
</linearGradient>
<linearGradient id="paint1_linear_83_8414" x1="-3.97299" y1="56.349" x2="31.0482" y2="56.3668" gradientUnits="userSpaceOnUse">
<stop stop-color="#94938C"/>
<stop offset="0.2296" stop-color="#EDEBE1"/>
<stop offset="0.7876" stop-color="#EDEBE1"/>
<stop offset="1" stop-color="#94938C"/>
</linearGradient>
<linearGradient id="paint2_linear_83_8414" x1="26.1842" y1="56.2666" x2="-28.9488" y2="56.2666" gradientUnits="userSpaceOnUse">
<stop stop-color="#FCFCFC"/>
<stop offset="1" stop-color="#CDCAC5"/>
</linearGradient>
</defs>
</svg>
