<svg width="19" height="61" viewBox="0 0 19 61" fill="none" xmlns="http://www.w3.org/2000/svg">
<mask id="mask0_88_4058" style="mask-type:alpha" maskUnits="userSpaceOnUse" x="0" y="34" width="19" height="27">
<path d="M6.60437 34.8424C6.60437 34.8424 3.33614 36.1498 2.35531 43.6671C2.35531 43.6671 1.37494 51.5114 1.04785 53.7992C0.72121 56.0871 0.721212 59.0286 4.31607 60.009C7.91139 60.9894 11.1796 60.3356 13.1408 59.6824C15.102 59.0286 18.0436 57.0674 18.6973 54.7796C19.3511 52.4918 18.6973 41.3792 17.7169 39.418C16.7366 37.4568 14.4487 32.2274 6.60437 34.8424Z" fill="url(#paint0_linear_88_4058)"/>
</mask>
<g mask="url(#mask0_88_4058)">
<path d="M6.60437 34.8424C6.60437 34.8424 3.33614 36.1498 2.35531 43.6671C2.35531 43.6671 1.37494 51.5114 1.04785 53.7992C0.72121 56.0871 0.721212 59.0286 4.31607 60.009C7.91139 60.9894 11.1796 60.3356 13.1408 59.6824C15.102 59.0286 18.0436 57.0674 18.6973 54.7796C19.3511 52.4918 18.6973 41.3792 17.7169 39.418C16.7366 37.4568 14.4487 32.2274 6.60437 34.8424Z" fill="url(#paint1_linear_88_4058)"/>
<path d="M0.593108 53.7C1.49311 55 2.29311 56.3 3.19311 57.6C4.29311 57.4 5.3931 57.2 6.4931 57C6.4931 55.7 6.59311 54.3 6.59311 53C8.59311 53 10.4931 53 12.4931 53.1C12.3931 54.4 12.2931 55.6 12.2931 56.9C13.2931 57 14.1931 57.2 15.1931 57.3C16.2931 56 17.3931 54.7 18.4931 53.4C18.4931 54.4 18.3931 55.1 18.2931 55.6C17.5931 57.9 14.6931 59.9 12.6931 60.5C10.6931 61.2 7.4931 61.8 3.8931 60.8C0.293096 59.8 0.293108 56.9 0.593108 54.6C0.493108 54.4 0.493108 54.1 0.593108 53.7Z" fill="#CECECE"/>
<path d="M1.04906 54.147L4.40616 56.7783L14.2053 56.1885L18.9687 52.1055C18.9687 52.1055 18.9193 54.1733 18.878 54.2377C18.8367 54.3022 18.2883 57.5042 13.7063 59.4096C13.7063 59.4096 10.7121 60.8614 6.26618 60.4077C5.52308 60.1718 2.38328 60.3043 1.23052 57.5042C0.447047 54.6524 1.04906 54.147 1.04906 54.147Z" fill="#CECECE"/>
</g>
<path d="M9.87525 3.79127C9.87525 3.79127 2.70085 19.4764 5.63431 35.9836C5.63431 35.9836 16.0366 34.7505 16.5511 37.5741C15.092 30.7069 14.3911 23.48 14.6783 16.4699C14.7944 13.6259 14.9954 10.7859 15.0752 7.94052C15.127 6.08774 15.4491 3.97092 14.6538 2.24517C14.3199 1.51975 13.7678 0.453639 12.8618 0.369256C11.3243 0.22499 10.3362 2.73105 9.87525 3.79127Z" fill="url(#paint2_linear_88_4058)"/>
<defs>
<linearGradient id="paint0_linear_88_4058" x1="-3.56103" y1="47.9666" x2="22.4495" y2="46.6634" gradientUnits="userSpaceOnUse">
<stop stop-color="#94938C"/>
<stop offset="0.1599" stop-color="#D1CFC6"/>
<stop offset="0.2296" stop-color="#EDEBE1"/>
<stop offset="0.7988" stop-color="#EDEBE1"/>
<stop offset="0.9762" stop-color="#9F9E96"/>
<stop offset="1" stop-color="#94938C"/>
</linearGradient>
<linearGradient id="paint1_linear_88_4058" x1="-3.56103" y1="47.9666" x2="22.4495" y2="46.6634" gradientUnits="userSpaceOnUse">
<stop stop-color="#94938C"/>
<stop offset="0.1599" stop-color="#D1CFC6"/>
<stop offset="0.2296" stop-color="#EDEBE1"/>
<stop offset="0.7988" stop-color="#EDEBE1"/>
<stop offset="0.9762" stop-color="#9F9E96"/>
<stop offset="1" stop-color="#94938C"/>
</linearGradient>
<linearGradient id="paint2_linear_88_4058" x1="13.9219" y1="18.9812" x2="4.94089" y2="19.1417" gradientUnits="userSpaceOnUse">
<stop stop-color="#BFAB8D"/>
<stop offset="0.5078" stop-color="#E7E1D2"/>
<stop offset="1" stop-color="#CCBFA6"/>
</linearGradient>
</defs>
</svg>
