<svg width="20" height="58" viewBox="0 0 20 58" fill="none" xmlns="http://www.w3.org/2000/svg">
<path d="M15.336 38.3488C15.336 38.3488 15.0094 27.2362 14.0285 24.2946C13.0476 21.353 12.0672 11.5479 12.3943 8.93294C12.7209 6.31799 12.7209 2.39603 12.7209 2.39603C12.7209 2.39603 13.0476 -0.545553 10.1059 1.74229C7.16419 4.03014 3.56869 15.1427 3.8958 19.7184C4.22291 24.2941 4.32591 38.0829 4.27419 38.0525C4.22293 38.0221 15.336 38.3488 15.336 38.3488Z" fill="url(#paint0_linear_88_4066)"/>
<mask id="mask0_88_4066" style="mask-type:alpha" maskUnits="userSpaceOnUse" x="0" y="34" width="20" height="24">
<path d="M4.54674 37.0393C4.54674 37.0393 -2.97036 48.152 2.58558 54.0352C3.26425 54.7538 4.33171 55.2592 5.15873 55.785C6.01251 56.328 6.92345 57.082 7.96414 57.1995C9.15771 57.3347 10.0315 56.0858 11.2046 55.8422C13.0696 55.4547 14.8947 55.7614 16.4875 54.4893C17.8026 53.4391 18.6001 51.8018 18.871 50.1622C19.2085 48.1166 18.8592 46.0379 18.4518 44.0295C18.278 43.1734 17.9823 42.3591 17.6361 41.557C17.2677 40.7023 16.6022 39.868 16.3128 38.9996C16.3128 39.0005 13.6979 31.1566 4.54674 37.0393Z" fill="url(#paint1_linear_88_4066)"/>
</mask>
<g mask="url(#mask0_88_4066)">
<path d="M4.54674 37.0393C4.54674 37.0393 -2.97036 48.152 2.58558 54.0352C3.26425 54.7538 4.33171 55.2592 5.15873 55.785C6.01251 56.328 6.92345 57.082 7.96414 57.1995C9.15771 57.3347 10.0315 56.0858 11.2046 55.8422C13.0696 55.4547 14.8947 55.7614 16.4875 54.4893C17.8026 53.4391 18.6001 51.8018 18.871 50.1622C19.2085 48.1166 18.8592 46.0379 18.4518 44.0295C18.278 43.1734 17.9823 42.3591 17.6361 41.557C17.2677 40.7023 16.6022 39.868 16.3128 38.9996C16.3128 39.0005 13.6979 31.1566 4.54674 37.0393Z" fill="url(#paint2_linear_88_4066)"/>
<path d="M6.59311 53.7C6.59311 52.4 6.69312 51 6.69312 49.7C8.69312 49.7 10.5931 49.7 12.5931 49.8C12.4931 51.1 12.3931 52.3 12.3931 53.6C13.3931 53.7 14.2931 53.9 15.2931 54C16.3931 52.7 17.4931 51.4 18.5931 50.1C18.5931 50.5 18.4931 50.8 18.4931 51.2C18.1931 52.8 17.3931 54.5 16.0931 55.5C14.4931 56.8 12.6931 56.5 10.7931 56.9C9.59309 57.1 8.79311 58.4 7.59311 58.3C6.59311 58.2 5.59309 57.4 4.79309 56.9C3.99309 56.4 2.89312 55.9 2.19312 55.1C1.49312 54.3 0.993115 53.5 0.693115 52.6C0.593115 52.4 0.593103 52.2 0.493103 52C0.293103 51.4 0.193115 50.7 0.193115 50C1.29312 51.5 2.3931 52.9 3.3931 54.4C4.3931 54.1 5.49311 53.9 6.59311 53.7Z" fill="#CECECE"/>
<path d="M4.85443 53.2695L14.3362 52.7252L18.9182 49.2773C18.9182 49.2773 19.2358 51.1827 17.5572 53.3603C16.223 55.2203 11.7752 58.865 6.73896 57.7308C6.73896 57.7308 5.06038 57.504 3.59684 55.644C2.61555 54.587 1.17969 51.9539 1.17969 51.9539L4.85443 53.2695Z" fill="#CECECE"/>
</g>
<defs>
<linearGradient id="paint0_linear_88_4066" x1="14.4363" y1="19.6576" x2="1.54313" y2="19.2604" gradientUnits="userSpaceOnUse">
<stop stop-color="#BFAB8D"/>
<stop offset="0.5078" stop-color="#E7E1D2"/>
<stop offset="1" stop-color="#CCBFA6"/>
</linearGradient>
<linearGradient id="paint1_linear_88_4066" x1="22.5827" y1="46.4359" x2="-4.14294" y2="45.6126" gradientUnits="userSpaceOnUse">
<stop stop-color="#94938C"/>
<stop offset="0.0311" stop-color="#A6A59D"/>
<stop offset="0.0939" stop-color="#C5C3BB"/>
<stop offset="0.1552" stop-color="#DBD9D0"/>
<stop offset="0.2138" stop-color="#E8E7DD"/>
<stop offset="0.2666" stop-color="#EDEBE1"/>
<stop offset="0.7117" stop-color="#EDEBE1"/>
<stop offset="0.7637" stop-color="#E7E5DB"/>
<stop offset="0.835" stop-color="#D5D3CA"/>
<stop offset="0.9175" stop-color="#B8B7AF"/>
<stop offset="1" stop-color="#94938C"/>
</linearGradient>
<linearGradient id="paint2_linear_88_4066" x1="22.5827" y1="46.4359" x2="-4.14294" y2="45.6126" gradientUnits="userSpaceOnUse">
<stop stop-color="#94938C"/>
<stop offset="0.0311" stop-color="#A6A59D"/>
<stop offset="0.0939" stop-color="#C5C3BB"/>
<stop offset="0.1552" stop-color="#DBD9D0"/>
<stop offset="0.2138" stop-color="#E8E7DD"/>
<stop offset="0.2666" stop-color="#EDEBE1"/>
<stop offset="0.7117" stop-color="#EDEBE1"/>
<stop offset="0.7637" stop-color="#E7E5DB"/>
<stop offset="0.835" stop-color="#D5D3CA"/>
<stop offset="0.9175" stop-color="#B8B7AF"/>
<stop offset="1" stop-color="#94938C"/>
</linearGradient>
</defs>
</svg>
