<svg width="19" height="56" viewBox="0 0 19 56" fill="none" xmlns="http://www.w3.org/2000/svg">
<mask id="mask0_88_4070" style="mask-type:alpha" maskUnits="userSpaceOnUse" x="0" y="33" width="19" height="23">
<path d="M8.70993 54.4529C8.70993 54.4529 3.06705 54.8344 1.66301 51.1751C0.258984 47.5158 8.37696 52.3347 8.70993 54.4529Z" fill="#D8D6D0"/>
<path d="M6.457 33.9216C6.37398 33.9625 6.29505 34.0087 6.22065 34.0609C4.78299 35.0653 3.57127 36.6926 2.65714 38.1648C1.26802 40.4013 0.276754 42.9595 0.543508 45.6289C0.72588 47.4536 0.930499 49.5518 1.84236 51.1904C2.37496 52.1476 3.57216 52.5863 4.54708 52.9257C5.38227 53.2165 6.22518 53.4896 7.04404 53.8248C7.8003 54.1342 8.54249 54.6618 9.39447 54.5938C10.3739 54.5153 11.058 53.7477 11.8415 53.2496C13.0709 52.4684 14.5426 52.0678 15.9989 52.1381C16.2548 52.1503 16.517 52.1762 16.7624 52.1014C17.1203 51.9925 17.3821 51.6885 17.5931 51.38C18.5539 49.9764 18.5285 48.6163 18.5367 46.984C18.5453 45.3254 18.5131 43.6568 18.1969 42.0236C17.6339 39.1134 15.7113 36.7058 14.7005 33.9588C14.6424 33.8005 14.5844 33.6386 14.4778 33.5079C14.2954 33.2842 13.9969 33.1876 13.7092 33.1645C13.1703 33.1209 12.6273 33.2044 12.0933 33.2616C11.0807 33.3704 10.0922 33.4834 9.07418 33.5533C8.26666 33.6091 7.20827 33.5505 6.457 33.9216Z" fill="url(#paint0_linear_88_4070)"/>
<path d="M0.860289 47.9392L6.0321 50.3437L14.5611 49.527L18.5456 45.625C18.5456 45.625 19.2733 49.1187 17.6324 51.2964C15.8871 53.6555 12.0831 56.2414 7.15993 55.1073C7.15993 55.1073 4.04324 55.0165 2.61282 53.1565C1.49544 51.7501 0.831255 48.0953 0.860289 47.9392Z" fill="#CECECE"/>
</mask>
<g mask="url(#mask0_88_4070)">
<path d="M8.70993 54.4529C8.70993 54.4529 3.06705 54.8344 1.66301 51.1751C0.258984 47.5158 8.37696 52.3347 8.70993 54.4529Z" fill="#D8D6D0"/>
<path d="M6.457 33.9216C6.37398 33.9625 6.29505 34.0087 6.22065 34.0609C4.78299 35.0653 3.57127 36.6926 2.65714 38.1648C1.26802 40.4013 0.276754 42.9595 0.543508 45.6289C0.72588 47.4536 0.930499 49.5518 1.84236 51.1904C2.37496 52.1476 3.57216 52.5863 4.54708 52.9257C5.38227 53.2165 6.22518 53.4896 7.04404 53.8248C7.8003 54.1342 8.54249 54.6618 9.39447 54.5938C10.3739 54.5153 11.058 53.7477 11.8415 53.2496C13.0709 52.4684 14.5426 52.0678 15.9989 52.1381C16.2548 52.1503 16.517 52.1762 16.7624 52.1014C17.1203 51.9925 17.3821 51.6885 17.5931 51.38C18.5539 49.9764 18.5285 48.6163 18.5367 46.984C18.5453 45.3254 18.5131 43.6568 18.1969 42.0236C17.6339 39.1134 15.7113 36.7058 14.7005 33.9588C14.6424 33.8005 14.5844 33.6386 14.4778 33.5079C14.2954 33.2842 13.9969 33.1876 13.7092 33.1645C13.1703 33.1209 12.6273 33.2044 12.0933 33.2616C11.0807 33.3704 10.0922 33.4834 9.07418 33.5533C8.26666 33.6091 7.20827 33.5505 6.457 33.9216Z" fill="url(#paint1_linear_88_4070)"/>
<path d="M0.860289 47.9392L6.0321 50.3437L14.5611 49.527L18.5456 45.625C18.5456 45.625 19.2733 49.1187 17.6324 51.2964C15.8871 53.6555 12.0831 56.2414 7.15993 55.1073C7.15993 55.1073 4.04324 55.0165 2.61282 53.1565C1.49544 51.7501 0.831255 48.0953 0.860289 47.9392Z" fill="#CECECE"/>
<path d="M6.59311 49.7C6.59311 48.4 6.69312 47 6.69312 45.7C8.69312 45.7 10.5931 45.7 12.5931 45.8C12.4931 47.1 12.3931 48.3 12.3931 49.6C13.3931 49.7 14.2931 49.9 15.2931 50C16.3931 48.7 17.4931 47.4 18.5931 46.1C18.5931 46.5 18.4931 46.8 18.4931 47.2C18.1931 48.8 17.3931 50.5 16.0931 51.5C14.4931 52.8 12.6931 52.5 10.7931 52.9C9.59309 53.1 8.79311 54.4 7.59311 54.3C6.59311 54.2 5.59309 53.4 4.79309 52.9C3.99309 52.4 2.89312 51.9 2.19312 51.1C1.49312 50.3 0.993115 49.5 0.693115 48.6C0.593115 48.4 0.593103 48.2 0.493103 48C0.293103 47.4 0.193115 46.7 0.193115 46C1.29312 47.5 2.3931 48.9 3.3931 50.4C4.3931 50.1 5.49311 49.9 6.59311 49.7Z" fill="#CECECE"/>
</g>
<path d="M4.31579 35.8354C4.35209 35.8649 4.39565 35.8881 4.44872 35.9026C4.71548 35.9774 5.5375 35.575 5.8283 35.4988C6.79234 35.2466 7.76727 35.0356 8.7481 34.8601C9.78744 34.6741 10.8372 34.4976 11.8956 34.489C12.4559 34.4844 13.0193 34.5234 13.5678 34.6423C14.055 34.748 14.5799 35.0819 15.0413 35.1236C15.3775 33.813 15.0363 32.2887 14.9583 30.9576C14.8716 29.4778 14.7355 28.0011 14.5509 26.5303C14.2047 23.7702 13.5156 21.113 13.0134 18.3879C12.5244 15.7371 12.3883 12.9348 12.4468 10.2355C12.4745 8.96612 12.5512 7.69449 12.6968 6.4333C12.8206 5.35675 13.1309 4.39316 13.0207 3.27759C12.9086 2.14342 12.3765 0.425847 10.8789 0.890402C9.75159 1.24018 9.04978 2.48005 8.48088 3.42277C7.39708 5.21793 6.60817 7.17369 5.8814 9.14033C5.15554 11.1043 4.48638 13.1022 4.10757 15.1655C3.77685 16.9652 3.81723 18.7268 3.84853 20.5437C3.89752 23.4281 3.96648 26.3121 4.0377 29.196C4.08352 31.057 3.97736 32.9982 4.12389 34.8855C4.15021 35.2384 4.09849 35.6576 4.31579 35.8354Z" fill="url(#paint2_linear_88_4070)"/>
<defs>
<linearGradient id="paint0_linear_88_4070" x1="24.4864" y1="44.2814" x2="-5.74961" y2="43.35" gradientUnits="userSpaceOnUse">
<stop stop-color="#94938C"/>
<stop offset="0.2666" stop-color="#EDEBE1"/>
<stop offset="0.7117" stop-color="#EDEBE1"/>
<stop offset="1" stop-color="#94938C"/>
</linearGradient>
<linearGradient id="paint1_linear_88_4070" x1="24.4864" y1="44.2814" x2="-5.74961" y2="43.35" gradientUnits="userSpaceOnUse">
<stop stop-color="#94938C"/>
<stop offset="0.2666" stop-color="#EDEBE1"/>
<stop offset="0.7117" stop-color="#EDEBE1"/>
<stop offset="1" stop-color="#94938C"/>
</linearGradient>
<linearGradient id="paint2_linear_88_4070" x1="17.9507" y1="19.4108" x2="3.59135" y2="17.9028" gradientUnits="userSpaceOnUse">
<stop stop-color="#BFAB8D"/>
<stop offset="0.5078" stop-color="#E7E1D2"/>
<stop offset="1" stop-color="#CCBFA6"/>
</linearGradient>
</defs>
</svg>
