<svg width="26" height="51" viewBox="0 0 26 51" fill="none" xmlns="http://www.w3.org/2000/svg">
<path d="M14.7357 2.25136C14.7357 2.25136 15.6417 0.197139 17.4759 0.711598C19.3101 1.22606 19.9439 6.01997 19.6118 9.55404C19.2802 13.0881 17.7082 24.301 15.0056 24.5319C12.3031 24.7628 7.36076 18.4119 9.60963 14.8738C11.8581 11.3361 15.5782 5.12534 14.7357 2.25136Z" fill="url(#paint0_linear_88_4075)"/>
<path d="M2.91638 32.7019C6.11518 32.4714 9.74496 30.9076 12.9496 30.7811C14.9598 30.7017 16.9709 30.5688 18.9834 30.6332C19.9138 30.6627 21.2975 33.1433 22.1999 33.0285C22.7851 32.9541 22.3991 30.5506 22.375 29.9286C22.3546 29.3992 22.3097 28.872 22.3872 28.3444C22.6658 26.4427 23.7119 24.6371 24.147 22.7353C24.6506 20.5355 24.9908 18.293 25.2 16.0465C25.4218 13.6633 25.5157 11.229 25.2036 8.84905C25.0693 7.82286 24.886 6.78079 24.4787 5.8231C24.1615 5.07773 23.3926 3.61465 22.4099 3.7267C22.0493 3.76799 21.7263 3.97304 21.4568 4.21666C20.9278 4.69437 20.5594 5.33042 20.3158 6.00048C19.8136 7.3828 19.8245 8.87128 19.7278 10.3194C19.628 11.8124 19.2211 13.1952 18.8863 14.6442C18.2648 17.3367 17.5308 20.5055 15.7669 22.7126C15.3377 23.2498 14.6926 23.6844 14.008 23.6195C13.6569 23.5859 13.3289 23.4244 13.0422 23.2189C12.0092 22.4781 11.4838 21.1996 11.3046 19.9412C10.9376 17.3625 11.2139 14.5181 11.9031 12.0184C12.3073 10.5512 13.054 9.23739 13.5104 7.80289C13.9926 6.28629 14.6468 3.27758 12.5087 2.70006C11.6458 2.46688 10.7271 2.90784 10.082 3.52664C7.69031 5.81992 6.07482 9.22922 4.69159 12.1853C3.84324 13.9977 3.02436 15.8713 2.50219 17.8085C2.18826 18.9731 2.22182 20.1335 2.25494 21.3362C2.34794 24.6983 2.54302 29.3688 2.91638 32.7019Z" fill="url(#paint1_linear_88_4075)"/>
<path d="M21.8572 34.8693C22.1294 34.9523 22.5201 35.6918 22.6707 35.9046C23.2695 36.7488 23.7872 37.6575 24.1751 38.6184C25.2203 41.2075 25.0688 44.0474 23.108 46.1678C23.0844 46.1928 23.0613 46.2177 23.0381 46.2427C22.9324 46.3538 22.8222 46.4623 22.736 46.5888C22.4942 46.944 22.4366 47.3891 22.2075 47.7534C21.9911 48.0977 21.673 48.4198 21.365 48.6798C20.6396 49.2922 19.6733 49.7178 18.7083 49.6225C18.3767 49.5898 18.0604 49.4719 17.7488 49.3548C16.3955 48.8467 14.926 48.2674 14.2083 46.9236C14.29 47.077 13.9175 47.7008 13.8236 47.8278C13.5985 48.1336 13.3227 48.2665 12.9748 48.4008C11.8256 48.8449 10.5748 49.2015 9.47332 49.7522C8.71205 50.0453 8.06966 50.3238 7.29524 50.0698C6.84429 49.9219 6.38743 49.7922 5.94147 49.6288C5.10671 49.3235 3.71803 48.7891 3.71803 47.7062C3.71803 46.0317 2.32253 41.0087 5.67155 35.9858C9.01874 30.9646 21.8468 34.8661 21.8572 34.8693Z" fill="#D8D6D0"/>
<mask id="mask0_88_4075" style="mask-type:alpha" maskUnits="userSpaceOnUse" x="0" y="29" width="26" height="20">
<path d="M21.8715 30.7422C22.1905 30.8393 22.6478 31.7058 22.8243 31.9549C23.5252 32.9439 24.1318 34.0082 24.5863 35.1333C25.8108 38.166 25.633 41.4918 23.3369 43.9752C23.3097 44.0042 23.282 44.0337 23.2548 44.0628C23.131 44.193 23.0021 44.32 22.901 44.4683C22.6174 44.8848 22.5502 45.4051 22.2821 45.8325C22.029 46.2354 21.6565 46.6128 21.2954 46.9177C20.4456 47.6349 19.3137 48.133 18.1841 48.0219C17.7957 47.9838 17.4255 47.8454 17.0603 47.7084C15.4751 47.1137 13.7539 46.4345 12.9132 44.8608C13.0089 45.04 12.5725 45.7708 12.4627 45.9201C12.1991 46.278 11.8756 46.4336 11.4687 46.591C10.1226 47.1114 8.65771 47.5288 7.36745 48.1739C6.47597 48.5173 5.72377 48.8435 4.81641 48.5459C4.28833 48.3726 3.75298 48.2206 3.2308 48.0296C2.25312 47.6721 0.626686 47.0461 0.626686 45.7776C0.626686 43.8164 -1.00746 37.9333 2.91459 32.0501C6.83483 26.1688 21.8593 30.7382 21.8715 30.7422Z" fill="url(#paint2_linear_88_4075)"/>
<path d="M1.00006 43.5C2.30006 43.7 3.50005 43.9 4.80005 44C6.60005 43.8 8.30007 43.6 10.1001 43.4C10.1001 42.1 10.2001 40.7 10.2001 39.4C12.2001 39.4 14.1001 39.4 16.1001 39.5C16.0001 40.8 15.9001 42 15.9001 43.3C17.2001 43.4 18.5 43.6 19.8 43.7C21.4 43 23.0001 42.3 24.6001 41.6C24.7001 41.6 24.7 41.5 24.8 41.5L22.9001 44.4C22.9001 44.4 22.4001 46.1 20.5001 47.3C18.6001 48.6 16.6001 47.5 14.9001 46.7C14.7001 46.6 14.5 46.5 14.3 46.4C13.7 46.8 13.1 47.3 12.3 47.4C11.7 47.5 11.1001 47.2 10.5001 46.9C8.80006 47.5 6.50007 48.4 6.10007 48.5C5.60007 48.7 5.20005 48.6 4.80005 48.6C4.40005 48.6 2.60007 47.9 1.60007 47.3C0.400067 46.7 0.500061 45.8 0.500061 45.7C0.500061 45.5 0.300049 43.5 0.300049 43.4C0.300049 43.4 0.600061 43.4 1.00006 43.5Z" fill="#CECECE"/>
</mask>
<g mask="url(#mask0_88_4075)">
<path d="M21.8715 30.7422C22.1905 30.8393 22.6478 31.7058 22.8243 31.9549C23.5252 32.9439 24.1318 34.0082 24.5863 35.1333C25.8108 38.166 25.633 41.4918 23.3369 43.9752C23.3097 44.0042 23.282 44.0337 23.2548 44.0628C23.131 44.193 23.0021 44.32 22.901 44.4683C22.6174 44.8848 22.5502 45.4051 22.2821 45.8325C22.029 46.2354 21.6565 46.6128 21.2954 46.9177C20.4456 47.6349 19.3137 48.133 18.1841 48.0219C17.7957 47.9838 17.4255 47.8454 17.0603 47.7084C15.4751 47.1137 13.7539 46.4345 12.9132 44.8608C13.0089 45.04 12.5725 45.7708 12.4627 45.9201C12.1991 46.278 11.8756 46.4336 11.4687 46.591C10.1226 47.1114 8.65771 47.5288 7.36745 48.1739C6.47597 48.5173 5.72377 48.8435 4.81641 48.5459C4.28833 48.3726 3.75298 48.2206 3.2308 48.0296C2.25312 47.6721 0.626686 47.0461 0.626686 45.7776C0.626686 43.8164 -1.00746 37.9333 2.91459 32.0501C6.83483 26.1688 21.8593 30.7382 21.8715 30.7422Z" fill="url(#paint3_linear_88_4075)"/>
<path d="M1.00006 43.5C2.30006 43.7 3.50005 43.9 4.80005 44C6.60005 43.8 8.30007 43.6 10.1001 43.4C10.1001 42.1 10.2001 40.7 10.2001 39.4C12.2001 39.4 14.1001 39.4 16.1001 39.5C16.0001 40.8 15.9001 42 15.9001 43.3C17.2001 43.4 18.5 43.6 19.8 43.7C21.4 43 23.0001 42.3 24.6001 41.6C24.7001 41.6 24.7 41.5 24.8 41.5L22.9001 44.4C22.9001 44.4 22.4001 46.1 20.5001 47.3C18.6001 48.6 16.6001 47.5 14.9001 46.7C14.7001 46.6 14.5 46.5 14.3 46.4C13.7 46.8 13.1 47.3 12.3 47.4C11.7 47.5 11.1001 47.2 10.5001 46.9C8.80006 47.5 6.50007 48.4 6.10007 48.5C5.60007 48.7 5.20005 48.6 4.80005 48.6C4.40005 48.6 2.60007 47.9 1.60007 47.3C0.400067 46.7 0.500061 45.8 0.500061 45.7C0.500061 45.5 0.300049 43.5 0.300049 43.4C0.300049 43.4 0.600061 43.4 1.00006 43.5Z" fill="#CECECE"/>
<path d="M0.406629 43.507C0.395741 43.6199 0.623045 45.5979 0.628036 45.7771C0.633026 45.9563 0.607604 46.8537 1.76763 47.4085C2.74574 48.0083 4.6457 48.6784 4.98868 48.6788C5.33165 48.6793 5.71273 48.7382 6.25804 48.5722C6.80335 48.4066 12.1144 46.4195 12.2474 46.3651C12.3803 46.3107 12.8344 45.4147 12.9265 44.9596C12.9265 44.9596 13.2146 45.9545 14.924 46.8188C16.6339 47.683 18.6364 48.7587 20.5227 47.4485C22.4549 46.229 22.9086 44.5504 22.9086 44.5504L24.814 41.6016L19.5968 43.3255L5.53308 44.6865C5.53308 44.6865 0.395741 43.3931 0.406629 43.507Z" fill="#CECECE"/>
</g>
<defs>
<linearGradient id="paint0_linear_88_4075" x1="11.2192" y1="23.517" x2="29.781" y2="-21.8487" gradientUnits="userSpaceOnUse">
<stop offset="0.1599" stop-color="#BFAB8D"/>
<stop offset="0.5078" stop-color="#E7E1D2"/>
<stop offset="0.7297" stop-color="#CCBFA6"/>
</linearGradient>
<linearGradient id="paint1_linear_88_4075" x1="24.1038" y1="17.5165" x2="3.19336" y2="18.462" gradientUnits="userSpaceOnUse">
<stop offset="0.1599" stop-color="#BFAB8D"/>
<stop offset="0.5078" stop-color="#E7E1D2"/>
<stop offset="0.7297" stop-color="#CCBFA6"/>
</linearGradient>
<linearGradient id="paint2_linear_88_4075" x1="31.128" y1="41.1815" x2="-3.69537" y2="37.5244" gradientUnits="userSpaceOnUse">
<stop stop-color="#94938C"/>
<stop offset="0.2296" stop-color="#EDEBE1"/>
<stop offset="0.7988" stop-color="#EDEBE1"/>
<stop offset="1" stop-color="#94938C"/>
</linearGradient>
<linearGradient id="paint3_linear_88_4075" x1="31.128" y1="41.1815" x2="-3.69537" y2="37.5244" gradientUnits="userSpaceOnUse">
<stop stop-color="#94938C"/>
<stop offset="0.2296" stop-color="#EDEBE1"/>
<stop offset="0.7988" stop-color="#EDEBE1"/>
<stop offset="1" stop-color="#94938C"/>
</linearGradient>
</defs>
</svg>
