<svg width="24" height="43" viewBox="0 0 24 43" fill="none" xmlns="http://www.w3.org/2000/svg">
<path d="M18.9464 2.9942C19.4799 1.25848 17.8629 0.441888 16.486 1.40774C13.8242 3.27457 12.435 6.43932 11.2223 9.34187C10.6606 10.6861 8.1712 15.382 9.75277 16.6463C11.3221 17.9007 16.9792 16.0234 17.0504 12.9199C17.089 11.2359 17.0336 9.54194 17.2591 7.86837C17.5041 6.04963 18.4233 4.69454 18.9464 2.9942Z" fill="url(#paint0_linear_88_4087)"/>
<path d="M3.153 26.9183C2.19078 20.6105 2.20619 12.9998 5.00985 7.16204C5.66131 5.80512 6.54823 4.56389 7.60482 3.49233C8.01947 3.07178 10.4892 0.546672 11.0087 1.1682C11.5381 1.80197 11.0595 3.21832 10.9656 3.92286C10.8086 5.10194 10.6598 6.28193 10.5369 7.46509C10.2878 9.86544 9.66766 12.4663 10.3164 14.8549C10.4593 15.3807 10.7896 15.9006 11.3076 16.0689C11.5812 16.1578 11.8793 16.1396 12.1601 16.0789C13.9376 15.6937 15.2237 13.9017 16.3166 12.587C17.8795 10.7074 18.7763 8.59609 19.5571 6.29826C19.9364 5.18224 20.3701 4.09797 21.3233 3.35441C21.5528 3.17522 22.016 2.75966 22.3698 2.84449C23.5348 3.12304 23.1324 6.26604 23.0902 6.98057C22.7636 12.5371 20.4753 20.0543 20.4753 20.0543C20.4753 20.0543 19.495 26.2641 20.4753 28.2253C21.4557 30.1865 4.46047 30.1865 3.153 26.9183Z" fill="url(#paint1_linear_88_4087)"/>
<mask id="mask0_88_4087" style="mask-type:alpha" maskUnits="userSpaceOnUse" x="0" y="24" width="23" height="19">
<path d="M2.1731 27.8986C2.1731 27.8982 4.78808 24.957 10.6713 24.957C16.5545 24.957 20.8036 26.9182 21.784 29.5327C22.7644 32.1472 23.0915 39.3379 19.4962 40.6454C18.3588 41.0591 17.1085 41.1616 16.0832 40.4285C15.2062 39.8015 14.8596 38.6492 13.5408 39.0766C12.966 39.2626 12.4919 39.6659 12.0047 40.0234C9.86244 41.5949 6.22171 43.2249 3.78186 41.3699C0.446463 38.8339 -0.731313 31.1664 2.1731 27.8986Z" fill="url(#paint2_linear_88_4087)"/>
</mask>
<g mask="url(#mask0_88_4087)">
<path d="M2.1731 27.8986C2.1731 27.8982 4.78808 24.957 10.6713 24.957C16.5545 24.957 20.8036 26.9182 21.784 29.5327C22.7644 32.1472 23.0915 39.3379 19.4962 40.6454C18.3588 41.0591 17.1085 41.1616 16.0832 40.4285C15.2062 39.8015 14.8596 38.6492 13.5408 39.0766C12.966 39.2626 12.4919 39.6659 12.0047 40.0234C9.86244 41.5949 6.22171 43.2249 3.78186 41.3699C0.446463 38.8339 -0.731313 31.1664 2.1731 27.8986Z" fill="url(#paint3_linear_88_4087)"/>
<path d="M4.29312 38.5C5.89312 38.3 7.59315 38.1 9.19315 37.9C9.19315 36.6 9.29312 35.2 9.29312 33.9C11.0931 33.9 12.9931 33.9 14.7931 34C14.6931 35.3 14.5931 36.5 14.5931 37.8C15.8931 37.9 17.0931 38 18.3931 38.1C19.8931 37.6 21.0931 37 22.1931 36.3L22.2931 36.2C22.2931 36.4 22.1931 36.6 22.1931 36.8C22.1931 36.9 22.1931 37 22.1931 37.1C22.0931 37.4 22.0931 37.7 21.9931 38C21.6931 38.3 21.4931 38.5 21.1931 38.8C21.1931 39.1 21.0931 39.5 20.7931 39.8C20.0931 40.5 18.9931 40.4 18.1931 40.4C16.7931 40.3 16.3931 39.8 14.7931 39.4C13.8931 39.2 13.0931 39.1 12.6931 39.1C12.0931 39.5 11.1931 39.9 10.1931 40.3C9.39315 40.6 8.59313 40.7 7.99313 40.8C6.89313 42 6.29313 42.1 5.99313 42C5.69313 41.9 5.59313 41.5 4.89313 41.2C4.59313 41 4.39313 41.1 3.99313 40.9C3.69313 40.8 3.19314 40.6 2.59314 40.2C2.49314 40 2.39314 39.7 2.09314 39.5C1.89314 39.4 1.79315 39.4 1.69315 39.2C1.49315 39 1.49313 38.8 1.39313 38.5C1.29313 38.3 1.19314 37.9 1.09314 37.4C1.49314 37.5 1.89312 37.6 2.29312 37.7C2.79312 38.1 3.49312 38.3 4.29312 38.5Z" fill="#CECECE"/>
<path d="M1.01562 36.6559C1.01562 36.6559 1.38671 38.2806 2.10849 39.3966C2.83026 40.5127 3.22544 41.2082 4.41131 41.7449C5.59763 42.2816 7.42811 42.4359 9.43874 41.4287C11.4494 40.4215 12.8103 39.4116 12.8103 39.4116C12.8103 39.4116 13.9944 38.4135 15.0786 39.378C16.1629 40.3426 16.2627 41.3529 18.8463 40.7962C21.4299 40.24 21.9621 37.5901 21.9621 37.5901C21.9621 37.5901 22.2193 36.5284 22.2329 36.4558C22.2465 36.3833 17.7552 37.7897 17.7552 37.7897L6.36837 38.5609L1.01562 36.6559Z" fill="#CECECE"/>
</g>
<defs>
<linearGradient id="paint0_linear_88_4087" x1="12.4094" y1="17.5422" x2="19.6197" y2="-17.8773" gradientUnits="userSpaceOnUse">
<stop offset="0.1599" stop-color="#BFAB8D"/>
<stop offset="0.5078" stop-color="#E7E1D2"/>
<stop offset="0.7297" stop-color="#CCBFA6"/>
</linearGradient>
<linearGradient id="paint1_linear_88_4087" x1="-2.36587" y1="15.2636" x2="22.5716" y2="15.3536" gradientUnits="userSpaceOnUse">
<stop offset="0.1599" stop-color="#BFAB8D"/>
<stop offset="0.5078" stop-color="#E7E1D2"/>
<stop offset="0.7297" stop-color="#CCBFA6"/>
</linearGradient>
<linearGradient id="paint2_linear_88_4087" x1="-4.688" y1="33.529" x2="27.8718" y2="33.6466" gradientUnits="userSpaceOnUse">
<stop stop-color="#94938C"/>
<stop offset="0.2296" stop-color="#EDEBE1"/>
<stop offset="0.7988" stop-color="#EDEBE1"/>
<stop offset="1" stop-color="#94938C"/>
</linearGradient>
<linearGradient id="paint3_linear_88_4087" x1="-4.688" y1="33.529" x2="27.8718" y2="33.6466" gradientUnits="userSpaceOnUse">
<stop stop-color="#94938C"/>
<stop offset="0.2296" stop-color="#EDEBE1"/>
<stop offset="0.7988" stop-color="#EDEBE1"/>
<stop offset="1" stop-color="#94938C"/>
</linearGradient>
</defs>
</svg>
