<svg width="25" height="40" viewBox="0 0 25 40" fill="none" xmlns="http://www.w3.org/2000/svg">
<path d="M9.3428 36.9656C9.04792 38.8188 10.2338 39.3097 11.1638 38.058C12.9612 35.6386 13.7946 32.1744 14.515 29.0101C14.8485 27.5447 16.3882 22.3171 15.206 21.369C14.0328 20.4285 10.1113 23.4694 10.2102 26.6034C10.2637 28.3033 10.3844 29.9945 10.305 31.7226C10.2188 33.6003 9.63224 35.15 9.3428 36.9656Z" fill="url(#paint0_linear_88_4092)"/>
<path d="M21.8142 13.656C21.8142 13.656 20.5067 17.2512 20.5067 21.1732C20.5067 25.0951 20.8334 29.9978 18.5455 33.5931C16.2577 37.1884 15.6039 38.8225 15.6039 38.8225C15.6039 38.8225 13.6428 41.1103 12.6624 38.4959C12.6624 38.4959 14.9502 30.6516 13.6427 26.7296C12.3353 22.8077 11.0278 24.1147 10.7012 24.7685C10.3745 25.4222 5.79839 32.9394 5.14466 34.9006C4.49092 36.8618 3.51054 38.8225 2.85681 38.8225C2.20308 38.8225 1.2227 37.1884 0.568963 34.2469C-0.0847722 31.3053 0.568966 28.0371 1.87644 25.7488C3.1839 23.461 4.49137 13.3289 4.49137 11.6948C4.49137 10.0607 20.1801 13.0022 21.8142 13.656Z" fill="url(#paint1_linear_88_4092)"/>
<mask id="mask0_88_4092" style="mask-type:alpha" maskUnits="userSpaceOnUse" x="3" y="0" width="22" height="16">
<path d="M14.2598 3.38725C14.5701 3.31376 14.8913 3.11097 15.2642 2.86553C16.2768 2.19819 17.3284 1.55444 18.4966 1.23007C19.6652 0.905695 20.9799 0.933821 22.0197 1.55762C22.751 1.99631 23.2927 2.69133 23.7387 3.41811C24.4364 4.55546 24.9513 5.87699 24.7912 7.2017C24.6088 8.71242 24.0095 10.2 23.3948 11.5801C23.0219 12.4171 22.7111 13.372 22.0392 14.0271C21.2553 14.7911 19.9374 14.8987 18.9044 15.0434C16.6824 15.3541 14.4512 15.0756 12.2818 14.5607C10.1251 14.0485 7.89623 13.4805 5.79893 12.7664C5.42194 12.638 5.04539 12.4897 4.72964 12.2474C3.84454 11.5674 3.66262 10.0217 3.44985 9.00186C3.12684 7.45167 3.32418 5.84887 3.95841 4.40393C4.77501 2.54344 6.33652 0.901157 8.40977 0.582227C9.89371 0.354032 11.2112 0.658445 12.2097 1.8085C12.5404 2.18958 12.8035 2.63235 13.161 2.99029C13.5548 3.38498 13.9 3.47254 14.2598 3.38725Z" fill="url(#paint2_linear_88_4092)"/>
</mask>
<g mask="url(#mask0_88_4092)">
<path d="M14.2598 3.38725C14.5701 3.31376 14.8913 3.11097 15.2642 2.86553C16.2768 2.19819 17.3284 1.55444 18.4966 1.23007C19.6652 0.905695 20.9799 0.933821 22.0197 1.55762C22.751 1.99631 23.2927 2.69133 23.7387 3.41811C24.4364 4.55546 24.9513 5.87699 24.7912 7.2017C24.6088 8.71242 24.0095 10.2 23.3948 11.5801C23.0219 12.4171 22.7111 13.372 22.0392 14.0271C21.2553 14.7911 19.9374 14.8987 18.9044 15.0434C16.6824 15.3541 14.4512 15.0756 12.2818 14.5607C10.1251 14.0485 7.89623 13.4805 5.79893 12.7664C5.42194 12.638 5.04539 12.4897 4.72964 12.2474C3.84454 11.5674 3.66262 10.0217 3.44985 9.00186C3.12684 7.45167 3.32418 5.84887 3.95841 4.40393C4.77501 2.54344 6.33652 0.901157 8.40977 0.582227C9.89371 0.354032 11.2112 0.658445 12.2097 1.8085C12.5404 2.18958 12.8035 2.63235 13.161 2.99029C13.5548 3.38498 13.9 3.47254 14.2598 3.38725Z" fill="url(#paint3_linear_88_4092)"/>
<path d="M24.7931 8.10003C24.8931 7.80003 24.8931 7.50002 24.9931 7.20002C25.1931 5.90002 24.5931 4.50001 23.8931 3.40001C23.5931 2.90001 23.1931 2.40002 22.7931 2.00002C21.2931 1.30002 19.2931 1.30003 17.6931 1.60003C16.8931 1.90003 16.1931 2.40001 15.3931 2.90001C14.9931 3.10001 14.6931 3.30001 14.3931 3.40001C13.9931 3.50001 13.6931 3.40002 13.2931 3.00002C12.8931 2.60002 12.6931 2.20002 12.2931 1.80002C11.2931 0.600023 9.99306 0.300026 8.49306 0.600026C6.39306 0.900026 4.89306 2.60001 3.99306 4.40001C3.69306 5.10001 3.49307 5.90002 3.39307 6.70002C3.39307 6.80002 3.39307 6.80001 3.39307 6.90001C4.69307 5.90001 5.89306 4.90002 7.19306 3.80002C8.29306 4.10002 9.29307 4.40002 10.3931 4.70002C10.2931 6.30002 10.1931 7.90003 10.1931 9.60003C12.2931 9.80003 14.4931 10.1 16.5931 10.3C16.6931 8.60002 16.7931 7.00002 16.9931 5.30002C18.2931 5.20002 19.5931 5.10002 20.8931 5.00002C21.9931 6.60002 23.1931 8.30001 24.2931 9.90001V9.80002C24.4931 9.10002 24.5931 8.60003 24.7931 8.10003Z" fill="#CECECE"/>
<path d="M24.8196 6.91158C24.8196 6.91158 25.0782 4.88549 23.1138 2.51642C21.1494 0.146908 18.3371 1.27201 18.3371 1.27201C18.3371 1.27201 16.0796 1.9135 14.8887 3.05039C13.6979 4.18729 12.5973 2.33586 12.5973 2.33586C12.5973 2.33586 11.4263 0.185921 9.16525 0.529349C6.90416 0.872777 5.92424 1.41537 4.81729 2.95966C3.71034 4.50395 3.54566 5.62724 3.54566 5.62724C3.54566 5.62724 3.32427 6.89071 3.34514 7.01229C3.36601 7.13388 7.31293 5.22846 7.40366 5.22846C7.49439 5.22846 19.8342 5.13773 19.8342 5.13773L24.5796 8.31705C24.5787 8.31659 24.8608 7.32487 24.8196 6.91158Z" fill="#CECECE"/>
</g>
<defs>
<linearGradient id="paint0_linear_88_4092" x1="13.2601" y1="21.0013" x2="13.236" y2="58.0706" gradientUnits="userSpaceOnUse">
<stop offset="0.1599" stop-color="#BFAB8D"/>
<stop offset="0.5078" stop-color="#E7E1D2"/>
<stop offset="0.7297" stop-color="#CCBFA6"/>
</linearGradient>
<linearGradient id="paint1_linear_88_4092" x1="19.9197" y1="25.4427" x2="3.16147" y2="25.5032" gradientUnits="userSpaceOnUse">
<stop stop-color="#BFAB8D"/>
<stop offset="0.5078" stop-color="#E7E1D2"/>
<stop offset="1" stop-color="#CCBFA6"/>
</linearGradient>
<linearGradient id="paint2_linear_88_4092" x1="31.1713" y1="7.77814" x2="-2.8684" y2="7.90111" gradientUnits="userSpaceOnUse">
<stop stop-color="#94938C"/>
<stop offset="0.2614" stop-color="#EDEBE1"/>
<stop offset="0.7687" stop-color="#EDEBE1"/>
<stop offset="1" stop-color="#94938C"/>
</linearGradient>
<linearGradient id="paint3_linear_88_4092" x1="31.1713" y1="7.77814" x2="-2.8684" y2="7.90111" gradientUnits="userSpaceOnUse">
<stop stop-color="#94938C"/>
<stop offset="0.2614" stop-color="#EDEBE1"/>
<stop offset="0.7687" stop-color="#EDEBE1"/>
<stop offset="1" stop-color="#94938C"/>
</linearGradient>
</defs>
</svg>
