<svg width="27" height="48" viewBox="0 0 27 48" fill="none" xmlns="http://www.w3.org/2000/svg">
<path d="M10.7558 41.6399C10.5539 43.597 11.8237 44.0421 12.7247 42.6783C14.4672 40.0425 15.1396 36.3678 15.7117 33.0139C15.9766 31.4609 17.2868 25.8999 15.9947 24.9758C14.7127 24.0589 10.783 27.4682 11.0665 30.7428C11.2203 32.5194 11.4445 34.2828 11.4608 36.0961C11.4785 38.0668 10.954 39.7227 10.7558 41.6399Z" fill="url(#paint0_linear_88_4097)"/>
<path d="M22.3861 19.3786C21.7006 21.3372 21.148 23.3814 20.8291 25.432C20.6145 26.8121 20.6463 28.0388 20.8559 29.4048C21.2084 31.7004 21.2338 34.0963 21.1349 36.4118C20.9806 40.0235 19.2481 42.7438 17.863 45.9925C17.354 47.1861 16.1767 47.8126 15.1097 46.7143C13.756 45.3215 14.1212 42.394 14.0672 40.6274C13.9937 38.2093 13.9447 35.7744 13.4611 33.3949C13.2528 32.3705 12.9602 31.3493 12.4254 30.451C11.8937 29.5577 10.911 29.1222 9.96964 29.7655C8.71615 30.6221 8.43352 32.4985 8.00072 33.8341C7.59469 35.0867 7.22676 36.3515 6.87153 37.6195C6.36978 39.4106 5.90568 41.2122 5.42751 43.0092C5.22926 43.7532 4.58233 45.5007 3.48853 44.7413C3.11925 44.4845 2.93687 44.0399 2.78308 43.6175C2.27814 42.2284 1.87483 40.8052 1.47242 39.3834C0.933011 37.4784 0.436703 35.5789 0.320564 33.595C0.162233 30.8902 1.2279 28.2176 1.74871 25.5994C2.30219 22.817 2.64788 19.9934 2.78035 17.1597C2.78897 16.9733 2.80349 16.7705 2.92916 16.6326C3.09928 16.4466 3.39099 16.4611 3.64096 16.4897C6.71275 16.8417 9.79089 17.128 12.8595 17.5118C14.9359 17.7699 17.0151 18.0431 19.0734 18.4223C19.9807 18.5897 21.6829 18.6759 22.3861 19.3786Z" fill="url(#paint1_linear_88_4097)"/>
<mask id="mask0_88_4097" style="mask-type:alpha" maskUnits="userSpaceOnUse" x="0" y="0" width="27" height="21">
<path d="M24.7836 15.133C24.8862 13.9063 24.858 12.6632 25.0917 11.4514C25.4564 9.56008 26.4114 7.91233 26.2762 5.90846C25.9505 1.08411 19.2085 0.711201 15.8187 2.04727C14.4092 2.60256 13.8308 2.07811 12.6458 1.32955C11.3619 0.518387 9.84712 0.09375 8.3296 0.09375C6.59433 0.09375 4.67939 0.587345 3.19727 1.49923C1.00469 2.84845 1.00651 5.06191 0.855897 7.38517C0.688948 9.95477 0.748372 12.602 1.59809 15.059C1.85804 15.8112 2.20237 16.5503 2.74405 17.1332C3.51392 17.9621 4.49475 18.0714 5.53501 18.311C6.95499 18.638 8.39084 18.9148 9.82216 19.1856C12.629 19.7169 15.4621 20.1492 18.318 20.2926C19.6722 20.3607 21.0745 20.2232 22.2771 19.5967C24.0188 18.6898 24.6289 16.984 24.7836 15.133Z" fill="url(#paint2_linear_88_4097)"/>
</mask>
<g mask="url(#mask0_88_4097)">
<path d="M24.7836 15.133C24.8862 13.9063 24.858 12.6632 25.0917 11.4514C25.4564 9.56008 26.4114 7.91233 26.2762 5.90846C25.9505 1.08411 19.2085 0.711201 15.8187 2.04727C14.4092 2.60256 13.8308 2.07811 12.6458 1.32955C11.3619 0.518387 9.84712 0.09375 8.3296 0.09375C6.59433 0.09375 4.67939 0.587345 3.19727 1.49923C1.00469 2.84845 1.00651 5.06191 0.855897 7.38517C0.688948 9.95477 0.748372 12.602 1.59809 15.059C1.85804 15.8112 2.20237 16.5503 2.74405 17.1332C3.51392 17.9621 4.49475 18.0714 5.53501 18.311C6.95499 18.638 8.39084 18.9148 9.82216 19.1856C12.629 19.7169 15.4621 20.1492 18.318 20.2926C19.6722 20.3607 21.0745 20.2232 22.2771 19.5967C24.0188 18.6898 24.6289 16.984 24.7836 15.133Z" fill="url(#paint3_linear_88_4097)"/>
<path d="M26.4931 5.89999C26.1931 1.09999 19.3931 0.7 15.9931 2C14.5931 2.6 13.9931 2 12.7931 1.3C11.4931 0.500003 9.99314 0.100006 8.49314 0.100006C6.79314 0.100006 4.79314 0.6 3.39314 1.5C1.19314 2.9 1.19314 5.09999 1.09314 7.39999C1.09314 7.49999 1.09314 7.50001 1.09314 7.60001C2.59314 6.40001 3.99314 5.30001 5.49314 4.10001C6.79314 4.40001 7.99314 4.80001 9.29314 5.10001C9.19314 7.00001 9.09314 8.8 8.99314 10.7C11.4931 11 13.9931 11.3 16.4931 11.5C16.5931 9.6 16.7931 7.7 16.8931 5.8C18.3931 5.7 19.8931 5.49999 21.3931 5.39999C22.6931 7.29999 23.9931 9.1 25.3931 11C25.3931 11 25.3931 11 25.3931 11.1C25.7931 9.30001 26.5931 7.69999 26.4931 5.89999Z" fill="#CECECE"/>
<path d="M26.2996 6.61096C26.2996 6.61096 26.6616 3.4525 23.5698 2.15545C20.4785 0.858395 17.4989 1.58337 17.4989 1.58337C17.4989 1.58337 16.1646 1.89005 15.6225 2.14547C15.0804 2.40088 14.3395 2.43718 13.4853 1.87462C12.631 1.31207 11.0264 0.230058 9.31064 0.158832C7.59487 0.0876051 6.35499 0.0390702 4.19236 0.994959C2.02973 1.95085 1.63369 3.18982 1.63369 3.18982C1.63369 3.18982 0.750849 4.87839 0.86109 7.7456C5.19043 4.89653 8.32073 4.57897 8.32073 4.57897L19.5263 5.25948L25.923 8.52592C25.9226 8.52547 26.3132 7.32777 26.2996 6.61096Z" fill="#CECECE"/>
</g>
<defs>
<linearGradient id="paint0_linear_88_4097" x1="13.9385" y1="24.714" x2="16.0481" y2="63.5193" gradientUnits="userSpaceOnUse">
<stop offset="0.1599" stop-color="#BFAB8D"/>
<stop offset="0.5078" stop-color="#E7E1D2"/>
<stop offset="0.7297" stop-color="#CCBFA6"/>
</linearGradient>
<linearGradient id="paint1_linear_88_4097" x1="19.8592" y1="33.2704" x2="2.365" y2="29.8663" gradientUnits="userSpaceOnUse">
<stop stop-color="#BFAB8D"/>
<stop offset="0.5078" stop-color="#E7E1D2"/>
<stop offset="1" stop-color="#CCBFA6"/>
</linearGradient>
<linearGradient id="paint2_linear_88_4097" x1="30.3616" y1="13.2168" x2="-2.93677" y2="6.7374" gradientUnits="userSpaceOnUse">
<stop stop-color="#94938C"/>
<stop offset="0.2114" stop-color="#EDEBE1"/>
<stop offset="0.847" stop-color="#EDEBE1"/>
<stop offset="1" stop-color="#94938C"/>
</linearGradient>
<linearGradient id="paint3_linear_88_4097" x1="30.3616" y1="13.2168" x2="-2.93677" y2="6.7374" gradientUnits="userSpaceOnUse">
<stop stop-color="#94938C"/>
<stop offset="0.2114" stop-color="#EDEBE1"/>
<stop offset="0.847" stop-color="#EDEBE1"/>
<stop offset="1" stop-color="#94938C"/>
</linearGradient>
</defs>
</svg>
