<svg width="29" height="51" viewBox="0 0 29 51" fill="none" xmlns="http://www.w3.org/2000/svg">
<path d="M19.5727 1.09074C20.8856 1.18011 21.8991 1.56525 22.977 2.30558C23.2687 2.50609 23.545 2.74787 23.4874 3.03457C23.2188 4.37371 13.3434 3.29769 13.4382 2.12322C13.4972 1.42552 16.7087 1.23817 17.4278 1.16106C18.2389 1.0735 18.9403 1.04764 19.5727 1.09074Z" fill="#D8D6D0"/>
<path d="M9.40185 46.4601C8.72635 48.6241 10.3214 49.5069 11.8031 48.2249C14.6675 45.7461 16.3252 41.7697 17.7833 38.1273C18.4583 36.4406 21.3568 30.5094 19.8316 29.0758C18.3181 27.6536 12.3856 30.362 12.0816 34.1682C11.9165 36.2328 11.8475 38.3033 11.4923 40.3688C11.1058 42.614 10.0642 44.3402 9.40185 46.4601Z" fill="url(#paint0_linear_88_4102)"/>
<path d="M26.1804 21.1845C25.9926 21.9589 25.8261 22.7469 25.7893 22.8993C25.474 24.2072 25.2005 25.5256 24.9809 26.853C24.8017 27.9377 24.6583 29.0288 24.5517 30.123C24.4483 31.1837 24.5386 32.3514 24.3367 33.3912C24.1375 34.416 23.7723 35.4912 23.4271 36.4811C22.3905 39.454 20.8203 42.2204 18.9558 44.7492C18.0203 46.0176 17.0086 47.2293 15.9407 48.3884C15.2847 49.1007 13.8901 51.2093 12.731 50.3333C12.296 50.0044 12.1213 49.4178 12.1494 48.873C12.1776 48.3281 12.3772 47.8091 12.5663 47.2974C14.0235 43.3491 15.409 38.4604 14.5897 34.2246C14.5044 33.7832 14.371 33.3272 14.0544 33.0083C13.6393 32.5905 12.9746 32.4966 12.4067 32.6531C11.8387 32.8096 11.3542 33.1812 10.9313 33.5913C9.48006 34.9999 8.44888 36.9801 7.56197 38.7812C6.89054 40.1449 6.39741 41.598 6.11387 43.0919C5.84258 44.5219 6.07304 46.2213 5.4987 47.5632C5.17705 48.3154 4.45981 48.9601 3.64185 48.9365C3.00536 48.9183 2.44191 48.5087 2.02227 48.0296C0.476182 46.2644 0.179934 43.4517 0.0896551 41.201C-0.0237611 38.3647 0.380005 35.5384 0.819606 32.7443C1.41799 28.9403 2.18695 25.1622 3.04574 21.409C3.07886 21.2634 3.54613 18.8957 3.64049 18.8984C3.64049 18.8984 26.5152 19.5331 26.7252 19.539C26.6082 19.5368 26.3823 20.3529 26.1804 21.1845Z" fill="url(#paint1_linear_88_4102)"/>
<path d="M8.28063 0.916723C9.4665 0.849133 10.4319 1.10815 11.5111 1.71011C11.8033 1.87296 12.0882 2.07891 12.0823 2.36786C12.0555 3.71966 3.0717 3.8308 2.96963 2.66181C2.91156 1.96686 5.74785 1.40165 6.37708 1.23971C7.08751 1.0578 7.70947 0.949383 8.28063 0.916723Z" fill="#D8D6D0"/>
<mask id="mask0_88_4102" style="mask-type:alpha" maskUnits="userSpaceOnUse" x="1" y="1" width="28" height="21">
<path d="M24.2222 1.96659C25.1754 2.06186 26.0732 2.42888 26.8467 3.2355C27.8434 4.27485 28.3424 5.71661 28.4658 7.1511C28.7303 10.2288 28.2036 13.889 27.4346 16.8705C27.1906 17.8168 27.1661 19.8057 26.5164 20.5361C24.4949 22.8085 20.053 21.7029 17.3651 21.5165C14.2865 21.3028 10.972 21.2007 8.21372 20.5361C6.38771 20.4445 3.03466 20.8487 2.48028 18.4338C1.84515 15.666 1.45364 12.8355 1.32343 9.99876C1.22544 7.87923 0.916042 2.6421 3.96286 2.23334C4.40881 2.17346 5.16145 2.67612 5.60831 2.77774C6.54059 2.98915 7.45019 2.96058 8.37567 2.71469C9.51392 2.41255 10.571 1.86814 11.662 1.4249C11.8993 1.32873 12.1461 1.23573 12.402 1.24254C12.9849 1.25842 13.4132 1.76335 13.8795 2.11358C15.8426 3.5889 19.3612 2.82356 21.5284 2.25693C22.4384 2.01876 23.3535 1.87994 24.2222 1.96659Z" fill="url(#paint2_linear_88_4102)"/>
<path d="M28.516 8.9749C28.516 8.9749 29.1058 4.25682 26.0426 2.61593C26.0426 2.61593 24.8445 1.5648 22.3915 2.03389C22.3915 2.03389 18.5753 3.03285 16.766 2.94121C14.9568 2.84957 13.9474 2.19085 13.5903 1.85242C13.2333 1.51399 12.8087 1.2232 12.4058 1.24316C12.0025 1.26267 11.2063 1.60744 11.0498 1.67096C10.8933 1.73447 8.82137 2.71574 8.01021 2.80511C7.19905 2.89448 6.15244 2.99383 5.2882 2.62365C4.42396 2.25346 4.36861 2.19811 3.78519 2.27478C3.20177 2.35145 2.40332 2.93258 2.09936 3.54911C1.79495 4.16609 1.11445 4.93732 1.29592 8.65734L8.14631 5.25488L22.21 5.75391L28.516 8.9749Z" fill="#CECECE"/>
</mask>
<g mask="url(#mask0_88_4102)">
<path d="M24.2222 1.96659C25.1754 2.06186 26.0732 2.42888 26.8467 3.2355C27.8434 4.27485 28.3424 5.71661 28.4658 7.1511C28.7303 10.2288 28.2036 13.889 27.4346 16.8705C27.1906 17.8168 27.1661 19.8057 26.5164 20.5361C24.4949 22.8085 20.053 21.7029 17.3651 21.5165C14.2865 21.3028 10.972 21.2007 8.21372 20.5361C6.38771 20.4445 3.03466 20.8487 2.48028 18.4338C1.84515 15.666 1.45364 12.8355 1.32343 9.99876C1.22544 7.87923 0.916042 2.6421 3.96286 2.23334C4.40881 2.17346 5.16145 2.67612 5.60831 2.77774C6.54059 2.98915 7.45019 2.96058 8.37567 2.71469C9.51392 2.41255 10.571 1.86814 11.662 1.4249C11.8993 1.32873 12.1461 1.23573 12.402 1.24254C12.9849 1.25842 13.4132 1.76335 13.8795 2.11358C15.8426 3.5889 19.3612 2.82356 21.5284 2.25693C22.4384 2.01876 23.3535 1.87994 24.2222 1.96659Z" fill="url(#paint3_linear_88_4102)"/>
<path d="M28.516 8.9749C28.516 8.9749 29.1058 4.25682 26.0426 2.61593C26.0426 2.61593 24.8445 1.5648 22.3915 2.03389C22.3915 2.03389 18.5753 3.03285 16.766 2.94121C14.9568 2.84957 13.9474 2.19085 13.5903 1.85242C13.2333 1.51399 12.8087 1.2232 12.4058 1.24316C12.0025 1.26267 11.2063 1.60744 11.0498 1.67096C10.8933 1.73447 8.82137 2.71574 8.01021 2.80511C7.19905 2.89448 6.15244 2.99383 5.2882 2.62365C4.42396 2.25346 4.36861 2.19811 3.78519 2.27478C3.20177 2.35145 2.40332 2.93258 2.09936 3.54911C1.79495 4.16609 1.11445 4.93732 1.29592 8.65734L8.14631 5.25488L22.21 5.75391L28.516 8.9749Z" fill="#CECECE"/>
<path d="M28.4721 6.10002C28.3721 4.70002 27.8721 3.20001 26.8721 2.20001C26.0721 1.40001 25.1721 1.00001 24.2721 0.900009C23.3721 0.800009 22.4721 1.00001 21.5721 1.20001C19.3721 1.80001 15.8721 2.50002 13.8721 1.10002C13.3721 0.700021 12.9721 0.200012 12.3721 0.200012C12.0721 0.200012 11.8721 0.300009 11.6721 0.400009C10.5721 0.800009 9.47211 1.40001 8.37211 1.70001C7.47211 1.90001 6.57211 2.00002 5.57211 1.80002C5.17211 1.70002 4.3721 1.20002 3.9721 1.30002C0.8721 1.70002 1.2721 7.00002 1.3721 9.10002C1.3721 9.10002 1.3721 9.10001 1.3721 9.20001C2.8721 7.80001 4.4721 6.30001 5.9721 4.90001C7.3721 5.20001 8.7721 5.40001 10.1721 5.70001C10.2721 7.70001 10.2721 9.80002 10.3721 11.8C13.1721 11.9 15.9721 12 18.6721 12.1C18.6721 10 18.6721 7.90002 18.6721 5.80002C20.3721 5.50002 21.9721 5.30002 23.6721 5.00002C25.2721 6.90002 26.8721 8.90002 28.5721 10.8C28.5721 10.7 28.5721 10.6 28.5721 10.5C28.5721 10.2 28.5721 9.80002 28.6721 9.30002C28.5721 8.10002 28.5721 7.10002 28.4721 6.10002Z" fill="#CECECE"/>
</g>
<defs>
<linearGradient id="paint0_linear_88_4102" x1="17.158" y1="28.1739" x2="9.39652" y2="72.4654" gradientUnits="userSpaceOnUse">
<stop offset="0.1599" stop-color="#BFAB8D"/>
<stop offset="0.5078" stop-color="#E7E1D2"/>
<stop offset="0.7297" stop-color="#CCBFA6"/>
</linearGradient>
<linearGradient id="paint1_linear_88_4102" x1="24.1385" y1="34.6649" x2="1.6116" y2="34.7463" gradientUnits="userSpaceOnUse">
<stop stop-color="#BFAB8D"/>
<stop offset="0.5078" stop-color="#E7E1D2"/>
<stop offset="1" stop-color="#CCBFA6"/>
</linearGradient>
<linearGradient id="paint2_linear_88_4102" x1="34.2411" y1="11.5348" x2="-4.60435" y2="11.6751" gradientUnits="userSpaceOnUse">
<stop stop-color="#94938C"/>
<stop offset="0.2296" stop-color="#EDEBE1"/>
<stop offset="0.7988" stop-color="#EDEBE1"/>
<stop offset="1" stop-color="#94938C"/>
</linearGradient>
<linearGradient id="paint3_linear_88_4102" x1="34.2411" y1="11.5348" x2="-4.60435" y2="11.6751" gradientUnits="userSpaceOnUse">
<stop stop-color="#94938C"/>
<stop offset="0.2296" stop-color="#EDEBE1"/>
<stop offset="0.7988" stop-color="#EDEBE1"/>
<stop offset="1" stop-color="#94938C"/>
</linearGradient>
</defs>
</svg>
