<svg width="17" height="64" viewBox="0 0 17 64" fill="none" xmlns="http://www.w3.org/2000/svg">
<path d="M14.4632 23.0586C14.4632 23.0586 6.29203 26.9806 4.00415 23.7123C4.09397 26.9238 4.14932 30.1372 4.19151 33.3496C4.27136 39.4582 4.30357 45.5727 4.12527 51.68C4.06267 53.8249 4.01276 55.9726 3.8077 58.1098C3.70336 59.1986 3.55954 60.2842 3.35403 61.3585C3.25966 61.853 2.97522 62.4355 3.20432 62.8869C3.50919 63.4871 4.29677 63.6232 4.84708 63.3524C5.6215 62.9713 6.13054 62.034 6.5148 61.3104C7.44166 59.5647 8.03959 57.6353 8.58038 55.7426C11.8487 44.3034 13.9596 26.5745 14.4632 23.0586Z" fill="url(#paint0_linear_88_4123)"/>
<mask id="mask0_88_4123" style="mask-type:alpha" maskUnits="userSpaceOnUse" x="0" y="0" width="17" height="29">
<path d="M15.7208 0.621553C14.9482 0.225045 13.7446 0.470027 12.898 0.462768C11.3274 0.449612 9.75678 0.454151 8.18662 0.499518C6.43226 0.55033 3.99288 0.3498 2.37054 1.16096C0.812627 1.93991 0.647028 3.88571 0.69421 5.41412C0.881123 11.4516 1.26993 17.8061 3.70524 23.4194C4.41842 25.063 5.41378 26.7217 6.97169 27.6889C9.38569 29.1878 12.149 28.319 13.525 25.9191C14.6265 23.9983 15.0503 21.7839 15.2812 19.6118C15.4558 17.9672 15.3465 16.3104 15.4631 14.6626C15.586 12.926 16.0982 11.2411 16.3781 9.52483C16.8205 6.81097 17.3558 3.97917 16.3446 1.32565C16.2148 0.983583 15.9948 0.762191 15.7208 0.621553Z" fill="url(#paint1_linear_88_4123)"/>
</mask>
<g mask="url(#mask0_88_4123)">
<path d="M15.7208 0.621553C14.9482 0.225045 13.7446 0.470027 12.898 0.462768C11.3274 0.449612 9.75678 0.454151 8.18662 0.499518C6.43226 0.55033 3.99288 0.3498 2.37054 1.16096C0.812627 1.93991 0.647028 3.88571 0.69421 5.41412C0.881123 11.4516 1.26993 17.8061 3.70524 23.4194C4.41842 25.063 5.41378 26.7217 6.97169 27.6889C9.38569 29.1878 12.149 28.319 13.525 25.9191C14.6265 23.9983 15.0503 21.7839 15.2812 19.6118C15.4558 17.9672 15.3465 16.3104 15.4631 14.6626C15.586 12.926 16.0982 11.2411 16.3781 9.52483C16.8205 6.81097 17.3558 3.97917 16.3446 1.32565C16.2148 0.983583 15.9948 0.762191 15.7208 0.621553Z" fill="url(#paint2_linear_88_4123)"/>
<path d="M16.2999 1.3C16.1999 1 15.9 0.700006 15.7 0.600006C15.4 0.500006 15.1 0.399994 14.7 0.399994C14.6 0.399994 14.3999 0.399994 14.2999 0.399994C13.7999 0.399994 13.2999 0.5 12.8999 0.5C11.2999 0.5 9.79995 0.5 8.19995 0.5C6.39995 0.6 3.99995 0.299997 2.39995 1.2C0.799948 2 0.699951 3.9 0.699951 5.5C0.699951 5.8 0.699951 6.09999 0.699951 6.39999C1.59995 5.49999 2.59994 4.6 3.49994 3.7C4.39994 3.8 5.29995 4.00001 6.09995 4.10001C6.19995 5.30001 6.29994 6.5 6.29994 7.7C7.99994 7.7 9.79994 7.7 11.4999 7.7C11.4999 6.4 11.3999 5.19999 11.3999 3.89999C12.3999 3.69999 13.3999 3.5 14.4999 3.3C15.2999 4.3 16.0999 5.39999 16.8999 6.39999C16.8999 4.69999 16.8999 3 16.2999 1.3Z" fill="#CECECE"/>
<path d="M16.9296 4.55556C16.9296 4.55556 16.8098 1.96148 16.2273 1.10359C15.6444 0.245708 15.178 0.420371 14.4812 0.401317C13.7843 0.38181 9.44366 0.481617 9.44366 0.481617L4.64704 0.581876C4.64704 0.581876 0.929243 0.52336 0.733259 4.01388L0.71875 5.68973L3.80368 2.74089L13.6029 2.51405L16.9296 4.55556Z" fill="#CECECE"/>
</g>
<defs>
<linearGradient id="paint0_linear_88_4123" x1="1.82391" y1="43.2449" x2="11.0571" y2="43.2782" gradientUnits="userSpaceOnUse">
<stop stop-color="#BFAB8D"/>
<stop offset="0.5078" stop-color="#E7E1D2"/>
<stop offset="1" stop-color="#CCBFA6"/>
</linearGradient>
<linearGradient id="paint1_linear_88_4123" x1="-2.02635" y1="14.3612" x2="20.167" y2="14.4414" gradientUnits="userSpaceOnUse">
<stop stop-color="#94938C"/>
<stop offset="0.2296" stop-color="#EDEBE1"/>
<stop offset="0.7988" stop-color="#EDEBE1"/>
<stop offset="1" stop-color="#94938C"/>
</linearGradient>
<linearGradient id="paint2_linear_88_4123" x1="-2.02635" y1="14.3612" x2="20.167" y2="14.4414" gradientUnits="userSpaceOnUse">
<stop stop-color="#94938C"/>
<stop offset="0.2296" stop-color="#EDEBE1"/>
<stop offset="0.7988" stop-color="#EDEBE1"/>
<stop offset="1" stop-color="#94938C"/>
</linearGradient>
</defs>
</svg>
