<svg width="17" height="66" viewBox="0 0 17 66" fill="none" xmlns="http://www.w3.org/2000/svg">
<path d="M3.29607 24.7148C3.29562 32.2489 1.76084 39.7289 1.4106 47.2575C1.26769 50.3261 1.03133 53.3938 1.07579 56.4678C1.11073 58.9045 0.924266 62.968 2.44362 65.043C3.08693 65.9195 4.99056 62.0175 5.17248 61.6428C6.31166 59.2969 7.01939 56.8031 7.89951 54.3551C8.86992 51.6554 9.85938 48.9388 10.6547 46.1805C11.7158 42.5004 12.3206 38.6673 12.9965 34.9024C13.1023 34.3126 14.0259 26.7309 14.4088 26.6765C14.4057 26.6765 5.25685 27.9826 3.29607 24.7148Z" fill="url(#paint0_linear_88_3972)"/>
<mask id="mask0_88_3972" style="mask-type:alpha" maskUnits="userSpaceOnUse" x="0" y="0" width="17" height="31">
<path d="M15.9054 0.672266C15.7566 0.53662 15.4939 0.508039 15.0076 0.467209C14.2636 0.405056 13.4905 0.459501 12.7447 0.460862C9.70467 0.46676 6.66466 0.526642 3.62464 0.526642C3.62464 0.526642 0.683051 1.18038 1.0097 2.81449C1.33634 4.44859 2.31717 24.7129 3.29754 26.0199C4.27792 27.3274 6.56575 31.5764 11.4685 30.269C16.3709 28.9615 15.3905 17.5228 15.3905 17.5223C15.2612 15.4504 15.782 13.1553 15.9231 11.0844C16.1327 8.00942 16.3119 4.90769 16.1358 1.82639C16.0973 1.15133 16.0832 0.834679 15.9054 0.672266Z" fill="url(#paint1_linear_88_3972)"/>
</mask>
<g mask="url(#mask0_88_3972)">
<path d="M15.9054 0.672266C15.7566 0.53662 15.4939 0.508039 15.0076 0.467209C14.2636 0.405056 13.4905 0.459501 12.7447 0.460862C9.70467 0.46676 6.66466 0.526642 3.62464 0.526642C3.62464 0.526642 0.683051 1.18038 1.0097 2.81449C1.33634 4.44859 2.31717 24.7129 3.29754 26.0199C4.27792 27.3274 6.56575 31.5764 11.4685 30.269C16.3709 28.9615 15.3905 17.5228 15.3905 17.5223C15.2612 15.4504 15.782 13.1553 15.9231 11.0844C16.1327 8.00942 16.3119 4.90769 16.1358 1.82639C16.0973 1.15133 16.0832 0.834679 15.9054 0.672266Z" fill="url(#paint2_linear_88_3972)"/>
<path d="M16.1218 1.79998C16.1218 1.09998 16.0218 0.799986 15.9218 0.599986C15.8218 0.499986 15.5218 0.399974 15.0218 0.399974C14.3218 0.299974 13.5218 0.399974 12.7218 0.399974C9.72178 0.399974 6.62177 0.49998 3.62177 0.49998C3.62177 0.49998 0.721768 1.19998 1.02177 2.79998C1.12177 3.19998 1.22177 4.49998 1.32177 6.29998C2.02177 5.39998 2.62177 4.59998 3.32177 3.69998C4.22177 3.79998 5.12178 3.99999 5.92178 4.09999C6.02178 5.29999 6.12177 6.49998 6.12177 7.69998C7.82177 7.69998 9.62177 7.69998 11.3218 7.69998C11.3218 6.39998 11.2218 5.19997 11.2218 3.89997C12.2218 3.69997 13.2218 3.49998 14.3218 3.29998C14.9218 4.39998 15.6218 5.39998 16.2218 6.49998C16.2218 4.99998 16.2218 3.39998 16.1218 1.79998Z" fill="#CECECE"/>
<path d="M16.2027 5.94402L13.0271 3.17651L4.27138 3.4941L1.27721 5.35422C1.27721 5.35422 1.1012 3.43149 1.07579 3.304C1.09575 3.31262 1.00683 2.81585 1.00683 2.81585C1.00683 2.81585 0.809029 2.07224 1.58751 1.46747C2.00307 1.13492 2.32743 0.953893 3.36723 0.590489L3.62128 0.527885L13.0874 0.466178C13.0874 0.466178 14.5155 0.364098 15.6311 0.54512C15.6311 0.54512 16.0539 0.555106 16.0825 1.13991C16.0943 1.3781 16.18 2.21651 16.2022 3.13115C16.2349 4.45955 16.2027 5.94402 16.2027 5.94402Z" fill="#CECECE"/>
</g>
<defs>
<linearGradient id="paint0_linear_88_3972" x1="13.3281" y1="44.9053" x2="-2.97744" y2="44.9642" gradientUnits="userSpaceOnUse">
<stop stop-color="#BFAB8D"/>
<stop offset="0.5078" stop-color="#E7E1D2"/>
<stop offset="1" stop-color="#CCBFA6"/>
</linearGradient>
<linearGradient id="paint1_linear_88_3972" x1="18.4621" y1="15.4532" x2="-1.08089" y2="15.5238" gradientUnits="userSpaceOnUse">
<stop stop-color="#94938C"/>
<stop offset="0.2296" stop-color="#EDEBE1"/>
<stop offset="0.7988" stop-color="#EDEBE1"/>
<stop offset="1" stop-color="#94938C"/>
</linearGradient>
<linearGradient id="paint2_linear_88_3972" x1="18.4621" y1="15.4532" x2="-1.08089" y2="15.5238" gradientUnits="userSpaceOnUse">
<stop stop-color="#94938C"/>
<stop offset="0.2296" stop-color="#EDEBE1"/>
<stop offset="0.7988" stop-color="#EDEBE1"/>
<stop offset="1" stop-color="#94938C"/>
</linearGradient>
</defs>
</svg>
