<svg width="17" height="64" viewBox="0 0 17 64" fill="none" xmlns="http://www.w3.org/2000/svg">
<path d="M3.20312 23.1055C3.20312 23.1055 11.3739 27.0274 13.6617 23.7592C13.5719 26.9707 13.5165 30.184 13.4743 33.3965C13.3945 39.5051 13.3623 45.6196 13.5406 51.7269C13.6032 53.8718 13.6531 56.0195 13.8581 58.1567C13.9625 59.2455 14.1063 60.3311 14.3118 61.4054C14.4061 61.8999 14.6906 62.4824 14.4615 62.9338C14.1566 63.534 13.3691 63.6701 12.8188 63.3993C12.0444 63.0182 11.5354 62.0809 11.1512 61.3573C10.2243 59.6116 9.62644 57.6821 9.08568 55.7894C5.81755 44.3502 3.70669 26.6214 3.20312 23.1055Z" fill="url(#paint0_linear_88_3980)"/>
<mask id="mask0_88_3980" style="mask-type:alpha" maskUnits="userSpaceOnUse" x="0" y="0" width="17" height="29">
<path d="M1.94317 0.668428C2.71578 0.27192 3.91938 0.516902 4.76593 0.509643C6.33655 0.496487 7.90717 0.501026 9.47733 0.546393C11.2317 0.597205 13.6711 0.396675 15.2934 1.20784C16.8513 1.98679 17.0169 3.93258 16.9697 5.461C16.7828 11.4984 16.394 17.853 13.9587 23.4663C13.2455 25.1099 12.2502 26.7686 10.6923 27.7358C8.27826 29.2347 5.51493 28.3659 4.13894 25.966C3.03742 24.0452 2.6137 21.8308 2.38278 19.6586C2.20811 18.0141 2.31746 16.3573 2.20086 14.7095C2.07792 12.9729 1.56573 11.2879 1.28581 9.5717C0.843479 6.85784 0.308134 4.02604 1.31937 1.37253C1.44912 1.03046 1.66915 0.809066 1.94317 0.668428Z" fill="url(#paint1_linear_88_3980)"/>
</mask>
<g mask="url(#mask0_88_3980)">
<path d="M1.94317 0.668428C2.71578 0.27192 3.91938 0.516902 4.76593 0.509643C6.33655 0.496487 7.90717 0.501026 9.47733 0.546393C11.2317 0.597205 13.6711 0.396675 15.2934 1.20784C16.8513 1.98679 17.0169 3.93258 16.9697 5.461C16.7828 11.4984 16.394 17.853 13.9587 23.4663C13.2455 25.1099 12.2502 26.7686 10.6923 27.7358C8.27826 29.2347 5.51493 28.3659 4.13894 25.966C3.03742 24.0452 2.6137 21.8308 2.38278 19.6586C2.20811 18.0141 2.31746 16.3573 2.20086 14.7095C2.07792 12.9729 1.56573 11.2879 1.28581 9.5717C0.843479 6.85784 0.308134 4.02604 1.31937 1.37253C1.44912 1.03046 1.66915 0.809066 1.94317 0.668428Z" fill="url(#paint2_linear_88_3980)"/>
<path d="M0.808355 1.57338C0.808355 0.810902 0.916749 0.484128 1.02515 0.266276C1.13354 0.157351 1.45873 0.0484115 2.00072 0.0484115C2.7595 -0.0605143 3.62668 0.0484115 4.49386 0.0484115C7.74578 0.0484115 11.1061 0.157344 14.358 0.157344C14.358 0.157344 17.5015 0.919828 17.1764 2.66264C17.068 3.09834 16.9595 4.51438 16.8511 6.47504C16.0924 5.49471 15.442 4.6233 14.6832 3.64297C13.7076 3.75189 12.7321 3.96975 11.8649 4.07868C11.7565 5.38579 11.6481 6.69289 11.6481 8C9.80533 8 7.85417 8 6.01141 8C6.01141 6.58396 6.11982 5.27685 6.11982 3.86082C5.03584 3.64296 3.95186 3.42512 2.75949 3.20727C2.10911 4.40545 1.35034 5.49471 0.699951 6.69289C0.699951 5.05901 0.699958 3.3162 0.808355 1.57338Z" fill="#CECECE"/>
<path d="M0.734375 4.60243C0.734375 4.60243 0.854146 2.00836 1.43667 1.15047C2.01965 0.292583 2.48602 0.467246 3.18287 0.448192C3.87973 0.428685 8.22054 0.528492 8.22054 0.528492L13.0173 0.628751C13.0173 0.628751 16.7352 0.570235 16.9312 4.06076L16.9457 5.7366L13.8607 2.78776L4.06119 2.56093L0.734375 4.60243Z" fill="#CECECE"/>
</g>
<defs>
<linearGradient id="paint0_linear_88_3980" x1="15.8418" y1="43.2918" x2="6.60904" y2="43.3251" gradientUnits="userSpaceOnUse">
<stop stop-color="#BFAB8D"/>
<stop offset="0.5078" stop-color="#E7E1D2"/>
<stop offset="1" stop-color="#CCBFA6"/>
</linearGradient>
<linearGradient id="paint1_linear_88_3980" x1="19.6903" y1="14.4081" x2="-2.50302" y2="14.4883" gradientUnits="userSpaceOnUse">
<stop stop-color="#94938C"/>
<stop offset="0.2296" stop-color="#EDEBE1"/>
<stop offset="0.7988" stop-color="#EDEBE1"/>
<stop offset="1" stop-color="#94938C"/>
</linearGradient>
<linearGradient id="paint2_linear_88_3980" x1="19.6903" y1="14.4081" x2="-2.50302" y2="14.4883" gradientUnits="userSpaceOnUse">
<stop stop-color="#94938C"/>
<stop offset="0.2296" stop-color="#EDEBE1"/>
<stop offset="0.7988" stop-color="#EDEBE1"/>
<stop offset="1" stop-color="#94938C"/>
</linearGradient>
</defs>
</svg>
