<svg width="29" height="50" viewBox="0 0 29 50" fill="none" xmlns="http://www.w3.org/2000/svg">
<path d="M9.23489 0.524432C7.92197 0.613804 6.90847 0.998957 5.83055 1.73934C5.53884 1.93986 5.26256 2.18167 5.32017 2.46838C5.58875 3.8076 15.4642 2.73152 15.3694 1.55698C15.3104 0.859238 12.0989 0.672318 11.3798 0.594741C10.5682 0.50673 9.86685 0.481334 9.23489 0.524432Z" fill="#D8D6D0"/>
<path d="M19.3981 45.8938C20.0736 48.0578 18.4785 48.9406 16.9969 47.6585C14.1326 45.1797 12.475 41.2034 11.017 37.5609C10.342 35.8742 7.44366 29.943 8.96881 28.5094C10.4822 27.0872 16.4145 29.7956 16.7184 33.6018C16.8835 35.6664 16.9525 37.7369 17.3077 39.8025C17.6942 42.0472 18.7362 43.7734 19.3981 45.8938Z" fill="url(#paint0_linear_88_3998)"/>
<path d="M2.62341 20.622C2.81123 21.3964 2.97774 22.1844 3.01449 22.3368C3.32979 23.6448 3.60337 24.9631 3.82294 26.2906C4.00214 27.3753 4.14549 28.4659 4.2521 29.5606C4.35554 30.6213 4.26526 31.789 4.46714 32.8288C4.6663 33.8536 5.03152 34.9288 5.37675 35.9187C6.41339 38.8916 7.98351 41.6581 9.84809 44.1868C10.7836 45.4553 11.7953 46.667 12.8632 47.8262C13.5192 48.5384 14.9138 50.6471 16.0729 49.771C16.508 49.4421 16.6826 48.8555 16.6545 48.3107C16.6264 47.7658 16.4268 47.2468 16.2376 46.7351C14.7804 42.7868 13.3949 37.8981 14.2142 33.6622C14.2995 33.2208 14.4329 32.7648 14.7495 32.4459C15.1646 32.0281 15.8293 31.9342 16.3973 32.0907C16.9653 32.2472 17.4498 32.6188 17.8726 33.0289C19.3239 34.4375 20.3551 36.4178 21.242 38.2188C21.9134 39.5826 22.4066 41.0357 22.6901 42.5296C22.9614 43.9595 22.7309 45.659 23.3053 47.0009C23.6269 47.7527 24.3442 48.3978 25.1617 48.3742C25.7982 48.356 26.3616 47.9464 26.7813 47.4673C28.3274 45.7021 28.6236 42.8893 28.7139 40.6387C28.8273 37.8024 28.4236 34.976 27.984 32.1819C27.3856 28.3779 26.6166 24.5997 25.7578 20.8466C25.7247 20.7009 25.2574 18.3332 25.163 18.3359C25.163 18.3359 2.28818 18.9706 2.07812 18.9765C2.19517 18.9743 2.42154 19.7904 2.62341 20.622Z" fill="url(#paint1_linear_88_3998)"/>
<path d="M20.5205 0.350318C19.3346 0.282716 18.3692 0.541781 17.29 1.14385C16.9978 1.30673 16.7129 1.51271 16.7188 1.80172C16.7456 3.15376 25.7294 3.26492 25.8315 2.09572C25.8896 1.40064 23.0533 0.835334 22.4241 0.673361C21.7132 0.491426 21.0912 0.382985 20.5205 0.350318Z" fill="#D8D6D0"/>
<mask id="mask0_88_3998" style="mask-type:alpha" maskUnits="userSpaceOnUse" x="0" y="0" width="28" height="22">
<path d="M4.57839 1.4002C3.62523 1.49547 2.72741 1.86249 1.9539 2.66912C0.957187 3.70849 0.458152 5.15025 0.334753 6.58476C0.0702637 9.66248 0.596974 13.3227 1.36595 16.3042C1.61002 17.2506 1.63453 19.2395 2.28418 19.9699C4.30574 22.2424 8.74762 21.1368 11.4356 20.9503C14.5142 20.7366 17.8287 20.6346 20.5871 19.9699C22.4131 19.8783 25.7662 20.2825 26.3205 17.8676C26.9557 15.0997 27.3467 12.2693 27.4774 9.43247C27.5754 7.31291 27.8848 2.07572 24.838 1.66696C24.392 1.60707 23.6394 2.10974 23.1925 2.21136C22.2602 2.42278 21.3506 2.3942 20.4251 2.14831C19.2869 1.84616 18.2298 1.30175 17.1387 0.85851C16.9015 0.762332 16.6547 0.669328 16.3988 0.676133C15.8158 0.692012 15.3875 1.19696 14.9212 1.54719C12.9581 3.02254 9.43948 2.25719 7.2723 1.69055C6.36269 1.45283 5.44762 1.31355 4.57839 1.4002Z" fill="url(#paint2_linear_88_3998)"/>
</mask>
<g mask="url(#mask0_88_3998)">
<path d="M4.57839 1.4002C3.62523 1.49547 2.72741 1.86249 1.9539 2.66912C0.957187 3.70849 0.458152 5.15025 0.334753 6.58476C0.0702637 9.66248 0.596974 13.3227 1.36595 16.3042C1.61002 17.2506 1.63453 19.2395 2.28418 19.9699C4.30574 22.2424 8.74762 21.1368 11.4356 20.9503C14.5142 20.7366 17.8287 20.6346 20.5871 19.9699C22.4131 19.8783 25.7662 20.2825 26.3205 17.8676C26.9557 15.0997 27.3467 12.2693 27.4774 9.43247C27.5754 7.31291 27.8848 2.07572 24.838 1.66696C24.392 1.60707 23.6394 2.10974 23.1925 2.21136C22.2602 2.42278 21.3506 2.3942 20.4251 2.14831C19.2869 1.84616 18.2298 1.30175 17.1387 0.85851C16.9015 0.762332 16.6547 0.669328 16.3988 0.676133C15.8158 0.692012 15.3875 1.19696 14.9212 1.54719C12.9581 3.02254 9.43948 2.25719 7.2723 1.69055C6.36269 1.45283 5.44762 1.31355 4.57839 1.4002Z" fill="url(#paint3_linear_88_3998)"/>
<path d="M0.100006 6.10002C0.200006 4.70002 0.700012 3.20001 1.70001 2.20001C2.50001 1.40001 3.40002 1.00001 4.30002 0.900009C5.20002 0.800009 6.1 1.00001 7 1.20001C9.2 1.80001 12.7 2.50002 14.7 1.10002C15.2 0.700021 15.6 0.200012 16.2 0.200012C16.5 0.200012 16.7 0.300009 16.9 0.400009C18 0.800009 19.1 1.40001 20.2 1.70001C21.1 1.90001 22 2.00002 23 1.80002C23.4 1.70002 24.2 1.20002 24.6 1.30002C27.7 1.70002 27.3 7.00002 27.2 9.10002C27.2 9.10002 27.2 9.10001 27.2 9.20001C25.7 7.80001 24.1 6.30001 22.6 4.90001C21.2 5.20001 19.8 5.40001 18.4 5.70001C18.3 7.70001 18.3 9.80002 18.2 11.8C15.4 11.9 12.6 12 9.90002 12.1C9.90002 10 9.90002 7.90002 9.90002 5.80002C8.20002 5.50002 6.60002 5.30002 4.90002 5.00002C3.30002 6.90002 1.7 8.90002 0 10.8C0 10.7 0 10.6 0 10.5C0 10.2 2.44156e-05 9.80002 -0.0999756 9.30002C2.44156e-05 8.10002 6.10203e-06 7.10002 0.100006 6.10002Z" fill="#CECECE"/>
<path d="M0.287772 8.40851C0.287772 8.40851 -0.301998 3.69042 2.76118 2.04953C2.76118 2.04953 3.95933 0.998406 6.41232 1.46749C6.41232 1.46749 10.2286 2.46645 12.0378 2.37481C13.8471 2.28317 14.8565 1.62446 15.2135 1.28603C15.5706 0.947595 15.9952 0.656791 16.3981 0.676752C16.8014 0.696259 17.5976 1.04105 17.7541 1.10456C17.9106 1.16807 19.9825 2.14934 20.7937 2.23872C21.6048 2.32809 22.6515 2.42744 23.5157 2.05725C24.3799 1.68706 24.4353 1.63171 25.0187 1.70838C25.6026 1.78505 26.4006 2.36619 26.7045 2.98272C27.0085 3.59924 27.6895 4.37092 27.508 8.09095L20.6576 4.68849L6.59379 5.18751L0.287772 8.40851Z" fill="#CECECE"/>
</g>
<defs>
<linearGradient id="paint0_linear_88_3998" x1="11.6354" y1="27.6009" x2="19.3972" y2="71.8924" gradientUnits="userSpaceOnUse">
<stop offset="0.1599" stop-color="#BFAB8D"/>
<stop offset="0.5078" stop-color="#E7E1D2"/>
<stop offset="0.7297" stop-color="#CCBFA6"/>
</linearGradient>
<linearGradient id="paint1_linear_88_3998" x1="4.66511" y1="34.1023" x2="27.1922" y2="34.1837" gradientUnits="userSpaceOnUse">
<stop stop-color="#BFAB8D"/>
<stop offset="0.5078" stop-color="#E7E1D2"/>
<stop offset="1" stop-color="#CCBFA6"/>
</linearGradient>
<linearGradient id="paint2_linear_88_3998" x1="-5.44032" y1="10.9687" x2="33.4055" y2="11.109" gradientUnits="userSpaceOnUse">
<stop stop-color="#94938C"/>
<stop offset="0.2296" stop-color="#EDEBE1"/>
<stop offset="0.7988" stop-color="#EDEBE1"/>
<stop offset="1" stop-color="#94938C"/>
</linearGradient>
<linearGradient id="paint3_linear_88_3998" x1="-5.44032" y1="10.9687" x2="33.4055" y2="11.109" gradientUnits="userSpaceOnUse">
<stop stop-color="#94938C"/>
<stop offset="0.2296" stop-color="#EDEBE1"/>
<stop offset="0.7988" stop-color="#EDEBE1"/>
<stop offset="1" stop-color="#94938C"/>
</linearGradient>
</defs>
</svg>
