<svg width="25" height="40" viewBox="0 0 25 40" fill="none" xmlns="http://www.w3.org/2000/svg">
<path d="M15.5292 36.7388C15.8241 38.592 14.6383 39.0829 13.7083 37.8312C11.9109 35.4119 11.0776 31.9477 10.3572 28.7834C10.0233 27.3181 8.48405 22.0905 9.66626 21.1424C10.8394 20.202 14.7603 23.2428 14.6619 26.3767C14.6083 28.0766 14.4877 29.7679 14.567 31.4959C14.6532 33.3736 15.2398 34.9233 15.5292 36.7388Z" fill="url(#paint0_linear_88_4010)"/>
<path d="M3.05469 13.4294C3.05469 13.4294 4.36215 17.0247 4.36215 20.9467C4.36215 24.8686 4.03554 29.7714 6.32335 33.3667C8.61116 36.9621 9.26488 38.5962 9.26488 38.5962C9.26488 38.5962 11.226 40.884 12.2064 38.2695C12.2064 38.2695 9.91858 30.4252 11.226 26.5032C12.5335 22.5813 13.8405 23.8883 14.1676 24.542C14.4942 25.1957 19.0703 32.713 19.724 34.6742C20.3777 36.6354 21.3581 38.5962 22.0118 38.5962C22.6655 38.5962 23.6459 36.9621 24.2997 34.0205C24.9534 31.0789 24.2997 27.8107 22.9922 25.5224C21.6847 23.2341 20.3773 13.1023 20.3773 11.4682C20.3773 9.8341 4.68877 12.7757 3.05469 13.4294Z" fill="url(#paint1_linear_88_4010)"/>
<mask id="mask0_88_4010" style="mask-type:alpha" maskUnits="userSpaceOnUse" x="0" y="0" width="22" height="15">
<path d="M10.6076 3.16069C10.2973 3.08719 9.97615 2.8844 9.60324 2.63897C8.59066 1.97162 7.53906 1.32788 6.37087 1.0035C5.20222 0.679132 3.88749 0.707258 2.84769 1.33105C2.11638 1.76975 1.57467 2.46477 1.12872 3.19155C0.430981 4.32889 -0.0838944 5.65042 0.0762498 6.97513C0.258624 8.48585 0.857885 9.97343 1.4726 11.3535C1.84552 12.1905 2.15627 13.1455 2.82815 13.8006C3.61209 14.5645 4.93001 14.6721 5.96301 14.8168C8.18507 15.1276 10.4162 14.849 12.5856 14.3341C14.7423 13.8219 16.9712 13.2539 19.0685 12.5398C19.4455 12.4114 19.8221 12.2631 20.1378 12.0208C21.0229 11.3408 21.2048 9.79513 21.4176 8.77529C21.7406 7.2251 21.5433 5.6223 20.9091 4.17737C20.0925 2.31687 18.5309 0.674594 16.4577 0.355665C14.9737 0.12747 13.6563 0.431882 12.6577 1.58193C12.327 1.96301 12.0639 2.40578 11.7064 2.76373C11.3126 3.15842 10.9674 3.24598 10.6076 3.16069Z" fill="url(#paint2_linear_88_4010)"/>
</mask>
<g mask="url(#mask0_88_4010)">
<path d="M10.6076 3.16069C10.2973 3.08719 9.97615 2.8844 9.60324 2.63897C8.59066 1.97162 7.53906 1.32788 6.37087 1.0035C5.20222 0.679132 3.88749 0.707258 2.84769 1.33105C2.11638 1.76975 1.57467 2.46477 1.12872 3.19155C0.430981 4.32889 -0.0838944 5.65042 0.0762498 6.97513C0.258624 8.48585 0.857885 9.97343 1.4726 11.3535C1.84552 12.1905 2.15627 13.1455 2.82815 13.8006C3.61209 14.5645 4.93001 14.6721 5.96301 14.8168C8.18507 15.1276 10.4162 14.849 12.5856 14.3341C14.7423 13.8219 16.9712 13.2539 19.0685 12.5398C19.4455 12.4114 19.8221 12.2631 20.1378 12.0208C21.0229 11.3408 21.2048 9.79513 21.4176 8.77529C21.7406 7.2251 21.5433 5.6223 20.9091 4.17737C20.0925 2.31687 18.5309 0.674594 16.4577 0.355665C14.9737 0.12747 13.6563 0.431882 12.6577 1.58193C12.327 1.96301 12.0639 2.40578 11.7064 2.76373C11.3126 3.15842 10.9674 3.24598 10.6076 3.16069Z" fill="url(#paint3_linear_88_4010)"/>
<path d="M0.138999 8.10003C0.0389992 7.80003 0.0390176 7.50002 -0.0609824 7.20002C-0.260982 5.90002 0.339024 4.50001 1.03902 3.40001C1.33902 2.90001 1.739 2.40002 2.139 2.00002C3.639 1.30002 5.63901 1.30003 7.23901 1.60003C8.03901 1.90003 8.73902 2.40001 9.53902 2.90001C9.93902 3.10001 10.239 3.30001 10.539 3.40001C10.939 3.50001 11.239 3.40002 11.639 3.00002C12.039 2.60002 12.239 2.20002 12.639 1.80002C13.639 0.600023 14.939 0.300026 16.439 0.600026C18.539 0.900026 20.039 2.60001 20.939 4.40001C21.239 5.10001 21.439 5.90002 21.539 6.70002C21.539 6.80002 21.539 6.80001 21.539 6.90001C20.239 5.90001 19.039 4.90002 17.739 3.80002C16.639 4.10002 15.639 4.40002 14.539 4.70002C14.639 6.30002 14.739 7.90003 14.739 9.60003C12.639 9.80003 10.439 10.1 8.33901 10.3C8.23901 8.60002 8.13902 7.00002 7.93902 5.30002C6.63902 5.20002 5.33902 5.10002 4.03902 5.00002C2.93902 6.60002 1.739 8.30001 0.638999 9.90001V9.80002C0.438999 9.10002 0.238999 8.60003 0.138999 8.10003Z" fill="#CECECE"/>
<path d="M0.0502961 6.68478C0.0502961 6.68478 -0.20831 4.65873 1.75606 2.28973C3.72042 -0.0797322 6.53269 1.04534 6.53269 1.04534C6.53269 1.04534 8.79012 1.68681 9.98099 2.82368C11.1719 3.96055 12.2724 2.10917 12.2724 2.10917C12.2724 2.10917 13.4434 -0.0402664 15.7044 0.302699C17.9655 0.646119 18.9454 1.1887 20.0523 2.73295C21.1593 4.27721 21.324 5.40047 21.324 5.40047C21.324 5.40047 21.5454 6.66391 21.5245 6.78549C21.5036 6.90707 17.5567 5.0017 17.466 5.0017C17.3753 5.0017 5.0356 4.91097 5.0356 4.91097L0.290242 8.09021C0.29115 8.08976 0.0090126 7.09806 0.0502961 6.68478Z" fill="#CECECE"/>
</g>
<defs>
<linearGradient id="paint0_linear_88_4010" x1="11.5976" y1="20.7763" x2="11.6218" y2="57.8451" gradientUnits="userSpaceOnUse">
<stop offset="0.1599" stop-color="#BFAB8D"/>
<stop offset="0.5078" stop-color="#E7E1D2"/>
<stop offset="0.7297" stop-color="#CCBFA6"/>
</linearGradient>
<linearGradient id="paint1_linear_88_4010" x1="4.9492" y1="25.2162" x2="21.7072" y2="25.2768" gradientUnits="userSpaceOnUse">
<stop stop-color="#BFAB8D"/>
<stop offset="0.5078" stop-color="#E7E1D2"/>
<stop offset="1" stop-color="#CCBFA6"/>
</linearGradient>
<linearGradient id="paint2_linear_88_4010" x1="-6.3039" y1="7.55157" x2="27.7359" y2="7.67454" gradientUnits="userSpaceOnUse">
<stop stop-color="#94938C"/>
<stop offset="0.2614" stop-color="#EDEBE1"/>
<stop offset="0.7687" stop-color="#EDEBE1"/>
<stop offset="1" stop-color="#94938C"/>
</linearGradient>
<linearGradient id="paint3_linear_88_4010" x1="-6.3039" y1="7.55157" x2="27.7359" y2="7.67454" gradientUnits="userSpaceOnUse">
<stop stop-color="#94938C"/>
<stop offset="0.2614" stop-color="#EDEBE1"/>
<stop offset="0.7687" stop-color="#EDEBE1"/>
<stop offset="1" stop-color="#94938C"/>
</linearGradient>
</defs>
</svg>
