<svg width="19" height="56" viewBox="0 0 19 56" fill="none" xmlns="http://www.w3.org/2000/svg">
<path d="M12.2841 33.8826C12.3671 33.9234 12.446 33.9697 12.5204 34.0218C13.9581 35.0258 15.1699 36.6536 16.084 38.1257C17.4731 40.3623 18.4648 42.9205 18.1976 45.5899C18.0153 47.4145 17.8106 49.5127 16.8988 51.1513C16.3662 52.1086 15.1689 52.5473 14.194 52.8866C13.3588 53.1774 12.5159 53.4505 11.697 53.7858C10.9408 54.0952 10.1986 54.6228 9.34658 54.5547C8.36712 54.4763 7.68299 53.7087 6.89951 53.2105C5.67007 52.4293 4.19837 52.0287 2.7421 52.0991C2.48623 52.1113 2.22402 52.1372 1.97858 52.0623C1.62064 51.9534 1.35887 51.6495 1.14792 51.341C0.187052 49.9373 0.212455 48.5772 0.204289 46.945C0.195669 45.2864 0.227879 43.6178 0.544085 41.9846C1.10709 39.0743 3.02973 36.6667 4.0405 33.9198C4.09857 33.7614 4.15663 33.5995 4.26324 33.4688C4.44562 33.2452 4.74413 33.1485 5.03175 33.1254C5.57071 33.0819 6.11375 33.1653 6.64772 33.2225C7.6603 33.3314 8.64885 33.4443 9.66688 33.5142C10.4744 33.57 11.5324 33.511 12.2841 33.8826Z" fill="url(#paint0_linear_88_4033)"/>
<path d="M12.2841 33.8826C12.3671 33.9234 12.446 33.9697 12.5204 34.0218C13.9581 35.0258 15.1699 36.6536 16.084 38.1257C17.4731 40.3623 18.4648 42.9205 18.1976 45.5899C18.0153 47.4145 17.8106 49.5127 16.8988 51.1513C16.3662 52.1086 15.1689 52.5473 14.194 52.8866C13.3588 53.1774 12.5159 53.4505 11.697 53.7858C10.9408 54.0952 10.1986 54.6228 9.34658 54.5547C8.36712 54.4763 7.68299 53.7087 6.89951 53.2105C5.67007 52.4293 4.19837 52.0287 2.7421 52.0991C2.48623 52.1113 2.22402 52.1372 1.97858 52.0623C1.62064 51.9534 1.35887 51.6495 1.14792 51.341C0.187052 49.9373 0.212455 48.5772 0.204289 46.945C0.195669 45.2864 0.227879 43.6178 0.544085 41.9846C1.10709 39.0743 3.02973 36.6667 4.0405 33.9198C4.09857 33.7614 4.15663 33.5995 4.26324 33.4688C4.44562 33.2452 4.74413 33.1485 5.03175 33.1254C5.57071 33.0819 6.11375 33.1653 6.64772 33.2225C7.6603 33.3314 8.64885 33.4443 9.66688 33.5142C10.4744 33.57 11.5324 33.511 12.2841 33.8826Z" fill="url(#paint1_linear_88_4033)"/>
<path d="M11.6 50.5C11.6 49.2 11.5 47.8 11.5 46.5C9.49997 46.5 7.59998 46.5 5.59998 46.6C5.69998 47.9 5.79997 49.1 5.79997 50.4C4.79997 50.5 3.89998 50.7 2.89998 50.8C1.99998 49.7 1.09998 48.6 0.0999756 47.5C0.0999756 48.8 0.199969 50 0.999969 51.2C1.19997 51.5 1.49997 51.8 1.79997 51.9C1.99997 52 2.29998 51.9 2.59998 51.9C4.09998 51.8 5.49997 52.2 6.79997 53C7.59997 53.5 8.29997 54.3 9.29997 54.3C10.2 54.4 10.9 53.8 11.7 53.5C12.5 53.2 13.4 52.9 14.2 52.6C15.2 52.3 16.4 51.8 16.9 50.9C17.2 50.3 17.4 49.8 17.6 49.2C17.8 48.4 18 47.5 18.1 46.6C17 48.1 16 49.5 14.9 51C13.8 50.9 12.7 50.7 11.6 50.5Z" fill="#CECECE"/>
<path d="M17.8775 47.904L12.7056 50.3085L4.17661 49.4919L0.192019 45.5898C0.192019 45.5898 -0.535663 49.0836 1.10526 51.2612C2.85053 53.6203 6.65455 56.2063 11.5778 55.0721C11.5778 55.0721 14.6945 54.9814 16.1249 53.1213C17.2423 51.7149 17.9065 48.0596 17.8775 47.904Z" fill="#CECECE"/>
<path d="M14.4259 35.7966C14.3896 35.8261 14.3461 35.8492 14.293 35.8638C14.0263 35.9386 13.2042 35.5362 12.9134 35.46C11.9493 35.2078 10.9744 34.9968 9.99354 34.8212C8.95417 34.6352 7.90436 34.4588 6.84593 34.4501C6.28565 34.4456 5.72219 34.4846 5.17369 34.6035C4.68645 34.7092 4.16154 35.0431 3.70016 35.0848C3.36398 33.7742 3.70514 32.2498 3.78317 30.9188C3.86982 29.4389 4.00594 27.9622 4.19058 26.4914C4.53719 23.7313 5.22586 21.0741 5.72808 18.3489C6.21715 15.6981 6.35325 12.8958 6.29472 10.1965C6.26705 8.92712 6.19038 7.65549 6.04475 6.39429C5.92089 5.31773 5.61059 4.35413 5.72083 3.23856C5.83289 2.10438 6.36505 0.386781 7.86263 0.851339C8.99001 1.20112 9.69184 2.441 10.2607 3.38373C11.3446 5.1789 12.1335 7.13467 12.8603 9.10133C13.5862 11.0653 14.2554 13.0632 14.6342 15.1265C14.9649 16.9262 14.9245 18.6878 14.8932 20.5048C14.8442 23.3892 14.7753 26.2732 14.7041 29.1572C14.6582 31.0181 14.7644 32.9594 14.6178 34.8466C14.5915 35.1996 14.6433 35.6188 14.4259 35.7966Z" fill="url(#paint2_linear_88_4033)"/>
<defs>
<linearGradient id="paint0_linear_88_4033" x1="-5.74555" y1="44.242" x2="24.4907" y2="43.3106" gradientUnits="userSpaceOnUse">
<stop stop-color="#94938C"/>
<stop offset="0.2666" stop-color="#EDEBE1"/>
<stop offset="0.7117" stop-color="#EDEBE1"/>
<stop offset="1" stop-color="#94938C"/>
</linearGradient>
<linearGradient id="paint1_linear_88_4033" x1="-5.74555" y1="44.242" x2="24.4907" y2="43.3106" gradientUnits="userSpaceOnUse">
<stop stop-color="#94938C"/>
<stop offset="0.2666" stop-color="#EDEBE1"/>
<stop offset="0.7117" stop-color="#EDEBE1"/>
<stop offset="1" stop-color="#94938C"/>
</linearGradient>
<linearGradient id="paint2_linear_88_4033" x1="0.790578" y1="19.3719" x2="15.1503" y2="17.8639" gradientUnits="userSpaceOnUse">
<stop stop-color="#BFAB8D"/>
<stop offset="0.5078" stop-color="#E7E1D2"/>
<stop offset="1" stop-color="#CCBFA6"/>
</linearGradient>
</defs>
</svg>
