<svg width="20" height="70" viewBox="0 0 20 70" fill="none" xmlns="http://www.w3.org/2000/svg">
<path d="M16.0306 45.477C16.0306 45.477 3.94926 42.4488 2.94531 44.1754L7.82442 9.62273C7.82442 9.62273 7.6729 0.742188 8.98035 0.742188C10.2878 0.742188 11.5952 4.66414 11.5952 4.66414C11.5952 4.66414 15.7394 37.2071 16.0306 45.477Z" fill="url(#paint0_linear_88_4042)"/>
<mask id="mask0_88_4042" style="mask-type:alpha" maskUnits="userSpaceOnUse" x="0" y="40" width="20" height="30">
<path d="M13.7187 41.8942C13.7191 41.8951 20.9093 51.3732 19.6018 59.2171C19.1799 61.7481 18.3162 64.3934 16.7905 66.4807C16.0465 67.4988 15.0797 68.4202 13.8607 68.8239C12.2483 69.3579 10.1792 68.9387 8.56274 68.578C7.76701 68.4007 6.98535 68.1561 6.24405 67.815C1.06136 65.4314 -0.307807 59.286 0.109113 54.0779C0.402182 50.4196 1.51277 46.8705 2.95634 43.5179C3.89271 41.343 6.07394 40.7732 8.25109 40.4652C9.88973 40.2333 12.6045 40.4257 13.7187 41.8942Z" fill="url(#paint1_linear_88_4042)"/>
</mask>
<g mask="url(#mask0_88_4042)">
<path d="M13.7187 41.8942C13.7191 41.8951 20.9093 51.3732 19.6018 59.2171C19.1799 61.7481 18.3162 64.3934 16.7905 66.4807C16.0465 67.4988 15.0797 68.4202 13.8607 68.8239C12.2483 69.3579 10.1792 68.9387 8.56274 68.578C7.76701 68.4007 6.98535 68.1561 6.24405 67.815C1.06136 65.4314 -0.307807 59.286 0.109113 54.0779C0.402182 50.4196 1.51277 46.8705 2.95634 43.5179C3.89271 41.343 6.07394 40.7732 8.25109 40.4652C9.88973 40.2333 12.6045 40.4257 13.7187 41.8942Z" fill="url(#paint2_linear_88_4042)"/>
<path d="M12.8 64.6C12.8 63.3 12.7 61.9 12.7 60.6C10.7 60.6 8.80005 60.6 6.80005 60.7C6.90005 62 7.00005 63.2 7.00005 64.5C6.00005 64.6 5.10005 64.8 4.10005 64.9C2.80005 63.4 1.60005 61.9 0.300049 60.4C1.00005 63.9 2.70004 67.1 6.20004 68.7C6.90004 69 7.70005 69.3 8.50005 69.5C10.1 69.9 12.2 70.3 13.8 69.7C15 69.3 16 68.4 16.7 67.4C18.2 65.4 19 62.9 19.5 60.5C18.3 62.1 17.2 63.7 16 65.2C15 65 13.9 64.8 12.8 64.6Z" fill="#CECECE"/>
<path d="M19.3068 60.2695L14.3618 64.0802L5.42455 63.4905L0.570312 60.451C0.570312 60.451 0.978613 62.81 2.38498 64.67C3.79135 66.53 7.87435 70.1139 13.1823 68.9797C13.1823 68.9797 14.9516 68.7529 16.494 66.8929C19.3068 63.8534 19.3068 60.2695 19.3068 60.2695Z" fill="#CECECE"/>
</g>
<defs>
<linearGradient id="paint0_linear_88_4042" x1="4.60597" y1="23.353" x2="14.2104" y2="23.0572" gradientUnits="userSpaceOnUse">
<stop stop-color="#BFAB8D"/>
<stop offset="0.5078" stop-color="#E7E1D2"/>
<stop offset="1" stop-color="#CCBFA6"/>
</linearGradient>
<linearGradient id="paint1_linear_88_4042" x1="-6.24028" y1="54.4259" x2="26.7124" y2="55.0149" gradientUnits="userSpaceOnUse">
<stop stop-color="#94938C"/>
<stop offset="0.0617" stop-color="#A4A29B"/>
<stop offset="0.1809" stop-color="#CCCAC2"/>
<stop offset="0.2666" stop-color="#EDEBE1"/>
<stop offset="0.7117" stop-color="#EDEBE1"/>
<stop offset="0.7719" stop-color="#E0DED5"/>
<stop offset="0.883" stop-color="#BEBDB4"/>
<stop offset="1" stop-color="#94938C"/>
</linearGradient>
<linearGradient id="paint2_linear_88_4042" x1="-6.24028" y1="54.4259" x2="26.7124" y2="55.0149" gradientUnits="userSpaceOnUse">
<stop stop-color="#94938C"/>
<stop offset="0.0617" stop-color="#A4A29B"/>
<stop offset="0.1809" stop-color="#CCCAC2"/>
<stop offset="0.2666" stop-color="#EDEBE1"/>
<stop offset="0.7117" stop-color="#EDEBE1"/>
<stop offset="0.7719" stop-color="#E0DED5"/>
<stop offset="0.883" stop-color="#BEBDB4"/>
<stop offset="1" stop-color="#94938C"/>
</linearGradient>
</defs>
</svg>
