<svg width="19" height="61" viewBox="0 0 19 61" fill="none" xmlns="http://www.w3.org/2000/svg">
<path d="M9.10549 3.70141C9.10549 3.70141 16.2799 19.3864 13.3464 35.8935C13.3464 35.8935 2.94415 34.6604 2.42969 37.484C3.8887 30.6169 4.58962 23.39 4.30244 16.38C4.1863 13.536 3.98533 10.696 3.90548 7.85063C3.85376 5.99786 3.53165 3.88105 4.32694 2.15531C4.66085 1.4299 5.21297 0.363794 6.11896 0.279412C7.65691 0.135147 8.64456 2.64119 9.10549 3.70141Z" fill="url(#paint0_linear_88_4046)"/>
<mask id="mask0_88_4046" style="mask-type:alpha" maskUnits="userSpaceOnUse" x="0" y="34" width="19" height="27">
<path d="M12.3715 34.7525C12.3715 34.7525 15.6397 36.06 16.6205 43.5772C16.6205 43.5772 17.6009 51.4215 17.9279 53.7094C18.255 55.9972 18.2546 58.9388 14.6598 59.9192C11.0645 60.8995 7.79639 60.2458 5.83522 59.5925C3.87404 58.9388 0.932494 56.9776 0.278771 54.6897C-0.374953 52.4019 0.278787 41.2894 1.25915 39.3282C2.2395 37.367 4.5273 32.1376 12.3715 34.7525Z" fill="url(#paint1_linear_88_4046)"/>
</mask>
<g mask="url(#mask0_88_4046)">
<path d="M12.3715 34.7525C12.3715 34.7525 15.6397 36.06 16.6205 43.5772C16.6205 43.5772 17.6009 51.4215 17.9279 53.7094C18.255 55.9972 18.2546 58.9388 14.6598 59.9192C11.0645 60.8995 7.79639 60.2458 5.83522 59.5925C3.87404 58.9388 0.932494 56.9776 0.278771 54.6897C-0.374953 52.4019 0.278787 41.2894 1.25915 39.3282C2.2395 37.367 4.5273 32.1376 12.3715 34.7525Z" fill="url(#paint2_linear_88_4046)"/>
<path d="M18.0931 53.7C17.1931 55 16.3931 56.3 15.4931 57.6C14.3931 57.4 13.2931 57.2 12.1931 57C12.1931 55.7 12.0931 54.3 12.0931 53C10.0931 53 8.19312 53 6.19312 53.1C6.29312 54.4 6.39311 55.6 6.39311 56.9C5.39311 57 4.49312 57.2 3.49312 57.3C2.39312 56 1.29312 54.7 0.193115 53.4C0.193115 54.4 0.293112 55.1 0.393112 55.6C1.09311 57.9 3.99312 59.9 5.99312 60.5C7.99312 61.2 11.1931 61.8 14.7931 60.8C18.3931 59.8 18.3931 56.9 18.0931 54.6C18.1931 54.4 18.1931 54.1 18.0931 53.7Z" fill="#CECECE"/>
<path d="M17.9275 54.0571L14.5704 56.6884L4.77128 56.0986L0.0078125 52.0156C0.0078125 52.0156 0.0572618 54.0834 0.0985451 54.1478C0.139828 54.2123 0.688307 57.4142 5.2703 59.3196C5.2703 59.3196 8.26448 60.7713 12.7104 60.3177C13.4535 60.0818 16.5933 60.2142 17.746 57.4142C18.5295 54.5625 17.9275 54.0571 17.9275 54.0571Z" fill="#CECECE"/>
</g>
<defs>
<linearGradient id="paint0_linear_88_4046" x1="5.0592" y1="18.8912" x2="14.0403" y2="19.0518" gradientUnits="userSpaceOnUse">
<stop stop-color="#BFAB8D"/>
<stop offset="0.5078" stop-color="#E7E1D2"/>
<stop offset="1" stop-color="#CCBFA6"/>
</linearGradient>
<linearGradient id="paint1_linear_88_4046" x1="22.5367" y1="47.8767" x2="-3.47337" y2="46.5736" gradientUnits="userSpaceOnUse">
<stop stop-color="#94938C"/>
<stop offset="0.1599" stop-color="#D1CFC6"/>
<stop offset="0.2296" stop-color="#EDEBE1"/>
<stop offset="0.7988" stop-color="#EDEBE1"/>
<stop offset="0.9762" stop-color="#9F9E96"/>
<stop offset="1" stop-color="#94938C"/>
</linearGradient>
<linearGradient id="paint2_linear_88_4046" x1="22.5367" y1="47.8767" x2="-3.47337" y2="46.5736" gradientUnits="userSpaceOnUse">
<stop stop-color="#94938C"/>
<stop offset="0.1599" stop-color="#D1CFC6"/>
<stop offset="0.2296" stop-color="#EDEBE1"/>
<stop offset="0.7988" stop-color="#EDEBE1"/>
<stop offset="0.9762" stop-color="#9F9E96"/>
<stop offset="1" stop-color="#94938C"/>
</linearGradient>
</defs>
</svg>
