<svg width="27" height="75" viewBox="0 0 27 75" fill="none" xmlns="http://www.w3.org/2000/svg">
<path d="M13.3738 0.864193C11.8209 2.38987 11.047 5.64311 10.2653 7.62926C7.87545 13.7011 6.05902 20.0071 5.00653 26.4505C4.48256 29.6575 4.14775 32.8962 4.02027 36.1435C3.95585 37.7767 3.94361 39.4117 3.9849 41.0458C4.01847 42.3833 3.79798 44.3281 4.35371 45.5412C5.03783 44.7682 5.52507 43.8386 6.2491 43.0951C8.01927 41.2768 10.308 39.9766 12.8925 39.9752C13.9835 39.9747 15.0555 40.1961 16.0748 40.5686C16.4886 40.7197 16.8932 40.8952 17.2875 41.0912C18.4375 41.6628 19.8216 43.3881 21.0456 43.4811C21.2243 41.0889 20.6191 38.4041 20.3919 36.0052C20.3919 29.9151 19.1887 23.4835 18.2773 17.4747C18.0033 15.6673 17.591 13.8839 17.6291 12.0511C17.6685 10.1589 17.8809 8.26893 17.7525 6.37533C17.6372 4.67998 17.4249 0.585643 15.09 0.325692C14.6309 0.274428 14.179 0.44455 13.7485 0.611952C13.6101 0.666392 13.4863 0.753952 13.3738 0.864193Z" fill="url(#paint0_linear_88_4054)"/>
<mask id="mask0_88_4054" style="mask-type:alpha" maskUnits="userSpaceOnUse" x="0" y="38" width="27" height="37">
<path d="M1.09428 69.5092C1.09428 69.5092 -1.1936 42.7082 10.8995 38.7858C10.8995 38.7858 24.6272 36.498 25.9342 60.3573C25.9714 61.0378 26.0771 61.7147 26.1062 62.3979C26.1688 63.8887 26.1148 65.3953 25.8576 66.867C25.5872 68.4127 25.0818 70.01 24.0311 71.2109C23.5216 71.7929 22.886 72.2548 22.1647 72.5379C21.5395 72.7833 20.8513 72.8754 20.1953 73.0101C19.3877 73.1762 18.5784 73.3322 17.7645 73.4629C17.3253 73.5332 16.8844 73.5967 16.4429 73.6498C14.8202 73.8453 13.1842 73.907 11.5505 73.9687C8.897 74.069 6.14684 74.201 3.66797 73.0659C2.20124 72.3954 1.09428 71.1905 1.09428 69.5092Z" fill="url(#paint1_linear_88_4054)"/>
</mask>
<g mask="url(#mask0_88_4054)">
<path d="M1.09428 69.5092C1.09428 69.5092 -1.1936 42.7082 10.8995 38.7858C10.8995 38.7858 24.6272 36.498 25.9342 60.3573C25.9714 61.0378 26.0771 61.7147 26.1062 62.3979C26.1688 63.8887 26.1148 65.3953 25.8576 66.867C25.5872 68.4127 25.0818 70.01 24.0311 71.2109C23.5216 71.7929 22.886 72.2548 22.1647 72.5379C21.5395 72.7833 20.8513 72.8754 20.1953 73.0101C19.3877 73.1762 18.5784 73.3322 17.7645 73.4629C17.3253 73.5332 16.8844 73.5967 16.4429 73.6498C14.8202 73.8453 13.1842 73.907 11.5505 73.9687C8.897 74.069 6.14684 74.201 3.66797 73.0659C2.20124 72.3954 1.09428 71.1905 1.09428 69.5092Z" fill="url(#paint2_linear_88_4054)"/>
<path d="M22.2932 72.1C21.6932 72.3 20.9932 72.4 20.2932 72.6C19.4932 72.8 18.6932 72.9 17.8932 73.1C17.4932 73.2 16.9932 73.2 16.5932 73.3C14.9932 73.5 13.2932 73.6 11.6932 73.6C8.99316 73.7 6.29317 73.8 3.79317 72.7C2.29317 72 1.19316 70.8 1.19316 69.1C1.19316 69.1 1.09316 67.6 0.993164 65.2C0.993164 65.1 1.09317 65 1.09317 64.9C2.19317 66.7 3.29316 68.5 4.39316 70.3C5.99316 70 7.59317 69.8 9.29317 69.5C9.29317 67.6 9.39316 65.7 9.39316 63.8C12.2932 63.8 15.0932 63.9 17.9932 63.9C17.8932 65.7 17.7932 67.5 17.5932 69.3C18.9932 69.5 20.3932 69.7 21.7932 69.8C23.2932 68 24.6932 66.3 26.1932 64.5C25.9932 65.7 25.7932 66.8 25.5932 68C25.2932 69 24.7932 70 24.0932 70.7C23.5932 71.3 22.9932 71.8 22.2932 72.1Z" fill="#CECECE"/>
<path d="M26.0736 64.9531L21.6277 67.8113L17.8622 67.7659L8.19917 67.6752L4.47911 67.403L1.03125 65.3161C1.03125 65.3161 1.04532 69.836 1.10475 69.9294C1.16418 70.0229 1.31933 73.6396 7.45698 73.9635C7.45698 73.9635 14.0387 74.4176 18.716 73.2408C18.716 73.2408 23.6791 73.3161 25.3477 69.2626C26.4819 65.1346 26.0736 64.9531 26.0736 64.9531Z" fill="#CECECE"/>
</g>
<defs>
<linearGradient id="paint0_linear_88_4054" x1="7.68753" y1="22.8944" x2="21.1683" y2="23.1354" gradientUnits="userSpaceOnUse">
<stop stop-color="#BFAB8D"/>
<stop offset="0.5078" stop-color="#E7E1D2"/>
<stop offset="1" stop-color="#CCBFA6"/>
</linearGradient>
<linearGradient id="paint1_linear_88_4054" x1="-3.98084" y1="56.3726" x2="31.041" y2="56.3905" gradientUnits="userSpaceOnUse">
<stop stop-color="#94938C"/>
<stop offset="0.2296" stop-color="#EDEBE1"/>
<stop offset="0.7876" stop-color="#EDEBE1"/>
<stop offset="1" stop-color="#94938C"/>
</linearGradient>
<linearGradient id="paint2_linear_88_4054" x1="-3.98084" y1="56.3726" x2="31.041" y2="56.3905" gradientUnits="userSpaceOnUse">
<stop stop-color="#94938C"/>
<stop offset="0.2296" stop-color="#EDEBE1"/>
<stop offset="0.7876" stop-color="#EDEBE1"/>
<stop offset="1" stop-color="#94938C"/>
</linearGradient>
</defs>
</svg>
