<svg width="24" height="35" viewBox="0 0 24 35" fill="none" xmlns="http://www.w3.org/2000/svg">
<path d="M6.94032 2.63095C6.40682 0.895205 8.02366 0.0785987 9.40052 1.04446C12.0622 2.91132 13.4513 6.07612 14.6639 8.97871C15.2255 10.3229 17.7148 15.0189 16.1333 16.2833C14.5641 17.5377 8.90739 15.6604 8.83617 12.5568C8.79761 10.8728 8.85295 9.17878 8.62748 7.50519C8.38251 5.68642 7.46339 4.33131 6.94032 2.63095Z" fill="url(#paint0_linear_91_12688)"/>
<path d="M22.73 26.5522C23.6923 20.2444 23.6768 12.6337 20.8732 6.79592C20.2217 5.439 19.3348 4.19777 18.2782 3.1262C17.8636 2.70566 15.3934 0.180547 14.8744 0.802071C14.345 1.43584 14.8236 2.85219 14.9175 3.55673C15.0745 4.73581 15.2233 5.9158 15.3462 7.09897C15.5953 9.49932 16.2154 12.1002 15.5667 14.4887C15.4238 15.0145 15.0935 15.5344 14.5754 15.7028C14.3019 15.7917 14.0038 15.7735 13.723 15.7127C11.9455 15.3276 10.6594 13.5356 9.56653 12.2209C8.00366 10.3413 7.10676 8.22996 6.32601 5.93214C5.94675 4.81612 5.51304 3.73185 4.55989 2.98829C4.33034 2.80909 2.08153 0.0498932 1.72767 0.134729C0.562666 0.41328 0.965066 3.55628 1.00726 4.27081C1.33389 9.82732 5.40779 19.6882 5.40779 19.6882C5.40779 19.6882 6.38816 25.898 5.40779 27.8592C4.42743 29.8209 21.423 29.8209 22.73 26.5522Z" fill="url(#paint1_linear_91_12688)"/>
<path d="M17.7272 27.1214L16.8752 32.7628C16.8752 32.7628 16.6733 34.1446 15.1748 34.2776C13.6759 34.4105 11.1108 34.3306 10.938 34.3043C10.7651 34.2776 9.81378 33.9323 9.58331 33.3475C9.35284 32.7628 8.60156 27.4054 8.60156 27.4054L8.89464 27.135L10.3037 33.0291C10.3037 33.0291 15.9238 29.5481 15.9529 29.5213C15.9819 29.4946 16.8176 27.0502 16.8176 27.0502L17.2785 27.0234L17.7272 27.1214Z" fill="url(#paint2_linear_91_12688)"/>
<path d="M12.1421 34.0637C12.1421 34.0637 10.0153 34.1018 9.76762 32.8837C9.51992 31.6656 8.85938 27.3063 8.85938 27.3063C8.85938 27.3063 8.92697 26.3201 10.0802 25.8709C11.2334 25.4218 12.2868 23.9941 12.3281 23.442C12.3694 22.8899 12.3281 11.6598 12.3281 11.6598C12.3281 11.6598 12.3499 10.9453 13.103 10.9453V34.0637C13.1025 34.0637 12.1898 34.0637 12.1421 34.0637Z" fill="#fff"/>
<path d="M14.0624 34.0637C14.0624 34.0637 16.1892 34.1018 16.4369 32.8837C16.6846 31.6656 17.3452 27.3063 17.3452 27.3063C17.3452 27.3063 17.2776 26.3201 16.1244 25.8709C14.9711 25.4218 13.9177 23.9941 13.8764 23.442C13.8351 22.8899 13.8764 11.6598 13.8764 11.6598C13.8764 11.6598 13.8547 10.9453 13.1016 10.9453V34.0637C13.102 34.0637 14.0148 34.0637 14.0624 34.0637Z" fill="#fff"/>
<path d="M12.2749 34.1106C12.2749 34.1106 10.1481 34.1487 9.90043 32.9306C9.65273 31.7125 8.99219 27.3532 8.99219 27.3532C8.99219 27.3532 9.05979 26.3669 10.213 25.9178C11.3662 25.4687 12.4196 24.041 12.4609 23.4889C12.5022 22.9368 12.4609 11.7067 12.4609 11.7067C12.4609 11.7067 12.4827 10.9922 13.2358 10.9922V34.1106C13.2353 34.1106 12.3226 34.1106 12.2749 34.1106Z" fill="#fff"/>
<path d="M14.1953 34.1106C14.1953 34.1106 16.3221 34.1487 16.5698 32.9306C16.8175 31.7125 17.4781 27.3532 17.4781 27.3532C17.4781 27.3532 17.4105 26.3669 16.2572 25.9178C15.104 25.4687 14.0505 24.041 14.0093 23.4889C13.968 22.9368 14.0093 11.7067 14.0093 11.7067C14.0093 11.7067 13.9875 10.9922 13.2344 10.9922V34.1106C13.2348 34.1106 14.1476 34.1106 14.1953 34.1106Z" fill="#fff"/>
<path d="M11.6036 25.7221C11.9525 25.5515 12.0972 25.1305 11.9266 24.7817L6.17098 13.0118C6.0004 12.6629 5.5794 12.5182 5.23053 12.6888C4.88167 12.8594 4.73695 13.2804 4.90752 13.6292L10.6632 25.3991C10.8337 25.748 11.2547 25.8927 11.6036 25.7221Z" fill="#fff"/>
<path d="M21.2645 10.9314C20.9029 10.7898 20.4951 10.9681 20.3531 11.3297L15.0017 24.9845C14.8602 25.3461 15.0384 25.7539 15.4 25.8959C15.7616 26.0375 16.1694 25.8592 16.3114 25.4976L21.6628 11.8428C21.8043 11.4812 21.626 11.0734 21.2645 10.9314Z" fill="#fff"/>
<defs>
<linearGradient id="paint0_linear_91_12688" x1="13.4784" y1="17.1767" x2="6.26749" y2="-18.2431" gradientUnits="userSpaceOnUse">
<stop offset="0.1599" stop-color="#BFAB8D"/>
<stop offset="0.5078" stop-color="#E7E1D2"/>
<stop offset="0.7297" stop-color="#CCBFA6"/>
</linearGradient>
<linearGradient id="paint1_linear_91_12688" x1="28.6768" y1="14.5864" x2="1.58407" y2="14.6842" gradientUnits="userSpaceOnUse">
<stop offset="0.1599" stop-color="#BFAB8D"/>
<stop offset="0.5078" stop-color="#E7E1D2"/>
<stop offset="0.7297" stop-color="#CCBFA6"/>
</linearGradient>
<linearGradient id="paint2_linear_91_12688" x1="17.7272" y1="30.6875" x2="8.60164" y2="30.6875" gradientUnits="userSpaceOnUse">
<stop stop-color="#94938C"/>
<stop offset="0.2296" stop-color="#EDEBE1"/>
<stop offset="0.7876" stop-color="#EDEBE1"/>
<stop offset="1" stop-color="#94938C"/>
</linearGradient>
</defs>
</svg>
