<svg width="13" height="45" viewBox="0 0 13 45" fill="none" xmlns="http://www.w3.org/2000/svg">
<path d="M5.60962 4.40453C5.60962 4.40453 -1.56477 20.0896 1.36868 36.5966C1.36868 36.5966 11.771 35.3636 12.2854 38.1872C10.8264 31.32 10.1255 24.0932 10.4122 17.0831C10.5288 14.2391 10.7293 11.3991 10.8092 8.55375C10.8609 6.70098 11.183 4.58418 10.3877 2.85844C10.0538 2.13303 9.50168 1.06692 8.5957 0.982537C7.05865 0.838272 6.07056 3.34432 5.60962 4.40453Z" fill="url(#paint0_linear_91_12482)"/>
<path d="M1.59375 36.5676L2.44568 42.6863C2.44568 42.6863 2.64755 44.1852 4.14594 44.329C5.64432 44.4728 8.20968 44.3866 8.38252 44.358C8.55536 44.329 9.50664 43.9547 9.73709 43.3205C9.96754 42.6863 10.7188 36.8751 10.7188 36.8751L10.4257 36.5821L9.01671 42.9748C9.01671 42.9748 3.39698 39.1993 3.36794 39.1703C3.33891 39.1412 2.5033 36.49 2.5033 36.49L2.04194 36.4609L1.59375 36.5676Z" fill="url(#paint1_linear_91_12482)"/>
<path d="M7.1796 44.099C7.1796 44.099 9.30639 44.1402 9.5541 42.8187C9.8018 41.4972 10.4623 36.7691 10.4623 36.7691C10.4623 36.7691 10.3948 35.6993 9.24154 35.2121C8.08786 34.7249 7.03488 33.1765 6.9936 32.5776C6.95231 31.9788 6.9936 19.7983 6.9936 19.7983C6.9936 19.7983 6.97184 19.0234 6.21875 19.0234V44.099C6.2192 44.099 7.13197 44.099 7.1796 44.099Z" fill="#fff"/>
<path d="M5.2593 44.099C5.2593 44.099 3.13251 44.1402 2.88481 42.8187C2.6371 41.4972 1.97656 36.7691 1.97656 36.7691C1.97656 36.7691 2.04414 35.6993 3.19737 35.2121C4.35105 34.7249 5.40402 33.1765 5.44531 32.5776C5.48659 31.9788 5.44531 19.7983 5.44531 19.7983C5.44531 19.7983 5.46706 19.0234 6.22015 19.0234V44.099C6.2197 44.099 5.30693 44.099 5.2593 44.099Z" fill="#fff"/>
<defs>
<linearGradient id="paint0_linear_91_12482" x1="9.65612" y1="19.5943" x2="0.675084" y2="19.7548" gradientUnits="userSpaceOnUse">
<stop stop-color="#BFAB8D"/>
<stop offset="0.5078" stop-color="#E7E1D2"/>
<stop offset="1" stop-color="#CCBFA6"/>
</linearGradient>
<linearGradient id="paint1_linear_91_12482" x1="1.59375" y1="40.4354" x2="10.7187" y2="40.4354" gradientUnits="userSpaceOnUse">
<stop stop-color="#94938C"/>
<stop offset="0.2296" stop-color="#EDEBE1"/>
<stop offset="0.7876" stop-color="#EDEBE1"/>
<stop offset="1" stop-color="#94938C"/>
</linearGradient>
</defs>
</svg>
