<svg width="14" height="49" viewBox="0 0 14 49" fill="none" xmlns="http://www.w3.org/2000/svg">
<path d="M0.65625 45.164C0.65625 45.164 12.7379 42.1357 13.7418 43.8628L8.86264 9.31021C8.86264 9.31021 5.44289 0.429688 4.13542 0.429688C2.82795 0.429688 1.52048 4.35164 1.52048 4.35164C1.52048 4.35164 0.947504 36.8941 0.65625 45.164Z" fill="url(#paint0_linear_91_12494)"/>
<path d="M2.69531 41.0363L3.54733 47.155C3.54733 47.155 3.74922 48.6539 5.24776 48.7977C6.7463 48.9416 9.31193 48.8554 9.48478 48.8268C9.65764 48.7977 10.609 48.4235 10.8395 47.7892C11.07 47.155 11.8213 41.3439 11.8213 41.3439L11.5282 41.0508L10.119 47.4435C10.119 47.4435 4.49873 43.6681 4.46969 43.639C4.44065 43.61 3.60495 40.9587 3.60495 40.9587L3.14355 40.9297L2.69531 41.0363Z" fill="url(#paint1_linear_91_12494)"/>
<path d="M8.28898 48.5677C8.28898 48.5677 10.4158 48.609 10.6635 47.2875C10.9112 45.9659 11.5717 41.2378 11.5717 41.2378C11.5717 41.2378 11.5041 40.1681 10.3509 39.6808C9.19723 39.1936 8.14426 37.6452 8.10297 37.0464C8.06169 36.4475 8.10297 24.2671 8.10297 24.2671C8.10297 24.2671 8.08121 23.4922 7.32812 23.4922V48.5677C7.32858 48.5677 8.24134 48.5677 8.28898 48.5677Z" fill="#fff"/>
<path d="M6.36086 48.5677C6.36086 48.5677 4.23407 48.609 3.98637 47.2875C3.73867 45.9659 3.07812 41.2378 3.07812 41.2378C3.07812 41.2378 3.14571 40.1681 4.29893 39.6808C5.45261 39.1936 6.50559 37.6452 6.54687 37.0464C6.58815 36.4475 6.54687 24.2671 6.54687 24.2671C6.54687 24.2671 6.56863 23.4922 7.32172 23.4922V48.5677C7.32126 48.5677 6.4085 48.5677 6.36086 48.5677Z" fill="#fff"/>
<defs>
<linearGradient id="paint0_linear_91_12494" x1="12.01" y1="23.0928" x2="2.11634" y2="22.7881" gradientUnits="userSpaceOnUse">
<stop stop-color="#BFAB8D"/>
<stop offset="0.5078" stop-color="#E7E1D2"/>
<stop offset="1" stop-color="#CCBFA6"/>
</linearGradient>
<linearGradient id="paint1_linear_91_12494" x1="2.69531" y1="44.9041" x2="11.8212" y2="44.9041" gradientUnits="userSpaceOnUse">
<stop stop-color="#94938C"/>
<stop offset="0.2296" stop-color="#EDEBE1"/>
<stop offset="0.7876" stop-color="#EDEBE1"/>
<stop offset="1" stop-color="#94938C"/>
</linearGradient>
</defs>
</svg>
