<svg width="14" height="51" viewBox="0 0 14 51" fill="none" xmlns="http://www.w3.org/2000/svg">
<path d="M0.817871 46.2729C0.817871 46.2729 12.9053 43.1943 13.9057 44.9455L9.01512 9.83794C9.01512 9.83794 5.59728 0.799805 4.29128 0.799805C2.98528 0.799805 1.67927 4.78224 1.67927 4.78224C1.67927 4.78224 1.12353 37.8844 0.817871 46.2729Z" fill="url(#paint0_linear_145_6606)"/>
<path d="M2.87402 42.0929L3.73544 48.3066C3.73544 48.3066 3.92994 49.8318 5.43046 49.9731C6.93097 50.1143 9.48741 50.0295 9.65413 50.0013C9.82085 49.9731 10.7656 49.5776 11.0157 48.9563C11.238 48.3067 11.9883 42.4036 11.9883 42.4036L11.6826 42.0929L10.2655 48.5891C10.2655 48.5891 4.65241 44.7479 4.62462 44.7196C4.59683 44.6914 3.76322 42.0082 3.76322 42.0082L3.29083 41.98L2.87402 42.0929Z" fill="url(#paint1_linear_145_6606)"/>
<path d="M8.45936 49.7469C8.45936 49.7469 10.599 49.7752 10.8213 48.4477C11.0713 47.092 11.7382 42.2905 11.7382 42.2905C11.7382 42.2905 11.6826 41.2172 10.5156 40.7088C9.34853 40.2004 8.32042 38.647 8.26485 38.0256C8.23706 37.4042 8.26485 25.0333 8.26485 25.0333C8.26485 25.0333 8.23706 24.2424 7.48682 24.2424V49.7469C7.48682 49.7469 8.40379 49.7469 8.45936 49.7469Z" fill="white"/>
<path d="M6.54208 49.7469C6.54208 49.7469 4.40246 49.7752 4.18016 48.4477C3.93007 47.092 3.26318 42.2905 3.26318 42.2905C3.26318 42.2905 3.31875 41.2172 4.48581 40.7088C5.65288 40.2004 6.68102 38.647 6.73659 38.0256C6.76438 37.4042 6.73659 25.0333 6.73659 25.0333C6.73659 25.0333 6.76438 24.2424 7.51463 24.2424V49.7469C7.48685 49.7469 6.56987 49.7469 6.54208 49.7469Z" fill="white"/>
<defs>
<linearGradient id="paint0_linear_145_6606" x1="12.1748" y1="23.8531" x2="2.28146" y2="23.5533" gradientUnits="userSpaceOnUse">
<stop stop-color="#C4AB89"/>
<stop offset="0.5078" stop-color="#E8E1D1"/>
<stop offset="1" stop-color="#D0BFA4"/>
</linearGradient>
<linearGradient id="paint1_linear_145_6606" x1="2.86302" y1="46.0193" x2="11.9879" y2="46.0193" gradientUnits="userSpaceOnUse">
<stop stop-color="#94938C"/>
<stop offset="0.2296" stop-color="#EDEBE0"/>
<stop offset="0.7876" stop-color="#EDEBE0"/>
<stop offset="1" stop-color="#94938C"/>
</linearGradient>
</defs>
</svg>
