<svg width="13" height="47" viewBox="0 0 13 47" fill="none" xmlns="http://www.w3.org/2000/svg">
<path d="M12.4398 38.9958C12.4398 38.9958 12.1064 27.6981 11.1338 24.7043C10.1612 21.7104 9.16089 11.7402 9.49434 9.08522C9.82779 6.43027 9.82779 2.44784 9.82779 2.44784C9.82779 2.44784 10.1612 -0.546046 7.21579 1.76998C4.27034 4.086 0.685757 15.3837 1.01921 20.044C1.35266 24.7043 1.43602 38.7134 1.40824 38.6851C1.40824 38.6851 4.1314 37.7248 6.24324 37.5554C7.46588 37.4424 9.63328 37.5271 12.4398 38.9958Z" fill="url(#paint0_linear_145_6611)"/>
<path d="M2.0752 38.4591C2.38085 40.7187 2.71429 42.9782 3.01995 45.2377C3.01995 45.2377 3.21447 46.7629 4.71498 46.9042C6.21549 47.0454 8.7719 46.9606 8.93863 46.9324C9.10535 46.9042 10.0501 46.5087 10.3002 45.8874C10.8837 44.2492 10.717 43.0065 11.2728 39.3347C11.3283 38.9675 11.3839 38.6568 11.4117 38.4874C11.0783 38.3744 10.7726 38.2332 10.4391 38.1202C10.1335 40.6057 9.8556 43.0629 9.54994 45.5484C9.54994 45.5484 3.93693 41.7072 3.90915 41.679C3.88136 41.6507 3.04775 38.9675 3.04775 38.9675C3.13111 38.6569 3.24226 38.3744 3.32562 38.0637C2.9366 38.2049 2.492 38.3179 2.0752 38.4591Z" fill="url(#paint1_linear_145_6611)"/>
<path d="M7.77138 46.6781C7.77138 46.6781 9.91099 46.7063 10.1333 45.3789C10.3834 44.0231 11.0503 39.2216 11.0503 39.2216C11.0503 39.2216 10.9947 38.1484 9.82762 37.64C8.66056 37.1316 7.63244 35.5781 7.57687 34.9568C7.54908 34.3354 7.57687 21.9644 7.57687 21.9644C7.57687 21.9644 7.54908 21.1736 6.79883 21.1736V46.6781C6.79883 46.6781 7.7158 46.6781 7.77138 46.6781Z" fill="white"/>
<path d="M5.82626 46.6781C5.82626 46.6781 3.68665 46.7063 3.46435 45.3789C3.21427 44.0231 2.54736 39.2216 2.54736 39.2216C2.54736 39.2216 2.60294 38.1484 3.77001 37.64C4.93707 37.1316 5.96518 35.5781 6.02076 34.9568C6.07633 34.3354 6.02076 21.9644 6.02076 21.9644C6.02076 21.9644 6.04856 21.1736 6.79881 21.1736V46.6781C6.79881 46.6781 5.88184 46.6781 5.82626 46.6781Z" fill="white"/>
<defs>
<linearGradient id="paint0_linear_145_6611" x1="11.5265" y1="19.9932" x2="-1.36576" y2="19.6025" gradientUnits="userSpaceOnUse">
<stop stop-color="#C4AB89"/>
<stop offset="0.5078" stop-color="#E8E1D1"/>
<stop offset="1" stop-color="#D0BFA4"/>
</linearGradient>
<linearGradient id="paint1_linear_145_6611" x1="2.07" y1="42.5322" x2="11.4436" y2="42.5322" gradientUnits="userSpaceOnUse">
<stop stop-color="#94938C"/>
<stop offset="0.2296" stop-color="#EDEBE0"/>
<stop offset="0.7876" stop-color="#EDEBE0"/>
<stop offset="1" stop-color="#94938C"/>
</linearGradient>
</defs>
</svg>
