<svg width="13" height="44" viewBox="0 0 13 44" fill="none" xmlns="http://www.w3.org/2000/svg">
<path d="M12.0455 38.0245C12.0455 38.0245 11.7189 26.9119 10.7381 23.9703C9.75782 21.0288 8.77708 11.2236 9.10414 8.6087C9.43076 5.99376 9.43074 2.07181 9.43074 2.07181C9.43074 2.07181 9.75735 -0.869772 6.81602 1.41807C3.87468 3.70592 0.279671 14.8185 0.606738 19.3942C0.933351 23.9699 1.03679 37.7586 0.98508 37.7283C0.93382 37.6979 12.0455 38.0245 12.0455 38.0245Z" fill="url(#paint0_linear_91_12504)"/>
<path d="M1.78906 36.0676L2.64104 42.1861C2.64104 42.1861 2.84292 43.6849 4.34139 43.8288C5.83985 43.9726 8.40535 43.8864 8.57819 43.8578C8.75104 43.8288 9.70238 43.4545 9.93284 42.8203C10.1633 42.1861 10.9146 36.3751 10.9146 36.3751L10.6215 36.0821L9.21242 42.4746C9.21242 42.4746 3.59238 38.6992 3.56335 38.6702C3.53432 38.6412 2.69866 35.99 2.69866 35.99L2.23728 35.9609L1.78906 36.0676Z" fill="url(#paint1_linear_91_12504)"/>
<path d="M7.38272 43.599C7.38272 43.599 9.5095 43.6403 9.7572 42.3187C10.0049 40.9972 10.6654 36.2691 10.6654 36.2691C10.6654 36.2691 10.5979 35.1993 9.44464 34.7121C8.29097 34.2249 7.238 32.6765 7.19672 32.0776C7.15543 31.4788 7.19672 19.2983 7.19672 19.2983C7.19672 19.2983 7.17496 18.5234 6.42188 18.5234V43.599C6.42233 43.599 7.33509 43.599 7.38272 43.599Z" fill="#fff"/>
<path d="M5.45497 43.599C5.45497 43.599 3.32795 43.6403 3.08022 42.3187C2.83249 40.9972 2.17188 36.2691 2.17188 36.2691C2.17188 36.2691 2.23946 35.1993 3.39281 34.7121C4.54662 34.2249 5.59971 32.6765 5.64099 32.0776C5.68228 31.4788 5.64099 19.2983 5.64099 19.2983C5.64099 19.2983 5.66275 18.5234 6.41592 18.5234V43.599C6.41547 43.599 5.50261 43.599 5.45497 43.599Z" fill="#fff"/>
<defs>
<linearGradient id="paint0_linear_91_12504" x1="11.1456" y1="19.3334" x2="-1.74588" y2="18.9364" gradientUnits="userSpaceOnUse">
<stop stop-color="#BFAB8D"/>
<stop offset="0.5078" stop-color="#E7E1D2"/>
<stop offset="1" stop-color="#CCBFA6"/>
</linearGradient>
<linearGradient id="paint1_linear_91_12504" x1="1.78906" y1="39.9353" x2="10.9145" y2="39.9353" gradientUnits="userSpaceOnUse">
<stop stop-color="#94938C"/>
<stop offset="0.2296" stop-color="#EDEBE1"/>
<stop offset="0.7876" stop-color="#EDEBE1"/>
<stop offset="1" stop-color="#94938C"/>
</linearGradient>
</defs>
</svg>
