<svg width="12" height="45" viewBox="0 0 12 45" fill="none" xmlns="http://www.w3.org/2000/svg">
<path d="M0.553617 36.5103C0.581404 36.5385 0.636978 36.5668 0.692552 36.5668C0.970423 36.6515 1.77625 36.2279 2.08191 36.1431C3.05446 35.8889 4.027 35.663 4.99955 35.4935C6.02768 35.2958 7.08356 35.1263 8.13947 35.1263C8.69522 35.1263 9.25096 35.1546 9.8067 35.2958C10.3069 35.4088 10.807 35.7477 11.2794 35.7759C11.6129 34.4485 11.2794 32.895 11.1961 31.5393C11.1127 30.0424 10.9738 28.5454 10.7792 27.0485C10.4458 24.2523 9.75113 21.5409 9.25096 18.773C8.75079 16.0898 8.63964 13.2371 8.69522 10.4974C8.723 9.19819 8.80637 7.9272 8.94531 6.62797C9.05646 5.52644 9.38992 4.56614 9.27877 3.40813C9.16762 2.25012 8.63965 0.498982 7.13915 0.979134C5.99987 1.34631 5.3052 2.58905 4.74946 3.54935C3.66576 5.38523 2.88772 7.36232 2.13747 9.36765C1.415 11.373 0.748123 13.4066 0.359103 15.4966C0.0256582 17.3325 0.0812256 19.1119 0.109013 20.976C0.164587 23.9134 0.220165 26.8508 0.303526 29.7599C0.3591 31.6523 0.247948 33.6294 0.386884 35.55C0.386884 35.8889 0.359107 36.3126 0.553617 36.5103Z" fill="url(#paint0_linear_145_6616)"/>
<path d="M1.30371 36.4538C1.58158 38.4309 1.83168 40.3797 2.10955 42.3568C2.10955 42.3568 2.30406 43.882 3.80458 44.0232C5.3051 44.1644 7.86156 44.0797 8.02828 44.0515C8.195 44.0232 9.13975 43.6278 9.38984 43.0064C9.9178 41.5377 9.97337 40.5209 10.3624 36.4538C10.3902 36.0584 10.4458 35.7477 10.4458 35.55C9.9456 35.3523 9.41764 35.1828 8.91746 34.9851C8.8341 37.5553 8.75074 40.0973 8.63959 42.6675C8.63959 42.6675 3.02652 38.8263 2.99874 38.798C2.97095 38.7698 2.13733 36.0866 2.13733 36.0866C2.10955 36.1149 2.08177 36.1713 2.02619 36.1996C1.83168 36.2561 1.58158 36.3408 1.30371 36.4538Z" fill="url(#paint1_linear_145_6616)"/>
<path d="M6.86124 43.7689C6.86124 43.7689 9.00089 43.7972 9.22319 42.4697C9.44549 41.1422 10.1402 36.3124 10.1402 36.3124C10.1402 36.3124 10.0846 35.2392 8.91753 34.7308C7.75045 34.2224 6.72232 32.6689 6.66674 32.0476C6.63895 31.4262 6.66674 19.0552 6.66674 19.0552C6.66674 19.0552 6.63894 18.2644 5.88867 18.2644V43.7407C5.88867 43.7689 6.80566 43.7689 6.86124 43.7689Z" fill="white"/>
<path d="M4.94385 43.7689C4.94385 43.7689 2.80427 43.7972 2.58198 42.4697C2.35969 41.1422 1.66504 36.3124 1.66504 36.3124C1.66504 36.3124 1.72062 35.2392 2.88766 34.7308C4.0547 34.2224 5.0828 32.6689 5.13837 32.0476C5.16616 31.4262 5.13837 19.0552 5.13837 19.0552C5.13837 19.0552 5.16614 18.2644 5.91638 18.2644V43.7407C5.8886 43.7689 4.97163 43.7689 4.94385 43.7689Z" fill="white"/>
<defs>
<linearGradient id="paint0_linear_145_6616" x1="14.1979" y1="19.81" x2="-0.165661" y2="18.326" gradientUnits="userSpaceOnUse">
<stop stop-color="#C4AB89"/>
<stop offset="0.5078" stop-color="#E8E1D1"/>
<stop offset="1" stop-color="#D0BFA4"/>
</linearGradient>
<linearGradient id="paint1_linear_145_6616" x1="1.31419" y1="39.5325" x2="10.49" y2="39.5325" gradientUnits="userSpaceOnUse">
<stop stop-color="#94938C"/>
<stop offset="0.2296" stop-color="#EDEBE0"/>
<stop offset="0.7876" stop-color="#EDEBE0"/>
<stop offset="1" stop-color="#94938C"/>
</linearGradient>
</defs>
</svg>
