<svg width="25" height="37" viewBox="0 0 25 37" fill="none" xmlns="http://www.w3.org/2000/svg">
<path d="M13.3926 1.92712C13.3926 1.92712 14.2986 -0.127076 16.1323 0.387379C17.9665 0.901833 18.6003 5.6957 18.2682 9.22974C17.9366 12.7638 16.3646 23.9765 13.6621 24.2074C10.9596 24.4383 6.01728 18.0875 8.26567 14.5494C10.515 11.0117 14.2351 4.80108 13.3926 1.92712Z" fill="url(#paint0_linear_91_12655)"/>
<path d="M1.5731 32.3777C4.77195 32.1472 8.40181 30.5834 11.6066 30.4569C13.6168 30.3775 15.6279 30.2445 17.6404 30.309C18.5709 30.3384 19.9546 32.8191 20.857 32.7043C21.4422 32.6299 21.0562 30.2264 21.0321 29.6044C21.0117 29.075 20.9668 28.5478 21.0443 28.0202C21.3229 26.1184 22.3691 24.3128 22.8041 22.4111C23.3077 20.2113 23.648 17.9688 23.8571 15.7222C24.079 13.3391 24.1724 10.9048 23.8608 8.52483C23.7265 7.49864 23.5432 6.45657 23.1358 5.49888C22.8187 4.75351 22.0497 3.29043 21.067 3.40248C20.7064 3.44377 20.3834 3.64883 20.1134 3.89244C19.5844 4.37015 19.216 5.0062 18.9724 5.67626C18.4702 7.05858 18.4811 8.54706 18.3845 9.99516C18.2846 11.4882 17.8777 12.8709 17.5429 14.32C16.9214 17.0125 16.1873 20.1813 14.4234 22.3884C13.9943 22.9255 13.3491 23.3602 12.6645 23.2953C12.3134 23.2617 11.9854 23.1002 11.6986 22.8947C10.6656 22.1539 10.1403 20.8754 9.96109 19.617C9.59406 17.0383 9.87035 14.1938 10.5595 11.6941C10.9637 10.227 11.7105 8.91317 12.1669 7.47867C12.6491 5.96207 13.3033 2.95336 11.1651 2.37584C10.3023 2.14266 9.38355 2.58362 8.73842 3.20242C6.34665 5.4957 4.73113 8.905 3.34788 11.8611C2.4995 13.6735 1.68061 15.5471 1.15843 17.4843C0.844489 18.6488 0.878074 19.8093 0.911192 21.012C1.0042 24.3741 1.19927 29.0446 1.5731 32.3777Z" fill="url(#paint1_linear_91_12655)"/>
<path d="M7.53906 28.9816L8.39104 35.1003C8.39104 35.1003 8.59292 36.5992 10.0914 36.7431C11.5898 36.8869 14.1553 36.8007 14.3282 36.7721C14.501 36.7435 15.4524 36.3688 15.6828 35.7345C15.9133 35.1003 16.6646 29.2892 16.6646 29.2892L16.3715 28.9961L14.9624 35.3888C14.9624 35.3888 9.34238 31.6134 9.31334 31.5843C9.28431 31.5553 8.44865 28.904 8.44865 28.904L7.98728 28.875L7.53906 28.9816Z" fill="url(#paint2_linear_91_12655)"/>
<path d="M13.1245 36.513C13.1245 36.513 15.2513 36.5543 15.499 35.2328C15.7467 33.9112 16.4072 29.1831 16.4072 29.1831C16.4072 29.1831 16.3396 28.1134 15.1864 27.6261C14.0332 27.1389 12.9802 25.5905 12.9389 24.9917C12.8976 24.3929 12.9389 12.2124 12.9389 12.2124C12.9389 12.2124 12.9172 11.4375 12.1641 11.4375V36.513C12.1641 36.513 13.0764 36.513 13.1245 36.513Z" fill="#fff"/>
<path d="M11.2046 36.513C11.2046 36.513 9.07782 36.5543 8.83011 35.2328C8.58241 33.9112 7.92188 29.1831 7.92188 29.1831C7.92188 29.1831 7.98948 28.1134 9.1427 27.6261C10.2964 27.1389 11.3493 25.5905 11.3906 24.9917C11.4319 24.3929 11.3906 12.2124 11.3906 12.2124C11.3906 12.2124 11.4124 11.4375 12.1655 11.4375V36.513C12.1655 36.513 11.2527 36.513 11.2046 36.513Z" fill="#fff"/>
<path d="M12.8849 28.8315C12.5365 28.66 12.3931 28.2385 12.5646 27.8901L18.3961 16.049C18.5676 15.7006 18.9891 15.5572 19.3375 15.7287C19.6859 15.9002 19.8292 16.3216 19.6577 16.6701L13.8263 28.5112C13.6548 28.8596 13.2333 29.0029 12.8849 28.8315Z" fill="#fff"/>
<path d="M7.71282 15.988C8.09073 15.8981 8.46953 16.1318 8.55936 16.5097L11.6076 29.3521C11.6974 29.73 11.4638 30.1089 11.0859 30.1987C10.7079 30.2885 10.3291 30.0549 10.2393 29.677L7.19109 16.8345C7.10127 16.4571 7.33491 16.0778 7.71282 15.988Z" fill="#fff"/>
<defs>
<linearGradient id="paint0_linear_91_12655" x1="9.89145" y1="23.1678" x2="28.453" y2="-22.1974" gradientUnits="userSpaceOnUse">
<stop offset="0.1599" stop-color="#BFAB8D"/>
<stop offset="0.5078" stop-color="#E7E1D2"/>
<stop offset="0.7297" stop-color="#CCBFA6"/>
</linearGradient>
<linearGradient id="paint1_linear_91_12655" x1="22.7606" y1="17.1922" x2="1.84975" y2="18.1377" gradientUnits="userSpaceOnUse">
<stop offset="0.1599" stop-color="#BFAB8D"/>
<stop offset="0.5078" stop-color="#E7E1D2"/>
<stop offset="0.7297" stop-color="#CCBFA6"/>
</linearGradient>
<linearGradient id="paint2_linear_91_12655" x1="7.53887" y1="32.8494" x2="16.6643" y2="32.8494" gradientUnits="userSpaceOnUse">
<stop stop-color="#94938C"/>
<stop offset="0.2296" stop-color="#EDEBE1"/>
<stop offset="0.7876" stop-color="#EDEBE1"/>
<stop offset="1" stop-color="#94938C"/>
</linearGradient>
</defs>
</svg>
