<svg width="20" height="34" viewBox="0 0 20 34" fill="none" xmlns="http://www.w3.org/2000/svg">
<path d="M10.6112 4.24183C11.132 2.50249 12.9302 2.72161 13.538 4.28947C14.7134 7.32039 14.1101 10.7238 13.5058 13.8109C13.2259 15.2404 12.6861 20.5283 10.6688 20.7007C8.66736 20.8718 5.00746 16.1682 6.6723 13.5478C7.57548 12.1265 8.56305 10.7487 9.30519 9.23212C10.1122 7.58397 10.1013 5.94624 10.6112 4.24183Z" fill="url(#paint0_linear_91_12677)"/>
<path d="M0.1499 27.5414C0.21523 27.5782 0.42392 27.1118 0.61129 27.1322C0.855825 27.1585 1.1607 27.0732 1.40523 27.0483C2.24999 26.963 3.09609 26.8891 3.94266 26.8251C6.29454 26.6477 8.65735 26.5397 11.0165 26.5874C12.6575 26.6205 14.3234 26.7076 15.9326 27.051C16.9266 27.2629 18.2346 27.5782 18.8425 28.4819C18.8425 28.4819 17.4728 22.9657 18.4537 18.7167C19.4345 14.4676 20.7416 3.02841 18.1266 2.70131C16.4829 2.4958 15.2439 6.3184 14.8151 7.3818C13.6782 10.2018 12.7881 13.216 11.9819 16.1784C11.9592 16.261 11.9361 16.3458 11.8857 16.4152C11.4443 17.0259 9.91221 17.2681 9.32015 16.8598C8.82473 16.5178 8.70227 15.8504 8.62151 15.2534C8.47815 14.1941 8.33476 13.1348 8.1914 12.0754C7.85069 9.5585 7.50773 7.02522 7.56852 4.47878C7.58531 3.77968 8.38195 0.219298 6.68654 1.0672C3.83833 2.49127 2.21416 6.43001 1.4234 9.25681C0.354525 13.0762 0.315024 17.1633 0.167578 21.1021C0.0999793 22.9077 0.00971272 24.7382 0.127216 26.5438C0.150354 26.8972 0.0564419 27.4893 0.1499 27.5414Z" fill="url(#paint1_linear_91_12677)"/>
<path d="M5.71094 26.3968L6.56294 31.6984C6.56294 31.6984 6.76484 32.9968 8.2633 33.122C9.76221 33.2467 12.3272 33.1719 12.5001 33.1469C12.6729 33.122 13.6243 32.7972 13.8547 32.2478C14.0852 31.6984 14.8365 26.6631 14.8365 26.6631L14.5434 26.409L13.1343 31.9483C13.1343 31.9483 7.51428 28.6769 7.48524 28.652C7.45621 28.627 6.62053 26.3296 6.62053 26.3296L6.15915 26.3047L5.71094 26.3968Z" fill="url(#paint2_linear_91_12677)"/>
<path d="M11.2968 32.9224C11.2968 32.9224 13.4236 32.9582 13.6713 31.8132C13.919 30.6681 14.5795 26.5715 14.5795 26.5715C14.5795 26.5715 14.5119 25.6446 13.3587 25.2223C12.2055 24.7999 11.1525 23.4584 11.1108 22.9399C11.0695 22.4209 11.1108 11.8667 11.1108 11.8667C11.1108 11.8667 11.089 11.1953 10.3359 11.1953V32.9224C10.3364 32.9224 11.2487 32.9224 11.2968 32.9224Z" fill="#fff"/>
<path d="M9.37651 32.9224C9.37651 32.9224 7.24972 32.9582 7.00202 31.8132C6.75432 30.6681 6.09375 26.5715 6.09375 26.5715C6.09375 26.5715 6.16135 25.6446 7.31458 25.2223C8.46826 24.8004 9.52122 23.4584 9.5625 22.9399C9.60379 22.4209 9.5625 11.8667 9.5625 11.8667C9.5625 11.8667 9.58428 11.1953 10.3374 11.1953V32.9224C10.3374 32.9224 9.4246 32.9224 9.37651 32.9224Z" fill="#fff"/>
<path d="M10.0619 27.5391C9.73345 27.3313 9.6359 26.8971 9.84322 26.5691L16.8976 15.4135C17.1054 15.085 17.5396 14.9875 17.8676 15.1948C18.1961 15.4026 18.2936 15.8367 18.0862 16.1647L11.0318 27.3204C10.8245 27.6488 10.3903 27.7464 10.0619 27.5391Z" fill="#fff"/>
<path d="M3.86783 14.6474C4.21803 14.4796 4.63812 14.627 4.80596 14.9772L10.9699 27.8197C11.1382 28.1699 10.9903 28.59 10.6401 28.7579C10.2899 28.9257 9.86981 28.7783 9.70197 28.4281L3.53806 15.5856C3.37022 15.2358 3.51763 14.8157 3.86783 14.6474Z" fill="#fff"/>
<defs>
<linearGradient id="paint0_linear_91_12677" x1="7.95268" y1="19.9546" x2="21.6407" y2="-13.4966" gradientUnits="userSpaceOnUse">
<stop offset="0.1599" stop-color="#BFAB8D"/>
<stop offset="0.5078" stop-color="#E7E1D2"/>
<stop offset="0.7297" stop-color="#CCBFA6"/>
</linearGradient>
<linearGradient id="paint1_linear_91_12677" x1="18.9906" y1="16.9899" x2="1.30107" y2="13.6343" gradientUnits="userSpaceOnUse">
<stop offset="0.1599" stop-color="#BFAB8D"/>
<stop offset="0.5078" stop-color="#E7E1D2"/>
<stop offset="0.7297" stop-color="#CCBFA6"/>
</linearGradient>
<linearGradient id="paint2_linear_91_12677" x1="5.71078" y1="29.7483" x2="14.8362" y2="29.7483" gradientUnits="userSpaceOnUse">
<stop stop-color="#94938C"/>
<stop offset="0.2296" stop-color="#EDEBE1"/>
<stop offset="0.7876" stop-color="#EDEBE1"/>
<stop offset="1" stop-color="#94938C"/>
</linearGradient>
</defs>
</svg>
