<svg width="20" height="36" viewBox="0 0 20 36" fill="none" xmlns="http://www.w3.org/2000/svg">
<path d="M10.766 3.94929C11.2939 2.16991 13.0723 2.39586 13.6836 4.00578C14.8507 7.0844 14.2672 10.5584 13.6558 13.6935C13.378 15.134 12.85 20.5286 10.8215 20.6981C8.82084 20.8676 5.15292 16.0943 6.82016 13.4393C7.73714 11.9989 8.70969 10.5867 9.45994 9.06149C10.2658 7.33859 10.2658 5.67218 10.766 3.94929Z" fill="url(#paint0_linear_145_6629)"/>
<path d="M0.317927 27.618C1.65171 27.4485 2.76318 27.3073 3.5968 27.1943C6.29216 26.8554 6.98685 26.8271 7.70932 26.8271C8.37621 26.8271 9.0431 26.8836 10.3769 26.9683C12.5165 27.1378 13.5724 27.2225 14.8228 27.4203C15.851 27.5897 17.2959 27.9286 19.0187 28.5783C19.0187 28.5783 17.6571 22.9577 18.6297 18.6646C19.6022 14.3432 20.9082 2.70659 18.2962 2.3959C16.6568 2.19819 15.4064 6.06764 14.9896 7.14092C13.8503 9.99358 12.9611 13.0722 12.1553 16.0943C12.1275 16.1791 12.0997 16.2638 12.0719 16.3485C11.6273 16.9699 10.099 17.2241 9.51549 16.8004C9.01532 16.4615 8.90417 15.7836 8.82081 15.1623C8.68187 14.089 8.54294 13.0157 8.404 11.9424C8.07056 9.37221 7.7093 6.802 7.79266 4.23177C7.82045 3.52567 8.59851 -0.0895865 6.90349 0.757739C4.06919 2.19819 2.42974 6.20887 1.65169 9.08978C0.595779 12.9592 0.540205 17.1394 0.401269 21.1218C0.29012 23.8332 0.373488 26.6577 0.373488 26.6577C0.290127 27.0531 0.317927 27.392 0.317927 27.618Z" fill="url(#paint1_linear_145_6629)"/>
<path d="M4.68115 27.0813C5.04239 29.3973 5.37585 31.6851 5.73708 34.0011C5.73708 34.0011 5.93158 35.5263 7.43209 35.6676C8.9326 35.8088 11.489 35.724 11.6557 35.6958C12.1837 35.6111 12.6561 35.3569 12.9062 34.8767C13.1562 34.4248 13.1841 33.8599 13.2396 33.3515C13.3786 32.476 13.323 33.2386 13.6842 30.5554C13.8787 29.0302 13.9065 28.4935 14.0176 27.6462C14.0454 27.505 14.0455 27.392 14.0732 27.3355C13.7954 27.3073 13.4897 27.2508 13.184 27.2508C13.1562 27.2508 13.1007 27.2508 13.0729 27.2508C12.8228 29.595 12.5449 31.9676 12.2949 34.3118C12.2949 34.3118 6.68182 30.4706 6.65404 30.4424C6.62625 30.4141 5.79264 27.7309 5.79264 27.7309C5.79264 27.4767 5.82042 27.2508 5.82042 26.9966C5.45919 26.9966 5.07017 27.0248 4.68115 27.0813Z" fill="url(#paint2_linear_145_6629)"/>
<path d="M10.4608 35.4132C10.4608 35.4132 12.6005 35.4415 12.8228 34.114C13.0728 32.7583 13.7397 27.9567 13.7397 27.9567C13.7397 27.9567 13.6841 26.8835 12.5171 26.3751C11.35 25.8667 10.3219 24.3132 10.2663 23.6919C10.2107 23.0705 10.2663 10.6995 10.2663 10.6995C10.2663 10.6995 10.2385 9.90869 9.48828 9.90869V35.385C9.51607 35.4132 10.433 35.4132 10.4608 35.4132Z" fill="white"/>
<path d="M8.54356 35.4132C8.54356 35.4132 6.40394 35.4415 6.18164 34.114C5.93156 32.7583 5.26465 27.9567 5.26465 27.9567C5.26465 27.9567 5.32023 26.8835 6.48729 26.3751C7.65436 25.8667 8.68248 24.3132 8.73806 23.6919C8.76584 23.0705 8.73806 10.6995 8.73806 10.6995C8.73806 10.6995 8.76586 9.90869 9.51611 9.90869V35.385C9.51611 35.4132 8.59913 35.4132 8.54356 35.4132Z" fill="white"/>
<path d="M10.2938 27.6461L10.1549 27.5613C9.8492 27.4201 9.71026 27.0247 9.87699 26.714L15.7679 14.5408C15.9068 14.2301 16.2958 14.0888 16.6015 14.2583L16.7404 14.343C17.0461 14.4843 17.185 14.8797 17.0183 15.1904L11.1274 27.3636C10.9885 27.6743 10.5995 27.7873 10.2938 27.6461Z" fill="white"/>
<path d="M4.98653 14.5691L5.15325 14.5408C5.4867 14.4561 5.82017 14.682 5.90353 15.021L8.98791 28.2392C9.07127 28.5782 8.84899 28.9171 8.51554 29.0018L8.34879 29.0301C8.01534 29.1148 7.68191 28.8889 7.59855 28.5499L4.51416 15.3317C4.4308 14.9927 4.65309 14.6538 4.98653 14.5691Z" fill="white"/>
<defs>
<linearGradient id="paint0_linear_145_6629" x1="8.20402" y1="19.7631" x2="22.2775" y2="-14.0763" gradientUnits="userSpaceOnUse">
<stop offset="0.1599" stop-color="#C4AB89"/>
<stop offset="0.5078" stop-color="#E8E1D1"/>
<stop offset="0.7297" stop-color="#D0BFA4"/>
</linearGradient>
<linearGradient id="paint1_linear_145_6629" x1="19.1513" y1="16.8996" x2="1.44354" y2="13.595" gradientUnits="userSpaceOnUse">
<stop offset="0.1599" stop-color="#C4AB89"/>
<stop offset="0.5078" stop-color="#E8E1D1"/>
<stop offset="0.7297" stop-color="#D0BFA4"/>
</linearGradient>
<linearGradient id="paint2_linear_145_6629" x1="4.68332" y1="31.334" x2="14.0919" y2="31.334" gradientUnits="userSpaceOnUse">
<stop stop-color="#94938C"/>
<stop offset="0.2296" stop-color="#EDEBE0"/>
<stop offset="0.7876" stop-color="#EDEBE0"/>
<stop offset="1" stop-color="#94938C"/>
</linearGradient>
</defs>
</svg>
