<svg width="23" height="35" viewBox="0 0 23 35" fill="none" xmlns="http://www.w3.org/2000/svg">
<path d="M9.52627 31.7412C9.22061 33.6336 10.4155 34.1137 11.3602 32.8427C13.1664 30.3855 14 26.855 14.7225 23.6351C15.0559 22.1382 16.5842 16.8283 15.4172 15.868C14.2501 14.9077 10.3321 18.0145 10.4155 21.1779C10.471 22.9008 10.5822 24.6237 10.4988 26.3748C10.3877 28.3237 9.80415 29.9053 9.52627 31.7412Z" fill="url(#paint0_linear_145_6645)"/>
<path d="M22.0025 8.04439C22.0025 8.04439 20.6965 11.6879 20.6965 15.6986C20.6965 19.7092 21.03 24.6802 18.7236 28.3237C16.4451 31.9672 15.7782 33.6336 15.7782 33.6336C15.7782 33.6336 13.8053 35.9496 12.8327 33.2947C12.8327 33.2947 15.1113 25.3298 13.8053 21.3474C12.4993 17.365 11.1933 18.6924 10.8598 19.3421C10.5264 20.0199 5.96929 27.6458 5.3024 29.6512C4.6355 31.6565 3.66295 33.6336 3.02384 33.6336C2.38474 33.6336 1.38439 31.9672 0.745287 28.9733C-0.0605433 25.2168 1.38439 22.1665 2.05129 20.3306C3.21835 17.1108 4.44099 12.4222 4.66329 6.03906C7.05299 6.8299 10.1096 7.59249 13.6664 7.95966C16.8619 8.29859 19.6684 8.2421 22.0025 8.04439Z" fill="url(#paint1_linear_145_6645)"/>
<path d="M17.4177 8.21389C17.3899 7.90321 17.3899 7.62078 17.3621 7.3101C17.2232 5.50247 16.9731 3.80781 16.6674 2.19789C16.6396 1.97194 16.5285 1.60477 16.2228 1.26584C15.9172 0.955151 15.5559 0.842171 15.2225 0.785683C13.6664 0.446753 12.805 0.559737 11.6379 0.757446C11.499 0.78569 10.6932 1.09638 10.4987 1.66126C10.0818 2.87576 10.0818 3.75133 9.69283 7.11238C9.66504 7.22536 9.66504 7.33834 9.66504 7.39482C9.7484 7.42307 9.83176 7.45132 9.94291 7.45132L11.1378 1.9437C11.1378 1.9437 15.8894 5.19178 15.9172 5.22002C15.945 5.24826 16.6396 7.53605 16.6396 7.53605C16.6119 7.762 16.5563 8.0162 16.5285 8.24215C16.7786 8.21391 17.0842 8.21389 17.4177 8.21389Z" fill="url(#paint2_linear_145_6645)"/>
<path d="M14.3331 0.870278C14.3331 0.870278 16.1393 0.842041 16.3616 1.97181C16.5839 3.12982 17.1396 7.22522 17.1396 7.22522C17.1396 7.22522 17.0841 8.15729 16.0837 8.58095C15.0834 9.00462 14.1942 10.3603 14.1664 10.8687C14.1386 11.3771 14.1664 21.9687 14.1664 21.9687C14.1664 21.9687 14.1386 22.6466 13.4995 22.6466V0.842041C13.5273 0.870285 14.3053 0.870278 14.3331 0.870278Z" fill="white"/>
<path d="M12.6937 0.870278C12.6937 0.870278 10.8875 0.842041 10.6653 1.97181C10.443 3.12982 9.88721 7.22522 9.88721 7.22522C9.88721 7.22522 9.94278 8.15729 10.9431 8.58095C11.9435 9.00462 12.8327 10.3603 12.8604 10.8687C12.8882 11.3771 12.8604 21.9687 12.8604 21.9687C12.8604 21.9687 12.8882 22.6466 13.5273 22.6466V0.842041C13.5273 0.870285 12.7493 0.870278 12.6937 0.870278Z" fill="white"/>
<path d="M18.0847 18.7772L17.9457 18.8337C17.6123 18.9467 17.2788 18.749 17.1677 18.4101L14.1667 8.38339C14.0555 8.04446 14.25 7.70553 14.5835 7.59256L14.7224 7.53607C15.0558 7.42309 15.3893 7.6208 15.5004 7.95973L18.5015 17.9864C18.5848 18.2971 18.4181 18.6643 18.0847 18.7772Z" fill="white"/>
<path d="M9.10934 18.7772L9.24828 18.8337C9.58172 18.9467 9.91517 18.749 10.0263 18.4101L13.0273 8.38339C13.1385 8.04446 12.944 7.70553 12.6105 7.59256L12.4716 7.53607C12.1382 7.42309 11.8047 7.6208 11.6936 7.95973L8.69253 17.9864C8.58138 18.2971 8.77589 18.6643 9.10934 18.7772Z" fill="white"/>
<defs>
<linearGradient id="paint0_linear_145_6645" x1="13.3785" y1="15.5073" x2="13.3536" y2="53.1839" gradientUnits="userSpaceOnUse">
<stop offset="0.1599" stop-color="#C4AB89"/>
<stop offset="0.5078" stop-color="#E8E1D1"/>
<stop offset="0.7297" stop-color="#D0BFA4"/>
</linearGradient>
<linearGradient id="paint1_linear_145_6645" x1="20.1016" y1="20.2755" x2="3.35484" y2="20.3351" gradientUnits="userSpaceOnUse">
<stop stop-color="#C4AB89"/>
<stop offset="0.5078" stop-color="#E8E1D1"/>
<stop offset="1" stop-color="#D0BFA4"/>
</linearGradient>
<linearGradient id="paint2_linear_145_6645" x1="17.4051" y1="4.37897" x2="9.62033" y2="4.37897" gradientUnits="userSpaceOnUse">
<stop stop-color="#94938C"/>
<stop offset="0.2296" stop-color="#EDEBE0"/>
<stop offset="0.7876" stop-color="#EDEBE0"/>
<stop offset="1" stop-color="#94938C"/>
</linearGradient>
</defs>
</svg>
