<svg width="23" height="39" viewBox="0 0 23 39" fill="none" xmlns="http://www.w3.org/2000/svg">
<path d="M10.8684 33C10.6739 34.9771 11.9243 35.429 12.8413 34.045C14.5919 31.3618 15.2587 27.6336 15.8145 24.216C16.0924 22.6343 17.3984 16.9855 16.0924 16.0534C14.8142 15.1214 10.8684 18.5954 11.174 21.9282C11.3407 23.7359 11.563 25.5153 11.563 27.3794C11.5908 29.3565 11.0907 31.0511 10.8684 33Z" fill="url(#paint0_linear_145_6653)"/>
<path d="M22.511 10.3765C22.3165 11.0261 21.2884 14.2459 20.9549 16.5337C20.8438 17.2963 20.816 17.833 20.816 18.0024C20.7882 18.8498 20.8438 19.6971 20.9827 20.5726C21.3439 22.9169 21.3717 25.3459 21.2606 27.6902C21.0938 31.3619 19.371 34.1298 17.9817 37.4344C17.4815 38.6489 16.2867 39.2703 15.2307 38.1688C13.8692 36.7566 14.2304 33.7909 14.1748 31.9833C14.0915 29.526 14.0637 27.0406 13.5635 24.6398C13.369 23.5948 13.0633 22.5497 12.5354 21.6459C12.0074 20.7421 11.0349 20.2902 10.0901 20.9398C8.83967 21.8154 8.5618 23.7077 8.11721 25.0635C7.7004 26.3345 7.33916 27.6337 6.97793 28.9047C6.47776 30.7123 6.00537 32.5482 5.53299 34.384C5.33848 35.1466 4.69937 36.926 3.58788 36.1352C3.22665 35.881 3.03214 35.4291 2.8932 35.0054C2.39303 33.5932 1.97622 32.1528 1.5872 30.7123C1.05925 28.7635 0.559073 26.8429 0.447924 24.8375C0.281201 22.0978 1.3649 19.3582 1.86508 16.7032C2.36525 14.1612 1.92065 11.817 2.8932 8.11697C2.94878 7.89101 3.00435 7.6933 3.03214 7.58032C3.97691 7.80628 5.42184 8.11697 7.2558 8.39941C9.17312 8.68185 9.61772 8.65361 12.5632 9.02079C13.5079 9.13376 13.7858 9.19024 17.8705 9.75513C19.3433 9.92459 21.1494 10.1788 22.511 10.3765Z" fill="url(#paint1_linear_145_6653)"/>
<path d="M17.5646 9.78348C17.2034 7.10029 16.8422 4.41709 16.4809 1.7339C16.4809 1.7339 16.2864 0.265203 14.8415 0.123982C13.3965 -0.017239 10.8957 0.0674832 10.729 0.0957274C10.5622 0.123971 9.64527 0.491156 9.42297 1.11253C8.86722 2.66595 8.95059 3.82396 8.50599 7.26975C8.42263 7.83463 8.33927 8.28653 8.28369 8.56897C8.81165 8.6537 9.31182 8.71021 9.83978 8.79494C9.92314 6.36594 10.0343 3.90869 10.1177 1.4797C10.1177 1.4797 15.5639 5.17968 15.5917 5.23616C15.6195 5.26441 16.4254 7.86287 16.4254 7.86287C15.814 8.37126 15.2027 8.87966 14.5914 9.38806C15.5917 9.47279 16.5921 9.64226 17.5646 9.78348Z" fill="url(#paint2_linear_145_6653)"/>
<path d="M13.8412 0.265184C13.8412 0.265184 15.9808 0.236933 16.2031 1.56441C16.4532 2.92013 17.1201 7.72163 17.1201 7.72163C17.1201 7.72163 17.0645 8.79492 15.8975 9.30332C14.7304 9.81171 13.7023 11.3651 13.6467 11.9865C13.6189 12.6079 13.6467 24.9788 13.6467 24.9788C13.6467 24.9788 13.6189 25.7696 12.8687 25.7696V0.293421C12.8964 0.265177 13.7856 0.265184 13.8412 0.265184Z" fill="white"/>
<path d="M11.9239 0.265184C11.9239 0.265184 9.7843 0.236933 9.562 1.56441C9.3397 2.89188 8.64502 7.72163 8.64502 7.72163C8.64502 7.72163 8.70059 8.79492 9.86766 9.30332C11.0347 9.81171 12.0629 11.3651 12.1184 11.9865C12.1462 12.6079 12.1184 24.9788 12.1184 24.9788C12.1184 24.9788 12.1462 25.7696 12.8965 25.7696V0.293421C12.8965 0.265177 11.9795 0.265184 11.9239 0.265184Z" fill="white"/>
<path d="M6.06113 18.6237C6.39457 18.8214 6.83917 18.7084 7.03368 18.3695L12.1187 9.41611C12.3133 9.07718 12.2021 8.62527 11.8687 8.42756C11.5352 8.22986 11.0906 8.34284 10.8961 8.73826L5.81104 17.6917C5.61653 17.9741 5.72768 18.426 6.06113 18.6237Z" fill="white"/>
<path d="M19.9822 18.5674L19.8432 18.6521C19.5376 18.8216 19.1764 18.7368 18.9819 18.4261L13.8134 9.3315C13.6467 9.02082 13.7301 8.65365 14.0357 8.45594L14.1747 8.37121C14.4803 8.20174 14.8416 8.28647 15.0361 8.59716L20.2045 17.6918C20.399 18.0025 20.2878 18.3979 19.9822 18.5674Z" fill="white"/>
<defs>
<linearGradient id="paint0_linear_145_6653" x1="14.0125" y1="15.8241" x2="16.1917" y2="55.2613" gradientUnits="userSpaceOnUse">
<stop offset="0.1599" stop-color="#C4AB89"/>
<stop offset="0.5078" stop-color="#E8E1D1"/>
<stop offset="0.7297" stop-color="#D0BFA4"/>
</linearGradient>
<linearGradient id="paint1_linear_145_6653" x1="19.9428" y1="24.6733" x2="2.40559" y2="21.316" gradientUnits="userSpaceOnUse">
<stop stop-color="#C4AB89"/>
<stop offset="0.5078" stop-color="#E8E1D1"/>
<stop offset="1" stop-color="#D0BFA4"/>
</linearGradient>
<linearGradient id="paint2_linear_145_6653" x1="17.5759" y1="4.89775" x2="8.3117" y2="4.89775" gradientUnits="userSpaceOnUse">
<stop stop-color="#94938C"/>
<stop offset="0.2296" stop-color="#EDEBE0"/>
<stop offset="0.7876" stop-color="#EDEBE0"/>
<stop offset="1" stop-color="#94938C"/>
</linearGradient>
</defs>
</svg>
