<svg width="27" height="41" viewBox="0 0 27 41" fill="none" xmlns="http://www.w3.org/2000/svg">
<path d="M9.37569 36.5243C8.7088 38.7274 10.2927 39.6312 11.7654 38.3037C14.6275 35.79 16.2947 31.7511 17.7397 28.0511C18.4065 26.3282 21.3242 20.3121 19.7959 18.8434C18.2954 17.403 12.3489 20.1427 12.0433 24.0121C11.8765 26.1022 11.821 28.2205 11.4597 30.3106C11.0707 32.5984 10.0426 34.3495 9.37569 36.5243Z" fill="url(#paint0_linear_145_6661)"/>
<path d="M26.1593 10.8221C25.937 11.5847 25.8537 12.1779 25.7703 12.5733C25.4646 13.9008 25.1868 15.2565 24.9645 16.5839C24.7978 17.6855 24.631 18.787 24.5477 19.9168C24.4365 20.9901 24.5477 22.1763 24.3254 23.2496C24.1309 24.2946 23.7696 25.3961 23.4084 26.3847C22.3803 29.4068 20.7964 32.2312 18.9346 34.8014C17.9899 36.1007 16.9895 37.3152 15.9336 38.5014C15.2667 39.2358 13.8774 41.3823 12.7103 40.4785C12.2657 40.1396 12.099 39.5465 12.1268 38.9816C12.1545 38.4167 12.3491 37.9083 12.5436 37.3717C13.9885 33.361 15.3779 28.39 14.572 24.0969C14.4887 23.645 14.3497 23.1931 14.0441 22.8542C13.6273 22.4305 12.9604 22.3458 12.4046 22.487C11.8489 22.6282 11.3487 23.0236 10.9319 23.4473C9.48697 24.8877 8.45883 26.8931 7.56964 28.7289C6.90275 30.1129 6.40257 31.5816 6.1247 33.1068C5.84683 34.5472 6.09692 36.2984 5.51339 37.6541C5.17994 38.4167 4.48525 39.0663 3.65164 39.0381C3.01253 39.0098 2.45679 38.6144 2.03998 38.106C0.483891 36.2984 0.206018 33.4457 0.0948688 31.1579C-0.0162803 28.277 0.372735 25.3961 0.817331 22.5717C1.48423 18.2221 2.09555 16.7534 3.04031 11.0481C3.26261 9.63587 3.45713 8.47785 3.56828 7.68701C6.45815 8.59083 10.2372 9.49464 14.711 9.80533C19.5182 10.1443 23.6307 9.69236 26.7151 9.12748C26.5483 9.55114 26.3538 10.116 26.1593 10.8221Z" fill="url(#paint1_linear_145_6661)"/>
<path d="M9.76465 9.2125C9.79244 8.90181 9.84801 8.59113 9.8758 8.28045C10.1259 6.21862 10.4038 4.21327 10.7094 2.23618C10.9873 1.78427 11.3763 0.654515 12.4044 0.569783C13.9049 0.428562 16.4614 0.513284 16.6281 0.541528C16.7948 0.569772 17.7396 0.965195 17.9897 1.58657C18.5454 3.16824 18.6566 4.29801 18.9344 7.85678C19.0178 8.7606 19.1012 9.49495 19.1567 9.89037C17.9341 9.91861 16.6837 9.9186 15.461 9.94684C16.0724 7.26364 16.6559 4.6087 17.2672 1.9255C17.2672 1.9255 11.6542 5.76671 11.6264 5.79496C11.5986 5.8232 10.765 8.5064 10.765 8.5064C10.9317 8.81708 11.0984 9.12778 11.2374 9.46671C10.7372 9.41022 10.237 9.32548 9.76465 9.2125Z" fill="url(#paint2_linear_145_6661)"/>
<path d="M15.4335 0.823777C15.4335 0.823777 17.5731 0.795544 17.7954 2.12302C18.0177 3.4505 18.7124 8.28025 18.7124 8.28025C18.7124 8.28025 18.6568 9.35353 17.4897 9.86192C16.3227 10.3703 15.2946 11.9237 15.239 12.5451C15.2112 13.1665 15.239 25.5375 15.239 25.5375C15.239 25.5375 15.2112 26.3283 14.4609 26.3283V0.852032C14.4609 0.823788 15.3779 0.823777 15.4335 0.823777Z" fill="white"/>
<path d="M13.5162 0.823777C13.5162 0.823777 11.3766 0.795544 11.1543 2.12302C10.932 3.4505 10.2373 8.28025 10.2373 8.28025C10.2373 8.28025 10.2929 9.35353 11.4599 9.86192C12.627 10.3703 13.6551 11.9237 13.7107 12.5451C13.7385 13.1665 13.7107 25.5375 13.7107 25.5375C13.7107 25.5375 13.7385 26.3283 14.4887 26.3283V0.852032C14.461 0.823788 13.544 0.823777 13.5162 0.823777Z" fill="white"/>
<path d="M7.15262 19.0415L7.29155 19.1262C7.56943 19.3239 7.95845 19.2392 8.15296 18.9285L13.6548 10.0598C13.8494 9.77738 13.766 9.38197 13.4603 9.18426L13.3214 9.09952C13.0435 8.90181 12.6545 8.98654 12.46 9.29723L6.9581 18.1659C6.79138 18.4766 6.87474 18.8437 7.15262 19.0415Z" fill="white"/>
<path d="M21.4911 18.2224L21.3522 18.3071C21.0743 18.5048 20.6853 18.4201 20.4908 18.1094L14.9889 9.24072C14.7944 8.95828 14.8778 8.56286 15.1834 8.36515L15.3224 8.28043C15.6002 8.08272 15.9893 8.16745 16.1838 8.47814L21.6856 17.3468C21.8801 17.6292 21.7968 18.0247 21.4911 18.2224Z" fill="white"/>
<defs>
<linearGradient id="paint0_linear_145_6661" x1="17.1095" y1="17.9476" x2="9.09894" y2="62.921" gradientUnits="userSpaceOnUse">
<stop offset="0.1599" stop-color="#C4AB89"/>
<stop offset="0.5078" stop-color="#E8E1D1"/>
<stop offset="0.7297" stop-color="#D0BFA4"/>
</linearGradient>
<linearGradient id="paint1_linear_145_6661" x1="24.1076" y1="24.1318" x2="1.58187" y2="24.2119" gradientUnits="userSpaceOnUse">
<stop stop-color="#C4AB89"/>
<stop offset="0.5078" stop-color="#E8E1D1"/>
<stop offset="1" stop-color="#D0BFA4"/>
</linearGradient>
<linearGradient id="paint2_linear_145_6661" x1="9.75651" y1="5.2397" x2="19.1521" y2="5.2397" gradientUnits="userSpaceOnUse">
<stop stop-color="#94938C"/>
<stop offset="0.2296" stop-color="#EDEBE0"/>
<stop offset="0.7876" stop-color="#EDEBE0"/>
<stop offset="1" stop-color="#94938C"/>
</linearGradient>
</defs>
</svg>
