<svg width="28" height="39" viewBox="0 0 28 39" fill="none" xmlns="http://www.w3.org/2000/svg">
<path d="M10.0269 34.1364C9.35135 36.3004 10.9464 37.1832 12.4281 35.9012C15.2925 33.4223 16.9502 29.4459 18.4083 25.8034C19.0833 24.1167 21.9818 18.1854 20.4566 16.7518C18.9431 15.3291 13.0106 18.0379 12.7066 21.8442C12.5415 23.9089 12.4726 25.9794 12.1173 28.045C11.7308 30.2897 10.6887 32.0159 10.0269 34.1364Z" fill="url(#paint0_linear_91_12600)"/>
<path d="M26.8054 8.86416C26.6176 9.63858 26.4511 10.4266 26.4143 10.579C26.099 11.8869 25.8255 13.2053 25.6059 14.5327C25.4267 15.6174 25.2833 16.7085 25.1767 17.8028C25.0733 18.8634 25.1636 20.0312 24.9612 21.071C24.7621 22.0958 24.3969 23.171 24.0516 24.1609C23.015 27.1338 21.4449 29.9003 19.5803 32.429C18.6449 33.6975 17.6332 34.9092 16.5653 36.0683C15.9093 36.7806 14.5147 38.8892 13.3556 38.0132C12.9205 37.6843 12.7458 37.0977 12.774 36.5528C12.8021 36.008 13.0017 35.489 13.1909 34.9773C14.6481 31.029 16.0336 26.1403 15.2142 21.9044C15.129 21.463 14.9956 21.007 14.6789 20.6881C14.2638 20.2703 13.5992 20.1764 13.0312 20.3329C12.4632 20.4894 11.9787 20.861 11.5559 21.2711C10.1046 22.6797 9.07343 24.66 8.18651 26.461C7.51509 27.8247 7.02196 29.2778 6.73842 30.7718C6.46713 32.2017 6.69758 33.9012 6.12325 35.2431C5.8016 35.9953 5.08436 36.64 4.26685 36.6164C3.63036 36.5982 3.06691 36.1886 2.64727 35.7095C1.10118 33.9443 0.804934 31.1315 0.714655 28.8809C0.601239 26.0445 1.005 23.2182 1.44461 20.424C2.04299 16.62 2.81195 12.8419 3.67074 9.08872C3.70386 8.94309 4.17113 6.57541 4.26549 6.57813C4.26549 6.57813 27.1402 7.21281 27.3502 7.21871C27.2332 7.21644 27.0068 8.03259 26.8054 8.86416Z" fill="url(#paint1_linear_91_12600)"/>
<path d="M10.4922 8.81087L11.3442 2.69243C11.3442 2.69243 11.5461 1.19355 13.0445 1.04975C14.5434 0.905484 17.1085 0.992126 17.2813 1.02071C17.4542 1.04929 18.4055 1.42401 18.636 2.05822C18.8664 2.69243 19.6177 8.5033 19.6177 8.5033L19.3246 8.79636L17.9155 2.40391C17.9155 2.40391 12.2955 6.17921 12.2665 6.20825C12.2374 6.23728 11.4018 8.88844 11.4018 8.88844L10.9409 8.91748L10.4922 8.81087Z" fill="url(#paint2_linear_91_12600)"/>
<path d="M16.078 1.28139C16.078 1.28139 18.2047 1.24012 18.4524 2.56164C18.7 3.88316 19.3606 8.61121 19.3606 8.61121C19.3606 8.61121 19.293 9.68096 18.1398 10.1682C16.9866 10.6554 15.9333 12.2038 15.892 12.8026C15.8507 13.4014 15.892 25.5818 15.892 25.5818C15.892 25.5818 15.8702 26.3567 15.1172 26.3567V1.28139C15.1176 1.28139 16.0304 1.28139 16.078 1.28139Z" fill="#fff"/>
<path d="M14.1579 1.28139C14.1579 1.28139 12.031 1.24012 11.7833 2.56164C11.5356 3.88316 10.875 8.61121 10.875 8.61121C10.875 8.61121 10.9426 9.68096 12.0959 10.1682C13.2492 10.6554 14.3026 12.2038 14.3439 12.8026C14.3852 13.4014 14.3439 25.5818 14.3439 25.5818C14.3439 25.5818 14.3657 26.3567 15.1188 26.3567V1.28139C15.1184 1.28139 14.2056 1.28139 14.1579 1.28139Z" fill="#fff"/>
<path d="M7.88221 19.2543C8.21067 19.4616 8.64483 19.3641 8.85216 19.0356L14.2822 10.446C14.4895 10.1175 14.392 9.68336 14.0635 9.47604C13.735 9.26871 13.3009 9.36624 13.0935 9.69469L7.66354 18.2843C7.45621 18.6123 7.55375 19.0469 7.88221 19.2543Z" fill="#fff"/>
<path d="M22.0947 18.4418C21.7663 18.6491 21.3321 18.5516 21.1248 18.2231L15.6948 9.63346C15.4875 9.30501 15.585 8.87086 15.9135 8.66354C16.2419 8.45621 16.6761 8.55374 16.8834 8.88219L22.3134 17.4719C22.5207 17.7999 22.4232 18.2345 22.0947 18.4418Z" fill="#fff"/>
<defs>
<linearGradient id="paint0_linear_91_12600" x1="17.7853" y1="15.8474" x2="10.0235" y2="60.1396" gradientUnits="userSpaceOnUse">
<stop offset="0.1599" stop-color="#BFAB8D"/>
<stop offset="0.5078" stop-color="#E7E1D2"/>
<stop offset="0.7297" stop-color="#CCBFA6"/>
</linearGradient>
<linearGradient id="paint1_linear_91_12600" x1="24.7633" y1="22.3446" x2="2.23642" y2="22.4259" gradientUnits="userSpaceOnUse">
<stop stop-color="#BFAB8D"/>
<stop offset="0.5078" stop-color="#E7E1D2"/>
<stop offset="1" stop-color="#CCBFA6"/>
</linearGradient>
<linearGradient id="paint2_linear_91_12600" x1="10.4922" y1="4.9432" x2="19.6176" y2="4.9432" gradientUnits="userSpaceOnUse">
<stop stop-color="#94938C"/>
<stop offset="0.2296" stop-color="#EDEBE1"/>
<stop offset="0.7876" stop-color="#EDEBE1"/>
<stop offset="1" stop-color="#94938C"/>
</linearGradient>
</defs>
</svg>
