<svg width="21" height="35" viewBox="0 0 21 35" fill="none" xmlns="http://www.w3.org/2000/svg">
<path d="M9.81009 3.75154C9.28213 1.97215 7.50375 2.19811 6.89243 3.80803C5.72536 6.88665 6.3089 10.3607 6.92022 13.4958C7.19809 14.9363 7.72605 20.3309 9.75451 20.5004C11.7552 20.6698 15.4231 15.8966 13.7559 13.2416C12.8389 11.8012 11.8663 10.3889 11.1161 8.86374C10.3103 7.14084 10.338 5.47443 9.81009 3.75154Z" fill="url(#paint0_linear_145_6752)"/>
<path d="M20.2858 27.4485C19.6745 27.3073 18.9242 27.1096 18.035 26.9684C18.035 26.9684 17.2848 26.8272 16.5067 26.7424C12.4498 26.2058 9.42097 26.4882 9.42097 26.4882C7.64258 26.6577 6.28101 26.9966 5.44739 27.1943C3.91909 27.5615 2.61309 28.0134 1.58496 28.4088C1.58496 28.4088 2.94654 22.7882 1.97398 18.4951C1.00143 14.1738 -0.304571 2.53715 2.30743 2.22646C3.94688 2.02876 5.19731 5.89821 5.61411 6.97149C6.75339 9.82416 7.64258 12.9028 8.44841 15.9249C8.4762 16.0096 8.50399 16.0944 8.53178 16.1791C8.97637 16.8005 10.5047 17.0547 11.0882 16.631C11.5884 16.2921 11.6995 15.6142 11.7829 14.9928C11.9218 13.9196 12.0608 12.8463 12.1997 11.773C12.5331 9.20278 12.8944 6.63256 12.811 4.06234C12.7832 3.35623 12.0052 -0.25902 13.7002 0.588306C16.5345 2.02876 18.174 6.03943 18.952 8.92034C20.0079 12.7898 20.0635 16.9699 20.2024 20.9524C20.3136 23.6638 20.2302 26.4882 20.2302 26.4882C20.2858 26.8554 20.2858 27.1943 20.2858 27.4485Z" fill="url(#paint1_linear_145_6752)"/>
<path d="M15.312 26.5729C14.9786 28.7195 14.6451 30.8943 14.3117 33.0408C14.3117 33.0408 14.1172 34.3683 12.6166 34.4813C11.1161 34.5942 8.55971 34.5378 8.39299 34.5095C8.22626 34.4813 7.2815 34.1423 7.03141 33.6057C6.50345 32.3065 6.53124 31.2897 6.05886 27.9286C6.00328 27.5614 5.94771 27.2508 5.91992 27.053C6.44788 26.9118 7.00362 26.7988 7.53158 26.6576C7.61494 28.8607 7.67052 31.092 7.75388 33.295C7.75388 33.295 13.3669 29.9622 13.3947 29.934C13.4225 29.9057 14.2561 27.5614 14.2561 27.5614C13.7559 27.1378 13.228 26.6859 12.7278 26.2622C13.5892 26.3752 14.4506 26.4882 15.312 26.5729Z" fill="url(#paint2_linear_145_6752)"/>
<path d="M9.58798 34.2837C9.58798 34.2837 7.44836 34.3119 7.22606 33.1539C6.97598 31.9959 6.30908 27.8158 6.30908 27.8158C6.30908 27.8158 6.36465 26.8837 7.53172 26.4318C8.69878 26.0082 9.72691 24.6524 9.78249 24.1158C9.81028 23.5792 9.78249 12.8746 9.78249 12.8746C9.78249 12.8746 9.81028 12.1968 10.5605 12.1968V34.2837C10.5327 34.2837 9.61577 34.2837 9.58798 34.2837Z" fill="white"/>
<path d="M11.5053 34.2837C11.5053 34.2837 13.6449 34.3119 13.8672 33.1539C14.1173 31.9959 14.7842 27.8158 14.7842 27.8158C14.7842 27.8158 14.7286 26.8837 13.5615 26.4318C12.3945 26.0082 11.3663 24.6524 11.3108 24.1158C11.283 23.5792 11.3108 12.8746 11.3108 12.8746C11.3108 12.8746 11.283 12.1968 10.5327 12.1968V34.2837C10.5327 34.2837 11.4497 34.2837 11.5053 34.2837Z" fill="white"/>
<path d="M10.7549 28.8609L10.8938 28.7761C11.1717 28.5784 11.2829 28.2112 11.0883 27.9005L3.94703 16.4334C3.75252 16.151 3.39128 16.038 3.08562 16.2357L2.94669 16.3204C2.66881 16.5181 2.55767 16.8853 2.75218 17.196L9.8935 28.6631C10.0602 28.9738 10.4492 29.0586 10.7549 28.8609Z" fill="white"/>
<path d="M17.0904 15.7556L16.9514 15.6991C16.6458 15.5579 16.2567 15.6708 16.1178 16.0098L9.89346 29.1998C9.75452 29.5105 9.86567 29.9059 10.1991 30.0471L10.3381 30.1036C10.6437 30.2448 11.0327 30.1319 11.1717 29.7929L17.396 16.6029C17.535 16.2922 17.396 15.8968 17.0904 15.7556Z" fill="white"/>
<defs>
<linearGradient id="paint0_linear_145_6752" x1="12.4417" y1="19.6725" x2="-1.63191" y2="-14.1669" gradientUnits="userSpaceOnUse">
<stop offset="0.1599" stop-color="#C4AB89"/>
<stop offset="0.5078" stop-color="#E8E1D1"/>
<stop offset="0.7297" stop-color="#D0BFA4"/>
</linearGradient>
<linearGradient id="paint1_linear_145_6752" x1="1.43552" y1="16.7119" x2="19.1432" y2="13.4073" gradientUnits="userSpaceOnUse">
<stop offset="0.1599" stop-color="#C4AB89"/>
<stop offset="0.5078" stop-color="#E8E1D1"/>
<stop offset="0.7297" stop-color="#D0BFA4"/>
</linearGradient>
<linearGradient id="paint2_linear_145_6752" x1="15.3155" y1="30.4264" x2="5.90756" y2="30.4264" gradientUnits="userSpaceOnUse">
<stop stop-color="#94938C"/>
<stop offset="0.2296" stop-color="#EDEBE0"/>
<stop offset="0.7876" stop-color="#EDEBE0"/>
<stop offset="1" stop-color="#94938C"/>
</linearGradient>
</defs>
</svg>
