<svg width="16" height="41" viewBox="0 0 16 41" fill="none" xmlns="http://www.w3.org/2000/svg">
<path d="M15.6162 9.20025C15.6162 9.20025 9.41968 35.1002 4.19567 39.4215C-1.02834 43.7429 1.58367 35.1002 1.58367 35.1002C1.58367 35.1002 3.52878 19.1422 3.52878 16.1766C3.52878 13.1827 2.50064 7.59033 2.50064 7.59033C2.50064 7.59033 12.5596 9.79338 15.6162 9.20025Z" fill="url(#paint0_linear_145_6674)"/>
<path d="M4.27881 7.92922C4.55668 5.98037 4.83455 4.05976 5.11243 2.11091C5.11243 2.11091 5.30694 0.670469 6.80745 0.529249C8.30796 0.388028 10.8644 0.472767 11.0311 0.501011C12.0592 0.670476 12.5316 1.48956 12.615 2.4781C12.7539 4.14451 13.0596 5.78267 13.3374 7.42083C13.393 7.81625 13.532 8.4941 13.6987 9.28493C13.004 9.25669 12.2815 9.25669 11.5869 9.22844C11.6146 6.7712 11.6424 4.31397 11.6702 1.85673C11.6702 1.85673 6.0572 5.50022 6.02941 5.52847C6.00162 5.55671 5.168 8.12693 5.168 8.12693C5.02907 8.09869 4.86234 8.09868 4.72341 8.07044C4.58447 8.01395 4.41774 7.98571 4.27881 7.92922Z" fill="url(#paint1_linear_145_6674)"/>
<path d="M9.83632 0.755178C9.83632 0.755178 11.9759 0.726941 12.1982 1.99793C12.4483 3.26892 13.1152 7.84448 13.1152 7.84448C13.1152 7.84448 13.0597 8.88951 11.8926 9.34142C10.7255 9.79332 9.69739 11.3185 9.64182 11.8834C9.61403 12.4483 9.64182 24.1979 9.64182 24.1979C9.64182 24.1979 9.61403 24.9322 8.86377 24.9322V0.755178C8.89156 0.755178 9.80854 0.755178 9.83632 0.755178Z" fill="white"/>
<path d="M7.91903 0.755178C7.91903 0.755178 5.77941 0.726941 5.55711 1.99793C5.30703 3.26892 4.64014 7.84448 4.64014 7.84448C4.64014 7.84448 4.69571 8.88951 5.86277 9.34142C7.02984 9.82157 8.05797 11.2903 8.11354 11.8834C8.16911 12.4765 8.11354 24.1979 8.11354 24.1979C8.11354 24.1979 8.14132 24.9322 8.89158 24.9322V0.755178C8.89158 0.755178 7.9746 0.755178 7.91903 0.755178Z" fill="white"/>
<defs>
<linearGradient id="paint0_linear_145_6674" x1="2.37342" y1="24.1066" x2="13.9292" y2="24.1459" gradientUnits="userSpaceOnUse">
<stop stop-color="#C4AB89"/>
<stop offset="0.5078" stop-color="#E8E1D1"/>
<stop offset="1" stop-color="#D0BFA4"/>
</linearGradient>
<linearGradient id="paint1_linear_145_6674" x1="4.26845" y1="4.87303" x2="13.7123" y2="4.87155" gradientUnits="userSpaceOnUse">
<stop stop-color="#94938C"/>
<stop offset="0.2296" stop-color="#EDEBE0"/>
<stop offset="0.7876" stop-color="#EDEBE0"/>
<stop offset="1" stop-color="#94938C"/>
</linearGradient>
</defs>
</svg>
