<svg width="16" height="40" viewBox="0 0 16 40" fill="none" xmlns="http://www.w3.org/2000/svg">
<path d="M15.2943 8.15723C15.2943 8.15723 9.08449 33.6508 3.85461 37.8994C-1.37528 42.148 1.23968 33.6504 1.23968 33.6504C1.23968 33.6504 3.20088 17.9623 3.20088 15.0207C3.20088 12.0791 2.16108 6.57031 2.16108 6.57031C2.16108 6.57031 12.2334 8.73882 15.2943 8.15723Z" fill="url(#paint0_linear_91_12577)"/>
<path d="M3.92188 8.36953L4.77385 2.56479C4.77385 2.56479 4.97573 1.143 6.47419 1.00645C7.97266 0.869892 10.5381 0.951549 10.711 0.979223C10.8838 1.00644 11.8352 1.36211 12.0656 1.96368C12.2961 2.56525 13.0474 8.07827 13.0474 8.07827L12.7543 8.35637L11.3452 2.29168C11.3452 2.29168 5.72519 5.87342 5.69616 5.90109C5.66713 5.92831 4.83147 8.44394 4.83147 8.44394L4.37009 8.47116L3.92188 8.36953Z" fill="url(#paint1_linear_91_12577)"/>
<path d="M9.50767 1.2267C9.50767 1.2267 11.6343 1.18768 11.882 2.44115C12.1297 3.69462 12.7902 8.17998 12.7902 8.17998C12.7902 8.17998 12.7226 9.19482 11.5695 9.65711C10.4159 10.1194 9.36296 11.5883 9.32168 12.1563C9.2804 12.7243 9.32168 24.2795 9.32168 24.2795C9.32168 24.2795 9.29992 25.0145 8.54688 25.0145V1.2267C8.54733 1.2267 9.46004 1.2267 9.50767 1.2267Z" fill="#fff"/>
<path d="M7.58742 1.2267C7.58742 1.2267 5.46063 1.18768 5.21293 2.44115C4.96523 3.69462 4.30469 8.17998 4.30469 8.17998C4.30469 8.17998 4.37227 9.19482 5.52549 9.65711C6.67917 10.1194 7.73215 11.5883 7.77343 12.1563C7.81472 12.7243 7.77343 24.2795 7.77343 24.2795C7.77343 24.2795 7.79519 25.0145 8.54828 25.0145V1.2267C8.54783 1.2267 7.63506 1.2267 7.58742 1.2267Z" fill="#fff"/>
<defs>
<linearGradient id="paint0_linear_91_12577" x1="2.03508" y1="22.8302" x2="13.5915" y2="22.8719" gradientUnits="userSpaceOnUse">
<stop stop-color="#BFAB8D"/>
<stop offset="0.5078" stop-color="#E7E1D2"/>
<stop offset="1" stop-color="#CCBFA6"/>
</linearGradient>
<linearGradient id="paint1_linear_91_12577" x1="3.92188" y1="4.7003" x2="13.0473" y2="4.7003" gradientUnits="userSpaceOnUse">
<stop stop-color="#94938C"/>
<stop offset="0.2296" stop-color="#EDEBE1"/>
<stop offset="0.7876" stop-color="#EDEBE1"/>
<stop offset="1" stop-color="#94938C"/>
</linearGradient>
</defs>
</svg>
