<svg width="16" height="49" viewBox="0 0 16 49" fill="none" xmlns="http://www.w3.org/2000/svg">
<path d="M15.9834 8.04649C14.7608 8.47016 13.7327 8.66786 13.0102 8.78084C11.3986 9.00679 9.73132 8.83732 6.42465 8.52663C5.72998 8.47014 4.95195 8.35717 3.95161 8.01824C3.118 7.7358 2.4511 7.36863 2.03429 7.08618C1.64527 8.47015 1.97871 10.645 2.06207 12.0572C2.28437 16.0679 2.47889 20.0785 2.42332 24.1174C2.39553 26.3487 2.28438 28.5518 2.08987 30.7548C1.812 33.8052 0.811649 36.7991 0.533778 39.8777C0.339268 42.0525 0.367062 44.2273 0.783869 46.3739C0.922805 47.0517 1.11732 48.7746 1.67306 48.9441C2.42331 49.1418 3.56259 47.9838 3.95161 47.4472C5.20203 45.7243 5.53548 43.4082 6.17458 41.4029C6.89705 39.1716 7.73065 36.9686 8.59205 34.7938C10.2593 30.5571 12.0377 26.2923 13.1214 21.8579C13.7327 19.2877 13.5937 18.7793 14.6219 13.9778C15.1498 11.4358 15.65 9.37397 15.9834 8.04649Z" fill="url(#paint0_linear_145_6679)"/>
<path d="M4.31299 8.13148C4.59086 6.01317 4.89652 3.92309 5.17439 1.80478C5.17439 1.80478 5.36891 0.279607 6.86943 0.138386C8.36994 -0.00283468 10.9264 0.0818876 11.0931 0.110132C11.2598 0.138376 12.2046 0.533798 12.4547 1.15517C13.0382 2.79333 12.8715 4.00782 13.4272 7.53835C13.5106 8.04674 13.594 8.44217 13.6218 8.69637C13.0104 8.83759 12.3991 8.9788 11.7878 9.14827C11.76 6.60629 11.76 4.06431 11.7322 1.52234C11.7322 1.52234 6.11916 5.36355 6.09137 5.39179C6.06358 5.42004 5.22997 8.10323 5.22997 8.10323C5.17439 8.18796 5.14661 8.2727 5.09103 8.35743C4.81316 8.2727 4.56307 8.18797 4.31299 8.13148Z" fill="url(#paint1_linear_145_6679)"/>
<path d="M9.89833 0.364305C9.89833 0.364305 12.0379 0.336054 12.2602 1.66353C12.5103 3.01925 13.1772 7.82076 13.1772 7.82076C13.1772 7.82076 13.1217 8.89405 11.9546 9.40244C10.7875 9.91084 9.75939 11.4642 9.70382 12.0856C9.64824 12.707 9.70382 25.0779 9.70382 25.0779C9.70382 25.0779 9.67604 25.8688 8.92578 25.8688V0.392542C8.95357 0.364298 9.84276 0.364305 9.89833 0.364305Z" fill="white"/>
<path d="M7.98106 0.364305C7.98106 0.364305 5.84144 0.336054 5.61914 1.66353C5.36906 3.01925 4.70215 7.82076 4.70215 7.82076C4.70215 7.82076 4.75773 8.89405 5.9248 9.40244C7.09186 9.91084 8.11999 11.4642 8.17556 12.0856C8.23114 12.707 8.17556 25.0779 8.17556 25.0779C8.17556 25.0779 8.20336 25.8688 8.95362 25.8688V0.392542C8.95362 0.364298 8.03664 0.364305 7.98106 0.364305Z" fill="white"/>
<defs>
<linearGradient id="paint0_linear_145_6679" x1="11.3133" y1="27.9653" x2="2.1526" y2="28.0031" gradientUnits="userSpaceOnUse">
<stop stop-color="#C4AB89"/>
<stop offset="0.5078" stop-color="#E8E1D1"/>
<stop offset="1" stop-color="#D0BFA4"/>
</linearGradient>
<linearGradient id="paint1_linear_145_6679" x1="4.30571" y1="4.57399" x2="13.6234" y2="4.57253" gradientUnits="userSpaceOnUse">
<stop stop-color="#94938C"/>
<stop offset="0.2296" stop-color="#EDEBE0"/>
<stop offset="0.7876" stop-color="#EDEBE0"/>
<stop offset="1" stop-color="#94938C"/>
</linearGradient>
</defs>
</svg>
