<svg width="16" height="48" viewBox="0 0 16 48" fill="none" xmlns="http://www.w3.org/2000/svg">
<path d="M15.5024 8.03554C13.5975 8.02556 11.663 7.84998 9.76123 7.69755C7.45794 7.51291 4.22372 7.62588 2.12049 6.52529C1.92813 6.42458 1.86462 6.08207 1.68769 5.96094C1.28528 7.31013 1.6296 9.4723 1.709 10.8537C1.93629 14.8028 2.11095 18.7592 2.07284 22.7156C2.05152 24.8996 1.92994 27.0681 1.7335 29.2425C1.4622 32.2453 0.44824 35.1769 0.175129 38.2105C-0.0163203 40.3377 0.0158966 42.5004 0.431006 44.6008C0.561664 45.2614 0.751761 46.9739 1.32475 47.1318C2.08057 47.3396 3.22063 46.1773 3.60035 45.6651C4.85612 43.9721 5.17824 41.6792 5.82064 39.7176C6.53926 37.5219 7.38127 35.3688 8.24143 33.2252C9.91866 29.0438 11.6825 24.8733 12.7627 20.4868C13.3938 17.924 13.6746 15.2987 14.2671 12.7264C14.6291 11.1504 15.0569 9.59025 15.5024 8.03554Z" fill="url(#paint0_linear_91_12563)"/>
<path d="M3.96875 8.2879L4.82073 2.16909C4.82073 2.16909 5.02261 0.67013 6.52107 0.526313C8.01998 0.382043 10.585 0.46869 10.7579 0.497271C10.9307 0.526307 11.882 0.900599 12.1125 1.53485C12.343 2.16909 13.0943 7.98031 13.0943 7.98031L12.8012 8.27339L11.3921 1.88056C11.3921 1.88056 5.77207 5.65609 5.74303 5.68512C5.714 5.71416 4.87834 8.36547 4.87834 8.36547L4.41697 8.39452L3.96875 8.2879Z" fill="url(#paint1_linear_91_12563)"/>
<path d="M9.5546 0.757955C9.5546 0.757955 11.6814 0.716681 11.9291 2.03822C12.1768 3.35977 12.8373 8.08791 12.8373 8.08791C12.8373 8.08791 12.7698 9.15768 11.6165 9.64492C10.4629 10.1322 9.40988 11.6805 9.3686 12.2794C9.32731 12.8782 9.3686 25.0588 9.3686 25.0588C9.3686 25.0588 9.34684 25.8337 8.59375 25.8337V0.757955C8.5942 0.757955 9.50697 0.757955 9.5546 0.757955Z" fill="#fff"/>
<path d="M7.63429 0.757955C7.63429 0.757955 5.50751 0.716681 5.2598 2.03822C5.0121 3.35977 4.35156 8.08791 4.35156 8.08791C4.35156 8.08791 4.41914 9.15768 5.57236 9.64492C6.72604 10.1322 7.77901 11.6805 7.82029 12.2794C7.86158 12.8782 7.82029 25.0588 7.82029 25.0588C7.82029 25.0588 7.84205 25.8337 8.59514 25.8337V0.757955C8.59468 0.757955 7.68192 0.757955 7.63429 0.757955Z" fill="#fff"/>
<defs>
<linearGradient id="paint0_linear_91_12563" x1="10.8741" y1="26.5213" x2="1.79225" y2="26.5579" gradientUnits="userSpaceOnUse">
<stop stop-color="#BFAB8D"/>
<stop offset="0.5078" stop-color="#E7E1D2"/>
<stop offset="1" stop-color="#CCBFA6"/>
</linearGradient>
<linearGradient id="paint1_linear_91_12563" x1="3.96875" y1="4.42" x2="13.0942" y2="4.42" gradientUnits="userSpaceOnUse">
<stop stop-color="#94938C"/>
<stop offset="0.2296" stop-color="#EDEBE1"/>
<stop offset="0.7876" stop-color="#EDEBE1"/>
<stop offset="1" stop-color="#94938C"/>
</linearGradient>
</defs>
</svg>
