<svg width="12" height="50" viewBox="0 0 12 50" fill="none" xmlns="http://www.w3.org/2000/svg">
<path d="M11.5725 7.90552C11.5725 7.90552 3.40308 11.8879 1.12453 8.58337C1.20789 11.8597 1.26347 15.1078 1.31904 18.3841C1.40241 24.5978 1.43019 30.8115 1.26347 37.0252C1.20789 39.2 1.15232 41.3748 0.957814 43.5496C0.846665 44.6512 0.707719 45.7527 0.513208 46.8542C0.429846 47.3626 0.124187 47.9557 0.374272 48.4076C0.679932 49.029 1.45798 49.1702 2.01373 48.8878C2.79177 48.4924 3.29194 47.5603 3.68096 46.826C4.59794 45.0466 5.20926 43.0977 5.73722 41.1771C8.96054 29.5123 11.0724 11.4925 11.5725 7.90552Z" fill="url(#paint0_linear_145_6684)"/>
<path d="M1.62451 9.12015C1.90238 6.94534 2.20805 4.74229 2.48592 2.56749C2.48592 2.56749 2.68043 1.04229 4.18094 0.901075C5.68144 0.759854 8.23787 0.844593 8.40459 0.872838C8.57131 0.901082 9.51608 1.2965 9.76617 1.91787C10.2386 3.24535 10.2108 4.20566 10.6831 8.04687C10.6831 8.1316 10.7109 8.21633 10.7109 8.27282C10.5998 8.32931 10.4886 8.35755 10.3775 8.41404C9.93288 6.35222 9.48829 4.31864 9.04369 2.25681C9.04369 2.25681 3.43069 6.09801 3.4029 6.12625C3.37511 6.1545 2.5415 8.83771 2.5415 8.83771C2.65265 9.14839 2.76379 9.45908 2.87493 9.76976C3.23617 9.99572 3.43068 10.1087 3.43068 10.1087C3.43068 10.1652 2.81936 9.82625 1.62451 9.12015Z" fill="url(#paint1_linear_145_6684)"/>
<path d="M7.23769 1.127C7.23769 1.127 9.3773 1.09875 9.5996 2.42622C9.84968 3.78195 10.5166 8.58346 10.5166 8.58346C10.5166 8.58346 10.461 9.65675 9.29395 10.1651C8.12688 10.6735 7.09875 12.2269 7.04317 12.8483C7.01539 13.4697 7.04317 25.8407 7.04317 25.8407C7.04317 25.8407 7.01539 26.6315 6.26514 26.6315V1.15524C6.26514 1.12699 7.18211 1.127 7.23769 1.127Z" fill="white"/>
<path d="M5.32041 1.127C5.32041 1.127 3.1808 1.09875 2.9585 2.42622C2.70841 3.78195 2.0415 8.58346 2.0415 8.58346C2.0415 8.58346 2.09709 9.65675 3.26415 10.1651C4.43122 10.6735 5.45934 12.2269 5.51491 12.8483C5.5427 13.4697 5.51491 25.8407 5.51491 25.8407C5.51491 25.8407 5.54271 26.6315 6.29297 26.6315V1.15524C6.26518 1.12699 5.3482 1.127 5.32041 1.127Z" fill="white"/>
<defs>
<linearGradient id="paint0_linear_145_6684" x1="-1.0623" y1="28.4279" x2="8.17022" y2="28.4608" gradientUnits="userSpaceOnUse">
<stop stop-color="#C4AB89"/>
<stop offset="0.5078" stop-color="#E8E1D1"/>
<stop offset="1" stop-color="#D0BFA4"/>
</linearGradient>
<linearGradient id="paint1_linear_145_6684" x1="1.6331" y1="5.49127" x2="10.741" y2="5.49127" gradientUnits="userSpaceOnUse">
<stop stop-color="#94938C"/>
<stop offset="0.2296" stop-color="#EDEBE0"/>
<stop offset="0.7876" stop-color="#EDEBE0"/>
<stop offset="1" stop-color="#94938C"/>
</linearGradient>
</defs>
</svg>
