<svg width="14" height="44" viewBox="0 0 14 44" fill="none" xmlns="http://www.w3.org/2000/svg">
<path d="M11.7061 3.35156C11.7066 10.8856 13.2413 18.3656 13.5915 25.8942C13.7344 28.9628 13.9708 32.0305 13.9263 35.1045C13.8914 37.5411 14.0778 41.6046 12.5585 43.6797C11.9152 44.5562 10.0117 40.6542 9.82977 40.2795C8.69063 37.9336 7.98293 35.4397 7.10283 32.9918C6.13246 30.292 5.14303 27.5755 4.34777 24.8172C3.28666 21.137 2.68193 17.304 2.00598 13.5391C1.90028 12.9493 0.976637 5.36764 0.59375 5.3132C0.596926 5.3132 9.7454 6.61931 11.7061 3.35156Z" fill="url(#paint0_linear_91_12530)"/>
<path d="M11.2197 8.31866L10.3677 2.20024C10.3677 2.20024 10.1658 0.701366 8.66728 0.557558C7.16828 0.413297 4.60311 0.499938 4.43026 0.528518C4.2574 0.557552 3.30602 0.931822 3.07554 1.56603C2.84507 2.20024 2.09375 8.0111 2.09375 8.0111L2.38683 8.30416L3.796 1.91172C3.796 1.91172 9.41631 5.68702 9.44535 5.71605C9.47439 5.74508 10.3101 8.39624 10.3101 8.39624L10.7715 8.42528L11.2197 8.31866Z" fill="url(#paint1_linear_91_12530)"/>
<path d="M5.63465 0.789205C5.63465 0.789205 3.50763 0.747931 3.2599 2.06948C3.01218 3.39102 2.35156 8.11916 2.35156 8.11916C2.35156 8.11916 2.41915 9.18893 3.5725 9.67618C4.7263 10.1634 5.77939 11.7118 5.82068 12.3106C5.86197 12.9095 5.82068 25.0901 5.82068 25.0901C5.82068 25.0901 5.84244 25.865 6.59561 25.865V0.789205C6.59516 0.789205 5.68229 0.789205 5.63465 0.789205Z" fill="#fff"/>
<path d="M7.55471 0.789205C7.55471 0.789205 9.68173 0.747931 9.92946 2.06948C10.1772 3.39102 10.8378 8.11916 10.8378 8.11916C10.8378 8.11916 10.7702 9.18893 9.61686 9.67618C8.46306 10.1634 7.40997 11.7118 7.36868 12.3106C7.32739 12.9095 7.36868 25.0901 7.36868 25.0901C7.36868 25.0901 7.34692 25.865 6.59375 25.865V0.789205C6.5942 0.789205 7.50707 0.789205 7.55471 0.789205Z" fill="#fff"/>
<defs>
<linearGradient id="paint0_linear_91_12530" x1="1.67467" y1="23.542" x2="17.9796" y2="23.6009" gradientUnits="userSpaceOnUse">
<stop stop-color="#BFAB8D"/>
<stop offset="0.5078" stop-color="#E7E1D2"/>
<stop offset="1" stop-color="#CCBFA6"/>
</linearGradient>
<linearGradient id="paint1_linear_91_12530" x1="11.2197" y1="4.45101" x2="2.09382" y2="4.45101" gradientUnits="userSpaceOnUse">
<stop stop-color="#94938C"/>
<stop offset="0.2296" stop-color="#EDEBE1"/>
<stop offset="0.7876" stop-color="#EDEBE1"/>
<stop offset="1" stop-color="#94938C"/>
</linearGradient>
</defs>
</svg>
