<svg width="12" height="50" viewBox="0 0 12 50" fill="none" xmlns="http://www.w3.org/2000/svg">
<path d="M0.696777 7.90552C0.696777 7.90552 8.86626 11.8879 11.1448 8.58337C11.0615 11.8597 11.0059 15.1078 10.9503 18.3841C10.8669 24.5978 10.8392 30.8115 11.0059 37.0252C11.0615 39.2 11.117 41.3748 11.3115 43.5496C11.4227 44.6512 11.5616 45.7527 11.7561 46.8542C11.8395 47.3626 12.1452 47.9557 11.8951 48.4076C11.5894 49.029 10.8114 49.1702 10.2556 48.8878C9.47757 48.4924 8.9774 47.5603 8.58838 46.826C7.6714 45.0466 7.06007 43.0977 6.53211 41.1771C3.30878 29.5123 1.19695 11.4925 0.696777 7.90552Z" fill="url(#paint0_linear_145_6699)"/>
<path d="M10.6445 9.12015C10.3667 6.94534 10.061 4.74229 9.78312 2.56749C9.78312 2.56749 9.58861 1.04229 8.0881 0.901075C6.58759 0.759854 4.03116 0.844593 3.86444 0.872838C3.69772 0.901082 2.75295 1.2965 2.50286 1.91787C2.03048 3.24535 2.05827 4.20566 1.58589 8.04687C1.58589 8.1316 1.55811 8.21633 1.55811 8.27282C1.66925 8.32931 1.78041 8.35755 1.89156 8.41404C2.33615 6.35222 2.78074 4.31864 3.22534 2.25681C3.22534 2.25681 8.83835 6.09801 8.86614 6.12625C8.89393 6.1545 9.72754 8.83771 9.72754 8.83771C9.61639 9.14839 9.50524 9.45908 9.3941 9.76976C9.03286 9.99572 8.83836 10.1087 8.83836 10.1087C8.83836 10.1652 9.44967 9.82625 10.6445 9.12015Z" fill="url(#paint1_linear_145_6699)"/>
<path d="M5.03135 1.127C5.03135 1.127 2.89172 1.09875 2.66942 2.42622C2.41934 3.78195 1.75244 8.58346 1.75244 8.58346C1.75244 8.58346 1.80801 9.65675 2.97508 10.1651C4.14215 10.6735 5.17029 12.2269 5.22586 12.8483C5.25365 13.4697 5.22586 25.8407 5.22586 25.8407C5.22586 25.8407 5.25365 26.6315 6.00391 26.6315V1.15524C6.00391 1.12699 5.08692 1.127 5.03135 1.127Z" fill="white"/>
<path d="M6.94862 1.127C6.94862 1.127 9.08823 1.09875 9.31052 2.42622C9.56061 3.78195 10.2275 8.58346 10.2275 8.58346C10.2275 8.58346 10.1719 9.65675 9.00487 10.1651C7.83781 10.6735 6.8097 12.2269 6.75413 12.8483C6.69855 13.4697 6.75413 25.8407 6.75413 25.8407C6.75413 25.8407 6.72632 26.6315 5.97607 26.6315V1.15524C6.00386 1.12699 6.92083 1.127 6.94862 1.127Z" fill="white"/>
<defs>
<linearGradient id="paint0_linear_145_6699" x1="13.3315" y1="28.4279" x2="4.09892" y2="28.4608" gradientUnits="userSpaceOnUse">
<stop stop-color="#C4AB89"/>
<stop offset="0.5078" stop-color="#E8E1D1"/>
<stop offset="1" stop-color="#D0BFA4"/>
</linearGradient>
<linearGradient id="paint1_linear_145_6699" x1="10.6354" y1="5.49127" x2="1.52776" y2="5.49127" gradientUnits="userSpaceOnUse">
<stop stop-color="#94938C"/>
<stop offset="0.2296" stop-color="#EDEBE0"/>
<stop offset="0.7876" stop-color="#EDEBE0"/>
<stop offset="1" stop-color="#94938C"/>
</linearGradient>
</defs>
</svg>
