<svg width="13" height="46" viewBox="0 0 13 46" fill="none" xmlns="http://www.w3.org/2000/svg">
<path d="M0.890625 4.64844C0.890625 4.64844 9.06138 8.57039 11.3492 5.30218C11.2593 8.51368 11.204 11.727 11.1618 14.9394C11.082 21.048 11.0497 27.1626 11.228 33.2698C11.2906 35.4148 11.3405 37.5624 11.5456 39.6996C11.6499 40.7884 11.7937 41.8741 11.9992 42.9483C12.0936 43.4428 12.3781 44.0253 12.149 44.4767C11.8441 45.0769 11.0566 45.213 10.5063 44.9422C9.7319 44.5611 9.22288 43.6238 8.83864 42.9002C7.91183 41.1545 7.31392 39.2251 6.77317 37.3324C3.5055 25.8932 1.39463 8.16435 0.890625 4.64844Z" fill="url(#paint0_linear_91_12542)"/>
<path d="M10.961 8.24056L10.109 2.12211C10.109 2.12211 9.90717 0.623242 8.40878 0.479433C6.90994 0.335171 4.34504 0.421813 4.1722 0.450393C3.99936 0.479427 3.04808 0.853697 2.81763 1.48791C2.58718 2.12211 1.83594 7.93299 1.83594 7.93299L2.12899 8.22605L3.53801 1.8336C3.53801 1.8336 9.15774 5.6089 9.18678 5.63793C9.21581 5.66697 10.0514 8.31813 10.0514 8.31813L10.5128 8.34717L10.961 8.24056Z" fill="url(#paint1_linear_91_12542)"/>
<path d="M5.37649 0.71108C5.37649 0.71108 3.2497 0.669807 3.00199 1.99133C2.75429 3.31284 2.09375 8.0409 2.09375 8.0409C2.09375 8.0409 2.16133 9.11065 3.31456 9.59788C4.46823 10.0851 5.52121 11.6335 5.56249 12.2323C5.60378 12.8311 5.56249 25.0115 5.56249 25.0115C5.56249 25.0115 5.58425 25.7864 6.33734 25.7864V0.71108C6.33689 0.71108 5.42412 0.71108 5.37649 0.71108Z" fill="#fff"/>
<path d="M7.29679 0.71108C7.29679 0.71108 9.42356 0.669807 9.67126 1.99133C9.91896 3.31284 10.5795 8.0409 10.5795 8.0409C10.5795 8.0409 10.5119 9.11065 9.3587 9.59788C8.20503 10.0851 7.15206 11.6335 7.11078 12.2323C7.0695 12.8311 7.11078 25.0115 7.11078 25.0115C7.11078 25.0115 7.08902 25.7864 6.33594 25.7864V0.71108C6.33639 0.71108 7.24915 0.71108 7.29679 0.71108Z" fill="#fff"/>
<defs>
<linearGradient id="paint0_linear_91_12542" x1="13.5295" y1="24.8346" x2="4.29672" y2="24.868" gradientUnits="userSpaceOnUse">
<stop stop-color="#BFAB8D"/>
<stop offset="0.5078" stop-color="#E7E1D2"/>
<stop offset="1" stop-color="#CCBFA6"/>
</linearGradient>
<linearGradient id="paint1_linear_91_12542" x1="10.961" y1="4.37289" x2="1.83601" y2="4.37289" gradientUnits="userSpaceOnUse">
<stop stop-color="#94938C"/>
<stop offset="0.2296" stop-color="#EDEBE1"/>
<stop offset="0.7876" stop-color="#EDEBE1"/>
<stop offset="1" stop-color="#94938C"/>
</linearGradient>
</defs>
</svg>
