<svg width="16" height="49" viewBox="0 0 16 49" fill="none" xmlns="http://www.w3.org/2000/svg">
<path d="M0.286133 8.04649C1.50877 8.47016 2.53691 8.66786 3.25938 8.78084C4.87104 9.00679 6.53828 8.83732 9.84497 8.52663C10.5396 8.47014 11.3177 8.35717 12.318 8.01824C13.1516 7.7358 13.8185 7.36863 14.2354 7.08618C14.6244 8.47015 14.2909 10.645 14.2076 12.0572C13.9853 16.0679 13.7908 20.0785 13.8463 24.1174C13.8741 26.3487 13.9853 28.5518 14.1798 30.7548C14.4576 33.8052 15.458 36.7991 15.7359 39.8777C15.9304 42.0525 15.9026 44.2273 15.4858 46.3739C15.3468 47.0517 15.1523 48.7746 14.5966 48.9441C13.8463 49.1418 12.707 47.9838 12.318 47.4472C11.0676 45.7243 10.7341 43.4082 10.095 41.4029C9.37257 39.1716 8.53897 36.9686 7.67756 34.7938C6.01032 30.5571 4.23192 26.2923 3.14822 21.8579C2.5369 19.2877 2.67585 18.7793 1.64772 13.9778C1.11976 11.4358 0.61958 9.37397 0.286133 8.04649Z" fill="url(#paint0_linear_145_6704)"/>
<path d="M11.9567 8.13148C11.6788 6.01317 11.3731 3.92309 11.0953 1.80478C11.0953 1.80478 10.9007 0.279607 9.40024 0.138386C7.89973 -0.00283468 5.34332 0.0818876 5.1766 0.110132C5.00987 0.138376 4.0651 0.533798 3.81502 1.15517C3.23148 2.79333 3.39821 4.00782 2.84246 7.53835C2.7591 8.04674 2.67574 8.44217 2.64795 8.69637C3.25927 8.83759 3.8706 8.9788 4.48192 9.14827C4.5097 6.60629 4.50969 4.06431 4.53748 1.52234C4.53748 1.52234 10.1505 5.36355 10.1783 5.39179C10.2061 5.42004 11.0397 8.10323 11.0397 8.10323C11.0953 8.18796 11.1231 8.2727 11.1786 8.35743C11.4565 8.2727 11.7066 8.18797 11.9567 8.13148Z" fill="url(#paint1_linear_145_6704)"/>
<path d="M6.37164 0.364305C6.37164 0.364305 4.23204 0.336054 4.00974 1.66353C3.75966 3.01925 3.09277 7.82076 3.09277 7.82076C3.09277 7.82076 3.14834 8.89405 4.31539 9.40244C5.48245 9.91084 6.51058 11.4642 6.56616 12.0856C6.62173 12.707 6.56616 25.0779 6.56616 25.0779C6.56616 25.0779 6.59394 25.8688 7.34419 25.8688V0.392542C7.31641 0.364298 6.42722 0.364305 6.37164 0.364305Z" fill="white"/>
<path d="M8.28897 0.364305C8.28897 0.364305 10.4286 0.336054 10.6509 1.66353C10.8732 2.99101 11.5679 7.82076 11.5679 7.82076C11.5679 7.82076 11.5123 8.89405 10.3452 9.40244C9.17817 9.91084 8.15004 11.4642 8.09447 12.0856C8.03889 12.707 8.09447 25.0779 8.09447 25.0779C8.09447 25.0779 8.06667 25.8688 7.31641 25.8688V0.392542C7.31641 0.364298 8.23339 0.364305 8.28897 0.364305Z" fill="white"/>
<defs>
<linearGradient id="paint0_linear_145_6704" x1="4.95611" y1="27.9653" x2="14.1168" y2="28.0031" gradientUnits="userSpaceOnUse">
<stop stop-color="#C4AB89"/>
<stop offset="0.5078" stop-color="#E8E1D1"/>
<stop offset="1" stop-color="#D0BFA4"/>
</linearGradient>
<linearGradient id="paint1_linear_145_6704" x1="11.964" y1="4.57397" x2="2.64603" y2="4.57251" gradientUnits="userSpaceOnUse">
<stop stop-color="#94938C"/>
<stop offset="0.2296" stop-color="#EDEBE0"/>
<stop offset="0.7876" stop-color="#EDEBE0"/>
<stop offset="1" stop-color="#94938C"/>
</linearGradient>
</defs>
</svg>
