<svg width="16" height="41" viewBox="0 0 16 41" fill="none" xmlns="http://www.w3.org/2000/svg">
<path d="M0.104004 9.50546C0.909828 14.8436 2.32698 20.1818 4.16092 25.2375C6.18938 30.8016 8.71799 36.3657 13.6363 39.8397C13.7474 39.9244 13.8864 40.0092 14.0253 40.0092C14.1643 40.0092 14.3032 39.9244 14.4421 39.8397C15.109 39.3313 15.3591 38.371 15.3035 37.5237C15.2202 36.6764 14.8867 35.8573 14.6088 35.0382C12.8027 30.1237 12.3859 24.7008 11.8579 19.5039C11.5245 16.2276 10.7742 12.1886 11.5245 8.91232C12.3581 5.49477 0.631958 8.88409 0.104004 9.50546Z" fill="url(#paint0_linear_145_6714)"/>
<path d="M10.4687 7.55661C10.1909 5.6925 9.94079 3.85662 9.66292 1.99251C9.66292 1.99251 9.46839 0.552061 7.96788 0.41084C6.46737 0.26962 3.91096 0.354359 3.74424 0.382603C3.32743 0.439092 2.79947 0.806266 2.38266 1.37115C2.077 1.79481 2.0492 2.13373 1.85469 3.68716C1.54903 6.22913 1.46567 6.42685 1.43789 7.33066C1.4101 7.72608 1.38232 8.91233 1.38232 8.91233C2.10479 8.65813 2.82726 8.43219 3.54972 8.17799C3.41079 6.00319 3.24406 3.85663 3.10512 1.68183C3.10512 1.68183 8.71815 5.32533 8.74594 5.35357C8.77373 5.38182 9.60734 7.95204 9.60734 7.95204C9.55176 7.78257 9.4962 7.58486 9.44062 7.41539C9.77407 7.47188 10.1075 7.52837 10.4687 7.55661Z" fill="url(#paint1_linear_145_6714)"/>
<path d="M4.93904 0.63677C4.93904 0.63677 2.79943 0.608533 2.57713 1.87952C2.32705 3.15051 1.66016 7.72607 1.66016 7.72607C1.66016 7.72607 1.71572 8.7711 2.88278 9.22301C4.04984 9.70316 5.07798 11.2001 5.13355 11.765C5.16134 12.3299 5.13355 24.0794 5.13355 24.0794C5.13355 24.0794 5.16134 24.8138 5.91159 24.8138V0.63677C5.8838 0.63677 4.96683 0.63677 4.93904 0.63677Z" fill="white"/>
<path d="M6.85634 0.63677C6.85634 0.63677 8.99594 0.608533 9.21824 1.87952C9.46832 3.15051 10.1352 7.72607 10.1352 7.72607C10.1352 7.72607 10.0796 8.7711 8.91259 9.22301C7.74553 9.70316 6.71741 11.1719 6.66184 11.765C6.63405 12.3299 6.66184 24.0794 6.66184 24.0794C6.66184 24.0794 6.63404 24.8138 5.88379 24.8138V0.63677C5.88379 0.63677 6.80076 0.63677 6.85634 0.63677Z" fill="white"/>
<defs>
<linearGradient id="paint0_linear_145_6714" x1="3.33867" y1="23.703" x2="13.7044" y2="23.7415" gradientUnits="userSpaceOnUse">
<stop stop-color="#C4AB89"/>
<stop offset="0.5078" stop-color="#E8E1D1"/>
<stop offset="1" stop-color="#D0BFA4"/>
</linearGradient>
<linearGradient id="paint1_linear_145_6714" x1="10.4654" y1="4.64446" x2="1.37816" y2="4.64304" gradientUnits="userSpaceOnUse">
<stop stop-color="#94938C"/>
<stop offset="0.2296" stop-color="#EDEBE0"/>
<stop offset="0.7876" stop-color="#EDEBE0"/>
<stop offset="1" stop-color="#94938C"/>
</linearGradient>
</defs>
</svg>
