<svg width="24" height="37" viewBox="0 0 24 37" fill="none" xmlns="http://www.w3.org/2000/svg">
<path d="M11.4604 1.92712C11.4604 1.92712 10.5545 -0.127076 8.72031 0.387379C6.88616 0.901833 6.2524 5.6957 6.58448 9.22974C6.9161 12.7638 8.48804 23.9765 11.1905 24.2074C13.893 24.4383 18.8352 18.0875 16.5868 14.5494C14.3385 11.0117 10.618 4.80108 11.4604 1.92712Z" fill="url(#paint0_linear_91_12644)"/>
<path d="M23.2841 32.3777C20.0853 32.1472 16.4555 30.5834 13.2508 30.4569C11.2406 30.3775 9.22949 30.2445 7.21701 30.309C6.28654 30.3384 4.90239 32.8191 4.0005 32.7043C3.41526 32.6299 3.80134 30.2264 3.82539 29.6044C3.8458 29.075 3.89071 28.5478 3.81314 28.0202C3.53458 26.1184 2.48842 24.3128 2.05335 22.4111C1.54978 20.2113 1.20953 17.9688 1.00039 15.7222C0.778547 13.3391 0.685087 10.9048 0.996758 8.52483C1.13104 7.49864 1.31432 6.45657 1.72172 5.49888C2.03883 4.75351 2.80781 3.29043 3.79045 3.40248C4.15112 3.44377 4.47413 3.64883 4.74406 3.89244C5.27304 4.37015 5.64142 5.0062 5.88504 5.67626C6.38725 7.05858 6.37636 8.54706 6.47299 9.99516C6.5728 11.4882 6.97974 12.8709 7.31455 14.32C7.93607 17.0125 8.67011 20.1813 10.434 22.3884C10.8631 22.9255 11.5083 23.3602 12.1928 23.2953C12.544 23.2617 12.872 23.1002 13.1587 22.8947C14.1917 22.1539 14.7171 20.8754 14.8963 19.617C15.2633 17.0383 14.987 14.1938 14.2979 11.6941C13.8937 10.227 13.1469 8.91317 12.6905 7.47867C12.2083 5.96207 11.5541 2.95336 13.6922 2.37584C14.5551 2.14266 15.4738 2.58362 16.1189 3.20242C18.5106 5.4957 20.1262 8.905 21.5094 11.8611C22.3577 13.6735 23.1766 15.5471 23.6988 17.4843C24.0127 18.6488 23.9792 19.8093 23.946 21.012C23.853 24.3741 23.6575 29.0446 23.2841 32.3777Z" fill="url(#paint1_linear_91_12644)"/>
<path d="M17.3206 28.9816L16.4686 35.1002C16.4686 35.1002 16.2667 36.5991 14.7683 36.7429C13.2694 36.8871 10.7045 36.8005 10.5316 36.7719C10.3588 36.7433 9.40747 36.3686 9.17702 35.7344C8.94656 35.1002 8.19531 29.2892 8.19531 29.2892L8.48837 28.9961L9.89743 35.3887C9.89743 35.3887 15.5173 31.6133 15.5463 31.5843C15.5754 31.5552 16.411 28.904 16.411 28.904L16.8719 28.875L17.3206 28.9816Z" fill="url(#paint2_linear_91_12644)"/>
<path d="M11.7359 36.513C11.7359 36.513 9.60907 36.5543 9.36137 35.2328C9.11367 33.9112 8.45312 29.1831 8.45312 29.1831C8.45312 29.1831 8.52072 28.1134 9.67394 27.6261C10.8276 27.1389 11.8806 25.5905 11.9219 24.9917C11.9631 24.3929 11.9219 12.2124 11.9219 12.2124C11.9219 12.2124 11.9436 11.4375 12.6967 11.4375V36.513C12.6963 36.513 11.7835 36.513 11.7359 36.513Z" fill="#fff"/>
<path d="M13.6562 36.513C13.6562 36.513 15.783 36.5543 16.0307 35.2328C16.2784 33.9112 16.9389 29.1831 16.9389 29.1831C16.9389 29.1831 16.8713 28.1134 15.7181 27.6261C14.5644 27.1389 13.5115 25.5905 13.4702 24.9917C13.4289 24.3929 13.4702 12.2124 13.4702 12.2124C13.4702 12.2124 13.4484 11.4375 12.6953 11.4375V36.513C12.6958 36.513 13.6085 36.513 13.6562 36.513Z" fill="#fff"/>
<path d="M11.9704 28.8315C12.3188 28.66 12.4622 28.2385 12.2907 27.8901L6.45911 16.049C6.28762 15.7006 5.86616 15.5572 5.51773 15.7287C5.16931 15.9002 5.02596 16.3216 5.19745 16.6701L11.029 28.5112C11.2005 28.8596 11.6219 29.0029 11.9704 28.8315Z" fill="#fff"/>
<path d="M17.1484 15.988C16.7705 15.8981 16.3916 16.1318 16.3018 16.5097L13.2536 29.3521C13.1638 29.73 13.3974 30.1089 13.7753 30.1987C14.1532 30.2885 14.532 30.0549 14.6219 29.677L17.6701 16.8345C17.7599 16.4571 17.5263 16.0778 17.1484 15.988Z" fill="#fff"/>
<defs>
<linearGradient id="paint0_linear_91_12644" x1="14.9689" y1="23.1794" x2="-3.59293" y2="-22.1856" gradientUnits="userSpaceOnUse">
<stop offset="0.1599" stop-color="#BFAB8D"/>
<stop offset="0.5078" stop-color="#E7E1D2"/>
<stop offset="0.7297" stop-color="#CCBFA6"/>
</linearGradient>
<linearGradient id="paint1_linear_91_12644" x1="2.09671" y1="17.1922" x2="23.0073" y2="18.1377" gradientUnits="userSpaceOnUse">
<stop offset="0.1599" stop-color="#BFAB8D"/>
<stop offset="0.5078" stop-color="#E7E1D2"/>
<stop offset="0.7297" stop-color="#CCBFA6"/>
</linearGradient>
<linearGradient id="paint2_linear_91_12644" x1="17.3206" y1="32.8494" x2="8.19539" y2="32.8494" gradientUnits="userSpaceOnUse">
<stop stop-color="#94938C"/>
<stop offset="0.2296" stop-color="#EDEBE1"/>
<stop offset="0.7876" stop-color="#EDEBE1"/>
<stop offset="1" stop-color="#94938C"/>
</linearGradient>
</defs>
</svg>
