<svg width="28" height="41" viewBox="0 0 28 41" fill="none" xmlns="http://www.w3.org/2000/svg">
<path d="M17.8929 36.5243C18.5598 38.7274 16.976 39.6312 15.5032 38.3037C12.6412 35.79 10.9739 31.7511 9.52901 28.0511C8.86212 26.3282 5.94447 20.3121 7.47276 18.8434C8.97326 17.403 14.9197 20.1427 15.2254 24.0121C15.3921 26.1022 15.4477 28.2205 15.8089 30.3106C16.1979 32.5984 17.226 34.3495 17.8929 36.5243Z" fill="url(#paint0_linear_145_6719)"/>
<path d="M1.10946 10.8221C1.33175 11.5847 1.41512 12.1779 1.49848 12.5733C1.80414 13.9008 2.08202 15.2565 2.30432 16.5839C2.47104 17.6855 2.63777 18.787 2.72113 19.9168C2.83228 20.9901 2.72111 22.1763 2.94341 23.2496C3.13792 24.2946 3.49917 25.3961 3.8604 26.3847C4.88853 29.4068 6.47239 32.2312 8.33414 34.8014C9.2789 36.1007 10.2793 37.3152 11.3352 38.5014C12.0021 39.2358 13.3914 41.3823 14.5585 40.4785C15.0031 40.1396 15.1698 39.5465 15.142 38.9816C15.1142 38.4167 14.9197 37.9083 14.7252 37.3717C13.2803 33.361 11.8909 28.39 12.6967 24.0969C12.7801 23.645 12.919 23.1931 13.2247 22.8542C13.6415 22.4305 14.3084 22.3458 14.8641 22.487C15.4199 22.6282 15.9201 23.0236 16.3369 23.4473C17.7818 24.8877 18.8099 26.8931 19.6991 28.7289C20.366 30.1129 20.8662 31.5816 21.144 33.1068C21.4219 34.5472 21.1719 36.2984 21.7554 37.6541C22.0888 38.4167 22.7835 39.0663 23.6171 39.0381C24.2562 39.0098 24.812 38.6144 25.2288 38.106C26.7849 36.2984 27.0628 33.4457 27.1739 31.1579C27.2851 28.277 26.896 25.3961 26.4514 22.5717C25.7845 18.2221 25.1732 16.7534 24.2284 11.0481C24.0061 9.63587 23.8116 8.47785 23.7005 7.68701C20.8106 8.59083 17.0315 9.49464 12.5578 9.80533C7.75059 10.1443 3.63809 9.69236 0.553711 9.12748C0.720434 9.55114 0.914945 10.116 1.10946 10.8221Z" fill="url(#paint1_linear_145_6719)"/>
<path d="M17.5039 9.2125C17.4761 8.90181 17.4205 8.59113 17.3927 8.28045C17.1426 6.21862 16.8648 4.21327 16.5591 2.23618C16.2812 1.78427 15.8922 0.654515 14.8641 0.569783C13.3636 0.428562 10.8072 0.513284 10.6405 0.541528C10.4737 0.569772 9.52898 0.965195 9.2789 1.58657C8.72315 3.16824 8.612 4.29801 8.33413 7.85678C8.25077 8.7606 8.16739 9.49495 8.11182 9.89037C9.33445 9.91861 10.5849 9.9186 11.8075 9.94684C11.1962 7.26364 10.6127 4.6087 10.0014 1.9255C10.0014 1.9255 15.6144 5.76671 15.6422 5.79496C15.6699 5.8232 16.5035 8.5064 16.5035 8.5064C16.3368 8.81708 16.1701 9.12778 16.0311 9.46671C16.5313 9.41022 17.0315 9.32548 17.5039 9.2125Z" fill="url(#paint2_linear_145_6719)"/>
<path d="M11.8355 0.823777C11.8355 0.823777 9.69588 0.795544 9.47359 2.12302C9.22351 3.47874 8.55664 8.28025 8.55664 8.28025C8.55664 8.28025 8.61219 9.35353 9.77924 9.86192C10.9463 10.3703 11.9744 11.9237 12.03 12.5451C12.0578 13.1665 12.03 25.5375 12.03 25.5375C12.03 25.5375 12.0578 26.3283 12.808 26.3283V0.852032C12.808 0.823788 11.891 0.823777 11.8355 0.823777Z" fill="white"/>
<path d="M13.7528 0.823777C13.7528 0.823777 15.8925 0.795544 16.1148 2.12302C16.3371 3.4505 17.0318 8.28025 17.0318 8.28025C17.0318 8.28025 16.9762 9.35353 15.8091 9.86192C14.642 10.3703 13.6139 11.9237 13.5583 12.5451C13.5305 13.1665 13.5583 25.5375 13.5583 25.5375C13.5583 25.5375 13.5305 26.3283 12.7803 26.3283V0.852032C12.8081 0.823788 13.725 0.823777 13.7528 0.823777Z" fill="white"/>
<path d="M20.1161 19.0415L19.9772 19.1262C19.6993 19.3239 19.3103 19.2392 19.1158 18.9285L13.6139 10.0598C13.4194 9.77738 13.5028 9.38197 13.8084 9.18426L13.9473 9.09952C14.2252 8.90181 14.6143 8.98654 14.8088 9.29723L20.3106 18.1659C20.4773 18.4766 20.394 18.8437 20.1161 19.0415Z" fill="white"/>
<path d="M5.77767 18.2224L5.9166 18.3071C6.19447 18.5048 6.58348 18.4201 6.77798 18.1094L12.2797 9.24072C12.4742 8.95828 12.3909 8.56286 12.0852 8.36515L11.9463 8.28043C11.6684 8.08272 11.2794 8.16745 11.0849 8.47814L5.58314 17.3468C5.38864 17.6292 5.47202 18.0247 5.77767 18.2224Z" fill="white"/>
<defs>
<linearGradient id="paint0_linear_145_6719" x1="10.1644" y1="17.9527" x2="18.175" y2="62.926" gradientUnits="userSpaceOnUse">
<stop offset="0.1599" stop-color="#C4AB89"/>
<stop offset="0.5078" stop-color="#E8E1D1"/>
<stop offset="0.7297" stop-color="#D0BFA4"/>
</linearGradient>
<linearGradient id="paint1_linear_145_6719" x1="3.16102" y1="24.1318" x2="25.6867" y2="24.2119" gradientUnits="userSpaceOnUse">
<stop stop-color="#C4AB89"/>
<stop offset="0.5078" stop-color="#E8E1D1"/>
<stop offset="1" stop-color="#D0BFA4"/>
</linearGradient>
<linearGradient id="paint2_linear_145_6719" x1="17.5117" y1="5.2397" x2="8.11621" y2="5.2397" gradientUnits="userSpaceOnUse">
<stop stop-color="#94938C"/>
<stop offset="0.2296" stop-color="#EDEBE0"/>
<stop offset="0.7876" stop-color="#EDEBE0"/>
<stop offset="1" stop-color="#94938C"/>
</linearGradient>
</defs>
</svg>
