<svg width="23" height="39" viewBox="0 0 23 39" fill="none" xmlns="http://www.w3.org/2000/svg">
<path d="M12.4011 33C12.5956 34.9771 11.3452 35.429 10.4282 34.045C8.67762 31.3618 8.01071 27.6336 7.45497 24.216C7.1771 22.6343 5.87111 16.9855 7.1771 16.0534C8.4553 15.1214 12.4011 18.5954 12.0954 21.9282C11.9287 23.7359 11.7064 25.5153 11.7064 27.3794C11.6786 29.3565 12.1788 31.0511 12.4011 33Z" fill="url(#paint0_linear_145_6727)"/>
<path d="M0.758301 10.3765C0.952811 11.0261 1.98093 14.2459 2.31438 16.5337C2.42553 17.2963 2.45331 17.833 2.45331 18.0024C2.4811 18.8498 2.42553 19.6971 2.2866 20.5726C1.92536 22.9169 1.89758 25.3459 2.00873 27.6902C2.17545 31.3619 3.89827 34.1298 5.28763 37.4344C5.7878 38.6489 6.98266 39.2703 8.03857 38.1688C9.40015 36.7566 9.03889 33.7909 9.09447 31.9833C9.17783 29.526 9.20564 27.0406 9.70581 24.6398C9.90032 23.5948 10.206 22.5497 10.7339 21.6459C11.2619 20.7421 12.2344 20.2902 13.1792 20.9398C14.4296 21.8154 14.7075 23.7077 15.1521 25.0635C15.5689 26.3345 15.9301 27.6337 16.2914 28.9047C16.7915 30.7123 17.2639 32.5482 17.7363 34.384C17.9308 35.1466 18.5699 36.926 19.6814 36.1352C20.0426 35.881 20.2371 35.4291 20.3761 35.0054C20.8762 33.5932 21.2931 32.1528 21.6821 30.7123C22.2101 28.7635 22.7102 26.8429 22.8214 24.8375C22.9881 22.0978 21.9044 19.3582 21.4042 16.7032C20.9041 14.1612 21.3486 11.817 20.3761 8.11697C20.3205 7.89101 20.2649 7.6933 20.2371 7.58032C19.2924 7.80628 17.8474 8.11697 16.0135 8.39941C14.0962 8.68185 13.6516 8.65361 10.7061 9.02079C9.76137 9.13376 9.48351 9.19024 5.39879 9.75513C3.92606 9.92459 2.11987 10.1788 0.758301 10.3765Z" fill="url(#paint1_linear_145_6727)"/>
<path d="M5.70459 9.78348C6.06582 7.10029 6.42706 4.41709 6.7883 1.7339C6.7883 1.7339 6.98278 0.265203 8.42772 0.123982C9.87266 -0.017239 12.3735 0.0674832 12.5402 0.0957274C12.707 0.123971 13.6239 0.491156 13.8462 1.11253C14.402 2.66595 14.3186 3.82396 14.7632 7.26975C14.8466 7.83463 14.93 8.28653 14.9855 8.56897C14.4576 8.6537 13.9574 8.71021 13.4294 8.79494C13.3461 6.36594 13.2349 3.90869 13.1515 1.4797C13.1515 1.4797 7.70526 5.17968 7.67748 5.23616C7.64969 5.26441 6.84386 7.86287 6.84386 7.86287C7.45518 8.37126 8.06649 8.87966 8.67781 9.38806C7.67747 9.47279 6.67714 9.64226 5.70459 9.78348Z" fill="url(#paint2_linear_145_6727)"/>
<path d="M9.42774 0.265184C9.42774 0.265184 7.28818 0.236933 7.06589 1.56441C6.8436 2.89188 6.14893 7.72163 6.14893 7.72163C6.14893 7.72163 6.20451 8.79492 7.37154 9.30332C8.53857 9.81171 9.56666 11.3651 9.62223 11.9865C9.65002 12.6079 9.62223 24.9788 9.62223 24.9788C9.62223 24.9788 9.65003 25.7696 10.4003 25.7696V0.293421C10.3725 0.265177 9.48332 0.265184 9.42774 0.265184Z" fill="white"/>
<path d="M11.3451 0.265184C11.3451 0.265184 13.4847 0.236933 13.707 1.56441C13.9293 2.89188 14.624 7.72163 14.624 7.72163C14.624 7.72163 14.5684 8.79492 13.4014 9.30332C12.2343 9.81171 11.2062 11.3651 11.1506 11.9865C11.1228 12.6079 11.1506 24.9788 11.1506 24.9788C11.1506 24.9788 11.1228 25.7696 10.3726 25.7696V0.293421C10.3726 0.265177 11.2895 0.265184 11.3451 0.265184Z" fill="white"/>
<path d="M17.2085 18.6237C16.8751 18.8214 16.4305 18.7084 16.236 18.3695L11.1509 9.41611C10.9564 9.07718 11.0675 8.62527 11.401 8.42756C11.7344 8.22986 12.179 8.34284 12.3735 8.73826L17.4586 17.6917C17.6531 17.9741 17.542 18.426 17.2085 18.6237Z" fill="white"/>
<path d="M3.28682 18.5674L3.42576 18.6521C3.73141 18.8216 4.09267 18.7368 4.28718 18.4261L9.45556 9.3315C9.62228 9.02082 9.53891 8.65365 9.23325 8.45594L9.09432 8.37121C8.78866 8.20174 8.42743 8.28647 8.23293 8.59716L3.06455 17.6918C2.87004 18.0025 2.98116 18.3979 3.28682 18.5674Z" fill="white"/>
<defs>
<linearGradient id="paint0_linear_145_6727" x1="9.26314" y1="15.8278" x2="7.084" y2="55.265" gradientUnits="userSpaceOnUse">
<stop offset="0.1599" stop-color="#C4AB89"/>
<stop offset="0.5078" stop-color="#E8E1D1"/>
<stop offset="0.7297" stop-color="#D0BFA4"/>
</linearGradient>
<linearGradient id="paint1_linear_145_6727" x1="3.32634" y1="24.6733" x2="20.8636" y2="21.316" gradientUnits="userSpaceOnUse">
<stop stop-color="#C4AB89"/>
<stop offset="0.5078" stop-color="#E8E1D1"/>
<stop offset="1" stop-color="#D0BFA4"/>
</linearGradient>
<linearGradient id="paint2_linear_145_6727" x1="5.69303" y1="4.89775" x2="14.9578" y2="4.89775" gradientUnits="userSpaceOnUse">
<stop stop-color="#94938C"/>
<stop offset="0.2296" stop-color="#EDEBE0"/>
<stop offset="0.7876" stop-color="#EDEBE0"/>
<stop offset="1" stop-color="#94938C"/>
</linearGradient>
</defs>
</svg>
