<svg width="22" height="35" viewBox="0 0 22 35" fill="none" xmlns="http://www.w3.org/2000/svg">
<path d="M12.7433 31.7412C13.0489 33.6336 11.8541 34.1137 10.9093 32.8427C9.10312 30.3855 8.26951 26.855 7.54703 23.6351C7.21359 22.1382 5.68528 16.8283 6.85235 15.868C8.01942 14.9077 11.9374 18.0145 11.8541 21.1779C11.7985 22.9008 11.6874 24.6237 11.7707 26.3748C11.8819 28.3237 12.4654 29.9053 12.7433 31.7412Z" fill="url(#paint0_linear_145_6735)"/>
<path d="M0.26709 8.04439C0.26709 8.04439 1.57308 11.6879 1.57308 15.6986C1.57308 19.7092 1.23962 24.6802 3.54596 28.3237C5.82451 31.9672 6.49143 33.6336 6.49143 33.6336C6.49143 33.6336 8.46432 35.9496 9.43687 33.2947C9.43687 33.2947 7.15832 25.3298 8.46432 21.3474C9.77032 17.365 11.0763 18.6924 11.4098 19.3421C11.7432 20.0199 16.3003 27.6458 16.9672 29.6512C17.6341 31.6565 18.6066 33.6336 19.2457 33.6336C19.8848 33.6336 20.8852 31.9672 21.5243 28.9733C22.3301 25.2168 20.8852 22.1665 20.2183 20.3306C19.0512 17.1108 17.8286 12.4222 17.6063 6.03906C15.2166 6.8299 12.16 7.59249 8.60325 7.95966C5.40772 8.29859 2.60122 8.2421 0.26709 8.04439Z" fill="url(#paint1_linear_145_6735)"/>
<path d="M4.85205 8.21389C4.87984 7.90321 4.87982 7.62078 4.90761 7.3101C5.04655 5.50247 5.29664 3.80781 5.6023 2.19789C5.63009 1.97194 5.74123 1.60477 6.04689 1.26584C6.35255 0.955151 6.71382 0.842171 7.04727 0.785683C8.60337 0.446753 9.46475 0.559737 10.6318 0.757446C10.7708 0.78569 11.5766 1.09638 11.7711 1.66126C12.188 2.87576 12.1879 3.75133 12.577 7.11238C12.6047 7.22536 12.6048 7.33834 12.6048 7.39482C12.5214 7.42307 12.438 7.45132 12.3269 7.45132L11.132 1.9437C11.132 1.9437 6.38037 5.19178 6.35258 5.22002C6.32479 5.24826 5.63008 7.53605 5.63008 7.53605C5.65787 7.762 5.71345 8.0162 5.74124 8.24215C5.49115 8.21391 5.1855 8.21389 4.85205 8.21389Z" fill="url(#paint2_linear_145_6735)"/>
<path d="M7.93642 0.870278C7.93642 0.870278 6.13022 0.842041 5.90791 1.97181C5.68561 3.12982 5.12988 7.22522 5.12988 7.22522C5.12988 7.22522 5.18544 8.15729 6.18579 8.58095C7.18614 9.00462 8.07535 10.3603 8.10314 10.8687C8.13093 11.3771 8.10314 21.9687 8.10314 21.9687C8.10314 21.9687 8.13094 22.6466 8.77005 22.6466V0.842041C8.74226 0.870285 7.96421 0.870278 7.93642 0.870278Z" fill="white"/>
<path d="M9.57578 0.870278C9.57578 0.870278 11.3819 0.842041 11.6042 1.97181C11.8265 3.12982 12.3822 7.22522 12.3822 7.22522C12.3822 7.22522 12.3266 8.15729 11.3263 8.58095C10.326 9.00462 9.43685 10.3603 9.40907 10.8687C9.38128 11.3771 9.40907 21.9687 9.40907 21.9687C9.40907 21.9687 9.38128 22.6466 8.74219 22.6466V0.842041C8.74219 0.870285 9.52021 0.870278 9.57578 0.870278Z" fill="white"/>
<path d="M4.18512 18.7772L4.32405 18.8337C4.65749 18.9467 4.99095 18.749 5.1021 18.4101L8.10306 8.38339C8.21421 8.04446 8.0197 7.70553 7.68626 7.59256L7.54732 7.53607C7.21388 7.42309 6.88046 7.6208 6.76931 7.95973L3.76831 17.9864C3.68495 18.2971 3.85167 18.6643 4.18512 18.7772Z" fill="white"/>
<path d="M13.1603 18.7772L13.0214 18.8337C12.6879 18.9467 12.3545 18.749 12.2433 18.4101L9.24234 8.38339C9.13119 8.04446 9.3257 7.70553 9.65914 7.59256L9.79807 7.53607C10.1315 7.42309 10.465 7.6208 10.5761 7.95973L13.5771 17.9864C13.6883 18.2971 13.4938 18.6643 13.1603 18.7772Z" fill="white"/>
<defs>
<linearGradient id="paint0_linear_145_6735" x1="8.89854" y1="15.5065" x2="8.92344" y2="53.1831" gradientUnits="userSpaceOnUse">
<stop offset="0.1599" stop-color="#C4AB89"/>
<stop offset="0.5078" stop-color="#E8E1D1"/>
<stop offset="0.7297" stop-color="#D0BFA4"/>
</linearGradient>
<linearGradient id="paint1_linear_145_6735" x1="2.16793" y1="20.2755" x2="18.9146" y2="20.3351" gradientUnits="userSpaceOnUse">
<stop stop-color="#C4AB89"/>
<stop offset="0.5078" stop-color="#E8E1D1"/>
<stop offset="1" stop-color="#D0BFA4"/>
</linearGradient>
<linearGradient id="paint2_linear_145_6735" x1="4.86439" y1="4.37897" x2="12.6498" y2="4.37897" gradientUnits="userSpaceOnUse">
<stop stop-color="#94938C"/>
<stop offset="0.2296" stop-color="#EDEBE0"/>
<stop offset="0.7876" stop-color="#EDEBE0"/>
<stop offset="1" stop-color="#94938C"/>
</linearGradient>
</defs>
</svg>
