<svg width="23" height="33" viewBox="0 0 23 33" fill="none" xmlns="http://www.w3.org/2000/svg">
<path d="M13.3029 29.5823C13.5977 31.4355 12.4118 31.9264 11.4818 30.6747C9.68442 28.2554 8.85104 24.7913 8.13062 21.6271C7.79673 20.1618 6.25748 14.9343 7.43972 13.9861C8.61289 13.0457 12.5339 16.0866 12.4355 19.2204C12.3819 20.9202 12.2612 22.6115 12.3406 24.3395C12.4272 26.2171 13.0139 27.7668 13.3029 29.5823Z" fill="url(#paint0_linear_91_12736)"/>
<path d="M0.835938 6.27709C0.835938 6.27709 2.1434 9.87244 2.1434 13.7944C2.1434 17.7164 1.81629 22.6192 4.10455 26.2146C6.39236 29.8099 7.04608 31.4441 7.04608 31.4441C7.04608 31.4441 9.00725 33.7319 9.98761 31.1174C9.98761 31.1174 7.69983 23.273 9.00728 19.351C10.3147 15.429 11.6222 16.736 11.9488 17.3898C12.2754 18.0435 16.8515 25.5608 17.5052 27.5221C18.1589 29.4833 19.1393 31.4441 19.7931 31.4441C20.4468 31.4441 21.4271 29.81 22.0809 26.8683C22.7346 23.9267 22.0808 20.6585 20.7734 18.3702C19.4659 16.0823 18.1585 5.95 18.1585 4.31587C18.1585 2.68175 2.47002 5.62335 0.835938 6.27709Z" fill="url(#paint1_linear_91_12736)"/>
<path d="M8.48743 0.664185C8.48743 0.664185 6.66868 0.628794 6.45682 1.75889C6.24495 2.88899 5.67969 6.93303 5.67969 6.93303C5.67969 6.93303 5.73728 7.84809 6.72401 8.26457C7.71074 8.68104 8.61127 10.0058 8.64665 10.518C8.68204 11.0302 8.64665 21.4478 8.64665 21.4478C8.64665 21.4478 8.66527 22.1107 9.30948 22.1107V0.664185C9.30903 0.664185 8.52826 0.664185 8.48743 0.664185Z" fill="#fff"/>
<path d="M10.1267 0.664185C10.1267 0.664185 11.9455 0.628794 12.1574 1.75889C12.3692 2.88899 12.9345 6.93303 12.9345 6.93303C12.9345 6.93303 12.8769 7.84809 11.8901 8.26457C10.9034 8.68104 10.0029 10.0058 9.96751 10.518C9.93212 11.0302 9.96751 21.4478 9.96751 21.4478C9.96751 21.4478 9.94889 22.1107 9.30469 22.1107V0.664185C9.30514 0.664185 10.0859 0.664185 10.1267 0.664185Z" fill="#fff"/>
<path d="M4.82617 18.2836C5.19767 18.397 5.59052 18.1874 5.70392 17.8163L8.66778 8.09613C8.78118 7.72458 8.57158 7.33172 8.20053 7.2183C7.82903 7.10489 7.43622 7.31448 7.32282 7.68558L4.35896 17.4057C4.24556 17.7773 4.45467 18.1701 4.82617 18.2836Z" fill="#fff"/>
<path d="M13.6469 18.2836C13.2753 18.397 12.8824 18.1874 12.769 17.8163L9.80425 8.09613C9.69081 7.72458 9.90042 7.33172 10.272 7.2183C10.6436 7.10489 11.0366 7.31448 11.15 7.68558L14.1147 17.4057C14.2277 17.7773 14.0185 18.1701 13.6469 18.2836Z" fill="#fff"/>
<defs>
<linearGradient id="paint0_linear_91_12736" x1="9.39661" y1="13.6173" x2="9.42081" y2="50.6856" gradientUnits="userSpaceOnUse">
<stop offset="0.1599" stop-color="#BFAB8D"/>
<stop offset="0.5078" stop-color="#E7E1D2"/>
<stop offset="0.7297" stop-color="#CCBFA6"/>
</linearGradient>
<linearGradient id="paint1_linear_91_12736" x1="2.73025" y1="18.064" x2="19.4882" y2="18.1245" gradientUnits="userSpaceOnUse">
<stop stop-color="#BFAB8D"/>
<stop offset="0.5078" stop-color="#E7E1D2"/>
<stop offset="1" stop-color="#CCBFA6"/>
</linearGradient>
</defs>
</svg>
