<svg width="12" height="45" viewBox="0 0 12 45" fill="none" xmlns="http://www.w3.org/2000/svg">
<path d="M11.522 36.5103C11.4943 36.5386 11.4387 36.5668 11.3831 36.5668C11.1052 36.6516 10.2994 36.2279 9.99374 36.1432C9.02119 35.889 8.04864 35.663 7.07608 35.4935C6.04796 35.2958 4.99204 35.1264 3.93612 35.1264C3.38038 35.1264 2.82463 35.1546 2.26889 35.2958C1.76872 35.4088 1.26855 35.7477 0.796167 35.776C0.46272 34.4485 0.796164 32.8951 0.879525 31.5394C0.962887 30.0424 1.10182 28.5455 1.29633 27.0485C1.62978 24.2524 2.32446 21.5409 2.82463 18.773C3.3248 16.0898 3.43595 13.2371 3.38038 10.4974C3.35259 9.19819 3.26923 7.92721 3.13029 6.62797C3.01914 5.52645 2.6857 4.56615 2.79685 3.40814C2.908 2.25012 3.43595 0.498982 4.93646 0.979134C6.07574 1.34631 6.77042 2.58905 7.32617 3.54936C8.40987 5.38523 9.18791 7.36232 9.93817 9.36766C10.6606 11.373 11.3275 13.4066 11.7165 15.4967C12.05 17.3325 11.9944 19.1119 11.9666 20.976C11.9111 23.9134 11.8555 26.8508 11.7721 29.76C11.7166 31.6523 11.8277 33.6294 11.6888 35.55C11.6888 35.889 11.7166 36.3126 11.522 36.5103Z" fill="url(#paint0_linear_145_6768)"/>
<path d="M10.7719 36.4538C10.494 38.4309 10.2439 40.3798 9.96603 42.3568C9.96603 42.3568 9.77152 43.882 8.27101 44.0232C6.77051 44.1645 4.21409 44.0797 4.04737 44.0515C3.88065 44.0233 2.93588 43.6278 2.68579 43.0065C2.15784 41.5378 2.10226 40.521 1.71324 36.4538C1.68545 36.0584 1.62988 35.7477 1.62988 35.55C2.13005 35.3523 2.65801 35.1828 3.15818 34.9851C3.24154 37.5553 3.3249 40.0973 3.43605 42.6675C3.43605 42.6675 9.04905 38.8263 9.07684 38.7981C9.10463 38.7698 9.93824 36.0866 9.93824 36.0866C9.96603 36.1149 9.99382 36.1714 10.0494 36.1996C10.2439 36.2561 10.494 36.3408 10.7719 36.4538Z" fill="url(#paint1_linear_145_6768)"/>
<path d="M5.21443 43.7689C5.21443 43.7689 3.07482 43.7972 2.85252 42.4697C2.63022 41.1422 1.93555 36.3125 1.93555 36.3125C1.93555 36.3125 1.99112 35.2392 3.15818 34.7308C4.32524 34.2224 5.35337 32.669 5.40894 32.0476C5.46452 31.4262 5.40894 19.0553 5.40894 19.0553C5.40894 19.0553 5.43673 18.2644 6.18698 18.2644V43.7407C6.18698 43.7689 5.27 43.7689 5.21443 43.7689Z" fill="white"/>
<path d="M7.13173 43.7689C7.13173 43.7689 9.27134 43.7972 9.49363 42.4697C9.71593 41.1422 10.4106 36.3125 10.4106 36.3125C10.4106 36.3125 10.355 35.2392 9.18798 34.7308C8.02092 34.2224 6.9928 32.669 6.93722 32.0476C6.88165 31.4262 6.93722 19.0553 6.93722 19.0553C6.93722 19.0553 6.90943 18.2644 6.15918 18.2644V43.7407C6.18697 43.7689 7.07615 43.7689 7.13173 43.7689Z" fill="white"/>
<defs>
<linearGradient id="paint0_linear_145_6768" x1="-2.12452" y1="19.81" x2="12.2391" y2="18.326" gradientUnits="userSpaceOnUse">
<stop stop-color="#C4AB89"/>
<stop offset="0.5078" stop-color="#E8E1D1"/>
<stop offset="1" stop-color="#D0BFA4"/>
</linearGradient>
<linearGradient id="paint1_linear_145_6768" x1="10.7592" y1="39.5325" x2="1.58345" y2="39.5325" gradientUnits="userSpaceOnUse">
<stop stop-color="#94938C"/>
<stop offset="0.2296" stop-color="#EDEBE0"/>
<stop offset="0.7876" stop-color="#EDEBE0"/>
<stop offset="1" stop-color="#94938C"/>
</linearGradient>
</defs>
</svg>
