<svg width="13" height="44" viewBox="0 0 13 44" fill="none" xmlns="http://www.w3.org/2000/svg">
<path d="M0.851562 38.0245C0.851562 38.0245 1.17821 26.9119 2.15904 23.9703C3.13941 21.0288 4.12024 11.2236 3.79315 8.6087C3.46651 5.99376 3.46651 2.07181 3.46651 2.07181C3.46651 2.07181 3.13986 -0.869772 6.08145 1.41807C9.02303 3.70592 12.6184 14.8185 12.2913 19.3942C11.9646 23.9699 11.8612 37.7586 11.9129 37.7283C11.9641 37.6979 0.851562 38.0245 0.851562 38.0245Z" fill="url(#paint0_linear_91_12510)"/>
<path d="M11.1099 36.0676L10.2579 42.1861C10.2579 42.1861 10.056 43.6849 8.55755 43.8288C7.05909 43.9726 4.49361 43.8864 4.32076 43.8578C4.14791 43.8292 3.19657 43.4545 2.96611 42.8203C2.73564 42.1861 1.98438 36.3751 1.98438 36.3751L2.27744 36.0821L3.68653 42.4746C3.68653 42.4746 9.30655 38.6992 9.33558 38.6702C9.36462 38.6412 10.2003 35.99 10.2003 35.99L10.6617 35.9609L11.1099 36.0676Z" fill="url(#paint1_linear_91_12510)"/>
<path d="M5.51712 43.599C5.51712 43.599 3.39032 43.6403 3.14262 42.3187C2.89492 40.9972 2.23438 36.2691 2.23438 36.2691C2.23438 36.2691 2.30197 35.1993 3.45519 34.7121C4.60887 34.2249 5.66183 32.6765 5.70311 32.0776C5.7444 31.4788 5.70311 19.2983 5.70311 19.2983C5.70311 19.2983 5.72489 18.5234 6.47798 18.5234V43.599C6.47753 43.599 5.56475 43.599 5.51712 43.599Z" fill="#fff"/>
<path d="M7.43732 43.599C7.43732 43.599 9.56387 43.6403 9.81154 42.3187C10.0592 40.9972 10.7197 36.2691 10.7197 36.2691C10.7197 36.2691 10.6521 35.1993 9.49901 34.7121C8.34547 34.2249 7.29262 32.6765 7.25134 32.0776C7.21006 31.4788 7.25134 19.2983 7.25134 19.2983C7.25134 19.2983 7.22957 18.5234 6.47656 18.5234V43.599C6.47702 43.599 7.38969 43.599 7.43732 43.599Z" fill="#fff"/>
<defs>
<linearGradient id="paint0_linear_91_12510" x1="1.75148" y1="19.3335" x2="14.6441" y2="18.9363" gradientUnits="userSpaceOnUse">
<stop stop-color="#BFAB8D"/>
<stop offset="0.5078" stop-color="#E7E1D2"/>
<stop offset="1" stop-color="#CCBFA6"/>
</linearGradient>
<linearGradient id="paint1_linear_91_12510" x1="11.1099" y1="39.9353" x2="1.98446" y2="39.9353" gradientUnits="userSpaceOnUse">
<stop stop-color="#94938C"/>
<stop offset="0.2296" stop-color="#EDEBE1"/>
<stop offset="0.7876" stop-color="#EDEBE1"/>
<stop offset="1" stop-color="#94938C"/>
</linearGradient>
</defs>
</svg>
