<svg width="25" height="43" viewBox="0 0 25 43" fill="none" xmlns="http://www.w3.org/2000/svg">
<path d="M6.44794 3.48063C5.91458 1.74973 7.53477 0.924539 8.90339 1.89062C11.5601 3.7624 12.9589 6.92229 14.1665 9.82053C14.7301 11.169 17.2157 15.8585 15.6358 17.1265C14.0659 18.3844 8.41029 16.5026 8.33984 13.4031C8.29959 11.7225 8.35997 10.0218 8.12851 8.35128C7.88699 6.52982 6.97123 5.17127 6.44794 3.48063Z" fill="url(#paint0_linear_87_10678)"/>
<path d="M22.2356 27.4007C23.2017 21.091 23.1816 13.4831 20.384 7.64639C19.7298 6.28783 18.8443 5.05004 17.7876 3.97326C17.375 3.5506 14.8994 1.0247 14.3862 1.64863C13.8529 2.28262 14.3359 3.70155 14.4265 4.40599C14.5875 5.5834 14.7284 6.76081 14.8592 7.94829C15.1108 10.3534 15.7246 12.9498 15.0806 15.3348C14.9397 15.8581 14.6076 16.3814 14.0944 16.5524C13.8227 16.643 13.5208 16.6229 13.239 16.5625C11.4578 16.1801 10.1797 14.3888 9.08283 13.0705C7.52302 11.1887 6.62738 9.07538 5.84244 6.78094C5.46003 5.66391 5.02731 4.57707 4.08135 3.83238C3.8499 3.65124 1.60578 0.893878 1.25356 0.974385C0.0862125 1.25616 0.488745 4.39592 0.528998 5.11042C0.851025 10.6654 4.92668 20.5275 4.92668 20.5275C4.92668 20.5275 5.90282 26.7365 4.92668 28.6989C3.95054 30.6612 20.9274 30.6713 22.2356 27.4007Z" fill="url(#paint1_linear_87_10678)"/>
<path d="M23.2104 28.376C23.2104 28.376 20.5939 25.4375 14.7169 25.4375C8.82984 25.4375 4.58312 27.3999 3.60698 30.0163C2.63083 32.6328 2.29874 39.818 5.89135 41.1263C7.02851 41.5388 8.27636 41.6395 9.30282 40.9049C10.1783 40.2809 10.5305 39.1236 11.8488 39.5564C12.4225 39.7476 12.8954 40.1501 13.3885 40.5023C15.532 42.0722 19.175 43.7025 21.6103 41.8508C24.9413 39.3148 26.1187 31.6466 23.2104 28.376Z" fill="url(#paint2_linear_87_10678)"/>
<path d="M6.45575 3.50016C5.92239 1.76927 7.54259 0.94407 8.91121 1.91015C11.5679 3.78193 12.9667 6.94182 14.1743 9.84006C14.7379 11.1886 17.2235 15.8781 15.6436 17.1461C14.0737 18.404 8.41811 16.5221 8.34766 13.4226C8.30741 11.742 8.36779 10.0413 8.13633 8.37082C7.89481 6.54936 6.97904 5.20087 6.45575 3.50016Z" fill="url(#paint3_linear_87_10678)"/>
<path d="M22.2457 27.4209C23.2118 21.1112 23.1917 13.5034 20.384 7.66663C19.7299 6.30808 18.8443 5.07028 17.7877 3.9935C17.3751 3.57084 14.8995 1.04494 14.3863 1.66887C13.8529 2.30286 14.3359 3.72179 14.4265 4.42622C14.5875 5.60363 14.7284 6.78104 14.8592 7.96851C15.1108 10.3737 15.7247 12.97 15.0806 15.355C14.9397 15.8783 14.6076 16.4016 14.0944 16.5727C13.8227 16.6632 13.5208 16.6431 13.239 16.5827C11.4578 16.2003 10.1798 14.4091 9.08287 13.0908C7.52306 11.2089 6.62742 9.09562 5.84248 6.80118C5.46007 5.68415 5.02735 4.5973 4.08139 3.85261C3.84994 3.67147 3.38702 3.25887 3.0348 3.33938C1.86746 3.62115 2.27 6.76092 2.31025 7.47542C2.63228 13.0304 4.92672 20.5477 4.92672 20.5477C4.92672 20.5477 5.90286 26.7568 4.92672 28.7191C3.94051 30.6915 20.9375 30.6915 22.2457 27.4209Z" fill="url(#paint4_linear_87_10678)"/>
<path d="M23.2338 28.4072C23.2338 28.4072 20.6173 25.4688 14.7403 25.4688C8.85329 25.4688 4.60656 27.4311 3.63041 30.0476C2.65427 32.664 2.32218 39.8493 5.91479 41.1575C7.05195 41.5701 8.2998 41.6707 9.32626 40.9361C10.2018 40.3122 10.554 39.1549 11.8723 39.5876C12.4459 39.7788 12.9189 40.1814 13.412 40.5336C15.5555 42.1034 19.1984 43.7337 21.6337 41.8821C24.9546 39.336 26.132 31.6678 23.2338 28.4072Z" fill="url(#paint5_linear_87_10678)"/>
<path d="M21.6393 39.1942C21.901 38.9628 22.1123 38.6609 22.2532 38.2785C22.8168 36.8293 23.2998 35.3299 23.4105 33.7801C23.491 32.6933 23.3602 31.5662 22.9576 30.5398C22.535 29.473 21.8406 28.5673 21.589 27.4201C21.4381 26.7459 21.4481 26.0515 21.4481 25.3672C21.4783 20.7984 21.9916 15.9379 20.945 11.4496C20.3915 9.09478 19.2644 7.05192 17.8052 5.11976C17.2417 4.37508 17.141 3.51969 16.5372 2.81526C16.3963 2.65425 15.9032 2.07057 15.5812 1.92969C15.2592 1.79886 14.8667 1.47683 14.8969 1.79886C15.2894 5.77388 16.3058 11.3993 15.8529 15.3642C15.8026 15.7768 15.541 17.1656 13.7195 17.2662C11.898 17.3769 10.9219 16.0485 9.69416 14.6699C7.86263 12.6169 6.5544 10.1212 5.56819 7.6054C5.29648 6.92109 4.23983 3.38887 3.29388 3.24798C2.70014 3.15741 2.7102 4.16375 2.75045 4.87825C2.87121 7.29345 2.99198 9.73884 3.66622 12.0836C4.37066 14.5089 5.04489 16.8737 5.54806 19.3493C6.07135 21.9658 6.62484 25.7496 5.01471 28.0642C2.85109 31.1737 2.92154 36.5375 6.37326 38.7917C6.8563 39.1036 7.2387 39.1439 7.71168 38.8219C8.7482 38.1174 9.90549 37.564 11.1131 37.2017C11.4754 37.091 11.8477 37.0004 12.2201 37.0205C12.9245 37.0608 13.4981 37.6747 14.0617 38.0369C14.756 38.4898 15.4705 38.9024 16.2353 39.2244C17.775 39.8886 20.321 40.3917 21.6393 39.1942Z" fill="#FCF2D9"/>
<path d="M16.0126 2.34375C16.0126 2.34375 16.9183 6.78169 17.7133 9.29752C18.5083 11.8134 19.3939 25.7511 18.5988 28.5688C17.8038 31.3865 9.35065 31.6381 8.66634 29.9274C7.98203 28.2166 6.81468 19.1294 6.81468 19.1294C6.81468 19.1294 5.38569 12.6889 4.91271 10.9177C4.43974 9.14657 3.15163 4.01426 3.48372 3.34002C3.48372 3.34002 6.12031 12.0549 5.81841 11.0083C5.51651 9.9617 8.40469 16.3519 8.66634 16.9557C9.20976 18.1734 10.8199 19.4212 13.3257 19.4917C15.8415 19.5722 16.4755 18.0526 16.6566 16.9557C16.8378 15.8488 16.8478 9.86107 16.6264 8.68366L16.0126 2.34375Z" fill="#D8D8D8"/>
<path d="M16.7845 20.3262C16.6034 11.8025 16.0499 5.29155 15.6172 1.33666L16.4726 1.24609C16.9053 5.22111 17.4688 11.7623 17.65 20.3161L16.7845 20.3262Z" fill="#938F9E"/>
<path d="M17.8603 20.3467C17.7294 20.3064 17.5382 20.236 16.1797 18.3743L16.8741 17.8711C17.4074 18.5957 18.0716 19.4611 18.2225 19.5819C18.2225 19.5819 18.1923 19.5517 18.132 19.5416L17.8603 20.3467Z" fill="#B7B3C4"/>
<path d="M17.7509 17.5693C17.6201 17.5291 17.4289 17.4586 16.0703 15.5969L16.7647 15.0938C17.298 15.8183 17.9622 16.6838 18.1132 16.8045C18.1132 16.8045 18.083 16.7743 18.0226 16.7643L17.7509 17.5693Z" fill="#B7B3C4"/>
<path d="M17.579 14.3389C17.4482 14.2986 17.257 14.2282 15.8984 12.3664L16.5928 11.8633C17.1262 12.5878 17.7903 13.4533 17.9413 13.574C17.9413 13.574 17.9111 13.5438 17.8507 13.5338L17.579 14.3389Z" fill="#B7B3C4"/>
<path d="M17.3525 11.167C17.2216 11.1267 17.0304 11.0563 15.6719 9.19457L16.3662 8.69141C16.8996 9.41597 17.5638 10.2814 17.7147 10.4022C17.7147 10.4022 17.6845 10.372 17.6242 10.3619L17.3525 11.167Z" fill="#B7B3C4"/>
<path d="M17.0556 7.61622C16.9248 7.57597 16.7335 7.50551 15.375 5.64379L16.0694 5.14062C16.6027 5.86519 17.2669 6.73063 17.4179 6.85139C17.4179 6.85139 17.3877 6.82121 17.3273 6.81115L17.0556 7.61622Z" fill="#B7B3C4"/>
<path d="M16.6649 3.73341C16.5341 3.69315 16.3429 3.6227 14.9844 1.76098L15.6787 1.25781C16.2121 1.98237 16.8763 2.84783 17.0272 2.96859C17.0272 2.96859 16.997 2.9384 16.9367 2.92833L16.6649 3.73341Z" fill="#B7B3C4"/>
<defs>
<linearGradient id="paint0_linear_87_10678" x1="13.0236" y1="17.9491" x2="5.81294" y2="-17.4706" gradientUnits="userSpaceOnUse">
<stop offset="0.1599" stop-color="#BFAB8D"/>
<stop offset="0.5078" stop-color="#E7E1D2"/>
<stop offset="0.7297" stop-color="#CCBFA6"/>
</linearGradient>
<linearGradient id="paint1_linear_87_10678" x1="28.1806" y1="15.4333" x2="1.08761" y2="15.5311" gradientUnits="userSpaceOnUse">
<stop offset="0.1599" stop-color="#BFAB8D"/>
<stop offset="0.5078" stop-color="#E7E1D2"/>
<stop offset="0.7297" stop-color="#CCBFA6"/>
</linearGradient>
<linearGradient id="paint2_linear_87_10678" x1="29.8328" y1="34.01" x2="-2.34458" y2="34.1262" gradientUnits="userSpaceOnUse">
<stop stop-color="#94938C"/>
<stop offset="0.2296" stop-color="#EDEBE1"/>
<stop offset="0.7988" stop-color="#EDEBE1"/>
<stop offset="1" stop-color="#94938C"/>
</linearGradient>
<linearGradient id="paint3_linear_87_10678" x1="13.179" y1="17.7361" x2="5.96829" y2="-17.6838" gradientUnits="userSpaceOnUse">
<stop offset="0.1599" stop-color="#BFAB8D"/>
<stop offset="0.5078" stop-color="#E7E1D2"/>
<stop offset="0.7297" stop-color="#CCBFA6"/>
</linearGradient>
<linearGradient id="paint4_linear_87_10678" x1="27.766" y1="15.7668" x2="2.82831" y2="15.857" gradientUnits="userSpaceOnUse">
<stop offset="0.1599" stop-color="#BFAB8D"/>
<stop offset="0.5078" stop-color="#E7E1D2"/>
<stop offset="0.7297" stop-color="#CCBFA6"/>
</linearGradient>
<linearGradient id="paint5_linear_87_10678" x1="30.0901" y1="34.0325" x2="-2.46938" y2="34.1501" gradientUnits="userSpaceOnUse">
<stop stop-color="#94938C"/>
<stop offset="0.2296" stop-color="#EDEBE1"/>
<stop offset="0.7988" stop-color="#EDEBE1"/>
<stop offset="1" stop-color="#94938C"/>
</linearGradient>
</defs>
</svg>
