<svg width="19" height="63" viewBox="0 0 19 63" fill="none" xmlns="http://www.w3.org/2000/svg">
<path d="M5.80344 37.3271C5.80344 37.3271 2.53285 38.6354 1.55671 46.1527C1.55671 46.1527 0.580578 53.992 0.248488 56.2865C-0.0735391 58.5708 -0.0735389 61.5194 3.51907 62.4955C7.11168 63.4717 10.3823 62.8176 12.3446 62.1735C14.307 61.5194 17.2455 59.5571 17.8996 57.2727C18.5537 54.9883 17.8996 43.8683 16.9234 41.916C15.9372 39.9436 13.6528 34.7207 5.80344 37.3271Z" fill="url(#paint0_linear_87_10598)"/>
<path d="M9.07621 6.28271C9.07621 6.28271 1.90103 21.9715 4.83953 38.4753C4.83953 38.4753 15.2451 37.2375 15.7583 40.0653C14.2991 33.2021 13.5947 25.9666 13.8865 18.9625C14.0073 16.1146 14.2085 13.2767 14.279 10.4288C14.3293 8.57715 14.6513 6.46385 13.8563 4.73295C13.5242 4.00839 12.9707 2.94168 12.065 2.86117C10.5253 2.72029 9.53912 5.22606 9.07621 6.28271Z" fill="url(#paint1_linear_87_10598)"/>
<path d="M4.15587 57.4752C3.69295 56.1066 3.90428 54.0939 3.87409 52.7454C3.83384 50.8535 3.85395 48.9516 4.04515 47.0697C4.20617 45.53 4.42758 43.94 4.95088 42.501C5.50436 40.9915 6.25908 39.6128 6.56098 37.9926C6.72199 37.1271 6.77231 36.2315 6.81256 35.3459C7.15472 28.0903 7.42645 20.8245 8.47304 13.6393C8.82525 11.2442 9.76112 4.47162 11.5625 2.87155C12.7801 1.78471 12.3776 7.67176 12.3876 8.70828C12.4078 13.7802 12.2367 18.7917 12.2568 23.8637C12.2769 28.1909 11.482 33.4842 13.1223 37.4794C14.2091 40.1361 15.2255 41.7965 15.4268 44.7954C15.5979 47.4219 15.779 50.0585 15.9501 52.6851C16.0205 53.7317 16.0809 54.8286 15.7689 55.8148C14.7224 59.1055 8.62397 59.9307 6.12827 59.2665C5.42383 59.0753 4.74959 58.6526 4.36719 57.9482C4.28668 57.8073 4.21625 57.6463 4.15587 57.4752Z" fill="#FCF2D9"/>
<path d="M12.0782 52.3703C12.511 51.4546 12.6317 46.8053 12.6015 45.3763C12.5613 43.3234 11.1524 34.5482 10.9914 30.3417C10.77 24.9176 11.082 14.8743 11.1725 11.0603C11.2631 7.24633 11.9474 2.71783 11.7663 2.75808C11.5851 2.8084 10.1762 8.70551 9.99511 11.2918C9.81396 13.8781 8.7372 23.1967 8.4051 28.6209C8.17365 32.3946 7.32832 41.834 7.36858 43.7159C7.41889 45.638 7.37861 50.8206 7.78115 51.6659C8.22394 52.6119 9.09947 53.3364 9.62276 53.266C10.3071 53.1553 11.6455 53.2962 12.0782 52.3703Z" fill="#D8D8D8"/>
<path d="M10.6389 19.9769L9.77344 19.9567C9.97471 11.4029 10.5584 4.86174 11.0112 0.886719L11.8666 0.987351C11.4138 4.94224 10.8402 11.4532 10.6389 19.9769Z" fill="#938F9E"/>
<path d="M9.5732 19.9856L9.3015 19.1705C9.25119 19.1906 9.221 19.2108 9.21094 19.2108C9.36189 19.09 10.0361 18.2246 10.5695 17.5L11.2639 18.0132C9.89525 19.875 9.69396 19.9454 9.5732 19.9856Z" fill="#B7B3C4"/>
<path d="M9.68261 17.2083L9.41091 16.3932C9.36059 16.4133 9.33038 16.4334 9.32031 16.4334C9.47126 16.3127 10.1455 15.4472 10.6789 14.7227L11.3732 15.2359C10.0046 17.0976 9.81343 17.168 9.68261 17.2083Z" fill="#B7B3C4"/>
<path d="M9.86227 13.9778L9.59057 13.1627C9.54025 13.1828 9.51006 13.203 9.5 13.203C9.65095 13.0822 10.3252 12.2167 10.8585 11.4922L11.5529 12.0054C10.1843 13.8671 9.99309 13.9376 9.86227 13.9778Z" fill="#B7B3C4"/>
<path d="M10.1045 10.8099L9.83275 9.99474C9.78244 10.0149 9.75225 10.035 9.74219 10.035C9.89314 9.91423 10.5674 9.04878 11.1007 8.32422L11.7951 8.83745C10.4265 10.7092 10.2353 10.7696 10.1045 10.8099Z" fill="#B7B3C4"/>
<path d="M10.4092 7.25518L10.1375 6.44004C10.0872 6.46017 10.0569 6.4803 10.0469 6.4803C10.1978 6.35954 10.8721 5.49409 11.4054 4.76953L12.0998 5.28276C10.7312 7.14448 10.54 7.21493 10.4092 7.25518Z" fill="#B7B3C4"/>
<path d="M10.8232 3.38407L10.5515 2.56894C10.5012 2.58907 10.471 2.6092 10.4609 2.6092C10.6119 2.48844 11.2861 1.623 11.8195 0.898438L12.5139 1.41166C11.1452 3.27338 10.944 3.34382 10.8232 3.38407Z" fill="#B7B3C4"/>
<defs>
<linearGradient id="paint0_linear_87_10598" x1="-4.3579" y1="50.455" x2="21.6527" y2="49.1519" gradientUnits="userSpaceOnUse">
<stop stop-color="#94938C"/>
<stop offset="0.1599" stop-color="#D1CFC6"/>
<stop offset="0.2296" stop-color="#EDEBE1"/>
<stop offset="0.7988" stop-color="#EDEBE1"/>
<stop offset="0.9762" stop-color="#9F9E96"/>
<stop offset="1" stop-color="#94938C"/>
</linearGradient>
<linearGradient id="paint1_linear_87_10598" x1="13.1246" y1="21.4716" x2="4.14365" y2="21.6321" gradientUnits="userSpaceOnUse">
<stop stop-color="#BFAB8D"/>
<stop offset="0.5078" stop-color="#E7E1D2"/>
<stop offset="1" stop-color="#CCBFA6"/>
</linearGradient>
</defs>
</svg>
