<svg width="21" height="72" viewBox="0 0 21 72" fill="none" xmlns="http://www.w3.org/2000/svg">
<path d="M4.125 48.1104C4.125 48.1104 16.2111 45.0814 17.2074 46.8123L12.3266 12.2548C12.3266 12.2548 8.90511 3.37891 7.59687 3.37891C6.28863 3.37891 4.98039 7.30361 4.98039 7.30361C4.98039 7.30361 4.41684 39.8484 4.125 48.1104Z" fill="url(#paint0_linear_87_10608)"/>
<path d="M6.45229 44.6199C6.45229 44.6199 -0.742997 54.0996 0.565237 61.9389C0.987897 64.4749 1.85335 67.1115 3.37292 69.2046C4.1176 70.221 5.08369 71.1469 6.30135 71.5494C7.91148 72.0828 9.98454 71.6601 11.5947 71.3079C12.3897 71.1267 13.1746 70.8852 13.9092 70.5431C19.0918 68.1581 20.4605 62.0094 20.0479 56.8066C19.756 53.1436 18.649 49.6013 17.1999 46.2502C16.264 44.0765 14.0803 43.5029 11.9066 43.201C10.2864 42.9595 7.56932 43.1507 6.45229 44.6199Z" fill="url(#paint1_linear_87_10608)"/>
<path d="M5.70925 5.58444C5.57843 6.17818 6.56463 10.0023 6.58476 10.5054C6.93697 16.6239 7.18855 22.7626 7.07785 28.8911C7.00741 33.158 7.21876 37.445 6.78603 41.7118C6.37344 45.7372 4.59221 49.3499 3.52549 53.2142C2.43865 57.1993 4.11925 66.4676 9.33206 66.1154C14.5449 65.7632 16.5475 60.651 16.5475 57.0182C16.5475 51.4833 14.253 45.9586 13.448 40.5344C12.3913 33.4196 11.9284 26.3753 11.0529 19.2404C10.7711 16.9661 10.0969 14.3496 10.0969 12.0652C9.91571 10.9885 9.26161 9.04623 8.91946 7.99964C8.67794 7.26502 7.60116 3.37051 6.8766 3.75291C6.5747 3.92399 5.84007 5.00077 5.70925 5.58444Z" fill="#FCF2D9"/>
<path d="M7.55089 55.8899C7.11816 54.9742 7.48046 50.6167 7.51065 49.1877C7.55091 47.1348 8.46667 38.0678 8.63774 33.8512C8.85913 28.4271 8.10439 18.7864 8.01382 14.9825C7.92325 11.1684 6.33323 4.05367 6.51437 4.09392C6.69551 4.14424 9.45286 12.215 9.634 14.8013C9.81514 17.3876 10.8919 26.7062 11.224 32.1304C11.4554 35.9041 12.3008 45.3436 12.2605 47.2254C12.2102 49.1475 12.2505 54.3301 11.8479 55.1754C11.4052 56.1214 10.8617 56.695 10.0063 56.7755C9.14089 56.856 7.98361 56.8057 7.55089 55.8899Z" fill="#D8D8D8"/>
<path d="M10.0461 31.9494C8.90897 18.0519 7.34916 7.48542 6.24219 1.06501L7.0875 0.914062C8.19447 7.3546 9.7543 17.9412 10.9015 31.8689L10.0461 31.9494Z" fill="#938F9E"/>
<path d="M11.5945 31.6276C11.4435 31.5874 11.2724 31.5371 9.97427 30.0477C9.37047 29.3533 8.80694 28.669 8.79688 28.659L9.46103 28.1055C10.4372 29.2829 11.6448 30.6616 11.8863 30.8125C11.8863 30.8125 11.8662 30.8024 11.8259 30.7823L11.5945 31.6276Z" fill="#B7B3C4"/>
<path d="M11.1414 27.1081C10.9904 27.0678 10.8193 27.0175 9.52117 25.5282C8.91737 24.8338 8.35381 24.1495 8.34375 24.1394L9.00793 23.5859C9.98408 24.7633 11.1917 26.142 11.4332 26.293C11.4332 26.293 11.4131 26.2829 11.3728 26.2628L11.1414 27.1081Z" fill="#B7B3C4"/>
<path d="M10.5476 21.8542C10.3967 21.8139 10.2256 21.7636 8.92739 20.2743C8.32359 19.5799 7.76006 18.8956 7.75 18.8855L8.41418 18.332C9.39033 19.5094 10.5979 20.8881 10.8394 21.0391C10.8394 21.0391 10.8193 21.029 10.7791 21.0089L10.5476 21.8542Z" fill="#B7B3C4"/>
<path d="M9.84448 16.7136C9.69353 16.6733 9.52247 16.623 8.2243 15.1336C7.6205 14.4393 7.05694 13.7549 7.04688 13.7449L7.71106 13.1914C8.6872 14.3688 9.8948 15.7475 10.1363 15.8984C10.1363 15.8984 10.1162 15.8884 10.0759 15.8682L9.84448 16.7136Z" fill="#B7B3C4"/>
<path d="M9.00854 10.948C8.85759 10.9077 8.6865 10.8574 7.38833 9.36801C6.78453 8.67364 6.221 7.98933 6.21094 7.97927L6.87512 7.42578C7.85126 8.60319 9.05886 9.98187 9.30038 10.1328C9.30038 10.1328 9.28026 10.1228 9.24001 10.1026L9.00854 10.948Z" fill="#B7B3C4"/>
<path d="M7.98513 4.6589C7.83418 4.61864 7.66309 4.56833 6.36492 3.07895C5.76112 2.38458 5.19756 1.70027 5.1875 1.69021L5.85168 1.13672C6.82783 2.31413 8.03543 3.69282 8.27695 3.84377C8.27695 3.84377 8.25682 3.83371 8.21657 3.81358L7.98513 4.6589Z" fill="#B7B3C4"/>
<defs>
<linearGradient id="paint0_linear_87_10608" x1="15.4817" y1="26.0423" x2="5.58811" y2="25.7376" gradientUnits="userSpaceOnUse">
<stop stop-color="#BFAB8D"/>
<stop offset="0.5078" stop-color="#E7E1D2"/>
<stop offset="1" stop-color="#CCBFA6"/>
</linearGradient>
<linearGradient id="paint1_linear_87_10608" x1="26.413" y1="57.1501" x2="-6.53979" y2="57.7391" gradientUnits="userSpaceOnUse">
<stop stop-color="#94938C"/>
<stop offset="0.0617" stop-color="#A4A29B"/>
<stop offset="0.1809" stop-color="#CCCAC2"/>
<stop offset="0.2666" stop-color="#EDEBE1"/>
<stop offset="0.7117" stop-color="#EDEBE1"/>
<stop offset="0.7719" stop-color="#E0DED5"/>
<stop offset="0.883" stop-color="#BEBDB4"/>
<stop offset="1" stop-color="#94938C"/>
</linearGradient>
</defs>
</svg>
