<svg width="20" height="59" viewBox="0 0 20 59" fill="none" xmlns="http://www.w3.org/2000/svg">
<path d="M10.1484 57.811C10.1484 57.811 15.4921 58.6462 17.2331 55.8084C18.9741 52.9604 10.7019 56.1203 10.1484 57.811Z" fill="#D8D6D0"/>
<path d="M15.518 39.8863C15.518 39.8863 15.196 28.7764 14.2098 25.8278C13.2337 22.8893 12.2475 13.0776 12.5796 10.4711C12.9016 7.85468 12.9016 3.92998 12.9016 3.92998C12.9016 3.92998 13.2236 0.991489 10.2851 3.27587C7.34665 5.56025 3.74398 16.6802 4.07607 21.249C4.39809 25.8278 4.50879 39.6146 4.45848 39.5844C4.40816 39.5643 15.518 39.8863 15.518 39.8863Z" fill="url(#paint0_linear_87_10617)"/>
<path d="M4.72697 38.5794C4.72697 38.5794 -2.79033 49.6893 2.76463 55.5764C3.43888 56.2909 4.51565 56.8041 5.34085 57.3274C6.19623 57.8708 7.10194 58.6256 8.14853 58.7463C9.34607 58.8771 10.2115 57.6293 11.3889 57.3878C13.2507 57.0054 15.0822 57.3073 16.6722 56.0393C17.9905 54.9927 18.7855 53.3524 19.0572 51.712C19.3994 49.6692 19.0471 47.5861 18.6345 45.5835C18.4634 44.7281 18.1615 43.9129 17.8194 43.1079C17.4471 42.2525 16.7829 41.4172 16.491 40.5518C16.5011 40.5417 13.8846 32.7024 4.72697 38.5794Z" fill="url(#paint1_linear_87_10617)"/>
<path d="M3.8289 42.9845C3.87922 42.7833 3.93959 42.5719 4.01003 42.3707C4.58364 40.68 5.58999 39.1806 5.94221 37.4195C6.17366 36.2421 6.09315 35.0244 6.03277 33.8168C5.81138 29.4393 5.6403 24.9007 6.06296 20.5433C6.47556 16.2161 7.5624 12.0096 8.66936 7.8635C9.02158 6.5452 9.54486 3.39538 10.672 2.94253C10.7726 2.90227 11.0443 2.68088 11.3361 2.64062C11.4267 8.58806 11.6079 16.6287 11.8192 22.566C11.8594 23.6327 13.228 32.6092 13.1878 33.1225C13.1475 33.6357 13.6306 36.9163 13.6708 37.2988C13.7111 37.6812 16.2974 42.4109 16.1464 45.4299C15.9955 48.4489 15.754 50.6226 14.5262 51.8403C13.2985 53.0479 11.0443 53.7322 9.89709 53.5611C8.74987 53.39 6.42523 53.7322 5.83149 52.4139C5.13712 50.8641 4.16099 49.7169 3.76852 47.9659C3.39618 46.3457 3.40624 44.5947 3.8289 42.9845Z" fill="#FCF2D9"/>
<path d="M11.5903 45.7531C11.9626 44.8373 12.0632 40.1881 12.0431 38.7591C12.0129 36.7061 10.8053 27.9309 10.6644 23.7244C10.4833 18.3003 10.7449 9.34393 10.8254 5.52992C10.9059 1.71592 10.7047 1.80649 10.5537 1.8568C10.4028 1.90712 9.88955 3.26567 9.7386 5.85195C9.58765 8.43823 8.73227 16.5795 8.45049 22.0036C8.25929 25.7774 8.01775 35.8608 8.058 37.7427C8.09826 39.6648 7.58504 44.2033 7.91713 45.0487C8.28948 45.9946 9.04421 46.7192 9.49706 46.6487C10.0807 46.538 11.2179 46.6789 11.5903 45.7531Z" fill="#D8D8D8"/>
<path d="M9.79512 19.5276L8.92969 19.5075C9.13096 10.9537 9.71461 4.41252 10.1675 0.4375L11.0229 0.538132C10.5801 4.49302 9.99639 11.004 9.79512 19.5276Z" fill="#938F9E"/>
<path d="M8.72946 19.5364L8.45775 18.7213C8.40744 18.7414 8.37725 18.7615 8.36719 18.7615C8.51814 18.6408 9.19236 17.7753 9.72573 17.0508L10.4201 17.564C9.05148 19.4257 8.85022 19.4962 8.72946 19.5364Z" fill="#B7B3C4"/>
<path d="M8.83883 16.7591L8.56713 15.944C8.51681 15.9641 8.48663 15.9842 8.47656 15.9842C8.62751 15.8634 9.30176 14.998 9.83511 14.2734L10.5295 14.7867C9.16087 16.6484 8.96965 16.7188 8.83883 16.7591Z" fill="#B7B3C4"/>
<path d="M9.01855 13.5286L8.74682 12.7135C8.6965 12.7336 8.66631 12.7537 8.65625 12.7537C8.8072 12.633 9.48146 11.7675 10.0148 11.043L10.7092 11.5562C9.34057 13.4179 9.14937 13.4884 9.01855 13.5286Z" fill="#B7B3C4"/>
<path d="M9.26071 10.3606L8.989 9.54551C8.93869 9.56563 8.9085 9.58576 8.89844 9.58576C9.04939 9.465 9.72361 8.59956 10.257 7.875L10.9514 8.38822C9.58273 10.2499 9.39153 10.3204 9.26071 10.3606Z" fill="#B7B3C4"/>
<path d="M9.57321 6.80596L9.3015 5.99083C9.25119 6.01096 9.221 6.03109 9.21094 6.03109C9.36189 5.91033 10.0361 5.04487 10.5695 4.32031L11.2639 4.83355C9.89523 6.69527 9.69397 6.76571 9.57321 6.80596Z" fill="#B7B3C4"/>
<path d="M9.97945 2.93487L9.70775 2.11974C9.65744 2.13987 9.62725 2.15999 9.61719 2.15999C9.76814 2.03923 10.4424 1.17378 10.9757 0.449219L11.6701 0.962452C10.3015 2.82417 10.1103 2.89461 9.97945 2.93487Z" fill="#B7B3C4"/>
<defs>
<linearGradient id="paint0_linear_87_10617" x1="14.6197" y1="21.1986" x2="1.72709" y2="20.8014" gradientUnits="userSpaceOnUse">
<stop stop-color="#BFAB8D"/>
<stop offset="0.5078" stop-color="#E7E1D2"/>
<stop offset="1" stop-color="#CCBFA6"/>
</linearGradient>
<linearGradient id="paint1_linear_87_10617" x1="22.7671" y1="47.98" x2="-3.9593" y2="47.1568" gradientUnits="userSpaceOnUse">
<stop stop-color="#94938C"/>
<stop offset="0.0311" stop-color="#A6A59D"/>
<stop offset="0.0939" stop-color="#C5C3BB"/>
<stop offset="0.1552" stop-color="#DBD9D0"/>
<stop offset="0.2138" stop-color="#E8E7DD"/>
<stop offset="0.2666" stop-color="#EDEBE1"/>
<stop offset="0.7117" stop-color="#EDEBE1"/>
<stop offset="0.7637" stop-color="#E7E5DB"/>
<stop offset="0.835" stop-color="#D5D3CA"/>
<stop offset="0.9175" stop-color="#B8B7AF"/>
<stop offset="1" stop-color="#94938C"/>
</linearGradient>
</defs>
</svg>
