<svg width="19" height="57" viewBox="0 0 19 57" fill="none" xmlns="http://www.w3.org/2000/svg">
<path d="M9.75781 55.8354C9.75781 55.8354 15.0612 56.9323 16.933 54.1749C18.8149 51.4276 10.3918 54.1749 9.75781 55.8354Z" fill="#D8D6D0"/>
<path d="M8.97977 56.0748C8.97977 56.0748 3.33423 56.4573 1.93543 52.7942C0.536622 49.1311 8.64768 53.9515 8.97977 56.0748Z" fill="#D8D6D0"/>
<path d="M6.72769 35.5374C6.64718 35.5776 6.56665 35.6279 6.48615 35.6782C5.04709 36.6846 3.83948 38.3148 2.92371 39.7841C1.53497 42.0182 0.538725 44.5742 0.810435 47.2511C0.991575 49.0725 1.19282 51.1758 2.10858 52.8161C2.64194 53.7721 3.83948 54.2149 4.81563 54.547C5.65088 54.8388 6.49622 55.1106 7.31135 55.4427C8.0661 55.7546 8.81078 56.2779 9.66617 56.2075C10.6423 56.127 11.3266 55.3621 12.1116 54.859C13.3393 54.074 14.8085 53.6816 16.2677 53.752C16.5193 53.7621 16.791 53.7923 17.0325 53.7118C17.3948 53.6011 17.6565 53.2992 17.8678 52.9872C18.8238 51.5884 18.8037 50.2198 18.8137 48.5895C18.8238 46.9291 18.7936 45.2586 18.4716 43.6283C17.908 40.72 15.9859 38.3149 14.9796 35.5676C14.9192 35.4066 14.8589 35.2455 14.7582 35.1147C14.5771 34.8933 14.2752 34.7927 13.9934 34.7726C13.45 34.7323 12.9066 34.8128 12.3732 34.8732C11.3568 34.9839 10.3706 35.0946 9.35421 35.165C8.53907 35.2254 7.48244 35.165 6.72769 35.5374Z" fill="url(#paint0_linear_87_10629)"/>
<path d="M4.58408 37.459C4.62433 37.4891 4.66459 37.5093 4.71491 37.5294C4.98662 37.5999 5.80174 37.1973 6.09358 37.1269C7.05966 36.8753 8.03579 36.664 9.01194 36.4929C10.0485 36.3117 11.1051 36.1306 12.1618 36.1205C12.7253 36.1205 13.2889 36.1507 13.8323 36.2715C14.3153 36.3822 14.8487 36.7143 15.3015 36.7545C15.6336 35.4463 15.3015 33.9167 15.221 32.5883C15.1304 31.109 14.9996 29.6297 14.8185 28.1604C14.4763 25.4031 13.7819 22.7464 13.2788 20.0192C12.7857 17.3725 12.6549 14.5649 12.7152 11.8679C12.7454 10.5999 12.8159 9.33192 12.9668 8.06394C13.0876 6.98717 13.3995 6.02109 13.2888 4.90406C13.1782 3.7669 12.6448 2.05614 11.1454 2.51905C10.0183 2.87127 9.31383 4.10905 8.75028 5.05501C7.66344 6.84628 6.87852 8.80863 6.15396 10.771C5.4294 12.7333 4.75515 14.7359 4.3828 16.7989C4.05071 18.6003 4.09096 20.3613 4.12115 22.1727C4.17146 25.0609 4.24191 27.939 4.31235 30.8272C4.36267 32.6889 4.25197 34.6312 4.40292 36.513C4.42305 36.8552 4.36269 37.2778 4.58408 37.459Z" fill="url(#paint1_linear_87_10629)"/>
<path d="M4.18469 40.9729C4.23501 40.7716 4.29541 40.5804 4.36586 40.3892C4.9294 38.769 5.91562 37.3299 6.25777 35.6292C6.48923 34.5021 6.40872 33.3247 6.34834 32.1674C6.12695 27.971 5.96593 23.6136 6.37853 19.4273C6.79113 15.2711 7.84776 11.2458 8.9346 7.25062C9.27676 5.98264 9.79 2.96363 10.897 2.53091C10.9976 2.49066 11.2592 2.45041 11.5511 2.41016C11.6417 8.12613 11.8228 15.6636 12.0241 21.3594C12.0643 22.3859 13.4028 31.0001 13.3625 31.4932C13.3223 31.9863 13.7952 35.1261 13.8355 35.4984C13.8757 35.8708 16.4117 40.3993 16.2607 43.2975C16.1198 46.1957 15.8783 48.2889 14.6707 49.4462C13.4631 50.6135 11.2592 51.2677 10.1321 51.0966C9.00505 50.9356 6.73074 51.2576 6.14706 49.9896C5.46275 48.5103 4.51678 47.3933 4.12431 45.7228C3.75197 44.1931 3.77209 42.5226 4.18469 40.9729Z" fill="#FCF2D9"/>
<path d="M11.334 43.9216C11.6259 43.0461 11.7164 38.6383 11.6963 37.2697C11.6661 35.3174 10.7101 26.985 10.5994 22.9798C10.4484 17.8273 10.6598 9.31374 10.7302 5.70101C10.8007 2.08827 10.6396 2.16877 10.5088 2.20903C10.3881 2.24928 9.98554 3.54745 9.85471 6.00291C9.72389 8.45836 9.05972 16.187 8.82826 21.3495C8.67731 24.9421 8.48611 34.5123 8.5163 36.3036C8.54649 38.1352 8.13387 42.4423 8.40558 43.2473C8.70748 44.143 9.30122 44.8373 9.6635 44.7669C10.1264 44.6663 11.0422 44.7971 11.334 43.9216Z" fill="#D8D8D8"/>
<path d="M10.0217 19.887L9.15625 19.8669C9.35752 11.3131 9.9412 4.77189 10.3941 0.796875L11.2495 0.897515C10.8067 4.85241 10.233 11.3634 10.0217 19.887Z" fill="#938F9E"/>
<path d="M8.95601 19.8958L8.68432 19.0807C8.634 19.1008 8.60381 19.1209 8.59375 19.1209C8.7447 19.0002 9.41895 18.1347 9.9523 17.4102L10.6467 17.9234C9.27806 19.7851 9.08684 19.8555 8.95601 19.8958Z" fill="#B7B3C4"/>
<path d="M9.07323 17.1185L8.8015 16.3033C8.75119 16.3234 8.721 16.3436 8.71094 16.3436C8.86189 16.2228 9.53613 15.3574 10.0695 14.6328L10.7639 15.146C9.39525 17.0078 9.19399 17.0782 9.07323 17.1185Z" fill="#B7B3C4"/>
<path d="M9.24508 13.888L8.97338 13.0729C8.92306 13.093 8.89288 13.1131 8.88281 13.1131C9.03376 12.9924 9.70802 12.1269 10.2414 11.4023L10.9357 11.9156C9.5671 13.7773 9.37591 13.8477 9.24508 13.888Z" fill="#B7B3C4"/>
<path d="M9.50289 10.72L9.23119 9.90489C9.18088 9.92501 9.15069 9.94514 9.14062 9.94514C9.29158 9.82438 9.96583 8.95894 10.4992 8.23438L11.1935 8.7476C9.82492 10.6194 9.62365 10.6798 9.50289 10.72Z" fill="#B7B3C4"/>
<path d="M9.7998 7.16534L9.52807 6.35021C9.47775 6.37033 9.44756 6.39046 9.4375 6.39046C9.58845 6.2697 10.2627 5.40425 10.7961 4.67969L11.4904 5.19292C10.1218 7.05464 9.93062 7.12508 9.7998 7.16534Z" fill="#B7B3C4"/>
<path d="M10.206 3.29424L9.93432 2.47911C9.884 2.49924 9.85381 2.51936 9.84375 2.51936C9.9947 2.3986 10.669 1.53315 11.2023 0.808594L11.8967 1.32183C10.5281 3.18354 10.3369 3.25398 10.206 3.29424Z" fill="#B7B3C4"/>
<defs>
<linearGradient id="paint0_linear_87_10629" x1="24.7569" y1="45.9012" x2="-5.47955" y2="44.9697" gradientUnits="userSpaceOnUse">
<stop stop-color="#94938C"/>
<stop offset="0.2666" stop-color="#EDEBE1"/>
<stop offset="0.7117" stop-color="#EDEBE1"/>
<stop offset="1" stop-color="#94938C"/>
</linearGradient>
<linearGradient id="paint1_linear_87_10629" x1="18.2196" y1="21.0297" x2="3.86" y2="19.5218" gradientUnits="userSpaceOnUse">
<stop stop-color="#BFAB8D"/>
<stop offset="0.5078" stop-color="#E7E1D2"/>
<stop offset="1" stop-color="#CCBFA6"/>
</linearGradient>
</defs>
</svg>
