<svg width="26" height="50" viewBox="0 0 26 50" fill="none" xmlns="http://www.w3.org/2000/svg">
<path d="M14.8928 1.80565C14.8928 1.80565 15.7985 -0.247266 17.63 0.265964C19.4616 0.779194 20.0956 5.56935 19.7635 9.11164C19.4314 12.6439 17.8615 23.8544 15.1544 24.0859C12.4474 24.3174 7.50631 17.9674 9.7605 14.4251C12.0147 10.8828 15.7381 4.67371 14.8928 1.80565Z" fill="url(#paint0_linear_87_10643)"/>
<path d="M3.07724 32.2565C6.27738 32.0251 9.91025 30.4653 13.1104 30.3344C15.1231 30.2539 17.1357 30.1231 19.1484 30.1835C20.0742 30.2137 21.463 32.6893 22.3687 32.5786C22.9524 32.5081 22.5699 30.103 22.5397 29.4791C22.5196 28.9457 22.4794 28.4224 22.5498 27.8991C22.8316 25.9971 23.8782 24.1958 24.3109 22.2938C24.8141 20.09 25.1562 17.8559 25.3675 15.6017C25.5889 13.2167 25.6795 10.7814 25.3675 8.40643C25.2367 7.37997 25.0455 6.33338 24.643 5.37736C24.321 4.63268 23.5561 3.17349 22.5699 3.28419C22.2077 3.32444 21.8856 3.5257 21.6139 3.77729C21.0806 4.25026 20.7183 4.89432 20.4768 5.5585C19.9736 6.93718 19.9836 8.42655 19.8931 9.87567C19.7924 11.365 19.3899 12.7538 19.0478 14.2029C18.4238 16.8999 17.6892 20.0598 15.9281 22.2737C15.4954 22.8071 14.8514 23.2498 14.1671 23.1794C13.8148 23.1492 13.4928 22.9882 13.201 22.7769C12.1644 22.0322 11.6412 20.7541 11.46 19.4962C11.0977 16.92 11.3694 14.0721 12.0538 11.5764C12.4563 10.1071 13.201 8.79889 13.6639 7.35983C14.1469 5.84027 14.8011 2.83134 12.6576 2.25773C11.7921 2.02627 10.8763 2.46906 10.2323 3.08292C7.83721 5.37736 6.22706 8.78883 4.83832 11.7374C3.993 13.5488 3.16781 15.4206 2.64452 17.3628C2.33256 18.5301 2.36275 19.6874 2.39294 20.895C2.50363 24.2461 2.69483 28.9155 3.07724 32.2565Z" fill="url(#paint1_linear_87_10643)"/>
<path d="M22.0197 34.4213C22.2914 34.5018 22.6839 35.2465 22.8349 35.4578C23.4286 36.3031 23.9519 37.2088 24.3343 38.1749C25.3809 40.7612 25.2299 43.5991 23.2676 45.7224C23.2474 45.7426 23.2173 45.7727 23.1972 45.7929C23.0865 45.9036 22.9858 46.0143 22.8952 46.135C22.6537 46.4872 22.5933 46.93 22.3619 47.3024C22.1505 47.6445 21.8285 47.9665 21.5166 48.2282C20.792 48.8421 19.8259 49.2647 18.8598 49.1741C18.5277 49.144 18.2158 49.0232 17.9038 48.9024C16.5553 48.3993 15.076 47.8156 14.3615 46.4671C14.442 46.6181 14.0697 47.242 13.9791 47.3728C13.7577 47.6747 13.476 47.8156 13.1338 47.9464C11.9866 48.3892 10.7387 48.7515 9.63175 49.2949C8.86694 49.5867 8.23294 49.8685 7.45806 49.6169C7.00521 49.466 6.55236 49.3352 6.0995 49.1741C5.26425 48.8722 3.87551 48.3389 3.87551 47.252C3.87551 45.5815 2.47671 40.5499 5.82781 35.5283C9.1789 30.5167 22.0097 34.4213 22.0197 34.4213Z" fill="#D8D6D0"/>
<path d="M22.0302 30.2964C22.3522 30.397 22.805 31.2624 22.9862 31.514C23.6906 32.5002 24.2944 33.5669 24.7473 34.694C25.975 37.7231 25.7939 41.0541 23.4994 43.5397C23.4692 43.5699 23.4491 43.6001 23.4189 43.6303C23.2981 43.7611 23.1673 43.8919 23.0667 44.0328C22.7849 44.4454 22.7145 44.9687 22.4428 45.4014C22.1912 45.804 21.8188 46.1864 21.4566 46.4883C20.6112 47.2028 19.4741 47.7059 18.347 47.5952C17.9545 47.555 17.5923 47.4141 17.2199 47.2833C15.6299 46.6895 13.909 46.0052 13.0738 44.4354C13.1744 44.6165 12.7316 45.341 12.621 45.492C12.3593 45.8543 12.0373 46.0052 11.6247 46.1662C10.2762 46.6895 8.817 47.1021 7.51883 47.7462C6.62319 48.0883 5.8785 48.4204 4.96273 48.1185C4.43944 47.9474 3.89603 47.7965 3.37274 47.6053C2.39659 47.243 0.766334 46.6191 0.766334 45.3511C0.766334 43.3888 -0.863939 37.5118 3.0507 31.6247C6.99553 25.7175 22.0201 30.2863 22.0302 30.2964Z" fill="url(#paint2_linear_87_10643)"/>
<path d="M10.2841 4.26301C9.16702 5.91339 7.93931 8.53992 6.96316 10.2708C6.29898 11.4482 5.63481 12.6558 5.17189 13.9238C4.49765 15.7553 4.48757 17.9089 4.36681 19.831C4.21586 22.0952 4.16556 24.3696 4.16556 26.6439C4.16556 29.0088 3.80326 29.3509 3.80326 29.3509C3.80326 29.3509 0.442103 40.0885 2.97806 42.7553C5.51402 45.4221 12.4577 40.9741 12.4577 40.9741C12.4577 40.9741 14.5408 41.4772 16 42.242C17.4592 43.0069 19.4014 43.51 20.6694 42.3226C21.9374 41.1351 24.3023 38.0054 24.2117 37.0795C24.1211 36.1537 23.0343 31.3636 22.038 29.5119C21.0417 27.6603 22.672 23.967 23.0343 21.7732C23.3966 19.5794 25.1174 12.5955 24.7551 10.14C24.3928 7.68454 24.1211 3.07553 22.672 3.15604C20.5386 3.23655 21.4946 7.59397 21.2229 9.2041C20.9512 10.8142 19.3612 19.8008 18.6366 20.9078C17.912 22.0047 15.366 24.3595 14.2792 24.279C13.1924 24.1985 9.88151 22.5783 10.1532 18.3819C10.4249 14.1955 12.4678 7.04048 12.7395 6.15491C12.8804 5.68193 13.5647 3.5787 13.3332 2.60255C13.2527 2.2604 12.6791 2.23021 12.4275 2.17989C12.0351 2.11951 11.4212 2.36103 10.2841 4.26301Z" fill="#FCF2D9"/>
<path d="M12.5192 1.70312C12.5192 1.70312 9.20836 8.91854 8.21209 11.9073C7.21582 14.9062 5.26353 30.6855 6.2598 34.0467C7.25607 37.4078 18.1949 37.7198 19.0503 35.6769C19.9158 33.6341 21.3649 22.4336 21.3649 22.4336C21.3649 22.4336 22.6329 16.9793 23.0857 11.9577C23.4681 7.78138 23.0958 3.96737 22.663 3.16231C22.663 3.16231 22.804 7.55998 22.2203 12.1388C21.6567 16.5264 20.3787 21.0952 20.0466 21.7996C19.3623 23.2487 17.3697 25.3419 14.1897 25.4325C11.0097 25.523 9.15804 21.4877 8.92658 20.1694C8.69512 18.8511 10.1543 10.6394 10.426 9.24057L12.5192 1.70312Z" fill="#D8D8D8"/>
<path d="M21.3688 19.8384L20.5234 19.6874C21.2077 15.7627 22.1839 9.30205 22.9085 0.808594L23.7639 0.879037C23.0393 9.41275 22.0631 15.8935 21.3688 19.8384Z" fill="#938F9E"/>
<path d="M22.8361 3.27457L22.1719 2.72109C23.6512 0.949943 23.8424 0.889565 23.9732 0.859375L24.1946 1.69463C24.255 1.6745 24.2852 1.65437 24.2852 1.65437C24.1242 1.76507 23.4097 2.5802 22.8361 3.27457Z" fill="#B7B3C4"/>
<path d="M22.5548 6.04019L21.8906 5.48671C23.37 3.71557 23.5612 3.65519 23.692 3.625L23.9134 4.46025C23.9738 4.44012 24.004 4.42 24.004 4.42C23.843 4.53069 23.1284 5.34582 22.5548 6.04019Z" fill="#B7B3C4"/>
<path d="M22.172 9.25113L21.5078 8.69764C22.9871 6.9265 23.1783 6.86613 23.3092 6.83594L23.5306 7.6712C23.5909 7.65107 23.6211 7.63093 23.6211 7.63093C23.4702 7.74163 22.7456 8.55676 22.172 9.25113Z" fill="#B7B3C4"/>
<path d="M21.7345 12.4035L21.0703 11.85C22.5496 10.0789 22.7408 10.0185 22.8717 9.98828L23.0931 10.8235C23.1534 10.8034 23.1836 10.7833 23.1836 10.7833C23.0327 10.894 22.3081 11.7091 21.7345 12.4035Z" fill="#B7B3C4"/>
<path d="M21.2111 15.923L20.5469 15.3695C22.0262 13.5984 22.2174 13.538 22.3482 13.5078L22.5696 14.3431C22.63 14.3229 22.6602 14.3028 22.6602 14.3028C22.5092 14.4236 21.7847 15.2387 21.2111 15.923Z" fill="#B7B3C4"/>
<path d="M20.5704 19.7668L19.9062 19.2133C21.3856 17.4421 21.5768 17.3818 21.7076 17.3516L21.929 18.1868C21.9894 18.1667 22.0196 18.1466 22.0196 18.1466C21.8686 18.2673 21.144 19.0825 20.5704 19.7668Z" fill="#B7B3C4"/>
<defs>
<linearGradient id="paint0_linear_87_10643" x1="11.3734" y1="23.07" x2="29.9354" y2="-22.2955" gradientUnits="userSpaceOnUse">
<stop offset="0.1599" stop-color="#BFAB8D"/>
<stop offset="0.5078" stop-color="#E7E1D2"/>
<stop offset="0.7297" stop-color="#CCBFA6"/>
</linearGradient>
<linearGradient id="paint1_linear_87_10643" x1="24.2602" y1="17.067" x2="3.34956" y2="18.0125" gradientUnits="userSpaceOnUse">
<stop offset="0.1599" stop-color="#BFAB8D"/>
<stop offset="0.5078" stop-color="#E7E1D2"/>
<stop offset="0.7297" stop-color="#CCBFA6"/>
</linearGradient>
<linearGradient id="paint2_linear_87_10643" x1="31.2895" y1="40.7332" x2="-3.53313" y2="37.0763" gradientUnits="userSpaceOnUse">
<stop stop-color="#94938C"/>
<stop offset="0.2296" stop-color="#EDEBE1"/>
<stop offset="0.7988" stop-color="#EDEBE1"/>
<stop offset="1" stop-color="#94938C"/>
</linearGradient>
</defs>
</svg>
