<svg width="24" height="43" viewBox="0 0 24 43" fill="none" xmlns="http://www.w3.org/2000/svg">
<path d="M9.5625 40.6327C9.5625 40.6327 12.0079 44.2253 15.7313 41.7799C19.4648 39.3345 11.4846 38.942 9.5625 40.6327Z" fill="#D8D6D0"/>
<path d="M13.9517 5.01146C14.475 3.2705 16.2662 3.4919 16.8801 5.06178C18.0575 8.09084 17.4537 11.4922 16.8399 14.5817C16.5581 16.0107 16.0147 21.2939 14.002 21.4751C11.9994 21.6462 8.34641 16.9365 10.0069 14.32C10.9126 12.9011 11.8988 11.5224 12.6434 10.0029C13.4586 8.35248 13.4485 6.71216 13.9517 5.01146Z" fill="url(#paint0_linear_87_10658)"/>
<path d="M3.48769 28.3064C3.55813 28.3467 3.75939 27.8737 3.9506 27.8938C4.19212 27.924 4.50409 27.8335 4.74561 27.8133C5.59093 27.7328 6.43627 27.6523 7.2816 27.5919C9.63642 27.4108 11.9912 27.3102 14.3561 27.3605C15.9965 27.3907 17.667 27.4812 19.267 27.8234C20.2633 28.0347 21.5715 28.3467 22.1754 29.2524C22.1754 29.2524 20.8067 23.7377 21.7929 19.4909C22.7791 15.2442 24.0874 3.8022 21.4709 3.48017C19.8306 3.2789 18.5827 7.0929 18.1601 8.15962C17.0229 10.9774 16.1273 13.9964 15.3222 16.955C15.3021 17.0355 15.2719 17.1261 15.2216 17.1965C14.7788 17.8104 13.2492 18.0519 12.6554 17.6393C12.1623 17.2971 12.0416 16.633 11.9611 16.0292C11.8202 14.9725 11.6793 13.9058 11.5283 12.8491C11.1862 10.3333 10.844 7.79734 10.9044 5.25131C10.9245 4.55694 11.7195 0.99453 10.0188 1.83985C7.1709 3.25878 5.54062 7.2036 4.75568 10.0314C3.68897 13.8454 3.64871 17.9412 3.49776 21.876C3.42732 23.6773 3.33674 25.5088 3.4575 27.3202C3.48769 27.6624 3.39712 28.2561 3.48769 28.3064Z" fill="url(#paint1_linear_87_10658)"/>
<path d="M4.58584 27.1474C5.46135 26.5436 6.63877 26.4731 7.65517 26.2618C9.1848 25.9599 10.7345 25.6982 12.3044 25.6077C15.7461 25.3963 19.54 26.0303 21.8545 28.838C22.6697 29.8242 23.2433 31.0117 23.5351 32.2595C23.8571 33.6684 23.5955 34.5741 23.1527 35.9025C22.7401 37.1201 22.2067 38.4384 21.5426 39.5353C20.8281 40.7329 19.6808 41.7593 18.2317 41.7392C16.6719 41.7191 15.1423 41.1052 14.0957 39.9177C14.0454 39.8573 13.985 39.7869 13.9045 39.7567C13.8139 39.7165 13.7133 39.7366 13.6126 39.7567C11.5094 40.2397 9.40619 41.6084 7.46397 42.5342C6.53814 42.977 6.00478 43.1078 5.06889 42.6147C3.90154 42.0008 2.78451 41.2461 1.91906 40.2397C-0.647091 37.2811 0.339124 33.0948 2.2109 30.0456C2.80464 29.0795 3.53925 27.9725 4.42482 27.258C4.47514 27.2279 4.53552 27.1876 4.58584 27.1474Z" fill="url(#paint2_linear_87_10658)"/>
<path d="M8.60062 4.31403C3.76016 10.5634 5.84325 18.7549 4.55514 25.8999C4.42432 26.6446 4.22306 27.2685 3.87085 27.9528C3.02553 29.5831 2.07958 31.0322 2.0192 32.8939C1.94875 35.0978 2.92491 37.1407 4.5451 38.6904C4.64574 38.791 4.75643 38.8816 4.88725 38.942C5.0382 39.0124 5.21934 39.0124 5.39042 39.0225C7.80562 39.0527 10.2812 38.5193 12.3744 37.352C12.9681 37.0199 13.4411 36.6073 14.1355 36.4463C14.5682 36.3456 15.0512 36.3758 15.4236 36.6073C15.6852 36.7784 15.8764 37.04 16.0978 37.2513C17.4463 38.5193 19.7508 37.6337 20.8074 36.4463C21.5823 35.5708 21.9647 34.4336 22.0653 33.2965C22.2465 31.2838 21.5622 29.3214 21.3408 27.339C20.888 23.3338 21.1295 19.409 21.5823 15.424C21.8842 12.7069 22.4176 9.81867 22.1962 7.09151C22.1861 7.00094 22.176 6.91038 22.166 6.81981C22.0754 6.2462 22.0452 2.54289 20.9886 3.45865C20.8175 3.59954 20.3143 5.29018 20.2238 5.48138C19.4288 7.08145 19.0262 8.88278 18.4124 10.5634C17.7683 12.3244 17.5369 14.0352 16.772 15.756C16.1884 17.0743 15.1619 19.409 13.4109 18.8857C12.7366 18.6845 11.7907 17.3863 11.2775 15.8466C10.3818 13.1396 10.1403 9.55703 10.1403 8.92304C10.1403 7.95696 10.0497 6.98082 9.98934 6.01474C9.91889 5.00841 11.1064 1.6875 10.3717 1.6875C9.63712 1.6875 8.94278 3.88131 8.60062 4.31403Z" fill="#FCF2D9"/>
<path d="M10.0415 1.87891C10.0415 1.87891 8.95472 6.40741 8.03896 8.92324C7.12319 11.4391 5.664 26.2825 6.57976 29.1002C7.49552 31.918 17.3576 31.6765 18.1526 29.9657C18.9476 28.2549 20.2458 18.4633 20.2458 18.4633C20.2458 18.4633 20.8496 14.3776 21.2722 10.161C21.6144 6.65899 21.3125 3.56954 20.92 2.8953C20.92 2.8953 20.9703 6.44766 20.4269 10.2919C19.9137 13.975 19.0382 16.9639 18.7363 17.5576C18.1123 18.7753 16.5928 20.8986 13.6744 20.9691C10.756 21.0395 9.46795 17.6783 9.26668 16.5714C9.05535 15.4644 9.04529 9.47672 9.29687 8.29931L10.0415 1.87891Z" fill="#D8D8D8"/>
<path d="M19.9703 19.561L19.125 19.4101C19.8093 15.4854 20.7855 9.0247 21.51 0.53125L22.3654 0.601693C21.6308 9.1354 20.6546 15.6262 19.9703 19.561Z" fill="#938F9E"/>
<path d="M21.4298 2.99723L20.7656 2.44374C22.2449 0.6726 22.4361 0.612221 22.5669 0.582031L22.7883 1.41728C22.8487 1.39715 22.8789 1.37703 22.8789 1.37703C22.728 1.48773 22.0034 2.30286 21.4298 2.99723Z" fill="#B7B3C4"/>
<path d="M21.1407 5.76286L20.4766 5.20938C21.9559 3.43822 22.1471 3.37785 22.2779 3.34766L22.4993 4.18291C22.5597 4.16278 22.5898 4.14266 22.5898 4.14266C22.4288 4.25336 21.7143 5.06849 21.1407 5.76286Z" fill="#B7B3C4"/>
<path d="M20.7657 8.9738L20.1016 8.42031C21.5809 6.64917 21.7721 6.58878 21.9029 6.55859L22.1243 7.39385C22.1847 7.37372 22.2149 7.3536 22.2149 7.3536C22.0639 7.47436 21.3494 8.28949 20.7657 8.9738Z" fill="#B7B3C4"/>
<path d="M20.3282 12.1261L19.6641 11.5726C21.1434 9.8015 21.3346 9.74113 21.4654 9.71094L21.6868 10.5462C21.7472 10.5261 21.7773 10.5059 21.7773 10.5059C21.6264 10.6166 20.9018 11.4318 20.3282 12.1261Z" fill="#B7B3C4"/>
<path d="M19.8048 15.6457L19.1406 15.0922C20.6199 13.321 20.8111 13.2607 20.9419 13.2305L21.1633 14.0657C21.2237 14.0456 21.2539 14.0255 21.2539 14.0255C21.103 14.1462 20.3784 14.9614 19.8048 15.6457Z" fill="#B7B3C4"/>
<path d="M19.172 19.4894L18.5078 18.9359C19.9871 17.1648 20.1783 17.1044 20.3092 17.0742L20.5306 17.9095C20.5909 17.8894 20.6212 17.8692 20.6212 17.8692C20.4601 17.99 19.7456 18.8051 19.172 19.4894Z" fill="#B7B3C4"/>
<defs>
<linearGradient id="paint0_linear_87_10658" x1="11.3152" y1="20.7553" x2="25.0135" y2="-12.6957" gradientUnits="userSpaceOnUse">
<stop offset="0.1599" stop-color="#BFAB8D"/>
<stop offset="0.5078" stop-color="#E7E1D2"/>
<stop offset="0.7297" stop-color="#CCBFA6"/>
</linearGradient>
<linearGradient id="paint1_linear_87_10658" x1="22.3345" y1="17.7604" x2="4.64662" y2="14.399" gradientUnits="userSpaceOnUse">
<stop offset="0.1599" stop-color="#BFAB8D"/>
<stop offset="0.5078" stop-color="#E7E1D2"/>
<stop offset="0.7297" stop-color="#CCBFA6"/>
</linearGradient>
<linearGradient id="paint2_linear_87_10658" x1="-4.91978" y1="34.1833" x2="28.3656" y2="34.279" gradientUnits="userSpaceOnUse">
<stop stop-color="#94938C"/>
<stop offset="0.2296" stop-color="#EDEBE1"/>
<stop offset="0.7988" stop-color="#EDEBE1"/>
<stop offset="1" stop-color="#94938C"/>
</linearGradient>
</defs>
</svg>
