<svg width="24" height="45" viewBox="0 0 24 45" fill="none" xmlns="http://www.w3.org/2000/svg">
<path d="M19.1902 5.44937C19.7236 3.71848 18.1034 2.89329 16.7348 3.85937C14.078 5.73115 12.6792 8.89103 11.4716 11.7893C10.9081 13.1378 8.42243 17.8273 10.0024 19.0953C11.5723 20.3532 17.2279 18.4713 17.2983 15.3718C17.3386 13.6913 17.2782 11.9905 17.5096 10.32C17.7411 8.50863 18.6669 7.15008 19.1902 5.44937Z" fill="url(#paint0_linear_87_10670)"/>
<path d="M3.39693 29.3819C2.43085 23.0722 2.45097 15.4643 5.24858 9.62756C5.90269 8.26901 6.78825 7.03121 7.8449 5.95444C8.2575 5.53178 10.7331 3.00588 11.2463 3.62981C11.7797 4.2638 11.2966 5.68273 11.2061 6.38716C11.0451 7.56457 10.9042 8.74199 10.7733 9.92946C10.5217 12.3346 9.90788 14.9309 10.5519 17.3159C10.6928 17.8392 11.0249 18.3625 11.5382 18.5336C11.8099 18.6242 12.1118 18.6041 12.3935 18.5437C14.1747 18.1613 15.4528 16.37 16.5497 15.0517C18.1095 13.1698 19.0051 11.0565 19.7901 8.76211C20.1725 7.64508 20.6052 6.55824 21.5512 5.81355C21.7826 5.63241 22.2455 5.21982 22.5977 5.30033C23.7651 5.5821 23.3625 8.72185 23.3223 9.43635C23.0003 14.9913 20.7058 22.5086 20.7058 22.5086C20.7058 22.5086 19.7297 28.7177 20.7058 30.6801C21.692 32.6424 4.6951 32.6424 3.39693 29.3819Z" fill="url(#paint1_linear_87_10670)"/>
<path d="M2.41089 30.3565C2.41089 30.3565 5.02736 27.418 10.9044 27.418C16.7914 27.418 21.0382 29.3803 22.0143 31.9968C22.9904 34.6132 23.3225 41.7985 19.7299 43.1067C18.5928 43.5193 17.3449 43.6199 16.3184 42.8853C15.4429 42.2614 15.0907 41.1041 13.7724 41.5368C13.1988 41.728 12.7258 42.1305 12.2327 42.4828C10.0892 44.0526 6.44628 45.6829 4.01095 43.8313C0.679987 41.2953 -0.497421 33.627 2.41089 30.3565Z" fill="url(#paint2_linear_87_10670)"/>
<path d="M3.98907 41.1552C3.72742 40.9237 3.5161 40.6218 3.37522 40.2394C2.81167 38.7903 2.32861 37.2908 2.21791 35.7411C2.13741 34.6542 2.26824 33.5271 2.67077 32.5007C3.09343 31.434 3.78779 30.5283 4.03937 29.3811C4.19032 28.7068 4.18027 28.0124 4.18027 27.3281C4.15008 22.7594 3.63685 17.8988 4.68344 13.4105C5.23692 11.0557 6.36401 9.01286 7.82319 7.0807C8.38673 6.33602 8.48738 5.48063 9.09117 4.7762C9.23206 4.61518 9.72515 4.03151 10.0472 3.89063C10.3692 3.7598 10.7617 3.43777 10.7315 3.7598C10.339 7.73482 9.32262 13.3602 9.77547 17.3252C9.82579 17.7378 10.0874 19.1265 11.9089 19.2272C13.7304 19.3278 14.7065 18.0095 15.9342 16.6308C17.7657 14.5779 19.074 12.0822 20.0602 9.56635C20.3319 8.88204 21.3886 5.34981 22.3345 5.20892C22.9282 5.11835 22.9182 6.12469 22.8779 6.83918C22.7571 9.25439 22.6364 11.6998 21.9621 14.0445C21.2577 16.4698 20.5835 18.8347 20.0803 21.3103C19.557 23.9267 19.0035 27.7105 20.6137 30.0251C22.7773 33.1347 22.7068 38.4984 19.2551 40.7526C18.7721 41.0646 18.3897 41.1049 17.9167 40.7828C16.8802 40.0784 15.7229 39.5249 14.5153 39.1626C14.153 39.0519 13.7807 38.9614 13.4083 38.9815C12.7039 39.0217 12.1303 39.6356 11.5667 39.9979C10.8724 40.4507 10.1579 40.8633 9.39306 41.1854C7.86344 41.8495 5.30736 42.3426 3.98907 41.1552Z" fill="#FCF2D9"/>
<path d="M9.48648 3.93359C9.48648 3.93359 8.53046 8.37152 7.69521 10.8874C6.85995 13.4032 5.93413 27.3409 6.75932 30.1586C7.59458 32.9764 16.4805 33.228 17.195 31.5172C17.9095 29.8064 19.1473 20.7192 19.1473 20.7192C19.1473 20.7192 20.6467 14.2787 21.1398 12.5076C21.643 10.7364 22.9915 5.60411 22.6392 4.92986C22.6392 4.92986 19.8718 13.6447 20.1939 12.5981C20.5159 11.5515 17.4768 17.9418 17.195 18.5456C16.6314 19.7632 14.9408 21.0111 12.2942 21.0815C9.6475 21.162 8.98332 19.6425 8.80218 18.5456C8.61097 17.4386 8.60091 11.4509 8.83237 10.2735L9.48648 3.93359Z" fill="#D8D8D8"/>
<path d="M7.25938 19.6587L6.41406 19.5077C7.09837 15.583 8.07452 9.12236 8.79908 0.628906L9.65448 0.699357C8.92991 9.23307 7.95376 15.7239 7.25938 19.6587Z" fill="#938F9E"/>
<path d="M8.71887 3.09489L8.05469 2.5414C9.534 0.770256 9.72518 0.709877 9.85601 0.679688L10.0774 1.51495C10.1378 1.49482 10.168 1.47469 10.168 1.47469C10.017 1.59545 9.29248 2.41058 8.71887 3.09489Z" fill="#B7B3C4"/>
<path d="M8.42981 5.86052L7.76562 5.30703C9.24494 3.53588 9.43612 3.4755 9.56694 3.44531L9.78834 4.28057C9.84872 4.26045 9.87891 4.24032 9.87891 4.24032C9.72796 4.35102 9.00342 5.16615 8.42981 5.86052Z" fill="#B7B3C4"/>
<path d="M8.06259 9.07144L7.39844 8.51796C8.87775 6.74682 9.06893 6.68644 9.19976 6.65625L9.42115 7.49151C9.48153 7.47138 9.51172 7.45125 9.51172 7.45125C9.3507 7.57201 8.6362 8.38714 8.06259 9.07144Z" fill="#B7B3C4"/>
<path d="M7.61727 12.2238L6.95312 11.6703C8.43242 9.89915 8.6236 9.83878 8.75442 9.80859L8.97581 10.6438C9.03619 10.6237 9.06638 10.6036 9.06638 10.6036C8.91543 10.7143 8.20094 11.5294 7.61727 12.2238Z" fill="#B7B3C4"/>
<path d="M7.1017 15.755L6.4375 15.2016C7.91684 13.4304 8.10805 13.37 8.23888 13.3398L8.46027 14.1751C8.52066 14.155 8.55084 14.1348 8.55084 14.1348C8.38983 14.2455 7.67531 15.0607 7.1017 15.755Z" fill="#B7B3C4"/>
<path d="M6.46106 19.5988L5.79688 19.0453C7.27619 17.2742 7.4674 17.2138 7.59822 17.1836L7.81962 18.0189C7.88 17.9987 7.91019 17.9786 7.91019 17.9786C7.74917 18.0893 7.03467 18.9044 6.46106 19.5988Z" fill="#B7B3C4"/>
<defs>
<linearGradient id="paint0_linear_87_10670" x1="12.6422" y1="19.9812" x2="19.8528" y2="-15.4384" gradientUnits="userSpaceOnUse">
<stop offset="0.1599" stop-color="#BFAB8D"/>
<stop offset="0.5078" stop-color="#E7E1D2"/>
<stop offset="0.7297" stop-color="#CCBFA6"/>
</linearGradient>
<linearGradient id="paint1_linear_87_10670" x1="-2.12713" y1="17.7235" x2="22.8104" y2="17.8136" gradientUnits="userSpaceOnUse">
<stop offset="0.1599" stop-color="#BFAB8D"/>
<stop offset="0.5078" stop-color="#E7E1D2"/>
<stop offset="0.7297" stop-color="#CCBFA6"/>
</linearGradient>
<linearGradient id="paint2_linear_87_10670" x1="-4.4496" y1="35.9875" x2="28.11" y2="36.1051" gradientUnits="userSpaceOnUse">
<stop stop-color="#94938C"/>
<stop offset="0.2296" stop-color="#EDEBE1"/>
<stop offset="0.7988" stop-color="#EDEBE1"/>
<stop offset="1" stop-color="#94938C"/>
</linearGradient>
</defs>
</svg>
