<svg width="26" height="41" viewBox="0 0 26 41" fill="none" xmlns="http://www.w3.org/2000/svg">
<path d="M9.55283 37.4205C9.26099 39.2722 10.4485 39.7653 11.3743 38.5174C13.1756 36.1022 14.0008 32.6303 14.7254 29.4704C15.0575 28.0012 16.5972 22.7783 15.4198 21.8324C14.2423 20.8965 10.3277 23.9356 10.4283 27.0653C10.4787 28.766 10.5994 30.4567 10.5189 32.1876C10.4283 34.0593 9.8346 35.6091 9.55283 37.4205Z" fill="url(#paint0_linear_87_10787)"/>
<path d="M22.0215 14.1154C22.0215 14.1154 20.7133 17.7081 20.7133 21.6328C20.7133 25.5575 21.0353 30.4583 18.7509 34.0509C16.4665 37.6435 15.8124 39.2839 15.8124 39.2839C15.8124 39.2839 13.8501 41.5682 12.8739 38.9618C12.8739 38.9618 15.1583 31.1225 13.8501 27.1978C12.5418 23.2731 11.2336 24.5813 10.9116 25.2354C10.5896 25.8896 6.01074 33.4069 5.35662 35.3692C4.7025 37.3316 3.72636 39.2939 3.07224 39.2939C2.41813 39.2939 1.44198 37.6637 0.787863 34.7151C0.133746 31.7766 0.787866 28.506 2.0961 26.2216C3.40433 23.9373 4.71257 13.8035 4.71257 12.1632C4.71257 10.5228 20.3812 13.4613 22.0215 14.1154Z" fill="url(#paint1_linear_87_10787)"/>
<path d="M14.475 3.85001C14.787 3.77957 15.109 3.5783 15.4814 3.32672C16.4978 2.66253 17.5443 2.01848 18.7117 1.68639C19.879 1.35429 21.1973 1.39455 22.2339 2.01848C22.9685 2.46126 23.5119 3.15564 23.9547 3.8802C24.6491 5.01736 25.1623 6.33565 25.0113 7.66402C24.8302 9.17352 24.2264 10.6629 23.6125 12.0416C23.2402 12.8768 22.9282 13.8328 22.254 14.487C21.469 15.2518 20.1507 15.3625 19.1142 15.5034C16.8902 15.8153 14.6562 15.5336 12.4926 15.0203C10.339 14.5071 8.10494 13.9435 6.01176 13.229C5.63942 13.0982 5.25701 12.9573 4.94505 12.7058C4.05948 12.0215 3.87833 10.4818 3.667 9.45529C3.34498 7.90553 3.54624 6.30547 4.18023 4.85635C4.99536 2.99463 6.55518 1.3543 8.62823 1.03227C10.1075 0.800817 11.4258 1.11278 12.4322 2.26C12.7643 2.64241 13.0259 3.0852 13.3882 3.43741C13.7706 3.83995 14.1128 3.93052 14.475 3.85001Z" fill="url(#paint2_linear_87_10787)"/>
<path d="M15.8724 36.1229C15.9026 36.0625 15.9328 36.0122 15.963 35.9619C16.3454 35.2776 16.7982 34.6335 17.1706 33.9492C18.1467 32.1378 18.3681 30.2157 18.6901 28.2232C19.2034 25.0935 19.2034 21.9236 19.4851 18.7737C19.7266 16.0566 20.2399 13.3395 20.9644 10.713C21.3468 9.30412 21.2663 7.88519 19.0323 7.58329C16.8083 7.28139 16.3252 8.17703 14.1012 7.9657C12.7729 7.83488 11.6055 6.3757 10.3376 5.97317C7.66071 4.83601 5.61784 6.80842 5.59771 7.6638C5.57759 8.77077 5.47696 9.8878 5.67822 10.9746C5.88955 12.1621 6.1512 13.3093 6.21158 14.527C6.30215 16.429 6.10088 18.3511 5.60778 20.1927C5.06436 22.1953 4.46056 24.1878 3.68569 26.12C3.17245 27.398 2.4177 28.5352 2.31707 29.934C2.23656 31.0007 2.24663 32.0674 2.24663 33.1341C2.24663 33.758 2.02523 35.6298 2.8303 35.8311C3.16239 35.9116 3.51461 35.7506 3.74606 35.499C3.97752 35.2474 4.11841 34.9254 4.24923 34.6134C5.8493 30.9604 7.89216 27.4986 10.3376 24.3387C10.9112 23.5941 11.5955 23.0305 12.5112 23.6041C13.6081 24.2985 14.5239 25.6268 14.7755 26.8948C15.4497 30.256 14.0509 33.4058 14.1113 36.7167C14.1214 37.3104 14.4937 37.6727 15.0371 37.3708C15.4497 37.1393 15.651 36.5657 15.8724 36.1229Z" fill="#FCF2D9"/>
<path d="M2.78906 39.2707C2.78906 39.2707 4.13754 30.9885 4.44951 29.5394C4.77153 28.0903 7.64965 13.4783 8.90756 11.3248C10.1655 9.17122 18.186 10.8619 18.4778 12.4116C18.7696 13.9714 17.9243 25.182 17.9243 25.182C17.9243 25.182 17.4312 28.5532 16.9582 32.1056C16.5658 35.0541 14.9154 39.7537 14.4827 40.2368C14.4827 40.2368 16.0525 35.0944 16.3645 31.8339C16.6664 28.7042 16.4651 25.343 16.3444 24.7895C16.0827 23.6725 14.9758 21.8913 12.6914 21.2975C10.407 20.7038 8.41446 23.1794 8.04212 24.0549C7.66977 24.9304 5.52628 29.4187 5.49609 30.4351L2.78906 39.2707Z" fill="#D8D8D8"/>
<path d="M14.8632 39.9493L14.0078 39.8084C15.7387 29.2721 16.5236 21.1409 16.8658 16.1797L17.7212 16.2401C17.3891 21.2214 16.6042 29.3828 14.8632 39.9493Z" fill="#938F9E"/>
<path d="M15.3346 39.9494C15.2138 39.889 14.9723 39.7683 13.6641 37.2323L14.4289 36.8398C14.9622 37.8562 15.6365 39.0638 15.7975 39.2349C15.7975 39.2349 15.7774 39.2148 15.727 39.1846L15.3346 39.9494Z" fill="#B7B3C4"/>
<path d="M15.8346 36.508C15.7138 36.4476 15.4723 36.3269 14.1641 33.7909L14.9289 33.3984C15.4622 34.4148 16.1365 35.6224 16.2975 35.7935C16.2975 35.7935 16.2774 35.7734 16.227 35.7432L15.8346 36.508Z" fill="#B7B3C4"/>
<path d="M16.358 32.4924C16.2373 32.432 15.9957 32.3112 14.6875 29.7753L15.4523 29.3828C15.9857 30.3992 16.6599 31.6068 16.8209 31.7779C16.8209 31.7779 16.8008 31.7578 16.7505 31.7276L16.358 32.4924Z" fill="#B7B3C4"/>
<path d="M16.7955 28.5471C16.6748 28.4867 16.4332 28.3659 15.125 25.83L15.8898 25.4375C16.4232 26.4539 17.0974 27.6615 17.2584 27.8326C17.2584 27.8326 17.2383 27.8124 17.188 27.7823L16.7955 28.5471Z" fill="#B7B3C4"/>
<path d="M17.2252 24.1096C17.1044 24.0492 16.8629 23.9284 15.5547 21.3925L16.3195 21C16.8528 22.0164 17.5271 23.224 17.6881 23.3951C17.6881 23.3951 17.668 23.3749 17.6177 23.3448L17.2252 24.1096Z" fill="#B7B3C4"/>
<path d="M17.608 19.258C17.4873 19.1976 17.2457 19.0769 15.9375 16.5409L16.7023 16.1484C17.2357 17.1648 17.9099 18.3724 18.0709 18.5435C18.0709 18.5435 18.0508 18.5234 18.0005 18.4932L17.608 19.258Z" fill="#B7B3C4"/>
<defs>
<linearGradient id="paint0_linear_87_10787" x1="13.1543" y1="21.4361" x2="13.1307" y2="58.5055" gradientUnits="userSpaceOnUse">
<stop offset="0.1599" stop-color="#BFAB8D"/>
<stop offset="0.5078" stop-color="#E7E1D2"/>
<stop offset="0.7297" stop-color="#CCBFA6"/>
</linearGradient>
<linearGradient id="paint1_linear_87_10787" x1="20.126" y1="25.904" x2="3.3676" y2="25.9646" gradientUnits="userSpaceOnUse">
<stop stop-color="#BFAB8D"/>
<stop offset="0.5078" stop-color="#E7E1D2"/>
<stop offset="1" stop-color="#CCBFA6"/>
</linearGradient>
<linearGradient id="paint2_linear_87_10787" x1="31.3823" y1="8.23803" x2="-2.6576" y2="8.36101" gradientUnits="userSpaceOnUse">
<stop stop-color="#94938C"/>
<stop offset="0.2614" stop-color="#EDEBE1"/>
<stop offset="0.7687" stop-color="#EDEBE1"/>
<stop offset="1" stop-color="#94938C"/>
</linearGradient>
</defs>
</svg>
