<svg width="27" height="49" viewBox="0 0 27 49" fill="none" xmlns="http://www.w3.org/2000/svg">
<path d="M10.9822 42.5348C10.781 44.4871 12.049 44.9399 12.9547 43.5713C14.6956 40.9347 15.3699 37.2616 15.9435 33.9105C16.2051 32.3607 17.5234 26.7957 16.2252 25.8699C14.9472 24.9541 11.0124 28.3656 11.2942 31.6362C11.4452 33.4174 11.6766 35.1785 11.6867 36.9899C11.7068 38.9623 11.1835 40.6227 10.9822 42.5348Z" fill="url(#paint0_linear_87_10768)"/>
<path d="M22.6143 20.2748C21.93 22.2372 21.3765 24.28 21.0545 26.333C20.8431 27.7116 20.8733 28.9394 21.0847 30.308C21.4369 32.6024 21.4671 34.9975 21.3664 37.3121C21.2155 40.9248 19.4846 43.6419 18.0958 46.8924C17.5826 48.0899 16.4052 48.7138 15.3385 47.6169C13.9799 46.2282 14.3523 43.2997 14.2919 41.5286C14.2215 39.1134 14.1711 36.6781 13.6881 34.2931C13.4768 33.2666 13.1849 32.2502 12.6516 31.3445C12.1182 30.4489 11.1421 30.0161 10.1961 30.6602C8.9382 31.5156 8.65643 33.3974 8.22371 34.7258C7.82117 35.9736 7.44883 37.2416 7.09661 38.5096C6.59344 40.3009 6.13053 42.1022 5.65755 43.9035C5.45629 44.6482 4.81223 46.3993 3.71533 45.6344C3.34298 45.3829 3.16185 44.93 3.0109 44.5073C2.50773 43.1186 2.10519 41.6997 1.70266 40.2707C1.15924 38.3687 0.666135 36.4667 0.555439 34.4843C0.394425 31.7772 1.46114 29.1104 1.98443 26.4839C2.53791 23.7064 2.88007 20.8786 3.02096 18.0408C3.03103 17.8496 3.04108 17.6483 3.17191 17.5175C3.34298 17.3363 3.63483 17.3464 3.88641 17.3766C6.95573 17.7288 10.0351 18.0106 13.1044 18.403C15.1775 18.6647 17.2606 18.9364 19.3135 19.3087C20.2091 19.4899 21.9098 19.5704 22.6143 20.2748Z" fill="url(#paint1_linear_87_10768)"/>
<path d="M25.0131 16.0291C25.1137 14.8013 25.0835 13.5635 25.3251 12.3459C25.6873 10.454 26.6434 8.80359 26.5125 6.80098C26.1905 1.98064 19.4481 1.6083 16.0567 2.93667C14.6479 3.49015 14.0642 2.96685 12.8868 2.22216C11.5987 1.40703 10.0892 0.984375 8.56959 0.984375C6.8387 0.984375 4.9166 1.47747 3.43729 2.39324C1.24349 3.74172 1.24348 5.95566 1.09253 8.2803C0.921456 10.8464 0.981842 13.4931 1.83723 15.9586C2.09887 16.7134 2.44103 17.448 2.98445 18.0317C3.75932 18.8569 4.73546 18.9676 5.77199 19.2091C7.19092 19.5412 8.62998 19.8129 10.059 20.0846C12.8666 20.6179 15.6944 21.0507 18.5524 21.1916C19.911 21.262 21.3098 21.1211 22.5073 20.4972C24.2483 19.5915 24.8621 17.8807 25.0131 16.0291Z" fill="url(#paint2_linear_87_10768)"/>
<path d="M19.1084 36.3875C19.2392 35.1095 18.8669 33.8616 18.7964 32.483C18.6958 30.5709 18.4945 28.6387 18.575 26.7166C18.6656 24.4826 19.0581 22.2687 19.7323 20.1453C20.4267 17.9716 21.4431 15.9287 22.0066 13.7148C22.5299 11.6619 22.9928 8.63283 20.5072 7.71707C18.7864 7.08308 15.4252 8.28062 13.6541 8.19005C11.5508 8.07935 9.33689 5.83521 8.57207 5.47293C4.62724 3.61121 3.41964 12.3361 4.23478 15.1639C5.04991 18.0018 3.72154 25.5594 3.41964 27.6626C3.11774 29.7658 1.78938 33.2478 1.96046 34.4956C2.13153 35.7435 4.10395 43.7338 4.10395 43.7338C4.10395 43.7338 5.31155 39.8292 5.69396 36.1762C6.07636 32.5232 6.94181 29.0413 9.77967 28.3167C12.0238 27.7431 14.8717 30.5709 15.1535 32.8754C15.6265 36.7196 15.8277 42.4859 16.0592 46.3502C16.6932 46.1288 17.4781 44.0155 17.8303 43.4922C18.9373 41.8217 18.9071 38.4102 19.1084 36.3875Z" fill="#FCF2D9"/>
<path d="M4.25987 45.9871C4.25987 45.9871 4.3907 38.0471 4.0888 35.2395C3.7869 32.4318 6.15178 16.582 7.73173 13.875C9.32173 11.168 18.0265 13.6536 18.3989 15.6059C18.7712 17.5582 18.1775 28.8593 18.1775 28.8593C18.1775 28.8593 18.2278 33.8608 17.634 38.3289C17.1309 42.0322 16.839 47.5872 16.2856 48.201C16.2856 48.201 16.4969 42.0926 16.8894 37.9868C17.2617 34.052 17.0202 29.8153 16.8592 29.131C16.5371 27.7221 15.1383 25.4881 12.2703 24.7434C9.40224 23.9987 6.89647 27.1083 6.42349 28.2052C5.95051 29.3021 5.61843 36.749 5.57817 38.027L4.25987 45.9871Z" fill="#D8D8D8"/>
<path d="M16.5273 48.838L15.6719 48.7776C16.3964 38.2313 16.3964 30.1403 16.2757 25.2193L17.1411 25.1992C17.2518 30.1504 17.2518 38.2614 16.5273 48.838Z" fill="#938F9E"/>
<path d="M16.9902 48.7974C16.8593 48.7471 16.6178 48.6465 15.0781 46.2715L15.8027 45.8086C16.4166 46.7646 17.1914 47.8816 17.3726 48.0427C17.3726 48.0427 17.3424 48.0225 17.3021 48.0024L16.9902 48.7974Z" fill="#B7B3C4"/>
<path d="M17.162 45.356C17.0312 45.3057 16.7897 45.205 15.25 42.8301L15.9746 42.3672C16.5884 43.3232 17.3633 44.4402 17.5444 44.6012C17.5444 44.6012 17.5143 44.5811 17.474 44.561L17.162 45.356Z" fill="#B7B3C4"/>
<path d="M17.3026 41.3521C17.1718 41.3018 16.9303 41.2012 15.3906 38.8262L16.1152 38.3633C16.729 39.3193 17.5039 40.4363 17.6851 40.5974C17.6851 40.5974 17.6549 40.5772 17.6146 40.5571L17.3026 41.3521Z" fill="#B7B3C4"/>
<path d="M17.3495 37.4263C17.2187 37.376 16.9772 37.2754 15.4375 34.9004L16.1621 34.4375C16.7759 35.3935 17.5508 36.5105 17.7319 36.6715C17.7319 36.6715 17.7018 36.6514 17.6615 36.6313L17.3495 37.4263Z" fill="#B7B3C4"/>
<path d="M17.3652 33.0083C17.2343 32.958 16.9928 32.8574 15.4531 30.4824L16.1777 30.0195C16.7916 30.9756 17.5664 32.0926 17.7476 32.2536C17.7476 32.2536 17.7174 32.2335 17.6771 32.2133L17.3652 33.0083Z" fill="#B7B3C4"/>
<path d="M17.2949 28.188C17.164 28.1377 16.9225 28.0371 15.3828 25.6621L16.1074 25.1992C16.7212 26.1552 17.4961 27.2723 17.6773 27.4333C17.6773 27.4333 17.6471 27.4132 17.6068 27.393L17.2949 28.188Z" fill="#B7B3C4"/>
<defs>
<linearGradient id="paint0_linear_87_10768" x1="13.9607" y1="25.7318" x2="16.0706" y2="64.5372" gradientUnits="userSpaceOnUse">
<stop offset="0.1599" stop-color="#BFAB8D"/>
<stop offset="0.5078" stop-color="#E7E1D2"/>
<stop offset="0.7297" stop-color="#CCBFA6"/>
</linearGradient>
<linearGradient id="paint1_linear_87_10768" x1="20.0841" y1="34.1679" x2="2.59015" y2="30.7637" gradientUnits="userSpaceOnUse">
<stop stop-color="#BFAB8D"/>
<stop offset="0.5078" stop-color="#E7E1D2"/>
<stop offset="1" stop-color="#CCBFA6"/>
</linearGradient>
<linearGradient id="paint2_linear_87_10768" x1="30.5928" y1="14.1162" x2="-2.70608" y2="7.63664" gradientUnits="userSpaceOnUse">
<stop stop-color="#94938C"/>
<stop offset="0.2114" stop-color="#EDEBE1"/>
<stop offset="0.847" stop-color="#EDEBE1"/>
<stop offset="1" stop-color="#94938C"/>
</linearGradient>
</defs>
</svg>
