<svg width="29" height="51" viewBox="0 0 29 51" fill="none" xmlns="http://www.w3.org/2000/svg">
<path d="M19.8111 0.680846C21.1193 0.771416 22.1357 1.15383 23.2125 1.89852C23.5044 2.09979 23.7761 2.34131 23.7257 2.62308C23.454 3.96151 13.5819 2.88473 13.6725 1.70731C13.7329 1.01294 16.9431 0.821746 17.6576 0.741239C18.4828 0.660732 19.1771 0.630529 19.8111 0.680846Z" fill="#D8D6D0"/>
<path d="M9.65166 46.0476C8.97741 48.2112 10.5674 49.0968 12.0568 47.8087C14.9248 45.3331 16.5752 41.3581 18.0344 37.7151C18.7087 36.0245 21.6069 30.0972 20.0873 28.6682C18.5778 27.2493 12.6405 29.9563 12.3386 33.7603C12.1776 35.8232 12.1071 37.8963 11.7448 39.9593C11.3524 42.2034 10.3158 43.9242 9.65166 46.0476Z" fill="url(#paint0_linear_87_10752)"/>
<path d="M26.4253 20.7688C26.2341 21.5437 26.0731 22.3286 26.0328 22.4796C25.7209 23.7878 25.4391 25.1061 25.2278 26.4345C25.0466 27.5213 24.9057 28.6081 24.795 29.705C24.6944 30.7617 24.785 31.929 24.5837 32.9756C24.3824 34.0021 24.0202 35.0789 23.678 36.0651C22.6415 39.0338 21.0716 41.8012 19.2099 44.3371C18.274 45.6051 17.2677 46.8127 16.1909 47.9801C15.5368 48.6946 14.138 50.7978 12.9807 49.9223C12.5479 49.5902 12.3668 49.0065 12.397 48.4631C12.4272 47.9197 12.6285 47.3964 12.8096 46.8832C14.2688 42.9383 15.6475 38.0476 14.8323 33.8109C14.7518 33.3681 14.6109 32.9152 14.299 32.5932C13.8864 32.1706 13.2222 32.08 12.6486 32.241C12.085 32.402 11.5919 32.7643 11.1693 33.1769C9.72015 34.5858 8.68363 36.5682 7.79806 38.3696C7.12381 39.7382 6.63071 41.1873 6.34893 42.6767C6.07722 44.1057 6.30868 45.8064 5.73507 47.1448C5.41304 47.8996 4.69855 48.5436 3.88342 48.5134C3.24943 48.4933 2.68588 48.0908 2.26322 47.6077C0.713462 45.8466 0.421619 43.0289 0.331049 40.7747C0.220352 37.9369 0.622889 35.1091 1.06568 32.3215C1.65941 28.5176 2.43428 24.7438 3.28967 20.9902C3.31986 20.8493 3.79285 18.4743 3.88342 18.4844C3.88342 18.4844 26.7574 19.1184 26.9687 19.1285C26.858 19.1285 26.6266 19.9436 26.4253 20.7688Z" fill="url(#paint1_linear_87_10752)"/>
<path d="M8.52533 0.499476C9.7128 0.429033 10.6789 0.690675 11.7557 1.29448C12.0475 1.45549 12.3293 1.66683 12.3293 1.94861C12.2991 3.29711 3.32258 3.4078 3.21189 2.24044C3.15151 1.54607 5.98937 0.982512 6.62336 0.821498C7.33786 0.640356 7.96178 0.529667 8.52533 0.499476Z" fill="#D8D6D0"/>
<path d="M24.4736 1.54564C25.4296 1.63621 26.3253 2.00856 27.1001 2.81363C28.0964 3.85015 28.5996 5.29927 28.7203 6.72826C28.982 9.80764 28.4587 13.4707 27.6939 16.4494C27.4523 17.3954 27.4222 19.3879 26.7781 20.1125C24.7554 22.3868 20.3174 21.2798 17.6305 21.0886C14.5511 20.8773 11.2403 20.7767 8.48296 20.1125C6.6615 20.0219 3.30035 20.4244 2.74686 18.0092C2.11287 15.2418 1.72039 12.414 1.58957 9.57618C1.48894 7.45282 1.18705 2.21989 4.22617 1.8073C4.66896 1.74692 5.42371 2.25008 5.87656 2.35071C6.81245 2.56204 7.71815 2.53185 8.64398 2.29033C9.78113 1.98843 10.8378 1.44501 11.9347 1.00223C12.1762 0.901593 12.4177 0.811016 12.6794 0.821079C13.263 0.841206 13.6958 1.34438 14.1587 1.6966C16.121 3.17591 19.6432 2.41109 21.8068 1.83748C22.6823 1.60603 23.5981 1.46513 24.4736 1.54564Z" fill="url(#paint2_linear_87_10752)"/>
<path d="M21.946 35.6509C21.312 37.4522 20.1949 38.9718 19.1886 40.6322C18.8163 41.2461 15.8174 47.0023 15.113 45.7645C14.9721 45.523 15.0123 45.2412 15.0626 44.9695C15.8375 40.5316 17.8401 35.9226 15.7268 31.4947C15.4752 30.9815 15.1633 30.4783 14.7004 30.0959C13.523 29.1198 11.7921 29.5625 10.6549 30.3676C7.75668 32.4306 6.66983 35.7314 5.52261 38.7806C4.96913 40.2599 4.43578 41.9908 3.43951 43.2789C2.24197 44.8085 1.8495 42.8562 1.71867 41.8096C1.3262 38.7906 1.30607 35.7213 1.69854 32.7023C1.96019 30.6494 2.29228 28.5864 2.97659 26.614C3.61058 24.8026 4.8685 23.1421 5.06976 21.22C5.43204 17.8388 1.71867 10.724 4.49615 8.35909C5.57292 7.88611 6.81073 7.78548 7.96801 7.59428C9.94042 7.26219 11.9732 7.22193 13.9657 7.33262C17.0049 7.5037 21.6541 7.40307 23.8077 9.617C25.5587 11.4083 25.1662 13.9845 24.9247 16.2991C24.6027 19.4288 23.6869 22.7899 23.375 25.9196C23.0731 28.9084 22.9523 32.0683 22.1573 34.9867C22.0869 35.2181 22.0164 35.4395 21.946 35.6509Z" fill="#FCF2D9"/>
<path d="M13.4945 50.1924C13.4945 50.1924 17.9727 43.8022 18.9388 40.8033C19.9048 37.8044 21.0722 18.9759 20.0759 15.6248C19.0696 12.2737 9.34842 12.3039 8.5031 14.3569C7.65778 16.4098 5.35327 29.5022 5.35327 29.5022C5.35327 29.5022 4.13561 34.9565 3.71295 39.9882C3.36073 44.1645 4.3872 47.8275 4.80986 48.6326C4.80986 48.6326 4.00479 44.3858 4.55828 39.797C5.08157 35.3993 7.53702 31.3035 7.86911 30.589C8.53328 29.1298 10.4554 27.2983 13.5851 27.1876C16.7148 27.0769 18.1136 31.4545 18.345 32.7627C18.5765 34.081 17.379 40.9744 17.1173 42.3832L13.4945 50.1924Z" fill="#D8D8D8"/>
<path d="M15.6533 48.9235L14.8281 48.682C17.8371 38.5482 19.6183 30.6585 20.5743 25.8281L21.4196 25.9992C20.4636 30.8397 18.6824 38.7595 15.6533 48.9235Z" fill="#938F9E"/>
<path d="M16.1129 48.9847C16.0022 48.9042 15.7808 48.7633 14.8047 46.1066L15.6098 45.8047C16.0022 46.8714 16.5155 48.1394 16.6563 48.3306C16.6563 48.3306 16.6362 48.3004 16.596 48.2702L16.1129 48.9847Z" fill="#B7B3C4"/>
<path d="M17.0426 45.6644C16.9319 45.5839 16.7105 45.443 15.7344 42.7863L16.5394 42.4844C16.9319 43.5511 17.4451 44.8191 17.586 45.0103C17.586 45.0103 17.5659 44.9801 17.5257 44.9499L17.0426 45.6644Z" fill="#B7B3C4"/>
<path d="M18.0582 41.7894C17.9475 41.7089 17.7261 41.568 16.75 38.9113L17.5551 38.6094C17.9475 39.6761 18.4608 40.9441 18.6017 41.1353C18.6017 41.1353 18.5815 41.1051 18.5413 41.0749L18.0582 41.7894Z" fill="#B7B3C4"/>
<path d="M18.9645 37.9652C18.8538 37.8847 18.6324 37.7438 17.6562 35.0871L18.4613 34.7852C18.8538 35.8519 19.367 37.1199 19.5079 37.3111C19.5079 37.3111 19.4878 37.2809 19.4475 37.2507L18.9645 37.9652Z" fill="#B7B3C4"/>
<path d="M19.9332 33.6566C19.8225 33.5761 19.6011 33.4352 18.625 30.7785L19.4301 30.4766C19.8225 31.5433 20.3358 32.8113 20.4767 33.0025C20.4767 33.0025 20.4565 32.9723 20.4163 32.9421L19.9332 33.6566Z" fill="#B7B3C4"/>
<path d="M20.9254 28.9378C20.8147 28.8573 20.5933 28.7164 19.6172 26.0597L20.4223 25.7578C20.8147 26.8245 21.328 28.0925 21.4688 28.2837C21.4688 28.2837 21.4487 28.2535 21.4085 28.2233L20.9254 28.9378Z" fill="#B7B3C4"/>
<defs>
<linearGradient id="paint0_linear_87_10752" x1="17.261" y1="27.9253" x2="9.49956" y2="72.2176" gradientUnits="userSpaceOnUse">
<stop offset="0.1599" stop-color="#BFAB8D"/>
<stop offset="0.5078" stop-color="#E7E1D2"/>
<stop offset="0.7297" stop-color="#CCBFA6"/>
</linearGradient>
<linearGradient id="paint1_linear_87_10752" x1="24.3833" y1="34.2533" x2="1.85625" y2="34.3346" gradientUnits="userSpaceOnUse">
<stop stop-color="#BFAB8D"/>
<stop offset="0.5078" stop-color="#E7E1D2"/>
<stop offset="1" stop-color="#CCBFA6"/>
</linearGradient>
<linearGradient id="paint2_linear_87_10752" x1="34.489" y1="11.1181" x2="-4.35706" y2="11.2585" gradientUnits="userSpaceOnUse">
<stop stop-color="#94938C"/>
<stop offset="0.2296" stop-color="#EDEBE1"/>
<stop offset="0.7988" stop-color="#EDEBE1"/>
<stop offset="1" stop-color="#94938C"/>
</linearGradient>
</defs>
</svg>
