<svg width="24" height="43" viewBox="0 0 24 43" fill="none" xmlns="http://www.w3.org/2000/svg">
<path d="M7.00781 40.4842C7.00781 40.4842 9.45321 44.0769 13.1766 41.6315C16.9001 39.1861 8.92991 38.7936 7.00781 40.4842Z" fill="#D8D6D0"/>
<path d="M9.92091 5.06225C9.39762 3.32129 7.60635 3.54267 6.99248 5.11255C5.81507 8.14162 6.41887 11.543 7.03274 14.6325C7.31451 16.0615 7.85793 21.3447 9.8706 21.5259C11.8732 21.6969 15.5262 16.9873 13.8658 14.3708C12.9601 12.9519 11.9738 11.5732 11.2292 10.0537C10.4241 8.40327 10.4341 6.76295 9.92091 5.06225Z" fill="url(#paint0_linear_87_10664)"/>
<path d="M20.3865 28.3572C20.316 28.3975 20.1148 27.9245 19.9236 27.9446C19.682 27.9748 19.3701 27.8842 19.1286 27.8641C18.2832 27.7836 17.4379 27.7031 16.5926 27.6427C14.2378 27.4616 11.883 27.3609 9.51807 27.4113C7.87775 27.4414 6.20723 27.532 4.60716 27.8742C3.61089 28.0855 2.30266 28.3975 1.69886 29.3032C1.69886 29.3032 3.06748 23.7885 2.08127 19.5417C1.09506 15.295 -0.213173 3.85299 2.40329 3.53096C4.04362 3.32969 5.29147 7.14369 5.71413 8.21041C6.85128 11.0281 7.74693 14.0471 8.55199 17.0058C8.57212 17.0863 8.60231 17.1769 8.65263 17.2473C9.09541 17.8612 10.625 18.1027 11.2188 17.6901C11.7119 17.3479 11.8326 16.6837 11.9131 16.0799C12.054 15.0233 12.1949 13.9566 12.3459 12.8999C12.688 10.3841 13.0302 7.84813 12.9698 5.3021C12.9497 4.60773 12.1547 1.04531 13.8554 1.89063C16.7033 3.30956 18.3336 7.25439 19.1185 10.0822C20.1852 13.8962 20.2255 17.992 20.3764 21.9267C20.4469 23.7281 20.5374 25.5596 20.4167 27.371C20.3865 27.7132 20.477 28.2968 20.3865 28.3572Z" fill="url(#paint1_linear_87_10664)"/>
<path d="M19.2878 27.1981C18.4123 26.5943 17.2349 26.5239 16.2185 26.3126C14.6888 26.0107 13.1391 25.749 11.5692 25.6584C8.12754 25.4471 4.33366 26.0811 2.01909 28.8888C1.20396 29.875 0.630356 31.0625 0.338519 32.3103C0.0164923 33.7192 0.278136 34.6249 0.720923 35.9532C1.13352 37.1709 1.66688 38.4892 2.33106 39.5861C3.04556 40.7836 4.19277 41.8101 5.64189 41.79C7.20171 41.7699 8.73134 41.156 9.77792 39.9685C9.82824 39.9081 9.88862 39.8377 9.96913 39.8075C10.0597 39.7673 10.1603 39.7874 10.261 39.8075C12.3642 40.2905 14.4674 41.6592 16.4097 42.585C17.3355 43.0278 17.8688 43.1586 18.8047 42.6655C19.9721 42.0516 21.0891 41.2969 21.9546 40.2905C24.5207 37.3319 23.5345 33.1456 21.6627 30.0964C21.069 29.1303 20.3344 28.0233 19.4488 27.3088C19.3985 27.2787 19.3482 27.2384 19.2878 27.1981Z" fill="url(#paint2_linear_87_10664)"/>
<path d="M15.2729 4.36481C20.1134 10.6141 18.0303 18.8057 19.3184 25.9507C19.4492 26.6953 19.6505 27.3193 20.0027 28.0036C20.848 29.6338 21.794 31.083 21.8544 32.9447C21.9248 35.1485 20.9487 37.1914 19.3285 38.7412C19.2278 38.8418 19.1171 38.9324 18.9863 38.9927C18.8354 39.0632 18.6542 39.0632 18.4831 39.0732C16.0679 39.1034 13.5924 38.5701 11.4992 37.4027C10.9055 37.0707 10.4325 36.658 9.7381 36.497C9.30538 36.3964 8.82234 36.4266 8.45 36.658C8.18835 36.8291 7.99715 37.0908 7.77576 37.3021C6.42727 38.5701 4.12276 37.6845 3.06611 36.497C2.29124 35.6215 1.90883 34.4844 1.8082 33.3472C1.62706 31.3346 2.31137 29.3722 2.53276 27.3897C2.98561 23.3845 2.74409 19.4598 2.29124 15.4747C1.98934 12.7576 1.45598 9.86945 1.67738 7.14229C1.68744 7.05172 1.6975 6.96114 1.70757 6.87057C1.79814 6.29696 1.82832 2.59366 2.88497 3.50942C3.05605 3.65031 3.55922 5.34094 3.64979 5.53215C4.44479 7.13222 4.84732 8.93356 5.46119 10.6141C6.10524 12.3752 6.3367 14.086 7.10151 15.8068C7.68519 17.1251 8.71164 19.4598 10.4627 18.9365C11.1369 18.7352 12.0829 17.4371 12.5961 15.8974C13.4917 13.1903 13.7332 9.60781 13.7332 8.97382C13.7332 8.00774 13.8238 7.0316 13.8842 6.06552C13.9546 5.05918 12.7672 1.73828 13.5018 1.73828C14.2364 1.73828 14.9408 3.92203 15.2729 4.36481Z" fill="#FCF2D9"/>
<path d="M13.6063 1.87891C13.6063 1.87891 14.6931 6.40741 15.6089 8.92324C16.5247 11.4391 17.9838 26.2825 17.0681 29.1002C16.1523 31.918 6.29024 31.6765 5.49523 29.9657C4.70023 28.2549 3.40206 18.4633 3.40206 18.4633C3.40206 18.4633 2.79826 14.3776 2.3756 10.161C2.03345 6.65899 2.33534 3.56954 2.72781 2.8953C2.72781 2.8953 2.6775 6.44766 3.22092 10.2919C3.73415 13.975 4.60966 16.9639 4.91156 17.5576C5.53549 18.7753 7.05505 20.8986 9.97342 20.9691C12.8918 21.0395 14.1799 17.6783 14.3812 16.5714C14.5925 15.4644 14.6026 9.47672 14.351 8.29931L13.6063 1.87891Z" fill="#D8D8D8"/>
<path d="M15.1694 19.8032C14.4851 11.2997 13.5492 4.83903 12.875 0.914324L13.7203 0.773438C14.3946 4.71827 15.3405 11.2091 16.0248 19.7428L15.1694 19.8032Z" fill="#938F9E"/>
<path d="M16.2366 19.7511C16.1058 19.7109 15.9045 19.6606 14.4453 17.8794L15.1095 17.3359C15.6831 18.0303 16.3976 18.8454 16.5586 18.9662C16.5586 18.9662 16.5284 18.9461 16.4681 18.9259L16.2366 19.7511Z" fill="#B7B3C4"/>
<path d="M15.9631 16.9855C15.8323 16.9453 15.6311 16.8949 14.1719 15.1137L14.8361 14.5703C15.4097 15.2647 16.1242 16.0798 16.2852 16.2006C16.2852 16.2006 16.255 16.1805 16.1946 16.1603L15.9631 16.9855Z" fill="#B7B3C4"/>
<path d="M15.6038 13.7746C15.4729 13.7343 15.2717 13.684 13.8125 11.9028L14.4767 11.3594C15.0503 12.0537 15.7648 12.8689 15.9258 12.9896C15.9258 12.9896 15.8956 12.9695 15.8352 12.9494L15.6038 13.7746Z" fill="#B7B3C4"/>
<path d="M15.1897 10.6261C15.0589 10.5859 14.8576 10.5356 13.3984 8.75437L14.0626 8.21094C14.6362 8.90531 15.3507 9.72045 15.5117 9.84121C15.5117 9.84121 15.4816 9.82107 15.4212 9.80094L15.1897 10.6261Z" fill="#B7B3C4"/>
<path d="M14.6819 7.09488C14.5511 7.05463 14.3498 7.00431 12.8906 5.2231L13.5548 4.67969C14.1284 5.37406 14.8429 6.18918 15.0039 6.30994C15.0039 6.30994 14.9737 6.28982 14.9133 6.26969L14.6819 7.09488Z" fill="#B7B3C4"/>
<path d="M14.0647 3.24723C13.9339 3.20698 13.7326 3.15666 12.2734 1.37545L12.9376 0.832031C13.5112 1.5264 14.2257 2.34152 14.3867 2.46228C14.3867 2.46228 14.3565 2.44216 14.2962 2.42203L14.0647 3.24723Z" fill="#B7B3C4"/>
<defs>
<linearGradient id="paint0_linear_87_10664" x1="12.8701" y1="20.7899" x2="-0.828283" y2="-12.661" gradientUnits="userSpaceOnUse">
<stop offset="0.1599" stop-color="#BFAB8D"/>
<stop offset="0.5078" stop-color="#E7E1D2"/>
<stop offset="0.7297" stop-color="#CCBFA6"/>
</linearGradient>
<linearGradient id="paint1_linear_87_10664" x1="1.5441" y1="17.8081" x2="19.2319" y2="14.4466" gradientUnits="userSpaceOnUse">
<stop offset="0.1599" stop-color="#BFAB8D"/>
<stop offset="0.5078" stop-color="#E7E1D2"/>
<stop offset="0.7297" stop-color="#CCBFA6"/>
</linearGradient>
<linearGradient id="paint2_linear_87_10664" x1="28.7729" y1="34.2308" x2="-4.51277" y2="34.3266" gradientUnits="userSpaceOnUse">
<stop stop-color="#94938C"/>
<stop offset="0.2296" stop-color="#EDEBE1"/>
<stop offset="0.7988" stop-color="#EDEBE1"/>
<stop offset="1" stop-color="#94938C"/>
</linearGradient>
</defs>
</svg>
