<svg width="19" height="52" viewBox="0 0 19 52" fill="none" xmlns="http://www.w3.org/2000/svg">
<path d="M15.3555 21.2939C14.5504 26.5469 13.1416 31.8 11.2899 36.7814C9.26719 42.2558 6.73123 47.7303 1.81025 51.1619C1.68949 51.2424 1.55867 51.3329 1.41778 51.343C1.26683 51.3531 1.12594 51.2726 1.01524 51.182C0.340997 50.6788 0.0894231 49.753 0.159867 48.9077C0.23031 48.0624 0.562397 47.2674 0.864297 46.4724C2.65557 41.6319 3.09835 36.2983 3.61158 31.1962C3.93361 27.9659 4.70849 24.011 3.94368 20.7907C3.10842 17.3289 14.8423 20.68 15.3555 21.2939Z" fill="url(#paint0_linear_87_10737)"/>
<path d="M5.21152 1.30861C5.93608 0.976518 6.70089 0.976521 7.70722 1.21804C7.97893 1.28849 8.27076 1.38912 8.42171 1.63064C9.11608 2.74768 3.40011 4.90123 2.7158 3.96534C2.31326 3.40179 3.83284 2.29483 4.15486 2.01306C4.51714 1.70109 4.8593 1.46962 5.21152 1.30861Z" fill="#D8D6D0"/>
<path d="M15.143 1.49954C15.4852 1.60017 15.7367 1.71087 15.8474 1.80144C16.3909 2.28448 16.9645 2.78764 17.206 3.48201C17.3066 3.75372 17.3167 4.12607 17.0651 4.27702C16.9846 4.32733 16.884 4.34745 16.7833 4.34745C15.6361 4.43802 14.3178 3.69334 13.3417 3.17005C12.9794 2.96878 11.4397 2.26435 11.5102 1.71087C11.6209 0.855491 13.9254 1.12719 15.143 1.49954Z" fill="#D8D6D0"/>
<path d="M17.1676 3.60353C17.1676 3.60353 19.4519 5.2338 18.1437 9.49059C17.4896 15.3776 15.5273 21.2546 15.5273 21.2546C15.5273 21.2546 14.8731 22.2308 10.2943 22.2308C5.71547 22.2308 4.40724 21.5767 3.75312 20.2684C3.099 18.9602 1.46875 6.54204 1.46875 6.54204C1.46875 6.54204 1.79077 3.60354 3.09901 3.27145C4.40724 2.94942 5.71548 2.61733 6.0375 2.61733C6.35953 2.61733 9.3081 0.65498 10.6163 0.98707C11.9346 1.31916 15.2052 3.93562 17.1676 3.60353Z" fill="url(#paint1_linear_87_10737)"/>
<path d="M16.2875 10.1461C16.2875 10.1461 16.8309 7.53974 14.5163 7.02651C12.2018 6.50322 4.94611 6.63404 4.71465 6.72461C4.4832 6.81518 3.93978 6.85543 3.53725 7.50955C2.57116 9.0593 3.0542 10.7198 3.658 12.2997C4.89579 15.5502 5.37883 19.1428 5.62035 22.5744C6.1537 30.1319 4.12091 37.4882 2.31957 44.7741C2.1485 45.4785 1.80635 46.3037 1.80635 47.0384C1.80635 47.6422 1.21261 49.5945 1.39375 49.685C1.57489 49.7756 3.11458 49.1617 4.39262 46.817C5.6606 44.4722 11.4269 30.1118 12.0106 27.9482C12.9364 24.5367 13.7918 21.1051 14.6472 17.6735C15.2711 15.2382 16.1667 12.6418 16.2875 10.1461Z" fill="#FCF2D9"/>
<path d="M9.93734 9.8999C9.48449 10.544 8.57879 14.1466 8.34733 15.2637C8.01524 16.8738 7.21017 26.4642 6.58625 29.775C5.78118 34.0217 4.63396 38.7917 3.75845 43.0485C3.56725 43.9643 1.02122 50.5457 1.303 50.3646C1.39357 50.3243 4.44276 45.6348 5.21763 42.7567C6.34473 38.5502 7.49194 34.2733 8.66935 30.097C9.48448 27.1887 11.316 18.8462 11.6179 17.3669C11.9198 15.8675 12.8557 11.8421 12.7349 11.1176C12.6041 10.3125 12.1311 9.61812 11.7588 9.598C11.2758 9.56781 10.3902 9.25585 9.93734 9.8999Z" fill="#D8D8D8"/>
<path d="M1.39656 50.416L0.601562 50.0739C4.75772 40.3527 7.43457 32.7247 8.94407 28.0352L9.76927 28.2968C8.24971 33.0064 5.56279 40.6646 1.39656 50.416Z" fill="#938F9E"/>
<path d="M1.84889 50.5266C1.73819 50.436 1.54699 50.2649 0.882812 47.5177L1.71807 47.3164C1.98978 48.4234 2.35206 49.7316 2.47282 49.9429C2.47282 49.9429 2.45268 49.9127 2.41243 49.8825L1.84889 50.5266Z" fill="#B7B3C4"/>
<path d="M3.13795 47.3352C3.02725 47.2446 2.83606 47.0736 2.17188 44.3263L3.00714 44.125C3.27885 45.232 3.64113 46.5503 3.76189 46.7515C3.76189 46.7515 3.74176 46.7213 3.70151 46.6912L3.13795 47.3352Z" fill="#B7B3C4"/>
<path d="M4.5989 43.6047C4.4882 43.5141 4.29699 43.3431 3.63281 40.5958L4.46807 40.3945C4.73978 41.5015 5.10206 42.8097 5.22282 43.021C5.22282 43.021 5.2027 42.9908 5.16245 42.9607L4.5989 43.6047Z" fill="#B7B3C4"/>
<path d="M5.93482 39.9094C5.82413 39.8189 5.63293 39.6478 4.96875 36.9005L5.80401 36.6992C6.07572 37.8062 6.438 39.1144 6.55876 39.3258C6.55876 39.3258 6.53864 39.2956 6.49838 39.2654L5.93482 39.9094Z" fill="#B7B3C4"/>
<path d="M7.40359 35.7532C7.29289 35.6626 7.10168 35.4915 6.4375 32.7442L7.27276 32.543C7.54447 33.6499 7.90675 34.9582 8.02751 35.1695C8.02751 35.1695 8.00739 35.1393 7.96713 35.1091L7.40359 35.7532Z" fill="#B7B3C4"/>
<path d="M8.927 31.175C8.81631 31.0845 8.62511 30.9134 7.96094 28.1661L8.79619 27.9648C9.0679 29.0718 9.43017 30.38 9.55093 30.5914C9.55093 30.5914 9.53081 30.5612 9.49056 30.531L8.927 31.175Z" fill="#B7B3C4"/>
<defs>
<linearGradient id="paint0_linear_87_10737" x1="12.1228" y1="35.2619" x2="1.75651" y2="35.2993" gradientUnits="userSpaceOnUse">
<stop stop-color="#BFAB8D"/>
<stop offset="0.5078" stop-color="#E7E1D2"/>
<stop offset="1" stop-color="#CCBFA6"/>
</linearGradient>
<linearGradient id="paint1_linear_87_10737" x1="22.1838" y1="11.5528" x2="-1.94826" y2="11.6399" gradientUnits="userSpaceOnUse">
<stop stop-color="#94938C"/>
<stop offset="0.2296" stop-color="#EDEBE1"/>
<stop offset="0.7988" stop-color="#EDEBE1"/>
<stop offset="1" stop-color="#94938C"/>
</linearGradient>
</defs>
</svg>
