<svg width="19" height="53" viewBox="0 0 19 53" fill="none" xmlns="http://www.w3.org/2000/svg">
<path d="M15.7204 21.0956C15.7204 21.0956 9.51133 46.586 4.2784 50.8428C-0.954544 55.0895 1.66193 46.5961 1.66193 46.5961C1.66193 46.5961 3.62428 30.9073 3.62428 27.9688C3.62428 25.0303 2.58776 19.5156 2.58776 19.5156C2.58776 19.5156 12.6612 21.6792 15.7204 21.0956Z" fill="url(#paint0_linear_87_10725)"/>
<path d="M16.0506 1.81459C16.0506 1.81459 19.3212 3.44485 18.335 8.02366C17.3589 12.6025 17.6809 15.219 17.6809 15.219C17.6809 15.219 17.0268 23.0583 11.4718 23.3904C5.91687 23.7225 2.32424 20.4519 1.99215 18.4895C1.67013 16.5272 1.67013 10.9722 1.33804 9.99608C1.01601 9.01994 0.0298045 2.80079 3.30039 1.82465C6.57098 0.848506 8.53332 0.516429 8.53332 0.516429C8.53332 0.516429 11.8039 -0.469784 16.0506 1.81459Z" fill="url(#paint1_linear_87_10725)"/>
<path d="M2.44411 51.9684C2.44411 51.9684 13.3025 24.8779 13.7352 22.0904C14.1578 19.3028 18.9178 5.49594 14.9428 4.711C10.9678 3.92606 8.52235 4.35877 6.15747 4.27827C3.80265 4.1877 2.74601 4.89213 3.00765 5.76764C3.2693 6.64315 3.00765 16.0826 4.05423 19.0513C5.10082 22.0199 3.50075 45.2864 2.79632 46.8563C0.924536 51.9483 1.47803 52.2301 2.44411 51.9684Z" fill="#FCF2D9"/>
<path d="M9.0327 7.64038C8.55972 8.375 7.75467 12.3802 7.56346 13.618C7.28169 15.3992 6.13447 26.2878 5.61118 29.9508C4.947 34.6705 4.66523 39.672 3.92055 44.4018C3.75953 45.4182 1.29401 52.7845 1.59591 52.5732C1.68647 52.5229 4.30294 47.0887 5.00737 43.8885C6.03383 39.2091 6.93953 34.4894 8.02637 29.8502C8.78112 26.6198 11.0152 17.4018 11.2668 15.7615C11.5284 14.091 12.3435 9.62286 12.1825 8.82786C11.9913 7.95235 11.4378 7.20767 11.0353 7.1976C10.4919 7.20767 9.49561 6.90575 9.0327 7.64038Z" fill="#D8D8D8"/>
<path d="M2.35089 52.4517L1.51562 52.2404C4.17235 42.0059 5.66174 34.0559 6.45674 29.1953L7.31213 29.3362C6.51713 34.2069 5.01768 42.1871 2.35089 52.4517Z" fill="#938F9E"/>
<path d="M2.81511 52.4897C2.69435 52.4192 2.47296 52.2784 1.40625 49.6619L2.20125 49.3398C2.63397 50.3864 3.18746 51.6343 3.33841 51.8255C3.33841 51.8255 3.31827 51.7953 3.27802 51.7752L2.81511 52.4897Z" fill="#B7B3C4"/>
<path d="M3.61981 49.1498C3.49905 49.0794 3.27765 48.9385 2.21094 46.322L3.00595 46C3.43867 47.0466 3.99215 48.2944 4.1431 48.4856C4.1431 48.4856 4.12297 48.4554 4.08272 48.4353L3.61981 49.1498Z" fill="#B7B3C4"/>
<path d="M4.4948 45.2357C4.37404 45.1653 4.15265 45.0244 3.08594 42.408L3.88093 42.0859C4.31366 43.1325 4.86715 44.3804 5.0181 44.5716C5.0181 44.5716 4.99797 44.5414 4.95772 44.5212L4.4948 45.2357Z" fill="#B7B3C4"/>
<path d="M5.26825 41.3803C5.14749 41.3099 4.92609 41.169 3.85938 38.5525L4.65439 38.2305C5.08711 39.2771 5.64058 40.5249 5.79153 40.7161C5.79153 40.7161 5.77141 40.6859 5.73116 40.6658L5.26825 41.3803Z" fill="#B7B3C4"/>
<path d="M6.09636 37.0443C5.9756 36.9739 5.75421 36.833 4.6875 34.2165L5.4825 33.8945C5.91522 34.9411 6.46871 36.189 6.61966 36.3802C6.61966 36.3802 6.59954 36.35 6.55928 36.3299L6.09636 37.0443Z" fill="#B7B3C4"/>
<path d="M6.90886 32.2944C6.7881 32.2239 6.56671 32.083 5.5 29.4666L6.295 29.1445C6.72772 30.1911 7.28121 31.439 7.43216 31.6302C7.43216 31.6302 7.41204 31.6 7.37178 31.5799L6.90886 32.2944Z" fill="#B7B3C4"/>
<defs>
<linearGradient id="paint0_linear_87_10725" x1="2.46488" y1="35.7731" x2="14.0215" y2="35.8149" gradientUnits="userSpaceOnUse">
<stop stop-color="#BFAB8D"/>
<stop offset="0.5078" stop-color="#E7E1D2"/>
<stop offset="1" stop-color="#CCBFA6"/>
</linearGradient>
<linearGradient id="paint1_linear_87_10725" x1="-2.33407" y1="11.809" x2="21.8327" y2="11.8963" gradientUnits="userSpaceOnUse">
<stop stop-color="#94938C"/>
<stop offset="0.2296" stop-color="#EDEBE1"/>
<stop offset="0.4283" stop-color="#EDEBE1"/>
<stop offset="0.7988" stop-color="#EDEBE1"/>
<stop offset="1" stop-color="#94938C"/>
</linearGradient>
</defs>
</svg>
