<svg width="19" height="67" viewBox="0 0 19 67" fill="none" xmlns="http://www.w3.org/2000/svg">
<path d="M15.981 26.9363C14.079 26.9263 12.1368 26.7552 10.2348 26.5942C7.93033 26.413 4.7 26.5237 2.59677 25.4268C2.40556 25.3262 2.34519 24.984 2.16405 24.8633C1.76152 26.2118 2.10366 28.3754 2.18417 29.7541C2.41562 33.6989 2.5867 37.6639 2.54645 41.6187C2.52632 43.8025 2.40557 45.9661 2.2043 48.1498C1.93259 51.1487 0.916189 54.0872 0.644479 57.1163C0.453276 59.2397 0.483466 61.4033 0.896063 63.5065C1.02689 64.1707 1.21809 65.8814 1.7917 66.0324C2.54645 66.2437 3.68361 65.0764 4.06602 64.5632C5.32394 62.8725 5.64596 60.5781 6.29001 58.6157C7.00451 56.4219 7.84983 54.2684 8.71528 52.1249C10.3959 47.9385 12.1569 43.7723 13.2337 39.3847C13.8677 36.8185 14.1495 34.192 14.7331 31.6258C15.1156 30.0459 15.5382 28.4861 15.981 26.9363Z" fill="url(#paint0_linear_87_10715)"/>
<path d="M18.1727 8.17994C18.1727 8.17994 19.1489 2.94699 16.8645 1.31673C14.5801 -0.313528 13.5939 0.340588 13.5939 0.340588C12.648 0.602235 11.6919 0.843751 10.746 1.07521C9.17611 1.45761 7.48546 2.0111 5.8552 1.96079C5.53318 1.95072 5.20109 1.92054 4.87906 1.95073C2.45379 2.19225 2.06132 4.77852 1.69904 6.66036C1.23613 9.08563 0.90404 11.5411 0.712837 14.0066C0.551823 16.0394 0.471309 18.0923 0.642386 20.1251C0.763146 21.5944 0.974479 23.285 1.83993 24.5329C3.04753 26.2738 5.26146 27.0688 7.24393 27.5217C9.75977 28.1053 12.4064 28.2362 14.9726 28.1255C16.3714 28.0651 16.7639 24.9455 16.8343 23.9592C17.257 18.7062 17.6997 13.4431 18.1727 8.17994Z" fill="url(#paint1_linear_87_10715)"/>
<path d="M16.6327 6.66089C16.6327 6.66089 16.8541 3.85322 14.0866 4.11487C11.3192 4.37652 7.63603 5.56399 7.02216 5.60424C6.4083 5.64449 4.86862 4.50735 3.95286 5.69482C3.02703 6.8823 2.11127 12.6184 2.0207 14.2889C1.93012 15.9594 1.66846 23.6277 2.46347 24.7246C3.25847 25.8215 2.80563 26.7876 2.80563 26.7876C2.80563 26.7876 2.68487 30.3802 2.90626 31.9098C3.12765 33.4394 3.34905 43.9254 3.34905 44.5796C3.34905 45.2337 2.64461 50.4565 2.51379 51.4226C2.38297 52.3887 1.5477 54.8442 1.45713 55.4983C1.36656 56.1524 0.974098 60.0167 1.36657 61.1941C1.75904 62.3816 1.27601 65.3604 1.94019 66.105C2.5943 66.8497 4.13399 63.6496 4.35538 62.9451C4.57678 62.2407 7.38446 53.385 7.6461 52.6805C7.90775 51.9761 12.5973 38.8636 13.1709 35.7137C13.7445 32.5639 15.0125 26.4152 15.0125 26.4152C15.0125 26.4152 16.8943 7.40558 16.6327 6.66089Z" fill="#FCF2D9"/>
<path d="M9.23453 11.2311C8.77161 12.157 7.99674 17.0779 7.80553 18.5975C7.53382 20.7812 6.4671 34.0749 5.974 38.5631C5.34001 44.3395 5.10854 50.4379 4.39405 56.2243C4.2431 57.4722 1.81784 66.5895 2.11974 66.3178C2.21031 66.2474 4.79658 59.4647 5.48089 55.5199C6.47716 49.7636 7.35268 43.9772 8.39927 38.2512C9.13389 34.2661 11.2975 22.9147 11.5491 20.9121C11.8007 18.8692 12.5856 13.3746 12.4145 12.4387C12.2233 11.3921 11.6598 10.5267 11.2472 10.5569C10.7038 10.5871 9.7075 10.3053 9.23453 11.2311Z" fill="#D8D8D8"/>
<path d="M2.63993 64.8384L1.80469 64.6271C4.46142 54.3927 5.95078 46.4426 6.74579 41.582L7.60118 41.7229C6.80618 46.5936 5.29666 54.5738 2.63993 64.8384Z" fill="#938F9E"/>
<path d="M3.10417 64.8764C2.98341 64.8059 2.76203 64.6651 1.69531 62.0486L2.49031 61.7266C2.92303 62.7731 3.47652 64.021 3.62747 64.2122C3.62747 64.2122 3.60735 64.182 3.56709 64.1619L3.10417 64.8764Z" fill="#B7B3C4"/>
<path d="M3.90888 61.5287C3.78812 61.4583 3.56671 61.3174 2.5 58.7009L3.29501 58.3789C3.72774 59.4255 4.28122 60.6733 4.43217 60.8645C4.43217 60.8645 4.41204 60.8343 4.37178 60.8142L3.90888 61.5287Z" fill="#B7B3C4"/>
<path d="M4.78386 57.6225C4.6631 57.5521 4.44171 57.4112 3.375 54.7947L4.17 54.4727C4.60272 55.5192 5.15621 56.7671 5.30716 56.9583C5.30716 56.9583 5.28704 56.9281 5.24678 56.908L4.78386 57.6225Z" fill="#B7B3C4"/>
<path d="M5.5573 53.767C5.43654 53.6966 5.21514 53.5557 4.14844 50.9392L4.94344 50.6172C5.37616 51.6638 5.92965 52.9116 6.0806 53.1028C6.0806 53.1028 6.06046 53.0726 6.0202 53.0525L5.5573 53.767Z" fill="#B7B3C4"/>
<path d="M6.38544 49.4311C6.26467 49.3606 6.04328 49.2198 4.97656 46.6033L5.77157 46.2812C6.20429 47.3278 6.75779 48.5757 6.90874 48.7669C6.90874 48.7669 6.88861 48.7367 6.84836 48.7166L6.38544 49.4311Z" fill="#B7B3C4"/>
<path d="M7.19793 44.6811C7.07717 44.6106 6.85577 44.4697 5.78906 41.8533L6.58407 41.5312C7.01679 42.5778 7.57026 43.8257 7.72121 44.0169C7.72121 44.0169 7.70108 43.9867 7.66083 43.9666L7.19793 44.6811Z" fill="#B7B3C4"/>
<defs>
<linearGradient id="paint0_linear_87_10715" x1="11.3572" y1="45.4192" x2="2.27546" y2="45.4558" gradientUnits="userSpaceOnUse">
<stop stop-color="#BFAB8D"/>
<stop offset="0.5078" stop-color="#E7E1D2"/>
<stop offset="1" stop-color="#CCBFA6"/>
</linearGradient>
<linearGradient id="paint1_linear_87_10715" x1="22.8483" y1="14.154" x2="-3.47941" y2="14.2601" gradientUnits="userSpaceOnUse">
<stop stop-color="#94938C"/>
<stop offset="0.2296" stop-color="#EDEBE1"/>
<stop offset="0.7988" stop-color="#EDEBE1"/>
<stop offset="1" stop-color="#94938C"/>
</linearGradient>
</defs>
</svg>
