<svg width="18" height="65" viewBox="0 0 18 65" fill="none" xmlns="http://www.w3.org/2000/svg">
<path d="M14.7154 23.6016C14.7154 23.6016 6.54394 27.5263 4.25956 24.2557C4.35013 27.4659 4.40045 30.6761 4.45077 33.8964C4.53127 40.0048 4.56145 46.1233 4.38031 52.2318C4.31993 54.3752 4.26963 56.5288 4.0583 58.6622C3.95766 59.7491 3.80672 60.8359 3.60545 61.9127C3.51488 62.4058 3.22303 62.9895 3.45449 63.4423C3.75639 64.0461 4.5514 64.1769 5.09482 63.9052C5.86969 63.5228 6.38293 62.5869 6.76533 61.8624C7.69116 60.1214 8.29496 58.1892 8.82832 56.2973C12.109 44.8453 14.2122 27.1137 14.7154 23.6016Z" fill="url(#paint0_linear_87_10704)"/>
<path d="M15.9695 1.15898C15.1946 0.766513 13.9971 1.00803 13.1417 0.997966C11.5718 0.987903 10.002 0.987912 8.43207 1.03823C6.68105 1.08855 4.23564 0.887267 2.61545 1.7024C1.05563 2.47727 0.894618 4.42957 0.934871 5.9592C1.12607 11.9972 1.50849 18.3472 3.94382 23.9625C4.65831 25.6028 5.65458 27.2633 7.2144 28.2293C9.6296 29.7288 12.387 28.8633 13.7656 26.4582C14.8625 24.5361 15.2953 22.3222 15.5267 20.1485C15.6978 18.5082 15.5871 16.8477 15.7079 15.1973C15.8286 13.4564 16.3419 11.7758 16.6236 10.055C17.0664 7.33787 17.5998 4.51008 16.5934 1.85336C16.4626 1.52127 16.2513 1.29987 15.9695 1.15898Z" fill="url(#paint1_linear_87_10704)"/>
<path d="M14.68 5.81858C15.1631 6.68403 14.67 8.40486 14.6197 9.34075C14.4888 11.6251 14.4989 13.8994 14.4989 16.1838C14.4989 18.1059 13.563 25.5427 13.5429 25.7138C13.5228 25.8849 11.3491 38.9471 11.3491 38.9471C11.3491 38.9471 6.78033 62.1028 5.18025 63.8136C3.58018 65.5143 5.04944 59.4863 5.31108 58.6612C5.57273 57.836 6.53881 30.8159 6.1564 28.8133C5.77399 26.8107 3.22797 20.2897 2.82544 14.6542C2.4229 9.01872 2.91601 5.69781 4.11354 5.25502C4.88842 4.97325 5.85451 5.00345 6.66964 4.96319C8.02819 4.90281 9.3968 4.89275 10.7554 4.96319C11.8321 5.01351 13.8549 4.72168 14.6096 5.70789C14.6297 5.74814 14.6599 5.77833 14.68 5.81858Z" fill="#FCF2D9"/>
<path d="M8.66171 8.78548C8.24911 9.7415 7.76607 14.6927 7.65537 16.2223C7.51449 18.4161 7.22265 31.7601 6.99119 36.2684C6.69935 42.0649 6.82011 48.1734 6.4377 53.99C6.3572 55.2479 4.46529 64.4961 4.75713 64.1942C4.8477 64.1238 7.03144 57.1901 7.47423 53.2151C8.12834 47.4086 8.67177 41.5819 9.38627 35.8055C9.87937 31.7903 11.3889 20.3281 11.5197 18.3155C11.6505 16.2625 12.1134 10.7277 11.882 9.80187C11.6304 8.76535 11.0165 7.94015 10.6039 7.99047C10.0907 8.06091 9.0743 7.82946 8.66171 8.78548Z" fill="#D8D8D8"/>
<path d="M5.24149 64.0923L4.40625 63.901C7.06296 52.3383 8.55232 43.3618 9.34733 37.8672L10.2027 37.9879C9.39765 43.5027 7.89821 52.4993 5.24149 64.0923Z" fill="#938F9E"/>
<path d="M5.68786 64.1125C5.5671 64.032 5.35577 63.881 4.28906 60.9325L5.10419 60.6406C5.53691 61.8382 6.10045 63.2571 6.2514 63.4583C6.2514 63.4583 6.23128 63.4281 6.19103 63.398L5.68786 64.1125Z" fill="#B7B3C4"/>
<path d="M6.48474 60.3312C6.36398 60.2507 6.15265 60.0998 5.08594 57.1512L5.90106 56.8594C6.33378 58.0569 6.89733 59.4759 7.04828 59.6771C7.04828 59.6771 7.02815 59.6469 6.9879 59.6167L6.48474 60.3312Z" fill="#B7B3C4"/>
<path d="M7.36756 55.9132C7.2468 55.8327 7.03547 55.6818 5.96875 52.7332L6.78388 52.4414C7.21661 53.6389 7.78017 55.0579 7.93112 55.2591C7.93112 55.2591 7.91098 55.2289 7.87073 55.1988L7.36756 55.9132Z" fill="#B7B3C4"/>
<path d="M8.141 51.5539C8.02024 51.4734 7.80891 51.3224 6.74219 48.3739L7.55732 48.082C7.99004 49.2796 8.55359 50.6985 8.70454 50.8998C8.70454 50.8998 8.68442 50.8696 8.64417 50.8394L8.141 51.5539Z" fill="#B7B3C4"/>
<path d="M8.96911 46.6632C8.84835 46.5827 8.63702 46.4318 7.57031 43.4832L8.38544 43.1914C8.81816 44.3889 9.3817 45.8078 9.53265 46.0091C9.53265 46.0091 9.51253 45.9789 9.47228 45.9487L8.96911 46.6632Z" fill="#B7B3C4"/>
<path d="M9.78162 41.3C9.66086 41.2195 9.44953 41.0685 8.38281 38.12L9.19794 37.8281C9.63067 39.0257 10.1942 40.4446 10.3452 40.6459C10.3452 40.6459 10.325 40.6157 10.2848 40.5855L9.78162 41.3Z" fill="#B7B3C4"/>
<defs>
<linearGradient id="paint0_linear_87_10704" x1="2.08075" y1="43.787" x2="11.3139" y2="43.8204" gradientUnits="userSpaceOnUse">
<stop stop-color="#BFAB8D"/>
<stop offset="0.5078" stop-color="#E7E1D2"/>
<stop offset="1" stop-color="#CCBFA6"/>
</linearGradient>
<linearGradient id="paint1_linear_87_10704" x1="-1.77418" y1="14.9015" x2="20.4189" y2="14.9816" gradientUnits="userSpaceOnUse">
<stop stop-color="#94938C"/>
<stop offset="0.2296" stop-color="#EDEBE1"/>
<stop offset="0.7988" stop-color="#EDEBE1"/>
<stop offset="1" stop-color="#94938C"/>
</linearGradient>
</defs>
</svg>
