<svg width="17" height="67" viewBox="0 0 17 67" fill="none" xmlns="http://www.w3.org/2000/svg">
<path d="M3.53323 25.2109C3.53323 32.7484 1.99353 40.2254 1.65137 47.7528C1.51049 50.8221 1.26897 53.8914 1.31928 56.9608C1.34947 59.3961 1.16833 63.4617 2.6879 65.5348C3.33195 66.4103 5.23393 62.5057 5.41507 62.1333C6.55223 59.7886 7.26672 57.2929 8.14223 54.8475C9.10831 52.1505 10.1046 49.4334 10.8996 46.676C11.9562 42.9929 12.5701 39.1587 13.2444 35.395C13.355 34.8013 14.2708 27.2236 14.6532 27.1733C14.6432 27.1733 5.49558 28.4815 3.53323 25.2109Z" fill="url(#paint0_linear_87_10692)"/>
<path d="M16.145 1.1802C15.994 1.04938 15.7324 1.01919 15.2493 0.978935C14.5046 0.918555 13.7298 0.968877 12.9851 0.968877C9.94595 0.978941 6.90681 1.03931 3.86768 1.03931C3.86768 1.03931 0.929194 1.69343 1.25122 3.3237C1.57325 4.95396 2.55946 25.2215 3.5356 26.5298C4.51175 27.838 6.80619 32.0847 11.707 30.7765C16.6079 29.4683 15.6317 18.0262 15.6317 18.0262C15.5009 15.9532 16.0242 13.6587 16.1651 11.5857C16.3764 8.50631 16.5576 5.4068 16.3764 2.32742C16.3362 1.65318 16.3261 1.34121 16.145 1.1802Z" fill="url(#paint1_linear_87_10692)"/>
<path d="M14.7776 4.66048C14.7373 4.61016 14.687 4.55985 14.6367 4.51959C14.4254 4.36864 14.1335 4.36864 13.8719 4.37871C12.4328 4.41896 10.9837 4.45921 9.54465 4.49946C8.25655 4.52965 6.44514 4.24787 5.21742 4.62022C4.33184 4.88186 4.68405 4.47934 4.33184 5.21397C4.09032 5.71713 4.33184 6.95491 4.33184 7.52852C4.33184 9.77265 4.3117 12.0067 4.48278 14.2408C4.97588 20.5404 4.70418 27.0615 4.19095 33.4215C3.67772 39.7212 2.50031 46.1114 2.45 52.4412C2.41981 56.4162 0.910305 61.9712 2.87266 65.6645C4.70418 64.6883 5.3583 60.673 5.72058 58.8013C6.21369 56.2351 6.40488 53.6287 6.93824 51.0726C8.27666 44.7126 9.81635 38.4029 11.5472 32.1435C13.892 23.6601 14.6468 14.442 14.9688 5.64668C14.9789 5.29447 14.9688 4.91206 14.7776 4.66048Z" fill="#FCF2D9"/>
<path d="M11.2674 9.76521C11.4788 10.7816 10.9756 15.7328 10.7743 17.2523C10.4825 19.4361 8.10754 32.5587 7.44336 37.0268C6.57792 42.773 5.72253 48.5191 4.93759 54.3055C4.76651 55.5534 3.42809 66.0495 3.19663 65.6973C3.12619 65.6067 3.08594 65.6771 3.08594 65.4457C3.08594 61.7122 3.44821 57.5057 3.80043 53.5105C4.31366 47.6839 4.72625 41.8974 5.16904 36.101C5.481 32.0656 6.28608 20.533 6.55779 18.5404C6.83956 16.4976 7.48361 10.9929 7.89621 10.1275C8.34906 9.16141 9.11387 8.46705 9.50634 8.59787C10.0095 8.76895 11.046 8.74881 11.2674 9.76521Z" fill="#D8D8D8"/>
<path d="M2.62657 66.9441L1.78125 66.773C2.86809 61.3287 4.44803 52.3724 5.80658 40.5781L6.66197 40.6787C5.30342 52.5032 3.72347 61.4897 2.62657 66.9441Z" fill="#938F9E"/>
<path d="M5.37511 43.8974L4.71094 43.354C6.69341 40.9388 6.945 40.8684 7.08588 40.8281L7.31733 41.6533C7.36765 41.6433 7.38778 41.6231 7.39784 41.6231C7.18651 41.7539 6.18017 42.9112 5.37511 43.8974Z" fill="#B7B3C4"/>
<path d="M4.87511 47.7334L4.21094 47.1899C6.19342 44.7748 6.44501 44.7043 6.5859 44.6641L6.81735 45.4892C6.86767 45.4792 6.88779 45.4591 6.89786 45.4591C6.68653 45.5899 5.68018 46.7472 4.87511 47.7334Z" fill="#B7B3C4"/>
<path d="M4.22667 52.1826L3.5625 51.6392C5.54499 49.224 5.79657 49.1535 5.93746 49.1133L6.16891 49.9385C6.21923 49.9284 6.23936 49.9083 6.24942 49.9083C6.03809 50.0492 5.03174 51.1964 4.22667 52.1826Z" fill="#B7B3C4"/>
<path d="M3.50793 56.5498L2.84375 56.0064C4.82622 53.5912 5.07781 53.5207 5.21869 53.4805L5.45015 54.3057C5.50046 54.2956 5.52059 54.2755 5.53066 54.2755C5.31933 54.4063 4.313 55.5636 3.50793 56.5498Z" fill="#B7B3C4"/>
<path d="M2.64856 61.4404L1.98438 60.897C3.96685 58.4818 4.21843 58.4113 4.35932 58.3711L4.59077 59.1963C4.64109 59.1862 4.66122 59.1661 4.67128 59.1661C4.45995 59.2969 3.46369 60.4542 2.64856 61.4404Z" fill="#B7B3C4"/>
<path d="M1.63294 66.7646L0.96875 66.2212C2.95124 63.806 3.20282 63.7356 3.34371 63.6953L3.57516 64.5205C3.62548 64.5105 3.64561 64.4903 3.65567 64.4903C3.44434 64.6312 2.43801 65.7784 1.63294 66.7646Z" fill="#B7B3C4"/>
<defs>
<linearGradient id="paint0_linear_87_10692" x1="13.5654" y1="45.4061" x2="-2.73997" y2="45.4649" gradientUnits="userSpaceOnUse">
<stop stop-color="#BFAB8D"/>
<stop offset="0.5078" stop-color="#E7E1D2"/>
<stop offset="1" stop-color="#CCBFA6"/>
</linearGradient>
<linearGradient id="paint1_linear_87_10692" x1="18.701" y1="15.9562" x2="-0.842155" y2="16.0268" gradientUnits="userSpaceOnUse">
<stop stop-color="#94938C"/>
<stop offset="0.2296" stop-color="#EDEBE1"/>
<stop offset="0.7988" stop-color="#EDEBE1"/>
<stop offset="1" stop-color="#94938C"/>
</linearGradient>
</defs>
</svg>
