<svg width="16" height="66" viewBox="0 0 16 66" fill="none" xmlns="http://www.w3.org/2000/svg">
<path d="M13.2294 25.2109C13.2294 32.7484 14.7691 40.2254 15.1112 47.7528C15.2521 50.8221 15.4936 53.8914 15.4433 56.9608C15.4131 59.3961 15.5943 63.4617 14.0747 65.5348C13.4306 66.4103 11.5287 62.5057 11.3475 62.1333C10.2104 59.7886 9.49587 57.2929 8.62036 54.8475C7.65428 52.1505 6.658 49.4334 5.863 46.676C4.80635 42.9929 4.19248 39.1587 3.51824 35.395C3.40754 34.8013 2.49178 27.2236 2.10938 27.1733C2.1295 27.1733 11.2771 28.4815 13.2294 25.2109Z" fill="url(#paint0_linear_87_10686)"/>
<path d="M0.633871 1.1802C0.784821 1.04938 1.04647 1.01919 1.52951 0.978935C2.2742 0.918555 3.04907 0.968877 3.79376 0.968877C6.83289 0.978941 9.87202 1.03931 12.9112 1.03931C12.9112 1.03931 15.8497 1.69343 15.5276 3.3237C15.2056 4.95396 14.2194 25.2215 13.2432 26.5298C12.2671 27.838 9.97266 32.0847 5.07181 30.7765C0.17096 29.4683 1.1471 18.0262 1.1471 18.0262C1.27792 15.9532 0.754627 13.6587 0.61374 11.5857C0.402409 8.50631 0.221278 5.4068 0.402418 2.32742C0.432608 1.65318 0.45273 1.34121 0.633871 1.1802Z" fill="url(#paint1_linear_87_10686)"/>
<path d="M1.99589 4.66048C2.03615 4.61016 2.08646 4.55985 2.13678 4.51959C2.34811 4.36864 2.63994 4.36864 2.90159 4.37871C4.34064 4.41896 5.78977 4.45921 7.22882 4.49946C8.51693 4.52965 10.3283 4.24787 11.5561 4.62022C12.4416 4.88186 12.0894 4.47934 12.4416 5.21397C12.6831 5.71713 12.4416 6.95491 12.4416 7.52852C12.4416 9.77265 12.4618 12.0067 12.2907 14.2408C11.7976 20.5404 12.0693 27.0615 12.5825 33.4215C13.0957 39.7212 14.2731 46.1114 14.3235 52.4412C14.3537 56.4162 15.8632 61.9712 13.9008 65.6645C12.0693 64.6883 11.4152 60.673 11.0529 58.8013C10.5598 56.2351 10.3686 53.6287 9.83522 51.0726C8.4968 44.7126 6.95711 38.4029 5.22621 32.1435C2.88146 23.6601 2.12671 14.442 1.80469 5.64668C1.80469 5.29447 1.81475 4.91206 1.99589 4.66048Z" fill="#FCF2D9"/>
<path d="M5.37115 9.76521C5.15982 10.7816 5.66297 15.7328 5.86424 17.2523C6.15608 19.4361 8.53102 32.5587 9.1952 37.0268C10.0606 42.773 10.916 48.5191 11.701 54.3055C11.8721 55.5534 13.2105 66.0495 13.4419 65.6973C13.5124 65.6067 13.5526 65.6771 13.5526 65.4457C13.5526 61.7122 13.1904 57.5057 12.8381 53.5105C12.3249 47.6839 11.9123 41.8974 11.4695 36.101C11.1576 32.0656 10.3525 20.533 10.0808 18.5404C9.79901 16.4976 9.15495 10.9929 8.74235 10.1275C8.2895 9.16141 7.5247 8.46705 7.13223 8.59787C6.62906 8.76895 5.59254 8.74881 5.37115 9.76521Z" fill="#D8D8D8"/>
<path d="M14.123 65.2251C11.4663 53.6321 9.96688 44.6355 9.17188 39.1208L10.0273 39C10.8122 44.4946 12.3116 53.4711 14.9684 65.0339L14.123 65.2251Z" fill="#938F9E"/>
<path d="M13.6885 65.243L13.1854 64.5386C13.1451 64.5688 13.125 64.5889 13.125 64.599C13.2759 64.3977 13.8395 62.9788 14.2722 61.7812L15.0873 62.0731C14.0206 65.0015 13.7992 65.1525 13.6885 65.243Z" fill="#B7B3C4"/>
<path d="M12.8839 61.4618L12.3807 60.7574C12.3404 60.7876 12.3203 60.8077 12.3203 60.8178C12.4713 60.6165 13.0348 59.1975 13.4675 58L14.2827 58.2918C13.216 61.2203 12.9946 61.3712 12.8839 61.4618Z" fill="#B7B3C4"/>
<path d="M12.0089 57.0438L11.5057 56.3394C11.4654 56.3696 11.4453 56.3897 11.4453 56.3998C11.5963 56.1985 12.1598 54.7796 12.5925 53.582L13.4077 53.8739C12.341 56.8124 12.1196 56.9633 12.0089 57.0438Z" fill="#B7B3C4"/>
<path d="M11.2354 52.6962L10.7323 51.9917C10.692 52.0219 10.6719 52.0421 10.6719 52.0521C10.8228 51.8509 11.3864 50.4319 11.8191 49.2344L12.6342 49.5262C11.5675 52.4546 11.3461 52.6056 11.2354 52.6962Z" fill="#B7B3C4"/>
<path d="M10.4073 47.7938L9.90414 47.0894C9.86389 47.1196 9.84375 47.1397 9.84375 47.1498C9.9947 46.9485 10.5582 45.5296 10.991 44.332L11.8061 44.6239C10.7293 47.5624 10.518 47.7133 10.4073 47.7938Z" fill="#B7B3C4"/>
<path d="M9.5948 42.4305L9.09163 41.7261C9.05137 41.7563 9.03125 41.7764 9.03125 41.7865C9.1822 41.5852 9.74575 40.1663 10.1785 38.9688L10.9936 39.2606C9.92689 42.189 9.70549 42.35 9.5948 42.4305Z" fill="#B7B3C4"/>
<defs>
<linearGradient id="paint0_linear_87_10686" x1="3.20205" y1="45.4061" x2="19.5074" y2="45.4649" gradientUnits="userSpaceOnUse">
<stop stop-color="#BFAB8D"/>
<stop offset="0.5078" stop-color="#E7E1D2"/>
<stop offset="1" stop-color="#CCBFA6"/>
</linearGradient>
<linearGradient id="paint1_linear_87_10686" x1="-1.92735" y1="15.9562" x2="17.6158" y2="16.0268" gradientUnits="userSpaceOnUse">
<stop stop-color="#94938C"/>
<stop offset="0.2296" stop-color="#EDEBE1"/>
<stop offset="0.7988" stop-color="#EDEBE1"/>
<stop offset="1" stop-color="#94938C"/>
</linearGradient>
</defs>
</svg>
