<svg width="18" height="65" viewBox="0 0 18 65" fill="none" xmlns="http://www.w3.org/2000/svg">
<path d="M3.34375 23.5508C3.34375 23.5508 11.5152 27.4755 13.7996 24.2049C13.709 27.4151 13.6587 30.6253 13.6084 33.8456C13.5279 39.954 13.4977 46.0725 13.6788 52.181C13.7392 54.3245 13.7895 56.478 14.0008 58.6115C14.1014 59.6983 14.2524 60.7851 14.4537 61.8619C14.5442 62.355 14.8361 62.9387 14.6046 63.3915C14.3027 63.9953 13.5077 64.1262 12.9643 63.8544C12.1894 63.472 11.6762 62.5362 11.2938 61.8116C10.3679 60.0706 9.76416 58.1385 9.2308 56.2466C5.96022 44.8046 3.84692 27.0729 3.34375 23.5508Z" fill="url(#paint0_linear_87_10698)"/>
<path d="M2.08851 1.11991C2.86338 0.727444 4.06092 0.968976 4.9163 0.958913C6.48618 0.948849 8.05609 0.948843 9.62597 0.999159C11.377 1.04948 13.8224 0.848213 15.4426 1.66334C17.0024 2.43822 17.1634 4.3905 17.1231 5.92013C16.9319 11.9581 16.5495 18.3081 14.1142 23.9234C13.3997 25.5638 12.4034 27.2242 10.8436 28.1903C8.42842 29.6897 5.67106 28.8243 4.29238 26.4191C3.19548 24.497 2.76275 22.2831 2.5313 20.1094C2.36022 18.4691 2.46086 16.8087 2.35016 15.1583C2.2294 13.4173 1.71617 11.7367 1.4344 10.0159C0.991608 7.29882 0.45825 4.47101 1.46458 1.81429C1.59541 1.4822 1.8168 1.2608 2.08851 1.11991Z" fill="url(#paint1_linear_87_10698)"/>
<path d="M3.39005 5.7678C2.90701 6.63325 3.40011 8.35408 3.45043 9.28997C3.58125 11.5744 3.57118 13.8487 3.57118 16.133C3.57118 18.0551 4.50709 25.4919 4.52721 25.663C4.54734 25.8341 6.72101 38.8963 6.72101 38.8963C6.72101 38.8963 11.2898 62.0521 12.8898 63.7628C14.4899 65.4636 13.0207 59.4356 12.759 58.6104C12.4974 57.7752 11.5313 30.7651 11.9137 28.7625C12.2961 26.7599 14.8421 20.2389 15.2447 14.6034C15.6472 8.96794 15.1541 5.64704 13.9566 5.20426C13.1817 4.92248 12.2156 4.95267 11.4005 4.91241C10.0419 4.85203 8.6733 4.84197 7.31475 4.91241C6.23797 4.96273 4.21525 4.6709 3.4605 5.65711C3.43031 5.69736 3.41018 5.73761 3.39005 5.7678Z" fill="#FCF2D9"/>
<path d="M9.47936 8.78548C9.89195 9.7415 10.375 14.6927 10.4857 16.2223C10.6266 18.4161 10.9184 31.7601 11.1499 36.2684C11.4417 42.0649 11.321 48.1734 11.7034 53.99C11.7839 55.2479 13.6758 64.4961 13.3839 64.1942C13.2934 64.1238 11.1096 57.1901 10.6668 53.2151C10.0127 47.4086 9.46929 41.5819 8.7548 35.8055C8.26169 31.7903 6.7522 20.3281 6.62138 18.3155C6.49056 16.2625 6.02766 10.7277 6.25912 9.80187C6.5107 8.76535 7.12455 7.94015 7.53715 7.99047C8.06044 8.06091 9.06676 7.82946 9.47936 8.78548Z" fill="#D8D8D8"/>
<path d="M14.0527 64.9594C11.396 53.3665 9.89656 44.3698 9.10156 38.8551L9.95695 38.7344C10.7419 44.229 12.2413 53.2055 14.898 64.7682L14.0527 64.9594Z" fill="#938F9E"/>
<path d="M13.6104 64.9696L13.1073 64.2652C13.067 64.2954 13.0469 64.3155 13.0469 64.3256C13.1978 64.1243 13.7613 62.7053 14.1941 61.5078L15.0092 61.7997C13.9425 64.7381 13.7211 64.8891 13.6104 64.9696Z" fill="#B7B3C4"/>
<path d="M12.8057 61.1884L12.3026 60.4839C12.2623 60.5141 12.2422 60.5342 12.2422 60.5443C12.3931 60.343 12.9567 58.9241 13.3894 57.7266L14.2045 58.0184C13.1378 60.9569 12.9265 61.1078 12.8057 61.1884Z" fill="#B7B3C4"/>
<path d="M11.9307 56.7782L11.4276 56.0738C11.3873 56.1039 11.3672 56.1241 11.3672 56.1341C11.5181 55.9329 12.0817 54.5139 12.5144 53.3164L13.3296 53.6083C12.2628 56.5367 12.0414 56.6876 11.9307 56.7782Z" fill="#B7B3C4"/>
<path d="M11.1573 52.4227L10.6541 51.7183C10.6139 51.7485 10.5938 51.7686 10.5938 51.7787C10.7447 51.5774 11.3082 50.1585 11.7409 48.9609L12.5561 49.2528C11.4894 52.1912 11.268 52.3422 11.1573 52.4227Z" fill="#B7B3C4"/>
<path d="M10.3292 47.5321L9.826 46.8277C9.78575 46.8579 9.76562 46.878 9.76562 46.8881C9.91658 46.6868 10.4801 45.2679 10.9129 44.0703L11.728 44.3621C10.6613 47.2906 10.4399 47.4415 10.3292 47.5321Z" fill="#B7B3C4"/>
<path d="M9.51667 42.1571L9.0135 41.4527C8.97325 41.4828 8.95312 41.503 8.95312 41.513C9.10408 41.3118 9.66764 39.8929 10.1004 38.6953L10.9155 38.9871C9.84878 41.9256 9.63743 42.0766 9.51667 42.1571Z" fill="#B7B3C4"/>
<defs>
<linearGradient id="paint0_linear_87_10698" x1="15.9833" y1="43.7412" x2="6.75019" y2="43.7746" gradientUnits="userSpaceOnUse">
<stop stop-color="#BFAB8D"/>
<stop offset="0.5078" stop-color="#E7E1D2"/>
<stop offset="1" stop-color="#CCBFA6"/>
</linearGradient>
<linearGradient id="paint1_linear_87_10698" x1="19.8371" y1="14.8573" x2="-2.35596" y2="14.9375" gradientUnits="userSpaceOnUse">
<stop stop-color="#94938C"/>
<stop offset="0.2296" stop-color="#EDEBE1"/>
<stop offset="0.7988" stop-color="#EDEBE1"/>
<stop offset="1" stop-color="#94938C"/>
</linearGradient>
</defs>
</svg>
