<svg width="19" height="68" viewBox="0 0 19 68" fill="none" xmlns="http://www.w3.org/2000/svg">
<path d="M3.24219 26.9793C5.14416 26.9692 7.08638 26.7982 8.98835 26.6371C11.2929 26.456 14.5232 26.5667 16.6264 25.4698C16.8176 25.3692 16.878 25.027 17.0592 24.9062C17.4617 26.2547 17.1195 28.4184 17.039 29.797C16.8076 33.7419 16.6365 37.7068 16.6768 41.6617C16.6969 43.8454 16.8177 46.0091 17.0189 48.1928C17.2906 51.1917 18.307 54.1302 18.5787 57.1592C18.7699 59.2826 18.7397 61.4462 18.3271 63.5495C18.1963 64.2136 18.0051 65.9244 17.4315 66.0754C16.6768 66.2867 15.5396 65.1194 15.1572 64.6061C13.8993 62.9155 13.5773 60.621 12.9332 58.6587C12.2187 56.4649 11.3734 54.3113 10.5079 52.1678C8.82735 47.9815 7.06627 43.8153 5.98949 39.4276C5.3555 36.8615 5.07371 34.235 4.49003 31.6688C4.11769 30.0989 3.68498 28.5391 3.24219 26.9793Z" fill="url(#paint0_linear_87_10710)"/>
<path d="M1.05103 8.2307C1.05103 8.2307 0.074877 2.99777 2.35926 1.36751C4.64363 -0.262746 5.62984 0.391369 5.62984 0.391369C6.5758 0.653016 7.53183 0.894532 8.47778 1.12599C10.0477 1.5084 11.7383 2.06188 13.3686 2.01157C13.6906 2.0015 14.0227 1.9713 14.3447 2.00149C16.77 2.24301 17.1624 4.8293 17.5247 6.71114C17.9876 9.13641 18.3197 11.5919 18.5109 14.0574C18.672 16.0902 18.7524 18.1431 18.5814 20.1759C18.4606 21.6451 18.2493 23.3358 17.3838 24.5836C16.1762 26.3246 13.9623 27.1196 11.9798 27.5724C9.46397 28.1561 6.81732 28.2869 4.25117 28.1762C2.85236 28.1159 2.45989 24.9962 2.38944 24.01C1.96678 18.7469 1.52401 13.4938 1.05103 8.2307Z" fill="url(#paint1_linear_87_10710)"/>
<path d="M2.58746 6.69996C2.58746 6.69996 2.36606 3.89229 5.13348 4.15393C7.9009 4.41558 11.5841 5.60305 12.1979 5.6433C12.8118 5.68356 14.3515 4.54639 15.2673 5.73387C16.183 6.92134 17.1088 12.6574 17.1994 14.328C17.29 15.9985 17.5516 23.6667 16.7566 24.7636C15.9717 25.8606 16.4145 26.8266 16.4145 26.8266C16.4145 26.8266 16.5352 30.4192 16.3138 31.9489C16.0924 33.4886 15.871 43.9645 15.871 44.6186C15.871 45.2727 16.5755 50.4956 16.7063 51.4617C16.8371 52.4278 17.6724 54.8832 17.763 55.5373C17.8535 56.1915 18.246 60.0558 17.8535 61.2332C17.4611 62.4207 17.9441 65.3994 17.2799 66.1441C16.6158 66.8888 15.0861 63.6886 14.8647 62.9842C14.6433 62.2798 11.8357 53.424 11.574 52.7196C11.3124 52.0152 6.62286 38.9026 6.04925 35.7528C5.47564 32.5929 4.20764 26.4543 4.20764 26.4543C4.20764 26.4543 2.32581 7.44464 2.58746 6.69996Z" fill="#FCF2D9"/>
<path d="M10.0323 11.2311C10.4952 12.157 11.2701 17.0779 11.4613 18.5975C11.733 20.7812 12.7997 34.0749 13.2928 38.5631C13.9268 44.3395 14.1583 50.4379 14.8728 56.2243C15.0237 57.4722 17.449 66.5895 17.1471 66.3178C17.0565 66.2474 14.4702 59.4647 13.7859 55.5199C12.7897 49.7636 11.9141 43.9772 10.8675 38.2512C10.1329 34.2661 7.96933 22.9147 7.71774 20.9121C7.46616 18.8692 6.68121 13.3746 6.85228 12.4387C7.04349 11.3921 7.60704 10.5267 8.01963 10.5569C8.56305 10.5871 9.55932 10.3053 10.0323 11.2311Z" fill="#D8D8D8"/>
<path d="M16.6933 67.0922C14.0366 55.4993 12.5372 46.5027 11.7422 40.9879L12.5975 40.8672C13.3825 46.3618 14.8819 55.3383 17.5386 66.9011L16.6933 67.0922Z" fill="#938F9E"/>
<path d="M16.251 67.1102L15.7479 66.4058C15.7076 66.436 15.6875 66.4561 15.6875 66.4662C15.8385 66.2649 16.402 64.846 16.8347 63.6484L17.6499 63.9403C16.5832 66.8687 16.3617 67.0297 16.251 67.1102Z" fill="#B7B3C4"/>
<path d="M15.4464 63.329L14.9432 62.6246C14.9029 62.6548 14.8828 62.6749 14.8828 62.685C15.0338 62.4837 15.5973 61.0647 16.03 59.8672L16.8451 60.159C15.7784 63.0875 15.5671 63.2485 15.4464 63.329Z" fill="#B7B3C4"/>
<path d="M14.5714 58.911L14.0682 58.2066C14.0279 58.2367 14.0078 58.2569 14.0078 58.2669C14.1588 58.0657 14.7223 56.6468 15.155 55.4492L15.9702 55.741C14.9034 58.6795 14.6821 58.8305 14.5714 58.911Z" fill="#B7B3C4"/>
<path d="M13.7979 54.5634L13.2948 53.8589C13.2545 53.8891 13.2344 53.9092 13.2344 53.9193C13.3853 53.718 13.9489 52.2991 14.3816 51.1016L15.1967 51.3934C14.13 54.3218 13.9187 54.4728 13.7979 54.5634Z" fill="#B7B3C4"/>
<path d="M12.9698 49.661L12.4667 48.9566C12.4264 48.9867 12.4062 49.0069 12.4062 49.0169C12.5572 48.8157 13.1208 47.3968 13.5535 46.1992L14.3686 46.491C13.3019 49.4295 13.0805 49.5805 12.9698 49.661Z" fill="#B7B3C4"/>
<path d="M12.1573 44.2977L11.6541 43.5933C11.6139 43.6235 11.5938 43.6436 11.5938 43.6537C11.7447 43.4524 12.3083 42.0335 12.741 40.8359L13.5561 41.1278C12.4894 44.0663 12.2781 44.2172 12.1573 44.2977Z" fill="#B7B3C4"/>
<defs>
<linearGradient id="paint0_linear_87_10710" x1="7.86872" y1="45.4673" x2="16.9505" y2="45.5039" gradientUnits="userSpaceOnUse">
<stop stop-color="#BFAB8D"/>
<stop offset="0.5078" stop-color="#E7E1D2"/>
<stop offset="1" stop-color="#CCBFA6"/>
</linearGradient>
<linearGradient id="paint1_linear_87_10710" x1="-3.62177" y1="14.1998" x2="22.7059" y2="14.3059" gradientUnits="userSpaceOnUse">
<stop stop-color="#94938C"/>
<stop offset="0.2296" stop-color="#EDEBE1"/>
<stop offset="0.7988" stop-color="#EDEBE1"/>
<stop offset="1" stop-color="#94938C"/>
</linearGradient>
</defs>
</svg>
