<svg width="18" height="54" viewBox="0 0 18 54" fill="none" xmlns="http://www.w3.org/2000/svg">
<path d="M2.82812 20.9667C2.82812 20.9667 9.03721 46.4571 14.2701 50.7139C19.5031 54.9707 16.8866 46.4672 16.8866 46.4672C16.8866 46.4672 14.9243 30.7784 14.9243 27.8399C14.9243 24.9014 15.9608 19.3867 15.9608 19.3867C15.9608 19.3867 5.88738 21.5503 2.82812 20.9667Z" fill="url(#paint0_linear_87_10720)"/>
<path d="M2.50878 1.68526C2.50878 1.68526 -0.761795 3.31552 0.224412 7.89434C1.20056 12.4732 0.878523 15.0896 0.878523 15.0896C0.878523 15.0896 1.53265 22.929 7.08761 23.261C12.6426 23.5831 16.2352 20.3226 16.5673 18.3602C16.8893 16.3979 16.8893 10.8429 17.2214 9.86675C17.5434 8.89061 18.5296 2.67148 15.259 1.69534C11.9885 0.719194 10.0261 0.387101 10.0261 0.387101C10.0261 0.387101 6.75551 -0.609176 2.50878 1.68526Z" fill="url(#paint1_linear_87_10720)"/>
<path d="M16.111 51.8395C16.111 51.8395 5.25266 24.749 4.81994 21.9615C4.39728 19.1739 -0.3627 5.36702 3.61232 4.58208C7.58734 3.79714 10.0327 4.22987 12.3976 4.14937C14.7525 4.0588 15.8091 4.76323 15.5474 5.63874C15.2858 6.51425 15.5475 15.9537 14.5009 18.9223C13.4543 21.891 15.0544 45.1575 15.7588 46.7273C17.6306 51.8093 17.067 52.1012 16.111 51.8395Z" fill="#FCF2D9"/>
<path d="M9.45192 7.058C9.9249 7.79263 10.73 11.7978 10.9212 13.0356C11.203 14.8168 12.3502 25.7054 12.8735 29.3684C13.5377 34.0881 13.8194 39.0896 14.5641 43.8194C14.7251 44.8358 17.1906 52.2021 16.8887 51.9908C16.7982 51.9405 14.1817 46.5063 13.4773 43.3061C12.4508 38.6267 11.5451 33.907 10.4583 29.2678C9.70351 26.0374 7.46944 16.8194 7.21786 15.1791C6.95621 13.5086 6.14111 9.04047 6.30212 8.24547C6.49333 7.36996 7.04679 6.62528 7.44933 6.61521C7.98269 6.61521 8.97895 6.31332 9.45192 7.058Z" fill="#D8D8D8"/>
<path d="M16.1152 53.3172C13.4484 43.0526 11.949 35.0724 11.1641 30.1917L12.0195 30.0508C12.8044 34.9114 14.3038 42.8614 16.9605 53.0959L16.1152 53.3172Z" fill="#938F9E"/>
<path d="M15.6483 53.3575L15.1854 52.6228C15.1451 52.653 15.125 52.6731 15.125 52.6731C15.2759 52.492 15.8294 51.2442 16.2622 50.1875L17.0571 50.5095C15.9904 53.1461 15.769 53.287 15.6483 53.3575Z" fill="#B7B3C4"/>
<path d="M14.8436 50.0098L14.3807 49.2752C14.3404 49.3054 14.3203 49.3255 14.3203 49.3255C14.4713 49.1444 15.0247 47.8965 15.4575 46.8398L16.2525 47.1619C15.1857 49.7985 14.9644 49.9394 14.8436 50.0098Z" fill="#B7B3C4"/>
<path d="M13.9686 46.1035L13.5057 45.3689C13.4654 45.3991 13.4453 45.4192 13.4453 45.4192C13.5963 45.2381 14.1497 43.9902 14.5825 42.9336L15.3775 43.2556C14.3108 45.8922 14.0894 46.023 13.9686 46.1035Z" fill="#B7B3C4"/>
<path d="M13.1952 42.2481L12.7323 41.5134C12.692 41.5436 12.6719 41.5638 12.6719 41.5638C12.8228 41.3826 13.3763 40.1348 13.809 39.0781L14.604 39.4002C13.5373 42.0367 13.3159 42.1676 13.1952 42.2481Z" fill="#B7B3C4"/>
<path d="M12.3671 37.9121L11.9041 37.1775C11.8639 37.2077 11.8438 37.2278 11.8438 37.2278C11.9947 37.0467 12.5482 35.7988 12.9809 34.7422L13.7759 35.0642C12.7092 37.7008 12.4878 37.8417 12.3671 37.9121Z" fill="#B7B3C4"/>
<path d="M11.5546 33.1621L11.0916 32.4275C11.0514 32.4577 11.0312 32.4778 11.0312 32.4778C11.1822 32.2967 11.7357 31.0488 12.1684 29.9922L12.9634 30.3142C11.8967 32.9508 11.6753 33.0816 11.5546 33.1621Z" fill="#B7B3C4"/>
<defs>
<linearGradient id="paint0_linear_87_10720" x1="16.0891" y1="35.6389" x2="4.53265" y2="35.6807" gradientUnits="userSpaceOnUse">
<stop stop-color="#BFAB8D"/>
<stop offset="0.5078" stop-color="#E7E1D2"/>
<stop offset="1" stop-color="#CCBFA6"/>
</linearGradient>
<linearGradient id="paint1_linear_87_10720" x1="20.889" y1="11.6744" x2="-3.27793" y2="11.7617" gradientUnits="userSpaceOnUse">
<stop stop-color="#94938C"/>
<stop offset="0.2296" stop-color="#EDEBE1"/>
<stop offset="0.4283" stop-color="#EDEBE1"/>
<stop offset="0.7988" stop-color="#EDEBE1"/>
<stop offset="1" stop-color="#94938C"/>
</linearGradient>
</defs>
</svg>
