<svg width="19" height="52" viewBox="0 0 19 52" fill="none" xmlns="http://www.w3.org/2000/svg">
<path d="M3.23438 21.2548C4.03944 26.5079 5.44828 31.7609 7.29993 36.7423C9.32265 42.2167 11.8586 47.6912 16.7796 51.1228C16.9003 51.2033 17.0311 51.2939 17.172 51.3039C17.323 51.314 17.4639 51.2335 17.5746 51.1429C18.2488 50.6398 18.5004 49.7139 18.4299 48.8686C18.3595 48.0233 18.0274 47.2283 17.7255 46.4333C15.9343 41.5928 15.4915 36.2592 14.9782 31.1571C14.6562 27.9268 13.8814 23.9719 14.6462 20.7516C15.4714 17.2899 3.73754 20.6409 3.23438 21.2548Z" fill="url(#paint0_linear_87_10730)"/>
<path d="M13.3623 1.26955C12.6377 0.937456 11.8729 0.937459 10.8666 1.17898C10.5949 1.24942 10.3031 1.35004 10.1521 1.59156C9.45776 2.70859 15.1737 4.86215 15.858 3.92626C16.2605 3.36272 14.741 2.25575 14.419 1.97398C14.0567 1.66201 13.7145 1.4205 13.3623 1.26955Z" fill="#D8D6D0"/>
<path d="M3.434 1.45039C3.09185 1.55102 2.84028 1.66172 2.72959 1.75229C2.18617 2.23533 1.61255 2.7385 1.37103 3.42281C1.2704 3.69452 1.26032 4.06686 1.5119 4.21781C1.59241 4.26813 1.69304 4.28826 1.79368 4.28826C2.94089 4.37883 4.2592 3.63415 5.23534 3.11085C5.59762 2.90958 7.13732 2.20515 7.06687 1.65167C6.95618 0.816406 4.66172 1.0881 3.434 1.45039Z" fill="#D8D6D0"/>
<path d="M1.41962 3.56448C1.41962 3.56448 -0.86476 5.19475 0.443474 9.45154C1.09759 15.3386 3.05995 21.2156 3.05995 21.2156C3.05995 21.2156 3.71408 22.1917 8.2929 22.1917C12.8717 22.1917 14.18 21.5376 14.8341 20.2294C15.4882 18.9211 17.1184 6.50297 17.1184 6.50297C17.1184 6.50297 16.7964 3.56448 15.4882 3.23239C14.1799 2.9003 12.8717 2.57828 12.5497 2.57828C12.2276 2.57828 9.2791 0.615917 7.97086 0.948007C6.66263 1.2801 3.38197 3.88651 1.41962 3.56448Z" fill="url(#paint1_linear_87_10730)"/>
<path d="M2.29767 10.0962C2.29767 10.0962 1.75426 7.48977 4.06882 6.97654C6.38339 6.46331 13.639 6.58407 13.8705 6.67464C14.102 6.76521 14.6454 6.80546 15.0479 7.45958C16.014 9.00933 15.531 10.6698 14.9272 12.2497C13.6894 15.5002 13.2063 19.0928 12.9648 22.5244C12.4315 30.082 14.4642 37.4383 16.2656 44.7241C16.4367 45.4285 16.7788 46.2537 16.7788 46.9884C16.7788 47.5922 17.3726 49.5445 17.1914 49.635C17.0103 49.7256 15.4706 49.1117 14.1925 46.767C12.9145 44.4222 7.15826 30.0618 6.57458 27.8982C5.64876 24.4867 4.79338 21.0552 3.938 17.6236C3.31407 15.1983 2.40836 12.5919 2.29767 10.0962Z" fill="#FCF2D9"/>
<path d="M8.65208 9.8999C9.10493 10.544 10.0106 14.1466 10.2421 15.2637C10.5742 16.8738 11.3792 26.4642 12.0032 29.775C12.8082 34.0217 13.9554 38.7917 14.831 43.0485C15.0222 43.9643 17.5682 50.5457 17.2864 50.3646C17.1958 50.3243 14.1466 45.6348 13.3718 42.7567C12.2447 38.5502 11.0975 34.2733 9.92004 30.097C9.10491 27.1887 7.27339 18.8462 6.97149 17.3669C6.66959 15.8675 5.73368 11.8421 5.85444 11.1176C5.98526 10.3125 6.45824 9.61812 6.83059 9.598C7.30356 9.56781 8.18917 9.25585 8.65208 9.8999Z" fill="#D8D8D8"/>
<path d="M16.4972 51.9065C13.2367 41.813 11.2643 33.9435 10.1875 29.1131L11.0328 28.9219C12.1096 33.7322 14.072 41.5715 17.3224 51.6348L16.4972 51.9065Z" fill="#938F9E"/>
<path d="M16.0323 51.9791L15.5291 51.2747C15.4889 51.3049 15.4688 51.3351 15.4688 51.3351C15.6096 51.1439 16.0927 49.8658 16.4549 48.7891L17.2701 49.0708C16.3543 51.7477 16.143 51.8986 16.0323 51.9791Z" fill="#B7B3C4"/>
<path d="M15.0401 48.6784L14.5369 47.9739C14.4967 48.0041 14.4766 48.0343 14.4766 48.0343C14.6175 47.8431 15.1005 46.5651 15.4628 45.4883L16.2779 45.7701C15.3622 48.4469 15.1508 48.5979 15.0401 48.6784Z" fill="#B7B3C4"/>
<path d="M13.9308 44.8346L13.4276 44.1302C13.3873 44.1604 13.3672 44.1906 13.3672 44.1906C13.5081 43.9994 13.9911 42.7213 14.3534 41.6445L15.1685 41.9263C14.2528 44.5931 14.0415 44.7541 13.9308 44.8346Z" fill="#B7B3C4"/>
<path d="M12.9229 41.0299L12.4198 40.3255C12.3795 40.3557 12.3594 40.3859 12.3594 40.3859C12.5003 40.1947 12.9833 38.9166 13.3456 37.8398L14.1607 38.1216C13.2449 40.7985 13.0336 40.9494 12.9229 41.0299Z" fill="#B7B3C4"/>
<path d="M11.8448 36.7526L11.3416 36.0482C11.3014 36.0783 11.2812 36.1085 11.2812 36.1085C11.4221 35.9173 11.9052 34.6393 12.2674 33.5625L13.0826 33.8443C12.1668 36.5211 11.9555 36.6721 11.8448 36.7526Z" fill="#B7B3C4"/>
<path d="M10.751 32.0534L10.2479 31.3489C10.2076 31.3791 10.1875 31.4093 10.1875 31.4093C10.3284 31.2181 10.8114 29.9401 11.1737 28.8633L11.9888 29.1451C11.0731 31.8219 10.8617 31.9729 10.751 32.0534Z" fill="#B7B3C4"/>
<defs>
<linearGradient id="paint0_linear_87_10730" x1="6.46187" y1="35.2177" x2="16.8283" y2="35.2551" gradientUnits="userSpaceOnUse">
<stop stop-color="#BFAB8D"/>
<stop offset="0.5078" stop-color="#E7E1D2"/>
<stop offset="1" stop-color="#CCBFA6"/>
</linearGradient>
<linearGradient id="paint1_linear_87_10730" x1="-3.60169" y1="11.5086" x2="20.5304" y2="11.5957" gradientUnits="userSpaceOnUse">
<stop stop-color="#94938C"/>
<stop offset="0.2296" stop-color="#EDEBE1"/>
<stop offset="0.7988" stop-color="#EDEBE1"/>
<stop offset="1" stop-color="#94938C"/>
</linearGradient>
</defs>
</svg>
