<svg width="26" height="51" viewBox="0 0 26 51" fill="none" xmlns="http://www.w3.org/2000/svg">
<path d="M10.9629 2.75487C10.9629 2.75487 10.0572 0.701953 8.22571 1.21518C6.39418 1.72841 5.7602 6.51855 6.09229 10.0608C6.42438 13.5931 7.99426 24.8036 10.7013 25.0351C13.4083 25.2666 18.3494 18.9166 16.0952 15.3743C13.8411 11.8421 10.1176 5.63299 10.9629 2.75487Z" fill="url(#paint0_linear_87_10651)"/>
<path d="M22.7886 33.2057C19.5885 32.9743 15.9556 31.4145 12.7554 31.2836C10.7428 31.2031 8.73011 31.0723 6.71745 31.1327C5.79162 31.1629 4.40288 33.6385 3.49718 33.5278C2.91351 33.4573 3.29592 31.0522 3.32611 30.4283C3.34623 29.8949 3.38649 29.3716 3.31604 28.8483C3.03427 26.9464 1.98768 25.145 1.55496 23.2431C1.05179 21.0392 0.709636 18.8051 0.498305 16.5509C0.276912 14.1659 0.186342 11.7306 0.498305 9.35565C0.629129 8.32919 0.820333 7.2826 1.22287 6.32658C1.54489 5.58189 2.30971 4.12272 3.29592 4.23341C3.6582 4.27367 3.98022 4.47493 4.25193 4.72651C4.78529 5.19949 5.14757 5.84354 5.38909 6.50772C5.89225 7.8864 5.88219 9.37578 5.97276 10.8249C6.0734 12.3143 6.47593 13.703 6.81809 15.1521C7.44201 17.8491 8.17663 21.009 9.93772 23.2229C10.3704 23.7563 11.0145 24.1991 11.6988 24.1286C12.051 24.0984 12.373 23.9374 12.6649 23.7261C13.7014 22.9814 14.2247 21.7034 14.4058 20.4454C14.7681 17.8692 14.4964 15.0213 13.8121 12.5256C13.4096 11.0563 12.6649 9.74812 12.202 8.30907C11.7189 6.7895 11.0648 3.78056 13.2083 3.20695C14.0737 2.97549 14.9895 3.41828 15.6336 4.03214C18.0286 6.32658 19.6388 9.73805 21.0275 12.6866C21.8728 14.498 22.698 16.3698 23.2213 18.312C23.5333 19.4794 23.5031 20.6366 23.4729 21.8442C23.3521 25.2054 23.1609 29.8748 22.7886 33.2057Z" fill="url(#paint1_linear_87_10651)"/>
<path d="M3.84704 35.3705C3.57533 35.451 3.18286 36.1957 3.03191 36.407C2.43817 37.2524 1.91488 38.1581 1.53247 39.1241C0.485887 41.7104 0.636834 44.5483 2.59919 46.6716C2.61931 46.6918 2.6495 46.7219 2.66963 46.7421C2.78033 46.8528 2.88096 46.9635 2.97153 47.0842C3.21305 47.4364 3.27343 47.8893 3.50489 48.2516C3.71622 48.5937 4.03824 48.9158 4.3502 49.1774C5.07477 49.7913 6.04085 50.2139 7.00693 50.1233C7.33902 50.0932 7.65098 49.9724 7.96295 49.8516C9.31144 49.3485 10.7908 48.7648 11.5052 47.4163C11.4247 47.5673 11.7971 48.1912 11.8876 48.322C12.109 48.6239 12.3908 48.7648 12.733 48.8956C13.8802 49.3384 15.128 49.7007 16.235 50.2441C16.9998 50.5359 17.6338 50.8177 18.4087 50.5661C18.8616 50.4152 19.3144 50.2844 19.7672 50.1233C20.6025 49.8214 21.9912 49.2881 21.9912 48.2013C21.9912 46.5307 23.39 41.4991 20.039 36.4775C16.6879 31.4659 3.8571 35.3705 3.84704 35.3705Z" fill="#D8D6D0"/>
<path d="M3.82848 31.2423C3.50645 31.3429 3.0536 32.2084 2.87246 32.4599C2.16802 33.4462 1.56422 34.5129 1.11137 35.64C-0.116357 38.669 0.0647887 42 2.35923 44.4856C2.38942 44.5158 2.40954 44.546 2.43973 44.5762C2.56049 44.707 2.69132 44.8378 2.79195 44.9787C3.07373 45.3913 3.14417 45.9146 3.41588 46.3473C3.66746 46.7499 4.03981 47.1323 4.40209 47.4342C5.24741 48.1487 6.38456 48.6518 7.51166 48.5412C7.90413 48.5009 8.26641 48.36 8.63875 48.2292C10.2288 47.6355 11.9496 46.9511 12.7848 45.3813C12.6842 45.5624 13.127 46.287 13.2377 46.4379C13.4993 46.8002 13.8214 46.9511 14.234 47.1122C15.5825 47.6355 17.0416 48.048 18.3398 48.6921C19.2355 49.0343 19.9801 49.3664 20.8959 49.0645C21.4192 48.8934 21.9626 48.7424 22.4859 48.5512C23.4621 48.1889 25.0923 47.565 25.0923 46.297C25.0923 44.3347 26.7226 38.4577 22.8079 32.5706C18.8631 26.6735 3.83854 31.2423 3.82848 31.2423Z" fill="url(#paint2_linear_87_10651)"/>
<path d="M15.5756 5.22024C16.6926 6.87062 17.9203 9.49716 18.8965 11.228C19.5606 12.4055 20.2248 13.6131 20.6877 14.881C21.362 16.7126 21.372 18.8661 21.4928 20.7882C21.6438 23.0525 21.6941 25.3268 21.6941 27.6011C21.6941 29.966 22.0563 30.3081 22.0563 30.3081C22.0563 30.3081 25.4175 41.0457 22.8815 43.7125C20.3456 46.3793 13.4019 41.9313 13.4019 41.9313C13.4019 41.9313 11.3188 42.4345 9.85959 43.1993C8.41047 43.9641 6.45818 44.4673 5.1902 43.2798C3.92222 42.0923 1.55734 38.9626 1.64791 38.0368C1.73848 37.111 2.82532 32.3208 3.82159 30.4691C4.81786 28.6074 3.1876 24.9242 2.82532 22.7304C2.46304 20.5266 0.742211 13.5527 1.10449 11.0972C1.46677 8.64177 1.73848 4.03276 3.1876 4.11327C5.32103 4.19378 4.365 8.5512 4.63671 10.1613C4.90842 11.7715 6.49843 20.758 7.22299 21.865C7.94755 22.9619 10.4936 25.3167 11.5804 25.2362C12.6673 25.1557 15.9781 23.5355 15.7064 19.3391C15.4347 15.1427 13.3918 7.99772 13.1201 7.11215C12.9792 6.63917 12.2949 4.53593 12.5264 3.55978C12.6069 3.21763 13.1805 3.18744 13.4321 3.13713C13.8245 3.07675 14.4384 3.3082 15.5756 5.22024Z" fill="#FCF2D9"/>
<path d="M13.5773 2.70703C13.5773 2.70703 16.8881 9.92245 17.8844 12.9113C18.8807 15.9001 20.833 31.6894 19.8367 35.0506C18.8404 38.4118 7.90157 38.7237 7.04618 36.6809C6.18073 34.638 4.73162 23.4375 4.73162 23.4375C4.73162 23.4375 3.46363 17.9832 3.01078 12.9616C2.62837 8.78529 3.00072 4.97128 3.43345 4.16621C3.43345 4.16621 3.29255 8.56389 3.87623 13.1427C4.43977 17.5303 5.71782 22.0991 6.04991 22.8035C6.73422 24.2526 8.72676 26.3458 11.9068 26.4364C15.0868 26.527 16.9384 22.4916 17.1699 21.1733C17.4014 19.855 15.9422 11.6433 15.6705 10.2445L13.5773 2.70703Z" fill="#D8D8D8"/>
<path d="M18.6678 19.3904C16.484 11.1485 14.411 4.94946 13.0625 1.2059L13.8776 0.914062C15.2362 4.67775 17.3193 10.8969 19.5131 19.169L18.6678 19.3904Z" fill="#938F9E"/>
<path d="M19.7104 19.1581C19.5795 19.148 19.3682 19.1279 17.6172 17.6385L18.1707 16.9844C18.855 17.5681 19.7003 18.2423 19.8814 18.3329C19.8814 18.3329 19.8412 18.3127 19.7909 18.3127L19.7104 19.1581Z" fill="#B7B3C4"/>
<path d="M18.9604 16.4823C18.8295 16.4722 18.6182 16.4521 16.8672 14.9627L17.4207 14.3086C18.105 14.8923 18.9503 15.5665 19.1314 15.6571C19.1314 15.6571 19.0912 15.637 19.0409 15.637L18.9604 16.4823Z" fill="#B7B3C4"/>
<path d="M18.0307 13.3807C17.8999 13.3707 17.6885 13.3505 15.9375 11.8612L16.491 11.207C17.1753 11.7907 18.0206 12.4649 18.2018 12.5555C18.2018 12.5555 18.1615 12.5354 18.1112 12.5354L18.0307 13.3807Z" fill="#B7B3C4"/>
<path d="M17.0541 10.3651C16.9233 10.355 16.712 10.3349 14.9609 8.84553L15.5144 8.19141C16.1987 8.77508 17.0441 9.44932 17.2252 9.53989C17.2252 9.53989 17.185 9.51978 17.1346 9.51978L17.0541 10.3651Z" fill="#B7B3C4"/>
<path d="M15.9369 6.97056C15.8061 6.96049 15.5948 6.94037 13.8438 5.45099L14.3972 4.79688C15.0815 5.38055 15.9269 6.05479 16.108 6.14536C16.108 6.14536 16.0678 6.12523 16.0174 6.12523L15.9369 6.97056Z" fill="#B7B3C4"/>
<path d="M14.64 3.29869C14.5092 3.28863 14.2979 3.2685 12.5469 1.77912L13.1003 1.125C13.7846 1.70868 14.63 2.38292 14.8111 2.47349C14.8111 2.47349 14.7708 2.45336 14.7205 2.45336L14.64 3.29869Z" fill="#B7B3C4"/>
<defs>
<linearGradient id="paint0_linear_87_10651" x1="14.3283" y1="23.7673" x2="-4.23394" y2="-21.5981" gradientUnits="userSpaceOnUse">
<stop offset="0.1599" stop-color="#BFAB8D"/>
<stop offset="0.5078" stop-color="#E7E1D2"/>
<stop offset="0.7297" stop-color="#CCBFA6"/>
</linearGradient>
<linearGradient id="paint1_linear_87_10651" x1="1.59944" y1="18.0212" x2="22.5099" y2="18.9666" gradientUnits="userSpaceOnUse">
<stop offset="0.1599" stop-color="#BFAB8D"/>
<stop offset="0.5078" stop-color="#E7E1D2"/>
<stop offset="0.7297" stop-color="#CCBFA6"/>
</linearGradient>
<linearGradient id="paint2_linear_87_10651" x1="-5.42698" y1="41.6841" x2="29.3957" y2="38.0272" gradientUnits="userSpaceOnUse">
<stop stop-color="#94938C"/>
<stop offset="0.2296" stop-color="#EDEBE1"/>
<stop offset="0.7988" stop-color="#EDEBE1"/>
<stop offset="1" stop-color="#94938C"/>
</linearGradient>
</defs>
</svg>
