<svg width="29" height="51" viewBox="0 0 29 51" fill="none" xmlns="http://www.w3.org/2000/svg">
<path d="M9.38945 1.08053C8.08122 1.1711 7.06482 1.55351 5.98804 2.2982C5.6962 2.49946 5.42448 2.74099 5.4748 3.02276C5.74651 4.36118 15.6186 3.2844 15.5281 2.10699C15.4677 1.41262 12.2575 1.22143 11.543 1.14092C10.7279 1.07048 10.0234 1.04027 9.38945 1.08053Z" fill="#D8D6D0"/>
<path d="M19.5502 46.4578C20.2244 48.6214 18.6344 49.507 17.145 48.2188C14.277 45.7433 12.6266 41.7682 11.1674 38.1253C10.4932 36.4347 7.59494 30.5074 9.1145 29.0784C10.624 27.6594 16.5614 30.3665 16.8633 34.1704C17.0243 36.2334 17.0947 38.3065 17.457 40.3694C17.8495 42.6035 18.896 44.3344 19.5502 46.4578Z" fill="url(#paint0_linear_87_10744)"/>
<path d="M2.7778 21.1789C2.96901 21.9538 3.13001 22.7388 3.17026 22.8897C3.48222 24.1979 3.76401 25.5162 3.97534 26.8446C4.15648 27.9314 4.29736 29.0183 4.40806 30.1152C4.50869 31.1718 4.41812 32.3392 4.61938 33.3858C4.82065 34.4122 5.18295 35.489 5.52511 36.4752C6.56163 39.4439 8.13149 42.2113 9.9932 44.7473C10.9291 46.0152 11.9354 47.2229 13.0122 48.3902C13.6663 49.1047 15.0651 51.2079 16.2224 50.3324C16.6551 50.0003 16.8363 49.4167 16.8061 48.8732C16.7759 48.3298 16.5746 47.8065 16.3935 47.2933C14.9343 43.3485 13.5556 38.4577 14.3708 34.221C14.4513 33.7782 14.5922 33.3254 14.9041 33.0034C15.3167 32.5807 15.9809 32.4901 16.5545 32.6511C17.1181 32.8122 17.6112 33.1744 18.0338 33.587C19.483 34.9959 20.5195 36.9784 21.4051 38.7797C22.0793 40.1483 22.5724 41.5974 22.8542 43.0868C23.1259 44.5158 22.8944 46.2165 23.468 47.5549C23.7901 48.3097 24.5046 48.9538 25.3197 48.9236C25.9537 48.9034 26.5172 48.5009 26.9399 48.0179C28.4897 46.2568 28.7815 43.439 28.872 41.1849C28.9827 38.347 28.5802 35.5192 28.1374 32.7317C27.5437 28.9277 26.7688 25.1539 25.9134 21.4003C25.8832 21.2594 25.4103 18.8845 25.3197 18.8946C25.3197 18.8946 2.44571 19.5286 2.23438 19.5386C2.35514 19.5286 2.57654 20.3537 2.7778 21.1789Z" fill="url(#paint1_linear_87_10744)"/>
<path d="M20.6789 0.909632C19.4915 0.839189 18.5254 1.10084 17.4486 1.70464C17.1567 1.86566 16.875 2.07698 16.875 2.35875C16.9052 3.70724 25.8817 3.81794 25.9924 2.6506C26.0527 1.95623 23.2149 1.39268 22.5809 1.23167C21.8765 1.05053 21.2525 0.939822 20.6789 0.909632Z" fill="#D8D6D0"/>
<path d="M4.73678 1.9558C3.78077 2.04637 2.88511 2.41871 2.11023 3.22377C1.11396 4.2603 0.61081 5.70942 0.49005 7.13841C0.228403 10.2178 0.751686 13.8809 1.5165 16.8596C1.75802 17.8056 1.78821 19.7981 2.43227 20.5227C4.455 22.797 8.89293 21.69 11.5798 21.4988C14.6592 21.2875 17.9701 21.1868 20.7274 20.5227C22.5489 20.4321 25.9101 20.8346 26.4635 18.4194C27.0975 15.652 27.49 12.8242 27.6208 9.98634C27.7215 7.86297 28.0234 2.63004 24.9842 2.21744C24.5414 2.15706 23.7867 2.66023 23.3338 2.76087C22.3979 2.9722 21.4922 2.94199 20.5664 2.70047C19.4292 2.39857 18.3726 1.85516 17.2757 1.41237C17.0342 1.31173 16.7926 1.22117 16.531 1.23124C15.9473 1.25136 15.5146 1.75452 15.0517 2.10674C13.0894 3.58605 9.56718 2.82124 7.40356 2.24763C6.51799 2.00611 5.60223 1.87529 4.73678 1.9558Z" fill="url(#paint2_linear_87_10744)"/>
<path d="M7.26451 36.061C7.8985 37.8624 9.01555 39.3819 10.0219 41.0424C10.3942 41.6562 13.3931 47.4125 14.0975 46.1747C14.2384 45.9332 14.1981 45.6514 14.1478 45.3797C13.373 40.9417 11.3703 36.3327 13.4836 31.9049C13.7352 31.3916 14.0472 30.8885 14.5101 30.5061C15.6875 29.5299 17.4184 29.9727 18.5556 30.7778C21.4538 32.8408 22.5407 36.1415 23.6879 39.1907C24.2414 40.67 24.7747 42.4009 25.771 43.689C26.9685 45.2187 27.361 43.2664 27.4918 42.2198C27.8843 39.2008 27.9044 36.1315 27.5119 33.1125C27.2503 31.0595 26.9182 28.9966 26.2339 27.0241C25.5999 25.2127 24.342 23.5523 24.1407 21.6302C23.7785 18.2489 27.4918 11.1341 24.7143 8.76923C23.6375 8.29625 22.3998 8.19563 21.2425 8.00442C19.2701 7.67233 17.2373 7.63209 15.2447 7.74278C12.2056 7.91386 7.55634 7.81321 5.40279 10.0271C3.65177 11.8184 4.04426 14.3947 4.28578 16.7092C4.6078 19.8389 5.52357 23.2001 5.83554 26.3298C6.13744 29.3186 6.25819 32.4785 7.05319 35.3968C7.11357 35.6182 7.18401 35.8396 7.26451 36.061Z" fill="#FCF2D9"/>
<path d="M26.3446 48.6902C26.3446 48.6902 26.254 40.5792 26.2339 37.4092C26.2138 34.2393 21.5645 16.9001 19.4512 14.0925C17.3379 11.2848 7.95887 15.1592 7.79786 17.3832C7.63684 19.6072 9.74007 32.1159 9.74007 32.1159C9.74007 32.1159 10.3137 37.691 11.5616 42.5918C12.588 46.6574 14.8221 49.7569 15.5164 50.3708C15.5164 50.3708 13.3126 46.6373 12.3565 42.1189C11.4408 37.7816 11.1691 33.0417 11.2596 32.2467C11.4408 30.6366 12.7088 27.9698 15.8083 26.7723C18.9078 25.5747 22.0978 28.7246 22.762 29.8818C23.4262 31.0391 24.7546 39.2911 24.9559 40.71L26.3446 48.6902Z" fill="#D8D8D8"/>
<path d="M26.0537 48.2553C25.8524 44.2802 25.3593 37.7592 24.1719 29.3161L25.0272 29.1953C26.2147 37.6686 26.7179 44.2098 26.9191 48.2049L26.0537 48.2553Z" fill="#938F9E"/>
<path d="M24.6554 31.7431L23.8906 31.3506C24.9372 29.2977 25.1183 29.1971 25.229 29.1367L25.6315 29.9015C25.6819 29.8713 25.7121 29.8411 25.7121 29.8411C25.5812 29.982 25.0579 30.9381 24.6554 31.7431Z" fill="#B7B3C4"/>
<path d="M24.9914 34.5009L24.2266 34.1085C25.2732 32.0555 25.4543 31.9549 25.565 31.8945L25.9675 32.6593C26.0179 32.6291 26.048 32.599 26.048 32.599C25.9172 32.7499 25.404 33.7059 24.9914 34.5009Z" fill="#B7B3C4"/>
<path d="M25.3429 37.7197L24.5781 37.3272C25.6247 35.2743 25.8058 35.1737 25.9165 35.1133L26.3191 35.8781C26.3694 35.8479 26.3996 35.8177 26.3996 35.8177C26.2688 35.9586 25.7455 36.9146 25.3429 37.7197Z" fill="#B7B3C4"/>
<path d="M25.6086 40.8798L24.8438 40.4874C25.8903 38.4344 26.0715 38.3338 26.1822 38.2734L26.5847 39.0382C26.635 39.0081 26.6652 38.9779 26.6652 38.9779C26.5343 39.1288 26.0211 40.0848 25.6086 40.8798Z" fill="#B7B3C4"/>
<path d="M25.8898 44.4424L25.125 44.0499C26.1716 41.997 26.3527 41.8963 26.4634 41.8359L26.8659 42.6008C26.9163 42.5706 26.9464 42.5404 26.9464 42.5404C26.8156 42.6813 26.2923 43.6373 25.8898 44.4424Z" fill="#B7B3C4"/>
<path d="M26.1242 48.3291L25.3594 47.9366C26.406 45.8837 26.5871 45.783 26.6978 45.7227L27.1003 46.4875C27.1506 46.4573 27.1808 46.4271 27.1808 46.4271C27.05 46.5781 26.5267 47.5341 26.1242 48.3291Z" fill="#B7B3C4"/>
<defs>
<linearGradient id="paint0_linear_87_10744" x1="11.7897" y1="28.1918" x2="19.5514" y2="72.484" gradientUnits="userSpaceOnUse">
<stop offset="0.1599" stop-color="#BFAB8D"/>
<stop offset="0.5078" stop-color="#E7E1D2"/>
<stop offset="0.7297" stop-color="#CCBFA6"/>
</linearGradient>
<linearGradient id="paint1_linear_87_10744" x1="4.82448" y1="34.6609" x2="27.3516" y2="34.7422" gradientUnits="userSpaceOnUse">
<stop stop-color="#BFAB8D"/>
<stop offset="0.5078" stop-color="#E7E1D2"/>
<stop offset="1" stop-color="#CCBFA6"/>
</linearGradient>
<linearGradient id="paint2_linear_87_10744" x1="-5.28389" y1="11.5257" x2="33.5617" y2="11.6661" gradientUnits="userSpaceOnUse">
<stop stop-color="#94938C"/>
<stop offset="0.2296" stop-color="#EDEBE1"/>
<stop offset="0.7988" stop-color="#EDEBE1"/>
<stop offset="1" stop-color="#94938C"/>
</linearGradient>
</defs>
</svg>
