<svg width="27" height="48" viewBox="0 0 27 48" fill="none" xmlns="http://www.w3.org/2000/svg">
<path d="M16.1574 41.9527C16.3586 43.905 15.0906 44.3579 14.1849 42.9892C12.444 40.3526 11.7698 36.6795 11.1962 33.3285C10.9345 31.7787 9.61621 26.2137 10.9144 25.2879C12.1924 24.3721 16.1272 27.7836 15.8454 31.0541C15.6945 32.8353 15.463 34.5964 15.4529 36.4078C15.4328 38.3802 15.9561 40.0306 16.1574 41.9527Z" fill="url(#paint0_linear_87_10760)"/>
<path d="M4.52344 19.6928C5.20774 21.6551 5.76122 23.698 6.08324 25.7509C6.29457 27.1296 6.26438 28.3573 6.05305 29.7259C5.70084 32.0204 5.67065 34.4154 5.77128 36.73C5.92223 40.3428 7.65313 43.0599 9.04187 46.3103C9.5551 47.5079 10.7325 48.1318 11.7992 47.0349C13.1578 45.6461 12.7854 42.7177 12.8458 40.9466C12.9162 38.5314 12.9666 36.096 13.4496 33.711C13.6609 32.6846 13.9528 31.6682 14.4861 30.7625C15.0195 29.8668 15.9956 29.4341 16.9416 30.0781C18.1995 30.9335 18.4813 32.8154 18.914 34.1437C19.3165 35.3916 19.6889 36.6596 20.0411 37.9276C20.5443 39.7188 21.0072 41.5202 21.4801 43.3215C21.6814 44.0662 22.3255 45.8172 23.4224 45.0524C23.7947 44.8008 23.9758 44.348 24.1268 43.9253C24.63 42.5366 25.0325 41.1176 25.4351 39.6886C25.9785 37.7867 26.4716 35.8847 26.5823 33.9022C26.7433 31.1952 25.6766 28.5284 25.1533 25.9019C24.5998 23.1244 24.2576 20.2966 24.1168 17.4587C24.1067 17.2675 24.0966 17.0662 23.9658 16.9354C23.7947 16.7543 23.5029 16.7643 23.2513 16.7945C20.182 17.1468 17.1026 17.4285 14.0333 17.821C11.9602 18.0827 9.87713 18.3544 7.82421 18.7267C6.92857 18.8978 5.22787 18.9884 4.52344 19.6928Z" fill="url(#paint1_linear_87_10760)"/>
<path d="M2.12882 15.447C2.02819 14.2193 2.05838 12.9815 1.81686 11.7638C1.45458 9.87194 0.498569 8.22156 0.629393 6.21895C0.95142 1.39861 7.69384 1.02627 11.0852 2.35463C12.4941 2.90812 13.0777 2.38482 14.2551 1.64013C15.5432 0.825 17.0528 0.402344 18.5723 0.402344C20.3032 0.402344 22.2253 0.895441 23.7046 1.81121C25.8984 3.15969 25.8984 5.37363 26.0494 7.69826C26.2204 10.2644 26.1601 12.9111 25.3047 15.3766C25.043 16.1313 24.7009 16.866 24.1575 17.4496C23.3826 18.2748 22.4064 18.3855 21.3699 18.6271C19.951 18.9591 18.5119 19.2308 17.0829 19.5026C14.2753 20.0359 11.4475 20.4686 8.58947 20.6095C7.23092 20.68 5.83212 20.5391 4.63458 19.9152C2.89362 18.9994 2.27977 17.2987 2.12882 15.447Z" fill="url(#paint2_linear_87_10760)"/>
<path d="M8.02341 35.7938C7.89258 34.5157 8.26492 33.2679 8.33537 31.8892C8.436 29.9772 8.63727 28.045 8.55676 26.1229C8.46619 23.8888 8.07373 21.6749 7.39948 19.5515C6.70511 17.3779 5.68871 15.335 5.12516 13.1211C4.60186 11.0681 4.13897 8.03907 6.62462 7.1233C8.34545 6.48931 11.7066 7.68685 13.4777 7.59628C15.581 7.48559 17.7949 5.24146 18.5597 4.87918C22.5046 3.01746 23.7122 11.7424 22.897 14.5702C22.0819 17.408 23.4102 24.9656 23.7121 27.0689C24.014 29.1721 25.3424 32.654 25.1713 33.9019C25.0003 35.1497 23.0278 43.14 23.0278 43.14C23.0278 43.14 21.8203 39.2354 21.4379 35.5824C21.0554 31.9294 20.19 28.4475 17.3521 27.723C15.108 27.1494 12.2601 29.9771 11.9783 32.2817C11.5053 36.1259 11.3041 41.8921 11.0726 45.7565C10.4386 45.5351 9.65369 43.4218 9.30147 42.8985C8.1945 41.238 8.22467 37.8165 8.02341 35.7938Z" fill="#FCF2D9"/>
<path d="M23.1679 45.3387C23.1679 45.3387 23.0371 37.3987 23.339 34.591C23.6409 31.7834 21.276 15.9336 19.6961 13.2266C18.1061 10.5195 9.40131 13.0052 9.02896 14.9574C8.65662 16.9097 9.25036 28.2109 9.25036 28.2109C9.25036 28.2109 9.20002 33.2124 9.79376 37.6805C10.2969 41.3838 10.5888 46.9388 11.1422 47.5526C11.1422 47.5526 10.9309 41.4442 10.5385 37.3383C10.1661 33.4036 10.4076 29.1669 10.5687 28.4826C10.8907 27.0737 12.2895 24.8397 15.1575 24.095C18.0256 23.3503 20.5314 26.4599 21.0043 27.5568C21.4773 28.6537 21.8094 36.1005 21.8496 37.3786L23.1679 45.3387Z" fill="#D8D8D8"/>
<path d="M22.6397 44.1381C22.4384 40.1631 21.9453 33.642 20.7578 25.1989L21.6132 25.0781C22.8007 33.5514 23.3038 40.0926 23.5051 44.0878L22.6397 44.1381Z" fill="#938F9E"/>
<path d="M21.2414 27.6142L20.4766 27.2217C21.5232 25.1688 21.7043 25.0682 21.815 25.0078L22.2175 25.7726C22.2679 25.7424 22.2981 25.7122 22.2981 25.7122C22.1672 25.8632 21.6439 26.8192 21.2414 27.6142Z" fill="#B7B3C4"/>
<path d="M21.5773 30.3798L20.8125 29.9874C21.8591 27.9344 22.0402 27.8338 22.1509 27.7734L22.5535 28.5382C22.6038 28.5081 22.634 28.4779 22.634 28.4779C22.5031 28.6188 21.9899 29.5748 21.5773 30.3798Z" fill="#B7B3C4"/>
<path d="M21.9288 33.5908L21.1641 33.1983C22.2106 31.1454 22.3918 31.0448 22.5025 30.9844L22.905 31.7492C22.9553 31.719 22.9855 31.6888 22.9855 31.6888C22.8547 31.8398 22.3414 32.7958 21.9288 33.5908Z" fill="#B7B3C4"/>
<path d="M22.2101 36.7626L21.4453 36.3702C22.4919 34.3173 22.673 34.2166 22.7837 34.1562L23.1862 34.9211C23.2365 34.8909 23.2668 34.8607 23.2668 34.8607C23.1359 35.0016 22.6126 35.9576 22.2101 36.7626Z" fill="#B7B3C4"/>
<path d="M22.4758 40.3134L21.7109 39.921C22.7575 37.868 22.9387 37.7674 23.0494 37.707L23.4519 38.4719C23.5022 38.4417 23.5324 38.4115 23.5324 38.4115C23.4016 38.5523 22.8884 39.5084 22.4758 40.3134Z" fill="#B7B3C4"/>
<path d="M22.7101 44.208L21.9453 43.8155C22.9919 41.7626 23.173 41.6619 23.2837 41.6016L23.6863 42.3664C23.7366 42.3362 23.7668 42.306 23.7668 42.306C23.636 42.4469 23.1227 43.4029 22.7101 44.208Z" fill="#B7B3C4"/>
<defs>
<linearGradient id="paint0_linear_87_10760" x1="12.9783" y1="25.0289" x2="10.8686" y2="63.8341" gradientUnits="userSpaceOnUse">
<stop offset="0.1599" stop-color="#BFAB8D"/>
<stop offset="0.5078" stop-color="#E7E1D2"/>
<stop offset="0.7297" stop-color="#CCBFA6"/>
</linearGradient>
<linearGradient id="paint1_linear_87_10760" x1="7.05467" y1="33.5796" x2="24.5489" y2="30.1754" gradientUnits="userSpaceOnUse">
<stop stop-color="#BFAB8D"/>
<stop offset="0.5078" stop-color="#E7E1D2"/>
<stop offset="1" stop-color="#CCBFA6"/>
</linearGradient>
<linearGradient id="paint2_linear_87_10760" x1="-3.44968" y1="13.5279" x2="29.8488" y2="7.04828" gradientUnits="userSpaceOnUse">
<stop stop-color="#94938C"/>
<stop offset="0.2114" stop-color="#EDEBE1"/>
<stop offset="0.847" stop-color="#EDEBE1"/>
<stop offset="1" stop-color="#94938C"/>
</linearGradient>
</defs>
</svg>
