<svg width="25" height="41" viewBox="0 0 25 41" fill="none" xmlns="http://www.w3.org/2000/svg">
<path d="M15.7021 37.1783C15.9939 39.03 14.8065 39.5231 13.8806 38.2752C12.0793 35.86 11.2541 32.3882 10.5295 29.2283C10.1974 27.759 8.65776 22.5361 9.83516 21.5902C11.0126 20.6543 14.9272 23.6934 14.8266 26.8231C14.7762 28.5238 14.6555 30.2145 14.736 31.9454C14.8266 33.8172 15.4203 35.3669 15.7021 37.1783Z" fill="url(#paint0_linear_87_10776)"/>
<path d="M3.23438 13.8732C3.23438 13.8732 4.5426 17.4659 4.5426 21.3906C4.5426 25.3153 4.22058 30.2161 6.50496 33.8087C8.78934 37.4013 9.44347 39.0417 9.44347 39.0417C9.44347 39.0417 11.4058 41.326 12.3819 38.7196C12.3819 38.7196 10.0976 30.8803 11.4058 26.9556C12.714 23.0309 14.0223 24.3391 14.3443 24.9932C14.6663 25.6473 19.2451 33.1647 19.8993 35.127C20.5534 37.0894 21.5295 39.0517 22.1837 39.0517C22.8378 39.0517 23.8139 37.4214 24.468 34.4729C25.1221 31.5243 24.468 28.2638 23.1598 25.9794C21.8515 23.6951 20.5433 13.5613 20.5433 11.921C20.5635 10.2806 4.8747 13.2191 3.23438 13.8732Z" fill="url(#paint1_linear_87_10776)"/>
<path d="M10.7894 3.60783C10.4774 3.53738 10.1554 3.33613 9.78303 3.08454C8.76663 2.42036 7.72002 1.7763 6.55268 1.44421C5.38533 1.12219 4.06703 1.15238 3.03051 1.77631C2.29589 2.21909 1.75247 2.91345 1.30969 3.63801C0.615318 4.77517 0.1021 6.09348 0.25305 7.42184C0.43419 8.93134 1.03797 10.4207 1.65184 11.7994C2.02418 12.6346 2.33615 13.5907 3.01039 14.2448C3.79533 15.0096 5.11363 15.1203 6.15015 15.2612C8.37415 15.5731 10.6082 15.2914 12.7718 14.7781C14.9254 14.2649 17.1595 13.7014 19.2526 12.9869C19.625 12.856 20.0074 12.7152 20.3193 12.4636C21.2049 11.7793 21.386 10.2396 21.5974 9.21312C21.9194 7.66336 21.7181 6.06328 21.0841 4.61416C20.269 2.75244 18.7092 1.11211 16.6362 0.790086C15.1568 0.558629 13.8386 0.870594 12.8322 2.01782C12.5001 2.40022 12.2385 2.84301 11.8762 3.19523C11.4938 3.59776 11.1416 3.68833 10.7894 3.60783Z" fill="url(#paint2_linear_87_10776)"/>
<path d="M9.37675 35.8807C9.34656 35.8204 9.31634 35.77 9.28615 35.7197C8.90375 35.0354 8.45092 34.3914 8.07857 33.707C7.10243 31.8956 6.88103 29.9735 6.559 27.981C6.04577 24.8513 6.04576 21.6814 5.76399 18.5315C5.52247 15.8144 5.00923 13.0973 4.28467 10.4708C3.90227 9.06195 3.98279 7.64302 6.21685 7.34112C8.44085 7.03922 8.92388 7.93484 11.1479 7.72351C12.4762 7.59269 13.6436 6.13351 14.9116 5.73098C17.5884 4.59382 19.6313 6.56624 19.6514 7.42162C19.6715 8.52859 19.7722 9.64561 19.5709 10.7325C19.3596 11.9199 19.0979 13.0671 19.0375 14.2848C18.947 16.1868 19.1482 18.1089 19.6413 19.9505C20.1848 21.9531 20.7886 23.9456 21.5634 25.8778C22.0767 27.1558 22.8314 28.293 22.9321 29.6918C23.0126 30.7585 23.0025 31.8252 23.0025 32.8919C23.0025 33.5158 23.2239 35.3876 22.4188 35.5889C22.0867 35.6694 21.7345 35.5084 21.5031 35.2568C21.2716 35.0052 21.1307 34.6832 20.9999 34.3712C19.3998 30.7182 17.357 27.2564 14.9116 24.0966C14.338 23.3519 13.6537 22.7883 12.7379 23.3619C11.641 24.0563 10.7252 25.3847 10.4737 26.6527C9.79941 30.0138 11.1982 33.1636 11.1378 36.4745C11.1278 37.0682 10.7554 37.4305 10.212 37.1286C9.7994 36.8971 9.59814 36.3235 9.37675 35.8807Z" fill="#FCF2D9"/>
<path d="M23.0722 39.0415C23.0722 39.0415 21.7137 30.8802 21.3917 29.421C21.0696 27.9719 17.9299 14.2455 16.672 12.0919C15.4141 9.93837 8.02756 11.5787 7.73573 13.1385C7.44389 14.6983 7.91686 25.0736 7.91686 25.0736C7.91686 25.0736 8.40998 28.4448 8.88296 31.9972C9.27543 34.9458 10.9258 39.6453 11.3585 40.1284C11.3585 40.1284 9.78866 34.986 9.47669 31.7255C9.17479 28.5958 9.37605 25.2346 9.49681 24.6811C9.75846 23.5641 10.8654 21.7829 13.1498 21.1892C15.4342 20.5954 17.4267 23.071 17.7991 23.9465C18.1714 24.822 20.3149 29.3103 20.3451 30.3267L23.0722 39.0415Z" fill="#D8D8D8"/>
<path d="M23.6202 39.4239C22.4529 35.62 20.3899 29.421 17.1797 21.5212L17.9747 21.1992C21.1949 29.1291 23.268 35.3483 24.4454 39.1824L23.6202 39.4239Z" fill="#938F9E"/>
<path d="M18.2281 23.7449L17.3828 23.5537C17.896 21.2995 18.047 21.1687 18.1476 21.0781L18.7313 21.7121C18.7715 21.6719 18.7917 21.6417 18.7917 21.6417C18.7011 21.8127 18.4294 22.8694 18.2281 23.7449Z" fill="#B7B3C4"/>
<path d="M19.2359 26.3425L18.3906 26.1514C18.9038 23.8972 19.0548 23.7664 19.1554 23.6758L19.7391 24.3098C19.7793 24.2695 19.7995 24.2393 19.7995 24.2393C19.6988 24.4104 19.4271 25.467 19.2359 26.3425Z" fill="#B7B3C4"/>
<path d="M20.3531 29.3699L19.5078 29.1787C20.021 26.9245 20.172 26.7937 20.2726 26.7031L20.8563 27.3371C20.8965 27.2969 20.9167 27.2667 20.9167 27.2667C20.8261 27.4378 20.5544 28.4944 20.3531 29.3699Z" fill="#B7B3C4"/>
<path d="M21.4 32.3699L20.5547 32.1787C21.0679 29.9245 21.2189 29.7937 21.3195 29.7031L21.9032 30.3371C21.9434 30.2969 21.9636 30.2667 21.9636 30.2667C21.8629 30.4478 21.5912 31.4944 21.4 32.3699Z" fill="#B7B3C4"/>
<path d="M22.525 35.7488L21.6797 35.5576C22.1929 33.3034 22.3438 33.1726 22.4445 33.082L23.0282 33.716C23.0684 33.6758 23.0885 33.6456 23.0885 33.6456C22.998 33.8267 22.7263 34.8733 22.525 35.7488Z" fill="#B7B3C4"/>
<path d="M23.6969 39.4754L22.8516 39.2842C23.3648 37.03 23.5157 36.8992 23.6164 36.8086L24.2 37.4426C24.2403 37.4023 24.2604 37.3721 24.2604 37.3721C24.1698 37.5432 23.8981 38.5999 23.6969 39.4754Z" fill="#B7B3C4"/>
<defs>
<linearGradient id="paint0_linear_87_10776" x1="11.8064" y1="21.2263" x2="11.8306" y2="58.2958" gradientUnits="userSpaceOnUse">
<stop offset="0.1599" stop-color="#BFAB8D"/>
<stop offset="0.5078" stop-color="#E7E1D2"/>
<stop offset="0.7297" stop-color="#CCBFA6"/>
</linearGradient>
<linearGradient id="paint1_linear_87_10776" x1="5.13162" y1="25.6619" x2="21.8898" y2="25.7224" gradientUnits="userSpaceOnUse">
<stop stop-color="#BFAB8D"/>
<stop offset="0.5078" stop-color="#E7E1D2"/>
<stop offset="1" stop-color="#CCBFA6"/>
</linearGradient>
<linearGradient id="paint2_linear_87_10776" x1="-6.1263" y1="7.99595" x2="27.9136" y2="8.11882" gradientUnits="userSpaceOnUse">
<stop stop-color="#94938C"/>
<stop offset="0.2614" stop-color="#EDEBE1"/>
<stop offset="0.7687" stop-color="#EDEBE1"/>
<stop offset="1" stop-color="#94938C"/>
</linearGradient>
</defs>
</svg>
