<svg width="19" height="56" viewBox="0 0 19 56" fill="none" xmlns="http://www.w3.org/2000/svg">
<path d="M9.40178 54.7455C9.40178 54.7455 4.0984 55.8424 2.22663 53.0851C0.344785 50.3378 8.76779 53.0851 9.40178 54.7455Z" fill="#D8D6D0"/>
<path d="M10.1797 54.985C10.1797 54.985 15.8252 55.3674 17.224 51.7044C18.6329 48.0413 10.5118 52.8616 10.1797 54.985Z" fill="#D8D6D0"/>
<path d="M12.4314 34.4475C12.5119 34.4878 12.5924 34.5381 12.6729 34.5884C14.112 35.5947 15.3196 37.225 16.2353 38.6942C17.6241 40.9283 18.6203 43.4844 18.3486 46.1612C18.1675 47.9827 17.9662 50.0859 17.0504 51.7262C16.5171 52.6823 15.3195 53.1251 14.3434 53.4571C13.5081 53.749 12.6628 54.0207 11.8477 54.3528C11.093 54.6647 10.3483 55.188 9.49288 55.1176C8.51674 55.0371 7.83242 54.2723 7.04748 53.7691C5.81976 52.9842 4.35052 52.5917 2.89134 52.6621C2.63975 52.6722 2.36803 52.7024 2.12651 52.6219C1.76423 52.5112 1.50258 52.2093 1.29125 51.8973C0.335237 50.4985 0.355376 49.1299 0.345313 47.4997C0.335249 45.8392 0.365436 44.1687 0.687463 42.5384C1.25101 39.6301 3.17311 37.225 4.17944 34.4777C4.23982 34.3167 4.3002 34.1557 4.40084 34.0249C4.58198 33.8035 4.88387 33.7028 5.16565 33.6827C5.70907 33.6425 6.25249 33.723 6.78584 33.7833C7.80224 33.894 8.78845 34.0047 9.80484 34.0752C10.62 34.1356 11.6766 34.0752 12.4314 34.4475Z" fill="url(#paint0_linear_87_10636)"/>
<path d="M14.5732 36.3691C14.5329 36.3993 14.4927 36.4194 14.4423 36.4396C14.1706 36.51 13.3555 36.1075 13.0637 36.037C12.0976 35.7854 11.1214 35.5741 10.1453 35.403C9.10877 35.2219 8.05214 35.0408 6.99549 35.0307C6.43194 35.0307 5.86839 35.0609 5.32497 35.1816C4.84193 35.2923 4.30857 35.6244 3.85572 35.6647C3.52363 34.3565 3.85572 32.8268 3.93622 31.4985C4.02679 30.0192 4.15761 28.5398 4.33875 27.0706C4.68091 24.3132 5.37529 21.6565 5.87846 18.9294C6.37156 16.2827 6.50238 13.475 6.442 10.778C6.41181 9.51006 6.34137 8.24209 6.19042 6.97411C6.06966 5.89733 5.75769 4.93125 5.86838 3.81422C5.97908 2.67706 6.51244 0.966292 8.01188 1.42921C9.13897 1.78142 9.84341 3.01922 10.407 3.96517C11.4938 5.75645 12.2787 7.71879 13.0033 9.68114C13.7278 11.6435 14.4021 13.6461 14.7744 15.7091C15.1065 17.5104 15.0663 19.2715 15.0361 21.0829C14.9858 23.9711 14.9153 26.8492 14.8449 29.7374C14.7946 31.5991 14.9053 33.5413 14.7543 35.4232C14.7342 35.7653 14.7845 36.188 14.5732 36.3691Z" fill="url(#paint1_linear_87_10636)"/>
<path d="M14.9809 39.883C14.9306 39.6818 14.8702 39.4906 14.7998 39.2994C14.2362 37.6792 13.25 36.2401 12.9079 34.5394C12.6764 33.4123 12.7569 32.2349 12.8173 31.0776C13.0387 26.8812 13.1997 22.5238 12.7871 18.3374C12.3745 14.1813 11.3179 10.1559 10.231 6.16078C9.88887 4.8928 9.37564 1.8738 8.26867 1.44108C8.16804 1.40082 7.90639 1.36057 7.61455 1.32031C7.52398 7.03629 7.34285 14.5737 7.14159 20.2696C7.10133 21.296 5.76291 29.9103 5.80316 30.4034C5.84341 30.8965 5.37044 34.0362 5.33018 34.4086C5.28993 34.7809 2.75397 39.3094 2.90492 42.2077C3.0458 45.1059 3.28733 47.1991 4.49493 48.3564C5.70253 49.5237 7.90639 50.1778 9.03348 50.0067C10.1606 49.8457 12.4349 50.1678 13.0186 48.8998C13.7029 47.4205 14.6488 46.3034 15.0413 44.6329C15.4136 43.1033 15.3935 41.4328 14.9809 39.883Z" fill="#FCF2D9"/>
<path d="M7.34934 43.0118C7.0575 42.1363 6.96693 37.7285 6.98706 36.3599C7.01725 34.4076 8.57707 25.8538 8.68777 21.8486C8.83872 16.6961 8.02358 8.40395 7.9632 4.79121C7.90282 1.16841 8.05377 1.25898 8.1846 1.29923C8.30536 1.33948 8.70789 2.63765 8.83871 5.09311C8.95947 7.54856 10.4287 15.3376 10.6501 20.49C10.8011 24.0826 10.2073 33.6025 10.1771 35.3938C10.1469 37.2254 10.5595 41.5325 10.2878 42.3375C9.98594 43.2332 9.3922 43.9275 9.02992 43.8571C8.55694 43.7565 7.65124 43.8873 7.34934 43.0118Z" fill="#D8D8D8"/>
<path d="M8.79023 19.7464C8.58896 11.2227 8.00529 4.71177 7.5625 0.756882L8.41787 0.65625C8.87072 4.63127 9.44433 11.1624 9.6456 19.7263L8.79023 19.7464Z" fill="#938F9E"/>
<path d="M9.86254 19.7669C9.73171 19.7266 9.5405 19.6562 8.17188 17.7945L8.86625 17.2812C9.39962 18.0058 10.0638 18.8612 10.2248 18.992C10.2248 18.992 10.1946 18.9618 10.1342 18.9518L9.86254 19.7669Z" fill="#B7B3C4"/>
<path d="M9.75315 16.9895C9.62233 16.9493 9.43112 16.8788 8.0625 15.0171L8.75687 14.5039C9.29023 15.2285 9.95442 16.0838 10.1154 16.2147C10.1154 16.2147 10.0852 16.1845 10.0249 16.1744L9.75315 16.9895Z" fill="#B7B3C4"/>
<path d="M9.56564 13.7591C9.43481 13.7188 9.24362 13.6484 7.875 11.7867L8.56937 11.2734C9.10273 11.998 9.7669 12.8534 9.92792 12.9842C9.92792 12.9842 9.89773 12.954 9.83735 12.944L9.56564 13.7591Z" fill="#B7B3C4"/>
<path d="M9.32346 10.5872C9.19264 10.547 9.00143 10.4765 7.63281 8.6148L8.32719 8.10156C8.86054 8.82612 9.52473 9.68151 9.68575 9.81234C9.68575 9.81234 9.65554 9.78214 9.59516 9.77207L9.32346 10.5872Z" fill="#B7B3C4"/>
<path d="M9.01876 7.03643C8.88794 6.99618 8.69673 6.92573 7.32812 5.06401L8.02249 4.55078C8.55585 5.27534 9.22001 6.13073 9.38103 6.26156C9.38103 6.26156 9.35084 6.23136 9.29046 6.2213L9.01876 7.03643Z" fill="#B7B3C4"/>
<path d="M8.61251 3.16142C8.48169 3.12117 8.29049 3.05073 6.92188 1.18901L7.61623 0.675781C8.14959 1.40034 8.81378 2.25572 8.97479 2.38654C8.97479 2.38654 8.94461 2.35636 8.88423 2.3463L8.61251 3.16142Z" fill="#B7B3C4"/>
<defs>
<linearGradient id="paint0_linear_87_10636" x1="-5.5989" y1="44.8111" x2="24.6373" y2="43.8798" gradientUnits="userSpaceOnUse">
<stop stop-color="#94938C"/>
<stop offset="0.2666" stop-color="#EDEBE1"/>
<stop offset="0.7117" stop-color="#EDEBE1"/>
<stop offset="1" stop-color="#94938C"/>
</linearGradient>
<linearGradient id="paint1_linear_87_10636" x1="0.936646" y1="19.9397" x2="15.2961" y2="18.4317" gradientUnits="userSpaceOnUse">
<stop stop-color="#BFAB8D"/>
<stop offset="0.5078" stop-color="#E7E1D2"/>
<stop offset="1" stop-color="#CCBFA6"/>
</linearGradient>
</defs>
</svg>
