<svg width="19" height="60" viewBox="0 0 19 60" fill="none" xmlns="http://www.w3.org/2000/svg">
<path d="M9.54597 58.7211C9.54597 58.7211 4.20233 59.5564 2.46137 56.7185C0.710353 53.8706 8.99249 57.0305 9.54597 58.7211Z" fill="#D8D6D0"/>
<path d="M4.17188 40.7964C4.17188 40.7964 4.4939 29.6865 5.48011 26.738C6.45625 23.7995 7.44247 13.9877 7.11038 11.3813C6.77829 8.77491 6.78835 4.84014 6.78835 4.84014C6.78835 4.84014 6.46633 1.90164 9.40482 4.18602C12.3433 6.4704 15.946 17.5904 15.6139 22.1591C15.2919 26.738 15.1812 40.5247 15.2315 40.4945C15.2919 40.4744 4.17188 40.7964 4.17188 40.7964Z" fill="url(#paint0_linear_87_10623)"/>
<path d="M14.9604 39.4895C14.9604 39.4895 22.4777 50.5995 16.9228 56.4865C16.2485 57.201 15.1717 57.7142 14.3465 58.2375C13.4912 58.781 12.5855 59.5357 11.5389 59.6565C10.3413 59.7873 9.47588 58.5394 8.29847 58.2979C6.43676 57.9155 4.60523 58.2174 3.01522 56.9494C1.69692 55.9028 0.901922 54.2625 0.630211 52.6222C0.288058 50.5793 0.640273 48.4962 1.05287 46.4936C1.22395 45.6382 1.52584 44.8231 1.868 44.018C2.24034 43.1626 2.90451 42.3274 3.19635 41.4619C3.19635 41.4519 5.81282 33.6125 14.9604 39.4895Z" fill="url(#paint1_linear_87_10623)"/>
<path d="M15.8551 43.8947C15.8048 43.6935 15.7444 43.4821 15.674 43.2809C15.1004 41.5902 14.0941 40.0908 13.7418 38.3297C13.5104 37.1523 13.5909 35.9346 13.6513 34.727C13.8727 30.3495 14.0437 25.8109 13.6211 21.4535C13.2085 17.1262 12.1216 12.9197 11.0147 8.77365C10.6624 7.45535 10.1392 4.30553 9.01207 3.85268C8.91144 3.81242 8.63972 3.59103 8.34789 3.55078C8.25732 9.49822 8.07618 17.5388 7.86485 23.4762C7.8246 24.5429 6.45598 33.5194 6.49623 34.0326C6.53649 34.5459 6.05344 37.8265 6.01318 38.2089C5.97293 38.5913 3.38666 43.3211 3.53761 46.3401C3.68856 49.3591 3.93008 51.5328 5.15781 52.7505C6.38554 53.9581 8.63972 54.6424 9.78694 54.4713C10.9342 54.3002 13.2588 54.6424 13.8525 53.3241C14.5469 51.7743 15.5231 50.6271 15.9155 48.8761C16.2979 47.2458 16.2879 45.5049 15.8551 43.8947Z" fill="#FCF2D9"/>
<path d="M8.04903 47.257C7.67669 46.3412 7.57606 41.692 7.59618 40.263C7.62637 38.2101 8.83397 29.4348 8.97486 25.2283C9.15599 19.8042 8.89434 10.8478 8.81384 7.03383C8.73333 3.21982 8.9346 3.31039 9.08555 3.36071C9.2365 3.41103 9.74973 4.76958 9.90068 7.35586C10.0516 9.94213 10.907 18.0834 11.1888 23.5075C11.38 27.2813 11.6215 37.3647 11.5813 39.2466C11.541 41.1687 12.0542 45.7072 11.7221 46.5526C11.3498 47.4985 10.5951 48.2231 10.1422 48.1526C9.5686 48.0419 8.42137 48.1728 8.04903 47.257Z" fill="#D8D8D8"/>
<path d="M9.30347 19.599C9.13239 15.624 8.68959 9.10296 7.5625 0.64976L8.41789 0.539062C9.54498 9.02245 9.98777 15.5636 10.1588 19.5688L9.30347 19.599Z" fill="#938F9E"/>
<path d="M8.02262 3.06509L7.25781 2.67262C8.31446 0.619703 8.49559 0.52913 8.61635 0.46875L9.01889 1.23357C9.0692 1.20338 9.09938 1.17319 9.09938 1.17319C8.95849 1.31408 8.43521 2.27009 8.02262 3.06509Z" fill="#B7B3C4"/>
<path d="M8.34294 5.83071L7.57812 5.43824C8.63478 3.38533 8.81593 3.29475 8.93669 3.23438L9.33921 3.99919C9.38953 3.969 9.41972 3.93881 9.41972 3.93881C9.27884 4.0797 8.75553 5.02565 8.34294 5.83071Z" fill="#B7B3C4"/>
<path d="M8.66325 9.04166L7.89844 8.64919C8.95509 6.59627 9.13622 6.50569 9.25698 6.44531L9.65953 7.21013C9.70984 7.17994 9.74002 7.14974 9.74002 7.14974C9.59913 7.30069 9.07585 8.24665 8.66325 9.04166Z" fill="#B7B3C4"/>
<path d="M8.92105 12.2135L8.15625 11.8211C9.2129 9.76813 9.39403 9.67757 9.51478 9.61719L9.91733 10.382C9.96764 10.3518 9.99782 10.3216 9.99782 10.3216C9.85693 10.4625 9.33365 11.4185 8.92105 12.2135Z" fill="#B7B3C4"/>
<path d="M9.17105 15.776L8.40625 15.3836C9.4629 13.3306 9.64403 13.2401 9.76478 13.1797L10.1673 13.9445C10.2176 13.9143 10.2478 13.8841 10.2478 13.8841C10.1069 14.025 9.58365 14.971 9.17105 15.776Z" fill="#B7B3C4"/>
<path d="M9.37418 19.6588L8.60938 19.2664C9.66602 17.2135 9.84715 17.1229 9.96791 17.0625L10.3705 17.8273C10.4208 17.7971 10.451 17.7669 10.451 17.7669C10.3101 17.9179 9.78677 18.8638 9.37418 19.6588Z" fill="#B7B3C4"/>
<defs>
<linearGradient id="paint0_linear_87_10623" x1="5.07546" y1="22.1085" x2="17.9679" y2="21.7114" gradientUnits="userSpaceOnUse">
<stop stop-color="#BFAB8D"/>
<stop offset="0.5078" stop-color="#E7E1D2"/>
<stop offset="1" stop-color="#CCBFA6"/>
</linearGradient>
<linearGradient id="paint1_linear_87_10623" x1="-3.07461" y1="48.8901" x2="23.6517" y2="48.0668" gradientUnits="userSpaceOnUse">
<stop stop-color="#94938C"/>
<stop offset="0.0311" stop-color="#A6A59D"/>
<stop offset="0.0939" stop-color="#C5C3BB"/>
<stop offset="0.1552" stop-color="#DBD9D0"/>
<stop offset="0.2138" stop-color="#E8E7DD"/>
<stop offset="0.2666" stop-color="#EDEBE1"/>
<stop offset="0.7117" stop-color="#EDEBE1"/>
<stop offset="0.7637" stop-color="#E7E5DB"/>
<stop offset="0.835" stop-color="#D5D3CA"/>
<stop offset="0.9175" stop-color="#B8B7AF"/>
<stop offset="1" stop-color="#94938C"/>
</linearGradient>
</defs>
</svg>
