<svg width="20" height="72" viewBox="0 0 20 72" fill="none" xmlns="http://www.w3.org/2000/svg">
<path d="M16.2386 47.9932C16.2386 47.9932 4.15252 44.9642 3.15625 46.6951L8.03696 12.1376C8.03696 12.1376 7.88602 3.26172 9.19426 3.26172C10.5025 3.26172 11.8107 7.18642 11.8107 7.18642C11.8107 7.18642 15.9468 39.7212 16.2386 47.9932Z" fill="url(#paint0_linear_87_10613)"/>
<path d="M13.9144 44.5027C13.9144 44.5027 21.1096 53.9824 19.8014 61.8217C19.3787 64.3577 18.5133 66.9943 16.9937 69.0875C16.2491 70.1038 15.283 71.0297 14.0653 71.4322C12.4552 71.9656 10.3821 71.5429 8.772 71.1907C7.977 71.0095 7.19206 70.768 6.45743 70.4259C1.27482 68.0409 -0.0937977 61.8922 0.318799 56.6894C0.610635 53.0264 1.7176 49.4841 3.16672 46.133C4.10261 43.9593 6.28635 43.3857 8.46003 43.0838C10.0903 42.8423 12.7973 43.0335 13.9144 44.5027Z" fill="url(#paint1_linear_87_10613)"/>
<path d="M13.9456 44.5301C13.9456 44.5301 21.1409 54.0097 19.8327 61.8491C19.41 64.385 18.5446 67.0216 17.025 69.1148C16.2803 70.1312 15.3142 71.057 14.0966 71.4595C12.4864 71.9929 10.4134 71.5702 8.80327 71.218C8.00826 71.0369 7.22332 70.7954 6.48869 70.4532C1.30607 68.0682 -0.0625483 61.9195 0.350049 56.7167C0.641886 53.0537 1.74886 49.5114 3.19798 46.1603C4.13387 43.9866 6.31762 43.413 8.49131 43.1111C10.1115 42.8696 12.8286 43.0608 13.9456 44.5301Z" fill="url(#paint2_linear_87_10613)"/>
<path d="M7.98688 10.2663C8.3391 16.3848 7.79567 22.6845 7.69504 28.8131C7.62459 33.0799 7.83593 37.3669 7.40321 41.6337C6.99061 45.6591 5.2094 49.2718 4.14268 53.1361C3.05584 57.1212 4.73642 66.3896 9.94923 66.0373C15.162 65.6851 17.1646 60.5729 17.1646 56.9401C17.1646 51.4052 15.1922 43.9986 14.3771 38.5745C13.3104 31.4597 12.9884 25.9752 12.1128 18.8403C11.8311 16.566 11.4788 13.9596 11.4788 11.6752C11.2977 10.5984 11.0562 7.09637 10.704 6.04978C10.4625 5.31516 9.7077 2.80938 8.98314 3.19179C8.67118 3.3528 7.96676 9.76315 7.98688 10.2663Z" fill="#FCF2D9"/>
<path d="M13.2728 55.8919C13.7056 54.9762 13.3433 50.6188 13.3131 49.1898C13.2728 47.1368 12.3369 38.1201 12.1659 33.9035C11.9445 28.4794 10.9381 18.889 10.8073 15.075C10.5054 6.2998 9.12674 3.01916 8.9456 3.13992C8.79465 3.25062 9.76072 12.1265 9.57958 14.7128C9.39844 17.299 9.9318 26.7083 9.59971 32.1324C9.36825 35.9062 8.89528 45.7682 8.9456 47.6501C8.99591 49.5722 8.58332 54.3321 8.97579 55.1875C9.41857 56.1335 9.962 56.7071 10.8174 56.7876C11.6828 56.858 12.8401 56.8077 13.2728 55.8919Z" fill="#D8D8D8"/>
<path d="M10.6159 31.4055C10.1329 17.4678 9.07625 6.84089 8.28125 0.380229L9.13664 0.269531C9.94171 6.75032 10.9983 17.4074 11.4814 31.3753L10.6159 31.4055Z" fill="#938F9E"/>
<path d="M12.1801 31.1652C12.0292 31.1149 11.8581 31.0645 10.6304 29.5148C10.0669 28.8003 9.52344 28.0858 9.52344 28.0757L10.2178 27.5625C11.1336 28.7902 12.2808 30.2192 12.5122 30.3802C12.5122 30.3802 12.4921 30.3601 12.4519 30.35L12.1801 31.1652Z" fill="#B7B3C4"/>
<path d="M11.938 26.6261C11.787 26.5758 11.6159 26.5255 10.3882 24.9757C9.82466 24.2612 9.28125 23.5467 9.28125 23.5367L9.97561 23.0234C10.8914 24.2512 12.0386 25.6802 12.2701 25.8412C12.2701 25.8412 12.2499 25.821 12.2097 25.811L11.938 26.6261Z" fill="#B7B3C4"/>
<path d="M11.5942 21.3527C11.4433 21.3024 11.2722 21.2521 10.0445 19.7023C9.48093 18.9878 8.9375 18.2733 8.9375 18.2632L9.63188 17.75C10.5476 18.9777 11.6949 20.4067 11.9263 20.5677C11.9263 20.5677 11.9062 20.5476 11.866 20.5375L11.5942 21.3527Z" fill="#B7B3C4"/>
<path d="M11.1411 16.1808C10.9901 16.1305 10.8191 16.0802 9.59135 14.5304C9.0278 13.8159 8.48438 13.1014 8.48438 13.0914L9.17875 12.5781C10.0945 13.8058 11.2417 15.2348 11.4732 15.3958C11.4732 15.3958 11.4531 15.3757 11.4128 15.3657L11.1411 16.1808Z" fill="#B7B3C4"/>
<path d="M10.5786 10.3839C10.4276 10.3336 10.2566 10.2833 9.02884 8.73354C8.4653 8.01904 7.92188 7.30454 7.92188 7.29448L8.61624 6.78125C9.532 8.00897 10.6792 9.43797 10.9107 9.59898C10.9107 9.59898 10.8906 9.57886 10.8503 9.56879L10.5786 10.3839Z" fill="#B7B3C4"/>
<path d="M9.85204 4.05189C9.70109 4.00157 9.53002 3.95126 8.30229 2.4015C7.73874 1.68701 7.19531 0.972513 7.19531 0.96245L7.88969 0.449219C8.80545 1.67694 9.95267 3.10594 10.1841 3.26695C10.1841 3.26695 10.164 3.24682 10.1238 3.23676L9.85204 4.05189Z" fill="#B7B3C4"/>
<defs>
<linearGradient id="paint0_linear_87_10613" x1="4.81439" y1="25.8703" x2="14.419" y2="25.5745" gradientUnits="userSpaceOnUse">
<stop stop-color="#BFAB8D"/>
<stop offset="0.5078" stop-color="#E7E1D2"/>
<stop offset="1" stop-color="#CCBFA6"/>
</linearGradient>
<linearGradient id="paint1_linear_87_10613" x1="-5.27229" y1="57.0447" x2="26.5324" y2="57.6131" gradientUnits="userSpaceOnUse">
<stop stop-color="#94938C"/>
<stop offset="0.2666" stop-color="#EDEBE1"/>
<stop offset="0.7117" stop-color="#EDEBE1"/>
<stop offset="1" stop-color="#94938C"/>
</linearGradient>
<linearGradient id="paint2_linear_87_10613" x1="-6.01572" y1="57.0601" x2="26.9369" y2="57.6491" gradientUnits="userSpaceOnUse">
<stop stop-color="#94938C"/>
<stop offset="0.0617" stop-color="#A4A29B"/>
<stop offset="0.1809" stop-color="#CCCAC2"/>
<stop offset="0.2666" stop-color="#EDEBE1"/>
<stop offset="0.7117" stop-color="#EDEBE1"/>
<stop offset="0.7719" stop-color="#E0DED5"/>
<stop offset="0.883" stop-color="#BEBDB4"/>
<stop offset="1" stop-color="#94938C"/>
</linearGradient>
</defs>
</svg>
