<svg width="19" height="63" viewBox="0 0 19 63" fill="none" xmlns="http://www.w3.org/2000/svg">
<path d="M12.508 37.3271C12.508 37.3271 15.7786 38.6354 16.7547 46.1527C16.7547 46.1527 17.7309 53.992 18.063 56.2865C18.395 58.5809 18.385 61.5194 14.7924 62.4955C11.1998 63.4717 7.92917 62.8176 5.96682 62.1735C4.00447 61.5194 1.06597 59.5571 0.411849 57.2727C-0.242268 54.9883 0.41185 43.8683 1.38799 41.916C2.3742 39.9436 4.66865 34.7207 12.508 37.3271Z" fill="url(#paint0_linear_87_10603)"/>
<path d="M9.23675 6.28271C9.23675 6.28271 16.4119 21.9715 13.4734 38.4753C13.4734 38.4753 3.06792 37.2375 2.55469 40.0653C4.01387 33.2021 4.71831 25.9666 4.42647 18.9625C4.30571 16.1146 4.10444 13.2767 4.034 10.4288C3.98368 8.57715 3.66165 6.46385 4.45666 4.73295C4.78875 4.00839 5.34223 2.94168 6.24793 2.86117C7.79769 2.72029 8.7839 5.22606 9.23675 6.28271Z" fill="url(#paint1_linear_87_10603)"/>
<path d="M14.1711 57.4752C14.6341 56.1066 14.4227 54.0939 14.4529 52.7454C14.4932 50.8535 14.473 48.9516 14.2818 47.0697C14.1208 45.53 13.8994 43.94 13.3761 42.501C12.8227 40.9915 12.0679 39.6128 11.766 37.9926C11.605 37.1271 11.5547 36.2315 11.5144 35.3459C11.1723 28.0903 10.9006 20.8245 9.85398 13.6393C9.50177 11.2442 8.56587 4.47162 6.76453 2.87155C5.54687 1.78471 5.94941 7.67176 5.93935 8.70828C5.91922 13.7802 6.09029 18.7917 6.07016 23.8637C6.05003 28.1909 6.84504 33.4842 5.20471 37.4794C4.11787 40.1361 3.10148 41.7965 2.90022 44.7954C2.72914 47.4219 2.548 50.0585 2.37692 52.6851C2.30648 53.7317 2.2461 54.8286 2.55807 55.8148C3.60465 59.1055 9.70304 59.9307 12.1987 59.2665C12.9032 59.0753 13.5774 58.6526 13.9598 57.9482C14.0403 57.8073 14.1108 57.6463 14.1711 57.4752Z" fill="#FCF2D9"/>
<path d="M6.18391 52.3703C5.75119 51.4546 5.63044 46.8053 5.66063 45.3763C5.70088 43.3234 7.10974 34.5482 7.27076 30.3417C7.49215 24.9176 7.18019 14.8743 7.08962 11.0603C6.99905 7.24633 6.31475 2.71783 6.49589 2.75808C6.67703 2.79833 8.08589 8.70551 8.26703 11.2918C8.44817 13.8781 9.52495 23.1967 9.85704 28.6209C10.0885 32.3946 10.9338 41.834 10.8936 43.7159C10.8433 45.638 10.8835 50.8206 10.481 51.6659C10.0382 52.6119 9.16267 53.3364 8.63937 53.266C7.95506 53.1553 6.61664 53.2962 6.18391 52.3703Z" fill="#D8D8D8"/>
<path d="M7.45429 19.9769C7.25302 11.4532 6.66935 4.94224 6.22656 0.987351L7.08194 0.886719C7.53478 4.86174 8.1084 11.3928 8.30966 19.9567L7.45429 19.9769Z" fill="#938F9E"/>
<path d="M8.5344 19.9856C8.40357 19.9454 8.21238 19.875 6.84375 18.0132L7.53813 17.5C8.07149 18.2246 8.73567 19.08 8.89668 19.2108C8.89668 19.2108 8.8665 19.1806 8.80612 19.1705L8.5344 19.9856Z" fill="#B7B3C4"/>
<path d="M8.4094 17.2083C8.27858 17.168 8.08737 17.0976 6.71875 15.2359L7.41312 14.7227C7.94648 15.4472 8.61067 16.3026 8.77168 16.4334C8.77168 16.4334 8.7415 16.4032 8.68112 16.3932L8.4094 17.2083Z" fill="#B7B3C4"/>
<path d="M8.23751 13.9778C8.10669 13.9376 7.91548 13.8671 6.54688 12.0054L7.24124 11.4922C7.7746 12.2167 8.43878 13.0721 8.59979 13.203C8.59979 13.203 8.56961 13.1728 8.50923 13.1627L8.23751 13.9778Z" fill="#B7B3C4"/>
<path d="M7.98751 10.8099C7.85669 10.7696 7.66548 10.6992 6.29688 8.83745L6.99124 8.32422C7.5246 9.04878 8.18878 9.90416 8.34979 10.035C8.34979 10.035 8.31961 10.0048 8.25923 9.99474L7.98751 10.8099Z" fill="#B7B3C4"/>
<path d="M7.69064 7.25518C7.55981 7.21493 7.36862 7.14448 6 5.28276L6.69436 4.76953C7.22772 5.49409 7.8919 6.34947 8.05292 6.4803C8.05292 6.4803 8.02273 6.45011 7.96235 6.44004L7.69064 7.25518Z" fill="#B7B3C4"/>
<path d="M7.2844 3.38407C7.15358 3.34382 6.96237 3.27338 5.59375 1.41166L6.28812 0.898438C6.82148 1.623 7.48567 2.47838 7.64668 2.6092C7.64668 2.6092 7.61648 2.57901 7.5561 2.56894L7.2844 3.38407Z" fill="#B7B3C4"/>
<defs>
<linearGradient id="paint0_linear_87_10603" x1="22.6762" y1="50.455" x2="-3.33433" y2="49.1519" gradientUnits="userSpaceOnUse">
<stop stop-color="#94938C"/>
<stop offset="0.1599" stop-color="#D1CFC6"/>
<stop offset="0.2296" stop-color="#EDEBE1"/>
<stop offset="0.7988" stop-color="#EDEBE1"/>
<stop offset="0.9762" stop-color="#9F9E96"/>
<stop offset="1" stop-color="#94938C"/>
</linearGradient>
<linearGradient id="paint1_linear_87_10603" x1="5.19531" y1="21.4716" x2="14.1762" y2="21.6321" gradientUnits="userSpaceOnUse">
<stop stop-color="#BFAB8D"/>
<stop offset="0.5078" stop-color="#E7E1D2"/>
<stop offset="1" stop-color="#CCBFA6"/>
</linearGradient>
</defs>
</svg>
