<svg width="26" height="77" viewBox="0 0 26 77" fill="none" xmlns="http://www.w3.org/2000/svg">
<path d="M25.5616 72.2941C25.5616 72.2941 27.846 45.4954 15.7599 41.5707C15.7599 41.5707 2.03353 39.2863 0.725291 63.1465C0.685037 63.8308 0.584406 64.5051 0.554216 65.1894C0.493836 66.6788 0.544152 68.1883 0.805799 69.6575C1.07751 71.2073 1.58068 72.7973 2.63734 74.0049C3.15057 74.5885 3.78455 75.0515 4.49904 75.3332C5.12297 75.5747 5.81735 75.6754 6.47147 75.8062C7.27653 75.9672 8.09166 76.1282 8.90679 76.2591C9.34958 76.3295 9.7823 76.3899 10.2251 76.4503C11.8453 76.6415 13.4856 76.7119 15.1159 76.7723C17.7726 76.8729 20.5199 77.0037 22.9955 75.8666C24.4547 75.1823 25.5616 73.9747 25.5616 72.2941Z" fill="url(#paint0_linear_87_10586)"/>
<path d="M11.5176 2.88786C11.9806 2.83754 12.4334 3.00862 12.8561 3.16963C12.997 3.21995 13.1177 3.31052 13.2284 3.42121C14.7782 4.95084 15.5531 8.2013 16.338 10.1838C18.723 16.252 20.5445 22.5617 21.6011 29.0022C22.1244 32.2124 22.4565 35.4528 22.5873 38.6932C22.6477 40.3235 22.6678 41.9638 22.6276 43.5941C22.5974 44.9325 22.8188 46.8747 22.2552 48.0924C21.5709 47.3175 21.0879 46.3917 20.3633 45.647C18.5922 43.8255 16.3078 42.5273 13.7215 42.5273C12.6347 42.5273 11.5579 42.7487 10.5415 43.1211C10.1289 43.272 9.72637 43.4431 9.3339 43.6444C8.18668 44.218 6.79794 45.9388 5.58028 46.0294C5.39914 43.6343 6.00293 40.9474 6.23439 38.5523C6.23439 32.464 7.442 26.0335 8.3477 20.0257C8.61941 18.2143 9.03201 16.4331 8.99175 14.6016C8.9515 12.7097 8.74017 10.8178 8.871 8.92586C8.96157 7.23522 9.18295 3.1495 11.5176 2.88786Z" fill="url(#paint1_linear_87_10586)"/>
<path d="M25.5147 72.0636C25.5147 72.0636 27.7991 45.265 15.713 41.3402C15.713 41.3402 1.98666 39.0559 0.678431 62.916C0.638178 63.6004 0.537531 64.2746 0.507341 64.9589C0.446961 66.4483 0.497277 67.9578 0.758924 69.427C1.03063 70.9768 1.53381 72.5668 2.59046 73.7744C3.10369 74.3581 3.73769 74.821 4.45218 75.1027C5.07611 75.3443 5.77047 75.4449 6.42459 75.5757C7.22966 75.7367 8.04478 75.8978 8.85991 76.0286C9.3027 76.099 9.73542 76.1594 10.1782 76.2198C11.4361 76.3707 12.7142 76.4412 13.9822 76.4915C14.3444 76.5116 15.1193 73.7039 15.4816 73.7241C18.1383 73.8247 17.1722 67.5049 19.6579 66.3778C20.0202 66.2068 23.6731 75.2638 23.9851 75.0323C24.8908 74.3178 25.5147 73.3316 25.5147 72.0636Z" fill="url(#paint2_linear_87_10586)"/>
<path d="M6.33702 69.6048C4.91809 68.4878 4.51555 62.8121 4.61618 61.061C4.747 58.5553 8.04779 43.3697 8.60127 38.2273C9.31577 31.6057 9.97995 24.984 10.3624 18.3321C10.4429 16.893 10.7448 5.72275 11.6102 4.64597C11.8215 4.43464 12.8782 3.45849 13.331 4.98812C14.277 8.13794 15.1626 15.9974 15.5349 19.0667C16.3601 25.7287 17.5577 32.3403 18.6344 38.9619C19.3791 43.571 21.8849 56.7338 21.7339 59.0282C21.583 61.373 21.6937 67.7028 20.3955 68.7394C18.9565 69.8966 16.0884 70.7822 14.3575 70.6816C12.1335 70.5608 7.75595 70.7319 6.33702 69.6048Z" fill="#FCF2D9"/>
<path d="M10.246 61.7874C9.70255 60.7609 9.55159 55.5582 9.58178 53.9581C9.6321 51.6536 10.9001 37.736 11.1114 33.0163C11.3831 26.9481 11.6448 20.8699 11.7857 14.7715C11.8159 13.4532 11.9366 2.40362 12.3693 2.72565C12.5102 2.80616 12.5505 2.72565 12.5907 2.97723C13.3254 6.85162 13.5568 11.2694 13.7782 15.4457C14.0902 21.5542 14.5531 27.6123 14.9657 33.6805C15.2575 37.9071 16.2135 49.973 16.1632 52.0763C16.1029 54.2298 16.1431 60.0263 15.65 60.9723C15.0965 62.0289 13.9895 62.844 13.3254 62.7535C12.48 62.673 10.7995 62.8239 10.246 61.7874Z" fill="#D8D8D8"/>
<path d="M13.1005 29.0205C12.7986 16.4313 11.9432 6.81071 11.2891 0.963913L12.1445 0.863281C12.8086 6.73021 13.664 16.3709 13.9659 28.9903L13.1005 29.0205Z" fill="#938F9E"/>
<path d="M14.5413 28.8488C14.3903 28.7985 14.2394 28.7482 13.1425 27.3293C12.6393 26.6752 12.1562 26.021 12.1562 26.021L12.8506 25.5078C13.6658 26.6148 14.6721 27.9129 14.8935 28.0639C14.8935 28.0639 14.8733 28.0438 14.823 28.0337L14.5413 28.8488Z" fill="#B7B3C4"/>
<path d="M14.3694 24.7434C14.2184 24.693 14.0675 24.6427 12.9706 23.2238C12.4674 22.5697 11.9844 21.9156 11.9844 21.9156L12.6788 21.4023C13.4939 22.5093 14.5002 23.8075 14.7216 23.9584C14.7216 23.9584 14.7015 23.9383 14.6512 23.9282L14.3694 24.7434Z" fill="#B7B3C4"/>
<path d="M14.1038 19.9856C13.9528 19.9352 13.8019 19.8849 12.705 18.466C12.2018 17.8119 11.7188 17.1578 11.7188 17.1578L12.4131 16.6445C13.2283 17.7515 14.2346 19.0497 14.456 19.2006C14.456 19.2006 14.4359 19.1805 14.3855 19.1704L14.1038 19.9856Z" fill="#B7B3C4"/>
<path d="M13.7444 15.3059C13.5934 15.2556 13.4425 15.2052 12.3456 13.7863C11.8424 13.1322 11.3594 12.4781 11.3594 12.4781L12.0537 11.9648C12.8689 13.0718 13.8752 14.37 14.0966 14.5209C14.0966 14.5209 14.0765 14.5008 14.0262 14.4907L13.7444 15.3059Z" fill="#B7B3C4"/>
<path d="M13.2913 10.0598C13.1403 10.0095 12.9894 9.95915 11.8925 8.54022C11.3893 7.8861 10.9062 7.23198 10.9062 7.23198L11.6006 6.71875C12.4157 7.82572 13.4221 9.12389 13.6435 9.27484C13.6435 9.27484 13.6233 9.25472 13.573 9.24465L13.2913 10.0598Z" fill="#B7B3C4"/>
<path d="M12.6975 4.33321C12.5466 4.2829 12.3956 4.23259 11.2987 2.81366C10.7955 2.15954 10.3125 1.50542 10.3125 1.50542L11.0069 0.992188C11.822 2.09915 12.8283 3.39733 13.0497 3.54828C13.0497 3.54828 13.0296 3.52815 12.9793 3.51809L12.6975 4.33321Z" fill="#B7B3C4"/>
<defs>
<linearGradient id="paint0_linear_87_10586" x1="30.6314" y1="59.1539" x2="-4.38981" y2="59.1726" gradientUnits="userSpaceOnUse">
<stop stop-color="#94938C"/>
<stop offset="0.2296" stop-color="#EDEBE1"/>
<stop offset="0.7876" stop-color="#EDEBE1"/>
<stop offset="1" stop-color="#94938C"/>
</linearGradient>
<linearGradient id="paint1_linear_87_10586" x1="18.9156" y1="25.4531" x2="5.43426" y2="25.6939" gradientUnits="userSpaceOnUse">
<stop stop-color="#BFAB8D"/>
<stop offset="0.5078" stop-color="#E7E1D2"/>
<stop offset="1" stop-color="#CCBFA6"/>
</linearGradient>
<linearGradient id="paint2_linear_87_10586" x1="30.5837" y1="58.8748" x2="-4.43748" y2="58.8925" gradientUnits="userSpaceOnUse">
<stop stop-color="#94938C"/>
<stop offset="0.2296" stop-color="#EDEBE1"/>
<stop offset="0.7876" stop-color="#EDEBE1"/>
<stop offset="1" stop-color="#94938C"/>
</linearGradient>
</defs>
</svg>
