<svg width="26" height="77" viewBox="0 0 26 77" fill="none" xmlns="http://www.w3.org/2000/svg">
<path d="M0.242214 72.2902C0.242214 72.2902 -2.04216 45.4915 10.0439 41.5668C10.0439 41.5668 23.7703 39.2824 25.0785 63.1426C25.1187 63.8269 25.2194 64.5012 25.2496 65.1855C25.31 66.6748 25.2596 68.1843 24.998 69.6536C24.7263 71.2033 24.2231 72.7934 23.1665 74.001C22.6532 74.5846 22.0192 75.0475 21.3047 75.3293C20.6808 75.5708 19.9865 75.6715 19.3323 75.8023C18.5273 75.9633 17.7121 76.1243 16.897 76.2551C16.4542 76.3256 16.0215 76.386 15.5787 76.4463C13.9585 76.6375 12.3182 76.708 10.688 76.7684C8.03123 76.869 5.28394 76.9998 2.80837 75.8627C1.34918 75.1784 0.242214 73.9708 0.242214 72.2902Z" fill="url(#paint0_linear_87_10592)"/>
<path d="M14.2871 2.88395C13.8242 2.83363 13.3714 3.00471 12.9487 3.16572C12.8078 3.21604 12.687 3.30661 12.5763 3.41731C11.0266 4.94693 10.2517 8.19739 9.46678 10.1799C7.08177 16.2481 5.26031 22.5578 4.20366 28.9983C3.68037 32.2085 3.34826 35.4489 3.21744 38.6893C3.15706 40.3196 3.13694 41.9599 3.17719 43.5902C3.20738 44.9286 2.98599 46.8708 3.54953 48.0885C4.23384 47.3136 4.71688 46.3878 5.44144 45.6431C7.21259 43.8216 9.49697 42.5234 12.0833 42.5234C13.1701 42.5234 14.2469 42.7448 15.2633 43.1172C15.6758 43.2681 16.0784 43.4392 16.4709 43.6405C17.6181 44.2141 19.0068 45.9349 20.2245 46.0255C20.4056 43.6304 19.8018 40.9435 19.5704 38.5484C19.5704 32.4601 18.3628 26.0296 17.4571 20.0218C17.1853 18.2104 16.7728 16.4292 16.813 14.5977C16.8533 12.7058 17.0646 10.8139 16.9338 8.92195C16.8331 7.23131 16.6218 3.1456 14.2871 2.88395Z" fill="url(#paint1_linear_87_10592)"/>
<path d="M0.289092 72.0597C0.289092 72.0597 -1.99529 45.261 10.0908 41.3363C10.0908 41.3363 23.8172 39.052 25.1254 62.9121C25.1657 63.5965 25.2663 64.2707 25.2965 64.955C25.3568 66.4444 25.3065 67.9539 25.0449 69.4231C24.7732 70.9729 24.27 72.5629 23.2133 73.7705C22.7001 74.3542 22.0661 74.8171 21.3517 75.0989C20.7277 75.3404 20.0333 75.441 19.3792 75.5718C18.5741 75.7328 17.759 75.8939 16.9439 76.0247C16.5011 76.0951 16.0684 76.1555 15.6256 76.2159C14.3677 76.3668 13.0896 76.4373 11.8217 76.4876C11.4594 76.5077 10.6845 73.7 10.3222 73.7202C7.66552 73.8208 8.63159 67.501 6.14594 66.3739C5.78366 66.2029 2.13067 75.2599 1.81871 75.0284C0.913008 74.3139 0.289092 73.3277 0.289092 72.0597Z" fill="url(#paint2_linear_87_10592)"/>
<path d="M19.4737 69.6048C20.8927 68.4878 21.2952 62.8121 21.1946 61.0611C21.0638 58.5553 17.763 43.3697 17.2095 38.2273C16.495 31.6057 15.8308 24.984 15.4484 18.3321C15.3679 16.8931 15.066 5.72275 14.2006 4.64597C13.9892 4.43464 12.9326 3.45849 12.4797 4.98812C11.5338 8.13794 10.6482 15.9974 10.2759 19.0667C9.45068 25.7287 8.25314 32.3403 7.17636 38.962C6.43167 43.571 3.9259 56.7338 4.07685 59.0283C4.2278 61.373 4.11711 67.7029 5.41528 68.7394C6.85433 69.8967 9.72238 70.7822 11.4533 70.6816C13.6672 70.5608 18.0447 70.7319 19.4737 69.6048Z" fill="#FCF2D9"/>
<path d="M15.4973 62.0569C16.0407 61.0304 16.1916 55.8277 16.1614 54.2276C16.1111 51.9231 14.8431 38.0055 14.6318 33.2858C14.3601 27.2176 14.0985 21.1394 13.9576 15.041C13.9274 13.7227 13.8066 2.67316 13.3739 2.99518C13.233 3.07569 13.1928 2.99518 13.1525 3.24677C12.4179 7.12115 12.1864 11.539 11.965 15.7152C11.6531 21.8237 11.1902 27.8818 10.7776 33.95C10.4857 38.1766 9.52972 50.2426 9.58004 52.3458C9.64042 54.4993 9.60016 60.2958 10.0933 61.2418C10.6467 62.2984 11.7537 63.1136 12.4179 63.023C13.2733 62.9324 14.9538 63.0834 15.4973 62.0569Z" fill="#D8D8D8"/>
<path d="M12.5842 28.655L11.7188 28.6348C12.0207 16.0154 12.876 6.37474 13.5402 0.507812L14.3956 0.608444C13.7314 6.44518 12.8861 16.0557 12.5842 28.655Z" fill="#938F9E"/>
<path d="M11.1468 28.4855L10.8751 27.6704C10.8349 27.6805 10.8047 27.7006 10.8047 27.7006C11.0261 27.5396 12.0324 26.2515 12.8475 25.1445L13.5419 25.6578C13.5419 25.6678 13.0589 26.3119 12.5557 26.966C11.4487 28.3849 11.2978 28.4352 11.1468 28.4855Z" fill="#B7B3C4"/>
<path d="M11.3187 24.3762L11.047 23.561C11.0068 23.5711 10.9766 23.5912 10.9766 23.5912C11.198 23.4302 12.2043 22.1421 13.0194 21.0352L13.7138 21.5484C13.7138 21.5584 13.2308 22.2025 12.7276 22.8566C11.6206 24.2755 11.4697 24.3259 11.3187 24.3762Z" fill="#B7B3C4"/>
<path d="M11.5765 19.6067L11.3048 18.7915C11.2646 18.8016 11.2344 18.8217 11.2344 18.8217C11.4558 18.6607 12.4621 17.3726 13.2772 16.2656L13.9716 16.7789C13.9716 16.7889 13.4886 17.433 12.9854 18.0871C11.8784 19.506 11.7275 19.5563 11.5765 19.6067Z" fill="#B7B3C4"/>
<path d="M11.9437 14.9387L11.672 14.1236C11.6318 14.1336 11.6016 14.1537 11.6016 14.1537C11.823 13.9927 12.8293 12.7046 13.6444 11.5977L14.3388 12.1109C14.3388 12.121 13.8558 12.765 13.3526 13.4191C12.2456 14.8381 12.0846 14.8884 11.9437 14.9387Z" fill="#B7B3C4"/>
<path d="M12.3968 9.6965L12.1251 8.88137C12.0849 8.89143 12.0547 8.91156 12.0547 8.91156C12.2761 8.75054 13.2824 7.46244 14.0975 6.35547L14.7919 6.8687C14.7919 6.87876 14.3089 7.52282 13.8057 8.17694C12.6887 9.5858 12.5377 9.64618 12.3968 9.6965Z" fill="#B7B3C4"/>
<path d="M12.9906 3.96994L12.7189 3.1548C12.6786 3.16487 12.6484 3.18499 12.6484 3.18499C12.8698 3.02398 13.8761 1.73588 14.6913 0.628906L15.3857 1.14213C15.3857 1.1522 14.9026 1.79625 14.3995 2.45037C13.2925 3.8693 13.1415 3.91962 12.9906 3.96994Z" fill="#B7B3C4"/>
<defs>
<linearGradient id="paint0_linear_87_10592" x1="-4.83785" y1="59.1539" x2="30.1852" y2="59.1716" gradientUnits="userSpaceOnUse">
<stop stop-color="#94938C"/>
<stop offset="0.2296" stop-color="#EDEBE1"/>
<stop offset="0.7876" stop-color="#EDEBE1"/>
<stop offset="1" stop-color="#94938C"/>
</linearGradient>
<linearGradient id="paint1_linear_87_10592" x1="6.88281" y1="25.4492" x2="20.3641" y2="25.69" gradientUnits="userSpaceOnUse">
<stop stop-color="#BFAB8D"/>
<stop offset="0.5078" stop-color="#E7E1D2"/>
<stop offset="1" stop-color="#CCBFA6"/>
</linearGradient>
<linearGradient id="paint2_linear_87_10592" x1="-4.78826" y1="58.8738" x2="30.2329" y2="58.8915" gradientUnits="userSpaceOnUse">
<stop stop-color="#94938C"/>
<stop offset="0.2296" stop-color="#EDEBE1"/>
<stop offset="0.7876" stop-color="#EDEBE1"/>
<stop offset="1" stop-color="#94938C"/>
</linearGradient>
</defs>
</svg>
