<svg width="21" height="10" viewBox="0 0 21 10" fill="none" xmlns="http://www.w3.org/2000/svg">
<path d="M8.78531 4.17969L8.69531 4.8497L20.4653 6.55969L20.5353 5.8797L8.78531 4.17969Z" fill="#7C7B79"/>
<path opacity="0.6" d="M2.27632 0.949511C2.27632 0.949511 8.69632 -0.920489 13.3063 0.699511C14.7963 1.21951 16.3063 1.95951 17.4263 2.89951C17.9663 3.35951 18.4363 3.90952 18.5563 4.48952C18.7263 5.26952 18.2663 6.10952 17.8963 6.76952C17.7163 7.08952 17.4863 7.39951 17.2063 7.67951C15.2663 9.62951 11.4163 9.39952 8.31631 8.51952C6.13631 7.89952 4.09631 6.93951 2.21631 5.85951C0.996313 5.15951 0.856311 4.12951 0.886311 3.13951C0.906311 2.39951 1.27632 1.23951 2.27632 0.949511Z" fill="white"/>
</svg>
