<svg width="20" height="15" viewBox="0 0 20 15" fill="none" xmlns="http://www.w3.org/2000/svg">
<path d="M8.94843 8.23343L0.408417 9.17343L0.398438 9.86343L9.03842 8.90343H9.04843L19.4184 6.97343L19.4384 6.27344L8.94843 8.23343Z" fill="#7C7B79"/>
<path opacity="0.6" d="M7.55579 0.965063C7.55579 0.965063 3.97577 5.68505 4.62577 9.59505C4.83577 10.8551 5.26579 12.1751 6.02579 13.2151C6.39579 13.7251 6.87579 14.1851 7.48579 14.3851C8.28579 14.6551 9.31577 14.4451 10.1258 14.2651C10.5258 14.1751 10.9158 14.0551 11.2858 13.8851C13.8658 12.6951 14.5558 9.63506 14.3458 7.03506C14.1958 5.21506 13.6458 3.44506 12.9258 1.77506C12.4558 0.69506 11.3758 0.405056 10.2858 0.255056C9.46577 0.135056 8.11579 0.225063 7.55579 0.965063Z" fill="white"/>
</svg>
