<svg width="26" height="11" viewBox="0 0 26 11" fill="none" xmlns="http://www.w3.org/2000/svg">
<path d="M11.7919 5.15875H11.7719L0.441864 7.26875L0.421875 7.96875L11.8519 5.82875L25.5019 4.89874L25.5219 4.21875L11.7919 5.15875Z" fill="#7C7B79"/>
<path opacity="0.6" d="M21.2725 1.23209C21.2725 1.23209 14.1225 -0.847904 8.98248 0.952096C7.32248 1.5321 5.6425 2.35209 4.4025 3.40209C3.8025 3.91209 3.28249 4.52209 3.14249 5.18209C2.95249 6.04209 3.46248 6.9921 3.88248 7.7221C4.09248 8.0821 4.33249 8.42209 4.64249 8.73209C6.80249 10.9021 11.0825 10.6521 14.5425 9.6721C16.9725 8.9821 19.2425 7.91211 21.3425 6.71211C22.7025 5.93211 22.8525 4.78209 22.8225 3.68209C22.8025 2.84209 22.3725 1.55209 21.2725 1.23209Z" fill="white"/>
</svg>
