<svg width="24" height="10" viewBox="0 0 24 10" fill="none" xmlns="http://www.w3.org/2000/svg">
<path d="M11.3 5.47969L0.519989 6.2197L0.5 6.89969L11.36 6.1597H11.37L23.44 4.36969L23.45 3.67969L11.3 5.47969Z" fill="#7C7B79"/>
<path opacity="0.6" d="M19.4492 1.30889C19.4492 1.30889 13.0292 -0.561114 8.41923 1.05889C6.92923 1.57889 5.41923 2.31888 4.29923 3.25888C3.75923 3.71888 3.28923 4.26889 3.16923 4.84889C2.99923 5.62889 3.45923 6.46889 3.82923 7.12889C4.00923 7.44889 4.23923 7.75888 4.51923 8.03888C6.45923 9.98888 10.3092 9.75889 13.4092 8.87889C15.5892 8.25889 17.6292 7.29889 19.5092 6.21889C20.7292 5.51889 20.8692 4.48889 20.8392 3.49889C20.8292 2.75889 20.4492 1.59889 19.4492 1.30889Z" fill="white"/>
</svg>
