<svg width="21" height="10" viewBox="0 0 21 10" fill="none" xmlns="http://www.w3.org/2000/svg">
<path d="M11.1775 5.09375L0.44751 6.68375L0.4375 7.37375L11.2775 5.76375L11.1775 5.09375Z" fill="#7C7B79"/>
<path opacity="0.6" d="M18.8867 1.68389C18.8867 1.68389 12.4667 -0.186114 7.85673 1.43389C6.36673 1.95389 4.85673 2.69389 3.73673 3.63389C3.19673 4.09389 2.72673 4.64389 2.60673 5.22389C2.43673 6.00389 2.89673 6.84389 3.26673 7.50389C3.44673 7.82389 3.67673 8.13389 3.95673 8.41389C5.89673 10.3639 9.74672 10.1339 12.8467 9.25389C15.0267 8.63389 17.0667 7.67388 18.9467 6.59388C20.1667 5.89388 20.3067 4.86388 20.2767 3.87388C20.2667 3.13388 19.8867 1.97389 18.8867 1.68389Z" fill="white"/>
</svg>
