<svg width="21" height="10" viewBox="0 0 21 10" fill="none" xmlns="http://www.w3.org/2000/svg">
<path d="M0.777496 5.54688L0.6875 6.21687L20.3675 9.07687L20.4875 8.40688L0.777496 5.54688Z" fill="#7C7B79"/>
<path opacity="0.6" d="M1.91694 1.20732C1.91694 1.20732 8.33693 -0.662677 12.9469 0.957323C14.4369 1.47732 15.9469 2.21732 17.0669 3.15732C17.6069 3.61732 18.0769 4.16732 18.1969 4.74732C18.3669 5.52732 17.9069 6.36732 17.5369 7.02732C17.3569 7.34732 17.1269 7.65732 16.8469 7.93732C14.9069 9.88732 11.0569 9.65732 7.95694 8.77732C5.77694 8.15732 3.73694 7.19731 1.85694 6.11731C0.636938 5.41731 0.496936 4.38731 0.526936 3.39731C0.536936 2.65731 0.916935 1.49732 1.91694 1.20732Z" fill="white"/>
</svg>
