<svg width="19" height="16" viewBox="0 0 19 16" fill="none" xmlns="http://www.w3.org/2000/svg">
<path d="M14.1031 9.62093L0.233124 7.96094L0.203125 8.64093L14.0331 10.3009H14.0431L18.1731 10.4509L18.2031 9.77094L14.1031 9.62093Z" fill="#7C7B79"/>
<path opacity="0.6" d="M7.88389 1.63574C7.88389 1.63574 4.30389 6.35574 4.95389 10.2657C5.16389 11.5257 5.59389 12.8457 6.35389 13.8857C6.72389 14.3957 7.2039 14.8557 7.8139 15.0557C8.6139 15.3257 9.6439 15.1157 10.4539 14.9357C10.8539 14.8457 11.2439 14.7257 11.6139 14.5557C14.1939 13.3657 14.8839 10.3057 14.6739 7.70574C14.5239 5.88574 13.9739 4.11573 13.2539 2.44573C12.7839 1.36573 11.7039 1.07573 10.6139 0.925729C9.79388 0.805729 8.43389 0.905736 7.88389 1.63574Z" fill="white"/>
</svg>
