<svg width="18" height="15" viewBox="0 0 18 15" fill="none" xmlns="http://www.w3.org/2000/svg">
<path d="M15.1097 8.32562L15.0897 8.31563L0.209686 7.76562L0.179688 8.44562L15.0297 8.99562L17.2997 9.35562L17.3297 8.67561L15.1097 8.32562Z" fill="#7C7B79"/>
<path opacity="0.6" d="M7.39951 0.944181C7.39951 0.944181 3.81952 5.66419 4.46952 9.57419C4.67952 10.8342 5.10951 12.1542 5.86951 13.1942C6.23951 13.7042 6.71952 14.1642 7.32952 14.3642C8.12952 14.6342 9.15952 14.4242 9.96952 14.2442C10.3695 14.1542 10.7595 14.0342 11.1295 13.8642C13.7095 12.6742 14.3995 9.61419 14.1895 7.01419C14.0395 5.19419 13.4895 3.42418 12.7695 1.75418C12.2995 0.674179 11.2195 0.38419 10.1295 0.23419C9.30952 0.12419 7.94951 0.214181 7.39951 0.944181Z" fill="white"/>
</svg>
