<svg width="19" height="15" viewBox="0 0 19 15" fill="none" xmlns="http://www.w3.org/2000/svg">
<path d="M16.5869 9.22969L0.326874 6.67969L0.296875 7.3597L16.5069 9.9097H16.5269L18.2769 9.94969L18.3069 9.2697L16.5869 9.22969Z" fill="#7C7B79"/>
<path opacity="0.6" d="M10.9894 1.22288C10.9894 1.22288 14.5694 5.94288 13.9194 9.85288C13.7094 11.1129 13.2794 12.4329 12.5194 13.4729C12.1494 13.9829 11.6694 14.4429 11.0594 14.6429C10.2594 14.9129 9.22938 14.7029 8.41938 14.5229C8.01938 14.4329 7.62937 14.3129 7.25937 14.1429C4.67937 12.9529 3.98937 9.89287 4.19937 7.29287C4.34937 5.47287 4.89937 3.70287 5.61937 2.03287C6.08937 0.952873 7.16937 0.662869 8.25937 0.512869C9.07937 0.392869 10.4394 0.482875 10.9894 1.22288Z" fill="white"/>
</svg>
