<svg width="19" height="15" viewBox="0 0 19 15" fill="none" xmlns="http://www.w3.org/2000/svg">
<path d="M2.13467 9.44156L0.0546875 9.46156L0.0946655 10.1416L2.17468 10.1216H2.19467L18.2047 7.53156L18.1747 6.85156L2.13467 9.44156Z" fill="#7C7B79"/>
<path opacity="0.6" d="M7.11045 1.22288C7.11045 1.22288 3.53046 5.94288 4.18046 9.85288C4.39046 11.1129 4.82045 12.4329 5.58045 13.4729C5.95045 13.9829 6.43044 14.4429 7.04044 14.6429C7.84044 14.9129 8.87046 14.7029 9.68046 14.5229C10.0805 14.4329 10.4705 14.3129 10.8405 14.1429C13.4205 12.9529 14.1105 9.89287 13.9005 7.29287C13.7505 5.47287 13.2004 3.70287 12.4804 2.03287C12.0104 0.952873 10.9305 0.662869 9.84046 0.512869C9.02046 0.392869 7.67045 0.482875 7.11045 1.22288Z" fill="white"/>
</svg>
