<svg width="19" height="15" viewBox="0 0 19 15" fill="none" xmlns="http://www.w3.org/2000/svg">
<path d="M2.66187 8.45375H2.64188L0.171875 8.85376L0.201874 9.53375L2.70187 9.13376L18.1519 8.52376L18.1219 7.84375L2.66187 8.45375Z" fill="#7C7B79"/>
<path opacity="0.6" d="M6.88389 0.951994C6.88389 0.951994 3.30389 5.672 3.95389 9.582C4.16389 10.842 4.59389 12.162 5.35389 13.202C5.72389 13.712 6.20388 14.172 6.81388 14.372C7.61388 14.642 8.6439 14.432 9.4539 14.252C9.8539 14.162 10.2439 14.042 10.6139 13.872C13.1939 12.682 13.8839 9.622 13.6739 7.022C13.5239 5.202 12.9739 3.43199 12.2539 1.76199C11.7839 0.681991 10.7039 0.392002 9.6139 0.242002C8.7939 0.132002 7.44389 0.221994 6.88389 0.951994Z" fill="white"/>
</svg>
