<svg width="26" height="11" viewBox="0 0 26 11" fill="none" xmlns="http://www.w3.org/2000/svg">
<path d="M13.5956 5.12907H13.5756L0.595619 4.28906L0.515625 4.96907L13.4956 5.79907L25.5156 8.02907L25.5856 7.35907L13.5956 5.12907Z" fill="#7C7B79"/>
<path opacity="0.6" d="M22.6525 4.4382C22.6525 4.4382 16.4625 0.288209 11.0225 0.458209C9.2625 0.508209 7.4125 0.778206 5.9125 1.40821C5.1825 1.71821 4.5025 2.1382 4.1725 2.7182C3.7325 3.4882 3.9325 4.5382 4.1025 5.3682C4.1925 5.7782 4.3225 6.17821 4.5225 6.56821C5.9325 9.28821 10.0825 10.3482 13.6825 10.4582C16.2025 10.5382 18.6925 10.2082 21.0525 9.6882C22.5825 9.3582 23.0725 8.3082 23.3825 7.2482C23.6225 6.4382 23.6125 5.0782 22.6525 4.4382Z" fill="white"/>
</svg>
