<svg width="21" height="10" viewBox="0 0 21 10" fill="none" xmlns="http://www.w3.org/2000/svg">
<path d="M20.1825 5.46094L0.0625 8.45093L0.192474 9.11093L20.2825 6.14093L20.1825 5.46094Z" fill="#7C7B79"/>
<path opacity="0.6" d="M17.8477 1.38701C17.8477 1.38701 11.4277 -0.482989 6.81767 1.13701C5.32767 1.65701 3.81767 2.39701 2.69767 3.33701C2.15767 3.79701 1.68767 4.347 1.56767 4.927C1.39767 5.707 1.85767 6.54702 2.22767 7.20702C2.40767 7.52702 2.63767 7.83701 2.91767 8.11701C4.85767 10.067 8.70769 9.83702 11.8077 8.95702C13.9877 8.33702 16.0277 7.37701 17.9077 6.29701C19.1277 5.59701 19.2677 4.56701 19.2377 3.57701C19.2277 2.83701 18.8477 1.67701 17.8477 1.38701Z" fill="white"/>
</svg>
