<svg width="19" height="16" viewBox="0 0 19 16" fill="none" xmlns="http://www.w3.org/2000/svg">
<path d="M9.11031 9.25093L0.390305 8.21094L0.320312 8.88094L9.0403 9.92093L9.05031 9.93092L18.4403 10.2709L18.4603 9.60094L9.11031 9.25093Z" fill="#7C7B79"/>
<path opacity="0.6" d="M10.8644 1.54197C10.8644 1.54197 14.4444 6.26198 13.7944 10.172C13.5844 11.432 13.1544 12.752 12.3944 13.792C12.0244 14.302 11.5444 14.762 10.9344 14.962C10.1344 15.232 9.10436 15.022 8.29436 14.842C7.89436 14.752 7.50437 14.632 7.13437 14.462C4.55437 13.272 3.86437 10.212 4.07437 7.61198C4.22437 5.79198 4.77437 4.02199 5.49437 2.35199C5.96437 1.27199 7.04437 0.981981 8.13437 0.831981C8.95437 0.711981 10.3044 0.811973 10.8644 1.54197Z" fill="white"/>
</svg>
