<svg width="27" height="25" viewBox="0 0 27 25" fill="none" xmlns="http://www.w3.org/2000/svg">
<path d="M12.4059 14.3403L0.355942 14.0703L0.335938 14.7503L12.3959 15.0203H26.3359L26.3459 14.3403H12.4059Z" fill="#7C7B79"/>
<path opacity="0.6" d="M21.4637 21.1625C21.4637 21.1625 22.9837 3.35249 14.9437 0.742491C14.9437 0.742491 5.82375 -0.777507 4.95375 15.0725C4.93375 15.5225 4.85375 15.9725 4.84375 16.4325C4.80375 17.4225 4.83375 18.4225 5.01375 19.4025C5.19375 20.4325 5.53374 21.4925 6.22374 22.2925C6.56374 22.6825 6.98375 22.9825 7.46375 23.1725C7.88375 23.3325 8.33374 23.3925 8.77374 23.4825C9.31374 23.5925 9.84374 23.6925 10.3937 23.7825C10.6837 23.8325 10.9737 23.8725 11.2737 23.9025C12.3537 24.0325 13.4437 24.0725 14.5237 24.1125C16.2837 24.1825 18.1137 24.2625 19.7637 23.5125C20.7337 23.0825 21.4637 22.2825 21.4637 21.1625Z" fill="white"/>
</svg>
