<?xml version="1.0" encoding="utf-8"?>
<!-- Generator: Adobe Illustrator 25.3.1, SVG Export Plug-In . SVG Version: 6.00 Build 0)  -->
<svg version="1.1" id="icon" xmlns="http://www.w3.org/2000/svg" xmlns:xlink="http://www.w3.org/1999/xlink" x="0px" y="0px"
	 viewBox="0 0 44.4 20.78" style="enable-background:new 0 0 44.4 20.78;" xml:space="preserve">
<style type="text/css">
	.st0{opacity:0.5;}
	.st1{fill:none;stroke:#FFFFFF;stroke-width:0.5;}
</style>
<g class="st0">
	<path class="st1" d="M39.56,2.19c-0.86,0.19-0.95,2.3-0.89,3.34c-0.52,0.57-0.34,1.23-0.18,1.49c0.29,0.52,0.79,0.34,1.01,0.18
		c0.24,0.19,0.58,0.08,0.71,0c0.14,0.05,0.38,0.02,0.48,0c0.43-0.24,0.5-0.81,0.48-1.07c-0.19-0.52-0.2-1.33-0.18-1.67
		c0.29-1.14,0.12-1.83,0-2.03c-0.24-0.29-0.46,0.4-0.54,0.77c-0.1,0.62-0.36,0.93-0.48,1.01c-0.24,0-0.3-0.75-0.3-1.13
		C39.72,2.23,39.62,2.13,39.56,2.19z"/>
	<path class="st1" d="M39.74,3.32c0.08-0.16,0.24-0.52,0.24-0.71c0.04-0.22,0.18-0.51,0.42,0.06c0.04,0.14,0.1,0.49,0,0.77"/>
	<path class="st1" d="M4.83,2.19c0.86,0.19,0.95,2.3,0.89,3.34C6.25,6.1,6.06,6.76,5.91,7.02C5.62,7.54,5.11,7.35,4.89,7.19
		c-0.24,0.19-0.58,0.08-0.71,0c-0.14,0.05-0.38,0.02-0.48,0c-0.43-0.24-0.5-0.81-0.48-1.07C3.42,5.6,3.42,4.79,3.4,4.45
		c-0.29-1.14-0.12-1.83,0-2.03c0.24-0.29,0.46,0.4,0.54,0.77c0.1,0.62,0.36,0.93,0.48,1.01c0.24,0,0.3-0.75,0.3-1.13
		C4.67,2.23,4.77,2.13,4.83,2.19z"/>
	<path class="st1" d="M4.65,3.32C4.58,3.16,4.42,2.8,4.42,2.61C4.38,2.39,4.24,2.1,4,2.67C3.96,2.81,3.9,3.16,4,3.44"/>
	<path class="st1" d="M41.88,2.37c-0.48,0.43-0.4,1.97-0.3,2.68c-0.48,0.29-0.32,1.15-0.18,1.55c0.33,0.52,0.89,0.34,1.13,0.18
		c0.29-0.24,0.44-0.22,0.48-0.18c0.29,0.24,0.64,0.14,0.77,0.06c0.38-0.33,0.16-1.05,0-1.37c-0.1-0.38-0.08-0.83-0.06-1.01
		c0.14-0.38,0.34-1.43,0.42-1.91c0-0.57-0.24-0.4-0.36-0.24l-0.48,1.01c-0.29,0.52-0.56,0.58-0.66,0.54
		c-0.19-0.14-0.16-1.01-0.12-1.43c0.14-0.52,0.06-0.54,0-0.48C42.3,1.87,42,2.21,41.88,2.37z"/>
	<path class="st1" d="M42.54,2.79c0.08-0.32,0.35-0.98,0.77-1.07c0.1-0.04,0.29-0.05,0.24,0.24c-0.08,0.26-0.23,0.83-0.18,1.07"/>
	<path class="st1" d="M2.51,2.37c0.48,0.43,0.4,1.97,0.3,2.68C3.29,5.34,3.13,6.2,2.99,6.6C2.66,7.12,2.1,6.94,1.86,6.78
		C1.57,6.54,1.42,6.56,1.38,6.6C1.1,6.84,0.75,6.74,0.61,6.66c-0.38-0.33-0.16-1.05,0-1.37c0.1-0.38,0.08-0.83,0.06-1.01
		C0.52,3.9,0.33,2.85,0.25,2.37c0-0.57,0.24-0.4,0.36-0.24l0.48,1.01c0.29,0.52,0.56,0.58,0.66,0.54C1.93,3.54,1.9,2.67,1.86,2.25
		c-0.14-0.52-0.06-0.54,0-0.48C2.1,1.87,2.39,2.21,2.51,2.37z"/>
	<path class="st1" d="M1.86,2.79C1.78,2.47,1.51,1.81,1.08,1.72C0.98,1.68,0.8,1.67,0.85,1.95c0.08,0.26,0.23,0.83,0.18,1.07"/>
	<path class="st1" d="M24.01,0.29C22.87,0.86,22.62,4.34,22.64,6c-0.29,0.48-0.36,1.79-0.36,2.38c-0.14,1,0.97,1.21,1.55,1.19
		c1.19,0,1.53-0.64,1.55-0.95c0.14-1.1-0.34-2.4-0.6-2.92l-0.3-2.86c0-0.52-0.12-1.37-0.18-1.73C24.31,0.31,24.11,0.23,24.01,0.29z"
		/>
	<path class="st1" d="M20.38,0.29c1.14,0.57,1.39,4.05,1.37,5.72c0.29,0.48,0.36,1.79,0.36,2.38c0.14,1-0.97,1.21-1.55,1.19
		c-1.19,0-1.53-0.64-1.55-0.95c-0.14-1.1,0.34-2.4,0.6-2.92l0.3-2.86c0-0.52,0.12-1.37,0.18-1.73C20.08,0.31,20.28,0.23,20.38,0.29z
		"/>
	<path class="st1" d="M26.69,1.77c-0.57,1.05-0.64,3.18-0.6,4.11c-0.33,0.14-0.46,1.25-0.48,1.79c-0.19,1,0.24,1.29,0.48,1.31
		c0.62,0.19,1.13-0.08,1.31-0.24c0.29-0.19,0.36-0.99,0.36-1.37c0.05-0.52-0.18-1.09-0.3-1.31c-0.14-0.57-0.18-3.02-0.18-4.17
		C27.19,1.18,26.85,1.52,26.69,1.77z"/>
	<path class="st1" d="M17.7,1.77c0.57,1.05,0.64,3.18,0.6,4.11c0.33,0.14,0.46,1.25,0.48,1.79c0.19,1-0.24,1.29-0.48,1.31
		c-0.62,0.19-1.13-0.08-1.31-0.24c-0.29-0.19-0.36-0.99-0.36-1.37c-0.05-0.52,0.18-1.09,0.3-1.31c0.14-0.57,0.18-3.02,0.18-4.17
		C17.2,1.18,17.54,1.52,17.7,1.77z"/>
	<path class="st1" d="M28.42,1.06L28.3,5.88c-0.71,1.52-0.22,2.5,0.12,2.8c0.81,0.29,1.41-0.2,1.61-0.48
		c0.48-0.62,0.12-2.08-0.12-2.74l-0.48-3.51c-0.05-0.57-0.46-1.35-0.66-1.67C28.54,0.09,28.44,0.72,28.42,1.06z"/>
	<path class="st1" d="M15.97,1.06l0.12,4.82c0.71,1.52,0.22,2.5-0.12,2.8c-0.81,0.29-1.41-0.2-1.61-0.48
		c-0.48-0.62-0.12-2.08,0.12-2.74l0.48-3.51c0.05-0.57,0.46-1.35,0.66-1.67C15.85,0.09,15.95,0.72,15.97,1.06z"/>
	<path class="st1" d="M30.8,3.74L30.86,6c-0.19,0.24-0.36,0.77-0.42,1.01c-0.19,0.71,0.36,1.21,0.66,1.37c0.24,0.24,0.46,0.1,0.54,0
		c0.48,0.1,0.79-0.24,0.89-0.42c0.38-0.67-0.04-1.63-0.3-2.03c0.05-0.38-0.1-1.31-0.18-1.73c-0.14-0.52-0.18-1.53-0.18-1.97
		c0.1-0.81,0.04-0.93,0-0.89c-0.24,0-0.54,0.48-0.66,0.71C30.98,2.41,30.84,3.32,30.8,3.74z"/>
	<path class="st1" d="M13.59,3.74L13.53,6c0.19,0.24,0.36,0.77,0.42,1.01c0.19,0.71-0.36,1.21-0.66,1.37c-0.24,0.24-0.46,0.1-0.54,0
		c-0.48,0.1-0.79-0.24-0.89-0.42c-0.38-0.67,0.04-1.63,0.3-2.03c-0.05-0.38,0.1-1.31,0.18-1.73c0.14-0.52,0.18-1.53,0.18-1.97
		c-0.1-0.81-0.04-0.93,0-0.89c0.24,0,0.54,0.48,0.66,0.71C13.41,2.41,13.55,3.32,13.59,3.74z"/>
	<path class="st1" d="M33.24,3.5v2.32c-0.57,0.57-0.44,1.51-0.3,1.91c0.05,0.33,0.69,0.42,1.01,0.42c0.38,0.05,0.75-0.18,0.89-0.3
		c0.38-0.86,0-1.79-0.24-2.14c0.05-0.19-0.02-0.79-0.06-1.07c-0.1-0.33-0.24-1.49-0.3-2.03c0.1-0.81,0.04-1.13,0-1.19
		c-0.24-0.19-0.5,0.28-0.6,0.54C33.42,2.29,33.28,3.12,33.24,3.5z"/>
	<path class="st1" d="M11.15,3.5v2.32c0.57,0.57,0.44,1.51,0.3,1.91c-0.05,0.33-0.69,0.42-1.01,0.42c-0.38,0.05-0.75-0.18-0.89-0.3
		c-0.38-0.86,0-1.79,0.24-2.14C9.73,5.52,9.8,4.91,9.84,4.63c0.1-0.33,0.24-1.49,0.3-2.03c-0.1-0.81-0.04-1.13,0-1.19
		c0.24-0.19,0.5,0.28,0.6,0.54C10.97,2.29,11.11,3.12,11.15,3.5z"/>
	<path class="st1" d="M35.74,3.09c-0.38,0.67-0.36,2.03-0.3,2.62c-0.24,0.19-0.3,1.03-0.3,1.43c0.05,0.43,0.5,0.69,0.71,0.77
		c0.57,0.1,0.91-0.2,1.01-0.36c0.62,0.43,0.97,0.18,1.07,0c0.38-0.91,0.16-1.65,0-1.91c-0.1-0.29,0.12-1.07,0.24-1.43
		c0.19-0.76,0.04-1.63-0.06-1.97c-0.33-0.38-0.46,0.16-0.48,0.48c0.05,0.57-0.26,1.35-0.42,1.67c-0.29,0.43-0.56,0.18-0.66,0
		c-0.14-0.38,0.02-1.15,0.12-1.49c0.19-0.62,0.12-0.85,0.06-0.89C36.42,1.82,35.94,2.65,35.74,3.09z"/>
	<path class="st1" d="M37.53,3.62c0.14-0.48,0.06-1.27,0-1.67c-0.19-0.48-0.48-0.24-0.6-0.06c-0.08,0.38-0.26,1.2-0.36,1.49"/>
	<path class="st1" d="M8.64,3.08C9.03,3.75,9,5.11,8.94,5.71c0.24,0.19,0.3,1.03,0.3,1.43c-0.05,0.43-0.5,0.69-0.71,0.77
		C7.95,8,7.61,7.71,7.51,7.55c-0.62,0.43-0.97,0.18-1.07,0c-0.38-0.91-0.16-1.65,0-1.91c0.1-0.29-0.12-1.07-0.24-1.43
		C6.01,3.45,6.16,2.59,6.26,2.25C6.6,1.87,6.72,2.41,6.74,2.73C6.69,3.3,7,4.08,7.16,4.39c0.29,0.43,0.56,0.18,0.66,0
		c0.14-0.38-0.02-1.15-0.12-1.49C7.5,2.29,7.57,2.05,7.63,2.01C7.97,1.82,8.45,2.65,8.64,3.08z"/>
	<path class="st1" d="M6.86,3.62c-0.14-0.48-0.06-1.27,0-1.67c0.19-0.48,0.48-0.24,0.6-0.06c0.08,0.38,0.26,1.2,0.36,1.49"/>
</g>
<g class="st0">
	<path class="st1" d="M22.29,12.44c-0.05,0.62,0.1,2.52,0.18,3.39c0.08,1.05,0.87,3.41,1.25,4.47c0.24,0.43,0.38,0.18,0.42,0
		c0.1-0.43-0.12-3.24-0.24-4.59l0.3-2.92C24.24,12.27,22.94,12.34,22.29,12.44z"/>
	<path class="st1" d="M22.13,12.44c0.05,0.62-0.1,2.52-0.18,3.39c-0.08,1.05-0.87,3.41-1.25,4.47c-0.24,0.43-0.38,0.18-0.42,0
		c-0.1-0.43,0.12-3.24,0.24-4.59l-0.3-2.92C20.18,12.27,21.47,12.34,22.13,12.44z"/>
	<path class="st1" d="M25.98,12.2h-1.49c-0.3,0.12-0.12,1.49-0.12,1.61c0,0.1,0.12,0.95,0.18,1.37l0.54,3.22
		c0.12,0.77,0.48,1.61,0.54,1.67c0.43,0.24,0.42-0.18,0.36-0.42c-0.24-0.52-0.22-3.16-0.18-4.41c0.24-0.38,0.42-1.75,0.48-2.38
		C26.33,12.52,26.1,12.28,25.98,12.2z"/>
	<path class="st1" d="M18.43,12.2h1.49c0.3,0.12,0.12,1.49,0.12,1.61c0,0.1-0.12,0.95-0.18,1.37l-0.54,3.22
		c-0.12,0.77-0.48,1.61-0.54,1.67c-0.43,0.24-0.42-0.18-0.36-0.42c0.24-0.52,0.22-3.16,0.18-4.41c-0.24-0.38-0.42-1.75-0.48-2.38
		C18.09,12.52,18.32,12.28,18.43,12.2z"/>
	<path class="st1" d="M28.54,13.27c0.05,0.76-0.1,1.43-0.18,1.67c-0.05,0.48-0.02,1.99,0,2.68c0.19,0.71,0.24,1.81,0.24,2.26
		c-0.05,0.48-0.34,0.16-0.48-0.06l-0.89-2.38c-0.1-0.29-0.36-1.55-0.48-2.14c-0.14-0.19-0.26-1.43-0.3-2.02
		c-0.19-0.86,0-1.23,0.12-1.31c0.24-0.14,0.77-0.06,1.01,0c0.48,0,0.75,0.24,0.83,0.36L28.54,13.27z"/>
	<path class="st1" d="M15.88,13.27c-0.05,0.76,0.1,1.43,0.18,1.67c0.05,0.48,0.02,1.99,0,2.68c-0.19,0.71-0.24,1.81-0.24,2.26
		c0.05,0.48,0.34,0.16,0.48-0.06l0.89-2.38c0.1-0.29,0.36-1.55,0.48-2.14c0.14-0.19,0.26-1.43,0.3-2.02c0.19-0.86,0-1.23-0.12-1.31
		c-0.24-0.14-0.77-0.06-1.01,0c-0.48,0-0.75,0.24-0.83,0.36L15.88,13.27z"/>
	<path class="st1" d="M28.72,13.09c0,0.43,0.2,1.01,0.3,1.25c0.24,1.76,1.09,3.28,1.49,3.81c0.38,0.24,0.36-0.1,0.3-0.3
		c-0.19-0.71-0.28-1.97-0.3-2.5l0.18-1.25c0.05-0.33,0.1-1.33,0.12-1.79c-0.29-0.52-0.95-0.62-1.25-0.6
		C28.6,11.72,28.6,12.63,28.72,13.09z"/>
	<path class="st1" d="M15.69,13.09c0,0.43-0.2,1.01-0.3,1.25c-0.24,1.76-1.09,3.28-1.49,3.81c-0.38,0.24-0.36-0.1-0.3-0.3
		c0.19-0.71,0.28-1.97,0.3-2.5l-0.18-1.25c-0.05-0.33-0.1-1.33-0.12-1.79c0.29-0.52,0.95-0.62,1.25-0.6
		C15.81,11.72,15.81,12.63,15.69,13.09z"/>
	<path class="st1" d="M31.16,11.84c-0.33,0.33-0.02,1.65,0.18,2.26c0,0.76,0.68,2.34,1.01,3.04c0.33,0.62,0.69,0.69,0.83,0.66
		c0.14-0.19-0.06-0.67-0.18-0.89c-0.33-0.57-0.3-2.14-0.24-2.86l0.24-1.73c0-0.62-0.48-0.73-0.71-0.71c-0.14-0.05-0.38-0.02-0.48,0
		C31.48,11.51,31.24,11.72,31.16,11.84z"/>
	<path class="st1" d="M13.25,11.84c0.33,0.33,0.02,1.65-0.18,2.26c0,0.76-0.68,2.34-1.01,3.04c-0.33,0.62-0.69,0.69-0.83,0.66
		c-0.14-0.19,0.06-0.67,0.18-0.89c0.33-0.57,0.3-2.14,0.24-2.86l-0.24-1.73c0-0.62,0.48-0.73,0.71-0.71c0.14-0.05,0.38-0.02,0.48,0
		C12.93,11.51,13.18,11.72,13.25,11.84z"/>
	<path class="st1" d="M34.02,11.54H33.6c-0.57,0.04-0.32,1.53-0.12,2.26l0.24,1.43c0,0.76,0.91,1.91,1.37,2.38
		c0.29,0.14,0.2-0.26,0.12-0.48c-0.43-0.95-0.26-1.51-0.12-1.67c0.38-0.38,0.71,0.4,0.83,0.83c0.06,0.38,0.24,1.13,0.48,1.13
		c0.24,0,0.38-0.44,0.42-0.66c0.1-0.43-0.2-2.2-0.36-3.04c0.19-0.81,0.08-1.77,0-2.14c-0.14-0.24-0.73-0.22-1.01-0.18
		c-0.1-0.1-0.28,0.04-0.36,0.12C34.8,11.4,34.25,11.48,34.02,11.54z"/>
	<path class="st1" d="M35.27,15.41c0.04,0.38,0.15,1.22,0.3,1.55c0.04,0.14,0.08,0.43-0.06,0.48c-0.08-0.04-0.25-0.15-0.3-0.3"/>
	<path class="st1" d="M10.4,11.54h0.42c0.57,0.04,0.32,1.53,0.12,2.26l-0.24,1.43c0,0.76-0.91,1.91-1.37,2.38
		c-0.29,0.14-0.2-0.26-0.12-0.48c0.43-0.95,0.26-1.51,0.12-1.67c-0.38-0.38-0.71,0.4-0.83,0.83c-0.06,0.38-0.24,1.13-0.48,1.13
		c-0.24,0-0.38-0.44-0.42-0.66c-0.1-0.43,0.2-2.2,0.36-3.04c-0.19-0.81-0.08-1.77,0-2.14c0.14-0.24,0.73-0.22,1.01-0.18
		c0.1-0.1,0.28,0.04,0.36,0.12C9.61,11.4,10.16,11.48,10.4,11.54z"/>
	<path class="st1" d="M9.14,15.41c-0.04,0.38-0.15,1.22-0.3,1.55C8.8,17.1,8.76,17.39,8.9,17.44c0.08-0.04,0.25-0.15,0.3-0.3"/>
	<path class="st1" d="M36.82,12.55c-0.05,0.33,0.22,0.81,0.36,1.01c0.24,0.6,0.12,1.73,0.12,1.85c-0.1,0.48,0.2,1.11,0.36,1.37
		c0.29,0.52,0.48,0.18,0.54-0.06c-0.19-0.76,0.08-1.55,0.24-1.85c0.24-0.38,0.5,0.24,0.6,0.6c0.05,0.52,0.3,1.05,0.42,1.25
		c0.19,0,0.36-0.56,0.42-0.83c0.1-0.52-0.12-1.97-0.24-2.62c0.05-0.14,0.18-0.62,0.24-0.83c0.05-0.71-0.18-1.09-0.3-1.19
		c-0.52-0.33-1.17-0.06-1.43,0.12l-0.54-0.12C36.54,11.15,36.64,12.08,36.82,12.55z"/>
	<path class="st1" d="M38.13,16.13c0.04,0.18,0.2,0.52,0.54,0.48c0.04,0,0.1-0.1,0-0.48v-1.37"/>
	<path class="st1" d="M7.6,12.56c0.05,0.33-0.22,0.81-0.36,1.01C7,14.16,7.12,15.3,7.12,15.41c0.1,0.48-0.2,1.11-0.36,1.37
		c-0.29,0.52-0.48,0.18-0.54-0.06c0.19-0.76-0.08-1.55-0.24-1.85c-0.24-0.38-0.5,0.24-0.6,0.6C5.35,16,5.1,16.53,4.98,16.72
		c-0.19,0-0.36-0.56-0.42-0.83c-0.1-0.52,0.12-1.97,0.24-2.62c-0.05-0.14-0.18-0.62-0.24-0.83c-0.05-0.71,0.18-1.09,0.3-1.19
		c0.52-0.33,1.17-0.06,1.43,0.12l0.54-0.12C7.87,11.15,7.78,12.08,7.6,12.56z"/>
	<path class="st1" d="M6.29,16.13c-0.04,0.18-0.2,0.52-0.54,0.48c-0.04,0-0.1-0.1,0-0.48v-1.37"/>
	<path class="st1" d="M42.3,10.77c-0.43-0.38-0.77-0.08-0.89,0.12c-0.1,0.12-0.24,0.05-0.3,0c-0.52-0.48-0.89-0.2-1.01,0
		c-0.33,0.29,0.02,1.11,0.24,1.49c0.1,0.24,0.12,0.97,0.12,1.31c-0.14,0.38,0.34,1.27,0.6,1.67c0.29,0.33,0.36,0.14,0.36,0
		c-0.33-0.95-0.1-1.51,0.06-1.67c0.19-0.29,0.44,0.2,0.54,0.48l0.54,1.19c0.19,0.14,0.32-0.06,0.36-0.18c0.19-0.33,0-1.21-0.12-1.61
		c-0.05-0.19-0.22-1.07-0.3-1.49C42.81,11.27,42.49,10.87,42.3,10.77z"/>
	<path class="st1" d="M41.23,14.7c0.1,0.24,0.36,0.73,0.6,0.77c0.06-0.02,0.15-0.13,0.06-0.42c-0.04-0.36-0.1-1.1,0-1.19"/>
	<path class="st1" d="M2.11,10.77c0.43-0.38,0.77-0.08,0.89,0.12c0.1,0.12,0.24,0.05,0.3,0c0.52-0.48,0.89-0.2,1.01,0
		C4.65,11.17,4.3,12,4.08,12.38c-0.1,0.24-0.12,0.97-0.12,1.31c0.14,0.38-0.34,1.27-0.6,1.67c-0.29,0.33-0.36,0.14-0.36,0
		c0.33-0.95,0.1-1.51-0.06-1.67c-0.19-0.29-0.44,0.2-0.54,0.48l-0.54,1.19c-0.19,0.14-0.32-0.06-0.36-0.18
		c-0.19-0.33,0-1.21,0.12-1.61c0.05-0.19,0.22-1.07,0.3-1.49C1.6,11.27,1.92,10.87,2.11,10.77z"/>
	<path class="st1" d="M3.19,14.7c-0.1,0.24-0.36,0.73-0.6,0.77c-0.06-0.02-0.15-0.13-0.06-0.42c0.04-0.36,0.1-1.1,0-1.19"/>
</g>
</svg>
