<svg width="21" height="49" viewBox="0 0 21 49" fill="none" xmlns="http://www.w3.org/2000/svg">
<path d="M5.96875 25.4743L7.48218 5.357C7.48173 2.61867 7.78296 0.398891 10.3135 0.398438C12.8441 0.397984 12.8926 2.61777 12.8931 5.35609L14.5113 25.747C14.5122 28.4853 5.9692 28.2127 5.96875 25.4743Z" fill="#8C8D92"/>
<path d="M5.91406 20.8671C6.09825 20.8177 14.2402 16.0859 14.2402 16.0859L14.2829 17.2324L5.95716 21.9636L5.91406 20.8671Z" fill="#BBBCC1"/>
<path d="M5.89844 16.8688C6.08308 16.8212 14.2577 12.1562 14.2577 12.1562L14.2926 13.3026L5.93382 17.9653L5.89844 16.8688Z" fill="#BBBCC1"/>
<path d="M6.1996 12.6886C6.36428 12.656 13.8624 8.67188 13.8624 8.67188L13.7989 9.81648L6.14062 13.7838L6.1996 12.6886Z" fill="#BBBCC1"/>
<path d="M6.66942 9.2206C6.81141 9.19882 13.5138 5.71875 13.5138 5.71875L13.3518 6.85201L6.51562 10.3049L6.66942 9.2206Z" fill="#BBBCC1"/>
<path d="M7.17839 5.74272C7.30542 5.72866 13.3673 2.88281 13.3673 2.88281L13.1877 3.88314L7.00781 6.69951L7.17839 5.74272Z" fill="#BBBCC1"/>
<path d="M7.41453 3.0133C7.51978 3.00151 12.5501 0.640625 12.5501 0.640625L12.4013 1.47083L7.27344 3.80768L7.41453 3.0133Z" fill="#BBBCC1"/>
<path d="M10.2287 27.6924C12.5814 27.6924 14.4886 26.9341 14.4886 25.9986C14.4886 25.0631 12.5814 24.3047 10.2287 24.3047C7.87599 24.3047 5.96875 25.0631 5.96875 25.9986C5.96875 26.9341 7.87599 27.6924 10.2287 27.6924Z" fill="#527F3F"/>
<path d="M10.2257 27.1962C11.8863 27.1962 13.2326 26.6608 13.2326 26.0004C13.2326 25.34 11.8863 24.8047 10.2257 24.8047C8.56499 24.8047 7.21875 25.34 7.21875 26.0004C7.21875 26.6608 8.56499 27.1962 10.2257 27.1962Z" fill="#79B565"/>
</svg>
