<svg width="21" height="50" viewBox="0 0 21 50" fill="none" xmlns="http://www.w3.org/2000/svg">
<path d="M15.1447 23.9999L13.6312 44.1174C13.6317 46.8558 13.3304 49.0755 10.7999 49.076C8.26927 49.0765 8.22072 46.8567 8.22027 44.1183L6.60156 23.7272C6.60111 20.9889 15.1442 21.2615 15.1447 23.9999Z" fill="#8C8D92"/>
<path d="M15.197 28.6043C15.0128 28.6538 6.87077 33.3855 6.87077 33.3855L6.82812 32.2391L15.1539 27.5078L15.197 28.6043Z" fill="#BBBCC1"/>
<path d="M15.2146 32.6043C15.03 32.652 6.85525 37.317 6.85525 37.317L6.82031 36.1706L15.1792 31.5078L15.2146 32.6043Z" fill="#BBBCC1"/>
<path d="M14.913 36.7827C14.7483 36.8153 7.25 40.7994 7.25 40.7994L7.31352 39.6548L14.972 35.6875L14.913 36.7827Z" fill="#BBBCC1"/>
<path d="M14.4462 40.2483C14.3042 40.2701 7.60156 43.7502 7.60156 43.7502L7.76353 42.6169L14.5999 39.1641L14.4462 40.2483Z" fill="#BBBCC1"/>
<path d="M13.9311 43.7302C13.8041 43.7443 7.74219 46.5901 7.74219 46.5901L7.92185 45.5898L14.1017 42.7734L13.9311 43.7302Z" fill="#BBBCC1"/>
<path d="M13.6981 46.4584C13.5929 46.4702 8.5625 48.8311 8.5625 48.8311L8.71131 48.0009L13.8392 45.6641L13.6981 46.4584Z" fill="#BBBCC1"/>
<path d="M10.8851 25.1692C13.2378 25.1692 15.1451 24.4108 15.1451 23.4753C15.1451 22.5397 13.2378 21.7812 10.8851 21.7812C8.5323 21.7812 6.625 22.5397 6.625 23.4753C6.625 24.4108 8.5323 25.1692 10.8851 25.1692Z" fill="#527F3F"/>
<path d="M10.8818 24.673C12.5425 24.673 13.8887 24.1376 13.8887 23.4771C13.8887 22.8167 12.5425 22.2812 10.8818 22.2812C9.22121 22.2812 7.875 22.8167 7.875 23.4771C7.875 24.1376 9.22121 24.673 10.8818 24.673Z" fill="#79B565"/>
</svg>
