<svg width="26" height="42" viewBox="0 0 26 42" fill="none" xmlns="http://www.w3.org/2000/svg">
<path d="M6.94277 2.62802C6.40925 0.892266 8.02613 0.0756693 9.40301 1.04154C12.0647 2.9084 13.4538 6.07322 14.6665 8.97581C15.2281 10.32 17.7174 15.016 16.1359 16.2804C14.5667 17.5348 8.90988 15.6575 8.83865 12.5539C8.80009 10.8699 8.85543 9.17588 8.62996 7.50228C8.38498 5.68351 7.46585 4.32838 6.94277 2.62802Z" fill="url(#paint0_linear_86_2422)"/>
<path d="M22.7332 26.5518C23.6954 20.244 23.68 12.6333 20.8763 6.79546C20.2248 5.43854 19.3379 4.1973 18.2813 3.12573C17.8667 2.70518 15.3964 0.180059 14.8775 0.801586C14.348 1.43536 14.8266 2.85172 14.9205 3.55627C15.0775 4.73536 15.2263 5.91533 15.3493 7.0985C15.5983 9.49886 16.2185 12.0997 15.5697 14.4883C15.4268 15.0141 15.0966 15.534 14.5785 15.7023C14.3049 15.7913 14.0069 15.7731 13.726 15.7123C11.9486 15.3271 10.6624 13.5352 9.56954 12.2204C8.00665 10.3409 7.10974 8.22951 6.32898 5.93168C5.94971 4.81565 5.51602 3.73138 4.56287 2.98781C4.33331 2.80861 2.08447 0.0494041 1.73061 0.134241C0.56559 0.412793 0.967998 3.55581 1.01019 4.27034C1.33683 9.82687 5.41077 19.6878 5.41077 19.6878C5.41077 19.6878 6.39115 25.8976 5.41077 27.8589C4.43039 29.8201 21.4262 29.8205 22.7332 26.5518Z" fill="url(#paint1_linear_86_2422)"/>
<path d="M23.7138 27.5322C23.7133 27.5317 21.0988 24.5906 15.2157 24.5906C9.3325 24.5906 5.08343 26.5518 4.10305 29.1663C3.12267 31.7813 2.79559 38.9715 6.39091 40.279C7.52826 40.6927 8.77857 40.7952 9.80386 40.0621C10.6808 39.4351 11.0274 38.2828 12.3462 38.7102C12.921 38.8962 13.3951 39.2995 13.8823 39.657C16.0246 41.2285 19.6653 42.8585 22.1051 41.0035C25.4405 38.4674 26.6182 30.8 23.7138 27.5322Z" fill="url(#paint2_linear_86_2422)"/>
<defs>
<linearGradient id="paint0_linear_86_2422" x1="13.4922" y1="17.171" x2="6.28146" y2="-18.2489" gradientUnits="userSpaceOnUse">
<stop offset="0.1599" stop-color="#BFAB8D"/>
<stop offset="0.5078" stop-color="#E7E1D2"/>
<stop offset="0.7297" stop-color="#CCBFA6"/>
</linearGradient>
<linearGradient id="paint1_linear_86_2422" x1="28.68" y1="14.5859" x2="1.58698" y2="14.6838" gradientUnits="userSpaceOnUse">
<stop offset="0.1599" stop-color="#BFAB8D"/>
<stop offset="0.5078" stop-color="#E7E1D2"/>
<stop offset="0.7297" stop-color="#CCBFA6"/>
</linearGradient>
<linearGradient id="paint2_linear_86_2422" x1="30.5959" y1="33.1029" x2="-1.92587" y2="33.2203" gradientUnits="userSpaceOnUse">
<stop stop-color="#FCFCFC"/>
<stop offset="1" stop-color="#CDCAC5"/>
</linearGradient>
</defs>
</svg>
