<svg width="19" height="57" viewBox="0 0 19 57" fill="none" xmlns="http://www.w3.org/2000/svg">
<path d="M9.68555 55.9459C9.68555 55.9459 15.0313 56.7811 16.7724 53.9397C18.513 51.0984 10.2354 54.2569 9.68555 55.9459Z" fill="#D8D6D0"/>
<path d="M15.0518 38.0246C15.0518 38.0246 14.7247 26.9121 13.7443 23.9705C12.764 21.0289 11.7831 11.2239 12.1102 8.60893C12.4368 5.994 12.4368 2.07204 12.4368 2.07204C12.4368 2.07204 12.7635 -0.869521 9.82192 1.41832C6.88033 3.70616 3.28502 14.8187 3.61211 19.3944C3.93875 23.9701 4.04218 37.7588 3.99046 37.7284C3.93874 37.698 15.0518 38.0246 15.0518 38.0246Z" fill="url(#paint0_linear_86_2463)"/>
<path d="M4.26605 36.7178C4.26605 36.7178 -3.25118 47.8302 2.30484 53.7133C2.98352 54.4319 4.05098 54.9373 4.87801 55.4631C5.73181 56.0061 6.64235 56.7601 7.68351 56.8776C8.8771 57.0128 9.75085 55.7639 10.924 55.5203C12.789 55.1328 14.6141 55.4395 16.207 54.1675C17.5221 53.1172 18.3197 51.4799 18.5905 49.8404C18.928 47.7948 18.5787 45.7162 18.1713 43.7078C17.9976 42.8518 17.7017 42.037 17.3556 41.2354C16.9872 40.3807 16.3217 39.5464 16.0323 38.6781C16.0323 38.6785 13.4174 30.8347 4.26605 36.7178Z" fill="url(#paint1_linear_86_2463)"/>
<defs>
<linearGradient id="paint0_linear_86_2463" x1="14.1518" y1="19.3336" x2="1.25916" y2="18.9365" gradientUnits="userSpaceOnUse">
<stop stop-color="#BFAB8D"/>
<stop offset="0.5078" stop-color="#E7E1D2"/>
<stop offset="1" stop-color="#CCBFA6"/>
</linearGradient>
<linearGradient id="paint1_linear_86_2463" x1="23.1355" y1="45.5696" x2="-4.27016" y2="45.6339" gradientUnits="userSpaceOnUse">
<stop stop-color="#FCFCFC"/>
<stop offset="1" stop-color="#CDCAC5"/>
</linearGradient>
</defs>
</svg>
