<svg width="27" height="50" viewBox="0 0 27 50" fill="none" xmlns="http://www.w3.org/2000/svg">
<path d="M15.3681 1.92442C15.3681 1.92442 16.274 -0.129761 18.1077 0.384693C19.9414 0.899149 20.5757 5.69302 20.2436 9.22705C19.912 12.7611 18.34 23.9738 15.6376 24.2047C12.9351 24.4357 7.99292 18.0848 10.2412 14.5467C12.4901 11.009 16.2105 4.79884 15.3681 1.92442Z" fill="url(#paint0_linear_86_2472)"/>
<path d="M3.54476 32.3763C6.74355 32.1459 10.3733 30.5821 13.578 30.4555C15.5882 30.3761 17.5993 30.2432 19.6118 30.3076C20.5423 30.3371 21.926 32.8177 22.8283 32.703C23.4135 32.6286 23.0274 30.225 23.0034 29.6031C22.983 29.0736 22.9381 28.5465 23.0156 28.0189C23.2942 26.1171 24.3404 24.3115 24.7754 22.4097C25.279 20.2099 25.6192 17.9674 25.8284 15.7208C26.0502 13.3373 26.1441 10.9033 25.832 8.52339C25.6977 7.49719 25.5144 6.45511 25.107 5.49742C24.7899 4.75204 24.021 3.28897 23.0383 3.40102C22.6777 3.44231 22.3546 3.64738 22.0847 3.891C21.5557 4.36871 21.1874 5.00474 20.9438 5.67481C20.4416 7.05713 20.4524 8.54563 20.3558 9.99373C20.256 11.4868 19.849 12.8695 19.5142 14.3186C18.8927 17.0111 18.1587 20.1799 16.3948 22.387C15.9657 22.9242 15.3206 23.3588 14.636 23.2939C14.2849 23.2603 13.9569 23.0988 13.6701 22.8933C12.6371 22.1525 12.1118 20.874 11.9326 19.6156C11.5656 17.0369 11.8419 14.1924 12.531 11.6927C12.9352 10.2255 13.6819 8.91173 14.1383 7.47723C14.6205 5.96062 15.2748 2.9519 13.1366 2.37438C12.2738 2.14119 11.3551 2.58217 10.71 3.20097C8.31825 5.49426 6.70273 8.90357 5.3195 11.8597C4.47115 13.6721 3.65229 15.5457 3.13012 17.4829C2.81619 18.6474 2.84975 19.8079 2.88287 21.0106C2.97587 24.3723 3.17139 29.0428 3.54476 32.3763Z" fill="url(#paint1_linear_86_2472)"/>
<path d="M22.4845 34.5428C22.7567 34.6258 23.1468 35.3653 23.2979 35.578C23.8963 36.4223 24.4144 37.331 24.8022 38.2919C25.8475 40.881 25.6959 43.7205 23.7352 45.841C23.7121 45.8659 23.6885 45.8909 23.6653 45.9158C23.5596 46.027 23.4494 46.1354 23.3632 46.262C23.1214 46.6172 23.0638 47.0623 22.8347 47.4266C22.6183 47.7709 22.3002 48.093 21.9922 48.3529C21.2668 48.9654 20.3005 49.391 19.3355 49.2957C19.0039 49.263 18.6877 49.145 18.376 49.028C17.0227 48.5199 15.5533 47.9406 14.8356 46.5968C14.9173 46.7501 14.5448 47.3739 14.4509 47.501C14.2259 47.8067 13.9501 47.9397 13.6021 48.0739C12.453 48.5181 11.2022 48.8747 10.1007 49.4254C9.33942 49.7185 8.69704 49.9971 7.92263 49.743C7.47168 49.5951 7.01484 49.4653 6.56889 49.302C5.73414 48.9967 4.34548 48.4623 4.34548 47.3794C4.34548 45.7049 2.94998 40.6818 6.29895 35.6588C9.64656 30.638 22.474 34.5396 22.4845 34.5428Z" fill="#D8D6D0"/>
<path d="M22.502 30.4152C22.821 30.5123 23.2783 31.3788 23.4548 31.6279C24.1557 32.6169 24.7623 33.6812 25.2169 34.8063C26.4414 37.839 26.2635 41.1649 23.9674 43.6483C23.9402 43.6773 23.9126 43.7068 23.8853 43.7358C23.7615 43.866 23.6326 43.9931 23.5314 44.1414C23.2479 44.5579 23.1807 45.0783 22.9126 45.5056C22.6595 45.9085 22.287 46.2859 21.9259 46.5908C21.0761 47.308 19.9442 47.8062 18.8145 47.695C18.4262 47.6569 18.056 47.5185 17.6908 47.3815C16.1056 46.7868 14.3843 46.1076 13.5436 44.5339C13.6394 44.7135 13.2029 45.4439 13.0931 45.5932C12.8295 45.9511 12.5065 46.1067 12.0991 46.2641C10.7531 46.7845 9.2881 47.2019 7.99783 47.847C7.10634 48.1904 6.35416 48.5166 5.4468 48.219C4.91871 48.0457 4.38336 47.8937 3.86117 47.7027C2.88349 47.3452 1.25658 46.7192 1.25658 45.4507C1.25658 43.4895 -0.377596 37.6063 3.54448 31.7231C7.4652 25.8418 22.4898 30.4116 22.502 30.4152Z" fill="url(#paint2_linear_86_2472)"/>
<defs>
<linearGradient id="paint0_linear_86_2472" x1="11.838" y1="23.1853" x2="30.3999" y2="-22.1798" gradientUnits="userSpaceOnUse">
<stop offset="0.1599" stop-color="#BFAB8D"/>
<stop offset="0.5078" stop-color="#E7E1D2"/>
<stop offset="0.7297" stop-color="#CCBFA6"/>
</linearGradient>
<linearGradient id="paint1_linear_86_2472" x1="24.732" y1="17.1907" x2="3.82157" y2="18.1361" gradientUnits="userSpaceOnUse">
<stop offset="0.1599" stop-color="#BFAB8D"/>
<stop offset="0.5078" stop-color="#E7E1D2"/>
<stop offset="0.7297" stop-color="#CCBFA6"/>
</linearGradient>
<linearGradient id="paint2_linear_86_2472" x1="31.9478" y1="38.4057" x2="-5.2228" y2="38.5405" gradientUnits="userSpaceOnUse">
<stop stop-color="#FCFCFC"/>
<stop offset="1" stop-color="#CDCAC5"/>
</linearGradient>
</defs>
</svg>
