<svg width="27" height="48" viewBox="0 0 27 48" fill="none" xmlns="http://www.w3.org/2000/svg">
<path d="M10.4823 42.2915C10.2805 44.2486 11.5503 44.6936 12.4512 43.3299C14.1938 40.6941 14.8661 37.0195 15.4377 33.6656C15.7027 32.1122 17.0129 26.5517 15.7208 25.6276C14.4388 24.7108 10.5091 28.12 10.7927 31.3945C10.9465 33.1711 11.1706 34.9345 11.1869 36.7477C11.2055 38.718 10.6806 40.3739 10.4823 42.2915Z" fill="url(#paint0_linear_86_2489)"/>
<path d="M22.1105 19.4399C21.425 21.3984 20.8724 23.4426 20.5535 25.4932C20.3389 26.8732 20.3707 28.0999 20.5803 29.4659C20.9328 31.7615 20.9582 34.1573 20.8593 36.4728C20.705 40.0844 18.9725 42.8046 17.5875 46.0533C17.0784 47.2469 15.9012 47.8734 14.8342 46.7751C13.4804 45.3823 13.8456 42.4548 13.7917 40.6883C13.7182 38.2702 13.6692 35.8354 13.1856 33.4559C12.9773 32.4316 12.6847 31.4103 12.1498 30.5121C11.6182 29.6188 10.6355 29.1833 9.69415 29.8266C8.44067 30.6831 8.15804 32.5595 7.72525 33.8951C7.31922 35.1476 6.95132 36.4124 6.5961 37.6804C6.09434 39.471 5.63024 41.273 5.15208 43.07C4.95383 43.814 4.30689 45.5615 3.21311 44.8021C2.84383 44.5453 2.66146 44.1008 2.50767 43.6784C2.00274 42.2893 1.59943 40.8661 1.19703 39.4443C0.657625 37.5394 0.161311 35.6398 0.045173 33.656C-0.113156 30.9512 0.9525 28.2787 1.47331 25.6606C2.02678 22.8783 2.37248 20.0546 2.50495 17.221C2.51357 17.0346 2.52807 16.8318 2.65374 16.6939C2.82386 16.5079 3.11557 16.5224 3.36554 16.5509C6.43729 16.903 9.51541 17.1893 12.584 17.5731C14.6604 17.8312 16.7396 18.1043 18.7978 18.4836C19.7052 18.6505 21.4078 18.7372 22.1105 19.4399Z" fill="url(#paint1_linear_86_2489)"/>
<path d="M24.5103 15.1945C24.6129 13.9678 24.5847 12.7247 24.8184 11.513C25.1831 9.62173 26.1381 7.97407 26.0029 5.97027C25.6772 1.14609 18.9353 0.773168 15.5455 2.10919C14.1359 2.66446 13.5575 2.14006 12.3726 1.39153C11.0887 0.580394 9.57392 0.155762 8.05642 0.155762C6.32115 0.155762 4.40622 0.649316 2.9241 1.56117C0.731546 2.91034 0.733367 5.12374 0.582751 7.44691C0.416256 10.0164 0.475226 12.6631 1.32494 15.1205C1.58489 15.8727 1.92923 16.6117 2.4709 17.1946C3.24123 18.0235 4.22159 18.1328 5.26184 18.3723C6.68181 18.6994 8.11766 18.9761 9.54897 19.247C12.3558 19.7782 15.1889 20.2105 18.0447 20.3539C19.3989 20.4219 20.8012 20.2845 22.0039 19.658C23.7459 18.7516 24.3561 17.0458 24.5103 15.1945Z" fill="url(#paint2_linear_86_2489)"/>
<defs>
<linearGradient id="paint0_linear_86_2489" x1="13.669" y1="25.3622" x2="15.7786" y2="64.1669" gradientUnits="userSpaceOnUse">
<stop offset="0.1599" stop-color="#BFAB8D"/>
<stop offset="0.5078" stop-color="#E7E1D2"/>
<stop offset="0.7297" stop-color="#CCBFA6"/>
</linearGradient>
<linearGradient id="paint1_linear_86_2489" x1="19.5838" y1="33.3313" x2="2.08975" y2="29.9272" gradientUnits="userSpaceOnUse">
<stop stop-color="#BFAB8D"/>
<stop offset="0.5078" stop-color="#E7E1D2"/>
<stop offset="1" stop-color="#CCBFA6"/>
</linearGradient>
<linearGradient id="paint2_linear_86_2489" x1="32.1059" y1="10.1369" x2="-5.74604" y2="10.2725" gradientUnits="userSpaceOnUse">
<stop stop-color="#FCFCFC"/>
<stop offset="1" stop-color="#CDCAC5"/>
</linearGradient>
</defs>
</svg>
