<svg width="17" height="64" viewBox="0 0 17 64" fill="none" xmlns="http://www.w3.org/2000/svg">
<path d="M14.2239 22.7625C14.2239 22.7625 6.05312 26.6844 3.76534 23.4161C3.85516 26.6277 3.9105 29.841 3.95269 33.0534C4.03254 39.1621 4.06475 45.2766 3.88646 51.3839C3.82386 53.5288 3.77395 55.6765 3.5689 57.8138C3.46456 58.9026 3.32075 59.9882 3.11525 61.0624C3.02089 61.5569 2.73645 62.1395 2.96555 62.5909C3.2704 63.1911 4.05795 63.3272 4.60823 63.0563C5.38262 62.6752 5.89164 61.738 6.27588 61.0144C7.2027 59.2687 7.80061 57.3392 8.34137 55.4465C11.6091 44.0072 13.7204 26.2784 14.2239 22.7625Z" fill="url(#paint0_linear_86_2510)"/>
<path d="M15.4806 0.324919C14.708 -0.0715835 13.5044 0.173395 12.6579 0.166137C11.0873 0.15298 9.51677 0.157498 7.94665 0.202864C6.19235 0.253675 3.75303 0.0531585 2.13075 0.864311C0.572878 1.64325 0.407283 3.58902 0.454463 5.11742C0.641371 11.1548 1.03016 17.5093 3.46541 23.1225C4.17856 24.7661 5.17389 26.4247 6.73176 27.3919C9.14569 28.8908 11.9089 28.0221 13.2849 25.6222C14.3864 23.7014 14.8101 21.487 15.041 19.3149C15.2157 17.6703 15.1063 16.0136 15.2229 14.3658C15.3459 12.6292 15.858 10.9443 16.1379 9.22809C16.5803 6.51427 17.1156 3.68247 16.1044 1.02899C15.9742 0.686923 15.7546 0.465556 15.4806 0.324919Z" fill="url(#paint1_linear_86_2510)"/>
<defs>
<linearGradient id="paint0_linear_86_2510" x1="1.58506" y1="42.9487" x2="10.8179" y2="42.9821" gradientUnits="userSpaceOnUse">
<stop stop-color="#BFAB8D"/>
<stop offset="0.5078" stop-color="#E7E1D2"/>
<stop offset="1" stop-color="#CCBFA6"/>
</linearGradient>
<linearGradient id="paint1_linear_86_2510" x1="20.5574" y1="13.9408" x2="-3.53294" y2="13.9804" gradientUnits="userSpaceOnUse">
<stop stop-color="#FCFCFC"/>
<stop offset="1" stop-color="#CDCAC5"/>
</linearGradient>
</defs>
</svg>
