<svg width="16" height="65" viewBox="0 0 16 65" fill="none" xmlns="http://www.w3.org/2000/svg">
<g clip-path="url(#clip0_86_2513)">
<path d="M3.09091 24.3381C3.09046 31.8722 1.55576 39.3524 1.20553 46.8811C1.06263 49.9497 0.826257 53.0174 0.870715 56.0915C0.905647 58.5281 0.719211 62.5917 2.23851 64.6663C2.8818 65.5428 4.78534 61.6408 4.96726 61.266C6.1064 58.9201 6.8141 56.4263 7.69419 53.9783C8.66457 51.2785 9.65399 48.5619 10.4493 45.8036C11.5104 42.1234 12.1151 38.2904 12.791 34.5253C12.8967 33.9356 13.8204 26.3538 14.2033 26.2994C14.1996 26.2994 5.05162 27.6059 3.09091 24.3381Z" fill="url(#paint0_linear_86_2513)"/>
<path d="M15.6989 0.297253C15.55 0.161608 15.2874 0.133048 14.801 0.0922183C14.057 0.0300665 13.284 0.0844777 12.5382 0.0858387C9.49813 0.0917363 6.45812 0.151186 3.4181 0.151186C3.4181 0.151186 0.476512 0.8049 0.803152 2.439C1.12979 4.07309 2.11061 24.3374 3.09098 25.6444C4.07136 26.9514 6.35922 31.2008 11.262 29.8933C16.1643 28.5859 15.1839 17.1472 15.1839 17.1468C15.0546 15.0749 15.5755 12.7802 15.7166 10.7088C15.9261 7.63389 16.1053 4.5322 15.9293 1.45046C15.8912 0.776318 15.8771 0.459664 15.6989 0.297253Z" fill="url(#paint1_linear_86_2513)"/>
</g>
<defs>
<linearGradient id="paint0_linear_86_2513" x1="13.1222" y1="44.5287" x2="-3.18269" y2="44.5876" gradientUnits="userSpaceOnUse">
<stop stop-color="#BFAB8D"/>
<stop offset="0.5078" stop-color="#E7E1D2"/>
<stop offset="1" stop-color="#CCBFA6"/>
</linearGradient>
<linearGradient id="paint1_linear_86_2513" x1="19.6352" y1="14.9141" x2="-2.955" y2="14.9466" gradientUnits="userSpaceOnUse">
<stop stop-color="#FCFCFC"/>
<stop offset="1" stop-color="#CDCAC5"/>
</linearGradient>
<clipPath id="clip0_86_2513">
<rect width="16" height="65" fill="white"/>
</clipPath>
</defs>
</svg>
