<svg width="17" height="65" viewBox="0 0 17 65" fill="none" xmlns="http://www.w3.org/2000/svg">
<path d="M13.703 24.3379C13.7035 31.872 15.2383 39.3521 15.5885 46.8808C15.7314 49.9494 15.9678 53.0171 15.9233 56.0912C15.8884 58.5279 16.0748 62.5914 14.5555 64.6661C13.9122 65.5426 12.0086 61.6405 11.8267 61.2658C10.6875 58.9199 9.97976 56.426 9.09963 53.978C8.12923 51.2782 7.13979 48.5617 6.3445 45.8033C5.28381 42.1232 4.67858 38.2901 4.00261 34.5251C3.89691 33.9353 2.97323 26.3536 2.59033 26.2991C2.59396 26.2991 11.7427 27.6057 13.703 24.3379Z" fill="url(#paint0_linear_86_2516)"/>
<path d="M1.0949 0.297253C1.2437 0.161608 1.50637 0.133048 1.9927 0.0922183C2.73672 0.0300665 3.50976 0.0844777 4.25559 0.0858387C7.29561 0.0917363 10.3356 0.151186 13.3756 0.151186C13.3756 0.151186 16.3172 0.8049 15.9906 2.439C15.6635 4.07309 14.6831 24.3374 13.7027 25.6444C12.7224 26.9514 10.4345 31.2008 5.53177 29.8933C0.629447 28.5859 1.60981 17.1472 1.60981 17.1468C1.73911 15.0749 1.21829 12.7802 1.0772 10.7088C0.867603 7.63389 0.688407 4.5322 0.86443 1.45046C0.902538 0.776318 0.917058 0.459664 1.0949 0.297253Z" fill="url(#paint1_linear_86_2516)"/>
<defs>
<linearGradient id="paint0_linear_86_2516" x1="3.67148" y1="44.5285" x2="19.977" y2="44.5874" gradientUnits="userSpaceOnUse">
<stop stop-color="#BFAB8D"/>
<stop offset="0.5078" stop-color="#E7E1D2"/>
<stop offset="1" stop-color="#CCBFA6"/>
</linearGradient>
<linearGradient id="paint1_linear_86_2516" x1="19.6504" y1="14.9141" x2="-2.93987" y2="14.9466" gradientUnits="userSpaceOnUse">
<stop stop-color="#FCFCFC"/>
<stop offset="1" stop-color="#CDCAC5"/>
</linearGradient>
</defs>
</svg>
