<svg width="19" height="53" viewBox="0 0 19 53" fill="none" xmlns="http://www.w3.org/2000/svg">
<path d="M3.23145 21.1716C3.23145 21.1716 9.44132 46.6652 14.6713 50.9138C19.9007 55.1628 17.2858 46.6648 17.2858 46.6648C17.2858 46.6648 15.3245 30.9766 15.3245 28.0351C15.3245 25.0935 16.3644 19.5847 16.3644 19.5847C16.3644 19.5847 6.29237 21.7537 3.23145 21.1716Z" fill="url(#paint0_linear_86_2400)"/>
<path d="M2.90437 1.8881C2.90437 1.8881 -0.363803 3.5222 0.616563 8.09786C1.59693 12.6735 1.2703 15.2884 1.2703 15.2884C1.2703 15.2884 1.92402 23.1327 7.48003 23.4594C13.0365 23.786 16.6313 20.5178 16.9584 18.5566C17.2855 16.5954 17.285 11.0394 17.6121 10.0586C17.9388 9.07821 18.9196 2.86799 15.6509 1.88762C12.3827 0.907248 10.4216 0.580186 10.4216 0.580186C10.4216 0.580186 7.15338 -0.399725 2.90437 1.8881Z" fill="url(#paint1_linear_86_2400)"/>
<defs>
<linearGradient id="paint0_linear_86_2400" x1="16.4906" y1="35.8449" x2="4.93405" y2="35.8866" gradientUnits="userSpaceOnUse">
<stop stop-color="#BFAB8D"/>
<stop offset="0.5078" stop-color="#E7E1D2"/>
<stop offset="1" stop-color="#CCBFA6"/>
</linearGradient>
<linearGradient id="paint1_linear_86_2400" x1="22.2024" y1="11.783" x2="-3.87606" y2="11.8393" gradientUnits="userSpaceOnUse">
<stop stop-color="#FCFCFC"/>
<stop offset="1" stop-color="#CDCAC5"/>
</linearGradient>
</defs>
</svg>
