<svg width="19" height="58" viewBox="0 0 19 58" fill="none" xmlns="http://www.w3.org/2000/svg">
<path d="M9.51047 56.2789C9.51047 56.2789 4.16445 57.1141 2.42328 54.2728C0.682094 51.4314 8.96062 54.5899 9.51047 56.2789Z" fill="#D8D6D0"/>
<path d="M4.14453 38.3576C4.14453 38.3576 4.47116 27.2451 5.45199 24.3035C6.43237 21.3619 7.4132 11.5569 7.08611 8.94193C6.75947 6.327 6.75948 2.40504 6.75948 2.40504C6.75948 2.40504 6.43282 -0.536513 9.3744 1.75133C12.316 4.03916 15.9113 15.1517 15.5842 19.7274C15.2571 24.3031 15.1541 38.0918 15.2059 38.0614C15.2571 38.031 4.14453 38.3576 4.14453 38.3576Z" fill="url(#paint0_linear_86_2441)"/>
<path d="M14.93 37.0508C14.93 37.0508 22.4472 48.1632 16.8912 54.0463C16.2125 54.7649 15.145 55.2703 14.318 55.7961C13.4642 56.3391 12.5532 57.0931 11.5125 57.2106C10.3189 57.3458 9.44517 56.0969 8.27199 55.8533C6.40698 55.4659 4.58188 55.7725 2.98906 54.5005C1.67389 53.4502 0.876347 51.813 0.60551 50.1734C0.267984 48.1279 0.617316 46.0492 1.02471 44.0408C1.19846 43.1848 1.49425 42.37 1.84039 41.5684C2.20877 40.7137 2.87429 39.8794 3.16373 39.0111C3.16373 39.0115 5.77864 31.1677 14.93 37.0508Z" fill="url(#paint1_linear_86_2441)"/>
<defs>
<linearGradient id="paint0_linear_86_2441" x1="5.04414" y1="19.6666" x2="17.9368" y2="19.2695" gradientUnits="userSpaceOnUse">
<stop stop-color="#BFAB8D"/>
<stop offset="0.5078" stop-color="#E7E1D2"/>
<stop offset="1" stop-color="#CCBFA6"/>
</linearGradient>
<linearGradient id="paint1_linear_86_2441" x1="23.347" y1="45.9026" x2="-4.05874" y2="45.9669" gradientUnits="userSpaceOnUse">
<stop stop-color="#FCFCFC"/>
<stop offset="1" stop-color="#CDCAC5"/>
</linearGradient>
</defs>
</svg>
