<svg width="20" height="70" viewBox="0 0 20 70" fill="none" xmlns="http://www.w3.org/2000/svg">
<path d="M16.0299 45.4786C16.0299 45.4786 3.9483 42.4504 2.94434 44.177L7.82354 9.62442C7.82354 9.62442 7.67201 0.743896 8.97948 0.743896C10.287 0.743896 11.5944 4.66585 11.5944 4.66585C11.5944 4.66585 15.7387 37.2087 16.0299 45.4786Z" fill="url(#paint0_linear_86_2445)"/>
<path d="M13.7065 41.9822C13.7069 41.9831 20.8971 51.4611 19.5896 59.305C19.1677 61.836 18.3039 64.4814 16.7783 66.5687C16.0342 67.5867 15.0675 68.5081 13.8485 68.9119C12.2361 69.4459 10.167 69.0267 8.55056 68.666C7.75482 68.4886 6.97314 68.2441 6.23185 67.9029C1.04915 65.5194 -0.320014 59.374 0.0969057 54.1659C0.389975 50.507 1.50056 46.9585 2.94413 43.6058C3.8805 41.431 6.06173 40.8612 8.23888 40.5531C9.87753 40.3213 12.5923 40.5132 13.7065 41.9822Z" fill="url(#paint1_linear_86_2445)"/>
<defs>
<linearGradient id="paint0_linear_86_2445" x1="4.605" y1="23.3547" x2="14.2097" y2="23.0588" gradientUnits="userSpaceOnUse">
<stop stop-color="#BFAB8D"/>
<stop offset="0.5078" stop-color="#E7E1D2"/>
<stop offset="1" stop-color="#CCBFA6"/>
</linearGradient>
<linearGradient id="paint1_linear_86_2445" x1="24.4571" y1="54.6397" x2="-4.80906" y2="54.6968" gradientUnits="userSpaceOnUse">
<stop stop-color="#FCFCFC"/>
<stop offset="1" stop-color="#CDCAC5"/>
</linearGradient>
</defs>
</svg>
