<svg width="24" height="42" viewBox="0 0 24 42" fill="none" xmlns="http://www.w3.org/2000/svg">
<path d="M9.35156 39.1173C9.35156 39.1173 11.801 42.7051 15.524 40.2618C19.247 37.8185 11.2716 37.427 9.35156 39.1173Z" fill="#D8D6D0"/>
<path d="M13.8305 3.51919C14.3513 1.77983 16.1498 1.99895 16.7577 3.56683C17.9332 6.59779 17.3298 10.0012 16.7255 13.0884C16.4456 14.5179 15.9057 19.8059 13.8881 19.9783C11.8864 20.1493 8.22605 15.4457 9.8911 12.8253C10.7944 11.404 11.7821 10.0262 12.5243 8.50955C13.3319 6.86092 13.3206 5.22363 13.8305 3.51919Z" fill="url(#paint0_linear_83_9497)"/>
<path d="M3.36864 26.8188C3.43442 26.8555 3.64265 26.3892 3.83001 26.4096C4.07454 26.4359 4.37941 26.3506 4.62393 26.3256C5.46866 26.2403 6.31479 26.1664 7.16133 26.1024C9.51315 25.9251 11.8759 25.8171 14.2349 25.8647C15.8758 25.8978 17.5417 25.9849 19.1509 26.3284C20.1448 26.5402 21.4528 26.8555 22.0607 27.7592C22.0607 27.7592 20.6911 22.2431 21.6719 17.994C22.6523 13.745 23.9598 2.30575 21.3448 1.97866C19.7012 1.77315 18.4622 5.59575 18.0335 6.65914C16.8966 9.47914 16.0065 12.4933 15.2003 15.4558C15.1776 15.5383 15.1545 15.6232 15.1042 15.6926C14.6627 16.3032 13.1302 16.5455 12.5386 16.1372C12.0432 15.7951 11.9208 15.1278 11.84 14.5307C11.6967 13.4714 11.5533 12.4121 11.4099 11.3528C11.0692 8.83584 10.7263 6.30256 10.787 3.75613C10.8038 3.05702 11.6005 -0.503359 9.9051 0.344546C7.05696 1.76861 5.43284 5.70735 4.6421 8.53416C3.57325 12.3536 3.5338 16.4407 3.38636 20.3794C3.31876 22.185 3.22845 24.0156 3.34595 25.8212C3.36909 26.1741 3.27518 26.7661 3.36864 26.8188Z" fill="url(#paint1_linear_83_9497)"/>
<path d="M4.46455 25.6676C5.34148 25.0601 6.51602 24.9875 7.53449 24.7838C9.06833 24.4767 10.6158 24.2208 12.1787 24.1265C15.6242 23.9178 19.4137 24.5497 21.7292 27.353C22.5453 28.3406 23.1192 29.5233 23.4068 30.7709C23.7303 32.1754 23.4694 33.0828 23.0221 34.4097C22.612 35.626 22.0767 36.943 21.4152 38.0445C20.698 39.2386 19.5507 40.2725 18.1081 40.2516C16.5452 40.2289 15.0177 39.6174 13.9738 38.4324C13.9189 38.3702 13.8627 38.3045 13.7855 38.2732C13.6934 38.236 13.5895 38.2555 13.4934 38.2777C11.3924 38.759 9.28656 40.1327 7.34851 41.0614C6.42213 41.5051 5.89268 41.6403 4.9545 41.1476C3.78405 40.5329 2.66941 39.7771 1.80291 38.7785C-0.760296 35.8252 0.21689 31.6292 2.09052 28.5837C2.6821 27.6224 3.41475 26.5082 4.30121 25.7905C4.35474 25.747 4.4092 25.7061 4.46455 25.6676Z" fill="url(#paint2_linear_83_9497)"/>
<path d="M0.484552 36.0935C0.484552 36.0935 0.439187 37.0009 1.802 38.777C3.38802 40.4488 4.62652 40.96 4.62652 40.96C4.62652 40.96 5.69989 41.5421 6.17669 41.4718C6.65349 41.4015 10.9153 39.3105 11.2342 39.1086C11.5536 38.9063 13.2239 38.3201 13.3868 38.2956C13.5497 38.2711 13.6694 38.1364 13.9725 38.4308C14.2755 38.7248 15.9791 40.4193 18.4947 40.2219C21.0102 40.025 22.3962 37.2277 22.986 34.3242L18.7215 36.5926L6.69934 37.8628L0.484552 36.0935Z" fill="#CECECE"/>
<defs>
<linearGradient id="paint0_linear_83_9497" x1="11.1542" y1="19.2605" x2="24.8412" y2="-14.1923" gradientUnits="userSpaceOnUse">
<stop offset="0.1599" stop-color="#BFAB8D"/>
<stop offset="0.5078" stop-color="#E7E1D2"/>
<stop offset="0.7297" stop-color="#CCBFA6"/>
</linearGradient>
<linearGradient id="paint1_linear_83_9497" x1="22.2089" y1="16.267" x2="4.51986" y2="12.9115" gradientUnits="userSpaceOnUse">
<stop offset="0.1599" stop-color="#BFAB8D"/>
<stop offset="0.5078" stop-color="#E7E1D2"/>
<stop offset="0.7297" stop-color="#CCBFA6"/>
</linearGradient>
<linearGradient id="paint2_linear_83_9497" x1="-5.00581" y1="32.7375" x2="28.2794" y2="32.822" gradientUnits="userSpaceOnUse">
<stop stop-color="#94938C"/>
<stop offset="0.2296" stop-color="#EDEBE1"/>
<stop offset="0.7988" stop-color="#EDEBE1"/>
<stop offset="1" stop-color="#94938C"/>
</linearGradient>
</defs>
</svg>
