<svg width="24" height="42" viewBox="0 0 24 42" fill="none" xmlns="http://www.w3.org/2000/svg">
<path d="M6.79688 38.9689C6.79688 38.9689 9.24626 42.5572 12.9691 40.1136C16.6919 37.67 8.71682 37.2785 6.79688 38.9689Z" fill="#D8D6D0"/>
<path d="M9.72347 3.51138C9.20267 1.77202 7.40435 1.99113 6.79645 3.559C5.62101 6.58994 6.22438 9.99335 6.82866 13.0805C7.10856 14.5101 7.64842 19.798 9.66586 19.9704C11.6674 20.1414 15.3275 15.4378 13.6626 12.8174C12.7594 11.3961 11.7718 10.0183 11.0296 8.5017C10.2225 6.85353 10.2334 5.2158 9.72347 3.51138Z" fill="url(#paint0_linear_83_9503)"/>
<path d="M20.1836 26.811C20.1183 26.8477 19.9096 26.3813 19.7223 26.4018C19.4777 26.4281 19.1729 26.3428 18.9283 26.3178C18.0836 26.2325 17.2375 26.1586 16.391 26.0946C14.0392 25.9172 11.6765 25.8093 9.31748 25.8569C7.67658 25.89 6.01072 25.9771 4.40157 26.3206C3.40759 26.5324 2.09969 26.8477 1.49178 27.7514C1.49178 27.7514 2.86138 22.2353 1.88056 17.9862C0.899737 13.7372 -0.407259 2.29794 2.20766 1.97085C3.85128 1.76533 5.09024 5.58794 5.51895 6.65133C6.65583 9.47133 7.54592 12.4855 8.35208 15.4479C8.37476 15.5305 8.39789 15.6153 8.44825 15.6848C8.88967 16.2954 10.4221 16.5377 11.0137 16.1294C11.5091 15.7873 11.6316 15.1199 11.7124 14.5229C11.8557 13.4636 11.9991 12.4043 12.1424 11.345C12.4831 8.82803 12.8261 6.29475 12.7653 3.74831C12.7485 3.04921 11.9519 -0.511171 13.6472 0.336734C16.4953 1.7608 18.1195 5.69954 18.9102 8.52635C19.979 12.3458 20.0185 16.4329 20.1659 20.3716C20.2335 22.1772 20.3238 24.0077 20.2063 25.8133C20.1832 26.1663 20.2775 26.7588 20.1836 26.811Z" fill="url(#paint1_linear_83_9503)"/>
<path d="M19.0867 25.6598C18.2097 25.0523 17.0352 24.9797 16.0167 24.776C14.4828 24.4689 12.9354 24.213 11.3725 24.1187C7.92689 23.91 4.13741 24.5419 1.82189 27.3451C1.00574 28.3328 0.431838 29.5155 0.144213 30.7631C-0.179252 32.1676 0.0816171 33.0749 0.528934 34.4019C0.939049 35.6182 1.47437 36.9352 2.13582 38.0367C2.85307 39.2307 4.00039 40.2647 5.44306 40.2438C7.00594 40.2211 8.53345 39.6096 9.57734 38.4246C9.63223 38.3624 9.68848 38.2967 9.7656 38.2653C9.8577 38.2281 9.96159 38.2476 10.0578 38.2699C12.1587 38.7512 14.2646 40.1249 16.2027 41.0536C17.1291 41.4973 17.6585 41.6325 18.5967 41.1398C19.7672 40.5251 20.8818 39.7692 21.7483 38.7707C24.3111 35.8174 23.3344 31.6214 21.4607 28.5759C20.8691 27.6146 20.1365 26.5004 19.25 25.7827C19.1969 25.7387 19.1425 25.6983 19.0867 25.6598Z" fill="url(#paint2_linear_83_9503)"/>
<path d="M23.0644 36.0857C23.0644 36.0857 23.1097 36.993 21.7469 38.7692C20.1609 40.4409 18.9224 40.9522 18.9224 40.9522C18.9224 40.9522 17.849 41.5343 17.3718 41.464C16.8945 41.3936 12.6332 39.3027 12.3143 39.1008C11.9954 38.8985 10.3245 38.3123 10.1616 38.2878C9.99877 38.2633 9.87901 38.1286 9.57596 38.423C9.27291 38.717 7.56938 40.4115 5.0538 40.2141C2.53822 40.0172 1.15227 37.2199 0.5625 34.3164L4.82697 36.5848L16.8491 37.855L23.0644 36.0857Z" fill="#CECECE"/>
<defs>
<linearGradient id="paint0_linear_83_9503" x1="12.3909" y1="19.2383" x2="-1.29661" y2="-14.2137" gradientUnits="userSpaceOnUse">
<stop offset="0.1599" stop-color="#BFAB8D"/>
<stop offset="0.5078" stop-color="#E7E1D2"/>
<stop offset="0.7297" stop-color="#CCBFA6"/>
</linearGradient>
<linearGradient id="paint1_linear_83_9503" x1="1.34377" y1="16.2594" x2="19.0326" y2="12.904" gradientUnits="userSpaceOnUse">
<stop offset="0.1599" stop-color="#BFAB8D"/>
<stop offset="0.5078" stop-color="#E7E1D2"/>
<stop offset="0.7297" stop-color="#CCBFA6"/>
</linearGradient>
<linearGradient id="paint2_linear_83_9503" x1="28.558" y1="32.7283" x2="-4.72735" y2="32.8128" gradientUnits="userSpaceOnUse">
<stop stop-color="#94938C"/>
<stop offset="0.2296" stop-color="#EDEBE1"/>
<stop offset="0.7988" stop-color="#EDEBE1"/>
<stop offset="1" stop-color="#94938C"/>
</linearGradient>
</defs>
</svg>
