<svg width="16" height="66" viewBox="0 0 16 66" fill="none" xmlns="http://www.w3.org/2000/svg">
<path d="M13.0112 24.8047C13.0116 32.3387 14.5464 39.8188 14.8966 47.3473C15.0396 50.4159 15.2759 53.4836 15.2315 56.5577C15.1965 58.9943 15.383 63.0578 13.8636 65.1329C13.2203 66.0094 11.3167 62.1074 11.1348 61.7327C9.99561 59.3868 9.28788 56.8929 8.40775 54.445C7.43734 51.7452 6.44788 49.0286 5.65259 46.2704C4.59145 42.5902 3.98669 38.7572 3.31072 34.9922C3.20501 34.4024 2.28134 26.8208 1.89844 26.7663C1.90161 26.7663 11.0504 28.0724 13.0112 24.8047Z" fill="url(#paint0_linear_83_9523)"/>
<path d="M0.403468 0.76211C0.552271 0.626464 0.814946 0.597882 1.30128 0.557052C2.04529 0.4949 2.81836 0.549345 3.56419 0.550706C6.60422 0.556604 9.64423 0.616485 12.6843 0.616485C12.6843 0.616485 15.6258 1.27023 15.2992 2.90433C14.9726 4.53843 13.9917 24.8028 13.0114 26.1098C12.031 27.4172 9.74314 31.6663 4.84035 30.3588C-0.0619813 29.0514 0.918385 17.6126 0.918385 17.6122C1.04768 15.5403 0.526882 13.2452 0.385791 11.1742C0.176197 8.09926 -0.00299952 4.99753 0.173024 1.91623C0.211585 1.24118 0.22563 0.924523 0.403468 0.76211Z" fill="url(#paint1_linear_83_9523)"/>
<path d="M0.100111 6.0334L3.27575 3.26613L12.0314 3.58369L15.0256 5.44366C15.0256 5.44366 15.2016 3.52108 15.227 3.39361C15.2071 3.40223 15.296 2.90549 15.296 2.90549C15.296 2.90549 15.4938 2.16195 14.7153 1.55723C14.2997 1.2247 13.9754 1.04369 12.9356 0.68032L12.6815 0.617721L3.21541 0.55602C3.21541 0.55602 1.78729 0.453948 0.67173 0.634955C0.67173 0.634955 0.248908 0.64494 0.220327 1.2297C0.208532 1.46786 0.122806 2.3062 0.100576 3.22077C0.0679126 4.54906 0.100111 6.0334 0.100111 6.0334Z" fill="#CECECE"/>
<defs>
<linearGradient id="paint0_linear_83_9523" x1="2.97919" y1="44.9951" x2="19.2847" y2="45.054" gradientUnits="userSpaceOnUse">
<stop stop-color="#BFAB8D"/>
<stop offset="0.5078" stop-color="#E7E1D2"/>
<stop offset="1" stop-color="#CCBFA6"/>
</linearGradient>
<linearGradient id="paint1_linear_83_9523" x1="-2.15327" y1="15.543" x2="17.3898" y2="15.6136" gradientUnits="userSpaceOnUse">
<stop stop-color="#94938C"/>
<stop offset="0.2296" stop-color="#EDEBE1"/>
<stop offset="0.7988" stop-color="#EDEBE1"/>
<stop offset="1" stop-color="#94938C"/>
</linearGradient>
</defs>
</svg>
