<svg width="19" height="67" viewBox="0 0 19 67" fill="none" xmlns="http://www.w3.org/2000/svg">
<path d="M3.15625 27.4067C5.06122 27.3967 6.99569 27.2211 8.89748 27.0687C11.2008 26.884 14.435 26.997 16.5382 25.8964C16.7306 25.7957 16.7941 25.4532 16.971 25.332C17.3734 26.6812 17.0291 28.8434 16.9497 30.2249C16.7224 34.174 16.5477 38.1305 16.5858 42.0869C16.6072 44.2709 16.7288 46.4394 16.9252 48.6139C17.1965 51.6167 18.2105 54.5483 18.4836 57.582C18.675 59.7092 18.6428 61.8719 18.2277 63.9724C18.097 64.6329 17.907 66.3455 17.334 66.5034C16.5781 66.7112 15.4381 65.5489 15.0583 65.0367C13.8026 63.3436 13.4805 61.0507 12.8381 59.0891C12.1195 56.8933 11.2774 54.7402 10.4177 52.5966C8.7405 48.4151 6.97662 44.2446 5.89642 39.858C5.26537 37.2953 4.98456 34.6699 4.39206 32.0976C4.02958 30.5215 3.60176 28.9609 3.15625 27.4067Z" fill="url(#paint0_linear_83_9543)"/>
<path d="M0.965725 8.65512C0.965725 8.65512 -0.0128357 3.42523 2.27596 1.79203C4.56475 0.158822 5.54468 0.813019 5.54468 0.813019C6.49105 1.07161 7.44194 1.31386 8.39466 1.5466C9.96347 1.92949 11.657 2.47843 13.283 2.43624C13.6088 2.42762 13.9354 2.39133 14.2593 2.42399C16.6824 2.66625 17.0757 5.24671 17.4396 7.13714C17.9064 9.56109 18.2353 12.0177 18.4295 14.4784C18.5897 16.5104 18.6672 18.5655 18.4962 20.5997C18.3724 22.0733 18.1659 23.7564 17.3008 25.0049C16.0922 26.7492 13.876 27.5418 11.8943 27.9977C9.37914 28.5766 6.73603 28.7127 4.16369 28.6043C2.76501 28.5448 2.3753 25.4281 2.29727 24.4391C1.88215 19.1743 1.44118 13.914 0.965725 8.65512Z" fill="url(#paint1_linear_83_9543)"/>
<path d="M0.75 5.57675C0.774045 5.56949 0.843019 4.62765 0.855268 4.56006C0.980484 3.85731 1.20731 3.15548 1.60247 2.55617C1.86197 2.16284 2.20768 1.81124 2.61645 1.57261C3.15587 1.24642 3.71073 0.917044 4.32864 0.764155C4.96788 0.606276 5.53724 0.807709 6.14199 0.980106C6.88104 1.19061 7.7648 1.36936 8.51927 1.57306C9.80137 1.91922 11.171 2.3561 12.2726 2.41826C13.3736 2.48041 14.6975 2.27127 15.3966 2.76169C16.0957 3.25166 16.5594 3.94805 16.8266 4.64308C16.8266 4.64308 17.2059 5.824 17.2181 6.14838L13.4195 4.15901L4.52735 3.3424C4.5269 3.3424 0.750907 5.5763 0.75 5.57675Z" fill="#CECECE"/>
<defs>
<linearGradient id="paint0_linear_83_9543" x1="7.78443" y1="45.8924" x2="16.8663" y2="45.9289" gradientUnits="userSpaceOnUse">
<stop stop-color="#BFAB8D"/>
<stop offset="0.5078" stop-color="#E7E1D2"/>
<stop offset="1" stop-color="#CCBFA6"/>
</linearGradient>
<linearGradient id="paint1_linear_83_9543" x1="-3.70582" y1="14.6244" x2="22.6222" y2="14.7305" gradientUnits="userSpaceOnUse">
<stop stop-color="#94938C"/>
<stop offset="0.2296" stop-color="#EDEBE1"/>
<stop offset="0.7988" stop-color="#EDEBE1"/>
<stop offset="1" stop-color="#94938C"/>
</linearGradient>
</defs>
</svg>
