<svg width="26" height="51" viewBox="0 0 26 51" fill="none" xmlns="http://www.w3.org/2000/svg">
<path d="M10.7183 2.20055C10.7183 2.20055 9.81229 0.146362 7.97813 0.660816C6.14398 1.17527 5.51021 5.96913 5.84229 9.50316C6.17392 13.0372 7.74585 24.2499 10.4483 24.4808C13.1508 24.7118 18.093 18.3609 15.8446 14.8228C13.5963 11.2847 9.8758 5.0745 10.7183 2.20055Z" fill="url(#paint0_linear_83_9490)"/>
<path d="M22.5419 32.6511C19.3431 32.4207 15.7133 30.8569 12.5086 30.7303C10.4984 30.6509 8.48727 30.518 6.47481 30.5824C5.54433 30.6119 4.16019 33.0925 3.2583 32.9778C2.67307 32.9033 3.05915 30.4998 3.08319 29.8778C3.1036 29.3484 3.14852 28.8213 3.07094 28.2937C2.79239 26.3919 1.74623 24.5863 1.31116 22.6845C0.807592 20.4847 0.467343 18.2422 0.258203 15.9957C0.0363592 13.6126 -0.0570998 11.1782 0.25457 8.79827C0.388855 7.77208 0.572136 6.73001 0.979529 5.77232C1.29664 5.02695 2.06561 3.56388 3.04826 3.67593C3.40892 3.71722 3.73193 3.92226 4.00187 4.16588C4.53084 4.64359 4.89922 5.27963 5.14283 5.9497C5.64504 7.33202 5.63415 8.82049 5.73079 10.2686C5.83059 11.7616 6.23753 13.1444 6.57234 14.5934C7.19386 17.2859 7.9279 20.4548 9.69176 22.6618C10.1209 23.199 10.766 23.6336 11.4506 23.5687C11.8018 23.5352 12.1298 23.3736 12.4165 23.1681C13.4495 22.4273 13.9748 21.1489 14.154 19.8904C14.521 17.3118 14.2448 14.4673 13.5556 11.9676C13.1514 10.5004 12.4047 9.1866 11.9483 7.75211C11.466 6.23551 10.8119 3.2268 12.95 2.64928C13.8129 2.4161 14.7315 2.85706 15.3767 3.47586C17.7684 5.76914 19.3839 9.17844 20.7671 12.1345C21.6155 13.9469 22.4344 15.8206 22.9565 17.7577C23.2705 18.9223 23.2369 20.0828 23.2038 21.2854C23.1103 24.6471 22.9153 29.3176 22.5419 32.6511Z" fill="url(#paint1_linear_83_9490)"/>
<path d="M3.59915 34.8185C3.32695 34.9015 2.93679 35.641 2.78572 35.8538C2.18733 36.6981 1.66923 37.6067 1.28134 38.5676C0.236076 41.1567 0.387603 43.9966 2.34837 46.1171C2.37151 46.142 2.3951 46.167 2.41824 46.1919C2.52395 46.3031 2.63418 46.4115 2.72038 46.5381C2.96219 46.8933 3.01981 47.3383 3.24892 47.7026C3.46532 48.0469 3.78334 48.369 4.09139 48.629C4.81681 49.2414 5.78312 49.667 6.74808 49.5717C7.07972 49.5391 7.39593 49.4211 7.7076 49.3041C9.06091 48.796 10.5304 48.2166 11.2481 46.8729C11.1664 47.0262 11.5389 47.65 11.6328 47.777C11.8578 48.0828 12.1336 48.2157 12.4816 48.35C13.6307 48.7941 14.8815 49.1507 15.983 49.7015C16.7443 49.9945 17.3867 50.2731 18.1611 50.019C18.6121 49.8711 19.0689 49.7414 19.5149 49.5781C20.3496 49.2727 21.7383 48.7383 21.7383 47.6554C21.7383 45.981 23.1338 40.958 19.7848 35.935C16.4376 30.9138 3.61004 34.8154 3.59915 34.8185Z" fill="#D8D6D0"/>
<path d="M3.58241 30.6913C3.26348 30.7884 2.80618 31.6549 2.62971 31.904C1.92879 32.8929 1.32225 33.9572 0.867673 35.0823C-0.356774 38.1151 -0.178934 41.4409 2.11707 43.9242C2.14429 43.9532 2.17196 43.9827 2.19918 44.0118C2.32303 44.142 2.45187 44.269 2.55304 44.4173C2.83658 44.8338 2.90373 45.3541 3.17185 45.7815C3.42499 46.1843 3.79745 46.5618 4.15857 46.8667C5.00829 47.5839 6.14018 48.082 7.26981 47.9709C7.65815 47.9328 8.02834 47.7944 8.39355 47.6574C9.97866 47.0626 11.6999 46.3835 12.5405 44.8097C12.4448 44.9889 12.8812 45.7198 12.991 45.8691C13.2546 46.227 13.578 46.3826 13.985 46.54C15.331 47.0604 16.7959 47.4777 18.0861 48.1228C18.9776 48.4663 19.7298 48.7925 20.6371 48.4948C21.1652 48.3216 21.7005 48.1696 22.2227 47.9786C23.2003 47.6211 24.8272 46.995 24.8272 45.7266C24.8272 43.7654 26.4613 37.8823 22.5393 31.9992C18.6187 26.1179 3.59466 30.6877 3.58241 30.6913Z" fill="url(#paint2_linear_83_9490)"/>
<path d="M25.048 43.4562C25.0588 43.5692 24.8315 45.5472 24.8266 45.7264C24.8216 45.9056 24.847 46.803 23.6869 47.3578C22.7088 47.9576 20.8089 48.6276 20.4659 48.6281C20.1229 48.6286 19.7419 48.6875 19.1965 48.5215C18.6512 48.3559 13.3401 46.3688 13.2072 46.3144C13.0743 46.2599 12.6202 45.3639 12.5281 44.9089C12.5281 44.9089 12.24 45.9038 10.5306 46.768C8.82071 47.6323 6.81821 48.708 4.93186 47.3977C2.99969 46.1783 2.54603 44.4997 2.54603 44.4997L0.640625 41.5508L5.8578 43.2747L19.9215 44.6358C19.9215 44.6358 25.0588 43.3423 25.048 43.4562Z" fill="#CECECE"/>
<defs>
<linearGradient id="paint0_linear_83_9490" x1="14.2274" y1="23.4543" x2="-4.33445" y2="-21.9107" gradientUnits="userSpaceOnUse">
<stop offset="0.1599" stop-color="#BFAB8D"/>
<stop offset="0.5078" stop-color="#E7E1D2"/>
<stop offset="0.7297" stop-color="#CCBFA6"/>
</linearGradient>
<linearGradient id="paint1_linear_83_9490" x1="1.3544" y1="17.4654" x2="22.2649" y2="18.4109" gradientUnits="userSpaceOnUse">
<stop offset="0.1599" stop-color="#BFAB8D"/>
<stop offset="0.5078" stop-color="#E7E1D2"/>
<stop offset="0.7297" stop-color="#CCBFA6"/>
</linearGradient>
<linearGradient id="paint2_linear_83_9490" x1="-5.6738" y1="41.1306" x2="29.1487" y2="37.4737" gradientUnits="userSpaceOnUse">
<stop stop-color="#94938C"/>
<stop offset="0.2296" stop-color="#EDEBE1"/>
<stop offset="0.7988" stop-color="#EDEBE1"/>
<stop offset="1" stop-color="#94938C"/>
</linearGradient>
</defs>
</svg>
