<svg width="27" height="49" viewBox="0 0 27 49" fill="none" xmlns="http://www.w3.org/2000/svg">
<path d="M15.8536 42.4368C16.0555 44.3939 14.7857 44.8389 13.8847 43.4752C12.1422 40.8395 11.4699 37.1648 10.8983 33.811C10.6333 32.2576 9.32312 26.6972 10.6152 25.7726C11.8972 24.8558 15.8269 28.265 15.5433 31.5395C15.3895 33.316 15.1654 35.0794 15.1491 36.8927C15.1309 38.8638 15.6554 40.5196 15.8536 42.4368Z" fill="url(#paint0_linear_83_9593)"/>
<path d="M4.22656 20.1755C4.91206 22.134 5.46461 24.1782 5.78354 26.2288C5.99813 27.6088 5.96638 28.8355 5.75678 30.2015C5.40428 32.4971 5.37885 34.8929 5.47775 37.2084C5.632 40.8201 7.36459 43.5403 8.74966 46.789C9.25868 47.9826 10.436 48.6091 11.503 47.5108C12.8563 46.118 12.4916 43.1905 12.5455 41.4239C12.619 39.0059 12.6681 36.571 13.1517 34.1916C13.3599 33.1672 13.6525 32.146 14.1874 31.2477C14.7191 30.3544 15.7018 29.9189 16.6431 30.5622C17.8966 31.4187 18.1793 33.2951 18.6121 34.6307C19.0181 35.8833 19.3861 37.1481 19.7413 38.4161C20.243 40.2072 20.7072 42.0087 21.1853 43.8057C21.3836 44.5497 22.0305 46.2972 23.1243 45.5378C23.4936 45.281 23.676 44.8364 23.8298 44.414C24.3347 43.0249 24.738 41.6018 25.1404 40.18C25.6799 38.275 26.1762 36.3755 26.2924 34.3916C26.4507 31.6869 25.385 29.0143 24.8642 26.3962C24.3107 23.6138 23.965 20.7902 23.8325 17.9566C23.8239 17.7702 23.8094 17.5674 23.6837 17.4294C23.5136 17.2434 23.2219 17.258 22.9719 17.2865C19.9001 17.6386 16.8219 17.9248 13.7532 18.3086C11.6768 18.5668 9.59759 18.8399 7.53927 19.2191C6.63192 19.3861 4.9293 19.4728 4.22656 20.1755Z" fill="url(#paint1_linear_83_9593)"/>
<path d="M1.82588 15.9295C1.72335 14.7028 1.75148 13.4598 1.51784 12.248C1.15309 10.3567 0.198126 8.70903 0.333319 6.7052C0.659053 1.88096 7.40103 1.50806 10.7908 2.84409C12.2004 3.39938 12.7788 2.87494 13.9638 2.1264C15.2476 1.31525 16.7624 0.890625 18.2799 0.890625C20.0152 0.890625 21.9302 1.38421 23.4123 2.29607C25.6049 3.64526 25.6031 5.85867 25.7537 8.18187C25.9206 10.7514 25.8612 13.3985 25.0115 15.8556C24.7516 16.6077 24.4072 17.3468 23.8655 17.9297C23.0956 18.7585 22.1148 18.8679 21.0746 19.1074C19.6546 19.4345 18.2187 19.7112 16.7874 19.9821C13.9806 20.5133 11.1474 20.9456 8.29154 21.089C6.93734 21.157 5.53507 21.0196 4.3324 20.3931C2.59077 19.4867 1.98058 17.7809 1.82588 15.9295Z" fill="url(#paint2_linear_83_9593)"/>
<path d="M0.317723 7.40806C0.317723 7.40806 -0.0443166 4.24948 3.04751 2.95239C6.13888 1.6553 9.11866 2.38029 9.11866 2.38029C9.11866 2.38029 10.4529 2.68698 10.995 2.94241C11.5372 3.19784 12.2781 3.23413 13.1328 2.67156C13.9875 2.10899 15.5918 1.02694 17.3076 0.95571C19.0234 0.884481 20.2633 0.835933 22.426 1.79185C24.5886 2.74777 24.9847 3.9868 24.9847 3.9868C24.9847 3.9868 25.8676 5.67542 25.7573 8.54273C21.4279 5.69357 18.2975 5.37599 18.2975 5.37599L7.09159 6.05652L0.694733 9.32307C0.694733 9.32217 0.303659 8.12489 0.317723 7.40806Z" fill="#CECECE"/>
<defs>
<linearGradient id="paint0_linear_83_9593" x1="12.6618" y1="25.5065" x2="10.5523" y2="64.3108" gradientUnits="userSpaceOnUse">
<stop offset="0.1599" stop-color="#BFAB8D"/>
<stop offset="0.5078" stop-color="#E7E1D2"/>
<stop offset="0.7297" stop-color="#CCBFA6"/>
</linearGradient>
<linearGradient id="paint1_linear_83_9593" x1="6.75338" y1="34.0669" x2="24.2478" y2="30.6626" gradientUnits="userSpaceOnUse">
<stop stop-color="#BFAB8D"/>
<stop offset="0.5078" stop-color="#E7E1D2"/>
<stop offset="1" stop-color="#CCBFA6"/>
</linearGradient>
<linearGradient id="paint2_linear_83_9593" x1="-3.75223" y1="14.0137" x2="29.5462" y2="7.53404" gradientUnits="userSpaceOnUse">
<stop stop-color="#94938C"/>
<stop offset="0.2114" stop-color="#EDEBE1"/>
<stop offset="0.847" stop-color="#EDEBE1"/>
<stop offset="1" stop-color="#94938C"/>
</linearGradient>
</defs>
</svg>
