<svg width="26" height="75" viewBox="0 0 26 75" fill="none" xmlns="http://www.w3.org/2000/svg">
<path d="M13.0092 0.81732C14.5621 2.343 15.3361 5.59625 16.1178 7.5824C18.5077 13.6543 20.3242 19.9603 21.3767 26.4037C21.9007 29.6107 22.2355 32.8494 22.3629 36.0968C22.4274 37.73 22.4396 39.365 22.3983 40.9991C22.3648 42.3365 22.5852 44.2814 22.0295 45.4945C21.3454 44.7214 20.8581 43.7919 20.1341 43.0483C18.3639 41.23 16.0751 39.9298 13.4906 39.9284C12.3995 39.928 11.3275 40.1494 10.3081 40.5218C9.89434 40.6729 9.48967 40.8485 9.09543 41.0445C7.94539 41.6161 6.56125 43.3414 5.33726 43.4344C5.15851 41.0422 5.76324 38.3574 5.99098 35.9584C5.99098 29.8684 7.19412 23.4367 8.10554 17.4279C8.37955 15.6205 8.79192 13.8371 8.75381 12.0043C8.71434 10.112 8.50204 8.22208 8.63043 6.32847C8.74566 4.63311 8.95797 0.538768 11.293 0.278817C11.7521 0.227553 12.204 0.397675 12.6345 0.565078C12.7724 0.619518 12.8963 0.707079 13.0092 0.81732Z" fill="url(#paint0_linear_83_9432)"/>
<path d="M25.293 69.4623C25.293 69.4623 27.5808 42.6614 15.4879 38.7389C15.4879 38.7389 1.76051 36.4511 0.453499 60.3104C0.416299 60.9909 0.310593 61.6678 0.281559 62.351C0.218953 63.8418 0.272938 65.3484 0.530166 66.8201C0.80055 68.3658 1.30594 69.9631 2.35663 71.164C2.8661 71.7461 3.50166 72.2079 4.22299 72.491C4.84814 72.7364 5.53636 72.8285 6.19235 72.9633C6.99988 73.1293 7.80922 73.2854 8.62309 73.416C9.06224 73.4863 9.5032 73.5499 9.94461 73.6029C11.5674 73.7985 13.2033 73.8602 14.8369 73.9219C17.4904 74.0221 20.2405 74.1541 22.7193 73.0191C24.186 72.3485 25.293 71.1436 25.293 69.4623Z" fill="url(#paint1_linear_83_9432)"/>
<path d="M0.313734 64.9062L4.75966 67.7644L8.52508 67.719L18.1882 67.6283L21.9082 67.3561L25.3561 65.2692C25.3561 65.2692 25.342 69.7891 25.2826 69.8826C25.2231 69.976 25.068 73.5927 18.9304 73.9166C18.9304 73.9166 12.3486 74.3707 7.67129 73.1939C7.67129 73.1939 2.70818 73.2692 1.0396 69.2157C-0.0945654 65.0877 0.313734 64.9062 0.313734 64.9062Z" fill="#CECECE"/>
<defs>
<linearGradient id="paint0_linear_83_9432" x1="18.6955" y1="22.8476" x2="5.21439" y2="23.0886" gradientUnits="userSpaceOnUse">
<stop stop-color="#BFAB8D"/>
<stop offset="0.5078" stop-color="#E7E1D2"/>
<stop offset="1" stop-color="#CCBFA6"/>
</linearGradient>
<linearGradient id="paint1_linear_83_9432" x1="30.3679" y1="56.3257" x2="-4.65324" y2="56.3436" gradientUnits="userSpaceOnUse">
<stop stop-color="#94938C"/>
<stop offset="0.2296" stop-color="#EDEBE1"/>
<stop offset="0.7876" stop-color="#EDEBE1"/>
<stop offset="1" stop-color="#94938C"/>
</linearGradient>
</defs>
</svg>
