<svg width="25" height="42" viewBox="0 0 25 42" fill="none" xmlns="http://www.w3.org/2000/svg">
<path d="M6.49505 2.60379C5.9813 0.93235 7.53828 0.14601 8.86416 1.07609C11.4272 2.87378 12.7649 5.92134 13.9326 8.71638C14.4735 10.0108 16.8706 14.5328 15.3477 15.7503C13.8365 16.9582 8.38929 15.1505 8.3207 12.1619C8.28357 10.5403 8.33687 8.90904 8.11974 7.29745C7.88384 5.54607 6.99876 4.24115 6.49505 2.60379Z" fill="url(#paint0_linear_75_3449)"/>
<path d="M21.6992 25.6422C22.6258 19.568 22.6109 12.2391 19.9111 6.61752C19.2838 5.31086 18.4297 4.11559 17.4123 3.08371C17.013 2.67873 14.6342 0.247139 14.1345 0.845645C13.6247 1.45595 14.0855 2.81985 14.176 3.49831C14.3271 4.63372 14.4704 5.76999 14.5888 6.90934C14.8286 9.2208 15.4258 11.7254 14.8011 14.0255C14.6635 14.5318 14.3455 15.0324 13.8466 15.1945C13.5831 15.2801 13.2961 15.2627 13.0257 15.2041C11.3141 14.8332 10.0756 13.1076 9.02316 11.8416C7.51817 10.0316 6.65449 7.99846 5.90265 5.78573C5.53743 4.71104 5.11979 3.66692 4.20194 2.9509C3.98088 2.77834 1.81535 0.121323 1.4746 0.203017C0.352734 0.471253 0.740232 3.49786 0.78086 4.18592C1.0954 9.53666 5.01844 19.0324 5.01844 19.0324C5.01844 19.0324 5.9625 25.0122 5.01844 26.9008C4.07437 28.7894 20.4406 28.7898 21.6992 25.6422Z" fill="url(#paint1_linear_75_3449)"/>
<path d="M22.6442 26.5865C22.6438 26.5861 20.1261 23.7539 14.4609 23.7539C8.79565 23.7539 4.70399 25.6425 3.75993 28.1601C2.81587 30.6782 2.50089 37.602 5.96303 38.861C7.05825 39.2595 8.26224 39.3582 9.24955 38.6522C10.094 38.0485 10.4278 36.9388 11.6977 37.3504C12.2512 37.5295 12.7078 37.9179 13.1769 38.2621C15.2398 39.7754 18.7456 41.345 21.0951 39.5587C24.3069 37.1166 25.441 29.7332 22.6442 26.5865Z" fill="url(#paint2_linear_75_3449)"/>
<path d="M22.6677 26.6138C22.6672 26.6134 20.1496 23.7812 14.4843 23.7812C8.81909 23.7812 4.72743 25.6698 3.78337 28.1874C2.83931 30.7055 2.52433 37.6292 5.98647 38.8882C7.08169 39.2867 8.28569 39.3854 9.273 38.6794C10.1175 38.0757 10.4512 36.9661 11.7212 37.3776C12.2747 37.5567 12.7312 37.9451 13.2004 38.2893C15.2633 39.8026 18.7691 41.3722 21.1186 39.5859C24.3304 37.1439 25.4649 29.7605 22.6677 26.6138Z" fill="url(#paint3_linear_75_3449)"/>
<path d="M12.5248 34.672C13.2474 34.6383 13.9848 34.6432 14.6842 34.7716C16.049 35.0224 17.329 35.6942 18.371 36.6628C18.5046 36.7868 19.398 37.3879 19.4177 37.5876C19.1032 38.7986 17.3736 39.4779 17.3736 39.4779L16.734 40.2332L16.2661 40.4232L16.0298 41.0785L14.9132 41.1571L14.0163 40.9959L11.7131 40.4756L10.939 39.5569L9.30643 40.0008L8.28503 38.7378L7.4563 38.2289C7.4563 38.2289 5.85999 37.4587 5.84819 37.4443C5.81106 37.3997 7.7171 36.1643 7.80098 36.1058C8.18411 35.841 8.5869 35.6108 9.00411 35.4186C9.92896 34.9922 10.9062 34.776 11.8992 34.7082C12.1063 34.6943 12.3151 34.6816 12.5248 34.672Z" fill="black"/>
<defs>
<linearGradient id="paint0_linear_75_3449" x1="12.7978" y1="16.6148" x2="5.85427" y2="-17.4927" gradientUnits="userSpaceOnUse">
<stop offset="0.1599" stop-color="#BFAB8D"/>
<stop offset="0.5078" stop-color="#E7E1D2"/>
<stop offset="0.7297" stop-color="#CCBFA6"/>
</linearGradient>
<linearGradient id="paint1_linear_75_3449" x1="27.4258" y1="14.1195" x2="1.33631" y2="14.2137" gradientUnits="userSpaceOnUse">
<stop offset="0.1599" stop-color="#BFAB8D"/>
<stop offset="0.5078" stop-color="#E7E1D2"/>
<stop offset="0.7297" stop-color="#CCBFA6"/>
</linearGradient>
<linearGradient id="paint2_linear_75_3449" x1="29.0186" y1="32.0092" x2="-1.96687" y2="32.1211" gradientUnits="userSpaceOnUse">
<stop stop-color="#94938C"/>
<stop offset="0.2296" stop-color="#EDEBE1"/>
<stop offset="0.7988" stop-color="#EDEBE1"/>
<stop offset="1" stop-color="#94938C"/>
</linearGradient>
<linearGradient id="paint3_linear_75_3449" x1="29.2748" y1="32.0356" x2="-2.07862" y2="32.1488" gradientUnits="userSpaceOnUse">
<stop stop-color="#94938C"/>
<stop offset="0.2296" stop-color="#EDEBE1"/>
<stop offset="0.7988" stop-color="#EDEBE1"/>
<stop offset="1" stop-color="#94938C"/>
</linearGradient>
</defs>
</svg>
