<svg width="19" height="59" viewBox="0 0 19 59" fill="none" xmlns="http://www.w3.org/2000/svg">
<path d="M6.50686 33.3255C6.50686 33.3255 3.35972 34.5846 2.41523 41.8234C2.41523 41.8234 1.47118 49.3772 1.15621 51.5803C1.06403 52.2246 0.939962 53.4998 0.98059 54.1888C1.07845 55.8558 14.3048 54.3198 17.5812 53.8393C17.7839 53.5046 18.0504 52.8791 18.1518 52.5243C18.7813 50.3212 18.1518 39.6203 17.2077 37.7317C16.2632 35.8432 14.0602 30.8075 6.50686 33.3255Z" fill="url(#paint0_linear_75_3507)"/>
<path d="M9.65302 3.42641C9.65302 3.42641 2.74434 18.5305 5.56915 34.4263C5.56915 34.4263 15.5862 33.2389 16.0816 35.9579C14.6766 29.3451 14.0016 22.3858 14.2777 15.6354C14.39 12.8967 14.5831 10.162 14.66 7.42197C14.7098 5.63782 15.02 3.59941 14.2541 1.93758C13.9326 1.23904 13.4009 0.212412 12.5285 0.130718C11.0484 -0.00776749 10.0969 2.40546 9.65302 3.42641Z" fill="url(#paint1_linear_75_3507)"/>
<path d="M9.45285 50.808C8.56948 50.7805 7.66732 50.7958 6.80973 50.95C5.13692 51.2514 3.56153 52.0264 2.27361 53.1322C2.10847 53.2741 1.00712 53.9635 0.980469 54.189C1.34832 55.549 3.45494 56.2908 3.45494 56.2908L4.2269 57.1331L4.79659 57.3406L5.07663 58.0759L6.44145 58.1493L7.54063 57.9549L10.3655 57.3367L11.3253 56.2904L13.3166 56.7679L14.5836 55.331L15.6041 54.746C15.6041 54.746 17.5679 53.8556 17.5823 53.8399C17.6286 53.7888 15.314 52.4231 15.2118 52.3589C14.747 52.0658 14.2572 51.8124 13.7496 51.6013C12.6237 51.1334 11.4315 50.9032 10.2174 50.8412C9.96487 50.8276 9.7093 50.8159 9.45285 50.808Z" fill="black"/>
<defs>
<linearGradient id="paint0_linear_75_3507" x1="-3.46974" y1="44.3598" x2="21.7015" y2="43.0987" gradientUnits="userSpaceOnUse">
<stop stop-color="#94938C"/>
<stop offset="0.1599" stop-color="#D1CFC6"/>
<stop offset="0.2296" stop-color="#EDEBE1"/>
<stop offset="0.7988" stop-color="#EDEBE1"/>
<stop offset="0.9762" stop-color="#9F9E96"/>
<stop offset="1" stop-color="#94938C"/>
</linearGradient>
<linearGradient id="paint1_linear_75_3507" x1="13.5497" y1="18.0537" x2="4.90128" y2="18.2083" gradientUnits="userSpaceOnUse">
<stop stop-color="#BFAB8D"/>
<stop offset="0.5078" stop-color="#E7E1D2"/>
<stop offset="1" stop-color="#CCBFA6"/>
</linearGradient>
</defs>
</svg>
