<svg width="20" height="67" viewBox="0 0 20 67" fill="none" xmlns="http://www.w3.org/2000/svg">
<path d="M4.25781 44.0544C4.25781 44.0544 15.8915 41.1384 16.8582 42.8011L12.16 9.52818C12.16 9.52818 8.86699 0.976562 7.608 0.976562C6.349 0.976562 5.09 4.75326 5.09 4.75326C5.09 4.75326 4.53827 36.0908 4.25781 44.0544Z" fill="url(#paint0_linear_75_3517)"/>
<path d="M6.494 40.6879C6.49356 40.6887 -0.430222 49.8158 0.828805 57.3692C1.0966 58.9751 1.85543 61.235 2.5531 62.7514C2.91438 63.5365 4.62948 62.8519 5.13056 63.5378C5.84701 64.5181 7.18948 63.4548 8.36331 63.8436C9.91591 64.3578 10.6948 63.6667 12.2514 63.3193C13.0176 63.1485 13.0228 64.8274 13.7367 64.4989C15.6741 63.6077 17.0135 63.3206 17.9585 61.6024C19.4473 58.8947 19.8453 55.4889 19.5998 52.4204C19.3175 48.897 18.2481 45.4799 16.858 42.2514C15.9563 40.1571 13.8559 39.6084 11.7594 39.3117C10.1811 39.0885 7.56692 39.2737 6.494 40.6879Z" fill="url(#paint1_linear_75_3517)"/>
<path d="M10.9602 59.3197C10.0769 59.2922 9.17477 59.3075 8.31723 59.4621C6.64451 59.7635 5.06922 60.5385 3.78137 61.6442C3.61624 61.7862 2.51493 62.4755 2.48828 62.701C2.85611 64.0609 4.96263 64.8027 4.96263 64.8027L5.73454 65.6449L6.3042 65.8524L6.58423 66.5872L7.94895 66.6606L9.04808 66.4662L11.8728 65.8481L12.8325 64.8018L14.8237 65.2793L16.0906 63.8425L17.1111 63.2575C17.1111 63.2575 17.9599 61.6311 17.9747 61.6149C18.021 61.5638 16.821 60.9348 16.7188 60.8705C16.254 60.5774 15.7643 60.324 15.2566 60.113C14.1309 59.6452 12.9387 59.4149 11.7247 59.3529C11.4717 59.3393 11.2166 59.328 10.9602 59.3197Z" fill="black"/>
<defs>
<linearGradient id="paint0_linear_75_3517" x1="15.1909" y1="22.8007" x2="5.66406" y2="22.5072" gradientUnits="userSpaceOnUse">
<stop stop-color="#BFAB8D"/>
<stop offset="0.5078" stop-color="#E7E1D2"/>
<stop offset="1" stop-color="#CCBFA6"/>
</linearGradient>
<linearGradient id="paint1_linear_75_3517" x1="25.6935" y1="51.6428" x2="-6.03824" y2="52.2099" gradientUnits="userSpaceOnUse">
<stop stop-color="#94938C"/>
<stop offset="0.0617" stop-color="#A4A29B"/>
<stop offset="0.1809" stop-color="#CCCAC2"/>
<stop offset="0.2666" stop-color="#EDEBE1"/>
<stop offset="0.7117" stop-color="#EDEBE1"/>
<stop offset="0.7719" stop-color="#E0DED5"/>
<stop offset="0.883" stop-color="#BEBDB4"/>
<stop offset="1" stop-color="#94938C"/>
</linearGradient>
</defs>
</svg>
