<svg width="18" height="56" viewBox="0 0 18 56" fill="none" xmlns="http://www.w3.org/2000/svg">
<path d="M14.4428 36.8123C14.4428 36.8123 14.1282 26.1113 13.1837 23.2787C12.2391 20.446 11.295 11.004 11.61 8.48593C11.9246 5.96783 11.9246 2.1911 11.9246 2.1911C11.9246 2.1911 12.2391 -0.641523 9.40636 1.56159C6.5736 3.76471 3.11129 14.4657 3.42628 18.872C3.74084 23.2782 3.84044 36.5563 3.79064 36.5271C3.74127 36.4978 14.4428 36.8123 14.4428 36.8123Z" fill="url(#paint0_linear_75_3526)"/>
<path d="M4.05455 35.5542C4.05455 35.5542 -3.18413 46.2553 2.16603 51.9206C2.81956 52.6126 3.84749 53.0992 4.64388 53.6056C5.46604 54.1285 6.34324 54.8546 7.34538 54.9677C8.49475 55.0979 9.33614 53.8952 10.4658 53.6606C12.2618 53.2875 9.67294 50.2666 11.2063 49.0416C11.8231 48.5488 16.4625 51.6593 16.8417 50.9638C17.2415 50.2312 17.7146 49.0014 17.8482 48.1915C18.1733 46.2217 17.8369 44.2199 17.4446 42.2859C17.2773 41.4615 16.9925 40.6769 16.6591 39.905C16.304 39.0819 15.6636 38.2785 15.3848 37.4424C15.3844 37.4424 12.8668 29.889 4.05455 35.5542Z" fill="url(#paint1_linear_75_3526)"/>
<path d="M9.31564 47.8674C8.50262 47.8298 7.67346 47.8351 6.88665 47.9797C5.35149 48.2614 3.91154 49.0172 2.73986 50.1067C2.58957 50.2465 1.58478 50.9223 1.5625 51.1473C1.91637 52.5094 3.86175 53.2735 3.86175 53.2735L4.58128 54.1232L5.10771 54.3368L5.37375 55.0737L6.62976 55.1624L7.63851 54.9807L10.2291 54.3953L11.0998 53.3617L12.9364 53.861L14.085 52.4408L15.0168 51.8685C15.0168 51.8685 16.8124 51.0023 16.8259 50.9861C16.8678 50.9359 14.7237 49.5462 14.6293 49.4807C14.1986 49.1828 13.7451 48.9242 13.2759 48.7079C12.2353 48.2283 11.1361 47.9849 10.019 47.9089C9.78659 47.8928 9.55155 47.8783 9.31564 47.8674Z" fill="black"/>
<defs>
<linearGradient id="paint0_linear_75_3526" x1="13.5763" y1="18.8135" x2="1.16065" y2="18.431" gradientUnits="userSpaceOnUse">
<stop stop-color="#BFAB8D"/>
<stop offset="0.5078" stop-color="#E7E1D2"/>
<stop offset="1" stop-color="#CCBFA6"/>
</linearGradient>
<linearGradient id="paint1_linear_75_3526" x1="21.4224" y1="44.6024" x2="-4.31338" y2="43.8096" gradientUnits="userSpaceOnUse">
<stop stop-color="#94938C"/>
<stop offset="0.0311" stop-color="#A6A59D"/>
<stop offset="0.0939" stop-color="#C5C3BB"/>
<stop offset="0.1552" stop-color="#DBD9D0"/>
<stop offset="0.2138" stop-color="#E8E7DD"/>
<stop offset="0.2666" stop-color="#EDEBE1"/>
<stop offset="0.7117" stop-color="#EDEBE1"/>
<stop offset="0.7637" stop-color="#E7E5DB"/>
<stop offset="0.835" stop-color="#D5D3CA"/>
<stop offset="0.9175" stop-color="#B8B7AF"/>
<stop offset="1" stop-color="#94938C"/>
</linearGradient>
</defs>
</svg>
