<svg width="18" height="54" viewBox="0 0 18 54" fill="none" xmlns="http://www.w3.org/2000/svg">
<path d="M8.39651 52.3568C8.39651 52.3568 2.96224 52.7242 1.61011 49.2003C0.257985 45.676 8.07585 50.3165 8.39651 52.3568Z" fill="#D8D6D0"/>
<path d="M6.22495 32.5845C6.145 32.6239 6.06898 32.6684 5.99733 32.7187C4.61285 33.6855 3.44594 35.2529 2.56562 36.6705C1.22788 38.8243 0.273293 41.2877 0.53018 43.8582C0.705808 45.6153 0.902837 47.6358 1.78097 49.2137C2.29388 50.1355 3.44682 50.558 4.38568 50.8847C5.18998 51.1648 6.0017 51.4277 6.79027 51.7506C7.51856 52.0485 8.2333 52.5566 9.05377 52.4911C9.997 52.4155 10.6558 51.6763 11.4103 51.1966C12.5943 50.4444 16.784 49.3959 16.9876 49.0988C17.9129 47.7472 17.85 46.735 17.8579 45.1631C17.8662 43.566 17.8351 41.9592 17.5306 40.3865C16.9885 37.584 15.1369 35.2656 14.1636 32.6204C14.1076 32.4679 14.0517 32.312 13.9491 32.1861C13.7734 31.9708 13.486 31.8777 13.209 31.8554C12.69 31.8135 12.167 31.8939 11.6528 31.9489C10.6777 32.0538 9.72569 32.1626 8.74533 32.2298C7.96811 32.2836 6.94886 32.2268 6.22495 32.5845Z" fill="url(#paint0_linear_75_3536)"/>
<path d="M4.16105 34.4268C4.196 34.4552 4.23793 34.4775 4.28905 34.4915C4.54593 34.5636 5.33757 34.1761 5.61761 34.1027C6.54598 33.8598 7.48483 33.6566 8.42936 33.4876C9.43025 33.3085 10.4412 33.1385 11.4604 33.1302C12 33.1259 12.5426 33.1634 13.0708 33.2779C13.54 33.3797 14.0455 33.7012 14.4898 33.7414C14.8135 32.4793 14.485 31.0115 14.4098 29.7297C14.3264 28.3047 14.1953 26.8827 14.0175 25.4664C13.6842 22.8085 13.0205 20.2498 12.5369 17.6255C12.066 15.073 11.9349 12.3745 11.9913 9.77513C12.0179 8.55279 12.0917 7.32826 12.232 6.11378C12.3512 5.07711 12.6501 4.14921 12.5439 3.07496C12.436 1.98281 11.9235 0.32884 10.4814 0.776188C9.39575 1.11301 8.7199 2.30695 8.17205 3.21475C7.12835 4.94341 6.3686 6.82674 5.66872 8.72054C4.96971 10.6117 4.32531 12.5357 3.96051 14.5225C3.64203 16.2555 3.68091 17.9519 3.71105 19.7015C3.75824 22.4791 3.82466 25.2562 3.89325 28.0334C3.93738 29.8254 3.83514 31.6947 3.97625 33.512C4.00159 33.8519 3.95135 34.256 4.16105 34.4268Z" fill="url(#paint1_linear_75_3536)"/>
<path d="M9.499 46.0061C8.68601 45.9685 7.85685 45.9738 7.07007 46.1184C5.53496 46.4002 4.09508 47.1559 2.92343 48.2455C2.77315 48.3853 1.76794 49.0611 1.74609 49.2861C2.09995 50.6483 4.04529 51.4124 4.04529 51.4124L4.76478 52.2621L5.2912 52.4758L5.55724 53.2127L6.8132 53.3014L7.8219 53.1197L10.4125 52.5343L11.2831 51.5006L13.1197 52L14.2682 50.5797L15.2 50.0074C15.2 50.0074 16.9955 49.1411 17.009 49.1249C17.0509 49.0747 14.9068 47.685 14.8125 47.6195C14.3817 47.3215 13.9283 47.0629 13.4591 46.8466C12.4185 46.3669 11.3194 46.1236 10.2023 46.0476C9.96993 46.0314 9.7349 46.017 9.499 46.0061Z" fill="black"/>
<defs>
<linearGradient id="paint0_linear_75_3536" x1="23.5935" y1="42.5606" x2="-5.53152" y2="41.6634" gradientUnits="userSpaceOnUse">
<stop stop-color="#94938C"/>
<stop offset="0.2666" stop-color="#EDEBE1"/>
<stop offset="0.7117" stop-color="#EDEBE1"/>
<stop offset="1" stop-color="#94938C"/>
</linearGradient>
<linearGradient id="paint1_linear_75_3536" x1="17.2913" y1="18.6108" x2="3.46314" y2="17.1586" gradientUnits="userSpaceOnUse">
<stop stop-color="#BFAB8D"/>
<stop offset="0.5078" stop-color="#E7E1D2"/>
<stop offset="1" stop-color="#CCBFA6"/>
</linearGradient>
</defs>
</svg>
