<svg width="25" height="49" viewBox="0 0 25 49" fill="none" xmlns="http://www.w3.org/2000/svg">
<path d="M14.4229 1.92758C14.4229 1.92758 15.2953 -0.0505414 17.0615 0.444864C18.8276 0.940269 19.4379 5.55663 19.1181 8.95982C18.7988 12.363 17.2851 23.1606 14.6828 23.3829C12.0805 23.6057 7.32144 17.4896 9.48691 14.0825C11.6519 10.6758 15.2341 4.69513 14.4229 1.92758Z" fill="url(#paint0_linear_75_3548)"/>
<path d="M3.03958 31.2505C6.11997 31.0286 9.61539 29.5227 12.7015 29.4008C14.6372 29.3243 16.5739 29.1963 18.5119 29.2584C19.4079 29.2868 20.7408 31.6755 21.6093 31.565C22.1729 31.4934 21.8011 29.1789 21.7779 28.5799C21.7583 28.0701 21.715 27.5625 21.7897 27.0544C22.058 25.2231 23.0654 23.4843 23.4844 21.653C23.9693 19.5347 24.2969 17.3752 24.4983 15.2119C24.712 12.9171 24.8024 10.5729 24.5018 8.28107C24.3725 7.29288 24.196 6.2894 23.8037 5.36718C23.4984 4.64942 22.7578 3.24053 21.8116 3.34844C21.4642 3.38819 21.1532 3.58567 20.8937 3.82027C20.3843 4.28028 20.0296 4.89276 19.795 5.538C19.3113 6.86913 19.3218 8.30248 19.2288 9.69695C19.1327 11.1347 18.7408 12.4662 18.4184 13.8616C17.8199 16.4544 17.113 19.5058 15.4144 21.6312C15.0012 22.1484 14.3799 22.5669 13.7207 22.5045C13.3825 22.4721 13.0667 22.3166 12.7906 22.1187C11.7958 21.4053 11.2899 20.1742 11.1174 18.9624C10.7639 16.4792 11.03 13.7401 11.6936 11.333C12.0828 9.92017 12.8019 8.65502 13.2414 7.27366C13.7058 5.81323 14.3358 2.91595 12.2768 2.35982C11.4459 2.13528 10.5612 2.55992 9.93999 3.1558C7.6368 5.36414 6.08108 8.64716 4.74906 11.4938C3.9321 13.239 3.14356 15.0433 2.64072 16.9087C2.3384 18.0301 2.37072 19.1476 2.40261 20.3057C2.49174 23.5433 2.67959 28.0408 3.03958 31.2505Z" fill="url(#paint1_linear_75_3548)"/>
<path d="M21.2758 33.3374C21.5379 33.4173 21.914 34.1294 22.059 34.3343C22.6357 35.1473 23.1341 36.0224 23.5077 36.9476C24.5142 39.4408 24.3683 42.1751 22.4802 44.217C22.4575 44.2411 22.4352 44.2651 22.4129 44.2891C22.3111 44.3961 22.205 44.5005 22.122 44.6224C21.8891 44.9645 21.8336 45.3926 21.613 45.7439C21.4046 46.0755 21.0984 46.3856 20.8018 46.6359C20.1033 47.2257 19.1727 47.6355 18.2435 47.5437C17.9242 47.5123 17.6197 47.3987 17.3196 47.286C16.0165 46.7967 14.6015 46.2388 13.9104 44.9449C13.989 45.0925 13.6303 45.6932 13.5399 45.8155C13.3232 46.11 13.0576 46.2379 12.7225 46.3673C11.616 46.7949 10.4116 47.1383 9.35089 47.6687C8.61784 47.9509 7.99924 48.2191 7.25353 47.9745C6.81929 47.8321 6.37938 47.7071 5.94995 47.5499C5.14613 47.2559 3.8089 46.7412 3.8089 45.6984C3.8089 44.086 2.46513 39.249 5.69001 34.4121C8.91358 29.5773 21.2657 33.3339 21.2758 33.3374Z" fill="#D8D6D0"/>
<path d="M21.2937 29.3627C21.6008 29.4562 22.0411 30.2907 22.211 30.5305C22.886 31.4829 23.47 32.5078 23.9078 33.5912C25.0868 36.5116 24.9156 39.7143 22.7047 42.1058C22.6785 42.1337 22.6518 42.1621 22.6256 42.1901C22.5064 42.3154 22.3823 42.4378 22.2849 42.5806C22.0119 42.9817 21.9472 43.4828 21.689 43.8943C21.4452 44.2822 21.0866 44.6457 20.7389 44.9393C19.9206 45.63 18.8307 46.1096 17.7429 46.0026C17.369 45.9659 17.0125 45.8327 16.6609 45.7007C15.1345 45.128 13.4771 44.474 12.6676 42.9585C12.7598 43.1311 12.3395 43.8349 12.2338 43.9786C11.98 44.3233 11.6685 44.4731 11.2767 44.6247C9.98055 45.1258 8.56995 45.5277 7.32754 46.149C6.46913 46.4797 5.74484 46.7938 4.87114 46.5072C4.36264 46.3403 3.84717 46.1939 3.34436 46.01C2.40294 45.6658 0.836818 45.0629 0.836818 43.8414C0.836818 41.9528 -0.73671 36.2875 3.03986 30.6222C6.81469 24.9591 21.2819 29.3592 21.2937 29.3627Z" fill="url(#paint2_linear_75_3548)"/>
<path d="M13.8421 39.6896C13.1195 39.6559 12.3821 39.6607 11.6826 39.7892C10.3179 40.0399 9.03788 40.7118 7.99595 41.6803C7.86227 41.8044 6.96888 42.4055 6.94922 42.6052C7.26376 43.8161 8.99332 44.4954 8.99332 44.4954L9.63288 45.2508L10.1008 45.4408L10.3371 46.0961L11.4537 46.1747L12.3506 46.0135L14.6538 45.4932L15.4279 44.5745L17.0605 45.0183L18.0819 43.7554L18.9102 43.2464C18.9102 43.2464 20.5065 42.4763 20.5183 42.4619C20.5554 42.4173 18.6494 41.1819 18.5655 41.1233C18.1824 40.8586 17.7796 40.6284 17.3624 40.4362C16.4375 40.0098 15.4602 39.7935 14.4668 39.7258C14.261 39.7123 14.0522 39.6992 13.8421 39.6896Z" fill="black"/>
<defs>
<linearGradient id="paint0_linear_75_3548" x1="11.0285" y1="22.4004" x2="28.9034" y2="-21.2845" gradientUnits="userSpaceOnUse">
<stop offset="0.1599" stop-color="#BFAB8D"/>
<stop offset="0.5078" stop-color="#E7E1D2"/>
<stop offset="0.7297" stop-color="#CCBFA6"/>
</linearGradient>
<linearGradient id="paint1_linear_75_3548" x1="23.4424" y1="16.6274" x2="3.30592" y2="17.5379" gradientUnits="userSpaceOnUse">
<stop offset="0.1599" stop-color="#BFAB8D"/>
<stop offset="0.5078" stop-color="#E7E1D2"/>
<stop offset="0.7297" stop-color="#CCBFA6"/>
</linearGradient>
<linearGradient id="paint2_linear_75_3548" x1="30.2069" y1="39.4158" x2="-3.32492" y2="35.8946" gradientUnits="userSpaceOnUse">
<stop stop-color="#94938C"/>
<stop offset="0.2296" stop-color="#EDEBE1"/>
<stop offset="0.7988" stop-color="#EDEBE1"/>
<stop offset="1" stop-color="#94938C"/>
</linearGradient>
</defs>
</svg>
