<svg width="23" height="41" viewBox="0 0 23 41" fill="none" xmlns="http://www.w3.org/2000/svg">
<path d="M13.626 4.00921C14.1275 2.33428 15.8593 2.54529 16.4448 4.05509C17.5768 6.97378 16.9957 10.2511 16.4138 13.224C16.1442 14.6005 15.6243 19.6922 13.6815 19.8586C11.7539 20.0233 8.22911 15.4939 9.83249 12.9706C10.7023 11.6019 11.6534 10.2751 12.3682 8.8147C13.1459 7.22758 13.1349 5.6505 13.626 4.00921Z" fill="url(#paint0_linear_75_3562)"/>
<path d="M3.55319 26.4452C3.6161 26.4806 3.81706 26.0315 3.99749 26.0512C4.23296 26.0765 4.52654 25.9944 4.76201 25.9703C5.57547 25.8882 6.39027 25.817 7.20547 25.7554C9.47022 25.5846 11.7454 25.4806 14.0172 25.5265C15.5974 25.5584 17.2015 25.6423 18.7511 25.973C19.7083 26.177 20.9678 26.4806 21.5532 27.3508C21.5532 27.3508 20.2343 22.039 21.1788 17.9473C22.1233 13.8556 23.382 2.84009 20.8638 2.52511C19.281 2.32764 18.0879 6.00823 17.6751 7.03224C16.5803 9.7478 15.7232 12.6503 14.9469 15.5031C14.925 15.5826 14.9027 15.6643 14.8542 15.7307C14.4292 16.3187 12.9534 16.552 12.3837 16.1588C11.9066 15.8294 11.7887 15.1868 11.7109 14.6119C11.5729 13.5918 11.4348 12.5717 11.2968 11.5516C10.9687 9.12789 10.6384 6.68843 10.697 4.23631C10.7131 3.5631 11.4802 0.134569 9.84765 0.95107C7.10497 2.32239 5.54097 6.11525 4.7795 8.83736C3.75023 12.5153 3.71224 16.4511 3.57025 20.2439C3.50516 21.9826 3.4182 23.7454 3.53135 25.4841C3.55363 25.8249 3.46319 26.395 3.55319 26.4452Z" fill="url(#paint1_linear_75_3562)"/>
<path d="M4.60924 25.3357C5.4537 24.7507 6.58473 24.6808 7.56549 24.4847C9.04252 24.1889 10.5327 23.9425 12.0377 23.8517C15.3556 23.6507 19.0047 24.2593 21.2345 26.9586C22.0204 27.9097 22.573 29.0485 22.85 30.2499C23.1615 31.6024 22.9103 32.4761 22.4795 33.7539C22.0846 34.9251 21.5691 36.1934 20.9322 37.254C20.2415 38.4039 19.1367 39.3994 17.7475 39.3794C16.2425 39.3575 14.7715 38.7686 13.7663 37.6275C13.7135 37.5677 13.6593 37.5044 13.585 37.4742C13.4963 37.4384 13.3963 37.4572 13.3037 37.4786C11.2805 37.9421 9.25267 39.2649 7.38639 40.1592C6.49432 40.5864 5.98448 40.7166 5.08105 40.2421C3.95394 39.6502 2.88058 38.9224 2.04617 37.9609C-0.422098 35.1169 0.518897 31.0764 2.32314 28.1438C2.89281 27.2181 3.59836 26.1452 4.45199 25.4541C4.50354 25.4117 4.55595 25.3728 4.60924 25.3357Z" fill="url(#paint2_linear_75_3562)"/>
<path d="M12.44 33.0431C11.7173 33.0094 10.9799 33.0143 10.2805 33.1427C8.91565 33.3935 7.6356 34.0654 6.59364 35.034C6.45995 35.1581 5.56653 35.7592 5.54688 35.9589C5.86143 37.1699 7.591 37.8493 7.591 37.8493L8.23062 38.6047L8.69852 38.7947L8.93488 39.4501L10.0515 39.5287L10.9485 39.3675L13.2517 38.8472L14.0258 37.9284L15.6584 38.3723L16.6799 37.1092L17.5082 36.6002C17.5082 36.6002 19.1046 35.83 19.1164 35.8156C19.1535 35.771 17.2474 34.5355 17.1635 34.477C16.7804 34.2122 16.3776 33.9819 15.9603 33.7897C15.0355 33.3633 14.0582 33.1471 13.0652 33.0793C12.8589 33.0658 12.6501 33.0527 12.44 33.0431Z" fill="black"/>
<defs>
<linearGradient id="paint0_linear_75_3562" x1="11.0404" y1="19.1625" x2="24.2204" y2="-13.0511" gradientUnits="userSpaceOnUse">
<stop offset="0.1599" stop-color="#BFAB8D"/>
<stop offset="0.5078" stop-color="#E7E1D2"/>
<stop offset="0.7297" stop-color="#CCBFA6"/>
</linearGradient>
<linearGradient id="paint1_linear_75_3562" x1="21.696" y1="16.2845" x2="4.66189" y2="13.0532" gradientUnits="userSpaceOnUse">
<stop offset="0.1599" stop-color="#BFAB8D"/>
<stop offset="0.5078" stop-color="#E7E1D2"/>
<stop offset="0.7297" stop-color="#CCBFA6"/>
</linearGradient>
<linearGradient id="paint2_linear_75_3562" x1="-4.5103" y1="32.1435" x2="27.5421" y2="32.2248" gradientUnits="userSpaceOnUse">
<stop stop-color="#94938C"/>
<stop offset="0.2296" stop-color="#EDEBE1"/>
<stop offset="0.7988" stop-color="#EDEBE1"/>
<stop offset="1" stop-color="#94938C"/>
</linearGradient>
</defs>
</svg>
