<svg width="22" height="42" viewBox="0 0 22 42" fill="none" xmlns="http://www.w3.org/2000/svg">
<path d="M17.7781 2.63114C18.2919 0.95971 16.7348 0.173351 15.4088 1.10343C12.8456 2.90111 11.5079 5.94866 10.3401 8.74369C9.79922 10.0381 7.40198 14.56 8.92498 15.7776C10.4362 16.9855 15.8838 15.1778 15.9523 12.1892C15.9895 10.5676 15.9362 8.93635 16.1533 7.32477C16.3892 5.57383 17.2744 4.26893 17.7781 2.63114Z" fill="url(#paint0_linear_75_3574)"/>
<path d="M2.57312 25.6699C1.64651 19.5958 1.66139 12.267 4.3613 6.6454C4.98865 5.33874 5.84271 4.14348 6.8602 3.11161C7.25951 2.70663 9.63832 0.275053 10.1381 0.873556C10.6479 1.48385 10.187 2.84773 10.0966 3.52618C9.94544 4.66159 9.80218 5.79787 9.68378 6.93721C9.44394 9.24865 8.84671 11.7532 9.47145 14.0533C9.60906 14.5596 9.92709 15.0602 10.426 15.2223C10.6894 15.3079 10.9765 15.2905 11.2469 15.2319C12.9586 14.861 14.1971 13.1354 15.2496 11.8694C16.7546 10.0595 17.6184 8.02632 18.3702 5.81361C18.7355 4.73893 19.1531 3.69482 20.071 2.9788C20.292 2.80624 20.7381 2.40606 21.0789 2.48775C22.2008 2.75599 21.8133 5.78259 21.7726 6.47065C21.4581 11.8214 19.2549 19.0602 19.2549 19.0602C19.2549 19.0602 18.3108 25.0399 19.2549 26.9285C20.1986 28.8171 3.83177 28.8171 2.57312 25.6699Z" fill="url(#paint1_linear_75_3574)"/>
<path d="M1.62762 26.6138C1.62806 26.6134 4.14575 23.7812 9.81108 23.7812C15.4764 23.7812 19.5681 25.6698 20.5122 28.1874C21.4563 30.7055 21.7713 37.6292 18.3091 38.8882C17.2139 39.2867 16.0098 39.3854 15.0225 38.6794C14.178 38.0757 13.8443 36.9661 12.5743 37.3776C12.0208 37.5567 11.5643 37.9451 11.0951 38.2893C9.03217 39.8026 5.52629 41.3722 3.1768 39.5859C-0.0350609 37.1439 -1.16922 29.7605 1.62762 26.6138Z" fill="url(#paint2_linear_75_3574)"/>
<path d="M11.7681 34.672C11.0455 34.6383 10.3081 34.6432 9.60864 34.7716C8.24382 35.0224 6.96373 35.6942 5.92177 36.6628C5.78808 36.7868 4.89466 37.3879 4.875 37.5876C5.18955 38.7986 6.91917 39.4779 6.91917 39.4779L7.55879 40.2332L8.02669 40.4232L8.26305 41.0785L9.3797 41.1571L10.2766 40.9959L12.5799 40.4756L13.354 39.5569L14.9866 40.0008L16.0081 38.7378L16.8368 38.2289C16.8368 38.2289 18.4332 37.4587 18.445 37.4443C18.4821 37.3997 16.576 36.1643 16.4921 36.1058C16.109 35.841 15.7062 35.6108 15.2889 35.4186C14.3641 34.9922 13.3868 34.776 12.3938 34.7082C12.1867 34.6943 11.9778 34.6816 11.7681 34.672Z" fill="black"/>
<defs>
<linearGradient id="paint0_linear_75_3574" x1="11.4765" y1="16.645" x2="18.4196" y2="-17.4627" gradientUnits="userSpaceOnUse">
<stop offset="0.1599" stop-color="#BFAB8D"/>
<stop offset="0.5078" stop-color="#E7E1D2"/>
<stop offset="0.7297" stop-color="#CCBFA6"/>
</linearGradient>
<linearGradient id="paint1_linear_75_3574" x1="-2.74191" y1="14.4468" x2="21.2728" y2="14.5336" gradientUnits="userSpaceOnUse">
<stop offset="0.1599" stop-color="#BFAB8D"/>
<stop offset="0.5078" stop-color="#E7E1D2"/>
<stop offset="0.7297" stop-color="#CCBFA6"/>
</linearGradient>
<linearGradient id="paint2_linear_75_3574" x1="-4.97932" y1="32.0356" x2="26.3746" y2="32.1488" gradientUnits="userSpaceOnUse">
<stop stop-color="#94938C"/>
<stop offset="0.2296" stop-color="#EDEBE1"/>
<stop offset="0.7988" stop-color="#EDEBE1"/>
<stop offset="1" stop-color="#94938C"/>
</linearGradient>
</defs>
</svg>
