<svg width="25" height="39" viewBox="0 0 25 39" fill="none" xmlns="http://www.w3.org/2000/svg">
<path d="M9.28251 35.6762C8.99855 37.4608 10.1405 37.9335 11.0361 36.7282C12.7669 34.3984 13.5694 31.0626 14.2632 28.0155C14.5843 26.6044 16.067 21.5705 14.9285 20.6574C13.7988 19.7518 10.0226 22.6801 10.1178 25.6979C10.1693 27.3348 10.2855 28.9635 10.2091 30.6274C10.1256 32.4356 9.56079 33.9279 9.28251 35.6762Z" fill="url(#paint0_linear_75_3676)"/>
<path d="M21.2913 13.231C21.2913 13.231 20.0323 16.6932 20.0323 20.4699C20.0323 24.2465 20.3468 28.9677 18.1437 32.4298C15.9406 35.8919 15.3111 37.4655 15.3111 37.4655C15.3111 37.4655 13.4225 39.6686 12.4784 37.151C12.4784 37.151 14.6815 29.5972 13.4225 25.8205C12.1634 22.0439 10.9044 23.3025 10.5899 23.932C10.2753 24.5615 5.86866 31.8003 5.23913 33.6889C4.60961 35.5774 3.66554 37.4655 3.03602 37.4655C2.40649 37.4655 1.46243 35.8919 0.832903 33.0593C0.20338 30.2267 0.832901 27.0796 2.09195 24.8765C3.35099 22.6734 4.61004 12.9165 4.61004 11.3429C4.61048 9.76893 19.7177 12.6015 21.2913 13.231Z" fill="url(#paint1_linear_75_3676)"/>
<path d="M14.0213 3.34324C14.3201 3.27247 14.6294 3.07719 14.9885 2.84085C15.9636 2.19822 16.9762 1.5783 18.1011 1.26595C19.2265 0.95359 20.4925 0.980685 21.4938 1.58137C22.198 2.00382 22.7197 2.67308 23.1491 3.37293C23.821 4.46815 24.3168 5.74072 24.1626 7.01636C23.987 8.47111 23.4099 9.90359 22.818 11.2325C22.4588 12.0385 22.1596 12.9581 21.5126 13.589C20.7577 14.3246 19.4886 14.4282 18.4939 14.5675C16.3541 14.8668 14.2056 14.5986 12.1166 14.1027C10.0397 13.6095 7.89385 13.0625 5.87423 12.3749C5.5112 12.2513 5.1486 12.1084 4.84454 11.8752C3.99222 11.2203 3.81704 9.7319 3.61215 8.74984C3.30111 7.25708 3.49114 5.71364 4.10188 4.32223C4.88823 2.53066 6.3919 0.949231 8.38837 0.642117C9.81735 0.422375 11.086 0.7155 12.0475 1.82295C12.366 2.18991 12.6194 2.6163 12.9636 2.96098C13.3428 3.34062 13.6753 3.42493 14.0213 3.34324Z" fill="url(#paint2_linear_75_3676)"/>
<path d="M14.0667 9.4283C13.3424 9.51873 12.5997 9.57509 11.8828 9.51349C10.4844 9.3938 9.12973 8.877 7.98647 8.06665C7.83969 7.96269 7.30104 7.52541 7.26172 7.34193C7.46005 6.19565 8.71559 5.37918 8.71559 5.37918L9.28569 4.62737L9.73828 4.41332L9.91259 3.78774L11.0292 3.62305L11.9479 3.69862L14.3174 3.99089L15.1868 4.77764L16.7874 4.23288L17.939 5.31757L18.8228 5.72036C18.8228 5.72036 19.9355 6.33893 19.9486 6.35116C19.9905 6.3896 18.7621 7.65208 18.683 7.71281C18.323 7.98933 17.9399 8.23527 17.5388 8.44757C16.6494 8.91806 15.6866 9.19852 14.6931 9.34268C14.4861 9.37282 14.2768 9.40165 14.0667 9.4283Z" fill="black"/>
<defs>
<linearGradient id="paint0_linear_75_3676" x1="13.0488" y1="20.3059" x2="13.0254" y2="56.0018" gradientUnits="userSpaceOnUse">
<stop offset="0.1599" stop-color="#BFAB8D"/>
<stop offset="0.5078" stop-color="#E7E1D2"/>
<stop offset="0.7297" stop-color="#CCBFA6"/>
</linearGradient>
<linearGradient id="paint1_linear_75_3676" x1="19.4671" y1="24.5814" x2="3.32955" y2="24.6397" gradientUnits="userSpaceOnUse">
<stop stop-color="#BFAB8D"/>
<stop offset="0.5078" stop-color="#E7E1D2"/>
<stop offset="1" stop-color="#CCBFA6"/>
</linearGradient>
<linearGradient id="paint2_linear_75_3676" x1="30.3066" y1="7.57118" x2="-2.47236" y2="7.68959" gradientUnits="userSpaceOnUse">
<stop stop-color="#94938C"/>
<stop offset="0.2614" stop-color="#EDEBE1"/>
<stop offset="0.7687" stop-color="#EDEBE1"/>
<stop offset="1" stop-color="#94938C"/>
</linearGradient>
</defs>
</svg>
