<svg width="26" height="46" viewBox="0 0 26 46" fill="none" xmlns="http://www.w3.org/2000/svg">
<path d="M10.6573 40.4762C10.4629 42.3609 11.6857 42.7894 12.5533 41.4762C14.2313 38.9376 14.8788 35.3995 15.4297 32.1698C15.6848 30.674 16.9464 25.3194 15.7023 24.4291C14.4677 23.5462 10.6835 26.8292 10.9566 29.9825C11.1047 31.6932 11.3205 33.3913 11.3362 35.1374C11.3533 37.0356 10.8482 38.6301 10.6573 40.4762Z" fill="url(#paint0_linear_75_3659)"/>
<path d="M21.8534 19.0385C21.1933 20.9244 20.6612 22.8929 20.3541 24.8675C20.1475 26.1964 20.178 27.3777 20.3799 28.6931C20.7193 30.9036 20.7438 33.2106 20.6485 35.4403C20.5 38.9181 18.8316 41.5376 17.4979 44.6659C17.0077 45.8153 15.8745 46.4185 14.8465 45.3609C13.5429 44.0197 13.8946 41.2007 13.8426 39.4996C13.7718 37.1711 13.7247 34.8265 13.259 32.5352C13.0584 31.5488 12.7767 30.5654 12.2616 29.7005C11.7496 28.8403 10.8033 28.4209 9.89684 29.0404C8.68978 29.8651 8.4176 31.672 8.00083 32.9581C7.60984 34.1643 7.25554 35.3822 6.91348 36.6032C6.4303 38.3275 5.98338 40.0627 5.52293 41.7931C5.33245 42.5095 4.70905 44.1923 3.65576 43.461C3.30015 43.2138 3.12453 42.7856 2.97643 42.3789C2.4902 41.0413 2.10183 39.6708 1.71433 38.3017C1.1949 36.4674 0.71697 34.6382 0.605132 32.7279C0.452666 30.1233 1.47886 27.5498 1.98039 25.0287C2.51336 22.3495 2.84625 19.6305 2.97382 16.9018C2.98212 16.7223 2.9961 16.527 3.11711 16.3942C3.28094 16.2151 3.56184 16.2291 3.80255 16.2566C6.76057 16.5956 9.72471 16.8713 12.6797 17.2409C14.6792 17.4894 16.6814 17.7524 18.6634 18.1176C19.5372 18.2788 21.1767 18.3618 21.8534 19.0385Z" fill="url(#paint1_linear_75_3659)"/>
<path d="M24.1641 14.9506C24.2629 13.7693 24.2358 12.5723 24.4608 11.4055C24.812 9.58421 25.7316 7.99756 25.6014 6.06796C25.2878 1.42241 18.7955 1.06332 15.5313 2.34986C14.174 2.88458 13.617 2.37956 12.4759 1.65874C11.2395 0.877638 9.78085 0.46875 8.31955 0.46875C6.64854 0.46875 4.80455 0.944051 3.37732 1.82214C1.26596 3.12135 1.2677 5.25277 1.12266 7.48992C0.961896 9.96429 1.01913 12.5133 1.83737 14.8794C2.0877 15.6037 2.41928 16.3153 2.94089 16.8767C3.68225 17.6748 4.62675 17.7801 5.62847 18.0108C6.99586 18.3258 8.37853 18.5922 9.75683 18.8531C12.4597 19.3646 15.1879 19.7809 17.938 19.919C19.242 19.9845 20.5923 19.8521 21.7505 19.2488C23.4276 18.3755 24.0152 16.733 24.1641 14.9506Z" fill="url(#paint2_linear_75_3659)"/>
<path d="M14.1121 8.16379C13.2348 8.27301 12.3353 8.34161 11.4673 8.26734C9.77358 8.1223 8.13361 7.49668 6.74875 6.51504C6.57095 6.38922 5.91871 5.85974 5.87109 5.63737C6.11137 4.249 7.63209 3.26036 7.63209 3.26036L8.32233 2.34993L8.87016 2.09043L9.08115 1.33245L10.4332 1.13281L11.5459 1.22456L14.4157 1.57841L15.4681 2.53122L17.4064 1.87112L18.8009 3.18478L19.8712 3.67278C19.8712 3.67278 21.2185 4.422 21.2347 4.43685C21.2853 4.48316 19.7974 6.01264 19.7017 6.08604C19.2662 6.42112 18.8018 6.71863 18.316 6.97595C17.2387 7.54606 16.0727 7.8855 14.8696 8.06025C14.6201 8.09695 14.3672 8.13234 14.1121 8.16379Z" fill="black"/>
<defs>
<linearGradient id="paint0_linear_75_3659" x1="13.7203" y1="24.1794" x2="15.7517" y2="61.5469" gradientUnits="userSpaceOnUse">
<stop offset="0.1599" stop-color="#BFAB8D"/>
<stop offset="0.5078" stop-color="#E7E1D2"/>
<stop offset="0.7297" stop-color="#CCBFA6"/>
</linearGradient>
<linearGradient id="paint1_linear_75_3659" x1="19.4202" y1="32.4154" x2="2.57398" y2="29.1372" gradientUnits="userSpaceOnUse">
<stop stop-color="#BFAB8D"/>
<stop offset="0.5078" stop-color="#E7E1D2"/>
<stop offset="1" stop-color="#CCBFA6"/>
</linearGradient>
<linearGradient id="paint2_linear_75_3659" x1="29.5356" y1="13.1055" x2="-2.52938" y2="6.86592" gradientUnits="userSpaceOnUse">
<stop stop-color="#94938C"/>
<stop offset="0.2114" stop-color="#EDEBE1"/>
<stop offset="0.847" stop-color="#EDEBE1"/>
<stop offset="1" stop-color="#94938C"/>
</linearGradient>
</defs>
</svg>
