<svg width="28" height="49" viewBox="0 0 28 49" fill="none" xmlns="http://www.w3.org/2000/svg">
<path d="M19.1697 1.1389C20.434 1.22497 21.4099 1.5959 22.4479 2.3089C22.7288 2.502 22.9949 2.73485 22.9394 3.01097C22.6808 4.30066 13.1711 3.26437 13.2624 2.13327C13.3192 1.46134 16.4117 1.28134 17.1042 1.20663C17.8857 1.12188 18.5611 1.0974 19.1697 1.1389Z" fill="#D8D6D0"/>
<path d="M9.38031 44.8256C8.72983 46.9094 10.2658 47.7595 11.6926 46.525C14.451 44.138 16.0472 40.3089 17.4513 36.8014C18.1013 35.1771 20.8924 29.4657 19.4237 28.0852C17.9664 26.7152 12.2535 29.3237 11.9608 32.9889C11.8018 34.9771 11.7354 36.9709 11.3934 38.9599C11.0212 41.1215 10.0177 42.7837 9.38031 44.8256Z" fill="url(#paint0_linear_75_3643)"/>
<path d="M25.5332 20.4889C25.3523 21.2346 25.192 21.9935 25.1566 22.1402C24.853 23.3997 24.5896 24.6693 24.3781 25.9475C24.2056 26.9921 24.0675 28.0423 23.9649 29.0964C23.8653 30.1178 23.9522 31.2423 23.7578 32.2436C23.566 33.2305 23.2143 34.2659 22.8819 35.2191C21.8836 38.0819 20.3717 40.7459 18.5762 43.181C17.6753 44.4025 16.7011 45.5693 15.6728 46.6855C15.0411 47.3714 13.6982 49.4019 12.582 48.5584C12.163 48.2416 11.9948 47.6767 12.0219 47.1521C12.049 46.6274 12.2412 46.1276 12.4234 45.6349C13.8266 41.8328 15.1608 37.1252 14.3718 33.0457C14.2897 32.6207 14.1612 32.1816 13.8563 31.8745C13.4566 31.4721 12.8166 31.3817 12.2696 31.5324C11.7227 31.6831 11.2561 32.0409 10.8489 32.4359C9.45142 33.7923 8.45843 35.6992 7.60437 37.4336C6.95781 38.7468 6.48295 40.1461 6.20991 41.5847C5.94866 42.9617 6.17059 44.5982 5.61752 45.8904C5.30778 46.6143 4.61711 47.2355 3.82988 47.2128C3.21697 47.1954 2.67438 46.8009 2.27028 46.3395C0.781452 44.6397 0.496187 41.9311 0.409252 39.7639C0.300036 37.0326 0.688837 34.3109 1.11216 31.6202C1.68838 27.9576 2.42886 24.3189 3.25584 20.7047C3.28773 20.5645 3.7377 18.2845 3.82857 18.2871C3.82857 18.2871 25.856 18.8983 26.0583 18.904C25.9456 18.9022 25.7276 19.6877 25.5332 20.4889Z" fill="url(#paint1_linear_75_3643)"/>
<path d="M8.29874 0.969071C9.44069 0.903972 10.3703 1.15345 11.4096 1.73323C11.6909 1.89007 11.9653 2.08843 11.9596 2.36674C11.9338 3.66871 3.28273 3.77575 3.18444 2.64985C3.12852 1.98051 5.85975 1.43613 6.46567 1.28015C7.15023 1.10495 7.74917 1.00053 8.29874 0.969071Z" fill="#D8D6D0"/>
<path d="M23.6493 1.97882C24.5672 2.07057 25.4317 2.424 26.1766 3.20074C27.1363 4.2016 27.6169 5.58996 27.7357 6.97133C27.9904 9.93502 27.4832 13.4596 26.7427 16.3307C26.5077 17.242 26.4841 19.1572 25.8585 19.8606C23.9119 22.0488 19.6345 20.9842 17.0461 20.8047C14.0816 20.5989 10.8898 20.5006 8.23371 19.8606C6.47534 19.7723 3.24649 20.1616 2.71264 17.8361C2.10103 15.1708 1.72445 12.4452 1.59864 9.71353C1.50427 7.6725 1.20633 2.62933 4.1403 2.23572C4.56974 2.17805 5.2945 2.6621 5.72481 2.75995C6.62256 2.96353 7.49847 2.936 8.38967 2.69922C9.48576 2.40827 10.5037 1.88403 11.5543 1.45721C11.7828 1.36459 12.0204 1.27504 12.2668 1.28159C12.8282 1.29688 13.2406 1.78312 13.6897 2.12038C15.58 3.54106 18.9683 2.80408 21.0552 2.25843C21.9311 2.02952 22.8123 1.89538 23.6493 1.97882Z" fill="url(#paint2_linear_75_3643)"/>
<path d="M15.1207 8.11077C14.2496 8.26149 13.3544 8.37201 12.4838 8.33837C10.7852 8.27328 9.11726 7.72546 7.68783 6.81025C7.50434 6.69273 6.82763 6.19471 6.76953 5.97497C6.94428 4.57703 8.41652 3.51808 8.41652 3.51808L9.06352 2.57624L9.59869 2.2914L9.77343 1.52471L11.1146 1.26172L12.2304 1.30103L15.1137 1.51946L16.2098 2.42159L18.115 1.67106L19.5698 2.9174L20.6619 3.35426C20.6619 3.35426 22.0433 4.03925 22.0599 4.05323C22.1128 4.09735 20.6986 5.69495 20.6064 5.77271C20.1871 6.12788 19.7371 6.44721 19.2639 6.7268C18.2146 7.34714 17.0661 7.7412 15.8725 7.97229C15.6248 8.01991 15.3736 8.06709 15.1207 8.11077Z" fill="black"/>
<defs>
<linearGradient id="paint0_linear_75_3643" x1="16.8513" y1="27.2244" x2="9.37731" y2="69.8754" gradientUnits="userSpaceOnUse">
<stop offset="0.1599" stop-color="#BFAB8D"/>
<stop offset="0.5078" stop-color="#E7E1D2"/>
<stop offset="0.7297" stop-color="#CCBFA6"/>
</linearGradient>
<linearGradient id="paint1_linear_75_3643" x1="23.5672" y1="33.4699" x2="1.87458" y2="33.5483" gradientUnits="userSpaceOnUse">
<stop stop-color="#BFAB8D"/>
<stop offset="0.5078" stop-color="#E7E1D2"/>
<stop offset="1" stop-color="#CCBFA6"/>
</linearGradient>
<linearGradient id="paint2_linear_75_3643" x1="33.2968" y1="11.1928" x2="-4.10983" y2="11.3279" gradientUnits="userSpaceOnUse">
<stop stop-color="#94938C"/>
<stop offset="0.2296" stop-color="#EDEBE1"/>
<stop offset="0.7988" stop-color="#EDEBE1"/>
<stop offset="1" stop-color="#94938C"/>
</linearGradient>
</defs>
</svg>
