<svg width="23" height="41" viewBox="0 0 23 41" fill="none" xmlns="http://www.w3.org/2000/svg">
<path d="M9.9067 4.00921C9.40517 2.33428 7.67341 2.54529 7.088 4.05509C5.95607 6.97378 6.53711 10.2511 7.11902 13.224C7.38857 14.6005 7.90845 19.6922 9.85122 19.8586C11.7787 20.0233 15.3034 15.4939 13.7001 12.9706C12.8303 11.6019 11.8792 10.2751 11.1645 8.8147C10.3873 7.22758 10.3977 5.6505 9.9067 4.00921Z" fill="url(#paint0_linear_75_3568)"/>
<path d="M19.9767 26.4452C19.9138 26.4806 19.7129 26.0315 19.5324 26.0512C19.297 26.0765 19.0034 25.9944 18.7679 25.9703C17.9545 25.8882 17.1397 25.817 16.3245 25.7554C14.0598 25.5846 11.7846 25.4806 9.51295 25.5265C7.93281 25.5584 6.32864 25.6423 4.77908 25.973C3.82191 26.177 2.56243 26.4806 1.97704 27.3508C1.97704 27.3508 3.29593 22.039 2.35143 17.9473C1.40693 13.8556 0.148323 2.84009 2.66641 2.52511C4.24917 2.32764 5.44224 6.00823 5.85508 7.03224C6.94986 9.7478 7.80699 12.6503 8.5833 15.5031C8.60514 15.5826 8.62743 15.6643 8.67592 15.7307C9.10099 16.3187 10.5767 16.552 11.1464 16.1588C11.6234 15.8294 11.7414 15.1868 11.8192 14.6119C11.9572 13.5918 12.0953 12.5717 12.2333 11.5516C12.5614 9.12789 12.8917 6.68843 12.8331 4.23631C12.817 3.5631 12.0498 0.134569 13.6824 0.95107C16.425 2.32239 17.989 6.11525 18.7504 8.83736C19.7797 12.5153 19.8177 16.4511 19.9597 20.2439C20.0248 21.9826 20.1117 23.7454 19.9986 25.4841C19.9763 25.8249 20.0672 26.395 19.9767 26.4452Z" fill="url(#paint1_linear_75_3568)"/>
<path d="M18.9232 25.3357C18.0787 24.7507 16.9477 24.6808 15.9669 24.4847C14.4899 24.1889 12.9997 23.9425 11.4943 23.8517C8.17629 23.6507 4.52714 24.2593 2.29737 26.9586C1.51145 27.9097 0.958817 29.0485 0.681843 30.2499C0.370358 31.6024 0.621555 32.4761 1.05231 33.7539C1.44723 34.9251 1.96273 36.1934 2.59968 37.254C3.29037 38.4039 4.39521 39.3994 5.78445 39.3794C7.28945 39.3575 8.76037 38.7686 9.7656 37.6275C9.81846 37.5677 9.87263 37.5044 9.9469 37.4742C10.0356 37.4384 10.1356 37.4572 10.2282 37.4786C12.2514 37.9421 14.2793 39.2649 16.1456 40.1592C17.0377 40.5864 17.5475 40.7166 18.4509 40.2421C19.5781 39.6502 20.6514 38.9224 21.4859 37.9609C23.9537 35.1169 23.0131 31.0764 21.2089 28.1438C20.6392 27.2181 19.9337 26.1452 19.08 25.4541C19.0294 25.4117 18.9769 25.3728 18.9232 25.3357Z" fill="url(#paint2_linear_75_3568)"/>
<path d="M11.0951 33.0431C11.8177 33.0094 12.5551 33.0143 13.2546 33.1427C14.6193 33.3935 15.8994 34.0654 16.9413 35.034C17.075 35.1581 17.9683 35.7592 17.988 35.9589C17.6735 37.1699 15.9439 37.8493 15.9439 37.8493L15.3043 38.6047L14.8365 38.7947L14.6001 39.4501L13.4835 39.5287L12.5866 39.3675L10.2834 38.8472L9.50931 37.9284L7.87674 38.3723L6.85535 37.1092L6.0266 36.6002C6.0266 36.6002 4.4303 35.83 4.4185 35.8156C4.38137 35.771 6.28742 34.5355 6.3713 34.477C6.75443 34.2122 7.15722 33.9819 7.57443 33.7897C8.49927 33.3633 9.47654 33.1471 10.4695 33.0793C10.6766 33.0658 10.885 33.0527 11.0951 33.0431Z" fill="black"/>
<defs>
<linearGradient id="paint0_linear_75_3568" x1="12.484" y1="19.149" x2="-0.696247" y2="-13.0643" gradientUnits="userSpaceOnUse">
<stop offset="0.1599" stop-color="#BFAB8D"/>
<stop offset="0.5078" stop-color="#E7E1D2"/>
<stop offset="0.7297" stop-color="#CCBFA6"/>
</linearGradient>
<linearGradient id="paint1_linear_75_3568" x1="1.83448" y1="16.2845" x2="18.8683" y2="13.0533" gradientUnits="userSpaceOnUse">
<stop offset="0.1599" stop-color="#BFAB8D"/>
<stop offset="0.5078" stop-color="#E7E1D2"/>
<stop offset="0.7297" stop-color="#CCBFA6"/>
</linearGradient>
<linearGradient id="paint2_linear_75_3568" x1="28.0437" y1="32.1418" x2="-4.00887" y2="32.2232" gradientUnits="userSpaceOnUse">
<stop stop-color="#94938C"/>
<stop offset="0.2296" stop-color="#EDEBE1"/>
<stop offset="0.7988" stop-color="#EDEBE1"/>
<stop offset="1" stop-color="#94938C"/>
</linearGradient>
</defs>
</svg>
