<svg width="18" height="49" viewBox="0 0 18 49" fill="none" xmlns="http://www.w3.org/2000/svg">
<path d="M14.8243 19.8307C14.0511 24.8922 12.6876 29.9498 10.9126 34.7452C8.96157 40.0156 6.52385 45.2863 1.78472 48.589C1.66982 48.6689 1.54662 48.7524 1.40682 48.759C1.2644 48.766 1.13029 48.6921 1.01627 48.6065C0.363587 48.1185 0.123314 47.2277 0.190592 46.4152C0.257869 45.6026 0.582022 44.8377 0.865112 44.0732C2.59248 39.4101 3.01406 34.2782 3.50641 29.3657C3.81833 26.2557 4.55795 22.4436 3.82489 19.3431C3.03765 16.016 14.3363 19.2396 14.8243 19.8307Z" fill="url(#paint0_linear_75_3632)"/>
<path d="M13.1532 6.10356C13.1532 6.10356 11.4057 7.50152 17.7896 4.9546C17.9744 5.82177 17.974 6.97554 17.5166 8.46175C16.8871 14.127 14.9985 19.7923 14.9985 19.7923C14.9985 19.7923 14.369 20.7363 9.96275 20.7363C5.55652 20.7363 4.29749 20.1068 3.66796 18.8477C3.03844 17.5887 1.46484 5.62869 1.46484 5.62869C1.46484 5.62869 1.51421 5.18309 1.6527 4.62565C7.34287 5.31677 4.70464 5.02625 5.46435 4.83621C6.72339 4.52167 5.55653 1.85156 5.87151 1.85156C6.18649 1.85156 9.75349 4.47754 11.0125 4.79252C12.2711 5.10794 11.2646 6.41854 13.1532 6.10356Z" fill="url(#paint1_linear_75_3632)"/>
<path d="M9.87308 8.1638C9.01246 8.2053 8.13481 8.20138 7.30216 8.04804C5.6779 7.74879 4.155 6.94236 2.91649 5.77814C2.75748 5.62873 1.69503 4.90704 1.67188 4.66633C2.04889 3.20767 4.10913 2.38593 4.10913 2.38593L4.87189 1.47511L5.42932 1.24576L5.71197 0.456345L7.04135 0.359375L8.10904 0.552014L10.8503 1.17411L11.7704 2.27892L13.7153 1.74115L14.9289 3.25965L15.9144 3.87082C15.9144 3.87082 17.7707 4.97387 17.7851 4.99135C17.8292 5.04508 15.6003 6.35739 15.5003 6.42773C15.0438 6.7475 14.5632 7.02492 14.0665 7.25733C12.9643 7.77282 11.8005 8.03493 10.6179 8.11837C10.3715 8.13584 10.123 8.15201 9.87308 8.1638Z" fill="black"/>
<defs>
<linearGradient id="paint0_linear_75_3632" x1="11.7156" y1="33.2809" x2="1.7331" y2="33.317" gradientUnits="userSpaceOnUse">
<stop stop-color="#BFAB8D"/>
<stop offset="0.5078" stop-color="#E7E1D2"/>
<stop offset="1" stop-color="#CCBFA6"/>
</linearGradient>
<linearGradient id="paint1_linear_75_3632" x1="21.4073" y1="11.2457" x2="-1.83092" y2="11.3297" gradientUnits="userSpaceOnUse">
<stop stop-color="#94938C"/>
<stop offset="0.2296" stop-color="#EDEBE1"/>
<stop offset="0.7988" stop-color="#EDEBE1"/>
<stop offset="1" stop-color="#94938C"/>
</linearGradient>
</defs>
</svg>
