<svg width="18" height="49" viewBox="0 0 18 49" fill="none" xmlns="http://www.w3.org/2000/svg">
<path d="M14.6362 18.5457C14.6362 18.5457 8.65638 43.0955 3.62014 47.1867C-1.41566 51.2784 1.10202 43.095 1.10202 43.095C1.10202 43.095 2.99061 27.9878 2.99061 25.1551C2.99061 22.3225 1.9893 17.0176 1.9893 17.0176C1.9893 17.0176 11.6887 19.1062 14.6362 18.5457Z" fill="url(#paint0_linear_75_3623)"/>
<path d="M7.74834 4.45979C5.96244 6.97659 13.4031 5.76734 17.1409 4.72191C17.1409 4.7656 17.4096 4.76515 17.1545 5.95736C16.2104 10.3636 16.5249 12.8817 16.5249 12.8817C16.5249 12.8817 15.8954 20.4356 10.5451 20.7501C5.19444 21.0651 1.73274 17.9175 1.41776 16.0289C1.10322 14.1403 1.10321 8.79001 0.78823 7.84594C0.592515 7.25836 0.129868 6.38986 0.58377 4.32916C10.4337 4.25052 4.55006 3.68085 5.73877 3.32436C8.88594 2.38029 7.79203 3.23699 7.79203 3.23699C7.79203 3.23699 9.53424 1.943 7.74834 4.45979Z" fill="url(#paint1_linear_75_3623)"/>
<path d="M9.02228 7.87138C8.13719 7.90939 7.2342 7.90196 6.37664 7.74513C4.70433 7.43933 3.13424 6.62591 1.85511 5.456C1.69085 5.30573 0.594777 4.57967 0.570312 4.33852C0.95213 2.88073 3.06873 2.06687 3.06873 2.06687L3.84983 1.15864L4.42255 0.931043L4.71046 0.142504L6.07783 0.0507812L7.17698 0.247793L9.99954 0.881235L10.9506 1.99042L12.9492 1.46052L14.2039 2.98469L15.2205 3.60024C15.2205 3.60024 17.1348 4.71158 17.1492 4.72862C17.1951 4.78279 14.9073 6.08683 14.8042 6.15672C14.3358 6.47475 13.8426 6.75039 13.3324 6.98105C12.2005 7.49218 11.0043 7.74992 9.78811 7.82855C9.53516 7.84515 9.27959 7.86003 9.02228 7.87138Z" fill="black"/>
<defs>
<linearGradient id="paint0_linear_75_3623" x1="1.86799" y1="32.6757" x2="12.9965" y2="32.7159" gradientUnits="userSpaceOnUse">
<stop stop-color="#BFAB8D"/>
<stop offset="0.5078" stop-color="#E7E1D2"/>
<stop offset="1" stop-color="#CCBFA6"/>
</linearGradient>
<linearGradient id="paint1_linear_75_3623" x1="-2.76289" y1="11.7844" x2="20.4392" y2="11.8682" gradientUnits="userSpaceOnUse">
<stop stop-color="#94938C"/>
<stop offset="0.2296" stop-color="#EDEBE1"/>
<stop offset="0.4283" stop-color="#EDEBE1"/>
<stop offset="0.7988" stop-color="#EDEBE1"/>
<stop offset="1" stop-color="#94938C"/>
</linearGradient>
</defs>
</svg>
