<svg width="18" height="64" viewBox="0 0 18 64" fill="none" xmlns="http://www.w3.org/2000/svg">
<path d="M15.1879 26.2048C13.3536 26.1952 11.4908 26.0261 9.65953 25.8793C7.44162 25.7015 4.32726 25.8103 2.302 24.7505C2.11677 24.6535 2.05561 24.3237 1.88524 24.207C1.49774 25.5063 1.82933 27.5884 1.90578 28.9186C2.12464 32.7215 2.29283 36.5313 2.25614 40.3412C2.2356 42.4442 2.11853 44.532 1.92937 46.6263C1.66813 49.5179 0.691754 52.3409 0.428767 55.2622C0.244414 57.3106 0.275437 59.3932 0.675159 61.4158C0.800974 62.0519 0.984003 63.701 1.53575 63.8531C2.26355 64.0532 3.36138 62.9339 3.72702 62.4407C4.93624 60.8103 5.2464 58.6029 5.86499 56.7135C6.55697 54.5991 7.36779 52.5257 8.19607 50.4615C9.81112 46.435 11.5096 42.4189 12.5498 38.1949C13.1574 35.7271 13.4278 33.199 13.9984 30.722C14.3474 29.2039 14.7589 27.7015 15.1879 26.2048Z" fill="url(#paint0_linear_75_3613)"/>
<path d="M17.2985 8.14882C17.2985 8.14882 17.5969 6.55382 17.4649 4.87843C14.9617 4.95663 2.40726 3.22969 1.99792 4.35419C1.72182 5.11216 1.57591 5.95312 1.4348 6.68618C0.985273 9.0208 0.668557 11.386 0.481582 13.7556C0.32737 15.7123 0.252243 17.6913 0.417375 19.6502C0.537075 21.0692 0.735392 22.6899 1.56848 23.8922C2.73271 25.572 4.86635 26.3352 6.77455 26.7742C9.1965 27.3317 11.7416 27.4628 14.2186 27.3583C15.5655 27.3011 15.9407 24.2994 16.0158 23.347C16.416 18.2785 16.8411 13.213 17.2985 8.14882Z" fill="url(#paint1_linear_75_3613)"/>
<path d="M9.86117 7.81239C9.03332 7.84777 8.18842 7.84035 7.38591 7.694C5.82108 7.40787 4.35236 6.64819 3.15536 5.55519C3.00203 5.41496 1.97628 4.73653 1.95312 4.51112C2.31004 3.14945 4.28988 2.39019 4.28988 2.39019L5.02032 1.54183L5.5559 1.32953L5.82501 0.592986L7.10413 0.507812L8.1325 0.692151L10.7733 1.28452L11.6632 2.32074L13.533 1.82624L14.7068 3.25035L15.6579 3.82525C15.6579 3.82525 17.449 4.86365 17.4625 4.87982C17.5053 4.93049 15.3652 6.14756 15.2691 6.21309C14.8309 6.51014 14.3696 6.76743 13.8925 6.9828C12.834 7.45984 11.7148 7.70055 10.5767 7.7735C10.3408 7.78836 10.1019 7.8019 9.86117 7.81239Z" fill="black"/>
<defs>
<linearGradient id="paint0_linear_75_3613" x1="10.7315" y1="44.0055" x2="1.98635" y2="44.0408" gradientUnits="userSpaceOnUse">
<stop stop-color="#BFAB8D"/>
<stop offset="0.5078" stop-color="#E7E1D2"/>
<stop offset="1" stop-color="#CCBFA6"/>
</linearGradient>
<linearGradient id="paint1_linear_75_3613" x1="21.8041" y1="15.6284" x2="-3.54805" y2="15.7305" gradientUnits="userSpaceOnUse">
<stop stop-color="#94938C"/>
<stop offset="0.2296" stop-color="#EDEBE1"/>
<stop offset="0.7988" stop-color="#EDEBE1"/>
<stop offset="1" stop-color="#94938C"/>
</linearGradient>
</defs>
</svg>
