<svg width="17" height="62" viewBox="0 0 17 62" fill="none" xmlns="http://www.w3.org/2000/svg">
<path d="M14.2461 22.9414C14.2461 22.9414 6.37757 26.7181 4.17442 23.5709C4.26092 26.6635 4.31421 29.7578 4.35484 32.8513C4.43173 38.7337 4.46275 44.6217 4.29106 50.5028C4.23077 52.5683 4.18272 54.6365 3.98525 56.6945C3.88477 57.743 3.74628 58.7884 3.54838 59.8229C3.45751 60.2991 3.1836 60.86 3.40422 61.2947C3.6978 61.8727 4.45621 62.0037 4.98613 61.7429C5.73187 61.376 6.22203 60.4734 6.59207 59.7766C7.4846 58.0955 8.06041 56.2375 8.58116 54.4149C11.7284 43.3989 13.7612 26.3271 14.2461 22.9414Z" fill="url(#paint0_linear_75_3603)"/>
<path d="M11.2326 4.16393C9.72019 4.15126 9.24969 4.68817 7.7377 4.73186C6.04835 4.78079 5.49965 2.94595 3.93698 3.72707C3.03486 4.17835 1.28172 3.16351 1.10217 4.09578C0.98334 4.71351 0.968917 5.364 0.986829 5.95071C1.16682 11.765 1.54121 17.8837 3.8863 23.289C4.57305 24.8718 5.53153 26.469 7.03172 27.4004C9.35628 28.8438 12.0172 28.0072 13.3422 25.6962C14.4029 23.8465 14.811 21.7141 15.0333 19.6224C15.2015 18.0388 15.0962 16.4433 15.2085 14.8566C15.3269 13.1843 15.8201 11.5618 16.0897 9.90914C16.3775 8.14115 16.707 6.3216 16.5881 4.53832C16.5318 3.68468 12.0478 4.17049 11.2326 4.16393Z" fill="url(#paint1_linear_75_3603)"/>
<path d="M8.98816 7.36269C8.16336 7.39851 7.32196 7.39152 6.52294 7.2456C4.96466 6.96033 3.50204 6.20151 2.31028 5.10936C2.15738 4.96913 1.13643 4.2911 1.11328 4.06612C1.46932 2.70443 3.44174 1.94387 3.44174 1.94387L4.17001 1.09547L4.70342 0.883159L4.97163 0.146618L6.24598 0.0605469L7.26998 0.244464L9.89987 0.835548L10.7858 1.87134L12.6482 1.37595L13.8168 2.79922L14.7635 3.37371C14.7635 3.37371 16.5472 4.41125 16.5603 4.42698C16.6031 4.47765 14.4708 5.69606 14.3747 5.76115C13.9382 6.05822 13.4787 6.31596 13.0029 6.53133C11.9483 7.00926 10.833 7.24998 9.69979 7.3238C9.46607 7.33822 9.22756 7.35264 8.98816 7.36269Z" fill="black"/>
<defs>
<linearGradient id="paint0_linear_75_3603" x1="2.07507" y1="42.3799" x2="10.9663" y2="42.412" gradientUnits="userSpaceOnUse">
<stop stop-color="#BFAB8D"/>
<stop offset="0.5078" stop-color="#E7E1D2"/>
<stop offset="1" stop-color="#CCBFA6"/>
</linearGradient>
<linearGradient id="paint1_linear_75_3603" x1="-1.63767" y1="15.7917" x2="19.7334" y2="15.8689" gradientUnits="userSpaceOnUse">
<stop stop-color="#94938C"/>
<stop offset="0.2296" stop-color="#EDEBE1"/>
<stop offset="0.7988" stop-color="#EDEBE1"/>
<stop offset="1" stop-color="#94938C"/>
</linearGradient>
</defs>
</svg>
