<svg width="16" height="66" viewBox="0 0 16 66" fill="none" xmlns="http://www.w3.org/2000/svg">
<path d="M2.89715 26.4199C2.89671 33.6749 1.41883 40.8779 1.08158 48.1277C0.943969 51.0826 0.716373 54.0367 0.759184 56.9969C0.792822 59.3433 0.613271 63.2562 2.0763 65.2545C2.69576 66.0985 4.5288 62.3411 4.70397 61.9802C5.80092 59.7212 6.48243 57.3197 7.32992 54.9624C8.26436 52.3626 9.21714 49.7467 9.98294 47.0906C11.0047 43.5467 11.5871 39.8556 12.238 36.2301C12.3398 35.6622 13.2292 28.3614 13.5979 28.3089C13.5949 28.3089 4.78524 29.5667 2.89715 26.4199Z" fill="url(#paint0_linear_75_3593)"/>
<path d="M11.9928 3.06641C9.06538 3.07209 6.13792 3.12976 3.21047 3.12976C3.21047 3.12976 0.377807 3.75926 0.692352 5.33282C1.0069 6.90639 1.95141 26.42 2.89549 27.679C3.83956 28.9381 6.04268 33.0297 10.7639 31.7707C15.4847 30.5116 14.5406 19.4967 14.5406 19.4962C14.4161 17.5011 14.9177 15.291 15.0535 13.2968C15.2431 10.5153 15.4113 7.91336 15.2903 5.12401C15.2859 5.02223 14.1676 4.88505 13.3244 4.38136C12.673 3.99168 12.3061 3.06597 11.9928 3.06641Z" fill="url(#paint1_linear_75_3593)"/>
<path d="M8.07929 8.26318C7.2995 8.30556 6.50441 8.30513 5.75083 8.16534C4.28037 7.89273 2.90428 7.14569 1.78679 6.064C1.64351 5.92508 0.683721 5.2558 0.664062 5.03125C1.01136 3.66822 2.88111 2.89323 2.88111 2.89323L3.57571 2.04004L4.0816 1.82378L4.34109 1.08591L5.54595 0.990234L6.51228 1.16586L8.99319 1.73598L9.82235 2.76349L11.5864 2.2541L12.6794 3.66691L13.5697 4.23354C13.5697 4.23354 15.2866 5.08892 15.2992 5.10465C15.339 5.15489 13.2753 6.55547 13.1844 6.62144C12.7694 6.92156 12.3334 7.18282 11.8821 7.40169C10.8817 7.88705 9.82628 8.1365 8.75467 8.21907C8.531 8.23523 8.30602 8.25095 8.07929 8.26318Z" fill="black"/>
<defs>
<linearGradient id="paint0_linear_75_3593" x1="12.5571" y1="45.8628" x2="-3.14386" y2="45.9195" gradientUnits="userSpaceOnUse">
<stop stop-color="#BFAB8D"/>
<stop offset="0.5078" stop-color="#E7E1D2"/>
<stop offset="1" stop-color="#CCBFA6"/>
</linearGradient>
<linearGradient id="paint1_linear_75_3593" x1="17.5027" y1="17.5117" x2="-1.32088" y2="17.5797" gradientUnits="userSpaceOnUse">
<stop stop-color="#94938C"/>
<stop offset="0.2296" stop-color="#EDEBE1"/>
<stop offset="0.7988" stop-color="#EDEBE1"/>
<stop offset="1" stop-color="#94938C"/>
</linearGradient>
</defs>
</svg>
