<svg width="15" height="66" viewBox="0 0 15 66" fill="none" xmlns="http://www.w3.org/2000/svg">
<path d="M12.6117 26.4199C12.6121 33.6749 14.0901 40.8779 14.4274 48.1277C14.565 51.0826 14.7927 54.0367 14.7498 56.9969C14.7162 59.3433 14.8958 63.2562 13.4326 65.2545C12.8131 66.0985 10.9799 62.3411 10.8047 61.9802C9.70772 59.7212 9.02618 57.3197 8.17862 54.9624C7.24411 52.3626 6.29126 49.7467 5.5254 47.0906C4.50352 43.5467 3.92114 39.8556 3.27018 36.2301C3.16839 35.6622 2.27889 28.3614 1.91016 28.3089C1.91365 28.3089 10.7235 29.5667 12.6117 26.4199Z" fill="url(#paint0_linear_75_3588)"/>
<path d="M3.51413 3.06641C6.44159 3.07209 9.36903 3.12976 12.2965 3.12976C12.2965 3.12976 15.1291 3.75926 14.8146 5.33282C14.5 6.90639 13.5555 26.42 12.6115 27.679C11.6674 28.9381 9.46427 33.0297 4.74304 31.7707C0.0222446 30.5116 0.966329 19.4967 0.966329 19.4962C1.09084 17.5011 0.589302 15.291 0.453436 13.2968C0.263835 10.5153 0.0956443 7.91336 0.216657 5.12401C0.221025 5.02223 1.33941 4.88505 2.18256 4.38136C2.83393 3.99168 3.20134 3.06597 3.51413 3.06641Z" fill="url(#paint1_linear_75_3588)"/>
<path d="M7.42737 8.26318C8.20718 8.30556 9.00228 8.30513 9.75589 8.16534C11.2264 7.89273 12.6026 7.14569 13.7201 6.064C13.8634 5.92508 14.8232 5.2558 14.8433 5.03125C14.496 3.66822 12.6261 2.89323 12.6261 2.89323L11.9315 2.04004L11.4256 1.82378L11.1661 1.08591L9.96123 0.990234L8.99486 1.16586L6.51386 1.73598L5.68467 2.76349L3.92059 2.2541L2.82753 3.66691L1.93719 4.23354C1.93719 4.23354 0.220268 5.08892 0.207598 5.10465C0.167843 5.15489 2.23164 6.55547 2.32251 6.62144C2.73753 6.92156 3.17354 7.18282 3.62482 7.40169C4.62526 7.88705 5.68074 8.1365 6.75239 8.21907C6.97563 8.23523 7.20107 8.25095 7.42737 8.26318Z" fill="black"/>
<defs>
<linearGradient id="paint0_linear_75_3588" x1="2.9512" y1="45.8628" x2="18.6534" y2="45.9195" gradientUnits="userSpaceOnUse">
<stop stop-color="#BFAB8D"/>
<stop offset="0.5078" stop-color="#E7E1D2"/>
<stop offset="1" stop-color="#CCBFA6"/>
</linearGradient>
<linearGradient id="paint1_linear_75_3588" x1="-1.99552" y1="17.5117" x2="16.828" y2="17.5797" gradientUnits="userSpaceOnUse">
<stop stop-color="#94938C"/>
<stop offset="0.2296" stop-color="#EDEBE1"/>
<stop offset="0.7988" stop-color="#EDEBE1"/>
<stop offset="1" stop-color="#94938C"/>
</linearGradient>
</defs>
</svg>
