<svg width="16" height="62" viewBox="0 0 16 62" fill="none" xmlns="http://www.w3.org/2000/svg">
<path d="M2.61719 22.9414C2.61719 22.9414 10.4853 26.7181 12.6884 23.5709C12.6019 26.6635 12.5486 29.7578 12.508 32.8513C12.4311 38.7337 12.4001 44.6217 12.5718 50.5028C12.632 52.5683 12.6801 54.6365 12.8776 56.6945C12.978 57.743 13.1165 58.7884 13.3144 59.8229C13.4053 60.2991 13.6792 60.86 13.4586 61.2947C13.165 61.8727 12.4066 62.0037 11.8767 61.7429C11.131 61.376 10.6409 60.4734 10.2709 59.7766C9.37837 58.0955 8.80258 56.2375 8.28186 54.4149C5.13477 43.3989 3.10209 26.3271 2.61719 22.9414Z" fill="url(#paint0_linear_75_3598)"/>
<path d="M5.63026 4.16393C7.14264 4.15126 7.61356 4.68817 9.12507 4.73186C10.8144 4.78079 11.3631 2.94595 12.9257 3.72707C13.8278 4.17835 15.5813 3.16351 15.7604 4.09578C15.8792 4.71351 15.8936 5.364 15.8757 5.95071C15.6958 11.765 15.3214 17.8837 12.9764 23.289C12.2896 24.8718 11.3312 26.469 9.83102 27.4004C7.50654 28.8438 4.84567 28.0072 3.52071 25.6962C2.46003 23.8465 2.05201 21.7141 1.82966 19.6224C1.66147 18.0388 1.76676 16.4433 1.65449 14.8566C1.5361 13.1843 1.0429 11.5618 0.773365 9.90914C0.48548 8.14115 0.156088 6.3216 0.274911 4.53832C0.331265 3.68468 4.8151 4.17049 5.63026 4.16393Z" fill="url(#paint1_linear_75_3598)"/>
<path d="M7.87399 7.36269C8.69879 7.39851 9.54017 7.39152 10.3392 7.2456C11.8975 6.96033 13.3601 6.20151 14.5514 5.10936C14.7043 4.96913 15.7253 4.2911 15.7484 4.06612C15.3924 2.70443 13.4199 1.94387 13.4199 1.94387L12.6917 1.09547L12.1583 0.883159L11.8901 0.146618L10.6157 0.0605469L9.59173 0.244464L6.96181 0.835548L6.07586 1.87134L4.21353 1.37595L3.04492 2.79922L2.09825 3.37371C2.09825 3.37371 0.314523 4.41125 0.301417 4.42698C0.258605 4.47765 2.39094 5.69606 2.48705 5.76115C2.92347 6.05822 3.38305 6.31596 3.85879 6.53133C4.91381 7.00926 6.02868 7.24998 7.1619 7.3238C7.39605 7.33822 7.63459 7.35264 7.87399 7.36269Z" fill="black"/>
<defs>
<linearGradient id="paint0_linear_75_3598" x1="14.7876" y1="42.3799" x2="5.8968" y2="42.412" gradientUnits="userSpaceOnUse">
<stop stop-color="#BFAB8D"/>
<stop offset="0.5078" stop-color="#E7E1D2"/>
<stop offset="1" stop-color="#CCBFA6"/>
</linearGradient>
<linearGradient id="paint1_linear_75_3598" x1="18.5001" y1="15.7917" x2="-2.87027" y2="15.8689" gradientUnits="userSpaceOnUse">
<stop stop-color="#94938C"/>
<stop offset="0.2296" stop-color="#EDEBE1"/>
<stop offset="0.7988" stop-color="#EDEBE1"/>
<stop offset="1" stop-color="#94938C"/>
</linearGradient>
</defs>
</svg>
