<svg width="18" height="64" viewBox="0 0 18 64" fill="none" xmlns="http://www.w3.org/2000/svg">
<path d="M2.97656 26.1169C4.81092 26.1073 6.67369 25.9383 8.50499 25.7915C10.7229 25.6137 13.8373 25.7225 15.8625 24.6626C16.0477 24.5656 16.1089 24.2358 16.2793 24.1191C16.6668 25.4184 16.3352 27.5005 16.2587 28.8308C16.0399 32.6337 15.8717 36.4436 15.9084 40.2535C15.9289 42.3566 16.046 44.4444 16.2351 46.5387C16.4964 49.4303 17.4728 52.2533 17.7358 55.1746C17.9201 57.2231 17.8891 59.3057 17.4894 61.3284C17.3635 61.9644 17.1805 63.6136 16.6288 63.7656C15.901 63.9657 14.8031 62.8465 14.4375 62.3532C13.2283 60.7229 12.9181 58.5154 12.2995 56.6259C11.6075 54.5115 10.7967 52.4381 9.96846 50.3739C8.3534 46.3473 6.6549 42.3312 5.61474 38.1072C5.00708 35.6393 4.73666 33.1112 4.16612 30.6342C3.81751 29.1161 3.40556 27.6137 2.97656 26.1169Z" fill="url(#paint0_linear_75_3608)"/>
<path d="M0.864171 8.06093C0.864171 8.06093 0.565801 6.46593 0.697729 4.79054C3.20087 4.86874 15.755 3.1418 16.1643 4.2663C16.4404 5.02426 16.5863 5.86523 16.7274 6.59829C17.1769 8.93291 17.4937 11.2981 17.6806 13.6677C17.8348 15.6244 17.91 17.6034 17.7448 19.5623C17.6251 20.9813 17.4268 22.602 16.5937 23.8043C15.4295 25.4841 13.296 26.2473 11.3878 26.6864C8.96594 27.2438 6.42087 27.3749 3.94395 27.2704C2.59714 27.2132 2.22189 24.2115 2.14675 23.2591C1.7466 18.1906 1.32155 13.1251 0.864171 8.06093Z" fill="url(#paint1_linear_75_3608)"/>
<path d="M8.30146 7.72473C9.12933 7.76011 9.97425 7.75269 10.7768 7.60634C12.3417 7.32019 13.8104 6.56049 15.0075 5.46745C15.1608 5.32722 16.1866 4.64877 16.2097 4.42335C15.8528 3.06165 13.8729 2.30236 13.8729 2.30236L13.1425 1.45398L12.6068 1.24167L12.3377 0.505098L11.0586 0.419922L10.0302 0.604267L7.38927 1.19666L6.49935 2.23291L4.62954 1.73839L3.45566 3.16255L2.50458 3.73747C2.50458 3.73747 0.713396 4.7759 0.699853 4.79206C0.657039 4.84274 2.79728 6.05984 2.89339 6.12537C3.33158 6.42244 3.79291 6.67974 4.26997 6.89511C5.32852 7.37217 6.44781 7.61288 7.58586 7.68584C7.82177 7.70069 8.06074 7.71424 8.30146 7.72473Z" fill="black"/>
<defs>
<linearGradient id="paint0_linear_75_3608" x1="7.43329" y1="43.9178" x2="16.1785" y2="43.9531" gradientUnits="userSpaceOnUse">
<stop stop-color="#BFAB8D"/>
<stop offset="0.5078" stop-color="#E7E1D2"/>
<stop offset="1" stop-color="#CCBFA6"/>
</linearGradient>
<linearGradient id="paint1_linear_75_3608" x1="-3.64142" y1="15.5405" x2="21.7101" y2="15.6426" gradientUnits="userSpaceOnUse">
<stop stop-color="#94938C"/>
<stop offset="0.2296" stop-color="#EDEBE1"/>
<stop offset="0.7988" stop-color="#EDEBE1"/>
<stop offset="1" stop-color="#94938C"/>
</linearGradient>
</defs>
</svg>
