<svg width="17" height="49" viewBox="0 0 17 49" fill="none" xmlns="http://www.w3.org/2000/svg">
<path d="M2.66016 18.5887C2.66016 18.5887 8.63987 43.1385 13.676 47.2298C18.712 51.321 16.194 43.138 16.194 43.138C16.194 43.138 14.3055 28.0308 14.3055 25.1981C14.3055 22.3655 15.3067 17.0605 15.3067 17.0605C15.3067 17.0605 5.60807 19.1492 2.66016 18.5887Z" fill="url(#paint0_linear_75_3618)"/>
<path d="M9.54706 4.50272C11.3329 7.01945 3.89246 5.81023 0.154758 4.76483C0.154758 4.80852 -0.113887 4.80807 0.141234 6.00025C1.08527 10.4064 0.770723 12.9244 0.770723 12.9244C0.770723 12.9244 1.40022 20.4781 6.75034 20.7926C12.1009 21.1076 15.5625 17.9601 15.8775 16.0715C16.1925 14.183 16.192 8.83283 16.507 7.88878C16.7027 7.30121 17.1653 6.43274 16.7114 4.37209C6.86174 4.29345 12.7453 3.72379 11.5566 3.36732C8.4095 2.42327 9.50338 3.27995 9.50338 3.27995C9.50338 3.27995 7.76165 1.98599 9.54706 4.50272Z" fill="url(#paint1_linear_75_3618)"/>
<path d="M8.27238 7.9146C9.15749 7.9526 10.0605 7.94517 10.9181 7.78834C12.5905 7.48253 14.1606 6.66908 15.4398 5.49914C15.604 5.34886 16.7001 4.62278 16.7246 4.38162C16.3428 2.92379 14.2261 2.1099 14.2261 2.1099L13.445 1.20165L12.8722 0.974039L12.5843 0.185476L11.2169 0.09375L10.1178 0.290768L7.29511 0.92423L6.34403 2.03345L4.34533 1.50353L3.09062 3.02775L2.07401 3.64332C2.07401 3.64332 0.159629 4.7547 0.145212 4.77174C0.09934 4.82591 2.38726 6.12998 2.49036 6.19988C2.95869 6.51792 3.45192 6.79357 3.96219 7.02424C5.09413 7.53538 6.29029 7.79313 7.50655 7.87176C7.75994 7.88836 8.0155 7.90324 8.27238 7.9146Z" fill="black"/>
<defs>
<linearGradient id="paint0_linear_75_3618" x1="15.4282" y1="32.7187" x2="4.29997" y2="32.7589" gradientUnits="userSpaceOnUse">
<stop stop-color="#BFAB8D"/>
<stop offset="0.5078" stop-color="#E7E1D2"/>
<stop offset="1" stop-color="#CCBFA6"/>
</linearGradient>
<linearGradient id="paint1_linear_75_3618" x1="20.0581" y1="11.8271" x2="-3.14331" y2="11.9109" gradientUnits="userSpaceOnUse">
<stop stop-color="#94938C"/>
<stop offset="0.2296" stop-color="#EDEBE1"/>
<stop offset="0.4283" stop-color="#EDEBE1"/>
<stop offset="0.7988" stop-color="#EDEBE1"/>
<stop offset="1" stop-color="#94938C"/>
</linearGradient>
</defs>
</svg>
