<svg width="19" height="49" viewBox="0 0 19 49" fill="none" xmlns="http://www.w3.org/2000/svg">
<path d="M3.37109 19.8307C4.14435 24.8922 5.50781 29.9498 7.2828 34.7452C9.23385 40.0156 11.6716 45.2863 16.4107 48.589C16.5256 48.6689 16.6488 48.7524 16.7886 48.759C16.931 48.766 17.0651 48.6921 17.1791 48.6065C17.8318 48.1185 18.0721 47.2277 18.0048 46.4152C17.9376 45.6026 17.6134 44.8377 17.3303 44.0732C15.6029 39.4101 15.1814 34.2782 14.689 29.3657C14.3771 26.2557 13.6375 22.4436 14.3705 19.3431C15.1578 16.016 3.85864 19.2396 3.37109 19.8307Z" fill="url(#paint0_linear_75_3628)"/>
<path d="M5.0412 6.10356C5.0412 6.10356 6.78871 7.50152 0.404637 4.9546C0.219839 5.82177 0.220276 6.97554 0.677685 8.46175C1.30722 14.127 3.19584 19.7923 3.19584 19.7923C3.19584 19.7923 3.82538 20.7363 8.23171 20.7363C12.638 20.7363 13.8971 20.1068 14.5267 18.8477C15.1562 17.5887 16.7298 5.62869 16.7298 5.62869C16.7298 5.62869 16.6804 5.18309 16.542 4.62565C10.8516 5.31677 13.4899 5.02625 12.7302 4.83621C11.4711 4.52167 12.638 1.85156 12.3231 1.85156C12.0081 1.85156 8.44097 4.47754 7.18189 4.79252C5.92325 5.10794 6.92981 6.41854 5.0412 6.10356Z" fill="url(#paint1_linear_75_3628)"/>
<path d="M8.32294 8.1638C9.18357 8.2053 10.0612 8.20138 10.8939 8.04804C12.5182 7.74879 14.0411 6.94236 15.2796 5.77814C15.4386 5.62873 16.5011 4.90704 16.5243 4.66633C16.1472 3.20767 14.087 2.38593 14.087 2.38593L13.3242 1.47511L12.7667 1.24576L12.4841 0.456345L11.1547 0.359375L10.087 0.552014L7.34566 1.17411L6.42561 2.27892L4.48067 1.74115L3.26706 3.25965L2.28149 3.87082C2.28149 3.87082 0.425219 4.97387 0.410803 4.99135C0.366679 5.04508 2.59559 6.35739 2.69564 6.42773C3.15216 6.7475 3.63271 7.02492 4.12943 7.25733C5.23165 7.77282 6.39546 8.03493 7.57806 8.11837C7.82446 8.13584 8.07261 8.15201 8.32294 8.1638Z" fill="black"/>
<defs>
<linearGradient id="paint0_linear_75_3628" x1="6.47974" y1="33.2809" x2="16.4623" y2="33.317" gradientUnits="userSpaceOnUse">
<stop stop-color="#BFAB8D"/>
<stop offset="0.5078" stop-color="#E7E1D2"/>
<stop offset="1" stop-color="#CCBFA6"/>
</linearGradient>
<linearGradient id="paint1_linear_75_3628" x1="-3.2132" y1="11.2457" x2="20.0256" y2="11.3297" gradientUnits="userSpaceOnUse">
<stop stop-color="#94938C"/>
<stop offset="0.2296" stop-color="#EDEBE1"/>
<stop offset="0.7988" stop-color="#EDEBE1"/>
<stop offset="1" stop-color="#94938C"/>
</linearGradient>
</defs>
</svg>
