<svg width="25" height="49" viewBox="0 0 25 49" fill="none" xmlns="http://www.w3.org/2000/svg">
<path d="M11.0814 1.92758C11.0814 1.92758 10.209 -0.0505414 8.44277 0.444864C6.67655 0.940269 6.06625 5.55663 6.38604 8.95982C6.70582 12.363 8.2191 23.1606 10.8215 23.3829C13.4238 23.6057 18.183 17.4896 16.0179 14.0825C13.8524 10.6758 10.2702 4.69513 11.0814 1.92758Z" fill="url(#paint0_linear_75_3555)"/>
<path d="M22.4668 31.2505C19.3865 31.0286 15.8911 29.5227 12.8051 29.4008C10.8694 29.3243 8.93277 29.1963 6.99484 29.2584C6.09883 29.2868 4.76595 31.6755 3.89746 31.565C3.3339 31.4934 3.70568 29.1789 3.72883 28.5799C3.74849 28.0701 3.79174 27.5625 3.71704 27.0544C3.4488 25.2231 2.44139 23.4843 2.02244 21.653C1.53752 19.5347 1.20987 17.3752 1.00848 15.2119C0.794851 12.9171 0.704853 10.5729 1.00498 8.28107C1.13429 7.29288 1.31078 6.2894 1.70309 5.36718C2.00846 4.64942 2.74895 3.24053 3.6952 3.34844C4.0425 3.38819 4.35355 3.58567 4.61349 3.82027C5.12287 4.28028 5.4776 4.89276 5.7122 5.538C6.19581 6.86913 6.18532 8.30248 6.27837 9.69695C6.37448 11.1347 6.76635 12.4662 7.08876 13.8616C7.68726 16.4544 8.39411 19.5058 10.0926 21.6312C10.5059 22.1484 11.1271 22.5669 11.7864 22.5045C12.1245 22.4721 12.4404 22.3166 12.7165 22.1187C13.7112 21.4053 14.2171 20.1742 14.3896 18.9624C14.7431 16.4792 14.477 13.7401 13.8134 11.333C13.4242 9.92017 12.7051 8.65502 12.2656 7.27366C11.8012 5.81323 11.1713 2.91595 13.2302 2.35982C14.0611 2.13528 14.9458 2.55992 15.567 3.1558C17.8701 5.36414 19.4258 8.64716 20.7578 11.4938C21.5748 13.239 22.3633 15.0433 22.8661 16.9087C23.1684 18.0301 23.1361 19.1476 23.1042 20.3057C23.0142 23.5433 22.8264 28.0408 22.4668 31.2505Z" fill="url(#paint1_linear_75_3555)"/>
<path d="M4.22779 33.3374C3.96567 33.4173 3.58998 34.1294 3.4445 34.3343C2.86829 35.1473 2.36939 36.0224 1.99587 36.9476C0.989349 39.4408 1.13526 42.1751 3.02337 44.217C3.04565 44.2411 3.06836 44.2651 3.09064 44.2891C3.19243 44.3961 3.29859 44.5005 3.38159 44.6224C3.61443 44.9645 3.66992 45.3926 3.89054 45.7439C4.09892 46.0755 4.40516 46.3856 4.70179 46.6359C5.40032 47.2257 6.33083 47.6355 7.26003 47.5437C7.57937 47.5123 7.88387 47.3987 8.18399 47.286C9.48714 46.7967 10.9021 46.2388 11.5932 44.9449C11.5146 45.0925 11.8733 45.6932 11.9637 45.8155C12.1804 46.11 12.446 46.2379 12.7811 46.3673C13.8876 46.7949 15.092 47.1383 16.1527 47.6687C16.8858 47.9509 17.5044 48.2191 18.2501 47.9745C18.6843 47.8321 19.1243 47.7071 19.5537 47.5499C20.3575 47.2559 21.6947 46.7412 21.6947 45.6984C21.6947 44.086 23.0385 39.249 19.8136 34.4121C16.5905 29.5773 4.23827 33.3339 4.22779 33.3374Z" fill="#D8D6D0"/>
<path d="M4.21188 29.3627C3.90476 29.4562 3.4644 30.2907 3.29446 30.5305C2.61951 31.4829 2.03543 32.5078 1.59769 33.5912C0.418593 36.5116 0.589845 39.7143 2.80082 42.1058C2.82703 42.1337 2.85367 42.1621 2.87988 42.1901C2.99914 42.3154 3.12322 42.4378 3.22064 42.5806C3.49368 42.9817 3.55834 43.4828 3.81653 43.8943C4.0603 44.2822 4.41896 44.6457 4.7667 44.9393C5.58495 45.63 6.67492 46.1096 7.76271 46.0026C8.13667 45.9659 8.49315 45.8327 8.84483 45.7007C10.3712 45.128 12.0287 44.474 12.8382 42.9585C12.746 43.1311 13.1663 43.8349 13.272 43.9786C13.5258 44.3233 13.8373 44.4731 14.2292 44.6247C15.5254 45.1258 16.936 45.5277 18.1784 46.149C19.0369 46.4797 19.7612 46.7938 20.6349 46.5072C21.1434 46.3403 21.6589 46.1939 22.1618 46.01C23.1032 45.6658 24.6698 45.0629 24.6698 43.8414C24.6698 41.9528 26.2434 36.2875 22.4667 30.6222C18.6913 24.9591 4.22367 29.3592 4.21188 29.3627Z" fill="url(#paint2_linear_75_3555)"/>
<path d="M11.6654 39.6896C12.388 39.6559 13.1254 39.6607 13.8249 39.7892C15.1896 40.0399 16.4697 40.7118 17.5116 41.6803C17.6453 41.8044 18.5387 42.4055 18.5583 42.6052C18.2438 43.8161 16.5142 44.4954 16.5142 44.4954L15.8746 45.2508L15.4068 45.4408L15.1704 46.0961L14.0538 46.1747L13.1569 46.0135L10.8537 45.4932L10.0796 44.5745L8.44705 45.0183L7.42566 43.7554L6.59692 43.2464C6.59692 43.2464 5.00061 42.4763 4.98882 42.4619C4.95168 42.4173 6.85774 41.1819 6.94162 41.1233C7.32475 40.8586 7.72754 40.6284 8.14475 40.4362C9.06959 40.0098 10.0468 39.7935 11.0398 39.7258C11.2469 39.7123 11.4553 39.6992 11.6654 39.6896Z" fill="black"/>
<defs>
<linearGradient id="paint0_linear_75_3555" x1="14.4687" y1="22.3885" x2="-3.406" y2="-21.2966" gradientUnits="userSpaceOnUse">
<stop offset="0.1599" stop-color="#BFAB8D"/>
<stop offset="0.5078" stop-color="#E7E1D2"/>
<stop offset="0.7297" stop-color="#CCBFA6"/>
</linearGradient>
<linearGradient id="paint1_linear_75_3555" x1="2.06412" y1="16.6274" x2="22.2002" y2="17.5379" gradientUnits="userSpaceOnUse">
<stop offset="0.1599" stop-color="#BFAB8D"/>
<stop offset="0.5078" stop-color="#E7E1D2"/>
<stop offset="0.7297" stop-color="#CCBFA6"/>
</linearGradient>
<linearGradient id="paint2_linear_75_3555" x1="-4.70146" y1="39.4158" x2="28.8314" y2="35.8944" gradientUnits="userSpaceOnUse">
<stop stop-color="#94938C"/>
<stop offset="0.2296" stop-color="#EDEBE1"/>
<stop offset="0.7988" stop-color="#EDEBE1"/>
<stop offset="1" stop-color="#94938C"/>
</linearGradient>
</defs>
</svg>
