<svg width="28" height="48" viewBox="0 0 28 48" fill="none" xmlns="http://www.w3.org/2000/svg">
<path d="M8.71851 0.361558C7.45421 0.447624 6.47827 0.818551 5.44027 1.53155C5.15937 1.72465 4.89331 1.9575 4.9488 2.23361C5.20742 3.52329 14.7171 2.48701 14.6258 1.35592C14.569 0.68399 11.4765 0.503995 10.784 0.429288C10.0025 0.344532 9.32706 0.320054 8.71851 0.361558Z" fill="#D8D6D0"/>
<path d="M18.5044 44.0487C19.1549 46.1326 17.6188 46.9827 16.192 45.7481C13.4335 43.361 11.8371 39.5319 10.433 36.0243C9.78289 34.4 6.99166 28.6884 8.46046 27.3079C9.91789 25.9378 15.631 28.5464 15.9237 32.2117C16.0827 34.1999 16.1491 36.1938 16.4912 38.1828C16.8634 40.3445 17.8669 42.0068 18.5044 44.0487Z" fill="url(#paint0_linear_75_3636)"/>
<path d="M2.35278 19.7116C2.53364 20.4573 2.69397 21.2161 2.72936 21.3629C3.03297 22.6224 3.29641 23.8919 3.50785 25.1702C3.68041 26.2147 3.81845 27.265 3.92111 28.3191C4.02072 29.3405 3.93378 30.465 4.12862 31.4663C4.31997 32.4532 4.67206 33.4885 5.00451 34.4418C6.00273 37.3046 7.5147 39.9686 9.31018 42.4037C10.211 43.6251 11.1852 44.792 12.2135 45.9082C12.8452 46.5941 14.1881 48.6246 15.3043 47.781C15.7232 47.4643 15.8914 46.8994 15.8643 46.3747C15.8373 45.8501 15.645 45.3503 15.4629 44.8575C14.0597 41.0555 12.7255 36.3478 13.5145 32.2684C13.5966 31.8433 13.7251 31.4042 14.03 31.0971C14.4297 30.6948 15.0697 30.6043 15.6166 30.7551C16.1636 30.9058 16.6302 31.2636 17.0373 31.6585C18.4348 33.015 19.4278 34.9219 20.2818 36.6562C20.9284 37.9694 21.4033 39.3687 21.6763 40.8073C21.9375 42.1843 21.7156 43.8208 22.2687 45.1131C22.5784 45.837 23.2691 46.4582 24.0563 46.4355C24.6692 46.418 25.2118 46.0235 25.6159 45.5622C27.1047 43.8623 27.39 41.1538 27.4769 38.9865C27.5861 36.2552 27.1973 33.5336 26.774 30.8429C26.1978 27.1802 25.4573 23.5416 24.6303 19.9274C24.5984 19.7871 24.1485 17.5071 24.0576 17.5098C24.0576 17.5098 2.03039 18.1209 1.82812 18.1266C1.94083 18.1249 2.15882 18.9104 2.35278 19.7116Z" fill="url(#paint1_linear_75_3636)"/>
<path d="M19.5868 0.191726C18.4448 0.126634 17.5152 0.376091 16.4759 0.955805C16.1946 1.11264 15.9202 1.31097 15.9259 1.58925C15.9516 2.8911 24.6028 2.99813 24.7011 1.87234C24.757 1.20307 22.0257 0.658735 21.4198 0.502776C20.7353 0.327595 20.1363 0.22318 19.5868 0.191726Z" fill="#D8D6D0"/>
<path d="M4.23505 1.20147C3.31719 1.29321 2.45263 1.64664 1.70777 2.42338C0.747977 3.42422 0.267427 4.81256 0.148599 6.19391C-0.106094 9.15757 0.401107 12.6821 1.14159 15.5532C1.37663 16.4645 1.40021 18.3797 2.0258 19.083C3.97248 21.2712 8.24984 20.2066 10.8383 20.0271C13.8028 19.8213 16.9946 19.723 19.6507 19.083C21.4091 18.9948 24.638 19.384 25.1718 17.0586C25.7835 14.3933 26.16 11.6678 26.2859 8.93608C26.3802 6.89507 26.6782 1.85197 23.7442 1.45836C23.3147 1.4007 22.59 1.88474 22.1596 1.98259C21.2619 2.18617 20.386 2.15864 19.4948 1.92186C18.3987 1.63091 17.3808 1.10668 16.3301 0.679863C16.1016 0.587249 15.864 0.497692 15.6176 0.504245C15.0562 0.519535 14.6438 1.00577 14.1947 1.34302C12.3044 2.76369 8.91606 2.02672 6.82915 1.48108C5.95323 1.25216 5.07164 1.11803 4.23505 1.20147Z" fill="url(#paint2_linear_75_3636)"/>
<path d="M12.7654 7.33343C13.6365 7.48414 14.5317 7.59467 15.4024 7.56103C17.101 7.49594 18.769 6.94812 20.1984 6.03291C20.3819 5.91539 21.0586 5.41737 21.1163 5.19763C20.9415 3.79969 19.4693 2.74074 19.4693 2.74074L18.8223 1.79889L18.2871 1.51406L18.1123 0.747364L16.7711 0.484375L15.6553 0.523688L12.772 0.742116L11.6759 1.64424L9.77065 0.893715L8.31585 2.14006L7.22366 2.57692C7.22366 2.57692 5.84227 3.26191 5.82566 3.27589C5.7728 3.32001 7.18697 4.91761 7.27915 4.99537C7.69855 5.35053 8.14853 5.66987 8.62166 5.94946C9.67103 6.5698 10.8196 6.96385 12.0131 7.19495C12.2613 7.24257 12.512 7.28974 12.7654 7.33343Z" fill="black"/>
<defs>
<linearGradient id="paint0_linear_75_3636" x1="11.026" y1="26.4408" x2="18.5" y2="69.0929" gradientUnits="userSpaceOnUse">
<stop offset="0.1599" stop-color="#BFAB8D"/>
<stop offset="0.5078" stop-color="#E7E1D2"/>
<stop offset="0.7297" stop-color="#CCBFA6"/>
</linearGradient>
<linearGradient id="paint1_linear_75_3636" x1="4.31917" y1="32.6926" x2="26.0115" y2="32.7709" gradientUnits="userSpaceOnUse">
<stop stop-color="#BFAB8D"/>
<stop offset="0.5078" stop-color="#E7E1D2"/>
<stop offset="1" stop-color="#CCBFA6"/>
</linearGradient>
<linearGradient id="paint2_linear_75_3636" x1="-5.41263" y1="10.4153" x2="31.9943" y2="10.5505" gradientUnits="userSpaceOnUse">
<stop stop-color="#94938C"/>
<stop offset="0.2296" stop-color="#EDEBE1"/>
<stop offset="0.7988" stop-color="#EDEBE1"/>
<stop offset="1" stop-color="#94938C"/>
</linearGradient>
</defs>
</svg>
