<svg width="26" height="47" viewBox="0 0 26 47" fill="none" xmlns="http://www.w3.org/2000/svg">
<path d="M15.0487 40.8302C15.2431 42.7148 14.0205 43.1434 13.1525 41.8302C11.4748 39.2915 10.8274 35.7533 10.277 32.5235C10.0219 31.0277 8.76048 25.673 10.0045 24.7826C11.2389 23.8997 15.0225 27.1828 14.7495 30.3361C14.6014 32.0469 14.3856 33.745 14.3699 35.4912C14.3529 37.3894 14.8582 38.984 15.0487 40.8302Z" fill="url(#paint0_linear_75_3650)"/>
<path d="M3.85156 19.3921C4.51168 21.2781 5.04376 23.2466 5.35088 25.2212C5.55752 26.5502 5.52694 27.7315 5.32511 29.0469C4.98566 31.2575 4.96122 33.5645 5.05646 35.7943C5.20499 39.2722 6.87341 41.8917 8.20718 45.0201C8.69735 46.1695 9.83101 46.7728 10.8585 45.7151C12.1622 44.3739 11.8105 41.5548 11.8625 39.8537C11.9333 37.5252 11.9804 35.1805 12.4461 32.8891C12.6466 31.9027 12.9284 30.9193 13.4435 30.0543C13.9555 29.1941 14.9018 28.7747 15.8083 29.3942C17.0154 30.219 17.2875 32.0259 17.7043 33.312C18.0953 34.5182 18.4496 35.7362 18.7917 36.9572C19.2749 38.6816 19.7218 40.4168 20.1822 42.1472C20.3732 42.8637 20.9962 44.5465 22.0495 43.8152C22.4051 43.568 22.5807 43.1398 22.7288 42.7331C23.215 41.3954 23.6034 40.0249 23.9909 38.6558C24.5104 36.8214 24.9883 34.9922 25.1001 33.0818C25.2526 30.4772 24.2264 27.9036 23.7248 25.3824C23.1919 22.7031 22.8594 19.9841 22.7314 17.2554C22.7231 17.0758 22.7091 16.8806 22.5877 16.7478C22.4239 16.5686 22.1429 16.5826 21.9022 16.6101C18.9442 16.9491 15.98 17.2248 13.025 17.5944C11.0254 17.843 9.02324 18.106 7.04115 18.4712C6.16741 18.6324 4.52828 18.7154 3.85156 19.3921Z" fill="url(#paint1_linear_75_3650)"/>
<path d="M1.53967 15.3045C1.44094 14.1232 1.46802 12.9261 1.24304 11.7593C0.89179 9.93796 -0.027819 8.35126 0.102369 6.42161C0.416043 1.77595 6.90841 1.41685 10.1727 2.70343C11.5301 3.23815 12.0871 2.73312 13.2282 2.01229C14.4645 1.23116 15.9233 0.822266 17.3846 0.822266C19.0556 0.822266 20.8997 1.29758 22.3269 2.17569C24.4383 3.47493 24.4366 5.60641 24.5821 7.84361C24.7424 10.318 24.6856 12.8672 23.8673 15.2332C23.617 15.9576 23.2854 16.6692 22.7638 17.2306C22.0224 18.0288 21.0779 18.1341 20.0761 18.3647C18.7087 18.6797 17.326 18.9462 15.9477 19.207C13.2448 19.7186 10.5165 20.1349 7.76642 20.273C6.46236 20.3385 5.11196 20.2061 3.95382 19.6028C2.27623 18.7295 1.68865 17.0869 1.53967 15.3045Z" fill="url(#paint2_linear_75_3650)"/>
<path d="M11.589 8.51707C12.4663 8.62628 13.3658 8.69488 14.2339 8.62061C15.9277 8.47557 17.5677 7.84998 18.9527 6.86837C19.1305 6.74256 19.7827 6.21309 19.8304 5.99073C19.5901 4.60241 18.0693 3.6138 18.0693 3.6138L17.379 2.7034L16.8311 2.44391L16.6201 1.68596L15.268 1.48633L14.1552 1.57807L11.2854 1.93191L10.2329 2.88469L8.2945 2.22461L6.89998 3.53822L5.82962 4.02621C5.82962 4.02621 4.48227 4.7754 4.46611 4.79026C4.41543 4.83656 5.90344 6.36599 5.99912 6.43939C6.43469 6.77445 6.89908 7.07196 7.3849 7.32926C8.46225 7.89936 9.62827 8.23879 10.8314 8.41353C11.0813 8.45023 11.3343 8.48562 11.589 8.51707Z" fill="black"/>
<defs>
<linearGradient id="paint0_linear_75_3650" x1="11.9768" y1="24.5275" x2="9.94506" y2="61.8959" gradientUnits="userSpaceOnUse">
<stop offset="0.1599" stop-color="#BFAB8D"/>
<stop offset="0.5078" stop-color="#E7E1D2"/>
<stop offset="0.7297" stop-color="#CCBFA6"/>
</linearGradient>
<linearGradient id="paint1_linear_75_3650" x1="6.28453" y1="32.7693" x2="23.131" y2="29.4911" gradientUnits="userSpaceOnUse">
<stop stop-color="#BFAB8D"/>
<stop offset="0.5078" stop-color="#E7E1D2"/>
<stop offset="1" stop-color="#CCBFA6"/>
</linearGradient>
<linearGradient id="paint2_linear_75_3650" x1="-3.83175" y1="13.4593" x2="28.2339" y2="7.21965" gradientUnits="userSpaceOnUse">
<stop stop-color="#94938C"/>
<stop offset="0.2114" stop-color="#EDEBE1"/>
<stop offset="0.847" stop-color="#EDEBE1"/>
<stop offset="1" stop-color="#94938C"/>
</linearGradient>
</defs>
</svg>
