<svg width="25" height="39" viewBox="0 0 25 39" fill="none" xmlns="http://www.w3.org/2000/svg">
<path d="M15.8085 35.5006C16.0925 37.2852 14.9504 37.7579 14.0547 36.5526C12.3236 34.2228 11.521 30.8869 10.8272 27.8398C10.5056 26.4287 9.02316 21.3947 10.1618 20.4817C11.2916 19.576 15.0679 22.5043 14.9731 25.5222C14.9215 27.1591 14.8053 28.7878 14.8818 30.4518C14.9652 32.26 15.5301 33.7523 15.8085 35.5006Z" fill="url(#paint0_linear_75_3668)"/>
<path d="M3.80078 13.0553C3.80078 13.0553 5.05983 16.5175 5.05983 20.2942C5.05983 24.071 4.74483 28.7922 6.94836 32.2544C9.15146 35.7166 9.78097 37.2902 9.78097 37.2902C9.78097 37.2902 11.6696 39.4933 12.6136 36.9757C12.6136 36.9757 10.4105 29.4217 11.6695 25.645C12.9286 21.8683 14.1876 23.1269 14.5021 23.7564C14.8167 24.386 19.2233 31.6249 19.8529 33.5135C20.4824 35.4021 21.4264 37.2902 22.0559 37.2902C22.6855 37.2902 23.6295 35.7166 24.259 32.8839C24.8885 30.0513 24.259 26.9041 23 24.7009C21.741 22.4978 20.4819 12.7408 20.4819 11.1672C20.4819 9.59313 5.37479 12.4258 3.80078 13.0553Z" fill="url(#paint1_linear_75_3668)"/>
<path d="M11.072 3.16751C10.7732 3.09673 10.4638 2.90145 10.1047 2.66511C9.12966 2.02247 8.11701 1.40254 6.99209 1.09018C5.86674 0.777815 4.6007 0.804911 3.59941 1.40561C2.89519 1.82806 2.37359 2.49733 1.94416 3.1972C1.27226 4.29243 0.776416 5.56503 0.930629 6.84069C1.10625 8.29547 1.68335 9.72797 2.2753 11.0569C2.6344 11.863 2.93365 12.7826 3.58064 13.4134C4.33554 14.1491 5.60461 14.2526 6.59934 14.392C8.7391 14.6912 10.8876 14.423 12.9767 13.9272C15.0535 13.4339 17.1998 12.887 19.2195 12.1993C19.5825 12.0757 19.9451 11.9329 20.2491 11.6996C21.1014 11.0447 21.2766 9.55628 21.4815 8.5742C21.7926 7.08141 21.6025 5.53795 20.9918 4.14652C20.2054 2.35491 18.7017 0.773456 16.7053 0.466336C15.2763 0.246591 14.0077 0.539721 13.0461 1.64719C12.7277 2.01416 12.4743 2.44055 12.13 2.78524C11.7509 3.16488 11.4184 3.2492 11.072 3.16751Z" fill="url(#paint2_linear_75_3668)"/>
<path d="M11.023 9.25276C11.7473 9.34319 12.4899 9.39955 13.2068 9.33796C14.6051 9.21826 15.9598 8.70144 17.1031 7.89106C17.2498 7.78708 17.7885 7.34979 17.8278 7.16631C17.6295 6.01997 16.3739 5.20347 16.3739 5.20347L15.8039 4.45163L15.3513 4.23757L15.1774 3.61196L14.0608 3.44727L13.1421 3.52284L10.7727 3.81512L9.90335 4.60191L8.3027 4.05713L7.15119 5.14186L6.26742 5.54466C6.26742 5.54466 5.15478 6.16326 5.14167 6.17549C5.09974 6.21393 6.32815 7.47647 6.40722 7.53719C6.76718 7.81373 7.15028 8.05967 7.55131 8.27199C8.44073 8.74249 9.40358 9.02297 10.397 9.16714C10.6036 9.19728 10.8124 9.22611 11.023 9.25276Z" fill="black"/>
<defs>
<linearGradient id="paint0_linear_75_3668" x1="12.0283" y1="20.1316" x2="12.0515" y2="55.828" gradientUnits="userSpaceOnUse">
<stop offset="0.1599" stop-color="#BFAB8D"/>
<stop offset="0.5078" stop-color="#E7E1D2"/>
<stop offset="0.7297" stop-color="#CCBFA6"/>
</linearGradient>
<linearGradient id="paint1_linear_75_3668" x1="5.62536" y1="24.4058" x2="21.7628" y2="24.4641" gradientUnits="userSpaceOnUse">
<stop stop-color="#BFAB8D"/>
<stop offset="0.5078" stop-color="#E7E1D2"/>
<stop offset="1" stop-color="#CCBFA6"/>
</linearGradient>
<linearGradient id="paint2_linear_75_3668" x1="-5.21301" y1="7.39552" x2="27.566" y2="7.51393" gradientUnits="userSpaceOnUse">
<stop stop-color="#94938C"/>
<stop offset="0.2614" stop-color="#EDEBE1"/>
<stop offset="0.7687" stop-color="#EDEBE1"/>
<stop offset="1" stop-color="#94938C"/>
</linearGradient>
</defs>
</svg>
