<svg width="19" height="54" viewBox="0 0 19 54" fill="none" xmlns="http://www.w3.org/2000/svg">
<path d="M10.4102 52.3136C10.4102 52.3136 15.8442 52.681 17.1963 49.1573C18.5484 45.6331 10.7308 50.2735 10.4102 52.3136Z" fill="#D8D6D0"/>
<path d="M12.579 32.5416C12.6589 32.5809 12.7349 32.6255 12.8066 32.6757C14.191 33.6425 15.3579 35.2099 16.2382 36.6276C17.5759 38.7813 18.5309 41.2448 18.2736 43.8153C18.098 45.5723 17.9009 47.5928 17.0228 49.1708C16.5099 50.0925 15.357 50.515 14.4182 50.8418C13.6139 51.1218 12.8022 51.3848 12.0137 51.7076C11.2854 52.0056 10.5707 52.5136 9.75025 52.4481C8.80704 52.3725 8.14824 51.6333 7.39376 51.1537C6.20984 50.4014 2.02026 49.3529 1.81668 49.0559C0.891384 47.7042 0.954297 46.692 0.946433 45.1202C0.938133 43.523 0.96915 41.9162 1.27365 40.3435C1.81581 37.541 3.66727 35.2226 4.64061 32.5774C4.69653 32.4249 4.75245 32.269 4.85511 32.1432C5.03073 31.9278 5.31819 31.8347 5.59517 31.8125C6.11417 31.7705 6.63711 31.8509 7.15131 31.906C8.1264 32.0108 9.07833 32.1196 10.0587 32.1869C10.8359 32.2406 11.8551 32.1838 12.579 32.5416Z" fill="url(#paint0_linear_75_3542)"/>
<path d="M14.6402 34.384C14.6052 34.4124 14.5633 34.4347 14.5122 34.4487C14.2553 34.5207 13.4637 34.1332 13.1837 34.0598C12.2554 33.8169 11.3165 33.6138 10.3721 33.4447C9.37122 33.2656 8.36032 33.0957 7.34113 33.0874C6.80161 33.083 6.25904 33.1206 5.73088 33.235C5.26169 33.3368 4.75623 33.6584 4.31195 33.6985C3.98824 32.4364 4.31676 30.9686 4.3919 29.6868C4.47534 28.2618 4.60639 26.8398 4.7842 25.4235C5.11796 22.7656 5.78111 20.2069 6.26515 17.5826C6.73609 15.03 6.86714 12.3315 6.81079 9.7322C6.78414 8.50985 6.71031 7.28532 6.57008 6.07083C6.45082 5.03415 6.152 4.10625 6.25816 3.032C6.36606 1.93984 6.87849 0.28587 8.32056 0.733219C9.40616 1.07004 10.082 2.26398 10.6298 3.17179C11.6735 4.90046 12.4332 6.78379 13.133 8.6776C13.832 10.5688 14.4763 12.4927 14.8411 14.4796C15.1596 16.2126 15.1207 17.909 15.0906 19.6586C15.0434 22.4362 14.977 25.2133 14.9084 27.9905C14.8643 29.7825 14.9665 31.6518 14.8254 33.4692C14.7996 33.8091 14.8494 34.2132 14.6402 34.384Z" fill="url(#paint1_linear_75_3542)"/>
<path d="M9.3076 45.9631C10.1206 45.9255 10.9498 45.9308 11.7366 46.0754C13.2717 46.3572 14.7116 47.113 15.8833 48.2025C16.0335 48.3423 17.0383 49.0182 17.0606 49.2432C16.7067 50.6053 14.7614 51.3694 14.7614 51.3694L14.0419 52.2192L13.5155 52.4328L13.2494 53.1698L11.9934 53.2585L10.9847 53.0767L8.39412 52.4913L7.52345 51.4577L5.68688 51.957L4.53836 50.5367L3.60653 49.9645C3.60653 49.9645 1.81102 49.0981 1.79748 49.082C1.75554 49.0317 3.89967 47.642 3.99403 47.5765C4.42478 47.2785 4.87824 47.0199 5.34743 46.8037C6.38804 46.324 7.48719 46.0806 8.60425 46.0046C8.83666 45.9885 9.07125 45.974 9.3076 45.9631Z" fill="black"/>
<defs>
<linearGradient id="paint0_linear_75_3542" x1="-4.78911" y1="42.5176" x2="24.335" y2="41.6205" gradientUnits="userSpaceOnUse">
<stop stop-color="#94938C"/>
<stop offset="0.2666" stop-color="#EDEBE1"/>
<stop offset="0.7117" stop-color="#EDEBE1"/>
<stop offset="1" stop-color="#94938C"/>
</linearGradient>
<linearGradient id="paint1_linear_75_3542" x1="1.51044" y1="18.5679" x2="15.3379" y2="17.1158" gradientUnits="userSpaceOnUse">
<stop stop-color="#BFAB8D"/>
<stop offset="0.5078" stop-color="#E7E1D2"/>
<stop offset="1" stop-color="#CCBFA6"/>
</linearGradient>
</defs>
</svg>
