<svg width="19" height="56" viewBox="0 0 19 56" fill="none" xmlns="http://www.w3.org/2000/svg">
<path d="M3.96875 36.7691C3.96875 36.7691 4.2833 26.0682 5.2278 23.2355C6.1723 20.4029 7.11637 10.961 6.80139 8.44291C6.48684 5.92483 6.48684 2.14813 6.48684 2.14813C6.48684 2.14813 6.1723 -0.684483 9.00493 1.51862C11.8376 3.72172 15.2997 14.4227 14.9847 18.8289C14.6702 23.2351 14.5706 36.5131 14.6204 36.4839C14.6697 36.4546 3.96875 36.7691 3.96875 36.7691Z" fill="url(#paint0_linear_75_3531)"/>
<path d="M14.3545 35.5113C14.3545 35.5113 21.5933 46.2123 16.2431 51.8776C15.5895 52.5696 14.5616 53.0563 13.7651 53.5626C12.943 54.0855 12.0657 54.8116 11.0636 54.9247C9.91417 55.0549 9.07277 53.8522 7.94304 53.6176C6.14708 53.2446 8.73595 50.2236 7.20255 48.9987C6.5857 48.5059 1.94618 51.6164 1.56699 50.9209C1.16725 50.1882 0.694126 48.9585 0.560445 48.1485C0.235417 46.1787 0.571803 44.177 0.964108 42.2429C1.13143 41.4186 1.41626 40.634 1.74959 39.862C2.10476 39.039 2.74521 38.2356 3.02393 37.3994C3.02393 37.3994 5.54203 29.846 14.3545 35.5113Z" fill="url(#paint1_linear_75_3531)"/>
<path d="M9.09277 47.8244C9.90577 47.7869 10.7349 47.7921 11.5217 47.9367C13.0569 48.2185 14.4968 48.9742 15.6684 50.0638C15.8187 50.2036 16.8235 50.8794 16.8458 51.1043C16.4919 52.4664 14.5466 53.2305 14.5466 53.2305L13.827 54.0802L13.3006 54.2938L13.0346 55.0308L11.7786 55.1195L10.7699 54.9377L8.17928 54.3523L7.30861 53.3187L5.47204 53.8181L4.32352 52.3979L3.3917 51.8256C3.3917 51.8256 1.59618 50.9593 1.58264 50.9431C1.5407 50.8929 3.68483 49.5033 3.77919 49.4377C4.20994 49.1398 4.6634 48.8812 5.13259 48.665C6.1732 48.1853 7.27235 47.942 8.38941 47.866C8.62182 47.8498 8.85686 47.8354 9.09277 47.8244Z" fill="black"/>
<defs>
<linearGradient id="paint0_linear_75_3531" x1="4.8351" y1="18.7704" x2="17.2502" y2="18.388" gradientUnits="userSpaceOnUse">
<stop stop-color="#BFAB8D"/>
<stop offset="0.5078" stop-color="#E7E1D2"/>
<stop offset="1" stop-color="#CCBFA6"/>
</linearGradient>
<linearGradient id="paint1_linear_75_3531" x1="-3.01391" y1="44.5594" x2="22.7225" y2="43.7666" gradientUnits="userSpaceOnUse">
<stop stop-color="#94938C"/>
<stop offset="0.0311" stop-color="#A6A59D"/>
<stop offset="0.0939" stop-color="#C5C3BB"/>
<stop offset="0.1552" stop-color="#DBD9D0"/>
<stop offset="0.2138" stop-color="#E8E7DD"/>
<stop offset="0.2666" stop-color="#EDEBE1"/>
<stop offset="0.7117" stop-color="#EDEBE1"/>
<stop offset="0.7637" stop-color="#E7E5DB"/>
<stop offset="0.835" stop-color="#D5D3CA"/>
<stop offset="0.9175" stop-color="#B8B7AF"/>
<stop offset="1" stop-color="#94938C"/>
</linearGradient>
</defs>
</svg>
