<svg width="20" height="67" viewBox="0 0 20 67" fill="none" xmlns="http://www.w3.org/2000/svg">
<path d="M15.8548 43.9919C15.8548 43.9919 4.22069 41.0759 3.25391 42.7386L7.95239 9.46568C7.95239 9.46568 7.80648 0.914062 9.06552 0.914062C10.3246 0.914062 11.5836 4.69076 11.5836 4.69076C11.5836 4.69076 15.5743 36.0283 15.8548 43.9919Z" fill="url(#paint0_linear_75_3446)"/>
<path d="M13.6579 40.6859C13.6584 40.6868 20.5823 49.8138 19.3233 57.3673C19.0555 58.9732 18.2966 61.2331 17.5989 62.7495C17.2376 63.5345 15.5225 62.8499 15.0214 63.5358C14.3049 64.5162 12.9624 63.4528 11.7885 63.8416C10.2359 64.3558 9.45697 63.6647 7.9004 63.3174C7.13413 63.1466 7.12888 64.8255 6.41504 64.4969C4.47752 63.6057 3.13807 63.3187 2.19311 61.6005C0.704259 58.8928 0.306278 55.487 0.551799 52.4184C0.834018 48.8951 1.90347 45.4779 3.29359 42.2495C4.19529 40.1551 6.29576 39.6064 8.3923 39.3098C9.97072 39.0865 12.585 39.2718 13.6579 40.6859Z" fill="url(#paint1_linear_75_3446)"/>
<path d="M9.19185 59.3177C10.0752 59.2902 10.9773 59.3055 11.8349 59.4602C13.5077 59.7616 15.083 60.5366 16.3709 61.6423C16.536 61.7842 17.6374 62.4736 17.664 62.699C17.2962 64.059 15.1896 64.8007 15.1896 64.8007L14.4177 65.643L13.848 65.8505L13.568 66.5853L12.2032 66.6587L11.104 66.4643L8.27925 65.8461L7.31945 64.7999L5.3282 65.2773L4.06129 63.8405L3.04077 63.2556C3.04077 63.2556 2.19194 61.6292 2.17709 61.613C2.13078 61.5619 3.33085 60.9328 3.43308 60.8686C3.89791 60.5755 4.38764 60.3221 4.89528 60.1111C6.02109 59.6432 7.21328 59.413 8.42733 59.3509C8.67984 59.3374 8.93497 59.326 9.19185 59.3177Z" fill="black"/>
<defs>
<linearGradient id="paint0_linear_75_3446" x1="4.85308" y1="22.6874" x2="14.102" y2="22.4025" gradientUnits="userSpaceOnUse">
<stop stop-color="#BFAB8D"/>
<stop offset="0.5078" stop-color="#E7E1D2"/>
<stop offset="1" stop-color="#CCBFA6"/>
</linearGradient>
<linearGradient id="paint1_linear_75_3446" x1="-5.54237" y1="51.6408" x2="26.1903" y2="52.208" gradientUnits="userSpaceOnUse">
<stop stop-color="#94938C"/>
<stop offset="0.0617" stop-color="#A4A29B"/>
<stop offset="0.1809" stop-color="#CCCAC2"/>
<stop offset="0.2666" stop-color="#EDEBE1"/>
<stop offset="0.7117" stop-color="#EDEBE1"/>
<stop offset="0.7719" stop-color="#E0DED5"/>
<stop offset="0.883" stop-color="#BEBDB4"/>
<stop offset="1" stop-color="#94938C"/>
</linearGradient>
</defs>
</svg>
