<svg width="19" height="59" viewBox="0 0 19 59" fill="none" xmlns="http://www.w3.org/2000/svg">
<path d="M12.5936 33.3255C12.5936 33.3255 15.7407 34.5846 16.6852 41.8234C16.6852 41.8234 17.6293 49.3772 17.9443 51.5803C18.0364 52.2246 18.1605 53.4998 18.1199 54.1888C18.0216 55.8558 4.7957 54.3198 1.51926 53.8393C1.31655 53.5046 1.05007 52.8791 0.948717 52.5243C0.319203 50.3212 0.948711 39.6203 1.89276 37.7317C2.83725 35.8432 5.04034 30.8075 12.5936 33.3255Z" fill="url(#paint0_linear_75_3512)"/>
<path d="M9.44809 3.42641C9.44809 3.42641 16.3568 18.5305 13.532 34.4263C13.532 34.4263 3.51494 33.2389 3.01953 35.9579C4.42451 29.3451 5.09947 22.3858 4.82293 15.6354C4.71109 12.8967 4.51755 10.162 4.44066 7.42197C4.39086 5.63782 4.08068 3.59941 4.84652 1.93758C5.16806 1.23904 5.69973 0.212412 6.57216 0.130718C8.05272 -0.00776749 9.00422 2.40546 9.44809 3.42641Z" fill="url(#paint1_linear_75_3512)"/>
<path d="M9.64942 50.808C10.5328 50.7805 11.4349 50.7958 12.2925 50.95C13.9652 51.2514 15.5405 52.0264 16.8284 53.1322C16.9936 53.2741 18.0949 53.9635 18.1216 54.189C17.7537 55.549 15.6472 56.2908 15.6472 56.2908L14.8752 57.1331L14.3055 57.3406L14.0255 58.0759L12.6607 58.1493L11.5616 57.9549L8.7368 57.3367L7.777 56.2904L5.78576 56.7679L4.51885 55.331L3.49834 54.746C3.49834 54.746 1.53463 53.8556 1.52022 53.8399C1.47391 53.7888 3.78842 52.4231 3.89064 52.3589C4.35547 52.0658 4.8452 51.8124 5.35284 51.6013C6.47865 51.1334 7.67086 50.9032 8.88491 50.8412C9.13785 50.8276 9.39298 50.8159 9.64942 50.808Z" fill="black"/>
<defs>
<linearGradient id="paint0_linear_75_3512" x1="22.5702" y1="44.3598" x2="-2.60099" y2="43.0987" gradientUnits="userSpaceOnUse">
<stop stop-color="#94938C"/>
<stop offset="0.1599" stop-color="#D1CFC6"/>
<stop offset="0.2296" stop-color="#EDEBE1"/>
<stop offset="0.7988" stop-color="#EDEBE1"/>
<stop offset="0.9762" stop-color="#9F9E96"/>
<stop offset="1" stop-color="#94938C"/>
</linearGradient>
<linearGradient id="paint1_linear_75_3512" x1="5.55145" y1="18.0537" x2="14.1999" y2="18.2083" gradientUnits="userSpaceOnUse">
<stop stop-color="#BFAB8D"/>
<stop offset="0.5078" stop-color="#E7E1D2"/>
<stop offset="1" stop-color="#CCBFA6"/>
</linearGradient>
</defs>
</svg>
