<svg width="25" height="72" viewBox="0 0 25 72" fill="none" xmlns="http://www.w3.org/2000/svg">
<path d="M12.5756 1.02165C14.071 2.49083 14.8163 5.62401 15.569 7.53618C17.8705 13.3832 19.6197 19.4556 20.6333 25.6604C21.1379 28.7486 21.4603 31.8674 21.583 34.9945C21.645 36.5672 21.6569 38.1417 21.6171 39.7153C21.5848 41.0032 21.7971 42.876 21.2619 44.0442C20.6031 43.2998 20.1339 42.4046 19.4367 41.6886C17.732 39.9377 15.528 38.6856 13.0391 38.6843C11.9884 38.6839 10.9561 38.8971 9.97444 39.2557C9.57602 39.4012 9.18633 39.5707 8.80668 39.759C7.69921 40.3094 6.3663 41.9708 5.18762 42.0604C5.01549 39.7568 5.59785 37.1714 5.81716 34.8613C5.81716 28.9968 6.97574 22.8033 7.85341 17.017C8.11728 15.2766 8.5144 13.5593 8.47771 11.7943C8.4397 9.97215 8.23525 8.15217 8.35889 6.3287C8.46985 4.69613 8.67431 0.753406 10.9229 0.503082C11.365 0.453716 11.8001 0.617544 12.2147 0.778747C12.348 0.831171 12.4672 0.915052 12.5756 1.02165Z" fill="url(#paint0_linear_75_3497)"/>
<path d="M24.4036 67.1246C24.4036 67.1246 26.6067 41.3166 14.9617 37.5395C14.9617 37.5395 1.74257 35.3364 0.483963 58.3118C0.483963 58.3118 -0.808274 67.0993 3.39961 69.6846C3.83516 69.9524 5.32749 69.3539 5.32749 69.3539L6.47819 69.7165L8.70927 69.6645L11.3754 70.4487L14.056 70.4518L16.4811 70.2766L19.7012 69.924L21.2407 70.2097C21.2407 70.2097 21.5256 70.7506 22.0743 70.485C22.7973 70.135 23.4487 69.6536 23.8842 68.9756C24.2385 68.4243 24.4036 67.7782 24.4036 67.1246Z" fill="url(#paint1_linear_75_3497)"/>
<path d="M14.4818 64.6908C14.4818 64.6908 10.512 64.1713 6.83404 66.772L5.46534 67.9118C5.1473 68.2215 3.98438 69.7484 3.98438 69.7484L4.99964 69.2875L7.57059 70.1048L8.92661 69.7226L9.41809 69.9843L9.57886 70.6885L10.8108 70.9301L12.0161 70.588L14.8815 70.6282L17.4791 71.0913L18.0457 70.3871H19.1392L21.5022 70.3486C21.5026 70.3486 18.5245 65.0687 14.4818 64.6908Z" fill="black"/>
<defs>
<linearGradient id="paint0_linear_75_3497" x1="18.0517" y1="22.2359" x2="5.06966" y2="22.468" gradientUnits="userSpaceOnUse">
<stop stop-color="#BFAB8D"/>
<stop offset="0.5078" stop-color="#E7E1D2"/>
<stop offset="1" stop-color="#CCBFA6"/>
</linearGradient>
<linearGradient id="paint1_linear_75_3497" x1="29.2901" y1="54.0149" x2="-4.43261" y2="54.032" gradientUnits="userSpaceOnUse">
<stop stop-color="#94938C"/>
<stop offset="0.2296" stop-color="#EDEBE1"/>
<stop offset="0.7876" stop-color="#EDEBE1"/>
<stop offset="1" stop-color="#94938C"/>
</linearGradient>
</defs>
</svg>
