<svg width="26" height="72" viewBox="0 0 26 72" fill="none" xmlns="http://www.w3.org/2000/svg">
<path d="M12.8847 1.02165C11.3894 2.49083 10.6441 5.62401 9.89134 7.53618C7.58994 13.3832 5.84073 19.4556 4.82721 25.6604C4.32263 28.7486 4.00021 31.8674 3.87745 34.9945C3.81542 36.5672 3.80363 38.1417 3.84339 39.7153C3.87571 41.0032 3.66339 42.876 4.19855 44.0442C4.85734 43.2998 5.32655 42.4046 6.02379 41.6886C7.72843 39.9377 9.93241 38.6856 12.4212 38.6843C13.4719 38.6839 14.5042 38.8971 15.4858 39.2557C15.8843 39.4012 16.2739 39.5707 16.6536 39.759C17.761 40.3094 19.0939 41.9708 20.2726 42.0604C20.4447 39.7568 19.8624 37.1714 19.6431 34.8613C19.6431 28.9968 18.4845 22.8033 17.6068 17.017C17.3429 15.2766 16.9459 13.5593 16.9825 11.7943C17.0206 9.97215 17.225 8.15217 17.1014 6.3287C16.9904 4.69613 16.7859 0.753406 14.5374 0.503082C14.0953 0.453716 13.6602 0.617544 13.2456 0.778747C13.1124 0.831171 12.9931 0.915052 12.8847 1.02165Z" fill="url(#paint0_linear_75_3502)"/>
<path d="M1.05664 67.1246C1.05664 67.1246 -1.14645 41.3166 10.4985 37.5395C10.4985 37.5395 23.7175 35.3364 24.9761 58.3118C24.9761 58.3118 26.2683 67.0993 22.0609 69.6846C21.6253 69.9524 20.133 69.3539 20.133 69.3539L18.9823 69.7165L16.7513 69.6645L14.0851 70.4487L11.4045 70.4518L8.97954 70.2766L5.75944 69.924L4.21993 70.2097C4.21993 70.2097 3.9351 70.7506 3.3864 70.485C2.6634 70.135 2.01205 69.6536 1.5765 68.9756C1.22177 68.4243 1.05664 67.7782 1.05664 67.1246Z" fill="url(#paint1_linear_75_3502)"/>
<path d="M10.9779 64.6908C10.9779 64.6908 14.9477 64.1713 18.6256 66.772L19.9943 67.9118C20.3124 68.2215 21.4753 69.7484 21.4753 69.7484L20.46 69.2875L17.8891 70.1048L16.5326 69.7226L16.0411 69.9843L15.8804 70.6885L14.6484 70.9301L13.4431 70.588L10.5777 70.6282L7.98011 71.0913L7.41351 70.3871H6.32002L3.95703 70.3486C3.95703 70.3486 6.93513 65.0687 10.9779 64.6908Z" fill="black"/>
<defs>
<linearGradient id="paint0_linear_75_3502" x1="7.40888" y1="22.2359" x2="20.3907" y2="22.468" gradientUnits="userSpaceOnUse">
<stop stop-color="#BFAB8D"/>
<stop offset="0.5078" stop-color="#E7E1D2"/>
<stop offset="1" stop-color="#CCBFA6"/>
</linearGradient>
<linearGradient id="paint1_linear_75_3502" x1="-3.83004" y1="54.0149" x2="29.8924" y2="54.0321" gradientUnits="userSpaceOnUse">
<stop stop-color="#94938C"/>
<stop offset="0.2296" stop-color="#EDEBE1"/>
<stop offset="0.7876" stop-color="#EDEBE1"/>
<stop offset="1" stop-color="#94938C"/>
</linearGradient>
</defs>
</svg>
