<svg width="25" height="40" viewBox="0 0 25 40" fill="none" xmlns="http://www.w3.org/2000/svg">
<path d="M6.22939 2.95908C5.69588 1.22333 7.31273 0.406724 8.68959 1.37259C11.3512 3.23945 12.7403 6.40425 13.953 9.30684C14.5146 10.6511 17.0038 15.347 15.4224 16.6114C13.8532 17.8658 8.19645 15.9885 8.12523 12.8849C8.08667 11.2009 8.14202 9.50691 7.91655 7.83331C7.67157 6.01455 6.75246 4.65943 6.22939 2.95908Z" fill="url(#paint0_linear_82_7389)"/>
<path d="M22.0191 26.8842C22.9813 20.5764 22.9659 12.9657 20.1623 7.12795C19.5108 5.77104 18.6239 4.5298 17.5673 3.45824C17.1527 3.03769 14.6825 0.512579 14.1635 1.1341C13.634 1.76787 14.1126 3.18422 14.2066 3.88877C14.3635 5.06785 14.5123 6.24784 14.6353 7.431C14.8843 9.83135 15.5045 12.4322 14.8558 14.8208C14.7128 15.3466 14.3826 15.8665 13.8645 16.0348C13.5909 16.1237 13.2929 16.1056 13.0121 16.0448C11.2346 15.6596 9.94847 13.8676 8.85559 12.5529C7.29272 10.6734 6.39583 8.56199 5.61507 6.26417C5.23581 5.14815 4.8021 4.06388 3.84896 3.32032C3.6194 3.14112 1.3706 0.381924 1.01674 0.46676C-0.148271 0.745311 0.254128 3.88831 0.296319 4.60284C0.622957 10.1593 4.69686 20.0203 4.69686 20.0203C4.69686 20.0203 5.67722 26.23 4.69686 28.1912C3.71649 30.1529 20.7121 30.1529 22.0191 26.8842Z" fill="url(#paint1_linear_82_7389)"/>
<path d="M22.9848 27.8713C22.9844 27.8708 20.3699 24.9297 14.4867 24.9297C8.60359 24.9297 4.35456 26.8909 3.37418 29.5054C2.6279 31.4947 2.24501 36.3004 3.69584 38.9807C7.73347 34.7616 7.7811 33.9046 8.6408 34.2172C9.77814 34.6309 8.74968 34.0883 9.77497 33.3552C10.6519 32.7282 10.5435 33.8356 11.8618 34.2625C12.4366 34.4485 12.6449 30.5933 13.1321 30.9508C15.2743 32.5223 18.9944 35.4371 21.4342 33.582C22.2476 32.9632 22.9313 36.5309 23.5211 38.7085C25.1601 35.3273 25.1806 30.3419 22.9848 27.8713Z" fill="url(#paint2_linear_82_7389)"/>
<path d="M12.2042 26.3608C12.2042 26.3608 16.3712 25.6717 20.2323 29.1227L21.6691 30.6352C22.0025 31.0463 24.2599 34.2187 24.2599 34.2187C24.2599 34.2187 24.4028 34.9446 24.2999 36.351C24.1969 37.7573 23.5118 38.71 23.5118 38.71L22.5714 37.1222L19.8635 36.5324L17.9799 36.0788L16.0581 34.6402L13.6238 36.3056L12.9174 38.7554L10.4449 39.3452L7.85497 37.6666L6.75619 38.9822L3.69531 38.9754C3.69395 38.9754 7.96067 26.8621 12.2042 26.3608Z" fill="black"/>
<defs>
<linearGradient id="paint0_linear_82_7389" x1="12.7674" y1="17.5048" x2="5.55655" y2="-17.915" gradientUnits="userSpaceOnUse">
<stop offset="0.1599" stop-color="#BFAB8D"/>
<stop offset="0.5078" stop-color="#E7E1D2"/>
<stop offset="0.7297" stop-color="#CCBFA6"/>
</linearGradient>
<linearGradient id="paint1_linear_82_7389" x1="27.9659" y1="14.9184" x2="0.87313" y2="15.0163" gradientUnits="userSpaceOnUse">
<stop offset="0.1599" stop-color="#BFAB8D"/>
<stop offset="0.5078" stop-color="#E7E1D2"/>
<stop offset="0.7297" stop-color="#CCBFA6"/>
</linearGradient>
<linearGradient id="paint2_linear_82_7389" x1="29.9192" y1="31.8802" x2="-2.74517" y2="31.9982" gradientUnits="userSpaceOnUse">
<stop stop-color="#94938C"/>
<stop offset="0.2296" stop-color="#EDEBE1"/>
<stop offset="0.7988" stop-color="#EDEBE1"/>
<stop offset="1" stop-color="#94938C"/>
</linearGradient>
</defs>
</svg>
