<svg width="17" height="49" viewBox="0 0 17 49" fill="none" xmlns="http://www.w3.org/2000/svg">
<path d="M4.54188 34.7399C4.54188 34.7399 1.14488 37.3653 0.164062 44.8825C0.164062 44.8825 11.4148 43.5215 16.7226 48.0582C17.2548 48.0963 16.8674 43.9802 15.6543 39.3156C15.1022 37.1938 12.3857 32.125 4.54188 34.7399Z" fill="url(#paint0_linear_82_7432)"/>
<path d="M7.81275 3.68968C7.81275 3.68968 0.638353 19.3747 3.57181 35.8817C3.57181 35.8817 13.9741 34.6486 14.4886 37.4722C13.0295 30.6051 12.3286 23.3782 12.6153 16.3682C12.7319 13.5242 12.9325 10.6843 13.0123 7.83888C13.064 5.98612 13.3861 3.86932 12.5908 2.14359C12.2569 1.41818 11.7048 0.352075 10.7988 0.267694C9.26178 0.123429 8.27368 2.62946 7.81275 3.68968Z" fill="url(#paint1_linear_82_7432)"/>
<path d="M9.87766 39.305C9.87766 39.305 6.50284 38.8219 3.37617 41.2399L2.21296 42.2997C1.94258 42.5873 0.210938 44.6787 0.210938 44.6787V47.7025L1.48211 46.8441L3.67513 46.4308L5.20082 46.1128L6.75689 45.1052L8.72852 46.272L9.30059 47.9883L11.3031 48.4016L13.4008 47.2256L14.2909 48.1475L16.7702 48.143C16.7697 48.143 13.3142 39.6566 9.87766 39.305Z" fill="black"/>
<defs>
<linearGradient id="paint0_linear_82_7432" x1="-3.70886" y1="41.8475" x2="19.9556" y2="40.6619" gradientUnits="userSpaceOnUse">
<stop stop-color="#94938C"/>
<stop offset="0.1599" stop-color="#D1CFC6"/>
<stop offset="0.2296" stop-color="#EDEBE1"/>
<stop offset="0.7988" stop-color="#EDEBE1"/>
<stop offset="0.9762" stop-color="#9F9E96"/>
<stop offset="1" stop-color="#94938C"/>
</linearGradient>
<linearGradient id="paint1_linear_82_7432" x1="11.8592" y1="18.8794" x2="2.87821" y2="19.0399" gradientUnits="userSpaceOnUse">
<stop stop-color="#BFAB8D"/>
<stop offset="0.5078" stop-color="#E7E1D2"/>
<stop offset="1" stop-color="#CCBFA6"/>
</linearGradient>
</defs>
</svg>
