<svg width="20" height="62" viewBox="0 0 20 62" fill="none" xmlns="http://www.w3.org/2000/svg">
<path d="M3.94531 45.492C3.94531 45.492 16.0269 42.4637 17.0309 44.1908L12.1517 9.63832C12.1517 9.63832 8.73195 0.757812 7.42448 0.757812C6.11701 0.757812 4.80954 4.67975 4.80954 4.67975C4.80954 4.67975 4.23657 37.2221 3.94531 45.492Z" fill="url(#paint0_linear_82_7442)"/>
<path d="M6.26835 41.9962C6.26789 41.9971 -0.92194 51.4751 0.385466 59.3189C0.453967 59.7304 0.534265 60.1446 0.627263 60.5593C4.03595 54.428 7.39295 53.3392 19.278 60.9948C19.5751 59.9586 19.7648 58.8789 19.8641 57.7942C19.9753 56.5774 19.9721 55.3548 19.8782 54.1794C19.5851 50.521 18.4746 46.972 17.0311 43.6194C16.0948 41.4446 13.9136 40.8748 11.7366 40.5667C10.0971 40.3349 7.3825 40.5273 6.26835 41.9962Z" fill="url(#paint1_linear_82_7442)"/>
<path d="M11.4975 52.4054C11.4975 52.4054 7.68809 51.9359 4.15901 54.2872L2.84566 55.318C2.54079 55.5979 0.585938 57.6321 0.585938 57.6321V60.5728L2.02088 59.7381L4.49609 59.3361L6.21821 59.0272L7.97482 58.0468L10.2005 59.1814L10.8461 60.8505L13.1062 61.2524L15.4739 60.1087L16.4784 61.0052L19.2766 61.0006C19.277 61.0006 15.3768 52.747 11.4975 52.4054Z" fill="black"/>
<defs>
<linearGradient id="paint0_linear_82_7442" x1="15.299" y1="23.4209" x2="5.4054" y2="23.1161" gradientUnits="userSpaceOnUse">
<stop stop-color="#BFAB8D"/>
<stop offset="0.5078" stop-color="#E7E1D2"/>
<stop offset="1" stop-color="#CCBFA6"/>
</linearGradient>
<linearGradient id="paint1_linear_82_7442" x1="26.1552" y1="50.5377" x2="-6.79597" y2="51.1266" gradientUnits="userSpaceOnUse">
<stop stop-color="#94938C"/>
<stop offset="0.0617" stop-color="#A4A29B"/>
<stop offset="0.1809" stop-color="#CCCAC2"/>
<stop offset="0.2666" stop-color="#EDEBE1"/>
<stop offset="0.7117" stop-color="#EDEBE1"/>
<stop offset="0.7719" stop-color="#E0DED5"/>
<stop offset="0.883" stop-color="#BEBDB4"/>
<stop offset="1" stop-color="#94938C"/>
</linearGradient>
</defs>
</svg>
