<svg width="20" height="50" viewBox="0 0 20 50" fill="none" xmlns="http://www.w3.org/2000/svg">
<path d="M15.3355 38.3565C15.3355 38.3565 15.0089 27.244 14.028 24.3024C13.0477 21.3608 12.0668 11.5557 12.3939 8.94073C12.7206 6.32579 12.7206 2.40385 12.7206 2.40385C12.7206 2.40385 13.0472 -0.537741 10.1056 1.7501C7.16402 4.03795 3.56871 15.1505 3.8958 19.7262C4.22244 24.3019 4.32589 38.0907 4.27418 38.0603C4.22291 38.0299 15.3355 38.3565 15.3355 38.3565Z" fill="url(#paint0_linear_82_7451)"/>
<path d="M4.55166 37.0513C4.55166 37.0513 1.06211 42.2095 0.595295 47.3581C0.506378 48.3389 4.27039 45.8778 7.89559 46.1577C13.1712 46.5656 18.9722 49.4182 18.9849 49.2317C19.0307 48.5667 19.0148 47.8993 18.9581 47.2343C18.8665 46.1609 18.6696 45.0916 18.4568 44.0418C18.283 43.1858 17.9873 42.371 17.6411 41.5693C17.2723 40.7146 16.6072 39.8803 16.3178 39.012C16.3178 39.012 13.7034 31.1681 4.55166 37.0513Z" fill="url(#paint1_linear_82_7451)"/>
<path d="M11.4655 40.6253C11.4655 40.6253 7.68415 40.1422 4.18003 42.5602L2.87618 43.62C2.57358 43.9076 0.632812 45.999 0.632812 45.999V49.0228L2.05732 48.1644L4.51483 47.7511L6.22425 47.4331L7.96814 46.4255L10.1775 47.5923L10.8185 49.3086L13.0624 49.7219L15.4128 48.5459L16.41 49.4678L19.1878 49.4633C19.1882 49.4633 15.3162 40.9769 11.4655 40.6253Z" fill="black"/>
<defs>
<linearGradient id="paint0_linear_82_7451" x1="14.4356" y1="19.6655" x2="1.54299" y2="19.2683" gradientUnits="userSpaceOnUse">
<stop stop-color="#BFAB8D"/>
<stop offset="0.5078" stop-color="#E7E1D2"/>
<stop offset="1" stop-color="#CCBFA6"/>
</linearGradient>
<linearGradient id="paint1_linear_82_7451" x1="22.7117" y1="42.2936" x2="-3.98213" y2="41.4714" gradientUnits="userSpaceOnUse">
<stop stop-color="#94938C"/>
<stop offset="0.0311" stop-color="#A6A59D"/>
<stop offset="0.0939" stop-color="#C5C3BB"/>
<stop offset="0.1552" stop-color="#DBD9D0"/>
<stop offset="0.2138" stop-color="#E8E7DD"/>
<stop offset="0.2666" stop-color="#EDEBE1"/>
<stop offset="0.7117" stop-color="#EDEBE1"/>
<stop offset="0.7637" stop-color="#E7E5DB"/>
<stop offset="0.835" stop-color="#D5D3CA"/>
<stop offset="0.9175" stop-color="#B8B7AF"/>
<stop offset="1" stop-color="#94938C"/>
</linearGradient>
</defs>
</svg>
