<svg width="19" height="50" viewBox="0 0 19 50" fill="none" xmlns="http://www.w3.org/2000/svg">
<path d="M6.50397 33.9724C6.42095 34.0132 6.34202 34.0595 6.26762 34.1117C4.82997 35.1156 3.61825 36.7434 2.70412 38.2155C1.31501 40.4521 0.323295 43.0103 0.590501 45.6796C0.772873 47.5043 0.459845 45.9232 1.37125 47.5619C1.90385 48.5191 10.9312 45.0654 11.7147 44.5677C12.9441 43.7865 18.3749 50.3283 18.3835 48.696C18.3922 47.0374 18.5605 43.7076 18.2443 42.0744C17.6813 39.1641 15.7587 36.7565 14.7479 34.0096C14.6898 33.8513 14.6318 33.6893 14.5252 33.5587C14.3428 33.335 14.0443 33.2384 13.7567 33.2152C13.2177 33.1717 12.6747 33.2552 12.1407 33.3123C11.1281 33.4212 10.1396 33.5342 9.12161 33.604C8.31364 33.6598 7.25569 33.6009 6.50397 33.9724Z" fill="url(#paint0_linear_82_7461)"/>
<path d="M4.36313 35.8863C4.39943 35.9158 4.44296 35.939 4.49604 35.9535C4.7628 36.0283 5.58484 35.6259 5.87564 35.5497C6.83967 35.2975 7.81459 35.0865 8.79541 34.9109C9.83475 34.7249 10.8845 34.5485 11.9429 34.5398C12.5032 34.5353 13.0667 34.5743 13.6151 34.6932C14.1024 34.7989 14.6273 35.1328 15.0886 35.1745C15.4248 33.8639 15.0836 32.3396 15.0056 31.0085C14.919 29.5286 14.7829 28.0519 14.5982 26.5811C14.2516 23.821 13.563 21.1639 13.0603 18.4387C12.5713 15.7879 12.4352 12.9856 12.4937 10.2863C12.5213 9.01693 12.598 7.7453 12.7437 6.4841C12.8675 5.40754 13.1778 4.44395 13.0676 3.32838C12.9555 2.19421 12.4234 0.476627 10.9258 0.941183C9.79846 1.29096 9.09665 2.53083 8.52775 3.47355C7.44395 5.26872 6.65504 7.22448 5.92827 9.19113C5.20241 11.1551 4.53325 13.153 4.15444 15.2163C3.82372 17.016 3.8641 18.7776 3.8954 20.5945C3.9444 23.479 4.01335 26.3629 4.08458 29.2469C4.1304 31.1074 4.02424 33.0491 4.17077 34.9364C4.19708 35.2893 4.14537 35.7085 4.36313 35.8863Z" fill="url(#paint1_linear_82_7461)"/>
<path d="M11.2142 40.506C11.2142 40.506 7.63611 40.0491 4.32072 42.3365L3.0872 43.3391C2.80094 43.6113 0.601562 45.6563 0.601562 45.6563L0.692296 47.6978L2.31234 47.6393L4.63738 47.2482L6.25469 46.9475L7.90468 45.9939L9.99518 47.0976L10.6017 48.7217L12.7249 49.1128L14.9488 47.9999L15.8924 48.8719L18.3395 48.9222C18.3404 48.9231 14.858 40.8385 11.2142 40.506Z" fill="black"/>
<defs>
<linearGradient id="paint0_linear_82_7461" x1="24.401" y1="41.3447" x2="-5.55185" y2="40.4221" gradientUnits="userSpaceOnUse">
<stop stop-color="#94938C"/>
<stop offset="0.2666" stop-color="#EDEBE1"/>
<stop offset="0.7117" stop-color="#EDEBE1"/>
<stop offset="1" stop-color="#94938C"/>
</linearGradient>
<linearGradient id="paint1_linear_82_7461" x1="17.9977" y1="19.4616" x2="3.63834" y2="17.9537" gradientUnits="userSpaceOnUse">
<stop stop-color="#BFAB8D"/>
<stop offset="0.5078" stop-color="#E7E1D2"/>
<stop offset="1" stop-color="#CCBFA6"/>
</linearGradient>
</defs>
</svg>
