<svg width="26" height="46" viewBox="0 0 26 46" fill="none" xmlns="http://www.w3.org/2000/svg">
<path d="M14.6969 2.24353C14.6969 2.24353 15.6029 0.189327 17.4371 0.703786C19.2713 1.21825 19.9051 6.01215 19.573 9.54622C19.2414 13.0803 17.6694 24.2932 14.9668 24.5241C12.2643 24.755 7.32195 18.4041 9.57037 14.8659C11.8188 11.3282 15.5394 5.11752 14.6969 2.24353Z" fill="url(#paint0_linear_82_7471)"/>
<path d="M2.87734 32.6941C6.0762 32.4636 9.70603 30.8998 12.9108 30.7733C14.921 30.6939 16.9322 30.5609 18.9447 30.6254C19.8752 30.6548 21.2593 33.1355 22.1612 33.0207C22.7464 32.9463 22.3604 30.5428 22.3363 29.9208C22.3159 29.3914 22.271 28.8642 22.3486 28.3366C22.6271 26.4349 23.6733 24.6293 24.1084 22.7275C24.612 20.5277 24.9522 18.2852 25.1613 16.0386C25.3832 13.6555 25.4767 11.2212 25.165 8.84123C25.0307 7.81503 24.8474 6.77297 24.44 5.81528C24.1229 5.0699 23.3539 3.60683 22.3713 3.71889C22.0106 3.76017 21.6876 3.96523 21.4181 4.20885C20.8891 4.68656 20.5208 5.3226 20.2771 5.99267C19.7749 7.37499 19.7858 8.86346 19.6891 10.3116C19.5893 11.8046 19.1824 13.1873 18.8476 14.6364C18.226 17.3289 17.492 20.4977 15.7281 22.7048C15.2989 23.2419 14.6538 23.6766 13.9692 23.6117C13.6181 23.5781 13.2901 23.4166 13.0033 23.2111C11.9703 22.4703 11.445 21.1918 11.2658 19.9334C10.8988 17.3547 11.175 14.5102 11.8642 12.0105C12.2684 10.5434 13.0152 9.22957 13.4715 7.79508C13.9538 6.27848 14.608 3.26977 12.4698 2.69225C11.6069 2.45906 10.6882 2.90003 10.0431 3.51883C7.65134 5.81211 6.03582 9.2214 4.65256 12.1775C3.80419 13.9899 2.9853 15.8635 2.46312 17.8007C2.14918 18.9652 2.18276 20.1257 2.21588 21.3284C2.30843 24.6905 2.50351 29.361 2.87734 32.6941Z" fill="url(#paint1_linear_82_7471)"/>
<path d="M21.8319 30.7344C22.1508 30.8315 22.6081 31.698 22.7846 31.947C23.4855 32.936 24.0921 34.0003 24.5467 35.1254C25.5266 37.5525 25.6082 40.167 24.4251 42.3877C24.1297 42.9416 24.4151 43.378 23.9564 43.8739C23.9292 43.9029 23.8761 45.1773 23.7749 45.3256C23.4914 45.7421 10.0288 37.3211 9.12143 37.0235C8.59336 36.8502 8.2826 38.9385 7.76043 38.7475C6.78277 38.39 3.90423 41.5602 0.547079 44.7358C0.547079 42.7746 -1.04712 37.925 2.8753 32.0419C6.79546 26.161 21.8192 30.7308 21.8319 30.7344Z" fill="url(#paint2_linear_82_7471)"/>
<path d="M14.0446 32.7945C14.0446 32.7945 9.30147 32.1049 4.90627 35.5565L3.27122 37.069C2.8915 37.48 0.322338 40.6526 0.322338 40.6526C0.322338 40.6526 0.159469 41.3785 0.27697 42.7848C0.394472 44.1912 0.549175 44.8264 0.549175 44.8264L2.24454 43.5561L5.32683 42.9663L7.47088 42.5126L9.65851 41.074L12.4295 42.7395L13.2335 45.1893L16.048 45.7791L18.9965 44.1005L20.2473 45.4162L23.7319 45.4093C23.7315 45.4093 18.8749 33.2958 14.0446 32.7945Z" fill="black"/>
<defs>
<linearGradient id="paint0_linear_82_7471" x1="11.1802" y1="23.5091" x2="29.742" y2="-21.8566" gradientUnits="userSpaceOnUse">
<stop offset="0.1599" stop-color="#BFAB8D"/>
<stop offset="0.5078" stop-color="#E7E1D2"/>
<stop offset="0.7297" stop-color="#CCBFA6"/>
</linearGradient>
<linearGradient id="paint1_linear_82_7471" x1="24.0649" y1="17.5086" x2="3.15409" y2="18.4541" gradientUnits="userSpaceOnUse">
<stop offset="0.1599" stop-color="#BFAB8D"/>
<stop offset="0.5078" stop-color="#E7E1D2"/>
<stop offset="0.7297" stop-color="#CCBFA6"/>
</linearGradient>
<linearGradient id="paint2_linear_82_7471" x1="31.2787" y1="39.4885" x2="-3.62392" y2="35.8232" gradientUnits="userSpaceOnUse">
<stop stop-color="#94938C"/>
<stop offset="0.2296" stop-color="#EDEBE1"/>
<stop offset="0.7988" stop-color="#EDEBE1"/>
<stop offset="1" stop-color="#94938C"/>
</linearGradient>
</defs>
</svg>
