<svg width="24" height="39" viewBox="0 0 24 39" fill="none" xmlns="http://www.w3.org/2000/svg">
<path d="M13.7987 3.52701C14.3194 1.78764 16.1176 2.00676 16.7255 3.57464C17.9009 6.60561 17.2975 10.009 16.6933 13.0963C16.4134 14.5258 15.8736 19.8137 13.8563 19.9861C11.8549 20.1572 8.19497 15.4535 9.85979 12.8331C10.763 11.4118 11.7505 10.034 12.4927 8.51737C13.3001 6.86873 13.2888 5.23144 13.7987 3.52701Z" fill="url(#paint0_linear_82_7483)"/>
<path d="M3.34521 26.8265C3.41054 26.8632 3.61922 26.3969 3.80658 26.4173C4.0511 26.4436 4.35596 26.3583 4.60048 26.3334C5.44519 26.2481 6.29125 26.1741 7.13778 26.1101C9.48955 25.9328 11.8522 25.8248 14.2112 25.8724C15.8521 25.9055 17.518 25.9926 19.1271 26.3361C20.1211 26.5479 21.4289 26.8632 22.0368 27.7669C22.0368 27.7669 20.6672 22.2508 21.648 18.0018C22.6289 13.7527 23.9358 2.31356 21.321 1.98646C19.6774 1.78095 18.4384 5.60355 18.0097 6.66694C16.8729 9.48693 15.9828 12.5011 15.1766 15.4635C15.1539 15.5461 15.1308 15.6309 15.0804 15.7003C14.639 16.311 13.107 16.5532 12.515 16.1449C12.0196 15.8029 11.8971 15.1355 11.8164 14.5385C11.673 13.4792 11.5297 12.4199 11.3863 11.3606C11.0456 8.84363 10.7026 6.31035 10.7634 3.76392C10.7802 3.06482 11.5769 -0.495543 9.88153 0.352358C7.03346 1.77642 5.40933 5.71514 4.6186 8.54193C3.54978 12.3613 3.51032 16.4484 3.36289 20.3872C3.29529 22.1927 3.20503 24.0233 3.32253 25.8289C3.34566 26.1818 3.25176 26.7739 3.34521 26.8265Z" fill="url(#paint1_linear_82_7483)"/>
<path d="M4.44053 25.6754C5.31745 25.0679 6.49197 24.9953 7.51043 24.7916C9.04424 24.4845 10.5917 24.2286 12.155 24.1343C15.6005 23.9256 19.3899 24.5575 21.7054 27.3607C22.5215 28.3484 23.0954 29.5311 23.383 30.7786C23.7064 32.1832 23.4456 33.0905 22.9983 34.417C22.5882 35.6333 22.0529 36.9503 21.3914 38.0518C20.6742 39.2458 16.1998 30.5582 14.7572 30.5373C13.1943 30.5146 14.9386 35.896 13.8952 34.711C13.8403 34.6488 13.5187 32.8818 13.4415 32.851C13.3495 32.8138 14.0826 32.6926 13.9859 32.7149C11.8851 33.1962 8.75572 31.514 6.81816 32.4427C5.89179 32.8864 2.69441 34.1217 1.82793 33.1232C1.54485 32.797 1.25678 38.1185 1.05627 37.7651C-0.556937 34.9197 0.400292 31.3004 2.06703 28.5911C2.6586 27.6298 3.39123 26.5156 4.27768 25.7979C4.33075 25.7548 4.38519 25.7139 4.44053 25.6754Z" fill="url(#paint2_linear_82_7483)"/>
<path d="M12.7481 25.5366C12.7481 25.5366 8.4556 24.8475 4.4784 28.2985L2.99858 29.811C2.65471 30.222 0.329719 33.3945 0.329719 33.3945C0.329719 33.3945 0.182274 34.1204 0.28843 35.5268C0.394585 36.9331 1.10005 37.8858 1.10005 37.8858L2.06858 36.298L4.85812 35.7082L6.79887 35.2546L8.7786 33.816L11.2864 35.4814L12.0141 37.9312L14.5609 38.5209L17.2293 36.8424L18.3611 38.158L21.5145 38.1512C21.515 38.1512 17.1195 26.0379 12.7481 25.5366Z" fill="black"/>
<defs>
<linearGradient id="paint0_linear_82_7483" x1="11.1227" y1="19.2685" x2="24.8111" y2="-14.1831" gradientUnits="userSpaceOnUse">
<stop offset="0.1599" stop-color="#BFAB8D"/>
<stop offset="0.5078" stop-color="#E7E1D2"/>
<stop offset="0.7297" stop-color="#CCBFA6"/>
</linearGradient>
<linearGradient id="paint1_linear_82_7483" x1="22.1851" y1="16.2749" x2="4.4964" y2="12.9195" gradientUnits="userSpaceOnUse">
<stop offset="0.1599" stop-color="#BFAB8D"/>
<stop offset="0.5078" stop-color="#E7E1D2"/>
<stop offset="0.7297" stop-color="#CCBFA6"/>
</linearGradient>
<linearGradient id="paint2_linear_82_7483" x1="-5.02538" y1="31.0745" x2="28.2592" y2="31.159" gradientUnits="userSpaceOnUse">
<stop stop-color="#94938C"/>
<stop offset="0.2296" stop-color="#EDEBE1"/>
<stop offset="0.7988" stop-color="#EDEBE1"/>
<stop offset="1" stop-color="#94938C"/>
</linearGradient>
</defs>
</svg>
