<svg width="24" height="39" viewBox="0 0 24 39" fill="none" xmlns="http://www.w3.org/2000/svg">
<path d="M19.0081 2.01373C19.5416 0.278013 17.9248 -0.538579 16.5479 0.42727C13.8863 2.29409 12.4972 5.45886 11.2846 8.36139C10.723 9.7056 8.23379 14.4015 9.81523 15.6658C11.3844 16.9202 17.041 15.0429 17.1122 11.9394C17.1508 10.2554 17.0955 8.56146 17.321 6.8879C17.5664 5.06916 18.485 3.71406 19.0081 2.01373Z" fill="url(#paint0_linear_82_7495)"/>
<path d="M3.21551 25.938C2.25328 19.6302 2.26869 12.0194 5.07235 6.1816C5.72381 4.82468 6.61074 3.58344 7.66733 2.51187C8.08198 2.09132 10.5518 -0.433797 11.0712 0.187729C11.6006 0.821504 11.122 2.23787 11.0281 2.94241C10.8711 4.1215 10.7223 5.30148 10.5994 6.48465C10.3503 8.88501 9.73013 11.4859 10.3789 13.8745C10.5218 14.4003 10.8521 14.9202 11.3702 15.0885C11.6437 15.1774 11.9418 15.1593 12.2226 15.0985C14.0001 14.7133 15.2862 12.9213 16.3791 11.6066C17.942 9.72703 18.8389 7.61565 19.6196 5.31782C19.9989 4.20179 20.4326 3.11753 21.3857 2.37397C21.6153 2.19477 22.0785 1.77921 22.4324 1.86404C23.5974 2.1426 23.195 5.28561 23.1528 6.00014C22.8257 11.5567 20.5379 19.074 20.5379 19.074C20.5379 19.074 19.5575 25.2838 20.5379 27.245C21.5182 29.2062 4.52297 29.2066 3.21551 25.938Z" fill="url(#paint1_linear_82_7495)"/>
<path d="M2.23629 26.9181C2.23629 26.9177 4.85119 23.9766 10.7342 23.9766C16.6173 23.9766 20.8663 25.9378 21.8466 28.5522C22.5929 30.5416 22.9758 35.3473 21.525 38.0275C17.4874 33.8084 17.4398 32.9514 16.5801 33.264C15.4427 33.6778 16.4712 33.1352 15.4459 32.4021C14.569 31.7751 14.6774 32.8825 13.3591 33.3094C12.7843 33.4954 12.5761 29.6401 12.0888 29.9976C9.94666 31.5691 6.22666 34.4839 3.78688 32.6289C2.97347 32.0101 2.2898 35.5777 1.70005 37.7553C0.060976 34.3741 0.040122 29.3888 2.23629 26.9181Z" fill="url(#paint2_linear_82_7495)"/>
<path d="M13.0158 25.4077C13.0158 25.4077 8.84887 24.7186 4.98771 28.1696L3.55094 29.6822C3.2175 30.0932 0.960035 33.2658 0.960035 33.2658C0.960035 33.2658 0.817135 33.9916 0.920117 35.398C1.0231 36.8044 1.70814 37.7571 1.70814 37.7571L2.64862 36.1693L5.35653 35.5795L7.24018 35.1258L9.16189 33.6872L11.5963 35.3527L12.3026 37.8025L14.7751 38.3923L17.3651 36.7137L18.4639 38.0293L21.5248 38.0225C21.5262 38.0225 17.2594 25.909 13.0158 25.4077Z" fill="black"/>
<defs>
<linearGradient id="paint0_linear_82_7495" x1="12.472" y1="16.5619" x2="19.6827" y2="-18.8574" gradientUnits="userSpaceOnUse">
<stop offset="0.1599" stop-color="#BFAB8D"/>
<stop offset="0.5078" stop-color="#E7E1D2"/>
<stop offset="0.7297" stop-color="#CCBFA6"/>
</linearGradient>
<linearGradient id="paint1_linear_82_7495" x1="-2.30349" y1="14.2833" x2="22.634" y2="14.3733" gradientUnits="userSpaceOnUse">
<stop offset="0.1599" stop-color="#BFAB8D"/>
<stop offset="0.5078" stop-color="#E7E1D2"/>
<stop offset="0.7297" stop-color="#CCBFA6"/>
</linearGradient>
<linearGradient id="paint2_linear_82_7495" x1="-4.69811" y1="30.9271" x2="27.9658" y2="31.045" gradientUnits="userSpaceOnUse">
<stop stop-color="#94938C"/>
<stop offset="0.2296" stop-color="#EDEBE1"/>
<stop offset="0.7988" stop-color="#EDEBE1"/>
<stop offset="1" stop-color="#94938C"/>
</linearGradient>
</defs>
</svg>
