<svg width="25" height="35" viewBox="0 0 25 35" fill="none" xmlns="http://www.w3.org/2000/svg">
<path d="M9.37405 31.9187C9.07917 33.7719 10.265 34.2628 11.195 33.0111C12.9929 30.5917 13.8258 27.1275 14.5462 23.9632C14.8797 22.4979 16.4194 17.2702 15.2372 16.3221C14.064 15.3816 10.1425 18.4226 10.2414 21.5565C10.295 23.2564 10.4157 24.9477 10.3363 26.6757C10.2501 28.5534 9.66349 30.1031 9.37405 31.9187Z" fill="url(#paint0_linear_82_7595)"/>
<path d="M21.8455 8.6091C21.8455 8.6091 20.538 12.2044 20.538 16.1264C20.538 20.0483 20.8646 24.9511 18.5768 28.5464C16.2889 32.1418 15.6352 33.7759 15.6352 33.7759C15.6352 33.7759 13.674 36.0637 12.6936 33.4492C12.6936 33.4492 14.9815 25.6049 13.674 21.6829C12.3665 17.7609 11.0591 19.068 10.7324 19.7217C10.4058 20.3754 5.82964 27.8927 5.17591 29.8539C4.52217 31.8151 3.5418 33.7759 2.88806 33.7759C2.23433 33.7759 1.25395 32.1418 0.600213 29.2002C-0.0535221 26.2586 0.600216 22.9904 1.90769 20.7021C3.21516 18.4138 4.52262 8.28201 4.52262 6.6479C4.52262 5.01379 20.2114 7.95537 21.8455 8.6091Z" fill="url(#paint1_linear_82_7595)"/>
<path d="M24.7168 0.273438C24.9487 0.961186 24.9128 1.43753 24.8262 2.15567C24.6438 3.66636 24.0445 5.15391 23.4298 6.53394C23.0569 7.37094 22.7461 8.3259 22.0742 8.98098C21.2903 9.74494 19.9724 9.85247 18.9394 9.99719C16.7173 10.3079 14.4862 10.0294 12.3167 9.51449C10.16 9.0023 7.93112 8.43432 5.83382 7.72026C5.45682 7.59187 5.08027 7.44353 4.76452 7.20127C3.87941 6.52124 3.69749 4.97562 3.48472 3.95579C3.23657 2.76584 3.24791 1.79365 3.57546 0.636365C3.67526 0.286594 12.8761 8.12175 24.7168 0.273438Z" fill="url(#paint2_linear_82_7595)"/>
<path d="M16.1065 9.24972C16.1065 9.24972 11.881 9.74014 7.96586 7.28576L6.50912 6.2101C6.17069 5.91793 3.44143 3.49485 3.44143 3.49485C3.29625 2.19326 3.34162 1.21196 3.59431 0.579994L5.59408 1.59667L8.34013 2.01632L10.2505 2.33889L12.199 3.36193L14.6679 2.17738L15.3842 0.435274L17.8912 0.015625L20.5175 1.20925L21.6321 0.273763H24.6735C24.6731 0.273763 20.4095 8.89313 16.1065 9.24972Z" fill="black"/>
<defs>
<linearGradient id="paint0_linear_82_7595" x1="13.292" y1="15.9545" x2="13.2678" y2="53.0238" gradientUnits="userSpaceOnUse">
<stop offset="0.1599" stop-color="#BFAB8D"/>
<stop offset="0.5078" stop-color="#E7E1D2"/>
<stop offset="0.7297" stop-color="#CCBFA6"/>
</linearGradient>
<linearGradient id="paint1_linear_82_7595" x1="19.9509" y1="20.3959" x2="3.19267" y2="20.4565" gradientUnits="userSpaceOnUse">
<stop stop-color="#BFAB8D"/>
<stop offset="0.5078" stop-color="#E7E1D2"/>
<stop offset="1" stop-color="#CCBFA6"/>
</linearGradient>
<linearGradient id="paint2_linear_82_7595" x1="31.2702" y1="5.16308" x2="-2.8602" y2="5.28638" gradientUnits="userSpaceOnUse">
<stop stop-color="#94938C"/>
<stop offset="0.2614" stop-color="#EDEBE1"/>
<stop offset="0.7687" stop-color="#EDEBE1"/>
<stop offset="1" stop-color="#94938C"/>
</linearGradient>
</defs>
</svg>
