<svg width="30" height="49" viewBox="0 0 30 49" fill="none" xmlns="http://www.w3.org/2000/svg">
<path d="M9.42529 44.5618C8.74978 46.7258 10.3449 47.6086 11.8266 46.3265C14.6911 43.8477 16.3488 39.8714 17.8069 36.2289C18.4819 34.5422 21.3805 28.611 19.8552 27.1774C18.3418 25.7552 12.4091 28.4635 12.1051 32.2698C11.94 34.3344 11.871 36.4049 11.5158 38.4705C11.1293 40.7152 10.0877 42.4414 9.42529 44.5618Z" fill="url(#paint0_linear_82_7563)"/>
<path d="M26.2038 19.286C26.016 20.0605 25.8495 20.8485 25.8127 21.0009C25.4974 22.3088 25.2239 23.6272 25.0043 24.9546C24.8251 26.0393 24.6818 27.1304 24.5751 28.2246C24.4717 29.2853 24.562 30.4531 24.3601 31.4929C24.161 32.5177 23.7957 33.5929 23.4505 34.5828C22.4139 37.5557 20.8437 40.3221 18.9792 42.8509C18.0437 44.1193 17.0321 45.3311 15.9641 46.4902C15.3081 47.2025 13.9136 49.3111 12.7545 48.4351C12.3194 48.1062 12.1447 47.5196 12.1729 46.9747C12.201 46.4299 12.4006 45.9109 12.5898 45.3991C14.047 41.4509 15.4324 36.5622 14.6131 32.3263C14.5278 31.8848 14.3944 31.4289 14.0778 31.11C13.6627 30.6921 12.9981 30.5982 12.4301 30.7547C11.8621 30.9113 11.3776 31.2828 10.9548 31.6929C9.5035 33.1016 8.47232 35.0818 7.5854 36.8829C6.91398 38.2466 6.42085 39.6997 6.13731 41.1936C5.86602 42.6236 6.09648 44.323 5.52214 45.665C5.20049 46.4172 4.48325 47.0618 3.66529 47.0382C3.0288 47.0201 2.46534 46.6104 2.0457 46.1314C0.499609 44.3661 0.203372 41.5534 0.113093 39.3027C-0.000323182 36.4664 0.403431 33.6401 0.843032 30.8459C1.44142 27.0419 2.21038 23.2638 3.06917 19.5106C3.10229 19.365 3.56957 16.9973 3.66393 17C3.66393 17 26.5386 17.6347 26.7486 17.6406C26.6316 17.6383 26.4057 18.4545 26.2038 19.286Z" fill="url(#paint1_linear_82_7563)"/>
<path d="M23.6859 5.44116C24.639 5.53643 27.542 1.67571 28.5401 1.08594C29.5368 2.12529 29.2197 5.52327 28.8577 6.89289C28.4956 8.26252 28.2316 11.9889 27.4626 14.9705C27.2186 15.9168 27.1941 17.9057 26.5444 18.6361C24.5229 20.9085 20.081 19.8029 17.393 19.6165C14.3144 19.4028 10.9999 19.3007 8.24161 18.6361C6.4156 18.5445 3.06254 18.9487 2.50815 16.5338C1.87302 13.766 1.4815 10.9355 1.3513 8.09875C1.25331 5.97921 1.09361 3.21818 1.54728 1.76644C1.99323 1.70656 3.86734 6.0654 4.31465 6.16703C5.24694 6.37843 6.47412 6.82122 7.3996 6.57533C8.53786 6.27318 10.0472 8.7915 10.3031 8.7983C10.886 8.81418 13.6475 8.81101 14.1139 9.16124C16.0769 10.6366 17.9351 5.46339 20.1023 4.89675C21.0119 4.65858 22.8171 5.3545 23.6859 5.44116Z" fill="url(#paint2_linear_82_7563)"/>
<path d="M17.301 13.7073C17.301 13.7073 11.8 14.3969 6.70309 10.9453L4.8068 9.43275C4.3663 9.02172 1.27143 5.75844 1.27143 5.75844C1.27143 5.75844 1.13533 4.98719 1.27143 3.5808C1.40752 2.17441 1.54362 1.72074 1.54362 1.72074L3.61595 2.94566L7.19078 3.53544L9.67774 3.98911L12.2146 5.42771L15.4288 3.76227L16.3615 1.31243L19.6256 0.722656L23.0448 2.40125L24.4956 1.0856L28.5368 1.0924C28.5355 1.0924 22.9028 13.206 17.301 13.7073Z" fill="black"/>
<defs>
<linearGradient id="paint0_linear_82_7563" x1="17.1819" y1="26.275" x2="9.42052" y2="70.5668" gradientUnits="userSpaceOnUse">
<stop offset="0.1599" stop-color="#BFAB8D"/>
<stop offset="0.5078" stop-color="#E7E1D2"/>
<stop offset="0.7297" stop-color="#CCBFA6"/>
</linearGradient>
<linearGradient id="paint1_linear_82_7563" x1="24.1619" y1="32.7664" x2="1.63499" y2="32.8478" gradientUnits="userSpaceOnUse">
<stop stop-color="#BFAB8D"/>
<stop offset="0.5078" stop-color="#E7E1D2"/>
<stop offset="1" stop-color="#CCBFA6"/>
</linearGradient>
<linearGradient id="paint2_linear_82_7563" x1="35.0756" y1="10.5328" x2="-4.77119" y2="10.6768" gradientUnits="userSpaceOnUse">
<stop stop-color="#94938C"/>
<stop offset="0.2296" stop-color="#EDEBE1"/>
<stop offset="0.7988" stop-color="#EDEBE1"/>
<stop offset="1" stop-color="#94938C"/>
</linearGradient>
</defs>
</svg>
