<svg width="25" height="39" viewBox="0 0 25 39" fill="none" xmlns="http://www.w3.org/2000/svg">
<path d="M10.7078 3.56997C10.187 1.83061 8.38871 2.04973 7.78081 3.61761C6.60539 6.64857 7.20876 10.052 7.81303 13.1392C8.09293 14.5687 8.63277 19.8567 10.6502 20.0291C12.6517 20.2001 16.3118 15.4965 14.6469 12.8761C13.7437 11.4547 12.7561 10.0769 12.0139 8.56033C11.2068 6.9117 11.2177 5.27441 10.7078 3.56997Z" fill="url(#paint0_linear_82_7489)"/>
<path d="M21.1682 26.8697C21.1029 26.9064 20.8942 26.4401 20.7068 26.4605C20.4623 26.4868 20.1574 26.4015 19.9129 26.3765C19.0682 26.2913 18.2221 26.2173 17.3756 26.1533C15.0237 25.9759 12.661 25.868 10.3019 25.9156C8.66102 25.9487 6.99516 26.0358 5.38599 26.3793C4.39201 26.5911 3.08407 26.9064 2.47616 27.8101C2.47616 27.8101 3.84579 22.294 2.86495 18.0449C1.88412 13.7958 0.5771 2.35654 3.19205 2.02945C4.83569 1.82393 6.07466 5.64656 6.50338 6.70997C7.64027 9.52998 8.53037 12.5442 9.33653 15.5066C9.35922 15.5892 9.38236 15.674 9.43272 15.7434C9.87414 16.3541 11.4066 16.5963 11.9982 16.188C12.4936 15.846 12.6161 15.1786 12.6969 14.5816C12.8402 13.5223 12.9836 12.4629 13.1269 11.4036C13.4676 8.88667 13.8106 6.35337 13.7498 3.80692C13.733 3.10782 12.9364 -0.452581 14.6318 0.395328C17.4799 1.8194 19.104 5.75816 19.8948 8.58497C20.9636 12.4044 21.0031 16.4915 21.1505 20.4303C21.2181 22.2359 21.3084 24.0665 21.1909 25.8721C21.1678 26.225 21.2617 26.8171 21.1682 26.8697Z" fill="url(#paint1_linear_82_7489)"/>
<path d="M20.0709 25.7183C19.194 25.1109 18.0195 25.0383 17.001 24.8346C15.4671 24.5275 13.9197 24.2716 12.3568 24.1772C8.91122 23.9686 5.12175 24.6005 2.80624 27.4037C1.9901 28.3913 1.41621 29.574 1.12859 30.8216C0.805126 32.2261 1.06598 33.1335 1.5133 34.46C1.92341 35.6763 2.45873 36.9932 3.12018 38.0947C3.83742 39.2888 8.31193 30.6011 9.75458 30.5803C11.3175 30.5576 9.57312 35.9389 10.6165 34.754C10.6714 34.6918 10.9931 32.9248 11.0702 32.8939C11.1623 32.8567 10.4292 32.7356 10.5258 32.7578C12.6267 33.2392 15.7561 31.557 17.6937 32.4856C18.6201 32.9293 21.8176 34.1647 22.6841 33.1661C22.9671 32.84 23.2552 38.1614 23.4557 37.808C25.069 34.9626 24.1117 31.3433 22.445 28.634C21.8534 27.6727 21.1207 26.5585 20.2343 25.8408C20.1812 25.7977 20.1267 25.7569 20.0709 25.7183Z" fill="url(#paint2_linear_82_7489)"/>
<path d="M11.7584 25.5796C11.7584 25.5796 16.0509 24.8904 20.0287 28.3415L21.5085 29.854C21.8524 30.265 24.1775 33.4375 24.1775 33.4375C24.1775 33.4375 24.3249 34.1634 24.2187 35.5697C24.1126 36.9761 23.4071 37.9288 23.4071 37.9288L22.4386 36.3409L19.649 35.7512L17.7082 35.2975L15.7284 33.8589L13.2205 35.5243L12.4929 37.9741L9.94597 38.5639L7.27751 36.8853L6.14562 38.201L2.99219 38.1942C2.99128 38.1942 7.38684 26.0809 11.7584 25.5796Z" fill="black"/>
<defs>
<linearGradient id="paint0_linear_82_7489" x1="13.3754" y1="19.2973" x2="-0.312449" y2="-14.1547" gradientUnits="userSpaceOnUse">
<stop offset="0.1599" stop-color="#BFAB8D"/>
<stop offset="0.5078" stop-color="#E7E1D2"/>
<stop offset="0.7297" stop-color="#CCBFA6"/>
</linearGradient>
<linearGradient id="paint1_linear_82_7489" x1="2.32806" y1="16.318" x2="20.0171" y2="12.9625" gradientUnits="userSpaceOnUse">
<stop offset="0.1599" stop-color="#BFAB8D"/>
<stop offset="0.5078" stop-color="#E7E1D2"/>
<stop offset="0.7297" stop-color="#CCBFA6"/>
</linearGradient>
<linearGradient id="paint2_linear_82_7489" x1="29.5379" y1="31.1164" x2="-3.74725" y2="31.2009" gradientUnits="userSpaceOnUse">
<stop stop-color="#94938C"/>
<stop offset="0.2296" stop-color="#EDEBE1"/>
<stop offset="0.7988" stop-color="#EDEBE1"/>
<stop offset="1" stop-color="#94938C"/>
</linearGradient>
</defs>
</svg>
