<svg width="19" height="42" viewBox="0 0 19 42" fill="none" xmlns="http://www.w3.org/2000/svg">
<path d="M16.1371 11.731C15.3341 16.9872 13.9183 22.2393 12.0751 27.2192C10.049 32.6922 7.51765 38.1657 2.5964 41.5954C2.47709 41.6785 2.34915 41.7646 2.20398 41.7719C2.05609 41.7792 1.91682 41.7025 1.79841 41.6136C1.12065 41.1068 0.871148 40.1814 0.941011 39.338C1.01087 38.4942 1.34748 37.6998 1.64145 36.9059C3.43521 32.0635 3.87298 26.7342 4.38425 21.6327C4.70816 18.4031 5.4762 14.4444 4.71497 11.2247C3.89703 7.76915 15.6304 11.1168 16.1371 11.731Z" fill="url(#paint0_linear_82_7552)"/>
<path d="M18.8645 0.304688C18.2108 6.18796 16.3176 11.6915 16.3176 11.6915C16.3176 11.6915 15.6639 12.6719 11.0882 12.6719C6.51251 12.6719 5.20504 12.0182 4.55131 10.7107C3.89757 9.40317 2.80469 0.667174 2.80469 0.667174C2.80469 0.667174 7.15898 6.43114 10.7892 5.79373C15.4566 4.97484 13.239 4.0702 18.8645 0.304688Z" fill="url(#paint1_linear_82_7552)"/>
<path d="M12.2996 9.17077C12.2996 9.17077 9.1394 9.65393 6.21143 7.23587L5.12218 6.1761C4.86903 5.88847 3.24762 3.79705 3.24762 3.79705L2.78125 0.645848L4.43804 1.63122L6.49179 2.04451L7.92039 2.36254L9.37757 3.37059L11.224 2.20376L11.7598 0.487518L13.6348 0.0742188L15.5992 1.25014L16.4325 0.328279L18.8624 0.282912C18.8624 0.282912 15.518 8.81963 12.2996 9.17077Z" fill="black"/>
<defs>
<linearGradient id="paint0_linear_82_7552" x1="12.9087" y1="25.6982" x2="2.54255" y2="25.7356" gradientUnits="userSpaceOnUse">
<stop stop-color="#BFAB8D"/>
<stop offset="0.5078" stop-color="#E7E1D2"/>
<stop offset="1" stop-color="#CCBFA6"/>
</linearGradient>
<linearGradient id="paint1_linear_82_7552" x1="22.2902" y1="6.4621" x2="-0.414602" y2="6.54413" gradientUnits="userSpaceOnUse">
<stop stop-color="#94938C"/>
<stop offset="0.2296" stop-color="#EDEBE1"/>
<stop offset="0.7988" stop-color="#EDEBE1"/>
<stop offset="1" stop-color="#94938C"/>
</linearGradient>
</defs>
</svg>
