<svg width="18" height="41" viewBox="0 0 18 41" fill="none" xmlns="http://www.w3.org/2000/svg">
<path d="M15.5516 9.74709C15.5516 9.74709 9.34194 35.241 4.11218 39.4896C-1.11712 43.7387 1.4973 35.2406 1.4973 35.2406C1.4973 35.2406 3.45846 19.5522 3.45846 16.6107C3.45846 13.6691 2.41868 8.16016 2.41868 8.16016C2.41868 8.16016 12.4908 10.3291 15.5516 9.74709Z" fill="url(#paint0_linear_82_7542)"/>
<path d="M17.5559 0.628906C17.3699 2.723 17.5128 3.8644 17.5128 3.8644C17.5128 3.8644 16.859 11.7087 11.3029 12.0353C5.7463 12.3619 2.15139 9.09374 1.82429 7.13257C1.61197 5.85779 1.53756 3.0646 1.42188 0.99591C5.72134 6.64216 9.53219 6.05241 17.5559 0.628906Z" fill="url(#paint1_linear_82_7542)"/>
<path d="M10.9737 9.52279C10.9737 9.52279 7.79988 10.006 4.85921 7.58789L3.76496 6.52812C3.5109 6.24049 1.88224 4.14907 1.88224 4.14907L1.41406 0.997876L3.0781 1.98324L5.14047 2.39655L6.57543 2.71456L8.03895 3.72216L9.89309 2.55533L10.4311 0.839091L12.3143 0.425781L14.2873 1.60171L15.1243 0.679841L17.5646 0.634474C17.5642 0.634928 14.2056 9.17165 10.9737 9.52279Z" fill="black"/>
<defs>
<linearGradient id="paint0_linear_82_7542" x1="2.29284" y1="24.4205" x2="13.849" y2="24.4623" gradientUnits="userSpaceOnUse">
<stop stop-color="#BFAB8D"/>
<stop offset="0.5078" stop-color="#E7E1D2"/>
<stop offset="1" stop-color="#CCBFA6"/>
</linearGradient>
<linearGradient id="paint1_linear_82_7542" x1="-1.59304" y1="6.28721" x2="20.594" y2="6.36736" gradientUnits="userSpaceOnUse">
<stop stop-color="#94938C"/>
<stop offset="0.2296" stop-color="#EDEBE1"/>
<stop offset="0.4283" stop-color="#EDEBE1"/>
<stop offset="0.7988" stop-color="#EDEBE1"/>
<stop offset="1" stop-color="#94938C"/>
</linearGradient>
</defs>
</svg>
