<svg width="18" height="56" viewBox="0 0 18 56" fill="none" xmlns="http://www.w3.org/2000/svg">
<path d="M15.7673 16.309C13.8623 16.299 11.9279 16.1235 10.0262 15.971C7.72295 15.7864 4.48877 15.8993 2.38559 14.7987C2.19324 14.698 2.12972 14.3555 1.9528 14.2344C1.5504 15.5836 1.89474 17.7458 1.97413 19.1272C2.20141 23.0764 2.37607 27.0328 2.33797 30.9893C2.31664 33.1732 2.19551 35.3418 1.99907 37.5162C1.72778 40.519 0.713864 43.4506 0.440759 46.4843C0.249314 48.6116 0.281508 50.7742 0.696608 52.8747C0.827263 53.5352 1.01736 55.2478 1.59033 55.4057C2.34613 55.6135 3.48619 54.4512 3.86591 53.939C5.12164 52.2459 5.44374 49.9531 6.08613 47.9914C6.80473 45.7957 7.64672 43.6425 8.50686 41.499C10.1841 37.3175 11.9479 33.1469 13.0281 28.7604C13.6591 26.1976 13.9399 23.5722 14.5324 20.9999C14.894 19.4239 15.3218 17.8637 15.7673 16.309Z" fill="url(#paint0_linear_82_7532)"/>
<path d="M0.639876 1.4083C0.479732 3.44027 0.257893 7.46973 0.428926 9.50397C0.55323 10.9775 0.7592 12.6606 1.62434 13.9091C2.83291 15.6534 5.04908 16.446 7.03069 16.9019C9.54583 17.4808 12.1889 17.6169 14.7612 17.5084C16.1598 17.449 16.5495 14.3323 16.6276 13.3433C16.9519 9.22904 17.2917 5.11112 17.652 1C10.8474 7.66888 2.45455 5.76349 0.639876 1.4083Z" fill="url(#paint1_linear_82_7532)"/>
<path d="M10.7206 9.89776C10.7206 9.89776 7.37396 10.3809 4.27315 7.96286L3.11947 6.90308C2.85135 6.61545 1.13421 4.52404 1.13421 4.52404L0.640625 1.37285L2.39542 2.35823L4.57029 2.77152L6.08328 3.08955L7.62665 4.09715L9.58196 2.9303L10.1495 1.21407L12.1352 0.800781L14.2157 1.97669L15.0981 1.05484L17.6713 1.00947C17.6699 1.01038 14.1286 9.54662 10.7206 9.89776Z" fill="black"/>
<defs>
<linearGradient id="paint0_linear_82_7532" x1="11.1393" y1="34.7949" x2="2.05763" y2="34.8315" gradientUnits="userSpaceOnUse">
<stop stop-color="#BFAB8D"/>
<stop offset="0.5078" stop-color="#E7E1D2"/>
<stop offset="1" stop-color="#CCBFA6"/>
</linearGradient>
<linearGradient id="paint1_linear_82_7532" x1="21.9739" y1="9.2451" x2="-3.51212" y2="9.34775" gradientUnits="userSpaceOnUse">
<stop stop-color="#94938C"/>
<stop offset="0.2296" stop-color="#EDEBE1"/>
<stop offset="0.7988" stop-color="#EDEBE1"/>
<stop offset="1" stop-color="#94938C"/>
</linearGradient>
</defs>
</svg>
