<svg width="15" height="52" viewBox="0 0 15 52" fill="none" xmlns="http://www.w3.org/2000/svg">
<path d="M13.5257 11.1094C13.5257 11.1094 5.35453 15.0313 3.06664 11.7631C3.15647 14.9746 3.21182 18.1879 3.25401 21.4003C3.33385 27.509 3.36607 33.6235 3.18777 39.7308C3.12517 41.8757 3.07526 44.0234 2.8702 46.1606C2.76585 47.2494 2.62204 48.335 2.41653 49.4093C2.32216 49.9038 2.03772 50.4863 2.26682 50.9377C2.57169 51.5379 3.35927 51.674 3.90958 51.4036C4.684 51.0225 5.19301 50.0853 5.57727 49.3617C6.50413 47.616 7.10209 45.6865 7.64287 43.7938C10.9107 32.3541 13.0221 14.6253 13.5257 11.1094Z" fill="url(#paint0_linear_82_7522)"/>
<path d="M0.234375 1.18193C0.630426 4.72238 1.35447 8.21929 2.76401 11.4685C3.47717 13.1121 4.47252 14.7708 6.03041 15.738C8.44437 17.2369 11.2077 16.3681 12.5836 13.9682C13.6851 12.0474 14.1089 9.83299 14.3398 7.66081C14.5144 6.01626 14.4051 4.35945 14.5217 2.71172C14.5657 2.08883 14.6601 1.47274 14.7753 0.859375C6.85473 4.53548 5.1308 6.39552 0.234375 1.18193Z" fill="url(#paint1_linear_82_7522)"/>
<path d="M8.88126 9.70238C8.88126 9.70238 6.01047 10.1855 3.35063 7.76747L2.36118 6.70772C2.13117 6.42009 0.658114 4.3287 0.658114 4.3287L0.234375 1.17754L1.73965 2.16288L3.60513 2.57619L4.90306 2.8942L6.22687 3.90179L7.90406 2.73497L8.39084 1.01875L10.0944 0.605469L11.8786 1.78137L12.6358 0.859504L14.8429 0.814137C14.8424 0.815045 11.8047 9.35124 8.88126 9.70238Z" fill="black"/>
<defs>
<linearGradient id="paint0_linear_82_7522" x1="0.886265" y1="31.2956" x2="10.1195" y2="31.329" gradientUnits="userSpaceOnUse">
<stop stop-color="#BFAB8D"/>
<stop offset="0.5078" stop-color="#E7E1D2"/>
<stop offset="1" stop-color="#CCBFA6"/>
</linearGradient>
<linearGradient id="paint1_linear_82_7522" x1="-2.19329" y1="8.61942" x2="17.6848" y2="8.69124" gradientUnits="userSpaceOnUse">
<stop stop-color="#94938C"/>
<stop offset="0.2296" stop-color="#EDEBE1"/>
<stop offset="0.7988" stop-color="#EDEBE1"/>
<stop offset="1" stop-color="#94938C"/>
</linearGradient>
</defs>
</svg>
