<svg width="15" height="51" viewBox="0 0 15 51" fill="none" xmlns="http://www.w3.org/2000/svg">
<path d="M1.55299 50.1871C2.1963 51.0635 4.09994 47.1616 4.28186 46.7868C5.42104 44.4409 6.12876 41.9471 7.00889 39.4991C7.9793 36.7994 8.96876 34.0828 9.76405 31.3245C10.8252 27.6444 11.4299 23.8114 12.1059 20.0464C12.2116 19.4567 13.1353 11.875 13.5182 11.8206C13.515 11.821 4.36623 13.1271 2.40545 9.85938C2.40499 17.3934 0.870212 24.8734 0.519975 32.402C0.377068 35.4706 0.140709 38.5383 0.185169 41.6123C0.220102 44.049 0.0331837 48.112 1.55299 50.1871Z" fill="url(#paint0_linear_82_7513)"/>
<path d="M4.07262 5.35321C4.07262 5.35321 1.04171 0.381853 1.07846 0.86184C1.47314 5.98609 1.94178 10.5464 2.40588 11.1648C3.38624 12.4723 5.67405 16.7214 10.5768 15.4139C15.479 14.1064 14.5472 2.79676 14.6883 0.725738C14.7958 -0.852594 11.4759 5.85044 7.88337 5.21711C4.47638 4.61644 4.07262 5.35321 4.07262 5.35321Z" fill="url(#paint1_linear_82_7513)"/>
<path d="M9.1366 9.29623C9.1366 9.29623 6.41824 9.77939 3.89994 7.36133L2.96266 6.30156C2.7449 6.01393 1.35032 3.92251 1.35032 3.92251L1.07812 0.771314L2.37426 1.75667L4.14084 2.16996L5.36981 2.488L6.62329 3.4956L8.21159 2.32875L8.6725 0.612529L10.2853 0.199219L11.9747 1.37513L12.6915 0.453279L14.6886 0.45782C14.6881 0.458727 11.9049 8.94509 9.1366 9.29623Z" fill="black"/>
<defs>
<linearGradient id="paint0_linear_82_7513" x1="12.4375" y1="30.0497" x2="-3.86802" y2="30.1087" gradientUnits="userSpaceOnUse">
<stop stop-color="#BFAB8D"/>
<stop offset="0.5078" stop-color="#E7E1D2"/>
<stop offset="1" stop-color="#CCBFA6"/>
</linearGradient>
<linearGradient id="paint1_linear_82_7513" x1="16.6989" y1="8.05456" x2="-0.78497" y2="8.11771" gradientUnits="userSpaceOnUse">
<stop stop-color="#94938C"/>
<stop offset="0.2296" stop-color="#EDEBE1"/>
<stop offset="0.7988" stop-color="#EDEBE1"/>
<stop offset="1" stop-color="#94938C"/>
</linearGradient>
</defs>
</svg>
