<svg width="16" height="51" viewBox="0 0 16 51" fill="none" xmlns="http://www.w3.org/2000/svg">
<path d="M13.8788 50.0503C13.2355 50.9268 11.332 47.0248 11.1501 46.6501C10.0109 44.3042 9.30324 41.8104 8.42314 39.3624C7.45277 36.6627 6.46334 33.9461 5.66808 31.1878C4.60697 27.5077 4.00224 23.6747 3.32629 19.9097C3.22059 19.3199 2.29695 11.7383 1.91406 11.6839C1.91724 11.6843 11.0657 12.9904 13.0264 9.72266C13.0269 17.2567 14.5616 24.7367 14.9118 32.2653C15.0547 35.3339 15.2911 38.4016 15.2466 41.4756C15.2117 43.9122 15.3986 47.9753 13.8788 50.0503Z" fill="url(#paint0_linear_82_7509)"/>
<path d="M11.3602 5.21649C11.3602 5.21649 14.3915 0.245134 14.3543 0.725121C13.9596 5.84937 13.491 10.4097 13.0269 11.0281C12.0465 12.3355 9.75878 16.5846 4.85617 15.2772C-0.0459905 13.9697 0.885815 2.66004 0.744729 0.589019C0.637214 -0.989313 3.95704 5.71372 7.5495 5.08039C10.9564 4.47973 11.3602 5.21649 11.3602 5.21649Z" fill="url(#paint1_linear_82_7509)"/>
<path d="M6.29418 9.15949C6.29418 9.15949 9.01254 9.64266 11.5308 7.2246L12.4681 6.16483C12.6859 5.8772 14.0805 3.78578 14.0805 3.78578L14.3527 0.634594L13.0565 1.61995L11.2899 2.03324L10.061 2.35127L8.80749 3.35887L7.21919 2.19202L6.75828 0.475809L5.14548 0.0625L3.45604 1.23841L2.73923 0.31656L0.742188 0.321101C0.742641 0.322008 3.5259 8.80835 6.29418 9.15949Z" fill="black"/>
<defs>
<linearGradient id="paint0_linear_82_7509" x1="2.99482" y1="29.913" x2="19.2997" y2="29.9719" gradientUnits="userSpaceOnUse">
<stop stop-color="#BFAB8D"/>
<stop offset="0.5078" stop-color="#E7E1D2"/>
<stop offset="1" stop-color="#CCBFA6"/>
</linearGradient>
<linearGradient id="paint1_linear_82_7509" x1="-1.26575" y1="7.91784" x2="16.2178" y2="7.98099" gradientUnits="userSpaceOnUse">
<stop stop-color="#94938C"/>
<stop offset="0.2296" stop-color="#EDEBE1"/>
<stop offset="0.7988" stop-color="#EDEBE1"/>
<stop offset="1" stop-color="#94938C"/>
</linearGradient>
</defs>
</svg>
