<svg width="16" height="52" viewBox="0 0 16 52" fill="none" xmlns="http://www.w3.org/2000/svg">
<path d="M2.22656 11.1094C2.22656 11.1094 10.3981 15.0313 12.686 11.7631C12.5962 14.9746 12.5409 18.1879 12.4987 21.4003C12.4188 27.509 12.3866 33.6235 12.5649 39.7308C12.6275 41.8757 12.6774 44.0234 12.8825 46.1606C12.9868 47.2494 13.1307 48.335 13.3362 49.4093C13.4305 49.9038 13.715 50.4863 13.4859 50.9377C13.181 51.5379 12.3934 51.674 11.8431 51.4036C11.0686 51.0225 10.5596 50.0853 10.1753 49.3617C9.24838 47.616 8.65042 45.6865 8.10961 43.7938C4.8412 32.3541 2.73016 14.6253 2.22656 11.1094Z" fill="url(#paint0_linear_82_7517)"/>
<path d="M15.5175 1.18193C15.1214 4.72238 14.3974 8.21929 12.9878 11.4685C12.2747 13.1121 11.2793 14.7708 9.72143 15.738C7.30748 17.2369 4.54419 16.3681 3.16822 13.9682C2.06672 12.0474 1.643 9.83299 1.41209 7.66081C1.23742 6.01626 1.34675 4.35945 1.23015 2.71172C1.18615 2.08883 1.09179 1.47274 0.976562 0.859375C8.89711 4.53548 10.621 6.39552 15.5175 1.18193Z" fill="url(#paint1_linear_82_7517)"/>
<path d="M6.87551 9.70238C6.87551 9.70238 9.7462 10.1855 12.406 7.76747L13.3954 6.70772C13.6254 6.42009 15.0984 4.3287 15.0984 4.3287L15.5221 1.17754L14.0169 2.16288L12.1515 2.57619L10.8536 2.8942L9.52981 3.90179L7.85268 2.73497L7.36591 1.01875L5.66243 0.605469L3.87822 1.78137L3.12107 0.859504L0.914062 0.814137C0.914516 0.815045 3.95218 9.35124 6.87551 9.70238Z" fill="black"/>
<defs>
<linearGradient id="paint0_linear_82_7517" x1="14.8663" y1="31.2956" x2="5.6327" y2="31.329" gradientUnits="userSpaceOnUse">
<stop stop-color="#BFAB8D"/>
<stop offset="0.5078" stop-color="#E7E1D2"/>
<stop offset="1" stop-color="#CCBFA6"/>
</linearGradient>
<linearGradient id="paint1_linear_82_7517" x1="17.9449" y1="8.61942" x2="-1.93308" y2="8.69124" gradientUnits="userSpaceOnUse">
<stop stop-color="#94938C"/>
<stop offset="0.2296" stop-color="#EDEBE1"/>
<stop offset="0.7988" stop-color="#EDEBE1"/>
<stop offset="1" stop-color="#94938C"/>
</linearGradient>
</defs>
</svg>
