<svg width="18" height="56" viewBox="0 0 18 56" fill="none" xmlns="http://www.w3.org/2000/svg">
<path d="M2.19531 16.309C4.10024 16.299 6.03465 16.1235 7.9364 15.971C10.2396 15.7864 13.4738 15.8993 15.577 14.7987C15.7693 14.698 15.8329 14.3555 16.0098 14.2344C16.4122 15.5836 16.0679 17.7458 15.9885 19.1272C15.7612 23.0764 15.5865 27.0328 15.6246 30.9893C15.646 33.1732 15.7675 35.3418 15.964 37.5162C16.2353 40.519 17.2492 43.4506 17.5223 46.4843C17.7137 48.6116 17.6815 50.7742 17.2664 52.8747C17.1358 53.5352 16.9457 55.2478 16.3727 55.4057C15.6169 55.6135 14.4768 54.4512 14.0971 53.939C12.8414 52.2459 12.5193 49.9531 11.8769 47.9914C11.1583 45.7957 10.3163 43.6425 9.45617 41.499C7.77898 37.3175 6.01514 33.1469 4.93496 28.7604C4.30392 26.1976 4.02312 23.5722 3.43063 20.9999C3.06861 19.4239 2.64081 17.8637 2.19531 16.309Z" fill="url(#paint0_linear_82_7527)"/>
<path d="M17.3245 1.4083C17.4846 3.44027 17.7065 7.46973 17.5355 9.50397C17.4112 10.9775 17.2052 12.6606 16.3401 13.9091C15.131 15.6534 12.9153 16.446 10.9337 16.9019C8.4186 17.4808 5.77553 17.6169 3.20324 17.5084C1.80459 17.449 1.41491 14.3323 1.33688 13.3433C1.01251 9.22904 0.67271 5.11112 0.3125 1C7.11703 7.66888 15.5098 5.76349 17.3245 1.4083Z" fill="url(#paint1_linear_82_7527)"/>
<path d="M7.2475 9.89776C7.2475 9.89776 10.5942 10.3809 13.695 7.96286L14.8487 6.90308C15.1168 6.61545 16.8339 4.52404 16.8339 4.52404L17.3275 1.37285L15.5727 2.35823L13.3978 2.77152L11.8849 3.08955L10.3415 4.09715L8.38621 2.9303L7.81866 1.21407L5.83296 0.800781L3.75245 1.97669L2.87006 1.05484L0.296875 1.00947C0.297782 1.01038 3.8391 9.54662 7.2475 9.89776Z" fill="black"/>
<defs>
<linearGradient id="paint0_linear_82_7527" x1="6.82351" y1="34.7949" x2="15.9051" y2="34.8315" gradientUnits="userSpaceOnUse">
<stop stop-color="#BFAB8D"/>
<stop offset="0.5078" stop-color="#E7E1D2"/>
<stop offset="1" stop-color="#CCBFA6"/>
</linearGradient>
<linearGradient id="paint1_linear_82_7527" x1="-4.00924" y1="9.2451" x2="21.4767" y2="9.34775" gradientUnits="userSpaceOnUse">
<stop stop-color="#94938C"/>
<stop offset="0.2296" stop-color="#EDEBE1"/>
<stop offset="0.7988" stop-color="#EDEBE1"/>
<stop offset="1" stop-color="#94938C"/>
</linearGradient>
</defs>
</svg>
