<svg width="18" height="41" viewBox="0 0 18 41" fill="none" xmlns="http://www.w3.org/2000/svg">
<path d="M2.625 9.65725C2.625 9.65725 8.83489 35.1512 14.0649 39.3999C19.2948 43.6485 16.6798 35.1508 16.6798 35.1508C16.6798 35.1508 14.7186 19.4624 14.7186 16.5208C14.7186 13.5792 15.7584 8.07031 15.7584 8.07031C15.7584 8.07031 5.6864 10.2393 2.625 9.65725Z" fill="url(#paint0_linear_82_7537)"/>
<path d="M0.617188 0.539062C0.803191 2.63316 0.660295 3.77456 0.660295 3.77456C0.660295 3.77456 1.31402 11.6188 6.87008 11.9455C12.4266 12.2721 16.0214 9.00391 16.3485 7.04273C16.5609 5.76795 16.6353 2.97476 16.7509 0.906067C12.4515 6.55233 8.64074 5.96258 0.617188 0.539062Z" fill="url(#paint1_linear_82_7537)"/>
<path d="M7.20024 9.43295C7.20024 9.43295 10.3741 9.91611 13.3148 7.49804L14.409 6.43828C14.6631 6.15065 16.2917 4.05923 16.2917 4.05923L16.7599 0.908032L15.0959 1.89339L13.0335 2.3067L11.5985 2.62472L10.135 3.63232L8.28089 2.46549L7.74282 0.749248L5.85966 0.335938L3.88665 1.51187L3.04965 0.589998L0.609375 0.544631C0.609829 0.545084 3.96786 9.0818 7.20024 9.43295Z" fill="black"/>
<defs>
<linearGradient id="paint0_linear_82_7537" x1="15.8846" y1="24.3307" x2="4.32802" y2="24.3725" gradientUnits="userSpaceOnUse">
<stop stop-color="#BFAB8D"/>
<stop offset="0.5078" stop-color="#E7E1D2"/>
<stop offset="1" stop-color="#CCBFA6"/>
</linearGradient>
<linearGradient id="paint1_linear_82_7537" x1="19.7657" y1="6.19738" x2="-2.42098" y2="6.27752" gradientUnits="userSpaceOnUse">
<stop stop-color="#94938C"/>
<stop offset="0.2296" stop-color="#EDEBE1"/>
<stop offset="0.4283" stop-color="#EDEBE1"/>
<stop offset="0.7988" stop-color="#EDEBE1"/>
<stop offset="1" stop-color="#94938C"/>
</linearGradient>
</defs>
</svg>
