<svg width="19" height="42" viewBox="0 0 19 42" fill="none" xmlns="http://www.w3.org/2000/svg">
<path d="M2.98438 11.731C3.78735 16.9872 5.20321 22.2393 7.04641 27.2192C9.07243 32.6922 11.6038 38.1657 16.5251 41.5954C16.6444 41.6785 16.7723 41.7646 16.9175 41.7719C17.0654 41.7792 17.2047 41.7025 17.3231 41.6136C18.0008 41.1068 18.2503 40.1814 18.1805 39.338C18.1106 38.4942 17.774 37.6998 17.48 36.9059C15.6863 32.0635 15.2485 26.7342 14.7372 21.6327C14.4133 18.4031 13.6453 14.4444 14.4065 11.2247C15.224 7.76915 3.49111 11.1168 2.98438 11.731Z" fill="url(#paint0_linear_82_7547)"/>
<path d="M0.257812 0.304688C0.911565 6.18796 2.80478 11.6915 2.80478 11.6915C2.80478 11.6915 3.45853 12.6719 8.03435 12.6719C12.6102 12.6719 13.9177 12.0182 14.5714 10.7107C15.2252 9.40317 16.3181 0.667174 16.3181 0.667174C16.3181 0.667174 11.9637 6.43114 8.33332 5.79373C3.66586 4.97484 5.88344 4.0702 0.257812 0.304688Z" fill="url(#paint1_linear_82_7547)"/>
<path d="M6.82056 9.17077C6.82056 9.17077 9.98079 9.65393 12.9088 7.23587L13.998 6.1761C14.2512 5.88847 15.8726 3.79705 15.8726 3.79705L16.3389 0.645848L14.6821 1.63122L12.6284 2.04451L11.1998 2.36254L9.74262 3.37059L7.89621 2.20376L7.36042 0.487518L5.48541 0.0742188L3.52105 1.25014L2.68765 0.328279L0.257812 0.282912C0.258266 0.282912 3.60225 8.81963 6.82056 9.17077Z" fill="black"/>
<defs>
<linearGradient id="paint0_linear_82_7547" x1="6.21264" y1="25.6982" x2="16.5788" y2="25.7356" gradientUnits="userSpaceOnUse">
<stop stop-color="#BFAB8D"/>
<stop offset="0.5078" stop-color="#E7E1D2"/>
<stop offset="1" stop-color="#CCBFA6"/>
</linearGradient>
<linearGradient id="paint1_linear_82_7547" x1="-3.16814" y1="6.4621" x2="19.5373" y2="6.54413" gradientUnits="userSpaceOnUse">
<stop stop-color="#94938C"/>
<stop offset="0.2296" stop-color="#EDEBE1"/>
<stop offset="0.7988" stop-color="#EDEBE1"/>
<stop offset="1" stop-color="#94938C"/>
</linearGradient>
</defs>
</svg>
