<svg width="26" height="46" viewBox="0 0 26 46" fill="none" xmlns="http://www.w3.org/2000/svg">
<path d="M10.7417 2.25136C10.7417 2.25136 9.83574 0.197139 8.00158 0.711598C6.16742 1.22606 5.53365 6.01997 5.86573 9.55404C6.19735 13.0881 7.7693 24.301 10.4718 24.5319C13.1742 24.7628 18.1165 18.4119 15.8681 14.8738C13.6193 11.3361 9.89925 5.12534 10.7417 2.25136Z" fill="url(#paint0_linear_82_7477)"/>
<path d="M22.5653 32.7019C19.3665 32.4714 15.7367 30.9076 12.532 30.7811C10.5218 30.7017 8.51071 30.5688 6.49824 30.6332C5.56777 30.6627 4.18363 33.1433 3.28174 33.0285C2.6965 32.9541 3.08258 30.5506 3.10663 29.9286C3.12704 29.3992 3.17195 28.872 3.09438 28.3444C2.81582 26.4427 1.76967 24.6371 1.3346 22.7353C0.831029 20.5355 0.490781 18.293 0.28164 16.0465C0.0597967 13.6633 -0.0336622 11.229 0.278007 8.84905C0.412293 7.82286 0.595573 6.78079 1.00297 5.8231C1.32008 5.07773 2.08905 3.61465 3.07169 3.7267C3.43236 3.76799 3.75537 3.97304 4.0253 4.21666C4.55428 4.69437 4.92265 5.33042 5.16627 6.00048C5.66848 7.3828 5.65759 8.87128 5.75422 10.3194C5.85403 11.8124 6.26097 13.1952 6.59578 14.6442C7.2173 17.3367 7.95133 20.5055 9.71519 22.7126C10.1444 23.2498 10.7895 23.6844 11.4741 23.6195C11.8252 23.5859 12.1532 23.4244 12.4399 23.2189C13.4729 22.4781 13.9983 21.1996 14.1775 19.9412C14.5445 17.3625 14.2682 14.5181 13.5791 12.0184C13.1749 10.5512 12.4281 9.23739 11.9717 7.80289C11.4895 6.28629 10.8353 3.27758 12.9734 2.70006C13.8363 2.46688 14.755 2.90784 15.4001 3.52664C17.7918 5.81992 19.4073 9.22922 20.7906 12.1853C21.6389 13.9977 22.4578 15.8713 22.98 17.8085C23.2939 18.9731 23.2603 20.1335 23.2272 21.3362C23.1342 24.6983 22.9391 29.3688 22.5653 32.7019Z" fill="url(#paint1_linear_82_7477)"/>
<path d="M3.60576 30.7423C3.28684 30.8394 2.82955 31.7059 2.65307 31.955C1.95216 32.944 1.34562 34.0083 0.891053 35.1334C-0.0888575 37.5605 -0.17052 40.1749 1.01263 42.3956C1.30797 42.9496 1.02262 43.386 1.48127 43.8818C1.50849 43.9109 1.56157 45.1852 1.66273 45.3336C1.94627 45.75 15.4087 37.3291 16.316 37.0315C16.8441 36.8582 17.1549 38.9464 17.677 38.7554C18.6547 38.3979 21.5331 41.5681 24.8902 44.7438C24.8902 42.7826 26.4844 37.9329 22.562 32.0498C18.642 26.1689 3.61801 30.7383 3.60576 30.7423Z" fill="url(#paint2_linear_82_7477)"/>
<path d="M11.3981 32.8022C11.3981 32.8022 16.1411 32.1131 20.5362 35.5642L22.1713 37.0767C22.551 37.4878 25.1201 40.6603 25.1201 40.6603C25.1201 40.6603 25.2829 41.3862 25.1654 42.7926C25.0479 44.1989 24.8932 44.8341 24.8932 44.8341L23.1979 43.5638L20.1157 42.974L17.9717 42.5204L15.7841 41.0818L13.0131 42.7472L12.2092 45.197L9.39466 45.7868L6.44629 44.1082L5.19554 45.4239L1.71094 45.4171C1.71094 45.4171 6.56743 33.3035 11.3981 32.8022Z" fill="black"/>
<defs>
<linearGradient id="paint0_linear_82_7477" x1="14.2504" y1="23.5047" x2="-4.31171" y2="-21.8607" gradientUnits="userSpaceOnUse">
<stop offset="0.1599" stop-color="#BFAB8D"/>
<stop offset="0.5078" stop-color="#E7E1D2"/>
<stop offset="0.7297" stop-color="#CCBFA6"/>
</linearGradient>
<linearGradient id="paint1_linear_82_7477" x1="1.37822" y1="17.5166" x2="22.2888" y2="18.4621" gradientUnits="userSpaceOnUse">
<stop offset="0.1599" stop-color="#BFAB8D"/>
<stop offset="0.5078" stop-color="#E7E1D2"/>
<stop offset="0.7297" stop-color="#CCBFA6"/>
</linearGradient>
<linearGradient id="paint2_linear_82_7477" x1="-5.84118" y1="39.4962" x2="29.0609" y2="35.831" gradientUnits="userSpaceOnUse">
<stop stop-color="#94938C"/>
<stop offset="0.2296" stop-color="#EDEBE1"/>
<stop offset="0.7988" stop-color="#EDEBE1"/>
<stop offset="1" stop-color="#94938C"/>
</linearGradient>
</defs>
</svg>
