<svg width="30" height="49" viewBox="0 0 30 49" fill="none" xmlns="http://www.w3.org/2000/svg">
<path d="M20.3517 44.8352C21.0272 46.9992 19.4321 47.882 17.9505 46.6C15.086 44.1212 13.4283 40.1448 11.9702 36.5023C11.2952 34.8156 8.39674 28.8844 9.92196 27.4508C11.4354 26.0286 17.3679 28.737 17.6719 32.5432C17.837 34.6078 17.906 36.6784 18.2612 38.7439C18.6477 40.9886 19.6893 42.7148 20.3517 44.8352Z" fill="url(#paint0_linear_82_7557)"/>
<path d="M3.57656 19.5595C3.76438 20.3339 3.93088 21.1219 3.96763 21.2743C4.28293 22.5823 4.55648 23.9006 4.77606 25.228C4.95526 26.3128 5.09864 27.4038 5.20525 28.4981C5.30869 29.5587 5.21839 30.7265 5.42028 31.7663C5.61944 32.7911 5.98463 33.8663 6.32987 34.8562C7.36651 37.8291 8.93666 40.5956 10.8012 43.1243C11.7367 44.3928 12.7484 45.6045 13.8163 46.7636C14.4723 47.4759 15.8669 49.5845 17.026 48.7085C17.4611 48.3796 17.6358 47.793 17.6076 47.2481C17.5795 46.7033 17.3799 46.1843 17.1907 45.6726C15.7335 41.7243 14.348 36.8356 15.1674 32.5997C15.2526 32.1583 15.386 31.7023 15.7027 31.3834C16.1178 30.9656 16.7824 30.8717 17.3504 31.0282C17.9184 31.1847 18.4029 31.5563 18.8257 31.9664C20.277 33.375 21.3082 35.3553 22.1951 37.1563C22.8666 38.52 23.3597 39.9731 23.6433 41.4671C23.9145 42.897 23.6841 44.5965 24.2584 45.9384C24.5801 46.6906 25.2973 47.3353 26.1148 47.3117C26.7513 47.2935 27.3148 46.8839 27.7344 46.4048C29.2805 44.6396 29.5768 41.8268 29.6671 39.5762C29.7805 36.7398 29.3767 33.9135 28.9371 31.1194C28.3387 27.3154 27.5697 23.5372 26.7109 19.784C26.6778 19.6384 26.2106 17.2707 26.1162 17.2734C26.1162 17.2734 3.2413 17.9081 3.03125 17.914C3.14875 17.9118 3.37468 18.7279 3.57656 19.5595Z" fill="url(#paint1_linear_82_7557)"/>
<path d="M6.09283 5.71454C5.13968 5.80981 2.23668 1.94914 1.23862 1.35938C0.241916 2.39872 0.559028 5.79665 0.921052 7.16626C1.28308 8.53587 1.54711 12.2623 2.31607 15.2437C2.56014 16.1901 2.58463 18.1789 3.23428 18.9093C5.25581 21.1817 9.69765 20.0762 12.3856 19.8897C15.4642 19.676 18.7787 19.574 21.5369 18.9093C23.3629 18.8177 26.716 19.2219 27.2704 16.807C27.9055 14.0392 28.2966 11.2089 28.4272 8.3721C28.5252 6.25259 28.6849 3.49159 28.2312 2.03987C27.7853 1.97999 25.9112 6.33878 25.4639 6.4404C24.5316 6.65181 23.3044 7.09458 22.3789 6.8487C21.2407 6.54656 19.7314 9.06484 19.4755 9.07165C18.8925 9.08753 16.1311 9.08435 15.6647 9.43458C13.7017 10.9099 11.8435 5.73677 9.67632 5.17014C8.76672 4.93197 6.9616 5.62789 6.09283 5.71454Z" fill="url(#paint2_linear_82_7557)"/>
<path d="M12.4704 13.9802C12.4704 13.9802 17.9717 14.6698 23.0687 11.2184L24.965 9.70587C25.4055 9.29485 28.5005 6.03169 28.5005 6.03169C28.5005 6.03169 28.6366 5.26048 28.5005 3.85414C28.3644 2.4478 28.2283 1.99414 28.2283 1.99414L26.1559 3.21902L22.581 3.80877L20.0939 4.26243L17.557 5.70098L14.3428 4.0356L13.41 1.58585L10.1458 0.996094L6.72652 2.67463L5.27568 1.35902L1.23438 1.36582C1.23574 1.36582 6.86852 13.4789 12.4704 13.9802Z" fill="black"/>
<defs>
<linearGradient id="paint0_linear_82_7557" x1="12.5884" y1="26.5423" x2="20.3499" y2="70.834" gradientUnits="userSpaceOnUse">
<stop offset="0.1599" stop-color="#BFAB8D"/>
<stop offset="0.5078" stop-color="#E7E1D2"/>
<stop offset="0.7297" stop-color="#CCBFA6"/>
</linearGradient>
<linearGradient id="paint1_linear_82_7557" x1="5.61844" y1="33.0399" x2="28.1456" y2="33.1213" gradientUnits="userSpaceOnUse">
<stop stop-color="#BFAB8D"/>
<stop offset="0.5078" stop-color="#E7E1D2"/>
<stop offset="1" stop-color="#CCBFA6"/>
</linearGradient>
<linearGradient id="paint2_linear_82_7557" x1="-5.29687" y1="10.8061" x2="34.5496" y2="10.9501" gradientUnits="userSpaceOnUse">
<stop stop-color="#94938C"/>
<stop offset="0.2296" stop-color="#EDEBE1"/>
<stop offset="0.7988" stop-color="#EDEBE1"/>
<stop offset="1" stop-color="#94938C"/>
</linearGradient>
</defs>
</svg>
