<svg width="27" height="39" viewBox="0 0 27 39" fill="none" xmlns="http://www.w3.org/2000/svg">
<path d="M15.838 33.3276C16.0399 35.2847 14.7701 35.7297 13.8691 34.366C12.1265 31.7302 11.4543 28.0556 10.8826 24.7017C10.6177 23.1483 9.30749 17.5878 10.5995 16.6632C11.8816 15.7464 15.8112 19.1557 15.5277 22.4302C15.3739 24.2067 15.1498 25.9701 15.1334 27.7834C15.1153 29.7546 15.6402 31.4104 15.838 33.3276Z" fill="url(#paint0_linear_82_7569)"/>
<path d="M4.20312 11.0661C4.88863 13.0246 5.44117 15.0689 5.7601 17.1195C5.97469 18.4995 5.94294 19.7262 5.73334 21.0922C5.38084 23.3878 5.35546 25.7836 5.45436 28.0992C5.60861 31.7108 7.34115 34.431 8.72621 37.6797C9.23523 38.8733 10.4125 39.4999 11.4796 38.4015C12.8329 37.0088 12.4681 34.0812 12.5221 32.3147C12.5956 29.8966 12.6446 27.4618 13.1282 25.0823C13.3365 24.0579 13.6291 23.0367 14.164 22.1384C14.6957 21.2451 15.6783 20.8096 16.6197 21.4529C17.8732 22.3094 18.1558 24.1858 18.5886 25.5214C18.9947 26.774 19.3626 28.0388 19.7178 29.3068C20.2196 31.0979 20.6837 32.8994 21.1619 34.6964C21.3601 35.4404 22.0071 37.188 23.1009 36.4285C23.4702 36.1717 23.6525 35.7271 23.8063 35.3048C24.3113 33.9156 24.7146 32.4925 25.117 31.0707C25.6564 29.1657 26.1527 27.2662 26.2689 25.2823C26.4272 22.5775 25.3615 19.905 24.8407 17.2869C24.2872 14.5045 23.9415 11.6809 23.809 8.84723C23.8004 8.66077 23.7859 8.458 23.6603 8.32009C23.4901 8.13408 23.1984 8.14858 22.9484 8.17716C19.8766 8.52921 16.7984 8.81549 13.7298 9.19929C11.6533 9.45743 9.57414 9.73053 7.51583 10.1098C6.60848 10.2767 4.90586 10.3634 4.20312 11.0661Z" fill="url(#paint1_linear_82_7569)"/>
<path d="M1.80711 6.82221C1.70458 5.5955 1.7327 4.35246 1.49906 3.14072C1.31397 2.18076 0.988681 1.35418 0.71875 0.441406C6.02664 3.20877 4.00919 3.87792 4.07588 2.8912C4.40161 -1.93308 8.17112 6.99914 11.5614 8.33519C12.9709 8.89048 13.5521 8.31251 14.737 7.56396C16.0209 6.7528 17.9376 6.38443 19.4552 6.38443C21.1904 6.38443 19.5155 3.97501 20.9976 4.88733C23.1902 6.23653 23.1607 0.612892 23.3113 2.93657C23.3435 3.43106 25.0398 2.90209 25.8065 0.849705C25.8541 2.94065 25.6786 4.76529 24.9926 6.74962C24.7327 7.5018 24.3883 8.24083 23.8466 8.82379C23.0768 9.65264 22.096 9.76197 21.0557 10.0015C19.6357 10.3286 18.1999 10.6053 16.7686 10.8762C13.9617 11.4074 11.1286 11.8398 8.27273 11.9831C6.91854 12.0512 5.51628 11.9137 4.31361 11.2872C2.57153 10.3789 1.96135 8.67362 1.80711 6.82221Z" fill="url(#paint2_linear_82_7569)"/>
<path d="M10.915 11.0765C10.915 11.0765 15.9444 11.6576 20.604 8.74876L22.3379 7.47397C22.7408 7.12783 25.5703 4.37727 25.5703 4.37727C25.5703 4.37727 25.7617 3.38784 25.8071 2.48051C25.8525 1.57319 25.8071 0.801964 25.8071 0.801964L23.4267 2.00644L20.1585 2.50365L17.8852 2.88608L15.566 4.09827L12.6276 2.69464L11.7751 0.630024L8.79136 0.132812L5.66512 1.54733L4.33858 0.439488H0.71875C0.719204 0.439488 5.79395 10.6541 10.915 11.0765Z" fill="black"/>
<defs>
<linearGradient id="paint0_linear_82_7569" x1="12.6465" y1="16.397" x2="10.537" y2="55.2017" gradientUnits="userSpaceOnUse">
<stop offset="0.1599" stop-color="#BFAB8D"/>
<stop offset="0.5078" stop-color="#E7E1D2"/>
<stop offset="0.7297" stop-color="#CCBFA6"/>
</linearGradient>
<linearGradient id="paint1_linear_82_7569" x1="6.7298" y1="24.9575" x2="24.2242" y2="21.5532" gradientUnits="userSpaceOnUse">
<stop stop-color="#BFAB8D"/>
<stop offset="0.5078" stop-color="#E7E1D2"/>
<stop offset="1" stop-color="#CCBFA6"/>
</linearGradient>
<linearGradient id="paint2_linear_82_7569" x1="-3.06941" y1="7.95959" x2="29.5327" y2="1.61555" gradientUnits="userSpaceOnUse">
<stop stop-color="#94938C"/>
<stop offset="0.2114" stop-color="#EDEBE1"/>
<stop offset="0.847" stop-color="#EDEBE1"/>
<stop offset="1" stop-color="#94938C"/>
</linearGradient>
</defs>
</svg>
