<svg width="26" height="36" viewBox="0 0 26 36" fill="none" xmlns="http://www.w3.org/2000/svg">
<path d="M16.4983 32.7349C16.7932 34.5881 15.6073 35.079 14.6772 33.8273C12.8798 31.408 12.0464 27.9438 11.3259 24.7795C10.9925 23.3142 9.45268 18.0866 10.635 17.1385C11.8082 16.198 15.7298 19.2389 15.6309 22.3728C15.5773 24.0727 15.4567 25.764 15.536 27.492C15.6222 29.3697 16.2088 30.9194 16.4983 32.7349Z" fill="url(#paint0_linear_82_7587)"/>
<path d="M4.03125 9.42551C4.03125 9.42551 5.33873 13.0208 5.33873 16.9428C5.33873 20.8647 5.01206 25.7675 7.2999 29.3628C9.58773 32.9581 10.2415 34.5923 10.2415 34.5923C10.2415 34.5923 12.2027 36.8801 13.1831 34.2656C13.1831 34.2656 10.8952 26.4212 12.2027 22.4993C13.5101 18.5773 14.8176 19.8844 15.1442 20.5381C15.4713 21.1918 20.047 28.7091 20.7007 30.6703C21.3545 32.6315 22.3348 34.5923 22.9886 34.5923C23.6423 34.5923 24.6226 32.9582 25.2764 30.0166C25.9301 27.075 25.2764 23.8068 23.9689 21.5185C22.6615 19.2306 21.354 9.09842 21.354 7.46431C21.354 5.8302 5.66535 8.77177 4.03125 9.42551Z" fill="url(#paint1_linear_82_7587)"/>
<path d="M1.16011 1.08984C0.928284 1.77761 0.964117 2.25396 1.05077 2.97212C1.23314 4.48284 1.83245 5.97042 2.44717 7.35048C2.82008 8.1875 3.13084 9.14248 3.80272 9.79758C4.58665 10.5616 5.90454 10.6691 6.93754 10.8138C9.1596 11.1246 11.3908 10.846 13.5602 10.3311C15.7169 9.8189 17.9458 9.2509 20.0426 8.53683C20.4196 8.40844 20.7962 8.26009 21.1119 8.01783C21.997 7.33778 22.1789 5.79213 22.3917 4.77228C22.6399 3.5823 22.6285 2.61009 22.301 1.45278C22.2021 1.103 13.0008 8.93833 1.16011 1.08984Z" fill="url(#paint2_linear_82_7587)"/>
<path d="M9.76971 10.0659C9.76971 10.0659 13.9952 10.5563 17.9103 8.10198L19.367 7.02634C19.7054 6.73419 22.4347 4.31117 22.4347 4.31117C22.5799 3.00961 22.5345 2.02834 22.2818 1.39639L20.2821 2.41304L17.536 2.83268L15.6256 3.15524L13.6771 4.17825L11.2083 2.99373L10.4919 1.25167L7.98499 0.832031L5.35873 2.02562L4.24451 1.09016H1.20313C1.20267 1.09016 5.46668 9.70931 9.76971 10.0659Z" fill="black"/>
<defs>
<linearGradient id="paint0_linear_82_7587" x1="12.5664" y1="16.7724" x2="12.5906" y2="53.8413" gradientUnits="userSpaceOnUse">
<stop offset="0.1599" stop-color="#BFAB8D"/>
<stop offset="0.5078" stop-color="#E7E1D2"/>
<stop offset="0.7297" stop-color="#CCBFA6"/>
</linearGradient>
<linearGradient id="paint1_linear_82_7587" x1="5.92578" y1="21.2123" x2="22.6839" y2="21.2729" gradientUnits="userSpaceOnUse">
<stop stop-color="#BFAB8D"/>
<stop offset="0.5078" stop-color="#E7E1D2"/>
<stop offset="1" stop-color="#CCBFA6"/>
</linearGradient>
<linearGradient id="paint2_linear_82_7587" x1="-5.39285" y1="5.97959" x2="28.7375" y2="6.10288" gradientUnits="userSpaceOnUse">
<stop stop-color="#94938C"/>
<stop offset="0.2614" stop-color="#EDEBE1"/>
<stop offset="0.7687" stop-color="#EDEBE1"/>
<stop offset="1" stop-color="#94938C"/>
</linearGradient>
</defs>
</svg>
