<svg width="19" height="50" viewBox="0 0 19 50" fill="none" xmlns="http://www.w3.org/2000/svg">
<path d="M12.2916 33.9255C12.3746 33.9664 12.4536 34.0126 12.528 34.0648C13.9656 35.0688 15.1774 36.6965 16.0915 38.1686C17.4807 40.4052 18.4724 42.9634 18.2052 45.6328C18.0228 47.4574 18.3358 45.8764 17.4244 47.515C16.8918 48.4722 7.86422 45.0185 7.08073 44.5208C5.85129 43.7396 0.420402 50.2814 0.411782 48.6492C0.403162 46.9906 0.234854 43.6607 0.551062 42.0275C1.11407 39.1173 3.03672 36.7097 4.0475 33.9627C4.10557 33.8044 4.16364 33.6425 4.27025 33.5118C4.45262 33.2881 4.75114 33.1915 5.03876 33.1684C5.57772 33.1248 6.12077 33.2083 6.65474 33.2655C7.66734 33.3743 8.65587 33.4873 9.67391 33.5572C10.4819 33.613 11.5403 33.554 12.2916 33.9255Z" fill="url(#paint0_linear_82_7466)"/>
<path d="M14.4334 35.8392C14.3971 35.8687 14.3536 35.8919 14.3005 35.9064C14.0337 35.9812 13.2117 35.5788 12.9209 35.5026C11.9569 35.2504 10.982 35.0394 10.0012 34.8638C8.96182 34.6778 7.91204 34.5014 6.85365 34.4927C6.29338 34.4882 5.72993 34.5272 5.18145 34.6461C4.69422 34.7518 4.16934 35.0857 3.70796 35.1274C3.3718 33.8168 3.71296 32.2925 3.79099 30.9614C3.87764 29.4816 4.01373 28.0049 4.19837 26.5341C4.54497 23.774 5.23363 21.1169 5.73584 18.3917C6.22488 15.741 6.36098 12.9387 6.30246 10.2394C6.27478 8.97 6.19812 7.69838 6.05249 6.43719C5.92864 5.36064 5.61833 4.39705 5.72857 3.28149C5.84062 2.14733 6.37277 0.429754 7.8703 0.894308C8.99765 1.24408 9.69947 2.48394 10.2684 3.42666C11.3522 5.22181 12.1411 7.17756 12.8678 9.1442C13.5937 11.1081 14.2628 13.1061 14.6416 15.1693C14.9724 16.969 14.932 18.7306 14.9007 20.5475C14.8517 23.4319 14.7827 26.3159 14.7115 29.1998C14.6657 31.0603 14.7719 33.002 14.6253 34.8893C14.599 35.2422 14.6507 35.6614 14.4334 35.8392Z" fill="url(#paint1_linear_82_7466)"/>
<path d="M7.58613 40.4591C7.58613 40.4591 11.1641 40.0023 14.4795 42.2896L15.713 43.2922C15.9993 43.5644 18.1986 45.6095 18.1986 45.6095L18.1079 47.6509L16.4879 47.5924L14.1628 47.2014L12.5455 46.9006L10.8956 45.947L8.80511 47.0507L8.19857 48.6748L6.07544 49.0659L3.8516 47.9531L2.90798 48.825L0.460938 48.8754C0.460484 48.8763 3.94233 40.7916 7.58613 40.4591Z" fill="black"/>
<defs>
<linearGradient id="paint0_linear_82_7466" x1="-5.60564" y1="41.2978" x2="24.3478" y2="40.3751" gradientUnits="userSpaceOnUse">
<stop stop-color="#94938C"/>
<stop offset="0.2666" stop-color="#EDEBE1"/>
<stop offset="0.7117" stop-color="#EDEBE1"/>
<stop offset="1" stop-color="#94938C"/>
</linearGradient>
<linearGradient id="paint1_linear_82_7466" x1="0.79857" y1="19.4146" x2="15.1579" y2="17.9067" gradientUnits="userSpaceOnUse">
<stop stop-color="#BFAB8D"/>
<stop offset="0.5078" stop-color="#E7E1D2"/>
<stop offset="1" stop-color="#CCBFA6"/>
</linearGradient>
</defs>
</svg>
