<svg width="19" height="50" viewBox="0 0 19 50" fill="none" xmlns="http://www.w3.org/2000/svg">
<path d="M4.04688 38.3565C4.04688 38.3565 4.37353 27.244 5.35438 24.3024C6.33477 21.3608 7.31562 11.5557 6.98852 8.94073C6.66187 6.32579 6.66187 2.40385 6.66187 2.40385C6.66187 2.40385 6.33522 -0.537741 9.27687 1.7501C12.2185 4.03795 15.8139 15.1505 15.4868 19.7262C15.1601 24.3019 15.0567 38.0907 15.1084 38.0603C15.1597 38.0299 4.04688 38.3565 4.04688 38.3565Z" fill="url(#paint0_linear_82_7456)"/>
<path d="M14.8353 37.0513C14.8353 37.0513 18.3249 42.2095 18.7917 47.3581C18.8807 48.3389 15.1165 45.8778 11.4913 46.1577C6.21551 46.5656 0.414411 49.4182 0.401708 49.2317C0.355887 48.5667 0.371759 47.8993 0.428467 47.2343C0.520109 46.1609 0.717005 45.0916 0.929777 44.0418C1.10353 43.1858 1.39933 42.371 1.74548 41.5693C2.11431 40.7146 2.77939 39.8803 3.06883 39.012C3.06883 39.012 5.68334 31.1681 14.8353 37.0513Z" fill="url(#paint1_linear_82_7456)"/>
<path d="M7.91762 40.6253C7.91762 40.6253 11.6989 40.1422 15.2031 42.5602L16.5069 43.62C16.8095 43.9076 18.7503 45.999 18.7503 45.999V49.0228L17.3258 48.1644L14.8683 47.7511L13.1588 47.4331L11.4149 46.4255L9.20558 47.5923L8.56455 49.3086L6.32072 49.7219L3.97027 48.5459L2.97311 49.4678L0.195313 49.4633C0.194859 49.4633 4.0669 40.9769 7.91762 40.6253Z" fill="black"/>
<defs>
<linearGradient id="paint0_linear_82_7456" x1="4.9468" y1="19.6655" x2="17.8397" y2="19.2683" gradientUnits="userSpaceOnUse">
<stop stop-color="#BFAB8D"/>
<stop offset="0.5078" stop-color="#E7E1D2"/>
<stop offset="1" stop-color="#CCBFA6"/>
</linearGradient>
<linearGradient id="paint1_linear_82_7456" x1="-3.32525" y1="42.2936" x2="23.3693" y2="41.4713" gradientUnits="userSpaceOnUse">
<stop stop-color="#94938C"/>
<stop offset="0.0311" stop-color="#A6A59D"/>
<stop offset="0.0939" stop-color="#C5C3BB"/>
<stop offset="0.1552" stop-color="#DBD9D0"/>
<stop offset="0.2138" stop-color="#E8E7DD"/>
<stop offset="0.2666" stop-color="#EDEBE1"/>
<stop offset="0.7117" stop-color="#EDEBE1"/>
<stop offset="0.7637" stop-color="#E7E5DB"/>
<stop offset="0.835" stop-color="#D5D3CA"/>
<stop offset="0.9175" stop-color="#B8B7AF"/>
<stop offset="1" stop-color="#94938C"/>
</linearGradient>
</defs>
</svg>
