<svg width="20" height="62" viewBox="0 0 20 62" fill="none" xmlns="http://www.w3.org/2000/svg">
<path d="M16.0306 45.477C16.0306 45.477 3.94926 42.4488 2.94531 44.1754L7.82442 9.62273C7.82442 9.62273 7.6729 0.742188 8.98035 0.742188C10.2878 0.742188 11.5952 4.66414 11.5952 4.66414C11.5952 4.66414 15.7394 37.2071 16.0306 45.477Z" fill="url(#paint0_linear_82_7387)"/>
<path d="M13.7507 41.996C13.7512 41.9969 20.9413 51.4749 19.6339 59.3187C19.5654 59.7302 19.4851 60.1444 19.3921 60.559C15.9832 54.4277 12.6261 53.339 0.740432 60.995C0.443279 59.9588 0.25365 58.8791 0.154297 57.7944C0.0431481 56.5777 0.0463211 55.355 0.14023 54.1796C0.4333 50.5213 1.54387 46.9722 2.98744 43.6197C3.92381 41.4448 6.10504 40.875 8.28219 40.567C9.92175 40.3347 12.6365 40.527 13.7507 41.996Z" fill="url(#paint1_linear_82_7387)"/>
<path d="M8.5212 52.4054C8.5212 52.4054 12.3307 51.9359 15.8597 54.2872L17.1731 55.318C17.478 55.5979 19.4328 57.6321 19.4328 57.6321V60.5728L17.9979 59.7381L15.5226 59.3361L13.8005 59.0272L12.0439 58.0468L9.81825 59.1814L9.17268 60.8505L6.9125 61.2524L4.54482 60.1087L3.54041 61.0051L0.742188 61.0006C0.741734 61.0006 4.64235 52.747 8.5212 52.4054Z" fill="black"/>
<defs>
<linearGradient id="paint0_linear_82_7387" x1="4.60597" y1="23.353" x2="14.2104" y2="23.0572" gradientUnits="userSpaceOnUse">
<stop stop-color="#BFAB8D"/>
<stop offset="0.5078" stop-color="#E7E1D2"/>
<stop offset="1" stop-color="#CCBFA6"/>
</linearGradient>
<linearGradient id="paint1_linear_82_7387" x1="-6.13697" y1="50.5374" x2="26.8157" y2="51.1264" gradientUnits="userSpaceOnUse">
<stop stop-color="#94938C"/>
<stop offset="0.0617" stop-color="#A4A29B"/>
<stop offset="0.1809" stop-color="#CCCAC2"/>
<stop offset="0.2666" stop-color="#EDEBE1"/>
<stop offset="0.7117" stop-color="#EDEBE1"/>
<stop offset="0.7719" stop-color="#E0DED5"/>
<stop offset="0.883" stop-color="#BEBDB4"/>
<stop offset="1" stop-color="#94938C"/>
</linearGradient>
</defs>
</svg>
