<svg width="18" height="49" viewBox="0 0 18 49" fill="none" xmlns="http://www.w3.org/2000/svg">
<path d="M13.3441 34.7868C13.3441 34.7868 16.7412 37.4122 17.722 44.9294C17.722 44.9294 6.47096 43.5684 1.16298 48.1051C0.630823 48.1432 1.01825 44.0271 2.23137 39.3625C2.78349 37.2407 5.5001 32.1719 13.3441 34.7868Z" fill="url(#paint0_linear_82_7437)"/>
<path d="M10.0742 3.73657C10.0742 3.73657 17.2486 19.4216 14.3152 35.9288C14.3152 35.9288 3.9129 34.6957 3.39844 37.5193C4.85745 30.6522 5.55838 23.4253 5.27166 16.4152C5.15506 13.5712 4.95454 10.7312 4.87469 7.88581C4.82298 6.03303 4.50087 3.91622 5.29616 2.19047C5.63006 1.46506 6.18218 0.398951 7.08817 0.314569C8.62522 0.170303 9.61331 2.67635 10.0742 3.73657Z" fill="url(#paint1_linear_82_7437)"/>
<path d="M8.00973 39.3519C8.00973 39.3519 11.3846 38.8687 14.5112 41.2867L15.6744 42.3465C15.9448 42.6341 17.6765 44.7255 17.6765 44.7255V47.7491L16.4053 46.8908L14.2123 46.4775L12.6866 46.1595L11.1305 45.1519L9.15887 46.3187L8.5868 48.0349L6.58431 48.4482L4.48655 47.2723L3.59647 48.1941L1.11719 48.1896C1.11764 48.1896 4.5732 39.7035 8.00973 39.3519Z" fill="black"/>
<defs>
<linearGradient id="paint0_linear_82_7437" x1="21.5951" y1="41.8944" x2="-2.07002" y2="40.7088" gradientUnits="userSpaceOnUse">
<stop stop-color="#94938C"/>
<stop offset="0.1599" stop-color="#D1CFC6"/>
<stop offset="0.2296" stop-color="#EDEBE1"/>
<stop offset="0.7988" stop-color="#EDEBE1"/>
<stop offset="0.9762" stop-color="#9F9E96"/>
<stop offset="1" stop-color="#94938C"/>
</linearGradient>
<linearGradient id="paint1_linear_82_7437" x1="6.02778" y1="18.9264" x2="15.0088" y2="19.0869" gradientUnits="userSpaceOnUse">
<stop stop-color="#BFAB8D"/>
<stop offset="0.5078" stop-color="#E7E1D2"/>
<stop offset="1" stop-color="#CCBFA6"/>
</linearGradient>
</defs>
</svg>
