<svg width="25" height="59" viewBox="0 0 25 59" fill="none" xmlns="http://www.w3.org/2000/svg">
<path d="M12.0009 0.83685C13.5538 2.36253 14.3277 5.61576 15.1094 7.60191C17.4993 13.6738 19.3157 19.9797 20.3682 26.4232C20.8922 29.6301 21.227 32.8688 21.3545 36.1162C21.4189 37.7494 21.4312 39.3844 21.3899 41.0185C21.3563 42.3559 21.5768 44.3008 21.0211 45.5139C20.3369 44.7408 19.8497 43.8113 19.1257 43.0677C17.3555 41.2494 15.0667 39.9492 12.4822 39.9479C11.3912 39.9474 10.3192 40.1688 9.29978 40.5413C8.88604 40.6923 8.48137 40.8679 8.08714 41.0639C6.9371 41.6355 5.55298 43.3608 4.32945 43.4538C4.1507 41.0616 4.75542 38.3768 4.98316 35.9778C4.98316 29.8878 6.18629 23.4562 7.0977 17.4474C7.37171 15.64 7.78409 13.8566 7.74598 12.0238C7.70652 10.1316 7.49419 8.24159 7.62258 6.34799C7.73781 4.65263 7.95012 0.558299 10.2851 0.298348C10.7442 0.247084 11.1961 0.417206 11.6266 0.584609C11.7645 0.639049 11.8884 0.726609 12.0009 0.83685Z" fill="url(#paint0_linear_82_7420)"/>
<path d="M14.1498 45.5678C14.1498 45.5678 9.33279 44.8787 4.86962 48.3297L3.20922 49.8423C2.8236 50.2533 0.351562 53.2384 0.351562 53.2384V57.5541L2.16623 56.3292L5.29653 55.7395L7.47413 55.2858L9.69574 53.8472L12.5098 55.5126L13.3264 57.9624L16.1845 58.5522L19.1787 56.8736L20.449 58.1892L23.9876 58.1824C23.9876 58.1824 19.0553 46.0691 14.1498 45.5678Z" fill="black"/>
<path d="M12.6312 49.46C16.8775 50.0022 21.2718 54.8614 24.2573 58.9254C23.6608 50.9599 21.4786 41.0281 14.4804 38.7584C14.4804 38.7584 3.69897 36.9623 0.335938 53.162C6.54255 48.3717 12.6312 49.46 12.6312 49.46Z" fill="url(#paint1_linear_82_7420)"/>
<defs>
<linearGradient id="paint0_linear_82_7420" x1="17.6872" y1="22.8671" x2="4.20629" y2="23.108" gradientUnits="userSpaceOnUse">
<stop stop-color="#BFAB8D"/>
<stop offset="0.5078" stop-color="#E7E1D2"/>
<stop offset="1" stop-color="#CCBFA6"/>
</linearGradient>
<linearGradient id="paint1_linear_82_7420" x1="-4.31844" y1="48.8003" x2="28.9204" y2="48.8172" gradientUnits="userSpaceOnUse">
<stop stop-color="#94938C"/>
<stop offset="0.2296" stop-color="#EDEBE1"/>
<stop offset="0.7876" stop-color="#EDEBE1"/>
<stop offset="1" stop-color="#94938C"/>
</linearGradient>
</defs>
</svg>
