<svg width="25" height="59" viewBox="0 0 25 59" fill="none" xmlns="http://www.w3.org/2000/svg">
<path d="M12.3664 0.793881C10.8135 2.31956 10.0395 5.57279 9.25781 7.55894C6.86783 13.6308 5.05131 19.9368 3.99877 26.3802C3.47477 29.5872 3.13995 32.8259 3.01246 36.0732C2.94804 37.7064 2.9358 39.3414 2.97709 40.9755C3.01066 42.3129 2.79016 44.2578 3.34592 45.4709C4.03007 44.6979 4.51733 43.7683 5.2414 43.0247C7.01166 41.2064 9.30047 39.9062 11.8851 39.9049C12.9762 39.9044 14.0482 40.1258 15.0676 40.4983C15.4814 40.6493 15.8861 40.8249 16.2803 41.0209C17.4304 41.5925 18.8146 43.3178 20.0381 43.4108C20.2169 41.0186 19.6121 38.3338 19.3844 35.9348C19.3844 29.8448 18.1812 23.4132 17.2698 17.4044C16.9958 15.597 16.5834 13.8136 16.6215 11.9808C16.6609 10.0886 16.8733 8.19862 16.7449 6.30502C16.6297 4.60967 16.4173 0.51533 14.0822 0.255379C13.6231 0.204115 13.1712 0.374237 12.7407 0.54164C12.6028 0.59608 12.4789 0.68364 12.3664 0.793881Z" fill="url(#paint0_linear_82_7426)"/>
<path d="M10.2128 45.5249C10.2128 45.5249 15.0298 44.8358 19.493 48.2868L21.1534 49.7993C21.539 50.2103 24.011 53.1954 24.011 53.1954V57.5111L22.1964 56.2863L19.0661 55.6965L16.8885 55.2428L14.6669 53.8043L11.8528 55.4697L11.0362 57.9194L8.17807 58.5092L5.18387 56.8306L3.9136 58.1463L0.375 58.1395C0.375454 58.1395 5.30772 46.0262 10.2128 45.5249Z" fill="black"/>
<path d="M11.7357 49.4171C7.48932 49.9592 3.09502 54.8185 0.109375 58.8824C0.705959 50.9169 2.88815 40.9851 9.88655 38.7154C9.88655 38.7154 20.6682 36.9193 24.0312 53.119C17.825 48.3287 11.7357 49.4171 11.7357 49.4171Z" fill="url(#paint1_linear_82_7426)"/>
<defs>
<linearGradient id="paint0_linear_82_7426" x1="6.6797" y1="22.8241" x2="20.1611" y2="23.0651" gradientUnits="userSpaceOnUse">
<stop stop-color="#BFAB8D"/>
<stop offset="0.5078" stop-color="#E7E1D2"/>
<stop offset="1" stop-color="#CCBFA6"/>
</linearGradient>
<linearGradient id="paint1_linear_82_7426" x1="28.686" y1="48.7573" x2="-4.55346" y2="48.7742" gradientUnits="userSpaceOnUse">
<stop stop-color="#94938C"/>
<stop offset="0.2296" stop-color="#EDEBE1"/>
<stop offset="0.7876" stop-color="#EDEBE1"/>
<stop offset="1" stop-color="#94938C"/>
</linearGradient>
</defs>
</svg>
