<svg width="25" height="43" viewBox="0 0 25 43" fill="none" xmlns="http://www.w3.org/2000/svg">
<path d="M6.22939 2.95907C5.69587 1.22332 7.31275 0.406725 8.68963 1.37259C11.3513 3.23945 12.7404 6.40427 13.9531 9.30686C14.5147 10.6511 17.004 15.347 15.4225 16.6114C13.8533 17.8658 8.1965 15.9885 8.12527 12.885C8.08671 11.2009 8.14205 9.50693 7.91658 7.83334C7.6716 6.01457 6.75247 4.65943 6.22939 2.95907Z" fill="url(#paint0_linear_83_8091)"/>
<path d="M22.0192 26.8843C22.9814 20.5765 22.966 12.9658 20.1623 7.12798C19.5109 5.77106 18.6239 4.52982 17.5674 3.45825C17.1527 3.0377 14.6825 0.512579 14.1635 1.13411C13.6341 1.76788 14.1127 3.18424 14.2066 3.88879C14.3636 5.06788 14.5124 6.24785 14.6353 7.43102C14.8844 9.83138 15.5045 12.4323 14.8558 14.8208C14.7129 15.3466 14.3826 15.8666 13.8646 16.0349C13.591 16.1238 13.2929 16.1056 13.0121 16.0448C11.2347 15.6597 9.94851 13.8677 8.85563 12.553C7.29275 10.6734 6.39584 8.56203 5.61509 6.2642C5.23582 5.14817 4.80213 4.0639 3.84898 3.32033C3.61943 3.14113 1.3706 0.381924 1.01674 0.46676C-0.148276 0.745313 0.254131 3.88833 0.296322 4.60285C0.622961 10.1594 4.69688 20.0203 4.69688 20.0203C4.69688 20.0203 5.67725 26.2302 4.69688 28.1914C3.71651 30.1526 20.7122 30.153 22.0192 26.8843Z" fill="url(#paint1_linear_83_8091)"/>
<path d="M23.0003 27.8634C22.9998 27.863 20.3854 24.9219 14.5022 24.9219C8.61909 24.9219 4.37004 26.8831 3.38967 29.4975C2.4093 32.1125 2.08221 39.3026 5.67752 40.6101C6.81486 41.0238 8.06516 41.1263 9.09044 40.3932C9.96738 39.7662 10.314 38.6139 11.6328 39.0413C12.2076 39.2273 12.6817 39.6306 13.1689 39.9881C15.3111 41.5596 18.9518 43.1896 21.3916 41.3345C24.727 38.7986 25.9047 31.1312 23.0003 27.8634Z" fill="url(#paint2_linear_83_8091)"/>
<path d="M22.9772 22.4685C22.9772 22.4685 23.1133 8.31396 18.8489 4.41239L16.3991 1.82647L14.6751 0.91913L13.9493 0.873763C13.9493 0.873763 13.7678 1.2367 13.7224 1.3728C13.6771 1.5089 13.8132 4.86606 13.8132 4.86606L14.9382 10.4979L12.9058 6.09097L11.4541 3.86799L8.8682 1.05523L7.9155 0.737661L6.78133 0.91913L6.19156 1.46353L6.01009 2.09867L6.78133 5.41047L7.77939 9.9018L7.68866 10.6277L6.28229 7.31588L5.37496 5.00216L3.78713 3.05138C3.78713 3.05138 1.0574 0.0544337 0.645929 0.238624C0.234453 0.422814 -0.125305 3.50505 0.101529 5.04753C0.202243 5.73303 0.830571 7.8562 1.19033 10.1286C1.63991 12.9695 3.60566 17.0698 3.60566 17.0698L5.01203 21.425C5.01203 21.425 15.8547 18.7484 22.9772 22.4685Z" fill="#B46766"/>
<defs>
<linearGradient id="paint0_linear_83_8091" x1="12.7789" y1="17.5021" x2="5.56809" y2="-17.9178" gradientUnits="userSpaceOnUse">
<stop offset="0.1599" stop-color="#BFAB8D"/>
<stop offset="0.5078" stop-color="#E7E1D2"/>
<stop offset="0.7297" stop-color="#CCBFA6"/>
</linearGradient>
<linearGradient id="paint1_linear_83_8091" x1="27.966" y1="14.9185" x2="0.873109" y2="15.0163" gradientUnits="userSpaceOnUse">
<stop offset="0.1599" stop-color="#BFAB8D"/>
<stop offset="0.5078" stop-color="#E7E1D2"/>
<stop offset="0.7297" stop-color="#CCBFA6"/>
</linearGradient>
<linearGradient id="paint2_linear_83_8091" x1="29.6199" y1="33.4947" x2="-2.5574" y2="33.6109" gradientUnits="userSpaceOnUse">
<stop stop-color="#94938C"/>
<stop offset="0.2296" stop-color="#EDEBE1"/>
<stop offset="0.7988" stop-color="#EDEBE1"/>
<stop offset="1" stop-color="#94938C"/>
</linearGradient>
</defs>
</svg>
