<svg width="19" height="62" viewBox="0 0 19 62" fill="none" xmlns="http://www.w3.org/2000/svg">
<path d="M6.62003 35.7759C6.62003 35.7759 3.35177 37.0833 2.37093 44.6006C2.37093 44.6006 1.39057 52.4449 1.06348 54.7328C0.736833 57.0206 0.736835 59.9622 4.33173 60.9425C7.92708 61.9229 11.1953 61.2692 13.1565 60.6159C15.1178 59.9626 18.0594 58.001 18.7126 55.7131C19.3664 53.4253 18.7127 42.3128 17.7323 40.3516C16.7519 38.3908 14.464 33.161 6.62003 35.7759Z" fill="url(#paint0_linear_83_8171)"/>
<path d="M9.89087 4.72528C9.89087 4.72528 2.71647 20.4104 5.64994 36.9175C5.64994 36.9175 16.0522 35.6845 16.5667 38.5081C15.1077 31.6409 14.4068 24.414 14.6939 17.4039C14.8105 14.5599 15.011 11.7199 15.0909 8.87452C15.1426 7.02174 15.4647 4.90495 14.6694 3.1792C14.3355 2.45378 13.7834 1.38765 12.8774 1.30281C11.3399 1.159 10.3518 3.66506 9.89087 4.72528Z" fill="url(#paint1_linear_83_8171)"/>
<path d="M15.3646 19.4797L15.8123 11.8409C15.8123 11.8409 15.0665 1.6684 14.4559 1.12581C13.8457 0.58323 13.642 0.176284 13.0658 0.142259C12.4897 0.108234 11.6758 0.616791 11.6758 0.616791L10.896 1.32905L8.38674 8.11044L5.74182 17.1638L4.93023 23.2452L4.47656 35.1766C4.47656 35.1766 6.44049 23.834 10.2381 23.5627C14.0358 23.2914 15.8182 31.9555 15.8182 31.9555L15.3646 19.4797Z" fill="#B46766"/>
<defs>
<linearGradient id="paint0_linear_83_8171" x1="-3.54553" y1="48.9001" x2="22.4652" y2="47.5969" gradientUnits="userSpaceOnUse">
<stop stop-color="#94938C"/>
<stop offset="0.1599" stop-color="#D1CFC6"/>
<stop offset="0.2296" stop-color="#EDEBE1"/>
<stop offset="0.7988" stop-color="#EDEBE1"/>
<stop offset="0.9762" stop-color="#9F9E96"/>
<stop offset="1" stop-color="#94938C"/>
</linearGradient>
<linearGradient id="paint1_linear_83_8171" x1="13.9375" y1="19.9152" x2="4.95641" y2="20.0757" gradientUnits="userSpaceOnUse">
<stop stop-color="#BFAB8D"/>
<stop offset="0.5078" stop-color="#E7E1D2"/>
<stop offset="1" stop-color="#CCBFA6"/>
</linearGradient>
</defs>
</svg>
