<svg width="20" height="58" viewBox="0 0 20 58" fill="none" xmlns="http://www.w3.org/2000/svg">
<path d="M9.97656 56.2794C9.97656 56.2794 15.3226 57.1146 17.0638 54.2732C18.8046 51.4318 10.5264 54.5904 9.97656 56.2794Z" fill="#D8D6D0"/>
<path d="M15.3424 38.3564C15.3424 38.3564 15.0153 27.2439 14.035 24.3023C13.0547 21.3607 12.0739 11.5556 12.401 8.94071C12.7276 6.32578 12.7276 2.40382 12.7276 2.40382C12.7276 2.40382 13.0542 -0.537733 10.1129 1.75011C7.17156 4.03794 3.57654 15.1505 3.90361 19.7262C4.23023 24.3018 4.33365 38.0906 4.28193 38.0602C4.23022 38.0298 15.3424 38.3564 15.3424 38.3564Z" fill="url(#paint0_linear_83_8048)"/>
<path d="M4.55463 37.0513C4.55463 37.0513 -2.96261 48.1637 2.59342 54.0468C3.2721 54.7654 4.33956 55.2708 5.16659 55.7966C6.02038 56.3396 6.93093 57.0936 7.97209 57.2111C9.16568 57.3463 10.0394 56.0974 11.2126 55.8538C13.0776 55.4663 14.9027 55.773 16.4955 54.501C17.8107 53.4507 18.6082 51.8134 18.8791 50.1739C19.2166 48.1283 18.8673 46.0497 18.4599 44.0413C18.2861 43.1853 17.9903 42.3705 17.6442 41.5689C17.2758 40.7141 16.6103 39.8799 16.3208 39.0115C16.3208 39.012 13.7059 31.1682 4.55463 37.0513Z" fill="url(#paint1_linear_83_8048)"/>
<path d="M14.114 19.4797L12.753 11.0869C12.753 11.0869 13.816 1.6684 13.2053 1.12581C12.5951 0.58323 12.3915 0.176284 11.8153 0.142259C11.2391 0.108234 10.4253 0.616791 10.4253 0.616791L9.64541 1.32905L6.22022 7.77518L3.67969 15.8958V23.2452L4.22409 33.9517C4.22409 33.9517 5.18994 23.834 8.98759 23.5627C12.7852 23.2914 15.7472 31.5472 15.7472 31.5472L14.114 19.4797Z" fill="#B46766"/>
<defs>
<linearGradient id="paint0_linear_83_8048" x1="14.4424" y1="19.6654" x2="1.55085" y2="19.2684" gradientUnits="userSpaceOnUse">
<stop stop-color="#BFAB8D"/>
<stop offset="0.5078" stop-color="#E7E1D2"/>
<stop offset="1" stop-color="#CCBFA6"/>
</linearGradient>
<linearGradient id="paint1_linear_83_8048" x1="22.5909" y1="46.4473" x2="-4.13513" y2="45.624" gradientUnits="userSpaceOnUse">
<stop stop-color="#94938C"/>
<stop offset="0.0311" stop-color="#A6A59D"/>
<stop offset="0.0939" stop-color="#C5C3BB"/>
<stop offset="0.1552" stop-color="#DBD9D0"/>
<stop offset="0.2138" stop-color="#E8E7DD"/>
<stop offset="0.2666" stop-color="#EDEBE1"/>
<stop offset="0.7117" stop-color="#EDEBE1"/>
<stop offset="0.7637" stop-color="#E7E5DB"/>
<stop offset="0.835" stop-color="#D5D3CA"/>
<stop offset="0.9175" stop-color="#B8B7AF"/>
<stop offset="1" stop-color="#94938C"/>
</linearGradient>
</defs>
</svg>
