<svg width="24" height="42" viewBox="0 0 24 42" fill="none" xmlns="http://www.w3.org/2000/svg">
<path d="M9.35156 39.1173C9.35156 39.1173 11.801 42.7051 15.524 40.2618C19.247 37.8185 11.2716 37.427 9.35156 39.1173Z" fill="#D8D6D0"/>
<path d="M13.7836 3.53872C14.3044 1.79937 16.1029 2.01848 16.7108 3.58635C17.8863 6.61729 17.2829 10.0207 16.6786 13.1079C16.3987 14.5374 15.8588 19.8249 13.8412 19.9977C11.8395 20.1687 8.17918 15.4651 9.84422 12.8448C10.7475 11.4234 11.7352 10.0457 12.4775 8.52905C13.2846 6.88088 13.2736 5.2436 13.7836 3.53872Z" fill="url(#paint0_linear_83_8077)"/>
<path d="M3.32958 26.8387C3.39491 26.8754 3.60359 26.4091 3.79095 26.4295C4.03547 26.4558 4.34033 26.3705 4.58486 26.3456C5.42957 26.2603 6.27563 26.1863 7.12216 26.1224C9.47393 25.945 11.8366 25.837 14.1956 25.8846C15.8365 25.9177 17.5024 26.0049 19.1115 26.3483C20.1054 26.5601 21.4133 26.8754 22.0212 27.7792C22.0212 27.7792 20.6517 22.263 21.6325 18.014C22.6133 13.7649 23.9203 2.32572 21.3054 1.99863C19.6618 1.79312 18.4228 5.61571 17.9941 6.67911C16.8573 9.4991 15.9672 12.5133 15.161 15.4757C15.1383 15.5583 15.1152 15.6431 15.0648 15.7121C14.6234 16.3227 13.091 16.565 12.4994 16.1567C12.004 15.8146 11.8815 15.1472 11.8008 14.5502C11.6574 13.4909 11.5141 12.4316 11.3707 11.3723C11.03 8.85535 10.687 6.32207 10.7478 3.77564C10.7646 3.07654 11.5612 -0.483826 9.86591 0.364078C7.01784 1.78814 5.39375 5.72685 4.60302 8.55365C3.5342 12.3731 3.4947 16.4602 3.34726 20.3989C3.27967 22.2045 3.1894 24.035 3.3069 25.8406C3.33004 26.194 3.23568 26.7861 3.32958 26.8387Z" fill="url(#paint1_linear_83_8077)"/>
<path d="M4.42481 25.6871C5.30174 25.0796 6.47626 25.007 7.49472 24.8033C9.02855 24.4962 10.576 24.2404 12.1393 24.146C15.5848 23.9373 19.3742 24.5692 21.6897 27.3724C22.5058 28.36 23.0797 29.5427 23.3674 30.7903C23.6908 32.1948 23.4299 33.1022 22.9826 34.4291C22.5725 35.6454 22.0372 36.9624 21.3758 38.0639C20.6585 39.2579 19.5113 40.2918 18.0686 40.2709C16.5058 40.2482 14.9783 39.6367 13.9344 38.4517C13.8795 38.3896 13.8233 38.3238 13.7461 38.2925C13.6541 38.2553 13.5501 38.2748 13.454 38.297C11.3535 38.7784 9.24722 40.1521 7.30918 41.0807C6.38281 41.5244 5.85337 41.6596 4.9152 41.1669C3.74476 40.5522 2.63013 39.7964 1.76364 38.7979C-0.799084 35.8445 0.177638 31.6486 2.05125 28.6032C2.64282 27.6419 3.37546 26.5277 4.26191 25.81C4.31454 25.7665 4.36901 25.7256 4.42481 25.6871Z" fill="url(#paint2_linear_83_8077)"/>
<path d="M21.5061 21.4623C21.5061 21.4623 22.1063 14.6496 22.6062 13.1602C23.1062 11.6709 23.5353 2.04722 21.2734 1.95558C19.011 1.86394 17.7861 6.12841 17.7861 6.12841C17.7861 6.12841 16.8257 1.97736 15.0833 2.14748C13.397 2.40834 13.6102 4.53695 12.898 6.53671C12.2411 8.38041 11.4009 9.93921 11.4009 9.93921L10.9287 6.60294L11.2081 3.54251L10.8906 0.412206L10.3462 0.00390625L9.62035 0.140006L7.98719 1.36491L6.18754 3.86324L4.9477 6.12841C4.9477 6.12841 3.54908 11.0942 3.65841 12.1272C3.76774 13.1602 3.13308 19.4662 3.13308 19.4662L2.90625 22.6419C2.90625 22.6419 7.53353 20.1921 12.7052 20.6004C17.8769 21.0087 21.6876 24.3204 21.6876 24.3204L21.5061 21.4623Z" fill="#B46766"/>
<defs>
<linearGradient id="paint0_linear_83_8077" x1="11.0936" y1="19.2754" x2="24.7805" y2="-14.1771" gradientUnits="userSpaceOnUse">
<stop offset="0.1599" stop-color="#BFAB8D"/>
<stop offset="0.5078" stop-color="#E7E1D2"/>
<stop offset="0.7297" stop-color="#CCBFA6"/>
</linearGradient>
<linearGradient id="paint1_linear_83_8077" x1="22.1693" y1="16.2869" x2="4.48055" y2="12.9315" gradientUnits="userSpaceOnUse">
<stop offset="0.1599" stop-color="#BFAB8D"/>
<stop offset="0.5078" stop-color="#E7E1D2"/>
<stop offset="0.7297" stop-color="#CCBFA6"/>
</linearGradient>
<linearGradient id="paint2_linear_83_8077" x1="-5.04563" y1="32.7569" x2="28.2392" y2="32.8413" gradientUnits="userSpaceOnUse">
<stop stop-color="#94938C"/>
<stop offset="0.2296" stop-color="#EDEBE1"/>
<stop offset="0.7988" stop-color="#EDEBE1"/>
<stop offset="1" stop-color="#94938C"/>
</linearGradient>
</defs>
</svg>
