<svg width="27" height="49" viewBox="0 0 27 49" fill="none" xmlns="http://www.w3.org/2000/svg">
<path d="M10.7714 42.624C10.5695 44.5811 11.8393 45.0261 12.7403 43.6624C14.4828 41.0267 15.1552 37.352 15.7268 33.9981C15.9917 32.4447 17.3019 26.8842 16.0099 25.9601C14.7278 25.0433 10.7982 28.4525 11.0817 31.7271C11.2355 33.5036 11.4596 35.267 11.476 37.0803C11.4946 39.0505 10.9697 40.7064 10.7714 42.624Z" fill="url(#paint0_linear_83_8136)"/>
<path d="M22.4015 19.7732C21.716 21.7316 21.1634 23.7758 20.8445 25.8264C20.6299 27.2065 20.6617 28.4332 20.8713 29.7992C21.2238 32.0947 21.2492 34.4906 21.1503 36.8061C20.9961 40.4177 19.2635 43.1379 17.8785 46.3866C17.3695 47.5802 16.1922 48.2067 15.1252 47.1084C13.7715 45.7156 14.1367 42.7881 14.0827 41.0215C14.0092 38.6035 13.9602 36.1687 13.4766 33.7892C13.2683 32.7648 12.9757 31.7436 12.4409 30.8453C11.9092 29.952 10.9265 29.5166 9.98516 30.1599C8.73169 31.0164 8.44906 32.8927 8.01627 34.2283C7.61024 35.4809 7.24233 36.7457 6.88711 38.0137C6.38536 39.8043 5.92126 41.6063 5.4431 43.4033C5.24485 44.1473 4.59791 45.8948 3.50413 45.1353C3.13484 44.8786 2.95248 44.434 2.79869 44.0116C2.29376 42.6225 1.89045 41.1994 1.48805 39.7776C0.948641 37.8726 0.452327 35.9731 0.336189 33.9892C0.17786 31.2845 1.24352 28.6119 1.76432 25.9938C2.31779 23.2115 2.66349 20.3879 2.79596 17.5543C2.80458 17.3678 2.81909 17.165 2.94476 17.0271C3.11488 16.8411 3.40658 16.8556 3.65655 16.8842C6.72831 17.2362 9.80643 17.5225 12.875 17.9063C14.9514 18.1645 17.0306 18.4376 19.0889 18.8168C19.9962 18.9838 21.6988 19.0704 22.4015 19.7732Z" fill="url(#paint1_linear_83_8136)"/>
<path d="M24.7991 15.527C24.9017 14.3003 24.8735 13.0573 25.1072 11.8455C25.4719 9.95425 26.4269 8.30659 26.2917 6.30279C25.966 1.47861 19.224 1.10569 15.8342 2.4417C14.4246 2.99698 13.8462 2.47258 12.6612 1.72405C11.3774 0.912914 9.86258 0.488281 8.34506 0.488281C6.60978 0.488281 4.69483 0.981836 3.2127 1.89368C1.02012 3.24286 1.02194 5.45626 0.871326 7.77943C0.704829 10.3489 0.7638 12.9956 1.61352 15.453C1.87347 16.2052 2.21782 16.9442 2.7595 17.5271C3.52982 18.356 4.5102 18.4653 5.55046 18.7048C6.97044 19.0319 8.4063 19.3087 9.83762 19.5795C12.6445 20.1107 15.4776 20.543 18.3335 20.6864C19.6877 20.7544 21.09 20.617 22.2926 19.9905C24.0347 19.0841 24.6449 17.3783 24.7991 15.527Z" fill="url(#paint2_linear_83_8136)"/>
<path d="M21.5854 23.9138C21.5854 23.9138 17.0034 27.4524 11.3779 26.7719C5.75246 26.0914 2.4407 21.5547 2.4407 21.5547L0.943608 28.3143C0.943608 28.3143 0.12701 32.5334 0.0816437 33.1686C0.0362772 33.8037 0.444576 37.7052 0.444576 37.7052L2.0324 43.2853L3.43877 45.599L5.20806 45.7805L7.24956 39.2477L8.29073 34.2047L8.98301 32.0675L10.1076 30.8549L10.9242 30.9456L10.8335 32.7149L11.015 35.4823L11.1057 37.5238L10.6974 39.3384L10.5159 41.9243L10.2891 43.1946L10.5613 44.0566L11.6047 44.9185L13.2379 43.6029L13.7823 42.5595L13.6462 44.238L13.9638 46.0527L14.5082 47.0961L15.597 48.1396L17.2756 48.0035L19.2263 45.6898L20.8141 41.5614L21.7215 36.5257L21.5854 23.9138Z" fill="#B46766"/>
<defs>
<linearGradient id="paint0_linear_83_8136" x1="13.958" y1="25.6948" x2="16.0676" y2="64.4995" gradientUnits="userSpaceOnUse">
<stop offset="0.1599" stop-color="#BFAB8D"/>
<stop offset="0.5078" stop-color="#E7E1D2"/>
<stop offset="0.7297" stop-color="#CCBFA6"/>
</linearGradient>
<linearGradient id="paint1_linear_83_8136" x1="19.8748" y1="33.6646" x2="2.38077" y2="30.2604" gradientUnits="userSpaceOnUse">
<stop stop-color="#BFAB8D"/>
<stop offset="0.5078" stop-color="#E7E1D2"/>
<stop offset="1" stop-color="#CCBFA6"/>
</linearGradient>
<linearGradient id="paint2_linear_83_8136" x1="31.1073" y1="13.7533" x2="-1.57671" y2="7.39312" gradientUnits="userSpaceOnUse">
<stop stop-color="#94938C"/>
<stop offset="0.2525" stop-color="#EDEBE1"/>
<stop offset="0.6733" stop-color="#EDEBE1"/>
<stop offset="0.7762" stop-color="#EAE8DF"/>
<stop offset="0.8387" stop-color="#E2E0D7"/>
<stop offset="0.8905" stop-color="#D4D2C9"/>
<stop offset="0.9364" stop-color="#BFBEB5"/>
<stop offset="0.978" stop-color="#A5A49C"/>
<stop offset="1" stop-color="#94938C"/>
</linearGradient>
</defs>
</svg>
