<svg width="30" height="50" viewBox="0 0 30 50" fill="none" xmlns="http://www.w3.org/2000/svg">
<path d="M20.5414 0.121995C21.8544 0.211371 22.8679 0.59652 23.9458 1.33694C24.2375 1.53747 24.5138 1.7793 24.4561 2.06603C24.1876 3.40531 14.3121 2.32917 14.4069 1.15458C14.4659 0.456805 17.6774 0.269888 18.3965 0.192308C19.2081 0.104746 19.9095 0.0788948 20.5414 0.121995Z" fill="#D8D6D0"/>
<path d="M11.1899 0.121995C12.5028 0.211371 13.5163 0.59652 14.5942 1.33694C14.8859 1.53747 15.1622 1.7793 15.1046 2.06603C14.836 3.40531 4.96055 2.32917 5.05537 1.15458C5.11434 0.456805 8.32589 0.269888 9.04495 0.192308C9.85656 0.104746 10.5579 0.0788948 11.1899 0.121995Z" fill="#D8D6D0"/>
<path d="M10.3706 45.4876C9.69509 47.6515 11.2902 48.5344 12.7719 47.2523C15.6364 44.7735 17.2941 40.7971 18.7522 37.1547C19.4273 35.468 22.3258 29.5367 20.8005 28.1031C19.2871 26.6809 13.3544 29.3897 13.0504 33.1955C12.8858 35.2602 12.8164 37.3307 12.4611 39.3962C12.0746 41.641 11.0325 43.3676 10.3706 45.4876Z" fill="url(#paint0_linear_83_8130)"/>
<path d="M27.1494 20.2162C26.9615 20.9906 26.795 21.7786 26.7583 21.931C26.443 23.2389 26.1694 24.5568 25.9499 25.8847C25.7707 26.9694 25.6273 28.06 25.5207 29.1547C25.4172 30.2154 25.5075 31.3831 25.3052 32.4229C25.106 33.4478 24.7408 34.5229 24.3956 35.5128C23.3589 38.4857 21.7888 41.2521 19.9242 43.7808C18.9888 45.0493 17.9771 46.261 16.9091 47.4201C16.2531 48.1324 14.8586 50.241 13.6994 49.365C13.2644 49.0361 13.0897 48.4495 13.1178 47.9047C13.146 47.3598 13.3456 46.8408 13.5347 46.3291C14.9919 42.3808 16.3774 37.4922 15.5581 33.2558C15.4728 32.8144 15.3395 32.3585 15.0228 32.0396C14.6077 31.6218 13.943 31.5278 13.3751 31.6844C12.8071 31.8409 12.3225 32.2124 11.8997 32.6225C10.4484 34.0311 9.41724 36.0114 8.53032 37.8125C7.85889 39.1762 7.36575 40.6292 7.08221 42.1232C6.81092 43.5531 7.04138 45.2526 6.46703 46.5945C6.14538 47.3462 5.42814 47.9913 4.61062 47.9677C3.97413 47.9496 3.41068 47.5399 2.99104 47.0608C1.44494 45.2956 1.14869 42.4829 1.05841 40.2323C0.944988 37.396 1.34875 34.5697 1.78835 31.7755C2.38674 27.972 3.1557 24.1934 4.0145 20.4403C4.04761 20.2946 4.51491 17.927 4.60927 17.9297C4.60927 17.9297 27.4842 18.5644 27.6942 18.5703C27.5772 18.5685 27.3508 19.3846 27.1494 20.2162Z" fill="url(#paint1_linear_83_8130)"/>
<path d="M25.191 0.993934C26.1442 1.0892 27.042 1.45621 27.8155 2.26283C28.8122 3.30218 29.3112 4.74392 29.4346 6.17841C29.6991 9.25609 29.1724 12.9163 28.4034 15.8978C28.1594 16.8441 28.1349 18.833 27.4852 19.5634C25.4637 21.8358 21.0218 20.7303 18.3339 20.5438C15.2553 20.3301 11.9408 20.228 9.18247 19.5634C7.35646 19.4718 4.00342 19.876 3.44904 17.4611C2.8139 14.6933 2.42284 11.8629 2.29219 9.0261C2.19419 6.90657 1.88478 1.66944 4.93161 1.26069C5.37756 1.2008 6.1302 1.70346 6.57706 1.80509C7.50934 2.01695 8.41894 1.98793 9.34442 1.74204C10.4827 1.4399 11.5397 0.895469 12.6308 0.452236C12.8681 0.356059 13.1149 0.263078 13.3707 0.269883C13.9537 0.285762 14.382 0.790702 14.8483 1.14093C16.8113 2.61626 20.33 1.85089 22.4972 1.28425C23.4068 1.04608 24.3223 0.90683 25.191 0.993934Z" fill="url(#paint2_linear_83_8130)"/>
<path d="M26.1677 28.9912C26.1677 28.9912 26.1677 33.7547 24.1262 37.5201C22.0847 41.2856 19.5441 45.3686 19.5441 45.3686L15.5523 49.4516L13.5104 49.7238L12.6938 48.3628L10.6105 47.9059L9.74494 46.911L11.4235 40.2875L12.6484 32.802C12.6484 32.802 10.4708 35.025 9.83567 36.2499C9.20054 37.4748 8.38394 40.2421 8.24784 40.469C8.11174 40.6958 7.47661 44.3705 7.47661 44.3705L6.34244 47.4554L4.48241 48.4535L1.85114 46.3213L1.17064 43.8261C1.17064 43.8261 0.898438 34.163 0.898438 34.0269C0.898438 33.8908 2.37057 27.0046 2.37057 27.0046L3.75654 21.3242C3.75654 21.3242 8.86029 25.9117 14.6899 26.6775C20.5195 27.4433 26.8028 24.9762 26.7574 25.0443C26.6667 25.1804 26.1677 28.9912 26.1677 28.9912Z" fill="#B46766"/>
<defs>
<linearGradient id="paint0_linear_83_8130" x1="18.1231" y1="27.191" x2="10.3616" y2="71.4829" gradientUnits="userSpaceOnUse">
<stop offset="0.1599" stop-color="#BFAB8D"/>
<stop offset="0.5078" stop-color="#E7E1D2"/>
<stop offset="0.7297" stop-color="#CCBFA6"/>
</linearGradient>
<linearGradient id="paint1_linear_83_8130" x1="25.1073" y1="33.6966" x2="2.58017" y2="33.778" gradientUnits="userSpaceOnUse">
<stop stop-color="#BFAB8D"/>
<stop offset="0.5078" stop-color="#E7E1D2"/>
<stop offset="1" stop-color="#CCBFA6"/>
</linearGradient>
<linearGradient id="paint2_linear_83_8130" x1="36.6045" y1="10.5571" x2="-2.14934" y2="10.6971" gradientUnits="userSpaceOnUse">
<stop stop-color="#94938C"/>
<stop offset="0.2296" stop-color="#EDEBE1"/>
<stop offset="0.8411" stop-color="#EDEBE1"/>
<stop offset="1" stop-color="#94938C"/>
</linearGradient>
</defs>
</svg>
