<svg width="24" height="42" viewBox="0 0 24 42" fill="none" xmlns="http://www.w3.org/2000/svg">
<path d="M6.79688 38.9689C6.79688 38.9689 9.24625 42.557 12.9691 40.1135C16.692 37.67 8.71682 37.2785 6.79688 38.9689Z" fill="#D8D6D0"/>
<path d="M9.75471 3.53872C9.23391 1.79937 7.4356 2.01848 6.8277 3.58635C5.65226 6.61729 6.25563 10.0207 6.8599 13.1079C7.13981 14.5374 7.67967 19.8249 9.6971 19.9977C11.6986 20.1687 15.3588 15.4651 13.6939 12.8448C12.7906 11.4234 11.803 10.0457 11.0608 8.52905C10.2533 6.88088 10.2646 5.2436 9.75471 3.53872Z" fill="url(#paint0_linear_83_8081)"/>
<path d="M20.215 26.8387C20.1497 26.8754 19.941 26.4091 19.7536 26.4295C19.5091 26.4558 19.2042 26.3705 18.9597 26.3456C18.115 26.2603 17.2689 26.1863 16.4223 26.1224C14.0705 25.945 11.7078 25.837 9.34876 25.8846C7.70785 25.9177 6.04199 26.0049 4.43284 26.3483C3.43886 26.5601 2.13093 26.8754 1.52302 27.7792C1.52302 27.7792 2.89265 22.263 1.91182 18.014C0.930995 13.7649 -0.37602 2.32572 2.23891 1.99863C3.88255 1.79312 5.1215 5.61571 5.55021 6.67911C6.6871 9.4991 7.57721 12.5133 8.38337 15.4757C8.40605 15.5583 8.4292 15.6431 8.47955 15.7121C8.92097 16.3227 10.4534 16.565 11.045 16.1567C11.5404 15.8146 11.6629 15.1472 11.7437 14.5502C11.887 13.4909 12.0304 12.4316 12.1737 11.3723C12.5144 8.85535 12.8574 6.32207 12.7966 3.77564C12.7798 3.07654 11.9832 -0.483826 13.6786 0.364078C16.5267 1.78814 18.1508 5.72685 18.942 8.55365C20.0108 12.3731 20.0503 16.4602 20.1978 20.3989C20.2653 22.2045 20.3556 24.035 20.2381 25.8406C20.2145 26.194 20.3084 26.7861 20.215 26.8387Z" fill="url(#paint1_linear_83_8081)"/>
<path d="M19.1182 25.6871C18.2413 25.0796 17.0667 25.007 16.0483 24.8033C14.5144 24.4962 12.967 24.2404 11.4037 24.146C7.95808 23.9373 4.16862 24.5692 1.85311 27.3724C1.03697 28.36 0.463088 29.5427 0.175464 30.7903C-0.147998 32.1948 0.112858 33.1022 0.560171 34.4291C0.970284 35.6454 1.5056 36.9624 2.16705 38.0639C2.88429 39.2579 4.0316 40.2918 5.47426 40.2709C7.03713 40.2482 8.56461 39.6367 9.6085 38.4517C9.66339 38.3896 9.71964 38.3238 9.79676 38.2925C9.88886 38.2553 9.99276 38.2748 10.0889 38.297C12.1899 38.7784 14.2958 40.1521 16.2334 41.0807C17.1598 41.5244 17.6892 41.6596 18.6274 41.1669C19.7978 40.5522 20.9125 39.7964 21.779 38.7979C24.3417 35.8445 23.365 31.6486 21.4913 28.6032C20.8998 27.6419 20.1671 26.5277 19.2806 25.81C19.228 25.7665 19.1736 25.7256 19.1182 25.6871Z" fill="url(#paint2_linear_83_8081)"/>
<path d="M2.00199 21.5052C2.00199 21.5052 1.45894 14.277 0.959004 12.7871C0.45952 11.2978 -0.0272552 2.08973 2.23471 1.99854C4.49713 1.9069 5.72203 6.17135 5.72203 6.17135C5.72203 6.17135 6.68244 2.02032 8.42496 2.19044C10.1679 2.36056 11.5743 7.84991 11.5743 7.84991L12.5796 6.64588L12.3001 3.58546L12.6177 0.455173L13.1621 0.046875L13.888 0.182974L15.5212 1.40787L17.3213 3.90619L18.5607 6.17135C18.5607 6.17135 19.9593 11.1372 19.85 12.1702C19.7407 13.2031 20.3754 19.5091 20.3754 19.5091L20.6022 22.6847C20.6022 22.6847 15.9748 20.2349 10.8031 20.6432C5.63129 21.0515 1.82052 24.3633 1.82052 24.3633L2.00199 21.5052Z" fill="#B46766"/>
<defs>
<linearGradient id="paint0_linear_83_8081" x1="12.4426" y1="19.2726" x2="-1.24492" y2="-14.1794" gradientUnits="userSpaceOnUse">
<stop offset="0.1599" stop-color="#BFAB8D"/>
<stop offset="0.5078" stop-color="#E7E1D2"/>
<stop offset="0.7297" stop-color="#CCBFA6"/>
</linearGradient>
<linearGradient id="paint1_linear_83_8081" x1="1.37481" y1="16.2869" x2="19.0638" y2="12.9314" gradientUnits="userSpaceOnUse">
<stop offset="0.1599" stop-color="#BFAB8D"/>
<stop offset="0.5078" stop-color="#E7E1D2"/>
<stop offset="0.7297" stop-color="#CCBFA6"/>
</linearGradient>
<linearGradient id="paint2_linear_83_8081" x1="28.0056" y1="32.7572" x2="-3.77657" y2="32.8379" gradientUnits="userSpaceOnUse">
<stop stop-color="#94938C"/>
<stop offset="0.2296" stop-color="#EDEBE1"/>
<stop offset="0.7988" stop-color="#EDEBE1"/>
<stop offset="1" stop-color="#94938C"/>
</linearGradient>
</defs>
</svg>
