<svg width="19" height="53" viewBox="0 0 19 53" fill="none" xmlns="http://www.w3.org/2000/svg">
<path d="M15.5516 21.5049C15.5516 21.5049 9.34194 46.9985 4.11218 51.247C-1.11714 55.496 1.49731 46.998 1.49731 46.998C1.49731 46.998 3.45847 31.3099 3.45847 28.3683C3.45847 25.4268 2.41869 19.918 2.41869 19.918C2.41869 19.918 12.4908 22.0869 15.5516 21.5049Z" fill="url(#paint0_linear_83_8117)"/>
<path d="M15.8759 2.21965C15.8759 2.21965 19.1441 3.85374 18.1637 8.4294C17.1834 13.0051 17.51 15.62 17.51 15.62C17.51 15.62 16.8563 23.4643 11.3003 23.7909C5.74379 24.1175 2.14898 20.8494 1.82189 18.8882C1.49525 16.927 1.49524 11.3709 1.16815 10.3901C0.84106 9.4093 -0.139308 3.19953 3.12934 2.21916C6.39798 1.23879 8.35872 0.911729 8.35872 0.911729C8.35872 0.911729 11.6274 -0.0681825 15.8759 2.21965Z" fill="url(#paint1_linear_83_8117)"/>
<path d="M13.869 29.708C13.869 29.708 10.5573 34.653 7.56308 33.9271C4.56888 33.2013 3.18611 26.9883 3.18611 26.9883L1.93762 39.2804L0.984917 46.9927L0.53125 50.985L0.93955 52.9811L3.20788 52.3006L6.97332 48.5352L10.6026 41.6395L13.869 29.708Z" fill="#B46766"/>
<defs>
<linearGradient id="paint0_linear_83_8117" x1="2.2926" y1="36.1781" x2="13.8488" y2="36.2199" gradientUnits="userSpaceOnUse">
<stop stop-color="#BFAB8D"/>
<stop offset="0.5078" stop-color="#E7E1D2"/>
<stop offset="1" stop-color="#CCBFA6"/>
</linearGradient>
<linearGradient id="paint1_linear_83_8117" x1="-2.37085" y1="12.2126" x2="21.132" y2="12.2975" gradientUnits="userSpaceOnUse">
<stop stop-color="#94938C"/>
<stop offset="0.2296" stop-color="#EDEBE1"/>
<stop offset="0.7988" stop-color="#EDEBE1"/>
<stop offset="1" stop-color="#94938C"/>
</linearGradient>
</defs>
</svg>
