<svg width="17" height="65" viewBox="0 0 17 65" fill="none" xmlns="http://www.w3.org/2000/svg">
<path d="M3.22656 23.0938C3.22656 23.0938 11.3974 27.0157 13.6852 23.7474C13.5949 26.959 13.54 30.1723 13.4978 33.3847C13.418 39.4934 13.3858 45.6079 13.564 51.7152C13.6266 53.8601 13.6765 56.0078 13.8816 58.1451C13.9859 59.2339 14.1297 60.3195 14.3353 61.3937C14.4296 61.8882 14.714 62.4708 14.485 62.9222C14.1801 63.5224 13.3925 63.6585 12.8423 63.3876C12.0679 63.0065 11.5589 62.0693 11.1746 61.3457C10.2478 59.6 9.64988 57.6705 9.10912 55.7778C5.84098 44.3385 3.73012 26.6097 3.22656 23.0938Z" fill="url(#paint0_linear_83_8102)"/>
<path d="M1.96659 0.656707C2.73918 0.260203 3.94279 0.505183 4.78934 0.497924C6.35993 0.484768 7.93051 0.489285 9.50065 0.534651C11.255 0.585462 13.6944 0.384945 15.3167 1.1961C16.8746 1.97504 17.0402 3.92081 16.993 5.44921C16.8061 11.4866 16.4173 17.8411 13.982 23.4543C13.2688 25.0979 12.2735 26.7565 10.7156 27.7237C8.30162 29.2226 5.53833 28.3539 4.16235 25.954C3.06085 24.0332 2.63712 21.8188 2.40621 19.6467C2.23155 18.0021 2.34089 16.3453 2.2243 14.6976C2.10135 12.961 1.58917 11.2761 1.30925 9.55988C0.866929 6.84606 0.331568 4.01426 1.34279 1.36077C1.47254 1.01871 1.69212 0.797343 1.96659 0.656707Z" fill="url(#paint1_linear_83_8102)"/>
<path d="M4.61396 33.219C4.61396 33.219 6.90497 37.1886 9.71769 37.3701C12.5304 37.5515 13.9822 31.6992 13.9822 31.6992L13.7385 44.9381L14.1636 54.8816L15.1163 60.7793L15.1617 63.1383L14.209 64.091L12.349 63.7735L9.80843 59.8266L7.31327 50.2996L4.04688 33.3324L4.61396 33.219Z" fill="#B46766"/>
<defs>
<linearGradient id="paint0_linear_83_8102" x1="15.8651" y1="43.28" x2="6.63235" y2="43.3134" gradientUnits="userSpaceOnUse">
<stop stop-color="#BFAB8D"/>
<stop offset="0.5078" stop-color="#E7E1D2"/>
<stop offset="1" stop-color="#CCBFA6"/>
</linearGradient>
<linearGradient id="paint1_linear_83_8102" x1="19.7134" y1="14.3962" x2="-2.47971" y2="14.4764" gradientUnits="userSpaceOnUse">
<stop stop-color="#94938C"/>
<stop offset="0.2296" stop-color="#EDEBE1"/>
<stop offset="0.7988" stop-color="#EDEBE1"/>
<stop offset="1" stop-color="#94938C"/>
</linearGradient>
</defs>
</svg>
