<svg width="20" height="51" viewBox="0 0 20 51" fill="none" xmlns="http://www.w3.org/2000/svg">
<path d="M4 20.7271C4.80296 25.9834 6.21881 31.2355 8.062 36.2155C10.088 41.6885 12.6194 47.162 17.5411 50.5918C17.6604 50.6748 17.7883 50.761 17.9334 50.7683C18.0813 50.7755 18.2206 50.6989 18.339 50.6099C19.0172 50.1032 19.2663 49.1782 19.1964 48.3343C19.1265 47.4905 18.7899 46.6961 18.496 45.9022C16.7022 41.0597 16.2645 35.7304 15.7532 30.6289C15.4293 27.3993 14.6613 23.4405 15.4225 20.2208C16.2395 16.7652 4.50628 20.1129 4 20.7271Z" fill="url(#paint0_linear_83_8120)"/>
<path d="M14.1383 0.745219C13.4116 0.417668 12.6535 0.409949 11.6409 0.65856C11.3669 0.725704 11.0748 0.830029 10.926 1.06957C10.2287 2.18923 15.9484 4.33919 16.632 3.39964C17.0367 2.84071 15.511 1.72511 15.1917 1.44792C14.831 1.13443 14.4881 0.902643 14.1383 0.745219Z" fill="#D8D6D0"/>
<path d="M4.20318 0.931904C3.86521 1.03352 3.60887 1.14238 3.5009 1.23719C2.95469 1.71716 2.38719 2.22796 2.14266 2.91253C2.04467 3.18699 2.03421 3.55492 2.28372 3.70554C2.3681 3.75635 2.46883 3.77176 2.56682 3.77992C3.7114 3.87383 5.03562 3.12983 6.00373 2.5986C6.36213 2.40217 7.90322 1.6931 7.8329 1.13556C7.72584 0.290402 5.43033 0.563083 4.20318 0.931904Z" fill="#D8D6D0"/>
<path d="M2.18865 3.03844C2.18865 3.03844 -0.0992216 4.67254 1.20826 8.92159C1.862 14.8048 3.82324 20.6879 3.82324 20.6879C3.82324 20.6879 4.47696 21.6683 9.05268 21.6683C13.6284 21.6683 14.9359 21.0146 15.5896 19.7071C16.2434 18.3996 17.8775 5.97958 17.8775 5.97958C17.8775 5.97958 17.5504 3.03799 16.2434 2.71135C14.9359 2.38425 13.6284 2.05761 13.3018 2.05761C12.9747 2.05761 10.0336 0.0964214 8.72607 0.423516C7.41859 0.750611 4.14987 3.36554 2.18865 3.03844Z" fill="url(#paint1_linear_83_8120)"/>
<path d="M15.2844 25.2188C15.2844 25.2188 14.6493 31.2072 11.6551 32.6135C8.66086 34.0199 4.80469 26.1715 4.80469 26.1715C4.80469 26.1715 8.43403 38.6927 8.70623 39.1917C8.97843 39.6907 12.8346 46.8587 13.379 47.4484C13.9234 48.0382 16.4639 50.6241 16.4639 50.6241L18.4601 50.8963L19.322 49.8075L19.5035 47.6299L16.8269 37.4678L15.2844 25.2188Z" fill="#B46766"/>
<defs>
<linearGradient id="paint0_linear_83_8120" x1="7.22793" y1="34.6945" x2="17.594" y2="34.7319" gradientUnits="userSpaceOnUse">
<stop stop-color="#BFAB8D"/>
<stop offset="0.5078" stop-color="#E7E1D2"/>
<stop offset="1" stop-color="#CCBFA6"/>
</linearGradient>
<linearGradient id="paint1_linear_83_8120" x1="-2.82939" y1="10.985" x2="21.3029" y2="11.0722" gradientUnits="userSpaceOnUse">
<stop stop-color="#94938C"/>
<stop offset="0.2296" stop-color="#EDEBE1"/>
<stop offset="0.7988" stop-color="#EDEBE1"/>
<stop offset="1" stop-color="#94938C"/>
</linearGradient>
</defs>
</svg>
