<svg width="25" height="40" viewBox="0 0 25 40" fill="none" xmlns="http://www.w3.org/2000/svg">
<path d="M15.5449 36.5515C15.8397 38.4048 14.6539 38.8956 13.7239 37.644C11.9266 35.2246 11.0932 31.7603 10.3728 28.596C10.0389 27.1307 8.49968 21.9031 9.68189 20.9549C10.855 20.0144 14.7759 23.0554 14.6775 26.1893C14.6239 27.8892 14.5033 29.5805 14.5827 31.3085C14.6689 33.1862 15.2554 34.7355 15.5449 36.5515Z" fill="url(#paint0_linear_83_8147)"/>
<path d="M3.07031 13.2416C3.07031 13.2416 4.37779 16.8369 4.37779 20.7588C4.37779 24.6808 4.05067 29.5835 6.33896 33.1788C8.62679 36.774 9.28056 38.4082 9.28056 38.4082C9.28056 38.4082 11.2417 40.696 12.2221 38.0815C12.2221 38.0815 9.93427 30.2372 11.2417 26.3153C12.5492 22.3934 13.8566 23.7009 14.1833 24.3541C14.5099 25.0079 19.0861 32.525 19.7398 34.4862C20.3935 36.4474 21.3739 38.4082 22.0276 38.4082C22.6813 38.4082 23.6617 36.774 24.3154 33.8325C24.9692 30.8909 24.3155 27.6228 23.008 25.3345C21.7005 23.0467 20.3935 12.9146 20.3935 11.2805C20.3931 9.64684 4.70441 12.5884 3.07031 13.2416Z" fill="url(#paint1_linear_83_8147)"/>
<path d="M10.6233 2.97317C10.313 2.89968 9.99174 2.69689 9.61883 2.45146C8.60625 1.78412 7.55466 1.14038 6.38647 0.816007C5.21783 0.491638 3.90315 0.519752 2.86335 1.14354C2.13204 1.58223 1.59034 2.27723 1.14438 3.004C0.446647 4.14134 -0.0682708 5.46288 0.0918728 6.78758C0.274246 8.29828 0.873549 9.78583 1.48827 11.1659C1.86118 12.0029 2.17193 12.9578 2.84381 13.6129C3.62774 14.3769 4.94566 14.4844 5.97866 14.6291C8.20071 14.9399 10.4318 14.6614 12.6012 14.1465C14.758 13.6343 16.9868 13.0662 19.0841 12.3522C19.4611 12.2238 19.8377 12.0755 20.1534 11.8332C21.0385 11.1532 21.2204 9.60754 21.4332 8.5877C21.7562 7.03753 21.5589 5.43476 20.9247 3.98984C20.1081 2.12936 18.5465 0.487089 16.4733 0.168163C14.9894 -0.0600299 13.6719 0.244391 12.6734 1.39443C12.3426 1.77551 12.0795 2.21827 11.722 2.57621C11.3278 2.97045 10.983 3.05846 10.6233 2.97317Z" fill="url(#paint2_linear_83_8147)"/>
<path d="M4.15625 19.3646C4.15625 19.3646 6.91819 21.8507 13.2818 21.0586C15.5524 20.776 21.4968 18.1602 21.4968 18.1602L22.1591 21.1103L23.2624 24.9148L24.8049 28.2719L24.9864 31.2208L23.6644 36.8857C23.6644 36.8857 22.6727 38.9785 22.4458 38.8877C22.219 38.797 21.1955 38.0897 21.1955 38.0897L18.6065 32.129L15.355 26.5897L15.2325 27.41L14.8133 30.3828L15.4154 34.3565L16.0038 37.3453L15.5361 38.2703L14.5729 38.4508L13.7808 37.935L12.0569 35.4399L12.4048 37.367L12.0437 39.1132L11.3764 39.659L9.87927 39.3414L8.2007 36.937C8.2007 36.937 4.70747 31.13 4.43527 29.4968C4.16307 27.8636 4.15625 19.3646 4.15625 19.3646Z" fill="#B46766"/>
<defs>
<linearGradient id="paint0_linear_83_8147" x1="11.6094" y1="20.5838" x2="11.6336" y2="57.6532" gradientUnits="userSpaceOnUse">
<stop offset="0.1599" stop-color="#BFAB8D"/>
<stop offset="0.5078" stop-color="#E7E1D2"/>
<stop offset="0.7297" stop-color="#CCBFA6"/>
</linearGradient>
<linearGradient id="paint1_linear_83_8147" x1="4.96484" y1="25.0286" x2="21.7229" y2="25.0892" gradientUnits="userSpaceOnUse">
<stop stop-color="#BFAB8D"/>
<stop offset="0.5078" stop-color="#E7E1D2"/>
<stop offset="1" stop-color="#CCBFA6"/>
</linearGradient>
<linearGradient id="paint2_linear_83_8147" x1="-6.28826" y1="7.36388" x2="27.7514" y2="7.48682" gradientUnits="userSpaceOnUse">
<stop stop-color="#94938C"/>
<stop offset="0.2614" stop-color="#EDEBE1"/>
<stop offset="0.7687" stop-color="#EDEBE1"/>
<stop offset="1" stop-color="#94938C"/>
</linearGradient>
</defs>
</svg>
