<svg width="19" height="55" viewBox="0 0 19 55" fill="none" xmlns="http://www.w3.org/2000/svg">
<path d="M9.27777 54.2209C9.27777 54.2209 3.97885 55.3174 2.10063 52.5651C0.222422 49.8123 8.6458 52.5605 9.27777 54.2209Z" fill="#D8D6D0"/>
<path d="M10.0547 54.4578C10.0547 54.4578 15.6979 54.8389 17.1016 51.1791C18.5052 47.5193 10.3872 52.3396 10.0547 54.4578Z" fill="#D8D6D0"/>
<path d="M12.3072 33.9251C12.3902 33.9659 12.4691 34.0122 12.5435 34.0644C13.9817 35.0683 15.1934 36.6961 16.1076 38.1682C17.4967 40.4048 18.4889 42.9631 18.2221 45.632C18.0397 47.4571 17.8356 49.5549 16.9237 51.1935C16.3911 52.1507 15.1939 52.5894 14.2189 52.9288C13.3837 53.2196 12.5413 53.4927 11.7219 53.828C10.9657 54.1374 10.2235 54.6654 9.37146 54.5974C8.39199 54.5194 7.70739 53.7513 6.9239 53.2536C5.69446 52.4729 4.22231 52.0718 2.76648 52.1426C2.51061 52.1548 2.24839 52.1807 2.00295 52.1058C1.64501 51.997 1.38323 51.693 1.17182 51.3845C0.210943 49.9809 0.236346 48.6208 0.227727 46.9885C0.219107 45.3298 0.251317 43.6613 0.567071 42.0281C1.12962 39.1178 3.05229 36.7102 4.06261 33.9628C4.12068 33.8044 4.17876 33.6424 4.28537 33.5118C4.46775 33.2881 4.76626 33.1915 5.05389 33.1684C5.59285 33.1248 6.13587 33.2083 6.66984 33.2655C7.68243 33.3739 8.67099 33.4873 9.68903 33.5572C10.497 33.6125 11.5554 33.5535 12.3072 33.9251Z" fill="url(#paint0_linear_83_8184)"/>
<path d="M14.45 35.8379C14.4137 35.8674 14.3701 35.8905 14.3171 35.905C14.0503 35.9799 13.2283 35.5775 12.9375 35.5017C11.9734 35.2495 10.9985 35.039 10.0172 34.8634C8.97784 34.6778 7.92806 34.5014 6.86965 34.4923C6.30937 34.4878 5.7459 34.5268 5.19741 34.6461C4.71017 34.7518 4.18528 35.0861 3.7239 35.1274C3.38728 33.8168 3.72845 32.2925 3.80648 30.9614C3.89313 29.4816 4.02876 28.0049 4.21341 26.5341C4.55956 23.774 5.24777 21.1169 5.75043 18.3917C6.23903 15.7409 6.37514 12.9382 6.31617 10.2393C6.28849 8.96999 6.21138 7.69839 6.06621 6.4372C5.94235 5.36065 5.63204 4.39706 5.74228 3.2815C5.85434 2.14734 6.38603 0.429754 7.88405 0.894307C9.01187 1.24408 9.71325 2.48395 10.2826 3.42621C11.3664 5.22091 12.1558 7.17667 12.8826 9.1433C13.6084 11.1072 14.2776 13.1047 14.6573 15.168C14.988 16.9677 14.9477 18.7293 14.9173 20.5462C14.8683 23.4306 14.7998 26.3145 14.729 29.1985C14.6832 31.0594 14.7898 33.0006 14.6432 34.8879C14.6156 35.2408 14.6673 35.66 14.45 35.8379Z" fill="url(#paint1_linear_83_8184)"/>
<path d="M4.6723 19.7495L6.03332 11.3566C6.03332 11.3566 4.97035 1.93794 5.581 1.39536C6.19165 0.852766 6.3949 0.445816 6.97107 0.41179C7.54769 0.377765 8.36114 0.886328 8.36114 0.886328L9.141 1.5986L11.296 4.23396L13.2468 8.27163L15.1068 16.1655V23.5149L14.88 34.0401C14.88 34.0401 13.5966 24.1038 9.79883 23.8325C6.00111 23.5612 3.03906 31.8171 3.03906 31.8171L4.6723 19.7495Z" fill="#B46766"/>
<defs>
<linearGradient id="paint0_linear_83_8184" x1="-5.72172" y1="44.2865" x2="24.5147" y2="43.352" gradientUnits="userSpaceOnUse">
<stop stop-color="#94938C"/>
<stop offset="0.2666" stop-color="#EDEBE1"/>
<stop offset="0.7117" stop-color="#EDEBE1"/>
<stop offset="1" stop-color="#94938C"/>
</linearGradient>
<linearGradient id="paint1_linear_83_8184" x1="0.813124" y1="19.4147" x2="15.1725" y2="17.9052" gradientUnits="userSpaceOnUse">
<stop stop-color="#BFAB8D"/>
<stop offset="0.5078" stop-color="#E7E1D2"/>
<stop offset="1" stop-color="#CCBFA6"/>
</linearGradient>
</defs>
</svg>
