<svg width="19" height="58" viewBox="0 0 19 58" fill="none" xmlns="http://www.w3.org/2000/svg">
<path d="M9.50681 56.2794C9.50681 56.2794 4.16097 57.1146 2.41985 54.2732C0.678729 51.4318 8.95698 54.5904 9.50681 56.2794Z" fill="#D8D6D0"/>
<path d="M4.14062 38.3564C4.14062 38.3564 4.46726 27.2439 5.44809 24.3023C6.42846 21.3607 7.40929 11.5556 7.0822 8.94071C6.75556 6.32578 6.75557 2.40382 6.75557 2.40382C6.75557 2.40382 6.42892 -0.537733 9.3705 1.75011C12.3121 4.03794 15.9074 15.1505 15.5803 19.7262C15.2532 24.3018 15.1502 38.0906 15.2019 38.0602C15.2532 38.0298 4.14062 38.3564 4.14062 38.3564Z" fill="url(#paint0_linear_83_8052)"/>
<path d="M14.929 37.0513C14.929 37.0513 22.4462 48.1637 16.8902 54.0468C16.2115 54.7654 15.144 55.2708 14.317 55.7966C13.4632 56.3396 12.5523 57.0936 11.5116 57.2111C10.318 57.3463 9.4442 56.0974 8.27102 55.8538C6.40601 55.4663 4.58091 55.773 2.98809 54.501C1.67292 53.4507 0.875371 51.8134 0.604533 50.1739C0.267007 48.1283 0.616339 46.0497 1.02373 44.0413C1.19748 43.1853 1.49327 42.3705 1.83942 41.5689C2.20779 40.7141 2.87332 39.8799 3.16275 39.0115C3.16275 39.012 5.77767 31.1682 14.929 37.0513Z" fill="url(#paint1_linear_83_8052)"/>
<path d="M5.54726 19.7493L6.90826 11.3565C6.90826 11.3565 5.84531 1.93793 6.45595 1.39535C7.06658 0.852763 7.26983 0.445815 7.84599 0.41179C8.4226 0.377765 9.23603 0.886324 9.23603 0.886324L10.0159 1.59859L13.4411 8.04473L15.9816 16.1654V23.5148L15.4372 34.2213C15.4372 34.2213 14.4713 24.1036 10.6737 23.8323C6.87605 23.561 3.91406 31.8169 3.91406 31.8169L5.54726 19.7493Z" fill="#B46766"/>
<defs>
<linearGradient id="paint0_linear_83_8052" x1="5.04023" y1="19.6654" x2="17.9329" y2="19.2683" gradientUnits="userSpaceOnUse">
<stop stop-color="#BFAB8D"/>
<stop offset="0.5078" stop-color="#E7E1D2"/>
<stop offset="1" stop-color="#CCBFA6"/>
</linearGradient>
<linearGradient id="paint1_linear_83_8052" x1="-6.06098" y1="46.5382" x2="25.8274" y2="45.556" gradientUnits="userSpaceOnUse">
<stop stop-color="#94938C"/>
<stop offset="0.2666" stop-color="#EDEBE1"/>
<stop offset="0.7117" stop-color="#EDEBE1"/>
<stop offset="1" stop-color="#94938C"/>
</linearGradient>
</defs>
</svg>
