<svg width="26" height="76" viewBox="0 0 26 76" fill="none" xmlns="http://www.w3.org/2000/svg">
<path d="M25.284 70.5754C25.284 70.5754 27.5718 43.7746 15.4789 39.8522C15.4789 39.8522 1.75132 37.5644 0.4443 61.4236C0.4443 61.4236 -1.18982 72.5362 5.01999 73.8436C15.8055 76.1315 25.284 75.8048 25.284 70.5754Z" fill="url(#paint0_linear_83_8166)"/>
<path d="M13.0009 1.93058C14.5538 3.45627 15.3277 6.70952 16.1094 8.69567C18.4993 14.7675 20.3157 21.0735 21.3682 27.5169C21.8922 30.7239 22.227 33.9627 22.3545 37.21C22.4189 38.8432 22.4312 40.4782 22.3899 42.1123C22.3563 43.4497 22.5768 45.3946 22.021 46.6077C21.3369 45.8347 20.8497 44.9051 20.1256 44.1615C18.3555 42.3432 16.0667 41.043 13.4822 41.0417C11.9488 41.0408 10.4527 41.479 9.08714 42.1577C7.9371 42.7293 6.55297 44.4546 5.32945 44.5476C5.1507 42.1554 5.75542 39.4706 5.98316 37.0716C5.98316 30.9816 7.18629 24.55 8.0977 18.5411C8.37171 16.7337 8.78409 14.9504 8.74598 13.1176C8.70651 11.2253 8.49419 9.33533 8.62258 7.44173C8.73781 5.74638 8.95012 1.65205 11.2851 1.3921C11.7442 1.34083 12.1961 1.51094 12.6266 1.67834C12.7645 1.73233 12.8884 1.81989 13.0009 1.93058Z" fill="url(#paint1_linear_83_8166)"/>
<path d="M5.99566 27.5845L7.61661 16.638C7.61661 16.638 8.61468 3.02804 9.43128 2.30218C10.2479 1.57631 10.5201 1.03191 11.2913 0.986547C12.0625 0.94118 13.1513 1.62168 13.1513 1.62168L14.1948 2.57438L17.5519 11.6477L21.0905 23.7605L23.0867 41.1359C23.0867 41.1359 18.7315 23.1708 13.6504 22.8079C8.56931 22.4449 5.48438 38.0056 5.48438 38.0056L5.99566 27.5845Z" fill="#B46766"/>
<defs>
<linearGradient id="paint0_linear_83_8166" x1="30.3589" y1="57.4858" x2="-4.66089" y2="57.5037" gradientUnits="userSpaceOnUse">
<stop stop-color="#94938C"/>
<stop offset="0.2296" stop-color="#EDEBE1"/>
<stop offset="0.7876" stop-color="#EDEBE1"/>
<stop offset="1" stop-color="#94938C"/>
</linearGradient>
<linearGradient id="paint1_linear_83_8166" x1="18.6872" y1="23.9607" x2="5.20629" y2="24.2016" gradientUnits="userSpaceOnUse">
<stop stop-color="#BFAB8D"/>
<stop offset="0.5078" stop-color="#E7E1D2"/>
<stop offset="1" stop-color="#CCBFA6"/>
</linearGradient>
</defs>
</svg>
