<svg width="25" height="43" viewBox="0 0 25 43" fill="none" xmlns="http://www.w3.org/2000/svg">
<path d="M6.43942 3.33896C5.90942 1.59896 7.51942 0.788968 8.89942 1.74897C11.5594 3.61897 12.9494 6.77896 14.1594 9.67896C14.7194 11.019 17.2094 15.719 15.6294 16.979C14.0594 18.229 8.39942 16.359 8.32942 13.249C8.28942 11.569 8.34942 9.86897 8.11942 8.19897C7.87942 6.38897 6.96942 5.03896 6.43942 3.33896Z" fill="url(#paint0_linear_90_11340)"/>
<path d="M22.2327 27.2581C23.1927 20.9481 23.1827 13.3381 20.3727 7.49809C19.7227 6.13809 18.8327 4.8981 17.7827 3.8281C17.3727 3.4081 14.9027 0.878089 14.3827 1.50809C13.8527 2.13809 14.3327 3.55809 14.4227 4.25809C14.5827 5.43809 14.7327 6.6181 14.8527 7.7981C15.1027 10.1981 15.7227 12.7981 15.0727 15.1881C14.9327 15.7181 14.6027 16.2381 14.0827 16.3981C13.8127 16.4881 13.5127 16.4681 13.2327 16.4081C11.4527 16.0181 10.1727 14.2281 9.07275 12.9181C7.51275 11.0381 6.61275 8.9281 5.83275 6.6281C5.45275 5.5081 5.02274 4.4281 4.06274 3.6881C3.83274 3.5081 1.58275 0.748091 1.23275 0.838091C0.0727493 1.11809 0.472748 4.25809 0.512748 4.97809C0.842748 10.5381 4.91275 20.3981 4.91275 20.3981C4.91275 20.3981 5.89275 26.6081 4.91275 28.5681C3.93275 30.5281 20.9327 30.5281 22.2327 27.2581Z" fill="url(#paint1_linear_90_11340)"/>
<path d="M23.211 28.2369C23.211 28.2369 20.601 25.2969 14.711 25.2969C8.83101 25.2969 4.58101 27.2569 3.60101 29.8769C2.62101 32.4869 2.29101 39.6869 5.89101 40.9869C7.03101 41.3969 8.28102 41.5069 9.30102 40.7669C10.181 40.1369 10.521 38.9869 11.841 39.4169C12.421 39.6069 12.891 40.0069 13.381 40.3669C15.521 41.9369 19.161 43.5669 21.601 41.7169C24.941 39.1669 26.121 31.5069 23.211 28.2369Z" fill="url(#paint2_linear_90_11340)"/>
<path d="M6.46286 3.3585C5.93286 1.6185 7.54286 0.8085 8.92286 1.7685C11.5829 3.6385 12.9729 6.79849 14.1829 9.69849C14.7429 11.0385 17.2329 15.7385 15.6529 16.9985C14.0829 18.2485 8.42286 16.3785 8.35286 13.2685C8.31286 11.5885 8.37286 9.8885 8.14286 8.2185C7.90286 6.4085 6.98286 5.0585 6.46286 3.3585Z" fill="url(#paint3_linear_90_11340)"/>
<path d="M22.2496 27.2799C23.2096 20.9699 23.1996 13.3599 20.3896 7.5199C19.7396 6.1599 18.8496 4.9199 17.7996 3.8499C17.3896 3.4299 14.9196 0.899894 14.3996 1.52989C13.8696 2.15989 14.3496 3.57989 14.4396 4.27989C14.5996 5.45989 14.7496 6.6399 14.8696 7.8199C15.1196 10.2199 15.7396 12.8199 15.0896 15.2099C14.9496 15.7399 14.6196 16.2599 14.0996 16.4199C13.8296 16.5099 13.5296 16.4899 13.2496 16.4299C11.4696 16.0399 10.1896 14.2499 9.08962 12.9399C7.52962 11.0599 6.62962 8.94989 5.84962 6.64989C5.46962 5.52989 5.03963 4.4499 4.07963 3.7099C3.84963 3.5299 3.38962 3.11989 3.02962 3.19989C1.86962 3.47989 2.26962 6.61989 2.30962 7.33989C2.63962 12.8999 4.91962 20.4099 4.91962 20.4099C4.91962 20.4099 5.89962 26.6199 4.91962 28.5799C3.93962 30.5499 20.9396 30.5499 22.2496 27.2799Z" fill="url(#paint4_linear_90_11340)"/>
<path d="M23.2266 28.2603C23.2266 28.2603 20.6166 25.3203 14.7266 25.3203C8.84664 25.3203 4.59664 27.2803 3.61664 29.9003C2.63664 32.5103 2.30664 39.7103 5.90664 41.0103C7.04664 41.4203 8.29663 41.5303 9.31663 40.7903C10.1966 40.1603 10.5366 39.0103 11.8566 39.4403C12.4366 39.6303 12.9066 40.0303 13.3966 40.3903C15.5366 41.9603 19.1766 43.5903 21.6166 41.7403C24.9466 39.2003 26.1266 31.5303 23.2266 28.2603Z" fill="url(#paint5_linear_90_11340)"/>
<path d="M21.6382 39.0596C21.8982 38.8296 22.1082 38.5196 22.2582 38.1496C22.8182 36.6996 23.3082 35.1996 23.4182 33.6496C23.4982 32.5596 23.3682 31.4396 22.9682 30.4096C22.5482 29.3396 21.8482 28.4396 21.5982 27.2896C21.4482 26.6196 21.4582 25.9296 21.4582 25.2396C21.4882 20.6696 21.9982 15.8096 20.9582 11.3196C20.4082 8.95962 19.2782 6.91961 17.8182 4.98961C17.2582 4.24961 17.1482 3.3896 16.5482 2.6796C16.4082 2.5196 15.9082 1.92961 15.5982 1.79961C15.2782 1.66961 14.8882 1.33961 14.9182 1.66961C15.3182 5.63961 16.3282 11.2696 15.8682 15.2396C15.8182 15.6496 15.5582 17.0396 13.7382 17.1396C11.9182 17.2496 10.9382 15.9196 9.70816 14.5396C7.87816 12.4796 6.56816 9.98961 5.57816 7.47961C5.30816 6.78961 4.24817 3.2596 3.29817 3.1196C2.70817 3.0296 2.71817 4.03961 2.75817 4.74961C2.87817 7.15961 2.99816 9.60961 3.67816 11.9496C4.37816 14.3696 5.05816 16.7396 5.55816 19.2196C6.08816 21.8396 6.63816 25.6196 5.01816 27.9396C2.84816 31.0496 2.92816 36.4096 6.37816 38.6696C6.85816 38.9796 7.24816 39.0196 7.71816 38.6996C8.75816 37.9896 9.90817 37.4396 11.1182 37.0796C11.4782 36.9696 11.8482 36.8796 12.2282 36.8996C12.9282 36.9396 13.5082 37.5496 14.0682 37.9196C14.7582 38.3696 15.4782 38.7796 16.2482 39.0996C17.7682 39.7496 20.3282 40.2496 21.6382 39.0596Z" fill="#FCF2D9"/>
<path d="M16.0061 2.20312C16.0061 2.20312 16.916 6.64312 17.706 9.15312C18.496 11.6631 19.386 25.6131 18.596 28.4231C17.806 31.2431 9.34605 31.4931 8.66605 29.7831C7.98605 28.0731 6.80605 18.9831 6.80605 18.9831C6.80605 18.9831 5.38605 12.5431 4.90605 10.7731C4.43605 9.00313 3.14605 3.87313 3.48605 3.19313C3.48605 3.19313 6.11605 11.9031 5.81605 10.8631C5.51605 9.82313 8.40605 16.2131 8.66605 16.8031C9.20605 18.0231 10.8161 19.2631 13.3261 19.3431C15.8361 19.4231 16.4761 17.9031 16.6561 16.8031C16.8361 15.7031 16.846 9.70313 16.626 8.52313L16.0061 2.20312Z" fill="#D8D8D8"/>
<path d="M12.3567 30.9514C11.5567 30.9514 10.7967 30.8814 10.1867 30.7414C9.29669 30.5414 8.74668 30.2314 8.58668 29.8214C7.90668 28.1214 6.77669 19.4314 6.72669 19.0014C6.68669 18.8114 5.29669 12.5314 4.82669 10.8014C4.63669 10.1014 3.00669 3.96141 3.40669 3.16141L3.50669 2.96141L3.57669 3.1814C4.27669 5.4914 5.52669 9.6214 5.85669 10.6814C5.90669 10.7114 5.95669 10.7914 6.03669 10.9414C6.11669 11.0814 6.21669 11.2914 6.35669 11.5714C6.58669 12.0414 6.89668 12.7014 7.27668 13.5314C7.94668 14.9914 8.63669 16.5014 8.75669 16.7814C9.24669 17.8814 10.7367 19.1914 13.3367 19.2714C15.2067 19.3314 16.2967 18.5014 16.5767 16.8114C16.7467 15.7614 16.7667 9.7414 16.5467 8.5614V8.55141L15.9267 2.22141L16.1067 2.19141C16.1167 2.23141 17.0267 6.65141 17.8067 9.13141C18.1867 10.3314 18.6067 14.2514 18.8467 18.6714C19.1067 23.5314 19.0467 27.1814 18.6967 28.4514C18.4967 29.1714 17.7867 29.7914 16.6467 30.2314C15.6767 30.6114 14.4267 30.8614 13.1067 30.9314C12.8467 30.9414 12.6067 30.9514 12.3567 30.9514ZM3.51668 3.6214C3.52668 4.8514 4.35669 8.3814 4.99669 10.7514C5.46669 12.5014 6.88669 18.9014 6.89669 18.9714V18.9814C6.90669 19.0714 8.07669 28.0714 8.74669 29.7614C9.02669 30.4614 10.8467 30.8714 13.0867 30.7614C14.3867 30.6914 15.6267 30.4514 16.5667 30.0814C17.6467 29.6614 18.3167 29.0814 18.5067 28.4214C19.3067 25.5914 18.3767 11.6214 17.6167 9.2014C17.1267 7.6514 16.5867 5.33141 16.2467 3.80141L16.7167 8.5414C16.9367 9.7614 16.9267 15.7414 16.7467 16.8414C16.6267 17.5814 16.3567 18.1714 15.9367 18.6014C15.3467 19.2014 14.4667 19.4914 13.3267 19.4614C10.6367 19.3814 9.08668 18.0114 8.58668 16.8714C8.21668 16.0414 6.40668 12.0514 5.87668 11.0614H5.86669C5.80669 11.0814 5.77669 11.0514 5.75669 10.9914C5.74669 10.9714 5.73669 10.9414 5.72669 10.9214C5.70669 10.8614 5.68669 10.7814 5.64669 10.6714C5.57669 10.4614 5.48668 10.1614 5.37668 9.7914C5.15668 9.0614 4.85669 8.0914 4.56669 7.1214C4.14669 5.6914 3.71668 4.2914 3.51668 3.6214Z" fill="#FF0000"/>
<defs>
<linearGradient id="paint0_linear_90_11340" x1="13.0202" y1="17.8083" x2="5.80959" y2="-17.6114" gradientUnits="userSpaceOnUse">
<stop offset="0.1599" stop-color="#BFAB8D"/>
<stop offset="0.5078" stop-color="#E7E1D2"/>
<stop offset="0.7297" stop-color="#CCBFA6"/>
</linearGradient>
<linearGradient id="paint1_linear_90_11340" x1="28.1823" y1="15.2913" x2="1.08935" y2="15.3892" gradientUnits="userSpaceOnUse">
<stop offset="0.1599" stop-color="#BFAB8D"/>
<stop offset="0.5078" stop-color="#E7E1D2"/>
<stop offset="0.7297" stop-color="#CCBFA6"/>
</linearGradient>
<linearGradient id="paint2_linear_90_11340" x1="29.8341" y1="33.8677" x2="-2.34319" y2="33.9839" gradientUnits="userSpaceOnUse">
<stop stop-color="#94938C"/>
<stop offset="0.2296" stop-color="#EDEBE1"/>
<stop offset="0.7988" stop-color="#EDEBE1"/>
<stop offset="1" stop-color="#94938C"/>
</linearGradient>
<linearGradient id="paint3_linear_90_11340" x1="13.1801" y1="17.5967" x2="5.96931" y2="-17.8229" gradientUnits="userSpaceOnUse">
<stop offset="0.1599" stop-color="#BFAB8D"/>
<stop offset="0.5078" stop-color="#E7E1D2"/>
<stop offset="0.7297" stop-color="#CCBFA6"/>
</linearGradient>
<linearGradient id="paint4_linear_90_11340" x1="27.7642" y1="15.6266" x2="2.82672" y2="15.7167" gradientUnits="userSpaceOnUse">
<stop offset="0.1599" stop-color="#BFAB8D"/>
<stop offset="0.5078" stop-color="#E7E1D2"/>
<stop offset="0.7297" stop-color="#CCBFA6"/>
</linearGradient>
<linearGradient id="paint5_linear_90_11340" x1="30.084" y1="33.8925" x2="-2.47556" y2="34.0101" gradientUnits="userSpaceOnUse">
<stop stop-color="#94938C"/>
<stop offset="0.2296" stop-color="#EDEBE1"/>
<stop offset="0.7988" stop-color="#EDEBE1"/>
<stop offset="1" stop-color="#94938C"/>
</linearGradient>
</defs>
</svg>
