<svg width="19" height="56" viewBox="0 0 19 56" fill="none" xmlns="http://www.w3.org/2000/svg">
<path d="M9.75 54.6994C9.75 54.6994 15.05 55.7994 16.93 53.0394C18.81 50.2894 10.39 53.0394 9.75 54.6994Z" fill="#D8D6D0"/>
<path d="M8.97791 54.9276C8.97791 54.9276 3.33789 55.3076 1.92789 51.6476C0.527891 47.9976 8.63791 52.8076 8.97791 54.9276Z" fill="#D8D6D0"/>
<path d="M6.72014 34.3975C6.64014 34.4375 6.56015 34.4875 6.48015 34.5375C5.04015 35.5375 3.83015 37.1675 2.92015 38.6375C1.53015 40.8775 0.540138 43.4275 0.810138 46.0975C0.990138 47.9175 1.20013 50.0175 2.11013 51.6575C2.64013 52.6175 3.84014 53.0575 4.81014 53.3975C5.65014 53.6875 6.49014 53.9575 7.31014 54.2975C8.07014 54.6075 8.81014 55.1375 9.66014 55.0675C10.6401 54.9875 11.3201 54.2175 12.1101 53.7275C13.3401 52.9475 14.8101 52.5475 16.2701 52.6175C16.5301 52.6275 16.7901 52.6575 17.0301 52.5775C17.3901 52.4675 17.6501 52.1675 17.8601 51.8575C18.8201 50.4575 18.8001 49.0975 18.8001 47.4575C18.8101 45.7975 18.7801 44.1275 18.4601 42.4975C17.9001 39.5875 15.9701 37.1775 14.9601 34.4375C14.9001 34.2775 14.8401 34.1175 14.7401 33.9875C14.5601 33.7675 14.2601 33.6675 13.9701 33.6475C13.4301 33.6075 12.8901 33.6875 12.3501 33.7475C11.3401 33.8575 10.3501 33.9675 9.33013 34.0375C8.53013 34.0875 7.47014 34.0275 6.72014 34.3975Z" fill="url(#paint0_linear_90_11289)"/>
<path d="M4.57757 36.3077C4.61757 36.3377 4.65758 36.3577 4.70758 36.3777C4.97758 36.4477 5.79758 36.0477 6.08758 35.9777C7.04758 35.7277 8.0276 35.5177 9.0076 35.3377C10.0476 35.1477 11.0976 34.9777 12.1576 34.9677C12.7176 34.9677 13.2776 34.9977 13.8276 35.1177C14.3176 35.2277 14.8376 35.5577 15.2976 35.5977C15.6376 34.2877 15.2976 32.7577 15.2176 31.4277C15.1276 29.9477 14.9976 28.4677 14.8076 26.9977C14.4576 24.2377 13.7676 21.5777 13.2676 18.8577C12.7776 16.2077 12.6376 13.4077 12.6976 10.7077C12.7276 9.43769 12.7976 8.16768 12.9476 6.90768C13.0676 5.82768 13.3776 4.86768 13.2676 3.74768C13.1576 2.61768 12.6276 0.89768 11.1276 1.35768C9.99759 1.70768 9.2976 2.94768 8.7276 3.88768C7.6476 5.67768 6.85759 7.63768 6.12759 9.60768C5.39759 11.5677 4.73757 13.5677 4.35757 15.6377C4.02757 17.4377 4.06759 19.1977 4.09759 21.0177C4.14759 23.8977 4.2176 26.7877 4.2876 29.6677C4.3376 31.5277 4.22759 33.4677 4.37759 35.3577C4.41759 35.7177 4.35757 36.1377 4.57757 36.3077Z" fill="url(#paint1_linear_90_11289)"/>
<path d="M4.17984 39.8295C4.22984 39.6295 4.28983 39.4395 4.35983 39.2395C4.91983 37.6195 5.90984 36.1795 6.24984 34.4795C6.47984 33.3495 6.39984 32.1795 6.33984 31.0195C6.11984 26.8195 5.95984 22.4595 6.36984 18.2795C6.77984 14.1195 7.83986 10.0895 8.91986 6.10954C9.26986 4.83954 9.77986 1.81953 10.8899 1.38953C10.9899 1.34953 11.2499 1.30953 11.5399 1.26953C11.6299 6.97953 11.8099 14.5195 12.0099 20.2195C12.0499 21.2395 13.3898 29.8595 13.3498 30.3495C13.3098 30.8395 13.7799 33.9895 13.8199 34.3495C13.8599 34.7195 16.3898 39.2495 16.2498 42.1495C16.1098 45.0495 15.8698 47.1395 14.6598 48.2995C13.4598 49.4595 11.2498 50.1195 10.1198 49.9495C8.99984 49.7895 6.70985 50.1095 6.12985 48.8495C5.44985 47.3695 4.49983 46.2595 4.10983 44.5895C3.74983 43.0595 3.75984 41.3795 4.17984 39.8295Z" fill="#FCF2D9"/>
<path d="M11.3428 42.7787C11.6428 41.9087 11.7228 37.4887 11.7028 36.1287C11.6728 34.1787 10.7128 25.8487 10.6028 21.8387C10.4528 16.6887 10.6628 8.17866 10.7328 4.55866C10.7928 0.938663 10.6428 1.02867 10.5128 1.06867C10.3928 1.10867 9.9828 2.40867 9.8628 4.85867C9.7428 7.30867 9.06281 15.0487 8.84281 20.1987C8.68281 23.7887 8.4928 33.3687 8.5228 35.1587C8.5528 36.9887 8.14281 41.2987 8.41281 42.0987C8.71281 42.9987 9.31282 43.6887 9.67282 43.6187C10.1328 43.5287 11.0428 43.6487 11.3428 42.7787Z" fill="#D8D8D8"/>
<path d="M9.61245 43.7205C9.19245 43.7205 8.62247 43.0305 8.32247 42.1405C8.15247 41.6305 8.24245 39.8105 8.33245 38.0605C8.39245 36.9405 8.44246 35.8805 8.43246 35.1705C8.40246 33.3805 8.59247 23.8305 8.75247 20.2105C8.89247 17.0005 9.20248 12.8405 9.45248 9.4905C9.60248 7.5105 9.73245 5.79049 9.77245 4.87049C9.84245 3.52049 9.99247 2.5905 10.1025 2.0505C10.1925 1.6005 10.3425 1.04049 10.4825 0.990491C10.5125 0.980491 10.5825 0.960493 10.6425 1.00049C10.7425 1.07049 10.8825 1.1705 10.8225 4.5705C10.8125 5.1405 10.8025 5.8405 10.7825 6.6305C10.7025 10.7005 10.5725 17.5205 10.6925 21.8505C10.7525 24.1005 11.0825 27.6605 11.3725 30.8105C11.5925 33.2105 11.7825 35.2805 11.7925 36.1405C11.8125 37.4405 11.7325 41.9105 11.4325 42.8205C11.1725 43.5705 10.5025 43.6405 10.0025 43.6805C9.88247 43.6905 9.77247 43.7005 9.69247 43.7205C9.66247 43.7105 9.64245 43.7205 9.61245 43.7205ZM10.5425 1.1605C10.4325 1.3305 10.0625 2.51049 9.95248 4.86049C9.90248 5.79049 9.78247 7.5005 9.63247 9.4905C9.38247 12.8405 9.07246 17.0005 8.93246 20.2005C8.77246 23.8205 8.58246 33.3605 8.62246 35.1505C8.63246 35.8605 8.58245 36.9205 8.52245 38.0505C8.43245 39.7905 8.34247 41.5905 8.50247 42.0705C8.80247 42.9605 9.37246 43.5905 9.65246 43.5305C9.75246 43.5105 9.86248 43.5005 9.98248 43.4905C10.4525 43.4505 11.0325 43.3905 11.2525 42.7505C11.5325 41.9305 11.6325 37.6905 11.6025 36.1305C11.5925 35.2805 11.4025 33.2105 11.1825 30.8105C10.8925 27.6605 10.5725 24.1005 10.5025 21.8405C10.3825 17.5005 10.5125 10.6905 10.5925 6.61049C10.6125 5.82049 10.6225 5.1205 10.6325 4.5505C10.6825 2.0505 10.6125 1.3105 10.5425 1.1605Z" fill="#FF0000"/>
<defs>
<linearGradient id="paint0_linear_90_11289" x1="24.7531" y1="44.758" x2="-5.48316" y2="43.8266" gradientUnits="userSpaceOnUse">
<stop stop-color="#94938C"/>
<stop offset="0.2666" stop-color="#EDEBE1"/>
<stop offset="0.7117" stop-color="#EDEBE1"/>
<stop offset="1" stop-color="#94938C"/>
</linearGradient>
<linearGradient id="paint1_linear_90_11289" x1="18.2134" y1="19.8873" x2="3.85389" y2="18.3793" gradientUnits="userSpaceOnUse">
<stop stop-color="#BFAB8D"/>
<stop offset="0.5078" stop-color="#E7E1D2"/>
<stop offset="1" stop-color="#CCBFA6"/>
</linearGradient>
</defs>
</svg>
