<svg width="26" height="41" viewBox="0 0 26 41" fill="none" xmlns="http://www.w3.org/2000/svg">
<path d="M9.55253 37.2814C9.26253 39.1314 10.4425 39.6214 11.3725 38.3714C13.1725 35.9514 14.0025 32.4914 14.7225 29.3214C15.0525 27.8514 16.5925 22.6314 15.4125 21.6814C14.2425 20.7414 10.3225 23.7814 10.4125 26.9114C10.4625 28.6114 10.5825 30.3014 10.5025 32.0314C10.4325 33.9214 9.84253 35.4714 9.55253 37.2814Z" fill="url(#paint0_linear_90_11449)"/>
<path d="M22.0204 13.9792C22.0204 13.9792 20.7104 17.5792 20.7104 21.4992C20.7104 25.4192 21.0404 30.3192 18.7504 33.9192C16.4604 37.5192 15.8104 39.1492 15.8104 39.1492C15.8104 39.1492 13.8504 41.4392 12.8704 38.8192C12.8704 38.8192 15.1604 30.9792 13.8504 27.0492C12.5404 23.1292 11.2404 24.4392 10.9104 25.0892C10.5804 25.7392 6.01043 33.2592 5.35043 35.2192C4.70043 37.1792 3.72043 39.1392 3.06043 39.1392C2.41043 39.1392 1.43043 37.5092 0.77043 34.5592C0.12043 31.6192 0.770435 28.3492 2.08044 26.0592C3.39044 23.7692 4.69044 13.6392 4.69044 12.0092C4.70044 10.3792 20.3904 13.3192 22.0204 13.9792Z" fill="url(#paint1_linear_90_11449)"/>
<path d="M14.4725 3.71065C14.7825 3.64065 15.1025 3.43065 15.4725 3.19065C16.4825 2.52065 17.5325 1.88065 18.7025 1.55065C19.8725 1.22065 21.1825 1.25065 22.2225 1.88065C22.9525 2.32065 23.4925 3.01065 23.9425 3.74065C24.6425 4.88065 25.1525 6.20065 24.9925 7.52065C24.8125 9.03065 24.2125 10.5206 23.5925 11.9006C23.2225 12.7406 22.9125 13.6907 22.2325 14.3507C21.4525 15.1107 20.1325 15.2206 19.1025 15.3706C16.8825 15.6806 14.6525 15.4006 12.4825 14.8906C10.3225 14.3806 8.09249 13.8107 6.00249 13.1007C5.62249 12.9707 5.25249 12.8206 4.93249 12.5806C4.04249 11.9006 3.86249 10.3506 3.65249 9.33065C3.33249 7.78065 3.5225 6.18064 4.1625 4.73064C4.9825 2.87064 6.54249 1.23065 8.61249 0.910649C10.0925 0.680649 11.4125 0.990645 12.4125 2.14064C12.7425 2.52064 13.0025 2.96065 13.3625 3.32065C13.7725 3.70065 14.1125 3.79065 14.4725 3.71065Z" fill="url(#paint2_linear_90_11449)"/>
<path d="M15.8804 35.9797C15.9104 35.9197 15.9404 35.8697 15.9704 35.8097C16.3604 35.1297 16.8004 34.4797 17.1704 33.7897C18.1504 31.9797 18.3604 30.0497 18.6904 28.0697C19.2004 24.9397 19.2004 21.7697 19.4804 18.6197C19.7204 15.9097 20.2404 13.1897 20.9604 10.5597C21.3504 9.14967 21.2604 7.72966 19.0304 7.42966C16.8004 7.12966 16.3304 8.01967 14.1004 7.80967C12.7704 7.67967 11.6004 6.21967 10.3304 5.80967C7.65038 4.67967 5.61038 6.64967 5.59038 7.49967C5.57038 8.60967 5.47038 9.71968 5.67038 10.8197C5.89038 12.0097 6.14038 13.1597 6.20038 14.3797C6.29038 16.2897 6.09038 18.2097 5.59038 20.0497C5.05038 22.0597 4.44038 24.0497 3.67038 25.9797C3.16038 27.2597 2.40038 28.3897 2.30038 29.7997C2.22038 30.8597 2.23038 31.9297 2.23038 32.9997C2.23038 33.6197 2.01038 35.4897 2.82038 35.6997C3.15038 35.7797 3.50038 35.6197 3.74038 35.3697C3.97038 35.1197 4.11038 34.7997 4.25038 34.4897C5.85038 30.8397 7.90038 27.3797 10.3304 24.2197C10.9104 23.4697 11.5804 22.9097 12.5004 23.4897C13.6004 24.1897 14.5104 25.5097 14.7704 26.7797C15.4404 30.1497 14.0504 33.2897 14.1004 36.5997C14.1104 37.1997 14.4804 37.5497 15.0304 37.2497C15.4504 36.9997 15.6604 36.4197 15.8804 35.9797Z" fill="#FCF2D9"/>
<path d="M2.79688 39.1302C2.79688 39.1302 4.14687 30.8502 4.46687 29.3902C4.78687 27.9302 7.66687 13.3302 8.92687 11.1802C10.1869 9.03016 18.2069 10.7102 18.4969 12.2702C18.7969 13.8302 17.9369 25.0402 17.9369 25.0402C17.9369 25.0402 17.4469 28.4202 16.9669 31.9702C16.5669 34.9202 14.9269 39.6202 14.4869 40.1002C14.4869 40.1002 16.0569 34.9602 16.3669 31.7002C16.6669 28.5702 16.4669 25.2102 16.3469 24.6602C16.0869 23.5402 14.9769 21.7702 12.6969 21.1702C10.4169 20.5702 8.42687 23.0502 8.04688 23.9202C7.66688 24.7902 5.52687 29.2902 5.49687 30.3002L2.79688 39.1302Z" fill="#D8D8D8"/>
<path d="M14.2731 40.46L14.3931 40.07C14.4131 40.02 15.9631 34.9 16.2731 31.68C16.5731 28.52 16.3731 25.19 16.2531 24.67C16.0231 23.69 15.0131 21.86 12.6731 21.25C11.4731 20.94 10.4031 21.52 9.71313 22.06C8.86313 22.73 8.30313 23.56 8.13313 23.95C8.06313 24.11 7.93312 24.39 7.77312 24.75C7.07312 26.29 5.61312 29.49 5.59312 30.31V30.32V30.33L2.88313 39.16L2.70312 39.12C2.71312 39.04 4.05313 30.82 4.37313 29.38C4.41313 29.19 4.50313 28.77 4.62313 28.18C5.03313 26.18 5.80313 22.45 6.62313 18.92C7.63313 14.57 8.37313 11.95 8.85313 11.15C9.17313 10.6 9.89313 10.26 11.0031 10.14C11.9331 10.03 13.1031 10.09 14.3231 10.3C15.3931 10.48 16.4131 10.77 17.1831 11.11C17.7731 11.37 18.5031 11.78 18.5931 12.27C18.8831 13.82 18.0731 24.6 18.0331 25.06V25.07C18.0331 25.1 17.5331 28.49 17.0631 32C16.8931 33.3 16.4431 35.12 15.8331 37.01C15.3131 38.62 14.7931 39.93 14.5631 40.19L14.2731 40.46ZM11.9831 20.98C12.2231 20.98 12.4631 21.01 12.7131 21.07C15.1431 21.7 16.1931 23.6 16.4231 24.63C16.5431 25.16 16.7531 28.52 16.4531 31.7C16.2231 34.09 15.3131 37.51 14.8431 39.16C15.4931 37.58 16.5531 34.29 16.8631 31.95C17.3331 28.48 17.8131 25.15 17.8331 25.03C17.8531 24.79 18.6831 13.81 18.3931 12.29C18.2731 11.63 16.4931 10.85 14.2631 10.46C12.2431 10.11 9.64313 10.1 8.98313 11.23C7.89313 13.09 5.55313 24.47 4.78313 28.21C4.66313 28.8 4.57313 29.22 4.53313 29.41C4.29313 30.49 3.48313 35.42 3.08313 37.82L5.39313 30.28C5.43313 29.41 6.83312 26.33 7.59312 24.67C7.75312 24.32 7.88312 24.04 7.95312 23.88C8.13313 23.47 8.71312 22.61 9.59312 21.92C10.1831 21.46 11.0231 20.98 11.9831 20.98Z" fill="#FF0000"/>
<defs>
<linearGradient id="paint0_linear_90_11449" x1="13.1612" y1="21.2977" x2="13.1373" y2="58.367" gradientUnits="userSpaceOnUse">
<stop offset="0.1599" stop-color="#BFAB8D"/>
<stop offset="0.5078" stop-color="#E7E1D2"/>
<stop offset="0.7297" stop-color="#CCBFA6"/>
</linearGradient>
<linearGradient id="paint1_linear_90_11449" x1="20.1283" y1="25.7615" x2="3.37003" y2="25.8221" gradientUnits="userSpaceOnUse">
<stop stop-color="#BFAB8D"/>
<stop offset="0.5078" stop-color="#E7E1D2"/>
<stop offset="1" stop-color="#CCBFA6"/>
</linearGradient>
<linearGradient id="paint2_linear_90_11449" x1="31.3858" y1="8.09784" x2="-2.65431" y2="8.22084" gradientUnits="userSpaceOnUse">
<stop stop-color="#94938C"/>
<stop offset="0.2614" stop-color="#EDEBE1"/>
<stop offset="0.7687" stop-color="#EDEBE1"/>
<stop offset="1" stop-color="#94938C"/>
</linearGradient>
</defs>
</svg>
