<svg width="29" height="51" viewBox="0 0 29 51" fill="none" xmlns="http://www.w3.org/2000/svg">
<path d="M19.8203 0.53971C21.1303 0.62971 22.1503 1.00972 23.2203 1.74972C23.5103 1.94972 23.7903 2.18971 23.7303 2.47971C23.4603 3.81971 13.5903 2.73972 13.6803 1.56972C13.7403 0.869724 16.9503 0.689717 17.6703 0.609717C18.4803 0.519717 19.1803 0.48971 19.8203 0.53971Z" fill="#D8D6D0"/>
<path d="M9.64556 45.8983C8.96556 48.0583 10.5656 48.9483 12.0456 47.6583C14.9056 45.1783 16.5656 41.1983 18.0256 37.5583C18.7056 35.8683 21.5956 29.9383 20.0756 28.5083C18.5656 27.0883 12.6256 29.7983 12.3256 33.5983C12.1656 35.6583 12.0956 37.7383 11.7356 39.7983C11.3456 42.0583 10.3056 43.7783 9.64556 45.8983Z" fill="url(#paint0_linear_90_11414)"/>
<path d="M26.4275 20.6303C26.2375 21.4003 26.0775 22.1903 26.0375 22.3503C25.7175 23.6603 25.4475 24.9803 25.2275 26.3003C25.0475 27.3803 24.9075 28.4803 24.7975 29.5703C24.6975 30.6303 24.7875 31.8003 24.5775 32.8403C24.3775 33.8603 24.0175 34.9403 23.6675 35.9303C22.6275 38.9003 21.0575 41.6703 19.1975 44.2003C18.2575 45.4703 17.2475 46.6803 16.1775 47.8403C15.5175 48.5503 14.1275 50.6603 12.9675 49.7803C12.5275 49.4503 12.3575 48.8603 12.3875 48.3203C12.4175 47.7803 12.6175 47.2603 12.8075 46.7403C14.2675 42.7903 15.6475 37.9003 14.8275 33.6703C14.7375 33.2303 14.6075 32.7703 14.2875 32.4503C13.8675 32.0303 13.2075 31.9403 12.6375 32.0903C12.0675 32.2503 11.5875 32.6203 11.1575 33.0303C9.7075 34.4403 8.67749 36.4203 7.78749 38.2203C7.11749 39.5803 6.62749 41.0403 6.33749 42.5303C6.06749 43.9603 6.2975 45.6603 5.7175 47.0003C5.3975 47.7503 4.6775 48.4003 3.8575 48.3703C3.2175 48.3503 2.6575 47.9403 2.2375 47.4603C0.687503 45.6903 0.397495 42.8803 0.307495 40.6303C0.197495 37.7903 0.597498 34.9703 1.0375 32.1703C1.6375 28.3703 2.4075 24.5903 3.2675 20.8303C3.2975 20.6803 3.7675 18.3203 3.8575 18.3203C3.8575 18.3203 26.7275 18.9503 26.9375 18.9603C26.8475 18.9803 26.6275 19.8003 26.4275 20.6303Z" fill="url(#paint1_linear_90_11414)"/>
<path d="M8.52968 0.358781C9.71968 0.288781 10.6797 0.548774 11.7597 1.14877C12.0497 1.30877 12.3397 1.51878 12.3297 1.80878C12.2997 3.15878 3.31969 3.26879 3.21969 2.09879C3.15969 1.40879 5.99969 0.838773 6.62969 0.678773C7.32969 0.498773 7.95968 0.388781 8.52968 0.358781Z" fill="#D8D6D0"/>
<path d="M24.4668 1.40826C25.4168 1.50826 26.3168 1.86825 27.0868 2.67825C28.0868 3.71825 28.5868 5.15827 28.7068 6.59827C28.9668 9.67827 28.4468 13.3383 27.6768 16.3183C27.4368 17.2683 27.4068 19.2583 26.7568 19.9883C24.7368 22.2583 20.2968 21.1583 17.6068 20.9683C14.5268 20.7583 11.2168 20.6483 8.45678 19.9883C6.62678 19.8983 3.27677 20.2983 2.72677 17.8883C2.08677 15.1183 1.69678 12.2883 1.56678 9.44826C1.46678 7.32826 1.15678 2.08825 4.20678 1.67825C4.65678 1.61825 5.40678 2.11826 5.85678 2.21826C6.78678 2.42826 7.69678 2.39826 8.62678 2.15826C9.76678 1.85826 10.8268 1.30825 11.9168 0.868254C12.1568 0.768254 12.3968 0.678262 12.6568 0.688262C13.2368 0.708262 13.6668 1.20826 14.1368 1.55826C16.0968 3.03826 19.6168 2.26826 21.7868 1.69826C22.6868 1.45826 23.5968 1.31826 24.4668 1.40826Z" fill="url(#paint2_linear_90_11414)"/>
<path d="M21.9389 35.5073C21.2989 37.3173 20.1889 38.8273 19.1889 40.4873C18.8189 41.0973 15.8189 46.8573 15.1089 45.6273C14.9689 45.3873 15.0089 45.0973 15.0589 44.8373C15.8389 40.3973 17.8389 35.7873 15.7189 31.3673C15.4689 30.8473 15.1589 30.3473 14.6989 29.9673C13.5189 28.9973 11.7889 29.4273 10.6489 30.2373C7.74894 32.2973 6.65895 35.6073 5.51895 38.6573C4.95895 40.1373 4.43893 41.8673 3.42893 43.1573C2.23893 44.6873 1.83894 42.7373 1.70894 41.6873C1.31894 38.6673 1.29894 35.5973 1.68894 32.5773C1.94894 30.5273 2.27894 28.4573 2.96894 26.4873C3.59894 24.6773 4.85894 23.0173 5.05894 21.0873C5.41894 17.7073 1.70894 10.5873 4.47894 8.22727C5.54894 7.74727 6.78894 7.65727 7.94894 7.46727C9.92894 7.13727 11.9489 7.09728 13.9489 7.20728C16.9889 7.37728 21.6389 7.27728 23.7989 9.48728C25.5489 11.2773 25.1589 13.8473 24.9189 16.1673C24.5989 19.2973 23.6789 22.6573 23.3689 25.7873C23.0689 28.7773 22.9489 31.9373 22.1489 34.8573C22.0889 35.0673 22.0189 35.2973 21.9389 35.5073Z" fill="#FCF2D9"/>
<path d="M13.4947 50.0499C13.4947 50.0499 17.9746 43.6599 18.9346 40.6599C19.9046 37.6599 21.0747 18.8299 20.0647 15.4799C19.0547 12.1299 9.33466 12.1599 8.49466 14.2099C7.65466 16.2599 5.34465 29.3499 5.34465 29.3499C5.34465 29.3499 4.12465 34.8099 3.70465 39.8399C3.35465 44.0199 4.37466 47.6799 4.80466 48.4899C4.80466 48.4899 4.00466 44.2399 4.55466 39.6599C5.08466 35.2699 7.53465 31.1699 7.86465 30.4599C8.52465 28.9999 10.4547 27.1699 13.5847 27.0599C16.7147 26.9499 18.1146 31.3299 18.3446 32.6399C18.5746 33.9499 17.3846 40.8499 17.1246 42.2599L13.4947 50.0499Z" fill="#D8D8D8"/>
<path d="M13.5624 50.1017L13.4024 50.0117L17.0225 42.2217C17.3425 40.5017 18.4625 33.9017 18.2425 32.6517C18.1325 32.0217 17.7325 30.6117 16.9625 29.3617C16.0225 27.8517 14.8825 27.1017 13.5725 27.1517C12.1825 27.2017 10.8924 27.6117 9.84245 28.3317C8.99245 28.9117 8.30245 29.7017 7.94245 30.5017C7.89245 30.6117 7.80244 30.7817 7.68244 31.0117C6.97244 32.3617 5.09245 35.9317 4.64245 39.6717C4.10245 44.1917 4.88245 48.4317 4.89245 48.4717L5.00245 49.0617L4.72245 48.5317C4.31245 47.7617 3.25245 44.1317 3.61245 39.8317C4.03245 34.8517 5.24245 29.3817 5.25245 29.3317C5.34245 28.8017 7.57246 16.2117 8.41246 14.1717C8.87246 13.0617 11.6125 12.6017 14.0825 12.7217C16.6625 12.8517 19.6124 13.6317 20.1524 15.4517C20.6024 16.9517 20.6625 21.7217 20.3225 28.2017C20.0125 34.1217 19.4724 39.2517 19.0124 40.6817C18.0624 43.6717 13.6124 50.0417 13.5624 50.1017ZM13.7024 26.9617C16.7524 26.9617 18.1825 31.1317 18.4425 32.6217C18.7025 34.1017 17.2325 42.1917 17.2125 42.2717V42.2817V42.2917L14.0424 49.1017C15.3024 47.2317 18.1225 42.9217 18.8525 40.6417C19.3025 39.2417 19.8524 34.0117 20.1524 28.2117C20.4124 23.2217 20.5024 17.2717 19.9824 15.5217C19.7524 14.7617 19.0225 14.1217 17.8625 13.6517C16.8425 13.2417 15.5025 12.9817 14.0725 12.9117C11.3125 12.7717 8.95245 13.3517 8.58245 14.2517C7.76245 16.2617 5.46244 29.2417 5.43244 29.3717C5.42244 29.4317 4.21245 34.8817 3.79245 39.8517C3.60245 42.1117 3.83245 44.1317 4.05245 45.4117C4.21245 46.3317 4.40245 47.1117 4.58245 47.6717C4.38245 46.2117 4.05246 43.0017 4.46246 39.6417C4.91246 35.8617 6.80246 32.2717 7.52246 30.9117C7.64246 30.6817 7.73245 30.5117 7.78245 30.4117C8.16245 29.5817 8.87246 28.7617 9.74246 28.1717C10.8225 27.4317 12.1525 27.0117 13.5725 26.9617C13.6225 26.9617 13.6624 26.9617 13.7024 26.9617Z" fill="#FF0000"/>
<defs>
<linearGradient id="paint0_linear_90_11414" x1="17.2562" y1="27.7814" x2="9.49451" y2="72.0734" gradientUnits="userSpaceOnUse">
<stop offset="0.1599" stop-color="#BFAB8D"/>
<stop offset="0.5078" stop-color="#E7E1D2"/>
<stop offset="0.7297" stop-color="#CCBFA6"/>
</linearGradient>
<linearGradient id="paint1_linear_90_11414" x1="24.3813" y1="34.1118" x2="1.8544" y2="34.1931" gradientUnits="userSpaceOnUse">
<stop stop-color="#BFAB8D"/>
<stop offset="0.5078" stop-color="#E7E1D2"/>
<stop offset="1" stop-color="#CCBFA6"/>
</linearGradient>
<linearGradient id="paint2_linear_90_11414" x1="34.4855" y1="10.9769" x2="-4.36022" y2="11.1172" gradientUnits="userSpaceOnUse">
<stop stop-color="#94938C"/>
<stop offset="0.2296" stop-color="#EDEBE1"/>
<stop offset="0.7988" stop-color="#EDEBE1"/>
<stop offset="1" stop-color="#94938C"/>
</linearGradient>
</defs>
</svg>
