<svg width="24" height="42" viewBox="0 0 24 42" fill="none" xmlns="http://www.w3.org/2000/svg">
<path d="M7.00781 39.3405C7.00781 39.3405 9.45781 42.9305 13.1778 40.4805C16.8978 38.0405 8.92781 37.6505 7.00781 39.3405Z" fill="#D8D6D0"/>
<path d="M9.92606 3.92143C9.40606 2.18143 7.60606 2.40144 6.99606 3.97144C5.82606 7.00144 6.42607 10.4014 7.03607 13.4914C7.31607 14.9214 7.85607 20.2114 9.87607 20.3814C11.8761 20.5514 15.5361 15.8514 13.8661 13.2314C12.9661 11.8114 11.9761 10.4314 11.2361 8.92143C10.4261 7.26143 10.4361 5.62143 9.92606 3.92143Z" fill="url(#paint0_linear_90_11326)"/>
<path d="M20.3856 27.2119C20.3156 27.2519 20.1156 26.7819 19.9256 26.8019C19.6856 26.8319 19.3756 26.7419 19.1356 26.7219C18.2956 26.6419 17.4456 26.5619 16.5956 26.5019C14.2456 26.3219 11.8856 26.2219 9.52559 26.2619C7.88559 26.2919 6.2156 26.3819 4.6056 26.7319C3.6156 26.9419 2.3056 27.2619 1.6956 28.1619C1.6956 28.1619 3.0656 22.6419 2.0856 18.3919C1.1056 14.1419 -0.204401 2.70187 2.4056 2.37187C4.0456 2.16187 5.2856 5.99188 5.7156 7.05188C6.8556 9.87188 7.7456 12.8819 8.5556 15.8519C8.5756 15.9319 8.6056 16.0219 8.6556 16.0919C9.0956 16.7019 10.6256 16.9419 11.2256 16.5319C11.7256 16.1919 11.8456 15.5219 11.9256 14.9219C12.0656 13.8619 12.2156 12.8019 12.3556 11.7419C12.6956 9.22188 13.0356 6.69187 12.9756 4.14187C12.9556 3.44187 12.1656 -0.118129 13.8556 0.731871C16.7056 2.15187 18.3256 6.09187 19.1256 8.92187C20.1956 12.7419 20.2356 16.8319 20.3856 20.7619C20.4556 22.5719 20.5456 24.4019 20.4256 26.2019C20.3856 26.5719 20.4856 27.1619 20.3856 27.2119Z" fill="url(#paint1_linear_90_11326)"/>
<path d="M19.293 26.0611C18.413 25.4511 17.243 25.3811 16.223 25.1811C14.693 24.8711 13.143 24.6211 11.583 24.5211C8.13295 24.3111 4.35295 24.9511 2.03295 27.7511C1.21295 28.7411 0.642949 29.9211 0.352949 31.1711C0.0329495 32.5711 0.292949 33.4811 0.742949 34.8111C1.15295 36.0311 1.69295 37.3411 2.35295 38.4411C3.07295 39.6311 4.22295 40.6711 5.66295 40.6511C7.22295 40.6311 8.75295 40.0111 9.79295 38.8311C9.84295 38.7711 9.90295 38.7011 9.98295 38.6711C10.073 38.6311 10.1829 38.6511 10.2729 38.6711C12.3729 39.1511 14.4829 40.5211 16.4229 41.4511C17.3529 41.8911 17.8829 42.0311 18.8129 41.5411C19.9829 40.9211 21.0929 40.1711 21.9629 39.1711C24.5229 36.2211 23.5429 32.0211 21.6729 28.9811C21.0829 28.0211 20.3529 26.9011 19.4629 26.1911C19.4029 26.1411 19.343 26.1011 19.293 26.0611Z" fill="url(#paint2_linear_90_11326)"/>
<path d="M15.2714 3.22031C20.1114 9.47031 18.0214 17.6603 19.3114 24.8103C19.4414 25.5503 19.6414 26.1803 19.9914 26.8603C20.8314 28.4903 21.7814 29.9403 21.8414 31.8003C21.9114 34.0103 20.9314 36.0503 19.3114 37.6003C19.2114 37.7003 19.1014 37.8003 18.9714 37.8503C18.8114 37.9203 18.6414 37.9203 18.4714 37.9303C16.0514 37.9603 13.5814 37.4303 11.4914 36.2603C10.9014 35.9303 10.4314 35.5103 9.72138 35.3503C9.29138 35.2503 8.80138 35.2803 8.44138 35.5103C8.17138 35.6803 7.99138 35.9403 7.76138 36.1503C6.42138 37.4103 4.10138 36.5303 3.05138 35.3403C2.28138 34.4703 1.89138 33.3303 1.79138 32.1903C1.61138 30.1803 2.29137 28.2103 2.52137 26.2303C2.97137 22.2303 2.73137 18.3003 2.28137 14.3103C1.97137 11.6003 1.44138 8.71031 1.66138 5.97031C1.67138 5.88031 1.68138 5.7903 1.69138 5.7003C1.78138 5.1203 1.81138 1.4303 2.87138 2.3403C3.04138 2.4803 3.54137 4.1703 3.64137 4.3703C4.43137 5.9703 4.84137 7.7803 5.45137 9.4503C6.10137 11.2103 6.33137 12.9203 7.09137 14.6403C7.67137 15.9603 8.70137 18.3003 10.4514 17.7703C11.1314 17.5703 12.0714 16.2703 12.5814 14.7303C13.4714 12.0203 13.7114 8.4403 13.7114 7.8103C13.7114 6.8403 13.8014 5.8703 13.8614 4.9003C13.9314 3.9003 12.7414 0.570312 13.4814 0.570312C14.2214 0.570312 14.9314 2.78031 15.2714 3.22031Z" fill="#FCF2D9"/>
<path d="M13.6144 0.738281C13.6144 0.738281 14.7044 5.26827 15.6144 7.77827C16.5344 10.2883 17.9944 25.1383 17.0744 27.9583C16.1544 30.7783 6.29442 30.5283 5.50442 28.8183C4.71442 27.1083 3.41442 17.3183 3.41442 17.3183C3.41442 17.3183 2.80442 13.2383 2.39442 9.01828C2.04442 5.51828 2.35442 2.42827 2.75442 1.75827C2.75442 1.75827 2.70442 5.31828 3.24442 9.15828C3.75442 12.8383 4.63442 15.8283 4.93442 16.4183C5.55442 17.6383 7.08442 19.7583 9.99442 19.8383C12.9044 19.9183 14.1944 16.5483 14.4044 15.4383C14.6144 14.3383 14.6244 8.33828 14.3744 7.15828L13.6144 0.738281Z" fill="#D8D8D8"/>
<path d="M10.7231 30.1888C8.3031 30.1888 5.8331 29.7387 5.4331 28.8587C4.6431 27.1487 3.3831 17.7288 3.3331 17.3288C3.3231 17.2888 2.7231 13.1987 2.3131 9.02875C1.9831 5.66875 2.2431 2.46876 2.6831 1.70876L2.8531 1.40875V1.75874C2.8531 1.79874 2.8131 5.34875 3.3431 9.13875C3.8431 12.7087 4.7031 15.7487 5.0231 16.3687C5.3231 16.9487 5.8431 17.7787 6.6731 18.4787C7.6231 19.2787 8.7431 19.7088 10.0031 19.7388C11.2331 19.7688 12.2831 19.1888 13.1431 18.0188C13.8731 17.0288 14.2231 15.9187 14.3231 15.4187C14.5231 14.3687 14.5431 8.34874 14.2931 7.17874V7.16875L13.5331 0.748749L13.7131 0.71875C13.7231 0.76875 14.8131 5.26875 15.7131 7.74875C16.1531 8.95875 16.7531 13.1687 17.1331 17.7487C17.2931 19.6787 17.7731 26.1388 17.1731 27.9888C16.9631 28.6288 16.3231 29.1487 15.2531 29.5387C14.3431 29.8687 13.1631 30.0788 11.8231 30.1588C11.4531 30.1788 11.0931 30.1888 10.7231 30.1888ZM2.66311 2.26875C2.37311 3.40875 2.19311 6.04874 2.48311 9.00874C2.89311 13.1787 3.5031 17.2687 3.5031 17.3087C3.5131 17.4087 4.8131 27.0987 5.5931 28.7787C5.9731 29.5987 8.81311 30.1488 11.8031 29.9688C14.6931 29.7987 16.6331 29.0387 16.9931 27.9287C17.3931 26.6987 17.3731 22.8987 16.9431 17.7587C16.5631 13.1887 15.9731 9.00875 15.5331 7.80875C14.9431 6.17875 14.2631 3.67875 13.8731 2.12875L14.4631 7.13875C14.7231 8.35875 14.7031 14.3487 14.4931 15.4487C14.3931 15.9687 14.0331 17.1088 13.2831 18.1288C12.4231 19.2988 11.3131 19.9187 10.0831 19.9187C10.0531 19.9187 10.0231 19.9187 9.98311 19.9187C8.68311 19.8887 7.5231 19.4487 6.5431 18.6187C5.6931 17.9087 5.1531 17.0488 4.8531 16.4588C4.5231 15.8188 3.6531 12.7587 3.1531 9.16875C2.7331 6.21875 2.66311 3.39875 2.66311 2.26875Z" fill="#FF0000"/>
<defs>
<linearGradient id="paint0_linear_90_11326" x1="12.8676" y1="19.6484" x2="-0.830678" y2="-13.8026" gradientUnits="userSpaceOnUse">
<stop offset="0.1599" stop-color="#BFAB8D"/>
<stop offset="0.5078" stop-color="#E7E1D2"/>
<stop offset="0.7297" stop-color="#CCBFA6"/>
</linearGradient>
<linearGradient id="paint1_linear_90_11326" x1="1.54348" y1="16.6683" x2="19.2313" y2="13.3068" gradientUnits="userSpaceOnUse">
<stop offset="0.1599" stop-color="#BFAB8D"/>
<stop offset="0.5078" stop-color="#E7E1D2"/>
<stop offset="0.7297" stop-color="#CCBFA6"/>
</linearGradient>
<linearGradient id="paint2_linear_90_11326" x1="28.771" y1="33.0922" x2="-4.5141" y2="33.188" gradientUnits="userSpaceOnUse">
<stop stop-color="#94938C"/>
<stop offset="0.2296" stop-color="#EDEBE1"/>
<stop offset="0.7988" stop-color="#EDEBE1"/>
<stop offset="1" stop-color="#94938C"/>
</linearGradient>
</defs>
</svg>
