<svg width="19" height="52" viewBox="0 0 19 52" fill="none" xmlns="http://www.w3.org/2000/svg">
<path d="M15.352 21.1492C14.552 26.4092 13.132 31.6593 11.292 36.6393C9.26197 42.1093 6.73197 47.5892 1.81197 51.0192C1.69197 51.0992 1.56197 51.1893 1.42197 51.1993C1.27197 51.2093 1.13197 51.1293 1.01197 51.0393C0.33197 50.5293 0.0819693 49.6092 0.151969 48.7592C0.221969 47.9192 0.561982 47.1193 0.851982 46.3293C2.64198 41.4893 3.08197 36.1592 3.59197 31.0592C3.91197 27.8292 4.68197 23.8692 3.92197 20.6492C3.11197 17.1892 14.842 20.5392 15.352 21.1492Z" fill="url(#paint0_linear_90_11399)"/>
<path d="M5.21282 1.17037C5.94282 0.840369 6.69282 0.830373 7.71282 1.08037C7.98282 1.15037 8.28281 1.25038 8.43281 1.49038C9.13281 2.61038 3.41282 4.76038 2.72282 3.82038C2.32282 3.26038 3.84282 2.15037 4.16282 1.87037C4.52282 1.56037 4.86282 1.33037 5.21282 1.17037Z" fill="#D8D6D0"/>
<path d="M15.1557 1.36058C15.4957 1.46058 15.7458 1.57058 15.8558 1.67058C16.4058 2.15058 16.9658 2.66059 17.2158 3.35059C17.3158 3.62059 17.3258 3.99058 17.0758 4.14058C16.9958 4.19058 16.8957 4.21059 16.7957 4.21059C15.6557 4.30059 14.3258 3.56058 13.3558 3.03058C12.9958 2.83058 11.4557 2.12059 11.5257 1.57059C11.6257 0.72059 13.9257 0.990584 15.1557 1.36058Z" fill="#D8D6D0"/>
<path d="M17.1588 3.45994C17.1588 3.45994 19.4487 5.08993 18.1387 9.33993C17.4887 15.2199 15.5287 21.1099 15.5287 21.1099C15.5287 21.1099 14.8788 22.0899 10.2988 22.0899C5.71875 22.0899 4.41874 21.4399 3.75874 20.1299C3.10874 18.8199 1.46875 6.39993 1.46875 6.39993C1.46875 6.39993 1.79875 3.45994 3.09875 3.12994C4.40875 2.79994 5.70874 2.47993 6.03874 2.47993C6.36874 2.47993 9.30874 0.519941 10.6187 0.849941C11.9287 1.17994 15.1988 3.78994 17.1588 3.45994Z" fill="url(#paint1_linear_90_11399)"/>
<path d="M16.2913 9.99955C16.2913 9.99955 16.8314 7.39955 14.5214 6.87955C12.2114 6.35955 4.95135 6.48955 4.72135 6.57955C4.49135 6.66955 3.95135 6.70955 3.54135 7.35955C2.57135 8.90955 3.06136 10.5695 3.66136 12.1495C4.90136 15.3995 5.38135 18.9895 5.62135 22.4295C6.15135 29.9895 4.12136 37.3496 2.32136 44.6296C2.15136 45.3296 1.81135 46.1595 1.81135 46.8895C1.81135 47.4995 1.22135 49.4495 1.40135 49.5395C1.58135 49.6295 3.12135 49.0195 4.39135 46.6795C5.66135 44.3395 11.4213 29.9795 12.0113 27.8095C12.9413 24.3995 13.7913 20.9695 14.6513 17.5395C15.2713 15.0995 16.1713 12.4895 16.2913 9.99955Z" fill="#FCF2D9"/>
<path d="M9.9442 9.75783C9.4842 10.4078 8.59421 13.9978 8.35421 15.1178C8.02421 16.7278 7.2142 26.3178 6.5842 29.6278C5.7842 33.8778 4.6342 38.6378 3.7542 42.8978C3.5642 43.8178 1.01421 50.3878 1.30421 50.2178C1.39421 50.1778 4.4442 45.4878 5.2242 42.6078C6.3542 38.3978 7.4942 34.1178 8.6742 29.9478C9.4942 27.0478 11.3242 18.6878 11.6242 17.2178C11.9342 15.7178 12.8642 11.6878 12.7442 10.9678C12.6142 10.1678 12.1442 9.46783 11.7642 9.44783C11.2842 9.42783 10.3942 9.10783 9.9442 9.75783Z" fill="#D8D8D8"/>
<path d="M1.29143 50.309C1.27143 50.309 1.25143 50.299 1.23143 50.289C1.13143 50.209 1.15143 50.019 2.48143 46.349C3.02143 44.839 3.59144 43.279 3.67144 42.879C4.03144 41.149 4.44144 39.289 4.83144 37.489C5.41144 34.849 6.02144 32.129 6.49144 29.609C6.84144 27.749 7.25144 23.939 7.60144 20.579C7.87144 18.019 8.11144 15.809 8.25144 15.099C8.47144 14.029 9.38144 10.379 9.85144 9.69899C10.2514 9.13899 10.9314 9.23899 11.4314 9.30899C11.5514 9.32899 11.6614 9.339 11.7514 9.349C12.1814 9.369 12.6714 10.119 12.8114 10.949C12.9114 11.539 12.3514 14.159 11.9414 16.079C11.8414 16.539 11.7614 16.939 11.7014 17.239C11.3714 18.859 9.55144 27.139 8.75144 29.969C7.68144 33.769 6.62144 37.709 5.60144 41.509L5.30144 42.629C4.89144 44.149 3.87144 46.129 3.08144 47.519C2.58144 48.409 2.13144 49.119 1.92144 49.459C1.47144 50.169 1.38144 50.269 1.35144 50.289C1.33144 50.309 1.31143 50.309 1.29143 50.309ZM10.8414 9.439C10.5214 9.439 10.2214 9.51899 10.0114 9.80899C9.58143 10.419 8.70144 13.859 8.44144 15.139C8.30144 15.839 8.06143 18.039 7.79143 20.599C7.43143 23.959 7.03144 27.779 6.67144 29.649C6.19144 32.169 5.59143 34.899 5.01143 37.539C4.61143 39.329 4.20144 41.189 3.85144 42.919C3.76144 43.329 3.23143 44.829 2.65143 46.409C2.19143 47.679 1.64143 49.199 1.45143 49.869C2.17143 48.799 4.49144 44.989 5.14144 42.589L5.44144 41.469C6.46144 37.659 7.52143 33.729 8.59143 29.929C9.39143 27.099 11.2114 18.829 11.5414 17.209C11.6014 16.909 11.6914 16.509 11.7914 16.049C12.1714 14.259 12.7614 11.549 12.6614 10.989C12.5314 10.189 12.0714 9.55899 11.7714 9.53899C11.6714 9.52899 11.5514 9.519 11.4314 9.499C11.2414 9.469 11.0414 9.439 10.8414 9.439Z" fill="#FF0000"/>
<defs>
<linearGradient id="paint0_linear_90_11399" x1="12.1216" y1="35.1202" x2="1.75517" y2="35.1577" gradientUnits="userSpaceOnUse">
<stop stop-color="#BFAB8D"/>
<stop offset="0.5078" stop-color="#E7E1D2"/>
<stop offset="1" stop-color="#CCBFA6"/>
</linearGradient>
<linearGradient id="paint1_linear_90_11399" x1="22.1786" y1="11.4108" x2="-1.95345" y2="11.4979" gradientUnits="userSpaceOnUse">
<stop stop-color="#94938C"/>
<stop offset="0.2296" stop-color="#EDEBE1"/>
<stop offset="0.7988" stop-color="#EDEBE1"/>
<stop offset="1" stop-color="#94938C"/>
</linearGradient>
</defs>
</svg>
