<svg width="19" height="53" viewBox="0 0 19 53" fill="none" xmlns="http://www.w3.org/2000/svg">
<path d="M15.7219 20.9611C15.7219 20.9611 9.51188 46.4511 4.28188 50.7011C-0.948123 54.9511 1.67188 46.4511 1.67188 46.4511C1.67188 46.4511 3.63188 30.7611 3.63188 27.8211C3.63188 24.8811 2.59187 19.3711 2.59187 19.3711C2.59187 19.3711 12.6619 21.5411 15.7219 20.9611Z" fill="url(#paint0_linear_90_11387)"/>
<path d="M16.0535 1.67125C16.0535 1.67125 19.3235 3.30125 18.3435 7.88125C17.3635 12.4613 17.6935 15.0713 17.6935 15.0713C17.6935 15.0713 17.0435 22.9113 11.4835 23.2413C5.92353 23.5713 2.33354 20.3012 2.00354 18.3412C1.67354 16.3812 1.67354 10.8212 1.35354 9.84124C1.03354 8.86124 0.0435345 2.65125 3.31353 1.67125C6.58353 0.691247 8.54353 0.361249 8.54353 0.361249C8.54353 0.361249 11.8035 -0.608753 16.0535 1.67125Z" fill="url(#paint1_linear_90_11387)"/>
<path d="M2.441 51.8323C2.441 51.8323 13.301 24.7423 13.731 21.9523C14.151 19.1623 18.921 5.35234 14.941 4.57234C10.961 3.78234 8.521 4.22234 6.161 4.13234C3.801 4.04234 2.75099 4.74233 3.01099 5.62233C3.27099 6.50233 3.01099 15.9323 4.06099 18.9023C5.11099 21.8723 3.501 45.1323 2.801 46.7023C0.920997 51.8123 1.481 52.0923 2.441 51.8323Z" fill="#FCF2D9"/>
<path d="M9.035 7.50076C8.565 8.24076 7.765 12.2408 7.565 13.4808C7.275 15.2608 6.135 26.1508 5.615 29.8108C4.945 34.5308 4.675 39.5408 3.925 44.2607C3.765 45.2807 1.29501 52.6407 1.60501 52.4307C1.70501 52.3807 4.315 46.9508 5.015 43.7408C6.045 39.0608 6.955 34.3508 8.035 29.7008C8.785 26.4708 11.025 17.2508 11.275 15.6208C11.535 13.9508 12.355 9.48076 12.185 8.69076C11.995 7.81076 11.445 7.07075 11.035 7.06075C10.495 7.06075 9.505 6.77076 9.035 7.50076Z" fill="#D8D8D8"/>
<path d="M1.58249 52.5297C1.56249 52.5297 1.54249 52.5197 1.52249 52.5097C1.40249 52.4197 1.43249 52.2197 2.69249 48.1197C3.21249 46.4297 3.75249 44.6897 3.82249 44.2397C4.23249 41.6797 4.50248 38.9897 4.76248 36.3997C4.98248 34.2197 5.21248 31.9597 5.51248 29.7997C5.78248 27.8697 6.24249 23.8997 6.63249 20.3897C7.00249 17.1297 7.32249 14.3097 7.46249 13.4597C7.65249 12.2697 8.46248 8.20968 8.95248 7.44968C9.36248 6.80968 10.1125 6.88968 10.6625 6.94968C10.7925 6.95968 10.9225 6.97968 11.0225 6.97968C11.4925 6.97968 12.0725 7.77968 12.2625 8.67968C12.4025 9.32968 11.9125 12.2297 11.5625 14.3597C11.4725 14.8697 11.4025 15.3097 11.3525 15.6397C11.1625 16.8597 9.86249 22.3297 8.91249 26.3297C8.58249 27.7097 8.30248 28.9097 8.11248 29.7297C7.46248 32.5097 6.87248 35.3597 6.29248 38.1097C5.90248 39.9597 5.50248 41.8797 5.09248 43.7597C4.72248 45.4597 3.83248 47.7097 3.15248 49.3097C2.71248 50.3497 2.33248 51.1597 2.15248 51.5497C1.73248 52.4397 1.67248 52.4997 1.64248 52.5197C1.62248 52.5297 1.60249 52.5297 1.58249 52.5297ZM9.11248 7.54969C8.67248 8.23969 7.88248 12.0797 7.65248 13.4897C7.52248 14.3297 7.18249 17.2897 6.82249 20.4097C6.42249 23.9197 5.97248 27.8897 5.70248 29.8197C5.39248 31.9797 5.17248 34.2297 4.95248 36.4197C4.69248 39.0197 4.42248 41.7097 4.01248 44.2697C3.94248 44.7297 3.42248 46.3997 2.87248 48.1697C2.44248 49.5497 1.93249 51.1897 1.74249 51.9697C2.39249 50.6597 4.32249 46.4397 4.91249 43.7197C5.32249 41.8397 5.72248 39.9197 6.11248 38.0697C6.69248 35.3097 7.28248 32.4597 7.93248 29.6797C8.12248 28.8597 8.41248 27.6597 8.73248 26.2797C9.68248 22.2897 10.9825 16.8197 11.1725 15.5997C11.2225 15.2697 11.3025 14.8197 11.3825 14.3097C11.7125 12.3197 12.2125 9.30968 12.0825 8.69968C11.8925 7.82968 11.3525 7.14968 11.0225 7.14968C10.9125 7.14968 10.7825 7.13968 10.6525 7.11968C10.1225 7.07968 9.45248 7.00969 9.11248 7.54969Z" fill="#FF0000"/>
<defs>
<linearGradient id="paint0_linear_90_11387" x1="2.46428" y1="35.6329" x2="14.0207" y2="35.6746" gradientUnits="userSpaceOnUse">
<stop stop-color="#BFAB8D"/>
<stop offset="0.5078" stop-color="#E7E1D2"/>
<stop offset="1" stop-color="#CCBFA6"/>
</linearGradient>
<linearGradient id="paint1_linear_90_11387" x1="-2.33126" y1="11.6687" x2="21.8355" y2="11.756" gradientUnits="userSpaceOnUse">
<stop stop-color="#94938C"/>
<stop offset="0.2296" stop-color="#EDEBE1"/>
<stop offset="0.4283" stop-color="#EDEBE1"/>
<stop offset="0.7988" stop-color="#EDEBE1"/>
<stop offset="1" stop-color="#94938C"/>
</linearGradient>
</defs>
</svg>
