<svg width="19" height="67" viewBox="0 0 19 67" fill="none" xmlns="http://www.w3.org/2000/svg">
<path d="M15.9889 26.7887C14.0889 26.7787 12.1488 26.5987 10.2488 26.4487C7.94885 26.2687 4.70885 26.3787 2.60885 25.2787C2.41885 25.1787 2.34884 24.8387 2.17884 24.7188C1.77884 26.0688 2.11885 28.2287 2.19885 29.6087C2.42885 33.5587 2.59885 37.5187 2.55885 41.4688C2.53885 43.6488 2.41885 45.8187 2.21885 47.9987C1.94885 50.9987 0.928853 53.9288 0.658853 56.9688C0.468853 59.0988 0.498847 61.2587 0.918847 63.3587C1.04885 64.0187 1.23885 65.7288 1.80885 65.8888C2.56885 66.0988 3.70885 64.9388 4.08885 64.4188C5.34885 62.7288 5.66885 60.4288 6.30885 58.4688C7.02885 56.2687 7.86884 54.1188 8.72884 51.9788C10.4088 47.7988 12.1688 43.6288 13.2488 39.2388C13.8788 36.6788 14.1588 34.0487 14.7488 31.4787C15.1088 29.9087 15.5389 28.3487 15.9889 26.7887Z" fill="url(#paint0_linear_90_11377)"/>
<path d="M18.1818 8.03827C18.1818 8.03827 19.1618 2.80827 16.8718 1.17827C14.5818 -0.451733 13.6018 0.198271 13.6018 0.198271C12.6518 0.458271 11.7018 0.698267 10.7518 0.928267C9.18179 1.30827 7.49179 1.85828 5.86179 1.81828C5.53179 1.80828 5.21179 1.77827 4.88179 1.80827C2.46179 2.04827 2.06178 4.62828 1.70178 6.51828C1.23178 8.93828 0.901792 11.3983 0.711792 13.8583C0.551792 15.8883 0.471785 17.9483 0.641785 19.9783C0.761785 21.4483 0.971782 23.1383 1.84178 24.3883C3.05178 26.1283 5.26179 26.9283 7.25179 27.3783C9.77179 27.9583 12.4118 28.0883 14.9818 27.9883C16.3818 27.9283 16.7718 24.8083 16.8518 23.8183C17.2618 18.5583 17.7118 13.2983 18.1818 8.03827Z" fill="url(#paint1_linear_90_11377)"/>
<path d="M16.6389 6.51923C16.6389 6.51923 16.8589 3.70922 14.0989 3.97922C11.3389 4.24922 7.64892 5.42922 7.03892 5.46922C6.42892 5.50922 4.88893 4.36922 3.96893 5.55922C3.04893 6.73922 2.12892 12.4892 2.03892 14.1492C1.94892 15.8192 1.68892 23.4892 2.47892 24.5892C3.26892 25.6892 2.81894 26.6592 2.81894 26.6592C2.81894 26.6592 2.69893 30.2492 2.91893 31.7792C3.13893 33.3092 3.35893 43.7892 3.35893 44.4492C3.35893 45.1092 2.65893 50.3292 2.52893 51.2892C2.39893 52.2492 1.56892 54.7092 1.47892 55.3692C1.38892 56.0292 0.998928 59.8892 1.38893 61.0692C1.77893 62.2492 1.29893 65.2392 1.95894 65.9792C2.61894 66.7292 4.14892 63.5192 4.36892 62.8192C4.58892 62.1192 7.39893 53.2592 7.65893 52.5592C7.91893 51.8592 12.6089 38.7492 13.1889 35.5892C13.7589 32.4292 15.0289 26.2892 15.0289 26.2892C15.0289 26.2892 16.8989 7.25923 16.6389 6.51923Z" fill="#FCF2D9"/>
<path d="M9.23886 11.0901C8.76886 12.0201 7.99885 16.9301 7.80885 18.4601C7.53885 20.6401 6.46885 33.9401 5.97885 38.4301C5.34885 44.2001 5.10884 50.3001 4.39884 56.0901C4.24884 57.3401 1.81886 66.4601 2.12886 66.1801C2.22886 66.1101 4.79886 59.3201 5.48886 55.3801C6.48886 49.6201 7.35885 43.8301 8.40885 38.1101C9.13885 34.1301 11.3088 22.7701 11.5588 20.7701C11.8088 18.7201 12.5988 13.2301 12.4188 12.2901C12.2188 11.2401 11.6588 10.3801 11.2488 10.4001C10.7088 10.4501 9.70886 10.1601 9.23886 11.0901Z" fill="#D8D8D8"/>
<path d="M2.12082 66.2788C2.10082 66.2788 2.08083 66.2688 2.07083 66.2688C1.99083 66.2188 1.94082 66.1988 2.34082 64.4688C2.57082 63.4788 2.89083 62.1488 3.21083 60.8788C3.72083 58.7888 4.25083 56.6388 4.32083 56.0888C4.71083 52.9488 4.96082 49.6688 5.20082 46.4988C5.40082 43.8288 5.61082 41.0688 5.90082 38.4288C6.16082 36.0688 6.58082 31.2088 6.95082 26.9288C7.30082 22.9388 7.60082 19.4988 7.73082 18.4588C7.91082 17.0088 8.69082 12.0288 9.17082 11.0588L9.25083 11.0988L9.17082 11.0588C9.57082 10.2588 10.3308 10.2988 10.8808 10.3288C11.0108 10.3388 11.1408 10.3388 11.2408 10.3388C11.7208 10.3088 12.3008 11.2088 12.5008 12.2988C12.6408 13.0688 12.1808 16.6288 11.8408 19.2288C11.7608 19.8588 11.6908 20.3988 11.6408 20.7988C11.4608 22.2888 10.2008 29.0288 9.27083 33.9488C8.95083 35.6488 8.67083 37.1288 8.49083 38.1388C7.86083 41.5588 7.29082 45.0588 6.73082 48.4488C6.36082 50.7288 5.97083 53.0888 5.57083 55.3988C5.21083 57.4888 4.34082 60.2888 3.67082 62.2688C3.23082 63.5688 2.86082 64.5688 2.68082 65.0588C2.29082 66.0988 2.22083 66.2288 2.19083 66.2588C2.16083 66.2688 2.14082 66.2788 2.12082 66.2788ZM10.5408 10.4888C10.0808 10.4888 9.60083 10.5788 9.32083 11.1288C8.88083 11.9988 8.11082 16.7288 7.90082 18.4688C7.77082 19.4988 7.46082 23.1088 7.12082 26.9288C6.75082 31.2088 6.32082 36.0688 6.06082 38.4288C5.77082 41.0688 5.56083 43.8288 5.36083 46.4888C5.12083 49.6588 4.87082 52.9488 4.48082 56.0888C4.41082 56.6488 3.91082 58.7188 3.37082 60.8988C2.95082 62.6188 2.45082 64.6588 2.26082 65.6088C2.91082 63.9588 4.81083 58.6688 5.39083 55.3488C5.79083 53.0388 6.18083 50.6788 6.55083 48.3988C7.11083 45.0088 7.68082 41.5088 8.31082 38.0788C8.50082 37.0688 8.77082 35.5988 9.09082 33.8888C10.0108 28.9688 11.2708 22.2388 11.4508 20.7488C11.5008 20.3388 11.5708 19.7988 11.6508 19.1688C11.9708 16.7288 12.4508 13.0388 12.3108 12.2988C12.1108 11.2488 11.5708 10.4688 11.2408 10.4888C11.1308 10.4988 11.0008 10.4888 10.8608 10.4788C10.7608 10.4888 10.6608 10.4888 10.5408 10.4888Z" fill="#FF0000"/>
<defs>
<linearGradient id="paint0_linear_90_11377" x1="11.3578" y1="45.2789" x2="2.27605" y2="45.3156" gradientUnits="userSpaceOnUse">
<stop stop-color="#BFAB8D"/>
<stop offset="0.5078" stop-color="#E7E1D2"/>
<stop offset="1" stop-color="#CCBFA6"/>
</linearGradient>
<linearGradient id="paint1_linear_90_11377" x1="22.8539" y1="14.0117" x2="-3.47377" y2="14.1177" gradientUnits="userSpaceOnUse">
<stop stop-color="#94938C"/>
<stop offset="0.2296" stop-color="#EDEBE1"/>
<stop offset="0.7988" stop-color="#EDEBE1"/>
<stop offset="1" stop-color="#94938C"/>
</linearGradient>
</defs>
</svg>
