<svg width="18" height="65" viewBox="0 0 18 65" fill="none" xmlns="http://www.w3.org/2000/svg">
<path d="M14.714 23.4609C14.714 23.4609 6.54394 27.3809 4.25394 24.1109C4.34394 27.3209 4.40395 30.5309 4.44395 33.7509C4.52395 39.8609 4.55394 45.9709 4.37394 52.0809C4.31394 54.2209 4.26395 56.3709 4.05395 58.5109C3.95395 59.6009 3.80395 60.6809 3.60395 61.7609C3.51395 62.2509 3.22394 62.8409 3.45394 63.2909C3.75394 63.8909 4.54394 64.0309 5.09394 63.7609C5.86394 63.3809 6.37394 62.4409 6.76394 61.7209C7.69394 59.9709 8.28395 58.0509 8.83395 56.1509C12.1039 44.7009 14.214 26.9709 14.714 23.4609Z" fill="url(#paint0_linear_90_11366)"/>
<path d="M15.9726 1.02102C15.2026 0.621021 13.9926 0.871017 13.1526 0.861017C11.5826 0.851017 10.0126 0.85101 8.44265 0.90101C6.69265 0.95101 4.25264 0.751014 2.62264 1.56101C1.06264 2.34101 0.902646 4.28101 0.942646 5.81101C1.13265 11.851 1.52264 18.201 3.95264 23.821C4.66264 25.461 5.66264 27.121 7.22264 28.091C9.63264 29.591 12.4026 28.721 13.7726 26.321C14.8726 24.401 15.3026 22.181 15.5326 20.011C15.7026 18.371 15.6027 16.711 15.7127 15.061C15.8327 13.321 16.3526 11.641 16.6226 9.92101C17.0626 7.21101 17.6026 4.37102 16.5926 1.72102C16.4626 1.38102 16.2426 1.16102 15.9726 1.02102Z" fill="url(#paint1_linear_90_11366)"/>
<path d="M14.6688 5.67031C15.1588 6.54031 14.6588 8.26032 14.6088 9.19032C14.4788 11.4703 14.4888 13.7503 14.4888 16.0303C14.4888 17.9503 13.5588 25.3903 13.5388 25.5603C13.5188 25.7303 11.3388 38.8003 11.3388 38.8003C11.3388 38.8003 6.76882 61.9603 5.16882 63.6603C3.56882 65.3603 5.03883 59.3303 5.29883 58.5003C5.56883 57.6703 6.51882 30.6603 6.13882 28.6603C5.75882 26.6603 3.20882 20.1403 2.80882 14.5003C2.40882 8.86031 2.89883 5.54032 4.09883 5.11032C4.87883 4.83032 5.83882 4.85031 6.64882 4.81031C8.00882 4.74031 9.37883 4.74031 10.7388 4.81031C11.8188 4.86031 13.8388 4.56031 14.5888 5.56031C14.6288 5.60031 14.6488 5.64031 14.6688 5.67031Z" fill="#FCF2D9"/>
<path d="M8.66461 8.64977C8.25461 9.59977 7.76461 14.5598 7.66461 16.0898C7.52461 18.2898 7.22462 31.6198 6.99462 36.1298C6.69462 41.9298 6.81461 48.0298 6.44461 53.8498C6.36461 55.1098 4.4746 64.3498 4.7646 64.0598C4.8546 63.9898 7.03461 57.0598 7.48461 53.0798C8.14461 47.2698 8.68461 41.4398 9.39461 35.6698C9.89461 31.6498 11.4046 20.1898 11.5246 18.1798C11.6546 16.1198 12.1246 10.5998 11.8946 9.66977C11.6346 8.63977 11.0246 7.79978 10.6146 7.84978C10.0946 7.91978 9.07461 7.68977 8.66461 8.64977Z" fill="#D8D8D8"/>
<path d="M4.75186 64.1508C4.73186 64.1508 4.72185 64.1508 4.70185 64.1408C4.62185 64.1008 4.57185 64.0708 4.87185 62.3308C5.04185 61.3308 5.29186 59.9908 5.52186 58.6908C5.91186 56.5808 6.31186 54.3908 6.35186 53.8408C6.55186 50.6808 6.61186 47.3908 6.67186 44.2108C6.72186 41.5408 6.77185 38.7708 6.90185 36.1208C7.02185 33.7508 7.16186 28.8808 7.28186 24.5808C7.39186 20.5808 7.49185 17.1208 7.56185 16.0808C7.66185 14.6208 8.14186 9.60078 8.57186 8.61078L8.65185 8.65077L8.57186 8.61078C8.92186 7.79078 9.68186 7.78078 10.2419 7.78078C10.3719 7.78078 10.5019 7.78077 10.6019 7.76077C11.0819 7.70077 11.7119 8.56078 11.9819 9.64078C12.1719 10.4008 11.9119 13.9808 11.7319 16.6008C11.6919 17.2308 11.6519 17.7708 11.6219 18.1808C11.5319 19.6808 10.6619 26.4808 10.0219 31.4508C9.80186 33.1708 9.61185 34.6608 9.48185 35.6808C9.05185 39.1308 8.68186 42.6608 8.32186 46.0808C8.08186 48.3808 7.83186 50.7508 7.57186 53.0908C7.33186 55.2008 6.62186 58.0408 6.07186 60.0608C5.71186 61.3808 5.40186 62.4108 5.24186 62.9008C4.91186 63.9608 4.84186 64.0908 4.82186 64.1208C4.80186 64.1508 4.78186 64.1508 4.75186 64.1508ZM10.6519 7.94078C10.6419 7.94078 10.6319 7.94078 10.6219 7.94078C10.5119 7.95078 10.3819 7.96078 10.2419 7.96078C9.71186 7.97078 9.04186 7.97077 8.74186 8.68077C8.35186 9.58077 7.86186 14.3408 7.75186 16.0908C7.68186 17.1308 7.58186 20.7508 7.47186 24.5808C7.35186 28.8808 7.21185 33.7508 7.09185 36.1308C6.95185 38.7808 6.91186 41.5508 6.86186 44.2208C6.80186 47.4008 6.74185 50.6908 6.54185 53.8608C6.50185 54.4208 6.12186 56.5208 5.71186 58.7308C5.39186 60.4708 5.01186 62.5308 4.88186 63.5008C5.43186 61.8208 7.02185 56.4208 7.40185 53.0708C7.66185 50.7408 7.91185 48.3608 8.15185 46.0608C8.51185 42.6408 8.88185 39.1108 9.31185 35.6608C9.44185 34.6408 9.63186 33.1508 9.85186 31.4308C10.4819 26.4708 11.3519 19.6708 11.4419 18.1708C11.4719 17.7608 11.5019 17.2108 11.5519 16.5808C11.7319 14.1208 11.9919 10.4108 11.8119 9.68077C11.5519 8.68077 10.9919 7.94078 10.6519 7.94078Z" fill="#FF0000"/>
<defs>
<linearGradient id="paint0_linear_90_11366" x1="2.07734" y1="43.6452" x2="11.3103" y2="43.6786" gradientUnits="userSpaceOnUse">
<stop stop-color="#BFAB8D"/>
<stop offset="0.5078" stop-color="#E7E1D2"/>
<stop offset="1" stop-color="#CCBFA6"/>
</linearGradient>
<linearGradient id="paint1_linear_90_11366" x1="-1.77515" y1="14.7612" x2="20.4178" y2="14.8413" gradientUnits="userSpaceOnUse">
<stop stop-color="#94938C"/>
<stop offset="0.2296" stop-color="#EDEBE1"/>
<stop offset="0.7988" stop-color="#EDEBE1"/>
<stop offset="1" stop-color="#94938C"/>
</linearGradient>
</defs>
</svg>
