<svg width="18" height="65" viewBox="0 0 18 65" fill="none" xmlns="http://www.w3.org/2000/svg">
<path d="M3.35156 23.4062C3.35156 23.4062 11.5216 27.3262 13.8116 24.0562C13.7216 27.2662 13.6616 30.4762 13.6216 33.6962C13.5416 39.8062 13.5116 45.9162 13.6916 52.0262C13.7516 54.1662 13.8016 56.3162 14.0116 58.4562C14.1116 59.5462 14.2615 60.6262 14.4615 61.7062C14.5515 62.1962 14.8415 62.7862 14.6115 63.2362C14.3115 63.8362 13.5216 63.9762 12.9716 63.7062C12.2016 63.3262 11.6915 62.3863 11.3015 61.6663C10.3715 59.9163 9.78157 57.9963 9.23157 56.0963C5.96157 44.6563 3.85156 26.9262 3.35156 23.4062Z" fill="url(#paint0_linear_90_11360)"/>
<path d="M2.09302 0.978045C2.86302 0.578045 4.07303 0.828057 4.91303 0.818057C6.48303 0.808057 8.05302 0.80805 9.62302 0.85805C11.373 0.90805 13.813 0.708054 15.443 1.51805C17.003 2.29805 17.163 4.23805 17.123 5.76805C16.933 11.8081 16.543 18.158 14.113 23.778C13.403 25.418 12.403 27.0781 10.843 28.0481C8.43302 29.5481 5.66303 28.678 4.29303 26.278C3.19303 24.358 2.76302 22.1381 2.53302 19.9681C2.36302 18.3281 2.46303 16.6681 2.35303 15.0181C2.23303 13.2781 1.71302 11.5981 1.44302 9.87805C1.00302 7.16805 0.463023 4.32804 1.47302 1.67804C1.59302 1.33804 1.81302 1.11805 2.09302 0.978045Z" fill="url(#paint1_linear_90_11360)"/>
<path d="M3.38535 5.62734C2.89535 6.49734 3.39535 8.21733 3.44535 9.14733C3.57535 11.4273 3.56535 13.7073 3.56535 15.9873C3.56535 17.9073 4.49536 25.3473 4.51536 25.5173C4.53536 25.6873 6.71534 38.7573 6.71534 38.7573C6.71534 38.7573 11.2854 61.9173 12.8854 63.6173C14.4854 65.3173 13.0154 59.2873 12.7554 58.4573C12.4854 57.6273 11.5354 30.6173 11.9154 28.6173C12.2954 26.6173 14.8453 20.0973 15.2453 14.4573C15.6453 8.81735 15.1554 5.49735 13.9554 5.06735C13.1754 4.78735 12.2153 4.80734 11.4053 4.76734C10.0453 4.69734 8.67535 4.69734 7.31535 4.76734C6.23535 4.81734 4.21534 4.51734 3.46534 5.51734C3.43534 5.55734 3.40535 5.58734 3.38535 5.62734Z" fill="#FCF2D9"/>
<path d="M9.47994 8.64977C9.88994 9.59977 10.3799 14.5598 10.4799 16.0898C10.6199 18.2898 10.9199 31.6198 11.1499 36.1298C11.4499 41.9298 11.3299 48.0298 11.6999 53.8498C11.7799 55.1098 13.6699 64.3498 13.3799 64.0598C13.2899 63.9898 11.1099 57.0598 10.6599 53.0798C9.99993 47.2698 9.45993 41.4398 8.74993 35.6698C8.24993 31.6498 6.73992 20.1898 6.61992 18.1798C6.48992 16.1198 6.01993 10.5998 6.24993 9.66977C6.50993 8.63977 7.11993 7.79978 7.52993 7.84978C8.04993 7.91978 9.05994 7.68977 9.47994 8.64977Z" fill="#D8D8D8"/>
<path d="M13.3838 64.1508C13.3638 64.1508 13.3338 64.1408 13.3138 64.1208C13.2838 64.0908 13.2238 63.9608 12.8938 62.9008C12.7438 62.4108 12.4238 61.3808 12.0638 60.0608C11.5138 58.0408 10.8038 55.2008 10.5638 53.0908C10.3038 50.7608 10.0538 48.3808 9.81376 46.0808C9.45376 42.6608 9.08375 39.1308 8.65375 35.6808C8.52375 34.6608 8.33375 33.1708 8.11375 31.4508C7.48375 26.4908 6.61377 19.6908 6.51377 18.1808C6.48377 17.7708 6.45375 17.2308 6.40375 16.6008C6.21375 13.9808 5.96375 10.4008 6.15375 9.64078C6.42375 8.56078 7.05376 7.70077 7.53376 7.76077C7.63376 7.77077 7.76377 7.77078 7.89377 7.78078C8.45377 7.79078 9.21376 7.79078 9.56376 8.61078C9.99376 9.60078 10.4738 14.6208 10.5738 16.0808C10.6438 17.1208 10.7438 20.5808 10.8538 24.5808C10.9738 28.8808 11.1138 33.7508 11.2338 36.1208C11.3738 38.7708 11.4138 41.5408 11.4638 44.2208C11.5238 47.4008 11.5838 50.6908 11.7838 53.8508C11.8238 54.4008 12.2237 56.5908 12.6137 58.7008C12.8537 60.0008 13.0938 61.3308 13.2638 62.3408C13.5638 64.0808 13.5138 64.1108 13.4338 64.1508C13.4238 64.1508 13.4038 64.1508 13.3838 64.1508ZM7.48377 7.94078C7.14377 7.94078 6.58375 8.68078 6.33375 9.69078C6.15375 10.4208 6.41376 14.1308 6.59376 16.5908C6.63376 17.2208 6.67377 17.7608 6.70377 18.1708C6.79377 19.6708 7.66377 26.4608 8.29377 31.4208C8.51377 33.1408 8.70375 34.6308 8.83375 35.6508C9.26375 39.1008 9.63375 42.6408 9.99375 46.0508C10.2338 48.3508 10.4838 50.7208 10.7438 53.0608C11.1238 56.4108 12.7138 61.8008 13.2638 63.4908C13.1338 62.5308 12.7538 60.4608 12.4338 58.7208C12.0238 56.5108 11.6438 54.4108 11.6038 53.8508C11.4038 50.6908 11.3438 47.4008 11.2838 44.2108C11.2338 41.5408 11.1837 38.7708 11.0537 36.1208C10.9337 33.7508 10.7938 28.8708 10.6738 24.5708C10.5638 20.7408 10.4638 17.1208 10.3938 16.0808C10.2738 14.3308 9.78375 9.57078 9.40375 8.67078C9.09375 7.96078 8.43375 7.95077 7.90375 7.95077C7.76375 7.95077 7.63375 7.95077 7.52375 7.93077C7.50375 7.94077 7.49377 7.94078 7.48377 7.94078Z" fill="#FF0000"/>
<defs>
<linearGradient id="paint0_linear_90_11360" x1="15.9858" y1="43.5952" x2="6.75276" y2="43.6285" gradientUnits="userSpaceOnUse">
<stop stop-color="#BFAB8D"/>
<stop offset="0.5078" stop-color="#E7E1D2"/>
<stop offset="1" stop-color="#CCBFA6"/>
</linearGradient>
<linearGradient id="paint1_linear_90_11360" x1="19.8384" y1="14.7128" x2="-2.35458" y2="14.793" gradientUnits="userSpaceOnUse">
<stop stop-color="#94938C"/>
<stop offset="0.2296" stop-color="#EDEBE1"/>
<stop offset="0.7988" stop-color="#EDEBE1"/>
<stop offset="1" stop-color="#94938C"/>
</linearGradient>
</defs>
</svg>
