<svg width="19" height="67" viewBox="0 0 19 67" fill="none" xmlns="http://www.w3.org/2000/svg">
<path d="M3.24219 26.8395C5.14219 26.8295 7.08221 26.6495 8.98221 26.4995C11.2822 26.3195 14.5222 26.4295 16.6222 25.3295C16.8122 25.2295 16.8822 24.8895 17.0522 24.7695C17.4522 26.1195 17.1122 28.2795 17.0322 29.6595C16.8022 33.6095 16.6322 37.5695 16.6722 41.5195C16.6922 43.6995 16.8122 45.8695 17.0122 48.0495C17.2822 51.0495 18.3022 53.9795 18.5722 57.0195C18.7622 59.1495 18.7322 61.3095 18.3122 63.4095C18.1822 64.0695 17.9922 65.7795 17.4222 65.9395C16.6622 66.1495 15.5222 64.9895 15.1422 64.4695C13.8822 62.7795 13.5622 60.4795 12.9222 58.5195C12.2022 56.3195 11.3622 54.1695 10.5022 52.0295C8.8222 47.8495 7.06221 43.6795 5.98221 39.2895C5.35221 36.7295 5.07221 34.0995 4.48221 31.5295C4.11221 29.9495 3.69219 28.3895 3.24219 26.8395Z" fill="url(#paint0_linear_90_11372)"/>
<path d="M1.05218 8.08905C1.05218 8.08905 0.0721787 2.85905 2.36218 1.22905C4.65218 -0.400952 5.6322 0.249053 5.6322 0.249053C6.5822 0.509053 7.5322 0.749048 8.4822 0.979048C10.0522 1.35905 11.7422 1.90905 13.3722 1.86905C13.7022 1.85905 14.0222 1.82905 14.3522 1.85905C16.7722 2.09905 17.1722 4.67906 17.5322 6.56906C18.0022 8.98906 18.3322 11.4491 18.5222 13.9091C18.6822 15.9391 18.7622 17.9991 18.5922 20.0291C18.4722 21.4991 18.2622 23.1891 17.3922 24.4391C16.1822 26.1791 13.9722 26.979 11.9822 27.429C9.4622 28.009 6.82219 28.139 4.25219 28.039C2.85219 27.979 2.4622 24.859 2.3822 23.869C1.9622 18.609 1.52218 13.349 1.05218 8.08905Z" fill="url(#paint1_linear_90_11372)"/>
<path d="M2.5889 6.55827C2.5889 6.55827 2.36891 3.74828 5.12891 4.01828C7.88891 4.27828 11.5789 5.46827 12.1889 5.50827C12.7989 5.54827 14.3389 4.40828 15.2589 5.59828C16.1789 6.78828 17.0989 12.5283 17.1889 14.1883C17.2789 15.8583 17.5389 23.5283 16.7489 24.6283C15.9589 25.7283 16.4089 26.6983 16.4089 26.6983C16.4089 26.6983 16.5289 30.2883 16.3089 31.8183C16.0889 33.3483 15.8689 43.8283 15.8689 44.4883C15.8689 45.1483 16.5689 50.3683 16.6989 51.3283C16.8289 52.2883 17.6589 54.7483 17.7489 55.4083C17.8389 56.0683 18.2289 59.9283 17.8389 61.1083C17.4489 62.2883 17.9289 65.2783 17.2689 66.0183C16.6089 66.7583 15.0789 63.5583 14.8589 62.8583C14.6389 62.1583 11.8289 53.2983 11.5689 52.5983C11.3089 51.8983 6.61889 38.7883 6.04889 35.6283C5.47889 32.4683 4.2089 26.3283 4.2089 26.3283C4.2089 26.3283 2.3189 7.30827 2.5889 6.55827Z" fill="#FCF2D9"/>
<path d="M10.0345 11.0901C10.5045 12.0201 11.2745 16.9301 11.4645 18.4601C11.7345 20.6401 12.8045 33.9401 13.2945 38.4301C13.9245 44.2001 14.1645 50.3001 14.8745 56.0901C15.0245 57.3401 17.4545 66.4601 17.1445 66.1801C17.0445 66.1101 14.4745 59.3201 13.7845 55.3801C12.7845 49.6201 11.9145 43.8301 10.8645 38.1101C10.1345 34.1301 7.96452 22.7701 7.71452 20.7701C7.46452 18.7201 6.67454 13.2301 6.85454 12.2901C7.05454 11.2401 7.61452 10.3801 8.02452 10.4001C8.57452 10.4501 9.56453 10.1601 10.0345 11.0901Z" fill="#D8D8D8"/>
<path d="M17.1636 66.2784C17.1436 66.2784 17.1136 66.2684 17.0936 66.2484C17.0636 66.2184 16.9936 66.0883 16.6036 65.0483C16.4236 64.5683 16.0536 63.5584 15.6136 62.2584C14.9436 60.2784 14.0736 57.4784 13.7136 55.3884C13.3136 53.0784 12.9236 50.7184 12.5536 48.4384C11.9936 45.0484 11.4236 41.5484 10.7936 38.1284C10.6036 37.1184 10.3336 35.6484 10.0136 33.9384C9.09361 29.0184 7.83361 22.2783 7.64361 20.7883C7.59361 20.3783 7.5236 19.8384 7.4436 19.2084C7.1036 16.6084 6.6436 13.0484 6.7836 12.2784C6.9836 11.1884 7.56361 10.2884 8.04361 10.3184C8.14361 10.3284 8.27359 10.3184 8.40359 10.3084C8.95359 10.2784 9.72358 10.2483 10.1136 11.0383C10.5936 11.9983 11.3736 16.9784 11.5536 18.4384C11.6836 19.4784 11.9836 22.9184 12.3336 26.9084C12.7036 31.1884 13.1336 36.0484 13.3836 38.4084C13.6736 41.0484 13.8836 43.8084 14.0836 46.4784C14.3236 49.6484 14.5736 52.9284 14.9636 56.0684C15.0336 56.6184 15.5636 58.7783 16.0736 60.8583C16.3836 62.1383 16.7136 63.4584 16.9436 64.4484C17.3436 66.1684 17.2936 66.1984 17.2136 66.2484C17.1936 66.2684 17.1836 66.2784 17.1636 66.2784ZM8.01361 10.4984C7.67361 10.4984 7.14361 11.2784 6.95361 12.3084C6.81361 13.0484 7.29358 16.7383 7.61358 19.1783C7.69358 19.8083 7.76359 20.3483 7.81359 20.7583C7.99359 22.2483 9.25361 28.9783 10.1736 33.8983C10.4936 35.6083 10.7736 37.0784 10.9536 38.0884C11.5836 41.5084 12.1536 45.0184 12.7136 48.4084C13.0836 50.6884 13.4736 53.0383 13.8736 55.3583C14.4436 58.6783 16.3536 63.9684 17.0036 65.6184C16.8136 64.6684 16.3136 62.6284 15.8936 60.9084C15.3536 58.7184 14.8536 56.6584 14.7836 56.0984C14.3936 52.9584 14.1436 49.6684 13.9036 46.4984C13.7036 43.8284 13.4936 41.0784 13.2036 38.4384C12.9436 36.0784 12.5236 31.2183 12.1436 26.9283C11.8136 23.1083 11.4936 19.4984 11.3636 18.4684C11.1436 16.7284 10.3836 12.0084 9.9436 11.1284C9.5936 10.4384 8.93359 10.4684 8.40359 10.4984C8.26359 10.5084 8.13359 10.5083 8.02359 10.5083C8.02359 10.4983 8.02361 10.4984 8.01361 10.4984Z" fill="#FF0000"/>
<defs>
<linearGradient id="paint0_linear_90_11372" x1="7.86972" y1="45.3251" x2="16.9515" y2="45.3617" gradientUnits="userSpaceOnUse">
<stop stop-color="#BFAB8D"/>
<stop offset="0.5078" stop-color="#E7E1D2"/>
<stop offset="1" stop-color="#CCBFA6"/>
</linearGradient>
<linearGradient id="paint1_linear_90_11372" x1="-3.62331" y1="14.0578" x2="22.7043" y2="14.1639" gradientUnits="userSpaceOnUse">
<stop stop-color="#94938C"/>
<stop offset="0.2296" stop-color="#EDEBE1"/>
<stop offset="0.7988" stop-color="#EDEBE1"/>
<stop offset="1" stop-color="#94938C"/>
</linearGradient>
</defs>
</svg>
