<svg width="19" height="52" viewBox="0 0 19 52" fill="none" xmlns="http://www.w3.org/2000/svg">
<path d="M3.23438 21.1124C4.03438 26.3724 5.45437 31.6224 7.29437 36.6024C9.32437 42.0724 11.8544 47.5524 16.7744 50.9824C16.8944 51.0624 17.0244 51.1524 17.1644 51.1624C17.3144 51.1724 17.4544 51.0924 17.5744 51.0024C18.2544 50.4924 18.5044 49.5724 18.4344 48.7224C18.3644 47.8824 18.0244 47.0824 17.7344 46.2924C15.9444 41.4524 15.5044 36.1224 14.9944 31.0224C14.6744 27.7924 13.9044 23.8324 14.6644 20.6124C15.4744 17.1524 3.74437 20.4924 3.23438 21.1124Z" fill="url(#paint0_linear_90_11392)"/>
<path d="M13.373 1.13132C12.643 0.801315 11.893 0.791304 10.873 1.0413C10.603 1.1113 10.303 1.21131 10.153 1.45131C9.453 2.57131 15.173 4.72131 15.863 3.78131C16.263 3.22131 14.743 2.11131 14.423 1.83131C14.063 1.51131 13.723 1.28132 13.373 1.13132Z" fill="#D8D6D0"/>
<path d="M3.44624 1.3098C3.10624 1.4098 2.85623 1.5198 2.74623 1.6198C2.19623 2.0998 1.63624 2.60981 1.38624 3.29981C1.28624 3.56981 1.27623 3.9398 1.52623 4.0898C1.60623 4.1398 1.70622 4.15981 1.80622 4.15981C2.94622 4.24981 4.27623 3.5098 5.24623 2.9798C5.60623 2.7798 7.14624 2.06981 7.07624 1.51981C6.96624 0.669809 4.66624 0.939803 3.44624 1.3098Z" fill="#D8D6D0"/>
<path d="M1.42371 3.42088C1.42371 3.42088 -0.866302 5.05088 0.443698 9.30088C1.0937 15.1809 3.05368 21.0709 3.05368 21.0709C3.05368 21.0709 3.70369 22.0509 8.28369 22.0509C12.8637 22.0509 14.1637 21.4009 14.8237 20.0909C15.4737 18.7809 17.1137 6.36088 17.1137 6.36088C17.1137 6.36088 16.7837 3.42088 15.4837 3.09088C14.1737 2.76088 12.8737 2.44088 12.5437 2.44088C12.2137 2.44088 9.27369 0.480878 7.96369 0.810878C6.65369 1.13088 3.38371 3.75088 1.42371 3.42088Z" fill="url(#paint1_linear_90_11392)"/>
<path d="M2.297 9.95267C2.297 9.95267 1.75699 7.35268 4.06699 6.83268C6.37699 6.31268 13.637 6.44268 13.867 6.53268C14.097 6.62268 14.637 6.66267 15.047 7.31267C16.017 8.86267 15.527 10.5227 14.927 12.1027C13.687 15.3527 13.207 18.9427 12.967 22.3827C12.437 29.9427 14.467 37.3027 16.267 44.5827C16.437 45.2827 16.777 46.1127 16.777 46.8427C16.777 47.4527 17.367 49.4027 17.187 49.4927C17.007 49.5827 15.467 48.9727 14.197 46.6327C12.927 44.2927 7.167 29.9327 6.577 27.7627C5.647 24.3527 4.79698 20.9227 3.93698 17.4927C3.31698 15.0527 2.417 12.4527 2.297 9.95267Z" fill="#FCF2D9"/>
<path d="M8.64655 9.76173C9.10655 10.4117 9.99654 14.0017 10.2365 15.1217C10.5665 16.7317 11.3766 26.3217 12.0066 29.6317C12.8066 33.8817 13.9565 38.6417 14.8365 42.9017C15.0265 43.8217 17.5766 50.3917 17.2866 50.2217C17.1966 50.1817 14.1465 45.4917 13.3665 42.6117C12.2365 38.4017 11.0966 34.1217 9.91657 29.9517C9.09657 27.0517 7.26655 18.6917 6.96655 17.2217C6.65655 15.7217 5.72656 11.6917 5.84656 10.9717C5.97656 10.1717 6.44654 9.47173 6.82654 9.45173C7.29654 9.43173 8.18655 9.11173 8.64655 9.76173Z" fill="#D8D8D8"/>
<path d="M17.2896 50.3116C17.2696 50.3116 17.2496 50.3016 17.2296 50.2916C17.1996 50.2716 17.1096 50.1716 16.6596 49.4616C16.4396 49.1216 15.9996 48.4116 15.4996 47.5216C14.7096 46.1316 13.6796 44.1516 13.2796 42.6316L12.9796 41.5116C11.9596 37.7116 10.8996 33.7716 9.82955 29.9716C9.02955 27.1416 7.20957 18.8616 6.87957 17.2416C6.81957 16.9416 6.72958 16.5416 6.63958 16.0816C6.22958 14.1716 5.66955 11.5516 5.76955 10.9516C5.90955 10.1216 6.39955 9.37158 6.82955 9.35158C6.91955 9.34158 7.02956 9.33157 7.14956 9.31157C7.64956 9.24157 8.32958 9.13157 8.72958 9.70157C9.20958 10.3716 10.1096 14.0316 10.3296 15.1016C10.4796 15.8016 10.7096 18.0216 10.9796 20.5816C11.3396 23.9416 11.7396 27.7516 12.0896 29.6116C12.5696 32.1316 13.1696 34.8516 13.7496 37.4916C14.1496 39.2916 14.5596 41.1416 14.9096 42.8816C14.9896 43.2816 15.5496 44.8416 16.0996 46.3516C17.4196 50.0216 17.4496 50.2016 17.3496 50.2916C17.3296 50.3116 17.3096 50.3116 17.2896 50.3116ZM7.73956 9.44157C7.53956 9.44157 7.33957 9.47157 7.15957 9.50157C7.03957 9.52157 6.91957 9.54156 6.81957 9.54156C6.51957 9.56156 6.05956 10.1916 5.92956 10.9916C5.83956 11.5516 6.41955 14.2616 6.79955 16.0516C6.89955 16.5116 6.97955 16.9116 7.04955 17.2116C7.37955 18.8316 9.19957 27.1016 9.99957 29.9316C11.0696 33.7316 12.1296 37.6716 13.1496 41.4716L13.4496 42.5916C14.0996 45.0016 16.4196 48.8016 17.1396 49.8716C16.9396 49.2016 16.3996 47.6916 15.9396 46.4116C15.3696 44.8316 14.8296 43.3316 14.7396 42.9216C14.3796 41.1916 13.9696 39.3316 13.5796 37.5416C12.9996 34.9016 12.3896 32.1716 11.9196 29.6516C11.5696 27.7816 11.1596 23.9716 10.7996 20.6016C10.5296 18.0416 10.2896 15.8416 10.1496 15.1416C9.87956 13.8616 9.00955 10.4216 8.57955 9.81157C8.35955 9.52157 8.05956 9.44157 7.73956 9.44157Z" fill="#FF0000"/>
<defs>
<linearGradient id="paint0_linear_90_11392" x1="6.46567" y1="35.078" x2="16.8322" y2="35.1154" gradientUnits="userSpaceOnUse">
<stop stop-color="#BFAB8D"/>
<stop offset="0.5078" stop-color="#E7E1D2"/>
<stop offset="1" stop-color="#CCBFA6"/>
</linearGradient>
<linearGradient id="paint1_linear_90_11392" x1="-3.5952" y1="11.3664" x2="20.5368" y2="11.4536" gradientUnits="userSpaceOnUse">
<stop stop-color="#94938C"/>
<stop offset="0.2296" stop-color="#EDEBE1"/>
<stop offset="0.7988" stop-color="#EDEBE1"/>
<stop offset="1" stop-color="#94938C"/>
</linearGradient>
</defs>
</svg>
