<svg width="26" height="50" viewBox="0 0 26 50" fill="none" xmlns="http://www.w3.org/2000/svg">
<path d="M10.971 1.6215C10.971 1.6215 10.061 -0.428489 8.23097 0.0815106C6.40097 0.591511 5.76096 5.39151 6.09096 8.92151C6.42096 12.4515 7.99096 23.6715 10.701 23.9015C13.401 24.1315 18.341 17.7815 16.101 14.2415C13.841 10.7015 10.121 4.4915 10.971 1.6215Z" fill="url(#paint0_linear_90_11313)"/>
<path d="M22.7889 32.072C19.5889 31.842 15.9589 30.282 12.7589 30.152C10.7489 30.072 8.7389 29.942 6.7289 30.002C5.7989 30.032 4.41889 32.512 3.50889 32.402C2.91889 32.332 3.30889 29.922 3.32889 29.302C3.34889 28.772 3.39889 28.242 3.31889 27.722C3.03889 25.822 1.99889 24.012 1.55889 22.112C1.05889 19.912 0.718895 17.672 0.508895 15.422C0.288895 13.042 0.188895 10.602 0.508895 8.22197C0.638895 7.19197 0.828896 6.15197 1.2289 5.19197C1.5489 4.44197 2.3189 2.98196 3.2989 3.09196C3.6589 3.13196 3.97889 3.34197 4.24889 3.58197C4.77889 4.06197 5.14889 4.69196 5.38889 5.36196C5.88889 6.74196 5.8789 8.23196 5.9789 9.68196C6.0789 11.172 6.48889 12.562 6.81889 14.002C7.43889 16.692 8.1789 19.862 9.9389 22.072C10.3689 22.612 11.0089 23.042 11.6989 22.982C12.0489 22.952 12.3789 22.782 12.6689 22.582C13.6989 21.842 14.2289 20.562 14.4089 19.302C14.7789 16.722 14.4989 13.882 13.8089 11.382C13.4089 9.91197 12.6589 8.60197 12.1989 7.16197C11.7189 5.64197 11.0589 2.63196 13.1989 2.06196C14.0589 1.83196 14.9789 2.27196 15.6289 2.89196C18.0189 5.18196 19.6389 8.59197 21.0189 11.552C21.8689 13.362 22.6889 15.242 23.2089 17.172C23.5189 18.332 23.4889 19.502 23.4589 20.702C23.3589 24.062 23.1589 28.732 22.7889 32.072Z" fill="url(#paint1_linear_90_11313)"/>
<path d="M3.84995 34.2311C3.57995 34.3111 3.18996 35.0511 3.03996 35.2711C2.43996 36.1111 1.91996 37.0211 1.53996 37.9811C0.489957 40.5711 0.649957 43.4111 2.60996 45.5311C2.62996 45.5511 2.65996 45.5811 2.67996 45.6011C2.78996 45.7111 2.89996 45.8211 2.97996 45.9511C3.21996 46.3111 3.27996 46.7511 3.50996 47.1111C3.72996 47.4511 4.03995 47.7811 4.34995 48.0411C5.07995 48.6511 6.03996 49.0811 7.00996 48.9811C7.33996 48.9511 7.65996 48.8311 7.96996 48.7111C9.31996 48.2011 10.79 47.6211 11.51 46.2811C11.43 46.4311 11.8 47.0611 11.89 47.1811C12.12 47.4911 12.39 47.6211 12.74 47.7511C13.89 48.1911 15.14 48.5511 16.24 49.1011C17 49.3911 17.64 49.6711 18.42 49.4211C18.87 49.2711 19.33 49.1411 19.77 48.9811C20.6 48.6711 21.99 48.1411 21.99 47.0611C21.99 45.3911 23.3899 40.3611 20.0399 35.3411C16.6899 30.3311 3.85995 34.2311 3.84995 34.2311Z" fill="#D8D6D0"/>
<path d="M3.82667 30.1118C3.50667 30.2118 3.04667 31.0718 2.87667 31.3218C2.17667 32.3118 1.56668 33.3718 1.11668 34.5018C-0.103324 37.5318 0.0666757 40.8618 2.36668 43.3418C2.39668 43.3718 2.41667 43.4018 2.44667 43.4318C2.56667 43.5618 2.69668 43.6918 2.79668 43.8418C3.07668 44.2618 3.14667 44.7818 3.41667 45.2018C3.66667 45.6018 4.04668 45.9818 4.40668 46.2918C5.25668 47.0118 6.38667 47.5118 7.51667 47.3918C7.90667 47.3518 8.27667 47.2118 8.63667 47.0818C10.2267 46.4918 11.9467 45.8118 12.7867 44.2318C12.6867 44.4118 13.1267 45.1418 13.2367 45.2918C13.4967 45.6518 13.8267 45.8018 14.2267 45.9618C15.5767 46.4818 17.0367 46.9018 18.3267 47.5418C19.2167 47.8818 19.9667 48.2118 20.8767 47.9118C21.4067 47.7418 21.9367 47.5818 22.4667 47.3918C23.4467 47.0318 25.0667 46.4118 25.0667 45.1418C25.0667 43.1818 26.6967 37.3018 22.7767 31.4118C18.8667 25.5318 3.83667 30.1018 3.82667 30.1118Z" fill="url(#paint2_linear_90_11313)"/>
<path d="M15.5685 4.08307C16.6785 5.73307 17.9184 8.36306 18.8884 10.0931C19.5584 11.2731 20.2184 12.4831 20.6784 13.7431C21.3484 15.5831 21.3585 17.7231 21.4885 19.6531C21.6385 21.9131 21.6884 24.1931 21.6884 26.4631C21.6884 28.8331 22.0484 29.1731 22.0484 29.1731C22.0484 29.1731 25.4084 39.9131 22.8684 42.5831C20.3284 45.2531 13.3884 40.8031 13.3884 40.8031C13.3884 40.8031 11.2984 41.3131 9.84844 42.0731C8.39844 42.8331 6.44845 43.3431 5.17845 42.1531C3.90845 40.9731 1.54845 37.8431 1.63845 36.9031C1.72845 35.9731 2.81845 31.1931 3.81845 29.3331C4.81845 27.4731 3.17845 23.7931 2.81845 21.5931C2.45845 19.3931 0.728445 12.4131 1.09844 9.96307C1.45844 7.51307 1.73845 2.90306 3.18845 2.98306C5.31845 3.06306 4.36845 7.42306 4.63845 9.03306C4.90845 10.6431 6.49845 19.6331 7.22845 20.7331C7.95845 21.8331 10.4984 24.1831 11.5884 24.1031C12.6784 24.0231 15.9884 22.4031 15.7184 18.2131C15.4484 14.0231 13.4085 6.87306 13.1285 5.98306C12.9785 5.51306 12.3084 3.41306 12.5384 2.43306C12.6184 2.09306 13.1884 2.05306 13.4484 2.01306C13.8184 1.93306 14.4385 2.17307 15.5685 4.08307Z" fill="#FCF2D9"/>
<path d="M13.5776 1.55859C13.5776 1.55859 16.8876 8.7686 17.8876 11.7686C18.8876 14.7586 20.8376 30.5486 19.8376 33.9086C18.8376 37.2686 7.9076 37.5786 7.0476 35.5386C6.1876 33.4986 4.73759 22.2886 4.73759 22.2886C4.73759 22.2886 3.46759 16.8386 3.01759 11.8086C2.63759 7.63859 3.0076 3.8186 3.4376 3.0186C3.4376 3.0186 3.29759 7.4186 3.87759 11.9886C4.43759 16.3786 5.71759 20.9386 6.05759 21.6486C6.73759 23.0986 8.7376 25.1886 11.9076 25.2786C15.0876 25.3686 16.9476 21.3286 17.1676 20.0186C17.3976 18.6986 15.9476 10.4886 15.6676 9.08859L13.5776 1.55859Z" fill="#D8D8D8"/>
<path d="M11.8004 36.9095C9.58045 36.9095 7.35044 36.5195 6.96044 35.5795C6.11044 33.5595 4.71045 22.8295 4.64045 22.3095C4.60045 22.1295 3.36044 16.7395 2.92044 11.8195C2.75044 9.93953 2.72045 7.91952 2.83045 6.14952C2.93045 4.59952 3.12044 3.40952 3.35044 2.97952L3.53044 2.62953L3.52044 3.01953C3.52044 3.05953 3.38044 7.45952 3.96044 11.9795C4.53044 16.4195 5.81044 20.9295 6.13044 21.6195C6.73044 22.8995 8.63045 25.0995 11.9004 25.1995C13.5804 25.2495 14.8204 24.0995 15.5604 23.1295C16.4804 21.9295 16.9705 20.6095 17.0705 20.0095C17.2805 18.7695 15.9405 10.9995 15.5705 9.10953L13.4804 1.57953L13.6504 1.51953C13.6804 1.58953 16.9805 8.76953 17.9605 11.7395C18.4605 13.2295 19.2004 17.9395 19.6904 22.6895C19.9704 25.3695 20.5404 31.8295 19.9104 33.9295C19.3404 35.8395 15.7505 36.7095 12.8505 36.8695C12.5205 36.8995 12.1604 36.9095 11.8004 36.9095ZM3.32045 3.60953C2.99045 4.99953 2.77044 8.26952 3.09044 11.8095C3.54044 16.7795 4.80044 22.2195 4.81044 22.2795V22.2895C4.82044 22.3995 6.27045 33.5095 7.12045 35.5095C7.48045 36.3595 9.89045 36.8595 12.8505 36.6995C14.5105 36.6095 16.0904 36.3095 17.2904 35.8695C18.2504 35.5195 19.4504 34.8895 19.7504 33.8895C20.1804 32.4295 20.1005 28.3595 19.5205 22.7195C19.0305 17.9695 18.2904 13.2795 17.8004 11.8095C17.0404 9.53952 14.9304 4.78953 13.9704 2.66953L15.7504 9.08952C15.9704 10.2395 17.4804 18.6895 17.2504 20.0595C17.1404 20.6695 16.6505 22.0295 15.7105 23.2595C14.9405 24.2595 13.6604 25.4495 11.9004 25.3995C8.53045 25.2995 6.59045 23.0395 5.97045 21.7195C5.65045 21.0295 4.36044 16.4895 3.78044 12.0295C3.32044 8.44953 3.31045 4.96953 3.32045 3.60953Z" fill="#FF0000"/>
<defs>
<linearGradient id="paint0_linear_90_11313" x1="14.3333" y1="22.6308" x2="-4.22875" y2="-22.7345" gradientUnits="userSpaceOnUse">
<stop offset="0.1599" stop-color="#BFAB8D"/>
<stop offset="0.5078" stop-color="#E7E1D2"/>
<stop offset="0.7297" stop-color="#CCBFA6"/>
</linearGradient>
<linearGradient id="paint1_linear_90_11313" x1="1.6" y1="16.8847" x2="22.5106" y2="17.8301" gradientUnits="userSpaceOnUse">
<stop offset="0.1599" stop-color="#BFAB8D"/>
<stop offset="0.5078" stop-color="#E7E1D2"/>
<stop offset="0.7297" stop-color="#CCBFA6"/>
</linearGradient>
<linearGradient id="paint2_linear_90_11313" x1="-5.42813" y1="40.5484" x2="29.3946" y2="36.8915" gradientUnits="userSpaceOnUse">
<stop stop-color="#94938C"/>
<stop offset="0.2296" stop-color="#EDEBE1"/>
<stop offset="0.7988" stop-color="#EDEBE1"/>
<stop offset="1" stop-color="#94938C"/>
</linearGradient>
</defs>
</svg>
