<svg width="25" height="41" viewBox="0 0 25 41" fill="none" xmlns="http://www.w3.org/2000/svg">
<path d="M15.7046 37.0392C15.9946 38.8892 14.8146 39.3792 13.8846 38.1292C12.0846 35.7092 11.2545 32.2492 10.5345 29.0792C10.2045 27.6092 8.66454 22.3892 9.84454 21.4392C11.0145 20.4992 14.9345 23.5392 14.8445 26.6692C14.7945 28.3692 14.6745 30.0592 14.7545 31.7892C14.8345 33.6792 15.4146 35.2292 15.7046 37.0392Z" fill="url(#paint0_linear_90_11438)"/>
<path d="M3.23438 13.732C3.23438 13.732 4.54437 17.332 4.54437 21.252C4.54437 25.172 4.21436 30.072 6.50436 33.672C8.79436 37.272 9.44437 38.902 9.44437 38.902C9.44437 38.902 11.4044 41.192 12.3844 38.572C12.3844 38.572 10.0944 30.732 11.4044 26.802C12.7144 22.882 14.0144 24.192 14.3444 24.842C14.6744 25.492 19.2444 33.012 19.9044 34.972C20.5544 36.932 21.5344 38.892 22.1944 38.892C22.8544 38.892 23.8244 37.262 24.4844 34.312C25.1344 31.372 24.4844 28.102 23.1744 25.812C21.8644 23.522 20.5644 13.392 20.5644 11.762C20.5644 10.142 4.87437 13.082 3.23438 13.732Z" fill="url(#paint1_linear_90_11438)"/>
<path d="M10.7839 3.46065C10.4739 3.39065 10.1539 3.18065 9.7839 2.94065C8.7739 2.27065 7.72388 1.63065 6.55388 1.30065C5.38389 0.970649 4.0739 1.00065 3.0339 1.63065C2.3039 2.07065 1.76389 2.76065 1.31389 3.49065C0.613895 4.63065 0.103907 5.95065 0.263907 7.27065C0.443907 8.78065 1.0439 10.2706 1.6639 11.6506C2.0339 12.4906 2.34389 13.4407 3.02389 14.1007C3.80389 14.8607 5.12389 14.9706 6.15389 15.1206C8.37389 15.4306 10.6039 15.1506 12.7739 14.6406C14.9339 14.1306 17.1639 13.5607 19.2539 12.8507C19.6339 12.7207 20.0039 12.5706 20.3239 12.3306C21.2139 11.6506 21.3939 10.1006 21.6039 9.08065C21.9239 7.53065 21.7339 5.93064 21.0939 4.48064C20.2739 2.62064 18.7139 0.980649 16.6439 0.660649C15.1639 0.430649 13.8439 0.740645 12.8439 1.89064C12.5139 2.27064 12.2539 2.71065 11.8939 3.07065C11.4939 3.46065 11.1439 3.55065 10.7839 3.46065Z" fill="url(#paint2_linear_90_11438)"/>
<path d="M9.38334 35.7414C9.35334 35.6814 9.32334 35.6314 9.29334 35.5714C8.90334 34.8914 8.46333 34.2414 8.09333 33.5514C7.11333 31.7414 6.90334 29.8114 6.57334 27.8314C6.06334 24.7014 6.06333 21.5314 5.78333 18.3814C5.54333 15.6714 5.02332 12.9514 4.30332 10.3214C3.91332 8.91139 4.00335 7.49138 6.23335 7.19138C8.46335 6.89138 8.93334 7.78139 11.1633 7.57139C12.4933 7.44139 13.6633 5.98139 14.9333 5.57139C17.6133 4.44139 19.6533 6.41138 19.6733 7.26138C19.6933 8.37138 19.7933 9.48138 19.5933 10.5814C19.3733 11.7714 19.1233 12.9214 19.0633 14.1414C18.9733 16.0514 19.1733 17.9714 19.6733 19.8114C20.2133 21.8214 20.8233 23.8114 21.5933 25.7414C22.1033 27.0214 22.8633 28.1514 22.9633 29.5614C23.0433 30.6214 23.0333 31.6914 23.0333 32.7614C23.0333 33.3814 23.2533 35.2514 22.4433 35.4614C22.1133 35.5414 21.7633 35.3814 21.5233 35.1314C21.2933 34.8814 21.1533 34.5614 21.0133 34.2514C19.4133 30.6014 17.3633 27.1414 14.9333 23.9814C14.3533 23.2314 13.6833 22.6714 12.7633 23.2514C11.6633 23.9514 10.7533 25.2714 10.4933 26.5414C9.82333 29.9114 11.2133 33.0514 11.1633 36.3614C11.1533 36.9614 10.7833 37.3114 10.2333 37.0114C9.80335 36.7614 9.60334 36.1814 9.38334 35.7414Z" fill="#FCF2D9"/>
<path d="M23.0714 38.8992C23.0714 38.8992 21.7115 30.7292 21.3915 29.2792C21.0715 27.8292 17.9315 14.0992 16.6715 11.9492C15.4115 9.79923 8.03145 11.4392 7.73145 12.9892C7.43145 14.5492 7.91145 24.9192 7.91145 24.9192C7.91145 24.9192 8.40145 28.2992 8.88145 31.8492C9.28145 34.7992 10.9214 39.4992 11.3614 39.9792C11.3614 39.9792 9.79145 34.8392 9.48145 31.5792C9.18145 28.4492 9.38144 25.0892 9.50144 24.5392C9.76144 23.4192 10.8714 21.6492 13.1514 21.0492C15.4314 20.4492 17.4214 22.9292 17.8014 23.7992C18.1814 24.6692 20.3214 29.1692 20.3514 30.1792L23.0714 38.8992Z" fill="#D8D8D8"/>
<path d="M11.5718 40.349L11.3018 40.049C11.0718 39.789 10.5418 38.489 10.0318 36.869C9.4218 34.979 8.98179 33.159 8.80179 31.859C8.33179 28.349 7.84179 24.969 7.83179 24.929V24.919C7.81179 24.499 7.3618 14.519 7.6518 12.969C7.8118 12.109 9.82182 11.329 11.7318 10.999C13.7118 10.659 16.0718 10.709 16.7618 11.889C17.9718 13.959 20.9818 26.939 21.4918 29.249C21.8018 30.689 23.1618 38.789 23.1718 38.869L22.9918 38.909L20.2618 30.189V30.179C20.2418 29.369 18.7818 26.159 18.0818 24.619C17.9218 24.259 17.7918 23.979 17.7218 23.819C17.5518 23.429 16.9918 22.599 16.1418 21.929C15.4518 21.389 14.3818 20.809 13.1818 21.119C10.8418 21.729 9.83181 23.559 9.60181 24.539C9.48181 25.069 9.28179 28.389 9.58179 31.549C9.89179 34.759 11.4518 39.889 11.4618 39.939L11.5718 40.349ZM8.0018 24.919C8.0218 25.059 8.50181 28.389 8.97181 31.839C9.29181 34.179 10.3418 37.479 10.9918 39.049C10.5218 37.399 9.61181 33.979 9.38181 31.589C9.08181 28.409 9.28181 25.049 9.41181 24.519C9.65181 23.499 10.7018 21.599 13.1218 20.959C14.3918 20.629 15.5218 21.239 16.2418 21.799C17.1218 22.489 17.7018 23.349 17.8818 23.759C17.9518 23.919 18.0818 24.199 18.2418 24.549C19.0018 26.209 20.4018 29.289 20.4418 30.159L22.7618 37.589C22.3618 35.219 21.5418 30.359 21.3018 29.279C20.8018 26.979 17.7918 14.029 16.5918 11.979C16.3118 11.499 15.6618 11.179 14.7218 11.049C13.8918 10.939 12.8318 10.979 11.7418 11.169C9.6618 11.529 7.9418 12.329 7.8118 12.989C7.5318 14.529 7.9918 24.659 8.0018 24.919Z" fill="#FF0000"/>
<defs>
<linearGradient id="paint0_linear_90_11438" x1="11.8077" y1="21.0862" x2="11.832" y2="58.1555" gradientUnits="userSpaceOnUse">
<stop offset="0.1599" stop-color="#BFAB8D"/>
<stop offset="0.5078" stop-color="#E7E1D2"/>
<stop offset="0.7297" stop-color="#CCBFA6"/>
</linearGradient>
<linearGradient id="paint1_linear_90_11438" x1="5.13197" y1="25.5229" x2="21.8902" y2="25.5834" gradientUnits="userSpaceOnUse">
<stop stop-color="#BFAB8D"/>
<stop offset="0.5078" stop-color="#E7E1D2"/>
<stop offset="1" stop-color="#CCBFA6"/>
</linearGradient>
<linearGradient id="paint2_linear_90_11438" x1="-6.12379" y1="7.85634" x2="27.9161" y2="7.97934" gradientUnits="userSpaceOnUse">
<stop stop-color="#94938C"/>
<stop offset="0.2614" stop-color="#EDEBE1"/>
<stop offset="0.7687" stop-color="#EDEBE1"/>
<stop offset="1" stop-color="#94938C"/>
</linearGradient>
</defs>
</svg>
