<svg width="19" height="57" viewBox="0 0 19 57" fill="none" xmlns="http://www.w3.org/2000/svg">
<path d="M9.53844 55.5789C9.53844 55.5789 4.18844 56.4189 2.44844 53.5689C0.718439 50.7289 8.98844 53.8889 9.53844 55.5789Z" fill="#D8D6D0"/>
<path d="M4.17969 37.6604C4.17969 37.6604 4.5097 26.5504 5.4897 23.6104C6.4697 20.6704 7.44969 10.8604 7.11969 8.25035C6.78969 5.64035 6.78969 1.71035 6.78969 1.71035C6.78969 1.71035 6.45969 -1.22965 9.39969 1.06035C12.3397 3.35035 15.9397 14.4603 15.6097 19.0403C15.2797 23.6203 15.1797 37.4003 15.2297 37.3703C15.2897 37.3303 4.17969 37.6604 4.17969 37.6604Z" fill="url(#paint0_linear_90_11283)"/>
<path d="M14.9572 36.3508C14.9572 36.3508 22.4772 47.4608 16.9172 53.3508C16.2372 54.0708 15.1672 54.5708 14.3472 55.1008C13.4972 55.6408 12.5871 56.4008 11.5371 56.5108C10.3471 56.6508 9.46716 55.4008 8.29716 55.1508C6.42716 54.7608 4.60716 55.0708 3.01716 53.8008C1.69716 52.7508 0.907155 51.1108 0.637155 49.4708C0.297155 47.4208 0.647153 45.3508 1.05715 43.3408C1.22715 42.4808 1.52716 41.6708 1.87716 40.8708C2.24716 40.0208 2.90715 39.1808 3.19715 38.3108C3.19715 38.3108 5.80716 30.4708 14.9572 36.3508Z" fill="url(#paint1_linear_90_11283)"/>
<path d="M15.8568 40.7484C15.8068 40.5384 15.7367 40.3384 15.6767 40.1384C15.1067 38.4484 14.0968 36.9484 13.7468 35.1784C13.5168 33.9984 13.5968 32.7784 13.6568 31.5784C13.8868 27.2084 14.0468 22.6584 13.6268 18.2984C13.2068 13.9684 12.1268 9.76843 11.0268 5.61843C10.6768 4.29843 10.1568 1.14843 9.01676 0.698433C8.91676 0.658433 8.64676 0.438437 8.34676 0.398438C8.25676 6.34844 8.07675 14.3884 7.86675 20.3284C7.82675 21.3884 6.46675 30.3784 6.49675 30.8884C6.53675 31.3984 6.05676 34.6784 6.01676 35.0584C5.97676 35.4384 3.39675 40.1684 3.53675 43.1884C3.68675 46.2084 3.92676 48.3884 5.15676 49.5984C6.38676 50.8084 8.63675 51.4884 9.78675 51.3184C10.9367 51.1484 13.2568 51.4884 13.8568 50.1684C14.5468 48.6184 15.5267 47.4684 15.9267 45.7284C16.2967 44.1084 16.2868 42.3584 15.8568 40.7484Z" fill="#FCF2D9"/>
<path d="M8.05398 44.1122C7.68398 43.1922 7.58398 38.5422 7.60398 37.1122C7.63398 35.0522 8.84397 26.2922 8.98397 22.0722C9.17397 16.6522 8.90398 7.69216 8.82398 3.88216C8.74398 0.0721581 8.94397 0.162152 9.09397 0.212152C9.25397 0.262152 9.75398 1.62215 9.91398 4.20215C10.074 6.79215 10.914 14.9222 11.194 20.3522C11.394 24.1322 11.624 34.2121 11.594 36.0921C11.554 38.0121 12.074 42.5521 11.734 43.4021C11.354 44.3421 10.604 45.0722 10.154 45.0022C9.56397 44.9022 8.42398 45.0322 8.05398 44.1122Z" fill="#D8D8D8"/>
<path d="M10.2126 45.0919C10.1826 45.0919 10.1626 45.0919 10.1326 45.0819C10.0226 45.0619 9.88259 45.0519 9.73259 45.0419C9.12259 44.9919 8.28261 44.9319 7.96261 44.1419C7.57261 43.1919 7.4826 38.4719 7.5026 37.1119C7.5226 36.2119 7.7526 34.0319 8.0326 31.5019C8.3926 28.1919 8.8026 24.4419 8.8826 22.0719C9.0426 17.5119 8.8726 10.3419 8.7726 6.05188C8.7526 5.21188 8.7326 4.49188 8.7226 3.88188C8.6526 0.621879 8.7826 0.241873 8.9226 0.141873C8.9926 0.0918733 9.06261 0.111877 9.10261 0.121877C9.37261 0.201877 9.8426 1.82187 9.9926 4.20187C10.0526 5.18187 10.2126 6.98188 10.3926 9.07188C10.7026 12.5919 11.0926 16.9819 11.2726 20.3519C11.4726 24.1719 11.7026 34.2119 11.6726 36.1019C11.6526 36.8419 11.7226 37.9619 11.7926 39.1419C11.9026 40.9919 12.0226 42.9019 11.8026 43.4419C11.4426 44.3519 10.7226 45.0919 10.2126 45.0919ZM8.1326 44.0819C8.4126 44.7619 9.1526 44.8219 9.7426 44.8719C9.8926 44.8819 10.0326 44.8919 10.1526 44.9119C10.5226 44.9719 11.2526 44.3219 11.6326 43.3719C11.8326 42.8719 11.7126 40.8919 11.6126 39.1519C11.5426 37.9719 11.4726 36.8519 11.4926 36.1019C11.5326 34.2219 11.2926 24.1819 11.0926 20.3619C10.9226 16.9919 10.5326 12.6119 10.2126 9.08188C10.0226 6.99188 9.8626 5.19188 9.8026 4.21188C9.6526 1.66188 9.16259 0.411877 9.04259 0.301877C9.03259 0.301877 9.0326 0.301877 9.0226 0.301877C8.9326 0.391877 8.8326 1.09187 8.8926 3.89187C8.9026 4.49187 8.9226 5.22187 8.9426 6.06187C9.0426 10.3519 9.2126 17.5219 9.0526 22.0919C8.9726 24.4719 8.5626 28.2219 8.2026 31.5319C7.9226 34.0519 7.6926 36.2319 7.6726 37.1219C7.6626 38.7519 7.7826 43.2219 8.1326 44.0819Z" fill="#FF0000"/>
<defs>
<linearGradient id="paint0_linear_90_11283" x1="5.07669" y1="18.966" x2="17.9692" y2="18.5689" gradientUnits="userSpaceOnUse">
<stop stop-color="#BFAB8D"/>
<stop offset="0.5078" stop-color="#E7E1D2"/>
<stop offset="1" stop-color="#CCBFA6"/>
</linearGradient>
<linearGradient id="paint1_linear_90_11283" x1="-3.07655" y1="45.7465" x2="23.6498" y2="44.9233" gradientUnits="userSpaceOnUse">
<stop stop-color="#94938C"/>
<stop offset="0.0311" stop-color="#A6A59D"/>
<stop offset="0.0939" stop-color="#C5C3BB"/>
<stop offset="0.1552" stop-color="#DBD9D0"/>
<stop offset="0.2138" stop-color="#E8E7DD"/>
<stop offset="0.2666" stop-color="#EDEBE1"/>
<stop offset="0.7117" stop-color="#EDEBE1"/>
<stop offset="0.7637" stop-color="#E7E5DB"/>
<stop offset="0.835" stop-color="#D5D3CA"/>
<stop offset="0.9175" stop-color="#B8B7AF"/>
<stop offset="1" stop-color="#94938C"/>
</linearGradient>
</defs>
</svg>
