<svg width="20" height="70" viewBox="0 0 20 70" fill="none" xmlns="http://www.w3.org/2000/svg">
<path d="M16.2463 45.8511C16.2463 45.8511 4.16625 42.8211 3.15625 44.5511L8.03625 10.0011C8.03625 10.0011 7.88626 1.12109 9.19626 1.12109C10.5063 1.12109 11.8063 5.04109 11.8063 5.04109C11.8063 5.04109 15.9563 37.5811 16.2463 45.8511Z" fill="url(#paint0_linear_90_11273)"/>
<path d="M13.9231 42.3602C13.9231 42.3602 21.1131 51.8402 19.8031 59.6802C19.3831 62.2102 18.5131 64.8602 16.9931 66.9402C16.2531 67.9602 15.2831 68.8802 14.0631 69.2802C12.4531 69.8102 10.3831 69.3902 8.76312 69.0302C7.96312 68.8502 7.18313 68.6102 6.44313 68.2702C1.26313 65.8902 -0.106877 59.7402 0.313123 54.5302C0.603123 50.8702 1.71313 47.3202 3.16313 43.9702C4.10313 41.8002 6.28312 41.2302 8.45312 40.9202C10.0931 40.7002 12.8031 40.8902 13.9231 42.3602Z" fill="url(#paint1_linear_90_11273)"/>
<path d="M13.9387 42.3875C13.9387 42.3875 21.1288 51.8675 19.8188 59.7075C19.3988 62.2375 18.5287 64.8875 17.0087 66.9675C16.2687 67.9875 15.2987 68.9075 14.0787 69.3075C12.4687 69.8375 10.3987 69.4175 8.77874 69.0575C7.97874 68.8775 7.19875 68.6375 6.45875 68.2975C1.27875 65.9175 -0.0912521 59.7675 0.328748 54.5575C0.618748 50.8975 1.72874 47.3475 3.17874 43.9975C4.11874 41.8275 6.29875 41.2575 8.46875 40.9475C10.1087 40.7275 12.8287 40.9175 13.9387 42.3875Z" fill="url(#paint2_linear_90_11273)"/>
<path d="M7.98637 8.11892C8.33637 14.2389 7.79637 20.5289 7.68637 26.6689C7.61637 30.9389 7.82636 35.2289 7.39636 39.4889C6.98636 43.5089 5.19636 47.1189 4.13636 50.9889C3.04636 54.9689 4.72636 64.2389 9.94636 63.8889C15.1664 63.5389 17.1564 58.4189 17.1564 54.7889C17.1564 49.2489 15.1864 41.8489 14.3764 36.4289C13.3164 29.3189 12.9864 23.8289 12.1064 16.6989C11.8264 14.4189 11.4664 11.8189 11.4664 9.52892C11.2864 8.44892 11.0364 4.94892 10.6964 3.89892C10.4564 3.16892 9.69636 0.65892 8.97636 1.03892C8.66636 1.20892 7.95637 7.61892 7.98637 8.11892Z" fill="#FCF2D9"/>
<path d="M13.2747 53.7498C13.7047 52.8298 13.3447 48.4798 13.3147 47.0498C13.2747 44.9898 12.3347 35.9798 12.1647 31.7598C11.9447 26.3398 10.9347 16.7398 10.8047 12.9298C10.5047 4.1498 9.12471 0.869796 8.94471 0.999796C8.79471 1.1098 9.76471 9.9798 9.58471 12.5698C9.40471 15.1598 9.93471 24.5698 9.60471 29.9898C9.37471 33.7698 8.90471 43.6198 8.94471 45.5098C8.99471 47.4298 8.58471 52.1998 8.97471 53.0398C9.41471 53.9798 9.95471 54.5598 10.8147 54.6398C11.6747 54.7198 12.8447 54.6698 13.2747 53.7498Z" fill="#D8D8D8"/>
<path d="M11.3522 54.7493C11.1822 54.7493 11.0022 54.7393 10.8122 54.7193C9.98222 54.6393 9.39222 54.1293 8.89222 53.0693C8.62222 52.4993 8.71221 50.3293 8.79221 48.2393C8.83221 47.1693 8.87222 46.1593 8.85222 45.4993C8.80222 43.5793 9.29221 33.6193 9.51221 29.9793C9.70221 26.8493 9.60222 22.3093 9.52222 18.6693C9.46222 15.9793 9.41222 13.6493 9.49222 12.5593C9.60222 10.9893 9.28222 7.09934 9.05222 4.24934C8.79222 1.09934 8.80222 0.979335 8.89222 0.919335C8.92222 0.899335 8.97221 0.889341 9.01221 0.909341C9.21221 1.00934 9.60222 2.03934 9.96222 3.80933C10.3022 5.46933 10.7422 8.39934 10.8922 12.9193C10.9522 14.7093 11.2122 17.8193 11.4922 21.1093C11.8122 24.9293 12.1422 28.8793 12.2522 31.7493C12.3422 34.0393 12.6622 37.7293 12.9422 40.9793C13.1822 43.7293 13.3822 46.0993 13.4022 47.0393C13.4122 47.3693 13.4322 47.8593 13.4622 48.4293C13.5622 50.3793 13.6922 53.0493 13.3522 53.7793L13.2722 53.7393L13.3522 53.7793C13.0522 54.4293 12.3822 54.7493 11.3522 54.7493ZM9.02222 1.22934C9.03222 1.69934 9.13222 2.93934 9.24222 4.23934C9.47222 7.08934 9.79221 10.9893 9.68221 12.5793C9.60221 13.6693 9.65222 15.9893 9.71222 18.6793C9.79222 22.3293 9.89222 26.8593 9.70222 29.9993C9.48222 33.6393 9.00221 43.5993 9.04221 45.5093C9.06221 46.1793 9.02221 47.1893 8.98221 48.2593C8.90221 50.2293 8.82223 52.4693 9.07223 53.0093C9.53223 54.0093 10.0822 54.4793 10.8422 54.5493C12.1122 54.6693 12.8822 54.3993 13.2022 53.7193C13.5222 53.0393 13.3822 50.2793 13.2922 48.4593C13.2622 47.8893 13.2422 47.3993 13.2322 47.0593C13.2122 46.1193 13.0122 43.7593 12.7722 41.0093C12.4922 37.7493 12.1722 34.0593 12.0822 31.7693C11.9622 28.8993 11.6222 24.7793 11.3222 21.1393C11.0422 17.8493 10.7922 14.7393 10.7222 12.9393C10.4522 5.21934 9.37222 1.93934 9.02222 1.22934Z" fill="#FF0000"/>
<defs>
<linearGradient id="paint0_linear_90_11273" x1="4.82095" y1="23.7303" x2="14.4256" y2="23.4344" gradientUnits="userSpaceOnUse">
<stop stop-color="#BFAB8D"/>
<stop offset="0.5078" stop-color="#E7E1D2"/>
<stop offset="1" stop-color="#CCBFA6"/>
</linearGradient>
<linearGradient id="paint1_linear_90_11273" x1="-5.26918" y1="54.9022" x2="26.5353" y2="55.4707" gradientUnits="userSpaceOnUse">
<stop stop-color="#94938C"/>
<stop offset="0.2666" stop-color="#EDEBE1"/>
<stop offset="0.7117" stop-color="#EDEBE1"/>
<stop offset="1" stop-color="#94938C"/>
</linearGradient>
<linearGradient id="paint2_linear_90_11273" x1="-6.01825" y1="54.9179" x2="26.9346" y2="55.5069" gradientUnits="userSpaceOnUse">
<stop stop-color="#94938C"/>
<stop offset="0.0617" stop-color="#A4A29B"/>
<stop offset="0.1809" stop-color="#CCCAC2"/>
<stop offset="0.2666" stop-color="#EDEBE1"/>
<stop offset="0.7117" stop-color="#EDEBE1"/>
<stop offset="0.7719" stop-color="#E0DED5"/>
<stop offset="0.883" stop-color="#BEBDB4"/>
<stop offset="1" stop-color="#94938C"/>
</linearGradient>
</defs>
</svg>
