<svg width="19" height="61" viewBox="0 0 19 61" fill="none" xmlns="http://www.w3.org/2000/svg">
<path d="M12.5078 35.1916C12.5078 35.1916 15.7778 36.5016 16.7578 44.0116C16.7578 44.0116 17.7378 51.8516 18.0678 54.1416C18.3978 56.4316 18.3978 59.3716 14.7978 60.3516C11.1978 61.3316 7.93778 60.6816 5.97778 60.0216C4.01778 59.3716 1.07779 57.4116 0.417787 55.1216C-0.232213 52.8316 0.417783 41.7216 1.39778 39.7616C2.37778 37.8116 4.66778 32.5816 12.5078 35.1916Z" fill="url(#paint0_linear_90_11263)"/>
<path d="M9.25031 4.14191C9.25031 4.14191 16.4203 19.8319 13.4903 36.3319C13.4903 36.3319 3.09031 35.1019 2.57031 37.9219C4.03031 31.0519 4.73031 23.8319 4.44031 16.8219C4.32031 13.9819 4.1203 11.1419 4.0403 8.29191C3.9903 6.44191 3.67031 4.32191 4.46031 2.59191C4.79031 1.86191 5.35031 0.801914 6.25031 0.711914C7.80031 0.581914 8.78031 3.08191 9.25031 4.14191Z" fill="url(#paint1_linear_90_11263)"/>
<path d="M14.1709 55.3416C14.6309 53.9716 14.4209 51.9616 14.4509 50.6116C14.4909 48.7216 14.4709 46.8216 14.2809 44.9316C14.1209 43.3916 13.9009 41.8016 13.3809 40.3616C12.8309 38.8516 12.0809 37.4716 11.7709 35.8516C11.6009 34.9816 11.5609 34.0916 11.5209 33.2016C11.1809 25.9516 10.9109 18.6816 9.86087 11.5016C9.51087 9.1016 8.57088 2.3416 6.77088 0.731601C5.55088 -0.358399 5.95087 5.5316 5.95087 6.5616C5.93087 11.6316 6.10087 16.6516 6.09087 21.7216C6.07087 26.0516 6.86087 31.3416 5.23087 35.3316C4.14087 37.9816 3.13087 39.6516 2.93087 42.6516C2.76087 45.2816 2.58088 47.9116 2.41088 50.5416C2.34088 51.5916 2.27087 52.6816 2.59087 53.6716C3.64087 56.9616 9.73087 57.7916 12.2309 57.1216C12.9309 56.9316 13.6109 56.5016 13.9909 55.8016C14.0409 55.6716 14.1109 55.5116 14.1709 55.3416Z" fill="#FCF2D9"/>
<path d="M6.17473 50.2415C5.74473 49.3215 5.61473 44.6715 5.64473 43.2415C5.68473 41.1815 7.08474 32.4215 7.25474 28.2015C7.47474 22.7815 7.16474 12.7315 7.07474 8.9215C6.98474 5.1115 6.30475 0.571503 6.48475 0.621503C6.66475 0.671503 8.07474 6.56149 8.25474 9.15149C8.43474 11.7415 9.51475 21.0515 9.84475 26.4815C10.0747 30.2615 10.9247 39.7015 10.8747 41.5815C10.8247 43.5015 10.8647 48.6815 10.4647 49.5315C10.0247 50.4715 9.14475 51.2015 8.62475 51.1315C7.94475 51.0215 6.60473 51.1615 6.17473 50.2415Z" fill="#D8D8D8"/>
<path d="M8.70692 51.2213C8.67692 51.2213 8.6469 51.2213 8.6169 51.2113C8.4869 51.1913 8.3269 51.1813 8.1469 51.1713C7.4369 51.1213 6.46692 51.0613 6.09692 50.2813C5.64692 49.3313 5.53691 44.6113 5.55691 43.2413C5.57691 42.3413 5.8569 40.1513 6.1769 37.6313C6.5969 34.3213 7.0769 30.5713 7.1769 28.2013C7.3669 23.4513 7.1569 15.0913 7.0369 10.6013C7.0169 9.96127 7.00691 9.39127 6.99691 8.92127C6.94691 6.78127 6.71691 4.46127 6.54691 2.76127C6.35691 0.871269 6.34691 0.63127 6.43691 0.55127C6.46691 0.53127 6.49691 0.521266 6.52691 0.531266C6.58691 0.551266 6.64691 0.561269 6.91691 1.58127C7.08691 2.21127 7.28691 3.03127 7.47691 3.91127C7.70691 4.95127 8.2469 7.55127 8.3669 9.14127C8.4369 10.1113 8.6369 12.0713 8.8669 14.3513C9.2569 18.2413 9.75692 23.0913 9.95692 26.4713C10.0369 27.8713 10.2069 30.0313 10.3869 32.3113C10.6969 36.2813 11.0169 40.3813 10.9869 41.5713C10.9769 41.9513 10.9669 42.4613 10.9669 43.0513C10.9369 45.5013 10.8969 48.8613 10.5769 49.5613C10.1269 50.4813 9.28692 51.2213 8.70692 51.2213ZM6.2569 50.2013C6.5869 50.8913 7.45691 50.9413 8.15691 50.9913C8.33691 51.0013 8.49691 51.0113 8.63691 51.0313C9.08691 51.1013 9.93691 50.4513 10.3869 49.4913C10.6969 48.8313 10.7369 45.3613 10.7669 43.0613C10.7769 42.4713 10.7769 41.9613 10.7869 41.5813C10.8169 40.4013 10.4769 36.1213 10.1869 32.3413C10.0069 30.0513 9.8369 27.8913 9.7569 26.4913C9.5569 23.1113 9.05691 18.2613 8.66691 14.3713C8.43691 12.1013 8.23691 10.1313 8.16691 9.16127C8.00691 6.85127 6.94691 2.34127 6.55691 1.04127C6.57691 1.42127 6.64691 2.06127 6.71691 2.75127C6.88691 4.45127 7.11691 6.78127 7.16691 8.92127C7.17691 9.39127 7.19692 9.96127 7.20692 10.6013C7.32692 15.0913 7.53692 23.4513 7.34692 28.2113C7.24692 30.5913 6.77692 34.3413 6.34692 37.6513C6.02692 40.1713 5.74691 42.3513 5.72691 43.2413C5.70691 44.8713 5.8469 49.3413 6.2569 50.2013Z" fill="#FF0000"/>
<defs>
<linearGradient id="paint0_linear_90_11263" x1="22.6772" y1="48.3174" x2="-3.33331" y2="47.0142" gradientUnits="userSpaceOnUse">
<stop stop-color="#94938C"/>
<stop offset="0.1599" stop-color="#D1CFC6"/>
<stop offset="0.2296" stop-color="#EDEBE1"/>
<stop offset="0.7988" stop-color="#EDEBE1"/>
<stop offset="0.9762" stop-color="#9F9E96"/>
<stop offset="1" stop-color="#94938C"/>
</linearGradient>
<linearGradient id="paint1_linear_90_11263" x1="5.19951" y1="19.3334" x2="14.1804" y2="19.4939" gradientUnits="userSpaceOnUse">
<stop stop-color="#BFAB8D"/>
<stop offset="0.5078" stop-color="#E7E1D2"/>
<stop offset="1" stop-color="#CCBFA6"/>
</linearGradient>
</defs>
</svg>
