<svg width="486" height="247" viewBox="0 0 486 247" fill="none" xmlns="http://www.w3.org/2000/svg">
<path d="M485.045 95.0922C484.467 91.7659 482.614 88.3221 479.355 87.2324C468.809 83.7065 467.506 98.3962 459.863 100.179C455.087 101.293 451.923 94.6081 446.785 94.4498C443.659 94.3536 440.576 95.5404 438.09 97.3995C429.961 103.476 432.273 111.271 433.868 119.537C439.549 148.975 439.768 155.932 402.024 174.29C402.024 174.29 295.634 198.566 243.243 198.566C190.852 198.566 83.5795 173.824 83.5795 173.824C44.7669 167.056 46.4514 146.971 52.1322 117.534C53.7273 109.268 56.0396 101.473 47.9108 95.3961C45.4238 93.537 42.3416 92.3502 39.2149 92.4464C34.0767 92.6047 30.9133 99.2895 26.1371 98.1757C18.4942 96.3933 17.1917 81.7035 6.64484 85.229C3.3857 86.3187 1.53338 89.7625 0.955407 93.0888C-1.46264 107.005 1.45943 121.624 1.56195 135.619C1.69261 153.487 14.0632 200.259 30.1797 211.394C63.5746 234.465 233.564 246.294 242.804 246.391C242.804 246.391 242.87 246.394 243 246.393C243.13 246.394 422.425 238.321 455.82 215.25C471.937 204.116 484.307 155.491 484.438 137.623C484.541 123.627 487.463 109.009 485.045 95.0922Z" fill="#F0EBDD"/>
<path d="M300.813 57.6913C300.813 57.6913 312.041 68.9187 327.591 69.9966C343.141 71.0745 403.115 70.7116 402.753 31.6962L403.841 7.15283C403.841 7.15283 428.657 30.9712 428.657 90.9451L312.064 77.199L300.541 66.6286L300.813 57.6913Z" fill="#F0EBDD"/>
<path d="M179.289 56.9877C179.289 56.9877 173.537 68.9187 157.988 69.9966C142.438 71.0745 82.4633 70.7116 82.8262 31.6962L81.7374 7.15283C81.7374 7.15283 56.9219 30.9712 56.9219 90.9451L173.514 77.199L180.002 66.7193L179.289 56.9877Z" fill="#F0EBDD"/>
<path d="M420.898 75.2937C420.898 75.2937 412.531 65.1719 405.358 61.8075C389.76 66.9158 365.12 70.2126 337.393 70.2126C327.88 70.2126 318.364 69.8338 308.884 69.0335C300.475 68.3235 292.084 67.2923 283.783 65.7617C279.061 64.8911 274.352 63.9125 269.734 62.5892C265.124 61.2685 260.667 59.6875 256.384 57.5163C254.586 56.6049 252.855 55.4507 251.668 53.8212C250.649 52.4216 250.277 50.7562 250.081 49.0663C249.87 47.2421 249.645 45.417 249.447 43.5914C248.887 38.4509 248.415 33.3014 247.869 28.1595C247.313 22.9151 246.721 17.6648 245.831 12.4654C245.27 9.18398 244.812 5.21394 243.009 2.32408C242.674 1.78694 242.178 1.11914 241.474 1.11914C238.287 1.12005 237.248 11.2663 236.904 13.2243C235.532 21.027 234.757 28.9398 234.07 36.8277C233.765 40.3218 233.495 43.8183 233.247 47.3169C233.108 49.2641 233.34 51.36 232.589 53.2096C231.873 54.9707 230.175 55.8082 228.621 56.7106C220.679 61.3207 211.611 63.5387 202.663 65.225C201.103 65.519 199.54 65.7966 197.976 66.0683C184.789 68.3575 171.402 69.5271 158.034 69.9967C153.931 70.1409 149.826 70.2126 145.721 70.2126C118.074 70.2126 93.4958 66.9344 77.8915 61.8515C70.8025 65.2023 69.6424 68.6474 69.6424 68.6474C69.6424 68.6474 47.7676 88.5371 61.1866 101.561C75.3473 115.305 97.4626 125.152 241.337 125.152C385.212 125.152 405.351 109.931 421.987 100.608C438.422 91.3984 420.898 75.2937 420.898 75.2937Z" fill="#F0EBDD"/>
<path d="M203.501 65.4118C202.976 65.7902 200.401 63.9691 200.039 63.711C197.27 61.7357 195.379 58.7715 194.244 55.6035C191.483 47.8985 192.979 40.021 194.022 32.1635C194.664 27.0234 195.385 21.892 196.067 16.757C196.366 14.5009 196.575 12.3206 197.045 10.0853C197.37 8.53561 197.519 6.84162 196.783 5.43889C196.014 3.97128 194.393 3.1896 193.124 2.21422C191.881 1.2588 190.311 -0.0455066 188.642 0.00122105C186.926 0.0493097 185.672 1.46431 184.422 2.45149C183.007 3.56841 181.618 4.83686 181.037 6.59891C180.677 7.68907 180.666 8.85908 180.658 10.0069C180.575 22.2554 180.485 34.5067 179.83 46.7416C179.548 52.025 179.233 57.3315 178.509 62.5759C178.389 63.4443 177.926 69.4358 176.401 69.4358C172.051 70.3636 193.822 72.3869 203.501 65.4118Z" fill="#F0EBDD"/>
<path d="M277.319 65.4118C277.844 65.7902 280.419 63.9691 280.781 63.711C283.55 61.7357 285.442 58.7715 286.576 55.6035C289.337 47.8985 287.842 40.021 286.799 32.1635C286.156 27.0234 285.435 21.892 284.754 16.757C284.454 14.5009 284.245 12.3206 283.776 10.0853C283.45 8.53561 283.302 6.84162 284.037 5.43889C284.807 3.97128 286.428 3.1896 287.697 2.21422C288.939 1.2588 290.51 -0.0455066 292.179 0.00122105C293.895 0.0493097 295.149 1.46431 296.399 2.45149C297.813 3.56841 299.202 4.83686 299.784 6.59891C300.143 7.68907 300.155 8.85908 300.163 10.0069C300.246 22.2554 300.335 34.5067 300.99 46.7416C301.273 52.025 301.587 57.3315 302.312 62.5759C302.431 63.4443 302.894 69.4358 304.419 69.4358C308.769 70.3636 286.998 72.3869 277.319 65.4118Z" fill="#F0EBDD"/>
<path d="M322.318 228.066C322.318 228.066 320.956 227.77 320.956 226.092C320.956 224.414 322.318 224.3 322.318 224.3C330.761 224.3 339.867 223.822 349.383 222.877C358.779 221.945 368.111 220.605 377.12 218.896C396.038 215.307 411.593 210.431 420.92 205.167C427.413 201.502 432.964 197.168 437.42 192.286C440.981 188.382 443.859 184.118 445.972 179.611C449.582 171.91 449.71 166.086 449.711 166.029C449.711 166.029 449.921 164.757 451.86 164.757C453.8 164.757 454.062 166.067 454.062 166.067C454.059 166.327 453.949 172.526 450.086 180.85C447.829 185.713 444.747 190.313 440.925 194.519C436.161 199.764 430.23 204.408 423.297 208.32C418.262 211.163 411.63 213.868 403.588 216.359C396.019 218.705 387.427 220.796 378.052 222.574C368.899 224.31 359.421 225.671 349.879 226.618C340.199 227.579 330.926 228.066 322.318 228.066Z" fill="#1B46BF"/>
<path d="M321.069 229.858C323.287 229.858 325.085 228.06 325.085 225.843C325.085 223.625 323.287 221.828 321.069 221.828C318.852 221.828 317.054 223.625 317.054 225.843C317.054 228.06 318.852 229.858 321.069 229.858Z" fill="#1B46BF"/>
<path d="M162.352 228.066C162.352 228.066 163.715 227.77 163.715 226.092C163.715 224.414 162.352 224.3 162.352 224.3C153.91 224.3 144.804 223.822 135.288 222.877C125.892 221.945 116.56 220.605 107.551 218.896C88.6329 215.307 73.0775 210.431 63.7506 205.167C57.2582 201.502 51.7071 197.168 47.2512 192.286C43.6895 188.382 40.8119 184.118 38.6991 179.611C35.0888 171.91 34.9609 166.086 34.96 166.029C34.96 166.029 34.75 164.757 32.8105 164.757C30.8711 164.757 30.6089 166.067 30.6089 166.067C30.6116 166.327 30.7218 172.526 34.5848 180.85C36.8418 185.713 39.924 190.313 43.7457 194.519C48.5101 199.764 54.4409 204.408 61.3734 208.32C66.4091 211.163 73.0403 213.868 81.0825 216.359C88.6519 218.705 97.2435 220.796 106.619 222.574C115.772 224.31 125.25 225.671 134.792 226.618C144.472 227.579 153.744 228.066 162.352 228.066Z" fill="#1B46BF"/>
<path d="M163.602 229.858C165.819 229.858 167.617 228.06 167.617 225.843C167.617 223.625 165.819 221.828 163.602 221.828C161.384 221.828 159.587 223.625 159.587 225.843C159.587 228.06 161.384 229.858 163.602 229.858Z" fill="#1B46BF"/>
</svg>
