<svg width="487" height="247" viewBox="0 0 487 247" fill="none" xmlns="http://www.w3.org/2000/svg">
<path d="M485.54 95.64C484.96 92.31 483.11 88.87 479.85 87.78C469.3 84.25 468 98.94 460.36 100.73C455.58 101.84 452.42 95.16 447.28 95C444.15 94.9 441.07 96.09 438.58 97.95C430.45 104.03 432.76 111.82 434.36 120.09C440.04 149.53 440.26 156.48 402.52 174.84C402.52 174.84 296.13 199.12 243.74 199.12C191.35 199.12 84.08 174.37 84.08 174.37C45.27 167.6 46.95 147.52 52.63 118.08C54.23 109.81 56.54 102.02 48.41 95.94C45.92 94.08 42.84 92.89 39.71 92.99C34.57 93.15 31.41 99.83 26.63 98.72C18.99 96.94 17.68 82.25 7.14 85.77C3.88 86.86 2.03 90.3 1.45 93.63C-0.969999 107.55 1.95 122.17 2.06 136.16C2.19 154.03 14.56 200.8 30.68 211.93C64.07 235 234.06 246.83 243.3 246.93C243.3 246.93 243.37 246.93 243.5 246.93C243.63 246.93 422.93 238.86 456.32 215.79C472.44 204.66 484.81 156.03 484.94 138.16C485.04 124.18 487.96 109.56 485.54 95.64Z" fill="#F0EBDD"/>
<path d="M301.31 58.24C301.31 58.24 312.54 69.47 328.09 70.55C343.64 71.63 403.61 71.27 403.25 32.25L404.34 7.71C404.34 7.71 429.16 31.53 429.16 91.5L312.57 77.75L301.05 67.18L301.31 58.24Z" fill="#F0EBDD"/>
<path d="M179.79 57.54C179.79 57.54 174.04 69.47 158.49 70.55C142.94 71.63 82.97 71.27 83.33 32.25L82.24 7.7C82.24 7.7 57.42 31.52 57.42 91.49L174.01 77.74L180.5 67.26L179.79 57.54Z" fill="#F0EBDD"/>
<path d="M421.4 75.84C421.4 75.84 413.03 65.72 405.86 62.35C390.26 67.46 365.62 70.76 337.9 70.76C328.39 70.76 318.87 70.38 309.39 69.58C300.98 68.87 292.59 67.84 284.29 66.31C279.57 65.44 274.86 64.46 270.24 63.14C265.63 61.82 261.17 60.24 256.89 58.07C255.09 57.16 253.36 56 252.17 54.37C251.15 52.97 250.78 51.31 250.58 49.62C250.37 47.8 250.14 45.97 249.95 44.15C249.39 39.01 248.92 33.86 248.37 28.72C247.81 23.48 247.22 18.23 246.33 13.03C245.77 9.75 245.31 5.78 243.51 2.89C243.18 2.35 242.68 1.68 241.97 1.68C238.78 1.68 237.74 11.83 237.4 13.79C236.03 21.59 235.25 29.51 234.57 37.39C234.27 40.88 234 44.38 233.75 47.88C233.61 49.83 233.84 51.92 233.09 53.77C232.37 55.53 230.68 56.37 229.12 57.27C221.18 61.88 212.11 64.1 203.16 65.78C201.6 66.07 200.04 66.35 198.47 66.62C185.28 68.91 171.9 70.08 158.53 70.55C154.43 70.69 150.32 70.77 146.22 70.77C118.57 70.77 93.99 67.49 78.39 62.41C71.3 65.76 70.14 69.21 70.14 69.21C70.14 69.21 48.27 89.1 61.68 102.12C75.84 115.86 97.96 125.71 241.83 125.71C385.7 125.71 405.84 110.49 422.48 101.17C438.92 91.95 421.4 75.84 421.4 75.84Z" fill="#F0EBDD"/>
<path d="M204 65.96C203.47 66.34 200.9 64.52 200.54 64.26C197.77 62.28 195.88 59.32 194.74 56.15C191.98 48.45 193.47 40.57 194.52 32.71C195.16 27.57 195.88 22.44 196.57 17.3C196.87 15.04 197.08 12.86 197.55 10.63C197.88 9.08 198.02 7.39 197.29 5.98C196.52 4.51 194.9 3.73 193.63 2.76C192.39 1.8 190.82 0.499999 189.15 0.549999C187.43 0.599999 186.18 2.01 184.93 3C183.52 4.12 182.13 5.39 181.55 7.15C181.19 8.24 181.18 9.41 181.17 10.56C181.09 22.81 181 35.06 180.34 47.29C180.06 52.57 179.74 57.88 179.02 63.12C178.9 63.99 178.44 69.98 176.91 69.98C172.55 70.91 194.32 72.94 204 65.96Z" fill="#F0EBDD"/>
<path d="M277.82 65.96C278.35 66.34 280.92 64.52 281.28 64.26C284.05 62.28 285.94 59.32 287.08 56.15C289.84 48.45 288.35 40.57 287.3 32.71C286.66 27.57 285.94 22.44 285.25 17.3C284.95 15.04 284.74 12.86 284.27 10.63C283.94 9.08 283.8 7.39 284.53 5.98C285.3 4.51 286.92 3.73 288.19 2.76C289.43 1.8 291 0.499999 292.67 0.549999C294.39 0.599999 295.64 2.01 296.89 3C298.3 4.12 299.69 5.39 300.27 7.15C300.63 8.24 300.64 9.41 300.65 10.56C300.73 22.81 300.82 35.06 301.48 47.29C301.76 52.57 302.08 57.88 302.8 63.12C302.92 63.99 303.38 69.98 304.91 69.98C309.27 70.91 287.5 72.94 277.82 65.96Z" fill="#F0EBDD"/>
<path d="M322.82 228.62C322.82 228.62 321.46 228.32 321.46 226.65C321.46 224.97 322.82 224.86 322.82 224.86C331.26 224.86 340.37 224.38 349.88 223.44C359.28 222.51 368.61 221.17 377.62 219.46C396.54 215.87 412.09 211 421.42 205.73C427.91 202.07 433.46 197.73 437.92 192.85C441.48 188.95 444.36 184.68 446.47 180.18C450.08 172.48 450.21 166.66 450.21 166.6C450.21 166.6 450.42 165.33 452.36 165.33C454.3 165.33 454.56 166.64 454.56 166.64C454.56 166.9 454.45 173.1 450.58 181.42C448.32 186.28 445.24 190.88 441.42 195.09C436.66 200.33 430.72 204.98 423.79 208.89C418.75 211.73 412.12 214.44 404.08 216.93C396.51 219.28 387.92 221.37 378.54 223.14C369.39 224.88 359.91 226.24 350.37 227.18C340.7 228.13 331.43 228.62 322.82 228.62Z" fill="#1B46BF"/>
<path d="M321.57 230.4C323.785 230.4 325.58 228.605 325.58 226.39C325.58 224.175 323.785 222.38 321.57 222.38C319.355 222.38 317.56 224.175 317.56 226.39C317.56 228.605 319.355 230.4 321.57 230.4Z" fill="#1B46BF"/>
<path d="M162.85 228.62C162.85 228.62 164.21 228.32 164.21 226.65C164.21 224.97 162.85 224.86 162.85 224.86C154.41 224.86 145.3 224.38 135.79 223.44C126.39 222.51 117.06 221.17 108.05 219.46C89.13 215.87 73.58 211 64.25 205.73C57.76 202.07 52.21 197.73 47.75 192.85C44.19 188.95 41.31 184.68 39.2 180.18C35.59 172.48 35.46 166.66 35.46 166.6C35.46 166.6 35.25 165.33 33.31 165.33C31.37 165.33 31.11 166.64 31.11 166.64C31.11 166.9 31.22 173.1 35.09 181.42C37.35 186.28 40.43 190.88 44.25 195.09C49.01 200.33 54.95 204.98 61.88 208.89C66.92 211.73 73.55 214.44 81.59 216.93C89.16 219.28 97.75 221.37 107.13 223.14C116.28 224.88 125.76 226.24 135.3 227.18C144.97 228.13 154.24 228.62 162.85 228.62Z" fill="#1B46BF"/>
<path d="M164.1 230.4C166.315 230.4 168.11 228.605 168.11 226.39C168.11 224.175 166.315 222.38 164.1 222.38C161.885 222.38 160.09 224.175 160.09 226.39C160.09 228.605 161.885 230.4 164.1 230.4Z" fill="#1B46BF"/>
</svg>
