<svg width="373" height="37" viewBox="0 0 373 37" fill="none" xmlns="http://www.w3.org/2000/svg">
<g clip-path="url(#clip0_28_1719)">
<path d="M138.942 37.2122C137.771 37.1233 121.549 36.8402 119.788 36.5499C118.028 36.2595 119.648 36.5481 119.577 36.544C118.689 36.4955 101.56 35.8966 102.241 35.942C102.921 35.9873 85.1967 35.5123 84.4573 35.4048C82.3318 35.0963 62.3868 33.8011 61.0594 33.6015C59.732 33.4019 38.2259 30.2888 37.9555 30.2444C30.3797 29.0008 17.1327 22.8763 17.1327 22.8763C17.1327 22.8763 12.6681 20.7654 8.64914 17.7045C6.2556 15.8817 4.11883 13.8406 2.75147 11.9429C0.970829 9.47136 0.347036 7.9053 0.210938 5.13792L1.50933 5.24545C1.46987 7.16038 2.18484 9.15379 3.63385 11.1708C4.85104 12.8652 6.59675 14.3551 8.78524 16.0259C10.6938 17.4827 12.3515 19.0351 14.0618 19.6857C15.7721 20.3362 32.6027 26.551 34.6047 27.1227C34.7812 27.173 57.4255 30.8368 58.0797 30.9621C58.7339 31.0873 59.3731 31.2397 60.1203 31.2896C92.7058 33.46 85.1731 32.9328 84.8156 32.9355C84.1601 32.9405 103.754 33.6355 104.132 33.6555C104.471 33.6736 113.129 33.719 118.255 33.9912C123.381 34.2634 135.721 34.9893 139.396 35.1707C143.071 35.3522 170.748 34.679 171.379 34.7624C172.912 34.9657 207.264 34.3995 214.16 34.4449C221.056 34.4902 228.642 34.8382 229.304 34.8622C229.966 34.8872 250.996 34.1482 251.565 33.9971C251.694 33.9631 267.35 33.3642 268.2 33.2581C269.003 33.1578 283.979 32.5848 288.561 32.1312C293.143 31.6775 303.463 30.1904 310.746 29.4545C311.791 29.293 312.923 29.137 314.647 28.7287C316.371 28.3204 336.595 23.9592 336.642 23.9429C336.644 23.9229 351.893 19.1109 357.156 16.2528C358.474 15.688 362.155 13.6197 362.464 13.44C364.837 12.0573 367.248 10.4154 368.815 8.858C370.351 7.33186 370.971 5.88965 371.038 4.59352L372.308 4.63889C372.208 6.5824 371.264 8.09992 369.269 10.0829C367.549 11.7919 365.386 13.0834 362.827 14.5742C362.528 14.748 357.564 17.3416 356.067 18.0221C354.57 18.7026 341.794 23.8567 339.191 24.7364C336.588 25.616 316.621 30.9026 316.621 30.9026L315.495 31.0764C315.495 31.0764 309.541 31.9946 309.524 31.9973C309.024 32.0745 289.941 34.5841 287.482 34.6277C285.023 34.6713 269.739 35.5804 268.508 35.7337C267.737 35.8299 252.943 36.2133 252.203 36.4088C251.917 36.4846 230.652 37.4073 229.213 37.3551C227.775 37.303 162.714 37.802 156.544 37.4844C150.375 37.1669 140.114 37.3012 138.942 37.2122ZM55.2516 26.2235C55.2516 26.2244 55.2516 26.2253 55.2516 26.2262V26.2235ZM55.2511 26.2122C55.2511 26.214 55.2511 26.2158 55.2511 26.218V26.2144C55.2515 26.2135 55.2515 26.2131 55.2511 26.2122ZM310.23 22.7488C310.23 22.7493 310.229 22.7498 310.229 22.7498C310.229 22.7493 310.229 22.7488 310.23 22.7488ZM43.4589 12.7201C43.4589 12.7205 43.4589 12.7201 43.4589 12.7201V12.7201ZM353.432 6.64637C353.32 6.97619 353.226 7.30147 353.15 7.62176C353.253 7.30555 353.343 6.97936 353.432 6.64637ZM305.137 2.39368C305.137 2.39414 305.137 2.39414 305.137 2.39414V2.39368ZM303.403 1.99219C303.403 1.99219 303.403 1.99264 303.402 1.99264C303.402 1.9931 303.403 1.99264 303.403 1.99219Z" fill="#B46766"/>
<path d="M138.942 36.2122C137.771 36.1233 121.549 35.8402 119.788 35.5499C118.028 35.2595 119.648 35.5481 119.577 35.544C118.689 35.4955 101.56 34.8966 102.241 34.942C102.921 34.9873 85.1967 34.5123 84.4573 34.4048C82.3318 34.0963 62.3868 32.8011 61.0594 32.6015C59.732 32.4019 38.2259 29.2888 37.9555 29.2444C30.3797 28.0008 17.1327 21.8763 17.1327 21.8763C17.1327 21.8763 12.6681 19.7654 8.64914 16.7045C6.2556 14.8817 4.11883 12.8406 2.75147 10.9429C0.970829 8.47136 0.347036 6.9053 0.210938 4.13792L1.50933 4.24545C1.46987 6.16038 2.18484 8.15379 3.63385 10.1708C4.85104 11.8652 6.59675 13.3551 8.78524 15.0259C10.6938 16.4827 12.3515 18.0351 14.0618 18.6857C15.7721 19.3362 32.6027 25.551 34.6047 26.1227C34.7812 26.173 57.4255 29.8368 58.0797 29.9621C58.7339 30.0873 59.3731 30.2397 60.1203 30.2896C92.7058 32.46 85.1731 31.9328 84.8156 31.9355C84.1601 31.9405 103.754 32.6355 104.132 32.6555C104.471 32.6736 113.129 32.719 118.255 32.9912C123.381 33.2634 135.721 33.9893 139.396 34.1707C143.071 34.3522 170.748 33.679 171.379 33.7624C172.912 33.9657 207.264 33.3995 214.16 33.4449C221.056 33.4902 228.642 33.8382 229.304 33.8622C229.966 33.8872 250.996 33.1482 251.565 32.9971C251.694 32.9631 267.35 32.3642 268.2 32.2581C269.003 32.1578 283.979 31.5848 288.561 31.1312C293.143 30.6775 303.463 29.1904 310.746 28.4545C311.791 28.293 312.923 28.137 314.647 27.7287C316.371 27.3204 336.595 22.9592 336.642 22.9429C336.644 22.9229 351.893 18.1109 357.156 15.2528C358.474 14.688 362.155 12.6197 362.464 12.44C364.837 11.0573 367.248 9.41545 368.815 7.858C370.351 6.33186 370.971 4.88965 371.038 3.59352L372.308 3.63889C372.208 5.5824 371.264 7.09992 369.269 9.08291C367.549 10.7919 365.386 12.0834 362.827 13.5742C362.528 13.748 357.564 16.3416 356.067 17.0221C354.57 17.7026 341.794 22.8567 339.191 23.7364C336.588 24.616 316.621 29.9026 316.621 29.9026L315.495 30.0764C315.495 30.0764 309.541 30.9946 309.524 30.9973C309.024 31.0745 289.941 33.5841 287.482 33.6277C285.023 33.6713 269.739 34.5804 268.508 34.7337C267.737 34.8299 252.943 35.2133 252.203 35.4088C251.917 35.4846 230.652 36.4073 229.213 36.3551C227.775 36.303 162.714 36.802 156.544 36.4844C150.375 36.1669 140.114 36.3012 138.942 36.2122ZM55.2516 25.2235C55.2516 25.2244 55.2516 25.2253 55.2516 25.2262V25.2235ZM55.2511 25.2122C55.2511 25.214 55.2511 25.2158 55.2511 25.218V25.2144C55.2515 25.2135 55.2515 25.2131 55.2511 25.2122ZM310.23 21.7488C310.23 21.7493 310.229 21.7498 310.229 21.7498C310.229 21.7493 310.229 21.7488 310.23 21.7488ZM43.4589 11.7201C43.4589 11.7205 43.4589 11.7201 43.4589 11.7201V11.7201ZM353.432 5.64637C353.32 5.97619 353.226 6.30147 353.15 6.62176C353.253 6.30555 353.343 5.97936 353.432 5.64637ZM305.137 1.39368C305.137 1.39414 305.137 1.39414 305.137 1.39414V1.39368ZM303.403 0.992188C303.403 0.992188 303.403 0.992642 303.402 0.992642C303.402 0.993096 303.403 0.99264 303.403 0.992188Z" fill="#B46766"/>
</g>
<defs>
<clipPath id="clip0_28_1719">
<rect width="373" height="37" fill="white"/>
</clipPath>
</defs>
</svg>
