<svg width="378" height="61" viewBox="0 0 378 61" fill="none" xmlns="http://www.w3.org/2000/svg">
<path d="M333.664 22.5863C324.619 21.5896 304.301 27.2477 303.431 27.5748C300.239 28.7752 276.171 32.7003 275.284 33.0097C274.84 33.1644 259.482 35.3461 258.516 35.6528C257.342 36.0253 223.113 41.2864 222.007 41.3458C218.093 41.5554 205.78 42.6592 205.066 42.8112C204.389 42.9554 172.339 42.6569 171.162 42.6166C169.193 42.549 157.162 41.3141 156.511 41.2869C155.22 41.2333 149.776 40.7343 146.555 40.5528" stroke="#B46766" stroke-width="2.5" stroke-miterlimit="10"/>
<path d="M332.983 23.745C332.757 23.6847 333.618 21.6164 333.618 21.386L347.737 17.7671L348.978 17.4105C349.947 17.1319 356.298 14.2389 362.789 10.5887C368.148 7.57543 373.54 3.94338 376.626 1.74219L377.261 2.60416C374.14 4.87929 369.04 8.36345 363.969 11.3146C357.614 15.0133 351.103 18.1962 350.223 18.5279C343.917 20.9323 336.567 24.6977 332.983 23.745Z" fill="#B46766"/>
<path d="M146.663 41.7534C146.663 41.7534 124.569 37.9426 123.027 37.7158C121.484 37.4889 116.894 36.6764 115.541 36.3548C114.698 36.1547 99.1187 33.6328 98.3928 33.6328C97.6669 33.6328 75.6795 29.1464 71.43 28.123C67.1805 27.0995 25.5793 18.3442 26.0329 18.571C26.4866 18.7979 22.8487 17.6923 22.1741 17.5099C15.5097 15.7061 9.73865 12.9102 5.02142 9.20012C3.19995 7.76744 1.55269 6.19776 0.125 4.53416L1.21743 3.55469C2.53942 5.09535 10.6083 14.3066 24.5358 16.5295C25.7322 16.6266 44.9359 20.5871 46.0215 20.4542C48.4282 20.1589 75.4554 25.9622 76.292 26.5778C77.3005 27.3205 89.5295 29.0457 91.9054 29.9127C94.2812 30.7797 102.476 32.0449 103.61 32.2718C104.744 32.4986 107.874 33.3152 111.005 33.8596C114.135 34.404 128.289 36.9899 131.42 37.3075C134.55 37.625 146.708 39.3036 146.708 39.3036L146.663 41.7534ZM76.5089 55.0581C76.5085 55.0581 76.5085 55.0581 76.5089 55.0581C76.5085 55.0581 76.5089 55.0581 76.5089 55.0581Z" fill="#B46766"/>
<path d="M333.664 21.5863C324.619 20.5896 304.301 26.2477 303.431 26.5748C300.239 27.7752 276.171 31.7003 275.284 32.0097C274.84 32.1644 259.482 34.3461 258.516 34.6528C257.342 35.0253 223.113 40.2864 222.007 40.3458C218.093 40.5554 205.78 41.6592 205.066 41.8112C204.389 41.9554 172.339 41.6569 171.162 41.6166C169.193 41.549 157.162 40.3141 156.511 40.2869C155.22 40.2333 149.776 39.7343 146.555 39.5528" stroke="#B46766" stroke-width="2.5" stroke-miterlimit="10"/>
<path d="M332.983 22.745C332.757 22.6847 333.618 20.6164 333.618 20.386L347.737 16.7671L348.978 16.4105C349.947 16.1319 356.298 13.2389 362.789 9.58868C368.148 6.57543 373.54 2.94338 376.626 0.742188L377.261 1.60416C374.14 3.87929 369.04 7.36345 363.969 10.3146C357.614 14.0133 351.103 17.1962 350.223 17.5279C343.917 19.9323 336.567 23.6977 332.983 22.745Z" fill="#B46766"/>
<path d="M146.663 40.7534C146.663 40.7534 124.569 36.9426 123.027 36.7158C121.484 36.4889 116.894 35.6764 115.541 35.3548C114.698 35.1547 99.1187 32.6328 98.3928 32.6328C97.6669 32.6328 75.6795 28.1464 71.43 27.123C67.1805 26.0995 25.5793 17.3442 26.0329 17.571C26.4866 17.7979 22.8487 16.6923 22.1741 16.5099C15.5097 14.7061 9.73865 11.9102 5.02142 8.20012C3.19995 6.76744 1.55269 5.19776 0.125 3.53416L1.21743 2.55469C2.53942 4.09535 10.6083 13.3066 24.5358 15.5295C25.7322 15.6266 44.9359 19.5871 46.0215 19.4542C48.4282 19.1589 75.4554 24.9622 76.292 25.5778C77.3005 26.3205 89.5295 28.0457 91.9054 28.9127C94.2812 29.7797 102.476 31.0449 103.61 31.2718C104.744 31.4986 107.874 32.3152 111.005 32.8596C114.135 33.404 128.289 35.9899 131.42 36.3075C134.55 36.625 146.708 38.3036 146.708 38.3036L146.663 40.7534ZM76.5089 54.0581C76.5085 54.0581 76.5085 54.0581 76.5089 54.0581C76.5085 54.0581 76.5089 54.0581 76.5089 54.0581Z" fill="#B46766"/>
</svg>
