<svg width="21" height="69" viewBox="0 0 21 69" fill="none" xmlns="http://www.w3.org/2000/svg">
<path d="M4.63867 45.1456C4.63867 45.1456 16.7202 42.1174 17.7242 43.844L12.845 9.29142C12.845 9.29142 9.42529 0.410889 8.11782 0.410889C6.81035 0.410889 5.5029 4.33285 5.5029 4.33285C5.5029 4.33285 4.92993 36.8757 4.63867 45.1456Z" fill="url(#paint0_linear_86_2460)"/>
<path d="M6.96213 41.6492C6.96167 41.6501 -0.228666 51.1281 1.07884 58.972C1.50076 61.503 2.36455 64.1484 3.89027 66.2357C4.6343 67.2537 5.6011 68.1751 6.82013 68.5789C8.4325 69.1128 10.5017 68.6937 12.1182 68.333C12.9139 68.1556 13.6956 67.9111 14.4369 67.5699C19.6197 65.1864 20.989 59.041 20.572 53.8329C20.279 50.174 19.1683 46.6254 17.7247 43.2728C16.7883 41.098 14.607 40.5281 12.4298 40.2201C10.7912 39.9883 8.07636 40.1802 6.96213 41.6492Z" fill="url(#paint1_linear_86_2460)"/>
<path d="M13.6 62.2C13.8 63.8 11 64.5 9.59998 64.5C8.39998 64.5 6.79997 64 5.99997 63.2C5.09997 62.2 6.69997 61.1 7.49997 60.6C8.89997 59.7 10.7 60 12.1 60.7C12.8 61 13.5 61.5 13.6 62.2Z" fill="white"/>
<defs>
<linearGradient id="paint0_linear_86_2460" x1="15.9927" y1="23.0745" x2="6.09919" y2="22.7698" gradientUnits="userSpaceOnUse">
<stop stop-color="#BFAB8D"/>
<stop offset="0.5078" stop-color="#E7E1D2"/>
<stop offset="1" stop-color="#CCBFA6"/>
</linearGradient>
<linearGradient id="paint1_linear_86_2460" x1="26.9216" y1="54.1807" x2="-6.03184" y2="54.7697" gradientUnits="userSpaceOnUse">
<stop stop-color="#94938C"/>
<stop offset="0.0617" stop-color="#A4A29B"/>
<stop offset="0.1809" stop-color="#CCCAC2"/>
<stop offset="0.2666" stop-color="#EDEBE1"/>
<stop offset="0.7117" stop-color="#EDEBE1"/>
<stop offset="0.7719" stop-color="#E0DED5"/>
<stop offset="0.883" stop-color="#BEBDB4"/>
<stop offset="1" stop-color="#94938C"/>
</linearGradient>
</defs>
</svg>
