<svg width="19" height="55" viewBox="0 0 19 55" fill="none" xmlns="http://www.w3.org/2000/svg">
<path d="M9.24561 53.9502C9.24561 53.9502 14.5443 55.0458 16.422 52.2934C18.2997 49.5406 9.8771 52.2898 9.24561 53.9502Z" fill="#D8D6D0"/>
<path d="M8.46875 54.1863C8.46875 54.1863 2.82584 54.5678 1.4218 50.9085C0.0177678 47.2492 8.13577 52.0681 8.46875 54.1863Z" fill="#D8D6D0"/>
<path d="M6.2145 33.6545C6.13148 33.6954 6.05254 33.7416 5.97814 33.7938C4.54044 34.7982 3.32869 36.4255 2.41454 37.8977C1.02539 40.1342 0.0340717 42.6925 0.300832 45.3618C0.483209 47.1865 0.687855 49.2847 1.59974 50.9233C2.13235 51.8805 3.32956 52.3192 4.30451 52.6586C5.13972 52.9494 5.98265 53.2225 6.80153 53.5577C7.5578 53.8671 8.30004 54.3947 9.15204 54.3267C10.1315 54.2482 10.8156 53.4806 11.5991 52.9825C12.8286 52.2013 14.3003 51.8007 15.7566 51.871C16.0125 51.8833 16.2747 51.9091 16.5202 51.8343C16.8781 51.7254 17.1399 51.4214 17.3508 51.1129C18.3117 49.7093 18.2863 48.3492 18.2945 46.7169C18.3031 45.0583 18.2709 43.3897 17.9547 41.7565C17.3917 38.8463 15.469 36.4387 14.4582 33.6917C14.4001 33.5334 14.3421 33.3714 14.2354 33.2408C14.0531 33.0171 13.7546 32.9205 13.467 32.8974C12.928 32.8538 12.3849 32.9373 11.851 32.9945C10.8384 33.1033 9.84977 33.2163 8.83172 33.2862C8.02418 33.342 6.96624 33.283 6.2145 33.6545Z" fill="url(#paint0_linear_86_2467)"/>
<path d="M13.3999 46.6C13.5999 48.2 10.7999 48.9 9.39991 48.9C8.19991 48.9 6.5999 48.4 5.7999 47.6C4.8999 46.6 6.4999 45.5 7.2999 45C8.6999 44.1 10.4999 44.4 11.8999 45.1C12.6999 45.5 13.3999 46 13.3999 46.6Z" fill="white"/>
<path d="M4.07214 35.5678C4.10843 35.5973 4.15197 35.6205 4.20505 35.635C4.4718 35.7098 5.29385 35.3074 5.58465 35.2312C6.54868 34.979 7.52358 34.768 8.5044 34.5925C9.54374 34.4065 10.5936 34.23 11.652 34.2213C12.2122 34.2168 12.7757 34.2558 13.3241 34.3747C13.8114 34.4804 14.3363 34.8143 14.7977 34.856C15.1338 33.5454 14.7927 32.0211 14.7146 30.69C14.628 29.2101 14.4919 27.7334 14.3072 26.2626C13.9611 23.5025 13.272 20.8454 12.7698 18.1202C12.2807 15.4694 12.1446 12.667 12.2031 9.96771C12.2308 8.69834 12.3075 7.42671 12.4526 6.1655C12.5765 5.08895 12.8868 4.12535 12.7765 3.00977C12.6645 1.8756 12.1323 0.158022 10.6348 0.62258C9.50745 0.97236 8.80566 2.21223 8.23676 3.15496C7.15296 4.95013 6.36405 6.90589 5.63728 8.87255C4.91142 10.8365 4.24224 12.8344 3.86343 14.8977C3.53271 16.6974 3.57308 18.4591 3.60439 20.276C3.65338 23.1604 3.72234 26.0444 3.79356 28.9284C3.83938 30.7893 3.73324 32.7306 3.87978 34.6179C3.90654 34.9708 3.85438 35.39 4.07214 35.5678Z" fill="url(#paint1_linear_86_2467)"/>
<defs>
<linearGradient id="paint0_linear_86_2467" x1="24.2444" y1="44.014" x2="-5.99232" y2="43.0826" gradientUnits="userSpaceOnUse">
<stop stop-color="#94938C"/>
<stop offset="0.2666" stop-color="#EDEBE1"/>
<stop offset="0.7117" stop-color="#EDEBE1"/>
<stop offset="1" stop-color="#94938C"/>
</linearGradient>
<linearGradient id="paint1_linear_86_2467" x1="17.7067" y1="19.1432" x2="3.34733" y2="17.6353" gradientUnits="userSpaceOnUse">
<stop stop-color="#BFAB8D"/>
<stop offset="0.5078" stop-color="#E7E1D2"/>
<stop offset="1" stop-color="#CCBFA6"/>
</linearGradient>
</defs>
</svg>
