<svg width="25" height="43" viewBox="0 0 25 43" fill="none" xmlns="http://www.w3.org/2000/svg">
<path d="M14.4969 4.20864C15.0177 2.46929 16.8159 2.6884 17.4238 4.25627C18.5991 7.28721 17.9958 10.6906 17.3916 13.7778C17.1117 15.2073 16.5719 20.4948 14.5545 20.6676C12.5531 20.8387 8.89322 16.1351 10.558 13.5147C11.4612 12.0934 12.4488 10.7156 13.1909 9.19897C13.998 7.5508 13.987 5.91352 14.4969 4.20864Z" fill="url(#paint0_linear_86_2477)"/>
<path d="M4.03808 27.5079C4.10341 27.5446 4.3121 27.0783 4.49947 27.0987C4.74401 27.125 5.04888 27.0397 5.29342 27.0147C6.13817 26.9295 6.98427 26.8555 7.83084 26.7915C10.1827 26.6142 12.5455 26.5062 14.9046 26.5538C16.5456 26.5869 18.2115 26.674 19.8207 27.0175C20.8148 27.2293 22.1227 27.5446 22.7306 28.4483C22.7306 28.4483 21.361 22.9322 22.3419 18.6832C23.3227 14.4341 24.6298 2.99491 22.0148 2.66782C20.3711 2.46231 19.1321 6.2849 18.7033 7.34829C17.5664 10.1683 16.6763 13.1824 15.8701 16.1449C15.8474 16.2275 15.8243 16.3123 15.7739 16.3812C15.3325 16.9919 13.7999 17.2342 13.2083 16.8259C12.7129 16.4838 12.5905 15.8164 12.5097 15.2194C12.3663 14.1601 12.2229 13.1008 12.0796 12.0415C11.7389 9.52454 11.3959 6.99126 11.4567 4.44483C11.4734 3.74573 12.2701 0.185362 10.5747 1.03327C7.72652 2.45733 6.10235 6.39604 5.31158 9.22284C4.24271 13.0423 4.20321 17.1293 4.05576 21.0681C3.98816 22.8737 3.8979 24.7042 4.0154 26.5098C4.03854 26.8632 3.94417 27.4553 4.03808 27.5079Z" fill="url(#paint1_linear_86_2477)"/>
<path d="M5.13437 26.3553C6.01132 25.7478 7.18586 25.6753 8.20435 25.4716C9.7382 25.1644 11.2857 24.9086 12.849 24.8142C16.2946 24.6055 20.0841 25.2375 22.3996 28.0407C23.2158 29.0283 23.7897 30.211 24.0773 31.4586C24.4008 32.8632 24.1399 33.7705 23.6926 35.0975C23.2825 36.3138 22.7471 37.6308 22.0857 38.7323C21.3684 39.9263 20.2211 40.9602 18.7785 40.9393C17.2156 40.9167 15.688 40.3051 14.6441 39.1201C14.5893 39.058 14.533 38.9922 14.4559 38.9609C14.3638 38.9237 14.2599 38.9432 14.1637 38.9654C12.0632 39.4468 9.95688 40.8205 8.01881 41.7491C7.09241 42.1928 6.56296 42.328 5.62477 41.8353C4.4543 41.2206 3.33965 40.4648 2.47314 39.4663C-0.0896322 36.5129 0.887111 32.317 2.76076 29.2715C3.35235 28.3102 4.085 27.1959 4.97147 26.4782C5.02409 26.4347 5.07857 26.3939 5.13437 26.3553Z" fill="url(#paint2_linear_86_2477)"/>
<path d="M9.00923 30.6083C8.80923 28.7083 11.9092 27.9083 13.5092 28.0083C14.9092 28.0083 16.7092 28.5083 17.6092 29.5083C18.6092 30.6083 16.8093 31.9083 15.9093 32.5083C14.3093 33.5083 12.2092 33.2083 10.6092 32.4083C9.90924 32.0083 9.10923 31.4083 9.00923 30.6083Z" fill="white"/>
<defs>
<linearGradient id="paint0_linear_86_2477" x1="11.8072" y1="19.9454" x2="25.4954" y2="-13.506" gradientUnits="userSpaceOnUse">
<stop offset="0.1599" stop-color="#BFAB8D"/>
<stop offset="0.5078" stop-color="#E7E1D2"/>
<stop offset="0.7297" stop-color="#CCBFA6"/>
</linearGradient>
<linearGradient id="paint1_linear_86_2477" x1="22.8787" y1="16.9561" x2="5.18916" y2="13.6004" gradientUnits="userSpaceOnUse">
<stop offset="0.1599" stop-color="#BFAB8D"/>
<stop offset="0.5078" stop-color="#E7E1D2"/>
<stop offset="0.7297" stop-color="#CCBFA6"/>
</linearGradient>
<linearGradient id="paint2_linear_86_2477" x1="-4.33627" y1="33.4252" x2="28.9492" y2="33.5097" gradientUnits="userSpaceOnUse">
<stop stop-color="#94938C"/>
<stop offset="0.2296" stop-color="#EDEBE1"/>
<stop offset="0.7988" stop-color="#EDEBE1"/>
<stop offset="1" stop-color="#94938C"/>
</linearGradient>
</defs>
</svg>
