<svg width="20" height="51" viewBox="0 0 20 51" fill="none" xmlns="http://www.w3.org/2000/svg">
<path d="M15.8407 20.3968C15.0377 25.653 13.6218 30.9051 11.7786 35.885C9.75247 41.358 7.22099 46.8315 2.29959 50.2612C2.18027 50.3443 2.05234 50.4305 1.90717 50.4377C1.75927 50.445 1.62 50.3683 1.50159 50.2794C0.823806 49.7727 0.57427 48.8476 0.644136 48.0038C0.714001 47.16 1.05064 46.3656 1.34462 45.5717C3.13843 40.7292 3.57622 35.4 4.0875 30.2985C4.41142 27.0689 5.17949 23.1102 4.41823 19.8905C3.60072 16.4349 15.334 19.7825 15.8407 20.3968Z" fill="url(#paint0_linear_86_2499)"/>
<path d="M5.70321 0.414125C6.42999 0.0866234 7.18806 0.0789051 8.20064 0.32748C8.47466 0.394613 8.76683 0.498922 8.91563 0.738424C9.61292 1.85792 3.89307 4.00756 3.2094 3.06814C2.80473 2.50931 4.33041 1.39387 4.64979 1.11672C5.01046 0.803283 5.35344 0.571525 5.70321 0.414125Z" fill="#D8D6D0"/>
<path d="M15.6385 0.600848C15.976 0.702466 16.2328 0.81132 16.3407 0.906134C16.8869 1.3861 17.4545 1.8969 17.699 2.58146C17.797 2.85592 17.8074 3.22385 17.5579 3.37447C17.4735 3.42528 17.3728 3.44069 17.2748 3.44885C16.1302 3.54276 14.806 2.79876 13.8379 2.26754C13.4795 2.0711 11.9384 1.36204 12.0087 0.804505C12.1157 -0.0406514 14.4118 0.232028 15.6385 0.600848Z" fill="#D8D6D0"/>
<path d="M17.6545 2.70763C17.6545 2.70763 19.9423 4.34173 18.6348 8.59078C17.9811 14.474 16.0199 20.3571 16.0199 20.3571C16.0199 20.3571 15.3662 21.3375 10.7905 21.3375C6.21485 21.3375 4.90737 20.6838 4.25364 19.3763C3.59991 18.0688 1.96582 5.64876 1.96582 5.64876C1.96582 5.64876 2.29246 2.70718 3.59992 2.38054C4.90739 2.05344 6.21485 1.7268 6.54148 1.7268C6.86812 1.7268 9.80968 -0.234389 11.1171 0.0927053C12.4246 0.4198 15.6937 3.03473 17.6545 2.70763Z" fill="url(#paint1_linear_86_2499)"/>
<path d="M13.8668 5.15919C14.0668 6.75919 11.2668 7.4592 9.86683 7.4592C8.66683 7.4592 7.06682 6.95919 6.26682 6.15919C5.36682 5.15919 6.96682 4.05919 7.76682 3.55919C9.16682 2.65919 10.9668 2.95919 12.3668 3.65919C13.0668 4.05919 13.7668 4.55919 13.8668 5.15919Z" fill="white"/>
<defs>
<linearGradient id="paint0_linear_86_2499" x1="12.6123" y1="34.364" x2="2.24584" y2="34.4015" gradientUnits="userSpaceOnUse">
<stop stop-color="#BFAB8D"/>
<stop offset="0.5078" stop-color="#E7E1D2"/>
<stop offset="1" stop-color="#CCBFA6"/>
</linearGradient>
<linearGradient id="paint1_linear_86_2499" x1="23.6215" y1="10.6508" x2="-0.418594" y2="10.7376" gradientUnits="userSpaceOnUse">
<stop stop-color="#94938C"/>
<stop offset="0.2717" stop-color="#EDEBE1"/>
<stop offset="0.7988" stop-color="#EDEBE1"/>
<stop offset="1" stop-color="#94938C"/>
</linearGradient>
</defs>
</svg>
