<svg width="18" height="67" viewBox="0 0 18 67" fill="none" xmlns="http://www.w3.org/2000/svg">
<path d="M15.5598 27.0085C13.6549 26.9976 11.7205 26.8212 9.8187 26.6683C7.51545 26.4827 4.28128 26.5943 2.17855 25.4928C1.98619 25.3921 1.92313 25.0496 1.74575 24.928C1.34244 26.2767 1.68586 28.4394 1.7648 29.8213C1.99027 33.7705 2.16358 37.7269 2.12366 41.6838C2.10143 43.8677 1.97894 46.0358 1.78159 48.2103C1.50894 51.2131 0.493628 54.1438 0.219615 57.1775C0.0272606 59.3043 0.058567 61.4674 0.472763 63.5679C0.602965 64.2284 0.792605 65.941 1.36558 66.0989C2.12139 66.3071 3.2619 65.1453 3.64162 64.6335C4.89827 62.9409 5.22127 60.6485 5.86411 58.6868C6.58362 56.4911 7.42654 54.3389 8.28714 52.1953C9.96615 48.0147 11.7318 43.8446 12.8138 39.4585C13.4462 36.8958 13.7279 34.2708 14.3213 31.699C14.6852 30.1229 15.1134 28.5628 15.5598 27.0085Z" fill="url(#paint0_linear_86_2507)"/>
<path d="M17.7615 8.25961C17.7615 8.25961 18.7419 3.03022 16.454 1.39612C14.1661 -0.237973 13.1858 0.415785 13.1858 0.415785C12.2394 0.673919 11.2885 0.915706 10.3354 1.14798C8.76656 1.53042 7.07253 2.07843 5.44657 2.03533C5.12083 2.02671 4.79464 1.99045 4.47026 2.02266C2.0472 2.26401 1.65251 4.84442 1.28776 6.73438C0.820019 9.15831 0.489739 11.6145 0.29466 14.0751C0.133606 16.1071 0.0551196 18.1622 0.225701 20.1964C0.3491 21.6699 0.554616 23.353 1.41932 24.602C2.62745 26.3468 4.84319 27.1406 6.82438 27.597C9.33908 28.1768 11.9822 28.3138 14.555 28.2068C15.9536 28.1483 16.3447 25.0311 16.4232 24.0422C16.8406 18.7783 17.2838 13.518 17.7615 8.25961Z" fill="url(#paint1_linear_86_2507)"/>
<path d="M13.8668 5.15919C14.0668 6.75919 11.2668 7.4592 9.86683 7.4592C8.66683 7.4592 7.06682 6.95919 6.26682 6.15919C5.36682 5.15919 6.96682 4.05919 7.76682 3.55919C9.16682 2.65919 10.9668 2.95919 12.3668 3.65919C13.0668 4.05919 13.7668 4.55919 13.8668 5.15919Z" fill="white"/>
<defs>
<linearGradient id="paint0_linear_86_2507" x1="10.924" y1="45.4923" x2="1.84224" y2="45.5252" gradientUnits="userSpaceOnUse">
<stop stop-color="#BFAB8D"/>
<stop offset="0.5078" stop-color="#E7E1D2"/>
<stop offset="1" stop-color="#CCBFA6"/>
</linearGradient>
<linearGradient id="paint1_linear_86_2507" x1="21.7766" y1="14.2328" x2="-2.1912" y2="14.3194" gradientUnits="userSpaceOnUse">
<stop stop-color="#94938C"/>
<stop offset="0.2296" stop-color="#EDEBE1"/>
<stop offset="0.7988" stop-color="#EDEBE1"/>
<stop offset="1" stop-color="#94938C"/>
</linearGradient>
</defs>
</svg>
