<svg width="19" height="51" viewBox="0 0 19 51" fill="none" xmlns="http://www.w3.org/2000/svg">
<path d="M3.71387 20.3968C4.51688 25.653 5.93281 30.9051 7.77611 35.885C9.80224 41.358 12.3338 46.8315 17.2557 50.2612C17.3751 50.3443 17.503 50.4305 17.6481 50.4377C17.796 50.445 17.9353 50.3683 18.0538 50.2794C18.732 49.7727 18.981 48.8476 18.9112 48.0038C18.8413 47.16 18.5047 46.3656 18.2107 45.5717C16.4169 40.7292 15.9791 35.4 15.4678 30.2985C15.1439 27.0689 14.3758 23.1102 15.137 19.8905C15.9541 16.4349 4.22017 19.7825 3.71387 20.3968Z" fill="url(#paint0_linear_86_2403)"/>
<path d="M13.8512 0.414125C13.1244 0.0866234 12.3662 0.0789051 11.3535 0.32748C11.0794 0.394613 10.7872 0.498922 10.6384 0.738424C9.94105 1.85792 15.6616 4.00756 16.3453 3.06814C16.7501 2.50931 15.2242 1.39387 14.9048 1.11672C14.5441 0.803283 14.2011 0.571525 13.8512 0.414125Z" fill="#D8D6D0"/>
<path d="M3.91609 0.600848C3.57811 0.702466 3.32177 0.81132 3.21379 0.906134C2.66759 1.3861 2.10008 1.8969 1.85556 2.58146C1.75756 2.85592 1.7471 3.22385 1.99662 3.37447C2.081 3.42528 2.18172 3.44069 2.27971 3.44885C3.4243 3.54276 4.74853 2.79876 5.71665 2.26754C6.07504 2.0711 7.61614 1.36204 7.54583 0.804505C7.43876 -0.0406514 5.14324 0.232028 3.91609 0.600848Z" fill="#D8D6D0"/>
<path d="M1.90008 2.70763C1.90008 2.70763 -0.387796 4.34173 0.919683 8.59078C1.57342 14.474 3.53467 20.3571 3.53467 20.3571C3.53467 20.3571 4.18839 21.3375 8.76411 21.3375C13.3398 21.3375 14.6473 20.6838 15.301 19.3763C15.9548 18.0688 17.5889 5.64876 17.5889 5.64876C17.5889 5.64876 17.2618 2.70718 15.9548 2.38054C14.6473 2.05344 13.3398 1.7268 13.0132 1.7268C12.6861 1.7268 9.74498 -0.234389 8.4375 0.0927053C7.13002 0.4198 3.8613 3.03473 1.90008 2.70763Z" fill="url(#paint1_linear_86_2403)"/>
<path d="M13.2 5.89997C13.4 7.49997 10.6 8.19997 9.19996 8.19997C7.99996 8.19997 6.39995 7.69997 5.59995 6.89997C4.69995 5.89997 6.29995 4.79998 7.09995 4.29998C8.49995 3.39998 10.3 3.69997 11.7 4.39997C12.4 4.69997 13.1 5.19997 13.2 5.89997Z" fill="white"/>
<defs>
<linearGradient id="paint0_linear_86_2403" x1="6.94199" y1="34.364" x2="17.3087" y2="34.4015" gradientUnits="userSpaceOnUse">
<stop stop-color="#BFAB8D"/>
<stop offset="0.5078" stop-color="#E7E1D2"/>
<stop offset="1" stop-color="#CCBFA6"/>
</linearGradient>
<linearGradient id="paint1_linear_86_2403" x1="-3.11797" y1="10.6542" x2="21.0143" y2="10.7414" gradientUnits="userSpaceOnUse">
<stop stop-color="#94938C"/>
<stop offset="0.2296" stop-color="#EDEBE1"/>
<stop offset="0.7988" stop-color="#EDEBE1"/>
<stop offset="1" stop-color="#94938C"/>
</linearGradient>
</defs>
</svg>
