<svg width="26" height="40" viewBox="0 0 26 40" fill="none" xmlns="http://www.w3.org/2000/svg">
<g clip-path="url(#clip0_86_2418)">
<path d="M16.2549 37.2168C16.5497 39.0701 15.3639 39.5609 14.4339 38.3093C12.6365 35.8898 11.8032 32.4256 11.0828 29.2613C10.7489 27.7959 9.20965 22.5683 10.3918 21.6202C11.565 20.6797 15.4859 23.7207 15.3875 26.8546C15.3339 28.5545 15.2133 30.2458 15.2927 31.9738C15.3789 33.8515 15.9654 35.4008 16.2549 37.2168Z" fill="url(#paint0_linear_86_2418)"/>
<path d="M3.78516 13.9079C3.78516 13.9079 5.09263 17.5032 5.09263 21.4251C5.09263 25.347 4.76552 30.2497 7.0538 33.845C9.34164 37.4403 9.9954 39.0744 9.9954 39.0744C9.9954 39.0744 11.9566 41.3622 12.937 38.7478C12.937 38.7478 10.6491 30.9035 11.9566 26.9815C13.264 23.0596 14.5715 24.3671 14.8981 25.0204C15.2248 25.6741 19.8009 33.1913 20.4546 35.1525C21.1084 37.1137 22.0887 39.0744 22.7425 39.0744C23.3962 39.0744 24.3765 37.4403 25.0303 34.4988C25.684 31.5572 25.0303 28.289 23.7228 26.0008C22.4154 23.7129 21.1084 13.5808 21.1084 11.9467C21.1079 10.3131 5.41926 13.2546 3.78516 13.9079Z" fill="url(#paint1_linear_86_2418)"/>
<path d="M11.3362 3.63919C11.0259 3.56569 10.7046 3.36291 10.3317 3.11747C9.31915 2.45013 8.26756 1.80639 7.09937 1.48202C5.93073 1.15765 4.61604 1.18577 3.57624 1.80956C2.84493 2.24825 2.30323 2.94325 1.85728 3.67002C1.15954 4.80736 0.64462 6.1289 0.804763 7.4536C0.987137 8.9643 1.58644 10.4519 2.20116 11.8319C2.57407 12.6689 2.88483 13.6239 3.5567 14.2789C4.34064 15.0429 5.65856 15.1504 6.69156 15.2952C8.91361 15.6059 11.1447 15.3274 13.3141 14.8125C15.4709 14.3003 17.6997 13.7323 19.797 13.0182C20.174 12.8898 20.5506 12.7415 20.8663 12.4992C21.7514 11.8192 21.9334 10.2736 22.1461 9.25373C22.4691 7.70355 22.2718 6.10078 21.6376 4.65586C20.821 2.79538 19.2595 1.1531 17.1862 0.834179C15.7023 0.605986 14.3848 0.910407 13.3863 2.06045C13.0555 2.44152 12.7924 2.88429 12.4349 3.24223C12.0407 3.63647 11.6959 3.72448 11.3362 3.63919Z" fill="url(#paint2_linear_86_2418)"/>
<path d="M15.3001 8.19997C15.5001 6.59997 12.8001 5.89996 11.4001 5.89996C10.2001 5.89996 8.70006 6.39997 7.90006 7.19997C7.00006 8.09997 8.60006 9.19997 9.30006 9.69997C10.7001 10.6 12.4001 10.3 13.9001 9.59998C14.6001 9.29998 15.3001 8.79997 15.3001 8.19997Z" fill="white"/>
</g>
<defs>
<linearGradient id="paint0_linear_86_2418" x1="12.3194" y1="21.2491" x2="12.3436" y2="58.3184" gradientUnits="userSpaceOnUse">
<stop offset="0.1599" stop-color="#BFAB8D"/>
<stop offset="0.5078" stop-color="#E7E1D2"/>
<stop offset="0.7297" stop-color="#CCBFA6"/>
</linearGradient>
<linearGradient id="paint1_linear_86_2418" x1="5.67968" y1="25.6949" x2="22.4378" y2="25.7555" gradientUnits="userSpaceOnUse">
<stop stop-color="#BFAB8D"/>
<stop offset="0.5078" stop-color="#E7E1D2"/>
<stop offset="1" stop-color="#CCBFA6"/>
</linearGradient>
<linearGradient id="paint2_linear_86_2418" x1="-5.57538" y1="8.0299" x2="28.4644" y2="8.15284" gradientUnits="userSpaceOnUse">
<stop stop-color="#94938C"/>
<stop offset="0.2614" stop-color="#EDEBE1"/>
<stop offset="0.7687" stop-color="#EDEBE1"/>
<stop offset="1" stop-color="#94938C"/>
</linearGradient>
<clipPath id="clip0_86_2418">
<rect width="26" height="40" fill="white"/>
</clipPath>
</defs>
</svg>
