<svg width="19" height="55" viewBox="0 0 19 55" fill="none" xmlns="http://www.w3.org/2000/svg">
<path d="M9.25928 54.2832C9.25928 54.2832 3.96034 55.3789 2.08258 52.6264C0.204367 49.8736 8.62731 52.6228 9.25928 54.2832Z" fill="#D8D6D0"/>
<path d="M10.0356 54.5193C10.0356 54.5193 15.6788 54.9008 17.0829 51.2415C18.4874 47.5822 10.3686 52.4011 10.0356 54.5193Z" fill="#D8D6D0"/>
<path d="M12.2899 33.9875C12.3729 34.0284 12.4519 34.0746 12.5263 34.1268C13.964 35.1312 15.1757 36.7585 16.0898 38.2307C17.479 40.4672 18.4707 43.0255 18.2035 45.6948C18.0211 47.5195 17.8165 49.6177 16.9046 51.2563C16.372 52.2135 15.1748 52.6522 14.1999 52.9916C13.3647 53.2824 12.5218 53.5555 11.7029 53.8907C10.9466 54.2001 10.2044 54.7277 9.35244 54.6597C8.37297 54.5812 7.68884 53.8136 6.90536 53.3155C5.67593 52.5343 4.20425 52.1337 2.74798 52.204C2.49211 52.2163 2.22989 52.2421 1.98445 52.1673C1.62651 52.0584 1.36474 51.7544 1.15379 51.4459C0.192922 50.0423 0.218314 48.6822 0.210148 47.0499C0.201528 45.3913 0.233749 43.7227 0.549955 42.0895C1.11295 39.1793 3.03559 36.7717 4.04635 34.0247C4.10442 33.8664 4.1625 33.7045 4.26911 33.5738C4.45149 33.3501 4.75 33.2535 5.03762 33.2304C5.57658 33.1868 6.11962 33.2703 6.65359 33.3275C7.66617 33.4364 8.6547 33.5493 9.67273 33.6192C10.4803 33.675 11.5387 33.616 12.2899 33.9875Z" fill="url(#paint0_linear_86_2436)"/>
<path d="M13.2001 47.3C13.4001 48.9 10.6001 49.6 9.20006 49.6C8.00006 49.6 6.40007 49.1 5.60007 48.3C4.70007 47.3 6.30007 46.2 7.10007 45.7C8.50007 44.8 10.3001 45.1 11.7001 45.8C12.4001 46.1 13.1001 46.6 13.2001 47.3Z" fill="white"/>
<path d="M14.4328 35.9009C14.3965 35.9303 14.3529 35.9535 14.2999 35.968C14.0331 36.0429 13.2111 35.6405 12.9203 35.5642C11.9563 35.312 10.9814 35.101 10.0006 34.9255C8.96125 34.7395 7.9115 34.563 6.85312 34.5544C6.29286 34.5498 5.72941 34.5889 5.18094 34.7077C4.69372 34.8134 4.16884 35.1473 3.70747 35.1891C3.37131 33.8784 3.71247 32.3541 3.79049 31.023C3.87714 29.5431 4.01324 28.0664 4.19787 26.5956C4.54447 23.8355 5.23311 21.1784 5.73576 18.4532C6.2248 15.8024 6.3609 13.0001 6.30238 10.3007C6.27471 9.03135 6.19803 7.75971 6.05241 6.49851C5.92856 5.42195 5.61828 4.45836 5.72851 3.34278C5.84057 2.20861 6.3727 0.49103 7.87021 0.955588C8.99754 1.30537 9.69934 2.54524 10.2682 3.48796C11.352 5.28314 12.1409 7.2389 12.8677 9.20556C13.5935 11.1695 14.2626 13.1675 14.6414 15.2307C14.9722 17.0305 14.9318 18.7921 14.9005 20.609C14.8515 23.4934 14.7825 26.3774 14.7113 29.2614C14.6655 31.1223 14.7716 33.0636 14.6251 34.9509C14.5984 35.3038 14.6501 35.723 14.4328 35.9009Z" fill="url(#paint1_linear_86_2436)"/>
<defs>
<linearGradient id="paint0_linear_86_2436" x1="-5.77102" y1="44.348" x2="24.6886" y2="43.4097" gradientUnits="userSpaceOnUse">
<stop stop-color="#94938C"/>
<stop offset="0.2666" stop-color="#EDEBE1"/>
<stop offset="0.7117" stop-color="#EDEBE1"/>
<stop offset="1" stop-color="#94938C"/>
</linearGradient>
<linearGradient id="paint1_linear_86_2436" x1="0.798123" y1="19.4762" x2="15.1573" y2="17.9684" gradientUnits="userSpaceOnUse">
<stop stop-color="#BFAB8D"/>
<stop offset="0.5078" stop-color="#E7E1D2"/>
<stop offset="1" stop-color="#CCBFA6"/>
</linearGradient>
</defs>
</svg>
