<svg width="19" height="62" viewBox="0 0 19 62" fill="none" xmlns="http://www.w3.org/2000/svg">
<path d="M13.0546 35.4444C13.0546 35.4444 16.3227 36.7518 17.3035 44.2691C17.3035 44.2691 18.2839 52.1135 18.611 54.4014C18.9376 56.6893 18.9376 59.6308 15.3428 60.6112C11.7476 61.5916 8.47943 60.9379 6.51827 60.2846C4.55711 59.6313 1.6156 57.6696 0.961879 55.3818C0.308159 53.0939 0.961873 41.9813 1.94223 40.0201C2.92258 38.0593 5.21038 32.8294 13.0546 35.4444Z" fill="url(#paint0_linear_86_2448)"/>
<path d="M13.7999 54.2C13.9999 55.8 11.1999 56.5 9.79993 56.5C8.59993 56.5 6.99993 56 6.19993 55.2C5.29993 54.2 6.89993 53.1 7.69993 52.6C9.09993 51.7 10.8999 52 12.2999 52.7C12.9999 53.1 13.6999 53.6 13.7999 54.2Z" fill="white"/>
<path d="M9.78616 4.39447C9.78616 4.39447 16.9606 20.0796 14.0271 36.5867C14.0271 36.5867 3.62482 35.3536 3.11035 38.1773C4.56937 31.3101 5.27028 24.0832 4.98311 17.0731C4.86651 14.2291 4.66599 11.3891 4.58614 8.54371C4.53442 6.69093 4.21232 4.57414 5.00761 2.84839C5.34151 2.12297 5.89363 1.05684 6.79962 0.972003C8.33712 0.82819 9.32522 3.33425 9.78616 4.39447Z" fill="url(#paint1_linear_86_2448)"/>
<defs>
<linearGradient id="paint0_linear_86_2448" x1="24.4478" y1="48.6303" x2="-3.2156" y2="47.2443" gradientUnits="userSpaceOnUse">
<stop stop-color="#94938C"/>
<stop offset="0.2296" stop-color="#EDEBE1"/>
<stop offset="0.7988" stop-color="#EDEBE1"/>
<stop offset="1" stop-color="#94938C"/>
</linearGradient>
<linearGradient id="paint1_linear_86_2448" x1="5.73971" y1="19.5844" x2="14.7208" y2="19.7449" gradientUnits="userSpaceOnUse">
<stop stop-color="#BFAB8D"/>
<stop offset="0.5078" stop-color="#E7E1D2"/>
<stop offset="1" stop-color="#CCBFA6"/>
</linearGradient>
</defs>
</svg>
