<svg width="26" height="42" viewBox="0 0 26 42" fill="none" xmlns="http://www.w3.org/2000/svg">
<path d="M6.94032 2.62704C6.40682 0.891299 8.02366 0.0746924 9.40052 1.04056C12.0622 2.90741 13.4513 6.07222 14.6639 8.9748C15.2255 10.319 17.7148 15.015 16.1333 16.2794C14.5641 17.5338 8.90739 15.6565 8.83617 12.5529C8.79761 10.8689 8.85295 9.17487 8.62748 7.50128C8.38251 5.68252 7.46339 4.3274 6.94032 2.62704Z" fill="url(#paint0_linear_91_12116)"/>
<path d="M22.73 26.5522C23.6923 20.2444 23.6768 12.6337 20.8732 6.79592C20.2217 5.439 19.3348 4.19777 18.2782 3.1262C17.8636 2.70566 15.3934 0.180547 14.8744 0.802071C14.345 1.43584 14.8236 2.85219 14.9175 3.55673C15.0745 4.73581 15.2233 5.9158 15.3462 7.09897C15.5953 9.49932 16.2154 12.1002 15.5667 14.4887C15.4238 15.0145 15.0935 15.5344 14.5754 15.7028C14.3019 15.7917 14.0038 15.7735 13.723 15.7127C11.9455 15.3276 10.6594 13.5356 9.56653 12.2209C8.00366 10.3413 7.10676 8.22996 6.32601 5.93214C5.94675 4.81612 5.51304 3.73185 4.55989 2.98829C4.33034 2.80909 2.08153 0.0498932 1.72767 0.134729C0.562666 0.41328 0.965066 3.55628 1.00726 4.27081C1.33389 9.82732 5.40779 19.6882 5.40779 19.6882C5.40779 19.6882 6.38816 25.898 5.40779 27.8592C4.42743 29.8209 21.423 29.8209 22.73 26.5522Z" fill="url(#paint1_linear_91_12116)"/>
<path d="M23.7113 27.5314C23.7109 27.5309 21.0964 24.5898 15.2132 24.5898C9.33004 24.5898 5.08099 26.551 4.10061 29.1655C3.12023 31.7799 2.79314 38.9705 6.38846 40.2779C7.52581 40.6917 8.77611 40.7942 9.8014 40.0611C10.6783 39.4341 11.0249 38.2818 12.3438 38.7092C12.9186 38.8952 13.3926 39.2985 13.8799 39.656C16.0221 41.2275 19.6628 42.8575 22.1026 41.0024C25.438 38.4665 26.6157 30.7991 23.7113 27.5314Z" fill="url(#paint2_linear_91_12116)"/>
<path d="M23.7347 27.5431C23.7347 27.5427 21.1198 24.6016 15.2366 24.6016C9.35346 24.6016 5.10442 26.5628 4.12405 29.1772C3.14367 31.7922 2.81658 38.9824 6.41189 40.2898C7.54923 40.7036 8.79954 40.8061 9.82482 40.073C10.7018 39.446 11.0484 38.2937 12.3672 38.7211C12.942 38.9071 13.4161 39.3104 13.9033 39.6678C16.0455 41.2394 19.6862 42.8694 22.126 41.0143C25.4614 38.4783 26.6391 30.8104 23.7347 27.5431Z" fill="#596D74"/>
<defs>
<linearGradient id="paint0_linear_91_12116" x1="13.4784" y1="17.1728" x2="6.26749" y2="-18.247" gradientUnits="userSpaceOnUse">
<stop offset="0.1599" stop-color="#BFAB8D"/>
<stop offset="0.5078" stop-color="#E7E1D2"/>
<stop offset="0.7297" stop-color="#CCBFA6"/>
</linearGradient>
<linearGradient id="paint1_linear_91_12116" x1="28.6768" y1="14.5864" x2="1.58407" y2="14.6842" gradientUnits="userSpaceOnUse">
<stop offset="0.1599" stop-color="#BFAB8D"/>
<stop offset="0.5078" stop-color="#E7E1D2"/>
<stop offset="0.7297" stop-color="#CCBFA6"/>
</linearGradient>
<linearGradient id="paint2_linear_91_12116" x1="30.3309" y1="33.1626" x2="-1.84648" y2="33.2789" gradientUnits="userSpaceOnUse">
<stop stop-color="#94938C"/>
<stop offset="0.2296" stop-color="#EDEBE1"/>
<stop offset="0.7988" stop-color="#EDEBE1"/>
<stop offset="1" stop-color="#94938C"/>
</linearGradient>
</defs>
</svg>
