<svg width="21" height="70" viewBox="0 0 21 70" fill="none" xmlns="http://www.w3.org/2000/svg">
<path d="M4.65625 45.3595C4.65625 45.3595 16.7378 42.3313 17.7418 44.0584L12.8626 9.50558C12.8626 9.50558 9.44288 0.625 8.13541 0.625C6.82795 0.625 5.52047 4.54697 5.52047 4.54697C5.52047 4.54697 4.9475 37.0896 4.65625 45.3595Z" fill="url(#paint0_linear_91_12219)"/>
<path d="M6.9797 41.863C6.97925 41.8639 -0.211086 51.3418 1.09642 59.1857C1.51834 61.7167 2.38213 64.362 3.90785 66.4493C4.65188 67.4674 5.61867 68.3887 6.83771 68.7925C8.45008 69.3265 10.5193 68.9073 12.1358 68.5466C12.9315 68.3692 13.7132 68.1247 14.4545 67.7836C19.6373 65.4 21.0065 59.2547 20.5896 54.0466C20.2965 50.3882 19.1859 46.8392 17.7423 43.4866C16.8059 41.3118 14.6246 40.742 12.4474 40.4339C10.8088 40.2021 8.09349 40.3945 6.9797 41.863Z" fill="#596D74"/>
<defs>
<linearGradient id="paint0_linear_91_12219" x1="16.0102" y1="23.2883" x2="6.11658" y2="22.9836" gradientUnits="userSpaceOnUse">
<stop stop-color="#BFAB8D"/>
<stop offset="0.5078" stop-color="#E7E1D2"/>
<stop offset="1" stop-color="#CCBFA6"/>
</linearGradient>
</defs>
</svg>
