<svg width="19" height="57" viewBox="0 0 19 57" fill="none" xmlns="http://www.w3.org/2000/svg">
<path d="M9.69531 55.9281C9.69531 55.9281 15.0413 56.7634 16.7824 53.9218C18.5231 51.0803 10.2447 54.2385 9.69531 55.9281Z" fill="#495A5E"/>
<path d="M15.0626 38.0089C15.0626 38.0089 14.7359 26.8963 13.755 23.9547C12.7742 21.0131 11.7937 11.208 12.1209 8.59308C12.4475 5.97814 12.4475 2.05619 12.4475 2.05619C12.4475 2.05619 12.7741 -0.885398 9.83244 1.40245C6.89073 3.69029 3.29526 14.8029 3.62237 19.3786C3.94947 23.9543 4.05248 37.743 4.00076 37.7126C3.94904 37.6822 15.0626 38.0089 15.0626 38.0089Z" fill="url(#paint0_linear_91_12226)"/>
<path d="M4.27338 36.7036C4.27338 36.7036 -3.24387 47.8162 2.31218 53.6994C2.99086 54.418 4.05833 54.9234 4.88536 55.4492C5.73916 55.9922 6.65014 56.7462 7.69085 56.8637C8.88445 56.9989 9.75819 55.75 10.9314 55.5063C12.7964 55.1189 14.6215 55.4256 16.2143 54.1535C17.5295 53.1033 18.327 51.466 18.5979 49.8264C18.9354 47.7808 18.5861 45.7021 18.1787 43.6938C18.0049 42.8377 17.7091 42.0233 17.363 41.2213C16.9946 40.3666 16.3291 39.5323 16.0397 38.6639C16.0397 38.6644 13.4252 30.8205 4.27338 36.7036Z" fill="#596D74"/>
<defs>
<linearGradient id="paint0_linear_91_12226" x1="14.1627" y1="19.3178" x2="1.26952" y2="18.9206" gradientUnits="userSpaceOnUse">
<stop stop-color="#BFAB8D"/>
<stop offset="0.5078" stop-color="#E7E1D2"/>
<stop offset="1" stop-color="#CCBFA6"/>
</linearGradient>
</defs>
</svg>
