<svg width="19" height="55" viewBox="0 0 19 55" fill="none" xmlns="http://www.w3.org/2000/svg">
<path d="M9.25 53.9949C9.25 53.9949 14.5488 55.0905 16.4265 52.3381C18.3042 49.5858 9.8815 52.3345 9.25 53.9949Z" fill="#495A5E"/>
<path d="M8.46823 54.23C8.46823 54.23 2.82496 54.6115 1.42084 50.9524C0.01671 47.2933 8.13523 52.1119 8.46823 54.23Z" fill="#495A5E"/>
<path d="M6.21515 33.699C6.13212 33.7398 6.05319 33.7861 5.97878 33.8383C4.54107 34.8427 3.32931 36.47 2.41514 37.9422C1.02598 40.1788 0.0342235 42.737 0.30144 45.4064C0.483819 47.2311 0.688445 49.3293 1.60034 50.9679C2.13296 51.9252 3.3302 52.3639 4.30516 52.7032C5.14038 52.994 5.98331 53.2671 6.80221 53.6024C7.55849 53.9118 8.30071 54.4394 9.15272 54.3714C10.1322 54.2929 10.8164 53.5253 11.5999 53.0272C12.8293 52.2459 14.3011 51.8453 15.7574 51.9157C16.0133 51.9279 16.2755 51.9538 16.5209 51.8789C16.8789 51.77 17.1406 51.4661 17.3516 51.1576C18.3125 49.7539 18.2871 48.3938 18.2953 46.7615C18.3039 45.1029 18.2717 43.4343 17.9555 41.8011C17.3924 38.8908 15.4697 36.4832 14.4589 33.7362C14.4009 33.5779 14.3428 33.4159 14.2362 33.2852C14.0538 33.0616 13.7553 32.9649 13.4677 32.9418C12.9287 32.8983 12.3856 32.9817 11.8517 33.0389C10.8391 33.1478 9.85047 33.2607 8.83242 33.3306C8.02532 33.3864 6.96689 33.3274 6.21515 33.699Z" fill="#596D74"/>
<path d="M4.07409 35.6129C4.11038 35.6424 4.15392 35.6655 4.207 35.68C4.47377 35.7549 5.29585 35.3525 5.58666 35.2763C6.55073 35.024 7.52569 34.8131 8.50655 34.6375C9.54593 34.4515 10.5957 34.275 11.6542 34.2664C12.2145 34.2619 12.778 34.3009 13.3265 34.4198C13.8137 34.5255 14.3386 34.8594 14.8 34.9011C15.1362 33.5905 14.795 32.0661 14.717 30.7351C14.6303 29.2552 14.4942 27.7785 14.3096 26.3077C13.963 23.5476 13.2743 20.8905 12.7716 18.1653C12.2825 15.5145 12.1464 12.7122 12.205 10.0129C12.2326 8.74349 12.3093 7.47187 12.4549 6.21067C12.5788 5.13412 12.8891 4.17052 12.7789 3.05495C12.6668 1.92078 12.1346 0.203189 10.637 0.667745C9.50963 1.01752 8.80779 2.2574 8.23888 3.20012C7.15503 4.99529 6.36609 6.95106 5.63929 8.91771C4.9134 10.8816 4.24422 12.8796 3.86539 14.9429C3.53466 16.7426 3.57504 18.5042 3.60634 20.3211C3.65534 23.2055 3.7243 26.0895 3.79552 28.9735C3.84135 30.8344 3.73518 32.7757 3.88172 34.6629C3.90849 35.0159 3.85632 35.4351 4.07409 35.6129Z" fill="url(#paint0_linear_91_12236)"/>
<defs>
<linearGradient id="paint0_linear_91_12236" x1="17.7093" y1="19.1882" x2="3.34934" y2="17.6802" gradientUnits="userSpaceOnUse">
<stop stop-color="#BFAB8D"/>
<stop offset="0.5078" stop-color="#E7E1D2"/>
<stop offset="1" stop-color="#CCBFA6"/>
</linearGradient>
</defs>
</svg>
