<svg width="27" height="50" viewBox="0 0 27 50" fill="none" xmlns="http://www.w3.org/2000/svg">
<path d="M15.4232 1.89978C15.4232 1.89978 16.3291 -0.154423 18.1634 0.360036C19.9976 0.874495 20.6313 5.6684 20.2992 9.20247C19.9676 12.7365 18.3957 23.9494 15.6931 24.1803C12.9906 24.4112 8.04827 18.0603 10.2971 14.5222C12.5455 10.9845 16.2657 4.77377 15.4232 1.89978Z" fill="url(#paint0_linear_91_12248)"/>
<path d="M3.60388 32.3503C6.80267 32.1199 10.4324 30.5561 13.6371 30.4295C15.6473 30.3501 17.6584 30.2172 19.6709 30.2816C20.6013 30.3111 21.9854 32.7917 22.8873 32.677C23.4726 32.6026 23.0865 30.199 23.0625 29.5771C23.042 29.0476 22.9972 28.5205 23.0747 27.9929C23.3533 26.0911 24.3994 24.2855 24.8345 22.3837C25.338 20.1839 25.6783 17.9414 25.8875 15.6949C26.1093 13.3118 26.2032 10.8774 25.891 8.49748C25.7568 7.47128 25.5735 6.42922 25.1661 5.47153C24.849 4.72615 24.0801 3.26308 23.0974 3.37514C22.7368 3.41642 22.4137 3.62148 22.1442 3.8651C21.6153 4.34281 21.2469 4.97885 21.0033 5.64892C20.5011 7.03124 20.512 8.51971 20.4153 9.96781C20.3155 11.4608 19.9086 12.8436 19.5738 14.2926C18.9522 16.9851 18.2182 20.154 16.4544 22.3611C16.0252 22.8982 15.3801 23.3328 14.6955 23.2679C14.3444 23.2344 14.0164 23.0728 13.7297 22.8673C12.6967 22.1265 12.1713 20.8481 11.9921 19.5896C11.6251 17.011 11.9014 14.1665 12.5905 11.6668C12.9947 10.1996 13.7415 8.88582 14.1979 7.45133C14.6801 5.93473 15.3343 2.92602 13.1962 2.3485C12.3333 2.11531 11.4146 2.55628 10.7695 3.17508C8.3778 5.46836 6.76229 8.87765 5.37907 11.8337C4.53071 13.6461 3.71186 15.5198 3.18969 17.4569C2.87576 18.6215 2.90932 19.782 2.94244 20.9846C3.03544 24.3467 3.23052 29.0172 3.60388 32.3503Z" fill="url(#paint1_linear_91_12248)"/>
<path d="M22.5445 34.5177C22.8167 34.6008 23.2073 35.3402 23.358 35.553C23.9568 36.3973 24.4744 37.306 24.8623 38.2669C25.9076 40.8559 25.756 43.6954 23.7953 45.8163C23.7717 45.8413 23.7485 45.8662 23.7254 45.8912C23.6197 46.0023 23.5095 46.1108 23.4233 46.2373C23.1815 46.5926 23.1239 47.0376 22.8948 47.4019C22.6784 47.7462 22.3603 48.0683 22.0523 48.3283C21.3269 48.9407 20.3606 49.3663 19.3956 49.271C19.064 49.2383 18.7478 49.1204 18.4361 49.0033C17.0828 48.4952 15.6134 47.9159 14.8957 46.5721C14.9773 46.7255 14.6049 47.3493 14.511 47.4763C14.286 47.7821 14.0101 47.915 13.6622 48.0493C12.513 48.4934 11.2623 48.85 10.1608 49.4008C9.39951 49.6938 8.7571 49.9724 7.98269 49.7183C7.53174 49.5704 7.07491 49.4407 6.62895 49.2774C5.7942 48.972 4.40554 48.4376 4.40554 47.3547C4.40554 45.6802 3.01003 40.6572 6.35901 35.6342C9.70617 30.613 22.5337 34.5146 22.5445 34.5177Z" fill="#495A5E"/>
<path d="M22.558 30.3904C22.8769 30.4875 23.3342 31.354 23.5107 31.603C24.2116 32.592 24.8181 33.6563 25.2727 34.7815C26.4971 37.8142 26.3192 41.1401 24.0233 43.6235C23.9961 43.6525 23.9684 43.682 23.9412 43.7111C23.8173 43.8413 23.6885 43.9683 23.5873 44.1166C23.3038 44.5331 23.2367 45.0535 22.9685 45.4808C22.7154 45.8837 22.343 46.2612 21.9818 46.566C21.1321 47.2833 20.0003 47.7814 18.8707 47.6703C18.4823 47.6322 18.1121 47.4938 17.7469 47.3568C16.1619 46.762 14.4407 46.0829 13.6001 44.5091C13.6958 44.6883 13.2594 45.4191 13.1496 45.5684C12.886 45.9263 12.5626 46.082 12.1556 46.2394C10.8097 46.7597 9.3448 47.1771 8.0546 47.8222C7.16317 48.1657 6.41101 48.4918 5.5037 48.1942C4.97564 48.0209 4.44032 47.869 3.91816 47.678C2.94053 47.3205 1.31418 46.6944 1.31418 45.4259C1.31418 43.4647 -0.319905 37.5815 3.60195 31.6983C7.52199 25.8174 22.5457 30.3867 22.558 30.3904Z" fill="#596D74"/>
<defs>
<linearGradient id="paint0_linear_91_12248" x1="11.9067" y1="23.1654" x2="30.4685" y2="-22.2002" gradientUnits="userSpaceOnUse">
<stop offset="0.1599" stop-color="#BFAB8D"/>
<stop offset="0.5078" stop-color="#E7E1D2"/>
<stop offset="0.7297" stop-color="#CCBFA6"/>
</linearGradient>
<linearGradient id="paint1_linear_91_12248" x1="24.7912" y1="17.1649" x2="3.8808" y2="18.1103" gradientUnits="userSpaceOnUse">
<stop offset="0.1599" stop-color="#BFAB8D"/>
<stop offset="0.5078" stop-color="#E7E1D2"/>
<stop offset="0.7297" stop-color="#CCBFA6"/>
</linearGradient>
</defs>
</svg>
