<svg width="25" height="43" viewBox="0 0 25 43" fill="none" xmlns="http://www.w3.org/2000/svg">
<path d="M10.0625 39.7852C10.0625 39.7852 12.512 43.3731 16.2349 40.9298C19.9579 38.4864 11.9825 38.0949 10.0625 39.7852Z" fill="#495A5E"/>
<path d="M14.5253 4.16371C15.046 2.42436 16.8442 2.64349 17.4521 4.21134C18.6275 7.24227 18.0241 10.6456 17.4199 13.7328C17.14 15.1623 16.6002 20.4502 14.5829 20.6226C12.5814 20.7936 8.92152 16.0901 10.5864 13.4697C11.4895 12.0484 12.4771 10.6706 13.2193 9.154C14.0263 7.50584 14.0154 5.86812 14.5253 4.16371Z" fill="url(#paint0_linear_91_12260)"/>
<path d="M4.07177 27.4633C4.1371 27.5001 4.34578 27.0337 4.53314 27.0541C4.77766 27.0804 5.08252 26.9951 5.32704 26.9702C6.17175 26.8849 7.01781 26.8109 7.86434 26.747C10.2161 26.5696 12.5788 26.4616 14.9378 26.5092C16.5787 26.5424 18.2445 26.6295 19.8537 26.9729C20.8476 27.1848 22.1555 27.5001 22.7634 28.4038C22.7634 28.4038 21.3938 22.8876 22.3746 18.6386C23.3554 14.3895 24.6624 2.95028 22.0475 2.62319C20.4039 2.41768 19.165 6.24028 18.7363 7.30368C17.5994 10.1237 16.7093 13.1378 15.9032 16.1003C15.8805 16.1829 15.8574 16.2677 15.807 16.3371C15.3656 16.9477 13.8336 17.19 13.2416 16.7817C12.7462 16.4396 12.6237 15.7723 12.5429 15.1753C12.3996 14.1159 12.2562 13.0566 12.1129 11.9973C11.7722 9.48037 11.4292 6.94709 11.49 4.40066C11.5068 3.70155 12.3034 0.141173 10.608 0.989077C7.75998 2.41314 6.13589 6.35188 5.34516 9.17869C4.27634 12.9981 4.23689 17.0852 4.08945 21.024C4.02185 22.8296 3.93159 24.6601 4.04909 26.4657C4.07222 26.8191 3.97832 27.4111 4.07177 27.4633Z" fill="url(#paint1_linear_91_12260)"/>
<path d="M5.16694 26.3121C6.04386 25.7046 7.21836 25.6321 8.23681 25.4284C9.77062 25.1212 11.318 24.8654 12.8813 24.771C16.3268 24.5623 20.1162 25.1943 22.4316 27.9975C23.2478 28.9851 23.8216 30.1678 24.1092 31.4154C24.4327 32.8199 24.1719 33.7272 23.7246 35.0538C23.3145 36.27 22.7791 37.587 22.1177 38.6885C21.4005 39.8825 20.2532 40.9165 18.8106 40.8956C17.2477 40.8729 15.7203 40.2614 14.6764 39.0764C14.6215 39.0142 14.5653 38.9485 14.4881 38.9171C14.3961 38.8799 14.2922 38.8995 14.196 38.9217C12.0956 39.403 9.98928 40.7767 8.05128 41.7054C7.12492 42.149 6.59552 42.2842 5.65737 41.7916C4.48694 41.1769 3.37228 40.421 2.50581 39.4225C-0.0568833 36.4692 0.919826 32.2732 2.79341 29.2278C3.38498 28.2665 4.11765 27.1523 5.00409 26.4346C5.05671 26.3915 5.11114 26.3507 5.16694 26.3121Z" fill="#596D74"/>
<defs>
<linearGradient id="paint0_linear_91_12260" x1="11.8491" y1="19.9052" x2="25.5371" y2="-13.5461" gradientUnits="userSpaceOnUse">
<stop offset="0.1599" stop-color="#BFAB8D"/>
<stop offset="0.5078" stop-color="#E7E1D2"/>
<stop offset="0.7297" stop-color="#CCBFA6"/>
</linearGradient>
<linearGradient id="paint1_linear_91_12260" x1="22.9115" y1="16.9119" x2="5.22278" y2="13.5566" gradientUnits="userSpaceOnUse">
<stop offset="0.1599" stop-color="#BFAB8D"/>
<stop offset="0.5078" stop-color="#E7E1D2"/>
<stop offset="0.7297" stop-color="#CCBFA6"/>
</linearGradient>
</defs>
</svg>
