<svg width="23" height="42" viewBox="0 0 23 42" fill="none" xmlns="http://www.w3.org/2000/svg">
<path d="M18.711 2.6231C19.2445 0.887388 17.6277 0.0707955 16.2509 1.03664C13.5894 2.90347 12.2003 6.06823 10.9877 8.97077C10.4261 10.315 7.93693 15.0108 9.51834 16.2752C11.0875 17.5296 16.744 15.6523 16.8153 12.5488C16.8538 10.8648 16.7985 9.17084 17.0239 7.49727C17.2689 5.67899 18.188 4.32343 18.711 2.6231Z" fill="url(#paint0_linear_91_12270)"/>
<path d="M2.91863 26.5473C1.9564 20.2395 1.97181 12.6288 4.77547 6.79097C5.42694 5.43405 6.31387 4.19281 7.37045 3.12124C7.78511 2.70069 10.2549 0.175579 10.7743 0.797103C11.3038 1.43088 10.8251 2.84724 10.7312 3.55178C10.5743 4.73087 10.4254 5.91085 10.3025 7.09401C10.0534 9.49437 9.4333 12.0953 10.082 14.4838C10.2249 15.0096 10.5552 15.5295 11.0733 15.6978C11.3468 15.7867 11.6449 15.7686 11.9257 15.7078C13.7032 15.3226 14.9893 13.5307 16.0822 12.2159C17.6451 10.3364 18.542 8.22501 19.3227 5.92718C19.702 4.81116 20.1358 3.7269 21.0889 2.98334C21.3185 2.80414 21.7816 2.38858 22.1355 2.47341C23.3005 2.75197 22.8981 5.89497 22.8559 6.6095C22.5288 12.166 20.241 19.6833 20.241 19.6833C20.241 19.6833 19.2606 25.8931 20.241 27.8543C21.2218 29.816 4.2261 29.816 2.91863 26.5473Z" fill="url(#paint1_linear_91_12270)"/>
<path d="M1.93865 27.5275C1.93865 27.5271 4.55352 24.5859 10.4365 24.5859C16.3194 24.5859 20.5684 26.5471 21.5487 29.1616C22.529 31.7761 22.8561 38.9667 19.2609 40.2742C18.1236 40.688 16.8734 40.7905 15.8481 40.0574C14.9712 39.4304 14.6246 38.2781 13.3058 38.7054C12.7311 38.8914 12.257 39.2947 11.7698 39.6522C9.62764 41.2237 5.98708 42.8538 3.54734 40.9987C0.212092 38.4627 -0.965632 30.7948 1.93865 27.5275Z" fill="#596D74"/>
<defs>
<linearGradient id="paint0_linear_91_12270" x1="12.1747" y1="17.1713" x2="19.3856" y2="-18.2479" gradientUnits="userSpaceOnUse">
<stop offset="0.1599" stop-color="#BFAB8D"/>
<stop offset="0.5078" stop-color="#E7E1D2"/>
<stop offset="0.7297" stop-color="#CCBFA6"/>
</linearGradient>
<linearGradient id="paint1_linear_91_12270" x1="-2.60025" y1="14.8927" x2="22.3372" y2="14.9828" gradientUnits="userSpaceOnUse">
<stop offset="0.1599" stop-color="#BFAB8D"/>
<stop offset="0.5078" stop-color="#E7E1D2"/>
<stop offset="0.7297" stop-color="#CCBFA6"/>
</linearGradient>
</defs>
</svg>
