<svg width="25" height="41" viewBox="0 0 25 41" fill="none" xmlns="http://www.w3.org/2000/svg">
<path d="M9.13187 37.4382C8.83698 39.2914 10.0229 39.7823 10.9529 38.5306C12.7503 36.1112 13.5837 32.647 14.3041 29.4827C14.6375 28.0174 16.1773 22.7898 14.995 21.8416C13.8218 20.9012 9.90037 23.9421 9.99927 27.076C10.0528 28.7759 10.1735 30.4672 10.0941 32.1952C10.0074 34.0729 9.42085 35.6222 9.13187 37.4382Z" fill="url(#paint0_linear_91_12355)"/>
<path d="M21.6032 14.1286C21.6032 14.1286 20.2957 17.7239 20.2957 21.6459C20.2957 25.5679 20.6224 30.4707 18.3345 34.0661C16.0467 37.6614 15.393 39.2955 15.393 39.2955C15.393 39.2955 13.4318 41.5834 12.4514 38.9689C12.4514 38.9689 14.7392 31.1245 13.4318 27.2025C12.1243 23.2805 10.8168 24.5875 10.4902 25.2413C10.1635 25.895 5.58743 33.4123 4.93369 35.3735C4.27996 37.3348 3.29959 39.2955 2.64586 39.2955C1.99213 39.2955 1.01176 37.6614 0.358025 34.7198C-0.295707 31.7782 0.358023 28.51 1.66549 26.2216C2.97295 23.9338 4.28042 13.8015 4.28042 12.1674C4.28042 10.5333 19.9691 13.4753 21.6032 14.1286Z" fill="url(#paint1_linear_91_12355)"/>
<path d="M14.0563 3.85991C14.3666 3.78642 14.6878 3.58363 15.0607 3.33819C16.0733 2.67085 17.1249 2.02709 18.2931 1.70271C19.4617 1.37834 20.7764 1.40648 21.8162 2.03027C22.5476 2.46897 23.0892 3.16399 23.5352 3.89077C24.2329 5.02812 24.7478 6.34965 24.5877 7.67437C24.4053 9.18509 23.806 10.6727 23.1913 12.0527C22.8184 12.8897 22.5076 13.8447 21.8357 14.4998C21.0518 15.2638 19.7339 15.3713 18.7009 15.516C16.4788 15.8268 14.2477 15.5482 12.0783 15.0333C9.92153 14.5211 7.69312 13.9531 5.59582 13.2391C5.21882 13.1107 4.84227 12.9623 4.52652 12.7201C3.64142 12.04 3.4595 10.4944 3.24673 9.47452C2.92372 7.92434 3.12106 6.32153 3.75529 4.87659C4.57189 3.0161 6.13342 1.37381 8.20668 1.05488C9.69062 0.826689 11.0081 1.13109 12.0066 2.28114C12.3373 2.66222 12.6004 3.10501 12.9579 3.46295C13.3517 3.85719 13.697 3.9452 14.0563 3.85991Z" fill="#596D74"/>
<defs>
<linearGradient id="paint0_linear_91_12355" x1="13.0516" y1="21.4741" x2="13.0275" y2="58.5434" gradientUnits="userSpaceOnUse">
<stop offset="0.1599" stop-color="#BFAB8D"/>
<stop offset="0.5078" stop-color="#E7E1D2"/>
<stop offset="0.7297" stop-color="#CCBFA6"/>
</linearGradient>
<linearGradient id="paint1_linear_91_12355" x1="19.7088" y1="25.9158" x2="2.95068" y2="25.9764" gradientUnits="userSpaceOnUse">
<stop stop-color="#BFAB8D"/>
<stop offset="0.5078" stop-color="#E7E1D2"/>
<stop offset="1" stop-color="#CCBFA6"/>
</linearGradient>
</defs>
</svg>
