<svg width="26" height="48" viewBox="0 0 26 48" fill="none" xmlns="http://www.w3.org/2000/svg">
<path d="M10.4667 41.7918C10.2648 43.7489 11.5347 44.1939 12.4356 42.8302C14.1782 40.194 14.8505 36.5198 15.4221 33.166C15.6871 31.6131 16.9973 26.0522 15.7052 25.1281C14.4232 24.2113 10.4935 27.6205 10.777 30.895C10.9308 32.6715 11.1549 34.4349 11.1713 36.2481C11.1894 38.2188 10.6645 39.8746 10.4667 41.7918Z" fill="url(#paint0_linear_91_12341)"/>
<path d="M22.097 19.531C21.4115 21.4894 20.859 23.5337 20.54 25.5842C20.3254 26.9643 20.3572 28.191 20.5668 29.557C20.9193 31.8526 20.9447 34.2483 20.8458 36.5639C20.6916 40.1755 18.959 42.8957 17.5739 46.1444C17.0649 47.338 15.8881 47.9645 14.8206 46.8662C13.4669 45.4734 13.8321 42.5459 13.7781 40.7793C13.7046 38.3613 13.6556 35.9265 13.172 33.547C12.9638 32.5226 12.6711 31.5014 12.1363 30.6031C11.6046 29.7099 10.6219 29.2744 9.68057 29.9176C8.42709 30.7742 8.14445 32.6505 7.71165 33.9861C7.30561 35.2387 6.93769 36.5035 6.58247 37.7715C6.08071 39.5626 5.61661 41.3641 5.13844 43.1611C4.94019 43.9051 4.29326 45.6526 3.19946 44.8932C2.83017 44.6364 2.64781 44.1918 2.49401 43.7695C1.98908 42.3803 1.58576 40.9572 1.18336 39.5354C0.643949 37.6304 0.14764 35.7309 0.0315013 33.7471C-0.126829 31.0423 0.938837 28.3697 1.45965 25.7516C2.01312 22.9693 2.35882 20.1457 2.49129 17.3121C2.49991 17.1256 2.51443 16.9228 2.64009 16.7849C2.81022 16.5989 3.10193 16.6134 3.3519 16.642C6.42369 16.9945 9.50183 17.2803 12.5704 17.6641C14.6469 17.9222 16.726 18.1954 18.7843 18.5746C19.6921 18.7416 21.3943 18.8282 22.097 19.531Z" fill="url(#paint1_linear_91_12341)"/>
<path d="M24.4945 15.2855C24.5971 14.0588 24.5689 12.8157 24.8026 11.6039C25.1673 9.71252 26.1223 8.06477 25.9871 6.06088C25.6613 1.23648 18.9194 0.863551 15.5296 2.19963C14.1201 2.75493 13.5417 2.23048 12.3567 1.48191C11.0728 0.670735 9.55803 0.246094 8.04052 0.246094C6.30525 0.246094 4.39033 0.739704 2.90821 1.65159C0.715639 3.00083 0.717449 5.21432 0.566832 7.5376C0.399883 10.1072 0.459318 12.7544 1.30903 15.2115C1.56898 15.9637 1.91332 16.7028 2.45499 17.2857C3.22486 18.1146 4.20569 18.2239 5.24595 18.4635C6.66592 18.7906 8.10177 19.0673 9.53308 19.3382C12.3399 19.8694 15.1731 20.3018 18.0289 20.4452C19.3831 20.5132 20.7854 20.3757 21.988 19.7492C23.7301 18.8428 24.3403 17.1369 24.4945 15.2855Z" fill="#596D74"/>
<defs>
<linearGradient id="paint0_linear_91_12341" x1="13.6483" y1="24.8672" x2="15.7579" y2="63.6714" gradientUnits="userSpaceOnUse">
<stop offset="0.1599" stop-color="#BFAB8D"/>
<stop offset="0.5078" stop-color="#E7E1D2"/>
<stop offset="0.7297" stop-color="#CCBFA6"/>
</linearGradient>
<linearGradient id="paint1_linear_91_12341" x1="19.5705" y1="33.4223" x2="2.0763" y2="30.0181" gradientUnits="userSpaceOnUse">
<stop stop-color="#BFAB8D"/>
<stop offset="0.5078" stop-color="#E7E1D2"/>
<stop offset="1" stop-color="#CCBFA6"/>
</linearGradient>
</defs>
</svg>
