<svg width="30" height="51" viewBox="0 0 30 51" fill="none" xmlns="http://www.w3.org/2000/svg">
<path d="M20.3617 0.848649C21.6747 0.938028 22.6882 1.32322 23.7661 2.06365C24.0578 2.26419 24.3341 2.506 24.2765 2.79274C24.0079 4.13206 14.1324 3.05589 14.2272 1.88127C14.2862 1.18348 17.4977 0.996557 18.2168 0.918975C19.028 0.830957 19.7293 0.805548 20.3617 0.848649Z" fill="#495A5E"/>
<path d="M10.1909 46.2179C9.51539 48.3819 11.1105 49.2647 12.5923 47.9827C15.4568 45.5039 17.1146 41.5275 18.5727 37.8851C19.2478 36.1984 22.1464 30.2672 20.6211 28.8337C19.1076 27.4114 13.1748 30.1198 12.8708 33.926C12.7057 35.9906 12.6367 38.0611 12.2815 40.1266C11.8949 42.3713 10.8533 44.0975 10.1909 46.2179Z" fill="url(#paint0_linear_91_12326)"/>
<path d="M26.9699 20.9457C26.7821 21.7201 26.6156 22.5082 26.5788 22.6606C26.2635 23.9685 25.99 25.2864 25.7704 26.6143C25.5912 27.699 25.4478 28.7897 25.3412 29.8844C25.2378 30.945 25.3281 32.1128 25.1262 33.1526C24.927 34.1774 24.5618 35.2526 24.2166 36.2425C23.1799 39.2154 21.6098 41.9819 19.7452 44.5106C18.8097 45.779 17.798 46.9908 16.7301 48.1504C16.074 48.8626 14.6795 50.9713 13.5203 50.0952C13.0852 49.7663 12.9106 49.1797 12.9387 48.6349C12.9668 48.09 13.1664 47.571 13.3556 47.0593C14.8128 43.111 16.1983 38.2223 15.379 33.9864C15.2937 33.545 15.1603 33.0891 14.8437 32.7701C14.4286 32.3523 13.7639 32.2584 13.1959 32.4149C12.6279 32.5714 12.1434 32.943 11.7206 33.3531C10.2693 34.7617 9.23809 36.742 8.35116 38.543C7.67973 39.9068 7.18659 41.3599 6.90304 42.8538C6.63174 44.2838 6.86221 45.9832 6.28786 47.3252C5.9662 48.0769 5.24895 48.722 4.43098 48.6984C3.79448 48.6803 3.23102 48.2706 2.81137 47.7915C1.26525 46.0263 0.968999 43.2136 0.878718 40.9629C0.7653 38.1266 1.16907 35.3002 1.60868 32.5061C2.20708 28.7021 2.97604 24.9239 3.83485 21.1707C3.86796 21.0251 4.33525 18.6574 4.42962 18.6602C4.42962 18.6602 27.3047 19.2948 27.5148 19.3007C27.3977 19.298 27.1718 20.1137 26.9699 20.9457Z" fill="url(#paint1_linear_91_12326)"/>
<path d="M9.0697 0.674536C10.2556 0.606942 11.221 0.865974 12.3002 1.46796C12.5924 1.63082 12.8773 1.83678 12.8714 2.12575C12.8446 3.47762 3.86077 3.58877 3.75869 2.41972C3.70062 1.72474 6.53692 1.15949 7.16614 0.997537C7.87703 0.815625 8.499 0.707198 9.0697 0.674536Z" fill="#495A5E"/>
<path d="M25.0113 1.7244C25.9644 1.81967 26.8622 2.18669 27.6357 2.99331C28.6324 4.03266 29.1315 5.47442 29.2549 6.90892C29.5194 9.98659 28.9927 13.6468 28.2237 16.6283C27.9796 17.5746 27.9551 19.5635 27.3055 20.2939C25.2839 22.5663 20.8421 21.4607 18.1541 21.2743C15.0755 21.0606 11.7611 20.9585 9.00278 20.2939C7.17677 20.2023 3.82372 20.6065 3.26934 18.1916C2.63421 15.4238 2.2427 12.5934 2.1125 9.75659C2.01451 7.63705 1.7051 2.39991 4.75192 1.99115C5.19788 1.93127 5.95051 2.43393 6.39737 2.53556C7.32965 2.74696 8.23925 2.71839 9.16473 2.4725C10.303 2.17036 11.36 1.62596 12.4511 1.18273C12.6884 1.08655 12.9351 0.993547 13.191 1.00035C13.774 1.01623 14.2022 1.52116 14.6686 1.87139C16.6316 3.34672 20.1503 2.58138 22.3174 2.01475C23.2275 1.77702 24.1425 1.63775 25.0113 1.7244Z" fill="#596D74"/>
<defs>
<linearGradient id="paint0_linear_91_12326" x1="17.9479" y1="27.931" x2="10.1868" y2="72.2225" gradientUnits="userSpaceOnUse">
<stop offset="0.1599" stop-color="#BFAB8D"/>
<stop offset="0.5078" stop-color="#E7E1D2"/>
<stop offset="0.7297" stop-color="#CCBFA6"/>
</linearGradient>
<linearGradient id="paint1_linear_91_12326" x1="24.928" y1="34.4261" x2="2.40068" y2="34.5075" gradientUnits="userSpaceOnUse">
<stop stop-color="#BFAB8D"/>
<stop offset="0.5078" stop-color="#E7E1D2"/>
<stop offset="1" stop-color="#CCBFA6"/>
</linearGradient>
</defs>
</svg>
