<svg width="25" height="43" viewBox="0 0 25 43" fill="none" xmlns="http://www.w3.org/2000/svg">
<path d="M7.50781 39.6369C7.50781 39.6369 9.9572 43.2252 13.68 40.7816C17.4029 38.338 9.42776 37.9464 7.50781 39.6369Z" fill="#495A5E"/>
<path d="M10.497 4.21841C9.97619 2.47904 8.17783 2.69817 7.56991 4.26605C6.39443 7.29701 6.99782 10.7004 7.60211 13.7877C7.88203 15.2172 8.42191 20.5051 10.4394 20.6775C12.441 20.8486 16.1013 16.1449 14.4363 13.5245C13.533 12.1032 12.5454 10.7254 11.8031 9.20877C10.9956 7.56059 11.0069 5.9233 10.497 4.21841Z" fill="url(#paint0_linear_91_12265)"/>
<path d="M20.9573 27.5178C20.892 27.5545 20.6833 27.0881 20.4959 27.1086C20.2514 27.1349 19.9465 27.0496 19.702 27.0246C18.8573 26.9393 18.0112 26.8654 17.1646 26.8014C14.8128 26.6241 12.4501 26.5161 10.091 26.5637C8.45009 26.5968 6.78422 26.6839 5.17506 27.0274C4.18107 27.2392 2.87313 27.5545 2.26522 28.4582C2.26522 28.4582 3.63485 22.9421 2.65402 18.6931C1.67318 14.4441 0.366162 3.00495 2.98111 2.67786C4.62475 2.47235 5.86372 6.29492 6.29244 7.35831C7.42933 10.1783 8.31944 13.1924 9.12561 16.1549C9.14829 16.2374 9.17142 16.3223 9.22178 16.3917C9.6632 17.0023 11.1957 17.2446 11.7873 16.8363C12.2827 16.4942 12.4052 15.8269 12.4859 15.2298C12.6293 14.1705 12.7726 13.1112 12.916 12.0519C13.2567 9.53498 13.5997 7.00173 13.5389 4.45531C13.5221 3.75622 12.7255 0.195866 14.4208 1.04376C17.269 2.46781 18.8931 6.40652 19.6843 9.2333C20.7531 13.0527 20.7926 17.1398 20.9401 21.0785C21.0076 22.8841 21.0979 24.7146 20.9804 26.5202C20.9568 26.8731 21.0507 27.4651 20.9573 27.5178Z" fill="url(#paint1_linear_91_12265)"/>
<path d="M19.8601 26.3668C18.9831 25.7593 17.8086 25.6867 16.7901 25.483C15.2562 25.1759 13.7088 24.92 12.1459 24.8257C8.70031 24.617 4.91083 25.249 2.59531 28.0521C1.77916 29.0398 1.20528 30.2225 0.917653 31.4701C0.594188 32.8746 0.855046 33.7819 1.30236 35.1084C1.71248 36.3247 2.24781 37.6417 2.90926 38.7432C3.6265 39.9372 4.77382 40.9711 6.21648 40.9503C7.77936 40.9276 9.30685 40.316 10.3507 39.1311C10.4056 39.0689 10.4619 39.0031 10.539 38.9718C10.6311 38.9346 10.735 38.9541 10.8312 38.9764C12.9321 39.4577 15.038 40.8314 16.9761 41.76C17.9025 42.2037 18.4319 42.3389 19.3701 41.8462C20.5406 41.2315 21.6552 40.4757 22.5217 39.4772C25.0845 36.5239 24.1077 32.3279 22.2341 29.2825C21.6425 28.3212 20.9098 27.207 20.0234 26.4893C19.9698 26.4462 19.9154 26.4053 19.8601 26.3668Z" fill="#596D74"/>
<defs>
<linearGradient id="paint0_linear_91_12265" x1="13.1639" y1="19.945" x2="-0.523542" y2="-13.5074" gradientUnits="userSpaceOnUse">
<stop offset="0.1599" stop-color="#BFAB8D"/>
<stop offset="0.5078" stop-color="#E7E1D2"/>
<stop offset="0.7297" stop-color="#CCBFA6"/>
</linearGradient>
<linearGradient id="paint1_linear_91_12265" x1="2.11692" y1="16.966" x2="19.8059" y2="13.6105" gradientUnits="userSpaceOnUse">
<stop offset="0.1599" stop-color="#BFAB8D"/>
<stop offset="0.5078" stop-color="#E7E1D2"/>
<stop offset="0.7297" stop-color="#CCBFA6"/>
</linearGradient>
</defs>
</svg>
