<svg width="19" height="51" viewBox="0 0 19 51" fill="none" xmlns="http://www.w3.org/2000/svg">
<path d="M15.7465 20.4223C14.9435 25.6785 13.5276 30.9307 11.6844 35.9106C9.65841 41.3837 7.12702 46.8572 2.20577 50.2869C2.08646 50.3699 1.95852 50.4561 1.81335 50.4634C1.66546 50.4707 1.52619 50.394 1.40779 50.3051C0.730029 49.7983 0.480523 48.8728 0.550386 48.0295C0.620249 47.1856 0.956858 46.3913 1.25083 45.5974C3.04458 40.7549 3.48235 35.4256 3.99362 30.3241C4.31753 27.0945 5.08557 23.1357 4.32434 19.9161C3.50685 16.4605 15.2402 19.8085 15.7465 20.4223Z" fill="url(#paint0_linear_91_12313)"/>
<path d="M5.60845 0.440533C6.33522 0.11298 7.09329 0.105261 8.10586 0.353874C8.37988 0.421018 8.67204 0.525365 8.82084 0.764905C9.51766 1.88457 3.79834 4.03454 3.11467 3.09498C2.71001 2.53605 4.23567 1.42047 4.55505 1.14327C4.91571 0.829784 5.25822 0.598411 5.60845 0.440533Z" fill="#495A5E"/>
<path d="M15.5463 0.627237C15.8838 0.728866 16.1406 0.837754 16.2486 0.932578C16.7948 1.4126 17.3623 1.92347 17.6069 2.60811C17.7049 2.8826 17.7153 3.25055 17.4658 3.40118C17.3814 3.452 17.2807 3.46742 17.1827 3.47558C16.0381 3.5695 14.7138 2.82543 13.7456 2.29414C13.3872 2.09769 11.8461 1.38855 11.9164 0.830949C12.0235 -0.0142996 14.3191 0.258376 15.5463 0.627237Z" fill="#495A5E"/>
<path d="M17.5637 2.7338C17.5637 2.7338 19.8515 4.36793 18.544 8.61704C17.8903 14.5003 15.9291 20.3835 15.9291 20.3835C15.9291 20.3835 15.2754 21.3639 10.6997 21.3639C6.12404 21.3639 4.81657 20.7101 4.16283 19.4027C3.5091 18.0952 1.875 5.67496 1.875 5.67496C1.875 5.67496 2.20164 2.73334 3.50911 2.4067C4.81657 2.08005 6.12404 1.75296 6.45068 1.75296C6.77732 1.75296 9.71888 -0.20827 11.0264 0.118829C12.3343 0.445927 15.6025 3.06044 17.5637 2.7338Z" fill="#596D74"/>
<defs>
<linearGradient id="paint0_linear_91_12313" x1="12.5185" y1="34.3898" x2="2.15231" y2="34.4273" gradientUnits="userSpaceOnUse">
<stop stop-color="#BFAB8D"/>
<stop offset="0.5078" stop-color="#E7E1D2"/>
<stop offset="1" stop-color="#CCBFA6"/>
</linearGradient>
</defs>
</svg>
