<svg width="19" height="53" viewBox="0 0 19 53" fill="none" xmlns="http://www.w3.org/2000/svg">
<path d="M15.255 21.376C15.255 21.376 9.04521 46.8699 3.81536 51.1185C-1.41403 55.3676 1.20043 46.8695 1.20043 46.8695C1.20043 46.8695 3.16163 31.1811 3.16163 28.2396C3.16163 25.298 2.12183 19.7891 2.12183 19.7891C2.12183 19.7891 12.1941 21.9581 15.255 21.376Z" fill="url(#paint0_linear_91_12303)"/>
<path d="M15.579 2.09074C15.579 2.09074 18.8472 3.72484 17.8668 8.3005C16.8865 12.8762 17.2131 15.4911 17.2131 15.4911C17.2131 15.4911 16.5594 23.3354 11.0033 23.662C5.44679 23.9887 1.85192 20.7205 1.52483 18.7593C1.19819 16.7981 1.19818 11.2421 0.871088 10.2612C0.544447 9.28088 -0.436383 3.07066 2.83229 2.09029C6.10051 1.10992 8.06172 0.782823 8.06172 0.782823C8.06172 0.782823 11.33 -0.197089 15.579 2.09074Z" fill="#596D74"/>
<defs>
<linearGradient id="paint0_linear_91_12303" x1="1.99598" y1="36.0493" x2="13.5524" y2="36.0911" gradientUnits="userSpaceOnUse">
<stop stop-color="#BFAB8D"/>
<stop offset="0.5078" stop-color="#E7E1D2"/>
<stop offset="1" stop-color="#CCBFA6"/>
</linearGradient>
</defs>
</svg>
