<svg width="19" height="67" viewBox="0 0 19 67" fill="none" xmlns="http://www.w3.org/2000/svg">
<path d="M16.2837 27.4809C14.3787 27.4709 12.4443 27.2953 10.5425 27.1429C8.23919 26.9582 5.00494 27.0712 2.90172 25.9706C2.70936 25.8699 2.64587 25.5274 2.46894 25.4062C2.06653 26.7554 2.41085 28.9176 2.49025 30.299C2.71754 34.2481 2.8922 38.2045 2.85409 42.1609C2.83277 44.3449 2.71119 46.5134 2.51475 48.6878C2.24345 51.6906 1.22949 54.6222 0.956379 57.6558C0.76493 59.783 0.797147 61.9457 1.21226 64.0461C1.34291 64.7066 1.53301 66.4192 2.106 66.5771C2.86182 66.7849 4.00188 65.6226 4.3816 65.1104C5.63737 63.4173 5.95947 61.1245 6.60187 59.1629C7.32049 56.9671 8.16252 54.8141 9.02268 52.6705C10.6999 48.4891 12.4638 44.3186 13.544 39.9321C14.175 37.3693 14.4558 34.744 15.0483 32.1717C15.4104 30.5952 15.8382 29.0351 16.2837 27.4809Z" fill="url(#paint0_linear_91_12296)"/>
<path d="M13.8997 0.887042C12.9533 1.14563 12.0024 1.38788 11.0497 1.62061C9.48092 2.00351 7.78737 2.55245 6.16142 2.51026C5.83568 2.50164 5.50904 2.46534 5.18512 2.49801C2.76206 2.74026 2.36875 5.3207 2.0049 7.21112C1.53808 9.63505 1.20915 12.0917 1.01498 14.5523C0.854835 16.5843 0.776817 18.6394 0.948304 20.6736C1.07261 22.1471 1.27856 23.8302 2.14371 25.0787C3.35274 26.8231 5.56849 27.6156 7.55012 28.0715C10.0653 28.6504 12.7083 28.7865 15.2807 28.6781C16.6793 28.6187 17.069 25.5015 17.1471 24.5125C17.5622 19.2487 18.0036 13.9884 18.4786 8.72954C18.4786 8.72954 19.4571 3.4997 17.1684 1.86651C14.8796 0.233316 13.8997 0.887042 13.8997 0.887042Z" fill="#596D74"/>
<defs>
<linearGradient id="paint0_linear_91_12296" x1="11.6554" y1="45.9663" x2="2.5736" y2="46.0029" gradientUnits="userSpaceOnUse">
<stop stop-color="#BFAB8D"/>
<stop offset="0.5078" stop-color="#E7E1D2"/>
<stop offset="1" stop-color="#CCBFA6"/>
</linearGradient>
</defs>
</svg>
