<svg width="17" height="64" viewBox="0 0 17 64" fill="none" xmlns="http://www.w3.org/2000/svg">
<path d="M14.1032 22.7344C14.1032 22.7344 5.93249 26.6563 3.64472 23.3881C3.73454 26.5996 3.78991 29.813 3.8321 33.0254C3.91194 39.134 3.94415 45.2486 3.76587 51.3558C3.70326 53.5008 3.65336 55.6485 3.44831 57.7857C3.34397 58.8745 3.20016 59.9601 2.99466 61.0344C2.9003 61.5289 2.61584 62.1114 2.84494 62.5628C3.14979 63.163 3.93733 63.2991 4.48761 63.0283C5.262 62.6472 5.77101 61.7099 6.15525 60.9863C7.08206 59.2406 7.67997 57.3112 8.22072 55.4185C11.4884 43.9792 13.5997 26.2503 14.1032 22.7344Z" fill="url(#paint0_linear_91_12289)"/>
<path d="M15.3614 0.297332C14.5888 -0.0991722 13.3852 0.145808 12.5387 0.138549C10.968 0.125393 9.39744 0.129932 7.82727 0.175299C6.07292 0.226109 3.6335 0.0255924 2.01117 0.836748C0.453252 1.61569 0.287653 3.56146 0.334835 5.08986C0.521748 11.1277 0.910552 17.4818 3.34587 23.095C4.05905 24.7386 5.05441 26.3972 6.61232 27.3644C9.02632 28.8634 11.7897 27.9946 13.1656 25.5947C14.2672 23.6739 14.6909 21.4595 14.9218 19.2874C15.0965 17.6428 14.9871 15.986 15.1037 14.3383C15.2267 12.6021 15.7389 10.9168 16.0188 9.20055C16.4611 6.48672 16.9965 3.65492 15.9852 1.00142C15.8555 0.659359 15.6354 0.437969 15.3614 0.297332Z" fill="#596D74"/>
<defs>
<linearGradient id="paint0_linear_91_12289" x1="1.46455" y1="42.9209" x2="10.6973" y2="42.9542" gradientUnits="userSpaceOnUse">
<stop stop-color="#BFAB8D"/>
<stop offset="0.5078" stop-color="#E7E1D2"/>
<stop offset="1" stop-color="#CCBFA6"/>
</linearGradient>
</defs>
</svg>
