<svg width="16" height="65" viewBox="0 0 16 65" fill="none" xmlns="http://www.w3.org/2000/svg">
<path d="M3.06169 24.4766C3.06124 32.0106 1.52646 39.4906 1.17622 47.0192C1.03332 50.0878 0.796959 53.1555 0.841419 56.2295C0.876352 58.6662 0.689888 62.7296 2.20924 64.8047C2.85255 65.6812 4.75616 61.7792 4.93808 61.4045C6.07725 59.0586 6.78498 56.5648 7.6651 54.1168C8.63551 51.417 9.62497 48.7005 10.4203 45.9422C11.4814 42.2621 12.0862 38.429 12.7621 34.6641C12.8678 34.0743 13.7915 26.4926 14.1744 26.4382C14.1712 26.4382 5.02247 27.7443 3.06169 24.4766Z" fill="url(#paint0_linear_91_12281)"/>
<path d="M15.671 0.437891C15.5222 0.302245 15.2595 0.273664 14.7732 0.232834C14.0292 0.170681 13.2561 0.225126 12.5103 0.226487C9.47029 0.232385 6.43026 0.292267 3.39024 0.292267C3.39024 0.292267 0.448681 0.946007 0.775321 2.58011C1.10196 4.21422 2.08277 24.4786 3.06315 25.786C4.04352 27.0935 6.33136 31.3425 11.2341 30.035C16.1365 28.7276 15.1561 17.2889 15.1561 17.2884C15.0268 15.2165 15.5476 12.9214 15.6887 10.8504C15.8983 7.77548 16.0775 4.67378 15.9015 1.59248C15.8629 0.916518 15.8488 0.600304 15.671 0.437891Z" fill="#596D74"/>
<defs>
<linearGradient id="paint0_linear_91_12281" x1="13.0936" y1="44.6672" x2="-3.21183" y2="44.7261" gradientUnits="userSpaceOnUse">
<stop stop-color="#BFAB8D"/>
<stop offset="0.5078" stop-color="#E7E1D2"/>
<stop offset="1" stop-color="#CCBFA6"/>
</linearGradient>
</defs>
</svg>
