<svg width="16" height="65" viewBox="0 0 16 65" fill="none" xmlns="http://www.w3.org/2000/svg">
<path d="M13.6748 24.3867C13.6753 31.9208 15.21 39.4009 15.5602 46.9296C15.7031 49.9982 15.9395 53.066 15.895 56.14C15.8601 58.5767 16.0466 62.6402 14.5273 64.7153C13.884 65.5918 11.9804 61.6898 11.7985 61.315C10.6594 58.9691 9.95167 56.4753 9.07158 54.0273C8.1012 51.3275 7.11178 48.6109 6.31652 45.8526C5.25541 42.1724 4.65068 38.3394 3.97473 34.5743C3.86903 33.9846 2.94539 26.4028 2.5625 26.3484C2.56613 26.3484 11.7141 27.6545 13.6748 24.3867Z" fill="url(#paint0_linear_91_12277)"/>
<path d="M1.06756 0.348048C1.21637 0.212402 1.47905 0.18382 1.9654 0.14299C2.70943 0.0808376 3.4825 0.135282 4.22835 0.136643C7.26847 0.142541 10.3086 0.202423 13.3487 0.202423C13.3487 0.202423 16.2904 0.856163 15.9637 2.49027C15.6371 4.12437 14.6562 24.3887 13.6758 25.6962C12.6954 27.0036 10.4075 31.2527 5.50455 29.9452C0.602076 28.6377 1.58249 17.199 1.58249 17.1986C1.71179 15.1267 1.19096 12.8316 1.04986 10.7606C0.840261 7.68564 0.66106 4.58393 0.837088 1.50264C0.875197 0.826674 0.889265 0.51046 1.06756 0.348048Z" fill="#596D74"/>
<defs>
<linearGradient id="paint0_linear_91_12277" x1="3.64357" y1="44.5776" x2="19.9485" y2="44.6365" gradientUnits="userSpaceOnUse">
<stop stop-color="#BFAB8D"/>
<stop offset="0.5078" stop-color="#E7E1D2"/>
<stop offset="1" stop-color="#CCBFA6"/>
</linearGradient>
</defs>
</svg>
