<svg width="17" height="64" viewBox="0 0 17 64" fill="none" xmlns="http://www.w3.org/2000/svg">
<path d="M2.92188 22.7266C2.92188 22.7266 11.0926 26.6485 13.3804 23.3803C13.2906 26.5918 13.2352 29.8051 13.193 33.0175C13.1132 39.126 13.081 45.2405 13.2592 51.3477C13.3219 53.4926 13.3718 55.6402 13.5768 57.7774C13.6811 58.8662 13.825 59.9518 14.0305 61.0261C14.1248 61.5206 14.4093 62.1031 14.1802 62.5545C13.8753 63.1547 13.0878 63.2908 12.5375 63.02C11.7631 62.6389 11.2541 61.7016 10.8699 60.978C9.94305 59.2323 9.34514 57.3029 8.80439 55.4102C5.53627 43.9707 3.42543 26.2424 2.92188 22.7266Z" fill="url(#paint0_linear_91_12285)"/>
<path d="M1.66196 0.289519C2.43459 -0.106984 3.63823 0.137995 4.48481 0.130736C6.05548 0.11758 7.62612 0.122119 9.19634 0.167486C10.9507 0.218296 13.3902 0.0177801 15.0126 0.828933C16.5706 1.60787 16.7362 3.55364 16.689 5.08204C16.5021 11.1194 16.1133 17.4739 13.6779 23.0871C12.9647 24.7307 11.9693 26.3893 10.4113 27.3565C7.99725 28.8554 5.23383 27.9867 3.8578 25.5868C2.75625 23.666 2.33251 21.4516 2.10158 19.2795C1.92691 17.6349 2.03626 15.9782 1.91966 14.3304C1.79671 12.5938 1.2845 10.9089 1.00458 9.19269C0.562232 6.47887 0.0268699 3.64709 1.03814 0.993607C1.16789 0.651998 1.38793 0.430155 1.66196 0.289519Z" fill="#596D74"/>
<defs>
<linearGradient id="paint0_linear_91_12285" x1="15.5604" y1="42.9125" x2="6.32762" y2="42.9458" gradientUnits="userSpaceOnUse">
<stop stop-color="#BFAB8D"/>
<stop offset="0.5078" stop-color="#E7E1D2"/>
<stop offset="1" stop-color="#CCBFA6"/>
</linearGradient>
</defs>
</svg>
