<svg width="19" height="53" viewBox="0 0 19 53" fill="none" xmlns="http://www.w3.org/2000/svg">
<path d="M3.40625 21.2862C3.40625 21.2862 9.61616 46.7802 14.8461 51.0288C20.0761 55.2774 17.4611 46.7797 17.4611 46.7797C17.4611 46.7797 15.4999 31.0913 15.4999 28.1497C15.4999 25.2081 16.5397 19.6992 16.5397 19.6992C16.5397 19.6992 6.46765 21.8682 3.40625 21.2862Z" fill="url(#paint0_linear_91_12299)"/>
<path d="M3.08082 2.00093C3.08082 2.00093 -0.187585 3.63506 0.792843 8.21081C1.77327 12.7866 1.44662 15.4015 1.44662 15.4015C1.44662 15.4015 2.10039 23.246 7.65675 23.5727C13.2136 23.8993 16.8086 20.631 17.1357 18.6698C17.4624 16.7086 17.4624 11.1524 17.7895 10.1716C18.1162 9.19121 19.097 2.98086 15.8282 2.00047C12.5598 1.02009 10.5985 0.692983 10.5985 0.692983C10.5985 0.692983 7.32965 -0.286949 3.08082 2.00093Z" fill="#596D74"/>
<defs>
<linearGradient id="paint0_linear_91_12299" x1="16.6658" y1="35.9595" x2="5.10914" y2="36.0013" gradientUnits="userSpaceOnUse">
<stop stop-color="#BFAB8D"/>
<stop offset="0.5078" stop-color="#E7E1D2"/>
<stop offset="1" stop-color="#CCBFA6"/>
</linearGradient>
</defs>
</svg>
