<svg width="19" height="51" viewBox="0 0 19 51" fill="none" xmlns="http://www.w3.org/2000/svg">
<path d="M3.74219 20.4653C4.54518 25.7215 5.96109 30.9736 7.80435 35.9535C9.83044 41.4265 12.3619 46.8999 17.2833 50.3297C17.4026 50.4127 17.5306 50.4989 17.6757 50.5061C17.8236 50.5134 17.9629 50.4367 18.0813 50.3478C18.7591 49.8411 19.0086 48.9156 18.9387 48.0722C18.8689 47.2284 18.5323 46.434 18.2383 45.6401C16.4445 40.7977 16.0067 35.4685 15.4954 30.367C15.1715 27.1374 14.4034 23.1787 15.1647 19.959C15.9822 16.5034 4.24894 19.8515 3.74219 20.4653Z" fill="url(#paint0_linear_91_12307)"/>
<path d="M13.8804 0.483483C13.1536 0.155954 12.3956 0.148235 11.383 0.39683C11.109 0.463969 10.8169 0.568309 10.6681 0.807831C9.97132 1.92742 15.6904 4.07723 16.374 3.13774C16.7787 2.57885 15.2531 1.46335 14.9337 1.18617C14.5731 0.872706 14.2301 0.64135 13.8804 0.483483Z" fill="#495A5E"/>
<path d="M3.94547 0.670178C3.60793 0.7718 3.35114 0.88068 3.24317 0.975496C2.69694 1.45548 2.12938 1.96632 1.88485 2.6509C1.78685 2.92537 1.77641 3.29329 2.02594 3.44391C2.11032 3.49472 2.21105 3.51014 2.30904 3.51831C3.45368 3.61222 4.77797 2.8682 5.74613 2.33695C6.10454 2.14052 7.64569 1.43143 7.57537 0.873875C7.4683 0.0286911 5.17222 0.301346 3.94547 0.670178Z" fill="#495A5E"/>
<path d="M1.93088 2.77673C1.93088 2.77673 -0.357059 4.41085 0.950456 8.65991C1.60421 14.5431 3.56549 20.4262 3.56549 20.4262C3.56549 20.4262 4.21925 21.4066 8.7951 21.4066C13.3709 21.4066 14.6785 20.7529 15.3322 19.4454C15.986 18.1379 17.6201 5.71787 17.6201 5.71787C17.6201 5.71787 17.2935 2.77628 15.986 2.44964C14.6785 2.123 13.371 1.79591 13.0443 1.79591C12.7177 1.79591 9.77598 -0.165298 8.46846 0.161797C7.16049 0.488891 3.8917 3.10338 1.93088 2.77673Z" fill="#596D74"/>
<defs>
<linearGradient id="paint0_linear_91_12307" x1="6.97053" y1="34.4327" x2="17.337" y2="34.4701" gradientUnits="userSpaceOnUse">
<stop stop-color="#BFAB8D"/>
<stop offset="0.5078" stop-color="#E7E1D2"/>
<stop offset="1" stop-color="#CCBFA6"/>
</linearGradient>
</defs>
</svg>
