<svg width="26" height="50" viewBox="0 0 26 50" fill="none" xmlns="http://www.w3.org/2000/svg">
<path d="M11.4371 1.87634C11.4371 1.87634 10.5311 -0.177861 8.69694 0.336599C6.86274 0.851058 6.22895 5.64496 6.56104 9.17904C6.89313 12.7131 8.46465 23.926 11.1672 24.1569C13.8697 24.3878 18.812 18.0369 16.5636 14.4987C14.3152 10.961 10.5946 4.75033 11.4371 1.87634Z" fill="url(#paint0_linear_91_12254)"/>
<path d="M23.2605 32.3269C20.0617 32.0964 16.432 30.5326 13.2273 30.4061C11.2171 30.3267 9.20599 30.1938 7.19353 30.2582C6.26306 30.2877 4.87893 32.7683 3.97704 32.6535C3.39181 32.5791 3.77788 30.1756 3.80192 29.5536C3.82234 29.0242 3.86725 28.497 3.78967 27.9694C3.51112 26.0677 2.46497 24.2621 2.0299 22.3603C1.52633 20.1605 1.18609 17.918 0.976946 15.6715C0.755103 13.2883 0.661655 10.854 0.973324 8.47405C1.10761 7.44786 1.29089 6.40578 1.69828 5.44809C2.01539 4.70272 2.78435 3.23965 3.76699 3.3517C4.12765 3.39299 4.45066 3.59804 4.7206 3.84166C5.24957 4.31937 5.61795 4.95542 5.86157 5.62548C6.36378 7.0078 6.35289 8.49628 6.44952 9.94438C6.54933 11.4374 6.95625 12.8202 7.29106 14.2692C7.91258 16.9617 8.64661 20.1305 10.4105 22.3376C10.8396 22.8748 11.4847 23.3094 12.1693 23.2445C12.5205 23.2109 12.8485 23.0494 13.1352 22.8439C14.1682 22.1031 14.6935 20.8246 14.8727 19.5662C15.2397 16.9875 14.9635 14.1431 14.2743 11.6434C13.8701 10.1762 13.1234 8.86239 12.667 7.42789C12.1848 5.91129 11.5306 2.90258 13.6687 2.32506C14.5316 2.09188 15.4502 2.53284 16.0954 3.15164C18.4871 5.44492 20.1026 8.85421 21.4858 11.8103C22.3342 13.6227 23.153 15.4963 23.6752 17.4335C23.9891 18.5981 23.9556 19.7585 23.9224 20.9612C23.8294 24.3233 23.6339 28.9938 23.2605 32.3269Z" fill="url(#paint1_linear_91_12254)"/>
<path d="M4.31782 34.4943C4.04562 34.5773 3.65548 35.3168 3.50441 35.5296C2.90603 36.3739 2.38795 37.2826 2.00007 38.2434C0.954835 40.8325 1.10636 43.672 3.06708 45.7929C3.09022 45.8179 3.11381 45.8428 3.13695 45.8678C3.24265 45.9789 3.35289 46.0873 3.43908 46.2139C3.68089 46.5691 3.7385 47.0142 3.9676 47.3785C4.18399 47.7228 4.50201 48.0449 4.81005 48.3049C5.53545 48.9173 6.50175 49.3429 7.46669 49.2476C7.79832 49.2149 8.11452 49.097 8.42618 48.9799C9.77946 48.4718 11.2489 47.8925 11.9666 46.5487C11.8849 46.7021 12.2574 47.3259 12.3513 47.4529C12.5763 47.7586 12.8521 47.8916 13.2001 48.0259C14.3492 48.47 15.5999 48.8266 16.7014 49.3773C17.4627 49.6704 18.105 49.949 18.8794 49.6949C19.3304 49.547 19.7872 49.4173 20.2332 49.2539C21.0679 48.9486 22.4566 48.4142 22.4566 47.3313C22.4566 45.6568 23.852 40.6338 20.5031 35.6108C17.156 30.5896 4.32871 34.4911 4.31782 34.4943Z" fill="#495A5E"/>
<path d="M4.30116 30.3672C3.98223 30.4643 3.52494 31.3308 3.34846 31.5799C2.64755 32.5689 2.04099 33.6332 1.58642 34.7583C0.361978 37.791 0.539816 41.1169 2.83582 43.6002C2.86304 43.6293 2.89071 43.6587 2.91793 43.6878C3.04178 43.818 3.17063 43.945 3.2718 44.0934C3.55534 44.5098 3.62247 45.0302 3.89059 45.4575C4.14374 45.8604 4.5162 46.2378 4.87731 46.5427C5.72703 47.2599 6.85893 47.7581 7.98856 47.6469C8.37689 47.6088 8.74709 47.4704 9.11229 47.3334C10.6974 46.7387 12.4186 46.0595 13.2592 44.4858C13.1635 44.665 13.5999 45.3958 13.7097 45.5451C13.9733 45.903 14.2968 46.0586 14.7037 46.2161C16.0497 46.7364 17.5146 47.1538 18.8048 47.7989C19.6963 48.1423 20.4485 48.4685 21.3558 48.1709C21.8839 47.9976 22.4192 47.8456 22.9414 47.6546C23.919 47.2971 25.5459 46.6711 25.5459 45.4026C25.5459 43.4414 27.18 37.5583 23.258 31.6752C19.3374 25.7938 4.31341 30.3631 4.30116 30.3672Z" fill="#596D74"/>
<defs>
<linearGradient id="paint0_linear_91_12254" x1="14.9488" y1="23.1341" x2="-3.61303" y2="-22.2316" gradientUnits="userSpaceOnUse">
<stop offset="0.1599" stop-color="#BFAB8D"/>
<stop offset="0.5078" stop-color="#E7E1D2"/>
<stop offset="0.7297" stop-color="#CCBFA6"/>
</linearGradient>
<linearGradient id="paint1_linear_91_12254" x1="2.07324" y1="17.1415" x2="22.9837" y2="18.0869" gradientUnits="userSpaceOnUse">
<stop offset="0.1599" stop-color="#BFAB8D"/>
<stop offset="0.5078" stop-color="#E7E1D2"/>
<stop offset="0.7297" stop-color="#CCBFA6"/>
</linearGradient>
</defs>
</svg>
