<svg width="29" height="51" viewBox="0 0 29 51" fill="none" xmlns="http://www.w3.org/2000/svg">
<path d="M9.03956 1.00881C7.72664 1.0982 6.71316 1.48342 5.63524 2.22394C5.34353 2.4245 5.06725 2.66635 5.12486 2.95312C5.39343 4.29258 15.2689 3.2163 15.1741 2.04154C15.1151 1.34368 11.9036 1.15672 11.1845 1.07913C10.3734 0.991106 9.67152 0.965705 9.03956 1.00881Z" fill="#495A5E"/>
<path d="M19.2032 46.3782C19.8787 48.5422 18.2836 49.425 16.802 48.1429C13.9375 45.6641 12.2799 41.6878 10.8218 38.0453C10.1467 36.3586 7.2483 30.4274 8.77352 28.9938C10.2869 27.5716 16.2195 30.2799 16.5234 34.0862C16.6881 36.1508 16.7575 38.2213 17.1127 40.2868C17.4988 42.5316 18.5409 44.2578 19.2032 46.3782Z" fill="url(#paint0_linear_91_12319)"/>
<path d="M2.42768 21.1063C2.6155 21.8807 2.782 22.6687 2.81875 22.8212C3.13404 24.1291 3.4076 25.4475 3.62717 26.7749C3.80637 27.8596 3.94973 28.9502 4.05634 30.0449C4.15978 31.1055 4.0695 32.2733 4.27183 33.3131C4.47099 34.3379 4.83619 35.4131 5.18143 36.403C6.21806 39.3758 7.7882 42.1423 9.65278 44.671C10.5882 45.9395 11.5999 47.1512 12.6678 48.3103C13.3239 49.0226 14.7184 51.1312 15.8775 50.2552C16.3126 49.9263 16.4873 49.3397 16.4592 48.7948C16.431 48.25 16.2314 47.731 16.0422 47.2192C14.5851 43.271 13.1996 38.3823 14.0189 34.1465C14.1042 33.705 14.2375 33.2491 14.5542 32.9302C14.9693 32.5124 15.6339 32.4184 16.2019 32.575C16.7699 32.7315 17.2544 33.103 17.6773 33.5131C19.1285 34.9218 20.1597 36.902 21.0467 38.7031C21.7181 40.0668 22.2112 41.5199 22.4948 43.0138C22.766 44.4437 22.5356 46.1431 23.1099 47.4851C23.4316 48.2368 24.1488 48.8819 24.9663 48.8583C25.6028 48.8402 26.1663 48.4305 26.5859 47.9514C28.132 46.1862 28.4283 43.3735 28.5186 41.1229C28.632 38.2866 28.2282 35.4603 27.7886 32.6662C27.1902 28.8622 26.4212 25.0841 25.5624 21.3309C25.5293 21.1853 25.0625 18.8176 24.9677 18.8203C24.9677 18.8203 2.09286 19.455 1.88281 19.4609C1.99941 19.4586 2.2258 20.2748 2.42768 21.1063Z" fill="url(#paint1_linear_91_12319)"/>
<path d="M20.3252 0.834693C19.1393 0.767091 18.174 1.02616 17.0947 1.62822C16.8025 1.7911 16.5176 1.99708 16.5235 2.28609C16.5503 3.63813 25.5341 3.74929 25.6362 2.58009C25.6943 1.88502 22.858 1.31971 22.2288 1.15774C21.5183 0.975801 20.8964 0.86736 20.3252 0.834693Z" fill="#495A5E"/>
<path d="M4.38291 1.88455C3.42979 1.97982 2.532 2.34683 1.75852 3.15343C0.761848 4.19276 0.262832 5.63447 0.139438 7.06893C-0.125042 10.1465 0.401649 13.8066 1.17059 16.7881C1.41466 17.7344 1.43914 19.7232 2.08877 20.4536C4.11025 22.726 8.55198 21.6204 11.2399 21.434C14.3184 21.2203 17.6327 21.1182 20.391 20.4536C22.2169 20.362 25.5699 20.7662 26.1242 18.3514C26.7594 15.5836 27.1504 12.7533 27.2811 9.91654C27.379 7.79705 27.6884 2.56004 24.6417 2.1513C24.1958 2.09142 23.4431 2.59407 22.9963 2.69569C22.064 2.90709 21.1545 2.87852 20.229 2.63263C19.0908 2.3305 18.0338 1.7861 16.9427 1.34288C16.7055 1.2467 16.4587 1.1537 16.2028 1.16051C15.6199 1.17639 15.1917 1.68131 14.7253 2.03154C12.7623 3.50683 9.2438 2.74151 7.0767 2.17489C6.16713 1.93717 5.25211 1.79791 4.38291 1.88455Z" fill="#596D74"/>
<defs>
<linearGradient id="paint0_linear_91_12319" x1="11.4398" y1="28.0852" x2="19.2013" y2="72.3769" gradientUnits="userSpaceOnUse">
<stop offset="0.1599" stop-color="#BFAB8D"/>
<stop offset="0.5078" stop-color="#E7E1D2"/>
<stop offset="0.7297" stop-color="#CCBFA6"/>
</linearGradient>
<linearGradient id="paint1_linear_91_12319" x1="4.46942" y1="34.5866" x2="26.9965" y2="34.6679" gradientUnits="userSpaceOnUse">
<stop stop-color="#BFAB8D"/>
<stop offset="0.5078" stop-color="#E7E1D2"/>
<stop offset="1" stop-color="#CCBFA6"/>
</linearGradient>
</defs>
</svg>
