<svg width="27" height="48" viewBox="0 0 27 48" fill="none" xmlns="http://www.w3.org/2000/svg">
<path d="M15.6045 42.1091C15.8064 44.0662 14.5365 44.5113 13.6355 43.1475C11.8928 40.5112 11.2204 36.8368 10.6483 33.4828C10.3834 31.9298 9.07307 26.3687 10.3652 25.4445C11.6474 24.5276 15.5773 27.937 15.2937 31.2117C15.1399 32.9883 14.9158 34.7518 14.8995 36.5651C14.8813 38.5359 15.4063 40.1918 15.6045 42.1091Z" fill="url(#paint0_linear_91_12333)"/>
<path d="M3.97656 19.8474C4.66203 21.8059 5.2146 23.8501 5.53352 25.9006C5.7481 27.2807 5.7163 28.5074 5.50671 29.8734C5.15377 32.169 5.12885 34.5648 5.22774 36.8803C5.38199 40.4919 7.1145 43.2121 8.4995 46.4608C9.0085 47.6544 10.1853 48.2809 11.2527 47.1826C12.606 45.7898 12.2412 42.8623 12.2952 41.0957C12.3687 38.6777 12.4177 36.2429 12.9013 33.8634C13.1095 32.839 13.4021 31.8178 13.937 30.9195C14.4687 30.0263 15.4513 29.5908 16.3926 30.2341C17.646 31.0906 17.9287 32.967 18.3615 34.3026C18.7675 35.5551 19.1354 36.8199 19.4906 38.0879C19.9923 39.879 20.4564 41.6805 20.9346 43.4775C21.1328 44.2215 21.7797 45.969 22.8735 45.2096C23.2428 44.9528 23.4251 44.5082 23.5789 44.0859C24.0838 42.6967 24.4872 41.2736 24.8896 39.8518C25.429 37.9469 25.9252 36.0474 26.0414 34.0635C26.1997 31.3587 25.134 28.6861 24.6133 26.068C24.0598 23.2857 23.7141 20.4621 23.5817 17.6285C23.5731 17.442 23.5585 17.2392 23.4324 17.1013C23.2623 16.9153 22.9706 16.9298 22.7206 16.9584C19.6489 17.3109 16.5709 17.5967 13.5024 17.9805C11.426 18.2387 9.34691 18.5118 7.28868 18.891C6.38182 19.058 4.67927 19.1446 3.97656 19.8474Z" fill="url(#paint1_linear_91_12333)"/>
<path d="M1.5759 15.6015C1.47337 14.3748 1.50152 13.1318 1.26788 11.92C0.903124 10.0287 -0.0518759 8.38099 0.083319 6.37715C0.409057 1.55286 7.15112 1.17994 10.541 2.51599C11.9505 3.07128 12.529 2.54684 13.7139 1.79829C14.9978 0.987131 16.5127 0.5625 18.0302 0.5625C19.7655 0.5625 21.6805 1.0561 23.1626 1.96797C25.3553 3.31717 25.3535 5.53061 25.5041 7.85383C25.6706 10.4234 25.6116 13.0705 24.7618 15.5276C24.5019 16.2798 24.1576 17.0188 23.6159 17.6018C22.846 18.4306 21.8651 18.5399 20.8248 18.7795C19.4048 19.1066 17.969 19.3833 16.5376 19.6542C13.7307 20.1854 10.8976 20.6177 8.04169 20.7611C6.68747 20.8291 5.28514 20.6917 4.08245 20.0652C2.34034 19.1587 1.73015 17.453 1.5759 15.6015Z" fill="#596D74"/>
<defs>
<linearGradient id="paint0_linear_91_12333" x1="12.4124" y1="25.1779" x2="10.3029" y2="63.9842" gradientUnits="userSpaceOnUse">
<stop offset="0.1599" stop-color="#BFAB8D"/>
<stop offset="0.5078" stop-color="#E7E1D2"/>
<stop offset="0.7297" stop-color="#CCBFA6"/>
</linearGradient>
<linearGradient id="paint1_linear_91_12333" x1="6.50316" y1="33.7387" x2="23.9968" y2="30.3347" gradientUnits="userSpaceOnUse">
<stop stop-color="#BFAB8D"/>
<stop offset="0.5078" stop-color="#E7E1D2"/>
<stop offset="1" stop-color="#CCBFA6"/>
</linearGradient>
</defs>
</svg>
