<svg width="26" height="40" viewBox="0 0 26 40" fill="none" xmlns="http://www.w3.org/2000/svg">
<path d="M16.2953 36.6219C16.5902 38.4751 15.4043 38.966 14.4742 37.7143C12.6767 35.2949 11.8433 31.8307 11.1228 28.6663C10.7893 27.201 9.24955 21.9734 10.4319 21.0252C11.6051 20.0848 15.5268 23.1257 15.4279 26.2596C15.3744 27.9595 15.2537 29.6508 15.3331 31.3788C15.4197 33.257 16.0063 34.8063 16.2953 36.6219Z" fill="url(#paint0_linear_91_12349)"/>
<path d="M3.82031 13.3117C3.82031 13.3117 5.12778 16.907 5.12778 20.8289C5.12778 24.7508 4.80112 29.6536 7.08893 33.2488C9.37674 36.8441 10.0305 38.4782 10.0305 38.4782C10.0305 38.4782 11.9916 40.766 12.972 38.1515C12.972 38.1515 10.6842 30.3073 11.9917 26.3854C13.2991 22.4635 14.6066 23.7705 14.9332 24.4242C15.2598 25.0779 19.8359 32.5951 20.4892 34.5563C21.1429 36.5174 22.1233 38.4782 22.777 38.4782C23.4307 38.4782 24.4111 36.8441 25.0648 33.9026C25.7185 30.961 25.0648 27.6928 23.7573 25.405C22.4499 23.1172 21.1425 12.9851 21.1425 11.351C21.1425 9.71693 5.4544 12.6585 3.82031 13.3117Z" fill="url(#paint1_linear_91_12349)"/>
<path d="M11.3732 3.04352C11.0629 2.97003 10.7417 2.76724 10.3688 2.5218C9.35625 1.85445 8.30466 1.21069 7.13647 0.886312C5.96783 0.561937 4.6531 0.590074 3.6133 1.21387C2.882 1.65257 2.34034 2.34759 1.89438 3.07437C1.19665 4.21172 0.681729 5.53327 0.841873 6.85799C1.02425 8.36872 1.62355 9.85631 2.23827 11.2364C2.61118 12.0734 2.92193 13.0284 3.59381 13.6835C4.37774 14.4475 5.69562 14.555 6.72862 14.6997C8.95066 15.0105 11.1818 14.7319 13.3512 14.217C15.508 13.7048 17.7368 13.1368 19.8336 12.4227C20.2106 12.2943 20.5872 12.146 20.9029 11.9037C21.788 11.2237 21.97 9.67801 22.1827 8.65816C22.5057 7.10796 22.3084 5.50515 21.6742 4.06021C20.8576 2.1997 19.296 0.55741 17.2228 0.238479C15.7389 0.0102824 14.4214 0.314686 13.4229 1.46474C13.0922 1.84583 12.8291 2.28861 12.4716 2.64656C12.0778 3.0408 11.7325 3.12881 11.3732 3.04352Z" fill="#596D74"/>
<defs>
<linearGradient id="paint0_linear_91_12349" x1="12.3637" y1="20.6594" x2="12.3879" y2="57.7288" gradientUnits="userSpaceOnUse">
<stop offset="0.1599" stop-color="#BFAB8D"/>
<stop offset="0.5078" stop-color="#E7E1D2"/>
<stop offset="0.7297" stop-color="#CCBFA6"/>
</linearGradient>
<linearGradient id="paint1_linear_91_12349" x1="5.71471" y1="25.0987" x2="22.4726" y2="25.1593" gradientUnits="userSpaceOnUse">
<stop stop-color="#BFAB8D"/>
<stop offset="0.5078" stop-color="#E7E1D2"/>
<stop offset="1" stop-color="#CCBFA6"/>
</linearGradient>
</defs>
</svg>
