<svg width="19" height="55" viewBox="0 0 19 55" fill="none" xmlns="http://www.w3.org/2000/svg">
<path d="M9.98825 53.8584C9.98825 53.8584 4.68933 54.954 2.81157 52.2016C0.933361 49.4488 9.35674 52.198 9.98825 53.8584Z" fill="#495A5E"/>
<path d="M10.7656 54.0935C10.7656 54.0935 16.4087 54.475 17.8128 50.8157C19.2169 47.1564 11.0986 51.9753 10.7656 54.0935Z" fill="#495A5E"/>
<path d="M13.018 33.5623C13.101 33.6031 13.18 33.6494 13.2544 33.7015C14.692 34.706 15.9038 36.3332 16.8179 37.8054C18.207 40.042 19.1988 42.6002 18.9315 45.2695C18.7492 47.0942 18.5446 49.1924 17.6327 50.831C17.1001 51.7883 15.9029 52.227 14.9279 52.5663C14.0927 52.8571 13.2498 53.1302 12.431 53.4655C11.6747 53.7749 10.9325 54.3025 10.0805 54.2344C9.10104 54.1559 8.41691 53.3883 7.63343 52.8902C6.40399 52.109 4.9323 51.7084 3.47603 51.7787C3.22016 51.791 2.95794 51.8168 2.71296 51.742C2.35502 51.6331 2.09325 51.3292 1.88229 51.0207C0.921427 49.617 0.94683 48.2569 0.938664 46.6246C0.930044 44.966 0.962254 43.2975 1.27846 41.6643C1.84146 38.754 3.7641 36.3464 4.77487 33.5995C4.83294 33.4411 4.89101 33.2792 4.99762 33.1485C5.17999 32.9249 5.47851 32.8282 5.76614 32.8051C6.3051 32.7615 6.84813 32.845 7.38209 32.9022C8.39468 33.0111 9.38322 33.124 10.4012 33.1939C11.2079 33.2497 12.2663 33.1907 13.018 33.5623Z" fill="#596D74"/>
<path d="M15.16 35.476C15.1237 35.5054 15.0802 35.5286 15.0271 35.5431C14.7604 35.6179 13.9383 35.2156 13.6475 35.1393C12.6835 34.8871 11.7086 34.6761 10.7277 34.5006C9.6884 34.3146 8.63863 34.1381 7.58023 34.1295C7.01996 34.1249 6.4565 34.164 5.90802 34.2828C5.42079 34.3885 4.8959 34.7224 4.43453 34.7642C4.09836 33.4535 4.43952 31.9292 4.51755 30.5981C4.6042 29.1183 4.7403 27.6416 4.92494 26.1708C5.27154 23.4107 5.96019 20.7536 6.4624 18.0284C6.95145 15.3777 7.08755 12.5754 7.02902 9.87608C7.00135 8.60672 6.92468 7.3351 6.77905 6.07392C6.6552 4.99737 6.3449 4.03378 6.45514 2.91822C6.5672 1.78405 7.09934 0.0664728 8.59689 0.531026C9.72424 0.880802 10.4261 2.12067 10.995 3.06339C12.0788 4.85854 12.8677 6.81429 13.5944 8.78093C14.3203 10.7448 14.9895 12.7428 15.3683 14.8061C15.699 16.6058 15.6586 18.3673 15.6273 20.1843C15.5783 23.0687 15.5094 25.9526 15.4381 28.8366C15.3923 30.6975 15.4985 32.6387 15.3519 34.526C15.3256 34.8789 15.3773 35.2981 15.16 35.476Z" fill="url(#paint0_linear_91_12242)"/>
<defs>
<linearGradient id="paint0_linear_91_12242" x1="1.52528" y1="19.0514" x2="15.8847" y2="17.5435" gradientUnits="userSpaceOnUse">
<stop stop-color="#BFAB8D"/>
<stop offset="0.5078" stop-color="#E7E1D2"/>
<stop offset="1" stop-color="#CCBFA6"/>
</linearGradient>
</defs>
</svg>
