<svg width="19" height="57" viewBox="0 0 19 57" fill="none" xmlns="http://www.w3.org/2000/svg">
<path d="M9.09271 55.9281C9.09271 55.9281 3.74681 56.7634 2.00567 53.9218C0.264987 51.0803 8.54333 54.2385 9.09271 55.9281Z" fill="#495A5E"/>
<path d="M3.72656 38.0089C3.72656 38.0089 4.05321 26.8963 5.03406 23.9547C6.01491 21.0131 6.99531 11.208 6.66821 8.59308C6.34156 5.97814 6.34156 2.05619 6.34156 2.05619C6.34156 2.05619 6.01491 -0.885398 8.95656 1.40245C11.8982 3.69029 15.4936 14.8029 15.1665 19.3786C14.8398 23.9543 14.7364 37.743 14.7881 37.7126C14.8394 37.6822 3.72656 38.0089 3.72656 38.0089Z" fill="url(#paint0_linear_91_12231)"/>
<path d="M14.515 36.7036C14.515 36.7036 22.0323 47.8162 16.4762 53.6994C15.7976 54.418 14.7301 54.9234 13.9031 55.4492C13.0493 55.9922 12.1383 56.7462 11.0976 56.8637C9.90396 56.9989 9.0302 55.75 7.85701 55.5063C5.99198 55.1189 4.16688 55.4256 2.57405 54.1535C1.25886 53.1033 0.461314 51.466 0.190474 49.8264C-0.147055 47.7808 0.202269 45.7021 0.609663 43.6938C0.783418 42.8377 1.07921 42.0233 1.42536 41.2213C1.79419 40.3666 2.45927 39.5323 2.74871 38.6639C2.74871 38.6644 5.36365 30.8205 14.515 36.7036Z" fill="#596D74"/>
<defs>
<linearGradient id="paint0_linear_91_12231" x1="4.62623" y1="19.3178" x2="17.5191" y2="18.9206" gradientUnits="userSpaceOnUse">
<stop stop-color="#BFAB8D"/>
<stop offset="0.5078" stop-color="#E7E1D2"/>
<stop offset="1" stop-color="#CCBFA6"/>
</linearGradient>
</defs>
</svg>
