<svg width="21" height="69" viewBox="0 0 21 69" fill="none" xmlns="http://www.w3.org/2000/svg">
<path d="M14.4218 41.7263C14.4223 41.7272 21.6124 51.2052 20.305 59.0491C19.8831 61.5802 19.0193 64.2255 17.4936 66.3128C16.7496 67.3309 15.7828 68.2523 14.5638 68.656C12.9515 69.19 10.8823 68.7708 9.26587 68.4101C8.47014 68.2328 7.68848 67.9882 6.94718 67.6471C1.76449 65.2635 0.395317 59.1181 0.812238 53.91C1.10531 50.2516 2.21587 46.7026 3.65945 43.3499C4.59582 41.1751 6.77707 40.6052 8.95422 40.2972C10.5929 40.0654 13.3076 40.2577 14.4218 41.7263Z" fill="#596D74"/>
<path d="M16.7416 45.145C16.7416 45.145 4.6602 42.1168 3.65625 43.8434L8.53536 9.2907C8.53536 9.2907 8.38384 0.410156 9.69128 0.410156C10.9987 0.410156 12.3062 4.33211 12.3062 4.33211C12.3062 4.33211 16.4503 36.8751 16.7416 45.145Z" fill="url(#paint0_linear_91_12113)"/>
<defs>
<linearGradient id="paint0_linear_91_12113" x1="5.3169" y1="23.021" x2="14.9214" y2="22.7252" gradientUnits="userSpaceOnUse">
<stop stop-color="#BFAB8D"/>
<stop offset="0.5078" stop-color="#E7E1D2"/>
<stop offset="1" stop-color="#CCBFA6"/>
</linearGradient>
</defs>
</svg>
