<svg width="19" height="62" viewBox="0 0 19 62" fill="none" xmlns="http://www.w3.org/2000/svg">
<path d="M13.0239 35.4191C13.0239 35.4191 16.2912 36.7289 17.2665 44.2466C17.2665 44.2466 18.2415 52.0915 18.5667 54.3798C18.892 56.6681 18.8902 59.6097 15.294 60.5874C11.6982 61.5655 8.43002 60.9095 6.46973 60.2544C4.50944 59.5993 1.56878 57.6363 0.916857 55.3479C0.264938 53.0596 0.925935 41.9474 1.90812 39.9871C2.89031 38.0268 5.18178 32.7992 13.0239 35.4191Z" fill="#596D74"/>
<path d="M9.77757 4.36806C9.77757 4.36806 16.9411 20.0581 13.9963 36.5635C13.9963 36.5635 3.59486 35.3236 3.07812 38.1463C4.54169 31.2805 5.24761 24.0536 4.96543 17.0435C4.8511 14.1995 4.65238 11.3591 4.57435 8.51367C4.52399 6.66089 4.20325 4.54364 4.99945 2.81834C5.33427 2.09338 5.88639 1.02771 6.79239 0.943328C8.3308 0.800876 9.31709 3.30739 9.77757 4.36806Z" fill="url(#paint0_linear_91_12215)"/>
<defs>
<linearGradient id="paint0_linear_91_12215" x1="5.72055" y1="19.5552" x2="14.7015" y2="19.7219" gradientUnits="userSpaceOnUse">
<stop stop-color="#BFAB8D"/>
<stop offset="0.5078" stop-color="#E7E1D2"/>
<stop offset="1" stop-color="#CCBFA6"/>
</linearGradient>
</defs>
</svg>
