<svg width="27" height="75" viewBox="0 0 27 75" fill="none" xmlns="http://www.w3.org/2000/svg">
<path d="M13.6967 1.48919C15.2496 3.01487 16.0236 6.2681 16.8052 8.25424C19.1952 14.3261 21.0116 20.632 22.0641 27.0754C22.5881 30.2824 22.9229 33.5211 23.0504 36.7684C23.1148 38.4016 23.1271 40.0366 23.0858 41.6708C23.0522 43.0082 23.2727 44.953 22.717 46.1661C22.0328 45.3931 21.5456 44.4635 20.8216 43.72C19.0514 41.9017 16.7626 40.6015 14.1781 40.6001C13.087 40.5996 12.015 40.821 10.9956 41.1935C10.5818 41.3446 10.1772 41.5201 9.78293 41.7161C8.63288 42.2877 7.24875 44.013 6.02476 44.106C5.84601 41.7138 6.45076 39.0291 6.6785 36.6301C6.6785 30.5401 7.88162 24.1085 8.79303 18.0997C9.06705 16.2923 9.47943 14.5089 9.44133 12.6761C9.40186 10.7839 9.18953 8.89392 9.31792 7.00032C9.43315 5.30497 9.64546 1.21064 11.9805 0.950692C12.4396 0.899428 12.8915 1.06955 13.322 1.23695C13.4599 1.29139 13.5837 1.3785 13.6967 1.48919Z" fill="url(#paint0_linear_91_12203)"/>
<path d="M25.9804 70.1341C25.9804 70.1341 28.2682 43.3332 16.1754 39.4108C16.1754 39.4108 2.448 37.123 1.141 60.9823C1.1038 61.6628 0.998093 62.3397 0.969059 63.0229C0.906453 64.5136 0.960438 66.0203 1.21766 67.492C1.48805 69.0376 1.99344 70.635 3.04412 71.8358C3.55358 72.4179 4.18917 72.8797 4.91049 73.1628C5.53564 73.4083 6.22383 73.5004 6.87983 73.6351C7.68735 73.8011 8.49669 73.9572 9.31056 74.0879C9.7497 74.1582 10.1907 74.2217 10.6321 74.2748C12.2548 74.4703 13.8907 74.532 15.5244 74.5937C18.1779 74.694 20.928 74.826 23.4068 73.6909C24.873 73.0204 25.9804 71.8154 25.9804 70.1341Z" fill="#596D74"/>
<defs>
<linearGradient id="paint0_linear_91_12203" x1="19.3829" y1="23.5193" x2="5.90184" y2="23.7603" gradientUnits="userSpaceOnUse">
<stop stop-color="#BFAB8D"/>
<stop offset="0.5078" stop-color="#E7E1D2"/>
<stop offset="1" stop-color="#CCBFA6"/>
</linearGradient>
</defs>
</svg>
