<svg width="26" height="74" viewBox="0 0 26 74" fill="none" xmlns="http://www.w3.org/2000/svg">
<path d="M13.0538 0.547786C11.5009 2.07346 10.7269 5.32715 9.94525 7.31284C7.55529 13.3847 5.73878 19.6906 4.68626 26.134C4.16226 29.341 3.82746 32.5797 3.69998 35.827C3.63556 37.4602 3.62329 39.0952 3.66458 40.7293C3.69815 42.0667 3.47768 44.0116 4.03343 45.2247C4.71757 44.4517 5.20481 43.5221 5.92888 42.7785C7.69912 40.9603 9.98791 39.6601 12.5725 39.6587C13.6636 39.6582 14.7356 39.8796 15.755 40.2521C16.1688 40.4032 16.5734 40.5787 16.9677 40.7747C18.1178 41.3463 19.5019 43.0716 20.7255 43.1646C20.9042 40.7724 20.2995 38.0876 20.0717 35.6887C20.0717 29.5987 18.8686 23.1671 17.9572 17.1583C17.6831 15.3509 17.2707 13.5675 17.3089 11.7347C17.3483 9.84247 17.5607 7.9525 17.4323 6.0589C17.317 4.36355 17.1047 0.269236 14.7696 0.00928561C14.3105 -0.0419785 13.8587 0.128143 13.4281 0.295545C13.2902 0.349531 13.1663 0.437091 13.0538 0.547786Z" fill="url(#paint0_linear_91_12207)"/>
<path d="M0.773966 69.1925C0.773966 69.1925 -1.51391 42.3918 10.5792 38.4694C10.5792 38.4694 24.3069 36.1816 25.6139 60.0407C25.6511 60.7212 25.7568 61.3981 25.7859 62.0813C25.8485 63.5721 25.7945 65.0787 25.5373 66.5504C25.2669 68.096 24.7615 69.6934 23.7108 70.8942C23.2013 71.4763 22.5657 71.9381 21.8444 72.2212C21.2192 72.4666 20.531 72.5587 19.875 72.6934C19.0674 72.8595 18.2581 73.0155 17.4442 73.1462C17.005 73.2165 16.5641 73.28 16.1226 73.3331C14.4998 73.5286 12.8639 73.5903 11.2302 73.652C8.57669 73.7523 5.82652 73.8843 3.34765 72.7492C1.88093 72.0783 0.773966 70.8738 0.773966 69.1925Z" fill="#596D74"/>
<defs>
<linearGradient id="paint0_linear_91_12207" x1="7.36722" y1="22.5776" x2="20.8485" y2="22.8186" gradientUnits="userSpaceOnUse">
<stop stop-color="#BFAB8D"/>
<stop offset="0.5078" stop-color="#E7E1D2"/>
<stop offset="1" stop-color="#CCBFA6"/>
</linearGradient>
</defs>
</svg>
