<svg width="25" height="43" viewBox="0 0 25 43" fill="none" xmlns="http://www.w3.org/2000/svg">
<path d="M6.22939 2.96689C5.69588 1.23114 7.31273 0.414536 8.68959 1.3804C11.3512 3.24726 12.7403 6.41206 13.953 9.31465C14.5146 10.6589 17.0038 15.3548 15.4224 16.6192C13.8532 17.8736 8.19645 15.9963 8.12523 12.8928C8.08667 11.2087 8.14202 9.51472 7.91655 7.84113C7.67157 6.02236 6.75246 4.66725 6.22939 2.96689Z" fill="url(#paint0_linear_93_12833)"/>
<path d="M22.0191 26.8881C22.9813 20.5804 22.9659 12.9696 20.1623 7.13186C19.5108 5.77494 18.6239 4.5337 17.5673 3.46214C17.1527 3.04159 14.6825 0.516485 14.1635 1.13801C13.634 1.77178 14.1126 3.18813 14.2066 3.89267C14.3635 5.07175 14.5123 6.25174 14.6353 7.4349C14.8843 9.83526 15.5045 12.4361 14.8558 14.8247C14.7128 15.3505 14.3826 15.8704 13.8645 16.0387C13.5909 16.1276 13.2929 16.1095 13.0121 16.0487C11.2346 15.6635 9.94847 13.8715 8.85559 12.5568C7.29272 10.6773 6.39583 8.5659 5.61507 6.26808C5.23581 5.15206 4.8021 4.06779 3.84896 3.32423C3.6194 3.14503 1.3706 0.385831 1.01674 0.470666C-0.148271 0.749218 0.254128 3.89222 0.296319 4.60674C0.622957 10.1633 4.69686 20.0242 4.69686 20.0242C4.69686 20.0242 5.67722 26.2339 4.69686 28.1951C3.71649 30.1568 20.7121 30.1568 22.0191 26.8881Z" fill="url(#paint1_linear_93_12833)"/>
<path d="M23.0158 27.84C23.0153 27.8395 20.4009 24.8984 14.5178 24.8984C8.63467 24.8984 4.38566 26.8596 3.40529 29.4741C2.42493 32.089 2.09783 39.2791 5.69311 40.5865C6.83045 41.0002 8.08074 41.1028 9.10602 40.3697C9.98295 39.7427 10.3296 38.5904 11.6483 39.0177C12.2231 39.2037 12.6972 39.607 13.1845 39.9645C15.3267 41.536 18.9673 43.166 21.4071 41.311C24.7424 38.775 25.9201 31.1077 23.0158 27.84Z" fill="#CECECE"/>
<defs>
<linearGradient id="paint0_linear_93_12833" x1="12.7674" y1="17.5127" x2="5.55655" y2="-17.9072" gradientUnits="userSpaceOnUse">
<stop offset="0.1599" stop-color="#BFAB8D"/>
<stop offset="0.5078" stop-color="#E7E1D2"/>
<stop offset="0.7297" stop-color="#CCBFA6"/>
</linearGradient>
<linearGradient id="paint1_linear_93_12833" x1="27.9659" y1="14.9223" x2="0.87313" y2="15.0202" gradientUnits="userSpaceOnUse">
<stop offset="0.1599" stop-color="#BFAB8D"/>
<stop offset="0.5078" stop-color="#E7E1D2"/>
<stop offset="0.7297" stop-color="#CCBFA6"/>
</linearGradient>
</defs>
</svg>
