<svg width="19" height="61" viewBox="0 0 19 61" fill="none" xmlns="http://www.w3.org/2000/svg">
<path d="M6.64343 34.7718C6.64343 34.7718 3.3752 36.0793 2.39437 43.5965C2.39437 43.5965 1.41401 51.4409 1.08691 53.7287C0.760272 56.0165 0.760274 58.9581 4.35513 59.9385C7.95045 60.9188 11.2187 60.2651 13.1799 59.6118C15.1411 58.9586 18.0827 56.9969 18.7364 54.7091C19.3901 52.4212 18.7364 41.3087 17.756 39.3475C16.7756 37.3867 14.4878 32.1574 6.64343 34.7718Z" fill="#CECECE"/>
<path d="M9.91431 3.72526C9.91431 3.72526 2.73992 19.4103 5.67337 35.9173C5.67337 35.9173 16.0757 34.6842 16.5901 37.5079C15.1311 30.6407 14.4302 23.4139 14.7169 16.4038C14.8335 13.5598 15.034 10.7199 15.1139 7.87448C15.1656 6.02172 15.4877 3.90491 14.6924 2.17917C14.3585 1.45377 13.8064 0.387648 12.9004 0.302813C11.3634 0.159002 10.3752 2.66504 9.91431 3.72526Z" fill="url(#paint0_linear_93_12873)"/>
<defs>
<linearGradient id="paint0_linear_93_12873" x1="13.9607" y1="18.9151" x2="4.97969" y2="19.0757" gradientUnits="userSpaceOnUse">
<stop stop-color="#BFAB8D"/>
<stop offset="0.5078" stop-color="#E7E1D2"/>
<stop offset="1" stop-color="#CCBFA6"/>
</linearGradient>
</defs>
</svg>
