<svg width="20" height="70" viewBox="0 0 20 70" fill="none" xmlns="http://www.w3.org/2000/svg">
<path d="M3.91406 45.4685C3.91406 45.4685 15.9957 42.4403 16.9996 44.1674L12.1204 9.61488C12.1204 9.61488 8.7007 0.734375 7.39323 0.734375C6.08576 0.734375 4.77829 4.65632 4.77829 4.65632C4.77829 4.65632 4.20532 37.1991 3.91406 45.4685Z" fill="url(#paint0_linear_93_12881)"/>
<path d="M6.23751 41.9723C6.23705 41.9732 -0.953272 51.4511 0.354228 59.2949C0.776148 61.8259 1.63994 64.4712 3.16566 66.5585C3.90969 67.5765 4.87648 68.4979 6.09551 68.9016C7.70788 69.4356 9.77712 69.0164 11.3936 68.6558C12.1893 68.4784 12.971 68.2339 13.7123 67.8927C18.8951 65.5092 20.2643 59.3639 19.8474 54.1559C19.5543 50.4975 18.4437 46.9485 17.0001 43.596C16.0637 41.4211 13.8824 40.8513 11.7052 40.5433C10.0665 40.3115 7.35174 40.5038 6.23751 41.9723Z" fill="#CECECE"/>
<defs>
<linearGradient id="paint0_linear_93_12881" x1="15.2681" y1="23.3977" x2="5.37446" y2="23.0929" gradientUnits="userSpaceOnUse">
<stop stop-color="#BFAB8D"/>
<stop offset="0.5078" stop-color="#E7E1D2"/>
<stop offset="1" stop-color="#CCBFA6"/>
</linearGradient>
</defs>
</svg>
