<svg width="20" height="58" viewBox="0 0 20 58" fill="none" xmlns="http://www.w3.org/2000/svg">
<path d="M9.97656 56.2873C9.97656 56.2873 15.3221 57.1225 17.0632 54.2811C18.8037 51.4398 10.5259 54.5978 9.97656 56.2873Z" fill="#D8D6D0"/>
<path d="M15.3433 38.368C15.3433 38.368 15.0166 27.2555 14.0358 24.3139C13.055 21.3723 12.0746 11.5673 12.4017 8.95239C12.7283 6.33747 12.7283 2.41554 12.7283 2.41554C12.7283 2.41554 13.055 -0.526009 10.1134 1.76182C7.17182 4.04964 3.57652 15.1621 3.90361 19.7378C4.23025 24.3134 4.33368 38.1021 4.28197 38.0717C4.2307 38.0409 15.3433 38.368 15.3433 38.368Z" fill="url(#paint0_linear_93_12888)"/>
<path d="M4.55463 37.0629C4.55463 37.0629 -2.96263 48.1754 2.59343 54.0585C3.27212 54.7771 4.33958 55.2825 5.16662 55.8083C6.02042 56.3513 6.9314 57.1053 7.97211 57.2228C9.16571 57.358 10.0395 56.1091 11.2126 55.8655C13.0777 55.478 14.9028 55.7847 16.4956 54.5126C17.8108 53.4624 18.6083 51.8251 18.8792 50.1856C19.2167 48.14 18.8674 46.0613 18.46 44.053C18.2862 43.1969 17.9904 42.3826 17.6443 41.5805C17.2754 40.7258 16.6104 39.8915 16.3209 39.0232C16.3209 39.0241 13.706 31.1798 4.55463 37.0629Z" fill="#CECECE"/>
<defs>
<linearGradient id="paint0_linear_93_12888" x1="14.4436" y1="19.6768" x2="1.55103" y2="19.2796" gradientUnits="userSpaceOnUse">
<stop stop-color="#BFAB8D"/>
<stop offset="0.5078" stop-color="#E7E1D2"/>
<stop offset="1" stop-color="#CCBFA6"/>
</linearGradient>
</defs>
</svg>
