<svg width="19" height="55" viewBox="0 0 19 55" fill="none" xmlns="http://www.w3.org/2000/svg">
<path d="M9.54688 54.2801C9.54688 54.2801 14.8456 55.3757 16.7233 52.6233C18.601 49.8709 10.1784 52.6197 9.54688 54.2801Z" fill="#D8D6D0"/>
<path d="M8.77246 54.5154C8.77246 54.5154 3.12955 54.8969 1.72551 51.2376C0.32148 47.5783 8.43948 52.3972 8.77246 54.5154Z" fill="#D8D6D0"/>
<path d="M6.51952 33.988C6.4365 34.0289 6.35755 34.0752 6.28315 34.1273C4.84552 35.1318 3.63381 36.7591 2.7197 38.2312C1.33061 40.4678 0.338924 43.0261 0.606126 45.6955C0.788496 47.5201 0.993089 49.6184 1.90494 51.257C2.43753 52.2143 3.63473 52.653 4.60963 52.9923C5.44481 53.2831 6.2877 53.5562 7.10655 53.8915C7.86279 54.2009 8.60498 54.7285 9.45694 54.6605C10.4364 54.582 11.1205 53.8144 11.904 53.3162C13.1334 52.535 14.605 52.1344 16.0612 52.2047C16.3171 52.217 16.5793 52.2428 16.8247 52.168C17.1827 52.0591 17.4444 51.7552 17.6554 51.4467C18.6162 50.043 18.5908 48.6829 18.599 47.0506C18.6076 45.392 18.5754 43.7234 18.2592 42.0902C17.6962 39.1799 15.7736 36.7722 14.7629 34.0253C14.7048 33.8669 14.6467 33.705 14.5401 33.5743C14.3578 33.3506 14.0593 33.254 13.7716 33.2309C13.2327 33.1873 12.6897 33.2708 12.1557 33.328C11.1432 33.4368 10.1547 33.5498 9.13666 33.6197C8.3296 33.6755 7.27123 33.6165 6.51952 33.988Z" fill="#CECECE"/>
<path d="M4.37876 35.8977C4.41505 35.9272 4.45861 35.9503 4.51169 35.9648C4.77844 36.0397 5.60047 35.6373 5.89126 35.5611C6.8553 35.3088 7.83024 35.0979 8.81106 34.9223C9.8504 34.7363 10.9002 34.5598 11.9586 34.5512C12.5188 34.5467 13.0823 34.5857 13.6308 34.7046C14.118 34.8103 14.6429 35.1442 15.1043 35.1859C15.4404 33.8753 15.0993 32.351 15.0212 31.0199C14.9346 29.5401 14.7985 28.0634 14.6138 26.5926C14.2673 23.8325 13.5786 21.1754 13.0759 18.4503C12.5869 15.7995 12.4508 12.9972 12.5093 10.2979C12.537 9.02857 12.6137 7.75695 12.7593 6.49576C12.8831 5.41922 13.1934 4.45563 13.0832 3.34007C12.9711 2.20591 12.439 0.488349 10.9415 0.952901C9.8141 1.30268 9.11227 2.54253 8.54338 3.48524C7.45958 5.28039 6.67066 7.23614 5.9439 9.20277C5.21803 11.1667 4.54888 13.1646 4.17007 15.2279C3.83935 17.0276 3.87973 18.7891 3.91103 20.6061C3.96002 23.4905 4.02898 26.3744 4.1002 29.2583C4.14602 31.1188 4.03986 33.0605 4.18639 34.9477C4.21316 35.3007 4.16145 35.7199 4.37876 35.8977Z" fill="url(#paint0_linear_93_12898)"/>
<defs>
<linearGradient id="paint0_linear_93_12898" x1="18.0135" y1="19.4733" x2="3.65407" y2="17.9653" gradientUnits="userSpaceOnUse">
<stop stop-color="#BFAB8D"/>
<stop offset="0.5078" stop-color="#E7E1D2"/>
<stop offset="1" stop-color="#CCBFA6"/>
</linearGradient>
</defs>
</svg>
