<svg width="26" height="51" viewBox="0 0 26 51" fill="none" xmlns="http://www.w3.org/2000/svg">
<path d="M14.6582 2.27088C14.6582 2.27088 15.5642 0.21667 17.3979 0.73113C19.2321 1.24559 19.8659 6.03949 19.5338 9.57357C19.2022 13.1076 17.6302 24.3205 14.9277 24.5514C12.2252 24.7823 7.2829 18.4314 9.5313 14.8933C11.7797 11.3551 15.5011 5.14486 14.6582 2.27088Z" fill="url(#paint0_linear_93_12910)"/>
<path d="M2.83871 32.7214C6.03744 32.491 9.66713 30.9272 12.8718 30.8006C14.8819 30.7212 16.893 30.5883 18.9054 30.6527C19.8358 30.6822 21.2195 33.1628 22.1218 33.0481C22.707 32.9737 22.3209 30.5701 22.2969 29.9482C22.2765 29.4187 22.2316 28.8916 22.3092 28.364C22.5877 26.4622 23.6338 24.6566 24.0689 22.7548C24.5725 20.555 24.9127 18.3125 25.1218 16.066C25.3437 13.6829 25.4376 11.2485 25.1255 8.86858C24.9912 7.84239 24.8079 6.80032 24.4005 5.84263C24.0834 5.09726 23.3145 3.63419 22.3319 3.74624C21.9712 3.78753 21.6482 3.99259 21.3782 4.23621C20.8493 4.71392 20.4809 5.34995 20.2373 6.02001C19.7351 7.40233 19.746 8.89081 19.6494 10.3389C19.5496 11.8319 19.1427 13.2147 18.8079 14.6637C18.1864 17.3562 17.4523 20.5251 15.6885 22.7322C15.2593 23.2693 14.6143 23.7039 13.9297 23.639C13.5786 23.6055 13.2506 23.444 12.9639 23.2384C11.9309 22.4976 11.4055 21.2192 11.2263 19.9607C10.8593 17.3821 11.1356 14.5376 11.8247 12.0379C12.2289 10.5707 12.9756 9.25691 13.432 7.82242C13.9143 6.30582 14.5684 3.29711 12.4303 2.71959C11.5675 2.48641 10.6488 2.92737 10.0038 3.54617C7.61208 5.83945 5.99659 9.24875 4.6134 12.2048C3.76506 14.0172 2.94622 15.8909 2.42406 17.828C2.11013 18.9926 2.14369 20.1531 2.17681 21.3557C2.26981 24.7174 2.4649 29.3879 2.83871 32.7214Z" fill="url(#paint1_linear_93_12910)"/>
<path d="M21.779 34.8927C22.0512 34.9758 22.4418 35.7152 22.5924 35.928C23.1912 36.7723 23.7089 37.681 24.0968 38.6418C25.142 41.2309 24.9905 44.0704 23.0298 46.1913C23.0066 46.2163 22.983 46.2412 22.9599 46.2662C22.8542 46.3773 22.7439 46.4858 22.6577 46.6123C22.4159 46.9676 22.3583 47.4126 22.1292 47.7769C21.9128 48.1212 21.5948 48.4433 21.2867 48.7033C20.5613 49.3157 19.595 49.7413 18.6301 49.646C18.2984 49.6133 17.9822 49.4954 17.6705 49.3783C16.3172 48.8702 14.8478 48.2909 14.1301 46.9471C14.2117 47.1005 13.8393 47.7243 13.7454 47.8513C13.5204 48.1571 13.2445 48.29 12.8966 48.4243C11.7474 48.8684 10.4967 49.225 9.39515 49.7758C8.63389 50.0688 7.99151 50.3474 7.21709 50.0933C6.76614 49.9454 6.30928 49.8157 5.86333 49.6524C5.02857 49.347 3.6399 48.8126 3.6399 47.7297C3.6399 46.0552 2.24442 41.0322 5.59341 36.0092C8.94104 30.988 21.7685 34.8896 21.779 34.8927Z" fill="#D8D6D0"/>
<path d="M21.7931 30.7577C22.112 30.8548 22.5693 31.7213 22.7457 31.9704C23.4467 32.9594 24.0532 34.0237 24.5078 35.1488C25.7322 38.1816 25.5544 41.5075 23.2584 43.9908C23.2312 44.0199 23.2035 44.0494 23.1763 44.0784C23.0524 44.2086 22.9236 44.3356 22.8224 44.484C22.5389 44.9005 22.4717 45.4208 22.2036 45.8482C21.9505 46.251 21.578 46.6285 21.2169 46.9334C20.3672 47.6506 19.2353 48.1487 18.1057 48.0376C17.7174 47.9995 17.3472 47.8611 16.982 47.7241C15.3969 47.1293 13.6757 46.4502 12.8351 44.8764C12.9308 45.0556 12.4944 45.7865 12.3846 45.9357C12.121 46.2937 11.7975 46.4493 11.3906 46.6067C10.0446 47.1271 8.57971 47.5444 7.28949 48.1896C6.39805 48.533 5.64588 48.8592 4.73856 48.5616C4.2105 48.3883 3.67519 48.2363 3.15302 48.0453C2.17538 47.6878 0.548547 47.0617 0.548547 45.7933C0.548547 43.8321 -1.08553 37.9489 2.83637 32.0657C6.75691 26.1843 21.7804 30.7541 21.7931 30.7577Z" fill="#CECECE"/>
<defs>
<linearGradient id="paint0_linear_93_12910" x1="11.1419" y1="23.5367" x2="29.7038" y2="-21.8288" gradientUnits="userSpaceOnUse">
<stop offset="0.1599" stop-color="#BFAB8D"/>
<stop offset="0.5078" stop-color="#E7E1D2"/>
<stop offset="0.7297" stop-color="#CCBFA6"/>
</linearGradient>
<linearGradient id="paint1_linear_93_12910" x1="24.0254" y1="17.5358" x2="3.11537" y2="18.4812" gradientUnits="userSpaceOnUse">
<stop offset="0.1599" stop-color="#BFAB8D"/>
<stop offset="0.5078" stop-color="#E7E1D2"/>
<stop offset="0.7297" stop-color="#CCBFA6"/>
</linearGradient>
</defs>
</svg>
