<svg width="24" height="42" viewBox="0 0 24 42" fill="none" xmlns="http://www.w3.org/2000/svg">
<path d="M9.35156 39.1251C9.35156 39.1251 11.801 42.7129 15.524 40.2696C19.247 37.8263 11.2716 37.4348 9.35156 39.1251Z" fill="#D8D6D0"/>
<path d="M13.7524 3.54654C14.2732 1.80717 16.0716 2.02629 16.6795 3.59417C17.855 6.62514 17.2516 10.0286 16.6473 13.1158C16.3674 14.5453 15.8275 19.8333 13.8099 20.0056C11.8083 20.1767 8.14794 15.473 9.81297 12.8526C10.7163 11.4313 11.7039 10.0535 12.4462 8.53689C13.2537 6.88871 13.2424 5.25097 13.7524 3.54654Z" fill="url(#paint0_linear_93_12922)"/>
<path d="M3.29834 26.8461C3.36367 26.8829 3.57236 26.4165 3.75973 26.4369C4.00426 26.4632 4.30914 26.3779 4.55367 26.353C5.39842 26.2677 6.24453 26.1937 7.0911 26.1298C9.44298 25.9524 11.8058 25.8444 14.1649 25.8921C15.8059 25.9252 17.4718 26.0123 19.081 26.3557C20.075 26.5676 21.383 26.8829 21.9909 27.7866C21.9909 27.7866 20.6213 22.2704 21.6021 18.0214C22.583 13.7723 23.89 2.3331 21.275 2.006C19.6313 1.80049 18.3923 5.62309 17.9636 6.68649C16.8267 9.50649 15.9365 12.5206 15.1303 15.4831C15.1077 15.5657 15.0845 15.6505 15.0342 15.7199C14.5927 16.3305 13.0606 16.5728 12.4686 16.1645C11.9732 15.8224 11.8507 15.1551 11.7699 14.5581C11.6266 13.4988 11.4832 12.4394 11.3398 11.3801C10.9991 8.86318 10.6562 6.32991 10.717 3.78347C10.7337 3.08437 11.5304 -0.476015 9.83498 0.37189C6.98677 1.79595 5.3626 5.7347 4.57184 8.5615C3.50296 12.3809 3.46346 16.468 3.31602 20.4068C3.24842 22.2124 3.15815 24.0429 3.27565 25.8485C3.29879 26.2019 3.20488 26.7939 3.29834 26.8461Z" fill="url(#paint1_linear_93_12922)"/>
<path d="M4.39374 25.6949C5.2707 25.0874 6.44527 25.0149 7.46378 24.8112C8.99767 24.504 10.5452 24.2482 12.1085 24.1538C15.5542 23.9451 19.3438 24.5771 21.6594 27.3802C22.4755 28.3679 23.0494 29.5506 23.3371 30.7981C23.6606 32.2027 23.3997 33.11 22.9523 34.4369C22.5422 35.6532 22.0069 36.9702 21.3454 38.0717C20.6281 39.2657 19.4808 40.2996 18.0381 40.2787C16.4752 40.256 14.9477 39.6445 13.9038 38.4596C13.8489 38.3974 13.7926 38.3316 13.7155 38.3003C13.6234 38.2631 13.5195 38.2826 13.4233 38.3048C11.3223 38.7862 9.21635 40.1599 7.27823 41.0885C6.35182 41.5322 5.82235 41.6674 4.88415 41.1747C3.71366 40.56 2.59898 39.8042 1.73245 38.8057C-0.830377 35.8524 0.146386 31.6565 2.02008 28.611C2.61168 27.6497 3.34439 26.5355 4.23088 25.8178C4.28396 25.7738 4.33839 25.7335 4.39374 25.6949Z" fill="#CECECE"/>
<defs>
<linearGradient id="paint0_linear_93_12922" x1="11.0761" y1="19.2881" x2="24.7632" y2="-14.1646" gradientUnits="userSpaceOnUse">
<stop offset="0.1599" stop-color="#BFAB8D"/>
<stop offset="0.5078" stop-color="#E7E1D2"/>
<stop offset="0.7297" stop-color="#CCBFA6"/>
</linearGradient>
<linearGradient id="paint1_linear_93_12922" x1="22.1392" y1="16.2946" x2="4.44967" y2="12.939" gradientUnits="userSpaceOnUse">
<stop offset="0.1599" stop-color="#BFAB8D"/>
<stop offset="0.5078" stop-color="#E7E1D2"/>
<stop offset="0.7297" stop-color="#CCBFA6"/>
</linearGradient>
</defs>
</svg>
