<svg width="26" height="40" viewBox="0 0 26 40" fill="none" xmlns="http://www.w3.org/2000/svg">
<path d="M9.53812 36.9423C9.24323 38.7956 10.4291 39.2865 11.3592 38.0348C13.1566 35.6154 13.99 32.1511 14.7104 28.9867C15.0439 27.5214 16.5836 22.2937 15.4014 21.3455C14.2282 20.4051 10.3066 23.446 10.4055 26.58C10.4591 28.2799 10.5798 29.9712 10.5004 31.6992C10.4137 33.577 9.8271 35.1263 9.53812 36.9423Z" fill="url(#paint0_linear_93_13022)"/>
<path d="M22.0096 13.6364C22.0096 13.6364 20.7022 17.2317 20.7022 21.1537C20.7022 25.0756 21.0288 29.9783 18.7409 33.5736C16.4531 37.1689 15.7994 38.803 15.7994 38.803C15.7994 38.803 13.8381 41.0908 12.8578 38.4764C12.8578 38.4764 15.1456 30.6321 13.8381 26.7101C12.5307 22.7882 11.2232 24.0952 10.8965 24.7489C10.5699 25.4027 5.99373 32.9199 5.34 34.8811C4.68626 36.8423 3.70587 38.803 3.05213 38.803C2.39839 38.803 1.41801 37.1689 0.764277 34.2273C0.110538 31.2858 0.76428 28.0176 2.07176 25.7293C3.37923 23.4415 4.6867 13.3093 4.6867 11.6752C4.6867 10.0411 20.3751 12.9827 22.0096 13.6364Z" fill="url(#paint1_linear_93_13022)"/>
<path d="M14.4625 3.36772C14.7728 3.29423 15.094 3.09144 15.4669 2.846C16.4795 2.17866 17.5311 1.53491 18.6993 1.21054C19.868 0.886163 21.1827 0.914289 22.2225 1.53808C22.9538 1.97678 23.4955 2.6718 23.9415 3.39858C24.6392 4.53593 25.1541 5.85746 24.994 7.18217C24.8116 8.69289 24.2123 10.1805 23.5976 11.5605C23.2247 12.3975 22.9139 13.3525 22.242 14.0076C21.4581 14.7716 20.1402 14.8791 19.1072 15.0238C16.8851 15.3346 14.654 15.056 12.4845 14.5411C10.3278 14.0289 8.09938 13.4609 6.00207 12.7469C5.62507 12.6185 5.24852 12.4701 4.93277 12.2279C4.04767 11.5478 3.86575 10.0022 3.65298 8.98233C3.32996 7.43214 3.52731 5.82934 4.16154 4.3844C4.97814 2.52391 6.53967 0.881625 8.61293 0.562696C10.0969 0.334501 11.4143 0.638914 12.4128 1.78896C12.7436 2.17005 13.0067 2.61282 13.3642 2.97076C13.7575 3.365 14.1028 3.45301 14.4625 3.36772Z" fill="#CDCAC5"/>
<defs>
<linearGradient id="paint0_linear_93_13022" x1="13.4568" y1="20.9779" x2="13.4327" y2="58.0477" gradientUnits="userSpaceOnUse">
<stop offset="0.1599" stop-color="#BFAB8D"/>
<stop offset="0.5078" stop-color="#E7E1D2"/>
<stop offset="0.7297" stop-color="#CCBFA6"/>
</linearGradient>
<linearGradient id="paint1_linear_93_13022" x1="20.1149" y1="25.4231" x2="3.35665" y2="25.4836" gradientUnits="userSpaceOnUse">
<stop stop-color="#BFAB8D"/>
<stop offset="0.5078" stop-color="#E7E1D2"/>
<stop offset="1" stop-color="#CCBFA6"/>
</linearGradient>
</defs>
</svg>
