<svg width="27" height="48" viewBox="0 0 27 48" fill="none" xmlns="http://www.w3.org/2000/svg">
<path d="M10.7323 42.1755C10.5305 44.1326 11.8003 44.5777 12.7013 43.214C14.4438 40.5782 15.1161 36.9034 15.6882 33.5495C15.9532 31.9961 17.2634 26.4355 15.9713 25.5109C14.6892 24.594 10.7596 28.0033 11.0431 31.2779C11.1969 33.0545 11.421 34.8179 11.4373 36.6312C11.4555 38.602 10.9306 40.2579 10.7323 42.1755Z" fill="url(#paint0_linear_93_13008)"/>
<path d="M22.3626 19.9137C21.6772 21.8722 21.1246 23.9164 20.8057 25.967C20.5911 27.347 20.6228 28.5737 20.8324 29.9397C21.1849 32.2352 21.2103 34.631 21.1114 36.9465C20.9572 40.5582 19.2246 43.2783 17.8396 46.527C17.3306 47.7206 16.1537 48.3471 15.0863 47.2488C13.7325 45.856 14.0977 42.9285 14.0437 41.162C13.9702 38.7439 13.9212 36.3091 13.4376 33.9297C13.2294 32.9053 12.9368 31.8841 12.4019 30.9858C11.8702 30.0926 10.8876 29.6571 9.9462 30.3004C8.69271 31.1569 8.41008 33.0332 7.97728 34.3688C7.57125 35.6214 7.20332 36.8862 6.84809 38.1542C6.34634 39.9453 5.88223 41.7467 5.40406 43.5437C5.20626 44.2877 4.55888 46.0352 3.46509 45.2758C3.0958 45.019 2.91343 44.5744 2.75964 44.1521C2.25471 42.763 1.85139 41.3398 1.44899 39.918C0.909574 38.0131 0.413265 36.1136 0.297126 34.1297C0.138796 31.425 1.20446 28.7525 1.72527 26.1344C2.27875 23.3521 2.62444 20.5285 2.75692 17.6949C2.76554 17.5084 2.78005 17.3056 2.90572 17.1677C3.07585 16.9817 3.36755 16.9962 3.61752 17.0248C6.68931 17.3769 9.76745 17.6631 12.8361 18.0469C14.9125 18.3051 16.9917 18.5781 19.05 18.9574C19.9573 19.1244 21.6599 19.211 22.3626 19.9137Z" fill="url(#paint1_linear_93_13008)"/>
<path d="M24.7601 15.6719C24.8627 14.4452 24.8345 13.2021 25.0682 11.9904C25.4329 10.099 26.3879 8.4513 26.2527 6.44746C25.927 1.62316 19.185 1.25026 15.7953 2.5863C14.3857 3.14159 13.8073 2.61715 12.6223 1.8686C11.3385 1.05744 9.82365 0.632812 8.30614 0.632812C6.57087 0.632812 4.65596 1.1264 3.17383 2.03827C0.981264 3.38748 0.983074 5.60092 0.832457 7.92414C0.665508 10.4937 0.724943 13.1409 1.57466 15.5979C1.83461 16.3501 2.17894 17.0891 2.72062 17.6721C3.49049 18.5009 4.47131 18.6103 5.51157 18.8498C6.93154 19.1769 8.36739 19.4536 9.79871 19.7245C12.6055 20.2557 15.4387 20.6881 18.2945 20.8314C19.6487 20.8995 21.051 20.762 22.2536 20.1355C23.9957 19.2286 24.6059 17.5228 24.7601 15.6719Z" fill="#CECECE"/>
<defs>
<linearGradient id="paint0_linear_93_13008" x1="13.9152" y1="25.2496" x2="16.0247" y2="64.055" gradientUnits="userSpaceOnUse">
<stop offset="0.1599" stop-color="#BFAB8D"/>
<stop offset="0.5078" stop-color="#E7E1D2"/>
<stop offset="0.7297" stop-color="#CCBFA6"/>
</linearGradient>
<linearGradient id="paint1_linear_93_13008" x1="19.836" y1="33.8051" x2="2.34179" y2="30.4009" gradientUnits="userSpaceOnUse">
<stop stop-color="#BFAB8D"/>
<stop offset="0.5078" stop-color="#E7E1D2"/>
<stop offset="1" stop-color="#CCBFA6"/>
</linearGradient>
</defs>
</svg>
