<svg width="29" height="51" viewBox="0 0 29 51" fill="none" xmlns="http://www.w3.org/2000/svg">
<path d="M19.5336 1.10617C20.8465 1.19554 21.86 1.58071 22.938 2.32109C23.2297 2.52162 23.5059 2.76341 23.4483 3.05013C23.1798 4.38937 13.3043 3.31327 13.3991 2.13872C13.4581 1.44097 16.6696 1.25406 17.3887 1.17649C18.1998 1.08893 18.9017 1.06352 19.5336 1.10617Z" fill="#D8D6D0"/>
<path d="M9.36279 46.4723C8.68729 48.6363 10.2824 49.5192 11.764 48.2371C14.6285 45.7582 16.2861 41.7818 17.7442 38.1393C18.4193 36.4526 21.3177 30.5213 19.7925 29.0877C18.2791 27.665 12.3465 30.3739 12.0426 34.1802C11.8775 36.2448 11.8085 38.3154 11.4533 40.3809C11.0668 42.6257 10.0251 44.3519 9.36279 46.4723Z" fill="url(#paint0_linear_93_12993)"/>
<path d="M26.1409 21.2001C25.953 21.9745 25.7865 22.7625 25.7498 22.9149C25.4345 24.2228 25.1609 25.5412 24.9414 26.8686C24.7622 27.9533 24.6188 29.0444 24.5122 30.1386C24.4088 31.1993 24.4991 32.367 24.2972 33.4068C24.098 34.4316 23.7328 35.5068 23.3876 36.4967C22.3509 39.4696 20.7808 42.236 18.9162 44.7648C17.9808 46.0332 16.9691 47.2449 15.9012 48.404C15.2452 49.1163 13.8506 51.2249 12.6915 50.3489C12.2564 50.02 12.0818 49.4334 12.1099 48.8886C12.138 48.3437 12.3376 47.8247 12.5268 47.313C13.984 43.3648 15.3695 38.4761 14.5502 34.2402C14.4649 33.7988 14.3315 33.3429 14.0149 33.0239C13.5997 32.6061 12.9351 32.5122 12.3671 32.6687C11.7991 32.8252 11.3146 33.1968 10.8918 33.6069C9.44054 35.0155 8.40937 36.9958 7.52246 38.7968C6.85104 40.1605 6.3579 41.6136 6.07435 43.1075C5.80306 44.5375 6.03352 46.2369 5.45918 47.5788C5.13753 48.331 4.42029 48.9757 3.60279 48.9521C2.9663 48.9339 2.40285 48.5243 1.98321 48.0452C0.437119 46.28 0.140872 43.4673 0.0505926 41.2167C-0.0628236 38.3804 0.340942 35.554 0.780543 32.7599C1.37893 28.9559 2.14789 25.1778 3.00668 21.4247C3.0398 21.279 3.50707 18.9113 3.60143 18.9141C3.60143 18.9141 26.4761 19.5487 26.6862 19.5546C26.5687 19.5524 26.3427 20.3685 26.1409 21.2001Z" fill="url(#paint1_linear_93_12993)"/>
<path d="M8.24158 0.932348C9.42745 0.864752 10.3928 1.12379 11.4721 1.72581C11.7643 1.88867 12.0492 2.09464 12.0433 2.38362C12.0165 3.73554 3.03264 3.84669 2.93057 2.67759C2.8725 1.98258 5.70879 1.41732 6.33802 1.25536C7.04845 1.07344 7.67042 0.965012 8.24158 0.932348Z" fill="#D8D6D0"/>
<path d="M24.1833 1.98222C25.1365 2.07749 26.0343 2.4445 26.8078 3.25112C27.8045 4.29047 28.3035 5.73223 28.4269 7.16672C28.6914 10.2444 28.1647 13.9046 27.3957 16.8861C27.1517 17.8324 27.1272 19.8213 26.4775 20.5517C24.456 22.8241 20.0141 21.7186 17.3261 21.5321C14.2475 21.3184 10.933 21.2163 8.1747 20.5517C6.34868 20.4601 2.99561 20.8643 2.44123 18.4494C1.80609 15.6816 1.41503 12.8512 1.28437 10.0144C1.18638 7.89486 0.876984 2.65772 3.92382 2.24897C4.36978 2.18908 5.12242 2.69175 5.56928 2.79337C6.50157 3.00478 7.41118 2.9762 8.33666 2.73031C9.47491 2.42817 10.532 1.88377 11.623 1.44054C11.8603 1.34436 12.1071 1.25136 12.363 1.25816C12.9459 1.27404 13.3742 1.77897 13.8406 2.1292C15.8036 3.60453 19.3222 2.83919 21.4894 2.27256C22.3995 2.03438 23.3145 1.89556 24.1833 1.98222Z" fill="#CECECE"/>
<defs>
<linearGradient id="paint0_linear_93_12993" x1="17.1196" y1="28.1848" x2="9.3579" y2="72.477" gradientUnits="userSpaceOnUse">
<stop offset="0.1599" stop-color="#BFAB8D"/>
<stop offset="0.5078" stop-color="#E7E1D2"/>
<stop offset="0.7297" stop-color="#CCBFA6"/>
</linearGradient>
<linearGradient id="paint1_linear_93_12993" x1="24.099" y1="34.6806" x2="1.57212" y2="34.762" gradientUnits="userSpaceOnUse">
<stop stop-color="#BFAB8D"/>
<stop offset="0.5078" stop-color="#E7E1D2"/>
<stop offset="1" stop-color="#CCBFA6"/>
</linearGradient>
</defs>
</svg>
