<svg width="24" height="42" viewBox="0 0 24 42" fill="none" xmlns="http://www.w3.org/2000/svg">
<path d="M6.79688 38.9689C6.79688 38.9689 9.24626 42.5572 12.9691 40.1136C16.6919 37.67 8.71682 37.2785 6.79688 38.9689Z" fill="#D8D6D0"/>
<path d="M9.76264 3.54652C9.24182 1.80718 7.44345 2.0263 6.83553 3.59416C5.66006 6.62508 6.26344 10.0285 6.86774 13.1156C7.14766 14.5451 7.68753 19.833 9.70502 20.0054C11.7066 20.1764 15.3669 15.4729 13.7019 12.8525C12.7986 11.4312 11.811 10.0534 11.0688 8.53681C10.2617 6.8882 10.2726 5.25093 9.76264 3.54652Z" fill="url(#paint0_linear_93_12927)"/>
<path d="M20.2229 26.8461C20.1576 26.8829 19.9489 26.4165 19.7616 26.4369C19.517 26.4632 19.2122 26.3779 18.9676 26.353C18.1229 26.2677 17.2768 26.1937 16.4303 26.1298C14.0784 25.9524 11.7157 25.8444 9.35665 25.8921C7.71573 25.9252 6.04985 26.0123 4.44068 26.3557C3.44669 26.5676 2.13877 26.8829 1.53085 27.7866C1.53085 27.7866 2.90047 22.2704 1.91964 18.0214C0.938802 13.7723 -0.36821 2.3331 2.24674 2.006C3.89039 1.80049 5.12936 5.62309 5.55807 6.68649C6.69497 9.50649 7.58507 12.5207 8.39124 15.4831C8.41392 15.5657 8.43705 15.6505 8.48741 15.7199C8.92883 16.3306 10.4613 16.5728 11.0529 16.1645C11.5483 15.8224 11.6708 15.1551 11.7516 14.5581C11.8949 13.4988 12.0383 12.4394 12.1816 11.3801C12.5224 8.86318 12.8653 6.32991 12.8045 3.78347C12.7878 3.08437 11.9911 -0.476015 13.6865 0.37189C16.5346 1.79595 18.1587 5.7347 18.9495 8.5615C20.0183 12.3809 20.0578 16.468 20.2052 20.4068C20.2728 22.2124 20.3631 24.0429 20.2456 25.8485C20.2225 26.2015 20.3164 26.7935 20.2229 26.8461Z" fill="url(#paint1_linear_93_12927)"/>
<path d="M19.1256 25.6949C18.2487 25.0875 17.0741 25.0149 16.0556 24.8112C14.5218 24.504 12.9743 24.2482 11.4115 24.1538C7.96589 23.9451 4.17643 24.5771 1.86093 27.3803C1.04478 28.3679 0.4709 29.5506 0.183277 30.7982C-0.140186 32.2028 0.12067 33.1101 0.567984 34.4366C0.978096 35.6529 1.51343 36.9699 2.17487 38.0714C2.89211 39.2654 4.03943 40.2993 5.48208 40.2785C7.04495 40.2558 8.57245 39.6443 9.61633 38.4593C9.67122 38.3971 9.72747 38.3314 9.8046 38.3C9.89669 38.2628 10.0006 38.2824 10.0968 38.3046C12.1977 38.7859 14.3036 40.1596 16.2416 41.0883C17.168 41.532 17.6974 41.6672 18.6356 41.1745C19.8061 40.5598 20.9207 39.8039 21.7872 38.8054C24.35 35.8521 23.3732 31.6561 21.4996 28.6106C20.908 27.6493 20.1754 26.5351 19.2889 25.8174C19.2358 25.7743 19.1814 25.7335 19.1256 25.6949Z" fill="#CECECE"/>
<defs>
<linearGradient id="paint0_linear_93_12927" x1="12.4302" y1="19.2734" x2="-1.25693" y2="-14.1788" gradientUnits="userSpaceOnUse">
<stop offset="0.1599" stop-color="#BFAB8D"/>
<stop offset="0.5078" stop-color="#E7E1D2"/>
<stop offset="0.7297" stop-color="#CCBFA6"/>
</linearGradient>
<linearGradient id="paint1_linear_93_12927" x1="1.38275" y1="16.2944" x2="19.0718" y2="12.9389" gradientUnits="userSpaceOnUse">
<stop offset="0.1599" stop-color="#BFAB8D"/>
<stop offset="0.5078" stop-color="#E7E1D2"/>
<stop offset="0.7297" stop-color="#CCBFA6"/>
</linearGradient>
</defs>
</svg>
