<svg width="20" height="51" viewBox="0 0 20 51" fill="none" xmlns="http://www.w3.org/2000/svg">
<path d="M16.1452 20.7271C15.3422 25.9834 13.9263 31.2355 12.0831 36.2154C10.057 41.6885 7.52557 47.162 2.60424 50.5918C2.48492 50.6748 2.357 50.761 2.21182 50.7683C2.06393 50.7755 1.92465 50.6988 1.80624 50.6099C1.12847 50.1032 0.87896 49.1781 0.948824 48.3343C1.01869 47.4905 1.3553 46.6961 1.64928 45.9022C3.44306 41.0597 3.88084 35.7304 4.39212 30.6289C4.71603 27.3993 5.48409 23.4405 4.72284 20.2208C3.90534 16.7652 15.6389 20.1129 16.1452 20.7271Z" fill="url(#paint0_linear_93_12980)"/>
<path d="M6.0071 0.737389C6.73392 0.409852 7.49206 0.402144 8.50471 0.650746C8.77875 0.717886 9.07093 0.822218 9.21974 1.06175C9.91662 2.18136 4.19684 4.33123 3.51311 3.39171C3.10842 2.83281 4.63421 1.71728 4.95361 1.4401C5.3143 1.12708 5.65684 0.895261 6.0071 0.737389Z" fill="#D8D6D0"/>
<path d="M15.9448 0.924443C16.2823 1.02607 16.5391 1.13497 16.6471 1.22979C17.1933 1.70979 17.7608 2.22065 18.0054 2.90527C18.1034 3.17975 18.1138 3.54769 17.8643 3.69832C17.7799 3.74913 17.6792 3.76455 17.5812 3.77272C16.4365 3.86663 15.1122 3.12258 14.1441 2.5913C13.7857 2.39486 12.2445 1.68574 12.3148 1.12815C12.4214 0.282469 14.7175 0.555138 15.9448 0.924443Z" fill="#D8D6D0"/>
<path d="M17.9621 3.03456C17.9621 3.03456 20.25 4.66866 18.9425 8.91771C18.2888 14.8009 16.3276 20.684 16.3276 20.684C16.3276 20.684 15.6738 21.6644 11.0982 21.6644C6.52247 21.6644 5.21502 21.0107 4.56128 19.7032C3.90755 18.3957 2.27344 5.97568 2.27344 5.97568C2.27344 5.97568 2.60008 3.0341 3.90754 2.70746C5.21501 2.38082 6.52248 2.05372 6.84912 2.05372C7.17576 2.05372 10.1173 0.092515 11.4248 0.419609C12.7327 0.746704 16.0009 3.3612 17.9621 3.03456Z" fill="#CECECE"/>
<defs>
<linearGradient id="paint0_linear_93_12980" x1="12.917" y1="34.6944" x2="2.5507" y2="34.7318" gradientUnits="userSpaceOnUse">
<stop stop-color="#BFAB8D"/>
<stop offset="0.5078" stop-color="#E7E1D2"/>
<stop offset="1" stop-color="#CCBFA6"/>
</linearGradient>
</defs>
</svg>
