<svg width="19" height="53" viewBox="0 0 19 53" fill="none" xmlns="http://www.w3.org/2000/svg">
<path d="M15.5047 21.5479C15.5047 21.5479 9.29507 47.0418 4.0653 51.2904C-1.16401 55.5395 1.45043 47.0414 1.45043 47.0414C1.45043 47.0414 3.4116 31.353 3.4116 28.4114C3.4116 25.4698 2.37182 19.9609 2.37182 19.9609C2.37182 19.9609 12.4439 22.1299 15.5047 21.5479Z" fill="url(#paint0_linear_93_12970)"/>
<path d="M15.829 2.26654C15.829 2.26654 19.0972 3.90065 18.1168 8.47636C17.1364 13.0521 17.4631 15.667 17.4631 15.667C17.4631 15.667 16.8093 23.5114 11.2533 23.8381C5.69677 24.1647 2.1019 20.8964 1.77481 18.9352C1.44771 16.974 1.44818 11.4179 1.12109 10.4371C0.794447 9.45673 -0.186382 3.24646 3.08229 2.26608C6.35051 1.2857 8.31171 0.958606 8.31171 0.958606C8.31171 0.958606 11.5799 -0.0213156 15.829 2.26654Z" fill="#CECECE"/>
<defs>
<linearGradient id="paint0_linear_93_12970" x1="2.24591" y1="36.2214" x2="13.8021" y2="36.2631" gradientUnits="userSpaceOnUse">
<stop stop-color="#BFAB8D"/>
<stop offset="0.5078" stop-color="#E7E1D2"/>
<stop offset="1" stop-color="#CCBFA6"/>
</linearGradient>
</defs>
</svg>
