<svg width="19" height="67" viewBox="0 0 19 67" fill="none" xmlns="http://www.w3.org/2000/svg">
<path d="M15.7602 27.4262C13.8553 27.4162 11.9208 27.2406 10.019 27.0882C7.71572 26.9036 4.4815 27.0165 2.37828 25.9159C2.18592 25.8152 2.12241 25.4727 1.94548 25.3516C1.54307 26.7008 1.88742 28.8629 1.96681 30.2443C2.1941 34.1935 2.36876 38.1499 2.33065 42.1063C2.30933 44.2902 2.18775 46.4587 1.99131 48.6331C1.72001 51.6359 0.706052 54.5675 0.432942 57.6011C0.241492 59.7284 0.273709 61.891 0.688819 63.9914C0.819476 64.652 1.00955 66.3645 1.58254 66.5224C2.33836 66.7302 3.47844 65.5679 3.85816 65.0557C5.11392 63.3627 5.43603 61.0699 6.07843 59.1082C6.79704 56.9125 7.63905 54.7594 8.49921 52.6158C10.1764 48.4344 11.9403 44.2639 13.0205 39.8774C13.6516 37.3147 13.9324 34.6893 14.5249 32.1171C14.8874 30.541 15.3147 28.9804 15.7602 27.4262Z" fill="url(#paint0_linear_93_12962)"/>
<path d="M17.9548 8.67465C17.9548 8.67465 18.9334 3.44476 16.6446 1.81156C14.3559 0.178353 13.3759 0.83255 13.3759 0.83255C12.4296 1.09114 11.4787 1.3334 10.526 1.56613C8.95724 1.94902 7.2637 2.49796 5.63776 2.45576C5.31203 2.44714 4.98539 2.41085 4.66147 2.44351C2.23843 2.68577 1.8451 5.26624 1.48126 7.15668C1.01444 9.58062 0.685515 12.0372 0.491346 14.4979C0.331201 16.5299 0.253637 18.585 0.424669 20.6193C0.548974 22.0928 0.754943 23.7759 1.62009 25.0244C2.82865 26.7687 5.04481 27.5613 7.02643 28.0172C9.54156 28.5961 12.1846 28.7322 14.7569 28.6238C16.1556 28.5644 16.5453 25.4472 16.6233 24.4582C17.0384 19.1938 17.4794 13.9336 17.9548 8.67465Z" fill="#CECECE"/>
<defs>
<linearGradient id="paint0_linear_93_12962" x1="11.1322" y1="45.9117" x2="2.0504" y2="45.9483" gradientUnits="userSpaceOnUse">
<stop stop-color="#BFAB8D"/>
<stop offset="0.5078" stop-color="#E7E1D2"/>
<stop offset="1" stop-color="#CCBFA6"/>
</linearGradient>
</defs>
</svg>
