<svg width="17" height="64" viewBox="0 0 17 64" fill="none" xmlns="http://www.w3.org/2000/svg">
<path d="M14.4939 23.125C14.4939 23.125 6.32314 27.047 4.03536 23.7787C4.12518 26.9903 4.18052 30.2036 4.22271 33.4161C4.30256 39.5248 4.33477 45.6394 4.15648 51.7467C4.09388 53.8917 4.04397 56.0394 3.83892 58.1766C3.73458 59.2654 3.59077 60.3511 3.38527 61.4254C3.2909 61.9199 3.00647 62.5024 3.23557 62.9538C3.54042 63.554 4.32797 63.6901 4.87825 63.4193C5.65264 63.0382 6.16164 62.1009 6.54588 61.3773C7.4727 59.6315 8.07063 57.7021 8.61139 55.8094C11.8791 44.37 13.9899 26.641 14.4939 23.125Z" fill="url(#paint0_linear_93_12954)"/>
<path d="M15.7516 0.68796C14.979 0.291451 13.7754 0.536434 12.9289 0.529175C11.3583 0.516019 9.78777 0.520558 8.21765 0.565925C6.46335 0.616736 4.02403 0.416217 2.40174 1.22738C0.843874 2.00634 0.678279 3.95214 0.72546 5.48056C0.912367 11.5185 1.30116 17.8726 3.73641 23.4859C4.44956 25.1296 5.44489 26.7882 7.00276 27.7554C9.41668 29.2544 12.1799 28.3856 13.5559 25.9857C14.6573 24.0648 15.0811 21.8504 15.312 19.6782C15.4866 18.0337 15.3773 16.3769 15.4939 14.7291C15.6169 12.9925 16.129 11.3075 16.4089 9.59129C16.8513 6.87742 17.3866 4.04559 16.3754 1.39206C16.2452 1.04999 16.0256 0.828599 15.7516 0.68796Z" fill="#CECECE"/>
<defs>
<linearGradient id="paint0_linear_93_12954" x1="1.85505" y1="43.3115" x2="11.0878" y2="43.3448" gradientUnits="userSpaceOnUse">
<stop stop-color="#BFAB8D"/>
<stop offset="0.5078" stop-color="#E7E1D2"/>
<stop offset="1" stop-color="#CCBFA6"/>
</linearGradient>
</defs>
</svg>
