<svg width="16" height="66" viewBox="0 0 16 66" fill="none" xmlns="http://www.w3.org/2000/svg">
<path d="M1.55299 64.9996C2.1963 65.876 4.09991 61.9741 4.28183 61.5993C5.42101 59.2534 6.12875 56.7596 7.00888 54.3116C7.97929 51.6119 8.96875 48.8953 9.76404 46.137C10.8252 42.4569 11.4299 38.6239 12.1059 34.8589C12.2116 34.2692 13.1353 26.6875 13.5182 26.6331C13.515 26.6335 4.36622 27.9396 2.40544 24.6719C2.40499 32.2059 0.870211 39.6859 0.519975 47.2145C0.377068 50.2831 0.140709 53.3508 0.185169 56.4248C0.220102 58.8615 0.0331838 62.9245 1.55299 64.9996Z" fill="url(#paint0_linear_93_12947)"/>
<path d="M15.0148 0.633204C14.866 0.497558 14.6033 0.468976 14.117 0.428146C13.3729 0.365994 12.5999 0.420439 11.8541 0.4218C8.81403 0.427697 5.77403 0.487579 2.73401 0.487579C2.73401 0.487579 -0.207569 1.14131 0.11907 2.77541C0.44571 4.40952 1.42654 24.6739 2.40692 25.9809C3.38729 27.2883 5.67512 31.5374 10.5779 30.2299C15.4802 28.9225 14.4998 17.4837 14.4998 17.4833C14.3706 15.4114 14.8913 13.1163 15.0324 11.0453C15.242 7.97033 15.4212 4.86863 15.2452 1.78733C15.2071 1.11182 15.1931 0.795616 15.0148 0.633204Z" fill="#CECECE"/>
<defs>
<linearGradient id="paint0_linear_93_12947" x1="12.4372" y1="44.8622" x2="-3.86829" y2="44.9211" gradientUnits="userSpaceOnUse">
<stop stop-color="#BFAB8D"/>
<stop offset="0.5078" stop-color="#E7E1D2"/>
<stop offset="1" stop-color="#CCBFA6"/>
</linearGradient>
</defs>
</svg>
