<svg width="16" height="66" viewBox="0 0 16 66" fill="none" xmlns="http://www.w3.org/2000/svg">
<path d="M13.8241 64.9996C13.1809 65.876 11.2773 61.9741 11.0954 61.5993C9.95627 59.2534 9.24855 56.7596 8.36845 54.3116C7.39808 51.6119 6.40865 48.8953 5.61339 46.137C4.55229 42.4569 3.94756 38.6239 3.27161 34.8589C3.1659 34.2692 2.24226 26.6875 1.85938 26.6331C1.86255 26.6335 11.011 27.9396 12.9717 24.6719C12.9722 32.2059 14.5069 39.6859 14.8571 47.2145C15 50.2831 15.2364 53.3508 15.1919 56.4248C15.157 58.8615 15.3439 62.9245 13.8241 64.9996Z" fill="url(#paint0_linear_93_12944)"/>
<path d="M0.364427 0.633204C0.51323 0.497558 0.775905 0.468976 1.26224 0.428146C2.00625 0.365994 2.77929 0.420439 3.52512 0.4218C6.56515 0.427697 9.60518 0.487579 12.6452 0.487579C12.6452 0.487579 15.5868 1.14131 15.2601 2.77541C14.9335 4.40952 13.9527 24.6739 12.9723 25.9809C11.9919 27.2883 9.70409 31.5374 4.80131 30.2299C-0.101022 28.9225 0.879344 17.4837 0.879344 17.4833C1.00864 15.4114 0.487819 13.1163 0.346728 11.0453C0.137134 7.97033 -0.0420619 4.86863 0.133961 1.78733C0.172069 1.11182 0.186136 0.795616 0.364427 0.633204Z" fill="#CECECE"/>
<defs>
<linearGradient id="paint0_linear_93_12944" x1="2.94024" y1="44.8622" x2="19.2452" y2="44.9211" gradientUnits="userSpaceOnUse">
<stop stop-color="#BFAB8D"/>
<stop offset="0.5078" stop-color="#E7E1D2"/>
<stop offset="1" stop-color="#CCBFA6"/>
</linearGradient>
</defs>
</svg>
