<svg width="17" height="64" viewBox="0 0 17 64" fill="none" xmlns="http://www.w3.org/2000/svg">
<path d="M3.17188 23.1719C3.17188 23.1719 11.343 27.0939 13.6309 23.8256C13.5411 27.0372 13.4857 30.2505 13.4435 33.463C13.3637 39.5717 13.3315 45.6863 13.5098 51.7936C13.5724 53.9386 13.6223 56.0862 13.8273 58.2235C13.9317 59.3123 14.0755 60.3979 14.281 61.4722C14.3754 61.9667 14.6598 62.5492 14.4307 63.0007C14.1258 63.6009 13.3383 63.737 12.788 63.4661C12.0135 63.085 11.5045 62.1477 11.1203 61.4241C10.1934 59.6784 9.59545 57.7489 9.05467 55.8562C5.7864 44.4169 3.67545 26.6878 3.17188 23.1719Z" fill="url(#paint0_linear_93_12950)"/>
<path d="M1.91192 0.734832C2.68453 0.338328 3.88813 0.583308 4.73468 0.576049C6.3053 0.562893 7.87592 0.567432 9.44608 0.612798C11.2004 0.663609 13.6398 0.463093 15.2621 1.27425C16.8201 2.05319 16.9857 3.99896 16.9385 5.52735C16.7516 11.5652 16.3628 17.9192 13.9274 23.5324C13.2143 25.176 12.2189 26.8346 10.661 27.8018C8.24701 29.3007 5.4837 28.432 4.10771 26.0321C3.0062 24.1113 2.58245 21.8969 2.35153 19.7248C2.17686 18.0802 2.28621 16.4235 2.16961 14.7758C2.04667 13.0391 1.53448 11.3542 1.25456 9.63801C0.812229 6.92418 0.276884 4.09241 1.28812 1.43892C1.41787 1.09686 1.6379 0.875468 1.91192 0.734832Z" fill="#CECECE"/>
<defs>
<linearGradient id="paint0_linear_93_12950" x1="15.8111" y1="43.3583" x2="6.57791" y2="43.3917" gradientUnits="userSpaceOnUse">
<stop stop-color="#BFAB8D"/>
<stop offset="0.5078" stop-color="#E7E1D2"/>
<stop offset="1" stop-color="#CCBFA6"/>
</linearGradient>
</defs>
</svg>
