<svg width="19" height="67" viewBox="0 0 19 67" fill="none" xmlns="http://www.w3.org/2000/svg">
<path d="M3.14844 27.4262C5.05347 27.4162 6.98798 27.2406 8.88983 27.0882C11.1932 26.9036 14.4275 27.0165 16.5308 25.9159C16.7232 25.8152 16.7867 25.4727 16.9637 25.3516C17.3661 26.7008 17.0217 28.8629 16.9423 30.2443C16.715 34.1935 16.5404 38.1499 16.5785 42.1063C16.5998 44.2902 16.7214 46.4587 16.9178 48.6331C17.1891 51.6359 18.2031 54.5675 18.4762 57.6011C18.6677 59.7284 18.6355 61.891 18.2203 63.9914C18.0897 64.652 17.8996 66.3645 17.3266 66.5224C16.5708 66.7302 15.4306 65.5679 15.0509 65.0557C13.7951 63.3627 13.473 61.0699 12.8306 59.1082C12.1119 56.9125 11.2699 54.7594 10.4101 52.6158C8.73287 48.4344 6.96893 44.2639 5.8887 39.8774C5.25762 37.3147 4.9768 34.6893 4.38429 32.1171C4.02179 30.541 3.59396 28.9804 3.14844 27.4262Z" fill="url(#paint0_linear_93_12958)"/>
<path d="M0.957919 8.67465C0.957919 8.67465 -0.0206471 3.44476 2.26811 1.81156C4.55686 0.178353 5.53679 0.83255 5.53679 0.83255C6.48314 1.09114 7.43402 1.3334 8.38672 1.56613C9.9555 1.94902 11.649 2.49796 13.275 2.45576C13.6007 2.44714 13.9274 2.41085 14.2513 2.44351C16.6743 2.68577 17.0677 5.26624 17.4315 7.15668C17.8983 9.58062 18.2272 12.0372 18.4214 14.4979C18.5815 16.5299 18.6591 18.585 18.4881 20.6193C18.3638 22.0928 18.1578 23.7759 17.2927 25.0244C16.0841 26.7687 13.8679 27.5613 11.8863 28.0172C9.37119 28.5961 6.72813 28.7322 4.15583 28.6238C2.75717 28.5644 2.36747 25.4472 2.28944 24.4582C1.87433 19.1938 1.43336 13.9336 0.957919 8.67465Z" fill="#CECECE"/>
<defs>
<linearGradient id="paint0_linear_93_12958" x1="7.77677" y1="45.9117" x2="16.8589" y2="45.9483" gradientUnits="userSpaceOnUse">
<stop stop-color="#BFAB8D"/>
<stop offset="0.5078" stop-color="#E7E1D2"/>
<stop offset="1" stop-color="#CCBFA6"/>
</linearGradient>
</defs>
</svg>
