<svg width="19" height="53" viewBox="0 0 19 53" fill="none" xmlns="http://www.w3.org/2000/svg">
<path d="M3.60938 21.6416C3.60938 21.6416 9.81926 47.1352 15.0492 51.3838C20.2792 55.6323 17.6642 47.1348 17.6642 47.1348C17.6642 47.1348 15.703 31.4466 15.703 28.5051C15.703 25.5635 16.7428 20.0547 16.7428 20.0547C16.7428 20.0547 6.67032 22.2237 3.60938 21.6416Z" fill="url(#paint0_linear_93_12966)"/>
<path d="M3.28379 2.36029C3.28379 2.36029 0.015591 3.9944 0.995957 8.57011C1.97632 13.1458 1.64969 15.7608 1.64969 15.7608C1.64969 15.7608 2.30342 23.6052 7.85943 23.9318C13.4159 24.2585 17.0107 20.9902 17.3378 19.029C17.6644 17.0678 17.6645 11.5117 17.9915 10.5309C18.3186 9.55004 19.299 3.34021 16.0304 2.35983C12.7622 1.37946 10.801 1.05236 10.801 1.05236C10.801 1.05236 7.53234 0.0724339 3.28379 2.36029Z" fill="#CECECE"/>
<defs>
<linearGradient id="paint0_linear_93_12966" x1="16.8688" y1="36.3149" x2="5.31222" y2="36.3567" gradientUnits="userSpaceOnUse">
<stop stop-color="#BFAB8D"/>
<stop offset="0.5078" stop-color="#E7E1D2"/>
<stop offset="1" stop-color="#CCBFA6"/>
</linearGradient>
</defs>
</svg>
