<svg width="20" height="51" viewBox="0 0 20 51" fill="none" xmlns="http://www.w3.org/2000/svg">
<path d="M3.96094 20.7662C4.76391 26.0223 6.17976 31.2744 8.02296 36.2542C10.049 41.7272 12.5804 47.2007 17.5016 50.6304C17.6209 50.7134 17.7489 50.7996 17.894 50.8069C18.0419 50.8141 18.1812 50.7374 18.2996 50.6485C18.9773 50.1418 19.2269 49.2167 19.157 48.3729C19.0871 47.5291 18.7505 46.7348 18.4565 45.9408C16.6628 41.0984 16.225 35.7693 15.7138 30.6678C15.3898 27.4382 14.6218 23.4795 15.383 20.2599C16.2005 16.8043 4.46767 20.1519 3.96094 20.7662Z" fill="url(#paint0_linear_93_12974)"/>
<path d="M14.0991 0.776453C13.3724 0.448914 12.6144 0.441206 11.6018 0.689809C11.3278 0.75695 11.0357 0.861282 10.8869 1.10081C10.1901 2.22043 15.9092 4.37031 16.5928 3.43079C16.9975 2.87189 15.4719 1.75635 15.1525 1.47916C14.7914 1.16614 14.4489 0.934325 14.0991 0.776453Z" fill="#D8D6D0"/>
<path d="M4.16436 0.963507C3.8268 1.06513 3.57 1.17403 3.46202 1.26885C2.91575 1.74886 2.34814 2.25972 2.10359 2.94434C2.00559 3.21882 1.99517 3.58677 2.24471 3.73739C2.3291 3.78821 2.42981 3.80363 2.52782 3.8118C3.67253 3.90571 4.99692 3.16165 5.96513 2.63038C6.32356 2.43393 7.86481 1.7248 7.79448 1.16721C7.68786 0.32153 5.39165 0.5942 4.16436 0.963507Z" fill="#D8D6D0"/>
<path d="M2.14958 3.07362C2.14958 3.07362 -0.138287 4.70773 1.1692 8.95678C1.82294 14.8399 3.78416 20.7231 3.78416 20.7231C3.78416 20.7231 4.4379 21.7035 9.01365 21.7035C13.5894 21.7035 14.8969 21.0497 15.5506 19.7423C16.2044 18.4348 17.8385 6.01474 17.8385 6.01474C17.8385 6.01474 17.5119 3.07317 16.2044 2.74653C14.8969 2.41989 13.5894 2.09278 13.2628 2.09278C12.9361 2.09278 9.9945 0.131577 8.68702 0.458672C7.37908 0.785766 4.11036 3.40026 2.14958 3.07362Z" fill="#CECECE"/>
<defs>
<linearGradient id="paint0_linear_93_12974" x1="7.18911" y1="34.7332" x2="17.5553" y2="34.7706" gradientUnits="userSpaceOnUse">
<stop stop-color="#BFAB8D"/>
<stop offset="0.5078" stop-color="#E7E1D2"/>
<stop offset="1" stop-color="#CCBFA6"/>
</linearGradient>
</defs>
</svg>
