<svg width="26" height="51" viewBox="0 0 26 51" fill="none" xmlns="http://www.w3.org/2000/svg">
<path d="M10.7262 2.27088C10.7262 2.27088 9.8202 0.21667 7.98599 0.73113C6.15179 1.24559 5.51802 6.03949 5.8501 9.57357C6.18174 13.1076 7.75372 24.3205 10.4563 24.5514C13.1588 24.7823 18.1011 18.4314 15.8527 14.8933C13.6043 11.3556 9.88372 5.14486 10.7262 2.27088Z" fill="url(#paint0_linear_93_12916)"/>
<path d="M22.5498 32.7214C19.3509 32.491 15.7211 30.9272 12.5164 30.8006C10.5062 30.7212 8.49511 30.5883 6.48264 30.6527C5.55216 30.6822 4.16801 33.1628 3.26612 33.0481C2.68089 32.9737 3.06697 30.5701 3.09101 29.9482C3.11143 29.4187 3.15634 28.8916 3.07876 28.364C2.80021 26.4622 1.75405 24.6566 1.31898 22.7548C0.815406 20.555 0.475157 18.3125 0.266016 16.066C0.0441717 13.6829 -0.0492876 11.2485 0.262383 8.86858C0.396669 7.84239 0.57995 6.80032 0.987344 5.84263C1.30446 5.09726 2.07343 3.63419 3.05608 3.74624C3.41674 3.78753 3.73976 3.99259 4.00969 4.23621C4.53867 4.71392 4.90704 5.34995 5.15066 6.02001C5.65287 7.40233 5.64198 8.89081 5.73861 10.3389C5.83842 11.8319 6.24536 13.2147 6.58017 14.6637C7.2017 17.3562 7.93573 20.5251 9.6996 22.7322C10.1288 23.2693 10.7739 23.7039 11.4585 23.639C11.8096 23.6055 12.1376 23.444 12.4243 23.2384C13.4573 22.4976 13.9827 21.2192 14.1619 19.9607C14.5289 17.3821 14.2526 14.5376 13.5635 12.0379C13.1593 10.5707 12.4125 9.25691 11.9561 7.82242C11.4739 6.30582 10.8197 3.29711 12.9578 2.71959C13.8207 2.48641 14.7394 2.92737 15.3845 3.54617C17.7763 5.83945 19.3918 9.24875 20.775 12.2048C21.6234 14.0172 22.4422 15.8909 22.9644 17.828C23.2784 18.9926 23.2448 20.1531 23.2117 21.3557C23.1187 24.7174 22.9231 29.3879 22.5498 32.7214Z" fill="url(#paint1_linear_93_12916)"/>
<path d="M3.60693 34.8927C3.33473 34.9758 2.94458 35.7152 2.79351 35.928C2.19512 36.7723 1.67703 37.681 1.28915 38.6418C0.243895 41.2309 0.39541 44.0704 2.35616 46.1913C2.3793 46.2163 2.40289 46.2412 2.42603 46.2662C2.53174 46.3773 2.64198 46.4858 2.72818 46.6123C2.96999 46.9676 3.0276 47.4126 3.2567 47.7769C3.4731 48.1212 3.79112 48.4433 4.09916 48.7033C4.82458 49.3157 5.7909 49.7413 6.75585 49.646C7.08748 49.6133 7.40368 49.4954 7.71535 49.3783C9.06864 48.8702 10.5381 48.2909 11.2558 46.9471C11.1741 47.1005 11.5466 47.7243 11.6405 47.8513C11.8655 48.1571 12.1413 48.29 12.4893 48.4243C13.6384 48.8684 14.8892 49.225 15.9907 49.7758C16.752 50.0688 17.3944 50.3474 18.1688 50.0933C18.6197 49.9454 19.0766 49.8157 19.5225 49.6524C20.3573 49.347 21.7459 48.8126 21.7459 47.7297C21.7459 46.0552 23.1414 41.0322 19.7925 36.0092C16.4448 30.988 3.61736 34.8896 3.60693 34.8927Z" fill="#D8D6D0"/>
<path d="M3.59022 30.7577C3.2713 30.8548 2.814 31.7213 2.63752 31.9704C1.93661 32.9594 1.33006 34.0237 0.875484 35.1488C-0.34896 38.1816 -0.171121 41.5075 2.12488 43.9908C2.1521 44.0199 2.17978 44.0494 2.207 44.0784C2.33085 44.2086 2.45968 44.3356 2.56085 44.484C2.84439 44.9005 2.91154 45.4208 3.17965 45.8482C3.4328 46.251 3.80526 46.6285 4.16638 46.9334C5.01609 47.6506 6.14799 48.1487 7.27762 48.0376C7.66596 47.9995 8.03614 47.8611 8.40134 47.7241C9.98645 47.1293 11.7077 46.4502 12.5483 44.8764C12.4526 45.0556 12.889 45.7865 12.9988 45.9357C13.2624 46.2937 13.5858 46.4493 13.9928 46.6067C15.3388 47.1271 16.8037 47.5444 18.0939 48.1896C18.9854 48.533 19.7375 48.8592 20.6449 48.5616C21.1729 48.3883 21.7083 48.2363 22.2304 48.0453C23.2081 47.6878 24.8349 47.0617 24.8349 45.7933C24.8349 43.8321 26.469 37.9489 22.5471 32.0657C18.6265 26.1843 3.60247 30.7541 3.59022 30.7577Z" fill="#CECECE"/>
<defs>
<linearGradient id="paint0_linear_93_12916" x1="14.2357" y1="23.5252" x2="-4.32608" y2="-21.8405" gradientUnits="userSpaceOnUse">
<stop offset="0.1599" stop-color="#BFAB8D"/>
<stop offset="0.5078" stop-color="#E7E1D2"/>
<stop offset="0.7297" stop-color="#CCBFA6"/>
</linearGradient>
<linearGradient id="paint1_linear_93_12916" x1="1.36235" y1="17.5358" x2="22.2729" y2="18.4812" gradientUnits="userSpaceOnUse">
<stop offset="0.1599" stop-color="#BFAB8D"/>
<stop offset="0.5078" stop-color="#E7E1D2"/>
<stop offset="0.7297" stop-color="#CCBFA6"/>
</linearGradient>
</defs>
</svg>
