<svg width="29" height="50" viewBox="0 0 29 50" fill="none" xmlns="http://www.w3.org/2000/svg">
<path d="M9.10989 0.418664C7.79697 0.508029 6.78347 0.893161 5.70555 1.63349C5.41384 1.83399 5.13756 2.07577 5.19517 2.36246C5.46375 3.70157 15.3392 2.62557 15.2444 1.45113C15.1854 0.753443 11.9739 0.566549 11.2548 0.488978C10.4432 0.401428 9.74185 0.376022 9.10989 0.418664Z" fill="#D8D6D0"/>
<path d="M19.2736 45.7848C19.9491 47.9488 18.354 48.8317 16.8723 47.5496C14.0079 45.0707 12.3502 41.0943 10.8921 37.4518C10.2171 35.7651 7.31861 29.8338 8.84383 28.4002C10.3573 26.9775 16.2898 29.6864 16.5938 33.4927C16.7585 35.5573 16.8279 37.6279 17.1831 39.6934C17.5696 41.9382 18.6117 43.6644 19.2736 45.7848Z" fill="url(#paint0_linear_93_12986)"/>
<path d="M2.49797 20.5126C2.68579 21.287 2.85229 22.075 2.88904 22.2275C3.20434 23.5354 3.47789 24.8538 3.69747 26.1812C3.87667 27.2659 4.02002 28.357 4.12664 29.4512C4.23007 30.5119 4.13979 31.6796 4.34213 32.7194C4.54129 33.7443 4.90651 34.8195 5.25175 35.8094C6.28838 38.7822 7.85853 41.5487 9.72311 44.0775C10.6586 45.3459 11.6703 46.5576 12.7382 47.7168C13.3942 48.429 14.7888 50.5377 15.9479 49.6616C16.383 49.3327 16.5576 48.7461 16.5295 48.2013C16.5014 47.6564 16.3018 47.1374 16.1126 46.6257C14.6554 42.6774 13.2699 37.7887 14.0892 33.5528C14.1745 33.1114 14.3079 32.6555 14.6245 32.3365C15.0397 31.9187 15.7043 31.8248 16.2723 31.9813C16.8403 32.1378 17.3248 32.5094 17.7476 32.9195C19.1989 34.3281 20.2301 36.3084 21.117 38.1094C21.7884 39.4732 22.2816 40.9263 22.5651 42.4202C22.8364 43.8502 22.6059 45.5496 23.1803 46.8915C23.5019 47.6437 24.2192 48.2884 25.0367 48.2648C25.6732 48.2466 26.2366 47.837 26.6563 47.3579C28.2024 45.5927 28.4986 42.78 28.5889 40.5293C28.7023 37.693 28.2986 34.8666 27.859 32.0725C27.2606 28.2685 26.4916 24.4904 25.6328 20.7372C25.5997 20.5915 25.1324 18.2238 25.038 18.2266C25.038 18.2266 2.16317 18.8613 1.95312 18.8671C2.07017 18.8649 2.29654 19.681 2.49797 20.5126Z" fill="url(#paint1_linear_93_12986)"/>
<path d="M20.3955 0.244848C19.2097 0.177253 18.2442 0.436293 17.165 1.0383C16.8728 1.20117 16.5879 1.40713 16.5938 1.69611C16.6206 3.04802 25.6044 3.15917 25.7065 1.99008C25.7646 1.29507 22.9283 0.729818 22.2991 0.567861C21.5882 0.385942 20.9662 0.277512 20.3955 0.244848Z" fill="#D8D6D0"/>
<path d="M4.45329 1.29471C3.50015 1.38998 2.60237 1.75699 1.82887 2.5636C0.832175 3.60294 0.333148 5.04468 0.209752 6.47916C-0.0547332 9.5568 0.471968 13.2169 1.24093 16.1984C1.485 17.1448 1.50948 19.1336 2.15913 19.864C4.18065 22.1364 8.62247 21.0308 11.3104 20.8444C14.389 20.6307 17.7034 20.5286 20.4617 19.864C22.2877 19.7724 25.6407 20.1766 26.1951 17.7617C26.8302 14.9939 27.2213 12.1635 27.3519 9.3268C27.4499 7.20729 27.7593 1.9702 24.7125 1.56146C24.2666 1.50157 23.5139 2.00423 23.0671 2.10585C22.1348 2.31726 21.2252 2.28868 20.2997 2.0428C19.1615 1.74066 18.1045 1.19627 17.0134 0.753037C16.7761 0.656861 16.5294 0.563859 16.2735 0.570664C15.6905 0.586543 15.2623 1.09147 14.7959 1.44169C12.8329 2.917 9.31431 2.15167 7.14716 1.58505C6.23756 1.34687 5.32206 1.20806 4.45329 1.29471Z" fill="#CECECE"/>
<defs>
<linearGradient id="paint0_linear_93_12986" x1="11.5105" y1="27.4915" x2="19.2722" y2="71.7837" gradientUnits="userSpaceOnUse">
<stop offset="0.1599" stop-color="#BFAB8D"/>
<stop offset="0.5078" stop-color="#E7E1D2"/>
<stop offset="0.7297" stop-color="#CCBFA6"/>
</linearGradient>
<linearGradient id="paint1_linear_93_12986" x1="4.54006" y1="33.9932" x2="27.0672" y2="34.0746" gradientUnits="userSpaceOnUse">
<stop stop-color="#BFAB8D"/>
<stop offset="0.5078" stop-color="#E7E1D2"/>
<stop offset="1" stop-color="#CCBFA6"/>
</linearGradient>
</defs>
</svg>
