<svg width="27" height="49" viewBox="0 0 27 49" fill="none" xmlns="http://www.w3.org/2000/svg">
<path d="M15.8927 42.3944C16.0945 44.3516 14.8247 44.7966 13.9237 43.4329C12.1812 40.797 11.5089 37.1223 10.9373 33.7683C10.6724 32.2149 9.36219 26.6542 10.6542 25.7297C11.9363 24.8128 15.8659 28.2221 15.5824 31.4968C15.4286 33.2733 15.2044 35.0368 15.1881 36.8501C15.17 38.8208 15.6944 40.4772 15.8927 42.3944Z" fill="url(#paint0_linear_93_13000)"/>
<path d="M4.26562 20.1325C4.95111 22.0909 5.50369 24.1351 5.82261 26.1857C6.03719 27.5657 6.00544 28.7924 5.79585 30.1584C5.4429 32.4539 5.41793 34.8497 5.51683 37.1652C5.67108 40.7768 7.40362 43.4969 8.78865 46.7456C9.29766 47.9392 10.4749 48.5657 11.542 47.4674C12.8952 46.0746 12.5305 43.1471 12.5844 41.3806C12.6579 38.9626 12.707 36.5278 13.1906 34.1483C13.3988 33.124 13.6914 32.1028 14.2263 31.2045C14.758 30.3113 15.7406 29.8757 16.6819 30.519C17.9354 31.3755 18.2181 33.2519 18.6509 34.5875C19.0569 35.84 19.4248 37.1048 19.78 38.3728C20.2818 40.1639 20.7459 41.9653 21.224 43.7623C21.4218 44.5063 22.0692 46.2538 23.163 45.4944C23.5323 45.2376 23.7146 44.793 23.8684 44.3707C24.3734 42.9815 24.7766 41.5584 25.179 40.1366C25.7185 38.2317 26.2148 36.3322 26.3309 34.3484C26.4893 31.6437 25.4236 28.9711 24.9028 26.3531C24.3493 23.5708 24.0036 20.7472 23.8711 17.9136C23.8625 17.7272 23.848 17.5244 23.7224 17.3865C23.5522 17.2005 23.2605 17.215 23.0105 17.2436C19.9388 17.5956 16.8607 17.8819 13.7921 18.2657C11.7157 18.5238 9.63656 18.7969 7.5783 19.1762C6.67097 19.3436 4.9688 19.4298 4.26562 20.1325Z" fill="url(#paint1_linear_93_13000)"/>
<path d="M1.86496 15.8906C1.76243 14.6639 1.79056 13.4208 1.55692 12.2091C1.19217 10.3178 0.237189 8.67005 0.372381 6.66621C0.698113 1.84191 7.44002 1.46899 10.8298 2.80504C12.2394 3.36033 12.8178 2.8359 14.0028 2.08735C15.2866 1.27619 16.8014 0.851562 18.3189 0.851562C20.0542 0.851562 21.9691 1.34515 23.4512 2.25702C25.6438 3.60623 25.642 5.81967 25.7926 8.14289C25.9591 10.7125 25.9001 13.3596 25.0504 15.8167C24.7905 16.5688 24.4461 17.3079 23.9045 17.8908C23.1341 18.7197 22.1538 18.829 21.1135 19.0686C19.6936 19.3956 18.2577 19.6724 16.8264 19.9432C14.0196 20.4745 11.1864 20.9068 8.33058 21.0502C6.97639 21.1182 5.57413 20.9808 4.37146 20.3542C2.62984 19.4474 2.01966 17.7416 1.86496 15.8906Z" fill="#CECECE"/>
<defs>
<linearGradient id="paint0_linear_93_13000" x1="12.701" y1="25.4632" x2="10.5914" y2="64.2689" gradientUnits="userSpaceOnUse">
<stop offset="0.1599" stop-color="#BFAB8D"/>
<stop offset="0.5078" stop-color="#E7E1D2"/>
<stop offset="0.7297" stop-color="#CCBFA6"/>
</linearGradient>
<linearGradient id="paint1_linear_93_13000" x1="6.79252" y1="34.0238" x2="24.2865" y2="30.6197" gradientUnits="userSpaceOnUse">
<stop stop-color="#BFAB8D"/>
<stop offset="0.5078" stop-color="#E7E1D2"/>
<stop offset="1" stop-color="#CCBFA6"/>
</linearGradient>
</defs>
</svg>
