<svg width="25" height="40" viewBox="0 0 25 40" fill="none" xmlns="http://www.w3.org/2000/svg">
<path d="M15.5374 36.5749C15.8322 38.4282 14.6463 38.9191 13.7163 37.6674C11.9188 35.248 11.0854 31.7838 10.365 28.6194C10.0315 27.1541 8.49175 21.9265 9.67403 20.9783C10.8472 20.0379 14.7684 23.0788 14.6699 26.2127C14.6164 27.9126 14.4957 29.6039 14.5751 31.3319C14.6613 33.2097 15.2479 34.7589 15.5374 36.5749Z" fill="url(#paint0_linear_93_13016)"/>
<path d="M3.0625 13.2693C3.0625 13.2693 4.36996 16.8646 4.36996 20.7865C4.36996 24.7085 4.04331 29.6113 6.33112 33.2066C8.61893 36.8019 9.27265 38.436 9.27265 38.436C9.27265 38.436 11.2339 40.7239 12.2142 38.1094C12.2142 38.1094 9.9264 30.265 11.2338 26.3431C12.5413 22.4211 13.8483 23.7281 14.1754 24.3819C14.502 25.0356 19.0781 32.5529 19.7313 34.5141C20.3851 36.4753 21.3655 38.436 22.0192 38.436C22.6729 38.436 23.6533 36.8019 24.307 33.8603C24.9607 30.9187 24.307 27.6505 22.9995 25.3622C21.6921 23.0744 20.3846 12.9422 20.3846 11.3081C20.3846 9.67394 4.69659 12.6155 3.0625 13.2693Z" fill="url(#paint1_linear_93_13016)"/>
<path d="M10.6155 3.00053C10.3052 2.92704 9.98394 2.72425 9.61103 2.47881C8.59845 1.81147 7.54685 1.16772 6.37867 0.843348C5.21002 0.518975 3.8953 0.547102 2.85549 1.1709C2.12419 1.60959 1.58253 2.30461 1.13657 3.03139C0.438835 4.16874 -0.0760835 5.49027 0.0840603 6.81498C0.266434 8.32569 0.865738 9.81327 1.48045 11.1933C1.85337 12.0303 2.16412 12.9853 2.836 13.6404C3.61993 14.4044 4.93786 14.5119 5.97086 14.6566C8.19291 14.9674 10.424 14.6888 12.5934 14.1739C14.7502 13.6617 16.979 13.0937 19.0758 12.3797C19.4528 12.2513 19.8294 12.1029 20.1451 11.8607C21.0302 11.1806 21.2122 9.63498 21.4249 8.61513C21.7479 7.06495 21.5506 5.46214 20.9164 4.01721C20.0998 2.15672 18.5383 0.514437 16.465 0.195509C14.9811 -0.0326865 13.6636 0.271726 12.6651 1.42178C12.3344 1.80286 12.0713 2.24563 11.7138 2.60357C11.32 2.99781 10.9752 3.08582 10.6155 3.00053Z" fill="#CDCAC5"/>
<defs>
<linearGradient id="paint0_linear_93_13016" x1="11.6054" y1="20.6121" x2="11.6296" y2="57.6815" gradientUnits="userSpaceOnUse">
<stop offset="0.1599" stop-color="#BFAB8D"/>
<stop offset="0.5078" stop-color="#E7E1D2"/>
<stop offset="0.7297" stop-color="#CCBFA6"/>
</linearGradient>
<linearGradient id="paint1_linear_93_13016" x1="4.95693" y1="25.056" x2="21.7149" y2="25.1165" gradientUnits="userSpaceOnUse">
<stop stop-color="#BFAB8D"/>
<stop offset="0.5078" stop-color="#E7E1D2"/>
<stop offset="1" stop-color="#CCBFA6"/>
</linearGradient>
</defs>
</svg>
