<svg width="19" height="55" viewBox="0 0 19 55" fill="none" xmlns="http://www.w3.org/2000/svg">
<path d="M9.28513 54.2803C9.28513 54.2803 3.98621 55.3759 2.10845 52.6235C0.230234 49.8707 8.65361 52.6199 9.28513 54.2803Z" fill="#D8D6D0"/>
<path d="M10.0625 54.5154C10.0625 54.5154 15.7058 54.8969 17.1099 51.2376C18.514 47.5783 10.3955 52.3972 10.0625 54.5154Z" fill="#D8D6D0"/>
<path d="M12.3155 33.988C12.3985 34.0289 12.4775 34.0752 12.5519 34.1273C13.9895 35.1318 15.2013 36.7591 16.1155 38.2312C17.5046 40.4678 18.4963 43.0261 18.2291 45.6955C18.0467 47.5201 17.8421 49.6184 16.9303 51.257C16.3976 52.2143 15.2004 52.653 14.2255 52.9923C13.3902 53.2831 12.5473 53.5562 11.7284 53.8915C10.9722 54.2009 10.23 54.7285 9.37796 54.6605C8.39848 54.582 7.71434 53.8144 6.93085 53.3162C5.70139 52.535 4.22967 52.1344 2.77338 52.2047C2.51751 52.217 2.2553 52.2428 2.00986 52.168C1.65191 52.0591 1.39014 51.7552 1.17918 51.4467C0.218301 50.043 0.243705 48.6829 0.235539 47.0506C0.226919 45.392 0.259129 43.7234 0.575339 42.0902C1.13835 39.1799 3.06102 36.7722 4.0718 34.0253C4.12987 33.8669 4.18794 33.705 4.29455 33.5743C4.47693 33.3506 4.77545 33.254 5.06308 33.2309C5.60204 33.1873 6.14508 33.2708 6.67906 33.328C7.69166 33.4368 8.68021 33.5498 9.69825 33.6197C10.5053 33.6755 11.5638 33.6165 12.3155 33.988Z" fill="#CECECE"/>
<path d="M14.4571 35.8977C14.4208 35.9272 14.3773 35.9503 14.3242 35.9648C14.0575 36.0397 13.2354 35.6373 12.9446 35.5611C11.9805 35.3088 11.0056 35.0979 10.0248 34.9223C8.98539 34.7363 7.93559 34.5598 6.87718 34.5512C6.31689 34.5467 5.75342 34.5857 5.20493 34.7046C4.71769 34.8103 4.19279 35.1442 3.7314 35.1859C3.39523 33.8753 3.7364 32.351 3.81443 31.0199C3.90108 29.5401 4.03718 28.0634 4.22183 26.5926C4.56843 23.8325 5.2571 21.1754 5.75932 18.4503C6.24838 15.7995 6.38448 12.9972 6.32596 10.2979C6.29828 9.02857 6.22161 7.75695 6.07598 6.49576C5.95213 5.41922 5.64182 4.45563 5.75206 3.34007C5.86412 2.20591 6.39628 0.488349 7.89385 0.952901C9.02123 1.30268 9.72307 2.54253 10.292 3.48524C11.3758 5.28039 12.1647 7.23614 12.8915 9.20277C13.6174 11.1667 14.2866 13.1646 14.6654 15.2279C14.9961 17.0276 14.9557 18.7891 14.9244 20.6061C14.8754 23.4905 14.8065 26.3744 14.7352 29.2583C14.6894 31.1188 14.7956 33.0605 14.649 34.9477C14.6227 35.3007 14.6744 35.7199 14.4571 35.8977Z" fill="url(#paint0_linear_93_12904)"/>
<defs>
<linearGradient id="paint0_linear_93_12904" x1="0.822127" y1="19.4733" x2="15.1818" y2="17.9653" gradientUnits="userSpaceOnUse">
<stop stop-color="#BFAB8D"/>
<stop offset="0.5078" stop-color="#E7E1D2"/>
<stop offset="1" stop-color="#CCBFA6"/>
</linearGradient>
</defs>
</svg>
