<svg width="19" height="58" viewBox="0 0 19 58" fill="none" xmlns="http://www.w3.org/2000/svg">
<path d="M9.50703 56.2873C9.50703 56.2873 4.16094 57.1225 2.41974 54.2811C0.678997 51.4398 8.95764 54.5978 9.50703 56.2873Z" fill="#D8D6D0"/>
<path d="M4.14062 38.368C4.14062 38.368 4.46727 27.2555 5.4481 24.3139C6.42893 21.3723 7.40931 11.5673 7.08221 8.95239C6.75557 6.33747 6.75556 2.41554 6.75556 2.41554C6.75556 2.41554 6.42893 -0.526009 9.37051 1.76182C12.3121 4.04964 15.9074 15.1621 15.5803 19.7378C15.2532 24.3134 15.1502 38.1021 15.2019 38.0717C15.2532 38.0409 4.14062 38.368 4.14062 38.368Z" fill="url(#paint0_linear_93_12893)"/>
<path d="M14.9291 37.0629C14.9291 37.0629 22.4464 48.1754 16.8903 54.0585C16.2116 54.7771 15.1441 55.2825 14.3171 55.8083C13.4633 56.3513 12.5523 57.1053 11.5116 57.2228C10.318 57.358 9.44426 56.1091 8.27107 55.8655C6.40604 55.478 4.58094 55.7847 2.98811 54.5126C1.67293 53.4624 0.875376 51.8251 0.604537 50.1856C0.267008 48.14 0.616332 46.0613 1.02373 44.053C1.19748 43.1969 1.49327 42.3826 1.83942 41.5805C2.20825 40.7258 2.87333 39.8915 3.16277 39.0232C3.16277 39.0241 5.77726 31.1798 14.9291 37.0629Z" fill="#CECECE"/>
<defs>
<linearGradient id="paint0_linear_93_12893" x1="5.04039" y1="19.6768" x2="17.933" y2="19.2796" gradientUnits="userSpaceOnUse">
<stop stop-color="#BFAB8D"/>
<stop offset="0.5078" stop-color="#E7E1D2"/>
<stop offset="1" stop-color="#CCBFA6"/>
</linearGradient>
</defs>
</svg>
