<svg width="21" height="70" viewBox="0 0 21 70" fill="none" xmlns="http://www.w3.org/2000/svg">
<path d="M17.0233 45.4848C17.0233 45.4848 4.94148 42.4566 3.9375 44.1833L8.81679 9.63054C8.81679 9.63054 8.66526 0.75 9.97275 0.75C11.2802 0.75 12.5877 4.67196 12.5877 4.67196C12.5877 4.67196 16.732 37.2149 17.0233 45.4848Z" fill="url(#paint0_linear_93_12829)"/>
<path d="M14.7031 41.988C14.7035 41.9889 21.8937 51.467 20.5862 59.3109C20.1643 61.8419 19.3005 64.4872 17.7748 66.5746C17.0308 67.5926 16.0641 68.514 14.8451 68.9177C13.2327 69.4517 11.1636 69.0325 9.54714 68.6719C8.75141 68.4945 7.96972 68.2499 7.22843 67.9088C2.04573 65.5252 0.676568 59.3798 1.09349 54.1717C1.38656 50.5134 2.49715 46.9643 3.94072 43.6117C4.87708 41.4368 7.05831 40.867 9.23546 40.559C10.8741 40.3272 13.5889 40.5191 14.7031 41.988Z" fill="url(#paint1_linear_93_12829)"/>
<path d="M14.6716 41.9723C14.6725 41.9732 21.8621 51.4512 20.5547 59.2951C20.1328 61.8261 19.269 64.4714 17.7434 66.5587C16.9994 67.5767 16.0326 68.4981 14.8136 68.9019C13.2013 69.4358 11.1321 69.0167 9.51575 68.656C8.72003 68.4786 7.93838 68.2341 7.19709 67.8929C2.01447 65.5094 0.645322 59.364 1.06224 54.156C1.3553 50.4976 2.46588 46.9486 3.90943 43.596C4.84578 41.4211 7.02698 40.8513 9.2041 40.5433C10.8427 40.3115 13.5574 40.5038 14.6716 41.9723Z" fill="#CECECE"/>
<defs>
<linearGradient id="paint0_linear_93_12829" x1="5.59821" y1="23.3609" x2="15.203" y2="23.065" gradientUnits="userSpaceOnUse">
<stop stop-color="#BFAB8D"/>
<stop offset="0.5078" stop-color="#E7E1D2"/>
<stop offset="1" stop-color="#CCBFA6"/>
</linearGradient>
<linearGradient id="paint1_linear_93_12829" x1="-4.48517" y1="54.5333" x2="27.3194" y2="55.1018" gradientUnits="userSpaceOnUse">
<stop stop-color="#94938C"/>
<stop offset="0.2666" stop-color="#EDEBE1"/>
<stop offset="0.7117" stop-color="#EDEBE1"/>
<stop offset="1" stop-color="#94938C"/>
</linearGradient>
</defs>
</svg>
