<svg width="19" height="61" viewBox="0 0 19 61" fill="none" xmlns="http://www.w3.org/2000/svg">
<path d="M12.3562 34.7718C12.3562 34.7718 15.6244 36.0793 16.6053 43.5965C16.6053 43.5965 17.5856 51.4409 17.9127 53.7287C18.2394 56.0165 18.2394 58.9581 14.6445 59.9385C11.0492 60.9188 7.78091 60.2651 5.8197 59.6118C3.85849 58.9586 0.916894 56.9969 0.263156 54.7091C-0.390582 52.4212 0.263149 41.3087 1.24353 39.3475C2.22391 37.3867 4.51177 32.1574 12.3562 34.7718Z" fill="#CECECE"/>
<path d="M9.0896 3.72526C9.0896 3.72526 16.2637 19.4103 13.3304 35.9173C13.3304 35.9173 2.92851 34.6842 2.41406 37.5079C3.87302 30.6407 4.57391 23.4139 4.28674 16.4038C4.17061 13.5598 3.96964 10.7199 3.88979 7.87448C3.83808 6.02172 3.51598 3.90491 4.31124 2.17917C4.64513 1.45377 5.19723 0.387648 6.10318 0.302813C7.64062 0.159002 8.62868 2.66504 9.0896 3.72526Z" fill="url(#paint0_linear_93_12877)"/>
<defs>
<linearGradient id="paint0_linear_93_12877" x1="5.0431" y1="18.9151" x2="14.0238" y2="19.0756" gradientUnits="userSpaceOnUse">
<stop stop-color="#BFAB8D"/>
<stop offset="0.5078" stop-color="#E7E1D2"/>
<stop offset="1" stop-color="#CCBFA6"/>
</linearGradient>
</defs>
</svg>
