<svg width="26" height="75" viewBox="0 0 26 75" fill="none" xmlns="http://www.w3.org/2000/svg">
<path d="M12.9857 0.891539C14.5386 2.41722 15.3126 5.67047 16.0943 7.65662C18.4842 13.7285 20.3006 20.0345 21.3531 26.4779C21.8771 29.6849 22.2119 32.9236 22.3394 36.171C22.4038 37.8042 22.4161 39.4392 22.3748 41.0733C22.3412 42.4107 22.5617 44.3556 22.006 45.5687C21.3218 44.7956 20.8346 43.8661 20.1105 43.1225C18.3403 41.3042 16.0516 40.004 13.4671 40.0026C12.376 40.0022 11.304 40.2236 10.2846 40.596C9.87088 40.7471 9.46621 40.9227 9.07198 41.1187C7.92194 41.6903 6.53779 43.4156 5.3138 43.5086C5.13506 41.1164 5.74025 38.4316 5.96754 36.0326C5.96754 29.9426 7.17065 23.5109 8.08207 17.5021C8.35608 15.6947 8.76846 13.9113 8.73035 12.0785C8.69089 10.1863 8.47858 8.2963 8.60697 6.40269C8.7222 4.70734 8.93451 0.612987 11.2695 0.353036C11.7286 0.301771 12.1805 0.471894 12.611 0.639297C12.7494 0.693737 12.8732 0.780844 12.9857 0.891539Z" fill="url(#paint0_linear_93_12867)"/>
<path d="M25.2683 69.5401C25.2683 69.5401 27.5562 42.7394 15.4632 38.8171C15.4632 38.8171 1.73569 36.5292 0.428675 60.3883C0.428675 60.3883 -1.20544 71.5008 5.00436 72.8083C15.7899 75.0965 25.2683 74.7694 25.2683 69.5401Z" fill="#CECECE"/>
<defs>
<linearGradient id="paint0_linear_93_12867" x1="18.6721" y1="22.9217" x2="5.19112" y2="23.1627" gradientUnits="userSpaceOnUse">
<stop stop-color="#BFAB8D"/>
<stop offset="0.5078" stop-color="#E7E1D2"/>
<stop offset="1" stop-color="#CCBFA6"/>
</linearGradient>
</defs>
</svg>
