<svg width="27" height="75" viewBox="0 0 27 75" fill="none" xmlns="http://www.w3.org/2000/svg">
<path d="M13.2722 0.891539C11.7193 2.41722 10.9454 5.67047 10.1637 7.65662C7.77387 13.7285 5.95744 20.0345 4.90496 26.4779C4.38099 29.6849 4.04619 32.9236 3.91871 36.171C3.85429 37.8042 3.84205 39.4392 3.88333 41.0733C3.9169 42.4107 3.69642 44.3556 4.25215 45.5687C4.93626 44.7956 5.42348 43.8661 6.14751 43.1225C7.91767 41.3042 10.2064 40.004 12.7908 40.0026C13.8819 40.0022 14.9539 40.2236 15.9732 40.596C16.387 40.7471 16.7916 40.9227 17.1858 41.1187C18.3359 41.6903 19.7199 43.4156 20.9434 43.5086C21.1222 41.1164 20.5175 38.4316 20.2897 36.0326C20.2897 29.9426 19.0867 23.5109 18.1753 17.5021C17.9013 15.6947 17.4889 13.9113 17.527 12.0785C17.5665 10.1863 17.7788 8.2963 17.6504 6.40269C17.5351 4.70734 17.3228 0.612987 14.9879 0.353036C14.5288 0.301771 14.0769 0.471894 13.6464 0.639297C13.509 0.693737 13.3851 0.780844 13.2722 0.891539Z" fill="url(#paint0_linear_93_12870)"/>
<path d="M0.992713 69.5401C0.992713 69.5401 -1.29512 42.7394 10.7978 38.8171C10.7978 38.8171 24.5252 36.5292 25.8322 60.3883C25.8322 60.3883 27.4663 71.5008 21.2566 72.8083C10.4711 75.0965 0.992713 74.7694 0.992713 69.5401Z" fill="#CECECE"/>
<defs>
<linearGradient id="paint0_linear_93_12870" x1="7.5861" y1="22.9217" x2="21.0668" y2="23.1627" gradientUnits="userSpaceOnUse">
<stop stop-color="#BFAB8D"/>
<stop offset="0.5078" stop-color="#E7E1D2"/>
<stop offset="1" stop-color="#CCBFA6"/>
</linearGradient>
</defs>
</svg>
