<?xml version="1.0" encoding="utf-8"?>
<!-- Generator: Adobe Illustrator 25.3.1, SVG Export Plug-In . SVG Version: 6.00 Build 0)  -->
<svg version="1.1" id="icon" xmlns="http://www.w3.org/2000/svg" xmlns:xlink="http://www.w3.org/1999/xlink" x="0px" y="0px"
	 viewBox="0 0 243.4 226" style="enable-background:new 0 0 243.4 226;" xml:space="preserve">
<style type="text/css">
	.st0{fill:#D73F34;}
</style>
<path class="st0" d="M62,21.5l-12.7-6.9l-7-12.7c-1.3-2.4-5.3-2.4-6.7,0l-7,12.7L16,21.5c-1.2,0.7-2,1.9-2,3.3c0,1.4,0.8,2.7,2,3.3
	l12.7,7l7,12.7c0.7,1.2,1.9,2,3.3,2c1.4,0,2.7-0.8,3.3-2l7-12.7l12.7-7c1.2-0.7,2-1.9,2-3.3S63.2,22.2,62,21.5z M44.6,29
	c-0.6,0.4-1.2,0.9-1.5,1.5L39,38.1l-4.1-7.6c-0.4-0.6-0.9-1.2-1.5-1.5l-7.6-4.1l7.6-4.1c0.6-0.4,1.2-0.9,1.5-1.5l4.1-7.6l4.1,7.6
	c0.4,0.6,0.9,1.2,1.5,1.5l7.6,4.1L44.6,29z"/>
<path class="st0" d="M90.8,132.8H56.2v26.1h34.6V132.8z M84.4,152.5H62.5v-13.3h21.9V152.5z"/>
<path class="st0" d="M152.8,174.7H90.5v6.4h62.2V174.7z"/>
<path class="st0" d="M174,53.4H72.9c-8,0-14.6,6.7-14.6,14.6v43.5H54c-8,0-14.6,6.7-14.6,14.6V188c0,8,6.7,14.6,14.6,14.6h104.2
	c8,0,14.6-6.7,14.6-14.9v-43.2h1.3c8,0,14.6-6.7,14.6-14.9V68C188.6,60,182,53.4,174,53.4z M72.9,59.7H174c4.4,0,8.3,3.8,8.3,8.3
	v6.4H64.6V68C64.6,63.5,68.4,59.7,72.9,59.7z M166.4,187.7c0,4.4-3.8,8.3-8.3,8.3H54c-4.4,0-8.3-3.8-8.3-8.3v-61.6
	c0-4.4,3.8-8.3,8.3-8.3h104.2c4.4,0,8.3,3.8,8.3,8.3L166.4,187.7L166.4,187.7z M174,138.2h-1.3v-12.1c0-8-6.7-14.6-14.6-14.6H64.6
	V80.7h117.6v49.2C182.3,134.4,178.5,138.2,174,138.2z"/>
<path class="st0" d="M34.4,204.5l-8.3-4.6l-4.6-8.3c-1.3-2.4-5.3-2.4-6.7,0l-4.6,8.3L2,204.5c-1.2,0.7-2,1.9-2,3.3
	c0,1.4,0.8,2.7,2,3.3l8.3,4.6l4.6,8.3c0.7,1.2,1.9,2,3.3,2c1.4,0,2.7-0.8,3.3-2l4.6-8.3l8.3-4.6c1.2-0.7,2-1.9,2-3.3
	C36.4,206.4,35.6,205.1,34.4,204.5z M21.5,209.5c-0.6,0.4-1.2,0.9-1.5,1.5l-1.8,3.2l-1.8-3.2c-0.4-0.6-0.9-1.2-1.5-1.5l-3.2-1.7
	l3.2-1.7c0.6-0.4,1.2-0.9,1.5-1.5l1.8-3.2l1.8,3.2c0.4,0.6,0.9,1.2,1.5,1.5l3.2,1.7L21.5,209.5z"/>
<path class="st0" d="M241.4,82.6l-8.3-4.6l-4.6-8.3c-1.3-2.4-5.3-2.4-6.7,0l-4.6,8.3l-8.3,4.6c-1.2,0.7-2,1.9-2,3.3
	c0,1.4,0.8,2.7,2,3.3l8.3,4.6l4.6,8.3c0.7,1.2,1.9,2,3.3,2c1.4,0,2.7-0.8,3.3-2l4.6-8.3l8.3-4.6c1.2-0.7,2-1.9,2-3.3
	C243.4,84.6,242.6,83.3,241.4,82.6z M228.5,87.7c-0.6,0.4-1.2,0.9-1.5,1.5l-1.8,3.2l-1.8-3.2c-0.3-0.6-0.9-1.2-1.5-1.5l-3.2-1.7
	l3.2-1.7c0.6-0.4,1.2-0.9,1.5-1.5l1.8-3.2l1.8,3.2c0.4,0.6,0.9,1.2,1.5,1.5l3.2,1.7L228.5,87.7z"/>
</svg>
