<?xml version="1.0" encoding="utf-8"?>
<!-- Generator: Adobe Illustrator 25.3.1, SVG Export Plug-In . SVG Version: 6.00 Build 0)  -->
<svg version="1.1" id="icon" xmlns="http://www.w3.org/2000/svg" xmlns:xlink="http://www.w3.org/1999/xlink" x="0px" y="0px"
	 viewBox="0 0 153 153" style="enable-background:new 0 0 153 153;" xml:space="preserve">
<style type="text/css">
	.st0{clip-path:url(#SVGID_2_);}
	.st1{fill:#D73F34;}
</style>
<g>
	<defs>
		<rect id="SVGID_1_" y="0" width="153" height="153"/>
	</defs>
	<clipPath id="SVGID_2_">
		<use xlink:href="#SVGID_1_"  style="overflow:visible;"/>
	</clipPath>
	<g class="st0">
		<path class="st1" d="M54.4,15l-8.9-4.9l-4.9-8.9c-0.9-1.7-3.7-1.7-4.7,0l-4.9,8.9L22.3,15c-0.9,0.5-1.4,1.4-1.4,2.3
			c0,1,0.5,1.9,1.4,2.3l8.9,4.9l4.9,8.9c0.5,0.9,1.4,1.4,2.3,1.4c1,0,1.9-0.5,2.3-1.4l4.9-8.9l8.9-4.9c0.9-0.5,1.4-1.4,1.4-2.3
			C55.8,16.4,55.3,15.5,54.4,15z M42.3,20.2c-0.4,0.2-0.8,0.6-1.1,1.1l-2.9,5.3l-2.9-5.3c-0.2-0.4-0.6-0.8-1.1-1.1l-5.3-2.9l5.3-2.9
			c0.4-0.2,0.8-0.6,1.1-1.1l2.9-5.3l2.9,5.3c0.2,0.4,0.6,0.8,1.1,1.1l5.3,2.9L42.3,20.2z"/>
		<path class="st1" d="M50.2,137.9l-5.8-3.2l-3.2-5.8c-0.9-1.7-3.7-1.7-4.7,0l-3.2,5.8l-5.8,3.2c-0.9,0.5-1.4,1.4-1.4,2.3
			c0,1,0.5,1.9,1.4,2.3l5.8,3.2l3.2,5.8c0.5,0.9,1.4,1.4,2.3,1.4c1,0,1.9-0.5,2.3-1.4l3.2-5.8l5.8-3.2c0.9-0.5,1.4-1.4,1.4-2.3
			C51.6,139.3,51.1,138.4,50.2,137.9z M41.2,141.5c-0.4,0.2-0.8,0.6-1.1,1.1l-1.2,2.2l-1.2-2.2c-0.2-0.4-0.6-0.8-1.1-1.1l-2.2-1.2
			l2.2-1.2c0.4-0.2,0.8-0.6,1.1-1.1l1.2-2.2l1.2,2.2c0.2,0.4,0.6,0.8,1.1,1.1l2.2,1.2L41.2,141.5z"/>
		<path class="st1" d="M93.5,31.8c-3.3,0-6.3,1.4-9.3,2.8c-2.5,1.2-4.9,2.3-7,2.3s-4.5-1.1-7-2.3c-2.9-1.4-6-2.8-9.3-2.8
			c-12.4,0-21.5,13.3-21.5,31.7c0,10.3,5.9,69.3,21.5,69.3c5.2,0,6.9-8.3,9.4-20.9c1.2-5.8,4.2-21.2,6.8-21.2
			c3.7,0,6.3,14.7,7.7,22.5c2.1,11.8,3.4,19.5,8.6,19.5c15.5,0,21.5-59.1,21.5-69.3C114.9,45.2,105.9,31.8,93.5,31.8z M93.8,127.5
			c-1.4-1.8-2.8-9.8-3.7-15.1c-2.3-13.2-4.7-26.9-12.9-26.9c-6.9,0-9.3,11.8-12,25.5c-1.2,5.9-3,14.8-4.5,16.5
			c-7.2-1.3-15.8-43.2-15.8-64c0-15.1,6.9-26.4,16.1-26.4c2.1,0,4.5,1.1,7,2.3c2.9,1.4,6,2.8,9.3,2.8c3.3,0,6.3-1.4,9.3-2.8
			c2.5-1.2,4.9-2.3,7-2.3c9.2,0,16.1,11.4,16.1,26.4C109.6,84.3,101,126.1,93.8,127.5z"/>
		<path class="st1" d="M100.8,52.8L95,49.7l-3.2-5.8c-0.9-1.7-3.7-1.7-4.7,0l-3.2,5.8l-5.8,3.2c-0.9,0.5-1.4,1.4-1.4,2.3
			c0,1,0.5,1.9,1.4,2.3l5.8,3.2l3.2,5.8c0.5,0.9,1.4,1.4,2.3,1.4c1,0,1.9-0.5,2.3-1.4l3.2-5.8l5.8-3.2c0.9-0.5,1.4-1.4,1.4-2.3
			C102.2,54.2,101.6,53.3,100.8,52.8z M91.7,56.4c-0.4,0.2-0.8,0.6-1.1,1.1l-1.2,2.2l-1.2-2.2c-0.2-0.4-0.6-0.8-1.1-1.1l-2.2-1.2
			l2.2-1.2c0.4-0.2,0.8-0.6,1.1-1.1l1.2-2.2l1.2,2.2c0.2,0.4,0.6,0.8,1.1,1.1l2.2,1.2L91.7,56.4z"/>
		<path class="st1" d="M140.5,48.5c-1.7-2.9-6.2-5.9-26.5,1.3c-1.4,0.5-2.1,2-1.6,3.4c0.5,1.4,2,2.1,3.4,1.6
			c14.4-5.2,19.5-4.3,20.1-3.7c1.2,3.6-16.5,21.8-54.6,43.8c-38,22-62.7,28.2-65.2,25.4c-0.3-1,2.5-8,22.6-23
			c1.2-0.9,1.4-2.5,0.5-3.7c-0.9-1.2-2.5-1.4-3.7-0.5c-19.1,14.3-27.2,24.3-24,29.9c1.2,2.1,3.8,3,7.4,3c15,0,47.1-16,65.1-26.4
			c16.7-9.7,31.8-20,42.4-29C142.5,56.8,142.2,51.4,140.5,48.5z"/>
		<path class="st1" d="M118.3,92.7c-1.2-0.9-2.8-0.6-3.7,0.5c-0.9,1.2-0.6,2.8,0.5,3.7c19.4,14.6,22.1,21.4,21.8,22.3
			c-2.5,2.8-27.2-3.4-65.2-25.3c-38-22-55.7-40.2-54.6-43.8c0.7-0.7,5.9-1.5,21.2,4c1.4,0.5,2.9-0.2,3.4-1.6
			c0.5-1.4-0.2-2.9-1.6-3.4c-21.2-7.7-25.9-4.7-27.6-1.7c-1.7,2.9-2,8.3,14.1,22c10.6,9.1,25.7,19.4,42.4,29
			c18,10.4,50.1,26.4,65.1,26.4c3.6,0,6.2-0.9,7.4-3C144.6,116.5,136.8,106.6,118.3,92.7z"/>
	</g>
</g>
</svg>
