<svg width="25" height="10" viewBox="0 0 25 10" fill="none" xmlns="http://www.w3.org/2000/svg">
<path d="M24.2003 8.89981L23.7003 9.29982L23.6003 9.19981L24.2003 8.89981L23.6003 8.29982L23.7003 8.19981L24.2003 8.69981L24.5003 8.39981L24.1003 0.499812C24.0003 0.499812 24.0003 0.499812 23.9003 0.499812L21.3003 0.399814L15.9003 0.299816C12.7003 0.199816 7.50029 0.299816 7.50029 0.299816H6.70029H3.10029C1.80029 0.299816 0.800293 1.29981 0.800293 2.59981V6.99981C0.800293 8.29981 1.80029 9.29982 3.10029 9.29982L12.1003 9.49981C12.1003 9.49981 16.7003 9.49981 24.6003 9.49981V9.29982L24.2003 8.89981ZM3.00029 5.29982L2.40029 4.99981L2.00029 5.49981L1.90029 5.39981L2.30029 4.89981L1.80029 4.39981L1.90029 4.29982L2.40029 4.79982L2.90029 4.29982L3.00029 4.39981L2.50029 4.89981L3.00029 5.29982ZM1.90029 0.999812L2.40029 1.49981L2.90029 0.999812L3.00029 1.09981L2.50029 1.59981L3.00029 1.99981L2.90029 2.09981L2.40029 1.69981L2.00029 2.19981L1.90029 2.09981L2.30029 1.59981L1.90029 0.999812ZM3.10029 8.29982L2.50029 7.99981L2.20029 8.59981L2.10029 8.49981L2.40029 7.89981L1.80029 7.59981L1.90029 7.49981L2.50029 7.79982L2.80029 7.19981L2.90029 7.29982L2.60029 7.89981L3.20029 8.19981L3.10029 8.29982ZM6.20029 8.99981L5.70029 8.59981L5.20029 8.99981L5.10029 8.89981L5.60029 8.49981L5.10029 7.99981L5.20029 7.89981L5.70029 8.39981L6.20029 7.89981L6.30029 7.99981L5.80029 8.49981L6.20029 8.99981ZM6.30029 1.99981L5.80029 1.59981L5.40029 2.09981L5.30029 1.99981L5.70029 1.49981L5.10029 1.09981L5.20029 0.999812L5.80029 1.39981L6.20029 0.799816L6.30029 0.899814L5.90029 1.49981L6.40029 1.89981L6.30029 1.99981ZM8.30029 0.899814L8.90029 1.29982L9.30029 0.699809L9.40029 0.799816L9.00029 1.39981L9.50029 1.79982L9.40029 1.89981L8.90029 1.49981L8.50029 1.99981L8.40029 1.89981L8.80029 1.39981L8.20029 0.999812L8.30029 0.899814ZM9.50029 9.09981L9.00029 8.69981L8.50029 9.09981L8.40029 8.99981L8.90029 8.59981L8.40029 8.09981L8.50029 7.99981L9.00029 8.49981L9.50029 7.99981L9.60029 8.09981L9.10029 8.59981L9.50029 9.09981ZM12.3003 9.19981L11.8003 8.79982L11.3003 9.19981L11.2003 9.09981L11.7003 8.69981L11.2003 8.19981L11.3003 8.09981L11.8003 8.59981L12.3003 8.09981L12.4003 8.19981L11.9003 8.69981L12.3003 9.19981ZM12.9003 1.99981L12.4003 1.59981L12.0003 2.09981L11.9003 1.99981L12.3003 1.49981L11.7003 1.09981L11.8003 0.999812L12.4003 1.39981L12.8003 0.799816L12.9003 0.899814L12.5003 1.49981L13.0003 1.89981L12.9003 1.99981ZM15.3003 9.19981L14.8003 8.79982L14.3003 9.19981L14.2003 9.09981L14.7003 8.69981L14.2003 8.19981L14.3003 8.09981L14.8003 8.59981L15.3003 8.09981L15.4003 8.19981L14.9003 8.69981L15.3003 9.19981ZM15.9003 1.89981L15.4003 1.49981L15.0003 1.99981L14.9003 1.89981L15.3003 1.39981L14.7003 0.999812L14.8003 0.899814L15.4003 1.29982L15.8003 0.699809L15.9003 0.799816L15.5003 1.39981L16.0003 1.79982L15.9003 1.89981ZM18.4003 9.19981L17.9003 8.79982L17.4003 9.19981L17.3003 9.09981L17.8003 8.69981L17.3003 8.19981L17.4003 8.09981L17.9003 8.59981L18.4003 8.09981L18.5003 8.19981L18.0003 8.69981L18.4003 9.19981ZM19.0003 1.89981L18.5003 1.49981L18.1003 1.99981H18.0003L18.4003 1.49981L17.8003 1.09981L17.9003 0.999812L18.5003 1.39981L18.9003 0.799816L19.0003 0.899814L18.6003 1.49981L19.1003 1.89981H19.0003ZM21.6003 9.19981L21.1003 8.79982L20.6003 9.19981L20.5003 9.09981L21.0003 8.69981L20.5003 8.19981L20.6003 8.09981L21.1003 8.59981L21.6003 8.09981L21.7003 8.19981L21.2003 8.69981L21.6003 9.19981ZM22.2003 1.89981L21.7003 1.49981L21.3003 1.99981L21.2003 1.89981L21.6003 1.39981L21.0003 0.999812L21.1003 0.899814L21.7003 1.29982L22.1003 0.699809L22.2003 0.799816L21.8003 1.39981L22.3003 1.79982L22.2003 1.89981Z" fill="#AE9999"/>
<path d="M24.5003 9.09961V8.59961L24.3003 8.79961L24.5003 9.09961Z" fill="#AE9999"/>
<path d="M2.90029 7.2998H2.70029L2.40029 7.8998L1.80029 7.5998V7.6998L2.40029 7.9998L2.10029 8.5998H2.20029L2.50029 8.0998L3.10029 8.2998V8.1998L2.50029 7.8998L2.90029 7.2998Z" fill="#304893"/>
<path d="M2.90029 4.2998L2.40029 4.7998L1.90029 4.2998L1.80029 4.3998L2.30029 4.8998L1.90029 5.3998L2.00029 5.4998L2.40029 4.9998L2.90029 5.3998L3.00029 5.2998L2.50029 4.8998L3.00029 4.3998L2.90029 4.2998Z" fill="#304893"/>
<path d="M6.3001 0.899902H6.2001L5.8001 1.3999L5.2001 0.999901L5.1001 1.0999L5.7001 1.4999L5.3001 2.0999H5.5001L5.8001 1.5999L6.3001 1.9999L6.4001 1.8999L5.9001 1.4999L6.3001 0.899902Z" fill="#304893"/>
<path d="M8.4002 1.89971L8.5002 1.99971L8.9002 1.49971L9.4002 1.79971L9.5002 1.69971L9.0002 1.39971L9.4002 0.799713L9.3002 0.699707L8.9002 1.29971L8.3002 0.899712L8.2002 0.99971L8.8002 1.39971L8.4002 1.89971Z" fill="#304893"/>
<path d="M12.8002 0.899803L12.7002 0.799805L12.3002 1.3998L11.8002 0.999802L11.7002 1.0998L12.2002 1.4998L11.9002 1.9998L12.0002 2.0998L12.4002 1.5998L12.9002 1.9998L13.0002 1.7998L12.4002 1.4998L12.8002 0.899803Z" fill="#304893"/>
<path d="M15.9002 0.899803L15.8002 0.799805L15.4002 1.3998L14.8002 0.999802L14.7002 1.0998L15.3002 1.4998L14.9002 1.9998L15.1002 2.0998L15.4002 1.5998L15.9002 1.8998L16.0002 1.7998L15.5002 1.3998L15.9002 0.899803Z" fill="#304893"/>
<path d="M19.0003 0.799805H18.8003L18.5003 1.2998L17.9003 0.899803L17.8003 0.999802L18.4003 1.3998L18.0003 1.9998H18.1003L18.5003 1.4998L19.0003 1.8998L19.1003 1.7998L18.6003 1.3998L19.0003 0.799805Z" fill="#304893"/>
<path d="M22.1005 0.799805H22.0005L21.6005 1.2998L21.0005 0.899803V1.0998L21.5005 1.3998L21.2005 1.9998L21.3005 2.0998L21.6005 1.4998L22.2005 1.8998V1.7998L21.7005 1.3998L22.1005 0.799805Z" fill="#304893"/>
<path d="M1.80029 2.1L1.90029 2.2L2.40029 1.7L2.80029 2.2L2.90029 2.1L2.50029 1.6L2.90029 1.1L2.80029 1L2.40029 1.5L1.90029 1L1.80029 1.1L2.30029 1.6L1.80029 2.1Z" fill="#304893"/>
<path d="M23.7001 8.19971L23.6001 8.29971L24.1001 8.79971L23.6001 9.19971L23.7001 9.29971L24.2001 8.89971L24.5001 9.29971V9.09971L24.3001 8.79971L24.5001 8.59971V8.39971L24.2001 8.69971L23.7001 8.19971Z" fill="#304893"/>
<path d="M21.6005 8.19961L21.1005 8.59961L20.6005 8.09961L20.5005 8.19961L21.0005 8.69961L20.5005 9.19961L20.6005 9.29961L21.1005 8.79961L21.5005 9.29961L21.6005 9.19961L21.2005 8.69961L21.7005 8.29961L21.6005 8.19961Z" fill="#304893"/>
<path d="M18.4003 8.19971L17.9003 8.69971L17.4003 8.19971H17.3003L17.8003 8.69971L17.3003 9.19971L17.4003 9.29971L17.9003 8.79971L18.3003 9.29971L18.4003 9.19971L18.0003 8.79971L18.5003 8.29971L18.4003 8.19971Z" fill="#304893"/>
<path d="M15.3002 8.19971L14.8002 8.69971L14.3002 8.19971H14.2002L14.7002 8.69971L14.2002 9.19971L14.3002 9.29971L14.8002 8.79971L15.2002 9.29971L15.3002 9.19971L14.9002 8.79971L15.4002 8.29971L15.3002 8.19971Z" fill="#304893"/>
<path d="M12.3002 8.09961L11.8002 8.59961L11.3002 8.09961L11.2002 8.19961L11.7002 8.69961L11.2002 9.09961L11.3002 9.19961L11.8002 8.79961L12.2002 9.29961L12.3002 9.19961L11.9002 8.69961L12.4002 8.19961L12.3002 8.09961Z" fill="#304893"/>
<path d="M9.50039 8.1L8.90039 8.5L8.50039 8L8.40039 8.1L8.90039 8.6L8.40039 9.1L8.50039 9.2L8.90039 8.7L9.40039 9.2L9.50039 9.1L9.00039 8.6L9.50039 8.2V8.1Z" fill="#304893"/>
<path d="M6.2001 7.8999L5.7001 8.3999L5.2001 7.8999L5.1001 7.9999L5.6001 8.4999L5.1001 8.8999L5.2001 8.9999L5.7001 8.5999L6.1001 9.0999L6.2001 8.9999L5.8001 8.4999L6.3001 7.9999L6.2001 7.8999Z" fill="#304893"/>
</svg>
