<svg width="20" height="11" viewBox="0 0 20 11" fill="none" xmlns="http://www.w3.org/2000/svg">
<path d="M5.2002 1.6001C5.4002 1.6001 5.60018 1.6001 5.90018 1.6001L5.60019 2.0001L5.2002 1.6001Z" fill="#AE9999"/>
<path d="M2.30029 1.7998C2.50029 1.7998 2.80031 1.7998 3.00031 1.7998L2.70032 2.1998L2.30029 1.7998Z" fill="#AE9999"/>
<path d="M8.5 1.3999C8.7 1.3999 8.90001 1.3999 9.10001 1.3999L8.79999 1.6999L8.5 1.3999Z" fill="#AE9999"/>
<path d="M11.7002 1.2002C11.9002 1.2002 12.1002 1.2002 12.3002 1.2002L12.0002 1.5002L11.7002 1.2002Z" fill="#AE9999"/>
<path d="M18.1001 0.799805C18.3001 0.799805 18.4001 0.799805 18.6001 0.799805L18.4001 1.0998L18.1001 0.799805Z" fill="#AE9999"/>
<path d="M0.200195 1.9002L0.800171 10.9002C3.40017 10.6002 6.00019 10.4002 8.60019 10.1002L8.10019 9.7002L7.7002 10.2002L7.60019 10.1002L8.00018 9.6002L7.50018 9.1002L7.60019 9.0002L8.10019 9.5002L8.60019 9.0002L8.7002 9.1002L8.2002 9.6002L8.7002 10.0002L8.60019 10.1002C12.3002 9.8002 16.1002 9.4002 19.8002 9.1002L19.2002 0.700195C19.1002 0.700195 19.0002 0.700195 18.8002 0.700195L18.5002 1.1002L19.0002 1.5002L18.9002 1.6002L18.4002 1.2002L18.0002 1.7002L17.9002 1.6002L18.3002 1.1002L17.9002 0.800201C17.2002 0.800201 16.5002 0.9002 15.8002 0.9002L15.4002 1.3002L15.9002 1.7002L15.8002 1.8002L15.3002 1.4002L14.9002 1.9002L14.8002 1.8002L15.2002 1.3002L14.8002 0.9002C14.0002 0.9002 13.2002 1.0002 12.4002 1.0002L12.0002 1.4002L12.5002 1.8002L12.4002 1.9002L11.9002 1.5002L11.5002 2.0002L11.4002 1.9002L11.8002 1.4002L11.4002 1.0002C10.7002 1.0002 10.0002 1.1002 9.30017 1.1002L8.90018 1.5002L9.40018 1.9002L9.30017 2.0002L8.80017 1.6002L8.40018 2.1002L8.30017 2.0002L8.7002 1.5002L8.30017 1.1002C7.50017 1.1002 6.80018 1.2002 6.00018 1.2002L5.60019 1.7002L6.10019 2.1002L6.00018 2.2002L5.50018 1.8002L5.10019 2.3002L5.00018 2.2002L5.40018 1.7002L5.00018 1.3002C4.40018 1.3002 3.8002 1.4002 3.2002 1.4002L2.80017 1.9002L3.30017 2.3002L3.2002 2.4002L2.7002 2.0002L2.30017 2.5002L2.2002 2.4002L2.60019 1.9002L2.10019 1.5002C1.50019 1.8002 0.900195 1.9002 0.200195 1.9002ZM19.0002 8.6002L18.5002 8.1002L18.6002 8.0002L19.1002 8.5002L19.6002 8.0002L19.7002 8.1002L19.2002 8.6002L19.7002 9.0002L19.6002 9.1002L19.1002 8.7002L18.7002 9.2002L18.6002 9.1002L19.0002 8.6002ZM15.1002 9.0002L14.6002 8.5002L14.7002 8.40019L15.2002 8.90019L15.7002 8.40019L15.8002 8.5002L15.3002 9.0002L15.8002 9.40019L15.7002 9.5002L15.2002 9.1002L14.8002 9.6002L14.7002 9.5002L15.1002 9.0002ZM11.3002 9.2002L10.8002 8.7002L10.9002 8.6002L11.4002 9.1002L11.9002 8.6002L12.0002 8.7002L11.5002 9.2002L12.0002 9.6002L11.9002 9.7002L11.4002 9.3002L11.0002 9.8002L10.9002 9.7002L11.3002 9.2002ZM4.7002 9.90019L4.2002 9.40019L4.30017 9.3002L4.80017 9.8002L5.30017 9.3002L5.40018 9.40019L4.90018 9.90019L5.40018 10.3002L5.30017 10.4002L4.80017 10.0002L4.40018 10.5002L4.30017 10.4002L4.7002 9.90019ZM1.10019 10.7002L1.50018 10.2002L1.00018 9.7002L1.10019 9.6002L1.60019 10.1002L2.10019 9.6002L2.2002 9.7002L1.7002 10.2002L2.2002 10.6002L2.10019 10.7002L1.60019 10.3002L1.2002 10.8002L1.10019 10.7002Z" fill="#AE9999"/>
<path d="M15 1C15.2 1 15.4 1 15.6 1L15.3 1.3L15 1Z" fill="#AE9999"/>
<path d="M18.9002 0.5L19.0002 0.599998L18.9002 0.699997C18.8002 0.699997 18.8002 0.699997 18.7002 0.699997L18.9002 0.5Z" fill="#304893"/>
<path d="M17.8003 0.700096L17.9003 0.600098L18.2003 0.800102C18.1003 0.800102 18.1003 0.800102 18.0003 0.800102L17.8003 0.700096Z" fill="#304893"/>
<path d="M19.0004 1.5998L18.9004 1.6998L18.4004 1.2998L18.0004 1.7998L17.9004 1.6998L18.3004 1.1998L17.9004 0.899803C18.0004 0.899803 18.0004 0.899803 18.1004 0.899803L18.4004 1.0998L18.6004 0.799805C18.7004 0.799805 18.7004 0.799805 18.8004 0.799805L18.5004 1.1998L19.0004 1.5998Z" fill="#304893"/>
<path d="M15.8001 0.799805L15.9001 0.899803L15.8001 0.999802C15.7001 0.999802 15.7001 0.999802 15.6001 0.999802L15.8001 0.799805Z" fill="#304893"/>
<path d="M14.7002 0.899803L14.8002 0.799805L15.0002 0.999802C14.9002 0.999802 14.9002 0.999802 14.8002 0.999802L14.7002 0.899803Z" fill="#304893"/>
<path d="M15.9003 1.8L15.8003 1.9L15.3003 1.5L14.9003 2L14.8003 1.9L15.2003 1.4L14.8003 1C14.9003 1 14.9003 1 15.0003 1L15.3003 1.3L15.6003 1C15.7003 1 15.7003 1 15.8003 1L15.4003 1.4L15.9003 1.8Z" fill="#304893"/>
<path d="M12.4002 1L12.5002 1.1L12.4002 1.2C12.3002 1.2 12.3002 1.2 12.2002 1.2L12.4002 1Z" fill="#304893"/>
<path d="M11.4004 1.1L11.5004 1L11.7004 1.2C11.6004 1.2 11.6004 1.2 11.5004 1.2L11.4004 1.1Z" fill="#304893"/>
<path d="M12.5004 2.0002L12.4004 2.1002L11.9004 1.7002L11.5004 2.2002L11.4004 2.1002L11.8004 1.6002L11.4004 1.2002C11.5004 1.2002 11.5004 1.2002 11.6004 1.2002L11.9004 1.5002L12.2004 1.2002C12.3004 1.2002 12.3004 1.2002 12.4004 1.2002L12.0004 1.6002L12.5004 2.0002Z" fill="#304893"/>
<path d="M9.30008 1.2002L9.40009 1.3002L9.30008 1.4002C9.20008 1.4002 9.2001 1.4002 9.1001 1.4002L9.30008 1.2002Z" fill="#304893"/>
<path d="M8.2002 1.3002L8.30017 1.2002L8.50018 1.4002C8.40018 1.4002 8.40017 1.4002 8.30017 1.4002L8.2002 1.3002Z" fill="#304893"/>
<path d="M9.4003 2.1999L9.30029 2.2999L8.80029 1.8999L8.4003 2.3999L8.30029 2.2999L8.70032 1.7999L8.30029 1.3999C8.40029 1.3999 8.40031 1.3999 8.50031 1.3999L8.80029 1.6999L9.10031 1.3999C9.20031 1.3999 9.20029 1.3999 9.30029 1.3999L8.9003 1.7999L9.4003 2.1999Z" fill="#304893"/>
<path d="M6.0004 1.3999L6.1004 1.4999V1.5999C6.0004 1.5999 6.00039 1.5999 5.90039 1.5999L6.0004 1.3999Z" fill="#304893"/>
<path d="M5 1.6L5.10001 1.5L5.29999 1.7C5.19999 1.6 5.1 1.6 5 1.6Z" fill="#304893"/>
<path d="M6.10001 2.4L6 2.5L5.5 2.1L5.10001 2.6L5 2.5L5.39999 2L5 1.6C5.1 1.6 5.10001 1.6 5.20001 1.6L5.5 1.9L5.79999 1.5C5.89999 1.5 5.9 1.5 6 1.5L5.60001 2L6.10001 2.4Z" fill="#304893"/>
<path d="M3.10001 1.6001L3.20001 1.7001C3.10001 1.7001 3.1 1.7001 3 1.7001L3.10001 1.6001Z" fill="#304893"/>
<path d="M2.1001 1.7001L2.2001 1.6001L2.40009 1.7001C2.30009 1.8001 2.2001 1.8001 2.1001 1.7001Z" fill="#304893"/>
<path d="M3.20001 2.6002L3.10001 2.7002L2.60001 2.3002L2.20001 2.8002L2.10001 2.7002L2.5 2.2002L2 1.8002C2.1 1.8002 2.10001 1.8002 2.20001 1.8002L2.60001 2.1002L2.89999 1.7002C2.99999 1.7002 3.00001 1.7002 3.10001 1.7002L2.70001 2.2002L3.20001 2.6002Z" fill="#304893"/>
<path d="M18.5 7.99991L19.1 8.49991L19.5 7.8999L19.6 7.99991L19.2 8.49991L19.6 8.99991L19.5 9.09991L19.1 8.59991L18.6 9.09991L18.5 8.99991L19 8.59991L18.5 8.09991V7.99991Z" fill="#304893"/>
<path d="M14.7001 8.3998L15.2001 8.8998L15.6001 8.2998L15.7001 8.3998L15.3001 8.8998L15.8001 9.3998L15.7001 9.4998L15.2001 8.9998L14.8001 9.4998L14.7001 9.3998L15.1001 8.9998L14.6001 8.4998L14.7001 8.3998Z" fill="#304893"/>
<path d="M10.9003 8.70009L11.4003 9.1001L11.9003 8.6001L12.0003 8.70009L11.5003 9.20009L12.0003 9.70009L11.9003 9.80009L11.4003 9.30009L11.0003 9.80009L10.9003 9.70009L11.3003 9.20009L10.8003 8.80009L10.9003 8.70009Z" fill="#304893"/>
<path d="M7.70001 10.2L7.60001 10.1L8 9.60001L7.5 9.2L7.60001 9.10001L8.10001 9.5L8.60001 9L8.70001 9.10001L8.20001 9.60001L8.70001 10L8.60001 10.1L8.10001 9.7L7.70001 10.2Z" fill="#304893"/>
<path d="M4.30017 9.3998L4.80017 9.7998L5.30017 9.2998L5.40018 9.3998L4.90018 9.8998L5.40018 10.3998L5.30017 10.4998L4.80017 9.9998L4.40018 10.4998L4.30017 10.3998L4.7002 9.8998L4.2002 9.4998L4.30017 9.3998Z" fill="#304893"/>
<path d="M1 9.80009L1.10001 9.70009L1.60001 10.1001L2.10001 9.6001L2.20001 9.70009L1.70001 10.2001L2.20001 10.7001L2.10001 10.8001L1.70001 10.3001L1.20001 10.8001L1.10001 10.7001L1.60001 10.2001L1 9.80009Z" fill="#304893"/>
</svg>
