<svg width="20" height="11" viewBox="0 0 20 11" fill="none" xmlns="http://www.w3.org/2000/svg">
<path d="M2 1.6001C2.2 1.6001 2.3 1.6001 2.5 1.6001L2.29999 1.8001L2 1.6001Z" fill="#AE9999"/>
<path d="M11.8003 1.1001C12.0003 1.1001 12.2003 1.1001 12.4003 1.1001L12.1003 1.4001L11.8003 1.1001Z" fill="#AE9999"/>
<path d="M5.1001 1.5C5.2001 1.5 5.40009 1.5 5.50009 1.5L5.30008 1.7L5.1001 1.5Z" fill="#AE9999"/>
<path d="M8.40039 1.2998C8.60039 1.2998 8.70039 1.2998 8.90039 1.2998L8.70041 1.4998L8.40039 1.2998Z" fill="#AE9999"/>
<path d="M15 0.899902C15.1 0.899902 15.3 0.899902 15.4 0.899902L15.2 1.0999L15 0.899902Z" fill="#AE9999"/>
<path d="M18.4004 0.699707C18.6004 0.699707 18.8004 0.699707 18.9004 0.699707L18.6004 0.99971L18.4004 0.699707Z" fill="#AE9999"/>
<path d="M0.200195 1.79971L0.800171 10.1997C7.20017 9.69971 13.6002 9.19971 19.8002 8.79971L19.2002 0.699707H19.1002L18.7002 1.09971L19.2002 1.49971L19.1002 1.59971L18.6002 1.19971L18.2002 1.69971L18.1002 1.59971L18.5002 1.09971L18.1002 0.799713C17.2002 0.899713 16.4002 0.89971 15.5002 0.99971L15.2002 1.29971L15.7002 1.69971L15.6002 1.79971L15.1002 1.39971L14.7002 1.89971L14.6002 1.79971L15.0002 1.29971L14.7002 0.99971C14.0002 0.99971 13.2002 1.09971 12.5002 1.09971L12.1002 1.49971L12.6002 1.89971L12.5002 1.99971L12.0002 1.59971L11.6002 2.09971L11.5002 1.99971L11.9002 1.49971L11.5002 1.09971C10.6002 1.19971 9.80018 1.19971 8.90018 1.29971L8.60019 1.69971L9.10019 2.09971L9.00018 2.19971L8.50018 1.79971L8.10019 2.29971L8.00018 2.19971L8.40018 1.69971L8.10019 1.39971C7.20019 1.49971 6.40019 1.49971 5.60019 1.59971L5.30017 1.89971L5.80017 2.29971L5.7002 2.39971L5.2002 1.99971L4.80017 2.49971L4.7002 2.39971L5.10019 1.89971L4.80017 1.59971C4.10017 1.59971 3.30019 1.69971 2.60019 1.69971L2.30017 1.99971L2.80017 2.39971L2.7002 2.49971L2.2002 2.09971L1.80017 2.59971L1.7002 2.49971L2.10019 1.99971L1.80017 1.69971C1.30017 1.69971 0.800195 1.69971 0.200195 1.79971ZM16.9002 8.29971L16.4002 7.79971L16.5002 7.69971L17.0002 8.19971L17.5002 7.69971L17.6002 7.79971L17.1002 8.29971L17.6002 8.69971L17.5002 8.79971L17.0002 8.3997L16.6002 8.8997L16.5002 8.79971L16.9002 8.29971ZM13.4002 8.59972L12.9002 8.09972L13.0002 7.99971L13.5002 8.49971L14.0002 7.99971L14.1002 8.09972L13.6002 8.59972L14.1002 8.99971L14.0002 9.09972L13.5002 8.69971L13.1002 9.19971L13.0002 9.09972L13.4002 8.59972ZM9.90018 8.79971L9.40018 8.29971L9.50018 8.19971L10.0002 8.69971L10.5002 8.19971L10.6002 8.29971L10.1002 8.79971L10.6002 9.19971L10.5002 9.29971L10.0002 8.8997L9.60019 9.3997L9.50018 9.29971L9.90018 8.79971ZM6.7002 9.09972L6.2002 8.59972L6.30017 8.49971L6.80017 8.99971L7.30017 8.49971L7.40018 8.59972L6.90018 9.09972L7.40018 9.49971L7.30017 9.59972L6.80017 9.19971L6.40018 9.69971L6.30017 9.59972L6.7002 9.09972ZM3.60019 9.29971L3.10019 8.79971L3.2002 8.69971L3.7002 9.19971L4.2002 8.69971L4.30017 8.79971L3.80017 9.29971L4.30017 9.69971L4.2002 9.79971L3.7002 9.3997L3.30017 9.8997L3.2002 9.79971L3.60019 9.29971Z" fill="#AE9999"/>
<path d="M18.1001 0.599998L18.2001 0.5L18.4001 0.699997C18.3001 0.699997 18.3001 0.699997 18.2001 0.699997L18.1001 0.599998Z" fill="#304893"/>
<path d="M19.2 0.399902L19.3 0.499901L19.2 0.599899C19.1 0.599899 19.1 0.599899 19 0.599899L19.2 0.399902Z" fill="#304893"/>
<path d="M19.3002 1.4998L19.2002 1.5998L18.7002 1.1998L18.3002 1.6998L18.2002 1.5998L18.6002 1.0998L18.2002 0.799805C18.3002 0.799805 18.3002 0.799805 18.4002 0.799805L18.7002 1.0998L19.0002 0.799805C19.1002 0.799805 19.1002 0.799805 19.2002 0.799805L18.8002 1.1998L19.3002 1.4998Z" fill="#304893"/>
<path d="M15.7004 0.600098L15.8004 0.700096L15.6004 0.900101C15.5004 0.900101 15.5004 0.900101 15.4004 0.900101L15.7004 0.600098Z" fill="#304893"/>
<path d="M14.6001 0.700096L14.7001 0.600098L15.0001 0.900101C14.9001 0.900101 14.9001 0.900101 14.8001 0.900101L14.6001 0.700096Z" fill="#304893"/>
<path d="M15.8002 1.5999L15.7002 1.6999L15.2002 1.2999L14.8002 1.7999L14.7002 1.6999L15.1002 1.1999L14.8002 0.899902C14.9002 0.899902 14.9002 0.899902 15.0002 0.899902L15.2002 1.0999L15.4002 0.899902C15.5002 0.899902 15.5002 0.899902 15.6002 0.899902L15.3002 1.1999L15.8002 1.5999Z" fill="#304893"/>
<path d="M11.5 0.999901L11.6 0.899902L11.8 1.0999C11.8 1.0999 11.7 1.0999 11.5 0.999901Z" fill="#304893"/>
<path d="M12.6004 0.799805L12.7004 0.899803L12.6004 0.999802C12.5004 0.999802 12.5004 0.999802 12.4004 0.999802L12.6004 0.799805Z" fill="#304893"/>
<path d="M12.7001 1.9001L12.6001 2.0001L12.1001 1.6001L11.7001 2.1001L11.6001 2.0001L12.0001 1.5001L11.6001 1.1001C11.7001 1.1001 11.7001 1.1001 11.8001 1.1001L12.1001 1.4001L12.4001 1.1001C12.5001 1.1001 12.5001 1.1001 12.6001 1.1001L12.2001 1.5001L12.7001 1.9001Z" fill="#304893"/>
<path d="M9.1004 1L9.20041 1.1L9.1004 1.3C9.0004 1.3 9.00039 1.3 8.90039 1.3L9.1004 1Z" fill="#304893"/>
<path d="M8.1001 1.1L8.2001 1L8.50009 1.2C8.40009 1.2 8.40008 1.2 8.30008 1.2L8.1001 1.1Z" fill="#304893"/>
<path d="M9.2001 1.9998L9.1001 2.0998L8.6001 1.6998L8.2001 2.1998L8.1001 2.0998L8.50009 1.5998L8.2001 1.2998C8.3001 1.2998 8.30009 1.2998 8.40009 1.2998L8.6001 1.4998L8.80008 1.2998C8.90008 1.2998 8.90009 1.2998 9.00009 1.2998L8.7001 1.6998L9.2001 1.9998Z" fill="#304893"/>
<path d="M5.79999 1.1001L5.89999 1.2001L5.70001 1.4001C5.60001 1.4001 5.6 1.4001 5.5 1.4001L5.79999 1.1001Z" fill="#304893"/>
<path d="M4.7002 1.29971L4.80017 1.19971L5.10019 1.49971C5.00019 1.49971 5.00018 1.49971 4.90018 1.49971L4.7002 1.29971Z" fill="#304893"/>
<path d="M5.9003 2.2L5.80029 2.3L5.30029 1.9L4.9003 2.4L4.80029 2.3L5.20032 1.8L4.9003 1.5C5.0003 1.5 5.00031 1.5 5.10031 1.5L5.30029 1.7L5.50031 1.5C5.60031 1.5 5.60032 1.5 5.70032 1.5L5.4003 1.8L5.9003 2.2Z" fill="#304893"/>
<path d="M2.70001 1.3999L2.79999 1.4999L2.70001 1.6999C2.60001 1.6999 2.6 1.6999 2.5 1.6999L2.70001 1.3999Z" fill="#304893"/>
<path d="M1.7002 1.4999L1.80017 1.3999L2.10019 1.5999C2.00019 1.5999 2.00018 1.5999 1.90018 1.5999L1.7002 1.4999Z" fill="#304893"/>
<path d="M2.9003 2.39971L2.80029 2.49971L2.30029 2.09971L1.9003 2.59971L1.80029 2.49971L2.20032 1.99971L1.9003 1.69971C2.0003 1.69971 2.00031 1.69971 2.10031 1.69971L2.30029 1.89971L2.50031 1.69971C2.60031 1.69971 2.60032 1.69971 2.70032 1.69971L2.4003 1.99971L2.9003 2.39971Z" fill="#304893"/>
<path d="M16.4003 7.79971L16.9003 8.19971L17.4003 7.69971L17.5003 7.79971L17.0003 8.29971L17.5003 8.69971L17.4003 8.79971L17.0003 8.3997L16.5003 8.8997L16.4003 8.79971L16.9003 8.29971L16.3003 7.89971L16.4003 7.79971Z" fill="#304893"/>
<path d="M13.0004 8L13.5004 8.5L14.0004 8L14.1004 8.10001L13.6004 8.60001L14.1004 9L14.0004 9.10001L13.5004 8.7L13.1004 9.2L13.0004 9.10001L13.4004 8.60001L12.9004 8.10001L13.0004 8Z" fill="#304893"/>
<path d="M9.4003 8.19971L10.0003 8.69971L10.4003 8.19971L10.5003 8.29971L10.1003 8.79971L10.5003 9.19971L10.4003 9.29971L10.0003 8.8997L9.50031 9.3997L9.4003 9.29971L9.9003 8.79971L9.30029 8.29971L9.4003 8.19971Z" fill="#304893"/>
<path d="M6.30017 8.49991L6.80017 8.99991L7.30017 8.3999L7.40018 8.49991L6.90018 8.99991L7.40018 9.49991L7.30017 9.59991L6.90018 9.09991L6.40018 9.59991L6.30017 9.49991L6.7002 9.09991L6.2002 8.59991L6.30017 8.49991Z" fill="#304893"/>
<path d="M3.2001 8.79971L3.7001 9.19971L4.2001 8.69971L4.30008 8.79971L3.80008 9.29971L4.30008 9.69971L4.2001 9.79971L3.7001 9.3997L3.30008 9.8997L3.2001 9.79971L3.6001 9.29971L3.1001 8.8997L3.2001 8.79971Z" fill="#304893"/>
</svg>
