<svg width="19" height="10" viewBox="0 0 19 10" fill="none" xmlns="http://www.w3.org/2000/svg">
<path d="M5.59961 1.2998C5.89961 1.2998 6.0996 1.2998 6.3996 1.2998L5.9996 1.6998L5.59961 1.2998Z" fill="#AE9999"/>
<path d="M2.5 1.5C2.7 1.5 2.90001 1.5 3.10001 1.5L2.79999 1.8L2.5 1.5Z" fill="#AE9999"/>
<path d="M17.8999 0.600098C17.9999 0.600098 18.0999 0.600098 18.2999 0.600098V1.0001L17.8999 0.600098Z" fill="#AE9999"/>
<path d="M0.299805 1.5998L0.899811 9.6998C4.29981 9.4998 7.69982 9.1998 11.0998 8.9998H10.9998L11.3998 8.4998L10.8998 7.9998L10.9998 7.8998L11.4998 8.3998L11.9998 7.8998L12.0998 7.9998L11.5998 8.4998L12.0998 8.8998L11.9998 8.9998C12.7998 8.9998 13.5998 8.8998 14.3998 8.8998L14.7998 8.3998L14.2998 7.8998L14.3998 7.7998L14.8998 8.2998L15.3998 7.7998L15.4998 7.8998L14.9998 8.3998L15.4998 8.7998C16.1998 8.7998 16.8998 8.6998 17.4998 8.6998H17.3998L17.7998 8.1998L17.2998 7.6998L17.3998 7.5998L17.8998 8.0998L18.3998 7.5998L18.4998 7.6998L17.9998 8.1998L18.4998 8.5998L18.3998 8.6998C18.4998 8.6998 18.5998 8.6998 18.7998 8.6998L18.2998 1.2998L17.8998 1.7998L17.7998 1.6998L18.1998 1.1998L17.6998 0.799805C14.6998 0.999805 11.5998 1.0998 8.59982 1.2998L9.09982 1.7998L9.59982 1.2998L9.69983 1.3998L9.19983 1.8998L9.69983 2.2998L9.59982 2.3998L9.09982 1.9998L8.69983 2.4998L8.59982 2.3998L8.99982 1.8998L8.49982 1.3998L8.59982 1.2998C7.89982 1.2998 7.19982 1.3998 6.59982 1.3998L6.09982 1.8998L6.59982 2.2998L6.49982 2.3998L5.99982 1.9998L5.59982 2.4998L5.49982 2.3998L5.89981 1.8998L5.39981 1.3998C4.69981 1.3998 3.9998 1.4998 3.2998 1.4998L2.89981 1.8998L3.39981 2.2998L3.2998 2.3998L2.7998 1.9998L2.39981 2.4998L2.2998 2.3998L2.69983 1.8998L2.2998 1.4998C1.6998 1.5998 0.999805 1.5998 0.299805 1.5998ZM15.0998 1.3998L14.5998 0.899803L14.6998 0.799805L15.1998 1.2998L15.6998 0.799805L15.7998 0.899803L15.2998 1.3998L15.7998 1.7998L15.6998 1.8998L15.1998 1.4998L14.7998 1.9998L14.6998 1.8998L15.0998 1.3998ZM12.1998 1.5998L11.6998 1.0998L11.7998 0.999802L12.2998 1.4998L12.7998 0.999802L12.8998 1.0998L12.3998 1.5998L12.8998 1.9998L12.7998 2.0998L12.2998 1.6998L11.8998 2.1998L11.7998 2.0998L12.1998 1.5998ZM7.99982 8.6998L7.49982 8.1998L7.59982 8.0998L8.09982 8.5998L8.59982 8.0998L8.69983 8.1998L8.19983 8.6998L8.69983 9.09981L8.59982 9.1998L8.09982 8.7998L7.69983 9.2998L7.59982 9.1998L7.99982 8.6998ZM4.69983 8.8998L4.19983 8.3998L4.2998 8.2998L4.7998 8.7998L5.2998 8.2998L5.39981 8.3998L4.89981 8.8998L5.39981 9.2998L5.2998 9.3998L4.7998 8.9998L4.39981 9.4998L4.2998 9.3998L4.69983 8.8998ZM0.999817 9.59981L1.39981 9.09981L0.899811 8.5998L0.999817 8.4998L1.49982 8.9998L1.99982 8.4998L2.09982 8.5998L1.59982 9.09981L2.09982 9.4998L1.99982 9.59981L1.49982 9.1998L1.09982 9.6998L0.999817 9.59981Z" fill="#AE9999"/>
<path d="M18.3996 8.6002C18.0996 8.6002 17.8996 8.6002 17.5996 8.6002L17.9996 8.2002L18.3996 8.6002Z" fill="#AE9999"/>
<path d="M15.3 8.7999C15 8.7999 14.8 8.7999 14.5 8.7999L14.9 8.3999L15.3 8.7999Z" fill="#AE9999"/>
<path d="M11.8996 9.0001C11.5996 9.0001 11.2996 9.0001 11.0996 9.0001L11.4996 8.6001L11.8996 9.0001Z" fill="#AE9999"/>
<path d="M17.6997 0.599998L17.7997 0.5L17.8997 0.599998C17.7997 0.599998 17.7997 0.599998 17.6997 0.599998Z" fill="#304893"/>
<path d="M18.2997 1.2002L17.8997 1.7002L17.7997 1.6002L18.1997 1.1002L17.6997 0.700195C17.7997 0.700195 17.7997 0.700195 17.8997 0.700195L18.2997 1.1002V1.2002Z" fill="#304893"/>
<path d="M14.6996 0.799805L15.1996 1.2998L15.6996 0.799805L15.7996 0.899803L15.2996 1.3998L15.7996 1.7998L15.6996 1.8998L15.1996 1.4998L14.7996 1.8998L14.6996 1.7998L15.0996 1.3998L14.5996 0.899803L14.6996 0.799805Z" fill="#304893"/>
<path d="M11.6996 0.999901L12.1996 1.4999L12.6996 0.899902L12.7996 0.999901L12.2996 1.4999L12.7996 1.9999L12.6996 2.0999L12.2996 1.5999L11.7996 2.0999L11.6996 1.9999L12.1996 1.5999L11.5996 1.0999L11.6996 0.999901Z" fill="#304893"/>
<path d="M8.59961 1.1001C8.69961 1.2001 8.59961 1.2001 8.59961 1.1001V1.1001Z" fill="#304893"/>
<path d="M9.60001 1.1001L9.70001 1.2001L9.20001 1.7001L9.70001 2.1001L9.60001 2.2001L9.10001 1.8001L8.70001 2.3001L8.60001 2.2001L9 1.7001L8.5 1.2001L8.60001 1.1001L9.10001 1.6001L9.60001 1.1001Z" fill="#304893"/>
<path d="M5.5 1.2002C5.6 1.3002 5.5 1.3002 5.5 1.2002V1.2002Z" fill="#304893"/>
<path d="M6.20001 1.7998L6.70001 2.1998L6.60001 2.2998L6.10001 1.8998L5.70001 2.3998L5.60001 2.2998L6 1.7998L5.5 1.2998C5.6 1.2998 5.60001 1.2998 5.70001 1.2998L6.10001 1.6998L6.5 1.2998H6.60001L6.20001 1.7998Z" fill="#304893"/>
<path d="M3.29959 1.2998L3.3996 1.3998L3.29959 1.4998C3.19959 1.4998 3.19961 1.4998 3.09961 1.4998L3.29959 1.2998Z" fill="#304893"/>
<path d="M2.2998 1.3998L2.39981 1.2998L2.59982 1.4998C2.49982 1.4998 2.49981 1.4998 2.39981 1.4998L2.2998 1.3998Z" fill="#304893"/>
<path d="M3.39981 2.3L3.2998 2.4L2.7998 2L2.39981 2.5L2.2998 2.4L2.69983 1.9L2.2998 1.5C2.3998 1.5 2.39982 1.5 2.49982 1.5L2.7998 1.8L3.09982 1.5C3.19982 1.5 3.1998 1.5 3.2998 1.5L2.89981 1.9L3.39981 2.3Z" fill="#304893"/>
<path d="M17.7998 8.2001L17.2998 7.7001L17.3998 7.6001L17.8998 8.1001L18.3998 7.6001L18.4998 7.7001L17.9998 8.2001L18.4998 8.6001L18.3998 8.7001H18.2998L17.8998 8.3001L17.4998 8.7001H17.3998H17.2998L17.7998 8.2001Z" fill="#304893"/>
<path d="M14.7998 8.3998L14.2998 7.8998L14.3998 7.7998L14.8998 8.2998L15.3998 7.7998L15.4998 7.8998L14.9998 8.3998L15.4998 8.7998H15.3998L14.9998 8.3998L14.5998 8.7998H14.4998L14.7998 8.3998Z" fill="#304893"/>
<path d="M11.3999 8.4999L10.8999 7.9999L10.9999 7.8999L11.4999 8.3999L11.9999 7.8999L12.0999 7.9999L11.5999 8.4999L12.0999 8.8999L11.9999 8.9999C11.9999 8.9999 11.9999 8.9999 11.8999 8.9999L11.4999 8.5999L11.0999 8.9999C11.0999 8.9999 11.0999 8.9999 10.9999 8.9999L11.3999 8.4999Z" fill="#304893"/>
<path d="M7.60001 8.1001L8.10001 8.6001L8.60001 8.1001L8.70001 8.2001L8.20001 8.7001L8.70001 9.10011L8.60001 9.2001L8.10001 8.8001L7.70001 9.3001L7.60001 9.2001L8 8.7001L7.5 8.2001L7.60001 8.1001Z" fill="#304893"/>
<path d="M4.29968 8.3002L4.79968 8.7002L5.29968 8.2002L5.39969 8.3002L4.89969 8.8002L5.39969 9.3002L5.29968 9.40019L4.79968 8.9002L4.39969 9.40019L4.29968 9.3002L4.69971 8.9002L4.19971 8.4002L4.29968 8.3002Z" fill="#304893"/>
<path d="M0.899902 8.6L0.999908 8.5L1.49991 9L1.8999 8.5L1.99991 8.6L1.59991 9.10001L1.99991 9.5V9.60001L1.49991 9.2L1.09991 9.7L0.999908 9.60001L1.3999 9.10001L0.899902 8.6Z" fill="#304893"/>
</svg>
