<svg width="19" height="10" viewBox="0 0 19 10" fill="none" xmlns="http://www.w3.org/2000/svg">
<path d="M0.299805 2.0001V1.6001C0.399805 1.6001 0.599829 1.6001 0.699829 1.6001L0.299805 2.0001Z" fill="#AE9999"/>
<path d="M18.2 1.1001V1.4001L18 1.3001L18.2 1.1001Z" fill="#AE9999"/>
<path d="M3 1.5C3.3 1.5 3.59999 1.5 3.89999 1.5L3.5 2L3 1.5Z" fill="#AE9999"/>
<path d="M10.1998 9.1001C9.89983 9.1001 9.5998 9.1001 9.2998 9.1001L9.69983 8.6001L10.1998 9.1001Z" fill="#AE9999"/>
<path d="M0.299805 2.2002L0.799805 9.6002C2.4998 9.5002 4.0998 9.4002 5.7998 9.3002L6.19983 8.8002L5.69983 8.3002L5.7998 8.2002L6.2998 8.7002L6.7998 8.2002L6.89981 8.3002L6.39981 8.8002L6.89981 9.2002C7.69981 9.2002 8.49981 9.1002 9.39981 9.1002L9.2998 9.0002L9.69983 8.5002L9.19983 8.0002L9.2998 7.9002L9.7998 8.4002L10.2998 7.9002L10.3998 8.0002L9.89981 8.5002L10.3998 8.9002L10.2998 9.0002C11.2998 9.0002 12.1998 8.9002 13.1998 8.9002L13.0998 8.8002L13.4998 8.3002L12.9998 8.0002L13.0998 7.9002L13.5998 8.4002L14.0998 7.9002L14.1998 8.0002L13.6998 8.5002L14.1998 8.9002L14.0998 9.0002C14.8998 9.0002 15.6998 8.9002 16.4998 8.9002L16.8998 8.4002L16.3998 7.9002L16.4998 7.8002L16.9998 8.3002L17.4998 7.8002L17.5998 7.9002L17.0998 8.4002L17.5998 8.8002L17.4998 8.9002C17.8998 8.9002 18.2998 8.9002 18.6998 8.8002L18.1998 1.7002L17.8998 1.4002L17.4998 1.9002L17.3998 1.8002L17.7998 1.3002L17.2998 0.800201L17.3998 0.700195L17.8998 1.2002L18.1998 0.9002V0.700195C13.4998 0.900195 8.79982 1.2002 3.99982 1.5002H4.09982L3.59982 2.0002L4.09982 2.4002L3.99982 2.5002L3.49982 2.1002L3.09982 2.6002L2.99982 2.5002L3.39981 2.0002L2.89981 1.5002C2.19981 1.5002 1.59981 1.6002 0.899811 1.6002L0.399811 2.1002L0.899811 2.5002L0.799805 2.6002L0.299805 2.2002ZM14.2998 1.4002L13.7998 0.9002L13.8998 0.800201L14.3998 1.3002L14.8998 0.800201L14.9998 0.9002L14.4998 1.4002L14.9998 1.8002L14.8998 1.9002L14.3998 1.5002L13.9998 2.0002L13.8998 1.9002L14.2998 1.4002ZM10.3998 1.7002L9.89981 1.2002L9.99982 1.1002L10.4998 1.6002L10.9998 1.1002L11.0998 1.2002L10.5998 1.7002L11.0998 2.1002L10.9998 2.2002L10.4998 1.8002L10.0998 2.3002L9.99982 2.2002L10.3998 1.7002ZM6.59982 1.9002L6.09982 1.4002L6.19983 1.3002L6.69983 1.8002L7.19983 1.3002L7.2998 1.4002L6.7998 1.9002L7.2998 2.3002L7.19983 2.4002L6.69983 2.0002L6.2998 2.5002L6.19983 2.4002L6.59982 1.9002ZM3.09982 8.9002L2.59982 8.4002L2.69983 8.3002L3.19983 8.8002L3.69983 8.3002L3.7998 8.4002L3.2998 8.9002L3.7998 9.3002L3.69983 9.4002L3.19983 9.0002L2.7998 9.5002L2.69983 9.4002L3.09982 8.9002Z" fill="#AE9999"/>
<path d="M17.3996 8.80039C17.0996 8.80039 16.8996 8.80039 16.5996 8.80039L16.9996 8.40039L17.3996 8.80039Z" fill="#AE9999"/>
<path d="M14.0997 9C13.7997 9 13.4997 9 13.1997 9L13.5997 8.5L14.0997 9Z" fill="#AE9999"/>
<path d="M6.70001 9.30039C6.50001 9.30039 6.2 9.30039 6 9.30039L6.29999 8.90039L6.70001 9.30039Z" fill="#AE9999"/>
<path d="M17.9998 1.3002L18.1998 1.4002V1.6002L17.8998 1.4002L17.4998 1.9002L17.3998 1.8002L17.7998 1.3002L17.2998 0.800201L17.3998 0.700195L17.8998 1.2002L18.1998 0.9002V1.1002L17.9998 1.3002Z" fill="#304893"/>
<path d="M13.8998 0.900291L14.3998 1.30029L14.8998 0.800293L14.9998 0.900291L14.4998 1.40029L14.9998 1.90029L14.8998 2.00029L14.3998 1.50029L13.9998 2.00029L13.8998 1.90029L14.2998 1.40029L13.7998 1.00029L13.8998 0.900291Z" fill="#304893"/>
<path d="M9.99991 1.1001L10.4999 1.6001L10.8999 1.1001L10.9999 1.2001L10.5999 1.7001L10.9999 2.1001V2.2001L10.4999 1.8001L10.0999 2.3001L9.99991 2.2001L10.3999 1.7001L9.8999 1.2001L9.99991 1.1001Z" fill="#304893"/>
<path d="M6.19962 1.30029L6.69962 1.80029L7.19962 1.30029L7.29959 1.40029L6.79959 1.90029L7.29959 2.30029L7.19962 2.40029L6.69962 2.00029L6.29959 2.40029L6.19962 2.30029L6.59961 1.90029L6.09961 1.40029L6.19962 1.30029Z" fill="#304893"/>
<path d="M2.8999 1.40039C2.9999 1.50039 2.8999 1.50039 2.8999 1.40039V1.40039Z" fill="#304893"/>
<path d="M3.49982 2.00039L3.99982 2.40039L3.89981 2.50039L3.39981 2.10039L2.99982 2.60039L2.89981 2.50039L3.2998 2.00039L2.7998 1.50039H2.89981L3.2998 1.90039L3.69983 1.40039H3.7998H3.89981L3.49982 2.00039Z" fill="#304893"/>
<path d="M0.799683 1.5L0.899689 1.6L0.799683 1.5C0.799683 1.6 0.799707 1.6 0.699707 1.6L0.799683 1.5Z" fill="#304893"/>
<path d="M0.899811 2.5001L0.799805 2.6001L0.299805 2.2001V2.0001L0.699829 1.6001C0.799829 1.6001 0.799811 1.6001 0.899811 1.6001L0.399811 2.1001L0.899811 2.5001Z" fill="#304893"/>
<path d="M16.5 8.9002C16.5 8.8002 16.6 8.8002 16.5 8.9002V8.9002Z" fill="#304893"/>
<path d="M16.8999 8.3002L16.3999 7.8002L16.4999 7.7002L16.9999 8.2002L17.4999 7.7002L17.5999 7.8002L17.0999 8.3002L17.5999 8.7002L17.4999 8.8002H17.3999L16.9999 8.4002L16.5999 8.8002H16.4999L16.8999 8.3002Z" fill="#304893"/>
<path d="M13.5 8.40039L13 8.00039L13.1 7.90039L13.6 8.40039L14.1 7.90039L14.2 8.00039L13.7 8.50039L14.2 8.90039L14.1 9.00039L13.6 8.60039L13.2 9.10039L13.1 9.00039L13.5 8.40039Z" fill="#304893"/>
<path d="M9.69971 8.6L9.19971 8.1L9.29968 8L9.79968 8.5L10.2997 8L10.3997 8.1L9.89969 8.6L10.3997 9L10.2997 9.1L9.79968 8.7L9.39969 9.2L9.29968 9.1L9.69971 8.6Z" fill="#304893"/>
<path d="M6.19971 8.90029L5.69971 8.40029L5.79968 8.30029L6.29968 8.80029L6.79968 8.30029L6.89969 8.40029L6.39969 8.90029L6.89969 9.30029C6.79969 9.30029 6.79971 9.30029 6.69971 9.30029L6.29968 8.90029L5.99969 9.30029C5.89969 9.30029 5.89968 9.30029 5.79968 9.30029L6.19971 8.90029Z" fill="#304893"/>
<path d="M2.59961 8.40029L3.19962 8.80029L3.59961 8.30029L3.69962 8.40029L3.29959 8.90029L3.69962 9.40029L3.59961 9.50029L3.19962 9.00029L2.69962 9.50029L2.59961 9.40029L3.09961 8.90029L2.59961 8.50029V8.40029Z" fill="#304893"/>
</svg>
