<svg width="28" height="10" viewBox="0 0 28 10" fill="none" xmlns="http://www.w3.org/2000/svg">
<path d="M5.6001 1.3999C5.9001 1.3999 6.20009 1.3999 6.50009 1.3999L6.1001 1.7999L5.6001 1.3999Z" fill="#AE9999"/>
<path d="M0.200195 2.59971L0.700195 9.69971C1.1002 9.69971 1.50018 9.69971 1.90018 9.69971L1.80017 9.59971L2.2002 9.09971L1.7002 8.69971L1.80017 8.59971L2.30017 8.99971L2.7002 8.49971L2.80017 8.59971L2.40018 9.09971L2.90018 9.49971L2.80017 9.59971L2.30017 9.19971L1.90018 9.69971C3.00018 9.69971 4.00019 9.59971 5.10019 9.59971L5.00018 9.49971L5.40018 8.99971L4.90018 8.59971L5.00018 8.49971L5.50018 8.89971L5.90018 8.39971L6.00018 8.49971L5.60019 8.99971L6.10019 9.39971L6.00018 9.49971L5.50018 9.09971L5.10019 9.59971C13.1002 9.29971 20.6002 8.99971 27.3002 8.89971V8.59971L27.2002 8.69971L27.1002 8.59971L27.3002 8.29971V7.89971L27.0002 7.59971L27.1002 7.49971L27.3002 7.69971L27.7002 0.199707C25.4002 0.299707 23.1002 0.39971 20.7002 0.49971L21.2002 0.99971L21.7002 0.49971L21.8002 0.599709L21.3002 1.09971L21.8002 1.49971L21.7002 1.59971L21.2002 1.19971L20.8002 1.69971L20.7002 1.59971L21.1002 1.09971L20.6002 0.599709L20.7002 0.49971C19.1002 0.59971 17.5002 0.599707 15.9002 0.699707L16.0002 0.799713L15.5002 1.29971L16.0002 1.69971V1.99971L15.5002 1.59971L15.1002 2.09971L15.0002 1.99971L15.4002 1.49971L14.9002 0.99971L15.0002 0.899712C12.2002 0.999712 9.40019 1.19971 6.60019 1.29971L6.2002 1.79971L6.7002 2.19971L6.60019 2.29971L6.10019 1.89971L5.7002 2.39971L5.60019 2.29971L6.00018 1.79971L5.50018 1.39971L5.60019 1.29971C4.90019 1.29971 4.20019 1.39971 3.60019 1.39971L3.2002 1.89971L3.7002 2.29971L3.60019 2.39971L3.10019 1.99971L2.7002 2.49971L2.60019 2.39971L3.00018 1.89971L2.50018 1.49971L2.60019 1.39971L3.10019 1.79971L3.50018 1.29971C2.40018 1.39971 1.3002 1.39971 0.200195 1.49971V1.69971L0.400177 1.49971L0.500183 1.59971L0.200195 1.89971V2.29971L0.500183 2.59971L0.400177 2.69971L0.200195 2.59971ZM26.8002 0.99971L26.3002 0.49971L26.4002 0.399712L26.8002 0.99971L27.4002 0.399712L27.5002 0.49971L27.0002 0.99971L27.5002 1.39971L27.4002 1.49971L26.8002 0.99971L26.5002 1.59971L26.4002 1.49971L26.8002 0.99971ZM24.5002 8.29971L24.0002 7.79971L24.1002 7.69971L24.5002 8.29971L25.1002 7.69971L25.2002 7.79971L24.7002 8.29971L25.2002 8.69971L25.1002 8.79971L24.5002 8.29971L24.2002 8.89971L24.1002 8.79971L24.5002 8.29971ZM23.9002 1.09971L23.4002 0.599709L23.5002 0.49971L23.9002 1.09971L24.5002 0.49971L24.6002 0.599709L24.1002 1.09971L24.6002 1.49971L24.5002 1.59971L23.9002 1.09971L23.6002 1.69971L23.5002 1.59971L23.9002 1.09971ZM21.6002 8.39971L21.1002 7.89971L21.2002 7.79971L21.6002 8.39971L22.2002 7.79971L22.3002 7.89971L21.8002 8.39971L22.3002 8.79971L22.2002 8.89971L21.6002 8.39971L21.3002 8.99971L21.2002 8.89971L21.6002 8.39971ZM18.7002 8.49971L18.2002 7.99971L18.3002 7.89971L18.8002 8.39971L19.3002 7.89971L19.4002 7.99971L18.9002 8.49971L19.4002 8.89971L19.3002 8.99971L18.8002 8.59971L18.4002 9.09971L18.3002 8.99971L18.7002 8.49971ZM18.4002 1.39971L17.9002 0.899712L18.0002 0.799713L18.4002 1.39971L19.0002 0.799713L19.1002 0.899712L18.6002 1.39971L19.1002 1.79971L19.0002 1.89971L18.4002 1.39971L18.1002 1.99971L18.0002 1.89971L18.4002 1.39971ZM15.7002 8.49971L15.2002 8.09971L15.3002 7.99971L15.8002 8.39971L16.2002 7.89971L16.3002 7.99971L15.9002 8.49971L16.4002 8.89971L16.3002 8.99971L15.8002 8.59971L15.4002 9.09971L15.3002 8.99971L15.7002 8.49971ZM12.6002 1.69971L12.2002 2.19971L12.1002 2.09971L12.5002 1.59971L12.0002 1.19971L12.1002 1.09971L12.6002 1.49971L13.0002 0.99971L13.1002 1.09971L12.7002 1.59971L13.2002 1.99971L13.1002 2.09971L12.6002 1.69971ZM11.9002 8.69971L11.4002 8.19971L11.5002 8.09971L11.9002 8.69971L12.5002 8.09971L12.6002 8.19971L12.1002 8.69971L12.6002 9.09971L12.5002 9.19971L11.9002 8.69971L11.6002 9.29971L11.5002 9.19971L11.9002 8.69971ZM9.90018 2.39971L9.40018 1.89971L8.90018 2.39971L8.80017 2.29971L9.30017 1.79971L8.80017 1.29971L8.90018 1.19971L9.40018 1.69971L9.90018 1.19971L10.0002 1.29971L9.50018 1.79971L9.90018 2.39971ZM8.80017 8.79971L8.30017 8.39971L8.40018 8.29971L8.90018 8.69971L9.30017 8.19971L9.40018 8.29971L9.00018 8.79971L9.50018 9.19971L9.40018 9.29971L8.90018 8.89971L8.50018 9.39971L8.40018 9.29971L8.80017 8.79971Z" fill="#AE9999"/>
<path d="M15 0.899902C15.3 0.899902 15.6 0.899902 16 0.899902L15.5 1.3999L15 0.899902Z" fill="#AE9999"/>
<path d="M26.4003 0.399902L26.9003 0.899902L27.4003 0.399902L27.5003 0.499901L27.0003 0.999901L27.5003 1.3999L27.4003 1.4999L26.9003 1.0999L26.5003 1.4999L26.4003 1.3999L26.8003 0.999901L26.3003 0.499901L26.4003 0.399902Z" fill="#304893"/>
<path d="M23.5004 0.59951L24.0004 0.999512L24.5004 0.499512L24.6004 0.59951L24.1004 1.09951L24.6004 1.59951L24.5004 1.69951L24.0004 1.19951L23.6004 1.69951L23.5004 1.59951L23.9004 1.09951L23.4004 0.699509L23.5004 0.59951Z" fill="#304893"/>
<path d="M21.8002 0.599609V0.699608L21.4002 1.19961L21.8002 1.69961H21.7002L21.3002 1.29961L20.8002 1.79961L20.7002 1.69961L21.2002 1.19961L20.7002 0.699608L20.8002 0.599609L21.3002 1.09961L21.8002 0.599609Z" fill="#304893"/>
<path d="M15.6004 1.4999L16.1004 1.8999L16.0004 1.9999L15.5004 1.5999L15.1004 2.0999L15.0004 1.9999L15.4004 1.4999L14.9004 0.999901L15.0004 0.899902L15.5004 1.3999L16.0004 0.899902L16.1004 0.999901L15.6004 1.4999Z" fill="#304893"/>
<path d="M12.0004 2.09951L12.5004 1.59951L11.9004 1.19951L12.0004 1.09951L12.5004 1.49951L13.0004 0.999512L13.1004 1.09951L12.6004 1.59951L13.1004 1.99951L13.0004 2.09951L12.6004 1.69951L12.2004 2.19951L12.0004 2.09951Z" fill="#304893"/>
<path d="M9.00031 2.3998L8.9003 2.2998L9.30029 1.8998L8.80029 1.3998L8.9003 1.2998L9.4003 1.7998L9.9003 1.2998L10.0003 1.3998L9.50031 1.8998L10.0003 2.2998L9.9003 2.3998L9.4003 1.9998L9.00031 2.3998Z" fill="#304893"/>
<path d="M6.5 1.19971L6.60001 1.29971C6.60001 1.29971 6.5 1.29971 6.5 1.19971Z" fill="#304893"/>
<path d="M6.70001 2.2999L6.60001 2.3999L6.10001 1.9999L5.70001 2.4999L5.60001 2.3999L6 1.8999L5.5 1.4999L5.60001 1.3999C5.60001 1.3999 5.60001 1.3999 5.70001 1.3999L6.20001 1.7999L6.60001 1.3999C6.70001 1.3999 6.69999 1.3999 6.79999 1.3999L6.39999 1.8999L6.70001 2.2999Z" fill="#304893"/>
<path d="M3.1004 2.09951L3.6004 2.49951L3.5004 2.59951L3.0004 2.19951L2.6004 2.69951L2.5004 2.59951L2.90039 2.09951L2.40039 1.69951L2.5004 1.59951L3.0004 1.99951L3.40039 1.49951H3.5004L3.1004 2.09951Z" fill="#304893"/>
<path d="M0.500183 2.6999L0.400177 2.7999L0.200195 2.5999V2.3999L0.500183 2.6999Z" fill="#304893"/>
<path d="M0.500183 1.79971L0.200195 2.09971V1.89971L0.300171 1.69971L0.500183 1.79971Z" fill="#304893"/>
<path d="M18.0004 0.799805L18.4004 1.2998L18.9004 0.799805L19.0004 0.899803L18.5004 1.3998L19.0004 1.7998L18.9004 1.8998L18.4004 1.4998L18.0004 1.8998L17.9004 1.7998L18.4004 1.3998L17.9004 0.899803L18.0004 0.799805Z" fill="#304893"/>
<path d="M18.2001 7.8999L18.7001 8.3999L19.2001 7.8999L19.3001 7.9999L18.8001 8.4999L19.3001 8.8999L19.2001 8.9999L18.8001 8.5999L18.3001 9.0999L18.2001 8.9999L18.7001 8.4999L18.1001 7.9999L18.2001 7.8999Z" fill="#304893"/>
<path d="M15.2001 7.9999L15.8001 8.3999L16.2001 7.8999L16.3001 7.9999L15.9001 8.4999L16.4001 8.8999L16.3001 8.9999L15.8001 8.5999L15.4001 9.0999L15.3001 8.9999L15.7001 8.4999L15.1001 8.0999L15.2001 7.9999Z" fill="#304893"/>
<path d="M11.5004 8.19961L12.0004 8.59961L12.5004 8.09961L12.6004 8.19961L12.1004 8.69961L12.5004 9.19961L12.4004 9.29961L12.0004 8.79961L11.5004 9.29961L11.4004 9.19961L11.9004 8.69961L11.4004 8.29961L11.5004 8.19961Z" fill="#304893"/>
<path d="M8.30017 8.29971L8.80017 8.69971L9.30017 8.19971H9.40018L9.00018 8.79971L9.50018 9.19971L9.40018 9.29971L8.90018 8.89971L8.50018 9.39971L8.40018 9.29971L8.80017 8.79971L8.2002 8.39971L8.30017 8.29971Z" fill="#304893"/>
<path d="M5.4003 8.9998L4.80029 8.5998L4.9003 8.4998L5.50031 8.8998L5.9003 8.2998L6.00031 8.3998L5.60031 8.9998L6.10031 9.2998L6.00031 9.4998L5.50031 9.0998L5.10031 9.5998L5.00031 9.4998L5.4003 8.9998Z" fill="#304893"/>
<path d="M2.2002 9.19961L1.7002 8.79961L1.80017 8.69961L2.30017 9.09961L2.7002 8.59961L2.80017 8.69961L2.40018 9.19961L2.90018 9.59961L2.80017 9.69961L2.30017 9.29961L1.90018 9.79961C1.90018 9.79961 1.90017 9.79961 1.80017 9.79961L1.7002 9.69961L2.2002 9.19961Z" fill="#304893"/>
<path d="M21.1 7.7998L21.6 8.2998L22.1 7.7998L22.2 7.8998L21.7 8.3998L22.2 8.7998L22.1 8.8998L21.7 8.4998L21.2 8.8998L21.1 8.7998L21.6 8.3998L21 7.8998L21.1 7.7998Z" fill="#304893"/>
<path d="M24.1 7.69971L24.6 8.19971L25.1 7.69971L25.2 7.79971L24.7 8.29971L25.2 8.69971L25.1 8.79971L24.6 8.39971L24.2 8.79971H24.1L24.5 8.29971L24 7.79971L24.1 7.69971Z" fill="#304893"/>
<path d="M27 7.69961L27.1 7.59961L27.4 7.79961V7.99961L27 7.69961Z" fill="#304893"/>
<path d="M27.2001 8.6999L27.1001 8.5999L27.3001 8.3999V8.5999L27.2001 8.6999Z" fill="#304893"/>
</svg>
