<svg width="24" height="10" viewBox="0 0 24 10" fill="none" xmlns="http://www.w3.org/2000/svg">
<path d="M0.299805 9.6V9.9C9.4998 9.7 17.2998 9.6 23.2998 9.5V9.3L23.1998 9.4L23.0998 9.3L23.2998 9.1V8.6L22.9998 8.3L23.0998 8.2L23.2998 8.4L23.6998 0.5C17.1998 0.7 9.39983 0.900003 0.699829 1.3L0.299805 8.8L0.599823 9L1.09982 8.5L1.19983 8.6L0.699829 9.1L1.19983 9.5L1.09982 9.6L0.599823 9.2L0.299805 9.6ZM22.3998 1.5L21.9998 1L22.0998 0.900002L22.3998 1.5L22.9998 0.900002L23.0998 1L22.5998 1.5L23.0998 1.9L22.9998 2L22.3998 1.5L22.0998 2.1L21.9998 2L22.3998 1.5ZM20.3998 8.8L19.8998 8.3L19.9998 8.2L20.3998 8.8L20.9998 8.2L21.0998 8.3L20.5998 8.8L21.0998 9.2L20.9998 9.3L20.3998 8.8L20.0998 9.4L19.9998 9.3L20.3998 8.8ZM18.6998 1.5L18.1998 1L18.2998 0.900002L18.6998 1.5L19.2998 0.900002L19.3998 1L18.8998 1.5L19.3998 1.9L19.2998 2L18.6998 1.5L18.3998 2.1L18.2998 2L18.6998 1.5ZM17.2998 8.9L16.7998 8.4L16.8998 8.3L17.2998 8.9L17.8998 8.3L17.9998 8.4L17.4998 8.9L17.9998 9.3L17.8998 9.4L17.2998 8.9L16.9998 9.5L16.8998 9.4L17.2998 8.9ZM15.1998 1.6L14.7998 2.1L14.6998 2L15.1998 1.6L14.5998 1L14.6998 0.900002L15.1998 1.4L15.6998 0.900002L15.7998 1L15.1998 1.6L15.7998 1.9L15.6998 2L15.1998 1.6ZM14.4998 8.9L13.9998 8.4L14.0998 8.3L14.4998 8.9L15.0998 8.3L15.1998 8.4L14.6998 8.9L15.1998 9.3L15.0998 9.4L14.4998 8.9L14.1998 9.5L14.0998 9.4L14.4998 8.9ZM12.1998 1.6L12.6998 2L12.5998 2.1L12.1998 1.6L11.6998 2.2L11.5998 2.1L11.9998 1.6L11.4998 1.1L11.5998 1L12.1998 1.6L12.5998 1L12.6998 1.1L12.1998 1.6ZM11.8998 9L11.3998 8.5L11.4998 8.4L11.8998 9L12.4998 8.4L12.5998 8.5L12.0998 9L12.5998 9.4L12.4998 9.5L11.8998 9L11.5998 9.6L11.4998 9.5L11.8998 9ZM9.19983 9L8.69983 8.5L8.7998 8.4L9.19983 9L9.7998 8.4L9.89981 8.5L9.39981 9L9.89981 9.4L9.7998 9.5L9.19983 9L8.89981 9.6L8.7998 9.5L9.19983 9ZM8.99982 1.7L8.49982 1.2L8.59982 1.1L8.99982 1.7L9.59982 1.1L9.69983 1.2L9.19983 1.7L9.69983 2.1L9.59982 2.2L8.99982 1.7L8.69983 2.3L8.59982 2.2L8.99982 1.7ZM6.39981 9.1L5.89981 8.6L5.99982 8.5L6.39981 9.1L6.99982 8.5L7.09982 8.6L6.59982 9.1L7.09982 9.5L6.99982 9.6L6.39981 9.1L6.09982 9.7L5.99982 9.6L6.39981 9.1ZM5.89981 1.9L5.39981 1.4L5.49982 1.3L5.89981 1.9L6.49982 1.3L6.59982 1.4L6.09982 1.9L6.59982 2.3L6.49982 2.4L5.89981 1.9L5.59982 2.5L5.49982 2.4L5.89981 1.9ZM3.39981 9.1L2.89981 8.6L2.99982 8.5L3.39981 9.1L3.99982 8.5L4.09982 8.6L3.59982 9.1L4.09982 9.5L3.99982 9.6L3.39981 9.1L3.09982 9.7L2.99982 9.6L3.39981 9.1ZM2.89981 1.9L2.39981 1.4L2.49982 1.3L2.89981 1.9L3.49982 1.3L3.59982 1.4L3.09982 1.9L3.59982 2.3L3.49982 2.4L2.89981 1.9L2.59982 2.5L2.49982 2.4L2.89981 1.9Z" fill="#AE9999"/>
<path d="M22 0.899902L22.5 1.3999L23 0.899902L23.1 0.999901L22.6 1.4999L23.1 1.8999L23 1.9999L22.5 1.5999L22.1 1.9999L22 1.8999L22.4 1.4999L22 0.999901V0.899902Z" fill="#304893"/>
<path d="M18.2997 0.899902L18.7997 1.3999L19.2997 0.899902L19.3997 0.999901L18.8997 1.4999L19.2997 1.9999V2.0999L18.7997 1.5999L18.2997 2.0999V1.9999L18.6997 1.4999L18.1997 0.999901L18.2997 0.899902Z" fill="#304893"/>
<path d="M14.6996 1.9999L15.0996 1.4999L14.5996 1.0999L14.6996 0.999901L15.1996 1.3999L15.6996 0.899902L15.7996 0.999901L15.2996 1.4999L15.7996 1.9999L15.6996 2.0999L15.1996 1.5999L14.7996 2.0999L14.6996 1.9999Z" fill="#304893"/>
<path d="M12.6 2.1L12.1 1.7L11.7 2.1L11.6 2L12 1.6L11.5 1.1L11.6 1L12.1 1.5L12.6 1L12.7 1.1L12.2 1.6L12.7 2L12.6 2.1Z" fill="#304893"/>
<path d="M8.60001 1.1001L9.10001 1.6001L9.60001 1.1001L9.70001 1.2001L9.20001 1.7001L9.60001 2.1001L9.5 2.2001L9.10001 1.8001L8.60001 2.2001L8.5 2.1001L9 1.7001L8.5 1.2001L8.60001 1.1001Z" fill="#304893"/>
<path d="M5.49991 1.2998L5.99991 1.7998L6.49991 1.2998L6.59991 1.3998L6.09991 1.8998L6.59991 2.2998L6.49991 2.3998L5.99991 1.9998L5.59991 2.3998L5.49991 2.2998L5.8999 1.8998L5.3999 1.3998L5.49991 1.2998Z" fill="#304893"/>
<path d="M2.49991 1.3998L2.99991 1.7998L3.49991 1.2998L3.59991 1.3998L3.09991 1.8998L3.59991 2.3998L3.49991 2.4998L2.99991 1.9998L2.59991 2.4998L2.49991 2.3998L2.8999 1.8998L2.3999 1.4998L2.49991 1.3998Z" fill="#304893"/>
<path d="M1.09982 8.6001L1.19983 8.7001L0.699829 9.2001L1.19983 9.6001L1.09982 9.7001L0.599823 9.3001L0.299805 9.6001V9.4001L0.499817 9.2001L0.399811 9.0001V8.8001L0.599823 9.1001L1.09982 8.6001Z" fill="#304893"/>
<path d="M2.99991 8.5L3.49991 9L3.99991 8.5L4.09991 8.6L3.59991 9.1L4.09991 9.5L3.99991 9.6L3.49991 9.2L3.09991 9.7L2.99991 9.6L3.3999 9.1L2.8999 8.6L2.99991 8.5Z" fill="#304893"/>
<path d="M5.99991 8.5L6.49991 9L6.8999 8.5L6.99991 8.6L6.59991 9.1L6.99991 9.5L6.8999 9.6L6.49991 9.2L5.99991 9.6H5.8999L6.3999 9.1L5.8999 8.6L5.99991 8.5Z" fill="#304893"/>
<path d="M8.79968 8.4999L9.29968 8.8999L9.69971 8.3999L9.79968 8.4999L9.39969 8.9999L9.79968 9.4999L9.69971 9.5999L9.29968 9.0999L8.79968 9.5999L8.69971 9.4999L9.19971 8.9999L8.69971 8.5999L8.79968 8.4999Z" fill="#304893"/>
<path d="M11.4999 8.3999L11.9999 8.8999L12.4999 8.3999L12.5999 8.4999L12.0999 8.9999L12.5999 9.3999L12.4999 9.4999L11.9999 9.0999L11.5999 9.4999L11.4999 9.3999L11.8999 8.9999L11.3999 8.4999L11.4999 8.3999Z" fill="#304893"/>
<path d="M14.1 8.3998L14.6 8.7998L15.1 8.2998L15.2 8.3998L14.7 8.8998L15.2 9.3998L15.1 9.4998L14.6 8.9998L14.2 9.4998L14.1 9.3998L14.5 8.8998L14 8.4998L14.1 8.3998Z" fill="#304893"/>
<path d="M16.8998 8.3998L17.3998 8.7998L17.8998 8.2998L17.9998 8.3998L17.4998 8.8998L17.9998 9.3998L17.8998 9.4998L17.3998 8.9998L16.9998 9.4998L16.8998 9.3998L17.2998 8.8998L16.7998 8.4998L16.8998 8.3998Z" fill="#304893"/>
<path d="M19.9999 8.3002L20.4999 8.7002L20.9999 8.2002L21.0999 8.3002L20.5999 8.8002L21.0999 9.3002L20.9999 9.4002L20.4999 8.9002L20.0999 9.4002L19.9999 9.3002L20.3999 8.8002L19.8999 8.4002L19.9999 8.3002Z" fill="#304893"/>
<path d="M23 8.3002L23.1 8.2002L23.3 8.4002V8.6002L23 8.3002Z" fill="#304893"/>
<path d="M23.1996 9.3001H23.0996L23.2996 9.1001V9.3001H23.1996Z" fill="#304893"/>
</svg>
