<svg width="25" height="10" viewBox="0 0 25 10" fill="none" xmlns="http://www.w3.org/2000/svg">
<path d="M0.299805 9.2998V9.4998C8.2998 9.3998 12.7998 9.4998 12.7998 9.4998L21.7998 9.2998C23.0998 9.2998 24.0998 8.2998 24.0998 6.9998V2.5998C24.0998 1.2998 23.0998 0.299805 21.7998 0.299805H18.1998H17.3998C17.3998 0.299805 12.0998 0.299805 8.99982 0.299805L3.59982 0.399803L0.999817 0.499802C0.899817 0.499802 0.899805 0.499802 0.799805 0.499802L0.399811 8.3998L0.699829 8.6998L1.19983 8.1998L1.2998 8.2998L0.799805 8.7998L1.2998 9.1998L1.19983 9.2998L0.699829 8.8998L0.299805 9.2998ZM22.2998 4.8998L21.7998 4.3998L21.8998 4.2998L22.2998 4.8998L22.8998 4.2998L22.9998 4.3998L22.4998 4.8998L22.8998 5.3998L22.7998 5.4998L22.2998 4.8998L21.8998 5.3998L21.7998 5.2998L22.2998 4.8998ZM22.9998 1.0998L22.4998 1.5998L22.8998 2.0998L22.7998 2.1998L22.3998 1.6998L21.8998 2.0998L21.7998 1.9998L22.2998 1.5998L21.7998 1.0998L21.8998 0.999802L22.3998 1.4998L22.9998 1.0998ZM21.6998 8.1998L22.2998 7.8998L21.9998 7.2998L22.0998 7.1998L22.3998 7.7998L22.9998 7.4998L23.0998 7.5998L22.4998 7.8998L22.7998 8.4998L22.6998 8.5998L22.3998 7.9998L21.7998 8.2998L21.6998 8.1998ZM18.9998 8.4998L18.4998 7.9998L18.5998 7.8998L18.9998 8.4998L19.5998 7.8998L19.6998 7.9998L19.1998 8.4998L19.6998 8.8998L19.5998 8.9998L18.9998 8.4998L18.6998 9.0998L18.5998 8.9998L18.9998 8.4998ZM18.3998 1.8998L18.8998 1.4998L18.4998 0.899803L18.5998 0.799805L18.9998 1.3998L19.5998 0.999802L19.6998 1.0998L19.0998 1.4998L19.4998 1.9998L19.3998 2.0998L18.9998 1.5998L18.4998 1.9998L18.3998 1.8998ZM16.5998 0.999802L15.9998 1.3998L16.3998 1.8998L16.2998 1.9998L15.8998 1.4998L15.3998 1.8998L15.2998 1.7998L15.7998 1.3998L15.3998 0.799805L15.4998 0.699799L15.8998 1.2998L16.4998 0.899803L16.5998 0.999802ZM15.7998 8.5998L15.2998 8.0998L15.3998 7.9998L15.7998 8.5998L16.3998 7.9998L16.4998 8.0998L15.9998 8.5998L16.4998 8.9998L16.3998 9.0998L15.7998 8.5998L15.4998 9.1998L15.3998 9.0998L15.7998 8.5998ZM12.9998 8.6998L12.4998 8.1998L12.5998 8.0998L12.9998 8.6998L13.5998 8.0998L13.6998 8.1998L13.1998 8.6998L13.6998 9.0998L13.5998 9.1998L12.9998 8.6998L12.6998 9.2998L12.5998 9.1998L12.9998 8.6998ZM11.8998 1.7998L12.3998 1.3998L11.9998 0.799805L12.0998 0.699799L12.4998 1.2998L13.0998 0.899803L13.1998 0.999802L12.5998 1.3998L12.9998 1.8998L12.8998 1.9998L12.4998 1.4998L11.9998 1.8998L11.8998 1.7998ZM9.89981 8.7998L9.39981 8.2998L9.49982 8.1998L9.89981 8.7998L10.4998 8.1998L10.5998 8.2998L10.0998 8.7998L10.5998 9.1998L10.4998 9.2998L9.89981 8.7998L9.59982 9.3998L9.49982 9.2998L9.89981 8.7998ZM8.7998 1.7998L9.2998 1.3998L8.89981 0.799805L8.99982 0.699799L9.39981 1.2998L9.99982 0.899803L10.0998 0.999802L9.49982 1.3998L9.89981 1.8998L9.7998 1.9998L9.39981 1.4998L8.89981 1.8998L8.7998 1.7998ZM6.7998 8.7998L6.2998 8.2998L6.39981 8.1998L6.7998 8.7998L7.39981 8.1998L7.49982 8.2998L6.99982 8.7998L7.49982 9.1998L7.39981 9.2998L6.7998 8.7998L6.49982 9.3998L6.39981 9.2998L6.7998 8.7998ZM5.69983 1.7998L6.19983 1.3998L5.7998 0.799805L5.89981 0.699799L6.2998 1.2998L6.89981 0.899803L6.99982 0.999802L6.39981 1.3998L6.7998 1.8998L6.69983 1.9998L6.2998 1.4998L5.7998 1.8998L5.69983 1.7998ZM3.59982 8.6998L3.09982 8.1998L3.19983 8.0998L3.59982 8.6998L4.19983 8.0998L4.2998 8.1998L3.7998 8.6998L4.2998 9.0998L4.19983 9.1998L3.59982 8.6998L3.2998 9.2998L3.19983 9.1998L3.59982 8.6998ZM2.59982 1.7998L3.09982 1.3998L2.69983 0.799805L2.7998 0.699799L3.19983 1.2998L3.7998 0.899803L3.89981 0.999802L3.2998 1.3998L3.69983 1.8998L3.59982 1.9998L3.19983 1.4998L2.69983 1.8998L2.59982 1.7998Z" fill="#AE9999"/>
<path d="M0.299805 9.09961V8.59961L0.499817 8.79961L0.299805 9.09961Z" fill="#AE9999"/>
<path d="M21.9997 7.2998H22.0997L22.3997 7.8998L22.9997 7.5998L23.0997 7.6998L22.4997 7.9998L22.6997 8.5998H22.5997L22.2997 8.0998L21.7997 8.2998L21.6997 8.1998L22.2997 7.8998L21.9997 7.2998Z" fill="#304893"/>
<path d="M21.8998 4.2998L22.3998 4.7998L22.8998 4.2998L22.9998 4.3998L22.4998 4.8998L22.8998 5.3998L22.7998 5.4998L22.3998 4.9998L21.8998 5.3998L21.7998 5.2998L22.2998 4.8998L21.7998 4.3998L21.8998 4.2998Z" fill="#304893"/>
<path d="M18.4999 0.899902H18.5999L18.9999 1.3999L19.5999 0.999901L19.6999 1.0999L19.0999 1.4999L19.4999 2.0999H19.3999L18.9999 1.5999L18.4999 1.9999L18.3999 1.8999L18.8999 1.4999L18.4999 0.899902Z" fill="#304893"/>
<path d="M16.3998 1.89971L16.2998 1.99971L15.8998 1.49971L15.3998 1.79971L15.2998 1.69971L15.7998 1.39971L15.3998 0.799713L15.5998 0.699707L15.8998 1.29971L16.4998 0.899712L16.5998 0.99971L15.9998 1.39971L16.3998 1.89971Z" fill="#304893"/>
<path d="M11.9999 0.899803L12.0999 0.799805L12.4999 1.3998L13.0999 0.999802V1.0998L12.5999 1.4998L12.8999 1.9998L12.7999 2.0998L12.4999 1.5998L11.8999 1.9998V1.7998L12.3999 1.4998L11.9999 0.899803Z" fill="#304893"/>
<path d="M8.89981 0.899803L8.99982 0.799805L9.39981 1.3998L9.99982 0.999802L10.0998 1.0998L9.49982 1.4998L9.89981 1.9998L9.7998 2.0998L9.39981 1.5998L8.89981 1.8998L8.7998 1.7998L9.2998 1.3998L8.89981 0.899803Z" fill="#304893"/>
<path d="M5.89969 0.799805H5.99969L6.39969 1.2998L6.89969 0.899803L6.99969 0.999802L6.39969 1.3998L6.79968 1.9998H6.69971L6.29968 1.4998L5.79968 1.8998L5.69971 1.7998L6.19971 1.3998L5.89969 0.799805Z" fill="#304893"/>
<path d="M2.69962 0.799805H2.79959L3.19962 1.2998L3.79959 0.899803L3.8996 1.0998L3.29959 1.3998L3.59961 1.9998L3.4996 2.0998L3.19962 1.4998L2.59961 1.8998V1.7998L3.09961 1.3998L2.69962 0.799805Z" fill="#304893"/>
<path d="M22.9999 2.1L22.8999 2.2L22.3999 1.7L21.9999 2.2L21.8999 2.1L22.2999 1.6L21.8999 1.1L21.9999 1L22.3999 1.5L22.8999 1L22.9999 1.1L22.4999 1.6L22.9999 2.1Z" fill="#304893"/>
<path d="M1.09982 8.19971L1.19983 8.29971L0.699829 8.79971L1.19983 9.19971L1.09982 9.29971L0.599823 8.89971L0.299805 9.29971V9.09971L0.499817 8.79971L0.299805 8.59971V8.39971L0.599823 8.69971L1.09982 8.19971Z" fill="#304893"/>
<path d="M3.19962 8.19961L3.69962 8.59961L4.19962 8.09961L4.29959 8.19961L3.79959 8.69961L4.29959 9.19961L4.19962 9.29961L3.69962 8.79961L3.29959 9.29961L3.19962 9.19961L3.59961 8.69961L3.09961 8.29961L3.19962 8.19961Z" fill="#304893"/>
<path d="M6.39981 8.19971L6.89981 8.69971L7.39981 8.19971H7.49982L6.99982 8.69971L7.49982 9.19971L7.39981 9.29971L6.89981 8.79971L6.49982 9.29971L6.39981 9.19971L6.7998 8.79971L6.2998 8.29971L6.39981 8.19971Z" fill="#304893"/>
<path d="M9.49991 8.19971L9.99991 8.69971L10.4999 8.19971H10.5999L10.0999 8.69971L10.5999 9.19971L10.4999 9.29971L9.99991 8.79971L9.59991 9.29971L9.49991 9.19971L9.8999 8.79971L9.3999 8.29971L9.49991 8.19971Z" fill="#304893"/>
<path d="M12.6 8.09961L13.1 8.59961L13.5 8.09961L13.6 8.19961L13.2 8.69961L13.6 9.09961L13.5 9.19961L13.1 8.79961L12.6 9.29961L12.5 9.19961L13 8.69961L12.5 8.19961L12.6 8.09961Z" fill="#304893"/>
<path d="M15.3998 8.1L15.8998 8.5L16.2998 8L16.3998 8.1L15.9998 8.6L16.3998 9.1L16.2998 9.2L15.8998 8.7L15.3998 9.2L15.2998 9.1L15.7998 8.6L15.2998 8.2L15.3998 8.1Z" fill="#304893"/>
<path d="M18.6 7.8999L19.1 8.3999L19.6 7.8999L19.7 7.9999L19.2 8.4999L19.7 8.8999L19.6 8.9999L19.1 8.5999L18.7 9.0999L18.6 8.9999L19 8.4999L18.5 7.9999L18.6 7.8999Z" fill="#304893"/>
</svg>
