<svg width="28" height="15" viewBox="0 0 28 15" fill="none" xmlns="http://www.w3.org/2000/svg">
<path d="M22.6002 13.9L26.9002 14.3L27.5002 6.69999L27.0002 6.99999L26.9002 6.89998L27.4002 6.49999V6.39998L27.1002 5.89998L27.2002 5.79999L27.4002 6.09999V5.69999C18.0002 3.79999 12.6002 2.59999 12.6002 2.59999L3.80019 0.999988C2.60019 0.699988 1.40019 1.49999 1.10019 2.79999L0.200184 7.09999C-0.0998163 8.29999 0.700187 9.49999 2.00019 9.79999L5.50019 10.5L6.30019 10.7C6.30019 10.7 11.4002 11.8 14.6002 12.4L19.9002 13.4L22.6002 13.9C23.9002 14.2 25.4002 14.4 26.9002 14.7C25.4002 14.5 24.0002 14.2 22.6002 13.9ZM24.1002 5.39998L24.2002 5.29999L24.6002 5.79999L25.1002 5.39998L25.2002 5.49999L24.7002 5.89998L25.1002 6.49999L25.0002 6.59999L24.6002 5.99999L24.0002 6.39998L23.9002 6.29999L24.5002 5.89998L24.1002 5.39998ZM23.7002 12.7L23.8002 12.6L24.2002 13.1L24.7002 12.7L24.8002 12.8L24.3002 13.2L24.7002 13.8L24.6002 13.9L24.2002 13.3L23.6002 13.7L23.5002 13.6L24.1002 13.2L23.7002 12.7ZM2.20018 8.99999L2.10019 9.09999L1.70018 8.49999L1.10019 8.89998L1.00019 8.79999L1.60019 8.39998L1.30019 7.89998L1.40019 7.79999L1.70018 8.29999L2.20018 7.99999L2.30019 8.09999L1.80019 8.39998L2.20018 8.99999ZM2.90019 5.79999L2.80019 5.89998L2.40019 5.29999L1.80019 5.69999L1.70018 5.59999L2.30019 5.19999L2.00019 4.69999L2.10019 4.59999L2.40019 5.09999L2.90019 4.79999L3.00019 4.89998L2.50019 5.19999L2.90019 5.79999ZM3.40019 2.89998H3.30019L3.10019 2.19999L2.40019 2.39998V2.29999L3.10019 2.09999L2.90019 1.49999H3.00019L3.20018 2.09999L3.80019 1.89998V1.99999L3.20018 2.19999L3.40019 2.89998ZM5.20018 9.19999L5.50019 9.79999L5.40019 9.89998L5.10019 9.29999L4.50019 9.59999L4.40019 9.49999L5.00019 9.19999L4.80019 8.59999L4.90019 8.49999L5.10019 9.09999L5.70018 8.89998L5.80019 8.99999L5.20018 9.19999ZM6.90019 2.89998L6.80019 2.99999L6.40019 2.39998L5.80019 2.79999L5.70018 2.69999L6.30019 2.29999L5.90019 1.79999L6.00019 1.69999L6.40019 2.19999L6.90019 1.79999L7.00019 1.99999L6.50019 2.39998L6.90019 2.89998ZM8.40019 10.6L8.30019 10.7L8.00019 10.1L7.40019 10.4L7.30019 10.3L7.90019 9.99999L7.70018 9.39998L7.80019 9.29999L8.00019 9.89998L8.60019 9.69999L8.70018 9.79999L8.10019 9.99999L8.40019 10.6ZM10.1002 3.49999L10.0002 3.59999L9.60019 2.99999L9.00019 3.39998L8.90019 3.29999L9.50019 2.89998L9.10019 2.39998L9.20018 2.29999L9.60019 2.79999L10.1002 2.39998L10.2002 2.49999L9.70018 2.89998L10.1002 3.49999ZM11.8002 11.2L11.7002 11.3L11.4002 10.7L10.8002 11L10.7002 10.9L11.3002 10.6L11.1002 9.99999L11.2002 9.89998L11.4002 10.5L12.0002 10.3L12.1002 10.4L11.5002 10.6L11.8002 11.2ZM12.9002 3.99999L12.8002 4.09999L12.4002 3.49999L11.8002 3.89998L11.7002 3.79999L12.3002 3.39998L11.9002 2.89998L12.0002 2.79999L12.4002 3.29999L12.9002 2.89998L13.0002 2.99999L12.5002 3.39998L12.9002 3.99999ZM14.8002 11.9L14.7002 12L14.4002 11.4L13.8002 11.7L13.7002 11.6L14.3002 11.3L14.1002 10.7L14.2002 10.6L14.4002 11.2L15.0002 11L15.1002 11.1L14.5002 11.3L14.8002 11.9ZM15.9002 4.59999L15.8002 4.69999L15.4002 4.09999L14.8002 4.49999L14.7002 4.39998L15.3002 3.99999L14.9002 3.49999L15.0002 3.39998L15.4002 3.89998L15.9002 3.49999L16.0002 3.59999L15.5002 3.99999L15.9002 4.59999ZM17.8002 12.6L17.7002 12.7L17.4002 12.1L16.8002 12.4L16.7002 12.3L17.3002 12L17.1002 11.4L17.2002 11.3L17.4002 11.9L18.0002 11.7L18.1002 11.8L17.5002 12L17.8002 12.6ZM18.9002 5.19999L18.8002 5.29999L18.4002 4.69999L17.8002 5.09999L17.7002 4.99999L18.3002 4.59999L17.9002 4.09999L18.0002 3.99999L18.4002 4.49999L18.9002 4.09999L19.0002 4.19999L18.5002 4.59999L18.9002 5.19999ZM20.9002 13.2L20.8002 13.3L20.5002 12.7L19.9002 13L19.8002 12.9L20.4002 12.6L20.2002 12L20.3002 11.9L20.5002 12.5L21.1002 12.3L21.2002 12.4L20.6002 12.6L20.9002 13.2ZM22.0002 5.89998L21.9002 5.99999L21.5002 5.39998L20.9002 5.79999L20.8002 5.69999L21.4002 5.29999L21.0002 4.79999L21.1002 4.69999L21.5002 5.19999L22.0002 4.79999L22.1002 4.89998L21.6002 5.29999L22.0002 5.89998Z" fill="#AF9A9A"/>
<path d="M22.6001 13.8999C24.0001 14.1999 25.4001 14.3999 26.9001 14.6999V14.2999L22.6001 13.8999Z" fill="#AF9A9A"/>
<path d="M3.00029 4.80009L2.50029 5.1001L2.10029 4.6001H2.00029L2.40029 5.20009L1.80029 5.50009L1.90029 5.6001L2.40029 5.30009L2.80029 5.90009L2.90029 5.80009L2.60029 5.20009L3.10029 4.90009L3.00029 4.80009Z" fill="#0020DB"/>
<path d="M3.80039 1.89999L3.20039 2.10001L3.00039 1.5H2.90039L3.00039 2.10001L2.40039 2.3V2.5L3.10039 2.3L3.30039 2.89999H3.40039L3.20039 2.2L3.80039 2.10001V1.89999Z" fill="#0020DB"/>
<path d="M5.10029 9.10001L4.90029 8.5L4.70029 8.60001L5.00029 9.2L4.30029 9.39999L4.40029 9.60001L5.00029 9.3L5.30029 9.89999H5.40029L5.20029 9.2L5.70029 9V8.89999L5.10029 9.10001Z" fill="#0020DB"/>
<path d="M8.70029 9.59981L8.10029 9.8998L7.90029 9.2998H7.70029L8.00029 9.8998L7.30029 10.1998L7.40029 10.2998L8.00029 10.0998L8.30029 10.6998L8.40029 10.5998L8.10029 9.9998L8.70029 9.7998V9.59981Z" fill="#0020DB"/>
<path d="M12.1002 10.1999L11.5002 10.4999L11.3002 9.8999H11.1002L11.4002 10.4999L10.7002 10.7999L10.8002 10.8999L11.4002 10.5999L11.7002 11.2999L11.8002 11.1999L11.5002 10.5999L12.1002 10.3999V10.1999Z" fill="#0020DB"/>
<path d="M15.1002 10.9001L14.5002 11.2001L14.2002 10.6001H14.1002L14.4002 11.2001L13.7002 11.5001L13.8002 11.6001L14.4002 11.3001L14.7002 12.0001L14.8002 11.9001L14.5002 11.3001L15.1002 11.0001V10.9001Z" fill="#0020DB"/>
<path d="M21.2003 12.1999L20.6003 12.4999L20.3003 11.8999H20.2003L20.4003 12.4999L19.8003 12.7999L19.9003 12.8999L20.5003 12.5999L20.8003 13.2999L20.9003 13.1999L20.6003 12.5999L21.2003 12.2999V12.1999Z" fill="#0020DB"/>
<path d="M18.1002 11.6002L17.5002 11.8002L17.2002 11.2002L17.1002 11.3002L17.4002 11.9002L16.7002 12.1002L16.8002 12.3002L17.4002 12.0002L17.7002 12.6002H17.8002L17.5002 12.0002L18.1002 11.7002V11.6002Z" fill="#0020DB"/>
<path d="M23.5004 13.8002L24.1004 13.4002L24.5004 13.9002H24.6004L24.2004 13.3002L24.7004 12.9002V12.8002L24.1004 13.2002L23.8004 12.7002H23.7004L24.0004 13.3002L23.4004 13.6002L23.5004 13.8002Z" fill="#0020DB"/>
<path d="M2.3001 7.90019L1.8001 8.3002L1.4001 7.7002L1.3001 7.8002L1.6001 8.40019L1.1001 8.7002V8.8002L1.7001 8.5002L2.1001 9.1002L2.2001 9.0002L1.8001 8.40019L2.4001 8.1002L2.3001 7.90019Z" fill="#0020DB"/>
<path d="M27.3002 5.8999H27.2002L27.5002 6.3999V6.19991L27.3002 5.8999Z" fill="#0020DB"/>
<path d="M27 6.89999V7L27.5 6.7V6.5L27 6.89999Z" fill="#0020DB"/>
<path d="M24.0004 6.3998L24.5004 5.9998L24.9004 6.4998H25.0004L24.6004 5.8998L25.2004 5.4998L25.1004 5.3998L24.6004 5.7998L24.2004 5.2998L24.1004 5.3998L24.4004 5.8998L23.9004 6.2998L24.0004 6.3998Z" fill="#0020DB"/>
<path d="M22.0003 4.8002L21.5003 5.2002L21.2003 4.7002L21.0003 4.8002L21.4003 5.3002L20.8003 5.7002L20.9003 5.8002L21.5003 5.40019L21.9003 6.0002L22.0003 5.90019L21.6003 5.3002L22.1003 5.0002L22.0003 4.8002Z" fill="#0020DB"/>
<path d="M18.9002 4.2L18.4002 4.5L18.0002 4L17.9002 4.10001L18.3002 4.60001L17.7002 5L17.8002 5.10001L18.4002 4.7L18.8002 5.3L18.9002 5.2L18.5002 4.60001L19.0002 4.3L18.9002 4.2Z" fill="#0020DB"/>
<path d="M15.9002 3.49991L15.4002 3.8999L15.0002 3.3999H14.9002L15.3002 3.99991L14.7002 4.3999L14.8002 4.49991L15.4002 4.09991L15.8002 4.59991H15.9002L15.5002 3.99991L16.0002 3.59991L15.9002 3.49991Z" fill="#0020DB"/>
<path d="M12.9002 2.8998L12.4002 3.2998L12.0002 2.7998L11.9002 2.8998L12.3002 3.3998L11.7002 3.7998L11.8002 3.8998L12.4002 3.4998L12.8002 4.09981L12.9002 3.9998L12.5002 3.3998L13.0002 2.9998L12.9002 2.8998Z" fill="#0020DB"/>
<path d="M10.2 2.3998L9.6 2.7998L9.3 2.2998L9.2 2.3998L9.5 2.8998L9 3.2998V3.3998L9.6 2.9998L10 3.59981L10.1 3.4998L9.7 2.8998L10.2 2.4998V2.3998Z" fill="#0020DB"/>
<path d="M6.9002 1.90019L6.4002 2.3002L6.0002 1.7002L5.9002 1.8002L6.3002 2.3002L5.7002 2.7002L5.8002 2.8002L6.4002 2.40019L6.8002 3.0002L6.9002 2.90019L6.5002 2.40019L7.0002 2.0002L6.9002 1.90019Z" fill="#0020DB"/>
</svg>
