<svg width="27" height="15" viewBox="0 0 27 15" fill="none" xmlns="http://www.w3.org/2000/svg">
<path d="M1.3999 9.30009L1.9999 9.40009L1.7999 9.1001L1.3999 9.30009Z" fill="#AF9A9A"/>
<path d="M0.899902 9.7002C8.1999 11.0002 16.7999 12.5002 26.0999 14.0002C16.7999 12.5002 8.1999 11.0002 0.899902 9.7002Z" fill="#AF9A9A"/>
<path d="M1.5999 1.40009L2.0999 1.00009L2.1999 1.1001L1.6999 1.50009L2.0999 2.1001L1.9999 2.20009L1.5999 1.6001L1.4999 1.70009L0.899902 9.30009H1.1999L1.6999 9.00009L1.2999 8.50009L1.3999 8.40009L1.7999 8.90009L2.2999 8.50009L2.3999 8.6001L1.8999 9.00009L2.0999 9.40009L5.0999 9.70009L4.7999 9.20009L4.8999 9.1001L5.2999 9.6001L5.7999 9.20009L5.8999 9.30009L5.4999 9.6001L7.9999 9.80009L7.8999 9.70009L7.9999 9.6001L8.0999 9.80009L8.6999 9.90009L8.7999 9.80009L8.8999 9.90009L26.2999 11.4001L26.5999 6.70009L26.3999 6.80009L26.2999 6.70009L26.5999 6.50009V5.90009L26.4999 5.70009L26.5999 5.6001V5.40009C16.5999 3.60009 7.9999 2.0001 1.3999 0.600098V1.00009L1.5999 1.40009ZM23.6999 5.30009L23.7999 5.20009L24.1999 5.70009L24.6999 5.30009L24.7999 5.40009L24.2999 5.80009L24.6999 6.40009L24.5999 6.50009L24.1999 5.90009L23.5999 6.30009L23.4999 6.20009L24.0999 5.80009L23.6999 5.30009ZM20.6999 4.80009L20.7999 4.70009L21.1999 5.20009L21.6999 4.80009L21.7999 4.90009L21.2999 5.30009L21.6999 5.90009L21.5999 6.00009L21.1999 5.40009L20.5999 5.80009L20.4999 5.70009L21.0999 5.30009L20.6999 4.80009ZM17.8999 4.20009L17.9999 4.1001L18.3999 4.6001L18.8999 4.20009L18.9999 4.30009L18.4999 4.70009L18.8999 5.30009L18.7999 5.40009L18.3999 4.80009L17.7999 5.20009L17.6999 5.1001L18.2999 4.70009L17.8999 4.20009ZM14.9999 3.6001L15.0999 3.50009L15.4999 4.00009L15.9999 3.6001L16.0999 3.70009L15.5999 4.1001L15.9999 4.70009L15.8999 4.80009L15.4999 4.20009L14.8999 4.6001L14.7999 4.50009L15.3999 4.1001L14.9999 3.6001ZM12.1999 3.1001L12.2999 3.00009L12.6999 3.50009L13.1999 3.1001L13.2999 3.20009L12.7999 3.6001L13.1999 4.20009L13.0999 4.30009L12.6999 3.70009L12.0999 4.1001L11.9999 4.00009L12.5999 3.6001L12.1999 3.1001ZM9.4999 2.6001L9.5999 2.50009L9.9999 3.00009L10.4999 2.6001L10.5999 2.70009L10.0999 3.1001L10.4999 3.70009L10.3999 3.80009L9.9999 3.20009L9.3999 3.6001L9.2999 3.50009L9.8999 3.1001L9.4999 2.6001ZM6.8999 2.1001L6.9999 2.00009L7.3999 2.50009L7.8999 2.1001L7.9999 2.20009L7.4999 2.6001L7.8999 3.20009L7.7999 3.30009L7.3999 2.70009L6.7999 3.1001L6.6999 3.00009L7.2999 2.6001L6.8999 2.1001ZM4.1999 1.50009L4.2999 1.40009L4.6999 1.90009L5.1999 1.50009L5.2999 1.6001L4.7999 2.00009L5.1999 2.6001L5.0999 2.70009L4.6999 2.1001L4.0999 2.50009L3.9999 2.40009L4.5999 2.00009L4.1999 1.50009Z" fill="#AF9A9A"/>
<path d="M8.69961 9.99991L8.09961 9.8999L8.29961 10.1999L8.69961 9.99991Z" fill="#AF9A9A"/>
<path d="M25.8998 13.5L25.2998 13.9L25.1998 13.8L25.7998 13.4L25.3998 12.9L25.4998 12.8L25.8998 13.3L26.0998 13.2L26.1998 11.5L8.7998 10L8.2998 10.4L8.6998 11L8.5998 11.1L8.1998 10.5L7.5998 10.9L7.4998 10.8L8.0998 10.4L7.7998 10L5.2998 9.8L5.1998 9.89999L5.5998 10.5L5.4998 10.6L5.0998 10L4.4998 10.4L4.3998 10.3L4.9998 9.89999V9.8L1.9998 9.5L2.0998 9.7L1.9998 9.8L1.7998 9.5H1.2998L1.0998 9.60001L0.999802 9.5H1.0998H0.799805V9.89999C8.0998 11.2 16.6998 12.7 25.9998 14.2V14L25.8998 13.5ZM11.7998 11.5L11.6998 11.6L11.2998 11L10.6998 11.4L10.5998 11.3L11.1998 10.9L10.7998 10.4L10.8998 10.3L11.2998 10.8L11.7998 10.4L11.8998 10.5L11.3998 10.9L11.7998 11.5ZM14.7998 11.9L14.6998 12L14.2998 11.4L13.6998 11.8L13.5998 11.7L14.1998 11.3L13.7998 10.8L13.8998 10.7L14.2998 11.2L14.7998 10.8L14.8998 10.9L14.3998 11.3L14.7998 11.9ZM17.7998 12.5L17.6998 12.6L17.2998 12L16.6998 12.4L16.5998 12.3L17.1998 11.9L16.7998 11.4L16.8998 11.3L17.2998 11.8L17.7998 11.4L17.8998 11.5L17.3998 11.9L17.7998 12.5ZM20.7998 13L20.6998 13.1L20.2998 12.5L19.6998 12.9L19.5998 12.8L20.1998 12.4L19.7998 11.9L19.8998 11.8L20.2998 12.3L20.7998 11.9L20.8998 12L20.3998 12.4L20.7998 13ZM23.6998 13.5L23.5998 13.6L23.1998 13L22.5998 13.4L22.4998 13.3L23.0998 12.9L22.6998 12.4L22.7998 12.3L23.1998 12.8L23.6998 12.4L23.7998 12.5L23.2998 12.9L23.6998 13.5Z" fill="#AF9A9A"/>
<path d="M1.79971 9.09991L1.99971 9.3999H2.09971L1.89971 8.99991L2.39971 8.69991L2.29971 8.59991L1.79971 8.8999L1.49971 8.3999L1.29971 8.49991L1.69971 8.99991L1.19971 9.29991H1.39971L1.79971 9.09991Z" fill="#0020DB"/>
<path d="M1.19961 9.50029L1.39961 9.30029H1.19961L1.09961 9.40028L1.19961 9.50029Z" fill="#0020DB"/>
<path d="M2.1 9.69991L2.3 9.59991L2.1 9.3999H2L2.1 9.69991Z" fill="#0020DB"/>
<path d="M5.8998 9.40009L5.7998 9.30009L5.2998 9.6001L4.8998 9.1001L4.7998 9.20009L5.0998 9.6001L5.4998 9.70009L5.8998 9.40009Z" fill="#0020DB"/>
<path d="M4.59961 10.1001L4.69961 10.2001L5.29961 9.80009L5.59961 10.4001L5.79961 10.3001L5.39961 9.70009H5.49961L5.09961 9.6001L5.19961 9.70009L4.59961 10.1001Z" fill="#0020DB"/>
<path d="M8.89971 9.8999L8.69971 9.99991H8.89971V9.8999Z" fill="#0020DB"/>
<path d="M7.9999 9.7002L7.8999 9.8002V9.90019H8.0999L7.9999 9.7002Z" fill="#0020DB"/>
<path d="M7.69971 10.6999V10.7999L8.29971 10.3999L8.69971 10.9999L8.79971 10.8999L8.39971 10.2999L8.89971 9.99991H8.69971L8.29971 10.1999L8.09971 9.8999H7.89971L8.19971 10.2999L7.69971 10.6999Z" fill="#0020DB"/>
<path d="M11.8996 10.4002L11.2996 10.8002L10.9996 10.2002L10.8996 10.3002L11.1996 10.8002L10.5996 11.2002L10.6996 11.3002L11.2996 11.0002L11.6996 11.5002H11.7996L11.3996 10.9002L11.8996 10.5002V10.4002Z" fill="#0020DB"/>
<path d="M14.8997 10.9002L14.3997 11.2002L13.9997 10.7002L13.8997 10.8002L14.2997 11.3002L13.6997 11.7002L13.7997 11.8002L14.2997 11.4002L14.6997 12.0002L14.7997 11.9002L14.3997 11.3002L14.9997 11.0002L14.8997 10.9002Z" fill="#0020DB"/>
<path d="M17.8996 11.4002L17.2996 11.8002L16.9996 11.2002L16.8996 11.3002L17.1996 11.8002L16.5996 12.2002L16.6996 12.3002L17.2996 12.0002L17.6996 12.5002H17.7996L17.3996 11.9002L17.8996 11.5002V11.4002Z" fill="#0020DB"/>
<path d="M20.8997 12.0003L20.3997 12.4003L19.9997 11.8003L19.8997 11.9003L20.1997 12.4003L19.6997 12.8003L19.7997 12.9003L20.2997 12.5003L20.6997 13.1003L20.7997 13.0003L20.3997 12.5003L20.9997 12.1003L20.8997 12.0003Z" fill="#0020DB"/>
<path d="M23.7 12.5003L23.2 12.8003L22.9 12.3003L22.8 12.4003L23.1 12.9003L22.5 13.3003L22.6 13.4003L23.2 13.0003L23.6 13.6003L23.7 13.5003L23.3 12.9003L23.8 12.6003L23.7 12.5003Z" fill="#0020DB"/>
<path d="M25.5998 12.8003L25.4998 12.9003L25.7998 13.4003L25.2998 13.8003V13.9003L25.8998 13.5003L26.0998 13.8003V13.6003L25.9998 13.4003L26.0998 13.3003L26.1998 13.2003L25.8998 13.3003L25.5998 12.8003Z" fill="#0020DB"/>
<path d="M26.3999 6.7L26.4999 6.8L26.5999 6.7V6.5L26.3999 6.7Z" fill="#0020DB"/>
<path d="M26.6996 5.7002L26.5996 5.8002L26.6996 6.0002V5.7002Z" fill="#0020DB"/>
<path d="M23.5 6.3002L24.1 5.90019L24.5 6.40019H24.6L24.2 5.8002L24.7 5.40019V5.3002L24.1 5.7002L23.8 5.2002L23.7 5.3002L24 5.8002L23.5 6.2002V6.3002Z" fill="#0020DB"/>
<path d="M20.6 5.8002L21.1 5.40019L21.5 5.90019H21.6L21.2 5.3002L21.8 4.90019L21.7 4.8002L21.2 5.2002L20.8 4.7002L20.7 4.8002L21 5.3002L20.5 5.7002L20.6 5.8002Z" fill="#0020DB"/>
<path d="M17.6997 5.20009L18.2997 4.80009L18.6997 5.40009L18.7997 5.30009L18.3997 4.80009L18.8997 4.40009V4.30009L18.2997 4.70009L17.9997 4.1001L17.8997 4.20009L18.1997 4.70009L17.6997 5.1001V5.20009Z" fill="#0020DB"/>
<path d="M14.7998 4.60001L15.3998 4.3L15.7998 4.8L15.8998 4.7L15.4998 4.2L15.9998 3.8V3.7L15.3998 4.10001L15.0998 3.5L14.9998 3.60001L15.2998 4.10001L14.7998 4.5V4.60001Z" fill="#0020DB"/>
<path d="M12.1 4.10001L12.6 3.7L13 4.3L13.1 4.2L12.7 3.60001L13.3 3.3L13.2 3.2L12.7 3.5L12.3 3L12.2 3.10001L12.6 3.60001L12 4L12.1 4.10001Z" fill="#0020DB"/>
<path d="M9.3998 3.60001L9.8998 3.2L10.2998 3.8L10.3998 3.7L9.9998 3.10001L10.4998 2.8V2.7L9.8998 3L9.5998 2.5L9.4998 2.60001L9.7998 3.10001L9.2998 3.5L9.3998 3.60001Z" fill="#0020DB"/>
<path d="M6.79971 3.10001L7.39971 2.7L7.79971 3.3L7.89971 3.2L7.49971 2.60001L7.99971 2.3L7.89971 2.2L7.39971 2.5L6.99971 2L6.89971 2.10001L7.29971 2.60001L6.69971 3L6.79971 3.10001Z" fill="#0020DB"/>
<path d="M4.1 2.49991L4.7 2.09991L5 2.69991L5.2 2.59991L4.8 1.99991L5.3 1.69991L5.2 1.59991L4.7 1.8999L4.3 1.3999L4.2 1.49991L4.6 1.99991L4 2.3999L4.1 2.49991Z" fill="#0020DB"/>
<path d="M2 2.10001H2.1L1.7 1.5L2.2 1.10001V1L1.6 1.39999L1.5 1.2V1.39999V1.5V1.7L1.6 1.60001L2 2.10001Z" fill="#0020DB"/>
<path d="M26.1 13.3003V13.6003L26 13.4003L26.1 13.3003Z" fill="#AF9A9A"/>
</svg>
