<svg width="30" height="14" viewBox="0 0 30 14" fill="none" xmlns="http://www.w3.org/2000/svg">
<path d="M0.700096 1L0.600098 1.5L0.900101 1.3L0.700096 1Z" fill="#AF9A9A"/>
<path d="M20.5 12.2999C20.8 12.2999 21.1 12.3999 21.4 12.3999L21 11.8999L20.5 12.2999Z" fill="#AF9A9A"/>
<path d="M17.5 11.7999C17.8 11.7999 18.1 11.8999 18.4 11.8999L18 11.3999L17.5 11.7999Z" fill="#AF9A9A"/>
<path d="M24 12.7999C24.3 12.7999 24.6 12.8999 24.9 12.8999L24.5 12.3999L24 12.7999Z" fill="#AF9A9A"/>
<path d="M5 9.79991C5.3 9.79991 5.59999 9.8999 5.89999 9.8999L5.5 9.3999L5 9.79991Z" fill="#AF9A9A"/>
<path d="M0.700195 0.600098V0.800095L1.0002 1.30009L1.5002 0.900085L1.6002 1.00009L1.1002 1.40009L1.5002 2.00009L1.40019 2.1001L1.0002 1.50009L0.600197 1.80009L0.300201 6.50009L0.200195 8.20009L0.500198 8.00009L0.600197 8.1001L0.200195 8.40009V8.6001L0.500198 9.00009L0.4002 9.1001C1.9002 9.4001 3.5002 9.60009 5.1002 9.90009L5.0002 9.80009L5.6002 9.40009L5.2002 8.90009L5.3002 8.80009L5.7002 9.30009L6.2002 8.90009L6.3002 9.00009L5.8002 9.40009L6.2002 10.0001H6.0002C6.7002 10.1001 7.3002 10.2001 8.0002 10.3001L7.90019 10.2001L8.40019 9.80009L8.0002 9.30009L8.1002 9.20009L8.5002 9.70009L9.0002 9.30009L9.1002 9.40009L8.6002 9.80009L9.0002 10.3001L8.90019 10.4001L8.5002 9.90009L8.0002 10.3001C10.1002 10.6001 12.2002 11.0001 14.3002 11.3001L14.8002 10.9001L14.4002 10.4001L14.5002 10.3001L14.9002 10.8001L15.4002 10.4001L15.5002 10.5001L15.0002 10.9001L15.4002 11.4001C16.1002 11.5001 16.7002 11.6001 17.4002 11.7001L17.9002 11.3001L17.5002 10.8001L17.6002 10.7001L18.0002 11.2001L18.5002 10.8001L18.6002 10.9001L18.1002 11.3001L18.5002 11.8001L18.4002 11.9001C19.1002 12.0001 19.8002 12.1001 20.5002 12.2001L20.4002 12.1001L21.0002 11.7001L20.6002 11.2001L20.7002 11.1001L21.1002 11.6001L21.6002 11.2001L21.7002 11.3001L21.2002 11.7001L21.6002 12.3001L21.5002 12.4001C22.3002 12.5001 23.2002 12.7001 24.0002 12.8001L23.9002 12.7001L24.5002 12.3001L24.1002 11.8001L24.2002 11.7001L24.6002 12.2001L25.1002 11.8001L25.2002 11.9001L24.7002 12.3001L25.1002 12.9001L25.0002 13.0001C26.3002 13.2001 27.6002 13.4001 29.0002 13.6001L29.1002 12.6001L28.6002 12.9001L29.0002 13.5001L28.9002 13.6001L28.5002 13.0001L27.9002 13.4001L27.8002 13.3001L28.4002 12.9001L28.0002 12.4001L28.1002 12.3001L28.5002 12.8001L29.0002 12.4001L29.1002 12.5001L29.4002 8.80009L29.7002 5.40009C19.0002 3.80009 9.3002 2.1001 0.700195 0.600098ZM3.2002 9.40009L3.1002 9.50009L2.7002 8.90009L2.1002 9.30009L2.0002 9.20009L2.6002 8.80009L2.2002 8.30009L2.3002 8.20009L2.7002 8.70009L3.2002 8.30009L3.3002 8.40009L2.8002 8.80009L3.2002 9.40009ZM12.1002 10.8001L12.0002 10.9001L11.6002 10.3001L11.0002 10.7001L10.9002 10.6001L11.5002 10.2001L11.2002 9.70009L11.3002 9.6001L11.6002 10.1001L12.1002 9.80009L12.2002 9.90009L11.7002 10.2001L12.1002 10.8001ZM26.3002 5.1001L26.4002 5.00009L26.8002 5.50009L27.3002 5.1001L27.4002 5.20009L26.9002 5.6001L27.3002 6.20009L27.2002 6.30009L26.8002 5.70009L26.2002 6.1001L26.1002 6.00009L26.7002 5.6001L26.3002 5.1001ZM23.0002 4.50009L23.1002 4.40009L23.5002 4.90009L24.0002 4.50009L24.1002 4.6001L23.6002 5.00009L24.0002 5.6001L23.9002 5.70009L23.5002 5.1001L22.9002 5.50009L22.8002 5.40009L23.4002 5.00009L23.0002 4.50009ZM19.6002 4.00009L19.7002 3.90009L20.1002 4.40009L20.6002 4.00009L20.7002 4.1001L20.2002 4.50009L20.6002 5.00009L20.5002 5.1001L20.1002 4.6001L19.6002 5.00009L19.5002 4.90009L20.0002 4.50009L19.6002 4.00009ZM16.5002 3.6001L16.6002 3.50009L17.0002 4.00009L17.5002 3.6001L17.6002 3.70009L17.1002 4.1001L17.5002 4.6001L17.4002 4.70009L17.0002 4.20009L16.5002 4.6001L16.4002 4.50009L16.9002 4.1001L16.5002 3.6001ZM13.1002 3.00009L13.2002 2.90009L13.6002 3.40009L14.1002 3.00009L14.2002 3.1001L13.7002 3.50009L14.1002 4.00009L14.0002 4.1001L13.6002 3.6001L13.1002 4.00009H13.0002L13.5002 3.6001L13.1002 3.00009ZM10.1002 2.40009L10.2002 2.30009L10.6002 2.80009L11.1002 2.40009L11.2002 2.50009L10.7002 2.90009L11.1002 3.50009L11.0002 3.6001L10.6002 3.00009L10.0002 3.40009L9.90019 3.30009L10.5002 2.90009L10.1002 2.40009ZM6.3002 1.90009L6.40019 1.80009L6.8002 2.30009L7.3002 1.90009L7.40019 2.00009L6.90019 2.40009L7.3002 2.90009L7.2002 3.00009L6.8002 2.50009L6.3002 2.90009L6.2002 2.80009L6.7002 2.40009L6.3002 1.90009ZM3.40019 1.30009L3.5002 1.20009L3.90019 1.70009L4.40019 1.30009L4.5002 1.40009L4.0002 1.80009L4.40019 2.40009L4.3002 2.50009L3.90019 1.90009L3.3002 2.30009L3.2002 2.20009L3.8002 1.80009L3.40019 1.30009Z" fill="#AF9A9A"/>
<path d="M14.5 11.2999C14.8 11.2999 15 11.3999 15.3 11.3999L14.9 10.8999L14.5 11.2999Z" fill="#AF9A9A"/>
<path d="M5.69991 9.40028L6.19991 9.00029L6.09991 8.90028L5.59991 9.30029L5.19991 8.80029L5.09991 8.90028L5.49991 9.40028L4.8999 9.80029L4.99991 9.90028C4.99991 9.90028 4.99991 9.90028 5.09991 9.90028L5.59991 9.50029L5.99991 10.0003C5.99991 10.0003 5.99991 10.0003 6.09991 10.0003L6.19991 9.90028L5.69991 9.40028Z" fill="#0020DB"/>
<path d="M12.2 9.80009L11.7 10.1001L11.3 9.6001L11.2 9.70009L11.5 10.2001L11 10.6001V10.7001L11.6 10.3001L12 10.9001L12.1 10.8001L11.7 10.2001L12.3 9.90009L12.2 9.80009Z" fill="#0020DB"/>
<path d="M9 10.4002L9.10001 10.3002L8.7 9.8002L9.2 9.40019L9.10001 9.3002L8.60001 9.7002L8.2 9.2002L8.10001 9.3002L8.5 9.8002L8 10.2002L8.10001 10.3002L8.60001 9.90019L9 10.4002Z" fill="#0020DB"/>
<path d="M15.0003 10.9003L15.5003 10.5003L15.4003 10.4003L14.9003 10.8003L14.5003 10.3003L14.4003 10.4003L14.8003 10.9003L14.3003 11.3003C14.4003 11.3003 14.4003 11.3003 14.5003 11.3003L14.9003 11.0003L15.3003 11.5003H15.4003L15.0003 10.9003Z" fill="#0020DB"/>
<path d="M18.0003 11.3002L18.5003 10.9002L18.4003 10.8002L17.9003 11.2002L17.5003 10.7002L17.4003 10.8002L17.8003 11.3002L17.3003 11.7002C17.4003 11.7002 17.4003 11.7002 17.5003 11.7002L17.9003 11.3002L18.3003 11.8002L18.4003 11.7002L18.0003 11.3002Z" fill="#0020DB"/>
<path d="M24.6003 12.4003L25.1003 12.0003L25.0003 11.9003L24.5003 12.3003L24.1003 11.8003L24.0003 11.9003L24.4003 12.4003L23.8003 12.8003L23.9003 12.9003L24.4003 12.5003L24.8003 13.0003C24.8003 13.0003 24.8003 13.0003 24.9003 13.0003L25.0003 12.9003L24.6003 12.4003Z" fill="#0020DB"/>
<path d="M21.1003 11.8002L21.6003 11.4002L21.5003 11.3002L21.0003 11.7002L20.6003 11.2002L20.5003 11.3002L20.9003 11.8002L20.3003 12.2002L20.4003 12.3002L20.9003 11.9002L21.3003 12.4002L21.4003 12.3002L21.1003 11.8002Z" fill="#0020DB"/>
<path d="M28.4002 12.8003L28.0002 12.3003L27.9002 12.4003L28.3002 12.9003L27.7002 13.3003L27.8002 13.4003L28.4002 13.0003L28.8002 13.6003L28.9002 13.5003L28.5002 12.9003L29.0002 12.6003V12.5003L28.9002 12.4003L28.4002 12.8003Z" fill="#0020DB"/>
<path d="M3.30009 8.40019L2.70009 8.7002L2.40009 8.2002L2.30009 8.3002L2.6001 8.8002L2.1001 9.2002V9.3002L2.70009 8.90019L3.1001 9.5002L3.20009 9.40019L2.80009 8.8002L3.30009 8.5002V8.40019Z" fill="#0020DB"/>
<path d="M3.3002 2.3002L3.90019 1.90019L4.3002 2.5002L4.40019 2.40019L4.0002 1.8002L4.5002 1.40019L4.40019 1.3002L3.90019 1.7002L3.5002 1.2002L3.40019 1.3002L3.8002 1.8002L3.2002 2.2002L3.3002 2.3002Z" fill="#0020DB"/>
<path d="M6.3002 2.90028L6.8002 2.50029L7.2002 3.00029L7.3002 2.90028L6.90019 2.40028L7.40019 2.00029L7.3002 1.90028L6.8002 2.30029L6.40019 1.80029L6.3002 1.90028L6.7002 2.40028L6.2002 2.80029L6.3002 2.90028Z" fill="#0020DB"/>
<path d="M9.99991 3.40028L10.4999 3.1003L10.8999 3.6003H10.9999L10.6999 3.00029L11.1999 2.6003L11.0999 2.50029L10.5999 2.90028L10.1999 2.30029L10.0999 2.40028L10.4999 2.90028L9.8999 3.30029L9.99991 3.40028Z" fill="#0020DB"/>
<path d="M13.1 4.10001L13.6 3.60001L14.1 4.2L14.2 4.10001L13.7 3.5L14.2 3.10001L14.1 3L13.6 3.39999L13.2 3H13.1L13.5 3.5L13 4L13.1 4.10001Z" fill="#0020DB"/>
<path d="M16.3999 4.60001L16.9999 4.2L17.3999 4.7L17.4999 4.60001L17.0999 4.10001L17.5999 3.7L17.4999 3.60001L16.9999 4L16.5999 3.5L16.4999 3.60001L16.8999 4.10001L16.3999 4.5V4.60001Z" fill="#0020DB"/>
<path d="M19.6 5.10001L20.1 4.7L20.5 5.2L20.6 5.10001L20.2 4.60001L20.7 4.2L20.6 4.10001L20.1 4.5L19.8 4H19.6L20 4.60001L19.5 5L19.6 5.10001Z" fill="#0020DB"/>
<path d="M22.9003 5.60001L23.4003 5.2L23.8003 5.7L23.9003 5.60001L23.5003 5.10001L24.0003 4.7V4.60001L23.4003 5L23.1003 4.5H23.0003L23.3003 5.10001L22.8003 5.5L22.9003 5.60001Z" fill="#0020DB"/>
<path d="M26.2001 6.20009L26.8001 5.80009L27.2001 6.30009L27.3001 6.20009L26.9001 5.70009L27.4001 5.30009L27.3001 5.20009L26.8001 5.6001L26.4001 5.1001H26.3001L26.7001 5.70009L26.1001 6.1001L26.2001 6.20009Z" fill="#0020DB"/>
<path d="M1.40009 2.0002L1.5001 1.90019L1.10011 1.40019L1.60011 1.0002V0.900192L1.0001 1.2002L0.700096 0.700195V1.0002L0.900101 1.3002L0.600098 1.5002V1.7002L1.0001 1.40019L1.40009 2.0002Z" fill="#0020DB"/>
<path d="M0.100098 8.80009L0.300102 9.1001L0.400101 9.00009L0.100098 8.6001V8.80009Z" fill="#0020DB"/>
<path d="M0.100098 9.00029L0.300102 9.1003L0.100098 8.80029V9.00029Z" fill="#AF9A9A"/>
</svg>
