<svg width="24" height="10" viewBox="0 0 24 10" fill="none" xmlns="http://www.w3.org/2000/svg">
<path d="M23.2001 9.3001L22.7001 9.7001L22.6001 9.6001L23.2001 9.3001L22.6001 8.7001L22.7001 8.6001L23.2001 9.1001L23.5001 8.9001L23.1001 1.4001C14.4001 1.0001 6.6001 0.700098 0.100098 0.600098L0.500099 8.5001L0.700096 8.3001L0.800102 8.4001L0.500099 8.7001V9.2001L0.700096 9.4001L0.600098 9.5001L0.500099 9.4001V9.6001C6.4001 9.7001 14.2001 9.8001 23.5001 10.0001V9.7001L23.2001 9.3001ZM1.8001 1.9001L1.3001 1.5001L0.800102 1.9001L0.700096 1.8001L1.2001 1.4001L0.700096 0.900101L0.800102 0.800102L1.3001 1.3001L1.8001 0.800102L1.9001 0.900101L1.4001 1.4001L1.8001 1.9001ZM3.8001 9.3001L3.3001 8.9001L2.8001 9.3001L2.7001 9.2001L3.2001 8.8001L2.7001 8.3001L2.8001 8.2001L3.3001 8.7001L3.8001 8.2001L3.9001 8.3001L3.4001 8.8001L3.8001 9.3001ZM5.6001 2.0001L5.1001 1.6001L4.6001 2.0001L4.5001 1.9001L5.0001 1.5001L4.5001 1.0001L4.6001 0.900101L5.1001 1.4001L5.6001 0.900101L5.7001 1.0001L5.2001 1.5001L5.6001 2.0001ZM6.9001 9.4001L6.4001 9.0001L5.9001 9.4001L5.8001 9.3001L6.3001 8.9001L5.8001 8.4001L5.9001 8.3001L6.4001 8.8001L6.9001 8.3001L7.0001 8.4001L6.5001 8.9001L6.9001 9.4001ZM8.1001 2.1001L8.5001 1.6001L8.0001 1.0001L8.1001 0.900101L8.6001 1.4001L9.1001 0.900101L9.2001 1.0001L8.7001 1.5001L9.1001 2.0001L9.0001 2.1001L8.6001 1.6001L8.1001 2.1001ZM9.7001 9.4001L9.2001 9.0001L8.7001 9.4001L8.6001 9.3001L9.1001 8.9001L8.6001 8.4001L8.7001 8.3001L9.2001 8.8001L9.7001 8.3001L9.8001 8.4001L9.3001 8.9001L9.7001 9.4001ZM11.1001 1.1001L11.7001 1.5001L12.2001 1.0001L12.3001 1.1001L11.8001 1.6001L12.2001 2.1001L12.1001 2.2001L11.7001 1.7001L11.2001 2.1001L11.1001 2.0001L11.6001 1.6001L11.1001 1.1001ZM12.3001 9.4001L11.8001 9.0001L11.3001 9.4001L11.2001 9.3001L11.7001 8.9001L11.2001 8.4001L11.3001 8.3001L11.8001 8.8001L12.3001 8.3001L12.4001 8.4001L11.9001 8.9001L12.3001 9.4001ZM15.1001 9.5001L14.6001 9.1001L14.1001 9.5001L14.0001 9.4001L14.5001 9.0001L14.0001 8.5001L14.1001 8.4001L14.6001 8.9001L15.1001 8.4001L15.2001 8.5001L14.7001 9.0001L15.1001 9.5001ZM15.3001 2.1001L14.8001 1.7001L14.3001 2.1001L14.2001 2.0001L14.7001 1.6001L14.2001 1.1001L14.3001 1.0001L14.8001 1.5001L15.3001 1.0001L15.4001 1.1001L14.9001 1.6001L15.3001 2.1001ZM17.9001 9.6001L17.4001 9.2001L16.9001 9.6001L16.8001 9.5001L17.3001 9.1001L16.8001 8.6001L16.9001 8.5001L17.4001 9.0001L17.9001 8.5001L18.0001 8.6001L17.5001 9.1001L17.9001 9.6001ZM18.3001 2.3001L17.8001 1.9001L17.3001 2.3001L17.2001 2.2001L17.7001 1.8001L17.2001 1.3001L17.3001 1.2001L17.8001 1.7001L18.3001 1.2001L18.4001 1.3001L17.9001 1.8001L18.3001 2.3001ZM20.8001 9.6001L20.3001 9.2001L19.8001 9.6001L19.7001 9.5001L20.2001 9.1001L19.7001 8.6001L19.8001 8.5001L20.3001 9.0001L20.8001 8.5001L20.9001 8.6001L20.4001 9.1001L20.8001 9.6001ZM21.3001 2.4001L20.8001 2.0001L20.3001 2.4001L20.2001 2.3001L20.7001 1.9001L20.2001 1.4001L20.3001 1.3001L20.8001 1.8001L21.3001 1.3001L21.4001 1.4001L20.9001 1.9001L21.3001 2.4001Z" fill="#AE9999"/>
<path d="M1.8002 0.899902L1.3002 1.3999L0.800201 0.899902L0.700195 0.999901L1.2002 1.4999L0.700195 1.8999L0.800201 1.9999L1.3002 1.5999L1.7002 1.9999L1.8002 1.8999L1.4002 1.4999L1.9002 0.999901L1.8002 0.899902Z" fill="#304893"/>
<path d="M5.4999 0.899902L4.9999 1.3999L4.4999 0.899902L4.3999 0.999901L4.8999 1.4999L4.4999 1.9999L4.5999 2.0999L4.9999 1.5999L5.4999 2.0999L5.5999 1.9999L5.0999 1.4999L5.5999 0.999901L5.4999 0.899902Z" fill="#304893"/>
<path d="M9.1 1.9999L8.7 1.4999L9.2 1.0999L9.1 0.999901L8.6 1.3999L8.1 0.899902L8 0.999901L8.5 1.4999L8 1.9999L8.1 2.0999L8.6 1.5999L9 2.0999L9.1 1.9999Z" fill="#304893"/>
<path d="M11.2001 2.1L11.7001 1.7L12.1001 2.1L12.2001 2L11.8001 1.6L12.3001 1.1L12.2001 1L11.7001 1.5L11.2001 1L11.1001 1.1L11.6001 1.6L11.1001 2L11.2001 2.1Z" fill="#304893"/>
<path d="M15.2001 1.1001L14.7001 1.6001L14.2001 1.1001L14.1001 1.2001L14.6001 1.7001L14.2001 2.1001L14.3001 2.2001L14.7001 1.8001L15.2001 2.2001L15.3001 2.1001L14.8001 1.7001L15.3001 1.2001L15.2001 1.1001Z" fill="#304893"/>
<path d="M18.3002 1.30029L17.8002 1.80029L17.3002 1.30029L17.2002 1.40029L17.7002 1.90029L17.2002 2.30029L17.3002 2.40029L17.8002 2.00029L18.2002 2.40029L18.3002 2.30029L17.9002 1.90029L18.4002 1.40029L18.3002 1.30029Z" fill="#304893"/>
<path d="M21.3002 1.40029L20.8002 1.80029L20.3002 1.30029L20.2002 1.40029L20.7002 1.90029L20.2002 2.40029L20.3002 2.50029L20.8002 2.00029L21.2002 2.50029L21.3002 2.40029L20.9002 1.90029L21.4002 1.50029L21.3002 1.40029Z" fill="#304893"/>
<path d="M22.7001 8.6001L22.6001 8.7001L23.1001 9.2001L22.6001 9.6001L22.7001 9.7001L23.2001 9.3001L23.5001 9.6001V9.4001L23.3001 9.2001L23.5001 9.0001L23.4001 8.8001L23.2001 9.1001L22.7001 8.6001Z" fill="#304893"/>
<path d="M20.8003 8.5L20.3003 9L19.9003 8.5L19.8003 8.6L20.2003 9.1L19.8003 9.5V9.6L20.3003 9.2L20.7003 9.7L20.8003 9.6L20.4003 9.1L20.9003 8.6L20.8003 8.5Z" fill="#304893"/>
<path d="M17.9003 8.5L17.4003 9L16.9003 8.5L16.8003 8.6L17.3003 9.1L16.8003 9.5L16.9003 9.6L17.4003 9.2L17.8003 9.6H17.9003L17.5003 9.1L18.0003 8.6L17.9003 8.5Z" fill="#304893"/>
<path d="M15 8.4999L14.5 8.8999L14.1 8.3999L14 8.4999L14.4 8.9999L14 9.4999L14.1 9.5999L14.5 9.0999L15 9.5999L15.1 9.4999L14.6 8.9999L15.1 8.5999L15 8.4999Z" fill="#304893"/>
<path d="M12.3002 8.3999L11.8002 8.8999L11.3002 8.3999L11.2002 8.4999L11.7002 8.9999L11.2002 9.3999L11.3002 9.4999L11.8002 9.0999L12.2002 9.4999L12.3002 9.3999L11.9002 8.9999L12.4002 8.4999L12.3002 8.3999Z" fill="#304893"/>
<path d="M9.7001 8.40029L9.2001 8.80029L8.7001 8.30029L8.6001 8.40029L9.1001 8.90029L8.6001 9.40029L8.7001 9.50029L9.2001 9.00029L9.6001 9.50029L9.7001 9.40029L9.3001 8.90029L9.8001 8.50029L9.7001 8.40029Z" fill="#304893"/>
<path d="M6.90029 8.40029L6.40029 8.80029L5.90029 8.30029L5.80029 8.40029L6.30029 8.90029L5.80029 9.40029L5.90029 9.50029L6.40029 9.00029L6.80029 9.50029L6.90029 9.40029L6.50029 8.90029L7.00029 8.50029L6.90029 8.40029Z" fill="#304893"/>
<path d="M3.8002 8.3002L3.3002 8.7002L2.8002 8.2002L2.7002 8.3002L3.2002 8.8002L2.7002 9.3002L2.8002 9.4002L3.3002 8.9002L3.7002 9.4002L3.8002 9.3002L3.4002 8.8002L3.9002 8.4002L3.8002 8.3002Z" fill="#304893"/>
<path d="M0.800003 8.3002L0.699997 8.2002L0.5 8.4002V8.6002L0.800003 8.3002Z" fill="#304893"/>
<path d="M0.599998 9.3001H0.699997L0.5 9.1001V9.3001H0.599998Z" fill="#304893"/>
</svg>
