<svg width="19" height="12" viewBox="0 0 19 12" fill="none" xmlns="http://www.w3.org/2000/svg">
<path d="M18.3997 5.3L18.4997 4L18.0997 4.3L17.9997 4.2L18.4997 3.8V3.7L18.1997 3.3L18.2997 3.2L18.4997 3.5V3.10001C12.5997 2.20001 6.89971 1.4 1.49971 0.5L1.19971 3.89999L18.3997 5.3ZM14.7997 2.7L14.8997 2.60001L15.2997 3.10001L15.7997 2.7L15.8997 2.8L15.3997 3.2L15.7997 3.8L15.6997 3.89999L15.2997 3.3L14.6997 3.7L14.5997 3.60001L15.1997 3.2L14.7997 2.7ZM11.7997 2.3L11.8997 2.2L12.2997 2.7L12.7997 2.3L12.8997 2.39999L12.3997 2.8L12.7997 3.39999L12.6997 3.5L12.2997 2.89999L11.6997 3.3L11.5997 3.2L12.1997 2.8L11.7997 2.3ZM8.59972 1.8L8.69971 1.7L9.09972 2.2L9.59972 1.8L9.69971 1.89999L9.19971 2.3L9.59972 2.89999L9.49971 3L9.09972 2.39999L8.49971 2.8L8.3997 2.7L8.99971 2.3L8.59972 1.8ZM5.49971 1.2L5.59972 1.10001L5.99971 1.60001L6.49971 1.2L6.59972 1.3L6.09972 1.7L6.49971 2.3L6.3997 2.39999L5.99971 1.8L5.3997 2.2L5.29971 2.10001L5.8997 1.7L5.49971 1.2ZM2.19971 0.699997L2.59972 1.2L3.09972 0.800003L3.19971 0.899994L2.69971 1.3L3.09972 1.89999L2.99971 2L2.59972 1.39999L1.99971 1.8L1.8997 1.7L2.49971 1.3L2.09972 0.800003L2.19971 0.699997Z" fill="#AF9A9A"/>
<path d="M1.29991 3.7998L0.999908 7.4998L0.899902 8.4998C1.7999 8.5998 2.59991 8.7998 3.49991 8.8998L3.3999 8.7998L3.99991 8.3998L3.59991 7.8998L3.69991 7.7998L4.09991 8.2998L4.59991 7.8998L4.69991 7.9998L4.19991 8.3998L4.59991 8.9998L4.49991 9.09981C8.99991 9.79981 13.4999 10.4998 17.8999 11.1998L18.2999 5.2998L1.29991 3.7998ZM7.8999 9.4998L7.79991 9.59981L7.3999 8.9998L6.79991 9.3998L6.69991 9.2998L7.29991 8.8998L6.8999 8.3998L6.99991 8.2998L7.3999 8.7998L7.8999 8.3998L7.99991 8.4998L7.49991 8.8998L7.8999 9.4998ZM10.9999 9.9998L10.8999 10.0998L10.4999 9.4998L9.8999 9.8998L9.79991 9.7998L10.3999 9.3998L9.99991 8.8998L10.0999 8.7998L10.4999 9.2998L10.9999 8.8998L11.0999 8.9998L10.5999 9.3998L10.9999 9.9998ZM13.9999 10.4998L13.8999 10.5998L13.4999 9.9998L12.8999 10.3998L12.7999 10.2998L13.3999 9.8998L12.9999 9.3998L13.0999 9.2998L13.4999 9.7998L13.9999 9.3998L14.0999 9.4998L13.5999 9.8998L13.9999 10.4998ZM16.7999 10.9998L16.3999 10.3998L15.7999 10.7998L15.6999 10.6998L16.2999 10.2998L15.8999 9.7998L15.9999 9.6998L16.3999 10.1998L16.8999 9.7998L16.9999 9.8998L16.4999 10.2998L16.8999 10.8998L16.7999 10.9998Z" fill="#AF9A9A"/>
<path d="M3.5 9.00009C3.8 9.00009 4.09999 9.1001 4.39999 9.1001L4 8.6001L3.5 9.00009Z" fill="#AF9A9A"/>
<path d="M4.19991 8.49991L4.69991 8.09991L4.59991 7.99991L4.09991 8.3999L3.69991 7.8999L3.59991 7.99991L3.99991 8.49991L3.3999 8.8999L3.49991 8.99991L3.99991 8.59991L4.3999 9.09991L4.49991 8.99991L4.19991 8.49991Z" fill="#0020DB"/>
<path d="M10.9998 8.9998L10.4998 9.3998L10.0998 8.7998L9.9998 8.8998L10.3998 9.3998L9.7998 9.7998L9.8998 9.8998L10.4998 9.4998L10.8998 10.0998L10.9998 9.9998L10.5998 9.4998L11.0998 9.09981L10.9998 8.9998Z" fill="#0020DB"/>
<path d="M7.8997 8.4998L7.3997 8.8998L6.99971 8.2998L6.8997 8.3998L7.29971 8.8998L6.69971 9.2998L6.79971 9.3998L7.29971 8.9998L7.69971 9.59981L7.8997 9.4998L7.49971 8.9998L7.99971 8.59981L7.8997 8.4998Z" fill="#0020DB"/>
<path d="M13.9999 9.4998L13.4999 9.7998L13.1999 9.2998L12.9999 9.3998L13.3999 9.8998L12.8999 10.2998V10.3998L13.4999 9.9998L13.8999 10.5998L13.9999 10.4998L13.5999 9.8998L14.0999 9.59981L13.9999 9.4998Z" fill="#0020DB"/>
<path d="M17.0998 9.9998L16.9998 9.8998L16.4998 10.2998L16.0998 9.7998H15.9998L16.3998 10.3998L15.7998 10.7998L15.8998 10.8998L16.3998 10.4998L16.7998 10.9998L16.8998 10.8998L16.4998 10.3998L17.0998 9.9998Z" fill="#0020DB"/>
<path d="M5.3998 2.30009L5.8998 1.90009L6.2998 2.40009L6.4998 2.30009L5.9998 1.80009L6.59981 1.40009L6.4998 1.30009L5.9998 1.70009L5.59981 1.1001L5.4998 1.20009L5.8998 1.70009L5.2998 2.1001L5.3998 2.30009Z" fill="#0020DB"/>
<path d="M8.49991 2.8002L8.99991 2.40019L9.49991 3.0002L9.59991 2.90019L9.19991 2.40019L9.69991 2.0002L9.59991 1.90019L9.09991 2.2002L8.69991 1.7002L8.59991 1.8002L8.99991 2.3002L8.3999 2.7002L8.49991 2.8002Z" fill="#0020DB"/>
<path d="M11.7001 3.3002L12.2001 2.90019L12.6001 3.40019L12.8001 3.3002L12.3001 2.8002L12.9001 2.40019L12.8001 2.3002L12.3001 2.7002L11.9001 2.2002L11.8001 2.3002L12.2001 2.8002L11.6001 3.2002L11.7001 3.3002Z" fill="#0020DB"/>
<path d="M18.2997 3.2002H18.1997L18.4997 3.7002V3.5002L18.2997 3.2002Z" fill="#0020DB"/>
<path d="M18 4.1998L18.1 4.2998L18.5 3.9998V3.7998L18 4.1998Z" fill="#0020DB"/>
<path d="M14.7001 3.70009L15.3001 3.30009L15.7001 3.90009L15.8001 3.80009L15.4001 3.20009L15.9001 2.90009L15.8001 2.80009L15.3001 3.1001L14.9001 2.6001L14.8001 2.70009L15.2001 3.20009L14.6001 3.6001L14.7001 3.70009Z" fill="#0020DB"/>
<path d="M1.8999 1.7002L1.99991 1.8002L2.49991 1.40019L2.8999 1.90019L2.99991 1.8002L2.59991 1.3002L3.09991 0.900192L2.99991 0.800201L2.49991 1.2002L2.19991 0.700195H1.99991L2.3999 1.3002L1.8999 1.7002Z" fill="#0020DB"/>
</svg>
