<svg width="18" height="11" viewBox="0 0 18 11" fill="none" xmlns="http://www.w3.org/2000/svg">
<path d="M0.699905 0.699997L1.19991 0.300003L1.29991 0.399994L0.799911 0.800003L1.19991 1.39999L1.09991 1.5L0.699905 0.899994L0.499908 1L0.399902 2.3L17.3999 3.7V3.10001L16.8999 3.5L16.7999 3.39999L17.3999 3L16.9999 2.5L17.0999 2.39999L17.3999 2.89999V2.39999C11.5999 1.59999 5.8999 0.8 0.399902 0V0.399994L0.699905 0.699997ZM13.3999 2L13.4999 1.89999L13.8999 2.39999L14.3999 2L14.4999 2.10001L13.9999 2.5L14.3999 3.10001L14.2999 3.2L13.8999 2.60001L13.2999 3L13.1999 2.89999L13.7999 2.5L13.3999 2ZM10.1999 1.60001L10.2999 1.5L10.6999 2L11.1999 1.60001L11.2999 1.7L10.7999 2.10001L11.1999 2.7L11.0999 2.8L10.6999 2.2L10.0999 2.60001L9.99991 2.5L10.5999 2.10001L10.1999 1.60001ZM6.79991 1.10001L6.8999 1L7.29991 1.5L7.79991 1.10001L7.8999 1.2L7.3999 1.60001L7.79991 2.2L7.69991 2.3L7.29991 1.7L6.69991 2.10001L6.59991 2L7.19991 1.60001L6.79991 1.10001ZM3.49991 0.699997L3.59991 0.600006L3.99991 1.10001L4.49991 0.699997L4.59991 0.800003L4.09991 1.2L4.49991 1.8L4.3999 1.89999L3.99991 1.3L3.3999 1.7L3.29991 1.60001L3.8999 1.2L3.49991 0.699997Z" fill="#AF9A9A"/>
<path d="M0.5 0.700195V0.800201L0.600006 0.700195H0.5Z" fill="#AF9A9A"/>
<path d="M16.9 10.5998L16.8 10.4998L16.9 10.3998L17 9.59981L17.4 3.6998L0.399994 2.2998L0 8.1998C5.8 9.0998 11.5 9.8998 17 10.7998L16.9 10.5998ZM2 8.3998L1.89999 8.4998L1.5 7.8998L0.899994 8.2998L0.800003 8.1998L1.39999 7.7998L1 7.2998L1.10001 7.1998L1.5 7.6998L2 7.2998L2.10001 7.3998L1.60001 7.7998L2 8.3998ZM5.10001 8.8998L5 8.9998L4.60001 8.3998L4 8.7998L3.89999 8.6998L4.5 8.2998L4.10001 7.7998L4.2 7.6998L4.60001 8.1998L5.10001 7.7998L5.2 7.8998L4.7 8.2998L5.10001 8.8998ZM8.3 9.2998L8.2 9.3998L7.8 8.7998L7.2 9.1998L7.10001 9.09981L7.7 8.6998L7.3 8.1998L7.39999 8.09981L7.8 8.59981L8.3 8.1998L8.39999 8.2998L7.89999 8.6998L8.3 9.2998ZM11.3 9.7998L11.2 9.8998L10.8 9.2998L10.2 9.6998L10.1 9.59981L10.7 9.1998L10.3 8.6998L10.4 8.59981L10.8 9.09981L11.3 8.6998L11.4 8.7998L10.9 9.1998L11.3 9.7998ZM14.8 10.2998L14.7 10.3998L14.3 9.7998L13.7 10.1998L13.6 10.0998L14.2 9.6998L13.8 9.1998L13.9 9.09981L14.3 9.59981L14.8 9.1998L14.9 9.2998L14.4 9.6998L14.8 10.2998Z" fill="#AF9A9A"/>
<path d="M11.4002 8.70009L10.9002 9.1001L10.5002 8.6001L10.4002 8.70009L10.7002 9.20009L10.2002 9.6001L10.3002 9.70009L10.8002 9.30009L11.2002 9.90009L11.3002 9.80009L10.9002 9.20009L11.4002 8.90009V8.70009Z" fill="#0020DB"/>
<path d="M8.30009 8.30009L7.80009 8.70009L7.40009 8.1001L7.30009 8.20009L7.70009 8.70009L7.1001 9.1001L7.20009 9.20009L7.80009 8.80009L8.20009 9.40009L8.30009 9.30009L7.90009 8.80009L8.40009 8.40009L8.30009 8.30009Z" fill="#0020DB"/>
<path d="M14.8001 9.20009L14.3001 9.6001L13.9001 9.1001L13.8001 9.20009L14.2001 9.70009L13.6001 10.1001L13.7001 10.2001L14.3001 9.80009L14.7001 10.3001H14.8001L14.4001 9.70009L14.9001 9.30009L14.8001 9.20009Z" fill="#0020DB"/>
<path d="M16.7998 10.4999L16.8998 10.5999V10.3999L16.7998 10.4999Z" fill="#0020DB"/>
<path d="M2.09991 7.40019L1.49991 7.7002L1.19991 7.2002L1.09991 7.3002L1.3999 7.8002L0.899902 8.2002V8.3002L1.49991 7.90019L1.8999 8.5002L1.99991 8.40019L1.59991 7.8002L2.09991 7.5002V7.40019Z" fill="#0020DB"/>
<path d="M5.2 7.8002L4.7 8.2002L4.3 7.7002L4.2 7.8002L4.5 8.3002L4 8.7002L4.10001 8.8002L4.60001 8.40019L5 8.90019H5.10001L4.7 8.3002L5.3 7.90019L5.2 7.8002Z" fill="#0020DB"/>
<path d="M1 1.3998L1.2 1.2998L0.699997 0.799805L1.3 0.399796L1.2 0.299805L0.699997 0.699799L0.5 0.499802V0.699799H0.600006L0.5 0.799805V0.999802L0.600006 0.899796L1 1.3998Z" fill="#0020DB"/>
<path d="M6.7002 2.20009L7.3002 1.80009L7.7002 2.30009L7.8002 2.20009L7.40019 1.70009L7.90019 1.30009L7.8002 1.20009L7.3002 1.6001L7.0002 1.1001H6.8002L7.2002 1.70009L6.7002 2.1001V2.20009Z" fill="#0020DB"/>
<path d="M3.3998 1.70009L3.9998 1.30009L4.3998 1.90009L4.4998 1.80009L4.09981 1.20009L4.59981 0.800095L4.4998 0.700089L3.9998 1.1001L3.59981 0.600098L3.4998 0.700089L3.8998 1.20009L3.2998 1.6001L3.3998 1.70009Z" fill="#0020DB"/>
<path d="M10.1 2.60001L10.6 2.2L11 2.8L11.1 2.7L10.7 2.10001L11.2 1.8V1.60001L10.6 2L10.3 1.5L10.2 1.60001L10.5 2.10001L10 2.5L10.1 2.60001Z" fill="#0020DB"/>
<path d="M13.3002 3.10001L13.8002 2.7L14.3002 3.2L14.4002 3.10001L14.0002 2.60001L14.5002 2.2L14.4002 2.10001L13.9002 2.5L13.5002 2H13.4002L13.8002 2.60001L13.2002 3L13.3002 3.10001Z" fill="#0020DB"/>
<path d="M17.0999 2.3999L16.9999 2.49991L17.3999 2.99991L16.8999 3.3999V3.49991L17.4999 3.09991V2.8999L17.0999 2.3999Z" fill="#0020DB"/>
</svg>
