<svg width="22" height="12" viewBox="0 0 22 12" fill="none" xmlns="http://www.w3.org/2000/svg">
<path d="M1.5 0.900192L2 0.500198L2.10001 0.600204L1.60001 1.0002L2 1.6002L1.89999 1.7002L1.5 1.1002V1.7002L4.5 2.0002L5.10001 1.6002L4.7 1.1002L4.8 1.0002L5.2 1.5002L5.7 1.1002L5.8 1.2002L5.3 1.6002L5.7 2.1002L8.10001 2.3002L8.5 2.0002L8.10001 1.5002L8.2 1.40019L8.60001 1.90019L9.10001 1.5002L9.2 1.6002L8.7 2.0002L9 2.3002L11.3 2.5002L11.6 2.3002L11.2 1.8002L11.3 1.7002L11.7 2.2002L12.2 1.8002L12.3 1.90019L11.8 2.3002L12 2.5002L14.5 2.7002L14.7 2.6002L14.3 2.1002L14.4 2.0002L14.8 2.5002L15.3 2.1002L15.4 2.2002L14.9 2.6002L15 2.8002L17.9 3.0002L17.5 2.5002L17.6 2.40019L18 2.90019L18.5 2.5002L18.6 2.6002L18.1 3.0002L21 3.2002L20.7 2.8002L20.8 2.7002L21.2 3.2002H21.3L21.8 2.8002L21.9 2.90019L21.5 3.2002H21.9V2.7002C15.1 1.9002 8.4 1.1002 1.8 0.200195L1.5 0.900192Z" fill="#AF9A9A"/>
<path d="M8.1001 2.30009H8.6001L8.40009 2.1001L8.1001 2.30009Z" fill="#AF9A9A"/>
<path d="M4.5 2.00009H5.3L5 1.6001L4.5 2.00009Z" fill="#AF9A9A"/>
<path d="M11.2998 2.5004H11.4998L11.3998 2.40039L11.2998 2.5004Z" fill="#AF9A9A"/>
<path d="M0.999908 7.6001L0.899902 8.40009L1.29991 8.1001L0.999908 7.6001Z" fill="#AF9A9A"/>
<path d="M21.1999 3.40039L20.9999 3.5004L21.3999 4.1004L21.2999 4.20039L20.8999 3.6004L20.2999 4.0004L20.1999 3.90039L20.7999 3.5004L20.6999 3.40039L17.7999 3.20039L18.1999 3.70039L18.0999 3.8004L17.6999 3.20039L17.0999 3.6004L16.9999 3.5004L17.4999 3.1004L14.5999 2.90039L14.8999 3.3004L14.7999 3.40039L14.3999 2.90039H14.2999L13.7999 3.3004L13.6999 3.20039L14.0999 2.90039L11.5999 2.70039L11.7999 3.0004L11.6999 3.1004L11.3999 2.70039H11.1999L10.7999 3.0004L10.6999 2.90039L10.9999 2.70039L8.69991 2.5004L8.8999 2.70039L8.79991 2.8004L8.59991 2.5004H8.09991L7.79991 2.70039L7.69991 2.6004L7.79991 2.5004L5.3999 2.3004L5.29991 2.40039L5.19991 2.3004L4.3999 2.20039L4.29991 2.3004V2.20039L1.29991 1.90039L0.899902 7.8004L0.999908 7.70039L1.3999 8.20039L1.8999 7.8004L1.99991 7.90039L1.49991 8.3004L1.8999 8.90039L1.79991 9.0004L1.3999 8.40039L0.899902 8.8004V9.0004C7.9999 10.1004 14.7999 11.1004 20.9999 12.0004L21.5999 3.6004L21.1999 3.40039ZM5.29991 9.3004L5.19991 9.40039L4.79991 8.8004L4.19991 9.20039L4.09991 9.1004L4.69991 8.70039L4.29991 8.20039L4.3999 8.1004L4.79991 8.6004L5.29991 8.20039L5.3999 8.3004L4.8999 8.70039L5.29991 9.3004ZM8.69991 9.8004L8.59991 9.90039L8.19991 9.3004L7.59991 9.70039L7.49991 9.6004L8.09991 9.20039L7.69991 8.70039L7.79991 8.6004L8.19991 9.1004L8.69991 8.70039L8.79991 8.8004L8.29991 9.20039L8.69991 9.8004ZM11.5999 10.2004L11.4999 10.3004L11.0999 9.70039L10.4999 10.1004L10.3999 10.0004L10.9999 9.6004L10.5999 9.1004L10.6999 9.0004L11.0999 9.5004L11.5999 9.1004L11.6999 9.20039L11.1999 9.6004L11.5999 10.2004ZM14.4999 10.6004L14.3999 10.7004L13.9999 10.1004L13.3999 10.5004L13.2999 10.4004L13.8999 10.0004L13.4999 9.5004L13.5999 9.40039L13.9999 9.90039L14.4999 9.5004L14.5999 9.6004L14.0999 10.0004L14.4999 10.6004ZM17.5999 11.1004L17.4999 11.2004L17.0999 10.6004L16.4999 11.0004L16.3999 10.9004L16.9999 10.5004L16.5999 10.0004L16.6999 9.90039L17.0999 10.4004L17.5999 10.0004L17.6999 10.1004L17.1999 10.5004L17.5999 11.1004ZM20.7999 11.6004L20.6999 11.7004L20.2999 11.1004L19.6999 11.5004L19.5999 11.4004L20.1999 11.0004L19.7999 10.5004L19.8999 10.4004L20.2999 10.9004L20.7999 10.5004L20.8999 10.6004L20.3999 11.0004L20.7999 11.6004Z" fill="#AF9A9A"/>
<path d="M1.29991 8.10001L0.899902 8.39999V8.60001L1.3999 8.2L1.79991 8.8L1.8999 8.7L1.49991 8.2L1.99991 7.8V7.7L1.3999 8.10001L1.09991 7.5L0.999908 7.60001L1.29991 8.10001Z" fill="#0020DB"/>
<path d="M5.30009 8.20009L4.80009 8.6001L4.40009 8.1001H4.30009L4.70009 8.70009L4.1001 9.1001L4.20009 9.20009L4.80009 8.80009L5.20009 9.30009H5.30009L4.90009 8.70009L5.40009 8.30009L5.30009 8.20009Z" fill="#0020DB"/>
<path d="M8.7 8.80009L8.2 9.1001L7.8 8.6001L7.7 8.70009L8.10001 9.20009L7.5 9.6001L7.60001 9.70009L8.2 9.30009L8.60001 9.90009L8.7 9.80009L8.3 9.20009L8.8 8.90009L8.7 8.80009Z" fill="#0020DB"/>
<path d="M11.5999 9.2L11.0999 9.60001L10.6999 9L10.5999 9.10001L10.9999 9.60001L10.3999 10L10.4999 10.2L11.0999 9.8L11.4999 10.3L11.5999 10.2L11.1999 9.7L11.6999 9.3L11.5999 9.2Z" fill="#0020DB"/>
<path d="M14.4998 9.6004L13.9998 10.0004L13.5998 9.40039L13.4998 9.5004L13.8998 10.0004L13.2998 10.4004L13.3998 10.5004L13.9998 10.1004L14.3998 10.7004L14.4998 10.6004L14.0998 10.1004L14.5998 9.70039L14.4998 9.6004Z" fill="#0020DB"/>
<path d="M17.6 10.0004L17.1 10.4004L16.8 9.90039L16.6 10.0004L17 10.5004L16.5 10.9004V11.0004L17.1 10.6004L17.5 11.1004H17.6L17.2 10.5004L17.7 10.1004L17.6 10.0004Z" fill="#0020DB"/>
<path d="M20.8997 10.6004L20.2997 11.0004L19.9997 10.4004L19.8997 10.5004L20.1997 11.0004L19.6997 11.4004L19.7997 11.5004L20.2997 11.1004L20.6997 11.7004L20.7997 11.6004L20.3997 11.1004L20.8997 10.7004V10.6004Z" fill="#0020DB"/>
<path d="M1.89999 1.7L2 1.60001L1.60001 1L2.10001 0.699997L2 0.5L1.5 0.899994V1.10001L1.89999 1.7Z" fill="#0020DB"/>
<path d="M4.99991 1.6004L5.29991 2.0004H5.49991L5.09991 1.5004L5.69991 1.1004L5.59991 1.0004L5.09991 1.40039L4.69991 0.900391L4.59991 1.0004L4.8999 1.5004L4.3999 1.90039V2.0004H4.49991L4.99991 1.6004Z" fill="#0020DB"/>
<path d="M5.3998 2.2L5.4998 2.10001V2H5.2998L5.3998 2.2Z" fill="#0020DB"/>
<path d="M8.3999 2.1004L8.59991 2.3004H8.79991L8.49991 2.0004L8.99991 1.6004L8.8999 1.5004L8.3999 1.90039L7.99991 1.40039H7.8999L8.29991 1.90039L7.8999 2.20039L8.09991 2.3004L8.3999 2.1004Z" fill="#0020DB"/>
<path d="M7.7998 2.5002L8.09981 2.3002L7.8998 2.2002L7.7998 2.40019V2.5002Z" fill="#0020DB"/>
<path d="M8.80009 2.6003L8.90009 2.50029L8.80009 2.30029H8.6001L8.80009 2.6003Z" fill="#0020DB"/>
<path d="M11.3999 2.40019L11.4999 2.5002L11.6999 2.6002L11.4999 2.3002L11.9999 2.0002L11.8999 1.90019L11.3999 2.2002L10.9999 1.7002L10.8999 1.8002L11.2999 2.3002L10.9999 2.5002H11.2999L11.3999 2.40019Z" fill="#0020DB"/>
<path d="M11.8 3L11.9 2.89999L11.7 2.60001L11.5 2.5L11.8 3Z" fill="#0020DB"/>
<path d="M10.7998 2.8L11.2998 2.5H10.9998L10.7998 2.7V2.8Z" fill="#0020DB"/>
<path d="M14.5 2.7V2.8H14.7L14.6 2.7L15.1 2.3L15 2.2L14.5 2.60001L14.1 2L14 2.10001L14.4 2.60001L14.2 2.8H14.4L14.5 2.7Z" fill="#0020DB"/>
<path d="M13.8999 3.20029L14.3999 2.80029H14.1999L13.8999 3.00029V3.20029Z" fill="#0020DB"/>
<path d="M14.9 3.30029L15 3.20029L14.7 2.80029H14.5L14.9 3.30029Z" fill="#0020DB"/>
<path d="M17.7998 3.1004L18.2998 2.70039V2.6004L17.6998 3.0004L17.3998 2.40039L17.2998 2.5004L17.5998 3.0004V3.1004H17.7998Z" fill="#0020DB"/>
<path d="M17.2001 3.6001L17.7001 3.1001L18.1001 3.70009L18.2001 3.6001L17.8001 3.1001H17.6001L17.1001 3.40009L17.2001 3.6001Z" fill="#0020DB"/>
<path d="M21.5 3.10001L21.4 3L21 3.3L21.2 3.39999L21.5 3.10001Z" fill="#0020DB"/>
<path d="M20.4999 2.90039H20.3999L20.6999 3.3004H20.8999L20.4999 2.90039Z" fill="#0020DB"/>
<path d="M20.2998 3.90028V4.00029L20.8998 3.6003L21.2998 4.1003L21.3998 4.00029L20.9998 3.50029L21.1998 3.40028L20.9998 3.30029L20.8998 3.40028V3.30029H20.6998L20.7998 3.40028L20.2998 3.90028Z" fill="#0020DB"/>
</svg>
