<svg width="19" height="12" viewBox="0 0 19 12" fill="none" xmlns="http://www.w3.org/2000/svg">
<path d="M3.49991 0.600006L3.29991 0.300003L3.3999 0.199997L3.69991 0.600006H3.99991L4.29991 0.399994L4.3999 0.5L4.19991 0.699997L6.3999 0.899994L6.19991 0.699997L6.29991 0.600006L6.49991 0.899994H6.79991L7.09991 0.699997L7.19991 0.800003L6.99991 0.899994L9.49991 1.10001L9.3999 0.899994L9.49991 0.800003L9.69991 1.10001H10.0999L10.2999 0.899994L10.3999 1L10.2999 1.10001L12.4999 1.3L12.5999 1.2L12.6999 1.3L13.3999 1.39999L13.4999 1.3V1.39999L15.5999 1.60001L15.6999 1.5V1.60001L16.4999 1.7L18.3999 1.89999V1.8C3.5999 0.300003 16.9999 1.8 1.3999 0V0.5L3.49991 0.600006Z" fill="#AF9A9A"/>
<path d="M1 8.7998C30.1 13.0998 -9.5 7.2998 18 11.2998C-9.6 7.1998 30.1 12.9998 1 8.7998Z" fill="#AF9A9A"/>
<path d="M6.8996 0.799805H6.59961L6.6996 0.999802L6.8996 0.799805Z" fill="#AF9A9A"/>
<path d="M10.1998 1.1001H9.7998L9.9998 1.30009L10.1998 1.1001Z" fill="#AF9A9A"/>
<path d="M3.99971 0.600098H3.69971L3.79971 0.700089L3.99971 0.600098Z" fill="#AF9A9A"/>
<path d="M16.7998 1.79991L16.2998 2.19991L16.6998 2.79991L16.5998 2.8999L16.1998 2.29991L15.5998 2.69991L15.4998 2.59991L16.0998 2.19991L15.6998 1.69991L13.5998 1.49991L13.0998 1.8999L13.4998 2.49991L13.3998 2.59991L12.9998 1.99991L12.3998 2.3999L12.2998 2.29991L12.8998 1.8999L12.4998 1.3999L10.2998 1.19991L9.8998 1.49991L10.2998 2.09991L10.1998 2.19991L9.7998 1.59991L9.1998 1.99991L9.09981 1.8999L9.6998 1.49991L9.4998 1.19991L6.9998 0.999908L6.6998 1.19991L7.09981 1.79991L6.9998 1.8999L6.59981 1.29991L5.9998 1.69991L5.8998 1.59991L6.4998 1.19991L6.2998 0.899902L4.09981 0.699905L3.7998 0.899902L4.1998 1.49991L4.09981 1.59991L3.6998 0.999908L3.09981 1.3999L2.9998 1.29991L3.59981 0.899902L3.3998 0.599915L1.3998 0.399902L0.799805 8.79991C7.3998 9.79991 12.8998 10.5999 17.7998 11.2999L18.4998 1.8999L16.5998 1.69991L16.7998 1.79991ZM3.9998 9.09991L3.8998 9.19991L3.4998 8.59991L2.8998 8.99991L2.7998 8.8999L3.3998 8.49991L2.9998 7.99991L3.09981 7.8999L3.4998 8.3999L3.9998 7.99991L4.09981 8.09991L3.59981 8.49991L3.9998 9.09991ZM7.1998 9.49991L7.09981 9.59991L6.6998 8.99991L6.09981 9.3999L5.9998 9.29991L6.59981 8.8999L6.1998 8.3999L6.2998 8.29991L6.6998 8.79991L7.1998 8.3999L7.2998 8.49991L6.7998 8.8999L7.1998 9.49991ZM10.0998 9.8999L9.9998 9.99991L9.59981 9.3999L8.9998 9.79991L8.8998 9.69991L9.4998 9.29991L9.09981 8.79991L9.1998 8.69991L9.59981 9.19991L10.0998 8.79991L10.1998 8.8999L9.6998 9.29991L10.0998 9.8999ZM13.1998 10.3999L13.0998 10.4999L12.6998 9.8999L12.0998 10.2999L11.9998 10.1999L12.5998 9.79991L12.1998 9.29991L12.2998 9.19991L12.6998 9.69991L13.1998 9.29991L13.2998 9.3999L12.7998 9.79991L13.1998 10.3999ZM16.2998 10.7999L16.1998 10.8999L15.7998 10.2999L15.1998 10.6999L15.0998 10.5999L15.6998 10.1999L15.2998 9.69991L15.3998 9.59991L15.7998 10.0999L16.2998 9.69991L16.3998 9.79991L15.8998 10.1999L16.2998 10.7999Z" fill="#AF9A9A"/>
<path d="M16.7999 1.70009L15.8999 1.6001L16.1999 2.00009L16.7999 1.70009Z" fill="#AF9A9A"/>
<path d="M13.5999 1.3998L12.8999 1.2998L13.1999 1.6998L13.5999 1.3998Z" fill="#AF9A9A"/>
<path d="M3.9998 8.09991L3.4998 8.3999L3.09981 7.8999L2.9998 7.99991L3.3998 8.49991L2.7998 8.8999L2.8998 8.99991L3.3998 8.59991L3.7998 9.19991L3.9998 9.09991L3.59981 8.49991L4.09981 8.19991L3.9998 8.09991Z" fill="#0020DB"/>
<path d="M7.2 8.4998L6.7 8.7998L6.3 8.2998L6.2 8.3998L6.60001 8.8998L6 9.2998L6.10001 9.3998L6.7 8.9998L7.10001 9.59981L7.2 9.4998L6.8 8.8998L7.3 8.59981L7.2 8.4998Z" fill="#0020DB"/>
<path d="M10.0999 8.8998L9.59991 9.2998L9.19991 8.7998H9.09991L9.49991 9.3998L8.8999 9.7998L8.99991 9.8998L9.59991 9.4998L9.99991 9.9998L10.0999 9.8998L9.69991 9.3998L10.1999 8.9998L10.0999 8.8998Z" fill="#0020DB"/>
<path d="M13.2996 9.40019L12.6996 9.7002L12.3996 9.2002L12.2996 9.3002L12.5996 9.8002L12.0996 10.2002L12.1996 10.3002L12.6996 9.90019L13.0996 10.5002L13.1996 10.4002L12.7996 9.8002L13.2996 9.5002V9.40019Z" fill="#0020DB"/>
<path d="M16.2996 9.8002L15.7996 10.2002L15.3996 9.7002H15.2996L15.6996 10.3002L15.0996 10.7002L15.1996 10.8002L15.7996 10.4002L16.1996 10.9002L16.2996 10.8002L15.8996 10.3002L16.3996 9.90019L16.2996 9.8002Z" fill="#0020DB"/>
<path d="M3.4998 0.200195L3.2998 0.300201L3.4998 0.600204H3.6998L3.4998 0.200195Z" fill="#0020DB"/>
<path d="M4.39999 0.499802L4.3 0.299805L4 0.599808H4.2L4.39999 0.499802Z" fill="#0020DB"/>
<path d="M3.19971 1.20009L3.29971 1.30009L3.79971 0.900085L4.19971 1.50009L4.29971 1.40009L3.8997 0.800095L4.19971 0.600098H3.99971L3.79971 0.700089L3.69971 0.600098H3.49971L3.69971 0.800095L3.19971 1.20009Z" fill="#0020DB"/>
<path d="M7.29991 0.700089V0.600098L6.8999 0.800095L7.19991 0.900085L7.29991 0.700089Z" fill="#0020DB"/>
<path d="M6.3998 0.5L6.2998 0.600006L6.3998 0.800003H6.59981L6.3998 0.5Z" fill="#0020DB"/>
<path d="M6.09961 1.4998L6.1996 1.59981L6.6996 1.1998L7.09961 1.6998H7.1996L6.79961 1.09981L7.1996 0.899796L6.8996 0.799805L6.6996 0.999802L6.59961 0.799805H6.3996L6.59961 1.09981L6.09961 1.4998Z" fill="#0020DB"/>
<path d="M9.60001 0.799805L9.5 0.899796L9.60001 1.09981H9.8L9.60001 0.799805Z" fill="#0020DB"/>
<path d="M10.5997 0.999908L10.4997 0.899902L10.1997 1.09991H10.3997L10.5997 0.999908Z" fill="#0020DB"/>
<path d="M9.2998 1.80009L9.3998 1.90009L9.8998 1.50009L10.2998 2.1001L10.4998 2.00009L10.0998 1.40009L10.3998 1.1001H10.1998L9.9998 1.30009L9.7998 1.1001H9.59981L9.8998 1.40009L9.2998 1.80009Z" fill="#0020DB"/>
<path d="M13.6996 1.2998L13.5996 1.3998H13.6996V1.2998Z" fill="#0020DB"/>
<path d="M12.7997 1.2002L12.6997 1.3002H12.8997L12.7997 1.2002Z" fill="#0020DB"/>
<path d="M12.5 2.1998L12.6 2.2998L13.1 1.8998L13.5 2.4998L13.6 2.3998L13.2 1.7998L13.7 1.4998V1.3998H13.6L13.2 1.6998L12.9 1.2998H12.7L13 1.7998L12.5 2.1998Z" fill="#0020DB"/>
<path d="M16.0996 2.1001L15.5996 2.50009L15.6996 2.6001L16.1996 2.20009L16.5996 2.80009L16.6996 2.70009L16.2996 2.1001L16.7996 1.80009V1.70009L16.1996 2.00009L15.8996 1.6001H15.7996L16.0996 2.1001Z" fill="#0020DB"/>
</svg>
