<svg width="18" height="13" viewBox="0 0 18 13" fill="none" xmlns="http://www.w3.org/2000/svg">
<path d="M1.80009 0.800201L12.0001 1.7002C8.50009 1.4002 5.1001 1.1002 1.6001 0.700195V0.800201H1.80009Z" fill="#AF9A9A"/>
<path d="M13.1001 12C14.3001 12.2 15.2001 12.3 15.9001 12.4C15.2001 12.3 14.3001 12.2 13.1001 12Z" fill="#AF9A9A"/>
<path d="M15.8999 12.4004C16.5999 12.5004 17.0999 12.6004 17.1999 12.6004C17.0999 12.6004 16.6999 12.5004 15.8999 12.4004Z" fill="#AF9A9A"/>
<path d="M0.899902 10.2002C6.0999 11.0002 10.1999 11.6002 13.0999 12.0002C10.2999 11.6002 6.0999 11.0002 0.899902 10.2002Z" fill="#AF9A9A"/>
<path d="M12 1.7002C13.9 1.9002 15.8 2.0002 17.6 2.2002L17.3 12.6002L17.6 2.2002L12 1.7002Z" fill="#AF9A9A"/>
<path d="M11.9999 1.70039L1.8999 0.900391L2.19991 1.40039L2.69991 1.0004L2.79991 1.1004L2.29991 1.5004L2.69991 2.1004L2.59991 2.20039L2.19991 1.6004L1.59991 2.0004L1.49991 1.90039L2.09991 1.5004L1.69991 1.0004H1.79991H1.59991L0.899902 10.4004C6.0999 11.2004 10.1999 11.8004 13.0999 12.2004L12.6999 11.7004L12.0999 12.1004L11.9999 12.0004L12.5999 11.6004L12.1999 11.1004L12.2999 11.0004L12.6999 11.5004L13.1999 11.1004L13.2999 11.2004L12.7999 11.6004L13.1999 12.2004L13.0999 12.3004C14.2999 12.5004 15.1999 12.6004 15.8999 12.7004L15.4999 12.2004L14.8999 12.6004L14.7999 12.5004L15.3999 12.1004L14.9999 11.6004L15.0999 11.5004L15.4999 12.0004L15.9999 11.6004L16.0999 11.7004L15.5999 12.1004L15.9999 12.7004L15.8999 12.8004C16.5999 12.9004 17.0999 13.0004 17.1999 13.0004H17.4999L17.5999 2.5004C15.7999 2.0004 13.8999 1.90039 11.9999 1.70039ZM2.3999 10.3004L2.29991 10.4004L1.8999 9.8004L1.29991 10.2004L1.19991 10.1004L1.79991 9.70039L1.3999 9.20039L1.49991 9.1004L1.8999 9.6004L2.3999 9.20039L2.49991 9.3004L1.99991 9.70039L2.3999 10.3004ZM5.19991 10.7004L5.09991 10.8004L4.69991 10.2004L4.09991 10.6004L3.99991 10.5004L4.59991 10.1004L4.19991 9.6004L4.29991 9.5004L4.69991 10.0004L5.19991 9.6004L5.29991 9.70039L4.79991 10.1004L5.19991 10.7004ZM5.69991 2.3004L5.59991 2.40039L5.19991 1.8004L4.59991 2.20039L4.49991 2.1004L5.09991 1.70039L4.69991 1.20039L4.79991 1.1004L5.19991 1.6004L5.69991 1.20039L5.79991 1.3004L5.29991 1.70039L5.69991 2.3004ZM7.99991 11.1004L7.8999 11.2004L7.49991 10.6004L6.8999 11.0004L6.79991 10.9004L7.3999 10.5004L6.99991 10.0004L7.09991 9.90039L7.49991 10.4004L7.99991 10.0004L8.09991 10.1004L7.59991 10.5004L7.99991 11.1004ZM8.79991 2.6004L8.69991 2.70039L8.29991 2.1004L7.69991 2.5004L7.59991 2.40039L8.19991 2.0004L7.79991 1.5004L7.8999 1.40039L8.29991 1.90039L8.79991 1.5004L8.8999 1.6004L8.3999 2.0004L8.79991 2.6004ZM10.5999 11.5004L10.4999 11.6004L10.0999 11.0004L9.49991 11.4004L9.3999 11.3004L9.99991 10.9004L9.59991 10.4004L9.69991 10.3004L10.0999 10.8004L10.5999 10.4004L10.6999 10.5004L10.1999 10.9004L10.5999 11.5004ZM11.4999 2.8004L11.3999 2.90039L10.9999 2.3004L10.3999 2.70039L10.2999 2.6004L10.8999 2.20039L10.4999 1.70039L10.5999 1.6004L10.9999 2.1004L11.4999 1.70039L11.5999 1.8004L11.0999 2.20039L11.4999 2.8004ZM14.2999 3.1004L14.1999 3.20039L13.7999 2.6004L13.1999 3.0004L13.0999 2.90039L13.6999 2.5004L13.2999 2.0004L13.3999 1.90039L13.7999 2.40039L14.2999 2.0004L14.3999 2.1004L13.8999 2.5004L14.2999 3.1004ZM16.9999 3.40039L16.8999 3.5004L16.4999 2.90039L15.8999 3.3004L15.7999 3.20039L16.3999 2.8004L15.9999 2.3004L16.0999 2.20039L16.4999 2.70039L16.9999 2.3004L17.0999 2.40039L16.5999 2.8004L16.9999 3.40039Z" fill="#AF9A9A"/>
<path d="M2.3997 9.30009L1.8997 9.70009L1.49971 9.1001L1.3997 9.20009L1.79971 9.70009L1.19971 10.1001L1.29971 10.2001L1.8997 9.80009L2.29971 10.4001L2.3997 10.3001L1.99971 9.80009L2.49971 9.40009L2.3997 9.30009Z" fill="#0020DB"/>
<path d="M5.2 9.60001L4.7 10L4.3 9.5L4.2 9.60001L4.60001 10.1L4 10.5L4.10001 10.6L4.7 10.2L5.10001 10.7H5.2L4.8 10.1L5.3 9.7L5.2 9.60001Z" fill="#0020DB"/>
<path d="M7.9998 10.1004L7.4998 10.4004L7.09981 9.90039L6.9998 10.0004L7.3998 10.5004L6.7998 10.9004L6.8998 11.0004L7.3998 10.6004L7.7998 11.2004L7.9998 11.1004L7.59981 10.6004L8.09981 10.2004L7.9998 10.1004Z" fill="#0020DB"/>
<path d="M10.7 10.5003L10.2 10.9003L9.8 10.3003L9.7 10.4003L10 10.9003L9.5 11.3003L9.60001 11.4003L10.1 11.0003L10.5 11.6003L10.6 11.5003L10.2 11.0003L10.8 10.6003L10.7 10.5003Z" fill="#0020DB"/>
<path d="M13.2 11.9002L12.8 11.3002L13.3 10.9002L13.2 10.8002L12.7 11.2002L12.3 10.7002L12.2 10.8002L12.6 11.3002L12 11.7002L12.1 11.8002L12.7 11.4002L13.1 11.9002C13.1 12.0002 13.1 12.0002 13.2 11.9002Z" fill="#0020DB"/>
<path d="M15.9998 12.3001L15.5998 11.7001L16.0998 11.3001L15.9998 11.2001L15.4998 11.6001L15.0998 11.1001L14.9998 11.2001L15.3998 11.7001L14.7998 12.1001L14.8998 12.2001L15.4998 11.8001L15.8998 12.3001C15.8998 12.4001 15.8998 12.4001 15.9998 12.3001Z" fill="#0020DB"/>
<path d="M1.80009 0.900284L2.1001 1.40028L1.6001 1.80029L1.70009 1.90028L2.20009 1.50029L2.6001 2.1003L2.70009 2.00029L2.30009 1.40028L2.80009 1.00029V0.900284L2.20009 1.30029L1.90009 0.800293H1.80009V0.900284Z" fill="#0020DB"/>
<path d="M5.80009 1.30009L5.20009 1.6001L4.90009 1.1001L4.80009 1.20009L5.1001 1.70009L4.6001 2.1001L4.70009 2.20009L5.20009 1.80009L5.6001 2.40009L5.70009 2.30009L5.30009 1.70009L5.80009 1.40009V1.30009Z" fill="#0020DB"/>
<path d="M8.80009 1.5004L8.30009 1.90039L7.90009 1.40039L7.80009 1.5004L8.20009 2.0004L7.6001 2.40039L7.70009 2.5004L8.30009 2.1004L8.70009 2.6004H8.80009L8.40009 2.0004L8.90009 1.6004L8.80009 1.5004Z" fill="#0020DB"/>
<path d="M11.5999 1.80009L11.0999 2.1001L10.6999 1.6001L10.5999 1.70009L10.8999 2.20009L10.3999 2.6001L10.4999 2.70009L10.9999 2.30009L11.3999 2.90009L11.4999 2.80009L11.0999 2.20009L11.6999 1.90009L11.5999 1.80009Z" fill="#0020DB"/>
<path d="M14.3001 2.0004L13.8001 2.40039L13.4001 1.90039L13.3001 2.0004L13.7001 2.5004L13.1001 2.90039L13.2001 3.0004L13.8001 2.6004L14.2001 3.20039L14.3001 3.1004L13.9001 2.5004L14.4001 2.1004L14.3001 2.0004Z" fill="#0020DB"/>
<path d="M16.9998 2.3002L16.4998 2.7002L16.0998 2.2002L15.9998 2.3002L16.3998 2.8002L15.7998 3.2002L15.8998 3.3002L16.3998 2.90019L16.7998 3.40019H16.9998L16.4998 2.8002L17.0998 2.40019L16.9998 2.3002Z" fill="#0020DB"/>
</svg>
