<svg width="18" height="13" viewBox="0 0 18 13" fill="none" xmlns="http://www.w3.org/2000/svg">
<path d="M16.3001 0.800201L6.1001 1.7002C9.6001 1.4002 13.0001 1.1002 16.5001 0.700195V0.800201H16.3001Z" fill="#AF9A9A"/>
<path d="M5.0002 12C3.8002 12.2 2.9002 12.3 2.2002 12.4C2.9002 12.3 3.9002 12.2 5.0002 12Z" fill="#AF9A9A"/>
<path d="M2.19991 12.4004C1.49991 12.5004 0.999902 12.6004 0.899902 12.6004C0.999902 12.6004 1.49991 12.5004 2.19991 12.4004Z" fill="#AF9A9A"/>
<path d="M17.2 10.2002C12 11.0002 7.9 11.6002 5 12.0002C7.9 11.6002 12 11.0002 17.2 10.2002Z" fill="#AF9A9A"/>
<path d="M6.10001 1.7002C4.20001 1.9002 2.3 2.0002 0.5 2.2002L0.800003 12.6002L0.5 2.2002L6.10001 1.7002Z" fill="#AF9A9A"/>
<path d="M0.5 2.2002L0.800003 12.6002C0.800003 12.6002 0.799994 12.6002 0.899994 12.6002C1.09999 12.6002 1.5 12.5002 2.2 12.4002L2.10001 12.3002L2.5 11.7002L2 11.3002L2.10001 11.2002L2.60001 11.6002L3 11.1002L3.10001 11.2002L2.7 11.7002L3.3 12.1002L3.2 12.2002L2.60001 11.8002L2.2 12.3002C2.9 12.2002 3.8 12.1002 5 11.9002L4.89999 11.8002L5.3 11.2002L4.8 10.8002L4.89999 10.7002L5.39999 11.1002L5.8 10.6002L5.89999 10.7002L5.5 11.2002L6.10001 11.6002L6 11.7002L5.39999 11.3002L5 12.0002C7.8 11.6002 12 11.0002 17.2 10.2002L16.5 0.800201H16.3H16.4L16 1.3002L16.6 1.7002L16.5 1.8002L15.9 1.40019L15.5 2.0002L15.4 1.90019L15.8 1.3002L15.3 0.900192L15.4 0.800201L15.9 1.2002L16.2 0.700195L6.10001 1.5002C4.30001 1.9002 2.4 2.0002 0.5 2.2002ZM16.2 9.8002L15.7 9.40019L15.8 9.3002L16.3 9.7002L16.7 9.2002L16.8 9.3002L16.4 9.8002L17 10.2002L16.9 10.3002L16.3 9.90019L15.9 10.5002L15.8 10.4002L16.2 9.8002ZM13.4 10.1002L12.9 9.7002L13 9.6002L13.5 10.0002L13.9 9.5002L14 9.6002L13.6 10.1002L14.2 10.5002L14.1 10.6002L13.5 10.2002L13.1 10.8002L13 10.7002L13.4 10.1002ZM12.8 1.7002L12.3 1.3002L12.4 1.2002L12.9 1.6002L13.3 1.1002L13.4 1.2002L13 1.7002L13.6 2.1002L13.5 2.2002L12.9 1.8002L12.5 2.40019L12.4 2.3002L12.8 1.7002ZM10.6 10.6002L10.1 10.2002L10.2 10.1002L10.7 10.5002L11.1 10.0002L11.2 10.1002L10.8 10.6002L11.4 11.0002L11.3 11.1002L10.7 10.7002L10.3 11.3002L10.2 11.2002L10.6 10.6002ZM9.8 2.0002L9.3 1.6002L9.39999 1.5002L9.89999 1.90019L10.3 1.40019L10.4 1.5002L10 2.0002L10.6 2.40019L10.5 2.5002L9.89999 2.1002L9.5 2.7002L9.39999 2.6002L9.8 2.0002ZM7.89999 11.0002L7.39999 10.6002L7.5 10.5002L8 10.9002L8.39999 10.4002L8.5 10.5002L8.10001 11.0002L8.7 11.4002L8.60001 11.5002L8 11.0002L7.60001 11.6002L7.5 11.5002L7.89999 11.0002ZM7 2.2002L6.5 1.8002L6.60001 1.7002L7.10001 2.1002L7.5 1.6002L7.60001 1.7002L7.2 2.2002L7.8 2.6002L7.7 2.7002L7.10001 2.3002L6.7 2.90019L6.60001 2.8002L7 2.2002ZM4.3 2.5002L3.8 2.1002L3.89999 2.0002L4.39999 2.40019L4.8 1.90019L4.89999 2.0002L4.5 2.5002L5.10001 2.90019L5 3.0002L4.39999 2.6002L4 3.2002L3.89999 3.1002L4.3 2.5002ZM1.60001 2.8002L1.10001 2.40019L1.2 2.3002L1.7 2.7002L2.10001 2.2002L2.2 2.3002L1.8 2.8002L2.39999 3.2002L2.3 3.3002L1.7 2.90019L1.3 3.5002L1.2 3.40019L1.60001 2.8002Z" fill="#AF9A9A"/>
<path d="M15.7001 9.30009L16.2001 9.70009L16.6001 9.1001L16.7001 9.20009L16.3001 9.70009L16.9001 10.1001L16.8001 10.2001L16.3001 9.80009L15.9001 10.4001L15.8001 10.3001L16.2001 9.80009L15.6001 9.40009L15.7001 9.30009Z" fill="#0020DB"/>
<path d="M12.8998 9.60001L13.3998 10L13.7998 9.5L13.8998 9.60001L13.5998 10.1L14.0998 10.5L13.9998 10.6L13.4998 10.2L13.0998 10.7H12.9998L13.3998 10.1L12.7998 9.7L12.8998 9.60001Z" fill="#0020DB"/>
<path d="M10.1001 10.1004L10.7001 10.4004L11.0001 9.90039L11.1001 10.0004L10.8001 10.5004L11.3001 10.9004L11.2001 11.0004L10.7001 10.6004L10.3001 11.2004L10.2001 11.1004L10.6001 10.6004L10.1001 10.2004V10.1004Z" fill="#0020DB"/>
<path d="M7.49991 10.5003L7.99991 10.9003L8.3999 10.3003L8.49991 10.4003L8.09991 10.9003L8.69991 11.3003L8.59991 11.4003L7.99991 11.0003L7.59991 11.6003L7.49991 11.5003L7.8999 11.0003L7.3999 10.6003L7.49991 10.5003Z" fill="#0020DB"/>
<path d="M4.8998 11.9002L5.2998 11.3002L4.7998 10.9002L4.8998 10.8002L5.3998 11.2002L5.7998 10.7002L5.8998 10.8002L5.4998 11.3002L6.09981 11.7002L5.9998 11.8002L5.3998 11.4002L4.9998 12.0002C4.9998 12.0002 4.9998 12.0002 4.8998 11.9002Z" fill="#0020DB"/>
<path d="M2.10001 12.3001L2.5 11.7001L2 11.3001L2.10001 11.2001L2.60001 11.6001L3 11.1001L3.10001 11.2001L2.7 11.7001L3.3 12.1001L3.2 12.2001L2.60001 11.8001L2.2 12.3001C2.2 12.4001 2.20001 12.4001 2.10001 12.3001Z" fill="#0020DB"/>
<path d="M16.3998 0.900284L15.9998 1.40028L16.5998 1.80029L16.4998 1.90028L15.8998 1.50029L15.4998 2.1003L15.3998 2.00029L15.7998 1.40028L15.2998 1.00029L15.3998 0.900284L15.8998 1.30029L16.1998 0.800293H16.2998L16.3998 0.900284Z" fill="#0020DB"/>
<path d="M12.3998 1.30009L12.8998 1.6001L13.2998 1.1001L13.3998 1.20009L12.9998 1.70009L13.5998 2.1001L13.4998 2.20009L12.8998 1.80009L12.4998 2.40009L12.3998 2.30009L12.7998 1.70009L12.2998 1.40009L12.3998 1.30009Z" fill="#0020DB"/>
<path d="M9.2998 1.5004L9.8998 1.90039L10.1998 1.40039L10.2998 1.5004L9.9998 2.0004L10.4998 2.40039L10.3998 2.5004L9.8998 2.1004L9.4998 2.6004H9.3998L9.7998 2.0004L9.2998 1.6004V1.5004Z" fill="#0020DB"/>
<path d="M6.60001 1.80009L7.10001 2.1001L7.5 1.6001L7.60001 1.70009L7.2 2.20009L7.7 2.6001V2.70009L7.10001 2.30009L6.7 2.90009L6.60001 2.80009L7 2.20009L6.5 1.90009L6.60001 1.80009Z" fill="#0020DB"/>
<path d="M3.7998 2.0004L4.3998 2.40039L4.6998 1.90039L4.7998 2.0004L4.4998 2.5004L4.9998 2.90039L4.8998 3.0004L4.3998 2.6004L3.9998 3.20039L3.8998 3.1004L4.2998 2.5004L3.7998 2.1004V2.0004Z" fill="#0020DB"/>
<path d="M1.20009 2.3002L1.70009 2.7002L2.00009 2.2002L2.20009 2.3002L1.80009 2.8002L2.30009 3.2002V3.3002L1.70009 2.90019L1.30009 3.40019H1.20009L1.6001 2.8002L1.1001 2.40019L1.20009 2.3002Z" fill="#0020DB"/>
<path d="M0.5 12.6001H0.800003L0.600006 5.1001L0.5 12.6001Z" fill="#AF9A9A"/>
</svg>
