<svg width="19" height="12" viewBox="0 0 19 12" fill="none" xmlns="http://www.w3.org/2000/svg">
<path d="M15.6002 0.600006L15.8002 0.300003L15.7002 0.199997L15.4002 0.600006H15.1002L14.8002 0.399994L14.7002 0.5L14.9002 0.699997L12.7002 0.899994L12.9002 0.699997L12.8002 0.600006L12.6002 0.899994H12.3002L12.0002 0.699997L11.9002 0.800003L12.1002 0.899994L9.60019 1.10001L9.7002 0.899994L9.60019 0.800003L9.40018 1.10001H9.00018L8.80017 0.899994L8.7002 1L8.80017 1.10001L6.60019 1.3L6.50018 1.2L6.40018 1.3L5.7002 1.39999L5.60019 1.3V1.39999L3.50018 1.60001L3.40018 1.5V1.60001L2.60019 1.7L0.700195 1.89999V1.8C15.5002 0.300003 2.10019 1.8 17.7002 0V0.5L15.6002 0.600006Z" fill="#AF9A9A"/>
<path d="M18.2002 8.7998C-10.8998 13.0998 28.7002 7.2998 1.2002 11.2998C28.7002 7.1998 -10.8998 12.9998 18.2002 8.7998Z" fill="#AF9A9A"/>
<path d="M12.2002 0.799805H12.5002L12.4002 0.999802L12.2002 0.799805Z" fill="#AF9A9A"/>
<path d="M8.8999 1.1001H9.2999L9.19992 1.30009L8.8999 1.1001Z" fill="#AF9A9A"/>
<path d="M15.1001 0.600098H15.4001L15.3001 0.700089L15.1001 0.600098Z" fill="#AF9A9A"/>
<path d="M2.39999 1.69991L0.5 1.8999L1.20001 11.2999C6.10001 10.5999 11.6 9.79991 18.2 8.79991L17.6 0.399902L15.6 0.599915L15.4 0.899902L16 1.29991L15.9 1.3999L15.3 0.999908L14.9 1.59991L14.8 1.49991L15.2 0.899902L14.9 0.699905L12.7 0.899902L12.5 1.19991L13.1 1.59991L13 1.69991L12.4 1.29991L12 1.8999L11.9 1.79991L12.3 1.19991L12 0.999908L9.5 1.19991L9.29999 1.49991L9.89999 1.8999L9.79999 1.99991L9.20001 1.59991L8.79999 2.19991L8.70001 2.09991L9.10001 1.49991L8.70001 1.19991L6.5 1.3999L6.10001 1.8999L6.70001 2.29991L6.60001 2.3999L6 1.99991L5.60001 2.59991L5.5 2.49991L5.89999 1.8999L5.39999 1.49991L3.29999 1.69991L2.89999 2.19991L3.5 2.59991L3.39999 2.69991L2.79999 2.29991L2.39999 2.8999L2.29999 2.79991L2.70001 2.19991L2.20001 1.79991L2.39999 1.69991ZM15.6 8.49991L15.1 8.09991L15.2 7.99991L15.7 8.3999L16.1 7.8999L16.2 7.99991L15.8 8.49991L16.4 8.8999L16.3 8.99991L15.7 8.59991L15.3 9.19991L15.2 9.09991L15.6 8.49991ZM12.4 8.8999L11.9 8.49991L12 8.3999L12.5 8.79991L12.9 8.29991L13 8.3999L12.6 8.8999L13.2 9.29991L13.1 9.3999L12.5 8.99991L12.1 9.59991L12 9.49991L12.4 8.8999ZM9.5 9.3999L9 8.99991L9.10001 8.8999L9.60001 9.29991L10 8.79991L10.1 8.8999L9.70001 9.3999L10.3 9.79991L10.2 9.8999L9.60001 9.49991L9.20001 10.0999L9.10001 9.99991L9.5 9.3999ZM6.29999 9.79991L5.79999 9.3999L5.89999 9.29991L6.39999 9.69991L6.79999 9.19991L6.89999 9.29991L6.5 9.79991L7.10001 10.1999L7 10.2999L6.39999 9.8999L6 10.4999L5.89999 10.3999L6.29999 9.79991ZM3.29999 10.2999L2.79999 9.8999L2.89999 9.79991L3.39999 10.1999L3.79999 9.69991L3.89999 9.79991L3.5 10.2999L4.10001 10.6999L4 10.7999L3.39999 10.3999L3 10.9999L2.89999 10.8999L3.29999 10.2999Z" fill="#AF9A9A"/>
<path d="M2.3999 1.70009L3.19992 1.6001L2.8999 2.00009L2.3999 1.70009Z" fill="#AF9A9A"/>
<path d="M5.5 1.3998L6.29999 1.2998L6 1.6998L5.5 1.3998Z" fill="#AF9A9A"/>
<path d="M15.1001 8.09991L15.7001 8.3999L16.0001 7.8999L16.1001 7.99991L15.8001 8.49991L16.3001 8.8999V8.99991L15.7001 8.59991L15.3001 9.19991L15.2001 9.09991L15.6001 8.49991L15.1001 8.19991V8.09991Z" fill="#0020DB"/>
<path d="M11.8998 8.4998L12.3998 8.7998L12.7998 8.2998L12.8998 8.3998L12.5998 8.8998L13.0998 9.2998L12.9998 9.3998L12.4998 8.9998L12.0998 9.59981L11.9998 9.4998L12.3998 8.8998L11.7998 8.59981L11.8998 8.4998Z" fill="#0020DB"/>
<path d="M8.99991 8.8998L9.49991 9.2998L9.8999 8.7998H9.99991L9.69992 9.3998L10.1999 9.7998L10.0999 9.8998L9.59991 9.4998L9.19992 9.9998L9.09991 9.8998L9.49991 9.3998L8.8999 8.9998L8.99991 8.8998Z" fill="#0020DB"/>
<path d="M5.89981 9.40019L6.39981 9.7002L6.7998 9.2002L6.89981 9.3002L6.49982 9.8002L7.09982 10.2002L6.99982 10.3002L6.39981 9.90019L5.99982 10.5002L5.89981 10.4002L6.2998 9.8002L5.7998 9.5002L5.89981 9.40019Z" fill="#0020DB"/>
<path d="M2.80017 9.8002L3.30017 10.2002L3.7002 9.7002H3.80017L3.40018 10.3002L4.00018 10.7002L3.90018 10.8002L3.40018 10.4002L3.00018 10.9002L2.90018 10.8002L3.30017 10.3002L2.7002 9.90019L2.80017 9.8002Z" fill="#0020DB"/>
<path d="M15.6999 0.200195L15.7999 0.300201L15.5999 0.600204H15.3999L15.6999 0.200195Z" fill="#0020DB"/>
<path d="M14.7002 0.499802L14.8002 0.299805L15.1002 0.599808H14.9002L14.7002 0.499802Z" fill="#0020DB"/>
<path d="M15.9998 1.20009L15.8998 1.30009L15.2998 0.900085L14.8998 1.50009L14.7998 1.40009L15.1998 0.800095L14.8998 0.600098H15.0998L15.2998 0.700089L15.3998 0.600098H15.5998L15.3998 0.800095L15.9998 1.20009Z" fill="#0020DB"/>
<path d="M11.7998 0.700089L11.8998 0.600098L12.1998 0.800095L11.9998 0.900085L11.7998 0.700089Z" fill="#0020DB"/>
<path d="M12.8 0.5L12.9 0.600006L12.7 0.800003H12.5L12.8 0.5Z" fill="#0020DB"/>
<path d="M13.0999 1.4998L12.9999 1.59981L12.3999 1.1998L11.9999 1.6998H11.8999L12.2999 1.09981L11.9999 0.899796L12.1999 0.799805L12.3999 0.999802L12.4999 0.799805H12.6999L12.4999 1.09981L13.0999 1.4998Z" fill="#0020DB"/>
<path d="M9.49982 0.799805L9.69983 0.899796L9.49982 1.09981H9.2998L9.49982 0.799805Z" fill="#0020DB"/>
<path d="M8.6001 0.999908L8.7001 0.899902L8.90009 1.09991H8.7001L8.6001 0.999908Z" fill="#0020DB"/>
<path d="M9.80017 1.80009L9.7002 1.90009L9.2002 1.50009L8.80017 2.1001L8.7002 2.00009L9.10019 1.40009L8.7002 1.1001H8.90018L9.2002 1.30009L9.30017 1.1001H9.50018L9.30017 1.40009L9.80017 1.80009Z" fill="#0020DB"/>
<path d="M5.49991 1.2998V1.3998H5.3999L5.49991 1.2998Z" fill="#0020DB"/>
<path d="M6.39981 1.2002L6.49982 1.3002H6.2998L6.39981 1.2002Z" fill="#0020DB"/>
<path d="M6.59991 2.1998V2.2998L5.99991 1.8998L5.59991 2.4998L5.49991 2.3998L5.8999 1.7998L5.3999 1.4998V1.3998H5.49991L5.99991 1.6998L6.2999 1.2998H6.49991L6.09991 1.7998L6.59991 2.1998Z" fill="#0020DB"/>
<path d="M2.99982 2.1001L3.59982 2.50009L3.49982 2.6001L2.89981 2.20009L2.49982 2.80009L2.39981 2.70009L2.7998 2.1001L2.2998 1.80009L2.39981 1.70009L2.89981 2.00009L3.19983 1.6001H3.39981L2.99982 2.1001Z" fill="#0020DB"/>
</svg>
