<svg width="22" height="12" viewBox="0 0 22 12" fill="none" xmlns="http://www.w3.org/2000/svg">
<path d="M20.6 0.900192L20.1 0.500198L20 0.600204L20.5 1.0002L20.1 1.6002L20.2 1.7002L20.6 1.1002V1.7002L17.6 2.0002L17 1.6002L17.4 1.1002L17.3 1.0002L16.9 1.5002L16.4 1.1002L16.3 1.2002L16.8 1.6002L16.4 2.1002L14 2.3002L13.6 2.0002L14 1.5002L13.9 1.40019L13.5 1.90019L13 1.5002L12.9 1.6002L13.4 2.0002L13.1 2.3002L10.8 2.5002L10.5 2.3002L10.9 1.8002L10.8 1.7002L10.4 2.2002L9.89999 1.8002L9.79999 1.90019L10.3 2.3002L10.1 2.5002L7.60001 2.7002L7.39999 2.6002L7.79999 2.1002L8 2.0002L7.60001 2.5002L7.10001 2.1002L7 2.2002L7.5 2.6002L7.39999 2.8002L4.5 3.0002L4.89999 2.5002L4.79999 2.40019L4.39999 2.90019L3.89999 2.5002L3.79999 2.6002L4.29999 3.0002L1.39999 3.2002L1.70001 2.8002L1.60001 2.7002L1.20001 3.2002H1.10001L0.600006 2.8002L0.5 2.90019L0.899994 3.2002H0.5V2.7002C7.3 1.9002 14 1.1002 20.6 0.200195V0.900192Z" fill="#AF9A9A"/>
<path d="M14.0001 2.30009H13.6001L13.7001 2.1001L14.0001 2.30009Z" fill="#AF9A9A"/>
<path d="M17.5998 2.00009H16.7998L17.0998 1.6001L17.5998 2.00009Z" fill="#AF9A9A"/>
<path d="M10.9001 2.5004H10.6001L10.7001 2.40039L10.9001 2.5004Z" fill="#AF9A9A"/>
<path d="M21.1998 7.6001V8.40009L20.7998 8.1001L21.1998 7.6001Z" fill="#AF9A9A"/>
<path d="M0.600098 3.40019L1.2001 11.8002C7.4001 10.9002 14.2001 9.9002 21.3001 8.8002V8.6002L20.8001 8.2002L20.4001 8.8002L20.3001 8.7002L20.7001 8.1002L20.2001 7.7002L20.3001 7.6002L20.8001 8.0002L21.2001 7.5002L21.3001 7.6002L20.9001 1.7002L17.9001 2.0002V2.1002L17.8001 2.0002L17.0001 2.1002L16.9001 2.2002L16.8001 2.1002L14.4001 2.3002L14.5001 2.40019L14.4001 2.5002L14.1001 2.3002H13.6001L13.4001 2.6002L13.3001 2.5002L13.5001 2.3002L11.2001 2.5002L11.5001 2.7002L11.4001 2.8002L11.0001 2.5002H10.8001L10.5001 2.90019L10.4001 2.8002L10.6001 2.5002L8.1001 2.7002L8.50009 3.0002L8.40009 3.1002L7.90009 2.7002H7.80008L7.40009 3.2002L7.30008 3.1002L7.6001 2.7002L4.7001 2.90019L5.2001 3.3002L5.1001 3.40019L4.50009 3.0002L4.1001 3.6002L4.00009 3.5002L4.40009 3.0002L1.50009 3.2002L1.40009 3.3002L2.00009 3.7002L1.90009 3.8002L1.30008 3.40019L0.900085 4.0002L0.800079 3.90019L1.2001 3.3002L1.00009 3.2002L0.600098 3.40019ZM17.2001 8.7002L16.7001 8.3002L16.8001 8.2002L17.3001 8.6002L17.7001 8.1002L17.8001 8.2002L17.4001 8.7002L18.0001 9.1002L17.9001 9.2002L17.3001 8.8002L16.9001 9.40019L16.8001 9.3002L17.2001 8.7002ZM13.8001 9.2002L13.3001 8.8002L13.4001 8.7002L13.9001 9.1002L14.3001 8.6002L14.4001 8.7002L14.0001 9.2002L14.6001 9.6002L14.5001 9.7002L13.9001 9.3002L13.5001 9.90019L13.4001 9.8002L13.8001 9.2002ZM10.9001 9.7002L10.4001 9.3002L10.5001 9.2002L11.0001 9.6002L11.4001 9.1002L11.5001 9.2002L11.1001 9.7002L11.7001 10.1002L11.6001 10.2002L11.0001 9.8002L10.6001 10.4002L10.5001 10.3002L10.9001 9.7002ZM8.1001 10.1002L7.6001 9.7002L7.7001 9.6002L8.2001 10.0002L8.6001 9.5002L8.7001 9.6002L8.30008 10.1002L8.90009 10.5002L8.80008 10.6002L8.2001 10.2002L7.80008 10.8002L7.7001 10.7002L8.1001 10.1002ZM4.90009 10.5002L4.40009 10.1002L4.50009 10.0002L5.00009 10.4002L5.40009 9.90019L5.50009 10.0002L5.1001 10.5002L5.7001 10.9002L5.6001 11.0002L5.00009 10.6002L4.6001 11.2002L4.50009 11.1002L4.90009 10.5002ZM1.7001 11.1002L1.2001 10.7002L1.30008 10.6002L1.80008 11.0002L2.2001 10.5002L2.30008 10.6002L1.90009 11.1002L2.50009 11.5002L2.40009 11.6002L1.80008 11.2002L1.40009 11.8002L1.30008 11.7002L1.7001 11.1002Z" fill="#AF9A9A"/>
<path d="M20.8001 8.10001L21.2001 8.39999V8.60001L20.7001 8.2L20.3001 8.8L20.2001 8.7L20.6001 8.2L20.1001 7.8L20.2001 7.7L20.7001 8.10001L21.1001 7.5L21.2001 7.60001L20.8001 8.10001Z" fill="#0020DB"/>
<path d="M16.8002 8.20009L17.3002 8.6001L17.7002 8.1001H17.8002L17.4002 8.70009L18.0002 9.1001L17.9002 9.20009L17.4002 8.80009L17.0002 9.30009H16.8002L17.2002 8.70009L16.7002 8.30009L16.8002 8.20009Z" fill="#0020DB"/>
<path d="M13.3998 8.80009L13.8998 9.1001L14.2998 8.6001L14.3998 8.70009L13.9998 9.20009L14.5998 9.6001L14.4998 9.70009L13.9998 9.30009L13.5998 9.90009L13.3998 9.80009L13.7998 9.20009L13.2998 8.90009L13.3998 8.80009Z" fill="#0020DB"/>
<path d="M10.4999 9.2L10.9999 9.60001L11.3999 9L11.4999 9.10001L11.0999 9.60001L11.6999 10L11.5999 10.2L11.0999 9.8L10.6999 10.3L10.4999 10.2L10.8999 9.7L10.3999 9.3L10.4999 9.2Z" fill="#0020DB"/>
<path d="M7.60001 9.6004L8.10001 10.0004L8.5 9.40039L8.60001 9.5004L8.29999 10.0004L8.79999 10.4004L8.70001 10.5004L8.20001 10.1004L7.79999 10.7004L7.70001 10.6004L8.10001 10.1004L7.5 9.70039L7.60001 9.6004Z" fill="#0020DB"/>
<path d="M4.49991 10.0004L4.99991 10.4004L5.3999 9.90039L5.49991 10.0004L5.09991 10.5004L5.69992 10.9004L5.59991 11.0004L4.99991 10.6004L4.59991 11.1004H4.49991L4.8999 10.5004L4.3999 10.1004L4.49991 10.0004Z" fill="#0020DB"/>
<path d="M1.30017 10.6004L1.80017 11.0004L2.2002 10.4004L2.30017 10.5004L1.90018 11.0004L2.50018 11.4004L2.40018 11.5004L1.80017 11.1004L1.40018 11.7004L1.30017 11.6004L1.7002 11.1004L1.2002 10.7004L1.30017 10.6004Z" fill="#0020DB"/>
<path d="M20.2 1.7L20.1 1.60001L20.5 1L20 0.699997L20.1 0.5L20.6 0.899994H20.7V1.10001L20.2 1.7Z" fill="#0020DB"/>
<path d="M17.1 1.6004L16.8 2.0004H16.6L17 1.5004L16.5 1.1004L16.6 1.0004L17.1 1.40039L17.5 0.900391L17.6 1.0004L17.2 1.5004L17.7 1.90039V2.0004H17.6L17.1 1.6004Z" fill="#0020DB"/>
<path d="M16.7001 2.2L16.6001 2.10001V2H16.8001L16.7001 2.2Z" fill="#0020DB"/>
<path d="M13.7001 2.1004L13.6001 2.3004H13.4001L13.6001 2.0004L13.1001 1.6004L13.2001 1.5004L13.7001 1.90039L14.1001 1.40039H14.2001L13.8001 1.90039L14.2001 2.20039L14.0001 2.3004L13.7001 2.1004Z" fill="#0020DB"/>
<path d="M14.3 2.5002L14 2.3002L14.2 2.2002L14.4 2.40019L14.3 2.5002Z" fill="#0020DB"/>
<path d="M13.3002 2.6003L13.2002 2.50029L13.4002 2.30029H13.6002L13.3002 2.6003Z" fill="#0020DB"/>
<path d="M10.7001 2.40019L10.6001 2.5002L10.5001 2.6002L10.6001 2.3002L10.1001 2.0002L10.2001 1.90019L10.7001 2.2002L11.1001 1.7002L11.2001 1.8002L10.8001 2.3002L11.1001 2.5002H10.9001L10.7001 2.40019Z" fill="#0020DB"/>
<path d="M10.3002 3L10.2002 2.89999L10.5002 2.60001L10.6002 2.5L10.3002 3Z" fill="#0020DB"/>
<path d="M11.2999 2.8L10.8999 2.5H11.0999L11.3999 2.7L11.2999 2.8Z" fill="#0020DB"/>
<path d="M7.70001 2.7L7.60001 2.8H7.39999L7.5 2.7L7 2.3L7.10001 2.2L7.60001 2.60001L8 2L8.10001 2.10001L7.70001 2.60001L7.89999 2.8H7.70001V2.7Z" fill="#0020DB"/>
<path d="M8.2002 3.20029L7.7002 2.80029H7.90018L8.30017 3.00029L8.2002 3.20029Z" fill="#0020DB"/>
<path d="M7.2001 3.30029L7.1001 3.20029L7.40009 2.80029H7.6001L7.2001 3.30029Z" fill="#0020DB"/>
<path d="M4.2998 3.1004L3.7998 2.70039L3.89981 2.6004L4.39981 3.0004L4.7998 2.40039L4.89981 2.5004L4.49982 3.0004V3.1004H4.2998Z" fill="#0020DB"/>
<path d="M4.99991 3.6001L4.3999 3.1001L3.99991 3.70009L3.8999 3.6001L4.2999 3.1001H4.49991L5.09991 3.40009L4.99991 3.6001Z" fill="#0020DB"/>
<path d="M0.600098 3.10001L0.700104 3L1.2001 3.3L1.00009 3.39999L0.600098 3.10001Z" fill="#0020DB"/>
<path d="M1.60019 2.90039H1.7002L1.40018 3.3004H1.2002L1.60019 2.90039Z" fill="#0020DB"/>
<path d="M1.90018 3.90028L1.80017 4.00029L1.2002 3.6003L0.800171 4.1003L0.700195 4.00029L1.10019 3.50029L1.00018 3.40028L1.2002 3.30029V3.40028V3.30029H1.40018L1.30017 3.40028L1.90018 3.90028Z" fill="#0020DB"/>
</svg>
