<svg width="19" height="11" viewBox="0 0 19 11" fill="none" xmlns="http://www.w3.org/2000/svg">
<path d="M17.6001 0.500092V0.100098C12.1001 0.900098 6.4001 1.70009 0.600098 2.50009V3.00009L0.900085 2.50009L1.00009 2.6001L0.600098 3.1001L1.2001 3.50009L1.1001 3.6001L0.600098 3.20009V3.80009L17.6001 2.40009L17.5001 1.1001L17.3001 1.00009L16.9001 1.6001L16.8001 1.50009L17.2001 0.900085L16.7001 0.500092L16.8001 0.400085L17.3001 0.800095L17.6001 0.500092ZM4.40009 2.6001L5.00009 3.00009L4.90009 3.1001L4.30008 2.70009L3.90009 3.30009L3.80008 3.20009L4.2001 2.6001L3.7001 2.20009L3.80008 2.1001L4.30008 2.50009L4.7001 2.00009L4.80008 2.1001L4.40009 2.6001ZM7.6001 2.1001L8.2001 2.50009L8.1001 2.6001L7.50009 2.20009L7.1001 2.80009L7.00009 2.70009L7.40009 2.1001L6.90009 1.70009L7.00009 1.6001L7.50009 2.00009L7.90009 1.50009L8.00009 1.6001L7.6001 2.1001ZM10.9001 1.70009L11.5001 2.1001L11.4001 2.20009L10.8001 1.80009L10.4001 2.40009L10.3001 2.30009L10.7001 1.70009L10.2001 1.30009L10.3001 1.20009L10.8001 1.6001L11.2001 1.1001L11.3001 1.20009L10.9001 1.70009ZM14.3001 1.20009L14.9001 1.6001L14.8001 1.70009L14.2001 1.30009L13.8001 1.90009L13.7001 1.80009L14.1001 1.20009L13.6001 0.800095L13.7001 0.700089L14.2001 1.1001L14.6001 0.600098L14.7001 0.700089L14.3001 1.20009Z" fill="#AF9A9A"/>
<path d="M17.7001 0.700195V0.800201L17.6001 0.700195H17.7001Z" fill="#AF9A9A"/>
<path d="M1.20032 10.6003V10.8003C6.70032 10.0003 12.4003 9.10029 18.2003 8.20029L17.8003 2.30029L0.800293 3.70029L1.20032 9.6003L1.30029 10.4003L1.4003 10.5003L1.20032 10.6003ZM16.5003 7.80029L16.0003 7.40028L16.1003 7.30029L16.6003 7.70029L17.0003 7.20029L17.1003 7.30029L16.7003 7.80029L17.3003 8.20029L17.2003 8.30029L16.6003 7.90028L16.2003 8.50029L16.1003 8.40028L16.5003 7.80029ZM13.4003 8.30029L12.9003 7.90028L13.0003 7.80029L13.5003 8.20029L13.9003 7.70029L14.0003 7.80029L13.6003 8.30029L14.2003 8.70029L14.1003 8.80029L13.5003 8.40028L13.1003 9.00029L13.0003 8.90028L13.4003 8.30029ZM10.3003 8.80029L9.80029 8.40028L9.9003 8.30029L10.4003 8.70029L10.8003 8.20029L10.9003 8.30029L10.5003 8.80029L11.1003 9.20029L11.0003 9.30029L10.4003 8.90028L10.0003 9.50029L9.9003 9.40028L10.3003 8.80029ZM7.20032 9.20029L6.70032 8.80029L6.80029 8.70029L7.30029 9.1003L7.70032 8.6003L7.80029 8.70029L7.4003 9.20029L8.00031 9.6003L7.9003 9.70029L7.30029 9.30029L6.9003 9.90028L6.80029 9.80029L7.20032 9.20029ZM3.80029 9.70029L3.30029 9.30029L3.4003 9.20029L3.9003 9.6003L4.30029 9.1003L4.4003 9.20029L4.00031 9.70029L4.60031 10.1003L4.50031 10.2003L3.9003 9.80029L3.50031 10.4003L3.4003 10.3003L3.80029 9.70029Z" fill="#AF9A9A"/>
<path d="M6.80017 8.70009L7.30017 9.1001L7.7002 8.6001L7.80017 8.70009L7.40018 9.20009L8.00018 9.6001L7.90018 9.70009L7.30017 9.30009L6.90018 9.90009L6.80017 9.80009L7.2002 9.20009L6.7002 8.90009L6.80017 8.70009Z" fill="#0020DB"/>
<path d="M9.80017 8.30009L10.3002 8.70009L10.7002 8.1001L10.8002 8.20009L10.5002 8.70009L11.0002 9.1001L10.9002 9.20009L10.4002 8.80009L10.0002 9.40009L9.90018 9.30009L10.3002 8.80009L9.7002 8.40009L9.80017 8.30009Z" fill="#0020DB"/>
<path d="M3.30017 9.20009L3.80017 9.6001L4.2002 9.1001L4.30017 9.20009L3.90018 9.70009L4.50018 10.1001L4.40018 10.2001L3.90018 9.80009L3.50018 10.3001H3.40018L3.80017 9.70009L3.2002 9.30009L3.30017 9.20009Z" fill="#0020DB"/>
<path d="M1.40018 10.4999L1.30017 10.5999H1.2002V10.3999L1.40018 10.4999Z" fill="#0020DB"/>
<path d="M16.1 7.40019L16.6 7.7002L17 7.2002L17.1 7.3002L16.7 7.8002L17.3 8.2002L17.2 8.3002L16.6 7.90019L16.2 8.5002L16.1 8.40019L16.5 7.8002L16 7.5002L16.1 7.40019Z" fill="#0020DB"/>
<path d="M12.9999 7.8002L13.4999 8.2002L13.8999 7.7002L13.9999 7.8002L13.5999 8.3002L14.1999 8.7002L14.0999 8.8002L13.4999 8.40019L13.0999 8.90019H12.9999L13.3999 8.3002L12.8999 7.90019L12.9999 7.8002Z" fill="#0020DB"/>
<path d="M17.0999 1.40028L16.9999 1.30029L17.3999 0.800293L16.8999 0.400284L16.9999 0.300293L17.4999 0.700287L17.5999 0.50029L17.6999 0.700287H17.5999L17.6999 0.800293V1.00029L17.4999 0.900284L17.0999 1.40028Z" fill="#0020DB"/>
<path d="M11.4002 2.20009L10.8002 1.80009L10.4002 2.30009L10.3002 2.20009L10.7002 1.70009L10.2002 1.30009L10.3002 1.20009L10.8002 1.6001L11.2002 1.1001H11.3002L10.9002 1.70009L11.5002 2.1001L11.4002 2.20009Z" fill="#0020DB"/>
<path d="M14.7 1.70009L14.2 1.30009L13.8 1.90009L13.7 1.80009L14.1 1.20009L13.5 0.800095L13.6 0.700089L14.1 1.1001L14.5 0.600098L14.6 0.700089L14.3 1.20009L14.8 1.6001L14.7 1.70009Z" fill="#0020DB"/>
<path d="M8.09991 2.60001L7.49991 2.2L7.09991 2.8L6.99991 2.7L7.3999 2.10001L6.8999 1.8L6.99991 1.60001L7.49991 2L7.8999 1.5L7.99991 1.60001L7.59991 2.10001L8.19992 2.5L8.09991 2.60001Z" fill="#0020DB"/>
<path d="M4.80017 3.10001L4.30017 2.7L3.90018 3.2L3.80017 3.10001L4.2002 2.60001L3.7002 2.2V2.10001L4.30017 2.5L4.60019 2H4.7002L4.40018 2.60001L4.90018 3L4.80017 3.10001Z" fill="#0020DB"/>
<path d="M1.00018 2.3999L1.10019 2.49991L0.700195 2.99991L1.30017 3.3999L1.2002 3.49991L0.700195 3.09991V2.8999L1.00018 2.3999Z" fill="#0020DB"/>
</svg>
