<svg width="19" height="12" viewBox="0 0 19 12" fill="none" xmlns="http://www.w3.org/2000/svg">
<path d="M17.9001 3.8004L17.6001 0.400391C12.1001 1.30039 6.4001 2.1004 0.600098 3.0004V3.40039L0.800079 3.1004L0.900085 3.20039L0.600098 3.6004V3.70039L1.1001 4.1004L1.00009 4.20039L0.600098 3.90039L0.700104 5.20039L17.9001 3.8004ZM4.00009 3.20039L4.6001 3.6004L4.50009 3.70039L3.90009 3.3004L3.50009 3.90039L3.40009 3.8004L3.80008 3.20039L3.30008 2.8004L3.40009 2.70039L3.90009 3.1004L4.30008 2.6004L4.40009 2.70039L4.00009 3.20039ZM7.00009 2.8004L7.6001 3.20039L7.50009 3.3004L6.90009 2.90039L6.50009 3.5004L6.40009 3.40039L6.80008 2.8004L6.30008 2.40039L6.40009 2.3004L6.90009 2.70039L7.30008 2.20039L7.40009 2.3004L7.00009 2.8004ZM10.2001 2.3004L10.8001 2.70039L10.7001 2.8004L10.1001 2.40039L9.7001 3.0004L9.6001 2.90039L10.0001 2.3004L9.50009 1.90039L9.6001 1.8004L10.1001 2.20039L10.5001 1.70039L10.6001 1.8004L10.2001 2.3004ZM13.3001 1.70039L13.9001 2.1004L13.8001 2.20039L13.2001 1.8004L12.8001 2.40039L12.7001 2.3004L13.1001 1.70039L12.6001 1.3004L12.7001 1.20039L13.2001 1.6004L13.6001 1.1004L13.7001 1.20039L13.3001 1.70039ZM17.1001 0.700394L16.7001 1.20039L17.3001 1.6004L17.2001 1.70039L16.6001 1.3004L16.2001 1.90039L16.1001 1.8004L16.5001 1.20039L16.0001 0.8004L16.1001 0.700394L16.6001 1.1004L17.0001 0.600403L17.1001 0.700394Z" fill="#AF9A9A"/>
<path d="M0.800293 5.30029L1.20032 11.2003C5.60032 10.5003 10.1003 9.8003 14.6003 9.1003L14.5003 9.00029L14.9003 8.40028L14.4003 8.00029L14.5003 7.90028L15.0003 8.30029L15.4003 7.80029L15.5003 7.90028L15.1003 8.40028L15.7003 8.80029L15.6003 8.90028C16.5003 8.80028 17.3003 8.60029 18.2003 8.50029L18.1003 7.50029L17.8003 3.80029L0.800293 5.30029ZM11.7003 9.00029L11.2003 8.6003L11.3003 8.50029L11.8003 8.90028L12.2003 8.40028L12.3003 8.50029L11.9003 9.00029L12.5003 9.40028L12.4003 9.50029L11.8003 9.1003L11.4003 9.70029L11.3003 9.6003L11.7003 9.00029ZM8.60031 9.50029L8.10031 9.1003L8.20032 9.00029L8.70032 9.40028L9.10031 8.90028L9.20032 9.00029L8.80029 9.50029L9.4003 9.90028L9.30029 10.0003L8.70032 9.6003L8.30029 10.2003L8.20032 10.1003L8.60031 9.50029ZM5.50031 9.90028L5.00031 9.50029L5.10031 9.40028L5.60031 9.80029L6.00031 9.30029L6.10031 9.40028L5.70032 9.90028L6.30029 10.3003L6.20032 10.4003L5.60031 10.0003L5.20032 10.6003L5.10031 10.5003L5.50031 9.90028ZM2.20032 10.9003L2.60031 10.3003L2.10031 9.90028L2.20032 9.80029L2.70032 10.2003L3.10031 9.70029L3.20032 9.80029L2.80029 10.3003L3.4003 10.7003L3.30029 10.8003L2.70032 10.4003L2.30029 11.0003L2.20032 10.9003Z" fill="#AF9A9A"/>
<path d="M15.6002 9.00058C15.3002 9.00058 15.0002 9.10059 14.7002 9.10059L15.1002 8.60059L15.6002 9.00058Z" fill="#AF9A9A"/>
<path d="M15 8.5004L14.5 8.1004L14.6 8.0004L15.1 8.40039L15.5 7.90039L15.6 8.0004L15.2 8.5004L15.8 8.90039L15.7 9.0004L15.2 8.6004L14.8 9.1004L14.7 9.0004L15 8.5004Z" fill="#0020DB"/>
<path d="M8.10001 9.00029L8.60001 9.40028L9 8.80029L9.10001 8.90028L8.70001 9.40028L9.29999 9.80029L9.20001 9.90028L8.70001 9.50029L8.29999 10.1003L8.20001 10.0003L8.60001 9.50029L8 9.1003L8.10001 9.00029Z" fill="#0020DB"/>
<path d="M11.2002 8.50029L11.8002 8.90028L12.1002 8.30029L12.2002 8.40028L11.9002 8.90028L12.4002 9.30029V9.40028L11.8002 9.00029L11.4002 9.6003L11.3002 9.50029L11.7002 9.00029L11.2002 8.6003V8.50029Z" fill="#0020DB"/>
<path d="M5.10001 9.50029L5.60001 9.80029L6 9.30029L6.10001 9.40028L5.70001 9.90028L6.29999 10.3003L6.20001 10.4003L5.60001 10.0003L5.20001 10.6003L5.10001 10.5003L5.5 9.90028L5 9.6003L5.10001 9.50029Z" fill="#0020DB"/>
<path d="M2.1001 10.0003L2.2001 9.90028L2.7001 10.3003L3.00009 9.80029H3.2001L2.80008 10.4003L3.30008 10.8003V10.9003L2.7001 10.5003L2.30008 11.0003L2.2001 10.9003L2.6001 10.4003L2.1001 10.0003Z" fill="#0020DB"/>
<path d="M13.8001 2.30058L13.2001 1.90057L12.8001 2.40057L12.7001 2.30058L13.1001 1.80058L12.6001 1.40057L12.7001 1.30058L13.2001 1.70058L13.6001 1.10059L13.7001 1.20058L13.3001 1.70058L13.8001 2.10059V2.30058Z" fill="#0020DB"/>
<path d="M10.6 2.8002L10.1 2.40019L9.70001 3.0002L9.60001 2.90019L10 2.40019L9.5 2.0002L9.60001 1.90019L10.1 2.2002L10.4 1.7002L10.6 1.8002L10.2 2.3002L10.7 2.7002L10.6 2.8002Z" fill="#0020DB"/>
<path d="M7.50031 3.3002L6.9003 2.90019L6.50031 3.40019L6.4003 3.3002L6.80029 2.8002L6.30029 2.40019L6.4003 2.3002L6.9003 2.7002L7.30029 2.2002L7.4003 2.3002L7.00031 2.8002L7.50031 3.2002V3.3002Z" fill="#0020DB"/>
<path d="M0.900085 3.2002H1.00009L0.700104 3.7002L0.600098 3.5002L0.900085 3.2002Z" fill="#0020DB"/>
<path d="M1.10019 4.20029V4.30029L0.700195 4.00029V3.80029L1.10019 4.20029Z" fill="#0020DB"/>
<path d="M4.4003 3.70058L3.9003 3.30058L3.50031 3.90057L3.4003 3.80058L3.80029 3.20058L3.30029 2.90057V2.80058L3.9003 3.10059L4.20032 2.60059L4.30029 2.70058L4.00031 3.20058L4.50031 3.60059L4.4003 3.70058Z" fill="#0020DB"/>
<path d="M17.3 1.7002L17.2 1.8002L16.6 1.40019L16.2 1.90019L16.1 1.8002L16.5 1.3002L16 0.900192L16.1 0.800201L16.6 1.2002L17 0.700195H17.1L16.7 1.3002L17.3 1.7002Z" fill="#0020DB"/>
</svg>
