<svg width="28" height="10" viewBox="0 0 28 10" fill="none" xmlns="http://www.w3.org/2000/svg">
<path d="M22.1998 1.3999C21.8998 1.3999 21.5998 1.3999 21.2998 1.3999L21.6998 1.7999L22.1998 1.3999Z" fill="#AE9999"/>
<path d="M27.4 2.7998L27.3 2.6998L27.6 2.3998V1.9998L27.3 1.6998L27.4 1.5998L27.6 1.7998V1.5998C26.5 1.4998 25.4 1.4998 24.3 1.3998L24.7 1.8998L25.2 1.4998L25.3 1.5998L24.8 1.9998L25.2 2.4998L25.1 2.5998L24.7 2.0998L24.2 2.4998L24.1 2.3998L24.6 1.9998L24.2 1.4998C23.5 1.4998 22.8 1.3998 22.2 1.3998L22.3 1.4998L21.8 1.8998L22.2 2.3998L22.1 2.4998L21.7 1.9998L21.2 2.3998L21.1 2.2998L21.6 1.8998L21.2 1.3998C18.4 1.2998 15.6 1.0998 12.8 0.999802L12.9 1.0998L12.4 1.5998L12.8 2.0998L12.7 2.1998L12.3 1.6998L11.8 2.0998L11.7 1.9998L12.2 1.5998L11.7 1.0998L11.8 0.999802C10.2 0.899802 8.6 0.799805 7 0.799805L7.10001 0.899803L6.6 1.3998L7 1.8998L6.9 1.9998L6.5 1.4998L6 1.8998L5.9 1.7998L6.4 1.3998L5.9 0.899803L6 0.799805L6.5 1.2998L7 0.799805C4.6 0.699805 2.3 0.599802 0 0.499802L0.400002 7.9998L0.599998 7.7998L0.699997 7.8998L0.400002 8.1998V8.5998L0.599998 8.8998L0.5 8.9998L0.400002 8.8998V9.1998C7.1 9.3998 14.6 9.5998 22.6 9.8998L22.2 9.3998L21.7 9.7998L21.6 9.6998L22.1 9.2998L21.7 8.7998L21.8 8.6998L22.2 9.1998L22.7 8.7998L22.8 8.8998L22.3 9.2998L22.7 9.7998L22.6 9.8998C23.7 9.8998 24.7 9.9998 25.8 9.9998L25.4 9.4998L24.9 9.8998L24.8 9.7998L25.3 9.3998L24.9 8.8998L25 8.7998L25.4 9.2998L25.9 8.8998L26 8.9998L25.5 9.3998L25.9 9.8998L25.8 9.9998C26.2 9.9998 26.6 9.9998 27 9.9998L27.5 2.8998L27.4 2.7998ZM1.4 1.3998L0.900002 0.999802L0.400002 1.3998L0.300003 1.2998L0.800003 0.899803L0.300003 0.399803L0.400002 0.299805L0.900002 0.799805L1.4 0.299805L1.5 0.399803L1 0.999802L1.4 1.3998ZM3.7 8.7998L3.2 8.3998L2.7 8.7998L2.6 8.6998L3.1 8.2998L2.6 7.7998L2.7 7.6998L3.2 8.1998L3.7 7.6998L3.8 7.7998L3.3 8.2998L3.7 8.7998ZM4.3 1.5998L3.8 1.1998L3.3 1.5998L3.2 1.4998L3.7 1.0998L3.2 0.5998L3.3 0.499802L3.8 0.999802L4.3 0.499802L4.4 0.5998L3.9 1.0998L4.3 1.5998ZM6.7 8.7998L6.2 8.3998L5.7 8.7998L5.6 8.6998L6.1 8.2998L5.6 7.7998L5.7 7.6998L6.2 8.1998L6.7 7.6998L6.8 7.7998L6.3 8.2998L6.7 8.7998ZM9.60001 8.9998L9.5 9.0998L9.10001 8.5998L8.60001 8.9998L8.5 8.8998L9 8.4998L8.5 7.9998L8.60001 7.8998L9.10001 8.3998L9.60001 7.8998L9.7 7.9998L9.2 8.4998L9.60001 8.9998ZM9.89999 1.7998L9.39999 1.3998L8.89999 1.7998L8.8 1.6998L9.3 1.2998L8.8 0.799805L8.89999 0.699799L9.39999 1.1998L9.89999 0.699799L10 0.799805L9.5 1.2998L9.89999 1.7998ZM12.5 8.9998L12.4 9.0998L12 8.5998L11.5 8.9998L11.4 8.8998L11.9 8.4998L11.5 7.9998L11.6 7.8998L12 8.3998L12.5 7.9998L12.6 8.0998L12.1 8.4998L12.5 8.9998ZM14.8 2.0998L14.7 1.9998L15.2 1.5998L14.8 1.0998L14.9 0.999802L15.3 1.4998L15.8 1.0998L15.9 1.1998L15.4 1.5998L15.8 2.0998L15.7 2.1998L15.3 1.6998L14.8 2.0998ZM16.4 9.1998L15.9 8.7998L15.4 9.1998L15.3 9.0998L15.8 8.6998L15.3 8.1998L15.4 8.0998L15.9 8.5998L16.4 8.0998L16.5 8.1998L16 8.6998L16.4 9.1998ZM17.8 2.2998L18.3 1.7998L17.8 1.2998L17.9 1.1998L18.4 1.6998L18.9 1.1998L19 1.2998L18.5 1.7998L19 2.2998L18.9 2.3998L18.4 1.8998L17.8 2.2998ZM19.4 9.2998L19.3 9.3998L18.9 8.8998L18.4 9.2998L18.3 9.1998L18.8 8.7998L18.4 8.2998L18.5 8.1998L18.9 8.6998L19.4 8.2998L19.5 8.3998L19 8.7998L19.4 9.2998Z" fill="#AE9999"/>
<path d="M12.7998 0.899902C12.4998 0.899902 12.1998 0.899902 11.7998 0.899902L12.2998 1.3999L12.7998 0.899902Z" fill="#AE9999"/>
<path d="M1.3998 0.399902L0.899803 0.899902L0.399803 0.399902L0.299805 0.499901L0.799805 0.999901L0.299805 1.3999L0.399803 1.4999L0.899803 1.0999L1.2998 1.4999L1.3998 1.3999L0.999802 0.999901L1.4998 0.499901L1.3998 0.399902Z" fill="#304893"/>
<path d="M4.3002 0.599998L3.8002 1L3.3002 0.5L3.2002 0.599998L3.7002 1.1L3.2002 1.6L3.3002 1.7L3.8002 1.2L4.2002 1.7L4.3002 1.6L3.9002 1.1L4.4002 0.699997L4.3002 0.599998Z" fill="#304893"/>
<path d="M6.1 0.600098L6 0.700096L6.4 1.2001L6 1.7001H6.1L6.5 1.3001L7 1.8001L7.10001 1.7001L6.6 1.2001L7.10001 0.700096L7 0.600098L6.5 1.1001L6.1 0.600098Z" fill="#304893"/>
<path d="M12.2002 1.4999L11.7002 1.8999L11.8002 1.9999L12.3002 1.5999L12.7002 2.0999L12.8002 1.9999L12.4002 1.4999L12.9002 0.999901L12.8002 0.899902L12.3002 1.3999L11.8002 0.899902L11.7002 0.999901L12.2002 1.4999Z" fill="#304893"/>
<path d="M15.8002 2.1L15.4002 1.6L15.9002 1.2L15.8002 1.1L15.3002 1.5L14.8002 1L14.7002 1.1L15.2002 1.6L14.7002 2L14.8002 2.1L15.3002 1.7L15.7002 2.2L15.8002 2.1Z" fill="#304893"/>
<path d="M18.7998 2.3998L18.8998 2.2998L18.4998 1.8998L18.9998 1.3998L18.8998 1.2998L18.3998 1.7998L17.8998 1.2998L17.7998 1.3998L18.2998 1.8998L17.7998 2.2998L17.8998 2.3998L18.3998 1.9998L18.7998 2.3998Z" fill="#304893"/>
<path d="M21.3002 1.2002L21.2002 1.3002C21.2002 1.3002 21.3002 1.3002 21.3002 1.2002Z" fill="#304893"/>
<path d="M21.1 2.2999L21.2 2.3999L21.7 1.9999L22.1 2.4999L22.2 2.3999L21.8 1.8999L22.3 1.4999L22.2 1.3999C22.2 1.3999 22.2 1.3999 22.1 1.3999L21.6 1.7999L21.2 1.3999C21.1 1.3999 21.1 1.3999 21 1.3999L21.4 1.8999L21.1 2.2999Z" fill="#304893"/>
<path d="M24.7002 2.1L24.2002 2.5L24.3002 2.6L24.8002 2.2L25.2002 2.7L25.3002 2.6L24.9002 2.1L25.4002 1.7L25.3002 1.6L24.8002 2L24.4002 1.5H24.3002L24.7002 2.1Z" fill="#304893"/>
<path d="M27.2998 2.6999L27.3998 2.7999L27.5998 2.5999V2.3999L27.2998 2.6999Z" fill="#304893"/>
<path d="M27.3999 1.8002L27.5999 2.1002L27.6999 1.9002L27.4999 1.7002L27.3999 1.8002Z" fill="#304893"/>
<path d="M9.8998 0.799805L9.3998 1.2998L8.8998 0.799805L8.7998 0.899803L9.2998 1.3998L8.7998 1.7998L8.8998 1.8998L9.3998 1.4998L9.7998 1.8998L9.8998 1.7998L9.4998 1.3998L9.9998 0.899803L9.8998 0.799805Z" fill="#304893"/>
<path d="M9.60001 7.8999L9.10001 8.3999L8.60001 7.8999L8.5 7.9999L9 8.4999L8.5 8.8999L8.60001 8.9999L9.10001 8.5999L9.5 9.0999L9.60001 8.9999L9.2 8.4999L9.7 7.9999L9.60001 7.8999Z" fill="#304893"/>
<path d="M12.6 7.9999L12.1 8.3999L11.6 7.8999L11.5 7.9999L12 8.4999L11.5 8.8999V8.9999L12 8.5999L12.4 9.0999L12.5 8.9999L12.1 8.4999L12.7 8.0999L12.6 7.9999Z" fill="#304893"/>
<path d="M16.2998 8.2001L15.7998 8.6001L15.3998 8.1001L15.2998 8.2001L15.6998 8.7001L15.2998 9.2001L15.3998 9.3001L15.7998 8.8001L16.2998 9.3001L16.3998 9.2001L15.8998 8.7001L16.3998 8.3001L16.2998 8.2001Z" fill="#304893"/>
<path d="M19.4999 8.3002L18.9999 8.7002L18.4999 8.2002H18.3999L18.8999 8.8002L18.3999 9.2002V9.3002L18.8999 8.9002L19.2999 9.4002L19.3999 9.3002L18.9999 8.8002L19.5999 8.4002L19.4999 8.3002Z" fill="#304893"/>
<path d="M22.4002 8.9998L23.0002 8.5998L22.9002 8.4998L22.3002 8.8998L21.9002 8.2998L21.8002 8.3998L22.2002 8.9998L21.7002 9.2998L21.8002 9.4998L22.3002 9.0998L22.7002 9.5998L22.8002 9.4998L22.4002 8.9998Z" fill="#304893"/>
<path d="M25.5999 9.2001L26.0999 8.8001L25.9999 8.7001L25.4999 9.1001L25.0999 8.6001L24.9999 8.7001L25.3999 9.2001L24.8999 9.6001L24.9999 9.7001L25.4999 9.3001L25.8999 9.8001C25.8999 9.8001 25.8999 9.8001 25.9999 9.8001L26.0999 9.7001L25.5999 9.2001Z" fill="#304893"/>
<path d="M6.7001 7.7998L6.2001 8.2998L5.7001 7.7998L5.6001 7.8998L6.1001 8.3998L5.6001 8.7998L5.7001 8.8998L6.2001 8.4998L6.6001 8.8998L6.7001 8.7998L6.3001 8.3998L6.8001 7.8998L6.7001 7.7998Z" fill="#304893"/>
<path d="M3.7001 7.7002L3.2001 8.2002L2.7001 7.7002L2.6001 7.8002L3.1001 8.3002L2.7001 8.7002V8.8002L3.2001 8.4002L3.6001 8.8002H3.7001L3.3001 8.3002L3.8001 7.8002L3.7001 7.7002Z" fill="#304893"/>
<path d="M0.799904 7.7001L0.699898 7.6001L0.399902 7.8001L0.499901 8.0001L0.799904 7.7001Z" fill="#304893"/>
<path d="M0.599998 8.6999L0.699997 8.5999L0.5 8.3999V8.5999L0.599998 8.6999Z" fill="#304893"/>
</svg>
