<svg width="31" height="14" viewBox="0 0 31 14" fill="none" xmlns="http://www.w3.org/2000/svg">
<path d="M29.5002 1V1.5L29.2002 1.3L29.5002 1Z" fill="#AF9A9A"/>
<path d="M9.60019 12.2999C9.30019 12.2999 9.0002 12.3999 8.7002 12.3999L9.10019 11.8999L9.60019 12.2999Z" fill="#AF9A9A"/>
<path d="M12.7003 11.7999C12.4003 11.7999 12.1003 11.8999 11.8003 11.8999L12.2003 11.3999L12.7003 11.7999Z" fill="#AF9A9A"/>
<path d="M6.20032 12.7999C5.90032 12.7999 5.60029 12.8999 5.30029 12.8999L5.70032 12.3999L6.20032 12.7999Z" fill="#AF9A9A"/>
<path d="M25.1002 9.79991C24.8002 9.79991 24.5002 9.8999 24.2002 9.8999L24.6002 9.3999L25.1002 9.79991Z" fill="#AF9A9A"/>
<path d="M0.600098 5.40009L0.900085 8.80009L1.2001 12.5001L1.30008 12.4001L1.80008 12.8001L2.2001 12.3001L2.30008 12.4001L1.90009 12.9001L2.50009 13.3001L2.40009 13.4001L1.80008 13.0001L1.40009 13.6001L1.30008 13.5001L1.7001 12.9001L1.2001 12.6001L1.30008 13.6001C2.60008 13.4001 3.90008 13.2001 5.30008 13.0001L5.2001 12.9001L5.6001 12.3001L5.00009 12.0001L5.1001 11.9001L5.6001 12.3001L6.00009 11.8001L6.1001 11.9001L5.7001 12.4001L6.30008 12.8001L6.2001 12.9001C7.0001 12.8001 7.9001 12.6001 8.7001 12.5001L8.6001 12.4001L9.00009 11.8001L8.50009 11.4001L8.6001 11.3001L9.1001 11.7001L9.50009 11.2001L9.6001 11.3001L9.2001 11.8001L9.80008 12.2001L9.7001 12.3001C10.4001 12.2001 11.1001 12.1001 11.8001 12.0001L11.7001 11.9001L12.1001 11.4001L11.6001 11.0001L11.7001 10.9001L12.2001 11.3001L12.6001 10.8001L12.7001 10.9001L12.3001 11.4001L12.8001 11.8001C13.5001 11.7001 14.1001 11.6001 14.8001 11.5001L15.2001 11.0001L14.7001 10.6001L14.8001 10.5001L15.3001 10.9001L15.7001 10.4001L15.8001 10.5001L15.4001 11.0001L15.9001 11.4001C18.0001 11.1001 20.1001 10.7001 22.2001 10.4001L21.7001 10.0001L21.3001 10.5001L21.2001 10.4001L21.6001 9.90009L21.1001 9.50009L21.2001 9.40009L21.7001 9.80009L22.1001 9.30009L22.2001 9.40009L21.8001 9.90009L22.3001 10.3001L22.2001 10.4001C22.9001 10.3001 23.5001 10.2001 24.2001 10.1001L24.1001 10.0001L24.5001 9.40009L24.0001 9.00009L24.1001 8.90009L24.6001 9.30009L25.0001 8.80009L25.1001 8.90009L24.7001 9.40009L25.3001 9.80009L25.2001 9.90009C26.8001 9.60009 28.3001 9.4001 29.9001 9.1001L29.8001 9.00009L30.1001 8.6001V8.40009L29.7001 8.1001L29.8001 8.00009L30.1001 8.20009L30.0001 6.50009L29.7001 1.80009L29.3001 1.50009L28.9001 2.1001L28.8001 2.00009L29.2001 1.40009L28.7001 1.00009L28.8001 0.900085L29.3001 1.30009L29.6001 0.800095V0.600098C20.8001 2.1001 11.1001 3.80009 0.600098 5.40009ZM27.3001 8.80009L26.8001 8.40009L26.9001 8.30009L27.4001 8.70009L27.8001 8.20009L27.9001 8.30009L27.5001 8.80009L28.1001 9.20009L28.0001 9.30009L27.4001 8.90009L27.0001 9.50009L26.9001 9.40009L27.3001 8.80009ZM18.4001 10.2001L17.9001 9.90009L18.0001 9.80009L18.5001 10.1001L18.8001 9.6001L18.9001 9.70009L18.6001 10.2001L19.2001 10.6001L19.1001 10.7001L18.5001 10.3001L18.1001 10.9001L18.0001 10.8001L18.4001 10.2001ZM3.50009 5.70009L4.1001 6.1001L4.00009 6.20009L3.40009 5.80009L3.00009 6.40009L2.90009 6.30009L3.30008 5.70009L2.80008 5.30009L2.90009 5.20009L3.40009 5.6001L3.80008 5.1001L3.90009 5.20009L3.50009 5.70009ZM6.80008 5.1001L7.40009 5.50009L7.30008 5.6001L6.7001 5.20009L6.30008 5.80009L6.2001 5.70009L6.6001 5.1001L6.1001 4.70009L6.2001 4.6001L6.7001 5.00009L7.1001 4.50009L7.2001 4.6001L6.80008 5.1001ZM10.1001 4.6001L10.6001 5.00009L10.5001 5.1001L10.0001 4.70009L9.6001 5.20009L9.50009 5.1001L9.90009 4.6001L9.40009 4.20009L9.50009 4.1001L10.0001 4.50009L10.4001 4.00009L10.5001 4.1001L10.1001 4.6001ZM13.3001 4.1001L13.8001 4.50009L13.7001 4.6001L13.2001 4.20009L12.8001 4.70009L12.7001 4.6001L13.1001 4.1001L12.6001 3.70009L12.7001 3.6001L13.2001 4.00009L13.6001 3.50009L13.7001 3.6001L13.3001 4.1001ZM16.6001 3.50009L17.1001 3.90009L17.0001 4.00009L16.5001 3.6001L16.1001 4.1001L16.0001 4.00009L16.4001 3.50009L15.9001 3.1001L16.0001 3.00009L16.5001 3.40009L16.9001 2.90009L17.0001 3.00009L16.6001 3.50009ZM19.7001 2.90009L20.3001 3.30009L20.2001 3.40009L19.6001 3.00009L19.2001 3.6001L19.1001 3.50009L19.5001 2.90009L19.0001 2.50009L19.1001 2.40009L19.6001 2.80009L20.0001 2.30009L20.1001 2.40009L19.7001 2.90009ZM23.4001 2.40009L23.9001 2.80009L23.8001 2.90009L23.3001 2.50009L22.9001 3.00009L22.8001 2.90009L23.2001 2.40009L22.7001 2.00009L22.8001 1.90009L23.3001 2.30009L23.7001 1.80009L23.8001 1.90009L23.4001 2.40009ZM26.3001 1.80009L26.9001 2.20009L26.8001 2.30009L26.2001 1.90009L25.8001 2.50009L25.7001 2.40009L26.1001 1.80009L25.6001 1.40009L25.7001 1.30009L26.2001 1.70009L26.6001 1.20009L26.7001 1.30009L26.3001 1.80009Z" fill="#AF9A9A"/>
<path d="M15.6999 11.2999C15.3999 11.2999 15.1999 11.3999 14.8999 11.3999L15.2999 10.8999L15.6999 11.2999Z" fill="#AF9A9A"/>
<path d="M24.5 9.40028L24 9.00029L24.1 8.90028L24.6 9.30029L25 8.80029L25.1 8.90028L24.7 9.40028L25.3 9.80029L25.2 9.90028C25.2 9.90028 25.2 9.90028 25.1 9.90028L24.6 9.50029L24.2 10.0003C24.2 10.0003 24.2 10.0003 24.1 10.0003L24 9.90028L24.5 9.40028Z" fill="#0020DB"/>
<path d="M17.8999 9.80009L18.4999 10.1001L18.7999 9.6001L18.8999 9.70009L18.5999 10.2001L19.1999 10.6001L19.0999 10.7001L18.4999 10.3001L18.0999 10.9001L17.9999 10.8001L18.3999 10.2001L17.8999 9.90009V9.80009Z" fill="#0020DB"/>
<path d="M21.2 10.4002L21.1 10.3002L21.5 9.8002L21 9.40019L21.1 9.3002L21.6 9.7002L22 9.2002L22.1 9.3002L21.7 9.8002L22.2 10.2002L22.1 10.3002L21.6 9.90019L21.2 10.4002Z" fill="#0020DB"/>
<path d="M15.2002 10.9003L14.7002 10.5003L14.8002 10.4003L15.3002 10.8003L15.7002 10.3003L15.8002 10.4003L15.4002 10.9003L15.9002 11.3003C15.8002 11.3003 15.8002 11.3003 15.7002 11.3003L15.3002 11.0003L14.9002 11.5003H14.8002L15.2002 10.9003Z" fill="#0020DB"/>
<path d="M12.1001 11.3002L11.6001 10.9002L11.7001 10.8002L12.2001 11.2002L12.6001 10.7002L12.7001 10.8002L12.3001 11.3002L12.8001 11.7002C12.7001 11.7002 12.7001 11.7002 12.6001 11.7002L12.2001 11.3002L11.8001 11.8002L11.7001 11.7002L12.1001 11.3002Z" fill="#0020DB"/>
<path d="M5.5 12.4003L5 12.0003L5.10001 11.9003L5.60001 12.3003L6 11.8003L6.10001 11.9003L5.70001 12.4003L6.29999 12.8003L6.20001 12.9003L5.70001 12.5003L5.29999 13.0003C5.29999 13.0003 5.30001 13.0003 5.20001 13.0003L5.10001 12.9003L5.5 12.4003Z" fill="#0020DB"/>
<path d="M9 11.8002L8.5 11.4002L8.60001 11.3002L9.10001 11.7002L9.5 11.2002L9.60001 11.3002L9.20001 11.8002L9.79999 12.2002L9.70001 12.3002L9.20001 11.9002L8.79999 12.4002L8.70001 12.3002L9 11.8002Z" fill="#0020DB"/>
<path d="M1.7002 12.8003L2.10019 12.3003L2.2002 12.4003L1.80017 12.9003L2.40018 13.3003L2.30017 13.4003L1.80017 13.0003L1.40018 13.6003L1.2002 13.5003L1.60019 12.9003L1.2002 12.6003V12.5003V12.4003L1.7002 12.8003Z" fill="#0020DB"/>
<path d="M26.9003 8.40019L27.4003 8.7002L27.8003 8.2002L27.9003 8.3002L27.5003 8.8002L28.1003 9.2002L28.0003 9.3002L27.4003 8.90019L27.1003 9.5002L26.9003 9.40019L27.3003 8.8002L26.8003 8.5002L26.9003 8.40019Z" fill="#0020DB"/>
<path d="M26.8001 2.3002L26.3001 1.90019L25.9001 2.5002L25.7001 2.40019L26.2001 1.8002L25.6001 1.40019L25.7001 1.3002L26.2001 1.7002L26.6001 1.2002L26.7001 1.3002L26.3001 1.8002L26.9001 2.2002L26.8001 2.3002Z" fill="#0020DB"/>
<path d="M23.9002 2.90028L23.3002 2.50029L22.9002 3.00029L22.8002 2.90028L23.2002 2.40028L22.7002 2.00029L22.8002 1.90028L23.3002 2.30029L23.7002 1.80029L23.8002 1.90028L23.4002 2.40028L23.9002 2.80029V2.90028Z" fill="#0020DB"/>
<path d="M20.1999 3.40028L19.5999 3.1003L19.1999 3.6003H19.0999L19.4999 3.00029L18.8999 2.6003L18.9999 2.50029L19.5999 2.90028L19.8999 2.30029L19.9999 2.40028L19.6999 2.90028L20.1999 3.30029V3.40028Z" fill="#0020DB"/>
<path d="M16.9999 4.10001L16.4999 3.60001L16.0999 4.2L15.9999 4.10001L16.3999 3.5L15.8999 3.10001L15.9999 3L16.4999 3.39999L16.8999 3H16.9999L16.5999 3.5L17.0999 4L16.9999 4.10001Z" fill="#0020DB"/>
<path d="M13.7001 4.60001L13.2001 4.2L12.7001 4.7L12.6001 4.60001L13.1001 4.10001L12.6001 3.7L12.7001 3.60001L13.2001 4L13.6001 3.5L13.7001 3.60001L13.3001 4.10001L13.8001 4.5L13.7001 4.60001Z" fill="#0020DB"/>
<path d="M10.5999 5.10001L9.99991 4.7L9.59991 5.2L9.49991 5.10001L9.8999 4.60001L9.3999 4.2L9.49991 4.10001L9.99991 4.5L10.3999 4H10.4999L10.0999 4.60001L10.5999 5V5.10001Z" fill="#0020DB"/>
<path d="M7.30008 5.60001L6.7001 5.2L6.30008 5.7L6.2001 5.60001L6.6001 5.10001L6.1001 4.7L6.2001 4.60001L6.7001 5L7.1001 4.5H7.2001L6.80008 5.10001L7.40009 5.5L7.30008 5.60001Z" fill="#0020DB"/>
<path d="M3.9003 6.20009L3.4003 5.80009L3.00031 6.30009L2.9003 6.20009L3.30029 5.70009L2.80029 5.30009V5.20009L3.4003 5.6001L3.70032 5.1001H3.80029L3.50031 5.70009L4.00031 6.1001L3.9003 6.20009Z" fill="#0020DB"/>
<path d="M28.7 2.0002L28.6 1.90019L29 1.40019L28.5 1.0002L28.6 0.900192L29.1 1.2002L29.4 0.700195L29.5 1.0002L29.2 1.3002L29.5 1.5002V1.7002L29.1 1.40019L28.7 2.0002Z" fill="#0020DB"/>
<path d="M30.0002 8.80009L29.8002 9.1001L29.7002 9.00009L30.0002 8.6001V8.80009Z" fill="#0020DB"/>
<path d="M30.0003 9.00029L29.8003 9.1003L30.0003 8.80029V9.00029Z" fill="#AF9A9A"/>
</svg>
