<svg width="27" height="14" viewBox="0 0 27 14" fill="none" xmlns="http://www.w3.org/2000/svg">
<path d="M25.6997 9.29961L25.1997 9.3996L25.3997 9.09961L25.6997 9.29961Z" fill="#AF9A9A"/>
<path d="M26.2 9.69971C18.9 10.9997 10.3 12.4997 1 13.9997C10.4 12.4997 19 10.9997 26.2 9.69971Z" fill="#AF9A9A"/>
<path d="M25.5999 1.1998V0.799805C18.9999 2.0998 10.4999 3.79981 0.399902 5.59981V5.7998L0.499908 5.8998L0.399902 6.09981V6.6998L0.699921 6.8998L0.599915 6.9998L0.399902 6.8998L0.699921 11.5998L18.0999 10.0998L18.1999 9.9998L18.2999 10.0998L18.8999 9.9998L18.9999 9.7998L19.0999 9.8998L18.9999 9.9998L21.4999 9.7998L21.0999 9.4998L21.1999 9.3998L21.6999 9.7998L22.0999 9.2998L22.1999 9.3998L21.8999 9.8998L24.8999 9.59981L25.0999 9.1998L24.5999 8.7998L24.6999 8.6998L25.1999 9.09981L25.5999 8.59981L25.6999 8.6998L25.2999 9.1998L25.7999 9.4998H26.0999L25.4999 1.8998L25.3999 1.7998L24.9999 2.3998L24.8999 2.2998L25.2999 1.6998L24.7999 1.2998L24.8999 1.1998L25.3999 1.59981L25.5999 1.1998ZM3.09991 5.7998L3.69992 6.1998L3.59991 6.2998L2.99991 5.8998L2.59991 6.4998L2.49991 6.3998L2.8999 5.7998L2.3999 5.3998L2.49991 5.2998L2.99991 5.6998L3.3999 5.1998L3.49991 5.2998L3.09991 5.7998ZM6.09991 5.2998L6.69992 5.6998L6.59991 5.7998L5.99991 5.3998L5.59991 5.9998L5.49991 5.8998L5.8999 5.2998L5.3999 4.8998L5.49991 4.7998L5.99991 5.1998L6.3999 4.6998L6.49991 4.7998L6.09991 5.2998ZM8.8999 4.6998L9.49991 5.09981L9.3999 5.1998L8.7999 4.7998L8.3999 5.3998L8.2999 5.2998L8.69992 4.6998L8.19992 4.2998L8.2999 4.1998L8.7999 4.59981L9.19992 4.09981L9.2999 4.1998L8.8999 4.6998ZM11.7999 4.09981L12.3999 4.4998L12.2999 4.59981L11.6999 4.1998L11.2999 4.7998L11.1999 4.6998L11.5999 4.09981L11.0999 3.6998L11.1999 3.59981L11.6999 3.9998L12.0999 3.4998L12.1999 3.59981L11.7999 4.09981ZM14.5999 3.59981L15.1999 3.9998L15.0999 4.09981L14.4999 3.6998L14.0999 4.2998L13.9999 4.1998L14.3999 3.59981L13.8999 3.1998L13.9999 3.09981L14.4999 3.4998L14.8999 2.9998L14.9999 3.09981L14.5999 3.59981ZM17.2999 3.09981L17.8999 3.4998L17.7999 3.59981L17.1999 3.1998L16.7999 3.7998L16.6999 3.6998L17.0999 3.09981L16.5999 2.6998L16.6999 2.59981L17.1999 2.9998L17.5999 2.4998L17.6999 2.59981L17.2999 3.09981ZM19.7999 2.59981L20.3999 2.9998L20.2999 3.09981L19.6999 2.6998L19.2999 3.2998L19.1999 3.1998L19.5999 2.59981L19.0999 2.1998L19.1999 2.09981L19.6999 2.4998L20.0999 1.9998L20.1999 2.09981L19.7999 2.59981ZM22.5999 1.9998L23.1999 2.3998L23.0999 2.4998L22.4999 2.09981L22.0999 2.6998L21.9999 2.59981L22.3999 1.9998L21.8999 1.59981L21.9999 1.4998L22.4999 1.8998L22.8999 1.3998L22.9999 1.4998L22.5999 1.9998Z" fill="#AF9A9A"/>
<path d="M18.3999 9.99991L18.9999 9.8999L18.7999 10.1999L18.3999 9.99991Z" fill="#AF9A9A"/>
<path d="M0.999817 13.7998V13.9998C10.2998 12.4998 18.8998 10.9998 26.1998 9.6998V9.2998H25.8998H25.9998L25.8998 9.3998L25.6998 9.2998H25.1998L24.9998 9.59981L24.8998 9.4998L24.9998 9.2998L21.9998 9.59981V9.6998L22.5998 10.0998L22.4998 10.1998L21.8998 9.7998L21.4998 10.3998L21.3998 10.2998L21.7998 9.6998L21.6998 9.59981L19.1998 9.7998L18.8998 10.1998L19.4998 10.5998L19.3998 10.6998L18.7998 10.2998L18.3998 10.8998L18.2998 10.7998L18.6998 10.1998L18.1998 9.7998L0.799805 11.2998L0.899811 12.9998L1.09982 13.0998L1.49982 12.5998L1.59982 12.6998L1.19983 13.1998L1.7998 13.5998L1.69983 13.6998L1.09982 13.2998L0.999817 13.7998ZM15.6998 10.8998L15.1998 10.4998L15.2998 10.3998L15.7998 10.7998L16.1998 10.2998L16.2998 10.3998L15.8998 10.8998L16.4998 11.2998L16.3998 11.3998L15.7998 10.9998L15.3998 11.5998L15.2998 11.4998L15.6998 10.8998ZM12.6998 11.2998L12.1998 10.8998L12.2998 10.7998L12.7998 11.1998L13.1998 10.6998L13.2998 10.7998L12.8998 11.2998L13.4998 11.6998L13.3998 11.7998L12.7998 11.3998L12.3998 11.9998L12.2998 11.8998L12.6998 11.2998ZM9.69983 11.8998L9.19983 11.4998L9.2998 11.3998L9.7998 11.7998L10.1998 11.2998L10.2998 11.3998L9.89981 11.8998L10.4998 12.2998L10.3998 12.3998L9.7998 11.9998L9.39981 12.5998L9.2998 12.4998L9.69983 11.8998ZM6.69983 12.4998L6.19983 12.0998L6.2998 11.9998L6.7998 12.3998L7.19983 11.8998L7.2998 11.9998L6.89981 12.4998L7.49982 12.8998L7.39981 12.9998L6.7998 12.5998L6.39981 13.1998L6.2998 13.0998L6.69983 12.4998ZM3.7998 12.8998L3.2998 12.4998L3.39981 12.3998L3.89981 12.7998L4.2998 12.2998L4.39981 12.3998L3.99982 12.8998L4.59982 13.2998L4.49982 13.3998L3.99982 12.9998L3.59982 13.5998L3.49982 13.4998L3.7998 12.8998Z" fill="#AF9A9A"/>
<path d="M25.3997 9.09991L25.1997 9.3999H24.9997L25.2997 8.99991L24.6997 8.69991L24.7997 8.59991L25.2997 8.8999L25.6997 8.3999L25.7997 8.49991L25.3997 8.99991L25.8997 9.29991H25.6997L25.3997 9.09991Z" fill="#0020DB"/>
<path d="M25.8997 9.4998L25.6997 9.2998H25.8997L25.9997 9.3998L25.8997 9.4998Z" fill="#0020DB"/>
<path d="M24.9999 9.69991L24.8999 9.59991L24.9999 9.3999H25.1999L24.9999 9.69991Z" fill="#0020DB"/>
<path d="M21.1997 9.3996L21.2997 9.29961L21.7997 9.59961L22.1997 9.09961L22.2997 9.1996L21.9997 9.59961L21.6997 9.6996L21.1997 9.3996Z" fill="#0020DB"/>
<path d="M22.4999 10.0996L22.3999 10.1996L21.8999 9.79961L21.4999 10.3996L21.3999 10.2996L21.7999 9.6996H21.6999L21.9999 9.59961V9.6996L22.4999 10.0996Z" fill="#0020DB"/>
<path d="M18.2997 9.8999L18.3997 9.99991H18.1997L18.2997 9.8999Z" fill="#0020DB"/>
<path d="M19.2 9.69971L19.3 9.79971L19.2 9.8997H19L19.2 9.69971Z" fill="#0020DB"/>
<path d="M19.4997 10.6999L19.3997 10.7999L18.7997 10.3999L18.4997 10.9999L18.2997 10.8999L18.6997 10.2999L18.1997 9.99991H18.3997L18.7997 10.1999L18.9997 9.8999H19.1997L18.8997 10.2999L19.4997 10.6999Z" fill="#0020DB"/>
<path d="M15.2997 10.3997L15.7997 10.7997L16.1997 10.1997L16.2997 10.2997L15.8997 10.7997L16.4997 11.1997L16.3997 11.2997L15.7997 10.9997L15.4997 11.4997H15.2997L15.6997 10.8997L15.1997 10.4997L15.2997 10.3997Z" fill="#0020DB"/>
<path d="M12.1997 10.8997L12.7997 11.1997L13.0997 10.6997L13.1997 10.7997L12.8997 11.2997L13.4997 11.6997L13.3997 11.7997L12.7997 11.3997L12.3997 11.9997L12.2997 11.8997L12.6997 11.2997L12.1997 10.9997V10.8997Z" fill="#0020DB"/>
<path d="M9.29968 11.3997L9.79968 11.7997L10.1997 11.1997L10.2997 11.2997L9.89969 11.7997L10.4997 12.1997L10.3997 12.2997L9.89969 11.9997L9.49969 12.4997H9.39969L9.69971 11.8997L9.19971 11.4997L9.29968 11.3997Z" fill="#0020DB"/>
<path d="M6.19971 11.9998L6.79968 12.3998L7.0997 11.7998L7.19971 11.8998L6.89969 12.3998L7.49969 12.7998L7.39969 12.8998L6.79968 12.4998L6.39969 13.0998L6.29968 12.9998L6.69971 12.4998L6.19971 12.0998V11.9998Z" fill="#0020DB"/>
<path d="M3.39981 12.4998L3.89981 12.7998L4.2998 12.2998L4.39981 12.3998L3.99982 12.8998L4.59982 13.2998L4.49982 13.3998L3.99982 12.9998L3.59982 13.5998L3.49982 13.4998L3.7998 12.8998L3.2998 12.5998L3.39981 12.4998Z" fill="#0020DB"/>
<path d="M1.60001 12.7998L1.70001 12.8998L1.29999 13.3998L1.89999 13.7998L1.79999 13.8998L1.20001 13.4998L1 13.7998V13.5998L1.10001 13.3998L1 13.2998V13.1998L1.20001 13.2998L1.60001 12.7998Z" fill="#0020DB"/>
<path d="M0.799988 6.7L0.700012 6.8L0.5 6.7V6.5L0.799988 6.7Z" fill="#0020DB"/>
<path d="M0.499908 5.69971L0.599915 5.79971L0.499908 5.99971L0.399902 5.69971H0.499908Z" fill="#0020DB"/>
<path d="M3.59991 6.29971L2.99991 5.8997L2.59991 6.3997H2.49991L2.8999 5.79971L2.3999 5.3997L2.49991 5.29971L2.99991 5.69971L3.3999 5.19971L3.49991 5.29971L3.09991 5.79971L3.69992 6.19971L3.59991 6.29971Z" fill="#0020DB"/>
<path d="M6.59991 5.79971L5.99991 5.3997L5.59991 5.8997H5.49991L5.8999 5.29971L5.3999 4.8997L5.49991 4.79971L5.99991 5.19971L6.3999 4.69971L6.49991 4.79971L6.09991 5.29971L6.69992 5.69971L6.59991 5.79971Z" fill="#0020DB"/>
<path d="M9.39969 5.1996L8.79968 4.79961L8.39969 5.3996L8.29968 5.29961L8.69971 4.79961L8.19971 4.3996L8.29968 4.29961L8.79968 4.6996L9.19971 4.09961L9.29968 4.1996L8.89969 4.6996L9.49969 5.09961L9.39969 5.1996Z" fill="#0020DB"/>
<path d="M12.3001 4.60001L11.7001 4.3L11.3001 4.8L11.2001 4.7L11.6001 4.2L11.1001 3.8L11.2001 3.7L11.7001 4.10001L12.1001 3.5L12.2001 3.60001L11.8001 4.10001L12.4001 4.5L12.3001 4.60001Z" fill="#0020DB"/>
<path d="M15.0999 4.10001L14.4999 3.7L14.0999 4.3L13.9999 4.2L14.3999 3.60001L13.8999 3.3V3.2L14.4999 3.5L14.7999 3L14.8999 3.10001L14.5999 3.60001L15.0999 4V4.10001Z" fill="#0020DB"/>
<path d="M17.8001 3.60001L17.2001 3.2L16.8001 3.8L16.7001 3.7L17.1001 3.10001L16.6001 2.8L16.7001 2.7L17.2001 3L17.6001 2.5L17.7001 2.60001L17.3001 3.10001L17.9001 3.5L17.8001 3.60001Z" fill="#0020DB"/>
<path d="M20.3001 3.10001L19.8001 2.7L19.4001 3.3L19.3001 3.2L19.7001 2.60001L19.1001 2.3L19.2001 2.2L19.7001 2.5L20.1001 2L20.2001 2.10001L19.8001 2.60001L20.4001 3L20.3001 3.10001Z" fill="#0020DB"/>
<path d="M22.9999 2.49991L22.4999 2.09991L22.0999 2.69991L21.9999 2.59991L22.3999 1.99991L21.8999 1.69991V1.59991L22.4999 1.8999L22.7999 1.3999L22.8999 1.49991L22.5999 1.99991L23.0999 2.3999L22.9999 2.49991Z" fill="#0020DB"/>
<path d="M25.0999 2.10001H24.9999L25.3999 1.5L24.8999 1.10001L24.9999 1L25.4999 1.39999L25.5999 1.2V1.39999V1.5L25.6999 1.7L25.4999 1.60001L25.0999 2.10001Z" fill="#0020DB"/>
<path d="M1 13.2998V13.5998L1.10001 13.3998L1 13.2998Z" fill="#AF9A9A"/>
</svg>
