<svg width="28" height="14" viewBox="0 0 28 14" fill="none" xmlns="http://www.w3.org/2000/svg">
<path d="M1.2001 13.7C2.7001 13.4 4.2001 13.2 5.6001 12.9L8.1001 12.5L13.4001 11.5C16.5001 10.9 21.7001 9.79996 21.7001 9.79996L22.5001 9.59997L26.0001 8.89995C27.2001 8.59995 28.0001 7.39996 27.8001 6.19996L26.9001 1.89995C26.6001 0.699953 25.4001 -0.100035 24.2001 0.099965L15.4001 1.69996C15.4001 1.69996 10.0001 2.89996 0.600098 4.79996V5.19996L0.800079 4.89995L0.900085 4.99996L0.600098 5.49996V5.59997L1.1001 5.99996L1.00009 6.09997L0.600098 5.79996L1.2001 13.4L5.50009 13C4.20009 13.2 2.7001 13.5 1.2001 13.7ZM3.7001 4.89995L4.30008 5.29996L4.2001 5.39995L3.6001 4.99996L3.2001 5.59997L3.1001 5.49996L3.50009 4.89995L3.00009 4.49996L3.1001 4.39995L3.6001 4.79996L4.00009 4.29996L4.1001 4.39995L3.7001 4.89995ZM4.1001 12.3L4.7001 12.7L4.6001 12.8L4.00009 12.4L3.6001 13L3.50009 12.9L3.90009 12.3L3.40009 11.9L3.50009 11.8L4.00009 12.2L4.40009 11.7L4.50009 11.8L4.1001 12.3ZM26.3001 7.39995L25.8001 7.09997L25.9001 6.99996L26.4001 7.29996L26.7001 6.79996L26.8001 6.89995L26.5001 7.39995L27.1001 7.79996L27.0001 7.89995L26.4001 7.49996L26.0001 8.09997L25.9001 7.99996L26.3001 7.39995ZM25.6001 4.19996L25.1001 3.89995L25.2001 3.79996L25.7001 4.09997L26.0001 3.59997L26.1001 3.69996L25.8001 4.19996L26.4001 4.59997L26.3001 4.69996L25.7001 4.29996L25.3001 4.89995L25.2001 4.79996L25.6001 4.19996ZM24.9001 1.19996L24.3001 0.999959V0.899953L24.9001 1.09997L25.1001 0.499959H25.2001L25.0001 1.09997L25.7001 1.29996V1.39995L25.0001 1.19996L24.8001 1.89995H24.7001L24.9001 1.19996ZM22.4001 7.99996L22.5001 7.89995L23.1001 8.09997L23.3001 7.49996L23.4001 7.59997L23.2001 8.19996L23.8001 8.49996L23.7001 8.59997L23.1001 8.29996L22.8001 8.89995L22.7001 8.79996L23.0001 8.19996L22.4001 7.99996ZM21.6001 1.39995L21.1001 0.999959L21.2001 0.899953L21.7001 1.29996L22.1001 0.799962L22.2001 0.899953L21.8001 1.39995L22.4001 1.79996L22.3001 1.89995L21.7001 1.49996L21.3001 2.09997L21.2001 1.99996L21.6001 1.39995ZM20.0001 8.99996L19.4001 8.79996L19.5001 8.69996L20.1001 8.89995L20.3001 8.29996L20.4001 8.39995L20.2001 8.99996L20.8001 9.29996L20.7001 9.39995L20.1001 9.09997L19.8001 9.69996L19.7001 9.59997L20.0001 8.99996ZM18.4001 1.89995L17.9001 1.49996L18.0001 1.39995L18.5001 1.79996L18.9001 1.29996L19.0001 1.39995L18.6001 1.89995L19.2001 2.29996L19.1001 2.39995L18.5001 1.99996L18.1001 2.59997L18.0001 2.49996L18.4001 1.89995ZM16.6001 9.59997L16.0001 9.39995L16.1001 9.29996L16.7001 9.49996L16.9001 8.89995L17.0001 8.99996L16.8001 9.59997L17.4001 9.89995L17.3001 9.99996L16.7001 9.69996L16.4001 10.3L16.3001 10.2L16.6001 9.59997ZM15.7001 2.39995L15.2001 1.99996L15.3001 1.89995L15.8001 2.29996L16.2001 1.79996L16.3001 1.89995L15.9001 2.39995L16.5001 2.79996L16.4001 2.89995L15.8001 2.49996L15.4001 3.09997L15.3001 2.99996L15.7001 2.39995ZM13.6001 10.3L13.0001 9.99996L13.1001 9.89995L13.7001 10.1L13.9001 9.49996L14.0001 9.59997L13.8001 10.2L14.4001 10.5L14.3001 10.6L13.7001 10.3L13.4001 10.9L13.3001 10.8L13.6001 10.3ZM12.7001 2.99996L12.2001 2.59997L12.3001 2.49996L12.8001 2.89995L13.2001 2.39995L13.3001 2.49996L12.9001 2.99996L13.5001 3.39995L13.4001 3.49996L12.8001 3.09997L12.4001 3.69996L12.3001 3.59997L12.7001 2.99996ZM10.6001 11L10.0001 10.8L10.1001 10.7L10.7001 10.9L10.9001 10.3L11.0001 10.4L10.8001 11L11.4001 11.3L11.3001 11.4L10.7001 11.1L10.4001 11.7L10.3001 11.6L10.6001 11ZM9.7001 3.59997L9.2001 3.19996L9.30008 3.09997L9.80008 3.49996L10.2001 2.99996L10.3001 3.09997L9.90009 3.59997L10.5001 3.99996L10.4001 4.09997L9.80008 3.69996L9.40009 4.29996L9.30008 4.19996L9.7001 3.59997ZM7.50009 11.6L6.90009 11.4L7.00009 11.3L7.6001 11.5L7.80008 10.9L7.90009 11L7.7001 11.6L8.30008 11.9L8.2001 12L7.6001 11.7L7.30008 12.3L7.2001 12.2L7.50009 11.6ZM6.50009 4.29996L6.00009 3.99996L6.1001 3.89995L6.6001 4.29996L7.00009 3.79996L7.1001 3.89995L6.7001 4.39995L7.30008 4.79996L7.2001 4.89995L6.6001 4.49996L6.2001 5.09997L6.1001 4.99996L6.50009 4.29996Z" fill="#AF9A9A"/>
<path d="M5.60031 12.8999C4.20031 13.1999 2.80029 13.3999 1.30029 13.6999V13.2999L5.60031 12.8999Z" fill="#AF9A9A"/>
<path d="M25.1 3.80009L25.7 4.1001L26 3.6001H26.1L25.8 4.20009L26.4 4.50009L26.3 4.6001L25.7 4.30009L25.3 4.90009L25.2 4.80009L25.6 4.20009L25 3.90009L25.1 3.80009Z" fill="#0020DB"/>
<path d="M24.3003 0.899994L25.0003 1.10001L25.1003 0.5H25.3003L25.1003 1.10001L25.8003 1.3L25.7003 1.5L25.1003 1.3L24.9003 1.89999H24.7003L24.9003 1.2L24.3003 1.10001V0.899994Z" fill="#0020DB"/>
<path d="M22.9999 8.10001L23.2999 7.5L23.3999 7.60001L23.1999 8.2L23.7999 8.39999L23.6999 8.60001L23.0999 8.3L22.7999 8.89999H22.6999L22.9999 8.2L22.3999 8V7.89999L22.9999 8.10001Z" fill="#0020DB"/>
<path d="M19.4999 8.59981L19.9999 8.8998L20.2999 8.2998H20.3999L20.1999 8.8998L20.7999 9.1998V9.2998L20.0999 9.09981L19.8999 9.6998L19.6999 9.59981L19.9999 8.9998L19.3999 8.7998L19.4999 8.59981Z" fill="#0020DB"/>
<path d="M16.1 9.19991L16.6 9.49991L16.9 8.8999H17L16.8 9.49991L17.4 9.79991L17.3 9.8999L16.7 9.59991L16.5 10.2999L16.3 10.1999L16.6 9.59991L16 9.3999L16.1 9.19991Z" fill="#0020DB"/>
<path d="M13.1 9.90009L13.6 10.2001L13.9 9.6001H14L13.8 10.2001L14.4 10.5001V10.6001L13.7 10.3001L13.5 11.0001L13.3 10.9001L13.6 10.3001L13 10.0001L13.1 9.90009Z" fill="#0020DB"/>
<path d="M6.99991 11.1999L7.59991 11.4999L7.7999 10.8999H7.8999L7.69992 11.4999L8.2999 11.7999V11.8999L7.59991 11.5999L7.3999 12.2999L7.2999 12.1999L7.49991 11.5999L6.8999 11.2999L6.99991 11.1999Z" fill="#0020DB"/>
<path d="M10.1 10.6002L10.7 10.8002L10.9 10.2002L11 10.3002L10.8 10.9002L11.4 11.1002V11.3002L10.7 11.0002L10.5 11.6002H10.3L10.6 11.0002L10 10.7002L10.1 10.6002Z" fill="#0020DB"/>
<path d="M4.59991 12.8002L3.99991 12.4002L3.69992 12.9002H3.59991L3.8999 12.3002L3.3999 11.9002L3.49991 11.8002L3.99991 12.2002L4.3999 11.7002H4.49991L4.09991 12.3002L4.69992 12.6002L4.59991 12.8002Z" fill="#0020DB"/>
<path d="M25.8003 6.90019L26.4003 7.3002L26.7003 6.7002L26.8003 6.8002L26.5003 7.40019L27.1003 7.7002L27.0003 7.8002L26.4003 7.5002L26.1003 8.1002L25.9003 8.0002L26.3003 7.40019L25.8003 7.1002V6.90019Z" fill="#0020DB"/>
<path d="M0.900085 4.8999H1.00009L0.600098 5.3999V5.19991L0.900085 4.8999Z" fill="#0020DB"/>
<path d="M1.2001 5.89999L1.1001 6L0.700104 5.7L0.600098 5.5L1.2001 5.89999Z" fill="#0020DB"/>
<path d="M4.20001 5.3998L3.60001 4.9998L3.20001 5.4998H3.10001L3.5 4.8998L3 4.4998L3.10001 4.3998L3.60001 4.7998L3.89999 4.2998L4.10001 4.3998L3.70001 4.8998L4.29999 5.2998L4.20001 5.3998Z" fill="#0020DB"/>
<path d="M6.10001 3.8002L6.60001 4.2002L7 3.7002L7.10001 3.8002L6.70001 4.3002L7.29999 4.7002L7.20001 4.8002L6.70001 4.40019L6.29999 5.0002L6.10001 4.90019L6.5 4.3002L6 4.0002L6.10001 3.8002Z" fill="#0020DB"/>
<path d="M9.2001 3.2L9.7001 3.5L10.1001 3L10.2001 3.10001L9.90009 3.60001L10.4001 4L10.3001 4.10001L9.80008 3.7L9.40009 4.3L9.30008 4.2L9.7001 3.60001L9.1001 3.3L9.2001 3.2Z" fill="#0020DB"/>
<path d="M12.2001 2.49991L12.7001 2.8999L13.1001 2.3999H13.2001L12.9001 2.99991L13.4001 3.3999L13.3001 3.49991L12.8001 3.09991L12.4001 3.59991H12.3001L12.7001 2.99991L12.1001 2.59991L12.2001 2.49991Z" fill="#0020DB"/>
<path d="M15.2001 1.8998L15.7001 2.2998L16.1001 1.7998L16.2001 1.8998L15.8001 2.3998L16.4001 2.7998L16.3001 2.8998L15.8001 2.4998L15.4001 3.09981L15.3001 2.9998L15.7001 2.3998L15.1001 1.9998L15.2001 1.8998Z" fill="#0020DB"/>
<path d="M17.9999 1.3998L18.4999 1.7998L18.8999 1.2998L18.9999 1.3998L18.5999 1.8998L19.1999 2.2998L19.0999 2.3998L18.4999 1.9998L18.0999 2.59981L17.9999 2.4998L18.3999 1.8998L17.8999 1.4998L17.9999 1.3998Z" fill="#0020DB"/>
<path d="M21.2001 0.900192L21.7001 1.3002L22.1001 0.700195L22.2001 0.800201L21.8001 1.3002L22.4001 1.7002L22.3001 1.8002L21.8001 1.40019L21.4001 2.0002L21.3001 1.90019L21.6001 1.40019L21.1001 1.0002L21.2001 0.900192Z" fill="#0020DB"/>
</svg>
