<svg width="19" height="10" viewBox="0 0 19 10" fill="none" xmlns="http://www.w3.org/2000/svg">
<path d="M18.4996 2.0001V1.6001C18.3996 1.6001 18.1996 1.6001 18.0996 1.6001L18.4996 2.0001Z" fill="#AE9999"/>
<path d="M0.599609 1.1001V1.4001L0.799606 1.3001L0.599609 1.1001Z" fill="#AE9999"/>
<path d="M15.7994 1.5C15.4994 1.5 15.1994 1.5 14.8994 1.5L15.2994 2L15.7994 1.5Z" fill="#AE9999"/>
<path d="M8.59961 9.1001C8.89961 9.1001 9.1996 9.1001 9.4996 9.1001L9.09961 8.6001L8.59961 9.1001Z" fill="#AE9999"/>
<path d="M17.9996 2.6002L17.8996 2.5002L18.3996 2.1002L17.8996 1.6002C17.1996 1.6002 16.5996 1.5002 15.8996 1.5002L15.3996 2.0002L15.7996 2.5002L15.6996 2.6002L15.2996 2.1002L14.7996 2.5002L14.6996 2.4002L15.1996 2.0002L14.6996 1.5002H14.7996C10.0996 1.2002 5.29961 1.0002 0.599609 0.700195V0.9002L0.899597 1.2002L1.3996 0.700195L1.4996 0.800201L0.999603 1.3002L1.3996 1.8002L1.29961 1.9002L0.899597 1.4002L0.599609 1.7002L0.0996094 8.8002C0.499609 8.8002 0.899606 8.8002 1.29961 8.9002L1.1996 8.8002L1.6996 8.4002L1.1996 7.9002L1.29961 7.8002L1.79961 8.3002L2.29961 7.8002L2.3996 7.9002L1.8996 8.4002L2.29961 8.9002C3.09961 8.9002 3.8996 9.0002 4.6996 9.0002L4.59961 8.9002L5.09961 8.5002L4.59961 8.0002L4.6996 7.9002L5.1996 8.4002L5.6996 7.9002L5.79961 8.0002L5.29961 8.5002L5.6996 9.0002L5.59961 9.1002C6.49961 9.1002 7.4996 9.2002 8.4996 9.2002L8.3996 9.1002L8.8996 8.7002L8.3996 8.2002L8.4996 8.1002L8.9996 8.6002L9.4996 8.1002L9.59961 8.2002L9.09961 8.7002L9.4996 9.2002L9.3996 9.3002C10.1996 9.3002 10.9996 9.4002 11.8996 9.4002L12.3996 9.0002L11.8996 8.5002L11.9996 8.4002L12.4996 8.9002L12.9996 8.4002L13.0996 8.5002L12.5996 9.0002L12.9996 9.5002C14.5996 9.6002 16.2996 9.7002 17.9996 9.8002L18.4996 2.4002L17.9996 2.6002ZM4.8996 1.9002L4.79961 2.0002L4.3996 1.5002L3.8996 1.9002L3.79961 1.8002L4.29961 1.4002L3.79961 0.9002L3.8996 0.800201L4.3996 1.3002L4.8996 0.800201L4.9996 0.9002L4.4996 1.4002L4.8996 1.9002ZM8.8996 2.2002L8.79961 2.3002L8.3996 1.8002L7.8996 2.2002L7.79961 2.1002L8.29961 1.7002L7.79961 1.2002L7.8996 1.1002L8.3996 1.6002L8.8996 1.1002L8.9996 1.2002L8.4996 1.7002L8.8996 2.2002ZM12.5996 2.3002L12.4996 2.4002L12.0996 1.9002L11.5996 2.3002L11.4996 2.2002L11.9996 1.8002L11.4996 1.3002L11.5996 1.2002L12.0996 1.7002L12.5996 1.2002L12.6996 1.3002L12.1996 1.8002L12.5996 2.3002ZM16.1996 9.4002L16.0996 9.5002L15.6996 9.0002L15.1996 9.4002L15.0996 9.3002L15.5996 8.9002L15.0996 8.4002L15.1996 8.3002L15.6996 8.8002L16.1996 8.3002L16.2996 8.4002L15.7996 8.9002L16.1996 9.4002Z" fill="#AE9999"/>
<path d="M1.39941 8.80039C1.69941 8.80039 1.89942 8.80039 2.19942 8.80039L1.79942 8.40039L1.39941 8.80039Z" fill="#AE9999"/>
<path d="M4.7998 9C5.0998 9 5.3998 9 5.6998 9L5.2998 8.5L4.7998 9Z" fill="#AE9999"/>
<path d="M12.0996 9.30039C12.2996 9.30039 12.5996 9.30039 12.7996 9.30039L12.4996 8.90039L12.0996 9.30039Z" fill="#AE9999"/>
<path d="M0.799606 1.3002L0.599609 1.4002V1.6002L0.899597 1.4002L1.29961 1.9002L1.3996 1.8002L0.999603 1.3002L1.4996 0.800201L1.3996 0.700195L0.899597 1.2002L0.6996 0.9002L0.599609 1.1002L0.799606 1.3002Z" fill="#304893"/>
<path d="M4.89941 0.900291L4.39941 1.30029L3.99942 0.800293L3.89941 0.900291L4.29942 1.40029L3.89941 1.90029V2.00029L4.39941 1.50029L4.79942 2.00029L4.89941 1.90029L4.49942 1.40029L4.99942 1.00029L4.89941 0.900291Z" fill="#304893"/>
<path d="M8.7998 1.1001L8.2998 1.6001L7.8998 1.1001L7.7998 1.2001L8.1998 1.7001L7.7998 2.1001L7.8998 2.2001L8.2998 1.8001L8.7998 2.3001L8.8998 2.2001L8.3998 1.7001L8.8998 1.2001L8.7998 1.1001Z" fill="#304893"/>
<path d="M12.5995 1.30029L12.0995 1.80029L11.5995 1.30029L11.4995 1.40029L11.9995 1.90029L11.4995 2.30029L11.5995 2.40029L12.0995 2.00029L12.4995 2.40029L12.5995 2.30029L12.1995 1.90029L12.6995 1.40029L12.5995 1.30029Z" fill="#304893"/>
<path d="M15.2998 2.00039L14.7998 2.40039L14.8998 2.50039L15.3998 2.10039L15.7998 2.60039L15.8998 2.50039L15.4998 2.00039L15.9998 1.50039H15.8998L15.4998 1.90039L15.0998 1.40039H14.9998H14.8998L15.2998 2.00039Z" fill="#304893"/>
<path d="M18.0995 1.5L17.9995 1.6L18.0995 1.5C18.0995 1.6 18.0995 1.6 18.1995 1.6L18.0995 1.5Z" fill="#304893"/>
<path d="M17.8994 2.5001L17.9994 2.6001L18.4994 2.2001V2.0001L18.0994 1.6001C17.9994 1.6001 17.9994 1.6001 17.8994 1.6001L18.3994 2.1001L17.8994 2.5001Z" fill="#304893"/>
<path d="M1.8997 8.3002L2.3997 7.8002L2.29971 7.7002L1.79971 8.2002L1.29971 7.7002L1.19971 7.8002L1.69971 8.3002L1.19971 8.7002L1.29971 8.8002H1.3997L1.79971 8.4002L2.19971 8.8002H2.29971L1.8997 8.3002Z" fill="#304893"/>
<path d="M5.29961 8.40029L5.79961 7.90029L5.6996 7.80029L5.1996 8.30029L4.6996 7.80029L4.59961 7.90029L5.09961 8.40029L4.59961 8.80029L4.6996 8.90029L5.1996 8.50029L5.59961 9.00029L5.6996 8.90029L5.29961 8.40029Z" fill="#304893"/>
<path d="M9.09943 8.6L9.59943 8.1L9.49942 8L8.99942 8.5L8.49942 8L8.39941 8.1L8.89941 8.6L8.39941 9L8.49942 9.1L8.99942 8.7L9.39941 9.2L9.49942 9.1L9.09943 8.6Z" fill="#304893"/>
<path d="M12.5994 8.90029L13.0994 8.40029L12.9994 8.30029L12.4994 8.80029L11.9994 8.30029L11.8994 8.40029L12.3994 8.90029L11.8994 9.30029C11.9994 9.30029 11.9994 9.30029 12.0994 9.30029L12.4994 8.90029L12.7994 9.30029C12.8994 9.30029 12.8994 9.30029 12.9994 9.30029L12.5994 8.90029Z" fill="#304893"/>
<path d="M16.1996 8.40029L15.6996 8.80029L15.1996 8.30029L15.0996 8.40029L15.5996 8.90029L15.0996 9.40029L15.1996 9.50029L15.5996 9.00029L16.0996 9.50029L16.1996 9.40029L15.6996 8.90029L16.2996 8.50029L16.1996 8.40029Z" fill="#304893"/>
</svg>
