<svg width="19" height="10" viewBox="0 0 19 10" fill="none" xmlns="http://www.w3.org/2000/svg">
<path d="M13.1999 1.2998C12.8999 1.2998 12.6999 1.2998 12.3999 1.2998L12.7999 1.6998L13.1999 1.2998Z" fill="#AE9999"/>
<path d="M16.3002 1.5C16.1002 1.5 15.9002 1.5 15.7002 1.5L16.0002 1.8L16.3002 1.5Z" fill="#AE9999"/>
<path d="M0.899994 0.600098C0.799994 0.600098 0.7 0.600098 0.5 0.600098V1.0001L0.899994 0.600098Z" fill="#AE9999"/>
<path d="M16.5 1.5002L16.1 1.9002L16.5 2.4002L16.4 2.5002L16 2.0002L15.5 2.4002L15.4 2.3002L15.9 1.9002L15.5 1.5002C14.8 1.5002 14.1 1.4002 13.4 1.4002L12.9 1.9002L13.3 2.4002L13.2 2.5002L12.8 2.0002L12.3 2.4002L12.2 2.3002L12.7 1.9002L12.2 1.4002C11.5 1.4002 10.8 1.3002 10.2 1.3002L10.3 1.4002L9.8 1.9002L10.2 2.4002L10.1 2.5002L9.7 2.0002L9.2 2.4002L9.10001 2.3002L9.60001 1.9002L9.10001 1.4002L9.2 1.3002L9.7 1.8002L10.2 1.3002C7.2 1.1002 4.20001 1.0002 1.10001 0.800201L0.600006 1.2002L1 1.7002L0.899994 1.8002L0.5 1.3002L0 8.7002C0.1 8.7002 0.199994 8.7002 0.399994 8.7002L0.300003 8.6002L0.800003 8.2002L0.300003 7.7002L0.399994 7.6002L0.899994 8.1002L1.39999 7.6002L1.5 7.7002L1 8.2002L1.39999 8.7002H1.3C2 8.7002 2.7 8.8002 3.3 8.8002L3.8 8.4002L3.3 7.9002L3.39999 7.8002L3.89999 8.3002L4.39999 7.8002L4.5 7.9002L4 8.4002L4.39999 8.9002C5.19999 8.9002 6 9.0002 6.8 9.0002L6.7 8.9002L7.2 8.5002L6.7 8.0002L6.8 7.9002L7.3 8.4002L7.8 7.9002L7.89999 8.0002L7.39999 8.5002L7.8 9.0002L7.7 9.1002C11.1 9.3002 14.5 9.5002 17.9 9.8002L18.5 1.7002C17.8 1.6002 17.2 1.6002 16.5 1.5002ZM4.10001 1.8002L4 1.9002L3.60001 1.4002L3.10001 1.8002L3 1.7002L3.5 1.3002L3 0.800201L3.10001 0.700195L3.60001 1.2002L4.10001 0.700195L4.2 0.800201L3.7 1.3002L4.10001 1.8002ZM7.10001 2.0002L7 2.1002L6.60001 1.6002L6.10001 2.0002H6L6.5 1.6002L6 1.0002L6.10001 0.9002L6.60001 1.4002L7.10001 0.9002L7.2 1.0002L6.7 1.5002L7.10001 2.0002ZM11.2 9.2002L11.1 9.3002L10.7 8.8002L10.2 9.2002L10.1 9.1002L10.6 8.7002L10.1 8.2002L10.2 8.1002L10.7 8.6002L11.2 8.1002L11.3 8.2002L10.8 8.7002L11.2 9.2002ZM14.5 9.3002L14.4 9.40019L14 8.9002L13.5 9.3002L13.4 9.2002L13.9 8.8002L13.4 8.3002L13.5 8.2002L14 8.7002L14.5 8.2002L14.6 8.3002L14.1 8.8002L14.5 9.3002ZM17.8 9.7002L17.4 9.2002L16.9 9.6002L16.8 9.5002L17.3 9.1002L16.8 8.6002L16.9 8.5002L17.4 9.0002L17.9 8.5002L18 8.6002L17.5 9.1002L17.9 9.6002L17.8 9.7002Z" fill="#AE9999"/>
<path d="M0.399902 8.6002C0.699902 8.6002 0.899905 8.6002 1.19991 8.6002L0.799911 8.2002L0.399902 8.6002Z" fill="#AE9999"/>
<path d="M3.5 8.7999C3.8 8.7999 4 8.7999 4.3 8.7999L3.89999 8.3999L3.5 8.7999Z" fill="#AE9999"/>
<path d="M6.8999 9.0001C7.1999 9.0001 7.49991 9.0001 7.69991 9.0001L7.29991 8.6001L6.8999 9.0001Z" fill="#AE9999"/>
<path d="M1.09991 0.599998L0.999908 0.5L0.899902 0.599998C0.999902 0.599998 0.999915 0.599998 1.09991 0.599998Z" fill="#304893"/>
<path d="M0.5 1.2002L0.899994 1.7002L1 1.6002L0.600006 1.1002L1.10001 0.700195C1.00001 0.700195 0.999994 0.700195 0.899994 0.700195L0.5 1.1002V1.2002Z" fill="#304893"/>
<path d="M4.10001 0.799805L3.60001 1.2998L3.10001 0.799805L3 0.899803L3.5 1.3998L3 1.7998L3.10001 1.8998L3.60001 1.4998L4 1.8998L4.10001 1.7998L3.7 1.3998L4.2 0.899803L4.10001 0.799805Z" fill="#304893"/>
<path d="M7.10001 0.999901L6.60001 1.4999L6.10001 0.899902L6 0.999901L6.5 1.4999L6 1.9999L6.10001 2.0999L6.60001 1.5999L7 2.0999L7.10001 1.9999L6.7 1.5999L7.2 1.0999L7.10001 0.999901Z" fill="#304893"/>
<path d="M9.20009 1.1001L9.1001 1.2001L9.6001 1.7001L9.1001 2.1001L9.20009 2.2001L9.70009 1.8001L10.1001 2.3001L10.2001 2.2001L9.80009 1.7001L10.3001 1.2001L10.2001 1.1001L9.70009 1.6001L9.20009 1.1001Z" fill="#304893"/>
<path d="M13.2998 1.2002C13.1998 1.3002 13.2998 1.3002 13.2998 1.2002V1.2002Z" fill="#304893"/>
<path d="M12.7002 1.7998L12.2002 2.1998L12.3002 2.2998L12.8002 1.8998L13.2002 2.3998L13.3002 2.2998L12.9002 1.7998L13.4002 1.2998C13.3002 1.2998 13.3002 1.2998 13.2002 1.2998L12.8002 1.6998L12.4002 1.2998H12.3002L12.7002 1.7998Z" fill="#304893"/>
<path d="M15.4999 1.2998L15.3999 1.3998L15.4999 1.4998C15.5999 1.4998 15.5999 1.4998 15.6999 1.4998L15.4999 1.2998Z" fill="#304893"/>
<path d="M16.5998 1.3998L16.4998 1.2998L16.2998 1.4998C16.3998 1.4998 16.3998 1.4998 16.4998 1.4998L16.5998 1.3998Z" fill="#304893"/>
<path d="M15.3999 2.3L15.4999 2.4L15.9999 2L16.3999 2.5L16.4999 2.4L16.0999 1.9L16.4999 1.5C16.3999 1.5 16.3999 1.5 16.2999 1.5L15.9999 1.8L15.6999 1.5C15.5999 1.5 15.5999 1.5 15.4999 1.5L15.8999 1.9L15.3999 2.3Z" fill="#304893"/>
<path d="M0.999802 8.2001L1.4998 7.7001L1.3998 7.6001L0.899796 8.1001L0.399796 7.6001L0.299805 7.7001L0.799805 8.2001L0.299805 8.6001L0.399796 8.7001H0.499802L0.899796 8.3001L1.2998 8.7001H1.3998H1.4998L0.999802 8.2001Z" fill="#304893"/>
<path d="M3.3999 8.9002C3.4999 8.8002 3.3999 8.8002 3.3999 8.9002V8.9002Z" fill="#304893"/>
<path d="M3.9998 8.3998L4.4998 7.8998L4.3998 7.7998L3.8998 8.2998L3.3998 7.7998L3.2998 7.8998L3.7998 8.3998L3.2998 8.7998H3.3998L3.7998 8.3998L4.1998 8.7998H4.2998L3.9998 8.3998Z" fill="#304893"/>
<path d="M7.40019 8.4999L7.90019 7.9999L7.8002 7.8999L7.3002 8.3999L6.8002 7.8999L6.7002 7.9999L7.2002 8.4999L6.7002 8.8999L6.8002 8.9999C6.8002 8.9999 6.80019 8.9999 6.90019 8.9999L7.3002 8.5999L7.7002 8.9999C7.7002 8.9999 7.7002 8.9999 7.8002 8.9999L7.90019 8.8999L7.40019 8.4999Z" fill="#304893"/>
<path d="M11.2001 8.1001L10.7001 8.6001L10.2001 8.1001L10.1001 8.2001L10.6001 8.7001L10.1001 9.10011L10.2001 9.2001L10.7001 8.8001L11.1001 9.3001L11.2001 9.2001L10.8001 8.7001L11.3001 8.2001L11.2001 8.1001Z" fill="#304893"/>
<path d="M14.4999 8.3002L13.9999 8.7002L13.4999 8.2002L13.3999 8.3002L13.8999 8.8002L13.3999 9.3002L13.4999 9.40019L13.9999 8.9002L14.3999 9.40019L14.4999 9.3002L14.0999 8.9002L14.5999 8.4002L14.4999 8.3002Z" fill="#304893"/>
<path d="M17.8998 8.6V8.5L17.2998 9L16.8998 8.5L16.7998 8.6L17.1998 9.10001L16.7998 9.5L16.8998 9.60001L17.2998 9.2L17.7998 9.7L17.8998 9.60001L17.3998 9.10001L17.8998 8.6Z" fill="#304893"/>
</svg>
