<svg width="20" height="11" viewBox="0 0 20 11" fill="none" xmlns="http://www.w3.org/2000/svg">
<path d="M17.7998 1.6001C17.5998 1.6001 17.4998 1.6001 17.2998 1.6001L17.4998 1.8001L17.7998 1.6001Z" fill="#AE9999"/>
<path d="M7.99991 1.1001C7.79991 1.1001 7.5999 1.1001 7.3999 1.1001L7.69991 1.4001L7.99991 1.1001Z" fill="#AE9999"/>
<path d="M14.6998 1.5C14.5998 1.5 14.3998 1.5 14.2998 1.5L14.4998 1.7L14.6998 1.5Z" fill="#AE9999"/>
<path d="M11.3999 1.2998C11.1999 1.2998 11.0999 1.2998 10.8999 1.2998L11.0999 1.4998L11.3999 1.2998Z" fill="#AE9999"/>
<path d="M4.79991 0.899902C4.69991 0.899902 4.4999 0.899902 4.3999 0.899902L4.59991 1.0999L4.79991 0.899902Z" fill="#AE9999"/>
<path d="M1.3999 0.699707C1.1999 0.699707 0.999902 0.699707 0.899902 0.699707L1.19991 0.99971L1.3999 0.699707Z" fill="#AE9999"/>
<path d="M18 1.69971L17.7 1.99971L18.1 2.49971L18 2.59971L17.6 2.09971L17.1 2.49971L17 2.39971L17.5 1.99971L17.2 1.69971C16.5 1.69971 15.7 1.59971 15 1.59971L14.7 1.89971L15.1 2.39971L15 2.49971L14.6 1.99971L14.1 2.39971L14 2.29971L14.5 1.89971L14.2 1.59971C13.4 1.49971 12.5 1.49971 11.7 1.39971L11.4 1.69971L11.8 2.19971L11.7 2.29971L11.3 1.79971L10.8 2.19971L10.7 2.09971L11.2 1.69971L10.9 1.29971C9.99999 1.19971 9.2 1.19971 8.3 1.09971L7.89999 1.49971L8.3 1.99971L8.2 2.09971L7.8 1.59971L7.3 1.99971L7.2 1.89971L7.7 1.49971L7.3 1.09971C6.6 1.09971 5.80001 0.99971 5.10001 0.99971L4.8 1.29971L5.2 1.79971L5.10001 1.89971L4.7 1.39971L4.2 1.79971L4.10001 1.69971L4.60001 1.29971L4.3 0.99971C3.4 0.89971 2.6 0.899713 1.7 0.799713L1.3 1.09971L1.7 1.59971L1.60001 1.69971L1.2 1.19971L0.699997 1.59971L0.600006 1.49971L1.10001 1.09971L0.699997 0.699707H0.600006L0 8.79971C6.2 9.19971 12.6 9.69971 19 10.1997L19.6 1.79971C19.1 1.69971 18.5 1.69971 18 1.69971ZM3.39999 8.79971L3.3 8.8997L2.89999 8.3997L2.39999 8.79971L2.3 8.69971L2.8 8.29971L2.3 7.79971L2.39999 7.69971L2.89999 8.19971L3.39999 7.69971L3.5 7.79971L3 8.29971L3.39999 8.79971ZM6.8 9.09972L6.7 9.19971L6.3 8.69971L5.8 9.09972L5.7 8.99971L6.2 8.59972L5.7 8.09972L5.8 7.99971L6.3 8.49971L6.8 7.99971L6.89999 8.09972L6.39999 8.59972L6.8 9.09972ZM10.4 9.29971L10.3 9.3997L9.89999 8.8997L9.39999 9.29971L9.3 9.19971L9.8 8.79971L9.3 8.29971L9.39999 8.19971L9.89999 8.69971L10.4 8.19971L10.5 8.29971L10 8.79971L10.4 9.29971ZM13.5 9.49971L13.4 9.59972L13 9.09972L12.5 9.49971L12.4 9.3997L12.9 8.99971L12.4 8.49971L12.5 8.3997L13 8.8997L13.5 8.3997L13.6 8.49971L13.1 8.99971L13.5 9.49971ZM16.6 9.79971L16.5 9.8997L16.1 9.3997L15.6 9.79971L15.5 9.69971L16 9.29971L15.5 8.79971L15.6 8.69971L16.1 9.19971L16.6 8.69971L16.7 8.79971L16.2 9.29971L16.6 9.79971Z" fill="#AE9999"/>
<path d="M1.69991 0.599998L1.59991 0.5L1.3999 0.699997C1.4999 0.699997 1.49991 0.699997 1.59991 0.699997L1.69991 0.599998Z" fill="#304893"/>
<path d="M0.700089 0.399902L0.600098 0.499901L0.700089 0.599899C0.800089 0.599899 0.800085 0.599899 0.900085 0.599899L0.700089 0.399902Z" fill="#304893"/>
<path d="M0.600098 1.4998L0.700089 1.5998L1.20009 1.1998L1.6001 1.6998L1.70009 1.5998L1.30009 1.0998L1.70009 0.799805C1.60009 0.799805 1.60009 0.799805 1.50009 0.799805L1.20009 1.0998L0.900085 0.799805C0.800085 0.799805 0.800089 0.799805 0.700089 0.799805L1.1001 1.1998L0.600098 1.4998Z" fill="#304893"/>
<path d="M4.10001 0.600098L4 0.700096L4.2 0.900101C4.3 0.900101 4.29999 0.900101 4.39999 0.900101L4.10001 0.600098Z" fill="#304893"/>
<path d="M5.1998 0.700096L5.09981 0.600098L4.7998 0.900101C4.8998 0.900101 4.8998 0.900101 4.9998 0.900101L5.1998 0.700096Z" fill="#304893"/>
<path d="M4 1.5999L4.10001 1.6999L4.60001 1.2999L5 1.7999L5.10001 1.6999L4.7 1.1999L5 0.899902C4.9 0.899902 4.9 0.899902 4.8 0.899902L4.60001 1.0999L4.39999 0.899902C4.29999 0.899902 4.3 0.899902 4.2 0.899902L4.5 1.1999L4 1.5999Z" fill="#304893"/>
<path d="M8.3 0.999901L8.2 0.899902L8 1.0999C8 1.0999 8.1 1.0999 8.3 0.999901Z" fill="#304893"/>
<path d="M7.20009 0.799805L7.1001 0.899803L7.20009 0.999802C7.30009 0.999802 7.30009 0.999802 7.40009 0.999802L7.20009 0.799805Z" fill="#304893"/>
<path d="M7.1001 1.9001L7.20009 2.0001L7.70009 1.6001L8.1001 2.1001L8.20009 2.0001L7.80009 1.5001L8.20009 1.1001C8.10009 1.1001 8.10009 1.1001 8.00009 1.1001L7.70009 1.4001L7.40009 1.1001C7.30009 1.1001 7.30009 1.1001 7.20009 1.1001L7.6001 1.5001L7.1001 1.9001Z" fill="#304893"/>
<path d="M10.7001 1L10.6001 1.1L10.7001 1.3C10.8001 1.3 10.8001 1.3 10.9001 1.3L10.7001 1Z" fill="#304893"/>
<path d="M11.7999 1.1L11.6999 1L11.3999 1.2C11.4999 1.2 11.4999 1.2 11.5999 1.2L11.7999 1.1Z" fill="#304893"/>
<path d="M10.6001 1.9998L10.7001 2.0998L11.2001 1.6998L11.6001 2.1998L11.7001 2.0998L11.3001 1.5998L11.6001 1.2998C11.5001 1.2998 11.5001 1.2998 11.4001 1.2998L11.2001 1.4998L11.0001 1.2998C10.9001 1.2998 10.9001 1.2998 10.8001 1.2998L11.1001 1.6998L10.6001 1.9998Z" fill="#304893"/>
<path d="M14.1 1.1001L14 1.2001L14.2 1.4001C14.3 1.4001 14.3 1.4001 14.4 1.4001L14.1 1.1001Z" fill="#304893"/>
<path d="M15.1002 1.29971L15.0002 1.19971L14.7002 1.49971C14.8002 1.49971 14.8002 1.49971 14.9002 1.49971L15.1002 1.29971Z" fill="#304893"/>
<path d="M13.8999 2.2L13.9999 2.3L14.4999 1.9L14.8999 2.4L14.9999 2.3L14.5999 1.8L14.8999 1.5C14.7999 1.5 14.7999 1.5 14.6999 1.5L14.4999 1.7L14.2999 1.5C14.1999 1.5 14.1999 1.5 14.0999 1.5L14.3999 1.8L13.8999 2.2Z" fill="#304893"/>
<path d="M17.1 1.3999L17 1.4999L17.1 1.6999C17.2 1.6999 17.2 1.6999 17.3 1.6999L17.1 1.3999Z" fill="#304893"/>
<path d="M18.1002 1.4999L18.0002 1.3999L17.7002 1.5999C17.8002 1.5999 17.8002 1.5999 17.9002 1.5999L18.1002 1.4999Z" fill="#304893"/>
<path d="M17 2.39971L17.1 2.49971L17.6 2.09971L18 2.59971L18.1 2.49971L17.7 1.99971L18 1.69971C17.9 1.69971 17.9 1.69971 17.8 1.69971L17.6 1.89971L17.4 1.69971C17.3 1.69971 17.3 1.69971 17.2 1.69971L17.5 1.99971L17 2.39971Z" fill="#304893"/>
<path d="M3.3998 7.79971L2.8998 8.19971L2.3998 7.69971L2.2998 7.79971L2.7998 8.29971L2.2998 8.69971L2.3998 8.79971L2.8998 8.3997L3.2998 8.8997L3.3998 8.79971L2.9998 8.29971L3.4998 7.89971L3.3998 7.79971Z" fill="#304893"/>
<path d="M6.8002 8L6.3002 8.5L5.8002 8L5.7002 8.10001L6.2002 8.60001L5.7002 9L5.8002 9.10001L6.3002 8.7L6.7002 9.2L6.8002 9.10001L6.40019 8.60001L6.90019 8.10001L6.8002 8Z" fill="#304893"/>
<path d="M10.3998 8.19971L9.8998 8.69971L9.3998 8.19971L9.2998 8.29971L9.7998 8.79971L9.2998 9.19971L9.3998 9.29971L9.8998 8.8997L10.2998 9.3997L10.3998 9.29971L9.9998 8.79971L10.4998 8.29971L10.3998 8.19971Z" fill="#304893"/>
<path d="M13.4999 8.49991L12.9999 8.99991L12.4999 8.3999L12.3999 8.49991L12.8999 8.99991L12.3999 9.49991L12.4999 9.59991L12.9999 9.09991L13.3999 9.59991L13.4999 9.49991L13.0999 9.09991L13.5999 8.59991L13.4999 8.49991Z" fill="#304893"/>
<path d="M16.6 8.79971L16.1 9.19971L15.6 8.69971L15.5 8.79971L16 9.29971L15.5 9.69971L15.6 9.79971L16.1 9.3997L16.5 9.8997L16.6 9.79971L16.2 9.29971L16.7 8.8997L16.6 8.79971Z" fill="#304893"/>
</svg>
