<svg width="20" height="11" viewBox="0 0 20 11" fill="none" xmlns="http://www.w3.org/2000/svg">
<path d="M14.5999 1.6001C14.3999 1.6001 14.1999 1.6001 13.8999 1.6001L14.1999 2.0001L14.5999 1.6001Z" fill="#AE9999"/>
<path d="M17.4998 1.7998C17.2998 1.7998 16.9998 1.7998 16.7998 1.7998L17.0998 2.1998L17.4998 1.7998Z" fill="#AE9999"/>
<path d="M11.3002 1.3999C11.1002 1.3999 10.9002 1.3999 10.7002 1.3999L11.0002 1.6999L11.3002 1.3999Z" fill="#AE9999"/>
<path d="M8.20009 1.2002C8.00009 1.2002 7.8001 1.2002 7.6001 1.2002L7.90009 1.5002L8.20009 1.2002Z" fill="#AE9999"/>
<path d="M1.7002 0.799805C1.5002 0.799805 1.4002 0.799805 1.2002 0.799805L1.40019 1.0998L1.7002 0.799805Z" fill="#AE9999"/>
<path d="M17.7 1.7998L17.2 2.1998L17.6 2.6998L17.5 2.7998L17.1 2.2998L16.6 2.6998L16.5 2.5998L17 2.1998L16.6 1.6998C16 1.6998 15.4 1.5998 14.8 1.5998L14.4 1.9998L14.8 2.4998L14.7 2.5998L14.3 2.0998L13.8 2.4998L13.7 2.3998L14.2 1.9998L13.8 1.4998C13.1 1.4998 12.3 1.3998 11.5 1.3998L11.1 1.7998L11.5 2.2998L11.4 2.3998L11 1.8998L10.5 2.2998L10.4 2.1998L10.9 1.7998L10.5 1.3998C9.8 1.3998 9.09999 1.2998 8.39999 1.2998L8 1.6998L8.39999 2.1998L8.3 2.2998L7.89999 1.7998L7.39999 2.1998L7.3 2.0998L7.8 1.6998L7.39999 1.2998C6.59999 1.2998 5.8 1.1998 5 1.1998L4.60001 1.5998L5 2.0998L4.89999 2.1998L4.5 1.6998L4 2.0998L3.89999 1.9998L4.39999 1.5998L4 0.999802C3.3 0.999802 2.59999 0.899803 1.89999 0.899803L1.5 1.1998L1.89999 1.6998L1.8 1.7998L1.39999 1.2998L0.899994 1.6998L0.800003 1.5998L1.3 1.1998L1 0.799805C0.9 0.799805 0.800006 0.799805 0.600006 0.799805L0 9.1998C3.7 9.4998 7.4 9.7998 11.2 10.1998L11.1 10.0998L11.6 9.6998L11.1 9.1998L11.2 9.09981L11.7 9.59981L12.2 9.09981L12.3 9.1998L11.8 9.6998L12.2 10.1998L12.1 10.2998L11.7 9.7998L11.2 10.1998C13.8 10.3998 16.4 10.6998 19 10.9998L19.6 1.9998C19 1.8998 18.3 1.7998 17.7 1.7998ZM1.3 8.9998L1.2 9.09981L0.800003 8.59981L0.300003 8.9998L0.199997 8.8998L0.699997 8.4998L0.199997 7.9998L0.300003 7.8998L0.800003 8.3998L1.3 7.8998L1.39999 7.9998L0.899994 8.4998L1.3 8.9998ZM5.10001 9.3998L5 9.4998L4.60001 8.9998L4.10001 9.3998L4 9.2998L4.5 8.8998L4 8.3998L4.10001 8.2998L4.60001 8.7998L5.10001 8.2998L5.2 8.3998L4.7 8.8998L5.10001 9.3998ZM8.89999 9.6998L8.8 9.7998L8.39999 9.2998L7.89999 9.6998L7.8 9.59981L8.3 9.1998L7.8 8.6998L7.89999 8.59981L8.39999 9.09981L8.89999 8.59981L9 8.6998L8.5 9.1998L8.89999 9.6998ZM15.5 10.3998L15.4 10.4998L15 9.9998L14.5 10.3998L14.4 10.2998L14.9 9.8998L14.4 9.3998L14.5 9.2998L15 9.7998L15.5 9.2998L15.6 9.3998L15.1 9.8998L15.5 10.3998ZM18.6 10.7998L18.2 10.2998L17.7 10.6998L17.6 10.5998L18.1 10.1998L17.6 9.6998L17.7 9.59981L18.2 10.0998L18.7 9.59981L18.8 9.6998L18.3 10.1998L18.7 10.6998L18.6 10.7998Z" fill="#AE9999"/>
<path d="M4.8002 1C4.6002 1 4.4002 1 4.2002 1L4.5002 1.3L4.8002 1Z" fill="#AE9999"/>
<path d="M0.899796 0.5L0.799805 0.599998L0.899796 0.699997C0.999796 0.699997 0.999808 0.699997 1.09981 0.699997L0.899796 0.5Z" fill="#304893"/>
<path d="M2.00009 0.700096L1.90009 0.600098L1.6001 0.800102C1.7001 0.800102 1.70009 0.800102 1.80009 0.800102L2.00009 0.700096Z" fill="#304893"/>
<path d="M0.799805 1.5998L0.899796 1.6998L1.3998 1.2998L1.7998 1.7998L1.8998 1.6998L1.4998 1.1998L1.8998 0.899803C1.7998 0.899803 1.7998 0.899803 1.6998 0.899803L1.3998 1.0998L1.1998 0.799805C1.0998 0.799805 1.0998 0.799805 0.999802 0.799805L1.2998 1.1998L0.799805 1.5998Z" fill="#304893"/>
<path d="M3.99991 0.799805L3.8999 0.899803L3.99991 0.999802C4.09991 0.999802 4.09991 0.999802 4.19991 0.999802L3.99991 0.799805Z" fill="#304893"/>
<path d="M5.09981 0.899803L4.9998 0.799805L4.7998 0.999802C4.8998 0.999802 4.8998 0.999802 4.9998 0.999802L5.09981 0.899803Z" fill="#304893"/>
<path d="M3.8999 1.8L3.99991 1.9L4.49991 1.5L4.8999 2L4.99991 1.9L4.59991 1.4L4.99991 1C4.89991 1 4.89991 1 4.79991 1L4.49991 1.3L4.19991 1C4.09991 1 4.09991 1 3.99991 1L4.3999 1.4L3.8999 1.8Z" fill="#304893"/>
<path d="M7.3998 1L7.2998 1.1L7.3998 1.2C7.4998 1.2 7.49981 1.2 7.59981 1.2L7.3998 1Z" fill="#304893"/>
<path d="M8.5002 1.1L8.40019 1L8.2002 1.2C8.3002 1.2 8.30019 1.2 8.40019 1.2L8.5002 1.1Z" fill="#304893"/>
<path d="M7.2998 2.0002L7.3998 2.1002L7.8998 1.7002L8.2998 2.2002L8.3998 2.1002L7.9998 1.6002L8.3998 1.2002C8.2998 1.2002 8.2998 1.2002 8.1998 1.2002L7.8998 1.5002L7.59981 1.2002C7.49981 1.2002 7.4998 1.2002 7.3998 1.2002L7.7998 1.6002L7.2998 2.0002Z" fill="#304893"/>
<path d="M10.4999 1.2002L10.3999 1.3002L10.4999 1.4002C10.5999 1.4002 10.5999 1.4002 10.6999 1.4002L10.4999 1.2002Z" fill="#304893"/>
<path d="M11.5998 1.3002L11.4998 1.2002L11.2998 1.4002C11.3998 1.4002 11.3998 1.4002 11.4998 1.4002L11.5998 1.3002Z" fill="#304893"/>
<path d="M10.3999 2.1999L10.4999 2.2999L10.9999 1.8999L11.3999 2.3999L11.4999 2.2999L11.0999 1.7999L11.4999 1.3999C11.3999 1.3999 11.3999 1.3999 11.2999 1.3999L10.9999 1.6999L10.6999 1.3999C10.5999 1.3999 10.5999 1.3999 10.4999 1.3999L10.8999 1.7999L10.3999 2.1999Z" fill="#304893"/>
<path d="M13.8002 1.3999L13.7002 1.4999V1.5999C13.8002 1.5999 13.8002 1.5999 13.9002 1.5999L13.8002 1.3999Z" fill="#304893"/>
<path d="M14.9001 1.6L14.8001 1.5L14.6001 1.7C14.7001 1.6 14.7001 1.6 14.9001 1.6Z" fill="#304893"/>
<path d="M13.7002 2.4L13.8002 2.5L14.3002 2.1L14.7002 2.6L14.8002 2.5L14.4002 2L14.8002 1.6C14.7002 1.6 14.7002 1.6 14.6002 1.6L14.3002 1.9L14.0002 1.5C13.9002 1.5 13.9002 1.5 13.8002 1.5L14.2002 2L13.7002 2.4Z" fill="#304893"/>
<path d="M16.7001 1.6001L16.6001 1.7001C16.7001 1.7001 16.7001 1.7001 16.8001 1.7001L16.7001 1.6001Z" fill="#304893"/>
<path d="M17.6999 1.7001L17.5999 1.6001L17.3999 1.7001C17.5999 1.8001 17.5999 1.8001 17.6999 1.7001Z" fill="#304893"/>
<path d="M16.6001 2.6002L16.7001 2.7002L17.2001 2.3002L17.6001 2.8002L17.7001 2.7002L17.3001 2.2002L17.8001 1.8002C17.7001 1.8002 17.7001 1.8002 17.6001 1.8002L17.2001 2.1002L16.9001 1.7002C16.8001 1.7002 16.8001 1.7002 16.7001 1.7002L17.1001 2.2002L16.6001 2.6002Z" fill="#304893"/>
<path d="M1.3002 7.99991L0.800201 8.49991L0.300201 7.8999L0.200195 7.99991L0.700195 8.49991L0.200195 8.99991L0.300201 9.09991L0.700195 8.59991L1.2002 9.09991L1.3002 8.99991L0.800201 8.59991L1.40019 8.09991L1.3002 7.99991Z" fill="#304893"/>
<path d="M5.1001 8.3998L4.6001 8.8998L4.20009 8.2998L4.1001 8.3998L4.50009 8.8998L4.1001 9.3998V9.4998L4.6001 8.9998L5.00009 9.4998L5.1001 9.3998L4.70009 8.9998L5.20009 8.4998L5.1001 8.3998Z" fill="#304893"/>
<path d="M8.8998 8.70009L8.3998 9.1001L7.8998 8.6001L7.7998 8.70009L8.2998 9.20009L7.7998 9.70009L7.8998 9.80009L8.3998 9.30009L8.7998 9.80009L8.8998 9.70009L8.4998 9.20009L8.9998 8.80009L8.8998 8.70009Z" fill="#304893"/>
<path d="M12.1001 10.2L12.2001 10.1L11.8001 9.60001L12.3001 9.2L12.2001 9.10001L11.7001 9.5L11.2001 9L11.1001 9.10001L11.6001 9.60001L11.1001 10L11.2001 10.1L11.7001 9.7L12.1001 10.2Z" fill="#304893"/>
<path d="M15.4999 9.3998L14.9999 9.7998L14.5999 9.2998L14.4999 9.3998L14.8999 9.8998L14.3999 10.3998L14.4999 10.4998L14.9999 9.9998L15.3999 10.4998L15.4999 10.3998L15.0999 9.8998L15.5999 9.4998L15.4999 9.3998Z" fill="#304893"/>
<path d="M18.8001 9.80009L18.7001 9.70009L18.2001 10.1001L17.7001 9.6001L17.6001 9.70009L18.1001 10.2001L17.6001 10.7001L17.7001 10.8001L18.2001 10.3001L18.6001 10.8001L18.7001 10.7001L18.3001 10.2001L18.8001 9.80009Z" fill="#304893"/>
</svg>
