<svg width="27" height="13" viewBox="0 0 27 13" fill="none" xmlns="http://www.w3.org/2000/svg">
<path d="M5.79991 1.2001C5.49991 1.2001 5.1999 1.2001 4.8999 1.1001L5.29991 1.6001L5.79991 1.2001Z" fill="#AE9999"/>
<path d="M2.69991 1C2.39991 1 2.1999 1 1.8999 1L2.29991 1.4L2.69991 1Z" fill="#AE9999"/>
<path d="M25.8999 12.7001C25.9999 12.7001 26.1999 12.7001 26.2999 12.8001H26.3999C26.3999 12.8001 26.3999 12.8001 26.3999 12.7001V12.6001V11.8001V11.7001V11.6001L26.2999 2.6001C26.2999 2.6001 25.9999 2.6001 25.8999 2.6001C23.7999 2.5001 16.4999 2.0001 5.8999 1.3001L5.3999 1.8001L5.79991 2.3001L5.69991 2.4001L5.29991 1.9001L4.79991 2.3001L4.69991 2.2001L5.19991 1.8001L4.69991 1.3001L4.79991 1.2001C4.09991 1.2001 3.49991 1.1001 2.79991 1.1001L2.29991 1.6001L2.69991 2.1001L2.59991 2.2001L2.19991 1.7001L1.69991 2.1001L1.59991 2.0001L2.09991 1.6001L1.59991 1.1001H1.49991L0.899902 10.1001C2.5999 10.3001 4.39991 10.5001 6.09991 10.6001L5.99991 10.5001L6.49991 10.1001L5.99991 9.60011L6.09991 9.5001L6.59991 10.0001L7.09991 9.5001L7.19991 9.60011L6.69991 10.1001L7.09991 10.6001L6.99991 10.7001L6.59991 10.2001L6.09991 10.6001C12.4999 11.3001 18.8999 12.0001 25.2999 12.8001L25.8999 12.7001ZM3.99991 10.0001L3.8999 10.1001L3.49991 9.60011L2.99991 10.0001L2.8999 9.90009L3.3999 9.5001L2.8999 9.0001L2.99991 8.90009L3.49991 9.40009L3.99991 8.90009L4.09991 9.0001L3.59991 9.5001L3.99991 10.0001ZM8.09991 2.5001L7.99991 2.4001L8.49991 2.0001L7.99991 1.5001L8.09991 1.4001L8.59991 1.9001L9.09991 1.4001L9.19991 1.5001L8.69991 2.0001L9.09991 2.5001L8.99991 2.6001L8.59991 2.1001L8.09991 2.5001ZM9.8999 10.6001L9.79991 10.7001L9.3999 10.2001L8.8999 10.6001L8.79991 10.5001L9.29991 10.1001L8.79991 9.60011L8.8999 9.5001L9.3999 10.0001L9.8999 9.5001L9.99991 9.60011L9.49991 10.1001L9.8999 10.6001ZM11.7999 2.6001L11.6999 2.7001L11.2999 2.2001L10.7999 2.6001L10.6999 2.5001L11.1999 2.1001L10.6999 1.6001L10.7999 1.5001L11.2999 2.0001L11.7999 1.5001L11.8999 1.6001L11.3999 2.1001L11.7999 2.6001ZM13.1999 10.9001L13.0999 11.0001L12.6999 10.5001L12.1999 10.9001L12.0999 10.8001L12.5999 10.4001L12.0999 9.90009L12.1999 9.8001L12.6999 10.3001L13.1999 9.8001L13.2999 9.90009L12.7999 10.4001L13.1999 10.9001ZM14.6999 2.8001L14.5999 2.9001L14.1999 2.4001L13.6999 2.8001L13.5999 2.7001L14.0999 2.3001L13.5999 1.8001L13.6999 1.7001L14.1999 2.2001L14.6999 1.7001L14.7999 1.8001L14.2999 2.3001L14.6999 2.8001ZM16.3999 11.2001L16.2999 11.3001L15.8999 10.8001L15.3999 11.2001L15.2999 11.1001L15.7999 10.7001L15.2999 10.2001L15.3999 10.1001L15.8999 10.6001L16.3999 10.1001L16.4999 10.2001L15.9999 10.7001L16.3999 11.2001ZM17.2999 3.1001L17.1999 3.2001L16.7999 2.7001L16.2999 3.1001L16.1999 3.0001L16.6999 2.6001L16.1999 2.1001L16.2999 2.0001L16.7999 2.5001L17.2999 2.0001L17.3999 2.1001L16.8999 2.6001L17.2999 3.1001ZM19.6999 11.7001L19.5999 11.8001L19.1999 11.3001L18.6999 11.7001L18.5999 11.6001L19.0999 11.2001L18.5999 10.7001L18.6999 10.6001L19.1999 11.1001L19.6999 10.6001L19.7999 10.7001L19.2999 11.2001L19.6999 11.7001ZM19.9999 3.2001L19.8999 3.3001L19.4999 2.8001L18.9999 3.2001L18.8999 3.1001L19.3999 2.7001L18.8999 2.2001L18.9999 2.1001L19.4999 2.6001L19.9999 2.1001L20.0999 2.2001L19.5999 2.7001L19.9999 3.2001ZM22.6999 12.0001L22.5999 12.1001L22.1999 11.6001L21.6999 12.0001L21.5999 11.9001L22.0999 11.5001L21.5999 11.0001L21.6999 10.9001L22.1999 11.4001L22.6999 10.9001L22.7999 11.0001L22.2999 11.5001L22.6999 12.0001ZM22.7999 3.4001L22.6999 3.5001L22.2999 3.0001L21.7999 3.4001L21.6999 3.3001L22.1999 2.9001L21.6999 2.4001L21.7999 2.3001L22.2999 2.8001L22.7999 2.3001L22.8999 2.4001L22.3999 2.9001L22.7999 3.4001ZM25.5999 12.5001L25.4999 12.6001L25.0999 12.1001L24.5999 12.5001L24.4999 12.4001L24.9999 12.0001L24.4999 11.5001L24.5999 11.4001L25.0999 11.9001L25.5999 11.4001L25.6999 11.5001L25.1999 12.0001L25.5999 12.5001ZM25.1999 3.2001L25.5999 3.7001L25.4999 3.8001L25.0999 3.3001L24.5999 3.7001L24.4999 3.6001L24.9999 3.2001L24.4999 2.7001L24.5999 2.6001L25.0999 3.1001L25.5999 2.6001L25.6999 2.7001L25.1999 3.2001Z" fill="#AE9999"/>
<path d="M2.7998 0.899902C2.7998 0.999902 2.7998 0.999901 2.8998 0.999901L2.7998 0.899902Z" fill="#304893"/>
<path d="M2.19971 1.5L1.69971 1.9L1.79971 2L2.29971 1.6L2.69971 2.1L2.79971 2L2.3997 1.5L2.8997 1C2.7997 1 2.79971 1 2.69971 1L2.29971 1.4L1.8997 1C1.7997 1 1.79971 1 1.69971 1L2.19971 1.5Z" fill="#304893"/>
<path d="M5.2998 1.7001L4.7998 2.1001L4.8998 2.2001L5.3998 1.8001L5.7998 2.3001L5.8998 2.2001L5.4998 1.7001L5.9998 1.2001H5.8998L5.3998 1.6001L4.9998 1.1001C4.9998 1.1001 4.9998 1.1001 4.8998 1.1001L4.7998 1.2001L5.2998 1.7001Z" fill="#304893"/>
<path d="M9.10001 2.3998L8.60001 1.8998L9.10001 1.4998L9 1.3998L8.5 1.7998L8.10001 1.2998L8 1.3998L8.39999 1.8998L8 2.3998L8.10001 2.4998L8.5 1.9998L9 2.4998L9.10001 2.3998Z" fill="#304893"/>
<path d="M11.7998 1.6L11.2998 2L10.8998 1.5L10.7998 1.6L11.1998 2.1L10.7998 2.5V2.6L11.2998 2.2L11.6998 2.7L11.7998 2.6L11.3998 2.1L11.8998 1.7L11.7998 1.6Z" fill="#304893"/>
<path d="M14.7001 1.69971L14.2001 2.19971L13.7001 1.69971L13.6001 1.79971L14.1001 2.29971L13.6001 2.69971L13.7001 2.79971L14.2001 2.39971L14.6001 2.89971L14.7001 2.79971L14.3001 2.29971L14.8001 1.79971L14.7001 1.69971Z" fill="#304893"/>
<path d="M17.2998 2.1L16.7998 2.5L16.3998 2L16.2998 2.1L16.6998 2.6L16.2998 3.1V3.2L16.7998 2.7L17.1998 3.2L17.2998 3.1L16.8998 2.6L17.3998 2.2L17.2998 2.1Z" fill="#304893"/>
<path d="M19.8999 2.19971L19.3999 2.69971L18.9999 2.19971L18.8999 2.29971L19.2999 2.79971L18.8999 3.19971L18.9999 3.29971L19.3999 2.89971L19.8999 3.29971L19.9999 3.19971L19.4999 2.79971L19.9999 2.29971L19.8999 2.19971Z" fill="#304893"/>
<path d="M22.7997 2.3998L22.2997 2.8998L21.7997 2.2998L21.6997 2.3998L22.1997 2.8998L21.6997 3.3998L21.7997 3.4998L22.2997 2.9998L22.6997 3.4998L22.7997 3.3998L22.3997 2.9998L22.8997 2.4998L22.7997 2.3998Z" fill="#304893"/>
<path d="M25.1001 3.1001L24.7001 2.6001L24.6001 2.7001L25.0001 3.2001L24.6001 3.6001L24.7001 3.7001L25.1001 3.3001L25.6001 3.7001H25.7001L25.2001 3.2001L25.7001 2.7001L25.6001 2.6001L25.1001 3.1001Z" fill="#304893"/>
<path d="M3.99991 8.99991L3.3999 9.3999L2.99991 8.8999L2.8999 8.99991L3.29991 9.49991L2.8999 9.8999L2.99991 9.99991L3.3999 9.59991L3.8999 10.0999L3.99991 9.99991L3.49991 9.49991L3.99991 9.09991V8.99991Z" fill="#304893"/>
<path d="M7.1001 10.4998L7.20009 10.3998L6.80009 9.8998L7.30009 9.3998L7.20009 9.2998L6.70009 9.7998L6.20009 9.2998L6.1001 9.3998L6.6001 9.8998L6.1001 10.2998L6.20009 10.3998L6.70009 9.9998L7.1001 10.4998Z" fill="#304893"/>
<path d="M9.8998 9.5L9.2998 10L8.8998 9.5L8.7998 9.60001L9.1998 10.1L8.7998 10.5L8.8998 10.6L9.2998 10.2L9.7998 10.7L9.8998 10.6L9.3998 10.1L9.8998 9.60001V9.5Z" fill="#304893"/>
<path d="M13.2001 9.8998L12.6001 10.3998L12.2001 9.7998L12.1001 9.8998L12.5001 10.4998L12.1001 10.8998L12.2001 10.9998L12.6001 10.5998L13.1001 10.9998L13.2001 10.8998L12.7001 10.4998L13.3001 9.9998L13.2001 9.8998Z" fill="#304893"/>
<path d="M16.3998 10.2001L15.8998 10.7001L15.3998 10.1001L15.2998 10.2001L15.7998 10.8001L15.2998 11.2001L15.3998 11.3001L15.7998 10.9001L16.2998 11.3001L16.3998 11.2001L15.9998 10.8001L16.4998 10.3001L16.3998 10.2001Z" fill="#304893"/>
<path d="M19.7001 10.7001L19.2001 11.1001L18.7001 10.6001L18.6001 10.7001L19.1001 11.2001L18.6001 11.6001L18.7001 11.7001L19.2001 11.3001L19.6001 11.8001L19.7001 11.7001L19.3001 11.2001L19.8001 10.8001L19.7001 10.7001Z" fill="#304893"/>
<path d="M22.7001 10.8999L22.2001 11.3999L21.7001 10.8999L21.6001 10.9999L22.1001 11.4999L21.6001 11.8999L21.7001 11.9999L22.2001 11.5999L22.6001 11.9999H22.7001L22.3001 11.4999L22.8001 10.9999L22.7001 10.8999Z" fill="#304893"/>
<path d="M25.6 11.4999L25.1 11.8999L24.6 11.3999L24.5 11.4999L25 11.9999L24.5 12.3999L24.6 12.4999L25.1 12.0999L25.5 12.5999L25.6 12.4999L25.2 11.9999L25.7 11.5999L25.6 11.4999Z" fill="#304893"/>
</svg>
