<svg width="26" height="13" viewBox="0 0 26 13" fill="none" xmlns="http://www.w3.org/2000/svg">
<path d="M21 1.2001C21.3 1.2001 21.6 1.2001 21.9 1.1001L21.5 1.6001L21 1.2001Z" fill="#AE9999"/>
<path d="M24.1001 1C24.4001 1 24.6001 1 24.9001 1L24.5001 1.4L24.1001 1Z" fill="#AE9999"/>
<path d="M1.40019 12.7C7.80019 11.9 14.2002 11.1 20.6002 10.5L20.1002 10.1L19.7002 10.6L19.6002 10.5L20.0002 10L19.5002 9.5L19.6002 9.39999L20.1002 9.89999L20.6002 9.39999L20.7002 9.5L20.2002 10L20.7002 10.4L20.6002 10.5C22.3002 10.3 24.1002 10.1 25.8002 10L25.2002 1H25.1002L24.6002 1.5L25.1002 1.9L25.0002 2L24.5002 1.6L24.1002 2.1L24.0002 2L24.4002 1.5L23.9002 1C23.2002 1 22.5002 1.1 21.9002 1.1L22.0002 1.2L21.5002 1.7L22.0002 2.1L21.9002 2.2L21.4002 1.8L21.0002 2.3L20.9002 2.2L21.3002 1.7L20.8002 1.2C10.3002 1.9 2.9002 2.3 0.800201 2.5C0.700201 2.5 0.200195 2.5 0.200195 2.5L0.300201 11.3V11.5V11.4V11.7V12.5V12.6V12.7C0.300201 12.7 0.600201 12.7 0.800201 12.6L1.40019 12.7ZM23.3002 9.5L22.8002 9L22.9002 8.89999L23.4002 9.39999L23.9002 8.89999L24.0002 9L23.5002 9.5L24.0002 9.89999L23.9002 10L23.4002 9.60001L23.0002 10.1L22.9002 10L23.3002 9.5ZM18.3002 2L17.9002 2.5L17.8002 2.4L18.2002 1.9L17.7002 1.4L17.8002 1.3L18.3002 1.8L18.8002 1.3L18.9002 1.4L18.4002 1.9L18.9002 2.3L18.8002 2.4L18.3002 2ZM17.4002 10.1L16.9002 9.60001L17.0002 9.5L17.5002 10L18.0002 9.5L18.1002 9.60001L17.6002 10.1L18.1002 10.5L18.0002 10.6L17.5002 10.2L17.1002 10.7L17.0002 10.6L17.4002 10.1ZM15.4002 2.1L14.9002 1.6L15.0002 1.5L15.5002 2L16.0002 1.5L16.1002 1.6L15.6002 2.1L16.1002 2.5L16.0002 2.6L15.5002 2.2L15.1002 2.7L15.0002 2.6L15.4002 2.1ZM14.1002 10.5L13.6002 10L13.7002 9.89999L14.2002 10.4L14.7002 9.89999L14.8002 10L14.3002 10.5L14.8002 10.9L14.7002 11L14.2002 10.6L13.8002 11.1L13.7002 11L14.1002 10.5ZM12.6002 2.3L12.1002 1.8L12.2002 1.7L12.7002 2.2L13.2002 1.7L13.3002 1.8L12.8002 2.3L13.3002 2.7L13.2002 2.8L12.7002 2.4L12.3002 2.9L12.2002 2.8L12.6002 2.3ZM10.9002 10.8L10.4002 10.3L10.5002 10.2L11.0002 10.7L11.5002 10.2L11.6002 10.3L11.1002 10.8L11.6002 11.2L11.5002 11.3L11.0002 10.9L10.6002 11.4L10.5002 11.3L10.9002 10.8ZM9.90019 2.6L9.40019 2.1L9.5002 2L10.0002 2.5L10.5002 2L10.6002 2.1L10.1002 2.6L10.6002 3L10.5002 3.1L10.0002 2.7L9.6002 3.2L9.5002 3.1L9.90019 2.6ZM7.5002 11.2L7.0002 10.7L7.1002 10.6L7.6002 11.1L8.1002 10.6L8.2002 10.7L7.7002 11.2L8.2002 11.6L8.1002 11.7L7.6002 11.3L7.2002 11.8L7.1002 11.7L7.5002 11.2ZM7.3002 2.8L6.8002 2.3L6.90019 2.2L7.40019 2.7L7.90019 2.2L8.0002 2.3L7.5002 2.8L8.0002 3.2L7.90019 3.3L7.40019 2.9L7.0002 3.4L6.90019 3.3L7.3002 2.8ZM4.5002 11.5L4.0002 11L4.1002 10.9L4.6002 11.4L5.1002 10.9L5.2002 11L4.7002 11.5L5.2002 11.9L5.1002 12L4.6002 11.6L4.2002 12.1L4.1002 12L4.5002 11.5ZM4.40019 3L3.90019 2.5L4.0002 2.4L4.5002 2.9L5.0002 2.4L5.1002 2.5L4.6002 3L5.1002 3.4L5.0002 3.5L4.5002 3.1L4.1002 3.6L4.0002 3.5L4.40019 3ZM1.6002 12L1.1002 11.5L1.2002 11.4L1.7002 11.9L2.2002 11.4L2.3002 11.5L1.8002 12L2.3002 12.4L2.2002 12.5L1.7002 12.1L1.3002 12.6L1.2002 12.5L1.6002 12ZM1.1002 2.7L1.2002 2.6L1.7002 3.1L2.2002 2.6L2.3002 2.7L1.8002 3.2L2.3002 3.6L2.2002 3.7L1.7002 3.3L1.3002 3.8L1.2002 3.7L1.6002 3.2L1.1002 2.7Z" fill="#AE9999"/>
<path d="M24.0004 0.899902C24.0004 0.999902 24.0004 0.999901 23.9004 0.999901L24.0004 0.899902Z" fill="#304893"/>
<path d="M24.6004 1.5L25.1004 1.9L25.0004 2L24.5004 1.6L24.1004 2.1L24.0004 2L24.4004 1.5L23.9004 1C24.0004 1 24.0004 1 24.1004 1L24.5004 1.4L24.9004 1C25.0004 1 25.0004 1 25.1004 1L24.6004 1.5Z" fill="#304893"/>
<path d="M21.5003 1.7001L22.0003 2.1001L21.9003 2.2001L21.4003 1.8001L21.0003 2.3001L20.9003 2.2001L21.3003 1.7001L20.8003 1.2001H20.9003L21.4003 1.6001L21.8003 1.1001C21.8003 1.1001 21.8003 1.1001 21.9003 1.1001L22.0003 1.2001L21.5003 1.7001Z" fill="#304893"/>
<path d="M17.8002 2.3998L18.2002 1.8998L17.7002 1.4998L17.8002 1.3998L18.3002 1.7998L18.7002 1.2998L18.8002 1.3998L18.4002 1.8998L18.9002 2.3998L18.8002 2.4998L18.3002 1.9998L17.9002 2.4998L17.8002 2.3998Z" fill="#304893"/>
<path d="M15.0004 1.6L15.5004 2L16.0004 1.5L16.1004 1.6L15.6004 2.1L16.1004 2.5L16.0004 2.6L15.5004 2.2L15.1004 2.7L15.0004 2.6L15.4004 2.1L14.9004 1.7L15.0004 1.6Z" fill="#304893"/>
<path d="M12.1001 1.69971L12.7001 2.19971L13.1001 1.69971L13.2001 1.79971L12.8001 2.29971L13.2001 2.69971L13.1001 2.79971L12.7001 2.39971L12.2001 2.89971L12.1001 2.79971L12.6001 2.29971L12.1001 1.79971V1.69971Z" fill="#304893"/>
<path d="M9.5004 2.1L10.0004 2.5L10.5004 2L10.6004 2.1L10.1004 2.6L10.6004 3.1L10.5004 3.2L10.0004 2.7L9.6004 3.2L9.5004 3.1L9.90039 2.6L9.40039 2.2L9.5004 2.1Z" fill="#304893"/>
<path d="M6.90028 2.19971L7.40028 2.69971L7.80029 2.19971L7.90028 2.29971L7.50029 2.79971L7.90028 3.19971V3.29971L7.40028 2.89971L7.00029 3.29971L6.90028 3.19971L7.30029 2.79971L6.80029 2.29971L6.90028 2.19971Z" fill="#304893"/>
<path d="M4.0004 2.3998L4.5004 2.8998L5.0004 2.2998L5.1004 2.3998L4.6004 2.8998L5.1004 3.3998L5.0004 3.4998L4.5004 2.9998L4.1004 3.4998L4.0004 3.3998L4.40039 2.9998L3.90039 2.4998L4.0004 2.3998Z" fill="#304893"/>
<path d="M1.70009 3.1001L2.1001 2.6001L2.20009 2.7001L1.80009 3.2001L2.20009 3.6001V3.7001L1.70009 3.3001L1.30009 3.7001H1.20009L1.6001 3.2001L1.1001 2.7001L1.20009 2.6001L1.70009 3.1001Z" fill="#304893"/>
<path d="M22.9003 8.99991L23.4003 9.3999L23.8003 8.8999L23.9003 8.99991L23.5003 9.49991L24.0003 9.8999L23.9003 9.99991L23.4003 9.59991L23.0003 10.0999L22.9003 9.99991L23.3003 9.49991L22.8003 9.09991L22.9003 8.99991Z" fill="#304893"/>
<path d="M19.7 10.4998L19.6 10.3998L20 9.8998L19.5 9.3998L19.6 9.2998L20.1 9.7998L20.6 9.2998L20.7 9.3998L20.2 9.8998L20.7 10.2998L20.6 10.3998L20.1 9.9998L19.7 10.4998Z" fill="#304893"/>
<path d="M17.0004 9.5L17.5004 10L17.9004 9.5L18.0004 9.60001L17.6004 10.1L18.1004 10.5L18.0004 10.6L17.5004 10.2L17.1004 10.7L17.0004 10.6L17.4004 10.1L16.9004 9.60001L17.0004 9.5Z" fill="#304893"/>
<path d="M13.7001 9.8998L14.2001 10.3998L14.6001 9.7998L14.7001 9.8998L14.3001 10.4998L14.7001 10.8998V10.9998L14.2001 10.5998L13.8001 10.9998L13.7001 10.8998L14.1001 10.4998L13.6001 9.9998L13.7001 9.8998Z" fill="#304893"/>
<path d="M10.4003 10.2001L11.0003 10.7001L11.4003 10.1001L11.5003 10.2001L11.1003 10.8001L11.5003 11.2001L11.4003 11.3001L11.0003 10.9001L10.5003 11.3001L10.4003 11.2001L10.9003 10.8001L10.3003 10.3001L10.4003 10.2001Z" fill="#304893"/>
<path d="M7.10001 10.7001L7.60001 11.1001L8.10001 10.6001L8.2 10.7001L7.7 11.2001L8.2 11.6001L8.10001 11.7001L7.60001 11.3001L7.2 11.8001L7.10001 11.7001L7.5 11.2001L7 10.8001L7.10001 10.7001Z" fill="#304893"/>
<path d="M4.10001 10.8999L4.60001 11.3999L5.10001 10.8999L5.2 10.9999L4.7 11.4999L5.2 11.8999L5.10001 11.9999L4.60001 11.5999L4.2 11.9999H4.10001L4.5 11.4999L4 10.9999L4.10001 10.8999Z" fill="#304893"/>
<path d="M1.20009 11.4999L1.70009 11.8999L2.20009 11.3999L2.30009 11.4999L1.80009 11.9999L2.30009 12.3999L2.20009 12.4999L1.70009 12.0999L1.30009 12.5999L1.20009 12.4999L1.6001 11.9999L1.1001 11.5999L1.20009 11.4999Z" fill="#304893"/>
</svg>
