<svg width="19" height="19" viewBox="0 0 19 19" fill="none" xmlns="http://www.w3.org/2000/svg">
<path d="M18.0929 0.907286C17.6579 0.472311 16.9603 0.472311 16.5253 0.907286L9.50009 7.93254L2.47484 0.907286C2.03986 0.472311 1.34226 0.472311 0.907286 0.907286C0.472311 1.34226 0.472311 2.03986 0.907286 2.47484L7.93254 9.50009L0.907286 16.5253C0.472311 16.9603 0.472311 17.6579 0.907286 18.0929C1.12067 18.3063 1.40792 18.4212 1.68696 18.4212C1.966 18.4212 2.25325 18.3145 2.46663 18.0929L9.49188 11.0676L16.5171 18.0929C16.7305 18.3063 17.0178 18.4212 17.2968 18.4212C17.5841 18.4212 17.8631 18.3145 18.0765 18.0929C18.5115 17.6579 18.5115 16.9603 18.0765 16.5253L11.0676 9.50009L18.0929 2.47484C18.5279 2.03986 18.5279 1.34226 18.0929 0.907286Z" fill="white"/>
</svg>
