<svg width="159" height="164" viewBox="0 0 159 164" fill="none" xmlns="http://www.w3.org/2000/svg">
<path d="M158.764 97.3525C158.755 87.3869 155.112 77.7668 148.517 70.2956C141.922 62.8245 132.828 58.0152 122.941 56.7695V35.9407C122.941 35.2015 122.781 34.4711 122.471 33.7997C122.162 33.1283 121.711 32.5318 121.15 32.0513L85.326 1.34542C84.399 0.552671 83.2193 0.117094 81.9995 0.117188H19.3595C14.2603 0.130695 9.37378 2.16235 5.76806 5.76806C2.16235 9.37378 0.130695 14.2603 0.117188 19.3595V144.64C0.130695 149.739 2.16235 154.625 5.76806 158.231C9.37378 161.837 14.2603 163.868 19.3595 163.882H103.698C108.798 163.868 113.684 161.837 117.29 158.231C120.896 154.625 122.927 149.739 122.941 144.64V137.935C132.828 136.69 141.922 131.881 148.517 124.409C155.112 116.938 158.755 107.318 158.764 97.3525ZM87.1172 16.3401L104.005 30.8231H87.1172V16.3401ZM103.698 153.647H19.3595C18.1767 153.647 17.0055 153.414 15.9127 152.961C14.8199 152.508 13.827 151.845 12.9906 151.009C12.1542 150.172 11.4908 149.179 11.0381 148.086C10.5855 146.994 10.3525 145.822 10.3525 144.64V19.3595C10.3525 16.9707 11.3014 14.6797 12.9906 12.9906C14.6797 11.3014 16.9707 10.3525 19.3595 10.3525H76.8819V35.9407C76.8819 37.298 77.4211 38.5997 78.3808 39.5594C79.3406 40.5192 80.6423 41.0584 81.9995 41.0584H112.705V56.7695C102.87 58.0793 93.845 62.9162 87.3083 70.381C80.7717 77.8457 77.1684 87.4303 77.1684 97.3525C77.1684 107.275 80.7717 116.859 87.3083 124.324C93.845 131.789 102.87 136.626 112.705 137.935V144.64C112.705 145.822 112.472 146.994 112.02 148.086C111.567 149.179 110.904 150.172 110.067 151.009C109.231 151.845 108.238 152.508 107.145 152.961C106.052 153.414 104.881 153.647 103.698 153.647ZM117.823 128.058C111.75 128.058 105.813 126.258 100.764 122.883C95.7142 119.509 91.7786 114.714 89.4545 109.103C87.1305 103.492 86.5224 97.3184 87.7072 91.3621C88.892 85.4057 91.8164 79.9344 96.1107 75.6402C100.405 71.3459 105.876 68.4214 111.833 67.2366C117.789 66.0518 123.963 66.6599 129.574 68.984C135.184 71.308 139.98 75.2437 143.354 80.2932C146.728 85.3428 148.529 91.2794 148.529 97.3525C148.529 105.496 145.294 113.306 139.535 119.065C133.777 124.823 125.967 128.058 117.823 128.058Z" fill="#D73F34"/>
<path d="M133.175 92.2348H122.94V81.9995C122.94 80.6422 122.401 79.3405 121.441 78.3808C120.481 77.421 119.179 76.8818 117.822 76.8818C116.465 76.8818 115.163 77.421 114.203 78.3808C113.244 79.3405 112.705 80.6422 112.705 81.9995V92.2348H102.469C101.112 92.2348 99.8102 92.7739 98.8505 93.7337C97.8907 94.6934 97.3516 95.9951 97.3516 97.3524C97.3516 98.7097 97.8907 100.011 98.8505 100.971C99.8102 101.931 101.112 102.47 102.469 102.47H112.705V112.705C112.705 114.063 113.244 115.364 114.203 116.324C115.163 117.284 116.465 117.823 117.822 117.823C119.179 117.823 120.481 117.284 121.441 116.324C122.401 115.364 122.94 114.063 122.94 112.705V102.47H133.175C134.532 102.47 135.834 101.931 136.794 100.971C137.754 100.011 138.293 98.7097 138.293 97.3524C138.293 95.9951 137.754 94.6934 136.794 93.7337C135.834 92.7739 134.532 92.2348 133.175 92.2348Z" fill="#D73F34"/>
<path d="M30.8227 61.5292H81.9992C83.3565 61.5292 84.6582 60.9901 85.6179 60.0303C86.5777 59.0706 87.1168 57.7689 87.1168 56.4116C87.1168 55.0543 86.5777 53.7526 85.6179 52.7929C84.6582 51.8331 83.3565 51.2939 81.9992 51.2939H30.8227C29.4654 51.2939 28.1637 51.8331 27.204 52.7929C26.2443 53.7526 25.7051 55.0543 25.7051 56.4116C25.7051 57.7689 26.2443 59.0706 27.204 60.0303C28.1637 60.9901 29.4654 61.5292 30.8227 61.5292Z" fill="#D73F34"/>
<path d="M61.5286 71.7646H30.8227C29.4654 71.7646 28.1637 72.3038 27.204 73.2636C26.2443 74.2233 25.7051 75.525 25.7051 76.8823C25.7051 78.2396 26.2443 79.5413 27.204 80.501C28.1637 81.4608 29.4654 81.9999 30.8227 81.9999H61.5286C62.8859 81.9999 64.1876 81.4608 65.1473 80.501C66.1071 79.5413 66.6463 78.2396 66.6463 76.8823C66.6463 75.525 66.1071 74.2233 65.1473 73.2636C64.1876 72.3038 62.8859 71.7646 61.5286 71.7646Z" fill="#D73F34"/>
<path d="M61.5286 92.2344H30.8227C29.4654 92.2344 28.1637 92.7736 27.204 93.7333C26.2443 94.693 25.7051 95.9947 25.7051 97.352C25.7051 98.7093 26.2443 100.011 27.204 100.971C28.1637 101.93 29.4654 102.47 30.8227 102.47H61.5286C62.8859 102.47 64.1876 101.93 65.1473 100.971C66.1071 100.011 66.6463 98.7093 66.6463 97.352C66.6463 95.9947 66.1071 94.693 65.1473 93.7333C64.1876 92.7736 62.8859 92.2344 61.5286 92.2344Z" fill="#D73F34"/>
<path d="M61.5286 112.705H30.8227C29.4654 112.705 28.1637 113.244 27.204 114.204C26.2443 115.164 25.7051 116.465 25.7051 117.823C25.7051 119.18 26.2443 120.482 27.204 121.441C28.1637 122.401 29.4654 122.94 30.8227 122.94H61.5286C62.8859 122.94 64.1876 122.401 65.1473 121.441C66.1071 120.482 66.6463 119.18 66.6463 117.823C66.6463 116.465 66.1071 115.164 65.1473 114.204C64.1876 113.244 62.8859 112.705 61.5286 112.705Z" fill="#D73F34"/>
</svg>
