<svg width="19" height="61" viewBox="0 0 19 61" fill="none" xmlns="http://www.w3.org/2000/svg">
<path d="M5.79712 35.1916C5.79712 35.1916 2.52712 36.5016 1.54712 44.0116C1.54712 44.0116 0.567122 51.8516 0.237122 54.1416C-0.0928785 56.4316 -0.0928588 59.3716 3.50714 60.3516C7.10714 61.3316 10.3671 60.6816 12.3271 60.0216C14.2871 59.3716 17.2271 57.4116 17.8871 55.1216C18.5371 52.8316 17.8871 41.7216 16.9071 39.7616C15.9371 37.8116 13.6471 32.5816 5.79712 35.1916Z" fill="url(#paint0_linear_90_11258)"/>
<path d="M9.0685 4.14191C9.0685 4.14191 1.89848 19.8319 4.82848 36.3319C4.82848 36.3319 15.2285 35.1019 15.7485 37.9219C14.2885 31.0519 13.5885 23.8319 13.8785 16.8219C13.9985 13.9819 14.1985 11.1419 14.2785 8.29191C14.3285 6.44191 14.6485 4.32191 13.8585 2.59191C13.5285 1.86191 12.9685 0.801914 12.0685 0.711914C10.5185 0.581914 9.5285 3.08191 9.0685 4.14191Z" fill="url(#paint1_linear_90_11258)"/>
<path d="M4.14614 55.3416C3.68614 53.9716 3.89614 51.9616 3.86614 50.6116C3.82614 48.7216 3.84615 46.8216 4.03615 44.9316C4.19615 43.3916 4.41615 41.8016 4.93615 40.3616C5.48615 38.8516 6.23613 37.4716 6.54613 35.8516C6.71613 34.9816 6.75613 34.0916 6.79613 33.2016C7.13613 25.9516 7.40614 18.6816 8.45614 11.5016C8.80614 9.1016 9.74613 2.3416 11.5461 0.731601C12.7661 -0.358399 12.3661 5.5316 12.3661 6.5616C12.3861 11.6316 12.2162 16.6516 12.2262 21.7216C12.2462 26.0516 11.4561 31.3416 13.0861 35.3316C14.1761 37.9816 15.1862 39.6516 15.3862 42.6516C15.5562 45.2816 15.7361 47.9116 15.9061 50.5416C15.9761 51.5916 16.0462 52.6816 15.7262 53.6716C14.6762 56.9616 8.58614 57.7916 6.08614 57.1216C5.38614 56.9316 4.70613 56.5016 4.32613 55.8016C4.27613 55.6716 4.20614 55.5116 4.14614 55.3416Z" fill="#FCF2D9"/>
<path d="M12.0771 50.2376C12.5071 49.3176 12.6371 44.6676 12.6071 43.2376C12.5671 41.1776 11.1671 32.4176 10.9971 28.1976C10.7771 22.7776 11.0871 12.7276 11.1771 8.91759C11.2671 5.10759 11.9471 0.567597 11.7671 0.617597C11.5871 0.667597 10.1771 6.55759 9.99711 9.14759C9.81711 11.7376 8.73712 21.0476 8.40712 26.4776C8.17712 30.2576 7.32712 39.6976 7.37712 41.5776C7.42712 43.4976 7.38712 48.6776 7.78712 49.5276C8.22712 50.4676 9.10712 51.1976 9.62712 51.1276C10.3071 51.0176 11.6371 51.1576 12.0771 50.2376Z" fill="#D8D8D8"/>
<path d="M9.551 51.2191C8.971 51.2191 8.13102 50.4791 7.70102 49.5691C7.38102 48.8691 7.34101 45.5091 7.31101 43.0591C7.30101 42.4691 7.30102 41.9591 7.29102 41.5791C7.26102 40.3891 7.58103 36.2891 7.89103 32.3191C8.07103 30.0291 8.24102 27.8691 8.32102 26.4791C8.52102 23.0891 9.02102 18.2491 9.41102 14.3591C9.64102 12.0891 9.84102 10.1191 9.91102 9.14907C10.021 7.55907 10.571 4.95908 10.801 3.91908C10.991 3.04908 11.191 2.21908 11.361 1.58908C11.631 0.569075 11.691 0.54908 11.751 0.53908C11.781 0.52908 11.821 0.539077 11.841 0.559077C11.931 0.639077 11.911 0.879076 11.731 2.76908C11.561 4.46908 11.331 6.78907 11.281 8.92907C11.271 9.39907 11.251 9.96908 11.241 10.6091C11.121 15.0991 10.911 23.4591 11.101 28.2091C11.201 30.5791 11.671 34.3291 12.101 37.6391C12.421 40.1691 12.701 42.3491 12.721 43.2491C12.751 44.6191 12.641 49.3291 12.181 50.2891C11.811 51.0691 10.841 51.1391 10.131 51.1791C9.96102 51.1891 9.80102 51.1991 9.66102 51.2191C9.61102 51.2191 9.581 51.2191 9.551 51.2191ZM11.691 1.02908C11.301 2.32908 10.241 6.83907 10.081 9.14907C10.011 10.1191 9.811 12.0891 9.581 14.3591C9.191 18.2491 8.691 23.0891 8.491 26.4791C8.411 27.8791 8.24101 30.0391 8.06101 32.3291C7.77101 36.1091 7.431 40.3891 7.461 41.5691C7.471 41.9591 7.48102 42.4591 7.48102 43.0491C7.51102 45.3491 7.551 48.8191 7.861 49.4791C8.311 50.4391 9.151 51.0891 9.611 51.0191C9.751 50.9991 9.92101 50.9891 10.091 50.9791C10.791 50.9291 11.671 50.8791 11.991 50.1891L12.071 50.2291L12.001 50.1991C12.411 49.3391 12.551 44.8791 12.521 43.2391C12.501 42.3491 12.221 40.1691 11.901 37.6491C11.481 34.3391 11.001 30.5791 10.901 28.2091C10.711 23.4491 10.921 15.0891 11.041 10.5991C11.061 9.95908 11.071 9.38908 11.081 8.91908C11.131 6.77908 11.361 4.44908 11.531 2.74908C11.611 2.04908 11.671 1.41908 11.691 1.02908Z" fill="#FF0000"/>
<defs>
<linearGradient id="paint0_linear_90_11258" x1="-4.36478" y1="48.3174" x2="21.6457" y2="47.0142" gradientUnits="userSpaceOnUse">
<stop stop-color="#94938C"/>
<stop offset="0.1599" stop-color="#D1CFC6"/>
<stop offset="0.2296" stop-color="#EDEBE1"/>
<stop offset="0.7988" stop-color="#EDEBE1"/>
<stop offset="0.9762" stop-color="#9F9E96"/>
<stop offset="1" stop-color="#94938C"/>
</linearGradient>
<linearGradient id="paint1_linear_90_11258" x1="13.1168" y1="19.3334" x2="4.13588" y2="19.4939" gradientUnits="userSpaceOnUse">
<stop stop-color="#BFAB8D"/>
<stop offset="0.5078" stop-color="#E7E1D2"/>
<stop offset="1" stop-color="#CCBFA6"/>
</linearGradient>
</defs>
</svg>
