<svg width="21" height="69" viewBox="0 0 21 69" fill="none" xmlns="http://www.w3.org/2000/svg">
<path d="M4.13281 44.98C4.13281 44.98 16.2128 41.95 17.2228 43.68L12.3428 9.13C12.3428 9.13 8.92279 0.25 7.61279 0.25C6.30279 0.25 5.00281 4.17 5.00281 4.17C5.00281 4.17 4.43281 36.71 4.13281 44.98Z" fill="url(#paint0_linear_90_11268)"/>
<path d="M6.46138 41.4813C6.46138 41.4813 -0.728628 50.9613 0.581372 58.8013C1.00137 61.3313 1.8714 63.9813 3.3914 66.0613C4.1314 67.0813 5.10139 68.0013 6.32139 68.4013C7.93139 68.9313 10.0014 68.5113 11.6214 68.1513C12.4214 67.9713 13.2014 67.7313 13.9414 67.3913C19.1214 65.0113 20.4914 58.8613 20.0714 53.6513C19.7814 49.9913 18.6714 46.4413 17.2214 43.0913C16.2814 40.9213 14.1014 40.3513 11.9314 40.0413C10.2914 39.8213 7.57138 40.0113 6.46138 41.4813Z" fill="url(#paint1_linear_90_11268)"/>
<path d="M5.7126 2.44809C5.5826 3.03809 6.5626 6.86809 6.5926 7.36809C6.9426 13.4881 7.1926 19.6281 7.0926 25.7581C7.0226 30.0281 7.23259 34.3181 6.80259 38.5781C6.39259 42.5981 4.60261 46.2081 3.54261 50.0781C2.45261 54.0581 4.13261 63.3281 9.35261 62.9781C14.5726 62.6281 16.5626 57.5081 16.5626 53.8781C16.5626 48.3381 14.2726 42.8181 13.4626 37.3881C12.4026 30.2781 11.9426 23.2281 11.0626 16.0881C10.7826 13.8081 10.1126 11.1981 10.1126 8.91809C9.93259 7.83809 9.2826 5.89809 8.9326 4.84809C8.6926 4.11809 7.61262 0.22809 6.89262 0.60809C6.57262 0.77809 5.8426 1.85809 5.7126 2.44809Z" fill="#FCF2D9"/>
<path d="M7.54636 52.7511C7.11636 51.8311 7.47638 47.4811 7.50638 46.0511C7.54638 43.9911 8.46638 34.9311 8.63638 30.7211C8.85638 25.3011 8.09638 15.6611 8.00638 11.8511C7.91638 8.0411 6.32638 0.921105 6.50638 0.961105C6.68638 1.01111 9.44637 9.0811 9.62637 11.6711C9.80637 14.2611 10.8864 23.5711 11.2164 29.0011C11.4464 32.7811 12.2964 42.2211 12.2464 44.1011C12.1964 46.0211 12.2364 51.2011 11.8364 52.0511C11.3964 52.9911 10.8564 53.5711 9.99637 53.6511C9.13637 53.7311 7.98636 53.6711 7.54636 52.7511Z" fill="#D8D8D8"/>
<path d="M9.46697 53.7511C8.43697 53.7511 7.76696 53.4311 7.45696 52.7911C7.11696 52.0611 7.24697 49.3911 7.34697 47.4411C7.37697 46.8711 7.39697 46.3811 7.40697 46.0511C7.42697 45.1011 7.62695 42.7111 7.85695 39.9411C8.12695 36.6811 8.43698 33.0011 8.53698 30.7211C8.68698 27.0411 8.38696 21.4711 8.14696 16.9911C8.03696 14.8911 7.93697 13.0811 7.90697 11.8511C7.84697 9.39111 7.14696 5.47111 6.73696 3.13111C6.37696 1.09111 6.35697 0.961108 6.43697 0.891108C6.45697 0.871108 6.49697 0.861111 6.52697 0.871111C6.58697 0.891111 6.64697 0.901111 7.12697 2.26111C7.43697 3.13111 7.80696 4.2511 8.14696 5.3411C8.68696 7.0611 9.60697 10.1811 9.71697 11.6711C9.78697 12.6411 9.98697 14.6011 10.217 16.8811C10.607 20.7711 11.107 25.6211 11.307 29.0011C11.387 30.4011 11.557 32.5611 11.737 34.8411C12.047 38.8111 12.367 42.9111 12.337 44.1011C12.327 44.4811 12.317 44.9911 12.317 45.5811C12.287 48.0311 12.247 51.3911 11.927 52.0911C11.437 53.1511 10.837 53.6611 10.007 53.7411C9.81698 53.7411 9.63697 53.7511 9.46697 53.7511ZM7.62697 52.7111C7.94697 53.3911 8.71696 53.6611 9.98696 53.5411C10.747 53.4711 11.297 52.9911 11.757 52.0011C12.067 51.3411 12.107 47.8711 12.137 45.5711C12.147 44.9811 12.147 44.4711 12.157 44.0911C12.187 42.9111 11.847 38.6311 11.557 34.8511C11.377 32.5611 11.207 30.4011 11.127 29.0011C10.927 25.6211 10.427 20.7711 10.037 16.8811C9.80698 14.6111 9.60698 12.6411 9.53698 11.6711C9.37698 9.40111 7.28697 3.10111 6.62697 1.43111C6.68697 1.82111 6.79698 2.43111 6.91698 3.10111C7.33698 5.44111 8.03697 9.3711 8.09697 11.8411C8.12697 13.0611 8.22697 14.8711 8.33697 16.9711C8.57697 21.4511 8.87698 27.0311 8.72698 30.7211C8.63698 33.0011 8.32696 36.7011 8.04696 39.9511C7.81696 42.7211 7.61697 45.1111 7.59697 46.0511C7.58697 46.3911 7.56698 46.8811 7.53698 47.4511C7.44698 49.2711 7.30697 52.0311 7.62697 52.7111Z" fill="#FF0000"/>
<defs>
<linearGradient id="paint0_linear_90_11268" x1="15.4916" y1="22.9049" x2="5.59801" y2="22.6001" gradientUnits="userSpaceOnUse">
<stop stop-color="#BFAB8D"/>
<stop offset="0.5078" stop-color="#E7E1D2"/>
<stop offset="1" stop-color="#CCBFA6"/>
</linearGradient>
<linearGradient id="paint1_linear_90_11268" x1="26.4188" y1="54.0124" x2="-6.53384" y2="54.6014" gradientUnits="userSpaceOnUse">
<stop stop-color="#94938C"/>
<stop offset="0.0617" stop-color="#A4A29B"/>
<stop offset="0.1809" stop-color="#CCCAC2"/>
<stop offset="0.2666" stop-color="#EDEBE1"/>
<stop offset="0.7117" stop-color="#EDEBE1"/>
<stop offset="0.7719" stop-color="#E0DED5"/>
<stop offset="0.883" stop-color="#BEBDB4"/>
<stop offset="1" stop-color="#94938C"/>
</linearGradient>
</defs>
</svg>
