<svg width="20" height="58" viewBox="0 0 20 58" fill="none" xmlns="http://www.w3.org/2000/svg">
<path d="M10.1406 56.6687C10.1406 56.6687 15.4906 57.5087 17.2306 54.6587C18.9706 51.8187 10.6906 54.9787 10.1406 56.6687Z" fill="#D8D6D0"/>
<path d="M15.5058 38.7502C15.5058 38.7502 15.1758 27.6402 14.1958 24.7002C13.2158 21.7602 12.2358 11.9502 12.5658 9.34019C12.8958 6.73019 12.8958 2.8002 12.8958 2.8002C12.8958 2.8002 13.2258 -0.139804 10.2858 2.1502C7.34584 4.4402 3.74582 15.5502 4.07582 20.1302C4.40582 24.7102 4.50583 38.4902 4.45583 38.4602C4.39583 38.4202 15.5058 38.7502 15.5058 38.7502Z" fill="url(#paint0_linear_90_11277)"/>
<path d="M4.72724 37.4407C4.72724 37.4407 -2.79278 48.5507 2.76722 54.4407C3.44722 55.1607 4.51723 55.6607 5.33723 56.1907C6.18723 56.7307 7.09722 57.4907 8.14722 57.6007C9.33722 57.7407 10.2172 56.4907 11.3872 56.2407C13.2572 55.8507 15.0772 56.1607 16.6672 54.8907C17.9872 53.8407 18.7772 52.2007 19.0472 50.5607C19.3872 48.5107 19.0372 46.4407 18.6272 44.4307C18.4572 43.5707 18.1572 42.7607 17.8072 41.9607C17.4372 41.1107 16.7772 40.2707 16.4872 39.4007C16.4872 39.4007 13.8772 31.5607 4.72724 37.4407Z" fill="url(#paint1_linear_90_11277)"/>
<path d="M3.82793 41.8383C3.87793 41.6283 3.94795 41.4283 4.00795 41.2283C4.57795 39.5383 5.58794 38.0383 5.93794 36.2683C6.16794 35.0883 6.08794 33.8683 6.02794 32.6683C5.79794 28.2983 5.63794 23.7483 6.05794 19.3883C6.47794 15.0583 7.55794 10.8583 8.65794 6.70829C9.00794 5.38829 9.52795 2.23828 10.668 1.78828C10.768 1.74828 11.0379 1.52828 11.3379 1.48828C11.4279 7.43828 11.6079 15.4783 11.8179 21.4183C11.8579 22.4783 13.2179 31.4683 13.1879 31.9783C13.1579 32.4883 13.628 35.7683 13.668 36.1483C13.708 36.5283 16.2879 41.2583 16.1479 44.2783C15.9979 47.2983 15.7579 49.4783 14.5279 50.6883C13.2979 51.8983 11.0479 52.5783 9.89793 52.4083C8.74793 52.2383 6.42793 52.5783 5.82793 51.2583C5.13793 49.7083 4.15795 48.5583 3.75795 46.8183C3.38795 45.1983 3.39793 43.4483 3.82793 41.8383Z" fill="#FCF2D9"/>
<path d="M11.6006 44.6122C11.9706 43.6922 12.0706 39.0422 12.0506 37.6122C12.0206 35.5522 10.8106 26.7922 10.6706 22.5722C10.4806 17.1522 10.7506 8.19216 10.8306 4.38216C10.9106 0.572158 10.7106 0.662152 10.5606 0.712152C10.4006 0.762152 9.90061 2.12215 9.74061 4.70215C9.58061 7.29215 8.74061 15.4222 8.46061 20.8522C8.26061 24.6322 8.03061 34.7121 8.06061 36.5921C8.10061 38.5121 7.58063 43.0521 7.92063 43.9021C8.30063 44.8421 9.05062 45.5722 9.50062 45.5022C10.0806 45.4022 11.2306 45.5322 11.6006 44.6122Z" fill="#D8D8D8"/>
<path d="M9.43774 45.5919C8.92774 45.5919 8.20773 44.8519 7.83773 43.9319C7.62773 43.3919 7.73774 41.4819 7.84774 39.6319C7.91774 38.4519 7.98774 37.3319 7.96774 36.5919C7.92774 34.7019 8.16773 24.6619 8.36773 20.8419C8.53773 17.4719 8.92774 13.0819 9.24774 9.56187C9.43774 7.47187 9.59773 5.67188 9.64773 4.69188C9.78773 2.32188 10.2677 0.691877 10.5277 0.621877C10.5677 0.611877 10.6377 0.591873 10.7077 0.641873C10.8477 0.751873 10.9777 1.12188 10.9077 4.38188C10.8977 4.98188 10.8777 5.71188 10.8577 6.55188C10.7577 10.8419 10.5877 18.0119 10.7477 22.5719C10.8277 24.9419 11.2377 28.6919 11.5977 32.0019C11.8777 34.5319 12.1077 36.7119 12.1277 37.6119C12.1477 38.9819 12.0577 43.6919 11.6677 44.6419C11.3477 45.4319 10.5077 45.4919 9.89773 45.5419C9.74773 45.5519 9.60774 45.5619 9.49774 45.5819C9.48774 45.5919 9.45774 45.5919 9.43774 45.5919ZM10.5877 0.791875C10.4677 0.901875 9.97772 2.15187 9.82772 4.70187C9.76772 5.68187 9.60775 7.48188 9.41775 9.57188C9.10775 13.0919 8.71775 17.4719 8.53774 20.8519C8.33774 24.6619 8.10775 34.7019 8.13775 36.5919C8.15775 37.3419 8.08773 38.4619 8.01773 39.6419C7.91773 41.3919 7.79774 43.3619 7.99774 43.8619C8.37774 44.8119 9.09775 45.4619 9.47775 45.4019C9.59775 45.3819 9.73775 45.3719 9.88775 45.3619C10.4878 45.3119 11.2277 45.2619 11.4977 44.5719L11.5777 44.6019L11.4977 44.5719C11.8477 43.7119 11.9677 39.2419 11.9377 37.6119C11.9277 36.7219 11.6877 34.5419 11.4077 32.0219C11.0477 28.7119 10.6377 24.9519 10.5577 22.5819C10.3977 18.0119 10.5677 10.8419 10.6677 6.55188C10.6877 5.71188 10.7077 4.99188 10.7177 4.38188C10.7777 1.58188 10.6777 0.881875 10.5877 0.791875C10.5977 0.791875 10.5977 0.791875 10.5877 0.791875Z" fill="#FF0000"/>
<defs>
<linearGradient id="paint0_linear_90_11277" x1="14.607" y1="20.0566" x2="1.71442" y2="19.6594" gradientUnits="userSpaceOnUse">
<stop stop-color="#BFAB8D"/>
<stop offset="0.5078" stop-color="#E7E1D2"/>
<stop offset="1" stop-color="#CCBFA6"/>
</linearGradient>
<linearGradient id="paint1_linear_90_11277" x1="22.7589" y1="46.8372" x2="-3.96728" y2="46.0139" gradientUnits="userSpaceOnUse">
<stop stop-color="#94938C"/>
<stop offset="0.0311" stop-color="#A6A59D"/>
<stop offset="0.0939" stop-color="#C5C3BB"/>
<stop offset="0.1552" stop-color="#DBD9D0"/>
<stop offset="0.2138" stop-color="#E8E7DD"/>
<stop offset="0.2666" stop-color="#EDEBE1"/>
<stop offset="0.7117" stop-color="#EDEBE1"/>
<stop offset="0.7637" stop-color="#E7E5DB"/>
<stop offset="0.835" stop-color="#D5D3CA"/>
<stop offset="0.9175" stop-color="#B8B7AF"/>
<stop offset="1" stop-color="#94938C"/>
</linearGradient>
</defs>
</svg>
