<svg width="26" height="50" viewBox="0 0 26 50" fill="none" xmlns="http://www.w3.org/2000/svg">
<path d="M14.9 1.66058C14.9 1.66058 15.81 -0.389427 17.64 0.120573C19.47 0.630573 20.11 5.43058 19.78 8.96058C19.45 12.4906 17.88 23.7106 15.17 23.9406C12.47 24.1706 7.52998 17.8206 9.76998 14.2806C12.01 10.7406 15.74 4.54058 14.9 1.66058Z" fill="url(#paint0_linear_90_11303)"/>
<path d="M3.07843 32.111C6.27843 31.881 9.90843 30.321 13.1084 30.191C15.1184 30.111 17.1285 29.981 19.1385 30.041C20.0685 30.071 21.4484 32.551 22.3584 32.441C22.9484 32.371 22.5585 29.961 22.5385 29.341C22.5185 28.811 22.4684 28.281 22.5484 27.761C22.8284 25.861 23.8684 24.051 24.3084 22.151C24.8084 19.951 25.1484 17.711 25.3584 15.461C25.5784 13.081 25.6784 10.641 25.3584 8.26101C25.2284 7.23101 25.0385 6.19102 24.6385 5.23102C24.3185 4.48102 23.5485 3.02102 22.5685 3.13102C22.2085 3.17102 21.8884 3.38101 21.6184 3.62101C21.0884 4.10101 20.7185 4.73101 20.4785 5.40101C19.9785 6.78101 19.9885 8.27102 19.8885 9.72102C19.7885 11.211 19.3784 12.601 19.0484 14.041C18.4284 16.731 17.6884 19.901 15.9284 22.111C15.4984 22.651 14.8585 23.081 14.1685 23.021C13.8185 22.991 13.4885 22.821 13.1985 22.621C12.1685 21.881 11.6384 20.601 11.4584 19.341C11.0884 16.761 11.3684 13.921 12.0584 11.421C12.4584 9.95102 13.2085 8.64102 13.6685 7.20102C14.1485 5.68102 14.8085 2.67103 12.6685 2.10103C11.8085 1.87103 10.8884 2.31101 10.2384 2.93101C7.84843 5.22101 6.22845 8.63102 4.84845 11.591C3.99845 13.401 3.17845 15.281 2.65845 17.211C2.34845 18.371 2.37845 19.541 2.40845 20.741C2.50845 24.111 2.69843 28.781 3.07843 32.111Z" fill="url(#paint1_linear_90_11303)"/>
<path d="M22.0161 34.2819C22.2861 34.3619 22.6761 35.1019 22.8261 35.3219C23.4261 36.1619 23.9461 37.0719 24.3261 38.0319C25.3761 40.6219 25.2161 43.4619 23.2561 45.5819C23.2361 45.6019 23.2061 45.6319 23.1861 45.6519C23.0761 45.7619 22.9662 45.8719 22.8862 46.0019C22.6462 46.3619 22.5861 46.8019 22.3561 47.1619C22.1361 47.5019 21.8261 47.8319 21.5161 48.0919C20.7861 48.7019 19.8261 49.1319 18.8561 49.0319C18.5261 49.0019 18.2061 48.8819 17.8961 48.7619C16.5461 48.2519 15.0761 47.6719 14.3561 46.3319C14.4361 46.4819 14.0661 47.1119 13.9761 47.2319C13.7461 47.5419 13.4761 47.6719 13.1261 47.8019C11.9761 48.2419 10.7261 48.6019 9.62614 49.1519C8.86614 49.4419 8.22615 49.7219 7.44615 49.4719C6.99615 49.3219 6.53614 49.1919 6.09614 49.0319C5.26614 48.7219 3.87614 48.1919 3.87614 47.1119C3.87614 45.4419 2.47612 40.4119 5.82612 35.3919C9.17612 30.3819 22.0061 34.2819 22.0161 34.2819Z" fill="#D8D6D0"/>
<path d="M22.0292 30.1516C22.3492 30.2516 22.8092 31.1116 22.9792 31.3616C23.6792 32.3516 24.2891 33.4116 24.7391 34.5416C25.9591 37.5716 25.7891 40.9016 23.4891 43.3816C23.4591 43.4116 23.4392 43.4416 23.4092 43.4716C23.2892 43.6016 23.1592 43.7316 23.0592 43.8816C22.7792 44.3016 22.7092 44.8216 22.4392 45.2416C22.1892 45.6416 21.8092 46.0216 21.4492 46.3316C20.5992 47.0516 19.4691 47.5515 18.3391 47.4315C17.9491 47.3915 17.5792 47.2516 17.2192 47.1216C15.6292 46.5316 13.9092 45.8516 13.0692 44.2716C13.1692 44.4516 12.7291 45.1816 12.6191 45.3316C12.3591 45.6916 12.0292 45.8416 11.6292 46.0016C10.2792 46.5216 8.81915 46.9416 7.52915 47.5816C6.63915 47.9216 5.88916 48.2516 4.97916 47.9516C4.44916 47.7816 3.91917 47.6215 3.38917 47.4315C2.40917 47.0715 0.789161 46.4515 0.789161 45.1815C0.789161 43.2215 -0.840861 37.3416 3.07914 31.4516C6.99914 25.5816 22.0192 30.1516 22.0292 30.1516Z" fill="url(#paint2_linear_90_11303)"/>
<path d="M10.2886 4.11946C9.1786 5.76946 7.93859 8.39947 6.96859 10.1295C6.29859 11.3095 5.63859 12.5195 5.17859 13.7795C4.50859 15.6195 4.49859 17.7595 4.36859 19.6895C4.21859 21.9495 4.16861 24.2295 4.16861 26.4995C4.16861 28.8695 3.80859 29.2095 3.80859 29.2095C3.80859 29.2095 0.448583 39.9495 2.98858 42.6195C5.52858 45.2895 12.4686 40.8395 12.4686 40.8395C12.4686 40.8395 14.5586 41.3495 16.0086 42.1095C17.4586 42.8695 19.4086 43.3795 20.6786 42.1895C21.9486 41.0095 24.3086 37.8795 24.2186 36.9395C24.1286 35.9995 23.0386 31.2295 22.0386 29.3695C21.0386 27.5095 22.6786 23.8295 23.0386 21.6295C23.3986 19.4295 25.1286 12.4495 24.7586 9.99946C24.3986 7.54946 24.1186 2.93947 22.6686 3.01947C20.5386 3.09947 21.4886 7.45947 21.2186 9.06947C20.9486 10.6795 19.3586 19.6695 18.6286 20.7695C17.8986 21.8695 15.3586 24.2195 14.2686 24.1395C13.1786 24.0595 9.86861 22.4395 10.1386 18.2495C10.4086 14.0595 12.4486 6.90947 12.7286 6.01947C12.8786 5.54947 13.5486 3.44946 13.3186 2.46946C13.2386 2.12946 12.6686 2.08946 12.4086 2.04946C12.0386 1.97946 11.4186 2.21946 10.2886 4.11946Z" fill="#FCF2D9"/>
<path d="M12.5139 1.5625C12.5139 1.5625 9.20394 8.77251 8.20394 11.7725C7.20394 14.7625 5.25396 30.5525 6.25396 33.9125C7.25396 37.2725 18.1839 37.5825 19.0439 35.5425C19.9039 33.5025 21.3539 22.2925 21.3539 22.2925C21.3539 22.2925 22.6239 16.8425 23.0739 11.8125C23.4539 7.6425 23.084 3.82251 22.654 3.02251C22.654 3.02251 22.794 7.42251 22.214 11.9925C21.654 16.3825 20.374 20.9425 20.034 21.6525C19.354 23.1025 17.354 25.1925 14.184 25.2825C11.004 25.3725 9.14395 21.3325 8.92395 20.0225C8.69395 18.7025 10.1439 10.4925 10.4239 9.0925L12.5139 1.5625Z" fill="#D8D8D8"/>
<path d="M14.3175 36.9113C13.9575 36.9113 13.5975 36.9013 13.2375 36.8813C10.3375 36.7213 6.74751 35.8513 6.17751 33.9413C5.93751 33.1513 5.85753 31.6413 5.91753 29.4613C5.96753 27.5913 6.13751 25.2512 6.39751 22.7012C6.88751 17.9412 7.62752 13.2313 8.12752 11.7513C9.11752 8.79125 12.4075 1.61125 12.4375 1.53125L12.6075 1.59125L10.5175 9.12125C10.1575 11.0012 8.80751 18.7813 9.01751 20.0213C9.11751 20.6213 9.60752 21.9413 10.5275 23.1413C11.2675 24.1113 12.5075 25.2613 14.1875 25.2113C17.4675 25.1213 19.3575 22.9213 19.9575 21.6313C20.2775 20.9513 21.5575 16.4413 22.1275 11.9913C22.7075 7.47126 22.5675 3.07125 22.5675 3.03125L22.5575 2.64125L22.7375 2.99126C23.1675 3.80126 23.5475 7.64125 23.1675 11.8313C22.7275 16.7513 21.4875 22.1313 21.4475 22.3213C21.3775 22.8413 19.9775 33.5612 19.1275 35.5912C18.8675 36.2012 17.8475 36.5212 17.0475 36.6812C16.2775 36.8312 15.3275 36.9113 14.3175 36.9113ZM12.1275 2.66125C11.1675 4.78125 9.05751 9.53125 8.29751 11.8013C7.80751 13.2813 7.06751 17.9713 6.57751 22.7113C5.99751 28.3513 5.91753 32.4213 6.34753 33.8813C6.64753 34.8813 7.84752 35.5113 8.80752 35.8613C10.0075 36.3013 11.5875 36.6013 13.2475 36.6913C16.2075 36.8513 18.6175 36.3513 18.9775 35.5013C19.8275 33.4913 21.2675 22.3912 21.2875 22.2812V22.2713C21.2975 22.2213 22.5575 16.7713 23.0075 11.8013C23.3275 8.27125 23.1075 4.99126 22.7775 3.60126C22.7975 4.96126 22.7775 8.44125 22.3275 12.0013C21.7575 16.4613 20.4675 21.0013 20.1375 21.6913C19.5175 23.0113 17.5675 25.2812 14.2075 25.3712C14.1675 25.3712 14.1375 25.3712 14.0975 25.3712C12.3975 25.3712 11.1475 24.2112 10.3975 23.2312C9.45751 22.0012 8.95751 20.6513 8.85751 20.0312C8.61751 18.6612 10.1275 10.2212 10.3575 9.06125V9.05125L12.1275 2.66125Z" fill="#FF0000"/>
<defs>
<linearGradient id="paint0_linear_90_11303" x1="11.3752" y1="22.9306" x2="29.9371" y2="-22.4348" gradientUnits="userSpaceOnUse">
<stop offset="0.1599" stop-color="#BFAB8D"/>
<stop offset="0.5078" stop-color="#E7E1D2"/>
<stop offset="0.7297" stop-color="#CCBFA6"/>
</linearGradient>
<linearGradient id="paint1_linear_90_11303" x1="24.2617" y1="16.929" x2="3.35125" y2="17.8745" gradientUnits="userSpaceOnUse">
<stop offset="0.1599" stop-color="#BFAB8D"/>
<stop offset="0.5078" stop-color="#E7E1D2"/>
<stop offset="0.7297" stop-color="#CCBFA6"/>
</linearGradient>
<linearGradient id="paint2_linear_90_11303" x1="31.2881" y1="40.5936" x2="-3.53445" y2="36.9367" gradientUnits="userSpaceOnUse">
<stop stop-color="#94938C"/>
<stop offset="0.2296" stop-color="#EDEBE1"/>
<stop offset="0.7988" stop-color="#EDEBE1"/>
<stop offset="1" stop-color="#94938C"/>
</linearGradient>
</defs>
</svg>
