<svg width="24" height="42" viewBox="0 0 24 42" fill="none" xmlns="http://www.w3.org/2000/svg">
<path d="M9.5625 39.4889C9.5625 39.4889 12.0125 43.0789 15.7325 40.6289C19.4625 38.1889 11.4825 37.7989 9.5625 39.4889Z" fill="#D8D6D0"/>
<path d="M13.9583 3.87065C14.4783 2.13065 16.2784 2.35065 16.8884 3.92066C18.0584 6.95065 17.4583 10.3507 16.8483 13.4407C16.5683 14.8707 16.0284 20.1607 14.0084 20.3307C12.0084 20.5007 8.34833 15.8006 10.0183 13.1806C10.9183 11.7606 11.9083 10.3807 12.6483 8.87065C13.4583 7.21065 13.4483 5.57065 13.9583 3.87065Z" fill="url(#paint0_linear_90_11320)"/>
<path d="M3.4893 27.1611C3.5593 27.2011 3.75933 26.7311 3.94933 26.7511C4.18933 26.7811 4.4993 26.6911 4.7393 26.6711C5.5793 26.5911 6.42931 26.5111 7.27931 26.4511C9.62931 26.2711 11.9893 26.1711 14.3493 26.2111C15.9893 26.2411 17.6593 26.3311 19.2693 26.6811C20.2593 26.8911 21.5693 27.2111 22.1793 28.1111C22.1793 28.1111 20.8093 22.5911 21.7893 18.3411C22.7693 14.0911 24.0793 2.6511 21.4693 2.3211C19.8293 2.1111 18.5893 5.9411 18.1593 7.0011C17.0193 9.8211 16.1293 12.8311 15.3193 15.8011C15.2993 15.8811 15.2693 15.9711 15.2193 16.0411C14.7793 16.6511 13.2493 16.8911 12.6493 16.4811C12.1493 16.1411 12.0293 15.4711 11.9493 14.8711C11.8093 13.8111 11.6593 12.7511 11.5193 11.6911C11.1793 9.1711 10.8393 6.64109 10.8993 4.09109C10.9193 3.39109 11.7093 -0.16891 10.0193 0.68109C7.1693 2.10109 5.54931 6.04109 4.74931 8.87109C3.67931 12.6911 3.6393 16.7811 3.4893 20.7111C3.4193 22.5211 3.32933 24.3511 3.44933 26.1511C3.48933 26.5211 3.3993 27.1111 3.4893 27.1611Z" fill="url(#paint1_linear_90_11320)"/>
<path d="M4.58664 26.0103C5.46664 25.4003 6.63665 25.3303 7.65665 25.1303C9.18665 24.8203 10.7366 24.5703 12.2966 24.4703C15.7466 24.2603 19.5267 24.9003 21.8467 27.7003C22.6667 28.6903 23.2366 29.8703 23.5266 31.1203C23.8466 32.5203 23.5867 33.4303 23.1367 34.7603C22.7267 35.9803 22.1866 37.2903 21.5266 38.3903C20.8066 39.5803 19.6567 40.6203 18.2167 40.6003C16.6567 40.5803 15.1266 39.9603 14.0866 38.7803C14.0366 38.7203 13.9766 38.6503 13.8966 38.6203C13.8066 38.5803 13.6966 38.6003 13.6066 38.6203C11.5066 39.1003 9.39664 40.4703 7.45664 41.4003C6.52664 41.8403 5.99666 41.9803 5.06666 41.4903C3.89666 40.8703 2.78666 40.1203 1.91666 39.1203C-0.643338 36.1703 0.33664 31.9703 2.20664 28.9303C2.79664 27.9703 3.52666 26.8503 4.41666 26.1403C4.47666 26.0903 4.52664 26.0503 4.58664 26.0103Z" fill="url(#paint2_linear_90_11320)"/>
<path d="M8.59696 3.18124C3.75696 9.43124 5.84695 17.6213 4.55695 24.7713C4.42695 25.5113 4.22696 26.1413 3.87696 26.8213C3.03696 28.4513 2.08695 29.9012 2.02695 31.7612C1.95695 33.9712 2.93695 36.0112 4.55695 37.5612C4.65695 37.6612 4.76695 37.7612 4.89695 37.8112C5.05695 37.8812 5.22695 37.8813 5.39695 37.8913C7.81695 37.9213 10.287 37.3913 12.377 36.2213C12.967 35.8913 13.4369 35.4712 14.1469 35.3112C14.5769 35.2112 15.0669 35.2413 15.4269 35.4713C15.6969 35.6413 15.8769 35.9013 16.1069 36.1113C17.4469 37.3713 19.767 36.4913 20.817 35.3013C21.587 34.4313 21.9769 33.2912 22.0769 32.1512C22.2569 30.1412 21.577 28.1713 21.347 26.1913C20.897 22.1913 21.137 18.2613 21.587 14.2713C21.897 11.5613 22.4269 8.67124 22.2069 5.93124C22.1969 5.84124 22.1869 5.75125 22.1769 5.66125C22.0869 5.08125 22.057 1.39125 20.997 2.30125C20.827 2.44125 20.327 4.13125 20.227 4.33125C19.437 5.93125 19.027 7.74125 18.417 9.41125C17.767 11.1713 17.537 12.8813 16.777 14.6013C16.197 15.9213 15.167 18.2612 13.417 17.7312C12.737 17.5312 11.797 16.2313 11.287 14.6913C10.397 11.9813 10.157 8.40126 10.157 7.77126C10.157 6.80126 10.067 5.83125 10.007 4.86125C9.93696 3.86125 11.127 0.53125 10.387 0.53125C9.63697 0.54125 8.93696 2.74124 8.59696 3.18124Z" fill="#FCF2D9"/>
<path d="M10.0419 0.738281C10.0419 0.738281 8.95188 5.26827 8.04188 7.77827C7.12188 10.2883 5.66186 25.1383 6.58186 27.9583C7.50186 30.7783 17.3619 30.5283 18.1519 28.8183C18.9419 27.1083 20.2419 17.3183 20.2419 17.3183C20.2419 17.3183 20.8519 13.2383 21.2619 9.01828C21.6119 5.51828 21.3019 2.42827 20.9019 1.75827C20.9019 1.75827 20.9519 5.31828 20.4119 9.15828C19.9019 12.8383 19.0219 15.8283 18.7219 16.4183C18.1019 17.6383 16.5719 19.7583 13.6619 19.8383C10.7519 19.9183 9.46188 16.5483 9.25188 15.4383C9.04188 14.3383 9.03187 8.33828 9.28187 7.15828L10.0419 0.738281Z" fill="#D8D8D8"/>
<path d="M12.9388 30.1888C12.5688 30.1888 12.1987 30.1788 11.8387 30.1588C10.4987 30.0788 9.31876 29.8687 8.40876 29.5387C7.34876 29.1587 6.69874 28.6388 6.48874 27.9888C5.88874 26.1388 6.36875 19.6887 6.52875 17.7487C6.90875 13.1687 7.50877 8.95875 7.94877 7.74875C8.84877 5.26875 9.93877 0.75875 9.94877 0.71875L10.1288 0.748749L9.36875 7.17874C9.11875 8.34874 9.13875 14.3687 9.33875 15.4187C9.42875 15.9187 9.78874 17.0288 10.5187 18.0188C11.3787 19.1888 12.4388 19.7688 13.6588 19.7388C14.9188 19.7088 16.0387 19.2787 16.9887 18.4787C17.8187 17.7787 18.3388 16.9487 18.6388 16.3687C18.9588 15.7387 19.8188 12.6987 20.3188 9.13875C20.8488 5.34875 20.8088 1.78874 20.8088 1.75874V1.40875L20.9788 1.70876C21.4188 2.46876 21.6788 5.65875 21.3488 9.02875C20.9388 13.1987 20.3287 17.2888 20.3287 17.3288C20.2787 17.7288 19.0188 27.1488 18.2288 28.8488C17.8288 29.7288 15.3488 30.1888 12.9388 30.1888ZM9.78876 2.13875C9.38876 3.67875 8.71876 6.18876 8.12876 7.81876C7.68876 9.01876 7.09875 13.1988 6.71875 17.7688C6.28875 22.9088 6.26877 26.7088 6.66877 27.9388C7.02877 29.0488 8.96874 29.8087 11.8587 29.9787C12.2387 29.9987 12.6187 30.0087 12.9887 30.0087C15.5287 30.0087 17.7388 29.4987 18.0688 28.7887C18.8488 27.1087 20.1388 17.4088 20.1588 17.3188C20.1688 17.2788 20.7687 13.1888 21.1787 9.01875C21.4687 6.05875 21.2888 3.41875 20.9988 2.27875C20.9888 3.40875 20.9188 6.21875 20.5088 9.16875C20.0088 12.7587 19.1388 15.8188 18.8088 16.4588C18.5088 17.0488 17.9687 17.9087 17.1187 18.6187C16.1287 19.4487 14.9787 19.8887 13.6787 19.9187C12.4087 19.9487 11.2688 19.3288 10.3788 18.1288C9.62876 17.1088 9.26877 15.9687 9.16877 15.4487C8.95877 14.3487 8.93877 8.36875 9.19877 7.13875L9.78876 2.13875Z" fill="#FF0000"/>
<defs>
<linearGradient id="paint0_linear_90_11320" x1="11.3179" y1="19.6133" x2="25.0161" y2="-13.8376" gradientUnits="userSpaceOnUse">
<stop offset="0.1599" stop-color="#BFAB8D"/>
<stop offset="0.5078" stop-color="#E7E1D2"/>
<stop offset="0.7297" stop-color="#CCBFA6"/>
</linearGradient>
<linearGradient id="paint1_linear_90_11320" x1="22.3364" y1="16.6203" x2="4.64859" y2="13.259" gradientUnits="userSpaceOnUse">
<stop offset="0.1599" stop-color="#BFAB8D"/>
<stop offset="0.5078" stop-color="#E7E1D2"/>
<stop offset="0.7297" stop-color="#CCBFA6"/>
</linearGradient>
<linearGradient id="paint2_linear_90_11320" x1="-4.92155" y1="33.0444" x2="28.3637" y2="33.1401" gradientUnits="userSpaceOnUse">
<stop stop-color="#94938C"/>
<stop offset="0.2296" stop-color="#EDEBE1"/>
<stop offset="0.7988" stop-color="#EDEBE1"/>
<stop offset="1" stop-color="#94938C"/>
</linearGradient>
</defs>
</svg>
