<svg width="24" height="42" viewBox="0 0 24 42" fill="none" xmlns="http://www.w3.org/2000/svg">
<path d="M19.184 2.31162C19.714 0.571621 18.104 -0.238375 16.724 0.721625C14.064 2.59162 12.674 5.75162 11.464 8.65162C10.904 9.99162 8.41403 14.6916 9.99403 15.9516C11.564 17.2016 17.2241 15.3316 17.2941 12.2216C17.3341 10.5416 17.274 8.84162 17.504 7.17162C17.744 5.37162 18.664 4.01162 19.184 2.31162Z" fill="url(#paint0_linear_90_11332)"/>
<path d="M3.38706 26.2408C2.42706 19.9308 2.43705 12.3208 5.24705 6.48082C5.89705 5.12082 6.78704 3.88082 7.83704 2.81082C8.24704 2.39082 10.717 -0.139168 11.237 0.490832C11.767 1.12083 11.2871 2.54083 11.1971 3.24083C11.0371 4.42083 10.887 5.60083 10.767 6.78083C10.517 9.18083 9.89704 11.7808 10.547 14.1708C10.687 14.7008 11.0171 15.2208 11.5371 15.3808C11.8071 15.4708 12.1071 15.4508 12.3871 15.3908C14.1671 15.0008 15.447 13.2108 16.547 11.9008C18.107 10.0208 19.0071 7.91083 19.7871 5.61083C20.1671 4.49083 20.597 3.41083 21.557 2.67083C21.787 2.49082 22.247 2.08083 22.607 2.16083C23.767 2.44083 23.367 5.58083 23.327 6.30083C22.997 11.8608 20.717 19.3708 20.717 19.3708C20.717 19.3708 19.737 25.5808 20.717 27.5408C21.687 29.5108 4.69706 29.5108 3.38706 26.2408Z" fill="url(#paint1_linear_90_11332)"/>
<path d="M2.41078 27.2213C2.41078 27.2213 5.02078 24.2812 10.9108 24.2812C16.7908 24.2812 21.0408 26.2413 22.0208 28.8613C23.0008 31.4713 23.3308 38.6713 19.7308 39.9713C18.5908 40.3813 17.3408 40.4913 16.3208 39.7513C15.4408 39.1213 15.1008 37.9712 13.7808 38.4012C13.2008 38.5912 12.7308 38.9913 12.2408 39.3513C10.1008 40.9213 6.46076 42.5512 4.02076 40.7012C0.680762 38.1512 -0.499224 30.4813 2.41078 27.2213Z" fill="url(#paint2_linear_90_11332)"/>
<path d="M3.98996 38.0127C3.72996 37.7827 3.51996 37.4727 3.36996 37.1027C2.80996 35.6527 2.31996 34.1527 2.20996 32.6027C2.12996 31.5127 2.25997 30.3927 2.65997 29.3627C3.07997 28.2927 3.77996 27.3927 4.02996 26.2427C4.17996 25.5727 4.16998 24.8827 4.16998 24.1927C4.13998 19.6227 3.62998 14.7627 4.66998 10.2727C5.21998 7.91274 6.34996 5.87274 7.80996 3.94274C8.36996 3.20274 8.47995 2.34274 9.07995 1.63274C9.21995 1.47274 9.71996 0.882737 10.03 0.752737C10.35 0.622737 10.74 0.292733 10.71 0.622733C10.31 4.59273 9.29998 10.2227 9.75998 14.1927C9.80998 14.6027 10.07 15.9927 11.89 16.0927C13.71 16.2027 14.69 14.8727 15.92 13.4927C17.75 11.4327 19.06 8.94273 20.05 6.43273C20.32 5.74273 21.38 2.21274 22.33 2.07274C22.92 1.98274 22.91 2.99273 22.87 3.70273C22.75 6.11273 22.63 8.56273 21.95 10.9027C21.25 13.3227 20.57 15.6927 20.07 18.1727C19.54 20.7927 18.99 24.5727 20.61 26.8927C22.78 30.0027 22.7 35.3627 19.25 37.6227C18.77 37.9327 18.38 37.9727 17.91 37.6527C16.87 36.9427 15.72 36.3927 14.51 36.0327C14.15 35.9227 13.78 35.8327 13.4 35.8527C12.7 35.8927 12.12 36.5027 11.56 36.8727C10.87 37.3227 10.15 37.7327 9.37997 38.0527C7.85997 38.7127 5.30996 39.2027 3.98996 38.0127Z" fill="#FCF2D9"/>
<path d="M9.48198 0.789062C9.48198 0.789062 8.52197 5.22907 7.69197 7.73907C6.86197 10.2491 5.92197 24.1991 6.75197 27.0091C7.58197 29.8291 16.472 30.0791 17.182 28.3691C17.902 26.6591 19.132 17.5691 19.132 17.5691C19.132 17.5691 20.632 11.1291 21.132 9.35907C21.632 7.58907 22.982 2.45907 22.632 1.77907C22.632 1.77907 19.862 10.4891 20.182 9.44907C20.502 8.40907 17.462 14.7991 17.192 15.3891C16.622 16.6091 14.932 17.8491 12.292 17.9291C9.65198 18.0091 8.98198 16.4891 8.79198 15.3891C8.60198 14.2891 8.59197 8.28907 8.82197 7.10907L9.48198 0.789062Z" fill="#D8D8D8"/>
<path d="M13.3187 29.5391C13.0387 29.5391 12.7587 29.5291 12.4687 29.5191C10.0987 29.3891 7.15864 28.6591 6.67864 27.0491C6.30864 25.7891 6.24864 22.1291 6.51864 17.2691C6.76864 12.8491 7.21863 8.91906 7.60863 7.72906C8.42863 5.24906 9.37866 0.829062 9.38866 0.789062L9.56866 0.819077L8.90865 7.14906C8.67865 8.31906 8.69865 14.3491 8.87865 15.3891C9.16865 17.0791 10.3186 17.9091 12.2786 17.8591C15.0186 17.7791 16.5887 16.4691 17.0987 15.3691C17.2287 15.0891 17.9487 13.5691 18.6587 12.1091C19.0587 11.2791 19.3887 10.6191 19.6287 10.1491C19.7687 9.87906 19.8786 9.65907 19.9586 9.51907C20.0386 9.36907 20.0886 9.28906 20.1486 9.25906C20.4886 8.20906 21.8087 4.06906 22.5387 1.75906L22.6086 1.54907L22.7086 1.73907C23.1286 2.53907 21.4187 8.68907 21.2187 9.37907C20.7287 11.1091 19.2687 17.3891 19.2287 17.5791C19.1687 18.0091 17.9786 26.6991 17.2686 28.3991C17.0486 28.9191 16.2186 29.1891 15.5586 29.3291C14.9286 29.4691 14.1487 29.5391 13.3187 29.5391ZM9.22866 2.29907C8.87866 3.82907 8.29865 6.18907 7.77865 7.76907C6.97865 10.1891 6.00866 24.1491 6.84866 26.9891C7.03866 27.6491 7.73863 28.2191 8.85863 28.6391C9.83863 29.0091 11.1287 29.2591 12.4787 29.3291C14.8687 29.4591 16.8186 29.0391 17.1186 28.3391C17.8186 26.6591 19.0486 17.6591 19.0586 17.5691V17.5591C19.0686 17.4991 20.5586 11.0991 21.0586 9.33907C21.7286 6.94907 22.6086 3.37906 22.6186 2.17906C22.4086 2.82906 21.9586 4.25907 21.4986 5.68907C21.1886 6.65907 20.8786 7.62907 20.6486 8.35907C20.5286 8.71907 20.4386 9.02907 20.3686 9.23907C20.3386 9.34907 20.3087 9.42907 20.2887 9.48907C20.2787 9.51907 20.2687 9.53908 20.2587 9.56908C20.2387 9.62908 20.2087 9.65907 20.1387 9.63907H20.1287C19.5787 10.6191 17.6686 14.6191 17.2786 15.4491C16.7486 16.5991 15.1186 17.9591 12.2986 18.0391C11.0986 18.0691 10.1787 17.7891 9.56866 17.1891C9.12866 16.7591 8.83865 16.1691 8.71865 15.4291C8.52865 14.3291 8.51865 8.34906 8.74865 7.11906L9.22866 2.29907Z" fill="#FF0000"/>
<defs>
<linearGradient id="paint0_linear_90_11332" x1="12.6396" y1="16.8437" x2="19.8502" y2="-18.5758" gradientUnits="userSpaceOnUse">
<stop offset="0.1599" stop-color="#BFAB8D"/>
<stop offset="0.5078" stop-color="#E7E1D2"/>
<stop offset="0.7297" stop-color="#CCBFA6"/>
</linearGradient>
<linearGradient id="paint1_linear_90_11332" x1="-2.13264" y1="14.583" x2="22.8048" y2="14.6731" gradientUnits="userSpaceOnUse">
<stop offset="0.1599" stop-color="#BFAB8D"/>
<stop offset="0.5078" stop-color="#E7E1D2"/>
<stop offset="0.7297" stop-color="#CCBFA6"/>
</linearGradient>
<linearGradient id="paint2_linear_90_11332" x1="-4.45153" y1="32.8489" x2="28.1079" y2="32.9665" gradientUnits="userSpaceOnUse">
<stop stop-color="#94938C"/>
<stop offset="0.2296" stop-color="#EDEBE1"/>
<stop offset="0.7988" stop-color="#EDEBE1"/>
<stop offset="1" stop-color="#94938C"/>
</linearGradient>
</defs>
</svg>
