<svg width="27" height="49" viewBox="0 0 27 49" fill="none" xmlns="http://www.w3.org/2000/svg">
<path d="M10.982 42.4023C10.782 44.3623 12.052 44.8023 12.952 43.4423C14.692 40.8023 15.362 37.1323 15.942 33.7823C16.202 32.2323 17.522 26.6723 16.222 25.7423C14.942 24.8223 11.012 28.2323 11.292 31.5123C11.442 33.2923 11.672 35.0523 11.682 36.8623C11.712 38.8323 11.182 40.4823 10.982 42.4023Z" fill="url(#paint0_linear_90_11430)"/>
<path d="M22.6096 20.1397C21.9196 22.0997 21.3696 24.1397 21.0496 26.1897C20.8396 27.5697 20.8696 28.7997 21.0796 30.1597C21.4296 32.4597 21.4596 34.8497 21.3596 37.1697C21.2096 40.7797 19.4696 43.4997 18.0896 46.7497C17.5796 47.9397 16.3996 48.5697 15.3396 47.4697C13.9896 46.0797 14.3496 43.1497 14.2996 41.3797C14.2296 38.9597 14.1796 36.5297 13.6896 34.1497C13.4796 33.1297 13.1896 32.0997 12.6496 31.2097C12.1196 30.3197 11.1396 29.8797 10.1896 30.5197C8.93958 31.3797 8.64958 33.2497 8.21958 34.5897C7.80958 35.8397 7.44957 37.1097 7.08957 38.3797C6.58957 40.1697 6.11958 41.9697 5.64958 43.7697C5.44958 44.5097 4.79957 46.2597 3.70957 45.4997C3.33957 45.2397 3.15957 44.7997 2.99957 44.3797C2.49957 42.9897 2.08958 41.5697 1.68958 40.1497C1.14958 38.2497 0.649575 36.3497 0.539575 34.3597C0.379575 31.6597 1.44958 28.9797 1.96958 26.3597C2.51958 23.5797 2.86957 20.7497 2.99957 17.9197C3.00957 17.7297 3.01958 17.5297 3.14958 17.3897C3.31958 17.1997 3.60958 17.2197 3.85958 17.2497C6.92957 17.5997 10.0096 17.8897 13.0796 18.2697C15.1596 18.5297 17.2396 18.7997 19.2896 19.1797C20.2096 19.3497 21.9096 19.4297 22.6096 20.1397Z" fill="url(#paint1_linear_90_11430)"/>
<path d="M25.0064 15.8916C25.1064 14.6616 25.0764 13.4216 25.3164 12.2116C25.6764 10.3216 26.6364 8.67155 26.4964 6.67155C26.1664 1.85155 19.4264 1.47155 16.0364 2.81155C14.6264 3.37155 14.0464 2.84155 12.8664 2.09155C11.5864 1.28155 10.0664 0.851562 8.54643 0.851562C6.80643 0.851562 4.89642 1.34155 3.41642 2.26155C1.22642 3.61155 1.22643 5.82155 1.07643 8.15155C0.906425 10.7216 0.966423 13.3716 1.81642 15.8216C2.07642 16.5716 2.41642 17.3116 2.96642 17.8916C3.73642 18.7216 4.71643 18.8316 5.75643 19.0716C7.17643 19.4016 8.61643 19.6716 10.0464 19.9416C12.8564 20.4716 15.6864 20.9016 18.5464 21.0516C19.8964 21.1216 21.3064 20.9816 22.5064 20.3516C24.2464 19.4516 24.8564 17.7416 25.0064 15.8916Z" fill="url(#paint2_linear_90_11430)"/>
<path d="M19.1081 36.2498C19.2381 34.9698 18.8681 33.7198 18.7981 32.3498C18.6981 30.4398 18.4981 28.4998 18.5781 26.5898C18.6681 24.3598 19.0581 22.1398 19.7381 20.0198C20.4281 17.8498 21.4481 15.8098 22.0081 13.5898C22.5281 11.5298 22.9881 8.50979 20.5081 7.58979C18.7881 6.95979 15.4181 8.14979 13.6581 8.05979C11.5581 7.94979 9.33807 5.69979 8.57807 5.33979C4.62807 3.47979 3.42807 12.1998 4.24807 15.0398C5.06807 17.8798 3.72807 25.4398 3.42807 27.5398C3.12807 29.6498 1.79807 33.1198 1.96807 34.3698C2.13807 35.6198 4.11807 43.6098 4.11807 43.6098C4.11807 43.6098 5.31807 39.6998 5.70807 36.0498C6.09807 32.3998 6.95807 28.9198 9.78807 28.1898C12.0281 27.6098 14.8781 30.4398 15.1581 32.7398C15.6281 36.5898 15.8281 42.3498 16.0681 46.2198C16.7081 45.9998 17.4881 43.8798 17.8381 43.3598C18.9381 41.6798 18.9081 38.2698 19.1081 36.2498Z" fill="#FCF2D9"/>
<path d="M4.25853 45.849C4.25853 45.849 4.38853 37.909 4.08853 35.099C3.78853 32.289 6.14853 16.439 7.73853 13.739C9.32853 11.029 18.0385 13.519 18.4085 15.479C18.7785 17.439 18.1785 28.739 18.1785 28.739C18.1785 28.739 18.2285 33.749 17.6285 38.209C17.1285 41.919 16.8285 47.469 16.2785 48.079C16.2785 48.079 16.4885 41.969 16.8785 37.869C17.2585 33.939 17.0085 29.699 16.8485 29.009C16.5185 27.599 15.1285 25.369 12.2585 24.619C9.38853 23.869 6.87853 26.989 6.40853 28.079C5.93853 29.169 5.59853 36.619 5.56853 37.899L4.25853 45.849Z" fill="#D8D8D8"/>
<path d="M16.1906 48.3199L16.2006 48.0699C16.2006 48.0099 16.4206 41.9099 16.8006 37.8499C17.1806 33.8699 16.9306 29.6799 16.7706 29.0199C16.4806 27.7799 15.2006 25.4699 12.2506 24.6999C10.7306 24.2999 9.3806 25.0399 8.5106 25.7199C7.4306 26.5699 6.7306 27.6099 6.5106 28.1099C6.0706 29.1399 5.72059 36.1899 5.67059 37.8999V37.9099L4.36059 45.8699L4.18059 45.8499C4.18059 45.7699 4.3106 37.8799 4.0106 35.1099C3.7106 32.3399 6.05059 16.4499 7.67059 13.6899C8.02059 13.0899 8.72059 12.6999 9.75059 12.5399C10.6306 12.3999 11.7206 12.4399 12.9206 12.6399C15.4306 13.0699 18.2906 14.2699 18.5106 15.4499C18.8806 17.3899 18.3106 28.2199 18.2906 28.7199C18.2906 28.8699 18.3306 33.8199 17.7406 38.1999C17.5706 39.4599 17.4206 40.9299 17.2806 42.3499C16.9906 45.2199 16.7506 47.6899 16.3606 48.1199L16.1906 48.3199ZM11.3806 24.3999C11.6806 24.3999 11.9806 24.4399 12.2906 24.5199C15.3306 25.3099 16.6506 27.6999 16.9506 28.9799C17.1106 29.6499 17.3606 33.8699 16.9806 37.8699C16.6606 41.2699 16.4506 46.0999 16.4006 47.6099C16.6606 46.6899 16.8806 44.4899 17.0906 42.3499C17.2306 40.9299 17.3806 39.4499 17.5506 38.1899C18.1406 33.7799 18.1006 28.7799 18.1006 28.7299C18.1106 28.6199 18.6906 17.4199 18.3306 15.4999C18.1506 14.5299 15.6506 13.3099 12.8906 12.8299C10.3306 12.3899 8.4406 12.7499 7.8306 13.7899C7.0106 15.1899 5.99059 20.1899 5.31059 24.3999C4.52059 29.2799 4.05059 33.7799 4.20059 35.0999C4.43059 37.2299 4.41059 42.3299 4.39059 44.6599L5.5106 37.8899C5.5406 36.8199 5.87059 29.1799 6.36059 28.0399C6.58059 27.5299 7.3106 26.4499 8.4106 25.5799C9.1106 24.9999 10.1706 24.3999 11.3806 24.3999Z" fill="#FF0000"/>
<defs>
<linearGradient id="paint0_linear_90_11430" x1="13.9632" y1="25.5937" x2="16.073" y2="64.3989" gradientUnits="userSpaceOnUse">
<stop offset="0.1599" stop-color="#BFAB8D"/>
<stop offset="0.5078" stop-color="#E7E1D2"/>
<stop offset="0.7297" stop-color="#CCBFA6"/>
</linearGradient>
<linearGradient id="paint1_linear_90_11430" x1="20.0841" y1="34.0279" x2="2.58987" y2="30.6237" gradientUnits="userSpaceOnUse">
<stop stop-color="#BFAB8D"/>
<stop offset="0.5078" stop-color="#E7E1D2"/>
<stop offset="1" stop-color="#CCBFA6"/>
</linearGradient>
<linearGradient id="paint2_linear_90_11430" x1="30.5858" y1="13.9771" x2="-2.71307" y2="7.49756" gradientUnits="userSpaceOnUse">
<stop stop-color="#94938C"/>
<stop offset="0.2114" stop-color="#EDEBE1"/>
<stop offset="0.847" stop-color="#EDEBE1"/>
<stop offset="1" stop-color="#94938C"/>
</linearGradient>
</defs>
</svg>
