<svg width="16" height="66" viewBox="0 0 16 66" fill="none" xmlns="http://www.w3.org/2000/svg">
<path d="M2.53923 25.0781C2.53923 32.6081 0.999227 40.0881 0.649227 47.6181C0.509227 50.6881 0.26924 53.7581 0.31924 56.8281C0.35924 59.2681 0.169235 63.3281 1.68924 65.4081C2.32924 66.2881 4.23923 62.3781 4.41923 62.0081C5.55923 59.6581 6.26923 57.1681 7.14923 54.7181C8.11923 52.0181 9.10924 49.2981 9.90924 46.5481C10.9692 42.8681 11.5792 39.0381 12.2492 35.2681C12.3592 34.6781 13.2792 27.0981 13.6592 27.0381C13.6392 27.0381 4.49923 28.3381 2.53923 25.0781Z" fill="url(#paint0_linear_90_11354)"/>
<path d="M15.1424 1.03812C14.9924 0.89812 14.7324 0.878123 14.2424 0.838123C13.5024 0.778123 12.7224 0.828129 11.9824 0.828129C8.9424 0.838129 5.9024 0.898121 2.8624 0.898121C2.8624 0.898121 -0.0775991 1.54813 0.252401 3.18813C0.582401 4.82813 1.56239 25.0881 2.54239 26.3981C3.52239 27.7081 5.81241 31.9581 10.7124 30.6481C15.6124 29.3381 14.6324 17.8981 14.6324 17.8981C14.5024 15.8281 15.0224 13.5281 15.1624 11.4581C15.3724 8.38813 15.5524 5.27812 15.3724 2.19812C15.3424 1.50812 15.3224 1.19812 15.1424 1.03812Z" fill="url(#paint1_linear_90_11354)"/>
<path d="M13.785 4.51657C13.745 4.46657 13.6951 4.41657 13.6351 4.37657C13.4151 4.22657 13.135 4.22656 12.865 4.22656C11.425 4.26656 9.98505 4.30657 8.53505 4.34657C7.24505 4.38657 5.43505 4.09657 4.20505 4.46657C3.32505 4.72657 3.67505 4.32656 3.31505 5.05656C3.07505 5.55656 3.31505 6.79656 3.31505 7.36656C3.31505 9.60656 3.28505 11.8366 3.46505 14.0766C3.95505 20.3766 3.69505 26.8966 3.17505 33.2566C2.66505 39.5566 1.48504 45.9466 1.43504 52.2766C1.40504 56.2566 -0.104946 61.8066 1.85505 65.4966C3.69505 64.5266 4.34505 60.5066 4.70505 58.6366C5.19505 56.0766 5.38505 53.4666 5.92505 50.9066C7.26505 44.5466 8.80505 38.2366 10.535 31.9766C12.885 23.4966 13.635 14.2666 13.955 5.47656C13.975 5.14656 13.965 4.77657 13.785 4.51657Z" fill="#FCF2D9"/>
<path d="M10.2681 9.62086C10.4781 10.6409 9.97813 15.5909 9.76813 17.1109C9.47813 19.2909 7.10813 32.4209 6.43813 36.8809C5.57813 42.6209 4.71812 48.3809 3.92812 54.1609C3.75812 55.4109 2.41813 65.9009 2.18813 65.5609C2.10813 65.4709 2.07812 65.5409 2.07812 65.3109C2.07812 61.5709 2.43812 57.3709 2.78812 53.3809C3.29812 47.5609 3.71813 41.7709 4.15813 35.9709C4.46813 31.9309 5.26813 20.4009 5.54813 18.4109C5.82813 16.3709 6.46813 10.8609 6.87813 9.99087C7.33813 9.03087 8.09813 8.33087 8.48813 8.46087C9.01813 8.62087 10.0581 8.60086 10.2681 9.62086Z" fill="#D8D8D8"/>
<path d="M2.20782 65.6499C2.17782 65.6499 2.14782 65.6299 2.12782 65.6099C2.11782 65.5999 2.10782 65.5899 2.09782 65.5799C2.01782 65.5299 2.00781 65.4799 2.00781 65.2999C2.00781 61.5099 2.38782 57.1799 2.71782 53.3599C3.09782 48.9999 3.43781 44.5799 3.75781 40.3099C3.86781 38.8599 3.97781 37.3999 4.08781 35.9499C4.16781 34.9199 4.27782 33.4299 4.40782 31.6999C4.77782 26.7099 5.27781 19.8699 5.47781 18.3799C5.53781 17.9699 5.60782 17.4299 5.68782 16.8099C6.02782 14.2099 6.48783 10.6499 6.81783 9.93995C7.29783 8.92995 8.08781 8.20994 8.53781 8.36994C8.63781 8.39994 8.75782 8.42995 8.88782 8.45995C9.42782 8.57995 10.1778 8.73994 10.3578 9.60994C10.5778 10.6599 10.0578 15.6799 9.85782 17.1299C9.71782 18.1699 9.12781 21.5699 8.44781 25.5199C7.71781 29.7599 6.87782 34.5599 6.52782 36.9099C5.74782 42.0999 4.84782 48.1399 4.01782 54.1799C3.99782 54.3399 3.95781 54.6699 3.89781 55.0999C2.51781 65.5899 2.36781 65.6299 2.22781 65.6599C2.21781 65.6499 2.21782 65.6499 2.20782 65.6499ZM8.40782 8.52994C8.05782 8.52994 7.40782 9.12995 6.98782 10.0199C6.66782 10.6999 6.18781 14.3899 5.86781 16.8299C5.78781 17.4599 5.71782 17.9999 5.65782 18.4099C5.44782 19.8999 4.94781 26.7299 4.58781 31.7199C4.45781 33.4499 4.34782 34.9399 4.26782 35.9699C4.15782 37.4199 4.04782 38.8799 3.93782 40.3299C3.61782 44.5999 3.27781 49.0199 2.89781 53.3799C2.56781 57.1899 2.18782 61.5199 2.18782 65.2999C2.18782 65.3699 2.18781 65.4 2.19781 65.42C2.38781 64.82 2.90781 61.35 3.72781 55.07C3.78781 54.63 3.82782 54.3099 3.84782 54.1499C4.67782 48.1099 5.57782 42.0599 6.35782 36.8699C6.70782 34.5199 7.54782 29.7199 8.27782 25.4799C8.92782 21.6999 9.54782 18.1299 9.68782 17.0999C9.91782 15.3599 10.3878 10.5999 10.1878 9.63994C10.0278 8.87994 9.37782 8.73995 8.85782 8.62995C8.72782 8.59995 8.59782 8.56994 8.48782 8.53994C8.45782 8.52994 8.42782 8.52994 8.40782 8.52994Z" fill="#FF0000"/>
<defs>
<linearGradient id="paint0_linear_90_11354" x1="12.5659" y1="45.2648" x2="-3.73926" y2="45.3237" gradientUnits="userSpaceOnUse">
<stop stop-color="#BFAB8D"/>
<stop offset="0.5078" stop-color="#E7E1D2"/>
<stop offset="1" stop-color="#CCBFA6"/>
</linearGradient>
<linearGradient id="paint1_linear_90_11354" x1="17.7023" y1="15.8146" x2="-1.8407" y2="15.8852" gradientUnits="userSpaceOnUse">
<stop stop-color="#94938C"/>
<stop offset="0.2296" stop-color="#EDEBE1"/>
<stop offset="0.7988" stop-color="#EDEBE1"/>
<stop offset="1" stop-color="#94938C"/>
</linearGradient>
</defs>
</svg>
