<svg width="16" height="66" viewBox="0 0 16 66" fill="none" xmlns="http://www.w3.org/2000/svg">
<path d="M13.245 25.0781C13.245 32.6081 14.785 40.0881 15.135 47.6181C15.275 50.6881 15.515 53.7581 15.465 56.8281C15.425 59.2681 15.615 63.3281 14.095 65.4081C13.455 66.2881 11.545 62.3781 11.365 62.0081C10.225 59.6581 9.51501 57.1681 8.63501 54.7181C7.66501 52.0181 6.675 49.2981 5.875 46.5481C4.815 42.8681 4.205 39.0381 3.535 35.2681C3.425 34.6781 2.505 27.0981 2.125 27.0381C2.135 27.0381 11.285 28.3381 13.245 25.0781Z" fill="url(#paint0_linear_90_11348)"/>
<path d="M0.631958 1.03812C0.781958 0.89812 1.04195 0.878123 1.53195 0.838123C2.27195 0.778123 3.05195 0.828129 3.79195 0.828129C6.83195 0.838129 9.87196 0.898121 12.912 0.898121C12.912 0.898121 15.8519 1.54813 15.5219 3.18813C15.1919 4.82813 14.2119 25.0881 13.2319 26.3981C12.2519 27.7081 9.96195 31.9581 5.06195 30.6481C0.161951 29.3381 1.14195 17.8981 1.14195 17.8981C1.27195 15.8281 0.751954 13.5281 0.611954 11.4581C0.401954 8.38813 0.221947 5.27812 0.401947 2.19812C0.441947 1.50812 0.451958 1.19812 0.631958 1.03812Z" fill="url(#paint1_linear_90_11348)"/>
<path d="M1.98985 4.51657C2.02985 4.46657 2.07985 4.41657 2.13985 4.37657C2.35985 4.22657 2.63985 4.22656 2.90985 4.22656C4.34985 4.26656 5.78985 4.30657 7.23985 4.34657C8.52985 4.38657 10.3399 4.09657 11.5699 4.46657C12.4499 4.72657 12.0999 4.32656 12.4599 5.05656C12.6999 5.55656 12.4599 6.79656 12.4599 7.36656C12.4599 9.60656 12.4898 11.8366 12.3098 14.0766C11.8198 20.3766 12.0799 26.8966 12.5999 33.2566C13.1099 39.5566 14.2898 45.9466 14.3398 52.2766C14.3698 56.2566 15.8798 61.8066 13.9198 65.4966C12.0798 64.5266 11.4299 60.5066 11.0699 58.6366C10.5799 56.0766 10.3899 53.4666 9.84985 50.9066C8.50985 44.5466 6.96985 38.2366 5.23985 31.9766C2.88985 23.4966 2.13985 14.2666 1.81985 5.47656C1.79985 5.14656 1.80985 4.77657 1.98985 4.51657Z" fill="#FCF2D9"/>
<path d="M5.37859 9.62086C5.16859 10.6409 5.66859 15.5909 5.87859 17.1109C6.16859 19.2909 8.53859 32.4209 9.20859 36.8809C10.0686 42.6209 10.9286 48.3809 11.7186 54.1609C11.8886 55.4109 13.2286 65.9009 13.4586 65.5609C13.5386 65.4709 13.5686 65.5409 13.5686 65.3109C13.5686 61.5709 13.2086 57.3709 12.8586 53.3809C12.3486 47.5609 11.9286 41.7709 11.4886 35.9709C11.1786 31.9309 10.3786 20.4009 10.0986 18.4109C9.81859 16.3709 9.17859 10.8609 8.76859 9.99087C8.30859 9.03087 7.54859 8.33087 7.15859 8.46087C6.62859 8.62087 5.58859 8.60086 5.37859 9.62086Z" fill="#D8D8D8"/>
<path d="M13.4376 65.6496C13.4276 65.6496 13.4176 65.6496 13.4176 65.6496C13.2776 65.6196 13.1276 65.5796 11.7476 55.0896C11.6876 54.6496 11.6476 54.3296 11.6276 54.1696C10.7976 48.1296 9.89763 42.0896 9.11763 36.8996C8.76763 34.5496 7.92763 29.7496 7.19763 25.5096C6.51763 21.5596 5.92763 18.1596 5.78763 17.1196C5.58763 15.6696 5.06763 10.6496 5.28763 9.59964C5.46763 8.72964 6.21763 8.56963 6.75763 8.44963C6.88763 8.41963 7.00763 8.39964 7.10763 8.35964C7.56763 8.20964 8.35763 8.92963 8.82763 9.92963C9.15763 10.6396 9.62764 14.1996 9.95764 16.7996C10.0376 17.4296 10.1076 17.9696 10.1676 18.3696C10.3776 19.8596 10.8776 26.6996 11.2376 31.6896C11.3676 33.4196 11.4776 34.9096 11.5576 35.9396C11.6676 37.3896 11.7776 38.8396 11.8876 40.2996C12.2076 44.5696 12.5476 48.9896 12.9276 53.3496C13.2576 57.1696 13.6376 61.4896 13.6376 65.2896C13.6376 65.4696 13.6176 65.5196 13.5476 65.5696C13.5376 65.5796 13.5276 65.5796 13.5176 65.5996C13.4976 65.6396 13.4676 65.6496 13.4376 65.6496ZM7.23764 8.52963C7.20764 8.52963 7.18764 8.52963 7.15764 8.53963C7.04764 8.57963 6.92763 8.59964 6.78763 8.62964C6.26763 8.73964 5.61764 8.87963 5.45764 9.63963C5.25764 10.5996 5.71764 15.3596 5.95764 17.0996C6.09764 18.1296 6.71763 21.6996 7.36763 25.4796C8.09763 29.7196 8.93763 34.5196 9.28763 36.8696C10.0676 42.0596 10.9676 48.1096 11.7976 54.1496C11.8176 54.3096 11.8576 54.6396 11.9176 55.0696C12.7476 61.3496 13.2576 64.8196 13.4476 65.4196C13.4476 65.3996 13.4576 65.3696 13.4576 65.2996C13.4576 61.5096 13.0776 57.1896 12.7476 53.3796C12.3676 49.0196 12.0276 44.5996 11.7076 40.3296C11.5976 38.8796 11.4876 37.4296 11.3776 35.9696C11.2976 34.9396 11.1876 33.4496 11.0576 31.7196C10.6876 26.7296 10.1876 19.8996 9.98764 18.4096C9.92764 17.9996 9.85763 17.4596 9.77763 16.8296C9.45763 14.3896 8.97764 10.6996 8.65764 10.0196C8.23764 9.12964 7.58764 8.52963 7.23764 8.52963Z" fill="#FF0000"/>
<defs>
<linearGradient id="paint0_linear_90_11348" x1="3.2103" y1="45.2648" x2="19.5156" y2="45.3237" gradientUnits="userSpaceOnUse">
<stop stop-color="#BFAB8D"/>
<stop offset="0.5078" stop-color="#E7E1D2"/>
<stop offset="1" stop-color="#CCBFA6"/>
</linearGradient>
<linearGradient id="paint1_linear_90_11348" x1="-1.92595" y1="15.8146" x2="17.617" y2="15.8852" gradientUnits="userSpaceOnUse">
<stop stop-color="#94938C"/>
<stop offset="0.2296" stop-color="#EDEBE1"/>
<stop offset="0.7988" stop-color="#EDEBE1"/>
<stop offset="1" stop-color="#94938C"/>
</linearGradient>
</defs>
</svg>
