<svg width="18" height="52" viewBox="0 0 18 52" fill="none" xmlns="http://www.w3.org/2000/svg">
<path d="M2.82812 20.8205C2.82812 20.8205 9.03813 46.3105 14.2681 50.5605C19.4981 54.8105 16.8781 46.3105 16.8781 46.3105C16.8781 46.3105 14.9182 30.6205 14.9182 27.6805C14.9182 24.7405 15.9581 19.2305 15.9581 19.2305C15.9581 19.2305 5.88812 21.4005 2.82812 20.8205Z" fill="url(#paint0_linear_90_11382)"/>
<path d="M2.49669 1.54187C2.49669 1.54187 -0.773315 3.17187 0.206685 7.75187C1.18668 12.3319 0.856678 14.9419 0.856678 14.9419C0.856678 14.9419 1.5067 22.7819 7.0667 23.1119C12.6267 23.4419 16.2167 20.1719 16.5467 18.2119C16.8767 16.2519 16.8767 10.6919 17.1967 9.71188C17.5267 8.73188 18.5067 2.52187 15.2367 1.54187C11.9667 0.561866 10.0067 0.231869 10.0067 0.231869C10.0067 0.231869 6.74669 -0.748134 2.49669 1.54187Z" fill="url(#paint1_linear_90_11382)"/>
<path d="M16.1057 51.7034C16.1057 51.7034 5.24575 24.6134 4.81575 21.8234C4.39575 19.0334 -0.374277 5.22344 3.60572 4.44344C7.58572 3.65344 10.0258 4.09344 12.3858 4.00344C14.7458 3.91344 15.7957 4.61344 15.5357 5.49344C15.2757 6.37344 15.5357 15.8034 14.4857 18.7734C13.4357 21.7434 15.0457 45.0034 15.7457 46.5734C17.6257 51.6734 17.0657 51.9634 16.1057 51.7034Z" fill="#FCF2D9"/>
<path d="M9.43861 6.91091C9.90861 7.65091 10.7086 11.6509 10.9086 12.8909C11.1986 14.6709 12.3386 25.5609 12.8586 29.2209C13.5286 33.9409 13.7986 38.9509 14.5486 43.6709C14.7086 44.6909 17.1786 52.0509 16.8686 51.8409C16.7686 51.7909 14.1586 46.3609 13.4586 43.1509C12.4286 38.4709 11.5186 33.7609 10.4386 29.1109C9.68861 25.8809 7.44862 16.6609 7.19862 15.0309C6.93862 13.3609 6.11861 8.89091 6.28861 8.10091C6.47861 7.22091 7.02861 6.48091 7.43861 6.47091C7.97861 6.47091 8.96861 6.18091 9.43861 6.91091Z" fill="#D8D8D8"/>
<path d="M16.892 51.94C16.872 51.94 16.852 51.9401 16.832 51.9201C16.802 51.9001 16.742 51.8401 16.322 50.9501C16.142 50.5601 15.762 49.76 15.322 48.71C14.642 47.12 13.762 44.87 13.382 43.16C12.972 41.28 12.572 39.36 12.182 37.51C11.602 34.75 11.012 31.9 10.362 29.13C10.172 28.31 9.88202 27.11 9.56202 25.73C8.61202 21.73 7.31202 16.26 7.12202 15.04C7.07202 14.71 6.99203 14.27 6.91203 13.76C6.56203 11.64 6.07201 8.73004 6.21201 8.08004C6.40201 7.18004 6.98203 6.39004 7.45203 6.38004C7.55203 6.38004 7.68202 6.37005 7.81202 6.35005C8.36202 6.29005 9.12201 6.22005 9.52201 6.85005C10.012 7.61005 10.822 11.68 11.012 12.86C11.152 13.71 11.472 16.53 11.842 19.79C12.242 23.3 12.692 27.27 12.962 29.2C13.272 31.36 13.492 33.62 13.712 35.8C13.972 38.4 14.242 41.08 14.652 43.64C14.722 44.09 15.262 45.83 15.782 47.52C17.052 51.61 17.072 51.82 16.952 51.91C16.942 51.93 16.922 51.94 16.892 51.94ZM8.36201 6.50004C8.18201 6.50004 8.00201 6.52003 7.83201 6.54003C7.69201 6.55003 7.57201 6.57005 7.46201 6.57005C7.12201 6.57005 6.58202 7.25004 6.40202 8.12004C6.27202 8.73004 6.77203 11.74 7.10203 13.73C7.19203 14.24 7.26202 14.68 7.31202 15.02C7.50202 16.23 8.80202 21.7 9.75202 25.7C10.082 27.08 10.362 28.28 10.552 29.1C11.202 31.88 11.792 34.73 12.372 37.49C12.762 39.34 13.162 41.26 13.572 43.14C14.172 45.86 16.092 50.0801 16.742 51.3901C16.542 50.6201 16.042 48.97 15.612 47.59C15.062 45.82 14.552 44.15 14.472 43.69C14.062 41.12 13.792 38.44 13.532 35.84C13.312 33.66 13.082 31.4 12.782 29.24C12.512 27.31 12.052 23.34 11.662 19.83C11.302 16.7 10.972 13.75 10.832 12.91C10.602 11.49 9.81202 7.66004 9.37202 6.97004C9.13202 6.59004 8.75201 6.50004 8.36201 6.50004Z" fill="#FF0000"/>
<defs>
<linearGradient id="paint0_linear_90_11382" x1="16.087" y1="35.4962" x2="4.53063" y2="35.5379" gradientUnits="userSpaceOnUse">
<stop stop-color="#BFAB8D"/>
<stop offset="0.5078" stop-color="#E7E1D2"/>
<stop offset="1" stop-color="#CCBFA6"/>
</linearGradient>
<linearGradient id="paint1_linear_90_11382" x1="20.8828" y1="11.5332" x2="-3.28412" y2="11.6205" gradientUnits="userSpaceOnUse">
<stop stop-color="#94938C"/>
<stop offset="0.2296" stop-color="#EDEBE1"/>
<stop offset="0.4283" stop-color="#EDEBE1"/>
<stop offset="0.7988" stop-color="#EDEBE1"/>
<stop offset="1" stop-color="#94938C"/>
</linearGradient>
</defs>
</svg>
