<svg width="29" height="51" viewBox="0 0 29 51" fill="none" xmlns="http://www.w3.org/2000/svg">
<path d="M9.38694 0.939517C8.07694 1.02952 7.05691 1.40951 5.98691 2.14951C5.69691 2.34951 5.41693 2.58952 5.47693 2.87952C5.74693 4.21952 15.6169 3.13952 15.5269 1.96952C15.4669 1.26952 12.2569 1.08951 11.5369 1.00951C10.7169 0.929509 10.0169 0.899517 9.38694 0.939517Z" fill="#D8D6D0"/>
<path d="M19.5534 46.3085C20.2334 48.4685 18.6334 49.3585 17.1534 48.0685C14.2934 45.5885 12.6334 41.6085 11.1734 37.9685C10.4934 36.2785 7.60336 30.3485 9.12336 28.9185C10.6334 27.4985 16.5734 30.2085 16.8734 34.0085C17.0334 36.0685 17.1034 38.1485 17.4634 40.2085C17.8534 42.4585 18.8934 44.1885 19.5534 46.3085Z" fill="url(#paint0_linear_90_11406)"/>
<path d="M2.78345 21.0387C2.97345 21.8087 3.13346 22.5987 3.17346 22.7487C3.49346 24.0587 3.76346 25.3787 3.98346 26.6987C4.16346 27.7787 4.30345 28.8787 4.41345 29.9688C4.51345 31.0287 4.42345 32.1988 4.63345 33.2388C4.83345 34.2588 5.19346 35.3388 5.54346 36.3288C6.58346 39.2988 8.15346 42.0688 10.0135 44.5988C10.9535 45.8688 11.9634 47.0788 13.0334 48.2388C13.6934 48.9488 15.0834 51.0587 16.2434 50.1787C16.6834 49.8487 16.8535 49.2588 16.8235 48.7188C16.7935 48.1787 16.5934 47.6587 16.4034 47.1387C14.9434 43.1887 13.5635 38.2988 14.3835 34.0688C14.4735 33.6288 14.6035 33.1688 14.9235 32.8488C15.3435 32.4288 16.0035 32.3388 16.5735 32.4888C17.1435 32.6488 17.6234 33.0187 18.0534 33.4287C19.5034 34.8387 20.5335 36.8187 21.4235 38.6187C22.0935 39.9787 22.5834 41.4387 22.8734 42.9287C23.1434 44.3587 22.9134 46.0587 23.4934 47.3987C23.8134 48.1487 24.5335 48.7988 25.3535 48.7688C25.9935 48.7488 26.5534 48.3387 26.9734 47.8587C28.5234 46.0887 28.8134 43.2787 28.9034 41.0287C29.0134 38.1887 28.6135 35.3688 28.1735 32.5688C27.5735 28.7688 26.8035 24.9887 25.9435 21.2287C25.9135 21.0787 25.4435 18.7188 25.3535 18.7188C25.3535 18.7188 2.48344 19.3487 2.27344 19.3587C2.35344 19.3887 2.58345 20.2087 2.78345 21.0387Z" fill="url(#paint1_linear_90_11406)"/>
<path d="M20.6831 0.768937C19.4931 0.698937 18.5331 0.95893 17.4531 1.55893C17.1631 1.71893 16.8731 1.92893 16.8831 2.21893C16.9131 3.56893 25.893 3.67893 25.993 2.50893C26.053 1.81893 23.213 1.24893 22.583 1.08893C21.873 0.908929 21.2531 0.798937 20.6831 0.768937Z" fill="#D8D6D0"/>
<path d="M4.72959 1.81842C3.77959 1.91842 2.87956 2.27841 2.10956 3.08841C1.10956 4.12841 0.609564 5.56841 0.489564 7.00841C0.229564 10.0884 0.749563 13.7484 1.51956 16.7284C1.75956 17.6784 1.78958 19.6684 2.43958 20.3984C4.45958 22.6684 8.89957 21.5684 11.5896 21.3784C14.6696 21.1684 17.9796 21.0584 20.7396 20.3984C22.5696 20.3084 25.9196 20.7084 26.4696 18.2984C27.1096 15.5284 27.4996 12.6984 27.6296 9.85841C27.7296 7.73841 28.0396 2.49841 24.9896 2.08841C24.5396 2.02841 23.7896 2.52842 23.3396 2.62842C22.4096 2.83842 21.4996 2.80842 20.5696 2.56842C19.4296 2.26842 18.3696 1.71841 17.2796 1.27841C17.0396 1.17841 16.7996 1.08842 16.5396 1.09842C15.9596 1.11842 15.5296 1.61841 15.0596 1.96841C13.0996 3.44841 9.57958 2.67841 7.40958 2.10841C6.51958 1.86841 5.59959 1.72842 4.72959 1.81842Z" fill="url(#paint2_linear_90_11406)"/>
<path d="M7.25599 35.9174C7.89599 37.7274 9.00599 39.2374 10.006 40.8974C10.376 41.5074 13.376 47.2674 14.086 46.0374C14.226 45.7974 14.186 45.5074 14.136 45.2474C13.356 40.8074 11.356 36.1974 13.476 31.7774C13.726 31.2574 14.036 30.7574 14.496 30.3774C15.676 29.4074 17.406 29.8374 18.546 30.6474C21.446 32.7074 22.536 36.0174 23.676 39.0674C24.236 40.5474 24.756 42.2774 25.766 43.5674C26.956 45.0974 27.356 43.1474 27.486 42.0974C27.876 39.0774 27.896 36.0074 27.506 32.9874C27.246 30.9374 26.916 28.8674 26.226 26.8974C25.596 25.0874 24.336 23.4274 24.136 21.4974C23.776 18.1174 27.486 10.9974 24.716 8.63743C23.646 8.15743 22.406 8.06744 21.246 7.87744C19.266 7.54744 17.246 7.50743 15.246 7.61743C12.206 7.78743 7.55598 7.68743 5.39598 9.89743C3.64598 11.6874 4.03598 14.2574 4.27598 16.5774C4.59598 19.7074 5.51597 23.0674 5.82597 26.1974C6.12597 29.1874 6.24597 32.3474 7.04597 35.2674C7.11597 35.4774 7.17599 35.6974 7.25599 35.9174Z" fill="#FCF2D9"/>
<path d="M26.3343 48.5485C26.3343 48.5485 26.2443 40.4385 26.2143 37.2685C26.1843 34.0985 21.5443 16.7585 19.4343 13.9485C17.3243 11.1385 7.94432 15.0185 7.77432 17.2385C7.61432 19.4685 9.71433 31.9685 9.71433 31.9685C9.71433 31.9685 10.2943 37.5485 11.5343 42.4485C12.5643 46.5085 14.7943 49.6185 15.4843 50.2285C15.4843 50.2285 13.2743 46.4985 12.3243 41.9785C11.4043 37.6485 11.1343 32.8985 11.2243 32.1085C11.4043 30.4985 12.6743 27.8385 15.7743 26.6385C18.8743 25.4385 22.0643 28.5885 22.7243 29.7485C23.3943 30.9085 24.7143 39.1485 24.9143 40.5685L26.3343 48.5485Z" fill="#D8D8D8"/>
<path d="M15.8676 50.6783L15.4376 50.2983C14.7776 49.7183 12.5176 46.6583 11.4576 42.4783C10.2376 37.6783 9.65765 32.1483 9.63765 31.9883C9.54765 31.4383 7.52765 19.4483 7.69765 17.2383C7.75765 16.4283 8.90764 15.5883 9.58764 15.1583C10.6876 14.4583 12.1376 13.8283 13.5576 13.4083C14.8576 13.0283 16.0776 12.8483 17.0676 12.8883C18.2276 12.9383 19.0476 13.2783 19.5176 13.9083C21.6676 16.7783 26.2976 34.1583 26.3176 37.2783C26.3376 40.4083 26.4276 48.4783 26.4376 48.5583L26.2577 48.5783L24.8476 40.5983C24.5776 38.6983 23.2877 30.8983 22.6677 29.7983C22.3677 29.2683 21.4477 28.1983 20.1377 27.3883C19.0777 26.7383 17.4676 26.0883 15.8276 26.7283C12.6276 27.9683 11.4976 30.7083 11.3376 32.1283C11.2476 32.8883 11.4976 37.5783 12.4376 41.9683C13.3776 46.4183 15.5676 50.1483 15.5876 50.1883L15.8676 50.6783ZM16.7776 13.0583C15.8576 13.0583 14.7776 13.2383 13.6076 13.5783C10.5876 14.4683 7.95765 16.1483 7.87765 17.2583C7.71765 19.4483 9.79765 31.8383 9.81765 31.9683V31.9783C9.82765 32.0383 10.4077 37.6083 11.6377 42.4383C12.1977 44.6383 13.0877 46.4583 13.7277 47.5983C14.2077 48.4383 14.6776 49.1283 15.0476 49.5983C14.3776 48.3083 12.9576 45.3583 12.2476 42.0083C11.3176 37.6083 11.0576 32.8783 11.1476 32.1083C11.3176 30.6483 12.4777 27.8283 15.7577 26.5583C17.4677 25.8983 19.1377 26.5583 20.2277 27.2383C21.5677 28.0683 22.5076 29.1683 22.8176 29.7083C23.5076 30.9183 24.8576 39.3983 25.0176 40.5683L26.2277 47.4483C26.1977 45.1183 26.1376 39.7083 26.1276 37.2783C26.1176 35.7883 25.0176 30.8383 23.5276 25.5083C21.8476 19.5483 20.2976 15.2483 19.3676 14.0183C18.9376 13.4383 18.1576 13.1183 17.0576 13.0783C16.9676 13.0583 16.8676 13.0583 16.7776 13.0583Z" fill="#FF0000"/>
<defs>
<linearGradient id="paint0_linear_90_11406" x1="11.7925" y1="28.0475" x2="19.5541" y2="72.3396" gradientUnits="userSpaceOnUse">
<stop offset="0.1599" stop-color="#BFAB8D"/>
<stop offset="0.5078" stop-color="#E7E1D2"/>
<stop offset="0.7297" stop-color="#CCBFA6"/>
</linearGradient>
<linearGradient id="paint1_linear_90_11406" x1="4.82424" y1="34.5165" x2="27.3512" y2="34.5979" gradientUnits="userSpaceOnUse">
<stop stop-color="#BFAB8D"/>
<stop offset="0.5078" stop-color="#E7E1D2"/>
<stop offset="1" stop-color="#CCBFA6"/>
</linearGradient>
<linearGradient id="paint2_linear_90_11406" x1="-5.28464" y1="11.3833" x2="33.5609" y2="11.5237" gradientUnits="userSpaceOnUse">
<stop stop-color="#94938C"/>
<stop offset="0.2296" stop-color="#EDEBE1"/>
<stop offset="0.7988" stop-color="#EDEBE1"/>
<stop offset="1" stop-color="#94938C"/>
</linearGradient>
</defs>
</svg>
