<svg width="27" height="48" viewBox="0 0 27 48" fill="none" xmlns="http://www.w3.org/2000/svg">
<path d="M16.1553 41.8125C16.3553 43.7725 15.0853 44.2125 14.1853 42.8525C12.4453 40.2125 11.7753 36.5425 11.1953 33.1925C10.9353 31.6425 9.61529 26.0824 10.9153 25.1524C12.1953 24.2324 16.1253 27.6425 15.8453 30.9225C15.6953 32.7025 15.4653 34.4625 15.4553 36.2725C15.4253 38.2425 15.9553 39.8925 16.1553 41.8125Z" fill="url(#paint0_linear_90_11422)"/>
<path d="M4.53125 19.5499C5.22125 21.5099 5.77125 23.5499 6.09125 25.5999C6.30125 26.9799 6.27125 28.2099 6.06125 29.5699C5.71125 31.8699 5.68125 34.2599 5.78125 36.5799C5.93125 40.1899 7.67124 42.9099 9.05124 46.1599C9.56124 47.3499 10.7412 47.9799 11.8012 46.8799C13.1512 45.4899 12.7912 42.5599 12.8412 40.7899C12.9112 38.3699 12.9613 35.9399 13.4513 33.5599C13.6613 32.5399 13.9512 31.5099 14.4912 30.6199C15.0212 29.7299 16.0013 29.2899 16.9513 29.9299C18.2013 30.7899 18.4913 32.6599 18.9213 33.9999C19.3313 35.2499 19.6912 36.5199 20.0512 37.7899C20.5512 39.5799 21.0212 41.3799 21.4912 43.1799C21.6912 43.9199 22.3412 45.6699 23.4312 44.9099C23.8012 44.6499 23.9813 44.2099 24.1413 43.7899C24.6413 42.3999 25.0513 40.9799 25.4513 39.5599C25.9913 37.6599 26.4913 35.7599 26.6013 33.7699C26.7613 31.0699 25.6913 28.3899 25.1713 25.7699C24.6213 22.9899 24.2713 20.1599 24.1413 17.3299C24.1313 17.1399 24.1212 16.9399 23.9912 16.7999C23.8212 16.6099 23.5312 16.6299 23.2812 16.6599C20.2113 17.0099 17.1312 17.2999 14.0612 17.6799C11.9812 17.9399 9.90126 18.2099 7.85126 18.5899C6.93126 18.7599 5.23125 18.8499 4.53125 19.5499Z" fill="url(#paint1_linear_90_11422)"/>
<path d="M2.12883 15.3017C2.02883 14.0717 2.05883 12.8317 1.81883 11.6217C1.45883 9.73172 0.498838 8.08173 0.638838 6.08173C0.968838 1.26173 7.70883 0.881725 11.0988 2.22173C12.5088 2.78173 13.0888 2.25172 14.2688 1.50172C15.5488 0.691724 17.0688 0.261719 18.5888 0.261719C20.3288 0.261719 22.2388 0.751722 23.7188 1.67172C25.9088 3.02172 25.9088 5.23172 26.0588 7.56172C26.2288 10.1317 26.1688 12.7817 25.3188 15.2317C25.0588 15.9817 24.7188 16.7217 24.1688 17.3017C23.3988 18.1317 22.4188 18.2417 21.3788 18.4817C19.9588 18.8117 18.5188 19.0817 17.0888 19.3517C14.2788 19.8817 11.4488 20.3117 8.58882 20.4617C7.23882 20.5317 5.82883 20.3917 4.62883 19.7617C2.88883 18.8617 2.27883 17.1617 2.12883 15.3017Z" fill="url(#paint2_linear_90_11422)"/>
<path d="M8.0297 35.66C7.8997 34.38 8.2697 33.1299 8.3397 31.7599C8.4397 29.8499 8.6397 27.9099 8.5597 25.9999C8.4697 23.7699 8.0797 21.5499 7.3997 19.4299C6.7097 17.2599 5.68971 15.2199 5.12971 12.9999C4.60971 10.9399 4.14971 7.91995 6.62971 6.99995C8.34971 6.36995 11.7197 7.55995 13.4797 7.46995C15.5797 7.35995 17.7997 5.10995 18.5597 4.74995C22.5097 2.88995 23.7097 11.6099 22.8897 14.4499C22.0697 17.2899 23.4097 24.8499 23.7097 26.9499C24.0097 29.0599 25.3397 32.5299 25.1697 33.7799C24.9997 35.0299 23.0197 43.02 23.0197 43.02C23.0197 43.02 21.8197 39.11 21.4297 35.46C21.0397 31.81 20.1797 28.33 17.3497 27.6C15.1097 27.02 12.2597 29.8499 11.9797 32.1499C11.5097 35.9999 11.3097 41.76 11.0697 45.63C10.4297 45.41 9.64969 43.29 9.29969 42.77C8.19969 41.1 8.2297 37.68 8.0297 35.66Z" fill="#FCF2D9"/>
<path d="M23.1611 45.2006C23.1611 45.2006 23.0311 37.2606 23.3311 34.4506C23.6311 31.6406 21.2711 15.7906 19.6811 13.0906C18.0911 10.3806 9.38115 12.8706 9.01115 14.8306C8.64115 16.7906 9.24113 28.0906 9.24113 28.0906C9.24113 28.0906 9.19115 33.1006 9.79115 37.5606C10.2911 41.2706 10.5912 46.8206 11.1412 47.4306C11.1412 47.4306 10.9311 41.3206 10.5411 37.2206C10.1611 33.2906 10.4111 29.0506 10.5711 28.3606C10.9011 26.9506 12.2911 24.7206 15.1611 23.9706C18.0311 23.2206 20.5411 26.3406 21.0111 27.4306C21.4811 28.5306 21.8211 35.9706 21.8511 37.2506L23.1611 45.2006Z" fill="#D8D8D8"/>
<path d="M11.2428 47.67L11.0728 47.49C10.6928 47.07 10.4428 44.59 10.1528 41.72C10.0128 40.3 9.86282 38.83 9.69282 37.57C9.10282 33.19 9.14283 28.23 9.14283 28.09C9.11283 27.59 8.55283 16.76 8.92283 14.82C9.14283 13.64 12.0028 12.44 14.5128 12.01C15.7128 11.8 16.8028 11.77 17.6828 11.91C18.7028 12.07 19.4028 12.46 19.7628 13.06C21.3828 15.82 23.7228 31.71 23.4228 34.48C23.1228 37.26 23.2528 45.14 23.2528 45.22L23.0728 45.24L21.7628 37.28V37.27C21.7128 35.56 21.3728 28.51 20.9228 27.48C20.7128 26.98 20.0028 25.94 18.9228 25.09C18.0528 24.4 16.6928 23.67 15.1828 24.07C12.2228 24.84 10.9428 27.15 10.6628 28.39C10.5128 29.05 10.2528 33.24 10.6328 37.22C11.0228 41.28 11.2328 47.38 11.2328 47.44L11.2428 47.67ZM16.5428 11.98C15.9428 11.98 15.2728 12.04 14.5628 12.16C11.7928 12.64 9.3028 13.86 9.1128 14.83C8.7428 16.75 9.33281 27.95 9.34281 28.06C9.34281 28.11 9.29283 33.11 9.89283 37.52C10.0628 38.78 10.2128 40.25 10.3528 41.68C10.5628 43.82 10.7828 46.02 11.0428 46.94C10.9828 45.43 10.7828 40.6 10.4628 37.2C10.0828 33.2 10.3428 28.98 10.4928 28.31C10.7928 27.03 12.1028 24.65 15.1528 23.85C16.7428 23.44 18.1528 24.2 19.0528 24.91C20.1528 25.78 20.8828 26.86 21.1028 27.37C21.5928 28.51 21.9228 36.14 21.9528 37.22L23.0728 43.99C23.0528 41.66 23.0328 36.55 23.2628 34.43C23.4028 33.11 22.9328 28.61 22.1528 23.73C21.4728 19.52 20.4528 14.52 19.6328 13.12C19.1728 12.38 18.0728 11.98 16.5428 11.98Z" fill="#FF0000"/>
<defs>
<linearGradient id="paint0_linear_90_11422" x1="12.9742" y1="24.8927" x2="10.8646" y2="63.6979" gradientUnits="userSpaceOnUse">
<stop offset="0.1599" stop-color="#BFAB8D"/>
<stop offset="0.5078" stop-color="#E7E1D2"/>
<stop offset="0.7297" stop-color="#CCBFA6"/>
</linearGradient>
<linearGradient id="paint1_linear_90_11422" x1="7.05745" y1="33.4407" x2="24.5517" y2="30.0365" gradientUnits="userSpaceOnUse">
<stop stop-color="#BFAB8D"/>
<stop offset="0.5078" stop-color="#E7E1D2"/>
<stop offset="1" stop-color="#CCBFA6"/>
</linearGradient>
<linearGradient id="paint2_linear_90_11422" x1="-3.44966" y1="13.3898" x2="29.8487" y2="6.91034" gradientUnits="userSpaceOnUse">
<stop stop-color="#94938C"/>
<stop offset="0.2114" stop-color="#EDEBE1"/>
<stop offset="0.847" stop-color="#EDEBE1"/>
<stop offset="1" stop-color="#94938C"/>
</linearGradient>
</defs>
</svg>
