<svg width="19" height="54" viewBox="0 0 19 54" fill="none" xmlns="http://www.w3.org/2000/svg">
<path d="M9.40593 53.6062C9.40593 53.6062 4.10594 54.7062 2.22594 51.9462C0.345935 49.1862 8.77593 51.9462 9.40593 53.6062Z" fill="#D8D6D0"/>
<path d="M10.1797 53.8381C10.1797 53.8381 15.8197 54.2181 17.2297 50.5581C18.6397 46.8981 10.5097 51.7181 10.1797 53.8381Z" fill="#D8D6D0"/>
<path d="M12.4331 33.3076C12.5131 33.3476 12.5931 33.3976 12.6731 33.4476C14.1131 34.4476 15.3231 36.0776 16.2331 37.5476C17.6231 39.7876 18.6131 42.3376 18.3431 45.0076C18.1631 46.8276 17.9531 48.9277 17.0431 50.5677C16.5131 51.5277 15.3131 51.9676 14.3431 52.3076C13.5031 52.5976 12.6631 52.8677 11.8431 53.2077C11.0831 53.5177 10.3431 54.0476 9.49311 53.9776C8.51311 53.8976 7.8331 53.1276 7.0431 52.6376C5.8131 51.8576 4.34311 51.4576 2.88311 51.5276C2.62311 51.5376 2.3631 51.5676 2.1231 51.4876C1.7631 51.3776 1.5031 51.0776 1.2931 50.7676C0.333103 49.3676 0.353115 48.0076 0.353115 46.3676C0.343115 44.7076 0.373112 43.0376 0.693112 41.4076C1.25311 38.4976 3.18311 36.0876 4.19311 33.3476C4.25311 33.1876 4.31311 33.0276 4.41311 32.8976C4.59311 32.6776 4.8931 32.5776 5.1831 32.5576C5.7231 32.5176 6.26311 32.5976 6.80311 32.6576C7.81311 32.7676 8.80312 32.8776 9.82312 32.9476C10.6231 32.9976 11.6831 32.9376 12.4331 33.3076Z" fill="url(#paint0_linear_90_11296)"/>
<path d="M14.5714 35.2178C14.5314 35.2478 14.4914 35.2678 14.4414 35.2878C14.1714 35.3578 13.3514 34.9578 13.0614 34.8878C12.1014 34.6378 11.1214 34.4278 10.1414 34.2478C9.10143 34.0578 8.05144 33.8878 6.99144 33.8778C6.43144 33.8778 5.87144 33.9078 5.32144 34.0278C4.83144 34.1378 4.31144 34.4678 3.85144 34.5078C3.51144 33.1978 3.85142 31.6678 3.93142 30.3378C4.02142 28.8578 4.15143 27.3778 4.34143 25.9078C4.69143 23.1478 5.38144 20.4878 5.88144 17.7678C6.37144 15.1178 6.51143 12.3178 6.45143 9.61784C6.42143 8.34784 6.35143 7.07785 6.20143 5.81785C6.08143 4.73785 5.77144 3.77784 5.88144 2.65784C5.99144 1.52784 6.52143 -0.192164 8.02143 0.267836C9.15143 0.617836 9.85143 1.85784 10.4214 2.79784C11.5014 4.58784 12.2914 6.54784 13.0214 8.51784C13.7514 10.4778 14.4114 12.4778 14.7914 14.5478C15.1214 16.3478 15.0814 18.1078 15.0514 19.9278C15.0014 22.8078 14.9314 25.6978 14.8614 28.5778C14.8114 30.4378 14.9214 32.3778 14.7714 34.2678C14.7414 34.6278 14.7914 35.0478 14.5714 35.2178Z" fill="url(#paint1_linear_90_11296)"/>
<path d="M14.9818 38.7397C14.9318 38.5397 14.8719 38.3497 14.8019 38.1497C14.2419 36.5297 13.2519 35.0897 12.9119 33.3897C12.6819 32.2597 12.7619 31.0897 12.8219 29.9297C13.0419 25.7297 13.2018 21.3697 12.7918 17.1897C12.3818 13.0297 11.3219 8.99969 10.2419 5.01969C9.89185 3.74969 9.38185 0.72969 8.27185 0.29969C8.17185 0.25969 7.91184 0.219687 7.62184 0.179688C7.53184 5.88969 7.35184 13.4297 7.15184 19.1297C7.11184 20.1497 5.77185 28.7697 5.81185 29.2597C5.85185 29.7497 5.38185 32.8997 5.34185 33.2597C5.30185 33.6297 2.77185 38.1597 2.91185 41.0597C3.05185 43.9597 3.29185 46.0497 4.50185 47.2097C5.70185 48.3697 7.91184 49.0297 9.04184 48.8597C10.1618 48.6997 12.4518 49.0197 13.0318 47.7597C13.7118 46.2797 14.6619 45.1697 15.0519 43.4997C15.4119 41.9597 15.3918 40.2897 14.9818 38.7397Z" fill="#FCF2D9"/>
<path d="M7.34727 41.8685C7.04727 40.9985 6.96726 36.5785 6.98726 35.2185C7.01726 33.2685 8.57726 24.7185 8.68726 20.7085C8.83726 15.5585 8.01727 7.2685 7.95727 3.6485C7.89727 0.0284996 8.04725 0.118509 8.17725 0.158509C8.29725 0.198509 8.70726 1.4985 8.82726 3.9485C8.94726 6.4085 10.4173 14.1885 10.6373 19.3485C10.7973 22.9385 10.1973 32.4585 10.1673 34.2485C10.1373 36.0785 10.5473 40.3885 10.2773 41.1885C9.97726 42.0885 9.37726 42.7785 9.01726 42.7085C8.55726 42.6185 7.64727 42.7485 7.34727 41.8685Z" fill="#D8D8D8"/>
<path d="M9.0794 42.8089C9.0594 42.8089 9.02939 42.8089 9.00939 42.7989C8.91939 42.7789 8.8094 42.7689 8.6994 42.7589C8.2094 42.7189 7.5294 42.6488 7.2694 41.8988C6.9594 40.9988 6.8894 36.5189 6.9094 35.2189C6.9194 34.3789 7.2094 32.3389 7.5494 29.9789C7.9894 26.8689 8.5494 22.9989 8.6094 20.7089C8.6994 17.4889 8.41939 13.1189 8.17939 9.25885C8.02939 6.97885 7.9094 5.00885 7.8794 3.64885C7.8194 0.248851 7.9594 0.158859 8.0594 0.0788587C8.1194 0.0288587 8.1894 0.0588566 8.2194 0.0688566C8.3694 0.118857 8.5094 0.668854 8.6094 1.12885C8.7194 1.66885 8.8694 2.58885 8.9394 3.94885C8.9894 4.92885 9.25941 6.77885 9.56941 8.92885C10.0394 12.1888 10.6194 16.2489 10.7594 19.3389C10.8694 21.8889 10.5994 27.4089 10.4194 31.0589C10.3494 32.5489 10.2894 33.7189 10.2794 34.2389C10.2694 34.9389 10.3194 35.9989 10.3794 37.1289C10.4694 38.8889 10.5594 40.6989 10.3894 41.2089C10.0694 42.1089 9.4994 42.8089 9.0794 42.8089ZM8.14939 0.258859C8.07939 0.408859 8.0194 1.13886 8.0594 3.65886C8.0794 5.00886 8.2094 6.97885 8.3594 9.25885C8.6094 13.1189 8.88939 17.4889 8.78939 20.7289C8.71939 23.0289 8.16939 26.9089 7.72939 30.0189C7.38939 32.3789 7.09939 34.4089 7.08939 35.2389C7.06939 36.7889 7.1694 41.0389 7.4394 41.8589C7.6594 42.4989 8.2394 42.5589 8.7094 42.5989C8.8294 42.6089 8.94939 42.6189 9.03939 42.6389C9.04939 42.6389 9.0694 42.6389 9.0794 42.6389C9.3794 42.6389 9.9094 42.0288 10.1894 41.1788C10.3494 40.6988 10.2594 38.8989 10.1694 37.1589C10.1094 36.0389 10.0594 34.9689 10.0694 34.2589C10.0794 33.7389 10.1394 32.5589 10.2094 31.0689C10.3894 27.4189 10.6594 21.8989 10.5494 19.3589C10.4194 16.2689 9.8294 12.2189 9.3594 8.95886C9.0494 6.80886 8.77939 4.94886 8.72939 3.95886C8.62939 1.59886 8.25939 0.428859 8.14939 0.258859Z" fill="#FF0000"/>
<defs>
<linearGradient id="paint0_linear_90_11296" x1="-5.59498" y1="43.6673" x2="24.6413" y2="42.7359" gradientUnits="userSpaceOnUse">
<stop stop-color="#94938C"/>
<stop offset="0.2666" stop-color="#EDEBE1"/>
<stop offset="0.7117" stop-color="#EDEBE1"/>
<stop offset="1" stop-color="#94938C"/>
</linearGradient>
<linearGradient id="paint1_linear_90_11296" x1="0.940433" y1="18.7966" x2="15.3" y2="17.2886" gradientUnits="userSpaceOnUse">
<stop stop-color="#BFAB8D"/>
<stop offset="0.5078" stop-color="#E7E1D2"/>
<stop offset="1" stop-color="#CCBFA6"/>
</linearGradient>
</defs>
</svg>
