<svg width="26" height="75" viewBox="0 0 26 75" fill="none" xmlns="http://www.w3.org/2000/svg">
<path d="M25.5563 70.1466C25.5563 70.1466 27.8463 43.3466 15.7463 39.4266C15.7463 39.4266 2.01626 37.1366 0.716257 60.9966C0.676257 61.6766 0.576259 62.3566 0.546259 63.0366C0.486259 64.5266 0.536259 66.0366 0.796259 67.5066C1.06626 69.0566 1.57626 70.6466 2.62626 71.8466C3.13626 72.4266 3.77626 72.8866 4.49626 73.1766C5.12626 73.4266 5.80626 73.5166 6.46626 73.6466C7.27626 73.8166 8.08625 73.9666 8.89625 74.0966C9.33625 74.1666 9.77626 74.2266 10.2163 74.2866C11.8363 74.4866 13.4763 74.5466 15.1063 74.6066C17.7563 74.7066 20.5063 74.8366 22.9863 73.7066C24.4563 73.0366 25.5563 71.8266 25.5563 70.1466Z" fill="url(#paint0_linear_90_11242)"/>
<path d="M11.5062 0.739345C11.9662 0.689345 12.4162 0.859346 12.8462 1.02935C12.9862 1.07935 13.1062 1.16935 13.2162 1.27935C14.7662 2.80935 15.5462 6.05935 16.3262 8.04935C18.7162 14.1194 20.5362 20.4293 21.5862 26.8693C22.1062 30.0793 22.4462 33.3193 22.5762 36.5593C22.6362 38.1893 22.6562 39.8294 22.6162 41.4594C22.5862 42.7994 22.8062 44.7394 22.2462 45.9594C21.5662 45.1894 21.0762 44.2593 20.3462 43.5093C18.5762 41.6893 16.2862 40.3893 13.7062 40.3893C12.6162 40.3893 11.5462 40.6093 10.5262 40.9793C10.1162 41.1293 9.70622 41.3093 9.31622 41.4993C8.16622 42.0693 6.78621 43.7993 5.55621 43.8893C5.37621 41.4993 5.98622 38.8094 6.20622 36.4094C6.20622 30.3194 7.40622 23.8894 8.31622 17.8794C8.58622 16.0694 9.00622 14.2894 8.96622 12.4594C8.92622 10.5694 8.71622 8.67935 8.84622 6.77935C8.96622 5.09935 9.17621 0.999345 11.5062 0.739345Z" fill="url(#paint1_linear_90_11242)"/>
<path d="M25.5094 69.92C25.5094 69.92 27.7994 43.12 15.6994 39.2C15.6994 39.2 1.96938 36.91 0.669382 60.77C0.629382 61.45 0.529384 62.13 0.499384 62.81C0.439384 64.3 0.489384 65.81 0.749384 67.28C1.01938 68.83 1.52939 70.42 2.57939 71.62C3.08939 72.2 3.72938 72.66 4.44938 72.95C5.07938 73.2 5.75938 73.29 6.41938 73.42C7.22938 73.59 8.03939 73.74 8.84939 73.87C9.28939 73.94 9.72938 74 10.1694 74.06C11.4294 74.21 12.6994 74.28 13.9694 74.34C14.3294 74.36 15.0994 71.56 15.4694 71.57C18.1194 71.67 17.1594 65.36 19.6394 64.22C20.0094 64.05 23.6494 73.11 23.9594 72.88C24.8894 72.18 25.5094 71.19 25.5094 69.92Z" fill="url(#paint2_linear_90_11242)"/>
<path d="M6.32795 67.4673C4.90795 66.3473 4.50795 60.6772 4.59795 58.9272C4.72795 56.4172 8.02795 41.2372 8.57795 36.0872C9.28795 29.4672 9.95794 22.8373 10.3379 16.1873C10.4179 14.7473 10.7279 3.57725 11.5879 2.50725C11.8079 2.28725 12.858 1.32725 13.318 2.85725C14.268 6.00725 15.1479 13.8673 15.5279 16.9373C16.3479 23.5973 17.548 30.2073 18.628 36.8273C19.378 41.4373 21.8879 54.5972 21.7279 56.8972C21.5779 59.2472 21.6879 65.5673 20.3879 66.6073C18.9479 67.7573 16.078 68.6473 14.348 68.5573C12.128 68.4173 7.75795 68.5873 6.32795 67.4673Z" fill="#FCF2D9"/>
<path d="M10.2598 59.6471C9.70983 58.6171 9.55984 53.4171 9.59984 51.8171C9.64984 49.5171 10.9198 35.5971 11.1298 30.8771C11.3998 24.8071 11.6598 18.7271 11.8098 12.6371C11.8398 11.3171 11.9598 0.267086 12.3898 0.597086C12.5298 0.677086 12.5698 0.597086 12.6098 0.847086C13.3398 4.72709 13.5798 9.1371 13.7998 13.3171C14.1198 19.4271 14.5798 25.4871 14.9898 31.5571C15.2798 35.7871 16.2398 47.8471 16.1798 49.9571C16.1198 52.1071 16.1598 57.9071 15.6698 58.8571C15.1198 59.9171 14.0098 60.7271 13.3498 60.6471C12.4798 60.5271 10.7998 60.6771 10.2598 59.6471Z" fill="#D8D8D8"/>
<path d="M13.4364 60.7383C13.3964 60.7383 13.3564 60.7383 13.3264 60.7283C13.1564 60.7083 12.9564 60.6983 12.7364 60.6783C11.8464 60.6283 10.6364 60.5583 10.1764 59.6883C9.60636 58.6183 9.46636 53.3383 9.50636 51.8083C9.52636 50.7183 9.81637 47.1083 10.1564 42.9283C10.5164 38.4383 10.9264 33.3483 11.0364 30.8683C11.2864 25.3883 11.5564 18.9983 11.7164 12.6283C11.7164 12.4583 11.7264 12.1183 11.7364 11.6583C11.7564 10.1883 11.8064 7.44831 11.8864 5.06831C12.0364 0.638313 12.2164 0.548313 12.3164 0.498313C12.3564 0.478313 12.3964 0.478315 12.4364 0.508315C12.4664 0.528315 12.4864 0.538314 12.5164 0.538314C12.6264 0.578314 12.6664 0.618313 12.7064 0.818313C13.4464 4.75831 13.6864 9.29832 13.8964 13.2983C14.1364 17.8683 14.4564 22.4983 14.7664 26.9683C14.8664 28.4683 14.9764 30.0083 15.0864 31.5383C15.1564 32.6083 15.2764 34.1783 15.4064 35.9883C15.7964 41.2183 16.3164 48.3783 16.2764 49.9483C16.2664 50.3783 16.2564 50.9483 16.2464 51.6083C16.2064 54.3483 16.1564 58.1083 15.7464 58.8883C15.2064 59.9083 14.1564 60.7383 13.4364 60.7383ZM10.3364 59.6083C10.7464 60.3883 11.8564 60.4483 12.7464 60.4983C12.9664 60.5083 13.1764 60.5183 13.3464 60.5483C13.9264 60.6283 15.0064 59.8983 15.5764 58.8083C15.9664 58.0683 16.0164 54.1783 16.0564 51.6083C16.0664 50.9483 16.0764 50.3783 16.0864 49.9483C16.1264 48.3783 15.6064 41.2283 15.2164 36.0083C15.0864 34.1983 14.9664 32.6383 14.8964 31.5583C14.7964 30.0383 14.6864 28.4883 14.5764 26.9883C14.2664 22.5183 13.9364 17.8883 13.7064 13.3183C13.4964 9.31832 13.2664 4.78831 12.5264 0.858313C12.5064 0.748313 12.4964 0.738316 12.4864 0.728316C12.4864 0.728316 12.4664 0.718314 12.4564 0.718314C12.4364 0.708314 12.4164 0.70831 12.3864 0.69831C12.3164 0.87831 12.1764 1.68831 12.0564 5.19831C11.9764 7.54831 11.9364 10.2283 11.9064 11.6583C11.8964 12.1283 11.8964 12.4583 11.8864 12.6283C11.7364 19.0083 11.4564 25.3883 11.2064 30.8683C11.0964 33.3483 10.6864 38.4383 10.3264 42.9283C10.0064 46.9283 9.70636 50.7083 9.67636 51.7983C9.63636 53.6483 9.81636 58.6383 10.3364 59.6083Z" fill="#FF0000"/>
<defs>
<linearGradient id="paint0_linear_90_11242" x1="30.633" y1="57.0083" x2="-4.38854" y2="57.0259" gradientUnits="userSpaceOnUse">
<stop stop-color="#94938C"/>
<stop offset="0.2296" stop-color="#EDEBE1"/>
<stop offset="0.7876" stop-color="#EDEBE1"/>
<stop offset="1" stop-color="#94938C"/>
</linearGradient>
<linearGradient id="paint1_linear_90_11242" x1="18.9122" y1="23.3089" x2="5.43171" y2="23.5501" gradientUnits="userSpaceOnUse">
<stop stop-color="#BFAB8D"/>
<stop offset="0.5078" stop-color="#E7E1D2"/>
<stop offset="1" stop-color="#CCBFA6"/>
</linearGradient>
<linearGradient id="paint2_linear_90_11242" x1="30.5853" y1="56.7305" x2="-4.43621" y2="56.748" gradientUnits="userSpaceOnUse">
<stop stop-color="#94938C"/>
<stop offset="0.2296" stop-color="#EDEBE1"/>
<stop offset="0.7876" stop-color="#EDEBE1"/>
<stop offset="1" stop-color="#94938C"/>
</linearGradient>
</defs>
</svg>
