<svg width="26" height="75" viewBox="0 0 26 75" fill="none" xmlns="http://www.w3.org/2000/svg">
<path d="M0.242966 70.1505C0.242966 70.1505 -2.04704 43.3505 10.053 39.4305C10.053 39.4305 23.7829 37.1405 25.0829 61.0005C25.1229 61.6805 25.223 62.3605 25.253 63.0405C25.313 64.5305 25.263 66.0405 25.003 67.5105C24.733 69.0605 24.223 70.6505 23.173 71.8505C22.663 72.4305 22.0229 72.8905 21.3029 73.1805C20.6729 73.4305 19.9929 73.5205 19.3329 73.6505C18.5229 73.8205 17.713 73.9705 16.903 74.1005C16.463 74.1705 16.0229 74.2305 15.5829 74.2905C13.9629 74.4905 12.323 74.5505 10.693 74.6105C8.04296 74.7105 5.29296 74.8405 2.81296 73.7105C1.34296 73.0405 0.242966 71.8305 0.242966 70.1505Z" fill="url(#paint0_linear_90_11250)"/>
<path d="M14.2949 0.739345C13.8349 0.689345 13.3849 0.859346 12.9549 1.02935C12.8149 1.07935 12.6949 1.16935 12.5849 1.27935C11.0349 2.80935 10.2549 6.05935 9.47488 8.04935C7.08488 14.1194 5.26488 20.4293 4.21488 26.8693C3.69488 30.0793 3.35488 33.3193 3.22488 36.5593C3.16488 38.1893 3.14487 39.8294 3.18487 41.4594C3.21487 42.7994 2.99488 44.7394 3.55488 45.9594C4.23488 45.1894 4.72487 44.2593 5.45487 43.5093C7.22487 41.6893 9.51487 40.3893 12.0949 40.3893C13.1849 40.3893 14.2549 40.6093 15.2749 40.9793C15.6849 41.1293 16.0949 41.3093 16.4849 41.4993C17.6349 42.0693 19.0149 43.7993 20.2449 43.8893C20.4249 41.4993 19.8149 38.8094 19.5949 36.4094C19.5949 30.3194 18.3949 23.8894 17.4849 17.8794C17.2149 16.0694 16.7949 14.2894 16.8349 12.4594C16.8749 10.5694 17.0849 8.67935 16.9549 6.77935C16.8449 5.09935 16.6249 0.999345 14.2949 0.739345Z" fill="url(#paint1_linear_90_11250)"/>
<path d="M0.289838 69.92C0.289838 69.92 -2.00015 43.12 10.0999 39.2C10.0999 39.2 23.8299 36.91 25.1299 60.77C25.1699 61.45 25.2698 62.13 25.2998 62.81C25.3598 64.3 25.3098 65.81 25.0498 67.28C24.7798 68.83 24.2698 70.42 23.2198 71.62C22.7098 72.2 22.0699 72.66 21.3499 72.95C20.7199 73.2 20.0399 73.29 19.3799 73.42C18.5699 73.59 17.7599 73.74 16.9499 73.87C16.5099 73.94 16.0698 74 15.6298 74.06C14.3698 74.21 13.0998 74.28 11.8298 74.34C11.4698 74.36 10.6998 71.56 10.3298 71.57C7.67985 71.67 8.63985 65.36 6.15985 64.22C5.78985 64.05 2.14984 73.11 1.83984 72.88C0.909841 72.18 0.289838 71.19 0.289838 69.92Z" fill="url(#paint2_linear_90_11250)"/>
<path d="M19.4698 67.4712C20.8898 66.3512 21.2898 60.6812 21.1998 58.9312C21.0698 56.4212 17.7698 41.2412 17.2198 36.0912C16.5098 29.4712 15.8398 22.8412 15.4598 16.1912C15.3798 14.7512 15.0698 3.58116 14.2098 2.51116C13.9898 2.29116 12.9398 1.33116 12.4798 2.86116C11.5298 6.01116 10.6498 13.8712 10.2698 16.9412C9.44981 23.6012 8.24981 30.2112 7.16981 36.8312C6.41981 41.4412 3.90981 54.6012 4.06981 56.9012C4.21981 59.2512 4.10981 65.5712 5.40981 66.6112C6.84981 67.7612 9.7198 68.6512 11.4498 68.5612C13.6698 68.4212 18.0398 68.5912 19.4698 67.4712Z" fill="#FCF2D9"/>
<path d="M15.5086 59.9088C16.0586 58.8788 16.2086 53.6788 16.1686 52.0788C16.1186 49.7788 14.8486 35.8588 14.6386 31.1388C14.3686 25.0688 14.1086 18.9888 13.9586 12.8988C13.9286 11.5788 13.8086 0.528805 13.3786 0.858805C13.2386 0.938805 13.1986 0.858805 13.1586 1.10881C12.4286 4.98881 12.1886 9.39881 11.9686 13.5788C11.6486 19.6888 11.1886 25.7488 10.7786 31.8188C10.4886 36.0488 9.52863 48.1088 9.58863 50.2188C9.64863 52.3688 9.60862 58.1688 10.0986 59.1188C10.6486 60.1788 11.7586 60.9888 12.4186 60.9088C13.2786 60.7888 14.9586 60.9388 15.5086 59.9088Z" fill="#D8D8D8"/>
<path d="M12.3166 61.0004C11.5966 61.0004 10.5465 60.1804 10.0165 59.1604C9.60655 58.3804 9.55655 54.6204 9.51655 51.8804C9.50655 51.2204 9.49655 50.6504 9.48655 50.2204C9.44655 48.6404 9.96656 41.4904 10.3566 36.2604C10.4866 34.4504 10.6066 32.8904 10.6766 31.8104C10.7766 30.2904 10.8866 28.7404 10.9966 27.2504C11.3066 22.7804 11.6366 18.1504 11.8666 13.5804C12.0766 9.58044 12.3066 5.04043 13.0566 1.10043C13.0966 0.910432 13.1366 0.860433 13.2466 0.820433C13.2666 0.810433 13.2966 0.800434 13.3266 0.790434C13.3666 0.770434 13.4066 0.760432 13.4466 0.780432C13.5466 0.830432 13.7265 0.910432 13.8765 5.35043C13.9565 7.73043 14.0065 10.4604 14.0265 11.9404C14.0365 12.4104 14.0366 12.7404 14.0466 12.9104C14.1966 19.2804 14.4766 25.6704 14.7266 31.1504C14.8366 33.6304 15.2466 38.7204 15.6066 43.2104C15.9466 47.3904 16.2366 51.0004 16.2566 52.0904C16.2866 53.6204 16.1465 58.9004 15.5865 59.9704C15.1265 60.8404 13.9066 60.9104 13.0266 60.9604C12.8066 60.9704 12.6065 60.9804 12.4365 61.0104C12.3965 61.0004 12.3566 61.0004 12.3166 61.0004ZM13.3765 0.960433C13.3465 0.970433 13.3266 0.980437 13.3066 0.980437C13.2966 0.980437 13.2766 0.990431 13.2766 0.990431C13.2766 0.990431 13.2566 1.01044 13.2366 1.12044C12.4966 5.05044 12.2566 9.58044 12.0566 13.5804C11.8166 18.1604 11.4965 22.7804 11.1865 27.2504C11.0865 28.7504 10.9766 30.2904 10.8666 31.8104C10.7966 32.8804 10.6765 34.4504 10.5465 36.2604C10.1565 41.4804 9.63655 48.6404 9.67655 50.2004C9.68655 50.6304 9.69655 51.2004 9.70655 51.8604C9.73655 54.4304 9.79655 58.3204 10.1865 59.0604C10.7565 60.1504 11.8266 60.8704 12.4166 60.8004C12.5866 60.7804 12.7965 60.7704 13.0165 60.7504C13.9065 60.7004 15.0166 60.6304 15.4266 59.8604C15.9366 58.8904 16.1166 53.9004 16.0766 52.0704C16.0566 50.9804 15.7466 47.2004 15.4266 43.2004C15.0666 38.7104 14.6566 33.6204 14.5466 31.1404C14.2966 25.6604 14.0266 19.2704 13.8666 12.9004C13.8666 12.7304 13.8566 12.3904 13.8466 11.9204C13.8266 10.4804 13.7766 7.80043 13.6966 5.46043C13.5866 1.95043 13.4465 1.14043 13.3765 0.960433Z" fill="#FF0000"/>
<defs>
<linearGradient id="paint0_linear_90_11250" x1="-4.83493" y1="57.0151" x2="30.1866" y2="57.0327" gradientUnits="userSpaceOnUse">
<stop stop-color="#94938C"/>
<stop offset="0.2296" stop-color="#EDEBE1"/>
<stop offset="0.7876" stop-color="#EDEBE1"/>
<stop offset="1" stop-color="#94938C"/>
</linearGradient>
<linearGradient id="paint1_linear_90_11250" x1="6.88967" y1="23.309" x2="20.3721" y2="23.5502" gradientUnits="userSpaceOnUse">
<stop stop-color="#BFAB8D"/>
<stop offset="0.5078" stop-color="#E7E1D2"/>
<stop offset="1" stop-color="#CCBFA6"/>
</linearGradient>
<linearGradient id="paint2_linear_90_11250" x1="-4.78726" y1="56.7334" x2="30.2342" y2="56.752" gradientUnits="userSpaceOnUse">
<stop stop-color="#94938C"/>
<stop offset="0.2296" stop-color="#EDEBE1"/>
<stop offset="0.7876" stop-color="#EDEBE1"/>
<stop offset="1" stop-color="#94938C"/>
</linearGradient>
</defs>
</svg>
