<svg width="27" height="44" viewBox="0 0 27 44" fill="none" xmlns="http://www.w3.org/2000/svg">
<path d="M6.22939 2.95908C5.69588 1.22333 7.31273 0.406724 8.68959 1.37259C11.3512 3.23945 12.7403 6.40425 13.953 9.30684C14.5146 10.6511 17.0038 15.347 15.4224 16.6114C13.8532 17.8658 8.19645 15.9885 8.12523 12.8849C8.08667 11.2009 8.14202 9.50691 7.91655 7.83331C7.67157 6.01455 6.75246 4.65943 6.22939 2.95908Z" fill="url(#paint0_linear_101_36665)"/>
<path d="M22.0191 26.8842C22.9813 20.5764 22.9659 12.9657 20.1623 7.12795C19.5108 5.77104 18.6239 4.5298 17.5673 3.45824C17.1527 3.03769 14.6825 0.512579 14.1635 1.1341C13.634 1.76787 14.1126 3.18422 14.2066 3.88877C14.3635 5.06785 14.5123 6.24784 14.6353 7.431C14.8843 9.83135 15.5045 12.4322 14.8558 14.8208C14.7128 15.3466 14.3826 15.8665 13.8645 16.0348C13.5909 16.1237 13.2929 16.1056 13.0121 16.0448C11.2346 15.6596 9.94847 13.8676 8.85559 12.5529C7.29272 10.6734 6.39583 8.56199 5.61507 6.26417C5.23581 5.14815 4.8021 4.06388 3.84896 3.32032C3.6194 3.14112 1.3706 0.381924 1.01674 0.46676C-0.148271 0.745311 0.254128 3.88831 0.296319 4.60284C0.622957 10.1593 4.69686 20.0203 4.69686 20.0203C4.69686 20.0203 5.67722 26.23 4.69686 28.1912C3.71649 30.1529 20.7121 30.1529 22.0191 26.8842Z" fill="url(#paint1_linear_101_36665)"/>
<path d="M23.0004 27.8634C22.9999 27.863 20.3854 24.9219 14.5023 24.9219C8.61911 24.9219 4.37005 26.8831 3.38967 29.4975C2.4093 32.112 2.0822 39.3025 5.67752 40.61C6.81487 41.0237 8.06518 41.1262 9.09047 40.3931C9.96741 39.7662 10.314 38.6139 11.6328 39.0412C12.2076 39.2272 12.6817 39.6305 13.1689 39.988C15.3112 41.5595 18.9518 43.1895 21.3917 41.3345C24.727 38.7985 25.9048 31.1312 23.0004 27.8634Z" fill="url(#paint2_linear_101_36665)"/>
<path d="M23.0081 27.8752C23.0081 27.8747 20.3932 24.9336 14.5101 24.9336C8.62691 24.9336 4.37786 26.8948 3.39749 29.5093C2.41711 32.1238 2.09002 39.3144 5.68532 40.6219C6.82267 41.0356 8.07297 41.1382 9.09826 40.405C9.97519 39.7781 10.3218 38.6257 11.6406 39.0531C12.2154 39.2391 12.6895 39.6424 13.1767 39.9999C15.3189 41.5714 18.9596 43.2014 21.3994 41.3464C24.7348 38.8104 25.913 31.1429 23.0081 27.8752Z" fill="url(#paint3_linear_101_36665)"/>
<g opacity="0.41">
<path opacity="0.41" d="M24.5305 26.9459C24.53 26.9454 21.4882 23.5234 14.6442 23.5234C7.79978 23.5234 2.85665 25.8049 1.71568 28.8468C0.574715 31.8886 0.194546 40.2542 4.37733 41.7754C5.70067 42.2567 7.15512 42.376 8.34826 41.5231C9.36855 40.7936 9.77186 39.4535 11.3057 39.9503C11.9749 40.1671 12.5256 40.6358 13.0927 41.0518C15.5847 42.8801 19.8205 44.7768 22.6591 42.6183C26.5393 39.6681 27.9094 30.7476 24.5305 26.9459Z" fill="url(#paint4_linear_101_36665)"/>
</g>
<defs>
<linearGradient id="paint0_linear_101_36665" x1="12.7674" y1="17.5048" x2="5.55655" y2="-17.915" gradientUnits="userSpaceOnUse">
<stop offset="0.1599" stop-color="#BFAB8D"/>
<stop offset="0.5078" stop-color="#E7E1D2"/>
<stop offset="0.7297" stop-color="#CCBFA6"/>
</linearGradient>
<linearGradient id="paint1_linear_101_36665" x1="27.9659" y1="14.9184" x2="0.87313" y2="15.0163" gradientUnits="userSpaceOnUse">
<stop offset="0.1599" stop-color="#BFAB8D"/>
<stop offset="0.5078" stop-color="#E7E1D2"/>
<stop offset="0.7297" stop-color="#CCBFA6"/>
</linearGradient>
<linearGradient id="paint2_linear_101_36665" x1="29.62" y1="33.4946" x2="-2.55742" y2="33.6109" gradientUnits="userSpaceOnUse">
<stop stop-color="#94938C"/>
<stop offset="0.2296" stop-color="#EDEBE1"/>
<stop offset="0.7988" stop-color="#EDEBE1"/>
<stop offset="1" stop-color="#94938C"/>
</linearGradient>
<linearGradient id="paint3_linear_101_36665" x1="29.8693" y1="33.5056" x2="-2.69004" y2="33.6232" gradientUnits="userSpaceOnUse">
<stop stop-color="#94938C"/>
<stop offset="0.2296" stop-color="#EDEBE1"/>
<stop offset="0.7988" stop-color="#EDEBE1"/>
<stop offset="1" stop-color="#94938C"/>
</linearGradient>
<linearGradient id="paint4_linear_101_36665" x1="32.5126" y1="33.4962" x2="-5.36697" y2="33.6331" gradientUnits="userSpaceOnUse">
<stop stop-color="#CCCCCC"/>
<stop offset="1" stop-color="#F2F2F2"/>
</linearGradient>
</defs>
</svg>
