<svg width="21" height="63" viewBox="0 0 21 63" fill="none" xmlns="http://www.w3.org/2000/svg">
<path d="M7.65112 34.8853C7.65112 34.8853 4.38298 36.1928 3.40218 43.7101C3.40218 43.7101 2.42181 51.5545 2.09472 53.8424C1.76809 56.1302 1.76809 59.0718 5.36287 60.0522C8.95811 61.0326 12.2263 60.3789 14.1874 59.7256C16.1486 59.0723 19.0901 57.1106 19.7438 54.8228C20.3975 52.5349 19.7438 41.4223 18.7635 39.461C17.7831 37.4998 15.4953 32.2704 7.65112 34.8853Z" fill="url(#paint0_linear_101_36791)"/>
<path d="M10.9143 3.83465C10.9143 3.83465 3.73991 19.5197 6.67337 36.0268C6.67337 36.0268 17.0757 34.7938 17.5901 37.6174C16.1311 30.7502 15.4302 23.5233 15.7174 16.5133C15.8335 13.6692 16.0345 10.8293 16.1143 7.98388C16.1661 6.1311 16.4882 4.01429 15.6929 2.28855C15.359 1.56313 14.8068 0.497023 13.9009 0.412187C12.3634 0.268375 11.3752 2.77488 10.9143 3.83465Z" fill="url(#paint1_linear_101_36791)"/>
<path opacity="0.41" d="M7.07075 33.9433C7.07075 33.9433 3.41336 35.4064 2.31596 43.8187C2.31596 43.8187 1.21856 52.5966 0.852907 55.1571C0.487257 57.7176 0.487241 61.0089 4.5103 62.1063C8.53335 63.2037 12.1908 62.472 14.3856 61.7406C16.5804 61.0093 19.8717 58.8145 20.6034 56.2545C21.3347 53.6945 20.6034 41.2586 19.506 39.0643C18.4091 36.8694 15.8486 31.0172 7.07075 33.9433Z" fill="url(#paint2_linear_101_36791)"/>
<defs>
<linearGradient id="paint0_linear_101_36791" x1="-2.51403" y1="48.0095" x2="23.4959" y2="46.7064" gradientUnits="userSpaceOnUse">
<stop stop-color="#94938C"/>
<stop offset="0.1599" stop-color="#D1CFC6"/>
<stop offset="0.2296" stop-color="#EDEBE1"/>
<stop offset="0.7988" stop-color="#EDEBE1"/>
<stop offset="0.9762" stop-color="#9F9E96"/>
<stop offset="1" stop-color="#94938C"/>
</linearGradient>
<linearGradient id="paint1_linear_101_36791" x1="14.961" y1="19.0248" x2="5.97998" y2="19.1853" gradientUnits="userSpaceOnUse">
<stop stop-color="#BFAB8D"/>
<stop offset="0.5078" stop-color="#E7E1D2"/>
<stop offset="1" stop-color="#CCBFA6"/>
</linearGradient>
<linearGradient id="paint2_linear_101_36791" x1="-4.30441" y1="48.6299" x2="24.8021" y2="47.1717" gradientUnits="userSpaceOnUse">
<stop stop-color="#CCCCCC"/>
<stop offset="1" stop-color="#F2F2F2"/>
</linearGradient>
</defs>
</svg>
