<svg width="24" height="72" viewBox="0 0 24 72" fill="none" xmlns="http://www.w3.org/2000/svg">
<path d="M5.90625 45.6991C5.90625 45.6991 17.9879 42.6709 18.9918 44.398L14.1126 9.84537C14.1126 9.84537 10.6929 0.964844 9.38542 0.964844C8.07795 0.964844 6.77048 4.8868 6.77048 4.8868C6.77048 4.8868 6.1975 37.4292 5.90625 45.6991Z" fill="url(#paint0_linear_101_36799)"/>
<path d="M8.22957 42.2028C8.22912 42.2037 1.03894 51.6818 2.34641 59.5257C2.76832 62.0567 3.63211 64.702 5.15779 66.7893C5.90181 67.8074 6.86857 68.7288 8.08758 69.1325C9.69991 69.6665 11.7691 69.2473 13.3855 68.8866C14.1812 68.7093 14.9629 68.4647 15.7042 68.1236C20.8869 65.74 22.256 59.5946 21.8391 54.3865C21.5461 50.7281 20.4355 47.1791 18.9919 43.8265C18.0555 41.6516 15.8743 41.0818 13.6972 40.7738C12.0585 40.5419 9.34378 40.7343 8.22957 42.2028Z" fill="url(#paint1_linear_101_36799)"/>
<path opacity="0.41" d="M7.60708 40.1058C7.60617 40.1067 -0.757786 51.1327 0.762934 60.2577C1.25381 63.202 2.25869 66.2792 4.03347 68.7077C4.89909 69.8922 6.02374 70.9638 7.44193 71.4338C9.31743 72.0549 11.7246 71.5672 13.6056 71.148C14.5311 70.9416 15.4402 70.6571 16.3031 70.2602C22.3325 67.4874 23.9253 60.338 23.4399 54.2793C23.0992 50.023 21.8071 45.8951 20.1276 41.9949C19.0383 39.4648 16.5005 38.802 13.9681 38.4436C12.0617 38.1737 8.90323 38.3973 7.60708 40.1058Z" fill="url(#paint2_linear_101_36799)"/>
<defs>
<linearGradient id="paint0_linear_101_36799" x1="17.26" y1="23.6282" x2="7.36634" y2="23.3234" gradientUnits="userSpaceOnUse">
<stop stop-color="#BFAB8D"/>
<stop offset="0.5078" stop-color="#E7E1D2"/>
<stop offset="1" stop-color="#CCBFA6"/>
</linearGradient>
<linearGradient id="paint1_linear_101_36799" x1="28.1886" y1="54.7345" x2="-4.76403" y2="55.3235" gradientUnits="userSpaceOnUse">
<stop stop-color="#94938C"/>
<stop offset="0.0617" stop-color="#A4A29B"/>
<stop offset="0.1809" stop-color="#CCCAC2"/>
<stop offset="0.2666" stop-color="#EDEBE1"/>
<stop offset="0.7117" stop-color="#EDEBE1"/>
<stop offset="0.7719" stop-color="#E0DED5"/>
<stop offset="0.883" stop-color="#BEBDB4"/>
<stop offset="1" stop-color="#94938C"/>
</linearGradient>
<linearGradient id="paint2_linear_101_36799" x1="30.8264" y1="54.6842" x2="-7.50884" y2="55.3695" gradientUnits="userSpaceOnUse">
<stop stop-color="#CCCCCC"/>
<stop offset="1" stop-color="#F2F2F2"/>
</linearGradient>
</defs>
</svg>
