<svg width="22" height="59" viewBox="0 0 22 59" fill="none" xmlns="http://www.w3.org/2000/svg">
<path d="M10.9844 56.2521C10.9844 56.2521 16.3301 57.0873 18.0712 54.246C19.8118 51.4046 11.5342 54.5626 10.9844 56.2521Z" fill="#D8D6D0"/>
<path d="M16.3511 38.3293C16.3511 38.3293 16.0245 27.2167 15.0436 24.2751C14.0633 21.3335 13.0824 11.5284 13.4095 8.91341C13.7362 6.29847 13.7362 2.37651 13.7362 2.37651C13.7362 2.37651 14.0628 -0.565089 11.1212 1.72276C8.17965 4.01061 4.58433 15.1232 4.91143 19.6989C5.23852 24.2746 5.3415 38.0635 5.28978 38.0331C5.23806 38.0027 16.3511 38.3293 16.3511 38.3293Z" fill="url(#paint0_linear_101_36806)"/>
<path d="M5.56245 37.02C5.56245 37.02 -1.95481 48.1326 3.60125 54.0158C4.27993 54.7344 5.3474 55.2398 6.17443 55.7656C7.02823 56.3086 7.93921 57.0626 8.97992 57.1801C10.1735 57.3153 11.0473 56.0664 12.2205 55.8228C14.0855 55.4353 15.9106 55.742 17.5034 54.4699C18.8186 53.4197 19.6161 51.7824 19.887 50.1428C20.2245 48.0972 19.8752 46.0185 19.4678 44.0101C19.294 43.154 18.9982 42.3393 18.6521 41.5376C18.2837 40.6829 17.6182 39.8486 17.3287 38.9803C17.3287 38.9812 14.7138 31.1368 5.56245 37.02Z" fill="url(#paint1_linear_101_36806)"/>
<path opacity="0.41" d="M5.09389 35.6517C5.09389 35.6517 -3.4936 48.3457 2.85367 55.0663C3.62853 55.887 4.84844 56.4645 5.79298 57.0651C6.76837 57.6853 7.80863 58.5468 8.99769 58.6811C10.3614 58.8353 11.359 57.409 12.6992 57.1304C14.8296 56.6881 16.9146 57.0383 18.7338 55.5853C20.2359 54.3853 21.1474 52.5153 21.4568 50.6426C21.8424 48.3062 21.4432 45.9313 20.9781 43.6371C20.7799 42.6595 20.4419 41.7286 20.0468 40.8126C19.6258 39.8363 18.8659 38.8832 18.5351 37.8915C18.5351 37.8919 15.5482 28.9312 5.09389 35.6517Z" fill="url(#paint2_linear_101_36806)"/>
<defs>
<linearGradient id="paint0_linear_101_36806" x1="15.4515" y1="19.6381" x2="2.5589" y2="19.2409" gradientUnits="userSpaceOnUse">
<stop stop-color="#BFAB8D"/>
<stop offset="0.5078" stop-color="#E7E1D2"/>
<stop offset="1" stop-color="#CCBFA6"/>
</linearGradient>
<linearGradient id="paint1_linear_101_36806" x1="23.5989" y1="46.4165" x2="-3.12738" y2="45.5932" gradientUnits="userSpaceOnUse">
<stop stop-color="#94938C"/>
<stop offset="0.0311" stop-color="#A6A59D"/>
<stop offset="0.0939" stop-color="#C5C3BB"/>
<stop offset="0.1552" stop-color="#DBD9D0"/>
<stop offset="0.2138" stop-color="#E8E7DD"/>
<stop offset="0.2666" stop-color="#EDEBE1"/>
<stop offset="0.7117" stop-color="#EDEBE1"/>
<stop offset="0.7637" stop-color="#E7E5DB"/>
<stop offset="0.835" stop-color="#D5D3CA"/>
<stop offset="0.9175" stop-color="#B8B7AF"/>
<stop offset="1" stop-color="#94938C"/>
</linearGradient>
<linearGradient id="paint2_linear_101_36806" x1="25.6975" y1="46.385" x2="-4.8325" y2="45.4446" gradientUnits="userSpaceOnUse">
<stop stop-color="#CCCCCC"/>
<stop offset="1" stop-color="#F2F2F2"/>
</linearGradient>
</defs>
</svg>
