<svg width="22" height="58" viewBox="0 0 22 58" fill="none" xmlns="http://www.w3.org/2000/svg">
<path d="M11.5156 54.3621C11.5156 54.3621 16.8144 55.4577 18.6921 52.7053C20.5698 49.953 12.1471 52.7017 11.5156 54.3621Z" fill="#D8D6D0"/>
<path d="M10.7412 54.5974C10.7412 54.5974 5.0983 54.9789 3.69426 51.3196C2.29023 47.6603 10.4082 52.4792 10.7412 54.5974Z" fill="#D8D6D0"/>
<path d="M8.48825 34.0662C8.40523 34.107 8.3263 34.1533 8.2519 34.2055C6.81426 35.2099 5.60256 36.8372 4.68845 38.3094C3.29936 40.5459 2.30767 43.1042 2.57488 45.7736C2.75725 47.5982 2.96184 49.6965 3.87368 51.3351C4.40628 52.2924 5.60348 52.7311 6.57838 53.0704C7.41356 53.3612 8.25645 53.6343 9.0753 53.9696C9.83154 54.279 10.5737 54.8066 11.4257 54.7386C12.4051 54.6601 13.0892 53.8925 13.8727 53.3943C15.1021 52.6131 16.5737 52.2125 18.03 52.2828C18.2858 52.2951 18.548 52.3209 18.7935 52.2461C19.1514 52.1372 19.4132 51.8332 19.6241 51.5248C20.585 50.1211 20.5595 48.761 20.5677 47.1287C20.5763 45.4701 20.5441 43.8015 20.2279 42.1683C19.665 39.258 17.7424 36.8503 16.7316 34.1034C16.6736 33.945 16.6155 33.7831 16.5089 33.6524C16.3265 33.4288 16.028 33.3321 15.7404 33.309C15.2014 33.2654 14.6584 33.3489 14.1245 33.4061C13.1119 33.515 12.1234 33.6279 11.1054 33.6978C10.2984 33.7536 9.23995 33.6946 8.48825 34.0662Z" fill="url(#paint0_linear_101_36816)"/>
<path d="M6.34751 35.9801C6.3838 36.0096 6.42736 36.0327 6.48044 36.0472C6.7472 36.1221 7.56922 35.7197 7.86002 35.6435C8.82406 35.3912 9.79898 35.1803 10.7798 35.0047C11.8191 34.8187 12.8689 34.6422 13.9273 34.6336C14.4876 34.6291 15.0511 34.6681 15.5995 34.7869C16.0868 34.8926 16.6117 35.2266 17.073 35.2683C17.4092 33.9576 17.068 32.4333 16.99 31.1023C16.9034 29.6224 16.7673 28.1457 16.5826 26.6749C16.236 23.9148 15.5474 21.2576 15.0447 18.5325C14.5557 15.8817 14.4195 13.0794 14.4781 10.38C14.5057 9.11068 14.5824 7.83905 14.7281 6.57785C14.8519 5.50129 15.1622 4.53771 15.052 3.42214C14.9399 2.28797 14.4078 0.570376 12.9102 1.03493C11.7829 1.38471 11.081 2.62459 10.5121 3.56731C9.42834 5.36248 8.63942 7.31824 7.91265 9.28489C7.18679 11.2488 6.51763 13.2468 6.13882 15.3101C5.8081 17.1098 5.84848 18.8714 5.87978 20.6883C5.92877 23.5727 5.99773 26.4567 6.06895 29.3407C6.11477 31.2016 6.00861 33.1429 6.15514 35.0301C6.18191 35.3831 6.1302 35.8023 6.34751 35.9801Z" fill="url(#paint1_linear_101_36816)"/>
<path opacity="0.41" d="M7.72288 33.6236C7.62942 33.6699 7.5396 33.7221 7.45522 33.781C5.82882 34.917 4.45874 36.758 3.42438 38.423C1.85333 40.9526 0.73188 43.8461 1.03357 46.8653C1.23999 48.9295 1.47135 51.3022 2.50254 53.1559C3.10501 54.2388 4.4592 54.7346 5.56206 55.1185C6.50705 55.4474 7.45975 55.7563 8.38614 56.1351C9.24176 56.4854 10.081 57.0819 11.0446 57.0048C12.1525 56.9163 12.9264 56.0476 13.8124 55.4846C15.2029 54.6013 16.8679 54.1476 18.5147 54.2274C18.8041 54.2415 19.1009 54.2705 19.378 54.1862C19.7827 54.0628 20.079 53.7193 20.3176 53.37C21.4046 51.7826 21.3755 50.2442 21.3851 48.3978C21.3946 46.5219 21.3583 44.6346 21.0008 42.7873C20.3639 39.4955 18.1894 36.7725 17.0462 33.6658C16.9804 33.4871 16.9146 33.3033 16.7944 33.1559C16.588 32.9032 16.2505 32.7934 15.9252 32.7675C15.3155 32.7185 14.7016 32.8125 14.0974 32.8773C12.9523 33.0003 11.834 33.1282 10.6826 33.2076C9.76983 33.2698 8.57305 33.2031 7.72288 33.6236Z" fill="url(#paint2_linear_101_36816)"/>
<defs>
<linearGradient id="paint0_linear_101_36816" x1="26.5176" y1="44.4258" x2="-3.71791" y2="43.4945" gradientUnits="userSpaceOnUse">
<stop stop-color="#94938C"/>
<stop offset="0.2666" stop-color="#EDEBE1"/>
<stop offset="0.7117" stop-color="#EDEBE1"/>
<stop offset="1" stop-color="#94938C"/>
</linearGradient>
<linearGradient id="paint1_linear_101_36816" x1="19.9823" y1="19.5556" x2="5.62281" y2="18.0476" gradientUnits="userSpaceOnUse">
<stop stop-color="#BFAB8D"/>
<stop offset="0.5078" stop-color="#E7E1D2"/>
<stop offset="1" stop-color="#CCBFA6"/>
</linearGradient>
<linearGradient id="paint2_linear_101_36816" x1="28.1151" y1="45.3406" x2="-6.08332" y2="44.2872" gradientUnits="userSpaceOnUse">
<stop stop-color="#CCCCCC"/>
<stop offset="1" stop-color="#F2F2F2"/>
</linearGradient>
</defs>
</svg>
