<svg width="30" height="52" viewBox="0 0 30 52" fill="none" xmlns="http://www.w3.org/2000/svg">
<path d="M16.713 2.21618C16.713 2.21618 17.6189 0.161985 19.4527 0.676442C21.2869 1.1909 21.9207 5.98479 21.5886 9.51885C21.257 13.0529 19.685 24.2657 16.9824 24.4966C14.2799 24.7275 9.33758 18.3767 11.586 14.8385C13.8344 11.3004 17.5554 5.09015 16.713 2.21618Z" fill="url(#paint0_linear_101_36828)"/>
<path d="M4.89341 32.6669C8.09221 32.4364 11.722 30.8726 14.9267 30.746C16.9369 30.6666 18.948 30.5337 20.9605 30.5981C21.8909 30.6276 23.2746 33.1083 24.1769 32.9935C24.7622 32.9191 24.3761 30.5156 24.3521 29.8936C24.3316 29.3641 24.2867 28.837 24.3643 28.3094C24.6428 26.4076 25.689 24.602 26.1241 22.7002C26.6276 20.5004 26.9679 18.2579 27.177 16.0113C27.3989 13.6282 27.4928 11.1939 27.1806 8.81392C27.0464 7.78772 26.8631 6.74564 26.4557 5.78795C26.1386 5.04257 25.3696 3.57949 24.387 3.69155C24.0263 3.73283 23.7033 3.93789 23.4334 4.18151C22.9044 4.65922 22.536 5.29527 22.2924 5.96534C21.7902 7.34766 21.8011 8.83614 21.7044 10.2842C21.6046 11.7773 21.1977 13.1601 20.8629 14.6091C20.2414 17.3016 19.5074 20.4704 17.7435 22.6775C17.3143 23.2147 16.6692 23.6493 15.9846 23.5844C15.6335 23.5508 15.3055 23.3893 15.0188 23.1838C13.9858 22.443 13.4604 21.1646 13.2812 19.9061C12.9142 17.3274 13.1905 14.4829 13.8796 11.9832C14.2838 10.5161 15.0306 9.20225 15.487 7.76776C15.9692 6.25115 16.6234 3.24242 14.4853 2.66491C13.6224 2.43172 12.7037 2.87268 12.0586 3.49149C9.66688 5.78478 8.05139 9.19408 6.66816 12.1502C5.8198 13.9626 5.00093 15.8362 4.47876 17.7734C4.16482 18.938 4.19838 20.0984 4.2315 21.3011C4.3245 24.6632 4.51959 29.3338 4.89341 32.6669Z" fill="url(#paint1_linear_101_36828)"/>
<path d="M23.833 34.8342C24.1051 34.9172 24.4958 35.6567 24.6464 35.8694C25.2452 36.7137 25.7628 37.6224 26.1507 38.5833C27.1959 41.1723 27.0444 44.0119 25.0837 46.1327C25.0606 46.1577 25.037 46.1827 25.0138 46.2076C24.9081 46.3188 24.7979 46.4272 24.7117 46.5538C24.4699 46.909 24.4123 47.354 24.1832 47.7183C23.9668 48.0626 23.6488 48.3848 23.3408 48.6447C22.6154 49.2572 21.6491 49.6827 20.6842 49.5874C20.3526 49.5548 20.0364 49.4368 19.7247 49.3198C18.3715 48.8117 16.9021 48.2323 16.1844 46.8886C16.266 47.0419 15.8936 47.6657 15.7997 47.7927C15.5747 48.0985 15.2989 48.2314 14.9509 48.3657C13.8018 48.8098 12.5511 49.1664 11.4496 49.7172C10.6884 50.0102 10.046 50.2888 9.27163 50.0347C8.8207 49.8868 8.36386 49.7571 7.91792 49.5938C7.0832 49.2885 5.69458 48.754 5.69458 47.6711C5.69458 45.9967 4.29915 40.9736 7.64801 35.9506C10.9955 30.9294 23.8225 34.831 23.833 34.8342Z" fill="#D8D6D0"/>
<path d="M23.8479 30.7071C24.1668 30.8042 24.6241 31.6707 24.8006 31.9197C25.5015 32.9087 26.108 33.973 26.5626 35.0981C27.787 38.1309 27.6092 41.4567 25.3132 43.9401C25.286 43.9691 25.2583 43.9986 25.2311 44.0276C25.1073 44.1578 24.9784 44.2848 24.8773 44.4332C24.5937 44.8497 24.5266 45.37 24.2584 45.7974C24.0053 46.2002 23.6328 46.5777 23.2717 46.8825C22.422 47.5998 21.2902 48.0979 20.1605 47.9868C19.7722 47.9486 19.402 47.8103 19.0368 47.6733C17.4517 47.0785 15.7305 46.3994 14.8898 44.8256C14.9855 45.0048 14.5491 45.7357 14.4393 45.8849C14.1758 46.2429 13.8523 46.3985 13.4454 46.5559C12.0993 47.0762 10.6345 47.4936 9.34424 48.1387C8.45279 48.4822 7.70061 48.8083 6.79328 48.5107C6.26522 48.3374 5.72989 48.1855 5.20772 47.9945C4.23007 47.637 2.60325 47.0109 2.60325 45.7425C2.60325 43.7813 0.969133 37.8981 4.89106 32.015C8.81208 26.1337 23.8356 30.703 23.8479 30.7071Z" fill="url(#paint2_linear_101_36828)"/>
<path opacity="0.41" d="M25.2892 30.6021C25.6603 30.7151 26.1925 31.7231 26.398 32.0134C27.2141 33.1644 27.9196 34.4029 28.4486 35.7122C29.8735 39.2413 29.6666 43.1119 26.9945 46.0022C26.9628 46.0363 26.931 46.0703 26.8988 46.1043C26.7546 46.2558 26.6048 46.4033 26.4869 46.5761C26.1571 47.0606 26.0786 47.6667 25.7665 48.1635C25.4716 48.6326 25.0383 49.0718 24.6182 49.4265C23.6292 50.2613 22.3122 50.8411 20.9975 50.7113C20.5457 50.6668 20.1147 50.5058 19.6896 50.3461C17.845 49.6538 15.842 48.864 14.8635 47.0321C14.9751 47.2408 14.467 48.0914 14.3395 48.2647C14.0328 48.6816 13.6567 48.8626 13.1826 49.0454C11.6161 49.6506 9.9117 50.137 8.4096 50.8878C7.37207 51.2875 6.49649 51.6667 5.44081 51.3206C4.82609 51.1191 4.20366 50.9418 3.59575 50.7195C2.45795 50.3035 0.564796 49.5749 0.564796 48.0986C0.564796 45.8162 -1.33698 38.97 3.22737 32.1232C7.79035 25.2797 25.2747 30.5976 25.2892 30.6021Z" fill="url(#paint3_linear_101_36828)"/>
<defs>
<linearGradient id="paint0_linear_101_36828" x1="13.1966" y1="23.4817" x2="31.7583" y2="-21.8838" gradientUnits="userSpaceOnUse">
<stop offset="0.1599" stop-color="#BFAB8D"/>
<stop offset="0.5078" stop-color="#E7E1D2"/>
<stop offset="0.7297" stop-color="#CCBFA6"/>
</linearGradient>
<linearGradient id="paint1_linear_101_36828" x1="26.0805" y1="17.4814" x2="5.17004" y2="18.4268" gradientUnits="userSpaceOnUse">
<stop offset="0.1599" stop-color="#BFAB8D"/>
<stop offset="0.5078" stop-color="#E7E1D2"/>
<stop offset="0.7297" stop-color="#CCBFA6"/>
</linearGradient>
<linearGradient id="paint2_linear_101_36828" x1="33.1042" y1="41.1463" x2="-1.71815" y2="37.4894" gradientUnits="userSpaceOnUse">
<stop stop-color="#94938C"/>
<stop offset="0.2296" stop-color="#EDEBE1"/>
<stop offset="0.7988" stop-color="#EDEBE1"/>
<stop offset="1" stop-color="#94938C"/>
</linearGradient>
<linearGradient id="paint3_linear_101_36828" x1="36.061" y1="42.7512" x2="-4.46442" y2="38.4954" gradientUnits="userSpaceOnUse">
<stop stop-color="#CCCCCC"/>
<stop offset="1" stop-color="#F2F2F2"/>
</linearGradient>
</defs>
</svg>
