<svg width="26" height="43" viewBox="0 0 26 43" fill="none" xmlns="http://www.w3.org/2000/svg">
<path d="M14.7758 3.48794C15.2966 1.74858 17.095 1.9677 17.703 3.53557C18.8785 6.56651 18.2751 9.96992 17.6708 13.0571C17.3908 14.4866 16.8509 19.7745 14.8334 19.9469C12.8317 20.118 9.17137 15.4144 10.8364 12.794C11.7397 11.3726 12.7274 9.99487 13.4696 8.47826C14.2767 6.8301 14.2658 5.19236 14.7758 3.48794Z" fill="url(#paint0_linear_101_36840)"/>
<path d="M4.32176 26.7873C4.38709 26.824 4.59577 26.3577 4.78314 26.3781C5.02767 26.4044 5.33253 26.3191 5.57706 26.2942C6.42179 26.2089 7.26791 26.1349 8.11446 26.0709C10.4663 25.8936 12.829 25.7856 15.1881 25.8332C16.829 25.8663 18.4948 25.9535 20.104 26.2969C21.098 26.5087 22.4059 26.824 23.0138 27.7277C23.0138 27.7277 21.6442 22.2116 22.625 17.9626C23.6054 13.7136 24.9129 2.27447 22.2979 1.94738C20.6543 1.74187 19.4153 5.56445 18.9866 6.62784C17.8497 9.44781 16.9596 12.4619 16.1534 15.4244C16.1307 15.5069 16.1076 15.5918 16.0573 15.6612C15.6159 16.2718 14.0838 16.5141 13.4918 16.1058C12.9964 15.7637 12.8739 15.0964 12.7931 14.4994C12.6498 13.4401 12.5064 12.3807 12.363 11.3214C12.0223 8.80451 11.6794 6.27126 11.7402 3.72484C11.757 3.02575 12.5536 -0.534602 10.8582 0.313295C8.01009 1.73735 6.38597 5.67604 5.59522 8.50282C4.52638 12.3222 4.48692 16.4093 4.33948 20.348C4.27189 22.1536 4.18158 23.9841 4.29908 25.7897C4.32221 26.1431 4.22785 26.7351 4.32176 26.7873Z" fill="url(#paint1_linear_101_36840)"/>
<path d="M5.41704 25.6363C6.29397 25.0289 7.4685 24.9563 8.48698 24.7526C10.0208 24.4454 11.5683 24.1896 13.1316 24.0952C16.5772 23.8865 20.3666 24.5185 22.6821 27.3217C23.4983 28.3093 24.0721 29.492 24.3597 30.7396C24.6832 32.1442 24.4224 33.0515 23.9751 34.3785C23.565 35.5948 23.0296 36.9118 22.3681 38.0133C21.6509 39.2073 20.5036 40.2412 19.061 40.2203C17.4981 40.1977 15.9706 39.5861 14.9267 38.4011C14.8718 38.339 14.8156 38.2732 14.7384 38.2419C14.6464 38.2047 14.5425 38.2242 14.4463 38.2464C12.3459 38.7278 10.2395 40.1015 8.30143 41.0301C7.37505 41.4738 6.8456 41.609 5.90743 41.1163C4.73698 40.5016 3.62234 39.7458 2.75584 38.7473C0.193094 35.7939 1.16982 31.598 3.04346 28.5525C3.63503 27.5912 4.36772 26.477 5.25418 25.7593C5.3068 25.7157 5.36124 25.6749 5.41704 25.6363Z" fill="url(#paint2_linear_101_36840)"/>
<path opacity="0.41" d="M4.76099 25.1966C5.72548 24.5283 7.0175 24.4489 8.1376 24.2244C9.82477 23.8868 11.5269 23.6051 13.2463 23.5012C17.0362 23.2717 21.2045 23.9671 23.7518 27.0503C24.6491 28.1368 25.2811 29.4375 25.5968 30.8098C25.953 32.355 25.6653 33.3526 25.1736 34.812C24.7226 36.1499 24.1333 37.5985 23.4056 38.8098C22.6167 40.1231 21.3546 41.2605 19.7677 41.2373C18.0488 41.2124 16.3684 40.5396 15.2202 39.2362C15.1599 39.1677 15.0977 39.0951 15.0129 39.0611C14.9117 39.0203 14.7974 39.0416 14.6912 39.0661C12.3807 39.5955 10.0638 41.1067 7.93252 42.1279C6.91359 42.616 6.33108 42.7648 5.29945 42.2227C4.01241 41.5467 2.78619 40.7152 1.83305 39.6168C-0.986018 36.3681 0.088234 31.753 2.14968 28.4026C2.80024 27.3451 3.60638 26.1198 4.5813 25.3299C4.63982 25.2837 4.69975 25.2388 4.76099 25.1966Z" fill="url(#paint3_linear_101_36840)"/>
<defs>
<linearGradient id="paint0_linear_101_36840" x1="12.0992" y1="19.2295" x2="25.7862" y2="-14.223" gradientUnits="userSpaceOnUse">
<stop offset="0.1599" stop-color="#BFAB8D"/>
<stop offset="0.5078" stop-color="#E7E1D2"/>
<stop offset="0.7297" stop-color="#CCBFA6"/>
</linearGradient>
<linearGradient id="paint1_linear_101_36840" x1="23.1618" y1="16.236" x2="5.47273" y2="12.8804" gradientUnits="userSpaceOnUse">
<stop offset="0.1599" stop-color="#BFAB8D"/>
<stop offset="0.5078" stop-color="#E7E1D2"/>
<stop offset="0.7297" stop-color="#CCBFA6"/>
</linearGradient>
<linearGradient id="paint2_linear_101_36840" x1="-4.0536" y1="32.7061" x2="29.2315" y2="32.7906" gradientUnits="userSpaceOnUse">
<stop stop-color="#94938C"/>
<stop offset="0.2296" stop-color="#EDEBE1"/>
<stop offset="0.7988" stop-color="#EDEBE1"/>
<stop offset="1" stop-color="#94938C"/>
</linearGradient>
<linearGradient id="paint3_linear_101_36840" x1="-5.65606" y1="32.9731" x2="30.9563" y2="33.066" gradientUnits="userSpaceOnUse">
<stop stop-color="#CCCCCC"/>
<stop offset="1" stop-color="#F2F2F2"/>
</linearGradient>
</defs>
</svg>
