<svg width="27" height="44" viewBox="0 0 27 44" fill="none" xmlns="http://www.w3.org/2000/svg">
<path d="M20.9845 2.95903C21.518 1.22332 19.9012 0.406736 18.5244 1.37258C15.8628 3.23939 14.4738 6.40413 13.2611 9.30665C12.6995 10.6508 10.2104 15.3467 11.7918 16.611C13.361 17.8654 19.0175 15.9882 19.0887 12.8847C19.1273 11.2007 19.0719 9.50671 19.2974 7.83316C19.5424 6.01489 20.4615 4.65935 20.9845 2.95903Z" fill="url(#paint0_linear_101_36850)"/>
<path d="M5.19205 26.8833C4.22983 20.5755 4.24529 12.9647 7.0489 7.12692C7.70036 5.76999 8.58727 4.52875 9.64384 3.45718C10.0585 3.03663 12.5282 0.511515 13.0476 1.13304C13.577 1.76682 13.0985 3.18317 13.0046 3.88772C12.8476 5.0668 12.6988 6.2468 12.5758 7.42996C12.3268 9.83032 11.7066 12.4312 12.3553 14.8198C12.4982 15.3456 12.8285 15.8655 13.3466 16.0338C13.6201 16.1227 13.9182 16.1046 14.199 16.0438C15.9764 15.6586 17.2626 13.8666 18.3554 12.5519C19.9183 10.6723 20.8152 8.56096 21.5959 6.26313C21.9752 5.1471 22.4089 4.06283 23.362 3.31927C23.5916 3.14007 24.0548 2.72451 24.4086 2.80934C25.5736 3.0879 25.1712 6.23092 25.129 6.94545C24.8019 12.502 22.5141 20.0193 22.5141 20.0193C22.5141 20.0193 21.5338 26.2291 22.5141 28.1903C23.4945 30.152 6.49904 30.152 5.19205 26.8833Z" fill="url(#paint1_linear_101_36850)"/>
<path d="M4.21213 27.8635C4.21213 27.863 6.82699 24.9219 12.71 24.9219C18.5931 24.9219 22.8421 26.8831 23.8224 29.4976C24.8028 32.1121 25.1299 39.3027 21.5346 40.6102C20.3973 41.0239 19.147 41.1265 18.1217 40.3933C17.2448 39.7664 16.8982 38.6141 15.5794 39.0414C15.0046 39.2274 14.5306 39.6307 14.0434 39.9882C11.9012 41.5597 8.26058 43.1898 5.8208 41.3347C2.4855 38.7987 1.3078 31.1308 4.21213 27.8635Z" fill="url(#paint2_linear_101_36850)"/>
<g opacity="0.41">
<path opacity="0.41" d="M2.69288 26.9342C2.69333 26.9337 5.73517 23.5117 12.5792 23.5117C19.4237 23.5117 24.3669 25.7932 25.5079 28.835C26.6488 31.8769 27.029 40.2425 22.8462 41.7637C21.5228 42.245 20.0684 42.3643 18.8752 41.5114C17.8549 40.7819 17.4516 39.4418 15.9173 39.9386C15.2481 40.1554 14.6974 40.624 14.1303 41.0401C11.6383 42.8683 7.40241 44.7651 4.56381 42.6066C0.684047 39.6564 -0.686494 30.7359 2.69288 26.9342Z" fill="url(#paint3_linear_101_36850)"/>
</g>
<defs>
<linearGradient id="paint0_linear_101_36850" x1="14.4482" y1="17.5071" x2="21.659" y2="-17.9119" gradientUnits="userSpaceOnUse">
<stop offset="0.1599" stop-color="#BFAB8D"/>
<stop offset="0.5078" stop-color="#E7E1D2"/>
<stop offset="0.7297" stop-color="#CCBFA6"/>
</linearGradient>
<linearGradient id="paint1_linear_101_36850" x1="-0.32715" y1="15.2286" x2="24.61" y2="15.3187" gradientUnits="userSpaceOnUse">
<stop offset="0.1599" stop-color="#BFAB8D"/>
<stop offset="0.5078" stop-color="#E7E1D2"/>
<stop offset="0.7297" stop-color="#CCBFA6"/>
</linearGradient>
<linearGradient id="paint2_linear_101_36850" x1="-2.64874" y1="33.4935" x2="29.9101" y2="33.6111" gradientUnits="userSpaceOnUse">
<stop stop-color="#94938C"/>
<stop offset="0.2296" stop-color="#EDEBE1"/>
<stop offset="0.7988" stop-color="#EDEBE1"/>
<stop offset="1" stop-color="#94938C"/>
</linearGradient>
<linearGradient id="paint3_linear_101_36850" x1="-5.2896" y1="33.4846" x2="32.5903" y2="33.6214" gradientUnits="userSpaceOnUse">
<stop stop-color="#CCCCCC"/>
<stop offset="1" stop-color="#F2F2F2"/>
</linearGradient>
</defs>
</svg>
