<svg width="30" height="50" viewBox="0 0 30 50" fill="none" xmlns="http://www.w3.org/2000/svg">
<path d="M12.7636 44.1321C12.5617 46.0892 13.8315 46.5343 14.7325 45.171C16.4751 42.5347 17.1474 38.8605 17.7195 35.5065C17.9844 33.9536 19.2946 28.3925 18.0026 27.4679C16.7205 26.5511 12.7908 29.9604 13.0744 33.235C13.2282 35.0115 13.4523 36.7749 13.4686 38.5883C13.4867 40.5585 12.9618 42.2144 12.7636 44.1321Z" fill="url(#paint0_linear_101_36931)"/>
<path d="M24.3939 21.8669C23.7084 23.8254 23.1558 25.8696 22.8369 27.9202C22.6223 29.3003 22.6541 30.527 22.8637 31.893C23.2162 34.1886 23.2416 36.5844 23.1427 38.9C22.9884 42.5116 21.2559 45.2318 19.8708 48.4806C19.3618 49.6742 18.1845 50.3007 17.1175 49.2023C15.7638 47.8096 16.129 44.882 16.075 43.1155C16.0015 40.6974 15.9525 38.2626 15.4689 35.8831C15.2607 34.8587 14.968 33.8374 14.4332 32.9392C13.9015 32.0459 12.9188 31.6104 11.9774 32.2537C10.724 33.1102 10.4413 34.9866 10.0085 36.3222C9.6025 37.5748 9.23458 38.8396 8.87936 40.1076C8.3776 41.8983 7.91349 43.7002 7.43532 45.4972C7.23707 46.2412 6.59014 47.9888 5.49635 47.2293C5.12706 46.9726 4.94468 46.528 4.79089 46.1056C4.28596 44.7165 3.88265 43.2933 3.48025 41.8715C2.94083 39.9665 2.44452 38.067 2.32838 36.0831C2.17005 33.3783 3.23571 30.7058 3.75652 28.0876C4.31 25.3053 4.65569 22.4816 4.78817 19.648C4.79678 19.4616 4.8113 19.2588 4.93697 19.1209C5.1071 18.9348 5.3988 18.9494 5.64877 18.9779C8.72056 19.33 11.7987 19.6163 14.8673 20.0001C16.9438 20.2582 19.0229 20.5313 21.0812 20.9106C21.9886 21.0775 23.6912 21.1642 24.3939 21.8669Z" fill="url(#paint1_linear_101_36931)"/>
<path d="M26.7912 17.6209C26.8938 16.3942 26.8656 15.1512 27.0993 13.9394C27.464 12.0481 28.419 10.4004 28.2838 8.39659C27.9581 3.57237 21.2162 3.19947 17.8264 4.5355C16.4169 5.09078 15.8385 4.56634 14.6535 3.8178C13.3696 3.00666 11.8548 2.58203 10.3373 2.58203C8.60209 2.58203 6.68717 3.07561 5.20505 3.98747C3.0125 5.33666 3.01432 7.55007 2.86371 9.87326C2.69676 12.4428 2.75618 15.0899 3.60589 17.5469C3.86584 18.2991 4.21017 19.0381 4.75185 19.6211C5.52171 20.4499 6.50253 20.5592 7.54278 20.7988C8.96274 21.1259 10.3986 21.4026 11.8299 21.6734C14.6367 22.2047 17.4698 22.637 20.3256 22.7804C21.6798 22.8484 23.0821 22.7109 24.2847 22.0844C26.0264 21.178 26.6365 19.4723 26.7912 17.6209Z" fill="url(#paint2_linear_101_36931)"/>
<path opacity="0.41" d="M28.2477 17.9783C28.3648 16.5733 28.333 15.1488 28.6007 13.7611C29.0185 11.5939 30.1127 9.70668 29.9576 7.41115C29.5847 1.88462 21.861 1.45726 17.9772 2.98793C16.3626 3.62442 15.6998 3.02331 14.3424 2.16588C12.8716 1.23678 11.1363 0.75 9.39787 0.75C7.4099 0.75 5.21597 1.31526 3.51789 2.36051C1.00594 3.90614 1.00821 6.44166 0.835364 9.10376C0.644371 12.0476 0.71242 15.0799 1.68554 17.8949C1.98314 18.7564 2.37783 19.6029 2.99844 20.2707C3.88083 21.2202 5.0041 21.3454 6.19589 21.6199C7.82228 21.9946 9.46728 22.3117 11.1073 22.622C14.3229 23.2309 17.5684 23.7258 20.8403 23.8905C22.3918 23.9685 23.9982 23.8111 25.376 23.0934C27.3717 22.0531 28.0703 20.0992 28.2477 17.9783Z" fill="url(#paint3_linear_101_36931)"/>
<defs>
<linearGradient id="paint0_linear_101_36931" x1="15.9463" y1="27.2062" x2="18.0559" y2="66.0115" gradientUnits="userSpaceOnUse">
<stop offset="0.1599" stop-color="#BFAB8D"/>
<stop offset="0.5078" stop-color="#E7E1D2"/>
<stop offset="0.7297" stop-color="#CCBFA6"/>
</linearGradient>
<linearGradient id="paint1_linear_101_36931" x1="21.8672" y1="35.7585" x2="4.37297" y2="32.3543" gradientUnits="userSpaceOnUse">
<stop stop-color="#BFAB8D"/>
<stop offset="0.5078" stop-color="#E7E1D2"/>
<stop offset="1" stop-color="#CCBFA6"/>
</linearGradient>
<linearGradient id="paint2_linear_101_36931" x1="32.3693" y1="15.7051" x2="-0.928738" y2="9.22566" gradientUnits="userSpaceOnUse">
<stop stop-color="#94938C"/>
<stop offset="0.2114" stop-color="#EDEBE1"/>
<stop offset="0.847" stop-color="#EDEBE1"/>
<stop offset="1" stop-color="#94938C"/>
</linearGradient>
<linearGradient id="paint3_linear_101_36931" x1="34.638" y1="15.7835" x2="-3.50926" y2="8.36036" gradientUnits="userSpaceOnUse">
<stop stop-color="#CCCCCC"/>
<stop offset="1" stop-color="#F2F2F2"/>
</linearGradient>
</defs>
</svg>
