<svg width="32" height="53" viewBox="0 0 32 53" fill="none" xmlns="http://www.w3.org/2000/svg">
<path d="M20.6586 3.14934C21.9715 3.23871 22.985 3.62388 24.063 4.36428C24.3547 4.56481 24.6309 4.80661 24.5733 5.09334C24.3048 6.43259 14.4293 5.35648 14.5241 4.18191C14.5831 3.48415 17.7946 3.29678 18.5137 3.21966C19.3248 3.1321 20.0262 3.10624 20.6586 3.14934Z" fill="#D8D6D0"/>
<path d="M10.4956 48.5191C9.8201 50.6831 11.4152 51.566 12.8968 50.2839C15.7613 47.8051 17.419 43.8286 18.877 40.1861C19.5521 38.4993 22.4505 32.568 20.9253 31.1344C19.4119 29.7122 13.4794 32.4206 13.1754 36.2269C13.0103 38.2916 12.9413 40.3621 12.5861 42.4277C12.1996 44.6729 11.158 46.3991 10.4956 48.5191Z" fill="url(#paint0_linear_101_36915)"/>
<path d="M27.2663 23.247C27.0785 24.0214 26.912 24.8094 26.8752 24.9619C26.5599 26.2698 26.2864 27.5882 26.0668 28.9156C25.8876 30.0003 25.7443 31.0914 25.6377 32.1857C25.5342 33.2463 25.6245 34.4141 25.4226 35.4539C25.2235 36.4788 24.8583 37.554 24.513 38.5439C23.4764 41.5168 21.9063 44.2833 20.0417 46.812C19.1062 48.0805 18.0946 49.2922 17.0266 50.4514C16.3706 51.1636 14.9761 53.2723 13.817 52.3963C13.3819 52.0673 13.2072 51.4808 13.2354 50.9359C13.2635 50.391 13.4631 49.872 13.6523 49.3603C15.1094 45.412 16.4949 40.5232 15.6756 36.2873C15.5903 35.8459 15.457 35.3899 15.1403 35.071C14.7252 34.6532 14.0606 34.5593 13.4926 34.7158C12.9246 34.8723 12.4401 35.2439 12.0173 35.654C10.566 37.0626 9.53483 39.0429 8.64791 40.844C7.97649 42.2077 7.48335 43.6608 7.19981 45.1548C6.92852 46.5847 7.15899 48.2842 6.58465 49.6261C6.263 50.3783 5.54575 51.023 4.72779 50.9994C4.0913 50.9813 3.52785 50.5716 3.10821 50.0925C1.56212 48.3273 1.26587 45.5145 1.17559 43.2639C1.06218 40.4275 1.46594 37.6011 1.90554 34.807C2.50393 31.003 3.27289 27.2248 4.13168 23.4716C4.1648 23.3259 4.63206 20.9582 4.72643 20.9609C4.72643 20.9609 27.6011 21.5956 27.8112 21.6015C27.6941 21.5993 27.4677 22.4154 27.2663 23.247Z" fill="url(#paint1_linear_101_36915)"/>
<path d="M9.36657 2.97532C10.5524 2.90772 11.5178 3.16676 12.5971 3.76877C12.8892 3.93163 13.1741 4.1376 13.1682 4.42658C13.1415 5.77849 4.15764 5.88964 4.05557 4.72055C3.9975 4.02554 6.83379 3.46029 7.46301 3.29833C8.1739 3.11641 8.79587 3.00798 9.36657 2.97532Z" fill="#D8D6D0"/>
<path d="M25.3161 4.02518C26.2693 4.12044 27.1671 4.48746 27.9406 5.29407C28.9373 6.33341 29.4363 7.77515 29.5597 9.20963C29.8242 12.2873 29.2975 15.9474 28.5285 18.9289C28.2845 19.8752 28.26 21.8641 27.6103 22.5945C25.5888 24.8669 21.1469 23.7613 18.4589 23.5748C15.3803 23.3612 12.0658 23.2591 9.30751 22.5945C7.48149 22.5028 4.12842 22.907 3.57404 20.4922C2.9389 17.7244 2.54784 14.894 2.41718 12.0573C2.31919 9.93775 2.0098 4.70067 5.05664 4.29192C5.50259 4.23204 6.25523 4.7347 6.70209 4.83632C7.63438 5.04772 8.54399 5.01915 9.46947 4.77326C10.6077 4.47113 11.6648 3.92673 12.7558 3.48351C12.9931 3.38733 13.2399 3.29433 13.4958 3.30113C14.0787 3.31701 14.507 3.82193 14.9734 4.17216C16.9364 5.64747 20.4551 4.88214 22.6222 4.31552C23.5323 4.07734 24.4473 3.93807 25.3161 4.02518Z" fill="url(#paint2_linear_101_36915)"/>
<path opacity="0.41" d="M26.5696 1.22728C27.6607 1.33616 28.6878 1.75625 29.5733 2.67947C30.7143 3.86899 31.285 5.51852 31.4261 7.1608C31.7291 10.6831 31.1262 14.8718 30.2461 18.2838C29.9666 19.3667 29.9385 21.6428 29.1949 22.4789C26.8812 25.0798 21.7979 23.8145 18.7216 23.6008C15.1984 23.3563 11.4053 23.2392 8.24821 22.4789C6.15816 22.3736 2.32105 22.8364 1.68682 20.0731C0.959591 16.9056 0.512266 13.6664 0.36301 10.4195C0.250954 7.99374 -0.103357 2.00033 3.38399 1.53259C3.89436 1.46409 4.75542 2.03935 5.26716 2.15549C6.33419 2.39775 7.37536 2.36463 8.43422 2.08335C9.73715 1.73766 10.9462 1.11477 12.1951 0.60757C12.4664 0.497329 12.749 0.390712 13.0417 0.398878C13.7085 0.417025 14.199 0.994554 14.7329 1.3956C16.9795 3.0837 21.0063 2.20811 23.4865 1.55936C24.5276 1.28762 25.5751 1.12838 26.5696 1.22728Z" fill="url(#paint3_linear_101_36915)"/>
<defs>
<linearGradient id="paint0_linear_101_36915" x1="18.2523" y1="30.2319" x2="10.4905" y2="74.5243" gradientUnits="userSpaceOnUse">
<stop offset="0.1599" stop-color="#BFAB8D"/>
<stop offset="0.5078" stop-color="#E7E1D2"/>
<stop offset="0.7297" stop-color="#CCBFA6"/>
</linearGradient>
<linearGradient id="paint1_linear_101_36915" x1="25.2243" y1="36.7276" x2="2.69743" y2="36.809" gradientUnits="userSpaceOnUse">
<stop stop-color="#BFAB8D"/>
<stop offset="0.5078" stop-color="#E7E1D2"/>
<stop offset="1" stop-color="#CCBFA6"/>
</linearGradient>
<linearGradient id="paint2_linear_101_36915" x1="35.3349" y1="13.5932" x2="-3.51073" y2="13.7336" gradientUnits="userSpaceOnUse">
<stop stop-color="#94938C"/>
<stop offset="0.2296" stop-color="#EDEBE1"/>
<stop offset="0.7988" stop-color="#EDEBE1"/>
<stop offset="1" stop-color="#94938C"/>
</linearGradient>
<linearGradient id="paint3_linear_101_36915" x1="38.035" y1="12.1776" x2="-6.42043" y2="12.3382" gradientUnits="userSpaceOnUse">
<stop stop-color="#CCCCCC"/>
<stop offset="1" stop-color="#F2F2F2"/>
</linearGradient>
</defs>
</svg>
