<svg width="27" height="43" viewBox="0 0 27 43" fill="none" xmlns="http://www.w3.org/2000/svg">
<path d="M11.7861 3.52701C11.2653 1.78764 9.46689 2.00676 8.85897 3.57464C7.6835 6.60561 8.28688 10.009 8.89117 13.0962C9.17109 14.5258 9.71097 19.8137 11.7285 19.9861C13.7301 20.1572 17.3903 15.4535 15.7253 12.8331C14.8221 11.4118 13.8344 10.034 13.0922 8.51737C12.2851 6.86919 12.296 5.23144 11.7861 3.52701Z" fill="url(#paint0_linear_101_36845)"/>
<path d="M22.2461 26.8266C22.1807 26.8633 21.9721 26.397 21.7847 26.4174C21.5402 26.4437 21.2353 26.3584 20.9908 26.3334C20.146 26.2482 19.3 26.1742 18.4534 26.1102C16.1016 25.9329 13.7389 25.8249 11.3799 25.8725C9.73896 25.9056 8.07309 25.9927 6.46394 26.3362C5.46996 26.548 4.16204 26.8633 3.55413 27.767C3.55413 27.767 4.92375 22.2509 3.94292 18.0018C2.96255 13.7528 1.65509 2.31356 4.27002 1.98647C5.91365 1.78096 7.15261 5.60356 7.58132 6.66696C8.71821 9.48695 9.6083 12.5011 10.4145 15.4636C10.4371 15.5461 10.4603 15.631 10.5106 15.7004C10.9521 16.311 12.4845 16.5533 13.0761 16.145C13.5715 15.8029 13.694 15.1356 13.7748 14.5385C13.9181 13.4792 14.0615 12.4199 14.2048 11.3606C14.5455 8.84366 14.8885 6.31037 14.8277 3.76394C14.8109 3.06484 14.0143 -0.495546 15.7097 0.352359C18.5578 1.77642 20.1819 5.71517 20.9726 8.54197C22.0415 12.3614 22.0809 16.4485 22.2284 20.3872C22.296 22.1928 22.3863 24.0234 22.2688 25.829C22.2456 26.1824 22.34 26.7744 22.2461 26.8266Z" fill="url(#paint1_linear_101_36845)"/>
<path d="M21.1491 25.6754C20.2722 25.0679 19.0976 24.9953 18.0792 24.7916C16.5453 24.4845 14.9979 24.2286 13.435 24.1343C9.98937 23.9256 6.19989 24.5576 3.88437 27.3607C3.06823 28.3484 2.49434 29.5311 2.20672 30.7786C1.88325 32.1832 2.14411 33.0905 2.59142 34.4175C3.00154 35.6338 3.53686 36.9507 4.19831 38.0522C4.91556 39.2463 6.06287 40.2802 7.50553 40.2593C9.06842 40.2366 10.5959 39.6251 11.6398 38.4401C11.6947 38.378 11.751 38.3122 11.8281 38.2809C11.9202 38.2437 12.0241 38.2632 12.1202 38.2854C14.2212 38.7668 16.3271 40.1404 18.2652 41.0691C19.1915 41.5128 19.721 41.648 20.6592 41.1553C21.8296 40.5406 22.9443 39.7848 23.8108 38.7863C26.3735 35.8329 25.3968 31.637 23.5232 28.5915C22.9316 27.6302 22.1989 26.516 21.3124 25.7983C21.2594 25.7543 21.2049 25.7139 21.1491 25.6754Z" fill="url(#paint2_linear_101_36845)"/>
<path opacity="0.41" d="M21.7998 25.2356C20.8353 24.5674 19.5432 24.488 18.4231 24.2634C16.736 23.9259 15.0338 23.6442 13.3144 23.5403C9.52449 23.3107 5.35622 24.0062 2.80889 27.0893C1.91154 28.1759 1.27959 29.4766 0.963388 30.8489C0.607262 32.3941 0.894889 33.3917 1.38666 34.8512C1.8376 36.1891 2.42691 37.6377 3.15459 38.849C3.94351 40.1623 5.20561 41.2997 6.79253 41.2766C8.51146 41.2516 10.1918 40.5788 11.3401 39.2754C11.4004 39.2069 11.4626 39.1343 11.5474 39.1003C11.6486 39.0595 11.7629 39.0808 11.869 39.1053C14.1795 39.6347 16.4964 41.1459 18.6277 42.1671C19.6467 42.6553 20.2292 42.8041 21.2608 42.2619C22.5478 41.586 23.7746 40.7544 24.7273 39.656C27.5463 36.4073 26.472 31.7921 24.4106 28.4417C23.76 27.3842 22.9539 26.1589 21.9789 25.369C21.9209 25.3227 21.861 25.2778 21.7998 25.2356Z" fill="url(#paint3_linear_101_36845)"/>
<defs>
<linearGradient id="paint0_linear_101_36845" x1="14.4546" y1="19.2556" x2="0.767203" y2="-14.1968" gradientUnits="userSpaceOnUse">
<stop offset="0.1599" stop-color="#BFAB8D"/>
<stop offset="0.5078" stop-color="#E7E1D2"/>
<stop offset="0.7297" stop-color="#CCBFA6"/>
</linearGradient>
<linearGradient id="paint1_linear_101_36845" x1="3.4062" y1="16.275" x2="21.0951" y2="12.9196" gradientUnits="userSpaceOnUse">
<stop offset="0.1599" stop-color="#BFAB8D"/>
<stop offset="0.5078" stop-color="#E7E1D2"/>
<stop offset="0.7297" stop-color="#CCBFA6"/>
</linearGradient>
<linearGradient id="paint2_linear_101_36845" x1="30.6206" y1="32.7439" x2="-2.66466" y2="32.8284" gradientUnits="userSpaceOnUse">
<stop stop-color="#94938C"/>
<stop offset="0.2296" stop-color="#EDEBE1"/>
<stop offset="0.7988" stop-color="#EDEBE1"/>
<stop offset="1" stop-color="#94938C"/>
</linearGradient>
<linearGradient id="paint3_linear_101_36845" x1="32.2177" y1="33.011" x2="-4.3947" y2="33.1039" gradientUnits="userSpaceOnUse">
<stop stop-color="#CCCCCC"/>
<stop offset="1" stop-color="#F2F2F2"/>
</linearGradient>
</defs>
</svg>
