<svg width="22" height="53" viewBox="0 0 22 53" fill="none" xmlns="http://www.w3.org/2000/svg">
<path d="M16.0907 22.7466C15.2877 28.0027 13.8718 33.2548 12.0285 38.2347C10.0025 43.7078 7.47098 49.1813 2.54958 52.611C2.43026 52.694 2.30232 52.7802 2.15714 52.7874C2.00925 52.7947 1.86997 52.718 1.75157 52.6291C1.07378 52.1224 0.824271 51.1969 0.894136 50.3535C0.964001 49.5097 1.30062 48.7153 1.5946 47.9214C3.38841 43.079 3.8262 37.7498 4.33748 32.6483C4.6614 29.4186 5.42947 25.4599 4.66821 22.2403C3.8507 18.7847 15.5844 22.1327 16.0907 22.7466Z" fill="url(#paint0_linear_101_36902)"/>
<path d="M5.9522 2.76474C6.67897 2.43719 7.43703 2.42949 8.4496 2.67809C8.72361 2.74523 9.01577 2.84958 9.16457 3.08911C9.8614 4.20874 4.14209 6.35863 3.45842 5.4191C3.05376 4.86019 4.57942 3.74464 4.8988 3.46745C5.25946 3.15443 5.60197 2.92261 5.9522 2.76474Z" fill="#D8D6D0"/>
<path d="M15.8899 2.95143C16.2274 3.05305 16.4842 3.16193 16.5921 3.25675C17.1383 3.73673 17.7059 4.24755 17.9504 4.93214C18.0484 5.20661 18.0588 5.57453 17.8093 5.72515C17.7249 5.77596 17.6242 5.79139 17.5262 5.79956C16.3816 5.89347 15.0574 5.14945 14.0893 4.6182C13.7309 4.42177 12.1898 3.71268 12.2601 3.15512C12.3672 2.30994 14.6627 2.5826 15.8899 2.95143Z" fill="#D8D6D0"/>
<path d="M17.9074 5.058C17.9074 5.058 20.1953 6.69211 18.8878 10.9412C18.2341 16.8243 16.2729 22.7075 16.2729 22.7075C16.2729 22.7075 15.6191 23.6879 11.0435 23.6879C6.46779 23.6879 5.16032 23.0341 4.50658 21.7267C3.85285 20.4192 2.21875 7.99913 2.21875 7.99913C2.21875 7.99913 2.54539 5.05755 3.85286 4.7309C5.16032 4.40426 6.46779 4.07716 6.79443 4.07716C7.12107 4.07716 10.0626 2.11595 11.3701 2.44305C12.678 2.77014 15.9462 5.38464 17.9074 5.058Z" fill="url(#paint1_linear_101_36902)"/>
<path opacity="0.41" d="M19.4846 3.29195C19.4846 3.29195 22.2782 5.28762 20.6818 10.4757C19.8838 17.6596 17.4889 24.8434 17.4889 24.8434C17.4889 24.8434 16.6909 26.0406 11.1036 26.0406C5.51623 26.0406 3.91978 25.2426 3.12179 23.6461C2.32379 22.0497 0.328125 6.88407 0.328125 6.88407C0.328125 6.88407 0.72735 3.2924 2.3238 2.89317C3.92024 2.49395 5.51669 2.09517 5.91546 2.09517C6.31423 2.09517 9.90634 -0.299283 11.5028 0.0994894C13.0992 0.498262 17.0901 3.69072 19.4846 3.29195Z" fill="url(#paint2_linear_101_36902)"/>
<defs>
<linearGradient id="paint0_linear_101_36902" x1="12.8626" y1="36.714" x2="2.49613" y2="36.7515" gradientUnits="userSpaceOnUse">
<stop stop-color="#BFAB8D"/>
<stop offset="0.5078" stop-color="#E7E1D2"/>
<stop offset="1" stop-color="#CCBFA6"/>
</linearGradient>
<linearGradient id="paint1_linear_101_36902" x1="22.9254" y1="13.0043" x2="-1.2066" y2="13.0915" gradientUnits="userSpaceOnUse">
<stop stop-color="#94938C"/>
<stop offset="0.2296" stop-color="#EDEBE1"/>
<stop offset="0.7988" stop-color="#EDEBE1"/>
<stop offset="1" stop-color="#94938C"/>
</linearGradient>
<linearGradient id="paint2_linear_101_36902" x1="25.6119" y1="12.9949" x2="-3.8548" y2="13.1014" gradientUnits="userSpaceOnUse">
<stop stop-color="#CCCCCC"/>
<stop offset="1" stop-color="#F2F2F2"/>
</linearGradient>
</defs>
</svg>
