<svg width="22" height="55" viewBox="0 0 22 55" fill="none" xmlns="http://www.w3.org/2000/svg">
<path d="M17.5755 23.7119C17.5755 23.7119 11.3657 49.2055 6.13587 53.4541C0.905986 57.7027 3.52092 49.2051 3.52092 49.2051C3.52092 49.2051 5.48212 33.5169 5.48212 30.5754C5.48212 27.6338 4.44232 22.125 4.44232 22.125C4.44232 22.125 14.5142 24.294 17.5755 23.7119Z" fill="url(#paint0_linear_101_36892)"/>
<path d="M17.8991 4.42671C17.8991 4.42671 21.1673 6.06086 20.1869 10.6366C19.2066 15.2124 19.5332 17.8274 19.5332 17.8274C19.5332 17.8274 18.8795 25.6719 13.3235 25.9986C7.76704 26.3252 4.17222 23.0569 3.84513 21.0957C3.51804 19.1344 3.51849 13.5783 3.1914 12.5974C2.86476 11.617 1.88394 5.40665 5.15257 4.42626C8.4212 3.44586 10.3819 3.11877 10.3819 3.11877C10.3819 3.11877 13.6501 2.13882 17.8991 4.42671Z" fill="url(#paint1_linear_101_36892)"/>
<path opacity="0.41" d="M18.8459 2.56351C18.8459 2.56351 22.7216 4.50112 21.5589 9.92699C20.3961 15.3529 20.7835 18.4532 20.7835 18.4532C20.7835 18.4532 20.0087 27.7543 13.42 28.1422C6.83138 28.5301 2.56826 24.6544 2.18083 22.3289C1.7934 20.0034 1.79339 13.4152 1.4055 12.2525C1.01762 11.0897 -0.144683 3.72626 3.73101 2.56351C7.60671 1.40076 9.93177 1.01332 9.93177 1.01332C9.93177 1.01332 13.8079 -0.14942 18.8459 2.56351Z" fill="url(#paint2_linear_101_36892)"/>
<defs>
<linearGradient id="paint0_linear_101_36892" x1="4.31619" y1="38.3852" x2="15.8726" y2="38.427" gradientUnits="userSpaceOnUse">
<stop stop-color="#BFAB8D"/>
<stop offset="0.5078" stop-color="#E7E1D2"/>
<stop offset="1" stop-color="#CCBFA6"/>
</linearGradient>
<linearGradient id="paint1_linear_101_36892" x1="-0.483875" y1="14.4195" x2="23.6828" y2="14.5068" gradientUnits="userSpaceOnUse">
<stop stop-color="#94938C"/>
<stop offset="0.2296" stop-color="#EDEBE1"/>
<stop offset="0.4283" stop-color="#EDEBE1"/>
<stop offset="0.7988" stop-color="#EDEBE1"/>
<stop offset="1" stop-color="#94938C"/>
</linearGradient>
<linearGradient id="paint2_linear_101_36892" x1="-2.95219" y1="14.412" x2="25.7039" y2="14.5155" gradientUnits="userSpaceOnUse">
<stop stop-color="#CCCCCC"/>
<stop offset="1" stop-color="#F2F2F2"/>
</linearGradient>
</defs>
</svg>
