<svg width="21" height="69" viewBox="0 0 21 69" fill="none" xmlns="http://www.w3.org/2000/svg">
<path d="M16.5728 28.8949C14.6678 28.885 12.7333 28.7094 10.8316 28.5569C8.52826 28.3723 5.29401 28.4853 3.19078 27.3847C2.99843 27.284 2.93491 26.9414 2.75798 26.8203C2.35557 28.1695 2.69992 30.3317 2.77931 31.7131C3.0066 35.6623 3.18127 39.6188 3.14316 43.5752C3.12183 45.7592 3.00025 47.9277 2.80381 50.1021C2.53252 53.105 1.51855 56.0366 1.24544 59.0703C1.05399 61.1975 1.08621 63.3602 1.50132 65.4607C1.63198 66.1212 1.82205 67.8338 2.39504 67.9917C3.15086 68.1995 4.29094 67.0371 4.67067 66.525C5.92643 64.8319 6.24854 62.539 6.89094 60.5774C7.60956 58.3816 8.45158 56.2285 9.31129 54.0849C10.9885 49.9034 12.7524 45.7329 13.8326 41.3463C14.4637 38.7836 14.7445 36.1582 15.337 33.5859C15.6994 32.0098 16.1273 30.4492 16.5728 28.8949Z" fill="url(#paint0_linear_101_36884)"/>
<path d="M18.767 10.1434C18.767 10.1434 19.7456 4.91351 17.4569 3.28031C15.1681 1.6471 14.1882 2.3013 14.1882 2.3013C13.2419 2.55989 12.291 2.80215 11.3383 3.03488C9.76958 3.41777 8.07607 3.96672 6.45016 3.92453C6.12443 3.91591 5.79779 3.87961 5.47388 3.91228C3.05088 4.15453 2.65758 6.73499 2.29374 8.62543C1.82693 11.0494 1.49801 13.506 1.30384 15.9667C1.1437 17.9987 1.06614 20.0538 1.23717 22.088C1.36147 23.5615 1.56741 25.2446 2.43254 26.4931C3.64109 28.2375 5.85724 29.0301 7.83882 29.486C10.3539 30.0649 12.9969 30.201 15.5692 30.0925C16.9678 30.0331 17.3575 26.916 17.4355 25.927C17.8506 20.6626 18.292 15.4023 18.767 10.1434Z" fill="url(#paint1_linear_101_36884)"/>
<path opacity="0.41" d="M19.8534 9.39335C19.8534 9.39335 20.9539 3.51019 18.3794 1.67284C15.8048 -0.164515 14.7019 0.571333 14.7019 0.571333C13.6376 0.862134 12.5679 1.1348 11.4959 1.39656C9.7311 1.82755 7.8257 2.44453 5.99696 2.39689C5.63085 2.38736 5.26338 2.34654 4.89863 2.38284C2.17299 2.65504 1.73022 5.5585 1.32101 7.68484C0.795663 10.4118 0.425456 13.1751 0.207242 15.9434C0.0266817 18.2294 -0.0604182 20.5413 0.132391 22.8296C0.272121 24.4869 0.503951 26.3805 1.47707 27.785C2.83671 29.7476 5.32962 30.6391 7.55895 31.1522C10.3885 31.8032 13.3614 31.9561 16.2553 31.8345C17.8286 31.7678 18.2673 28.2614 18.3549 27.1485C18.8222 21.2268 19.3185 15.3092 19.8534 9.39335Z" fill="url(#paint2_linear_101_36884)"/>
<defs>
<linearGradient id="paint0_linear_101_36884" x1="11.9444" y1="47.3807" x2="2.86264" y2="47.4173" gradientUnits="userSpaceOnUse">
<stop stop-color="#BFAB8D"/>
<stop offset="0.5078" stop-color="#E7E1D2"/>
<stop offset="1" stop-color="#CCBFA6"/>
</linearGradient>
<linearGradient id="paint1_linear_101_36884" x1="23.4388" y1="16.1124" x2="-2.88836" y2="16.2184" gradientUnits="userSpaceOnUse">
<stop stop-color="#94938C"/>
<stop offset="0.2296" stop-color="#EDEBE1"/>
<stop offset="0.7988" stop-color="#EDEBE1"/>
<stop offset="1" stop-color="#94938C"/>
</linearGradient>
<linearGradient id="paint2_linear_101_36884" x1="25.1085" y1="16.1084" x2="-4.50841" y2="16.2276" gradientUnits="userSpaceOnUse">
<stop stop-color="#CCCCCC"/>
<stop offset="1" stop-color="#F2F2F2"/>
</linearGradient>
</defs>
</svg>
