<svg width="20" height="66" viewBox="0 0 20 66" fill="none" xmlns="http://www.w3.org/2000/svg">
<path d="M15.4318 25.0547C15.4318 25.0547 7.26077 28.9766 4.97291 25.7084C5.06273 28.9199 5.11808 32.1332 5.16027 35.3456C5.24011 41.4541 5.27233 47.5686 5.09403 53.6758C5.03143 55.8207 4.98152 57.9684 4.77646 60.1056C4.67212 61.1944 4.52831 62.28 4.32279 63.3543C4.22843 63.8487 3.94396 64.4312 4.17307 64.8826C4.47793 65.4828 5.26551 65.6189 5.81581 65.3481C6.59023 64.967 7.09926 64.0298 7.48352 63.3062C8.41037 61.5605 9.0083 59.631 9.54908 57.7384C12.8169 46.2988 14.9283 28.5706 15.4318 25.0547Z" fill="url(#paint0_linear_101_36876)"/>
<path d="M16.6893 2.61374C15.9167 2.21724 14.7131 2.46221 13.8665 2.45495C12.296 2.4418 10.7254 2.44633 9.15525 2.49169C7.40093 2.5425 4.96157 2.34199 3.33926 3.15314C1.78138 3.93208 1.61578 5.87784 1.66296 7.40623C1.84987 13.4436 2.23867 19.798 4.67394 25.4112C5.3871 27.0548 6.38244 28.7134 7.94033 29.6806C10.3543 31.1795 13.1176 30.3108 14.4935 27.9109C15.595 25.9901 16.0187 23.7758 16.2497 21.6036C16.4243 19.9591 16.315 18.3023 16.4316 16.6546C16.5545 14.918 17.0667 13.2331 17.3466 11.5169C17.789 8.80305 18.3243 5.9713 17.313 3.31782C17.1828 2.97576 16.9633 2.75437 16.6893 2.61374Z" fill="url(#paint1_linear_101_36876)"/>
<path opacity="0.41" d="M17.8386 0.327266C16.938 -0.135019 15.5344 0.150344 14.5477 0.142178C12.7167 0.127207 10.8853 0.132195 9.05522 0.18482C7.01011 0.243797 4.16611 0.0101587 2.27434 0.956052C0.458329 1.86429 0.265054 4.13262 0.320401 5.91462C0.538159 12.9537 0.991385 20.3616 3.83086 26.9062C4.66242 28.8225 5.82243 30.7565 7.6389 31.8838C10.4534 33.6313 13.6749 32.6183 15.279 29.8205C16.5633 27.5812 17.0574 24.9994 17.3268 22.4671C17.5305 20.5499 17.4031 18.6182 17.5392 16.6974C17.6825 14.6731 18.28 12.7083 18.6057 10.7072C19.1211 7.54329 19.7458 4.24195 18.5662 1.14795C18.4147 0.749633 18.1584 0.491493 17.8386 0.327266Z" fill="url(#paint2_linear_101_36876)"/>
<defs>
<linearGradient id="paint0_linear_101_36876" x1="2.79256" y1="45.2406" x2="12.0257" y2="45.2739" gradientUnits="userSpaceOnUse">
<stop stop-color="#BFAB8D"/>
<stop offset="0.5078" stop-color="#E7E1D2"/>
<stop offset="1" stop-color="#CCBFA6"/>
</linearGradient>
<linearGradient id="paint1_linear_101_36876" x1="-1.05767" y1="16.3535" x2="21.1353" y2="16.4336" gradientUnits="userSpaceOnUse">
<stop stop-color="#94938C"/>
<stop offset="0.2296" stop-color="#EDEBE1"/>
<stop offset="0.7988" stop-color="#EDEBE1"/>
<stop offset="1" stop-color="#94938C"/>
</linearGradient>
<linearGradient id="paint2_linear_101_36876" x1="-2.85167" y1="16.3461" x2="23.0222" y2="16.4396" gradientUnits="userSpaceOnUse">
<stop stop-color="#CCCCCC"/>
<stop offset="1" stop-color="#F2F2F2"/>
</linearGradient>
</defs>
</svg>
