<svg width="18" height="68" viewBox="0 0 18 68" fill="none" xmlns="http://www.w3.org/2000/svg">
<path d="M3.32732 26.5938C3.32687 34.1278 1.79209 41.6078 1.44185 49.1364C1.29894 52.205 1.06258 55.2727 1.10704 58.3467C1.14198 60.7833 0.955512 64.8468 2.47487 66.9219C3.11818 67.7984 5.02179 63.8964 5.20371 63.5217C6.34288 61.1758 7.05061 58.682 7.93074 56.234C8.90114 53.5342 9.89061 50.8177 10.6859 48.0594C11.747 44.3793 12.3518 40.5462 13.0278 36.7813C13.1335 36.1915 14.0571 28.6098 14.44 28.5554C14.4369 28.555 5.2881 29.8615 3.32732 26.5938Z" fill="url(#paint0_linear_101_36868)"/>
<path d="M15.9366 2.55508C15.7878 2.41944 15.5252 2.39085 15.0388 2.35002C14.2948 2.28787 13.5218 2.34231 12.7759 2.34367C9.73592 2.34956 6.69588 2.40945 3.65586 2.40945C3.65586 2.40945 0.714306 3.06319 1.04095 4.6973C1.36759 6.33141 2.3484 26.5958 3.32877 27.9028C4.30915 29.2099 6.597 33.4594 11.4998 32.1519C16.4021 30.8444 15.4217 19.4056 15.4217 19.4052C15.2924 17.3333 15.8132 15.0387 15.9543 12.9672C16.1639 9.89225 16.3431 6.79052 16.1671 3.70921C16.1285 3.0337 16.1145 2.7175 15.9366 2.55508Z" fill="url(#paint1_linear_101_36868)"/>
<path opacity="0.41" d="M16.8203 0.762937C16.6538 0.61096 16.3589 0.578758 15.8136 0.533392C14.9798 0.463528 14.1133 0.524765 13.2767 0.526126C9.86874 0.532477 6.46123 0.599625 3.05328 0.599625C3.05328 0.599625 -0.243982 1.33229 0.122128 3.16418C0.488239 4.99607 1.58747 27.7105 2.68671 29.1758C3.78595 30.6412 6.35054 35.4042 11.8458 33.9384C17.3411 32.4731 16.2423 19.6507 16.2423 19.6503C16.0972 17.3275 16.681 14.7553 16.8394 12.4339C17.0744 8.98694 17.2749 5.51006 17.078 2.05633C17.0358 1.30007 17.0199 0.945309 16.8203 0.762937Z" fill="url(#paint2_linear_101_36868)"/>
<defs>
<linearGradient id="paint0_linear_101_36868" x1="13.3593" y1="46.7841" x2="-2.9462" y2="46.843" gradientUnits="userSpaceOnUse">
<stop stop-color="#BFAB8D"/>
<stop offset="0.5078" stop-color="#E7E1D2"/>
<stop offset="1" stop-color="#CCBFA6"/>
</linearGradient>
<linearGradient id="paint1_linear_101_36868" x1="18.4934" y1="17.336" x2="-1.04964" y2="17.4066" gradientUnits="userSpaceOnUse">
<stop stop-color="#94938C"/>
<stop offset="0.2296" stop-color="#EDEBE1"/>
<stop offset="0.7988" stop-color="#EDEBE1"/>
<stop offset="1" stop-color="#94938C"/>
</linearGradient>
<linearGradient id="paint2_linear_101_36868" x1="19.6865" y1="17.3314" x2="-2.22" y2="17.4106" gradientUnits="userSpaceOnUse">
<stop stop-color="#CCCCCC"/>
<stop offset="1" stop-color="#F2F2F2"/>
</linearGradient>
</defs>
</svg>
