<svg width="18" height="68" viewBox="0 0 18 68" fill="none" xmlns="http://www.w3.org/2000/svg">
<path d="M13.9873 26.6836C13.9878 34.2176 15.5225 41.6977 15.8728 49.2262C16.0157 52.2948 16.252 55.3625 16.2075 58.4366C16.1726 60.8732 16.3591 64.9367 14.8398 67.0117C14.1965 67.8882 12.2929 63.9862 12.111 63.6115C10.9719 61.2656 10.2642 58.7718 9.38408 56.3238C8.4137 53.6241 7.42428 50.9075 6.62902 48.1492C5.56791 44.4691 4.96318 40.6361 4.28723 36.8711C4.18153 36.2813 3.25789 28.6997 2.875 28.6453C2.87863 28.6448 12.0271 29.9513 13.9873 26.6836Z" fill="url(#paint0_linear_101_36864)"/>
<path d="M1.38005 2.64493C1.52886 2.50928 1.79153 2.4807 2.27786 2.43987C3.02188 2.37772 3.79492 2.43215 4.54075 2.43351C7.58077 2.43941 10.6208 2.49929 13.6608 2.49929C13.6608 2.49929 16.6024 3.15303 16.2758 4.78714C15.9491 6.42125 14.9683 26.6857 13.9879 27.9927C13.0075 29.2997 10.7197 33.5492 5.81691 32.2417C0.914581 30.9343 1.89497 19.4955 1.89497 19.495C2.02426 17.4231 1.50344 15.1285 1.36235 13.057C1.15276 9.98209 0.973563 6.88036 1.14959 3.79905C1.18769 3.12354 1.20176 2.80734 1.38005 2.64493Z" fill="url(#paint1_linear_101_36864)"/>
<path opacity="0.41" d="M0.494753 0.852784C0.66125 0.700805 0.956143 0.668603 1.501 0.623236C2.33484 0.553371 3.20135 0.614609 4.03791 0.61597C7.44588 0.622322 10.8534 0.68947 14.2614 0.68947C14.2614 0.68947 17.5586 1.42215 17.192 3.25406C16.8255 5.08598 15.7267 27.8007 14.6275 29.2661C13.5282 30.7314 10.9636 35.4945 5.46832 34.0287C-0.0269719 32.5633 1.07183 19.7409 1.07183 19.7404C1.217 17.4176 0.633125 14.8453 0.474794 12.5239C0.239793 9.0769 0.0392601 5.59998 0.236153 2.1462C0.279251 1.38993 0.294685 1.03516 0.494753 0.852784Z" fill="url(#paint2_linear_101_36864)"/>
<defs>
<linearGradient id="paint0_linear_101_36864" x1="3.95609" y1="46.8739" x2="20.261" y2="46.9328" gradientUnits="userSpaceOnUse">
<stop stop-color="#BFAB8D"/>
<stop offset="0.5078" stop-color="#E7E1D2"/>
<stop offset="1" stop-color="#CCBFA6"/>
</linearGradient>
<linearGradient id="paint1_linear_101_36864" x1="-1.17679" y1="17.4258" x2="18.3662" y2="17.4964" gradientUnits="userSpaceOnUse">
<stop stop-color="#94938C"/>
<stop offset="0.2296" stop-color="#EDEBE1"/>
<stop offset="0.7988" stop-color="#EDEBE1"/>
<stop offset="1" stop-color="#94938C"/>
</linearGradient>
<linearGradient id="paint2_linear_101_36864" x1="-2.37152" y1="17.4215" x2="19.535" y2="17.5007" gradientUnits="userSpaceOnUse">
<stop stop-color="#CCCCCC"/>
<stop offset="1" stop-color="#F2F2F2"/>
</linearGradient>
</defs>
</svg>
