<svg width="20" height="66" viewBox="0 0 20 66" fill="none" xmlns="http://www.w3.org/2000/svg">
<path d="M4.20312 25.0977C4.20312 25.0977 12.3742 29.0196 14.662 25.7514C14.5722 28.9628 14.5169 32.1761 14.4747 35.3885C14.3948 41.4971 14.3626 47.6116 14.5409 53.7188C14.6035 55.8637 14.6534 58.0113 14.8585 60.1485C14.9628 61.2373 15.1066 62.323 15.3122 63.3972C15.4065 63.8917 15.691 64.4742 15.4619 64.9256C15.157 65.5258 14.3694 65.6619 13.8191 65.3911C13.0447 65.01 12.5357 64.0727 12.1514 63.3491C11.2246 61.6034 10.6267 59.674 10.0859 57.7813C6.8181 46.3418 4.7067 28.6135 4.20312 25.0977Z" fill="url(#paint0_linear_101_36872)"/>
<path d="M2.94316 2.65671C3.71575 2.2602 4.91931 2.50518 5.76585 2.49792C7.33643 2.48477 8.90702 2.4893 10.4772 2.53466C12.2315 2.58547 14.6708 2.38496 16.2931 3.19611C17.851 3.97505 18.0166 5.92081 17.9694 7.4492C17.7825 13.4865 17.3937 19.841 14.9585 25.4542C14.2453 27.0978 13.25 28.7564 11.6921 29.7236C9.27813 31.2225 6.51485 30.3537 5.13889 27.9538C4.03739 26.033 3.61367 23.8187 3.38276 21.6466C3.20809 20.0021 3.31742 18.3453 3.20082 16.6976C3.07788 14.9609 2.5657 13.276 2.28579 11.5598C1.84346 8.84602 1.30815 6.01427 2.31937 3.36079C2.44912 3.01873 2.66914 2.79734 2.94316 2.65671Z" fill="url(#paint1_linear_101_36872)"/>
<path opacity="0.41" d="M1.79927 0.370235C2.69978 -0.0920505 4.1034 0.193313 5.09011 0.185147C6.92107 0.170176 8.7525 0.175164 10.5826 0.227789C12.6277 0.286765 15.4716 0.0531274 17.3634 0.999021C19.1794 1.90726 19.3726 4.17559 19.3173 5.95759C19.0995 12.9967 18.6463 20.4046 15.8069 26.9492C14.9753 28.8655 13.8153 30.7994 11.9989 31.9268C9.18437 33.6743 5.96296 32.6613 4.35883 29.8635C3.07452 27.6242 2.58049 25.0424 2.31101 22.51C2.10732 20.5928 2.23479 18.6612 2.09869 16.7403C1.95534 14.7161 1.35788 12.7512 1.03215 10.7501C0.516798 7.58626 -0.107906 4.28492 1.0716 1.19092C1.22313 0.792602 1.47944 0.534462 1.79927 0.370235Z" fill="url(#paint2_linear_101_36872)"/>
<defs>
<linearGradient id="paint0_linear_101_36872" x1="16.8423" y1="45.2836" x2="7.60919" y2="45.3169" gradientUnits="userSpaceOnUse">
<stop stop-color="#BFAB8D"/>
<stop offset="0.5078" stop-color="#E7E1D2"/>
<stop offset="1" stop-color="#CCBFA6"/>
</linearGradient>
<linearGradient id="paint1_linear_101_36872" x1="20.69" y1="16.3964" x2="-1.50293" y2="16.4766" gradientUnits="userSpaceOnUse">
<stop stop-color="#94938C"/>
<stop offset="0.2296" stop-color="#EDEBE1"/>
<stop offset="0.7988" stop-color="#EDEBE1"/>
<stop offset="1" stop-color="#94938C"/>
</linearGradient>
<linearGradient id="paint2_linear_101_36872" x1="22.4893" y1="16.3891" x2="-3.38444" y2="16.4825" gradientUnits="userSpaceOnUse">
<stop stop-color="#CCCCCC"/>
<stop offset="1" stop-color="#F2F2F2"/>
</linearGradient>
</defs>
</svg>
