<svg width="21" height="68" viewBox="0 0 21 68" fill="none" xmlns="http://www.w3.org/2000/svg">
<path d="M4.19531 28.4848C6.10024 28.4748 8.03465 28.2992 9.9364 28.1468C12.2396 27.9621 15.4738 28.0751 17.577 26.9745C17.7693 26.8738 17.8329 26.5313 18.0098 26.4102C18.4122 27.7594 18.0678 29.9216 17.9884 31.303C17.7612 35.2522 17.5865 39.2086 17.6246 43.165C17.6459 45.349 17.7675 47.5176 17.964 49.692C18.2353 52.6948 19.2492 55.6264 19.5223 58.6601C19.7137 60.7874 19.6815 62.95 19.2664 65.0505C19.1358 65.711 18.9457 67.4236 18.3727 67.5815C17.6169 67.7893 16.4768 66.627 16.0971 66.1148C14.8414 64.4217 14.5193 62.1289 13.8769 60.1672C13.1583 57.9714 12.3163 55.8183 11.4566 53.6747C9.77943 49.4933 8.0156 45.3227 6.93543 40.9362C6.30439 38.3734 6.02356 35.748 5.43108 33.1757C5.06815 31.5997 4.64081 30.0391 4.19531 28.4848Z" fill="url(#paint0_linear_101_36880)"/>
<path d="M2.0048 9.73325C2.0048 9.73325 1.02622 4.50335 3.315 2.87015C5.60377 1.23695 6.5837 1.89114 6.5837 1.89114C7.53006 2.14973 8.48097 2.39199 9.43368 2.62472C11.0025 3.00762 12.696 3.55656 14.322 3.51437C14.6477 3.50575 14.9744 3.46945 15.2983 3.50212C17.7214 3.74438 18.1147 6.32483 18.4785 8.21527C18.9454 10.6392 19.2743 13.0958 19.4685 15.5565C19.6286 17.5885 19.7062 19.6436 19.5351 21.6779C19.4108 23.1514 19.2049 24.8345 18.3397 26.083C17.1311 27.8273 14.9149 28.6199 12.9333 29.0758C10.4181 29.6547 7.77504 29.7908 5.20272 29.6824C3.80405 29.6229 3.41436 26.5058 3.33633 25.5168C2.92122 20.2524 2.47979 14.9922 2.0048 9.73325Z" fill="url(#paint1_linear_101_36880)"/>
<path opacity="0.41" d="M0.913492 8.9832C0.913492 8.9832 -0.187096 3.10004 2.38747 1.26268C4.96204 -0.574671 6.06491 0.161177 6.06491 0.161177C7.12921 0.451978 8.19896 0.72464 9.27098 0.986406C11.0357 1.41739 12.9412 2.03437 14.7699 1.98673C15.136 1.97721 15.5035 1.93639 15.8682 1.97268C18.5939 2.24488 19.0366 5.14835 19.4458 7.27469C19.9712 10.0017 20.3414 12.765 20.5596 15.5332C20.7402 17.8193 20.8273 20.1312 20.6345 22.4195C20.4947 24.0767 20.2629 25.9703 19.2898 27.3749C17.9301 29.3374 15.4372 30.2289 13.2079 30.742C10.3784 31.393 7.40549 31.5459 4.51154 31.4243C2.93822 31.3576 2.49953 27.8512 2.41197 26.7384C1.94469 20.8167 1.44837 14.899 0.913492 8.9832Z" fill="url(#paint2_linear_101_36880)"/>
<defs>
<linearGradient id="paint0_linear_101_36880" x1="8.82315" y1="46.9706" x2="17.9048" y2="47.0071" gradientUnits="userSpaceOnUse">
<stop stop-color="#BFAB8D"/>
<stop offset="0.5078" stop-color="#E7E1D2"/>
<stop offset="1" stop-color="#CCBFA6"/>
</linearGradient>
<linearGradient id="paint1_linear_101_36880" x1="-2.66699" y1="15.7022" x2="23.6609" y2="15.8082" gradientUnits="userSpaceOnUse">
<stop stop-color="#94938C"/>
<stop offset="0.2296" stop-color="#EDEBE1"/>
<stop offset="0.7988" stop-color="#EDEBE1"/>
<stop offset="1" stop-color="#94938C"/>
</linearGradient>
<linearGradient id="paint2_linear_101_36880" x1="-4.3416" y1="15.6982" x2="25.2753" y2="15.8175" gradientUnits="userSpaceOnUse">
<stop stop-color="#CCCCCC"/>
<stop offset="1" stop-color="#F2F2F2"/>
</linearGradient>
</defs>
</svg>
