<svg width="22" height="55" viewBox="0 0 22 55" fill="none" xmlns="http://www.w3.org/2000/svg">
<path d="M4.67969 23.6221C4.67969 23.6221 10.8893 49.1157 16.119 53.3643C21.3487 57.6128 18.7339 49.1152 18.7339 49.1152C18.7339 49.1152 16.7727 33.4271 16.7727 30.4855C16.7727 27.544 17.8125 22.0352 17.8125 22.0352C17.8125 22.0352 7.74048 24.2041 4.67969 23.6221Z" fill="url(#paint0_linear_101_36888)"/>
<path d="M4.35403 4.33684C4.35403 4.33684 1.08592 5.97095 2.06626 10.5466C3.0466 15.1223 2.71998 17.7372 2.71998 17.7372C2.71998 17.7372 3.37369 25.5816 8.92955 25.9082C14.4859 26.2349 18.0806 22.9667 18.4077 21.0055C18.7343 19.0443 18.7343 13.4882 19.0614 12.5074C19.3885 11.5265 20.3688 5.31676 17.1003 4.33638C13.8317 3.35601 11.871 3.02892 11.871 3.02892C11.871 3.02892 8.60293 2.04899 4.35403 4.33684Z" fill="url(#paint1_linear_101_36888)"/>
<path opacity="0.41" d="M3.40708 2.47367C3.40708 2.47367 -0.468567 4.41128 0.69417 9.83714C1.85691 15.263 1.46903 18.3634 1.46903 18.3634C1.46903 18.3634 2.24434 27.6645 8.83242 28.0524C15.4205 28.4403 19.684 24.5646 20.0714 22.2391C20.4589 19.9136 20.4589 13.3254 20.8468 12.1627C21.2346 10.9999 22.3969 3.63642 18.5213 2.47367C14.6456 1.31092 12.3206 0.923479 12.3206 0.923479C12.3206 0.923479 8.44546 -0.239264 3.40708 2.47367Z" fill="url(#paint2_linear_101_36888)"/>
<defs>
<linearGradient id="paint0_linear_101_36888" x1="17.9383" y1="38.2954" x2="6.38222" y2="38.3371" gradientUnits="userSpaceOnUse">
<stop stop-color="#BFAB8D"/>
<stop offset="0.5078" stop-color="#E7E1D2"/>
<stop offset="1" stop-color="#CCBFA6"/>
</linearGradient>
<linearGradient id="paint1_linear_101_36888" x1="22.7367" y1="14.3294" x2="-1.42933" y2="14.4167" gradientUnits="userSpaceOnUse">
<stop stop-color="#94938C"/>
<stop offset="0.2296" stop-color="#EDEBE1"/>
<stop offset="0.4283" stop-color="#EDEBE1"/>
<stop offset="0.7988" stop-color="#EDEBE1"/>
<stop offset="1" stop-color="#94938C"/>
</linearGradient>
<linearGradient id="paint2_linear_101_36888" x1="25.205" y1="14.3222" x2="-3.45068" y2="14.4257" gradientUnits="userSpaceOnUse">
<stop stop-color="#CCCCCC"/>
<stop offset="1" stop-color="#F2F2F2"/>
</linearGradient>
</defs>
</svg>
