<svg width="22" height="53" viewBox="0 0 22 53" fill="none" xmlns="http://www.w3.org/2000/svg">
<path d="M6.01562 22.7934C6.81865 28.0496 8.2346 33.3017 10.0779 38.2816C12.1041 43.7547 14.6356 49.2281 19.5572 52.6579C19.6765 52.7409 19.8044 52.8271 19.9496 52.8343C20.0975 52.8416 20.2368 52.7649 20.3552 52.676C21.033 52.1693 21.2825 51.2438 21.2127 50.4004C21.1428 49.5566 20.8062 48.7622 20.5122 47.9683C18.7183 43.1259 18.2805 37.7966 17.7692 32.6952C17.4453 29.4655 16.6772 25.5068 17.4385 22.2871C18.256 18.8316 6.52194 22.1796 6.01562 22.7934Z" fill="url(#paint0_linear_101_36896)"/>
<path d="M16.1541 2.81161C15.4273 2.48407 14.6692 2.47636 13.6566 2.72497C13.3825 2.79211 13.0904 2.89645 12.9416 3.13598C12.2447 4.25561 17.9643 6.40548 18.648 5.46596C19.0526 4.90705 17.5269 3.79151 17.2075 3.51432C16.8468 3.2013 16.5043 2.96948 16.1541 2.81161Z" fill="#D8D6D0"/>
<path d="M6.21873 2.9983C5.88122 3.09993 5.62445 3.2088 5.51649 3.30362C4.9703 3.7836 4.40279 4.29443 4.15828 4.97901C4.06029 5.25348 4.04985 5.62141 4.29936 5.77203C4.38373 5.82284 4.48445 5.83827 4.58244 5.84643C5.72699 5.94034 7.05116 5.19633 8.01924 4.66508C8.37762 4.46864 9.91866 3.75956 9.84835 3.202C9.74129 2.35682 7.44584 2.62947 6.21873 2.9983Z" fill="#D8D6D0"/>
<path d="M4.20423 5.10487C4.20423 5.10487 1.91643 6.73898 3.22387 10.988C3.8776 16.8712 5.83877 22.7544 5.83877 22.7544C5.83877 22.7544 6.49248 23.7348 11.0681 23.7348C15.6437 23.7348 16.9512 23.081 17.6049 21.7735C18.2586 20.4661 19.8927 8.04601 19.8927 8.04601C19.8927 8.04601 19.566 5.10442 18.2586 4.77778C16.9511 4.45114 15.6437 4.12404 15.3171 4.12404C14.9904 4.12404 12.0489 2.16283 10.7415 2.48992C9.43356 2.81702 6.1654 5.43151 4.20423 5.10487Z" fill="url(#paint1_linear_101_36896)"/>
<path opacity="0.41" d="M2.61966 3.33882C2.61966 3.33882 -0.174023 5.3345 1.42244 10.5226C2.22044 17.7064 4.61536 24.8903 4.61536 24.8903C4.61536 24.8903 5.41336 26.0875 11.0008 26.0875C16.5881 26.0875 18.1846 25.2895 18.9826 23.693C19.7806 22.0966 21.7763 6.93095 21.7763 6.93095C21.7763 6.93095 21.3771 3.33928 19.7806 2.94005C18.1841 2.54082 16.5877 2.14204 16.1889 2.14204C15.7897 2.14204 12.198 -0.252409 10.6015 0.146364C9.00505 0.545138 5.01412 3.7376 2.61966 3.33882Z" fill="url(#paint2_linear_101_36896)"/>
<defs>
<linearGradient id="paint0_linear_101_36896" x1="9.24388" y1="36.7609" x2="19.6107" y2="36.7984" gradientUnits="userSpaceOnUse">
<stop stop-color="#BFAB8D"/>
<stop offset="0.5078" stop-color="#E7E1D2"/>
<stop offset="1" stop-color="#CCBFA6"/>
</linearGradient>
<linearGradient id="paint1_linear_101_36896" x1="-0.813579" y1="13.0512" x2="23.318" y2="13.1384" gradientUnits="userSpaceOnUse">
<stop stop-color="#94938C"/>
<stop offset="0.2296" stop-color="#EDEBE1"/>
<stop offset="0.7988" stop-color="#EDEBE1"/>
<stop offset="1" stop-color="#94938C"/>
</linearGradient>
<linearGradient id="paint2_linear_101_36896" x1="-3.50768" y1="13.0418" x2="25.9593" y2="13.1482" gradientUnits="userSpaceOnUse">
<stop stop-color="#CCCCCC"/>
<stop offset="1" stop-color="#F2F2F2"/>
</linearGradient>
</defs>
</svg>
