<svg width="30" height="52" viewBox="0 0 30 52" fill="none" xmlns="http://www.w3.org/2000/svg">
<path d="M12.7183 2.21618C12.7183 2.21618 11.8123 0.161985 9.97813 0.676442C8.14398 1.1909 7.51021 5.98479 7.84229 9.51885C8.17392 13.0529 9.74585 24.2657 12.4483 24.4966C15.1508 24.7275 20.093 18.3767 17.8446 14.8385C15.5958 11.3008 11.8754 5.09015 12.7183 2.21618Z" fill="url(#paint0_linear_101_36834)"/>
<path d="M24.5417 32.6669C21.3429 32.4364 17.7132 30.8726 14.5085 30.746C12.4983 30.6666 10.4872 30.5337 8.47476 30.5981C7.54429 30.6276 6.16016 33.1083 5.25828 32.9935C4.67305 32.9191 5.05912 30.5156 5.08317 29.8936C5.10358 29.3641 5.14849 28.837 5.07092 28.3094C4.79237 26.4076 3.74622 24.602 3.31115 22.7002C2.80759 20.5004 2.46734 18.2579 2.2582 16.0113C2.03636 13.6282 1.9429 11.1939 2.25457 8.81392C2.38885 7.78772 2.57213 6.74564 2.97952 5.78795C3.29663 5.04257 4.0656 3.57949 5.04823 3.69155C5.4089 3.73283 5.73191 3.93789 6.00184 4.18151C6.53081 4.65922 6.89918 5.29527 7.1428 5.96534C7.645 7.34766 7.63411 8.83614 7.73074 10.2842C7.83055 11.7773 8.23749 13.1601 8.57229 14.6091C9.19381 17.3016 9.92784 20.4704 11.6917 22.6775C12.1209 23.2147 12.766 23.6493 13.4505 23.5844C13.8017 23.5508 14.1297 23.3893 14.4164 23.1838C15.4494 22.443 15.9747 21.1646 16.1539 19.9061C16.5209 17.3274 16.2447 14.4829 15.5555 11.9832C15.1513 10.5161 14.4046 9.20225 13.9482 7.76776C13.466 6.25115 12.8118 3.24242 14.9499 2.66491C15.8128 2.43172 16.7314 2.87268 17.3766 3.49149C19.7683 5.78478 21.3838 9.19408 22.767 12.1502C23.6153 13.9626 24.4342 15.8362 24.9564 17.7734C25.2703 18.938 25.2367 20.0984 25.2036 21.3011C25.1106 24.6632 24.9155 29.3338 24.5417 32.6669Z" fill="url(#paint1_linear_101_36834)"/>
<path d="M5.60693 34.8342C5.33473 34.9172 4.94458 35.6567 4.79351 35.8694C4.19512 36.7137 3.67703 37.6224 3.28914 38.5833C2.24389 41.1723 2.39542 44.0119 4.35617 46.1327C4.3793 46.1577 4.4029 46.1827 4.42603 46.2076C4.53174 46.3188 4.64197 46.4272 4.72817 46.5538C4.96997 46.909 5.0276 47.354 5.2567 47.7183C5.4731 48.0626 5.79112 48.3848 6.09916 48.6447C6.82457 49.2572 7.79087 49.6827 8.75582 49.5874C9.08745 49.5548 9.40367 49.4368 9.71534 49.3198C11.0686 48.8117 12.5381 48.2323 13.2558 46.8886C13.1741 47.0419 13.5466 47.6657 13.6405 47.7927C13.8655 48.0985 14.1413 48.2314 14.4893 48.3657C15.6384 48.8098 16.8892 49.1664 17.9907 49.7172C18.7519 50.0102 19.3943 50.2888 20.1687 50.0347C20.6197 49.8868 21.0765 49.7571 21.5225 49.5938C22.3572 49.2885 23.7459 48.754 23.7459 47.6711C23.7459 45.9967 25.1414 40.9736 21.7924 35.9506C18.4448 30.9294 5.61736 34.831 5.60693 34.8342Z" fill="#D8D6D0"/>
<path d="M5.59026 30.7071C5.27133 30.8042 4.81403 31.6707 4.63756 31.9197C3.93663 32.9087 3.33007 33.973 2.87549 35.0981C1.65103 38.1309 1.82888 41.4567 4.1249 43.9401C4.15213 43.9691 4.17979 43.9986 4.20701 44.0276C4.33086 44.1578 4.45971 44.2848 4.56088 44.4332C4.84442 44.8497 4.91157 45.37 5.17969 45.7974C5.43284 46.2002 5.8053 46.5777 6.16643 46.8825C7.01615 47.5998 8.14805 48.0979 9.27769 47.9868C9.66604 47.9486 10.0362 47.8103 10.4014 47.6733C11.9866 47.0785 13.7078 46.3994 14.5485 44.8256C14.4527 45.0048 14.8892 45.7357 14.9989 45.8849C15.2625 46.2429 15.586 46.3985 15.9929 46.5559C17.339 47.0762 18.8039 47.4936 20.0941 48.1387C20.9856 48.4822 21.7378 48.8083 22.6451 48.5107C23.1732 48.3374 23.7085 48.1855 24.2307 47.9945C25.2084 47.637 26.8352 47.0109 26.8352 45.7425C26.8352 43.7813 28.4694 37.8981 24.5474 32.015C20.6267 26.1337 5.60297 30.703 5.59026 30.7071Z" fill="url(#paint2_linear_101_36834)"/>
<path opacity="0.41" d="M4.14988 30.6021C3.77878 30.7151 3.24664 31.7231 3.04113 32.0134C2.22544 33.1644 1.51954 34.4029 0.990567 35.7122C-0.434391 39.2413 -0.227518 43.1119 2.44502 46.0022C2.47677 46.0363 2.50852 46.0703 2.54073 46.1043C2.685 46.2558 2.83471 46.4033 2.95266 46.5761C3.28248 47.0606 3.36096 47.6667 3.67308 48.1635C3.96796 48.6326 4.40121 49.0718 4.8213 49.4265C5.81029 50.2613 7.12728 50.8411 8.442 50.7113C8.89385 50.6668 9.32483 50.5058 9.74991 50.3461C11.5945 49.6538 13.5979 48.864 14.576 47.0321C14.4644 47.2408 14.9725 48.0914 15.1 48.2647C15.4066 48.6816 15.7827 48.8626 16.2568 49.0454C17.8233 49.6506 19.5277 50.137 21.0298 50.8878C22.0673 51.2875 22.9429 51.6667 23.9986 51.3206C24.6133 51.1191 25.2357 50.9418 25.8436 50.7195C26.9814 50.3035 28.8746 49.5749 28.8746 48.0986C28.8746 45.8162 30.7763 38.97 26.212 32.1232C21.6486 25.2797 4.1644 30.5976 4.14988 30.6021Z" fill="url(#paint3_linear_101_36834)"/>
<defs>
<linearGradient id="paint0_linear_101_36834" x1="16.2276" y1="23.4705" x2="-2.33441" y2="-21.8947" gradientUnits="userSpaceOnUse">
<stop offset="0.1599" stop-color="#BFAB8D"/>
<stop offset="0.5078" stop-color="#E7E1D2"/>
<stop offset="0.7297" stop-color="#CCBFA6"/>
</linearGradient>
<linearGradient id="paint1_linear_101_36834" x1="3.35468" y1="17.4814" x2="24.2651" y2="18.4268" gradientUnits="userSpaceOnUse">
<stop offset="0.1599" stop-color="#BFAB8D"/>
<stop offset="0.5078" stop-color="#E7E1D2"/>
<stop offset="0.7297" stop-color="#CCBFA6"/>
</linearGradient>
<linearGradient id="paint2_linear_101_36834" x1="-3.66575" y1="41.1463" x2="31.1571" y2="37.4893" gradientUnits="userSpaceOnUse">
<stop stop-color="#94938C"/>
<stop offset="0.2296" stop-color="#EDEBE1"/>
<stop offset="0.7988" stop-color="#EDEBE1"/>
<stop offset="1" stop-color="#94938C"/>
</linearGradient>
<linearGradient id="paint3_linear_101_36834" x1="-6.62191" y1="42.7512" x2="33.9033" y2="38.4955" gradientUnits="userSpaceOnUse">
<stop stop-color="#CCCCCC"/>
<stop offset="1" stop-color="#F2F2F2"/>
</linearGradient>
</defs>
</svg>
