<svg width="32" height="53" viewBox="0 0 32 53" fill="none" xmlns="http://www.w3.org/2000/svg">
<path d="M11.3366 3.32902C10.0236 3.4184 9.01011 3.80357 7.93214 4.54397C7.64042 4.7445 7.36412 4.9863 7.42174 5.27302C7.69032 6.61228 17.5663 5.53616 17.4714 4.36159C17.4124 3.66384 14.2008 3.47647 13.4817 3.39935C12.67 3.31179 11.9686 3.28592 11.3366 3.32902Z" fill="#D8D6D0"/>
<path d="M21.5001 48.6988C22.1756 50.8628 20.5805 51.7457 19.0988 50.4636C16.2344 47.9847 14.5767 44.0083 13.1187 40.3658C12.4436 38.679 9.54518 32.7477 11.0704 31.3141C12.5838 29.8919 18.5163 32.6003 18.8203 36.4066C18.9854 38.4712 19.0544 40.5418 19.4096 42.6074C19.7961 44.8526 20.8382 46.5788 21.5001 48.6988Z" fill="url(#paint0_linear_101_36908)"/>
<path d="M4.725 23.4267C4.91282 24.2011 5.07932 24.9891 5.11607 25.1416C5.43136 26.4495 5.70492 27.7679 5.92449 29.0953C6.10369 30.18 6.24705 31.2711 6.35366 32.3654C6.4571 33.426 6.36683 34.5938 6.56871 35.6336C6.76787 36.6584 7.13307 37.7337 7.47831 38.7236C8.51494 41.6965 10.0851 44.463 11.9497 46.9917C12.8851 48.2602 13.8968 49.4719 14.9647 50.6311C15.6207 51.3433 17.0153 53.452 18.1744 52.576C18.6095 52.247 18.7842 51.6605 18.756 51.1156C18.7279 50.5707 18.5283 50.0517 18.3391 49.54C16.8819 45.5917 15.4964 40.7029 16.3158 36.467C16.401 36.0256 16.5344 35.5696 16.8511 35.2507C17.2662 34.8329 17.9308 34.739 18.4988 34.8955C19.0668 35.052 19.5513 35.4236 19.9741 35.8337C21.4254 37.2423 22.4566 39.2226 23.3435 41.0237C24.015 42.3874 24.5081 43.8405 24.7916 45.3345C25.0629 46.7644 24.8325 48.4639 25.4068 49.8058C25.7285 50.558 26.4457 51.2027 27.2632 51.1791C27.8997 51.161 28.4632 50.7513 28.8828 50.2722C30.4289 48.507 30.7252 45.6942 30.8155 43.4436C30.9289 40.6072 30.5251 37.7808 30.0855 34.9867C29.4871 31.1826 28.7182 27.4045 27.8594 23.6513C27.8262 23.5056 27.359 21.1379 27.2646 21.1406C27.2646 21.1406 4.38974 21.7753 4.17969 21.7812C4.29719 21.7789 4.52357 22.5951 4.725 23.4267Z" fill="url(#paint1_linear_101_36908)"/>
<path d="M22.6303 3.15501C21.4443 3.0874 20.4788 3.34647 19.3994 3.94854C19.1072 4.11142 18.8223 4.3174 18.8282 4.60641C18.855 5.95846 27.8398 6.06962 27.9418 4.90042C27.9999 4.20534 25.1633 3.64002 24.534 3.47805C23.8231 3.29611 23.201 3.18767 22.6303 3.15501Z" fill="#D8D6D0"/>
<path d="M6.67988 4.20489C5.72674 4.30016 4.82893 4.66719 4.05544 5.47383C3.05874 6.5132 2.55971 7.95499 2.43631 9.38952C2.17183 12.4673 2.69853 16.1275 3.46749 19.1091C3.71156 20.0555 3.73607 22.0444 4.38572 22.7748C6.40724 25.0473 10.849 23.9417 13.537 23.7552C16.6156 23.5416 19.93 23.4395 22.6883 22.7748C24.5143 22.6832 27.8673 23.0874 28.4217 20.6725C29.0568 17.9046 29.4479 15.0741 29.5785 12.2373C29.6765 10.1177 29.9859 4.88041 26.9391 4.47165C26.4932 4.41176 25.7406 4.91444 25.2937 5.01606C24.3614 5.22747 23.4518 5.1989 22.5264 4.953C21.3881 4.65085 20.3311 4.10644 19.24 3.6632C19.0027 3.56702 18.756 3.47402 18.5001 3.48082C17.9171 3.4967 17.4889 4.00164 17.0225 4.35188C15.0595 5.82724 11.5409 5.06188 9.37373 4.49524C8.46414 4.25706 7.54865 4.11778 6.67988 4.20489Z" fill="url(#paint2_linear_101_36908)"/>
<path opacity="0.41" d="M5.42799 1.40696C4.33736 1.51584 3.3098 1.93594 2.42424 2.85915C1.28325 4.04867 0.712541 5.69821 0.571449 7.34049C0.268397 10.8628 0.871315 15.0515 1.75144 18.4635C2.0309 19.5464 2.05902 21.8225 2.80259 22.6586C5.11631 25.2594 10.1997 23.9942 13.2761 23.7805C16.7993 23.536 20.5924 23.4189 23.7495 22.6586C25.8396 22.5533 29.6767 23.0161 30.3109 20.2528C31.0382 17.0853 31.4855 13.8461 31.6348 10.5992C31.7468 8.17342 32.1011 2.18001 28.6138 1.71228C28.1034 1.64378 27.2423 2.21904 26.7306 2.33518C25.6635 2.57744 24.6224 2.54431 23.5635 2.26304C22.2605 1.91734 21.0515 1.29446 19.8026 0.787257C19.5313 0.677016 19.2486 0.5704 18.956 0.578566C18.2891 0.596713 17.7987 1.17424 17.2647 1.57528C15.0182 3.26338 10.9914 2.3878 8.51114 1.73905C7.46951 1.4673 6.42244 1.30806 5.42799 1.40696Z" fill="url(#paint3_linear_101_36908)"/>
<defs>
<linearGradient id="paint0_linear_101_36908" x1="13.737" y1="30.4058" x2="21.4988" y2="74.6982" gradientUnits="userSpaceOnUse">
<stop offset="0.1599" stop-color="#BFAB8D"/>
<stop offset="0.5078" stop-color="#E7E1D2"/>
<stop offset="0.7297" stop-color="#CCBFA6"/>
</linearGradient>
<linearGradient id="paint1_linear_101_36908" x1="6.76704" y1="36.9073" x2="29.2941" y2="36.9887" gradientUnits="userSpaceOnUse">
<stop stop-color="#BFAB8D"/>
<stop offset="0.5078" stop-color="#E7E1D2"/>
<stop offset="1" stop-color="#CCBFA6"/>
</linearGradient>
<linearGradient id="paint2_linear_101_36908" x1="-3.33873" y1="13.7733" x2="35.5065" y2="13.9136" gradientUnits="userSpaceOnUse">
<stop stop-color="#94938C"/>
<stop offset="0.2296" stop-color="#EDEBE1"/>
<stop offset="0.7988" stop-color="#EDEBE1"/>
<stop offset="1" stop-color="#94938C"/>
</linearGradient>
<linearGradient id="paint3_linear_101_36908" x1="-6.03788" y1="12.3573" x2="38.4179" y2="12.5179" gradientUnits="userSpaceOnUse">
<stop stop-color="#CCCCCC"/>
<stop offset="1" stop-color="#F2F2F2"/>
</linearGradient>
</defs>
</svg>
