<svg width="30" height="50" viewBox="0 0 30 50" fill="none" xmlns="http://www.w3.org/2000/svg">
<path d="M17.9627 43.4404C18.1646 45.3975 16.8949 45.8425 15.994 44.4788C14.2517 41.8426 13.5795 38.1684 13.0075 34.8145C12.7426 33.2616 11.4326 27.7006 12.7245 26.7765C14.0064 25.8597 17.9355 29.2689 17.652 32.5435C17.4983 34.32 17.2741 36.0834 17.2578 37.8967C17.2397 39.8669 17.7645 41.5232 17.9627 43.4404Z" fill="url(#paint0_linear_101_36922)"/>
<path d="M6.32812 21.1755C7.01363 23.134 7.56621 25.1782 7.88515 27.2288C8.09973 28.6088 8.06798 29.8356 7.85839 31.2016C7.50543 33.4971 7.48046 35.8929 7.57936 38.2084C7.73361 41.8201 9.46619 44.5403 10.8513 47.789C11.3603 48.9826 12.5371 49.6091 13.6046 48.5108C14.9579 47.118 14.5932 44.1905 14.6471 42.4239C14.7206 40.0059 14.7697 37.571 15.2533 35.1915C15.4615 34.1672 15.7541 33.146 16.289 32.2477C16.8207 31.3544 17.8034 30.9189 18.7447 31.5622C19.9982 32.4187 20.2809 34.2951 20.7137 35.6307C21.1197 36.8833 21.4877 38.1481 21.8429 39.4161C22.3446 41.2072 22.8088 43.0087 23.2869 44.8057C23.4852 45.5497 24.1321 47.2972 25.2259 46.5378C25.5952 46.281 25.7776 45.8364 25.9314 45.414C26.4363 44.0249 26.8396 42.6018 27.242 41.18C27.7815 39.275 28.2778 37.3755 28.3939 35.3916C28.5523 32.6869 27.4866 30.0143 26.9658 27.3962C26.4123 24.6138 26.0666 21.7902 25.9341 18.9566C25.9255 18.7702 25.911 18.5674 25.7848 18.4294C25.6147 18.2434 25.323 18.258 25.073 18.2865C22.0012 18.6386 18.923 18.9248 15.8544 19.3086C13.7779 19.5668 11.6987 19.8399 9.64043 20.2192C8.73354 20.3866 7.03087 20.4728 6.32812 21.1755Z" fill="url(#paint1_linear_101_36922)"/>
<path d="M3.9353 16.9336C3.83277 15.7069 3.8609 14.4638 3.62725 13.2521C3.2625 11.3607 2.3075 9.71302 2.44269 7.70917C2.76843 2.88488 9.51047 2.51196 12.9003 3.84801C14.3099 4.4033 14.8883 3.87887 16.0733 3.13032C17.3572 2.31916 18.872 1.89453 20.3896 1.89453C22.1249 1.89453 24.0398 2.38812 25.522 3.29999C27.7146 4.64919 27.7128 6.86263 27.8634 9.18586C28.0299 11.7554 27.9709 14.4026 27.1212 16.8596C26.8612 17.6118 26.5169 18.3508 25.9752 18.9338C25.2053 19.7627 24.2245 19.872 23.1842 20.1115C21.7642 20.4386 20.3284 20.7153 18.897 20.9862C16.0901 21.5174 13.2569 21.9498 10.401 22.0931C9.04682 22.1612 7.64454 22.0237 6.44185 21.3972C4.69974 20.4903 4.08955 18.7845 3.9353 16.9336Z" fill="url(#paint2_linear_101_36922)"/>
<path opacity="0.41" d="M2.4748 17.2871C2.35775 15.8821 2.38952 14.4576 2.12186 13.0698C1.70404 10.9026 0.609796 9.01492 0.764948 6.71981C1.13786 1.19322 8.86148 0.765867 12.7453 2.29654C14.3599 2.93304 15.0226 2.33194 16.38 1.4745C17.8507 0.54539 19.586 0.0585938 21.3244 0.0585938C23.3124 0.0585938 25.5063 0.623865 27.2044 1.66912C29.7163 3.21477 29.714 5.75033 29.8869 8.41246C30.0779 11.3563 30.0098 14.3886 29.0367 17.2036C28.7391 18.0652 28.3444 18.9117 27.7238 19.5795C26.8414 20.529 25.7182 20.6543 24.5264 20.9287C22.9 21.3035 21.255 21.6206 19.6151 21.9309C16.3995 22.5397 13.154 23.0347 9.8822 23.1989C8.33068 23.2769 6.72424 23.1195 5.34647 22.4018C3.35081 21.362 2.65172 19.408 2.4748 17.2871Z" fill="url(#paint3_linear_101_36922)"/>
<defs>
<linearGradient id="paint0_linear_101_36922" x1="14.7712" y1="26.5096" x2="12.6614" y2="65.3143" gradientUnits="userSpaceOnUse">
<stop offset="0.1599" stop-color="#BFAB8D"/>
<stop offset="0.5078" stop-color="#E7E1D2"/>
<stop offset="0.7297" stop-color="#CCBFA6"/>
</linearGradient>
<linearGradient id="paint1_linear_101_36922" x1="8.85482" y1="35.0671" x2="26.3492" y2="31.6628" gradientUnits="userSpaceOnUse">
<stop stop-color="#BFAB8D"/>
<stop offset="0.5078" stop-color="#E7E1D2"/>
<stop offset="1" stop-color="#CCBFA6"/>
</linearGradient>
<linearGradient id="paint2_linear_101_36922" x1="-1.64302" y1="15.0174" x2="31.6558" y2="8.53773" gradientUnits="userSpaceOnUse">
<stop stop-color="#94938C"/>
<stop offset="0.2114" stop-color="#EDEBE1"/>
<stop offset="0.847" stop-color="#EDEBE1"/>
<stop offset="1" stop-color="#94938C"/>
</linearGradient>
<linearGradient id="paint3_linear_101_36922" x1="-3.91542" y1="15.0923" x2="34.2314" y2="7.66944" gradientUnits="userSpaceOnUse">
<stop stop-color="#CCCCCC"/>
<stop offset="1" stop-color="#F2F2F2"/>
</linearGradient>
</defs>
</svg>
