<svg width="27" height="41" viewBox="0 0 27 41" fill="none" xmlns="http://www.w3.org/2000/svg">
<path d="M17.5921 37.9931C17.887 39.8463 16.7011 40.3372 15.771 39.0855C13.9735 36.6661 13.1401 33.2018 12.4197 30.0375C12.0862 28.5721 10.5464 23.3445 11.7287 22.3963C12.9019 21.4558 16.8235 24.4968 16.7246 27.6308C16.6711 29.3307 16.5504 31.0219 16.6298 32.75C16.7165 34.6277 17.3031 36.1775 17.5921 37.9931Z" fill="url(#paint0_linear_101_36940)"/>
<path d="M5.125 14.6833C5.125 14.6833 6.43242 18.2786 6.43242 22.2006C6.43242 26.1226 6.10581 31.0254 8.39362 34.6207C10.6814 38.216 11.3352 39.8501 11.3352 39.8501C11.3352 39.8501 13.2963 42.1379 14.2767 39.5235C14.2767 39.5235 11.9889 31.6791 13.2963 27.7571C14.6038 23.8352 15.9112 25.1422 16.2379 25.7959C16.565 26.4497 21.1406 33.9669 21.7943 35.9281C22.448 37.8893 23.4284 39.8501 24.0821 39.8501C24.7358 39.8501 25.7162 38.216 26.3699 35.2744C27.0237 32.3328 26.3699 29.0646 25.0625 26.7763C23.755 24.4884 22.448 14.3562 22.448 12.7221C22.448 11.088 6.75909 14.0296 5.125 14.6833Z" fill="url(#paint1_linear_101_36940)"/>
<path d="M12.6701 4.41462C12.3598 4.34112 12.0386 4.13833 11.6657 3.8929C10.6531 3.22555 9.60153 2.58179 8.43335 2.25741C7.26471 1.93304 5.94998 1.96117 4.91018 2.58496C4.17887 3.02366 3.63721 3.71868 3.19126 4.44546C2.49352 5.58281 1.9786 6.90435 2.13875 8.22907C2.32112 9.73979 2.92038 11.2274 3.5351 12.6074C3.90801 13.4445 4.21881 14.3994 4.89068 15.0545C5.67462 15.8185 6.9925 15.926 8.02549 16.0708C10.2475 16.3815 12.4787 16.103 14.6481 15.5881C16.8048 15.0759 19.0337 14.5079 21.1305 13.7938C21.5075 13.6654 21.8841 13.5171 22.1998 13.2748C23.0849 12.5947 23.2668 11.0491 23.4796 10.0292C23.8026 8.47905 23.6053 6.87623 22.971 5.43129C22.1544 3.57079 20.5929 1.9285 18.5197 1.60957C17.0357 1.38138 15.7183 1.68579 14.7197 2.83584C14.389 3.21693 14.1259 3.65971 13.7684 4.01766C13.3746 4.41189 13.0294 4.49991 12.6701 4.41462Z" fill="url(#paint2_linear_101_36940)"/>
<path opacity="0.41" d="M12.6454 3.52906C12.2924 3.44513 11.9268 3.21512 11.5031 2.93567C10.3513 2.17669 9.15543 1.44448 7.82622 1.07519C6.497 0.706365 5.0013 0.73812 3.81862 1.4481C2.98707 1.94713 2.37052 2.73787 1.86333 3.56445C1.06988 4.8583 0.48423 6.36128 0.666146 7.86835C0.873467 9.58683 1.55534 11.279 2.25488 12.8487C2.67904 13.8005 3.03242 14.8874 3.79638 15.6324C4.68781 16.5016 6.18713 16.6241 7.3621 16.7883C9.88988 17.1421 12.4277 16.825 14.8951 16.2389C17.3485 15.6564 19.8835 15.0099 22.2693 14.1979C22.698 14.0518 23.1267 13.883 23.4855 13.6072C24.4926 12.8337 24.6995 11.0753 24.9413 9.91528C25.3088 8.15189 25.0842 6.32907 24.3629 4.685C23.4338 2.56866 21.6578 0.700921 19.2997 0.33799C17.6116 0.0784946 16.1127 0.42464 14.9772 1.73301C14.6011 2.16671 14.3017 2.66983 13.8952 3.07722C13.447 3.52634 13.0546 3.62615 12.6454 3.52906Z" fill="url(#paint3_linear_101_36940)"/>
<defs>
<linearGradient id="paint0_linear_101_36940" x1="13.6605" y1="22.0304" x2="13.6847" y2="59.1001" gradientUnits="userSpaceOnUse">
<stop offset="0.1599" stop-color="#BFAB8D"/>
<stop offset="0.5078" stop-color="#E7E1D2"/>
<stop offset="0.7297" stop-color="#CCBFA6"/>
</linearGradient>
<linearGradient id="paint1_linear_101_36940" x1="7.01937" y1="26.4704" x2="23.7773" y2="26.5309" gradientUnits="userSpaceOnUse">
<stop stop-color="#BFAB8D"/>
<stop offset="0.5078" stop-color="#E7E1D2"/>
<stop offset="1" stop-color="#CCBFA6"/>
</linearGradient>
<linearGradient id="paint2_linear_101_36940" x1="-4.24152" y1="8.80529" x2="29.7981" y2="8.92825" gradientUnits="userSpaceOnUse">
<stop stop-color="#94938C"/>
<stop offset="0.2614" stop-color="#EDEBE1"/>
<stop offset="0.7687" stop-color="#EDEBE1"/>
<stop offset="1" stop-color="#94938C"/>
</linearGradient>
<linearGradient id="paint3_linear_101_36940" x1="-6.59152" y1="8.52361" x2="32.1286" y2="8.66348" gradientUnits="userSpaceOnUse">
<stop stop-color="#CCCCCC"/>
<stop offset="1" stop-color="#F2F2F2"/>
</linearGradient>
</defs>
</svg>
