<svg width="21" height="57" viewBox="0 0 21 57" fill="none" xmlns="http://www.w3.org/2000/svg">
<path d="M10.2849 54.2023C10.2849 54.2023 4.98614 55.298 3.10844 52.5454C1.23029 49.7925 9.65339 52.5418 10.2849 54.2023Z" fill="#D8D6D0"/>
<path d="M11.0625 54.4372C11.0625 54.4372 16.7056 54.8188 18.1097 51.1595C19.5137 47.5002 11.3955 52.3191 11.0625 54.4372Z" fill="#D8D6D0"/>
<path d="M13.3153 33.906C13.3983 33.9468 13.4773 33.9931 13.5517 34.0453C14.9894 35.0497 16.2011 36.677 17.1152 38.1491C18.5044 40.3857 19.4961 42.9439 19.2289 45.6133C19.0465 47.4379 18.8419 49.5361 17.93 51.1748C17.3974 52.132 16.2002 52.5707 15.2253 52.91C14.3901 53.2008 13.5471 53.474 12.7283 53.8092C11.972 54.1186 11.2298 54.6462 10.3778 54.5782C9.39837 54.4997 8.71423 53.7321 7.93075 53.234C6.70131 52.4528 5.22962 52.0522 3.77335 52.1225C3.51748 52.1347 3.25526 52.1606 3.00982 52.0857C2.65188 51.9769 2.39012 51.6729 2.17917 51.3644C1.2183 49.9608 1.2437 48.6007 1.23554 46.9684C1.22692 45.3098 1.25913 43.6412 1.57533 42.008C2.13834 39.0978 4.06098 36.6902 5.07175 33.9432C5.12982 33.7849 5.18788 33.6229 5.29449 33.4923C5.47687 33.2686 5.77538 33.172 6.063 33.1488C6.60196 33.1053 7.145 33.1888 7.67897 33.2459C8.69155 33.3548 9.68008 33.4678 10.6981 33.5376C11.5052 33.5934 12.5636 33.5345 13.3153 33.906Z" fill="url(#paint0_linear_101_36822)"/>
<path d="M15.4571 35.8197C15.4208 35.8492 15.3773 35.8723 15.3242 35.8868C15.0575 35.9617 14.2354 35.5593 13.9446 35.4831C12.9805 35.2308 12.0056 35.0199 11.0248 34.8443C9.98539 34.6583 8.93559 34.4818 7.87717 34.4732C7.31688 34.4687 6.75343 34.5077 6.20494 34.6266C5.71769 34.7323 5.19279 35.0662 4.73141 35.1079C4.39523 33.7973 4.73639 32.2729 4.81442 30.9419C4.90107 29.462 5.03717 27.9854 5.22182 26.5146C5.56797 23.7545 6.25711 21.0974 6.75932 18.3722C7.24838 15.7214 7.38448 12.9191 7.32596 10.2198C7.29828 8.95047 7.22161 7.67885 7.07598 6.41766C6.95213 5.34112 6.64181 4.37753 6.75206 3.26197C6.86411 2.1278 7.39628 0.410223 8.89385 0.874776C10.0212 1.22455 10.7231 2.46442 11.292 3.40714C12.3758 5.20229 13.1647 7.15804 13.8915 9.12468C14.6174 11.0886 15.2865 13.0865 15.6654 15.1498C15.9961 16.9495 15.9557 18.7111 15.9244 20.528C15.8754 23.4124 15.8065 26.2964 15.7352 29.1803C15.6894 31.0412 15.7956 32.9825 15.649 34.8697C15.6227 35.2227 15.6744 35.6419 15.4571 35.8197Z" fill="url(#paint1_linear_101_36822)"/>
<path opacity="0.41" d="M14.0775 33.4635C14.1709 33.5097 14.2608 33.5619 14.3452 33.6209C15.9715 34.7569 17.3416 36.5978 18.376 38.2628C19.947 40.7924 21.0685 43.6859 20.7668 46.705C20.5604 48.7692 20.329 51.1419 19.2978 52.9955C18.6954 54.0784 17.3412 54.5743 16.2383 54.9581C15.2933 55.287 14.3406 55.5959 13.4142 55.9747C12.5586 56.325 11.7193 56.9215 10.7557 56.8444C9.64789 56.7559 8.87393 55.8872 7.98792 55.3242C6.59744 54.4409 4.93249 53.9872 3.28568 54.0671C2.99624 54.0811 2.69954 54.1102 2.42235 54.0258C2.01768 53.9024 1.72144 53.559 1.48281 53.2097C0.395824 51.6223 0.424857 50.0839 0.41533 48.2375C0.405803 46.3616 0.442095 44.4743 0.799584 42.627C1.43653 39.3352 3.61095 36.6123 4.75419 33.5056C4.81997 33.3269 4.88575 33.1432 5.00598 32.9957C5.21239 32.743 5.54993 32.6332 5.87521 32.6074C6.48494 32.5584 7.09874 32.6523 7.70302 32.7172C8.84807 32.8401 9.96636 32.9681 11.1178 33.0474C12.0305 33.1101 13.2273 33.0434 14.0775 33.4635Z" fill="url(#paint2_linear_101_36822)"/>
<defs>
<linearGradient id="paint0_linear_101_36822" x1="-4.71446" y1="44.2654" x2="25.5218" y2="43.334" gradientUnits="userSpaceOnUse">
<stop stop-color="#94938C"/>
<stop offset="0.2666" stop-color="#EDEBE1"/>
<stop offset="0.7117" stop-color="#EDEBE1"/>
<stop offset="1" stop-color="#94938C"/>
</linearGradient>
<linearGradient id="paint1_linear_101_36822" x1="1.82215" y1="19.3952" x2="16.1818" y2="17.8871" gradientUnits="userSpaceOnUse">
<stop stop-color="#BFAB8D"/>
<stop offset="0.5078" stop-color="#E7E1D2"/>
<stop offset="1" stop-color="#CCBFA6"/>
</linearGradient>
<linearGradient id="paint2_linear_101_36822" x1="-6.31466" y1="45.1806" x2="27.8837" y2="44.1272" gradientUnits="userSpaceOnUse">
<stop stop-color="#CCCCCC"/>
<stop offset="1" stop-color="#F2F2F2"/>
</linearGradient>
</defs>
</svg>
