<svg width="22" height="59" viewBox="0 0 22 59" fill="none" xmlns="http://www.w3.org/2000/svg">
<path d="M11.3818 56.2987C11.3818 56.2987 6.03587 57.1339 4.29473 54.2928C2.55405 51.4516 10.8324 54.6094 11.3818 56.2987Z" fill="#D8D6D0"/>
<path d="M6.01562 38.3761C6.01562 38.3761 6.34227 27.2635 7.3231 24.3219C8.30347 21.3803 9.28431 11.5752 8.95721 8.96026C8.63057 6.34533 8.63056 2.42338 8.63056 2.42338C8.63056 2.42338 8.30393 -0.51821 11.2455 1.76964C14.1871 4.05748 17.7824 15.1701 17.4553 19.7458C17.1282 24.3214 17.0252 38.1102 17.0769 38.0798C17.1287 38.0494 6.01562 38.3761 6.01562 38.3761Z" fill="url(#paint0_linear_101_36811)"/>
<path d="M16.8041 37.0669C16.8041 37.0669 24.3214 48.1795 18.7653 54.0627C18.0866 54.7813 17.0191 55.2867 16.1921 55.8125C15.3383 56.3555 14.4273 57.1095 13.3866 57.227C12.193 57.3622 11.3193 56.1132 10.1461 55.8696C8.28105 55.4822 6.45594 55.7889 4.86311 54.5168C3.54793 53.4665 2.75038 51.8293 2.47954 50.1897C2.14201 48.1441 2.49133 46.0654 2.89873 44.057C3.07248 43.2009 3.36827 42.3861 3.71442 41.5845C4.08325 40.7298 4.74833 39.8955 5.03777 39.0272C5.03777 39.0281 7.65226 31.1837 16.8041 37.0669Z" fill="url(#paint1_linear_101_36811)"/>
<path opacity="0.41" d="M17.2759 35.6986C17.2759 35.6986 25.8634 48.3927 19.5161 55.1134C18.7412 55.934 17.5213 56.5116 16.5768 57.1122C15.6014 57.7324 14.5611 58.5939 13.3721 58.7282C12.0083 58.8824 11.0107 57.4561 9.67057 57.1775C7.53968 56.7352 5.45507 57.0854 3.63585 55.6324C2.13375 54.4324 1.22233 52.5624 0.912929 50.6896C0.52731 48.3533 0.926541 45.9783 1.39155 43.6841C1.58981 42.7064 1.92779 41.7755 2.32294 40.8596C2.74394 39.8833 3.50383 38.9301 3.83456 37.9384C3.83501 37.9388 6.82198 28.978 17.2759 35.6986Z" fill="url(#paint2_linear_101_36811)"/>
<defs>
<linearGradient id="paint0_linear_101_36811" x1="6.91548" y1="19.6849" x2="19.8081" y2="19.2878" gradientUnits="userSpaceOnUse">
<stop stop-color="#BFAB8D"/>
<stop offset="0.5078" stop-color="#E7E1D2"/>
<stop offset="1" stop-color="#CCBFA6"/>
</linearGradient>
<linearGradient id="paint1_linear_101_36811" x1="-1.23257" y1="46.4633" x2="25.4938" y2="45.6401" gradientUnits="userSpaceOnUse">
<stop stop-color="#94938C"/>
<stop offset="0.0311" stop-color="#A6A59D"/>
<stop offset="0.0939" stop-color="#C5C3BB"/>
<stop offset="0.1552" stop-color="#DBD9D0"/>
<stop offset="0.2138" stop-color="#E8E7DD"/>
<stop offset="0.2666" stop-color="#EDEBE1"/>
<stop offset="0.7117" stop-color="#EDEBE1"/>
<stop offset="0.7637" stop-color="#E7E5DB"/>
<stop offset="0.835" stop-color="#D5D3CA"/>
<stop offset="0.9175" stop-color="#B8B7AF"/>
<stop offset="1" stop-color="#94938C"/>
</linearGradient>
<linearGradient id="paint2_linear_101_36811" x1="-3.3276" y1="46.432" x2="27.2025" y2="45.4916" gradientUnits="userSpaceOnUse">
<stop stop-color="#CCCCCC"/>
<stop offset="1" stop-color="#F2F2F2"/>
</linearGradient>
</defs>
</svg>
