<svg width="24" height="72" viewBox="0 0 24 72" fill="none" xmlns="http://www.w3.org/2000/svg">
<path d="M18.0306 45.477C18.0306 45.477 5.94926 42.4488 4.94531 44.1754L9.82442 9.62273C9.82442 9.62273 9.6729 0.742188 10.9803 0.742188C12.2878 0.742188 13.5952 4.66414 13.5952 4.66414C13.5952 4.66414 17.7394 37.2071 18.0306 45.477Z" fill="url(#paint0_linear_101_36663)"/>
<path d="M15.7187 42.2028C15.7191 42.2037 22.9093 51.6817 21.6018 59.5255C21.1799 62.0565 20.3161 64.7018 18.7904 66.7891C18.0464 67.8071 17.0797 68.7285 15.8607 69.1323C14.2483 69.6663 12.1792 69.2471 10.5627 68.8864C9.76701 68.709 8.98535 68.4645 8.24405 68.1233C3.06136 65.7398 1.69219 59.5945 2.10911 54.3864C2.40218 50.7281 3.51275 47.179 4.95632 43.8265C5.89269 41.6516 8.07392 41.0818 10.2511 40.7738C11.8897 40.5419 14.6045 40.7343 15.7187 42.2028Z" fill="url(#paint1_linear_101_36663)"/>
<path opacity="0.41" d="M16.3438 40.1058C16.3447 40.1067 24.7085 51.1326 23.1878 60.2576C22.6969 63.2018 21.692 66.279 19.9173 68.7075C19.0517 69.892 17.9271 70.9636 16.5089 71.4336C14.6334 72.0546 12.2263 71.5669 10.3454 71.1477C9.41993 70.9413 8.51033 70.6569 7.64791 70.2599C1.6187 67.4871 0.0258758 60.3379 0.511298 54.2792C0.852001 50.0229 2.14403 45.895 3.8235 41.9949C4.91275 39.4648 7.45055 38.802 9.98291 38.4436C11.8897 38.1737 15.0476 38.3973 16.3438 40.1058Z" fill="url(#paint2_linear_101_36663)"/>
<defs>
<linearGradient id="paint0_linear_101_36663" x1="6.60597" y1="23.353" x2="16.2104" y2="23.0572" gradientUnits="userSpaceOnUse">
<stop stop-color="#BFAB8D"/>
<stop offset="0.5078" stop-color="#E7E1D2"/>
<stop offset="1" stop-color="#CCBFA6"/>
</linearGradient>
<linearGradient id="paint1_linear_101_36663" x1="-4.2403" y1="54.7344" x2="28.7124" y2="55.3234" gradientUnits="userSpaceOnUse">
<stop stop-color="#94938C"/>
<stop offset="0.0617" stop-color="#A4A29B"/>
<stop offset="0.1809" stop-color="#CCCAC2"/>
<stop offset="0.2666" stop-color="#EDEBE1"/>
<stop offset="0.7117" stop-color="#EDEBE1"/>
<stop offset="0.7719" stop-color="#E0DED5"/>
<stop offset="0.883" stop-color="#BEBDB4"/>
<stop offset="1" stop-color="#94938C"/>
</linearGradient>
<linearGradient id="paint2_linear_101_36663" x1="-6.87489" y1="54.6841" x2="31.4595" y2="55.3693" gradientUnits="userSpaceOnUse">
<stop stop-color="#CCCCCC"/>
<stop offset="1" stop-color="#F2F2F2"/>
</linearGradient>
</defs>
</svg>
