<svg width="21" height="63" viewBox="0 0 21 63" fill="none" xmlns="http://www.w3.org/2000/svg">
<path d="M13.3562 34.7486C13.3562 34.7486 16.6244 36.0561 17.6052 43.5733C17.6052 43.5733 18.5856 51.4176 18.9127 53.7055C19.2394 55.9933 19.2394 58.9349 15.6445 59.9153C12.0492 60.8956 8.78091 60.2419 6.8197 59.5886C4.85849 58.9353 1.91689 56.9737 1.26316 54.6859C0.609418 52.398 1.26315 41.2855 2.24353 39.3243C3.22391 37.3631 5.51177 32.1337 13.3562 34.7486Z" fill="url(#paint0_linear_101_36795)"/>
<path d="M10.0899 3.69793C10.0899 3.69793 17.2643 19.383 14.3308 35.8901C14.3308 35.8901 3.92853 34.6571 3.41406 37.4807C4.87308 30.6135 5.57401 23.3866 5.28728 16.3766C5.17069 13.5325 4.97017 10.6926 4.89032 7.84716C4.8386 5.99439 4.51649 3.87758 5.31178 2.15183C5.64569 1.42641 6.19781 0.360304 7.1038 0.275468C8.6413 0.131656 9.62894 2.63816 10.0899 3.69793Z" fill="url(#paint1_linear_101_36795)"/>
<path opacity="0.41" d="M13.9367 33.8066C13.9367 33.8066 17.5942 35.2697 18.6916 43.682C18.6916 43.682 19.789 52.46 20.1547 55.0205C20.5203 57.581 20.5203 60.8724 16.4972 61.9698C12.4741 63.0672 8.81659 62.3355 6.62173 61.6041C4.42688 60.8728 1.13551 58.678 0.403742 56.118C-0.327572 53.5579 0.40374 41.122 1.50117 38.9276C2.59859 36.7327 5.15864 30.8804 13.9367 33.8066Z" fill="url(#paint2_linear_101_36795)"/>
<defs>
<linearGradient id="paint0_linear_101_36795" x1="23.5215" y1="47.8727" x2="-2.48914" y2="46.5695" gradientUnits="userSpaceOnUse">
<stop stop-color="#94938C"/>
<stop offset="0.1599" stop-color="#D1CFC6"/>
<stop offset="0.2296" stop-color="#EDEBE1"/>
<stop offset="0.7988" stop-color="#EDEBE1"/>
<stop offset="0.9762" stop-color="#9F9E96"/>
<stop offset="1" stop-color="#94938C"/>
</linearGradient>
<linearGradient id="paint1_linear_101_36795" x1="6.04353" y1="18.8881" x2="15.0246" y2="19.0486" gradientUnits="userSpaceOnUse">
<stop stop-color="#BFAB8D"/>
<stop offset="0.5078" stop-color="#E7E1D2"/>
<stop offset="1" stop-color="#CCBFA6"/>
</linearGradient>
<linearGradient id="paint2_linear_101_36795" x1="25.3125" y1="48.4933" x2="-3.79464" y2="47.035" gradientUnits="userSpaceOnUse">
<stop stop-color="#CCCCCC"/>
<stop offset="1" stop-color="#F2F2F2"/>
</linearGradient>
</defs>
</svg>
