<svg width="30" height="77" viewBox="0 0 30 77" fill="none" xmlns="http://www.w3.org/2000/svg">
<path d="M14.9697 0.813412C16.5226 2.33909 17.2966 5.59279 18.0782 7.57849C20.4682 13.6504 22.2846 19.9563 23.3371 26.3997C23.8611 29.6067 24.196 32.8454 24.3234 36.0928C24.3879 37.726 24.4001 39.361 24.3588 40.9951C24.3252 42.3325 24.5457 44.2773 23.99 45.4904C23.3059 44.7174 22.8186 43.7878 22.0946 43.0443C20.3244 41.226 18.0356 39.9258 15.4511 39.9244C14.36 39.924 13.288 40.1453 12.2686 40.5178C11.8548 40.6689 11.4502 40.8444 11.0559 41.0404C9.90588 41.6121 8.52174 43.3374 7.2982 43.4304C7.11945 41.0382 7.7242 38.3534 7.95194 35.9544C7.95194 29.8644 9.15506 23.4328 10.0665 17.4239C10.3405 15.6165 10.7529 13.8332 10.7148 12.0004C10.6753 10.1081 10.463 8.21815 10.5914 6.32455C10.7066 4.6292 10.9189 0.534861 13.254 0.27491C13.7131 0.223646 14.1649 0.393774 14.5954 0.561176C14.7334 0.615163 14.8572 0.702717 14.9697 0.813412Z" fill="url(#paint0_linear_101_36783)"/>
<path d="M27.254 69.4581C27.254 69.4581 29.5418 42.6574 17.4489 38.735C17.4489 38.735 3.72145 36.4472 2.41444 60.3064C2.37724 60.9868 2.27153 61.6637 2.2425 62.3469C2.17989 63.8377 2.23388 65.3443 2.4911 66.816C2.76149 68.3616 3.26688 69.959 4.31757 71.1598C4.82704 71.7419 5.46263 72.2037 6.18395 72.4868C6.8091 72.7322 7.4973 72.8243 8.1533 72.9591C8.96082 73.1251 9.77016 73.2812 10.584 73.4118C11.0232 73.4821 11.4641 73.5457 11.9056 73.5987C13.5283 73.7943 15.1642 73.856 16.7979 73.9177C19.4514 74.0179 22.2015 74.1499 24.6803 73.0149C26.147 72.3439 27.254 71.1394 27.254 69.4581Z" fill="url(#paint1_linear_101_36783)"/>
<path opacity="0.41" d="M29.1125 71.4215C29.1125 71.4215 31.7425 40.6157 17.8421 36.1072C17.8421 36.1072 2.06348 33.4773 0.560471 60.9023C0.517827 61.6844 0.395785 62.4625 0.363121 63.2478C0.291441 64.9613 0.353154 66.6929 0.648946 68.3847C0.959709 70.1612 1.54039 71.9977 2.74851 73.3777C3.3342 74.0469 4.06506 74.5772 4.89391 74.9029C5.61253 75.1851 6.40373 75.2908 7.15727 75.446C8.08548 75.637 9.01595 75.8162 9.95141 75.9663C10.4563 76.0475 10.9626 76.1201 11.4708 76.1809C13.3362 76.4055 15.2167 76.4767 17.094 76.5479C20.144 76.6632 23.3052 76.8151 26.1546 75.5104C27.84 74.7383 29.1125 73.3537 29.1125 71.4215Z" fill="url(#paint2_linear_101_36783)"/>
<defs>
<linearGradient id="paint0_linear_101_36783" x1="20.6562" y1="22.8434" x2="7.17513" y2="23.0844" gradientUnits="userSpaceOnUse">
<stop stop-color="#BFAB8D"/>
<stop offset="0.5078" stop-color="#E7E1D2"/>
<stop offset="1" stop-color="#CCBFA6"/>
</linearGradient>
<linearGradient id="paint1_linear_101_36783" x1="32.3291" y1="56.3215" x2="-2.69207" y2="56.3393" gradientUnits="userSpaceOnUse">
<stop stop-color="#94938C"/>
<stop offset="0.2296" stop-color="#EDEBE1"/>
<stop offset="0.7876" stop-color="#EDEBE1"/>
<stop offset="1" stop-color="#94938C"/>
</linearGradient>
<linearGradient id="paint2_linear_101_36783" x1="0.33598" y1="56.3301" x2="29.3108" y2="56.3301" gradientUnits="userSpaceOnUse">
<stop stop-color="#CCCCCC"/>
<stop offset="1" stop-color="#F2F2F2"/>
</linearGradient>
</defs>
</svg>
