<svg width="30" height="77" viewBox="0 0 30 77" fill="none" xmlns="http://www.w3.org/2000/svg">
<path d="M14.4054 0.856381C12.8525 2.38206 12.0785 5.63576 11.2968 7.62145C8.90685 13.6933 7.09034 19.9993 6.03782 26.4427C5.51382 29.6497 5.17902 32.8884 5.05154 36.1357C4.98712 37.7689 4.97486 39.4039 5.01614 41.038C5.04971 42.3754 4.82922 44.3203 5.38497 45.5334C6.06911 44.7604 6.55637 43.8308 7.28044 43.0873C9.05067 41.269 11.3395 39.9688 13.924 39.9674C15.0151 39.9669 16.0872 40.1883 17.1066 40.5608C17.5203 40.7118 17.925 40.8874 18.3192 41.0834C19.4693 41.655 20.8535 43.3803 22.0775 43.4733C22.2562 41.0811 21.6515 38.3963 21.4237 35.9974C21.4237 29.9073 20.2206 23.4757 19.3092 17.4669C19.0351 15.6595 18.6228 13.8761 18.6609 12.0433C18.7003 10.1511 18.9126 8.26112 18.7843 6.36752C18.669 4.67217 18.4567 0.57783 16.1216 0.317879C15.6625 0.266615 15.2107 0.436742 14.7801 0.604145C14.6418 0.658131 14.5179 0.745686 14.4054 0.856381Z" fill="url(#paint0_linear_101_36787)"/>
<path d="M2.11771 69.5011C2.11771 69.5011 -0.170123 42.7004 11.9228 38.778C11.9228 38.778 25.6502 36.4902 26.9572 60.3493C26.9944 61.0298 27.1001 61.7067 27.1291 62.3899C27.1918 63.8806 27.1378 65.3873 26.8805 66.859C26.6102 68.4046 26.1048 70.0019 25.0541 71.2028C24.5446 71.7848 23.909 72.2467 23.1877 72.5298C22.5626 72.7752 21.8743 72.8673 21.2183 73.002C20.4108 73.1681 19.6015 73.3241 18.7876 73.4548C18.3485 73.5251 17.9075 73.5886 17.4661 73.6417C15.8433 73.8372 14.2074 73.8989 12.5738 73.9606C9.92029 74.0609 7.17018 74.1929 4.69135 73.0578C3.22465 72.3869 2.11771 71.1824 2.11771 69.5011Z" fill="url(#paint1_linear_101_36787)"/>
<path opacity="0.41" d="M0.260689 71.4645C0.260689 71.4645 -2.36922 40.6587 11.5312 36.1501C11.5312 36.1501 27.3098 33.5202 28.8128 60.9453C28.8554 61.7274 28.9774 62.5055 29.0101 63.2907C29.0818 65.0042 29.0201 66.7359 28.7243 68.4276C28.4135 70.2042 27.8328 72.0406 26.6247 73.4207C26.039 74.0898 25.3082 74.6202 24.4793 74.9459C23.7607 75.2281 22.9695 75.3338 22.216 75.4889C21.2878 75.6799 20.3573 75.8591 19.4218 76.0093C18.9169 76.0905 18.4106 76.1631 17.9025 76.2239C16.037 76.4484 14.1565 76.5197 12.2793 76.5909C9.22926 76.7061 6.06811 76.8581 3.21862 75.5534C1.53324 74.7812 0.260689 73.3966 0.260689 71.4645Z" fill="url(#paint2_linear_101_36787)"/>
<defs>
<linearGradient id="paint0_linear_101_36787" x1="8.71889" y1="22.8864" x2="22.2002" y2="23.1274" gradientUnits="userSpaceOnUse">
<stop stop-color="#BFAB8D"/>
<stop offset="0.5078" stop-color="#E7E1D2"/>
<stop offset="1" stop-color="#CCBFA6"/>
</linearGradient>
<linearGradient id="paint1_linear_101_36787" x1="-2.95734" y1="56.3645" x2="32.0638" y2="56.3823" gradientUnits="userSpaceOnUse">
<stop stop-color="#94938C"/>
<stop offset="0.2296" stop-color="#EDEBE1"/>
<stop offset="0.7876" stop-color="#EDEBE1"/>
<stop offset="1" stop-color="#94938C"/>
</linearGradient>
<linearGradient id="paint2_linear_101_36787" x1="29.0373" y1="56.3731" x2="0.0624965" y2="56.3731" gradientUnits="userSpaceOnUse">
<stop stop-color="#CCCCCC"/>
<stop offset="1" stop-color="#F2F2F2"/>
</linearGradient>
</defs>
</svg>
