<svg width="19" height="61" viewBox="0 0 19 61" fill="none" xmlns="http://www.w3.org/2000/svg">
<path d="M6.61221 34.8111C6.61221 34.8111 3.34399 36.1186 2.36315 43.6358C2.36315 43.6358 1.38276 51.4801 1.05566 53.768C0.729021 56.0558 0.729023 58.9974 4.3239 59.9778C7.91923 60.9581 11.1875 60.3044 13.1487 59.6511C15.1099 58.9974 18.0515 57.0362 18.7052 54.7483C19.359 52.4605 18.7052 41.348 17.7249 39.3868C16.7445 37.4256 14.4566 32.1962 6.61221 34.8111Z" fill="url(#paint0_linear_80_6764)"/>
<path d="M9.88285 3.76043C9.88285 3.76043 2.70876 19.4455 5.64209 35.9527C5.64209 35.9527 16.0439 34.7196 16.5584 37.5432C15.0994 30.6761 14.3985 23.4491 14.6857 16.4391C14.8018 13.595 15.0028 10.7551 15.0827 7.90968C15.1344 6.0569 15.4565 3.94008 14.6612 2.21433C14.3273 1.48892 13.7752 0.422805 12.8693 0.337969C11.3318 0.194157 10.3438 2.70021 9.88285 3.76043Z" fill="url(#paint1_linear_80_6764)"/>
<path d="M5.35156 60.278C5.35156 60.278 5.43004 60.3424 6.40888 60.3351C6.52999 60.3002 7.78551 55.21 7.61678 53.7188C7.44759 52.2276 7.92976 49.1213 7.91026 49.0029C7.89075 48.8845 8.39196 42.0523 8.5929 41.7855C8.74712 40.7103 8.24728 40.2539 8.24728 40.2539C8.24728 40.2539 6.44155 54.9864 6.19207 55.8683C5.9426 56.7502 5.35156 60.278 5.35156 60.278Z" fill="black"/>
<defs>
<linearGradient id="paint0_linear_80_6764" x1="-3.55306" y1="47.9353" x2="22.4576" y2="46.6321" gradientUnits="userSpaceOnUse">
<stop stop-color="#94938C"/>
<stop offset="0.1599" stop-color="#D1CFC6"/>
<stop offset="0.2296" stop-color="#EDEBE1"/>
<stop offset="0.7988" stop-color="#EDEBE1"/>
<stop offset="0.9762" stop-color="#9F9E96"/>
<stop offset="1" stop-color="#94938C"/>
</linearGradient>
<linearGradient id="paint1_linear_80_6764" x1="13.9291" y1="18.9503" x2="4.94843" y2="19.1108" gradientUnits="userSpaceOnUse">
<stop stop-color="#BFAB8D"/>
<stop offset="0.5078" stop-color="#E7E1D2"/>
<stop offset="1" stop-color="#CCBFA6"/>
</linearGradient>
</defs>
</svg>
