<svg width="20" height="70" viewBox="0 0 20 70" fill="none" xmlns="http://www.w3.org/2000/svg">
<path d="M3.94531 45.5154C3.94531 45.5154 16.0269 42.4872 17.0309 44.2143L12.1517 9.66175C12.1517 9.66175 8.73194 0.78125 7.42447 0.78125C6.11701 0.78125 4.80954 4.70319 4.80954 4.70319C4.80954 4.70319 4.23657 37.2455 3.94531 45.5154Z" fill="url(#paint0_linear_80_6774)"/>
<path d="M6.26877 42.0192C6.26831 42.0201 -0.922023 51.4982 0.385478 59.3421C0.807399 61.8731 1.67119 64.5185 3.19691 66.6058C3.94094 67.6238 4.90774 68.5452 6.12677 68.949C7.73914 69.483 9.80838 69.0638 11.4248 68.7031C12.2206 68.5257 13.0023 68.2812 13.7436 67.94C18.9264 65.5565 20.2956 59.4111 19.8787 54.203C19.5856 50.5446 18.475 46.9955 17.0314 43.6429C16.095 41.468 13.9137 40.8982 11.7365 40.5902C10.0978 40.3583 7.38255 40.5507 6.26877 42.0192Z" fill="url(#paint1_linear_80_6774)"/>
<path d="M6.17188 68.9733C6.17188 68.9733 6.25036 69.0377 7.22935 69.0305C7.35047 68.9955 8.60618 63.9053 8.43742 62.4141C8.26821 60.9229 8.75045 57.8166 8.73094 57.6982C8.71144 57.5798 9.21272 50.7476 9.41369 50.4808C9.56793 49.4056 9.06755 48.9492 9.06755 48.9492C9.06755 48.9492 7.26155 63.6817 7.01204 64.5636C6.76253 65.4455 6.17188 68.9733 6.17188 68.9733Z" fill="black"/>
<defs>
<linearGradient id="paint0_linear_80_6774" x1="15.2992" y1="23.4445" x2="5.40562" y2="23.1398" gradientUnits="userSpaceOnUse">
<stop stop-color="#BFAB8D"/>
<stop offset="0.5078" stop-color="#E7E1D2"/>
<stop offset="1" stop-color="#CCBFA6"/>
</linearGradient>
<linearGradient id="paint1_linear_80_6774" x1="26.2281" y1="54.551" x2="-6.72537" y2="55.14" gradientUnits="userSpaceOnUse">
<stop stop-color="#94938C"/>
<stop offset="0.0617" stop-color="#A4A29B"/>
<stop offset="0.1809" stop-color="#CCCAC2"/>
<stop offset="0.2666" stop-color="#EDEBE1"/>
<stop offset="0.7117" stop-color="#EDEBE1"/>
<stop offset="0.7719" stop-color="#E0DED5"/>
<stop offset="0.883" stop-color="#BEBDB4"/>
<stop offset="1" stop-color="#94938C"/>
</linearGradient>
</defs>
</svg>
