<svg width="19" height="58" viewBox="0 0 19 58" fill="none" xmlns="http://www.w3.org/2000/svg">
<path d="M9.95312 56.3068C9.95312 56.3068 15.2989 57.142 17.0401 54.3006C18.7812 51.4593 10.5025 54.6173 9.95312 56.3068Z" fill="#D8D6D0"/>
<path d="M15.3199 38.3839C15.3199 38.3839 14.9932 27.2713 14.0124 24.3297C13.0316 21.3882 12.0512 11.583 12.3783 8.96809C12.7049 6.35315 12.7049 2.43118 12.7049 2.43118C12.7049 2.43118 13.0316 -0.510398 10.09 1.77745C7.14841 4.0653 3.55308 15.1779 3.88018 19.7536C4.20682 24.3293 4.31027 38.1181 4.25855 38.0877C4.20729 38.0568 15.3199 38.3839 15.3199 38.3839Z" fill="url(#paint0_linear_80_6783)"/>
<path d="M4.53109 37.0747C4.53109 37.0747 -2.98597 48.1873 2.56994 54.0705C3.24861 54.7891 4.31605 55.2945 5.14306 55.8203C5.99684 56.3633 6.90779 57.1173 7.94848 57.2348C9.14204 57.37 10.0158 56.1211 11.1889 55.8774C13.0539 55.49 14.879 55.7967 16.4717 54.5246C17.7869 53.4744 18.5844 51.8371 18.8552 50.1975C19.1928 48.1519 18.8434 46.0732 18.4361 44.0648C18.2623 43.2087 17.9665 42.3944 17.6204 41.5923C17.2516 40.7376 16.5865 39.9033 16.2971 39.035C16.2971 39.0359 13.6827 31.1915 4.53109 37.0747Z" fill="url(#paint1_linear_80_6783)"/>
<path d="M7.48438 56.9655C7.48438 56.9655 7.56239 57.0299 8.54168 57.0226C8.66279 56.9877 9.9183 51.8975 9.74957 50.4063C9.58083 48.9151 10.0625 45.8088 10.043 45.6904C10.0235 45.572 10.5247 38.7398 10.7257 38.473C10.8799 37.3978 10.38 36.9414 10.38 36.9414C10.38 36.9414 8.57433 51.6739 8.32486 52.5558C8.07538 53.4377 7.48438 56.9655 7.48438 56.9655Z" fill="black"/>
<defs>
<linearGradient id="paint0_linear_80_6783" x1="14.4199" y1="19.6926" x2="1.52735" y2="19.2954" gradientUnits="userSpaceOnUse">
<stop stop-color="#BFAB8D"/>
<stop offset="0.5078" stop-color="#E7E1D2"/>
<stop offset="1" stop-color="#CCBFA6"/>
</linearGradient>
<linearGradient id="paint1_linear_80_6783" x1="22.5672" y1="46.471" x2="-4.15835" y2="45.6477" gradientUnits="userSpaceOnUse">
<stop stop-color="#94938C"/>
<stop offset="0.0311" stop-color="#A6A59D"/>
<stop offset="0.0939" stop-color="#C5C3BB"/>
<stop offset="0.1552" stop-color="#DBD9D0"/>
<stop offset="0.2138" stop-color="#E8E7DD"/>
<stop offset="0.2666" stop-color="#EDEBE1"/>
<stop offset="0.7117" stop-color="#EDEBE1"/>
<stop offset="0.7637" stop-color="#E7E5DB"/>
<stop offset="0.835" stop-color="#D5D3CA"/>
<stop offset="0.9175" stop-color="#B8B7AF"/>
<stop offset="1" stop-color="#94938C"/>
</linearGradient>
</defs>
</svg>
