<svg width="19" height="55" viewBox="0 0 19 55" fill="none" xmlns="http://www.w3.org/2000/svg">
<path d="M9.55469 54.2959C9.55469 54.2959 14.8538 55.3915 16.7316 52.6391C18.6094 49.8863 10.1862 52.6355 9.55469 54.2959Z" fill="#D8D6D0"/>
<path d="M8.78027 54.5308C8.78027 54.5308 3.13736 54.9123 1.73333 51.2532C0.329289 47.5941 8.4473 52.4127 8.78027 54.5308Z" fill="#D8D6D0"/>
<path d="M6.52748 33.9998C6.44446 34.0406 6.36552 34.0869 6.29112 34.139C4.85342 35.1434 3.64164 36.7707 2.72749 38.2429C1.33833 40.4795 0.347061 43.0377 0.613822 45.7071C0.796199 47.5317 1.0008 49.6299 1.91269 51.2685C2.4453 52.2258 3.64256 52.6645 4.6175 53.0038C5.45272 53.2946 6.29565 53.5677 7.11453 53.903C7.87081 54.2124 8.61302 54.74 9.46503 54.6719C10.4445 54.5934 11.1286 53.8259 11.9121 53.3277C13.1416 52.5465 14.6133 52.1459 16.0696 52.2162C16.3255 52.2285 16.5877 52.2544 16.8327 52.1795C17.1907 52.0706 17.4524 51.7667 17.6634 51.4582C18.6243 50.0545 18.5989 48.6944 18.607 47.0621C18.6156 45.4035 18.5834 43.735 18.2672 42.1018C17.7042 39.1915 15.7815 36.7839 14.7707 34.037C14.7127 33.8786 14.6546 33.7167 14.548 33.586C14.3656 33.3624 14.0671 33.2657 13.7795 33.2426C13.2405 33.199 12.6975 33.2825 12.1635 33.3397C11.1509 33.4486 10.1623 33.5615 9.14426 33.6314C8.33718 33.6872 7.27922 33.6282 6.52748 33.9998Z" fill="url(#paint0_linear_80_6795)"/>
<path d="M4.38615 35.9135C4.42244 35.9429 4.46598 35.9661 4.51906 35.9806C4.78583 36.0554 5.6079 35.6531 5.89871 35.5768C6.86278 35.3246 7.83774 35.1136 8.8186 34.9381C9.85798 34.7521 10.9078 34.5756 11.9663 34.567C12.5265 34.5624 13.09 34.6015 13.6385 34.7203C14.1258 34.826 14.6507 35.1599 15.1121 35.2017C15.4482 33.891 15.1071 32.3667 15.029 31.0356C14.9424 29.5558 14.8063 28.0791 14.6216 26.6083C14.2755 23.8482 13.5863 21.1911 13.0841 18.4659C12.595 15.8152 12.4589 13.0129 12.5175 10.3136C12.5447 9.04422 12.6218 7.77259 12.7674 6.5114C12.8913 5.43486 13.2016 4.47128 13.0914 3.35572C12.9793 2.22155 12.4471 0.503973 10.9495 0.968526C9.82215 1.3183 9.12031 2.55817 8.55139 3.50089C7.46755 5.29604 6.67859 7.25179 5.95179 9.21843C5.2259 11.1823 4.55672 13.1803 4.17789 15.2436C3.84716 17.0433 3.88754 18.8048 3.91884 20.6218C3.96784 23.5062 4.0368 26.3901 4.10802 29.2741C4.15384 31.1345 4.0477 33.0762 4.19424 34.9635C4.22055 35.3164 4.16883 35.7356 4.38615 35.9135Z" fill="url(#paint1_linear_80_6795)"/>
<path d="M4.96875 53.1244C4.96875 53.1244 5.1434 53.1866 6.00531 53.4588C6.12462 53.432 7.24237 48.7561 7.03188 47.4454C6.8214 46.1348 7.21108 43.4282 7.1884 43.3239C7.16571 43.2195 7.46828 37.2511 7.66017 37.0229C7.78265 36.0861 7.27277 35.6719 7.27277 35.6719C7.27277 35.6719 5.89962 48.5211 5.67733 49.2864C5.45505 50.0518 4.96875 53.1244 4.96875 53.1244Z" fill="black"/>
<defs>
<linearGradient id="paint0_linear_80_6795" x1="24.5574" y1="44.3595" x2="-5.67943" y2="43.4281" gradientUnits="userSpaceOnUse">
<stop stop-color="#94938C"/>
<stop offset="0.2666" stop-color="#EDEBE1"/>
<stop offset="0.7117" stop-color="#EDEBE1"/>
<stop offset="1" stop-color="#94938C"/>
</linearGradient>
<linearGradient id="paint1_linear_80_6795" x1="18.0217" y1="19.4888" x2="3.6617" y2="17.9808" gradientUnits="userSpaceOnUse">
<stop stop-color="#BFAB8D"/>
<stop offset="0.5078" stop-color="#E7E1D2"/>
<stop offset="1" stop-color="#CCBFA6"/>
</linearGradient>
</defs>
</svg>
