<svg width="26" height="51" viewBox="0 0 26 51" fill="none" xmlns="http://www.w3.org/2000/svg">
<path d="M14.6734 2.24352C14.6734 2.24352 15.5794 0.189331 17.4136 0.703785C19.2478 1.21824 19.8816 6.0121 19.5495 9.54614C19.2179 13.0802 17.6459 24.2929 14.9433 24.5238C12.2408 24.7548 7.29853 18.4039 9.54693 14.8658C11.7953 11.3277 15.5159 5.11747 14.6734 2.24352Z" fill="url(#paint0_linear_80_6809)"/>
<path d="M2.85388 32.6941C6.05266 32.4636 9.68242 30.8998 12.8871 30.7733C14.8973 30.6939 16.9083 30.5609 18.9208 30.6254C19.8512 30.6548 21.2354 33.1355 22.1373 33.0207C22.7225 32.9463 22.3364 30.5428 22.3124 29.9208C22.292 29.3914 22.2471 28.8642 22.3246 28.3366C22.6032 26.4349 23.6493 24.6293 24.0844 22.7275C24.588 20.5277 24.9282 18.2852 25.1373 16.0387C25.3592 13.6555 25.4526 11.2212 25.141 8.84124C25.0067 7.81505 24.8234 6.77298 24.416 5.81529C24.0989 5.06992 23.3299 3.60684 22.3473 3.7189C21.9866 3.76018 21.6637 3.96524 21.3942 4.20886C20.8652 4.68657 20.4968 5.3226 20.2532 5.99267C19.751 7.37499 19.7619 8.86347 19.6653 10.3116C19.5654 11.8046 19.1585 13.1874 18.8237 14.6364C18.2022 17.3289 17.4682 20.4977 15.7043 22.7048C15.2752 23.242 14.63 23.6766 13.9455 23.6117C13.5943 23.5781 13.2664 23.4166 12.9796 23.2111C11.9467 22.4703 11.4213 21.1918 11.2421 19.9334C10.8751 17.3547 11.1514 14.5103 11.8405 12.0106C12.2447 10.5434 12.9914 9.22957 13.4478 7.79508C13.9301 6.27848 14.5842 3.26977 12.4461 2.69225C11.5833 2.45906 10.6646 2.90003 10.0195 3.51883C7.62778 5.81211 6.01228 9.22141 4.62906 12.1775C3.78071 13.9899 2.96186 15.8635 2.43969 17.8007C2.12576 18.9652 2.15932 20.1257 2.19244 21.3284C2.28544 24.6905 2.48052 29.361 2.85388 32.6941Z" fill="url(#paint1_linear_80_6809)"/>
<path d="M21.7946 34.8615C22.0668 34.9445 22.457 35.684 22.608 35.8968C23.2064 36.741 23.7245 37.6497 24.1124 38.6106C25.1576 41.1997 25.0061 44.0396 23.0454 46.1601C23.0222 46.185 22.9986 46.21 22.9755 46.2349C22.8698 46.3461 22.7595 46.4545 22.6733 46.5811C22.4315 46.9363 22.3739 47.3814 22.1448 47.7456C21.9289 48.09 21.6104 48.4121 21.3024 48.672C20.5769 49.2845 19.6106 49.71 18.6456 49.6148C18.314 49.5821 17.9978 49.4641 17.6862 49.3471C16.3329 48.839 14.8634 48.2597 14.1457 46.9159C14.2274 47.0692 13.8549 47.693 13.761 47.82C13.536 48.1258 13.2602 48.2587 12.9122 48.393C11.7631 48.8372 10.5123 49.1938 9.41077 49.7445C8.64952 50.0376 8.00713 50.3161 7.23272 50.0621C6.78177 49.9142 6.32491 49.7844 5.87895 49.6211C5.0442 49.3158 3.65553 48.7814 3.65553 47.6985C3.65553 46.024 2.26004 41.001 5.60903 35.978C8.9562 30.9568 21.7837 34.8583 21.7946 34.8615Z" fill="#D8D6D0"/>
<path d="M21.8091 30.7341C22.128 30.8312 22.5853 31.6977 22.7618 31.9467C23.4627 32.9357 24.0693 34 24.5238 35.1251C25.7483 38.1579 25.5704 41.4837 23.2744 43.9671C23.2472 43.9961 23.2195 44.0256 23.1923 44.0546C23.0685 44.1849 22.9396 44.3119 22.8385 44.4602C22.5549 44.8767 22.4878 45.397 22.2196 45.8244C21.9665 46.2272 21.594 46.6047 21.2329 46.9096C20.3832 47.6268 19.2513 48.1249 18.1216 48.0138C17.7333 47.9757 17.3631 47.8373 16.9979 47.7003C15.4128 47.1055 13.6916 46.4264 12.8509 44.8526C12.9466 45.0318 12.5102 45.7627 12.4004 45.912C12.1369 46.2699 11.8134 46.4255 11.4064 46.5829C10.0604 47.1033 8.59551 47.5207 7.30527 48.1658C6.41381 48.5092 5.66163 48.8354 4.75429 48.5378C4.22622 48.3645 3.69088 48.2125 3.1687 48.0215C2.19105 47.664 0.564178 47.0379 0.564178 45.7695C0.564178 43.8083 -1.06993 37.9252 2.85204 32.042C6.77266 26.1611 21.7968 30.7305 21.8091 30.7341Z" fill="url(#paint2_linear_80_6809)"/>
<path d="M3.66406 48.1515C3.66406 48.1515 3.83872 48.2137 4.70062 48.4859C4.81993 48.4591 5.93768 43.7832 5.7272 42.4726C5.51671 41.162 5.90637 38.4555 5.88369 38.3511C5.861 38.2468 6.1636 32.2784 6.35549 32.0502C6.47797 31.1134 5.96808 30.6992 5.96808 30.6992C5.96808 30.6992 4.59493 43.5483 4.37265 44.3136C4.14991 45.0794 3.66406 48.1515 3.66406 48.1515Z" fill="black"/>
<defs>
<linearGradient id="paint0_linear_80_6809" x1="11.1569" y1="23.5089" x2="29.7185" y2="-21.8564" gradientUnits="userSpaceOnUse">
<stop offset="0.1599" stop-color="#BFAB8D"/>
<stop offset="0.5078" stop-color="#E7E1D2"/>
<stop offset="0.7297" stop-color="#CCBFA6"/>
</linearGradient>
<linearGradient id="paint1_linear_80_6809" x1="24.0411" y1="17.5086" x2="3.13077" y2="18.4541" gradientUnits="userSpaceOnUse">
<stop offset="0.1599" stop-color="#BFAB8D"/>
<stop offset="0.5078" stop-color="#E7E1D2"/>
<stop offset="0.7297" stop-color="#CCBFA6"/>
</linearGradient>
<linearGradient id="paint2_linear_80_6809" x1="31.0653" y1="41.1737" x2="-3.75745" y2="37.5168" gradientUnits="userSpaceOnUse">
<stop stop-color="#94938C"/>
<stop offset="0.2296" stop-color="#EDEBE1"/>
<stop offset="0.7988" stop-color="#EDEBE1"/>
<stop offset="1" stop-color="#94938C"/>
</linearGradient>
</defs>
</svg>
