<svg width="24" height="42" viewBox="0 0 24 42" fill="none" xmlns="http://www.w3.org/2000/svg">
<path d="M9.35156 39.1173C9.35156 39.1173 11.801 42.7051 15.524 40.2618C19.247 37.8185 11.2716 37.427 9.35156 39.1173Z" fill="#D8D6D0"/>
<path d="M13.7758 3.50747C14.2966 1.76811 16.095 1.98723 16.703 3.55511C17.8785 6.58607 17.2751 9.98949 16.6708 13.0767C16.3908 14.5062 15.8509 19.7942 13.8334 19.9666C11.8317 20.1376 8.17138 15.434 9.8364 12.8136C10.7397 11.3922 11.7274 10.0144 12.4696 8.49783C13.2772 6.8492 13.2658 5.21191 13.7758 3.50747Z" fill="url(#paint0_linear_80_6823)"/>
<path d="M3.31396 26.8071C3.37929 26.8438 3.58798 26.3774 3.77535 26.3979C4.01988 26.4242 4.32475 26.3389 4.56928 26.3139C5.41402 26.2286 6.26011 26.1547 7.10666 26.0907C9.45851 25.9133 11.8212 25.8054 14.1804 25.853C15.8213 25.8861 17.4872 25.9732 19.0964 26.3166C20.0904 26.5285 21.3983 26.8438 22.0062 27.7475C22.0062 27.7475 20.6366 22.2314 21.6175 17.9823C22.5979 13.7333 23.9054 2.29403 21.2904 1.96694C19.6467 1.76143 18.4077 5.58403 17.979 6.64743C16.8421 9.46742 15.952 12.4816 15.1458 15.444C15.1231 15.5266 15.1 15.6115 15.0496 15.6809C14.6082 16.2915 13.0761 16.5337 12.4841 16.1254C11.9887 15.7834 11.8662 15.116 11.7854 14.519C11.642 13.4597 11.4987 12.4004 11.3553 11.3411C11.0146 8.82412 10.6716 6.29084 10.7324 3.74441C10.7492 3.0453 11.5459 -0.515077 9.85051 0.332827C7.00234 1.75689 5.3782 5.69563 4.58744 8.52244C3.51858 12.3419 3.47908 16.429 3.33164 20.3677C3.26404 22.1733 3.17378 24.0038 3.29128 25.8094C3.31442 26.1624 3.2205 26.7544 3.31396 26.8071Z" fill="url(#paint1_linear_80_6823)"/>
<path d="M4.40938 25.6559C5.28631 25.0484 6.46089 24.9758 7.47936 24.7721C9.0132 24.465 10.5606 24.2091 12.124 24.1147C15.5696 23.9061 19.359 24.538 21.6745 27.3412C22.4906 28.3289 23.0645 29.5116 23.3522 30.7592C23.6756 32.1637 23.4147 33.071 22.9674 34.398C22.5573 35.6143 22.022 36.9313 21.3606 38.0328C20.6433 39.2268 19.496 40.2608 18.0533 40.2399C16.4905 40.2172 14.963 39.6057 13.9191 38.4207C13.8642 38.3585 13.808 38.2928 13.7308 38.2614C13.6388 38.2242 13.5348 38.2437 13.4387 38.266C11.3377 38.7473 9.23183 40.121 7.29378 41.0497C6.36739 41.4934 5.83799 41.6286 4.89981 41.1359C3.72936 40.5212 2.61472 39.7653 1.74822 38.7668C-0.814984 35.8135 0.162202 31.6175 2.03584 28.572C2.62741 27.6107 3.36006 26.4965 4.24652 25.7788C4.2996 25.7352 4.35403 25.6944 4.40938 25.6559Z" fill="url(#paint2_linear_80_6823)"/>
<path d="M5.00781 41.1427C5.00781 41.1427 5.18293 41.2021 6.04716 41.4653C6.16512 41.4448 7.14504 37.3682 6.89916 36.2109C6.65327 35.0536 6.96492 32.6868 6.93952 32.5947C6.91411 32.5026 7.04795 27.2673 7.23214 27.0727C7.32741 26.2529 6.80936 25.875 6.80936 25.875C6.80936 25.875 5.80401 37.125 5.6044 37.791C5.40479 38.4574 5.00781 41.1427 5.00781 41.1427Z" fill="black"/>
<defs>
<linearGradient id="paint0_linear_80_6823" x1="11.0996" y1="19.2488" x2="24.7867" y2="-14.2039" gradientUnits="userSpaceOnUse">
<stop offset="0.1599" stop-color="#BFAB8D"/>
<stop offset="0.5078" stop-color="#E7E1D2"/>
<stop offset="0.7297" stop-color="#CCBFA6"/>
</linearGradient>
<linearGradient id="paint1_linear_80_6823" x1="22.1546" y1="16.2553" x2="4.46531" y2="12.8997" gradientUnits="userSpaceOnUse">
<stop offset="0.1599" stop-color="#BFAB8D"/>
<stop offset="0.5078" stop-color="#E7E1D2"/>
<stop offset="0.7297" stop-color="#CCBFA6"/>
</linearGradient>
<linearGradient id="paint2_linear_80_6823" x1="-5.06085" y1="32.7258" x2="28.2243" y2="32.8103" gradientUnits="userSpaceOnUse">
<stop stop-color="#94938C"/>
<stop offset="0.2296" stop-color="#EDEBE1"/>
<stop offset="0.7988" stop-color="#EDEBE1"/>
<stop offset="1" stop-color="#94938C"/>
</linearGradient>
</defs>
</svg>
