<svg width="24" height="43" viewBox="0 0 24 43" fill="none" xmlns="http://www.w3.org/2000/svg">
<path d="M18.969 2.9747C19.5025 1.23895 17.8857 0.42235 16.5089 1.38821C13.8473 3.25507 12.4582 6.41986 11.2455 9.32244C10.6839 10.6667 8.19473 15.3626 9.77617 16.627C11.3454 17.8814 17.002 16.0041 17.0732 12.9005C17.1117 11.2165 17.0564 9.52251 17.2819 7.84893C17.5269 6.03062 18.4459 4.67551 18.969 2.9747Z" fill="url(#paint0_linear_80_6835)"/>
<path d="M3.17644 26.8987C2.21422 20.5909 2.22963 12.9802 5.03326 7.14248C5.68472 5.78557 6.57163 4.54435 7.62821 3.47279C8.04286 3.05224 10.513 0.527144 11.032 1.14867C11.5614 1.78244 11.0828 3.19878 10.9889 3.90332C10.832 5.08239 10.6832 6.26237 10.5602 7.44552C10.3112 9.84587 9.69099 12.4467 10.3397 14.8353C10.4826 15.3611 10.8129 15.881 11.331 16.0493C11.6046 16.1382 11.9026 16.1201 12.1834 16.0593C13.9609 15.6741 15.247 13.8821 16.3398 12.5674C17.9027 10.6879 18.7996 8.57651 19.5804 6.2787C19.9596 5.16268 20.3933 4.07843 21.3465 3.33487C21.576 3.15568 22.0392 2.74012 22.3931 2.82495C23.5576 3.1035 23.1557 6.24649 23.1135 6.96101C22.7869 12.5175 20.499 20.0347 20.499 20.0347C20.499 20.0347 19.5187 26.2445 20.499 28.2057C21.4794 30.1669 4.48389 30.1669 3.17644 26.8987Z" fill="url(#paint1_linear_80_6835)"/>
<path d="M2.1965 27.8791C2.19696 27.8786 4.81141 24.9375 10.6945 24.9375C16.5775 24.9375 20.8264 26.8987 21.8068 29.5132C22.7872 32.1277 23.1143 39.3183 19.519 40.6258C18.3817 41.0396 17.1314 41.1421 16.1062 40.409C15.2292 39.782 14.8826 38.6297 13.5639 39.057C12.9891 39.243 12.515 39.6464 12.0277 40.0038C9.88557 41.5754 6.24495 43.2054 3.80518 41.3503C0.469874 38.8143 -0.707824 31.1464 2.1965 27.8791Z" fill="url(#paint2_linear_80_6835)"/>
<path d="M4.75 41.7755C4.75 41.7755 4.92512 41.8349 5.78934 42.0981C5.90729 42.0777 6.8872 38.001 6.64132 36.8437C6.39544 35.6864 6.70708 33.3196 6.68168 33.2275C6.65627 33.1354 6.79011 27.9001 6.9743 27.7055C7.06957 26.8857 6.55147 26.5078 6.55147 26.5078C6.55147 26.5078 5.54619 37.7578 5.34658 38.4238C5.14697 39.0898 4.75 41.7755 4.75 41.7755Z" fill="black"/>
<defs>
<linearGradient id="paint0_linear_80_6835" x1="12.4326" y1="17.5232" x2="19.6435" y2="-17.8965" gradientUnits="userSpaceOnUse">
<stop offset="0.1599" stop-color="#BFAB8D"/>
<stop offset="0.5078" stop-color="#E7E1D2"/>
<stop offset="0.7297" stop-color="#CCBFA6"/>
</linearGradient>
<linearGradient id="paint1_linear_80_6835" x1="-2.3424" y1="15.2438" x2="22.5948" y2="15.3339" gradientUnits="userSpaceOnUse">
<stop offset="0.1599" stop-color="#BFAB8D"/>
<stop offset="0.5078" stop-color="#E7E1D2"/>
<stop offset="0.7297" stop-color="#CCBFA6"/>
</linearGradient>
<linearGradient id="paint2_linear_80_6835" x1="-4.66442" y1="33.5093" x2="27.8944" y2="33.6269" gradientUnits="userSpaceOnUse">
<stop stop-color="#94938C"/>
<stop offset="0.2296" stop-color="#EDEBE1"/>
<stop offset="0.7988" stop-color="#EDEBE1"/>
<stop offset="1" stop-color="#94938C"/>
</linearGradient>
</defs>
</svg>
