<svg width="25" height="40" viewBox="0 0 25 40" fill="none" xmlns="http://www.w3.org/2000/svg">
<path d="M9.38186 36.8757C9.08698 38.7289 10.2729 39.2198 11.2029 37.9682C13.0003 35.5487 13.8337 32.0846 14.5541 28.9202C14.8875 27.4549 16.4273 22.2273 15.245 21.2791C14.0719 20.3387 10.1504 23.3796 10.2493 26.5135C10.3028 28.2134 10.4235 29.9047 10.3441 31.6327C10.2574 33.5104 9.67085 35.0601 9.38186 36.8757Z" fill="url(#paint0_linear_80_6945)"/>
<path d="M21.8532 13.5661C21.8532 13.5661 20.5457 17.1615 20.5457 21.0835C20.5457 25.0054 20.8724 29.9082 18.5845 33.5035C16.2967 37.0989 15.643 38.733 15.643 38.733C15.643 38.733 13.6818 41.0209 12.7014 38.4064C12.7014 38.4064 14.9892 30.562 13.6818 26.64C12.3743 22.718 11.0668 24.0251 10.7402 24.6788C10.4135 25.3325 5.83742 32.8498 5.18369 34.811C4.52996 36.7723 3.54959 38.733 2.89586 38.733C2.24213 38.733 1.26176 37.0989 0.608025 34.1573C-0.0457069 31.2157 0.608023 27.9475 1.91549 25.6592C3.22295 23.3713 4.53042 13.2391 4.53042 11.6049C4.53042 9.97081 20.2191 12.9124 21.8532 13.5661Z" fill="url(#paint1_linear_80_6945)"/>
<path d="M14.2988 3.29742C14.6091 3.22392 14.9304 3.02113 15.3033 2.7757C16.3158 2.10835 17.3674 1.46459 18.5356 1.14022C19.7038 0.815842 21.019 0.843979 22.0588 1.46777C22.7901 1.90647 23.3318 2.6015 23.7777 3.32827C24.4755 4.46562 24.9904 5.78716 24.8302 7.11187C24.6479 8.62259 24.0486 10.1102 23.4339 11.4902C23.0609 12.3273 22.7502 13.2822 22.0783 13.9373C21.2944 14.7013 19.9765 14.8088 18.9435 14.9536C16.7214 15.2643 14.4903 14.9858 12.3209 14.4708C10.1641 13.9587 7.93528 13.3907 5.83798 12.6766C5.46099 12.5482 5.08445 12.3998 4.7687 12.1576C3.8836 11.4775 3.70168 9.93188 3.48891 8.91203C3.1659 7.36184 3.36325 5.75904 3.99747 4.3141C4.81407 2.4536 6.37558 0.811315 8.44883 0.492385C9.93277 0.264189 11.2502 0.568592 12.2487 1.71864C12.5795 2.09973 12.8426 2.54251 13.2001 2.90046C13.5943 3.29515 13.9395 3.38271 14.2988 3.29742Z" fill="url(#paint2_linear_80_6945)"/>
<path d="M20.2891 0.984729C20.2891 0.984729 20.3218 0.952064 21.0358 1.01739C21.1147 1.05459 21.1719 4.30643 20.8149 5.16975C20.4579 6.03307 20.2955 7.94524 20.2628 8.01329C20.2301 8.08089 19.4834 12.2106 19.581 12.3966C19.5161 13.0566 19.0938 13.2599 19.0938 13.2599C19.0938 13.2599 20.1979 4.25608 20.1653 3.69762C20.1326 3.13917 20.2891 0.984729 20.2891 0.984729Z" fill="black"/>
<defs>
<linearGradient id="paint0_linear_80_6945" x1="13.2988" y1="20.9115" x2="13.2746" y2="57.9808" gradientUnits="userSpaceOnUse">
<stop offset="0.1599" stop-color="#BFAB8D"/>
<stop offset="0.5078" stop-color="#E7E1D2"/>
<stop offset="0.7297" stop-color="#CCBFA6"/>
</linearGradient>
<linearGradient id="paint1_linear_80_6945" x1="19.9588" y1="25.3531" x2="3.20067" y2="25.4137" gradientUnits="userSpaceOnUse">
<stop stop-color="#BFAB8D"/>
<stop offset="0.5078" stop-color="#E7E1D2"/>
<stop offset="1" stop-color="#CCBFA6"/>
</linearGradient>
<linearGradient id="paint2_linear_80_6945" x1="31.2105" y1="7.68842" x2="-2.82919" y2="7.81139" gradientUnits="userSpaceOnUse">
<stop stop-color="#94938C"/>
<stop offset="0.2614" stop-color="#EDEBE1"/>
<stop offset="0.7687" stop-color="#EDEBE1"/>
<stop offset="1" stop-color="#94938C"/>
</linearGradient>
</defs>
</svg>
