<svg width="27" height="48" viewBox="0 0 27 48" fill="none" xmlns="http://www.w3.org/2000/svg">
<path d="M10.7792 42.0739C10.5773 44.0311 11.8472 44.4762 12.7481 43.1124C14.4907 40.4761 15.163 36.8017 15.7351 33.4476C16 31.8947 17.3102 26.3335 16.0182 25.4094C14.7361 24.4925 10.8064 27.9019 11.09 31.1765C11.2438 32.9531 11.4679 34.7166 11.4842 36.53C11.5019 38.5007 10.9775 40.1567 10.7792 42.0739Z" fill="url(#paint0_linear_80_6928)"/>
<path d="M22.4093 19.8122C21.7238 21.7707 21.1712 23.8149 20.8523 25.8655C20.6377 27.2455 20.6695 28.4722 20.8791 29.8382C21.2316 32.1338 21.257 34.5296 21.1581 36.8451C21.0038 40.4568 19.2713 43.177 17.8863 46.4257C17.3773 47.6193 16.2005 48.2458 15.133 47.1474C13.7792 45.7547 14.1444 42.8272 14.0905 41.0606C14.017 38.6425 13.968 36.2077 13.4844 33.8282C13.2761 32.8039 12.9835 31.7827 12.4487 30.8844C11.917 29.9911 10.9343 29.5556 9.99297 30.1989C8.7395 31.0554 8.45687 32.9318 8.02407 34.2674C7.61805 35.52 7.25012 36.7848 6.8949 38.0528C6.39315 39.8439 5.92906 41.6454 5.4509 43.4423C5.2531 44.1864 4.60572 45.9339 3.51194 45.1744C3.14266 44.9177 2.96028 44.4731 2.80649 44.0507C2.30156 42.6616 1.89825 41.2384 1.49585 39.8166C0.956442 37.9117 0.460139 36.0122 0.344001 34.0283C0.185673 31.3236 1.25133 28.651 1.77213 26.0329C2.3256 23.2505 2.67129 20.4269 2.80376 17.5933C2.81238 17.4069 2.8269 17.2041 2.95257 17.0662C3.12269 16.8802 3.41439 16.8947 3.66436 16.9233C6.73612 17.2753 9.81422 17.5616 12.8828 17.9454C14.9592 18.2035 17.0384 18.4766 19.0966 18.8559C20.004 19.0228 21.7066 19.109 22.4093 19.8122Z" fill="url(#paint1_linear_80_6928)"/>
<path d="M24.8073 15.5664C24.9098 14.3397 24.8817 13.0966 25.1153 11.8849C25.48 9.99355 26.435 8.34582 26.2998 6.34198C25.9741 1.51769 19.2321 1.14479 15.8423 2.48083C14.4327 3.03612 13.8543 2.51168 12.6693 1.76313C11.3854 0.951975 9.87063 0.527344 8.3531 0.527344C6.61781 0.527344 4.70287 1.02093 3.22073 1.9328C1.02814 3.282 1.02995 5.49544 0.879333 7.81867C0.712382 10.3882 0.771818 13.0354 1.62154 15.4924C1.88149 16.2446 2.22583 16.9836 2.76751 17.5666C3.53739 18.3954 4.51823 18.5048 5.55849 18.7443C6.97848 19.0714 8.41434 19.3481 9.84567 19.619C12.6525 20.1502 15.4857 20.5826 18.3415 20.7259C19.6958 20.794 21.098 20.6565 22.3007 20.03C24.0424 19.1231 24.6526 17.4178 24.8073 15.5664Z" fill="url(#paint2_linear_80_6928)"/>
<path d="M19.8653 1.83556C19.8653 1.83556 19.9107 1.79019 20.9087 1.88093C21.019 1.9331 21.0988 6.47611 20.5998 7.68196C20.1007 8.8878 19.8739 11.5599 19.8285 11.6543C19.7832 11.7486 18.7397 17.5183 18.8758 17.7783C18.7851 18.7006 18.1953 18.9841 18.1953 18.9841C18.1953 18.9841 19.7378 6.40489 19.6924 5.62458C19.6471 4.84428 19.8653 1.83556 19.8653 1.83556Z" fill="black"/>
<defs>
<linearGradient id="paint0_linear_80_6928" x1="13.9615" y1="25.148" x2="16.0712" y2="63.9543" gradientUnits="userSpaceOnUse">
<stop offset="0.1599" stop-color="#BFAB8D"/>
<stop offset="0.5078" stop-color="#E7E1D2"/>
<stop offset="0.7297" stop-color="#CCBFA6"/>
</linearGradient>
<linearGradient id="paint1_linear_80_6928" x1="19.8825" y1="33.7034" x2="2.3885" y2="30.2993" gradientUnits="userSpaceOnUse">
<stop stop-color="#BFAB8D"/>
<stop offset="0.5078" stop-color="#E7E1D2"/>
<stop offset="1" stop-color="#CCBFA6"/>
</linearGradient>
<linearGradient id="paint2_linear_80_6928" x1="30.3854" y1="13.6504" x2="-2.91323" y2="7.17077" gradientUnits="userSpaceOnUse">
<stop stop-color="#94938C"/>
<stop offset="0.2114" stop-color="#EDEBE1"/>
<stop offset="0.847" stop-color="#EDEBE1"/>
<stop offset="1" stop-color="#94938C"/>
</linearGradient>
</defs>
</svg>
