<svg width="29" height="51" viewBox="0 0 29 51" fill="none" xmlns="http://www.w3.org/2000/svg">
<path d="M19.6352 1.14933C20.9481 1.2387 21.9616 1.62383 23.0395 2.36414C23.3312 2.56464 23.6075 2.80643 23.5499 3.09312C23.2813 4.43222 13.4059 3.35622 13.5007 2.18178C13.5597 1.48411 16.7712 1.29722 17.4902 1.21965C18.3019 1.1321 19.0032 1.10624 19.6352 1.14933Z" fill="#D8D6D0"/>
<path d="M9.46435 46.5153C8.78885 48.6794 10.3839 49.5622 11.8656 48.2801C14.73 45.8012 16.3877 41.8248 17.8458 38.1822C18.5208 36.4955 21.4193 30.5641 19.8941 29.1305C18.3806 27.7083 12.4481 30.4167 12.1441 34.223C11.979 36.2877 11.9101 38.3583 11.5548 40.4239C11.1683 42.6691 10.1262 44.3953 9.46435 46.5153Z" fill="url(#paint0_linear_80_6911)"/>
<path d="M26.2424 21.2431C26.0546 22.0175 25.8881 22.8055 25.8514 22.9579C25.5361 24.2659 25.2625 25.5842 25.0429 26.9116C24.8637 27.9964 24.7204 29.0874 24.6138 30.1817C24.5103 31.2424 24.6006 32.4101 24.3987 33.4499C24.1996 34.4747 23.8344 35.5499 23.4891 36.5398C22.4525 39.5127 20.8824 42.2792 19.0178 44.8079C18.0824 46.0764 17.0707 47.2881 16.0028 48.4473C15.3468 49.1595 13.9522 51.2682 12.7931 50.3921C12.358 50.0632 12.1833 49.4766 12.2115 48.9318C12.2396 48.3869 12.4392 47.8679 12.6284 47.3562C14.0856 43.4079 15.4711 38.5192 14.6517 34.2833C14.5665 33.8419 14.4331 33.3859 14.1164 33.067C13.7013 32.6492 13.0367 32.5553 12.4687 32.7118C11.9007 32.8683 11.4162 33.2399 10.9934 33.65C9.54212 35.0586 8.51094 37.0389 7.62402 38.8399C6.9526 40.2037 6.45946 41.6568 6.17592 43.1507C5.90463 44.5806 6.1351 46.2801 5.56076 47.622C5.23911 48.3742 4.52186 49.0189 3.70435 48.9953C3.06786 48.9771 2.50441 48.5675 2.08477 48.0884C0.538682 46.3232 0.242434 43.5104 0.152155 41.2598C0.0387389 38.4235 0.442505 35.5971 0.882106 32.803C1.48049 28.999 2.24945 25.2208 3.10824 21.4676C3.14136 21.322 3.60863 18.9543 3.70299 18.957C3.70299 18.957 26.5777 19.5917 26.7877 19.5976C26.6702 19.5953 26.4438 20.4115 26.2424 21.2431Z" fill="url(#paint1_linear_80_6911)"/>
<path d="M8.34314 0.971412C9.52901 0.903809 10.4944 1.16289 11.5737 1.76496C11.8658 1.92784 12.1507 2.13382 12.1448 2.42283C12.1181 3.77489 3.1342 3.88604 3.03213 2.71684C2.97406 2.02176 5.81035 1.45643 6.43958 1.29446C7.15047 1.11252 7.77244 1.00408 8.34314 0.971412Z" fill="#D8D6D0"/>
<path d="M24.2849 2.02127C25.238 2.11654 26.1358 2.48355 26.9093 3.29016C27.906 4.3295 28.4051 5.77124 28.5285 7.20572C28.793 10.2834 28.2662 13.9435 27.4973 16.925C27.2532 17.8713 27.2287 19.8602 26.5791 20.5906C24.5575 22.863 20.1156 21.7574 17.4277 21.5709C14.3491 21.3573 11.0346 21.2552 8.27626 20.5906C6.45024 20.4989 3.09717 20.9032 2.54279 18.4883C1.90765 15.7205 1.51659 12.8901 1.38593 10.0534C1.28794 7.93385 0.978547 2.69677 4.02538 2.28802C4.47134 2.22813 5.22398 2.73079 5.67084 2.83241C6.60313 3.04382 7.51274 3.01524 8.43822 2.76936C9.57647 2.46722 10.6335 1.92283 11.7246 1.4796C11.9619 1.38342 12.2087 1.29042 12.4645 1.29723C13.0475 1.31311 13.4757 1.81803 13.9421 2.16826C15.9051 3.64357 19.4238 2.87823 21.591 2.31161C22.5006 2.07344 23.4161 1.93462 24.2849 2.02127Z" fill="url(#paint2_linear_80_6911)"/>
<path d="M24.0885 1.99589C24.0885 1.99589 24.1793 1.95052 25.1319 2.17736C25.2421 2.23815 25.3252 7.48068 24.8262 8.89566C24.3272 10.3106 24.1003 13.4464 24.055 13.5575C24.0096 13.6687 22.9662 20.4391 23.1023 20.7444C23.0116 21.8264 22.4219 22.1594 22.4219 22.1594C22.4219 22.1594 23.9642 7.39721 23.9189 6.48172C23.8735 5.56623 24.0885 1.99589 24.0885 1.99589Z" fill="black"/>
<defs>
<linearGradient id="paint0_linear_80_6911" x1="17.2193" y1="28.2295" x2="9.45742" y2="72.5222" gradientUnits="userSpaceOnUse">
<stop offset="0.1599" stop-color="#BFAB8D"/>
<stop offset="0.5078" stop-color="#E7E1D2"/>
<stop offset="0.7297" stop-color="#CCBFA6"/>
</linearGradient>
<linearGradient id="paint1_linear_80_6911" x1="24.2004" y1="34.7237" x2="1.67349" y2="34.805" gradientUnits="userSpaceOnUse">
<stop stop-color="#BFAB8D"/>
<stop offset="0.5078" stop-color="#E7E1D2"/>
<stop offset="1" stop-color="#CCBFA6"/>
</linearGradient>
<linearGradient id="paint2_linear_80_6911" x1="34.3036" y1="11.5894" x2="-4.54204" y2="11.7297" gradientUnits="userSpaceOnUse">
<stop stop-color="#94938C"/>
<stop offset="0.2296" stop-color="#EDEBE1"/>
<stop offset="0.7988" stop-color="#EDEBE1"/>
<stop offset="1" stop-color="#94938C"/>
</linearGradient>
</defs>
</svg>
