<svg width="24" height="42" viewBox="0 0 24 42" fill="none" xmlns="http://www.w3.org/2000/svg">
<path d="M6.79688 38.9689C6.79688 38.9689 9.24626 42.5572 12.9691 40.1136C16.6919 37.67 8.71682 37.2785 6.79688 38.9689Z" fill="#D8D6D0"/>
<path d="M9.72347 3.50747C9.20267 1.76811 7.40435 1.98723 6.79645 3.55511C5.62101 6.58607 6.22438 9.98949 6.82865 13.0767C7.10856 14.5062 7.64842 19.7942 9.66585 19.9666C11.6674 20.1376 15.3275 15.434 13.6626 12.8136C12.7594 11.3922 11.7717 10.0144 11.0296 8.49783C10.2225 6.8492 10.2334 5.21191 9.72347 3.50747Z" fill="url(#paint0_linear_80_6829)"/>
<path d="M20.1836 26.8071C20.1183 26.8438 19.9096 26.3774 19.7223 26.3979C19.4777 26.4242 19.1729 26.3389 18.9283 26.3139C18.0836 26.2286 17.2375 26.1547 16.391 26.0907C14.0392 25.9133 11.6765 25.8054 9.31739 25.853C7.67648 25.8861 6.01062 25.9732 4.40146 26.3166C3.40748 26.5285 2.09955 26.8438 1.49163 27.7475C1.49163 27.7475 2.86126 22.2314 1.88043 17.9823C0.900053 13.7333 -0.407418 2.29403 2.20752 1.96694C3.85116 1.76143 5.09012 5.58403 5.51884 6.64743C6.65573 9.46742 7.54582 12.4816 8.35199 15.444C8.37467 15.5266 8.39781 15.6115 8.44817 15.6809C8.88959 16.2915 10.4221 16.5337 11.0137 16.1254C11.5091 15.7834 11.6316 15.116 11.7123 14.519C11.8557 13.4597 11.999 12.4004 12.1424 11.3411C12.4831 8.82412 12.8261 6.29084 12.7653 3.74441C12.7485 3.0453 11.9518 -0.515077 13.6472 0.332827C16.4953 1.75689 18.1194 5.69563 18.9106 8.52244C19.9795 12.3419 20.019 16.429 20.1664 20.3677C20.234 22.1733 20.3243 24.0038 20.2068 25.8094C20.1832 26.1624 20.2775 26.7544 20.1836 26.8071Z" fill="url(#paint1_linear_80_6829)"/>
<path d="M19.0865 25.6559C18.2096 25.0484 17.035 24.9758 16.0166 24.7721C14.4827 24.465 12.9353 24.2091 11.3724 24.1147C7.92683 23.9061 4.13737 24.538 1.82186 27.3412C1.00572 28.3289 0.431838 29.5116 0.144214 30.7592C-0.179248 32.1637 0.0816079 33.071 0.528921 34.398C0.939034 35.6143 1.47435 36.9313 2.1358 38.0328C2.85304 39.2268 4.00036 40.2608 5.44302 40.2399C7.00589 40.2172 8.53337 39.6057 9.57726 38.4207C9.63215 38.3585 9.6884 38.2928 9.76552 38.2614C9.85762 38.2242 9.96151 38.2437 10.0577 38.266C12.1586 38.7473 14.2645 40.121 16.2026 41.0497C17.129 41.4934 17.6584 41.6286 18.5966 41.1359C19.767 40.5212 20.8817 39.7653 21.7482 38.7668C24.3109 35.8135 23.3342 31.6175 21.4605 28.572C20.869 27.6107 20.1363 26.4965 19.2498 25.7788C19.1968 25.7352 19.1423 25.6944 19.0865 25.6559Z" fill="url(#paint2_linear_80_6829)"/>
<path d="M18.486 41.1427C18.486 41.1427 18.3109 41.2021 17.4467 41.4653C17.3287 41.4448 16.3488 37.3682 16.5947 36.2109C16.8406 35.0536 16.5289 32.6868 16.5543 32.5947C16.5797 32.5026 16.4459 27.2673 16.2617 27.0727C16.1664 26.2529 16.6845 25.875 16.6845 25.875C16.6845 25.875 17.6898 37.125 17.8894 37.791C18.089 38.4574 18.486 41.1427 18.486 41.1427Z" fill="black"/>
<defs>
<linearGradient id="paint0_linear_80_6829" x1="12.391" y1="19.2345" x2="-1.29667" y2="-14.2177" gradientUnits="userSpaceOnUse">
<stop offset="0.1599" stop-color="#BFAB8D"/>
<stop offset="0.5078" stop-color="#E7E1D2"/>
<stop offset="0.7297" stop-color="#CCBFA6"/>
</linearGradient>
<linearGradient id="paint1_linear_80_6829" x1="1.34363" y1="16.2553" x2="19.0326" y2="12.8998" gradientUnits="userSpaceOnUse">
<stop offset="0.1599" stop-color="#BFAB8D"/>
<stop offset="0.5078" stop-color="#E7E1D2"/>
<stop offset="0.7297" stop-color="#CCBFA6"/>
</linearGradient>
<linearGradient id="paint2_linear_80_6829" x1="28.5578" y1="32.7246" x2="-4.7273" y2="32.8091" gradientUnits="userSpaceOnUse">
<stop stop-color="#94938C"/>
<stop offset="0.2296" stop-color="#EDEBE1"/>
<stop offset="0.7988" stop-color="#EDEBE1"/>
<stop offset="1" stop-color="#94938C"/>
</linearGradient>
</defs>
</svg>
