<svg width="20" height="51" viewBox="0 0 20 51" fill="none" xmlns="http://www.w3.org/2000/svg">
<path d="M16.1376 20.7623C15.3347 26.0185 13.9187 31.2706 12.0755 36.2505C10.0494 41.7235 7.5179 47.197 2.59647 50.6267C2.47716 50.7097 2.34922 50.7959 2.20405 50.8032C2.05615 50.8104 1.91687 50.7338 1.79846 50.6448C1.12022 50.1381 0.87116 49.2131 0.941025 48.3692C1.01089 47.5254 1.34751 46.7311 1.64149 45.9371C3.43531 41.0947 3.8731 35.7655 4.38439 30.664C4.70831 27.4344 5.47637 23.4757 4.71511 20.256C3.8976 16.8004 15.6309 20.148 16.1376 20.7623Z" fill="url(#paint0_linear_80_6896)"/>
<path d="M5.99918 0.780361C6.72597 0.45282 7.48407 0.445112 8.49669 0.693716C8.77071 0.760857 9.06288 0.86519 9.21169 1.10472C9.90854 2.22435 4.189 4.37423 3.5053 3.43471C3.10062 2.8758 4.62634 1.76026 4.94573 1.48308C5.30641 1.1696 5.64894 0.93778 5.99918 0.780361Z" fill="#D8D6D0"/>
<path d="M15.9368 0.967055C16.2743 1.06868 16.5311 1.17756 16.6391 1.27237C17.1853 1.75236 17.7528 2.26319 17.9973 2.94777C18.0953 3.22224 18.1058 3.59017 17.8562 3.74079C17.7719 3.7916 17.6711 3.80702 17.5732 3.81518C16.4286 3.90909 15.1043 3.16508 14.1362 2.63384C13.7778 2.4374 12.2367 1.72831 12.307 1.17075C12.4136 0.325565 14.7096 0.598221 15.9368 0.967055Z" fill="#D8D6D0"/>
<path d="M17.9543 3.07365C17.9543 3.07365 20.2421 4.70778 18.9347 8.95688C18.2809 14.8401 16.3197 20.7233 16.3197 20.7233C16.3197 20.7233 15.666 21.7037 11.0903 21.7037C6.51466 21.7037 5.2072 21.05 4.55347 19.7425C3.89974 18.435 2.26562 6.0148 2.26562 6.0148C2.26562 6.0148 2.59226 3.0732 3.89973 2.74655C5.20719 2.41991 6.51466 2.0928 6.8413 2.0928C7.16794 2.0928 10.1095 0.131574 11.417 0.458672C12.7249 0.78577 15.9935 3.40075 17.9543 3.07365Z" fill="url(#paint1_linear_80_6896)"/>
<path d="M13.0123 1.21484C13.0123 1.21484 13.0994 1.228 13.5113 1.48704C13.8303 1.60681 14.0557 1.80461 14.0557 1.80461C14.1605 1.87221 13.8393 6.9079 13.2305 8.22082C12.6217 9.53373 12.1485 12.5152 12.0946 12.6177C12.0406 12.7203 10.4673 19.1124 10.5789 19.4155C10.4033 20.4435 9.78906 20.7134 9.78906 20.7134C9.78906 20.7134 12.4892 6.71645 12.5165 5.83679C12.5437 4.95713 13.0123 1.21484 13.0123 1.21484Z" fill="black"/>
<defs>
<linearGradient id="paint0_linear_80_6896" x1="12.9094" y1="34.7295" x2="2.54283" y2="34.767" gradientUnits="userSpaceOnUse">
<stop stop-color="#BFAB8D"/>
<stop offset="0.5078" stop-color="#E7E1D2"/>
<stop offset="1" stop-color="#CCBFA6"/>
</linearGradient>
<linearGradient id="paint1_linear_80_6896" x1="22.9725" y1="11.0203" x2="-1.15945" y2="11.1075" gradientUnits="userSpaceOnUse">
<stop stop-color="#94938C"/>
<stop offset="0.2296" stop-color="#EDEBE1"/>
<stop offset="0.7988" stop-color="#EDEBE1"/>
<stop offset="1" stop-color="#94938C"/>
</linearGradient>
</defs>
</svg>
