<svg width="19" height="53" viewBox="0 0 19 53" fill="none" xmlns="http://www.w3.org/2000/svg">
<path d="M15.5753 21.5869C15.5753 21.5869 9.36561 47.0805 4.13581 51.3291C-1.09398 55.5777 1.52091 47.0801 1.52091 47.0801C1.52091 47.0801 3.48208 31.3919 3.48208 28.4504C3.48208 25.5088 2.4423 20 2.4423 20C2.4423 20 12.5145 22.169 15.5753 21.5869Z" fill="url(#paint0_linear_80_6884)"/>
<path d="M15.8993 2.30143C15.8993 2.30143 19.1675 3.93552 18.1872 8.51119C17.2068 13.0869 17.5334 15.7018 17.5334 15.7018C17.5334 15.7018 16.8797 23.5461 11.3236 23.8728C5.7671 24.1994 2.17224 20.9312 1.84514 18.97C1.51805 17.0088 1.51849 11.4528 1.1914 10.4724C0.86476 9.49202 -0.11607 3.2818 3.1526 2.30143C6.42128 1.32106 8.38203 0.993961 8.38203 0.993961C8.38203 0.993961 11.6503 0.0135941 15.8993 2.30143Z" fill="url(#paint1_linear_80_6884)"/>
<path d="M13.4537 1.28516C13.4537 1.28516 13.5444 1.28516 13.9527 1.42126C14.2703 1.55736 14.2703 1.55736 14.5102 1.64764C14.6146 1.72522 14.1995 7.75044 13.5712 9.3029C12.9429 10.8549 12.4258 14.3659 12.3704 14.4874C12.3151 14.6086 10.6476 22.1445 10.7546 22.4993C10.5641 23.7101 9.94531 24.0363 9.94531 24.0363C9.94531 24.0363 12.8508 7.54536 12.8908 6.51054C12.9302 5.47617 13.4537 1.28516 13.4537 1.28516Z" fill="black"/>
<defs>
<linearGradient id="paint0_linear_80_6884" x1="2.3164" y1="36.2602" x2="13.8727" y2="36.3019" gradientUnits="userSpaceOnUse">
<stop stop-color="#BFAB8D"/>
<stop offset="0.5078" stop-color="#E7E1D2"/>
<stop offset="1" stop-color="#CCBFA6"/>
</linearGradient>
<linearGradient id="paint1_linear_80_6884" x1="-2.48414" y1="12.2939" x2="21.6828" y2="12.3812" gradientUnits="userSpaceOnUse">
<stop stop-color="#94938C"/>
<stop offset="0.2296" stop-color="#EDEBE1"/>
<stop offset="0.4283" stop-color="#EDEBE1"/>
<stop offset="0.7988" stop-color="#EDEBE1"/>
<stop offset="1" stop-color="#94938C"/>
</linearGradient>
</defs>
</svg>
