<svg width="19" height="67" viewBox="0 0 19 67" fill="none" xmlns="http://www.w3.org/2000/svg">
<path d="M15.7759 27.3676C13.8709 27.3576 11.9365 27.1821 10.0347 27.0296C7.73138 26.845 4.49713 26.9579 2.39391 25.8573C2.20155 25.7566 2.13804 25.4141 1.9611 25.293C1.5587 26.6422 1.90304 28.8044 1.98244 30.1858C2.20973 34.135 2.38439 38.0914 2.34628 42.0479C2.32496 44.2318 2.20383 46.4004 2.00694 48.5748C1.73564 51.5776 0.721678 54.5092 0.448567 57.5429C0.257117 59.6702 0.289334 61.8328 0.704444 63.9333C0.835102 64.5938 1.02518 66.3064 1.59817 66.4643C2.35398 66.6721 3.49407 65.5098 3.87379 64.9976C5.12956 63.3045 5.45166 61.0117 6.09406 59.05C6.81268 56.8542 7.65471 54.7011 8.51488 52.5575C10.1921 48.3761 11.956 44.2055 13.0362 39.819C13.6672 37.2562 13.948 34.6308 14.5405 32.0585C14.903 30.4825 15.3308 28.9223 15.7759 27.3676Z" fill="url(#paint0_linear_80_6874)"/>
<path d="M17.9703 8.61609C17.9703 8.61609 18.9488 3.38618 16.6601 1.75297C14.3713 0.119764 13.3914 0.773952 13.3914 0.773952C12.4451 1.03254 11.4942 1.2748 10.5415 1.50753C8.97278 1.89043 7.27926 2.43937 5.65333 2.39718C5.3276 2.38856 5.00142 2.35227 4.67705 2.38493C2.25403 2.62719 1.86071 5.20766 1.49687 7.0981C1.03005 9.52206 0.701151 11.9787 0.506984 14.4394C0.346841 16.4714 0.269255 18.5265 0.440286 20.5608C0.564589 22.0343 0.770556 23.7174 1.63569 24.9659C2.8447 26.7102 5.06039 27.5028 7.04198 27.9587C9.55709 28.5376 12.2001 28.6737 14.7724 28.5653C16.171 28.5059 16.5607 25.3887 16.6388 24.3997C17.0539 19.1353 17.4953 13.875 17.9703 8.61609Z" fill="url(#paint1_linear_80_6874)"/>
<path d="M10.2344 1.64844C10.2344 1.64844 10.4172 1.65162 11.2794 1.65162C11.396 1.69925 12.1092 6.94902 11.7807 8.41299C11.4522 9.87695 11.5965 13.0176 11.5647 13.1329C11.533 13.2486 11.2952 20.0948 11.4663 20.3819C11.5039 21.4671 10.9572 21.8677 10.9572 21.8677C10.9572 21.8677 10.7476 7.02704 10.5942 6.12289C10.4408 5.21875 10.2344 1.64844 10.2344 1.64844Z" fill="black"/>
<defs>
<linearGradient id="paint0_linear_80_6874" x1="11.148" y1="45.8535" x2="2.06614" y2="45.8901" gradientUnits="userSpaceOnUse">
<stop stop-color="#BFAB8D"/>
<stop offset="0.5078" stop-color="#E7E1D2"/>
<stop offset="1" stop-color="#CCBFA6"/>
</linearGradient>
<linearGradient id="paint1_linear_80_6874" x1="22.6419" y1="14.5852" x2="-3.68535" y2="14.6913" gradientUnits="userSpaceOnUse">
<stop stop-color="#94938C"/>
<stop offset="0.2296" stop-color="#EDEBE1"/>
<stop offset="0.7988" stop-color="#EDEBE1"/>
<stop offset="1" stop-color="#94938C"/>
</linearGradient>
</defs>
</svg>
