<svg width="17" height="64" viewBox="0 0 17 64" fill="none" xmlns="http://www.w3.org/2000/svg">
<path d="M14.5334 23.0977C14.5334 23.0977 6.36231 27.0196 4.07445 23.7514C4.16427 26.9629 4.21964 30.1762 4.26183 33.3887C4.34168 39.4973 4.37389 45.6118 4.1956 51.7191C4.13299 53.864 4.08309 56.0117 3.87803 58.1489C3.77368 59.2377 3.62987 60.3234 3.42435 61.3977C3.32999 61.8922 3.04552 62.4747 3.27463 62.9261C3.5795 63.5263 4.36707 63.6624 4.91737 63.3915C5.69179 63.0104 6.20082 62.0732 6.58508 61.3496C7.51193 59.6039 8.10986 57.6744 8.65064 55.7817C11.9184 44.342 14.0298 26.6136 14.5334 23.0977Z" fill="url(#paint0_linear_80_6864)"/>
<path d="M15.7907 0.660614C15.0181 0.264109 13.8145 0.509089 12.968 0.50183C11.3974 0.488674 9.82685 0.493202 8.25673 0.538569C6.50243 0.58938 4.06309 0.388863 2.4408 1.20002C0.882936 1.97896 0.717341 3.92474 0.764522 5.45315C0.95143 11.4905 1.34022 17.845 3.77547 23.4583C4.48862 25.1019 5.48395 26.7605 7.04182 27.7277C9.45575 29.2267 12.219 28.3579 13.5949 25.958C14.6964 24.0372 15.1202 21.8228 15.3511 19.6507C15.5257 18.0061 15.4164 16.3493 15.533 14.7016C15.6559 12.965 16.1681 11.28 16.448 9.56381C16.8903 6.84998 17.4256 4.0182 16.4144 1.36471C16.2847 1.02264 16.0647 0.80125 15.7907 0.660614Z" fill="url(#paint1_linear_80_6864)"/>
<path d="M8.78125 0.566406C8.78125 0.566406 8.96405 0.569585 9.8259 0.569585C9.94248 0.61722 10.6555 5.86704 10.3271 7.33102C9.99872 8.795 10.143 11.9357 10.1112 12.051C10.0795 12.1667 9.84179 19.0129 10.0128 19.3001C10.0504 20.3853 9.50384 20.7859 9.50384 20.7859C9.50384 20.7859 9.29427 5.94507 9.14095 5.04091C8.98854 4.13721 8.78125 0.566406 8.78125 0.566406Z" fill="black"/>
<defs>
<linearGradient id="paint0_linear_80_6864" x1="1.89414" y1="43.2838" x2="11.1273" y2="43.3171" gradientUnits="userSpaceOnUse">
<stop stop-color="#BFAB8D"/>
<stop offset="0.5078" stop-color="#E7E1D2"/>
<stop offset="1" stop-color="#CCBFA6"/>
</linearGradient>
<linearGradient id="paint1_linear_80_6864" x1="-1.95603" y1="14.4004" x2="20.2367" y2="14.4806" gradientUnits="userSpaceOnUse">
<stop stop-color="#94938C"/>
<stop offset="0.2296" stop-color="#EDEBE1"/>
<stop offset="0.7988" stop-color="#EDEBE1"/>
<stop offset="1" stop-color="#94938C"/>
</linearGradient>
</defs>
</svg>
