<svg width="16" height="66" viewBox="0 0 16 66" fill="none" xmlns="http://www.w3.org/2000/svg">
<path d="M2.3663 24.6797C2.36585 32.2137 0.831124 39.6937 0.4809 47.2223C0.337998 50.2909 0.101648 53.3586 0.146106 56.4326C0.181038 58.8693 -0.00541989 62.9327 1.51388 65.0078C2.15717 65.8843 4.06071 61.9823 4.24262 61.6076C5.38176 59.2617 6.08948 56.7679 6.96958 54.3199C7.93995 51.6201 8.92938 48.9036 9.72464 46.1453C10.7857 42.4652 11.3905 38.6322 12.0664 34.8672C12.1721 34.2774 13.0958 26.6958 13.4787 26.6413C13.4755 26.6413 4.32701 27.9479 2.3663 24.6797Z" fill="url(#paint0_linear_80_6854)"/>
<path d="M14.9757 0.641015C14.8269 0.50537 14.5642 0.476788 14.0779 0.435958C13.3339 0.373807 12.5608 0.428251 11.815 0.429612C8.77499 0.43551 5.73497 0.495391 2.69495 0.495391C2.69495 0.495391 -0.246632 1.14912 0.0800079 2.78321C0.406648 4.41731 1.38746 24.6815 2.36784 25.9885C3.34821 27.2955 5.63607 31.545 10.5389 30.2376C15.4412 28.9301 14.4608 17.4914 14.4608 17.491C14.3315 15.4191 14.8523 13.1245 14.9934 11.053C15.203 7.9781 15.3822 4.87641 15.2062 1.79513C15.1676 1.11963 15.1535 0.803426 14.9757 0.641015Z" fill="url(#paint1_linear_80_6854)"/>
<path d="M7.11719 0.476562C7.11719 0.476562 7.3 0.47973 8.16186 0.47973C8.27844 0.527365 8.9915 5.7772 8.66309 7.24118C8.33468 8.70516 8.47891 11.8459 8.44716 11.9611C8.41541 12.0768 8.17772 18.9231 8.34873 19.2103C8.38638 20.2954 7.83979 20.696 7.83979 20.696C7.83979 20.696 7.63023 5.85523 7.47691 4.95107C7.32359 4.04691 7.11719 0.476562 7.11719 0.476562Z" fill="black"/>
<defs>
<linearGradient id="paint0_linear_80_6854" x1="12.3979" y1="44.8704" x2="-3.90699" y2="44.9293" gradientUnits="userSpaceOnUse">
<stop stop-color="#BFAB8D"/>
<stop offset="0.5078" stop-color="#E7E1D2"/>
<stop offset="1" stop-color="#CCBFA6"/>
</linearGradient>
<linearGradient id="paint1_linear_80_6854" x1="17.5325" y1="15.4217" x2="-2.01058" y2="15.4923" gradientUnits="userSpaceOnUse">
<stop stop-color="#94938C"/>
<stop offset="0.2296" stop-color="#EDEBE1"/>
<stop offset="0.7988" stop-color="#EDEBE1"/>
<stop offset="1" stop-color="#94938C"/>
</linearGradient>
</defs>
</svg>
