<svg width="16" height="66" viewBox="0 0 16 66" fill="none" xmlns="http://www.w3.org/2000/svg">
<path d="M13.0268 24.6797C13.0272 32.2137 14.562 39.6937 14.9123 47.2223C15.0552 50.2909 15.2915 53.3586 15.2471 56.4326C15.2121 58.8693 15.3986 62.9327 13.8792 65.0078C13.2359 65.8843 11.3323 61.9823 11.1504 61.6076C10.0112 59.2617 9.30349 56.7679 8.42336 54.3199C7.45296 51.6201 6.4635 48.9036 5.66821 46.1453C4.60707 42.4652 4.00231 38.6322 3.32634 34.8672C3.22064 34.2774 2.29696 26.6958 1.91406 26.6413C1.91769 26.6413 11.0665 27.9479 13.0268 24.6797Z" fill="url(#paint0_linear_80_6849)"/>
<path d="M0.419115 0.641015C0.567917 0.50537 0.830592 0.476788 1.31692 0.435958C2.06094 0.373807 2.83398 0.428251 3.57981 0.429612C6.61983 0.43551 9.65986 0.495391 12.6999 0.495391C12.6999 0.495391 15.6414 1.14911 15.3148 2.78321C14.9882 4.4173 14.0073 24.6815 13.027 25.9885C12.0466 27.2959 9.75876 31.5449 4.85599 30.2375C-0.0463339 28.93 0.934031 17.4914 0.934031 17.4909C1.06333 15.4191 0.542506 13.1244 0.401415 11.053C0.191821 7.97808 0.0126257 4.8764 0.188648 1.79513C0.226756 1.11963 0.240824 0.803426 0.419115 0.641015Z" fill="url(#paint1_linear_80_6849)"/>
<path d="M8.28099 0.476562C8.28099 0.476562 8.09767 0.47973 7.23555 0.47973C7.11894 0.527365 6.40566 5.7772 6.73417 7.24118C7.06268 8.70516 6.91838 11.8459 6.95014 11.9611C6.98191 12.0768 7.21967 18.9231 7.0486 19.2103C7.01094 20.2954 7.55772 20.696 7.55772 20.696C7.55772 20.696 7.76735 5.85523 7.92072 4.95107C8.07408 4.04691 8.28099 0.476562 8.28099 0.476562Z" fill="black"/>
<defs>
<linearGradient id="paint0_linear_80_6849" x1="2.99519" y1="44.8704" x2="19.3007" y2="44.9293" gradientUnits="userSpaceOnUse">
<stop stop-color="#BFAB8D"/>
<stop offset="0.5078" stop-color="#E7E1D2"/>
<stop offset="1" stop-color="#CCBFA6"/>
</linearGradient>
<linearGradient id="paint1_linear_80_6849" x1="-2.13773" y1="15.4217" x2="17.4053" y2="15.4923" gradientUnits="userSpaceOnUse">
<stop stop-color="#94938C"/>
<stop offset="0.2296" stop-color="#EDEBE1"/>
<stop offset="0.7988" stop-color="#EDEBE1"/>
<stop offset="1" stop-color="#94938C"/>
</linearGradient>
</defs>
</svg>
