<svg width="17" height="64" viewBox="0 0 17 64" fill="none" xmlns="http://www.w3.org/2000/svg">
<path d="M3.125 23.0977C3.125 23.0977 11.2959 27.0196 13.5837 23.7514C13.4939 26.9629 13.4386 30.1762 13.3964 33.3887C13.3165 39.4973 13.2843 45.6118 13.4626 51.7191C13.5252 53.864 13.5751 56.0117 13.7802 58.1489C13.8845 59.2377 14.0283 60.3234 14.2338 61.3977C14.3286 61.8922 14.6126 62.4747 14.3835 62.9261C14.0787 63.5263 13.2911 63.6624 12.7408 63.3915C11.9664 63.0104 11.4574 62.0732 11.0732 61.3496C10.1463 59.6039 9.5484 57.6744 9.00763 55.7817C5.7399 44.342 3.62856 26.6136 3.125 23.0977Z" fill="url(#paint0_linear_80_6859)"/>
<path d="M1.86503 0.660614C2.63762 0.264109 3.84118 0.509089 4.68772 0.50183C6.25831 0.488674 7.8289 0.493202 9.39903 0.538569C11.1534 0.58938 13.5927 0.388863 15.215 1.20002C16.7729 1.97896 16.9385 3.92474 16.8913 5.45315C16.7044 11.4905 16.3156 17.845 13.8803 23.4583C13.1672 25.1019 12.1718 26.7605 10.6139 27.7277C8.19999 29.2267 5.43673 28.3579 4.06076 25.958C2.95927 24.0372 2.53555 21.8228 2.30463 19.6507C2.12997 18.0061 2.23929 16.3493 2.1227 14.7016C1.99976 12.965 1.48757 11.28 1.20766 9.56381C0.765339 6.84998 0.230025 4.0182 1.24124 1.36471C1.37099 1.02264 1.59102 0.80125 1.86503 0.660614Z" fill="url(#paint1_linear_80_6859)"/>
<path d="M8.87473 0.566406C8.87473 0.566406 8.69141 0.569585 7.8293 0.569585C7.71269 0.61722 6.99941 5.86704 7.32792 7.33102C7.65643 8.795 7.51213 11.9357 7.54389 12.051C7.57565 12.1667 7.81341 19.0129 7.64235 19.3001C7.60469 20.3853 8.15146 20.7859 8.15146 20.7859C8.15146 20.7859 8.36109 5.94507 8.51446 5.04091C8.66737 4.13721 8.87473 0.566406 8.87473 0.566406Z" fill="black"/>
<defs>
<linearGradient id="paint0_linear_80_6859" x1="15.764" y1="43.2838" x2="6.53105" y2="43.3171" gradientUnits="userSpaceOnUse">
<stop stop-color="#BFAB8D"/>
<stop offset="0.5078" stop-color="#E7E1D2"/>
<stop offset="1" stop-color="#CCBFA6"/>
</linearGradient>
<linearGradient id="paint1_linear_80_6859" x1="19.6119" y1="14.4004" x2="-2.58101" y2="14.4806" gradientUnits="userSpaceOnUse">
<stop stop-color="#94938C"/>
<stop offset="0.2296" stop-color="#EDEBE1"/>
<stop offset="0.7988" stop-color="#EDEBE1"/>
<stop offset="1" stop-color="#94938C"/>
</linearGradient>
</defs>
</svg>
