<svg width="19" height="67" viewBox="0 0 19 67" fill="none" xmlns="http://www.w3.org/2000/svg">
<path d="M3.11719 27.3676C5.02216 27.3576 6.95663 27.1821 8.85842 27.0296C11.1617 26.845 14.3959 26.9579 16.4992 25.8573C16.6915 25.7566 16.755 25.4141 16.932 25.293C17.3344 26.6422 16.99 28.8044 16.9106 30.1858C16.6833 34.135 16.5087 38.0914 16.5468 42.0479C16.5681 44.2318 16.6897 46.4004 16.8861 48.5748C17.1574 51.5776 18.1714 54.5092 18.4445 57.5429C18.636 59.6702 18.6037 61.8328 18.1886 63.9333C18.058 64.5938 17.8679 66.3064 17.2949 66.4643C16.5391 66.6721 15.399 65.5098 15.0193 64.9976C13.7635 63.3045 13.4414 61.0117 12.799 59.05C12.0804 56.8542 11.2384 54.7011 10.3787 52.5575C8.70144 48.3761 6.93755 44.2055 5.85736 39.819C5.2263 37.2562 4.9455 34.6308 4.353 32.0585C3.99052 30.4825 3.56269 28.9223 3.11719 27.3676Z" fill="url(#paint0_linear_80_6869)"/>
<path d="M0.926675 8.61609C0.926675 8.61609 -0.0519181 3.38618 2.2369 1.75297C4.52571 0.119764 5.50567 0.773952 5.50567 0.773952C6.45205 1.03254 7.40295 1.2748 8.35568 1.50753C9.92451 1.89043 11.6181 2.43937 13.2441 2.39718C13.5698 2.38856 13.8965 2.35227 14.2204 2.38493C16.6435 2.62719 17.0369 5.20766 17.4007 7.0981C17.8675 9.52206 18.1964 11.9787 18.3906 14.4394C18.5508 16.4714 18.6284 18.5265 18.4573 20.5608C18.3335 22.0343 18.127 23.7174 17.2619 24.9659C16.0533 26.7102 13.837 27.5028 11.8554 27.9587C9.34017 28.5376 6.69702 28.6737 4.12465 28.5653C2.72596 28.5059 2.33626 25.3887 2.25823 24.3997C1.84311 19.1353 1.40168 13.875 0.926675 8.61609Z" fill="url(#paint1_linear_80_6869)"/>
<path d="M8.655 1.64844C8.655 1.64844 8.47179 1.65162 7.6102 1.65162C7.49365 1.69925 6.7808 6.94902 7.10912 8.41299C7.43743 9.87695 7.29322 13.0176 7.32496 13.1329C7.3567 13.2486 7.59432 20.0948 7.42336 20.3819C7.38572 21.4671 7.93217 21.8677 7.93217 21.8677C7.93217 21.8677 8.14167 7.02704 8.29494 6.12289C8.44822 5.21875 8.655 1.64844 8.655 1.64844Z" fill="black"/>
<defs>
<linearGradient id="paint0_linear_80_6869" x1="7.74552" y1="45.8535" x2="16.8273" y2="45.8901" gradientUnits="userSpaceOnUse">
<stop stop-color="#BFAB8D"/>
<stop offset="0.5078" stop-color="#E7E1D2"/>
<stop offset="1" stop-color="#CCBFA6"/>
</linearGradient>
<linearGradient id="paint1_linear_80_6869" x1="-3.74526" y1="14.5852" x2="22.5831" y2="14.6913" gradientUnits="userSpaceOnUse">
<stop stop-color="#94938C"/>
<stop offset="0.2296" stop-color="#EDEBE1"/>
<stop offset="0.7988" stop-color="#EDEBE1"/>
<stop offset="1" stop-color="#94938C"/>
</linearGradient>
</defs>
</svg>
