<svg width="19" height="53" viewBox="0 0 19 53" fill="none" xmlns="http://www.w3.org/2000/svg">
<path d="M3.64062 21.4932C3.64062 21.4932 9.85033 46.9872 15.0801 51.2358C20.3099 55.4844 17.695 46.9867 17.695 46.9867C17.695 46.9867 15.7339 31.2984 15.7339 28.3568C15.7339 25.4152 16.7736 19.9062 16.7736 19.9062C16.7736 19.9062 6.70147 22.0752 3.64062 21.4932Z" fill="url(#paint0_linear_80_6879)"/>
<path d="M3.31499 2.21158C3.31499 2.21158 0.0468548 3.84568 1.0272 8.42134C2.00755 12.997 1.68093 15.6119 1.68093 15.6119C1.68093 15.6119 2.33464 23.4563 7.89055 23.7829C13.4469 24.1095 17.0417 20.8413 17.3688 18.8801C17.6954 16.9189 17.6954 11.3629 18.0225 10.3825C18.3491 9.40218 19.3299 3.19195 16.0613 2.21158C12.7927 1.23121 10.832 0.904118 10.832 0.904118C10.832 0.904118 7.56347 -0.0762491 3.31499 2.21158Z" fill="url(#paint1_linear_80_6879)"/>
<path d="M5.76017 1.19531C5.76017 1.19531 5.66943 1.19531 5.26112 1.33141C4.94354 1.46751 4.94354 1.46751 4.70354 1.55779C4.5992 1.63537 5.01431 7.66053 5.64312 9.21297C6.27147 10.765 6.78865 14.2759 6.844 14.3975C6.89935 14.5186 8.56709 22.0545 8.46002 22.4092C8.65056 23.6201 9.26938 23.9462 9.26938 23.9462C9.26938 23.9462 6.36356 7.45546 6.32364 6.42064C6.28372 5.38628 5.76017 1.19531 5.76017 1.19531Z" fill="black"/>
<defs>
<linearGradient id="paint0_linear_80_6879" x1="16.8997" y1="36.1666" x2="5.34342" y2="36.2084" gradientUnits="userSpaceOnUse">
<stop stop-color="#BFAB8D"/>
<stop offset="0.5078" stop-color="#E7E1D2"/>
<stop offset="1" stop-color="#CCBFA6"/>
</linearGradient>
<linearGradient id="paint1_linear_80_6879" x1="21.6976" y1="12.2041" x2="-2.46864" y2="12.2914" gradientUnits="userSpaceOnUse">
<stop stop-color="#94938C"/>
<stop offset="0.2296" stop-color="#EDEBE1"/>
<stop offset="0.4283" stop-color="#EDEBE1"/>
<stop offset="0.7988" stop-color="#EDEBE1"/>
<stop offset="1" stop-color="#94938C"/>
</linearGradient>
</defs>
</svg>
