<svg width="20" height="51" viewBox="0 0 20 51" fill="none" xmlns="http://www.w3.org/2000/svg">
<path d="M4.00781 20.7623C4.81081 26.0185 6.22671 31.2706 8.06997 36.2505C10.0961 41.7235 12.6275 47.197 17.5489 50.6267C17.6682 50.7097 17.7962 50.7959 17.9413 50.8032C18.0892 50.8104 18.2285 50.7338 18.3469 50.6448C19.0247 50.1381 19.2742 49.2131 19.2044 48.3692C19.1345 47.5254 18.7979 46.7311 18.5039 45.9371C16.7101 41.0947 16.2723 35.7655 15.761 30.664C15.4371 27.4344 14.669 23.4757 15.4303 20.256C16.2478 16.8004 4.51411 20.148 4.00781 20.7623Z" fill="url(#paint0_linear_80_6889)"/>
<path d="M14.146 0.780361C13.4193 0.45282 12.6612 0.445112 11.6487 0.693716C11.3747 0.760857 11.0825 0.86519 10.9337 1.10472C10.2369 2.22435 15.956 4.37423 16.6397 3.43471C17.0443 2.8758 15.5187 1.76026 15.1993 1.48308C14.8387 1.1696 14.4962 0.93778 14.146 0.780361Z" fill="#D8D6D0"/>
<path d="M4.21105 0.967055C3.87352 1.06868 3.61674 1.17756 3.50877 1.27237C2.96255 1.75236 2.39499 2.26319 2.15046 2.94777C2.05247 3.22224 2.04205 3.59017 2.29157 3.74079C2.37595 3.7916 2.47665 3.80702 2.57465 3.81518C3.71925 3.90909 5.04352 3.16508 6.01165 2.63384C6.37005 2.4374 7.91116 1.72831 7.84084 1.17075C7.73423 0.325565 5.43822 0.598221 4.21105 0.967055Z" fill="#D8D6D0"/>
<path d="M2.19639 3.07365C2.19639 3.07365 -0.0913585 4.70778 1.21605 8.95688C1.86975 14.8401 3.83086 20.7233 3.83086 20.7233C3.83086 20.7233 4.48457 21.7037 9.06003 21.7037C13.6355 21.7037 14.9429 21.05 15.5966 19.7425C16.2503 18.435 17.8843 6.0148 17.8843 6.0148C17.8843 6.0148 17.5577 3.0732 16.2503 2.74655C14.9429 2.41991 13.6355 2.0928 13.3089 2.0928C12.9823 2.0928 10.0408 0.131574 8.7334 0.458672C7.42599 0.78577 4.1575 3.40075 2.19639 3.07365Z" fill="url(#paint1_linear_80_6889)"/>
<path d="M7.13345 1.21484C7.13345 1.21484 7.04634 1.228 6.63437 1.48704C6.31541 1.60681 6.08992 1.80461 6.08992 1.80461C5.98511 1.87221 6.30633 6.9079 6.91521 8.22082C7.5241 9.53373 7.99732 12.5152 8.05131 12.6177C8.1053 12.7203 9.67878 19.1124 9.56717 19.4155C9.74275 20.4435 10.3571 20.7134 10.3571 20.7134C10.3571 20.7134 7.65659 6.71645 7.62937 5.83679C7.60214 4.95713 7.13345 1.21484 7.13345 1.21484Z" fill="black"/>
<defs>
<linearGradient id="paint0_linear_80_6889" x1="7.23602" y1="34.7295" x2="17.6025" y2="34.767" gradientUnits="userSpaceOnUse">
<stop stop-color="#BFAB8D"/>
<stop offset="0.5078" stop-color="#E7E1D2"/>
<stop offset="1" stop-color="#CCBFA6"/>
</linearGradient>
<linearGradient id="paint1_linear_80_6889" x1="-2.82122" y1="11.0203" x2="21.3096" y2="11.1075" gradientUnits="userSpaceOnUse">
<stop stop-color="#94938C"/>
<stop offset="0.2296" stop-color="#EDEBE1"/>
<stop offset="0.7988" stop-color="#EDEBE1"/>
<stop offset="1" stop-color="#94938C"/>
</linearGradient>
</defs>
</svg>
