<svg width="29" height="50" viewBox="0 0 29 50" fill="none" xmlns="http://www.w3.org/2000/svg">
<path d="M9.16457 0.50871C7.85166 0.598083 6.83816 0.983248 5.76024 1.72363C5.46853 1.92416 5.19225 2.16596 5.24986 2.45268C5.51843 3.79191 15.3939 2.7158 15.2991 1.54126C15.2401 0.843518 12.0286 0.656608 11.3095 0.579031C10.4984 0.491473 9.79699 0.465612 9.16457 0.50871Z" fill="#D8D6D0"/>
<path d="M19.3282 45.8782C20.0037 48.0422 18.4086 48.925 16.927 47.6429C14.0626 45.1641 12.4049 41.1878 10.9468 37.5453C10.2718 35.8586 7.3733 29.9274 8.89851 28.4938C10.4119 27.0716 16.3445 29.7799 16.6484 33.5862C16.8131 35.6508 16.8825 37.7213 17.2377 39.7869C17.6243 42.032 18.6659 43.7582 19.3282 45.8782Z" fill="url(#paint0_linear_80_6903)"/>
<path d="M2.55268 20.6064C2.7405 21.3808 2.90698 22.1688 2.94373 22.3212C3.25903 23.6291 3.5326 24.9475 3.75218 26.2749C3.93138 27.3596 4.07473 28.4507 4.18135 29.545C4.28478 30.6056 4.1945 31.7734 4.39684 32.8132C4.596 33.838 4.96119 34.9132 5.30644 35.9031C6.34307 38.876 7.91322 41.6425 9.7778 44.1712C10.7133 45.4396 11.7249 46.6514 12.7929 47.8105C13.4489 48.5228 14.8435 50.6314 16.0026 49.7554C16.4377 49.4265 16.6123 48.8399 16.5842 48.295C16.5561 47.7502 16.3564 47.2312 16.1673 46.7194C14.7101 42.7712 13.3246 37.8825 14.1439 33.6466C14.2292 33.2052 14.3626 32.7492 14.6792 32.4303C15.0943 32.0125 15.759 31.9185 16.327 32.0751C16.8949 32.2316 17.3795 32.6031 17.8023 33.0133C19.2536 34.4219 20.2848 36.4021 21.1717 38.2032C21.8431 39.5669 22.3363 41.02 22.6198 42.514C22.8911 43.9439 22.6606 45.6434 23.235 46.9853C23.5566 47.7375 24.2739 48.3822 25.0914 48.3586C25.7279 48.3404 26.2913 47.9307 26.711 47.4517C28.2571 45.6864 28.5533 42.8737 28.6436 40.6231C28.757 37.7867 28.3533 34.9604 27.9137 32.1663C27.3153 28.3623 26.5463 24.5841 25.6875 20.8309C25.6544 20.6853 25.1871 18.3176 25.0928 18.3203C25.0928 18.3203 2.21786 18.955 2.00781 18.9609C2.12486 18.9586 2.3508 19.7748 2.55268 20.6064Z" fill="url(#paint1_linear_80_6903)"/>
<path d="M20.4504 0.334692C19.2645 0.267096 18.299 0.526149 17.2197 1.12816C16.9275 1.29103 16.6426 1.49699 16.6485 1.78598C16.6753 3.1379 25.6596 3.24904 25.7617 2.07995C25.8198 1.38494 22.9833 0.819665 22.3541 0.657707C21.6431 0.475787 21.0211 0.367356 20.4504 0.334692Z" fill="#D8D6D0"/>
<path d="M4.50806 1.38458C3.5549 1.47985 2.65709 1.84687 1.88358 2.65351C0.886871 3.69289 0.387838 5.13468 0.264441 6.56921C-4.8182e-05 9.64696 0.52666 13.3072 1.29563 16.2888C1.5397 17.2352 1.56421 19.2241 2.21386 19.9545C4.23541 22.227 8.67727 21.1214 11.3653 20.9349C14.4438 20.7212 17.7584 20.6192 20.5167 19.9545C22.3427 19.8629 25.6957 20.2671 26.2501 17.8522C26.8853 15.0843 27.2763 12.2538 27.407 9.41695C27.505 7.29736 27.8144 2.0601 24.7675 1.65133C24.3216 1.59145 23.5689 2.09412 23.1221 2.19575C22.1898 2.40716 21.2802 2.37858 20.3547 2.13269C19.2164 1.83054 18.1594 1.28613 17.0683 0.842888C16.831 0.746708 16.5842 0.653703 16.3284 0.660508C15.7454 0.676387 15.3172 1.18133 14.8508 1.53157C12.8878 3.00693 9.36911 2.24157 7.20194 1.67493C6.29188 1.43675 5.37683 1.29792 4.50806 1.38458Z" fill="url(#paint2_linear_80_6903)"/>
<path d="M4.71289 1.35917C4.71289 1.35917 4.62217 1.31381 3.66963 1.54064C3.55941 1.60143 3.47642 6.84403 3.97536 8.25902C4.47431 9.67402 4.70111 12.8098 4.74647 12.9209C4.79183 13.0321 5.83509 19.8026 5.69901 20.1079C5.78973 21.1899 6.37939 21.5229 6.37939 21.5229C6.37939 21.5229 4.83719 6.76056 4.88255 5.84506C4.9279 4.92955 4.71289 1.35917 4.71289 1.35917Z" fill="black"/>
<defs>
<linearGradient id="paint0_linear_80_6903" x1="11.565" y1="27.5855" x2="19.3265" y2="71.8772" gradientUnits="userSpaceOnUse">
<stop offset="0.1599" stop-color="#BFAB8D"/>
<stop offset="0.5078" stop-color="#E7E1D2"/>
<stop offset="0.7297" stop-color="#CCBFA6"/>
</linearGradient>
<linearGradient id="paint1_linear_80_6903" x1="4.59456" y1="34.0869" x2="27.1217" y2="34.1683" gradientUnits="userSpaceOnUse">
<stop stop-color="#BFAB8D"/>
<stop offset="0.5078" stop-color="#E7E1D2"/>
<stop offset="1" stop-color="#CCBFA6"/>
</linearGradient>
<linearGradient id="paint2_linear_80_6903" x1="-5.51084" y1="10.953" x2="33.3348" y2="11.0933" gradientUnits="userSpaceOnUse">
<stop stop-color="#94938C"/>
<stop offset="0.2296" stop-color="#EDEBE1"/>
<stop offset="0.7988" stop-color="#EDEBE1"/>
<stop offset="1" stop-color="#94938C"/>
</linearGradient>
</defs>
</svg>
