<svg width="27" height="49" viewBox="0 0 27 49" fill="none" xmlns="http://www.w3.org/2000/svg">
<path d="M15.8697 42.4324C16.0716 44.3895 14.8018 44.8346 13.9003 43.4709C12.1578 40.8347 11.4855 37.1605 10.9139 33.8066C10.6489 32.2537 9.33875 26.6928 10.6308 25.7687C11.9128 24.8519 15.8425 28.2611 15.5589 31.5356C15.4051 33.3121 15.181 35.0755 15.1647 36.8887C15.147 38.8594 15.6715 40.5153 15.8697 42.4324Z" fill="url(#paint0_linear_80_6919)"/>
<path d="M4.24219 20.1715C4.92767 22.13 5.48025 24.1742 5.79918 26.2248C6.01376 27.6048 5.98201 28.8315 5.77242 30.1975C5.41992 32.493 5.3945 34.8888 5.4934 37.2043C5.64764 40.816 7.38019 43.5361 8.76523 46.7848C9.27424 47.9784 10.4515 48.6049 11.5185 47.5066C12.8723 46.1138 12.507 43.1863 12.561 41.4198C12.6345 39.0018 12.6835 36.5669 13.1671 34.1875C13.3754 33.1631 13.668 32.1419 14.2029 31.2437C14.7346 30.3504 15.7172 29.9149 16.6585 30.5582C17.912 31.4147 18.1946 33.2911 18.6274 34.6266C19.0334 35.8792 19.4014 37.144 19.7566 38.412C20.2584 40.2031 20.7225 42.0045 21.2006 43.8015C21.3989 44.5455 22.0458 46.293 23.1395 45.5336C23.5088 45.2768 23.6912 44.8322 23.845 44.4099C24.35 43.0208 24.7533 41.5976 25.1557 40.1758C25.6951 38.2709 26.1913 36.3714 26.3075 34.3876C26.4658 31.6828 25.4002 29.0103 24.8794 26.3922C24.3259 23.6099 23.9807 20.7863 23.8477 17.9527C23.8391 17.7662 23.8246 17.5634 23.6985 17.4255C23.5284 17.2395 23.2367 17.2541 22.9867 17.2826C19.9149 17.6347 16.8368 17.9209 13.7682 18.3047C11.6918 18.5629 9.61265 18.836 7.55438 19.2152C6.6475 19.3822 4.94537 19.4684 4.24219 20.1715Z" fill="url(#paint1_linear_80_6919)"/>
<path d="M1.84152 15.9256C1.73899 14.6989 1.7671 13.4558 1.53346 12.2441C1.16871 10.3528 0.213752 8.70511 0.348944 6.70129C0.674676 1.87706 7.41659 1.50415 10.8064 2.84018C12.2159 3.39547 12.7944 2.87103 13.9793 2.12249C15.2632 1.31134 16.778 0.886719 18.2955 0.886719C20.0308 0.886719 21.9457 1.3803 23.4278 2.29216C25.6204 3.64135 25.6186 5.85476 25.7692 8.17795C25.9357 10.7475 25.8767 13.3946 25.027 15.8516C24.767 16.6038 24.4227 17.3428 23.881 17.9258C23.1112 18.7546 22.1303 18.8639 21.0901 19.1035C19.6701 19.4306 18.2343 19.7073 16.803 19.9781C13.9961 20.5094 11.163 20.9417 8.30714 21.0851C6.95295 21.1531 5.55069 21.0156 4.34802 20.3891C2.6064 19.4823 1.99622 17.777 1.84152 15.9256Z" fill="url(#paint2_linear_80_6919)"/>
<path d="M6.79005 2.19494C6.79005 2.19494 6.74469 2.14957 5.74666 2.2403C5.63642 2.29247 5.5566 6.83542 6.05562 8.04125C6.55463 9.24708 6.78146 11.9191 6.82682 12.0135C6.87219 12.1079 7.91558 17.8775 7.77949 18.1375C7.87022 19.0598 8.45996 19.3433 8.45996 19.3433C8.45996 19.3433 6.91755 6.7642 6.96292 5.98391C7.00828 5.20361 6.79005 2.19494 6.79005 2.19494Z" fill="black"/>
<defs>
<linearGradient id="paint0_linear_80_6919" x1="12.678" y1="25.502" x2="10.5685" y2="64.3064" gradientUnits="userSpaceOnUse">
<stop offset="0.1599" stop-color="#BFAB8D"/>
<stop offset="0.5078" stop-color="#E7E1D2"/>
<stop offset="0.7297" stop-color="#CCBFA6"/>
</linearGradient>
<linearGradient id="paint1_linear_80_6919" x1="6.76905" y1="34.0627" x2="24.2631" y2="30.6585" gradientUnits="userSpaceOnUse">
<stop stop-color="#BFAB8D"/>
<stop offset="0.5078" stop-color="#E7E1D2"/>
<stop offset="1" stop-color="#CCBFA6"/>
</linearGradient>
<linearGradient id="paint2_linear_80_6919" x1="-3.73648" y1="14.0096" x2="29.5618" y2="7.53004" gradientUnits="userSpaceOnUse">
<stop stop-color="#94938C"/>
<stop offset="0.2114" stop-color="#EDEBE1"/>
<stop offset="0.847" stop-color="#EDEBE1"/>
<stop offset="1" stop-color="#94938C"/>
</linearGradient>
</defs>
</svg>
