<svg width="25" height="40" viewBox="0 0 25 40" fill="none" xmlns="http://www.w3.org/2000/svg">
<path d="M15.5295 36.6452C15.8244 38.4985 14.6384 38.9893 13.7084 37.7377C11.9105 35.3183 11.0776 31.8541 10.3572 28.6898C10.0237 27.2244 8.48394 21.9968 9.66621 21.0486C10.8394 20.1082 14.761 23.1491 14.6621 26.2831C14.6085 27.983 14.4879 29.6742 14.5672 31.4022C14.6539 33.28 15.2405 34.8297 15.5295 36.6452Z" fill="url(#paint0_linear_80_6937)"/>
<path d="M3.05469 13.3357C3.05469 13.3357 4.36216 16.931 4.36216 20.8529C4.36216 24.7748 4.0355 29.6776 6.32333 33.2729C8.61116 36.8682 9.26488 38.5023 9.26488 38.5023C9.26488 38.5023 11.2261 40.7901 12.2065 38.1757C12.2065 38.1757 9.91863 30.3313 11.2261 26.4094C12.5336 22.4875 13.841 23.7945 14.1676 24.4482C14.4947 25.1019 19.0704 32.6192 19.7241 34.5804C20.3779 36.5416 21.3582 38.5023 22.012 38.5023C22.6657 38.5023 23.646 36.8682 24.2998 33.9266C24.9535 30.9851 24.2998 27.7169 22.9923 25.4286C21.6849 23.1407 20.3779 13.0086 20.3779 11.3745C20.3779 9.74036 4.68879 12.6819 3.05469 13.3357Z" fill="url(#paint1_linear_80_6937)"/>
<path d="M10.6076 3.0669C10.2973 2.99341 9.97612 2.79062 9.60321 2.54519C8.59063 1.87785 7.53903 1.2341 6.37085 0.909735C5.20221 0.585367 3.88748 0.613504 2.84768 1.23729C2.11637 1.67598 1.57471 2.37099 1.12876 3.09776C0.431022 4.23509 -0.0838958 5.55661 0.0762478 6.8813C0.258621 8.392 0.857924 9.87956 1.47264 11.2596C1.84555 12.0966 2.15631 13.0516 2.82818 13.7067C3.61212 14.4706 4.93004 14.5781 5.96303 14.7229C8.18508 15.0336 10.4162 14.7551 12.5856 14.2402C14.7423 13.728 16.9712 13.16 19.068 12.4459C19.445 12.3175 19.8216 12.1692 20.1373 11.9269C21.0224 11.2469 21.2043 9.70126 21.4171 8.68143C21.7401 7.13127 21.5428 5.52848 20.9085 4.08357C20.0919 2.2231 18.5304 0.58084 16.4572 0.261915C14.9732 0.0337229 13.6558 0.338121 12.6573 1.48816C12.3266 1.86923 12.0635 2.31201 11.706 2.66995C11.3122 3.06463 10.967 3.15219 10.6076 3.0669Z" fill="url(#paint2_linear_80_6937)"/>
<path d="M4.62637 0.75426C4.62637 0.75426 4.5937 0.721595 3.87949 0.786923C3.80053 0.824123 3.74337 4.07596 4.10047 4.93928C4.45758 5.8026 4.62002 7.71477 4.65269 7.78282C4.68536 7.85042 5.43226 11.9801 5.3347 12.1661C5.39959 12.8262 5.82205 13.0294 5.82205 13.0294C5.82205 13.0294 4.7176 4.02561 4.75027 3.46715C4.78294 2.9087 4.62637 0.75426 4.62637 0.75426Z" fill="black"/>
<defs>
<linearGradient id="paint0_linear_80_6937" x1="11.5979" y1="20.6826" x2="11.6221" y2="57.7519" gradientUnits="userSpaceOnUse">
<stop offset="0.1599" stop-color="#BFAB8D"/>
<stop offset="0.5078" stop-color="#E7E1D2"/>
<stop offset="0.7297" stop-color="#CCBFA6"/>
</linearGradient>
<linearGradient id="paint1_linear_80_6937" x1="4.94904" y1="25.1225" x2="21.7071" y2="25.1831" gradientUnits="userSpaceOnUse">
<stop stop-color="#BFAB8D"/>
<stop offset="0.5078" stop-color="#E7E1D2"/>
<stop offset="1" stop-color="#CCBFA6"/>
</linearGradient>
<linearGradient id="paint2_linear_80_6937" x1="-6.30405" y1="7.45784" x2="27.7356" y2="7.58081" gradientUnits="userSpaceOnUse">
<stop stop-color="#94938C"/>
<stop offset="0.2614" stop-color="#EDEBE1"/>
<stop offset="0.7687" stop-color="#EDEBE1"/>
<stop offset="1" stop-color="#94938C"/>
</linearGradient>
</defs>
</svg>
