<svg width="19" height="55" viewBox="0 0 19 55" fill="none" xmlns="http://www.w3.org/2000/svg">
<path d="M9.2068 54.2022C9.2068 54.2022 3.90803 55.2978 2.03033 52.5454C0.152166 49.7925 8.57485 52.5418 9.2068 54.2022Z" fill="#D8D6D0"/>
<path d="M9.98438 54.4375C9.98438 54.4375 15.6275 54.819 17.0316 51.1595C18.4362 47.5001 10.3174 52.3192 9.98438 54.4375Z" fill="#D8D6D0"/>
<path d="M12.2372 33.906C12.3202 33.9468 12.3992 33.9931 12.4736 34.0453C13.9112 35.0497 15.123 36.677 16.0371 38.1491C17.4262 40.3857 18.418 42.9439 18.1507 45.6133C17.9684 47.4379 17.7638 49.5361 16.8519 51.1748C16.3193 52.132 15.1221 52.5707 14.1471 52.9101C13.3119 53.2009 12.469 53.474 11.6501 53.8092C10.8939 54.1186 10.1517 54.6462 9.29971 54.5782C8.32024 54.4997 7.6361 53.7321 6.85262 53.234C5.62318 52.4528 4.15149 52.0522 2.69522 52.1225C2.43936 52.1347 2.17713 52.1606 1.9317 52.0857C1.57376 51.9769 1.31199 51.6729 1.10103 51.3644C0.140166 49.9608 0.16558 48.6007 0.157414 46.9684C0.148794 45.3098 0.181004 43.6412 0.49721 42.008C1.06021 39.0978 2.98284 36.6901 3.99361 33.9432C4.05168 33.7849 4.10976 33.6229 4.21637 33.4923C4.39874 33.2686 4.69725 33.172 4.98488 33.1488C5.52383 33.1053 6.06688 33.1888 6.60084 33.2459C7.61343 33.3548 8.60196 33.4678 9.61999 33.5376C10.4275 33.5934 11.4859 33.5345 12.2372 33.906Z" fill="url(#paint0_linear_80_6802)"/>
<path d="M14.379 35.8197C14.3427 35.8492 14.2992 35.8723 14.2461 35.8868C13.9793 35.9617 13.1573 35.5593 12.8665 35.4831C11.9024 35.2308 10.9275 35.0199 9.94663 34.8443C8.90726 34.6583 7.85747 34.4818 6.79905 34.4732C6.23876 34.4687 5.6753 34.5077 5.12681 34.6266C4.63956 34.7323 4.11466 35.0662 3.65328 35.1079C3.31711 33.7973 3.65827 32.2729 3.7363 30.9419C3.82296 29.462 3.95906 27.9853 4.1437 26.5146C4.49031 23.7545 5.17899 21.0973 5.68121 18.3722C6.17026 15.7214 6.30637 12.9191 6.24784 10.2198C6.22017 8.95047 6.1435 7.67884 5.99787 6.41765C5.87402 5.34111 5.5637 4.37753 5.67394 3.26197C5.786 2.1278 6.31815 0.410223 7.81573 0.874776C8.9431 1.22455 9.64494 2.46442 10.2138 3.40714C11.2977 5.20229 12.0866 7.15804 12.8134 9.12468C13.5393 11.0886 14.2084 13.0865 14.5872 15.1498C14.918 16.9495 14.8776 18.7111 14.8463 20.528C14.7973 23.4124 14.7283 26.2964 14.6571 29.1803C14.6113 31.0408 14.7175 32.9825 14.5709 34.8697C14.5446 35.2227 14.5963 35.6419 14.379 35.8197Z" fill="url(#paint1_linear_80_6802)"/>
<path d="M13.7966 53.0307C13.7966 53.0307 13.6219 53.0928 12.7599 53.365C12.6406 53.3383 11.5228 48.6623 11.7333 47.3517C11.9438 46.041 11.5541 43.3345 11.5768 43.2301C11.5994 43.1258 11.2968 37.1573 11.1049 36.9291C10.9824 35.9923 11.4924 35.5781 11.4924 35.5781C11.4924 35.5781 12.8657 48.4273 13.088 49.1927C13.3107 49.9589 13.7966 53.0307 13.7966 53.0307Z" fill="black"/>
<defs>
<linearGradient id="paint0_linear_80_6802" x1="-5.79234" y1="44.2658" x2="24.4439" y2="43.3344" gradientUnits="userSpaceOnUse">
<stop stop-color="#94938C"/>
<stop offset="0.2666" stop-color="#EDEBE1"/>
<stop offset="0.7117" stop-color="#EDEBE1"/>
<stop offset="1" stop-color="#94938C"/>
</linearGradient>
<linearGradient id="paint1_linear_80_6802" x1="0.743798" y1="19.3951" x2="15.1035" y2="17.8871" gradientUnits="userSpaceOnUse">
<stop stop-color="#BFAB8D"/>
<stop offset="0.5078" stop-color="#E7E1D2"/>
<stop offset="1" stop-color="#CCBFA6"/>
</linearGradient>
</defs>
</svg>
