<svg width="19" height="58" viewBox="0 0 19 58" fill="none" xmlns="http://www.w3.org/2000/svg">
<path d="M9.34274 56.2169C9.34274 56.2169 3.9969 57.0522 2.25579 54.2108C0.514668 51.3694 8.79292 54.5275 9.34274 56.2169Z" fill="#D8D6D0"/>
<path d="M3.97656 38.294C3.97656 38.294 4.30321 27.1814 5.28404 24.2398C6.26441 21.2982 7.24524 11.4932 6.91815 8.87822C6.59151 6.26329 6.59151 2.34133 6.59151 2.34133C6.59151 2.34133 6.26486 -0.600236 9.20645 1.6876C12.148 3.97545 15.7434 15.088 15.4163 19.6637C15.0892 24.2394 14.9862 38.0281 15.0379 37.9977C15.0892 37.9669 3.97656 38.294 3.97656 38.294Z" fill="url(#paint0_linear_80_6789)"/>
<path d="M14.7649 36.9848C14.7649 36.9848 22.2821 48.0973 16.7261 53.9804C16.0474 54.699 14.9799 55.2044 14.1529 55.7302C13.2991 56.2732 12.3881 57.0272 11.3474 57.1447C10.1539 57.2799 9.28009 56.031 8.10692 55.7874C6.24191 55.3999 4.41683 55.7066 2.82402 54.4345C1.50885 53.3843 0.711309 51.747 0.440473 50.1075C0.102947 48.0619 0.452267 45.9832 0.859657 43.9749C1.03341 43.1188 1.3292 42.3045 1.67534 41.5024C2.04417 40.6477 2.70925 39.8134 2.99868 38.9451C2.99868 38.946 5.61359 31.1017 14.7649 36.9848Z" fill="url(#paint1_linear_80_6789)"/>
<path d="M11.8104 56.8756C11.8104 56.8756 11.7319 56.9401 10.7529 56.9328C10.6318 56.8979 9.37608 51.8077 9.54484 50.3165C9.71359 48.8253 9.23182 45.719 9.25133 45.6006C9.27083 45.4822 8.76955 38.6499 8.56858 38.3832C8.41434 37.308 8.91472 36.8516 8.91472 36.8516C8.91472 36.8516 10.7207 51.584 10.9702 52.466C11.2197 53.3479 11.8104 56.8756 11.8104 56.8756Z" fill="black"/>
<defs>
<linearGradient id="paint0_linear_80_6789" x1="4.87656" y1="19.6026" x2="17.7692" y2="19.2055" gradientUnits="userSpaceOnUse">
<stop stop-color="#BFAB8D"/>
<stop offset="0.5078" stop-color="#E7E1D2"/>
<stop offset="1" stop-color="#CCBFA6"/>
</linearGradient>
<linearGradient id="paint1_linear_80_6789" x1="-3.27144" y1="46.381" x2="23.4546" y2="45.5577" gradientUnits="userSpaceOnUse">
<stop stop-color="#94938C"/>
<stop offset="0.0311" stop-color="#A6A59D"/>
<stop offset="0.0939" stop-color="#C5C3BB"/>
<stop offset="0.1552" stop-color="#DBD9D0"/>
<stop offset="0.2138" stop-color="#E8E7DD"/>
<stop offset="0.2666" stop-color="#EDEBE1"/>
<stop offset="0.7117" stop-color="#EDEBE1"/>
<stop offset="0.7637" stop-color="#E7E5DB"/>
<stop offset="0.835" stop-color="#D5D3CA"/>
<stop offset="0.9175" stop-color="#B8B7AF"/>
<stop offset="1" stop-color="#94938C"/>
</linearGradient>
</defs>
</svg>
