<svg width="20" height="70" viewBox="0 0 20 70" fill="none" xmlns="http://www.w3.org/2000/svg">
<path d="M16.0233 45.477C16.0233 45.477 3.94148 42.4488 2.9375 44.1754L7.81679 9.62273C7.81679 9.62273 7.66526 0.742188 8.97275 0.742188C10.2802 0.742188 11.5877 4.66414 11.5877 4.66414C11.5877 4.66414 15.732 37.2071 16.0233 45.477Z" fill="url(#paint0_linear_80_6697)"/>
<path d="M13.7031 41.9802C13.7035 41.9811 20.8937 51.4592 19.5862 59.3031C19.1643 61.8341 18.3005 64.4794 16.7748 66.5667C16.0308 67.5848 15.0641 68.5062 13.8451 68.9099C12.2327 69.4439 10.1636 69.0247 8.54714 68.664C7.75141 68.4867 6.96972 68.2421 6.22843 67.901C1.04573 65.5174 -0.323432 59.372 0.0934878 54.1639C0.386557 50.5055 1.49715 46.9565 2.94072 43.6039C3.87708 41.429 6.05831 40.8592 8.23546 40.5512C9.87411 40.3193 12.5889 40.5112 13.7031 41.9802Z" fill="url(#paint1_linear_80_6697)"/>
<path d="M13.7109 42.0622C13.7113 42.0631 20.9015 51.5412 19.594 59.3851C19.1721 61.9161 18.3083 64.5614 16.7827 66.6488C16.0386 67.6668 15.0719 68.5882 13.8529 68.992C12.2405 69.5259 10.1714 69.1068 8.55495 68.7461C7.75922 68.5687 6.97753 68.3242 6.23624 67.983C1.05355 65.5994 -0.31562 59.454 0.1013 54.2459C0.394369 50.5875 1.50496 47.0385 2.94853 43.6859C3.8849 41.511 6.06613 40.9412 8.24328 40.6331C9.88192 40.4013 12.5967 40.5937 13.7109 42.0622Z" fill="url(#paint2_linear_80_6697)"/>
<path d="M13.8026 69.0163C13.8026 69.0163 13.7246 69.0807 12.7451 69.0734C12.624 69.0385 11.3683 63.9483 11.537 62.4571C11.7058 60.9659 11.224 57.8596 11.2435 57.7412C11.2631 57.6228 10.7618 50.7905 10.5608 50.5238C10.4066 49.4486 10.9065 48.9922 10.9065 48.9922C10.9065 48.9922 12.7125 63.7246 12.962 64.6066C13.2119 65.4885 13.8026 69.0163 13.8026 69.0163Z" fill="black"/>
<defs>
<linearGradient id="paint0_linear_80_6697" x1="4.59821" y1="23.353" x2="14.203" y2="23.0572" gradientUnits="userSpaceOnUse">
<stop stop-color="#BFAB8D"/>
<stop offset="0.5078" stop-color="#E7E1D2"/>
<stop offset="1" stop-color="#CCBFA6"/>
</linearGradient>
<linearGradient id="paint1_linear_80_6697" x1="-5.48517" y1="54.5255" x2="26.3194" y2="55.094" gradientUnits="userSpaceOnUse">
<stop stop-color="#94938C"/>
<stop offset="0.2666" stop-color="#EDEBE1"/>
<stop offset="0.7117" stop-color="#EDEBE1"/>
<stop offset="1" stop-color="#94938C"/>
</linearGradient>
<linearGradient id="paint2_linear_80_6697" x1="-6.24834" y1="54.594" x2="26.7043" y2="55.1829" gradientUnits="userSpaceOnUse">
<stop stop-color="#94938C"/>
<stop offset="0.0617" stop-color="#A4A29B"/>
<stop offset="0.1809" stop-color="#CCCAC2"/>
<stop offset="0.2666" stop-color="#EDEBE1"/>
<stop offset="0.7117" stop-color="#EDEBE1"/>
<stop offset="0.7719" stop-color="#E0DED5"/>
<stop offset="0.883" stop-color="#BEBDB4"/>
<stop offset="1" stop-color="#94938C"/>
</linearGradient>
</defs>
</svg>
