<svg width="20" height="61" viewBox="0 0 20 61" fill="none" xmlns="http://www.w3.org/2000/svg">
<path d="M13.3249 34.7642C13.3249 34.7642 16.5931 36.0717 17.574 43.5889C17.574 43.5889 18.5544 51.4333 18.8815 53.7211C19.2081 56.0089 19.2081 58.9505 15.6132 59.9309C12.0179 60.9112 8.74966 60.2575 6.78845 59.6042C4.82723 58.951 1.88564 56.9893 1.23191 54.7015C0.578168 52.4136 1.2319 41.3011 2.21228 39.3399C3.19266 37.3787 5.48052 32.1493 13.3249 34.7642Z" fill="url(#paint0_linear_80_6769)"/>
<path d="M10.0586 3.71357C10.0586 3.71357 17.233 19.3987 14.2996 35.9059C14.2996 35.9059 3.89728 34.6728 3.38281 37.4965C4.84183 30.6293 5.54277 23.4023 5.25559 16.3923C5.139 13.5482 4.93847 10.7082 4.85863 7.86282C4.80691 6.01004 4.4848 3.89322 5.28009 2.16746C5.614 1.44205 6.16612 0.375931 7.0721 0.291094C8.60961 0.147281 9.59771 2.65335 10.0586 3.71357Z" fill="url(#paint1_linear_80_6769)"/>
<path d="M14.5921 60.2308C14.5921 60.2308 14.5141 60.2953 13.5345 60.288C13.4133 60.2531 12.1575 55.163 12.3263 53.6718C12.495 52.1806 12.0132 49.0743 12.0327 48.9559C12.0522 48.8375 11.5509 42.0054 11.3499 41.7386C11.1956 40.6634 11.6956 40.207 11.6956 40.207C11.6956 40.207 13.5018 54.9393 13.7514 55.8212C14.0009 56.7032 14.5921 60.2308 14.5921 60.2308Z" fill="black"/>
<defs>
<linearGradient id="paint0_linear_80_6769" x1="23.4904" y1="47.8884" x2="-2.52023" y2="46.5852" gradientUnits="userSpaceOnUse">
<stop stop-color="#94938C"/>
<stop offset="0.1599" stop-color="#D1CFC6"/>
<stop offset="0.2296" stop-color="#EDEBE1"/>
<stop offset="0.7988" stop-color="#EDEBE1"/>
<stop offset="0.9762" stop-color="#9F9E96"/>
<stop offset="1" stop-color="#94938C"/>
</linearGradient>
<linearGradient id="paint1_linear_80_6769" x1="6.01199" y1="18.9035" x2="14.993" y2="19.064" gradientUnits="userSpaceOnUse">
<stop stop-color="#BFAB8D"/>
<stop offset="0.5078" stop-color="#E7E1D2"/>
<stop offset="1" stop-color="#CCBFA6"/>
</linearGradient>
</defs>
</svg>
