<svg width="26" height="75" viewBox="0 0 26 75" fill="none" xmlns="http://www.w3.org/2000/svg">
<path d="M13.0244 0.911071C14.5773 2.43676 15.3512 5.69002 16.1329 7.67618C18.5228 13.7481 20.3393 20.0541 21.3918 26.4975C21.9158 29.7045 22.2506 32.9432 22.3781 36.1906C22.4425 37.8238 22.4547 39.4588 22.4135 41.0929C22.3799 42.4304 22.6004 44.3752 22.0446 45.5883C21.3605 44.8153 20.8733 43.8857 20.1492 43.1422C18.379 41.3239 16.0903 40.0236 13.5057 40.0223C12.4147 40.0218 11.3426 40.2432 10.3233 40.6157C9.90951 40.7668 9.50484 40.9423 9.11061 41.1383C7.96056 41.7099 6.57642 43.4352 5.35288 43.5282C5.17414 41.136 5.77888 38.4512 6.00662 36.0522C6.00662 29.9622 7.20974 23.5305 8.12116 17.5217C8.39517 15.7143 8.80756 13.9309 8.76945 12.0981C8.72998 10.2058 8.51765 8.31585 8.64604 6.42224C8.76127 4.72688 8.97361 0.632519 11.3086 0.372567C11.7677 0.321302 12.2196 0.491425 12.6501 0.658829C12.788 0.712815 12.9119 0.800376 13.0244 0.911071Z" fill="url(#paint0_linear_80_6754)"/>
<path d="M25.3074 69.5558C25.3074 69.5558 27.5953 42.7551 15.5023 38.8327C15.5023 38.8327 1.77476 36.5448 0.467738 60.404C0.467738 60.404 -1.16638 71.5165 5.04343 72.824C6.39082 73.1098 7.71826 73.3548 9.00895 73.5544C10.8477 73.8389 12.7041 74.0344 14.5614 74.1451C16.7345 74.2744 18.9937 74.2 21.1151 73.6669C22.4852 73.3226 23.9718 72.716 24.7676 71.478C25.1359 70.905 25.3074 70.2345 25.3074 69.5558Z" fill="url(#paint1_linear_80_6754)"/>
<path d="M17.663 74.1524C17.663 74.1524 18.5767 74.1706 18.6869 74.0708C18.7971 73.971 18.8879 65.2606 18.3888 62.9469C17.8898 60.6332 17.663 55.5068 17.6176 55.3253C17.5722 55.1439 16.5288 44.0744 16.6649 43.5754C16.5741 41.8061 15.9844 41.2617 15.9844 41.2617C15.9844 41.2617 17.5269 65.3967 17.4815 66.8938C17.4361 68.3909 17.663 74.1524 17.663 74.1524Z" fill="black"/>
<defs>
<linearGradient id="paint0_linear_80_6754" x1="18.7109" y1="22.9412" x2="5.22987" y2="23.1822" gradientUnits="userSpaceOnUse">
<stop stop-color="#BFAB8D"/>
<stop offset="0.5078" stop-color="#E7E1D2"/>
<stop offset="1" stop-color="#CCBFA6"/>
</linearGradient>
<linearGradient id="paint1_linear_80_6754" x1="30.3825" y1="56.4795" x2="-4.63731" y2="56.4973" gradientUnits="userSpaceOnUse">
<stop stop-color="#94938C"/>
<stop offset="0.2296" stop-color="#EDEBE1"/>
<stop offset="0.7876" stop-color="#EDEBE1"/>
<stop offset="1" stop-color="#94938C"/>
</linearGradient>
</defs>
</svg>
