<svg width="27" height="75" viewBox="0 0 27 75" fill="none" xmlns="http://www.w3.org/2000/svg">
<path d="M13.3661 0.911071C11.8132 2.43676 11.0392 5.69002 10.2576 7.67618C7.86769 13.7481 6.05123 20.0541 4.99873 26.4975C4.47475 29.7045 4.13995 32.9432 4.01248 36.1906C3.94806 37.8238 3.93579 39.4588 3.97708 41.0929C4.01065 42.4304 3.79019 44.3752 4.34592 45.5883C5.03005 44.8153 5.51727 43.8857 6.24132 43.1422C8.01151 41.3239 10.3002 40.0236 12.8848 40.0223C13.9758 40.0218 15.0478 40.2432 16.0672 40.6157C16.4809 40.7668 16.8856 40.9423 17.2798 41.1383C18.4299 41.7099 19.814 43.4352 21.0375 43.5282C21.2163 41.136 20.6116 38.4512 20.3838 36.0522C20.3838 29.9622 19.1807 23.5305 18.2693 17.5217C17.9953 15.7143 17.5829 13.9309 17.621 12.0981C17.6605 10.2058 17.8728 8.31585 17.7444 6.42224C17.6292 4.72688 17.4169 0.632519 15.0819 0.372567C14.6227 0.321302 14.1709 0.491425 13.7404 0.658829C13.6024 0.712815 13.4786 0.800376 13.3661 0.911071Z" fill="url(#paint0_linear_80_6759)"/>
<path d="M1.07865 69.5558C1.07865 69.5558 -1.20917 42.7551 10.8837 38.8327C10.8837 38.8327 24.6112 36.5448 25.9182 60.404C25.9182 60.404 27.5523 71.5165 21.3426 72.824C19.9952 73.1098 18.6677 73.3548 17.3771 73.5544C15.5383 73.8389 13.6819 74.0344 11.8246 74.1451C9.65157 74.2744 7.39232 74.2 5.27098 73.6669C3.90091 73.3226 2.41426 72.716 1.61853 71.478C1.2506 70.905 1.07865 70.2345 1.07865 69.5558Z" fill="url(#paint1_linear_80_6759)"/>
<path d="M8.71983 74.1524C8.71983 74.1524 7.80609 74.1706 7.69585 74.0708C7.5856 73.971 7.49485 65.2606 7.99392 62.9469C8.49298 60.6332 8.71983 55.5068 8.7652 55.3253C8.81057 55.1439 9.85406 44.0744 9.71796 43.5754C9.8087 41.8061 10.3985 41.2617 10.3985 41.2617C10.3985 41.2617 8.85594 65.3967 8.90131 66.8938C8.94668 68.3909 8.71983 74.1524 8.71983 74.1524Z" fill="black"/>
<defs>
<linearGradient id="paint0_linear_80_6759" x1="7.67958" y1="22.9412" x2="21.1605" y2="23.1821" gradientUnits="userSpaceOnUse">
<stop stop-color="#BFAB8D"/>
<stop offset="0.5078" stop-color="#E7E1D2"/>
<stop offset="1" stop-color="#CCBFA6"/>
</linearGradient>
<linearGradient id="paint1_linear_80_6759" x1="-3.99591" y1="56.4795" x2="31.0237" y2="56.4974" gradientUnits="userSpaceOnUse">
<stop stop-color="#94938C"/>
<stop offset="0.2296" stop-color="#EDEBE1"/>
<stop offset="0.7876" stop-color="#EDEBE1"/>
<stop offset="1" stop-color="#94938C"/>
</linearGradient>
</defs>
</svg>
