<svg width="25" height="43" viewBox="0 0 25 43" fill="none" xmlns="http://www.w3.org/2000/svg">
<path d="M6.23329 2.96298C5.69978 1.22724 7.31665 0.41063 8.69352 1.3765C11.3552 3.24335 12.7443 6.40816 13.957 9.31074C14.5186 10.655 17.0079 15.3509 15.4264 16.6153C13.8572 17.8697 8.20039 15.9924 8.12916 12.8888C8.0906 11.2048 8.14595 9.51081 7.92048 7.83722C7.6755 6.01845 6.75637 4.66334 6.23329 2.96298Z" fill="url(#paint0_linear_75_3123)"/>
<path d="M22.0231 26.8862C22.9853 20.5784 22.9699 12.9677 20.1663 7.12991C19.5148 5.77299 18.6279 4.53175 17.5713 3.46019C17.1566 3.03964 14.6864 0.514532 14.1674 1.13606C13.638 1.76983 14.1166 3.18617 14.2105 3.89072C14.3675 5.0698 14.5163 6.24979 14.6392 7.43295C14.8883 9.8333 15.5085 12.4342 14.8597 14.8227C14.7168 15.3485 14.3866 15.8684 13.8685 16.0367C13.5949 16.1257 13.2968 16.1075 13.016 16.0467C11.2386 15.6616 9.95242 13.8696 8.85954 12.5548C7.29666 10.6753 6.39977 8.56394 5.61901 6.26612C5.23974 5.1501 4.80603 4.06583 3.85288 3.32227C3.62333 3.14307 1.37451 0.383878 1.02065 0.468713C-0.144367 0.747265 0.258035 3.89026 0.300226 4.60479C0.626865 10.1613 4.70079 20.0222 4.70079 20.0222C4.70079 20.0222 5.68116 26.232 4.70079 28.1932C3.72041 30.1548 20.7161 30.1549 22.0231 26.8862Z" fill="url(#paint1_linear_75_3123)"/>
<path d="M23.0042 27.8673C23.0037 27.8669 20.3892 24.9258 14.5061 24.9258C8.62298 24.9258 4.37395 26.887 3.39358 29.5014C2.4132 32.1159 2.08611 39.3064 5.68141 40.6139C6.81875 41.0276 8.06905 41.1302 9.09434 40.397C9.97127 39.7701 10.3179 38.6178 11.6367 39.0451C12.2115 39.2311 12.6855 39.6344 13.1728 39.9919C15.315 41.5634 18.9557 43.1934 21.3955 41.3384C24.7308 38.8024 25.9085 31.1351 23.0042 27.8673Z" fill="url(#paint2_linear_75_3123)"/>
<path d="M22.9887 27.8674C22.9883 27.8669 20.3738 24.9258 14.4906 24.9258C8.6074 24.9258 4.35834 26.887 3.37796 29.5015C2.39758 32.116 2.07048 39.3066 5.66581 40.6141C6.80316 41.0279 8.05348 41.1304 9.07877 40.3973C9.95571 39.7703 10.3023 38.618 11.6211 39.0453C12.1959 39.2313 12.67 39.6346 13.1573 39.9921C15.2995 41.5636 18.9402 43.1937 21.38 41.3386C24.7154 38.8026 25.8936 31.1352 22.9887 27.8674Z" fill="url(#paint3_linear_75_3123)"/>
<path d="M24.2066 36.3916C24.6602 34.6222 25.0232 32.49 24.4334 31.2197C24.3867 31.0818 24.1158 28.044 21.48 30.448L20.3214 31.4102L20.051 32.2069L19.3124 32.5712L19.2866 33.2222L19.9072 34.7125L19.6386 34.7202L18.9817 34.8699L18.7199 35.5137L18.9554 35.9161L18.6006 36.4428L17.9283 36.7622L17.0278 37.3629L17.6688 37.8714L17.7259 38.5991L16.5469 40.025L17.7214 40.2709L18.0181 41.0304L18.8687 42.1609C18.8687 42.1609 20.3277 42.2598 21.3485 41.3375C22.3556 40.7772 23.3446 38.9775 24.2066 36.3916Z" fill="black"/>
<defs>
<linearGradient id="paint0_linear_75_3123" x1="12.7714" y1="17.5087" x2="5.56063" y2="-17.9111" gradientUnits="userSpaceOnUse">
<stop offset="0.1599" stop-color="#BFAB8D"/>
<stop offset="0.5078" stop-color="#E7E1D2"/>
<stop offset="0.7297" stop-color="#CCBFA6"/>
</linearGradient>
<linearGradient id="paint1_linear_75_3123" x1="27.9699" y1="14.9203" x2="0.87704" y2="15.0182" gradientUnits="userSpaceOnUse">
<stop offset="0.1599" stop-color="#BFAB8D"/>
<stop offset="0.5078" stop-color="#E7E1D2"/>
<stop offset="0.7297" stop-color="#CCBFA6"/>
</linearGradient>
<linearGradient id="paint2_linear_75_3123" x1="29.6238" y1="33.4986" x2="-2.55348" y2="33.6148" gradientUnits="userSpaceOnUse">
<stop stop-color="#94938C"/>
<stop offset="0.2296" stop-color="#EDEBE1"/>
<stop offset="0.7988" stop-color="#EDEBE1"/>
<stop offset="1" stop-color="#94938C"/>
</linearGradient>
<linearGradient id="paint3_linear_75_3123" x1="29.85" y1="33.4977" x2="-2.7096" y2="33.6154" gradientUnits="userSpaceOnUse">
<stop stop-color="#94938C"/>
<stop offset="0.2296" stop-color="#EDEBE1"/>
<stop offset="0.7988" stop-color="#EDEBE1"/>
<stop offset="1" stop-color="#94938C"/>
</linearGradient>
</defs>
</svg>
