<svg width="19" height="61" viewBox="0 0 19 61" fill="none" xmlns="http://www.w3.org/2000/svg">
<path d="M6.61593 34.7855C6.61593 34.7855 3.34779 36.093 2.36699 43.6102C2.36699 43.6102 1.38665 51.4546 1.05957 53.7425C0.732934 56.0303 0.732936 58.9719 4.3277 59.9523C7.92292 60.9326 11.191 60.2789 13.1522 59.6256C15.1134 58.9723 18.0549 57.0107 18.7086 54.7228C19.3623 52.435 18.7086 41.3224 17.7282 39.3612C16.7479 37.4004 14.4596 32.171 6.61593 34.7855Z" fill="url(#paint0_linear_75_3176)"/>
<path d="M9.88306 3.73503C9.88306 3.73503 2.70867 19.4201 5.64212 35.9272C5.64212 35.9272 16.0444 34.6941 16.5589 37.5177C15.0999 30.6506 14.3989 23.4237 14.6861 16.4136C14.8027 13.5696 15.0032 10.7297 15.0831 7.88426C15.1348 6.03149 15.4569 3.91468 14.6616 2.18894C14.3277 1.46352 13.7756 0.397414 12.8696 0.312579C11.3321 0.168767 10.344 2.67481 9.88306 3.73503Z" fill="url(#paint1_linear_75_3176)"/>
<path d="M0.970125 55.8613C0.669799 54.3814 1.66377 48.9546 1.87881 48.3194C1.93551 48.152 2.8315 46.7107 2.82198 46.7012L3.66126 47.4611L3.99016 48.4297L4.88841 48.8725L4.91973 49.6646L4.16483 51.4775L4.49145 51.4865L5.29037 51.6685L5.60838 52.4515L5.32212 52.941L5.75356 53.5816L6.57107 53.9704L7.66666 54.7008L6.88682 55.3196L6.81695 56.2043L8.25098 57.9387L6.8224 58.2377L6.46128 59.1609L5.06671 60.1667C5.06671 60.1667 3.20214 59.9507 2.10291 58.8102C1.25819 57.9319 1.08898 56.4452 0.970125 55.8613Z" fill="black"/>
<defs>
<linearGradient id="paint0_linear_75_3176" x1="-3.54926" y1="47.9099" x2="22.4605" y2="46.6068" gradientUnits="userSpaceOnUse">
<stop stop-color="#94938C"/>
<stop offset="0.1599" stop-color="#D1CFC6"/>
<stop offset="0.2296" stop-color="#EDEBE1"/>
<stop offset="0.7988" stop-color="#EDEBE1"/>
<stop offset="0.9762" stop-color="#9F9E96"/>
<stop offset="1" stop-color="#94938C"/>
</linearGradient>
<linearGradient id="paint1_linear_75_3176" x1="13.9297" y1="18.925" x2="4.94862" y2="19.0856" gradientUnits="userSpaceOnUse">
<stop stop-color="#BFAB8D"/>
<stop offset="0.5078" stop-color="#E7E1D2"/>
<stop offset="1" stop-color="#CCBFA6"/>
</linearGradient>
</defs>
</svg>
