<svg width="20" height="70" viewBox="0 0 20 70" fill="none" xmlns="http://www.w3.org/2000/svg">
<path d="M3.95312 45.5292C3.95312 45.5292 16.0347 42.501 17.0387 44.2281L12.1595 9.67545C12.1595 9.67545 8.73976 0.794922 7.4323 0.794922C6.12483 0.794922 4.81735 4.71687 4.81735 4.71687C4.81735 4.71687 4.24438 37.2598 3.95312 45.5292Z" fill="url(#paint0_linear_75_3186)"/>
<path d="M6.27645 42.0329C6.276 42.0338 -0.914183 51.5118 0.393286 59.3557C0.815197 61.8868 1.67899 64.5321 3.20467 66.6194C3.94869 67.6374 4.91543 68.5589 6.13444 68.9626C7.74677 69.4966 9.81596 69.0774 11.4324 68.7167C12.2281 68.5393 13.0098 68.2948 13.7511 67.9537C18.9338 65.5701 20.3029 59.4247 19.886 54.2166C19.5929 50.5582 18.4824 47.0092 17.0388 43.6566C16.1024 41.4817 13.9212 40.9119 11.744 40.6038C10.1054 40.372 7.3902 40.5644 6.27645 42.0329Z" fill="url(#paint1_linear_75_3186)"/>
<path d="M0.867353 61.4978C0.745313 60.8958 0.498965 60.0488 0.368305 59.0933C0.177306 57.6997 0.174584 55.9825 0.685881 53.6946C0.742591 53.5272 2.93612 52.0759 2.92659 52.0664L3.7659 52.8263L4.09482 53.7949L4.99312 54.2377L5.02442 55.0298L4.26949 56.8427L4.59615 56.8518L5.39507 57.0337L5.71309 57.8167L5.42684 58.3062L5.85828 58.9468L6.67581 59.3356L7.77144 60.066L6.99157 60.6848L6.9217 61.5695L8.35577 63.3039L6.92715 63.6029L6.56602 64.5265L4.49633 68.0307C4.49633 68.0307 3.5436 67.3502 2.36403 65.3087C1.72707 64.2689 0.985764 62.0817 0.867353 61.4978Z" fill="black"/>
<defs>
<linearGradient id="paint0_linear_75_3186" x1="15.3071" y1="23.4583" x2="5.4135" y2="23.1535" gradientUnits="userSpaceOnUse">
<stop stop-color="#BFAB8D"/>
<stop offset="0.5078" stop-color="#E7E1D2"/>
<stop offset="1" stop-color="#CCBFA6"/>
</linearGradient>
<linearGradient id="paint1_linear_75_3186" x1="26.2353" y1="54.5647" x2="-6.71735" y2="55.1537" gradientUnits="userSpaceOnUse">
<stop stop-color="#94938C"/>
<stop offset="0.0617" stop-color="#A4A29B"/>
<stop offset="0.1809" stop-color="#CCCAC2"/>
<stop offset="0.2666" stop-color="#EDEBE1"/>
<stop offset="0.7117" stop-color="#EDEBE1"/>
<stop offset="0.7719" stop-color="#E0DED5"/>
<stop offset="0.883" stop-color="#BEBDB4"/>
<stop offset="1" stop-color="#94938C"/>
</linearGradient>
</defs>
</svg>
