<svg width="19" height="58" viewBox="0 0 19 58" fill="none" xmlns="http://www.w3.org/2000/svg">
<path d="M9.96094 56.3029C9.96094 56.3029 15.307 57.1381 17.0482 54.2967C18.789 51.4554 10.5108 54.6134 9.96094 56.3029Z" fill="#D8D6D0"/>
<path d="M15.3238 38.382C15.3238 38.382 14.9972 27.2694 14.0163 24.3278C13.0359 21.3862 12.0551 11.5811 12.3822 8.96614C12.7093 6.3512 12.7088 2.42923 12.7088 2.42923C12.7088 2.42923 13.0355 -0.512351 10.0939 1.7755C7.15233 4.06335 3.55699 15.176 3.88408 19.7516C4.21118 24.3273 4.31418 38.1161 4.26246 38.0857C4.21119 38.0549 15.3238 38.382 15.3238 38.382Z" fill="url(#paint0_linear_75_3195)"/>
<path d="M4.53911 37.0746C4.53911 37.0746 -2.97833 48.1872 2.57785 54.0703C3.25655 54.7889 4.32406 55.2943 5.15111 55.8201C6.00493 56.3631 6.9159 57.1171 7.95663 57.2346C9.15026 57.3698 10.024 56.1208 11.1973 55.8772C13.0623 55.4898 14.8875 55.7965 16.4803 54.5244C17.7955 53.4742 18.5931 51.8369 18.8639 50.1973C19.2015 48.1518 18.8521 46.0731 18.4447 44.0647C18.271 43.2086 17.9752 42.3939 17.629 41.5922C17.2606 40.7375 16.5951 39.9032 16.3057 39.0349C16.3057 39.0358 13.6907 31.1915 4.53911 37.0746Z" fill="url(#paint1_linear_75_3195)"/>
<path d="M1.31717 52.1326C1.19514 51.5306 0.757365 50.7212 0.626711 49.7658C0.435719 48.3721 0.535966 46.6808 1.13571 44.3294C1.19241 44.162 3.38587 42.7107 3.37634 42.7012L4.21562 43.4611L4.54452 44.4297L5.44276 44.8725L5.47406 45.6646L4.71918 47.4775L5.04581 47.4865L5.84472 47.6685L6.16272 48.4515L5.87646 48.941L6.3079 49.5816L7.1254 49.9704L8.22099 50.7008L7.44115 51.3196L7.37128 52.2043L8.8053 53.9387L7.37673 54.2377L7.0156 55.1609L5.61607 56.2075C5.61698 56.2075 2.07841 54.4382 1.31717 52.1326Z" fill="black"/>
<defs>
<linearGradient id="paint0_linear_75_3195" x1="14.4242" y1="19.6907" x2="1.53153" y2="19.2935" gradientUnits="userSpaceOnUse">
<stop stop-color="#BFAB8D"/>
<stop offset="0.5078" stop-color="#E7E1D2"/>
<stop offset="1" stop-color="#CCBFA6"/>
</linearGradient>
<linearGradient id="paint1_linear_75_3195" x1="22.5759" y1="46.4709" x2="-4.15093" y2="45.6476" gradientUnits="userSpaceOnUse">
<stop stop-color="#94938C"/>
<stop offset="0.0311" stop-color="#A6A59D"/>
<stop offset="0.0939" stop-color="#C5C3BB"/>
<stop offset="0.1552" stop-color="#DBD9D0"/>
<stop offset="0.2138" stop-color="#E8E7DD"/>
<stop offset="0.2666" stop-color="#EDEBE1"/>
<stop offset="0.7117" stop-color="#EDEBE1"/>
<stop offset="0.7637" stop-color="#E7E5DB"/>
<stop offset="0.835" stop-color="#D5D3CA"/>
<stop offset="0.9175" stop-color="#B8B7AF"/>
<stop offset="1" stop-color="#94938C"/>
</linearGradient>
</defs>
</svg>
