<svg width="19" height="55" viewBox="0 0 19 55" fill="none" xmlns="http://www.w3.org/2000/svg">
<path d="M9.53516 54.2744C9.53516 54.2744 14.8343 55.37 16.7121 52.6177C18.5904 49.8648 10.1667 52.614 9.53516 54.2744Z" fill="#D8D6D0"/>
<path d="M8.7576 54.5115C8.7576 54.5115 3.11409 54.893 1.7099 51.2337C0.305711 47.5744 8.42504 52.3933 8.7576 54.5115Z" fill="#D8D6D0"/>
<path d="M6.50404 33.9783C6.42102 34.0191 6.34208 34.0654 6.26768 34.1176C4.82998 35.1215 3.6182 36.7493 2.70405 38.2214C1.3149 40.458 0.323624 43.0162 0.590384 45.6856C0.772762 47.5102 0.977364 49.6084 1.88925 51.247C2.42187 52.2043 3.61912 52.643 4.59407 52.9823C5.42928 53.2731 6.27221 53.5462 7.0911 53.8815C7.84737 54.1909 8.58959 54.7185 9.44159 54.6504C10.4211 54.572 11.1052 53.8044 11.8887 53.3062C13.1182 52.525 14.5899 52.1244 16.0462 52.1948C16.3021 52.207 16.5643 52.2329 16.8093 52.158C17.1672 52.0491 17.429 51.7452 17.6399 51.4367C18.6008 50.033 18.5754 48.6729 18.5836 47.0407C18.5922 45.3821 18.56 43.7135 18.2438 42.0803C17.6808 39.17 15.7581 36.7624 14.7473 34.0155C14.6892 33.8571 14.6312 33.6952 14.5246 33.5645C14.3422 33.3409 14.0437 33.2442 13.756 33.2211C13.2171 33.1776 12.674 33.261 12.14 33.3182C11.1274 33.4271 10.1389 33.54 9.12083 33.6099C8.31374 33.6657 7.25533 33.6072 6.50404 33.9783Z" fill="url(#paint0_linear_75_3207)"/>
<path d="M4.36271 35.892C4.399 35.9214 4.44254 35.9446 4.49562 35.9591C4.76239 36.034 5.58446 35.6316 5.87527 35.5553C6.83935 35.3031 7.8143 35.0921 8.79516 34.9166C9.83454 34.7306 10.8844 34.5541 11.9428 34.5455C12.5031 34.5409 13.0666 34.58 13.6151 34.6988C14.1023 34.8045 14.6272 35.1384 15.0886 35.1802C15.4248 33.8695 15.0836 32.3452 15.0056 31.0142C14.919 29.5343 14.7828 28.0576 14.5982 26.5868C14.252 23.8267 13.5629 21.1696 13.0607 18.4444C12.5716 15.7937 12.4355 12.9914 12.494 10.2921C12.5213 9.02273 12.5984 7.75111 12.744 6.48992C12.8679 5.41337 13.1782 4.4498 13.0679 3.33423C12.9559 2.20007 12.4237 0.482488 10.9261 0.947042C9.79871 1.29682 9.09687 2.53669 8.52796 3.4794C7.44411 5.27456 6.65515 7.23031 5.92835 9.19695C5.20246 11.1609 4.53328 13.1588 4.15445 15.2221C3.82372 17.0218 3.8641 18.7833 3.8954 20.6003C3.9444 23.4847 4.01338 26.3686 4.08461 29.2526C4.13043 31.113 4.02426 33.0547 4.1708 34.942C4.19712 35.2949 4.1454 35.7141 4.36271 35.892Z" fill="url(#paint1_linear_75_3207)"/>
<path d="M1.39235 50.0846C1.27032 49.4826 0.960937 48.7309 0.829841 47.775C0.638868 46.3813 0.247866 44.7232 0.848004 42.3723C0.904706 42.2049 3.58877 40.7205 3.57924 40.7109L4.41843 41.4708L4.74731 42.4394L5.64546 42.8822L5.67676 43.6743L4.92196 45.4871L5.24855 45.4962L6.04736 45.6781L6.36536 46.4612L6.07913 46.9507L6.51051 47.5912L7.32793 47.98L8.42343 48.7104L7.64367 49.3292L7.57381 50.2139L9.00769 51.9483L7.57923 52.2472L7.21816 53.1709L5.81874 54.2175C5.81874 54.2175 3.99294 53.8832 2.75229 52.7617C2.05055 52.1261 1.67223 51.3426 1.39235 50.0846Z" fill="black"/>
<defs>
<linearGradient id="paint0_linear_75_3207" x1="24.5339" y1="44.3381" x2="-5.70294" y2="43.4066" gradientUnits="userSpaceOnUse">
<stop stop-color="#94938C"/>
<stop offset="0.2666" stop-color="#EDEBE1"/>
<stop offset="0.7117" stop-color="#EDEBE1"/>
<stop offset="1" stop-color="#94938C"/>
</linearGradient>
<linearGradient id="paint1_linear_75_3207" x1="17.9982" y1="19.4674" x2="3.6382" y2="17.9593" gradientUnits="userSpaceOnUse">
<stop stop-color="#BFAB8D"/>
<stop offset="0.5078" stop-color="#E7E1D2"/>
<stop offset="1" stop-color="#CCBFA6"/>
</linearGradient>
</defs>
</svg>
