<svg width="24" height="42" viewBox="0 0 24 42" fill="none" xmlns="http://www.w3.org/2000/svg">
<path d="M13.7753 3.52308C14.296 1.78374 16.0942 2.00286 16.7021 3.57072C17.8775 6.60164 17.2741 10.005 16.6699 13.0922C16.39 14.5217 15.8502 19.8096 13.8329 19.982C11.8314 20.153 8.17152 15.4494 9.83636 12.8291C10.7395 11.4077 11.7271 10.03 12.4693 8.51337C13.2767 6.86476 13.2654 5.22749 13.7753 3.52308Z" fill="url(#paint0_linear_75_3235)"/>
<path d="M3.31786 26.8225C3.38318 26.8592 3.59192 26.3928 3.77928 26.4133C4.02381 26.4396 4.32868 26.3543 4.57322 26.3293C5.41796 26.244 6.26405 26.1701 7.11061 26.1061C9.46246 25.9287 11.8252 25.8208 14.1843 25.8684C15.8252 25.9015 17.4912 25.9886 19.1003 26.332C20.0943 26.5439 21.4023 26.8592 22.0102 27.7629C22.0102 27.7629 20.6405 22.2468 21.6214 17.9978C22.6022 13.7488 23.9093 2.30964 21.2943 1.98255C19.6506 1.77704 18.4116 5.59961 17.9829 6.663C16.846 9.48297 15.9559 12.4971 15.1497 15.4595C15.1271 15.5421 15.1039 15.6269 15.0536 15.6964C14.6121 16.307 13.0801 16.5492 12.488 16.1409C11.9926 15.7989 11.8701 15.1315 11.7894 14.5345C11.646 13.4752 11.5026 12.4159 11.3592 11.3566C11.0185 8.83967 10.6756 6.30642 10.7364 3.76C10.7532 3.06091 11.5498 -0.499446 9.85441 0.348451C7.00624 1.7725 5.38209 5.71121 4.59134 8.53799C3.52248 12.3574 3.48302 16.4444 3.33558 20.3831C3.26798 22.1887 3.17767 24.0193 3.29517 25.8248C3.31831 26.1778 3.2244 26.7698 3.31786 26.8225Z" fill="url(#paint1_linear_75_3235)"/>
<path d="M4.41329 25.6695C5.29022 25.0621 6.46474 24.9895 7.48321 24.7858C9.01703 24.4787 10.5645 24.2228 12.1278 24.1284C15.5733 23.9197 19.3628 24.5517 21.6783 27.3549C22.4944 28.3425 23.0683 29.5252 23.3559 30.7728C23.6793 32.1774 23.4185 33.0847 22.9712 34.4117C22.5611 35.628 22.0258 36.945 21.3643 38.0465C20.6471 39.2405 19.4998 40.2744 18.0571 40.2536C16.4943 40.2309 14.9668 39.6193 13.9229 38.4344C13.868 38.3722 13.8118 38.3064 13.7346 38.2751C13.6425 38.2379 13.5387 38.2574 13.4425 38.2797C11.3416 38.761 9.23571 40.1347 7.29767 41.0634C6.37129 41.507 5.84189 41.6422 4.90372 41.1495C3.73328 40.5348 2.6186 39.779 1.75211 38.7805C-0.811069 35.8271 0.166109 31.6312 2.03973 28.5857C2.6313 27.6244 3.36398 26.5102 4.25043 25.7925C4.30351 25.7489 4.35794 25.7081 4.41329 25.6695Z" fill="url(#paint2_linear_75_3235)"/>
<path d="M0.210938 34.615C0.210938 31.4829 0.815676 30.3628 1.79877 28.9896C1.85548 28.8222 2.98783 27.2752 2.97831 27.2656L4.38782 28.4361L4.71673 29.4047L5.61503 29.8475L5.64631 30.6396L4.89142 32.4524L5.21807 32.4615L6.01695 32.6434L6.33496 33.4264L6.04871 33.9159L6.48014 34.5565L7.29767 34.9453L8.39325 35.6757L7.61342 36.2945L7.54356 37.1792L8.97757 38.9135L7.54852 39.2125L7.1874 40.1362L6.15305 41.5108C6.15305 41.5108 4.49081 41.2717 3.24958 40.1498C2.02558 39.4693 0.210938 37.7467 0.210938 34.615Z" fill="black"/>
<defs>
<linearGradient id="paint0_linear_75_3235" x1="11.0993" y1="19.2642" x2="24.7873" y2="-14.187" gradientUnits="userSpaceOnUse">
<stop offset="0.1599" stop-color="#BFAB8D"/>
<stop offset="0.5078" stop-color="#E7E1D2"/>
<stop offset="0.7297" stop-color="#CCBFA6"/>
</linearGradient>
<linearGradient id="paint1_linear_75_3235" x1="22.1584" y1="16.2708" x2="4.46916" y2="12.9152" gradientUnits="userSpaceOnUse">
<stop offset="0.1599" stop-color="#BFAB8D"/>
<stop offset="0.5078" stop-color="#E7E1D2"/>
<stop offset="0.7297" stop-color="#CCBFA6"/>
</linearGradient>
<linearGradient id="paint2_linear_75_3235" x1="-5.05697" y1="32.7395" x2="28.2279" y2="32.824" gradientUnits="userSpaceOnUse">
<stop stop-color="#94938C"/>
<stop offset="0.2296" stop-color="#EDEBE1"/>
<stop offset="0.7988" stop-color="#EDEBE1"/>
<stop offset="1" stop-color="#94938C"/>
</linearGradient>
</defs>
</svg>
