<svg width="24" height="43" viewBox="0 0 24 43" fill="none" xmlns="http://www.w3.org/2000/svg">
<path d="M18.9846 2.99422C19.5181 1.25848 17.9013 0.441884 16.5245 1.40774C13.8629 3.27458 12.4738 6.43936 11.2612 9.34193C10.6995 10.6861 8.21036 15.3821 9.7918 16.6464C11.361 17.9008 17.0176 16.0235 17.0888 12.92C17.1274 11.236 17.0721 9.542 17.2975 7.86842C17.5425 6.05012 18.4616 4.69456 18.9846 2.99422Z" fill="url(#paint0_linear_75_3253)"/>
<path d="M3.19207 26.9182C2.22984 20.6105 2.24525 12.9998 5.04891 7.16202C5.70037 5.80511 6.5873 4.56388 7.64388 3.49232C8.05854 3.07177 10.5288 0.546676 11.0478 1.1682C11.5772 1.80197 11.0986 3.21831 11.0046 3.92285C10.8477 5.10192 10.6989 6.28191 10.5759 7.46507C10.3269 9.86541 9.70668 12.4663 10.3554 14.8548C10.4983 15.3806 10.8286 15.9005 11.3467 16.0688C11.6203 16.1577 11.9183 16.1396 12.1992 16.0788C13.9766 15.6936 15.2628 13.9017 16.3556 12.5869C17.9185 10.7074 18.8154 8.59605 19.5962 6.29824C19.9754 5.18223 20.4091 4.09796 21.3623 3.3544C21.5918 3.17521 22.055 2.75965 22.4089 2.84449C23.5739 3.12304 23.1715 6.26603 23.1293 6.98056C22.8027 12.537 20.5148 20.0543 20.5148 20.0543C20.5148 20.0543 19.5345 26.264 20.5148 28.2252C21.4952 30.1864 4.49908 30.1869 3.19207 26.9182Z" fill="url(#paint1_linear_75_3253)"/>
<path d="M2.21212 27.8986C2.21258 27.8982 4.82703 24.957 10.7101 24.957C16.5931 24.957 20.842 26.9182 21.8224 29.5327C22.8028 32.1477 23.1299 39.3379 19.5346 40.6453C18.3973 41.0591 17.147 41.1616 16.1218 40.4285C15.2448 39.8015 14.8982 38.6492 13.5795 39.0766C13.0047 39.2626 12.5306 39.6659 12.0434 40.0234C9.90118 41.5949 6.26057 43.2249 3.8208 41.3699C0.485499 38.8334 -0.692197 31.1659 2.21212 27.8986Z" fill="url(#paint2_linear_75_3253)"/>
<path d="M0.994767 36.4228C0.541135 34.6535 0.17823 32.5212 0.767951 31.2509C0.814675 31.113 1.08552 28.0752 3.72112 30.4792L4.87969 31.4415L5.15006 32.2381L5.88854 32.6024L5.91441 33.2535L5.29385 34.7438L5.5624 34.7515L6.21923 34.9012L6.481 35.545L6.24555 35.9474L6.6003 36.4741L7.2726 36.7935L8.17304 37.3941L7.53206 37.9027L7.47492 38.6304L8.65387 40.0563L7.47943 40.3022L7.18276 41.0617L6.3322 42.1922C6.3322 42.1922 4.87331 42.2911 3.85264 41.3688C2.84558 40.8085 1.85667 39.0088 0.994767 36.4228Z" fill="black"/>
<defs>
<linearGradient id="paint0_linear_75_3253" x1="12.4483" y1="17.5425" x2="19.6592" y2="-17.8771" gradientUnits="userSpaceOnUse">
<stop offset="0.1599" stop-color="#BFAB8D"/>
<stop offset="0.5078" stop-color="#E7E1D2"/>
<stop offset="0.7297" stop-color="#CCBFA6"/>
</linearGradient>
<linearGradient id="paint1_linear_75_3253" x1="-2.32719" y1="15.2636" x2="22.6103" y2="15.3537" gradientUnits="userSpaceOnUse">
<stop offset="0.1599" stop-color="#BFAB8D"/>
<stop offset="0.5078" stop-color="#E7E1D2"/>
<stop offset="0.7297" stop-color="#CCBFA6"/>
</linearGradient>
<linearGradient id="paint2_linear_75_3253" x1="-4.6487" y1="33.5286" x2="27.9101" y2="33.6462" gradientUnits="userSpaceOnUse">
<stop stop-color="#94938C"/>
<stop offset="0.2296" stop-color="#EDEBE1"/>
<stop offset="0.7988" stop-color="#EDEBE1"/>
<stop offset="1" stop-color="#94938C"/>
</linearGradient>
</defs>
</svg>
