<svg width="25" height="40" viewBox="0 0 25 40" fill="none" xmlns="http://www.w3.org/2000/svg">
<path d="M9.42093 36.8892C9.12604 38.7424 10.3119 39.2333 11.242 37.9816C13.0399 35.5622 13.8728 32.0981 14.5932 28.9338C14.9267 27.4685 16.4664 22.2409 15.2842 21.2928C14.111 20.3523 10.1894 23.3932 10.2883 26.5271C10.3419 28.227 10.4626 29.9182 10.3832 31.6462C10.2965 33.5239 9.70992 35.0736 9.42093 36.8892Z" fill="url(#paint0_linear_75_3355)"/>
<path d="M21.8924 13.5798C21.8924 13.5798 20.585 17.1752 20.585 21.0972C20.585 25.0192 20.9116 29.9221 18.6238 33.5174C16.3359 37.1128 15.6822 38.7469 15.6822 38.7469C15.6822 38.7469 13.7209 41.0348 12.7406 38.4203C12.7406 38.4203 15.0284 30.5758 13.7209 26.6538C12.4135 22.7318 11.106 24.0388 10.7794 24.6926C10.4527 25.3463 5.87655 32.8637 5.22281 34.8249C4.56907 36.7861 3.58869 38.7469 2.93495 38.7469C2.28121 38.7469 1.30083 37.1128 0.647089 34.1712C-0.00664908 31.2295 0.647092 27.9613 1.95457 25.673C3.26204 23.3846 4.56952 13.2527 4.56952 11.6186C4.56952 9.98448 20.2579 12.9261 21.8924 13.5798Z" fill="url(#paint1_linear_75_3355)"/>
<path d="M14.3418 3.3111C14.6521 3.23761 14.9733 3.03482 15.3462 2.78938C16.3588 2.12203 17.4104 1.47827 18.5786 1.1539C19.7468 0.829524 21.062 0.85765 22.1018 1.48145C22.8331 1.92015 23.3748 2.61517 23.8207 3.34195C24.5184 4.4793 25.0333 5.80085 24.8732 7.12556C24.6908 8.63628 24.0915 10.1239 23.4768 11.5039C23.1039 12.341 22.7932 13.2959 22.1213 13.951C21.3373 14.715 20.0194 14.8225 18.9864 14.9672C16.7644 15.278 14.5333 14.9995 12.3638 14.4845C10.2071 13.9723 7.97826 13.4044 5.88096 12.6903C5.50397 12.5619 5.12742 12.4135 4.81167 12.1713C3.92657 11.4912 3.74465 9.94557 3.53188 8.92572C3.20887 7.37553 3.40621 5.77271 4.04044 4.32777C4.85704 2.46727 6.41856 0.824986 8.49181 0.506056C9.97575 0.27786 11.2932 0.582274 12.2917 1.73233C12.6224 2.11341 12.8856 2.55619 13.243 2.91414C13.6368 3.30883 13.9821 3.39639 14.3418 3.3111Z" fill="url(#paint2_linear_75_3355)"/>
<path d="M23.9002 10.5068C24.1271 10.0078 24.7055 8.10969 24.8983 7.33121C25.0484 6.72376 24.9033 5.86226 24.3993 4.38242C24.3503 4.2377 23.8993 3.46103 23.1435 2.95747C22.3877 2.45346 22.4385 4.01768 22.4385 4.01768L22.1541 4.85468L21.3779 5.23711L21.3507 5.92123L22.003 7.48726L21.7209 7.49543L21.0308 7.65239L20.7559 8.32926L21.0032 8.75206L20.6303 9.30553L19.9239 9.64124L18.9776 10.2723L19.6513 10.8067L19.7116 11.5711L18.4727 13.0695L19.7071 13.3277L20.0187 14.1257L20.4973 14.7254C20.4973 14.7254 21.602 14.5086 22.1759 13.9542C22.6731 13.4751 23.6734 11.0058 23.9002 10.5068Z" fill="black"/>
<defs>
<linearGradient id="paint0_linear_75_3355" x1="13.3381" y1="20.9251" x2="13.314" y2="57.9939" gradientUnits="userSpaceOnUse">
<stop offset="0.1599" stop-color="#BFAB8D"/>
<stop offset="0.5078" stop-color="#E7E1D2"/>
<stop offset="0.7297" stop-color="#CCBFA6"/>
</linearGradient>
<linearGradient id="paint1_linear_75_3355" x1="19.9978" y1="25.3668" x2="3.23948" y2="25.4274" gradientUnits="userSpaceOnUse">
<stop stop-color="#BFAB8D"/>
<stop offset="0.5078" stop-color="#E7E1D2"/>
<stop offset="1" stop-color="#CCBFA6"/>
</linearGradient>
<linearGradient id="paint2_linear_75_3355" x1="31.2532" y1="7.70202" x2="-2.78651" y2="7.82498" gradientUnits="userSpaceOnUse">
<stop stop-color="#94938C"/>
<stop offset="0.2614" stop-color="#EDEBE1"/>
<stop offset="0.7687" stop-color="#EDEBE1"/>
<stop offset="1" stop-color="#94938C"/>
</linearGradient>
</defs>
</svg>
