<svg width="19" height="53" viewBox="0 0 19 53" fill="none" xmlns="http://www.w3.org/2000/svg">
<path d="M15.5323 21.5127C15.5323 21.5127 9.32264 47.0067 4.09284 51.2553C-1.13695 55.504 1.47794 47.0063 1.47794 47.0063C1.47794 47.0063 3.43911 31.3179 3.43911 28.3763C3.43911 25.4347 2.39933 19.9258 2.39933 19.9258C2.39933 19.9258 12.4715 22.0948 15.5323 21.5127Z" fill="url(#paint0_linear_75_3296)"/>
<path d="M15.8603 2.22941C15.8603 2.22941 19.1285 3.8635 18.1481 8.43916C17.1677 13.0148 17.4944 15.6297 17.4944 15.6297C17.4944 15.6297 16.8407 23.4741 11.2846 23.8007C5.72817 24.1273 2.13335 20.8591 1.80626 18.8979C1.47962 16.9367 1.47962 11.3807 1.15253 10.3999C0.825435 9.41909 -0.154933 3.20933 3.11371 2.22896C6.3819 1.24859 8.34309 0.921495 8.34309 0.921495C8.34309 0.921495 11.6113 -0.0584165 15.8603 2.22941Z" fill="url(#paint1_linear_75_3296)"/>
<path d="M18.4082 6.52157C18.3882 5.45684 17.5462 3.66355 17.0472 3.20989C16.9165 2.86466 16.0881 2.58566 16.0918 2.58203L14.121 3.07742L13.7921 4.04597L12.8939 4.48874L12.8625 5.28082L13.6175 7.09362L13.2908 7.10269L12.4919 7.28461L12.1739 8.06762L12.4601 8.55711L12.0287 9.19768L11.2112 9.58645L10.1156 10.3168L10.8954 10.9356L10.9653 11.8203L9.53125 13.5546L10.9599 13.8535L11.321 14.7767L12.7156 15.7825C12.7156 15.7825 16.2769 18.4069 17.0027 17.8171C17.774 15.8664 17.4078 14.4133 17.5925 12.1918C17.7953 9.74161 18.4245 7.37263 18.4082 6.52157Z" fill="black"/>
<defs>
<linearGradient id="paint0_linear_75_3296" x1="2.27347" y1="36.1863" x2="13.8297" y2="36.228" gradientUnits="userSpaceOnUse">
<stop stop-color="#BFAB8D"/>
<stop offset="0.5078" stop-color="#E7E1D2"/>
<stop offset="1" stop-color="#CCBFA6"/>
</linearGradient>
<linearGradient id="paint1_linear_75_3296" x1="-2.52294" y1="12.222" x2="21.6438" y2="12.3093" gradientUnits="userSpaceOnUse">
<stop stop-color="#94938C"/>
<stop offset="0.2296" stop-color="#EDEBE1"/>
<stop offset="0.4283" stop-color="#EDEBE1"/>
<stop offset="0.7988" stop-color="#EDEBE1"/>
<stop offset="1" stop-color="#94938C"/>
</linearGradient>
</defs>
</svg>
