<svg width="19" height="67" viewBox="0 0 19 67" fill="none" xmlns="http://www.w3.org/2000/svg">
<path d="M15.7603 27.3656C13.8553 27.3557 11.9208 27.1801 10.019 27.0276C7.71575 26.843 4.48153 26.956 2.3783 25.8554C2.18595 25.7547 2.12243 25.4121 1.9455 25.291C1.54309 26.6402 1.88742 28.8024 1.96681 30.1838C2.1941 34.133 2.36876 38.0895 2.33066 42.0459C2.30933 44.2299 2.18775 46.3984 1.99131 48.5728C1.72001 51.5757 0.706052 54.5073 0.432942 57.541C0.241492 59.6682 0.273709 61.8309 0.688819 63.9313C0.819477 64.5919 1.00957 66.3045 1.58256 66.4624C2.33838 66.6701 3.47844 65.5078 3.85817 64.9956C5.11393 63.3026 5.43606 61.0097 6.07846 59.048C6.79707 56.8523 7.63907 54.6992 8.49878 52.5556C10.176 48.3741 11.9399 44.2036 13.0201 39.817C13.6511 37.2543 13.932 34.6289 14.5245 32.0566C14.8869 30.4805 15.3147 28.9199 15.7603 27.3656Z" fill="url(#paint0_linear_75_3286)"/>
<path d="M17.9549 8.61407C17.9549 8.61407 18.9334 3.38421 16.6447 1.75101C14.3559 0.117815 13.376 0.771998 13.376 0.771998C12.4296 1.03059 11.4787 1.27285 10.526 1.50558C8.95726 1.88848 7.26372 2.43741 5.63777 2.39522C5.31204 2.3866 4.98539 2.3503 4.66147 2.38297C2.23843 2.62522 1.8451 5.20568 1.48126 7.09611C1.01443 9.52004 0.685531 11.9766 0.491361 14.4373C0.331216 16.4693 0.253629 18.5244 0.424662 20.5586C0.548513 22.0321 0.754937 23.7152 1.62008 24.9637C2.82865 26.7081 5.04482 27.5006 7.02644 27.9566C9.54158 28.5354 12.1846 28.6715 14.7569 28.5631C16.1556 28.5037 16.5453 25.387 16.6233 24.398C17.038 19.1332 17.4794 13.873 17.9549 8.61407Z" fill="url(#paint1_linear_75_3286)"/>
<path d="M18.148 5.86914C18.128 4.80438 17.785 2.87492 17.286 2.42125C17.1553 2.07601 16.5143 1.94308 16.5175 1.93945L14.5468 2.43487L14.2179 3.40344L13.3196 3.84622L13.2883 4.63833L14.0432 6.4512L13.7166 6.46027L12.9176 6.64219L12.5996 7.42522L12.8859 7.91473L12.4545 8.55532L11.6369 8.9441L10.5413 9.67452L11.3212 10.2933L11.3911 11.178L9.95703 12.9123L11.3856 13.2113L11.7468 14.1345L13.1413 15.1403C13.1413 15.1403 16.4785 17.7299 17.2043 17.1401C17.6117 14.8717 18.1784 7.49146 18.148 5.86914Z" fill="black"/>
<defs>
<linearGradient id="paint0_linear_75_3286" x1="11.132" y1="45.8513" x2="2.05021" y2="45.8879" gradientUnits="userSpaceOnUse">
<stop stop-color="#BFAB8D"/>
<stop offset="0.5078" stop-color="#E7E1D2"/>
<stop offset="1" stop-color="#CCBFA6"/>
</linearGradient>
<linearGradient id="paint1_linear_75_3286" x1="22.6263" y1="14.5833" x2="-3.7013" y2="14.6894" gradientUnits="userSpaceOnUse">
<stop stop-color="#94938C"/>
<stop offset="0.2296" stop-color="#EDEBE1"/>
<stop offset="0.7988" stop-color="#EDEBE1"/>
<stop offset="1" stop-color="#94938C"/>
</linearGradient>
</defs>
</svg>
