<svg width="16" height="66" viewBox="0 0 16 66" fill="none" xmlns="http://www.w3.org/2000/svg">
<path d="M2.31943 24.7227C2.31898 32.2567 0.78425 39.7367 0.434026 47.2653C0.291123 50.3339 0.0547727 53.4016 0.0992312 56.4757C0.134163 58.9123 -0.0522951 62.9758 1.46701 65.0508C2.11029 65.9273 4.01384 62.0253 4.19575 61.6506C5.33489 59.3047 6.04261 56.8109 6.92271 54.3629C7.89308 51.6632 8.88251 48.9466 9.67777 46.1883C10.7389 42.5082 11.3436 38.6752 12.0196 34.9102C12.1253 34.3204 13.0489 26.7388 13.4318 26.6843C13.4286 26.6843 4.28014 27.9904 2.31943 24.7227Z" fill="url(#paint0_linear_75_3266)"/>
<path d="M14.9288 0.682032C14.78 0.546386 14.5174 0.517804 14.031 0.476974C13.287 0.414822 12.514 0.469267 11.7681 0.470628C8.72811 0.476525 5.6881 0.536407 2.64808 0.536407C2.64808 0.536407 -0.293507 1.19015 0.0331329 2.82425C0.359773 4.45836 1.34061 24.7227 2.32098 26.0302C3.30136 27.3376 5.5892 31.5867 10.492 30.2792C15.3943 28.9717 14.4139 17.533 14.4139 17.5326C14.2846 15.4607 14.8054 13.1656 14.9465 11.0946C15.1561 8.01962 15.3353 4.91792 15.1593 1.83662C15.1207 1.16111 15.1067 0.844444 14.9288 0.682032Z" fill="url(#paint1_linear_75_3266)"/>
<path d="M15.0507 9.32551C15.3511 7.84567 15.1465 3.06092 15.1465 2.60726C15.1465 2.1536 15.2848 1.48899 15.0557 0.883348C14.9251 0.538112 14.3263 0.433317 14.3299 0.429688L12.3592 0.925081L12.0303 1.89365L11.1321 2.33642L11.1008 3.1285L11.8556 4.94133L11.529 4.95041L10.7301 5.13234L10.4121 5.91535L10.6984 6.40485L10.2669 7.04542L9.44944 7.4342L8.35386 8.1646L9.1337 8.7834L9.20356 9.66804L7.76953 11.4024L9.19855 11.7013L9.55969 12.6245L10.9542 13.6303C10.9542 13.6303 13.6961 16.1259 14.422 15.5361C14.8289 13.2683 14.965 10.5463 15.0507 9.32551Z" fill="black"/>
<defs>
<linearGradient id="paint0_linear_75_3266" x1="12.351" y1="44.9131" x2="-3.9539" y2="44.972" gradientUnits="userSpaceOnUse">
<stop stop-color="#BFAB8D"/>
<stop offset="0.5078" stop-color="#E7E1D2"/>
<stop offset="1" stop-color="#CCBFA6"/>
</linearGradient>
<linearGradient id="paint1_linear_75_3266" x1="17.4856" y1="15.463" x2="-2.0575" y2="15.5336" gradientUnits="userSpaceOnUse">
<stop stop-color="#94938C"/>
<stop offset="0.2296" stop-color="#EDEBE1"/>
<stop offset="0.7988" stop-color="#EDEBE1"/>
<stop offset="1" stop-color="#94938C"/>
</linearGradient>
</defs>
</svg>
