<svg width="16" height="66" viewBox="0 0 16 66" fill="none" xmlns="http://www.w3.org/2000/svg">
<path d="M13.019 24.7227C13.0194 32.2567 14.5542 39.7367 14.9045 47.2653C15.0474 50.3339 15.2837 53.4016 15.2393 56.4757C15.2043 58.9123 15.3908 62.9758 13.8714 65.0508C13.2281 65.9273 11.3245 62.0253 11.1426 61.6506C10.0034 59.3047 9.29568 56.8109 8.41556 54.3629C7.44515 51.6632 6.45569 48.9466 5.6604 46.1883C4.59926 42.5082 3.99453 38.6752 3.31855 34.9102C3.21285 34.3204 2.28915 26.7388 1.90625 26.6843C1.90988 26.6843 11.0587 27.9904 13.019 24.7227Z" fill="url(#paint0_linear_75_3261)"/>
<path d="M0.411296 0.682032C0.560098 0.546386 0.822771 0.517804 1.3091 0.476974C2.05311 0.414822 2.82614 0.469267 3.57197 0.470628C6.61197 0.476525 9.65198 0.536407 12.692 0.536407C12.692 0.536407 15.6335 1.19015 15.3069 2.82425C14.9803 4.45836 13.9994 24.7227 13.0191 26.0302C12.0387 27.3376 9.75089 31.5867 4.84814 30.2792C-0.0541499 28.9717 0.926209 17.533 0.926209 17.5326C1.0555 15.4607 0.534708 13.1656 0.393619 11.0946C0.184026 8.01962 0.00480947 4.91792 0.180831 1.83662C0.218939 1.16111 0.233006 0.844444 0.411296 0.682032Z" fill="url(#paint1_linear_75_3261)"/>
<path d="M0.288779 9.32551C-0.011555 7.84567 0.193059 3.06092 0.193059 2.60726C0.193059 2.1536 0.0546879 1.48899 0.283794 0.883348C0.414453 0.538112 1.01331 0.433317 1.00968 0.429688L2.98044 0.925081L3.30936 1.89365L4.20763 2.33642L4.23895 3.1285L3.48403 4.94133L3.81066 4.95041L4.6096 5.13234L4.92762 5.91535L4.64135 6.40485L5.0728 7.04542L5.89033 7.4342L6.98595 8.1646L6.20609 8.7834L6.13622 9.66804L7.57028 11.4024L6.1412 11.7013L5.78008 12.6245L4.38549 13.6303C4.38549 13.6303 1.64345 16.1259 0.917568 15.5361C0.510166 13.2683 0.37407 10.5463 0.288779 9.32551Z" fill="black"/>
<defs>
<linearGradient id="paint0_linear_75_3261" x1="2.98735" y1="44.9131" x2="19.2928" y2="44.972" gradientUnits="userSpaceOnUse">
<stop stop-color="#BFAB8D"/>
<stop offset="0.5078" stop-color="#E7E1D2"/>
<stop offset="1" stop-color="#CCBFA6"/>
</linearGradient>
<linearGradient id="paint1_linear_75_3261" x1="-2.14556" y1="15.463" x2="17.3974" y2="15.5336" gradientUnits="userSpaceOnUse">
<stop stop-color="#94938C"/>
<stop offset="0.2296" stop-color="#EDEBE1"/>
<stop offset="0.7988" stop-color="#EDEBE1"/>
<stop offset="1" stop-color="#94938C"/>
</linearGradient>
</defs>
</svg>
