<svg width="17" height="64" viewBox="0 0 17 64" fill="none" xmlns="http://www.w3.org/2000/svg">
<path d="M3.17578 23.0996C3.17578 23.0996 11.3466 27.0216 13.6344 23.7533C13.5446 26.9649 13.4892 30.1782 13.447 33.3906C13.3672 39.4992 13.335 45.6137 13.5133 51.721C13.5759 53.8659 13.6258 56.0136 13.8308 58.1508C13.9352 59.2396 14.079 60.3252 14.2845 61.3995C14.3788 61.894 14.6633 62.4765 14.4342 62.9279C14.1293 63.5281 13.3418 63.6642 12.7915 63.3934C12.0171 63.0123 11.5081 62.075 11.1238 61.3514C10.197 59.6057 9.5991 57.6763 9.05834 55.7836C5.7902 44.3444 3.67934 26.6155 3.17578 23.0996Z" fill="url(#paint0_linear_75_3271)"/>
<path d="M1.91974 0.662567C2.69234 0.266062 3.89595 0.511042 4.7425 0.503784C6.31312 0.490627 7.88374 0.495155 9.45391 0.540522C11.2083 0.591333 13.6477 0.390816 15.27 1.20197C16.8279 1.98092 16.9935 3.92669 16.9463 5.4551C16.7594 11.4929 16.3706 17.847 13.9353 23.4602C13.2221 25.1039 12.2268 26.7625 10.6688 27.7297C8.25484 29.2286 5.4915 28.3598 4.11551 25.9599C3.01399 24.0391 2.59026 21.8248 2.35934 19.6526C2.18468 18.0081 2.29402 16.3513 2.17743 14.7035C2.05448 12.9674 1.54229 11.282 1.26237 9.56577C0.820042 6.85193 0.284695 4.02014 1.29593 1.36665C1.42568 1.02458 1.64572 0.803204 1.91974 0.662567Z" fill="url(#paint1_linear_75_3271)"/>
<path d="M1.22357 9.13426C1.0421 8.24052 0.694128 6.03839 0.724525 4.41605C0.744486 3.35128 1.08747 1.42181 1.58651 0.968135C1.71717 0.622889 2.35821 0.489958 2.35503 0.486328L4.32582 0.981736L4.65473 1.95033L5.553 2.39312L5.5843 3.18523L4.82938 4.99812L5.15603 5.00718L5.95495 5.18912L6.27299 5.97215L5.98672 6.46166L6.41815 7.10225L7.23568 7.49105L8.3313 8.22146L7.55143 8.84028L7.48156 9.72495L8.91565 11.4593L7.48701 11.7583L7.12589 12.6815L5.7313 13.6873C5.7313 13.6873 2.98927 16.183 2.26339 15.5932C1.85553 13.3253 1.30886 10.3556 1.22357 9.13426Z" fill="black"/>
<defs>
<linearGradient id="paint0_linear_75_3271" x1="15.8145" y1="43.286" x2="6.58169" y2="43.3193" gradientUnits="userSpaceOnUse">
<stop stop-color="#BFAB8D"/>
<stop offset="0.5078" stop-color="#E7E1D2"/>
<stop offset="1" stop-color="#CCBFA6"/>
</linearGradient>
<linearGradient id="paint1_linear_75_3271" x1="19.6669" y1="14.4023" x2="-2.52649" y2="14.4824" gradientUnits="userSpaceOnUse">
<stop stop-color="#94938C"/>
<stop offset="0.2296" stop-color="#EDEBE1"/>
<stop offset="0.7988" stop-color="#EDEBE1"/>
<stop offset="1" stop-color="#94938C"/>
</linearGradient>
</defs>
</svg>
