<svg width="19" height="67" viewBox="0 0 19 67" fill="none" xmlns="http://www.w3.org/2000/svg">
<path d="M3.19531 27.3656C5.10024 27.3557 7.03464 27.1801 8.93639 27.0276C11.2396 26.843 14.4738 26.956 16.577 25.8554C16.7693 25.7547 16.8328 25.4121 17.0098 25.291C17.4122 26.6402 17.0678 28.8024 16.9884 30.1838C16.7611 34.133 16.5865 38.0895 16.6246 42.0459C16.6459 44.2299 16.7675 46.3984 16.9639 48.5728C17.2352 51.5757 18.2492 54.5073 18.5223 57.541C18.7137 59.6682 18.6815 61.8309 18.2664 63.9313C18.1358 64.5919 17.9457 66.3045 17.3727 66.4624C16.6169 66.6701 15.4768 65.5078 15.0971 64.9956C13.8414 63.3026 13.5193 61.0097 12.8769 59.048C12.1583 56.8523 11.3163 54.6992 10.4562 52.5556C8.77897 48.3741 7.01513 44.2036 5.93496 39.817C5.30392 37.2543 5.02311 34.6289 4.43063 32.0566C4.06816 30.4805 3.64081 28.9199 3.19531 27.3656Z" fill="url(#paint0_linear_75_3281)"/>
<path d="M1.00089 8.61407C1.00089 8.61407 0.022315 3.38421 2.31109 1.75101C4.59986 0.117815 5.57978 0.771998 5.57978 0.771998C6.52614 1.03059 7.47705 1.27285 8.42976 1.50558C9.99855 1.88848 11.6921 2.43741 13.3181 2.39522C13.6438 2.3866 13.9704 2.3503 14.2944 2.38297C16.7174 2.62522 17.1107 5.20568 17.4746 7.09611C17.9414 9.52004 18.2703 11.9766 18.4645 14.4373C18.6247 16.4693 18.7027 18.5244 18.5312 20.5586C18.4069 22.0321 18.2009 23.7152 17.3358 24.9637C16.1267 26.7081 13.911 27.5006 11.9294 27.9566C9.41421 28.5354 6.77112 28.6715 4.19881 28.5631C2.80014 28.5037 2.41045 25.387 2.33242 24.398C1.91731 19.1332 1.47588 13.873 1.00089 8.61407Z" fill="url(#paint1_linear_75_3281)"/>
<path d="M0.805862 5.86914C0.825823 4.80438 1.1688 2.87492 1.66783 2.42125C1.79848 2.07601 2.43951 1.94308 2.43634 1.93945L4.40708 2.43487L4.73599 3.40344L5.63424 3.84622L5.66554 4.63833L4.91064 6.4512L5.23729 6.46027L6.03619 6.64219L6.35422 7.42522L6.06795 7.91473L6.49938 8.55532L7.31689 8.9441L8.41251 9.67452L7.63264 10.2933L7.56277 11.178L8.99683 12.9123L7.56778 13.2113L7.20666 14.1345L5.81208 15.1403C5.81208 15.1403 2.4749 17.7299 1.74904 17.1401C1.34164 14.8717 0.775466 7.49146 0.805862 5.86914Z" fill="black"/>
<defs>
<linearGradient id="paint0_linear_75_3281" x1="7.82322" y1="45.8513" x2="16.9048" y2="45.8879" gradientUnits="userSpaceOnUse">
<stop stop-color="#BFAB8D"/>
<stop offset="0.5078" stop-color="#E7E1D2"/>
<stop offset="1" stop-color="#CCBFA6"/>
</linearGradient>
<linearGradient id="paint1_linear_75_3281" x1="-3.67081" y1="14.5833" x2="22.657" y2="14.6894" gradientUnits="userSpaceOnUse">
<stop stop-color="#94938C"/>
<stop offset="0.2296" stop-color="#EDEBE1"/>
<stop offset="0.7988" stop-color="#EDEBE1"/>
<stop offset="1" stop-color="#94938C"/>
</linearGradient>
</defs>
</svg>
