<svg width="20" height="51" viewBox="0 0 20 51" fill="none" xmlns="http://www.w3.org/2000/svg">
<path d="M4.01953 20.7543C4.82253 26.0105 6.23841 31.2626 8.08167 36.2425C10.1078 41.7155 12.6393 47.189 17.5607 50.6187C17.68 50.7017 17.8079 50.7879 17.9531 50.7952C18.101 50.8024 18.2403 50.7258 18.3587 50.6369C19.0364 50.1301 19.286 49.2051 19.2161 48.3613C19.1462 47.5175 18.8096 46.7231 18.5156 45.9292C16.7218 41.0868 16.284 35.7575 15.7727 30.6561C15.4488 27.4264 14.6808 23.4677 15.442 20.2481C16.2595 16.7925 4.52628 20.1405 4.01953 20.7543Z" fill="url(#paint0_linear_75_3301)"/>
<path d="M14.1582 0.772563C13.4314 0.445012 12.6732 0.437292 11.6605 0.685904C11.3865 0.753048 11.0943 0.857395 10.9455 1.09693C10.2486 2.21659 15.9686 4.36655 16.6523 3.427C17.057 2.86807 15.5312 1.75249 15.2118 1.4753C14.8511 1.16181 14.5081 0.929987 14.1582 0.772563Z" fill="#D8D6D0"/>
<path d="M4.22276 0.959241C3.88523 1.06086 3.62846 1.16974 3.52049 1.26456C2.97427 1.74454 2.40671 2.25538 2.16218 2.93996C2.06419 3.21443 2.05377 3.58236 2.30329 3.73297C2.38767 3.78379 2.48837 3.79921 2.58637 3.80737C3.73097 3.90128 5.05524 3.15726 6.02337 2.62602C6.38177 2.42958 7.92288 1.7205 7.85256 1.16294C7.74549 0.317754 5.44994 0.590409 4.22276 0.959241Z" fill="#D8D6D0"/>
<path d="M2.20426 3.06578C2.20426 3.06578 -0.0835964 4.69987 1.22389 8.94888C1.87763 14.832 3.83886 20.7151 3.83886 20.7151C3.83886 20.7151 4.4926 21.6954 9.06833 21.6954C13.6441 21.6954 14.9515 21.0417 15.6053 19.7343C16.259 18.4268 17.8932 6.00687 17.8932 6.00687C17.8932 6.00687 17.5665 3.06532 16.259 2.73868C14.9515 2.41204 13.6441 2.08495 13.3174 2.08495C12.9908 2.08495 10.0492 0.123768 8.74168 0.450859C7.43374 0.77795 4.16549 3.39287 2.20426 3.06578Z" fill="url(#paint1_linear_75_3301)"/>
<path d="M0.761961 6.50798C0.781922 5.44323 1.62392 3.6499 2.12296 3.19623C2.25361 2.851 3.08201 2.57199 3.07838 2.56836L5.0491 3.06377L5.378 4.03233L6.27627 4.47511L6.30757 5.26721L5.55267 7.08006L5.87932 7.08913L6.67822 7.27105L6.99622 8.05407L6.70996 8.54358L7.14141 9.18414L7.95891 9.57294L9.05451 10.3033L8.27466 10.9221L8.20479 11.8068L9.63882 13.5411L8.21024 13.8401L7.84913 14.7633L6.45455 15.7691C6.45455 15.7691 3.85005 18.5677 3.12419 17.978C2.35296 16.0272 1.90247 14.4834 1.71783 12.2618C1.51504 9.81157 0.746083 7.3586 0.761961 6.50798Z" fill="black"/>
<defs>
<linearGradient id="paint0_linear_75_3301" x1="7.24801" y1="34.7216" x2="17.6145" y2="34.7591" gradientUnits="userSpaceOnUse">
<stop stop-color="#BFAB8D"/>
<stop offset="0.5078" stop-color="#E7E1D2"/>
<stop offset="1" stop-color="#CCBFA6"/>
</linearGradient>
<linearGradient id="paint1_linear_75_3301" x1="-2.8138" y1="11.0123" x2="21.3185" y2="11.0995" gradientUnits="userSpaceOnUse">
<stop stop-color="#94938C"/>
<stop offset="0.2296" stop-color="#EDEBE1"/>
<stop offset="0.7988" stop-color="#EDEBE1"/>
<stop offset="1" stop-color="#94938C"/>
</linearGradient>
</defs>
</svg>
