<svg width="26" height="51" viewBox="0 0 26 51" fill="none" xmlns="http://www.w3.org/2000/svg">
<path d="M10.7417 2.25719C10.7417 2.25719 9.83574 0.203003 8.00158 0.717457C6.16742 1.23191 5.53365 6.02577 5.86573 9.55981C6.19735 13.0938 7.7693 24.3066 10.4718 24.5375C13.1742 24.7684 18.1165 18.4176 15.8681 14.8795C13.6193 11.3418 9.89925 5.1316 10.7417 2.25719Z" fill="url(#paint0_linear_75_3228)"/>
<path d="M22.5651 32.7097C19.3663 32.4792 15.7366 30.9155 12.5319 30.7889C10.5217 30.7095 8.51063 30.5766 6.49818 30.641C5.56772 30.6705 4.18359 33.1511 3.2817 33.0363C2.69648 32.9619 3.08255 30.5584 3.1066 29.9365C3.12701 29.407 3.17192 28.8799 3.09435 28.3522C2.8158 26.4505 1.76965 24.6449 1.33459 22.7431C0.831022 20.5433 0.490777 18.3008 0.281638 16.0543C0.0597969 13.6712 -0.0336612 11.2368 0.278005 8.85686C0.412289 7.83067 0.595568 6.7886 1.00296 5.83091C1.32007 5.08554 2.08903 3.62247 3.07166 3.73452C3.43233 3.77581 3.75534 3.98087 4.02526 4.22449C4.55424 4.7022 4.92261 5.33823 5.16622 6.00829C5.66843 7.39061 5.65754 8.8791 5.75417 10.3272C5.85397 11.8202 6.26091 13.203 6.59571 14.652C7.21723 17.3445 7.95126 20.5134 9.7151 22.7204C10.1443 23.2576 10.7894 23.6922 11.474 23.6273C11.8251 23.5937 12.1531 23.4322 12.4398 23.2267C13.4728 22.4859 13.9981 21.2075 14.1773 19.949C14.5443 17.3704 14.2681 14.5259 13.5789 12.0262C13.1747 10.559 12.428 9.24521 11.9716 7.81072C11.4894 6.29411 10.8352 3.28539 12.9733 2.70787C13.8362 2.47469 14.7548 2.91566 15.4 3.53446C17.7917 5.82774 19.4071 9.23703 20.7904 12.1931C21.6387 14.0055 22.4576 15.8792 22.9797 17.8163C23.2937 18.9809 23.2601 20.1413 23.227 21.344C23.1335 24.7057 22.9385 29.3762 22.5651 32.7097Z" fill="url(#paint1_linear_75_3228)"/>
<path d="M3.62646 34.8752C3.35426 34.9582 2.96411 35.6977 2.81304 35.9104C2.21465 36.7547 1.69656 37.6634 1.30867 38.6243C0.263424 41.2134 0.41495 44.0529 2.3757 46.1738C2.39883 46.1987 2.42243 46.2237 2.44556 46.2486C2.55127 46.3598 2.6615 46.4682 2.7477 46.5948C2.98951 46.95 3.04713 47.395 3.27623 47.7593C3.49263 48.1037 3.81065 48.4258 4.11869 48.6857C4.8441 49.2982 5.8104 49.7237 6.77535 49.6284C7.10698 49.5958 7.4232 49.4778 7.73486 49.3608C9.08815 48.8527 10.5576 48.2733 11.2753 46.9296C11.1936 47.0829 11.5661 47.7067 11.66 47.8337C11.885 48.1395 12.1608 48.2724 12.5088 48.4067C13.6579 48.8509 14.9087 49.2074 16.0102 49.7582C16.7714 50.0513 17.4138 50.3298 18.1882 50.0758C18.6392 49.9279 19.096 49.7981 19.542 49.6348C20.3767 49.3295 21.7654 48.7951 21.7654 47.7121C21.7654 46.0377 23.1609 41.0147 19.8119 35.9916C16.4648 30.9705 3.63735 34.872 3.62646 34.8752Z" fill="#D8D6D0"/>
<path d="M3.60972 30.748C3.29079 30.845 2.8335 31.7115 2.65703 31.9606C1.95612 32.9496 1.34958 34.0139 0.895009 35.139C-0.329425 38.1717 -0.151588 41.4975 2.1444 43.9809C2.17162 44.0099 2.19928 44.0394 2.2265 44.0685C2.35035 44.1987 2.47919 44.3257 2.58036 44.474C2.8639 44.8905 2.93105 45.4109 3.19916 45.8382C3.4523 46.2411 3.82476 46.6185 4.18588 46.9234C5.03559 47.6406 6.16747 48.1387 7.29708 48.0276C7.68542 47.9895 8.05561 47.8511 8.42081 47.7141C10.0059 47.1194 11.7271 46.4402 12.5677 44.8665C12.472 45.0457 12.9084 45.7765 13.0182 45.9258C13.2818 46.2837 13.6053 46.4393 14.0122 46.5967C15.3582 47.1171 16.8231 47.5345 18.1133 48.1796C19.0048 48.523 19.7569 48.8492 20.6642 48.5516C21.1923 48.3783 21.7276 48.2263 22.2498 48.0353C23.2274 47.6778 24.8543 47.0518 24.8543 45.7833C24.8543 43.8221 26.4884 37.939 22.5665 32.0559C18.6459 26.1746 3.62197 30.7443 3.60972 30.748Z" fill="url(#paint2_linear_75_3228)"/>
<path d="M25.2126 42.1963C25.2126 39.0642 25.1772 38.8768 24.5774 36.5255C24.5207 36.3581 22.849 35.0525 22.8585 35.043L22.0193 35.8028L21.6904 36.7714L20.7922 37.2142L20.7609 38.0063L21.5157 39.8191L21.1891 39.8282L20.3902 40.0101L20.0722 40.7931L20.3585 41.2826L19.927 41.9232L19.1096 42.3119L18.014 43.0423L18.7938 43.6611L18.8637 44.5458L17.4297 46.2801L18.8582 46.5791L19.2193 47.5027L20.6189 48.5493C20.6189 48.5493 22.6118 48.3991 23.853 47.2772C25.0765 46.5968 25.2126 45.3283 25.2126 42.1963Z" fill="black"/>
<defs>
<linearGradient id="paint0_linear_75_3228" x1="14.2509" y1="23.5111" x2="-4.31092" y2="-21.8539" gradientUnits="userSpaceOnUse">
<stop offset="0.1599" stop-color="#BFAB8D"/>
<stop offset="0.5078" stop-color="#E7E1D2"/>
<stop offset="0.7297" stop-color="#CCBFA6"/>
</linearGradient>
<linearGradient id="paint1_linear_75_3228" x1="1.37786" y1="17.5241" x2="22.2882" y2="18.4695" gradientUnits="userSpaceOnUse">
<stop offset="0.1599" stop-color="#BFAB8D"/>
<stop offset="0.5078" stop-color="#E7E1D2"/>
<stop offset="0.7297" stop-color="#CCBFA6"/>
</linearGradient>
<linearGradient id="paint2_linear_75_3228" x1="-5.64637" y1="41.1874" x2="29.1758" y2="37.5306" gradientUnits="userSpaceOnUse">
<stop stop-color="#94938C"/>
<stop offset="0.2296" stop-color="#EDEBE1"/>
<stop offset="0.7988" stop-color="#EDEBE1"/>
<stop offset="1" stop-color="#94938C"/>
</linearGradient>
</defs>
</svg>
