<svg width="29" height="50" viewBox="0 0 29 50" fill="none" xmlns="http://www.w3.org/2000/svg">
<path d="M9.18782 0.463788C7.87496 0.553161 6.86152 0.938326 5.78365 1.67871C5.49196 1.87923 5.21569 2.12104 5.2733 2.40776C5.54186 3.74699 15.4168 2.67088 15.322 1.49634C15.263 0.798596 12.0517 0.611233 11.3326 0.534109C10.5211 0.446551 9.81975 0.42069 9.18782 0.463788Z" fill="#D8D6D0"/>
<path d="M19.3517 45.8313C20.0272 47.9953 18.4322 48.8781 16.9505 47.5961C14.086 45.1173 12.4283 41.1409 10.9703 37.4984C10.2952 35.8117 7.39673 29.8805 8.92196 28.4469C10.4354 27.0247 16.368 29.7331 16.6719 33.5393C16.8371 35.6039 16.906 37.6745 17.2612 39.74C17.6478 41.9852 18.6898 43.7114 19.3517 45.8313Z" fill="url(#paint0_linear_75_3313)"/>
<path d="M2.57608 20.5575C2.7639 21.3319 2.9304 22.1199 2.96714 22.2723C3.28244 23.5803 3.55601 24.8986 3.77558 26.226C3.95478 27.3107 4.09813 28.4018 4.20474 29.496C4.30817 30.5567 4.2179 31.7244 4.42023 32.7642C4.61893 33.7891 4.98457 34.8643 5.32981 35.8541C6.36642 38.827 7.93654 41.5935 9.80108 44.1222C10.7365 45.3906 11.7482 46.6024 12.8161 47.7615C13.4721 48.4737 14.8666 50.5824 16.0257 49.7063C16.4608 49.3774 16.6354 48.7909 16.6073 48.246C16.5792 47.7012 16.3796 47.1822 16.1904 46.6704C14.7333 42.7222 13.3478 37.8335 14.1671 33.5976C14.2524 33.1562 14.3858 32.7003 14.7024 32.3814C15.1175 31.9635 15.7821 31.8696 16.3501 32.0261C16.9181 32.1826 17.4026 32.5542 17.8254 32.9643C19.2767 34.3729 20.3078 36.3532 21.1947 38.1542C21.8661 39.5179 22.3593 40.971 22.6428 42.465C22.9141 43.8949 22.6836 45.5943 23.258 46.9363C23.5796 47.6884 24.2968 48.3331 25.1143 48.3095C25.7508 48.2914 26.3143 47.8817 26.7339 47.4026C28.28 45.6374 28.5762 42.8247 28.6665 40.5741C28.7799 37.7378 28.3762 34.9114 27.9366 32.1173C27.3382 28.3134 26.5692 24.5352 25.7105 20.7821C25.6773 20.6364 25.2101 18.2688 25.1157 18.2715C25.1157 18.2715 2.24129 18.9062 2.03125 18.9121C2.14829 18.9098 2.37466 19.7259 2.57608 20.5575Z" fill="url(#paint1_linear_75_3313)"/>
<path d="M20.4737 0.287817C19.2878 0.220221 18.3224 0.479264 17.2431 1.08128C16.951 1.24415 16.6661 1.45011 16.672 1.7391C16.6987 3.09102 25.6826 3.20217 25.7846 2.03307C25.8427 1.33805 23.0064 0.772781 22.3772 0.610822C21.6663 0.428902 21.0444 0.320481 20.4737 0.287817Z" fill="#D8D6D0"/>
<path d="M4.53149 1.33768C3.57834 1.43295 2.68052 1.79997 1.90702 2.60659C0.910309 3.64594 0.411276 5.0877 0.287878 6.5222C0.0233893 9.59988 0.550097 13.2601 1.31907 16.2416C1.56314 17.1879 1.58763 19.1768 2.23728 19.9072C4.25883 22.1796 8.7007 21.074 11.3887 20.8876C14.4673 20.6739 17.7818 20.5718 20.5401 19.9072C22.3661 19.8156 25.7192 20.2198 26.2736 17.8049C26.9087 15.0371 27.2998 12.2066 27.4304 9.36987C27.5284 7.25033 27.8378 2.0132 24.791 1.60445C24.345 1.54456 23.5924 2.04723 23.1455 2.14885C22.2132 2.36026 21.3036 2.33167 20.3781 2.08578C19.2399 1.78364 18.1828 1.23924 17.0918 0.796008C16.8545 0.699831 16.6077 0.606828 16.3518 0.613633C15.7689 0.629512 15.3406 1.13444 14.8742 1.48467C12.9112 2.96 9.39255 2.19467 7.22537 1.62804C6.31577 1.38986 5.40027 1.25058 4.53149 1.33768Z" fill="url(#paint2_linear_75_3313)"/>
<path d="M0.968262 14.3335C0.594007 12.4911 0.392136 10.7608 0.242434 8.88946C0.176655 8.06424 0.0682375 6.89877 0.335887 6.10803C0.406655 5.89934 1.5217 4.10555 1.50991 4.09375L2.55464 5.0392L2.96429 6.24503L4.08207 6.79625L4.12108 7.78206L3.18159 10.0386L3.58849 10.0499L4.5829 10.2763L4.97893 11.2513L4.62281 11.8605L5.15992 12.6576L6.17745 13.1412L7.5411 14.0504L6.57029 14.8207L6.48366 15.9222L8.26828 18.0812L6.48999 18.4532L6.04089 19.6028L4.30526 20.8545L1.92136 19.3238C1.53213 17.6697 1.30759 16.0052 0.968262 14.3335Z" fill="black"/>
<defs>
<linearGradient id="paint0_linear_75_3313" x1="11.5885" y1="27.5386" x2="19.35" y2="71.8303" gradientUnits="userSpaceOnUse">
<stop offset="0.1599" stop-color="#BFAB8D"/>
<stop offset="0.5078" stop-color="#E7E1D2"/>
<stop offset="0.7297" stop-color="#CCBFA6"/>
</linearGradient>
<linearGradient id="paint1_linear_75_3313" x1="4.61808" y1="34.0379" x2="27.1447" y2="34.1193" gradientUnits="userSpaceOnUse">
<stop stop-color="#BFAB8D"/>
<stop offset="0.5078" stop-color="#E7E1D2"/>
<stop offset="1" stop-color="#CCBFA6"/>
</linearGradient>
<linearGradient id="paint2_linear_75_3313" x1="-5.48727" y1="10.9058" x2="33.3584" y2="11.0462" gradientUnits="userSpaceOnUse">
<stop stop-color="#94938C"/>
<stop offset="0.2296" stop-color="#EDEBE1"/>
<stop offset="0.7988" stop-color="#EDEBE1"/>
<stop offset="1" stop-color="#94938C"/>
</linearGradient>
</defs>
</svg>
