<svg width="27" height="49" viewBox="0 0 27 49" fill="none" xmlns="http://www.w3.org/2000/svg">
<path d="M15.8461 42.3591C16.0479 44.3162 14.7781 44.7613 13.8771 43.3976C12.1345 40.7617 11.4621 37.087 10.8904 33.7331C10.6255 32.1797 9.31529 26.6191 10.6074 25.6945C11.8895 24.7776 15.8193 28.1869 15.5357 31.4615C15.3819 33.2381 15.1578 35.0015 15.1415 36.8148C15.1229 38.7856 15.6478 40.4414 15.8461 42.3591Z" fill="url(#paint0_linear_75_3329)"/>
<path d="M4.21875 20.0974C4.90424 22.0558 5.45681 24.1001 5.77574 26.1506C5.99032 27.5307 5.95857 28.7574 5.74898 30.1234C5.39648 32.4189 5.37106 34.8148 5.46996 37.1303C5.6242 40.7419 7.35675 43.4621 8.74179 46.7108C9.2508 47.9044 10.4281 48.5309 11.4951 47.4326C12.8484 46.0398 12.4836 43.1123 12.5376 41.3457C12.6111 38.9277 12.6601 36.4929 13.1437 34.1134C13.3519 33.089 13.6445 32.0678 14.1794 31.1695C14.7111 30.2763 15.6937 29.8408 16.6351 30.4841C17.8886 31.3406 18.1712 33.217 18.604 34.5526C19.01 35.8051 19.378 37.0699 19.7332 38.3379C20.2349 40.129 20.699 41.9305 21.1772 43.7275C21.3754 44.4715 22.0223 46.219 23.1161 45.4596C23.4854 45.2028 23.6678 44.7582 23.8216 44.3359C24.3265 42.9467 24.7298 41.5236 25.1322 40.1018C25.6716 38.1969 26.1679 36.2974 26.2841 34.3135C26.4424 31.6087 25.3767 28.9361 24.8559 26.318C24.3025 23.5357 23.9568 20.7121 23.8243 17.8785C23.8157 17.692 23.8011 17.4892 23.6755 17.3513C23.5054 17.1653 23.2137 17.1798 22.9637 17.2084C19.892 17.5605 16.8138 17.8467 13.7452 18.2305C11.6688 18.4887 9.5897 18.7618 7.53143 19.141C6.6241 19.308 4.92148 19.3946 4.21875 20.0974Z" fill="url(#paint1_linear_75_3329)"/>
<path d="M1.81805 15.8517C1.71553 14.625 1.74363 13.3819 1.51 12.1702C1.14526 10.2788 0.190317 8.63108 0.325506 6.62721C0.651231 1.80286 7.393 1.42995 10.7827 2.76601C12.1922 3.32131 12.7707 2.79686 13.9556 2.0483C15.2395 1.23714 16.7542 0.8125 18.2717 0.8125C20.0069 0.8125 21.9218 1.30609 23.4039 2.21797C25.5964 3.5672 25.5946 5.78066 25.7452 8.10391C25.9122 10.6735 25.8527 13.3207 25.003 15.7778C24.7431 16.53 24.3988 17.269 23.8571 17.852C23.0872 18.6808 22.1065 18.7901 21.0662 19.0297C19.6463 19.3568 18.2105 19.6335 16.7792 19.9044C13.9724 20.4356 11.1393 20.868 8.28354 21.0113C6.92937 21.0794 5.52714 20.9419 4.3245 20.3154C2.58246 19.4085 1.9723 17.7027 1.81805 15.8517Z" fill="url(#paint2_linear_75_3329)"/>
<path d="M1.72704 13.9159C1.54557 11.9652 0.728932 9.10707 0.547457 8.42657C0.365982 7.74607 -0.133074 7.38313 0.592826 5.2509C0.663601 5.04221 1.36409 3.84453 2.45294 3.11866C3.54179 2.3928 3.46829 4.64617 3.46829 4.64617L3.87798 5.85201L4.99585 6.40322L5.03489 7.38904L4.0953 9.64558L4.50225 9.65692L5.49673 9.8833L5.89282 10.8582L5.53665 11.4675L6.07385 12.2646L7.09146 12.7482L8.45522 13.6574L7.48436 14.4277L7.3977 15.5292L9.18249 17.6877L7.40403 18.0598L6.95491 19.2093L5.13014 20.6756C5.13014 20.6756 4.05128 20.4306 3.22466 19.6321C2.50919 18.9412 2.12583 17.4999 2.04507 17.137C1.84545 16.2437 1.90852 15.8667 1.72704 13.9159Z" fill="black"/>
<defs>
<linearGradient id="paint0_linear_75_3329" x1="12.6541" y1="25.428" x2="10.5445" y2="64.2334" gradientUnits="userSpaceOnUse">
<stop offset="0.1599" stop-color="#BFAB8D"/>
<stop offset="0.5078" stop-color="#E7E1D2"/>
<stop offset="0.7297" stop-color="#CCBFA6"/>
</linearGradient>
<linearGradient id="paint1_linear_75_3329" x1="6.74544" y1="33.9888" x2="24.2395" y2="30.5847" gradientUnits="userSpaceOnUse">
<stop stop-color="#BFAB8D"/>
<stop offset="0.5078" stop-color="#E7E1D2"/>
<stop offset="1" stop-color="#CCBFA6"/>
</linearGradient>
<linearGradient id="paint2_linear_75_3329" x1="-3.76001" y1="13.9355" x2="29.5377" y2="7.45634" gradientUnits="userSpaceOnUse">
<stop stop-color="#94938C"/>
<stop offset="0.2114" stop-color="#EDEBE1"/>
<stop offset="0.847" stop-color="#EDEBE1"/>
<stop offset="1" stop-color="#94938C"/>
</linearGradient>
</defs>
</svg>
