<svg width="20" height="70" viewBox="0 0 20 70" fill="none" xmlns="http://www.w3.org/2000/svg">
<path d="M16.0309 45.479C16.0309 45.479 3.94928 42.4507 2.94531 44.1774L7.82451 9.62468C7.82451 9.62468 7.67298 0.744141 8.98045 0.744141C10.2879 0.744141 11.5954 4.6661 11.5954 4.6661C11.5954 4.6661 15.7396 37.2091 16.0309 45.479Z" fill="url(#paint0_linear_75_3119)"/>
<path d="M13.707 41.9822C13.7074 41.9831 20.8976 51.4611 19.5901 59.305C19.1682 61.836 18.3044 64.4814 16.7788 66.5687C16.0347 67.5867 15.068 68.5081 13.849 68.9119C12.2366 69.4459 10.1675 69.0267 8.55105 68.666C7.75532 68.4886 6.97363 68.2441 6.23234 67.9029C1.04964 65.5194 -0.319526 59.374 0.0973941 54.1659C0.390463 50.5075 1.50105 46.9585 2.94462 43.6058C3.88099 41.431 6.06223 40.8612 8.23938 40.5531C9.87802 40.3213 12.5928 40.5132 13.707 41.9822Z" fill="url(#paint1_linear_75_3119)"/>
<path d="M13.7148 42.0329C13.7152 42.0338 20.9054 51.5117 19.598 59.3556C19.176 61.8866 18.3123 64.5319 16.7866 66.6192C16.0426 67.6372 15.0758 68.5586 13.8568 68.9624C12.2444 69.4963 10.1753 69.0771 8.55886 68.7165C7.76313 68.5391 6.98144 68.2946 6.24015 67.9534C1.05745 65.5699 -0.311714 59.4245 0.105207 54.2165C0.398276 50.5581 1.50887 47.0091 2.95244 43.6566C3.8888 41.4817 6.07004 40.9119 8.24719 40.6038C9.88583 40.372 12.6006 40.5644 13.7148 42.0329Z" fill="url(#paint2_linear_75_3119)"/>
<path d="M19.1208 61.4978C19.2429 60.8958 19.4892 60.0488 19.6198 59.0933C19.8108 57.6997 19.8136 55.9825 19.3023 53.6946C19.2456 53.5272 17.0522 52.0759 17.0617 52.0664L16.2224 52.8263L15.8935 53.7949L14.9953 54.2377L14.964 55.0298L15.7189 56.8427L15.3922 56.8518L14.5934 57.0337L14.2753 57.8167L14.5616 58.3062L14.1302 58.9468L13.3127 59.3356L12.2171 60.066L12.9969 60.6848L13.0668 61.5695L11.6328 63.3039L13.0614 63.6029L13.4225 64.5265L15.492 68.0307C15.492 68.0307 16.4447 67.3502 17.6242 65.3087C18.2607 64.2689 19.002 62.0817 19.1208 61.4978Z" fill="black"/>
<defs>
<linearGradient id="paint0_linear_75_3119" x1="4.606" y1="23.355" x2="14.2106" y2="23.0591" gradientUnits="userSpaceOnUse">
<stop stop-color="#BFAB8D"/>
<stop offset="0.5078" stop-color="#E7E1D2"/>
<stop offset="1" stop-color="#CCBFA6"/>
</linearGradient>
<linearGradient id="paint1_linear_75_3119" x1="-5.48127" y1="54.5275" x2="26.3233" y2="55.096" gradientUnits="userSpaceOnUse">
<stop stop-color="#94938C"/>
<stop offset="0.2666" stop-color="#EDEBE1"/>
<stop offset="0.7117" stop-color="#EDEBE1"/>
<stop offset="1" stop-color="#94938C"/>
</linearGradient>
<linearGradient id="paint2_linear_75_3119" x1="-6.2444" y1="54.5645" x2="26.7083" y2="55.1535" gradientUnits="userSpaceOnUse">
<stop stop-color="#94938C"/>
<stop offset="0.0617" stop-color="#A4A29B"/>
<stop offset="0.1809" stop-color="#CCCAC2"/>
<stop offset="0.2666" stop-color="#EDEBE1"/>
<stop offset="0.7117" stop-color="#EDEBE1"/>
<stop offset="0.7719" stop-color="#E0DED5"/>
<stop offset="0.883" stop-color="#BEBDB4"/>
<stop offset="1" stop-color="#94938C"/>
</linearGradient>
</defs>
</svg>
