<svg width="20" height="61" viewBox="0 0 20 61" fill="none" xmlns="http://www.w3.org/2000/svg">
<path d="M13.3132 34.7855C13.3132 34.7855 16.5815 36.093 17.5623 43.6102C17.5623 43.6102 18.5427 51.4546 18.8698 53.7425C19.1964 56.0303 19.1964 58.9719 15.6015 59.9523C12.0062 60.9326 8.73795 60.2789 6.77674 59.6256C4.81552 58.9719 1.87393 57.0107 1.22019 54.7228C0.566449 52.435 1.22018 41.3224 2.20056 39.3612C3.18094 37.4004 5.46881 32.171 13.3132 34.7855Z" fill="url(#paint0_linear_75_3181)"/>
<path d="M10.0469 3.73503C10.0469 3.73503 17.2213 19.4201 14.2879 35.9272C14.2879 35.9272 3.88556 34.6941 3.37109 37.5177C4.83011 30.6506 5.53103 23.4237 5.24385 16.4136C5.12771 13.5696 4.92673 10.7297 4.84689 7.88426C4.79517 6.03149 4.47306 3.91468 5.26835 2.18894C5.60226 1.46352 6.15438 0.397414 7.06037 0.312579C8.59787 0.168767 9.58552 2.67481 10.0469 3.73503Z" fill="url(#paint1_linear_75_3181)"/>
<path d="M18.9605 55.8613C19.2608 54.3814 18.2668 48.9546 18.0518 48.3194C17.9951 48.152 17.0991 46.7107 17.1087 46.7012L16.2694 47.4611L15.9405 48.4297L15.0422 48.8725L15.0109 49.6646L15.7658 51.4775L15.4392 51.4865L14.6403 51.6685L14.3223 52.4515L14.6085 52.941L14.1771 53.5816L13.3596 53.9704L12.264 54.7008L13.0439 55.3196L13.1137 56.2043L11.6797 57.9387L13.1087 58.2377L13.4698 59.1609L14.8644 60.1667C14.8644 60.1667 16.7289 59.9507 17.8282 58.8102C18.672 57.9319 18.8416 56.4452 18.9605 55.8613Z" fill="black"/>
<defs>
<linearGradient id="paint0_linear_75_3181" x1="23.4786" y1="47.9099" x2="-2.53203" y2="46.6067" gradientUnits="userSpaceOnUse">
<stop stop-color="#94938C"/>
<stop offset="0.1599" stop-color="#D1CFC6"/>
<stop offset="0.2296" stop-color="#EDEBE1"/>
<stop offset="0.7988" stop-color="#EDEBE1"/>
<stop offset="0.9762" stop-color="#9F9E96"/>
<stop offset="1" stop-color="#94938C"/>
</linearGradient>
<linearGradient id="paint1_linear_75_3181" x1="6.00017" y1="18.925" x2="14.9812" y2="19.0856" gradientUnits="userSpaceOnUse">
<stop stop-color="#BFAB8D"/>
<stop offset="0.5078" stop-color="#E7E1D2"/>
<stop offset="1" stop-color="#CCBFA6"/>
</linearGradient>
</defs>
</svg>
