<svg width="26" height="75" viewBox="0 0 26 75" fill="none" xmlns="http://www.w3.org/2000/svg">
<path d="M13.0092 0.895442C14.5621 2.42112 15.3361 5.67435 16.1178 7.6605C18.5077 13.7323 20.3242 20.0383 21.3767 26.4817C21.9007 29.6886 22.2355 32.9274 22.363 36.1747C22.4274 37.8079 22.4396 39.4429 22.3984 41.077C22.3648 42.4144 22.5853 44.3593 22.0295 45.5724C21.3454 44.7993 20.8581 43.8698 20.1341 43.1262C18.3639 41.3079 16.0751 40.0077 13.4906 40.0064C12.3995 40.0059 11.3275 40.2273 10.3081 40.5997C9.89434 40.7508 9.48966 40.9264 9.09543 41.1224C7.94538 41.694 6.56124 43.4193 5.33724 43.5123C5.1585 41.1201 5.76367 38.4353 5.99096 36.0363C5.99096 29.9463 7.19411 23.5147 8.10553 17.5059C8.37955 15.6985 8.79191 13.9152 8.7538 12.0824C8.71433 10.1901 8.50203 8.30016 8.63042 6.40656C8.74565 4.71122 8.95796 0.616892 11.293 0.356942C11.7521 0.305677 12.204 0.475804 12.6345 0.643207C12.7729 0.697193 12.8967 0.784747 13.0092 0.895442Z" fill="url(#paint0_linear_75_3166)"/>
<path d="M25.2916 69.5401C25.2916 69.5401 27.5794 42.7394 15.4866 38.8171C15.4866 38.8171 1.75911 36.5292 0.452105 60.3883C0.452105 60.3883 -1.18198 71.5008 5.02778 72.8083C15.8132 75.0961 25.2916 74.7695 25.2916 69.5401Z" fill="url(#paint1_linear_75_3166)"/>
<path d="M25.6391 63.8579C25.5239 61.855 25.3238 60.0376 25.0294 58.4248L24.8511 57.4526L24.5131 55.9038L22.679 54.0859L21.9077 55.2655L21.817 56.5357L20.8752 57.3523L21.087 58.3159L22.5678 60.2608L22.1772 60.3751L21.2726 60.846L21.1365 61.8895L21.6355 62.3885L21.318 63.2958L20.456 64.0217L19.3672 65.2466L20.5014 65.7456L20.8643 66.7891L19.6848 69.3296L21.4994 69.2388L22.2253 70.2369L24.2214 71.0081L25.768 68.9698L25.6391 63.8579Z" fill="black"/>
<defs>
<linearGradient id="paint0_linear_75_3166" x1="18.6959" y1="22.9253" x2="5.21477" y2="23.1663" gradientUnits="userSpaceOnUse">
<stop stop-color="#BFAB8D"/>
<stop offset="0.5078" stop-color="#E7E1D2"/>
<stop offset="1" stop-color="#CCBFA6"/>
</linearGradient>
<linearGradient id="paint1_linear_75_3166" x1="30.3663" y1="56.4505" x2="-4.65324" y2="56.4683" gradientUnits="userSpaceOnUse">
<stop stop-color="#94938C"/>
<stop offset="0.2296" stop-color="#EDEBE1"/>
<stop offset="0.7876" stop-color="#EDEBE1"/>
<stop offset="1" stop-color="#94938C"/>
</linearGradient>
</defs>
</svg>
