<svg width="27" height="75" viewBox="0 0 27 75" fill="none" xmlns="http://www.w3.org/2000/svg">
<path d="M13.2958 0.895442C11.7429 2.42112 10.9689 5.67435 10.1873 7.6605C7.79737 13.7323 5.98091 20.0383 4.92841 26.4817C4.40443 29.6886 4.06964 32.9274 3.94216 36.1747C3.87774 37.8079 3.86548 39.4429 3.90676 41.077C3.94034 42.4144 3.71987 44.3593 4.27561 45.5724C4.95973 44.7993 5.44696 43.8698 6.171 43.1262C7.94119 41.3079 10.2299 40.0077 12.8144 40.0064C13.9055 40.0059 14.9775 40.2273 15.9969 40.5997C16.4106 40.7508 16.8153 40.9264 17.2095 41.1224C18.3595 41.694 19.7437 43.4193 20.9672 43.5123C21.1459 41.1201 20.5412 38.4353 20.3135 36.0363C20.3135 29.9463 19.1104 23.5147 18.199 17.5059C17.9249 15.6985 17.5126 13.9152 17.5507 12.0824C17.5901 10.1901 17.8025 8.30016 17.6741 6.40656C17.5588 4.71122 17.3465 0.616892 15.0115 0.356942C14.5524 0.305677 14.1006 0.475804 13.67 0.643207C13.5321 0.697193 13.4083 0.784747 13.2958 0.895442Z" fill="url(#paint0_linear_75_3171)"/>
<path d="M1.01224 69.5401C1.01224 69.5401 -1.27557 42.7394 10.8172 38.8171C10.8172 38.8171 24.5445 36.5292 25.8514 60.3883C25.8514 60.3883 27.4855 71.5008 21.2758 72.8083C10.4905 75.0961 1.01224 74.7695 1.01224 69.5401Z" fill="url(#paint1_linear_75_3171)"/>
<path d="M0.777344 63.675C0.796398 61.6689 0.909823 59.8443 1.12668 58.2193L1.25823 57.2399L1.52182 55.6765L3.26708 53.7734L4.09364 54.9148L4.24516 56.1792L5.22508 56.9495L5.0595 57.9222L3.67356 59.9355L4.06914 60.0308L4.99508 60.4581L5.18109 61.4938L4.70656 62.016L5.06721 62.907L5.96275 63.5906L7.1087 64.762L5.9995 65.3146L5.68692 66.3743L6.98667 68.8554L5.16975 68.8513L4.49242 69.8829L2.5353 70.7485L0.893485 68.7864L0.777344 63.675Z" fill="black"/>
<defs>
<linearGradient id="paint0_linear_75_3171" x1="7.60937" y1="22.9253" x2="21.0903" y2="23.1663" gradientUnits="userSpaceOnUse">
<stop stop-color="#BFAB8D"/>
<stop offset="0.5078" stop-color="#E7E1D2"/>
<stop offset="1" stop-color="#CCBFA6"/>
</linearGradient>
<linearGradient id="paint1_linear_75_3171" x1="-4.0626" y1="56.4505" x2="30.9565" y2="56.4684" gradientUnits="userSpaceOnUse">
<stop stop-color="#94938C"/>
<stop offset="0.2296" stop-color="#EDEBE1"/>
<stop offset="0.7876" stop-color="#EDEBE1"/>
<stop offset="1" stop-color="#94938C"/>
</linearGradient>
</defs>
</svg>
