<svg width="10" height="30" viewBox="0 0 10 30" fill="none" xmlns="http://www.w3.org/2000/svg">
<path d="M2.50008 24C2.50008 26.8 2.50008 29 5.00008 29C7.50008 29 7.80008 26.8 7.80008 24L8.30008 17C6.80008 17.8 3.60007 19.6 2.20007 20.3L2.50008 24Z" fill="#8C8D92"/>
<path d="M2.10002 19.2L8.40002 15.9L8.60002 12.9C7.00002 13.8 3.40002 15.8 1.90002 16.7L2.10002 19.2Z" fill="#8C8D92"/>
<path d="M1.79998 15.6L8.69997 11.7L8.89998 8.70001C7.49998 9.50001 2.99998 12.1 1.59998 12.9L1.79998 15.6Z" fill="#8C8D92"/>
<path d="M1.50002 11.9L9.00002 7.60003L9.30003 4.00003C9.30003 1.30003 0.900024 1.00002 0.900024 3.70002L1.50002 11.9Z" fill="#8C8D92"/>
<path d="M1.6 13C3 12.2 7.5 9.50002 8.9 8.80002L9 7.70001L1.5 12L1.6 13Z" fill="#BBBCC1"/>
<path d="M1.30005 15.9C1.40005 16.2 1.50005 16.6 1.50005 16.9C1.60005 16.8 1.70005 16.8 1.90005 16.7L1.80005 15.6L1.30005 15.9Z" fill="#BBBCC1"/>
<path d="M1.90005 16.7C3.50005 15.8 7.10004 13.7 8.60004 12.9L8.70004 11.8L1.80005 15.7L1.90005 16.7Z" fill="#BBBCC1"/>
<path d="M2.19997 20.2C3.59997 19.5 6.89998 17.7 8.29998 17L8.39997 15.9L2.09998 19.2L2.19997 20.2Z" fill="#BBBCC1"/>
<path d="M8.59992 20C8.49992 20 1.79993 23.5 1.79993 23.5L1.99992 22.4L8.79993 19L8.59992 20Z" fill="#BBBCC1"/>
<path d="M8.1 23.5C8 23.5 2 26.3 2 26.3L2.2 25.3L8.3 22.5L8.1 23.5Z" fill="#BBBCC1"/>
<path d="M7.89993 26.2C7.79993 26.2 2.79993 28.5 2.79993 28.5L2.89993 27.7L7.99992 25.4L7.89993 26.2Z" fill="#BBBCC1"/>
<path d="M5.10002 5.20004C7.41962 5.20004 9.30003 4.43893 9.30003 3.50005C9.30003 2.56116 7.41962 1.80005 5.10002 1.80005C2.78043 1.80005 0.900024 2.56116 0.900024 3.50005C0.900024 4.43893 2.78043 5.20004 5.10002 5.20004Z" fill="#527F3F"/>
<path d="M5.09998 4.70004C6.75683 4.70004 8.09998 4.16279 8.09998 3.50005C8.09998 2.8373 6.75683 2.30005 5.09998 2.30005C3.44312 2.30005 2.09998 2.8373 2.09998 3.50005C2.09998 4.16279 3.44312 4.70004 5.09998 4.70004Z" fill="#79B565"/>
<path d="M9.49998 3.50004L7.89998 24.2C7.89998 27 7.59998 29.3 4.99998 29.3C2.39998 29.3 2.29998 27 2.29998 24.2L0.599976 3.20003C0.699976 0.400032 9.49998 0.700036 9.49998 3.50004Z" stroke="#B46766" stroke-miterlimit="10"/>
<path d="M7.04651 28.4563C7.51162 27.9411 8.44186 19.4401 9 13.0859C5.83721 13.4293 3.04651 13.2576 1 13C1.37209 19.6977 1.83721 28.0269 2.67442 28.3704C4.16279 29.0574 6.30232 29.315 7.04651 28.4563Z" fill="#B46766"/>
</svg>
