<svg width="25" height="43" viewBox="0 0 25 43" fill="none" xmlns="http://www.w3.org/2000/svg">
<path d="M6.23329 2.95908C5.69978 1.22333 7.31665 0.406724 8.69352 1.37259C11.3552 3.23945 12.7443 6.40425 13.957 9.30684C14.5186 10.6511 17.0079 15.347 15.4264 16.6114C13.8572 17.8658 8.20039 15.9885 8.12916 12.8849C8.0906 11.2009 8.14595 9.50691 7.92048 7.83331C7.6755 6.01455 6.75637 4.65943 6.23329 2.95908Z" fill="url(#paint0_linear_77_4586)"/>
<path d="M22.0231 26.8842C22.9853 20.5764 22.9699 12.9657 20.1663 7.12795C19.5148 5.77104 18.6279 4.5298 17.5713 3.45824C17.1566 3.03769 14.6864 0.512579 14.1674 1.1341C13.638 1.76787 14.1166 3.18422 14.2105 3.88877C14.3675 5.06785 14.5163 6.24784 14.6392 7.431C14.8883 9.83135 15.5085 12.4322 14.8597 14.8208C14.7168 15.3466 14.3866 15.8665 13.8685 16.0348C13.5949 16.1237 13.2968 16.1056 13.016 16.0448C11.2386 15.6596 9.95242 13.8676 8.85954 12.5529C7.29666 10.6734 6.39977 8.56199 5.61901 6.26417C5.23974 5.14815 4.80603 4.06388 3.85288 3.32032C3.62333 3.14112 1.37451 0.381924 1.02065 0.46676C-0.144367 0.745311 0.258035 3.88831 0.300226 4.60284C0.626865 10.1593 4.70079 20.0203 4.70079 20.0203C4.70079 20.0203 5.68116 26.23 4.70079 28.1912C3.72041 30.1529 20.7161 30.1529 22.0231 26.8842Z" fill="url(#paint1_linear_77_4586)"/>
<path d="M23.0042 27.8634C23.0037 27.863 20.3892 24.9219 14.5061 24.9219C8.62298 24.9219 4.37395 26.8831 3.39358 29.4975C2.4132 32.112 2.08611 39.3025 5.68141 40.61C6.81875 41.0237 8.06905 41.1262 9.09434 40.3931C9.97127 39.7662 10.3179 38.6139 11.6367 39.0412C12.2115 39.2272 12.6855 39.6305 13.1728 39.988C15.315 41.5595 18.9557 43.1895 21.3955 41.3345C24.7308 38.7985 25.9085 31.1312 23.0042 27.8634Z" fill="url(#paint2_linear_77_4586)"/>
<path d="M6.24501 2.98247C5.71151 1.24676 7.32835 0.430174 8.70521 1.39602C11.3668 3.26283 12.7559 6.42756 13.9686 9.33009C14.5302 10.6743 17.0195 15.3701 15.438 16.6345C13.8688 17.8889 8.21209 16.0116 8.14086 12.9081C8.1023 11.2241 8.15765 9.53015 7.93218 7.8566C7.6872 6.03832 6.76808 4.68279 6.24501 2.98247Z" fill="url(#paint3_linear_77_4586)"/>
<path d="M22.0344 26.9067C22.9966 20.5989 22.9812 12.9882 20.1775 7.15035C19.5261 5.79343 18.6391 4.55219 17.5825 3.48062C17.1679 3.06007 14.6977 0.534953 14.1787 1.15648C13.6493 1.79025 14.1279 3.20661 14.2218 3.91115C14.3788 5.09024 14.5276 6.27023 14.6505 7.4534C14.8996 9.85376 15.5197 12.4546 14.871 14.8432C14.7281 15.369 14.3978 15.8889 13.8797 16.0572C13.6062 16.1461 13.3081 16.128 13.0273 16.0672C11.2498 15.682 9.96367 13.89 8.87079 12.5753C7.30791 10.6958 6.41101 8.5844 5.63025 6.28657C5.25099 5.17054 4.81728 4.08627 3.86413 3.3427C3.63457 3.16351 3.17138 2.74795 2.81752 2.83278C1.65251 3.11133 2.05491 6.25436 2.0971 6.96889C2.42374 12.5254 4.71203 20.0427 4.71203 20.0427C4.71203 20.0427 5.6924 26.2525 4.71203 28.2137C3.73166 30.1754 20.7274 30.1754 22.0344 26.9067Z" fill="url(#paint4_linear_77_4586)"/>
<path d="M23.0159 27.8869C23.0155 27.8864 20.401 24.9453 14.5179 24.9453C8.63472 24.9453 4.38567 26.9065 3.4053 29.521C2.42492 32.1355 2.09783 39.3262 5.69314 40.6336C6.83048 41.0474 8.08079 41.1499 9.10607 40.4168C9.98301 39.7898 10.3296 38.6375 11.6484 39.0649C12.2232 39.2509 12.6973 39.6542 13.1845 40.0117C15.3267 41.5832 18.9674 43.2132 21.4072 41.3581C24.7426 38.8221 25.9203 31.1542 23.0159 27.8869Z" fill="url(#paint5_linear_77_4586)"/>
<path d="M21.4326 38.6812C21.6916 38.4462 21.9026 38.1459 22.0482 37.768C22.6085 36.3153 23.0989 34.8173 23.2082 33.2698C23.2853 32.1779 23.1624 31.0555 22.7554 30.0302C22.3322 28.9632 21.6358 28.0568 21.3863 26.9131C21.2397 26.2416 21.2438 25.5489 21.2488 24.8625C21.2801 20.2959 21.7923 15.4334 20.7443 10.9467C20.1936 8.58894 19.0676 6.54516 17.6086 4.61254C17.0497 3.8726 16.9408 3.01382 16.3397 2.30564C16.2018 2.14323 15.7045 1.55617 15.387 1.4237C15.0694 1.29123 14.6743 0.968676 14.7065 1.29123C15.1016 5.26537 16.1119 10.8922 15.6601 14.8605C15.6134 15.2706 15.3466 16.6579 13.5269 16.7654C11.7073 16.8729 10.7251 15.5446 9.50019 14.1654C7.67327 12.108 6.36444 9.61196 5.37001 7.10137C5.09735 6.41315 4.03894 2.88361 3.09259 2.7457C2.50282 2.6595 2.51371 3.66528 2.54864 4.37799C2.66705 6.79242 2.78728 9.2395 3.46506 11.5791C4.16733 14.003 4.8442 16.3648 5.34369 18.8468C5.8704 21.4627 6.41888 25.249 4.80655 27.5623C2.63802 30.6744 2.71332 36.0309 6.16528 38.2883C6.64481 38.6018 7.03496 38.6367 7.50133 38.3196C8.53933 37.6133 9.69028 37.0648 10.9002 36.6991C11.26 36.5907 11.6324 36.4972 12.0085 36.5168C12.7103 36.5535 13.2847 37.17 13.8477 37.5357C14.5395 37.9848 15.2609 38.3963 16.0244 38.7202C17.5646 39.3749 20.1174 39.873 21.4326 38.6812Z" fill="#FCF2D9"/>
<path d="M15.8001 1.82422C15.8001 1.82422 16.7106 6.2638 17.5009 8.7753C18.2912 11.2868 19.1813 25.2302 18.391 28.0462C17.6007 30.8621 9.14255 31.1193 8.46024 29.4072C7.77793 27.695 6.60339 18.6099 6.60339 18.6099C6.60339 18.6099 5.17842 12.1678 4.70343 10.3985C4.22845 8.62922 2.94049 3.49825 3.27847 2.82229C3.27847 2.82229 5.91245 11.5327 5.60986 10.4893C5.30726 9.44582 8.19576 15.8362 8.45979 16.4323C8.99875 17.6499 10.6084 18.8966 13.123 18.9728C15.6377 19.049 16.2715 17.5356 16.4511 16.4323C16.6308 15.329 16.6398 9.33467 16.4244 8.15514L15.8001 1.82422Z" fill="#FF1D25"/>
<path d="M11.5855 32.2217C11.5591 32.2898 10.5997 34.4969 10.5997 34.4969L10.9127 36.6355L10.1714 37.8626L10.0988 39.2232L7.99201 40.8813L7.8305 40.0624L6.94451 40.331L6.64146 40.0089L5.15663 39.6628L4.22027 38.7132L3.7716 37.6988L3.44814 36.7765L3.03304 35.7644L2.64062 33.8853L2.8121 32.0834L3.55339 32.875L4.25611 31.3675L5.4819 31.0608L7.15591 31.0218L8.0097 29.3555L9.74813 29.4462L11.7951 29.7542L11.5855 32.2217Z" fill="black"/>
<defs>
<linearGradient id="paint0_linear_77_4586" x1="12.7714" y1="17.5048" x2="5.56063" y2="-17.915" gradientUnits="userSpaceOnUse">
<stop offset="0.1599" stop-color="#BFAB8D"/>
<stop offset="0.5078" stop-color="#E7E1D2"/>
<stop offset="0.7297" stop-color="#CCBFA6"/>
</linearGradient>
<linearGradient id="paint1_linear_77_4586" x1="27.9699" y1="14.9184" x2="0.87704" y2="15.0163" gradientUnits="userSpaceOnUse">
<stop offset="0.1599" stop-color="#BFAB8D"/>
<stop offset="0.5078" stop-color="#E7E1D2"/>
<stop offset="0.7297" stop-color="#CCBFA6"/>
</linearGradient>
<linearGradient id="paint2_linear_77_4586" x1="29.6238" y1="33.4946" x2="-2.55348" y2="33.6109" gradientUnits="userSpaceOnUse">
<stop stop-color="#94938C"/>
<stop offset="0.2296" stop-color="#EDEBE1"/>
<stop offset="0.7988" stop-color="#EDEBE1"/>
<stop offset="1" stop-color="#94938C"/>
</linearGradient>
<linearGradient id="paint3_linear_77_4586" x1="12.7896" y1="17.5174" x2="5.579" y2="-17.9017" gradientUnits="userSpaceOnUse">
<stop offset="0.1599" stop-color="#BFAB8D"/>
<stop offset="0.5078" stop-color="#E7E1D2"/>
<stop offset="0.7297" stop-color="#CCBFA6"/>
</linearGradient>
<linearGradient id="paint4_linear_77_4586" x1="27.5536" y1="15.2521" x2="2.61615" y2="15.3422" gradientUnits="userSpaceOnUse">
<stop offset="0.1599" stop-color="#BFAB8D"/>
<stop offset="0.5078" stop-color="#E7E1D2"/>
<stop offset="0.7297" stop-color="#CCBFA6"/>
</linearGradient>
<linearGradient id="paint5_linear_77_4586" x1="29.8769" y1="33.517" x2="-2.68246" y2="33.6346" gradientUnits="userSpaceOnUse">
<stop stop-color="#94938C"/>
<stop offset="0.2296" stop-color="#EDEBE1"/>
<stop offset="0.7988" stop-color="#EDEBE1"/>
<stop offset="1" stop-color="#94938C"/>
</linearGradient>
</defs>
</svg>
