<svg width="19" height="61" viewBox="0 0 19 61" fill="none" xmlns="http://www.w3.org/2000/svg">
<path d="M6.5925 34.815C6.5925 34.815 3.32436 36.1225 2.34355 43.6398C2.34355 43.6398 1.36321 51.4842 1.03613 53.772C0.709496 56.0599 0.709498 59.0015 4.30426 59.9818C7.89948 60.9622 11.1676 60.3085 13.1288 59.6552C15.0899 59.0014 18.0314 57.0402 18.6851 54.7524C19.3388 52.4645 18.6851 41.3519 17.7048 39.3907C16.7244 37.4295 14.4362 32.2001 6.5925 34.815Z" fill="url(#paint0_linear_77_4505)"/>
<path d="M9.85962 3.76434C9.85962 3.76434 2.68523 19.4494 5.61868 35.9566C5.61868 35.9566 16.021 34.7235 16.5354 37.5471C15.0764 30.68 14.3755 23.4531 14.6627 16.443C14.7788 13.5989 14.9798 10.759 15.0596 7.91358C15.1113 6.0608 15.4335 3.944 14.6382 2.21825C14.3043 1.49283 13.7521 0.426712 12.8462 0.341876C11.3087 0.198063 10.3206 2.70412 9.85962 3.76434Z" fill="url(#paint1_linear_77_4505)"/>
<path d="M4.93711 54.9618C4.47753 53.5927 4.6835 51.5802 4.65356 50.236C4.61137 48.3424 4.63631 46.4438 4.82777 44.5602C4.98474 43.0204 5.20979 41.4258 5.73152 39.9949C6.28184 38.486 7.0363 37.1096 7.34616 35.4828C7.51176 34.614 7.55441 33.7221 7.5966 32.8347C7.94049 25.582 8.20997 18.3111 9.25389 11.1323C9.60277 8.73328 10.5428 1.96777 12.3416 0.359976C13.5584 -0.727461 13.1601 5.1593 13.1637 6.19411C13.1823 11.2656 13.0095 16.2796 13.0281 21.3511C13.0439 25.6809 12.2577 30.972 13.8914 34.9633C14.9771 37.6155 15.9942 39.2791 16.1934 42.2782C16.3681 44.9095 16.5432 47.5403 16.7179 50.1716C16.7877 51.2232 16.8535 52.312 16.5368 53.3032C15.4857 56.5936 9.39317 57.4239 6.89747 56.7547C6.19698 56.5669 5.51646 56.1377 5.14127 55.4391C5.06142 55.2921 4.99382 55.1319 4.93711 54.9618Z" fill="#FCF2D9"/>
<path d="M12.87 49.8629C13.3051 48.9438 13.4249 44.2973 13.3972 42.8642C13.3573 40.8077 11.9527 32.0406 11.7839 27.8255C11.5666 22.4019 11.8747 12.3555 11.9654 8.54465C12.0561 4.73384 12.7367 0.197158 12.5552 0.242525C12.3737 0.287892 10.9673 6.18557 10.7859 8.77148C10.6044 11.3574 9.526 20.6757 9.19799 26.1016C8.96934 29.8797 8.11961 39.3169 8.16588 41.1983C8.21306 43.1228 8.17904 48.3032 8.57419 49.1515C9.01425 50.0956 9.89076 50.8247 10.4188 50.7466C11.0989 50.6464 12.4354 50.782 12.87 49.8629Z" fill="#FF1D25"/>
<path d="M8.80078 53.0854C8.81938 53.138 9.52527 54.8325 9.52527 54.8325L8.99131 56.6431L9.58743 57.5572L9.51393 58.6723L11.3354 60.124L11.6475 59.0584L12.4873 59.1605L12.8185 58.8533L14.3101 58.3661L15.3286 57.4542L16.808 57.0854L16.2908 55.748L17.6255 56.1449L18.4448 55.5053L17.6491 52.5478L16.6025 52.536L16.074 51.3851L14.9053 51.2979L13.2689 51.4926L12.6093 50.2305L10.8963 50.5412L8.85749 51.0734L8.80078 53.0854Z" fill="black"/>
<defs>
<linearGradient id="paint0_linear_77_4505" x1="-3.57279" y1="47.9391" x2="22.437" y2="46.636" gradientUnits="userSpaceOnUse">
<stop stop-color="#94938C"/>
<stop offset="0.1599" stop-color="#D1CFC6"/>
<stop offset="0.2296" stop-color="#EDEBE1"/>
<stop offset="0.7988" stop-color="#EDEBE1"/>
<stop offset="0.9762" stop-color="#9F9E96"/>
<stop offset="1" stop-color="#94938C"/>
</linearGradient>
<linearGradient id="paint1_linear_77_4505" x1="13.9062" y1="18.9545" x2="4.92511" y2="19.115" gradientUnits="userSpaceOnUse">
<stop stop-color="#BFAB8D"/>
<stop offset="0.5078" stop-color="#E7E1D2"/>
<stop offset="1" stop-color="#CCBFA6"/>
</linearGradient>
</defs>
</svg>
