<svg width="20" height="70" viewBox="0 0 20 70" fill="none" xmlns="http://www.w3.org/2000/svg">
<path d="M3.92578 45.6014C3.92578 45.6014 16.0074 42.5732 17.0114 44.3003L12.1326 9.74772C12.1326 9.74772 8.71286 0.867188 7.40539 0.867188C6.09793 0.867188 4.79047 4.78914 4.79047 4.78914C4.79047 4.78914 4.21704 37.3316 3.92578 45.6014Z" fill="url(#paint0_linear_77_4515)"/>
<path d="M6.24909 42.1052C6.24863 42.1061 -0.941526 51.5841 0.365943 59.428C0.787853 61.9591 1.65162 64.6044 3.17731 66.6917C3.92132 67.7098 4.88809 68.6312 6.10709 69.0349C7.71943 69.5689 9.78862 69.1497 11.405 68.789C12.2008 68.6117 12.9824 68.3671 13.7237 68.026C18.9064 65.6424 20.2756 59.497 19.8587 54.2889C19.5656 50.6305 18.455 47.0815 17.0114 43.7288C16.0751 41.554 13.8938 40.9842 11.7167 40.6761C10.078 40.4443 7.36329 40.6366 6.24909 42.1052Z" fill="url(#paint1_linear_77_4515)"/>
<path d="M5.5037 3.07459C5.37305 3.66345 6.35434 7.49376 6.38337 7.9928C6.73814 14.1137 6.98585 20.2518 6.88015 26.3836C6.80666 30.654 7.0235 34.9425 6.59116 39.2001C6.18286 43.2242 4.39358 46.8349 3.33518 50.7033C2.24637 54.6838 3.92495 63.9577 9.14214 63.6079C14.3593 63.2581 16.3555 58.1399 16.3555 54.5092C16.3555 48.9726 14.0649 43.4474 13.2551 38.0206C12.1935 30.9076 11.7367 23.8589 10.8566 16.7223C10.5753 14.4431 9.90385 11.8349 9.90385 9.54842C9.72374 8.46688 9.07 6.527 8.72431 5.48039C8.48296 4.74908 7.4064 0.855248 6.6828 1.23724C6.36432 1.406 5.63436 2.48573 5.5037 3.07459Z" fill="#FCF2D9"/>
<path d="M7.33902 53.3768C6.90392 52.4576 7.26959 48.1065 7.29772 46.6729C7.33765 44.6164 8.25638 35.554 8.42561 31.3389C8.64293 25.9153 7.88753 16.2772 7.79679 12.4664C7.70605 8.65556 6.11811 1.53297 6.29959 1.57834C6.48107 1.62371 9.24226 9.69899 9.42374 12.2849C9.60522 14.8708 10.6837 24.1891 11.0117 29.615C11.2403 33.3931 12.0901 42.8303 12.0438 44.7117C11.9967 46.6362 12.0307 51.8166 11.6355 52.665C11.1954 53.609 10.6505 54.1806 9.79079 54.26C8.93104 54.3399 7.77411 54.2959 7.33902 53.3768Z" fill="#FF1D25"/>
<path d="M5.51953 61.0663C5.53813 61.1221 9.75605 63.5782 9.75605 63.5782L9.1708 65.4723L9.78281 66.4454L9.68981 67.6167L11.6293 68.9796L11.9215 68.0654L12.8003 68.1893L13.1519 67.8726L14.7225 67.3899L15.8032 66.4508L16.9265 65.8139L16.8362 64.6752L17.7431 64.7704L18.5144 63.0011L18.3053 61.3362L17.2082 61.3031L16.6702 60.0818L15.4461 59.9666L13.7276 60.139L13.141 54.3974L7.66274 52.2969L6.97132 55.5769L5.51953 61.0663Z" fill="black"/>
<defs>
<linearGradient id="paint0_linear_77_4515" x1="15.2798" y1="23.5302" x2="5.38625" y2="23.2255" gradientUnits="userSpaceOnUse">
<stop stop-color="#BFAB8D"/>
<stop offset="0.5078" stop-color="#E7E1D2"/>
<stop offset="1" stop-color="#CCBFA6"/>
</linearGradient>
<linearGradient id="paint1_linear_77_4515" x1="26.2081" y1="54.6371" x2="-6.7446" y2="55.2261" gradientUnits="userSpaceOnUse">
<stop stop-color="#94938C"/>
<stop offset="0.0617" stop-color="#A4A29B"/>
<stop offset="0.1809" stop-color="#CCCAC2"/>
<stop offset="0.2666" stop-color="#EDEBE1"/>
<stop offset="0.7117" stop-color="#EDEBE1"/>
<stop offset="0.7719" stop-color="#E0DED5"/>
<stop offset="0.883" stop-color="#BEBDB4"/>
<stop offset="1" stop-color="#94938C"/>
</linearGradient>
</defs>
</svg>
