<svg width="19" height="58" viewBox="0 0 19 58" fill="none" xmlns="http://www.w3.org/2000/svg">
<path d="M9.93359 56.2951C9.93359 56.2951 15.2798 57.1303 17.0211 54.2889C18.7619 51.4476 10.483 54.6056 9.93359 56.2951Z" fill="#D8D6D0"/>
<path d="M15.3003 38.3722C15.3003 38.3722 14.9737 27.2596 13.9929 24.318C13.012 21.3764 12.0317 11.5713 12.3588 8.95637C12.6854 6.34143 12.6854 2.41946 12.6854 2.41946C12.6854 2.41946 13.012 -0.522116 10.0705 1.76573C7.12888 4.05358 3.53355 15.1662 3.86065 19.7419C4.18729 24.3176 4.29074 38.1064 4.23902 38.076C4.18775 38.0451 15.3003 38.3722 15.3003 38.3722Z" fill="url(#paint0_linear_77_4524)"/>
<path d="M4.51547 37.0629C4.51547 37.0629 -3.0016 48.1756 2.55432 54.0587C3.23298 54.7773 4.30042 55.2827 5.12744 55.8085C5.98121 56.3516 6.89215 57.1056 7.93283 57.2231C9.1264 57.3583 10.0001 56.1093 11.1733 55.8657C13.0383 55.4783 14.8633 55.7849 16.4561 54.5129C17.7713 53.4626 18.5688 51.8253 18.8396 50.1858C19.1771 48.1402 18.8278 46.0615 18.4204 44.0531C18.2467 43.197 17.9509 42.3827 17.6048 41.5806C17.2359 40.7259 16.5709 39.8916 16.2815 39.0233C16.2815 39.0242 13.6666 31.1798 4.51547 37.0629Z" fill="url(#paint1_linear_77_4524)"/>
<path d="M3.61664 41.4653C3.67063 41.2593 3.73189 41.0552 3.79948 40.8542C4.36929 39.162 5.38188 37.669 5.7303 35.8988C5.96212 34.7229 5.88452 33.4998 5.82282 32.2967C5.59781 27.9238 5.43086 23.3812 5.85005 19.0205C6.26652 14.6885 7.34852 10.4911 8.45275 6.33782C8.8057 5.01901 9.32607 1.87055 10.4589 1.42187C10.5628 1.38059 10.8304 1.16374 11.1262 1.12109C11.2156 7.07231 11.3984 15.1068 11.6048 21.0484C11.6416 22.1128 13.0094 31.0958 12.9722 31.6067C12.9354 32.1175 13.4159 35.3957 13.4526 35.779C13.4894 36.1624 16.0766 40.8878 15.9287 43.9106C15.7808 46.9334 15.5372 49.1064 14.31 50.3186C13.0829 51.5313 10.8281 52.2122 9.68263 52.0421C8.53712 51.872 6.20845 52.2122 5.61732 50.8925C4.92457 49.3464 3.951 48.1914 3.55223 46.4488C3.17977 44.8233 3.19292 43.0758 3.61664 41.4653Z" fill="#FCF2D9"/>
<path d="M11.3897 44.2398C11.7618 43.3207 11.8648 38.6742 11.8408 37.2411C11.8067 35.1846 10.6043 26.4175 10.4601 22.2025C10.274 16.7789 10.5413 7.8212 10.6193 4.0104C10.6973 0.199591 10.5022 0.290324 10.3471 0.335691C10.1919 0.381058 9.68552 1.74206 9.53035 4.32796C9.37517 6.91387 8.5276 15.0527 8.24674 20.4785C8.05118 24.2567 7.81206 34.339 7.85154 36.2208C7.89192 38.1452 7.37467 42.6801 7.71316 43.5285C8.08975 44.4725 8.83978 45.2016 9.29169 45.1236C9.87383 45.0233 11.0177 45.1589 11.3897 44.2398Z" fill="#FF1D25"/>
<path d="M8.5625 48.5864C8.5811 48.6422 9.29742 50.4388 9.29742 50.4388L8.7122 52.3328L9.32421 53.306L9.23119 54.4774L11.1706 55.8402L11.4628 54.9261L12.3415 55.0499L12.6931 54.7332L14.2637 54.2505L15.3443 53.3114L16.9004 52.953L16.3773 51.5362L17.771 51.9803L18.6389 51.3239L17.8463 48.1971L16.7493 48.164L16.2113 46.9427L14.9873 46.8275L13.2688 46.9994L12.5951 45.6584L10.6639 43.0234L9.07604 43.4317L8.5625 48.5864Z" fill="black"/>
<defs>
<linearGradient id="paint0_linear_77_4524" x1="14.4007" y1="19.6809" x2="1.50806" y2="19.2837" gradientUnits="userSpaceOnUse">
<stop stop-color="#BFAB8D"/>
<stop offset="0.5078" stop-color="#E7E1D2"/>
<stop offset="1" stop-color="#CCBFA6"/>
</linearGradient>
<linearGradient id="paint1_linear_77_4524" x1="22.5513" y1="46.4593" x2="-4.17416" y2="45.636" gradientUnits="userSpaceOnUse">
<stop stop-color="#94938C"/>
<stop offset="0.0311" stop-color="#A6A59D"/>
<stop offset="0.0939" stop-color="#C5C3BB"/>
<stop offset="0.1552" stop-color="#DBD9D0"/>
<stop offset="0.2138" stop-color="#E8E7DD"/>
<stop offset="0.2666" stop-color="#EDEBE1"/>
<stop offset="0.7117" stop-color="#EDEBE1"/>
<stop offset="0.7637" stop-color="#E7E5DB"/>
<stop offset="0.835" stop-color="#D5D3CA"/>
<stop offset="0.9175" stop-color="#B8B7AF"/>
<stop offset="1" stop-color="#94938C"/>
</linearGradient>
</defs>
</svg>
