<svg width="19" height="55" viewBox="0 0 19 55" fill="none" xmlns="http://www.w3.org/2000/svg">
<path d="M9.54297 54.323C9.54297 54.323 14.8421 55.4186 16.7199 52.6663C18.5977 49.9139 10.1745 52.6626 9.54297 54.323Z" fill="#D8D6D0"/>
<path d="M8.76559 54.5583C8.76559 54.5583 3.12194 54.9399 1.71772 51.2806C0.313501 47.6213 8.43257 52.4402 8.76559 54.5583Z" fill="#D8D6D0"/>
<path d="M6.51184 34.0271C6.42882 34.0679 6.34988 34.1142 6.27548 34.1664C4.83781 35.1708 3.62608 36.7981 2.71194 38.2702C1.32281 40.5068 0.331105 43.065 0.598315 45.7344C0.780689 47.559 0.985287 49.6572 1.89716 51.2959C2.42976 52.2531 3.62699 52.6918 4.60192 53.0311C5.43712 53.3219 6.28001 53.595 7.09888 53.9303C7.85514 54.2397 8.59734 54.7673 9.44933 54.6992C10.4288 54.6208 11.1129 53.8532 11.8964 53.355C13.1258 52.5738 14.5975 52.1732 16.0538 52.2436C16.3097 52.2558 16.5719 52.2817 16.8173 52.2068C17.1753 52.0979 17.437 51.794 17.648 51.4855C18.6089 50.0818 18.5834 48.7218 18.5916 47.0895C18.6002 45.4309 18.568 43.7623 18.2518 42.1291C17.6888 39.2188 15.7662 36.8112 14.7554 34.0643C14.6973 33.906 14.6393 33.744 14.5327 33.6134C14.3503 33.3897 14.0518 33.2931 13.7642 33.2699C13.2252 33.2264 12.6822 33.3099 12.1482 33.367C11.1356 33.4759 10.1471 33.5889 9.12904 33.6587C8.32151 33.715 7.26356 33.656 6.51184 34.0271Z" fill="url(#paint0_linear_77_4536)"/>
<path d="M4.37096 35.9409C4.40726 35.9704 4.4508 35.9935 4.50388 36.0081C4.77064 36.0829 5.59272 35.6805 5.88353 35.6043C6.84761 35.3521 7.82256 35.1411 8.80342 34.9655C9.84281 34.7795 10.8926 34.603 11.9511 34.5944C12.5114 34.5899 13.0748 34.6289 13.6233 34.7478C14.1106 34.8535 14.6355 35.1874 15.0969 35.2291C15.4331 33.9185 15.0919 32.3941 15.0139 31.0631C14.9272 29.5832 14.7911 28.1065 14.6065 26.6358C14.2599 23.8756 13.5712 21.2185 13.0685 18.4933C12.5794 15.8426 12.4433 13.0403 12.5018 10.341C12.5295 9.07159 12.6062 7.79996 12.7518 6.53877C12.8757 5.46222 13.186 4.49863 13.0758 3.38306C12.9637 2.24889 12.4315 0.531316 10.9339 0.99587C9.80651 1.34565 9.10467 2.58552 8.53575 3.52824C7.45191 5.3234 6.66296 7.27915 5.93617 9.24579C5.21028 11.2097 4.54109 13.2077 4.16227 15.2709C3.83153 17.0706 3.87191 18.8322 3.90322 20.6492C3.95221 23.5336 4.02117 26.4175 4.0924 29.3015C4.13822 31.1624 4.03205 33.1037 4.17859 34.9909C4.20491 35.3439 4.1532 35.7631 4.37096 35.9409Z" fill="url(#paint1_linear_77_4536)"/>
<path d="M3.96553 39.4582C4.01861 39.2604 4.07851 39.0649 4.14474 38.8716C4.70367 37.2475 5.69584 35.8148 6.03791 34.1158C6.2652 32.9876 6.18898 31.8139 6.12864 30.6589C5.90816 26.462 5.74438 22.1027 6.1554 17.9177C6.56371 13.7603 7.6244 9.73171 8.70686 5.74625C9.05256 4.48052 9.56292 1.45864 10.6735 1.02811C10.7756 0.988645 11.0378 0.950986 11.3277 0.910156C11.4153 6.62182 11.5945 14.1618 11.7968 19.8639C11.8331 20.8856 13.1737 29.5066 13.1374 29.997C13.1011 30.4874 13.572 33.6336 13.6083 34.0011C13.6446 34.369 16.1811 38.9043 16.0359 41.805C15.8912 44.7058 15.6521 46.7917 14.449 47.9549C13.2458 49.1181 11.0355 49.7723 9.91225 49.609C8.78896 49.4457 6.50654 49.7723 5.92675 48.5062C5.24761 47.0222 4.29309 45.9139 3.90202 44.2417C3.53727 42.6811 3.55043 41.0039 3.96553 39.4582Z" fill="#FCF2D9"/>
<path d="M11.1268 42.4076C11.4235 41.5343 11.5051 37.1206 11.4865 35.7587C11.4593 33.8052 10.5017 25.4759 10.386 21.4718C10.2377 16.3195 10.4509 7.80962 10.5126 4.18936C10.5743 0.569101 10.4196 0.6553 10.2958 0.698399C10.172 0.741497 9.76869 2.03445 9.64486 4.49106C9.52102 6.94766 8.84605 14.68 8.62242 19.8341C8.46684 23.4235 8.27587 33.0017 8.30762 34.7892C8.33983 36.6175 7.92795 40.9255 8.19739 41.7317C8.49722 42.6286 9.09508 43.3208 9.45524 43.2469C9.91883 43.1516 10.8301 43.2805 11.1268 42.4076Z" fill="#FF1D25"/>
<path d="M8.29688 47.0433C8.31548 47.0991 9.0318 48.8956 9.0318 48.8956L8.44658 50.7897L9.05858 51.7628L8.96557 52.9342L10.905 54.297L11.1972 53.3829L12.0759 53.5067L12.4275 53.1901L13.9981 52.7073L15.0787 51.7683L16.6348 51.4099L16.1117 49.9931L17.5054 50.4372L18.3733 49.7807L17.5807 46.6541L16.4837 46.621L15.9457 45.3997L14.7217 45.2845L13.0032 45.4564L12.3295 44.1154L10.3983 41.4805L8.81042 41.8888L8.29688 47.0433Z" fill="black"/>
<defs>
<linearGradient id="paint0_linear_77_4536" x1="24.5414" y1="44.3869" x2="-5.69478" y2="43.4555" gradientUnits="userSpaceOnUse">
<stop stop-color="#94938C"/>
<stop offset="0.2666" stop-color="#EDEBE1"/>
<stop offset="0.7117" stop-color="#EDEBE1"/>
<stop offset="1" stop-color="#94938C"/>
</linearGradient>
<linearGradient id="paint1_linear_77_4536" x1="18.0061" y1="19.5163" x2="3.64611" y2="18.0082" gradientUnits="userSpaceOnUse">
<stop stop-color="#BFAB8D"/>
<stop offset="0.5078" stop-color="#E7E1D2"/>
<stop offset="1" stop-color="#CCBFA6"/>
</linearGradient>
</defs>
</svg>
