<svg width="26" height="51" viewBox="0 0 26 51" fill="none" xmlns="http://www.w3.org/2000/svg">
<path d="M14.6853 2.2865C14.6853 2.2865 15.5913 0.232296 17.4249 0.746755C19.259 1.26121 19.8928 6.05512 19.5607 9.58919C19.2291 13.1233 17.6572 24.3361 14.9548 24.567C12.2524 24.798 7.31032 18.4471 9.55862 14.9089C11.8069 11.3707 15.5277 5.16094 14.6853 2.2865Z" fill="url(#paint0_linear_77_4550)"/>
<path d="M2.86213 32.737C6.06088 32.5066 9.6906 30.9428 12.8952 30.8162C14.9054 30.7368 16.9164 30.6039 18.9289 30.6683C19.8593 30.6978 21.243 33.1785 22.1453 33.0637C22.7305 32.9893 22.3445 30.5858 22.3205 29.9638C22.3 29.4344 22.2551 28.9072 22.3327 28.3796C22.6112 26.4778 23.6574 24.6722 24.0924 22.7705C24.596 20.5706 24.9362 18.3282 25.1454 16.0816C25.3672 13.6985 25.4611 11.2641 25.149 8.88421C25.0147 7.85801 24.8314 6.81593 24.424 5.85825C24.1069 5.11287 23.338 3.6498 22.3554 3.76186C21.9947 3.80314 21.6717 4.0082 21.4018 4.25182C20.8728 4.72953 20.5044 5.36557 20.2608 6.03564C19.7586 7.41796 19.7695 8.90643 19.6729 10.3545C19.5731 11.8475 19.1662 13.2303 18.8314 14.6793C18.2099 17.3718 17.4758 20.5407 15.712 22.7478C15.2829 23.2849 14.6377 23.7195 13.9532 23.6547C13.602 23.6211 13.274 23.4596 12.9873 23.2541C11.9543 22.5132 11.429 21.2348 11.2498 19.9763C10.8828 17.3977 11.1591 14.5532 11.8482 12.0535C12.2524 10.5864 12.9991 9.27254 13.4555 7.83805C13.9378 6.32144 14.5919 3.31273 12.4538 2.73522C11.591 2.50203 10.6723 2.943 10.0272 3.5618C7.63552 5.85508 6.02005 9.26437 4.63685 12.2205C3.78851 14.0329 2.96965 15.9065 2.44748 17.8437C2.13355 19.0082 2.16714 20.1687 2.20025 21.3714C2.29371 24.733 2.48877 29.4035 2.86213 32.737Z" fill="url(#paint1_linear_77_4550)"/>
<path d="M21.8055 34.9045C22.0777 34.9875 22.4683 35.727 22.6189 35.9397C23.2177 36.784 23.7353 37.6927 24.1232 38.6536C25.1684 41.2427 25.0169 44.0822 23.0562 46.2031C23.0331 46.228 23.0095 46.253 22.9863 46.2779C22.8806 46.3891 22.7704 46.4975 22.6842 46.6241C22.4424 46.9793 22.3848 47.4243 22.1557 47.7886C21.9393 48.133 21.6213 48.4551 21.3133 48.715C20.5879 49.3275 19.6216 49.753 18.6567 49.6577C18.3251 49.6251 18.0089 49.5071 17.6973 49.3901C16.344 48.882 14.8746 48.3026 14.157 46.9589C14.2386 47.1122 13.8662 47.736 13.7723 47.863C13.5472 48.1688 13.2714 48.3017 12.9235 48.436C11.7744 48.8802 10.5237 49.2367 9.42222 49.7875C8.661 50.0806 8.01864 50.3591 7.24426 50.1051C6.79334 49.9572 6.3365 49.8274 5.89056 49.6641C5.05584 49.3588 3.66723 48.8244 3.66723 47.7415C3.66723 46.067 2.27181 41.044 5.62065 36.0209C8.96768 30.9998 21.7946 34.9013 21.8055 34.9045Z" fill="#D8D6D0"/>
<path d="M21.8204 30.7773C22.1393 30.8743 22.5966 31.7408 22.7731 31.9899C23.474 32.9789 24.0805 34.0432 24.5351 35.1683C25.7595 38.201 25.5817 41.5268 23.2857 44.0102C23.2585 44.0392 23.2308 44.0687 23.2036 44.0977C23.0798 44.2279 22.9509 44.3549 22.8498 44.5033C22.5662 44.9197 22.4991 45.4401 22.231 45.8675C21.9778 46.2703 21.6054 46.6477 21.2442 46.9526C20.3945 47.6699 19.2626 48.168 18.133 48.0568C17.7447 48.0187 17.3745 47.8803 17.0093 47.7433C15.4242 47.1486 13.703 46.4695 12.8624 44.8957C12.9581 45.0749 12.5217 45.8058 12.4119 45.955C12.1484 46.3129 11.8249 46.4686 11.418 46.626C10.0719 47.1463 8.60707 47.5637 7.31686 48.2088C6.42542 48.5522 5.67325 48.8784 4.76592 48.5808C4.23786 48.4075 3.70253 48.2555 3.18037 48.0645C2.20273 47.7071 0.575891 47.081 0.575891 45.8126C0.575891 43.8514 -1.05819 37.9683 2.86371 32.0852C6.78426 26.2039 21.8082 30.7736 21.8204 30.7773Z" fill="url(#paint2_linear_77_4550)"/>
<path d="M10.0783 4.74769C8.96449 6.40132 7.73277 9.02944 6.75736 10.757C6.09091 11.9375 5.42717 13.1442 4.96396 14.4095C4.29161 16.246 4.28437 18.3927 4.15507 20.3177C4.00309 22.5806 3.95318 24.8589 3.95318 27.1264C3.95318 29.4954 3.59569 29.837 3.59569 29.837C3.59569 29.837 0.233022 40.5791 2.77362 43.2444C5.31421 45.9097 12.2555 41.4678 12.2555 41.4678C12.2555 41.4678 14.3424 41.9755 15.7942 42.7367C17.2459 43.498 19.1967 44.0056 20.467 42.8211C21.7373 41.6366 24.0965 38.5062 24.0057 37.5753C23.915 36.6448 22.8262 31.8645 21.8281 30.0031C20.83 28.1417 22.4632 24.4615 22.8262 22.2616C23.1891 20.0618 24.9131 13.0816 24.5501 10.6282C24.1872 8.17472 23.915 3.56361 22.4632 3.64799C20.3309 3.73237 21.2837 8.08988 21.0115 9.69724C20.7393 11.3046 19.1514 20.2973 18.4255 21.3974C17.6996 22.4976 15.1586 24.8489 14.0702 24.7695C12.9818 24.6901 9.66952 23.0656 9.94172 18.8773C10.2139 14.689 12.2555 7.54004 12.5277 6.6513C12.6729 6.17676 13.3497 4.07626 13.1175 3.09769C13.0367 2.75744 12.4633 2.72205 12.2101 2.67487C11.829 2.60319 11.2125 2.84409 10.0783 4.74769Z" fill="#FCF2D9"/>
<path d="M12.3104 2.1875C12.3104 2.1875 8.99868 9.4008 8.00061 12.395C7.00255 15.3892 5.05179 31.1768 6.04985 34.5339C7.04792 37.8911 17.9813 38.2086 18.8432 36.1671C19.7052 34.1256 21.1569 22.9201 21.1569 22.9201C21.1569 22.9201 22.4258 17.4706 22.8808 12.4404C23.2583 8.26754 22.889 4.45265 22.4616 3.64694C22.4616 3.64694 22.6041 8.04388 22.0189 12.6218C21.4572 17.0115 20.1743 21.5745 19.8413 22.2849C19.1608 23.7367 17.1647 25.8235 13.989 25.9143C10.8133 26.005 8.95331 21.9674 8.72648 20.6517C8.49965 19.3361 9.95138 11.1247 10.2236 9.71837L12.3104 2.1875Z" fill="#FF1D25"/>
<path d="M14.3594 39.7665C14.3798 39.8287 15.1773 41.828 15.1773 41.828L14.5259 43.9357L15.2068 45.0191L15.1034 46.3224L17.2613 47.839L17.5861 46.8215L18.5642 46.9594L18.9553 46.6069L20.7031 46.0697L21.9058 45.0245L22.5586 43.9838L23.0553 43.0488L23.6696 42.0149L24.3763 40.1467L24.4267 38.43L23.4695 39.2956L22.8707 37.9364L21.5084 37.8085L19.5963 37.9999L18.8468 36.5078L16.8435 36.8335L14.4569 37.4115L14.3594 39.7665Z" fill="black"/>
<defs>
<linearGradient id="paint0_linear_77_4550" x1="11.169" y1="23.5524" x2="29.7314" y2="-21.8126" gradientUnits="userSpaceOnUse">
<stop offset="0.1599" stop-color="#BFAB8D"/>
<stop offset="0.5078" stop-color="#E7E1D2"/>
<stop offset="0.7297" stop-color="#CCBFA6"/>
</linearGradient>
<linearGradient id="paint1_linear_77_4550" x1="24.0491" y1="17.5515" x2="3.13903" y2="18.4969" gradientUnits="userSpaceOnUse">
<stop offset="0.1599" stop-color="#BFAB8D"/>
<stop offset="0.5078" stop-color="#E7E1D2"/>
<stop offset="0.7297" stop-color="#CCBFA6"/>
</linearGradient>
<linearGradient id="paint2_linear_77_4550" x1="31.0765" y1="41.2167" x2="-3.74569" y2="37.5598" gradientUnits="userSpaceOnUse">
<stop stop-color="#94938C"/>
<stop offset="0.2296" stop-color="#EDEBE1"/>
<stop offset="0.7988" stop-color="#EDEBE1"/>
<stop offset="1" stop-color="#94938C"/>
</linearGradient>
</defs>
</svg>
