<svg width="24" height="42" viewBox="0 0 24 42" fill="none" xmlns="http://www.w3.org/2000/svg">
<path d="M13.7477 3.49527C14.2695 1.75591 16.0673 1.97595 16.6747 3.54427C17.8493 6.57567 17.2445 9.97862 16.6393 13.0658C16.359 14.4953 15.8173 19.7828 13.7999 19.9548C11.7983 20.1253 8.13955 15.4199 9.80585 12.8004C10.7095 11.3791 11.6976 10.0018 12.4407 8.4856C13.2478 6.83743 13.2374 5.1997 13.7477 3.49527Z" fill="url(#paint0_linear_77_4566)"/>
<path d="M3.28156 26.7892C3.34688 26.826 3.55555 26.3596 3.74337 26.38C3.98789 26.4068 4.29275 26.321 4.53727 26.2965C5.38199 26.2117 6.22809 26.1377 7.07462 26.0742C9.42685 25.8978 11.7891 25.7907 14.1481 25.8388C15.789 25.8724 17.4548 25.9604 19.0639 26.3038C20.0579 26.5161 21.3658 26.8319 21.9732 27.7356C21.9732 27.7356 20.6055 22.219 21.5876 17.9704C22.5698 13.7219 23.8809 2.28269 21.266 1.95515C19.6224 1.74918 18.3821 5.5713 17.9534 6.63424C16.8156 9.45422 15.9246 12.4675 15.1176 15.4299C15.0949 15.5125 15.0717 15.5973 15.0214 15.6663C14.58 16.2764 13.0475 16.5187 12.4559 16.1099C11.9605 15.7679 11.8385 15.1001 11.7577 14.5035C11.6148 13.4442 11.4719 12.3849 11.329 11.3256C10.9892 8.80821 10.6472 6.27494 10.7084 3.72897C10.7252 3.02987 11.5232 -0.530034 9.82742 0.316958C6.97889 1.7401 5.35342 5.67791 4.56133 8.5047C3.4916 12.3236 3.45079 16.4107 3.30154 20.3494C3.23303 22.155 3.14273 23.9851 3.25932 25.7911C3.282 26.1445 3.18765 26.7366 3.28156 26.7892Z" fill="url(#paint1_linear_77_4566)"/>
<path d="M4.37769 25.6375C5.25462 25.0305 6.4296 24.9584 7.44807 24.7547C8.98191 24.4484 10.5298 24.193 12.0927 24.0987C15.5383 23.8913 19.3273 24.5247 21.6423 27.3283C22.458 28.3164 23.0319 29.4991 23.3186 30.7467C23.6416 32.1517 23.3803 33.0586 22.9325 34.3851C22.522 35.6014 21.9862 36.9179 21.3243 38.019C20.6066 39.2126 19.4593 40.2465 18.0162 40.2247C16.4533 40.2011 14.9258 39.5896 13.8824 38.4041C13.8275 38.342 13.7712 38.2758 13.6941 38.2449C13.602 38.2077 13.4981 38.2272 13.402 38.249C11.3011 38.7294 9.19425 40.1027 7.25619 41.0304C6.32981 41.4741 5.80036 41.6089 4.86219 41.1157C3.69219 40.5005 2.57752 39.7443 1.71148 38.7458C-0.850361 35.7915 0.127735 31.596 2.00273 28.5509C2.59431 27.5901 3.32788 26.4759 4.21434 25.7586C4.26742 25.7169 4.32189 25.6761 4.37769 25.6375Z" fill="url(#paint2_linear_77_4566)"/>
<path d="M8.39285 2.79922C3.55145 9.04617 5.63914 17.2366 4.35076 24.3841C4.21739 25.1245 4.01871 25.7564 3.66939 26.4324C2.82787 28.0615 1.88291 29.5078 1.82031 31.3769C1.74636 33.5844 2.72806 35.6232 4.34806 37.1765C4.45013 37.274 4.55718 37.3716 4.68874 37.4292C4.84389 37.4968 5.01948 37.5031 5.19051 37.5059C7.60804 37.5399 10.0782 37.0046 12.1713 35.8373C12.7661 35.5057 13.2356 35.091 13.937 34.9313C14.3693 34.8329 14.852 34.8578 15.2208 35.0933C15.4857 35.2625 15.669 35.5225 15.8958 35.7357C17.2396 36.9996 19.5519 36.119 20.6034 34.9286C21.3751 34.0553 21.7634 32.9184 21.8646 31.7825C22.0438 29.7736 21.3628 27.8056 21.1387 25.8231C20.686 21.8195 20.9319 17.8908 21.3823 13.904C21.689 11.1911 22.2184 8.30126 21.9993 5.56748C21.992 5.47584 21.9844 5.38465 21.9698 5.29392C21.8787 4.71731 21.846 1.01996 20.7903 1.93409C20.6238 2.07836 20.1185 3.76734 20.0228 3.96106C19.228 5.56612 18.826 7.36717 18.2122 9.04119C17.5649 10.8059 17.3353 12.5126 16.5714 14.2347C15.987 15.5526 14.9641 17.8917 13.2143 17.365C12.5388 17.1618 11.592 15.8675 11.0821 14.3255C10.1871 11.6203 9.94799 8.03586 9.94799 7.40482C9.94799 6.43579 9.85723 5.46269 9.79418 4.49638C9.7284 3.49424 10.9161 0.167969 10.1748 0.167969C9.43446 0.167062 8.73219 2.36189 8.39285 2.79922Z" fill="#FCF2D9"/>
<path d="M9.83329 0.367188C9.83329 0.367188 8.74491 4.8975 7.82937 7.409C6.91383 9.9205 5.45295 24.7713 6.36849 27.5872C7.28403 30.4031 17.1467 30.1613 17.9375 28.4492C18.7283 26.737 20.0313 16.9496 20.0313 16.9496C20.0313 16.9496 20.6369 12.868 21.0539 8.64888C21.4 5.14884 21.0892 2.06118 20.6977 1.38567C20.6977 1.38567 20.7449 4.94196 20.2077 8.7818C19.6928 12.4638 18.8213 15.4489 18.5155 16.045C17.8912 17.2627 16.3686 19.3845 13.456 19.4607C10.5428 19.5369 9.25258 16.1693 9.04479 15.0655C8.83701 13.9618 8.8261 7.96792 9.07563 6.78839L9.83329 0.367188Z" fill="#FF1D25"/>
<path d="M14.0651 31.3975C14.0914 31.4656 15.0509 33.6726 15.0509 33.6726L14.7379 35.8112L15.4791 37.0384L15.5517 38.3989L17.6586 40.0571L17.82 39.2382L18.7061 39.5068L19.0091 39.1847L20.494 38.8385L21.4303 37.889L21.879 36.8746L22.2025 35.9523L22.6176 34.9402L23.01 33.0611L22.8385 31.2591L22.0972 32.0508L21.3945 30.5433L20.1687 30.2366L18.4947 30.1976L17.6409 28.5312L15.9024 28.622L13.8555 28.93L14.0651 31.3975Z" fill="black"/>
<defs>
<linearGradient id="paint0_linear_77_4566" x1="11.1031" y1="19.2345" x2="24.8014" y2="-14.2163" gradientUnits="userSpaceOnUse">
<stop offset="0.1599" stop-color="#BFAB8D"/>
<stop offset="0.5078" stop-color="#E7E1D2"/>
<stop offset="0.7297" stop-color="#CCBFA6"/>
</linearGradient>
<linearGradient id="paint1_linear_77_4566" x1="22.1248" y1="16.2439" x2="4.43729" y2="12.8825" gradientUnits="userSpaceOnUse">
<stop offset="0.1599" stop-color="#BFAB8D"/>
<stop offset="0.5078" stop-color="#E7E1D2"/>
<stop offset="0.7297" stop-color="#CCBFA6"/>
</linearGradient>
<linearGradient id="paint2_linear_77_4566" x1="-5.09733" y1="32.7027" x2="28.1877" y2="32.7985" gradientUnits="userSpaceOnUse">
<stop stop-color="#94938C"/>
<stop offset="0.2296" stop-color="#EDEBE1"/>
<stop offset="0.7988" stop-color="#EDEBE1"/>
<stop offset="1" stop-color="#94938C"/>
</linearGradient>
</defs>
</svg>
