<svg width="24" height="43" viewBox="0 0 24 43" fill="none" xmlns="http://www.w3.org/2000/svg">
<path d="M18.9699 2.93954C19.5035 1.2038 17.8865 0.387192 16.5095 1.35306C13.8477 3.21991 12.4585 6.38472 11.2457 9.2873C10.6841 10.6315 8.19463 15.3275 9.77622 16.5919C11.3456 17.8463 17.0027 15.969 17.0739 12.8654C17.1125 11.1814 17.0571 9.48737 17.2826 7.81378C17.5276 5.99547 18.4468 4.6399 18.9699 2.93954Z" fill="url(#paint0_linear_77_4578)"/>
<path d="M3.17644 26.8636C2.21422 20.5559 2.22963 12.9451 5.03329 7.10735C5.68475 5.75043 6.57168 4.5092 7.62827 3.43764C8.04292 3.01709 10.5131 0.491986 11.0321 1.11351C11.5615 1.74728 11.0829 3.16363 10.989 3.86817C10.8321 5.04725 10.6833 6.22724 10.5603 7.4104C10.3112 9.81076 9.69107 12.4116 10.3398 14.8002C10.4827 15.326 10.813 15.8459 11.3311 16.0142C11.6047 16.1031 11.9027 16.085 12.1835 16.0242C13.961 15.639 15.2471 13.847 16.34 12.5323C17.9029 10.6528 18.7998 8.5414 19.5806 6.24358C19.9598 5.12756 20.3935 4.04329 21.3467 3.29973C21.5762 3.12053 22.0394 2.70497 22.3933 2.78981C23.5583 3.06836 23.1559 6.21136 23.1137 6.92588C22.7871 12.4824 20.4992 19.9997 20.4992 19.9997C20.4992 19.9997 19.5189 26.2094 20.4992 28.1706C21.4792 30.1323 4.48346 30.1323 3.17644 26.8636Z" fill="url(#paint1_linear_77_4578)"/>
<path d="M2.1965 27.8439C2.19696 27.8435 4.81136 24.9023 10.6944 24.9023C16.5775 24.9023 20.8264 26.8636 21.8068 29.4781C22.7872 32.0926 23.1143 39.2832 19.519 40.5907C18.3817 41.0044 17.1314 41.107 16.1061 40.3738C15.2292 39.7469 14.8826 38.5945 13.5638 39.0219C12.989 39.2079 12.515 39.6112 12.0277 39.9687C9.88557 41.5402 6.24495 43.1702 3.80518 41.3152C0.469874 38.7792 -0.707824 31.1117 2.1965 27.8439Z" fill="url(#paint2_linear_77_4578)"/>
<path d="M3.77833 38.6381C3.51928 38.4031 3.30833 38.1028 3.16224 37.7249C2.60196 36.2722 2.11154 34.7742 2.0022 33.2268C1.92508 32.1348 2.048 31.0124 2.45494 29.9871C2.87821 28.9201 3.57462 28.0137 3.82414 26.87C3.97067 26.1986 3.96656 25.5058 3.96157 24.8194C3.93027 20.2528 3.41808 15.3904 4.46605 10.9037C5.01681 8.54595 6.14281 6.50218 7.60181 4.56956C8.16073 3.82963 8.26964 2.97083 8.87075 2.26266C9.00867 2.10024 9.50589 1.5132 9.82345 1.38073C10.141 1.24826 10.5362 0.925708 10.504 1.24826C10.1088 5.22239 9.09847 10.8492 9.55032 14.8174C9.59705 15.2276 9.86383 16.6149 11.6835 16.7224C13.5032 16.8299 14.4853 15.5016 15.7102 14.1224C17.5372 12.065 18.846 9.56897 19.8404 7.05838C20.1131 6.37016 21.1715 2.84064 22.1179 2.70272C22.7076 2.61653 22.6967 3.6223 22.6618 4.33501C22.5434 6.74943 22.4231 9.19651 21.7454 11.5361C21.0431 13.96 20.3662 16.3218 19.8668 18.8038C19.34 21.4196 18.7916 25.206 20.4039 27.5192C22.5724 30.6314 22.4971 35.9878 19.0451 38.2452C18.5656 38.5587 18.1755 38.5937 17.7091 38.2765C16.6711 37.5702 15.5201 37.0217 14.3102 36.656C13.9504 36.5476 13.578 36.4542 13.2019 36.4737C12.5001 36.5104 11.9257 37.1269 11.3627 37.4926C10.6709 37.9417 9.94909 38.3532 9.18602 38.6771C7.64627 39.3318 5.09351 39.8299 3.77833 38.6381Z" fill="#FCF2D9"/>
<path d="M9.27177 1.41797C9.27177 1.41797 8.31504 5.85753 7.48486 8.36902C6.65469 10.8805 5.7197 24.8239 6.54988 27.6398C7.38006 30.4557 16.2666 30.7129 16.9838 29.0008C17.701 27.2887 18.9345 18.2036 18.9345 18.2036C18.9345 18.2036 20.4315 11.7615 20.9306 9.99223C21.4296 8.22294 22.7828 3.09199 22.4276 2.41603C22.4276 2.41603 19.6603 11.1264 19.9779 10.083C20.2954 9.03954 17.261 15.4299 16.9838 16.026C16.4177 17.2436 14.7265 18.4903 12.0844 18.5665C9.44234 18.6427 8.77638 17.1293 8.58767 16.026C8.39895 14.9227 8.38943 8.92839 8.6158 7.74886L9.27177 1.41797Z" fill="#FF1D25"/>
<path d="M13.2955 31.8624C13.3218 31.9304 14.2813 34.1375 14.2813 34.1375L13.9683 36.2761L14.7096 37.5032L14.7822 38.8638L16.889 40.5219L17.0505 39.7031L17.9365 39.9716L18.2396 39.6495L19.7244 39.3034L20.6608 38.3539L21.1095 37.3395L21.433 36.4172L21.848 35.405L22.2405 33.5259L22.069 31.724L21.3277 32.5156L20.625 31.0081L19.3992 30.7014L17.7251 30.6624L16.8714 28.9961L15.1329 29.0868L13.0859 29.3949L13.2955 31.8624Z" fill="black"/>
<defs>
<linearGradient id="paint0_linear_77_4578" x1="12.4329" y1="17.4879" x2="19.6433" y2="-17.9321" gradientUnits="userSpaceOnUse">
<stop offset="0.1599" stop-color="#BFAB8D"/>
<stop offset="0.5078" stop-color="#E7E1D2"/>
<stop offset="0.7297" stop-color="#CCBFA6"/>
</linearGradient>
<linearGradient id="paint1_linear_77_4578" x1="-2.34285" y1="15.209" x2="22.5946" y2="15.2991" gradientUnits="userSpaceOnUse">
<stop offset="0.1599" stop-color="#BFAB8D"/>
<stop offset="0.5078" stop-color="#E7E1D2"/>
<stop offset="0.7297" stop-color="#CCBFA6"/>
</linearGradient>
<linearGradient id="paint2_linear_77_4578" x1="-4.66441" y1="33.4744" x2="27.8944" y2="33.592" gradientUnits="userSpaceOnUse">
<stop stop-color="#94938C"/>
<stop offset="0.2296" stop-color="#EDEBE1"/>
<stop offset="0.7988" stop-color="#EDEBE1"/>
<stop offset="1" stop-color="#94938C"/>
</linearGradient>
</defs>
</svg>
