<svg width="25" height="40" viewBox="0 0 25 40" fill="none" xmlns="http://www.w3.org/2000/svg">
<path d="M9.3389 36.9109C9.04401 38.7641 10.2299 39.255 11.1599 38.0034C12.9573 35.5839 13.7907 32.1197 14.5111 28.9554C14.8446 27.4901 16.3843 22.2624 15.2021 21.3143C14.0289 20.3738 10.1074 23.4147 10.2063 26.5487C10.2598 28.2486 10.3805 29.9398 10.3011 31.6679C10.2149 33.5456 9.62833 35.0953 9.3389 36.9109Z" fill="url(#paint0_linear_77_4695)"/>
<path d="M21.8102 13.6013C21.8102 13.6013 20.5028 17.1966 20.5028 21.1186C20.5028 25.0405 20.8294 29.9433 18.5415 33.5386C16.2537 37.1339 15.6 38.768 15.6 38.768C15.6 38.768 13.6388 41.0559 12.6584 38.4414C12.6584 38.4414 14.9463 30.597 13.6388 26.6751C12.3313 22.7531 11.0239 24.0601 10.6972 24.7139C10.3706 25.3676 5.79446 32.8849 5.14073 34.8461C4.48699 36.8073 3.50662 38.768 2.85289 38.768C2.19916 38.768 1.21879 37.1339 0.565056 34.1924C-0.0886756 31.2508 0.565054 27.9825 1.87252 25.6942C3.17998 23.4064 4.48745 13.2742 4.48745 11.6401C4.48745 10.006 20.1761 12.9476 21.8102 13.6013Z" fill="url(#paint1_linear_77_4695)"/>
<path d="M14.2597 3.33259C14.57 3.25909 14.8912 3.0563 15.2641 2.81087C16.2767 2.14352 17.3283 1.49976 18.4965 1.17538C19.6651 0.851009 20.9798 0.879135 22.0196 1.50293C22.7509 1.94163 23.2926 2.63665 23.7386 3.36344C24.4363 4.50079 24.9512 5.82234 24.7911 7.14705C24.6087 8.65778 24.0094 10.1454 23.3947 11.5254C23.0218 12.3625 22.711 13.3174 22.0391 13.9725C21.2552 14.7365 19.9373 14.844 18.9043 14.9887C16.6823 15.2995 14.4512 15.021 12.2818 14.506C10.125 13.9938 7.8962 13.4259 5.79892 12.7118C5.42192 12.5834 5.04538 12.435 4.72963 12.1928C3.84453 11.5127 3.66262 9.96707 3.44985 8.94721C3.12684 7.39702 3.32418 5.79421 3.9584 4.34927C4.775 2.48877 6.33651 0.846471 8.40975 0.52754C9.89368 0.299344 11.2111 0.603758 12.2096 1.75381C12.5404 2.1349 12.8035 2.57768 13.161 2.93563C13.5552 3.33032 13.9 3.41788 14.2597 3.33259Z" fill="url(#paint2_linear_77_4695)"/>
<path d="M15.667 35.6061C15.6956 35.5481 15.7246 35.4927 15.7541 35.4405C16.1411 34.7591 16.5871 34.1131 16.9591 33.4231C17.9358 31.6116 18.1536 29.6862 18.4797 27.701C18.9938 24.5757 18.9906 21.3996 19.2714 18.2511C19.5136 15.5373 20.0295 12.8212 20.7467 10.1917C21.1323 8.77812 21.0466 7.36404 18.8186 7.06417C16.5907 6.7643 16.1139 7.65848 13.8859 7.44435C12.5571 7.31642 11.3858 5.85107 10.1205 5.44822C7.44388 4.31405 5.40012 6.28613 5.38107 7.14265C5.35657 8.25096 5.26493 9.36608 5.46319 10.4585C5.67913 11.6503 5.93409 12.7981 5.99397 14.0152C6.08743 15.9211 5.88374 17.8424 5.38606 19.6847C4.84439 21.6899 4.23466 23.6806 3.46297 25.6101C2.9526 26.8858 2.19407 28.0213 2.09427 29.4258C2.0185 30.4901 2.02394 31.558 2.02712 32.6246C2.02893 33.2457 1.80483 35.1189 2.61462 35.3217C2.94489 35.4042 3.29693 35.2382 3.52966 34.99C3.76239 34.7414 3.89986 34.4211 4.03641 34.1095C5.63467 30.4547 7.68297 26.9969 10.1205 23.8394C10.6976 23.0917 11.3754 22.5278 12.2904 23.1076C13.3892 23.8035 14.3024 25.1269 14.556 26.3994C15.2265 29.7647 13.8342 32.9082 13.8882 36.2199C13.8977 36.8156 14.2729 37.1744 14.8178 36.8696C15.2442 36.6305 15.4474 36.0503 15.667 35.6061Z" fill="#FCF2D9"/>
<path d="M2.57812 38.7508C2.57812 38.7508 3.92552 30.4674 4.24309 29.0156C4.56066 27.5639 7.44282 12.9569 8.70266 10.8051C9.9625 8.65342 17.9793 10.3388 18.2751 11.8939C18.5709 13.4491 17.7171 24.6605 17.7171 24.6605C17.7171 24.6605 17.2262 28.0357 16.748 31.5875C16.3515 34.534 14.707 39.2371 14.2692 39.7221C14.2692 39.7221 15.843 34.5789 16.1542 31.3175C16.4522 28.1904 16.2567 24.8224 16.1301 24.2758C15.8711 23.1584 14.7628 21.3818 12.4822 20.7862C10.2011 20.1905 8.20907 22.668 7.83434 23.539C7.45961 24.41 5.31602 28.9054 5.28698 29.923L2.57812 38.7508Z" fill="#FF1D25"/>
<path d="M11.2734 10.7357C11.2789 10.6631 11.3619 8.25776 11.3619 8.25776L12.5646 6.46166L12.423 5.0353L12.9429 3.7759L11.7543 1.37277L11.2562 2.04286L10.5721 1.4195L10.1601 1.58011L8.67074 1.25391L7.4168 1.70849L6.57525 2.4312L5.88658 3.12487L5.07634 3.85983L3.91358 5.38735L3.29297 7.08819L4.30238 6.69258L4.28831 8.35575L5.26324 9.15967L6.75763 9.91504L6.81161 11.7869L8.41986 12.4529L10.4001 13.0554L11.2734 10.7357Z" fill="black"/>
<defs>
<linearGradient id="paint0_linear_77_4695" x1="13.2574" y1="20.9467" x2="13.2333" y2="58.0161" gradientUnits="userSpaceOnUse">
<stop offset="0.1599" stop-color="#BFAB8D"/>
<stop offset="0.5078" stop-color="#E7E1D2"/>
<stop offset="0.7297" stop-color="#CCBFA6"/>
</linearGradient>
<linearGradient id="paint1_linear_77_4695" x1="19.9157" y1="25.3881" x2="3.15762" y2="25.4486" gradientUnits="userSpaceOnUse">
<stop stop-color="#BFAB8D"/>
<stop offset="0.5078" stop-color="#E7E1D2"/>
<stop offset="1" stop-color="#CCBFA6"/>
</linearGradient>
<linearGradient id="paint2_linear_77_4695" x1="31.1712" y1="7.7235" x2="-2.8683" y2="7.84646" gradientUnits="userSpaceOnUse">
<stop stop-color="#94938C"/>
<stop offset="0.2614" stop-color="#EDEBE1"/>
<stop offset="0.7687" stop-color="#EDEBE1"/>
<stop offset="1" stop-color="#94938C"/>
</linearGradient>
</defs>
</svg>
