<svg width="27" height="48" viewBox="0 0 27 48" fill="none" xmlns="http://www.w3.org/2000/svg">
<path d="M10.7753 42.0227C10.5734 43.9798 11.8433 44.4249 12.7442 43.0612C14.4868 40.425 15.1591 36.7508 15.7312 33.3969C15.9961 31.844 17.3063 26.2831 16.0143 25.3586C14.7322 24.4417 10.8025 27.851 11.0861 31.1254C11.2399 32.902 11.464 34.6653 11.4803 36.4786C11.498 38.4497 10.9731 40.1056 10.7753 42.0227Z" fill="url(#paint0_linear_77_4676)"/>
<path d="M22.4017 19.7614C21.7162 21.7199 21.1637 23.7641 20.8447 25.8147C20.6301 27.1947 20.6619 28.4215 20.8715 29.7874C21.224 32.083 21.2494 34.4788 21.1505 36.7943C20.9962 40.4059 19.2637 43.1261 17.8786 46.3748C17.3696 47.5684 16.1924 48.1949 15.1253 47.0966C13.7716 45.7039 14.1368 42.7763 14.0828 41.0098C14.0093 38.5917 13.9603 36.1569 13.4767 33.7774C13.2685 32.7531 12.9758 31.7319 12.441 30.8336C11.9093 29.9403 10.9266 29.5048 9.98526 30.1481C8.73178 31.0046 8.44914 32.881 8.01634 34.2166C7.6103 35.4691 7.24238 36.734 6.88716 38.002C6.3854 39.7926 5.9213 41.5945 5.44313 43.3915C5.24488 44.1355 4.59794 45.883 3.50415 45.1236C3.13486 44.8668 2.95249 44.4223 2.79869 43.9999C2.29376 42.6108 1.89045 41.1876 1.48805 39.7658C0.948637 37.8609 0.452328 35.9614 0.336189 33.9775C0.177858 31.2727 1.24353 28.6002 1.76434 25.9821C2.31781 23.1998 2.66351 20.3761 2.79598 17.5425C2.8046 17.3561 2.81912 17.1533 2.94478 17.0154C3.11491 16.8294 3.40662 16.8439 3.65659 16.8725C6.72838 17.2245 9.80652 17.5108 12.8751 17.8946C14.9516 18.1527 17.0307 18.4258 19.089 18.8051C19.9968 18.9725 21.699 19.0587 22.4017 19.7614Z" fill="url(#paint1_linear_77_4676)"/>
<path d="M24.8031 15.5156C24.9056 14.2889 24.8775 13.0458 25.1112 11.8341C25.4759 9.94276 26.4309 8.29505 26.2957 6.29121C25.9699 1.46692 19.228 1.094 15.8382 2.43005C14.4287 2.98534 13.8503 2.4609 12.6653 1.71235C11.3814 0.901193 9.86663 0.476562 8.34911 0.476562C6.61384 0.476562 4.69893 0.970161 3.2168 1.88203C1.02423 3.23123 1.02604 5.44467 0.875426 7.76789C0.708477 10.3375 0.767912 12.9846 1.61763 15.4416C1.87758 16.1938 2.22191 16.9328 2.76359 17.5158C3.53346 18.3447 4.51428 18.454 5.55454 18.6935C6.97451 19.0206 8.41037 19.2974 9.84168 19.5682C12.6485 20.0994 15.4817 20.5318 18.3375 20.6751C19.6917 20.7432 21.0939 20.6057 22.2966 19.9792C24.0387 19.0723 24.6489 17.3666 24.8031 15.5156Z" fill="url(#paint2_linear_77_4676)"/>
<path d="M18.9074 35.8678C19.038 34.5917 18.6692 33.34 18.598 31.9677C18.4991 30.0564 18.3004 28.1201 18.3811 26.2057C18.4755 23.9763 18.8661 21.7593 19.5407 19.632C20.2307 17.4576 21.2492 15.4198 21.8145 13.1991C22.338 11.1435 22.7989 8.11439 20.3115 7.1989C18.5957 6.5674 15.2259 7.76053 13.458 7.67116C11.3566 7.56546 9.13997 5.31573 8.3769 4.94917C4.43001 3.08914 3.22598 11.8095 4.04213 14.6449C4.85827 17.4803 3.52676 25.0416 3.22598 27.1466C2.9252 29.2516 1.5937 32.7316 1.76518 33.9774C1.93712 35.2232 3.91328 43.214 3.91328 43.214C3.91328 43.214 5.1164 39.3048 5.50293 35.6528C5.88945 32.0008 6.74869 28.5212 9.5841 27.7912C11.8288 27.2132 14.6724 30.0418 14.9541 32.3451C15.4246 36.1936 15.6251 41.9546 15.8624 45.8249C16.5007 45.6048 17.2851 43.4898 17.6317 42.9668C18.7332 41.3064 18.7001 37.8903 18.9074 35.8678Z" fill="#FCF2D9"/>
<path d="M4.05217 45.4715C4.05217 45.4715 4.18555 37.5328 3.88204 34.7192C3.57854 31.9055 5.94215 16.0635 7.52727 13.3556C9.11239 10.6477 17.8242 13.1347 18.1962 15.0913C18.5682 17.048 17.9712 28.347 17.9712 28.347C17.9712 28.347 18.0256 33.3523 17.4241 37.8209C16.925 41.5282 16.6252 47.0838 16.0744 47.694C16.0744 47.694 16.2858 41.5845 16.6769 37.4811C17.0521 33.5464 16.8062 29.3092 16.6465 28.621C16.3207 27.2155 14.9262 24.9799 12.0567 24.2304C9.1868 23.481 6.68073 26.5986 6.20892 27.6942C5.7371 28.7898 5.40047 36.2344 5.36418 37.5147L4.05217 45.4715Z" fill="#FF1D25"/>
<path d="M8.95701 10.1887C8.96245 10.1161 9.04548 7.71075 9.04548 7.71075L10.2482 5.91467L10.1066 4.48835L10.6265 3.22897L9.4379 0.825897L8.93977 1.49596L8.25564 0.872626L7.84372 1.03323L6.35433 0.707031L5.10039 1.16161L4.25884 1.88431L3.57017 2.57795L2.75993 3.3129L1.59718 4.84039L0.976562 6.54119L1.98597 6.14559L1.9719 7.80873L2.94683 8.61263L4.44122 9.36799L4.4952 11.2398L6.10345 11.9058L9.24509 14.0712L8.95701 10.1887Z" fill="black"/>
<defs>
<linearGradient id="paint0_linear_77_4676" x1="13.9579" y1="25.0974" x2="16.0673" y2="63.9017" gradientUnits="userSpaceOnUse">
<stop offset="0.1599" stop-color="#BFAB8D"/>
<stop offset="0.5078" stop-color="#E7E1D2"/>
<stop offset="0.7297" stop-color="#CCBFA6"/>
</linearGradient>
<linearGradient id="paint1_linear_77_4676" x1="19.8752" y1="33.653" x2="2.381" y2="30.2488" gradientUnits="userSpaceOnUse">
<stop stop-color="#BFAB8D"/>
<stop offset="0.5078" stop-color="#E7E1D2"/>
<stop offset="1" stop-color="#CCBFA6"/>
</linearGradient>
<linearGradient id="paint2_linear_77_4676" x1="30.3815" y1="13.5995" x2="-2.91685" y2="7.12004" gradientUnits="userSpaceOnUse">
<stop stop-color="#94938C"/>
<stop offset="0.2114" stop-color="#EDEBE1"/>
<stop offset="0.847" stop-color="#EDEBE1"/>
<stop offset="1" stop-color="#94938C"/>
</linearGradient>
</defs>
</svg>
