<svg width="29" height="51" viewBox="0 0 29 51" fill="none" xmlns="http://www.w3.org/2000/svg">
<path d="M19.6039 1.16115C20.9168 1.25053 21.9303 1.63572 23.0083 2.37615C23.3 2.57669 23.5762 2.8185 23.5186 3.10524C23.2501 4.44456 13.3746 3.36839 13.4694 2.19377C13.5284 1.49598 16.7399 1.30906 17.459 1.23147C18.2701 1.14346 18.972 1.11805 19.6039 1.16115Z" fill="#D8D6D0"/>
<path d="M9.44092 46.5305C8.76539 48.6944 10.3605 49.5773 11.8423 48.2952C14.7068 45.8164 16.3646 41.8401 17.8227 38.1977C18.4978 36.511 21.3964 30.5799 19.8711 29.1463C18.3576 27.7236 12.4248 30.4324 12.1208 34.2386C11.9557 36.3032 11.8867 38.3737 11.5315 40.4392C11.1454 42.6839 10.1033 44.4101 9.44092 46.5305Z" fill="url(#paint0_linear_77_4660)"/>
<path d="M26.2151 21.2587C26.0272 22.0331 25.8608 22.8212 25.824 22.9736C25.5087 24.2815 25.2351 25.5999 25.0156 26.9273C24.8364 28.0121 24.693 29.1032 24.5864 30.1974C24.483 31.2581 24.5733 32.4258 24.3714 33.4657C24.1722 34.4905 23.807 35.5657 23.4618 36.5556C22.4252 39.5285 20.855 42.295 18.9905 44.8238C18.055 46.0923 17.0433 47.304 15.9754 48.4632C15.3194 49.1754 13.9248 51.2841 12.7657 50.408C12.3307 50.0791 12.156 49.4925 12.1841 48.9477C12.2123 48.4028 12.4119 47.8838 12.601 47.3721C14.0582 43.4238 15.4437 38.535 14.6244 34.2991C14.5391 33.8576 14.4057 33.4017 14.0891 33.0828C13.674 32.6649 13.0093 32.571 12.4414 32.7275C11.8734 32.8841 11.3889 33.2556 10.966 33.6657C9.51476 35.0744 8.48358 37.0547 7.59667 38.8557C6.92524 40.2195 6.43211 41.6726 6.14857 43.1665C5.87728 44.5965 6.10774 46.296 5.5334 47.6379C5.21175 48.3901 4.49451 49.0348 3.67701 49.0112C3.04052 48.9931 2.47706 48.5834 2.05742 48.1043C0.511327 46.3391 0.215091 43.5263 0.124811 41.2756C0.0113952 38.4393 0.415161 35.6129 0.854762 32.8187C1.45315 29.0147 2.2221 25.2365 3.08089 21.4833C3.114 21.3376 3.58128 18.9699 3.67565 18.9727C3.67565 18.9727 26.5503 19.6074 26.7604 19.6132C26.6429 19.611 26.4169 20.4271 26.2151 21.2587Z" fill="url(#paint1_linear_77_4660)"/>
<path d="M8.3158 0.987036C9.50166 0.91944 10.4671 1.17848 11.5463 1.78049C11.8385 1.94335 12.1234 2.14932 12.1175 2.4383C12.0907 3.79021 3.10686 3.90136 3.00479 2.73227C2.94672 2.03726 5.783 1.47201 6.41223 1.31005C7.12266 1.12813 7.74464 1.0197 8.3158 0.987036Z" fill="#D8D6D0"/>
<path d="M24.2613 2.0369C25.2144 2.13217 26.1122 2.49919 26.8857 3.30581C27.8824 4.34516 28.3815 5.78692 28.5049 7.22142C28.7694 10.2991 28.2427 13.9593 27.4737 16.9408C27.2296 17.8871 27.2051 19.876 26.5555 20.6064C24.5339 22.8788 20.0921 21.7733 17.4041 21.5868C14.3255 21.3731 11.0111 21.271 8.25277 20.6064C6.42676 20.5148 3.07372 20.919 2.51934 18.5041C1.88421 15.7363 1.49315 12.9059 1.3625 10.0691C1.26451 7.94956 0.955102 2.71241 4.00192 2.30366C4.44788 2.24377 5.20051 2.74643 5.64737 2.84806C6.57965 3.05947 7.48925 3.03089 8.41473 2.785C9.55298 2.48286 10.61 1.93846 11.7011 1.49523C11.9383 1.39905 12.1851 1.30605 12.441 1.31285C13.024 1.32873 13.4522 1.83366 13.9186 2.18389C15.8816 3.65922 19.4002 2.89388 21.5674 2.32725C22.4775 2.08952 23.3925 1.95025 24.2613 2.0369Z" fill="url(#paint2_linear_77_4660)"/>
<path d="M21.7311 36.1381C21.0955 37.9432 19.984 39.4607 18.9764 41.1193C18.6049 41.7308 15.607 47.4896 14.8984 46.2543C14.7618 46.0161 14.7995 45.7285 14.8462 45.4627C15.6234 41.0227 17.6258 36.4121 15.5072 31.9925C15.2586 31.4744 14.9433 30.9713 14.4847 30.5925C13.3051 29.6185 11.5739 30.0558 10.4389 30.8629C7.54355 32.9221 6.44931 36.2315 5.30426 39.2806C4.74806 40.7618 4.22226 42.4948 3.21785 43.7832C2.02425 45.3148 1.62865 43.3595 1.49391 42.3147C1.10421 39.2937 1.08425 36.2297 1.4735 33.2074C1.73799 31.1555 2.06235 29.0895 2.74966 27.1156C3.38071 25.3033 4.63964 23.6419 4.84425 21.7189C5.20355 18.3377 1.49392 11.2211 4.26582 8.8539C5.3401 8.37755 6.58042 8.28364 7.73817 8.09038C9.71389 7.76102 11.7382 7.71747 13.7393 7.82771C16.7798 7.99511 21.4303 7.89712 23.5857 10.1074C25.3359 11.9021 24.9439 14.4716 24.7044 16.7885C24.3809 19.9187 23.4673 23.2745 23.1542 26.4057C22.8548 29.398 22.7359 32.5537 21.9388 35.4744C21.8771 35.7007 21.8077 35.9217 21.7311 36.1381Z" fill="#FCF2D9"/>
<path d="M13.2809 50.6773C13.2809 50.6773 17.7585 44.2861 18.7249 41.2864C19.6912 38.2868 20.8616 19.4596 19.859 16.1079C18.8564 12.7567 9.12799 12.7912 8.29052 14.8377C7.45305 16.8842 5.13889 29.9801 5.13889 29.9801C5.13889 29.9801 3.91989 35.4369 3.5007 40.4694C3.15274 44.6445 4.17439 48.3115 4.59993 49.1149C4.59993 49.1149 3.79831 44.8645 4.34906 40.2834C4.87713 35.8905 7.33147 31.7916 7.65538 31.0794C8.31728 29.624 10.2436 27.7858 13.3716 27.6769C16.4996 27.568 17.9042 31.9427 18.1351 33.257C18.366 34.5713 17.1701 41.467 16.9102 42.8747L13.2809 50.6773Z" fill="#FF1D25"/>
<path d="M12.137 13.6465C12.1174 13.5603 11.3449 10.7444 11.3449 10.7444L12.0771 8.23568L11.4002 6.63335L11.5426 4.98929L9.31152 2.62891L8.9817 3.5825L7.97139 3.10389L7.55629 3.43642L5.72983 3.5884L4.45502 4.5615L3.75002 5.69837L3.21016 6.74722L2.54553 7.88727L1.7625 10.0707L1.66406 12.2619L2.67983 11.444L3.26369 13.3756L4.67233 13.96L6.65984 14.3029L7.3966 16.4519L9.48255 16.6506L11.9723 16.6433L12.137 13.6465Z" fill="black"/>
<defs>
<linearGradient id="paint0_linear_77_4660" x1="17.1976" y1="28.2441" x2="9.43654" y2="72.5354" gradientUnits="userSpaceOnUse">
<stop offset="0.1599" stop-color="#BFAB8D"/>
<stop offset="0.5078" stop-color="#E7E1D2"/>
<stop offset="0.7297" stop-color="#CCBFA6"/>
</linearGradient>
<linearGradient id="paint1_linear_77_4660" x1="24.1733" y1="34.7392" x2="1.64639" y2="34.8206" gradientUnits="userSpaceOnUse">
<stop stop-color="#BFAB8D"/>
<stop offset="0.5078" stop-color="#E7E1D2"/>
<stop offset="1" stop-color="#CCBFA6"/>
</linearGradient>
<linearGradient id="paint2_linear_77_4660" x1="34.2802" y1="11.6053" x2="-4.5652" y2="11.7457" gradientUnits="userSpaceOnUse">
<stop stop-color="#94938C"/>
<stop offset="0.2296" stop-color="#EDEBE1"/>
<stop offset="0.7988" stop-color="#EDEBE1"/>
<stop offset="1" stop-color="#94938C"/>
</linearGradient>
</defs>
</svg>
