<svg width="25" height="42" viewBox="0 0 25 42" fill="none" xmlns="http://www.w3.org/2000/svg">
<path d="M7.79688 38.9689C7.79688 38.9689 10.2463 42.5572 13.9691 40.1136C17.6919 37.67 9.71682 37.2785 7.79688 38.9689Z" fill="#D8D6D0"/>
<path d="M10.7027 3.54215C10.181 1.80279 8.38308 2.02282 7.77562 3.59115C6.60107 6.62255 7.20581 10.0255 7.811 13.1127C8.09137 14.5422 8.63304 19.8297 10.6505 20.0016C12.6521 20.1722 16.3109 15.4668 14.6446 12.8473C13.7409 11.426 12.7528 10.0486 12.0097 8.53248C11.2026 6.88385 11.213 5.24657 10.7027 3.54215Z" fill="url(#paint0_linear_77_4572)"/>
<path d="M21.1709 26.8363C21.1056 26.8731 20.8964 26.4067 20.7091 26.4271C20.4645 26.4539 20.1597 26.3681 19.9151 26.3436C19.0704 26.2588 18.2243 26.1848 17.3778 26.1213C15.0255 25.9449 12.6633 25.8378 10.3042 25.8859C8.66332 25.9194 6.99747 26.0075 5.38832 26.3509C4.39433 26.5632 3.08641 26.879 2.47895 27.7827C2.47895 27.7827 3.84675 22.2661 2.86457 18.0174C1.88283 13.7688 0.57129 2.32959 3.18622 2.00204C4.82985 1.79607 6.07018 5.61822 6.49889 6.68117C7.63668 9.50118 8.52814 12.5144 9.33521 15.4769C9.35789 15.5595 9.38102 15.6443 9.43138 15.7133C9.8728 16.3234 11.4053 16.5657 11.9969 16.157C12.4923 15.8149 12.6143 15.1471 12.6951 14.5505C12.838 13.4912 12.9809 12.4319 13.1238 11.3726C13.4636 8.85516 13.8056 6.32186 13.7444 3.77587C13.7276 3.07677 12.9296 -0.483165 14.6254 0.363834C17.474 1.78699 19.0995 5.72484 19.8916 8.55165C20.9613 12.3706 21.0026 16.4577 21.1514 20.3965C21.2199 22.2021 21.3102 24.0322 21.1936 25.8382C21.1704 26.1916 21.2648 26.7837 21.1709 26.8363Z" fill="url(#paint1_linear_77_4572)"/>
<path d="M20.0731 25.6844C19.1961 25.0774 18.0211 25.0053 17.0027 24.8016C15.4688 24.4953 13.9209 24.2399 12.358 24.1455C8.91244 23.9382 5.12342 24.5715 2.80837 27.3752C1.99268 28.3633 1.41879 29.546 1.13208 30.7936C0.809065 32.1986 1.07038 33.1055 1.51814 34.4321C1.92871 35.6484 2.46449 36.9649 3.12639 38.066C3.84409 39.2596 4.9914 40.2935 6.43451 40.2717C7.99694 40.2481 9.52489 39.6366 10.5679 38.4511C10.6228 38.389 10.679 38.3227 10.7561 38.2919C10.8482 38.2547 10.9521 38.2742 11.0483 38.296C13.1492 38.7764 15.256 40.1497 17.1941 41.0774C18.1205 41.5211 18.6504 41.6559 19.5881 41.1627C20.7581 40.5476 21.8728 39.7913 22.7388 38.7928C25.3007 35.8385 24.3225 31.6429 22.4475 28.5979C21.856 27.637 21.1224 26.5228 20.2359 25.8055C20.1833 25.7633 20.1289 25.723 20.0731 25.6844Z" fill="url(#paint2_linear_77_4572)"/>
<path d="M16.0605 2.84612C20.902 9.09313 18.8143 17.2837 20.1027 24.4312C20.2361 25.1716 20.4348 25.8035 20.7841 26.4795C21.6257 28.1086 22.5707 29.5549 22.6333 31.424C22.7072 33.6316 21.7255 35.6704 20.1054 37.2237C20.0033 37.3213 19.8963 37.4188 19.7647 37.4764C19.6096 37.544 19.434 37.5504 19.2634 37.5531C16.8458 37.5871 14.3756 37.0518 12.2823 35.8845C11.6876 35.5529 11.218 35.1382 10.5166 34.9785C10.0843 34.8801 9.6016 34.905 9.23276 35.1405C8.96782 35.3097 8.78454 35.5697 8.55771 35.7829C7.21394 37.0468 4.90158 36.1662 3.84998 34.9758C3.07829 34.1025 2.68994 32.9656 2.58878 31.8296C2.40958 29.8208 3.09053 27.8528 3.31465 25.8702C3.76741 21.8666 3.52153 17.9378 3.07103 13.951C2.76435 11.2381 2.23491 8.34821 2.45404 5.6144C2.4613 5.52276 2.46901 5.43157 2.48353 5.34084C2.57472 4.76423 2.60738 1.06684 3.66307 1.98098C3.82957 2.12525 4.33495 3.81425 4.43068 4.00797C5.22551 5.61305 5.62745 7.41411 6.24127 9.08814C6.88866 10.8529 7.11822 12.5596 7.88174 14.2817C8.46607 15.5996 9.4891 17.9388 11.2389 17.412C11.9144 17.2088 12.8612 15.9145 13.3711 14.3725C14.2662 11.6672 14.5053 8.08281 14.5053 7.45176C14.5053 6.48272 14.5956 5.50961 14.6591 4.5433C14.7249 3.54115 13.5372 0.214844 14.2785 0.214844C15.0189 0.213937 15.7211 2.40878 16.0605 2.84612Z" fill="#FCF2D9"/>
<path d="M14.3972 0.367188C14.3972 0.367188 15.4855 4.8975 16.401 7.409C17.3165 9.9205 18.7774 24.7713 17.8619 27.5872C16.9464 30.4031 7.08408 30.1613 6.29334 28.4492C5.5026 26.737 4.19966 16.9496 4.19966 16.9496C4.19966 16.9496 3.59401 12.868 3.17709 8.64888C2.83094 5.14884 3.14171 2.06118 3.53322 1.38567C3.53322 1.38567 3.48604 4.94196 4.02319 8.7818C4.5381 12.4638 5.4096 15.4489 5.71537 16.045C6.33962 17.2627 7.86211 19.3845 10.7747 19.4607C13.6877 19.5369 14.9779 16.1693 15.1857 15.0655C15.3935 13.9618 15.4043 7.96792 15.1548 6.78839L14.3972 0.367188Z" fill="#FF1D25"/>
<path d="M10.5699 31.7178C10.5436 31.7859 9.58412 33.993 9.58412 33.993L9.89715 36.1316L9.15586 37.3587L9.08328 38.7193L6.97645 40.3774L6.81495 39.5586L5.92894 39.8271L5.62588 39.505L4.14103 39.1589L3.20467 38.2094L2.756 37.195L2.43253 36.2726L2.01743 35.2605L1.625 33.3814L1.79649 31.5795L2.53778 32.3711L3.24051 30.8636L4.46632 30.5569L6.14034 30.5179L6.99414 28.8516L8.7326 28.9423L10.7795 29.2503L10.5699 31.7178Z" fill="black"/>
<defs>
<linearGradient id="paint0_linear_77_4572" x1="13.3614" y1="19.2807" x2="-0.336824" y2="-14.1702" gradientUnits="userSpaceOnUse">
<stop offset="0.1599" stop-color="#BFAB8D"/>
<stop offset="0.5078" stop-color="#E7E1D2"/>
<stop offset="0.7297" stop-color="#CCBFA6"/>
</linearGradient>
<linearGradient id="paint1_linear_77_4572" x1="2.32744" y1="16.2908" x2="20.0152" y2="12.9294" gradientUnits="userSpaceOnUse">
<stop offset="0.1599" stop-color="#BFAB8D"/>
<stop offset="0.5078" stop-color="#E7E1D2"/>
<stop offset="0.7297" stop-color="#CCBFA6"/>
</linearGradient>
<linearGradient id="paint2_linear_77_4572" x1="29.5471" y1="32.7496" x2="-3.73805" y2="32.8453" gradientUnits="userSpaceOnUse">
<stop stop-color="#94938C"/>
<stop offset="0.2296" stop-color="#EDEBE1"/>
<stop offset="0.7988" stop-color="#EDEBE1"/>
<stop offset="1" stop-color="#94938C"/>
</linearGradient>
</defs>
</svg>
