<svg width="20" height="51" viewBox="0 0 20 51" fill="none" xmlns="http://www.w3.org/2000/svg">
<path d="M16.1376 20.7778C15.3346 26.0339 13.9187 31.2859 12.0754 36.2658C10.0493 41.7388 7.51786 47.2122 2.59645 50.6418C2.47714 50.7249 2.3492 50.8111 2.20403 50.8183C2.05613 50.8256 1.91686 50.7489 1.79845 50.66C1.12067 50.1532 0.871146 49.2278 0.941011 48.3844C1.01088 47.5406 1.34751 46.7462 1.64148 45.9523C3.43529 41.11 3.87308 35.7808 4.38437 30.6794C4.70829 27.4498 5.47635 23.4911 4.71509 20.2715C3.89758 16.816 15.6313 20.164 16.1376 20.7778Z" fill="url(#paint0_linear_77_4645)"/>
<path d="M5.99897 0.796C6.72571 0.468449 7.48375 0.46073 8.49628 0.709342C8.77028 0.776485 9.06243 0.880832 9.21122 1.12037C9.90802 2.24003 4.18893 4.38999 3.50529 3.45043C3.10064 2.89151 4.62625 1.77593 4.94561 1.49874C5.30626 1.18525 5.64876 0.953878 5.99897 0.796Z" fill="#D8D6D0"/>
<path d="M15.9366 0.982678C16.2741 1.0843 16.5308 1.19318 16.6388 1.288C17.185 1.76798 17.7525 2.2788 17.997 2.96339C18.095 3.23786 18.1054 3.60579 17.8559 3.75641C17.7716 3.80722 17.6708 3.82264 17.5729 3.83081C16.4283 3.92472 15.1042 3.1807 14.1361 2.64945C13.7777 2.45302 12.2367 1.74393 12.307 1.18637C12.4141 0.341191 14.7095 0.613846 15.9366 0.982678Z" fill="#D8D6D0"/>
<path d="M17.9506 3.08923C17.9506 3.08923 20.2384 4.72335 18.9309 8.9724C18.2772 14.8556 16.316 20.7387 16.316 20.7387C16.316 20.7387 15.6622 21.7191 11.0865 21.7191C6.5108 21.7191 5.20332 21.0654 4.54958 19.7579C3.89584 18.4504 2.26172 6.03036 2.26172 6.03036C2.26172 6.03036 2.58836 3.08878 3.89584 2.76214C5.20332 2.4355 6.51079 2.10841 6.83744 2.10841C7.16408 2.10841 10.1057 0.147202 11.4132 0.474297C12.7211 0.801391 15.9893 3.41587 17.9506 3.08923Z" fill="url(#paint1_linear_77_4645)"/>
<path d="M17.0791 9.62187C17.0791 9.62187 17.6235 7.01874 15.3098 6.49793C12.9961 5.97712 5.73737 6.10731 5.51053 6.19441C5.2837 6.28106 4.73929 6.32463 4.33099 6.97518C3.36014 8.52219 3.84964 10.1862 4.45212 11.7618C5.69381 15.0083 6.17107 18.6036 6.41288 22.0383C6.94548 29.5941 4.91032 36.9544 3.11515 44.2412C2.94185 44.9458 2.60705 45.7687 2.60705 46.5005C2.60705 47.108 2.01728 49.0606 2.19874 49.1472C2.38021 49.2339 3.92269 48.6264 5.19296 46.2836C6.46324 43.9409 12.2248 29.5801 12.8146 27.4106C13.7424 23.9977 14.5944 20.5666 15.4536 17.1378C16.0593 14.722 16.963 12.117 17.0791 9.62187Z" fill="#FCF2D9"/>
<path d="M10.7252 9.38515C10.2674 10.033 9.37009 13.6283 9.13781 14.7475C8.80437 16.353 7.99639 25.9516 7.37169 29.2556C6.5678 33.5073 5.42049 38.2704 4.544 42.5248C4.35437 43.4444 1.80568 50.0184 2.09285 49.8419C2.18131 49.8015 5.2372 45.1111 6.0107 42.2299C7.13942 38.0245 8.28265 33.7419 9.45855 29.5727C10.2774 26.6693 12.1102 18.3173 12.4092 16.8466C12.715 15.3427 13.6473 11.3187 13.5266 10.5983C13.3927 9.79618 12.9232 9.0948 12.5498 9.07393C12.0694 9.04762 11.1825 8.73686 10.7252 9.38515Z" fill="#FF1D25"/>
<path d="M9.80914 9.68284C9.7851 9.63248 9.086 7.93482 9.086 7.93482L7.4283 7.03201L7.20374 5.96405L6.36355 5.22773L5.30469 2.44442L6.98325 2.21758L8.1206 2.78059L8.57199 2.76381L9.97156 2.05334L11.3366 1.97803L12.6436 1.19272L13.2234 2.50385L13.8867 1.27938L14.9183 1.15234L16.4467 3.80545L15.715 4.55356L16.155 5.74129L15.3901 6.62959L14.0954 7.649L14.5214 9.00776L13.0905 9.99949L11.2727 11.0647L9.80914 9.68284Z" fill="black"/>
<defs>
<linearGradient id="paint0_linear_77_4645" x1="12.9095" y1="34.745" x2="2.543" y2="34.7825" gradientUnits="userSpaceOnUse">
<stop stop-color="#BFAB8D"/>
<stop offset="0.5078" stop-color="#E7E1D2"/>
<stop offset="1" stop-color="#CCBFA6"/>
</linearGradient>
<linearGradient id="paint1_linear_77_4645" x1="22.9685" y1="11.0355" x2="-1.16367" y2="11.1227" gradientUnits="userSpaceOnUse">
<stop stop-color="#94938C"/>
<stop offset="0.2296" stop-color="#EDEBE1"/>
<stop offset="0.7988" stop-color="#EDEBE1"/>
<stop offset="1" stop-color="#94938C"/>
</linearGradient>
</defs>
</svg>
