<svg width="19" height="54" viewBox="0 0 19 54" fill="none" xmlns="http://www.w3.org/2000/svg">
<path d="M15.5089 21.583C15.5089 21.583 9.29912 47.077 4.06927 51.3256C-1.16012 55.5747 1.45434 47.0765 1.45434 47.0765C1.45434 47.0765 3.41553 31.3882 3.41553 28.4466C3.41553 25.505 2.37573 19.9961 2.37573 19.9961C2.37573 19.9961 12.4475 22.1646 15.5089 21.583Z" fill="url(#paint0_linear_77_4633)"/>
<path d="M15.8369 2.3018C15.8369 2.3018 19.105 3.93587 18.1247 8.51144C17.1443 13.087 17.471 15.7019 17.471 15.7019C17.471 15.7019 16.8172 23.546 11.2612 23.8727C5.70521 24.1993 2.10992 20.9312 1.78282 18.97C1.45619 17.0089 1.45618 11.4529 1.12909 10.4721C0.801997 9.49133 -0.178371 3.2817 3.09027 2.30135C6.35847 1.321 8.31965 0.993912 8.31965 0.993912C8.31965 0.993912 11.5883 0.013566 15.8369 2.3018Z" fill="url(#paint1_linear_77_4633)"/>
<path d="M2.23499 52.459C2.23499 52.459 13.0969 25.3728 13.5215 22.5823C13.9457 19.7918 18.7081 5.98584 14.7323 5.19918C10.7565 4.41298 8.3099 4.84986 5.95089 4.7623C3.59188 4.67475 2.54301 5.37385 2.80522 6.24761C3.06744 7.12137 2.80524 16.5585 3.85364 19.5296C4.90204 22.5007 3.29699 45.7597 2.59791 47.3326C0.712518 52.4345 1.27369 52.7212 2.23499 52.459Z" fill="#FCF2D9"/>
<path d="M8.82284 8.12635C8.35238 8.8622 7.54847 12.8617 7.3493 14.1048C7.06394 15.8873 5.91706 26.7735 5.39805 30.4392C4.73024 35.156 4.45712 40.1644 3.70946 44.8881C3.54795 45.9088 1.07903 53.2687 1.38572 53.06C1.48099 53.011 4.09145 47.5788 4.79556 44.3713C5.82313 39.689 6.73186 34.9767 7.81297 30.3316C8.56562 27.097 10.8009 17.8802 11.0549 16.2479C11.3144 14.5784 12.1356 10.1057 11.9664 9.31905C11.7781 8.44392 11.2264 7.69627 10.8149 7.69218C10.2841 7.68719 9.29285 7.3905 8.82284 8.12635Z" fill="#FF1D25"/>
<path d="M7.91462 9.40898C7.89057 9.35863 7.19147 7.66106 7.19147 7.66106L5.53377 6.75829L5.3092 5.69038L4.46903 4.9541L3.41016 2.17092L5.08872 1.94409L6.22608 2.50707L6.67747 2.49029L8.07703 1.77986L9.44211 1.70456L10.7491 0.919277L11.3289 2.23035L11.9922 1.00593L13.0238 0.878906L14.5522 3.53188L13.8205 4.27996L14.2605 5.46763L13.4956 6.35589L12.2009 7.37525L12.6269 8.73395L11.196 9.72563L9.37816 10.7908L7.91462 9.40898Z" fill="black"/>
<defs>
<linearGradient id="paint0_linear_77_4633" x1="2.24968" y1="36.2562" x2="13.806" y2="36.298" gradientUnits="userSpaceOnUse">
<stop stop-color="#BFAB8D"/>
<stop offset="0.5078" stop-color="#E7E1D2"/>
<stop offset="1" stop-color="#CCBFA6"/>
</linearGradient>
<linearGradient id="paint1_linear_77_4633" x1="-2.54612" y1="12.2938" x2="21.6206" y2="12.3811" gradientUnits="userSpaceOnUse">
<stop stop-color="#94938C"/>
<stop offset="0.2296" stop-color="#EDEBE1"/>
<stop offset="0.4283" stop-color="#EDEBE1"/>
<stop offset="0.7988" stop-color="#EDEBE1"/>
<stop offset="1" stop-color="#94938C"/>
</linearGradient>
</defs>
</svg>
