<svg width="19" height="67" viewBox="0 0 19 67" fill="none" xmlns="http://www.w3.org/2000/svg">
<path d="M15.7759 27.4223C13.8709 27.4123 11.9365 27.2367 10.0347 27.0843C7.73137 26.8996 4.49713 27.0126 2.39391 25.912C2.20155 25.8113 2.13803 25.4688 1.9611 25.3477C1.55869 26.6969 1.90304 28.859 1.98243 30.2404C2.20972 34.1896 2.38439 38.1459 2.34628 42.1023C2.32496 44.2863 2.20337 46.4548 2.00693 48.6292C1.73564 51.632 0.721677 54.5636 0.448567 57.5972C0.257117 59.7245 0.289334 61.8871 0.704444 63.9875C0.835101 64.6481 1.02518 66.3606 1.59816 66.5185C2.35398 66.7263 3.49406 65.564 3.87379 65.0518C5.12955 63.3587 5.45165 61.0659 6.09405 59.1043C6.81267 56.9086 7.6547 54.7555 8.51486 52.6119C10.1921 48.4305 11.9559 44.26 13.0361 39.8735C13.6672 37.3108 13.948 34.6854 14.5405 32.1131C14.9025 30.5371 15.3304 28.9765 15.7759 27.4223Z" fill="url(#paint0_linear_77_4623)"/>
<path d="M17.9703 8.6707C17.9703 8.6707 18.9488 3.44085 16.6601 1.80765C14.3714 0.174456 13.3915 0.828639 13.3915 0.828639C12.4452 1.08723 11.4943 1.32949 10.5416 1.56222C8.97288 1.94512 7.27938 2.49405 5.65346 2.45186C5.32774 2.44324 5.0011 2.40694 4.67719 2.43961C2.2542 2.68186 1.8609 5.26232 1.49706 7.15275C1.03025 9.57668 0.70133 12.0328 0.507164 14.494C0.347023 16.5259 0.269006 18.581 0.440489 20.6153C0.564791 22.0888 0.770735 23.7719 1.63586 25.0204C2.84486 26.7647 5.06055 27.5573 7.04213 28.0132C9.55721 28.5921 12.2002 28.7282 14.7725 28.6198C16.1711 28.5603 16.5608 25.4437 16.6388 24.4547C17.0539 19.1894 17.4953 13.9291 17.9703 8.6707Z" fill="url(#paint1_linear_77_4623)"/>
<path d="M16.4277 7.14269C16.4277 7.14269 16.6468 4.33632 13.8844 4.59944C11.122 4.86257 7.43864 6.04662 6.82482 6.09018C6.211 6.13373 4.67622 4.99413 3.75527 6.17774C2.83432 7.3618 1.91335 13.1056 1.82579 14.7719C1.73823 16.4382 1.47512 24.112 2.26451 25.208C3.0539 26.3041 2.6043 27.2745 2.6043 27.2745C2.6043 27.2745 2.48362 30.8648 2.70274 32.3995C2.92187 33.9343 3.14144 44.4139 3.14144 45.0717C3.14144 45.7295 2.44007 50.9476 2.30851 51.9121C2.17694 52.8766 1.34401 55.3322 1.256 55.99C1.16844 56.6479 0.77374 60.5063 1.16843 61.6904C1.56313 62.8744 1.08087 65.8559 1.73869 66.6013C2.39652 67.3466 3.93129 64.1456 4.15042 63.4442C4.36954 62.7428 7.17594 53.8851 7.43907 53.1837C7.7022 52.4823 12.3941 39.3714 12.9643 36.2139C13.5346 33.0569 14.8063 26.9179 14.8063 26.9179C14.8063 26.9179 16.6908 7.88806 16.4277 7.14269Z" fill="#FCF2D9"/>
<path d="M9.03278 11.713C8.56595 12.6417 7.79018 17.5558 7.60009 19.0787C7.32744 21.2636 6.26132 34.5602 5.76909 39.0479C5.13532 44.8221 4.90077 50.9203 4.18715 56.7087C4.0329 57.9599 1.61076 67.0773 1.91744 66.801C2.01271 66.7343 4.59181 59.9452 5.27367 55.9991C6.26902 50.2394 7.14416 44.4528 8.19349 38.7339C8.92435 34.7516 11.0965 23.3986 11.3388 21.3984C11.5865 19.3528 12.3759 13.8629 12.1998 12.9216C12.0038 11.8736 11.444 11.0085 11.0303 11.0348C10.4972 11.0697 9.4996 10.7843 9.03278 11.713Z" fill="#FF1D25"/>
<path d="M7.43288 11.5544C7.40612 11.4954 6.62672 9.51153 6.62672 9.51153L4.9105 8.40189L4.63783 7.16341L3.75591 6.28013L2.56641 3.03105L4.2554 2.84142L5.4304 3.53778H5.88679L7.27273 2.77972L8.65098 2.75114L9.9403 1.90234L10.5827 3.43616L11.2015 2.05478L12.2404 1.95225L13.8999 5.07205L13.1913 5.90224L13.6871 7.28817L12.9508 8.27804L11.6837 9.39676L12.1728 10.9791L10.7669 12.0597L8.97262 13.2088L7.43288 11.5544Z" fill="black"/>
<defs>
<linearGradient id="paint0_linear_77_4623" x1="11.1476" y1="45.9078" x2="2.06577" y2="45.9444" gradientUnits="userSpaceOnUse">
<stop stop-color="#BFAB8D"/>
<stop offset="0.5078" stop-color="#E7E1D2"/>
<stop offset="1" stop-color="#CCBFA6"/>
</linearGradient>
<linearGradient id="paint1_linear_77_4623" x1="22.642" y1="14.6396" x2="-3.68502" y2="14.7456" gradientUnits="userSpaceOnUse">
<stop stop-color="#94938C"/>
<stop offset="0.2296" stop-color="#EDEBE1"/>
<stop offset="0.7988" stop-color="#EDEBE1"/>
<stop offset="1" stop-color="#94938C"/>
</linearGradient>
</defs>
</svg>
