<svg width="17" height="64" viewBox="0 0 17 64" fill="none" xmlns="http://www.w3.org/2000/svg">
<path d="M14.5018 23.082C14.5018 23.082 6.33096 27.004 4.04317 23.7358C4.13299 26.9473 4.18833 30.1607 4.23052 33.3731C4.31037 39.4818 4.34258 45.5964 4.16429 51.7038C4.10169 53.8487 4.05179 55.9964 3.84673 58.1336C3.74239 59.2225 3.59858 60.3081 3.39308 61.3824C3.29872 61.8769 3.01428 62.4594 3.24338 62.9108C3.54824 63.511 4.33624 63.6471 4.88607 63.3767C5.66046 62.9956 6.16947 62.0583 6.55372 61.3347C7.48054 59.589 8.07844 57.6595 8.6192 55.7668C11.8869 44.327 13.9982 26.598 14.5018 23.082Z" fill="url(#paint0_linear_77_4612)"/>
<path d="M15.7599 0.644992C14.9873 0.248482 13.7836 0.493465 12.9371 0.486206C11.3665 0.47305 9.79585 0.477589 8.22569 0.522956C6.47133 0.573768 4.03194 0.373237 2.40961 1.1844C0.85169 1.96336 0.68609 3.90917 0.733272 5.4376C0.920186 11.4755 1.30899 17.8297 3.74431 23.4429C4.45748 25.0866 5.45284 26.7452 7.01076 27.7125C9.42476 29.2114 12.1881 28.3426 13.5641 25.9427C14.6656 24.0218 15.0893 21.8075 15.3203 19.6353C15.4949 17.9907 15.3856 16.3339 15.5022 14.6862C15.6251 12.95 16.1373 11.2646 16.4172 9.54832C16.8596 6.83445 17.3949 4.00262 16.3837 1.34909C16.2535 1.00702 16.0339 0.78563 15.7599 0.644992Z" fill="url(#paint1_linear_77_4612)"/>
<path d="M14.4627 5.29841C14.9482 6.16492 14.4537 7.88704 14.4011 8.82341C14.2731 11.1031 14.2845 13.385 14.2845 15.6674C14.2845 17.59 13.3535 25.0274 13.3309 25.1976C13.3086 25.3677 11.1347 38.4328 11.1347 38.4328C11.1347 38.4328 6.56544 61.5915 4.96857 63.2955C3.37169 64.9995 4.83565 58.9698 5.1015 58.1396C5.36779 57.3094 6.32638 30.2959 5.9444 28.2956C5.56242 26.2954 3.01649 19.7749 2.61727 14.1386C2.21805 8.50176 2.70618 5.18092 3.90384 4.74404C4.68005 4.46095 5.64498 4.48771 6.45793 4.4487C7.818 4.38337 9.18398 4.38111 10.545 4.44553C11.621 4.49634 13.648 4.19964 14.3947 5.19408C14.4197 5.2272 14.4423 5.26257 14.4627 5.29841Z" fill="#FCF2D9"/>
<path d="M8.45112 8.27174C8.03919 9.22581 7.55061 14.1771 7.44944 15.7087C7.30472 17.9058 7.01436 31.2418 6.7839 35.7503C6.48765 41.5518 6.60789 47.6532 6.23225 53.4733C6.15105 54.7313 4.26379 63.9743 4.55369 63.6808C4.64533 63.6087 6.82474 56.6807 7.27569 52.702C7.93396 46.8942 8.4711 41.0664 9.18563 35.2962C9.6833 31.2781 11.1913 19.818 11.3165 17.8069C11.4449 15.7504 11.9131 10.2239 11.6826 9.29431C11.4258 8.2595 10.8166 7.42838 10.4051 7.47874C9.87565 7.54406 8.86305 7.31768 8.45112 8.27174Z" fill="#FF1D25"/>
<path d="M6.60908 8.48806C6.5873 8.43951 5.94581 6.80763 5.94581 6.80763L4.53402 5.89483L4.30944 4.87587L3.58402 4.14907L2.60547 1.47601L3.99504 1.31993L4.96137 1.89248H5.33655L6.47661 1.26867L7.61078 1.24508L8.67145 0.546875L9.19996 1.809L9.70899 0.672545L10.5637 0.588156L11.9288 3.15507L11.3458 3.8383L11.7537 4.97839L11.148 5.79275L10.1055 6.7128L10.5079 8.01442L9.35104 8.90361L7.8748 9.84909L6.60908 8.48806Z" fill="black"/>
<defs>
<linearGradient id="paint0_linear_77_4612" x1="1.86292" y1="43.2686" x2="11.0957" y2="43.3019" gradientUnits="userSpaceOnUse">
<stop stop-color="#BFAB8D"/>
<stop offset="0.5078" stop-color="#E7E1D2"/>
<stop offset="1" stop-color="#CCBFA6"/>
</linearGradient>
<linearGradient id="paint1_linear_77_4612" x1="-1.9874" y1="14.3848" x2="20.206" y2="14.4649" gradientUnits="userSpaceOnUse">
<stop stop-color="#94938C"/>
<stop offset="0.2296" stop-color="#EDEBE1"/>
<stop offset="0.7988" stop-color="#EDEBE1"/>
<stop offset="1" stop-color="#94938C"/>
</linearGradient>
</defs>
</svg>
