<svg width="16" height="66" viewBox="0 0 16 66" fill="none" xmlns="http://www.w3.org/2000/svg">
<path d="M2.32341 24.6992C2.32296 32.2333 0.788201 39.7134 0.437965 47.2421C0.295058 50.3107 0.0586772 53.3785 0.103137 56.4525C0.13807 58.8892 -0.0483721 62.9527 1.47098 65.0278C2.11429 65.9043 4.0179 62.0023 4.19982 61.6275C5.339 59.2816 6.04672 56.7878 6.92685 54.3398C7.89726 51.64 8.88672 48.9234 9.68201 46.1651C10.7432 42.4849 11.3479 38.6519 12.0239 34.8868C12.1296 34.2971 13.0533 26.7153 13.4362 26.6609C13.433 26.6609 4.28419 27.967 2.32341 24.6992Z" fill="url(#paint0_linear_77_4600)"/>
<path d="M14.9327 0.660546C14.7839 0.524901 14.5213 0.496319 14.0349 0.45549C13.2909 0.393338 12.5179 0.447782 11.772 0.449143C8.73201 0.455041 5.692 0.514922 2.65198 0.514922C2.65198 0.514922 -0.289601 1.16865 0.0370391 2.80274C0.363679 4.43683 1.34451 24.701 2.32489 26.0085C3.30526 27.3159 5.5931 31.5649 10.4959 30.2575C15.3982 28.95 14.4178 17.5114 14.4178 17.5109C14.2885 15.439 14.8093 13.144 14.9504 11.073C15.16 7.99809 15.3392 4.89639 15.1632 1.81511C15.1246 1.13961 15.1106 0.823411 14.9327 0.660546Z" fill="url(#paint1_linear_77_4600)"/>
<path d="M13.5651 4.14738C13.5251 4.09339 13.4771 4.04485 13.4194 4.00357C13.2044 3.84932 12.9186 3.85069 12.6541 3.85794C11.2123 3.89696 9.77061 3.93642 8.32931 3.97544C7.03907 4.01037 5.2321 3.72775 4.0013 4.09295C3.12027 4.35472 3.46644 3.95276 3.11303 4.6868C2.87259 5.18628 3.1171 6.4316 3.11755 6.99868C3.11755 9.23889 3.0926 11.4718 3.2659 13.7066C3.7545 20.008 3.49094 26.5259 2.97421 32.889C2.46247 39.1914 1.28791 45.5836 1.23483 51.905C1.20126 55.8836 -0.300379 61.4352 1.65447 65.1239C3.49001 64.1513 4.14195 60.1331 4.5008 58.264C4.99212 55.7017 5.18447 53.089 5.72298 50.5358C7.06402 44.1799 8.60196 37.8653 10.3332 31.6043C12.6786 23.1238 13.4331 13.899 13.7497 5.106C13.762 4.77618 13.7511 4.40007 13.5651 4.14738Z" fill="#FCF2D9"/>
<path d="M10.0591 9.24444C10.2728 10.2616 9.76738 15.2111 9.56187 16.7318C9.26698 18.9135 6.8997 32.0413 6.22872 36.5058C5.36538 42.2502 4.51157 48.0027 3.72218 53.7811C3.55159 55.03 2.21144 65.5216 1.98597 65.1763C1.91066 65.0874 1.87891 65.1591 1.87891 64.9236C1.87936 61.1854 2.24276 56.9808 2.59209 52.9917C3.10202 47.1689 3.51758 41.38 3.96445 35.5831C4.27567 31.5463 5.07685 20.015 5.35405 18.0193C5.63759 15.9782 6.27728 10.4689 6.68831 9.60374C7.14561 8.6406 7.90823 7.94696 8.30111 8.07853C8.80741 8.2482 9.84541 8.22732 10.0591 9.24444Z" fill="#FF1D25"/>
<path d="M4.21455 8.93708C4.19277 8.88854 3.55128 7.2567 3.55128 7.2567L2.13949 6.34391L1.91491 5.32498L1.18949 4.5982L0.210938 1.9252L1.60051 1.76913L2.56684 2.34167H2.94202L4.08208 1.71787L5.21625 1.69428L6.27691 0.996094L6.80543 2.25819L7.31446 1.12176L8.16916 1.03737L9.53426 3.60421L8.95129 4.28744L9.35912 5.4275L8.7535 6.24184L7.71095 7.16186L8.11336 8.46345L6.95651 9.35262L5.48027 10.2981L4.21455 8.93708Z" fill="black"/>
<defs>
<linearGradient id="paint0_linear_77_4600" x1="12.3553" y1="44.8901" x2="-3.95018" y2="44.949" gradientUnits="userSpaceOnUse">
<stop stop-color="#BFAB8D"/>
<stop offset="0.5078" stop-color="#E7E1D2"/>
<stop offset="1" stop-color="#CCBFA6"/>
</linearGradient>
<linearGradient id="paint1_linear_77_4600" x1="17.4894" y1="15.4416" x2="-2.05362" y2="15.5122" gradientUnits="userSpaceOnUse">
<stop stop-color="#94938C"/>
<stop offset="0.2296" stop-color="#EDEBE1"/>
<stop offset="0.7988" stop-color="#EDEBE1"/>
<stop offset="1" stop-color="#94938C"/>
</linearGradient>
</defs>
</svg>
