<svg width="16" height="66" viewBox="0 0 16 66" fill="none" xmlns="http://www.w3.org/2000/svg">
<path d="M13.0268 24.6992C13.0273 32.2333 14.562 39.7134 14.9123 47.2421C15.0552 50.3107 15.2915 53.3785 15.2471 56.4525C15.2121 58.8892 15.3986 62.9527 13.8793 65.0278C13.2359 65.9043 11.3323 62.0023 11.1504 61.6275C10.0112 59.2816 9.30351 56.7878 8.42338 54.3398C7.45297 51.64 6.46351 48.9234 5.66822 46.1651C4.60707 42.4849 4.00232 38.6519 3.32635 34.8868C3.22064 34.2971 2.29696 26.7153 1.91406 26.6609C1.91769 26.6609 11.066 27.967 13.0268 24.6992Z" fill="url(#paint0_linear_77_4594)"/>
<path d="M0.419115 0.660546C0.567917 0.524901 0.830592 0.496319 1.31692 0.45549C2.06094 0.393338 2.83398 0.447782 3.57981 0.449143C6.61983 0.455041 9.65984 0.514922 12.6999 0.514922C12.6999 0.514922 15.6414 1.16865 15.3148 2.80274C14.9882 4.43683 14.0073 24.701 13.027 26.0085C12.0466 27.3159 9.75874 31.5649 4.85597 30.2575C-0.046356 28.95 0.934009 17.5114 0.934009 17.5109C1.0633 15.439 0.542506 13.144 0.401415 11.073C0.191821 7.99809 0.0126257 4.89639 0.188648 1.81511C0.226756 1.13961 0.240824 0.823411 0.419115 0.660546Z" fill="url(#paint1_linear_77_4594)"/>
<path d="M1.78563 4.14738C1.82555 4.09339 1.87364 4.04485 1.93125 4.00357C2.14629 3.84932 2.43211 3.85069 2.69659 3.85794C4.13835 3.89696 5.58011 3.93642 7.02141 3.97544C8.31163 4.01037 10.1186 3.72775 11.3494 4.09295C12.2304 4.35472 11.8843 3.95276 12.2377 4.6868C12.4781 5.18628 12.2336 6.4316 12.2331 6.99868C12.2331 9.23889 12.2581 11.4718 12.0848 13.7066C11.5962 20.008 11.8598 26.5259 12.3765 32.889C12.8882 39.1914 14.0628 45.5836 14.1158 51.905C14.1494 55.8836 15.6511 61.4352 13.6962 65.1239C11.8607 64.1513 11.2088 60.1331 10.8499 58.264C10.3586 55.7017 10.1662 53.089 9.62773 50.5358C8.28669 44.1799 6.74876 37.8653 5.01756 31.6043C2.6721 23.1238 1.91765 13.899 1.60099 5.106C1.5892 4.77618 1.59962 4.40007 1.78563 4.14738Z" fill="#FCF2D9"/>
<path d="M5.16492 9.24444C4.95124 10.2616 5.45663 15.2111 5.66215 16.7318C5.95703 18.9135 8.32474 32.0413 8.99527 36.5058C9.85861 42.2502 10.7124 48.0027 11.5018 53.7811C11.6724 55.03 13.0125 65.5216 13.238 65.1763C13.3133 65.0874 13.3451 65.1591 13.3451 64.9236C13.3447 61.1854 12.9813 56.9808 12.6319 52.9917C12.122 47.1689 11.7064 41.38 11.2596 35.5831C10.9483 31.5463 10.1472 20.015 9.86997 18.0193C9.58642 15.9782 8.94673 10.4689 8.53571 9.60374C8.0784 8.6406 7.31579 7.94696 6.92291 8.07853C6.41615 8.2482 5.3786 8.22732 5.16492 9.24444Z" fill="#FF1D25"/>
<path d="M10.445 8.5738C10.4668 8.52526 11.1083 6.89342 11.1083 6.89342L12.5202 5.98063L12.7447 4.9617L13.4702 4.23492L14.4488 1.56192L13.0591 1.40585L12.0928 1.97838H11.7176L10.5775 1.35459L9.44323 1.331L8.38249 0.632812L7.85394 1.89491L7.34492 0.758479L6.49015 0.674092L5.125 3.24093L5.708 3.92416L5.30012 5.06422L5.9058 5.87856L6.94838 6.79858L6.54595 8.10017L7.70286 8.98934L9.17917 9.9348L10.445 8.5738Z" fill="black"/>
<defs>
<linearGradient id="paint0_linear_77_4594" x1="2.99511" y1="44.8901" x2="19.3006" y2="44.949" gradientUnits="userSpaceOnUse">
<stop stop-color="#BFAB8D"/>
<stop offset="0.5078" stop-color="#E7E1D2"/>
<stop offset="1" stop-color="#CCBFA6"/>
</linearGradient>
<linearGradient id="paint1_linear_77_4594" x1="-2.1378" y1="15.4416" x2="17.4052" y2="15.5122" gradientUnits="userSpaceOnUse">
<stop stop-color="#94938C"/>
<stop offset="0.2296" stop-color="#EDEBE1"/>
<stop offset="0.7988" stop-color="#EDEBE1"/>
<stop offset="1" stop-color="#94938C"/>
</linearGradient>
</defs>
</svg>
