<svg width="17" height="64" viewBox="0 0 17 64" fill="none" xmlns="http://www.w3.org/2000/svg">
<path d="M3.13281 23.0352C3.13281 23.0352 11.304 26.9571 13.5918 23.6889C13.502 26.9004 13.4467 30.1137 13.4045 33.3261C13.3246 39.4347 13.2924 45.5493 13.4707 51.6565C13.5333 53.8015 13.5832 55.9491 13.7883 58.0864C13.8926 59.1752 14.0364 60.2608 14.242 61.3351C14.3363 61.8296 14.6208 62.4121 14.3917 62.8635C14.0868 63.4637 13.2992 63.5998 12.7489 63.3294C11.9745 62.9483 11.4655 62.011 11.0812 61.2874C10.1543 59.5417 9.55639 57.6123 9.01561 55.7196C5.74779 44.2799 3.63639 26.5511 3.13281 23.0352Z" fill="url(#paint0_linear_77_4606)"/>
<path d="M1.87673 0.598117C2.64931 0.201607 3.85288 0.44659 4.69941 0.439331C6.26998 0.426175 7.84056 0.430714 9.41068 0.476081C11.165 0.526893 13.6043 0.326362 15.2266 1.13753C16.7845 1.91648 16.95 3.8623 16.9029 5.39072C16.716 11.4286 16.3272 17.7828 13.8919 23.3961C13.1788 25.0397 12.1834 26.6983 10.6256 27.6656C8.21164 29.1645 5.44841 28.2957 4.07246 25.8958C2.97098 23.975 2.54726 21.7606 2.31635 19.5884C2.14169 17.9438 2.25101 16.287 2.13442 14.6393C2.01148 12.9031 1.4993 11.2177 1.21939 9.50144C0.77707 6.78757 0.24174 3.95575 1.25295 1.30222C1.38269 0.960148 1.60272 0.738755 1.87673 0.598117Z" fill="url(#paint1_linear_77_4606)"/>
<path d="M3.17252 5.25154C2.68709 6.11804 3.18161 7.84016 3.23424 8.77653C3.36217 11.0562 3.35082 13.3381 3.35082 15.6205C3.35082 17.5432 4.28176 24.9806 4.30444 25.1507C4.32667 25.3208 6.50067 38.3859 6.50067 38.3859C6.50067 38.3859 11.07 61.5447 12.667 63.2486C14.2639 64.9526 12.7999 58.9229 12.534 58.0927C12.2677 57.2625 11.3091 30.249 11.6911 28.2488C12.0731 26.2486 14.6191 19.728 15.0183 14.0917C15.4176 8.45489 14.9294 5.13404 13.7317 4.69716C12.9555 4.41407 11.9905 4.44084 11.1776 4.40182C9.81745 4.3365 8.45146 4.33424 7.09044 4.39866C6.01433 4.44947 3.98731 4.15277 3.24057 5.1472C3.21562 5.18032 3.19294 5.2157 3.17252 5.25154Z" fill="#FCF2D9"/>
<path d="M9.26303 8.27174C9.67495 9.22581 10.1636 14.1771 10.2647 15.7087C10.4094 17.9058 10.6998 31.2418 10.9302 35.7503C11.2265 41.5518 11.1063 47.6532 11.4819 53.4733C11.5631 54.7313 13.4503 63.9743 13.1605 63.6808C13.0688 63.6087 10.8894 56.6807 10.4385 52.702C9.78021 46.8942 9.24307 41.0664 8.52855 35.2962C8.03088 31.2781 6.52291 19.818 6.3977 17.8069C6.26931 15.7504 5.80112 10.2239 6.03158 9.29431C6.28835 8.2595 6.89763 7.42838 7.3091 7.47874C7.83853 7.54406 8.85155 7.31768 9.26303 8.27174Z" fill="#FF1D25"/>
<path d="M11.9603 8.57769C11.9821 8.52915 12.6236 6.89731 12.6236 6.89731L14.0354 5.98453L14.26 4.9656L14.9854 4.23882L15.964 1.56583L14.5744 1.40976L13.6081 1.98229H13.2329L12.0928 1.3585L10.9586 1.33491L9.89795 0.636719L9.36943 1.89881L8.86043 0.762385L8.0057 0.677998L6.64062 3.24484L7.22359 3.92806L6.81573 5.06812L7.42139 5.88245L8.46391 6.80248L8.0615 8.10407L9.21836 8.99324L10.6946 9.93869L11.9603 8.57769Z" fill="black"/>
<defs>
<linearGradient id="paint0_linear_77_4606" x1="15.7721" y1="43.2214" x2="6.53892" y2="43.2548" gradientUnits="userSpaceOnUse">
<stop stop-color="#BFAB8D"/>
<stop offset="0.5078" stop-color="#E7E1D2"/>
<stop offset="1" stop-color="#CCBFA6"/>
</linearGradient>
<linearGradient id="paint1_linear_77_4606" x1="19.6234" y1="14.3379" x2="-2.5693" y2="14.4181" gradientUnits="userSpaceOnUse">
<stop stop-color="#94938C"/>
<stop offset="0.2296" stop-color="#EDEBE1"/>
<stop offset="0.7988" stop-color="#EDEBE1"/>
<stop offset="1" stop-color="#94938C"/>
</linearGradient>
</defs>
</svg>
