<svg width="19" height="67" viewBox="0 0 19 67" fill="none" xmlns="http://www.w3.org/2000/svg">
<path d="M3.03125 27.4652C4.93622 27.4552 6.87069 27.2797 8.77248 27.1272C11.0758 26.9426 14.31 27.0556 16.4132 25.955C16.6056 25.8543 16.6691 25.5118 16.846 25.3906C17.2484 26.7398 16.9041 28.902 16.8247 30.2834C16.5974 34.2325 16.4227 38.1889 16.4608 42.1453C16.4822 44.3292 16.6038 46.4978 16.8002 48.6722C17.0715 51.675 18.0855 54.6065 18.3586 57.6402C18.55 59.7674 18.5178 61.93 18.1027 64.0305C17.972 64.691 17.782 66.4036 17.209 66.5615C16.4531 66.7693 15.3131 65.607 14.9333 65.0948C13.6776 63.4017 13.3555 61.1089 12.7131 59.1473C11.9945 56.9515 11.1524 54.7984 10.2923 52.6549C8.61506 48.4735 6.85117 44.3029 5.77098 39.9165C5.13992 37.3537 4.85909 34.7284 4.2666 32.1561C3.90411 30.5801 3.47676 29.0195 3.03125 27.4652Z" fill="url(#paint0_linear_77_4618)"/>
<path d="M0.836814 8.71367C0.836814 8.71367 -0.141724 3.48382 2.14702 1.85062C4.43575 0.217425 5.41566 0.871607 5.41566 0.871607C6.36201 1.1302 7.31288 1.37246 8.26558 1.60519C9.83435 1.98809 11.5279 2.53702 13.1538 2.49483C13.4795 2.48621 13.8062 2.44991 14.1301 2.48258C16.5531 2.72483 16.9465 5.30529 17.3103 7.19572C17.7771 9.61965 18.106 12.0758 18.3002 14.5369C18.4604 16.5689 18.5384 18.624 18.3669 20.6582C18.2426 22.1317 18.0366 23.8149 17.1715 25.0633C15.9625 26.8077 13.7468 27.6002 11.7652 28.0562C9.25003 28.6351 6.60699 28.7712 4.03471 28.6627C2.63606 28.6033 2.24636 25.4866 2.16832 24.4976C1.75322 19.2324 1.3118 13.9721 0.836814 8.71367Z" fill="url(#paint1_linear_77_4618)"/>
<path d="M2.37675 7.18567C2.37675 7.18567 2.15765 4.37928 4.91986 4.64241C7.68208 4.90554 11.3652 6.0896 11.979 6.13316C12.5927 6.17671 14.1274 5.0371 15.0483 6.22072C15.9692 7.40479 16.8901 13.1487 16.9776 14.815C17.0652 16.4813 17.3283 24.1551 16.539 25.2512C15.7496 26.3472 16.1992 27.3176 16.1992 27.3176C16.1992 27.3176 16.3199 30.9079 16.1007 32.4427C15.8816 33.9775 15.6621 44.4572 15.6621 45.115C15.6621 45.7728 16.3634 50.9909 16.495 51.9554C16.6265 52.9199 17.4594 55.3756 17.5474 56.0334C17.6349 56.6912 18.0296 60.5497 17.635 61.7338C17.2403 62.9178 17.7225 65.8993 17.0652 66.6447C16.4074 67.3901 14.8727 64.189 14.6536 63.4876C14.4345 62.7862 11.6283 53.9284 11.3652 53.227C11.1021 52.5257 6.41053 39.4147 5.8403 36.2571C5.27007 33.1001 3.99852 26.961 3.99852 26.961C3.99852 26.961 2.11364 7.93105 2.37675 7.18567Z" fill="#FCF2D9"/>
<path d="M9.82132 11.713C10.2881 12.6417 11.0639 17.5558 11.254 19.0787C11.5267 21.2636 12.5928 34.5602 13.085 39.0479C13.7188 44.8221 13.9533 50.9203 14.6669 56.7087C14.8212 57.9599 17.2433 67.0773 16.9366 66.801C16.8414 66.7343 14.2623 59.9452 13.5804 55.9991C12.5851 50.2394 11.7099 44.4528 10.6606 38.7339C9.92974 34.7516 7.75758 23.3986 7.51532 21.3984C7.26762 19.3528 6.47824 13.8629 6.65426 12.9216C6.85025 11.8736 7.41006 11.0085 7.82381 11.0348C8.35687 11.0697 9.35449 10.7843 9.82132 11.713Z" fill="#FF1D25"/>
<path d="M11.6472 11.0882C11.6726 11.0342 12.4057 9.21504 12.4057 9.21504L14.0883 8.22424L14.3333 7.08373L15.1911 6.28482L16.3053 3.30378L14.6222 3.09283L13.4691 3.71208L13.0154 3.7021L11.6218 2.97124L10.2509 2.91589L8.95164 2.10338L8.3451 3.50929L7.70094 2.21816L6.66616 2.10156L5.08203 4.95332L5.80423 5.73634L5.3406 7.00842L6.09321 7.93979L7.37612 9.00137L6.92338 10.4549L8.34375 11.4848L10.1515 12.5858L11.6472 11.0882Z" fill="black"/>
<defs>
<linearGradient id="paint0_linear_77_4618" x1="7.65919" y1="45.9507" x2="16.741" y2="45.9873" gradientUnits="userSpaceOnUse">
<stop stop-color="#BFAB8D"/>
<stop offset="0.5078" stop-color="#E7E1D2"/>
<stop offset="1" stop-color="#CCBFA6"/>
</linearGradient>
<linearGradient id="paint1_linear_77_4618" x1="-3.8349" y1="14.6825" x2="22.4926" y2="14.7886" gradientUnits="userSpaceOnUse">
<stop stop-color="#94938C"/>
<stop offset="0.2296" stop-color="#EDEBE1"/>
<stop offset="0.7988" stop-color="#EDEBE1"/>
<stop offset="1" stop-color="#94938C"/>
</linearGradient>
</defs>
</svg>
