<svg width="19" height="53" viewBox="0 0 19 53" fill="none" xmlns="http://www.w3.org/2000/svg">
<path d="M3.61719 21.4502C3.61719 21.4502 9.82695 46.9442 15.0563 51.1928C20.2857 55.4418 17.6713 46.9437 17.6713 46.9437C17.6713 46.9437 15.7101 31.2554 15.7101 28.3138C15.7101 25.3722 16.7499 19.8633 16.7499 19.8633C16.7499 19.8633 6.67806 22.0318 3.61719 21.4502Z" fill="url(#paint0_linear_77_4628)"/>
<path d="M3.29155 2.16513C3.29155 2.16513 0.0234187 3.79925 1.00377 8.37496C1.98411 12.9507 1.65749 15.5656 1.65749 15.5656C1.65749 15.5656 2.3112 23.41 7.8671 23.7367C13.4235 24.0633 17.0182 20.7951 17.3453 18.8339C17.6719 16.8727 17.6719 11.3166 17.999 10.3357C18.3256 9.35534 19.3064 3.14506 16.0379 2.16468C12.7697 1.1843 10.8086 0.8572 10.8086 0.8572C10.8086 0.8572 7.54002 -0.123177 3.29155 2.16513Z" fill="url(#paint1_linear_77_4628)"/>
<path d="M16.895 52.3229C16.895 52.3229 6.03293 25.2365 5.6083 22.446C5.18413 19.6554 0.421581 5.8493 4.39748 5.06264C8.37338 4.27597 10.82 4.71332 13.179 4.62576C15.5381 4.5382 16.5869 5.2373 16.3247 6.11108C16.0625 6.98485 16.3247 16.4221 15.2763 19.3932C14.2279 22.3643 15.833 45.6236 16.532 47.1964C18.4175 52.2984 17.8563 52.5852 16.895 52.3229Z" fill="#FCF2D9"/>
<path d="M10.2328 7.5365C10.7032 8.27234 11.5072 12.2718 11.7063 13.5149C11.9917 15.2973 13.1386 26.1835 13.6576 29.8491C14.3255 34.5658 14.5986 39.5743 15.3462 44.2978C15.5078 45.3186 17.9767 52.6784 17.67 52.4697C17.5748 52.4207 14.9642 46.9885 14.2601 43.7811C13.2325 39.0988 12.3238 34.3866 11.2427 29.7415C10.49 26.5069 8.25471 17.2903 8.00064 15.658C7.74113 13.9885 6.91995 9.51584 7.08917 8.72918C7.27745 7.85407 7.82913 7.10642 8.24062 7.10234C8.77143 7.09735 9.76274 6.80066 10.2328 7.5365Z" fill="#FF1D25"/>
<path d="M11.0868 9.54571C11.1109 9.49535 11.81 7.79778 11.81 7.79778L13.4677 6.89501L13.6922 5.8271L14.5324 5.09082L15.5913 2.30764L13.9127 2.08081L12.7754 2.64379L12.324 2.62701L10.9244 1.91658L9.55933 1.84128L8.25231 1.056L7.67253 2.36707L7.00927 1.14265L5.97762 1.01562L4.44922 3.66951L5.18098 4.41759L4.74093 5.60526L5.50581 6.49352L6.80058 7.51288L6.37458 8.87158L7.80591 9.86327L9.62374 10.9285L11.0868 9.54571Z" fill="black"/>
<defs>
<linearGradient id="paint0_linear_77_4628" x1="16.8764" y1="36.1234" x2="5.32" y2="36.1652" gradientUnits="userSpaceOnUse">
<stop stop-color="#BFAB8D"/>
<stop offset="0.5078" stop-color="#E7E1D2"/>
<stop offset="1" stop-color="#CCBFA6"/>
</linearGradient>
<linearGradient id="paint1_linear_77_4628" x1="21.6741" y1="12.1575" x2="-2.49207" y2="12.2448" gradientUnits="userSpaceOnUse">
<stop stop-color="#94938C"/>
<stop offset="0.2296" stop-color="#EDEBE1"/>
<stop offset="0.4283" stop-color="#EDEBE1"/>
<stop offset="0.7988" stop-color="#EDEBE1"/>
<stop offset="1" stop-color="#94938C"/>
</linearGradient>
</defs>
</svg>
