<svg width="20" height="51" viewBox="0 0 20 51" fill="none" xmlns="http://www.w3.org/2000/svg">
<path d="M4.01953 20.7309C4.82255 25.9872 6.2385 31.2393 8.08182 36.2193C10.108 41.6924 12.6395 47.1659 17.5611 50.5957C17.6804 50.6787 17.8084 50.7649 17.9535 50.7722C18.1014 50.7794 18.2407 50.7027 18.3591 50.6138C19.0369 50.1071 19.2864 49.1816 19.2166 48.3382C19.1467 47.4944 18.8101 46.7 18.5161 45.9061C16.7222 41.0636 16.2844 35.7343 15.7731 30.6328C15.4492 27.4031 14.6811 23.4444 15.4424 20.2247C16.2599 16.769 4.5263 20.1171 4.01953 20.7309Z" fill="url(#paint0_linear_77_4638)"/>
<path d="M14.158 0.749087C13.4312 0.421584 12.6731 0.413866 11.6605 0.662442C11.3864 0.729575 11.0943 0.833907 10.9455 1.07341C10.2486 2.19291 15.9681 4.34255 16.6518 3.40313C17.0565 2.84429 15.5308 1.72887 15.2114 1.45172C14.8507 1.13828 14.5082 0.906942 14.158 0.749087Z" fill="#D8D6D0"/>
<path d="M4.22277 0.935803C3.88524 1.03743 3.62844 1.1463 3.52047 1.24112C2.97425 1.7211 2.40671 2.23193 2.16218 2.91651C2.06419 3.19098 2.05377 3.55892 2.30329 3.70954C2.38767 3.76035 2.48838 3.77577 2.58637 3.78393C3.73098 3.87784 5.05526 3.13383 6.02339 2.60258C6.38179 2.40614 7.92291 1.69706 7.85259 1.1395C7.74598 0.294316 5.44996 0.566971 4.22277 0.935803Z" fill="#D8D6D0"/>
<path d="M2.20813 3.04236C2.20813 3.04236 -0.0796655 4.67648 1.22778 8.92553C1.8815 14.8087 3.84266 20.6919 3.84266 20.6919C3.84266 20.6919 4.49638 21.6722 9.07199 21.6722C13.6476 21.6722 14.9551 21.0185 15.6088 19.711C16.2625 18.4036 17.8966 5.98349 17.8966 5.98349C17.8966 5.98349 17.5699 3.04191 16.2625 2.71526C14.955 2.38862 13.6476 2.06153 13.321 2.06153C12.9943 2.06153 10.0528 0.100327 8.74537 0.427422C7.43747 0.754516 4.16885 3.369 2.20813 3.04236Z" fill="url(#paint1_linear_77_4638)"/>
<path d="M3.08309 9.575C3.08309 9.575 2.53869 6.97186 4.8524 6.45105C7.16611 5.93024 14.4248 6.06043 14.6516 6.14754C14.8785 6.23419 15.4229 6.27775 15.8312 6.92831C16.802 8.47532 16.3125 10.1394 15.7101 11.7149C14.4684 14.9614 13.9916 18.5567 13.7493 21.9914C13.2167 29.5472 15.2519 36.9076 17.047 44.1944C17.2203 44.8989 17.5551 45.7219 17.5551 46.4536C17.5551 47.0611 18.1449 49.0137 17.9634 49.1003C17.782 49.187 16.2395 48.5795 14.9692 46.2368C13.6989 43.894 7.93735 29.5332 7.34758 27.3637C6.41982 23.9508 5.56784 20.5197 4.70859 17.0909C4.10294 14.6751 3.19923 12.0702 3.08309 9.575Z" fill="#FCF2D9"/>
<path d="M9.43365 9.38515C9.8914 10.033 10.7887 13.6283 11.021 14.7475C11.3545 16.353 12.1625 25.9516 12.7867 29.2556C13.5906 33.5073 14.7379 38.2704 15.6144 42.5248C15.804 43.4444 18.3527 50.0184 18.0655 49.8419C17.9771 49.8015 14.9212 45.1111 14.1477 42.2299C13.019 38.0245 11.8757 33.7419 10.6998 29.5727C9.88097 26.6693 8.04817 18.3173 7.7492 16.8466C7.44343 15.3427 6.51113 11.3187 6.63181 10.5983C6.76564 9.79618 7.23519 9.0948 7.60856 9.07393C8.08944 9.04762 8.97636 8.73686 9.43365 9.38515Z" fill="#FF1D25"/>
<path d="M11.3681 9.95585C11.3921 9.9055 12.0912 8.20793 12.0912 8.20793L13.7489 7.30516L13.9735 6.23725L14.8137 5.50097L15.8725 2.71779L14.194 2.49096L13.0566 3.05395L12.6052 3.03717L11.2057 2.32673L9.84058 2.25143L8.53356 1.46615L7.95378 2.77722L7.29052 1.55281L6.25887 1.42578L4.73047 4.07966L5.46223 4.82774L5.02218 6.01541L5.78706 6.90367L7.08183 7.92303L6.65583 9.28173L8.08716 10.2734L9.90499 11.3386L11.3681 9.95585Z" fill="black"/>
<defs>
<linearGradient id="paint0_linear_77_4638" x1="7.24786" y1="34.6985" x2="17.6147" y2="34.7359" gradientUnits="userSpaceOnUse">
<stop stop-color="#BFAB8D"/>
<stop offset="0.5078" stop-color="#E7E1D2"/>
<stop offset="1" stop-color="#CCBFA6"/>
</linearGradient>
<linearGradient id="paint1_linear_77_4638" x1="-2.81002" y1="10.9886" x2="21.3216" y2="11.0758" gradientUnits="userSpaceOnUse">
<stop stop-color="#94938C"/>
<stop offset="0.2296" stop-color="#EDEBE1"/>
<stop offset="0.7988" stop-color="#EDEBE1"/>
<stop offset="1" stop-color="#94938C"/>
</linearGradient>
</defs>
</svg>
