<svg width="26" height="51" viewBox="0 0 26 51" fill="none" xmlns="http://www.w3.org/2000/svg">
<path d="M10.7535 2.23963C10.7535 2.23963 9.84754 0.18542 8.01334 0.69988C6.17914 1.21434 5.54536 6.00824 5.87745 9.54232C6.20908 13.0764 7.78106 24.2893 10.4836 24.5202C13.1861 24.7511 18.1284 18.4002 15.88 14.862C13.6312 11.3243 9.91105 5.11407 10.7535 2.23963Z" fill="url(#paint0_linear_77_4559)"/>
<path d="M22.577 32.6902C19.3782 32.4597 15.7484 30.8959 12.5437 30.7694C10.5335 30.69 8.52243 30.557 6.50996 30.6215C5.57949 30.6509 4.19535 33.1316 3.29346 33.0168C2.70823 32.9424 3.0943 30.5389 3.11835 29.9169C3.13876 29.3875 3.18367 28.8603 3.1061 28.3327C2.82755 26.4309 1.78139 24.6253 1.34632 22.7236C0.842748 20.5238 0.5025 18.2813 0.293359 16.0347C0.0715155 13.6516 -0.0219435 11.2173 0.289726 8.83733C0.424012 7.81114 0.607292 6.76906 1.01469 5.81137C1.3318 5.066 2.10077 3.60293 3.08341 3.71498C3.44408 3.75627 3.76709 3.96133 4.03702 4.20494C4.566 4.68265 4.93437 5.3187 5.17799 5.98876C5.6802 7.37108 5.66931 8.85956 5.76594 10.3077C5.86575 11.8007 6.27269 13.1834 6.6075 14.6325C7.22902 17.325 7.96306 20.4938 9.72692 22.7009C10.1561 23.238 10.8012 23.6727 11.4858 23.6078C11.8369 23.5742 12.1649 23.4127 12.4516 23.2072C13.4846 22.4664 14.01 21.1879 14.1892 19.9295C14.5562 17.3508 14.2799 14.5063 13.5908 12.0066C13.1866 10.5395 12.4398 9.22567 11.9835 7.79117C11.5012 6.27457 10.847 3.26586 12.9852 2.68834C13.848 2.45516 14.7667 2.89612 15.4118 3.51492C17.8036 5.8082 19.4191 9.21749 20.8023 12.1736C21.6507 13.986 22.4695 15.8596 22.9917 17.7968C23.3056 18.9613 23.2721 20.1218 23.239 21.3245C23.1459 24.6861 22.9509 29.3566 22.577 32.6902Z" fill="url(#paint1_linear_77_4559)"/>
<path d="M3.63819 34.8576C3.36599 34.9406 2.97584 35.6801 2.82477 35.8928C2.22638 36.7371 1.70828 37.6458 1.32039 38.6066C0.275141 41.1957 0.426667 44.0351 2.38742 46.156C2.41056 46.1809 2.43415 46.2059 2.45729 46.2309C2.56299 46.342 2.67323 46.4504 2.75943 46.577C3.00123 46.9322 3.05886 47.3772 3.28796 47.7415C3.50436 48.0859 3.82237 48.408 4.13041 48.6679C4.85583 49.2804 5.82215 49.7059 6.7871 49.6106C7.11873 49.578 7.43495 49.46 7.74662 49.343C9.09991 48.8349 10.5693 48.2555 11.287 46.9118C11.2054 47.0651 11.5778 47.6889 11.6717 47.8159C11.8968 48.1217 12.1726 48.2546 12.5206 48.3889C13.6697 48.833 14.9205 49.1896 16.022 49.7404C16.7832 50.0334 17.4256 50.312 18.2 50.0579C18.651 49.91 19.1078 49.7803 19.5538 49.617C20.3885 49.3117 21.7772 48.7773 21.7772 47.6944C21.7772 46.0199 23.1727 40.997 19.8237 35.974C16.4761 30.9529 3.64862 34.8544 3.63819 34.8576Z" fill="#D8D6D0"/>
<path d="M3.62146 30.7304C3.30253 30.8275 2.84524 31.694 2.66876 31.9431C1.96785 32.932 1.36131 33.9964 0.906736 35.1215C-0.317705 38.1542 -0.139878 41.4801 2.15612 43.9635C2.18334 43.9925 2.21101 44.022 2.23823 44.051C2.36209 44.1812 2.49093 44.3083 2.5921 44.4566C2.87564 44.8731 2.94277 45.3934 3.21089 45.8208C3.46403 46.2236 3.83649 46.6011 4.19761 46.906C5.04732 47.6232 6.17922 48.1213 7.30884 48.0102C7.69718 47.9721 8.06737 47.8337 8.43257 47.6967C10.0177 47.1019 11.7389 46.4228 12.5795 44.849C12.4838 45.0282 12.9202 45.7591 13.03 45.9083C13.2936 46.2663 13.6171 46.4219 14.024 46.5793C15.37 47.0997 16.8349 47.517 18.1251 48.1622C19.0166 48.5056 19.7687 48.8318 20.6761 48.5342C21.2041 48.3609 21.7395 48.2089 22.2616 48.0179C23.2393 47.6604 24.8661 47.0344 24.8661 45.7659C24.8661 43.8047 26.5002 37.9215 22.5783 32.0383C18.6577 26.157 3.63371 30.7268 3.62146 30.7304Z" fill="url(#paint2_linear_77_4559)"/>
<path d="M15.3613 4.70079C16.4751 6.3544 17.7068 8.98249 18.6822 10.7101C19.3486 11.8905 20.0123 13.0972 20.4755 14.3625C21.1478 16.1989 21.1551 18.3457 21.2844 20.2706C21.4364 22.5335 21.4863 24.8118 21.4863 27.0792C21.4863 29.4482 21.8438 29.7899 21.8438 29.7899C21.8438 29.7899 25.2064 40.5317 22.6658 43.197C20.1253 45.8623 13.1841 41.4205 13.1841 41.4205C13.1841 41.4205 11.0973 41.9281 9.64554 42.6894C8.1938 43.4506 6.24302 43.9583 4.97275 42.7738C3.70248 41.5892 1.34341 38.4589 1.43414 37.528C1.52487 36.5976 2.61368 31.8173 3.61175 29.9559C4.60982 28.0945 2.97661 24.4144 2.61368 22.2145C2.25074 20.0147 0.526802 13.0346 0.889737 10.5812C1.25267 8.12778 1.52487 3.51672 2.97661 3.60111C5.10885 3.68549 4.15615 8.04295 4.42835 9.65028C4.70055 11.2576 6.28839 20.2502 7.01426 21.3503C7.74013 22.4505 10.2811 24.8018 11.3695 24.7224C12.4578 24.643 15.7701 23.0184 15.4979 18.8302C15.2257 14.642 13.1841 7.49311 12.9119 6.60438C12.7668 6.12985 12.0899 4.02937 12.3222 3.05081C12.4029 2.71057 12.9764 2.67518 13.2295 2.628C13.6111 2.55632 14.2271 2.79721 15.3613 4.70079Z" fill="#FCF2D9"/>
<path d="M13.3678 2.1875C13.3678 2.1875 16.6796 9.40082 17.6777 12.395C18.6757 15.3892 20.6265 31.1769 19.6284 34.534C18.6304 37.8912 7.69701 38.2088 6.83504 36.1672C5.97307 34.1257 4.52134 22.9201 4.52134 22.9201C4.52134 22.9201 3.25244 17.4707 2.79741 12.4404C2.41996 8.26756 2.78924 4.45266 3.2166 3.64695C3.2166 3.64695 3.07415 8.0439 3.65938 12.6219C4.22101 17.0116 5.50398 21.5746 5.83697 22.285C6.51747 23.7367 8.51361 25.8236 11.6893 25.9143C14.8649 26.0051 16.725 21.9674 16.9518 20.6518C17.1786 19.3362 15.7269 11.1248 15.4547 9.71839L13.3678 2.1875Z" fill="#FF1D25"/>
<path d="M10.6415 39.5511C10.6197 39.6146 9.79135 41.6729 9.79135 41.6729L10.4201 43.8227L9.72012 44.9406L9.80723 46.2743L7.61426 47.8553L7.30033 46.8178L6.31363 46.9716L5.92439 46.6159L4.17101 46.0883L2.97335 45.0336L2.32916 43.9761L1.84103 43.0252L1.23585 41.9745L0.548106 40.071L0.519531 38.314L1.47221 39.1882L2.09281 37.7886L3.46603 37.6398L5.38907 37.8113L6.16301 36.2734L8.17633 36.581L10.5721 37.1417L10.6415 39.5511Z" fill="black"/>
<defs>
<linearGradient id="paint0_linear_77_4559" x1="14.2627" y1="23.4939" x2="-4.29913" y2="-21.8718" gradientUnits="userSpaceOnUse">
<stop offset="0.1599" stop-color="#BFAB8D"/>
<stop offset="0.5078" stop-color="#E7E1D2"/>
<stop offset="0.7297" stop-color="#CCBFA6"/>
</linearGradient>
<linearGradient id="paint1_linear_77_4559" x1="1.3899" y1="17.5046" x2="22.3004" y2="18.45" gradientUnits="userSpaceOnUse">
<stop offset="0.1599" stop-color="#BFAB8D"/>
<stop offset="0.5078" stop-color="#E7E1D2"/>
<stop offset="0.7297" stop-color="#CCBFA6"/>
</linearGradient>
<linearGradient id="paint2_linear_77_4559" x1="-5.63482" y1="41.17" x2="29.1875" y2="37.5131" gradientUnits="userSpaceOnUse">
<stop stop-color="#94938C"/>
<stop offset="0.2296" stop-color="#EDEBE1"/>
<stop offset="0.7988" stop-color="#EDEBE1"/>
<stop offset="1" stop-color="#94938C"/>
</linearGradient>
</defs>
</svg>
