<svg width="25" height="40" viewBox="0 0 25 40" fill="none" xmlns="http://www.w3.org/2000/svg">
<path d="M15.4897 36.6687C15.7845 38.5219 14.5988 39.0128 13.6688 37.7611C11.8716 35.3417 11.0383 31.8775 10.3179 28.7132C9.98454 27.2478 8.44497 22.0202 9.62711 21.0721C10.8002 20.1316 14.7212 23.1726 14.6223 26.3065C14.5688 28.0064 14.4481 29.6977 14.5275 31.4257C14.6142 33.3034 15.2007 34.8527 15.4897 36.6687Z" fill="url(#paint0_linear_77_4684)"/>
<path d="M3.02344 13.3591C3.02344 13.3591 4.33086 16.9544 4.33086 20.8764C4.33086 24.7983 4.00425 29.7011 6.29206 33.2965C8.57988 36.8918 9.2336 38.5259 9.2336 38.5259C9.2336 38.5259 11.1948 40.8137 12.1751 38.1992C12.1751 38.1992 9.88735 30.3549 11.1948 26.4329C12.5023 22.511 13.8097 23.818 14.1363 24.4717C14.4634 25.1254 19.039 32.6427 19.6928 34.6039C20.3465 36.5651 21.3269 38.5259 21.9806 38.5259C22.6343 38.5259 23.6147 36.8918 24.2684 33.9502C24.9221 31.0086 24.2684 27.7404 22.9609 25.4521C21.6535 23.1642 20.3465 13.032 20.3465 11.3979C20.3456 9.76379 4.65753 12.7054 3.02344 13.3591Z" fill="url(#paint1_linear_77_4684)"/>
<path d="M10.5725 3.09038C10.2622 3.01688 9.94098 2.81409 9.56807 2.56866C8.55549 1.90131 7.50389 1.25756 6.3357 0.933192C5.16706 0.608819 3.85233 0.636945 2.81253 1.26074C2.08122 1.69944 1.53952 2.39446 1.09356 3.12123C0.395824 4.25858 -0.11905 5.58011 0.0410935 6.90482C0.223467 8.41554 0.822727 9.90312 1.43744 11.2832C1.81036 12.1202 2.12111 13.0752 2.79299 13.7303C3.57693 14.4942 4.89485 14.6018 5.92785 14.7465C8.1499 15.0572 10.381 14.7787 12.5504 14.2638C14.7072 13.7516 16.936 13.1836 19.0329 12.4695C19.4099 12.3411 19.7864 12.1928 20.1021 11.9505C20.9872 11.2705 21.1692 9.72482 21.3819 8.70497C21.7049 7.15479 21.5076 5.55199 20.8734 4.10705C20.0568 2.24656 18.4953 0.604281 16.4221 0.285352C14.9381 0.0571572 13.6206 0.36157 12.6221 1.51162C12.2914 1.8927 12.0283 2.33547 11.6708 2.69342C11.2775 3.08765 10.9322 3.17567 10.5725 3.09038Z" fill="url(#paint2_linear_77_4684)"/>
<path d="M9.16623 35.3638C9.13765 35.3057 9.10862 35.2503 9.07914 35.1982C8.69216 34.5168 8.24623 33.8707 7.87423 33.1807C6.8975 31.3692 6.67972 29.4439 6.35353 27.4587C5.83954 24.3334 5.8427 21.1573 5.56189 18.0089C5.31963 15.2951 4.80384 12.579 4.0866 9.94953C3.70099 8.53592 3.78673 7.12185 6.01466 6.82198C8.24259 6.52211 8.71937 7.41628 10.9473 7.20215C12.2761 7.07421 13.4474 5.60888 14.7127 5.20603C17.3893 4.07187 19.4331 6.04395 19.4521 6.90046C19.4766 8.00876 19.5682 9.12386 19.37 10.2163C19.154 11.4081 18.8991 12.5558 18.8392 13.773C18.7458 15.6789 18.9494 17.6001 19.4471 19.4424C19.9888 21.4476 20.5985 23.4383 21.3702 25.3677C21.8805 26.6434 22.6391 27.779 22.7389 29.1835C22.8147 30.2478 22.8092 31.3157 22.8056 32.3823C22.8038 33.0033 23.0279 34.8765 22.2181 35.0793C21.8878 35.1619 21.5358 34.9963 21.3031 34.7477C21.0703 34.4991 20.9329 34.1788 20.7963 33.8671C19.1981 30.2124 17.1498 26.7546 14.7122 23.5971C14.1352 22.8494 13.4574 22.2855 12.5424 22.8653C11.4436 23.5612 10.5304 24.8846 10.2768 26.1576C9.60631 29.5228 10.9986 32.6663 10.9446 35.978C10.9351 36.5737 10.5599 36.9325 10.015 36.6277C9.5895 36.3886 9.38581 35.8083 9.16623 35.3638Z" fill="#FCF2D9"/>
<path d="M22.8558 38.527C22.8558 38.527 21.4949 30.3611 21.1773 28.9093C20.8598 27.4576 17.7192 13.7316 16.4594 11.5794C15.1996 9.42719 7.81825 11.0676 7.52247 12.6228C7.22669 14.178 7.70393 24.5542 7.70393 24.5542C7.70393 24.5542 8.19479 27.9294 8.67294 31.4812C9.06943 34.4277 10.7139 39.1308 11.1517 39.6158C11.1517 39.6158 9.57796 34.4726 9.26676 31.2112C8.96871 28.0841 9.16425 24.7161 9.29081 24.1695C9.54985 23.0521 10.6581 21.2755 12.9386 20.6799C15.2195 20.0842 17.2115 22.5617 17.5862 23.4327C17.9609 24.3037 20.1045 28.7991 20.1335 29.8167L22.8558 38.527Z" fill="#FF1D25"/>
<path d="M13.482 10.5519C13.4765 10.4794 13.3936 8.07403 13.3936 8.07403L12.1909 6.27795L12.3324 4.85163L11.8125 3.59225L13.0016 1.18918L13.4997 1.85925L14.1838 1.23591L14.5958 1.39651L16.0852 1.07031L17.3391 1.52489L18.1806 2.24759L18.8693 2.94123L19.6796 3.67618L20.8423 5.20368L21.4629 6.90447L20.4535 6.50888L20.4672 8.17201L19.4922 8.97591L17.9978 9.73127L17.9438 11.6031L16.3356 12.2691L14.3549 12.8716L13.482 10.5519Z" fill="black"/>
<defs>
<linearGradient id="paint0_linear_77_4684" x1="11.5585" y1="20.7059" x2="11.5827" y2="57.7752" gradientUnits="userSpaceOnUse">
<stop offset="0.1599" stop-color="#BFAB8D"/>
<stop offset="0.5078" stop-color="#E7E1D2"/>
<stop offset="0.7297" stop-color="#CCBFA6"/>
</linearGradient>
<linearGradient id="paint1_linear_77_4684" x1="4.91771" y1="25.1458" x2="21.6757" y2="25.2063" gradientUnits="userSpaceOnUse">
<stop stop-color="#BFAB8D"/>
<stop offset="0.5078" stop-color="#E7E1D2"/>
<stop offset="1" stop-color="#CCBFA6"/>
</linearGradient>
<linearGradient id="paint2_linear_77_4684" x1="-6.33882" y1="7.48115" x2="27.7008" y2="7.60411" gradientUnits="userSpaceOnUse">
<stop stop-color="#94938C"/>
<stop offset="0.2614" stop-color="#EDEBE1"/>
<stop offset="0.7687" stop-color="#EDEBE1"/>
<stop offset="1" stop-color="#94938C"/>
</linearGradient>
</defs>
</svg>
