<svg width="19" height="55" viewBox="0 0 19 55" fill="none" xmlns="http://www.w3.org/2000/svg">
<path d="M9.19104 54.2334C9.19104 54.2334 3.89228 55.3291 2.01458 52.5765C0.136876 49.8239 8.55954 52.5729 9.19104 54.2334Z" fill="#D8D6D0"/>
<path d="M9.96875 54.4683C9.96875 54.4683 15.6121 54.8498 17.0162 51.1907C18.4203 47.5316 10.3013 52.3502 9.96875 54.4683Z" fill="#D8D6D0"/>
<path d="M12.2217 33.9373C12.3048 33.9781 12.3837 34.0244 12.4581 34.0765C13.8958 35.0809 15.1076 36.7082 16.0217 38.1804C17.4108 40.417 18.4026 42.9752 18.1354 45.6445C17.953 47.4692 17.7484 49.5674 16.8365 51.206C16.3039 52.1632 15.1066 52.6019 14.1317 52.9413C13.2965 53.2321 12.4536 53.5052 11.6347 53.8404C10.8784 54.1498 10.1362 54.6775 9.28421 54.6094C8.30473 54.5309 7.62059 53.7633 6.8371 53.2652C5.60764 52.484 4.13592 52.0834 2.67963 52.1537C2.42376 52.166 2.16153 52.1918 1.9161 52.117C1.55815 52.0081 1.29639 51.7041 1.08543 51.3956C0.124551 49.992 0.149955 48.6319 0.141789 46.9996C0.133169 45.341 0.165379 43.6725 0.481589 42.0393C1.0446 39.129 2.96727 36.7214 3.97805 33.9745C4.03612 33.8161 4.09419 33.6542 4.2008 33.5235C4.38318 33.2999 4.68169 33.2032 4.96932 33.1801C5.50828 33.1365 6.05133 33.22 6.58531 33.2772C7.5979 33.3861 8.58646 33.499 9.6045 33.5689C10.412 33.6251 11.4705 33.5662 12.2217 33.9373Z" fill="url(#paint0_linear_77_4543)"/>
<path d="M14.3634 35.8512C14.3271 35.8807 14.2836 35.9038 14.2305 35.9183C13.9638 35.9932 13.1417 35.5908 12.8509 35.5146C11.8868 35.2623 10.9119 35.0514 9.93104 34.8758C8.89167 34.6898 7.84186 34.5133 6.78343 34.5047C6.22315 34.5002 5.65969 34.5392 5.11119 34.658C4.62395 34.7637 4.09904 35.0976 3.63766 35.1394C3.30148 33.8287 3.64264 32.3044 3.72067 30.9733C3.80732 29.4935 3.94343 28.0168 4.12807 26.546C4.47423 23.7859 5.16336 21.1287 5.66558 18.4036C6.15465 15.7528 6.29075 12.9505 6.23222 10.2511C6.20455 8.98178 6.12788 7.71014 5.98225 6.44894C5.85839 5.37239 5.54807 4.40879 5.65832 3.29322C5.77038 2.15905 6.30255 0.441471 7.80013 0.906027C8.92751 1.25581 9.62934 2.49568 10.1982 3.43841C11.2821 5.23357 12.071 7.18933 12.7978 9.15598C13.5237 11.1199 14.1929 13.1179 14.5717 15.1811C14.9024 16.9809 14.862 18.7424 14.8307 20.5594C14.7817 23.4438 14.7128 26.3278 14.6415 29.2117C14.5957 31.0727 14.7019 33.0139 14.5553 34.9012C14.529 35.2542 14.5808 35.6734 14.3634 35.8512Z" fill="url(#paint1_linear_77_4543)"/>
<path d="M14.7676 39.3683C14.7145 39.1705 14.6546 38.975 14.5884 38.7817C14.0295 37.1576 13.0373 35.7249 12.6952 34.0259C12.468 32.8977 12.5442 31.724 12.6045 30.569C12.825 26.3721 12.9888 22.0129 12.5777 17.8278C12.1694 13.6704 11.1088 9.64184 10.0263 5.65639C9.68065 4.39067 9.17029 1.3688 8.05972 0.93827C7.95764 0.898801 7.69542 0.861142 7.40553 0.820312C7.31797 6.53196 7.13878 14.0719 6.93645 19.774C6.90015 20.7957 5.55958 29.4167 5.59587 29.9071C5.63216 30.3975 5.16125 33.5437 5.12496 33.9111C5.08867 34.2791 2.55224 38.8144 2.69741 41.7151C2.84213 44.6158 3.08122 46.7018 4.28433 47.865C5.48745 49.0286 7.6977 49.6824 8.82097 49.5191C9.94424 49.3557 12.2266 49.6824 12.8064 48.4162C13.4855 46.9323 14.44 45.8239 14.8311 44.1517C15.1958 42.5911 15.1831 40.9139 14.7676 39.3683Z" fill="#FCF2D9"/>
<path d="M7.14352 42.4975C6.84681 41.6242 6.76515 37.2104 6.78375 35.8485C6.81097 33.895 8.37118 25.3439 8.48687 21.3398C8.63522 16.1875 7.8195 7.89947 7.7578 4.27921C7.6961 0.658945 7.85081 0.745144 7.97466 0.788242C8.09852 0.831341 8.50184 2.1243 8.6257 4.5809C8.74955 7.03751 10.214 14.8247 10.4381 19.9788C10.5938 23.5682 9.99536 33.0916 9.9636 34.8795C9.93139 36.7078 10.3433 41.0158 10.0738 41.822C9.77396 42.7189 9.17601 43.4111 8.81579 43.3372C8.35167 43.2415 7.44023 43.3703 7.14352 42.4975Z" fill="#FF1D25"/>
<path d="M10.428 47.0439C10.4094 47.0997 9.69303 48.8962 9.69303 48.8962L10.2783 50.7903L9.66626 51.7635L9.75926 52.9349L7.81983 54.2977L7.52767 53.3835L6.64892 53.5074L6.29732 53.1907L4.72673 52.708L3.6461 51.7689L2.09002 51.4105L2.6131 49.9937L1.21943 50.4378L0.351562 49.7814L1.14412 46.6546L2.24109 46.6215L2.77913 45.4002L4.00313 45.285L5.72117 45.4569L6.39486 44.1159L8.32658 41.4805L9.91441 41.8888L10.428 47.0439Z" fill="black"/>
<defs>
<linearGradient id="paint0_linear_77_4543" x1="-5.80802" y1="44.297" x2="24.4287" y2="43.3656" gradientUnits="userSpaceOnUse">
<stop stop-color="#94938C"/>
<stop offset="0.2666" stop-color="#EDEBE1"/>
<stop offset="0.7117" stop-color="#EDEBE1"/>
<stop offset="1" stop-color="#94938C"/>
</linearGradient>
<linearGradient id="paint1_linear_77_4543" x1="0.72819" y1="19.4265" x2="15.088" y2="17.9185" gradientUnits="userSpaceOnUse">
<stop stop-color="#BFAB8D"/>
<stop offset="0.5078" stop-color="#E7E1D2"/>
<stop offset="1" stop-color="#CCBFA6"/>
</linearGradient>
</defs>
</svg>
