<svg width="19" height="58" viewBox="0 0 19 58" fill="none" xmlns="http://www.w3.org/2000/svg">
<path d="M9.3349 56.2052C9.3349 56.2052 3.989 57.0404 2.24786 54.1991C0.507175 51.3577 8.78552 54.5157 9.3349 56.2052Z" fill="#D8D6D0"/>
<path d="M3.96875 38.2822C3.96875 38.2822 4.29538 27.1697 5.27621 24.2281C6.25704 21.2865 7.23742 11.4814 6.91033 8.8665C6.58323 6.25157 6.58369 2.32962 6.58369 2.32962C6.58369 2.32962 6.25704 -0.611955 9.19863 1.67589C12.1402 3.96373 15.7355 15.0763 15.4084 19.652C15.0818 24.2277 14.9784 38.0164 15.0301 37.986C15.0813 37.9551 3.96875 38.2822 3.96875 38.2822Z" fill="url(#paint0_linear_77_4530)"/>
<path d="M14.7533 36.9731C14.7533 36.9731 22.2706 48.0856 16.7145 53.9687C16.0358 54.6873 14.9684 55.1927 14.1413 55.7185C13.2875 56.2615 12.3766 57.0155 11.3358 57.133C10.1422 57.2682 9.26848 56.0192 8.09529 55.7756C6.23026 55.3882 4.40515 55.6949 2.81232 54.4228C1.49713 53.3726 0.699595 51.7353 0.428755 50.0958C0.0912264 48.0502 0.44055 45.9715 0.847944 43.9631C1.0217 43.1071 1.31749 42.2927 1.66364 41.4907C2.03247 40.636 2.69754 39.8017 2.98698 38.9334C2.98698 38.9343 5.60148 31.09 14.7533 36.9731Z" fill="url(#paint1_linear_77_4530)"/>
<path d="M15.654 41.3755C15.6 41.1695 15.5388 40.9654 15.4712 40.7644C14.9014 39.0722 13.8888 37.5792 13.5404 35.809C13.3086 34.6331 13.3861 33.41 13.4478 32.2068C13.6728 27.8339 13.8398 23.2914 13.4206 18.9307C13.0041 14.5986 11.9222 10.4013 10.8179 6.24798C10.465 4.92916 9.94465 1.7807 8.81185 1.33203C8.70796 1.29074 8.44029 1.07389 8.14451 1.03125C8.05513 6.98246 7.87232 15.0169 7.6659 20.9586C7.62915 22.0229 6.26136 31.006 6.29856 31.5168C6.33576 32.0276 5.85487 35.3059 5.81813 35.6892C5.78138 36.0726 3.19415 40.798 3.34204 43.8207C3.48994 46.8435 3.73355 49.0166 4.96071 50.2288C6.18786 51.4415 8.44257 52.1224 9.58806 51.9523C10.7336 51.7822 13.0622 52.1224 13.6533 50.8027C14.3461 49.2566 15.3196 48.1016 15.7184 46.359C16.0904 44.7335 16.0772 42.986 15.654 41.3755Z" fill="#FCF2D9"/>
<path d="M7.83707 44.736C7.46505 43.8169 7.36207 39.1704 7.38611 37.7373C7.42014 35.6808 8.62193 26.9136 8.76665 22.6986C8.95266 17.275 8.68545 8.31731 8.60741 4.5065C8.52938 0.695684 8.72446 0.786418 8.87962 0.831785C9.03478 0.877152 9.54108 2.23816 9.69624 4.82407C9.8514 7.40998 10.6989 15.5488 10.9797 20.9747C11.1752 24.7528 11.4143 34.8351 11.3748 36.717C11.3345 38.6414 11.8517 43.1763 11.5132 44.0247C11.1367 44.9687 10.3867 45.6978 9.93488 45.6198C9.35326 45.5195 8.20954 45.6551 7.83707 44.736Z" fill="#FF1D25"/>
<path d="M10.8459 48.7236C10.8273 48.7794 10.111 50.5759 10.111 50.5759L10.6962 52.47L10.0842 53.4432L10.1772 54.6146L8.2378 55.9774L7.94564 55.0632L7.06688 55.1871L6.71529 54.8704L5.1447 54.3877L4.06407 53.4486L2.50799 53.0902L3.03107 51.6734L1.6374 52.1175L0.769531 51.4611L1.56209 48.3343L2.65906 48.3012L3.1971 47.0799L4.4211 46.9647L6.13914 47.1366L6.81283 45.7956L8.74454 43.1602L10.3324 43.5685L10.8459 48.7236Z" fill="black"/>
<defs>
<linearGradient id="paint0_linear_77_4530" x1="4.86854" y1="19.591" x2="17.7611" y2="19.1938" gradientUnits="userSpaceOnUse">
<stop stop-color="#BFAB8D"/>
<stop offset="0.5078" stop-color="#E7E1D2"/>
<stop offset="1" stop-color="#CCBFA6"/>
</linearGradient>
<linearGradient id="paint1_linear_77_4530" x1="-3.2834" y1="46.3693" x2="23.4429" y2="45.546" gradientUnits="userSpaceOnUse">
<stop stop-color="#94938C"/>
<stop offset="0.0311" stop-color="#A6A59D"/>
<stop offset="0.0939" stop-color="#C5C3BB"/>
<stop offset="0.1552" stop-color="#DBD9D0"/>
<stop offset="0.2138" stop-color="#E8E7DD"/>
<stop offset="0.2666" stop-color="#EDEBE1"/>
<stop offset="0.7117" stop-color="#EDEBE1"/>
<stop offset="0.7637" stop-color="#E7E5DB"/>
<stop offset="0.835" stop-color="#D5D3CA"/>
<stop offset="0.9175" stop-color="#B8B7AF"/>
<stop offset="1" stop-color="#94938C"/>
</linearGradient>
</defs>
</svg>
