<svg width="20" height="70" viewBox="0 0 20 70" fill="none" xmlns="http://www.w3.org/2000/svg">
<path d="M13.7304 42.0114C13.7309 42.0123 20.921 51.4904 19.6136 59.3343C19.1917 61.8653 18.3279 64.5107 16.8022 66.598C16.0582 67.616 15.0914 68.5374 13.8724 68.9412C12.2601 69.4751 10.1909 69.056 8.57447 68.6953C7.77873 68.5179 6.99707 68.2734 6.25578 67.9322C1.07308 65.5486 -0.296089 59.4032 0.120832 54.1951C0.413901 50.5367 1.52449 46.9877 2.96806 43.6351C3.90443 41.4602 6.08566 40.8904 8.26281 40.5824C9.90146 40.3505 12.6162 40.5429 13.7304 42.0114Z" fill="url(#paint0_linear_77_4520)"/>
<path d="M16.0309 45.477C16.0309 45.477 3.94928 42.4488 2.94531 44.1754L7.82451 9.62273C7.82451 9.62273 7.67298 0.742188 8.98045 0.742188C10.2879 0.742188 11.5954 4.66414 11.5954 4.66414C11.5954 4.66414 15.7396 37.2071 16.0309 45.477Z" fill="url(#paint1_linear_77_4520)"/>
<path d="M13.707 41.9802C13.7074 41.9811 20.8976 51.4592 19.5901 59.3031C19.1682 61.8341 18.3044 64.4794 16.7788 66.5667C16.0347 67.5848 15.068 68.5062 13.849 68.9099C12.2366 69.4439 10.1675 69.0247 8.55105 68.664C7.75532 68.4867 6.97363 68.2421 6.23234 67.901C1.04964 65.5174 -0.319526 59.372 0.0973941 54.1639C0.390463 50.5055 1.50105 46.9565 2.94462 43.6039C3.88099 41.429 6.06223 40.8592 8.23938 40.5512C9.87802 40.3193 12.5928 40.5112 13.707 41.9802Z" fill="url(#paint2_linear_77_4520)"/>
<path d="M7.77743 7.74587C8.1322 13.8672 7.58735 20.1609 7.48165 26.2922C7.40815 30.5625 7.625 34.851 7.19266 39.1087C6.78436 43.1327 4.99512 46.7434 3.93673 50.6118C2.84795 54.5923 4.52649 63.8662 9.74359 63.5164C14.9607 63.1666 16.9568 58.0483 16.9568 54.4177C16.9568 48.8811 14.9838 41.4809 14.1736 36.0542C13.112 28.9411 12.7854 23.4559 11.9053 16.3197C11.624 14.0405 11.2702 11.4383 11.2702 9.15178C11.0901 8.07024 10.8446 4.57339 10.499 3.52633C10.2576 2.79502 9.49863 0.286244 8.77504 0.66823C8.45657 0.836994 7.7484 7.24684 7.77743 7.74587Z" fill="#FCF2D9"/>
<path d="M13.0597 53.3753C13.4948 52.4562 13.1291 48.1051 13.101 46.6715C13.0611 44.6151 12.121 35.598 11.9518 31.383C11.7345 25.9595 10.7223 16.3654 10.5908 12.5559C10.2873 3.77572 8.90578 0.498896 8.73066 0.624562C8.57867 0.733441 9.54729 9.60712 9.36582 12.193C9.18434 14.7789 9.71514 24.1879 9.38713 29.6137C9.15847 33.3919 8.68438 43.2473 8.73066 45.1291C8.77784 47.0535 8.36816 51.8152 8.76378 52.6635C9.20385 53.6076 9.74871 54.1792 10.6084 54.2586C11.4682 54.3385 12.6251 54.2945 13.0597 53.3753Z" fill="#FF1D25"/>
<path d="M14.3303 60.7424C14.3117 60.7982 10.094 63.2543 10.094 63.2543L10.6792 65.1483L10.0672 66.1214L10.1602 67.2928L8.22078 68.6556L7.92862 67.7414L7.04986 67.8653L6.69827 67.5486L5.12767 67.066L4.04704 66.1269L2.92377 65.4899L3.01404 64.3512L2.10717 64.4465L1.33594 62.6772L1.54507 61.0123L2.64205 60.9792L3.18009 59.7579L4.40408 59.6427L6.12257 59.8146L6.70917 54.0731L12.1876 51.9727L12.879 55.2526L14.3303 60.7424Z" fill="black"/>
<defs>
<linearGradient id="paint0_linear_77_4520" x1="-6.22868" y1="54.5433" x2="26.724" y2="55.1323" gradientUnits="userSpaceOnUse">
<stop stop-color="#94938C"/>
<stop offset="0.0617" stop-color="#A4A29B"/>
<stop offset="0.1809" stop-color="#CCCAC2"/>
<stop offset="0.2666" stop-color="#EDEBE1"/>
<stop offset="0.7117" stop-color="#EDEBE1"/>
<stop offset="0.7719" stop-color="#E0DED5"/>
<stop offset="0.883" stop-color="#BEBDB4"/>
<stop offset="1" stop-color="#94938C"/>
</linearGradient>
<linearGradient id="paint1_linear_77_4520" x1="4.606" y1="23.353" x2="14.2106" y2="23.0572" gradientUnits="userSpaceOnUse">
<stop stop-color="#BFAB8D"/>
<stop offset="0.5078" stop-color="#E7E1D2"/>
<stop offset="1" stop-color="#CCBFA6"/>
</linearGradient>
<linearGradient id="paint2_linear_77_4520" x1="-5.48127" y1="54.5255" x2="26.3233" y2="55.094" gradientUnits="userSpaceOnUse">
<stop stop-color="#94938C"/>
<stop offset="0.2666" stop-color="#EDEBE1"/>
<stop offset="0.7117" stop-color="#EDEBE1"/>
<stop offset="1" stop-color="#94938C"/>
</linearGradient>
</defs>
</svg>
