<svg width="19" height="61" viewBox="0 0 19 61" fill="none" xmlns="http://www.w3.org/2000/svg">
<path d="M13.3015 34.815C13.3015 34.815 16.5698 36.1225 17.5506 43.6398C17.5506 43.6398 18.531 51.4842 18.8581 53.772C19.1847 56.0599 19.1847 59.0015 15.5898 59.9818C11.9945 60.9622 8.72625 60.3085 6.76503 59.6552C4.80381 59.0014 1.86221 57.0402 1.20847 54.7524C0.554729 52.4645 1.20846 41.3519 2.18885 39.3907C3.16968 37.4295 5.45753 32.2001 13.3015 34.815Z" fill="url(#paint0_linear_77_4510)"/>
<path d="M10.0352 3.76434C10.0352 3.76434 17.2096 19.4494 14.2761 35.9566C14.2761 35.9566 3.87384 34.7235 3.35938 37.5471C4.81839 30.68 5.51932 23.4531 5.23215 16.443C5.11555 13.5989 4.91503 10.759 4.83518 7.91358C4.78347 6.0608 4.46136 3.944 5.25665 2.21825C5.59055 1.49283 6.14267 0.426712 7.04865 0.341876C8.58615 0.198063 9.57423 2.70412 10.0352 3.76434Z" fill="url(#paint1_linear_77_4510)"/>
<path d="M14.9553 54.9618C15.4149 53.5927 15.2089 51.5802 15.2388 50.236C15.281 48.3424 15.2561 46.4438 15.0646 44.5602C14.9077 43.0204 14.6827 41.4258 14.161 39.9949C13.6107 38.486 12.8562 37.1096 12.5464 35.4828C12.3808 34.614 12.3381 33.7221 12.2959 32.8347C11.9521 25.582 11.6826 18.3111 10.6387 11.1323C10.2898 8.73328 9.34984 1.96777 7.55107 0.359976C6.33434 -0.727461 6.73265 5.1593 6.72902 6.19411C6.71042 11.2656 6.88328 16.2796 6.86468 21.3511C6.8488 25.6809 7.63499 30.972 6.00134 34.9633C4.91573 37.6155 3.89863 39.2791 3.69947 42.2782C3.52481 44.9095 3.34969 47.5403 3.17503 50.1716C3.10516 51.2232 3.03937 52.312 3.35603 53.3032C4.40717 56.5936 10.4994 57.4239 12.995 56.7547C13.6955 56.5669 14.376 56.1377 14.7512 55.4391C14.831 55.2921 14.8986 55.1319 14.9553 54.9618Z" fill="#FCF2D9"/>
<path d="M6.96844 49.8629C6.53337 48.9438 6.41359 44.2973 6.44127 42.8642C6.48119 40.8077 7.88577 32.0406 8.05454 27.8255C8.27185 22.4019 7.9638 12.3555 7.87307 8.54465C7.78233 4.73384 7.10182 0.197158 7.28329 0.242525C7.46476 0.287892 8.87115 6.18557 9.05262 8.77148C9.23409 11.3574 10.3125 20.6757 10.6405 26.1016C10.8691 29.8797 11.7189 39.3169 11.6726 41.1983C11.6254 43.1228 11.6594 48.3032 11.2643 49.1515C10.8242 50.0956 9.94771 50.8247 9.41963 50.7466C8.74003 50.6464 7.40352 50.782 6.96844 49.8629Z" fill="#FF1D25"/>
<path d="M11.1441 53.1323C11.1255 53.1849 10.4195 54.8793 10.4195 54.8793L10.9535 56.6899L10.3574 57.6041L10.4309 58.7192L8.60942 60.1709L8.2973 59.1053L7.45755 59.2073L7.12638 58.9002L5.63473 58.413L4.61624 57.5011L3.13683 57.1323L3.65401 55.7948L2.31933 56.1918L1.5 55.5521L2.29573 52.5947L3.34234 52.5829L3.87085 51.4319L5.03951 51.3448L6.67588 51.5394L7.33551 50.2773L9.04857 50.5881L11.0873 51.1203L11.1441 53.1323Z" fill="black"/>
<defs>
<linearGradient id="paint0_linear_77_4510" x1="23.4671" y1="47.9391" x2="-2.54357" y2="46.6359" gradientUnits="userSpaceOnUse">
<stop stop-color="#94938C"/>
<stop offset="0.1599" stop-color="#D1CFC6"/>
<stop offset="0.2296" stop-color="#EDEBE1"/>
<stop offset="0.7988" stop-color="#EDEBE1"/>
<stop offset="0.9762" stop-color="#9F9E96"/>
<stop offset="1" stop-color="#94938C"/>
</linearGradient>
<linearGradient id="paint1_linear_77_4510" x1="5.98863" y1="18.9545" x2="14.9697" y2="19.115" gradientUnits="userSpaceOnUse">
<stop stop-color="#BFAB8D"/>
<stop offset="0.5078" stop-color="#E7E1D2"/>
<stop offset="1" stop-color="#CCBFA6"/>
</linearGradient>
</defs>
</svg>
