<svg width="26" height="75" viewBox="0 0 26 75" fill="none" xmlns="http://www.w3.org/2000/svg">
<path d="M25.3516 69.7785C25.3516 69.7785 27.6394 42.9777 15.5465 39.0553C15.5465 39.0553 1.8191 36.7675 0.512093 60.6267C0.474893 61.3072 0.369187 61.9841 0.340152 62.6673C0.277547 64.158 0.331532 65.6647 0.58876 67.1363C0.859144 68.682 1.36452 70.2793 2.4152 71.4802C2.92467 72.0622 3.56026 72.5241 4.28159 72.8072C4.90674 73.0526 5.59495 73.1447 6.25095 73.2794C7.05848 73.4455 7.86779 73.6015 8.68167 73.7322C9.12082 73.8025 9.5618 73.866 10.0032 73.9191C11.626 74.1146 13.2619 74.1763 14.8955 74.238C17.549 74.3383 20.2991 74.4703 22.7779 73.3352C24.2442 72.6643 25.3516 71.4598 25.3516 69.7785Z" fill="url(#paint0_linear_77_4493)"/>
<path d="M11.3007 0.36866C11.7598 0.317396 12.2117 0.487524 12.6422 0.654926C12.7797 0.708459 12.9035 0.796013 13.0165 0.906708C14.5694 2.43239 15.3433 5.68608 16.125 7.67178C18.5149 13.7436 20.3313 20.0496 21.3838 26.493C21.9078 29.7 22.2426 32.9387 22.3701 36.1861C22.4345 37.8193 22.4468 39.4543 22.4055 41.0884C22.3719 42.4258 22.5924 44.3706 22.0367 45.5837C21.3525 44.8107 20.8653 43.8811 20.1412 43.1376C18.3711 41.3193 16.0823 40.0191 13.4978 40.0177C12.4068 40.0173 11.3348 40.2386 10.3154 40.6111C9.90165 40.7622 9.49699 40.9377 9.10275 41.1337C7.95272 41.7053 6.5686 43.4306 5.34507 43.5236C5.16633 41.1315 5.77107 38.4467 5.9988 36.0477C5.9988 29.9577 7.20191 23.526 8.11332 17.5172C8.38733 15.7098 8.79971 13.9265 8.7616 12.0937C8.72213 10.2014 8.50981 8.31144 8.63819 6.41784C8.75342 4.72295 8.96574 0.628611 11.3007 0.36866Z" fill="url(#paint1_linear_77_4493)"/>
<path d="M25.3008 69.552C25.3008 69.552 27.5886 42.7512 15.4958 38.8288C15.4958 38.8288 1.76832 36.5409 0.461312 60.4002C0.424111 61.0807 0.318406 61.7576 0.289371 62.4408C0.226765 63.9316 0.280751 65.4382 0.537979 66.9099C0.808363 68.4555 1.31373 70.0529 2.36442 71.2538C2.87389 71.8358 3.50948 72.2976 4.2308 72.5807C4.85595 72.8262 5.54417 72.9183 6.20017 73.053C7.00769 73.219 7.81704 73.3751 8.63091 73.5058C9.07006 73.5761 9.51101 73.6396 9.95243 73.6927C11.215 73.8447 12.4848 73.9159 13.7555 73.9689C14.1184 73.9839 14.8888 71.1861 15.2517 71.1998C17.9052 71.3 16.9466 64.9854 19.4254 63.8503C19.792 63.6825 23.4376 72.74 23.7479 72.5063C24.6779 71.8059 25.3008 70.8132 25.3008 69.552Z" fill="url(#paint2_linear_77_4493)"/>
<path d="M6.12103 67.0899C4.69741 65.968 4.30407 60.2967 4.39526 58.5469C4.52637 56.0372 7.82319 40.8543 8.37667 35.7097C9.08894 29.0898 9.75765 22.4622 10.1401 15.8137C10.2227 14.3769 10.5253 3.20855 11.3886 2.12973C11.6041 1.91378 12.6557 0.945655 13.1144 2.47497C14.0598 5.62614 14.9413 13.48 15.3201 16.5523C16.1422 23.2126 17.3439 29.8216 18.4178 36.4442C19.1654 41.0558 21.6733 54.2171 21.5223 56.514C21.368 58.8631 21.4792 65.1859 20.1848 66.2216C18.7444 67.3739 15.875 68.2636 14.1465 68.1688C11.9208 68.0463 7.54465 68.2118 6.12103 67.0899Z" fill="#FCF2D9"/>
<path d="M10.0426 59.2752C9.49554 58.2468 9.34449 53.0473 9.37987 51.4431C9.43023 49.1421 10.6968 35.2226 10.9091 30.5058C11.1827 24.4366 11.4394 18.3602 11.5864 12.2647C11.6182 10.9473 11.7339 -0.108176 12.168 0.222095C12.3077 0.305116 12.3454 0.226631 12.3917 0.470704C13.1247 4.35002 13.3602 8.75832 13.5766 12.9416C13.8923 19.048 14.3541 25.1072 14.7665 31.1786C15.0537 35.4064 16.0172 47.473 15.9592 49.5785C15.8997 51.7321 15.9424 57.529 15.4452 58.4786C14.8917 59.5352 13.7893 60.3509 13.1252 60.2638C12.2705 60.1522 10.5893 60.3037 10.0426 59.2752Z" fill="#FF1D25"/>
<path d="M11.9303 62.7376C11.9239 62.822 11.8691 65.6093 11.8691 65.6093L10.0313 67.7969L10.2989 69.4323L9.51953 70.9358L11.1985 74.1142L12.2315 72.7808L13.329 73.4378L13.9732 73.2141L16.3295 73.4523L18.2907 72.8103L20.5581 73.2059L20.6571 71.0311L22.2589 72.4016L23.7796 72.0155L25.3212 70.1732L24.4025 69.2277L23.0397 66.7607L23.0093 64.8376L21.4482 63.9992L19.0701 63.2656L18.9263 61.1075L16.3717 60.4878L13.2328 59.9766L11.9303 62.7376Z" fill="black"/>
<defs>
<linearGradient id="paint0_linear_77_4493" x1="30.4263" y1="56.6418" x2="-4.59497" y2="56.6596" gradientUnits="userSpaceOnUse">
<stop stop-color="#94938C"/>
<stop offset="0.2296" stop-color="#EDEBE1"/>
<stop offset="0.7876" stop-color="#EDEBE1"/>
<stop offset="1" stop-color="#94938C"/>
</linearGradient>
<linearGradient id="paint1_linear_77_4493" x1="18.7027" y1="22.9367" x2="5.22182" y2="23.1778" gradientUnits="userSpaceOnUse">
<stop stop-color="#BFAB8D"/>
<stop offset="0.5078" stop-color="#E7E1D2"/>
<stop offset="1" stop-color="#CCBFA6"/>
</linearGradient>
<linearGradient id="paint2_linear_77_4493" x1="30.3756" y1="56.3612" x2="-4.6456" y2="56.379" gradientUnits="userSpaceOnUse">
<stop stop-color="#94938C"/>
<stop offset="0.2296" stop-color="#EDEBE1"/>
<stop offset="0.7876" stop-color="#EDEBE1"/>
<stop offset="1" stop-color="#94938C"/>
</linearGradient>
</defs>
</svg>
