<svg width="27" height="75" viewBox="0 0 27 75" fill="none" xmlns="http://www.w3.org/2000/svg">
<path d="M1.02787 69.7746C1.02787 69.7746 -1.25997 42.9738 10.8329 39.0514C10.8329 39.0514 24.5603 36.7636 25.8673 60.6228C25.9045 61.3033 26.0103 61.9802 26.0393 62.6634C26.1019 64.1541 26.0479 65.6608 25.7907 67.1324C25.5203 68.6781 25.0149 70.2754 23.9642 71.4763C23.4548 72.0583 22.8192 72.5202 22.0979 72.8033C21.4727 73.0487 20.7845 73.1408 20.1285 73.2755C19.321 73.4416 18.5116 73.5976 17.6978 73.7283C17.2586 73.7986 16.8177 73.8621 16.3762 73.9152C14.7535 74.1107 13.1176 74.1724 11.4839 74.2341C8.83044 74.3344 6.08033 74.4664 3.60151 73.3313C2.13526 72.6604 1.02787 71.4559 1.02787 69.7746Z" fill="url(#paint0_linear_77_4499)"/>
<path d="M15.078 0.364754C14.6189 0.31349 14.1671 0.483618 13.7366 0.651021C13.5991 0.704554 13.4752 0.792108 13.3623 0.902803C11.8094 2.42849 11.0354 5.68219 10.2537 7.6679C7.86383 13.7398 6.04735 20.0457 4.99484 26.4892C4.47085 29.6962 4.13604 32.9349 4.00856 36.1822C3.94413 37.8155 3.93189 39.4505 3.97318 41.0846C4.00675 42.422 3.78626 44.3669 4.34201 45.58C5.02614 44.8069 5.51339 43.8774 6.23744 43.1338C8.00765 41.3155 10.2964 40.0153 12.8809 40.0139C13.972 40.0135 15.044 40.2349 16.0634 40.6073C16.4772 40.7584 16.8818 40.934 17.2761 41.1299C18.4261 41.7016 19.8103 43.4269 21.0338 43.5199C21.2125 41.1277 20.6078 38.4429 20.3801 36.0439C20.3801 29.9538 19.1769 23.5222 18.2655 17.5134C17.9915 15.706 17.5791 13.9226 17.6172 12.0898C17.6567 10.1975 17.869 8.30756 17.7406 6.41395C17.6254 4.71905 17.4131 0.624706 15.078 0.364754Z" fill="url(#paint1_linear_77_4499)"/>
<path d="M1.07865 69.5481C1.07865 69.5481 -1.20923 42.7473 10.8839 38.8249C10.8839 38.8249 24.6116 36.537 25.9186 60.3963C25.9558 61.0768 26.0615 61.7537 26.0906 62.4369C26.1532 63.9276 26.0992 65.4343 25.8419 66.906C25.5716 68.4516 25.0662 70.049 24.0154 71.2498C23.506 71.8319 22.8704 72.2937 22.149 72.5768C21.5239 72.8223 20.8357 72.9143 20.1796 73.0491C19.3721 73.2151 18.5628 73.3712 17.7489 73.5018C17.3097 73.5722 16.8687 73.6357 16.4273 73.6888C15.1652 73.8407 13.8949 73.912 12.6242 73.965C12.2612 73.98 11.4909 71.1822 11.128 71.1958C8.47442 71.2961 9.43303 64.9815 6.95416 63.8464C6.5876 63.6786 2.94189 72.736 2.63158 72.5024C1.70155 71.8019 1.07865 70.8093 1.07865 69.5481Z" fill="url(#paint2_linear_77_4499)"/>
<path d="M20.2593 67.0897C21.6829 65.9678 22.0763 60.2965 21.9851 58.5467C21.854 56.037 18.5572 40.8542 18.0037 35.7096C17.2914 29.0897 16.6227 22.4621 16.2403 15.8137C16.1577 14.3769 15.8551 3.20854 14.9918 2.12973C14.7763 1.91378 13.7247 0.945657 13.266 2.47497C12.3205 5.62613 11.4391 13.48 11.0602 16.5522C10.2382 23.2125 9.03642 29.8215 7.96258 36.4441C7.21493 41.0556 4.70703 54.2169 4.85811 56.5138C5.01235 58.8629 4.9012 65.1857 6.19553 66.2214C7.63593 67.3737 10.5054 68.2633 12.2339 68.1685C14.4596 68.046 18.8353 68.2116 20.2593 67.0897Z" fill="#FCF2D9"/>
<path d="M16.2862 59.5367C16.8333 58.5082 16.9844 53.3088 16.949 51.7046C16.8986 49.4036 15.632 35.4842 15.4197 30.7674C15.1462 24.6983 14.8894 18.6219 14.7424 12.5264C14.7107 11.2089 14.595 0.153544 14.1609 0.483813C14.0211 0.566835 13.9835 0.488349 13.9372 0.732422C13.2041 4.61173 12.9686 9.02001 12.7523 13.2033C12.4365 19.3096 11.9747 25.3688 11.5623 31.4402C11.2752 35.6679 10.3116 47.7346 10.3697 49.84C10.4291 51.9936 10.3865 57.7905 10.8837 58.7401C11.4371 59.7967 12.5395 60.6123 13.2036 60.5252C14.0583 60.4136 15.7391 60.5652 16.2862 59.5367Z" fill="#FF1D25"/>
<path d="M14.4569 62.7376C14.4632 62.822 14.5181 65.6093 14.5181 65.6093L16.3559 67.7969L16.0882 69.4323L16.8676 70.9358L15.1886 74.1142L14.1556 72.7808L13.0583 73.4378L12.4141 73.2141L10.0578 73.4523L8.09665 72.8103L5.8293 73.2059L5.73039 71.0311L4.12856 72.4016L2.60792 72.0155L1.06641 70.1732L1.98505 69.2277L3.34783 66.7607L3.37822 64.8376L4.93922 63.9992L7.31729 63.2656L7.4611 61.1075L10.0156 60.4878L13.1544 59.9766L14.4569 62.7376Z" fill="black"/>
<defs>
<linearGradient id="paint0_linear_77_4499" x1="-4.04694" y1="56.6379" x2="30.9742" y2="56.6558" gradientUnits="userSpaceOnUse">
<stop stop-color="#94938C"/>
<stop offset="0.2296" stop-color="#EDEBE1"/>
<stop offset="0.7876" stop-color="#EDEBE1"/>
<stop offset="1" stop-color="#94938C"/>
</linearGradient>
<linearGradient id="paint1_linear_77_4499" x1="7.67598" y1="22.9329" x2="21.157" y2="23.1739" gradientUnits="userSpaceOnUse">
<stop stop-color="#BFAB8D"/>
<stop offset="0.5078" stop-color="#E7E1D2"/>
<stop offset="1" stop-color="#CCBFA6"/>
</linearGradient>
<linearGradient id="paint2_linear_77_4499" x1="-3.99641" y1="56.3574" x2="31.0255" y2="56.3753" gradientUnits="userSpaceOnUse">
<stop stop-color="#94938C"/>
<stop offset="0.2296" stop-color="#EDEBE1"/>
<stop offset="0.7876" stop-color="#EDEBE1"/>
<stop offset="1" stop-color="#94938C"/>
</linearGradient>
</defs>
</svg>
