<svg width="26" height="15" viewBox="0 0 26 15" fill="none" xmlns="http://www.w3.org/2000/svg">
<path d="M22.0066 13.5294L22.7459 14.328C22.7549 14.3189 22.8946 14.1866 23.1606 13.9584L23.4491 12.2971C22.5385 13.0273 22.0381 13.4974 22.0066 13.5294Z" fill="#E9E8E8"/>
<path d="M13.3518 2.84061C9.17316 4.39235 5.76985 6.48264 3.65123 7.96136C1.35231 9.56786 0.0540923 10.791 0 10.8458L0.739261 11.6445C0.752785 11.6308 2.051 10.4076 4.29583 8.8422C6.36486 7.39999 9.68703 5.36447 13.7575 3.85837C17.6296 2.42529 21.4972 1.70419 25.2882 1.70875L25.4775 0.613408C21.4927 0.58146 17.4222 1.32995 13.3518 2.84061Z" fill="#E9E8E8"/>
</svg>
