<svg width="20" height="10" viewBox="0 0 20 10" fill="none" xmlns="http://www.w3.org/2000/svg">
<path d="M17.0342 4.68389C17.7149 4.61543 18.391 4.56067 19.0717 4.51959L19.2475 4.7843L19.3872 3.40143C18.2829 3.46076 17.1785 3.5566 16.0696 3.68895C15.7044 3.73459 15.3393 3.78023 14.9697 3.835C10.3854 2.04137 5.774 0.85931 1.19869 0.316201C1.11755 0.307073 1.03642 0.297946 0.955279 0.288818C0.946263 0.653934 0.937243 1.01905 0.928228 1.38873C0.986828 1.39786 1.04994 1.40242 1.10854 1.41155C4.98966 1.87707 8.89331 2.80812 12.7925 4.19555C8.78963 4.93491 4.76879 6.15348 0.774971 7.83758C0.765955 8.27571 0.752424 8.68191 0.743408 9.0379C5.43141 7.02063 10.151 5.65601 14.839 4.96686C16.2409 5.52366 17.6428 6.13979 19.0446 6.81525L19.1619 5.66058C18.4541 5.30915 17.7419 4.98968 17.0342 4.68389Z" fill="#E9E8E8"/>
</svg>
