<svg width="22" height="14" viewBox="0 0 22 14" fill="none" xmlns="http://www.w3.org/2000/svg">
<path d="M2.27147 10.9244L2.77182 9.95226C1.90635 9.49587 1.03636 9.06229 0.170892 8.64697C0.130324 9.04404 0.0897722 9.43197 0.0537109 9.80165C0.788459 10.1622 1.53221 10.5364 2.27147 10.9244Z" fill="#E9E8E8"/>
<path d="M19.7614 9.3499C17.2371 8.4006 14.9562 7.79816 13.2568 7.42848C9.88954 6.69369 6.45016 6.32857 2.97021 6.33314C7.31113 3.77733 11.6926 2.14799 16.029 1.48166C17.8051 1.20782 19.5811 1.09372 21.3391 1.13936L21.4473 0.0485808C19.6126 -0.00618657 17.76 0.107911 15.9028 0.39544C10.8767 1.16218 5.80556 3.17945 0.806518 6.38334C0.671287 6.3879 0.531544 6.39703 0.396313 6.4016C0.346728 6.87625 0.301669 7.34177 0.256592 7.7936L0.373774 7.97159C0.630713 7.79816 0.887656 7.62929 1.1446 7.46043C5.15194 7.30525 9.11871 7.64755 12.9773 8.48275C14.9246 8.90264 16.6962 9.42293 18.2513 9.96147C16.5429 10.6871 14.8345 11.4995 13.1396 12.3941L13.6399 13.3662C15.6729 12.2936 17.7194 11.3398 19.7704 10.5183C19.9778 10.5959 20.1761 10.678 20.3744 10.7556L20.5457 9.03955C20.2843 9.14452 20.0228 9.24493 19.7614 9.3499Z" fill="#E9E8E8"/>
</svg>
