<svg width="19" height="15" viewBox="0 0 19 15" fill="none" xmlns="http://www.w3.org/2000/svg">
<path d="M17.81 5.43407C17.5441 5.25151 17.2601 5.05983 16.9491 4.85901C15.1821 3.72716 12.3061 2.16173 8.63238 1.13485C6.28387 0.477642 3.89028 0.11709 1.46515 0.0440674C1.42909 0.400054 1.39301 0.765169 1.35694 1.13485C3.70094 1.19874 6.02242 1.5456 8.2943 2.17542C11.612 3.09277 14.2535 4.47108 15.9799 5.53448C15.2271 5.58924 14.4698 5.66226 13.717 5.75354C9.34458 6.27383 4.94057 7.3783 0.559096 9.03957C0.495989 9.66027 0.437393 10.2399 0.383301 10.7602C1.54178 11.2303 2.53345 11.6867 3.34033 12.0883C5.71588 13.2749 7.03215 14.2379 7.05468 14.2561L7.69476 13.3707C7.64067 13.3297 6.3109 12.353 3.86323 11.1253C2.98873 10.6872 2.11875 10.2947 1.2713 9.93867C5.44993 8.38237 9.6466 7.34635 13.8117 6.84432C15.0423 6.69828 16.2729 6.59787 17.499 6.5431C17.8235 6.77586 18.103 6.98581 18.3374 7.17293C18.0219 7.37831 17.7063 7.59281 17.3908 7.81188L18.0039 8.71553C18.2292 8.56036 18.4546 8.40519 18.6845 8.25458L18.8693 5.40668C18.5087 5.41581 18.1571 5.42494 17.81 5.43407Z" fill="#E9E8E8"/>
</svg>
