<svg width="20" height="9" viewBox="0 0 20 9" fill="none" xmlns="http://www.w3.org/2000/svg">
<path d="M11.9043 5.49727C9.79923 5.03631 7.66258 4.72597 5.5034 4.55254C8.87515 3.00992 12.3551 2.10626 15.9116 1.85981C17.0701 1.77766 18.2331 1.76853 19.4051 1.82786V0.732517C18.2151 0.67775 17.0341 0.68688 15.8575 0.769031C11.5347 1.06569 7.31999 2.29795 3.2811 4.43387C2.47873 4.40649 1.67187 4.40193 0.864995 4.41105C0.801888 5.39687 0.738776 6.35986 0.680176 7.25439C0.855976 7.14029 1.02727 7.02619 1.20307 6.91209C1.20758 6.91666 1.21207 6.92122 1.21207 6.92122L1.24815 6.88471C2.00544 6.40093 2.76723 5.95367 3.53353 5.53835C6.26519 5.64332 8.96529 5.98562 11.6203 6.56067C14.7036 7.22701 17.3316 8.13523 19.3916 8.98869V7.80662C16.4841 6.62913 13.8201 5.91259 11.9043 5.49727ZM1.30674 5.55661C1.2842 5.53835 1.25715 5.52009 1.23461 5.49727C1.29321 5.49727 1.34732 5.49727 1.40592 5.49727C1.36986 5.51553 1.33829 5.53835 1.30674 5.55661Z" fill="#E9E8E8"/>
</svg>
