<svg width="26" height="16" viewBox="0 0 26 16" fill="none" xmlns="http://www.w3.org/2000/svg">
<path d="M17.6964 1.04439C13.5764 1.32736 9.55106 2.45922 5.68797 4.41715C3.92546 4.04291 2.16293 3.81471 0.418457 3.73256C0.418457 4.09311 0.418457 4.46279 0.418457 4.82791C1.65807 4.88724 2.9067 5.02416 4.15984 5.23866C3.16815 5.8046 2.18999 6.42073 1.22084 7.09619L1.83389 7.99986C3.14563 7.08707 4.4844 6.27468 5.83671 5.57184C7.37383 5.9187 8.91546 6.37509 10.4571 6.95015C14.5275 8.46082 17.8497 10.5009 19.9187 11.9431C22.1636 13.5086 23.4618 14.7363 23.4753 14.7454L23.8449 14.3438L24.2146 13.9467C24.1605 13.8965 22.8623 12.6688 20.5633 11.0623C18.4447 9.58355 15.0459 7.4887 10.8673 5.93695C9.70431 5.50338 8.53682 5.13369 7.37384 4.82335C10.7321 3.28986 14.203 2.39076 17.7505 2.1443C20.365 1.96174 23.029 2.13518 25.7066 2.6509V1.5373C23.0155 1.0307 20.3334 0.861833 17.6964 1.04439Z" fill="#E9E8E8"/>
<path d="M2.97881 13.1617C5.35437 14.3483 6.67061 15.3113 6.69315 15.3296L7.33325 14.4442C7.27916 14.4031 5.94939 13.4264 3.5017 12.1987C2.45141 11.6738 1.41463 11.2129 0.404903 10.8021C0.404903 11.2174 0.404898 11.6145 0.400391 11.9842C1.39659 12.3995 2.26208 12.8011 2.97881 13.1617Z" fill="#E9E8E8"/>
</svg>
