<svg width="24" height="15" viewBox="0 0 24 15" fill="none" xmlns="http://www.w3.org/2000/svg">
<path d="M17.9623 0.383655C13.3554 0.70313 8.87024 2.086 4.58793 4.49576C3.29873 4.0987 2.00955 3.77922 0.724854 3.53733C0.724854 3.90245 0.724854 4.27669 0.724854 4.65093C1.58132 4.81523 2.44227 5.02061 3.29873 5.25794C2.69019 5.63218 2.08618 6.02924 1.49116 6.44456L2.10419 7.34822C2.96516 6.74578 3.83514 6.19354 4.71865 5.68238C5.24605 5.85125 5.77346 6.0338 6.30086 6.23005C10.3713 7.74071 13.6935 9.78079 15.7625 11.223C18.0073 12.7884 19.3056 14.0161 19.3191 14.0253L19.6887 13.6236L20.0583 13.2266C20.0043 13.1764 18.706 11.9487 16.4071 10.3422C14.2885 8.86344 10.8897 6.7686 6.71106 5.21686C6.48117 5.13014 6.24677 5.04799 6.01688 4.96584C9.87997 2.93946 13.8963 1.77109 18.0163 1.48356C19.7248 1.3649 21.4467 1.39685 23.1867 1.57484L23.083 0.461239C21.3566 0.292374 19.6527 0.264992 17.9623 0.383655Z" fill="#E9E8E8"/>
</svg>
