<svg width="23" height="12" viewBox="0 0 23 12" fill="none" xmlns="http://www.w3.org/2000/svg">
<path d="M20.2074 9.49939C19.5403 9.54503 18.8821 9.56785 18.2375 9.56785C18.0482 9.56785 17.8589 9.56784 17.6741 9.56328C18.7153 10.3483 19.9009 11.1789 21.2352 12.0004C21.3569 11.5212 21.4786 11.0511 21.6003 10.5765C21.0593 10.1794 20.5951 9.8143 20.2074 9.49939Z" fill="#E9E8E8"/>
<path d="M20.2072 9.49943C20.7707 9.46291 21.3432 9.40815 21.9202 9.33969C22.0193 8.95175 22.1185 8.56381 22.2177 8.185C19.4184 8.55925 16.7769 8.55012 14.3247 8.15305C9.21297 7.33154 4.8991 4.81222 1.50481 0.663574L0.661865 1.37099C4.23196 5.73415 8.77573 8.38582 14.1669 9.24841C15.2984 9.43097 16.4704 9.53137 17.6784 9.55875C18.0481 9.49942 18.4763 9.45378 18.9496 9.44465C19.4139 9.43096 19.8376 9.45835 20.2072 9.49943Z" fill="#E9E8E8"/>
</svg>
