<svg width="28" height="15" viewBox="0 0 28 15" fill="none" xmlns="http://www.w3.org/2000/svg">
<path d="M27.4753 11.9714L26.9073 12.8066C24.401 13.4638 20.9842 14.0252 16.9678 13.7331C9.40392 13.1809 3.76029 9.8857 0.622935 7.5946L0.257812 9.01399C2.33586 10.2965 4.761 11.5607 7.50619 12.6058C12.4511 14.4907 16.1159 14.7828 16.9137 14.8376C17.333 14.8695 18.0812 14.9106 19.0504 14.9106C21.7144 14.9106 24.4145 14.5683 27.1237 13.8883C27.2499 13.2539 27.3806 12.6195 27.5068 11.9897C27.4978 11.9851 27.4888 11.976 27.4753 11.9714Z" fill="#E9E8E8"/>
<path d="M7.48354 4.94761C10.995 3.90246 14.2 2.48762 16.6838 1.23252C16.4674 1.04083 16.251 0.853707 16.0301 0.666584C15.9445 0.59356 15.8543 0.520534 15.7687 0.44751C13.303 1.67066 10.3459 2.93945 7.14547 3.88876C5.10799 4.49577 3.13812 4.92479 1.24038 5.17581L0.942871 6.3305C3.04346 6.07948 5.22519 5.61852 7.48354 4.94761Z" fill="#E9E8E8"/>
</svg>
