<svg width="28" height="17" viewBox="0 0 28 17" fill="none" xmlns="http://www.w3.org/2000/svg">
<path d="M16.5901 14.9136C11.6947 14.5713 6.93462 13.0014 2.41791 10.2402C2.98137 10.0622 3.54033 9.86595 4.10379 9.65601C8.33651 8.08602 11.7804 5.96836 13.926 4.4714C16.2565 2.84664 17.5683 1.60525 17.6269 1.55049L16.8786 0.742676C16.8651 0.756368 15.5533 1.99319 13.2769 3.58143C11.1809 5.04189 7.81812 7.10478 3.69358 8.62913C2.85966 8.93947 2.02574 9.21331 1.19181 9.4552C0.975444 9.30915 0.754567 9.16311 0.538198 9.0125L0.164062 10.8837C0.448047 10.8107 0.727521 10.7377 1.01151 10.6601C5.93841 13.8457 11.1538 15.6484 16.5405 16.0227C17.2482 16.0729 17.9604 16.0957 18.6772 16.0957C21.5711 16.0957 24.5056 15.6941 27.4536 14.8908C27.4717 14.5029 27.4852 14.115 27.5032 13.727C23.8204 14.763 20.1647 15.1647 16.5901 14.9136Z" fill="#E9E8E8"/>
<path d="M23.8384 10.0668L23.2163 10.9796C24.6227 11.9562 26.0516 12.8234 27.5031 13.5719C27.5212 13.1611 27.5392 12.7549 27.5572 12.3487C26.2996 11.6778 25.06 10.9157 23.8384 10.0668Z" fill="#E9E8E8"/>
</svg>
