<svg width="25" height="14" viewBox="0 0 25 14" fill="none" xmlns="http://www.w3.org/2000/svg">
<path d="M16.6587 4.21423C12.7054 2.16046 8.58539 0.978395 4.35717 0.686303C3.73962 0.645228 3.11756 0.617845 2.49099 0.613281C2.42788 0.964705 2.36478 1.32982 2.30167 1.70863C2.97331 1.70863 3.64045 1.73145 4.30308 1.78165C7.97686 2.03723 11.574 3.00022 15.0494 4.63868C14.1524 4.89882 13.2554 5.19548 12.3538 5.52865C8.17519 7.08039 4.77188 9.17067 2.65327 10.6494C1.76074 11.2701 1.02148 11.836 0.449006 12.297C0.331806 12.9633 0.232637 13.5292 0.156006 13.9628C1.52634 12.7716 6.19632 8.98811 12.728 6.5601C13.9901 6.09001 15.2568 5.69751 16.5144 5.3826C17.7631 6.04893 18.9982 6.80655 20.2152 7.65544L20.8283 6.75178C19.9313 6.12652 19.0297 5.55146 18.1147 5.02205C20.3415 4.57478 22.5592 4.3694 24.75 4.40591L24.8221 3.31057C22.131 3.25124 19.3994 3.55702 16.6587 4.21423Z" fill="#E9E8E8"/>
</svg>
