<svg width="18" height="14" viewBox="0 0 18 14" fill="none" xmlns="http://www.w3.org/2000/svg">
<path d="M15.0947 7.64136L14.4727 8.55414C15.4734 9.24786 16.4831 9.88682 17.5063 10.4664C17.5244 10.0511 17.5424 9.6358 17.5604 9.22048C16.7355 8.73671 15.9106 8.20729 15.0947 7.64136Z" fill="#E9E8E8"/>
<path d="M12.9762 12C9.8253 11.7855 6.73302 11.0598 3.72188 9.83667C7.9546 8.26668 11.3985 6.14902 13.5441 4.65206C15.8746 3.0273 17.1864 1.78592 17.245 1.73115L16.4967 0.92334C16.4832 0.937032 15.1714 2.17385 12.895 3.76209C10.799 5.22255 7.43621 7.28544 3.31167 8.80979C2.95106 8.94214 2.59495 9.06993 2.23884 9.1886C1.68439 8.93302 1.13897 8.65918 0.589031 8.36709L0.539442 9.59021C0.593534 9.61759 0.647626 9.64498 0.697211 9.67236C0.643119 9.68606 0.589033 9.70431 0.534941 9.718L0.485352 10.8818C1.04881 10.7266 1.61227 10.5623 2.17122 10.3798C5.64666 11.9452 9.23479 12.858 12.904 13.109C13.6072 13.1592 14.3104 13.182 15.0182 13.182C15.8115 13.182 16.6049 13.1501 17.4027 13.0907C17.4163 12.7211 17.4343 12.3468 17.4478 11.9726C15.9467 12.0912 14.4547 12.1004 12.9762 12Z" fill="#E9E8E8"/>
</svg>
