<svg width="20" height="11" viewBox="0 0 20 11" fill="none" xmlns="http://www.w3.org/2000/svg">
<path d="M14.2188 9.56081C11.6449 9.38281 9.11158 8.8671 6.62782 8.0182C7.7818 7.71242 8.93578 7.34273 10.0898 6.91372C11.3654 6.43907 12.5735 5.91423 13.6914 5.37112C15.2827 6.11504 16.8829 6.78593 18.4786 7.38381C18.5327 7.005 18.5823 6.63077 18.6364 6.26109C17.4058 5.79557 16.1797 5.28896 14.9536 4.73673C16.617 3.86501 18.0549 2.97961 19.2044 2.20831C19.2765 1.69258 19.3441 1.19511 19.4117 0.720459C17.9152 1.77473 15.9723 3.00243 13.6779 4.14798C12.844 3.75092 12.0101 3.33104 11.1761 2.8929L10.6713 3.8787C11.2483 4.18449 11.8252 4.47659 12.4022 4.76411C11.5458 5.15661 10.6442 5.53542 9.7066 5.88228C8.06128 6.49385 6.42047 6.97763 4.78417 7.33361C3.36874 6.74943 1.97135 6.0557 0.596491 5.24788L0.546902 6.49384C1.31322 6.92742 2.08403 7.32448 2.86387 7.69416C2.07051 7.81739 1.27716 7.91323 0.483798 7.97712L0.438721 9.09529C1.84964 8.98575 3.26506 8.78494 4.685 8.48828C7.76828 9.72511 10.9372 10.4599 14.1693 10.679C14.8634 10.7246 15.5621 10.752 16.2608 10.752C16.8469 10.752 17.4329 10.7337 18.0189 10.7018C18.073 10.3275 18.1225 9.95331 18.1766 9.57907C16.8469 9.65666 15.5261 9.65209 14.2188 9.56081Z" fill="#E9E8E8"/>
</svg>
