<svg width="19" height="14" viewBox="0 0 19 14" fill="none" xmlns="http://www.w3.org/2000/svg">
<path d="M13.2082 10.2742C15.3314 9.29297 17.175 8.22957 18.6535 7.28027C18.6671 6.81931 18.6761 6.37205 18.6851 5.93848C16.9812 7.07033 14.6687 8.43952 11.9281 9.63527C11.6982 9.51661 11.4728 9.39794 11.2429 9.27928L10.8237 10.0962C10.5307 10.2149 10.2332 10.329 9.93116 10.4431C9.03413 10.7763 8.1416 11.0729 7.24457 11.3285C5.04932 10.7854 2.84957 10.1008 0.65432 9.27015L0.501062 10.3929C2.01114 10.9542 3.52121 11.4517 5.0358 11.8853C3.41753 12.2413 1.80378 12.4649 0.20355 12.5699L0.050293 13.6926C2.43937 13.5557 4.85099 13.1495 7.27162 12.474C9.34966 12.9761 11.4277 13.3503 13.5012 13.6013C15.1691 13.8021 16.8324 13.9162 18.4913 13.9482C18.5003 13.4918 18.5138 13.0354 18.5228 12.5836C16.7513 11.9035 14.9753 11.1322 13.2082 10.2742ZM9.39475 11.8077C9.71028 11.6982 10.0303 11.5841 10.3459 11.4654C10.8733 11.2692 11.3871 11.0638 11.892 10.8538C13.2218 11.5247 14.5515 12.1454 15.8858 12.7114C15.133 12.6566 14.3803 12.5836 13.6275 12.4923C12.2211 12.328 10.8102 12.0952 9.39475 11.8077Z" fill="#E9E8E8"/>
<path d="M1.90758 4.71996C4.23805 3.09063 5.54979 1.84923 5.60388 1.79903L4.8556 0.991211C4.82856 1.01403 3.59345 2.17784 1.42976 3.70219L1.22241 5.19003C1.46583 5.02573 1.69121 4.87057 1.90758 4.71996Z" fill="#E9E8E8"/>
</svg>
