<svg width="18" height="16" viewBox="0 0 18 16" fill="none" xmlns="http://www.w3.org/2000/svg">
<path d="M10.2866 2.68799L9.78174 3.6738C12.4638 5.08862 15.1639 6.2935 17.8685 7.293C17.8775 6.89137 17.8866 6.50343 17.8956 6.12463C15.3487 5.16164 12.8109 4.02066 10.2866 2.68799Z" fill="#E9E8E8"/>
<path d="M13.7034 13.888C10.5796 13.5137 7.43774 12.8428 4.29588 11.8798C6.86076 11.7338 9.4031 11.3915 11.9004 10.8484C14.1136 10.3646 16.097 9.76671 17.819 9.14602C17.828 8.74439 17.837 8.34733 17.8505 7.95483C16.0519 8.62117 13.9829 9.25555 11.6705 9.76215C8.25814 10.5061 4.76468 10.8666 1.23516 10.8484C1.00977 10.7662 0.779885 10.6795 0.554501 10.5928L0.522949 11.9483C0.694241 11.9529 0.865529 11.9574 1.03682 11.9574C5.21545 13.4772 9.40761 14.495 13.5727 14.9924C14.9385 15.1567 16.3044 15.2617 17.6657 15.3165C17.6747 14.9468 17.6837 14.5771 17.6927 14.2074C16.3675 14.1481 15.0377 14.0431 13.7034 13.888Z" fill="#E9E8E8"/>
<path d="M2.16381 4.26711C4.48979 2.63779 5.80605 1.39639 5.86014 1.34163L5.11185 0.533813C5.09833 0.547505 3.78659 1.7889 1.51471 3.37715C1.26228 3.55058 0.996315 3.7377 0.707821 3.92482L0.67627 5.26661C1.22621 4.91519 1.72206 4.57746 2.16381 4.26711Z" fill="#E9E8E8"/>
</svg>
