<svg width="17" height="14" viewBox="0 0 17 14" fill="none" xmlns="http://www.w3.org/2000/svg">
<path d="M1.75613 5.60785C1.46764 5.72195 1.17012 5.83605 0.868104 5.94559L0.841064 7.13677C1.76063 6.80816 2.60357 6.47044 3.36086 6.1464C6.7777 7.23718 10.2035 7.99023 13.6069 8.39642C14.6076 8.51508 15.6083 8.60636 16.6045 8.66569C16.6135 8.29144 16.6225 7.9172 16.6315 7.55665C15.6669 7.49732 14.7022 7.4106 13.7331 7.29651C10.794 6.94508 7.84152 6.32895 4.88447 5.45724C5.14591 5.33401 5.39383 5.21079 5.62372 5.09669C8.10296 3.8553 9.44626 2.86492 9.50486 2.82385L8.85575 1.92932C8.8242 1.95214 6.84532 3.39891 3.29776 4.96434C2.4999 4.7042 1.70203 4.42122 0.904168 4.12457L0.877128 5.2975C1.17464 5.40247 1.46764 5.50744 1.75613 5.60785Z" fill="#E9E8E8"/>
<path d="M12.7414 11.153C8.81976 12.0065 4.7944 12.3579 0.728467 12.2027L0.701416 13.3118C1.33249 13.3346 1.96357 13.3483 2.59465 13.3483C6.10614 13.3483 9.57705 12.9786 12.9713 12.2393C14.238 11.9654 15.4326 11.6505 16.546 11.3128C16.555 10.9203 16.564 10.5323 16.573 10.1444C15.383 10.5141 14.1073 10.8564 12.7414 11.153Z" fill="#E9E8E8"/>
<path d="M13.4581 3.02009C11.0555 1.81977 9.7212 0.843085 9.69866 0.824829L9.04956 1.71937C9.10365 1.76044 10.4469 2.75082 12.9307 3.99221C14.2064 4.63116 15.473 5.17884 16.6856 5.64893C16.6946 5.24273 16.7036 4.85023 16.7171 4.47143C15.4279 3.96026 14.3326 3.45366 13.4581 3.02009Z" fill="#E9E8E8"/>
</svg>
