<svg width="17" height="8" viewBox="0 0 17 8" fill="none" xmlns="http://www.w3.org/2000/svg">
<path d="M14.254 3.59324C15.0744 3.41069 15.8632 3.20987 16.6205 2.99993C16.616 2.60743 16.607 2.22407 16.6025 1.85439C15.7054 2.10997 14.7633 2.34729 13.7762 2.56636C13.4065 2.64851 13.0369 2.72153 12.6673 2.79456C12.2345 2.55723 11.8514 2.33816 11.5223 2.14191L10.9318 1.32497C10.9228 1.32953 10.8101 1.41625 10.5937 1.55774C10.2872 1.35692 10.1249 1.23826 10.1159 1.23369L9.46679 2.12823C9.4758 2.13279 9.51186 2.16017 9.57046 2.20124C9.27295 2.37924 8.92586 2.58005 8.5382 2.79456C8.33986 2.75348 8.13702 2.71241 7.93868 2.67133C5.13489 2.06433 2.70073 1.26107 0.721852 0.476074L0.694801 1.65357C2.98922 2.53898 5.10332 3.14142 6.79371 3.54305C4.76074 3.6754 2.70974 3.67996 0.649724 3.55673L0.622674 4.66577C1.62338 4.7251 2.62409 4.75705 3.62029 4.75705C3.89526 4.75705 4.16573 4.75249 4.43619 4.74792C3.29124 5.22257 2.00204 5.69722 0.586621 6.13535L0.55957 7.30373C3.45351 6.43201 5.793 5.42338 7.44733 4.60644C8.47508 4.52885 9.49384 4.41475 10.5081 4.26871C11.635 4.44214 12.7709 4.57905 13.9159 4.67489C14.8445 5.12216 15.7595 5.51923 16.6566 5.87521C16.643 5.13585 16.634 4.41019 16.6205 3.71647C15.8362 3.69821 15.0473 3.65258 14.254 3.59324ZM10.5306 3.15054C10.4314 3.13229 10.3278 3.11859 10.2286 3.10034C10.3638 3.01819 10.49 2.94061 10.6027 2.86758C10.7154 2.93604 10.8326 3.00907 10.9588 3.08665C10.8146 3.10947 10.6703 3.13229 10.5306 3.15054Z" fill="#E9E8E8"/>
</svg>
