<svg width="18" height="14" viewBox="0 0 18 14" fill="none" xmlns="http://www.w3.org/2000/svg">
<path d="M8.73896 3.8965C11.2182 2.65511 12.5615 1.66473 12.6201 1.62365L11.971 0.729126C11.9259 0.765638 7.75177 3.81434 0.620605 5.8453L0.643144 6.99085C4.1321 6.01873 6.89982 4.81841 8.73896 3.8965Z" fill="#E9E8E8"/>
<path d="M8.36929 11.0755C5.51592 10.4594 3.04568 9.63789 1.04878 8.84377C1.37784 8.84833 1.70692 8.85289 2.03598 8.85289C4.03289 8.85289 6.0433 8.73422 8.05824 8.49234C11.0919 8.13178 14.1391 7.49284 17.1818 6.58462C17.1728 6.09171 17.1683 5.60793 17.1593 5.13328C16.7175 4.93247 16.3118 4.73622 15.9467 4.55366C13.5441 3.35334 12.2098 2.37665 12.1873 2.3584L11.5382 3.25294C11.5923 3.29401 12.9356 4.28438 15.4193 5.52577C15.5951 5.61249 15.7754 5.69921 15.9512 5.78593C13.2872 6.52985 10.6231 7.06383 7.9726 7.38331C5.52492 7.6754 3.08176 7.78949 0.661133 7.72103L0.701698 9.88891C3.5731 11.0299 6.19207 11.7327 8.09431 12.1435C11.11 12.8007 14.1887 13.1658 17.299 13.2388C17.2945 12.8692 17.2855 12.4995 17.281 12.1298C14.2608 12.0568 11.2858 11.7054 8.36929 11.0755Z" fill="#E9E8E8"/>
</svg>
