<svg width="19" height="16" viewBox="0 0 19 16" fill="none" xmlns="http://www.w3.org/2000/svg">
<path d="M16.3871 0.355835L15.6343 1.16365C15.6839 1.20929 16.6755 2.14946 18.4516 3.45931C18.4426 2.9801 18.438 2.51458 18.429 2.05819C17.1263 1.05412 16.3961 0.364963 16.3871 0.355835Z" fill="#E9E8E8"/>
<path d="M18.3796 11.2637C15.3549 11.1907 12.3618 10.8392 9.42727 10.2048C6.57841 9.58871 4.11271 8.77176 2.1158 7.97307C5.38388 6.87772 8.64745 5.47203 11.8885 3.76511L11.3836 2.7793C7.7955 4.67333 4.17581 6.18857 0.556132 7.31586C0.425409 7.25653 0.303706 7.20177 0.17749 7.147L0.204541 8.58007C0.299202 8.55269 0.393855 8.5253 0.488517 8.49792C3.85126 9.95838 6.97059 10.8073 9.14781 11.2819C11.1808 11.7246 13.2453 12.035 15.3234 12.213C12.6728 12.9478 10.0268 13.4772 7.38981 13.7967C5.01425 14.0796 2.6477 14.1937 0.303697 14.139L0.321723 15.248C0.70037 15.2571 1.07903 15.2617 1.46218 15.2617C3.45909 15.2617 5.46953 15.143 7.48447 14.9011C11.1628 14.463 14.8636 13.6187 18.5554 12.3818C18.5734 12.3818 18.5869 12.3818 18.6049 12.3818C18.6004 11.9893 18.5914 11.5923 18.5869 11.1998C18.5148 11.218 18.4472 11.2409 18.3796 11.2637Z" fill="#E9E8E8"/>
</svg>
