<svg width="19" height="14" viewBox="0 0 19 14" fill="none" xmlns="http://www.w3.org/2000/svg">
<path d="M16.6388 0.0778809L15.8906 0.885699C15.9357 0.926774 16.8011 1.74829 18.3651 2.92123C18.3561 2.44201 18.3516 1.97192 18.3425 1.51096C17.2518 0.657499 16.6478 0.0870088 16.6388 0.0778809Z" fill="#E9E8E8"/>
<path d="M17.405 10.8944C17.7656 10.7804 18.1262 10.6662 18.4868 10.5476C18.4823 10.1597 18.4733 9.77172 18.4688 9.38378C17.3689 9.75802 16.269 10.0958 15.1737 10.397C13.9701 10.0866 12.7666 9.70782 11.563 9.26056C11.0491 9.06887 10.5443 8.86805 10.0529 8.66268L9.80951 8.18803C9.67879 8.25649 9.55257 8.32494 9.42185 8.38884C6.27548 7.00596 3.7061 5.39947 1.98867 4.19915C1.41619 3.79752 0.902316 3.41871 0.456055 3.07642L0.483105 4.47754C0.749059 4.67379 1.03304 4.87918 1.33505 5.08912C2.94881 6.21641 5.2928 7.69512 8.15518 9.03236C5.65341 10.2692 3.13813 11.3235 0.618336 12.186L0.640874 13.3818C0.933874 13.3864 1.23136 13.3909 1.52436 13.3909C3.52127 13.3909 5.53171 13.2723 7.54664 13.0304C10.0845 12.7292 12.6358 12.2317 15.1827 11.5471C16.2961 11.8255 17.4095 12.0491 18.5184 12.2134C18.5138 11.8392 18.5048 11.4649 18.5003 11.0907C18.1352 11.0268 17.7701 10.9629 17.405 10.8944ZM7.45198 11.9213C6.19433 12.0719 4.9367 12.1769 3.68357 12.2317C5.61286 11.4649 7.54213 10.5932 9.4579 9.61198C10.0033 9.84474 10.5668 10.0729 11.1483 10.2874C11.7794 10.5202 12.4059 10.7393 13.037 10.9355C11.1708 11.3691 9.30915 11.6977 7.45198 11.9213Z" fill="#E9E8E8"/>
</svg>
