<svg width="19" height="12" viewBox="0 0 19 12" fill="none" xmlns="http://www.w3.org/2000/svg">
<path d="M16.2818 8.31537C14.7987 7.97307 13.3112 7.52581 11.8237 6.97358C10.9176 6.63584 10.0431 6.27529 9.21373 5.89648C9.60139 5.70023 9.98904 5.50399 10.3767 5.29861L9.87183 4.3128C9.23174 4.65053 8.58715 4.97913 7.94706 5.28948C5.58503 4.12111 3.63771 2.88428 2.24483 1.91673C1.51909 1.41013 0.888013 0.935487 0.369629 0.529297L0.396679 1.93955C0.757295 2.21339 1.15848 2.50091 1.59573 2.8067C2.87141 3.69667 4.60236 4.80571 6.68942 5.89192C4.63842 6.84122 2.57841 7.66729 0.513884 8.37013L0.536422 9.53394C3.01565 8.70786 5.49037 7.7038 7.95157 6.52174C9.03342 7.04203 10.1919 7.54407 11.418 8.00046C12.4232 8.3747 13.4284 8.7033 14.4336 8.98627C12.0941 9.74844 9.70506 10.214 7.28893 10.3828C5.06664 10.5334 2.81279 10.4376 0.545424 10.0907L0.563451 11.2135C2.13213 11.4462 3.69631 11.5603 5.24696 11.5603C5.94565 11.5603 6.64434 11.5375 7.33852 11.4873C10.4128 11.2774 13.4329 10.6019 16.3764 9.47005C16.985 9.60697 17.5935 9.72106 18.2021 9.82147C18.1885 9.05473 18.175 8.27886 18.1615 7.49843C17.5304 7.79965 16.9083 8.06892 16.2818 8.31537Z" fill="#E9E8E8"/>
</svg>
