<svg width="26" height="17" viewBox="0 0 26 17" fill="none" xmlns="http://www.w3.org/2000/svg">
<path d="M23.8158 12.9893C21.5169 14.5958 20.2186 15.8235 20.1646 15.8737L20.9038 16.6724C20.9309 16.645 22.3598 15.3033 24.8345 13.6146L24.9247 12.2408C24.5235 12.501 24.1539 12.752 23.8158 12.9893Z" fill="#E9E8E8"/>
<path d="M15.7064 4.45931C11.4376 2.05868 6.96146 0.684932 2.36361 0.365456C1.85424 0.328945 1.34487 0.306125 0.830994 0.296997C0.808455 0.643856 0.785917 1.00897 0.763378 1.39234C1.27275 1.40147 1.78211 1.42429 2.29148 1.45624C6.40701 1.74377 10.4234 2.90757 14.2774 4.92483C14.0295 5.01155 13.7816 5.10282 13.5292 5.1941C9.35053 6.75041 5.95173 8.84069 3.83312 10.3194C1.53419 11.9259 0.235977 13.1536 0.181885 13.2038L0.921148 14.0025C0.970732 13.9523 6.1095 9.11909 13.9033 6.22099C14.4623 6.01105 15.0212 5.81936 15.5802 5.64137C16.4727 6.15709 17.3517 6.71846 18.2262 7.32546L18.8392 6.4218C18.2307 5.99736 17.6176 5.59573 17.0046 5.21692C19.8399 4.44105 22.6663 4.04856 25.452 4.04856L25.5241 2.95321C22.2876 2.95321 19.0015 3.45524 15.7064 4.45931Z" fill="#E9E8E8"/>
</svg>
