<svg width="29" height="12" viewBox="0 0 29 12" fill="none" xmlns="http://www.w3.org/2000/svg">
<path d="M18.3183 8.46657C20.3468 7.55379 22.3347 6.42192 24.2775 5.071L23.6554 4.15821C21.4376 5.70082 19.1613 6.95134 16.8353 7.90064C13.2111 6.43105 10.2586 4.60547 8.35183 3.27737C6.07544 1.69368 4.76371 0.45229 4.75019 0.438599L4.37606 0.84479L4.00191 1.25098C4.056 1.30119 5.37225 2.54258 7.70272 4.1719C9.46523 5.40417 12.1067 7.05175 15.3387 8.47113C12.7919 9.36566 10.1865 9.90877 7.54044 10.0913C5.12883 10.2602 2.67664 10.1278 0.210938 9.70796L0.228986 10.8353C1.98698 11.1228 3.74047 11.2688 5.47593 11.2688C6.18364 11.2688 6.88683 11.246 7.59003 11.1958C10.7364 10.9813 13.8242 10.2739 16.8353 9.09183C17.0607 9.18311 17.2906 9.26983 17.5205 9.35654C21.2483 10.7394 24.9762 11.4925 28.6454 11.602C28.6409 11.2369 28.6319 10.8672 28.6274 10.493C25.2286 10.3834 21.7757 9.7034 18.3183 8.46657Z" fill="#E9E8E8"/>
<path d="M6.02142 6.37629L5.39935 5.4635C3.69545 6.64556 1.95548 7.65875 0.188477 8.49395L0.211015 9.7034C2.18538 8.79974 4.12369 7.69071 6.02142 6.37629Z" fill="#E9E8E8"/>
</svg>
