<svg width="26" height="17" viewBox="0 0 26 17" fill="none" xmlns="http://www.w3.org/2000/svg">
<path d="M19.8485 9.60525L19.7718 9.49116C19.7403 9.51398 19.7042 9.5368 19.6727 9.55962C18.5277 9.2584 17.3827 8.89784 16.2378 8.4734C12.1133 6.94448 8.75052 4.88614 6.65444 3.42568C4.37806 1.84199 3.06633 0.600606 3.05281 0.586914L2.67868 0.993106L2.30453 1.39929C2.35862 1.4495 3.67487 2.69089 6.00534 4.32021C8.151 5.81718 11.5949 7.93486 15.8276 9.50485C16.7021 9.82889 17.5811 10.121 18.4556 10.3766C13.7496 13.3751 8.78208 15.0774 3.66134 15.438C2.67416 15.5064 1.67795 15.5247 0.677246 15.4973L0.695294 16.6063C0.988294 16.6155 1.28578 16.62 1.57878 16.62C2.291 16.62 3.00323 16.5972 3.71544 16.547C9.33653 16.1591 14.7728 14.2103 19.8845 10.7645C21.9039 11.2665 23.9189 11.5814 25.9158 11.7047C25.8888 11.335 25.8617 10.9607 25.8347 10.5865C23.8468 10.445 21.8499 10.121 19.8485 9.60525Z" fill="#E9E8E8"/>
</svg>
