<svg width="21" height="16" viewBox="0 0 21 16" fill="none" xmlns="http://www.w3.org/2000/svg">
<path d="M16.6206 12.5638C14.1729 13.7915 12.8432 14.7682 12.7891 14.8093L13.4292 15.6947C13.4607 15.6718 15.4576 14.2114 19.0322 12.6505L19.19 11.3909C18.1983 11.8016 17.3373 12.2078 16.6206 12.5638Z" fill="#E9E8E8"/>
<path d="M16.8099 5.07433C17.8872 4.91003 18.96 4.80505 20.0284 4.75485L20.1681 3.65037C18.5273 3.71883 16.8775 3.91508 15.2186 4.23913C11.4547 2.3816 7.54205 1.30907 3.53922 1.03067C2.87208 0.985027 2.20494 0.962206 1.5333 0.957642C1.51076 1.31363 1.48822 1.67875 1.46117 2.05299C2.13282 2.05299 2.79996 2.07581 3.46259 2.12145C6.87491 2.35421 10.2241 3.19398 13.4697 4.62706C12.1534 4.95567 10.8327 5.36642 9.51191 5.85933C6.00492 7.16462 3.04337 8.84872 0.929265 10.2316C0.897711 10.7245 0.866157 11.1855 0.839111 11.6099C3.08394 10.081 6.18523 8.26453 9.88605 6.88622C11.617 6.2427 13.348 5.74066 15.0699 5.38468C16.5394 6.1286 17.9819 6.99575 19.4018 7.98156L19.6677 7.59363L19.7534 6.89991C18.7842 6.23814 17.8015 5.62657 16.8099 5.07433Z" fill="#E9E8E8"/>
</svg>
