<svg width="19" height="10" viewBox="0 0 19 10" fill="none" xmlns="http://www.w3.org/2000/svg">
<path d="M17.851 4.7717C13.5822 2.3802 9.11512 1.01102 4.52178 0.696105C3.41739 0.618518 2.30399 0.604827 1.18608 0.650466C1.14101 1.01102 1.09142 1.3807 1.04634 1.75038C2.18679 1.69561 3.32273 1.7093 4.44965 1.78689C8.2857 2.0516 12.0361 3.07848 15.6513 4.84929C13.145 4.99534 10.6613 5.33307 8.21809 5.86249C5.03115 6.5562 2.31751 7.50094 0.198892 8.38635C0.140291 8.82905 0.0862057 9.24893 0.0366211 9.64599C2.25892 8.67387 5.09426 7.66524 8.44347 6.93501C11.4366 6.28237 14.4883 5.93094 17.5806 5.87161C17.6707 5.92181 17.7564 5.97202 17.8465 6.02679C17.7879 6.08155 17.7519 6.1135 17.7428 6.12263L18.2657 6.68856L18.2071 4.7717C18.0899 4.76714 17.9682 4.76714 17.851 4.7717Z" fill="#E9E8E8"/>
</svg>
