<svg width="21" height="15" viewBox="0 0 21 15" fill="none" xmlns="http://www.w3.org/2000/svg">
<path d="M19.6172 9.4274C15.2177 7.75243 10.8001 6.64796 6.40964 6.12311C5.35484 5.99532 4.30005 5.90404 3.24525 5.84471C5.11594 4.63526 7.87464 3.16568 11.3591 2.19356C14.3342 1.36293 17.3904 1.01607 20.4826 1.16211L20.4511 0.0622038C17.2777 -0.0747143 14.1358 0.281273 11.0751 1.13473C7.39683 2.16161 4.52092 3.72704 2.75842 4.8589C2.24905 5.1875 1.80278 5.49328 1.41512 5.77625C1.01845 5.76712 0.621774 5.76712 0.225098 5.76712C0.243128 6.41064 0.26115 7.05871 0.283689 7.6931L0.491047 7.91673C0.495555 7.91217 0.612759 7.80264 0.833636 7.61552C1.35653 7.94412 1.87491 8.28641 2.39329 8.64696L3.00634 7.74331C2.58712 7.45122 2.1634 7.16825 1.73967 6.89898C1.74869 6.89442 1.75771 6.88529 1.76672 6.88072C3.26779 6.9218 4.77786 7.03133 6.29244 7.20932C10.2186 7.67941 14.1719 8.62415 18.1161 10.0344C17.2056 10.4223 16.4077 10.7966 15.7406 11.1297C13.2929 12.3574 11.9631 13.3341 11.909 13.3752L12.5491 14.2606C12.5852 14.2332 15.132 12.3711 19.6307 10.6003C20.0184 10.7509 20.406 10.9061 20.7892 11.0658L20.7261 9.02577C20.3384 9.15356 19.9688 9.29048 19.6172 9.4274Z" fill="#E9E8E8"/>
</svg>
