<svg width="27" height="13" viewBox="0 0 27 13" fill="none" xmlns="http://www.w3.org/2000/svg">
<path d="M18.7787 1.31176C14.2575 1.85031 9.70023 3.00955 5.16549 4.77123C4.94912 4.74384 4.73275 4.71646 4.51638 4.68907C3.30832 4.54303 2.10026 4.44262 0.901212 4.38786C0.774996 4.31027 0.653286 4.22812 0.527071 4.15053C0.486501 4.59323 0.441422 5.03137 0.400853 5.46494C0.454945 5.46494 0.509038 5.46951 0.558622 5.46951C0.811053 5.63381 1.06799 5.80268 1.32042 5.97611L1.61793 5.52428C2.09575 5.55622 2.57356 5.59274 3.05138 5.63381C2.11829 6.03544 1.1897 6.45989 0.26111 6.91172C0.220541 7.35442 0.179974 7.77886 0.139404 8.18962C1.85233 7.33616 3.56976 6.56942 5.2917 5.89396C11.7107 6.77936 18.1972 8.93354 24.5801 12.3017L25.0805 11.3296C19.2295 8.23982 13.2884 6.1541 7.38327 5.11352C11.2103 3.76716 15.0509 2.85894 18.8644 2.40254C21.2895 2.11045 23.7011 2.00092 26.0992 2.06937L26.1263 0.974029C23.6966 0.90557 21.2399 1.01511 18.7787 1.31176Z" fill="#E9E8E8"/>
<path d="M25.4094 5.75247C22.9617 6.98016 21.632 7.95684 21.5779 7.99792L22.218 8.88332C22.2315 8.87419 23.5477 7.90664 25.9323 6.71545C25.9548 6.70633 25.9774 6.69264 25.9954 6.68351L26.0225 5.45581C25.8106 5.55622 25.6032 5.65662 25.4094 5.75247Z" fill="#E9E8E8"/>
</svg>
