<svg width="26" height="13" viewBox="0 0 26 13" fill="none" xmlns="http://www.w3.org/2000/svg">
<path d="M10.0071 2.05097C9.83129 2.08748 9.66 2.12855 9.4887 2.16507C9.3129 2.12399 9.1371 2.08748 8.97032 2.05097C6.07638 1.42114 3.12384 1.06059 0.139743 0.973872C0.130728 1.33442 0.121708 1.69954 0.112692 2.06922C2.4567 2.13768 4.77817 2.375 7.06808 2.79032C4.14709 3.62553 1.75801 4.62047 0.0315627 5.44655C0.0225473 5.86187 0.0135231 6.27719 0 6.67882C2.07354 5.65193 5.33711 4.26905 9.48419 3.29236C13.6809 4.27817 16.9715 5.68387 19.0405 6.71532C21.4161 7.90195 22.7323 8.86495 22.7549 8.8832L23.3949 7.99779C23.3409 7.95672 22.0111 6.98003 19.5634 5.75233C16.8227 4.37858 14.1452 3.43384 11.8958 2.79032C16.4711 1.96881 21.1727 1.83189 25.9103 2.37957L25.9373 1.27966C20.5461 0.663524 15.1864 0.92367 10.0071 2.05097Z" fill="#E9E8E8"/>
<path d="M20.4961 11.3295L20.9965 12.3016C22.5743 11.471 24.1565 10.7134 25.7388 10.0288L25.7659 8.82849C24.0033 9.57241 22.2452 10.4076 20.4961 11.3295Z" fill="#E9E8E8"/>
</svg>
