<svg width="173" height="173" viewBox="0 0 173 173" fill="none" xmlns="http://www.w3.org/2000/svg">
<path d="M100.172 113.733C95.942 110.782 91.4214 108.377 86.6936 106.54C92.9828 100.823 97.155 92.8157 97.8809 83.851C107.418 74.5577 119.92 69.4629 133.323 69.4629C143.785 69.4629 153.831 72.6135 162.376 78.5728C165.438 80.7084 169.648 79.9587 171.784 76.8965C173.918 73.8357 173.169 69.624 170.108 67.4897C165.877 64.5384 161.356 62.1349 156.628 60.2963C163.568 53.9886 167.931 44.8933 167.931 34.7988C167.931 15.7964 152.473 0.337891 133.47 0.337891C114.469 0.337891 99.0108 15.7964 99.0108 34.7988C99.0108 44.8524 103.339 53.9147 110.231 60.2198C109.287 60.5827 108.349 60.9668 107.42 61.376C103.191 63.237 99.2153 65.5257 95.5183 68.213C90.4196 55.5461 78.0061 46.5814 63.5362 46.5814C44.5351 46.5814 29.0753 62.0399 29.0753 81.041C29.0753 91.0668 33.3794 100.104 40.2349 106.407C21.9057 113.274 7.04376 128.024 0.993407 146.835C-1.01282 153.072 0.0496891 159.688 3.90903 164.984C7.76838 170.28 13.7395 173.317 20.2915 173.317H79.0779C82.8092 173.317 85.8343 170.292 85.8343 166.559C85.8343 162.828 82.8092 159.803 79.0779 159.803H20.2915C18.107 159.803 16.1167 158.79 14.8298 157.024C13.5429 155.258 13.1892 153.053 13.857 150.972C20.5356 130.208 40.9041 115.706 63.3884 115.706C73.8498 115.706 83.8968 118.857 92.4417 124.816C95.5025 126.952 99.7143 126.201 101.85 123.14C103.984 120.079 103.234 115.867 100.172 113.733ZM133.47 13.8522C145.021 13.8522 154.417 23.2485 154.417 34.7988C154.417 46.3478 145.021 55.7454 133.47 55.7454C121.921 55.7454 112.524 46.3478 112.524 34.7988C112.524 23.2485 121.921 13.8522 133.47 13.8522ZM63.5362 60.0944C75.0865 60.0944 84.4828 69.492 84.4828 81.041C84.4828 92.5913 75.0865 101.988 63.5362 101.988C51.9859 101.988 42.5896 92.5913 42.5896 81.041C42.5896 69.492 51.9859 60.0944 63.5362 60.0944ZM173 141.221C173 144.952 169.974 147.978 166.242 147.978H147.66V166.559C147.66 170.292 144.635 173.317 140.904 173.317C137.171 173.317 134.146 170.292 134.146 166.559V147.978H115.565C111.833 147.978 108.808 144.952 108.808 141.221C108.808 137.489 111.833 134.463 115.565 134.463H134.146V115.882C134.146 112.151 137.171 109.126 140.904 109.126C144.635 109.126 147.66 112.151 147.66 115.882V134.463H166.242C169.974 134.463 173 137.489 173 141.221Z" fill="#D73F34"/>
</svg>
