<svg width="23" height="49" viewBox="0 0 23 49" fill="none" xmlns="http://www.w3.org/2000/svg">
<path d="M15.6711 42.2274C15.2895 37.0764 14.0547 3.17442 13.2948 2.32198C11.4347 0.235114 10.5728 0.0990136 8.84883 1.86831C7.12489 3.63761 6.80733 29.9502 6.67123 31.3112C6.53513 32.6722 5.87005 35.4786 6.98879 39.7041C6.08509 39.2 3.09361 37.394 0.5 35.749V38.1471C3.84307 40.1428 7.12489 41.7002 7.12489 41.7002C7.12489 41.7002 13.1981 43.0417 14.3368 43.9708C14.3944 44.0597 14.4552 44.1486 14.5197 44.2376C14.5197 44.2385 14.5201 44.2398 14.5201 44.2407C14.521 44.2884 14.5578 44.3337 14.624 44.3777C16.0907 46.3035 19.0282 48.1019 22.3218 48.4825V44.0774C19.8548 43.8379 17.4308 43.2994 15.6711 42.2274Z" fill="#B46766"/>
</svg>
