<svg width="22" height="43" viewBox="0 0 22 43" fill="none" xmlns="http://www.w3.org/2000/svg">
<path d="M20.3037 37.8695C19.6414 37.8454 17.1072 37.5419 16.728 36.9985C16.448 36.5974 15.2309 9.55166 14.9587 6.376C14.6865 3.20034 13.7338 0.296875 11.5562 0.296875C9.37856 0.296875 8.51659 3.47254 8.06292 7.55553C7.60926 11.6385 7.03809 35.1316 7.11022 36.0004C7.17328 36.758 5.1971 35.8697 5.17124 36.0898C4.7085 36.1741 3.82159 36.1655 3.40285 36.1614C3.04627 36.1583 2.70921 36.1551 2.43248 36.1719C2.2247 36.1846 2.01192 36.2009 1.80596 36.2163C1.57504 36.2336 1.29604 36.2399 0.984375 36.2363V41.7865C1.52061 41.903 2.07726 41.9729 2.65251 41.9856C7.36429 42.0895 9.14673 39.0431 9.72561 37.6C11.0308 37.5415 12.532 37.5764 13.7964 37.6921C14.9773 39.8715 17.6507 42.6144 21.8072 42.4393V37.3392C21.393 37.6876 20.8368 37.8895 20.3037 37.8695Z" fill="#B46766"/>
</svg>
