<svg width="19" height="45" viewBox="0 0 19 45" fill="none" xmlns="http://www.w3.org/2000/svg">
<path d="M18.7318 37.7953C17.9261 37.1638 14.4614 37.7699 14.5975 33.9137C14.5962 32.8222 13.9778 17.1231 13.7355 15.5856C13.1458 11.8442 13.1458 7.14741 12.4653 3.51808C11.7848 -0.111254 10.5599 0.25168 9.97011 0.433146C9.38034 0.614613 7.15738 0.614613 6.79444 4.47078C5.92295 9.095 5.19935 16.3314 5.02514 18.9427C4.9453 20.1386 4.84912 33.9242 4.93441 34.8664C5.11451 36.8567 1.94836 37.9904 1.07959 39.0592C0.99793 39.1595 0.905402 39.252 0.804688 39.3364V44.4365C0.880904 44.4334 0.958008 44.4293 1.03513 44.4243C6.21329 44.0754 7.67729 40.325 8.05202 38.8678C10.2832 38.5384 12.8132 38.4731 14.7522 38.8283C15.3701 40.5935 16.7111 42.7498 18.9055 43.3341V37.9242C18.8479 37.8829 18.7898 37.8407 18.7318 37.7953Z" fill="#B46766"/>
</svg>
