<svg width="21" height="46" viewBox="0 0 21 46" fill="none" xmlns="http://www.w3.org/2000/svg">
<path d="M16.5137 38.3225C15.8786 37.4605 15.4739 21.6621 15.2435 19.7222C14.9232 17.0274 14.2454 4.61508 13.6103 2.80041C12.9751 0.985742 13.0659 -0.239157 9.30043 0.985743C6.98673 2.84578 6.66916 19.3592 6.12476 23.9413C5.58037 28.5233 5.03597 39.8196 3.99435 40.1962C3.00762 40.5527 1.94787 40.6494 0.90625 39.9276V45.3376C1.23289 45.4247 1.57812 45.4768 1.94333 45.4877C5.62392 45.5966 7.46489 41.3376 7.94532 40.0206C9.89881 39.8831 13.3045 40.2084 15.1015 40.7156C15.8659 42.8125 17.5023 45.2672 20.1807 45.3516C20.183 45.3516 20.1848 45.3516 20.1871 45.3516V40.2665C19.3306 40.3631 17.1466 39.1813 16.5137 38.3225Z" fill="#B46766"/>
</svg>
