<svg width="22" height="48" viewBox="0 0 22 48" fill="none" xmlns="http://www.w3.org/2000/svg">
<path d="M18.6268 40.9257C17.9885 40.5692 17.1115 40.1581 16.5662 39.0026C15.0383 35.7662 14.7515 32.243 14.4793 29.1581C14.4213 28.0566 13.988 4.20142 12.0295 1.52978C11.5777 0.913244 10.8954 -0.375623 8.49095 1.16684C6.08652 2.70931 6.13188 16.0925 5.63285 23.6233C5.13382 31.1542 5.1878 34.28 5.40602 36.326C5.43051 36.5538 2.70897 41.2728 2.67812 41.3195C2.56108 41.3776 1.00047 42.162 0.197025 42.2618C0.19385 42.2622 0.190676 42.2622 0.1875 42.2627V47.3478C2.66996 47.4231 3.99874 45.731 4.68197 44.2656C6.04433 44.0696 9.10113 44.1726 9.98306 44.2706C10.7938 44.0669 13.792 43.5901 15.7346 43.6441C16.9677 45.4107 18.7924 46.8846 21.283 46.9577V41.1294C20.46 41.2565 19.0618 41.1685 18.6268 40.9257Z" fill="#B46766"/>
</svg>
