<svg width="25" height="49" viewBox="0 0 25 49" fill="none" xmlns="http://www.w3.org/2000/svg">
<path d="M18.6186 39.3751C17.596 38.2509 16.4001 28.4082 16.4863 25.2207C16.5703 22.1222 14.1273 2.31056 13.8551 1.67543C13.5829 1.0403 11.1784 0.178334 9.68132 1.63007C8.18422 3.0818 5.84829 38.779 5.91588 39.6473C5.99664 40.6898 0.964109 42.8016 0.880181 42.9137C0.803057 43.0167 0.582585 43.0897 0.289062 43.1351V48.9633C0.289516 48.9633 0.290403 48.9633 0.290857 48.9633C5.15144 49.1049 6.74746 44.6181 7.15667 43.048C7.18207 43.0339 7.20702 43.0194 7.23152 43.0044C8.32304 42.3366 9.5248 40.3627 9.9517 38.9632C10.0687 39.4763 10.4585 39.474 11.4506 37.016C11.8657 35.9876 13.1759 37.8685 12.6302 39.5112C12.3952 40.2185 14.0914 40.5705 14.9198 40.9516C15.05 41.1212 15.1902 41.2936 15.3417 41.4678C15.3426 41.7065 15.5577 41.8975 15.8811 42.0472C17.7852 43.9621 20.8992 45.828 24.7871 45.5681V39.8573C22.8322 40.272 20.7059 40.2262 18.6186 39.3751Z" fill="#B46766"/>
</svg>
