<svg width="25" height="48" viewBox="0 0 25 48" fill="none" xmlns="http://www.w3.org/2000/svg">
<path d="M17.8405 37.6059C17.9525 35.622 17.2743 31.7545 17.2053 29.9843C17.1382 28.2604 15.5721 2.80965 15.0277 1.63012C14.4833 0.450583 11.2623 0.314482 10.355 1.58475C9.31199 2.46986 8.79299 17.0153 8.132 27.8521C7.84438 32.5684 7.84211 36.1487 7.81443 37.9235C6.38538 39.49 3.78588 41.2158 0.78125 41.8536V47.5644C0.874705 47.558 0.968147 47.5512 1.06251 47.5421C6.75376 47.0154 8.29714 42.8095 8.69047 41.1101L8.90323 41.008C8.90323 41.008 13.5379 34.33 13.576 34.2483C13.7425 34.5868 14.2606 34.7034 14.2111 37.2879L14.7138 37.5846C15.7536 39.4868 19.0558 42.4447 24.5284 41.8078C24.5829 41.8014 24.6355 41.7942 24.6895 41.7874V36.0612C21.4925 36.8864 18.1703 37.5206 17.8405 37.6059Z" fill="#B46766"/>
</svg>
