<svg width="21" height="45" viewBox="0 0 21 45" fill="none" xmlns="http://www.w3.org/2000/svg">
<path d="M16.1667 33.5284C16.2402 33.2176 15.9567 27.3231 15.3955 19.7369C14.8121 11.8499 13.9437 3.17805 13.4901 1.63558C13.0364 0.0931165 10.0422 -0.0883502 8.77193 2.49755C7.50167 5.08345 7.05798 12.5345 6.9119 20.2359C6.75402 28.5566 7.08202 35.696 6.7758 36.5679C6.49271 37.3736 3.64732 38.2987 0.695312 39.0608V44.787C7.79474 43.8878 8.48883 38.9628 8.48883 38.9628C8.48883 38.9628 8.45891 38.9746 8.4022 38.9964C10.4174 37.9598 14.6673 35.9514 14.6696 36.9309C14.6696 36.9309 17.2836 35.5612 20.0669 34.0818V32.3125C18.7145 32.8832 17.3862 33.3188 16.1667 33.5284Z" fill="#B46766"/>
</svg>
