<svg width="22" height="42" viewBox="0 0 22 42" fill="none" xmlns="http://www.w3.org/2000/svg">
<path d="M20.4331 1.16652C16.4353 1.08531 14.0817 2.63051 12.7307 4.17932C11.9241 4.21925 11.3456 4.32223 11.1914 4.52774C10.7096 5.17058 10.9192 8.06633 10.9192 8.06633L11.3729 13.8733C10.666 15.4942 9.90251 13.9313 9.19524 15.5518C9.26012 14.5088 10.1425 14.8926 9.4561 12.285L8.83866 9.93861L9.96648 2.07794C8.55602 3.77828 10.9646 2.57697 6.51859 1.98721C5.8644 1.19783 2.83571 0.82446 0.90625 0.648438V2.17276C1.4189 2.34787 5.84308 3.32779 5.79272 3.80187C5.54366 6.15231 7.28983 21.5856 7.51667 23.491C7.7435 25.3964 8.23029 38.3603 8.06107 39.5054C7.94947 40.2616 8.19581 42.7137 11.1914 40.6849C14.2754 38.5962 13.2138 9.56887 12.9607 7.20437C12.8101 5.79709 20.2797 7.06419 21.3214 6.93671C21.3472 6.93353 21.3776 6.93353 21.4121 6.9358V1.22595C21.0945 1.19374 20.7683 1.17333 20.4331 1.16652Z" fill="#B46766"/>
</svg>
