<svg width="26" height="43" viewBox="0 0 26 43" fill="none" xmlns="http://www.w3.org/2000/svg">
<path d="M13.5322 8.49055C13.2596 8.59943 13.0913 8.7555 13.0581 8.97235C13.0495 9.03042 13.0432 9.10073 13.0391 9.18239C12.3636 10.4132 12.7406 11.5129 12.7406 11.5129C12.7406 11.5129 12.8848 11.4843 13.1516 11.438C13.3539 13.6996 13.7477 16.6221 13.784 16.8662C14.3311 20.5177 13.1725 27.4293 13.0128 27.2551C12.9293 27.0682 12.0047 18.6459 11.924 16.8662C11.8097 14.3447 11.9476 9.83386 11.6971 8.01965C11.527 6.78613 10.1229 5.78489 8.32143 5.03543C6.92505 2.89367 4.35323 0.625336 0.414062 0.226562V5.93642C1.74602 6.03214 9.20426 10.3451 9.29273 14.3256C9.38346 18.4086 10.563 40.9559 11.1981 41.591C11.8332 42.2261 13.6733 43.8952 14.3284 39.8671C14.6541 37.8632 15.6685 12.6983 15.7801 11.9666C15.9557 10.8165 22.5202 11.1763 25.2295 11.1336V5.8738C17.9686 5.632 14.8415 7.02748 13.5322 8.49055Z" fill="#B46766"/>
</svg>
