<svg width="26" height="41" viewBox="0 0 26 41" fill="none" xmlns="http://www.w3.org/2000/svg">
<path d="M24.5343 4.15138C18.7495 4.04296 16.1422 6.83755 15.0584 8.66492C14.9718 8.70031 14.9074 8.73978 14.867 8.78288C14.8348 8.81736 14.7998 8.96616 14.7631 9.20932C14.4709 9.80136 14.3679 10.2001 14.3679 10.2001C14.3679 10.2001 14.4677 10.1729 14.6542 10.1271C14.2332 14.3512 13.6461 27.0248 13.5513 27.0657C13.4792 26.979 13.5051 25.6466 13.5341 24.786C13.4257 23.2748 12.8649 9.40077 13.0523 8.28384C13.1399 7.76349 12.5968 7.29439 11.7598 6.87248C10.2754 4.31516 6.69636 1.04104 0.551841 0.886796C0.442506 0.882713 0.334083 0.878629 0.226562 0.875V6.13482C0.295067 6.13391 0.361757 6.13256 0.425271 6.13074C1.02684 6.11532 2.18823 6.04228 3.47938 6.11895C4.82089 6.33444 6.14424 6.63839 7.40136 7.05576C7.72801 7.23451 8.02789 7.44547 8.28875 7.69362C10.0082 9.32819 10.7835 15.3325 10.7386 15.4967C11.6005 26.5208 10.421 40.1308 13.8235 40.403C18.5417 40.7206 16.7043 11.1379 17.1353 11.5952C17.2805 11.749 22.4174 10.6093 25.1785 10.5449V4.17815C24.9671 4.165 24.7525 4.15547 24.5343 4.15138Z" fill="#B46766"/>
</svg>
