<svg width="25" height="49" viewBox="0 0 25 49" fill="none" xmlns="http://www.w3.org/2000/svg">
<path d="M18.728 43.7736C18.5611 43.378 18.4908 42.9234 18.4762 42.2325C18.4658 41.7471 17.4051 35.3671 16.7977 24.6756C16.32 16.2691 16.4733 3.27975 15.2552 1.40248C14.317 0.796378 13.0776 -0.0492567 11.4897 0.81271C9.63877 2.37287 9.71136 14.3166 9.31213 24.9931C9.06533 31.5949 8.29682 37.4554 8.09221 41.0634C6.08836 41.2249 3.17989 41.3478 0.328125 41.0711V45.4762C0.628454 45.5107 0.931506 45.5338 1.23683 45.5442C3.60997 45.6227 5.39878 45.2584 6.74391 44.7009C9.89283 45.2389 14.7866 46.0782 16.3989 46.2034C18.0802 47.0817 21.5607 47.9695 24.6448 48.406V44.2781C22.2313 44.1383 20.1045 43.9278 18.728 43.7736Z" fill="#B46766"/>
</svg>
