<svg width="23" height="40" viewBox="0 0 23 40" fill="none" xmlns="http://www.w3.org/2000/svg">
<path d="M21.4868 2.83182C21.4823 2.83182 21.4782 2.83136 21.4737 2.83136C15.2535 2.64899 14.0939 9.68943 14.0939 9.68943C14.0939 9.68943 14.2006 9.64861 14.3979 9.58373C14.2409 10.2633 14.3131 11.1679 14.0939 12.4963C13.477 16.2395 15.4327 20.3969 13.6235 24.0021C11.802 27.6319 12.4744 15.9999 12.733 8.86694C12.7947 7.16977 11.8578 7.18202 11.009 6.28104C10.6729 5.92446 10.1131 5.65589 9.44891 5.4531C7.9736 3.1267 4.97625 0.483644 0.179688 0.179688V6.54689C0.403796 6.5419 0.612933 6.54326 0.801656 6.55369C4.18597 6.73698 8.8977 8.79526 8.87683 9.36642C8.76659 12.4042 10.0573 18.6702 10.2832 24.7003C10.5726 32.4217 10.0899 39.7643 13.0959 39.5352C15.2281 39.6259 15.4549 37.1761 15.6364 25.4716C15.6364 23.8384 16.1586 15.4868 16.8159 11.4987C17.1199 9.65495 19.5379 9.86546 21.1257 9.86546C21.3884 9.86546 21.72 9.87726 22.0915 9.90402V2.71431C21.881 2.73564 21.6792 2.77556 21.4868 2.83182Z" fill="#B46766"/>
</svg>
