<svg width="18" height="41" viewBox="0 0 18 41" fill="none" xmlns="http://www.w3.org/2000/svg">
<path d="M16.9785 3.50363C11.1708 3.32579 8.50689 9.90581 8.38712 10.2089C8.29458 9.91216 8.14169 9.62952 7.93981 9.36005C8.10585 6.31547 6.15375 2.95923 2.76808 1.53017C2.15201 1.03568 1.44884 0.724005 0.653117 0.690887C0.459858 0.682721 0.2734 0.689533 0.09375 0.70904V7.89878C1.96555 8.03261 4.85764 8.54208 5.16159 9.81099C5.46872 11.0935 6.47358 21.9884 6.20501 23.8293C6.20501 26.6421 5.38842 40.6151 8.97234 40.6605C12.5563 40.7058 11.5582 26.5967 11.6036 24.283C11.6489 21.9693 11.9121 13.9117 12.0572 13.395C12.7536 10.9198 14.3151 11.4052 17.1836 10.7637C17.366 10.7229 17.5524 10.707 17.7412 10.7129V3.57441C17.4944 3.53585 17.2403 3.5118 16.9785 3.50363ZM9.15426 31.7236C8.90066 31.9491 7.73793 15.5213 7.79328 15.1647C8.04415 13.5519 8.85031 12.117 8.4284 10.3558C8.41706 10.3091 8.4039 10.2633 8.38984 10.217C8.45789 10.1921 9.05083 9.97839 9.98582 9.74067C9.5993 12.5983 10.5397 26.1399 9.15426 31.7236Z" fill="#B46766"/>
</svg>
