<svg width="19" height="43" viewBox="0 0 19 43" fill="none" xmlns="http://www.w3.org/2000/svg">
<path d="M18.0843 4.19429C11.9099 4.57718 11.4794 12.2977 11.4794 12.2977C11.4794 12.2977 11.513 12.2781 11.5761 12.2432C10.9287 13.3234 10.6429 14.752 10.6642 16.7331C10.6642 19.8607 10.6783 21.8532 10.6887 23.3081C10.7159 27.1085 10.7186 27.5054 10.3929 35.6859L11.0621 35.7127C10.9192 37.0297 10.6696 38.6375 10.1652 39.7961C9.46063 41.4153 9.12719 31.455 9.16711 21.6949C9.18617 17.0131 8.75474 11.8091 8.57736 8.90152C8.55966 8.61435 8.0248 8.23055 7.28488 7.80365C6.51955 5.04129 4.43272 1.15972 0.742188 0.578125V7.71654C3.52222 7.80229 6.86569 12.6297 6.89881 13.0299C7.43232 21.7657 5.08417 40.9303 9.53004 41.7923C9.82946 41.7923 11.5715 43.6977 12.751 38.4351C12.9829 37.0623 13.0323 34.8126 13.0123 32.5742C13.2129 27.3489 13.2074 26.5668 13.1838 23.2904C13.1734 21.8382 13.1593 19.8494 13.1593 16.7272V16.7136C13.1398 14.9434 13.3975 13.8211 13.97 13.1814C14.5253 12.5612 15.561 12.2087 17.2305 12.0731C17.5798 12.0445 18.0997 11.9737 18.7076 11.888V4.18749C18.503 4.17932 18.2957 4.18113 18.0843 4.19429Z" fill="#B46766"/>
</svg>
