<svg width="18" height="40" viewBox="0 0 18 40" fill="none" xmlns="http://www.w3.org/2000/svg">
<path d="M12.5516 6.14143C12.4432 6.17818 12.3761 6.21265 12.3262 6.23851C11.9093 6.45536 11.6343 6.85233 11.5912 7.3001C11.339 9.91595 11.1226 17.1538 10.9856 22.7652C10.8939 26.5206 10.8372 29.5538 10.8118 31.0274C10.7483 34.7198 10.7642 34.8327 10.7814 34.9525C10.7973 35.0641 10.8254 35.1698 10.8636 35.3168C10.9271 35.559 11.0337 35.9651 11.0682 36.3588C11.1017 36.7454 11.0486 36.9178 11.0273 36.969C11.0228 36.9704 11.0169 36.9722 11.0105 36.974C10.8749 37.0108 10.7442 37.0498 10.6177 37.0879C10.4004 37.1528 10.0524 37.2571 9.88771 37.2635C9.82329 37.1655 9.66043 36.8456 9.55835 36.0086C9.42815 34.9434 9.43767 33.3842 9.58647 31.3749L9.58965 31.3286V31.2823C9.58965 26.4104 9.3669 19.3323 8.92775 10.2208C8.94544 10.1673 8.95769 10.1033 8.96495 10.0298C9.02846 10.1074 9.09197 10.1859 9.15458 10.2662C9.2739 9.90278 9.15821 9.04535 8.81706 7.97742C8.8166 7.96699 8.81615 7.95656 8.81569 7.94612C8.79256 7.48656 8.77441 7.12361 8.7726 7.06327C8.76534 6.82192 8.67007 6.22082 7.9492 5.84791C7.94647 5.84655 7.94329 5.84473 7.94011 5.84337C6.72202 3.41897 4.63742 0.843502 1.75845 0.322692C1.42047 0.247837 1.07115 0.201564 0.710938 0.1875V7.8876C0.82254 7.87172 0.936867 7.85538 1.05437 7.8386C1.95626 7.71021 3.07863 7.55006 3.53592 7.54053C3.91201 7.53146 5.4563 7.73018 6.31645 7.92389C6.31872 7.97062 6.32144 8.01962 6.3237 8.07133C6.83363 18.2144 7.09312 26.008 7.09448 31.2365C6.92799 33.5066 6.93025 35.2183 7.10174 36.4677C7.28774 37.826 7.68379 38.707 8.34751 39.2405C9.37325 40.0649 10.5528 39.7115 11.3335 39.4778C11.4492 39.4433 11.559 39.4102 11.662 39.3825C12.8252 39.0682 13.5211 38.1118 13.5715 36.7594C13.6028 35.9206 13.3832 35.0845 13.2775 34.6825C13.2721 34.6621 13.2662 34.6399 13.2607 34.619C13.2521 33.0171 13.5837 14.4426 14.0016 8.45014C14.6195 8.42972 15.613 8.44515 16.8923 8.53543C17.2938 8.56356 17.6613 8.59487 17.9956 8.62753V0.55451C14.7034 0.735069 13.1922 3.99604 12.5516 6.14143Z" fill="#B46766"/>
</svg>
