<svg width="19" height="42" viewBox="0 0 19 42" fill="none" xmlns="http://www.w3.org/2000/svg">
<path d="M10.643 8.39548C10.643 8.39548 10.8368 8.31971 11.1829 8.20856C11.1353 8.31018 11.0976 8.42179 11.0736 8.54474C11.006 8.89497 10.9987 9.69342 10.9978 12.9571C10.9964 17.0211 10.9937 23.1623 10.7274 28.6349C10.5818 31.6241 10.3727 34.0549 10.105 35.8591C10.0052 36.5319 9.90402 37.0745 9.80739 37.5109C9.69216 37.0418 9.56512 36.4607 9.42993 35.743C9.0552 33.7523 8.70453 31.1918 8.416 28.3387C7.82623 22.5113 7.62435 16.7271 7.91424 13.9456C8.0576 12.5697 7.90472 11.249 7.47282 10.1262C7.43698 10.0323 7.39841 9.94022 7.35894 9.84948C7.80127 10.3685 8.2182 10.9691 8.6011 11.6619C9.59917 9.93795 6.84132 0.748466 1.48351 0.550667C1.31566 0.544315 1.15188 0.546123 0.992188 0.554743V8.62776C2.37723 8.76386 3.18204 8.92672 3.40116 9.01564C5.36373 10.1412 5.58919 12.1759 5.43177 13.687C5.06203 17.2397 5.44991 24.0511 5.99885 29.2256C6.3205 32.2584 6.70748 34.9187 7.1176 36.9194C7.77542 40.1277 8.36382 41.0459 9.04478 41.4374L9.39863 41.6411L9.8042 41.5962C11.4047 41.4184 12.0036 39.3692 12.3779 37.388C12.7172 35.5915 12.9812 33.0464 13.1627 29.824C13.488 24.0434 13.4902 17.3727 13.4921 12.9585C13.4925 11.6319 13.493 10.3571 13.5057 9.60858C14.2828 9.48972 15.916 9.38584 18.5033 9.44073V1.50246C12.6414 1.35139 10.643 8.39548 10.643 8.39548Z" fill="#B46766"/>
</svg>
