<svg width="19" height="41" viewBox="0 0 19 41" fill="none" xmlns="http://www.w3.org/2000/svg">
<path d="M11.9863 6.65879C11.6387 6.81304 11.4083 6.98044 11.2331 7.17869C10.4546 8.06244 10.3108 10.201 10.2691 21.4801C10.2555 25.1993 10.2414 29.045 10.1244 32.1572C10.0617 33.8194 9.97692 35.1097 9.86396 36.1023C9.74781 37.1267 9.62622 37.5971 9.55907 37.7954C9.51416 37.7087 9.46425 37.6039 9.40981 37.4783C9.22153 37.0446 9.06093 36.5514 8.91938 36.1159C8.8477 35.8959 8.78328 35.6976 8.72068 35.5248C8.40628 32.4521 8.36907 28.9983 8.33323 25.6557C8.31463 23.9313 8.29694 22.3026 8.24431 20.7103C8.11728 16.8804 7.98753 13.4257 7.89089 11.0331C7.94987 11.1242 8.00839 11.2163 8.06601 11.3107C8.24385 10.8833 8.15585 9.69428 7.77249 8.25298C7.75797 7.94584 7.74754 7.74986 7.7421 7.68C7.7244 7.4509 7.63728 7.1061 7.31653 6.82029C6.2277 3.88097 4.04233 0.61593 0.55671 0.499338C0.537655 0.498884 0.519055 0.498429 0.5 0.497975V8.43626C0.503176 8.43626 0.506372 8.43626 0.509548 8.43626C2.67224 8.48253 4.39076 8.61455 5.29721 8.73341C5.38114 10.6102 5.56805 15.2835 5.75043 20.7928C5.80215 22.3575 5.81985 23.9726 5.838 25.6824C5.8752 29.1399 5.91376 32.7152 6.25583 35.9444L6.27398 36.1141L6.33704 36.2729C6.39103 36.4094 6.46679 36.6417 6.54709 36.8876C7.01982 38.3398 7.66724 40.3287 9.22336 40.5768C9.8086 40.6703 10.6865 40.5351 11.5439 39.3619C12.0461 38.6746 12.4195 37.2433 12.6087 32.4925C12.7362 29.2959 12.7507 25.3272 12.7648 21.4897C12.7761 18.3448 12.7875 15.3742 12.8582 13.0002C12.9381 10.3317 13.0769 9.27962 13.1636 8.87132C13.9003 8.61091 15.7999 8.29471 16.4718 8.18311C16.8597 8.11869 17.1401 8.07196 17.3184 8.03385C17.532 7.98848 17.7598 7.96036 18.0129 7.95038V0.09375C14.8635 0.256617 12.919 3.67819 11.9863 6.65879Z" fill="#B46766"/>
</svg>
