<svg width="17" height="41" viewBox="0 0 17 41" fill="none" xmlns="http://www.w3.org/2000/svg">
<path d="M8.71851 10.9578C8.70899 11.2663 8.7235 11.5812 8.76388 11.901C9.13043 16.6863 9.2874 22.6116 9.18351 27.7594C9.13179 30.3262 9.01475 32.5755 8.84509 34.2636C8.60556 36.6481 8.33382 37.2424 8.28347 37.3349C8.10654 37.5572 7.9718 37.662 7.90285 37.7024C7.8348 37.6525 7.72865 37.5372 7.65471 37.4016C7.43287 36.9919 7.04771 35.7221 6.96242 31.8179C6.90072 28.9992 7.00099 25.5863 7.09807 22.2859C7.23689 17.555 7.36846 13.0864 7.02232 10.604C6.95518 10.1222 6.75193 9.27018 6.13995 8.45585C6.24974 8.50984 6.30826 8.54204 6.30826 8.54204C6.30826 8.54204 5.32927 0.895946 0.0782239 1.09374C0.0573558 1.09465 0.0364931 1.09601 0.015625 1.09691V8.95352C0.334544 8.94036 0.694282 8.95533 1.118 8.99753L1.206 9.00614L1.29447 9.00251C3.87758 8.89318 4.44327 10.1743 4.55079 10.9478C4.86789 13.2225 4.73952 17.5891 4.60342 22.2119C4.35437 30.6896 4.27952 36.4099 5.46038 38.5898C5.65046 38.9404 6.37312 40.0927 7.6987 40.2048C8.34289 40.2592 9.31009 40.0692 10.2614 38.856C10.6048 38.4178 10.9968 37.5944 11.2966 34.8107C11.4831 33.0809 11.6128 30.7563 11.6723 28.0883C11.7898 22.7849 11.6319 16.6504 11.2495 11.6782L11.2422 11.6106C11.1247 10.7196 11.3379 9.93934 11.8759 9.29105C12.6875 8.31385 14.2154 7.6964 16.0682 7.5975C16.1816 7.59161 16.3199 7.58163 16.4833 7.56893V0.632812C10.9074 1.25297 8.57743 8.73666 8.71851 10.9578Z" fill="#B46766"/>
</svg>
