<svg width="19" height="41" viewBox="0 0 19 41" fill="none" xmlns="http://www.w3.org/2000/svg">
<path d="M11.2862 7.54105C11.1873 7.62361 11.0997 7.7089 11.024 7.79782C10.6166 8.27417 10.1457 9.17471 9.70878 13.8634C9.47378 16.3848 9.27373 19.7488 9.11358 23.8613C9.0537 25.3928 9.00425 26.9049 8.96342 28.3403C8.83503 25.3321 8.59639 21.4786 8.1332 16.5223C8.08329 15.9888 8.06151 15.1173 8.03792 14.1945C7.99845 12.6307 7.95492 11.5311 7.87189 10.7349C8.38771 10.9159 8.68304 11.047 8.68304 11.047C8.68304 11.047 7.47901 3.40088 1.02016 3.59868C0.838237 3.60413 0.659944 3.61728 0.484375 3.63678V10.5729C0.578738 10.5656 0.680814 10.5575 0.792416 10.5489C1.51193 10.4922 2.59937 10.4069 3.59108 10.3973C4.57282 10.3887 5.08456 10.4577 5.3309 10.5117C5.46836 11.2811 5.51644 13.1783 5.54366 14.2567C5.56816 15.223 5.59086 16.1358 5.64893 16.7537C6.50636 25.93 6.58438 31.2837 6.63111 34.4821C6.65969 36.4437 6.67556 37.5239 6.86021 38.2625C7.02579 38.9239 7.33973 39.4352 7.79385 39.7814C8.23981 40.1212 8.79464 40.2704 9.35719 40.201C10.4287 40.069 11.2685 39.2043 11.2685 38.2321C11.2685 37.685 11.3388 31.0079 11.5915 24.3408C11.7426 20.3499 11.9313 17.0572 12.1513 14.5538C12.4889 10.7167 12.8223 9.67283 12.9353 9.41742C13.2673 9.20056 14.6991 8.63846 18.2227 8.12673V0.757812C14.5616 1.05179 12.326 4.56816 11.2862 7.54105Z" fill="#B46766"/>
</svg>
