<svg width="19" height="42" viewBox="0 0 19 42" fill="none" xmlns="http://www.w3.org/2000/svg">
<path d="M10.5079 8.90408C9.50531 7.44418 5.75712 2.56954 0.512725 2.73785C0.413372 2.74103 0.315835 2.74692 0.21875 2.75508V10.124C0.242341 10.1203 0.26548 10.1172 0.289525 10.1135C3.01334 9.72158 5.18278 9.61724 5.87508 9.68438C6.04883 9.92165 6.6599 11.0685 6.76152 15.5253C6.82458 18.2882 6.6522 20.8836 6.65039 20.9094L6.64857 20.9457C6.64676 20.9906 6.47527 25.5083 6.5288 30.1515C6.5601 32.8971 6.66309 35.1559 6.83458 36.8653C7.15714 40.0814 7.68883 40.9302 8.21554 41.3684C8.61567 41.7014 9.12785 41.8289 9.62053 41.7182C11.0351 41.4006 11.5745 39.6576 11.7519 39.0847C12.0513 38.1161 12.2972 36.8045 12.4818 35.1868C12.8017 32.3863 12.8679 29.3522 12.896 28.0569C12.9006 27.8387 12.9047 27.6668 12.9078 27.5711C12.9682 25.8875 13.0648 24.1831 13.1582 22.5345C13.4077 18.1339 13.6659 13.5864 13.2494 9.01976C13.4522 8.85871 13.9753 8.52163 15.2256 8.04029C16.3389 7.61158 17.5797 7.24139 18.321 7.02C18.3364 7.01546 18.3509 7.01092 18.3659 7.00639V0.351562C14.2507 1.21988 10.923 6.72466 10.5079 8.90408ZM10.6667 22.3934C10.5723 24.0547 10.4748 25.7723 10.414 27.4822C10.4099 27.5951 10.4063 27.7661 10.4013 28.003C10.3764 29.1457 10.3183 31.8219 10.062 34.3525C9.89001 36.0528 9.67815 37.1861 9.48353 37.9373C9.27484 36.5868 9.058 34.1329 9.01989 29.7151C8.98269 25.428 9.13059 21.3558 9.14148 21.0587C9.16054 20.7711 9.34425 17.8676 9.23855 14.8594C9.17322 12.9957 9.0081 11.4755 8.74769 10.3413C8.67329 10.0169 8.5272 9.38088 8.22052 8.76661C9.2635 8.93583 10.057 9.12319 10.4666 9.22844C10.4594 9.37271 10.4712 9.49248 10.5038 9.58412C10.5905 9.4952 10.6799 9.40855 10.7706 9.32372C11.1612 13.6726 10.9207 17.9121 10.6667 22.3934Z" fill="#B46766"/>
</svg>
