<svg width="21" height="41" viewBox="0 0 21 41" fill="none" xmlns="http://www.w3.org/2000/svg">
<path d="M19.2302 0.284192C14.2217 0.57227 12.2496 2.81929 11.5687 5.07446C10.9381 5.36798 10.5307 5.71821 10.317 6.17324C10.0843 6.66865 10.0734 7.33191 10.107 11.7193C10.155 18.1097 10.2399 29.318 8.74822 36.0386C8.58354 34.8041 8.44926 33.1356 8.34991 31.0782C8.16164 27.1816 8.11762 22.4331 8.07906 18.243C8.03415 13.3507 7.99514 10.1088 7.82456 8.38169C9.0354 8.501 9.7903 8.63166 9.7903 8.63166C9.7903 8.63166 6.34742 2.03716 1.26136 2.23496C0.959675 2.24675 0.661617 2.28577 0.367188 2.34792V9.00275C0.581772 8.93879 0.753709 8.88707 0.88618 8.84488C1.07717 8.78409 1.99359 8.64572 3.34052 8.58493C4.30502 8.54138 4.95013 8.56134 5.34255 8.594C5.51041 10.2689 5.5476 14.3252 5.58389 18.2662C5.62472 22.7089 5.671 27.7451 5.88786 31.8013C6.00763 34.0424 6.16642 35.755 6.37238 37.0371C6.67452 38.9144 7.07782 39.8648 7.76422 40.318L7.91166 40.4151L8.08043 40.4677C8.36942 40.5575 8.47104 40.6006 8.4783 40.6038C8.3921 40.5666 8.30727 40.5149 8.22787 40.4509C8.46786 40.6324 8.76728 40.7422 9.09664 40.719L10.1283 40.6455L10.2254 39.8081L10.3451 39.4887C11.4153 36.6397 12.0904 32.1942 12.4084 25.8982C12.6693 20.7332 12.6298 15.5124 12.6012 11.7003C12.5912 10.386 12.5812 9.04404 12.593 8.12763C12.9415 7.6971 13.328 7.31195 13.7463 6.96807C13.8488 6.94175 13.9577 6.91499 14.0756 6.88731C14.9408 6.68452 15.8853 6.52756 16.5749 6.41278C17.2658 6.298 17.4936 6.25807 17.6873 6.19093C17.9912 6.08523 18.6377 6.12606 19.1572 6.15872C19.6349 6.18912 20.1294 6.22041 20.5916 6.17641L20.5998 6.17551V0.285554C20.1629 0.280564 19.7066 0.279655 19.2302 0.284192ZM9.49088 38.3232C9.47953 38.3182 9.46819 38.3132 9.45594 38.3083C9.54894 38.3436 9.63922 38.3913 9.72269 38.453C9.65374 38.4049 9.57662 38.3613 9.49088 38.3232Z" fill="#B46766"/>
</svg>
