<svg width="25" height="50" viewBox="0 0 25 50" fill="none" xmlns="http://www.w3.org/2000/svg">
<path d="M23.049 44.29C21.3364 43.9398 19.6592 43.4992 19.5145 43.0973C19.3653 42.6826 17.9884 36.2351 17.7452 33.2527C17.4635 29.7944 15.7945 5.44296 15.2047 2.31266C14.6149 -0.81764 11.3032 -0.182507 10.2597 2.08583C7.35625 6.89469 9.53385 37.6987 5.45085 41.9631C5.35377 42.0648 5.24262 42.2358 5.08293 42.4327C3.56587 42.4245 2.05425 42.3669 0.640625 42.2848V46.4127C1.0766 46.4744 1.50441 46.527 1.91815 46.5692C9.75297 47.3704 14.4398 43.4003 13.7666 42.591C13.0861 42.9294 12.3665 42.9299 11.6057 42.8224C12.0372 42.5202 12.2726 42.2027 12.2105 41.8724C12.1978 41.8057 12.3865 35.7515 12.6628 30.1778C13.7266 33.661 14.5609 40.3313 14.8871 41.2373C14.9765 41.485 15.3027 41.8157 15.7935 42.1954C15.1144 41.8057 14.4716 41.3534 13.8773 40.8299C13.0811 41.8579 16.0558 48.6906 24.1401 49.0267V44.3689C23.7785 44.3499 23.4142 44.324 23.049 44.29ZM13.3714 21.2274C13.4082 21.0827 13.4449 20.9974 13.4821 20.9815C13.5193 20.9652 13.4717 21.0541 13.3714 21.2274Z" fill="#B46766"/>
</svg>
