<svg width="26" height="42" viewBox="0 0 26 42" fill="none" xmlns="http://www.w3.org/2000/svg">
<path d="M12.9953 10.7445C13.1913 10.5658 13.3914 10.3938 13.5955 10.2273C13.4485 11.2622 13.3192 12.6368 13.2013 14.4143C12.9644 17.9837 12.8175 22.5213 12.6755 26.9092C12.5643 30.3453 12.4504 33.8535 12.3003 36.3682C12.2762 35.9113 12.254 35.3896 12.234 34.793C12.1483 32.2217 12.1265 29.0038 12.1038 25.5972C12.0612 19.2776 12.0167 12.7429 11.5558 9.3123C11.4914 8.83277 11.221 8.41086 10.7941 8.12369C10.6471 8.02479 10.4702 7.92906 10.2347 7.84695C9.76747 6.6479 7.60936 5.3672 0.601562 5.28372V11.1737L0.691388 11.1651L0.786662 11.1406C1.53068 10.9487 3.4388 10.5671 5.35282 10.3213C7.63658 10.0273 8.6959 10.0808 9.14503 10.1475C9.52748 13.5491 9.56921 19.6782 9.60913 25.6144C9.63409 29.2873 9.65723 32.7565 9.76112 35.4441C9.81783 36.9094 9.89357 38.0186 9.99338 38.8357C10.1517 40.1323 10.3767 40.7565 10.8231 41.1394C11.1779 41.4434 12.1193 42.2505 13.145 41.9206C14.0564 41.6271 14.2724 40.7416 14.3763 40.316L14.389 40.2638C14.7732 38.7069 14.9356 34.2051 15.1697 26.9895C15.3004 22.9596 15.4356 18.7926 15.6402 15.3919C15.8902 11.2418 16.1642 9.78457 16.3116 9.28009C17.4725 8.84911 18.702 8.39634 19.8947 7.95719C21.4866 7.37105 23.1212 6.76857 24.6868 6.1847C24.7943 6.17427 24.9013 6.1652 25.0088 6.15613V0.0234375C15.5109 1.00518 12.0172 9.43751 12.9953 10.7445Z" fill="#B46766"/>
</svg>
