<svg width="27" height="42" viewBox="0 0 27 42" fill="none" xmlns="http://www.w3.org/2000/svg">
<path d="M17.9853 4.57085C17.3814 5.05128 16.9745 5.46775 16.7472 5.72271C15.9347 6.63322 15.6144 7.40581 15.7682 8.08449C15.9606 8.93239 16.0459 14.7221 15.8553 22.9438C15.6702 30.9279 15.31 37.2297 14.9584 38.6247C14.9108 38.8144 14.8636 38.9664 14.8209 39.087C14.7801 39.0371 14.7352 38.9795 14.6857 38.9137C14.5614 38.3734 14.233 35.8166 13.9662 23.7976C13.8524 18.6794 13.7861 13.4563 13.7575 10.2952C13.9835 10.3501 14.1042 10.3832 14.1042 10.3832C14.1042 10.3832 14.0093 10.0175 13.7503 9.4482C13.744 8.6434 13.7412 8.03277 13.7412 7.67211C13.7412 7.12952 13.4645 6.62687 12.9822 6.29297C12.5172 5.97087 11.8218 5.77216 10.781 5.67009C8.87429 4.14169 5.94315 2.85238 1.49949 2.93494C0.986388 2.94447 0.489607 2.97532 0.0078125 3.02522V9.15786C4.37935 8.78222 8.59392 9.30168 11.2574 9.77576C11.2837 12.9886 11.3554 18.8168 11.4842 24.4346C11.5813 28.6636 11.6947 32.0806 11.8213 34.5908C11.8957 36.0652 11.9755 37.2402 12.059 38.0831C12.2001 39.5103 12.3417 39.9318 12.5694 40.248C12.9019 40.7098 13.9141 42.1152 15.334 41.844C16.7903 41.5659 17.2322 39.8106 17.3774 39.2336C17.9857 36.8173 18.2747 26.198 18.3491 23.001C18.3795 21.6835 18.6254 10.5152 18.2543 7.83724C18.2797 7.79459 18.3119 7.74605 18.3514 7.69206C20.8302 6.32653 23.7233 5.68007 26.5469 5.44008V0.296875C22.4925 0.721052 19.6897 2.61601 17.9853 4.57085Z" fill="#B46766"/>
</svg>
