<svg width="24" height="42" viewBox="0 0 24 42" fill="none" xmlns="http://www.w3.org/2000/svg">
<path d="M19.976 1.41972L17.5008 2.40099L15.1871 4.30638C15.6553 5.74722 11.5732 6.07704 11.5578 6.03031C11.4371 5.66375 9.24365 5.19239 9.24411 4.98688L7.98155 5.26724C6.44952 4.60852 4.47879 4.17391 1.95278 4.21883C1.46826 4.22745 1.00009 4.25648 0.546875 4.30411V9.44731C3.28838 9.21458 5.96454 9.3652 8.13307 9.61517C8.75142 14.5488 9.68416 21.89 9.56167 21.0017C9.38021 19.6861 10.469 38.9668 11.5124 40.5546C12.5559 42.1425 14.4177 41.3368 14.8696 40.101C15.1118 39.4382 17.1923 6.33472 16.8657 5.1688C17.274 5.01501 19.8331 3.68032 23.0941 1.92419V0.0859375C21.4754 0.836299 20.3417 1.31447 19.976 1.41972Z" fill="#B46766"/>
</svg>
