<svg width="21" height="49" viewBox="0 0 21 49" fill="none" xmlns="http://www.w3.org/2000/svg">
<path d="M19.446 43.1736C19.0295 43.1137 18.5577 43.0452 18.2964 42.8728C18.2932 42.8701 15.7481 41.1425 15.6574 36.5605C15.5667 31.9784 15.1584 5.2575 13.6159 2.35404C12.0076 -0.494533 9.49614 0.675472 9.48752 0.675472C6.85625 2.21794 6.72015 13.3328 6.72015 13.3328C6.22112 24.0846 6.49876 34.8828 6.35722 35.8346C6.06279 37.8144 4.72266 40.1653 4.36109 42.0045C4.34067 42.1088 4.28487 42.2177 4.20412 42.3229C2.93884 42.4118 1.55788 42.4441 0.140625 42.3688V47.0265C0.25631 47.0315 0.372446 47.0352 0.489946 47.0374C8.83832 47.1876 10.3949 41.3829 10.3949 41.3829C10.3949 41.3829 10.1916 41.436 9.82277 41.5181C10.0832 40.2896 10.0836 40.7088 10.3495 38.9195C10.4901 37.9741 11.2899 36.4534 11.2115 37.0595C11.0577 38.2458 12.1456 40.0237 12.1642 41.3693C12.1701 41.7844 12.3502 42.1573 12.6387 42.494C13.0524 44.6248 16.1995 47.8477 20.601 48.0745V43.3927C20.2281 43.311 19.8438 43.2307 19.446 43.1736Z" fill="#B46766"/>
</svg>
