<svg width="19" height="47" viewBox="0 0 19 47" fill="none" xmlns="http://www.w3.org/2000/svg">
<path d="M17.7125 42.0578C17.4326 42.0424 17.252 42.2688 16.753 41.3614C16.6133 41.2108 13.8754 38.9742 13.8949 36.5526C13.9289 32.3067 13.3959 15.2302 13.3051 14.0507C13.2144 12.8712 13.4571 8.2737 13.1237 6.83739C12.5017 4.15849 13.2598 0.712889 10.0387 0.758256C6.81771 0.803623 6.63624 6.29299 6.63624 8.96962C6.63624 11.6463 6.06825 18.1886 6.00111 19.2679C5.79741 22.5529 6.22249 30.9843 5.09377 36.5526C4.72993 38.3482 3.76589 39.6257 3.2791 40.4995C3.22104 41.2376 2.55914 41.6155 2.55732 41.6168C2.55642 41.6173 2.46931 41.679 2.13087 41.6608C1.75342 41.6409 1.27254 41.5356 0.763525 41.424C0.709538 41.4122 0.655549 41.4004 0.601562 41.3886V46.0705C0.677325 46.0746 0.753089 46.0777 0.829758 46.0796C5.26163 46.2016 7.44105 42.0946 7.12665 41.4127C7.66833 40.0426 9.73886 40.5026 11.6588 41.3514C12.4164 43.3807 14.5133 46.2415 18.2492 46.3908V42.0029C18.0568 42.0465 17.874 42.0664 17.7125 42.0578Z" fill="#B46766"/>
</svg>
