<svg width="21" height="44" viewBox="0 0 21 44" fill="none" xmlns="http://www.w3.org/2000/svg">
<path d="M16.6859 37.7105C16.2581 37.4215 15.9795 37.1489 15.8334 36.8767C15.524 36.3001 14.5963 35.5003 14.5963 35.5003C14.2787 25.7011 13.0992 3.56213 11.4206 1.70209C9.74205 -0.157939 8.51715 1.29379 7.51908 2.29186C6.52101 3.28993 5.27615 30.0898 5.16001 36.5437C5.14096 37.5994 2.79913 37.5944 2.16263 38.4146C2.02109 38.597 1.84098 38.7671 1.64046 38.9073C1.28433 38.8628 0.91233 38.7998 0.53125 38.7136V43.468C2.50969 43.3106 3.66245 42.0807 4.31528 40.9275C5.72981 39.7715 14.4829 39.8945 15.2314 40.4003C15.3308 40.4675 15.4319 40.5255 15.5345 40.5768C16.5185 42.0322 18.0219 43.2884 20.1151 43.3469C20.3238 43.3528 20.5248 43.3464 20.719 43.3296V38.4114C19.5177 38.8406 17.9752 38.582 16.6859 37.7105Z" fill="#B46766"/>
</svg>
