<svg width="26" height="42" viewBox="0 0 26 42" fill="none" xmlns="http://www.w3.org/2000/svg">
<path d="M24.1937 36.7066C23.5627 36.6232 18.1364 35.3134 17.8687 34.9518C17.6129 34.6062 16.6016 7.58486 15.2828 2.69615C12.6062 -1.70442 10.0153 2.01066 9.65735 3.37665C9.21956 5.04659 8.18883 26.2519 7.93341 31.6401C7.91663 31.9976 3.24975 35.1873 1.04539 36.2734C0.940137 36.3256 0.830806 36.3709 0.71875 36.4108V41.329C2.97801 41.1331 4.26643 39.4695 4.97415 37.9832C8.15344 37.5972 13.2318 37.2578 16.774 37.2029C18.0012 39.2091 20.6651 41.5826 25.0489 41.6634C25.1827 41.6657 25.3143 41.6661 25.444 41.6652V36.7897C25.1197 36.7974 24.7105 36.7751 24.1937 36.7066Z" fill="#B46766"/>
</svg>
