<svg width="25" height="43" viewBox="0 0 25 43" fill="none" xmlns="http://www.w3.org/2000/svg">
<path d="M18.4948 35.3645C16.6833 34.561 17.1165 28.5195 16.9523 25.7014C16.8335 23.663 17.6296 8.66527 15.3645 3.19949C13.1778 -2.07665 10.0248 2.20505 9.33072 3.51706C8.21061 5.63387 8.05319 26.3537 7.78825 30.6463C7.55325 34.4517 1.82707 37.2327 1.52947 37.5067C1.38203 37.6423 1.07445 37.7762 0.4375 37.792V42.6676C4.98052 42.6268 7.03108 40.3979 7.88262 38.9584C11.7651 38.8754 16.9977 38.8631 19.2846 38.3791C20.6719 39.8576 22.6277 41.2744 24.9809 41.7861V36.236C22.918 36.2119 19.394 35.7632 18.4948 35.3645Z" fill="#B46766"/>
</svg>
