<svg width="19" height="67" viewBox="0 0 19 67" fill="none" xmlns="http://www.w3.org/2000/svg">
<path d="M2.84375 27.0058C4.74868 26.9958 6.68309 26.8202 8.58484 26.6678C10.8881 26.4832 14.1222 26.5961 16.2254 25.4955C16.4178 25.3948 16.4813 25.0523 16.6582 24.9312C17.0606 26.2804 16.7163 28.4425 16.6369 29.824C16.4096 33.7731 16.2349 37.7296 16.273 41.6861C16.2944 43.87 16.416 46.0386 16.6124 48.213C16.8837 51.2159 17.8976 54.1475 18.1707 57.1811C18.3622 59.3084 18.33 61.471 17.9149 63.5715C17.7842 64.232 17.5941 65.9446 17.0211 66.1025C16.2653 66.3103 15.1253 65.148 14.7456 64.6359C13.4898 62.9428 13.1677 60.6499 12.5253 58.6882C11.8067 56.4925 10.9648 54.3393 10.1046 52.1957C8.42742 48.0143 6.66357 43.8437 5.5834 39.4572C4.95236 36.8944 4.67153 34.269 4.07905 31.6967C3.71703 30.1207 3.28925 28.56 2.84375 27.0058Z" fill="url(#paint0_linear_4_377)"/>
<path d="M0.650786 8.25564C0.650786 8.25564 -0.327761 3.02581 1.96095 1.39261C4.24965 -0.240583 5.22959 0.413599 5.22959 0.413599C6.17592 0.672189 7.12676 0.914443 8.07944 1.14717C9.64819 1.53007 11.3417 2.07897 12.9676 2.03678C13.2933 2.02816 13.62 1.99189 13.9439 2.02456C16.3669 2.26681 16.7602 4.84725 17.124 6.73767C17.5908 9.16161 17.9198 11.6182 18.1139 14.0789C18.2741 16.1109 18.3521 18.166 18.1806 20.2002C18.0563 21.6737 17.8504 23.3568 16.9852 24.6053C15.7762 26.3497 13.5606 27.1422 11.579 27.5981C9.06391 28.177 6.42088 28.3131 3.84863 28.2047C2.45001 28.1453 2.06033 25.0286 1.9823 24.0396C1.56766 18.7743 1.12622 13.5141 0.650786 8.25564Z" fill="url(#paint1_linear_4_377)"/>
<defs>
<linearGradient id="paint0_linear_4_377" x1="7.47186" y1="45.4916" x2="16.5535" y2="45.5281" gradientUnits="userSpaceOnUse">
<stop stop-color="#BFAB8D"/>
<stop offset="0.5078" stop-color="#E7E1D2"/>
<stop offset="1" stop-color="#CCBFA6"/>
</linearGradient>
<linearGradient id="paint1_linear_4_377" x1="-4.02055" y1="14.2245" x2="22.3065" y2="14.3306" gradientUnits="userSpaceOnUse">
<stop stop-color="#94938C"/>
<stop offset="0.2296" stop-color="#EDEBE1"/>
<stop offset="0.7988" stop-color="#EDEBE1"/>
<stop offset="1" stop-color="#94938C"/>
</linearGradient>
</defs>
</svg>
