<svg width="30" height="51" viewBox="0 0 30 51" fill="none" xmlns="http://www.w3.org/2000/svg">
<path d="M9.80549 1.09904C8.49264 1.18841 7.47919 1.57357 6.40133 2.31392C6.10963 2.51443 5.83336 2.75624 5.89098 3.04294C6.15953 4.38211 16.0345 3.30602 15.9397 2.13153C15.8807 1.43382 12.6693 1.24692 11.9503 1.16935C11.1387 1.0818 10.4374 1.05595 9.80549 1.09904Z" fill="#D8D6D0"/>
<path d="M19.9707 46.4668C20.6457 48.6308 19.0512 49.5137 17.5695 48.2316C14.7052 45.7527 13.0476 41.7763 11.5895 38.1338C10.9145 36.447 8.01618 30.5157 9.54179 29.0821C11.0552 27.6594 16.9875 30.3683 17.2915 34.1746C17.4561 36.2392 17.5256 38.3098 17.8808 40.3754C18.2664 42.6201 19.3084 44.3464 19.9707 46.4668Z" fill="url(#paint0_linear_4_426)"/>
<path d="M3.19524 21.1933C3.38305 21.9677 3.54956 22.7557 3.5863 22.9081C3.9016 24.2161 4.17513 25.5339 4.39471 26.8618C4.57391 27.9465 4.71727 29.0376 4.82388 30.1319C4.92732 31.1925 4.83704 32.3603 5.03937 33.4001C5.23853 34.4249 5.60377 35.5001 5.94901 36.49C6.98565 39.4629 8.55577 42.2294 10.4203 44.7581C11.3558 46.0266 12.3675 47.2383 13.4354 48.3974C14.0914 49.1097 15.486 51.2184 16.6451 50.3423C17.0802 50.0134 17.2549 49.4268 17.2268 48.8819C17.1986 48.3371 16.999 47.8181 16.8098 47.3064C15.3526 43.3581 13.9671 38.4694 14.7865 34.233C14.8718 33.7916 15.0051 33.3357 15.3218 33.0167C15.7369 32.5989 16.4015 32.5045 16.9695 32.6615C17.5375 32.818 18.022 33.1896 18.4448 33.5997C19.8961 35.0084 20.9273 36.9886 21.8143 38.7897C22.4857 40.1534 22.9788 41.6065 23.2624 43.1009C23.5337 44.5308 23.3032 46.2303 23.8775 47.5722C24.1992 48.3244 24.9164 48.9691 25.7339 48.9455C26.3704 48.9273 26.9339 48.5177 27.3535 48.0386C28.8996 46.2734 29.1959 43.4606 29.2861 41.21C29.3996 38.3737 28.9958 35.5473 28.5562 32.7532C27.9578 28.9492 27.1889 25.171 26.3301 21.4178C26.297 21.2722 25.8297 18.9045 25.7353 18.9072C25.7353 18.9072 2.86044 19.5419 2.65039 19.5478C2.76698 19.5455 2.99335 20.3617 3.19524 21.1933Z" fill="url(#paint1_linear_4_426)"/>
<path d="M21.0944 0.922828C19.9085 0.855226 18.9431 1.1143 17.8638 1.71636C17.5716 1.87924 17.2867 2.08522 17.2926 2.37423C17.3193 3.72626 26.3036 3.8374 26.4057 2.66821C26.4638 1.97314 23.6274 1.40784 22.9981 1.24587C22.2876 1.06393 21.6656 0.955494 21.0944 0.922828Z" fill="#D8D6D0"/>
<path d="M5.15065 1.97245C4.19749 2.06772 3.29969 2.43472 2.52618 3.24134C1.52947 4.2807 1.03042 5.72248 0.907017 7.15697C0.642527 10.2346 1.16926 13.8948 1.93823 16.8763C2.1823 17.8227 2.20681 19.8116 2.85647 20.542C4.87802 22.8144 9.31989 21.7088 12.0079 21.5224C15.0865 21.3087 18.401 21.2066 21.1593 20.542C22.9853 20.4503 26.3384 20.8546 26.8928 18.4397C27.5279 15.6719 27.919 12.8414 28.0496 10.0046C28.1476 7.88509 28.4571 2.64796 25.4102 2.2392C24.9642 2.17932 24.2116 2.68198 23.7647 2.7836C22.8324 2.99501 21.9228 2.96645 20.9973 2.72056C19.8591 2.41842 18.802 1.87403 17.711 1.4308C17.4737 1.33462 17.2269 1.24159 16.971 1.2484C16.388 1.26428 15.9598 1.76922 15.4934 2.11945C13.5304 3.59477 10.0117 2.82944 7.84453 2.26281C6.93493 2.02509 6.01988 1.8858 5.15065 1.97245Z" fill="url(#paint2_linear_4_426)"/>
<defs>
<linearGradient id="paint0_linear_4_426" x1="12.2167" y1="28.1685" x2="19.9787" y2="72.4608" gradientUnits="userSpaceOnUse">
<stop offset="0.1599" stop-color="#BFAB8D"/>
<stop offset="0.5078" stop-color="#E7E1D2"/>
<stop offset="0.7297" stop-color="#CCBFA6"/>
</linearGradient>
<linearGradient id="paint1_linear_4_426" x1="5.23698" y1="34.6737" x2="27.7641" y2="34.7551" gradientUnits="userSpaceOnUse">
<stop stop-color="#BFAB8D"/>
<stop offset="0.5078" stop-color="#E7E1D2"/>
<stop offset="1" stop-color="#CCBFA6"/>
</linearGradient>
<linearGradient id="paint2_linear_4_426" x1="-4.86798" y1="11.541" x2="33.9778" y2="11.6813" gradientUnits="userSpaceOnUse">
<stop stop-color="#94938C"/>
<stop offset="0.2296" stop-color="#EDEBE1"/>
<stop offset="0.7988" stop-color="#EDEBE1"/>
<stop offset="1" stop-color="#94938C"/>
</linearGradient>
</defs>
</svg>
