<svg width="27" height="48" viewBox="0 0 27 48" fill="none" xmlns="http://www.w3.org/2000/svg">
<path d="M15.5738 42.0086C15.7757 43.9657 14.5059 44.4108 13.6045 43.0471C11.8619 40.4108 11.1896 36.7366 10.618 33.3827C10.353 31.8293 9.04285 26.2687 10.3349 25.3442C11.6169 24.4273 15.5466 27.8366 15.2631 31.1111C15.1093 32.8877 14.8851 34.6511 14.8688 36.4644C14.8511 38.4356 15.3756 40.0914 15.5738 42.0086Z" fill="url(#paint0_linear_4_410)"/>
<path d="M3.94531 19.7473C4.6308 21.7058 5.18337 23.75 5.5023 25.8006C5.71688 27.1807 5.68513 28.4074 5.47554 29.7734C5.12304 32.069 5.09762 34.4648 5.19652 36.7803C5.35077 40.392 7.08331 43.1122 8.46834 46.361C8.97735 47.5546 10.1546 48.1811 11.2216 47.0827C12.5754 45.69 12.2102 42.7624 12.2641 40.9958C12.3376 38.5778 12.3866 36.1429 12.8703 33.7634C13.0785 32.739 13.3711 31.7178 13.906 30.8196C14.4377 29.9263 15.4203 29.4908 16.3616 30.1341C17.6151 30.9906 17.8977 32.867 18.3305 34.2026C18.7365 35.4552 19.1045 36.72 19.4597 37.988C19.9615 39.7791 20.4256 41.5806 20.9037 43.3776C21.102 44.1216 21.7489 45.8692 22.8427 45.1098C23.212 44.853 23.3943 44.4084 23.5481 43.986C24.0531 42.5968 24.4563 41.1737 24.8587 39.7519C25.3982 37.8469 25.8944 35.9474 26.0106 33.9635C26.1689 31.2587 25.1033 28.5861 24.5825 25.968C24.029 23.1856 23.6833 20.362 23.5508 17.5284C23.5422 17.3419 23.5277 17.1392 23.4016 17.0012C23.2315 16.8152 22.9398 16.8297 22.6898 16.8583C19.618 17.2104 16.5399 17.4966 13.4714 17.8804C11.3949 18.1386 9.31581 18.4117 7.25754 18.791C6.35067 18.9579 4.64804 19.0445 3.94531 19.7473Z" fill="url(#paint1_linear_4_410)"/>
<path d="M1.5456 15.5019C1.44307 14.2751 1.47119 13.0321 1.23756 11.8203C0.87282 9.92895 -0.0821448 8.28123 0.0530451 6.27736C0.378771 1.45301 7.12056 1.08007 10.5103 2.41614C11.9198 2.97143 12.4982 2.44697 13.6832 1.69842C14.967 0.88725 16.4818 0.462646 17.9993 0.462646C19.7345 0.462646 21.6494 0.956219 23.1315 1.8681C25.324 3.21732 25.3222 5.4308 25.4728 7.75405C25.6393 10.3237 25.5803 12.9708 24.7306 15.4279C24.4707 16.1801 24.1264 16.9191 23.5847 17.5021C22.8148 18.331 21.8341 18.4403 20.7938 18.6798C19.3739 19.0069 17.938 19.2836 16.5068 19.5545C13.7 20.0857 10.8669 20.5181 8.0111 20.6615C6.65693 20.7295 5.2547 20.5921 4.05205 19.9655C2.31046 19.0591 1.70029 17.3533 1.5456 15.5019Z" fill="url(#paint2_linear_4_410)"/>
<defs>
<linearGradient id="paint0_linear_4_410" x1="12.3855" y1="25.0785" x2="10.2759" y2="63.8836" gradientUnits="userSpaceOnUse">
<stop offset="0.1599" stop-color="#BFAB8D"/>
<stop offset="0.5078" stop-color="#E7E1D2"/>
<stop offset="0.7297" stop-color="#CCBFA6"/>
</linearGradient>
<linearGradient id="paint1_linear_4_410" x1="6.47212" y1="33.6388" x2="23.9661" y2="30.2346" gradientUnits="userSpaceOnUse">
<stop stop-color="#BFAB8D"/>
<stop offset="0.5078" stop-color="#E7E1D2"/>
<stop offset="1" stop-color="#CCBFA6"/>
</linearGradient>
<linearGradient id="paint2_linear_4_410" x1="-4.03236" y1="13.586" x2="29.2654" y2="7.10678" gradientUnits="userSpaceOnUse">
<stop stop-color="#94938C"/>
<stop offset="0.2114" stop-color="#EDEBE1"/>
<stop offset="0.847" stop-color="#EDEBE1"/>
<stop offset="1" stop-color="#94938C"/>
</linearGradient>
</defs>
</svg>
