<svg width="19" height="61" viewBox="0 0 19 61" fill="none" xmlns="http://www.w3.org/2000/svg">
<path d="M6.62781 34.7564C6.62781 34.7564 3.35958 36.0639 2.37875 43.5811C2.37875 43.5811 1.39838 51.4254 1.07129 53.7133C0.744647 56.0011 0.744649 58.9427 4.33951 59.923C7.93482 60.9034 11.203 60.2497 13.1642 59.5964C15.1255 58.9427 18.067 56.9815 18.7208 54.6936C19.3745 52.4058 18.7208 41.2933 17.7404 39.3321C16.76 37.3709 14.4722 32.1415 6.62781 34.7564Z" fill="url(#paint0_linear_77_4149)"/>
<path d="M9.89478 3.70577C9.89478 3.70577 2.72038 19.3908 5.65384 35.8978C5.65384 35.8978 16.0561 34.6647 16.5706 37.4883C15.1116 30.6212 14.4107 23.3944 14.6978 16.3843C14.814 13.5403 15.0149 10.7004 15.0948 7.85498C15.1465 6.00222 15.4686 3.88542 14.6733 2.15968C14.3394 1.43427 13.7873 0.368153 12.8813 0.283318C11.3438 0.139052 10.3557 2.64556 9.89478 3.70577Z" fill="url(#paint1_linear_77_4149)"/>
<path d="M10.7471 34.936C10.7471 34.936 7.87758 34.2519 5.60784 35.5076C5.60784 35.5076 5.33563 35.8252 4.92732 36.3695C4.51902 36.9139 4.06534 37.4583 3.74777 38.3202C3.5613 38.8261 3.61166 39.5451 3.61166 39.5451L4.20915 39.6789L5.10199 38.8424L5.75165 39.1164L5.22585 40.0827L7.13401 39.8967L8.31448 39.2307L9.92911 39.0946L9.79391 38.2948L11.3314 38.7199L12.0578 37.6647L12.9751 39.2643L14.1297 38.1914L15.4304 38.4922L16.0932 38.0785L16.8304 37.4987L16.6435 36.8209L15.9539 36.2375C15.2875 35.8696 13.1883 34.7854 10.7471 34.936Z" fill="black"/>
<defs>
<linearGradient id="paint0_linear_77_4149" x1="-3.53737" y1="47.8805" x2="22.4731" y2="46.5773" gradientUnits="userSpaceOnUse">
<stop stop-color="#94938C"/>
<stop offset="0.1599" stop-color="#D1CFC6"/>
<stop offset="0.2296" stop-color="#EDEBE1"/>
<stop offset="0.7988" stop-color="#EDEBE1"/>
<stop offset="0.9762" stop-color="#9F9E96"/>
<stop offset="1" stop-color="#94938C"/>
</linearGradient>
<linearGradient id="paint1_linear_77_4149" x1="13.9412" y1="18.8954" x2="4.96019" y2="19.056" gradientUnits="userSpaceOnUse">
<stop stop-color="#BFAB8D"/>
<stop offset="0.5078" stop-color="#E7E1D2"/>
<stop offset="1" stop-color="#CCBFA6"/>
</linearGradient>
</defs>
</svg>
