<svg width="20" height="70" viewBox="0 0 20 70" fill="none" xmlns="http://www.w3.org/2000/svg">
<path d="M3.94922 45.5057C3.94922 45.5057 16.0303 42.4775 17.0343 44.2046L12.1553 9.65201C12.1553 9.65201 8.73567 0.771484 7.42825 0.771484C6.12083 0.771484 4.81341 4.69344 4.81341 4.69344C4.81341 4.69344 4.24046 37.2363 3.94922 45.5057Z" fill="url(#paint0_linear_77_4154)"/>
<path d="M6.27253 42.0095C6.27208 42.0104 -0.91809 51.4883 0.389381 59.3322C0.811292 61.8632 1.67506 64.5085 3.20075 66.5958C3.94476 67.6138 4.91153 68.5352 6.13054 68.939C7.74288 69.473 9.81205 69.0538 11.4285 68.6931C12.2242 68.5157 13.0059 68.2712 13.7472 67.9301C18.9299 65.5465 20.2991 59.4011 19.8821 54.1931C19.5891 50.5347 18.4785 46.9857 17.0349 43.6331C16.0985 41.4582 13.9173 40.8884 11.7401 40.5804C10.1015 40.3486 7.38674 40.5409 6.27253 42.0095Z" fill="url(#paint1_linear_77_4154)"/>
<path d="M11.7521 40.5595C10.4818 40.4688 8.62174 40.1512 6.46722 41.7527C6.46722 41.7527 6.19501 42.0702 5.7867 42.6146C5.37839 43.159 4.92472 43.7034 4.60714 44.5654C4.42068 45.0712 4.47104 45.7903 4.47104 45.7903L5.06853 45.9241L5.96135 45.0875L6.61103 45.3616L6.08521 46.3279L7.99338 46.1419L9.17385 45.4759L10.7885 45.3398L10.6533 44.54L12.1908 44.9651L12.9172 43.9098L13.8345 45.5095L14.9891 44.4365L16.2898 44.7373L16.9526 44.3236L17.2425 44.0977L16.8342 43.145C16.8333 43.1454 15.563 40.6956 11.7521 40.5595Z" fill="black"/>
<defs>
<linearGradient id="paint0_linear_77_4154" x1="15.3029" y1="23.4349" x2="5.40965" y2="23.1302" gradientUnits="userSpaceOnUse">
<stop stop-color="#BFAB8D"/>
<stop offset="0.5078" stop-color="#E7E1D2"/>
<stop offset="1" stop-color="#CCBFA6"/>
</linearGradient>
<linearGradient id="paint1_linear_77_4154" x1="26.2316" y1="54.5412" x2="-6.72115" y2="55.1302" gradientUnits="userSpaceOnUse">
<stop stop-color="#94938C"/>
<stop offset="0.0617" stop-color="#A4A29B"/>
<stop offset="0.1809" stop-color="#CCCAC2"/>
<stop offset="0.2666" stop-color="#EDEBE1"/>
<stop offset="0.7117" stop-color="#EDEBE1"/>
<stop offset="0.7719" stop-color="#E0DED5"/>
<stop offset="0.883" stop-color="#BEBDB4"/>
<stop offset="1" stop-color="#94938C"/>
</linearGradient>
</defs>
</svg>
