<svg width="20" height="58" viewBox="0 0 20 58" fill="none" xmlns="http://www.w3.org/2000/svg">
<path d="M9.96875 56.2797C9.96875 56.2797 15.3143 57.1149 17.0553 54.2734C18.7959 51.4318 10.5181 54.5901 9.96875 56.2797Z" fill="#D8D6D0"/>
<path d="M15.3321 38.3583C15.3321 38.3583 15.0054 27.2458 14.0245 24.3042C13.0441 21.3626 12.0633 11.5576 12.3904 8.94265C12.7175 6.32772 12.717 2.40578 12.717 2.40578C12.717 2.40578 13.0437 -0.535779 10.102 1.75205C7.16026 4.03989 3.56479 15.1524 3.8919 19.7281C4.21855 24.3037 4.32199 38.0925 4.27026 38.0621C4.219 38.0317 15.3321 38.3583 15.3321 38.3583Z" fill="url(#paint0_linear_77_4163)"/>
<path d="M4.54682 37.0512C4.54682 37.0512 -2.97044 48.1639 2.58562 54.047C3.26431 54.7656 4.33177 55.271 5.15881 55.7968C6.01261 56.3399 6.92359 57.0939 7.9643 57.2114C9.1579 57.3466 10.0316 56.0976 11.2048 55.854C13.0699 55.4666 14.895 55.7732 16.4878 54.5012C17.803 53.4509 18.6005 51.8136 18.8714 50.1741C19.2089 48.1285 18.8596 46.0498 18.4522 44.0414C18.2784 43.1853 17.9826 42.3705 17.6365 41.5689C17.2676 40.7142 16.6026 39.8799 16.3131 39.0115C16.3131 39.0124 13.6982 31.1681 4.54682 37.0512Z" fill="url(#paint1_linear_77_4163)"/>
<path d="M10.567 34.8171C10.567 34.8171 7.34634 35.2595 5.07659 36.5152C5.07659 36.5152 4.80439 36.8328 4.39608 37.3772C3.98777 37.9216 3.53409 38.466 3.21652 39.3279C3.03005 39.8338 3.08041 40.5528 3.08041 40.5528L3.67792 40.6866L4.57075 39.8501L5.22043 40.1241L4.6946 41.0904L6.60277 40.9044L7.78324 40.2384L9.39787 40.1023L9.26268 39.3025L10.8002 39.7276L11.5265 38.6724L12.4439 40.272L13.5985 39.1991L14.8992 39.4999L15.562 39.0861L16.2992 38.5063L16.1123 37.8286L15.4227 37.2452C14.8316 36.1781 13.0082 34.6661 10.567 34.8171Z" fill="black"/>
<defs>
<linearGradient id="paint0_linear_77_4163" x1="14.4323" y1="19.6671" x2="1.53914" y2="19.27" gradientUnits="userSpaceOnUse">
<stop stop-color="#BFAB8D"/>
<stop offset="0.5078" stop-color="#E7E1D2"/>
<stop offset="1" stop-color="#CCBFA6"/>
</linearGradient>
<linearGradient id="paint1_linear_77_4163" x1="22.5831" y1="46.4476" x2="-4.14313" y2="45.6243" gradientUnits="userSpaceOnUse">
<stop stop-color="#94938C"/>
<stop offset="0.0311" stop-color="#A6A59D"/>
<stop offset="0.0939" stop-color="#C5C3BB"/>
<stop offset="0.1552" stop-color="#DBD9D0"/>
<stop offset="0.2138" stop-color="#E8E7DD"/>
<stop offset="0.2666" stop-color="#EDEBE1"/>
<stop offset="0.7117" stop-color="#EDEBE1"/>
<stop offset="0.7637" stop-color="#E7E5DB"/>
<stop offset="0.835" stop-color="#D5D3CA"/>
<stop offset="0.9175" stop-color="#B8B7AF"/>
<stop offset="1" stop-color="#94938C"/>
</linearGradient>
</defs>
</svg>
