<svg width="19" height="55" viewBox="0 0 19 55" fill="none" xmlns="http://www.w3.org/2000/svg">
<path d="M9.53906 54.2764C9.53906 54.2764 14.8379 55.3721 16.7156 52.6195C18.5937 49.8669 10.1706 52.6159 9.53906 54.2764Z" fill="#D8D6D0"/>
<path d="M8.76105 54.5119C8.76105 54.5119 3.11789 54.8934 1.71379 51.234C0.309699 47.5741 8.42851 52.3932 8.76105 54.5119Z" fill="#D8D6D0"/>
<path d="M6.50778 33.9802C6.42476 34.0211 6.34583 34.0673 6.27143 34.1195C4.8338 35.1235 3.6221 36.7513 2.70799 38.2234C1.31891 40.46 0.327205 43.0183 0.594407 45.6876C0.776775 47.5123 0.98139 49.6105 1.89323 51.2492C2.42582 52.2064 3.623 52.6451 4.5979 52.9845C5.43307 53.2753 6.27596 53.5484 7.09481 53.8837C7.85105 54.1931 8.59323 54.7207 9.44519 54.6526C10.4246 54.5741 11.1087 53.8065 11.8922 53.3084C13.1216 52.5272 14.5933 52.1266 16.0495 52.1969C16.3053 52.2092 16.5676 52.235 16.813 52.1602C17.1709 52.0513 17.4327 51.7473 17.6436 51.4388C18.6045 50.0352 18.579 48.6751 18.5872 47.0428C18.5958 45.3841 18.5636 43.7155 18.2474 42.0823C17.6845 39.172 15.7619 36.7644 14.7511 34.0174C14.6931 33.8591 14.635 33.6971 14.5284 33.5665C14.346 33.3428 14.0475 33.2462 13.7599 33.2231C13.2209 33.1795 12.6779 33.263 12.144 33.3202C11.1314 33.429 10.1429 33.542 9.12491 33.6119C8.3174 33.6677 7.25903 33.6087 6.50778 33.9802Z" fill="url(#paint0_linear_77_4175)"/>
<path d="M4.36317 35.8939C4.39947 35.9234 4.44303 35.9465 4.49612 35.9611C4.76289 36.0359 5.58499 35.6335 5.87581 35.5573C6.83993 35.3051 7.81495 35.0941 8.79586 34.9185C9.83529 34.7325 10.8851 34.5561 11.9436 34.5474C12.504 34.5429 13.0675 34.5819 13.616 34.7008C14.1033 34.8065 14.6282 35.1404 15.0896 35.1821C15.4258 33.8715 15.0846 32.3472 15.0066 31.0161C14.9199 29.5362 14.7838 28.0596 14.5991 26.5888C14.2525 23.8287 13.5638 21.1716 13.0611 18.4464C12.572 15.7956 12.4359 12.9933 12.4944 10.294C12.5221 9.02469 12.5988 7.75306 12.7444 6.49187C12.8683 5.41533 13.1786 4.45174 13.0684 3.33618C12.9563 2.20201 12.4241 0.484442 10.9264 0.948995C9.79899 1.29877 9.0971 2.53864 8.52815 3.48136C7.44426 5.27651 6.65528 7.23226 5.92845 9.1989C5.20252 11.1628 4.53331 13.1607 4.15447 15.224C3.82372 17.0237 3.8641 18.7853 3.8954 20.6022C3.9444 23.4866 4.01336 26.3706 4.0846 29.2545C4.13042 31.1155 4.02427 33.0567 4.17082 34.9439C4.19758 35.2964 4.14585 35.7161 4.36317 35.8939Z" fill="url(#paint1_linear_77_4175)"/>
<path d="M10.2819 32.8362C10.2819 32.8362 7.06119 33.2786 4.79144 34.5343C4.79144 34.5343 4.51923 34.8519 4.11092 35.3963C3.70261 35.9407 3.24893 36.4851 2.93136 37.347C2.7449 37.8529 2.79526 38.5719 2.79526 38.5719L3.39275 38.7058L4.28559 37.8692L4.93525 38.1432L4.40945 39.1095L6.31762 38.9235L7.49809 38.2575L9.11272 38.1214L8.97753 37.3216L10.515 37.7467L11.2414 36.6915L12.1587 38.2911L13.3133 37.2182L14.614 37.519L15.2769 37.1052L15.9374 36.6806L15.6198 35.9547L15.0754 35.0474C14.4838 33.9808 12.7231 32.6856 10.2819 32.8362Z" fill="black"/>
<defs>
<linearGradient id="paint0_linear_77_4175" x1="24.5367" y1="44.34" x2="-5.69867" y2="43.4087" gradientUnits="userSpaceOnUse">
<stop stop-color="#94938C"/>
<stop offset="0.2666" stop-color="#EDEBE1"/>
<stop offset="0.7117" stop-color="#EDEBE1"/>
<stop offset="1" stop-color="#94938C"/>
</linearGradient>
<linearGradient id="paint1_linear_77_4175" x1="17.9992" y1="19.4692" x2="3.6386" y2="17.961" gradientUnits="userSpaceOnUse">
<stop stop-color="#BFAB8D"/>
<stop offset="0.5078" stop-color="#E7E1D2"/>
<stop offset="1" stop-color="#CCBFA6"/>
</linearGradient>
</defs>
</svg>
