<svg width="26" height="51" viewBox="0 0 26 51" fill="none" xmlns="http://www.w3.org/2000/svg">
<path d="M14.7005 2.25136C14.7005 2.25136 15.6064 0.197139 17.4406 0.711598C19.2747 1.22606 19.9084 6.01997 19.5764 9.55404C19.2443 13.0881 17.6728 24.301 14.9704 24.5319C12.268 24.7628 7.32595 18.4119 9.57424 14.8738C11.823 11.3361 15.5429 5.12534 14.7005 2.25136Z" fill="url(#paint0_linear_77_4189)"/>
<path d="M2.87777 32.7019C6.07656 32.4714 9.70634 30.9076 12.911 30.7811C14.9212 30.7017 16.9323 30.5688 18.9447 30.6332C19.8752 30.6627 21.2594 33.1433 22.1612 33.0285C22.7465 32.9541 22.3604 30.5506 22.3364 29.9286C22.316 29.3992 22.271 28.8721 22.3486 28.3444C22.6272 26.4427 23.6733 24.6371 24.1084 22.7353C24.6119 20.5355 24.9522 18.293 25.1613 16.0465C25.3832 13.6634 25.4766 11.229 25.165 8.84905C25.0307 7.82286 24.8474 6.78079 24.44 5.8231C24.1229 5.07773 23.3539 3.61465 22.3713 3.7267C22.0106 3.76799 21.6876 3.97304 21.4177 4.21666C20.8887 4.69437 20.5203 5.33042 20.2767 6.00048C19.7745 7.3828 19.7854 8.87128 19.6888 10.3194C19.589 11.8124 19.182 13.1952 18.8472 14.6442C18.2257 17.3367 17.4916 20.5055 15.7278 22.7126C15.2986 23.2498 14.6535 23.6844 13.969 23.6195C13.6178 23.5859 13.2898 23.4244 13.0031 23.2189C11.9701 22.4781 11.4448 21.1997 11.2656 19.9412C10.8986 17.3625 11.1748 14.5181 11.864 12.0184C12.2682 10.5512 13.0149 9.23739 13.4713 7.80289C13.9535 6.28629 14.6077 3.27758 12.4696 2.70006C11.6067 2.46688 10.6881 2.90784 10.0429 3.52664C7.65123 5.81992 6.03573 9.22923 4.65251 12.1853C3.80416 13.9977 2.98528 15.8713 2.46311 17.8085C2.14918 18.9731 2.18276 20.1335 2.21588 21.3362C2.30933 24.6983 2.5044 29.3688 2.87777 32.7019Z" fill="url(#paint1_linear_77_4189)"/>
<path d="M21.8176 34.8693C22.0898 34.9523 22.48 35.6918 22.6311 35.9046C23.2294 36.7488 23.7475 37.6575 24.1354 38.6184C25.1806 41.2075 25.0291 44.0469 23.0684 46.1678C23.0452 46.1928 23.0216 46.2177 22.9985 46.2427C22.8928 46.3538 22.7826 46.4623 22.6964 46.5888C22.4546 46.9441 22.397 47.3891 22.1679 47.7534C21.9519 48.0977 21.6335 48.4198 21.3254 48.6798C20.6 49.2922 19.6337 49.7178 18.6688 49.6225C18.3371 49.5898 18.021 49.4719 17.7093 49.3548C16.356 48.8467 14.8862 48.2674 14.1689 46.9236C14.2506 47.077 13.8781 47.7008 13.7842 47.8278C13.5592 48.1336 13.2834 48.2665 12.9354 48.4008C11.7863 48.8449 10.5356 49.2015 9.43408 49.7522C8.67284 50.0453 8.03045 50.3239 7.25605 50.0698C6.80511 49.9219 6.34828 49.7922 5.90233 49.6288C5.0676 49.3235 3.67896 48.7891 3.67896 47.7062C3.67896 46.0317 2.2835 41.0088 5.63242 35.9858C8.97952 30.9646 21.8067 34.8661 21.8176 34.8693Z" fill="#D8D6D0"/>
<path d="M21.8357 30.7422C22.1547 30.8393 22.612 31.7058 22.7884 31.9549C23.4893 32.9439 24.0959 34.0082 24.5505 35.1333C25.7749 38.166 25.5971 41.4918 23.3011 43.9752C23.2738 44.0042 23.2462 44.0337 23.219 44.0628C23.0951 44.193 22.9663 44.32 22.8651 44.4683C22.5816 44.8848 22.5144 45.4051 22.2463 45.8325C21.9931 46.2354 21.6207 46.6128 21.2596 46.9177C20.4099 47.6349 19.278 48.133 18.1483 48.0219C17.76 47.9838 17.3898 47.8454 17.0246 47.7084C15.4395 47.1137 13.7183 46.4345 12.8777 44.8608C12.9734 45.04 12.537 45.7708 12.4272 45.9201C12.1636 46.278 11.8401 46.4336 11.4332 46.591C10.0872 47.1114 8.6223 47.5288 7.33208 48.1739C6.44063 48.5173 5.68846 48.8435 4.78113 48.5459C4.25306 48.3726 3.71773 48.2206 3.19556 48.0296C2.21791 47.6721 0.591528 47.0461 0.591528 45.7776C0.591528 43.8164 -1.04259 37.9333 2.87935 32.0501C6.79946 26.1688 21.8235 30.7382 21.8357 30.7422Z" fill="url(#paint2_linear_77_4189)"/>
<path d="M14.0601 27.1738C14.0601 27.1738 10.2037 27.2936 6.77683 28.9082L5.44447 29.5592C5.04163 29.7656 4.0899 29.7498 3.55369 30.1032C2.895 30.5373 2.68359 31.329 2.68359 31.329L3.24338 32.6042L4.07629 33.4902L5.45854 32.3484L6.37582 32.8229L5.51389 34.1961L8.30744 34.1254L10.0907 33.2666L12.4524 33.238L12.3358 32.0408L14.5287 32.8347L15.691 31.3516L16.8645 33.816L18.651 32.3524L20.5123 32.9368L21.5176 32.3955L22.6481 31.6166L22.4439 30.594L21.4999 29.6572C20.569 29.0411 17.6253 27.2119 14.0601 27.1738Z" fill="black"/>
<defs>
<linearGradient id="paint0_linear_77_4189" x1="11.1841" y1="23.5171" x2="29.7466" y2="-21.8479" gradientUnits="userSpaceOnUse">
<stop offset="0.1599" stop-color="#BFAB8D"/>
<stop offset="0.5078" stop-color="#E7E1D2"/>
<stop offset="0.7297" stop-color="#CCBFA6"/>
</linearGradient>
<linearGradient id="paint1_linear_77_4189" x1="24.0651" y1="17.5166" x2="3.15469" y2="18.4621" gradientUnits="userSpaceOnUse">
<stop offset="0.1599" stop-color="#BFAB8D"/>
<stop offset="0.5078" stop-color="#E7E1D2"/>
<stop offset="0.7297" stop-color="#CCBFA6"/>
</linearGradient>
<linearGradient id="paint2_linear_77_4189" x1="31.0918" y1="41.1816" x2="-3.73049" y2="37.5247" gradientUnits="userSpaceOnUse">
<stop stop-color="#94938C"/>
<stop offset="0.2296" stop-color="#EDEBE1"/>
<stop offset="0.7988" stop-color="#EDEBE1"/>
<stop offset="1" stop-color="#94938C"/>
</linearGradient>
</defs>
</svg>
