<svg width="24" height="42" viewBox="0 0 24 42" fill="none" xmlns="http://www.w3.org/2000/svg">
<path d="M13.7791 3.52701C14.2999 1.78764 16.0981 2.00676 16.706 3.57464C17.8813 6.60561 17.278 10.009 16.6737 13.0963C16.3939 14.5258 15.854 19.8137 13.8368 19.9861C11.8353 20.1572 8.17544 15.4535 9.84026 12.8331C10.7434 11.4118 11.731 10.034 12.4731 8.51737C13.2801 6.86873 13.2692 5.23144 13.7791 3.52701Z" fill="url(#paint0_linear_77_4203)"/>
<path d="M3.32177 26.8266C3.3871 26.8633 3.59578 26.397 3.78314 26.4174C4.02766 26.4437 4.33252 26.3584 4.57704 26.3335C5.42175 26.2482 6.26781 26.1742 7.11434 26.1103C9.46611 25.9329 11.8288 25.8249 14.1878 25.8725C15.8287 25.9057 17.4945 25.9928 19.1037 26.3362C20.0976 26.548 21.4055 26.8633 22.0134 27.7671C22.0134 27.7671 20.6438 22.2509 21.6246 18.0019C22.6054 13.7528 23.9124 2.31357 21.2975 1.98647C19.6539 1.78096 18.415 5.60357 17.9863 6.66697C16.8494 9.48697 15.9593 12.5011 15.1532 15.4636C15.1305 15.5462 15.1074 15.631 15.057 15.7004C14.6156 16.311 13.0836 16.5533 12.4916 16.145C11.9962 15.8029 11.8737 15.1356 11.7929 14.5385C11.6496 13.4792 11.5062 12.4199 11.3629 11.3606C11.0222 8.84367 10.6792 6.31038 10.74 3.76394C10.7568 3.06484 11.5534 -0.495546 9.85809 0.352359C7.01002 1.77642 5.38589 5.71517 4.59516 8.54197C3.52634 12.3614 3.48689 16.4485 3.33945 20.3872C3.27185 22.1928 3.18159 24.0234 3.29909 25.829C3.32222 26.1819 3.22786 26.774 3.32177 26.8266Z" fill="url(#paint1_linear_77_4203)"/>
<path d="M4.41722 25.6734C5.29419 25.066 6.46877 24.9934 7.4873 24.7897C9.0212 24.4826 10.5687 24.2267 12.1321 24.1323C15.5778 23.9236 19.3675 24.5556 21.6831 27.3588C22.4993 28.3465 23.0732 29.5292 23.3608 30.7768C23.6843 32.1814 23.4234 33.0887 22.9761 34.4152C22.566 35.6315 22.0306 36.9485 21.3692 38.05C20.6519 39.2441 19.5045 40.278 18.0618 40.2572C16.4988 40.2345 14.9713 39.6229 13.9274 38.4379C13.8725 38.3758 13.8162 38.31 13.7391 38.2787C13.647 38.2415 13.5431 38.261 13.4469 38.2832C11.3464 38.7646 9.23989 40.1383 7.30175 41.0669C6.37532 41.5106 5.84589 41.6458 4.90767 41.1532C3.73717 40.5384 2.62243 39.7826 1.75589 38.7841C-0.80697 35.8307 0.16985 31.6347 2.04357 28.5892C2.63517 27.6279 3.36785 26.5136 4.25435 25.7959C4.30698 25.7528 4.36141 25.712 4.41722 25.6734Z" fill="url(#paint2_linear_77_4203)"/>
<path d="M13.8222 22.6582C13.8222 22.6582 10.2169 22.7535 7.02307 24.3454L5.78142 24.9873C5.40624 25.191 4.51613 25.1692 4.01664 25.519C3.40374 25.9486 3.21094 26.7385 3.21094 26.7385L3.74218 28.0165L4.52657 28.907L5.81181 27.7747L6.67285 28.2551L5.87579 29.622L8.48707 29.5689L10.1488 28.7219L12.3573 28.7083L12.2407 27.5111L14.2963 28.3182L15.3737 26.8433L16.4866 29.3135L18.1479 27.8622L19.8923 28.4579L20.8286 27.9235L21.8806 27.1522L21.6833 26.1292L20.7946 25.1869C19.9199 24.5654 17.1562 22.719 13.8222 22.6582Z" fill="black"/>
<defs>
<linearGradient id="paint0_linear_77_4203" x1="11.103" y1="19.2685" x2="24.7914" y2="-14.183" gradientUnits="userSpaceOnUse">
<stop offset="0.1599" stop-color="#BFAB8D"/>
<stop offset="0.5078" stop-color="#E7E1D2"/>
<stop offset="0.7297" stop-color="#CCBFA6"/>
</linearGradient>
<linearGradient id="paint1_linear_77_4203" x1="22.1614" y1="16.2749" x2="4.47278" y2="12.9196" gradientUnits="userSpaceOnUse">
<stop offset="0.1599" stop-color="#BFAB8D"/>
<stop offset="0.5078" stop-color="#E7E1D2"/>
<stop offset="0.7297" stop-color="#CCBFA6"/>
</linearGradient>
<linearGradient id="paint2_linear_77_4203" x1="-5.05372" y1="32.7436" x2="28.2329" y2="32.8281" gradientUnits="userSpaceOnUse">
<stop stop-color="#94938C"/>
<stop offset="0.2296" stop-color="#EDEBE1"/>
<stop offset="0.7988" stop-color="#EDEBE1"/>
<stop offset="1" stop-color="#94938C"/>
</linearGradient>
</defs>
</svg>
