<svg width="25" height="40" viewBox="0 0 25 40" fill="none" xmlns="http://www.w3.org/2000/svg">
<path d="M9.38186 36.8892C9.08699 38.7424 10.2729 39.2333 11.2028 37.9816C13.0007 35.5622 13.8336 32.0981 14.554 28.9338C14.8874 27.4685 16.4271 22.2409 15.2449 21.2928C14.0718 20.3523 10.1504 23.3932 10.2493 26.5271C10.3028 28.227 10.4235 29.9182 10.3441 31.6462C10.2574 33.5239 9.67084 35.0732 9.38186 36.8892Z" fill="url(#paint0_linear_77_4325)"/>
<path d="M21.8495 13.5798C21.8495 13.5798 20.542 17.1751 20.542 21.0971C20.542 25.019 20.8687 29.9218 18.5808 33.5171C16.2929 37.1125 15.6392 38.7466 15.6392 38.7466C15.6392 38.7466 13.678 41.0344 12.6976 38.4199C12.6976 38.4199 14.9855 30.5756 13.678 26.6536C12.3705 22.7316 11.063 24.0387 10.7364 24.6924C10.4098 25.3461 5.83358 32.8634 5.17984 34.8246C4.5261 36.7858 3.54572 38.7466 2.89198 38.7466C2.23824 38.7466 1.25786 37.1125 0.604121 34.1709C-0.0496181 31.2293 0.604124 27.9611 1.9116 25.6728C3.21908 23.3845 4.52655 13.2527 4.52655 11.6186C4.527 9.98449 20.2154 12.9261 21.8495 13.5798Z" fill="url(#paint1_linear_77_4325)"/>
<path d="M14.2989 3.31101C14.6092 3.23752 14.9304 3.03473 15.3033 2.7893C16.3158 2.12198 17.3674 1.47824 18.5356 1.15387C19.7038 0.829511 21.019 0.857636 22.0588 1.48141C22.7901 1.9201 23.3318 2.6151 23.7777 3.34185C24.4755 4.47917 24.9904 5.80067 24.8302 7.12535C24.6479 8.63602 24.0486 10.1236 23.4339 11.5036C23.0609 12.3406 22.7502 13.2955 22.0783 13.9506C21.2944 14.7145 19.9765 14.8221 18.9435 14.9668C16.7214 15.2775 14.4903 14.999 12.3209 14.4841C10.1641 13.9719 7.93529 13.4039 5.83799 12.6899C5.461 12.5615 5.08445 12.4132 4.7687 12.1709C3.8836 11.4909 3.70168 9.94526 3.48891 8.92545C3.1659 7.37531 3.36325 5.77255 3.99747 4.32766C4.81407 2.46722 6.37558 0.824973 8.44883 0.506054C9.93277 0.277865 11.2502 0.582269 12.2487 1.73229C12.5795 2.11336 12.8426 2.55613 13.2001 2.91406C13.5943 3.30829 13.9396 3.3963 14.2989 3.31101Z" fill="url(#paint2_linear_77_4325)"/>
<path d="M13.706 14.7009C10.4749 14.225 7.72753 13.7473 6.82791 13.4134C5.92829 13.0794 5.56264 13.2691 4.66846 12.0927C4.13359 11.7638 4.22931 11.0715 4.22931 11.0715L4.71745 10.2585L5.42336 9.72092L6.5412 10.5648L7.30835 10.3057L6.62467 9.33984L8.92975 9.55851L10.3847 10.239L12.3341 10.4032L12.2134 11.1922L14.0403 10.7993L14.9694 11.8564L15.9888 10.2903L17.4337 11.3727L18.9826 11.0987L19.8014 11.5202L20.7187 12.1072C20.7187 12.1072 22.5112 13.1157 22.2245 13.7255C21.9377 14.3352 21.4215 14.4427 20.2737 14.8597C18.8968 15.552 16.937 15.1768 13.706 14.7009Z" fill="black"/>
<defs>
<linearGradient id="paint0_linear_77_4325" x1="13.2996" y1="20.9251" x2="13.2754" y2="57.9939" gradientUnits="userSpaceOnUse">
<stop offset="0.1599" stop-color="#BFAB8D"/>
<stop offset="0.5078" stop-color="#E7E1D2"/>
<stop offset="0.7297" stop-color="#CCBFA6"/>
</linearGradient>
<linearGradient id="paint1_linear_77_4325" x1="19.955" y1="25.3665" x2="3.19673" y2="25.4271" gradientUnits="userSpaceOnUse">
<stop stop-color="#BFAB8D"/>
<stop offset="0.5078" stop-color="#E7E1D2"/>
<stop offset="1" stop-color="#CCBFA6"/>
</linearGradient>
<linearGradient id="paint2_linear_77_4325" x1="31.2105" y1="7.70166" x2="-2.82925" y2="7.82462" gradientUnits="userSpaceOnUse">
<stop stop-color="#94938C"/>
<stop offset="0.2614" stop-color="#EDEBE1"/>
<stop offset="0.7687" stop-color="#EDEBE1"/>
<stop offset="1" stop-color="#94938C"/>
</linearGradient>
</defs>
</svg>
