<svg width="27" height="48" viewBox="0 0 27 48" fill="none" xmlns="http://www.w3.org/2000/svg">
<path d="M10.7909 42.0314C10.5891 43.9886 11.8589 44.4337 12.7599 43.0699C14.5024 40.434 15.1747 36.7592 15.7468 33.4051C16.0118 31.8517 17.322 26.291 16.0299 25.3664C14.7478 24.4495 10.8182 27.8589 11.1017 31.1336C11.2555 32.9102 11.4796 34.6736 11.4959 36.487C11.5136 38.4582 10.9892 40.1142 10.7909 42.0314Z" fill="url(#paint0_linear_77_4308)"/>
<path d="M22.4212 19.7692C21.7357 21.7277 21.1832 23.7719 20.8642 25.8225C20.6497 27.2026 20.6814 28.4293 20.891 29.7953C21.2435 32.0908 21.2689 34.4866 21.17 36.8022C21.0158 40.4138 19.2832 43.134 17.8982 46.3827C17.3892 47.5763 16.2123 48.2028 15.1449 47.1045C13.7911 45.7117 14.1563 42.7842 14.1023 41.0176C14.0288 38.5996 13.9798 36.1648 13.4962 33.7853C13.288 32.7609 12.9954 31.7397 12.4605 30.8414C11.9288 29.9482 10.9462 29.5126 10.0048 30.1559C8.75131 31.0125 8.46868 32.8888 8.03588 34.2244C7.62984 35.477 7.26191 36.7418 6.90669 38.0098C6.40493 39.8009 5.94082 41.6024 5.46266 43.3994C5.26486 44.1434 4.61747 45.8909 3.52368 45.1315C3.15439 44.8747 2.97203 44.4301 2.81823 44.0077C2.3133 42.6186 1.90998 41.1955 1.50758 39.7737C0.968168 37.8687 0.471859 35.9692 0.35572 33.9853C0.19739 31.2806 1.26306 28.608 1.78387 25.9899C2.33734 23.2076 2.68304 20.384 2.81551 17.5504C2.82413 17.3639 2.83865 17.1611 2.96431 17.0232C3.13444 16.8372 3.42615 16.8517 3.67612 16.8803C6.74791 17.2323 9.82604 17.5186 12.8947 17.9024C14.9711 18.1605 17.0503 18.4337 19.1086 18.8129C20.0159 18.9799 21.7185 19.0665 22.4212 19.7692Z" fill="url(#paint1_linear_77_4308)"/>
<path d="M24.8227 15.5234C24.9252 14.2967 24.897 13.0537 25.1307 11.8419C25.4954 9.95058 26.4504 8.30286 26.3152 6.29901C25.9895 1.47473 19.2476 1.10182 15.8578 2.43786C14.4482 2.99315 13.8698 2.46871 12.6848 1.72016C11.401 0.909006 9.88616 0.484375 8.36865 0.484375C6.63337 0.484375 4.71846 0.977963 3.23633 1.88983C1.04376 3.23904 1.04557 5.45247 0.894957 7.7757C0.728008 10.3453 0.787443 12.9924 1.63716 15.4495C1.89711 16.2016 2.24144 16.9407 2.78312 17.5236C3.55299 18.3525 4.53382 18.4618 5.57407 18.7013C6.99404 19.0284 8.4299 19.3052 9.86121 19.576C12.668 20.1072 15.5012 20.5396 18.357 20.683C19.7112 20.751 21.1135 20.6135 22.3162 19.987C24.0578 19.0802 24.668 17.3748 24.8227 15.5234Z" fill="url(#paint2_linear_77_4308)"/>
<path d="M13.9331 20.5294C9.29527 20.1583 6.03929 19.2591 4.85976 18.7601C3.68022 18.2611 3.31729 18.5786 2.18312 16.7186C1.4881 16.211 1.51578 15.0936 1.51578 15.0936L2.20081 13.7576L3.16258 12.8571L4.60843 14.1704L5.6387 13.7172L4.77492 12.1875L7.82493 12.4366L9.72535 13.47L12.3063 13.6474L12.1103 14.9272L14.5537 14.2099L15.7396 15.8762L17.1637 13.2999L19.0332 14.9834L21.102 14.4708L22.1699 15.1145L23.3612 16.0218C23.3612 16.0218 24.73 16.627 24.3217 17.625C23.9134 18.6231 23.9134 19.1675 22.3709 19.8933C20.5113 21.0738 18.571 20.9 13.9331 20.5294Z" fill="black"/>
<defs>
<linearGradient id="paint0_linear_77_4308" x1="13.9722" y1="25.1062" x2="16.0818" y2="63.9125" gradientUnits="userSpaceOnUse">
<stop offset="0.1599" stop-color="#BFAB8D"/>
<stop offset="0.5078" stop-color="#E7E1D2"/>
<stop offset="0.7297" stop-color="#CCBFA6"/>
</linearGradient>
<linearGradient id="paint1_linear_77_4308" x1="19.8945" y1="33.6605" x2="2.40027" y2="30.2563" gradientUnits="userSpaceOnUse">
<stop stop-color="#BFAB8D"/>
<stop offset="0.5078" stop-color="#E7E1D2"/>
<stop offset="1" stop-color="#CCBFA6"/>
</linearGradient>
<linearGradient id="paint2_linear_77_4308" x1="30.4007" y1="13.6075" x2="-2.89758" y2="7.12797" gradientUnits="userSpaceOnUse">
<stop stop-color="#94938C"/>
<stop offset="0.2114" stop-color="#EDEBE1"/>
<stop offset="0.847" stop-color="#EDEBE1"/>
<stop offset="1" stop-color="#94938C"/>
</linearGradient>
</defs>
</svg>
