<svg width="29" height="51" viewBox="0 0 29 51" fill="none" xmlns="http://www.w3.org/2000/svg">
<path d="M19.6624 1.13566C20.9753 1.22504 21.9887 1.6102 23.0666 2.35059C23.3583 2.55111 23.6346 2.79292 23.577 3.07963C23.3084 4.41886 13.4332 3.34276 13.528 2.16821C13.587 1.47047 16.7984 1.28356 17.5175 1.20598C18.3291 1.11843 19.0304 1.09256 19.6624 1.13566Z" fill="#D8D6D0"/>
<path d="M9.49951 46.5032C8.824 48.6672 10.4191 49.55 11.9008 48.2679C14.7653 45.7891 16.423 41.8128 17.8811 38.1703C18.5561 36.4836 21.4547 30.5524 19.9294 29.1188C18.416 27.6966 12.4833 30.4049 12.1793 34.2112C12.0142 36.2758 11.9453 38.3463 11.59 40.4119C11.2035 42.6566 10.1614 44.3832 9.49951 46.5032Z" fill="url(#paint0_linear_77_4291)"/>
<path d="M26.2737 21.2294C26.0858 22.0038 25.9194 22.7918 25.8826 22.9443C25.5673 24.2522 25.2937 25.5705 25.0742 26.898C24.895 27.9827 24.7516 29.0733 24.645 30.168C24.5416 31.2287 24.6318 32.3964 24.43 33.4362C24.2308 34.4611 23.8656 35.5362 23.5204 36.5261C22.4837 39.499 20.9136 42.2655 19.049 44.7942C18.1136 46.0627 17.1019 47.2745 16.034 48.4336C15.378 49.1458 13.9834 51.2545 12.8243 50.3785C12.3892 50.0495 12.2146 49.463 12.2427 48.9181C12.2708 48.3732 12.4705 47.8542 12.6596 47.3425C14.1168 43.3942 15.5023 38.5055 14.683 34.2696C14.5977 33.8282 14.4643 33.3723 14.1476 33.0533C13.7325 32.6355 13.0679 32.5416 12.4999 32.6981C11.932 32.8546 11.4474 33.2262 11.0246 33.6363C9.57336 35.0449 8.54218 37.0252 7.65526 38.8263C6.98384 40.19 6.49071 41.6431 6.20717 43.137C5.93588 44.567 6.16633 46.2664 5.59199 47.6084C5.27035 48.3601 4.55309 49.0052 3.73559 48.9816C3.0991 48.9635 2.53565 48.5538 2.11601 48.0747C0.569921 46.3095 0.273685 43.4968 0.183405 41.2461C0.0699893 38.4098 0.473744 35.5834 0.913345 32.7893C1.51173 28.9853 2.28069 25.2071 3.13948 21.454C3.1726 21.3083 3.63988 18.9406 3.73424 18.9434C3.73424 18.9434 26.6089 19.578 26.819 19.5839C26.7015 19.5817 26.4751 20.3978 26.2737 21.2294Z" fill="url(#paint1_linear_77_4291)"/>
<path d="M8.37437 0.959693C9.56024 0.892091 10.5256 1.15116 11.6049 1.75323C11.897 1.91611 12.1819 2.12209 12.176 2.4111C12.1493 3.76315 3.16545 3.87431 3.06338 2.7051C3.00531 2.01002 5.84159 1.4447 6.47081 1.28273C7.1817 1.10079 7.80366 0.99236 8.37437 0.959693Z" fill="#D8D6D0"/>
<path d="M24.3199 2.00956C25.273 2.10483 26.1708 2.47185 26.9443 3.27847C27.941 4.31782 28.4401 5.75958 28.5634 7.19407C28.8279 10.2718 28.3012 13.9319 27.5323 16.9134C27.2882 17.8598 27.2637 19.8487 26.614 20.5791C24.5925 22.8515 20.1507 21.7459 17.4627 21.5595C14.3841 21.3458 11.0696 21.2437 8.31136 20.5791C6.48535 20.4874 3.13232 20.8916 2.57794 18.4768C1.94281 15.709 1.55175 12.8785 1.42109 10.0417C1.3231 7.92221 1.0137 2.68508 4.06051 2.27632C4.50647 2.21644 5.2591 2.7191 5.70596 2.82072C6.63824 3.03213 7.54784 3.00354 8.47332 2.75766C9.61157 2.45551 10.6686 1.91112 11.7597 1.46788C11.9969 1.37171 12.2437 1.2787 12.4996 1.28551C13.0826 1.30139 13.5108 1.80632 13.9772 2.15655C15.9402 3.63187 19.4588 2.86654 21.626 2.29991C22.5356 2.06219 23.4511 1.92291 24.3199 2.00956Z" fill="url(#paint2_linear_77_4291)"/>
<path d="M16.0995 24.0997C16.0995 24.0997 11.3532 23.6851 7.23342 21.4888L5.63287 20.6069C5.14971 20.3283 3.97515 20.2811 3.33729 19.8152C2.55334 19.2431 2.34375 18.2691 2.34375 18.2691L3.11635 16.7629L4.20062 15.7476L5.83067 17.2279L6.99206 16.7166L6.01849 14.9922L9.45732 15.273L11.6 16.4381L14.5098 16.6377L14.2889 18.0808L17.0436 17.2724L18.3806 19.151L19.9861 16.2466L22.0939 18.1448L24.4262 17.5668L25.6302 18.2927L26.9736 19.3157L26.656 20.5406L25.4315 21.6099C24.2438 22.2918 20.4969 24.3025 16.0995 24.0997Z" fill="black"/>
<defs>
<linearGradient id="paint0_linear_77_4291" x1="17.2581" y1="28.2145" x2="9.4967" y2="72.5063" gradientUnits="userSpaceOnUse">
<stop offset="0.1599" stop-color="#BFAB8D"/>
<stop offset="0.5078" stop-color="#E7E1D2"/>
<stop offset="0.7297" stop-color="#CCBFA6"/>
</linearGradient>
<linearGradient id="paint1_linear_77_4291" x1="24.2317" y1="34.7098" x2="1.70477" y2="34.7912" gradientUnits="userSpaceOnUse">
<stop stop-color="#BFAB8D"/>
<stop offset="0.5078" stop-color="#E7E1D2"/>
<stop offset="1" stop-color="#CCBFA6"/>
</linearGradient>
<linearGradient id="paint2_linear_77_4291" x1="34.3386" y1="11.5781" x2="-4.50682" y2="11.7184" gradientUnits="userSpaceOnUse">
<stop stop-color="#94938C"/>
<stop offset="0.2296" stop-color="#EDEBE1"/>
<stop offset="0.7988" stop-color="#EDEBE1"/>
<stop offset="1" stop-color="#94938C"/>
</linearGradient>
</defs>
</svg>
