<svg width="25" height="42" viewBox="0 0 25 42" fill="none" xmlns="http://www.w3.org/2000/svg">
<path d="M10.6922 3.52701C10.1714 1.78764 8.3731 2.00676 7.76519 3.57464C6.58976 6.60561 7.19313 10.009 7.7974 13.0963C8.07731 14.5258 8.61717 19.8137 10.6346 19.9861C12.6361 20.1572 16.2963 15.4535 14.6313 12.8331C13.7281 11.4118 12.7405 10.034 11.9983 8.51737C11.1908 6.86873 11.2021 5.23144 10.6922 3.52701Z" fill="url(#paint0_linear_77_4209)"/>
<path d="M21.1525 26.8266C21.0872 26.8633 20.8785 26.397 20.6911 26.4174C20.4466 26.4437 20.1417 26.3584 19.8972 26.3335C19.0525 26.2482 18.2064 26.1742 17.3598 26.1103C15.008 25.9329 12.6453 25.8249 10.2863 25.8725C8.64537 25.9057 6.9795 25.9928 5.37034 26.3362C4.37636 26.548 3.06844 26.8633 2.46053 27.7671C2.46053 27.7671 3.83015 22.2509 2.84932 18.0019C1.8685 13.7528 0.56148 2.31357 3.17641 1.98647C4.82005 1.78096 6.05901 5.60357 6.48773 6.66697C7.62462 9.48697 8.51471 12.5011 9.32087 15.4636C9.34356 15.5462 9.3667 15.631 9.41706 15.7004C9.85847 16.311 11.391 16.5533 11.9825 16.145C12.4779 15.8029 12.6004 15.1356 12.6812 14.5385C12.8245 13.4792 12.9679 12.4199 13.1113 11.3606C13.452 8.84367 13.7949 6.31038 13.7341 3.76394C13.7174 3.06484 12.9207 -0.495546 14.6161 0.352359C17.4642 1.77642 19.0883 5.71517 19.8795 8.54197C20.9484 12.3614 20.9878 16.4485 21.1353 20.3872C21.2029 22.1928 21.2931 24.0234 21.1756 25.829C21.1521 26.1819 21.246 26.774 21.1525 26.8266Z" fill="url(#paint1_linear_77_4209)"/>
<path d="M20.0553 25.6734C19.1783 25.066 18.0038 24.9934 16.9853 24.7897C15.4515 24.4826 13.904 24.2267 12.3412 24.1323C8.89558 23.9236 5.10612 24.5556 2.79061 27.3588C1.97447 28.3465 1.40059 29.5292 1.11296 30.7768C0.789502 32.1814 1.05036 33.0887 1.49767 34.4152C1.90778 35.6315 2.4431 36.9485 3.10455 38.05C3.82179 39.2441 4.9691 40.278 6.41175 40.2572C7.97463 40.2345 9.50212 39.6229 10.546 38.4379C10.6009 38.3758 10.6571 38.31 10.7343 38.2787C10.8264 38.2415 10.9303 38.261 11.0264 38.2832C13.1274 38.7646 15.2333 40.1383 17.1713 41.0669C18.0977 41.5106 18.6271 41.6458 19.5653 41.1532C20.7358 40.5384 21.8504 39.7826 22.7169 38.7841C25.2797 35.8307 24.3029 31.6347 22.4293 28.5892C21.8377 27.6279 21.105 26.5136 20.2186 25.7959C20.165 25.7528 20.1106 25.712 20.0553 25.6734Z" fill="url(#paint2_linear_77_4209)"/>
<path d="M10.6488 22.6582C10.6488 22.6582 14.2541 22.7535 17.4479 24.3454L18.6896 24.9873C19.0648 25.191 19.9548 25.1692 20.4543 25.519C21.0672 25.9486 21.26 26.7385 21.26 26.7385L20.7284 28.0165L19.944 28.907L18.6587 27.7747L17.7977 28.2551L18.5948 29.622L15.9834 29.5689L14.3217 28.7219L12.1132 28.7083L12.2298 27.5111L10.1743 28.3182L9.09679 26.8433L7.98395 29.3135L6.32262 27.8622L4.57827 28.4579L3.64191 27.9235L2.58984 27.1522L2.78719 26.1292L3.67593 25.1869C4.5506 24.5654 7.31479 22.719 10.6488 22.6582Z" fill="black"/>
<defs>
<linearGradient id="paint0_linear_77_4209" x1="13.3594" y1="19.2541" x2="-0.32827" y2="-14.1981" gradientUnits="userSpaceOnUse">
<stop offset="0.1599" stop-color="#BFAB8D"/>
<stop offset="0.5078" stop-color="#E7E1D2"/>
<stop offset="0.7297" stop-color="#CCBFA6"/>
</linearGradient>
<linearGradient id="paint1_linear_77_4209" x1="2.31228" y1="16.2749" x2="20.0012" y2="12.9195" gradientUnits="userSpaceOnUse">
<stop offset="0.1599" stop-color="#BFAB8D"/>
<stop offset="0.5078" stop-color="#E7E1D2"/>
<stop offset="0.7297" stop-color="#CCBFA6"/>
</linearGradient>
<linearGradient id="paint2_linear_77_4209" x1="29.5263" y1="32.7424" x2="-3.7588" y2="32.8269" gradientUnits="userSpaceOnUse">
<stop stop-color="#94938C"/>
<stop offset="0.2296" stop-color="#EDEBE1"/>
<stop offset="0.7988" stop-color="#EDEBE1"/>
<stop offset="1" stop-color="#94938C"/>
</linearGradient>
</defs>
</svg>
