<svg width="20" height="51" viewBox="0 0 20 51" fill="none" xmlns="http://www.w3.org/2000/svg">
<path d="M16.0709 20.7446C15.268 26.0008 13.8521 31.2529 12.0088 36.2328C9.98278 41.7058 7.45135 47.1793 2.53002 50.609C2.41071 50.692 2.28278 50.7782 2.1376 50.7855C1.98971 50.7928 1.85044 50.7161 1.73203 50.6272C1.05426 50.1204 0.80474 49.1954 0.874604 48.3516C0.944469 47.5077 1.28108 46.7134 1.57506 45.9195C3.36884 41.077 3.80663 35.7478 4.31791 30.6463C4.64182 27.4167 5.40987 23.458 4.64862 20.2383C3.83112 16.7827 15.5642 20.1308 16.0709 20.7446Z" fill="url(#paint0_linear_77_4276)"/>
<path d="M5.93267 0.7628C6.65944 0.435246 7.41751 0.427526 8.43008 0.67614C8.7041 0.743284 8.99625 0.847633 9.14506 1.08717C9.84188 2.20685 4.12256 4.35682 3.43889 3.41726C3.03422 2.85833 4.55989 1.74274 4.87927 1.46554C5.23993 1.15205 5.5829 0.920225 5.93267 0.7628Z" fill="#D8D6D0"/>
<path d="M15.8704 0.949504C16.2079 1.05113 16.4647 1.16002 16.5727 1.25485C17.1189 1.73487 17.6864 2.24575 17.9309 2.93039C18.0289 3.20488 18.0394 3.57283 17.7898 3.72346C17.7055 3.77428 17.6047 3.7897 17.5068 3.79786C16.3622 3.89178 15.0379 3.1477 14.0698 2.61642C13.7114 2.41996 12.1703 1.71082 12.2406 1.15322C12.3477 0.307965 14.6437 0.580642 15.8704 0.949504Z" fill="#D8D6D0"/>
<path d="M17.8842 3.05609C17.8842 3.05609 20.1721 4.69025 18.8646 8.93941C18.2108 14.8227 16.2496 20.706 16.2496 20.706C16.2496 20.706 15.5959 21.6864 11.0201 21.6864C6.4444 21.6864 5.13692 21.0327 4.48318 19.7252C3.82944 18.4176 2.19531 5.9973 2.19531 5.9973C2.19531 5.9973 2.52196 3.05564 3.82944 2.72899C5.13692 2.40234 6.4444 2.07525 6.77104 2.07525C7.09768 2.07525 10.0393 0.113992 11.3468 0.441095C12.6547 0.767743 15.9234 3.38274 17.8842 3.05609Z" fill="url(#paint1_linear_77_4276)"/>
<path d="M9.00326 23.0087C6.02442 22.0074 5.84568 21.512 5.38203 21.1241C5.0953 20.8842 4.84442 20.5112 4.65705 20.2127C4.19612 19.4778 4.05955 17.63 4.09494 18.1C4.13033 18.57 4.02734 16.533 4.02734 16.533L4.56314 16.4908L4.98823 17.5438L5.69778 17.2943L5.19556 16.2363L7.21851 16.5539L8.43617 17.3342L10.1492 17.5805L9.95643 18.4198L11.6214 18.066L12.3319 19.2305L13.4066 17.5928L14.5726 18.8032L15.9776 18.5664L16.7153 19.202C16.576 19.6112 16.0842 21.3519 15.6297 21.7162C14.9932 22.2256 14.3158 23.0068 13.4448 23.1398C12.9062 23.2223 11.9821 24.0104 9.00326 23.0087Z" fill="black"/>
<defs>
<linearGradient id="paint0_linear_77_4276" x1="12.8426" y1="34.712" x2="2.47631" y2="34.7494" gradientUnits="userSpaceOnUse">
<stop stop-color="#BFAB8D"/>
<stop offset="0.5078" stop-color="#E7E1D2"/>
<stop offset="1" stop-color="#CCBFA6"/>
</linearGradient>
<linearGradient id="paint1_linear_77_4276" x1="22.9024" y1="11.0025" x2="-1.22987" y2="11.0897" gradientUnits="userSpaceOnUse">
<stop stop-color="#94938C"/>
<stop offset="0.2296" stop-color="#EDEBE1"/>
<stop offset="0.7988" stop-color="#EDEBE1"/>
<stop offset="1" stop-color="#94938C"/>
</linearGradient>
</defs>
</svg>
