<svg width="19" height="53" viewBox="0 0 19 53" fill="none" xmlns="http://www.w3.org/2000/svg">
<path d="M15.5167 21.6182C15.5167 21.6182 9.30694 47.1117 4.07708 51.3603C-1.15231 55.6093 1.46215 47.1113 1.46215 47.1113C1.46215 47.1113 3.42335 31.4232 3.42335 28.4816C3.42335 25.5401 2.38355 20.0312 2.38355 20.0312C2.38355 20.0312 12.4558 22.1998 15.5167 21.6182Z" fill="url(#paint0_linear_77_4264)"/>
<path d="M15.8448 2.33463C15.8448 2.33463 19.1131 3.96873 18.1327 8.54439C17.1523 13.1201 17.4789 15.735 17.4789 15.735C17.4789 15.735 16.8252 23.5793 11.2691 23.9059C5.71247 24.2326 2.11757 20.9644 1.79047 19.0032C1.46382 17.042 1.46382 11.486 1.13672 10.5056C0.810073 9.52522 -0.170771 3.315 3.09795 2.33463C6.36622 1.35426 8.32745 1.02716 8.32745 1.02716C8.32745 1.02716 11.5957 0.0467977 15.8448 2.33463Z" fill="url(#paint1_linear_77_4264)"/>
<path d="M7.45875 23.548C3.9201 22.3685 3.70506 21.7937 3.15248 21.3414C2.81087 21.062 2.51053 20.6283 2.28687 20.2817C1.7352 19.4275 1.56099 17.2876 1.60636 17.832C1.65173 18.3764 1.51562 16.0173 1.51562 16.0173L2.15077 15.972L2.66206 17.1937L3.50136 16.9097L2.89889 15.6816L5.29973 16.0627L6.74922 16.9746L8.78212 17.2712L8.55938 18.2416L10.531 17.8433L11.3812 19.1966L12.6447 17.3075L14.0352 18.7166L15.6997 18.4521L16.5785 19.1929C16.4161 19.6656 15.8449 21.6776 15.3082 22.0963C14.5574 22.682 13.7589 23.582 12.7273 23.7299C12.0876 23.8216 10.9974 24.7275 7.45875 23.548Z" fill="black"/>
<defs>
<linearGradient id="paint0_linear_77_4264" x1="2.2576" y1="36.2911" x2="13.814" y2="36.3328" gradientUnits="userSpaceOnUse">
<stop stop-color="#BFAB8D"/>
<stop offset="0.5078" stop-color="#E7E1D2"/>
<stop offset="1" stop-color="#CCBFA6"/>
</linearGradient>
<linearGradient id="paint1_linear_77_4264" x1="-2.53892" y1="12.3272" x2="21.6283" y2="12.4146" gradientUnits="userSpaceOnUse">
<stop stop-color="#94938C"/>
<stop offset="0.2296" stop-color="#EDEBE1"/>
<stop offset="0.4283" stop-color="#EDEBE1"/>
<stop offset="0.7988" stop-color="#EDEBE1"/>
<stop offset="1" stop-color="#94938C"/>
</linearGradient>
</defs>
</svg>
