<svg width="19" height="67" viewBox="0 0 19 67" fill="none" xmlns="http://www.w3.org/2000/svg">
<path d="M15.7676 27.393C13.8627 27.383 11.9283 27.2074 10.0265 27.055C7.72332 26.8704 4.48918 26.9833 2.38603 25.8827C2.19368 25.782 2.13016 25.4395 1.95324 25.3184C1.55084 26.6676 1.89518 28.8297 1.97457 30.2112C2.20185 34.1604 2.37651 38.1168 2.3384 42.0733C2.31708 44.2572 2.1955 46.4258 1.99907 48.6002C1.72778 51.603 0.713852 54.5346 0.440751 57.5683C0.249307 59.6956 0.281523 61.8582 0.696619 63.9587C0.827273 64.6193 1.01734 66.3319 1.59031 66.4897C2.3461 66.6975 3.48615 65.5352 3.86586 65.023C5.12159 63.3299 5.44368 61.0371 6.08606 59.0754C6.80465 56.8797 7.64666 54.7265 8.50679 52.583C10.184 48.4015 11.9478 44.2309 13.0279 39.8444C13.659 37.2816 13.9398 34.6562 14.5323 32.0839C14.8947 30.5079 15.3221 28.9473 15.7676 27.393Z" fill="url(#paint0_linear_77_4254)"/>
<path d="M17.9626 8.64328C17.9626 8.64328 18.9411 3.41348 16.6524 1.7803C14.3637 0.147117 13.3838 0.801294 13.3838 0.801294C12.4374 1.05988 11.4866 1.30213 10.5339 1.53486C8.96513 1.91775 7.27161 2.46669 5.64569 2.4245C5.31996 2.41588 4.99333 2.37958 4.66941 2.41225C2.24641 2.6545 1.85308 5.23493 1.48925 7.12533C1.02243 9.54925 0.693534 12.0058 0.499367 14.4665C0.339225 16.4984 0.261185 18.5535 0.432669 20.5877C0.556972 22.0612 0.762939 23.7443 1.62807 24.9928C2.83708 26.7371 5.05275 27.5297 7.03434 27.9856C9.54944 28.5645 12.1925 28.7006 14.7647 28.5922C16.1634 28.5327 16.5531 25.4156 16.6311 24.4266C17.0462 19.1623 17.4871 13.9021 17.9626 8.64328Z" fill="url(#paint1_linear_77_4254)"/>
<path d="M10.4795 28.8707C9.39162 28.7496 8.31325 28.4942 7.2544 28.2129C6.45912 28.0015 5.67201 27.7588 4.90668 27.4657C4.22483 27.2049 3.4155 26.9327 2.86293 26.4803C2.52133 26.2009 2.22735 25.813 2.0037 25.4664C1.45204 24.6121 0.936663 23.7969 0.626357 22.8646C0.423569 22.229 0.533829 21.3507 0.533829 21.3507L1.29779 21.2341L2.37252 22.3324L3.2118 22.0484L2.60934 20.8203L5.01013 21.2014L6.45957 22.1133L8.49245 22.41L8.26971 23.3804L10.2413 22.9821L11.0915 24.3354L12.3549 22.4463L13.7454 23.8554L15.4099 23.5909L16.2211 24.1516L16.6584 24.6493C16.496 25.122 15.8795 27.9961 15.3428 28.4148C14.592 29.0005 13.4696 28.7201 12.438 28.8685C11.7979 28.9606 11.1387 28.9442 10.4795 28.8707Z" fill="black"/>
<defs>
<linearGradient id="paint0_linear_77_4254" x1="11.1397" y1="45.8788" x2="2.05815" y2="45.9154" gradientUnits="userSpaceOnUse">
<stop stop-color="#BFAB8D"/>
<stop offset="0.5078" stop-color="#E7E1D2"/>
<stop offset="1" stop-color="#CCBFA6"/>
</linearGradient>
<linearGradient id="paint1_linear_77_4254" x1="22.6341" y1="14.6122" x2="-3.69307" y2="14.7182" gradientUnits="userSpaceOnUse">
<stop stop-color="#94938C"/>
<stop offset="0.2296" stop-color="#EDEBE1"/>
<stop offset="0.7988" stop-color="#EDEBE1"/>
<stop offset="1" stop-color="#94938C"/>
</linearGradient>
</defs>
</svg>
