<svg width="17" height="64" viewBox="0 0 17 64" fill="none" xmlns="http://www.w3.org/2000/svg">
<path d="M14.5022 23.1133C14.5022 23.1133 6.33109 27.0352 4.04321 23.767C4.13303 26.9785 4.18838 30.1918 4.23057 33.4042C4.31042 39.5129 4.34263 45.6274 4.16433 51.7347C4.10173 53.8796 4.05182 56.0273 3.84676 58.1645C3.74242 59.2533 3.5986 60.3389 3.39309 61.4132C3.29872 61.9077 3.01428 62.4902 3.24338 62.9416C3.54825 63.5418 4.33583 63.6779 4.88614 63.4071C5.66056 63.026 6.16957 62.0887 6.55384 61.3651C7.48069 59.6194 8.07865 57.6899 8.61943 55.7972C11.8872 44.3576 13.9986 26.6292 14.5022 23.1133Z" fill="url(#paint0_linear_77_4244)"/>
<path d="M15.7594 0.676239C14.9868 0.279734 13.7832 0.524714 12.9367 0.517455C11.3661 0.504299 9.79557 0.508838 8.22546 0.554205C6.47115 0.605016 4.03184 0.404499 2.40955 1.21565C0.851686 1.9946 0.686091 3.94037 0.733272 5.46877C0.92018 11.5062 1.30897 17.8607 3.74422 23.4739C4.45737 25.1176 5.4527 26.7761 7.01056 27.7434C9.42449 29.2423 12.1877 28.3735 13.5637 25.9736C14.6651 24.0528 15.0889 21.8384 15.3198 19.6663C15.4944 18.0217 15.3851 16.365 15.5017 14.7172C15.6246 12.9806 16.1368 11.2957 16.4167 9.57946C16.8591 6.86563 17.3944 4.03383 16.3832 1.38033C16.253 1.03872 16.0334 0.817329 15.7594 0.676239Z" fill="url(#paint1_linear_77_4244)"/>
<path d="M9.75143 28.5511C9.03512 28.5153 8.33514 28.347 7.65013 28.1514C7.13569 28.0049 6.62941 27.8262 6.14083 27.5971C5.70578 27.3929 5.1868 27.1874 4.85291 26.785C4.6465 26.5364 4.51948 26.1994 4.39654 25.8759C4.09395 25.0793 3.77277 24.2963 3.63758 23.404C3.55093 22.7947 3.69158 21.9237 3.69158 21.9237L4.21009 21.7509L4.84294 22.7475L5.42452 22.4046L5.11649 21.2441L6.68885 21.4351L7.58572 22.22L8.919 22.3561L8.69625 23.3264L10.0418 22.7843L10.5054 24.0486L11.4926 22.0961L12.3123 23.374L13.4428 22.9866L13.9409 23.4757L14.4789 24.1643C14.3347 24.6411 14.1909 25.0766 13.9677 25.5166C13.6846 26.0742 13.3498 26.5977 12.9597 27.05C12.4139 27.6828 11.7561 28.1746 11.0566 28.3987C10.6243 28.538 10.1856 28.5729 9.75143 28.5511Z" fill="black"/>
<defs>
<linearGradient id="paint0_linear_77_4244" x1="1.8628" y1="43.2994" x2="11.096" y2="43.3327" gradientUnits="userSpaceOnUse">
<stop stop-color="#BFAB8D"/>
<stop offset="0.5078" stop-color="#E7E1D2"/>
<stop offset="1" stop-color="#CCBFA6"/>
</linearGradient>
<linearGradient id="paint1_linear_77_4244" x1="-1.98736" y1="14.4161" x2="20.2053" y2="14.4963" gradientUnits="userSpaceOnUse">
<stop stop-color="#94938C"/>
<stop offset="0.2296" stop-color="#EDEBE1"/>
<stop offset="0.7988" stop-color="#EDEBE1"/>
<stop offset="1" stop-color="#94938C"/>
</linearGradient>
</defs>
</svg>
