<svg width="16" height="66" viewBox="0 0 16 66" fill="none" xmlns="http://www.w3.org/2000/svg">
<path d="M2.33904 24.7148C2.33859 32.2489 0.803806 39.7289 0.453569 47.2575C0.310662 50.3261 0.0743026 53.3938 0.118763 56.4678C0.153696 58.9044 -0.0327692 62.9679 1.48659 65.043C2.1299 65.9195 4.03353 62.0175 4.21546 61.6428C5.35463 59.2968 6.06236 56.8031 6.94249 54.3551C7.9129 51.6553 8.90236 48.9388 9.69766 46.1805C10.7588 42.5003 11.3636 38.6673 12.0395 34.9024C12.1452 34.3126 13.0689 26.7309 13.4518 26.6765C13.4486 26.6765 4.29983 27.9826 2.33904 24.7148Z" fill="url(#paint0_linear_77_4234)"/>
<path d="M14.9483 0.67422C14.7995 0.538573 14.5369 0.509992 14.0506 0.469162C13.3065 0.40701 12.5335 0.461454 11.7877 0.462815C8.74764 0.468713 5.70763 0.528595 2.66761 0.528595C2.66761 0.528595 -0.273976 1.18232 0.0526641 2.81643C0.379304 4.45053 1.36014 24.7149 2.34051 26.0223C3.32089 27.3298 5.60872 31.5788 10.5115 30.2714C15.4138 28.9639 14.4335 17.5252 14.4335 17.5247C14.3042 15.4528 14.825 13.1578 14.966 11.0868C15.1756 8.01182 15.3548 4.91009 15.1788 1.8288C15.1403 1.15329 15.1262 0.837085 14.9483 0.67422Z" fill="url(#paint1_linear_77_4234)"/>
<path d="M8.04666 30.6358C7.3217 30.4647 6.62307 30.1875 5.94121 29.8908C5.42947 29.6681 4.92726 29.4208 4.44728 29.1355C4.01992 28.881 3.50684 28.6092 3.19562 28.2114C3.00327 27.9655 2.89756 27.6625 2.79503 27.3712C2.54279 26.654 2.27058 25.9449 2.19437 25.1823C2.14809 24.6628 2.35089 23.9719 2.35089 23.9719L2.88893 23.932L3.46281 24.8792L4.07664 24.7114L3.84389 23.6934L5.42674 24.1616L6.28325 24.9863L7.62748 25.3619L7.33441 26.1182L8.73759 25.9367L9.12139 27.0713L10.2578 25.6559L11.0023 26.8722L12.1764 26.776L12.6486 27.2777L13.1472 27.9523C12.968 28.3171 12.7925 28.6478 12.5352 28.9667C12.2095 29.3705 11.8334 29.7361 11.4065 30.0319C10.809 30.4461 10.1077 30.7215 9.38225 30.7682C8.93357 30.7977 8.48626 30.7396 8.04666 30.6358Z" fill="black"/>
<defs>
<linearGradient id="paint0_linear_77_4234" x1="12.3711" y1="44.9053" x2="-3.93445" y2="44.9642" gradientUnits="userSpaceOnUse">
<stop stop-color="#BFAB8D"/>
<stop offset="0.5078" stop-color="#E7E1D2"/>
<stop offset="1" stop-color="#CCBFA6"/>
</linearGradient>
<linearGradient id="paint1_linear_77_4234" x1="17.5051" y1="15.4552" x2="-2.03788" y2="15.5258" gradientUnits="userSpaceOnUse">
<stop stop-color="#94938C"/>
<stop offset="0.2296" stop-color="#EDEBE1"/>
<stop offset="0.7988" stop-color="#EDEBE1"/>
<stop offset="1" stop-color="#94938C"/>
</linearGradient>
</defs>
</svg>
