<svg width="16" height="66" viewBox="0 0 16 66" fill="none" xmlns="http://www.w3.org/2000/svg">
<path d="M13.0424 24.7148C13.0429 32.2489 14.5777 39.7289 14.9279 47.2575C15.0708 50.3261 15.3072 53.3938 15.2627 56.4678C15.2278 58.9044 15.4142 62.9679 13.8949 65.043C13.2516 65.9195 11.348 62.0175 11.166 61.6428C10.0269 59.2968 9.31913 56.8031 8.43901 54.3551C7.4686 51.6553 6.47913 48.9388 5.68384 46.1805C4.6227 42.5003 4.01795 38.6673 3.34197 34.9024C3.23626 34.3126 2.31259 26.7309 1.92969 26.6765C1.93332 26.6765 11.0821 27.9826 13.0424 24.7148Z" fill="url(#paint0_linear_77_4229)"/>
<path d="M0.434717 0.67422C0.58352 0.538573 0.846195 0.509992 1.33253 0.469162C2.07654 0.40701 2.8496 0.461454 3.59543 0.462815C6.63545 0.468713 9.67546 0.528595 12.7155 0.528595C12.7155 0.528595 15.6571 1.18232 15.3304 2.81643C15.0038 4.45053 14.0229 24.7149 13.0426 26.0223C12.0622 27.3298 9.77437 31.5788 4.87159 30.2714C-0.030731 28.9639 0.949634 17.5252 0.949634 17.5247C1.07893 15.4528 0.558131 13.1578 0.41704 11.0868C0.207446 8.01182 0.0282507 4.91009 0.204273 1.8288C0.242381 1.15329 0.25688 0.837085 0.434717 0.67422Z" fill="url(#paint1_linear_77_4229)"/>
<path d="M7.33495 30.6358C8.05991 30.4647 8.75854 30.1875 9.4404 29.8908C9.95213 29.6681 10.4544 29.4208 10.9343 29.1355C11.3617 28.881 11.8748 28.6092 12.186 28.2114C12.3783 27.9655 12.484 27.6625 12.5866 27.3712C12.8388 26.654 13.111 25.9449 13.1872 25.1823C13.2335 24.6628 13.0307 23.9719 13.0307 23.9719L12.4927 23.932L11.9188 24.8792L11.305 24.7114L11.5377 23.6934L9.95487 24.1616L9.09833 24.9863L7.75413 25.3619L8.04719 26.1182L6.64402 25.9367L6.26022 27.0713L5.12377 25.6559L4.3793 26.8722L3.20522 26.776L2.73296 27.2777L2.23438 27.9523C2.41357 28.3171 2.58915 28.6478 2.84638 28.9667C3.17211 29.3705 3.5482 29.7361 3.9751 30.0319C4.57257 30.4461 5.27395 30.7215 5.99936 30.7682C6.44804 30.7977 6.89535 30.7396 7.33495 30.6358Z" fill="black"/>
<defs>
<linearGradient id="paint0_linear_77_4229" x1="3.01085" y1="44.9053" x2="19.3163" y2="44.9642" gradientUnits="userSpaceOnUse">
<stop stop-color="#BFAB8D"/>
<stop offset="0.5078" stop-color="#E7E1D2"/>
<stop offset="1" stop-color="#CCBFA6"/>
</linearGradient>
<linearGradient id="paint1_linear_77_4229" x1="-2.12207" y1="15.4552" x2="17.421" y2="15.5258" gradientUnits="userSpaceOnUse">
<stop stop-color="#94938C"/>
<stop offset="0.2296" stop-color="#EDEBE1"/>
<stop offset="0.7988" stop-color="#EDEBE1"/>
<stop offset="1" stop-color="#94938C"/>
</linearGradient>
</defs>
</svg>
