<svg width="17" height="64" viewBox="0 0 17 64" fill="none" xmlns="http://www.w3.org/2000/svg">
<path d="M3.18359 23.1133C3.18359 23.1133 11.3548 27.0352 13.6427 23.767C13.5528 26.9785 13.4975 30.1918 13.4553 33.4042C13.3755 39.5129 13.3432 45.6274 13.5215 51.7347C13.5842 53.8796 13.6341 56.0273 13.8391 58.1645C13.9435 59.2533 14.0873 60.3389 14.2928 61.4132C14.3872 61.9077 14.6716 62.4902 14.4425 62.9416C14.1376 63.5418 13.35 63.6779 12.7997 63.4071C12.0253 63.026 11.5163 62.0887 11.132 61.3651C10.2052 59.6194 9.60721 57.6899 9.06642 55.7972C5.79813 44.3576 3.68718 26.6292 3.18359 23.1133Z" fill="url(#paint0_linear_77_4239)"/>
<path d="M1.92755 0.676239C2.70015 0.279734 3.90375 0.524714 4.75031 0.517455C6.32092 0.504299 7.89154 0.508838 9.4617 0.554205C11.2161 0.605016 13.6554 0.404499 15.2778 1.21565C16.8357 1.9946 17.0013 3.94037 16.9541 5.46877C16.7672 11.5062 16.3784 17.8607 13.9431 23.4739C13.2299 25.1176 12.2345 26.7761 10.6766 27.7434C8.26264 29.2423 5.49933 28.3735 4.12334 25.9736C3.02182 24.0528 2.59807 21.8384 2.36715 19.6663C2.19249 18.0217 2.30183 16.365 2.18524 14.7172C2.06229 12.9806 1.5501 11.2957 1.27019 9.57946C0.827854 6.86563 0.292509 4.03383 1.30375 1.38033C1.4335 1.03872 1.65353 0.817329 1.92755 0.676239Z" fill="url(#paint1_linear_77_4239)"/>
<path d="M7.93524 28.5511C8.65159 28.5153 9.3516 28.347 10.0366 28.1514C10.5511 28.0049 11.0574 27.8262 11.5456 27.5971C11.9806 27.3929 12.4996 27.1874 12.8335 26.785C13.04 26.5364 13.167 26.1994 13.2899 25.8759C13.5925 25.0793 13.9137 24.2963 14.0489 23.404C14.1356 22.7947 13.995 21.9237 13.995 21.9237L13.4764 21.7509L12.8435 22.7475L12.2619 22.4046L12.57 21.2441L10.9975 21.4351L10.1006 22.22L8.76727 22.3561L8.99003 23.3264L7.64442 22.7843L7.18076 24.0486L6.19357 22.0961L5.37377 23.374L4.24322 22.9866L3.74508 23.4757L3.20703 24.1643C3.3513 24.6411 3.49512 25.0766 3.71832 25.5166C4.00142 26.0742 4.33624 26.5977 4.7264 27.05C5.27217 27.6828 5.92998 28.1746 6.62955 28.3987C7.06235 28.538 7.50062 28.5729 7.93524 28.5511Z" fill="black"/>
<defs>
<linearGradient id="paint0_linear_77_4239" x1="15.8229" y1="43.2994" x2="6.58968" y2="43.3327" gradientUnits="userSpaceOnUse">
<stop stop-color="#BFAB8D"/>
<stop offset="0.5078" stop-color="#E7E1D2"/>
<stop offset="1" stop-color="#CCBFA6"/>
</linearGradient>
<linearGradient id="paint1_linear_77_4239" x1="19.6747" y1="14.4161" x2="-2.51865" y2="14.4963" gradientUnits="userSpaceOnUse">
<stop stop-color="#94938C"/>
<stop offset="0.2296" stop-color="#EDEBE1"/>
<stop offset="0.7988" stop-color="#EDEBE1"/>
<stop offset="1" stop-color="#94938C"/>
</linearGradient>
</defs>
</svg>
