<svg width="19" height="67" viewBox="0 0 19 67" fill="none" xmlns="http://www.w3.org/2000/svg">
<path d="M3.20312 27.3481C5.10809 27.3381 7.04256 27.1625 8.94436 27.0101C11.2477 26.8254 14.4819 26.9384 16.5851 25.8378C16.7775 25.7371 16.841 25.3946 17.0179 25.2734C17.4203 26.6226 17.076 28.7848 16.9966 30.1662C16.7693 34.1154 16.5946 38.0719 16.6327 42.0283C16.654 44.2123 16.7756 46.3808 16.9721 48.5553C17.2434 51.5581 18.2573 54.4897 18.5304 57.5234C18.7219 59.6506 18.6897 61.8133 18.2746 63.9138C18.1439 64.5743 17.9538 66.2869 17.3808 66.4448C16.625 66.6526 15.4849 65.4903 15.1052 64.9781C13.8495 63.285 13.5273 60.9922 12.8849 59.0305C12.1663 56.8347 11.3243 54.6816 10.4642 52.538C8.78693 48.3566 7.02305 44.186 5.94286 39.7995C5.3118 37.2367 5.03097 34.6113 4.43847 32.039C4.07644 30.463 3.64863 28.9023 3.20312 27.3481Z" fill="url(#paint0_linear_77_4249)"/>
<path d="M1.00868 8.59844C1.00868 8.59844 0.0301695 3.36859 2.31885 1.73539C4.60754 0.10219 5.58742 0.756373 5.58742 0.756373C6.53374 1.01496 7.48459 1.25722 8.43727 1.48995C10.006 1.87284 11.6995 2.42178 13.3254 2.37959C13.6511 2.37097 13.9777 2.33468 14.3017 2.36734C16.7246 2.6096 17.1179 5.19005 17.4818 7.08047C17.9486 9.50441 18.2775 11.961 18.4717 14.4217C18.6318 16.4537 18.7098 18.5088 18.5383 20.543C18.414 22.0165 18.2081 23.6996 17.343 24.9481C16.134 26.6925 13.9183 27.485 11.9368 27.9409C9.4217 28.5198 6.77872 28.6559 4.2065 28.5475C2.80789 28.4881 2.41819 25.3709 2.34016 24.3819C1.92507 19.1176 1.48411 13.8573 1.00868 8.59844Z" fill="url(#paint1_linear_77_4249)"/>
<path d="M8.49151 28.8258C9.57941 28.7047 10.6578 28.4493 11.7167 28.168C12.5119 27.9566 13.2991 27.7139 14.0644 27.4208C14.7463 27.16 15.5556 26.8877 16.1082 26.4354C16.4498 26.156 16.7438 25.7681 16.9675 25.4215C17.5191 24.5672 18.0345 23.752 18.3448 22.8197C18.5476 22.1841 18.4373 21.3057 18.4373 21.3057L17.6734 21.1891L16.5986 22.2875L15.7593 22.0035L16.3618 20.7754L13.961 21.1565L12.5115 22.0684L10.4786 22.3651L10.7013 23.3355L8.72969 22.9371L7.87952 24.2905L6.61604 22.4014L5.22554 23.8105L3.561 23.546L2.74985 24.1067L2.3125 24.6044C2.47491 25.0771 3.09145 27.9512 3.62815 28.3699C4.37897 28.9556 5.50137 28.6752 6.53302 28.8236C7.17315 28.9157 7.83187 28.8993 8.49151 28.8258Z" fill="black"/>
<defs>
<linearGradient id="paint0_linear_77_4249" x1="7.83131" y1="45.8339" x2="16.9131" y2="45.8704" gradientUnits="userSpaceOnUse">
<stop stop-color="#BFAB8D"/>
<stop offset="0.5078" stop-color="#E7E1D2"/>
<stop offset="1" stop-color="#CCBFA6"/>
</linearGradient>
<linearGradient id="paint1_linear_77_4249" x1="-3.66266" y1="14.5674" x2="22.6641" y2="14.6734" gradientUnits="userSpaceOnUse">
<stop stop-color="#94938C"/>
<stop offset="0.2296" stop-color="#EDEBE1"/>
<stop offset="0.7988" stop-color="#EDEBE1"/>
<stop offset="1" stop-color="#94938C"/>
</linearGradient>
</defs>
</svg>
