<svg width="19" height="53" viewBox="0 0 19 53" fill="none" xmlns="http://www.w3.org/2000/svg">
<path d="M3.625 21.6182C3.625 21.6182 9.83476 47.1117 15.0642 51.3603C20.2935 55.6093 17.6791 47.1113 17.6791 47.1113C17.6791 47.1113 15.7179 31.4232 15.7179 28.4816C15.7179 25.5401 16.7577 20.0312 16.7577 20.0312C16.7577 20.0312 6.68588 22.1998 3.625 21.6182Z" fill="url(#paint0_linear_77_4259)"/>
<path d="M3.29944 2.33463C3.29944 2.33463 0.0312077 3.96873 1.01158 8.54439C1.99196 13.1201 1.66533 15.735 1.66533 15.735C1.66533 15.735 2.31906 23.5793 7.87512 23.9059C13.4316 24.2326 17.0265 20.9644 17.3536 19.0032C17.6802 17.042 17.6802 11.486 18.0073 10.5056C18.334 9.52522 19.3148 3.315 16.0461 2.33463C12.7779 1.35426 10.8167 1.02716 10.8167 1.02716C10.8167 1.02716 7.54849 0.0467977 3.29944 2.33463Z" fill="url(#paint1_linear_77_4259)"/>
<path d="M11.686 23.548C15.2246 22.3685 15.4396 21.7937 15.9922 21.3414C16.3338 21.062 16.6341 20.6283 16.8578 20.2817C17.4095 19.4275 17.5837 17.2876 17.5383 17.832C17.4929 18.3764 17.629 16.0173 17.629 16.0173L16.9939 15.972L16.4826 17.1937L15.6433 16.9097L16.2458 15.6816L13.845 16.0627L12.3955 16.9746L10.3627 17.2712L10.5854 18.2416L8.61379 17.8433L7.76361 19.1966L6.50014 17.3075L5.10966 18.7166L3.44516 18.4521L2.56641 19.1929C2.72882 19.6656 3.29998 21.6776 3.83667 22.0963C4.58749 22.682 5.38595 23.582 6.41758 23.7299C7.05725 23.8216 8.14741 24.7275 11.686 23.548Z" fill="black"/>
<defs>
<linearGradient id="paint0_linear_77_4259" x1="16.8841" y1="36.2911" x2="5.32777" y2="36.3328" gradientUnits="userSpaceOnUse">
<stop stop-color="#BFAB8D"/>
<stop offset="0.5078" stop-color="#E7E1D2"/>
<stop offset="1" stop-color="#CCBFA6"/>
</linearGradient>
<linearGradient id="paint1_linear_77_4259" x1="21.683" y1="12.3272" x2="-2.48394" y2="12.4146" gradientUnits="userSpaceOnUse">
<stop stop-color="#94938C"/>
<stop offset="0.2296" stop-color="#EDEBE1"/>
<stop offset="0.4283" stop-color="#EDEBE1"/>
<stop offset="0.7988" stop-color="#EDEBE1"/>
<stop offset="1" stop-color="#94938C"/>
</linearGradient>
</defs>
</svg>
