<svg width="20" height="51" viewBox="0 0 20 51" fill="none" xmlns="http://www.w3.org/2000/svg">
<path d="M3.98438 20.7446C4.78734 26.0008 6.2032 31.2529 8.0464 36.2328C10.0724 41.7058 12.6038 47.1793 17.5251 50.609C17.6444 50.692 17.7723 50.7782 17.9175 50.7855C18.0654 50.7928 18.2046 50.7161 18.323 50.6272C19.0008 50.1204 19.2503 49.1954 19.1804 48.3516C19.1106 47.5077 18.774 46.7134 18.48 45.9195C16.6863 41.077 16.2485 35.7478 15.7372 30.6463C15.4133 27.4167 14.6453 23.458 15.4065 20.2383C16.224 16.7827 4.49065 20.1308 3.98438 20.7446Z" fill="url(#paint0_linear_77_4269)"/>
<path d="M14.1189 0.7628C13.3921 0.435246 12.634 0.427526 11.6214 0.67614C11.3474 0.743284 11.0552 0.847633 10.9064 1.08717C10.2095 2.20685 15.9291 4.35682 16.6128 3.41726C17.0175 2.85833 15.4918 1.74274 15.1724 1.46554C14.8117 1.15205 14.4692 0.920225 14.1189 0.7628Z" fill="#D8D6D0"/>
<path d="M4.18375 0.949504C3.84621 1.05113 3.58943 1.16002 3.48145 1.25485C2.93522 1.73487 2.36766 2.24575 2.12313 2.93039C2.02513 3.20488 2.01469 3.57283 2.26422 3.72346C2.3486 3.77428 2.44931 3.7897 2.5473 3.79786C3.69194 3.89178 5.01625 3.1477 5.98441 2.61642C6.34282 2.41996 7.88397 1.71082 7.81365 1.15322C7.70658 0.307965 5.41096 0.580642 4.18375 0.949504Z" fill="#D8D6D0"/>
<path d="M2.16909 3.05609C2.16909 3.05609 -0.118728 4.69025 1.18871 8.93941C1.84244 14.8227 3.80361 20.706 3.80361 20.706C3.80361 20.706 4.45733 21.6864 9.03292 21.6864C13.6085 21.6864 14.916 21.0327 15.5697 19.7252C16.2234 18.4176 17.8575 5.9973 17.8575 5.9973C17.8575 5.9973 17.5308 3.05564 16.2234 2.72899C14.916 2.40234 13.6085 2.07525 13.2819 2.07525C12.9553 2.07525 10.0137 0.113992 8.70628 0.441095C7.39838 0.767743 4.13025 3.38274 2.16909 3.05609Z" fill="url(#paint1_linear_77_4269)"/>
<path d="M11.0478 23.0087C14.0266 22.0074 14.2053 21.512 14.669 21.1241C14.9557 20.8842 15.2066 20.5112 15.3939 20.2127C15.8549 19.4778 15.9914 17.63 15.956 18.1C15.9206 18.57 16.0236 16.533 16.0236 16.533L15.4878 16.4908L15.0627 17.5438L14.3532 17.2943L14.8554 16.2363L12.8325 16.5539L11.6144 17.3342L9.90138 17.5805L10.0942 18.4198L8.42925 18.066L7.7188 19.2305L6.64407 17.5928L5.4786 18.8032L4.07359 18.5664L3.33594 19.202C3.47521 19.6112 3.96697 21.3519 4.42155 21.7162C5.05804 22.2256 5.73537 23.0068 6.60641 23.1398C7.14537 23.2223 8.06903 24.0104 11.0478 23.0087Z" fill="black"/>
<defs>
<linearGradient id="paint0_linear_77_4269" x1="7.21239" y1="34.712" x2="17.5785" y2="34.7494" gradientUnits="userSpaceOnUse">
<stop stop-color="#BFAB8D"/>
<stop offset="0.5078" stop-color="#E7E1D2"/>
<stop offset="1" stop-color="#CCBFA6"/>
</linearGradient>
<linearGradient id="paint1_linear_77_4269" x1="-2.84876" y1="11.0025" x2="21.2828" y2="11.0897" gradientUnits="userSpaceOnUse">
<stop stop-color="#94938C"/>
<stop offset="0.2296" stop-color="#EDEBE1"/>
<stop offset="0.7988" stop-color="#EDEBE1"/>
<stop offset="1" stop-color="#94938C"/>
</linearGradient>
</defs>
</svg>
