<svg width="26" height="51" viewBox="0 0 26 51" fill="none" xmlns="http://www.w3.org/2000/svg">
<path d="M10.7222 2.25136C10.7222 2.25136 9.8162 0.197139 7.98204 0.711598C6.14789 1.22606 5.51411 6.01997 5.8462 9.55404C6.17828 13.0881 7.74977 24.301 10.4522 24.5319C13.1547 24.7628 18.0969 18.4119 15.8486 14.8738C13.5997 11.3361 9.87971 5.12534 10.7222 2.25136Z" fill="url(#paint0_linear_77_4196)"/>
<path d="M22.5457 32.7019C19.3469 32.4714 15.7171 30.9076 12.5124 30.7811C10.5022 30.7017 8.49114 30.5688 6.47868 30.6332C5.54821 30.6627 4.16408 33.1433 3.2622 33.0285C2.67697 32.9541 3.06303 30.5506 3.08708 29.9286C3.10749 29.3992 3.1524 28.8721 3.07483 28.3444C2.79628 26.4427 1.75013 24.6371 1.31507 22.7353C0.8115 20.5355 0.471241 18.293 0.262102 16.0465C0.0402593 13.6634 -0.0531883 11.229 0.25848 8.84905C0.392765 7.82286 0.576045 6.78079 0.983436 5.8231C1.30055 5.07773 2.0695 3.61465 3.05214 3.7267C3.41281 3.76799 3.73582 3.97304 4.00575 4.21666C4.53472 4.69437 4.90311 5.33042 5.14673 6.00048C5.64893 7.3828 5.63804 8.87128 5.73467 10.3194C5.83448 11.8124 6.24142 13.1952 6.57623 14.6442C7.19775 17.3367 7.93178 20.5055 9.69563 22.7126C10.1248 23.2498 10.7699 23.6844 11.4545 23.6195C11.8056 23.5859 12.1336 23.4244 12.4203 23.2189C13.4533 22.4781 13.9787 21.1997 14.1579 19.9412C14.5249 17.3625 14.2486 14.5181 13.5595 12.0184C13.1553 10.5512 12.4085 9.23739 11.9522 7.80289C11.4699 6.28629 10.8157 3.27758 12.9538 2.70006C13.8167 2.46688 14.7354 2.90784 15.3805 3.52664C17.7722 5.81992 19.3877 9.22923 20.771 12.1853C21.6193 13.9977 22.4382 15.8713 22.9603 17.8085C23.2743 18.9731 23.2407 20.1335 23.2076 21.3362C23.1146 24.6983 22.9195 29.3688 22.5457 32.7019Z" fill="url(#paint1_linear_77_4196)"/>
<path d="M3.60694 34.8693C3.33474 34.9523 2.94458 35.6918 2.79351 35.9046C2.19512 36.7488 1.67703 37.6575 1.28914 38.6184C0.243891 41.2075 0.395417 44.0469 2.35617 46.1678C2.37931 46.1928 2.4029 46.2177 2.42604 46.2427C2.53175 46.3538 2.64198 46.4623 2.72818 46.5888C2.96999 46.9441 3.02761 47.3891 3.25671 47.7534C3.47311 48.0977 3.79113 48.4198 4.09917 48.6798C4.82458 49.2922 5.7909 49.7178 6.75585 49.6225C7.08749 49.5898 7.40369 49.4719 7.71536 49.3548C9.06865 48.8467 10.5381 48.2674 11.2558 46.9236C11.1741 47.077 11.5466 47.7008 11.6405 47.8278C11.8655 48.1336 12.1414 48.2665 12.4893 48.4008C13.6385 48.8449 14.8892 49.2015 15.9907 49.7522C16.752 50.0453 17.3944 50.3239 18.1688 50.0698C18.6198 49.9219 19.0766 49.7922 19.5225 49.6288C20.3573 49.3235 21.746 48.7891 21.746 47.7062C21.746 46.0317 23.1415 41.0088 19.7925 35.9858C16.4449 30.9646 3.61738 34.8661 3.60694 34.8693Z" fill="#D8D6D0"/>
<path d="M3.59023 30.7422C3.2713 30.8393 2.81401 31.7058 2.63753 31.9549C1.93662 32.9439 1.33006 34.0082 0.875485 35.1333C-0.348961 38.166 -0.171122 41.4918 2.12488 43.9752C2.1521 44.0042 2.17978 44.0337 2.207 44.0628C2.33085 44.193 2.4597 44.32 2.56086 44.4683C2.8444 44.8848 2.91154 45.4051 3.17966 45.8325C3.43281 46.2354 3.80527 46.6128 4.16638 46.9177C5.0161 47.6349 6.148 48.133 7.27763 48.0219C7.66597 47.9838 8.03616 47.8454 8.40137 47.7084C9.98648 47.1137 11.7077 46.4345 12.5483 44.8608C12.4526 45.04 12.889 45.7708 12.9988 45.9201C13.2624 46.278 13.5859 46.4336 13.9928 46.591C15.3388 47.1114 16.8037 47.5288 18.0939 48.1739C18.9854 48.5173 19.7376 48.8435 20.6449 48.5459C21.173 48.3726 21.7083 48.2206 22.2305 48.0296C23.2081 47.6721 24.835 47.0461 24.835 45.7776C24.835 43.8164 26.4691 37.9333 22.5471 32.0501C18.6266 26.1688 3.60248 30.7382 3.59023 30.7422Z" fill="url(#paint2_linear_77_4196)"/>
<path d="M11.3657 27.1738C11.3657 27.1738 15.2223 27.2936 18.6493 28.9082L19.9817 29.5592C20.3846 29.7656 21.3364 29.7498 21.8726 30.1032C22.5313 30.5373 22.7428 31.329 22.7428 31.329L22.1829 32.6042L21.35 33.4902L19.9677 32.3484L19.0504 32.8229L19.9123 34.1961L17.1186 34.1254L15.3353 33.2666L12.9735 33.238L13.0901 32.0408L10.8971 32.8347L9.73477 31.3516L8.56114 33.816L6.77459 32.3524L4.9132 32.9368L3.90788 32.3955L2.77734 31.6166L2.98149 30.594L3.92557 29.6572C4.85649 29.0411 7.79988 27.2119 11.3657 27.1738Z" fill="black"/>
<defs>
<linearGradient id="paint0_linear_77_4196" x1="14.2317" y1="23.506" x2="-4.33044" y2="-21.8593" gradientUnits="userSpaceOnUse">
<stop offset="0.1599" stop-color="#BFAB8D"/>
<stop offset="0.5078" stop-color="#E7E1D2"/>
<stop offset="0.7297" stop-color="#CCBFA6"/>
</linearGradient>
<linearGradient id="paint1_linear_77_4196" x1="1.3587" y1="17.5166" x2="22.2691" y2="18.4621" gradientUnits="userSpaceOnUse">
<stop offset="0.1599" stop-color="#BFAB8D"/>
<stop offset="0.5078" stop-color="#E7E1D2"/>
<stop offset="0.7297" stop-color="#CCBFA6"/>
</linearGradient>
<linearGradient id="paint2_linear_77_4196" x1="-5.66606" y1="41.1816" x2="29.1565" y2="37.5247" gradientUnits="userSpaceOnUse">
<stop stop-color="#94938C"/>
<stop offset="0.2296" stop-color="#EDEBE1"/>
<stop offset="0.7988" stop-color="#EDEBE1"/>
<stop offset="1" stop-color="#94938C"/>
</linearGradient>
</defs>
</svg>
