<svg width="29" height="50" viewBox="0 0 29 50" fill="none" xmlns="http://www.w3.org/2000/svg">
<path d="M9.14876 0.450114C7.8359 0.539478 6.82245 0.924605 5.74459 1.66492C5.45289 1.86542 5.17662 2.1072 5.23424 2.39389C5.5028 3.73298 15.3778 2.65699 15.283 1.48256C15.224 0.784888 12.0126 0.597998 11.2936 0.520428C10.4825 0.432879 9.78114 0.40702 9.14876 0.450114Z" fill="#D8D6D0"/>
<path d="M19.3136 45.8181C19.9891 47.9821 18.3939 48.8649 16.9121 47.5829C14.0474 45.104 12.3896 41.1275 10.9314 37.485C10.2563 35.7982 7.35758 29.8669 8.88293 28.4333C10.3965 27.011 16.3295 29.7194 16.6335 33.5258C16.7987 35.5904 16.8676 37.661 17.2229 39.7266C17.6094 41.9714 18.6512 43.698 19.3136 45.8181Z" fill="url(#paint0_linear_77_4283)"/>
<path d="M2.53706 20.5439C2.72487 21.3183 2.89138 22.1063 2.92812 22.2587C3.24342 23.5666 3.51698 24.885 3.73655 26.2124C3.91575 27.2971 4.05911 28.3878 4.16572 29.4825C4.26916 30.5431 4.17888 31.7109 4.38121 32.7507C4.57992 33.7755 4.94557 34.8507 5.29081 35.8406C6.32744 38.8135 7.8976 41.58 9.76217 44.1087C10.6976 45.3772 11.7093 46.5889 12.7773 47.748C13.4333 48.4603 14.8278 50.569 15.987 49.6929C16.422 49.364 16.5967 48.7774 16.5686 48.2326C16.5405 47.6877 16.3408 47.1687 16.1517 46.657C14.6945 42.7087 13.309 37.82 14.1283 33.5841C14.2136 33.1427 14.347 32.6867 14.6636 32.3678C15.0787 31.95 15.7434 31.8561 16.3114 32.0126C16.8793 32.1691 17.3639 32.5406 17.7867 32.9508C19.238 34.3594 20.2691 36.3397 21.1561 38.1407C21.8275 39.5044 22.3206 40.9575 22.6042 42.4515C22.8755 43.8814 22.645 45.5809 23.2194 46.9228C23.541 47.6745 24.2583 48.3197 25.0758 48.2961C25.7123 48.2779 26.2757 47.8683 26.6954 47.3892C28.2415 45.624 28.5377 42.8112 28.628 40.5606C28.7414 37.7242 28.3377 34.8979 27.898 32.1038C27.2997 28.2998 26.5307 24.5216 25.6719 20.7684C25.6388 20.6228 25.1715 18.2551 25.0771 18.2578C25.0771 18.2578 2.20224 18.8925 1.99219 18.8984C2.10923 18.8961 2.33517 19.7123 2.53706 20.5439Z" fill="url(#paint1_linear_77_4283)"/>
<path d="M20.4346 0.274144C19.2487 0.206555 18.2833 0.465571 17.2041 1.06752C16.9119 1.23037 16.627 1.43631 16.6329 1.72527C16.6597 3.07705 25.6435 3.18819 25.7456 2.01921C25.8037 1.32427 22.9674 0.759056 22.3381 0.597115C21.6273 0.415214 21.0053 0.306805 20.4346 0.274144Z" fill="#D8D6D0"/>
<path d="M4.49243 1.32401C3.53927 1.41928 2.64146 1.7863 1.86796 2.59292C0.871246 3.63227 0.372213 5.07403 0.248816 6.50852C-0.0156732 9.5862 0.511035 13.2464 1.28 16.2279C1.52408 17.1742 1.54859 19.1631 2.19824 19.8935C4.21979 22.1659 8.66164 21.0604 11.3496 20.8739C14.4282 20.6602 17.7427 20.5581 20.501 19.8935C22.3271 19.8019 25.6801 20.2061 26.2345 17.7912C26.8696 15.0234 27.2607 12.193 27.3913 9.3562C27.4893 7.23666 27.7987 1.99953 24.7519 1.59077C24.3059 1.53089 23.5533 2.03355 23.1064 2.13518C22.1742 2.34658 21.2645 2.318 20.3391 2.07211C19.2008 1.76997 18.1438 1.22557 17.0527 0.782336C16.8154 0.686159 16.5686 0.593156 16.3128 0.599961C15.7298 0.61584 15.3015 1.12077 14.8352 1.471C12.8721 2.94633 9.35349 2.181 7.18631 1.61437C6.27625 1.37664 5.36121 1.23736 4.49243 1.32401Z" fill="url(#paint2_linear_77_4283)"/>
<path d="M12.7099 23.4137C12.7099 23.4137 17.4561 22.999 21.5759 20.8029L23.1764 19.921C23.6596 19.6425 24.8341 19.5953 25.472 19.1294C26.2559 18.5573 26.4655 17.5834 26.4655 17.5834L25.6929 16.0772L24.6086 15.062L22.9786 16.5422L21.8172 16.031L22.7908 14.3066L19.352 14.5874L17.2093 15.7524L14.2995 15.952L14.5205 17.3951L11.7658 16.5867L10.4288 18.4652L8.82331 15.561L6.71558 17.4591L4.38327 16.8811L3.17924 17.6069L1.83594 18.6299L2.1535 19.8548L3.37796 20.924C4.56566 21.6059 8.31202 23.6165 12.7099 23.4137Z" fill="black"/>
<defs>
<linearGradient id="paint0_linear_77_4283" x1="11.5496" y1="27.5248" x2="19.3109" y2="71.8177" gradientUnits="userSpaceOnUse">
<stop offset="0.1599" stop-color="#BFAB8D"/>
<stop offset="0.5078" stop-color="#E7E1D2"/>
<stop offset="0.7297" stop-color="#CCBFA6"/>
</linearGradient>
<linearGradient id="paint1_linear_77_4283" x1="4.57898" y1="34.0243" x2="27.1061" y2="34.1057" gradientUnits="userSpaceOnUse">
<stop stop-color="#BFAB8D"/>
<stop offset="0.5078" stop-color="#E7E1D2"/>
<stop offset="1" stop-color="#CCBFA6"/>
</linearGradient>
<linearGradient id="paint2_linear_77_4283" x1="-5.52643" y1="10.8925" x2="33.3192" y2="11.0329" gradientUnits="userSpaceOnUse">
<stop stop-color="#94938C"/>
<stop offset="0.2296" stop-color="#EDEBE1"/>
<stop offset="0.7988" stop-color="#EDEBE1"/>
<stop offset="1" stop-color="#94938C"/>
</linearGradient>
</defs>
</svg>
