<svg width="27" height="48" viewBox="0 0 27 48" fill="none" xmlns="http://www.w3.org/2000/svg">
<path d="M15.8346 42.345C16.0364 44.302 14.7666 44.7471 13.8656 43.3834C12.1231 40.7477 11.4508 37.073 10.8787 33.7192C10.6138 32.1658 9.30359 26.6054 10.5956 25.6808C11.8777 24.764 15.8073 28.1732 15.5238 31.4477C15.37 33.2242 15.1459 34.9876 15.1296 36.8008C15.1119 38.772 15.6363 40.4278 15.8346 42.345Z" fill="url(#paint0_linear_77_4299)"/>
<path d="M4.20703 20.0837C4.89252 22.0422 5.44509 24.0864 5.76402 26.137C5.9786 27.517 5.94685 28.7437 5.73726 30.1097C5.38476 32.4053 5.35934 34.8011 5.45824 37.1166C5.61248 40.7282 7.34503 43.4484 8.73007 46.6971C9.23908 47.8907 10.4159 48.5172 11.4834 47.4189C12.8366 46.0262 12.4719 43.0987 12.5259 41.3321C12.5994 38.914 12.6484 36.4792 13.132 34.0997C13.3402 33.0753 13.6328 32.0541 14.1677 31.1559C14.6994 30.2626 15.682 29.8271 16.6234 30.4704C17.8768 31.3269 18.1594 33.2033 18.5922 34.5389C18.9983 35.7915 19.3662 37.0563 19.7214 38.3243C20.2232 40.1154 20.6873 41.9169 21.1655 43.7138C21.3637 44.4578 22.0106 46.2054 23.1044 45.4459C23.4737 45.1892 23.656 44.7446 23.8094 44.3222C24.3143 42.9331 24.7176 41.5099 25.12 40.0881C25.6594 38.1832 26.1557 36.2837 26.2719 34.2998C26.4302 31.595 25.3646 28.9225 24.8438 26.3044C24.2903 23.522 23.9446 20.6984 23.8121 17.8648C23.8035 17.6784 23.789 17.4756 23.6629 17.3376C23.4927 17.1516 23.201 17.1662 22.951 17.1947C19.8793 17.5468 16.8012 17.833 13.7326 18.2168C11.6562 18.475 9.57705 18.7481 7.51878 19.1274C6.61236 19.2943 4.91021 19.381 4.20703 20.0837Z" fill="url(#paint1_linear_77_4299)"/>
<path d="M1.80637 15.8379C1.70384 14.6112 1.73194 13.3681 1.4983 12.1564C1.13356 10.265 0.178595 8.61731 0.313788 6.61347C0.63952 1.78918 7.38144 1.41627 10.7712 2.75232C12.1808 3.30761 12.7592 2.78316 13.9442 2.03461C15.2281 1.22346 16.7428 0.798828 18.2604 0.798828C19.9956 0.798828 21.9105 1.29242 23.3927 2.20429C25.5852 3.55349 25.5834 5.76693 25.7341 8.09015C25.9006 10.6597 25.8416 13.3069 24.9918 15.7639C24.7319 16.5161 24.3876 17.2551 23.8459 17.8381C23.076 18.6669 22.0952 18.7763 21.055 19.0158C19.635 19.3429 18.1991 19.6196 16.7678 19.8905C13.961 20.4217 11.1278 20.8541 8.27199 20.9974C6.9178 21.0655 5.51554 20.928 4.31287 20.3015C2.57125 19.3946 1.96107 17.6893 1.80637 15.8379Z" fill="url(#paint2_linear_77_4299)"/>
<path d="M12.6953 20.8438C17.3333 20.4727 20.5893 19.5736 21.7689 19.0746C22.9484 18.5755 23.3114 18.8931 24.4456 17.0331C25.1406 16.5255 25.1129 15.4081 25.1129 15.4081L24.4279 14.0721L23.4661 13.1716L22.0202 14.4849L20.9899 14.0317L21.8537 12.502L18.8036 12.751L16.9032 13.7844L14.3222 13.9618L14.5182 15.2416L12.0747 14.5244L10.8887 16.1907L9.46467 13.6143L7.59506 15.2979L5.52631 14.7852L4.45835 15.429L3.26696 16.3363C3.26696 16.3363 1.89821 16.9415 2.30652 17.9395C2.71483 18.9376 2.71483 19.482 4.25734 20.2078C6.11696 21.3882 8.05735 21.2145 12.6953 20.8438Z" fill="black"/>
<defs>
<linearGradient id="paint0_linear_77_4299" x1="12.6429" y1="25.4146" x2="10.5334" y2="64.2189" gradientUnits="userSpaceOnUse">
<stop offset="0.1599" stop-color="#BFAB8D"/>
<stop offset="0.5078" stop-color="#E7E1D2"/>
<stop offset="0.7297" stop-color="#CCBFA6"/>
</linearGradient>
<linearGradient id="paint1_linear_77_4299" x1="6.7339" y1="33.9749" x2="24.2279" y2="30.5708" gradientUnits="userSpaceOnUse">
<stop stop-color="#BFAB8D"/>
<stop offset="0.5078" stop-color="#E7E1D2"/>
<stop offset="1" stop-color="#CCBFA6"/>
</linearGradient>
<linearGradient id="paint2_linear_77_4299" x1="-3.77162" y1="13.9219" x2="29.5267" y2="7.44242" gradientUnits="userSpaceOnUse">
<stop stop-color="#94938C"/>
<stop offset="0.2114" stop-color="#EDEBE1"/>
<stop offset="0.847" stop-color="#EDEBE1"/>
<stop offset="1" stop-color="#94938C"/>
</linearGradient>
</defs>
</svg>
