<svg width="25" height="40" viewBox="0 0 25 40" fill="none" xmlns="http://www.w3.org/2000/svg">
<path d="M15.5527 36.6609C15.8475 38.5141 14.6617 39.005 13.7317 37.7533C11.9344 35.3339 11.101 31.8697 10.3806 28.7054C10.0467 27.2401 8.50749 22.0124 9.6897 21.0643C10.8628 20.1238 14.7837 23.1647 14.6853 26.2987C14.6318 27.9986 14.5111 29.6898 14.5905 31.4179C14.6771 33.2956 15.2637 34.8449 15.5527 36.6609Z" fill="url(#paint0_linear_77_4317)"/>
<path d="M3.08594 13.3513C3.08594 13.3513 4.3934 16.9466 4.3934 20.8686C4.3934 24.7905 4.06633 29.6933 6.3546 33.2886C8.64241 36.8839 9.29613 38.5181 9.29613 38.5181C9.29613 38.5181 11.2573 40.8059 12.2377 38.1914C12.2377 38.1914 9.94983 30.347 11.2573 26.4251C12.5647 22.5031 13.8717 23.8101 14.1988 24.4639C14.5254 25.1176 19.1015 32.6349 19.7553 34.5961C20.409 36.5573 21.3893 38.5181 22.0431 38.5181C22.6968 38.5181 23.6772 36.8839 24.3309 33.9424C24.9846 31.0008 24.3309 27.7325 23.0234 25.4442C21.716 23.1559 20.4085 13.0242 20.4085 11.3901C20.4085 9.75598 4.72048 12.6976 3.08594 13.3513Z" fill="url(#paint1_linear_77_4317)"/>
<path d="M10.6349 3.08259C10.3246 3.00909 10.0034 2.8063 9.63048 2.56087C8.6179 1.89352 7.5663 1.24976 6.3981 0.925383C5.22945 0.601009 3.91472 0.629135 2.87491 1.25293C2.1436 1.69163 1.60189 2.38665 1.15594 3.11344C0.458197 4.25079 -0.056227 5.57234 0.103464 6.89705C0.285838 8.40778 0.885101 9.89536 1.49982 11.2754C1.87274 12.1125 2.18349 13.0674 2.85537 13.7225C3.63931 14.4865 4.95724 14.594 5.99024 14.7387C8.21231 15.0495 10.4434 14.771 12.6129 14.256C14.7696 13.7438 16.9985 13.1759 19.0958 12.4618C19.4728 12.3334 19.8493 12.185 20.1651 11.9428C21.0502 11.2627 21.2321 9.71707 21.4449 8.69721C21.7679 7.14702 21.5706 5.54421 20.9363 4.09927C20.1197 2.23877 18.5582 0.596471 16.4849 0.27754C15.001 0.049344 13.6835 0.353758 12.685 1.50381C12.3543 1.8849 12.0911 2.32768 11.7337 2.68563C11.3399 3.07987 10.9946 3.16788 10.6349 3.08259Z" fill="url(#paint2_linear_77_4317)"/>
<path d="M11.2255 14.4741C14.4566 13.9982 17.204 13.5205 18.1037 13.1866C19.0033 12.8527 19.369 13.0424 20.2632 11.866C20.798 11.5371 20.7023 10.8449 20.7023 10.8449L20.2142 10.0319L19.5083 9.49434L18.3904 10.3381L17.6232 10.0791L18.3069 9.11328L16.0018 9.33193L14.5468 10.0124L12.5974 10.1766L12.7181 10.9655L10.8911 10.5727L9.96202 11.6297L8.94258 10.0637L7.49764 11.1461L5.94881 10.8721L5.12989 11.2935L4.21257 11.8806C4.21257 11.8806 2.42012 12.889 2.70685 13.4987C2.99357 14.1084 3.50985 14.216 4.65765 14.6329C6.03456 15.3251 7.99441 14.95 11.2255 14.4741Z" fill="black"/>
<defs>
<linearGradient id="paint0_linear_77_4317" x1="11.6212" y1="20.698" x2="11.6454" y2="57.7674" gradientUnits="userSpaceOnUse">
<stop offset="0.1599" stop-color="#BFAB8D"/>
<stop offset="0.5078" stop-color="#E7E1D2"/>
<stop offset="0.7297" stop-color="#CCBFA6"/>
</linearGradient>
<linearGradient id="paint1_linear_77_4317" x1="4.98058" y1="25.138" x2="21.7386" y2="25.1985" gradientUnits="userSpaceOnUse">
<stop stop-color="#BFAB8D"/>
<stop offset="0.5078" stop-color="#E7E1D2"/>
<stop offset="1" stop-color="#CCBFA6"/>
</linearGradient>
<linearGradient id="paint2_linear_77_4317" x1="-6.27657" y1="7.47339" x2="27.7633" y2="7.59635" gradientUnits="userSpaceOnUse">
<stop stop-color="#94938C"/>
<stop offset="0.2614" stop-color="#EDEBE1"/>
<stop offset="0.7687" stop-color="#EDEBE1"/>
<stop offset="1" stop-color="#94938C"/>
</linearGradient>
</defs>
</svg>
