<svg width="19" height="55" viewBox="0 0 19 55" fill="none" xmlns="http://www.w3.org/2000/svg">
<path d="M9.2301 54.2312C9.2301 54.2312 3.93134 55.3268 2.05364 52.5745C0.175941 49.8221 8.59861 52.5708 9.2301 54.2312Z" fill="#D8D6D0"/>
<path d="M10.0039 54.467C10.0039 54.467 15.647 54.8485 17.0511 51.1891C18.4551 47.5292 10.3369 52.3483 10.0039 54.467Z" fill="#D8D6D0"/>
<path d="M12.2601 33.9353C12.3431 33.9761 12.422 34.0224 12.4964 34.0746C13.9341 35.0785 15.1458 36.7063 16.0599 38.1784C17.449 40.415 18.4403 42.9732 18.1735 45.6426C17.9912 47.4672 17.7866 49.5654 16.8747 51.2041C16.3421 52.1613 15.1449 52.6 14.17 52.9393C13.3348 53.2301 12.4919 53.5032 11.673 53.8385C10.9168 54.1479 10.1746 54.6755 9.3226 54.6075C8.34314 54.529 7.65902 53.7614 6.87555 53.2632C5.64612 52.482 4.17445 52.0814 2.71819 52.1518C2.46233 52.164 2.20011 52.1899 1.95513 52.115C1.59719 52.0061 1.33542 51.7022 1.12447 51.3937C0.163614 49.9901 0.189017 48.63 0.180851 46.9977C0.172232 45.3391 0.204441 43.6705 0.520644 42.0373C1.08364 39.127 3.00626 36.7194 4.01702 33.9725C4.07509 33.8142 4.13315 33.6522 4.23976 33.5216C4.42214 33.2979 4.72065 33.2013 5.00828 33.1781C5.54723 33.1346 6.09025 33.2181 6.62422 33.2752C7.63679 33.3841 8.62532 33.4971 9.64334 33.5669C10.4504 33.6227 11.5083 33.5638 12.2601 33.9353Z" fill="url(#paint0_linear_77_4182)"/>
<path d="M14.4024 35.8491C14.3662 35.8786 14.3226 35.9018 14.2695 35.9163C14.0028 35.9911 13.1807 35.5887 12.8899 35.5125C11.9259 35.2603 10.9509 35.0493 9.97006 34.8737C8.9307 34.6877 7.88091 34.5113 6.82249 34.5026C6.2622 34.4981 5.69874 34.5371 5.15024 34.656C4.663 34.7617 4.1381 35.0956 3.67672 35.1373C3.34054 33.8267 3.68171 32.3024 3.75974 30.9713C3.84639 29.4914 3.98249 28.0148 4.16714 26.544C4.51375 23.7839 5.20242 21.1267 5.70463 18.4015C6.19369 15.7508 6.32979 12.9485 6.27127 10.2492C6.24359 8.9798 6.16692 7.70817 6.02129 6.44697C5.89744 5.37042 5.58713 4.40683 5.69738 3.29126C5.80943 2.1571 6.34159 0.439519 7.83917 0.904074C8.96654 1.25385 9.66838 2.49373 10.2373 3.43645C11.3211 5.23161 12.11 7.18736 12.8368 9.15401C13.5627 11.1179 14.2319 13.1159 14.6107 15.1792C14.9414 16.9788 14.901 18.7404 14.8697 20.5574C14.8207 23.4418 14.7518 26.3257 14.6806 29.2097C14.6347 31.0707 14.7409 33.0119 14.5944 34.8992C14.5685 35.2517 14.6202 35.6713 14.4024 35.8491Z" fill="url(#paint1_linear_77_4182)"/>
<path d="M8.48356 32.7913C8.48356 32.7913 11.7042 33.2336 13.9739 34.4893C13.9739 34.4893 14.2461 34.8069 14.6544 35.3512C15.0627 35.8956 15.5163 36.44 15.8339 37.3019C16.0204 37.8077 15.97 38.5268 15.97 38.5268L15.3725 38.6606L14.4797 37.8241L13.83 38.0981L14.3558 39.0643L12.4477 38.8784L11.2673 38.2124L9.65266 38.0763L9.78786 37.2765L8.25038 37.7016L7.52405 36.6464L6.60673 38.246L5.45214 37.1731L4.15147 37.4739L3.48867 37.0601L2.82812 36.6355L3.14569 35.9097L3.6901 35.0024C4.28123 33.9359 6.04236 32.6407 8.48356 32.7913Z" fill="black"/>
<defs>
<linearGradient id="paint0_linear_77_4182" x1="-5.76942" y1="44.295" x2="24.4666" y2="43.3636" gradientUnits="userSpaceOnUse">
<stop stop-color="#94938C"/>
<stop offset="0.2666" stop-color="#EDEBE1"/>
<stop offset="0.7117" stop-color="#EDEBE1"/>
<stop offset="1" stop-color="#94938C"/>
</linearGradient>
<linearGradient id="paint1_linear_77_4182" x1="0.767572" y1="19.4243" x2="15.1273" y2="17.9163" gradientUnits="userSpaceOnUse">
<stop stop-color="#BFAB8D"/>
<stop offset="0.5078" stop-color="#E7E1D2"/>
<stop offset="1" stop-color="#CCBFA6"/>
</linearGradient>
</defs>
</svg>
