<svg width="19" height="58" viewBox="0 0 19 58" fill="none" xmlns="http://www.w3.org/2000/svg">
<path d="M9.36249 56.2797C9.36249 56.2797 4.01641 57.1149 2.27521 54.2734C0.534469 51.4318 8.81309 54.5901 9.36249 56.2797Z" fill="#D8D6D0"/>
<path d="M3.99609 38.3583C3.99609 38.3583 4.32272 27.2458 5.30351 24.3042C6.28385 21.3626 7.26463 11.5576 6.93755 8.94265C6.61092 6.32772 6.61092 2.40578 6.61092 2.40578C6.61092 2.40578 6.2843 -0.535779 9.22576 1.75205C12.1672 4.03989 15.7624 15.1524 15.4353 19.7281C15.1087 24.3037 15.0052 38.0925 15.057 38.0621C15.1082 38.0317 3.99609 38.3583 3.99609 38.3583Z" fill="url(#paint0_linear_77_4169)"/>
<path d="M14.7807 37.0512C14.7807 37.0512 22.2979 48.1639 16.7419 54.047C16.0632 54.7656 14.9957 55.271 14.1687 55.7968C13.3149 56.3399 12.4044 57.0939 11.3632 57.2114C10.1696 57.3466 9.29583 56.0976 8.12264 55.854C6.25761 55.4666 4.4325 55.7732 2.83967 54.5012C1.52449 53.4509 0.726939 51.8136 0.456099 50.1741C0.11857 48.1285 0.467894 46.0498 0.875288 44.0414C1.04904 43.1853 1.34483 42.3705 1.69098 41.5689C2.05982 40.7142 2.72489 39.8799 3.01433 39.0115C3.01433 39.0124 5.62927 31.1681 14.7807 37.0512Z" fill="url(#paint1_linear_77_4169)"/>
<path d="M8.75945 34.8171C8.75945 34.8171 11.98 35.2595 14.2498 36.5152C14.2498 36.5152 14.522 36.8328 14.9303 37.3772C15.3386 37.9216 15.7922 38.466 16.1098 39.3279C16.2963 39.8338 16.2459 40.5528 16.2459 40.5528L15.6484 40.6866L14.7556 39.8501L14.1059 40.1241L14.6317 41.0904L12.7236 40.9044L11.5432 40.2384L9.92856 40.1023L10.0638 39.3025L8.52626 39.7276L7.79994 38.6724L6.88262 40.272L5.72804 39.1991L4.42737 39.4999L3.76456 39.0861L3.02734 38.5063L3.21426 37.8286L3.90383 37.2452C4.49497 36.1781 6.31826 34.6661 8.75945 34.8171Z" fill="black"/>
<defs>
<linearGradient id="paint0_linear_77_4169" x1="4.89579" y1="19.6671" x2="17.7879" y2="19.27" gradientUnits="userSpaceOnUse">
<stop stop-color="#BFAB8D"/>
<stop offset="0.5078" stop-color="#E7E1D2"/>
<stop offset="1" stop-color="#CCBFA6"/>
</linearGradient>
<linearGradient id="paint1_linear_77_4169" x1="-3.25566" y1="46.4476" x2="23.4706" y2="45.6243" gradientUnits="userSpaceOnUse">
<stop stop-color="#94938C"/>
<stop offset="0.0311" stop-color="#A6A59D"/>
<stop offset="0.0939" stop-color="#C5C3BB"/>
<stop offset="0.1552" stop-color="#DBD9D0"/>
<stop offset="0.2138" stop-color="#E8E7DD"/>
<stop offset="0.2666" stop-color="#EDEBE1"/>
<stop offset="0.7117" stop-color="#EDEBE1"/>
<stop offset="0.7637" stop-color="#E7E5DB"/>
<stop offset="0.835" stop-color="#D5D3CA"/>
<stop offset="0.9175" stop-color="#B8B7AF"/>
<stop offset="1" stop-color="#94938C"/>
</linearGradient>
</defs>
</svg>
