<svg width="20" height="70" viewBox="0 0 20 70" fill="none" xmlns="http://www.w3.org/2000/svg">
<path d="M16.0309 45.479C16.0309 45.479 3.94928 42.4507 2.94531 44.1774L7.82451 9.62469C7.82451 9.62469 7.67298 0.744141 8.98045 0.744141C10.2879 0.744141 11.5954 4.6661 11.5954 4.6661C11.5954 4.6661 15.7396 37.2091 16.0309 45.479Z" fill="url(#paint0_linear_77_4074)"/>
<path d="M13.707 41.9822C13.7074 41.9831 20.8976 51.4611 19.5901 59.305C19.1682 61.836 18.3044 64.4814 16.7788 66.5687C16.0347 67.5867 15.068 68.5081 13.849 68.9119C12.2366 69.4459 10.1675 69.0267 8.55105 68.666C7.75532 68.4886 6.97363 68.2441 6.23234 67.903C1.04964 65.5194 -0.319526 59.374 0.0973941 54.1659C0.390463 50.5075 1.50105 46.9585 2.94462 43.6059C3.88099 41.431 6.06223 40.8612 8.23938 40.5531C9.87802 40.3213 12.5928 40.5132 13.707 41.9822Z" fill="url(#paint1_linear_77_4074)"/>
<path d="M13.7577 41.9626C13.7582 41.9635 20.9484 51.4415 19.6409 59.2855C19.219 61.8165 18.3552 64.4618 16.8295 66.5492C16.0855 67.5672 15.1187 68.4886 13.8997 68.8924C12.2874 69.4263 10.2182 69.0071 8.6018 68.6465C7.80607 68.4691 7.02441 68.2246 6.28312 67.8834C1.10042 65.4998 -0.268745 59.3544 0.148175 54.1463C0.441244 50.4879 1.55181 46.9389 2.99538 43.5863C3.93175 41.4114 6.113 40.8416 8.29015 40.5335C9.9288 40.3017 12.6435 40.4941 13.7577 41.9626Z" fill="url(#paint2_linear_77_4074)"/>
<path d="M8.27925 40.5127C9.5495 40.4219 11.4095 40.1044 13.5639 41.7059C13.5639 41.7059 13.8361 42.0234 14.2444 42.5678C14.6527 43.1123 15.1064 43.6567 15.4239 44.5187C15.6104 45.0245 15.56 45.7436 15.56 45.7436L14.9626 45.8774L14.0698 45.0409L13.4201 45.3149L13.9459 46.2812L12.0378 46.0952L10.8574 45.4292L9.24282 45.2931L9.37801 44.4933L7.84055 44.9184L7.11425 43.8631L6.19694 45.4628L5.04239 44.3898L3.74175 44.6906L3.07894 44.2769L2.78906 44.0509L3.19736 43.0982C3.19826 43.0986 4.46851 40.6488 8.27925 40.5127Z" fill="black"/>
<defs>
<linearGradient id="paint0_linear_77_4074" x1="4.606" y1="23.355" x2="14.2106" y2="23.0591" gradientUnits="userSpaceOnUse">
<stop stop-color="#BFAB8D"/>
<stop offset="0.5078" stop-color="#E7E1D2"/>
<stop offset="1" stop-color="#CCBFA6"/>
</linearGradient>
<linearGradient id="paint1_linear_77_4074" x1="-5.48127" y1="54.5275" x2="26.3233" y2="55.096" gradientUnits="userSpaceOnUse">
<stop stop-color="#94938C"/>
<stop offset="0.2666" stop-color="#EDEBE1"/>
<stop offset="0.7117" stop-color="#EDEBE1"/>
<stop offset="1" stop-color="#94938C"/>
</linearGradient>
<linearGradient id="paint2_linear_77_4074" x1="-6.2013" y1="54.4944" x2="26.7514" y2="55.0834" gradientUnits="userSpaceOnUse">
<stop stop-color="#94938C"/>
<stop offset="0.0617" stop-color="#A4A29B"/>
<stop offset="0.1809" stop-color="#CCCAC2"/>
<stop offset="0.2666" stop-color="#EDEBE1"/>
<stop offset="0.7117" stop-color="#EDEBE1"/>
<stop offset="0.7719" stop-color="#E0DED5"/>
<stop offset="0.883" stop-color="#BEBDB4"/>
<stop offset="1" stop-color="#94938C"/>
</linearGradient>
</defs>
</svg>
