<svg width="20" height="61" viewBox="0 0 20 61" fill="none" xmlns="http://www.w3.org/2000/svg">
<path d="M13.3406 34.7564C13.3406 34.7564 16.6088 36.0639 17.5896 43.5811C17.5896 43.5811 18.57 51.4254 18.8971 53.7133C19.2238 56.0011 19.2238 58.9427 15.6289 59.923C12.0335 60.9034 8.7653 60.2497 6.80408 59.5964C4.84286 58.9427 1.90127 56.9815 1.24753 54.6936C0.593792 52.4058 1.24752 41.2933 2.22791 39.3321C3.20829 37.3709 5.49661 32.1415 13.3406 34.7564Z" fill="url(#paint0_linear_77_4144)"/>
<path d="M10.074 3.70577C10.074 3.70577 17.2481 19.3908 14.3147 35.8978C14.3147 35.8978 3.91288 34.6647 3.39844 37.4883C4.85739 30.6212 5.55828 23.3944 5.27111 16.3843C5.15453 13.5403 4.95401 10.7004 4.87417 7.85498C4.82245 6.00222 4.50036 3.88542 5.29561 2.15968C5.6295 1.43427 6.1816 0.368153 7.08755 0.283318C8.62499 0.139052 9.61305 2.64556 10.074 3.70577Z" fill="url(#paint1_linear_77_4144)"/>
<path d="M9.22374 34.936C9.22374 34.936 12.0932 34.2519 14.3628 35.5076C14.3628 35.5076 14.635 35.8252 15.0433 36.3695C15.4516 36.9139 15.9053 37.4583 16.2228 38.3202C16.4093 38.8261 16.3589 39.5451 16.3589 39.5451L15.7615 39.6789L14.8686 38.8424L14.219 39.1164L14.7448 40.0827L12.8367 39.8967L11.6563 39.2307L10.0417 39.0946L10.1769 38.2948L8.63943 38.7199L7.91314 37.6647L6.99583 39.2643L5.84125 38.1914L4.54061 38.4922L3.87782 38.0785L3.14062 37.4987L3.32754 36.8209L4.01709 36.2375C4.68351 35.8696 6.78215 34.7854 9.22374 34.936Z" fill="black"/>
<defs>
<linearGradient id="paint0_linear_77_4144" x1="23.5061" y1="47.8805" x2="-2.50457" y2="46.5773" gradientUnits="userSpaceOnUse">
<stop stop-color="#94938C"/>
<stop offset="0.1599" stop-color="#D1CFC6"/>
<stop offset="0.2296" stop-color="#EDEBE1"/>
<stop offset="0.7988" stop-color="#EDEBE1"/>
<stop offset="0.9762" stop-color="#9F9E96"/>
<stop offset="1" stop-color="#94938C"/>
</linearGradient>
<linearGradient id="paint1_linear_77_4144" x1="6.02752" y1="18.8954" x2="15.0082" y2="19.0559" gradientUnits="userSpaceOnUse">
<stop stop-color="#BFAB8D"/>
<stop offset="0.5078" stop-color="#E7E1D2"/>
<stop offset="1" stop-color="#CCBFA6"/>
</linearGradient>
</defs>
</svg>
