<svg width="26" height="75" viewBox="0 0 26 75" fill="none" xmlns="http://www.w3.org/2000/svg">
<path d="M13.0048 0.868101C14.5577 2.39378 15.3316 5.64703 16.1133 7.63319C18.5032 13.7051 20.3196 20.011 21.3721 26.4545C21.8961 29.6615 22.2309 32.9002 22.3584 36.1475C22.4228 37.7807 22.4351 39.4158 22.3938 41.0499C22.3602 42.3873 22.5807 44.3321 22.0249 45.5452C21.3408 44.7722 20.8536 43.8426 20.1296 43.0991C18.3594 41.2808 16.0706 39.9806 13.4861 39.9792C12.3951 39.9788 11.3231 40.2001 10.3037 40.5726C9.88994 40.7237 9.48528 40.8992 9.09104 41.0952C7.94101 41.6669 6.55688 43.3921 5.33335 43.4851C5.15461 41.093 5.75933 38.4082 5.98707 36.0092C5.98707 29.9191 7.19019 23.4875 8.1016 17.4787C8.37561 15.6713 8.788 13.8879 8.74989 12.0551C8.71042 10.1628 8.4981 8.27286 8.62648 6.37926C8.74171 4.6839 8.95402 0.589549 11.289 0.329598C11.7481 0.278334 12.2 0.448461 12.6305 0.615865C12.7684 0.669851 12.8923 0.757406 13.0048 0.868101Z" fill="url(#paint0_linear_77_4134)"/>
<path d="M25.2885 69.5125C25.2885 69.4277 25.3021 69.3406 25.308 69.2557C25.3257 69.0099 25.3406 68.7644 25.3542 68.5185C25.3756 68.132 25.3932 67.745 25.4078 67.3581C25.4268 66.8495 25.4404 66.3409 25.4491 65.8324C25.4595 65.2213 25.4631 64.6102 25.459 63.9991C25.4549 63.3046 25.4413 62.6105 25.4182 61.9163C25.3932 61.1574 25.3565 60.3988 25.3075 59.6412C25.2553 58.8369 25.1895 58.0334 25.1074 57.2313C25.0226 56.4002 24.9205 55.5714 24.7985 54.7448C24.6746 53.906 24.5304 53.0699 24.3612 52.2392C24.1928 51.4108 23.9996 50.5874 23.7764 49.7722C23.5572 48.9724 23.3095 48.1803 23.0246 47.4013C22.7493 46.6473 22.4394 45.9056 22.0869 45.1843C21.7485 44.4929 21.3706 43.8196 20.9437 43.1791C20.5349 42.5653 20.0808 41.9805 19.5754 41.4429C19.0859 40.9221 18.5478 40.4457 17.963 40.0338C17.3792 39.6223 16.7495 39.2766 16.0867 39.0094C15.7083 38.8566 15.3095 38.7563 14.9012 38.7386C14.6776 38.7286 14.4539 38.7282 14.2302 38.7354C13.9376 38.7445 13.6459 38.7667 13.3551 38.8007C13.0053 38.842 12.6574 38.9006 12.3135 38.9754C11.9174 39.0616 11.5264 39.17 11.1421 39.2998C10.7107 39.4454 10.2888 39.6173 9.87818 39.8142C9.4227 40.0329 8.98219 40.2824 8.55937 40.5596C8.09073 40.8667 7.64431 41.2074 7.2224 41.5758C6.7524 41.9864 6.31326 42.4319 5.90496 42.9037C5.4463 43.4336 5.0271 43.997 4.64375 44.5836C4.21004 45.2482 3.82306 45.9423 3.47645 46.6564C3.08131 47.4698 2.73925 48.3087 2.44028 49.162C2.09821 50.1387 1.81239 51.1345 1.57195 52.1412C1.29657 53.2944 1.07972 54.4613 0.909143 55.6344C0.713611 56.9773 0.578406 58.3283 0.489033 59.682C0.474062 59.9084 0.460456 60.1348 0.448207 60.3616C0.448207 60.3616 -1.18592 71.4742 5.02392 72.7816C6.37132 73.0674 7.69876 73.3124 8.98945 73.512C10.8282 73.7965 12.6846 73.992 14.5419 74.1027C16.715 74.232 18.9743 74.1576 21.0956 73.6245C22.4657 73.2802 23.9524 72.6736 24.7481 71.4356C25.117 70.8617 25.2885 70.1912 25.2885 69.5125Z" fill="url(#paint1_linear_77_4134)"/>
<path d="M15.1166 38.7422C15.1166 38.7422 12.2966 38.4541 9.68349 39.8964L8.66591 40.483C7.97906 40.9026 6.52734 42.1729 6.52734 42.1729L6.84491 43.67L7.38931 44.7588L8.47811 43.6247L9.11324 44.2598L8.38738 45.7116L10.4289 45.9384L11.7899 45.1672L13.5138 45.394V44.033L15.0563 45.1672L16.009 43.6247L16.6895 46.5282L18.0958 45.0764L19.4115 45.9384L20.1827 45.4394L21.09 44.6227L20.3642 42.3544C19.7295 41.5586 17.7134 39.1764 15.1166 38.7422Z" fill="black"/>
<defs>
<linearGradient id="paint0_linear_77_4134" x1="18.6911" y1="22.8982" x2="5.2102" y2="23.1391" gradientUnits="userSpaceOnUse">
<stop stop-color="#BFAB8D"/>
<stop offset="0.5078" stop-color="#E7E1D2"/>
<stop offset="1" stop-color="#CCBFA6"/>
</linearGradient>
<linearGradient id="paint1_linear_77_4134" x1="30.3634" y1="56.4362" x2="-4.65656" y2="56.454" gradientUnits="userSpaceOnUse">
<stop stop-color="#94938C"/>
<stop offset="0.2296" stop-color="#EDEBE1"/>
<stop offset="0.7876" stop-color="#EDEBE1"/>
<stop offset="1" stop-color="#94938C"/>
</linearGradient>
</defs>
</svg>
