<svg width="27" height="75" viewBox="0 0 27 75" fill="none" xmlns="http://www.w3.org/2000/svg">
<path d="M13.3387 0.868101C11.7859 2.39378 11.0119 5.64703 10.2302 7.63319C7.84036 13.7051 6.02388 20.011 4.97138 26.4545C4.4474 29.6615 4.11261 32.9002 3.98513 36.1475C3.92071 37.7807 3.90845 39.4158 3.94973 41.0499C3.9833 42.3873 3.76284 44.3321 4.31858 45.5452C5.0027 44.7722 5.48992 43.8426 6.21397 43.0991C7.98415 41.2808 10.2729 39.9806 12.8574 39.9792C13.9484 39.9788 15.0204 40.2001 16.0398 40.5726C16.4536 40.7237 16.8582 40.8992 17.2525 41.0952C18.4025 41.6669 19.7866 43.3921 21.0101 43.4851C21.1889 41.093 20.5842 38.4082 20.3564 36.0092C20.3564 29.9191 19.1533 23.4875 18.2419 17.4787C17.9679 15.6713 17.5555 13.8879 17.5936 12.0551C17.6331 10.1628 17.8454 8.27286 17.717 6.37926C17.6018 4.6839 17.3895 0.589549 15.0545 0.329598C14.5954 0.278334 14.1435 0.448461 13.713 0.615865C13.5755 0.669851 13.4517 0.757406 13.3387 0.868101Z" fill="url(#paint0_linear_77_4139)"/>
<path d="M1.05548 69.5125C1.05548 69.4277 1.04187 69.3406 1.03597 69.2557C1.01827 69.0099 1.0033 68.7644 0.989692 68.5185C0.96837 68.132 0.950691 67.745 0.936174 67.3581C0.91712 66.8495 0.903513 66.3409 0.89444 65.8324C0.884005 65.2213 0.880366 64.6102 0.884449 63.9991C0.888532 63.3046 0.902138 62.6105 0.925275 61.9163C0.950227 61.1574 0.986971 60.3988 1.03597 59.6412C1.08814 58.8369 1.15393 58.0334 1.23604 57.2313C1.32088 56.4002 1.42296 55.5714 1.54499 54.7448C1.66884 53.906 1.81312 53.0699 1.98234 52.2392C2.15065 51.4108 2.34389 50.5874 2.5671 49.7722C2.78622 48.9724 3.03394 48.1803 3.31884 47.4013C3.59422 46.6473 3.90407 45.9056 4.25657 45.1843C4.59501 44.4929 4.97292 43.8196 5.39983 43.1791C5.80858 42.5653 6.26269 41.9805 6.76807 41.4429C7.25758 40.9221 7.79564 40.4457 8.38041 40.0338C8.96429 39.6223 9.59397 39.2766 10.2568 39.0094C10.6351 38.8566 11.0339 38.7563 11.4422 38.7386C11.6659 38.7286 11.8896 38.7282 12.1132 38.7354C12.4058 38.7445 12.6975 38.7667 12.9883 38.8007C13.3381 38.842 13.6861 38.9006 14.03 38.9754C14.426 39.0616 14.8171 39.17 15.2013 39.2998C15.6328 39.4454 16.0547 39.6173 16.4652 39.8142C16.9207 40.0329 17.3613 40.2824 17.7841 40.5596C18.2527 40.8667 18.6991 41.2074 19.121 41.5758C19.591 41.9864 20.0302 42.4319 20.4385 42.9037C20.8971 43.4336 21.3163 43.997 21.6997 44.5836C22.1334 45.2482 22.5203 45.9423 22.867 46.6564C23.2621 47.4698 23.6042 48.3087 23.9031 49.162C24.2452 50.1387 24.531 51.1345 24.7715 52.1412C25.0469 53.2944 25.2637 54.4613 25.4343 55.6344C25.6298 56.9773 25.765 58.3283 25.8544 59.682C25.8693 59.9084 25.8829 60.1348 25.8952 60.3616C25.8952 60.3616 27.5293 71.4742 21.3195 72.7816C19.9721 73.0674 18.6447 73.3124 17.354 73.512C15.5153 73.7965 13.6589 73.992 11.8015 74.1027C9.62846 74.232 7.3692 74.1576 5.24784 73.6245C3.87776 73.2802 2.39108 72.6736 1.59534 71.4356C1.22697 70.8617 1.05548 70.1912 1.05548 69.5125Z" fill="url(#paint1_linear_77_4139)"/>
<path d="M11.2273 38.7422C11.2273 38.7422 14.0473 38.4541 16.6604 39.8964L17.678 40.483C18.3649 40.9026 19.8166 42.1729 19.8166 42.1729L19.4991 43.67L18.9547 44.7588L17.8659 43.6247L17.2307 44.2598L17.9566 45.7116L15.9151 45.9384L14.5541 45.1672L12.8301 45.394V44.033L11.2877 45.1672L10.335 43.6247L9.65448 46.5282L8.24811 45.0764L6.93247 45.9384L6.16124 45.4394L5.25391 44.6227L5.97977 42.3544C6.61445 41.5586 8.63055 39.1764 11.2273 38.7422Z" fill="black"/>
<defs>
<linearGradient id="paint0_linear_77_4139" x1="7.65254" y1="22.8982" x2="21.1334" y2="23.1391" gradientUnits="userSpaceOnUse">
<stop stop-color="#BFAB8D"/>
<stop offset="0.5078" stop-color="#E7E1D2"/>
<stop offset="1" stop-color="#CCBFA6"/>
</linearGradient>
<linearGradient id="paint1_linear_77_4139" x1="-4.01925" y1="56.4362" x2="31.0006" y2="56.4541" gradientUnits="userSpaceOnUse">
<stop stop-color="#94938C"/>
<stop offset="0.2296" stop-color="#EDEBE1"/>
<stop offset="0.7876" stop-color="#EDEBE1"/>
<stop offset="1" stop-color="#94938C"/>
</linearGradient>
</defs>
</svg>
