<svg width="21" height="70" viewBox="0 0 21 70" fill="none" xmlns="http://www.w3.org/2000/svg">
<path d="M4.09375 45.3195C4.09375 45.3195 16.1766 42.2912 17.1826 44.0217L12.3033 9.4734C12.3033 9.4734 8.88262 0.589844 7.57473 0.589844C6.26684 0.589844 4.95895 4.5135 4.95895 4.5135C4.95895 4.5135 4.38551 37.0496 4.09375 45.3195Z" fill="url(#paint0_linear_78_5636)"/>
<path d="M6.41943 41.8267C6.41943 41.8267 -0.773941 51.3039 0.533944 59.1512C0.956492 61.6864 1.82172 64.3223 3.34088 66.415C4.08536 67.4311 5.05119 68.3567 6.26853 68.7591C7.87824 69.2923 9.95072 68.8697 11.5705 68.5176C12.3653 68.3365 13.15 68.0951 13.8844 67.753C19.0657 65.3686 20.4339 59.2216 20.0214 54.0202C19.7297 50.3582 18.613 46.8168 17.1743 43.4566C16.2386 41.2835 14.0555 40.71 11.8824 40.4082C10.2425 40.1567 7.53617 40.3579 6.41943 41.8267Z" fill="url(#paint1_linear_78_5636)"/>
<path d="M0.742622 54.162C0.23959 52.3913 1.22555 49.6246 2.61392 46.6869C3.39865 45.0169 4.23368 43.5681 5.00835 42.5118C5.98423 41.1938 6.88967 40.4393 7.72471 40.2682C8.9521 40.0268 10.753 40.0167 12.413 40.2582C13.4995 40.4091 15.4412 40.8014 16.2863 41.6968C16.6485 42.0792 17.5942 43.216 18.5801 45.6406C19.4655 47.8238 19.8679 49.8661 20.1496 52.4919L19.7874 52.9044C19.5057 50.349 18.8115 48.025 17.9463 45.9022C17.2924 44.2925 16.4875 42.9041 15.7934 42.1697C15.2803 41.6365 13.9824 41.1737 12.3124 40.9322C10.7228 40.7008 9.01247 40.7109 7.8555 40.9423C7.26192 41.063 6.25586 41.6968 4.80713 44.0309C3.82119 45.6205 2.78493 47.7835 1.97002 49.9566C1.17523 52.0895 0.762743 54.162 0.742622 54.162Z" fill="#6E8604"/>
<path d="M0.744504 54.4329H0.543309L0.482948 54.2317C0.0302188 52.6522 0.613731 50.2879 2.36428 46.5655C3.15908 44.8753 3.99411 43.4165 4.7889 42.34C5.80503 40.9617 6.77085 40.177 7.67631 39.9959C8.93389 39.7444 10.7649 39.7343 12.4551 39.9758C13.5718 40.1367 15.584 40.5492 16.4894 41.4949C16.8617 41.8873 17.8376 43.0644 18.8436 45.5192C19.6585 47.5212 20.1213 49.5334 20.4332 52.4409L20.4433 52.5616L19.5881 53.5174L19.5177 52.9037C19.2762 50.6602 18.6826 48.3865 17.6967 45.9719C17.0528 44.3924 16.2681 43.0342 15.594 42.3299C15.1312 41.847 13.8636 41.4044 12.274 41.183C10.7146 40.9617 9.04456 40.9617 7.90771 41.183C7.46504 41.2736 6.50927 41.7766 5.04042 44.1509C4.06454 45.7304 3.03834 47.8734 2.23349 50.0264C1.57955 51.7668 1.18717 53.4671 1.05638 54.0204C1.04632 54.0808 1.03626 54.1311 1.0262 54.1613C0.975898 54.3927 0.84511 54.4329 0.744504 54.4329ZM9.96006 40.348C9.15521 40.348 8.40066 40.4084 7.78696 40.5291C7.02235 40.68 6.16722 41.4044 5.23158 42.6619C4.46697 43.7083 3.64199 45.1369 2.86732 46.7969C1.63992 49.4026 1.12683 51.0928 0.9558 52.2296C1.14695 51.5254 1.40852 50.6903 1.73046 49.8453C2.55543 47.6621 3.59167 45.4789 4.58768 43.8692C5.79496 41.9275 6.8815 40.841 7.81714 40.6599C9.00429 40.4184 10.7448 40.4184 12.3646 40.6498C14.1151 40.9013 15.4431 41.3842 15.9964 41.9678C16.7208 42.7223 17.5458 44.1509 18.2098 45.7808C18.7229 47.0585 19.1354 48.2859 19.4573 49.4931C19.2058 48.2356 18.8638 47.0182 18.3406 45.7204C17.3748 43.3461 16.4492 42.2293 16.0971 41.8672C15.2721 41.0019 13.2197 40.6297 12.3847 40.509C11.5798 40.4084 10.7448 40.348 9.96006 40.348Z" fill="#6E8604"/>
<defs>
<linearGradient id="paint0_linear_78_5636" x1="15.4459" y1="23.2493" x2="5.55244" y2="22.9446" gradientUnits="userSpaceOnUse">
<stop stop-color="#BFAB8D"/>
<stop offset="0.5078" stop-color="#E7E1D2"/>
<stop offset="1" stop-color="#CCBFA6"/>
</linearGradient>
<linearGradient id="paint1_linear_78_5636" x1="26.376" y1="54.3534" x2="-6.57622" y2="54.9424" gradientUnits="userSpaceOnUse">
<stop stop-color="#94938C"/>
<stop offset="0.0617" stop-color="#A4A29B"/>
<stop offset="0.1809" stop-color="#CCCAC2"/>
<stop offset="0.2666" stop-color="#EDEBE1"/>
<stop offset="0.7117" stop-color="#EDEBE1"/>
<stop offset="0.7719" stop-color="#E0DED5"/>
<stop offset="0.883" stop-color="#BEBDB4"/>
<stop offset="1" stop-color="#94938C"/>
</linearGradient>
</defs>
</svg>
