<svg width="20" height="58" viewBox="0 0 20 58" fill="none" xmlns="http://www.w3.org/2000/svg">
<path d="M10.1719 56.0596C10.1719 56.0596 15.5141 56.8947 17.2545 54.0575C18.995 51.2204 10.7252 54.3694 10.1719 56.0596Z" fill="#D8D6D0"/>
<path d="M15.5463 38.1402C15.5463 38.1402 15.2243 27.0232 14.2384 24.0855C13.2625 21.1478 12.2766 11.3387 12.6086 8.7229C12.9305 6.10713 12.9305 2.18348 12.9305 2.18348C12.9305 2.18348 13.2525 -0.754227 10.3147 1.52954C7.37704 3.81331 3.77531 14.9303 4.10731 19.5079C4.42925 24.0855 4.53992 37.8686 4.48962 37.8384C4.42926 37.8082 15.5463 38.1402 15.5463 38.1402Z" fill="url(#paint0_linear_78_5899)"/>
<path d="M4.76107 36.8333C4.76107 36.8333 -2.75424 47.9504 2.79923 53.8258C3.4733 54.5401 4.54978 55.0532 5.37476 55.5763C6.22991 56.1196 7.13538 56.8741 8.18169 56.9949C9.3789 57.1257 10.2441 55.8781 11.4212 55.6367C13.2824 55.2443 15.1135 55.5562 16.7031 54.2886C18.021 53.2422 18.8158 51.6024 19.0874 49.9625C19.4295 47.9202 19.0773 45.8376 18.6649 43.8255C18.4938 42.9703 18.192 42.1554 17.8499 41.3506C17.4777 40.4954 16.8137 39.6604 16.5219 38.7952C16.5219 38.7952 13.9062 30.9479 4.76107 36.8333Z" fill="url(#paint1_linear_78_5899)"/>
<path d="M18.4066 42.8092C18.135 42.3967 17.0987 40.4349 16.5756 39.5697C16.3844 39.2578 16.2134 38.9359 16.0524 38.6341C15.7707 38.1109 15.479 37.5777 15.1268 37.0948C14.5232 36.2698 13.8491 35.6762 13.1248 35.3241C12.2696 34.9116 11.3642 34.9016 10.4989 34.9418C9.42245 35.0022 8.50692 35.1531 7.69201 35.4146C7.34995 35.5253 7.02802 35.6561 6.7262 35.807C6.04207 36.139 5.42839 36.6219 4.88511 37.2356C3.9696 38.2819 3.34582 39.6602 2.85285 40.8675C2.28945 42.2358 1.7663 42.8495 1.34375 44.2177C1.34375 44.2177 1.68582 42.0245 2.25927 40.6261C2.77236 39.3685 3.42631 37.9298 4.40219 36.8131C4.99577 36.129 5.67989 35.6058 6.4445 35.2335C6.7765 35.0726 7.12861 34.9317 7.50086 34.811C8.36607 34.5293 9.33191 34.3683 10.4688 34.308C11.4145 34.2577 12.4205 34.2778 13.3964 34.7506C14.2214 35.1531 14.9759 35.807 15.6399 36.7225C16.0122 37.2356 16.314 37.799 16.6058 38.3322C16.7667 38.634 16.9378 38.9459 17.1189 39.2478C17.3503 39.6099 18.2255 41.1291 18.4066 42.8092Z" fill="#6E8604"/>
<path d="M1.60353 44.2883L1.07031 44.1676C1.08037 44.077 1.43249 41.9341 2.00595 40.5155C2.5291 39.2378 3.1931 37.779 4.19917 36.6321C4.81287 35.9279 5.52719 35.3745 6.32198 34.9822C6.66405 34.8111 7.03628 34.6703 7.40852 34.5395C8.29386 34.2578 9.28989 34.0868 10.4469 34.0264C11.4228 33.9761 12.469 33.9962 13.5053 34.4992C14.3705 34.9117 15.1553 35.6059 15.8494 36.5516C16.2418 37.0849 16.5436 37.6482 16.8354 38.1915C16.9964 38.4933 17.1674 38.8052 17.3384 39.097C17.6805 39.6604 18.4853 41.1393 18.6564 42.7691L18.7771 43.8758L18.1634 42.9502C18.0225 42.7289 17.6905 42.1353 17.3082 41.4411C16.946 40.7872 16.5839 40.1232 16.3324 39.7006C16.1412 39.3887 15.9702 39.0668 15.7991 38.7549C15.5174 38.2418 15.2357 37.7086 14.8937 37.2458C14.3202 36.4611 13.6763 35.8876 12.9922 35.5556C12.1974 35.1733 11.3221 35.1532 10.5072 35.2035C9.45086 35.2538 8.55546 35.4047 7.77072 35.6663C7.44878 35.7669 7.13691 35.8977 6.83509 36.0385C6.18114 36.3605 5.5976 36.8132 5.08451 37.4068C4.19917 38.4229 3.57543 39.771 3.09252 40.9582C2.85106 41.5417 2.61966 41.9844 2.39833 42.417C2.11663 42.9904 1.84498 43.5237 1.60353 44.2883ZM11.1008 34.5596C10.8895 34.5596 10.6883 34.5697 10.4871 34.5797C9.38041 34.6401 8.43474 34.8011 7.58964 35.0727C7.23752 35.1834 6.89544 35.3242 6.5735 35.4852C5.84913 35.8373 5.19519 36.3504 4.62173 37.0044C3.66596 38.0909 3.02209 39.4994 2.51905 40.7369C2.40838 41.0186 2.29772 41.3304 2.20717 41.6524C2.33796 41.3908 2.46873 41.1091 2.59952 40.7771C3.10256 39.5497 3.74645 38.1412 4.68209 37.0647C5.24549 36.4208 5.88937 35.9178 6.60368 35.5657C6.92562 35.4148 7.25763 35.2739 7.60975 35.1633C8.44478 34.8916 9.38041 34.7407 10.4871 34.6803C11.3825 34.63 12.3383 34.6502 13.2437 35.0928C14.0083 35.4651 14.7226 36.0888 15.3464 36.944C15.7086 37.437 16.0004 37.9802 16.2921 38.5135C16.4631 38.8253 16.6342 39.1372 16.8153 39.439C17.0265 39.7912 17.3183 40.3244 17.6201 40.8677C17.3586 40.2037 17.0668 39.6805 16.8958 39.3988C16.7147 39.097 16.5436 38.775 16.3726 38.4732C16.0909 37.94 15.7891 37.3967 15.4269 36.8937C14.7931 36.0184 14.0687 35.3846 13.284 35.0123C12.5596 34.6502 11.8151 34.5596 11.1008 34.5596Z" fill="#6E8604"/>
<defs>
<linearGradient id="paint0_linear_78_5899" x1="14.6447" y1="19.4488" x2="1.75232" y2="19.0517" gradientUnits="userSpaceOnUse">
<stop stop-color="#BFAB8D"/>
<stop offset="0.5078" stop-color="#E7E1D2"/>
<stop offset="1" stop-color="#CCBFA6"/>
</linearGradient>
<linearGradient id="paint1_linear_78_5899" x1="22.795" y1="46.2295" x2="-3.93093" y2="45.4062" gradientUnits="userSpaceOnUse">
<stop stop-color="#94938C"/>
<stop offset="0.0311" stop-color="#A6A59D"/>
<stop offset="0.0939" stop-color="#C5C3BB"/>
<stop offset="0.1552" stop-color="#DBD9D0"/>
<stop offset="0.2138" stop-color="#E8E7DD"/>
<stop offset="0.2666" stop-color="#EDEBE1"/>
<stop offset="0.7117" stop-color="#EDEBE1"/>
<stop offset="0.7637" stop-color="#E7E5DB"/>
<stop offset="0.835" stop-color="#D5D3CA"/>
<stop offset="0.9175" stop-color="#B8B7AF"/>
<stop offset="1" stop-color="#94938C"/>
</linearGradient>
</defs>
</svg>
