<svg width="19" height="55" viewBox="0 0 19 55" fill="none" xmlns="http://www.w3.org/2000/svg">
<path d="M9.69531 54.069C9.69531 54.069 14.9973 55.1656 16.8686 52.409C18.7499 49.6624 10.3291 52.409 9.69531 54.069Z" fill="#D8D6D0"/>
<path d="M8.9213 54.3119C8.9213 54.3119 3.27726 54.6942 1.87882 51.0321C0.470328 47.37 8.58929 52.1891 8.9213 54.3119Z" fill="#D8D6D0"/>
<path d="M6.66749 33.7777C6.58701 33.8179 6.5065 33.8682 6.42601 33.9185C4.98734 34.9246 3.78009 36.5544 2.86457 38.0233C1.4762 40.2567 0.480191 42.8222 0.751828 45.4883C0.93292 47.3093 1.13411 49.4119 2.04963 51.0518C2.58284 52.0076 3.78006 52.4502 4.75594 52.7822C5.59098 53.074 6.43608 53.3456 7.25099 53.6776C8.00554 53.9895 8.75003 54.5127 9.60518 54.4423C10.5811 54.3618 11.2652 53.5972 12.0499 53.0941C13.2773 52.3094 14.7562 51.917 16.205 51.9875C16.4565 51.9975 16.7281 52.0277 16.9696 51.9472C17.3318 51.8365 17.5933 51.5347 17.8046 51.2228C18.7704 49.8144 18.7402 48.4562 18.7503 46.8263C18.7604 45.1663 18.7302 43.4963 18.4082 41.8665C17.8448 38.9589 15.9233 36.5444 14.9071 33.7978C14.8468 33.6368 14.7864 33.4759 14.6858 33.3451C14.5047 33.1238 14.2029 33.0231 13.9212 33.003C13.3779 32.9628 12.8346 33.0433 12.3014 33.1036C11.2853 33.2143 10.2994 33.325 9.28323 33.3954C8.47838 33.4658 7.42204 33.4054 6.66749 33.7777Z" fill="url(#paint0_linear_78_5650)"/>
<path d="M4.52536 35.6879C4.5656 35.7181 4.60585 35.7382 4.65615 35.7583C4.92779 35.8287 5.7427 35.4263 6.03446 35.3559C7.00029 35.1044 7.97616 34.8931 8.95205 34.722C9.9883 34.541 11.0447 34.3599 12.101 34.3498C12.6644 34.3498 13.2278 34.38 13.7711 34.5007C14.254 34.6114 14.7872 34.9434 15.24 34.9836C15.572 33.6757 15.2399 32.1465 15.1595 30.8185C15.0689 29.3396 14.9381 27.8607 14.757 26.3918C14.415 23.6352 13.7208 20.9792 13.2178 18.2528C12.7248 15.6068 12.594 12.7999 12.6544 10.1036C12.6845 8.83601 12.755 7.55831 12.9059 6.30073C13.0266 5.22424 13.3385 4.25842 13.2278 3.14168C13.1172 2.00483 12.5839 0.29452 11.0849 0.757309C9.95811 1.10943 9.25386 2.3469 8.69046 3.2926C7.60391 5.08339 6.81919 7.04522 6.09482 9.00704C5.37045 10.9689 4.69638 12.9709 4.32413 15.0334C3.99213 16.8342 4.03237 18.5948 4.06255 20.4158C4.11285 23.3032 4.18328 26.1806 4.2537 29.068C4.30401 30.9292 4.19334 32.8709 4.34425 34.7522C4.36437 35.0943 4.31409 35.5168 4.52536 35.6879Z" fill="url(#paint1_linear_78_5650)"/>
<path d="M0.722656 43.7576C0.722656 43.7576 0.994295 41.7957 1.95006 39.5824C2.79515 37.6105 4.25393 35.4777 6.08496 34.8036C7.252 34.371 8.46933 34.1798 9.82752 33.9786C10.7531 33.8478 11.7994 33.6969 12.8457 33.8176C14.5258 34.0088 15.8237 35.1054 16.9001 37.1276C18.1477 39.4818 18.3791 41.7052 18.3791 41.7052C17.4937 39.5321 17.4132 39.6126 16.2965 37.4294C15.3508 35.5883 14.2341 34.6527 12.7753 34.4816C11.8095 34.371 10.8135 34.5118 9.92813 34.6426C8.61019 34.8338 7.43308 35.0249 6.32641 35.4273C4.91792 35.9505 4.04267 37.4998 2.95612 39.2504C2.0406 40.7192 1.62811 41.9466 0.722656 43.7576Z" fill="#6E8604"/>
<path d="M0.21875 45.3675L0.450125 43.7176C0.460186 43.6371 0.741905 41.6954 1.69767 39.472C2.21076 38.2748 3.64942 35.4075 5.99356 34.5523C7.19077 34.1097 8.41816 33.9185 9.78641 33.7173C10.7221 33.5865 11.7885 33.4255 12.875 33.5563C14.6155 33.7575 16.014 34.8843 17.1408 37.0071C18.3983 39.3814 18.6398 41.5948 18.6498 41.6853L18.841 43.5868L18.1267 41.8161C17.5231 40.3171 17.2917 39.8945 16.8389 39.0595C16.6377 38.6873 16.3963 38.2345 16.0542 37.5605C15.1588 35.8099 14.1024 34.9145 12.7442 34.7636C11.8187 34.6529 10.8327 34.7938 9.96753 34.9246C8.6697 35.1157 7.50267 35.2968 6.41612 35.6992C5.18872 36.152 4.36372 37.49 3.40796 39.0394C3.33754 39.1601 3.25707 39.2808 3.17659 39.4016C2.62325 40.297 2.25098 41.1119 1.82843 42.0475C1.57691 42.6109 1.3053 43.1944 0.973299 43.8685L0.21875 45.3675ZM12.03 34.0594C11.2754 34.0594 10.5309 34.17 9.85685 34.2606C8.51878 34.4517 7.3115 34.6429 6.17464 35.0654C4.69572 35.6087 3.20677 37.3391 2.2007 39.6933C1.98943 40.1762 1.8184 40.6491 1.66749 41.0918C1.97937 40.4278 2.29123 39.804 2.71377 39.1199C2.79426 38.9991 2.86468 38.8784 2.93511 38.7577C3.94117 37.1178 4.81646 35.7093 6.21489 35.1962C7.34169 34.7837 8.53889 34.5926 9.87696 34.4014C10.7724 34.2706 11.7885 34.1298 12.7845 34.2405C14.3439 34.4215 15.5311 35.3974 16.517 37.3291C16.8591 37.9931 17.1005 38.4458 17.3017 38.8181C17.342 38.8885 17.3722 38.9488 17.4023 39.0092C17.2011 38.4659 16.9597 37.8723 16.6377 37.2788C15.5914 35.2968 14.364 34.2908 12.7946 34.1097C12.5431 34.0694 12.2915 34.0594 12.03 34.0594Z" fill="#6E8604"/>
<defs>
<linearGradient id="paint0_linear_78_5650" x1="24.6982" y1="44.1386" x2="-5.53758" y2="43.2072" gradientUnits="userSpaceOnUse">
<stop stop-color="#94938C"/>
<stop offset="0.2666" stop-color="#EDEBE1"/>
<stop offset="0.7117" stop-color="#EDEBE1"/>
<stop offset="1" stop-color="#94938C"/>
</linearGradient>
<linearGradient id="paint1_linear_78_5650" x1="18.162" y1="19.2667" x2="3.80258" y2="17.7587" gradientUnits="userSpaceOnUse">
<stop stop-color="#BFAB8D"/>
<stop offset="0.5078" stop-color="#E7E1D2"/>
<stop offset="1" stop-color="#CCBFA6"/>
</linearGradient>
</defs>
</svg>
