<svg width="26" height="50" viewBox="0 0 26 50" fill="none" xmlns="http://www.w3.org/2000/svg">
<path d="M14.9382 2.03178C14.9382 2.03178 15.8436 -0.0205883 17.6747 0.492505C19.5057 1.0056 20.1395 5.80453 19.8075 9.33581C19.4755 12.8671 17.9061 24.0847 15.1997 24.3161C12.4934 24.5475 7.55363 18.1992 9.80722 14.6579C12.0608 11.1165 15.7732 4.90913 14.9382 2.03178Z" fill="url(#paint0_linear_78_5666)"/>
<path d="M3.11611 32.4851C6.3154 32.2537 9.9473 30.6943 13.1466 30.5635C15.1587 30.4831 17.1708 30.3523 19.183 30.4126C20.1086 30.4428 21.4969 32.9177 22.4024 32.8071C22.9859 32.7366 22.6036 30.3321 22.5734 29.7084C22.5533 29.1752 22.5131 28.652 22.5835 28.1288C22.8652 26.2274 23.9115 24.4165 24.3441 22.515C24.8471 20.3117 25.1892 18.0682 25.4005 15.8247C25.6218 13.4403 25.7123 11.0056 25.4005 8.63133C25.2697 7.60514 25.0785 6.55883 24.6761 5.60307C24.3542 4.85858 23.5895 3.38973 22.6036 3.51046C22.2414 3.5507 21.9195 3.75191 21.6479 4.00343C21.1146 4.47628 20.7525 5.12016 20.511 5.78417C20.008 7.16247 20.018 8.65144 19.9275 10.1002C19.8269 11.5892 19.4244 12.9775 19.0824 14.4263C18.4586 17.1225 17.7242 20.2916 15.9636 22.4949C15.531 23.0281 14.8871 23.4708 14.2029 23.4003C13.8508 23.3702 13.5188 23.2092 13.2371 22.9979C12.2009 22.2534 11.6777 20.9757 11.4966 19.7182C11.1344 17.1426 11.4061 14.2955 12.0902 11.8004C12.4927 10.3316 13.2371 9.02369 13.6999 7.58501C14.1828 6.06586 14.8368 3.05773 12.6938 2.48428C11.8286 2.25288 10.9131 2.69555 10.2693 3.30925C7.87482 5.60307 6.2651 9.01363 4.87673 11.9715C4.03163 13.7824 3.20666 15.6537 2.68351 17.5954C2.37163 18.7624 2.40181 19.9194 2.43199 21.1266C2.54266 24.4869 2.73381 29.155 3.11611 32.4851Z" fill="url(#paint1_linear_78_5666)"/>
<path d="M22.0516 34.6586C22.3233 34.739 22.7156 35.4835 22.8665 35.6948C23.4702 36.5399 23.9833 37.4453 24.3756 38.4112C25.4219 40.9968 25.271 43.8439 23.3092 45.9567C23.2891 45.9768 23.2589 46.007 23.2388 46.0271C23.1281 46.1378 23.0275 46.2484 22.937 46.3691C22.6955 46.7213 22.6351 47.174 22.4037 47.5362C22.1925 47.8782 21.8705 48.2002 21.5586 48.4618C20.8343 49.0755 19.8685 49.498 18.9026 49.4075C18.5706 49.3773 18.2587 49.2565 17.9469 49.1358C16.5887 48.6328 15.1198 48.0493 14.4055 46.7011C14.486 46.8521 14.1138 47.4758 14.0232 47.6066C13.8019 47.9084 13.5202 48.0493 13.1781 48.1801C12.0312 48.6227 10.7736 48.9849 9.677 49.5282C8.91239 49.8199 8.2786 50.1016 7.50393 49.8501C7.0512 49.6992 6.59847 49.5684 6.14574 49.4075C5.3107 49.1056 3.92231 48.5724 3.92231 47.4859C3.92231 45.8158 2.52388 40.7855 5.87408 35.7652C9.21421 30.745 22.0416 34.6485 22.0516 34.6586Z" fill="#D8D6D0"/>
<path d="M22.0713 30.5231C22.3932 30.6237 22.846 31.4889 23.0271 31.7404C23.7313 32.7264 24.3349 33.7928 24.7877 34.9196C26.0151 37.9478 25.834 41.2779 23.5401 43.7629C23.5099 43.7931 23.4898 43.8232 23.4597 43.8534C23.3389 43.9842 23.2081 44.115 23.1075 44.2559C22.8258 44.6683 22.7554 45.1915 22.4838 45.6241C22.2323 46.0265 21.86 46.4088 21.4978 46.7106C20.6527 47.4249 19.5159 47.928 18.3891 47.8173C17.9967 47.7771 17.6345 47.6362 17.2623 47.5054C15.6727 46.9119 13.9523 46.2277 13.1173 44.6583C13.2179 44.8394 12.7752 45.5637 12.6646 45.7146C12.403 46.0768 12.0811 46.2277 11.6686 46.3887C10.3204 46.9119 8.86165 47.3243 7.56383 47.9682C6.66843 48.3103 5.92393 48.6423 5.00841 48.3405C4.48526 48.1694 3.94197 48.0185 3.41881 47.8274C2.44293 47.4652 0.813106 46.8414 0.813106 45.5738C0.813106 43.612 -0.816701 37.7265 3.0969 31.8511C7.03061 25.9556 22.0612 30.5231 22.0713 30.5231Z" fill="url(#paint2_linear_78_5666)"/>
<path d="M0.935904 38.0811L0.513374 39.6607C0.151191 37.0248 1.03652 34.6605 1.79107 33.2118C3.13919 30.6262 5.4934 29.0869 8.78323 28.6443C9.21583 28.5839 9.66857 28.5436 10.1716 28.5135C12.5962 28.3626 15.041 28.5135 17.4354 28.9763C17.6366 29.0165 17.8479 29.0567 18.0591 29.097C19.8801 29.429 21.9526 29.8012 23.2404 31.3506C23.8843 32.1252 24.4477 33.1615 24.8602 34.3486C24.9406 34.5901 25.0412 34.8215 25.1418 35.073C25.4437 35.8276 25.7757 37.3065 25.5443 38.393L25.2726 37.397C25.3028 36.6928 24.7998 36.0489 24.508 35.3245C24.4074 35.073 24.3068 34.8215 24.2163 34.5599C23.834 33.4532 23.3108 32.4874 22.7172 31.7731C21.5904 30.4149 19.7292 30.0829 17.9384 29.761C17.7271 29.7207 17.5159 29.6805 17.3046 29.6403C14.9605 29.1976 12.5761 29.0467 10.2018 29.1976C9.71887 29.2278 9.27619 29.268 8.8637 29.3284C7.38478 29.5296 6.09704 29.9622 5.05074 30.6161C3.92394 31.3204 3.02852 32.2963 2.38464 33.5337C1.68039 34.912 1.17736 36.4815 0.935904 38.0811Z" fill="#6E8604"/>
<path d="M0.432776 41.0372L0.251692 39.6991C-0.120552 37.023 0.764803 34.6285 1.55959 33.0893C2.94796 30.4232 5.37257 28.8336 8.75295 28.3809C9.19562 28.3205 9.6584 28.2803 10.1614 28.24C12.6162 28.0891 15.0811 28.24 17.4957 28.7028C17.6969 28.7431 17.9081 28.7833 18.1194 28.8135C19.9907 29.1556 22.1135 29.5379 23.4616 31.1576C24.1256 31.9625 24.7091 33.0289 25.1317 34.2462C25.2122 34.4776 25.3027 34.709 25.4033 34.9606C25.7051 35.7151 26.0673 37.2544 25.8259 38.4415L25.5945 39.5482L25.011 37.4154V37.3751C25.0311 36.9626 24.8097 36.5401 24.5884 36.0873C24.4777 35.8761 24.3671 35.6547 24.2665 35.4233C24.1658 35.1718 24.0552 34.9103 23.9646 34.6487C23.5924 33.5722 23.0894 32.6365 22.5159 31.9424C21.4495 30.6647 19.6486 30.3326 17.8981 30.0208C17.6868 29.9805 17.4655 29.9403 17.2642 29.9C14.9503 29.4574 12.5861 29.3065 10.2319 29.4574C9.75902 29.4876 9.32641 29.5278 8.91392 29.5882C7.47525 29.7793 6.22771 30.2019 5.21158 30.8357C4.12503 31.5097 3.26989 32.4554 2.64613 33.6527C1.94189 35.0109 1.44892 36.5501 1.20747 38.1196L1.19739 38.1498L0.432776 41.0372ZM11.9925 28.733C11.3888 28.733 10.7852 28.7531 10.1815 28.7934C9.68857 28.8235 9.24592 28.8638 8.81331 28.9242C5.61403 29.3568 3.33027 30.8457 2.03245 33.3408C1.47911 34.4072 0.885523 35.8962 0.734614 37.6065C0.99619 36.1276 1.48917 34.6889 2.15317 33.4011C2.81717 32.1234 3.7528 31.1073 4.90978 30.383C5.99633 29.7089 7.31426 29.2662 8.83342 29.055C9.25597 28.9946 9.7087 28.9543 10.1916 28.9242C12.586 28.7733 15.0006 28.9242 17.3548 29.3769C17.5661 29.4171 17.7773 29.4574 17.9886 29.4976C19.8297 29.8296 21.7412 30.1717 22.9284 31.6104C23.5421 32.3548 24.0753 33.3408 24.4777 34.4776C24.5683 34.7292 24.6689 34.9807 24.7695 35.2221C24.85 35.4334 24.9607 35.6447 25.0713 35.8459C25.1015 35.9063 25.1317 35.9666 25.1619 36.027C25.0814 35.6849 24.9808 35.3831 24.9003 35.1718C24.7997 34.9203 24.6991 34.6789 24.6186 34.4273C24.2162 33.2704 23.6729 32.2643 23.0491 31.5097C21.8217 30.0409 19.8096 29.6787 18.0289 29.3568C17.8075 29.3165 17.6063 29.2763 17.395 29.236C15.6143 28.904 13.8034 28.733 11.9925 28.733Z" fill="#6E8604"/>
<defs>
<linearGradient id="paint0_linear_78_5666" x1="11.4113" y1="23.304" x2="29.973" y2="-22.0607" gradientUnits="userSpaceOnUse">
<stop offset="0.1599" stop-color="#BFAB8D"/>
<stop offset="0.5078" stop-color="#E7E1D2"/>
<stop offset="0.7297" stop-color="#CCBFA6"/>
</linearGradient>
<linearGradient id="paint1_linear_78_5666" x1="24.2985" y1="17.3016" x2="3.38826" y2="18.247" gradientUnits="userSpaceOnUse">
<stop offset="0.1599" stop-color="#BFAB8D"/>
<stop offset="0.5078" stop-color="#E7E1D2"/>
<stop offset="0.7297" stop-color="#CCBFA6"/>
</linearGradient>
<linearGradient id="paint2_linear_78_5666" x1="31.3251" y1="40.965" x2="-3.49707" y2="37.3081" gradientUnits="userSpaceOnUse">
<stop stop-color="#94938C"/>
<stop offset="0.2296" stop-color="#EDEBE1"/>
<stop offset="0.7988" stop-color="#EDEBE1"/>
<stop offset="1" stop-color="#94938C"/>
</linearGradient>
</defs>
</svg>
