<svg width="24" height="43" viewBox="0 0 24 43" fill="none" xmlns="http://www.w3.org/2000/svg">
<path d="M14.0144 4.28458C14.5376 2.54409 16.3284 2.76541 16.9421 4.33487C18.1192 7.36312 17.5155 10.7737 16.9119 13.8522C16.6302 15.2809 16.097 20.5728 14.0748 20.7438C12.0727 20.9148 8.41061 16.2064 10.0807 13.5907C10.9861 12.1721 11.9721 10.7938 12.7166 9.27465C13.5114 7.6247 13.5013 5.99489 14.0144 4.28458Z" fill="url(#paint0_linear_78_5900)"/>
<path d="M3.55017 27.5834C3.62059 27.6236 3.8218 27.1508 4.01295 27.1709C4.2544 27.2011 4.56629 27.1106 4.80775 27.0904C5.65284 27.01 6.49793 26.9295 7.34302 26.8691C9.69721 26.688 12.0615 26.5874 14.4157 26.6276C16.0555 26.6578 17.7256 26.7484 19.3353 27.0904C20.3313 27.3017 21.6392 27.6136 22.2429 28.5191C22.2429 28.5191 20.8746 23.0058 21.8505 18.7502C22.8264 14.5046 24.1343 3.06561 21.5285 2.73361C19.8887 2.5324 18.6412 6.35545 18.2186 7.41182C17.0818 10.2288 16.1964 13.247 15.3815 16.2048C15.3614 16.2853 15.3312 16.3759 15.2809 16.4463C14.8382 17.06 13.309 17.3014 12.7154 16.8889C12.2225 16.5469 12.1017 15.8829 12.0212 15.2792C11.8804 14.2229 11.7395 13.1564 11.5886 12.1001C11.2466 9.58491 10.9045 7.04962 10.9649 4.50428C10.985 3.8101 11.7798 0.248628 10.0795 1.09372C7.23236 2.52233 5.60255 6.45605 4.81782 9.28309C3.75139 13.1061 3.71115 17.1908 3.56024 21.1245C3.48981 22.9253 3.39926 24.7564 3.51999 26.5673C3.56023 26.9395 3.45962 27.5331 3.55017 27.5834Z" fill="url(#paint1_linear_78_5900)"/>
<path d="M4.6465 26.436C5.52177 25.8324 6.69889 25.7519 7.71501 25.5507C9.24423 25.2388 10.7936 24.9873 12.363 24.8967C15.8038 24.6854 19.5966 25.3193 21.9106 28.1262C22.7255 29.1121 23.299 30.2993 23.5907 31.5468C23.9127 32.9553 23.6511 33.8607 23.2084 35.1887C22.7959 36.4061 22.2627 37.724 21.5987 38.8206C20.8844 40.0179 19.7375 41.044 18.2887 41.0239C16.7293 41.0038 15.2001 40.3901 14.1538 39.2029C14.1035 39.1426 14.0432 39.0722 13.9627 39.042C13.8721 39.0017 13.7715 39.0219 13.6709 39.042C11.5682 39.5249 9.46557 40.8931 7.52386 41.8288C6.59828 42.2714 6.06506 42.4123 5.12942 41.9193C3.96238 41.3056 2.84565 40.5511 1.98043 39.5551C-0.585035 36.5972 0.390857 32.402 2.2722 29.3636C2.86578 28.3978 3.60019 27.2912 4.48552 26.5668C4.53583 26.5064 4.59619 26.4662 4.6465 26.436Z" fill="url(#paint2_linear_78_5900)"/>
<path d="M0.823648 33.9444L0.431269 35.5239C0.0992675 32.8881 0.924263 30.5238 1.61845 29.0751C2.86597 26.4895 5.04911 24.9502 8.10754 24.5075C8.50997 24.4472 8.93251 24.4069 9.3953 24.3767C11.6489 24.2258 13.9125 24.3768 16.1359 24.8395C16.3271 24.8798 16.5182 24.92 16.7194 24.9603C18.4096 25.2923 20.2507 25.4231 21.448 26.9623C22.0516 27.737 22.444 28.1394 22.7659 29.5479C22.7659 29.5479 21.5989 28.3507 21.0455 27.6364C19.9992 26.2782 18.2789 25.9462 16.6088 25.6243C16.4176 25.584 16.2164 25.5438 16.0152 25.5035C13.8421 25.0609 8.49991 25.4935 8.10754 25.5539C6.72923 25.7551 5.62256 25.8154 4.64668 26.4794C3.60037 27.1837 2.77541 28.1596 2.17177 29.397C1.51783 30.7753 1.04498 32.3448 0.823648 33.9444Z" fill="#6E8604"/>
<path d="M0.351298 37.0011L0.170214 35.5624C-0.171848 32.8863 0.643056 30.5019 1.38754 28.9626C2.67531 26.2865 4.92888 24.7069 8.07786 24.2442C8.49035 24.1838 8.91288 24.1436 9.38573 24.1033C11.6594 23.9524 13.9533 24.1033 16.2069 24.5661C16.398 24.6063 16.5892 24.6466 16.7904 24.6768C17.0017 24.717 17.223 24.7573 17.4443 24.7975C18.9836 25.0691 20.5832 25.3609 21.6798 26.7895C21.7402 26.8599 21.7905 26.9303 21.8408 27.0008C22.364 27.6648 22.7463 28.1477 23.038 29.4857L23.2493 30.4214L22.5753 29.7373C22.5249 29.687 21.3881 28.5199 20.8347 27.8056C19.8488 26.538 18.1787 26.206 16.559 25.8941C16.3578 25.8539 16.1566 25.8136 15.9654 25.7734C13.8325 25.3307 8.45011 25.7834 8.1483 25.8237C7.95714 25.8539 7.77603 25.874 7.59494 25.9042C6.47821 26.0551 5.59288 26.1758 4.79808 26.709C3.79202 27.3831 2.99724 28.3288 2.42379 29.5159C1.76985 30.8741 1.30705 32.4134 1.09578 33.9829L1.08571 34.013L0.351298 37.0011ZM11.086 24.5963C10.5327 24.5963 9.96928 24.6164 9.41595 24.6566C8.96322 24.6868 8.54066 24.7271 8.1483 24.7874C5.19047 25.22 3.07774 26.699 1.87047 29.2041C1.40768 30.1598 0.91468 31.4677 0.713467 32.9667C0.975043 31.6689 1.38755 30.4113 1.93083 29.2845C2.54453 28.0068 3.40973 26.9907 4.49628 26.2563C5.39167 25.6527 6.37762 25.5219 7.51447 25.3709C7.69556 25.3508 7.87664 25.3206 8.06779 25.2905C8.37967 25.2402 13.8225 24.7874 16.066 25.2502C16.2572 25.2905 16.4584 25.3307 16.6495 25.3709C18.3699 25.7029 20.1406 26.0551 21.2472 27.4837C21.4786 27.7855 21.8207 28.1678 22.1427 28.5199C21.9414 28.0571 21.6899 27.7453 21.3881 27.3529C21.3378 27.2825 21.2774 27.212 21.2171 27.1416C20.2412 25.874 18.8226 25.6225 17.3135 25.3609C17.0922 25.3206 16.8709 25.2804 16.6495 25.2402C16.4483 25.1999 16.2572 25.1597 16.066 25.1194C14.4362 24.7673 12.7561 24.5963 11.086 24.5963Z" fill="#6E8604"/>
<defs>
<linearGradient id="paint0_linear_78_5900" x1="11.3296" y1="20.031" x2="25.0169" y2="-13.4207" gradientUnits="userSpaceOnUse">
<stop offset="0.1599" stop-color="#BFAB8D"/>
<stop offset="0.5078" stop-color="#E7E1D2"/>
<stop offset="0.7297" stop-color="#CCBFA6"/>
</linearGradient>
<linearGradient id="paint1_linear_78_5900" x1="22.3946" y1="17.0327" x2="4.70584" y2="13.6773" gradientUnits="userSpaceOnUse">
<stop offset="0.1599" stop-color="#BFAB8D"/>
<stop offset="0.5078" stop-color="#E7E1D2"/>
<stop offset="0.7297" stop-color="#CCBFA6"/>
</linearGradient>
<linearGradient id="paint2_linear_78_5900" x1="-4.82037" y1="33.5009" x2="28.4646" y2="33.5854" gradientUnits="userSpaceOnUse">
<stop stop-color="#94938C"/>
<stop offset="0.2296" stop-color="#EDEBE1"/>
<stop offset="0.7988" stop-color="#EDEBE1"/>
<stop offset="1" stop-color="#94938C"/>
</linearGradient>
</defs>
</svg>
