<svg width="26" height="40" viewBox="0 0 26 40" fill="none" xmlns="http://www.w3.org/2000/svg">
<path d="M9.57235 36.6897C9.28059 38.5409 10.4677 39.0338 11.3933 37.7863C13.1942 35.3718 14.0192 31.9008 14.7435 28.7418C15.0755 27.2729 16.6148 22.0515 15.4377 21.1058C14.2606 20.1701 10.347 23.2084 10.4376 26.3373C10.4879 28.0375 10.6086 29.7277 10.5281 31.4582C10.4476 33.3294 9.86411 34.8788 9.57235 36.6897Z" fill="url(#paint0_linear_78_5901)"/>
<path d="M22.047 13.3824C22.047 13.3824 20.7391 16.9741 20.7391 20.8977C20.7391 24.8214 21.0611 29.7209 18.7773 33.3126C16.4935 36.9042 15.8396 38.5441 15.8396 38.5441C15.8396 38.5441 13.8778 40.8279 12.9019 38.2222C12.9019 38.2222 15.1856 30.3749 13.8778 26.4512C12.5699 22.5276 11.262 23.8354 10.9401 24.4894C10.6181 25.1433 6.04052 32.6586 5.38658 34.6204C4.73264 36.5823 3.75675 38.5441 3.10281 38.5441C2.44887 38.5441 1.47299 36.9143 0.819044 33.9665C0.165102 31.0288 0.819047 27.7591 2.12693 25.4653C3.43481 23.1815 4.7427 13.0504 4.7427 11.4106C4.72258 9.79079 20.4071 12.7285 22.047 13.3824Z" fill="url(#paint1_linear_78_5901)"/>
<path d="M14.4916 3.11877C14.8035 3.04834 15.1254 2.84712 15.4977 2.59561C16.5138 1.93161 17.5601 1.28774 18.7272 0.955736C19.8942 0.633796 21.2121 0.66398 22.2484 1.28774C22.9828 1.73041 23.5261 2.42458 23.9688 3.14895C24.6629 4.2858 25.1861 5.60374 25.0251 6.93174C24.844 8.44084 24.2404 9.92982 23.6267 11.3081C23.2544 12.1432 22.9426 13.0989 22.2685 13.7529C21.4838 14.5175 20.1658 14.6281 19.1296 14.769C16.9062 15.0809 14.6727 14.7992 12.5097 14.2861C10.3567 13.773 8.12324 13.2096 6.03062 12.4953C5.65838 12.3645 5.27608 12.2136 4.9642 11.9721C4.07886 11.288 3.89777 9.74873 3.68649 8.72255C3.36455 7.17321 3.56577 5.57356 4.19959 4.12483C5.0145 2.26361 6.5739 0.623726 8.64639 0.301786C10.1354 0.0703911 11.4432 0.382272 12.4493 1.52918C12.7813 1.91149 13.0429 2.35415 13.4051 2.70628C13.7874 3.1087 14.1294 3.19925 14.4916 3.11877Z" fill="url(#paint2_linear_78_5901)"/>
<path d="M9.68423 14.0143C7.70229 13.6823 6.63586 13.4408 6.00204 13.1792C5.31792 12.8975 5.08653 12.5756 4.78471 12.1732C4.70422 12.0625 4.61367 11.9418 4.51306 11.811C3.56736 10.6339 3.34603 7.52514 3.43658 7.09253L3.71827 6.80078C3.63779 7.1529 4.16095 10.5131 4.9658 11.5092C5.07647 11.65 5.17706 11.7808 5.25755 11.8915C5.79076 12.6259 5.97186 12.8673 9.78484 13.5112C14.2417 14.2557 17.773 14.6179 19.2318 14.4871C20.6503 14.3563 20.9924 14.2557 22.1091 13.3201C23.1454 12.4549 22.5719 13.6219 22.4814 13.6923C21.3143 14.6682 20.9019 14.8392 19.2922 14.9901C19.0708 15.0103 18.8092 15.0203 18.5074 15.0203C16.7166 15.0304 13.5878 14.6682 9.68423 14.0143Z" fill="#6E8604"/>
<path d="M18.4973 15.3023C16.6864 15.3023 13.5374 14.9401 9.6339 14.2862C7.63183 13.9542 6.55534 13.7027 5.89134 13.4411C5.12673 13.1292 4.86515 12.767 4.56333 12.3445C4.48285 12.2338 4.40236 12.1131 4.29169 11.9924C3.27557 10.7247 3.05424 7.51537 3.15484 7.05258L3.17496 6.98215L4.17097 5.92578L3.96975 6.87148C3.91945 7.23367 4.42248 10.433 5.16697 11.3585C5.2877 11.5094 5.37825 11.6402 5.46879 11.7509C5.9517 12.4149 6.11267 12.6362 9.82505 13.26C14.2618 14.0045 17.7629 14.3667 19.2016 14.2258C20.5698 14.095 20.8616 14.0145 21.928 13.1191C22.3204 12.7871 22.5618 12.6865 22.753 12.757C22.8737 12.7972 22.9542 12.9079 22.9743 13.0387C23.0246 13.3204 22.763 13.8033 22.6423 13.9139C21.435 14.9301 20.9622 15.1212 19.3022 15.2721C19.0808 15.2922 18.8092 15.3023 18.4973 15.3023ZM4.25145 10.7549C4.34199 11.0165 4.45266 11.2479 4.57339 11.439C4.46272 11.2479 4.36212 11.0064 4.25145 10.7549Z" fill="#6E8604"/>
<defs>
<linearGradient id="paint0_linear_78_5901" x1="13.17" y1="20.7027" x2="13.1448" y2="57.7716" gradientUnits="userSpaceOnUse">
<stop offset="0.1599" stop-color="#BFAB8D"/>
<stop offset="0.5078" stop-color="#E7E1D2"/>
<stop offset="0.7297" stop-color="#CCBFA6"/>
</linearGradient>
<linearGradient id="paint1_linear_78_5901" x1="20.1489" y1="25.1722" x2="3.39105" y2="25.2328" gradientUnits="userSpaceOnUse">
<stop stop-color="#BFAB8D"/>
<stop offset="0.5078" stop-color="#E7E1D2"/>
<stop offset="1" stop-color="#CCBFA6"/>
</linearGradient>
<linearGradient id="paint2_linear_78_5901" x1="31.4044" y1="7.5055" x2="-2.63531" y2="7.62855" gradientUnits="userSpaceOnUse">
<stop stop-color="#94938C"/>
<stop offset="0.2614" stop-color="#EDEBE1"/>
<stop offset="0.7687" stop-color="#EDEBE1"/>
<stop offset="1" stop-color="#94938C"/>
</linearGradient>
</defs>
</svg>
