<svg width="19" height="51" viewBox="0 0 19 51" fill="none" xmlns="http://www.w3.org/2000/svg">
<path d="M15.3163 20.495C14.5114 25.7466 13.0929 30.9983 11.2518 35.9783C9.2296 41.4513 6.69431 46.9243 1.77465 50.355C1.65393 50.4355 1.52314 50.526 1.38229 50.5361C1.23138 50.5461 1.09054 50.4657 0.979868 50.3751C0.305805 49.8721 0.0542821 48.9465 0.124707 48.1014C0.195131 47.2563 0.52713 46.4615 0.828949 45.6667C2.61975 40.8276 3.06243 35.4954 3.57552 30.3947C3.89746 27.1652 4.67213 23.2114 3.90752 19.9819C3.08255 16.5412 14.8133 19.8813 15.3163 20.495Z" fill="url(#paint0_linear_78_5773)"/>
<path d="M5.17566 0.515569C5.90002 0.183568 6.66463 0.183572 7.67069 0.425027C7.94233 0.495452 8.23409 0.596062 8.385 0.837517C9.07918 1.95425 3.36475 4.10722 2.68062 3.17158C2.2782 2.60818 3.79735 1.50152 4.11929 1.21983C4.49153 0.907947 4.8336 0.67654 5.17566 0.515569Z" fill="#D8D6D0"/>
<path d="M15.1147 0.706472C15.4568 0.807079 15.7083 0.917749 15.819 1.00829C16.3622 1.4912 16.9357 1.99423 17.1771 2.68842C17.2777 2.96005 17.2878 3.33231 17.0363 3.48321C16.9558 3.53352 16.8552 3.55363 16.7546 3.55363C15.6077 3.64418 14.2897 2.89969 13.3138 2.37654C12.9517 2.17533 11.4124 1.47109 11.4828 0.917752C11.5935 0.0625992 13.8873 0.334229 15.1147 0.706472Z" fill="#D8D6D0"/>
<path d="M17.1282 2.80761C17.1282 2.80761 19.412 4.43744 18.1041 8.69309C17.4502 14.5786 15.4883 20.464 15.4883 20.464C15.4883 20.464 14.8344 21.4399 10.2568 21.4399C5.67919 21.4399 4.37131 20.786 3.71737 19.4781C3.06342 18.1702 1.43359 5.75538 1.43359 5.75538C1.43359 5.75538 1.75553 2.81768 3.06341 2.48567C4.3713 2.16373 5.67918 1.83174 6.00112 1.83174C6.32306 1.83174 9.27084 -0.130098 10.5787 0.201903C11.9067 0.523844 15.1664 3.13961 17.1282 2.80761Z" fill="url(#paint1_linear_78_5773)"/>
<path d="M10.5552 21.7646C11.0884 21.7646 11.6116 21.7445 12.1448 21.7043C12.7585 21.654 13.3621 21.5835 13.9658 21.4729C14.4688 21.3823 15.002 21.2616 15.4246 20.9598C15.8069 20.6781 15.6459 20.0141 15.6459 20.0141C15.6459 20.0242 15.2636 20.3763 14.841 20.5272C14.2575 20.7385 12.1347 21.2616 9.33787 21.0705C9.08635 21.0503 8.83484 21.0403 8.60344 21.0202C7.69799 20.9598 6.76234 20.9397 5.86695 20.7183C5.22307 20.5574 4.28742 20.336 4.02585 19.6922C3.37191 18.1026 3.70391 18.4245 3.21094 17.4688C3.24112 17.8812 3.40208 19.1288 3.53287 19.5111C3.94536 20.7485 5.07215 21.2918 6.28949 21.493C6.99374 21.6037 7.69797 21.6238 8.40222 21.6741C9.11652 21.7345 9.83085 21.7646 10.5552 21.7646Z" fill="#6E8604"/>
<path d="M10.5161 22.0344C9.81188 22.0344 9.09758 22.0042 8.38327 21.9539C8.172 21.9338 7.96072 21.9237 7.7595 21.9137C7.26653 21.8835 6.75344 21.8533 6.24035 21.7728C4.69101 21.5213 3.66483 20.7668 3.2624 19.6098C3.12156 19.1872 2.96058 17.9196 2.9304 17.497L2.83984 16.1992L3.44349 17.3461C3.70507 17.8492 3.75536 18.0303 3.81573 18.2818C3.87609 18.5132 3.94653 18.815 4.26847 19.5897C4.46968 20.0927 5.28459 20.2939 5.87817 20.4448L5.92847 20.4549C6.65284 20.636 7.43756 20.6863 8.20217 20.7265C8.34302 20.7366 8.47382 20.7466 8.61466 20.7466H8.62472C8.85611 20.7567 9.09757 20.7768 9.34909 20.7969C12.0956 20.978 14.1681 20.4851 14.7315 20.2738C15.0032 20.1732 15.2648 19.972 15.3754 19.8814L15.5565 18.5836L15.8885 19.9518C15.8986 19.982 16.0897 20.807 15.5666 21.1893C15.0837 21.5414 14.5002 21.6622 13.9971 21.7527C13.3532 21.8634 12.7496 21.9439 12.1459 21.9841C11.6329 22.0243 11.0996 22.0445 10.5363 22.0445C10.5363 22.0344 10.5262 22.0344 10.5161 22.0344ZM4.7212 20.646C5.13368 20.9277 5.67695 21.1189 6.32084 21.2296C6.80375 21.31 7.29672 21.3402 7.77963 21.3704C7.9909 21.3805 8.20218 21.4006 8.41345 21.4106C9.12776 21.471 9.84206 21.4911 10.5463 21.4911C11.0896 21.4911 11.6127 21.471 12.1158 21.4308C12.6993 21.3905 13.2828 21.31 13.9066 21.1994C14.3492 21.1189 14.8623 21.0183 15.2547 20.7366C15.3151 20.6963 15.3452 20.6259 15.3654 20.5555C15.2346 20.636 15.0837 20.7164 14.9227 20.7768C14.3291 20.9981 12.156 21.5314 9.30885 21.3302C9.05734 21.31 8.81588 21.3 8.58448 21.2798H8.57443C8.44364 21.2698 8.30278 21.2597 8.17199 21.2597C7.38726 21.2195 6.58241 21.1692 5.79768 20.978L5.74737 20.968C5.43549 20.8875 5.06326 20.7869 4.7212 20.646Z" fill="#6E8604"/>
<defs>
<linearGradient id="paint0_linear_78_5773" x1="12.0891" y1="34.4653" x2="1.72264" y2="34.5028" gradientUnits="userSpaceOnUse">
<stop stop-color="#BFAB8D"/>
<stop offset="0.5078" stop-color="#E7E1D2"/>
<stop offset="1" stop-color="#CCBFA6"/>
</linearGradient>
<linearGradient id="paint1_linear_78_5773" x1="22.1503" y1="10.7548" x2="-1.9815" y2="10.842" gradientUnits="userSpaceOnUse">
<stop stop-color="#94938C"/>
<stop offset="0.2296" stop-color="#EDEBE1"/>
<stop offset="0.7988" stop-color="#EDEBE1"/>
<stop offset="1" stop-color="#94938C"/>
</linearGradient>
</defs>
</svg>
