<svg width="19" height="51" viewBox="0 0 19 51" fill="none" xmlns="http://www.w3.org/2000/svg">
<path d="M3.23047 20.5424C4.03532 25.7941 5.45388 31.0458 7.29499 36.0258C9.31718 41.4988 11.8524 46.9718 16.7721 50.4024C16.8928 50.4829 17.0236 50.5735 17.1645 50.5835C17.3154 50.5936 17.4562 50.5131 17.5669 50.4226C18.241 49.9195 18.4925 48.9939 18.4221 48.1489C18.3517 47.3038 18.0196 46.509 17.7178 45.7142C15.927 40.875 15.4844 35.5429 14.9713 30.4421C14.6493 27.2126 13.8746 23.2588 14.6393 20.0293C15.4642 16.5785 3.7335 19.9287 3.23047 20.5424Z" fill="url(#paint0_linear_78_5763)"/>
<path d="M13.3614 0.562444C12.6371 0.230443 11.8725 0.230447 10.8664 0.471902C10.5948 0.542327 10.303 0.642937 10.1521 0.884392C9.45793 2.00112 15.1724 4.15409 15.8565 3.21845C16.2589 2.65506 14.7397 1.54838 14.4178 1.26669C14.0556 0.944746 13.7136 0.713354 13.3614 0.562444Z" fill="#D8D6D0"/>
<path d="M3.42955 0.741874C3.08749 0.842481 2.83596 0.953136 2.7253 1.04368C2.18202 1.52659 1.60856 2.02964 1.3671 2.72383C1.26649 2.99547 1.25645 3.3677 1.50796 3.51861C1.58845 3.56892 1.68905 3.58905 1.78966 3.58905C2.93658 3.67959 4.25451 2.93509 5.23039 2.41193C5.59258 2.21072 7.13187 1.50648 7.06144 0.95314C6.95077 0.0979826 4.65696 0.37969 3.42955 0.741874Z" fill="#D8D6D0"/>
<path d="M1.41925 2.85448C1.41925 2.85448 -0.864518 4.48431 0.443366 8.73997C1.09731 14.6254 3.05914 20.5109 3.05914 20.5109C3.05914 20.5109 3.71306 21.4868 8.29066 21.4868C12.8682 21.4868 14.1761 20.8329 14.8301 19.525C15.484 18.2171 17.1139 5.80226 17.1139 5.80226C17.1139 5.80226 16.7919 2.86455 15.484 2.53255C14.1761 2.21061 12.8683 1.8786 12.5463 1.8786C12.2244 1.8786 9.27659 -0.0832228 7.96871 0.248778C6.6407 0.560658 3.37101 3.17642 1.41925 2.85448Z" fill="url(#paint1_linear_78_5763)"/>
<path d="M7.99932 21.8076C7.4661 21.8076 6.94296 21.7875 6.40975 21.7472C5.79605 21.6969 5.19242 21.6265 4.58878 21.5158C4.08575 21.4253 3.55252 21.3046 3.12997 21.0028C2.74767 20.7211 2.90864 20.0571 2.90864 20.0571C2.90864 20.0671 3.29096 20.4192 3.71351 20.5701C4.29702 20.7814 6.41982 21.3046 9.21668 21.1134C9.46819 21.0933 9.71969 21.0832 9.95108 21.0631C10.8565 21.0028 11.7922 20.9826 12.6876 20.7613C13.3315 20.6003 14.2671 20.379 14.5287 19.7351C15.1826 18.1455 14.8506 18.4675 15.3436 17.5117C15.3134 17.9242 15.1524 19.1717 15.0216 19.554C14.6092 20.7915 13.4824 21.3348 12.265 21.536C11.5608 21.6466 10.8566 21.6668 10.1523 21.7171C9.438 21.7774 8.72368 21.8076 7.99932 21.8076Z" fill="#6E8604"/>
<path d="M8.04021 22.0796C8.03015 22.0796 8.01002 22.0796 7.99996 22.0796C7.44662 22.0796 6.90337 22.0595 6.39028 22.0192C5.78664 21.979 5.18301 21.8985 4.53912 21.7879C4.03609 21.6973 3.45255 21.5766 2.96964 21.2245C2.44648 20.8422 2.63766 20.0272 2.64772 19.987L2.97971 18.6187L3.16079 19.9166C3.27146 20.0071 3.53305 20.2083 3.80469 20.3089C4.36808 20.5202 6.44058 21.0232 9.18714 20.8321C9.43866 20.812 9.68011 20.8019 9.91151 20.7818H9.92155C10.0624 20.7717 10.1932 20.7617 10.334 20.7617C11.0886 20.7214 11.8733 20.6711 12.6078 20.49L12.658 20.48C13.2516 20.3291 14.0665 20.1278 14.2678 19.6248C14.5897 18.8501 14.6601 18.5383 14.7205 18.3169C14.7809 18.0654 14.8312 17.8843 15.0927 17.3813L15.6964 16.2344L15.6058 17.5322C15.5757 17.9547 15.4147 19.2224 15.2738 19.6449C14.8815 20.812 13.8553 21.5564 12.2959 21.808C11.7928 21.8884 11.2797 21.9186 10.7767 21.9488C10.5755 21.9589 10.3642 21.979 10.153 21.9891C9.45877 22.0494 8.74446 22.0796 8.04021 22.0796ZM7.99996 21.5363C8.69414 21.5363 9.41854 21.5062 10.1328 21.4559C10.3441 21.4357 10.5554 21.4257 10.7666 21.4156C11.2495 21.3854 11.7526 21.3552 12.2254 21.2748C12.8794 21.1641 13.4126 20.9729 13.8251 20.6912C13.483 20.8422 13.1108 20.9327 12.7989 21.0132L12.7486 21.0232C11.9739 21.2144 11.159 21.2647 10.3743 21.3049C10.2334 21.315 10.1027 21.3251 9.97187 21.3251H9.9618C9.7304 21.3351 9.48895 21.3552 9.23743 21.3754C6.40033 21.5665 4.22724 21.0333 3.6236 20.822C3.46263 20.7617 3.30166 20.6812 3.18093 20.6007C3.20105 20.6812 3.24128 20.7415 3.29158 20.7818C3.67389 21.0635 4.18698 21.1741 4.63971 21.2446C5.26347 21.3552 5.85704 21.4257 6.4305 21.476C6.93353 21.5162 7.45668 21.5363 7.99996 21.5363Z" fill="#6E8604"/>
<defs>
<linearGradient id="paint0_linear_78_5763" x1="6.45713" y1="34.5078" x2="16.8234" y2="34.5453" gradientUnits="userSpaceOnUse">
<stop stop-color="#BFAB8D"/>
<stop offset="0.5078" stop-color="#E7E1D2"/>
<stop offset="1" stop-color="#CCBFA6"/>
</linearGradient>
<linearGradient id="paint1_linear_78_5763" x1="-3.60333" y1="10.7968" x2="20.5283" y2="10.884" gradientUnits="userSpaceOnUse">
<stop stop-color="#94938C"/>
<stop offset="0.2296" stop-color="#EDEBE1"/>
<stop offset="0.7988" stop-color="#EDEBE1"/>
<stop offset="1" stop-color="#94938C"/>
</linearGradient>
</defs>
</svg>
