<svg width="27" height="48" viewBox="0 0 27 48" fill="none" xmlns="http://www.w3.org/2000/svg">
<path d="M16.0699 42.2122C16.2711 44.174 15.0035 44.6167 14.098 43.2484C12.3575 40.6126 11.6835 36.9404 11.11 33.5802C10.8484 32.0308 9.53048 26.4673 10.8283 25.5417C12.106 24.6262 16.0397 28.0368 15.758 31.3065C15.6071 33.0872 15.3757 34.8478 15.3657 36.6587C15.3455 38.6407 15.8687 40.3007 16.0699 42.2122Z" fill="url(#paint0_linear_78_5797)"/>
<path d="M4.4375 19.9576C5.12162 21.9195 5.67498 23.9618 5.99692 26.0141C6.20819 27.3925 6.17801 28.6199 5.96674 29.9881C5.61461 32.2819 5.58443 34.6764 5.68504 36.9903C5.83595 40.6021 7.57644 43.3185 8.95475 46.5681C9.46784 47.7653 10.6449 48.389 11.7114 47.2924C13.0695 45.9041 12.6973 42.9764 12.7577 41.2057C12.8281 38.7912 12.8784 36.3565 13.3613 33.9721C13.5726 32.9459 13.8643 31.9298 14.3976 31.0244C14.9308 30.129 15.9167 29.6963 16.8523 30.3402C18.1099 31.1954 18.3916 33.0767 18.8242 34.4047C19.2267 35.6523 19.5989 36.9199 19.951 38.1875C20.454 39.9783 20.9168 41.7792 21.3998 43.58C21.601 44.3245 22.2448 46.0751 23.3414 45.3105C23.7137 45.0489 23.8948 44.6062 24.0457 44.1837C24.5487 42.7953 24.9511 41.3667 25.3536 39.9481C25.8968 38.0467 26.3898 36.1452 26.5005 34.1633C26.6615 31.457 25.595 28.7909 25.0719 26.1651C24.5185 23.3783 24.1765 20.5613 24.0356 17.7242C24.0256 17.533 24.0155 17.3318 23.8847 17.201C23.7137 17.0199 23.422 17.03 23.1704 17.0602C20.1019 17.4123 17.0234 17.694 13.9549 18.0863C11.8824 18.3479 9.79982 18.6196 7.73739 18.9918C6.84199 19.1628 5.14174 19.2534 4.4375 19.9576Z" fill="url(#paint1_linear_78_5797)"/>
<path d="M2.03467 15.7125C1.93406 14.4851 1.96424 13.2477 1.72279 12.0303C1.3606 10.1389 0.404851 8.48899 0.535639 6.48693C0.85758 1.66788 7.5982 1.28558 10.9886 2.62364C12.3971 3.17698 12.9806 2.65382 14.1577 1.90933C15.4455 1.09442 16.9546 0.671875 18.4738 0.671875C20.2042 0.671875 22.1258 1.16484 23.6047 2.08036C25.7979 3.42849 25.7979 5.64183 25.9488 7.96584C26.1198 10.5313 26.0595 13.1773 25.2043 15.6421C24.9428 16.3967 24.6007 17.1311 24.0574 17.7146C23.2827 18.5396 22.3069 18.6502 21.2706 18.8917C19.8521 19.2237 18.4134 19.4953 16.9848 19.767C14.1778 20.3002 11.3407 20.7328 8.49358 20.8737C7.13539 20.9441 5.73696 20.8032 4.52969 20.1795C2.79925 19.2639 2.19564 17.5637 2.03467 15.7125Z" fill="url(#paint2_linear_78_5797)"/>
<path d="M7.92051 21.1835C7.54826 21.1835 7.2263 21.1734 6.95466 21.1432C4.98278 20.942 4.4697 20.7207 3.04109 19.4128C1.54205 18.0345 1.78352 15.2175 1.79358 15.0767L2.02495 14.8453C2.02495 14.8855 2.23623 17.7427 3.50387 18.9098C4.87212 20.1573 5.29466 20.2881 7.0251 20.4692C8.81589 20.6503 13.152 20.1674 18.6049 19.1714C23.2831 18.3162 23.5044 17.9842 24.1584 17.0083C24.259 16.8574 24.3697 16.6864 24.5105 16.4952C25.4964 15.1572 26.1101 11.2033 26.0196 10.7305L26.4321 10.8713C26.5428 11.4448 26.2208 15.3282 25.0638 16.9077C24.933 17.0888 24.8324 17.2397 24.7218 17.4007C24.3596 17.944 24.0779 18.3665 23.2328 18.7387C22.4481 19.0808 21.1502 19.4027 18.7256 19.8454C13.9368 20.7106 10.1037 21.1835 7.92051 21.1835Z" fill="#6E8604"/>
<path d="M7.92005 21.4552C7.53775 21.4552 7.20573 21.4451 6.92403 21.415C4.89178 21.2138 4.32841 20.9522 2.85956 19.6141C1.48125 18.3465 1.46111 16.0325 1.52147 15.0969C1.52147 15.0868 1.52147 15.0768 1.52147 15.0667V14.956L1.82331 14.6542L2.3062 14.1713L2.28609 14.8454C2.29615 14.9762 2.35651 15.6703 2.55772 16.4349C2.81929 17.4913 3.21165 18.276 3.6845 18.7086C5.00245 19.9159 5.36464 20.0266 7.05482 20.1976C8.82549 20.3787 13.1214 19.8958 18.5541 18.8998C23.1216 18.0648 23.3229 17.763 23.9265 16.8575C24.0271 16.7066 24.1478 16.5255 24.2887 16.3343C25.2243 15.0566 25.828 11.1833 25.7475 10.7809L25.6569 10.3281L26.6529 10.6601L26.6831 10.811C26.7535 11.1531 26.6831 12.3403 26.4719 13.5475C26.2807 14.6542 25.9185 16.1633 25.2646 17.0587C25.1338 17.2297 25.0332 17.3907 24.9326 17.5416C24.5603 18.095 24.2484 18.5779 23.3329 18.9803C22.5281 19.3324 21.2101 19.6644 18.7654 20.1071C13.9866 20.9723 10.1334 21.4552 7.92005 21.4552ZM2.18548 17.1392C2.33639 17.8937 2.63821 18.6785 3.22172 19.2117C4.61009 20.4793 5.06283 20.6805 6.97435 20.8717C7.23593 20.9019 7.5478 20.9119 7.90998 20.9119C10.0931 20.9119 13.9162 20.429 18.6648 19.5638C21.0693 19.1211 22.357 18.8093 23.1116 18.4672C23.8862 18.1251 24.1378 17.7428 24.4798 17.2197C24.5804 17.0587 24.6911 16.8977 24.8219 16.7166C25.496 15.8011 25.8682 14.0405 26.0493 12.6924C26.0091 12.9037 25.9688 13.1149 25.9185 13.3262C25.7274 14.2115 25.3149 15.8313 24.7112 16.6362C24.5805 16.8172 24.4597 16.9883 24.3591 17.1392C23.6146 18.2559 23.2323 18.5779 18.6245 19.423C13.1415 20.429 8.78525 20.9119 6.96428 20.7308C5.18355 20.5498 4.71069 20.3988 3.28208 19.101C2.77905 18.6181 2.41687 17.8736 2.18548 17.1392Z" fill="#6E8604"/>
<defs>
<linearGradient id="paint0_linear_78_5797" x1="12.8898" y1="25.2951" x2="10.7803" y2="64.0998" gradientUnits="userSpaceOnUse">
<stop offset="0.1599" stop-color="#BFAB8D"/>
<stop offset="0.5078" stop-color="#E7E1D2"/>
<stop offset="0.7297" stop-color="#CCBFA6"/>
</linearGradient>
<linearGradient id="paint1_linear_78_5797" x1="6.96443" y1="33.8446" x2="24.4584" y2="30.4405" gradientUnits="userSpaceOnUse">
<stop stop-color="#BFAB8D"/>
<stop offset="0.5078" stop-color="#E7E1D2"/>
<stop offset="1" stop-color="#CCBFA6"/>
</linearGradient>
<linearGradient id="paint2_linear_78_5797" x1="-3.53852" y1="13.7929" x2="29.7594" y2="7.31342" gradientUnits="userSpaceOnUse">
<stop stop-color="#94938C"/>
<stop offset="0.2114" stop-color="#EDEBE1"/>
<stop offset="0.847" stop-color="#EDEBE1"/>
<stop offset="1" stop-color="#94938C"/>
</linearGradient>
</defs>
</svg>
