<svg width="19" height="55" viewBox="0 0 19 55" fill="none" xmlns="http://www.w3.org/2000/svg">
<path d="M9.45204 53.9797C9.45204 53.9797 4.15008 55.0763 2.2788 52.3197C0.407518 49.5631 8.81822 52.3197 9.45204 53.9797Z" fill="#D8D6D0"/>
<path d="M10.2266 54.2221C10.2266 54.2221 15.8706 54.6043 17.269 50.9423C18.6674 47.2802 10.5586 52.0993 10.2266 54.2221Z" fill="#D8D6D0"/>
<path d="M12.4789 33.6878C12.5594 33.7281 12.6399 33.7784 12.7204 33.8287C14.1591 34.8348 15.3663 36.4646 16.2819 37.9334C17.6702 40.1669 18.6662 42.7324 18.3946 45.3984C18.2135 47.2194 18.0123 49.3221 17.0968 50.962C16.5635 51.9177 15.3663 52.3604 14.3905 52.6924C13.5554 52.9842 12.7103 53.2558 11.8954 53.5878C11.1409 53.8997 10.3964 54.4228 9.54122 54.3524C8.56534 54.2719 7.88122 53.5073 7.09649 53.0043C5.86909 52.2195 4.39017 51.8272 2.94144 51.8976C2.68992 51.9077 2.41829 51.9378 2.17683 51.8574C1.81465 51.7467 1.55307 51.4449 1.3418 51.133C0.375975 49.7245 0.406154 48.3663 0.396094 46.7365C0.386033 45.0765 0.416211 43.4064 0.738152 41.7766C1.30155 38.8691 3.22313 36.4545 4.23925 33.708C4.29962 33.547 4.35998 33.386 4.46059 33.2552C4.64168 33.0339 4.94351 32.9333 5.22521 32.9132C5.76848 32.8729 6.31176 32.9534 6.84497 33.0138C7.8611 33.1245 8.84704 33.2351 9.86317 33.3055C10.668 33.376 11.7344 33.3156 12.4789 33.6878Z" fill="url(#paint0_linear_78_5660)"/>
<path d="M14.6211 35.598C14.5808 35.6282 14.5406 35.6483 14.4903 35.6684C14.2186 35.7389 13.4037 35.3364 13.112 35.266C12.1461 35.0145 11.1702 34.8032 10.1944 34.6322C9.15812 34.4511 8.10176 34.27 7.04539 34.26C6.482 34.26 5.9186 34.2901 5.37532 34.4109C4.89241 34.5215 4.35919 34.8535 3.90646 34.8938C3.57446 33.5859 3.90646 32.0567 3.98695 30.7287C4.07749 29.2498 4.20829 27.7708 4.38938 26.302C4.73144 23.5454 5.42563 20.8894 5.92866 18.1629C6.42163 15.517 6.55242 12.7101 6.49205 10.0138C6.46187 8.74616 6.39145 7.46846 6.24054 6.21088C6.11981 5.13439 5.80792 4.16857 5.91859 3.05183C6.02926 1.91498 6.56248 0.204676 8.06151 0.667466C9.18831 1.01959 9.89256 2.25704 10.456 3.20274C11.5425 4.99354 12.3272 6.95537 13.0516 8.9172C13.776 10.879 14.45 12.8811 14.8223 14.9435C15.1543 16.7444 15.114 18.505 15.0838 20.326C15.0335 23.2134 14.9631 26.0907 14.8927 28.9781C14.8424 30.8393 14.9531 32.781 14.8021 34.6624C14.7921 35.0044 14.8424 35.427 14.6211 35.598Z" fill="url(#paint1_linear_78_5660)"/>
<path d="M18.4488 43.9384C18.4488 43.9384 18.3683 42.1778 17.4528 39.9444C16.6379 37.9523 15.2797 35.6585 13.4587 34.9543C12.3017 34.5116 10.2292 34.2198 8.88109 33.9985C7.96557 33.8476 4.25318 34.2299 3.80045 34.6323C3.34772 35.0348 2.02978 37.9926 2.17063 38.0831C3.03585 36.7652 3.43827 35.7289 4.66567 35.0851C5.89307 34.4412 8.51891 34.572 9.39419 34.7027C10.7121 34.914 11.8892 35.1152 12.9858 35.5479C14.3843 36.0911 15.3098 37.4091 16.3662 39.1697C17.2415 40.6385 17.5735 42.1175 18.4488 43.9384Z" fill="#6E8604"/>
<path d="M18.782 45.2651L18.1985 44.0578C17.8162 43.263 17.5446 42.5487 17.2729 41.8546C16.9309 40.9692 16.6089 40.1342 16.1159 39.3092C15.1501 37.7096 14.2447 36.3313 12.8663 35.8081C11.7899 35.3956 10.6329 35.1844 9.33504 34.9831C8.45977 34.8423 5.90437 34.7417 4.76751 35.3353C3.87212 35.7981 3.42944 36.5224 2.87611 37.4279C2.71514 37.6895 2.55416 37.951 2.37307 38.2327L2.22217 38.4641L1.99078 38.3132C1.95054 38.283 1.87005 38.2126 1.85998 38.0818C1.83986 37.8001 2.32277 36.7236 2.53405 36.2709C2.79562 35.7075 3.2886 34.7115 3.59042 34.4399C4.16388 33.9268 7.99699 33.5948 8.89239 33.7356C9.0433 33.7557 9.20427 33.7859 9.36524 33.806C10.6731 34.0073 12.474 34.289 13.5303 34.7014C14.4056 35.0435 15.2507 35.7478 16.0254 36.8041C16.629 37.6291 17.2025 38.6754 17.6753 39.8424C18.6009 42.096 18.6915 43.8566 18.6915 43.927L18.782 45.2651ZM7.63481 34.3292C8.39942 34.3292 9.08354 34.3896 9.4256 34.4399C10.7536 34.6511 11.9508 34.8624 13.0676 35.295C14.6068 35.8886 15.5727 37.3373 16.5888 39.0275C17.0214 39.7519 17.3333 40.4863 17.625 41.2409C17.5043 40.8586 17.3635 40.4561 17.1924 40.0336C16.5787 38.5446 15.2708 35.9288 13.3492 35.1944C12.3432 34.8121 10.5826 34.5304 9.29481 34.3292C9.13384 34.299 8.97287 34.2789 8.82196 34.2588C8.41953 34.1984 7.31286 34.2387 6.18607 34.3694C4.75746 34.5304 4.07333 34.7316 3.96266 34.8322C3.84193 34.9429 3.65079 35.2648 3.43951 35.6773C3.73127 35.3554 4.07333 35.0737 4.516 34.8423C5.31079 34.4499 6.56838 34.3292 7.63481 34.3292Z" fill="#6E8604"/>
<defs>
<linearGradient id="paint0_linear_78_5660" x1="-5.54673" y1="44.0486" x2="24.6892" y2="43.1172" gradientUnits="userSpaceOnUse">
<stop stop-color="#94938C"/>
<stop offset="0.2666" stop-color="#EDEBE1"/>
<stop offset="0.7117" stop-color="#EDEBE1"/>
<stop offset="1" stop-color="#94938C"/>
</linearGradient>
<linearGradient id="paint1_linear_78_5660" x1="0.989676" y1="19.1766" x2="15.3489" y2="17.6687" gradientUnits="userSpaceOnUse">
<stop stop-color="#BFAB8D"/>
<stop offset="0.5078" stop-color="#E7E1D2"/>
<stop offset="1" stop-color="#CCBFA6"/>
</linearGradient>
</defs>
</svg>
