<svg width="22" height="69" viewBox="0 0 22 69" fill="none" xmlns="http://www.w3.org/2000/svg">
<path d="M17.2374 45.2609C17.2374 45.2609 5.1545 42.2326 4.14844 43.9631L9.02786 9.4148C9.02786 9.4148 8.87694 0.53125 10.1848 0.53125C11.4927 0.53125 12.8006 4.4549 12.8006 4.4549C12.8006 4.4549 16.9456 36.991 17.2374 45.2609Z" fill="url(#paint0_linear_78_5510)"/>
<path d="M14.913 41.7601C14.913 41.7601 22.1063 51.2373 20.7984 59.0846C20.3759 61.6199 19.5107 64.2557 17.9915 66.3484C17.247 67.3645 16.2812 68.2901 15.0639 68.6925C13.4542 69.2257 11.3817 68.8032 9.76191 68.451C8.96711 68.2699 8.18238 68.0285 7.44795 67.6864C2.26672 65.3021 0.898482 59.155 1.31097 53.9536C1.60273 50.2916 2.71946 46.7502 4.15813 43.39C5.09377 41.2169 7.27693 40.6434 9.45003 40.3416C11.0799 40.1001 13.7962 40.2913 14.913 41.7601Z" fill="url(#paint1_linear_78_5510)"/>
<path d="M14.913 41.7797C14.913 41.7797 22.1063 51.2568 20.7984 59.1041C20.3759 61.6394 19.5107 64.2753 17.9915 66.3679C17.247 67.384 16.2812 68.3096 15.0639 68.712C13.4542 69.2452 11.3817 68.8227 9.76191 68.4706C8.96711 68.2895 8.18238 68.048 7.44795 67.7059C2.26672 65.3216 0.898482 59.1745 1.31097 53.9732C1.60273 50.3111 2.71946 46.7697 4.15813 43.4095C5.09377 41.2364 7.27693 40.6629 9.45003 40.3611C11.0899 40.1197 13.8063 40.3108 14.913 41.7797Z" fill="url(#paint2_linear_78_5510)"/>
<path d="M20.6492 54.1386C21.1522 52.3679 20.1663 49.6012 18.7779 46.6635C17.9932 44.9934 17.1582 43.5447 16.3835 42.4883C15.4076 41.1704 14.5021 40.4158 13.6671 40.2448C12.4397 40.0033 10.6388 39.9933 8.97884 40.2347C7.89229 40.3856 5.95057 40.778 5.10548 41.6734C4.74329 42.0557 3.79759 43.1926 2.81165 45.6172C1.92631 47.8003 1.52389 49.8427 1.24219 52.4685L1.60437 52.881C1.88607 50.3256 2.58026 48.0016 3.44547 45.8788C4.09942 44.2691 4.90427 42.8807 5.59845 42.1463C6.11155 41.613 7.40938 41.1503 9.07945 40.9088C10.669 40.6774 12.3793 40.6875 13.5363 40.9189C14.1299 41.0396 15.136 41.6734 16.5847 44.0075C17.5706 45.5971 18.6069 47.7601 19.4218 49.9332C20.2267 52.056 20.6391 54.1386 20.6492 54.1386Z" fill="#6E8604"/>
<path d="M20.8609 54.4089H20.6597C20.5591 54.4089 20.4283 54.3686 20.378 54.1574C20.3679 54.1272 20.3579 54.0769 20.3478 54.0165C20.217 53.4632 19.8247 51.7629 19.1707 50.0224C18.3659 47.8695 17.3397 45.7265 16.3638 44.147C14.8949 41.7727 13.9291 41.2697 13.4965 41.1791C12.3597 40.9578 10.6896 40.9477 9.13018 41.1791C7.5406 41.4105 6.27297 41.8431 5.81018 42.326C5.13611 43.0303 4.35137 44.3985 3.70749 45.968C2.72155 48.3825 2.12797 50.6563 1.88652 52.8998L1.8161 53.5135L0.960938 52.5577L0.970993 52.437C1.28287 49.5194 1.74566 47.5173 2.56058 45.5153C3.56664 43.0504 4.54254 41.8733 4.91478 41.491C5.82024 40.5453 7.83236 40.1328 8.94909 39.9719C10.6393 39.7304 12.4703 39.7405 13.7279 39.992C14.6334 40.1731 15.5992 40.9578 16.6153 42.3361C17.4 43.4126 18.2451 44.8714 19.0399 46.5616C20.7905 50.284 21.374 52.6483 20.9213 54.2278L20.8609 54.4089ZM11.4441 40.4548C12.2389 40.4548 12.9935 40.5151 13.5871 40.6358C14.5227 40.827 15.6092 41.9035 16.8165 43.8452C17.8125 45.4549 18.8488 47.628 19.6737 49.8212C19.9957 50.6663 20.2472 51.5013 20.4484 52.2056C20.2774 51.0687 19.7643 49.3786 18.5369 46.7728C17.7522 45.1128 16.9372 43.6842 16.1726 42.6379C15.2471 41.3703 14.3818 40.656 13.6172 40.5051C12.41 40.2636 10.6493 40.2636 9.01951 40.495C8.17442 40.6157 6.12206 40.988 5.30714 41.8532C4.95502 42.2254 4.02943 43.3321 3.06361 45.7064C2.54046 46.9942 2.19839 48.2216 1.94688 49.4792C2.25876 48.2719 2.67125 47.0344 3.1944 45.7567C3.85841 44.1269 4.68338 42.6983 5.40774 41.9437C5.97114 41.3602 7.28908 40.8773 9.03964 40.6258C9.84449 40.5151 10.6695 40.4548 11.4441 40.4548Z" fill="#6E8604"/>
<defs>
<linearGradient id="paint0_linear_78_5510" x1="5.81156" y1="23.1359" x2="15.4162" y2="22.84" gradientUnits="userSpaceOnUse">
<stop stop-color="#BFAB8D"/>
<stop offset="0.5078" stop-color="#E7E1D2"/>
<stop offset="1" stop-color="#CCBFA6"/>
</linearGradient>
<linearGradient id="paint1_linear_78_5510" x1="-4.27561" y1="54.3086" x2="27.5285" y2="54.8771" gradientUnits="userSpaceOnUse">
<stop stop-color="#94938C"/>
<stop offset="0.2666" stop-color="#EDEBE1"/>
<stop offset="0.7117" stop-color="#EDEBE1"/>
<stop offset="1" stop-color="#94938C"/>
</linearGradient>
<linearGradient id="paint2_linear_78_5510" x1="-5.04122" y1="54.3113" x2="27.9111" y2="54.9002" gradientUnits="userSpaceOnUse">
<stop stop-color="#94938C"/>
<stop offset="0.0617" stop-color="#A4A29B"/>
<stop offset="0.1809" stop-color="#CCCAC2"/>
<stop offset="0.2666" stop-color="#EDEBE1"/>
<stop offset="0.7117" stop-color="#EDEBE1"/>
<stop offset="0.7719" stop-color="#E0DED5"/>
<stop offset="0.883" stop-color="#BEBDB4"/>
<stop offset="1" stop-color="#94938C"/>
</linearGradient>
</defs>
</svg>
