<svg width="26" height="74" viewBox="0 0 26 74" fill="none" xmlns="http://www.w3.org/2000/svg">
<path d="M13.2582 0.61638C14.8075 2.1456 15.5822 5.39519 16.3669 7.37714C18.7614 13.4538 20.5723 19.7517 21.6286 26.2006C22.1518 29.41 22.4838 32.6495 22.6146 35.889C22.6749 37.5188 22.6951 39.1587 22.6548 40.7885C22.6246 42.1266 22.846 44.0683 22.2826 45.2857C21.5985 44.511 21.1156 43.5854 20.3912 42.8409C18.6205 41.0199 16.3367 39.7221 13.7512 39.7221C12.6646 39.7221 11.5881 39.9434 10.572 40.3157C10.1595 40.4666 9.7571 40.6376 9.35467 40.8388C8.20776 41.4123 6.81939 43.1327 5.59199 43.2333C5.4109 40.8388 6.01454 38.1527 6.24594 35.7582C6.24594 29.6715 7.45321 23.2327 8.35866 17.2265C8.6303 15.4156 9.04279 13.6349 9.00254 11.8038C8.9623 9.91241 8.75103 8.02101 8.88182 6.12961C8.99249 4.42936 9.21382 0.344744 11.5479 0.0831672C12.0107 0.032864 12.4634 0.203894 12.8859 0.364864C13.0268 0.425228 13.1475 0.505713 13.2582 0.61638Z" fill="url(#paint0_linear_78_5612)"/>
<path d="M25.5415 69.2608C25.5415 69.2608 27.8253 42.4592 15.7324 38.5355C15.7324 38.5355 2.00968 36.2518 0.701801 60.1056C0.661559 60.7897 0.560954 61.4638 0.530772 62.1479C0.470408 63.6369 0.520711 65.146 0.782288 66.6148C1.05393 68.1642 1.55697 69.7537 2.61333 70.961C3.12643 71.5445 3.76025 72.0073 4.48461 72.289C5.10837 72.5305 5.80255 72.6311 6.45649 72.7619C7.26134 72.9228 8.07625 73.0838 8.89116 73.2146C9.33383 73.285 9.76645 73.3454 10.2091 73.4057C11.8289 73.5969 13.4688 73.6673 15.0986 73.7277C17.7546 73.8283 20.5012 73.9591 22.9861 72.8222C24.4349 72.1482 25.5415 70.951 25.5415 69.2608Z" fill="url(#paint1_linear_78_5612)"/>
<path d="M24.374 50.5269C24.3237 50.6175 22.1607 44.0579 20.6415 42.3275C19.7763 41.3415 18.7702 40.5769 17.6736 40.0638C16.4865 39.5105 15.1384 39.2288 13.6796 39.2288C12.1705 39.2288 10.7821 39.5206 9.55469 40.084C8.4279 40.6071 7.40171 41.3818 6.50632 42.3878C5.00728 44.078 1.82812 53.0119 1.82812 53.0119L2.87442 46.7039C2.87442 46.7039 3.81007 43.3034 5.46002 41.4522C7.60293 39.0377 10.3696 37.8203 13.6896 37.8203C16.9291 37.8203 19.6254 39.0175 21.7079 41.3918C24.1929 44.1786 24.4243 50.4364 24.374 50.5269Z" fill="#6E8604"/>
<defs>
<linearGradient id="paint0_linear_78_5612" x1="18.9456" y1="22.6504" x2="5.46472" y2="22.8914" gradientUnits="userSpaceOnUse">
<stop stop-color="#BFAB8D"/>
<stop offset="0.5078" stop-color="#E7E1D2"/>
<stop offset="1" stop-color="#CCBFA6"/>
</linearGradient>
<linearGradient id="paint1_linear_78_5612" x1="30.6179" y1="56.1279" x2="-4.40297" y2="56.1457" gradientUnits="userSpaceOnUse">
<stop stop-color="#94938C"/>
<stop offset="0.2296" stop-color="#EDEBE1"/>
<stop offset="0.7876" stop-color="#EDEBE1"/>
<stop offset="1" stop-color="#94938C"/>
</linearGradient>
</defs>
</svg>
