<svg width="24" height="19" viewBox="0 0 24 19" fill="none" xmlns="http://www.w3.org/2000/svg">
<path d="M23.2152 7.86695C23.2017 7.66157 23.1882 7.50639 23.1837 7.46076C23.0845 6.76247 22.9222 6.07332 22.6788 5.41611C22.2506 4.25688 21.2904 3.15697 20.2852 2.47238C19.3476 1.82887 18.2703 1.41811 17.1839 1.11689C16.323 0.879567 15.444 0.715265 14.5604 0.596602C12.3697 0.299947 10.4629 0.331896 10.0392 0.341023C9.6741 0.295384 8.38941 0.181286 6.7982 0.523581C4.71564 0.970846 2.91256 2.02511 1.52419 3.59967L0.609131 5.51196C0.775916 5.66713 0.933685 5.79492 1.08244 5.89076L1.86227 6.39736L2.39869 5.63062C3.56618 3.96479 5.15739 2.89682 7.13176 2.45412C8.64635 2.11639 9.83187 2.28982 9.84089 2.28982L9.93555 2.30351L10.0302 2.29895C10.0482 2.29895 12.0587 2.22593 14.3351 2.53627C15.8091 2.73709 17.0442 3.04743 18.0133 3.45362C18.1982 4.92321 18.667 6.9496 19.4603 8.70215C19.5775 8.73409 19.6947 8.76604 19.8119 8.79799C20.9659 9.09464 22.1424 9.29546 23.3189 9.48258C23.3144 9.48258 23.2558 8.46026 23.2152 7.86695Z" fill="#C36264"/>
<path d="M21.2137 4.56717C21.2137 4.56717 18.6172 1.60974 12.7708 1.60974C6.92429 1.60974 2.70509 3.58136 1.72692 6.21475C0.753256 8.84357 0.428701 16.0774 3.99879 17.3964C5.13022 17.8117 6.36984 17.9167 7.38858 17.1773C8.25856 16.5475 8.60565 15.3883 9.91288 15.8173C10.4854 16.0044 10.9542 16.4106 11.441 16.7711C13.5686 18.3502 17.1883 19.9933 19.6089 18.1266C22.9266 15.5662 24.0986 7.8532 21.2137 4.56717Z" fill="url(#paint0_linear_125_3516)"/>
<defs>
<linearGradient id="paint0_linear_125_3516" x1="28.0304" y1="10.2306" x2="-4.32096" y2="10.3461" gradientUnits="userSpaceOnUse">
<stop stop-color="#94938C"/>
<stop offset="0.2296" stop-color="#EDEBE0"/>
<stop offset="0.7988" stop-color="#EDEBE0"/>
<stop offset="1" stop-color="#94938C"/>
</linearGradient>
</defs>
</svg>
