<svg width="19" height="29" viewBox="0 0 19 29" fill="none" xmlns="http://www.w3.org/2000/svg">
<path d="M17.0385 4.75074C17.016 4.71879 16.9934 4.68684 16.9709 4.65033C16.6779 4.23958 16.3128 3.88815 15.9657 3.52304C15.542 3.08034 15.1813 2.52354 14.6765 2.19037C14.1401 1.83895 13.5901 1.50578 13.0177 1.21369C12.2649 0.82575 11.4265 0.446943 10.5655 0.428687C9.22674 0.396739 7.99164 0.948977 6.89178 1.67921C5.69725 2.46877 4.84078 3.25833 4.22774 4.57274C4.16463 4.71423 4.09704 4.85115 4.03844 4.99263C4.02943 5.01545 3.95731 5.18431 3.9528 5.19344C3.93026 5.24821 3.90773 5.30298 3.88519 5.35774C3.76348 5.66353 3.65078 5.97387 3.54259 6.28422C3.26763 7.08748 3.05127 7.90899 2.86646 8.73506C3.77249 8.74419 4.665 8.75788 4.81826 8.75331C4.86784 8.75331 4.91293 8.75332 4.96251 8.74875C5.71529 7.23809 6.06687 5.51292 6.21112 4.63208C6.2607 4.591 6.31029 4.55449 6.35987 4.51798C8.43791 2.90691 9.22223 2.35467 10.5249 2.38205C11.2326 2.39575 12.5714 3.12598 13.8967 4.00682C14.095 5.30298 14.5458 7.00076 15.258 8.52512C16.2542 8.48861 17.318 8.53425 18.3006 8.37907C18.3322 8.11893 18.1384 7.72186 18.0617 7.45716C17.9716 7.12855 17.8859 6.79539 17.7868 6.47135C17.611 5.87803 17.3901 5.28016 17.0385 4.75074Z" fill="#C36264"/>
<path d="M6.61246 2.52361C6.61246 2.52361 3.36688 3.83802 2.3887 11.4005C2.3887 11.4005 1.41503 19.2915 1.09048 21.5918C0.765918 23.892 0.765918 26.854 4.33605 27.8398C7.90618 28.8256 11.1563 28.1684 13.1036 27.5112C15.051 26.854 17.9765 24.8824 18.6256 22.5776C19.2747 20.2773 18.6256 9.09568 17.6519 7.12406C16.6782 5.15244 14.4063 -0.105218 6.61246 2.52361Z" fill="url(#paint0_linear_125_3548)"/>
<defs>
<linearGradient id="paint0_linear_125_3548" x1="-3.48646" y1="15.7273" x2="22.3598" y2="14.4483" gradientUnits="userSpaceOnUse">
<stop stop-color="#94938C"/>
<stop offset="0.1659" stop-color="#D2D0C6"/>
<stop offset="0.2296" stop-color="#EDEBE0"/>
<stop offset="0.7988" stop-color="#EDEBE0"/>
<stop offset="0.9828" stop-color="#9B9A93"/>
<stop offset="1" stop-color="#94938C"/>
</linearGradient>
</defs>
</svg>
