<svg width="20" height="31" viewBox="0 0 20 31" fill="none" xmlns="http://www.w3.org/2000/svg">
<path d="M18.8959 7.23518C18.8283 7.03436 18.7562 6.83355 18.6751 6.63274C18.6705 6.62361 18.6615 6.59623 18.6435 6.55971C18.621 6.50951 18.5984 6.45474 18.5759 6.40454C18.5308 6.29957 18.4857 6.19916 18.4407 6.09419C18.2604 5.68344 18.08 5.27268 17.8862 4.86649C17.6969 4.46487 17.494 4.0678 17.2551 3.69356C17.165 3.55208 17.0748 3.41516 16.9892 3.28281C16.9621 3.25542 16.9396 3.23261 16.9126 3.20522C15.1455 1.46637 12.8962 0.425787 10.4215 0.197591C8.42906 0.0150331 6.89192 0.47599 5.71992 1.60328C4.69216 2.58909 4.11968 3.95371 3.50663 5.21792C3.03333 6.19003 2.6051 7.18954 2.22645 8.20273C1.8433 9.22505 1.62242 10.2793 1.30688 11.3245C2.49692 11.2879 3.67793 11.1647 4.86346 11.0643C5.17449 10.1607 5.38635 9.22049 5.54412 8.28488C5.63428 7.73721 5.51708 7.3584 5.2962 6.87919C5.12491 6.50495 5.28718 6.12158 5.44495 5.76559C6.39607 3.58859 7.14886 1.86799 10.2502 2.15095C12.2831 2.33807 14.0547 3.14589 15.5107 4.55615C15.7586 4.79347 15.975 5.0308 16.1643 5.25443C16.3266 6.71032 16.7863 8.76866 17.5797 10.5668C18.2558 10.5532 18.932 10.5486 19.6082 10.5486C19.4459 9.43043 19.2566 8.31226 18.8959 7.23518Z" fill="#C36264"/>
<path d="M6.20217 2.67574C6.20217 2.67574 -0.942537 12.2098 0.355678 20.1009C0.774894 22.6475 1.63136 25.3083 3.15045 27.4077C3.88971 28.4301 4.84985 29.3611 6.06242 29.7673C7.66265 30.3058 9.72266 29.8814 11.3274 29.5208C12.1162 29.3428 12.8961 29.0964 13.6308 28.7541C18.7786 26.358 20.14 20.1739 19.7252 14.9345C19.4322 11.256 18.3324 7.68239 16.8944 4.30963C15.9658 2.12351 13.7976 1.54845 11.6339 1.2381C10.0067 1.00534 7.31106 1.19703 6.20217 2.67574Z" fill="url(#paint0_linear_125_3551)"/>
<defs>
<linearGradient id="paint0_linear_125_3551" x1="26.0356" y1="15.2818" x2="-6.70685" y2="15.8598" gradientUnits="userSpaceOnUse">
<stop stop-color="#94938C"/>
<stop offset="0.0637044" stop-color="#A3A19A"/>
<stop offset="0.1868" stop-color="#CDCAC1"/>
<stop offset="0.2666" stop-color="#EDEBE0"/>
<stop offset="0.7117" stop-color="#EDEBE0"/>
<stop offset="0.7738" stop-color="#DFDCD2"/>
<stop offset="0.8879" stop-color="#BCB9B0"/>
<stop offset="1" stop-color="#94938C"/>
</linearGradient>
</defs>
</svg>
