<svg width="19" height="25" viewBox="0 0 19 25" fill="none" xmlns="http://www.w3.org/2000/svg">
<path d="M16.7644 4.97907C16.7238 4.84215 16.6787 4.7098 16.6291 4.57744C16.6066 4.51811 16.5841 4.45878 16.5615 4.39945C16.557 4.39032 16.4984 4.24427 16.5029 4.26253C16.3947 4.0252 16.282 3.78788 16.1468 3.56425C16.0747 3.44558 16.0026 3.32692 15.9259 3.21282C15.8899 3.16262 15.8538 3.11242 15.8178 3.05765C15.9124 3.19457 15.7727 2.99832 15.7637 2.98919C15.7592 2.98006 15.7546 2.9755 15.7456 2.96637C15.1371 2.24527 12.9734 -0.013884 9.79096 0.0773948C7.47851 0.14129 6.49133 1.21838 5.5357 2.25896C5.18861 2.63777 4.83251 3.0257 4.39075 3.38169C4.0662 3.78788 3.73714 4.19407 3.40357 4.59113C3.36751 4.65959 3.33143 4.72805 3.29537 4.79651C3.24128 4.89692 3.1872 4.99732 3.1286 5.09317C3.05197 5.26203 2.97985 5.42633 2.90773 5.5952C2.80856 5.8234 2.69585 6.05159 2.59668 6.27979C2.58315 6.31174 2.55161 6.38933 2.5426 6.40758C2.51104 6.48973 2.47949 6.57188 2.44793 6.6586C2.38933 6.81377 2.33074 6.96895 2.27214 7.12412C2.21804 7.27473 2.15943 7.42078 2.10083 7.57139C2.5516 7.56682 2.99788 7.56682 3.44865 7.56682C3.72813 7.56682 3.98505 7.67636 4.17888 7.85891C4.72882 7.77676 5.28326 7.74938 5.84222 7.75851C6.58148 5.85991 6.78434 3.94305 6.78434 3.94305L6.80237 3.87459C6.80237 3.87459 6.79786 3.77419 6.95563 3.59619C7.78955 2.68341 8.344 2.08096 9.84506 2.03989C10.963 2.00794 12.0403 2.41413 12.9509 3.04852C13.5549 3.4684 14.0237 3.98869 14.515 4.5318C14.9072 4.96538 15.0064 5.79601 15.2092 6.35281C15.2859 6.56732 15.3715 6.77726 15.4571 6.99176C15.6149 6.99633 15.7727 7.00089 15.9305 7.00546C16.3181 7.00546 16.7058 7.00089 17.0934 6.99633C17.1565 6.99633 17.2197 6.99633 17.2828 6.99633C17.1701 6.60383 17.0619 6.20677 16.9717 5.80514C16.9176 5.51305 16.85 5.24378 16.7644 4.97907Z" fill="#C36264"/>
<path d="M9.71875 23.171C9.71875 23.171 15.0289 24.0108 16.7598 21.1538C18.4908 18.2968 10.2687 21.4733 9.71875 23.171Z" fill="#D9D7D0"/>
<path d="M7.73086 24.1112C8.91638 24.2481 9.78635 22.993 10.9493 22.7466C12.802 22.3586 14.6141 22.6644 16.1963 21.3865C17.5035 20.3277 18.2968 18.6846 18.5628 17.0325C18.8963 14.9742 18.5492 12.8839 18.1481 10.8621C17.9768 9.99948 17.6793 9.18253 17.3367 8.37472C16.9716 7.5167 16.3089 6.67693 16.0205 5.80066C16.0205 5.80066 13.424 -2.09039 4.32757 3.82904C4.32757 3.82904 -3.14165 15.0107 2.38025 20.9255C3.0564 21.6466 4.11571 22.1578 4.9361 22.6872C5.79256 23.2349 6.6986 23.9925 7.73086 24.1112Z" fill="url(#paint0_linear_125_3554)"/>
<defs>
<linearGradient id="paint0_linear_125_3554" x1="22.2566" y1="13.2816" x2="-4.29938" y2="12.4737" gradientUnits="userSpaceOnUse">
<stop stop-color="#94938C"/>
<stop offset="0.0261345" stop-color="#A3A199"/>
<stop offset="0.0903002" stop-color="#C2C0B6"/>
<stop offset="0.1529" stop-color="#DAD7CD"/>
<stop offset="0.2127" stop-color="#E8E6DB"/>
<stop offset="0.2666" stop-color="#EDEBE0"/>
<stop offset="0.7117" stop-color="#EDEBE0"/>
<stop offset="0.765" stop-color="#E6E4D9"/>
<stop offset="0.8381" stop-color="#D3D0C7"/>
<stop offset="0.9223" stop-color="#B5B3AA"/>
<stop offset="1" stop-color="#94938C"/>
</linearGradient>
</defs>
</svg>
