<svg width="19" height="23" viewBox="0 0 19 23" fill="none" xmlns="http://www.w3.org/2000/svg">
<path d="M16.3405 3.42779C16.2548 3.14026 16.1602 2.8573 16.061 2.5789C16.034 2.51044 16.0114 2.43742 15.9844 2.36896C15.9663 2.32332 15.9348 2.25029 15.9303 2.2366C15.8852 2.13163 15.8401 2.03122 15.7905 1.92625C15.6824 1.70718 15.5606 1.49724 15.4254 1.29643C15.3262 1.20971 15.2361 1.13213 15.1595 1.06367L15.0783 0.990644C13.9469 -0.00886077 13.0273 -0.0727572 9.97109 0.196516C8.49257 0.32887 7.08616 0.753318 5.8195 1.54288C4.58439 2.31419 3.18249 3.31369 2.43872 4.58704C1.85723 5.58654 0.987259 6.75035 0.716797 7.88677C0.811459 7.93241 0.901617 7.92785 1.01431 7.92785C1.31182 7.93697 1.6048 7.91872 1.90231 7.90959C1.99247 7.88221 2.09165 7.86852 2.18631 7.86852C2.79034 7.86395 3.39437 7.86395 4.0029 7.86852C4.36803 7.63575 4.77373 7.46232 5.17942 7.31628C5.54003 6.07488 5.6437 5.06625 5.6437 5.06625C5.6437 5.06625 5.68429 4.81067 5.70232 4.37709C7.69021 2.64279 7.71724 2.36439 10.1469 2.14989C11.6209 2.02209 12.4143 1.99015 12.8966 2.04948C13.2482 3.88419 13.9514 6.13421 15.0468 7.74529C15.8987 7.70878 16.7462 7.69052 17.5981 7.67683C17.5711 7.56273 17.544 7.44407 17.5125 7.32997C17.1744 6.01555 16.7327 4.72395 16.3405 3.42779Z" fill="#C36264"/>
<path d="M9.12817 22.0669C9.12817 22.0669 14.3932 23.1714 16.2594 20.4011C18.1256 17.6307 9.75475 20.3965 9.12817 22.0669Z" fill="#D9D7D0"/>
<path d="M8.35748 22.3042C8.35748 22.3042 2.74977 22.6876 1.35685 19.009C-0.0405602 15.3214 8.02391 20.1728 8.35748 22.3042Z" fill="#D9D7D0"/>
<path d="M6.11699 1.64787C6.03585 1.68895 5.95473 1.73459 5.8826 1.78936C4.45367 2.79798 3.25011 4.43643 2.33956 5.91971C0.960212 8.16973 -0.0269743 10.7438 0.238978 13.4274C0.419286 15.2621 0.622136 17.3752 1.52818 19.0228C2.05558 19.9857 3.24561 20.4284 4.21476 20.7662C5.04417 21.0583 5.8826 21.3321 6.69398 21.6698C7.44677 21.9802 8.18151 22.5142 9.02895 22.4457C10.0026 22.3681 10.6833 21.5922 11.4586 21.0948C12.6802 20.3098 14.1407 19.9036 15.5876 19.9766C15.8401 19.9903 16.1015 20.0131 16.3449 19.9401C16.701 19.8306 16.9625 19.5248 17.1698 19.2144C18.1255 17.8042 18.0984 16.435 18.1074 14.792C18.1164 13.1216 18.0849 11.4466 17.7693 9.80362C17.2104 6.87357 15.2991 4.45469 14.2939 1.68895C14.2353 1.52921 14.1767 1.36491 14.073 1.23712C13.8927 1.01349 13.5952 0.913081 13.3113 0.890261C12.7748 0.844622 12.2384 0.931335 11.7065 0.986102C10.7013 1.09564 9.71862 1.20974 8.7089 1.2782C7.91555 1.33296 6.86076 1.27363 6.11699 1.64787Z" fill="url(#paint0_linear_125_3558)"/>
<defs>
<linearGradient id="paint0_linear_125_3558" x1="24.0299" y1="12.0688" x2="-6.01383" y2="11.1547" gradientUnits="userSpaceOnUse">
<stop stop-color="#94938C"/>
<stop offset="0.2666" stop-color="#EDEBE0"/>
<stop offset="0.7117" stop-color="#EDEBE0"/>
<stop offset="1" stop-color="#94938C"/>
</linearGradient>
</defs>
</svg>
