<svg width="26" height="24" viewBox="0 0 26 24" fill="none" xmlns="http://www.w3.org/2000/svg">
<path d="M24.5572 5.94812C24.4581 5.62865 24.3499 5.31374 24.2327 5.00339C24.2057 4.93493 24.1786 4.86647 24.1516 4.79801C24.1516 4.79345 24.1471 4.78889 24.1471 4.78432C24.1335 4.75237 24.12 4.72043 24.1065 4.69304C24.0434 4.547 23.9758 4.40095 23.9036 4.25947C23.7639 3.97194 23.6061 3.68898 23.4348 3.41971C23.3402 3.27366 23.2455 3.12762 23.1418 2.98613C23.1283 2.96788 23.0787 2.90398 23.0607 2.88116C23.0066 2.8127 22.9525 2.74425 22.8939 2.67579C22.8894 2.67122 22.8849 2.66666 22.8804 2.6621C21.8842 2.13268 19.3418 1.63065 17.372 1.30661C15.037 0.918675 12.6299 0.631148 11.512 0.608328C9.32124 0.562689 7.03133 1.46635 3.41616 3.83046C3.23134 3.99933 3.05554 4.18645 2.89777 4.37813C2.87523 4.40552 2.85269 4.43746 2.83016 4.46485C2.78508 4.52418 2.74001 4.58807 2.69944 4.6474C2.60478 4.78432 2.51462 4.92124 2.42897 5.06272C2.11344 5.57844 1.84297 6.12612 1.59505 6.67835C1.53194 6.81527 1.47334 6.95219 1.41474 7.08911C1.41024 7.1028 1.40574 7.11192 1.40123 7.11649C1.39672 7.12105 1.39671 7.13018 1.3922 7.13475C1.36516 7.20777 1.33361 7.27623 1.30656 7.34925C1.18486 7.65503 1.06314 7.95625 0.959462 8.27116C0.8062 8.72756 0.684505 9.19308 0.589844 9.66316C1.31108 9.64034 2.02779 9.57188 2.74451 9.52168C3.05104 9.49886 3.33051 9.64491 3.52885 9.86397C4.57914 8.23922 5.04343 6.04853 5.21923 4.99426C8.04105 3.22346 9.84865 2.52974 11.4759 2.56625C12.4947 2.58907 14.8477 2.87204 17.0655 3.23715C18.3276 3.44709 19.3283 3.64334 20.0991 3.82133C20.4823 5.14031 21.0458 6.47754 21.785 7.53637C22.5468 7.4816 23.3041 7.4314 24.0659 7.37663C24.3544 7.35381 24.6474 7.33099 24.9359 7.30817C24.8187 6.85178 24.697 6.39539 24.5572 5.94812Z" fill="#C36264"/>
<path d="M22.3259 7.64585C22.5963 7.72801 22.984 8.47193 23.1327 8.68644C23.7278 9.53533 24.2416 10.4481 24.6293 11.4157C25.666 14.0217 25.5173 16.8787 23.57 19.0101C23.5474 19.0375 23.5249 19.0603 23.5024 19.0877C23.3987 19.1972 23.286 19.3068 23.2004 19.4345C22.9615 19.7905 22.9028 20.2378 22.6775 20.6075C22.4611 20.9543 22.1456 21.2784 21.839 21.5385C21.1178 22.1547 20.1577 22.5837 19.1975 22.4878C18.8685 22.4559 18.5529 22.3372 18.2464 22.2186C16.9031 21.7074 15.4426 21.1232 14.7304 19.7723C14.8115 19.9275 14.4419 20.5527 14.3473 20.6805C14.1219 20.9863 13.8514 21.1232 13.5043 21.2556C12.3639 21.7028 11.1198 22.0588 10.0244 22.6156C9.2671 22.9123 8.63152 23.1907 7.86071 22.9351C7.41445 22.7845 6.95918 22.6567 6.51743 22.4924C5.68801 22.1866 4.30866 21.6481 4.30866 20.5573C4.30866 18.8732 2.9203 13.8209 6.25148 8.76859C9.57364 3.72085 22.3168 7.64585 22.3259 7.64585Z" fill="#D9D7D0"/>
<path d="M22.344 3.49726C22.6595 3.5931 23.1148 4.46481 23.2906 4.71583C23.9893 5.71077 24.5888 6.78329 25.0396 7.91515C26.2566 10.9639 26.0808 14.3138 23.8 16.8103C23.7729 16.8377 23.7459 16.8696 23.7188 16.897C23.5971 17.0293 23.4664 17.1571 23.3672 17.3032C23.0877 17.7231 23.0201 18.2479 22.7542 18.6769C22.5017 19.0831 22.1321 19.4619 21.776 19.7677C20.9331 20.4888 19.8061 20.9908 18.6837 20.8767C18.2961 20.8402 17.9309 20.6987 17.5658 20.5618C15.9926 19.9639 14.2797 19.2794 13.4458 17.6957C13.5404 17.8782 13.1077 18.613 12.9995 18.7591C12.7381 19.1196 12.418 19.2748 12.0123 19.4345C10.6736 19.9594 9.21759 20.3793 7.9374 21.0273C7.04939 21.3742 6.30561 21.7028 5.40407 21.4016C4.88118 21.2282 4.34928 21.073 3.8309 20.8813C2.86174 20.5207 1.24349 19.8909 1.24349 18.6176C1.24349 16.646 -0.379286 10.7265 3.51536 4.80711C7.40549 -1.10776 22.3305 3.49269 22.344 3.49726Z" fill="url(#paint0_linear_125_3563)"/>
<defs>
<linearGradient id="paint0_linear_125_3563" x1="31.5416" y1="13.9974" x2="-3.06776" y2="10.4077" gradientUnits="userSpaceOnUse">
<stop stop-color="#94938C"/>
<stop offset="0.2296" stop-color="#EDEBE0"/>
<stop offset="0.7988" stop-color="#EDEBE0"/>
<stop offset="1" stop-color="#94938C"/>
</linearGradient>
</defs>
</svg>
