<svg width="24" height="20" viewBox="0 0 24 20" fill="none" xmlns="http://www.w3.org/2000/svg">
<path d="M3.10034 8.09365C3.28971 8.07083 3.28971 8.07083 3.10034 8.09365V8.09365Z" fill="#C36264"/>
<path d="M21.2889 3.7077C20.2116 2.60779 19.2199 1.26598 17.7143 0.791334C15.8797 0.211713 13.8017 0.4034 11.9265 0.672673C9.91603 0.960202 7.94616 1.48049 6.00785 2.0875C5.39481 2.27918 4.8539 2.4663 4.331 2.86793C3.02377 3.87656 1.80668 5.31877 1.2928 6.91159C1.18462 7.2402 1.11251 7.57793 1.05391 7.91566C1.05391 7.92022 1.05391 7.92479 1.05391 7.92479C1.0494 7.9613 1.0449 7.99781 1.04039 8.03889C1.03588 8.09822 1.03136 8.16211 1.02686 8.22144C1.4055 8.19406 1.78415 8.16211 2.15829 8.12104C2.23041 8.11191 2.29804 8.10735 2.37016 8.09822C2.39721 8.09365 2.5775 8.07083 2.45129 8.08909C2.4558 8.08909 2.4603 8.08909 2.4648 8.08909L2.7578 8.04801C2.8164 8.03888 2.87051 8.03432 2.92911 8.02519C3.18605 7.99325 3.43848 7.97043 3.69993 7.97043C3.73599 7.97043 3.77205 7.97499 3.80811 7.97499C4.41665 6.79293 4.77274 5.46025 4.97108 4.49726C5.05222 4.47444 5.10181 4.45619 5.11083 4.45619L5.16041 4.43793C5.24606 4.40598 13.5492 1.32075 18.2688 2.81773C18.6654 3.55252 19.1568 4.27363 19.7338 4.8852C20.5136 4.76653 21.2979 4.65244 22.0778 4.53834C21.8208 4.25994 21.5549 3.98154 21.2889 3.7077Z" fill="#C36264"/>
<path d="M9.71753 16.9249C9.71753 16.9249 12.1517 20.535 15.848 18.075C19.5487 15.615 11.6243 15.2225 9.71753 16.9249Z" fill="#D9D7D0"/>
<path d="M4.86733 3.35621C5.73731 2.74464 6.90478 2.67162 7.91901 2.46624C9.4426 2.1559 10.9797 1.90031 12.5349 1.80447C15.9607 1.59453 19.7246 2.22892 22.0235 5.04944C22.8349 6.04438 23.4029 7.231 23.6914 8.48609C24.0114 9.90091 23.7545 10.8137 23.3082 12.1464C22.9025 13.3695 22.3706 14.6931 21.7125 15.8021C21.0003 17.0024 19.8598 18.043 18.4264 18.0202C16.8757 17.9973 15.3567 17.3812 14.3199 16.19C14.2658 16.1261 14.2072 16.0622 14.1306 16.0303C14.0404 15.9938 13.9368 16.012 13.8421 16.0348C11.7551 16.5186 9.66348 17.9015 7.7387 18.8371C6.81914 19.2844 6.29175 19.4213 5.35866 18.9238C4.19569 18.3077 3.0868 17.5455 2.22584 16.5414C-0.320997 13.5703 0.648143 9.34867 2.50981 6.28627C3.09581 5.31871 3.82606 4.20054 4.70505 3.47488C4.75914 3.4338 4.81324 3.39272 4.86733 3.35621Z" fill="url(#paint0_linear_125_3567)"/>
<defs>
<linearGradient id="paint0_linear_125_3567" x1="-4.54309" y1="10.4678" x2="28.5295" y2="10.5508" gradientUnits="userSpaceOnUse">
<stop stop-color="#94938C"/>
<stop offset="0.2296" stop-color="#EDEBE0"/>
<stop offset="0.7988" stop-color="#EDEBE0"/>
<stop offset="1" stop-color="#94938C"/>
</linearGradient>
</defs>
</svg>
