<svg width="23" height="21" viewBox="0 0 23 21" fill="none" xmlns="http://www.w3.org/2000/svg">
<path d="M22.148 5.47133C21.9181 5.26139 21.6026 5.00581 21.1563 4.69546C20.4396 4.19343 19.502 3.61838 18.5193 3.0844C17.3924 2.47283 14.53 1.01238 12.2852 0.642701C9.34164 0.158925 7.11033 1.58743 5.31627 2.73298C4.82493 3.04789 4.36065 3.34454 3.92791 3.57274C3.84227 3.61838 3.7431 3.66402 3.63491 3.70509C3.45911 3.81006 3.28782 3.91959 3.11653 4.03826C3.06244 4.07477 3.00834 4.11585 2.94974 4.15692C2.91818 4.17974 2.88213 4.21169 2.8641 4.22081C2.77845 4.29384 2.68831 4.3623 2.60717 4.43988C2.41334 4.61331 2.22852 4.805 2.05722 5.00581C2.01215 5.05601 1.97159 5.11078 1.93102 5.16098C1.92651 5.17011 1.92199 5.17467 1.91748 5.17924C1.91297 5.18837 1.90396 5.19749 1.89945 5.21119C1.82733 5.31616 1.75071 5.42113 1.68309 5.53066C1.59745 5.66301 1.52532 5.79993 1.4532 5.94141C1.44418 5.95967 1.40361 6.05095 1.38107 6.09202C1.36755 6.12853 1.32698 6.2335 1.31797 6.25176C1.2188 6.52559 1.14215 6.80399 1.07905 7.09152C1.04749 7.23757 1.02046 7.38818 0.997918 7.53422C0.99341 7.55248 0.966373 7.79893 0.984403 7.61181C0.975388 7.6894 0.966368 7.76242 0.957353 7.84001C0.948338 7.91759 0.939322 7.99974 0.934814 8.07733C1.30895 7.96779 1.68309 7.87195 2.06174 7.76698C2.81452 7.55704 3.54476 7.32428 4.30655 7.1828C4.55899 6.50734 4.70775 5.84557 4.7934 5.32985C4.80241 5.32528 4.81141 5.32072 4.82043 5.31615C5.32529 5.05145 5.82115 4.73198 6.34855 4.39424C8.0209 3.32629 9.75184 2.21725 11.9696 2.58237C13.2859 2.79687 15.3324 3.60012 17.4419 4.73197C19.5065 5.83644 20.7822 6.7903 21.012 7.10065C21.2555 7.57073 21.7152 7.82175 22.2201 7.76242C22.4365 7.73504 22.6889 7.65745 22.9999 7.40643L22.148 5.47133Z" fill="#C36264"/>
<path d="M2.50799 5.69047C2.50799 5.69047 5.10441 2.73303 10.9509 2.73303C16.7973 2.73303 21.0165 4.70466 21.9947 7.33805C22.9729 9.97145 23.2929 17.2007 19.7228 18.5197C18.5914 18.935 17.3518 19.04 16.3331 18.3006C15.4631 17.6708 15.116 16.5116 13.8088 16.9406C13.2363 17.1277 12.7675 17.5339 12.2806 17.8945C10.153 19.4736 6.53336 21.1166 4.11273 19.2499C0.790564 16.6941 -0.376932 8.97651 2.50799 5.69047Z" fill="url(#paint0_linear_125_3456)"/>
<defs>
<linearGradient id="paint0_linear_125_3456" x1="-4.31039" y1="11.3551" x2="28.041" y2="11.4705" gradientUnits="userSpaceOnUse">
<stop stop-color="#94938C"/>
<stop offset="0.2296" stop-color="#EDEBE0"/>
<stop offset="0.7988" stop-color="#EDEBE0"/>
<stop offset="1" stop-color="#94938C"/>
</linearGradient>
</defs>
</svg>
