<svg width="22" height="17" viewBox="0 0 22 17" fill="none" xmlns="http://www.w3.org/2000/svg">
<path d="M11.8771 16.2215C13.2114 16.0709 14.5366 15.7469 15.7943 15.3407C15.019 14.8387 14.2076 14.396 13.3872 13.9761C12.9049 14.0217 12.2828 14.0491 11.5255 14.008C9.60522 13.903 6.40926 13.3417 2.07736 11.2651C1.82042 11.1419 1.49586 11.0688 0.513184 10.8589C0.666445 10.8908 0.995508 12.2874 1.06312 12.4928C1.23892 13.0268 1.38768 13.579 1.82493 13.9669C2.06383 14.1769 2.35683 14.3092 2.64984 14.4325C4.67379 15.2905 6.85101 16.0435 9.07331 16.2626C9.99739 16.3539 10.9395 16.3311 11.8771 16.2215Z" fill="#C36264"/>
<path d="M11.2956 3.1276C11.6021 3.05458 11.9221 2.8492 12.2918 2.60275C13.297 1.93185 14.3428 1.28378 15.5058 0.959736C16.6687 0.631132 17.9715 0.663083 19.0082 1.28834C19.734 1.73104 20.2749 2.42933 20.7166 3.15956C21.4108 4.3051 21.9202 5.6332 21.7624 6.96587C21.5821 8.48566 20.9871 9.98263 20.3741 11.3701C20.0044 12.2098 19.6934 13.1728 19.0263 13.83C18.2464 14.5968 16.9392 14.7063 15.9115 14.8524C13.7027 15.1673 11.4849 14.8843 9.33022 14.3686C7.18907 13.8528 4.97129 13.2824 2.88873 12.5613C2.51459 12.4335 2.14046 12.2829 1.82492 12.041C0.945919 11.3564 0.765611 9.80008 0.553749 8.77776C0.233703 7.21689 0.427534 5.60582 1.05861 4.15449C1.87 2.28328 3.42064 0.631135 5.48065 0.311659C6.95467 0.0834625 8.26641 0.389246 9.2581 1.54392C9.58716 1.92729 9.84861 2.37456 10.2047 2.73054C10.5969 3.12761 10.9395 3.21432 11.2956 3.1276Z" fill="url(#paint0_linear_125_3459)"/>
<defs>
<linearGradient id="paint0_linear_125_3459" x1="28.1007" y1="7.54636" x2="-5.72171" y2="7.66704" gradientUnits="userSpaceOnUse">
<stop stop-color="#94938C"/>
<stop offset="0.2614" stop-color="#EDEBE0"/>
<stop offset="0.7687" stop-color="#EDEBE0"/>
<stop offset="1" stop-color="#94938C"/>
</linearGradient>
</defs>
</svg>
