<svg width="27" height="23" viewBox="0 0 27 23" fill="none" xmlns="http://www.w3.org/2000/svg">
<path d="M17.5276 22.4183C18.402 22.3133 19.236 22.0577 20.0879 21.7337C20.2096 21.688 20.3268 21.6424 20.4485 21.5922C20.4891 21.5739 20.5297 21.5602 20.5703 21.542C20.5838 21.5374 20.6018 21.5283 20.6063 21.5237C20.8092 21.4324 21.012 21.3412 21.2103 21.2362C21.598 21.04 21.9766 20.8163 22.3373 20.5699C22.4409 20.5014 22.5356 20.4238 22.6393 20.3508C22.486 20.4649 22.7204 20.2824 22.7565 20.2504C22.8692 20.1546 22.9774 20.0542 23.0855 19.9492C21.4898 19.7484 21.1788 19.794 20.985 19.8214C20.5657 19.8762 17.7574 19.9309 14.2955 19.6617C11.2934 19.4243 7.11027 18.8858 4.14871 17.6536C3.88727 17.5075 2.86402 16.9553 1.57031 16.3346C1.59736 16.3985 1.61989 16.4624 1.64694 16.5263C1.64694 16.5308 1.65145 16.54 1.65595 16.5537C1.66948 16.5856 1.70104 16.6541 1.70554 16.6632C1.72357 16.7088 1.74611 16.7499 1.76414 16.7955C1.84528 16.9735 1.92642 17.147 2.01657 17.3158C2.20139 17.6809 2.41325 18.0324 2.64314 18.3701C2.69723 18.4477 2.75584 18.5253 2.80993 18.6028C2.81444 18.6074 2.81443 18.612 2.81894 18.612C2.84599 18.6485 2.87304 18.685 2.90459 18.7169C3.01277 18.8493 3.12096 18.9771 3.23816 19.1003C3.49059 19.3741 3.76556 19.6252 4.05405 19.8625C4.06307 19.8716 4.10814 19.9035 4.13068 19.9218C4.1983 19.972 4.26591 20.0222 4.33353 20.0724C4.45974 20.1637 4.58596 20.2458 4.71668 20.3325C5.00968 20.5197 5.3117 20.6931 5.62273 20.8528C5.73542 20.9122 5.85262 20.9715 5.96982 21.0263C9.34158 21.9117 12.8576 22.2676 16.324 22.4502C16.7342 22.4821 17.1354 22.4685 17.5276 22.4183Z" fill="#C36264"/>
<path d="M24.5955 15.997C24.6992 14.7647 24.6676 13.5142 24.902 12.2956C25.2626 10.3924 26.2138 8.73567 26.0785 6.7184C25.754 1.86689 19.0555 1.48808 15.6883 2.83446C14.2864 3.39126 13.7139 2.8664 12.5374 2.11335C11.2617 1.2964 9.75618 0.871948 8.25061 0.871948C6.52868 0.871948 4.62193 1.36942 3.15242 2.28678C0.975207 3.64228 0.975208 5.8695 0.826455 8.20625C0.65967 10.7895 0.718266 13.4548 1.56571 15.9285C1.82265 16.6861 2.16524 17.43 2.70616 18.0142C3.47247 18.8494 4.44613 18.959 5.47839 19.2009C6.88929 19.5295 8.31372 19.8079 9.73815 20.0817C12.5284 20.6157 15.3412 21.0493 18.1811 21.1953C19.5289 21.2638 20.9217 21.1269 22.1163 20.497C23.8382 19.5751 24.4422 17.8591 24.5955 15.997Z" fill="url(#paint0_linear_125_3462)"/>
<defs>
<linearGradient id="paint0_linear_125_3462" x1="30.1401" y1="14.0697" x2="-2.97521" y2="7.70523" gradientUnits="userSpaceOnUse">
<stop stop-color="#94938C"/>
<stop offset="0.2114" stop-color="#EDEBE0"/>
<stop offset="0.847" stop-color="#EDEBE0"/>
<stop offset="1" stop-color="#94938C"/>
</linearGradient>
</defs>
</svg>
