<svg width="24" height="20" viewBox="0 0 24 20" fill="none" xmlns="http://www.w3.org/2000/svg">
<path d="M22.9836 8.05245C22.9295 7.8699 22.8844 7.71929 22.8709 7.68734C22.6726 7.13967 22.4652 6.59655 22.2308 6.06257C21.9649 5.45557 21.6673 4.85769 21.3067 4.30089C20.9371 3.72584 20.4728 3.23293 20.0401 2.71264C19.8958 2.53921 19.7471 2.36121 19.5668 2.22886C19.0619 1.84549 18.3001 1.69032 17.6961 1.53058C16.9703 1.33433 16.2356 1.19285 15.4963 1.08787C14.703 0.973776 13.9051 0.896191 13.1072 0.850552C9.82564 0.66343 6.58911 1.00116 5.21427 1.41192C5.01593 1.47125 4.8221 1.52601 4.63277 1.57622C4.61925 1.58534 4.61023 1.58991 4.59671 1.59447C4.38034 1.7177 4.16848 1.84549 3.96113 1.98697C3.86646 2.05087 3.77631 2.1102 3.68616 2.17866C3.64559 2.20604 3.60953 2.23799 3.56896 2.26537C3.55994 2.26994 3.55544 2.2745 3.55093 2.27907C3.54642 2.28363 3.5374 2.28819 3.52839 2.29732C3.1813 2.58485 2.85223 2.8952 2.56825 3.24662C2.55022 3.26488 2.50063 3.33334 2.48711 3.35159C2.46006 3.3881 2.42851 3.42918 2.40147 3.46569C2.33385 3.56153 2.26624 3.65281 2.19862 3.74866C2.06339 3.94491 1.93267 4.14115 1.80645 4.34653C1.55402 4.75729 1.32413 5.18173 1.12128 5.62444C1.09423 5.68377 1.06719 5.7431 1.04465 5.80243C1.03563 5.82525 1.0131 5.88458 1.00408 5.90284C0.963512 6.01237 0.922942 6.12191 0.882373 6.23144C0.846311 6.33641 0.814757 6.44138 0.783203 6.54635C1.72531 6.64676 2.67193 6.79281 3.5915 7.02557C3.73124 7.06208 3.85745 7.13054 3.97014 7.21725C4.70489 5.98499 5.12862 4.49258 5.36302 3.41092C5.50276 3.36985 5.63348 3.33334 5.7597 3.29682C6.77393 2.9956 9.77605 2.63049 12.9945 2.81305C15.1627 2.93627 16.9884 3.27857 18.3632 3.80799C18.4173 4.94441 18.7283 6.75173 19.3279 8.51341C20.0536 8.60013 20.7793 8.69141 21.5051 8.78725C22.1046 8.86484 22.6996 8.94242 23.2991 9.02457C23.2721 9.02001 23.1008 8.44952 22.9836 8.05245Z" fill="#C36264"/>
<path d="M6.94092 16.7741C6.94092 16.7741 9.37507 20.3843 13.0714 17.9243C16.7722 15.4643 8.84767 15.0718 6.94092 16.7741Z" fill="#D9D7D0"/>
<path d="M19.1567 3.36525C18.2867 2.75368 17.1192 2.68066 16.105 2.47528C14.5814 2.16493 13.0442 1.90935 11.4891 1.8135C8.06324 1.60356 4.29931 2.23795 2.00039 5.05847C1.18901 6.05342 0.621037 7.24005 0.332545 8.49513C0.0124983 9.90996 0.269437 10.8227 0.715699 12.1554C1.12139 13.3786 1.6533 14.7021 2.31142 15.8111C3.02364 17.0115 4.16409 18.0521 5.59753 18.0292C7.14818 18.0064 8.66727 17.3903 9.70404 16.1991C9.75813 16.1352 9.81673 16.0713 9.89336 16.0393C9.98351 16.0028 10.0872 16.0211 10.1819 16.0439C12.2689 16.5277 14.3605 17.9106 16.2853 18.8462C17.2048 19.2934 17.7322 19.4304 18.6653 18.9329C19.8283 18.3168 20.9372 17.5546 21.7982 16.5505C24.345 13.5794 23.3759 9.35772 21.5142 6.29531C20.9282 5.32775 20.1979 4.20958 19.3189 3.48391C19.2649 3.4474 19.2108 3.40632 19.1567 3.36525Z" fill="url(#paint0_linear_125_3519)"/>
<defs>
<linearGradient id="paint0_linear_125_3519" x1="28.5681" y1="10.4784" x2="-4.50456" y2="10.5613" gradientUnits="userSpaceOnUse">
<stop stop-color="#94938C"/>
<stop offset="0.2296" stop-color="#EDEBE0"/>
<stop offset="0.7988" stop-color="#EDEBE0"/>
<stop offset="1" stop-color="#94938C"/>
</linearGradient>
</defs>
</svg>
