<svg width="17" height="29" viewBox="0 0 17 29" fill="none" xmlns="http://www.w3.org/2000/svg">
<path d="M12.6856 26.4342C12.2078 26.5209 11.793 26.6076 11.482 26.7034C11.0944 26.8221 10.0711 26.8586 8.47539 26.5665C7.07801 26.3109 6.0728 25.9641 5.86995 25.8408C5.47327 25.5944 4.48159 25.1015 3.44482 24.604C3.49441 24.9463 3.55752 25.2886 3.64767 25.6218C3.65218 25.6355 3.65218 25.6446 3.65668 25.6583C3.71528 25.8728 3.7829 26.0827 3.85953 26.2881C3.85953 26.2927 3.86855 26.3109 3.87305 26.3292C3.87305 26.3337 3.87756 26.3338 3.87756 26.3383C3.90009 26.3885 3.92263 26.4342 3.94517 26.4844C3.99476 26.5893 4.04435 26.6897 4.09844 26.7901C4.20212 26.9773 4.32382 27.1553 4.44553 27.3287C4.45004 27.3333 4.45454 27.3378 4.45454 27.3424C4.54469 27.4382 4.63485 27.5295 4.73402 27.6117C4.78811 27.6573 4.86024 27.7029 4.90982 27.7577C4.92334 27.7668 4.93686 27.776 4.95039 27.7851C5.20282 27.9631 5.46877 28.1228 5.74374 28.2597C5.82037 28.2963 5.897 28.3328 5.97363 28.3693C6.00518 28.383 6.04124 28.3967 6.0728 28.4104C6.20352 28.4606 6.33424 28.5153 6.46947 28.561C6.70387 28.6431 6.93827 28.7116 7.17718 28.7755C7.26282 28.7892 7.34397 28.8074 7.42961 28.8211C7.45215 28.8257 7.47469 28.8257 7.49723 28.8302C7.4792 28.8257 7.4837 28.8257 7.55132 28.8394C7.55583 28.8394 7.56034 28.8394 7.56484 28.8394C7.73163 28.8576 7.90292 28.8759 8.07421 28.885C8.47089 28.9078 8.86756 28.9033 9.26424 28.8713C9.33185 28.8668 9.39947 28.8576 9.46708 28.8531C9.48061 28.8531 9.52568 28.8485 9.54371 28.8439C9.61584 28.8348 9.68796 28.8211 9.76008 28.812C9.91785 28.7846 10.0756 28.7481 10.2334 28.707C10.3867 28.6659 10.5354 28.6112 10.6842 28.5518C10.603 28.5838 10.7337 28.5336 10.7878 28.5016C10.8555 28.4697 10.9231 28.4332 10.9907 28.3967C11.1394 28.3145 11.2882 28.2232 11.4279 28.1228C11.464 28.1 11.4955 28.0726 11.5316 28.0452C11.5316 28.0452 11.5361 28.0407 11.5406 28.0361C11.5586 28.0224 11.5812 27.9996 11.5902 27.995C11.6218 27.9676 11.6533 27.9403 11.6894 27.9083C11.8111 27.7988 11.9238 27.6847 12.032 27.566C12.0725 27.5158 12.1176 27.4702 12.1582 27.42C12.1492 27.4337 12.2168 27.3424 12.2438 27.3013C12.343 27.1598 12.4286 27.0092 12.5098 26.854C12.5458 26.7856 12.5729 26.7171 12.6089 26.6487C12.5188 26.8312 12.6315 26.5848 12.645 26.5391C12.654 26.5072 12.6675 26.4707 12.6856 26.4342Z" fill="#C36264"/>
<path d="M14.9889 0.442604C14.2226 0.0455434 13.0236 0.291995 12.1851 0.282867C10.6255 0.269175 9.06581 0.273742 7.50614 0.319381C5.76166 0.369584 3.34102 0.168776 1.72727 0.985718C0.181123 1.77071 0.0143417 3.72863 0.0639265 5.26211C0.248742 11.3367 0.636401 17.7262 3.05704 23.3763C3.76475 25.0284 4.75645 26.6988 6.30259 27.671C8.70069 29.1771 11.4459 28.3053 12.8162 25.891C13.9116 23.9605 14.3308 21.7333 14.5607 19.5472C14.7365 17.895 14.6238 16.2246 14.741 14.5679C14.8627 12.82 15.3721 11.1267 15.6516 9.39701C16.0888 6.66779 16.6252 3.81991 15.62 1.15001C15.4803 0.807718 15.2594 0.584086 14.9889 0.442604Z" fill="url(#paint0_linear_125_3481)"/>
<defs>
<linearGradient id="paint0_linear_125_3481" x1="-2.64578" y1="14.2642" x2="19.4055" y2="14.3428" gradientUnits="userSpaceOnUse">
<stop stop-color="#94938C"/>
<stop offset="0.2296" stop-color="#EDEBE0"/>
<stop offset="0.7988" stop-color="#EDEBE0"/>
<stop offset="1" stop-color="#94938C"/>
</linearGradient>
</defs>
</svg>
