<svg width="16" height="32" viewBox="0 0 16 32" fill="none" xmlns="http://www.w3.org/2000/svg">
<path d="M13.5333 24.2608C12.9698 24.4844 12.5146 24.74 12.181 25.0229L11.8745 25.2648L11.7663 25.6573C11.7437 25.7258 11.4778 26.4925 10.7881 27.2547C9.86403 28.277 8.60638 28.8338 7.04671 28.9114C5.55917 28.9845 4.4142 28.4413 3.54421 27.2593C2.85002 26.3145 2.60661 25.3059 2.59759 25.2511L2.43531 24.457L1.64197 24.2516C1.60591 24.2425 1.43912 24.2014 1.1912 24.1649C1.18669 24.2334 1.17315 24.2973 1.15061 24.3612C1.03341 24.6533 0.947768 24.9499 0.88466 25.2603C0.871137 25.3333 0.857622 25.4017 0.848607 25.4748C0.880161 25.2785 0.84409 25.5387 0.839583 25.5797C0.753936 26.4925 0.776479 27.5696 1.18217 28.4094C2.23698 30.591 4.90103 31.6681 7.17292 31.5585C8.8543 31.4764 10.6664 30.8876 11.9872 29.7786C13.7542 28.2862 13.6054 26.3876 13.5333 24.2608Z" fill="#C36264"/>
<path d="M0.488061 0.537399C0.636815 0.400481 0.898254 0.373097 1.38058 0.332022C2.11985 0.268127 2.88615 0.322889 3.62993 0.327453C6.6501 0.332017 9.67027 0.391344 12.6904 0.391344C12.6904 0.391344 15.6114 1.04856 15.2869 2.69157C14.9623 4.33459 13.9887 24.7217 13.015 26.0361C12.0413 27.3505 9.76944 31.6269 4.8966 30.3125C0.023757 28.9981 0.997424 17.4879 0.997424 17.4879C1.12815 15.4021 0.609774 13.0928 0.470034 11.0116C0.262679 7.91728 0.082362 4.79555 0.258163 1.69663C0.298732 1.01661 0.31226 0.701701 0.488061 0.537399Z" fill="url(#paint0_linear_125_3487)"/>
<defs>
<linearGradient id="paint0_linear_125_3487" x1="-2.05252" y1="15.4061" x2="17.3658" y2="15.4754" gradientUnits="userSpaceOnUse">
<stop stop-color="#94938C"/>
<stop offset="0.2296" stop-color="#EDEBE0"/>
<stop offset="0.7988" stop-color="#EDEBE0"/>
<stop offset="1" stop-color="#94938C"/>
</linearGradient>
</defs>
</svg>
