<svg width="17" height="30" viewBox="0 0 17 30" fill="none" xmlns="http://www.w3.org/2000/svg">
<path d="M9.33405 29.3369C10.168 29.2182 11.0965 29.0129 11.7997 28.5291C12.6833 27.9266 13.125 26.9362 13.3279 25.9093C13.4496 25.3023 13.5262 24.6908 13.6614 24.0883L13.5668 24.0837L13.1701 24.4945C13.1521 24.5128 11.3039 26.3749 8.95989 26.7126C6.78718 27.0275 5.69633 26.028 5.59266 25.9276C5.35826 25.599 4.99763 25.3936 4.52432 25.3251C4.29894 25.2932 4.00595 25.2795 3.6814 25.2886C3.75803 25.4164 3.8076 25.567 3.8076 25.7177C3.8076 25.8089 3.81661 25.9002 3.82112 25.9915C3.82112 25.9961 3.82112 26.0006 3.82112 26.0052C3.82563 26.0463 3.83464 26.0828 3.84366 26.1238C4.03749 27.096 4.58743 28.3739 5.47094 28.8851C5.67379 29.0037 5.89917 29.0813 6.12456 29.1498C7.17034 29.4556 8.26121 29.4921 9.33405 29.3369Z" fill="#C36264"/>
<path d="M5.62866 25.9778C5.62866 25.9778 5.63567 25.9849 5.62866 25.9778C5.63567 25.9849 5.62866 25.9778 5.62866 25.9778Z" fill="#C36264"/>
<path d="M1.97292 0.442604C2.73924 0.0455434 3.9383 0.291995 4.77674 0.282867C6.33642 0.269175 7.89609 0.273742 9.45577 0.319381C11.2003 0.369584 13.6209 0.168776 15.2347 0.985718C16.7809 1.77071 16.9476 3.72863 16.898 5.26211C16.7132 11.3367 16.3256 17.7262 13.9049 23.3763C13.1972 25.0284 12.2055 26.6988 10.6593 27.671C8.26122 29.1771 5.51601 28.3053 4.14566 25.891C3.05028 23.9605 2.63105 21.7333 2.40115 19.5472C2.22535 17.895 2.33805 16.2246 2.22085 14.5679C2.09914 12.82 1.58978 11.1267 1.3103 9.39701C0.873044 6.66779 0.336609 3.81991 1.34184 1.15001C1.48158 0.807718 1.69795 0.584086 1.97292 0.442604Z" fill="url(#paint0_linear_125_3490)"/>
<defs>
<linearGradient id="paint0_linear_125_3490" x1="19.6051" y1="14.2642" x2="-2.44642" y2="14.3429" gradientUnits="userSpaceOnUse">
<stop stop-color="#94938C"/>
<stop offset="0.2296" stop-color="#EDEBE0"/>
<stop offset="0.7988" stop-color="#EDEBE0"/>
<stop offset="1" stop-color="#94938C"/>
</linearGradient>
</defs>
</svg>
