<svg width="18" height="23" viewBox="0 0 18 23" fill="none" xmlns="http://www.w3.org/2000/svg">
<path d="M13.0725 19.8646L13.05 19.8738C13.0184 19.8829 10.2327 20.8048 5.06689 21.5076C5.45456 21.6263 5.84672 21.7495 6.23889 21.859C6.54541 21.9458 6.86094 22.0097 7.17197 22.069C7.32974 22.0964 7.483 22.1238 7.64076 22.1466C7.65879 22.1511 7.73092 22.1603 7.75797 22.1648C7.83009 22.174 7.90223 22.1831 7.97435 22.1922C8.59641 22.2607 9.22747 22.2881 9.85404 22.2835C10.4851 22.2744 11.1207 22.2333 11.7473 22.1648C11.9231 22.1466 12.0944 22.1238 12.2657 22.1009C12.2702 22.1009 12.2747 22.1009 12.2792 22.1009C12.3243 22.0918 12.3693 22.0872 12.4189 22.0781C12.6353 22.0416 12.8471 21.996 13.0545 21.9366C13.2483 21.8819 13.4377 21.818 13.627 21.745C13.6315 21.745 13.6315 21.7404 13.636 21.7404C13.6675 21.7267 13.6991 21.7084 13.7306 21.6948C13.8253 21.6491 13.9155 21.5989 14.0056 21.5441C14.0958 21.4939 14.1814 21.4346 14.2671 21.3753C14.2941 21.357 14.3167 21.3388 14.3437 21.3205C14.4834 21.1973 14.6187 21.0741 14.7404 20.9326C14.7719 20.8961 14.8035 20.8596 14.835 20.8185C14.8846 20.7455 14.9342 20.677 14.9793 20.5994C15.083 20.4306 15.1731 20.2571 15.2543 20.0746C15.2543 20.07 15.2587 20.0655 15.2587 20.0609C15.2768 20.0061 15.2993 19.9514 15.3174 19.8966C15.3489 19.8007 15.3805 19.7095 15.4075 19.6136C15.4571 19.4402 15.4977 19.2622 15.5337 19.0842L13.0725 19.8646Z" fill="#C36264"/>
<path d="M13.8117 0.504273C13.0904 0.175667 12.3376 0.166538 11.3324 0.417556C11.0619 0.486016 10.7689 0.590986 10.6202 0.832876C9.92594 1.96018 15.6103 4.1235 16.291 3.17876C16.6922 2.61739 15.1775 1.49465 14.8575 1.21625C14.4969 0.896773 14.1588 0.664011 13.8117 0.504273Z" fill="#D9D7D0"/>
<path d="M3.9399 0.691425C3.60634 0.791832 3.3494 0.901369 3.24122 0.997212C2.7003 1.48099 2.13683 1.99214 1.89342 2.6813C1.79425 2.95513 1.78524 3.32938 2.03316 3.47999C2.11881 3.53019 2.21798 3.54845 2.31264 3.55301C3.44857 3.64886 4.76478 2.90037 5.72941 2.36639C6.08552 2.17014 7.61812 1.4536 7.546 0.896802C7.43782 0.0479107 5.15696 0.321746 3.9399 0.691425Z" fill="#D9D7D0"/>
<path d="M1.93393 2.81368C1.93393 2.81368 -0.337969 4.45671 0.960257 8.73314C1.60937 14.6526 3.55671 20.572 3.55671 20.572C3.55671 20.572 4.20582 21.5579 8.75412 21.5579C13.3024 21.5579 14.6006 20.9007 15.2498 19.5862C15.8989 18.2718 17.5217 5.77569 17.5217 5.77569C17.5217 5.77569 17.1971 2.81825 15.8989 2.48965C14.6006 2.16104 13.3024 1.83243 12.9779 1.83243C12.6533 1.83243 9.73229 -0.139195 8.42955 0.18941C7.12682 0.518014 3.88127 3.14229 1.93393 2.81368Z" fill="url(#paint0_linear_125_3500)"/>
<defs>
<linearGradient id="paint0_linear_125_3500" x1="-3.05124" y1="10.8063" x2="20.9268" y2="10.8919" gradientUnits="userSpaceOnUse">
<stop stop-color="#94938C"/>
<stop offset="0.2296" stop-color="#EDEBE0"/>
<stop offset="0.7988" stop-color="#EDEBE0"/>
<stop offset="1" stop-color="#94938C"/>
</linearGradient>
</defs>
</svg>
