<svg width="26" height="23" viewBox="0 0 26 23" fill="none" xmlns="http://www.w3.org/2000/svg">
<path d="M23.4732 4.39641C23.4597 4.37359 23.4462 4.35077 23.4371 4.32795C21.3906 0.658545 15.8101 0.544446 12.1183 0.471423C11.5188 0.457731 10.9553 0.448605 10.5001 0.421221C8.99899 0.334506 7.19591 0.576393 5.5506 1.09212C4.77528 1.33401 3.98643 1.62154 3.31028 2.07793C2.7378 2.4613 2.49438 2.89944 2.21942 3.5247C2.19237 3.58403 2.16533 3.64792 2.12025 3.69356L2.11574 3.69813C2.10222 3.7392 2.08418 3.78028 2.06615 3.82136C1.86331 4.22298 1.66497 4.62461 1.48015 5.03536C1.43508 5.13577 1.39 5.23618 1.34492 5.34115C1.34041 5.35027 1.34042 5.35484 1.33591 5.3594C1.33591 5.36396 1.3314 5.36853 1.3314 5.37309C1.30886 5.4233 1.29083 5.47806 1.26829 5.52827C1.18715 5.73364 1.11052 5.94359 1.0384 6.15353C0.889647 6.5871 0.763433 7.02524 0.673279 7.47251C0.650741 7.58204 0.632708 7.68701 0.614677 7.79654C0.605662 7.84675 0.601154 7.89239 0.592139 7.94259C0.592139 7.95628 0.587632 7.96997 0.587632 7.98366C0.583124 8.00648 0.583121 8.03387 0.578613 8.05669C0.89866 8.07038 1.23223 8.043 1.54777 8.03843C1.95797 8.03387 2.36366 8.02474 2.77386 8.02018C3.04433 8.01561 3.28774 8.11602 3.47256 8.28489C3.51313 8.30771 3.54919 8.33509 3.58525 8.36247C3.76556 8.36247 3.95037 8.36247 4.13068 8.35791C4.25689 7.55466 4.31099 6.74684 4.32451 6.04399C4.32 6.04399 4.31549 6.04856 4.31099 6.04856C4.32451 5.86144 4.32902 5.67431 4.33352 5.48719C4.33352 4.69763 4.28845 4.10432 4.27042 3.88981C4.26591 3.86243 4.26591 3.83048 4.2614 3.8031C4.51383 3.60685 5.20802 3.23717 6.38903 2.89487C7.74585 2.50237 9.20634 2.31982 10.3919 2.38828C10.8832 2.41566 11.4692 2.42935 12.0868 2.44305C15.3368 2.50694 20.2502 2.60735 21.7558 5.30464C22.6528 6.91114 23.8113 8.86451 24.5235 9.57192C24.6903 9.57648 24.8571 9.58561 25.0238 9.5993C24.5595 7.83762 24.0953 6.0942 23.4732 4.39641Z" fill="#C36264"/>
<path d="M3.65734 7.60492C3.38688 7.68707 2.99921 8.431 2.85046 8.6455C2.25544 9.49439 1.74157 10.4072 1.35391 11.3747C0.317133 13.9808 0.465887 16.8378 2.41322 18.9691C2.43575 18.9965 2.45829 19.0193 2.48083 19.0467C2.58451 19.1563 2.6972 19.2658 2.78285 19.3936C3.02175 19.7496 3.08035 20.1968 3.30574 20.5665C3.52211 20.9134 3.83765 21.2374 4.14417 21.4976C4.86541 22.1137 5.82555 22.5427 6.78569 22.4469C7.11475 22.4149 7.43029 22.2963 7.73681 22.1776C9.08011 21.6664 10.5406 21.0822 11.2528 19.7313C11.1717 19.8865 11.5413 20.5118 11.636 20.6395C11.8614 20.9453 12.1318 21.0822 12.4789 21.2146C13.6194 21.6619 14.8635 22.0179 15.9589 22.5747C16.7162 22.8713 17.3517 23.1497 18.1226 22.8941C18.5688 22.7435 19.0241 22.6157 19.4658 22.4514C20.2953 22.1456 21.6746 21.6071 21.6746 20.5163C21.6746 18.8322 23.063 13.7799 19.7318 8.72765C16.4141 3.67537 3.66636 7.60036 3.65734 7.60492Z" fill="#D9D7D0"/>
<path d="M3.63926 3.4517C3.32372 3.54754 2.86844 4.41926 2.69264 4.67027C1.99394 5.66521 1.39442 6.73774 0.943653 7.8696C-0.273427 10.9183 -0.0976263 14.2683 2.18327 16.7647C2.21032 16.7921 2.23736 16.8241 2.26441 16.8515C2.38611 16.9838 2.51684 17.1116 2.61601 17.2577C2.89549 17.6775 2.9631 18.2024 3.22906 18.6314C3.48149 19.0376 3.85112 19.4164 4.20722 19.7222C5.05017 20.4433 6.1771 20.9453 7.29951 20.8312C7.68718 20.7947 8.0523 20.6532 8.41742 20.5163C9.99061 19.9184 11.7035 19.2338 12.5375 17.6502C12.4428 17.8327 12.8755 18.5675 12.9837 18.7136C13.2452 19.0741 13.5652 19.2293 13.9709 19.389C15.3097 19.9139 16.7657 20.3338 18.0459 20.9818C18.9339 21.3287 19.6777 21.6573 20.5792 21.3561C21.1021 21.1826 21.634 21.0275 22.1524 20.8358C23.1215 20.4752 24.7398 19.8454 24.7398 18.5721C24.7398 16.6004 26.3626 10.681 22.4679 4.76155C18.5778 -1.14877 3.65278 3.44713 3.63926 3.4517Z" fill="url(#paint0_linear_125_3523)"/>
<defs>
<linearGradient id="paint0_linear_125_3523" x1="-5.55797" y1="13.9534" x2="29.0515" y2="10.3636" gradientUnits="userSpaceOnUse">
<stop stop-color="#94938C"/>
<stop offset="0.2296" stop-color="#EDEBE0"/>
<stop offset="0.7988" stop-color="#EDEBE0"/>
<stop offset="1" stop-color="#94938C"/>
</linearGradient>
</defs>
</svg>
