<svg width="28" height="23" viewBox="0 0 28 23" fill="none" xmlns="http://www.w3.org/2000/svg">
<path d="M23.4751 18.3499C23.1325 18.3591 22.7494 18.4686 21.9831 18.6831C20.5992 19.0756 18.0253 19.8104 14.7753 20.0568C10.8265 20.3535 6.97244 19.8515 3.32121 18.569L2.92906 18.4321L2.30249 18.6146C2.32052 18.6877 2.33403 18.7607 2.32952 18.8383C2.32501 18.9524 2.33403 19.0619 2.33403 19.176C2.34305 19.2216 2.35207 19.2673 2.36108 19.3175C2.53688 20.066 3.09584 20.7232 3.63226 21.2389C3.75397 21.3576 3.88469 21.4671 4.03344 21.5493C4.20473 21.6451 4.39404 21.6953 4.58337 21.7409C9.94752 23.101 15.501 23.0873 20.8697 21.7318C21.5909 21.5493 22.3257 21.3804 23.0334 21.1476C23.8538 20.8784 24.4623 20.3809 25.1069 19.8286C25.3593 19.6141 25.6072 19.3905 25.8416 19.1577C25.9724 19.03 26.0986 18.893 26.2203 18.7561C26.2789 18.6877 26.3375 18.6192 26.3961 18.5507C26.4051 18.5416 26.4096 18.537 26.4141 18.5279C26.4186 18.5234 26.4231 18.5142 26.4276 18.5051C26.5223 18.3682 26.617 18.2267 26.6936 18.0761C26.7071 18.0487 26.7207 18.0213 26.7342 17.9985C26.7522 17.9392 26.7702 17.8844 26.7838 17.8251C25.0618 18.1309 23.7816 18.3408 23.4751 18.3499Z" fill="#C36264"/>
<path d="M9.79888 0.258424C8.49615 0.349704 7.48641 0.737645 6.41808 1.48157C6.12958 1.68239 5.85462 1.92884 5.90871 2.21638C6.17467 3.56275 15.988 2.48109 15.8934 1.29902C15.8348 0.596161 12.6433 0.40904 11.931 0.331452C11.1242 0.240172 10.4255 0.217348 9.79888 0.258424Z" fill="#D9D7D0"/>
<path d="M21.0141 0.0805006C19.8376 0.0120401 18.8774 0.27219 17.8046 0.879207C17.5161 1.04351 17.2321 1.24889 17.2366 1.54099C17.2637 2.90108 26.189 3.01518 26.2927 1.83765C26.3513 1.13936 23.5339 0.56885 22.9074 0.409109C22.1996 0.221984 21.5821 0.112449 21.0141 0.0805006Z" fill="#D9D7D0"/>
<path d="M5.17403 1.13936C4.22742 1.2352 3.33491 1.60488 2.5641 2.41726C1.57241 3.4624 1.07656 4.91373 0.954853 6.35593C0.693409 9.45027 1.21631 13.1334 1.9781 16.1319C2.22152 17.0857 2.24406 19.0847 2.88866 19.8195C4.89908 22.106 9.31207 20.9924 11.9806 20.8053C15.0413 20.5908 18.3319 20.4859 21.0726 19.8195C22.8892 19.7282 26.2203 20.1344 26.7703 17.7064C27.4013 14.9224 27.789 12.0745 27.9197 9.22208C28.0189 7.09072 28.3254 1.81938 25.2962 1.40863C24.8545 1.3493 24.1062 1.85589 23.66 1.9563C22.7359 2.1708 21.8299 2.13886 20.9103 1.8924C19.7789 1.58662 18.7286 1.03895 17.6467 0.596247C17.4124 0.500405 17.1644 0.404562 16.912 0.41369C16.335 0.427382 15.9068 0.938545 15.4425 1.28997C13.4907 2.77324 9.99724 2.0065 7.84258 1.43601C6.94555 1.18956 6.035 1.04808 5.17403 1.13936Z" fill="url(#paint0_linear_125_3505)"/>
<defs>
<linearGradient id="paint0_linear_125_3505" x1="-4.7812" y1="10.7631" x2="33.816" y2="10.9008" gradientUnits="userSpaceOnUse">
<stop stop-color="#94938C"/>
<stop offset="0.2296" stop-color="#EDEBE0"/>
<stop offset="0.7988" stop-color="#EDEBE0"/>
<stop offset="1" stop-color="#94938C"/>
</linearGradient>
</defs>
</svg>
