<svg width="27" height="23" viewBox="0 0 27 23" fill="none" xmlns="http://www.w3.org/2000/svg">
<path d="M22.0025 17.192C20.5421 17.8401 13.6588 20.1495 6.61326 19.5835L6.43747 19.5699L6.26167 19.6018C5.55847 19.7387 4.84174 19.8756 4.13403 20.0126C4.2332 20.081 4.30984 20.1677 4.36393 20.2727C4.42253 20.3959 4.49014 20.5055 4.56226 20.615C4.58029 20.6332 4.59833 20.6606 4.61637 20.6789C4.66595 20.7336 4.71553 20.7839 4.76511 20.8341C4.8192 20.8843 4.86879 20.9345 4.92739 20.9847C4.95895 21.0121 4.9905 21.0394 5.01755 21.0623C5.04008 21.0805 5.09868 21.1261 5.1077 21.1353C5.13475 21.1535 5.1618 21.1718 5.18885 21.1946C5.25196 21.2402 5.31505 21.2813 5.37816 21.327C5.81541 21.6145 6.2797 21.8609 6.7485 22.0891C6.87922 22.153 7.00544 22.2124 7.13616 22.2717C10.8821 22.4771 14.4341 21.9522 16.8142 21.4593C19.911 20.8158 22.1874 19.9989 23.0483 19.6155C23.161 19.5653 23.3008 19.5105 23.463 19.4466C23.4675 19.4421 23.4675 19.4375 23.4675 19.4375C23.5532 19.3234 23.6343 19.2047 23.7155 19.0861C24.0626 18.5703 24.3736 18.0272 24.6531 17.4704C24.7748 17.2194 24.892 16.9684 25.0002 16.7128C24.9911 16.7311 25.0452 16.6079 25.0542 16.5896C25.0813 16.5257 25.1038 16.4664 25.1264 16.4025C25.176 16.2701 25.2255 16.1378 25.2751 16.0009C23.8732 16.4755 22.6381 16.9091 22.0025 17.192Z" fill="#C36264"/>
<path d="M2.25879 15.8502C2.15512 14.6179 2.18666 13.3674 1.95226 12.1489C1.59165 10.2457 0.640527 8.58899 0.775757 6.57174C1.10031 1.72028 7.79869 1.34147 11.1659 2.68783C12.5678 3.24463 13.1403 2.71978 14.3168 1.96673C15.5924 1.14979 17.098 0.725342 18.6035 0.725342C20.3255 0.725342 22.2322 1.22281 23.7017 2.14016C25.8789 3.49565 25.8789 5.72284 26.0277 8.05958C26.1945 10.6428 26.1359 13.3081 25.2884 15.7817C25.0315 16.5394 24.6889 17.2833 24.148 17.8675C23.3817 18.7027 22.408 18.8122 21.3758 19.0541C19.9649 19.3827 18.5404 19.6611 17.116 19.9349C14.3258 20.4689 11.513 20.9025 8.67318 21.0485C7.32539 21.117 5.93254 20.98 4.73801 20.3502C3.01608 19.4283 2.41205 17.7123 2.25879 15.8502Z" fill="url(#paint0_linear_125_3510)"/>
<defs>
<linearGradient id="paint0_linear_125_3510" x1="-3.285" y1="13.9233" x2="29.8301" y2="7.55892" gradientUnits="userSpaceOnUse">
<stop stop-color="#94938C"/>
<stop offset="0.2114" stop-color="#EDEBE0"/>
<stop offset="0.847" stop-color="#EDEBE0"/>
<stop offset="1" stop-color="#94938C"/>
</linearGradient>
</defs>
</svg>
