<svg width="18" height="24" viewBox="0 0 18 24" fill="none" xmlns="http://www.w3.org/2000/svg">
<path d="M17.8833 9.65352C17.8833 9.64896 17.8338 9.53486 17.8247 9.51204C17.7977 9.45271 17.7752 9.39338 17.7481 9.33404C17.685 9.188 17.6219 9.04195 17.5543 8.89591C17.419 8.59468 17.2748 8.29346 17.1351 7.99224C16.3057 6.2625 15.6836 4.15396 14.2502 2.7939C12.988 1.59358 11.2751 1.00483 9.57117 0.895295C9.22408 0.872475 8.87248 0.867911 8.52539 0.881603C5.02742 1.01396 3.67962 2.66154 2.37239 4.25436C2.2642 4.38672 2.15151 4.52364 2.03881 4.66056C2.01177 4.70163 1.98472 4.74727 1.95767 4.78835C1.80892 5.03024 1.6782 5.28126 1.56101 5.53684C1.57002 5.52314 1.50691 5.66463 1.5024 5.67376C1.47536 5.75134 1.44831 5.82893 1.42126 5.90652C1.37168 6.05256 1.33111 6.19861 1.28603 6.34465C1.07868 7.07032 0.934434 7.81425 0.803711 8.55817C0.889357 8.55361 0.975001 8.54448 1.06065 8.53992C1.38971 8.25695 2.04783 7.62256 3.2018 6.29445C3.4362 6.02518 3.65257 5.76047 3.86443 5.50489C5.0815 4.01704 5.96501 2.94451 8.5975 2.83954C12.1225 2.70262 13.3712 4.66968 13.583 5.06218C13.7228 5.31777 13.9256 5.58248 14.1645 5.84719C14.3493 6.90146 14.6603 8.1246 15.0931 9.29297C15.3545 9.32035 15.6115 9.35687 15.8729 9.39338C16.5626 9.48922 17.2433 9.62614 17.9284 9.76762C17.9149 9.73111 17.9014 9.69003 17.8833 9.65352Z" fill="#C36264"/>
<path d="M9.06183 23.0214C9.06183 23.0214 3.79683 24.1258 1.93064 21.3555C0.0644509 18.5852 8.43526 21.351 9.06183 23.0214Z" fill="#D9D7D0"/>
<path d="M9.83276 23.2587C9.83276 23.2587 15.4403 23.642 16.8332 19.9635C18.2306 16.2759 10.1618 21.1273 9.83276 23.2587Z" fill="#D9D7D0"/>
<path d="M12.0731 2.60222C12.1542 2.6433 12.2354 2.68894 12.3075 2.74371C13.7365 3.75234 14.94 5.3908 15.8506 6.87408C17.2299 9.12411 18.2171 11.6982 17.9512 14.3818C17.7709 16.2165 17.568 18.3296 16.662 19.9772C16.1346 20.9402 14.9445 21.3829 13.9754 21.7206C13.1459 22.0127 12.3075 22.2865 11.4961 22.6243C10.7433 22.9346 10.0086 23.4686 9.16111 23.4001C8.18745 23.3226 7.50679 22.5467 6.73146 22.0492C5.50987 21.2642 4.04936 20.858 2.60238 20.931C2.34995 20.9447 2.0885 20.9676 1.84508 20.8945C1.48897 20.785 1.22753 20.4792 1.02017 20.1689C0.0645363 18.7586 0.091586 17.3894 0.0825705 15.7464C0.0735551 14.076 0.105109 12.401 0.420649 10.758C0.979607 7.82795 2.89087 5.40905 3.89609 2.6433C3.9547 2.48356 4.0133 2.31926 4.11698 2.19147C4.29729 1.96783 4.59479 1.86743 4.87878 1.84461C5.4152 1.79897 5.95162 1.88568 6.48353 1.94045C7.48875 2.04998 8.47144 2.16408 9.48117 2.23254C10.2745 2.28731 11.3248 2.22798 12.0731 2.60222Z" fill="url(#paint0_linear_125_3527)"/>
<defs>
<linearGradient id="paint0_linear_125_3527" x1="-5.84201" y1="13.0232" x2="24.202" y2="12.1091" gradientUnits="userSpaceOnUse">
<stop stop-color="#94938C"/>
<stop offset="0.2666" stop-color="#EDEBE0"/>
<stop offset="0.7117" stop-color="#EDEBE0"/>
<stop offset="1" stop-color="#94938C"/>
</linearGradient>
</defs>
</svg>
