<svg width="19" height="24" viewBox="0 0 19 24" fill="none" xmlns="http://www.w3.org/2000/svg">
<path d="M17.2335 7.29703C17.0893 6.70372 16.9315 6.11041 16.7872 5.5171C16.377 4.64538 15.9668 3.77823 15.5071 2.9339C15.3989 2.78329 15.2862 2.63725 15.1509 2.51402C14.6145 2.01655 13.9744 1.63318 13.3208 1.31827C11.7702 0.565217 10.0302 0.131643 8.31277 0.0723118C5.53603 -0.018967 4.00342 1.92984 3.26416 2.87914C3.22809 2.92934 3.19654 2.97498 3.16499 3.02518C2.98017 3.31271 2.80888 3.60937 2.65562 3.91515C2.57448 4.07945 2.49785 4.24832 2.42122 4.41718C2.41671 4.43088 2.4122 4.44 2.40769 4.44913C2.40319 4.45826 2.40319 4.46739 2.39868 4.47652C2.36262 4.56323 2.33106 4.64994 2.295 4.73666C2.16879 5.06983 2.0606 5.403 1.96594 5.74529C1.87128 6.08759 1.78563 6.43445 1.71802 6.78131C1.69548 6.88172 1.67745 6.98212 1.65942 7.08709C1.67745 7.09165 1.69998 7.09166 1.71802 7.09622C1.99298 7.15099 2.26796 7.20575 2.54744 7.24683C2.6421 7.26052 2.73225 7.29247 2.81339 7.33811C3.06582 7.38375 3.31825 7.42939 3.56617 7.48415C3.62928 7.49785 3.68788 7.5161 3.74648 7.54349C3.98088 7.44308 4.21528 7.34267 4.44968 7.25596C4.8734 7.10078 5.35573 6.95474 5.81551 6.97756C6.46011 5.18849 6.64042 3.47245 6.64042 3.47245L6.74409 2.03937L8.24516 2.03024C9.27742 2.06675 10.3503 2.28582 11.2924 2.6053C11.5403 4.19355 12.0812 6.25189 12.9512 7.94511C13.6859 8.00901 14.4162 8.07747 15.1509 8.11854C15.9082 8.15962 16.67 8.16875 17.4273 8.15962C17.3687 7.87665 17.3011 7.58456 17.2335 7.29703Z" fill="#C36264"/>
<path d="M9.18272 22.6638C9.18272 22.6638 3.87264 23.5036 2.14168 20.6465C0.410716 17.7895 8.63729 20.9615 9.18272 22.6638Z" fill="#D9D7D0"/>
<path d="M11.1706 23.5995C9.98513 23.7364 9.11514 22.4813 7.95216 22.2348C6.0995 21.8469 4.28742 22.1527 2.70523 20.8748C1.398 19.8159 0.604651 18.1729 0.338698 16.5208C0.00513054 14.4625 0.352219 12.3722 0.753402 10.3503C0.924694 9.48776 1.2222 8.67081 1.56478 7.863C1.92991 7.00498 2.59253 6.16522 2.88102 5.28894C2.88102 5.28894 5.47745 -2.60211 14.5739 3.31732C14.5739 3.31732 22.0432 14.499 16.5213 20.4138C15.8451 21.1349 14.7858 21.6461 13.9654 22.1755C13.1089 22.7232 12.2074 23.4808 11.1706 23.5995Z" fill="url(#paint0_linear_125_3532)"/>
<defs>
<linearGradient id="paint0_linear_125_3532" x1="-3.35417" y1="12.7712" x2="23.2018" y2="11.9633" gradientUnits="userSpaceOnUse">
<stop stop-color="#94938C"/>
<stop offset="0.0261345" stop-color="#A3A199"/>
<stop offset="0.0903002" stop-color="#C2C0B6"/>
<stop offset="0.1529" stop-color="#DAD7CD"/>
<stop offset="0.2127" stop-color="#E8E6DB"/>
<stop offset="0.2666" stop-color="#EDEBE0"/>
<stop offset="0.7117" stop-color="#EDEBE0"/>
<stop offset="0.765" stop-color="#E6E4D9"/>
<stop offset="0.8381" stop-color="#D3D0C7"/>
<stop offset="0.9223" stop-color="#B5B3AA"/>
<stop offset="1" stop-color="#94938C"/>
</linearGradient>
</defs>
</svg>
