<svg width="21" height="31" viewBox="0 0 21 31" fill="none" xmlns="http://www.w3.org/2000/svg">
<path d="M18.8643 9.1753C18.8057 8.89233 18.7381 8.6185 18.6615 8.34466C17.5797 4.57941 14.546 1.30706 10.5882 0.846105C10.3042 0.814157 10.0203 0.791338 9.73176 0.786774C7.0587 0.718315 5.04376 1.4668 3.73203 3.01854C2.62764 4.32383 2.23999 5.9349 1.956 7.1124C1.90191 7.34059 1.85232 7.5551 1.79372 7.75135C1.69906 9.24832 1.3745 10.7225 1.16264 12.2058C1.15814 12.2286 1.1356 12.3974 1.1356 12.4111C1.12659 12.4842 1.11757 12.5617 1.10855 12.6348C1.09052 12.7808 1.077 12.9269 1.06348 13.0729C1.59989 13.0136 2.14082 12.9679 2.68174 12.936C2.85304 12.5572 2.99728 12.1738 3.11899 11.8041C3.44805 10.8183 3.75007 9.7321 3.80867 8.69152C3.85374 7.87914 3.91234 7.17629 4.15124 6.39129C4.38113 5.64281 4.69217 4.89889 5.20154 4.29645C6.12561 3.2011 7.59061 2.69907 9.67767 2.74927C12.2245 2.81316 14.253 4.0865 15.718 6.52821C16.5068 7.84719 16.9215 9.17986 17.1063 9.88727C17.2641 10.8594 17.4579 11.8269 17.6833 12.7854C17.6878 12.8036 17.6923 12.8219 17.6968 12.8356C17.7645 12.8401 17.8321 12.8493 17.8997 12.8538C18.3685 12.8949 18.8418 12.9269 19.3106 12.9542C19.1979 11.7083 19.1213 10.4121 18.8643 9.1753Z" fill="#C36264"/>
<path d="M14.2576 3.58444C14.2576 3.58444 21.4023 13.1185 20.1041 21.0096C19.6849 23.5563 18.8284 26.217 17.3093 28.3165C16.57 29.3388 15.6099 30.2698 14.3973 30.676C12.7971 31.2146 10.7371 30.7901 9.13234 30.4296C8.3435 30.2516 7.56367 30.0051 6.82892 29.6628C1.68113 27.2667 0.319794 21.0826 0.734502 15.8432C1.0275 12.1647 2.12738 8.59109 3.56534 5.21833C4.49392 3.0322 6.66212 2.45714 8.82582 2.14679C10.4531 1.91403 13.1487 2.10572 14.2576 3.58444Z" fill="url(#paint0_linear_125_3536)"/>
<defs>
<linearGradient id="paint0_linear_125_3536" x1="-5.57401" y1="16.1905" x2="27.1685" y2="16.7686" gradientUnits="userSpaceOnUse">
<stop stop-color="#94938C"/>
<stop offset="0.0637044" stop-color="#A3A19A"/>
<stop offset="0.1868" stop-color="#CDCAC1"/>
<stop offset="0.2666" stop-color="#EDEBE0"/>
<stop offset="0.7117" stop-color="#EDEBE0"/>
<stop offset="0.7738" stop-color="#DFDCD2"/>
<stop offset="0.8879" stop-color="#BCB9B0"/>
<stop offset="1" stop-color="#94938C"/>
</linearGradient>
</defs>
</svg>
