<?xml version="1.0" encoding="utf-8"?>
<!-- Generator: Adobe Illustrator 25.3.1, SVG Export Plug-In . SVG Version: 6.00 Build 0)  -->
<svg version="1.1" id="icon" xmlns="http://www.w3.org/2000/svg" xmlns:xlink="http://www.w3.org/1999/xlink" x="0px" y="0px"
	 viewBox="0 0 105.8 105.8" style="enable-background:new 0 0 105.8 105.8;" xml:space="preserve">
<style type="text/css">
	.st0{fill:#D73F34;}
</style>
<path class="st0" d="M52.9,105.8C23.7,105.8,0,82,0,52.9S23.7,0,52.9,0c8.4,0,16.6,2,24,5.8c0.7,0.4,1.3,1,1.5,1.8
	c0.2,0.8,0.2,1.6-0.2,2.3c-0.4,0.7-1,1.3-1.8,1.5c-0.8,0.2-1.6,0.2-2.3-0.2C67.6,7.8,60.3,6,52.9,6.1c-25.8,0-46.8,21-46.8,46.8
	c0,25.8,21,46.8,46.8,46.8c25.8,0,46.8-21,46.8-46.8c0-4-0.5-8-1.5-11.9c-0.2-0.8-0.1-1.6,0.3-2.3c0.4-0.7,1.1-1.2,1.8-1.4
	c0.8-0.2,1.6-0.1,2.3,0.3c0.7,0.4,1.2,1,1.4,1.8c1.2,4.4,1.7,8.9,1.7,13.5C105.8,82,82,105.8,52.9,105.8z"/>
<path class="st0" d="M51.3,65.6c-0.8,0-1.6-0.3-2.1-0.9L33.8,49.4c-0.5-0.6-0.8-1.3-0.8-2.1c0-0.8,0.3-1.5,0.9-2.1
	c0.5-0.5,1.3-0.9,2.1-0.9c0.8,0,1.5,0.3,2.1,0.8l13.2,13.2L99,10.6c0.6-0.6,1.3-0.9,2.1-0.8c0.8,0,1.6,0.3,2.1,0.9
	c0.6,0.6,0.9,1.3,0.9,2.1c0,0.8-0.3,1.6-0.8,2.1L53.4,64.8C52.8,65.3,52.1,65.6,51.3,65.6z"/>
</svg>
