<?xml version="1.0" encoding="utf-8"?>
<!-- Generator: Adobe Illustrator 25.3.1, SVG Export Plug-In . SVG Version: 6.00 Build 0)  -->
<svg version="1.1" id="icon" xmlns="http://www.w3.org/2000/svg" xmlns:xlink="http://www.w3.org/1999/xlink" x="0px" y="0px"
	 viewBox="0 0 131.3 153" style="enable-background:new 0 0 131.3 153;" xml:space="preserve">
<style type="text/css">
	.st0{fill:#D73F34;}
</style>
<path class="st0" d="M43.6,15l-8.9-4.9l-4.9-8.9c-0.9-1.7-3.7-1.7-4.7,0l-4.9,8.9L11.4,15c-0.9,0.5-1.4,1.4-1.4,2.3
	c0,1,0.5,1.9,1.4,2.3l8.9,4.9l4.9,8.9c0.5,0.9,1.4,1.4,2.3,1.4c1,0,1.9-0.5,2.3-1.4l4.9-8.9l8.9-4.9c0.9-0.5,1.4-1.4,1.4-2.3
	C44.9,16.4,44.4,15.5,43.6,15z M31.4,20.2c-0.4,0.2-0.8,0.6-1.1,1.1l-2.9,5.3l-2.9-5.3c-0.2-0.4-0.6-0.8-1.1-1.1l-5.3-2.9l5.3-2.9
	c0.4-0.2,0.8-0.6,1.1-1.1l2.9-5.3l2.9,5.3c0.2,0.4,0.6,0.8,1.1,1.1l5.3,2.9L31.4,20.2z"/>
<path class="st0" d="M39.4,137.9l-5.8-3.2l-3.2-5.8c-0.9-1.7-3.7-1.7-4.7,0l-3.2,5.8l-5.8,3.2c-0.9,0.5-1.4,1.4-1.4,2.3
	c0,1,0.5,1.9,1.4,2.3l5.8,3.2l3.2,5.8c0.5,0.9,1.4,1.4,2.3,1.4c1,0,1.9-0.5,2.3-1.4l3.2-5.8l5.8-3.2c0.9-0.5,1.4-1.4,1.4-2.3
	C40.8,139.3,40.3,138.4,39.4,137.9z M30.4,141.5c-0.4,0.2-0.8,0.6-1.1,1.1l-1.2,2.2l-1.2-2.2c-0.2-0.4-0.6-0.8-1.1-1.1l-2.2-1.2
	l2.2-1.2c0.4-0.2,0.8-0.6,1.1-1.1l1.2-2.2l1.2,2.2c0.2,0.4,0.6,0.8,1.1,1.1l2.2,1.2L30.4,141.5z"/>
<path class="st0" d="M82.6,31.8c-3.3,0-6.3,1.4-9.3,2.8c-2.5,1.2-4.9,2.3-7,2.3s-4.5-1.1-7-2.3c-2.9-1.4-6-2.8-9.3-2.8
	c-12.4,0-21.5,13.3-21.5,31.7c0,10.3,5.9,69.3,21.5,69.3c5.2,0,6.9-8.3,9.4-20.9c1.2-5.8,4.2-21.2,6.8-21.2c3.7,0,6.3,14.7,7.7,22.5
	c2.1,11.8,3.4,19.5,8.6,19.5c15.5,0,21.5-59.1,21.5-69.3C104.1,45.2,95.1,31.8,82.6,31.8z M83,127.5c-1.4-1.8-2.8-9.8-3.7-15.1
	c-2.3-13.2-4.7-26.9-12.9-26.9c-6.9,0-9.3,11.8-12,25.5c-1.2,5.9-3,14.8-4.5,16.5c-7.2-1.3-15.8-43.2-15.8-64
	c0-15.1,6.9-26.4,16.1-26.4c2.1,0,4.5,1.1,7,2.3c2.9,1.4,6,2.8,9.3,2.8c3.3,0,6.3-1.4,9.3-2.8c2.5-1.2,4.9-2.3,7-2.3
	c9.2,0,16.1,11.4,16.1,26.4C98.8,84.3,90.2,126.1,83,127.5z"/>
<path class="st0" d="M89.9,52.8l-5.8-3.2l-3.2-5.8c-0.9-1.7-3.7-1.7-4.7,0l-3.2,5.8l-5.8,3.2c-0.9,0.5-1.4,1.4-1.4,2.3
	c0,1,0.5,1.9,1.4,2.3l5.8,3.2l3.2,5.8c0.5,0.9,1.4,1.4,2.3,1.4c1,0,1.9-0.5,2.3-1.4l3.2-5.8l5.8-3.2c0.9-0.5,1.4-1.4,1.4-2.3
	C91.3,54.2,90.8,53.3,89.9,52.8z M80.9,56.4c-0.4,0.2-0.8,0.6-1.1,1.1l-1.2,2.2l-1.2-2.2c-0.2-0.4-0.6-0.8-1.1-1.1l-2.2-1.2l2.2-1.2
	c0.4-0.2,0.8-0.6,1.1-1.1l1.2-2.2l1.2,2.2c0.2,0.4,0.6,0.8,1.1,1.1l2.2,1.2L80.9,56.4z"/>
<path class="st0" d="M129.7,48.5c-1.7-2.9-6.2-5.9-26.5,1.3c-1.4,0.5-2.1,2-1.6,3.4c0.5,1.4,2,2.1,3.4,1.6
	c14.5-5.2,19.5-4.3,20.1-3.7c1.2,3.6-16.5,21.8-54.6,43.8c-38,22-62.7,28.2-65.2,25.4c-0.3-1,2.5-8,22.6-23c1.2-0.9,1.4-2.5,0.5-3.7
	c-0.9-1.2-2.5-1.4-3.7-0.5C5.5,107.4-2.5,117.5,0.7,123c1.2,2.1,3.8,3,7.4,3c15,0,47.1-16,65.1-26.4c16.7-9.7,31.8-20,42.4-29
	C131.7,56.8,131.3,51.4,129.7,48.5z"/>
<path class="st0" d="M107.5,92.7c-1.2-0.9-2.8-0.6-3.7,0.5c-0.9,1.2-0.6,2.8,0.5,3.7c19.4,14.6,22.1,21.4,21.8,22.3
	c-2.5,2.8-27.2-3.4-65.2-25.3C22.8,72,5.1,53.7,6.2,50.1c0.7-0.7,5.9-1.5,21.2,4c1.4,0.5,2.9-0.2,3.4-1.6c0.5-1.4-0.2-2.9-1.6-3.4
	C8,41.5,3.3,44.5,1.6,47.5c-1.7,2.9-2,8.3,14.1,22c10.6,9.1,25.7,19.4,42.4,29c18,10.4,50.1,26.4,65.1,26.4c3.6,0,6.2-0.9,7.4-3
	C133.8,116.5,126,106.6,107.5,92.7z"/>
</svg>
