<svg width="19" height="62" viewBox="0 0 19 62" fill="none" xmlns="http://www.w3.org/2000/svg">
<path d="M6.33292 35.4444C6.33292 35.4444 3.06466 36.7518 2.08382 44.2691C2.08382 44.2691 1.10346 52.1135 0.776367 54.4014C0.449724 56.6893 0.449725 59.6308 4.04462 60.6112C7.63997 61.5916 10.9082 60.9379 12.8694 60.2846C14.8306 59.6313 17.7722 57.6696 18.4255 55.3818C19.0793 53.0939 18.4256 41.9813 17.4452 40.0201C16.4648 38.0593 14.1769 32.8294 6.33292 35.4444Z" fill="url(#paint0_linear_86_2457)"/>
<path d="M13.6 55C13.8 56.6 11 57.3 9.59998 57.3C8.39998 57.3 6.79997 56.8 5.99997 56C5.09997 55 6.69997 53.9 7.49997 53.4C8.89997 52.5 10.7 52.8 12.1 53.5C12.8 53.8 13.5 54.3 13.6 55Z" fill="white"/>
<path d="M9.60112 4.39447C9.60112 4.39447 2.42701 20.0796 5.36036 36.5867C5.36036 36.5867 15.7623 35.3536 16.2767 38.1773C14.8177 31.3101 14.1168 24.0832 14.404 17.0731C14.5206 14.2291 14.7211 11.3891 14.8009 8.54371C14.8527 6.69093 15.1748 4.57414 14.3795 2.84839C14.0456 2.12297 13.4935 1.05684 12.5875 0.972003C11.0501 0.82819 10.062 3.33425 9.60112 4.39447Z" fill="url(#paint1_linear_86_2457)"/>
<defs>
<linearGradient id="paint0_linear_86_2457" x1="-3.83264" y1="48.5687" x2="22.1781" y2="47.2655" gradientUnits="userSpaceOnUse">
<stop stop-color="#94938C"/>
<stop offset="0.1599" stop-color="#D1CFC6"/>
<stop offset="0.2296" stop-color="#EDEBE1"/>
<stop offset="0.7988" stop-color="#EDEBE1"/>
<stop offset="0.9762" stop-color="#9F9E96"/>
<stop offset="1" stop-color="#94938C"/>
</linearGradient>
<linearGradient id="paint1_linear_86_2457" x1="13.6476" y1="19.5844" x2="4.66686" y2="19.7449" gradientUnits="userSpaceOnUse">
<stop stop-color="#BFAB8D"/>
<stop offset="0.5078" stop-color="#E7E1D2"/>
<stop offset="1" stop-color="#CCBFA6"/>
</linearGradient>
</defs>
</svg>
