<svg width="19" height="53" viewBox="0 0 19 53" fill="none" xmlns="http://www.w3.org/2000/svg">
<path d="M15.2574 21.1716C15.2574 21.1716 9.04786 46.6652 3.81818 50.9138C-1.41105 55.1628 1.20335 46.6648 1.20335 46.6648C1.20335 46.6648 3.16448 30.9766 3.16448 28.0351C3.16448 25.0935 2.12472 19.5847 2.12472 19.5847C2.12472 19.5847 12.1967 21.7537 15.2574 21.1716Z" fill="url(#paint0_linear_86_2504)"/>
<path d="M15.5844 1.8881C15.5844 1.8881 18.8526 3.5222 17.8722 8.09786C16.8919 12.6735 17.2185 15.2884 17.2185 15.2884C17.2185 15.2884 16.5648 23.1327 11.0088 23.4594C5.45229 23.786 1.85747 20.5178 1.53038 18.5566C1.20375 16.5954 1.20374 11.0394 0.876647 10.0586C0.549556 9.07776 -0.430812 2.86799 2.83783 1.88762C6.10648 0.907248 8.06721 0.580186 8.06721 0.580186C8.06721 0.580186 11.3359 -0.399725 15.5844 1.8881Z" fill="url(#paint1_linear_86_2504)"/>
<path d="M13.8668 5.15919C14.0668 6.75919 11.2668 7.4592 9.86683 7.4592C8.66683 7.4592 7.06682 6.95919 6.26682 6.15919C5.36682 5.15919 6.96682 4.05919 7.76682 3.55919C9.16682 2.65919 10.9668 2.95919 12.3668 3.65919C13.0668 4.05919 13.7668 4.55919 13.8668 5.15919Z" fill="white"/>
<defs>
<linearGradient id="paint0_linear_86_2504" x1="1.99863" y1="35.8449" x2="13.5547" y2="35.8866" gradientUnits="userSpaceOnUse">
<stop stop-color="#BFAB8D"/>
<stop offset="0.5078" stop-color="#E7E1D2"/>
<stop offset="1" stop-color="#CCBFA6"/>
</linearGradient>
<linearGradient id="paint1_linear_86_2504" x1="-2.66235" y1="11.881" x2="20.8405" y2="11.966" gradientUnits="userSpaceOnUse">
<stop stop-color="#94938C"/>
<stop offset="0.2296" stop-color="#EDEBE1"/>
<stop offset="0.7988" stop-color="#EDEBE1"/>
<stop offset="1" stop-color="#94938C"/>
</linearGradient>
</defs>
</svg>
