<svg width="25" height="43" viewBox="0 0 25 43" fill="none" xmlns="http://www.w3.org/2000/svg">
<path d="M6.22939 2.95908C5.69588 1.22333 7.31273 0.406724 8.68959 1.37259C11.3512 3.23945 12.7403 6.40425 13.953 9.30684C14.5146 10.6511 17.0038 15.347 15.4224 16.6114C13.8532 17.8658 8.19645 15.9885 8.12523 12.8849C8.08667 11.2009 8.14202 9.50691 7.91655 7.83331C7.67157 6.01455 6.75246 4.65943 6.22939 2.95908Z" fill="url(#paint0_linear_82_7040)"/>
<path d="M22.0191 26.8842C22.9813 20.5764 22.9659 12.9657 20.1623 7.12795C19.5108 5.77104 18.6239 4.5298 17.5673 3.45824C17.1527 3.03769 14.6825 0.512579 14.1635 1.1341C13.634 1.76787 14.1126 3.18422 14.2066 3.88877C14.3635 5.06785 14.5123 6.24784 14.6353 7.431C14.8843 9.83135 15.5045 12.4322 14.8558 14.8208C14.7128 15.3466 14.3826 15.8665 13.8645 16.0348C13.5909 16.1237 13.2929 16.1056 13.0121 16.0448C11.2346 15.6596 9.94847 13.8676 8.85559 12.5529C7.29272 10.6734 6.39583 8.56199 5.61507 6.26417C5.23581 5.14815 4.8021 4.06388 3.84896 3.32032C3.6194 3.14112 1.3706 0.381924 1.01674 0.46676C-0.148271 0.745311 0.254128 3.88831 0.296319 4.60284C0.622957 10.1593 4.69686 20.0203 4.69686 20.0203C4.69686 20.0203 5.67722 26.23 4.69686 28.1912C3.71649 30.1529 20.7121 30.1529 22.0191 26.8842Z" fill="url(#paint1_linear_82_7040)"/>
<path d="M23.0004 27.8634C22.9999 27.863 20.3854 24.9219 14.5023 24.9219C8.61911 24.9219 4.37005 26.8831 3.38967 29.4975C2.4093 32.112 2.0822 39.3025 5.67752 40.61C6.81487 41.0237 8.06518 41.1262 9.09047 40.3931C9.96741 39.7662 10.314 38.6139 11.6328 39.0412C12.2076 39.2272 12.6817 39.6305 13.1689 39.988C15.3112 41.5595 18.9518 43.1895 21.3917 41.3345C24.727 38.7985 25.9048 31.1312 23.0004 27.8634Z" fill="url(#paint2_linear_82_7040)"/>
<path d="M22.9143 27.7111C22.9139 27.7107 20.2994 24.7695 14.4163 24.7695C8.53314 24.7695 4.2841 26.7307 3.30373 29.3452C2.32336 31.9597 1.99627 39.1504 5.59157 40.4579C6.72891 40.8716 7.97921 40.9741 9.0045 40.241C9.88143 39.614 10.228 38.4617 11.5468 38.8891C12.1216 39.0751 12.5957 39.4784 13.0829 39.8359C15.2252 41.4074 18.8658 43.0374 21.3056 41.1824C24.641 38.6464 25.8187 30.9784 22.9143 27.7111Z" fill="url(#paint3_linear_82_7040)"/>
<path d="M20.2405 41.5928C20.2405 41.5928 20.0682 41.6645 19.2135 41.968C19.0887 41.9181 17.4914 35.1566 17.5794 33.3129C17.6674 31.4688 17.0056 27.5799 17.0183 27.4339C17.0314 27.2878 16.1418 18.7666 15.9232 18.4236C15.7068 17.0785 16.1876 16.5391 16.1876 16.5391C16.1876 16.5391 18.841 34.9538 19.1427 36.0644C19.4444 37.175 20.2405 41.5928 20.2405 41.5928Z" fill="black"/>
<defs>
<linearGradient id="paint0_linear_82_7040" x1="12.7674" y1="17.5048" x2="5.55655" y2="-17.915" gradientUnits="userSpaceOnUse">
<stop offset="0.1599" stop-color="#BFAB8D"/>
<stop offset="0.5078" stop-color="#E7E1D2"/>
<stop offset="0.7297" stop-color="#CCBFA6"/>
</linearGradient>
<linearGradient id="paint1_linear_82_7040" x1="27.9659" y1="14.9184" x2="0.87313" y2="15.0163" gradientUnits="userSpaceOnUse">
<stop offset="0.1599" stop-color="#BFAB8D"/>
<stop offset="0.5078" stop-color="#E7E1D2"/>
<stop offset="0.7297" stop-color="#CCBFA6"/>
</linearGradient>
<linearGradient id="paint2_linear_82_7040" x1="29.62" y1="33.4946" x2="-2.55742" y2="33.6109" gradientUnits="userSpaceOnUse">
<stop stop-color="#94938C"/>
<stop offset="0.2296" stop-color="#EDEBE1"/>
<stop offset="0.7988" stop-color="#EDEBE1"/>
<stop offset="1" stop-color="#94938C"/>
</linearGradient>
<linearGradient id="paint3_linear_82_7040" x1="29.7753" y1="33.3412" x2="-2.78399" y2="33.4588" gradientUnits="userSpaceOnUse">
<stop stop-color="#94938C"/>
<stop offset="0.2296" stop-color="#EDEBE1"/>
<stop offset="0.7988" stop-color="#EDEBE1"/>
<stop offset="1" stop-color="#94938C"/>
</linearGradient>
</defs>
</svg>
