<svg width="19" height="61" viewBox="0 0 19 61" fill="none" xmlns="http://www.w3.org/2000/svg">
<path d="M6.61205 34.8111C6.61205 34.8111 3.3439 36.1186 2.36309 43.6359C2.36309 43.6359 1.38275 51.4803 1.05566 53.7682C0.729027 56.056 0.729028 58.9976 4.32381 59.978C7.91904 60.9584 11.1872 60.3046 13.1484 59.6513C15.1095 58.9976 18.051 57.0364 18.7047 54.7485C19.3585 52.4607 18.7048 41.348 17.7244 39.3868C16.744 37.4256 14.4562 32.1962 6.61205 34.8111Z" fill="url(#paint0_linear_82_7115)"/>
<path d="M9.88286 3.76C9.88286 3.76 2.70876 19.445 5.64209 35.952C5.64209 35.952 16.044 34.7189 16.5584 37.5425C15.0995 30.6754 14.3986 23.4486 14.6853 16.4385C14.8019 13.5945 15.0024 10.7546 15.0822 7.90921C15.1339 6.05644 15.456 3.93965 14.6608 2.21391C14.3269 1.4885 13.7748 0.422388 12.8688 0.338006C11.3318 0.193741 10.3438 2.69979 9.88286 3.76Z" fill="url(#paint1_linear_82_7115)"/>
<path d="M5.09375 60.1963C5.09375 60.1963 5.22981 60.4685 6.18223 60.3324C6.30514 60.2385 7.54645 50.7673 7.36821 48.2064C7.19043 45.6455 7.66798 40.0812 7.64757 39.8798C7.62762 39.6779 8.10929 27.5941 8.31293 27.0724C8.46531 25.1506 7.95508 24.4883 7.95508 24.4883C7.95508 24.4883 6.17768 50.7433 5.92778 52.3538C5.67743 53.9648 5.09375 60.1963 5.09375 60.1963Z" fill="black"/>
<defs>
<linearGradient id="paint0_linear_82_7115" x1="-3.55286" y1="47.9354" x2="22.4571" y2="46.6323" gradientUnits="userSpaceOnUse">
<stop stop-color="#94938C"/>
<stop offset="0.1599" stop-color="#D1CFC6"/>
<stop offset="0.2296" stop-color="#EDEBE1"/>
<stop offset="0.7988" stop-color="#EDEBE1"/>
<stop offset="0.9762" stop-color="#9F9E96"/>
<stop offset="1" stop-color="#94938C"/>
</linearGradient>
<linearGradient id="paint1_linear_82_7115" x1="13.9292" y1="18.9497" x2="4.94851" y2="19.1102" gradientUnits="userSpaceOnUse">
<stop stop-color="#BFAB8D"/>
<stop offset="0.5078" stop-color="#E7E1D2"/>
<stop offset="1" stop-color="#CCBFA6"/>
</linearGradient>
</defs>
</svg>
