<svg width="20" height="70" viewBox="0 0 20 70" fill="none" xmlns="http://www.w3.org/2000/svg">
<path d="M3.92188 45.5469C3.92188 45.5469 16.0044 42.5186 17.0084 44.2458L12.1288 9.69304C12.1288 9.69304 8.70886 0.8125 7.4013 0.8125C6.09373 0.8125 4.78616 4.73446 4.78616 4.73446C4.78616 4.73446 4.21315 37.2774 3.92188 45.5469Z" fill="url(#paint0_linear_82_7125)"/>
<path d="M6.24521 42.0505C6.24476 42.0514 -0.945435 51.5294 0.362036 59.3734C0.783948 61.9044 1.64774 64.5497 3.17343 66.6371C3.91744 67.6551 4.88421 68.5765 6.10322 68.9802C7.71555 69.5142 9.78472 69.095 11.4011 68.7344C12.1969 68.557 12.9785 68.3125 13.7198 67.9713C18.9025 65.5877 20.2717 59.4423 19.8548 54.2342C19.5617 50.5758 18.4511 47.0268 17.0076 43.6742C16.0712 41.4993 13.89 40.9295 11.7128 40.6214C10.0742 40.3896 7.35942 40.582 6.24521 42.0505Z" fill="url(#paint1_linear_82_7125)"/>
<path d="M6.64844 69.0909C6.64844 69.0909 6.78454 69.3631 7.73724 69.227C7.86019 69.133 9.10188 59.6619 8.92358 57.1009C8.74575 54.54 9.22347 48.9758 9.20305 48.7743C9.18264 48.5729 9.66488 36.4886 9.86858 35.9669C10.021 34.0452 9.51063 33.3828 9.51063 33.3828C9.51063 33.3828 7.73271 59.6378 7.48274 61.2483C7.23232 62.8593 6.64844 69.0909 6.64844 69.0909Z" fill="black"/>
<defs>
<linearGradient id="paint0_linear_82_7125" x1="15.2765" y1="23.4759" x2="5.38218" y2="23.1711" gradientUnits="userSpaceOnUse">
<stop stop-color="#BFAB8D"/>
<stop offset="0.5078" stop-color="#E7E1D2"/>
<stop offset="1" stop-color="#CCBFA6"/>
</linearGradient>
<linearGradient id="paint1_linear_82_7125" x1="26.2044" y1="54.5823" x2="-6.7483" y2="55.1713" gradientUnits="userSpaceOnUse">
<stop stop-color="#94938C"/>
<stop offset="0.0617" stop-color="#A4A29B"/>
<stop offset="0.1809" stop-color="#CCCAC2"/>
<stop offset="0.2666" stop-color="#EDEBE1"/>
<stop offset="0.7117" stop-color="#EDEBE1"/>
<stop offset="0.7719" stop-color="#E0DED5"/>
<stop offset="0.883" stop-color="#BEBDB4"/>
<stop offset="1" stop-color="#94938C"/>
</linearGradient>
</defs>
</svg>
