<svg width="19" height="58" viewBox="0 0 19 58" fill="none" xmlns="http://www.w3.org/2000/svg">
<path d="M9.9375 56.3068C9.9375 56.3068 15.2838 57.142 17.025 54.3006C18.7658 51.4593 10.4869 54.6173 9.9375 56.3068Z" fill="#D8D6D0"/>
<path d="M15.3042 38.3838C15.3042 38.3838 14.9776 27.2712 13.9968 24.3297C13.0164 21.3881 12.0356 11.583 12.3627 8.96807C12.6898 6.35313 12.6893 2.43118 12.6893 2.43118C12.6893 2.43118 13.0159 -0.510393 10.0744 1.77745C7.13279 4.06529 3.53746 15.1779 3.86455 19.7535C4.19119 24.3292 4.29464 38.118 4.24293 38.0876C4.19166 38.0567 15.3042 38.3838 15.3042 38.3838Z" fill="url(#paint0_linear_82_7134)"/>
<path d="M4.51559 37.0746C4.51559 37.0746 -3.00171 48.1872 2.55438 54.0703C3.23307 54.7889 4.30056 55.2943 5.1276 55.8201C5.98141 56.3631 6.89237 57.1171 7.93308 57.2346C9.12669 57.3698 10.0005 56.1208 11.1737 55.8772C13.0387 55.4898 14.8638 55.7965 16.4566 54.5244C17.7718 53.4742 18.5694 51.8369 18.8402 50.1973C19.1777 48.1518 18.8284 46.0731 18.421 44.0647C18.2473 43.2086 17.9515 42.3939 17.6053 41.5922C17.2365 40.7375 16.5714 39.9032 16.2819 39.0349C16.2819 39.0358 13.6675 31.1915 4.51559 37.0746Z" fill="url(#paint1_linear_82_7134)"/>
<path d="M10.1678 56.1324C10.1678 56.1324 10.2612 56.2131 11.2004 55.7663C11.307 55.6506 11.0911 46.0029 10.5112 43.4147C9.93182 40.8266 9.52622 35.0645 9.4745 34.8617C9.42277 34.659 7.99357 22.2344 8.11244 21.6687C7.95999 19.6802 7.35156 19.0859 7.35156 19.0859C7.35156 19.0859 9.73538 46.198 9.74218 47.8842C9.74899 49.5701 10.1678 56.1324 10.1678 56.1324Z" fill="black"/>
<defs>
<linearGradient id="paint0_linear_82_7134" x1="14.4044" y1="19.6926" x2="1.51185" y2="19.2954" gradientUnits="userSpaceOnUse">
<stop stop-color="#BFAB8D"/>
<stop offset="0.5078" stop-color="#E7E1D2"/>
<stop offset="1" stop-color="#CCBFA6"/>
</linearGradient>
<linearGradient id="paint1_linear_82_7134" x1="22.5524" y1="46.4709" x2="-4.17399" y2="45.6476" gradientUnits="userSpaceOnUse">
<stop stop-color="#94938C"/>
<stop offset="0.0311" stop-color="#A6A59D"/>
<stop offset="0.0939" stop-color="#C5C3BB"/>
<stop offset="0.1552" stop-color="#DBD9D0"/>
<stop offset="0.2138" stop-color="#E8E7DD"/>
<stop offset="0.2666" stop-color="#EDEBE1"/>
<stop offset="0.7117" stop-color="#EDEBE1"/>
<stop offset="0.7637" stop-color="#E7E5DB"/>
<stop offset="0.835" stop-color="#D5D3CA"/>
<stop offset="0.9175" stop-color="#B8B7AF"/>
<stop offset="1" stop-color="#94938C"/>
</linearGradient>
</defs>
</svg>
