<svg width="19" height="55" viewBox="0 0 19 55" fill="none" xmlns="http://www.w3.org/2000/svg">
<path d="M9.55469 54.3074C9.55469 54.3074 14.8535 55.403 16.7312 52.6506C18.6089 49.8983 10.1862 52.647 9.55469 54.3074Z" fill="#D8D6D0"/>
<path d="M8.77341 54.5431C8.77341 54.5431 3.12976 54.9247 1.72554 51.2653C0.321313 47.6054 8.44039 52.4244 8.77341 54.5431Z" fill="#D8D6D0"/>
<path d="M6.51968 34.0115C6.43666 34.0523 6.35773 34.0986 6.28333 34.1508C4.84565 35.1552 3.63392 36.7825 2.71978 38.2546C1.33065 40.4912 0.338917 43.0494 0.606127 45.7188C0.788501 47.5434 0.993122 49.6416 1.90499 51.2802C2.4376 52.2375 3.63481 52.6762 4.60974 53.0155C5.44494 53.3063 6.28786 53.5794 7.10673 53.9147C7.86299 54.2241 8.60519 54.7517 9.45718 54.6836C10.4366 54.6052 11.1208 53.8375 11.9043 53.3394C13.1337 52.5582 14.6054 52.1576 16.0617 52.2279C16.3175 52.2402 16.5798 52.2661 16.8252 52.1912C17.1831 52.0823 17.4449 51.7784 17.6559 51.4699C18.6167 50.0662 18.5913 48.7061 18.5995 47.0739C18.6081 45.4153 18.5759 43.7467 18.2597 42.1135C17.6967 39.2032 15.774 36.7956 14.7633 34.0487C14.7052 33.8904 14.6471 33.7284 14.5405 33.5977C14.3581 33.3741 14.0596 33.2774 13.772 33.2543C13.233 33.2108 12.69 33.2942 12.1561 33.3514C11.1435 33.4603 10.1549 33.5732 9.13689 33.6431C8.32936 33.6989 7.27141 33.6399 6.51968 34.0115Z" fill="url(#paint0_linear_82_7146)"/>
<path d="M4.37878 35.9252C4.41507 35.9547 4.45863 35.9778 4.51171 35.9923C4.77848 36.0672 5.60053 35.6648 5.89134 35.5886C6.85542 35.3363 7.8304 35.1254 8.81126 34.9498C9.85064 34.7638 10.9005 34.5873 11.9589 34.5787C12.5192 34.5742 13.0827 34.6132 13.6312 34.732C14.1184 34.8377 14.6433 35.1716 15.1047 35.2134C15.4409 33.9027 15.0997 32.3784 15.0217 31.0474C14.935 29.5675 14.7989 28.0908 14.6143 26.62C14.2677 23.8599 13.579 21.2028 13.0763 18.4777C12.5872 15.8269 12.4511 13.0246 12.5097 10.3253C12.5373 9.05594 12.614 7.78431 12.7596 6.52312C12.8835 5.44658 13.1938 4.483 13.0836 3.36744C12.9715 2.23327 12.4393 0.515692 10.9417 0.980245C9.81434 1.33002 9.11248 2.56989 8.54357 3.51261C7.45972 5.30776 6.67078 7.26351 5.94398 9.23015C5.21809 11.1941 4.5489 13.192 4.17008 15.2553C3.83935 17.055 3.87973 18.8165 3.91103 20.6335C3.96003 23.5179 4.02898 26.4018 4.10021 29.2858C4.14603 31.1463 4.03989 33.088 4.18643 34.9752C4.2132 35.3282 4.16146 35.7478 4.37878 35.9252Z" fill="url(#paint1_linear_82_7146)"/>
<path d="M8.06804 54.3671C8.06804 54.3671 8.24994 54.4161 9.1436 54.5944C9.25837 54.4991 9.7179 45.3864 9.32687 43.0319C8.93538 40.6774 8.94629 35.5002 8.90954 35.3151C8.8728 35.13 8.34295 23.9259 8.50218 23.4295C8.49356 21.6421 7.92969 21.0664 7.92969 21.0664C7.92969 21.0664 8.35292 45.4612 8.23815 46.9679C8.12338 48.4745 8.06804 54.3671 8.06804 54.3671Z" fill="black"/>
<defs>
<linearGradient id="paint0_linear_82_7146" x1="24.5493" y1="44.3711" x2="-5.68703" y2="43.4396" gradientUnits="userSpaceOnUse">
<stop stop-color="#94938C"/>
<stop offset="0.2666" stop-color="#EDEBE1"/>
<stop offset="0.7117" stop-color="#EDEBE1"/>
<stop offset="1" stop-color="#94938C"/>
</linearGradient>
<linearGradient id="paint1_linear_82_7146" x1="18.0143" y1="19.5008" x2="3.65433" y2="17.9928" gradientUnits="userSpaceOnUse">
<stop stop-color="#BFAB8D"/>
<stop offset="0.5078" stop-color="#E7E1D2"/>
<stop offset="1" stop-color="#CCBFA6"/>
</linearGradient>
</defs>
</svg>
