<svg width="26" height="51" viewBox="0 0 26 51" fill="none" xmlns="http://www.w3.org/2000/svg">
<path d="M14.6661 2.27869C14.6661 2.27869 15.5721 0.224483 17.4058 0.738942C19.24 1.2534 19.8738 6.04731 19.5417 9.58138C19.2096 13.1155 17.6381 24.3283 14.9356 24.5592C12.233 24.7902 7.29071 18.4392 9.53911 14.9011C11.7884 11.3634 15.5085 5.15267 14.6661 2.27869Z" fill="url(#paint0_linear_82_7160)"/>
<path d="M2.84607 32.7292C6.04487 32.4988 9.67463 30.935 12.8793 30.8084C14.8895 30.729 16.9006 30.5961 18.9131 30.6605C19.8436 30.69 21.2272 33.1706 22.1296 33.0559C22.7148 32.9815 22.3287 30.578 22.3047 29.956C22.2843 29.4265 22.2394 28.8994 22.3169 28.3718C22.5955 26.47 23.6417 24.6644 24.0767 22.7626C24.5803 20.5628 24.9205 18.3204 25.1297 16.0738C25.3515 13.6907 25.4454 11.2563 25.1333 8.87638C24.999 7.85019 24.8157 6.80812 24.4083 5.85043C24.0912 5.10506 23.3223 3.64199 22.3396 3.75405C21.979 3.79533 21.6559 4.00039 21.386 4.24401C20.857 4.72172 20.4887 5.35776 20.2451 6.02782C19.7429 7.41014 19.7537 8.89862 19.6571 10.3467C19.5573 11.8397 19.1504 13.2225 18.8156 14.6715C18.194 17.364 17.46 20.5329 15.6961 22.74C15.267 23.2771 14.6219 23.7117 13.9373 23.6468C13.5862 23.6133 13.2582 23.4518 12.9714 23.2463C11.9384 22.5054 11.4131 21.227 11.2339 19.9685C10.8669 17.3899 11.1432 14.5454 11.8323 12.0457C12.2365 10.5785 12.9832 9.26473 13.4396 7.83024C13.9219 6.31363 14.576 3.30492 12.4379 2.7274C11.575 2.49422 10.6564 2.93518 10.0117 3.55398C7.61998 5.84726 6.00449 9.25656 4.62126 12.2126C3.77291 14.025 2.95405 15.8987 2.43188 17.8358C2.11794 19.0004 2.15151 20.1609 2.18462 21.3635C2.27763 24.7257 2.47271 29.3961 2.84607 32.7292Z" fill="url(#paint1_linear_82_7160)"/>
<path d="M21.7868 34.8967C22.059 34.9797 22.4496 35.7192 22.6002 35.9319C23.1986 36.7762 23.7167 37.6849 24.1046 38.6458C25.1499 41.2348 24.9984 44.0743 23.0376 46.1952C23.0145 46.2202 22.9909 46.2451 22.9677 46.2701C22.862 46.3812 22.7518 46.4897 22.6656 46.6162C22.4238 46.9715 22.3661 47.4165 22.137 47.7808C21.9206 48.1251 21.6026 48.4473 21.2946 48.7072C20.5692 49.3197 19.6028 49.7452 18.6379 49.6499C18.3063 49.6172 17.9901 49.4993 17.6784 49.3823C16.3251 48.8741 14.8557 48.2948 14.138 46.951C14.2196 47.1044 13.8471 47.7282 13.7532 47.8552C13.5282 48.161 13.2524 48.2939 12.9044 48.4282C11.7553 48.8723 10.5045 49.2289 9.40299 49.7797C8.64173 50.0727 7.99933 50.3513 7.22491 50.0972C6.77396 49.9493 6.31712 49.8196 5.87116 49.6563C5.03641 49.351 3.64772 48.8165 3.64772 47.7336C3.64772 46.0591 2.25223 41.0361 5.60122 36.0131C8.9484 30.9919 21.7759 34.8935 21.7868 34.8967Z" fill="#D8D6D0"/>
<path d="M21.8013 30.7693C22.1202 30.8663 22.5775 31.7328 22.754 31.9819C23.4549 32.9709 24.0614 34.0352 24.516 35.1603C25.7405 38.193 25.5626 41.5189 23.2666 44.0022C23.2394 44.0313 23.2117 44.0608 23.1845 44.0898C23.0607 44.22 22.9318 44.347 22.8307 44.4954C22.5471 44.9118 22.4799 45.4322 22.2118 45.8596C21.9587 46.2624 21.5862 46.6399 21.2251 46.9447C20.3754 47.662 19.2435 48.1601 18.1138 48.049C17.7255 48.0108 17.3553 47.8725 16.9901 47.7355C15.405 47.1407 13.6838 46.4616 12.8431 44.8878C12.9388 45.067 12.5024 45.7979 12.3926 45.9471C12.129 46.3051 11.8056 46.4607 11.3986 46.6181C10.0526 47.1384 8.58767 47.5558 7.29744 48.2009C6.40598 48.5443 5.65379 48.8705 4.74645 48.5729C4.21838 48.3996 3.68306 48.2477 3.16089 48.0567C2.18323 47.6992 0.556366 47.0731 0.556366 45.8047C0.556366 43.8435 -1.07774 37.9603 2.84423 32.0772C6.76484 26.1963 21.789 30.7656 21.8013 30.7693Z" fill="url(#paint2_linear_82_7160)"/>
<path d="M6.27279 48.5656C6.27279 48.5656 5.86457 48.7017 5.18419 48.6563C5.06944 48.561 4.63626 39.5077 5.0277 37.1531C5.41914 34.7986 5.40826 29.6214 5.445 29.4363C5.48174 29.2512 6.01153 18.047 5.85232 17.5507C5.86094 15.7632 6.42474 15.1875 6.42474 15.1875C6.42474 15.1875 6.00154 39.5825 6.11629 41.0891C6.2315 42.5962 6.27279 48.5656 6.27279 48.5656Z" fill="black"/>
<defs>
<linearGradient id="paint0_linear_82_7160" x1="11.1496" y1="23.5443" x2="29.7114" y2="-21.8214" gradientUnits="userSpaceOnUse">
<stop offset="0.1599" stop-color="#BFAB8D"/>
<stop offset="0.5078" stop-color="#E7E1D2"/>
<stop offset="0.7297" stop-color="#CCBFA6"/>
</linearGradient>
<linearGradient id="paint1_linear_82_7160" x1="24.0335" y1="17.5438" x2="3.12304" y2="18.4893" gradientUnits="userSpaceOnUse">
<stop offset="0.1599" stop-color="#BFAB8D"/>
<stop offset="0.5078" stop-color="#E7E1D2"/>
<stop offset="0.7297" stop-color="#CCBFA6"/>
</linearGradient>
<linearGradient id="paint2_linear_82_7160" x1="31.0575" y1="41.2089" x2="-3.76519" y2="37.552" gradientUnits="userSpaceOnUse">
<stop stop-color="#94938C"/>
<stop offset="0.2296" stop-color="#EDEBE1"/>
<stop offset="0.7988" stop-color="#EDEBE1"/>
<stop offset="1" stop-color="#94938C"/>
</linearGradient>
</defs>
</svg>
