<svg width="24" height="42" viewBox="0 0 24 42" fill="none" xmlns="http://www.w3.org/2000/svg">
<path d="M9.35156 39.1173C9.35156 39.1173 11.801 42.7051 15.524 40.2618C19.247 37.8185 11.2716 37.427 9.35156 39.1173Z" fill="#D8D6D0"/>
<path d="M13.7599 3.48011C14.2808 1.74077 16.0791 1.95989 16.687 3.52775C17.8625 6.55867 17.2591 9.96206 16.6548 13.0492C16.3749 14.4787 15.835 19.7666 13.8176 19.939C11.816 20.11 8.15581 15.4065 9.82076 12.7861C10.724 11.3648 11.7116 9.987 12.4538 8.4704C13.2609 6.82225 13.25 5.18498 13.7599 3.48011Z" fill="url(#paint0_linear_82_7174)"/>
<path d="M3.30615 26.7797C3.37147 26.8165 3.58015 26.3501 3.76751 26.3705C4.01204 26.3968 4.31689 26.3115 4.56142 26.2866C5.40613 26.2013 6.25219 26.1273 7.09872 26.0634C9.45049 25.886 11.8131 25.778 14.1722 25.8257C15.813 25.8588 17.4789 25.9459 19.088 26.2893C20.082 26.5012 21.3899 26.8165 21.9978 27.7202C21.9978 27.7202 20.6282 22.204 21.609 17.955C22.5898 13.7059 23.8968 2.26669 21.2819 1.9396C19.6383 1.73408 18.3994 5.55668 17.9707 6.62008C16.8338 9.44008 15.9437 12.4543 15.1376 15.4167C15.1149 15.4993 15.0917 15.5841 15.0414 15.6535C14.6 16.2642 13.068 16.5064 12.4759 16.0981C11.9806 15.756 11.858 15.0887 11.7773 14.4917C11.6339 13.4324 11.4906 12.3731 11.3473 11.3137C11.0066 8.79679 10.6636 6.2635 10.7244 3.71706C10.7411 3.01796 11.5377 -0.542421 9.84242 0.305484C6.99435 1.72955 5.37026 5.66829 4.57954 8.49509C3.51072 12.3145 3.47126 16.4016 3.32382 20.3404C3.25623 22.146 3.16597 23.9765 3.28346 25.7821C3.3066 26.1351 3.21269 26.7271 3.30615 26.7797Z" fill="url(#paint1_linear_82_7174)"/>
<path d="M4.40141 25.6285C5.27834 25.0211 6.45287 24.9485 7.47134 24.7448C9.00517 24.4376 10.5526 24.1818 12.1159 24.0874C15.5615 23.8787 19.351 24.5107 21.6665 27.3139C22.4826 28.3015 23.0565 29.4842 23.3441 30.7318C23.6676 32.1363 23.4067 33.0436 22.9594 34.3706C22.5493 35.5869 22.014 36.9039 21.3525 38.0054C20.6353 39.1994 19.488 40.2333 18.0453 40.2124C16.4825 40.1897 14.955 39.5782 13.9111 38.3932C13.8562 38.3311 13.7999 38.2653 13.7228 38.234C13.6307 38.1968 13.5268 38.2163 13.4307 38.2385C11.3298 38.7199 9.22385 40.0936 7.2858 41.0222C6.35942 41.4659 5.83002 41.6011 4.89184 41.1084C3.72184 40.4937 2.60671 39.7379 1.74021 38.7394C-0.822529 35.786 0.1542 31.5901 2.02783 28.5447C2.6194 27.5833 3.35209 26.4691 4.23855 25.7515C4.29117 25.7079 4.34561 25.6671 4.40141 25.6285Z" fill="url(#paint2_linear_82_7174)"/>
<path d="M5.01562 41.0616C5.01562 41.0616 5.18802 41.1332 6.04262 41.4367C6.16736 41.3868 7.76448 34.6254 7.67648 32.7817C7.58848 30.938 8.2503 27.0487 8.2376 26.9026C8.22444 26.7565 9.11395 18.2353 9.33258 17.8923C9.54895 16.5472 9.06817 16.0078 9.06817 16.0078C9.06817 16.0078 6.41501 34.4226 6.11336 35.5332C5.8108 36.6433 5.01562 41.0616 5.01562 41.0616Z" fill="black"/>
<defs>
<linearGradient id="paint0_linear_82_7174" x1="11.0837" y1="19.2216" x2="24.7709" y2="-14.2303" gradientUnits="userSpaceOnUse">
<stop offset="0.1599" stop-color="#BFAB8D"/>
<stop offset="0.5078" stop-color="#E7E1D2"/>
<stop offset="0.7297" stop-color="#CCBFA6"/>
</linearGradient>
<linearGradient id="paint1_linear_82_7174" x1="22.1459" y1="16.2279" x2="4.45721" y2="12.8725" gradientUnits="userSpaceOnUse">
<stop offset="0.1599" stop-color="#BFAB8D"/>
<stop offset="0.5078" stop-color="#E7E1D2"/>
<stop offset="0.7297" stop-color="#CCBFA6"/>
</linearGradient>
<linearGradient id="paint2_linear_82_7174" x1="-5.06905" y1="32.6983" x2="28.216" y2="32.7828" gradientUnits="userSpaceOnUse">
<stop stop-color="#94938C"/>
<stop offset="0.2296" stop-color="#EDEBE1"/>
<stop offset="0.7988" stop-color="#EDEBE1"/>
<stop offset="1" stop-color="#94938C"/>
</linearGradient>
</defs>
</svg>
