<svg width="24" height="43" viewBox="0 0 24 43" fill="none" xmlns="http://www.w3.org/2000/svg">
<path d="M18.9768 2.95904C19.5103 1.22333 17.8934 0.406732 16.5166 1.37258C13.855 3.23941 12.466 6.40418 11.2533 9.30672C10.6917 10.6509 8.20255 15.3468 9.78398 16.6112C11.3532 17.8655 17.0097 15.9883 17.081 12.8848C17.1195 11.2008 17.0641 9.50677 17.2896 7.83321C17.5346 6.01447 18.4537 4.65938 18.9768 2.95904Z" fill="url(#paint0_linear_82_7186)"/>
<path d="M3.18426 26.8832C2.222 20.5754 2.23746 12.9647 5.04121 7.12689C5.69269 5.76997 6.5796 4.52873 7.63623 3.45717C8.05089 3.03662 10.5212 0.511517 11.0402 1.13304C11.5697 1.76681 11.091 3.18316 10.9971 3.8877C10.8401 5.06678 10.6913 6.24677 10.5684 7.42994C10.3193 9.83029 9.69914 12.4312 10.3479 14.8197C10.4908 15.3455 10.8211 15.8654 11.3392 16.0337C11.6127 16.1226 11.9108 16.1045 12.1916 16.0437C13.9692 15.6585 15.2554 13.8666 16.3483 12.5518C17.9112 10.6723 18.8081 8.56093 19.5889 6.26311C19.9682 5.14709 20.4019 4.06282 21.3551 3.31926C21.5847 3.14006 22.0479 2.7245 22.4017 2.80934C23.5668 3.08789 23.1644 6.2309 23.1222 6.94542C22.7955 12.5019 20.5076 20.0192 20.5076 20.0192C20.5076 20.0192 19.5272 26.229 20.5076 28.1902C21.488 30.1514 4.49177 30.1514 3.18426 26.8832Z" fill="url(#paint1_linear_82_7186)"/>
<path d="M2.20439 27.8634C2.20484 27.863 4.81936 24.9219 10.7027 24.9219C16.586 24.9219 20.8351 26.8831 21.8155 29.4976C22.7959 32.112 23.1231 39.3027 19.5276 40.6101C18.3903 41.0239 17.1399 41.1264 16.1146 40.3933C15.2376 39.7663 14.891 38.614 13.5722 39.0414C12.9974 39.2274 12.5233 39.6307 12.0361 39.9882C9.89379 41.5597 6.25301 43.1897 3.81313 41.3347C0.477683 38.7987 -0.700066 31.1312 2.20439 27.8634Z" fill="url(#paint2_linear_82_7186)"/>
<path d="M4.875 41.7452C4.875 41.7452 5.04744 41.8168 5.90222 42.1203C6.02699 42.0704 7.62447 35.309 7.53645 33.4653C7.44843 31.6211 8.11039 27.7323 8.09769 27.5862C8.08453 27.4401 8.97424 18.9189 9.19292 18.5759C9.40934 17.2308 8.92845 16.6914 8.92845 16.6914C8.92845 16.6914 6.27469 35.1062 5.97298 36.2168C5.67036 37.3274 4.875 41.7452 4.875 41.7452Z" fill="black"/>
<defs>
<linearGradient id="paint0_linear_82_7186" x1="12.4404" y1="17.5071" x2="19.6512" y2="-17.9122" gradientUnits="userSpaceOnUse">
<stop offset="0.1599" stop-color="#BFAB8D"/>
<stop offset="0.5078" stop-color="#E7E1D2"/>
<stop offset="0.7297" stop-color="#CCBFA6"/>
</linearGradient>
<linearGradient id="paint1_linear_82_7186" x1="-2.33478" y1="15.2284" x2="22.6035" y2="15.3185" gradientUnits="userSpaceOnUse">
<stop offset="0.1599" stop-color="#BFAB8D"/>
<stop offset="0.5078" stop-color="#E7E1D2"/>
<stop offset="0.7297" stop-color="#CCBFA6"/>
</linearGradient>
<linearGradient id="paint2_linear_82_7186" x1="-4.65686" y1="33.4938" x2="27.9034" y2="33.6115" gradientUnits="userSpaceOnUse">
<stop stop-color="#94938C"/>
<stop offset="0.2296" stop-color="#EDEBE1"/>
<stop offset="0.7988" stop-color="#EDEBE1"/>
<stop offset="1" stop-color="#94938C"/>
</linearGradient>
</defs>
</svg>
