<svg width="25" height="40" viewBox="0 0 25 40" fill="none" xmlns="http://www.w3.org/2000/svg">
<path d="M9.35062 36.899C9.05573 38.7522 10.2416 39.2431 11.1716 37.9914C12.969 35.572 13.8024 32.1079 14.5228 28.9436C14.8563 27.4783 16.396 22.2507 15.2138 21.3025C14.0406 20.3621 10.1191 23.403 10.218 26.5369C10.2715 28.2368 10.3922 29.928 10.3128 31.656C10.2266 33.5337 9.64005 35.0834 9.35062 36.899Z" fill="url(#paint0_linear_82_7296)"/>
<path d="M21.8221 13.5893C21.8221 13.5893 20.5147 17.1846 20.5147 21.1065C20.5147 25.0285 20.8413 29.9312 18.5534 33.5265C16.2656 37.1218 15.6118 38.7559 15.6118 38.7559C15.6118 38.7559 13.6506 41.0437 12.6702 38.4292C12.6702 38.4292 14.9581 30.5849 13.6506 26.663C12.3432 22.7411 11.0357 24.0481 10.709 24.7018C10.3824 25.3555 5.80623 32.8727 5.15249 34.8339C4.49875 36.7951 3.51837 38.7559 2.86464 38.7559C2.2109 38.7559 1.23051 37.1218 0.576777 34.1802C-0.0769615 31.2387 0.57678 27.9705 1.88426 25.6826C3.19173 23.3948 4.49921 13.2627 4.49921 11.6286C4.49921 9.99405 20.188 12.9356 21.8221 13.5893Z" fill="url(#paint1_linear_82_7296)"/>
<path d="M14.2677 3.32087C14.578 3.24737 14.8992 3.04458 15.2721 2.79915C16.2847 2.1318 17.3363 1.48804 18.5045 1.16366C19.6731 0.839289 20.9878 0.867416 22.0276 1.49121C22.7589 1.92991 23.3006 2.62493 23.7466 3.35171C24.4443 4.48906 24.9592 5.81061 24.7991 7.13533C24.6167 8.64605 24.0174 10.1336 23.4027 11.5137C23.0298 12.3507 22.719 13.3057 22.0471 13.9608C21.2632 14.7248 19.9453 14.8323 18.9123 14.977C16.6902 15.2878 14.4591 15.0092 12.2897 14.4943C10.1329 13.9821 7.90406 13.4141 5.80676 12.7C5.42976 12.5717 5.05321 12.4233 4.73746 12.181C3.85235 11.501 3.67043 9.95534 3.45766 8.93549C3.13465 7.3853 3.332 5.78248 3.96622 4.33754C4.78282 2.47704 6.34435 0.834751 8.41761 0.515821C9.90156 0.287625 11.219 0.592039 12.2175 1.74209C12.5483 2.12318 12.8114 2.56596 13.1689 2.92391C13.5627 3.31814 13.9079 3.40616 14.2677 3.32087Z" fill="url(#paint2_linear_82_7296)"/>
<path d="M20.114 0.987176C20.114 0.987176 20.1489 0.91777 20.858 1.08245C20.9342 1.16592 20.7559 8.23535 20.3367 10.099C19.9171 11.9631 19.6168 16.1141 19.5791 16.2602C19.5419 16.4063 18.4967 25.3566 18.5806 25.7644C18.4681 27.1966 18.0312 27.624 18.0312 27.624C18.0312 27.624 19.786 8.09244 19.7942 6.87708C19.8019 5.66308 20.114 0.987176 20.114 0.987176Z" fill="black"/>
<defs>
<linearGradient id="paint0_linear_82_7296" x1="13.2688" y1="20.9352" x2="13.2447" y2="58.0041" gradientUnits="userSpaceOnUse">
<stop offset="0.1599" stop-color="#BFAB8D"/>
<stop offset="0.5078" stop-color="#E7E1D2"/>
<stop offset="0.7297" stop-color="#CCBFA6"/>
</linearGradient>
<linearGradient id="paint1_linear_82_7296" x1="19.9275" y1="25.3763" x2="3.16924" y2="25.4369" gradientUnits="userSpaceOnUse">
<stop stop-color="#BFAB8D"/>
<stop offset="0.5078" stop-color="#E7E1D2"/>
<stop offset="1" stop-color="#CCBFA6"/>
</linearGradient>
<linearGradient id="paint2_linear_82_7296" x1="31.1792" y1="7.71157" x2="-2.86068" y2="7.83453" gradientUnits="userSpaceOnUse">
<stop stop-color="#94938C"/>
<stop offset="0.2614" stop-color="#EDEBE1"/>
<stop offset="0.7687" stop-color="#EDEBE1"/>
<stop offset="1" stop-color="#94938C"/>
</linearGradient>
</defs>
</svg>
