<svg width="27" height="48" viewBox="0 0 27 48" fill="none" xmlns="http://www.w3.org/2000/svg">
<path d="M10.748 42.0422C10.5461 43.9994 11.8159 44.4444 12.7169 43.0807C14.4594 40.4444 15.1318 36.7702 15.7038 33.4162C15.9688 31.8633 17.279 26.3022 15.9869 25.3781C14.7049 24.4612 10.7752 27.8706 11.0587 31.1451C11.2125 32.9217 11.4366 34.6851 11.453 36.4984C11.4711 38.4691 10.9462 40.125 10.748 42.0422Z" fill="url(#paint0_linear_82_7279)"/>
<path d="M22.3783 19.7809C21.6928 21.7394 21.1402 23.7836 20.8213 25.8342C20.6067 27.2142 20.6385 28.4409 20.8481 29.8069C21.2006 32.1024 21.226 34.4982 21.1271 36.8138C20.9728 40.4254 19.2403 43.1455 17.8552 46.3942C17.3462 47.5878 16.1689 48.2143 15.1019 47.116C13.7481 45.7232 14.1133 42.7958 14.0594 41.0292C13.9859 38.6112 13.9369 36.1764 13.4533 33.7969C13.245 32.7725 12.9524 31.7513 12.4175 30.8531C11.8858 29.9598 10.9032 29.5243 9.96184 30.1676C8.70835 31.0241 8.42571 32.9004 7.99291 34.236C7.58688 35.4886 7.21895 36.7534 6.86373 38.0214C6.36197 39.8125 5.89787 41.614 5.4197 43.4109C5.22145 44.1549 4.57452 45.9025 3.48072 45.143C3.11144 44.8863 2.92906 44.4417 2.77527 44.0193C2.27033 42.6302 1.86703 41.207 1.46462 39.7852C0.92521 37.8803 0.42889 35.9808 0.312751 33.9969C0.154421 31.2922 1.22009 28.6197 1.7409 26.0016C2.29437 23.2193 2.64007 20.3957 2.77254 17.5621C2.78116 17.3756 2.79568 17.1728 2.92135 17.0349C3.09147 16.8489 3.38319 16.8634 3.63316 16.892C6.70495 17.2441 9.78309 17.5303 12.8517 17.9141C14.9281 18.1722 17.0073 18.4453 19.0656 18.8246C19.9729 18.9916 21.6756 19.0782 22.3783 19.7809Z" fill="url(#paint1_linear_82_7279)"/>
<path d="M24.7758 15.5353C24.8783 14.3086 24.8502 13.0655 25.0838 11.8538C25.4486 9.9624 26.4035 8.31467 26.2683 6.3108C25.9426 1.48646 19.2007 1.11353 15.8109 2.4496C14.4013 3.00489 13.8229 2.48045 12.6379 1.7319C11.3541 0.92073 9.83928 0.496094 8.32177 0.496094C6.5865 0.496094 4.67158 0.989688 3.18946 1.90157C0.996889 3.25079 0.998699 5.46425 0.848082 7.78751C0.681133 10.3571 0.740568 13.0043 1.59028 15.4614C1.85023 16.2135 2.19456 16.9526 2.73623 17.5356C3.5061 18.3644 4.48693 18.4738 5.52719 18.7133C6.94716 19.0404 8.38301 19.3171 9.81433 19.588C12.6212 20.1192 15.4543 20.5516 18.3101 20.6949C19.6643 20.763 21.0666 20.6255 22.2693 19.999C24.0113 19.0926 24.6215 17.3867 24.7758 15.5353Z" fill="url(#paint2_linear_82_7279)"/>
<path d="M20.6848 1.82541C20.6848 1.82541 20.9239 1.75918 21.7405 1.98601C21.8417 2.10306 21.1357 11.6537 20.4362 14.1239C19.7366 16.5942 19.0638 22.138 19.003 22.3312C18.9418 22.5245 16.9365 34.451 17.0286 35.0031C16.7841 36.9154 16.1484 37.4588 16.1484 37.4588C16.1484 37.4588 19.7906 11.3969 19.8759 9.76916C19.9612 8.14139 20.6848 1.82541 20.6848 1.82541Z" fill="black"/>
<defs>
<linearGradient id="paint0_linear_82_7279" x1="13.9307" y1="25.1167" x2="16.0402" y2="63.9221" gradientUnits="userSpaceOnUse">
<stop offset="0.1599" stop-color="#BFAB8D"/>
<stop offset="0.5078" stop-color="#E7E1D2"/>
<stop offset="0.7297" stop-color="#CCBFA6"/>
</linearGradient>
<linearGradient id="paint1_linear_82_7279" x1="19.8516" y1="33.6722" x2="2.35745" y2="30.2679" gradientUnits="userSpaceOnUse">
<stop stop-color="#BFAB8D"/>
<stop offset="0.5078" stop-color="#E7E1D2"/>
<stop offset="1" stop-color="#CCBFA6"/>
</linearGradient>
<linearGradient id="paint2_linear_82_7279" x1="30.354" y1="13.6194" x2="-2.94434" y2="7.13997" gradientUnits="userSpaceOnUse">
<stop stop-color="#94938C"/>
<stop offset="0.2114" stop-color="#EDEBE1"/>
<stop offset="0.847" stop-color="#EDEBE1"/>
<stop offset="1" stop-color="#94938C"/>
</linearGradient>
</defs>
</svg>
