<svg width="29" height="51" viewBox="0 0 29 51" fill="none" xmlns="http://www.w3.org/2000/svg">
<path d="M19.6196 1.16105C20.9325 1.25043 21.946 1.63559 23.0239 2.37598C23.3156 2.5765 23.5919 2.81831 23.5343 3.10503C23.2657 4.44425 13.3902 3.36815 13.4851 2.1936C13.544 1.49586 16.7555 1.30895 17.4746 1.23137C18.2862 1.14382 18.9876 1.11796 19.6196 1.16105Z" fill="#D8D6D0"/>
<path d="M9.45654 46.5309C8.78105 48.695 10.3761 49.5778 11.8577 48.2957C14.7221 45.8169 16.3797 41.8404 17.8378 38.1979C18.5128 36.5111 21.4112 30.5798 19.886 29.1462C18.3726 27.7239 12.4402 30.4323 12.1363 34.2387C11.9711 36.3033 11.9022 38.3739 11.547 40.4395C11.1605 42.6842 10.1184 44.4109 9.45654 46.5309Z" fill="url(#paint0_linear_82_7262)"/>
<path d="M26.2272 21.2582C26.0394 22.0326 25.8729 22.8206 25.8362 22.9731C25.5209 24.281 25.2473 25.5989 25.0277 26.9267C24.8486 28.0115 24.7052 29.1021 24.5986 30.1968C24.4951 31.2574 24.5854 32.4252 24.3831 33.465C24.1839 34.4898 23.8187 35.565 23.4735 36.5549C22.4369 39.5278 20.8667 42.2942 19.0022 44.8229C18.0667 46.0914 17.055 47.3031 15.9871 48.4627C15.3311 49.175 13.9366 51.2836 12.7774 50.4075C12.3424 50.0786 12.1677 49.4921 12.1958 48.9472C12.224 48.4024 12.4236 47.8834 12.6128 47.3716C14.0699 43.4234 15.4554 38.5347 14.6361 34.2988C14.5508 33.8574 14.4174 33.4015 14.1008 33.0825C13.6857 32.6647 13.0211 32.5708 12.4531 32.7273C11.8851 32.8838 11.4006 33.2554 10.9778 33.6655C9.52648 35.0741 8.4953 37.0544 7.60839 38.8554C6.93696 40.2192 6.44382 41.6722 6.16028 43.1662C5.88899 44.5961 6.11946 46.2955 5.54512 47.6375C5.22347 48.3892 4.50622 49.0343 3.68872 49.0107C3.05222 48.9926 2.48878 48.5829 2.06914 48.1038C0.523046 46.3386 0.22681 43.5259 0.13653 41.2753C0.0231143 38.439 0.426869 35.6126 0.86647 32.8185C1.46485 29.0145 2.23382 25.2364 3.09261 21.4832C3.12572 21.3376 3.59299 18.9699 3.68735 18.9727C3.68735 18.9727 26.562 19.6073 26.7721 19.6132C26.6555 19.6105 26.4291 20.4266 26.2272 21.2582Z" fill="url(#paint1_linear_82_7262)"/>
<path d="M8.3275 0.987037C9.51337 0.919435 10.4788 1.1785 11.558 1.78057C11.8502 1.94345 12.1351 2.14943 12.1292 2.43845C12.1024 3.79049 3.11858 3.90165 3.0165 2.73245C2.95844 2.03737 5.79472 1.47204 6.42394 1.31007C7.13483 1.12813 7.75634 1.01925 8.3275 0.987037Z" fill="#D8D6D0"/>
<path d="M24.2691 2.0369C25.2222 2.13217 26.12 2.4992 26.8935 3.30582C27.8902 4.34517 28.3893 5.78692 28.5127 7.22142C28.7772 10.2991 28.2505 13.9593 27.4815 16.9408C27.2374 17.8871 27.2129 19.876 26.5633 20.6064C24.5417 22.8788 20.0999 21.7732 17.4119 21.5868C14.3333 21.3731 11.0189 21.271 8.26058 20.6064C6.43457 20.5148 3.08154 20.919 2.52716 18.5041C1.89203 15.7363 1.50097 12.9059 1.37031 10.0691C1.27232 7.94955 0.962914 2.71242 4.00973 2.30367C4.45569 2.24378 5.20832 2.74644 5.65518 2.84807C6.58746 3.05948 7.49706 3.03089 8.42254 2.785C9.56079 2.48286 10.6178 1.93846 11.7089 1.49523C11.9462 1.39905 12.193 1.30605 12.4488 1.31285C13.0318 1.32873 13.46 1.83366 13.9264 2.18389C15.8894 3.65922 19.4081 2.89389 21.5752 2.32726C22.4848 2.08908 23.3999 1.9498 24.2691 2.0369Z" fill="url(#paint2_linear_82_7262)"/>
<path d="M24.6454 2.00399C24.6454 2.00399 24.7425 1.93096 25.6598 2.40958C25.7609 2.52663 25.0963 11.8323 24.3968 14.3026C23.6973 16.7728 23.0245 22.3167 22.9637 22.5099C22.9025 22.7032 20.8974 34.6298 20.9894 35.1819C20.7449 37.0941 20.1094 37.6376 20.1094 37.6376C20.1094 37.6376 23.7513 11.5756 23.8365 9.94778C23.9218 8.32001 24.6454 2.00399 24.6454 2.00399Z" fill="black"/>
<defs>
<linearGradient id="paint0_linear_82_7262" x1="17.2149" y1="28.2417" x2="9.45286" y2="72.5343" gradientUnits="userSpaceOnUse">
<stop offset="0.1599" stop-color="#BFAB8D"/>
<stop offset="0.5078" stop-color="#E7E1D2"/>
<stop offset="0.7297" stop-color="#CCBFA6"/>
</linearGradient>
<linearGradient id="paint1_linear_82_7262" x1="24.1855" y1="34.7387" x2="1.65865" y2="34.82" gradientUnits="userSpaceOnUse">
<stop stop-color="#BFAB8D"/>
<stop offset="0.5078" stop-color="#E7E1D2"/>
<stop offset="1" stop-color="#CCBFA6"/>
</linearGradient>
<linearGradient id="paint2_linear_82_7262" x1="34.2876" y1="11.605" x2="-4.55775" y2="11.7454" gradientUnits="userSpaceOnUse">
<stop stop-color="#94938C"/>
<stop offset="0.2296" stop-color="#EDEBE1"/>
<stop offset="0.7988" stop-color="#EDEBE1"/>
<stop offset="1" stop-color="#94938C"/>
</linearGradient>
</defs>
</svg>
