<svg width="25" height="42" viewBox="0 0 25 42" fill="none" xmlns="http://www.w3.org/2000/svg">
<path d="M7.79688 38.9689C7.79688 38.9689 10.2463 42.5572 13.9691 40.1136C17.6919 37.67 9.71682 37.2785 7.79688 38.9689Z" fill="#D8D6D0"/>
<path d="M10.7157 3.52699C10.1949 1.78765 8.39654 2.00677 7.78863 3.57463C6.6132 6.60555 7.21657 10.0089 7.82084 13.0961C8.10075 14.5256 8.64061 19.8135 10.658 19.9859C12.6596 20.1569 16.3197 15.4533 14.6548 12.833C13.7516 11.4117 12.7639 10.0339 12.0218 8.51728C11.2142 6.86912 11.2256 5.23185 10.7157 3.52699Z" fill="url(#paint0_linear_82_7180)"/>
<path d="M21.1759 26.8266C21.1106 26.8633 20.9019 26.397 20.7146 26.4174C20.47 26.4437 20.1652 26.3584 19.9206 26.3334C19.0759 26.2482 18.2298 26.1742 17.3833 26.1102C15.0315 25.9329 12.6688 25.8249 10.3097 25.8725C8.6688 25.9056 7.00293 25.9927 5.39378 26.3362C4.39979 26.548 3.09188 26.8633 2.48396 27.767C2.48396 27.767 3.85359 22.2509 2.87276 18.0018C1.89193 13.7528 0.584917 2.31356 3.19985 1.98647C4.84349 1.78096 6.08245 5.60356 6.51116 6.66696C7.64805 9.48695 8.53814 12.5011 9.34431 15.4636C9.36699 15.5461 9.39012 15.631 9.44048 15.7004C9.8819 16.311 11.4144 16.5533 12.006 16.145C12.5014 15.8029 12.6239 15.1356 12.7046 14.5385C12.848 13.4792 12.9913 12.4199 13.1347 11.3606C13.4754 8.84366 13.8184 6.31037 13.7576 3.76394C13.7408 3.06484 12.9442 -0.495546 14.6395 0.352359C17.4876 1.77642 19.1118 5.71517 19.9025 8.54197C20.9713 12.3614 21.0108 16.4485 21.1582 20.3872C21.2258 22.1928 21.3161 24.0234 21.1986 25.829C21.1755 26.1819 21.2694 26.774 21.1759 26.8266Z" fill="url(#paint1_linear_82_7180)"/>
<path d="M20.0792 25.6754C19.2023 25.0679 18.0278 24.9953 17.0093 24.7916C15.4754 24.4845 13.928 24.2286 12.3647 24.1343C8.91905 23.9256 5.12958 24.5576 2.81406 27.3607C1.99791 28.3484 1.42403 29.5311 1.1364 30.7786C0.812938 32.1832 1.0738 33.0905 1.52111 34.4175C1.93123 35.6337 2.46655 36.9507 3.12799 38.0522C3.84524 39.2463 4.99256 40.2802 6.43522 40.2593C7.9981 40.2366 9.5256 39.6251 10.5695 38.4401C10.6244 38.378 10.6806 38.3122 10.7578 38.2809C10.8499 38.2437 10.9537 38.2632 11.0499 38.2854C13.1508 38.7667 15.2568 40.1404 17.1948 41.0691C18.1212 41.5128 18.6507 41.648 19.5888 41.1553C20.7593 40.5406 21.874 39.7848 22.7405 38.7863C25.3032 35.8329 24.3265 31.637 22.4528 28.5915C21.8613 27.6302 21.1286 26.516 20.2421 25.7983C20.189 25.7548 20.1346 25.7139 20.0792 25.6754Z" fill="url(#paint2_linear_82_7180)"/>
<path d="M19.4673 41.1084C19.4673 41.1084 19.2949 41.1801 18.4402 41.4836C18.3155 41.4337 16.7181 34.6723 16.8061 32.8286C16.8941 30.9849 16.2322 27.0956 16.2449 26.9495C16.2576 26.8034 15.3684 18.2822 15.1497 17.9392C14.9333 16.5941 15.4142 16.0547 15.4142 16.0547C15.4142 16.0547 18.0677 34.4695 18.3694 35.58C18.672 36.6902 19.4673 41.1084 19.4673 41.1084Z" fill="black"/>
<defs>
<linearGradient id="paint0_linear_82_7180" x1="13.3831" y1="19.2544" x2="-0.304217" y2="-14.1974" gradientUnits="userSpaceOnUse">
<stop offset="0.1599" stop-color="#BFAB8D"/>
<stop offset="0.5078" stop-color="#E7E1D2"/>
<stop offset="0.7297" stop-color="#CCBFA6"/>
</linearGradient>
<linearGradient id="paint1_linear_82_7180" x1="2.33576" y1="16.2747" x2="20.0247" y2="12.9193" gradientUnits="userSpaceOnUse">
<stop offset="0.1599" stop-color="#BFAB8D"/>
<stop offset="0.5078" stop-color="#E7E1D2"/>
<stop offset="0.7297" stop-color="#CCBFA6"/>
</linearGradient>
<linearGradient id="paint2_linear_82_7180" x1="29.5504" y1="32.744" x2="-3.73486" y2="32.8285" gradientUnits="userSpaceOnUse">
<stop stop-color="#94938C"/>
<stop offset="0.2296" stop-color="#EDEBE1"/>
<stop offset="0.7988" stop-color="#EDEBE1"/>
<stop offset="1" stop-color="#94938C"/>
</linearGradient>
</defs>
</svg>
