<svg width="20" height="51" viewBox="0 0 20 51" fill="none" xmlns="http://www.w3.org/2000/svg">
<path d="M16.1298 20.7506C15.3268 26.0068 13.9109 31.2589 12.0677 36.2389C10.0416 41.7119 7.51008 47.1855 2.58866 50.6152C2.46934 50.6983 2.3414 50.7845 2.19623 50.7917C2.04833 50.799 1.90906 50.7223 1.79065 50.6334C1.11241 50.1266 0.863347 49.2016 0.933213 48.3578C1.00308 47.5139 1.3397 46.7196 1.63368 45.9256C3.42749 41.0832 3.86529 35.7539 4.37657 30.6524C4.70049 27.4227 5.46856 23.464 4.7073 20.2443C3.88979 16.7887 15.6231 20.1363 16.1298 20.7506Z" fill="url(#paint0_linear_82_7247)"/>
<path d="M5.99126 0.768641C6.71803 0.441102 7.47609 0.433394 8.48866 0.681997C8.76267 0.749137 9.05483 0.85347 9.20363 1.093C9.90046 2.21262 4.18115 4.36249 3.49748 3.42298C3.09282 2.86407 4.61848 1.74853 4.93786 1.47135C5.29852 1.15788 5.64104 0.926059 5.99126 0.768641Z" fill="#D8D6D0"/>
<path d="M15.9289 0.955334C16.2665 1.05696 16.5232 1.16583 16.6312 1.26065C17.1774 1.74063 17.7449 2.25146 17.9894 2.93604C18.0874 3.21051 18.0979 3.57844 17.8484 3.72905C17.764 3.77986 17.6633 3.79528 17.5653 3.80345C16.4207 3.89736 15.0965 3.15335 14.1283 2.62211C13.77 2.42567 12.2289 1.71659 12.2992 1.15903C12.4058 0.313848 14.7018 0.586502 15.9289 0.955334Z" fill="#D8D6D0"/>
<path d="M17.9465 3.0619C17.9465 3.0619 20.2343 4.69601 18.9269 8.94506C18.2731 14.8282 16.3119 20.7114 16.3119 20.7114C16.3119 20.7114 15.6582 21.6918 11.0825 21.6918C6.50685 21.6918 5.19938 21.038 4.54565 19.7306C3.89191 18.4231 2.25781 6.00302 2.25781 6.00302C2.25781 6.00302 2.58445 3.06145 3.89192 2.73481C5.19938 2.40817 6.50685 2.08107 6.83349 2.08107C7.16013 2.08107 10.1017 0.119859 11.4092 0.446953C12.7171 0.774048 15.9857 3.389 17.9465 3.0619Z" fill="url(#paint1_linear_82_7247)"/>
<path d="M13.0022 1.20312C13.0022 1.20312 13.0889 1.22172 13.4849 1.67584C13.7971 1.87682 14.0098 2.23022 14.0098 2.23022C14.1106 2.34863 13.4278 11.7772 12.7214 14.2728C12.0151 16.7684 11.3264 22.3708 11.2647 22.5658C11.203 22.7609 9.16382 34.8121 9.2541 35.3706C9.00413 37.3032 8.36719 37.8517 8.36719 37.8517C8.36719 37.8517 12.0836 11.5163 12.1739 9.87134C12.2632 8.22589 13.0022 1.20312 13.0022 1.20312Z" fill="black"/>
<defs>
<linearGradient id="paint0_linear_82_7247" x1="12.9016" y1="34.7179" x2="2.53504" y2="34.7554" gradientUnits="userSpaceOnUse">
<stop stop-color="#BFAB8D"/>
<stop offset="0.5078" stop-color="#E7E1D2"/>
<stop offset="1" stop-color="#CCBFA6"/>
</linearGradient>
<linearGradient id="paint1_linear_82_7247" x1="22.9647" y1="11.0084" x2="-1.16724" y2="11.0956" gradientUnits="userSpaceOnUse">
<stop stop-color="#94938C"/>
<stop offset="0.2296" stop-color="#EDEBE1"/>
<stop offset="0.7988" stop-color="#EDEBE1"/>
<stop offset="1" stop-color="#94938C"/>
</linearGradient>
</defs>
</svg>
