<svg width="19" height="53" viewBox="0 0 19 53" fill="none" xmlns="http://www.w3.org/2000/svg">
<path d="M15.5675 21.5479C15.5675 21.5479 9.35771 47.0418 4.12786 51.2904C-1.10153 55.5395 1.51293 47.0414 1.51293 47.0414C1.51293 47.0414 3.47412 31.353 3.47412 28.4114C3.47412 25.4698 2.43433 19.9609 2.43433 19.9609C2.43433 19.9609 12.5066 22.1299 15.5675 21.5479Z" fill="url(#paint0_linear_82_7235)"/>
<path d="M15.8915 2.26262C15.8915 2.26262 19.1597 3.89671 18.1794 8.47237C17.199 13.048 17.5256 15.663 17.5256 15.663C17.5256 15.663 16.8719 23.5073 11.3159 23.8339C5.75943 24.1605 2.1646 20.8923 1.83751 18.9312C1.51087 16.97 1.51087 11.4139 1.18378 10.4331C0.856684 9.4523 -0.123682 3.24253 3.14496 2.26216C6.41315 1.28179 8.37433 0.954698 8.37433 0.954698C8.37433 0.954698 11.643 -0.0252141 15.8915 2.26262Z" fill="url(#paint1_linear_82_7235)"/>
<path d="M12.542 0.929699C12.542 0.929699 12.6332 0.924712 13.036 1.12659C13.3477 1.33301 13.3477 1.33301 13.5841 1.46821C13.6848 1.59024 12.9508 11.4893 12.2376 14.0665C11.5244 16.6438 10.8208 22.4267 10.7587 22.6286C10.6965 22.83 8.62511 35.2718 8.71403 35.8475C8.45862 37.8423 7.82031 38.4098 7.82031 38.4098C7.82031 38.4098 11.607 11.223 11.7014 9.52533C11.7957 7.82771 12.542 0.929699 12.542 0.929699Z" fill="black"/>
<defs>
<linearGradient id="paint0_linear_82_7235" x1="2.30831" y1="36.2214" x2="13.8647" y2="36.2631" gradientUnits="userSpaceOnUse">
<stop stop-color="#BFAB8D"/>
<stop offset="0.5078" stop-color="#E7E1D2"/>
<stop offset="1" stop-color="#CCBFA6"/>
</linearGradient>
<linearGradient id="paint1_linear_82_7235" x1="-2.49139" y1="12.2552" x2="21.6753" y2="12.3425" gradientUnits="userSpaceOnUse">
<stop stop-color="#94938C"/>
<stop offset="0.2296" stop-color="#EDEBE1"/>
<stop offset="0.4283" stop-color="#EDEBE1"/>
<stop offset="0.7988" stop-color="#EDEBE1"/>
<stop offset="1" stop-color="#94938C"/>
</linearGradient>
</defs>
</svg>
