<svg width="19" height="67" viewBox="0 0 19 67" fill="none" xmlns="http://www.w3.org/2000/svg">
<path d="M15.7603 27.4144C13.8553 27.4045 11.9208 27.2289 10.019 27.0765C7.71575 26.8918 4.48151 27.0048 2.37828 25.9042C2.18593 25.8035 2.12243 25.461 1.9455 25.3398C1.54309 26.689 1.88742 28.8512 1.96681 30.2326C2.1941 34.1817 2.36876 38.1381 2.33066 42.0945C2.30933 44.2785 2.18775 46.447 1.99131 48.6214C1.72001 51.6242 0.706052 54.5558 0.432942 57.5894C0.241492 59.7166 0.273709 61.8793 0.688819 63.9797C0.819477 64.6403 1.00957 66.3528 1.58256 66.5107C2.33838 66.7185 3.47844 65.5562 3.85817 65.044C5.11393 63.3509 5.43603 61.0586 6.07843 59.0965C6.79705 56.9008 7.63908 54.7477 8.49924 52.6041C10.1765 48.4227 11.9403 44.2522 13.0205 39.8657C13.6516 37.3029 13.9324 34.6776 14.5249 32.1053C14.8869 30.5293 15.3147 28.9692 15.7603 27.4144Z" fill="url(#paint0_linear_82_7225)"/>
<path d="M17.9551 8.6629C17.9551 8.6629 18.9337 3.43304 16.6449 1.79984C14.3562 0.166643 13.3763 0.820826 13.3763 0.820826C12.4299 1.07942 11.479 1.32167 10.5263 1.5544C8.95749 1.9373 7.26393 2.48624 5.63798 2.44405C5.31224 2.43543 4.9856 2.39913 4.66168 2.4318C2.23863 2.67406 1.84531 5.25451 1.48147 7.14494C1.01464 9.56888 0.685715 12.0255 0.491544 14.4862C0.331398 16.5182 0.253379 18.5733 0.424867 20.6075C0.549172 22.081 0.755121 23.7641 1.62027 25.0126C2.8293 26.757 5.04505 27.5495 7.02668 28.0055C9.54183 28.5843 12.1849 28.7204 14.7572 28.612C16.1559 28.5526 16.5456 25.4354 16.6236 24.4469C17.0387 19.1821 17.4801 13.9218 17.9551 8.6629Z" fill="url(#paint1_linear_82_7225)"/>
<path d="M12.8696 0.973288C12.8696 0.973288 13.1418 0.927921 13.9131 0.973288C14.012 1.11665 13.1214 12.9128 12.3674 15.9927C11.6129 19.0722 10.8176 25.9679 10.7523 26.2088C10.687 26.4496 8.41722 41.294 8.49753 41.9781C8.21035 44.3571 7.5625 45.0426 7.5625 45.0426C7.5625 45.0426 11.7808 12.6179 11.9019 10.595C12.0222 8.57169 12.8696 0.973288 12.8696 0.973288Z" fill="black"/>
<defs>
<linearGradient id="paint0_linear_82_7225" x1="11.1319" y1="45.9001" x2="2.05008" y2="45.9367" gradientUnits="userSpaceOnUse">
<stop stop-color="#BFAB8D"/>
<stop offset="0.5078" stop-color="#E7E1D2"/>
<stop offset="1" stop-color="#CCBFA6"/>
</linearGradient>
<linearGradient id="paint1_linear_82_7225" x1="22.627" y1="14.6319" x2="-3.70082" y2="14.7379" gradientUnits="userSpaceOnUse">
<stop stop-color="#94938C"/>
<stop offset="0.2296" stop-color="#EDEBE1"/>
<stop offset="0.7988" stop-color="#EDEBE1"/>
<stop offset="1" stop-color="#94938C"/>
</linearGradient>
</defs>
</svg>
