<svg width="17" height="64" viewBox="0 0 17 64" fill="none" xmlns="http://www.w3.org/2000/svg">
<path d="M14.5251 23.1367C14.5251 23.1367 6.35439 27.0587 4.06662 23.7905C4.15644 27.002 4.21178 30.2154 4.25397 33.4278C4.33382 39.5365 4.36603 45.6511 4.18774 51.7584C4.12514 53.9034 4.07524 56.0511 3.87018 58.1883C3.76584 59.2772 3.62204 60.3628 3.41653 61.4371C3.32217 61.9316 3.03772 62.5141 3.26681 62.9655C3.57167 63.5657 4.35921 63.7018 4.90949 63.431C5.68387 63.0499 6.19288 62.1126 6.57713 61.389C7.50394 59.6433 8.10184 57.7138 8.6426 55.8211C11.9107 44.3817 14.0216 26.6531 14.5251 23.1367Z" fill="url(#paint0_linear_82_7215)"/>
<path d="M15.783 0.699677C15.0104 0.303171 13.8068 0.548152 12.9603 0.540893C11.3897 0.527737 9.81912 0.532276 8.24898 0.577643C6.49466 0.628454 4.0553 0.427936 2.43299 1.2391C0.875103 2.01804 0.709529 3.96383 0.75671 5.49224C0.94362 11.5301 1.33239 17.8842 3.76767 23.4974C4.48083 25.1411 5.47617 26.7997 7.03406 27.7669C9.44801 29.2658 12.2113 28.3971 13.5873 25.9972C14.6888 24.0763 15.1125 21.862 15.3434 19.6898C15.5181 18.0452 15.4087 16.3884 15.5253 14.7407C15.6482 13.0041 16.1605 11.3192 16.4404 9.60292C16.8827 6.88908 17.418 4.05728 16.4068 1.40377C16.277 1.06171 16.057 0.840314 15.783 0.699677Z" fill="url(#paint1_linear_82_7215)"/>
<path d="M12.4395 0.508444C12.4395 0.508444 12.7117 0.463078 13.4829 0.508444C13.5818 0.651802 12.6913 12.448 11.9374 15.5279C11.183 18.6074 10.3877 25.5031 10.3224 25.744C10.2571 25.9849 7.9875 40.8293 8.06779 41.5135C7.78063 43.8925 7.13281 44.578 7.13281 44.578C7.13281 44.578 11.3508 12.1531 11.4719 10.1302C11.5922 8.10734 12.4395 0.508444 12.4395 0.508444Z" fill="black"/>
<defs>
<linearGradient id="paint0_linear_82_7215" x1="1.88655" y1="43.3234" x2="11.1193" y2="43.3568" gradientUnits="userSpaceOnUse">
<stop stop-color="#BFAB8D"/>
<stop offset="0.5078" stop-color="#E7E1D2"/>
<stop offset="1" stop-color="#CCBFA6"/>
</linearGradient>
<linearGradient id="paint1_linear_82_7215" x1="-1.96372" y1="14.4395" x2="20.2292" y2="14.5197" gradientUnits="userSpaceOnUse">
<stop stop-color="#94938C"/>
<stop offset="0.2296" stop-color="#EDEBE1"/>
<stop offset="0.7988" stop-color="#EDEBE1"/>
<stop offset="1" stop-color="#94938C"/>
</linearGradient>
</defs>
</svg>
