<svg width="16" height="66" viewBox="0 0 16 66" fill="none" xmlns="http://www.w3.org/2000/svg">
<path d="M2.34297 24.6914C2.34252 32.2254 0.807733 39.7055 0.457497 47.2341C0.314589 50.3027 0.0782084 53.3704 0.122668 56.4444C0.157601 58.881 -0.028841 62.9445 1.49051 65.0196C2.13382 65.8961 4.03744 61.9941 4.21936 61.6194C5.35853 59.2735 6.06626 56.7797 6.94639 54.3317C7.9168 51.6319 8.90626 48.9154 9.70155 46.1571C10.7627 42.4769 11.3674 38.6439 12.0434 34.8789C12.1491 34.2892 13.0728 26.7075 13.4557 26.6531C13.4525 26.6526 4.30375 27.9592 2.34297 24.6914Z" fill="url(#paint0_linear_82_7205)"/>
<path d="M14.9522 0.652739C14.8034 0.517093 14.5408 0.488511 14.0544 0.447681C13.3104 0.385528 12.5374 0.439962 11.7916 0.441323C8.75153 0.447221 5.71153 0.507114 2.67151 0.507114C2.67151 0.507114 -0.270069 1.16083 0.0565703 2.79494C0.38321 4.42905 1.36404 24.6934 2.34442 26.0009C3.32479 27.3084 5.61262 31.5574 10.5154 30.25C15.4177 28.9425 14.4373 17.5037 14.4373 17.5033C14.308 15.4314 14.8288 13.1363 14.9699 11.0653C15.1795 7.99035 15.3587 4.88862 15.1827 1.80732C15.1446 1.13181 15.1305 0.815152 14.9522 0.652739Z" fill="url(#paint1_linear_82_7205)"/>
<path d="M9.63526 0.488913C9.63526 0.488913 9.90746 0.443546 10.6787 0.488913C10.7776 0.632273 9.88706 12.4286 9.13304 15.5086C8.37857 18.5881 7.58327 25.4839 7.51794 25.7248C7.45261 25.9657 5.18285 40.8102 5.26315 41.4944C4.97597 43.8734 4.32812 44.5589 4.32812 44.5589C4.32812 44.5589 8.54642 12.1337 8.66756 10.1108C8.78824 8.08744 9.63526 0.488913 9.63526 0.488913Z" fill="black"/>
<defs>
<linearGradient id="paint0_linear_82_7205" x1="12.3748" y1="44.8818" x2="-3.93075" y2="44.9407" gradientUnits="userSpaceOnUse">
<stop stop-color="#BFAB8D"/>
<stop offset="0.5078" stop-color="#E7E1D2"/>
<stop offset="1" stop-color="#CCBFA6"/>
</linearGradient>
<linearGradient id="paint1_linear_82_7205" x1="17.5093" y1="15.4336" x2="-2.03373" y2="15.5042" gradientUnits="userSpaceOnUse">
<stop stop-color="#94938C"/>
<stop offset="0.2296" stop-color="#EDEBE1"/>
<stop offset="0.7988" stop-color="#EDEBE1"/>
<stop offset="1" stop-color="#94938C"/>
</linearGradient>
</defs>
</svg>
