<svg width="16" height="66" viewBox="0 0 16 66" fill="none" xmlns="http://www.w3.org/2000/svg">
<path d="M13.0342 24.6914C13.0347 32.2254 14.5694 39.7055 14.9196 47.2341C15.0625 50.3027 15.2989 53.3704 15.2544 56.4444C15.2195 58.881 15.4059 62.9445 13.8866 65.0196C13.2434 65.8961 11.3398 61.9941 11.1579 61.6194C10.0188 59.2735 9.31106 56.7797 8.43096 54.3317C7.46059 51.6319 6.47116 48.9154 5.6759 46.1571C4.61479 42.4769 4.01006 38.6439 3.33411 34.8789C3.2284 34.2892 2.30476 26.7075 1.92188 26.6531C1.92505 26.6526 11.0735 27.9592 13.0342 24.6914Z" fill="url(#paint0_linear_82_7200)"/>
<path d="M0.426918 0.652739C0.575716 0.517093 0.838383 0.488511 1.3247 0.447681C2.06869 0.385528 2.84171 0.439962 3.58752 0.441323C6.62744 0.447221 9.66736 0.507114 12.7073 0.507114C12.7073 0.507114 15.6488 1.16083 15.3222 2.79494C14.9955 4.42905 14.0147 24.6934 13.0344 26.0009C12.0541 27.3084 9.76626 31.5574 4.86364 30.25C-0.0385386 28.9425 0.941819 17.5037 0.941819 17.5033C1.07111 15.4314 0.550305 13.1363 0.409219 11.0653C0.199632 7.99035 0.0204413 4.88862 0.196459 1.80732C0.234566 1.13181 0.248632 0.815152 0.426918 0.652739Z" fill="url(#paint1_linear_82_7200)"/>
<path d="M5.74633 0.488913C5.74633 0.488913 5.47413 0.443546 4.70287 0.488913C4.60397 0.632273 5.49453 12.4286 6.24855 15.5086C7.00301 18.5881 7.79831 25.4839 7.86364 25.7248C7.92897 25.9657 10.1987 40.8102 10.1184 41.4944C10.4056 43.8734 11.0535 44.5589 11.0535 44.5589C11.0535 44.5589 6.83516 12.1337 6.71403 10.1108C6.59335 8.08744 5.74633 0.488913 5.74633 0.488913Z" fill="black"/>
<defs>
<linearGradient id="paint0_linear_82_7200" x1="3.00282" y1="44.8818" x2="19.3078" y2="44.9407" gradientUnits="userSpaceOnUse">
<stop stop-color="#BFAB8D"/>
<stop offset="0.5078" stop-color="#E7E1D2"/>
<stop offset="1" stop-color="#CCBFA6"/>
</linearGradient>
<linearGradient id="paint1_linear_82_7200" x1="-2.12997" y1="15.4336" x2="17.4125" y2="15.5042" gradientUnits="userSpaceOnUse">
<stop stop-color="#94938C"/>
<stop offset="0.2296" stop-color="#EDEBE1"/>
<stop offset="0.7988" stop-color="#EDEBE1"/>
<stop offset="1" stop-color="#94938C"/>
</linearGradient>
</defs>
</svg>
