<svg width="17" height="64" viewBox="0 0 17 64" fill="none" xmlns="http://www.w3.org/2000/svg">
<path d="M3.14844 23.0898C3.14844 23.0898 11.3192 27.0118 13.607 23.7436C13.5172 26.9551 13.4618 30.1685 13.4197 33.3809C13.3398 39.4896 13.3076 45.6042 13.4859 51.7116C13.5485 53.8565 13.5984 56.0042 13.8034 58.1415C13.9078 59.2303 14.0516 60.3159 14.2571 61.3902C14.3515 61.8847 14.6359 62.4672 14.4068 62.9186C14.1019 63.5188 13.3144 63.6549 12.7641 63.3841C11.9897 63.003 11.4807 62.0657 11.0965 61.3421C10.1697 59.5964 9.57174 57.6669 9.03098 55.7742C5.7633 44.3349 3.65199 26.6063 3.14844 23.0898Z" fill="url(#paint0_linear_82_7210)"/>
<path d="M1.88847 0.652798C2.66106 0.256299 3.86462 0.501276 4.71116 0.494017C6.28175 0.480861 7.85234 0.4854 9.42247 0.530766C11.1768 0.581576 13.6161 0.381062 15.2384 1.19221C16.7963 1.97114 16.9619 3.9169 16.9147 5.44528C16.7278 11.4831 16.339 17.837 13.9038 23.4502C13.1906 25.0938 12.1953 26.7524 10.6374 27.7196C8.22343 29.2185 5.46017 28.3497 4.0842 25.9498C2.9827 24.029 2.55898 21.8147 2.32807 19.6426C2.15341 17.9981 2.26273 16.3413 2.14614 14.6936C2.02319 12.957 1.51101 11.2721 1.2311 9.5559C0.788776 6.8421 0.253463 4.01034 1.26468 1.35688C1.39443 1.01482 1.61446 0.793433 1.88847 0.652798Z" fill="url(#paint1_linear_82_7210)"/>
<path d="M5.23063 0.461569C5.23063 0.461569 4.95844 0.416203 4.18725 0.461569C4.08835 0.604927 4.97885 12.4011 5.7328 15.4811C6.48721 18.5606 7.28246 25.4563 7.34778 25.6972C7.41311 25.9381 9.68269 40.7825 9.6024 41.4666C9.88956 43.8456 10.5374 44.5311 10.5374 44.5311C10.5374 44.5311 6.31938 12.1063 6.19825 10.0834C6.07759 8.06047 5.23063 0.461569 5.23063 0.461569Z" fill="black"/>
<defs>
<linearGradient id="paint0_linear_82_7210" x1="15.7872" y1="43.2766" x2="6.55443" y2="43.3099" gradientUnits="userSpaceOnUse">
<stop stop-color="#BFAB8D"/>
<stop offset="0.5078" stop-color="#E7E1D2"/>
<stop offset="1" stop-color="#CCBFA6"/>
</linearGradient>
<linearGradient id="paint1_linear_82_7210" x1="19.6353" y1="14.3924" x2="-2.55757" y2="14.4726" gradientUnits="userSpaceOnUse">
<stop stop-color="#94938C"/>
<stop offset="0.2296" stop-color="#EDEBE1"/>
<stop offset="0.7988" stop-color="#EDEBE1"/>
<stop offset="1" stop-color="#94938C"/>
</linearGradient>
</defs>
</svg>
