<svg width="19" height="53" viewBox="0 0 19 53" fill="none" xmlns="http://www.w3.org/2000/svg">
<path d="M3.625 21.458C3.625 21.458 9.8348 46.952 15.0647 51.2006C20.2946 55.4493 17.6796 46.9516 17.6796 46.9516C17.6796 46.9516 15.7184 31.2632 15.7184 28.3216C15.7184 25.38 16.7582 19.8711 16.7582 19.8711C16.7582 19.8711 6.68589 22.0401 3.625 21.458Z" fill="url(#paint0_linear_82_7230)"/>
<path d="M3.29944 2.1728C3.29944 2.1728 0.0312077 3.80693 1.01158 8.38269C1.99196 12.9584 1.66533 15.5734 1.66533 15.5734C1.66533 15.5734 2.31906 23.4179 7.87512 23.7445C13.4316 24.0712 17.0265 20.8029 17.3536 18.8417C17.6807 16.8805 17.6802 11.3243 18.0073 10.3435C18.334 9.36309 19.3148 3.15274 16.0461 2.17235C12.7779 1.19196 10.8167 0.864858 10.8167 0.864858C10.8167 0.864858 7.54849 -0.115074 3.29944 2.1728Z" fill="url(#paint1_linear_82_7230)"/>
<path d="M6.65295 0.839855C6.65295 0.839855 6.56176 0.834868 6.1589 1.03675C5.84722 1.24317 5.84724 1.24317 5.61087 1.37836C5.51016 1.5004 6.24419 11.3994 6.95737 13.9767C7.67055 16.554 8.3742 22.3369 8.43636 22.5387C8.49851 22.7402 10.57 35.182 10.4811 35.7577C10.7365 37.7525 11.3748 38.32 11.3748 38.32C11.3748 38.32 7.58799 11.1331 7.49363 9.43549C7.39926 7.73787 6.65295 0.839855 6.65295 0.839855Z" fill="black"/>
<defs>
<linearGradient id="paint0_linear_82_7230" x1="16.8841" y1="36.1316" x2="5.32772" y2="36.1733" gradientUnits="userSpaceOnUse">
<stop stop-color="#BFAB8D"/>
<stop offset="0.5078" stop-color="#E7E1D2"/>
<stop offset="1" stop-color="#CCBFA6"/>
</linearGradient>
<linearGradient id="paint1_linear_82_7230" x1="21.6829" y1="12.1656" x2="-2.48403" y2="12.2529" gradientUnits="userSpaceOnUse">
<stop stop-color="#94938C"/>
<stop offset="0.2296" stop-color="#EDEBE1"/>
<stop offset="0.4283" stop-color="#EDEBE1"/>
<stop offset="0.7988" stop-color="#EDEBE1"/>
<stop offset="1" stop-color="#94938C"/>
</linearGradient>
</defs>
</svg>
