<svg width="20" height="51" viewBox="0 0 20 51" fill="none" xmlns="http://www.w3.org/2000/svg">
<path d="M4 20.7506C4.803 26.0068 6.2189 31.2589 8.06216 36.2389C10.0883 41.7119 12.6197 47.1855 17.5411 50.6152C17.6605 50.6983 17.7884 50.7845 17.9336 50.7917C18.0815 50.799 18.2208 50.7223 18.3392 50.6334C19.0169 50.1266 19.2665 49.2016 19.1966 48.3578C19.1267 47.5139 18.7901 46.7196 18.4961 45.9256C16.7023 41.0832 16.2645 35.7539 15.7532 30.6524C15.4293 27.4227 14.6613 23.464 15.4225 20.2443C16.24 16.7887 4.5063 20.1363 4 20.7506Z" fill="url(#paint0_linear_82_7240)"/>
<path d="M14.1384 0.768641C13.4116 0.441102 12.6536 0.433394 11.6409 0.681997C11.3669 0.749137 11.0747 0.85347 10.9259 1.093C10.2291 2.21262 15.9486 4.36249 16.6323 3.42298C17.037 2.86407 15.5113 1.74853 15.1919 1.47135C14.8312 1.15788 14.4887 0.926059 14.1384 0.768641Z" fill="#D8D6D0"/>
<path d="M4.20328 0.955334C3.86574 1.05696 3.60896 1.16583 3.50098 1.26065C2.95475 1.74063 2.38719 2.25146 2.14266 2.93604C2.04466 3.21051 2.03422 3.57844 2.28375 3.72905C2.36813 3.77986 2.46886 3.79528 2.56686 3.80345C3.7115 3.89736 5.03578 3.15335 6.00394 2.62211C6.36235 2.42567 7.9035 1.71659 7.83318 1.15903C7.72656 0.313848 5.43049 0.586502 4.20328 0.955334Z" fill="#D8D6D0"/>
<path d="M2.1886 3.0619C2.1886 3.0619 -0.0991967 4.69601 1.20825 8.94506C1.86197 14.8282 3.82313 20.7114 3.82313 20.7114C3.82313 20.7114 4.47685 21.6918 9.05246 21.6918C13.6281 21.6918 14.9355 21.038 15.5893 19.7306C16.243 18.4231 17.877 6.00302 17.877 6.00302C17.877 6.00302 17.5504 3.06145 16.243 2.73481C14.9355 2.40817 13.6281 2.08107 13.3014 2.08107C12.9748 2.08107 10.0333 0.119859 8.72584 0.446953C7.41839 0.774048 4.14977 3.389 2.1886 3.0619Z" fill="url(#paint1_linear_82_7240)"/>
<path d="M7.12679 1.20312C7.12679 1.20312 7.04015 1.22172 6.64413 1.67584C6.33204 1.87682 6.1193 2.23022 6.1193 2.23022C6.01859 2.34863 6.70129 11.7772 7.40759 14.2728C8.11388 16.7684 8.80248 22.3708 8.86417 22.5658C8.92586 22.7609 10.9649 34.8121 10.8746 35.3706C11.1246 37.3032 11.7615 37.8517 11.7615 37.8517C11.7615 37.8517 8.04537 11.5163 7.9551 9.87134C7.86574 8.22589 7.12679 1.20312 7.12679 1.20312Z" fill="black"/>
<defs>
<linearGradient id="paint0_linear_82_7240" x1="7.22823" y1="34.7179" x2="17.5947" y2="34.7554" gradientUnits="userSpaceOnUse">
<stop stop-color="#BFAB8D"/>
<stop offset="0.5078" stop-color="#E7E1D2"/>
<stop offset="1" stop-color="#CCBFA6"/>
</linearGradient>
<linearGradient id="paint1_linear_82_7240" x1="-2.82913" y1="11.0084" x2="21.3025" y2="11.0956" gradientUnits="userSpaceOnUse">
<stop stop-color="#94938C"/>
<stop offset="0.2296" stop-color="#EDEBE1"/>
<stop offset="0.7988" stop-color="#EDEBE1"/>
<stop offset="1" stop-color="#94938C"/>
</linearGradient>
</defs>
</svg>
