<svg width="26" height="51" viewBox="0 0 26 51" fill="none" xmlns="http://www.w3.org/2000/svg">
<path d="M10.7339 2.23181C10.7339 2.23181 9.82792 0.177608 7.99376 0.692067C6.15959 1.20653 5.52583 6.00043 5.85792 9.53451C6.19 13.0686 7.76149 24.2814 10.464 24.5124C13.1664 24.7433 18.1087 18.3924 15.8603 14.8542C13.6115 11.3165 9.89144 5.1058 10.7339 2.23181Z" fill="url(#paint0_linear_82_7167)"/>
<path d="M22.5573 32.6823C19.3586 32.4519 15.7288 30.8881 12.5241 30.7615C10.5139 30.6821 8.50284 30.5492 6.49038 30.6136C5.55992 30.6431 4.1758 33.1238 3.27391 33.009C2.68869 32.9346 3.07475 30.5311 3.09879 29.9091C3.11921 29.3797 3.16412 28.8525 3.08654 28.3249C2.80799 26.4231 1.76184 24.6175 1.32678 22.7158C0.823211 20.5159 0.482965 18.2735 0.273826 16.0269C0.0519844 13.6438 -0.0414739 11.2094 0.270193 8.82951C0.404478 7.80331 0.587768 6.76125 0.995158 5.80356C1.31227 5.05819 2.08122 3.59511 3.06386 3.70717C3.42452 3.74845 3.74753 3.95351 4.01746 4.19713C4.54643 4.67484 4.9148 5.31088 5.15842 5.98095C5.66063 7.36327 5.64975 8.85174 5.74638 10.2998C5.84619 11.7929 6.25311 13.1756 6.58792 14.6246C7.20944 17.3171 7.94347 20.486 9.70731 22.6931C10.1365 23.2302 10.7816 23.6648 11.4662 23.6C11.8173 23.5664 12.1453 23.4049 12.432 23.1994C13.465 22.4585 13.9904 21.1801 14.1696 19.9216C14.5366 17.343 14.2603 14.4985 13.5712 11.9988C13.167 10.5317 12.4202 9.21785 11.9638 7.78336C11.4816 6.26676 10.8274 3.25805 12.9655 2.68053C13.8284 2.44735 14.7471 2.88831 15.3922 3.50711C17.7839 5.80039 19.3994 9.20968 20.7826 12.1658C21.631 13.9782 22.4498 15.8518 22.972 17.789C23.2859 18.9535 23.2524 20.114 23.2192 21.3167C23.1258 24.6788 22.9307 29.3493 22.5573 32.6823Z" fill="url(#paint1_linear_82_7167)"/>
<path d="M3.61473 34.8498C3.34253 34.9328 2.95238 35.6723 2.80131 35.885C2.20292 36.7293 1.68484 37.638 1.29695 38.5989C0.251705 41.188 0.403231 44.0275 2.36398 46.1484C2.38712 46.1733 2.4107 46.1983 2.43383 46.2232C2.53954 46.3344 2.64979 46.4428 2.73598 46.5694C2.97779 46.9246 3.0354 47.3696 3.2645 47.7339C3.4809 48.0783 3.79892 48.4004 4.10696 48.6603C4.83237 49.2728 5.79869 49.6983 6.76364 49.603C7.09527 49.5704 7.41147 49.4524 7.72314 49.3354C9.07642 48.8273 10.5459 48.2479 11.2636 46.9042C11.1819 47.0575 11.5544 47.6813 11.6483 47.8083C11.8733 48.1141 12.1491 48.247 12.4971 48.3813C13.6462 48.8255 14.897 49.182 15.9985 49.7328C16.7597 50.0259 17.4021 50.3044 18.1765 50.0504C18.6275 49.9025 19.0843 49.7727 19.5303 49.6094C20.365 49.3041 21.7537 48.7697 21.7537 47.6868C21.7537 46.0123 23.1492 40.9893 19.8002 35.9663C16.453 30.9451 3.62562 34.8466 3.61473 34.8498Z" fill="#D8D6D0"/>
<path d="M3.59803 30.7224C3.27911 30.8195 2.82181 31.686 2.64534 31.9351C1.94442 32.9241 1.33787 33.9884 0.883296 35.1135C-0.341147 38.1463 -0.163309 41.4721 2.13269 43.9555C2.15991 43.9846 2.18759 44.0141 2.21481 44.0431C2.33866 44.1733 2.4675 44.3003 2.56867 44.4487C2.85221 44.8652 2.91935 45.3855 3.18746 45.8129C3.44061 46.2157 3.81307 46.5932 4.17419 46.8981C5.0239 47.6153 6.1558 48.1134 7.28543 48.0023C7.67377 47.9642 8.04396 47.8258 8.40916 47.6888C9.99427 47.094 11.7155 46.4149 12.5561 44.8411C12.4604 45.0203 12.8968 45.7512 13.0066 45.9004C13.2702 46.2584 13.5936 46.414 14.0006 46.5714C15.3466 47.0918 16.8115 47.5091 18.1017 48.1543C18.9932 48.4977 19.7453 48.8239 20.6527 48.5263C21.1807 48.353 21.7161 48.201 22.2382 48.01C23.2159 47.6525 24.8427 47.0265 24.8427 45.758C24.8427 43.7968 26.4768 37.9135 22.5549 32.0303C18.6343 26.1494 3.61028 30.7188 3.59803 30.7224Z" fill="url(#paint2_linear_82_7167)"/>
<path d="M19.1285 48.5187C19.1285 48.5187 19.5368 48.6548 20.2172 48.6094C20.3319 48.5142 20.7651 39.4608 20.3736 37.1063C19.9822 34.7517 19.9931 29.5745 19.9563 29.3894C19.9196 29.2043 19.3898 18.0001 19.549 17.5038C19.5404 15.7163 18.9766 15.1406 18.9766 15.1406C18.9766 15.1406 19.3998 39.5356 19.285 41.0423C19.1698 42.5494 19.1285 48.5187 19.1285 48.5187Z" fill="black"/>
<defs>
<linearGradient id="paint0_linear_82_7167" x1="14.2427" y1="23.4852" x2="-4.31936" y2="-21.8802" gradientUnits="userSpaceOnUse">
<stop offset="0.1599" stop-color="#BFAB8D"/>
<stop offset="0.5078" stop-color="#E7E1D2"/>
<stop offset="0.7297" stop-color="#CCBFA6"/>
</linearGradient>
<linearGradient id="paint1_linear_82_7167" x1="1.37001" y1="17.4969" x2="22.2804" y2="18.4424" gradientUnits="userSpaceOnUse">
<stop offset="0.1599" stop-color="#BFAB8D"/>
<stop offset="0.5078" stop-color="#E7E1D2"/>
<stop offset="0.7297" stop-color="#CCBFA6"/>
</linearGradient>
<linearGradient id="paint2_linear_82_7167" x1="-5.65817" y1="41.1622" x2="29.1643" y2="37.5053" gradientUnits="userSpaceOnUse">
<stop stop-color="#94938C"/>
<stop offset="0.2296" stop-color="#EDEBE1"/>
<stop offset="0.7988" stop-color="#EDEBE1"/>
<stop offset="1" stop-color="#94938C"/>
</linearGradient>
</defs>
</svg>
