<svg width="29" height="50" viewBox="0 0 29 50" fill="none" xmlns="http://www.w3.org/2000/svg">
<path d="M9.14895 0.524339C7.83603 0.613728 6.82253 0.998964 5.74461 1.73949C5.45291 1.94004 5.17662 2.1819 5.23424 2.46867C5.50281 3.80814 15.3783 2.73184 15.2835 1.55708C15.2245 0.859208 12.013 0.672264 11.2939 0.594673C10.4827 0.507099 9.78091 0.481233 9.14895 0.524339Z" fill="#D8D6D0"/>
<path d="M19.3126 45.8938C19.9881 48.0578 18.393 48.9406 16.9114 47.6585C14.0469 45.1797 12.3893 41.2034 10.9312 37.5609C10.2561 35.8742 7.35768 29.943 8.88289 28.5094C10.3963 27.0872 16.3288 29.7956 16.6328 33.6018C16.7979 35.6664 16.8669 37.7369 17.2221 39.8025C17.6082 42.0472 18.6502 43.7738 19.3126 45.8938Z" fill="url(#paint0_linear_82_7254)"/>
<path d="M2.5375 20.6215C2.72532 21.3959 2.89179 22.1839 2.92854 22.3363C3.24384 23.6443 3.51742 24.9622 3.73699 26.29C3.91619 27.3747 4.05955 28.4654 4.16616 29.5601C4.2696 30.6207 4.1793 31.7885 4.38119 32.8283C4.58035 33.8531 4.94556 34.9283 5.2908 35.9182C6.32744 38.8911 7.89758 41.6575 9.76216 44.1862C10.6976 45.4547 11.7093 46.6664 12.7772 47.826C13.4332 48.5382 14.8278 50.6469 15.9869 49.7708C16.422 49.4419 16.5967 48.8553 16.5685 48.3105C16.5404 47.7656 16.3408 47.2466 16.1516 46.7349C14.6944 42.7867 13.3089 37.898 14.1282 33.6621C14.2135 33.2207 14.3469 32.7648 14.6636 32.4458C15.0787 32.028 15.7433 31.9341 16.3113 32.0906C16.8793 32.2471 17.3638 32.6187 17.7866 33.0288C19.2379 34.4374 20.2691 36.4177 21.156 38.2187C21.8274 39.5824 22.3206 41.0355 22.6041 42.5294C22.8754 43.9594 22.645 45.6588 23.2193 47.0007C23.5409 47.7525 24.2582 48.3976 25.0757 48.374C25.7122 48.3558 26.2757 47.9462 26.6953 47.4671C28.2414 45.7019 28.5377 42.8892 28.6279 40.6386C28.7414 37.8022 28.3376 34.9759 27.898 32.1818C27.2996 28.3778 26.5306 24.5997 25.6718 20.8465C25.6387 20.7009 25.1714 18.3332 25.0771 18.3359C25.0771 18.3359 2.20224 18.9706 1.99219 18.9765C2.10923 18.9738 2.33561 19.7899 2.5375 20.6215Z" fill="url(#paint1_linear_82_7254)"/>
<path d="M20.4348 0.350316C19.2489 0.282727 18.2834 0.541744 17.2041 1.1437C16.9119 1.30655 16.627 1.51249 16.6329 1.80145C16.6597 3.15324 25.644 3.26438 25.7461 2.09539C25.8042 1.40045 22.9677 0.835231 22.3385 0.673288C21.628 0.491387 21.006 0.382523 20.4348 0.350316Z" fill="#D8D6D0"/>
<path d="M4.49244 1.40019C3.53928 1.49546 2.64146 1.86248 1.86796 2.6691C0.871247 3.70846 0.372214 5.1502 0.248816 6.5847C-0.0156734 9.66238 0.511035 13.3226 1.28 16.3041C1.52408 17.2504 1.54857 19.2393 2.19822 19.9697C4.21977 22.2421 8.66165 21.1365 11.3496 20.9501C14.4282 20.7364 17.7427 20.6343 20.501 19.9697C22.3271 19.8781 25.6801 20.2823 26.2345 17.8674C26.8697 15.0996 27.2607 12.2692 27.3914 9.43237C27.4894 7.31284 27.7988 2.0757 24.7519 1.66695C24.306 1.60706 23.5533 2.10973 23.1065 2.21135C22.1742 2.42276 21.2646 2.39417 20.3391 2.14828C19.2008 1.84614 18.1438 1.30174 17.0527 0.858508C16.8154 0.762331 16.5686 0.669328 16.3128 0.676133C15.7298 0.692012 15.3016 1.19694 14.8352 1.54717C12.8722 3.0225 9.3535 2.25717 7.18632 1.69054C6.27671 1.45236 5.36167 1.31308 4.49244 1.40019Z" fill="url(#paint2_linear_82_7254)"/>
<path d="M4.11844 1.36727C4.11844 1.36727 4.02135 1.29424 3.104 1.77286C3.00282 1.8899 3.66747 11.1954 4.36706 13.6656C5.06619 16.1358 5.73945 21.6795 5.80025 21.8728C5.86104 22.0661 7.8668 33.9924 7.7747 34.5445C8.01923 36.4567 8.65485 37.0002 8.65485 37.0002C8.65485 37.0002 5.01266 10.9386 4.92736 9.3109C4.84207 7.68316 4.11844 1.36727 4.11844 1.36727Z" fill="black"/>
<defs>
<linearGradient id="paint0_linear_82_7254" x1="11.5492" y1="27.601" x2="19.3107" y2="71.8927" gradientUnits="userSpaceOnUse">
<stop offset="0.1599" stop-color="#BFAB8D"/>
<stop offset="0.5078" stop-color="#E7E1D2"/>
<stop offset="0.7297" stop-color="#CCBFA6"/>
</linearGradient>
<linearGradient id="paint1_linear_82_7254" x1="4.57927" y1="34.1019" x2="27.1063" y2="34.1833" gradientUnits="userSpaceOnUse">
<stop stop-color="#BFAB8D"/>
<stop offset="0.5078" stop-color="#E7E1D2"/>
<stop offset="1" stop-color="#CCBFA6"/>
</linearGradient>
<linearGradient id="paint2_linear_82_7254" x1="-5.52613" y1="10.9683" x2="33.3195" y2="11.1086" gradientUnits="userSpaceOnUse">
<stop stop-color="#94938C"/>
<stop offset="0.2296" stop-color="#EDEBE1"/>
<stop offset="0.7988" stop-color="#EDEBE1"/>
<stop offset="1" stop-color="#94938C"/>
</linearGradient>
</defs>
</svg>
