<svg width="25" height="40" viewBox="0 0 25 40" fill="none" xmlns="http://www.w3.org/2000/svg">
<path d="M15.4983 36.673C15.7932 38.5263 14.6073 39.0172 13.6773 37.7655C11.8798 35.346 11.0464 31.8817 10.3259 28.7173C9.99249 27.2519 8.45268 22.0242 9.63497 21.076C10.8082 20.1355 14.7298 23.1765 14.6309 26.3105C14.5773 28.0105 14.4567 29.7018 14.5361 31.4299C14.6223 33.3076 15.2089 34.8574 15.4983 36.673Z" fill="url(#paint0_linear_82_7288)"/>
<path d="M3.02344 13.3628C3.02344 13.3628 4.33091 16.9581 4.33091 20.88C4.33091 24.8019 4.00425 29.7046 6.29208 33.2999C8.57992 36.8952 9.23364 38.5293 9.23364 38.5293C9.23364 38.5293 11.1949 40.8171 12.1752 38.2027C12.1752 38.2027 9.88739 30.3584 11.1949 26.4365C12.5023 22.5145 13.8098 23.8215 14.1364 24.4753C14.4635 25.129 19.0392 32.6462 19.6929 34.6074C20.3467 36.5686 21.327 38.5293 21.9807 38.5293C22.6345 38.5293 23.6148 36.8952 24.2686 33.9537C24.9223 31.0121 24.2686 27.7439 22.9611 25.4561C21.6537 23.1683 20.3462 13.0361 20.3462 11.402C20.3462 9.76748 4.65754 12.709 3.02344 13.3628Z" fill="url(#paint1_linear_82_7288)"/>
<path d="M10.5764 3.09421C10.2661 3.02072 9.94487 2.81794 9.57196 2.57251C8.55938 1.90518 7.50778 1.26144 6.3396 0.937079C5.17096 0.612715 3.85623 0.64084 2.81643 1.26462C2.08512 1.7033 1.54346 2.3983 1.09751 3.12506C0.399772 4.26238 -0.115146 5.58388 0.0449978 6.90856C0.227371 8.41923 0.826674 9.90677 1.44139 11.2868C1.8143 12.1238 2.12506 13.0787 2.79693 13.7338C3.58087 14.4978 4.89879 14.6053 5.93178 14.75C8.15383 15.0607 10.3849 14.7822 12.5544 14.2673C14.7111 13.7551 16.9399 13.1872 19.0368 12.4731C19.4138 12.3447 19.7903 12.1964 20.1061 11.9541C20.9912 11.2741 21.1731 9.72848 21.3858 8.70866C21.7089 7.15852 21.5115 5.55575 20.8773 4.11085C20.0607 2.25041 18.4992 0.608177 16.4259 0.289257C14.942 0.0610678 13.6246 0.365472 12.626 1.51549C12.2953 1.89656 12.0322 2.33933 11.6747 2.69727C11.2814 3.09149 10.9362 3.1795 10.5764 3.09421Z" fill="url(#paint2_linear_82_7288)"/>
<path d="M4.73786 0.760614C4.73786 0.760614 4.70291 0.691206 3.99373 0.855889C3.9175 0.939364 4.09583 8.00892 4.51507 9.8726C4.93477 11.7367 5.23515 15.8878 5.27281 16.0339C5.31001 16.18 6.35539 25.1304 6.27146 25.5383C6.38398 26.9705 6.82089 27.3979 6.82089 27.3979C6.82089 27.3979 5.0659 7.86601 5.05773 6.65063C5.05002 5.4366 4.73786 0.760614 4.73786 0.760614Z" fill="black"/>
<defs>
<linearGradient id="paint0_linear_82_7288" x1="11.5665" y1="20.7101" x2="11.5907" y2="57.7805" gradientUnits="userSpaceOnUse">
<stop offset="0.1599" stop-color="#BFAB8D"/>
<stop offset="0.5078" stop-color="#E7E1D2"/>
<stop offset="0.7297" stop-color="#CCBFA6"/>
</linearGradient>
<linearGradient id="paint1_linear_82_7288" x1="4.91801" y1="25.1498" x2="21.6761" y2="25.2103" gradientUnits="userSpaceOnUse">
<stop stop-color="#BFAB8D"/>
<stop offset="0.5078" stop-color="#E7E1D2"/>
<stop offset="1" stop-color="#CCBFA6"/>
</linearGradient>
<linearGradient id="paint2_linear_82_7288" x1="-6.33508" y1="7.48478" x2="27.7046" y2="7.60775" gradientUnits="userSpaceOnUse">
<stop stop-color="#94938C"/>
<stop offset="0.2614" stop-color="#EDEBE1"/>
<stop offset="0.7687" stop-color="#EDEBE1"/>
<stop offset="1" stop-color="#94938C"/>
</linearGradient>
</defs>
</svg>
