<svg width="19" height="55" viewBox="0 0 19 55" fill="none" xmlns="http://www.w3.org/2000/svg">
<path d="M9.19913 54.2176C9.19913 54.2176 3.90018 55.3132 2.02241 52.5608C0.144644 49.8084 8.56716 52.5572 9.19913 54.2176Z" fill="#D8D6D0"/>
<path d="M9.97656 54.4531C9.97656 54.4531 15.6197 54.8346 17.0238 51.1754C18.4283 47.5157 10.3096 52.3345 9.97656 54.4531Z" fill="#D8D6D0"/>
<path d="M12.2294 33.9217C12.3124 33.9625 12.3913 34.0087 12.4657 34.0609C13.9034 35.0653 15.1152 36.6927 16.0293 38.1648C17.4184 40.4014 18.4102 42.9597 18.1429 45.629C17.9606 47.4537 17.756 49.5519 16.8441 51.1906C16.3115 52.1478 15.1143 52.5865 14.1393 52.9259C13.3041 53.2167 12.4612 53.4898 11.6423 53.8251C10.8861 54.1345 10.1439 54.6621 9.2919 54.594C8.31243 54.5155 7.6283 53.7479 6.84482 53.2498C5.61538 52.4686 4.14369 52.068 2.68742 52.1383C2.43155 52.1505 2.16933 52.1764 1.9239 52.1016C1.56595 51.9927 1.30419 51.6887 1.09323 51.3802C0.132364 49.9766 0.157767 48.6165 0.149601 46.9842C0.140982 45.3255 0.173192 43.6569 0.489397 42.0237C1.0524 39.1134 2.97504 36.7058 3.98581 33.9588C4.04388 33.8005 4.10195 33.6386 4.20856 33.5079C4.39093 33.2842 4.68945 33.1876 4.97708 33.1645C5.51603 33.1209 6.05907 33.2044 6.59303 33.2616C7.60562 33.3704 8.59416 33.4834 9.61219 33.5533C10.4197 33.6091 11.4781 33.5501 12.2294 33.9217Z" fill="url(#paint0_linear_82_7153)"/>
<path d="M14.3712 35.8356C14.3349 35.8651 14.2914 35.8882 14.2383 35.9027C13.9715 35.9776 13.1495 35.5752 12.8587 35.4989C11.8946 35.2467 10.9197 35.0357 9.93881 34.8602C8.89945 34.6742 7.84966 34.4977 6.79124 34.4891C6.23095 34.4845 5.66749 34.5236 5.11899 34.6424C4.63175 34.7481 4.10685 35.082 3.64547 35.1238C3.30929 33.8131 3.65046 32.2888 3.72849 30.9577C3.81514 29.4779 3.95124 28.0012 4.13589 26.5304C4.48204 23.7703 5.17117 21.1131 5.67338 18.3879C6.16244 15.7371 6.29854 12.9348 6.24002 10.2355C6.21234 8.96615 6.13567 7.69452 5.99004 6.43332C5.86619 5.35676 5.55588 4.39318 5.66613 3.27761C5.77818 2.14344 6.31034 0.425845 7.80792 0.890401C8.93529 1.24018 9.63713 2.48006 10.206 3.42278C11.2899 5.21795 12.0788 7.17371 12.8056 9.14036C13.5314 11.1043 14.2006 13.1022 14.5794 15.1655C14.9102 16.9652 14.8698 18.7268 14.8385 20.5438C14.7895 23.4282 14.7205 26.3122 14.6493 29.1961C14.6035 31.0566 14.7096 32.9983 14.5631 34.8856C14.5368 35.2385 14.5885 35.6582 14.3712 35.8356Z" fill="url(#paint1_linear_82_7153)"/>
<path d="M10.6797 54.2778C10.6797 54.2778 10.4978 54.3268 9.60365 54.505C9.48888 54.4098 9.02935 45.2969 9.42038 42.9424C9.81187 40.5878 9.80098 35.4105 9.83773 35.2254C9.87447 35.0403 10.4043 23.836 10.2451 23.3397C10.2537 21.5523 10.8176 20.9766 10.8176 20.9766C10.8176 20.9766 10.3943 45.3718 10.5091 46.8784C10.6239 48.385 10.6797 54.2778 10.6797 54.2778Z" fill="black"/>
<defs>
<linearGradient id="paint0_linear_82_7153" x1="-5.80017" y1="44.2813" x2="24.4361" y2="43.3499" gradientUnits="userSpaceOnUse">
<stop stop-color="#94938C"/>
<stop offset="0.2666" stop-color="#EDEBE1"/>
<stop offset="0.7117" stop-color="#EDEBE1"/>
<stop offset="1" stop-color="#94938C"/>
</linearGradient>
<linearGradient id="paint1_linear_82_7153" x1="0.735981" y1="19.4111" x2="15.0957" y2="17.9031" gradientUnits="userSpaceOnUse">
<stop stop-color="#BFAB8D"/>
<stop offset="0.5078" stop-color="#E7E1D2"/>
<stop offset="1" stop-color="#CCBFA6"/>
</linearGradient>
</defs>
</svg>
