<svg width="19" height="58" viewBox="0 0 19 58" fill="none" xmlns="http://www.w3.org/2000/svg">
<path d="M9.32733 56.213C9.32733 56.213 3.98125 57.0482 2.24006 54.2069C0.499312 51.3656 8.77793 54.5236 9.32733 56.213Z" fill="#D8D6D0"/>
<path d="M3.96094 38.2899C3.96094 38.2899 4.28757 27.1774 5.2684 24.2358C6.24877 21.2943 7.2296 11.4892 6.90251 8.87429C6.57587 6.25936 6.57587 2.33742 6.57587 2.33742C6.57587 2.33742 6.24923 -0.604139 9.19081 1.6837C12.1324 3.97153 15.7277 15.0841 15.4006 19.6597C15.074 24.2354 14.9705 38.0241 15.0222 37.9937C15.0735 37.9629 3.96094 38.2899 3.96094 38.2899Z" fill="url(#paint0_linear_82_7140)"/>
<path d="M14.7492 36.9809C14.7492 36.9809 22.2664 48.0934 16.7104 53.9765C16.0317 54.6951 14.9643 55.2005 14.1372 55.7263C13.2835 56.2693 12.3729 57.0233 11.3318 57.1408C10.1382 57.276 9.26446 56.0271 8.09129 55.7835C6.22628 55.396 4.40119 55.7027 2.80838 54.4306C1.49321 53.3804 0.695684 51.7431 0.424847 50.1036C0.0873227 48.058 0.436642 45.9793 0.844031 43.9709C1.01778 43.1149 1.31357 42.3001 1.65971 41.4985C2.02854 40.6438 2.69361 39.8095 2.98304 38.9412C2.98304 38.9421 5.59795 31.0978 14.7492 36.9809Z" fill="url(#paint1_linear_82_7140)"/>
<path d="M9.09789 56.0386C9.09789 56.0386 9.00443 56.1194 8.06531 55.6725C7.95869 55.5568 8.17464 45.9091 8.75445 43.321C9.3338 40.7328 9.7394 34.9708 9.79112 34.768C9.84284 34.5652 11.2719 22.1406 11.1531 21.5749C11.3055 19.5865 11.9139 18.9922 11.9139 18.9922C11.9139 18.9922 9.53024 46.1042 9.52344 47.7905C9.51663 49.4768 9.09789 56.0386 9.09789 56.0386Z" fill="black"/>
<defs>
<linearGradient id="paint0_linear_82_7140" x1="4.86064" y1="19.5987" x2="17.7532" y2="19.2016" gradientUnits="userSpaceOnUse">
<stop stop-color="#BFAB8D"/>
<stop offset="0.5078" stop-color="#E7E1D2"/>
<stop offset="1" stop-color="#CCBFA6"/>
</linearGradient>
<linearGradient id="paint1_linear_82_7140" x1="-3.2869" y1="46.3771" x2="23.439" y2="45.5539" gradientUnits="userSpaceOnUse">
<stop stop-color="#94938C"/>
<stop offset="0.0311" stop-color="#A6A59D"/>
<stop offset="0.0939" stop-color="#C5C3BB"/>
<stop offset="0.1552" stop-color="#DBD9D0"/>
<stop offset="0.2138" stop-color="#E8E7DD"/>
<stop offset="0.2666" stop-color="#EDEBE1"/>
<stop offset="0.7117" stop-color="#EDEBE1"/>
<stop offset="0.7637" stop-color="#E7E5DB"/>
<stop offset="0.835" stop-color="#D5D3CA"/>
<stop offset="0.9175" stop-color="#B8B7AF"/>
<stop offset="1" stop-color="#94938C"/>
</linearGradient>
</defs>
</svg>
