<svg width="20" height="70" viewBox="0 0 20 70" fill="none" xmlns="http://www.w3.org/2000/svg">
<path d="M16.0233 45.477C16.0233 45.477 3.94148 42.4488 2.9375 44.1754L7.81679 9.62273C7.81679 9.62273 7.66526 0.742188 8.97275 0.742188C10.2802 0.742188 11.5877 4.66414 11.5877 4.66414C11.5877 4.66414 15.732 37.2071 16.0233 45.477Z" fill="url(#paint0_linear_82_7036)"/>
<path d="M13.7031 41.9802C13.7035 41.9811 20.8937 51.4592 19.5862 59.3031C19.1643 61.8341 18.3005 64.4794 16.7748 66.5667C16.0308 67.5848 15.0641 68.5062 13.8451 68.9099C12.2327 69.4439 10.1636 69.0247 8.54714 68.664C7.75141 68.4867 6.96972 68.2421 6.22843 67.901C1.04573 65.5174 -0.323432 59.372 0.0934878 54.1639C0.386557 50.5055 1.49715 46.9565 2.94072 43.6039C3.87708 41.429 6.05831 40.8592 8.23546 40.5512C9.87411 40.3193 12.5889 40.5112 13.7031 41.9802Z" fill="url(#paint1_linear_82_7036)"/>
<path d="M13.6873 42.0505C13.6877 42.0514 20.8778 51.5293 19.5704 59.3732C19.1484 61.9042 18.2847 64.5495 16.759 66.6368C16.015 67.6549 15.0482 68.5763 13.8292 68.98C12.2169 69.514 10.1478 69.0948 8.53139 68.7341C7.73567 68.5568 6.95402 68.3122 6.21273 67.9711C1.0301 65.5875 -0.339053 59.4422 0.077862 54.2341C0.370928 50.5757 1.48148 47.0267 2.92503 43.6741C3.86139 41.4993 6.0426 40.9295 8.21972 40.6214C9.85835 40.3896 12.5735 40.582 13.6873 42.0505Z" fill="url(#paint2_linear_82_7036)"/>
<path d="M13.2798 69.0909C13.2798 69.0909 13.1437 69.3631 12.191 69.227C12.0681 69.133 10.8264 59.6619 11.0047 57.1009C11.1825 54.54 10.7048 48.9758 10.7252 48.7743C10.7456 48.5729 10.2634 36.4886 10.0597 35.9669C9.90724 34.0452 10.4176 33.3828 10.4176 33.3828C10.4176 33.3828 12.1956 59.6378 12.4455 61.2483C12.696 62.8593 13.2798 69.0909 13.2798 69.0909Z" fill="black"/>
<defs>
<linearGradient id="paint0_linear_82_7036" x1="4.59821" y1="23.353" x2="14.203" y2="23.0572" gradientUnits="userSpaceOnUse">
<stop stop-color="#BFAB8D"/>
<stop offset="0.5078" stop-color="#E7E1D2"/>
<stop offset="1" stop-color="#CCBFA6"/>
</linearGradient>
<linearGradient id="paint1_linear_82_7036" x1="-5.48517" y1="54.5255" x2="26.3194" y2="55.094" gradientUnits="userSpaceOnUse">
<stop stop-color="#94938C"/>
<stop offset="0.2666" stop-color="#EDEBE1"/>
<stop offset="0.7117" stop-color="#EDEBE1"/>
<stop offset="1" stop-color="#94938C"/>
</linearGradient>
<linearGradient id="paint2_linear_82_7036" x1="-6.2714" y1="54.5821" x2="26.6809" y2="55.1711" gradientUnits="userSpaceOnUse">
<stop stop-color="#94938C"/>
<stop offset="0.0617" stop-color="#A4A29B"/>
<stop offset="0.1809" stop-color="#CCCAC2"/>
<stop offset="0.2666" stop-color="#EDEBE1"/>
<stop offset="0.7117" stop-color="#EDEBE1"/>
<stop offset="0.7719" stop-color="#E0DED5"/>
<stop offset="0.883" stop-color="#BEBDB4"/>
<stop offset="1" stop-color="#94938C"/>
</linearGradient>
</defs>
</svg>
