<svg width="19" height="61" viewBox="0 0 19 61" fill="none" xmlns="http://www.w3.org/2000/svg">
<path d="M12.3637 34.8111C12.3637 34.8111 15.6318 36.1186 16.6126 43.6359C16.6126 43.6359 17.593 51.4803 17.9201 53.7682C18.2467 56.056 18.2467 58.9976 14.6519 59.978C11.0567 60.9584 7.78852 60.3046 5.82736 59.6513C3.8662 58.9976 0.924682 57.0364 0.270961 54.7485C-0.382759 52.4607 0.270955 41.348 1.25131 39.3868C2.23212 37.4256 4.51992 32.1962 12.3637 34.8111Z" fill="url(#paint0_linear_82_7120)"/>
<path d="M9.09768 3.76C9.09768 3.76 16.2721 19.445 13.3386 35.952C13.3386 35.952 2.93634 34.7189 2.42188 37.5425C3.88089 30.6754 4.58181 23.4486 4.29463 16.4385C4.17804 13.5945 3.97751 10.7546 3.89767 7.90921C3.84595 6.05644 3.52384 3.93965 4.31913 2.21391C4.65303 1.4885 5.20516 0.422388 6.11114 0.338006C7.64864 0.193741 8.63675 2.69979 9.09768 3.76Z" fill="url(#paint1_linear_82_7120)"/>
<path d="M13.8814 60.1963C13.8814 60.1963 13.7453 60.4685 12.7926 60.3324C12.6696 60.2385 11.4279 50.7673 11.6062 48.2064C11.7841 45.6455 11.3063 40.0812 11.3268 39.8798C11.3472 39.6784 10.8649 27.5941 10.6612 27.0724C10.5088 25.1506 11.0192 24.4883 11.0192 24.4883C11.0192 24.4883 12.7971 50.7433 13.0471 52.3538C13.2975 53.9648 13.8814 60.1963 13.8814 60.1963Z" fill="black"/>
<defs>
<linearGradient id="paint0_linear_82_7120" x1="22.529" y1="47.9354" x2="-3.48096" y2="46.6323" gradientUnits="userSpaceOnUse">
<stop stop-color="#94938C"/>
<stop offset="0.1599" stop-color="#D1CFC6"/>
<stop offset="0.2296" stop-color="#EDEBE1"/>
<stop offset="0.7988" stop-color="#EDEBE1"/>
<stop offset="0.9762" stop-color="#9F9E96"/>
<stop offset="1" stop-color="#94938C"/>
</linearGradient>
<linearGradient id="paint1_linear_82_7120" x1="5.05115" y1="18.9497" x2="14.0322" y2="19.1103" gradientUnits="userSpaceOnUse">
<stop stop-color="#BFAB8D"/>
<stop offset="0.5078" stop-color="#E7E1D2"/>
<stop offset="1" stop-color="#CCBFA6"/>
</linearGradient>
</defs>
</svg>
