<svg width="26" height="75" viewBox="0 0 26 75" fill="none" xmlns="http://www.w3.org/2000/svg">
<path d="M13.0634 0.930606C14.6163 2.45629 15.3903 5.70953 16.172 7.69569C18.5619 13.7676 20.3784 20.0736 21.4309 26.517C21.9549 29.724 22.2897 32.9627 22.4172 36.21C22.4816 37.8432 22.4938 39.4783 22.4525 41.1124C22.419 42.4498 22.6394 44.3947 22.0837 45.6078C21.3996 44.8347 20.9123 43.9051 20.1883 43.1616C18.4181 41.3433 16.1293 40.0431 13.5448 40.0417C12.4537 40.0413 11.3817 40.2627 10.3623 40.6351C9.94857 40.7862 9.5439 40.9618 9.14967 41.1577C7.99962 41.7294 6.61548 43.4547 5.39195 43.5477C5.2132 41.1555 5.81795 38.4707 6.04569 36.0717C6.04569 29.9816 7.2488 23.55 8.16022 17.5412C8.43423 15.7338 8.84662 13.9504 8.80851 12.1176C8.76904 10.2253 8.55672 8.33536 8.6851 6.44176C8.80033 4.7464 9.01267 0.652049 11.3477 0.392098C11.8068 0.340834 12.2586 0.510961 12.6892 0.678365C12.8266 0.732351 12.9505 0.819912 13.0634 0.930606Z" fill="url(#paint0_linear_82_7105)"/>
<path d="M25.3465 69.5753C25.3465 69.5753 27.6343 42.7746 15.5414 38.8522C15.5414 38.8522 1.81382 36.5644 0.5068 60.4235C0.5068 60.4235 -1.12732 71.536 5.08249 72.8435C6.42988 73.1293 7.75732 73.3743 9.04801 73.5739C10.8867 73.8583 12.7431 74.0539 14.6005 74.1645C16.7735 74.2938 19.0328 74.2194 21.1541 73.6864C22.5242 73.3421 24.0109 72.7355 24.8066 71.4975C25.175 70.9245 25.3465 70.254 25.3465 69.5753Z" fill="url(#paint1_linear_82_7105)"/>
<path d="M17.702 74.1715C17.702 74.1715 18.6157 74.2042 18.7259 74.0227C18.8362 73.8413 18.9269 57.9984 18.4279 53.7902C17.9288 49.582 17.702 40.2578 17.6566 39.9276C17.6113 39.5973 16.5678 19.4636 16.7039 18.5559C16.6132 15.3376 16.0234 14.3477 16.0234 14.3477C16.0234 14.3477 17.5659 58.2461 17.5205 60.969C17.4752 63.6919 17.702 74.1715 17.702 74.1715Z" fill="black"/>
<defs>
<linearGradient id="paint0_linear_82_7105" x1="18.7497" y1="22.9607" x2="5.2686" y2="23.2016" gradientUnits="userSpaceOnUse">
<stop stop-color="#BFAB8D"/>
<stop offset="0.5078" stop-color="#E7E1D2"/>
<stop offset="1" stop-color="#CCBFA6"/>
</linearGradient>
<linearGradient id="paint1_linear_82_7105" x1="30.4212" y1="56.499" x2="-4.59858" y2="56.5168" gradientUnits="userSpaceOnUse">
<stop stop-color="#94938C"/>
<stop offset="0.2296" stop-color="#EDEBE1"/>
<stop offset="0.7876" stop-color="#EDEBE1"/>
<stop offset="1" stop-color="#94938C"/>
</linearGradient>
</defs>
</svg>
