<svg width="27" height="75" viewBox="0 0 27 75" fill="none" xmlns="http://www.w3.org/2000/svg">
<path d="M13.3505 0.883731C11.7976 2.40941 11.0237 5.66266 10.242 7.64881C7.8521 13.7207 6.03563 20.0267 4.98312 26.4701C4.45913 29.6771 4.12432 32.9158 3.99684 36.1632C3.93242 37.7964 3.92018 39.4314 3.96146 41.0655C3.99503 42.4029 3.77454 44.3478 4.33029 45.5609C5.01442 44.7878 5.50164 43.8583 6.2257 43.1147C7.9959 41.2964 10.2847 39.9962 12.8692 39.9948C13.9603 39.9944 15.0323 40.2158 16.0517 40.5882C16.4654 40.7393 16.8701 40.9149 17.2643 41.1109C18.4144 41.6825 19.7985 43.4078 21.0221 43.5008C21.2008 41.1086 20.5961 38.4238 20.3683 36.0248C20.3683 29.9348 19.1652 23.5031 18.2538 17.4943C17.9798 15.6869 17.5674 13.9035 17.6055 12.0707C17.645 10.1785 17.8573 8.28849 17.7289 6.39488C17.6136 4.69953 17.4013 0.605174 15.0663 0.345223C14.6072 0.293959 14.1554 0.464086 13.7248 0.63149C13.5869 0.685476 13.4631 0.773037 13.3505 0.883731Z" fill="url(#paint0_linear_82_7110)"/>
<path d="M1.07083 69.5286C1.07083 69.5286 -1.21699 42.7277 10.8759 38.8053C10.8759 38.8053 24.6034 36.5175 25.9104 60.3768C25.9104 60.3768 27.5445 71.4894 21.3347 72.7968C19.9874 73.0826 18.6599 73.3276 17.3692 73.5272C15.5305 73.8117 13.6741 74.0072 11.8168 74.1179C9.64376 74.2472 7.38451 74.1728 5.26317 73.6398C3.8931 73.2954 2.40644 72.6889 1.61071 71.4508C1.24234 70.8778 1.07083 70.2073 1.07083 69.5286Z" fill="url(#paint1_linear_82_7110)"/>
<path d="M8.71183 74.1251C8.71183 74.1251 7.79825 74.1578 7.68802 73.9763C7.57779 73.7949 7.48706 57.9519 7.98604 53.7436C8.48502 49.5354 8.71183 40.2111 8.75719 39.8809C8.80255 39.5506 9.84587 19.4168 9.70979 18.509C9.80051 15.2907 10.3902 14.3008 10.3902 14.3008C10.3902 14.3008 8.84791 58.1996 8.89327 60.9225C8.93864 63.6454 8.71183 74.1251 8.71183 74.1251Z" fill="black"/>
<defs>
<linearGradient id="paint0_linear_82_7110" x1="7.66411" y1="22.9138" x2="21.1452" y2="23.1548" gradientUnits="userSpaceOnUse">
<stop stop-color="#BFAB8D"/>
<stop offset="0.5078" stop-color="#E7E1D2"/>
<stop offset="1" stop-color="#CCBFA6"/>
</linearGradient>
<linearGradient id="paint1_linear_82_7110" x1="-4.00406" y1="56.4523" x2="31.0156" y2="56.4701" gradientUnits="userSpaceOnUse">
<stop stop-color="#94938C"/>
<stop offset="0.2296" stop-color="#EDEBE1"/>
<stop offset="0.7876" stop-color="#EDEBE1"/>
<stop offset="1" stop-color="#94938C"/>
</linearGradient>
</defs>
</svg>
