<svg width="23" height="42" viewBox="0 0 23 42" fill="none" xmlns="http://www.w3.org/2000/svg">
<path d="M18.7087 2.62802C19.2422 0.892267 17.6252 0.0756703 16.2482 1.04154C13.5864 2.9084 12.1972 6.07322 10.9845 8.97581C10.4228 10.32 7.9334 15.016 9.51499 16.2804C11.0843 17.5348 16.7414 15.6575 16.8127 12.5539C16.8512 10.8699 16.7959 9.17588 17.0213 7.50228C17.2663 5.68351 18.1855 4.32838 18.7087 2.62802Z" fill="url(#paint0_linear_4_354)"/>
<path d="M2.91766 26.5518C1.9554 20.244 1.97086 12.6333 4.7746 6.79557C5.42608 5.43866 6.31304 4.19742 7.36966 3.12587C7.78432 2.70532 10.2541 0.18022 10.7736 0.801741C11.303 1.43551 10.8244 2.85186 10.7305 3.5564C10.5735 4.73548 10.4247 5.91544 10.3018 7.0986C10.0527 9.49894 9.43252 12.0998 10.0813 14.4884C10.2242 15.0142 10.5545 15.5341 11.0726 15.7024C11.3461 15.7913 11.6442 15.7731 11.925 15.7123C13.7025 15.3272 14.9887 13.5352 16.0816 12.2205C17.6446 10.341 18.5415 8.2296 19.3223 5.93179C19.7016 4.81577 20.1353 3.73151 21.0885 2.98795C21.318 2.80875 21.7813 2.39321 22.1351 2.47804C23.3002 2.75659 22.8978 5.89958 22.8556 6.6141C22.5289 12.1706 20.2405 19.6878 20.2405 19.6878C20.2405 19.6878 19.2601 25.8976 20.2405 27.8588C21.2209 29.82 4.22471 29.8204 2.91766 26.5518Z" fill="url(#paint1_linear_4_354)"/>
<path d="M1.93674 27.5322C1.93674 27.5317 4.5516 24.5906 10.4347 24.5906C16.3177 24.5906 20.5667 26.5518 21.5471 29.1663C22.5274 31.7813 22.8545 38.9715 19.2593 40.279C18.122 40.6927 16.8716 40.7952 15.8464 40.0621C14.9694 39.4351 14.6229 38.2828 13.3041 38.7102C12.7293 38.8962 12.2552 39.2995 11.768 39.657C9.62582 41.2285 5.9852 42.8585 3.54541 41.0035C0.210108 38.4674 -0.967591 30.8 1.93674 27.5322Z" fill="url(#paint2_linear_4_354)"/>
<defs>
<linearGradient id="paint0_linear_4_354" x1="12.1605" y1="17.1736" x2="19.3709" y2="-18.2465" gradientUnits="userSpaceOnUse">
<stop offset="0.1599" stop-color="#BFAB8D"/>
<stop offset="0.5078" stop-color="#E7E1D2"/>
<stop offset="0.7297" stop-color="#CCBFA6"/>
</linearGradient>
<linearGradient id="paint1_linear_4_354" x1="-2.6017" y1="14.8971" x2="22.3365" y2="14.9872" gradientUnits="userSpaceOnUse">
<stop offset="0.1599" stop-color="#BFAB8D"/>
<stop offset="0.5078" stop-color="#E7E1D2"/>
<stop offset="0.7297" stop-color="#CCBFA6"/>
</linearGradient>
<linearGradient id="paint2_linear_4_354" x1="-4.92405" y1="33.1626" x2="27.6348" y2="33.2802" gradientUnits="userSpaceOnUse">
<stop stop-color="#94938C"/>
<stop offset="0.2296" stop-color="#EDEBE1"/>
<stop offset="0.7988" stop-color="#EDEBE1"/>
<stop offset="1" stop-color="#94938C"/>
</linearGradient>
</defs>
</svg>
