<svg width="25" height="40" viewBox="0 0 25 40" fill="none" xmlns="http://www.w3.org/2000/svg">
<path d="M9.20999 36.5435C8.91511 38.3967 10.101 38.8876 11.031 37.6359C12.8284 35.2165 13.6618 31.7523 14.3822 28.588C14.7157 27.1226 16.2554 21.895 15.0731 20.9468C13.9 20.0064 9.9785 23.0473 10.0774 26.1813C10.1309 27.8811 10.2516 29.5724 10.1722 31.3004C10.086 33.1782 9.49943 34.7279 9.20999 36.5435Z" fill="url(#paint0_linear_4_420)"/>
<path d="M21.6799 13.2348C21.6799 13.2348 20.3724 16.8301 20.3724 20.752C20.3724 24.674 20.699 29.5767 18.4112 33.172C16.1234 36.7673 15.4696 38.4014 15.4696 38.4014C15.4696 38.4014 13.5085 40.6892 12.5281 38.0748C12.5281 38.0748 14.8159 30.2304 13.5084 26.3085C12.201 22.3866 10.8935 23.6936 10.5669 24.3473C10.2402 25.0011 5.66411 32.5183 5.01038 34.4795C4.35664 36.4407 3.37626 38.4014 2.72253 38.4014C2.0688 38.4014 1.08842 36.7673 0.434683 33.8257C-0.21905 30.8842 0.434697 27.616 1.74216 25.3277C3.04963 23.0399 4.35708 12.9077 4.35708 11.2736C4.35708 9.63953 20.0458 12.5811 21.6799 13.2348Z" fill="url(#paint1_linear_4_420)"/>
<path d="M14.1289 2.96559C14.4393 2.8921 14.7604 2.68931 15.1333 2.44388C16.1459 1.77654 17.1975 1.13276 18.3657 0.808396C19.5339 0.484028 20.8491 0.512187 21.8889 1.13597C22.6202 1.57466 23.1619 2.26966 23.6078 2.99643C24.3056 4.13376 24.8205 5.45524 24.6603 6.77994C24.4779 8.29063 23.8787 9.77822 23.2639 11.1583C22.891 11.9953 22.5803 12.9502 21.9084 13.6053C21.1249 14.3692 19.8066 14.4768 18.7736 14.6215C16.5515 14.9323 14.3204 14.6537 12.151 14.1388C9.99423 13.6266 7.76538 13.0586 5.66808 12.3446C5.29109 12.2162 4.91453 12.0678 4.59878 11.8256C3.71368 11.1456 3.53176 9.59993 3.31899 8.5801C2.99598 7.02993 3.19332 5.42712 3.82755 3.98221C4.64415 2.12174 6.20567 0.479523 8.27892 0.160599C9.76286 -0.0675927 11.0803 0.236782 12.0788 1.38681C12.4095 1.76789 12.6727 2.2107 13.0302 2.56864C13.4244 2.96332 13.7692 3.05088 14.1289 2.96559Z" fill="url(#paint2_linear_4_420)"/>
<defs>
<linearGradient id="paint0_linear_4_420" x1="13.143" y1="20.5756" x2="13.1188" y2="57.645" gradientUnits="userSpaceOnUse">
<stop offset="0.1599" stop-color="#BFAB8D"/>
<stop offset="0.5078" stop-color="#E7E1D2"/>
<stop offset="0.7297" stop-color="#CCBFA6"/>
</linearGradient>
<linearGradient id="paint1_linear_4_420" x1="19.7854" y1="25.0216" x2="3.02725" y2="25.0821" gradientUnits="userSpaceOnUse">
<stop stop-color="#BFAB8D"/>
<stop offset="0.5078" stop-color="#E7E1D2"/>
<stop offset="1" stop-color="#CCBFA6"/>
</linearGradient>
<linearGradient id="paint2_linear_4_420" x1="30.5562" y1="7.35819" x2="-1.78486" y2="7.47506" gradientUnits="userSpaceOnUse">
<stop stop-color="#94938C"/>
<stop offset="0.2614" stop-color="#EDEBE1"/>
<stop offset="0.7687" stop-color="#EDEBE1"/>
<stop offset="1" stop-color="#94938C"/>
</linearGradient>
</defs>
</svg>
