<svg width="30" height="51" viewBox="0 0 30 51" fill="none" xmlns="http://www.w3.org/2000/svg">
<path d="M20.2506 0.791673C21.5635 0.881049 22.577 1.2662 23.655 2.00661C23.9467 2.20714 24.223 2.44897 24.1654 2.7357C23.8968 4.07499 14.0211 2.99885 14.1159 1.82425C14.1749 1.12648 17.3865 0.939566 18.1056 0.861985C18.9172 0.774424 19.6186 0.748573 20.2506 0.791673Z" fill="#D8D6D0"/>
<path d="M10.9051 0.791673C12.218 0.881049 13.2314 1.2662 14.3093 2.00661C14.601 2.20714 14.8773 2.44897 14.8197 2.7357C14.5511 4.07499 4.67588 2.99885 4.7707 1.82425C4.82967 1.12648 8.04114 0.939566 8.76019 0.861985C9.57178 0.774424 10.2731 0.748573 10.9051 0.791673Z" fill="#D8D6D0"/>
<path d="M10.0859 46.1592C9.41043 48.3232 11.0055 49.206 12.4872 47.924C15.3516 45.4451 17.0093 41.4688 18.4673 37.8263C19.1424 36.1396 22.0408 30.2084 20.5156 28.7748C19.0022 27.3525 13.0697 30.0614 12.7657 33.8672C12.601 35.9318 12.5316 38.0023 12.1764 40.0679C11.7899 42.3126 10.7478 44.0392 10.0859 46.1592Z" fill="url(#paint0_linear_4_399)"/>
<path d="M26.861 20.8861C26.6732 21.6605 26.5067 22.4485 26.47 22.6009C26.1547 23.9089 25.8811 25.2268 25.6615 26.5546C25.4823 27.6393 25.339 28.73 25.2324 29.8247C25.1289 30.8853 25.2192 32.0531 25.0169 33.0929C24.8177 34.1177 24.4525 35.1928 24.1073 36.1827C23.0707 39.1556 21.5005 41.922 19.636 44.4508C18.7005 45.7192 17.6888 46.9309 16.6209 48.09C15.9649 48.8023 14.5704 50.9109 13.4112 50.0349C12.9762 49.706 12.8015 49.1194 12.8296 48.5746C12.8578 48.0297 13.0574 47.5107 13.2465 46.999C14.7037 43.0507 16.0892 38.1621 15.2699 33.9258C15.1846 33.4843 15.0512 33.0284 14.7346 32.7095C14.3195 32.2917 13.6548 32.1978 13.0869 32.3543C12.5189 32.5108 12.0343 32.8823 11.6115 33.2924C10.1603 34.7011 9.12908 36.6813 8.24217 38.4824C7.57074 39.8461 7.07761 41.2992 6.79407 42.7931C6.52278 44.223 6.75324 45.9225 6.1789 47.2644C5.85725 48.0161 5.14001 48.6612 4.32251 48.6376C3.68601 48.6195 3.12258 48.2098 2.70294 47.7307C1.15685 45.9655 0.860599 43.1528 0.77032 40.9022C0.656903 38.0659 1.06066 35.2396 1.50026 32.4454C2.09864 28.6419 2.8676 24.8633 3.72638 21.1102C3.7595 20.9646 4.22679 18.5969 4.32115 18.5996C4.32115 18.5996 27.1958 19.2343 27.4059 19.2402C27.2888 19.2384 27.0625 20.0545 26.861 20.8861Z" fill="url(#paint1_linear_4_399)"/>
<path d="M24.9054 1.66532C25.8585 1.76059 26.7563 2.1276 27.5298 2.93422C28.5265 3.97357 29.0256 5.4153 29.149 6.8498C29.4135 9.92748 28.8867 13.5877 28.1178 16.5692C27.8737 17.5155 27.8492 19.5044 27.1995 20.2348C25.178 22.5072 20.7362 21.4016 18.0482 21.2152C14.9696 21.0015 11.6551 20.8994 8.89683 20.2348C7.07082 20.1432 3.71777 20.5474 3.16339 18.1325C2.52826 15.3647 2.1372 12.5343 2.00654 9.69749C1.90855 7.57796 1.59913 2.34083 4.64596 1.93207C5.09191 1.87219 5.84455 2.37485 6.29141 2.47647C7.22369 2.68834 8.1333 2.65932 9.05878 2.41343C10.197 2.11129 11.2541 1.56686 12.3452 1.12362C12.5824 1.02745 12.8292 0.934465 13.0851 0.94127C13.668 0.957148 14.0963 1.46209 14.5627 1.81232C16.5257 3.28765 20.0443 2.52227 22.2115 1.95564C23.1211 1.71747 24.0366 1.57822 24.9054 1.66532Z" fill="url(#paint2_linear_4_399)"/>
<defs>
<linearGradient id="paint0_linear_4_399" x1="17.8382" y1="27.8626" x2="10.0767" y2="72.1545" gradientUnits="userSpaceOnUse">
<stop offset="0.1599" stop-color="#BFAB8D"/>
<stop offset="0.5078" stop-color="#E7E1D2"/>
<stop offset="0.7297" stop-color="#CCBFA6"/>
</linearGradient>
<linearGradient id="paint1_linear_4_399" x1="24.819" y1="34.3665" x2="2.29207" y2="34.4479" gradientUnits="userSpaceOnUse">
<stop stop-color="#BFAB8D"/>
<stop offset="0.5078" stop-color="#E7E1D2"/>
<stop offset="1" stop-color="#CCBFA6"/>
</linearGradient>
<linearGradient id="paint2_linear_4_399" x1="36.3188" y1="11.2284" x2="-2.43498" y2="11.3684" gradientUnits="userSpaceOnUse">
<stop stop-color="#94938C"/>
<stop offset="0.2296" stop-color="#EDEBE1"/>
<stop offset="0.8411" stop-color="#EDEBE1"/>
<stop offset="1" stop-color="#94938C"/>
</linearGradient>
</defs>
</svg>
