<svg width="24" height="42" viewBox="0 0 24 42" fill="none" xmlns="http://www.w3.org/2000/svg">
<path d="M6.79883 38.9689C6.79883 38.9689 9.24813 42.557 12.9709 40.1135C16.6936 37.67 8.71871 37.2785 6.79883 38.9689Z" fill="#D8D6D0"/>
<path d="M9.75423 3.54165C9.23342 1.80229 7.43511 2.02141 6.82721 3.58928C5.65177 6.62022 6.25514 10.0236 6.85942 13.1108C7.13932 14.5403 7.67918 19.8278 9.69661 20.0006C11.6982 20.1717 15.3583 15.4681 13.6934 12.8477C12.7901 11.4264 11.8025 10.0486 11.0603 8.53198C10.2528 6.88381 10.2641 5.24653 9.75423 3.54165Z" fill="url(#paint0_linear_4_350)"/>
<path d="M20.2125 26.8409C20.1472 26.8776 19.9385 26.4113 19.7512 26.4317C19.5066 26.458 19.2018 26.3727 18.9573 26.3478C18.1125 26.2625 17.2664 26.1885 16.4199 26.1246C14.0681 25.9472 11.7054 25.8392 9.34632 25.8868C7.70541 25.9199 6.03955 26.0071 4.4304 26.3505C3.43641 26.5623 2.12849 26.8776 1.52057 27.7813C1.52057 27.7813 2.89021 22.2652 1.90938 18.0162C0.928554 13.7671 -0.378461 2.32792 2.23647 2.00083C3.88011 1.79532 5.11906 5.61791 5.54777 6.6813C6.68466 9.50129 7.57476 12.5155 8.38093 15.4779C8.40361 15.5605 8.42675 15.6453 8.47711 15.7143C8.91853 16.3249 10.451 16.5672 11.0426 16.1589C11.538 15.8168 11.6605 15.1494 11.7412 14.5524C11.8846 13.4931 12.0279 12.4338 12.1713 11.3745C12.512 8.85755 12.855 6.32427 12.7942 3.77784C12.7774 3.07874 11.9808 -0.481628 13.6761 0.366275C16.5242 1.79033 18.1484 5.72905 18.9396 8.55585C20.0084 12.3753 20.0479 16.4624 20.1953 20.4011C20.2629 22.2067 20.3532 24.0372 20.2357 25.8428C20.2121 26.1962 20.306 26.7883 20.2125 26.8409Z" fill="url(#paint1_linear_4_350)"/>
<path d="M19.1168 25.6883C18.2398 25.0809 17.0653 25.0083 16.0468 24.8046C14.513 24.4974 12.9655 24.2416 11.4022 24.1472C7.95661 23.9385 4.16715 24.5705 1.85165 27.3737C1.03551 28.3613 0.461623 29.544 0.174 30.7916C-0.149463 32.1962 0.111393 33.1035 0.558706 34.4305C0.968819 35.6468 1.50414 36.9638 2.16558 38.0653C2.88283 39.2593 4.03014 40.2932 5.47279 40.2723C7.03567 40.2497 8.56315 39.6381 9.60703 38.4531C9.66192 38.391 9.71817 38.3252 9.7953 38.2939C9.88739 38.2567 9.9913 38.2762 10.0875 38.2984C12.1884 38.7798 14.2943 40.1535 16.2319 41.0821C17.1583 41.5258 17.6877 41.661 18.6259 41.1683C19.7963 40.5536 20.911 39.7978 21.7775 38.7993C24.3402 35.8459 23.3635 31.65 21.4899 28.6045C20.8983 27.6432 20.1656 26.529 19.2792 25.8113C19.2265 25.7677 19.1721 25.7269 19.1168 25.6883Z" fill="url(#paint2_linear_4_350)"/>
<defs>
<linearGradient id="paint0_linear_4_350" x1="12.4421" y1="19.2755" x2="-1.24542" y2="-14.1765" gradientUnits="userSpaceOnUse">
<stop offset="0.1599" stop-color="#BFAB8D"/>
<stop offset="0.5078" stop-color="#E7E1D2"/>
<stop offset="0.7297" stop-color="#CCBFA6"/>
</linearGradient>
<linearGradient id="paint1_linear_4_350" x1="1.37237" y1="16.2891" x2="19.0613" y2="12.9336" gradientUnits="userSpaceOnUse">
<stop offset="0.1599" stop-color="#BFAB8D"/>
<stop offset="0.5078" stop-color="#E7E1D2"/>
<stop offset="0.7297" stop-color="#CCBFA6"/>
</linearGradient>
<linearGradient id="paint2_linear_4_350" x1="28.0041" y1="32.7585" x2="-3.77803" y2="32.8392" gradientUnits="userSpaceOnUse">
<stop stop-color="#94938C"/>
<stop offset="0.2296" stop-color="#EDEBE1"/>
<stop offset="0.7988" stop-color="#EDEBE1"/>
<stop offset="1" stop-color="#94938C"/>
</linearGradient>
</defs>
</svg>
