<svg width="26" height="51" viewBox="0 0 26 51" fill="none" xmlns="http://www.w3.org/2000/svg">
<path d="M10.7389 2.25743C10.7389 2.25743 9.83288 0.203247 7.99869 0.717701C6.16449 1.23216 5.53071 6.02602 5.8628 9.56006C6.19443 13.0941 7.7664 24.3068 10.4689 24.5378C13.1714 24.7687 18.1138 18.4178 15.8654 14.8797C13.6165 11.342 9.89639 5.13184 10.7389 2.25743Z" fill="url(#paint0_linear_4_341)"/>
<path d="M22.5624 32.7094C19.3636 32.4789 15.7338 30.9151 12.5291 30.7885C10.5189 30.7091 8.50777 30.5762 6.4953 30.6406C5.56483 30.6701 4.1807 33.1508 3.27881 33.036C2.69358 32.9616 3.07965 30.558 3.1037 29.9361C3.12411 29.4066 3.16903 28.8795 3.09145 28.3519C2.8129 26.4501 1.76674 24.6445 1.33167 22.7427C0.8281 20.5429 0.487851 18.3004 0.27871 16.0538C0.0568671 13.6703 -0.036592 11.2363 0.275078 8.8564C0.409363 7.8302 0.592644 6.78812 1.00004 5.83043C1.31715 5.08505 2.08612 3.62197 3.06876 3.73403C3.42943 3.77531 3.75244 3.98038 4.02237 4.224C4.55135 4.70172 4.91972 5.33775 5.16334 6.00782C5.66555 7.39014 5.65466 8.87863 5.75129 10.3267C5.8511 11.8198 6.25803 13.2025 6.59284 14.6516C7.21436 17.3441 7.94841 20.5129 9.71227 22.72C10.1414 23.2572 10.7866 23.6918 11.4711 23.6269C11.8223 23.5933 12.1503 23.4318 12.437 23.2263C13.47 22.4855 13.9953 21.207 14.1745 19.9486C14.5416 17.3699 14.2653 14.5254 13.5761 12.0257C13.1719 10.5586 12.4252 9.24473 11.9688 7.81024C11.4865 6.29363 10.8324 3.2849 12.9705 2.70738C13.8334 2.4742 14.752 2.91517 15.3967 3.53398C17.7884 5.82727 19.4039 9.23657 20.7872 12.1927C21.6355 14.0051 22.4544 15.8787 22.9766 17.8159C23.2905 18.9805 23.257 20.1409 23.2238 21.3436C23.1308 24.7053 22.9358 29.3758 22.5624 32.7094Z" fill="url(#paint1_linear_4_341)"/>
<path d="M3.62205 34.8758C3.34985 34.9588 2.95971 35.6983 2.80864 35.9111C2.21026 36.7553 1.69216 37.664 1.30428 38.6249C0.25903 41.214 0.410555 44.0535 2.3713 46.174C2.39444 46.1989 2.41803 46.2239 2.44117 46.2488C2.54687 46.36 2.6571 46.4684 2.7433 46.595C2.9851 46.9502 3.04273 47.3953 3.27184 47.7596C3.48823 48.1039 3.80625 48.426 4.11429 48.686C4.8397 49.2984 5.80601 49.724 6.77096 49.6287C7.10259 49.596 7.41879 49.4781 7.73046 49.361C9.08375 48.8529 10.5532 48.2736 11.2709 46.9298C11.1892 47.0831 11.5617 47.7069 11.6556 47.834C11.8806 48.1397 12.1564 48.2727 12.5044 48.4069C13.6535 48.8511 14.9043 49.2077 16.0058 49.7584C16.7671 50.0515 17.4094 50.3301 18.1838 50.076C18.6348 49.9281 19.0917 49.7983 19.5376 49.635C20.3724 49.3297 21.761 48.7953 21.761 47.7124C21.761 46.0379 23.1565 41.0148 19.8075 35.9918C16.4604 30.971 3.63294 34.8726 3.62205 34.8758Z" fill="#D8D6D0"/>
<path d="M3.60537 30.7482C3.28644 30.8453 2.82915 31.7118 2.65267 31.9609C1.95175 32.9499 1.3452 34.0142 0.890626 35.1393C-0.333827 38.1721 -0.155987 41.4979 2.14003 43.9813C2.16725 44.0103 2.19493 44.0398 2.22215 44.0688C2.346 44.1991 2.47483 44.3261 2.576 44.4744C2.85955 44.8909 2.92669 45.4113 3.19481 45.8386C3.44796 46.2415 3.82042 46.6189 4.18154 46.9238C5.03126 47.641 6.16317 48.1392 7.29281 48.028C7.68115 47.9899 8.05134 47.8516 8.41655 47.7145C10.0017 47.1198 11.7229 46.4406 12.5635 44.8669C12.4678 45.0465 12.9042 45.7769 13.014 45.9262C13.2776 46.2841 13.6011 46.4397 14.008 46.5971C15.3541 47.1175 16.8189 47.5349 18.1092 48.18C19.0006 48.5234 19.7528 48.8496 20.6602 48.552C21.1882 48.3787 21.7236 48.2267 22.2457 48.0357C23.2234 47.6782 24.8502 47.0522 24.8502 45.7837C24.8502 43.8225 26.4844 37.9393 22.5624 32.0561C18.6418 26.1748 3.61762 30.7446 3.60537 30.7482Z" fill="url(#paint2_linear_4_341)"/>
<defs>
<linearGradient id="paint0_linear_4_341" x1="14.2673" y1="23.5157" x2="-4.29426" y2="-21.8496" gradientUnits="userSpaceOnUse">
<stop offset="0.1599" stop-color="#BFAB8D"/>
<stop offset="0.5078" stop-color="#E7E1D2"/>
<stop offset="0.7297" stop-color="#CCBFA6"/>
</linearGradient>
<linearGradient id="paint1_linear_4_341" x1="1.37494" y1="17.5237" x2="22.2855" y2="18.4691" gradientUnits="userSpaceOnUse">
<stop offset="0.1599" stop-color="#BFAB8D"/>
<stop offset="0.5078" stop-color="#E7E1D2"/>
<stop offset="0.7297" stop-color="#CCBFA6"/>
</linearGradient>
<linearGradient id="paint2_linear_4_341" x1="-5.58218" y1="41.1806" x2="30.3371" y2="37.4085" gradientUnits="userSpaceOnUse">
<stop stop-color="#94938C"/>
<stop offset="0.2296" stop-color="#EDEBE1"/>
<stop offset="0.7988" stop-color="#EDEBE1"/>
<stop offset="1" stop-color="#94938C"/>
</linearGradient>
</defs>
</svg>
