<svg width="25" height="43" viewBox="0 0 25 43" fill="none" xmlns="http://www.w3.org/2000/svg">
<path d="M22.0191 26.8842C22.9813 20.5764 22.9659 12.9657 20.1623 7.12795C19.5108 5.77104 18.6239 4.5298 17.5673 3.45824C17.1527 3.03769 14.6825 0.512579 14.1635 1.1341C13.634 1.76787 14.1126 3.18422 14.2066 3.88877C14.3635 5.06785 14.5123 6.24784 14.6353 7.431C14.8843 9.83135 15.5045 12.4322 14.8558 14.8208C14.7128 15.3466 14.3826 15.8665 13.8645 16.0348C13.5909 16.1237 13.2929 16.1056 13.0121 16.0448C11.2346 15.6596 9.94847 13.8676 8.85559 12.5529C7.29272 10.6734 6.39583 8.56199 5.61507 6.26417C5.23581 5.14815 4.8021 4.06388 3.84896 3.32032C3.6194 3.14112 1.3706 0.381924 1.01674 0.46676C-0.148271 0.745311 0.254128 3.88831 0.296319 4.60284C0.622957 10.1593 4.69686 20.0203 4.69686 20.0203C4.69686 20.0203 5.67722 26.23 4.69686 28.1912C3.71649 30.1529 20.7121 30.1529 22.0191 26.8842Z" fill="url(#paint0_linear_85_9874)"/>
<path d="M23.0004 27.8634C22.9999 27.863 20.3854 24.9219 14.5023 24.9219C8.61911 24.9219 4.37005 26.8831 3.38967 29.4975C2.4093 32.112 2.0822 39.3025 5.67752 40.61C6.81487 41.0237 8.06518 41.1262 9.09047 40.3931C9.96741 39.7662 10.314 38.6139 11.6328 39.0412C12.2076 39.2272 12.6817 39.6305 13.1689 39.988C15.3112 41.5595 18.9518 43.1895 21.3917 41.3345C24.727 38.7985 25.9048 31.1312 23.0004 27.8634Z" fill="url(#paint1_linear_85_9874)"/>
<path d="M6.24501 2.98247C5.7115 1.24676 7.32837 0.430174 8.70524 1.39602C11.3669 3.26283 12.756 6.42756 13.9687 9.33009C14.5303 10.6743 17.0196 15.3701 15.4381 16.6345C13.8689 17.8889 8.21211 16.0116 8.14089 12.9081C8.10232 11.2241 8.15767 9.53015 7.9322 7.8566C7.68722 6.03832 6.76809 4.68279 6.24501 2.98247Z" fill="url(#paint2_linear_85_9874)"/>
<path d="M22.0384 26.9067C23.0006 20.5989 22.9852 12.9882 20.1815 7.15035C19.53 5.79343 18.6431 4.55219 17.5865 3.48062C17.1719 3.06007 14.7017 0.534953 14.1827 1.15648C13.6532 1.79025 14.1318 3.20661 14.2258 3.91115C14.3827 5.09024 14.5315 6.27023 14.6545 7.4534C14.9035 9.85376 15.5237 12.4546 14.875 14.8432C14.7321 15.369 14.4018 15.8889 13.8837 16.0572C13.6101 16.1461 13.3121 16.128 13.0312 16.0672C11.2538 15.682 9.96762 13.89 8.87473 12.5753C7.31184 10.6958 6.41494 8.5844 5.63418 6.28657C5.25491 5.17054 4.8212 4.08627 3.86804 3.3427C3.63849 3.16351 3.1753 2.74795 2.82143 2.83278C1.65641 3.11133 2.05882 6.25436 2.10101 6.96889C2.42765 12.5254 4.71595 20.0427 4.71595 20.0427C4.71595 20.0427 5.69633 26.2525 4.71595 28.2137C3.73557 30.1754 20.7314 30.1754 22.0384 26.9067Z" fill="url(#paint3_linear_85_9874)"/>
<path d="M23.0159 27.8869C23.0155 27.8864 20.401 24.9453 14.5179 24.9453C8.63472 24.9453 4.38567 26.9065 3.4053 29.521C2.42492 32.1355 2.09783 39.3262 5.69314 40.6336C6.83048 41.0474 8.08079 41.1499 9.10607 40.4168C9.98301 39.7898 10.3296 38.6375 11.6484 39.0649C12.2232 39.2509 12.6973 39.6542 13.1845 40.0117C15.3267 41.5832 18.9674 43.2132 21.4072 41.3581C24.7426 38.8221 25.9203 31.1542 23.0159 27.8869Z" fill="url(#paint4_linear_85_9874)"/>
<path d="M21.4366 38.6812C21.6956 38.4462 21.9066 38.1459 22.0522 37.768C22.6125 36.3153 23.1029 34.8173 23.2122 33.2698C23.2894 32.1779 23.1664 31.0555 22.7595 30.0302C22.3362 28.9632 21.6398 28.0568 21.3903 26.9131C21.2438 26.2416 21.2478 25.5489 21.2528 24.8625C21.2841 20.2959 21.7963 15.4334 20.7483 10.9467C20.1976 8.58894 19.0716 6.54516 17.6126 4.61254C17.0537 3.8726 16.9448 3.01382 16.3437 2.30564C16.2057 2.14323 15.7085 1.55617 15.391 1.4237C15.0734 1.29123 14.6782 0.968676 14.7105 1.29123C15.1056 5.26537 16.1159 10.8922 15.6641 14.8605C15.6173 15.2706 15.3506 16.6579 13.5309 16.7654C11.7112 16.8729 10.729 15.5446 9.50414 14.1654C7.67721 12.108 6.36837 9.61196 5.37393 7.10137C5.10127 6.41315 4.04286 2.88361 3.0965 2.7457C2.50673 2.6595 2.51762 3.66528 2.55255 4.37799C2.67096 6.79242 2.79118 9.2395 3.46897 11.5791C4.17125 14.003 4.84812 16.3648 5.34761 18.8468C5.87432 21.4627 6.42281 25.249 4.81047 27.5623C2.64192 30.6744 2.71723 36.0309 6.16921 38.2883C6.64874 38.6018 7.0389 38.6367 7.50527 38.3196C8.54327 37.6133 9.69422 37.0648 10.9042 36.6991C11.2639 36.5907 11.6364 36.4972 12.0125 36.5168C12.7143 36.5535 13.2887 37.17 13.8517 37.5357C14.5435 37.9848 15.2648 38.3963 16.0284 38.7202C17.5686 39.3749 20.1214 39.873 21.4366 38.6812Z" fill="#FCF2D9"/>
<path d="M16.5306 1.82422C16.5306 1.82422 17.4411 6.2638 18.2314 8.7753C19.0217 11.2868 19.9117 25.2302 19.1215 28.0462C18.3312 30.8621 9.87302 31.1193 9.19071 29.4072C8.50839 27.695 7.33386 18.6099 7.33386 18.6099C7.33386 18.6099 5.90889 12.1678 5.4339 10.3985C4.95891 8.62922 3.67096 3.49825 4.00894 2.82229C4.00894 2.82229 6.64292 11.5327 6.34033 10.4893C6.03773 9.44582 8.92623 15.8362 9.19026 16.4323C9.72921 17.6499 11.3388 18.8966 13.8535 18.9728C16.3682 19.049 17.0019 17.5356 17.1816 16.4323C17.3612 15.329 17.3703 9.33467 17.1548 8.15514L16.5306 1.82422Z" fill="white"/>
<defs>
<linearGradient id="paint0_linear_85_9874" x1="27.9659" y1="14.9184" x2="0.87313" y2="15.0163" gradientUnits="userSpaceOnUse">
<stop offset="0.1599" stop-color="#BFAB8D"/>
<stop offset="0.5078" stop-color="#E7E1D2"/>
<stop offset="0.7297" stop-color="#CCBFA6"/>
</linearGradient>
<linearGradient id="paint1_linear_85_9874" x1="29.62" y1="33.4946" x2="-2.55742" y2="33.6109" gradientUnits="userSpaceOnUse">
<stop stop-color="#94938C"/>
<stop offset="0.2296" stop-color="#EDEBE1"/>
<stop offset="0.7988" stop-color="#EDEBE1"/>
<stop offset="1" stop-color="#94938C"/>
</linearGradient>
<linearGradient id="paint2_linear_85_9874" x1="12.7897" y1="17.5174" x2="5.57917" y2="-17.9017" gradientUnits="userSpaceOnUse">
<stop offset="0.1599" stop-color="#BFAB8D"/>
<stop offset="0.5078" stop-color="#E7E1D2"/>
<stop offset="0.7297" stop-color="#CCBFA6"/>
</linearGradient>
<linearGradient id="paint3_linear_85_9874" x1="27.5577" y1="15.2521" x2="2.62006" y2="15.3422" gradientUnits="userSpaceOnUse">
<stop offset="0.1599" stop-color="#BFAB8D"/>
<stop offset="0.5078" stop-color="#E7E1D2"/>
<stop offset="0.7297" stop-color="#CCBFA6"/>
</linearGradient>
<linearGradient id="paint4_linear_85_9874" x1="29.8769" y1="33.517" x2="-2.68246" y2="33.6346" gradientUnits="userSpaceOnUse">
<stop stop-color="#94938C"/>
<stop offset="0.2296" stop-color="#EDEBE1"/>
<stop offset="0.7988" stop-color="#EDEBE1"/>
<stop offset="1" stop-color="#94938C"/>
</linearGradient>
</defs>
</svg>
