<svg width="19" height="61" viewBox="0 0 19 61" fill="none" xmlns="http://www.w3.org/2000/svg">
<path d="M6.59657 34.815C6.59657 34.815 3.32833 36.1225 2.3475 43.6398C2.3475 43.6398 1.36713 51.4842 1.04004 53.772C0.713397 56.0599 0.713399 59.0015 4.30827 59.9818C7.90359 60.9622 11.1718 60.3085 13.133 59.6552C15.0942 59.0014 18.0358 57.0402 18.6895 54.7524C19.3433 52.4645 18.6895 41.3519 17.7092 39.3907C16.7288 37.4295 14.4405 32.2001 6.59657 34.815Z" fill="url(#paint0_linear_85_9794)"/>
<path d="M9.86744 3.76434C9.86744 3.76434 2.69304 19.4494 5.6265 35.9566C5.6265 35.9566 16.0288 34.7235 16.5432 37.5471C15.0842 30.68 14.3833 23.4531 14.6705 16.443C14.7866 13.5989 14.9876 10.759 15.0674 7.91358C15.1191 6.0608 15.4413 3.944 14.646 2.21825C14.3121 1.49283 13.76 0.426712 12.854 0.341876C11.3165 0.198063 10.3284 2.70412 9.86744 3.76434Z" fill="url(#paint1_linear_85_9794)"/>
<path d="M4.9449 54.9618C4.48536 53.5927 4.69131 51.5802 4.66137 50.236C4.61918 48.3424 4.64413 46.4438 4.83557 44.5602C4.99253 43.0204 5.21755 41.4258 5.73925 39.9949C6.28952 38.486 7.04393 37.1096 7.35377 35.4828C7.51935 34.614 7.56199 33.7221 7.60418 32.8347C7.94804 25.582 8.2175 18.3111 9.26134 11.1323C9.61019 8.73328 10.5501 1.96777 12.3489 0.359976C13.5655 -0.727461 13.1672 5.1593 13.1709 6.19411C13.1895 11.2656 13.0166 16.2796 13.0352 21.3511C13.0511 25.6809 12.2649 30.972 13.8985 34.9633C14.9841 37.6155 16.0012 39.2791 16.2003 42.2782C16.375 44.9095 16.5501 47.5403 16.7247 50.1716C16.7946 51.2232 16.8604 52.312 16.5437 53.3032C15.4926 56.5936 9.40061 57.4239 6.9051 56.7547C6.20467 56.5669 5.52421 56.1377 5.14904 55.4391C5.0692 55.2921 5.00161 55.1319 4.9449 54.9618Z" fill="#FCF2D9"/>
<path d="M12.87 49.8629C13.3051 48.9438 13.4249 44.2973 13.3972 42.8642C13.3573 40.8077 11.9527 32.0406 11.7839 27.8255C11.5666 22.4019 11.8747 12.3555 11.9654 8.54465C12.0561 4.73384 12.7367 0.197158 12.5552 0.242525C12.3737 0.287892 10.9673 6.18557 10.7859 8.77148C10.6044 11.3574 9.526 20.6757 9.19799 26.1016C8.96934 29.8797 8.11961 39.3169 8.16588 41.1983C8.21306 43.1228 8.17904 48.3032 8.57419 49.1515C9.01425 50.0956 9.89076 50.8247 10.4188 50.7466C11.0989 50.6464 12.4354 50.782 12.87 49.8629Z" fill="white"/>
<defs>
<linearGradient id="paint0_linear_85_9794" x1="-3.56901" y1="47.9391" x2="22.4416" y2="46.636" gradientUnits="userSpaceOnUse">
<stop stop-color="#94938C"/>
<stop offset="0.1599" stop-color="#D1CFC6"/>
<stop offset="0.2296" stop-color="#EDEBE1"/>
<stop offset="0.7988" stop-color="#EDEBE1"/>
<stop offset="0.9762" stop-color="#9F9E96"/>
<stop offset="1" stop-color="#94938C"/>
</linearGradient>
<linearGradient id="paint1_linear_85_9794" x1="13.914" y1="18.9545" x2="4.93292" y2="19.115" gradientUnits="userSpaceOnUse">
<stop stop-color="#BFAB8D"/>
<stop offset="0.5078" stop-color="#E7E1D2"/>
<stop offset="1" stop-color="#CCBFA6"/>
</linearGradient>
</defs>
</svg>
