<svg width="20" height="70" viewBox="0 0 20 70" fill="none" xmlns="http://www.w3.org/2000/svg">
<path d="M3.92188 45.6014C3.92188 45.6014 16.0035 42.5732 17.0074 44.3003L12.1287 9.74772C12.1287 9.74772 8.70895 0.867188 7.40148 0.867188C6.09401 0.867188 4.78657 4.78914 4.78657 4.78914C4.78657 4.78914 4.21313 37.3316 3.92188 45.6014Z" fill="url(#paint0_linear_85_9804)"/>
<path d="M6.24504 42.1052C6.24459 42.1061 -0.945406 51.5841 0.362033 59.428C0.783934 61.9591 1.64768 64.6044 3.17333 66.6917C3.91733 67.7098 4.88407 68.6312 6.10305 69.0349C7.71535 69.5689 9.78449 69.1497 11.4009 68.789C12.1966 68.6117 12.9782 68.3671 13.7195 68.026C18.9021 65.6424 20.2712 59.497 19.8543 54.2889C19.5612 50.6305 18.4507 47.0815 17.0071 43.7288C16.0708 41.554 13.8896 40.9842 11.7125 40.6761C10.0739 40.4443 7.35922 40.6366 6.24504 42.1052Z" fill="url(#paint1_linear_85_9804)"/>
<path d="M5.4998 3.07459C5.36914 3.66345 6.35043 7.49376 6.37947 7.9928C6.73424 14.1137 6.98195 20.2518 6.87624 26.3836C6.80275 30.654 7.0196 34.9425 6.58725 39.2001C6.17895 43.2242 4.38968 46.8349 3.33127 50.7033C2.24246 54.6838 3.92104 63.9577 9.13823 63.6079C14.3554 63.2581 16.3516 58.1399 16.3516 54.5092C16.3516 48.9726 14.061 43.4474 13.2512 38.0206C12.1896 30.9076 11.7328 23.8589 10.8526 16.7223C10.5714 14.4431 9.89994 11.8349 9.89994 9.54842C9.71983 8.46688 9.0661 6.527 8.7204 5.48039C8.47905 4.74908 7.40249 0.855248 6.67889 1.23724C6.36042 1.406 5.63045 2.48573 5.4998 3.07459Z" fill="#FCF2D9"/>
<path d="M7.34292 53.3768C6.90783 52.4576 7.2735 48.1065 7.30163 46.6729C7.34155 44.6164 8.26028 35.554 8.42951 31.3389C8.64683 25.9153 7.89143 16.2772 7.8007 12.4664C7.70996 8.65556 6.12202 1.53297 6.3035 1.57834C6.48498 1.62371 9.24617 9.69899 9.42764 12.2849C9.60912 14.8708 10.6876 24.1891 11.0156 29.615C11.2442 33.3931 12.094 42.8303 12.0477 44.7117C12.0006 46.6362 12.0346 51.8166 11.6394 52.665C11.1993 53.609 10.6545 54.1806 9.7947 54.26C8.93495 54.3399 7.77802 54.2959 7.34292 53.3768Z" fill="white"/>
<defs>
<linearGradient id="paint0_linear_85_9804" x1="15.2759" y1="23.5302" x2="5.38234" y2="23.2255" gradientUnits="userSpaceOnUse">
<stop stop-color="#BFAB8D"/>
<stop offset="0.5078" stop-color="#E7E1D2"/>
<stop offset="1" stop-color="#CCBFA6"/>
</linearGradient>
<linearGradient id="paint1_linear_85_9804" x1="26.2036" y1="54.6371" x2="-6.74834" y2="55.226" gradientUnits="userSpaceOnUse">
<stop stop-color="#94938C"/>
<stop offset="0.0617" stop-color="#A4A29B"/>
<stop offset="0.1809" stop-color="#CCCAC2"/>
<stop offset="0.2666" stop-color="#EDEBE1"/>
<stop offset="0.7117" stop-color="#EDEBE1"/>
<stop offset="0.7719" stop-color="#E0DED5"/>
<stop offset="0.883" stop-color="#BEBDB4"/>
<stop offset="1" stop-color="#94938C"/>
</linearGradient>
</defs>
</svg>
