<svg width="19" height="58" viewBox="0 0 19 58" fill="none" xmlns="http://www.w3.org/2000/svg">
<path d="M9.9375 56.2951C9.9375 56.2951 15.2838 57.1303 17.025 54.2889C18.7658 51.4476 10.4869 54.6056 9.9375 56.2951Z" fill="#D8D6D0"/>
<path d="M15.3047 38.3722C15.3047 38.3722 14.9781 27.2596 13.9972 24.318C13.0163 21.3764 12.0359 11.5713 12.363 8.95637C12.6897 6.34143 12.6897 2.41946 12.6897 2.41946C12.6897 2.41946 13.0163 -0.522116 10.0746 1.76573C7.13293 4.05358 3.53744 15.1662 3.86455 19.7419C4.19121 24.3176 4.29466 38.1064 4.24294 38.076C4.19168 38.0451 15.3047 38.3722 15.3047 38.3722Z" fill="url(#paint0_linear_85_9813)"/>
<path d="M4.51567 37.0629C4.51567 37.0629 -3.00178 48.1756 2.55442 54.0587C3.23312 54.7773 4.30062 55.2827 5.12767 55.8085C5.98149 56.3516 6.89247 57.1056 7.93321 57.2231C9.12684 57.3583 10.0006 56.1093 11.1738 55.8657C13.0389 55.4783 14.8641 55.7849 16.4569 54.5129C17.7721 53.4626 18.5697 51.8253 18.8406 50.1858C19.1781 48.1402 18.8288 46.0615 18.4214 44.0531C18.2476 43.197 17.9518 42.3827 17.6056 41.5806C17.2368 40.7259 16.5717 39.8916 16.2823 39.0233C16.2823 39.0242 13.6673 31.1798 4.51567 37.0629Z" fill="url(#paint1_linear_85_9813)"/>
<path d="M3.61274 41.4653C3.66672 41.2593 3.72798 41.0552 3.79558 40.8542C4.36538 39.162 5.37797 37.669 5.72639 35.8988C5.95821 34.7229 5.88062 33.4998 5.81892 32.2967C5.5939 27.9238 5.42695 23.3812 5.84614 19.0205C6.26261 14.6885 7.34461 10.4911 8.44884 6.33782C8.80179 5.01901 9.32216 1.87055 10.455 1.42187C10.5589 1.38059 10.8265 1.16374 11.1223 1.12109C11.2117 7.07231 11.3945 15.1068 11.6009 21.0484C11.6377 22.1128 13.0055 31.0958 12.9683 31.6067C12.9315 32.1175 13.412 35.3957 13.4487 35.779C13.4855 36.1624 16.0727 40.8878 15.9248 43.9106C15.7769 46.9334 15.5333 49.1064 14.3061 50.3186C13.079 51.5313 10.8242 52.2122 9.67873 52.0421C8.53322 51.872 6.20455 52.2122 5.61342 50.8925C4.92067 49.3464 3.94709 48.1914 3.54832 46.4488C3.17586 44.8233 3.18901 43.0758 3.61274 41.4653Z" fill="#FCF2D9"/>
<path d="M11.3858 44.2398C11.7579 43.3207 11.8609 38.6742 11.8368 37.2411C11.8028 35.1846 10.6004 26.4175 10.4562 22.2025C10.2701 16.7789 10.5374 7.8212 10.6154 4.0104C10.6934 0.199591 10.4983 0.290324 10.3432 0.335691C10.188 0.381058 9.68162 1.74206 9.52644 4.32796C9.37126 6.91387 8.52369 15.0527 8.24283 20.4785C8.04727 24.2567 7.80815 34.339 7.84763 36.2208C7.88801 38.1452 7.37076 42.6801 7.70925 43.5285C8.08585 44.4725 8.83587 45.2016 9.28779 45.1236C9.86993 45.0233 11.0138 45.1589 11.3858 44.2398Z" fill="white"/>
<defs>
<linearGradient id="paint0_linear_85_9813" x1="14.405" y1="19.6809" x2="1.51187" y2="19.2837" gradientUnits="userSpaceOnUse">
<stop stop-color="#BFAB8D"/>
<stop offset="0.5078" stop-color="#E7E1D2"/>
<stop offset="1" stop-color="#CCBFA6"/>
</linearGradient>
<linearGradient id="paint1_linear_85_9813" x1="22.5525" y1="46.4593" x2="-4.1744" y2="45.6359" gradientUnits="userSpaceOnUse">
<stop stop-color="#94938C"/>
<stop offset="0.0311" stop-color="#A6A59D"/>
<stop offset="0.0939" stop-color="#C5C3BB"/>
<stop offset="0.1552" stop-color="#DBD9D0"/>
<stop offset="0.2138" stop-color="#E8E7DD"/>
<stop offset="0.2666" stop-color="#EDEBE1"/>
<stop offset="0.7117" stop-color="#EDEBE1"/>
<stop offset="0.7637" stop-color="#E7E5DB"/>
<stop offset="0.835" stop-color="#D5D3CA"/>
<stop offset="0.9175" stop-color="#B8B7AF"/>
<stop offset="1" stop-color="#94938C"/>
</linearGradient>
</defs>
</svg>
