<svg width="26" height="51" viewBox="0 0 26 51" fill="none" xmlns="http://www.w3.org/2000/svg">
<path d="M14.6892 2.2865C14.6892 2.2865 15.5952 0.232295 17.4288 0.746755C19.263 1.26121 19.8967 6.05512 19.5646 9.5892C19.233 13.1233 17.6611 24.3361 14.9587 24.5671C12.2563 24.798 7.31423 18.4471 9.56252 14.9089C11.8108 11.3708 15.5316 5.16094 14.6892 2.2865Z" fill="url(#paint0_linear_85_9839)"/>
<path d="M2.86995 32.737C6.06869 32.5066 9.69842 30.9428 12.9031 30.8162C14.9132 30.7368 16.9243 30.6039 18.9367 30.6683C19.8671 30.6978 21.2508 33.1785 22.1531 33.0637C22.7384 32.9893 22.3523 30.5858 22.3283 29.9638C22.3079 29.4344 22.2629 28.9072 22.3405 28.3796C22.619 26.4778 23.6652 24.6722 24.1002 22.7705C24.6038 20.5706 24.944 18.3282 25.1532 16.0816C25.375 13.6985 25.4689 11.2641 25.1568 8.88421C25.0225 7.85801 24.8392 6.81593 24.4318 5.85825C24.1147 5.11287 23.3458 3.6498 22.3632 3.76186C22.0025 3.80314 21.6795 4.0082 21.4096 4.25182C20.8806 4.72953 20.5123 5.36557 20.2686 6.03564C19.7664 7.41796 19.7773 8.90643 19.6807 10.3545C19.5809 11.8475 19.174 13.2303 18.8392 14.6793C18.2177 17.3718 17.4837 20.5407 15.7198 22.7478C15.2907 23.2849 14.6455 23.7195 13.961 23.6547C13.6098 23.6211 13.2819 23.4596 12.9951 23.2541C11.9622 22.5132 11.4368 21.2348 11.2576 19.9763C10.8906 17.3977 11.1669 14.5532 11.856 12.0535C12.2602 10.5864 13.0069 9.27254 13.4633 7.83805C13.9456 6.32144 14.5997 3.31273 12.4616 2.73522C11.5988 2.50203 10.6801 2.943 10.035 3.5618C7.64334 5.85508 6.02787 9.26437 4.64466 12.2205C3.79632 14.0329 2.97746 15.9065 2.4553 17.8437C2.14137 19.0082 2.17495 20.1687 2.20807 21.3714C2.30152 24.733 2.49659 29.4035 2.86995 32.737Z" fill="url(#paint1_linear_85_9839)"/>
<path d="M21.8094 34.9045C22.0816 34.9875 22.4722 35.727 22.6228 35.9397C23.2216 36.784 23.7392 37.6927 24.1271 38.6536C25.1723 41.2427 25.0208 44.0822 23.0601 46.2031C23.037 46.228 23.0134 46.253 22.9902 46.2779C22.8845 46.3891 22.7743 46.4975 22.6881 46.6241C22.4463 46.9793 22.3887 47.4243 22.1596 47.7886C21.9432 48.133 21.6252 48.4551 21.3172 48.715C20.5918 49.3275 19.6255 49.753 18.6606 49.6578C18.329 49.6251 18.0128 49.5071 17.7012 49.3901C16.3479 48.882 14.8785 48.3026 14.1609 46.9589C14.2425 47.1122 13.8701 47.736 13.7762 47.863C13.5511 48.1688 13.2754 48.3017 12.9274 48.436C11.7783 48.8802 10.5276 49.2367 9.42613 49.7875C8.66491 50.0806 8.02255 50.3591 7.24817 50.1051C6.79724 49.9572 6.3404 49.8274 5.89446 49.6641C5.05975 49.3588 3.67114 48.8244 3.67114 47.7415C3.67114 46.067 2.27572 41.044 5.62456 36.0209C8.97158 30.9998 21.7985 34.9013 21.8094 34.9045Z" fill="#D8D6D0"/>
<path d="M21.8243 30.7773C22.1432 30.8744 22.6005 31.7409 22.777 31.9899C23.4779 32.9789 24.0844 34.0432 24.539 35.1683C25.7634 38.2011 25.5856 41.527 23.2896 44.0103C23.2624 44.0394 23.2348 44.0689 23.2075 44.0979C23.0837 44.2281 22.9549 44.3551 22.8537 44.5035C22.5701 44.9199 22.503 45.4403 22.2349 45.8677C21.9817 46.2705 21.6093 46.648 21.2482 46.9528C20.3984 47.6701 19.2666 48.1682 18.1369 48.0571C17.7486 48.019 17.3784 47.8806 17.0132 47.7436C15.4281 47.1488 13.7069 46.4697 12.8663 44.8959C12.962 45.0751 12.5256 45.806 12.4158 45.9552C12.1523 46.3132 11.8288 46.4688 11.4219 46.6262C10.0758 47.1465 8.61098 47.5639 7.32077 48.209C6.42932 48.5525 5.67715 48.8787 4.76983 48.581C4.24177 48.4077 3.70644 48.2558 3.18427 48.0648C2.20663 47.7073 0.579797 47.0812 0.579797 45.8128C0.579797 43.8516 -1.05428 37.9684 2.86762 32.0852C6.78816 26.2038 21.8121 30.7736 21.8243 30.7773Z" fill="url(#paint2_linear_85_9839)"/>
<path d="M10.0822 4.74766C8.9684 6.40126 7.73668 9.02935 6.76127 10.7569C6.09482 11.9373 5.43107 13.1441 4.96787 14.4093C4.29552 16.2458 4.28828 18.3925 4.15898 20.3174C4.007 22.5803 3.95708 24.8586 3.95708 27.126C3.95708 29.495 3.59959 29.8366 3.59959 29.8366C3.59959 29.8366 0.236928 40.5785 2.77752 43.2438C5.31812 45.9091 12.2594 41.4672 12.2594 41.4672C12.2594 41.4672 14.3463 41.9749 15.7981 42.7361C17.2498 43.4974 19.2007 44.005 20.4709 42.8205C21.7412 41.636 24.1004 38.5057 24.0096 37.5748C23.9189 36.6443 22.8301 31.8641 21.832 30.0027C20.8339 28.1413 22.4671 24.4612 22.8301 22.2614C23.193 20.0615 24.917 13.0815 24.554 10.6281C24.1911 8.17464 23.9189 3.5636 22.4671 3.64798C20.3348 3.73236 21.2876 8.08981 21.0154 9.69714C20.7432 11.3045 19.1553 20.297 18.4294 21.3971C17.7035 22.4973 15.1625 24.8486 14.0741 24.7692C12.9857 24.6898 9.67342 23.0653 9.94563 18.877C10.2178 14.6888 12.2594 7.53997 12.5316 6.65124C12.6768 6.17671 13.3537 4.07624 13.1214 3.09769C13.0406 2.75744 12.4672 2.72205 12.214 2.67487C11.8329 2.60319 11.2164 2.84408 10.0822 4.74766Z" fill="#FCF2D9"/>
<path d="M12.1308 2.25C12.1308 2.25 8.81902 9.46325 7.82095 12.4574C6.82287 15.4516 4.87209 31.2391 5.87017 34.5962C6.86824 37.9533 17.8017 38.2709 18.6636 36.2294C19.5256 34.1879 20.9774 22.9824 20.9774 22.9824C20.9774 22.9824 22.2463 17.533 22.7013 12.5028C23.0788 8.33 22.7095 4.51514 22.2821 3.70943C22.2821 3.70943 22.4246 8.10634 21.8393 12.6843C21.2777 17.0739 19.9947 21.6369 19.6617 22.3473C18.9812 23.799 16.9851 25.8859 13.8094 25.9766C10.6337 26.0673 8.77365 22.0297 8.54682 20.7141C8.31998 19.3985 9.77173 11.1872 10.0439 9.78082L12.1308 2.25Z" fill="white"/>
<defs>
<linearGradient id="paint0_linear_85_9839" x1="11.1729" y1="23.5524" x2="29.7353" y2="-21.8126" gradientUnits="userSpaceOnUse">
<stop offset="0.1599" stop-color="#BFAB8D"/>
<stop offset="0.5078" stop-color="#E7E1D2"/>
<stop offset="0.7297" stop-color="#CCBFA6"/>
</linearGradient>
<linearGradient id="paint1_linear_85_9839" x1="24.057" y1="17.5515" x2="3.14684" y2="18.4969" gradientUnits="userSpaceOnUse">
<stop offset="0.1599" stop-color="#BFAB8D"/>
<stop offset="0.5078" stop-color="#E7E1D2"/>
<stop offset="0.7297" stop-color="#CCBFA6"/>
</linearGradient>
<linearGradient id="paint2_linear_85_9839" x1="31.0804" y1="41.2168" x2="-3.74179" y2="37.56" gradientUnits="userSpaceOnUse">
<stop stop-color="#94938C"/>
<stop offset="0.2296" stop-color="#EDEBE1"/>
<stop offset="0.7988" stop-color="#EDEBE1"/>
<stop offset="1" stop-color="#94938C"/>
</linearGradient>
</defs>
</svg>
