<svg width="24" height="42" viewBox="0 0 24 42" fill="none" xmlns="http://www.w3.org/2000/svg">
<path d="M9.35156 39.1173C9.35156 39.1173 11.801 42.7051 15.524 40.2618C19.247 37.8185 11.2716 37.427 9.35156 39.1173Z" fill="#D8D6D0"/>
<path d="M13.7477 3.49527C14.2695 1.75591 16.0673 1.97595 16.6747 3.54427C17.8493 6.57567 17.2445 9.97862 16.6393 13.0658C16.359 14.4953 15.8173 19.7828 13.7999 19.9548C11.7983 20.1253 8.13955 15.4199 9.80585 12.8004C10.7095 11.3791 11.6976 10.0018 12.4407 8.4856C13.2478 6.83743 13.2374 5.1997 13.7477 3.49527Z" fill="url(#paint0_linear_85_9854)"/>
<path d="M3.28937 26.7892C3.3547 26.826 3.56336 26.3596 3.75118 26.38C3.9957 26.4068 4.30056 26.321 4.54509 26.2965C5.3898 26.2117 6.23591 26.1377 7.08244 26.0742C9.43466 25.8978 11.7969 25.7907 14.1559 25.8388C15.7968 25.8724 17.4626 25.9604 19.0717 26.3038C20.0657 26.5161 21.3736 26.8319 21.9811 27.7356C21.9811 27.7356 20.6133 22.219 21.5954 17.9704C22.5776 13.7219 23.8887 2.28269 21.2738 1.95515C19.6302 1.74918 18.3899 5.5713 17.9612 6.63424C16.8234 9.45422 15.9324 12.4675 15.1254 15.4299C15.1027 15.5125 15.0796 15.5973 15.0292 15.6663C14.5878 16.2764 13.0553 16.5187 12.4638 16.1099C11.9684 15.7679 11.8463 15.1001 11.7655 14.5035C11.6226 13.4442 11.4797 12.3849 11.3368 11.3256C10.997 8.80821 10.655 6.27494 10.7162 3.72897C10.733 3.02987 11.531 -0.530034 9.83523 0.316958C6.9867 1.7401 5.36123 5.67791 4.56914 8.5047C3.49941 12.3236 3.4586 16.4107 3.30935 20.3494C3.24085 22.155 3.15054 23.9851 3.26713 25.7911C3.28981 26.1445 3.19546 26.7366 3.28937 26.7892Z" fill="url(#paint1_linear_85_9854)"/>
<path d="M4.38159 25.6375C5.25853 25.0305 6.4335 24.9584 7.45198 24.7547C8.98582 24.4484 10.5337 24.193 12.0966 24.0987C15.5422 23.8913 19.3312 24.5247 21.6462 27.3283C22.4619 28.3164 23.0358 29.4991 23.3225 30.7467C23.6455 32.1517 23.3842 33.0586 22.9365 34.3851C22.5259 35.6014 21.9901 36.9179 21.3282 38.019C20.6105 39.2126 19.4632 40.2465 18.0201 40.2247C16.4572 40.2011 14.9297 39.5896 13.8863 38.4041C13.8314 38.342 13.7751 38.2758 13.698 38.2449C13.6059 38.2077 13.5021 38.2272 13.4059 38.249C11.305 38.7294 9.19815 40.1027 7.2601 41.0304C6.33372 41.4741 5.80427 41.6089 4.86609 41.1157C3.69609 40.5005 2.58143 39.7443 1.71539 38.7458C-0.846455 35.7915 0.131642 31.596 2.00664 28.5509C2.59821 27.5901 3.33179 26.4759 4.21825 25.7586C4.27133 25.7169 4.32579 25.6761 4.38159 25.6375Z" fill="url(#paint2_linear_85_9854)"/>
<path d="M8.39676 2.79922C3.55536 9.04617 5.64305 17.2366 4.35467 24.3841C4.22129 25.1245 4.02262 25.7564 3.6733 26.4324C2.83177 28.0615 1.88682 29.5078 1.82422 31.3769C1.75027 33.5844 2.73197 35.6232 4.35197 37.1765C4.45404 37.274 4.56109 37.3716 4.69265 37.4292C4.8478 37.4968 5.02339 37.5031 5.19442 37.5059C7.61194 37.5399 10.0821 37.0046 12.1752 35.8373C12.77 35.5057 13.2395 35.091 13.9409 34.9313C14.3732 34.8329 14.8559 34.8578 15.2247 35.0933C15.4896 35.2625 15.6729 35.5225 15.8997 35.7357C17.2435 36.9996 19.5558 36.119 20.6073 34.9286C21.379 34.0553 21.7673 32.9184 21.8685 31.7825C22.0477 29.7736 21.3667 27.8056 21.1426 25.8231C20.6899 21.8195 20.9358 17.8908 21.3863 13.904C21.6929 11.1911 22.2223 8.30126 22.0032 5.56748C21.9959 5.47584 21.9883 5.38465 21.9737 5.29392C21.8826 4.71731 21.8499 1.01996 20.7942 1.93409C20.6278 2.07836 20.1224 3.76734 20.0267 3.96106C19.2319 5.56612 18.8299 7.36717 18.2161 9.04119C17.5688 10.8059 17.3392 12.5126 16.5753 14.2347C15.9909 15.5526 14.968 17.8917 13.2182 17.365C12.5427 17.1618 11.5959 15.8675 11.086 14.3255C10.191 11.6203 9.9519 8.03586 9.9519 7.40482C9.9519 6.43579 9.86114 5.46269 9.79808 4.49638C9.7323 3.49424 10.92 0.167969 10.1787 0.167969C9.43836 0.167062 8.73609 2.36189 8.39676 2.79922Z" fill="#FCF2D9"/>
<path d="M9.83329 0.367188C9.83329 0.367188 8.74491 4.8975 7.82937 7.409C6.91383 9.9205 5.45295 24.7713 6.36849 27.5872C7.28403 30.4031 17.1467 30.1613 17.9375 28.4492C18.7283 26.737 20.0313 16.9496 20.0313 16.9496C20.0313 16.9496 20.6369 12.868 21.0539 8.64888C21.4 5.14884 21.0892 2.06118 20.6977 1.38567C20.6977 1.38567 20.7449 4.94196 20.2077 8.7818C19.6928 12.4638 18.8213 15.4489 18.5155 16.045C17.8912 17.2627 16.3686 19.3845 13.456 19.4607C10.5428 19.5369 9.25258 16.1693 9.04479 15.0655C8.83701 13.9618 8.8261 7.96792 9.07563 6.78839L9.83329 0.367188Z" fill="white"/>
<defs>
<linearGradient id="paint0_linear_85_9854" x1="11.1031" y1="19.2345" x2="24.8014" y2="-14.2163" gradientUnits="userSpaceOnUse">
<stop offset="0.1599" stop-color="#BFAB8D"/>
<stop offset="0.5078" stop-color="#E7E1D2"/>
<stop offset="0.7297" stop-color="#CCBFA6"/>
</linearGradient>
<linearGradient id="paint1_linear_85_9854" x1="22.1326" y1="16.2439" x2="4.4451" y2="12.8825" gradientUnits="userSpaceOnUse">
<stop offset="0.1599" stop-color="#BFAB8D"/>
<stop offset="0.5078" stop-color="#E7E1D2"/>
<stop offset="0.7297" stop-color="#CCBFA6"/>
</linearGradient>
<linearGradient id="paint2_linear_85_9854" x1="-5.09342" y1="32.7027" x2="28.1916" y2="32.7985" gradientUnits="userSpaceOnUse">
<stop stop-color="#94938C"/>
<stop offset="0.2296" stop-color="#EDEBE1"/>
<stop offset="0.7988" stop-color="#EDEBE1"/>
<stop offset="1" stop-color="#94938C"/>
</linearGradient>
</defs>
</svg>
