<svg width="24" height="43" viewBox="0 0 24 43" fill="none" xmlns="http://www.w3.org/2000/svg">
<path d="M18.9689 2.93954C19.5024 1.2038 17.8856 0.387192 16.5088 1.35306C13.8472 3.21991 12.4581 6.38472 11.2455 9.2873C10.6839 10.6315 8.19474 15.3275 9.77617 16.5919C11.3453 17.8463 17.0019 15.969 17.0731 12.8654C17.1117 11.1814 17.0563 9.48737 17.2818 7.81378C17.5267 5.99547 18.4459 4.6399 18.9689 2.93954Z" fill="url(#paint0_linear_85_9866)"/>
<path d="M3.17644 26.8636C2.21422 20.5559 2.22963 12.9451 5.03328 7.10735C5.68475 5.75043 6.57167 4.5092 7.62826 3.43764C8.04291 3.01709 10.5131 0.491986 11.0321 1.11351C11.5615 1.74728 11.0829 3.16363 10.989 3.86817C10.8321 5.04725 10.6832 6.22724 10.5603 7.4104C10.3112 9.81076 9.69106 12.4116 10.3398 14.8002C10.4827 15.326 10.813 15.8459 11.3311 16.0142C11.6046 16.1031 11.9027 16.085 12.1835 16.0242C13.961 15.639 15.2471 13.847 16.34 12.5323C17.9029 10.6528 18.7998 8.5414 19.5805 6.24358C19.9598 5.12756 20.3935 4.04329 21.3466 3.29973C21.5762 3.12053 22.0394 2.70497 22.3933 2.78981C23.5583 3.06836 23.1559 6.21136 23.1137 6.92588C22.787 12.4824 20.4992 19.9997 20.4992 19.9997C20.4992 19.9997 19.5188 26.2094 20.4992 28.1706C21.4791 30.1323 4.48345 30.1323 3.17644 26.8636Z" fill="url(#paint1_linear_85_9866)"/>
<path d="M2.1965 27.8439C2.19696 27.8435 4.81137 24.9023 10.6944 24.9023C16.5775 24.9023 20.8265 26.8636 21.8068 29.4781C22.7872 32.0926 23.1143 39.2832 19.519 40.5907C18.3817 41.0044 17.1314 41.107 16.1061 40.3738C15.2292 39.7469 14.8826 38.5945 13.5638 39.0219C12.989 39.2079 12.515 39.6112 12.0278 39.9687C9.88558 41.5402 6.24496 43.1702 3.80518 41.3152C0.469873 38.7792 -0.707826 31.1117 2.1965 27.8439Z" fill="url(#paint2_linear_85_9866)"/>
<path d="M3.78223 38.6381C3.52319 38.4031 3.31223 38.1028 3.16615 37.7249C2.60587 36.2722 2.11544 34.7742 2.00611 33.2268C1.92898 32.1348 2.0519 31.0124 2.45884 29.9871C2.88212 28.9201 3.57853 28.0137 3.82804 26.87C3.97458 26.1986 3.97046 25.5058 3.96547 24.8194C3.93417 20.2528 3.42198 15.3904 4.46996 10.9037C5.02071 8.54595 6.14671 6.50218 7.60571 4.56956C8.16463 3.82963 8.27354 2.97083 8.87465 2.26266C9.01256 2.10024 9.50978 1.5132 9.82735 1.38073C10.1449 1.24826 10.5401 0.925708 10.5079 1.24826C10.1127 5.22239 9.10237 10.8492 9.55422 14.8174C9.60095 15.2276 9.86773 16.6149 11.6874 16.7224C13.507 16.8299 14.4892 15.5016 15.7141 14.1224C17.541 12.065 18.8499 9.56897 19.8443 7.05838C20.117 6.37016 21.1754 2.84064 22.1217 2.70272C22.7115 2.61653 22.7006 3.6223 22.6656 4.33501C22.5472 6.74943 22.427 9.19651 21.7492 11.5361C21.047 13.96 20.3701 16.3218 19.8706 18.8038C19.3439 21.4196 18.7954 25.206 20.4078 27.5192C22.5763 30.6314 22.501 35.9878 19.049 38.2452C18.5695 38.5587 18.1793 38.5937 17.713 38.2765C16.675 37.5702 15.524 37.0217 14.3141 36.656C13.9543 36.5476 13.5819 36.4542 13.2058 36.4737C12.504 36.5104 11.9296 37.1269 11.3666 37.4926C10.6748 37.9417 9.95298 38.3532 9.18991 38.6771C7.65016 39.3318 5.09741 39.8299 3.78223 38.6381Z" fill="#FCF2D9"/>
<path d="M9.27177 1.41797C9.27177 1.41797 8.31504 5.85753 7.48486 8.36902C6.65469 10.8805 5.7197 24.8239 6.54988 27.6398C7.38006 30.4557 16.2666 30.7129 16.9838 29.0008C17.701 27.2887 18.9345 18.2036 18.9345 18.2036C18.9345 18.2036 20.4315 11.7615 20.9306 9.99223C21.4296 8.22294 22.7828 3.09199 22.4276 2.41603C22.4276 2.41603 19.6603 11.1264 19.9779 10.083C20.2954 9.03954 17.261 15.4299 16.9838 16.026C16.4177 17.2436 14.7265 18.4903 12.0844 18.5665C9.44234 18.6427 8.77638 17.1293 8.58767 16.026C8.39895 14.9227 8.38943 8.92839 8.6158 7.74886L9.27177 1.41797Z" fill="white"/>
<defs>
<linearGradient id="paint0_linear_85_9866" x1="12.4326" y1="17.4879" x2="19.6436" y2="-17.9318" gradientUnits="userSpaceOnUse">
<stop offset="0.1599" stop-color="#BFAB8D"/>
<stop offset="0.5078" stop-color="#E7E1D2"/>
<stop offset="0.7297" stop-color="#CCBFA6"/>
</linearGradient>
<linearGradient id="paint1_linear_85_9866" x1="-2.34285" y1="15.209" x2="22.5946" y2="15.2991" gradientUnits="userSpaceOnUse">
<stop offset="0.1599" stop-color="#BFAB8D"/>
<stop offset="0.5078" stop-color="#E7E1D2"/>
<stop offset="0.7297" stop-color="#CCBFA6"/>
</linearGradient>
<linearGradient id="paint2_linear_85_9866" x1="-4.66442" y1="33.4744" x2="27.8945" y2="33.592" gradientUnits="userSpaceOnUse">
<stop stop-color="#94938C"/>
<stop offset="0.2296" stop-color="#EDEBE1"/>
<stop offset="0.7988" stop-color="#EDEBE1"/>
<stop offset="1" stop-color="#94938C"/>
</linearGradient>
</defs>
</svg>
