<svg width="29" height="51" viewBox="0 0 29 51" fill="none" xmlns="http://www.w3.org/2000/svg">
<path d="M19.6039 1.16115C20.9169 1.25053 21.9304 1.63572 23.0083 2.37615C23.3 2.57669 23.5763 2.8185 23.5186 3.10524C23.2501 4.44456 13.3746 3.36839 13.4694 2.19377C13.5284 1.49598 16.7399 1.30906 17.459 1.23147C18.2701 1.14346 18.972 1.11805 19.6039 1.16115Z" fill="#D8D6D0"/>
<path d="M9.4331 46.5305C8.7576 48.6944 10.3527 49.5773 11.8343 48.2952C14.6988 45.8164 16.3565 41.8401 17.8145 38.1977C18.4896 36.511 21.388 30.5799 19.8628 29.1463C18.3494 27.7236 12.4168 30.4324 12.1129 34.2386C11.9478 36.3032 11.8788 38.3737 11.5236 40.4392C11.1375 42.6839 10.0955 44.4101 9.4331 46.5305Z" fill="url(#paint0_linear_85_9948)"/>
<path d="M26.2114 21.2587C26.0236 22.0331 25.8571 22.8212 25.8203 22.9736C25.505 24.2815 25.2315 25.5999 25.0119 26.9273C24.8327 28.0121 24.6893 29.1032 24.5827 30.1974C24.4793 31.2581 24.5696 32.4258 24.3677 33.4657C24.1685 34.4905 23.8033 35.5657 23.4581 36.5556C22.4214 39.5285 20.8513 42.295 18.9867 44.8238C18.0512 46.0923 17.0396 47.304 15.9716 48.4632C15.3156 49.1754 13.921 51.2841 12.7619 50.408C12.3269 50.0791 12.1522 49.4925 12.1803 48.9477C12.2085 48.4028 12.4081 47.8838 12.5972 47.3721C14.0544 43.4238 15.4399 38.535 14.6206 34.2991C14.5353 33.8576 14.4019 33.4017 14.0853 33.0828C13.6702 32.6649 13.0056 32.571 12.4376 32.7275C11.8696 32.8841 11.385 33.2556 10.9622 33.6657C9.51094 35.0744 8.47975 37.0547 7.59283 38.8557C6.9214 40.2195 6.42826 41.6726 6.14472 43.1665C5.87343 44.5965 6.10389 46.296 5.52954 47.6379C5.20789 48.3901 4.49064 49.0348 3.67313 49.0112C3.03664 48.9931 2.47317 48.5834 2.05353 48.1043C0.507424 46.3391 0.211185 43.5263 0.120905 41.2756C0.00748807 38.4393 0.411257 35.6129 0.850862 32.8187C1.44925 29.0147 2.21821 25.2365 3.07701 21.4833C3.11012 21.3376 3.57741 18.9699 3.67177 18.9727C3.67177 18.9727 26.5467 19.6074 26.7567 19.6132C26.6392 19.611 26.4133 20.4271 26.2114 21.2587Z" fill="url(#paint1_linear_85_9948)"/>
<path d="M8.31203 0.987036C9.49793 0.91944 10.4633 1.17848 11.5426 1.78049C11.8348 1.94335 12.1197 2.14932 12.1138 2.4383C12.087 3.79021 3.10296 3.90136 3.00088 2.73227C2.94281 2.03726 5.77917 1.47201 6.40841 1.31005C7.11886 1.12813 7.74086 1.0197 8.31203 0.987036Z" fill="#D8D6D0"/>
<path d="M24.2535 2.0369C25.2066 2.13217 26.1044 2.49919 26.8779 3.30581C27.8746 4.34516 28.3737 5.78692 28.4971 7.22142C28.7616 10.2991 28.2348 13.9593 27.4659 16.9408C27.2218 17.8871 27.1973 19.876 26.5477 20.6064C24.5261 22.8788 20.0843 21.7733 17.3963 21.5868C14.3177 21.3731 11.0032 21.271 8.24496 20.6064C6.41895 20.5148 3.06591 20.919 2.51153 18.5041C1.8764 15.7363 1.48534 12.9059 1.35468 10.0691C1.25669 7.94956 0.947289 2.71241 3.99411 2.30366C4.44006 2.24377 5.1927 2.74643 5.63956 2.84806C6.57184 3.05947 7.48144 3.03089 8.40692 2.785C9.54517 2.48286 10.6022 1.93846 11.6933 1.49523C11.9305 1.39905 12.1773 1.30605 12.4332 1.31285C13.0162 1.32873 13.4444 1.83366 13.9108 2.18389C15.8738 3.65922 19.3924 2.89388 21.5596 2.32725C22.4697 2.08952 23.3847 1.95025 24.2535 2.0369Z" fill="url(#paint2_linear_85_9948)"/>
<path d="M21.7274 36.1381C21.0918 37.9432 19.9803 39.4607 18.9727 41.1193C18.6011 41.7308 15.6033 47.4896 14.8946 46.2543C14.7581 46.0161 14.7957 45.7285 14.8425 45.4627C15.6196 41.0227 17.6221 36.4121 15.5035 31.9925C15.2548 31.4744 14.9396 30.9713 14.4809 30.5925C13.3013 29.6185 11.5701 30.0558 10.435 30.8629C7.53971 32.9221 6.44546 36.2315 5.3004 39.2806C4.74419 40.7618 4.21839 42.4948 3.21396 43.7832C2.02035 45.3148 1.62475 43.3595 1.49001 42.3147C1.10031 39.2937 1.08035 36.2297 1.4696 33.2074C1.73409 31.1555 2.05846 29.0895 2.74577 27.1156C3.37683 25.3033 4.63577 23.6419 4.84038 21.7189C5.19969 18.3377 1.49001 11.2211 4.26195 8.8539C5.33624 8.37755 6.57657 8.28364 7.73434 8.09038C9.71008 7.76102 11.7344 7.71747 13.7355 7.82771C16.776 7.99511 21.4266 7.89712 23.582 10.1074C25.3323 11.9021 24.9403 14.4716 24.7007 16.7885C24.3773 19.9187 23.4636 23.2745 23.1505 26.4057C22.8511 29.398 22.7323 32.5537 21.9352 35.4744C21.8735 35.7007 21.8041 35.9217 21.7274 36.1381Z" fill="#FCF2D9"/>
<path d="M13.281 50.6773C13.281 50.6773 17.7587 44.2861 18.7251 41.2864C19.6914 38.2868 20.8619 19.4596 19.8592 16.1079C18.8566 12.7567 9.12806 12.7912 8.29058 14.8377C7.4531 16.8842 5.13892 29.9801 5.13892 29.9801C5.13892 29.9801 3.91989 35.4369 3.5007 40.4694C3.15273 44.6445 4.1744 48.3115 4.59995 49.1149C4.59995 49.1149 3.79832 44.8645 4.34908 40.2834C4.87715 35.8905 7.33152 31.7916 7.65544 31.0794C8.31735 29.624 10.2436 27.7858 13.3717 27.6769C16.4998 27.568 17.9044 31.9427 18.1353 33.257C18.3662 34.5713 17.1703 41.467 16.9104 42.8747L13.281 50.6773Z" fill="white"/>
<defs>
<linearGradient id="paint0_linear_85_9948" x1="17.1894" y1="28.2441" x2="9.42807" y2="72.5353" gradientUnits="userSpaceOnUse">
<stop offset="0.1599" stop-color="#BFAB8D"/>
<stop offset="0.5078" stop-color="#E7E1D2"/>
<stop offset="0.7297" stop-color="#CCBFA6"/>
</linearGradient>
<linearGradient id="paint1_linear_85_9948" x1="24.1696" y1="34.7392" x2="1.6425" y2="34.8206" gradientUnits="userSpaceOnUse">
<stop stop-color="#BFAB8D"/>
<stop offset="0.5078" stop-color="#E7E1D2"/>
<stop offset="1" stop-color="#CCBFA6"/>
</linearGradient>
<linearGradient id="paint2_linear_85_9948" x1="34.2724" y1="11.6053" x2="-4.57301" y2="11.7457" gradientUnits="userSpaceOnUse">
<stop stop-color="#94938C"/>
<stop offset="0.2296" stop-color="#EDEBE1"/>
<stop offset="0.7988" stop-color="#EDEBE1"/>
<stop offset="1" stop-color="#94938C"/>
</linearGradient>
</defs>
</svg>
