<svg width="25" height="42" viewBox="0 0 25 42" fill="none" xmlns="http://www.w3.org/2000/svg">
<path d="M7.79688 38.9689C7.79688 38.9689 10.2463 42.5572 13.9691 40.1136C17.6919 37.67 9.71682 37.2785 7.79688 38.9689Z" fill="#D8D6D0"/>
<path d="M10.7066 3.54215C10.1849 1.80279 8.38698 2.02282 7.77952 3.59115C6.60498 6.62255 7.20972 10.0255 7.81491 13.1127C8.09528 14.5422 8.63695 19.8297 10.6544 20.0016C12.656 20.1722 16.3148 15.4668 14.6485 12.8473C13.7448 11.426 12.7567 10.0486 12.0136 8.53248C11.2065 6.88385 11.217 5.24657 10.7066 3.54215Z" fill="url(#paint0_linear_85_9860)"/>
<path d="M21.1748 26.8363C21.1095 26.8731 20.9003 26.4067 20.713 26.4271C20.4685 26.4539 20.1636 26.3681 19.9191 26.3436C19.0743 26.2588 18.2282 26.1848 17.3817 26.1213C15.0294 25.9449 12.6672 25.8378 10.3081 25.8859C8.66723 25.9194 7.00138 26.0075 5.39222 26.3509C4.39824 26.5632 3.09032 26.879 2.48286 27.7827C2.48286 27.7827 3.85066 22.2661 2.86847 18.0174C1.88674 13.7688 0.575196 2.32959 3.19013 2.00204C4.83376 1.79607 6.07408 5.61822 6.5028 6.68117C7.64059 9.50118 8.53205 12.5144 9.33912 15.4769C9.3618 15.5595 9.38493 15.6443 9.43529 15.7133C9.87671 16.3234 11.4092 16.5657 12.0008 16.157C12.4962 15.8149 12.6182 15.1471 12.699 14.5505C12.8419 13.4912 12.9848 12.4319 13.1277 11.3726C13.4675 8.85516 13.8095 6.32186 13.7483 3.77587C13.7315 3.07677 12.9335 -0.483165 14.6293 0.363834C17.4779 1.78699 19.1034 5.72484 19.8955 8.55165C20.9652 12.3706 21.0065 16.4577 21.1553 20.3965C21.2238 22.2021 21.3141 24.0322 21.1975 25.8382C21.1744 26.1916 21.2687 26.7837 21.1748 26.8363Z" fill="url(#paint1_linear_85_9860)"/>
<path d="M20.0771 25.6844C19.2001 25.0774 18.0251 25.0053 17.0066 24.8016C15.4728 24.4953 13.9249 24.2399 12.362 24.1455C8.91638 23.9382 5.12735 24.5715 2.81228 27.3752C1.99659 28.3633 1.4227 29.546 1.13598 30.7936C0.812971 32.1986 1.07428 33.1055 1.52205 34.4321C1.93262 35.6484 2.4684 36.9649 3.1303 38.066C3.84801 39.2596 4.99533 40.2935 6.43845 40.2717C8.00088 40.2481 9.52884 39.6366 10.5718 38.4511C10.6267 38.389 10.683 38.3227 10.7601 38.2919C10.8522 38.2547 10.9561 38.2742 11.0522 38.296C13.1532 38.7764 15.26 40.1497 17.1981 41.0774C18.1245 41.5211 18.6544 41.6559 19.5921 41.1627C20.7621 40.5476 21.8768 39.7913 22.7428 38.7928C25.3047 35.8385 24.3266 31.6429 22.4516 28.5979C21.86 27.637 21.1264 26.5228 20.2399 25.8055C20.1873 25.7633 20.1329 25.723 20.0771 25.6844Z" fill="url(#paint2_linear_85_9860)"/>
<path d="M16.0642 2.84612C20.9057 9.09313 18.818 17.2837 20.1064 24.4312C20.2398 25.1716 20.4385 25.8035 20.7878 26.4795C21.6293 28.1086 22.5743 29.5549 22.6369 31.424C22.7109 33.6316 21.7291 35.6704 20.1091 37.2237C20.007 37.3213 19.9 37.4188 19.7684 37.4764C19.6132 37.544 19.4377 37.5504 19.2671 37.5531C16.8495 37.5871 14.3793 37.0518 12.2861 35.8845C11.6914 35.5529 11.2218 35.1382 10.5205 34.9785C10.0881 34.8801 9.60541 34.905 9.23658 35.1405C8.97164 35.3097 8.78837 35.5697 8.56154 35.7829C7.21779 37.0468 4.90546 36.1662 3.85387 34.9758C3.08218 34.1025 2.69385 32.9656 2.59268 31.8296C2.41348 29.8208 3.09443 27.8528 3.31854 25.8702C3.7713 21.8666 3.52542 17.9378 3.07493 13.951C2.76825 11.2381 2.23882 8.34821 2.45794 5.6144C2.4652 5.52276 2.47292 5.43157 2.48744 5.34084C2.57862 4.76423 2.61129 1.06684 3.66696 1.98098C3.83346 2.12525 4.33884 3.81425 4.43456 4.00797C5.22938 5.61305 5.63132 7.41411 6.24513 9.08814C6.89251 10.8529 7.12207 12.5596 7.88558 14.2817C8.4699 15.5996 9.49291 17.9388 11.2427 17.412C11.9182 17.2088 12.865 15.9145 13.3749 14.3725C14.27 11.6672 14.5091 8.08281 14.5091 7.45176C14.5091 6.48272 14.5993 5.50961 14.6629 4.5433C14.7286 3.54115 13.541 0.214844 14.2822 0.214844C15.0226 0.213937 15.7249 2.40878 16.0642 2.84612Z" fill="#FCF2D9"/>
<path d="M15.1277 0.367188C15.1277 0.367188 16.216 4.8975 17.1315 7.409C18.047 9.9205 19.5078 24.7713 18.5923 27.5872C17.6768 30.4031 7.81456 30.1613 7.02381 28.4492C6.23307 26.737 4.93013 16.9496 4.93013 16.9496C4.93013 16.9496 4.32448 12.868 3.90756 8.64888C3.56141 5.14884 3.87218 2.06118 4.26369 1.38567C4.26369 1.38567 4.21651 4.94196 4.75366 8.7818C5.26857 12.4638 6.14007 15.4489 6.44584 16.045C7.07009 17.2627 8.59259 19.3845 11.5051 19.4607C14.4181 19.5369 15.7084 16.1693 15.9162 15.0655C16.1239 13.9618 16.1348 7.96792 15.8853 6.78839L15.1277 0.367188Z" fill="white"/>
<defs>
<linearGradient id="paint0_linear_85_9860" x1="13.3653" y1="19.2807" x2="-0.332917" y2="-14.1702" gradientUnits="userSpaceOnUse">
<stop offset="0.1599" stop-color="#BFAB8D"/>
<stop offset="0.5078" stop-color="#E7E1D2"/>
<stop offset="0.7297" stop-color="#CCBFA6"/>
</linearGradient>
<linearGradient id="paint1_linear_85_9860" x1="2.33135" y1="16.2908" x2="20.0192" y2="12.9294" gradientUnits="userSpaceOnUse">
<stop offset="0.1599" stop-color="#BFAB8D"/>
<stop offset="0.5078" stop-color="#E7E1D2"/>
<stop offset="0.7297" stop-color="#CCBFA6"/>
</linearGradient>
<linearGradient id="paint2_linear_85_9860" x1="29.5511" y1="32.7496" x2="-3.73417" y2="32.8453" gradientUnits="userSpaceOnUse">
<stop stop-color="#94938C"/>
<stop offset="0.2296" stop-color="#EDEBE1"/>
<stop offset="0.7988" stop-color="#EDEBE1"/>
<stop offset="1" stop-color="#94938C"/>
</linearGradient>
</defs>
</svg>
