<svg width="16" height="66" viewBox="0 0 16 66" fill="none" xmlns="http://www.w3.org/2000/svg">
<path d="M13.0268 24.6992C13.0273 32.2333 14.562 39.7135 14.9123 47.2421C15.0552 50.3107 15.2915 53.3785 15.2471 56.4525C15.2121 58.8892 15.3986 62.9527 13.8793 65.0278C13.2359 65.9043 11.3323 62.0023 11.1504 61.6276C10.0112 59.2816 9.30351 56.7878 8.42338 54.3398C7.45297 51.64 6.46351 48.9234 5.66822 46.1651C4.60707 42.4849 4.00232 38.6519 3.32635 34.8869C3.22064 34.2971 2.29696 26.7153 1.91406 26.6609C1.91769 26.6609 11.066 27.967 13.0268 24.6992Z" fill="url(#paint0_linear_85_9882)"/>
<path d="M0.419115 0.660546C0.567917 0.524901 0.830592 0.496319 1.31692 0.45549C2.06094 0.393338 2.83398 0.447782 3.57981 0.449143C6.61983 0.455041 9.65984 0.514922 12.6999 0.514922C12.6999 0.514922 15.6414 1.16865 15.3148 2.80274C14.9882 4.43683 14.0073 24.701 13.027 26.0085C12.0466 27.3159 9.75874 31.5649 4.85597 30.2575C-0.046356 28.95 0.934009 17.5114 0.934009 17.5109C1.0633 15.439 0.542506 13.144 0.401415 11.073C0.191821 7.99809 0.0126257 4.89639 0.188648 1.81511C0.226756 1.13961 0.240824 0.823411 0.419115 0.660546Z" fill="url(#paint1_linear_85_9882)"/>
<path d="M1.78172 4.14738C1.82164 4.09339 1.86973 4.04485 1.92735 4.00357C2.14238 3.84932 2.4282 3.85069 2.69269 3.85794C4.13444 3.89696 5.5762 3.93642 7.0175 3.97544C8.30773 4.01037 10.1147 3.72775 11.3455 4.09295C12.2265 4.35472 11.8804 3.95276 12.2338 4.6868C12.4742 5.18629 12.2297 6.43161 12.2292 6.9987C12.2292 9.23892 12.2542 11.4719 12.0809 13.7066C11.5923 20.0081 11.8559 26.526 12.3726 32.8891C12.8843 39.1915 14.0589 45.5837 14.1119 51.9052C14.1455 55.8838 15.6471 61.4354 13.6923 65.1242C11.8568 64.1515 11.2049 60.1334 10.846 58.2642C10.3547 55.7019 10.1623 53.0892 9.62382 50.536C8.28279 44.1801 6.74485 37.8655 5.01366 31.6044C2.6682 23.1239 1.91375 13.899 1.59709 5.106C1.58529 4.77618 1.59572 4.40007 1.78172 4.14738Z" fill="#FCF2D9"/>
<path d="M5.16883 9.24444C4.95516 10.2616 5.46052 15.2111 5.66602 16.7318C5.96089 18.9135 8.32846 32.0413 8.99895 36.5058C9.86224 42.2502 10.716 48.0027 11.5053 53.7811C11.6759 55.03 13.016 65.5216 13.2414 65.1763C13.3168 65.0874 13.3485 65.1591 13.3485 64.9236C13.3481 61.1854 12.9847 56.9808 12.6354 52.9917C12.1255 47.1689 11.7099 41.38 11.2631 35.5831C10.9519 31.5463 10.1508 20.015 9.87359 18.0193C9.59006 15.9782 8.95041 10.4689 8.53941 9.60374C8.08213 8.6406 7.31956 7.94696 6.92671 8.07853C6.41998 8.2482 5.38249 8.22732 5.16883 9.24444Z" fill="white"/>
<defs>
<linearGradient id="paint0_linear_85_9882" x1="2.99511" y1="44.8901" x2="19.3006" y2="44.949" gradientUnits="userSpaceOnUse">
<stop stop-color="#BFAB8D"/>
<stop offset="0.5078" stop-color="#E7E1D2"/>
<stop offset="1" stop-color="#CCBFA6"/>
</linearGradient>
<linearGradient id="paint1_linear_85_9882" x1="-2.1378" y1="15.4416" x2="17.4052" y2="15.5122" gradientUnits="userSpaceOnUse">
<stop stop-color="#94938C"/>
<stop offset="0.2296" stop-color="#EDEBE1"/>
<stop offset="0.7988" stop-color="#EDEBE1"/>
<stop offset="1" stop-color="#94938C"/>
</linearGradient>
</defs>
</svg>
