<svg width="19" height="53" viewBox="0 0 19 53" fill="none" xmlns="http://www.w3.org/2000/svg">
<path d="M3.61719 21.4502C3.61719 21.4502 9.82695 46.9442 15.0563 51.1928C20.2857 55.4418 17.6713 46.9437 17.6713 46.9437C17.6713 46.9437 15.7101 31.2554 15.7101 28.3138C15.7101 25.3722 16.7499 19.8633 16.7499 19.8633C16.7499 19.8633 6.67806 22.0318 3.61719 21.4502Z" fill="url(#paint0_linear_85_9916)"/>
<path d="M3.29162 2.16513C3.29162 2.16513 0.0233952 3.79925 1.00377 8.37496C1.98415 12.9507 1.65751 15.5656 1.65751 15.5656C1.65751 15.5656 2.31124 23.41 7.86731 23.7367C13.4238 24.0633 17.0187 20.7951 17.3458 18.8339C17.6724 16.8727 17.6724 11.3166 17.9995 10.3357C18.3262 9.35534 19.307 3.14506 16.0383 2.16468C12.7701 1.1843 10.8089 0.8572 10.8089 0.8572C10.8089 0.8572 7.54022 -0.123177 3.29162 2.16513Z" fill="url(#paint1_linear_85_9916)"/>
<path d="M16.8989 52.3229C16.8989 52.3229 6.03684 25.2365 5.61221 22.446C5.18804 19.6554 0.425482 5.8493 4.40139 5.06264C8.3773 4.27597 10.8239 4.71332 13.183 4.62576C15.542 4.5382 16.5909 5.2373 16.3287 6.11108C16.0664 6.98485 16.3287 16.4221 15.2803 19.3932C14.2318 22.3643 15.8369 45.6236 16.536 47.1964C18.4214 52.2984 17.8602 52.5852 16.8989 52.3229Z" fill="#FCF2D9"/>
<path d="M10.2367 7.5365C10.7071 8.27234 11.5111 12.2718 11.7102 13.5149C11.9956 15.2973 13.1425 26.1835 13.6615 29.8491C14.3294 34.5658 14.6025 39.5743 15.3502 44.2978C15.5117 45.3186 17.9806 52.6784 17.6739 52.4697C17.5787 52.4207 14.9682 46.9885 14.264 43.7811C13.2364 39.0988 12.3277 34.3866 11.2466 29.7415C10.4939 26.5069 8.25861 17.2903 8.00455 15.658C7.74504 13.9885 6.92385 9.51584 7.09308 8.72918C7.28136 7.85407 7.83303 7.10642 8.24453 7.10234C8.77534 7.09735 9.76665 6.80066 10.2367 7.5365Z" fill="white"/>
<defs>
<linearGradient id="paint0_linear_85_9916" x1="16.8764" y1="36.1234" x2="5.32" y2="36.1652" gradientUnits="userSpaceOnUse">
<stop stop-color="#BFAB8D"/>
<stop offset="0.5078" stop-color="#E7E1D2"/>
<stop offset="1" stop-color="#CCBFA6"/>
</linearGradient>
<linearGradient id="paint1_linear_85_9916" x1="21.6747" y1="12.1575" x2="-2.49217" y2="12.2448" gradientUnits="userSpaceOnUse">
<stop stop-color="#94938C"/>
<stop offset="0.2296" stop-color="#EDEBE1"/>
<stop offset="0.4283" stop-color="#EDEBE1"/>
<stop offset="0.7988" stop-color="#EDEBE1"/>
<stop offset="1" stop-color="#94938C"/>
</linearGradient>
</defs>
</svg>
