<svg width="26" height="51" viewBox="0 0 26 51" fill="none" xmlns="http://www.w3.org/2000/svg">
<path d="M10.7574 2.23963C10.7574 2.23963 9.85145 0.18542 8.01725 0.69988C6.18305 1.21434 5.54926 6.00824 5.88135 9.54232C6.21299 13.0764 7.78497 24.2893 10.4875 24.5202C13.19 24.7511 18.1323 18.4002 15.8839 14.862C13.6351 11.3243 9.91496 5.11407 10.7574 2.23963Z" fill="url(#paint0_linear_85_9847)"/>
<path d="M22.5807 32.6902C19.3819 32.4597 15.7522 30.8959 12.5475 30.7694C10.5373 30.69 8.52625 30.557 6.5138 30.6215C5.58334 30.6509 4.19921 33.1316 3.29733 33.0168C2.7121 32.9424 3.09818 30.5389 3.12222 29.9169C3.14264 29.3875 3.18755 28.8603 3.10997 28.3327C2.83142 26.4309 1.78527 24.6253 1.35021 22.7236C0.846646 20.5238 0.506401 18.2813 0.297263 16.0347C0.0754219 13.6516 -0.0180361 11.2173 0.29363 8.83733C0.427914 7.81114 0.611193 6.76906 1.01858 5.81137C1.33569 5.066 2.10465 3.60293 3.08729 3.71498C3.44795 3.75627 3.77096 3.96133 4.04089 4.20494C4.56986 4.68265 4.93823 5.3187 5.18184 5.98876C5.68405 7.37108 5.67316 8.85956 5.76979 10.3077C5.86959 11.8007 6.27653 13.1834 6.61133 14.6325C7.23285 17.325 7.96688 20.4938 9.73072 22.7009C10.1599 23.238 10.805 23.6727 11.4896 23.6078C11.8407 23.5742 12.1687 23.4127 12.4554 23.2072C13.4884 22.4664 14.0137 21.1879 14.1929 19.9295C14.5599 17.3508 14.2837 14.5063 13.5946 12.0066C13.1903 10.5395 12.4436 9.22567 11.9872 7.79117C11.505 6.27457 10.8508 3.26586 12.9889 2.68834C13.8518 2.45516 14.7705 2.89612 15.4156 3.51492C17.8073 5.8082 19.4228 9.21749 20.806 12.1736C21.6543 13.986 22.4732 15.8596 22.9954 17.7968C23.3093 18.9613 23.2757 20.1218 23.2426 21.3245C23.1496 24.6861 22.9545 29.3566 22.5807 32.6902Z" fill="url(#paint1_linear_85_9847)"/>
<path d="M3.63816 34.8576C3.36596 34.9406 2.97581 35.6801 2.82474 35.8928C2.22636 36.7371 1.70827 37.6458 1.32039 38.6066C0.275146 41.1957 0.42667 44.0351 2.3874 46.156C2.41054 46.1809 2.43413 46.2059 2.45727 46.2309C2.56297 46.342 2.67321 46.4504 2.75941 46.577C3.00121 46.9322 3.05883 47.3772 3.28793 47.7415C3.50433 48.0859 3.82234 48.408 4.13038 48.6679C4.85578 49.2804 5.82209 49.7059 6.78703 49.6106C7.11866 49.578 7.43487 49.46 7.74654 49.343C9.09981 48.8349 10.5692 48.2555 11.2869 46.9118C11.2053 47.0651 11.5777 47.6889 11.6716 47.8159C11.8966 48.1217 12.1725 48.2546 12.5204 48.3889C13.6696 48.833 14.9203 49.1896 16.0218 49.7404C16.7831 50.0334 17.4254 50.312 18.1998 50.0579C18.6508 49.91 19.1076 49.7803 19.5536 49.617C20.3883 49.3117 21.777 48.7773 21.777 47.6944C21.777 46.0199 23.1725 40.997 19.8235 35.974C16.4759 30.9529 3.64859 34.8544 3.63816 34.8576Z" fill="#D8D6D0"/>
<path d="M3.62149 30.7304C3.30256 30.8275 2.84526 31.694 2.66879 31.9431C1.96787 32.932 1.36132 33.9964 0.906743 35.1215C-0.31771 38.1542 -0.139881 41.4801 2.15614 43.9635C2.18336 43.9925 2.21103 44.022 2.23825 44.051C2.36211 44.1812 2.49095 44.3083 2.59212 44.4566C2.87566 44.8731 2.9428 45.3934 3.21092 45.8208C3.46407 46.2236 3.83653 46.6011 4.19765 46.906C5.04737 47.6232 6.17928 48.1213 7.30891 48.0102C7.69725 47.9721 8.06745 47.8337 8.43265 47.6967C10.0178 47.1019 11.739 46.4228 12.5796 44.849C12.4839 45.0282 12.9204 45.7591 13.0301 45.9083C13.2937 46.2663 13.6172 46.4219 14.0241 46.5793C15.3702 47.0997 16.8351 47.517 18.1253 48.1622C19.0167 48.5056 19.7689 48.8318 20.6763 48.5342C21.2044 48.3609 21.7397 48.2089 22.2619 48.0179C23.2395 47.6604 24.8664 47.0344 24.8664 45.7659C24.8664 43.8047 26.5005 37.9215 22.5785 32.0383C18.6579 26.157 3.63374 30.7268 3.62149 30.7304Z" fill="url(#paint2_linear_85_9847)"/>
<path d="M15.3652 4.70079C16.479 6.3544 17.7107 8.98249 18.6861 10.7101C19.3525 11.8905 20.0162 13.0972 20.4794 14.3625C21.1518 16.1989 21.159 18.3457 21.2883 20.2706C21.4403 22.5335 21.4902 24.8118 21.4902 27.0792C21.4902 29.4482 21.8477 29.7899 21.8477 29.7899C21.8477 29.7899 25.2103 40.5317 22.6697 43.197C20.1292 45.8623 13.1881 41.4205 13.1881 41.4205C13.1881 41.4205 11.1012 41.9281 9.64945 42.6894C8.19771 43.4506 6.24693 43.9583 4.97666 42.7738C3.70639 41.5892 1.34731 38.4589 1.43805 37.528C1.52878 36.5976 2.61758 31.8173 3.61566 29.9559C4.61373 28.0945 2.98052 24.4144 2.61758 22.2145C2.25465 20.0147 0.530708 13.0346 0.893643 10.5812C1.25658 8.12778 1.52878 3.51672 2.98052 3.60111C5.11276 3.68549 4.16006 8.04295 4.43226 9.65028C4.70446 11.2576 6.2923 20.2502 7.01817 21.3503C7.74404 22.4505 10.285 24.8018 11.3734 24.7224C12.4617 24.643 15.774 23.0184 15.5018 18.8302C15.2296 14.642 13.1881 7.49311 12.9159 6.60438C12.7707 6.12985 12.0938 4.02937 12.3261 3.05081C12.4068 2.71057 12.9803 2.67518 13.2334 2.628C13.615 2.55632 14.231 2.79721 15.3652 4.70079Z" fill="#FCF2D9"/>
<path d="M14.0946 2.1875C14.0946 2.1875 17.4064 9.40082 18.4044 12.395C19.4025 15.3892 21.3533 31.1769 20.3552 34.534C19.3572 37.8912 8.42364 38.2088 7.56166 36.1672C6.69968 34.1257 5.24793 22.9201 5.24793 22.9201C5.24793 22.9201 3.97901 17.4707 3.52397 12.4404C3.14652 8.26756 3.51581 4.45266 3.94317 3.64695C3.94317 3.64695 3.80071 8.0439 4.38595 12.6219C4.9476 17.0116 6.23059 21.5746 6.56358 22.285C7.24409 23.7367 9.24025 25.8236 12.416 25.9143C15.5917 26.0051 17.4517 21.9674 17.6786 20.6518C17.9054 19.3362 16.4537 11.1248 16.1815 9.71839L14.0946 2.1875Z" fill="white"/>
<defs>
<linearGradient id="paint0_linear_85_9847" x1="14.2666" y1="23.4939" x2="-4.29521" y2="-21.8718" gradientUnits="userSpaceOnUse">
<stop offset="0.1599" stop-color="#BFAB8D"/>
<stop offset="0.5078" stop-color="#E7E1D2"/>
<stop offset="0.7297" stop-color="#CCBFA6"/>
</linearGradient>
<linearGradient id="paint1_linear_85_9847" x1="1.39379" y1="17.5046" x2="22.3041" y2="18.45" gradientUnits="userSpaceOnUse">
<stop offset="0.1599" stop-color="#BFAB8D"/>
<stop offset="0.5078" stop-color="#E7E1D2"/>
<stop offset="0.7297" stop-color="#CCBFA6"/>
</linearGradient>
<linearGradient id="paint2_linear_85_9847" x1="-5.63487" y1="41.17" x2="29.1878" y2="37.513" gradientUnits="userSpaceOnUse">
<stop stop-color="#94938C"/>
<stop offset="0.2296" stop-color="#EDEBE1"/>
<stop offset="0.7988" stop-color="#EDEBE1"/>
<stop offset="1" stop-color="#94938C"/>
</linearGradient>
</defs>
</svg>
