<svg width="25" height="40" viewBox="0 0 25 40" fill="none" xmlns="http://www.w3.org/2000/svg">
<path d="M15.4975 36.6687C15.7923 38.5219 14.6066 39.0128 13.6767 37.7611C11.8794 35.3417 11.0461 31.8775 10.3258 28.7132C9.99235 27.2478 8.45278 22.0202 9.63492 21.0721C10.808 20.1316 14.729 23.1726 14.6301 26.3065C14.5766 28.0064 14.456 29.6976 14.5353 31.4257C14.622 33.3034 15.2085 34.8527 15.4975 36.6687Z" fill="url(#paint0_linear_85_9972)"/>
<path d="M3.02344 13.3591C3.02344 13.3591 4.33086 16.9544 4.33086 20.8764C4.33086 24.7983 4.00425 29.7011 6.29206 33.2965C8.57988 36.8918 9.2336 38.5259 9.2336 38.5259C9.2336 38.5259 11.1948 40.8137 12.1751 38.1992C12.1751 38.1992 9.88735 30.3549 11.1948 26.4329C12.5023 22.511 13.8097 23.818 14.1363 24.4717C14.4634 25.1254 19.039 32.6427 19.6928 34.6039C20.3465 36.5651 21.3269 38.5259 21.9806 38.5259C22.6343 38.5259 23.6147 36.8918 24.2684 33.9502C24.9221 31.0086 24.2684 27.7404 22.9609 25.4521C21.6535 23.1642 20.3465 13.032 20.3465 11.3979C20.3456 9.76379 4.65753 12.7054 3.02344 13.3591Z" fill="url(#paint1_linear_85_9972)"/>
<path d="M10.5764 3.09038C10.2661 3.01688 9.94489 2.81409 9.57198 2.56866C8.55939 1.90131 7.5078 1.25756 6.33961 0.933192C5.17097 0.608819 3.85624 0.636945 2.81644 1.26074C2.08513 1.69944 1.54342 2.39446 1.09747 3.12123C0.399731 4.25858 -0.115144 5.58011 0.0449997 6.90482C0.227373 8.41554 0.826633 9.90312 1.44135 11.2832C1.81426 12.1202 2.12502 13.0752 2.7969 13.7303C3.58083 14.4942 4.89876 14.6018 5.93175 14.7465C8.15381 15.0572 10.3849 14.7787 12.5543 14.2638C14.7111 13.7516 16.94 13.1836 19.0368 12.4695C19.4138 12.3411 19.7903 12.1928 20.1061 11.9505C20.9912 11.2705 21.1731 9.72482 21.3858 8.70497C21.7089 7.15479 21.5115 5.55199 20.8773 4.10705C20.0607 2.24656 18.4992 0.604281 16.426 0.285352C14.942 0.0571572 13.6245 0.36157 12.626 1.51162C12.2953 1.8927 12.0322 2.33547 11.6747 2.69342C11.2814 3.08765 10.9361 3.17567 10.5764 3.09038Z" fill="url(#paint2_linear_85_9972)"/>
<path d="M9.17014 35.3642C9.14156 35.3061 9.11253 35.2508 9.08304 35.1986C8.69607 34.5172 8.25014 33.8712 7.87814 33.1811C6.9014 31.3696 6.68362 29.4443 6.35744 27.459C5.84344 24.3337 5.84661 21.1575 5.56579 18.0091C5.32354 15.2952 4.80774 12.5791 4.09051 9.94961C3.70489 8.53597 3.79064 7.12189 6.01857 6.82201C8.2465 6.52213 8.72327 7.41631 10.9512 7.20218C12.28 7.07425 13.4513 5.60889 14.7166 5.20603C17.3932 4.07186 19.437 6.04397 19.456 6.90049C19.4805 8.00881 19.5721 9.12393 19.3739 10.2164C19.1579 11.4082 18.903 12.5559 18.8431 13.7731C18.7497 15.679 18.9534 17.6003 19.451 19.4426C19.9927 21.4479 20.6024 23.4386 21.3741 25.368C21.8844 26.6438 22.643 27.7793 22.7428 29.1839C22.8186 30.2482 22.8131 31.3161 22.8095 32.3827C22.8077 33.0038 23.0318 34.877 22.222 35.0798C21.8917 35.1623 21.5397 34.9967 21.307 34.7481C21.0742 34.4995 20.9368 34.1792 20.8002 33.8675C19.202 30.2128 17.1537 26.7549 14.7162 23.5974C14.1391 22.8497 13.4613 22.2858 12.5463 22.8656C11.4475 23.5615 10.5343 24.8849 10.2807 26.1579C9.61021 29.5232 11.0025 32.6667 10.9485 35.9785C10.939 36.5741 10.5638 36.933 10.0189 36.6281C9.5934 36.389 9.38971 35.8088 9.17014 35.3642Z" fill="#FCF2D9"/>
<path d="M22.8519 38.527C22.8519 38.527 21.491 30.3611 21.1734 28.9093C20.8559 27.4576 17.7152 13.7316 16.4555 11.5794C15.1957 9.42719 7.81434 11.0676 7.51856 12.6228C7.22278 14.178 7.70002 24.5542 7.70002 24.5542C7.70002 24.5542 8.19088 27.9294 8.66903 31.4812C9.06552 34.4277 10.71 39.1308 11.1478 39.6158C11.1478 39.6158 9.57406 34.4726 9.26285 31.2112C8.9648 28.0841 9.16034 24.7161 9.28691 24.1695C9.54594 23.0521 10.6542 21.2755 12.9347 20.6799C15.2156 20.0842 17.2076 22.5617 17.5823 23.4327C17.957 24.3037 20.1006 28.7991 20.1296 29.8167L22.8519 38.527Z" fill="white"/>
<defs>
<linearGradient id="paint0_linear_85_9972" x1="11.5663" y1="20.7059" x2="11.5905" y2="57.7752" gradientUnits="userSpaceOnUse">
<stop offset="0.1599" stop-color="#BFAB8D"/>
<stop offset="0.5078" stop-color="#E7E1D2"/>
<stop offset="0.7297" stop-color="#CCBFA6"/>
</linearGradient>
<linearGradient id="paint1_linear_85_9972" x1="4.91771" y1="25.1458" x2="21.6757" y2="25.2063" gradientUnits="userSpaceOnUse">
<stop stop-color="#BFAB8D"/>
<stop offset="0.5078" stop-color="#E7E1D2"/>
<stop offset="1" stop-color="#CCBFA6"/>
</linearGradient>
<linearGradient id="paint2_linear_85_9972" x1="-6.33491" y1="7.48115" x2="27.7047" y2="7.60411" gradientUnits="userSpaceOnUse">
<stop stop-color="#94938C"/>
<stop offset="0.2614" stop-color="#EDEBE1"/>
<stop offset="0.7687" stop-color="#EDEBE1"/>
<stop offset="1" stop-color="#94938C"/>
</linearGradient>
</defs>
</svg>
