<svg width="19" height="58" viewBox="0 0 19 58" fill="none" xmlns="http://www.w3.org/2000/svg">
<path d="M9.32709 56.2052C9.32709 56.2052 3.98119 57.0404 2.24005 54.1991C0.499362 51.3577 8.77771 54.5157 9.32709 56.2052Z" fill="#D8D6D0"/>
<path d="M3.96094 38.2822C3.96094 38.2822 4.28757 27.1697 5.2684 24.2281C6.24923 21.2865 7.22961 11.4814 6.90251 8.8665C6.57542 6.25157 6.57588 2.32962 6.57588 2.32962C6.57588 2.32962 6.24923 -0.611955 9.19081 1.67589C12.1324 3.96373 15.7277 15.0763 15.4006 19.652C15.074 24.2277 14.9705 38.0164 15.0223 37.986C15.0735 37.9551 3.96094 38.2822 3.96094 38.2822Z" fill="url(#paint0_linear_85_9819)"/>
<path d="M14.7494 36.9731C14.7494 36.9731 22.2667 48.0856 16.7106 53.9687C16.0319 54.6873 14.9644 55.1927 14.1374 55.7185C13.2836 56.2615 12.3726 57.0155 11.3319 57.133C10.1383 57.2682 9.26457 56.0192 8.09139 55.7756C6.22636 55.3882 4.40124 55.6949 2.80841 54.4228C1.49323 53.3726 0.695689 51.7353 0.424849 50.0958C0.0873201 48.0502 0.436644 45.9715 0.844038 43.9631C1.01779 43.1071 1.31358 42.2927 1.65973 41.4907C2.02856 40.636 2.69364 39.8017 2.98308 38.9334C2.98308 38.9343 5.59757 31.09 14.7494 36.9731Z" fill="url(#paint1_linear_85_9819)"/>
<path d="M15.6462 41.3755C15.5922 41.1695 15.5309 40.9654 15.4634 40.7644C14.8936 39.0722 13.881 37.5792 13.5326 35.809C13.3007 34.6331 13.3783 33.41 13.44 32.2068C13.665 27.8339 13.832 23.2914 13.4128 18.9307C12.9963 14.5986 11.9143 10.4013 10.8101 6.24798C10.4572 4.92916 9.93683 1.7807 8.80404 1.33203C8.70015 1.29074 8.43248 1.07389 8.13669 1.03125C8.04732 6.98246 7.86451 15.0169 7.65809 20.9586C7.62134 22.0229 6.25354 31.006 6.29074 31.5168C6.32795 32.0276 5.84706 35.3059 5.81031 35.6892C5.77357 36.0726 3.18634 40.798 3.33423 43.8207C3.48213 46.8435 3.72574 49.0166 4.9529 50.2288C6.18005 51.4415 8.43475 52.1224 9.58025 51.9523C10.7257 51.7822 13.0544 52.1224 13.6455 50.8027C14.3383 49.2566 15.3118 48.1016 15.7106 46.359C16.0826 44.7335 16.0694 42.986 15.6462 41.3755Z" fill="#FCF2D9"/>
<path d="M7.83707 44.736C7.46505 43.8169 7.36207 39.1704 7.38611 37.7373C7.42014 35.6808 8.62193 26.9136 8.76665 22.6986C8.95266 17.275 8.68545 8.31731 8.60741 4.5065C8.52938 0.695684 8.72446 0.786418 8.87962 0.831785C9.03478 0.877152 9.54108 2.23816 9.69624 4.82407C9.8514 7.40998 10.6989 15.5488 10.9797 20.9747C11.1752 24.7528 11.4143 34.8351 11.3748 36.717C11.3345 38.6414 11.8517 43.1763 11.5132 44.0247C11.1367 44.9687 10.3867 45.6978 9.93488 45.6198C9.35326 45.5195 8.20954 45.6551 7.83707 44.736Z" fill="white"/>
<defs>
<linearGradient id="paint0_linear_85_9819" x1="4.86073" y1="19.591" x2="17.7533" y2="19.1938" gradientUnits="userSpaceOnUse">
<stop stop-color="#BFAB8D"/>
<stop offset="0.5078" stop-color="#E7E1D2"/>
<stop offset="1" stop-color="#CCBFA6"/>
</linearGradient>
<linearGradient id="paint1_linear_85_9819" x1="-3.2873" y1="46.3693" x2="23.439" y2="45.546" gradientUnits="userSpaceOnUse">
<stop stop-color="#94938C"/>
<stop offset="0.0311" stop-color="#A6A59D"/>
<stop offset="0.0939" stop-color="#C5C3BB"/>
<stop offset="0.1552" stop-color="#DBD9D0"/>
<stop offset="0.2138" stop-color="#E8E7DD"/>
<stop offset="0.2666" stop-color="#EDEBE1"/>
<stop offset="0.7117" stop-color="#EDEBE1"/>
<stop offset="0.7637" stop-color="#E7E5DB"/>
<stop offset="0.835" stop-color="#D5D3CA"/>
<stop offset="0.9175" stop-color="#B8B7AF"/>
<stop offset="1" stop-color="#94938C"/>
</linearGradient>
</defs>
</svg>
