<svg width="20" height="70" viewBox="0 0 20 70" fill="none" xmlns="http://www.w3.org/2000/svg">
<path d="M16.0233 45.477C16.0233 45.477 3.94148 42.4488 2.9375 44.1754L7.81679 9.62273C7.81679 9.62273 7.66526 0.742188 8.97275 0.742188C10.2802 0.742188 11.5877 4.66414 11.5877 4.66414C11.5877 4.66414 15.732 37.2071 16.0233 45.477Z" fill="url(#paint0_linear_85_9809)"/>
<path d="M13.7031 41.9802C13.7035 41.9811 20.8937 51.4592 19.5862 59.3031C19.1643 61.8341 18.3005 64.4794 16.7748 66.5667C16.0308 67.5848 15.0641 68.5062 13.8451 68.9099C12.2327 69.4439 10.1636 69.0247 8.54714 68.664C7.75141 68.4867 6.96972 68.2421 6.22843 67.901C1.04573 65.5174 -0.323432 59.372 0.0934878 54.1639C0.386557 50.5055 1.49715 46.9565 2.94072 43.6039C3.87708 41.429 6.05831 40.8592 8.23546 40.5512C9.87411 40.3193 12.5889 40.5112 13.7031 41.9802Z" fill="url(#paint1_linear_85_9809)"/>
<path d="M13.7343 42.0114C13.7348 42.0123 20.9249 51.4904 19.6175 59.3343C19.1956 61.8653 18.3318 64.5107 16.8061 66.598C16.0621 67.616 15.0953 68.5374 13.8763 68.9412C12.264 69.4751 10.1948 69.056 8.57837 68.6953C7.78264 68.5179 7.00098 68.2734 6.25968 67.9322C1.07699 65.5486 -0.292183 59.4032 0.124738 54.1951C0.417807 50.5367 1.5284 46.9877 2.97197 43.6351C3.90834 41.4602 6.08957 40.8904 8.26672 40.5824C9.90537 40.3505 12.6201 40.5429 13.7343 42.0114Z" fill="url(#paint2_linear_85_9809)"/>
<path d="M7.78141 7.74587C8.13618 13.8672 7.59132 20.1609 7.48562 26.2922C7.41212 30.5625 7.62897 34.851 7.19663 39.1087C6.78832 43.1327 4.99905 46.7434 3.94064 50.6118C2.85184 54.5923 4.53041 63.8662 9.7476 63.5164C14.9648 63.1666 16.9609 58.0483 16.9609 54.4177C16.9609 48.8811 14.988 41.4809 14.1777 36.0542C13.1161 28.9411 12.7895 23.4559 11.9094 16.3197C11.6281 14.0405 11.2742 11.4383 11.2742 9.15178C11.0941 8.07024 10.8487 4.57339 10.503 3.52633C10.2616 2.79502 9.50264 0.286244 8.77904 0.66823C8.46056 0.836994 7.75238 7.24684 7.78141 7.74587Z" fill="#FCF2D9"/>
<path d="M13.0632 53.3753C13.4982 52.4562 13.1326 48.1051 13.1044 46.6715C13.0645 44.6151 12.1246 35.598 11.9554 31.383C11.7381 25.9595 10.726 16.3654 10.5945 12.5559C10.291 3.77572 8.90965 0.498896 8.73455 0.624562C8.58258 0.733441 9.5511 9.60712 9.36964 12.193C9.18819 14.7789 9.71893 24.1879 9.39095 29.6137C9.16232 33.3919 8.68828 43.2473 8.73455 45.1291C8.78173 47.0535 8.37209 51.8152 8.76766 52.6635C9.20769 53.6076 9.7525 54.1792 10.6121 54.2586C11.4718 54.3385 12.6286 54.2945 13.0632 53.3753Z" fill="white"/>
<defs>
<linearGradient id="paint0_linear_85_9809" x1="4.59821" y1="23.353" x2="14.203" y2="23.0572" gradientUnits="userSpaceOnUse">
<stop stop-color="#BFAB8D"/>
<stop offset="0.5078" stop-color="#E7E1D2"/>
<stop offset="1" stop-color="#CCBFA6"/>
</linearGradient>
<linearGradient id="paint1_linear_85_9809" x1="-5.48517" y1="54.5255" x2="26.3194" y2="55.094" gradientUnits="userSpaceOnUse">
<stop stop-color="#94938C"/>
<stop offset="0.2666" stop-color="#EDEBE1"/>
<stop offset="0.7117" stop-color="#EDEBE1"/>
<stop offset="1" stop-color="#94938C"/>
</linearGradient>
<linearGradient id="paint2_linear_85_9809" x1="-6.22477" y1="54.5433" x2="26.7279" y2="55.1323" gradientUnits="userSpaceOnUse">
<stop stop-color="#94938C"/>
<stop offset="0.0617" stop-color="#A4A29B"/>
<stop offset="0.1809" stop-color="#CCCAC2"/>
<stop offset="0.2666" stop-color="#EDEBE1"/>
<stop offset="0.7117" stop-color="#EDEBE1"/>
<stop offset="0.7719" stop-color="#E0DED5"/>
<stop offset="0.883" stop-color="#BEBDB4"/>
<stop offset="1" stop-color="#94938C"/>
</linearGradient>
</defs>
</svg>
