<svg width="26" height="75" viewBox="0 0 26 75" fill="none" xmlns="http://www.w3.org/2000/svg">
<path d="M25.3555 69.7746C25.3555 69.7746 27.6433 42.9738 15.5504 39.0514C15.5504 39.0514 1.82301 36.7636 0.515999 60.6228C0.478799 61.3033 0.373093 61.9802 0.344059 62.6634C0.281453 64.1541 0.335438 65.6608 0.592666 67.1324C0.86305 68.6781 1.36842 70.2754 2.41911 71.4763C2.92857 72.0583 3.56417 72.5202 4.28549 72.8033C4.91064 73.0487 5.59886 73.1408 6.25486 73.2755C7.06238 73.4416 7.8717 73.5976 8.68557 73.7283C9.12472 73.7986 9.5657 73.8621 10.0071 73.9152C11.6299 74.1107 13.2658 74.1724 14.8994 74.2341C17.5529 74.3344 20.303 74.4664 22.7819 73.3313C24.2481 72.6604 25.3555 71.4559 25.3555 69.7746Z" fill="url(#paint0_linear_85_9784)"/>
<path d="M11.3007 0.364754C11.7598 0.31349 12.2117 0.483618 12.6422 0.651021C12.7797 0.704554 12.9035 0.792108 13.0165 0.902803C14.5694 2.42849 15.3433 5.68219 16.125 7.6679C18.5149 13.7398 20.3313 20.0457 21.3838 26.4892C21.9078 29.6962 22.2426 32.9349 22.3701 36.1822C22.4345 37.8155 22.4468 39.4505 22.4055 41.0846C22.3719 42.422 22.5924 44.3669 22.0367 45.58C21.3525 44.8069 20.8653 43.8774 20.1412 43.1338C18.3711 41.3155 16.0823 40.0153 13.4978 40.0139C12.4068 40.0135 11.3348 40.2349 10.3154 40.6073C9.90165 40.7584 9.49699 40.934 9.10275 41.1299C7.95272 41.7016 6.5686 43.4269 5.34507 43.5199C5.16633 41.1277 5.77107 38.4429 5.9988 36.0439C5.9988 29.9538 7.20191 23.5222 8.11332 17.5134C8.38733 15.706 8.79971 13.9226 8.7616 12.0898C8.72213 10.1975 8.50981 8.30756 8.63819 6.41395C8.75342 4.71905 8.96574 0.624706 11.3007 0.364754Z" fill="url(#paint1_linear_85_9784)"/>
<path d="M25.3008 69.5481C25.3008 69.5481 27.5886 42.7473 15.4958 38.8249C15.4958 38.8249 1.76832 36.537 0.461312 60.3963C0.424111 61.0768 0.318406 61.7537 0.289371 62.4369C0.226765 63.9276 0.280751 65.4343 0.537979 66.906C0.808363 68.4516 1.31373 70.049 2.36442 71.2498C2.87389 71.8319 3.50948 72.2937 4.2308 72.5768C4.85595 72.8223 5.54417 72.9143 6.20017 73.0491C7.00769 73.2151 7.81704 73.3712 8.63091 73.5018C9.07006 73.5722 9.51101 73.6357 9.95243 73.6888C11.215 73.8407 12.4848 73.912 13.7555 73.965C14.1184 73.98 14.8888 71.1822 15.2517 71.1958C17.9052 71.2961 16.9466 64.9815 19.4254 63.8464C19.792 63.6786 23.4376 72.736 23.7479 72.5024C24.6779 71.8019 25.3008 70.8093 25.3008 69.5481Z" fill="url(#paint2_linear_85_9784)"/>
<path d="M6.12103 67.0897C4.69741 65.9678 4.30407 60.2965 4.39526 58.5467C4.52637 56.037 7.82319 40.8542 8.37667 35.7096C9.08894 29.0897 9.75765 22.4621 10.1401 15.8137C10.2227 14.3769 10.5253 3.20854 11.3886 2.12973C11.6041 1.91378 12.6557 0.945657 13.1144 2.47497C14.0598 5.62613 14.9413 13.48 15.3201 16.5522C16.1422 23.2125 17.3439 29.8215 18.4178 36.4441C19.1654 41.0556 21.6733 54.2169 21.5223 56.5138C21.368 58.8629 21.4792 65.1857 20.1848 66.2214C18.7444 67.3737 15.875 68.2633 14.1465 68.1685C11.9208 68.046 7.54465 68.2116 6.12103 67.0897Z" fill="#FCF2D9"/>
<path d="M9.33173 59.9742C8.78463 58.9457 8.63355 53.7463 8.66893 52.1421C8.71929 49.8411 9.98589 35.9217 10.1982 31.2049C10.4717 25.1358 10.7285 19.0594 10.8755 12.9639C10.9072 11.6465 11.0229 0.591044 11.4571 0.921313C11.5968 1.00433 11.6344 0.925849 11.6807 1.16992C12.4138 5.04923 12.6493 9.4575 12.8656 13.6408C13.1814 19.7471 13.6432 25.8063 14.0556 31.8777C14.3427 36.1054 15.3063 48.1721 15.2482 50.2775C15.1888 52.4311 15.2314 58.228 14.7342 59.1776C14.1808 60.2341 13.0784 61.0498 12.4147 60.9627C11.5596 60.8511 9.87883 61.0027 9.33173 59.9742Z" fill="white"/>
<defs>
<linearGradient id="paint0_linear_85_9784" x1="30.4302" y1="56.6379" x2="-4.59106" y2="56.6557" gradientUnits="userSpaceOnUse">
<stop stop-color="#94938C"/>
<stop offset="0.2296" stop-color="#EDEBE1"/>
<stop offset="0.7876" stop-color="#EDEBE1"/>
<stop offset="1" stop-color="#94938C"/>
</linearGradient>
<linearGradient id="paint1_linear_85_9784" x1="18.7027" y1="22.9329" x2="5.22182" y2="23.1739" gradientUnits="userSpaceOnUse">
<stop stop-color="#BFAB8D"/>
<stop offset="0.5078" stop-color="#E7E1D2"/>
<stop offset="1" stop-color="#CCBFA6"/>
</linearGradient>
<linearGradient id="paint2_linear_85_9784" x1="30.3756" y1="56.3573" x2="-4.6456" y2="56.3751" gradientUnits="userSpaceOnUse">
<stop stop-color="#94938C"/>
<stop offset="0.2296" stop-color="#EDEBE1"/>
<stop offset="0.7876" stop-color="#EDEBE1"/>
<stop offset="1" stop-color="#94938C"/>
</linearGradient>
</defs>
</svg>
