<svg width="36" height="12" viewBox="0 0 36 12" fill="none" xmlns="http://www.w3.org/2000/svg">
<path d="M0.988379 7.02898C0.988379 7.02898 1.88208 3.53119 3.4835 3.58563C5.08491 3.64007 5.97861 6.03091 7.15358 6.40292C8.32855 6.77492 7.95656 7.13786 9.70314 7.13786C11.4543 7.13786 24.6602 6.45735 25.7127 5.22791C26.7697 3.99847 28.3575 0.872702 29.156 0.391814C29.9544 -0.0890745 31.7191 -0.569965 33.629 2.03409C35.5389 4.63814 36.3283 10.2727 31.7055 11.0757C27.0873 11.8787 25.6447 10.8625 24.0523 10.9169C22.4645 10.9714 9.60334 10.9169 7.89306 11.1301C6.19638 11.3388 -1.23908 13.2352 0.988379 7.02898Z" fill="url(#paint0_linear_110_2628)"/>
<defs>
<linearGradient id="paint0_linear_110_2628" x1="-0.120827" y1="5.78775" x2="34.4466" y2="5.78775" gradientUnits="userSpaceOnUse">
<stop offset="1.61469e-07" stop-color="#F9F7F8"/>
<stop offset="0.5068" stop-color="#62666B"/>
<stop offset="0.9995" stop-color="#D0CFD1"/>
</linearGradient>
</defs>
</svg>
