<svg width="36" height="13" viewBox="0 0 36 13" fill="none" xmlns="http://www.w3.org/2000/svg">
<path d="M1.33395 7.88381C1.33395 7.88381 2.22767 4.38604 3.8291 4.44048C5.43053 4.49492 6.32426 6.88575 7.49925 7.25776C8.67424 7.62977 8.30222 7.9927 10.0488 7.9927C11.8 7.9927 25.0061 7.31219 26.0586 6.08276C27.1156 4.85332 28.7035 1.72756 29.5019 1.24667C30.3049 0.765784 32.0651 0.284895 33.975 2.88894C35.8849 5.49299 36.6743 11.1275 32.0515 11.9305C27.4332 12.7335 25.9905 11.7173 24.3982 11.7718C22.8104 11.8262 9.94902 11.7717 8.23871 11.985C6.54201 12.1982 -0.898071 14.09 1.33395 7.88381Z" fill="url(#paint0_linear_110_2631)"/>
<defs>
<linearGradient id="paint0_linear_110_2631" x1="0.223643" y1="6.64335" x2="34.7915" y2="6.64335" gradientUnits="userSpaceOnUse">
<stop offset="1.61469e-07" stop-color="#F9F7F8"/>
<stop offset="0.5068" stop-color="#62666B"/>
<stop offset="0.9995" stop-color="#D0CFD1"/>
</linearGradient>
</defs>
</svg>
