<svg width="36" height="12" viewBox="0 0 36 12" fill="none" xmlns="http://www.w3.org/2000/svg">
<path d="M0.946987 7.25638C0.946987 7.25638 1.8407 3.75867 3.44213 3.81311C5.04356 3.86755 5.93727 6.25834 7.11226 6.63034C8.28724 7.00234 7.91525 7.36527 9.66185 7.36527C11.413 7.36527 24.6191 6.68477 25.6716 5.45535C26.7241 4.22594 28.3164 1.10023 29.1149 0.619346C29.9179 0.138466 31.6781 -0.342415 33.588 2.26159C35.4979 4.8656 36.2873 10.5001 31.6645 11.303C27.0462 12.106 25.6035 11.0898 24.0112 11.1443C22.4188 11.1987 9.56205 11.1443 7.85174 11.3575C6.15504 11.5707 -1.28503 13.467 0.946987 7.25638Z" fill="url(#paint0_linear_110_2627)"/>
<defs>
<linearGradient id="paint0_linear_110_2627" x1="-0.165266" y1="6.0177" x2="34.4025" y2="6.0177" gradientUnits="userSpaceOnUse">
<stop offset="1.61469e-07" stop-color="#F9F7F8"/>
<stop offset="0.5068" stop-color="#62666B"/>
<stop offset="0.9995" stop-color="#D0CFD1"/>
</linearGradient>
</defs>
</svg>
