<svg width="35" height="12" viewBox="0 0 35 12" fill="none" xmlns="http://www.w3.org/2000/svg">
<path d="M0.754748 7.28417C0.754748 7.28417 1.64848 3.78635 3.24993 3.84079C4.85139 3.89523 5.74511 6.28609 6.92012 6.6581C8.09512 7.03011 7.72312 7.39305 9.46975 7.39305C11.2164 7.39305 24.4272 6.71254 25.4798 5.48308C26.5368 4.25363 28.1247 1.12784 28.9231 0.646944C29.7261 0.166052 31.4864 -0.314843 33.3963 2.28924C35.3063 4.89332 36.0956 10.5279 31.4727 11.3309C26.8498 12.1339 25.4117 11.1177 23.8193 11.1721C22.2315 11.2266 9.36995 11.1721 7.65961 11.3854C5.96289 11.5986 -1.47277 13.4949 0.754748 7.28417Z" fill="url(#paint0_linear_110_2634)"/>
<defs>
<linearGradient id="paint0_linear_110_2634" x1="-0.353889" y1="6.04501" x2="34.2144" y2="6.04501" gradientUnits="userSpaceOnUse">
<stop offset="1.61469e-07" stop-color="#F9F7F8"/>
<stop offset="0.5068" stop-color="#62666B"/>
<stop offset="0.9995" stop-color="#D0CFD1"/>
</linearGradient>
</defs>
</svg>
