<svg width="42" height="14" viewBox="0 0 42 14" fill="none" xmlns="http://www.w3.org/2000/svg">
<path d="M1.44494 8.37754C1.44494 8.37754 2.48839 4.30367 4.35293 4.36265C6.21748 4.42616 7.26089 7.2071 8.63095 7.64261C10.001 8.07813 9.56549 8.50004 11.6024 8.50004C13.6394 8.50004 29.023 7.70613 30.2524 6.2771C31.4818 4.84807 33.3328 1.20518 34.2673 0.647173C35.2019 0.0891706 37.2524 -0.47337 39.4799 2.56162C41.7074 5.59661 42.6238 12.1565 37.2388 13.0911C31.8538 14.0256 30.1753 12.8416 28.3244 12.9051C26.4734 12.9686 11.4936 12.9051 9.50199 13.1546C7.51041 13.3996 -1.15 15.6089 1.44494 8.37754Z" fill="url(#paint0_linear_110_2639)"/>
<defs>
<linearGradient id="paint0_linear_110_2639" x1="0.15222" y1="6.93309" x2="40.4174" y2="6.93309" gradientUnits="userSpaceOnUse">
<stop offset="1.61469e-07" stop-color="#F9F7F8"/>
<stop offset="0.5068" stop-color="#62666B"/>
<stop offset="0.9995" stop-color="#D0CFD1"/>
</linearGradient>
</defs>
</svg>
