<svg width="41" height="14" viewBox="0 0 41 14" fill="none" xmlns="http://www.w3.org/2000/svg">
<path d="M39.8964 8.2909C39.8964 8.2909 38.8529 4.21696 36.9884 4.27593C35.1238 4.33945 34.0804 7.12044 32.7104 7.55596C31.3403 7.99148 31.7758 8.41339 29.7389 8.41339C27.7019 8.41339 12.3183 7.61947 11.0889 6.19041C9.85943 4.76136 8.00849 1.1184 7.07395 0.560389C6.13941 0.00237644 4.08886 -0.560175 1.86139 2.47487C-0.36609 5.50991 -1.28249 12.07 4.10247 13.0045C9.48289 13.9391 11.166 12.755 13.0169 12.8185C14.8679 12.882 29.8478 12.8185 31.8393 13.068C33.8309 13.3176 42.4958 15.5224 39.8964 8.2909Z" fill="url(#paint0_linear_110_2646)"/>
<defs>
<linearGradient id="paint0_linear_110_2646" x1="41.1918" y1="6.84594" x2="0.926542" y2="6.84594" gradientUnits="userSpaceOnUse">
<stop offset="1.61469e-07" stop-color="#F9F7F8"/>
<stop offset="0.5068" stop-color="#62666B"/>
<stop offset="0.9995" stop-color="#D0CFD1"/>
</linearGradient>
</defs>
</svg>
