<svg width="41" height="15" viewBox="0 0 41 15" fill="none" xmlns="http://www.w3.org/2000/svg">
<path d="M39.9893 9.02576C39.9893 9.02576 38.9458 4.95182 37.0813 5.0108C35.2167 5.07431 34.1733 7.8553 32.8032 8.29082C31.4332 8.72635 31.8687 9.14825 29.8317 9.14825C27.7948 9.14825 12.4111 8.35433 11.1817 6.92528C9.95224 5.49622 8.1013 1.85327 7.16675 1.29525C6.23221 0.73724 4.18165 0.174688 1.95416 3.20973C-0.273322 6.24478 -1.18971 12.8048 4.19526 13.7394C9.58024 14.6739 11.2588 13.4899 13.1097 13.5534C14.9607 13.6169 29.9406 13.5534 31.9322 13.8029C33.9238 14.0524 42.5887 16.2572 39.9893 9.02576Z" fill="url(#paint0_linear_110_2644)"/>
<defs>
<linearGradient id="paint0_linear_110_2644" x1="41.2848" y1="7.58189" x2="1.01939" y2="7.58189" gradientUnits="userSpaceOnUse">
<stop offset="1.61469e-07" stop-color="#F9F7F8"/>
<stop offset="0.5068" stop-color="#62666B"/>
<stop offset="0.9995" stop-color="#D0CFD1"/>
</linearGradient>
</defs>
</svg>
