<svg width="35" height="13" viewBox="0 0 35 13" fill="none" xmlns="http://www.w3.org/2000/svg">
<path d="M34.2972 7.97004C34.2972 7.97004 33.4035 4.47236 31.802 4.5268C30.2006 4.58124 29.3069 6.972 28.1319 7.34399C26.9569 7.71599 27.3289 8.07891 25.5823 8.07891C23.8311 8.07891 10.625 7.39843 9.57246 6.16903C8.51542 4.93962 6.9276 1.81396 6.12915 1.33309C5.32616 0.852213 3.56594 0.371338 1.65601 2.97531C-0.253914 5.57928 -1.04328 11.2137 3.57956 12.0166C8.2024 12.8196 9.64051 11.8034 11.2329 11.8578C12.8207 11.9123 25.6821 11.8578 27.3924 12.0711C29.0891 12.2843 36.5292 14.1806 34.2972 7.97004Z" fill="url(#paint0_linear_110_2496)"/>
<defs>
<linearGradient id="paint0_linear_110_2496" x1="35.4093" y1="6.73204" x2="0.841397" y2="6.73204" gradientUnits="userSpaceOnUse">
<stop offset="1.61469e-07" stop-color="#F9F7F8"/>
<stop offset="0.5068" stop-color="#62666B"/>
<stop offset="0.9995" stop-color="#D0CFD1"/>
</linearGradient>
</defs>
</svg>
