<svg width="41" height="14" viewBox="0 0 41 14" fill="none" xmlns="http://www.w3.org/2000/svg">
<path d="M39.9565 8.42275C39.9565 8.42275 38.9144 4.34738 37.048 4.40954C35.1816 4.47169 34.1395 7.2559 32.7708 7.69143C31.4021 8.12696 31.8376 8.54707 29.7997 8.54707C27.7619 8.54707 12.3788 7.75359 11.1503 6.32269C9.92176 4.8918 8.07034 1.25196 7.13714 0.69212C6.20395 0.132284 4.15063 -0.428009 1.92629 2.60527C-0.298049 5.63854 -1.21582 12.2023 4.16606 13.1355C9.54794 14.0687 11.2279 12.8865 13.0789 12.9491C14.9298 13.0112 29.9086 12.9491 31.8993 13.1981C33.8905 13.4468 42.5542 15.6557 39.9565 8.42275Z" fill="url(#paint0_linear_122_39853)"/>
<defs>
<linearGradient id="paint0_linear_122_39853" x1="41.2499" y1="6.97891" x2="0.983952" y2="6.97891" gradientUnits="userSpaceOnUse">
<stop offset="1.61469e-07" stop-color="#F9F7F8"/>
<stop offset="0.5068" stop-color="#62666B"/>
<stop offset="0.9995" stop-color="#D0CFD1"/>
</linearGradient>
</defs>
</svg>
