<svg width="36" height="13" viewBox="0 0 36 13" fill="none" xmlns="http://www.w3.org/2000/svg">
<path d="M34.9624 7.82419C34.9624 7.82419 34.0687 4.32644 32.4673 4.38088C30.8658 4.43532 29.9721 6.82613 28.7972 7.19813C27.6222 7.57014 27.9942 7.93307 26.2476 7.93307C24.4964 7.93307 11.2904 7.25257 10.2379 6.02314C9.18088 4.79371 7.59306 1.66798 6.79462 1.1871C5.99617 0.706215 4.23144 0.22533 2.32153 2.82936C0.411622 5.43338 -0.377752 11.0679 4.24505 11.8709C8.86331 12.6738 10.306 11.6576 11.8983 11.7121C13.4861 11.7665 26.3474 11.7121 28.0577 11.9253C29.7544 12.1385 37.1899 14.0348 34.9624 7.82419Z" fill="url(#paint0_linear_110_2629)"/>
<defs>
<linearGradient id="paint0_linear_110_2629" x1="36.0707" y1="6.58414" x2="1.50313" y2="6.58414" gradientUnits="userSpaceOnUse">
<stop offset="1.61469e-07" stop-color="#F9F7F8"/>
<stop offset="0.5068" stop-color="#62666B"/>
<stop offset="0.9995" stop-color="#D0CFD1"/>
</linearGradient>
</defs>
</svg>
