<svg width="36" height="13" viewBox="0 0 36 13" fill="none" xmlns="http://www.w3.org/2000/svg">
<path d="M34.9297 7.49564C34.9297 7.49564 34.036 3.99786 32.4346 4.0523C30.8331 4.10674 29.9394 6.49758 28.7644 6.86958C27.5895 7.24159 27.9615 7.60451 26.2149 7.60451C24.4683 7.60451 11.2577 6.92402 10.2052 5.69458C9.14816 4.46514 7.56036 1.33938 6.76191 0.858488C5.95894 0.3776 4.19873 -0.103289 2.28882 2.50076C0.378907 5.10481 -0.410468 10.7394 4.21233 11.5424C8.8306 12.3454 10.2732 11.3291 11.8656 11.3836C13.4534 11.438 26.3147 11.3836 28.025 11.5968C29.7217 11.8055 37.1572 13.7018 34.9297 7.49564Z" fill="url(#paint0_linear_110_2643)"/>
<defs>
<linearGradient id="paint0_linear_110_2643" x1="36.0395" y1="6.25447" x2="1.47192" y2="6.25447" gradientUnits="userSpaceOnUse">
<stop offset="1.61469e-07" stop-color="#F9F7F8"/>
<stop offset="0.5068" stop-color="#62666B"/>
<stop offset="0.9995" stop-color="#D0CFD1"/>
</linearGradient>
</defs>
</svg>
