<svg width="35" height="12" viewBox="0 0 35 12" fill="none" xmlns="http://www.w3.org/2000/svg">
<path d="M34.5544 7.08777C34.5544 7.08777 33.6607 3.59014 32.0592 3.64458C30.4578 3.69901 29.5641 6.08975 28.3891 6.46174C27.2141 6.83373 27.5861 7.19664 25.8395 7.19664C24.0884 7.19664 10.8822 6.51616 9.82975 5.28677C8.77272 4.05738 7.1849 0.931748 6.38646 0.45088C5.58347 -0.0299882 3.82326 -0.510859 1.91334 2.09309C0.00341624 4.69703 -0.785962 10.3314 3.83686 11.1343C8.45515 11.9373 9.89781 10.9211 11.4902 10.9756C13.078 11.03 25.9393 10.9755 27.6496 11.1888C29.3463 11.3974 36.7864 13.2937 34.5544 7.08777Z" fill="url(#paint0_linear_110_2497)"/>
<defs>
<linearGradient id="paint0_linear_110_2497" x1="35.666" y1="5.8463" x2="1.09827" y2="5.8463" gradientUnits="userSpaceOnUse">
<stop offset="1.61469e-07" stop-color="#F9F7F8"/>
<stop offset="0.5068" stop-color="#62666B"/>
<stop offset="0.9995" stop-color="#D0CFD1"/>
</linearGradient>
</defs>
</svg>
