<svg width="35" height="12" viewBox="0 0 35 12" fill="none" xmlns="http://www.w3.org/2000/svg">
<path d="M34.2289 7.11333C34.2289 7.11333 33.3352 3.61554 31.7338 3.66998C30.1324 3.72443 29.2386 6.11525 28.0636 6.48726C26.8887 6.85927 27.2607 7.22221 25.5141 7.22221C23.7629 7.22221 10.5568 6.5417 9.50431 5.31226C8.44728 4.08282 6.85944 0.957053 6.06099 0.476164C5.25801 -0.00472394 3.49782 -0.485615 1.5879 2.11844C-0.322023 4.7225 -1.1114 10.357 3.51142 11.16C8.12971 11.963 9.57234 10.9468 11.1647 11.0013C12.7525 11.0557 25.6139 11.0013 27.3242 11.2145C29.0209 11.4232 36.461 13.3195 34.2289 7.11333Z" fill="url(#paint0_linear_110_2641)"/>
<defs>
<linearGradient id="paint0_linear_110_2641" x1="35.34" y1="5.87219" x2="0.772241" y2="5.87219" gradientUnits="userSpaceOnUse">
<stop offset="1.61469e-07" stop-color="#F9F7F8"/>
<stop offset="0.5068" stop-color="#62666B"/>
<stop offset="0.9995" stop-color="#D0CFD1"/>
</linearGradient>
</defs>
</svg>
