<svg width="35" height="12" viewBox="0 0 35 12" fill="none" xmlns="http://www.w3.org/2000/svg">
<path d="M0.820035 7.20403C0.820035 7.20403 1.71375 3.70625 3.31518 3.76069C4.91661 3.81513 5.81032 6.20595 6.98531 6.57796C8.1603 6.94996 7.7883 7.31291 9.5349 7.31291C11.286 7.31291 24.4922 6.6324 25.5447 5.40296C26.6017 4.17352 28.1895 1.04775 28.988 0.566863C29.7909 0.0859743 31.5512 -0.394916 33.4611 2.20914C35.371 4.8132 36.1604 10.4477 31.5376 11.2507C26.9193 12.0537 25.4766 11.0375 23.8843 11.092C22.2964 11.1464 9.4351 11.092 7.72479 11.3052C6.02809 11.5139 -1.41199 13.4102 0.820035 7.20403Z" fill="url(#paint0_linear_110_2499)"/>
<defs>
<linearGradient id="paint0_linear_110_2499" x1="-0.291793" y1="5.96289" x2="34.276" y2="5.96289" gradientUnits="userSpaceOnUse">
<stop offset="1.61469e-07" stop-color="#F9F7F8"/>
<stop offset="0.5068" stop-color="#62666B"/>
<stop offset="0.9995" stop-color="#D0CFD1"/>
</linearGradient>
</defs>
</svg>
