<svg width="36" height="12" viewBox="0 0 36 12" fill="none" xmlns="http://www.w3.org/2000/svg">
<path d="M0.895713 7.08777C0.895713 7.08777 1.78942 3.59014 3.39083 3.64458C4.99223 3.69901 5.88594 6.08975 7.06091 6.46174C8.23588 6.83373 7.86389 7.19664 9.61047 7.19664C11.357 7.19664 24.5675 6.51616 25.62 5.28677C26.677 4.05738 28.2648 0.931748 29.0633 0.45088C29.8662 -0.0299882 31.6264 -0.510859 33.5363 2.09309C35.4462 4.69703 36.2356 10.3314 31.6128 11.1343C26.9946 11.9373 25.552 10.9211 23.9596 10.9756C22.3718 11.03 9.51067 10.9755 7.80038 11.1888C6.1037 11.3974 -1.33628 13.2937 0.895713 7.08777Z" fill="url(#paint0_linear_110_2498)"/>
<defs>
<linearGradient id="paint0_linear_110_2498" x1="-0.215506" y1="5.8463" x2="34.3518" y2="5.8463" gradientUnits="userSpaceOnUse">
<stop offset="1.61469e-07" stop-color="#F9F7F8"/>
<stop offset="0.5068" stop-color="#62666B"/>
<stop offset="0.9995" stop-color="#D0CFD1"/>
</linearGradient>
</defs>
</svg>
