<svg width="35" height="13" viewBox="0 0 35 13" fill="none" xmlns="http://www.w3.org/2000/svg">
<path d="M0.470807 7.90392C0.470807 7.90392 1.36452 4.40629 2.96596 4.46073C4.56739 4.51516 5.46112 6.9059 6.63611 7.27789C7.8111 7.64988 7.43908 8.01279 9.18569 8.01279C10.9368 8.01279 24.143 7.33232 25.1955 6.10293C26.2525 4.87354 27.8403 1.74791 28.6388 1.26704C29.4418 0.786174 31.202 0.305304 33.1119 2.90925C35.0218 5.51319 35.8112 11.1475 31.1884 11.9505C26.5701 12.7534 25.1274 11.7373 23.5351 11.7917C21.9473 11.8461 9.08589 11.7917 7.37557 12.0049C5.67887 12.2136 -1.75668 14.1098 0.470807 7.90392Z" fill="url(#paint0_linear_110_2642)"/>
<defs>
<linearGradient id="paint0_linear_110_2642" x1="-0.637733" y1="6.66281" x2="33.9301" y2="6.66281" gradientUnits="userSpaceOnUse">
<stop offset="1.61469e-07" stop-color="#F9F7F8"/>
<stop offset="0.5068" stop-color="#62666B"/>
<stop offset="0.9995" stop-color="#D0CFD1"/>
</linearGradient>
</defs>
</svg>
