<svg width="36" height="13" viewBox="0 0 36 13" fill="none" xmlns="http://www.w3.org/2000/svg">
<path d="M0.891211 7.59727C0.891211 7.59727 1.78492 4.09952 3.38633 4.15396C4.98774 4.2084 5.88146 6.59921 7.05643 6.97121C8.23141 7.34322 7.8594 7.70615 9.60598 7.70615C11.3526 7.70615 24.5631 7.02565 25.6155 5.79622C26.6726 4.56679 28.2604 1.44105 29.0588 0.960169C29.8618 0.479286 31.622 -0.00159986 33.5319 2.60243C35.4418 5.20646 36.2311 10.841 31.6084 11.6439C26.9901 12.4469 25.5475 11.4307 23.9552 11.4852C22.3674 11.5396 9.50618 11.4852 7.79589 11.6984C6.09921 11.9116 -1.33625 13.8079 0.891211 7.59727Z" fill="url(#paint0_linear_110_2633)"/>
<defs>
<linearGradient id="paint0_linear_110_2633" x1="-0.21882" y1="6.35722" x2="34.3486" y2="6.35722" gradientUnits="userSpaceOnUse">
<stop offset="1.61469e-07" stop-color="#F9F7F8"/>
<stop offset="0.5068" stop-color="#62666B"/>
<stop offset="0.9995" stop-color="#D0CFD1"/>
</linearGradient>
</defs>
</svg>
