<svg width="35" height="12" viewBox="0 0 35 12" fill="none" xmlns="http://www.w3.org/2000/svg">
<path d="M0.53415 7.02901C0.53415 7.02901 1.42787 3.53133 3.02932 3.58577C4.63076 3.64021 5.52448 6.03097 6.69948 6.40297C7.87447 6.77497 7.50245 7.13789 9.24907 7.13789C10.9957 7.13789 24.2065 6.4574 25.259 5.228C26.316 3.99859 27.9039 0.872921 28.7023 0.392047C29.5053 -0.0888274 31.2655 -0.569704 33.1755 2.03427C35.0854 4.63825 35.8748 10.2726 31.2519 11.0756C26.6336 11.8786 25.1909 10.8624 23.5986 10.9168C22.0107 10.9713 9.14927 10.9168 7.43894 11.1301C5.74223 11.3387 -1.69789 13.235 0.53415 7.02901Z" fill="url(#paint0_linear_110_2635)"/>
<defs>
<linearGradient id="paint0_linear_110_2635" x1="-0.576617" y1="5.78744" x2="33.9915" y2="5.78744" gradientUnits="userSpaceOnUse">
<stop offset="1.61469e-07" stop-color="#F9F7F8"/>
<stop offset="0.5068" stop-color="#62666B"/>
<stop offset="0.9995" stop-color="#D0CFD1"/>
</linearGradient>
</defs>
</svg>
