<svg width="35" height="12" viewBox="0 0 35 12" fill="none" xmlns="http://www.w3.org/2000/svg">
<path d="M34.499 7.21111C34.499 7.21111 33.6053 3.71333 32.0039 3.76777C30.4025 3.82221 29.5087 6.21305 28.3338 6.58506C27.1588 6.95707 27.5308 7.32 25.7842 7.32C24.0331 7.32 10.827 6.63949 9.77453 5.41005C8.7175 4.1806 7.12968 1.05483 6.33124 0.573943C5.52826 0.0930542 3.76806 -0.387837 1.85815 2.21622C-0.0517575 4.82028 -0.841131 10.4549 3.78167 11.2578C8.39993 12.0608 9.84257 11.0446 11.4349 11.0991C13.0273 11.1535 25.884 11.0991 27.5943 11.3123C29.3046 11.5255 36.731 13.4218 34.499 7.21111Z" fill="url(#paint0_linear_110_2632)"/>
<defs>
<linearGradient id="paint0_linear_110_2632" x1="35.6097" y1="5.97241" x2="1.04208" y2="5.97241" gradientUnits="userSpaceOnUse">
<stop offset="1.61469e-07" stop-color="#F9F7F8"/>
<stop offset="0.5068" stop-color="#62666B"/>
<stop offset="0.9995" stop-color="#D0CFD1"/>
</linearGradient>
</defs>
</svg>
