<svg width="41" height="14" viewBox="0 0 41 14" fill="none" xmlns="http://www.w3.org/2000/svg">
<path d="M0.56847 8.52272C0.56847 8.52272 1.61188 4.44877 3.47641 4.50775C5.34093 4.57126 6.38436 7.35226 7.7544 7.78778C9.12444 8.2233 8.68893 8.64521 10.7258 8.64521C12.7628 8.64521 28.1462 7.85129 29.3756 6.42223C30.605 4.99317 32.4559 1.35021 33.3905 0.792201C34.325 0.234188 36.3755 -0.328364 38.603 2.70668C40.8305 5.74173 41.7468 12.3018 36.3619 13.2364C30.9816 14.1709 29.2985 12.9868 27.4476 13.0503C25.5967 13.1139 10.617 13.0503 8.6254 13.2999C6.63385 13.5494 -2.02644 15.7542 0.56847 8.52272Z" fill="url(#paint0_linear_110_2647)"/>
<defs>
<linearGradient id="paint0_linear_110_2647" x1="-0.724367" y1="7.07885" x2="39.5404" y2="7.07885" gradientUnits="userSpaceOnUse">
<stop offset="1.61469e-07" stop-color="#F9F7F8"/>
<stop offset="0.5068" stop-color="#62666B"/>
<stop offset="0.9995" stop-color="#D0CFD1"/>
</linearGradient>
</defs>
</svg>
