<svg width="42" height="15" viewBox="0 0 42 15" fill="none" xmlns="http://www.w3.org/2000/svg">
<path d="M1.45182 9.13901C1.45182 9.13901 2.49524 5.06514 4.35977 5.12412C6.2243 5.18763 7.2677 7.96857 8.63774 8.40408C10.0078 8.83959 9.57227 9.26149 11.6092 9.26149C13.6461 9.26149 29.0296 8.46759 30.2591 7.03856C31.4885 5.60953 33.3394 1.96665 34.2739 1.40865C35.2084 0.850645 37.2589 0.288105 39.4864 3.32309C41.7093 6.35807 42.6303 12.918 37.2454 13.8525C31.865 14.7871 30.1819 13.603 28.331 13.6665C26.4801 13.73 11.5003 13.6665 9.50877 13.916C7.52175 14.161 -1.1431 16.3703 1.45182 9.13901Z" fill="url(#paint0_linear_110_2645)"/>
<defs>
<linearGradient id="paint0_linear_110_2645" x1="0.160314" y1="7.69448" x2="40.4252" y2="7.69448" gradientUnits="userSpaceOnUse">
<stop offset="1.61469e-07" stop-color="#F9F7F8"/>
<stop offset="0.5068" stop-color="#62666B"/>
<stop offset="0.9995" stop-color="#D0CFD1"/>
</linearGradient>
</defs>
</svg>
