<svg width="35" height="13" viewBox="0 0 35 13" fill="none" xmlns="http://www.w3.org/2000/svg">
<path d="M34.4008 7.76963C34.4008 7.76963 33.5071 4.27188 31.9056 4.32632C30.3042 4.38076 29.4105 6.77157 28.2355 7.14358C27.0605 7.51558 27.4325 7.87851 25.6859 7.87851C23.9393 7.87851 10.7287 7.19802 9.67617 5.96859C8.61914 4.73916 7.03132 1.61342 6.23288 1.13253C5.43443 0.651649 3.66968 0.170763 1.75977 2.77479C-0.150153 5.37882 -0.939518 11.0133 3.6833 11.8163C8.30158 12.6193 9.74422 11.6031 11.3366 11.6575C12.9244 11.712 25.7857 11.6575 27.496 11.8708C29.2063 12.084 36.6282 13.9803 34.4008 7.76963Z" fill="url(#paint0_linear_110_2636)"/>
<defs>
<linearGradient id="paint0_linear_110_2636" x1="35.5108" y1="6.53179" x2="0.943031" y2="6.53179" gradientUnits="userSpaceOnUse">
<stop offset="1.61469e-07" stop-color="#F9F7F8"/>
<stop offset="0.5068" stop-color="#62666B"/>
<stop offset="0.9995" stop-color="#D0CFD1"/>
</linearGradient>
</defs>
</svg>
