<svg width="35" height="13" viewBox="0 0 35 13" fill="none" xmlns="http://www.w3.org/2000/svg">
<path d="M34.3771 7.79297C34.3771 7.79297 33.4834 4.29527 31.882 4.34971C30.2805 4.40415 29.3868 6.79493 28.2119 7.16693C27.0369 7.53893 27.4089 7.90185 25.6623 7.90185C23.9112 7.90185 10.7052 7.22136 9.65267 5.99195C8.59565 4.76254 7.00784 1.63684 6.2094 1.15597C5.40643 0.675088 3.64623 0.194209 1.73632 2.7982C-0.173582 5.4022 -0.962954 11.0366 3.65983 11.8396C8.27808 12.6426 9.72072 11.6264 11.3131 11.6808C12.9009 11.7353 25.7621 11.6808 27.4724 11.894C29.1736 12.1073 36.6091 13.999 34.3771 7.79297Z" fill="url(#paint0_linear_110_2625)"/>
<defs>
<linearGradient id="paint0_linear_110_2625" x1="35.4897" y1="6.55253" x2="0.922193" y2="6.55253" gradientUnits="userSpaceOnUse">
<stop offset="1.61469e-07" stop-color="#F9F7F8"/>
<stop offset="0.5068" stop-color="#62666B"/>
<stop offset="0.9995" stop-color="#D0CFD1"/>
</linearGradient>
</defs>
</svg>
