<svg width="36" height="13" viewBox="0 0 36 13" fill="none" xmlns="http://www.w3.org/2000/svg">
<path d="M34.6465 7.93828C34.6465 7.93828 33.7528 4.44049 32.1513 4.49493C30.5499 4.54937 29.6562 6.94021 28.4812 7.31222C27.3062 7.68422 27.6782 8.04716 25.9316 8.04716C24.1805 8.04716 10.9743 7.36665 9.92181 6.13721C8.86478 4.90777 7.27694 1.782 6.47849 1.30112C5.6755 0.820227 3.9153 0.339337 2.00538 2.94339C0.0954564 5.54745 -0.693923 11.182 3.92891 11.985C8.54721 12.788 9.98984 11.7718 11.5822 11.8262C13.17 11.8807 26.0314 11.8262 27.7417 12.0394C29.4384 12.2481 36.874 14.1445 34.6465 7.93828Z" fill="url(#paint0_linear_110_2630)"/>
<defs>
<linearGradient id="paint0_linear_110_2630" x1="35.7557" y1="6.69705" x2="1.1878" y2="6.69705" gradientUnits="userSpaceOnUse">
<stop offset="1.61469e-07" stop-color="#F9F7F8"/>
<stop offset="0.5068" stop-color="#62666B"/>
<stop offset="0.9995" stop-color="#D0CFD1"/>
</linearGradient>
</defs>
</svg>
