<svg width="56" height="19" viewBox="0 0 56 19" fill="none" xmlns="http://www.w3.org/2000/svg">
<path d="M54.4678 11.5007C54.4678 11.5007 53.0615 6.00232 50.5436 6.08398C48.0258 6.17018 46.6194 9.9265 44.773 10.5117C42.9266 11.097 43.5118 11.664 40.7626 11.664C38.0134 11.664 17.2491 10.5934 15.5933 8.66078C13.9374 6.72818 11.4377 1.81954 10.1765 1.06193C8.91531 0.304309 6.14795 -0.448765 3.14469 3.64328C0.141429 7.73532 -1.09707 16.5954 6.16611 17.8565C13.4293 19.1177 15.6976 17.5208 18.1928 17.6025C20.6925 17.6887 40.9078 17.6025 43.5935 17.9382C46.2837 18.283 57.9747 21.2635 54.4678 11.5007Z" fill="url(#paint0_linear_110_2626)"/>
<defs>
<linearGradient id="paint0_linear_110_2626" x1="56.2151" y1="9.5529" x2="1.87159" y2="9.5529" gradientUnits="userSpaceOnUse">
<stop offset="1.61469e-07" stop-color="#F9F7F8"/>
<stop offset="0.5068" stop-color="#62666B"/>
<stop offset="0.9995" stop-color="#D0CFD1"/>
</linearGradient>
</defs>
</svg>
