<svg width="56" height="19" viewBox="0 0 56 19" fill="none" xmlns="http://www.w3.org/2000/svg">
<path d="M1.55887 11.546C1.55887 11.546 2.96523 6.04761 5.48306 6.12927C8.00089 6.21547 9.40725 9.97179 11.2537 10.557C13.1001 11.1422 12.5148 11.7093 15.264 11.7093C18.0132 11.7093 38.7774 10.6387 40.4333 8.70607C42.0891 6.77347 44.5888 1.86483 45.85 1.10721C47.1112 0.349597 49.8785 -0.403477 52.8818 3.68856C55.885 7.7806 57.1236 16.6406 49.8604 17.9018C42.5973 19.163 40.3289 17.5661 37.8338 17.6478C35.3341 17.734 15.1189 17.6478 12.4332 17.9835C9.7475 18.3283 -1.94794 21.3088 1.55887 11.546Z" fill="url(#paint0_linear_110_2649)"/>
<defs>
<linearGradient id="paint0_linear_110_2649" x1="-0.186379" y1="9.59819" x2="54.1569" y2="9.59819" gradientUnits="userSpaceOnUse">
<stop offset="1.61469e-07" stop-color="#F9F7F8"/>
<stop offset="0.5068" stop-color="#62666B"/>
<stop offset="0.9995" stop-color="#D0CFD1"/>
</linearGradient>
</defs>
</svg>
